<svg width="598" height="423" viewBox="0 0 598 423" fill="none" xmlns="http://www.w3.org/2000/svg">
<g filter="url(#filter0_f_16013_14372)">
<rect width="358.052" height="282.057" transform="matrix(-1 0 0 1 493.043 70.499)" fill="url(#paint0_linear_16013_14372)"/>
</g>
<g filter="url(#filter1_d_16013_14372)">
<rect x="52.3696" y="95.6132" width="493.261" height="229.981" rx="10.1142" fill="#161617" stroke="#252526" stroke-width="0.518676"/>
<path d="M52.6289 151.237H545.371V315.48C545.371 320.923 540.959 325.335 535.516 325.335H62.4838C57.0411 325.335 52.6289 320.923 52.6289 315.48V151.237Z" fill="#111113"/>
<g clip-path="url(#clip0_16013_14372)">
<path fill-rule="evenodd" clip-rule="evenodd" d="M464.34 241.883V222.484L442.42 241.562H441.94V222.484L420.02 241.562V201.643C420.02 198.276 412.5 194.909 402.58 194.909C392.66 194.909 384.5 198.115 384.5 201.643V274.749H464.5L464.34 241.883ZM402.58 204.849C395.38 204.849 389.62 203.086 389.62 201.162C389.62 199.238 395.38 197.475 402.58 197.475C409.78 197.475 415.54 199.078 415.54 201.162C415.38 203.086 409.62 204.849 402.58 204.849ZM440.34 261.763H431.54V252.945H440.34V261.763ZM424.82 261.763H416.02V252.945H424.82V261.763ZM447.22 261.763V252.945H456.02V261.763H447.22Z" fill="#59B4D9"/>
<path fill-rule="evenodd" clip-rule="evenodd" d="M384.5 201.163H402.26V274.75H384.5V201.163Z" fill="#3999C6"/>
<path fill-rule="evenodd" clip-rule="evenodd" d="M419.86 201.163C419.86 204.69 411.86 207.576 402.1 207.576C392.34 207.576 384.5 204.69 384.5 201.163C384.5 197.636 392.5 194.75 402.26 194.75C412.02 194.75 419.86 197.476 419.86 201.163Z" fill="white"/>
<path fill-rule="evenodd" clip-rule="evenodd" d="M416.34 200.682C416.34 203.087 410.1 204.85 402.26 204.85C394.42 204.85 388.18 203.086 388.18 200.682C388.18 198.278 394.42 196.514 402.26 196.514C410.1 196.514 416.34 198.437 416.34 200.682Z" fill="#7FBA00"/>
<path fill-rule="evenodd" clip-rule="evenodd" d="M413.3 203.247C415.22 202.606 416.18 201.644 416.18 200.682C416.18 198.277 409.94 196.514 402.1 196.514C394.26 196.514 388.02 198.437 388.02 200.682C388.18 201.644 389.3 202.606 391.06 203.247C393.62 202.285 397.62 201.644 402.26 201.644C406.74 201.644 410.74 202.285 413.3 203.247Z" fill="#B8D432"/>
</g>
<path d="M317.343 250L324.388 230.024H327.953L320.907 250H317.343ZM328.648 250L335.694 230.024H339.258L332.213 250H328.648Z" fill="#C182FF"/>
<path d="M170.916 220.133H164.559V248.994H170.916V243.245L173.294 240.774L178.617 248.994H185.85L177.61 236.306L185.541 228.068H177.691L170.916 235.303V220.133Z" fill="white"/>
<path d="M236.763 221.66H230.48V228.068H226.839V233.236H230.48V244.249C230.48 245.789 230.873 246.988 231.7 247.799C232.526 248.609 233.745 248.994 235.312 248.994H240.815V243.938H236.763V233.236H240.815V228.068H236.763V221.66Z" fill="white"/>
<path fill-rule="evenodd" clip-rule="evenodd" d="M195.553 227.695C192.45 227.695 189.939 228.651 188.045 230.579L188.043 230.581C186.172 232.523 185.25 235.183 185.25 238.531C185.25 241.841 186.16 244.488 188.004 246.442C189.851 248.399 192.403 249.366 195.628 249.366C198.256 249.366 200.472 248.748 202.263 247.498L202.264 247.497L202.266 247.496C204.056 246.208 205.173 244.506 205.609 242.397L205.668 242.112H199.434L199.38 242.275C199.163 242.935 198.724 243.469 198.046 243.878C197.38 244.274 196.566 244.478 195.591 244.478C194.405 244.478 193.47 244.151 192.763 243.515C192.057 242.869 191.701 242.028 191.701 240.971V240.109H205.289L205.313 239.9C205.414 239.046 205.464 238.211 205.464 237.394C205.464 234.402 204.557 232.031 202.721 230.313C200.925 228.561 198.527 227.695 195.553 227.695ZM192.721 233.476C193.402 232.888 194.314 232.584 195.479 232.584C196.605 232.584 197.492 232.882 198.162 233.457L198.164 233.459L198.165 233.46C198.843 234.022 199.181 234.754 199.181 235.681V235.816H191.701V235.755C191.701 234.802 192.041 234.05 192.719 233.477L192.721 233.476Z" fill="white"/>
<path fill-rule="evenodd" clip-rule="evenodd" d="M216.432 227.695C213.771 227.695 211.635 228.286 210.05 229.495L210.049 229.495C208.467 230.711 207.678 232.398 207.678 234.526C207.678 236.188 208.2 237.55 209.257 238.588C210.309 239.62 211.868 240.311 213.905 240.682L213.907 240.683L217.554 241.28L217.557 241.28C218.169 241.364 218.625 241.529 218.944 241.759L218.946 241.76L218.947 241.761C219.239 241.964 219.439 242.346 219.499 242.975C219.497 243.539 219.272 243.965 218.818 244.278L218.815 244.279C218.361 244.6 217.683 244.776 216.749 244.776C215.723 244.776 214.953 244.553 214.411 244.137C213.893 243.729 213.625 243.145 213.625 242.349V242.112H207.361V242.349C207.361 244.483 208.204 246.199 209.882 247.474L209.883 247.474C211.568 248.745 213.853 249.366 216.712 249.366C219.507 249.366 221.742 248.763 223.39 247.531C225.06 246.291 225.894 244.567 225.894 242.386C225.894 240.669 225.402 239.281 224.394 238.249C223.39 237.222 221.902 236.575 219.961 236.285L219.959 236.285L216.43 235.707L216.427 235.707C215.989 235.646 215.689 235.604 215.526 235.579C215.397 235.546 215.228 235.484 215.015 235.39C214.817 235.302 214.619 235.173 214.423 235.001C214.143 234.753 213.999 234.423 213.999 233.986C213.999 233.433 214.199 233.029 214.592 232.743C214.997 232.448 215.588 232.286 216.394 232.286C217.32 232.286 217.976 232.475 218.403 232.816C218.82 233.149 219.053 233.657 219.07 234.383L219.076 234.614H225.323L225.315 234.37C225.251 232.326 224.422 230.694 222.831 229.494C221.246 228.286 219.104 227.695 216.432 227.695ZM223.248 247.341L223.39 247.531L223.39 247.531L223.248 247.341ZM214.265 244.324L214.41 244.136L214.411 244.137L214.412 244.137L214.265 244.324ZM219.737 242.964L219.5 242.986L219.499 242.975L219.499 242.964H219.737Z" fill="white"/>
<path fill-rule="evenodd" clip-rule="evenodd" d="M266.704 227.695C263.93 227.695 261.684 228.318 259.988 229.586C258.295 230.85 257.37 232.655 257.204 234.975L257.186 235.229H263.395L263.411 235.009C263.469 234.229 263.751 233.655 264.24 233.256L264.24 233.256C264.744 232.843 265.467 232.621 266.442 232.621C267.423 232.621 268.114 232.855 268.561 233.282C269.006 233.706 269.249 234.36 269.249 235.29V236.245H264.07C261.728 236.245 259.844 236.826 258.445 238.015C257.052 239.196 256.363 240.819 256.363 242.852C256.363 244.817 256.973 246.41 258.209 247.604L258.211 247.606C259.46 248.787 261.123 249.366 263.174 249.366C264.738 249.366 266.123 249.049 267.32 248.407L267.322 248.406C268.412 247.809 269.186 247.024 269.625 246.046L269.681 246.392L269.682 246.395C269.839 247.283 270.212 247.961 270.825 248.392L270.826 248.393L270.828 248.394C271.435 248.807 272.353 248.994 273.538 248.994H278.071V244.478H275.55V235.401C275.55 233.27 274.838 231.448 273.413 229.95C272.005 228.428 269.748 227.695 266.704 227.695ZM262.739 241.958C262.739 241.36 262.94 240.945 263.319 240.668C263.711 240.382 264.329 240.221 265.21 240.221H269.249V240.71C269.249 241.9 268.887 242.821 268.182 243.501C267.477 244.169 266.509 244.515 265.247 244.515C264.354 244.515 263.728 244.349 263.33 244.054C262.944 243.769 262.739 243.34 262.739 242.722V241.958Z" fill="white"/>
<path d="M249.056 228.068C246.899 228.068 245.398 228.633 244.686 229.863C244.378 230.388 244.162 230.907 244.044 231.418L244.043 231.42L244.043 231.422C243.939 231.916 243.888 232.517 243.888 233.222V248.994H250.171V233.236H256.259V228.068H249.056Z" fill="white"/>
<path d="M282.234 249.011C281.557 249.011 280.996 248.797 280.551 248.368C280.123 247.921 279.909 247.371 279.909 246.719C279.909 246.067 280.123 245.526 280.551 245.098C280.996 244.651 281.557 244.427 282.234 244.427C282.893 244.427 283.436 244.651 283.864 245.098C284.291 245.526 284.505 246.067 284.505 246.719C284.505 247.371 284.291 247.921 283.864 248.368C283.436 248.797 282.893 249.011 282.234 249.011Z" fill="#F62E76"/>
<path d="M138.064 231.706C138.579 231.192 139.415 231.192 139.93 231.706L142.048 233.819C142.563 234.333 142.563 235.166 142.048 235.68L139.93 237.793C139.415 238.307 138.579 238.307 138.064 237.793L135.946 235.68C135.431 235.166 135.431 234.333 135.946 233.819L138.064 231.706Z" fill="#A950FF"/>
<path d="M147.819 231.689C148.325 231.185 149.146 231.185 149.652 231.689L151.803 233.835C152.309 234.34 152.309 235.158 151.803 235.663L149.652 237.809C149.146 238.314 148.325 238.314 147.819 237.809L145.668 235.663C145.162 235.158 145.162 234.34 145.668 233.835C146.174 233.331 147.819 231.689 147.819 231.689Z" fill="#A950FF"/>
<path d="M138.081 221.976C138.587 221.471 139.407 221.471 139.913 221.976L142.065 224.122C142.571 224.627 142.571 225.445 142.065 225.95L139.913 228.096C139.407 228.6 138.587 228.6 138.081 228.096L135.929 225.95C135.423 225.445 135.423 224.627 135.929 224.122L138.081 221.976Z" fill="#E9C1FF"/>
<path d="M137.179 228.962C137.694 229.476 137.694 230.309 137.179 230.823L135.061 232.936C134.546 233.45 133.71 233.45 133.195 232.936L131.077 230.823C130.562 230.309 130.562 229.476 131.077 228.962L133.195 226.849C133.71 226.336 134.546 226.336 135.061 226.849L137.179 228.962Z" fill="#CD88FF"/>
<path d="M132.326 233.835C132.832 234.34 132.832 235.158 132.326 235.663L130.175 237.809C129.669 238.314 128.848 238.314 128.342 237.809L126.191 235.663C125.685 235.158 125.685 234.34 126.191 233.835L128.342 231.689C128.848 231.185 129.669 231.185 130.175 231.689L132.326 233.835Z" fill="#A950FF"/>
<path d="M146.917 228.962C147.433 229.476 147.433 230.309 146.917 230.823L144.799 232.936C144.284 233.45 143.449 233.45 142.933 232.936L140.815 230.823C140.3 230.309 140.3 229.476 140.815 228.962L142.933 226.849C143.449 226.336 144.284 226.336 144.799 226.849L146.917 228.962Z" fill="#CD88FF"/>
<path d="M141.081 242.837C142.233 243.985 142.233 245.847 141.081 246.995C139.93 248.143 138.064 248.143 136.913 246.995C135.762 245.847 135.762 243.985 136.913 242.837C138.064 241.689 139.93 241.689 141.081 242.837Z" fill="#F62E76"/>
<circle cx="80.1909" cy="122.272" r="6.29249" fill="#ED6A5E"/>
<circle cx="101.167" cy="122.272" r="6.29249" fill="#F4BF4F"/>
<circle cx="122.14" cy="122.272" r="6.29249" fill="#61C554"/>
</g>
<defs>
<filter id="filter0_f_16013_14372" x="64.9906" y="0.499023" width="498.052" height="422.057" filterUnits="userSpaceOnUse" color-interpolation-filters="sRGB">
<feFlood flood-opacity="0" result="BackgroundImageFix"/>
<feBlend mode="normal" in="SourceGraphic" in2="BackgroundImageFix" result="shape"/>
<feGaussianBlur stdDeviation="35" result="effect1_foregroundBlur_16013_14372"/>
</filter>
<filter id="filter1_d_16013_14372" x="28.1102" y="95.354" width="541.779" height="278.5" filterUnits="userSpaceOnUse" color-interpolation-filters="sRGB">
<feFlood flood-opacity="0" result="BackgroundImageFix"/>
<feColorMatrix in="SourceAlpha" type="matrix" values="0 0 0 0 0 0 0 0 0 0 0 0 0 0 0 0 0 0 127 0" result="hardAlpha"/>
<feOffset dy="24"/>
<feGaussianBlur stdDeviation="12"/>
<feComposite in2="hardAlpha" operator="out"/>
<feColorMatrix type="matrix" values="0 0 0 0 0.352941 0 0 0 0 0.184314 0 0 0 0 0.835294 0 0 0 0.22 0"/>
<feBlend mode="normal" in2="BackgroundImageFix" result="effect1_dropShadow_16013_14372"/>
<feBlend mode="normal" in="SourceGraphic" in2="effect1_dropShadow_16013_14372" result="shape"/>
</filter>
<linearGradient id="paint0_linear_16013_14372" x1="179.026" y1="0" x2="179.026" y2="282.057" gradientUnits="userSpaceOnUse">
<stop stop-color="#6218FF" stop-opacity="0"/>
<stop offset="1" stop-color="#6117FF"/>
</linearGradient>
<clipPath id="clip0_16013_14372">
<rect width="81" height="81" fill="white" transform="translate(384 194.25)"/>
</clipPath>
</defs>
</svg>
