<svg width="13" height="13" viewBox="0 0 13 13" fill="none" xmlns="http://www.w3.org/2000/svg">
<path d="M3.344 12.704C3.344 12.56 3.328 12.496 3.264 12.496L2.896 12.672C2.896 12.592 2.848 12.544 2.768 12.512L2.64 12.496C2.528 12.496 2.48 12.512 2.32 12.608C2.272 12.512 2.208 12.4 2.16 12.304C1.744 11.504 1.312 10.304 1.12 9.776C1.024 9.504 0.928 8.944 0.816 8.096C0.944 8.176 1.04 8.208 1.088 8.208C1.152 8.208 1.232 8.096 1.296 7.872C1.328 7.92 1.392 7.936 1.472 7.936C1.52 7.936 1.584 7.92 1.616 7.872L1.872 7.488L2.16 7.584H2.176C2.208 7.584 2.256 7.536 2.336 7.488C2.416 7.44 2.48 7.408 2.528 7.408L2.576 7.424C2.832 7.552 3.008 7.776 3.088 8.128C3.28 8.944 3.456 9.344 3.664 9.344C3.84 9.344 4.08 9.136 4.336 8.736C4.592 8.336 4.848 7.792 5.136 7.136C5.152 7.264 5.168 7.328 5.2 7.328C5.296 7.328 5.536 6.768 6.128 5.824C7.008 4.4 9.184 1.664 9.744 1.28C10.16 0.992 10.48 0.719999 10.704 0.48C10.672 0.639999 10.64 0.752 10.64 0.799999C10.64 0.848 10.672 0.863999 10.704 0.863999L11.152 0.639999V0.704C11.152 0.783999 11.168 0.832 11.216 0.832C11.28 0.832 11.536 0.575999 11.568 0.48L11.536 0.704L12.08 0.384L11.952 0.672C12.112 0.559999 12.24 0.495999 12.32 0.495999C12.4 0.495999 12.448 0.624 12.448 0.704C12.448 0.832 12.336 1.008 12.16 1.232C11.968 1.488 11.488 1.984 10.048 3.632C9.424 4.336 6.656 8.096 6.128 8.992L5.136 10.672C4.704 11.392 4.432 11.856 4.288 12.032C4.144 12.208 3.968 12.384 3.76 12.544L3.616 12.464L3.488 12.544L3.344 12.704Z" fill="#03DABA"/>
</svg>
