<svg width="161" height="18" viewBox="0 0 161 18" fill="none" xmlns="http://www.w3.org/2000/svg">
<path d="M-8.97944e-05 17.112V5.208C-8.97944e-05 4.296 0.21591 3.472 0.64791 2.736C1.09591 2 1.68791 1.416 2.42391 0.983998C3.17591 0.535998 3.99991 0.311998 4.89591 0.311998H10.9679V3.336H5.27991C4.76791 3.336 4.32791 3.52 3.95991 3.888C3.60791 4.256 3.43191 4.696 3.43191 5.208V7.92H10.1519V10.944H3.43191V17.112H-8.97944e-05ZM21.3312 17.424C19.9872 17.424 18.7712 17.2 17.6832 16.752C16.6112 16.288 15.6912 15.656 14.9232 14.856C14.1552 14.056 13.5632 13.128 13.1472 12.072C12.7312 11.016 12.5232 9.888 12.5232 8.688C12.5232 7.488 12.7312 6.368 13.1472 5.328C13.5632 4.272 14.1552 3.344 14.9232 2.544C15.6912 1.744 16.6112 1.12 17.6832 0.671998C18.7712 0.223998 19.9872 -1.90735e-06 21.3312 -1.90735e-06C22.6752 -1.90735e-06 23.8832 0.223998 24.9552 0.671998C26.0432 1.12 26.9712 1.744 27.7392 2.544C28.5072 3.344 29.0992 4.272 29.5152 5.328C29.9312 6.368 30.1392 7.488 30.1392 8.688C30.1392 9.888 29.9312 11.016 29.5152 12.072C29.0992 13.128 28.5072 14.056 27.7392 14.856C26.9712 15.656 26.0432 16.288 24.9552 16.752C23.8832 17.2 22.6752 17.424 21.3312 17.424ZM21.3312 14.376C22.0992 14.376 22.8112 14.24 23.4672 13.968C24.1232 13.68 24.6912 13.28 25.1712 12.768C25.6672 12.24 26.0432 11.632 26.2992 10.944C26.5712 10.256 26.7072 9.504 26.7072 8.688C26.7072 7.872 26.5712 7.12 26.2992 6.432C26.0432 5.744 25.6672 5.144 25.1712 4.632C24.6912 4.12 24.1232 3.728 23.4672 3.456C22.8112 3.168 22.0992 3.024 21.3312 3.024C20.5632 3.024 19.8512 3.168 19.1952 3.456C18.5392 3.728 17.9632 4.12 17.4672 4.632C16.9872 5.144 16.6112 5.744 16.3392 6.432C16.0832 7.12 15.9552 7.872 15.9552 8.688C15.9552 9.504 16.0832 10.256 16.3392 10.944C16.6112 11.632 16.9872 12.24 17.4672 12.768C17.9632 13.28 18.5392 13.68 19.1952 13.968C19.8512 14.24 20.5632 14.376 21.3312 14.376ZM32.5379 17.112V0.311998H40.0499C41.1539 0.311998 42.1539 0.559999 43.0499 1.056C43.9619 1.536 44.6819 2.208 45.2099 3.072C45.7539 3.936 46.0259 4.944 46.0259 6.096C46.0259 7.216 45.7619 8.208 45.2339 9.072C44.7059 9.92 44.0099 10.592 43.1459 11.088L44.6819 13.776C44.7459 13.872 44.8259 13.952 44.9219 14.016C45.0179 14.064 45.1299 14.088 45.2579 14.088H46.8899V17.112H44.7299C44.0579 17.112 43.4419 16.944 42.8819 16.608C42.3379 16.272 41.9059 15.832 41.5859 15.288L39.6899 11.88C39.5459 11.88 39.3939 11.88 39.2339 11.88C39.0899 11.88 38.9459 11.88 38.8019 11.88H35.9699V17.112H32.5379ZM35.9699 8.856H39.6419C40.1859 8.856 40.6819 8.752 41.1299 8.544C41.5779 8.32 41.9299 8 42.1859 7.584C42.4579 7.168 42.5939 6.672 42.5939 6.096C42.5939 5.52 42.4579 5.024 42.1859 4.608C41.9139 4.192 41.5539 3.88 41.1059 3.672C40.6739 3.448 40.1859 3.336 39.6419 3.336H35.9699V8.856ZM57.2727 17.112C56.2807 17.112 55.4087 16.888 54.6567 16.44C53.9047 15.976 53.3207 15.368 52.9047 14.616C52.4887 13.848 52.2807 13.008 52.2807 12.096V3.336H47.6007V0.311998H60.3927V3.336H55.7127V12.504C55.7127 12.936 55.8647 13.312 56.1687 13.632C56.4727 13.936 56.8407 14.088 57.2727 14.088H58.4727V17.112H57.2727ZM69.3082 17.4C67.9482 17.4 66.7402 17.12 65.6842 16.56C64.6442 16 63.8202 15.208 63.2122 14.184C62.6202 13.144 62.3242 11.912 62.3242 10.488V0.311998H65.7562V10.704C65.7562 11.376 65.9002 11.992 66.1882 12.552C66.4762 13.096 66.8842 13.536 67.4122 13.872C67.9562 14.208 68.5882 14.376 69.3082 14.376C70.0442 14.376 70.6762 14.208 71.2042 13.872C71.7322 13.536 72.1402 13.096 72.4282 12.552C72.7162 11.992 72.8602 11.376 72.8602 10.704V0.311998H76.2922V10.488C76.2922 11.912 75.9882 13.144 75.3802 14.184C74.7882 15.208 73.9642 16 72.9082 16.56C71.8682 17.12 70.6682 17.4 69.3082 17.4ZM90.8581 17.4C89.8661 17.4 88.9941 17.176 88.2421 16.728C87.4901 16.264 86.9061 15.656 86.4901 14.904C86.0741 14.136 85.8661 13.296 85.8661 12.384V4.632C85.8661 4.344 85.7941 4.08 85.6501 3.84C85.5061 3.6 85.3141 3.408 85.0741 3.264C84.8341 3.12 84.5701 3.048 84.2821 3.048C83.9941 3.048 83.7301 3.12 83.4901 3.264C83.2661 3.408 83.0821 3.6 82.9381 3.84C82.7941 4.08 82.7221 4.344 82.7221 4.632V17.112H79.2901V5.04C79.2901 4.112 79.4981 3.272 79.9141 2.52C80.3301 1.768 80.9141 1.168 81.6661 0.719999C82.4181 0.255999 83.2901 0.0239992 84.2821 0.0239992C85.2901 0.0239992 86.1701 0.255999 86.9221 0.719999C87.6741 1.168 88.2581 1.768 88.6741 2.52C89.0901 3.272 89.2981 4.112 89.2981 5.04V12.792C89.2981 13.08 89.3701 13.344 89.5141 13.584C89.6581 13.824 89.8421 14.016 90.0661 14.16C90.3061 14.304 90.5701 14.376 90.8581 14.376C91.1461 14.376 91.4101 14.304 91.6501 14.16C91.8901 14.016 92.0821 13.824 92.2261 13.584C92.3701 13.344 92.4421 13.08 92.4421 12.792V0.311998H95.8741V12.384C95.8741 13.296 95.6661 14.136 95.2501 14.904C94.8341 15.656 94.2501 16.264 93.4981 16.728C92.7461 17.176 91.8661 17.4 90.8581 17.4ZM103.279 17.112C102.351 17.112 101.503 16.888 100.735 16.44C99.9832 15.992 99.3832 15.392 98.9352 14.64C98.4872 13.872 98.2632 13.024 98.2632 12.096C98.2632 11.424 98.4072 10.792 98.6952 10.2C98.9832 9.608 99.3752 9.088 99.8712 8.64C99.3752 8.192 98.9832 7.672 98.6952 7.08C98.4072 6.488 98.2632 5.864 98.2632 5.208C98.2632 4.296 98.4792 3.472 98.9112 2.736C99.3592 2 99.9512 1.416 100.687 0.983998C101.439 0.535998 102.263 0.311998 103.159 0.311998H110.071V3.336H103.543C103.207 3.336 102.895 3.424 102.607 3.6C102.335 3.76 102.111 3.984 101.935 4.272C101.775 4.544 101.695 4.856 101.695 5.208C101.695 5.544 101.775 5.856 101.935 6.144C102.111 6.416 102.335 6.64 102.607 6.816C102.895 6.976 103.207 7.056 103.543 7.056H109.255V10.08H103.687C103.319 10.08 102.983 10.176 102.679 10.368C102.375 10.544 102.135 10.784 101.959 11.088C101.783 11.392 101.695 11.728 101.695 12.096C101.695 12.464 101.783 12.8 101.959 13.104C102.135 13.408 102.375 13.648 102.679 13.824C102.983 14 103.319 14.088 103.687 14.088H110.071V17.112H103.279ZM118.229 17.112V14.088H123.605C124.069 14.088 124.493 13.976 124.877 13.752C125.261 13.528 125.565 13.224 125.789 12.84C126.013 12.456 126.125 12.032 126.125 11.568C126.125 11.104 126.013 10.688 125.789 10.32C125.565 9.936 125.261 9.632 124.877 9.408C124.493 9.184 124.069 9.072 123.605 9.072H118.757V0.311998H128.429V3.336H122.045V6.12H124.037C125.045 6.12 125.965 6.368 126.797 6.864C127.629 7.36 128.293 8.024 128.789 8.856C129.285 9.688 129.533 10.608 129.533 11.616C129.533 12.624 129.285 13.544 128.789 14.376C128.293 15.208 127.629 15.872 126.797 16.368C125.965 16.864 125.045 17.112 124.037 17.112H118.229ZM138.408 17.4C137.192 17.4 136.104 17.136 135.144 16.608C134.184 16.08 133.424 15.368 132.864 14.472C132.32 13.56 132.048 12.544 132.048 11.424V6C132.048 4.88 132.32 3.872 132.864 2.976C133.424 2.064 134.184 1.344 135.144 0.815999C136.104 0.287999 137.192 0.0239992 138.408 0.0239992C139.608 0.0239992 140.68 0.287999 141.624 0.815999C142.584 1.344 143.336 2.064 143.88 2.976C144.44 3.872 144.72 4.88 144.72 6V11.424C144.72 12.544 144.44 13.56 143.88 14.472C143.336 15.368 142.584 16.08 141.624 16.608C140.68 17.136 139.608 17.4 138.408 17.4ZM138.408 14.376C138.936 14.376 139.416 14.256 139.848 14.016C140.28 13.76 140.624 13.424 140.88 13.008C141.152 12.592 141.288 12.136 141.288 11.64V5.784C141.288 5.272 141.152 4.816 140.88 4.416C140.624 4 140.28 3.672 139.848 3.432C139.416 3.176 138.936 3.048 138.408 3.048C137.88 3.048 137.392 3.176 136.944 3.432C136.496 3.672 136.136 4 135.864 4.416C135.608 4.816 135.48 5.272 135.48 5.784V11.64C135.48 12.136 135.608 12.592 135.864 13.008C136.136 13.424 136.496 13.76 136.944 14.016C137.392 14.256 137.88 14.376 138.408 14.376ZM153.97 17.4C152.754 17.4 151.666 17.136 150.706 16.608C149.746 16.08 148.986 15.368 148.426 14.472C147.882 13.56 147.61 12.544 147.61 11.424V6C147.61 4.88 147.882 3.872 148.426 2.976C148.986 2.064 149.746 1.344 150.706 0.815999C151.666 0.287999 152.754 0.0239992 153.97 0.0239992C155.17 0.0239992 156.242 0.287999 157.186 0.815999C158.146 1.344 158.898 2.064 159.442 2.976C160.002 3.872 160.282 4.88 160.282 6V11.424C160.282 12.544 160.002 13.56 159.442 14.472C158.898 15.368 158.146 16.08 157.186 16.608C156.242 17.136 155.17 17.4 153.97 17.4ZM153.97 14.376C154.498 14.376 154.978 14.256 155.41 14.016C155.842 13.76 156.186 13.424 156.442 13.008C156.714 12.592 156.85 12.136 156.85 11.64V5.784C156.85 5.272 156.714 4.816 156.442 4.416C156.186 4 155.842 3.672 155.41 3.432C154.978 3.176 154.498 3.048 153.97 3.048C153.442 3.048 152.954 3.176 152.506 3.432C152.058 3.672 151.698 4 151.426 4.416C151.17 4.816 151.042 5.272 151.042 5.784V11.64C151.042 12.136 151.17 12.592 151.426 13.008C151.698 13.424 152.058 13.76 152.506 14.016C152.954 14.256 153.442 14.376 153.97 14.376Z" fill="black"/>
</svg>
