<svg width="43" height="43" viewBox="0 0 43 43" fill="none" xmlns="http://www.w3.org/2000/svg">
<path d="M21.5781 1.85742L37.3281 8.85742V19.3574C37.3281 29.0699 30.6081 38.1524 21.5781 40.3574C12.5481 38.1524 5.82812 29.0699 5.82812 19.3574V8.85742L21.5781 1.85742ZM28.5781 24.6074H14.5781V27.2324C14.5781 27.7049 14.9106 28.0374 15.4006 28.1074H15.5756H27.5806C28.1231 28.1074 28.4906 27.8274 28.5781 27.3899V27.2324V24.6074ZM30.3281 14.1074L25.6556 18.7799L21.5781 14.7024L17.5006 18.7799L12.8281 14.1074L14.5781 22.8574H28.5781L30.3281 14.1074Z" fill="url(#paint0_linear_8200_15523)"/>
<defs>
<linearGradient id="paint0_linear_8200_15523" x1="10.5741" y1="9.00471" x2="41.9824" y2="34.6599" gradientUnits="userSpaceOnUse">
<stop offset="0.015625" stop-color="#F2D5FF"/>
<stop offset="1" stop-color="#CB5AFF"/>
</linearGradient>
</defs>
</svg>
