<svg width="48" height="39" viewBox="0 0 48 39" fill="none" xmlns="http://www.w3.org/2000/svg">
<path d="M32.1644 11.0318L36.2521 6.94412L36.5245 5.22293C29.0756 -1.55032 17.2347 -0.78231 10.5198 6.82546C8.65464 8.93846 7.27089 11.5728 6.533 14.2931L7.99703 14.0868L16.1722 12.7387L16.8034 12.0932C20.4399 8.09936 26.5886 7.56206 30.7874 10.9602L32.1644 11.0318Z" fill="#EA4335"/>
<path d="M42.0751 14.1729C41.1355 10.7128 39.2066 7.60229 36.5245 5.22293L30.7874 10.9602C33.21 12.9396 34.5901 15.9216 34.5309 19.0493V20.0677C37.3508 20.0677 39.637 22.3537 39.637 25.1736C39.637 27.9936 37.3508 30.2224 34.5309 30.2224H24.3046L23.3006 31.3124V37.4366L24.3046 38.3975H34.5309C41.8657 38.4547 47.8581 32.6124 47.9152 25.2776C47.9498 20.8317 45.7578 16.6637 42.0751 14.1729Z" fill="#4285F4"/>
<path d="M14.0926 38.3976L24.3046 38.3975V30.2224L14.0926 30.2223C13.365 30.2221 12.6603 30.0658 11.9987 29.7634L10.5499 30.2079L6.43357 34.2956L6.07501 35.6869C8.38346 37.4299 11.2 38.4101 14.0926 38.3976Z" fill="#34A853"/>
<path d="M14.0926 11.8781C6.7576 11.9218 0.847147 17.9035 0.890866 25.2383C0.915297 29.3343 2.82826 33.19 6.07501 35.6869L11.9987 29.7634C9.42866 28.6023 8.28665 25.5778 9.44777 23.0079C10.6087 20.4381 13.6334 19.2961 16.203 20.457C17.3355 20.9686 18.2424 21.8756 18.7539 23.0079L24.6776 17.0844C22.1572 13.7895 18.2409 11.8632 14.0926 11.8781Z" fill="#FBBC05"/>
</svg>
