<svg width="49" height="58" viewBox="0 0 49 58" fill="none" xmlns="http://www.w3.org/2000/svg">
<path d="M48.5152 14.5516V43.0529L43.3225 36.2374L40.4301 28.8032H40.4282L43.1754 21.2639L48.5152 14.5516Z" fill="#AB2B4A"/>
<path d="M-0.00387563 14.5516V43.0529L4.58623 36.4442L8.0812 28.8032H8.08315L4.52994 21.5542L-0.00387563 14.5516Z" fill="#E87A68"/>
<path d="M40.4282 28.8032L25.1359 29.791L8.0812 28.8032L15.1983 14.5519L24.2552 0.302246L34.1031 15.9475L40.4282 28.8032Z" fill="#D74D4E"/>
<path d="M48.5138 14.552L40.4267 28.8036L24.2552 0.302246L48.5138 14.552Z" fill="#BD3246"/>
<path d="M24.2552 0.302246L8.0812 28.8032L-0.00585938 14.552L24.2552 0.302246Z" fill="#F19175"/>
<path d="M40.4273 28.8009L34.9003 41.107L24.2552 57.3022L13.3006 40.5635L8.08121 28.8009H40.4273Z" fill="#CF3942"/>
<path d="M24.2552 57.3022L-0.00585937 43.0506L8.08121 28.8009L24.2552 57.3022Z" fill="#E0625B"/>
<path d="M24.2527 57.3022L48.5138 43.0506L40.4273 28.8009L24.2527 57.3022Z" fill="#9A244F"/>
</svg>
