<svg width="54" height="56" viewBox="0 0 54 56" fill="none" xmlns="http://www.w3.org/2000/svg">
<path d="M50.5184 22.5809H34.087C32.773 22.4242 31.7724 21.2666 31.7724 19.9041V2.6615C31.7724 1.19045 30.5789 0.00878906 29.1202 0.00878906H23.3698C21.8991 0.00878906 20.7177 1.20251 20.7177 2.6615V20.085C20.6453 21.3993 19.5604 22.4604 18.2584 22.5809H13.9546C12.6888 22.4242 11.7124 21.3631 11.628 20.085V2.6615C11.628 1.19045 10.4345 0.00878906 8.97579 0.00878906H3.22541C1.75466 0.00878906 0.573242 1.20251 0.573242 2.6615V25.2336V52.9786C0.573242 54.4496 1.76672 55.6313 3.22541 55.6313H8.97579H23.3698H29.1202H50.5305C52.0012 55.6313 53.1826 54.4376 53.1826 52.9786V25.2336C53.1706 23.7626 51.9892 22.5809 50.5184 22.5809ZM42.9477 41.6081C42.9477 43.0791 41.7542 44.2608 40.2955 44.2608H34.5451C33.0744 44.2608 31.8929 43.0671 31.8929 41.6081V36.1821C31.8929 34.711 33.0864 33.5294 34.5451 33.5294H40.2955C41.7662 33.5294 42.9477 34.7231 42.9477 36.1821V41.6081Z" fill="#FF6600"/>
</svg>
