<svg width="48" height="48" viewBox="0 0 48 48" fill="none" xmlns="http://www.w3.org/2000/svg">
<path d="M34.6191 41.0989C34.621 42.6822 35.2508 44.2001 36.3703 45.3196C37.4899 46.4392 39.0077 47.0689 40.591 47.0708H47.9635V39.6984C47.9616 38.1151 47.3318 36.5972 46.2122 35.4777C45.0927 34.3582 43.5748 33.7284 41.9915 33.7265H40.5874C38.0746 33.7284 35.6639 32.7322 33.8855 30.9571C32.107 29.182 31.1063 26.7732 31.1034 24.2604V22.8635C31.1006 21.2833 30.4723 19.7685 29.356 18.6502C28.2397 17.5318 26.726 16.9008 25.1458 16.8951H23.7453C21.2356 16.8913 18.83 15.8922 17.056 14.1169C15.2821 12.3416 14.2848 9.93518 14.2829 7.4255V6.02499C14.28 4.44234 13.6498 2.92538 12.5304 1.80661C11.4109 0.687841 9.89358 0.0585391 8.31093 0.0566406H0.938477V7.4255C0.940377 9.00878 1.57017 10.5267 2.68972 11.6462C3.80926 12.7657 5.32714 13.3955 6.91042 13.3974H8.31452C10.8242 13.4003 13.2303 14.3985 15.0049 16.1731C16.7795 17.9477 17.7777 20.3538 17.7806 22.8635V24.2604C17.7853 25.8418 18.4164 27.3569 19.5356 28.4742C20.6548 29.5914 22.1711 30.2197 23.7525 30.2216H25.153C27.6627 30.2244 30.0688 31.2227 31.8434 32.9973C33.618 34.7719 34.6162 37.1779 34.6191 39.6876V41.0989Z" fill="url(#paint0_linear_14374_4504)"/>
<path d="M47.9599 22.8635C47.958 21.2802 47.3282 19.7623 46.2087 18.6428C45.0891 17.5232 43.5713 16.8934 41.988 16.8915H40.5839C38.0717 16.8925 35.662 15.896 33.8842 14.1209C32.1065 12.3459 31.1063 9.93767 31.1035 7.4255V6.02499C31.1006 4.44482 30.4724 2.93003 29.356 1.81167C28.2397 0.693308 26.726 0.0623324 25.1459 0.0566406H17.7806V7.5081C17.8032 9.07668 18.4418 10.5735 19.5584 11.6753C20.6751 12.7772 22.1802 13.3957 23.749 13.3974H25.1531C27.6627 13.4003 30.0688 14.3985 31.8434 16.1731C33.618 17.9477 34.6163 20.3538 34.6191 22.8635V24.2604C34.6238 25.8381 35.2519 27.35 36.3665 28.4666C37.4811 29.5832 38.9918 30.214 40.5695 30.2216H47.9599V22.8635Z" fill="url(#paint1_linear_14374_4504)"/>
<path d="M47.9599 5.97831C47.9483 4.44517 47.3475 2.97521 46.2819 1.87286C45.2163 0.770508 43.7676 0.120211 42.2357 0.0566406H34.5041V7.49014C34.523 9.06123 35.1599 10.5617 36.277 11.6666C37.394 12.7715 38.9013 13.3921 40.4725 13.3939H47.9599V5.97831Z" fill="url(#paint2_linear_14374_4504)"/>
<path d="M0.938477 24.2747C0.941329 25.858 1.57204 27.3755 2.69225 28.4944C3.81247 29.6133 5.33073 30.2421 6.91401 30.2431H8.31811C10.8278 30.2459 13.2339 31.2442 15.0085 33.0188C16.7831 34.7934 17.7813 37.1995 17.7842 39.7091V41.1061C17.7861 42.6893 18.4159 44.2072 19.5354 45.3268C20.6549 46.4463 22.1728 47.0761 23.7561 47.078H31.1034V39.6265C31.0799 38.0617 30.4434 36.5685 29.3308 35.4679C28.2181 34.3673 26.718 33.7472 25.153 33.7408H23.7525C21.2422 33.7389 18.8352 32.7411 17.0598 30.9664C15.2844 29.1917 14.2857 26.785 14.2829 24.2747V22.8742C14.281 21.2947 13.6542 19.78 12.5393 18.6611C11.4244 17.5422 9.91201 16.9099 8.33248 16.9023H0.938477V24.2747Z" fill="url(#paint3_linear_14374_4504)"/>
<path d="M0.938477 41.1564C0.949392 42.6937 1.55277 44.1676 2.62301 45.2713C3.69325 46.375 5.1479 47.0234 6.68418 47.0816H14.3978V39.6445C14.3789 38.0735 13.742 36.573 12.625 35.4681C11.5079 34.3631 10.0006 33.7426 8.42944 33.7408H0.938477V41.1564Z" fill="url(#paint4_linear_14374_4504)"/>
<defs>
<linearGradient id="paint0_linear_14374_4504" x1="8.02724" y1="7.14344" x2="41.8951" y2="41.0036" gradientUnits="userSpaceOnUse">
<stop stop-color="#91D443"/>
<stop offset="1" stop-color="#48BFE0"/>
</linearGradient>
<linearGradient id="paint1_linear_14374_4504" x1="-1.13747" y1="-2.0259" x2="51.6481" y2="50.7345" gradientUnits="userSpaceOnUse">
<stop stop-color="#91D443"/>
<stop offset="1" stop-color="#48BFE0"/>
</linearGradient>
<linearGradient id="paint2_linear_14374_4504" x1="-32.8337" y1="-34.2435" x2="86.5474" y2="84.0862" gradientUnits="userSpaceOnUse">
<stop stop-color="#91D443"/>
<stop offset="1" stop-color="#48BFE0"/>
</linearGradient>
<linearGradient id="paint3_linear_14374_4504" x1="-1.14406" y1="-2.03075" x2="51.6227" y2="50.7548" gradientUnits="userSpaceOnUse">
<stop stop-color="#91D443"/>
<stop offset="1" stop-color="#48BFE0"/>
</linearGradient>
<linearGradient id="paint4_linear_14374_4504" x1="-8.78971" y1="23.9552" x2="25.0704" y2="57.8153" gradientUnits="userSpaceOnUse">
<stop stop-color="#91D443"/>
<stop offset="1" stop-color="#48BFE0"/>
</linearGradient>
</defs>
</svg>
