<svg width="58" height="44" viewBox="0 0 58 44" fill="none" xmlns="http://www.w3.org/2000/svg">
<path d="M4.78968 43.3133H13.8579V21.2906L0.90332 11.5747V39.427C0.90332 41.5774 2.64571 43.3133 4.78968 43.3133Z" fill="#4285F4"/>
<path d="M44.9488 43.3133H54.017C56.1674 43.3133 57.9033 41.5709 57.9033 39.427V11.5747L44.9488 21.2906" fill="#34A853"/>
<path d="M44.9488 4.44964V21.2906L57.9033 11.5747V6.39282C57.9033 1.58668 52.4171 -1.15321 48.576 1.72918" fill="#FBBC04"/>
<path d="M13.8579 21.2906V4.44968L29.4033 16.1088L44.9488 4.44964V21.2906L29.4033 32.9497" fill="#EA4335"/>
<path d="M0.90332 6.39282V11.5747L13.8579 21.2906V4.44968L10.2306 1.72918C6.38309 -1.15321 0.90332 1.58668 0.90332 6.39282Z" fill="#C5221F"/>
</svg>
