<svg width="58" height="47" viewBox="0 0 58 47" fill="none" xmlns="http://www.w3.org/2000/svg">
<path d="M50.984 36.3169C50.904 36.1571 50.6643 36.0372 50.4645 36.0372H42.7119C42.5121 36.0372 42.2724 35.9173 42.1924 35.7574L28.8054 14.458C28.7254 14.2982 28.5656 14.2982 28.4457 14.458L15.0586 35.7574C14.9787 35.9173 14.7389 36.0372 14.5391 36.0372H6.74665C6.54684 36.0372 6.30707 36.1571 6.22715 36.3169L4.42888 39.1542C4.34896 39.314 4.38892 39.4339 4.58873 39.4339H16.5772C16.777 39.4339 17.0167 39.314 17.0967 39.1542L28.4057 21.1715C28.4857 21.0117 28.6855 21.0117 28.7654 21.1715L40.0745 39.1542C40.1544 39.314 40.3942 39.4339 40.594 39.4339H52.5824C52.7822 39.4339 52.8621 39.314 52.7423 39.1542" fill="#2490FA"/>
<path d="M57.0581 45.9876C57.138 46.1474 57.098 46.2673 56.8982 46.2673H36.438C36.2382 46.2673 35.9984 46.1474 35.9185 45.9876L28.8054 34.6385C28.7254 34.4787 28.5656 34.4787 28.4457 34.6385L21.2926 45.9876C21.2127 46.1474 20.9729 46.2673 20.7731 46.2673H0.312853C0.113045 46.2673 0.0331227 46.1474 0.153007 45.9876L1.95127 43.1503C2.03119 42.9905 2.27096 42.8706 2.47077 42.8706H18.6951C18.8949 42.8706 19.1347 42.7507 19.2146 42.5908L28.4057 27.925C28.4857 27.7652 28.6455 27.7652 28.7654 27.925L37.9565 42.5908C38.0364 42.7507 38.2762 42.8706 38.476 42.8706H54.7004C54.9002 42.8706 55.1399 42.9905 55.2199 43.1503M28.7654 41.392C28.6855 41.2322 28.5256 41.2322 28.4057 41.392L25.5285 45.9876C25.4486 46.1474 25.4886 46.2673 25.6884 46.2673H31.4828C31.6826 46.2673 31.7625 46.1474 31.6426 45.9876" fill="#2549C9"/>
<path d="M28.4457 0.990978C28.5257 0.831132 28.6855 0.831132 28.8054 0.990978L48.5064 32.3607C48.5863 32.5205 48.5463 32.6404 48.3465 32.6404H44.8299C44.6301 32.6404 44.3904 32.5205 44.3104 32.3607L28.8454 7.74446C28.7654 7.58461 28.6056 7.58461 28.4857 7.74446L12.9807 32.3607C12.9007 32.5205 12.661 32.6404 12.4612 32.6404H8.94456C8.74475 32.6404 8.66483 32.5205 8.78472 32.3607" fill="#85C1FC"/>
</svg>
