<svg width="49" height="33" viewBox="0 0 49 33" fill="none" xmlns="http://www.w3.org/2000/svg">
<path d="M27.6005 13.0902H32.4715ZM21.8017 13.0902H26.6727ZM16.1189 13.0902H20.9899ZM10.436 13.0902H15.191ZM4.63722 13.0902H9.50822ZM10.436 7.75525H15.191ZM16.1189 7.75525H20.9899ZM21.8017 7.75525H26.6727ZM21.8017 2.42034H26.6727Z" fill="black"/>
<path fill-rule="evenodd" clip-rule="evenodd" d="M26.6727 4.62389H21.8017V0.216797H26.6727V4.62389ZM15.191 9.9588H10.436V5.5517H15.191V9.9588ZM20.9899 9.9588H16.1189V5.5517H20.9899V9.9588ZM26.6727 9.9588H21.8017V5.5517H26.6727V9.9588ZM9.50822 15.2937H4.63722V10.8866H9.50822V15.2937ZM15.191 15.2937H10.436V10.8866H15.191V15.2937ZM20.9899 15.2937H16.1189V10.8866H20.9899V15.2937ZM26.6727 15.2937H21.8017V10.8866H26.6727V15.2937ZM32.4715 15.2937H27.6005V10.8866H32.4715V15.2937Z" fill="#066DA5"/>
<path d="M48.0123 13.3221C48.0123 13.3221 45.9247 11.3505 41.6336 12.0464C41.1697 8.68306 37.5744 6.71146 37.5744 6.71146C37.5744 6.71146 34.2111 10.7706 36.6466 15.2937C35.9508 15.6416 34.791 16.1055 33.0514 16.1055H1.15793C0.578052 18.3091 0.578052 32.9221 16.5828 32.9221C28.0644 32.9221 36.6466 27.5872 40.7058 17.8452C46.7366 18.3091 48.0123 13.3221 48.0123 13.3221Z" fill="#066DA5"/>
</svg>
