<svg width="49" height="29" viewBox="0 0 49 29" fill="none" xmlns="http://www.w3.org/2000/svg">
<path d="M14.2395 10.7217C14.2395 11.3004 14.302 11.7696 14.4115 12.1137C14.5366 12.4578 14.693 12.8331 14.912 13.2398C14.9902 13.3649 15.0215 13.49 15.0215 13.5995C15.0215 13.7559 14.9276 13.9123 14.7243 14.0687L13.739 14.7256C13.5982 14.8194 13.4575 14.8663 13.3324 14.8663C13.176 14.8663 13.0196 14.7881 12.8632 14.6474C12.6442 14.4128 12.4565 14.1625 12.3001 13.9123C12.1437 13.6464 11.9873 13.3492 11.8153 12.9895C10.5953 14.4284 9.06263 15.1478 7.2171 15.1478C5.90334 15.1478 4.85546 14.7725 4.0891 14.0218C3.32274 13.271 2.93174 12.2701 2.93174 11.0189C2.93174 9.68948 3.40094 8.61032 4.35498 7.79704C5.30902 6.98376 6.57586 6.57712 8.18679 6.57712C8.71855 6.57712 9.26595 6.62404 9.84463 6.70224C10.4233 6.78044 11.0176 6.90556 11.6432 7.04632V5.9046C11.6432 4.71595 11.393 3.88703 10.9082 3.40219C10.4077 2.91735 9.56311 2.68275 8.35883 2.68275C7.81143 2.68275 7.24838 2.74531 6.6697 2.88607C6.09102 3.02683 5.52798 3.19887 4.98058 3.41783C4.73034 3.52731 4.54266 3.58987 4.43318 3.62115C4.3237 3.65243 4.2455 3.66807 4.18294 3.66807C3.96398 3.66807 3.8545 3.51167 3.8545 3.18323V2.41687C3.8545 2.16663 3.88578 1.97895 3.96398 1.86947C4.04218 1.75999 4.18294 1.65051 4.4019 1.54103C4.9493 1.25951 5.60618 1.02491 6.37254 0.837229C7.1389 0.633909 7.95219 0.540069 8.81239 0.540069C10.6735 0.540069 12.0342 0.96235 12.9101 1.80691C13.7703 2.65147 14.2082 3.93395 14.2082 5.65436V10.7217H14.2395ZM7.88963 13.099C8.40575 13.099 8.93751 13.0052 9.50055 12.8175C10.0636 12.6298 10.5641 12.2857 10.9864 11.8165C11.2366 11.5194 11.4243 11.1909 11.5181 10.8156C11.612 10.4402 11.6745 9.98664 11.6745 9.45488V8.798C11.221 8.68852 10.7361 8.59468 10.2356 8.53212C9.73515 8.46956 9.25031 8.43828 8.76547 8.43828C7.71759 8.43828 6.95122 8.6416 6.4351 9.06388C5.91898 9.48616 5.66874 10.0805 5.66874 10.8625C5.66874 11.5976 5.85642 12.145 6.24742 12.5203C6.62278 12.9113 7.17018 13.099 7.88963 13.099ZM20.4486 14.7881C20.167 14.7881 19.9794 14.7412 19.8542 14.6317C19.7291 14.5379 19.6196 14.3189 19.5258 14.0218L15.8504 1.93203C15.7566 1.61923 15.7096 1.41591 15.7096 1.30643C15.7096 1.05619 15.8348 0.91543 16.085 0.91543H17.6177C17.9149 0.91543 18.1182 0.96235 18.2277 1.07183C18.3528 1.16567 18.4466 1.38463 18.5405 1.68179L21.168 12.0355L23.6078 1.68179C23.686 1.36899 23.7799 1.16567 23.905 1.07183C24.0301 0.97799 24.2491 0.91543 24.5306 0.91543H25.7818C26.079 0.91543 26.2823 0.96235 26.4074 1.07183C26.5325 1.16567 26.642 1.38463 26.7046 1.68179L29.1757 12.1606L31.8814 1.68179C31.9753 1.36899 32.0847 1.16567 32.1942 1.07183C32.3193 0.97799 32.5227 0.91543 32.8042 0.91543H34.2587C34.5089 0.91543 34.6497 1.04055 34.6497 1.30643C34.6497 1.38463 34.6341 1.46283 34.6184 1.55667C34.6028 1.65051 34.5715 1.77563 34.5089 1.94767L30.7397 14.0374C30.6459 14.3502 30.5364 14.5535 30.4113 14.6474C30.2861 14.7412 30.0828 14.8038 29.8169 14.8038H28.4719C28.1747 14.8038 27.9714 14.7568 27.8463 14.6474C27.7212 14.5379 27.6117 14.3346 27.5491 14.0218L25.1249 3.93395L22.7164 14.0061C22.6382 14.3189 22.5443 14.5222 22.4192 14.6317C22.2941 14.7412 22.0751 14.7881 21.7936 14.7881H20.4486ZM40.546 15.2104C39.7327 15.2104 38.9194 15.1166 38.1374 14.9289C37.3554 14.7412 36.7455 14.5379 36.3388 14.3033C36.0886 14.1625 35.9165 14.0061 35.854 13.8654C35.7914 13.7246 35.7601 13.5682 35.7601 13.4274V12.6298C35.7601 12.3014 35.8853 12.145 36.1199 12.145C36.2137 12.145 36.3075 12.1606 36.4014 12.1919C36.4952 12.2232 36.636 12.2857 36.7924 12.3483C37.3241 12.5829 37.9028 12.7706 38.5128 12.8957C39.1384 13.0208 39.7483 13.0834 40.3739 13.0834C41.3593 13.0834 42.1256 12.9113 42.6574 12.5672C43.1891 12.2232 43.4707 11.7227 43.4707 11.0814C43.4707 10.6435 43.3299 10.2838 43.0484 9.98664C42.7669 9.68948 42.2351 9.4236 41.4687 9.17336L39.2009 8.46956C38.0592 8.10984 37.2147 7.57808 36.6985 6.87428C36.1824 6.18612 35.9165 5.41975 35.9165 4.60647C35.9165 3.94959 36.0573 3.37091 36.3388 2.87043C36.6203 2.36995 36.9957 1.93203 37.4649 1.58795C37.9341 1.22823 38.4659 0.96235 39.0915 0.774669C39.7171 0.586989 40.3739 0.508789 41.0621 0.508789C41.4062 0.508789 41.7659 0.524429 42.11 0.571349C42.4697 0.618269 42.7981 0.680829 43.1266 0.743389C43.4394 0.821589 43.7365 0.89979 44.0181 0.99363C44.2996 1.08747 44.5186 1.18131 44.675 1.27515C44.8939 1.40027 45.0503 1.52539 45.1442 1.66615C45.238 1.79127 45.2849 1.96331 45.2849 2.18227V2.91735C45.2849 3.24579 45.1598 3.41783 44.9252 3.41783C44.8001 3.41783 44.5967 3.35527 44.3309 3.23015C43.4394 2.82351 42.4384 2.62019 41.328 2.62019C40.4365 2.62019 39.7327 2.76095 39.2479 3.05811C38.763 3.35527 38.5128 3.80883 38.5128 4.45007C38.5128 4.88799 38.6692 5.26336 38.982 5.56052C39.2948 5.85768 39.8735 6.15484 40.7024 6.42072L42.9233 7.12452C44.0493 7.48424 44.8626 7.98472 45.3475 8.62596C45.8323 9.2672 46.0669 10.0023 46.0669 10.8156C46.0669 11.4881 45.9261 12.098 45.6603 12.6298C45.3787 13.1616 45.0034 13.6308 44.5186 14.0061C44.0337 14.3971 43.455 14.6786 42.7825 14.882C42.0787 15.1009 41.3436 15.2104 40.546 15.2104Z" fill="white"/>
<path fill-rule="evenodd" clip-rule="evenodd" d="M43.5019 22.8115C38.3563 26.612 30.8804 28.6295 24.4523 28.6295C15.4437 28.6295 7.32652 25.2982 1.19563 19.7617C0.710792 19.3237 1.14871 18.7294 1.72739 19.0735C8.35876 22.9209 16.5385 25.2513 24.9997 25.2513C30.7083 25.2513 36.98 24.0627 42.7512 21.6228C43.6114 21.2318 44.3465 22.1859 43.5019 22.8115Z" fill="#FF9900"/>
<path fill-rule="evenodd" clip-rule="evenodd" d="M45.6446 20.3716C44.9877 19.5271 41.2966 19.965 39.6232 20.1683C39.1227 20.2309 39.0445 19.7929 39.498 19.4645C42.4384 17.4 47.2711 17.9943 47.8342 18.6825C48.3972 19.3863 47.6778 24.2191 44.9251 26.5338C44.5029 26.8935 44.0962 26.7058 44.2839 26.2366C44.9095 24.6883 46.3015 21.2005 45.6446 20.3716Z" fill="#FF9900"/>
</svg>
