<svg width="35" height="48" viewBox="0 0 35 48" fill="none" xmlns="http://www.w3.org/2000/svg">
<path d="M23.9329 23.5695H28.6472C29.0155 23.5695 29.3838 23.2748 29.3838 22.8329C29.3838 22.7592 29.3838 22.6119 29.3101 22.5382L21.2074 0.440011C21.0601 0.219029 20.8391 -0.00195312 20.5445 -0.00195312H15.8302C15.4619 -0.00195312 15.0936 0.29269 15.0936 0.734654C15.0936 0.808315 15.0936 0.881975 15.1673 0.955636L23.3436 23.2012C23.4173 23.4222 23.6383 23.5695 23.9329 23.5695Z" fill="#0073FF"/>
<path d="M23.1226 47.1409H27.8369C28.2052 47.1409 28.5735 46.8463 28.5735 46.4043C28.5735 46.3306 28.5735 46.257 28.4999 46.1833L11.7052 0.440011C11.6316 0.219029 11.3369 -0.00195312 11.0423 -0.00195312H6.32798C5.95968 -0.00195312 5.59138 0.29269 5.59138 0.734654C5.59138 0.808315 5.59138 0.881975 5.66504 0.955636L22.4597 46.6989C22.5333 46.9936 22.828 47.1409 23.1226 47.1409Z" fill="#0073FF"/>
<path d="M13.7677 47.1409H18.482C18.8503 47.1409 19.1449 46.8463 19.2186 46.478C19.2186 46.4043 19.2186 46.257 19.1449 46.1833L10.9686 24.0114C10.8949 23.7168 10.6003 23.5695 10.3057 23.5695H5.51772C5.14941 23.5695 4.85477 23.9378 4.85477 24.3061C4.85477 24.3797 4.85477 24.4534 4.92843 24.5271L13.0311 46.6989C13.2521 46.9936 13.4731 47.1409 13.7677 47.1409Z" fill="#0073FF"/>
<path d="M24.5222 0.955636L28.3525 11.3418C28.4262 11.6364 28.7208 11.7838 29.0155 11.7838H33.6561C34.0244 11.7838 34.3927 11.4891 34.3927 11.0472C34.3927 10.9735 34.3927 10.8998 34.3191 10.8262L30.4887 0.440011C30.415 0.219029 30.1941 -0.00195312 29.8994 -0.00195312H25.1851C24.8168 -0.00195312 24.4485 0.29269 24.4485 0.734654C24.4485 0.808315 24.4485 0.881975 24.5222 0.955636Z" fill="#0073FF"/>
<path d="M5.07575 47.1409H9.79004C10.1583 47.1409 10.5266 46.8463 10.5266 46.4043C10.5266 46.3306 10.5266 46.257 10.453 46.1833L6.62263 35.7972C6.54897 35.5025 6.25432 35.3552 5.95968 35.3552H1.2454C0.877093 35.3552 0.508789 35.6498 0.508789 36.0918C0.508789 36.1655 0.508789 36.2391 0.58245 36.3128L4.41281 46.6989C4.48647 46.9936 4.78111 47.1409 5.07575 47.1409Z" fill="#0073FF"/>
</svg>
