<svg width="59" height="57" viewBox="0 0 59 57" fill="none" xmlns="http://www.w3.org/2000/svg">
<path fill-rule="evenodd" clip-rule="evenodd" d="M29.5237 0.0512695C13.5537 0.0512695 0.643555 13.0566 0.643555 29.146C0.643555 42.0071 8.91554 52.8937 20.391 56.7469C21.8257 57.0365 22.3512 56.1208 22.3512 55.3506C22.3512 54.6761 22.3039 52.3641 22.3039 49.9551C14.2702 51.6896 12.5972 46.4868 12.5972 46.4868C11.3062 43.1149 9.39319 42.2483 9.39319 42.2483C6.76375 40.4659 9.58473 40.4659 9.58473 40.4659C12.5015 40.6587 14.032 43.4524 14.032 43.4524C16.6135 47.8837 20.7735 46.6317 22.447 45.8608C22.6858 43.9821 23.4514 42.6816 24.2642 41.9592C17.8567 41.2847 11.1152 38.78 11.1152 27.6043C11.1152 24.425 12.2621 21.824 14.0793 19.8011C13.7925 19.0787 12.7882 16.0916 14.3666 12.0936C14.3666 12.0936 16.8051 11.3228 22.3034 15.0801C24.6574 14.4432 27.085 14.1193 29.5237 14.1165C31.9622 14.1165 34.448 14.4541 36.7434 15.0801C42.2423 11.3228 44.6808 12.0936 44.6808 12.0936C46.2592 16.0916 45.2542 19.0787 44.9675 19.8011C46.8326 21.824 47.9322 24.425 47.9322 27.6043C47.9322 38.78 41.1907 41.2362 34.7353 41.9592C35.7875 42.8743 36.6955 44.6081 36.6955 47.354C36.6955 51.2556 36.6482 54.387 36.6482 55.35C36.6482 56.1208 37.1744 57.0365 38.6085 56.7474C50.0839 52.8931 58.3559 42.0071 58.3559 29.146C58.4032 13.0566 45.4458 0.0512695 29.5237 0.0512695Z" fill="white"/>
</svg>
