<svg width="48" height="47" viewBox="0 0 48 47" fill="none" xmlns="http://www.w3.org/2000/svg">
<path fill-rule="evenodd" clip-rule="evenodd" d="M46.9578 0.679062C46.5897 0.237427 45.6329 0.237425 44.3816 0.826272L29.0715 8.6285L28.9979 8.55489C28.7035 8.26046 28.4827 8.03964 28.1883 7.74522C27.7466 7.37719 26.937 6.86195 26.4217 6.64113C23.1095 4.9482 19.2084 5.09541 15.7489 6.12589C11.8478 7.30359 8.16748 9.65898 5.37046 12.6032C4.11916 13.9281 3.01507 15.4738 2.1318 17.0932C1.02771 19.1541 0.365261 21.3623 0.144443 23.6441C-0.223586 28.134 1.02771 33.9489 4.11916 37.3348C4.85522 38.2181 5.66488 38.9541 6.47455 39.7638C7.06339 40.3526 7.72585 40.9415 8.31469 41.6039C9.41878 42.9288 10.0076 44.2537 10.5229 45.9467L10.5965 46.1675L10.8173 46.0203C13.9823 43.7385 15.16 40.7207 12.8783 37.3348C14.2032 36.2307 14.8656 34.685 14.8656 32.992C14.8656 31.3727 14.2032 29.6062 12.8047 28.6493C13.3935 28.4285 14.2768 27.9868 14.8656 27.766C14.8656 28.2813 14.424 29.0909 14.792 29.3117C15.5281 29.7534 18.3251 28.5757 19.282 26.0731C20.1652 25.7787 20.6805 25.5578 21.6374 25.1898C25.244 23.7177 29.2188 21.6567 31.4269 19.0805C32.163 18.1973 33.7087 15.621 32.0158 14.9586C32.6046 14.2961 32.9727 13.1921 32.7518 12.456L45.8537 2.88724C46.8106 2.29839 47.3994 1.1943 46.9578 0.679062ZM6.69536 33.2865C6.40094 31.6671 9.19796 30.2686 10.6701 29.6062C10.3021 30.7839 9.56599 31.9616 8.68272 32.8448C8.24109 33.2129 7.137 34.2433 6.69536 33.2865Z" fill="#393C42"/>
<path fill-rule="evenodd" clip-rule="evenodd" d="M31.2797 17.1668C32.2366 15.9155 31.5741 15.1794 30.9117 15.9155C29.5868 17.314 27.5258 17.7556 25.6857 17.4612C22.9623 17.0196 22.8887 16.5779 23.3303 16.2099C26.4953 17.3876 30.1756 15.8419 31.7214 13.3393C32.3838 12.3824 30.1756 11.6463 28.8507 9.8798C22.5942 1.41512 2.86786 8.7757 1.02771 23.6441C0.438867 28.134 1.69017 33.0656 4.78161 36.5251C7.06339 39.1013 9.56599 40.2054 10.9645 44.3273C13.6879 41.972 13.3199 39.3221 11.2589 36.9668C14.7184 35.2002 14.2032 30.563 11.7742 29.0909C10.6701 33.2128 6.62176 36.3043 5.66488 33.3601C5.07604 30.3422 10.0076 28.3549 17.8835 25.4106C24.508 22.8344 28.7771 20.7735 31.2797 17.1668Z" fill="#55BFCE"/>
<path fill-rule="evenodd" clip-rule="evenodd" d="M31.2797 17.1668C32.2366 15.9155 31.5741 15.1794 30.9117 15.9155C29.734 17.0932 28.0411 17.6084 26.4217 17.5348C23.6983 17.314 21.5638 16.7987 19.5764 17.0196C15.6753 17.3876 11.8478 19.8902 9.78681 21.9512C6.32734 25.4842 2.57344 32.8448 6.40094 34.2433C6.10652 34.0961 5.8857 33.7281 5.73849 33.2865C5.14964 30.2686 10.0812 28.2813 17.9571 25.337C24.508 22.8344 28.7771 20.7735 31.2797 17.1668Z" fill="white"/>
<path fill-rule="evenodd" clip-rule="evenodd" d="M14.3504 22.908C16.4113 23.8649 15.9697 27.398 15.6753 28.2813C19.5028 27.1772 18.3987 21.5095 20.1652 19.743C17.9571 19.6694 13.7615 21.8776 14.3504 22.908Z" fill="#55BFCE"/>
<path fill-rule="evenodd" clip-rule="evenodd" d="M20.9013 12.6032C21.4165 12.3088 22.1526 12.5296 22.447 13.0449C22.7414 13.5601 22.5206 14.2225 22.0054 14.5906C21.4901 14.885 20.7541 14.6642 20.4597 14.1489C20.1652 13.5601 20.3861 12.8976 20.9013 12.6032Z" fill="#393C42"/>
<path fill-rule="evenodd" clip-rule="evenodd" d="M30.2492 13.0449L45.7065 2.29839C46.1481 2.00397 46.737 1.34151 46.4425 0.973485C46.2217 0.679062 45.5593 0.826271 44.9704 1.12069L28.2619 10.1742C27.7466 11.2783 28.8507 13.6337 30.2492 13.0449Z" fill="#55BFCE"/>
<path fill-rule="evenodd" clip-rule="evenodd" d="M28.9243 10.9103L45.044 1.41512C45.7801 0.973486 46.0009 0.973485 46.4425 0.973485C46.2217 0.679062 45.5593 0.899877 44.9704 1.12069L28.2619 10.1742C27.8202 11.0575 28.4091 12.6032 29.2924 13.0449C28.9979 12.3088 28.7771 11.5727 28.9243 10.9103Z" fill="white"/>
<path fill-rule="evenodd" clip-rule="evenodd" d="M5.07604 15.1794C5.59128 15.1058 6.03291 15.4738 6.03291 15.9891C6.03291 16.5043 5.59128 17.0196 5.07604 17.0932C4.5608 17.1668 4.11916 16.7987 4.19277 16.2835C4.11916 15.7683 4.5608 15.253 5.07604 15.1794Z" fill="#25ABAD"/>
<path fill-rule="evenodd" clip-rule="evenodd" d="M8.24109 11.7199C8.68272 11.6463 9.05075 11.9408 9.05075 12.456C9.05075 12.9712 8.68272 13.4129 8.16748 13.4865C7.72585 13.5601 7.35782 13.2657 7.35782 12.7504C7.35782 12.2352 7.79945 11.7936 8.24109 11.7199Z" fill="#25ABAD"/>
<path fill-rule="evenodd" clip-rule="evenodd" d="M17.7362 7.15638C18.1779 7.15638 18.4723 7.59801 18.3987 8.03965C18.2515 8.48128 17.8099 8.84931 17.3682 8.84931C16.9266 8.84931 16.6322 8.40767 16.7058 7.96604C16.7794 7.4508 17.221 7.08278 17.7362 7.15638Z" fill="#25ABAD"/>
<path fill-rule="evenodd" clip-rule="evenodd" d="M20.6069 6.64113C20.9749 6.71474 21.1957 7.08277 21.0485 7.4508C20.9013 7.81883 20.4597 8.03965 20.0916 7.96604C19.7236 7.89244 19.5028 7.52441 19.65 7.15638C19.7972 6.78836 20.2388 6.56753 20.6069 6.64113Z" fill="#25ABAD"/>
<path fill-rule="evenodd" clip-rule="evenodd" d="M8.24109 13.8545C8.60912 13.7809 8.82994 14.0753 8.82994 14.3698C8.82994 14.7378 8.53551 15.0322 8.16748 15.1058C7.79945 15.1794 7.57864 14.9586 7.57864 14.5906C7.65224 14.2961 7.94666 13.9281 8.24109 13.8545Z" fill="#25ABAD"/>
<path fill-rule="evenodd" clip-rule="evenodd" d="M3.3831 17.9028C3.75113 17.8292 4.04555 18.1237 4.04555 18.4917C4.04555 18.8597 3.75113 19.2277 3.3831 19.3014C3.01507 19.375 2.72065 19.0805 2.72065 18.7861C2.72065 18.3445 3.01507 17.9764 3.3831 17.9028Z" fill="#25ABAD"/>
<path fill-rule="evenodd" clip-rule="evenodd" d="M32.3102 8.92292C32.2366 8.55489 32.2366 8.26046 32.2366 7.96604L31.5005 8.33407C31.5005 8.62849 31.5741 8.92291 31.7214 9.21734C32.0158 10.027 32.6046 10.7631 33.0463 10.9103C32.7518 10.395 32.4574 9.65898 32.3102 8.92292ZM36.1377 6.64113C36.1377 6.34671 36.0641 6.12589 36.1377 5.90507L35.5489 6.2731C35.5489 6.49392 35.6225 6.71474 35.6961 6.93556C35.9905 7.67162 36.5057 8.33407 36.8002 8.33407C36.5057 8.03965 36.2849 7.30358 36.1377 6.64113ZM39.9652 4.43295C39.9652 4.21214 39.8916 4.06493 39.9652 3.84412L39.45 4.13854C39.45 4.28575 39.45 4.50656 39.5236 4.65377C39.6708 5.16902 39.9652 5.68426 40.4069 5.75786C40.2596 5.46344 40.0388 5.0218 39.9652 4.43295ZM43.6455 2.29839C43.6455 2.15118 43.5719 2.00397 43.6455 1.93036L43.2039 2.15118C43.2039 2.22479 43.2775 2.372 43.3511 2.51921C43.4983 2.88724 43.7927 3.32888 44.0135 3.47609C43.8663 3.18166 43.7191 2.74002 43.6455 2.29839Z" fill="#25ABAD"/>
</svg>
