<svg width="27" height="25" viewBox="0 0 27 25" fill="none" xmlns="http://www.w3.org/2000/svg">
<path d="M9.58569 0.0791716H17.2984L9.29185 23.8018C9.20956 24.0456 9.05289 24.2574 8.8439 24.4075C8.63491 24.5575 8.38413 24.6383 8.12685 24.6383H2.12442C1.92949 24.6384 1.73735 24.592 1.5639 24.503C1.39046 24.414 1.24069 24.285 1.12698 24.1267C1.01328 23.9684 0.938913 23.7852 0.910034 23.5924C0.881154 23.3997 0.898592 23.2028 0.960905 23.0181L8.42039 0.915672C8.50265 0.671803 8.65934 0.459883 8.86839 0.309764C9.07744 0.159644 9.32832 0.0791859 9.58569 0.0791716Z" fill="url(#paint0_linear_14322_3992)"/>
<path d="M20.7934 15.9907H8.56287C8.44916 15.9906 8.33805 16.0247 8.24402 16.0887C8.14998 16.1526 8.07737 16.2434 8.03566 16.3491C7.99394 16.4549 7.98505 16.5708 8.01013 16.6817C8.03522 16.7926 8.09313 16.8934 8.17631 16.9709L16.0354 24.3063C16.2642 24.5197 16.5655 24.6384 16.8784 24.6383H23.8038L20.7934 15.9907Z" fill="#0078D4"/>
<path d="M9.58569 0.0791716C9.32551 0.0781731 9.07183 0.160392 8.8617 0.313818C8.65157 0.467244 8.49601 0.683839 8.41773 0.931964L0.970088 22.9979C0.903582 23.1833 0.882703 23.382 0.909216 23.5771C0.935729 23.7723 1.00886 23.9582 1.12241 24.1191C1.23596 24.28 1.3866 24.4112 1.56158 24.5016C1.73656 24.592 1.93074 24.6389 2.12768 24.6383H8.28502C8.51435 24.5974 8.72869 24.4963 8.90615 24.3453C9.08361 24.1944 9.21783 23.9991 9.2951 23.7793L10.7803 19.4022L16.0854 24.3504C16.3078 24.5343 16.5866 24.636 16.8751 24.6383H23.7748L20.7487 15.9907L11.9272 15.9928L17.3263 0.0791715L9.58569 0.0791716Z" fill="url(#paint1_linear_14322_3992)"/>
<path d="M19.4368 0.914487C19.3546 0.671012 19.1982 0.459443 18.9895 0.309587C18.7807 0.159731 18.5302 0.0791416 18.2733 0.0791715H9.67751C9.93446 0.0791861 10.1849 0.159793 10.3937 0.309643C10.6024 0.459492 10.7589 0.671036 10.841 0.914487L18.3008 23.0178C18.3632 23.2025 18.3806 23.3994 18.3518 23.5923C18.3229 23.7851 18.2486 23.9683 18.1349 24.1267C18.0212 24.2851 17.8714 24.4141 17.6979 24.5032C17.5245 24.5922 17.3323 24.6386 17.1373 24.6386H25.7333C25.9283 24.6386 26.1204 24.5921 26.2939 24.5031C26.4673 24.414 26.6171 24.285 26.7307 24.1266C26.8444 23.9682 26.9187 23.785 26.9476 23.5922C26.9764 23.3994 26.9589 23.2025 26.8966 23.0178L19.4368 0.914487Z" fill="url(#paint2_linear_14322_3992)"/>
<defs>
<linearGradient id="paint0_linear_14322_3992" x1="19.1717" y1="1.89938" x2="13.7976" y2="27.1291" gradientUnits="userSpaceOnUse">
<stop stop-color="#114A8B"/>
<stop offset="1" stop-color="#0669BC"/>
</linearGradient>
<linearGradient id="paint1_linear_14322_3992" x1="16.8287" y1="12.9269" x2="14.7824" y2="13.7142" gradientUnits="userSpaceOnUse">
<stop stop-opacity="0.3"/>
<stop offset="0.071" stop-opacity="0.2"/>
<stop offset="0.321" stop-opacity="0.1"/>
<stop offset="0.623" stop-opacity="0.05"/>
<stop offset="1" stop-opacity="0"/>
</linearGradient>
<linearGradient id="paint2_linear_14322_3992" x1="13.8798" y1="1.20891" x2="22.6723" y2="24.6336" gradientUnits="userSpaceOnUse">
<stop stop-color="#3CCBF4"/>
<stop offset="1" stop-color="#2892DF"/>
</linearGradient>
</defs>
</svg>
