<svg width="236" height="123" viewBox="0 0 236 123" fill="none" xmlns="http://www.w3.org/2000/svg">
<g clip-path="url(#clip0_10643_19084)">
<g clip-path="url(#clip1_10643_19084)">
<rect width="234" height="198" transform="matrix(-1 0 0 1 235 -32)" fill="#5E36AE"/>
<mask id="mask0_10643_19084" style="mask-type:alpha" maskUnits="userSpaceOnUse" x="-35" y="-80" width="325" height="240">
<path d="M109.227 10.403C109.227 34.8322 125.379 54.6361 145.304 54.6361C165.228 54.6361 289.715 -31.0469 289.715 -55.4762C289.715 -79.9055 110.852 -46.274 90.9272 -46.274C71.0026 -46.274 109.227 -14.0263 109.227 10.403Z" fill="url(#paint0_linear_10643_19084)"/>
<path d="M95.2145 115.086C95.2145 139.515 111.367 159.319 131.291 159.319C151.216 159.319 262.213 153.624 262.213 129.195C262.213 104.766 254.008 46.8984 234.084 46.8984C214.159 46.8984 95.2145 90.6562 95.2145 115.086Z" fill="url(#paint1_radial_10643_19084)"/>
<path d="M54.2906 10.4709C0.530565 59.0257 25.3645 34.6249 -20.8107 33.3956C-28.0544 34.791 -40.3514 34.8573 -31.5902 23.9596C-20.6387 10.3374 -24.1682 0.715993 -10.4817 -14.1254C3.20476 -28.9668 11.5399 -44.0454 32.2027 -67.6502C52.8656 -91.2551 54.4552 -71.7969 77.7499 -73.6415C101.045 -75.4861 90.4198 -72.5568 122.56 -38.3072C154.701 -4.05752 108.051 -38.0839 54.2906 10.4709Z" fill="#D9D9D9"/>
<path d="M105.043 86.8439C176.987 95.3141 142.27 92.6998 171.759 128.254C177.58 132.785 185.729 141.994 171.759 142.58C154.296 143.312 149.381 152.305 129.199 151.782C109.017 151.259 92.181 154.919 60.81 154.919C29.4389 154.919 43.0331 140.907 26.3018 124.594C9.57062 108.281 18.7728 114.346 23.3739 67.603C27.975 20.8602 33.0989 78.3737 105.043 86.8439Z" fill="#D9D9D9"/>
</mask>
<g mask="url(#mask0_10643_19084)">
<line y1="-0.10457" x2="250.759" y2="-0.10457" transform="matrix(-1 0 0 1 240.357 88.2236)" stroke="white" stroke-opacity="0.19" stroke-width="0.20914"/>
<line y1="-0.10457" x2="250.759" y2="-0.10457" transform="matrix(-1 0 0 1 240.357 34.6846)" stroke="white" stroke-opacity="0.19" stroke-width="0.20914"/>
<line y1="-0.10457" x2="250.759" y2="-0.10457" transform="matrix(-1 0 0 1 240.357 61.4541)" stroke="white" stroke-opacity="0.19" stroke-width="0.20914"/>
<line y1="-0.10457" x2="250.759" y2="-0.10457" transform="matrix(-1 0 0 1 240.357 114.994)" stroke="white" stroke-opacity="0.19" stroke-width="0.20914"/>
<line y1="-0.10457" x2="250.759" y2="-0.10457" transform="matrix(-1 0 0 1 240.357 7.91309)" stroke="white" stroke-opacity="0.19" stroke-width="0.20914"/>
<line y1="-0.10457" x2="250.759" y2="-0.10457" transform="matrix(-1 0 0 1 240.357 74.8398)" stroke="white" stroke-opacity="0.19" stroke-width="0.20914"/>
<line y1="-0.10457" x2="250.759" y2="-0.10457" transform="matrix(-1 0 0 1 240.357 21.2988)" stroke="white" stroke-opacity="0.19" stroke-width="0.20914"/>
<line y1="-0.10457" x2="250.759" y2="-0.10457" transform="matrix(-1 0 0 1 240.357 48.0684)" stroke="white" stroke-opacity="0.19" stroke-width="0.20914"/>
<line y1="-0.10457" x2="250.759" y2="-0.10457" transform="matrix(-1 0 0 1 240.357 101.608)" stroke="white" stroke-opacity="0.19" stroke-width="0.20914"/>
<g opacity="0.7">
<rect width="13.3089" height="13.3089" transform="matrix(-1 0 0 1 98.6562 87.8789)" fill="#F62E76" fill-opacity="0.31"/>
<rect width="13.3089" height="13.3089" transform="matrix(-1 0 0 1 165.578 87.8789)" fill="#CA85FF" fill-opacity="0.25"/>
<rect width="13.3089" height="13.1188" transform="matrix(-1 0 0 1 45.0391 -5.66504)" fill="#D092FF" fill-opacity="0.11"/>
<rect width="13.3089" height="13.1188" transform="matrix(-1 0 0 1 58.5391 7.64453)" fill="#D092FF" fill-opacity="0.11"/>
<rect width="13.3089" height="13.1188" transform="matrix(-1 0 0 1 165.771 -5.66504)" fill="#5C0D99" fill-opacity="0.31"/>
<rect width="13.3089" height="13.1188" transform="matrix(-1 0 0 1 58.5391 -5.66504)" fill="#D092FF" fill-opacity="0.11"/>
<rect width="13.3089" height="13.3089" transform="matrix(-1 0 0 1 178.893 87.8789)" fill="#CA85FF" fill-opacity="0.25"/>
<rect width="13.3089" height="13.499" transform="matrix(-1 0 0 1 178.893 101.187)" fill="#CA85FF" fill-opacity="0.25"/>
<rect width="13.3089" height="13.3089" transform="matrix(-1 0 0 1 205.699 74.5693)" fill="#CA85FF" fill-opacity="0.25"/>
<rect width="13.3089" height="13.499" transform="matrix(-1 0 0 1 205.699 7.45508)" fill="#5C0D99" fill-opacity="0.24"/>
<rect width="13.3089" height="13.3089" transform="matrix(-1 0 0 1 45.0391 74.5693)" fill="#5C0D99" fill-opacity="0.26"/>
<rect width="13.3089" height="13.3089" transform="matrix(-1 0 0 1 31.7305 87.8789)" fill="#5C0D99" fill-opacity="0.26"/>
</g>
</g>
</g>
<path d="M115.004 51.6227C116.659 49.9546 119.341 49.9546 120.996 51.6227L127.797 58.4796C129.451 60.1477 129.451 62.8522 127.797 64.5203L120.996 71.3772C119.341 73.0453 116.659 73.0453 115.004 71.3772L108.203 64.5203C106.548 62.8522 106.548 60.1477 108.203 58.4796L115.004 51.6227Z" fill="#A950FF"/>
<path d="M146.329 51.568C147.954 49.9297 150.589 49.9297 152.214 51.568L159.122 58.533C160.747 60.1712 160.747 62.8274 159.122 64.4656L152.214 71.4306C150.589 73.0689 147.954 73.0689 146.329 71.4306L139.421 64.4656C137.796 62.8274 137.796 60.1712 139.421 58.533C141.046 56.8947 146.329 51.568 146.329 51.568Z" fill="#A950FF"/>
<path d="M115.058 20.0412C116.683 18.4029 119.317 18.4029 120.942 20.0412L127.85 27.0062C129.475 28.6444 129.475 31.3006 127.85 32.9388L120.942 39.9038C119.317 41.5421 116.683 41.5421 115.058 39.9038L108.149 32.9388C106.524 31.3006 106.524 28.6444 108.149 27.0062L115.058 20.0412Z" fill="#E9C1FF"/>
<path d="M112.163 42.716C113.817 44.3841 113.817 47.0886 112.163 48.7567L105.362 55.6136C103.707 57.2817 101.024 57.2817 99.3699 55.6136L92.5688 48.7567C90.9143 47.0886 90.9143 44.3841 92.5688 42.716L99.37 35.8591C101.024 34.191 103.707 34.191 105.362 35.8591L112.163 42.716Z" fill="#CD88FF"/>
<path d="M96.58 58.533C98.2049 60.1712 98.2049 62.8274 96.58 64.4656L89.6716 71.4306C88.0467 73.0689 85.4121 73.0689 83.7872 71.4306L76.8789 64.4656C75.2539 62.8274 75.2539 60.1712 76.8789 58.533L83.7872 51.568C85.4122 49.9297 88.0467 49.9297 89.6716 51.568L96.58 58.533Z" fill="#A950FF"/>
<path d="M143.433 42.716C145.087 44.3841 145.087 47.0886 143.433 48.7567L136.632 55.6136C134.977 57.2817 132.295 57.2817 130.64 55.6136L123.839 48.7567C122.184 47.0886 122.184 44.3841 123.839 42.716L130.64 35.8591C132.295 34.191 134.977 34.191 136.632 35.8591L143.433 42.716Z" fill="#CD88FF"/>
<path d="M124.693 87.7488C128.39 91.4755 128.39 97.5176 124.693 101.244C120.997 104.971 115.004 104.971 111.307 101.244C107.611 97.5176 107.611 91.4755 111.307 87.7488C115.004 84.0221 120.997 84.0221 124.693 87.7488Z" fill="#F62E76"/>
</g>
<defs>
<linearGradient id="paint0_linear_10643_19084" x1="203.549" y1="-43.2415" x2="128.154" y2="-3.08655" gradientUnits="userSpaceOnUse">
<stop stop-color="white"/>
<stop offset="1" stop-color="white" stop-opacity="0"/>
</linearGradient>
<radialGradient id="paint1_radial_10643_19084" cx="0" cy="0" r="1" gradientUnits="userSpaceOnUse" gradientTransform="translate(209.3 116.124) rotate(-150.607) scale(128.901 221.545)">
<stop stop-color="white"/>
<stop offset="1" stop-color="white" stop-opacity="0"/>
</radialGradient>
<clipPath id="clip0_10643_19084">
<rect width="236" height="123" rx="8" fill="white"/>
</clipPath>
<clipPath id="clip1_10643_19084">
<rect width="234" height="198" fill="white" transform="matrix(-1 0 0 1 235 -32)"/>
</clipPath>
</defs>
</svg>
