<svg width="103" height="24" viewBox="0 0 103 24" fill="none" xmlns="http://www.w3.org/2000/svg">
<path d="M8.13253 4.68822H7.8737L1.00037 19.2246H2.67556L7.93122 7.85231L13.3522 19.2246H14.9124L8.13253 4.68822Z" fill="currentColor"/>
<path d="M26.3368 5.9723C28.58 5.9723 30.5428 7.17834 31.5925 8.96613L32.8003 8.27797C31.5134 6.07871 29.0976 4.59599 26.3368 4.59599C22.2171 4.59599 18.8739 7.89488 18.8739 11.96C18.8739 16.025 22.2171 19.3239 26.3368 19.3239C29.0976 19.3239 31.5062 17.8412 32.8003 15.6419L31.5925 14.9538C30.5428 16.7416 28.58 17.9476 26.3368 17.9476C22.9864 17.9476 20.2687 15.2659 20.2687 11.96C20.2687 8.65398 22.9864 5.9723 26.3368 5.9723Z" fill="currentColor"/>
<path d="M61.0054 4.76625H59.4381V19.1537H61.0054V4.76625Z" fill="currentColor"/>
<path d="M76.2044 4.59599C72.0847 4.59599 68.7415 7.89488 68.7415 11.96C68.7415 16.025 72.0847 19.3239 76.2044 19.3239C80.3241 19.3239 83.6673 16.025 83.6673 11.96C83.6601 7.89488 80.3241 4.59599 76.2044 4.59599ZM76.2044 17.9476C72.854 17.9476 70.1363 15.2659 70.1363 11.96C70.1363 8.65398 72.854 5.9723 76.2044 5.9723C79.5548 5.9723 82.2725 8.65398 82.2725 11.96C82.2725 15.2659 79.5548 17.9476 76.2044 17.9476Z" fill="currentColor"/>
<path d="M102.612 4.76625L96.4721 11.4775L90.3321 4.76625H89.9511V19.1537H91.4106V9.44145C91.4106 9.33504 91.4034 9.22153 91.4034 9.10802V8.20703L92.2806 9.1364C92.2877 9.14349 92.2878 9.14349 92.2949 9.15058L93.3015 10.2147L93.4669 10.3921L96.4793 13.5775L100.664 9.15058C101.074 8.66107 101.67 7.81684 101.67 7.81684C101.67 7.81684 101.541 8.83134 101.541 9.44855V19.1608H103V4.76625H102.612Z" fill="currentColor"/>
<path d="M53.2837 19.3239L49.3869 13.2653L47.5032 16.1882L46.6908 17.4581L47.8915 19.3239H53.2837Z" fill="currentColor"/>
<path d="M47.8915 4.59599L46.6908 6.46181L47.5032 7.72461L48.3804 9.09383L49.3869 10.6546L53.2837 4.59599H47.8915Z" fill="currentColor"/>
<path d="M40.7809 0.459961H33.9866L41.3848 11.96L33.9866 23.46H40.7809L48.1719 11.96L40.7809 0.459961Z" fill="currentColor"/>
</svg>
