<svg xmlns="http://www.w3.org/2000/svg" width="106" height="77" viewBox="0 0 106 77" fill="none">
<g clip-path="url(#clip0_24585_55138)">
<path d="M10.9347 71.4794C11.5902 71.4772 12.2387 71.346 12.8434 71.0931C13.4481 70.8402 13.9971 70.4707 14.459 70.0056C14.9208 69.5405 15.2866 68.989 15.5354 68.3826C15.7842 67.7761 15.9111 67.1266 15.9089 66.4711C15.9067 65.8156 15.7755 65.1669 15.5226 64.5622C15.2698 63.9574 14.9003 63.4084 14.4353 62.9464C13.9703 62.4844 13.4188 62.1186 12.8125 61.8698C12.2061 61.621 11.5567 61.494 10.9013 61.4962C9.57759 61.5007 8.30989 62.0308 7.37705 62.9701C6.44421 63.9093 5.92264 65.1807 5.92707 66.5046C5.93151 67.8284 6.4616 69.0963 7.40072 70.0293C8.33984 70.9622 9.61106 71.4839 10.9347 71.4794ZM10.2318 55.9366C13.2333 55.9366 15.1301 56.8372 16.2347 58.7153V56.6419H21.836V76.3304H16.2347V74.2168C15.2863 76.0961 13.2667 76.9955 10.0756 76.9955C4.10611 76.9955 0 72.6902 0 66.4644C0 60.2787 4.22884 55.9321 10.2318 55.9321M28.5977 50.0991H34.556V76.3237H28.5977V50.1058V50.0991ZM38.7067 56.6385H44.8659L48.6931 68.9306L52.5202 56.6374H58.6905L51.5383 76.3304H45.8143L38.7067 56.6385ZM76.2196 64.3899C75.9965 63.3806 75.4216 62.4837 74.5977 61.8596C73.7738 61.2356 72.7548 60.9252 71.7229 60.984C70.6937 60.9195 69.6758 61.2284 68.8559 61.854C68.0361 62.4797 67.4694 63.38 67.2598 64.3899H76.2196ZM71.6783 55.9723C73.0818 55.9593 74.4734 56.2311 75.7688 56.7714C77.0642 57.3117 78.2366 58.1092 79.215 59.1157C80.1934 60.1221 80.9575 61.3167 81.461 62.627C81.9645 63.9373 82.197 65.3362 82.1444 66.7389C82.1553 67.2788 82.1029 67.8182 81.9882 68.3459H67.137C67.2586 69.3958 67.7746 70.3603 68.5805 71.044C69.3864 71.7278 70.4219 72.0797 71.4775 72.0285C72.1628 72.0635 72.8471 71.9409 73.4777 71.67C74.1083 71.3992 74.6684 70.9874 75.1149 70.4662L75.3939 70.1905H81.4749C79.6227 74.4579 76.0187 76.9978 71.7564 76.9978C68.9688 77.0081 66.2912 75.9105 64.3128 73.9464C63.3331 72.9739 62.5546 71.818 62.0217 70.5445C61.4887 69.2711 61.2118 67.9051 61.2066 66.5247C61.2015 65.1442 61.4683 63.7762 61.9918 62.4989C62.5152 61.2215 63.2852 60.0598 64.2575 59.08C66.2214 57.1012 68.8907 55.9827 71.6783 55.9723ZM87.6006 56.643H93.2019V58.7186C93.7795 57.8119 94.5916 57.0782 95.5521 56.5955C96.5127 56.1128 97.5859 55.899 98.6581 55.9768C100.637 55.9277 102.559 56.6431 104.025 57.9743C105.52 59.3837 106 60.9115 106 64.045V76.3304H100.042V65.6062C100.152 64.5997 99.941 63.5841 99.4392 62.7048C99.1499 62.3119 98.7689 61.9959 98.3293 61.7844C97.8896 61.5729 97.4049 61.4725 96.9175 61.4918C96.3748 61.4777 95.8368 61.5949 95.3492 61.8335C94.8615 62.0721 94.4388 62.425 94.1168 62.8621C93.6398 63.5901 93.4417 64.4659 93.5589 65.3284V76.3316H87.6006V56.643ZM55.4882 13.6123C55.3696 12.9597 55.2839 12.3016 55.2316 11.6404C54.4617 11.2736 53.7253 10.9277 53.0223 10.6026C52.577 12.1996 52.6752 13.8994 53.3013 15.4346C53.9484 17.0304 53.7476 20.2912 52.8549 23.4861C52.4062 24.8709 51.7314 26.1718 50.8577 27.3361C51.1478 27.7468 51.5048 28.2423 51.9288 28.8092C53.3609 26.9251 54.4385 24.7962 55.1088 22.5264C56.0379 19.6442 56.169 16.5641 55.4882 13.6134M67.0366 17.354L64.7827 16.2671C63.9459 17.0884 63.1983 17.7513 62.7408 18.1486C60.8663 20.8134 60.3307 21.0121 60.6432 19.3315C61.1769 17.8818 61.613 16.398 61.9486 14.89C61.2903 14.5664 60.632 14.2472 59.9848 13.9337C59.572 16.0361 59.1368 17.9823 58.869 19.0781C58.4004 21.0645 59.7059 24.1747 53.3236 30.6215C53.5356 30.8949 53.7587 31.1794 54.0042 31.4696C54.1381 31.5979 54.2832 31.7296 54.4282 31.8601C56.5259 29.4798 59.0364 26.5483 61.1564 23.9637C63.0086 21.7207 65.2067 19.5435 67.0366 17.354ZM68.0966 23.4627C69.0339 21.8401 69.8931 20.3715 70.6072 19.0581C69.8484 18.6987 69.0562 18.3215 68.2863 17.9499C67.3782 19.3104 66.6294 20.7707 66.0547 22.3021C65.7981 23.1324 64.0575 25.9445 59.996 29.7789C58.6794 31.0288 57.2958 32.2675 56.0461 33.4615C56.3251 33.7517 56.604 34.044 56.8829 34.3387C57.8122 33.5393 58.7844 32.7912 59.7952 32.0978C62.328 30.0334 66.1998 26.7324 68.0966 23.466M34.1543 21.6024C34.132 21.6448 34.0985 21.6895 34.0762 21.7363C34.4489 23.0387 34.5998 24.3945 34.5225 25.747C34.2436 28.9676 34.9019 32.0108 35.5937 31.233C36.2798 29.6685 36.8105 28.0403 37.1781 26.3719C37.3232 24.7605 35.9731 21.2832 35.6048 17.9064C34.9912 19.51 34.5114 20.8904 34.1543 21.6024ZM67.3379 31.9249L67.5722 31.6626C64.5302 33.0211 61.6299 34.677 58.9137 36.6063C59.3712 37.1352 59.8063 37.663 60.2303 38.1831C60.914 37.6315 61.659 37.1608 62.4507 36.7803C63.2499 36.3469 64.0048 35.8363 64.7046 35.256C65.524 34.1007 66.403 32.9888 67.3379 31.9249ZM32.6926 26.2224C32.7239 25.7465 32.6901 25.2686 32.5922 24.8018C31.6049 26.5396 30.7687 28.3589 30.0928 30.2398C30.297 31.4291 30.6261 32.5935 31.0747 33.7137C31.2498 34.3908 31.3509 35.0849 31.376 35.7838C31.5981 36.1023 31.8365 36.4093 32.0901 36.7033C32.6118 37.3679 33.3726 37.802 34.2101 37.913C34.2547 37.451 34.2771 36.9667 34.2994 36.4623C34.3105 36.2246 34.3328 35.9824 34.3552 35.7403C34.0998 34.2844 33.738 32.8492 33.2728 31.4461C32.604 29.7915 32.4033 27.9847 32.6926 26.2235M47.3095 12.5644C46.4057 15.313 46.216 16.9746 46.4726 21.2554C46.7293 25.5361 45.8924 27.0058 44.732 28.2188C44.0327 28.9516 43.4596 29.7951 43.036 30.7152C44.4415 29.8082 45.9065 28.997 47.4211 28.2869C48.7039 24.9585 49.4059 21.4345 49.4964 17.8685C49.2898 16.1411 49.3766 14.3912 49.7531 12.6927C50.0445 11.6241 50.2755 10.5399 50.4448 9.44534C49.4072 8.99896 48.5257 8.64409 47.8227 8.40751C47.8978 9.81292 47.724 11.2205 47.3095 12.5655M72.4594 25.1645C73.3185 23.803 73.4524 22.1035 74.1219 20.684C73.2739 20.3046 73.0507 20.1986 72.1581 19.7912C70.2389 22.8043 67.7284 26.9857 67.4829 28.5558C69.2442 27.5862 70.9104 26.453 72.4594 25.1712M43.5604 12.9226C45.2899 10.7488 44.9886 5.35094 45.4461 2.02767C45.5294 1.44516 45.66 0.870408 45.8366 0.309118L45.8032 0.015625C44.4209 1.11756 43.1056 2.30108 41.8644 3.55986L41.1726 2.64144L40.9048 2.96952L40.7263 6.9021C40.7263 6.9021 41.8198 5.63439 42.5339 4.90122C42.5375 4.90017 42.5414 4.90017 42.5451 4.90122C45.1225 2.53542 41.2507 8.35171 39.644 12.1861C39.0933 13.5773 38.7984 15.0567 38.7737 16.5528C38.7343 17.4122 38.7716 18.2734 38.8853 19.1261V19.163C39.0639 20.4411 39.3628 21.6995 39.7779 22.9215C40.0769 23.8181 40.1963 24.7649 40.1293 25.7078C40.0623 26.6506 39.8102 27.571 39.3874 28.4164C38.4154 29.9604 37.8192 31.711 37.6467 33.5274C37.662 34.5045 37.6173 35.4817 37.5128 36.4534C38.1894 35.7959 38.7918 35.0661 39.3093 34.2773C39.8009 33.5638 40.3697 32.9066 41.0053 32.3177C40.9941 31.1817 40.8156 29.472 41.8309 28.3505C42.9914 27.0728 42.6901 23.649 42.5674 21.0969C42.4446 18.5447 41.8309 15.1132 43.5604 12.9226ZM65.4522 44.573C66.3448 38.6183 71.2097 33.9347 72.3032 32.2686C73.4859 31.0053 77.8263 25.9077 74.9253 20.7744C74.8025 22.5934 75.3493 25.9524 71.8345 29.7745C64.9389 36.3786 63.8678 42.6413 63.8678 42.6413L65.296 45.4311L65.4522 44.573Z" fill="#131316"/>
</g>
<defs>
<clipPath id="clip0_24585_55138">
<rect width="106" height="77" fill="white"/>
</clipPath>
</defs>
</svg>