<svg width="39" height="46" viewBox="0 0 39 46" fill="none" xmlns="http://www.w3.org/2000/svg">
<g clip-path="url(#clip0_16630_22537)">
<path d="M37.6006 35.7913C36.9183 37.3635 36.1107 38.8107 35.1751 40.1412C33.8997 41.955 32.8554 43.2105 32.0506 43.9077C30.8031 45.0521 29.4664 45.6382 28.0351 45.6716C27.0076 45.6716 25.7684 45.3799 24.3259 44.7883C22.8787 44.1994 21.5487 43.9077 20.3326 43.9077C19.0572 43.9077 17.6894 44.1994 16.2263 44.7883C14.761 45.3799 13.5806 45.6882 12.6781 45.7188C11.3055 45.7771 9.93735 45.1744 8.57174 43.9077C7.70012 43.1494 6.60992 41.8495 5.30389 40.0079C3.90263 38.0412 2.7506 35.7608 1.84808 33.1608C0.88151 30.3526 0.396973 27.6332 0.396973 25.0005C0.396973 21.9848 1.05026 19.3838 2.35879 17.2041C3.38718 15.4533 4.7553 14.0723 6.46762 13.0584C8.17993 12.0445 10.0301 11.5279 12.0225 11.4948C13.1127 11.4948 14.5424 11.8312 16.319 12.4923C18.0907 13.1556 19.2282 13.492 19.727 13.492C20.0998 13.492 21.3635 13.0987 23.5058 12.3145C25.5317 11.5873 27.2415 11.2862 28.6422 11.4048C32.4377 11.7104 35.2893 13.2028 37.1856 15.8916C33.7911 17.9432 32.1119 20.8168 32.1453 24.503C32.176 27.3744 33.2202 29.7637 35.2725 31.6609C36.2026 32.5414 37.2413 33.222 38.397 33.7053C38.1464 34.4302 37.8818 35.1247 37.6006 35.7913ZM28.8956 1.62291C28.8956 3.87343 28.0713 5.97472 26.4283 7.91966C24.4456 10.2318 22.0475 11.5679 19.4468 11.3571C19.4137 11.0871 19.3945 10.8029 19.3945 10.5043C19.3945 8.34382 20.3374 6.03167 22.0118 4.14117C22.8478 3.18398 23.911 2.38808 25.2003 1.75318C26.4868 1.12776 27.7037 0.781886 28.8482 0.722656C28.8817 1.02351 28.8956 1.32442 28.8956 1.62291Z" fill="currentColor"/>
</g>
<defs>
<clipPath id="clip0_16630_22537">
<rect width="38" height="45" fill="white" transform="translate(0.396973 0.722656)"/>
</clipPath>
</defs>
</svg>
