<svg width="101" height="18" viewBox="0 0 101 18" fill="none" xmlns="http://www.w3.org/2000/svg">
<path fill-rule="evenodd" clip-rule="evenodd" d="M14.3761 13.4355L14.6779 12.6046C15.2984 10.9263 15.0301 9.61358 13.1184 9.13169C15.3487 8.69965 16.6399 7.18751 17.2101 5.64213L17.4281 5.06054C18.3169 2.65109 17.6293 0.856459 14.3258 0.856459H6.36039L0.222839 17.6063H8.23855C11.5421 17.6063 13.4873 15.8283 14.3761 13.4355ZM9.76455 11.5411L9.29501 12.8206C9.06024 13.4521 8.64101 13.7346 8.00378 13.7346H7.16532L8.30562 10.6438H9.14409C9.76455 10.6438 9.99932 10.9097 9.76455 11.5411ZM11.9278 5.65875L11.4415 6.97149C11.2235 7.5697 10.7875 7.85218 10.167 7.85218H9.32855L10.4521 4.77805H11.2906C11.9278 4.77805 12.1626 5.0273 11.9278 5.65875ZM23.1967 0.839844L12.9842 17.6063H17.9144L19.3566 15.1138H22.09L21.6372 17.6063H27.171L29.2672 0.839844H23.1967ZM22.744 11.8402H21.2515L23.7501 7.28721L22.744 11.8402ZM62.7051 13.1031L61.045 17.6063H50.3797L54.8739 5.35964H50.7989L46.3048 17.6063H40.7709L45.2651 5.35964H38.9934L34.4992 17.6063H28.9654L33.4595 5.35964H29.7871L31.4304 0.856459H67.1993L65.6397 5.11039H60.4916L59.737 7.15427H64.8851L63.4765 11.0094H58.3283L57.557 13.1197H62.7051V13.1031ZM94.1307 5.09377L93.3929 7.13766H98.541L97.1324 10.9928H91.9675L91.1961 13.1031H96.3443L94.6841 17.6063H73.6722L79.8098 0.839844H85.3101L80.8159 13.1031H85.6455L90.1396 0.839844H100.822L99.2621 5.09377H94.1307ZM74.343 13.1031L72.6996 17.6063H62.202L68.3396 0.839844H73.8399L69.3457 13.1031H74.343Z" fill="currentColor"/>
</svg>
