<svg width="219" height="45" viewBox="0 0 219 45" xmlns="http://www.w3.org/2000/svg" xmlns:svg="http://www.w3.org/2000/svg" xml:space="preserve">
 <g class="layer">
  <title>Layer 1</title>
  <path d="m0,0l45.4,0l0,45.4l-45.4,0l0,-45.4z" fill="#008053" id="svg_1"/>
  <path d="m44,22.9c0,9.5 0.4,19.2 0.4,19.2c0,1.1 -0.7,1.8 -1.6,1.8l-39.3,0c-0.9,0 -1.5,-0.8 -1.6,-1.8c0,0 -1.1,-8.3 -1.1,-20.9c0,-12.7 1.2,-18.6 1.2,-18.6c0.1,-1 0.7,-1.8 1.6,-1.8l39.3,0c0.9,0 1.6,0.8 1.6,1.8c-0.1,0 -0.5,10.9 -0.5,20.3" fill="#008053" id="svg_2"/>
  <path d="m35.2,12.2c-2.8,1.6 -3.7,1.8 -6.7,3.6l0.1,-0.3c1.6,-1.7 2.3,-2.5 3.3,-4c-2.8,0.2 -6.9,0.5 -9.8,1.1l0.2,-0.3c2.7,-1.3 7.6,-2.6 10.1,-2.9c-0.6,-0.9 -5.6,-3.6 -6.8,-4.1l0.1,-0.3c3.8,0.4 8.8,2.2 10.9,3.5c0.9,-0.3 1.9,-0.3 3.6,-0.5c0,0 -0.3,1 -2.1,2.3c0.5,1.2 -0.6,8.1 -1.6,9.9c0,-2.8 -0.2,-6.4 -1.3,-8m-20.5,24.6l0.1,-0.3c-1.5,-0.6 -3,-1 -4.2,-2.2c0.4,-1.1 0.8,-1.9 1.5,-2.9l0.1,-0.3c-1.3,0.2 -2.4,0.7 -3.5,0.9c-0.9,-1.5 -1.2,-3.6 -1.7,-5.6l0,0.2c-0.2,2.3 -0.3,3.9 0,5.7c-0.9,0.3 -1.7,0.3 -2.5,0.6l-0.1,0.3c1.2,0.7 2.1,1.3 3.5,1.9c0.7,1.5 1.5,2.6 2.7,3.8l0.1,-0.3c-0.2,-0.9 -0.5,-1.6 -0.4,-2.6c1.5,0.5 2.7,0.7 4.4,0.8m4.2,-22.8s-0.6,1.1 -1.1,2.5l-0.1,0c3.5,0.5 6.8,1.9 7.6,2.4l-0.1,0.3c-3.6,-0.6 -5.5,-0.6 -6.9,-0.4c-1.3,0.1 -1.6,0.3 -1.6,0.3c-0.8,1.7 -1.2,4.5 -1.4,5.5l-0.1,0.3c-0.7,-1.6 -1.6,-4.8 -1.6,-4.8c-1.8,1 -6,4.9 -6,4.9c2.3,-4.6 4.7,-6.7 4.7,-6.7c-0.8,-0.8 -2.9,-1.2 -4.5,-1.3l0.1,-0.3c1,-0.3 3,-0.4 4.3,-0.5l2.5,0c1.3,-1.1 3.4,-2.1 4.2,-2.2m4.4,19.9c-0.7,1 -1.4,1.8 -2.2,2.7c-1.2,0.3 -2.6,0.2 -3.7,0.2l-0.1,0.3c0.8,0.4 1.6,0.7 2.5,0.9c-0.7,0.6 -1.6,1.1 -2.3,1.6l-0.1,0.3c1.4,-0.3 3.3,-0.9 4.7,-1.8c0.7,0 1.4,0 1.9,-0.1l0.1,-0.3c-0.1,-0.3 -0.4,-0.5 -0.5,-1c1.3,-1 2.2,-1.9 3.3,-3l0.2,-0.3c-1.1,0.7 -2.4,1.8 -3.6,2.4c-0.1,-0.7 -0.2,-1.2 -0.2,-1.9" fill="#008053" id="svg_3"/>
  <path d="m35.4,11.9c-2.8,1.6 -3.7,1.8 -6.7,3.6c1.8,-1.9 2.4,-2.7 3.5,-4.4c-2.8,0.1 -6.9,0.5 -9.8,1.1c2.5,-1.4 7.6,-2.9 10.2,-3.2c-0.6,-0.8 -5.6,-3.4 -6.9,-4c3.9,0.3 8.8,1.8 11.1,3.2c0.9,-0.3 1.9,-0.3 3.6,-0.5c-0.4,0.8 -0.4,1.3 -2.1,2.4c0.5,1.2 -0.6,8.1 -1.6,9.9c0,-2.9 -0.3,-6.5 -1.3,-8.1m-20.5,24.6c-1.6,-0.6 -2.8,-1.3 -4,-2.5c0.4,-1.1 0.8,-1.9 1.5,-2.9c-1.3,0.2 -2.3,0.3 -3.4,0.6c-1,-1.7 -1.4,-3.3 -1.8,-5.4c-0.3,2.3 -0.3,3.9 0,5.7c-1,0.3 -1.8,0.5 -2.6,0.9c1.2,0.7 2.2,1.3 3.5,1.9c0.7,1.5 1.5,2.6 2.7,3.8c-0.3,-1 -0.4,-1.8 -0.2,-2.9c1.3,0.5 2.6,0.7 4.3,0.8m4.2,-22.8c-0.5,0.7 -1.1,1.9 -1.2,2.4c4.1,0.6 7.5,2.7 7.5,2.7c-3.6,-0.6 -5.5,-0.6 -6.9,-0.4c-1.3,0.1 -1.6,0.3 -1.6,0.3c-1,2.1 -1.6,5.8 -1.6,5.8c-0.7,-1.6 -1.6,-4.8 -1.6,-4.8c-1.8,1 -6,4.9 -6,4.9c2.3,-4.6 4.7,-6.7 4.7,-6.7c-0.8,-0.8 -2.9,-1.2 -4.5,-1.3c0.8,-0.3 2.9,-0.7 4.5,-0.8l2.5,0c1.3,-1 3.4,-2 4.2,-2.1m4.4,19.9c-0.7,1 -1.4,1.8 -2.2,2.7c-1.4,0.4 -2.5,0.5 -3.9,0.5c0.8,0.4 1.6,0.7 2.5,0.9c-0.9,0.8 -1.6,1.3 -2.5,1.9c1.4,-0.3 3.3,-0.9 4.7,-1.8c0.7,0 1.4,0 1.9,-0.1c-0.1,-0.4 -0.2,-0.7 -0.3,-1.3c1.3,-1 2.3,-1.9 3.3,-3c-1.2,0.8 -2.2,1.4 -3.5,2l0,-1.8z" fill="#fff" id="svg_4"/>
  <path d="m62.4,16.6c3.1,0 4.2,0.6 4.2,2.3c0,0.5 -0.1,0.9 -0.4,1.2c-0.6,0.7 -1.7,1.1 -3.2,1l-0.1,0l-0.9,2.2l0.9,0c1.7,0 3.2,0.5 3.9,1.4c0.3,0.4 0.5,0.9 0.5,1.4c0,1.7 -1.5,2.6 -4.5,2.6l-1.8,0c-0.1,-2.3 -0.1,-5.5 -0.1,-6.4c0,-1.1 0.1,-3.5 0.1,-5.6c0.3,-0.1 0.9,-0.1 1.4,-0.1m-5.6,-1.6c0.1,1.6 0.2,5.8 0.2,7.3c0,1.4 0,6.1 -0.2,8.1l0,0.2l7.2,0c3.6,0 7.4,-1.1 7.4,-4.3c0,-2 -1.5,-3.5 -4.2,-4.3c2,-0.5 3.4,-1.9 3.4,-3.5c0,-2.6 -3,-3.6 -5.8,-3.7l-8.1,0l0.1,0.2zm31.5,-0.2l-3.6,0l0.1,4c0.1,2 0.1,4 0.3,5.9c-0.2,-0.6 -0.4,-0.9 -1.5,-2.5c0,-0.1 -3.7,-5.8 -5,-7.4l-4.1,0l0,0.2c0.1,1.6 0.2,5.8 0.2,7.3c0,1.4 0,6.1 -0.2,8.1l0,0.2l3.7,0l0,-0.2c-0.2,-3.8 -0.2,-7.7 -0.2,-11.5c0.1,0.5 0.3,0.8 0.9,1.7c0,0.1 6.4,9.3 6.7,9.9l0,0.1l3,0l0,-0.2c-0.2,-2 -0.2,-6.7 -0.2,-8.1c0,-1.5 0.1,-5.7 0.2,-7.3l0,-0.1l-0.3,0l0,-0.1zm9.7,1.9q3.15,0 4.2,1.2c0.3,0.4 0.5,0.9 0.5,1.4c0,2.3 -2.6,2.8 -4.7,2.8l-1.3,0l0,-5.3c0.3,0 0.8,-0.1 1.3,-0.1m-5.4,-1.7c0.1,1.6 0.2,5.8 0.2,7.3c0,1.4 0,6.1 -0.2,8.1l0,0.2l4.4,0l0,-0.2c-0.1,-1.5 -0.2,-4.2 -0.2,-6.3l1.4,0c5.8,0 8.6,-1.5 8.6,-4.7c0,-3.7 -3.9,-4.5 -7.2,-4.6l-6.9,0l0,0.2m27.8,1.7q3.15,0 4.2,1.2c0.3,0.4 0.5,0.9 0.5,1.4c0,2.3 -2.6,2.8 -4.7,2.8l-1.3,0l0,-5.3c0.3,0 0.8,-0.1 1.3,-0.1m-5.4,-1.7c0.1,1.6 0.2,5.8 0.2,7.3c0,1.4 0,6.1 -0.2,8.1l0,0.2l4.4,0l0,-0.2c-0.1,-1.5 -0.2,-4.2 -0.2,-6.3l1.4,0c5.8,0 8.6,-1.5 8.6,-4.7c0,-3.7 -4,-4.5 -7.3,-4.6l-6.9,0l0,0.2zm21.1,4.5c0.3,0.8 1.3,2.8 2.3,5.3l-4.6,0c0.8,-2 1.6,-3.8 2.3,-5.3m-1.1,-4.7c-0.9,2.3 -6.2,13.8 -7,15.6l-0.1,0.2l3.7,0l0,-0.1c0.3,-1.1 0.8,-2.3 1.3,-3.6l6.2,0c0.7,1.7 1.2,3 1.4,3.6l0,0.1l4.3,0l-7,-15.8l0.1,0l-2.9,0zm11.7,0.2c0.1,1.6 0.2,5.8 0.2,7.3c0,1.4 0,6.1 -0.2,8.1l0,0.2l4.4,0l0,-0.2c-0.2,-2 -0.3,-6.7 -0.3,-8.1c0,-1.1 0,-3.5 0.1,-5.5c0.3,0 0.8,-0.1 1.2,-0.1c2,0 3.5,0.4 4.2,1.2c0.3,0.4 0.5,0.9 0.5,1.4c0,1.8 -1.7,2.7 -3.3,2.8l-0.9,0l-0.3,-0.1l0.2,0.3c1.6,2.3 3.9,6.2 4.9,8.1l0,0.1l4.7,0l-0.1,-0.2c-0.2,-0.3 -3.3,-4.8 -4.6,-6.7l-0.1,-0.1c2.4,-0.7 3.6,-2.1 3.6,-4.1c0,-3.6 -3.9,-4.5 -7.3,-4.6l-6.9,0l0,0.2zm21.6,-0.2l-4.2,0l0,0.1c0.1,1.6 0.2,5.8 0.2,7.3c0,1.4 0,6.1 -0.2,8.1l0,0.2l4.4,0l0,-0.2c-0.2,-2 -0.2,-6.7 -0.2,-8.1c0,-1.5 0.1,-5.7 0.2,-7.3l0,-0.1l-0.2,0zm9.7,1.8c3.1,0 4.2,0.6 4.2,2.3c0,0.5 -0.1,0.9 -0.4,1.2c-0.6,0.7 -1.7,1.1 -3.2,1l-0.1,0l-0.8,2.2l0.8,0c1.7,0 3.1,0.5 3.9,1.4c0.4,0.4 0.5,0.9 0.5,1.4c0,1.7 -1.5,2.6 -4.6,2.6l-1.8,0c-0.1,-2.3 -0.1,-5.5 -0.1,-6.4c0,-1.1 0,-3.5 0.1,-5.6c0.4,-0.1 1,-0.1 1.5,-0.1m-5.6,-1.6c0.1,1.6 0.2,5.8 0.2,7.3c0,1.4 0,6.1 -0.2,8.1l0,0.2l7.3,0c3.6,0 7.4,-1.1 7.4,-4.3c0,-2 -1.5,-3.5 -4.2,-4.3c2,-0.5 3.4,-1.9 3.4,-3.5c0,-2.6 -3,-3.6 -5.8,-3.7l-8.1,0l0,0.2zm23.6,4.4c0.4,0.7 1.3,2.8 2.3,5.3l-4.5,0c0.7,-1.9 1.5,-3.7 2.2,-5.3m1.8,-4.6l-2.9,0l0,0.1c-0.9,2.4 -6.4,14.5 -6.9,15.5l-0.1,0.2l3.8,0l0,-0.1q0.45,-1.65 1.2,-3.6l6.2,0c0.7,1.7 1.2,3 1.4,3.6l0,0.1l4.3,0l-7,-15.8zm8.4,4.1c0,2.8 2.8,3.9 5.2,4.9c1.9,0.8 3.9,1.6 3.9,2.9c0,0.4 -0.1,0.7 -0.3,1c-0.5,0.5 -1.4,0.8 -2.9,0.7s-3.1,-0.5 -5,-1.4l-0.7,-0.4l0,3.4l0.5,0.1l0.3,0c0.9,0.2 2.7,0.6 4.4,0.6c4.6,0 7.4,-1.8 7.4,-4.9c0,-2.9 -2.8,-4 -5.4,-5c-1.9,-0.8 -3.8,-1.5 -3.8,-2.7c0,-0.4 0,-1.4 2.4,-1.4c1.8,0 3.5,0.7 4.5,1.1l0.9,0.4l0,-3.5l-0.9,-0.2c-0.9,-0.2 -2.4,-0.5 -3.9,-0.5c-4,0.2 -6.6,2.1 -6.6,4.9" fill="currentColor" id="svg_5"/>
 </g>
</svg>