<svg xmlns="http://www.w3.org/2000/svg" width="77.352" height="22.2" viewBox="0 0 77.352 22.2"><path fill="currentColor" d="M63.397 7.251c-1.018 0-1.515 1.813-1.192 4.519.372 3.278 3.3 3.278 5.289 2.434v1.614a11.761 11.761 0 01-3.079.422 5.1 5.1 0 01-5.513-5.339c0-2.086.745-4.966 4.693-4.966a3.847 3.847 0 014.147 4h-3.154c0-1.44-.3-2.682-1.192-2.682m13.956 3.773h-5.711v.05c.2 4.048 3.2 3.948 5.339 3.1v1.614a10.884 10.884 0 01-3 .422c-4.867 0-5.587-3.6-5.587-5.463 0-2.136.919-4.867 4.644-4.842a3.966 3.966 0 014.321 4.122zM74 9.611v-.2c-.05-.993-.248-2.136-1.093-2.136-.819 0-1.117.968-1.217 2.285v.075h2.309zm-27.514 6.332h-5.339c-1.962 0-3.377-.795-3.377-2.98a3 3 0 012.21-3.03 7.836 7.836 0 011.788-.348c.571-.05 1.043-.05 1.366-.05h.05v-.3c0-2.285-2.285-2.036-3.551-1.664a6.344 6.344 0 00-.646.223v-1.49a11.863 11.863 0 013.129-.348c2.856 0 4.4 1.341 4.4 3.576zm-3.3-1.366v-3.8h-.05a1.961 1.961 0 00-2.011 2.086c0 1.54.745 1.689 1.465 1.713zM24.109 6.258v9.685h-3.3V6.258zM37.695 7.35a1.884 1.884 0 00-1.987 2.136v6.432h-3.3V9.387c0-1.962 1.813-3.452 4.619-3.452h.67zm-5.338-5.165v1.391c-.323 0-.646 0-.968.025a2.759 2.759 0 00-.919.2 1.552 1.552 0 00-.919 1.639v.82h2.334v1.415h-2.337v8.244h-3.3V6.21c0-3.6 2.458-4.023 5.463-4.023zm25.08 13.757h-3.328v-5.809c0-2.285-.869-2.409-2.086-2.434h-.226v8.244h-3.3v-9.71c.273.025 1.167.05 4.147.05 4.793 0 4.817 2.235 4.817 4.023zM22.474 4.271a2.136 2.136 0 112.136-2.136 2.135 2.135 0 01-2.136 2.136"/><path fill="#ffcd00" d="M22.474 22.2a2.136 2.136 0 112.136-2.136 2.135 2.135 0 01-2.136 2.136"/><path fill="currentColor" d="M0 15.942V2.185h3.328v4.073H4.37c2.309 0 3.452.894 4.023 1.937a5.828 5.828 0 01.571 2.806c0 1.54-.472 4.917-4.3 4.917H0zm5.612-4.966c0-2.111-.5-3.4-2.011-3.4h-.273v7.028h.323c1.465 0 1.962-1.415 1.962-3.625m13.756.221a5.829 5.829 0 01-.571 2.806c-.571 1.043-1.713 1.937-4.023 1.937h-1.042v4.072h-3.328V6.258h4.668c3.824 0 4.3 3.4 4.3 4.942m-5.637-3.626v7.028h.269c1.515 0 2.011-1.291 2.011-3.4 0-2.21-.5-3.626-1.962-3.626z"/></svg>