<svg
   version="1.1"
   id="svg182"
   width="700.00006"
   height="181.85422"
   viewBox="0 0 700.00006 181.85422"
   xml:space="preserve"
   xmlns:xlink="http://www.w3.org/1999/xlink"
   xmlns="http://www.w3.org/2000/svg"
   xmlns:svg="http://www.w3.org/2000/svg"><defs
     id="defs186"><linearGradient
       id="linearGradient1865"><stop
         style="stop-color:#b01115;stop-opacity:1"
         offset="0"
         id="stop1861" /><stop
         style="stop-color:#b61112;stop-opacity:1"
         offset="0.15265414"
         id="stop1941" /><stop
         style="stop-color:#c81012;stop-opacity:1"
         offset="0.28901207"
         id="stop1939" /><stop
         style="stop-color:#d81012;stop-opacity:1"
         offset="0.44166633"
         id="stop1937" /><stop
         style="stop-color:#e50f0f;stop-opacity:1"
         offset="0.62343472"
         id="stop1935" /><stop
         style="stop-color:#eb0f0f;stop-opacity:1"
         offset="0.80189323"
         id="stop1933" /><stop
         style="stop-color:#d41415;stop-opacity:1"
         offset="1"
         id="stop1863" /></linearGradient><clipPath
       clipPathUnits="userSpaceOnUse"
       id="clipPath811"><path
         d="m 2847.63,481.89804 c -2.4,0 -4.34,-1.93703 -4.34,-4.32803 v 0 -274.65998 c 0,-2.39002 1.94,-4.332 4.34,-4.332 v 0 h 274.64 c 2.39,0 4.34,1.94198 4.34,4.332 v 0 274.65998 c 0,2.391 -1.95,4.32803 -4.34,4.32803 v 0 z"
         id="path813"
         style="stroke-width:0.999997" /></clipPath><clipPath
       clipPathUnits="userSpaceOnUse"
       id="clipPath911"><path
         d="M 2786.63,142.85903 H 3996.85 V 538.55799 H 2786.63 Z"
         id="path913"
         style="stroke-width:0.999997" /></clipPath><clipPath
       clipPathUnits="userSpaceOnUse"
       id="clipPath915"><path
         d="M 2786.63,142.85903 H 3996.85 V 538.55799 H 2786.63 Z"
         id="path917"
         style="stroke-width:0.999997" /></clipPath><clipPath
       clipPathUnits="userSpaceOnUse"
       id="clipPath919"><path
         d="M 2786.63,142.85903 H 3996.85 V 538.55799 H 2786.63 Z"
         id="path921"
         style="stroke-width:0.999997" /></clipPath><clipPath
       clipPathUnits="userSpaceOnUse"
       id="clipPath923"><path
         d="M 2786.63,142.85903 H 3996.85 V 538.55799 H 2786.63 Z"
         id="path925"
         style="stroke-width:0.999997" /></clipPath><clipPath
       clipPathUnits="userSpaceOnUse"
       id="clipPath927"><path
         d="M 2786.63,142.85903 H 3996.85 V 538.55799 H 2786.63 Z"
         id="path929"
         style="stroke-width:0.999997" /></clipPath><clipPath
       clipPathUnits="userSpaceOnUse"
       id="clipPath931"><path
         d="M 2786.63,142.85903 H 3996.85 V 538.55799 H 2786.63 Z"
         id="path933"
         style="stroke-width:0.999997" /></clipPath><clipPath
       clipPathUnits="userSpaceOnUse"
       id="clipPath935"><path
         d="M 2786.63,142.85903 H 3996.85 V 538.55799 H 2786.63 Z"
         id="path937"
         style="stroke-width:0.999997" /></clipPath><clipPath
       clipPathUnits="userSpaceOnUse"
       id="clipPath939"><path
         d="M 2786.63,142.85903 H 3996.85 V 538.55799 H 2786.63 Z"
         id="path941"
         style="stroke-width:0.999997" /></clipPath><clipPath
       clipPathUnits="userSpaceOnUse"
       id="clipPath943"><path
         d="M 2786.63,142.85903 H 3996.85 V 538.55799 H 2786.63 Z"
         id="path945"
         style="stroke-width:0.999997" /></clipPath><clipPath
       clipPathUnits="userSpaceOnUse"
       id="clipPath947"><path
         d="M 2786.63,142.85903 H 3996.85 V 538.55799 H 2786.63 Z"
         id="path949"
         style="stroke-width:0.999997" /></clipPath><clipPath
       clipPathUnits="userSpaceOnUse"
       id="clipPath951"><path
         d="M 2786.63,142.85903 H 3996.85 V 538.55799 H 2786.63 Z"
         id="path953"
         style="stroke-width:0.999997" /></clipPath><clipPath
       clipPathUnits="userSpaceOnUse"
       id="clipPath955"><path
         d="M 2786.63,142.85903 H 3996.85 V 538.55799 H 2786.63 Z"
         id="path957"
         style="stroke-width:0.999997" /></clipPath><clipPath
       clipPathUnits="userSpaceOnUse"
       id="clipPath959"><path
         d="M 2786.63,142.85903 H 3996.85 V 538.55799 H 2786.63 Z"
         id="path961"
         style="stroke-width:0.999997" /></clipPath><clipPath
       clipPathUnits="userSpaceOnUse"
       id="clipPath963"><path
         d="M 2786.63,142.85903 H 3996.85 V 538.55799 H 2786.63 Z"
         id="path965"
         style="stroke-width:0.999997" /></clipPath><clipPath
       clipPathUnits="userSpaceOnUse"
       id="clipPath967"><path
         d="M 2786.63,142.85903 H 3996.85 V 538.55799 H 2786.63 Z"
         id="path969"
         style="stroke-width:0.999997" /></clipPath><clipPath
       clipPathUnits="userSpaceOnUse"
       id="clipPath971"><path
         d="M 2786.63,142.85903 H 3996.85 V 538.55799 H 2786.63 Z"
         id="path973"
         style="stroke-width:0.999997" /></clipPath><clipPath
       clipPathUnits="userSpaceOnUse"
       id="clipPath975"><path
         d="M 2786.63,142.85903 H 3996.85 V 538.55799 H 2786.63 Z"
         id="path977"
         style="stroke-width:0.999997" /></clipPath><clipPath
       clipPathUnits="userSpaceOnUse"
       id="clipPath979"><path
         d="M 2786.63,142.85903 H 3996.85 V 538.55799 H 2786.63 Z"
         id="path981"
         style="stroke-width:0.999997" /></clipPath><clipPath
       clipPathUnits="userSpaceOnUse"
       id="clipPath983"><path
         d="M 2786.63,142.85903 H 3996.85 V 538.55799 H 2786.63 Z"
         id="path985"
         style="stroke-width:0.999997" /></clipPath><clipPath
       clipPathUnits="userSpaceOnUse"
       id="clipPath987"><path
         d="M 2786.63,142.85903 H 3996.85 V 538.55799 H 2786.63 Z"
         id="path989"
         style="stroke-width:0.999997" /></clipPath><linearGradient
       xlink:href="#linearGradient1865"
       id="linearGradient1867"
       x1="2850.4973"
       y1="202.62042"
       x2="3126.1711"
       y2="481.89801"
       gradientUnits="userSpaceOnUse" /></defs><g
     id="g188"
     transform="matrix(1.3333333,0,0,-1.3333333,-381.09895,33.315112)"><g
       id="g1116"
       transform="matrix(1.0510643,0,0,1.0510643,-30.543456,-58.391899)"
       style="fill:currentColor;fill-opacity:1"><path
         d="m 3353.26,400.031 h 19.2188 v 81.8672 H 3353.26 Z"
         style="fill:currentColor;fill-opacity:1;fill-rule:nonzero;stroke:none"
         id="path326"
         transform="matrix(0.51281351,0,0,0.51281351,-1173.7485,-200.0164)"
         clip-path="url(#clipPath967)" /><path
         d="m 3248.86,422.945 v 0 c -4.25,-3.453 -14.54,-7.429 -24.75,-7.429 -13.41,0 -26.5,9.847 -26.5,25.257 0,16.02 13.57,25.641 26.98,25.641 8.93,0 19.46,-3.578 24.25,-7.449 l 9.27,13.738 c -4.16,4.27 -17.86,11.152 -34.59,11.152 -24.09,0 -45.36,-16.39 -45.36,-42.722 0,-25.547 20.79,-43.059 44.88,-43.059 16.59,0 27.14,5.52 34.3,11.461"
         style="fill:currentColor;fill-opacity:1;fill-rule:nonzero;stroke:none"
         id="path328"
         transform="matrix(0.51281351,0,0,0.51281351,-1173.7485,-200.0164)"
         clip-path="url(#clipPath963)" /><path
         d="m 3302.04,460.898 -10.21,-29.429 h 20.99 z m 20.99,-60.867 -5.82,16.489 h -30.34 l -5.82,-16.489 h -19.93 l 31.43,81.867 h 19.93 l 31.43,-81.867"
         style="fill:currentColor;fill-opacity:1;fill-rule:nonzero;stroke:none"
         id="path330"
         transform="matrix(0.51281351,0,0,0.51281351,-1173.7485,-200.0164)"
         clip-path="url(#clipPath959)" /><path
         d="m 3418.58,397.406 c -12.3,0 -24.24,6.34 -30.93,12.692 l 10.28,14.39 c 5.95,-6.34 16.49,-10.609 23,-10.609 6.4,0 11.41,3.051 11.58,8.66 0.18,5.731 -7.01,9.481 -10.66,10.82 -3.64,1.348 -11.16,3.539 -13.96,4.758 -2.05,0.981 -18.23,6.461 -18.23,21.27 0,8.062 4.39,14.39 9.43,18.422 4.92,4.031 12.74,6.711 22.58,6.711 9.84,0 23.1,-5.133 28.7,-10.872 l -9.42,-13.781 c -4.77,4.879 -13.86,9.039 -20.26,9.039 -6.39,0 -11.13,-2.437 -11.29,-7.566 -0.16,-5.121 4.57,-6.024 8.34,-7.481 3.64,-1.472 11.83,-4.16 14.5,-5.261 10.7,-3.899 20.51,-11.91 20.13,-24.11 -0.56,-18.179 -17.31,-27.082 -33.79,-27.082"
         style="fill:currentColor;fill-opacity:1;fill-rule:nonzero;stroke:none"
         id="path332"
         transform="matrix(0.51281351,0,0,0.51281351,-1173.7485,-200.0164)"
         clip-path="url(#clipPath955)" /><path
         d="m 3491.76,397.406 c -12.3,0 -24.24,6.34 -30.93,12.692 l 10.28,14.39 c 5.95,-6.34 16.49,-10.609 23,-10.609 6.4,0 11.41,3.051 11.58,8.66 0.18,5.731 -7.01,9.481 -10.66,10.82 -3.64,1.348 -11.17,3.539 -13.95,4.758 -2.06,0.981 -18.24,6.461 -18.24,21.27 0,8.062 4.39,14.39 9.43,18.422 4.92,4.031 12.74,6.711 22.58,6.711 9.84,0 23.1,-5.133 28.7,-10.872 l -9.42,-13.781 c -4.76,4.879 -13.86,9.039 -20.26,9.039 -6.39,0 -11.13,-2.437 -11.29,-7.566 -0.16,-5.121 4.57,-6.024 8.34,-7.481 3.64,-1.472 11.83,-4.16 14.5,-5.261 10.7,-3.899 20.51,-11.91 20.13,-24.11 -0.56,-18.179 -17.31,-27.082 -33.79,-27.082"
         style="fill:currentColor;fill-opacity:1;fill-rule:nonzero;stroke:none"
         id="path334"
         transform="matrix(0.51281351,0,0,0.51281351,-1173.7485,-200.0164)"
         clip-path="url(#clipPath951)" /><path
         d="m 3540.88,400.031 v 81.871 h 58.56 l -5.84,-13.64 c -0.43,-1.012 -1.42,-1.66 -2.52,-1.66 h -31.11 v -16.743 h 30.69 v -15.296 h -30.69 V 415.57 h 38.29 v -15.539"
         style="fill:currentColor;fill-opacity:1;fill-rule:nonzero;stroke:none"
         id="path336"
         transform="matrix(0.51281351,0,0,0.51281351,-1173.7485,-200.0164)"
         clip-path="url(#clipPath947)" /><path
         d="m 3297.56,293.645 v 81.867 h 58.57 l -5.84,-13.641 c -0.43,-1.008 -1.42,-1.656 -2.52,-1.656 h -31.11 v -16.742 h 30.69 v -15.301 h -30.69 v -18.988 h 38.29 v -15.539"
         style="fill:currentColor;fill-opacity:1;fill-rule:nonzero;stroke:none"
         id="path338"
         transform="matrix(0.51281351,0,0,0.51281351,-1173.7485,-200.0164)"
         clip-path="url(#clipPath943)" /><path
         d="m 3791.24,293.645 v 81.867 h 58.58 l -5.84,-13.641 c -0.44,-1.008 -1.43,-1.656 -2.53,-1.656 h -31.11 v -16.742 h 30.69 v -15.301 h -30.69 v -18.988 h 38.29 v -15.539"
         style="fill:currentColor;fill-opacity:1;fill-rule:nonzero;stroke:none"
         id="path340"
         transform="matrix(0.51281351,0,0,0.51281351,-1173.7485,-200.0164)"
         clip-path="url(#clipPath939)" /><path
         d="m 3649.7,338.637 c 0.43,1.008 1.43,1.66 2.52,1.66 h 29.34 v -34.141 c -6.49,-8.293 -20.1,-14.472 -36.83,-14.472 -24.08,0 -44.88,17.511 -44.88,43.062 0,26.34 21.28,42.719 45.37,42.719 16.73,0 30.42,-6.879 34.57,-11.149 l -9.25,-13.742 c -4.79,3.879 -15.32,7.449 -24.25,7.449 -13.41,0 -26.98,-9.617 -26.98,-25.636 0,-15.41 13.08,-25.25 26.49,-25.25 5.9,0 12.2,1.347 17.35,3.379 v 13.449 h -18.86"
         style="fill:currentColor;fill-opacity:1;fill-rule:nonzero;stroke:none"
         id="path342"
         transform="matrix(0.51281351,0,0,0.51281351,-1173.7485,-200.0164)"
         clip-path="url(#clipPath935)" /><path
         d="m 3752.84,293.645 -35.96,55.531 0.36,-55.531 h -18.75 v 81.871 h 20.53 l 35.12,-55.051 -0.35,55.051 h 18.75 v -81.871"
         style="fill:currentColor;fill-opacity:1;fill-rule:nonzero;stroke:none"
         id="path344"
         transform="matrix(0.51281351,0,0,0.51281351,-1173.7485,-200.0164)"
         clip-path="url(#clipPath931)" /><path
         d="m 3272.06,351.504 h -11.01 l 6.18,24.008 h 19.01"
         style="fill:currentColor;fill-opacity:1;fill-rule:nonzero;stroke:none"
         id="path346"
         transform="matrix(0.51281351,0,0,0.51281351,-1173.7485,-200.0164)"
         clip-path="url(#clipPath927)" /><path
         d="m 3212.4,359.613 h -8.77 v -49.718 h 8.77 c 15.19,0 22.01,9.5 22.01,24.679 0,15.43 -6.47,25.039 -22.01,25.039 m -1.07,-65.968 h -26.81 v 81.871 h 26.81 c 25.75,0 42.54,-13.653 42.54,-40.942 0,-27.41 -16.67,-40.929 -42.54,-40.929"
         style="fill:currentColor;fill-opacity:1;fill-rule:nonzero;stroke:none"
         id="path348"
         transform="matrix(0.51281351,0,0,0.51281351,-1173.7485,-200.0164)"
         clip-path="url(#clipPath923)" /><path
         d="m 3403.72,360.68 h -11.33 v -21.95 h 11.33 c 7.47,0 13.17,2.61 13.17,11.032 0,8.308 -5.81,10.918 -13.17,10.918 m 2.73,-36.778 h -13.95 v -30.261 h -19.22 v 81.871 h 33.17 c 16.73,0 29.9,-7.473 29.9,-25.75 0,-18.27 -13.17,-25.86 -29.9,-25.86"
         style="fill:currentColor;fill-opacity:1;fill-rule:nonzero;stroke:none"
         id="path350"
         transform="matrix(0.51281351,0,0,0.51281351,-1173.7485,-200.0164)"
         clip-path="url(#clipPath919)" /><path
         d="m 3472.77,354.516 -10.21,-29.43 h 20.99 z m 20.99,-60.871 -5.82,16.488 h -30.34 l -5.82,-16.488 h -19.93 l 31.43,81.871 h 19.93 l 31.43,-81.871"
         style="fill:currentColor;fill-opacity:1;fill-rule:nonzero;stroke:none"
         id="path352"
         transform="matrix(0.51281351,0,0,0.51281351,-1173.7485,-200.0164)"
         clip-path="url(#clipPath915)" /><path
         d="m 3555,360.68 h -10.87 v -21 H 3555 c 7.12,0 14,2.133 14,10.562 0,8.547 -6.88,10.438 -14,10.438 m 16.94,-67.039 -17.21,31.332 h -10.48 v -31.332 h -19.23 v 81.871 h 32.71 c 15.66,0 30.61,-6.641 30.61,-24.563 0,-15.539 -8.81,-21.59 -14.86,-23.488 l 20.77,-33.82"
         style="fill:currentColor;fill-opacity:1;fill-rule:nonzero;stroke:none"
         id="path354"
         transform="matrix(0.51281351,0,0,0.51281351,-1173.7485,-200.0164)"
         clip-path="url(#clipPath911)" /></g><path
       d="m 2847.63,481.898 c -2.4,0 -4.34,-1.937 -4.34,-4.328 V 202.91 c 0,-2.39 1.94,-4.332 4.34,-4.332 h 274.64 c 2.39,0 4.34,1.942 4.34,4.332 v 274.66 c 0,2.391 -1.95,4.328 -4.34,4.328 v 0"
       style="fill:url(#linearGradient1867);fill-opacity:1;fill-rule:nonzero;stroke:none"
       id="path306"
       transform="matrix(0.47781961,0,0,0.47781961,-1072.7555,-205.27398)"
       clip-path="url(#clipPath811)" /><g
       id="g1123"
       style="fill:#ffffff"
       transform="matrix(0.93176095,0,0,0.93176095,20.897665,-18.9065)"><path
         d="m 3057.68,286.484 h -49.41 c -0.97,0 -1.86,-0.507 -2.34,-1.339 l -9.63,-15.731 h 43.36 c 4.82,0 9.29,2.551 11.73,6.723"
         style="fill:#ffffff;fill-opacity:1;fill-rule:nonzero;stroke:none"
         id="path316"
         transform="matrix(0.51281351,0,0,0.51281351,-1173.7485,-200.0164)"
         clip-path="url(#clipPath987)" /><path
         d="m 3071.4,247.801 h -86.64 c -0.96,0 -1.86,-0.512 -2.35,-1.34 l -9.6,-15.742 h 80.57 c 4.82,0 9.28,2.558 11.72,6.719"
         style="fill:#ffffff;fill-opacity:1;fill-rule:nonzero;stroke:none"
         id="path318"
         transform="matrix(0.51281351,0,0,0.51281351,-1173.7485,-200.0164)"
         clip-path="url(#clipPath983)" /><path
         d="m 3046.57,368.359 -6.37,-10.488 c -0.64,-1 -0.57,-2.301 0.18,-3.211 l 16.01,-19.5 -11.41,-11.597 c -1.14,-0.973 -1.28,-2.68 -0.31,-3.833 l 7.34,-8.648 23.15,23.981"
         style="fill:#ffffff;fill-opacity:1;fill-rule:nonzero;stroke:none"
         id="path320"
         transform="matrix(0.51281351,0,0,0.51281351,-1173.7485,-200.0164)"
         clip-path="url(#clipPath979)" /><path
         d="m 3025.08,335.02 c 0,4.187 3.39,7.578 7.58,7.578 4.19,0 7.58,-3.391 7.58,-7.578 0,-4.192 -3.39,-7.582 -7.58,-7.582 -4.19,0 -7.58,3.39 -7.58,7.582"
         style="fill:#ffffff;fill-opacity:1;fill-rule:nonzero;stroke:none"
         id="path322"
         transform="matrix(0.51281351,0,0,0.51281351,-1173.7485,-200.0164)"
         clip-path="url(#clipPath975)" /><path
         d="m 2965.18,407.984 c -13.61,-9.671 -25.18,-19.589 -34.7,-29.75 h -24.92 c -0.91,0 -1.76,-0.453 -2.26,-1.211 l -6.72,-11.031 h 23.5 c -3.4,-4.469 -6.41,-8.969 -9.03,-13.508 h -21.16 c -0.9,0 -1.75,-0.453 -2.26,-1.211 l -6.72,-11.031 h 24.03 c -1.88,-4.469 -3.39,-8.98 -4.54,-13.508 h -26.17 c -0.91,0 -1.76,-0.453 -2.26,-1.211 l -6.73,-11.039 h 32.99 c -0.02,-0.152 -0.04,-0.312 -0.06,-0.472 -2.88,-28.981 7.87,-49.008 17.66,-60.489 8.35,-9.789 21.86,-19.121 29.4,-22.148 l 87.96,144.578 c 1.8,2.961 1.53,6.738 -0.67,9.418 l -8.3,9.563 -85.1,-140.09 c -9.88,7.687 -26.92,25.789 -23.77,57.461 0.07,0.726 0.16,1.457 0.26,2.179 h 26.68 c 0.97,0 1.88,0.508 2.39,1.348 l 6.64,10.902 h -32.99 c 1.45,4.618 3.34,9.118 5.62,13.508 h 34 c 0.98,0 1.89,0.5 2.4,1.34 l 6.63,10.902 h -35.49 c 3.31,4.649 7.03,9.149 11.08,13.508 h 31.05 c 0.98,0 1.88,0.512 2.39,1.34 l 6.64,10.902 h -27.44 c 26.38,23.239 60.91,41.508 88.09,54.34 3.48,1.641 6.4,4.25 8.4,7.528 l 13.06,21.402 c -23.32,-10.359 -65.62,-29.422 -99.58,-53.52"
         style="fill:#ffffff;fill-opacity:1;fill-rule:nonzero;stroke:none"
         id="path324"
         transform="matrix(0.51281351,0,0,0.51281351,-1173.7485,-200.0164)"
         clip-path="url(#clipPath971)" /></g></g></svg>