<svg
   xmlns:dc="http://purl.org/dc/elements/1.1/"
   xmlns:cc="http://creativecommons.org/ns#"
   xmlns:rdf="http://www.w3.org/1999/02/22-rdf-syntax-ns#"
   xmlns:svg="http://www.w3.org/2000/svg"
   xmlns="http://www.w3.org/2000/svg"
   version="1.1"
   width="892.91339" viewBox="0 0 892.91339 408.18896"
   height="408.18896"
   id="svg8017">
  <g
     transform="translate(56.928569,-315.66308)"
     id="layer1">
    <g
       transform="matrix(7.7801983,0,0,7.7801983,-3078.2155,-3644.3547)"
       id="g8042">
      <path
         d="m 451.09206,560.99477 0,-11.11206 -10.75993,0 0.007,-40.43888 -51.55338,0 0,51.55094 62.30537,0 z"
         id="path7440"
         style="fill:#254aa5;fill-opacity:1;fill-rule:nonzero;stroke:none" />
      <path
         d="m 502.64233,560.99477 0,-51.55094 -62.30226,0 0,11.11636 10.75199,0.002 0,40.43213 51.55027,0 z"
         id="path7442"
         style="fill:#008b91;fill-opacity:1;fill-rule:nonzero;stroke:none" />
      <path
         d="m 427.62892,543.72483 -1.31961,4.8029 c -2.71119,1.31286 -5.93018,1.81579 -8.96065,1.81579 -9.68559,0 -17.01534,-5.58231 -17.01534,-14.2535 0,-11.03831 8.1446,-16.06938 18.01213,-16.06938 2.9871,0 6.60885,0.71835 9.23648,2.07208 -0.40901,1.43622 -0.85148,3.59687 -1.21223,5.07515 l -0.46753,-0.72324 c -1.67474,-2.27974 -4.56962,-3.88931 -7.50847,-3.88931 -7.51595,0 -10.5463,6.72555 -10.5463,12.94381 0,7.23636 3.80126,12.30964 10.77091,12.30964 2.80387,0 6.06197,-1.35631 8.09982,-3.16776 l 0.91079,-0.91618 z"
         id="path7444"
         style="fill:#ffffff;fill-opacity:1;fill-rule:nonzero;stroke:none" />
      <path
         d="m 490.06667,543.76871 -1.31604,4.80056 c -2.71723,1.31035 -5.93006,1.81694 -8.96472,1.81694 -9.68746,0 -17.01171,-5.58957 -17.01171,-14.25782 0,-11.0369 8.14322,-16.06928 18.00768,-16.06928 2.9884,0 6.61015,0.7201 9.2359,2.0734 -0.40773,1.43672 -0.84473,3.59436 -1.2085,5.0737 l -0.46998,-0.71832 c -1.6735,-2.28328 -4.56902,-3.89037 -7.51339,-3.89037 -7.5074,0 -10.54199,6.72485 -10.54199,12.94136 0,7.24109 3.79998,12.31075 10.77389,12.31075 2.79911,0 6.05839,-1.35441 8.09814,-3.16715 l 0.91072,-0.91377 z"
         id="path7446"
         style="fill:#ffffff;fill-opacity:1;fill-rule:nonzero;stroke:none" />
      <path
         d="m 451.09206,549.88271 0,-29.32252 -10.75199,0 0,29.32252 10.75199,0 z"
         id="path7448"
         style="fill:#f1471d;fill-opacity:1;fill-rule:nonzero;stroke:none" />
      <path
         d="m 451.09206,549.88271 0,-29.32252 -10.75199,0 0,29.32252 10.75199,0 z"
         id="path7450"
         style="fill:none;stroke:#f1471d;stroke-width:1.25;stroke-linecap:butt;stroke-linejoin:miter;stroke-miterlimit:4;stroke-opacity:1;stroke-dasharray:none" />
    </g>
  </g>
</svg>