<svg width="1720" height="1145" viewBox="0 0 1720 1145" fill="none" xmlns="http://www.w3.org/2000/svg">
<g opacity="0.8">
<rect x="0.469835" y="-77.5302" width="89.2687" height="89.2687" fill="#08090C" stroke="#161619" stroke-width="0.93967"/>
<rect x="89.6782" y="-77.5302" width="89.2687" height="89.2687" fill="#08090C" stroke="#161619" stroke-width="0.93967"/>
<rect x="178.887" y="-77.5302" width="89.2687" height="89.2687" fill="#08090C" stroke="#161619" stroke-width="0.93967"/>
<rect x="268.095" y="-77.5302" width="89.2687" height="89.2687" fill="#08090C" stroke="#161619" stroke-width="0.93967"/>
<rect x="357.303" y="-77.5302" width="89.2687" height="89.2687" fill="#08090C" stroke="#161619" stroke-width="0.93967"/>
<rect x="446.512" y="-77.5302" width="89.2687" height="89.2687" fill="#08090C" stroke="#161619" stroke-width="0.93967"/>
<rect x="535.72" y="-77.5302" width="89.2687" height="89.2687" fill="#08090C" stroke="#161619" stroke-width="0.93967"/>
<rect x="624.928" y="-77.5302" width="89.2687" height="89.2687" fill="#08090C" stroke="#161619" stroke-width="0.93967"/>
<rect x="714.137" y="-77.5302" width="89.2687" height="89.2687" fill="#08090C" stroke="#161619" stroke-width="0.93967"/>
<rect x="803.345" y="-77.5302" width="89.2687" height="89.2687" fill="#08090C" stroke="#161619" stroke-width="0.93967"/>
<rect x="892.554" y="-77.5302" width="89.2687" height="89.2687" fill="#08090C" stroke="#161619" stroke-width="0.93967"/>
<rect x="981.762" y="-77.5302" width="89.2687" height="89.2687" fill="#08090C" stroke="#161619" stroke-width="0.93967"/>
<rect x="1070.97" y="-77.5302" width="89.2687" height="89.2687" fill="#08090C" stroke="#161619" stroke-width="0.93967"/>
<rect x="1160.18" y="-77.5302" width="89.2687" height="89.2687" fill="#08090C" stroke="#161619" stroke-width="0.93967"/>
<rect x="1249.39" y="-77.5302" width="89.2687" height="89.2687" fill="#08090C" stroke="#161619" stroke-width="0.93967"/>
<rect x="1338.6" y="-77.5302" width="89.2687" height="89.2687" fill="#08090C" stroke="#161619" stroke-width="0.93967"/>
<rect x="1427.8" y="-77.5302" width="89.2687" height="89.2687" fill="#08090C" stroke="#161619" stroke-width="0.93967"/>
<rect x="1517.01" y="-77.5302" width="89.2687" height="89.2687" fill="#08090C" stroke="#161619" stroke-width="0.93967"/>
<rect x="1606.22" y="-77.5302" width="89.2687" height="89.2687" fill="#08090C" stroke="#161619" stroke-width="0.93967"/>
<rect x="1695.43" y="-77.5302" width="89.2687" height="89.2687" fill="#08090C" stroke="#161619" stroke-width="0.93967"/>
<rect x="0.469835" y="12.6778" width="89.2687" height="89.2687" fill="#08090C" stroke="#161619" stroke-width="0.93967"/>
<rect x="89.6782" y="12.6778" width="89.2687" height="89.2687" fill="#08090C" stroke="#161619" stroke-width="0.93967"/>
<rect x="178.887" y="12.6778" width="89.2687" height="89.2687" fill="#08090C" stroke="#161619" stroke-width="0.93967"/>
<rect x="268.095" y="12.6778" width="89.2687" height="89.2687" fill="#08090C" stroke="#161619" stroke-width="0.93967"/>
<rect x="357.303" y="12.6778" width="89.2687" height="89.2687" fill="#08090C" stroke="#161619" stroke-width="0.93967"/>
<rect x="446.512" y="12.6778" width="89.2687" height="89.2687" fill="#08090C" stroke="#161619" stroke-width="0.93967"/>
<rect x="535.72" y="12.6778" width="89.2687" height="89.2687" fill="#08090C" stroke="#161619" stroke-width="0.93967"/>
<rect x="624.928" y="12.6778" width="89.2687" height="89.2687" fill="#08090C" stroke="#161619" stroke-width="0.93967"/>
<rect x="714.137" y="12.6778" width="89.2687" height="89.2687" fill="#08090C" stroke="#161619" stroke-width="0.93967"/>
<rect x="803.345" y="12.6778" width="89.2687" height="89.2687" fill="#08090C" stroke="#161619" stroke-width="0.93967"/>
<rect x="892.554" y="12.6778" width="89.2687" height="89.2687" fill="#08090C" stroke="#161619" stroke-width="0.93967"/>
<rect x="981.762" y="12.6778" width="89.2687" height="89.2687" fill="#08090C" stroke="#161619" stroke-width="0.93967"/>
<rect x="1070.97" y="12.6778" width="89.2687" height="89.2687" fill="#08090C" stroke="#161619" stroke-width="0.93967"/>
<rect x="1160.18" y="12.6778" width="89.2687" height="89.2687" fill="#08090C" stroke="#161619" stroke-width="0.93967"/>
<rect x="1249.39" y="12.6778" width="89.2687" height="89.2687" fill="#08090C" stroke="#161619" stroke-width="0.93967"/>
<rect x="1338.6" y="12.6778" width="89.2687" height="89.2687" fill="#08090C" stroke="#161619" stroke-width="0.93967"/>
<rect x="1427.8" y="12.6778" width="89.2687" height="89.2687" fill="#08090C" stroke="#161619" stroke-width="0.93967"/>
<rect x="1517.01" y="12.6778" width="89.2687" height="89.2687" fill="#08090C" stroke="#161619" stroke-width="0.93967"/>
<rect x="1606.22" y="12.6778" width="89.2687" height="89.2687" fill="#08090C" stroke="#161619" stroke-width="0.93967"/>
<rect x="1695.43" y="12.6778" width="89.2687" height="89.2687" fill="#0F1015" stroke="#232329" stroke-width="0.93967"/>
<rect x="0.469835" y="102.887" width="89.2687" height="89.2687" fill="#08090C" stroke="#161619" stroke-width="0.93967"/>
<rect x="89.6782" y="102.887" width="89.2687" height="89.2687" fill="#08090C" stroke="#161619" stroke-width="0.93967"/>
<rect x="178.887" y="102.887" width="89.2687" height="89.2687" fill="#08090C" stroke="#161619" stroke-width="0.93967"/>
<rect x="268.095" y="102.887" width="89.2687" height="89.2687" fill="#08090C" stroke="#161619" stroke-width="0.93967"/>
<rect x="357.303" y="102.887" width="89.2687" height="89.2687" fill="#08090C" stroke="#161619" stroke-width="0.93967"/>
<rect x="446.512" y="102.887" width="89.2687" height="89.2687" fill="#08090C" stroke="#161619" stroke-width="0.93967"/>
<rect x="535.72" y="102.887" width="89.2687" height="89.2687" fill="#08090C" stroke="#161619" stroke-width="0.93967"/>
<rect x="624.928" y="102.887" width="89.2687" height="89.2687" fill="#08090C" stroke="#161619" stroke-width="0.93967"/>
<rect x="714.137" y="102.887" width="89.2687" height="89.2687" fill="#08090C" stroke="#161619" stroke-width="0.93967"/>
<rect x="803.345" y="102.887" width="89.2687" height="89.2687" fill="#0F1015" stroke="#232329" stroke-width="0.93967"/>
<rect x="892.554" y="102.887" width="89.2687" height="89.2687" fill="#08090C" stroke="#161619" stroke-width="0.93967"/>
<rect x="981.762" y="102.887" width="89.2687" height="89.2687" fill="#08090C" stroke="#161619" stroke-width="0.93967"/>
<rect x="1070.97" y="102.887" width="89.2687" height="89.2687" fill="#08090C" stroke="#161619" stroke-width="0.93967"/>
<rect x="1160.18" y="102.887" width="89.2687" height="89.2687" fill="#08090C" stroke="#161619" stroke-width="0.93967"/>
<rect x="1249.39" y="102.887" width="89.2687" height="89.2687" fill="#08090C" stroke="#161619" stroke-width="0.93967"/>
<rect x="1338.6" y="102.887" width="89.2687" height="89.2687" fill="#08090C" stroke="#161619" stroke-width="0.93967"/>
<rect x="1427.8" y="102.887" width="89.2687" height="89.2687" fill="#08090C" stroke="#161619" stroke-width="0.93967"/>
<rect x="1517.01" y="102.887" width="89.2687" height="89.2687" fill="#08090C" stroke="#161619" stroke-width="0.93967"/>
<rect x="1606.22" y="102.887" width="89.2687" height="89.2687" fill="#08090C" stroke="#161619" stroke-width="0.93967"/>
<rect x="1695.43" y="102.887" width="89.2687" height="89.2687" fill="#08090C" stroke="#161619" stroke-width="0.93967"/>
<rect x="0.469835" y="193.095" width="89.2687" height="89.2687" fill="#08090C" stroke="#161619" stroke-width="0.93967"/>
<rect x="89.6782" y="193.095" width="89.2687" height="89.2687" fill="#08090C" stroke="#161619" stroke-width="0.93967"/>
<rect x="178.887" y="193.095" width="89.2687" height="89.2687" fill="#08090C" stroke="#161619" stroke-width="0.93967"/>
<rect x="268.095" y="193.095" width="89.2687" height="89.2687" fill="#08090C" stroke="#161619" stroke-width="0.93967"/>
<rect x="357.303" y="193.095" width="89.2687" height="89.2687" fill="#08090C" stroke="#161619" stroke-width="0.93967"/>
<rect x="446.512" y="193.095" width="89.2687" height="89.2687" fill="#08090C" stroke="#161619" stroke-width="0.93967"/>
<rect x="535.72" y="193.095" width="89.2687" height="89.2687" fill="#08090C" stroke="#161619" stroke-width="0.93967"/>
<rect x="624.928" y="193.095" width="89.2687" height="89.2687" fill="#08090C" stroke="#161619" stroke-width="0.93967"/>
<rect x="714.137" y="193.095" width="89.2687" height="89.2687" fill="#08090C" stroke="#161619" stroke-width="0.93967"/>
<rect x="803.345" y="193.095" width="89.2687" height="89.2687" fill="#08090C" stroke="#161619" stroke-width="0.93967"/>
<rect x="892.554" y="193.095" width="89.2687" height="89.2687" fill="#08090C" stroke="#161619" stroke-width="0.93967"/>
<rect x="981.762" y="193.095" width="89.2687" height="89.2687" fill="#08090C" stroke="#161619" stroke-width="0.93967"/>
<rect x="1070.97" y="193.095" width="89.2687" height="89.2687" fill="#08090C" stroke="#161619" stroke-width="0.93967"/>
<rect x="1160.18" y="193.095" width="89.2687" height="89.2687" fill="#0F1015" stroke="#232329" stroke-width="0.93967"/>
<rect x="1249.39" y="193.095" width="89.2687" height="89.2687" fill="#08090C" stroke="#161619" stroke-width="0.93967"/>
<rect x="1338.6" y="193.095" width="89.2687" height="89.2687" fill="#08090C" stroke="#161619" stroke-width="0.93967"/>
<rect x="1427.8" y="193.095" width="89.2687" height="89.2687" fill="#08090C" stroke="#161619" stroke-width="0.93967"/>
<rect x="1517.01" y="193.095" width="89.2687" height="89.2687" fill="#08090C" stroke="#161619" stroke-width="0.93967"/>
<rect x="1606.22" y="193.095" width="89.2687" height="89.2687" fill="#08090C" stroke="#161619" stroke-width="0.93967"/>
<rect x="1695.43" y="193.095" width="89.2687" height="89.2687" fill="#08090C" stroke="#161619" stroke-width="0.93967"/>
<rect x="0.469835" y="283.303" width="89.2687" height="89.2687" fill="#08090C" stroke="#161619" stroke-width="0.93967"/>
<rect x="89.6782" y="283.303" width="89.2687" height="89.2687" fill="#08090C" stroke="#161619" stroke-width="0.93967"/>
<rect x="178.887" y="283.303" width="89.2687" height="89.2687" fill="#08090C" stroke="#161619" stroke-width="0.93967"/>
<rect x="268.095" y="283.303" width="89.2687" height="89.2687" fill="#08090C" stroke="#161619" stroke-width="0.93967"/>
<rect x="357.303" y="283.303" width="89.2687" height="89.2687" fill="#08090C" stroke="#161619" stroke-width="0.93967"/>
<rect x="446.512" y="283.303" width="89.2687" height="89.2687" fill="#08090C" stroke="#161619" stroke-width="0.93967"/>
<rect x="535.72" y="283.303" width="89.2687" height="89.2687" fill="#0F1015" stroke="#232329" stroke-width="0.93967"/>
<rect x="624.928" y="283.303" width="89.2687" height="89.2687" fill="#08090C" stroke="#161619" stroke-width="0.93967"/>
<rect x="714.137" y="283.303" width="89.2687" height="89.2687" fill="#08090C" stroke="#161619" stroke-width="0.93967"/>
<rect x="803.345" y="283.303" width="89.2687" height="89.2687" fill="#08090C" stroke="#161619" stroke-width="0.93967"/>
<rect x="892.554" y="283.303" width="89.2687" height="89.2687" fill="#08090C" stroke="#161619" stroke-width="0.93967"/>
<rect x="981.762" y="283.303" width="89.2687" height="89.2687" fill="#08090C" stroke="#161619" stroke-width="0.93967"/>
<rect x="1070.97" y="283.303" width="89.2687" height="89.2687" fill="#0F1015" stroke="#232329" stroke-width="0.93967"/>
<rect x="1160.18" y="283.303" width="89.2687" height="89.2687" fill="#08090C" stroke="#161619" stroke-width="0.93967"/>
<rect x="1249.39" y="283.303" width="89.2687" height="89.2687" fill="#08090C" stroke="#161619" stroke-width="0.93967"/>
<rect x="1338.6" y="283.303" width="89.2687" height="89.2687" fill="#08090C" stroke="#161619" stroke-width="0.93967"/>
<rect x="1427.8" y="283.303" width="89.2687" height="89.2687" fill="#08090C" stroke="#161619" stroke-width="0.93967"/>
<rect x="1517.01" y="283.303" width="89.2687" height="89.2687" fill="#08090C" stroke="#161619" stroke-width="0.93967"/>
<rect x="1606.22" y="283.303" width="89.2687" height="89.2687" fill="#08090C" stroke="#161619" stroke-width="0.93967"/>
<rect x="1695.43" y="283.303" width="89.2687" height="89.2687" fill="#08090C" stroke="#161619" stroke-width="0.93967"/>
<rect x="0.469835" y="373.512" width="89.2687" height="89.2687" fill="#08090C" stroke="#161619" stroke-width="0.93967"/>
<rect x="89.6782" y="373.512" width="89.2687" height="89.2687" fill="#08090C" stroke="#161619" stroke-width="0.93967"/>
<rect x="178.887" y="373.512" width="89.2687" height="89.2687" fill="#08090C" stroke="#161619" stroke-width="0.93967"/>
<rect x="268.095" y="373.512" width="89.2687" height="89.2687" fill="#08090C" stroke="#161619" stroke-width="0.93967"/>
<rect x="357.303" y="373.512" width="89.2687" height="89.2687" fill="#08090C" stroke="#161619" stroke-width="0.93967"/>
<rect x="446.512" y="373.512" width="89.2687" height="89.2687" fill="#08090C" stroke="#161619" stroke-width="0.93967"/>
<rect x="535.72" y="373.512" width="89.2687" height="89.2687" fill="#08090C" stroke="#161619" stroke-width="0.93967"/>
<rect x="624.928" y="373.512" width="89.2687" height="89.2687" fill="#08090C" stroke="#161619" stroke-width="0.93967"/>
<rect x="714.137" y="373.512" width="89.2687" height="89.2687" fill="#08090C" stroke="#161619" stroke-width="0.93967"/>
<rect x="803.345" y="373.512" width="89.2687" height="89.2687" fill="#08090C" stroke="#161619" stroke-width="0.93967"/>
<rect x="892.554" y="373.512" width="89.2687" height="89.2687" fill="#08090C" stroke="#161619" stroke-width="0.93967"/>
<rect x="981.762" y="373.512" width="89.2687" height="89.2687" fill="#08090C" stroke="#161619" stroke-width="0.93967"/>
<rect x="1070.97" y="373.512" width="89.2687" height="89.2687" fill="#08090C" stroke="#161619" stroke-width="0.93967"/>
<rect x="1160.18" y="373.512" width="89.2687" height="89.2687" fill="#08090C" stroke="#161619" stroke-width="0.93967"/>
<rect x="1249.39" y="373.512" width="89.2687" height="89.2687" fill="#08090C" stroke="#161619" stroke-width="0.93967"/>
<rect x="1338.6" y="373.512" width="89.2687" height="89.2687" fill="#0F1015" stroke="#232329" stroke-width="0.93967"/>
<rect x="1427.8" y="373.512" width="89.2687" height="89.2687" fill="#08090C" stroke="#161619" stroke-width="0.93967"/>
<rect x="1517.01" y="373.512" width="89.2687" height="89.2687" fill="#08090C" stroke="#161619" stroke-width="0.93967"/>
<rect x="1606.22" y="373.512" width="89.2687" height="89.2687" fill="#08090C" stroke="#161619" stroke-width="0.93967"/>
<rect x="1695.43" y="373.512" width="89.2687" height="89.2687" fill="#08090C" stroke="#161619" stroke-width="0.93967"/>
<rect x="0.469835" y="463.72" width="89.2687" height="89.2687" fill="#08090C" stroke="#161619" stroke-width="0.93967"/>
<rect x="89.6782" y="463.72" width="89.2687" height="89.2687" fill="#08090C" stroke="#161619" stroke-width="0.93967"/>
<rect x="178.887" y="463.72" width="89.2687" height="89.2687" fill="#08090C" stroke="#161619" stroke-width="0.93967"/>
<rect x="268.095" y="463.72" width="89.2687" height="89.2687" fill="#0F1015" stroke="#232329" stroke-width="0.93967"/>
<rect x="357.303" y="463.72" width="89.2687" height="89.2687" fill="#08090C" stroke="#161619" stroke-width="0.93967"/>
<rect x="446.512" y="463.72" width="89.2687" height="89.2687" fill="#08090C" stroke="#161619" stroke-width="0.93967"/>
<rect x="535.72" y="463.72" width="89.2687" height="89.2687" fill="#08090C" stroke="#161619" stroke-width="0.93967"/>
<rect x="624.928" y="463.72" width="89.2687" height="89.2687" fill="#08090C" stroke="#161619" stroke-width="0.93967"/>
<rect x="714.137" y="463.72" width="89.2687" height="89.2687" fill="#08090C" stroke="#161619" stroke-width="0.93967"/>
<rect x="803.345" y="463.72" width="89.2687" height="89.2687" fill="#08090C" stroke="#161619" stroke-width="0.93967"/>
<rect x="892.554" y="463.72" width="89.2687" height="89.2687" fill="#0F1015" stroke="#232329" stroke-width="0.93967"/>
<rect x="981.762" y="463.72" width="89.2687" height="89.2687" fill="#08090C" stroke="#161619" stroke-width="0.93967"/>
<rect x="1070.97" y="463.72" width="89.2687" height="89.2687" fill="#08090C" stroke="#161619" stroke-width="0.93967"/>
<rect x="1160.18" y="463.72" width="89.2687" height="89.2687" fill="#08090C" stroke="#161619" stroke-width="0.93967"/>
<rect x="1249.39" y="463.72" width="89.2687" height="89.2687" fill="#08090C" stroke="#161619" stroke-width="0.93967"/>
<rect x="1338.6" y="463.72" width="89.2687" height="89.2687" fill="#08090C" stroke="#161619" stroke-width="0.93967"/>
<rect x="1427.8" y="463.72" width="89.2687" height="89.2687" fill="#08090C" stroke="#161619" stroke-width="0.93967"/>
<rect x="1517.01" y="463.72" width="89.2687" height="89.2687" fill="#08090C" stroke="#161619" stroke-width="0.93967"/>
<rect x="1606.22" y="463.72" width="89.2687" height="89.2687" fill="#0F1015" stroke="#232329" stroke-width="0.93967"/>
<rect x="1695.43" y="463.72" width="89.2687" height="89.2687" fill="#08090C" stroke="#161619" stroke-width="0.93967"/>
<rect x="0.469835" y="553.929" width="89.2687" height="89.2687" fill="#08090C" stroke="#161619" stroke-width="0.93967"/>
<rect x="89.6782" y="553.929" width="89.2687" height="89.2687" fill="#08090C" stroke="#161619" stroke-width="0.93967"/>
<rect x="178.887" y="553.929" width="89.2687" height="89.2687" fill="#08090C" stroke="#161619" stroke-width="0.93967"/>
<rect x="268.095" y="553.929" width="89.2687" height="89.2687" fill="#08090C" stroke="#161619" stroke-width="0.93967"/>
<rect x="357.303" y="553.929" width="89.2687" height="89.2687" fill="#08090C" stroke="#161619" stroke-width="0.93967"/>
<rect x="446.512" y="553.929" width="89.2687" height="89.2687" fill="#08090C" stroke="#161619" stroke-width="0.93967"/>
<rect x="535.72" y="553.929" width="89.2687" height="89.2687" fill="#08090C" stroke="#161619" stroke-width="0.93967"/>
<rect x="624.928" y="553.929" width="89.2687" height="89.2687" fill="#08090C" stroke="#161619" stroke-width="0.93967"/>
<rect x="714.137" y="553.929" width="89.2687" height="89.2687" fill="#08090C" stroke="#161619" stroke-width="0.93967"/>
<rect x="803.345" y="553.929" width="89.2687" height="89.2687" fill="#08090C" stroke="#161619" stroke-width="0.93967"/>
<rect x="892.554" y="553.929" width="89.2687" height="89.2687" fill="#08090C" stroke="#161619" stroke-width="0.93967"/>
<rect x="981.762" y="553.929" width="89.2687" height="89.2687" fill="#08090C" stroke="#161619" stroke-width="0.93967"/>
<rect x="1070.97" y="553.929" width="89.2687" height="89.2687" fill="#08090C" stroke="#161619" stroke-width="0.93967"/>
<rect x="1160.18" y="553.929" width="89.2687" height="89.2687" fill="#08090C" stroke="#161619" stroke-width="0.93967"/>
<rect x="1249.39" y="553.929" width="89.2687" height="89.2687" fill="#08090C" stroke="#161619" stroke-width="0.93967"/>
<rect x="1338.6" y="553.929" width="89.2687" height="89.2687" fill="#08090C" stroke="#161619" stroke-width="0.93967"/>
<rect x="1427.8" y="553.929" width="89.2687" height="89.2687" fill="#08090C" stroke="#161619" stroke-width="0.93967"/>
<rect x="1517.01" y="553.929" width="89.2687" height="89.2687" fill="#08090C" stroke="#161619" stroke-width="0.93967"/>
<rect x="1606.22" y="553.929" width="89.2687" height="89.2687" fill="#08090C" stroke="#161619" stroke-width="0.93967"/>
<rect x="1695.43" y="553.929" width="89.2687" height="89.2687" fill="#08090C" stroke="#161619" stroke-width="0.93967"/>
<rect x="0.469835" y="644.137" width="89.2687" height="89.2687" fill="#08090C" stroke="#161619" stroke-width="0.93967"/>
<rect x="89.6782" y="644.137" width="89.2687" height="89.2687" fill="#08090C" stroke="#161619" stroke-width="0.93967"/>
<rect x="178.887" y="644.137" width="89.2687" height="89.2687" fill="#08090C" stroke="#161619" stroke-width="0.93967"/>
<rect x="268.095" y="644.137" width="89.2687" height="89.2687" fill="#08090C" stroke="#161619" stroke-width="0.93967"/>
<rect x="357.303" y="644.137" width="89.2687" height="89.2687" fill="#08090C" stroke="#161619" stroke-width="0.93967"/>
<rect x="446.512" y="644.137" width="89.2687" height="89.2687" fill="#08090C" stroke="#161619" stroke-width="0.93967"/>
<rect x="535.72" y="644.137" width="89.2687" height="89.2687" fill="#0F1015" stroke="#232329" stroke-width="0.93967"/>
<rect x="624.928" y="644.137" width="89.2687" height="89.2687" fill="#08090C" stroke="#161619" stroke-width="0.93967"/>
<rect x="714.137" y="644.137" width="89.2687" height="89.2687" fill="#08090C" stroke="#161619" stroke-width="0.93967"/>
<rect x="803.345" y="644.137" width="89.2687" height="89.2687" fill="#08090C" stroke="#161619" stroke-width="0.93967"/>
<rect x="892.554" y="644.137" width="89.2687" height="89.2687" fill="#08090C" stroke="#161619" stroke-width="0.93967"/>
<rect x="981.762" y="644.137" width="89.2687" height="89.2687" fill="#08090C" stroke="#161619" stroke-width="0.93967"/>
<rect x="1070.97" y="644.137" width="89.2687" height="89.2687" fill="#08090C" stroke="#161619" stroke-width="0.93967"/>
<rect x="1160.18" y="644.137" width="89.2687" height="89.2687" fill="#08090C" stroke="#161619" stroke-width="0.93967"/>
<rect x="1249.39" y="644.137" width="89.2687" height="89.2687" fill="#0F1015" stroke="#232329" stroke-width="0.93967"/>
<rect x="1338.6" y="644.137" width="89.2687" height="89.2687" fill="#08090C" stroke="#161619" stroke-width="0.93967"/>
<rect x="1427.8" y="644.137" width="89.2687" height="89.2687" fill="#08090C" stroke="#161619" stroke-width="0.93967"/>
<rect x="1517.01" y="644.137" width="89.2687" height="89.2687" fill="#08090C" stroke="#161619" stroke-width="0.93967"/>
<rect x="1606.22" y="644.137" width="89.2687" height="89.2687" fill="#08090C" stroke="#161619" stroke-width="0.93967"/>
<rect x="1695.43" y="644.137" width="89.2687" height="89.2687" fill="#08090C" stroke="#161619" stroke-width="0.93967"/>
<rect x="0.469835" y="734.345" width="89.2687" height="89.2687" fill="#08090C" stroke="#161619" stroke-width="0.93967"/>
<rect x="89.6782" y="734.345" width="89.2687" height="89.2687" fill="#08090C" stroke="#161619" stroke-width="0.93967"/>
<rect x="178.887" y="734.345" width="89.2687" height="89.2687" fill="#08090C" stroke="#161619" stroke-width="0.93967"/>
<rect x="268.095" y="734.345" width="89.2687" height="89.2687" fill="#08090C" stroke="#161619" stroke-width="0.93967"/>
<rect x="357.303" y="734.345" width="89.2687" height="89.2687" fill="#08090C" stroke="#161619" stroke-width="0.93967"/>
<rect x="446.512" y="734.345" width="89.2687" height="89.2687" fill="#08090C" stroke="#161619" stroke-width="0.93967"/>
<rect x="535.72" y="734.345" width="89.2687" height="89.2687" fill="#08090C" stroke="#161619" stroke-width="0.93967"/>
<rect x="624.928" y="734.345" width="89.2687" height="89.2687" fill="#08090C" stroke="#161619" stroke-width="0.93967"/>
<rect x="714.137" y="734.345" width="89.2687" height="89.2687" fill="#08090C" stroke="#161619" stroke-width="0.93967"/>
<rect x="803.345" y="734.345" width="89.2687" height="89.2687" fill="#08090C" stroke="#161619" stroke-width="0.93967"/>
<rect x="892.554" y="734.345" width="89.2687" height="89.2687" fill="#08090C" stroke="#161619" stroke-width="0.93967"/>
<rect x="981.762" y="734.345" width="89.2687" height="89.2687" fill="#08090C" stroke="#161619" stroke-width="0.93967"/>
<rect x="1070.97" y="734.345" width="89.2687" height="89.2687" fill="#08090C" stroke="#161619" stroke-width="0.93967"/>
<rect x="1160.18" y="734.345" width="89.2687" height="89.2687" fill="#08090C" stroke="#161619" stroke-width="0.93967"/>
<rect x="1249.39" y="734.345" width="89.2687" height="89.2687" fill="#08090C" stroke="#161619" stroke-width="0.93967"/>
<rect x="1338.6" y="734.345" width="89.2687" height="89.2687" fill="#08090C" stroke="#161619" stroke-width="0.93967"/>
<rect x="1427.8" y="734.345" width="89.2687" height="89.2687" fill="#08090C" stroke="#161619" stroke-width="0.93967"/>
<rect x="1517.01" y="734.345" width="89.2687" height="89.2687" fill="#08090C" stroke="#161619" stroke-width="0.93967"/>
<rect x="1606.22" y="734.345" width="89.2687" height="89.2687" fill="#08090C" stroke="#161619" stroke-width="0.93967"/>
<rect x="1695.43" y="734.345" width="89.2687" height="89.2687" fill="#08090C" stroke="#161619" stroke-width="0.93967"/>
<rect x="0.469835" y="824.554" width="89.2687" height="89.2687" fill="#08090C" stroke="#161619" stroke-width="0.93967"/>
<rect x="89.6782" y="824.554" width="89.2687" height="89.2687" fill="#08090C" stroke="#161619" stroke-width="0.93967"/>
<rect x="178.887" y="824.554" width="89.2687" height="89.2687" fill="#08090C" stroke="#161619" stroke-width="0.93967"/>
<rect x="268.095" y="824.554" width="89.2687" height="89.2687" fill="#08090C" stroke="#161619" stroke-width="0.93967"/>
<rect x="357.303" y="824.554" width="89.2687" height="89.2687" fill="#0F1015" stroke="#232329" stroke-width="0.93967"/>
<rect x="446.512" y="824.554" width="89.2687" height="89.2687" fill="#08090C" stroke="#161619" stroke-width="0.93967"/>
<rect x="535.72" y="824.554" width="89.2687" height="89.2687" fill="#08090C" stroke="#161619" stroke-width="0.93967"/>
<rect x="624.928" y="824.554" width="89.2687" height="89.2687" fill="#08090C" stroke="#161619" stroke-width="0.93967"/>
<rect x="714.137" y="824.554" width="89.2687" height="89.2687" fill="#08090C" stroke="#161619" stroke-width="0.93967"/>
<rect x="803.345" y="824.554" width="89.2687" height="89.2687" fill="#08090C" stroke="#161619" stroke-width="0.93967"/>
<rect x="892.554" y="824.554" width="89.2687" height="89.2687" fill="#08090C" stroke="#161619" stroke-width="0.93967"/>
<rect x="981.762" y="824.554" width="89.2687" height="89.2687" fill="#0F1015" stroke="#232329" stroke-width="0.93967"/>
<rect x="1070.97" y="824.554" width="89.2687" height="89.2687" fill="#08090C" stroke="#161619" stroke-width="0.93967"/>
<rect x="1160.18" y="824.554" width="89.2687" height="89.2687" fill="#08090C" stroke="#161619" stroke-width="0.93967"/>
<rect x="1249.39" y="824.554" width="89.2687" height="89.2687" fill="#08090C" stroke="#161619" stroke-width="0.93967"/>
<rect x="1338.6" y="824.554" width="89.2687" height="89.2687" fill="#08090C" stroke="#161619" stroke-width="0.93967"/>
<rect x="1427.8" y="824.554" width="89.2687" height="89.2687" fill="#0F1015" stroke="#232329" stroke-width="0.93967"/>
<rect x="1517.01" y="824.554" width="89.2687" height="89.2687" fill="#08090C" stroke="#161619" stroke-width="0.93967"/>
<rect x="1606.22" y="824.554" width="89.2687" height="89.2687" fill="#08090C" stroke="#161619" stroke-width="0.93967"/>
<rect x="1695.43" y="824.554" width="89.2687" height="89.2687" fill="#08090C" stroke="#161619" stroke-width="0.93967"/>
<rect x="0.469835" y="914.762" width="89.2687" height="89.2687" fill="#08090C" stroke="#161619" stroke-width="0.93967"/>
<rect x="89.6782" y="914.762" width="89.2687" height="89.2687" fill="#08090C" stroke="#161619" stroke-width="0.93967"/>
<rect x="178.887" y="914.762" width="89.2687" height="89.2687" fill="#08090C" stroke="#161619" stroke-width="0.93967"/>
<rect x="268.095" y="914.762" width="89.2687" height="89.2687" fill="#08090C" stroke="#161619" stroke-width="0.93967"/>
<rect x="357.303" y="914.762" width="89.2687" height="89.2687" fill="#08090C" stroke="#161619" stroke-width="0.93967"/>
<rect x="446.512" y="914.762" width="89.2687" height="89.2687" fill="#08090C" stroke="#161619" stroke-width="0.93967"/>
<rect x="535.72" y="914.762" width="89.2687" height="89.2687" fill="#08090C" stroke="#161619" stroke-width="0.93967"/>
<rect x="624.928" y="914.762" width="89.2687" height="89.2687" fill="#08090C" stroke="#161619" stroke-width="0.93967"/>
<rect x="714.137" y="914.762" width="89.2687" height="89.2687" fill="#0F1015" stroke="#232329" stroke-width="0.93967"/>
<rect x="803.345" y="914.762" width="89.2687" height="89.2687" fill="#08090C" stroke="#161619" stroke-width="0.93967"/>
<rect x="892.554" y="914.762" width="89.2687" height="89.2687" fill="#08090C" stroke="#161619" stroke-width="0.93967"/>
<rect x="981.762" y="914.762" width="89.2687" height="89.2687" fill="#08090C" stroke="#161619" stroke-width="0.93967"/>
<rect x="1070.97" y="914.762" width="89.2687" height="89.2687" fill="#08090C" stroke="#161619" stroke-width="0.93967"/>
<rect x="1160.18" y="914.762" width="89.2687" height="89.2687" fill="#08090C" stroke="#161619" stroke-width="0.93967"/>
<rect x="1249.39" y="914.762" width="89.2687" height="89.2687" fill="#08090C" stroke="#161619" stroke-width="0.93967"/>
<rect x="1338.6" y="914.762" width="89.2687" height="89.2687" fill="#08090C" stroke="#161619" stroke-width="0.93967"/>
<rect x="1427.8" y="914.762" width="89.2687" height="89.2687" fill="#08090C" stroke="#161619" stroke-width="0.93967"/>
<rect x="1517.01" y="914.762" width="89.2687" height="89.2687" fill="#08090C" stroke="#161619" stroke-width="0.93967"/>
<rect x="1606.22" y="914.762" width="89.2687" height="89.2687" fill="#0F1015" stroke="#232329" stroke-width="0.93967"/>
<rect x="1695.43" y="914.762" width="89.2687" height="89.2687" fill="#08090C" stroke="#161619" stroke-width="0.93967"/>
<rect x="0.469835" y="1004.97" width="89.2687" height="89.2687" fill="#08090C" stroke="#161619" stroke-width="0.93967"/>
<rect x="89.6782" y="1004.97" width="89.2687" height="89.2687" fill="#0F1015" stroke="#232329" stroke-width="0.93967"/>
<rect x="178.887" y="1004.97" width="89.2687" height="89.2687" fill="#08090C" stroke="#161619" stroke-width="0.93967"/>
<rect x="268.095" y="1004.97" width="89.2687" height="89.2687" fill="#08090C" stroke="#161619" stroke-width="0.93967"/>
<rect x="357.303" y="1004.97" width="89.2687" height="89.2687" fill="#08090C" stroke="#161619" stroke-width="0.93967"/>
<rect x="446.512" y="1004.97" width="89.2687" height="89.2687" fill="#08090C" stroke="#161619" stroke-width="0.93967"/>
<rect x="535.72" y="1004.97" width="89.2687" height="89.2687" fill="#08090C" stroke="#161619" stroke-width="0.93967"/>
<rect x="624.928" y="1004.97" width="89.2687" height="89.2687" fill="#08090C" stroke="#161619" stroke-width="0.93967"/>
<rect x="714.137" y="1004.97" width="89.2687" height="89.2687" fill="#08090C" stroke="#161619" stroke-width="0.93967"/>
<rect x="803.345" y="1004.97" width="89.2687" height="89.2687" fill="#08090C" stroke="#161619" stroke-width="0.93967"/>
<rect x="892.554" y="1004.97" width="89.2687" height="89.2687" fill="#08090C" stroke="#161619" stroke-width="0.93967"/>
<rect x="981.762" y="1004.97" width="89.2687" height="89.2687" fill="#0F1015" stroke="#232329" stroke-width="0.93967"/>
<rect x="1070.97" y="1004.97" width="89.2687" height="89.2687" fill="#08090C" stroke="#161619" stroke-width="0.93967"/>
<rect x="1160.18" y="1004.97" width="89.2687" height="89.2687" fill="#08090C" stroke="#161619" stroke-width="0.93967"/>
<rect x="1249.39" y="1004.97" width="89.2687" height="89.2687" fill="#0F1015" stroke="#232329" stroke-width="0.93967"/>
<rect x="1338.6" y="1004.97" width="89.2687" height="89.2687" fill="#08090C" stroke="#161619" stroke-width="0.93967"/>
<rect x="1427.8" y="1004.97" width="89.2687" height="89.2687" fill="#08090C" stroke="#161619" stroke-width="0.93967"/>
<rect x="1517.01" y="1004.97" width="89.2687" height="89.2687" fill="#08090C" stroke="#161619" stroke-width="0.93967"/>
<rect x="1606.22" y="1004.97" width="89.2687" height="89.2687" fill="#08090C" stroke="#161619" stroke-width="0.93967"/>
<rect x="1695.43" y="1004.97" width="89.2687" height="89.2687" fill="#08090C" stroke="#161619" stroke-width="0.93967"/>
</g>
</svg>
