<svg width="65" height="20" viewBox="0 0 65 20" fill="none" xmlns="http://www.w3.org/2000/svg">
<path fill-rule="evenodd" clip-rule="evenodd" d="M0.138428 0.566406H4.48989V17.5626H0.138428V0.566406Z" fill="#296CAE"/>
<path d="M7.34705 17.5626V4.92691H11.3269V6.10219C11.8391 5.60887 12.417 5.24041 13.0607 4.99748C13.705 4.75455 14.4285 4.63308 15.2304 4.63308C16.6639 4.63308 17.7301 5.06805 18.4295 5.93798C19.1297 6.80723 19.4794 8.13994 19.4794 9.93408V17.5626H15.4989V10.122C15.4989 9.26841 15.3428 8.64141 15.0291 8.24173C14.7154 7.84205 14.2201 7.64187 13.5418 7.64187C12.7435 7.64187 12.1747 7.82848 11.8356 8.20033C11.4964 8.57287 11.3269 9.21344 11.3269 10.122V17.5626H7.34705ZM22.3903 17.5626V7.54823H20.3682V5.23226H22.3903C22.3649 4.97373 22.35 4.78576 22.3458 4.66837C22.3408 4.5503 22.3394 4.44512 22.3394 4.3508C22.3394 3.0113 22.6793 2.04501 23.3589 1.4533C24.0386 0.862263 25.1521 0.566406 26.6994 0.566406C27.0385 0.566406 27.3854 0.585406 27.738 0.624763C28.0905 0.664121 28.4579 0.726549 28.8408 0.812728V3.4578H28.1753C27.4412 3.4578 26.9573 3.54398 26.7227 3.71633C26.4874 3.88869 26.3708 4.23341 26.3708 4.75048V5.23226H28.8408V7.54823H26.3708V17.5626H22.3903ZM32.9994 11.2505C32.9994 12.4027 33.275 13.3174 33.8254 13.9953C34.3757 14.6732 35.1112 15.0118 36.0332 15.0118C36.9545 15.0118 37.6922 14.6712 38.2468 13.9892C38.8014 13.3073 39.0784 12.3946 39.0784 11.2505C39.0784 10.0983 38.8035 9.18155 38.2531 8.50026C37.7028 7.8183 36.9623 7.47766 36.0332 7.47766C35.1197 7.47766 34.3863 7.82237 33.8317 8.5118C33.2771 9.20123 32.9994 10.1146 32.9994 11.2505ZM36.0332 17.9738C33.8995 17.9738 32.1827 17.359 30.8813 16.1281C29.5806 14.8985 28.9299 13.272 28.9299 11.2505C28.9299 9.23651 29.5827 7.61066 30.8883 6.37226C32.1933 5.13455 33.908 4.51569 36.0332 4.51569C38.1825 4.51569 39.9085 5.13251 41.2092 6.36683C42.5106 7.60116 43.1613 9.22837 43.1613 11.2505C43.1613 13.2645 42.5064 14.8883 41.1965 16.1227C39.8873 17.357 38.1655 17.9738 36.0332 17.9738Z" fill="#296CAE"/>
<path d="M53.7153 14.4124C55.1256 14.4124 56.2256 13.9449 57.0162 13.0085C57.8061 12.072 58.201 10.7651 58.201 9.08835C58.201 7.4116 57.804 6.1006 57.0091 5.15671C56.2143 4.21214 55.1171 3.73985 53.7153 3.73985C52.3228 3.73985 51.227 4.21621 50.4286 5.16825C49.6295 6.12028 49.2303 7.42721 49.2303 9.08835C49.2303 10.7495 49.6274 12.0524 50.4215 12.9962C51.2164 13.9408 52.3143 14.4124 53.7153 14.4124ZM58.4187 16.9164C57.7609 17.2611 57.0353 17.5237 56.2412 17.7042C55.447 17.884 54.6056 17.9742 53.7175 17.9742C50.9931 17.9742 48.8135 17.1674 47.1779 15.5531C45.543 13.9388 44.7249 11.7836 44.7249 9.08835C44.7249 7.61518 44.9743 6.29671 45.4745 5.13296C45.974 3.96921 46.7187 2.97578 47.7092 2.15335C48.5033 1.49514 49.402 1.00114 50.4053 0.672032C51.4085 0.342925 52.5114 0.178711 53.7153 0.178711C56.4305 0.178711 58.608 0.989604 60.2471 2.61207C61.8863 4.23385 62.7058 6.39239 62.7058 9.08835C62.7058 10.2168 62.5695 11.2374 62.2968 12.1501C62.0233 13.0634 61.6015 13.8879 61.0293 14.6241C61.5415 15.055 62.1003 15.3984 62.7058 15.6529C63.312 15.9073 63.9606 16.0702 64.6516 16.1407L63.3205 19.1733C62.3137 19.079 61.3988 18.8421 60.5757 18.4621C59.7519 18.0815 59.0333 17.5664 58.4187 16.9164Z" fill="#1E8D44"/>
<path d="M61.0293 14.6237C61.6008 13.8874 62.0233 13.0623 62.2968 12.1496C62.4275 11.7133 62.5243 11.2505 62.5921 10.7646C61.0342 10.84 59.5025 10.9126 57.9926 10.9818C57.8005 11.7825 57.4776 12.4604 57.0155 13.008C56.2256 13.9444 55.1249 14.412 53.7154 14.412C52.3143 14.412 51.2164 13.9404 50.4215 12.9958C50.0301 12.531 49.7369 11.9786 49.5384 11.3401C48.0038 11.3984 46.4883 11.452 44.9849 11.5002C45.341 13.0996 46.0658 14.454 47.1779 15.5526C48.8135 17.167 50.9931 17.9738 53.7175 17.9738C54.6056 17.9738 55.447 17.8835 56.2412 17.703C57.0353 17.5232 57.7609 17.2606 58.4187 16.9159C59.0333 17.566 59.7519 18.081 60.5757 18.4617C61.3981 18.8417 62.3137 19.0785 63.3205 19.1728L64.6509 16.1403C63.9606 16.0697 63.312 15.9069 62.7058 15.6524C62.1004 15.3979 61.5415 15.0546 61.0293 14.6237Z" fill="#198643"/>
<path d="M38.2468 13.9896C37.6922 14.6716 36.9546 15.0122 36.0333 15.0122C35.1113 15.0122 34.3758 14.6736 33.8254 13.995C33.3605 13.4223 33.0941 12.6786 33.0221 11.7673C31.6655 11.7822 30.309 11.791 28.9525 11.7937C29.0606 13.5641 29.7 15.0115 30.8813 16.1284C32.1827 17.3594 33.9003 17.9742 36.0333 17.9742C38.1655 17.9742 39.8873 17.3573 41.1965 16.123C42.4379 14.9532 43.0836 13.4284 43.1486 11.5576C41.7794 11.5976 40.4186 11.6343 39.0657 11.6648C39.0056 12.6175 38.7329 13.3925 38.2468 13.9896ZM22.3903 17.563H26.3709V11.7917C25.049 11.787 23.7235 11.7761 22.3903 11.7585V17.563ZM7.34707 17.563H11.3269V11.4612C10.0149 11.4083 8.68946 11.35 7.34707 11.2835V17.563ZM15.4989 17.563H19.4795V11.7089C18.1618 11.6818 16.8371 11.6499 15.4989 11.6092V17.563ZM0.138428 17.563H4.48989V11.1321C3.05989 11.0514 1.61223 10.9645 0.138428 10.8682V17.563Z" fill="#2066A9"/>
</svg>
