<svg width="148" height="58" viewBox="0 0 148 58" fill="none" xmlns="http://www.w3.org/2000/svg">
<path d="M28.6621 0C44.499 0.000232031 57.3229 12.8397 57.3232 28.6611C57.3232 44.4983 44.4837 57.323 28.6621 57.3232C12.8249 57.3232 4.02387e-05 44.4986 0 28.6768C0.000241142 12.8397 12.825 0 28.6621 0ZM72.7744 34.8574C76.8534 34.8574 80.6542 35.4911 80.9014 38.4268C81.1949 41.8414 77.2398 44.8075 72.6973 44.8076C68.1547 44.8076 64.4775 41.9646 64.4775 38.4727C64.4776 38.3029 64.4924 38.1483 64.5078 37.9785H67.4746C67.4592 38.1021 67.4434 38.226 67.4434 38.3496C67.4435 40.1573 69.9318 42.0732 72.7129 42.0732C76.2355 42.0731 78.1667 40.0795 77.9658 38.3027C77.7647 36.526 75.5554 34.8884 72.7744 34.8574ZM40.7754 18.834C38.8596 18.8958 36.9127 20.1791 36.001 22.0947V19.2822H32.8184V44.6992H36.001V29.0654C36.0048 29.1545 36.0082 29.243 36.0137 29.3301C36.1845 36.0784 38.3017 37.8458 40.7754 38.0088C45.1479 38.3022 48.7177 33.7292 48.7178 28.4297C48.7176 23.1303 45.1478 18.6796 40.7754 18.834ZM97.8818 18.9121C102.718 18.9121 106.411 22.4971 106.411 28.7393C106.411 34.9658 102.811 38.5191 97.8818 38.5654C92.9532 38.5189 89.3536 34.9966 89.3535 28.7393C89.3535 22.4818 93.0613 18.9123 97.8818 18.9121ZM138.192 24.3164C138.16 28.1475 136.594 28.6923 135.737 28.6924H133.45C131.596 28.6925 129.604 29.697 129.604 32.3545C129.604 34.2394 131.086 35.7841 133.45 35.7842C135.83 35.7842 138.194 34.255 138.194 32.3545C138.194 37.4376 135.212 38.5507 133.234 38.5508C129.511 38.5508 126.436 35.97 126.436 32.3545C126.436 28.5382 129.603 26.1583 133.45 26.1582H136.278C137.318 26.158 138.131 25.371 138.192 24.3164ZM112.112 12.6543V28.9248C112.112 21.4313 114.306 19.5302 116.887 19.3447C121.259 19.0512 124.829 23.6245 124.829 28.9395C124.829 34.2391 121.259 38.6897 116.887 38.5352C114.971 38.4733 113.024 37.2057 112.112 35.2744V38.0869H108.93V12.6543H112.112ZM86.835 12.7012V38.1328H83.6514V12.7012H86.835ZM147.712 12.7012V38.1328H144.528V12.7012H147.712ZM134.362 18.9121C137.7 18.9122 141.377 20.5501 141.377 24.2119V38.1025H138.194V24.292C138.198 24.2101 138.2 24.1268 138.194 24.042C138.086 22.2807 136.541 21.6778 134.362 21.6777C132.833 21.6777 131.488 22.3115 130.932 23.6094H127.61C128.846 19.6076 132.168 18.9121 134.362 18.9121ZM23.501 19.3135H20.3184V21.8623H20.7822C20.9275 21.8625 23.5007 21.9442 23.501 24.5361V33.4668C23.501 33.961 23.579 34.44 23.7334 34.9033C24.1815 36.2939 25.294 37.4064 26.6846 37.8545C27.1325 38.0089 27.6114 38.0859 28.1211 38.0859H29.8672V34.9033H28.0752C27.3337 34.9033 26.6848 34.2547 26.6846 33.4668V24.7676C26.6842 22.4041 23.5472 21.9398 21.8477 21.8779H29.8672V19.3135H26.6846V12.6387H23.501V19.3135ZM9.82715 38.04H13.0098V19.2822H9.82715V38.04ZM97.8818 21.6318C94.8073 21.6784 92.3662 24.5057 92.3662 28.7236C92.3663 33.2659 94.8845 35.7843 97.8818 35.8154C100.895 35.7845 103.398 33.2661 103.398 28.7236C103.398 24.4746 100.941 21.6782 97.8818 21.6318ZM116.887 22.0488C114.245 22.049 112.112 24.1815 112.112 28.9248C112.112 33.6678 114.26 35.7997 116.887 35.7998C119.513 35.7998 121.661 32.7564 121.661 28.9248C121.661 25.093 119.513 22.0488 116.887 22.0488ZM40.7598 21.5537C43.4017 21.5539 45.534 24.5827 45.5342 28.4297C45.5341 32.2768 43.4017 35.3045 40.7598 35.3047C38.3057 35.3046 36.2704 33.4435 36.0137 29.3301C36.0063 29.0394 36.001 28.7391 36.001 28.4297V29.0654C35.9921 28.8591 35.9854 28.6469 35.9854 28.4297C35.9855 23.6867 38.1178 21.5538 40.7598 21.5537ZM81.0254 19.3906L78.6611 21.7549C80.1135 23.1609 81.0254 25.0924 81.0254 27.2246C81.0254 31.4581 77.3634 34.8571 72.79 34.8418C71.4149 34.8418 69.5912 34.6261 67.7217 33.4209C65.6358 32.0612 64.2764 29.8358 64.2764 27.2246C64.2764 22.8985 68.0307 19.3761 72.6504 19.376C73.9018 19.376 75.0765 19.6225 76.1426 20.0859L78.9395 17.29L81.0254 19.3906ZM72.666 22.0947C69.7922 22.0948 67.4747 24.6444 67.4746 27.2246C67.4746 29.8049 69.8076 32.3544 72.666 32.3545C75.5245 32.3545 77.8574 29.8049 77.8574 27.2246C77.8573 24.6443 75.5244 22.0947 72.666 22.0947ZM16.9805 18.8496C15.0184 18.85 13.01 21.5234 13.0098 26.2197C13.01 24.026 14.1381 21.801 16.9805 21.8008C18.5993 21.8008 19.4652 22.2316 19.4688 22.2334V19.2979C18.6963 19.0043 17.8611 18.8496 16.9805 18.8496ZM138.194 24.292C138.194 24.3002 138.193 24.3083 138.192 24.3164C138.193 24.2767 138.194 24.2367 138.194 24.1963V24.292Z" fill="currentColor"/>
</svg>
