<svg width="568" height="420" viewBox="0 0 568 420" fill="none" xmlns="http://www.w3.org/2000/svg">
<rect x="48.1309" y="65" width="94.1855" height="94.1855" rx="11.7732" fill="white" fill-opacity="0.1"/>
<rect x="48.8667" y="65.7358" width="92.7139" height="92.7139" rx="11.0374" stroke="#B8B6D9" stroke-opacity="0.2" stroke-width="1.47165"/>
<g filter="url(#filter0_d_95_93)">
<path d="M95.2237 88.0938C83.437 88.0938 73.8904 92.8671 73.8904 98.7604V125.427C73.8904 131.32 83.4637 136.094 95.2237 136.094C106.984 136.094 116.557 131.32 116.557 125.427V98.7604C116.557 92.8671 107.01 88.0938 95.2237 88.0938ZM111.224 125.427C111.224 126.76 105.544 130.76 95.2237 130.76C84.9037 130.76 79.2237 126.76 79.2237 125.427V119.48C83.517 121.56 89.1437 122.76 95.2237 122.76C101.304 122.76 106.93 121.56 111.224 119.48V125.427ZM111.224 113.294C107.757 115.827 101.677 117.427 95.2237 117.427C88.7704 117.427 82.6904 115.827 79.2237 113.294V105.8C83.1437 108.014 88.8504 109.427 95.2237 109.427C101.597 109.427 107.304 108.014 111.224 105.8V113.294ZM95.2237 104.094C84.9037 104.094 79.2237 100.094 79.2237 98.7604C79.2237 97.4271 84.9037 93.4271 95.2237 93.4271C105.544 93.4271 111.224 97.4271 111.224 98.7604C111.224 100.094 105.544 104.094 95.2237 104.094Z" fill="white"/>
</g>
<g clip-path="url(#clip0_95_93)">
<rect x="382.566" y="197.051" width="122" height="116" rx="11.7732" fill="white" fill-opacity="0.1"/>
<g filter="url(#filter1_d_95_93)">
<path d="M470.206 272.731C473.566 267.691 475.566 261.611 475.566 255.051C475.566 237.371 461.246 223.051 443.566 223.051V211.051L425.566 229.051L443.566 247.051V235.051C454.606 235.051 463.566 244.011 463.566 255.051C463.566 258.251 462.846 261.291 461.486 264.011L470.206 272.731Z" fill="white"/>
<path d="M461.566 281.051L443.566 263.051V275.051C432.526 275.051 423.566 266.091 423.566 255.051C423.566 251.851 424.286 248.811 425.646 246.091L416.926 237.371C413.566 242.411 411.566 248.491 411.566 255.051C411.566 272.731 425.886 287.051 443.566 287.051V299.051L461.566 281.051Z" fill="white"/>
</g>
</g>
<rect x="383.302" y="197.787" width="120.528" height="114.528" rx="11.0374" stroke="#B8B6D9" stroke-opacity="0.2" stroke-width="1.47165"/>
<g filter="url(#filter2_d_95_93)">
<path d="M251.353 246.471C253.013 244.799 255.706 244.799 257.366 246.471L264.192 253.344C265.853 255.016 265.853 257.727 264.192 259.399L257.366 266.273C255.706 267.945 253.013 267.945 251.353 266.273L244.527 259.399C242.866 257.727 242.866 255.016 244.527 253.344L251.353 246.471Z" fill="#A950FF"/>
<path d="M282.792 246.416C284.423 244.774 287.067 244.774 288.698 246.416L295.631 253.398C297.262 255.04 297.262 257.702 295.631 259.345L288.698 266.326C287.067 267.969 284.423 267.969 282.792 266.326L275.859 259.345C274.228 257.702 274.228 255.04 275.859 253.398L282.792 246.416Z" fill="#A950FF"/>
<path d="M251.407 214.814C253.037 213.171 255.682 213.171 257.313 214.814L264.246 221.795C265.877 223.438 265.877 226.1 264.246 227.742L257.313 234.724C255.682 236.366 253.037 236.366 251.407 234.724L244.473 227.742C242.842 226.1 242.842 223.438 244.473 221.795L251.407 214.814Z" fill="#E9C1FF"/>
<path d="M248.501 237.543C250.162 239.215 250.162 241.926 248.501 243.598L241.675 250.471C240.015 252.144 237.322 252.144 235.662 250.471L228.836 243.598C227.175 241.926 227.175 239.215 228.836 237.543L235.662 230.67C237.322 228.997 240.015 228.997 241.675 230.67L248.501 237.543Z" fill="#CD88FF"/>
<path d="M232.862 253.398C234.492 255.04 234.492 257.702 232.862 259.345L225.928 266.326C224.297 267.969 221.653 267.969 220.022 266.326L213.089 259.345C211.458 257.702 211.458 255.04 213.089 253.398L220.022 246.416C221.653 244.774 224.297 244.774 225.928 246.416L232.862 253.398Z" fill="#A950FF"/>
<path d="M279.885 237.543C281.546 239.215 281.546 241.926 279.885 243.598L273.059 250.471C271.399 252.144 268.706 252.144 267.046 250.471L260.22 243.598C258.559 241.926 258.559 239.215 260.22 237.543L267.046 230.67C268.706 228.997 271.399 228.997 273.059 230.67L279.885 237.543Z" fill="#CD88FF"/>
<path d="M261.077 282.684C264.787 286.419 264.787 292.476 261.077 296.212C257.367 299.947 251.353 299.947 247.643 296.212C243.933 292.476 243.933 286.419 247.643 282.684C251.353 278.948 257.367 278.948 261.077 282.684Z" fill="#F62E76"/>
</g>
<circle cx="254.36" cy="255.638" r="65.9278" stroke="white" stroke-width="0.85031" stroke-dasharray="1.7 1.7"/>
<path d="M326.565 272.955C325.494 277.643 323.958 282.28 321.94 286.802L321.672 286.68C320.693 288.875 319.6 291.042 318.391 293.174C317.182 295.306 315.884 297.356 314.505 299.32L314.746 299.491C311.905 303.54 308.72 307.229 305.255 310.542L305.052 310.327C301.518 313.706 297.691 316.691 293.641 319.263L293.798 319.513C289.678 322.13 285.327 324.322 280.817 326.068L280.71 325.792C276.195 327.54 271.52 328.84 266.758 329.672L266.809 329.964C262.039 330.798 257.181 331.164 252.307 331.043L252.313 330.748C247.512 330.629 242.696 330.035 237.933 328.948L237.869 329.237C233.193 328.17 228.57 326.629 224.062 324.596L224.182 324.326C221.995 323.339 219.835 322.236 217.709 321.015C215.584 319.793 213.543 318.481 211.587 317.086L211.417 317.327C207.387 314.453 203.718 311.228 200.428 307.717L200.642 307.514C197.291 303.938 194.334 300.064 191.792 295.962L191.542 296.117C188.961 291.953 186.804 287.555 185.092 282.995L185.367 282.891C183.657 278.339 182.392 273.624 181.592 268.821L181.301 268.869C180.502 264.071 180.163 259.184 180.306 254.281L180.601 254.291C180.741 249.471 181.348 244.636 182.441 239.854L182.154 239.787C183.225 235.099 184.761 230.461 186.779 225.939L187.047 226.061C188.026 223.867 189.12 221.7 190.328 219.567C191.537 217.435 192.835 215.385 194.214 213.421L193.973 213.25C196.814 209.201 199.999 205.512 203.464 202.2L203.667 202.414C207.202 199.036 211.028 196.051 215.079 193.478L214.921 193.228C219.041 190.611 223.392 188.42 227.903 186.673L228.009 186.95C232.524 185.202 237.199 183.901 241.962 183.069L241.91 182.777C246.681 181.944 251.538 181.577 256.413 181.698L256.406 181.994C261.207 182.113 266.024 182.706 270.786 183.793L270.851 183.505C275.526 184.572 280.15 186.113 284.657 188.146L284.537 188.415C286.725 189.402 288.885 190.505 291.01 191.727C293.135 192.948 295.177 194.26 297.133 195.655L297.302 195.414C301.333 198.288 305.001 201.514 308.291 205.025L308.077 205.227C311.429 208.804 314.385 212.678 316.928 216.78L317.177 216.624C319.759 220.788 321.915 225.187 323.628 229.746L323.352 229.85C325.062 234.403 326.327 239.117 327.128 243.92L327.418 243.872C328.218 248.671 328.556 253.557 328.413 258.46L328.119 258.45C327.978 263.27 327.371 268.106 326.278 272.888L326.565 272.955Z" stroke="url(#paint0_linear_95_93)" stroke-width="0.590199" stroke-linejoin="round" stroke-dasharray="14.16 14.16"/>
<g filter="url(#filter3_d_95_93)">
<path d="M277.379 308.66C272.843 310.566 268.009 311.896 262.969 312.562L262.93 312.27C260.498 312.591 258.018 312.757 255.499 312.757C252.98 312.757 250.499 312.591 248.068 312.27L248.029 312.562C242.988 311.896 238.155 310.566 233.619 308.66L233.733 308.388C229.12 306.451 224.816 303.916 220.915 300.88L220.734 301.113C216.795 298.047 213.265 294.473 210.241 290.487L210.476 290.309C207.494 286.379 205.007 282.047 203.108 277.408L202.835 277.52C200.973 272.972 199.673 268.13 199.023 263.083L199.316 263.045C199.002 260.612 198.841 258.131 198.841 255.612C198.841 253.093 199.002 250.612 199.316 248.179L199.023 248.141C199.673 243.094 200.973 238.252 202.835 233.704L203.108 233.816C205.007 229.177 207.494 224.845 210.476 220.915L210.241 220.737C213.265 216.751 216.795 213.177 220.734 210.111L220.915 210.344C224.816 207.308 229.12 204.773 233.733 202.836L233.619 202.564C238.155 200.658 242.988 199.327 248.029 198.661L248.068 198.954C250.499 198.633 252.98 198.467 255.499 198.467C258.018 198.467 260.498 198.633 262.93 198.954L262.969 198.661C268.009 199.327 272.843 200.658 277.379 202.564L277.265 202.836C281.877 204.773 286.182 207.308 290.083 210.344L290.264 210.111C294.203 213.177 297.733 216.751 300.757 220.737L300.522 220.915C303.503 224.845 305.991 229.177 307.89 233.816L308.163 233.704C310.025 238.252 311.325 243.094 311.975 248.141L311.682 248.179C311.995 250.612 312.157 253.093 312.157 255.612C312.157 258.131 311.995 260.612 311.682 263.045L311.975 263.083C311.325 268.13 310.025 272.972 308.163 277.52L307.89 277.408C305.991 282.047 303.503 286.379 300.522 290.309L300.757 290.487C297.733 294.473 294.203 298.047 290.264 301.113L290.083 300.88C286.182 303.916 281.877 306.451 277.265 308.388L277.379 308.66Z" stroke="#5F00E8" stroke-width="0.590199" stroke-linejoin="round" stroke-dasharray="14.16 14.16" shape-rendering="crispEdges"/>
</g>
<g filter="url(#filter4_f_95_93)">
<rect width="65.6832" height="103.523" transform="matrix(-1 0 0 1 198.546 169.039)" fill="url(#paint1_linear_95_93)"/>
</g>
<path d="M204.64 212.432C204.66 212.708 204.453 212.947 204.178 212.967L199.69 213.296C199.415 213.316 199.175 213.109 199.155 212.834C199.135 212.558 199.342 212.319 199.617 212.298L203.606 212.007L203.315 208.017C203.294 207.742 203.501 207.502 203.777 207.482C204.052 207.462 204.292 207.669 204.312 207.944L204.64 212.432ZM138.582 158.515C137.109 158.515 135.915 157.321 135.915 155.849C135.915 154.376 137.109 153.182 138.582 153.182C140.055 153.182 141.249 154.376 141.249 155.849C141.249 157.321 140.055 158.515 138.582 158.515ZM203.815 212.847L203.07 212.204L203.723 211.447L204.468 212.09L203.815 212.847ZM201.58 210.917L200.09 209.63L200.743 208.873L202.233 210.16L201.58 210.917ZM198.6 208.343L197.11 207.056L197.763 206.3L199.253 207.586L198.6 208.343ZM195.62 205.77L194.13 204.483L194.783 203.726L196.273 205.013L195.62 205.77ZM192.64 203.196L191.15 201.909L191.803 201.152L193.293 202.439L192.64 203.196ZM189.66 200.622L188.17 199.336L188.823 198.579L190.313 199.866L189.66 200.622ZM186.68 198.049L185.19 196.762L185.843 196.005L187.333 197.292L186.68 198.049ZM183.7 195.475L182.21 194.188L182.864 193.431L184.354 194.718L183.7 195.475ZM180.72 192.901L179.23 191.615L179.884 190.858L181.374 192.145L180.72 192.901ZM177.74 190.328L176.25 189.041L176.904 188.284L178.394 189.571L177.74 190.328ZM174.76 187.754L173.27 186.467L173.924 185.711L175.414 186.997L174.76 187.754ZM171.78 185.181L170.29 183.894L170.944 183.137L172.434 184.424L171.78 185.181ZM168.8 182.607L167.31 181.32L167.964 180.563L169.454 181.85L168.8 182.607ZM165.82 180.033L164.33 178.746L164.984 177.99L166.474 179.276L165.82 180.033ZM162.84 177.46L161.35 176.173L162.004 175.416L163.494 176.703L162.84 177.46ZM159.86 174.886L158.37 173.599L159.024 172.842L160.514 174.129L159.86 174.886ZM156.88 172.312L155.39 171.025L156.044 170.269L157.534 171.555L156.88 172.312ZM153.9 169.739L152.41 168.452L153.064 167.695L154.554 168.982L153.9 169.739ZM150.92 167.165L149.43 165.878L150.084 165.121L151.574 166.408L150.92 167.165ZM147.94 164.591L146.45 163.305L147.104 162.548L148.594 163.835L147.94 164.591ZM144.96 162.018L143.47 160.731L144.124 159.974L145.614 161.261L144.96 162.018ZM141.98 159.444L140.49 158.157L141.144 157.4L142.634 158.687L141.98 159.444ZM139 156.87L138.255 156.227L138.909 155.47L139.654 156.114L139 156.87Z" fill="#9CA1DE"/>
<path d="M380.919 256.018C381.115 256.213 381.115 256.529 380.919 256.725L377.737 259.907C377.542 260.102 377.226 260.102 377.03 259.907C376.835 259.711 376.835 259.395 377.03 259.2L379.859 256.371L377.03 253.543C376.835 253.347 376.835 253.031 377.03 252.836C377.226 252.64 377.542 252.64 377.737 252.836L380.919 256.018ZM320.325 259.038C318.852 259.038 317.658 257.844 317.658 256.371C317.658 254.898 318.852 253.704 320.325 253.704C321.798 253.704 322.992 254.898 322.992 256.371C322.992 257.844 321.798 259.038 320.325 259.038ZM380.566 256.871L379.562 256.871L379.562 255.871L380.566 255.871L380.566 256.871ZM377.554 256.871L375.546 256.871L375.546 255.871L377.554 255.871L377.554 256.871ZM373.538 256.871L371.53 256.871L371.53 255.871L373.538 255.871L373.538 256.871ZM369.522 256.871L367.514 256.871L367.514 255.871L369.522 255.871L369.522 256.871ZM365.506 256.871L363.498 256.871L363.498 255.871L365.506 255.871L365.506 256.871ZM361.49 256.871L359.482 256.871L359.482 255.871L361.49 255.871L361.49 256.871ZM357.474 256.871L355.466 256.871L355.466 255.871L357.474 255.871L357.474 256.871ZM353.457 256.871L351.449 256.871L351.449 255.871L353.457 255.871L353.457 256.871ZM349.441 256.871L347.433 256.871L347.433 255.871L349.441 255.871L349.441 256.871ZM345.425 256.871L343.417 256.871L343.417 255.871L345.425 255.871L345.425 256.871ZM341.409 256.871L339.401 256.871L339.401 255.871L341.409 255.871L341.409 256.871ZM337.393 256.871L335.385 256.871L335.385 255.871L337.393 255.871L337.393 256.871ZM333.377 256.871L331.369 256.871L331.369 255.871L333.377 255.871L333.377 256.871ZM329.361 256.871L327.353 256.871L327.353 255.871L329.361 255.871L329.361 256.871ZM325.345 256.871L323.337 256.871L323.337 255.871L325.345 255.871L325.345 256.871ZM321.329 256.871L320.325 256.871L320.325 255.871L321.329 255.871L321.329 256.871Z" fill="#9CA1DE"/>
<defs>
<filter id="filter0_d_95_93" x="47.3747" y="57.9053" width="95.6978" height="95.6978" filterUnits="userSpaceOnUse" color-interpolation-filters="sRGB">
<feFlood flood-opacity="0" result="BackgroundImageFix"/>
<feColorMatrix in="SourceAlpha" type="matrix" values="0 0 0 0 0 0 0 0 0 0 0 0 0 0 0 0 0 0 127 0" result="hardAlpha"/>
<feOffset dy="-6.33956"/>
<feGaussianBlur stdDeviation="7.92446"/>
<feComposite in2="hardAlpha" operator="out"/>
<feColorMatrix type="matrix" values="0 0 0 0 0.86125 0 0 0 0 0.87883 0 0 0 0 0.975 0 0 0 0.5 0"/>
<feBlend mode="normal" in2="BackgroundImageFix" result="effect1_dropShadow_95_93"/>
<feBlend mode="normal" in="SourceGraphic" in2="effect1_dropShadow_95_93" result="shape"/>
</filter>
<filter id="filter1_d_95_93" x="401.566" y="197.051" width="84" height="108" filterUnits="userSpaceOnUse" color-interpolation-filters="sRGB">
<feFlood flood-opacity="0" result="BackgroundImageFix"/>
<feColorMatrix in="SourceAlpha" type="matrix" values="0 0 0 0 0 0 0 0 0 0 0 0 0 0 0 0 0 0 127 0" result="hardAlpha"/>
<feOffset dy="-4"/>
<feGaussianBlur stdDeviation="5"/>
<feComposite in2="hardAlpha" operator="out"/>
<feColorMatrix type="matrix" values="0 0 0 0 0.86125 0 0 0 0 0.87883 0 0 0 0 0.975 0 0 0 0.5 0"/>
<feBlend mode="normal" in2="BackgroundImageFix" result="effect1_dropShadow_95_93"/>
<feBlend mode="normal" in="SourceGraphic" in2="effect1_dropShadow_95_93" result="shape"/>
</filter>
<filter id="filter2_d_95_93" x="192.308" y="197.426" width="124.103" height="124.544" filterUnits="userSpaceOnUse" color-interpolation-filters="sRGB">
<feFlood flood-opacity="0" result="BackgroundImageFix"/>
<feColorMatrix in="SourceAlpha" type="matrix" values="0 0 0 0 0 0 0 0 0 0 0 0 0 0 0 0 0 0 127 0" result="hardAlpha"/>
<feOffset dy="3.40124"/>
<feGaussianBlur stdDeviation="9.77857"/>
<feComposite in2="hardAlpha" operator="out"/>
<feColorMatrix type="matrix" values="0 0 0 0 0 0 0 0 0 0 0 0 0 0 0 0 0 0 0.95 0"/>
<feBlend mode="normal" in2="BackgroundImageFix" result="effect1_dropShadow_95_93"/>
<feBlend mode="normal" in="SourceGraphic" in2="effect1_dropShadow_95_93" result="shape"/>
</filter>
<filter id="filter3_d_95_93" x="196.775" y="198.172" width="117.448" height="118.42" filterUnits="userSpaceOnUse" color-interpolation-filters="sRGB">
<feFlood flood-opacity="0" result="BackgroundImageFix"/>
<feColorMatrix in="SourceAlpha" type="matrix" values="0 0 0 0 0 0 0 0 0 0 0 0 0 0 0 0 0 0 127 0" result="hardAlpha"/>
<feOffset dy="1.7706"/>
<feGaussianBlur stdDeviation="0.885298"/>
<feComposite in2="hardAlpha" operator="out"/>
<feColorMatrix type="matrix" values="0 0 0 0 0.432266 0 0 0 0 0.00354165 0 0 0 0 0.846458 0 0 0 1 0"/>
<feBlend mode="screen" in2="BackgroundImageFix" result="effect1_dropShadow_95_93"/>
<feBlend mode="normal" in="SourceGraphic" in2="effect1_dropShadow_95_93" result="shape"/>
</filter>
<filter id="filter4_f_95_93" x="52.8625" y="89.0391" width="225.683" height="263.523" filterUnits="userSpaceOnUse" color-interpolation-filters="sRGB">
<feFlood flood-opacity="0" result="BackgroundImageFix"/>
<feBlend mode="normal" in="SourceGraphic" in2="BackgroundImageFix" result="shape"/>
<feGaussianBlur stdDeviation="40" result="effect1_foregroundBlur_95_93"/>
</filter>
<linearGradient id="paint0_linear_95_93" x1="232.578" y1="189.751" x2="279.495" y2="358.877" gradientUnits="userSpaceOnUse">
<stop offset="0.015625" stop-color="#B010FB"/>
<stop offset="0.130208" stop-color="#DE97FF"/>
<stop offset="0.234375" stop-color="#A227DB"/>
<stop offset="0.505208" stop-color="#A227DB" stop-opacity="0"/>
<stop offset="0.765625" stop-color="#A610EC" stop-opacity="0.84"/>
</linearGradient>
<linearGradient id="paint1_linear_95_93" x1="32.8416" y1="0" x2="32.8416" y2="103.523" gradientUnits="userSpaceOnUse">
<stop stop-color="#6218FF" stop-opacity="0"/>
<stop offset="1" stop-color="#6117FF"/>
</linearGradient>
<clipPath id="clip0_95_93">
<rect x="382.566" y="197.051" width="122" height="116" rx="11.7732" fill="white"/>
</clipPath>
</defs>
</svg>
