<svg width="370" height="230" viewBox="0 0 370 230" fill="none" xmlns="http://www.w3.org/2000/svg">
<rect x="0.5" y="0.49707" width="369" height="229" rx="7.5" fill="#161617"/>
<rect x="0.5" y="0.49707" width="369" height="229" rx="7.5" stroke="#252526"/>
<g clip-path="url(#clip0_11297_24736)">
<g opacity="0.7" filter="url(#filter0_f_11297_24736)">
<rect width="108.538" height="77.8254" transform="matrix(-0.999351 -0.0360302 -0.0360302 0.999351 244.091 87.2432)" fill="url(#paint0_linear_11297_24736)"/>
</g>
<g filter="url(#filter1_b_11297_24736)">
<ellipse cx="78.302" cy="78.302" rx="78.302" ry="78.302" transform="matrix(1.12678 -0.277104 0.479958 0.650549 59.9482 93.5332)" fill="black" fill-opacity="0.08"/>
<path d="M270.195 96.5156C270.975 97.3539 271.721 98.2079 272.433 99.0772L272.258 99.1249C272.796 99.7814 273.313 100.447 273.811 101.121C274.308 101.795 274.78 102.471 275.228 103.15L275.408 103.11C276.001 104.009 276.55 104.911 277.057 105.817L276.873 105.851C277.654 107.247 278.333 108.651 278.913 110.058L279.101 110.032C279.486 110.967 279.826 111.903 280.124 112.84L279.934 112.86C280.391 114.3 280.746 115.742 281 117.183L281.193 117.172C281.361 118.126 281.486 119.081 281.568 120.034L281.375 120.039C281.5 121.499 281.523 122.957 281.447 124.408L281.64 124.412C281.59 125.37 281.497 126.325 281.361 127.276L281.168 127.267C280.961 128.722 280.653 130.169 280.249 131.604L280.44 131.621C280.173 132.567 279.864 133.507 279.514 134.441L279.325 134.417C278.791 135.842 278.16 137.253 277.435 138.647L277.62 138.679C277.143 139.596 276.625 140.505 276.068 141.405L275.886 141.367C275.036 142.739 274.093 144.091 273.06 145.42L273.236 145.466C272.558 146.338 271.84 147.201 271.084 148.052L270.912 148.002C269.763 149.297 268.524 150.567 267.199 151.808L267.364 151.866C266.495 152.68 265.59 153.481 264.648 154.269L264.489 154.206C263.059 155.403 261.544 156.568 259.948 157.701L260.098 157.771C259.054 158.512 257.975 159.238 256.862 159.949L256.718 159.874C255.031 160.951 253.265 161.992 251.422 162.995L251.555 163.077C250.353 163.731 249.118 164.369 247.851 164.99L247.725 164.905C245.812 165.842 243.826 166.74 241.769 167.595L241.882 167.686C240.542 168.243 239.173 168.782 237.774 169.301L237.67 169.207C235.563 169.991 233.389 170.731 231.15 171.425L231.241 171.524C229.789 171.974 228.31 172.405 226.804 172.816L226.722 172.715C225.585 173.025 224.432 173.324 223.265 173.611C222.098 173.898 220.926 174.171 219.751 174.429L219.82 174.534C218.263 174.876 216.7 175.193 215.131 175.485L215.072 175.379C212.654 175.83 210.223 176.222 207.785 176.557L207.83 176.666C206.211 176.888 204.59 177.084 202.966 177.256L202.931 177.146C200.438 177.41 197.94 177.615 195.444 177.762L195.463 177.873C193.81 177.971 192.158 178.043 190.507 178.09L190.498 177.978C187.968 178.05 185.444 178.064 182.93 178.02L182.924 178.132C181.265 178.103 179.61 178.049 177.962 177.97L177.978 177.859C175.458 177.739 172.952 177.562 170.467 177.328L170.436 177.438C168.799 177.285 167.171 177.106 165.553 176.904L165.594 176.795C163.126 176.487 160.682 176.122 158.268 175.704L158.212 175.811C156.625 175.535 155.05 175.236 153.491 174.914L153.556 174.809C151.18 174.319 148.838 173.774 146.536 173.178L146.457 173.28C144.946 172.888 143.452 172.474 141.977 172.037L142.065 171.938C139.822 171.274 137.622 170.559 135.472 169.794L135.371 169.889C133.962 169.388 132.574 168.865 131.209 168.321L131.319 168.229C129.246 167.403 127.227 166.529 125.266 165.608L125.144 165.694C123.861 165.091 122.603 164.468 121.372 163.826L121.502 163.743C119.637 162.769 117.832 161.749 116.095 160.685L115.954 160.762C114.821 160.068 113.716 159.355 112.64 158.623L112.788 158.551C111.164 157.446 109.609 156.299 108.128 155.112L107.971 155.177C107.006 154.404 106.073 153.613 105.173 152.806L105.335 152.745C103.979 151.529 102.697 150.273 101.494 148.981L101.324 149.034C100.544 148.195 99.7972 147.341 99.0854 146.472L99.2602 146.424C98.7227 145.768 98.205 145.103 97.7078 144.429C97.2106 143.755 96.7384 143.078 96.2909 142.4L96.1101 142.439C95.5175 141.541 94.9682 140.638 94.4616 139.733L94.6457 139.698C93.8645 138.302 93.1852 136.899 92.6057 135.491L92.4175 135.517C92.0328 134.583 91.692 133.646 91.3945 132.709L91.5847 132.689C91.1276 131.249 90.7729 129.807 90.5182 128.366L90.3258 128.377C90.1572 127.423 90.0324 126.469 89.9508 125.516L90.144 125.51C90.0189 124.05 89.9955 122.592 90.0714 121.141L89.8781 121.138C89.9282 120.18 90.0215 119.225 90.1574 118.273L90.3501 118.282C90.5578 116.827 90.8651 115.381 91.2697 113.946L91.0789 113.928C91.3454 112.983 91.654 112.043 92.0042 111.109L92.1932 111.132C92.7274 109.707 93.3583 108.296 94.0836 106.902L93.8984 106.87C94.3754 105.954 94.893 105.045 95.4508 104.144L95.6329 104.182C96.4825 102.81 97.4252 101.458 98.4587 100.129L98.2823 100.083C98.9608 99.211 99.6783 98.3485 100.434 97.4969L100.606 97.5478C101.756 96.2527 102.994 94.9828 104.319 93.7415L104.155 93.6829C105.023 92.8694 105.929 92.068 106.871 91.2799L107.03 91.3433C108.46 90.1468 109.974 88.9809 111.57 87.8487L111.42 87.7782C112.464 87.0377 113.544 86.3116 114.657 85.6008L114.8 85.6757C116.487 84.5987 118.253 83.5571 120.096 82.5541L119.963 82.4728C121.166 81.8183 122.401 81.1802 123.668 80.5595L123.793 80.6446C125.706 79.7072 127.693 78.8093 129.75 77.954L129.637 77.8634C130.976 77.3066 132.345 76.7678 133.744 76.248L133.849 76.3419C135.956 75.5587 138.13 74.8185 140.369 74.1241L140.277 74.0258C141.729 73.5755 143.208 73.1445 144.714 72.7335L144.797 72.8344C145.934 72.5241 147.086 72.2252 148.253 71.9382C149.421 71.6511 150.592 71.3784 151.768 71.1201L151.699 71.0157C153.256 70.6736 154.819 70.3564 156.387 70.064L156.446 70.1702C158.865 69.7192 161.296 69.327 163.734 68.9924L163.689 68.8838C165.307 68.6617 166.929 68.4649 168.552 68.2931L168.587 68.403C171.081 68.1391 173.578 67.9343 176.075 67.7873L176.055 67.6762C177.708 67.5788 179.361 67.5068 181.011 67.4596L181.021 67.5712C183.55 67.499 186.075 67.4854 188.589 67.5293L188.595 67.4177C190.254 67.4466 191.908 67.5005 193.557 67.5789L193.541 67.6902C196.061 67.8101 198.566 67.9875 201.051 68.2211L201.082 68.1109C202.719 68.2648 204.348 68.443 205.965 68.6452L205.925 68.7543C208.393 69.0627 210.837 69.427 213.251 69.8457L213.307 69.7388C214.894 70.0142 216.468 70.313 218.028 70.6351L217.963 70.7402C220.339 71.2307 222.681 71.775 224.982 72.3717L225.062 72.2698C226.573 72.6616 228.067 73.0758 229.542 73.5122L229.453 73.6116C231.697 74.2753 233.896 74.9903 236.046 75.7553L236.148 75.6602C237.557 76.1616 238.945 76.6844 240.31 77.2283L240.2 77.3202C242.272 78.1459 244.292 79.0202 246.253 79.9417L246.375 79.8551C247.658 80.4579 248.915 81.0809 250.146 81.7237L250.016 81.8065C251.882 82.7805 253.686 83.8002 255.423 84.864L255.564 84.7875C256.698 85.4817 257.803 86.1947 258.878 86.9262L258.731 86.9985C260.354 88.1031 261.91 89.2499 263.391 90.4376L263.548 90.3724C264.512 91.1456 265.445 91.9362 266.346 92.7437L266.183 92.8042C267.54 94.0207 268.822 95.2759 270.024 96.5684L270.195 96.5156Z" stroke="#9178D6" stroke-width="0.315809" stroke-linejoin="round" stroke-dasharray="6.12 4.01"/>
</g>
<g filter="url(#filter2_b_11297_24736)">
<ellipse cx="57.5134" cy="57.5134" rx="57.5134" ry="57.5134" transform="matrix(1.12678 -0.277104 0.479958 0.650549 92.481 100.428)" fill="black" fill-opacity="0.08"/>
<path d="M245.385 101.063C246.528 102.172 247.589 103.322 248.561 104.51L248.386 104.558C248.778 105.037 249.155 105.521 249.517 106.012C249.879 106.503 250.224 106.996 250.55 107.491L250.731 107.451C251.541 108.679 252.242 109.918 252.835 111.162L252.649 111.191C253.14 112.221 253.557 113.255 253.901 114.29L254.091 114.269C254.519 115.556 254.836 116.846 255.045 118.135L254.852 118.145C255.024 119.206 255.121 120.266 255.147 121.323L255.34 121.322C255.372 122.629 255.294 123.931 255.109 125.224L254.916 125.215C254.764 126.275 254.54 127.329 254.246 128.374L254.437 128.392C254.074 129.68 253.605 130.954 253.033 132.212L252.846 132.183C252.379 133.211 251.842 134.226 251.238 135.228L251.421 135.265C250.68 136.494 249.837 137.703 248.895 138.887L248.72 138.84C247.953 139.804 247.121 140.751 246.225 141.679L246.394 141.733C245.298 142.869 244.106 143.975 242.823 145.049L242.664 144.985C241.621 145.857 240.518 146.706 239.355 147.531L239.505 147.602C238.087 148.608 236.581 149.579 234.99 150.508L234.852 150.43C233.565 151.182 232.222 151.907 230.825 152.604L230.951 152.688C229.255 153.534 227.478 154.338 225.625 155.094L225.514 155.003C224.022 155.612 222.481 156.19 220.892 156.736L220.99 156.832C219.07 157.492 217.079 158.105 215.02 158.666L214.937 158.565C214.108 158.791 213.269 159.009 212.418 159.218C211.568 159.427 210.714 159.626 209.858 159.815L209.927 159.919C207.799 160.387 205.654 160.792 203.499 161.134L203.448 161.026C201.664 161.31 199.874 161.55 198.08 161.749L198.117 161.859C195.888 162.106 193.654 162.289 191.422 162.41L191.404 162.298C189.566 162.398 187.73 162.454 185.899 162.469L185.901 162.58C183.638 162.599 181.382 162.553 179.142 162.447L179.158 162.335C177.323 162.248 175.497 162.118 173.686 161.948L173.655 162.059C171.425 161.849 169.218 161.579 167.04 161.248L167.089 161.14C165.31 160.871 163.551 160.561 161.816 160.212L161.752 160.318C159.622 159.889 157.528 159.403 155.478 158.859L155.559 158.758C153.889 158.315 152.249 157.835 150.642 157.318L150.548 157.415C148.581 156.782 146.664 156.094 144.805 155.353L144.915 155.261C143.406 154.659 141.934 154.023 140.505 153.351L140.383 153.438C138.64 152.619 136.959 151.749 135.349 150.831L135.485 150.751C134.182 150.008 132.926 149.233 131.719 148.426L131.573 148.499C130.108 147.52 128.717 146.494 127.406 145.424L127.564 145.36C126.509 144.499 125.507 143.609 124.561 142.691L124.395 142.748C123.252 141.639 122.191 140.49 121.219 139.301L121.394 139.253C121.002 138.775 120.625 138.29 120.263 137.799C119.901 137.308 119.556 136.815 119.23 136.321L119.049 136.361C118.239 135.132 117.538 133.894 116.945 132.65L117.131 132.62C116.64 131.591 116.223 130.557 115.879 129.521L115.689 129.542C115.261 128.255 114.944 126.966 114.735 125.677L114.928 125.667C114.756 124.606 114.659 123.545 114.633 122.488L114.44 122.49C114.408 121.183 114.486 119.881 114.671 118.587L114.864 118.597C115.016 117.537 115.24 116.483 115.534 115.437L115.343 115.419C115.706 114.132 116.175 112.857 116.747 111.6L116.934 111.628C117.401 110.601 117.938 109.585 118.542 108.584L118.359 108.547C119.101 107.317 119.943 106.108 120.885 104.925L121.06 104.971C121.827 104.007 122.659 103.061 123.555 102.133L123.386 102.079C124.482 100.943 125.674 99.8363 126.957 98.763L127.117 98.8264C128.159 97.9548 129.262 97.1053 130.425 96.2803L130.275 96.2098C131.693 95.2032 133.199 94.2329 134.79 93.3032L134.928 93.3817C136.215 92.6296 137.558 91.9042 138.955 91.2077L138.829 91.1232C140.525 90.2773 142.302 89.4741 144.155 88.7175L144.266 88.8087C145.758 88.1998 147.299 87.6212 148.888 87.0751L148.79 86.9792C150.71 86.3193 152.702 85.7067 154.76 85.1452L154.843 85.2461C155.672 85.0201 156.511 84.8024 157.362 84.5933C158.212 84.3841 159.066 84.1854 159.922 83.997L159.853 83.8927C161.981 83.4246 164.126 83.02 166.281 82.6776L166.332 82.7853C168.116 82.5019 169.906 82.2611 171.7 82.0621L171.663 81.9525C173.892 81.7052 176.126 81.5223 178.358 81.402L178.376 81.5131C180.214 81.4141 182.05 81.3576 183.881 81.3428L183.879 81.2312C186.142 81.2129 188.398 81.2581 190.638 81.3651L190.622 81.4764C192.458 81.564 194.283 81.6933 196.094 81.8632L196.125 81.753C198.355 81.9622 200.562 82.2329 202.74 82.5632L202.691 82.6712C204.47 82.9411 206.229 83.2508 207.964 83.5995L208.028 83.4941C210.158 83.9222 212.252 84.4089 214.302 84.9523L214.221 85.0538C215.891 85.4963 217.531 85.9767 219.138 86.4938L219.232 86.3962C221.199 87.0293 223.116 87.7172 224.975 88.4584L224.865 88.5503C226.374 89.1521 227.846 89.7891 229.275 90.4603L229.397 90.3737C231.14 91.1925 232.821 92.0622 234.431 92.9808L234.295 93.0602C235.598 93.8034 236.854 94.5787 238.061 95.3852L238.207 95.3123C239.672 96.2919 241.063 97.3174 242.374 98.3873L242.216 98.4517C243.271 99.3128 244.273 100.203 245.219 101.12L245.385 101.063Z" stroke="url(#paint1_linear_11297_24736)" stroke-width="0.315809" stroke-linejoin="round" stroke-dasharray="4.32 5.28"/>
</g>
<g filter="url(#filter3_d_11297_24736)">
<path d="M234.946 109.477C240.426 117.124 240.426 125.772 234.946 133.419L234.588 133.334C231.964 136.996 228.074 140.427 222.917 143.404C217.76 146.381 211.817 148.627 205.474 150.143L205.622 150.349C192.377 153.513 177.399 153.513 164.153 150.349L164.301 150.143C157.958 148.627 152.015 146.381 146.858 143.404C141.702 140.427 137.811 136.996 135.187 133.334L134.83 133.419C129.349 125.772 129.349 117.124 134.83 109.477L135.187 109.562C137.811 105.9 141.702 102.469 146.859 99.4917C152.015 96.5143 157.958 94.2683 164.301 92.7532L164.153 92.5468C177.399 89.3829 192.377 89.3828 205.622 92.5468L205.474 92.7532C211.817 94.2683 217.76 96.5143 222.917 99.4917C228.074 102.469 231.964 105.9 234.588 109.562L234.946 109.477Z" stroke="#5F00E8" stroke-width="0.631617" stroke-linejoin="round" stroke-dasharray="24.36 24.36" shape-rendering="crispEdges"/>
</g>
<g opacity="0.4" filter="url(#filter4_f_11297_24736)">
<ellipse cx="182.951" cy="72.652" rx="18.0851" ry="10.2409" fill="black"/>
</g>
<circle cx="17.4385" cy="17.4385" r="17.2138" transform="matrix(0.866025 -0.5 0.866025 0.5 98.25 89.8447)" stroke="white" stroke-width="0.449387" stroke-dasharray="0.9 0.9"/>
<path d="M138.934 77.4755C141.712 78.265 144.251 79.3679 146.373 80.7567L146.229 80.8291C147.241 81.4914 148.157 82.2194 148.959 83.0099C149.76 83.8005 150.409 84.6174 150.912 85.4494L151.093 85.4136C152.148 87.1583 152.562 88.9692 152.384 90.7443L152.193 90.7376C152.012 92.5315 151.221 94.2885 149.867 95.9015L150.04 95.9495C148.695 97.5528 146.798 99.015 144.397 100.233L144.27 100.15C143.124 100.732 141.861 101.258 140.487 101.715C139.114 102.173 137.692 102.542 136.244 102.826L136.306 102.93C133.272 103.524 130.118 103.745 127.023 103.622L127.035 103.512C123.921 103.388 120.867 102.913 118.06 102.115L117.975 102.214C115.197 101.424 112.658 100.321 110.536 98.9326L110.68 98.8602C109.668 98.1979 108.752 97.47 107.95 96.6794C107.149 95.8888 106.499 95.0719 105.996 94.2399L105.816 94.2757C104.761 92.5311 104.346 90.7201 104.525 88.945L104.716 88.9517C104.897 87.1578 105.688 85.4009 107.041 83.7879L106.869 83.7399C108.214 82.1366 110.111 80.6743 112.511 79.4564L112.638 79.539C113.785 78.9573 115.048 78.4318 116.421 77.9739C117.795 77.516 119.216 77.1468 120.665 76.8633L120.603 76.7592C123.637 76.1656 126.791 75.9443 129.886 76.0674L129.874 76.1771C132.988 76.3009 136.042 76.7762 138.849 77.574L138.934 77.4755Z" stroke="#5BB8FF" stroke-width="0.311919" stroke-linejoin="round" stroke-dasharray="7.49 7.49"/>
<g style="mix-blend-mode:overlay" filter="url(#filter5_f_11297_24736)">
<circle cx="111.282" cy="75.7742" r="10.9802" fill="white" style="mix-blend-mode:lighten"/>
</g>
<g filter="url(#filter6_d_11297_24736)">
<path d="M116.781 94.2659C113.733 92.5064 112.021 90.1201 112.021 87.6318C112.021 85.1436 113.733 82.7572 116.781 80.9978L128.272 74.3637L139.764 80.9978C142.812 82.7572 144.524 85.1436 144.524 87.6318C144.524 90.1201 142.812 92.5065 139.764 94.2659C136.716 96.0254 132.582 97.0138 128.272 97.0138C123.962 97.0138 119.828 96.0254 116.781 94.2659V94.2659Z" fill="#0A41CF"/>
</g>
<path d="M128.429 88.8984L105.673 76.0489L128.429 62.664L150.915 76.0489L128.429 88.8984Z" fill="#7B22EB" stroke="url(#paint2_linear_11297_24736)" stroke-width="0.295789"/>
<path d="M128.318 89.0053L128.318 103.186L105.524 89.7499L105.524 75.9688L128.318 89.0053Z" fill="#340266"/>
<path d="M128.272 88.8202L128.272 103.025L151.256 89.7621L151.256 75.9961L128.272 88.8202Z" fill="#600BCA"/>
<g style="mix-blend-mode:overlay" filter="url(#filter7_f_11297_24736)">
<circle cx="111.429" cy="59.6824" r="10.9802" fill="white" style="mix-blend-mode:lighten"/>
</g>
<g filter="url(#filter8_d_11297_24736)">
<path d="M116.928 78.1741C113.88 76.4147 112.168 74.0283 112.168 71.54C112.168 69.0518 113.88 66.6654 116.928 64.906L128.42 58.2719L139.911 64.906C142.959 66.6654 144.671 69.0518 144.671 71.54C144.671 74.0283 142.959 76.4147 139.911 78.1741C136.863 79.9336 132.73 80.922 128.42 80.922C124.109 80.922 119.976 79.9336 116.928 78.1741V78.1741Z" fill="#0A41CF"/>
</g>
<path d="M128.576 72.8066L105.82 59.9571L128.576 46.5722L151.063 59.9571L128.576 72.8066Z" fill="#7B22EB" stroke="url(#paint3_linear_11297_24736)" stroke-width="0.295789"/>
<path d="M128.465 72.9135L128.465 87.0946L105.671 73.6581L105.671 59.877L128.465 72.9135Z" fill="#340266"/>
<path d="M128.42 72.7284L128.42 86.9335L151.404 73.6703L151.404 59.9043L128.42 72.7284Z" fill="#600BCA"/>
<g filter="url(#filter9_d_11297_24736)">
<path d="M121.029 57.3706L122.207 58.051C121.395 59.0881 121.395 60.2771 122.202 61.3175L121.029 61.9946L124.461 63.9763L125.64 63.2959C127.436 63.7649 129.501 63.7682 131.298 63.2992L132.47 63.9763L135.903 61.9946L134.724 61.3142C135.537 60.2771 135.542 59.0848 134.73 58.0477L135.903 57.3706L132.47 55.3889L131.292 56.0693C129.496 55.6003 127.436 55.6003 125.634 56.066L124.461 55.3889M123.317 57.3706L124.461 56.7101L125.605 57.3706L124.461 58.0312M123.46 58.7743L124.461 59.3523L127.894 57.3706L126.893 56.7926C127.917 56.6044 129.015 56.6044 130.039 56.7926L129.038 57.3706L132.47 59.3523L133.471 58.7743C133.797 59.3655 133.797 59.9997 133.471 60.5909L132.47 60.0129L129.038 61.9946L130.039 62.5726C129.015 62.7609 127.917 62.7609 126.893 62.5726L127.894 61.9946L124.461 60.0129L123.46 60.5909C123.134 59.9997 123.134 59.3655 123.46 58.7743ZM123.317 61.9946L124.461 61.334L125.605 61.9946L124.461 62.6552M131.326 57.3706L132.47 56.7101L133.614 57.3706L132.47 58.0312M131.326 61.9946L132.47 61.334L133.614 61.9946L132.47 62.6552" fill="white"/>
<g style="mix-blend-mode:overlay" filter="url(#filter10_f_11297_24736)">
<ellipse cx="16.3283" cy="16.3283" rx="16.3283" ry="16.3283" transform="matrix(0.866025 -0.5 0.866025 0.5 216.627 -1.62891)" fill="white" style="mix-blend-mode:lighten"/>
</g>
<g filter="url(#filter11_d_11297_24736)">
<path d="M275.806 8.03187C269.615 8.98975 264.337 8.4885 261.132 6.63841C257.928 4.78831 257.059 1.74091 258.719 -1.83341L264.974 -15.3104L288.317 -18.9221C294.508 -19.8799 299.786 -19.3787 302.991 -17.5286C306.195 -15.6785 307.063 -12.6311 305.404 -9.05678C303.745 -5.48247 299.695 -1.67403 294.144 1.53071C288.593 4.73545 281.997 7.07399 275.806 8.03187V8.03187Z" fill="#0A41CF"/>
</g>
</g>
<circle cx="17.4385" cy="17.4385" r="17.2138" transform="matrix(0.866025 -0.5 0.866025 0.5 234.179 106.17)" stroke="white" stroke-width="0.449387" stroke-dasharray="0.9 0.9"/>
<path d="M274.862 93.8006C277.641 94.5902 280.179 95.6931 282.301 97.0819L282.158 97.1543C283.169 97.8166 284.086 98.5446 284.887 99.3351C285.689 100.126 286.338 100.943 286.841 101.775L287.022 101.739C288.076 103.483 288.491 105.294 288.313 107.069L288.121 107.063C287.941 108.857 287.15 110.614 285.796 112.227L285.969 112.275C284.623 113.878 282.727 115.34 280.326 116.558L280.199 116.476C279.053 117.057 277.79 117.583 276.416 118.041C275.042 118.499 273.621 118.868 272.172 119.151L272.234 119.255C269.201 119.849 266.047 120.07 262.951 119.947L262.964 119.837C259.85 119.714 256.796 119.238 253.988 118.441L253.904 118.539C251.126 117.75 248.587 116.647 246.465 115.258L246.609 115.185C245.597 114.523 244.68 113.795 243.879 113.005C243.078 112.214 242.428 111.397 241.925 110.565L241.744 110.601C240.69 108.856 240.275 107.045 240.454 105.27L240.645 105.277C240.825 103.483 241.617 101.726 242.97 100.113L242.797 100.065C244.143 98.4618 246.039 96.9995 248.44 95.7816L248.567 95.8642C249.714 95.2825 250.976 94.757 252.35 94.2991C253.724 93.8412 255.145 93.472 256.594 93.1885L256.532 93.0844C259.565 92.4908 262.72 92.2695 265.815 92.3926L265.802 92.5023C268.916 92.6261 271.97 93.1014 274.778 93.8992L274.862 93.8006Z" stroke="#5BB8FF" stroke-width="0.311919" stroke-linejoin="round" stroke-dasharray="7.49 7.49"/>
<g style="mix-blend-mode:overlay" filter="url(#filter12_f_11297_24736)">
<circle cx="247.208" cy="92.2634" r="10.9802" fill="white" style="mix-blend-mode:lighten"/>
</g>
<g filter="url(#filter13_d_11297_24736)">
<path d="M252.708 110.755C249.66 108.996 247.948 106.609 247.948 104.121C247.948 101.633 249.66 99.2465 252.708 97.487L264.199 90.8529L275.691 97.487C278.739 99.2465 280.451 101.633 280.451 104.121C280.451 106.609 278.739 108.996 275.691 110.755C272.643 112.515 268.51 113.503 264.199 113.503C259.889 113.503 255.756 112.515 252.708 110.755V110.755Z" fill="#0A41CF"/>
</g>
<path d="M264.356 105.388L241.6 92.5381L264.356 79.1533L286.842 92.5381L264.356 105.388Z" fill="#7B22EB" stroke="url(#paint4_linear_11297_24736)" stroke-width="0.295789"/>
<path d="M264.245 105.495L264.245 119.676L241.451 106.239L241.451 92.458L264.245 105.495Z" fill="#340266"/>
<path d="M264.2 105.309L264.2 119.515L287.183 106.251L287.183 92.4854L264.2 105.309Z" fill="#600BCA"/>
<g style="mix-blend-mode:overlay" filter="url(#filter14_f_11297_24736)">
<circle cx="247.121" cy="75.1414" r="10.9802" fill="white" style="mix-blend-mode:lighten"/>
</g>
<g filter="url(#filter15_d_11297_24736)">
<path d="M252.62 93.6331C249.573 91.8736 247.861 89.4873 247.861 86.999C247.861 84.5108 249.573 82.1244 252.62 80.3649L264.112 73.7309L275.604 80.3649C278.651 82.1244 280.364 84.5108 280.364 86.999C280.364 89.4873 278.651 91.8736 275.604 93.6331C272.556 95.3926 268.422 96.381 264.112 96.381C259.802 96.381 255.668 95.3926 252.62 93.6331V93.6331Z" fill="#0A41CF"/>
</g>
<path d="M264.268 88.2666L241.512 75.417L264.268 62.0322L286.755 75.417L264.268 88.2666Z" fill="#7B22EB" stroke="url(#paint5_linear_11297_24736)" stroke-width="0.295789"/>
<g filter="url(#filter16_d_11297_24736)">
<path d="M256.957 73.0288L258.136 73.7092C257.323 74.7463 257.323 75.9353 258.13 76.9757L256.957 77.6528L260.39 79.6345L261.568 78.9541C263.364 79.4231 265.429 79.4264 267.226 78.9574L268.398 79.6345L271.831 77.6528L270.652 76.9724C271.465 75.9353 271.471 74.743 270.658 73.7059L271.831 73.0288L268.398 71.0471L267.22 71.7275C265.424 71.2585 263.364 71.2585 261.562 71.7242L260.39 71.0471M259.245 73.0288L260.39 72.3683L261.534 73.0288L260.39 73.6894M259.388 74.4325L260.39 75.0105L263.822 73.0288L262.821 72.4508C263.845 72.2626 264.943 72.2626 265.967 72.4508L264.966 73.0288L268.398 75.0105L269.4 74.4325C269.726 75.0237 269.726 75.6579 269.4 76.2491L268.398 75.6711L264.966 77.6528L265.967 78.2308C264.943 78.4191 263.845 78.4191 262.821 78.2308L263.822 77.6528L260.39 75.6711L259.388 76.2491C259.062 75.6579 259.062 75.0237 259.388 74.4325ZM259.245 77.6528L260.39 76.9922L261.534 77.6528L260.39 78.3134M267.254 73.0288L268.398 72.3683L269.543 73.0288L268.398 73.6894M267.254 77.6528L268.398 76.9922L269.543 77.6528L268.398 78.3134" fill="white"/>
</g>
<path d="M264.158 88.3725L264.158 102.554L241.364 89.1171L241.364 75.3359L264.158 88.3725Z" fill="#340266"/>
<path d="M264.112 88.1874L264.112 102.392L287.095 89.1293L287.095 75.3633L264.112 88.1874Z" fill="#600BCA"/>
<circle cx="17.4385" cy="17.4385" r="17.2138" transform="matrix(0.866025 -0.5 0.866025 0.5 170.545 72.8535)" stroke="white" stroke-width="0.449387" stroke-dasharray="0.9 0.9"/>
<path d="M211.229 60.4842C214.007 61.2738 216.546 62.3767 218.668 63.7655L218.524 63.8379C219.536 64.5002 220.453 65.2282 221.254 66.0187C222.055 66.8093 222.705 67.6262 223.208 68.4582L223.389 68.4224C224.443 70.1671 224.858 71.978 224.679 73.7531L224.488 73.7464C224.308 75.5403 223.516 77.2972 222.163 78.9103L222.335 78.9583C220.99 80.5615 219.094 82.0238 216.693 83.2417L216.566 83.1592C215.419 83.7408 214.156 84.2664 212.783 84.7243C211.409 85.1822 209.988 85.5513 208.539 85.8348L208.601 85.9389C205.568 86.5325 202.413 86.7538 199.318 86.6307L199.331 86.521C196.217 86.3972 193.163 85.922 190.355 85.1241L190.27 85.2227C187.492 84.4332 184.953 83.3302 182.832 81.9414L182.975 81.869C181.963 81.2067 181.047 80.4787 180.246 79.6882C179.444 78.8976 178.795 78.0807 178.292 77.2487L178.111 77.2845C177.057 75.5398 176.642 73.7289 176.82 71.9538L177.012 71.9605C177.192 70.1666 177.983 68.4097 179.337 66.7966L179.164 66.7486C180.51 65.1454 182.406 63.6831 184.807 62.4652L184.934 62.5478C186.08 61.9661 187.343 61.4406 188.717 60.9827C190.09 60.5248 191.512 60.1556 192.961 59.8721L192.898 59.768C195.932 59.1744 199.086 58.9531 202.182 59.0762L202.169 59.1859C205.283 59.3097 208.337 59.785 211.145 60.5828L211.229 60.4842Z" stroke="#5BB8FF" stroke-width="0.311919" stroke-linejoin="round" stroke-dasharray="7.49 7.49"/>
<g style="mix-blend-mode:overlay" filter="url(#filter17_f_11297_24736)">
<circle cx="183.735" cy="58.9392" r="10.9802" fill="white" style="mix-blend-mode:lighten"/>
</g>
<g filter="url(#filter18_d_11297_24736)">
<path d="M189.234 77.431C186.186 75.6715 184.474 73.2851 184.474 70.7969C184.474 68.3086 186.186 65.9223 189.234 64.1628L200.726 57.5287L212.217 64.1628C215.265 65.9223 216.977 68.3086 216.977 70.7969C216.977 73.2851 215.265 75.6715 212.217 77.431C209.17 79.1904 205.036 80.1789 200.726 80.1789C196.416 80.1789 192.282 79.1904 189.234 77.431V77.431Z" fill="#0A41CF"/>
</g>
<path d="M200.882 72.0634L178.126 59.2139L200.882 45.8291L223.368 59.2139L200.882 72.0634Z" fill="#7B22EB" stroke="url(#paint6_linear_11297_24736)" stroke-width="0.295789"/>
<path d="M200.771 72.1693V86.3505L177.977 72.914V59.1328L200.771 72.1693Z" fill="#340266"/>
<path d="M200.726 71.9853V86.1903L223.709 72.9272V59.1611L200.726 71.9853Z" fill="#600BCA"/>
<g filter="url(#filter19_d_11297_24736)">
<path d="M193.289 56.6333L194.468 57.3137C193.655 58.3508 193.655 59.5398 194.462 60.5802L193.289 61.2573L196.722 63.239L197.9 62.5586C199.696 63.0276 201.761 63.0309 203.558 62.5619L204.731 63.239L208.163 61.2573L206.984 60.5769C207.797 59.5398 207.803 58.3475 206.99 57.3104L208.163 56.6333L204.731 54.6516L203.552 55.332C201.756 54.863 199.696 54.863 197.894 55.3287L196.722 54.6516M195.577 56.6333L196.722 55.9728L197.866 56.6333L196.722 57.2939M195.72 58.037L196.722 58.615L200.154 56.6333L199.153 56.0553C200.177 55.8671 201.275 55.8671 202.299 56.0553L201.298 56.6333L204.731 58.615L205.732 58.037C206.058 58.6282 206.058 59.2624 205.732 59.8536L204.731 59.2756L201.298 61.2573L202.299 61.8353C201.275 62.0236 200.177 62.0236 199.153 61.8353L200.154 61.2573L196.722 59.2756L195.72 59.8536C195.394 59.2624 195.394 58.6282 195.72 58.037ZM195.577 61.2573L196.722 60.5967L197.866 61.2573L196.722 61.9179M203.586 56.6333L204.731 55.9728L205.875 56.6333L204.731 57.2939M203.586 61.2573L204.731 60.5967L205.875 61.2573L204.731 61.9179" fill="white"/>
<g style="mix-blend-mode:overlay" filter="url(#filter20_f_11297_24736)">
<ellipse cx="16.3283" cy="16.3283" rx="16.3283" ry="16.3283" transform="matrix(0.866025 -0.5 0.866025 0.5 288.888 -2.36523)" fill="white" style="mix-blend-mode:lighten"/>
</g>
<g filter="url(#filter21_d_11297_24736)">
<path d="M348.066 7.29554C341.875 8.25342 336.597 7.75218 333.392 5.90208C330.188 4.05198 329.32 1.00458 330.979 -2.56974L337.234 -16.0467L360.577 -19.6584C366.768 -20.6163 372.046 -20.115 375.251 -18.2649C378.455 -16.4148 379.323 -13.3674 377.664 -9.79311C376.005 -6.21879 371.955 -2.41036 366.404 0.794383C360.853 3.99913 354.257 6.33766 348.066 7.29554V7.29554Z" fill="#0A41CF"/>
</g>
</g>
<g filter="url(#filter22_d_11297_24736)">
<path d="M162.049 136.625C156.014 133.141 152.624 128.416 152.624 123.489C152.624 118.562 156.014 113.838 162.049 110.354L184.802 97.2183L207.555 110.354C213.59 113.838 216.98 118.562 216.98 123.489C216.98 128.416 213.59 133.141 207.555 136.625C201.521 140.109 193.336 142.066 184.802 142.066C176.268 142.066 168.083 140.109 162.049 136.625V136.625Z" fill="#0A41CF"/>
</g>
<path d="M185.112 125.997L140.055 100.555L185.112 74.0531L229.635 100.555L185.112 125.997Z" fill="#6400CA" stroke="url(#paint7_linear_11297_24736)" stroke-width="0.585662"/>
<path d="M184.893 126.208V154.287L139.761 127.682V100.396L184.893 126.208Z" fill="#4A0292"/>
<path d="M184.803 125.842V153.968L230.31 127.707V100.45L184.803 125.842Z" fill="#3C0077"/>
<path d="M180.8 99.596C180.806 98.95 181.7 98.434 182.797 98.4436L187.305 98.4829C188.402 98.4925 189.286 99.024 189.281 99.67L189.257 102.326C189.252 102.972 188.358 103.488 187.261 103.478L182.753 103.439C181.656 103.429 180.772 102.898 180.777 102.252L180.8 99.596Z" fill="#A950FF"/>
<path d="M191.218 93.5601C191.224 92.9256 192.102 92.4188 193.179 92.4282L197.758 92.4682C198.836 92.4776 199.704 92.9996 199.699 93.6341L199.675 96.3316C199.67 96.9661 198.792 97.4729 197.715 97.4635L193.135 97.4235C192.058 97.4141 191.189 96.8921 191.195 96.2576L191.218 93.5601Z" fill="#A950FF"/>
<path d="M170.489 93.3794C170.495 92.7449 171.372 92.2381 172.45 92.2475L177.029 92.2875C178.106 92.2969 178.975 92.8189 178.969 93.4534L178.946 96.1509C178.94 96.7854 178.063 97.2921 176.985 97.2827L172.406 97.2428C171.329 97.2334 170.46 96.7114 170.466 96.0769L170.489 93.3794Z" fill="#E9C1FF"/>
<path d="M176.941 98.3922C178.038 98.4018 178.922 98.9333 178.916 99.5793L178.893 102.235C178.888 102.881 177.994 103.397 176.897 103.387L172.389 103.348C171.292 103.339 170.407 102.807 170.413 102.161L170.436 99.5053C170.442 98.8593 171.336 98.3433 172.432 98.3529L176.941 98.3922Z" fill="#CD88FF"/>
<path d="M176.922 104.498C178 104.507 178.868 105.029 178.863 105.664L178.839 108.361C178.834 108.996 177.956 109.502 176.879 109.493L172.299 109.453C171.222 109.444 170.353 108.922 170.359 108.287L170.383 105.59C170.388 104.955 171.266 104.448 172.343 104.458L176.922 104.498Z" fill="#A950FF"/>
<path d="M187.358 92.3776C188.455 92.3871 189.34 92.9186 189.334 93.5647L189.311 96.2204C189.305 96.8664 188.412 97.3824 187.315 97.3728L182.806 97.3335C181.71 97.3239 180.825 96.7924 180.831 96.1464L180.854 93.4907C180.86 92.8446 181.753 92.3287 182.85 92.3382L187.358 92.3776Z" fill="#CD88FF"/>
<path d="M195.844 104.832C198.294 104.853 200.27 106.041 200.258 107.484C200.245 108.927 198.249 110.08 195.798 110.059C193.348 110.037 191.372 108.85 191.384 107.407C191.397 105.963 193.394 104.81 195.844 104.832Z" fill="#F62E76"/>
<mask id="mask0_11297_24736" style="mask-type:alpha" maskUnits="userSpaceOnUse" x="139" y="73" width="92" height="54">
<path d="M185.112 125.996L140.055 100.554L185.112 74.0522L229.635 100.554L185.112 125.996Z" fill="#6400CA" stroke="url(#paint8_linear_11297_24736)" stroke-width="0.585662"/>
</mask>
<g mask="url(#mask0_11297_24736)">
<g style="mix-blend-mode:overlay" filter="url(#filter23_f_11297_24736)">
<circle cx="151.16" cy="100.009" r="21.7409" fill="white" style="mix-blend-mode:lighten"/>
</g>
</g>
<circle cx="17.4385" cy="17.4385" r="17.2138" transform="matrix(0.866025 -0.5 0.866025 0.5 71.9307 134.155)" stroke="white" stroke-width="0.449387" stroke-dasharray="0.9 0.9"/>
<path d="M112.614 121.786C115.393 122.576 117.931 123.678 120.053 125.067L119.91 125.14C120.921 125.802 121.838 126.53 122.639 127.32C123.441 128.111 124.09 128.928 124.593 129.76L124.774 129.724C125.828 131.469 126.243 133.28 126.064 135.055L125.873 135.048C125.693 136.842 124.902 138.599 123.548 140.212L123.721 140.26C122.375 141.863 120.479 143.326 118.078 144.543L117.951 144.461C116.804 145.043 115.542 145.568 114.168 146.026C112.794 146.484 111.373 146.853 109.924 147.137L109.986 147.241C106.953 147.834 103.799 148.056 100.703 147.932L100.716 147.823C97.6018 147.699 94.5478 147.224 91.7403 146.426L91.6557 146.524C88.8775 145.735 86.3387 144.632 84.2168 143.243L84.3606 143.171C83.3486 142.508 82.4322 141.781 81.6308 140.99C80.8295 140.199 80.18 139.382 79.6771 138.55L79.4962 138.586C78.4418 136.842 78.027 135.031 78.2056 133.256L78.3968 133.262C78.5772 131.468 79.3685 129.711 80.722 128.098L80.5494 128.05C81.8948 126.447 83.7912 124.985 86.192 123.767L86.319 123.85C87.4656 123.268 88.7283 122.742 90.102 122.284C91.4757 121.827 92.897 121.457 94.3459 121.174L94.2836 121.07C97.3172 120.476 100.472 120.255 103.567 120.378L103.554 120.488C106.668 120.611 109.722 121.087 112.53 121.885L112.614 121.786Z" stroke="#5BB8FF" stroke-width="0.311919" stroke-linejoin="round" stroke-dasharray="7.49 7.49"/>
<g style="mix-blend-mode:overlay" filter="url(#filter24_f_11297_24736)">
<circle cx="84.9607" cy="120.258" r="10.9802" fill="white" style="mix-blend-mode:lighten"/>
</g>
<g filter="url(#filter25_d_11297_24736)">
<path d="M90.4598 138.75C87.4121 136.991 85.6999 134.604 85.6999 132.116C85.6999 129.628 87.4121 127.242 90.4598 125.482L101.951 118.848L113.443 125.482C116.491 127.242 118.203 129.628 118.203 132.116C118.203 134.604 116.491 136.991 113.443 138.75C110.395 140.51 106.262 141.498 101.951 141.498C97.6412 141.498 93.5076 140.51 90.4598 138.75V138.75Z" fill="#0A41CF"/>
</g>
<path d="M102.108 133.383L79.3518 120.533L102.108 107.148L124.594 120.533L102.108 133.383Z" fill="#7B22EB" stroke="url(#paint9_linear_11297_24736)" stroke-width="0.295789"/>
<path d="M101.997 133.489V147.67L79.2031 134.233V120.452L101.997 133.489Z" fill="#340266"/>
<path d="M101.952 133.304V147.509L124.935 134.246V120.479L101.952 133.304Z" fill="#600BCA"/>
<g filter="url(#filter26_d_11297_24736)">
<path d="M94.7091 118.005L95.8875 118.686C95.0752 119.723 95.0752 120.912 95.8818 121.952L94.7091 122.629L98.1415 124.611L99.3199 123.931C101.116 124.4 103.181 124.403 104.978 123.934L106.15 124.611L109.583 122.629L108.404 121.949C109.217 120.912 109.222 119.72 108.41 118.682L109.583 118.005L106.15 116.024L104.972 116.704C103.176 116.235 101.116 116.235 99.3142 116.701L98.1415 116.024M96.9973 118.005L98.1415 117.345L99.2856 118.005L98.1415 118.666M97.1404 119.409L98.1415 119.987L101.574 118.005L100.573 117.427C101.597 117.239 102.695 117.239 103.719 117.427L102.718 118.005L106.15 119.987L107.152 119.409C107.478 120 107.478 120.634 107.152 121.226L106.15 120.648L102.718 122.629L103.719 123.207C102.695 123.396 101.597 123.396 100.573 123.207L101.574 122.629L98.1415 120.648L97.1404 121.226C96.8143 120.634 96.8143 120 97.1404 119.409ZM96.9973 122.629L98.1415 121.969L99.2856 122.629L98.1415 123.29M105.006 118.005L106.15 117.345L107.295 118.005L106.15 118.666M105.006 122.629L106.15 121.969L107.295 122.629L106.15 123.29" fill="white"/>
</g>
<path d="M102.287 134.157V78.8019L79.6733 66.3174L79.6733 121.673L102.287 134.157Z" fill="url(#paint10_linear_11297_24736)"/>
<path d="M102.322 134.157V78.8019L124.935 66.3174L124.935 121.673L102.322 134.157Z" fill="url(#paint11_linear_11297_24736)"/>
<circle cx="17.4385" cy="17.4385" r="17.2138" transform="matrix(0.866025 -0.5 0.866025 0.5 134.564 178.798)" stroke="white" stroke-width="0.449387" stroke-dasharray="0.9 0.9"/>
<path d="M175.248 166.429C178.026 167.218 180.565 168.321 182.687 169.71L182.543 169.782C183.555 170.445 184.472 171.173 185.273 171.963C186.074 172.754 186.724 173.571 187.227 174.403L187.408 174.367C188.462 176.111 188.877 177.922 188.698 179.697L188.507 179.691C188.327 181.485 187.535 183.242 186.182 184.855L186.354 184.903C185.009 186.506 183.113 187.968 180.712 189.186L180.585 189.103C179.438 189.685 178.176 190.211 176.802 190.669C175.428 191.126 174.007 191.496 172.558 191.779L172.62 191.883C169.587 192.477 166.432 192.698 163.337 192.575L163.35 192.465C160.236 192.342 157.182 191.866 154.374 191.068L154.29 191.167C151.511 190.377 148.972 189.275 146.851 187.886L146.994 187.813C145.982 187.151 145.066 186.423 144.265 185.633C143.463 184.842 142.814 184.025 142.311 183.193L142.13 183.229C141.076 181.484 140.661 179.673 140.839 177.898L141.031 177.905C141.211 176.111 142.002 174.354 143.356 172.741L143.183 172.693C144.529 171.09 146.425 169.627 148.826 168.41L148.953 168.492C150.099 167.91 151.362 167.385 152.736 166.927C154.11 166.469 155.531 166.1 156.98 165.816L156.917 165.712C159.951 165.119 163.105 164.897 166.201 165.021L166.188 165.13C169.302 165.254 172.356 165.729 175.164 166.527L175.248 166.429Z" stroke="#5BB8FF" stroke-width="0.311919" stroke-linejoin="round" stroke-dasharray="7.49 7.49"/>
<g style="mix-blend-mode:overlay" filter="url(#filter27_f_11297_24736)">
<circle cx="147.498" cy="164.894" r="10.9802" fill="white" style="mix-blend-mode:lighten"/>
</g>
<g filter="url(#filter28_d_11297_24736)">
<path d="M152.997 183.387C149.949 181.628 148.237 179.241 148.237 176.753C148.237 174.265 149.949 171.878 152.997 170.119L164.488 163.485L175.98 170.119C179.028 171.878 180.74 174.265 180.74 176.753C180.74 179.241 179.028 181.628 175.98 183.387C172.932 185.146 168.799 186.135 164.488 186.135C160.178 186.135 156.045 185.146 152.997 183.387V183.387Z" fill="#0A41CF"/>
</g>
<path d="M164.645 178.019L141.889 165.17L164.645 151.785L187.131 165.17L164.645 178.019Z" fill="#7B22EB" stroke="url(#paint12_linear_11297_24736)" stroke-width="0.295789"/>
<path d="M164.534 178.125V192.307L141.74 178.87V165.089L164.534 178.125Z" fill="#340266"/>
<path d="M164.489 177.941V192.146L187.472 178.883V165.117L164.489 177.941Z" fill="#600BCA"/>
<g style="mix-blend-mode:overlay" filter="url(#filter29_f_11297_24736)">
<circle cx="147.645" cy="148.469" r="10.9802" fill="white" style="mix-blend-mode:lighten"/>
</g>
<g filter="url(#filter30_d_11297_24736)">
<path d="M153.144 166.961C150.097 165.202 148.384 162.815 148.384 160.327C148.384 157.839 150.097 155.453 153.144 153.693L164.636 147.059L176.128 153.693C179.175 155.453 180.887 157.839 180.887 160.327C180.887 162.815 179.175 165.202 176.128 166.961C173.08 168.721 168.946 169.709 164.636 169.709C160.326 169.709 156.192 168.721 153.144 166.961V166.961Z" fill="#0A41CF"/>
</g>
<path d="M164.792 161.595L142.036 148.745L164.792 135.36L187.279 148.745L164.792 161.595Z" fill="#7B22EB" stroke="url(#paint13_linear_11297_24736)" stroke-width="0.295789"/>
<g filter="url(#filter31_d_11297_24736)">
<path d="M157.343 146.323L158.521 147.003C157.709 148.04 157.709 149.229 158.516 150.27L157.343 150.947L160.775 152.928L161.954 152.248C163.75 152.717 165.815 152.72 167.612 152.251L168.784 152.928L172.217 150.947L171.038 150.266C171.851 149.229 171.856 148.037 171.044 147L172.217 146.323L168.784 144.341L167.606 145.021C165.809 144.552 163.75 144.552 161.948 145.018L160.775 144.341M159.631 146.323L160.775 145.662L161.919 146.323L160.775 146.983M159.774 147.726L160.775 148.304L164.208 146.323L163.207 145.745C164.231 145.557 165.329 145.557 166.353 145.745L165.352 146.323L168.784 148.304L169.785 147.726C170.111 148.318 170.111 148.952 169.785 149.543L168.784 148.965L165.352 150.947L166.353 151.525C165.329 151.713 164.231 151.713 163.207 151.525L164.208 150.947L160.775 148.965L159.774 149.543C159.448 148.952 159.448 148.318 159.774 147.726ZM159.631 150.947L160.775 150.286L161.919 150.947L160.775 151.607M167.64 146.323L168.784 145.662L169.928 146.323L168.784 146.983M167.64 150.947L168.784 150.286L169.928 150.947L168.784 151.607" fill="white"/>
</g>
<path d="M164.682 161.701V175.882L141.888 162.445V148.664L164.682 161.701Z" fill="#340266"/>
<path d="M164.636 161.516V175.721L187.619 162.457V148.691L164.636 161.516Z" fill="#600BCA"/>
<circle cx="17.4385" cy="17.4385" r="17.2138" transform="matrix(0.866025 -0.5 0.866025 0.5 220.519 165.139)" stroke="white" stroke-width="0.449387" stroke-dasharray="0.9 0.9"/>
<path d="M261.203 152.769C263.981 153.559 266.52 154.662 268.642 156.051L268.498 156.123C269.51 156.785 270.426 157.513 271.228 158.304C272.029 159.094 272.678 159.911 273.181 160.743L273.362 160.708C274.417 162.452 274.831 164.263 274.653 166.038L274.462 166.032C274.281 167.825 273.49 169.582 272.136 171.195L272.309 171.243C270.964 172.847 269.067 174.309 266.666 175.527L266.539 175.444C265.393 176.026 264.13 176.552 262.756 177.009C261.383 177.467 259.961 177.836 258.513 178.12L258.575 178.224C255.541 178.818 252.387 179.039 249.292 178.916L249.304 178.806C246.19 178.682 243.136 178.207 240.329 177.409L240.244 177.508C237.466 176.718 234.927 175.615 232.805 174.227L232.949 174.154C231.937 173.492 231.021 172.764 230.219 171.973C229.418 171.183 228.768 170.366 228.266 169.534L228.085 169.57C227.03 167.825 226.615 166.014 226.794 164.239L226.985 164.246C227.166 162.452 227.957 160.695 229.31 159.082L229.138 159.034C230.483 157.431 232.38 155.968 234.78 154.75L234.907 154.833C236.054 154.251 237.317 153.726 238.69 153.268C240.064 152.81 241.485 152.441 242.934 152.157L242.872 152.053C245.906 151.46 249.06 151.238 252.155 151.361L252.143 151.471C255.257 151.595 258.311 152.07 261.118 152.868L261.203 152.769Z" stroke="#5BB8FF" stroke-width="0.311919" stroke-linejoin="round" stroke-dasharray="7.49 7.49"/>
<g style="mix-blend-mode:overlay" filter="url(#filter32_f_11297_24736)">
<circle cx="233.549" cy="151.103" r="10.9802" fill="white" style="mix-blend-mode:lighten"/>
</g>
<g filter="url(#filter33_d_11297_24736)">
<path d="M239.049 169.595C236.001 167.836 234.289 165.449 234.289 162.961C234.289 160.473 236.001 158.086 239.049 156.327L250.54 149.693L262.032 156.327C265.08 158.086 266.792 160.473 266.792 162.961C266.792 165.449 265.08 167.836 262.032 169.595C258.984 171.354 254.85 172.343 250.54 172.343C246.23 172.343 242.096 171.354 239.049 169.595V169.595Z" fill="#0A41CF"/>
</g>
<path d="M250.696 164.227L227.94 151.378L250.696 137.993L273.183 151.378L250.696 164.227Z" fill="#7B22EB" stroke="url(#paint14_linear_11297_24736)" stroke-width="0.295789"/>
<path d="M250.585 164.334L250.585 178.516L227.792 165.079L227.792 151.298L250.585 164.334Z" fill="#340266"/>
<path d="M250.541 164.149L250.541 178.354L273.524 165.091L273.524 151.325L250.541 164.149Z" fill="#600BCA"/>
<g style="mix-blend-mode:overlay" filter="url(#filter34_f_11297_24736)">
<circle cx="233.549" cy="135.187" r="10.9802" fill="white" style="mix-blend-mode:lighten"/>
</g>
<g filter="url(#filter35_d_11297_24736)">
<path d="M239.049 153.679C236.001 151.92 234.289 149.533 234.289 147.045C234.289 144.557 236.001 142.17 239.049 140.411L250.54 133.777L262.032 140.411C265.08 142.17 266.792 144.557 266.792 147.045C266.792 149.533 265.08 151.92 262.032 153.679C258.984 155.438 254.85 156.427 250.54 156.427C246.23 156.427 242.096 155.438 239.049 153.679V153.679Z" fill="#0A41CF"/>
</g>
<path d="M250.696 148.311L227.94 135.462L250.696 122.077L273.183 135.462L250.696 148.311Z" fill="#7B22EB" stroke="url(#paint15_linear_11297_24736)" stroke-width="0.295789"/>
<g filter="url(#filter36_d_11297_24736)">
<path d="M243.297 132.997L244.476 133.677C243.664 134.714 243.664 135.903 244.47 136.944L243.297 137.621L246.73 139.602L247.908 138.922C249.705 139.391 251.77 139.394 253.566 138.925L254.739 139.602L258.171 137.621L256.993 136.94C257.805 135.903 257.811 134.711 256.999 133.674L258.171 132.997L254.739 131.015L253.56 131.695C251.764 131.226 249.705 131.226 247.903 131.692L246.73 131.015M245.586 132.997L246.73 132.336L247.874 132.997L246.73 133.657M245.729 134.4L246.73 134.978L250.162 132.997L249.161 132.419C250.185 132.23 251.284 132.23 252.308 132.419L251.306 132.997L254.739 134.978L255.74 134.4C256.066 134.992 256.066 135.626 255.74 136.217L254.739 135.639L251.306 137.621L252.308 138.199C251.284 138.387 250.185 138.387 249.161 138.199L250.162 137.621L246.73 135.639L245.729 136.217C245.403 135.626 245.403 134.992 245.729 134.4ZM245.586 137.621L246.73 136.96L247.874 137.621L246.73 138.281M253.595 132.997L254.739 132.336L255.883 132.997L254.739 133.657M253.595 137.621L254.739 136.96L255.883 137.621L254.739 138.281" fill="white"/>
</g>
<path d="M250.585 148.418L250.585 162.6L227.792 149.163L227.792 135.382L250.585 148.418Z" fill="#340266"/>
<path d="M250.541 148.233L250.541 162.438L273.524 149.175L273.524 135.409L250.541 148.233Z" fill="#600BCA"/>
<path d="M264.535 87.9182L264.535 32.5626L241.921 20.0781V75.4337L264.535 87.9182Z" fill="url(#paint16_linear_11297_24736)"/>
<path d="M264.57 87.9182L264.57 32.5626L287.183 20.0781L287.183 75.4337L264.57 87.9182Z" fill="url(#paint17_linear_11297_24736)"/>
<path d="M250.876 148.99L250.876 93.6349L228.262 81.1504V136.506L250.876 148.99Z" fill="url(#paint18_linear_11297_24736)"/>
<path d="M250.91 148.99L250.91 93.6349L273.523 81.1504L273.523 136.506L250.91 148.99Z" fill="url(#paint19_linear_11297_24736)"/>
</g>
<defs>
<filter id="filter0_f_11297_24736" x="76.315" y="26.8287" width="224.28" height="194.693" filterUnits="userSpaceOnUse" color-interpolation-filters="sRGB">
<feFlood flood-opacity="0" result="BackgroundImageFix"/>
<feBlend mode="normal" in="SourceGraphic" in2="BackgroundImageFix" result="shape"/>
<feGaussianBlur stdDeviation="28.2522" result="effect1_foregroundBlur_11297_24736"/>
</filter>
<filter id="filter1_b_11297_24736" x="61.3037" y="38.8618" width="248.911" height="167.826" filterUnits="userSpaceOnUse" color-interpolation-filters="sRGB">
<feFlood flood-opacity="0" result="BackgroundImageFix"/>
<feGaussianBlur in="BackgroundImageFix" stdDeviation="14.2654"/>
<feComposite in2="SourceAlpha" operator="in" result="effect1_backgroundBlur_11297_24736"/>
<feBlend mode="normal" in="SourceGraphic" in2="effect1_backgroundBlur_11297_24736" result="shape"/>
</filter>
<filter id="filter2_b_11297_24736" x="94.3058" y="61.1007" width="181.168" height="121.61" filterUnits="userSpaceOnUse" color-interpolation-filters="sRGB">
<feFlood flood-opacity="0" result="BackgroundImageFix"/>
<feGaussianBlur in="BackgroundImageFix" stdDeviation="10.0634"/>
<feComposite in2="SourceAlpha" operator="in" result="effect1_backgroundBlur_11297_24736"/>
<feBlend mode="normal" in="SourceGraphic" in2="effect1_backgroundBlur_11297_24736" result="shape"/>
</filter>
<filter id="filter3_d_11297_24736" x="127.675" y="90.1738" width="114.426" height="68.638" filterUnits="userSpaceOnUse" color-interpolation-filters="sRGB">
<feFlood flood-opacity="0" result="BackgroundImageFix"/>
<feColorMatrix in="SourceAlpha" type="matrix" values="0 0 0 0 0 0 0 0 0 0 0 0 0 0 0 0 0 0 127 0" result="hardAlpha"/>
<feOffset dy="3.04509"/>
<feGaussianBlur stdDeviation="1.52255"/>
<feComposite in2="hardAlpha" operator="out"/>
<feColorMatrix type="matrix" values="0 0 0 0 0.432266 0 0 0 0 0.00354165 0 0 0 0 0.846458 0 0 0 1 0"/>
<feBlend mode="screen" in2="BackgroundImageFix" result="effect1_dropShadow_11297_24736"/>
<feBlend mode="normal" in="SourceGraphic" in2="effect1_dropShadow_11297_24736" result="shape"/>
</filter>
<filter id="filter4_f_11297_24736" x="150.088" y="47.6331" width="65.7265" height="50.0376" filterUnits="userSpaceOnUse" color-interpolation-filters="sRGB">
<feFlood flood-opacity="0" result="BackgroundImageFix"/>
<feBlend mode="normal" in="SourceGraphic" in2="BackgroundImageFix" result="shape"/>
<feGaussianBlur stdDeviation="7.38903" result="effect1_foregroundBlur_11297_24736"/>
</filter>
<filter id="filter5_f_11297_24736" x="78.585" y="43.0777" width="65.3929" height="65.3934" filterUnits="userSpaceOnUse" color-interpolation-filters="sRGB">
<feFlood flood-opacity="0" result="BackgroundImageFix"/>
<feBlend mode="normal" in="SourceGraphic" in2="BackgroundImageFix" result="shape"/>
<feGaussianBlur stdDeviation="10.8581" result="effect1_foregroundBlur_11297_24736"/>
</filter>
<filter id="filter6_d_11297_24736" x="89.7475" y="53.9427" width="77.0495" height="67.1964" filterUnits="userSpaceOnUse" color-interpolation-filters="sRGB">
<feFlood flood-opacity="0" result="BackgroundImageFix"/>
<feColorMatrix in="SourceAlpha" type="matrix" values="0 0 0 0 0 0 0 0 0 0 0 0 0 0 0 0 0 0 127 0" result="hardAlpha"/>
<feOffset dy="1.85248"/>
<feGaussianBlur stdDeviation="11.1365"/>
<feComposite in2="hardAlpha" operator="out"/>
<feColorMatrix type="matrix" values="0 0 0 0 0.506336 0 0 0 0 0.118457 0 0 0 0 1 0 0 0 1 0"/>
<feBlend mode="soft-light" in2="BackgroundImageFix" result="effect1_dropShadow_11297_24736"/>
<feBlend mode="normal" in="SourceGraphic" in2="effect1_dropShadow_11297_24736" result="shape"/>
</filter>
<filter id="filter7_f_11297_24736" x="78.7325" y="26.9859" width="65.3929" height="65.3934" filterUnits="userSpaceOnUse" color-interpolation-filters="sRGB">
<feFlood flood-opacity="0" result="BackgroundImageFix"/>
<feBlend mode="normal" in="SourceGraphic" in2="BackgroundImageFix" result="shape"/>
<feGaussianBlur stdDeviation="10.8581" result="effect1_foregroundBlur_11297_24736"/>
</filter>
<filter id="filter8_d_11297_24736" x="89.895" y="37.8509" width="77.0495" height="67.1964" filterUnits="userSpaceOnUse" color-interpolation-filters="sRGB">
<feFlood flood-opacity="0" result="BackgroundImageFix"/>
<feColorMatrix in="SourceAlpha" type="matrix" values="0 0 0 0 0 0 0 0 0 0 0 0 0 0 0 0 0 0 127 0" result="hardAlpha"/>
<feOffset dy="1.85248"/>
<feGaussianBlur stdDeviation="11.1365"/>
<feComposite in2="hardAlpha" operator="out"/>
<feColorMatrix type="matrix" values="0 0 0 0 0.506336 0 0 0 0 0.118457 0 0 0 0 1 0 0 0 1 0"/>
<feBlend mode="soft-light" in2="BackgroundImageFix" result="effect1_dropShadow_11297_24736"/>
<feBlend mode="normal" in="SourceGraphic" in2="effect1_dropShadow_11297_24736" result="shape"/>
</filter>
<filter id="filter9_d_11297_24736" x="104.736" y="-55.2256" width="231.066" height="128.835" filterUnits="userSpaceOnUse" color-interpolation-filters="sRGB">
<feFlood flood-opacity="0" result="BackgroundImageFix"/>
<feColorMatrix in="SourceAlpha" type="matrix" values="0 0 0 0 0 0 0 0 0 0 0 0 0 0 0 0 0 0 127 0" result="hardAlpha"/>
<feOffset dy="-4"/>
<feGaussianBlur stdDeviation="5"/>
<feComposite in2="hardAlpha" operator="out"/>
<feColorMatrix type="matrix" values="0 0 0 0 0.86125 0 0 0 0 0.87883 0 0 0 0 0.975 0 0 0 0.5 0"/>
<feBlend mode="normal" in2="BackgroundImageFix" result="effect1_dropShadow_11297_24736"/>
<feBlend mode="normal" in="SourceGraphic" in2="effect1_dropShadow_11297_24736" result="shape"/>
</filter>
<filter id="filter10_f_11297_24736" x="203.194" y="-34.8911" width="83.4286" height="66.5243" filterUnits="userSpaceOnUse" color-interpolation-filters="sRGB">
<feFlood flood-opacity="0" result="BackgroundImageFix"/>
<feBlend mode="normal" in="SourceGraphic" in2="BackgroundImageFix" result="shape"/>
<feGaussianBlur stdDeviation="10.8581" result="effect1_foregroundBlur_11297_24736"/>
</filter>
<filter id="filter11_d_11297_24736" x="235.622" y="-39.818" width="92.8795" height="72.4513" filterUnits="userSpaceOnUse" color-interpolation-filters="sRGB">
<feFlood flood-opacity="0" result="BackgroundImageFix"/>
<feColorMatrix in="SourceAlpha" type="matrix" values="0 0 0 0 0 0 0 0 0 0 0 0 0 0 0 0 0 0 127 0" result="hardAlpha"/>
<feOffset dy="1.85248"/>
<feGaussianBlur stdDeviation="11.1365"/>
<feComposite in2="hardAlpha" operator="out"/>
<feColorMatrix type="matrix" values="0 0 0 0 0.506336 0 0 0 0 0.118457 0 0 0 0 1 0 0 0 1 0"/>
<feBlend mode="soft-light" in2="BackgroundImageFix" result="effect1_dropShadow_11297_24736"/>
<feBlend mode="normal" in="SourceGraphic" in2="effect1_dropShadow_11297_24736" result="shape"/>
</filter>
<filter id="filter12_f_11297_24736" x="214.512" y="59.567" width="65.3929" height="65.3934" filterUnits="userSpaceOnUse" color-interpolation-filters="sRGB">
<feFlood flood-opacity="0" result="BackgroundImageFix"/>
<feBlend mode="normal" in="SourceGraphic" in2="BackgroundImageFix" result="shape"/>
<feGaussianBlur stdDeviation="10.8581" result="effect1_foregroundBlur_11297_24736"/>
</filter>
<filter id="filter13_d_11297_24736" x="225.675" y="70.432" width="77.0495" height="67.1964" filterUnits="userSpaceOnUse" color-interpolation-filters="sRGB">
<feFlood flood-opacity="0" result="BackgroundImageFix"/>
<feColorMatrix in="SourceAlpha" type="matrix" values="0 0 0 0 0 0 0 0 0 0 0 0 0 0 0 0 0 0 127 0" result="hardAlpha"/>
<feOffset dy="1.85248"/>
<feGaussianBlur stdDeviation="11.1365"/>
<feComposite in2="hardAlpha" operator="out"/>
<feColorMatrix type="matrix" values="0 0 0 0 0.506336 0 0 0 0 0.118457 0 0 0 0 1 0 0 0 1 0"/>
<feBlend mode="soft-light" in2="BackgroundImageFix" result="effect1_dropShadow_11297_24736"/>
<feBlend mode="normal" in="SourceGraphic" in2="effect1_dropShadow_11297_24736" result="shape"/>
</filter>
<filter id="filter14_f_11297_24736" x="214.425" y="42.4449" width="65.3929" height="65.3934" filterUnits="userSpaceOnUse" color-interpolation-filters="sRGB">
<feFlood flood-opacity="0" result="BackgroundImageFix"/>
<feBlend mode="normal" in="SourceGraphic" in2="BackgroundImageFix" result="shape"/>
<feGaussianBlur stdDeviation="10.8581" result="effect1_foregroundBlur_11297_24736"/>
</filter>
<filter id="filter15_d_11297_24736" x="225.587" y="53.3099" width="77.0495" height="67.1964" filterUnits="userSpaceOnUse" color-interpolation-filters="sRGB">
<feFlood flood-opacity="0" result="BackgroundImageFix"/>
<feColorMatrix in="SourceAlpha" type="matrix" values="0 0 0 0 0 0 0 0 0 0 0 0 0 0 0 0 0 0 127 0" result="hardAlpha"/>
<feOffset dy="1.85248"/>
<feGaussianBlur stdDeviation="11.1365"/>
<feComposite in2="hardAlpha" operator="out"/>
<feColorMatrix type="matrix" values="0 0 0 0 0.506336 0 0 0 0 0.118457 0 0 0 0 1 0 0 0 1 0"/>
<feBlend mode="soft-light" in2="BackgroundImageFix" result="effect1_dropShadow_11297_24736"/>
<feBlend mode="normal" in="SourceGraphic" in2="effect1_dropShadow_11297_24736" result="shape"/>
</filter>
<filter id="filter16_d_11297_24736" x="240.665" y="53.4141" width="47.4595" height="35.8535" filterUnits="userSpaceOnUse" color-interpolation-filters="sRGB">
<feFlood flood-opacity="0" result="BackgroundImageFix"/>
<feColorMatrix in="SourceAlpha" type="matrix" values="0 0 0 0 0 0 0 0 0 0 0 0 0 0 0 0 0 0 127 0" result="hardAlpha"/>
<feOffset dy="-4"/>
<feGaussianBlur stdDeviation="5"/>
<feComposite in2="hardAlpha" operator="out"/>
<feColorMatrix type="matrix" values="0 0 0 0 0.86125 0 0 0 0 0.87883 0 0 0 0 0.975 0 0 0 0.5 0"/>
<feBlend mode="normal" in2="BackgroundImageFix" result="effect1_dropShadow_11297_24736"/>
<feBlend mode="normal" in="SourceGraphic" in2="effect1_dropShadow_11297_24736" result="shape"/>
</filter>
<filter id="filter17_f_11297_24736" x="151.038" y="26.2427" width="65.3929" height="65.3934" filterUnits="userSpaceOnUse" color-interpolation-filters="sRGB">
<feFlood flood-opacity="0" result="BackgroundImageFix"/>
<feBlend mode="normal" in="SourceGraphic" in2="BackgroundImageFix" result="shape"/>
<feGaussianBlur stdDeviation="10.8581" result="effect1_foregroundBlur_11297_24736"/>
</filter>
<filter id="filter18_d_11297_24736" x="162.201" y="37.1078" width="77.0495" height="67.1964" filterUnits="userSpaceOnUse" color-interpolation-filters="sRGB">
<feFlood flood-opacity="0" result="BackgroundImageFix"/>
<feColorMatrix in="SourceAlpha" type="matrix" values="0 0 0 0 0 0 0 0 0 0 0 0 0 0 0 0 0 0 127 0" result="hardAlpha"/>
<feOffset dy="1.85248"/>
<feGaussianBlur stdDeviation="11.1365"/>
<feComposite in2="hardAlpha" operator="out"/>
<feColorMatrix type="matrix" values="0 0 0 0 0.506336 0 0 0 0 0.118457 0 0 0 0 1 0 0 0 1 0"/>
<feBlend mode="soft-light" in2="BackgroundImageFix" result="effect1_dropShadow_11297_24736"/>
<feBlend mode="normal" in="SourceGraphic" in2="effect1_dropShadow_11297_24736" result="shape"/>
</filter>
<filter id="filter19_d_11297_24736" x="176.996" y="-55.9619" width="231.066" height="128.834" filterUnits="userSpaceOnUse" color-interpolation-filters="sRGB">
<feFlood flood-opacity="0" result="BackgroundImageFix"/>
<feColorMatrix in="SourceAlpha" type="matrix" values="0 0 0 0 0 0 0 0 0 0 0 0 0 0 0 0 0 0 127 0" result="hardAlpha"/>
<feOffset dy="-4"/>
<feGaussianBlur stdDeviation="5"/>
<feComposite in2="hardAlpha" operator="out"/>
<feColorMatrix type="matrix" values="0 0 0 0 0.86125 0 0 0 0 0.87883 0 0 0 0 0.975 0 0 0 0.5 0"/>
<feBlend mode="normal" in2="BackgroundImageFix" result="effect1_dropShadow_11297_24736"/>
<feBlend mode="normal" in="SourceGraphic" in2="effect1_dropShadow_11297_24736" result="shape"/>
</filter>
<filter id="filter20_f_11297_24736" x="275.455" y="-35.6274" width="83.4286" height="66.5243" filterUnits="userSpaceOnUse" color-interpolation-filters="sRGB">
<feFlood flood-opacity="0" result="BackgroundImageFix"/>
<feBlend mode="normal" in="SourceGraphic" in2="BackgroundImageFix" result="shape"/>
<feGaussianBlur stdDeviation="10.8581" result="effect1_foregroundBlur_11297_24736"/>
</filter>
<filter id="filter21_d_11297_24736" x="307.882" y="-40.5543" width="92.8795" height="72.4513" filterUnits="userSpaceOnUse" color-interpolation-filters="sRGB">
<feFlood flood-opacity="0" result="BackgroundImageFix"/>
<feColorMatrix in="SourceAlpha" type="matrix" values="0 0 0 0 0 0 0 0 0 0 0 0 0 0 0 0 0 0 127 0" result="hardAlpha"/>
<feOffset dy="1.85248"/>
<feGaussianBlur stdDeviation="11.1365"/>
<feComposite in2="hardAlpha" operator="out"/>
<feColorMatrix type="matrix" values="0 0 0 0 0.506336 0 0 0 0 0.118457 0 0 0 0 1 0 0 0 1 0"/>
<feBlend mode="soft-light" in2="BackgroundImageFix" result="effect1_dropShadow_11297_24736"/>
<feBlend mode="normal" in="SourceGraphic" in2="effect1_dropShadow_11297_24736" result="shape"/>
</filter>
<filter id="filter22_d_11297_24736" x="108.523" y="56.786" width="152.557" height="133.048" filterUnits="userSpaceOnUse" color-interpolation-filters="sRGB">
<feFlood flood-opacity="0" result="BackgroundImageFix"/>
<feColorMatrix in="SourceAlpha" type="matrix" values="0 0 0 0 0 0 0 0 0 0 0 0 0 0 0 0 0 0 127 0" result="hardAlpha"/>
<feOffset dy="3.66791"/>
<feGaussianBlur stdDeviation="22.0503"/>
<feComposite in2="hardAlpha" operator="out"/>
<feColorMatrix type="matrix" values="0 0 0 0 0.506336 0 0 0 0 0.118457 0 0 0 0 1 0 0 0 1 0"/>
<feBlend mode="soft-light" in2="BackgroundImageFix" result="effect1_dropShadow_11297_24736"/>
<feBlend mode="normal" in="SourceGraphic" in2="effect1_dropShadow_11297_24736" result="shape"/>
</filter>
<filter id="filter23_f_11297_24736" x="86.4207" y="35.2703" width="129.478" height="129.478" filterUnits="userSpaceOnUse" color-interpolation-filters="sRGB">
<feFlood flood-opacity="0" result="BackgroundImageFix"/>
<feBlend mode="normal" in="SourceGraphic" in2="BackgroundImageFix" result="shape"/>
<feGaussianBlur stdDeviation="21.4991" result="effect1_foregroundBlur_11297_24736"/>
</filter>
<filter id="filter24_f_11297_24736" x="52.2642" y="87.5611" width="65.3929" height="65.3934" filterUnits="userSpaceOnUse" color-interpolation-filters="sRGB">
<feFlood flood-opacity="0" result="BackgroundImageFix"/>
<feBlend mode="normal" in="SourceGraphic" in2="BackgroundImageFix" result="shape"/>
<feGaussianBlur stdDeviation="10.8581" result="effect1_foregroundBlur_11297_24736"/>
</filter>
<filter id="filter25_d_11297_24736" x="63.4267" y="98.4271" width="77.0495" height="67.1964" filterUnits="userSpaceOnUse" color-interpolation-filters="sRGB">
<feFlood flood-opacity="0" result="BackgroundImageFix"/>
<feColorMatrix in="SourceAlpha" type="matrix" values="0 0 0 0 0 0 0 0 0 0 0 0 0 0 0 0 0 0 127 0" result="hardAlpha"/>
<feOffset dy="1.85248"/>
<feGaussianBlur stdDeviation="11.1365"/>
<feComposite in2="hardAlpha" operator="out"/>
<feColorMatrix type="matrix" values="0 0 0 0 0.506336 0 0 0 0 0.118457 0 0 0 0 1 0 0 0 1 0"/>
<feBlend mode="soft-light" in2="BackgroundImageFix" result="effect1_dropShadow_11297_24736"/>
<feBlend mode="normal" in="SourceGraphic" in2="effect1_dropShadow_11297_24736" result="shape"/>
</filter>
<filter id="filter26_d_11297_24736" x="78.4165" y="98.3906" width="47.4595" height="35.8535" filterUnits="userSpaceOnUse" color-interpolation-filters="sRGB">
<feFlood flood-opacity="0" result="BackgroundImageFix"/>
<feColorMatrix in="SourceAlpha" type="matrix" values="0 0 0 0 0 0 0 0 0 0 0 0 0 0 0 0 0 0 127 0" result="hardAlpha"/>
<feOffset dy="-4"/>
<feGaussianBlur stdDeviation="5"/>
<feComposite in2="hardAlpha" operator="out"/>
<feColorMatrix type="matrix" values="0 0 0 0 0.86125 0 0 0 0 0.87883 0 0 0 0 0.975 0 0 0 0.5 0"/>
<feBlend mode="normal" in2="BackgroundImageFix" result="effect1_dropShadow_11297_24736"/>
<feBlend mode="normal" in="SourceGraphic" in2="effect1_dropShadow_11297_24736" result="shape"/>
</filter>
<filter id="filter27_f_11297_24736" x="114.801" y="132.198" width="65.3929" height="65.3934" filterUnits="userSpaceOnUse" color-interpolation-filters="sRGB">
<feFlood flood-opacity="0" result="BackgroundImageFix"/>
<feBlend mode="normal" in="SourceGraphic" in2="BackgroundImageFix" result="shape"/>
<feGaussianBlur stdDeviation="10.8581" result="effect1_foregroundBlur_11297_24736"/>
</filter>
<filter id="filter28_d_11297_24736" x="125.964" y="143.064" width="77.0495" height="67.1964" filterUnits="userSpaceOnUse" color-interpolation-filters="sRGB">
<feFlood flood-opacity="0" result="BackgroundImageFix"/>
<feColorMatrix in="SourceAlpha" type="matrix" values="0 0 0 0 0 0 0 0 0 0 0 0 0 0 0 0 0 0 127 0" result="hardAlpha"/>
<feOffset dy="1.85248"/>
<feGaussianBlur stdDeviation="11.1365"/>
<feComposite in2="hardAlpha" operator="out"/>
<feColorMatrix type="matrix" values="0 0 0 0 0.506336 0 0 0 0 0.118457 0 0 0 0 1 0 0 0 1 0"/>
<feBlend mode="soft-light" in2="BackgroundImageFix" result="effect1_dropShadow_11297_24736"/>
<feBlend mode="normal" in="SourceGraphic" in2="effect1_dropShadow_11297_24736" result="shape"/>
</filter>
<filter id="filter29_f_11297_24736" x="114.948" y="115.773" width="65.3929" height="65.3934" filterUnits="userSpaceOnUse" color-interpolation-filters="sRGB">
<feFlood flood-opacity="0" result="BackgroundImageFix"/>
<feBlend mode="normal" in="SourceGraphic" in2="BackgroundImageFix" result="shape"/>
<feGaussianBlur stdDeviation="10.8581" result="effect1_foregroundBlur_11297_24736"/>
</filter>
<filter id="filter30_d_11297_24736" x="126.111" y="126.638" width="77.0495" height="67.1964" filterUnits="userSpaceOnUse" color-interpolation-filters="sRGB">
<feFlood flood-opacity="0" result="BackgroundImageFix"/>
<feColorMatrix in="SourceAlpha" type="matrix" values="0 0 0 0 0 0 0 0 0 0 0 0 0 0 0 0 0 0 127 0" result="hardAlpha"/>
<feOffset dy="1.85248"/>
<feGaussianBlur stdDeviation="11.1365"/>
<feComposite in2="hardAlpha" operator="out"/>
<feColorMatrix type="matrix" values="0 0 0 0 0.506336 0 0 0 0 0.118457 0 0 0 0 1 0 0 0 1 0"/>
<feBlend mode="soft-light" in2="BackgroundImageFix" result="effect1_dropShadow_11297_24736"/>
<feBlend mode="normal" in="SourceGraphic" in2="effect1_dropShadow_11297_24736" result="shape"/>
</filter>
<filter id="filter31_d_11297_24736" x="141.05" y="126.708" width="47.4595" height="35.8535" filterUnits="userSpaceOnUse" color-interpolation-filters="sRGB">
<feFlood flood-opacity="0" result="BackgroundImageFix"/>
<feColorMatrix in="SourceAlpha" type="matrix" values="0 0 0 0 0 0 0 0 0 0 0 0 0 0 0 0 0 0 127 0" result="hardAlpha"/>
<feOffset dy="-4"/>
<feGaussianBlur stdDeviation="5"/>
<feComposite in2="hardAlpha" operator="out"/>
<feColorMatrix type="matrix" values="0 0 0 0 0.86125 0 0 0 0 0.87883 0 0 0 0 0.975 0 0 0 0.5 0"/>
<feBlend mode="normal" in2="BackgroundImageFix" result="effect1_dropShadow_11297_24736"/>
<feBlend mode="normal" in="SourceGraphic" in2="effect1_dropShadow_11297_24736" result="shape"/>
</filter>
<filter id="filter32_f_11297_24736" x="200.853" y="118.407" width="65.3929" height="65.3934" filterUnits="userSpaceOnUse" color-interpolation-filters="sRGB">
<feFlood flood-opacity="0" result="BackgroundImageFix"/>
<feBlend mode="normal" in="SourceGraphic" in2="BackgroundImageFix" result="shape"/>
<feGaussianBlur stdDeviation="10.8581" result="effect1_foregroundBlur_11297_24736"/>
</filter>
<filter id="filter33_d_11297_24736" x="212.016" y="129.272" width="77.0495" height="67.1964" filterUnits="userSpaceOnUse" color-interpolation-filters="sRGB">
<feFlood flood-opacity="0" result="BackgroundImageFix"/>
<feColorMatrix in="SourceAlpha" type="matrix" values="0 0 0 0 0 0 0 0 0 0 0 0 0 0 0 0 0 0 127 0" result="hardAlpha"/>
<feOffset dy="1.85248"/>
<feGaussianBlur stdDeviation="11.1365"/>
<feComposite in2="hardAlpha" operator="out"/>
<feColorMatrix type="matrix" values="0 0 0 0 0.506336 0 0 0 0 0.118457 0 0 0 0 1 0 0 0 1 0"/>
<feBlend mode="soft-light" in2="BackgroundImageFix" result="effect1_dropShadow_11297_24736"/>
<feBlend mode="normal" in="SourceGraphic" in2="effect1_dropShadow_11297_24736" result="shape"/>
</filter>
<filter id="filter34_f_11297_24736" x="200.853" y="102.491" width="65.3929" height="65.3934" filterUnits="userSpaceOnUse" color-interpolation-filters="sRGB">
<feFlood flood-opacity="0" result="BackgroundImageFix"/>
<feBlend mode="normal" in="SourceGraphic" in2="BackgroundImageFix" result="shape"/>
<feGaussianBlur stdDeviation="10.8581" result="effect1_foregroundBlur_11297_24736"/>
</filter>
<filter id="filter35_d_11297_24736" x="212.016" y="113.356" width="77.0495" height="67.1964" filterUnits="userSpaceOnUse" color-interpolation-filters="sRGB">
<feFlood flood-opacity="0" result="BackgroundImageFix"/>
<feColorMatrix in="SourceAlpha" type="matrix" values="0 0 0 0 0 0 0 0 0 0 0 0 0 0 0 0 0 0 127 0" result="hardAlpha"/>
<feOffset dy="1.85248"/>
<feGaussianBlur stdDeviation="11.1365"/>
<feComposite in2="hardAlpha" operator="out"/>
<feColorMatrix type="matrix" values="0 0 0 0 0.506336 0 0 0 0 0.118457 0 0 0 0 1 0 0 0 1 0"/>
<feBlend mode="soft-light" in2="BackgroundImageFix" result="effect1_dropShadow_11297_24736"/>
<feBlend mode="normal" in="SourceGraphic" in2="effect1_dropShadow_11297_24736" result="shape"/>
</filter>
<filter id="filter36_d_11297_24736" x="227.005" y="113.382" width="47.4595" height="35.8535" filterUnits="userSpaceOnUse" color-interpolation-filters="sRGB">
<feFlood flood-opacity="0" result="BackgroundImageFix"/>
<feColorMatrix in="SourceAlpha" type="matrix" values="0 0 0 0 0 0 0 0 0 0 0 0 0 0 0 0 0 0 127 0" result="hardAlpha"/>
<feOffset dy="-4"/>
<feGaussianBlur stdDeviation="5"/>
<feComposite in2="hardAlpha" operator="out"/>
<feColorMatrix type="matrix" values="0 0 0 0 0.86125 0 0 0 0 0.87883 0 0 0 0 0.975 0 0 0 0.5 0"/>
<feBlend mode="normal" in2="BackgroundImageFix" result="effect1_dropShadow_11297_24736"/>
<feBlend mode="normal" in="SourceGraphic" in2="effect1_dropShadow_11297_24736" result="shape"/>
</filter>
<linearGradient id="paint0_linear_11297_24736" x1="54.2688" y1="0" x2="54.2688" y2="77.8254" gradientUnits="userSpaceOnUse">
<stop stop-color="#6218FF" stop-opacity="0"/>
<stop offset="1" stop-color="#6117FF"/>
</linearGradient>
<linearGradient id="paint1_linear_11297_24736" x1="122.258" y1="109.517" x2="242.619" y2="193.241" gradientUnits="userSpaceOnUse">
<stop offset="0.015625" stop-color="#B010FB"/>
<stop offset="0.130208" stop-color="#DE97FF"/>
<stop offset="0.234375" stop-color="#A227DB"/>
<stop offset="0.505208" stop-color="#A227DB" stop-opacity="0"/>
<stop offset="0.765625" stop-color="#A610EC" stop-opacity="0.84"/>
</linearGradient>
<linearGradient id="paint2_linear_11297_24736" x1="112.282" y1="67.4259" x2="131.501" y2="100.515" gradientUnits="userSpaceOnUse">
<stop offset="0.015625" stop-color="#B010FB"/>
<stop offset="0.130208" stop-color="#DE97FF"/>
<stop offset="0.234375" stop-color="#A227DB"/>
<stop offset="0.505208" stop-color="#A227DB" stop-opacity="0"/>
<stop offset="0.765625" stop-color="#A610EC" stop-opacity="0.84"/>
</linearGradient>
<linearGradient id="paint3_linear_11297_24736" x1="112.429" y1="51.3341" x2="131.648" y2="84.4237" gradientUnits="userSpaceOnUse">
<stop offset="0.015625" stop-color="#B010FB"/>
<stop offset="0.130208" stop-color="#DE97FF"/>
<stop offset="0.234375" stop-color="#A227DB"/>
<stop offset="0.505208" stop-color="#A227DB" stop-opacity="0"/>
<stop offset="0.765625" stop-color="#A610EC" stop-opacity="0.84"/>
</linearGradient>
<linearGradient id="paint4_linear_11297_24736" x1="248.209" y1="83.9152" x2="267.428" y2="117.005" gradientUnits="userSpaceOnUse">
<stop offset="0.015625" stop-color="#B010FB"/>
<stop offset="0.130208" stop-color="#DE97FF"/>
<stop offset="0.234375" stop-color="#A227DB"/>
<stop offset="0.505208" stop-color="#A227DB" stop-opacity="0"/>
<stop offset="0.765625" stop-color="#A610EC" stop-opacity="0.84"/>
</linearGradient>
<linearGradient id="paint5_linear_11297_24736" x1="248.122" y1="66.7941" x2="267.341" y2="99.8836" gradientUnits="userSpaceOnUse">
<stop offset="0.015625" stop-color="#B010FB"/>
<stop offset="0.130208" stop-color="#DE97FF"/>
<stop offset="0.234375" stop-color="#A227DB"/>
<stop offset="0.505208" stop-color="#A227DB" stop-opacity="0"/>
<stop offset="0.765625" stop-color="#A610EC" stop-opacity="0.84"/>
</linearGradient>
<linearGradient id="paint6_linear_11297_24736" x1="184.735" y1="50.591" x2="203.954" y2="83.6805" gradientUnits="userSpaceOnUse">
<stop offset="0.015625" stop-color="#B010FB"/>
<stop offset="0.130208" stop-color="#DE97FF"/>
<stop offset="0.234375" stop-color="#A227DB"/>
<stop offset="0.505208" stop-color="#A227DB" stop-opacity="0"/>
<stop offset="0.765625" stop-color="#A610EC" stop-opacity="0.84"/>
</linearGradient>
<linearGradient id="paint7_linear_11297_24736" x1="153.141" y1="83.4817" x2="191.195" y2="148.999" gradientUnits="userSpaceOnUse">
<stop offset="0.015625" stop-color="#B010FB"/>
<stop offset="0.130208" stop-color="#DE97FF"/>
<stop offset="0.234375" stop-color="#A227DB"/>
<stop offset="0.505208" stop-color="#A227DB" stop-opacity="0"/>
<stop offset="0.765625" stop-color="#A610EC" stop-opacity="0.84"/>
</linearGradient>
<linearGradient id="paint8_linear_11297_24736" x1="153.141" y1="83.4807" x2="191.195" y2="148.998" gradientUnits="userSpaceOnUse">
<stop offset="0.015625" stop-color="#B010FB"/>
<stop offset="0.130208" stop-color="#DE97FF"/>
<stop offset="0.234375" stop-color="#A227DB"/>
<stop offset="0.505208" stop-color="#A227DB" stop-opacity="0"/>
<stop offset="0.765625" stop-color="#A610EC" stop-opacity="0.84"/>
</linearGradient>
<linearGradient id="paint9_linear_11297_24736" x1="85.961" y1="111.91" x2="105.18" y2="145" gradientUnits="userSpaceOnUse">
<stop offset="0.015625" stop-color="#B010FB"/>
<stop offset="0.130208" stop-color="#DE97FF"/>
<stop offset="0.234375" stop-color="#A227DB"/>
<stop offset="0.505208" stop-color="#A227DB" stop-opacity="0"/>
<stop offset="0.765625" stop-color="#A610EC" stop-opacity="0.84"/>
</linearGradient>
<linearGradient id="paint10_linear_11297_24736" x1="88.1534" y1="87.5174" x2="95.22" y2="115.313" gradientUnits="userSpaceOnUse">
<stop stop-color="#55BAF3" stop-opacity="0"/>
<stop offset="1" stop-color="#55BAF3" stop-opacity="0.5"/>
</linearGradient>
<linearGradient id="paint11_linear_11297_24736" x1="116.455" y1="87.5174" x2="109.388" y2="115.313" gradientUnits="userSpaceOnUse">
<stop stop-color="#55BAF3" stop-opacity="0"/>
<stop offset="1" stop-color="#55BAF3" stop-opacity="0.5"/>
</linearGradient>
<linearGradient id="paint12_linear_11297_24736" x1="148.498" y1="156.547" x2="167.717" y2="189.637" gradientUnits="userSpaceOnUse">
<stop offset="0.015625" stop-color="#B010FB"/>
<stop offset="0.130208" stop-color="#DE97FF"/>
<stop offset="0.234375" stop-color="#A227DB"/>
<stop offset="0.505208" stop-color="#A227DB" stop-opacity="0"/>
<stop offset="0.765625" stop-color="#A610EC" stop-opacity="0.84"/>
</linearGradient>
<linearGradient id="paint13_linear_11297_24736" x1="148.646" y1="140.122" x2="167.865" y2="173.212" gradientUnits="userSpaceOnUse">
<stop offset="0.015625" stop-color="#B010FB"/>
<stop offset="0.130208" stop-color="#DE97FF"/>
<stop offset="0.234375" stop-color="#A227DB"/>
<stop offset="0.505208" stop-color="#A227DB" stop-opacity="0"/>
<stop offset="0.765625" stop-color="#A610EC" stop-opacity="0.84"/>
</linearGradient>
<linearGradient id="paint14_linear_11297_24736" x1="234.549" y1="142.755" x2="253.768" y2="175.845" gradientUnits="userSpaceOnUse">
<stop offset="0.015625" stop-color="#B010FB"/>
<stop offset="0.130208" stop-color="#DE97FF"/>
<stop offset="0.234375" stop-color="#A227DB"/>
<stop offset="0.505208" stop-color="#A227DB" stop-opacity="0"/>
<stop offset="0.765625" stop-color="#A610EC" stop-opacity="0.84"/>
</linearGradient>
<linearGradient id="paint15_linear_11297_24736" x1="234.549" y1="126.839" x2="253.768" y2="159.929" gradientUnits="userSpaceOnUse">
<stop offset="0.015625" stop-color="#B010FB"/>
<stop offset="0.130208" stop-color="#DE97FF"/>
<stop offset="0.234375" stop-color="#A227DB"/>
<stop offset="0.505208" stop-color="#A227DB" stop-opacity="0"/>
<stop offset="0.765625" stop-color="#A610EC" stop-opacity="0.84"/>
</linearGradient>
<linearGradient id="paint16_linear_11297_24736" x1="250.401" y1="41.2782" x2="257.468" y2="69.0738" gradientUnits="userSpaceOnUse">
<stop stop-color="#55BAF3" stop-opacity="0"/>
<stop offset="1" stop-color="#55BAF3" stop-opacity="0.5"/>
</linearGradient>
<linearGradient id="paint17_linear_11297_24736" x1="278.703" y1="41.2782" x2="271.636" y2="69.0738" gradientUnits="userSpaceOnUse">
<stop stop-color="#55BAF3" stop-opacity="0"/>
<stop offset="1" stop-color="#55BAF3" stop-opacity="0.5"/>
</linearGradient>
<linearGradient id="paint18_linear_11297_24736" x1="236.742" y1="102.35" x2="243.809" y2="130.146" gradientUnits="userSpaceOnUse">
<stop stop-color="#55BAF3" stop-opacity="0"/>
<stop offset="1" stop-color="#55BAF3" stop-opacity="0.5"/>
</linearGradient>
<linearGradient id="paint19_linear_11297_24736" x1="265.043" y1="102.35" x2="257.977" y2="130.146" gradientUnits="userSpaceOnUse">
<stop stop-color="#55BAF3" stop-opacity="0"/>
<stop offset="1" stop-color="#55BAF3" stop-opacity="0.5"/>
</linearGradient>
<clipPath id="clip0_11297_24736">
<rect width="268.525" height="200.228" fill="white" transform="translate(50.7373 14.8828)"/>
</clipPath>
</defs>
</svg>
