<?xml version="1.0" encoding="utf-8"?>
<svg xmlns="http://www.w3.org/2000/svg" height="691px" version="1.1" viewBox="-0.5 -0.5 1083 691" width="1083px">
  <defs/>
  <g>
    <rect fill="#ccffcc" height="97.74" pointer-events="none" rx="1" ry="1" stroke="#99ff33" width="170.34" x="43.66" y="213.14"/>
    <image height="46.5" pointer-events="none" preserveAspectRatio="none" width="93" x="123.5" y="263.88"/>
    <image height="50" pointer-events="none" preserveAspectRatio="none" width="100" x="32.76" y="220.38"/>
    <path d="M 43.66 310.88 L 214 213.14" fill="none" pointer-events="none" stroke="#ffffff" stroke-dasharray="3 3" stroke-miterlimit="10"/>
    <g transform="translate(-0.5 -0.5)">
      <switch>
        <text fill="#808080" font-family="Helvetica" font-size="10px" text-anchor="middle" x="129" y="265">OR</text>
      </switch>
    </g>
    <rect fill="#000000" height="600" opacity="0.25" pointer-events="none" rx="1" ry="1" stroke="#000000" transform="translate(2,3)" width="520" x="271" y="0"/>
    <rect fill="rgb(255, 255, 255)" height="600" pointer-events="none" rx="1" ry="1" stroke="rgb(0, 0, 0)" width="520" x="271" y="0"/>
    <path d="M 289.45 51.33 C 288.57 51.33 287.87 50.73 287.22 49.89 L 276.71 36.86 C 276 35.92 276.01 34.68 276.43 33.18 L 280.02 17.64 C 280.34 16.34 281.11 15.77 282.28 15.31 L 296.76 8.37 C 298.08 7.67 299.04 7.75 300.05 8.3 L 315.16 15.49 C 316.1 15.96 316.78 16.65 316.98 17.52 L 320.71 33.65 C 321 34.72 320.98 35.86 320.6 36.42 L 309.89 49.83 C 309.25 50.62 308.48 51.33 307.48 51.33 Z" fill="#5184f3" pointer-events="none" stroke="none"/>
    <path d="M 298.53 32.03 L 299.79 31.43 L 300.12 30.06 L 299.22 28.96 L 297.77 28.98 L 296.9 30.08 L 297.27 31.43 Z M 289.54 33.8 C 290.28 35.68 291.56 37.23 293.23 38.47 L 294.88 34.43 C 295.05 34.1 295.21 33.59 294.96 33.23 C 294.71 32.9 294.29 32.96 293.78 33.07 Z M 290.26 25.44 C 289.32 27.11 288.8 29.14 288.9 31.33 L 293.14 30.12 C 293.58 30 294.05 29.75 294.11 29.42 C 294.18 29.12 293.91 28.76 293.56 28.45 Z M 297.24 20.85 C 294.82 21.34 293.11 22.29 291.86 23.56 L 295.45 26.04 C 295.74 26.26 296.19 26.52 296.5 26.39 C 296.89 26.19 297.03 25.87 297.04 25.39 Z M 305.14 23.52 C 303.62 22.12 301.72 21.17 299.76 20.88 L 299.99 25.2 C 299.99 25.66 300.13 26.12 300.42 26.33 C 300.81 26.54 301.32 26.23 301.74 25.92 Z M 308.17 31.38 C 308.26 28.92 307.56 26.93 306.72 25.46 L 303.41 28.42 C 303.17 28.61 302.85 28.94 302.89 29.34 C 302.96 29.76 303.24 29.9 303.68 30.04 Z M 303.81 38.48 C 305.33 37.43 306.66 35.87 307.53 33.81 L 303.1 33.05 C 302.59 32.96 302.3 32.95 302.07 33.21 C 301.81 33.51 301.89 33.79 302.04 34.2 Z M 295.52 39.55 C 297.35 40.15 299.49 40.15 301.54 39.57 L 299.33 35.62 C 299.12 35.24 298.88 34.96 298.52 34.96 C 298.11 34.96 297.9 35.29 297.72 35.67 Z M 294.2 41.83 L 294.11 42.2 C 293.76 42.27 293.49 42.51 293.28 43.01 C 292.81 44.23 292.91 44.6 292.45 45.36 C 292.21 45.77 291.54 45.92 291.09 45.69 C 290.62 45.44 290.39 44.79 290.74 44.15 L 291.85 42.47 C 292.11 42.08 292.25 41.68 292.06 41.28 L 292.28 40.94 C 289.57 39.25 287.64 36.81 286.94 34.16 L 286.52 34.29 C 286.32 34.08 286.08 34.02 285.62 34.13 C 284.47 34.39 284.12 34.86 282.98 34.99 C 282.5 35.02 282.04 34.62 281.99 34.16 C 281.94 33.74 282.05 33.2 282.72 32.96 C 283.46 32.75 283.81 32.89 284.99 32.82 C 285.56 32.77 285.91 32.5 285.99 32.14 L 286.43 32.04 C 286.16 29 286.5 26.13 288.36 23.71 L 288 23.4 C 287.94 23.06 287.81 22.84 287.47 22.6 C 286.69 22.04 286.23 21.98 285.44 21.32 C 285.02 20.95 284.9 20.35 285.18 19.86 C 285.52 19.37 286.36 19.38 286.71 19.67 C 287.66 20.41 287.94 21 288.58 21.51 C 288.93 21.81 289.09 21.72 289.3 21.69 L 289.67 21.94 C 291.93 19.56 294.58 18.49 297.46 18.26 L 297.46 17.87 C 297.64 17.76 297.81 17.54 297.81 17.13 C 297.81 16.13 297.52 15.55 297.44 14.57 C 297.39 14.02 297.92 13.45 298.48 13.45 C 298.95 13.45 299.51 13.93 299.51 14.48 C 299.57 15.41 299.27 15.87 299.21 17.11 C 299.18 17.46 299.35 17.74 299.57 17.84 L 299.58 18.26 C 302.67 18.5 305.42 19.93 307.31 21.99 L 307.73 21.71 C 308.02 21.75 308.21 21.71 308.46 21.5 C 309.3 20.85 309.31 20.44 310.32 19.65 C 310.68 19.4 311.34 19.34 311.78 19.84 C 312.12 20.25 311.97 20.91 311.69 21.16 C 310.84 21.95 310.34 21.87 309.3 22.76 C 309.04 22.97 308.99 23.14 309.07 23.38 L 308.67 23.72 C 310.6 26.45 310.99 29.53 310.6 31.98 L 310.95 32.04 C 310.99 32.28 311.17 32.47 311.47 32.57 C 312.48 32.82 313.67 32.7 314.36 32.93 C 314.81 33.1 315.2 33.57 315.04 34.23 C 314.89 34.79 314.41 35 313.94 34.98 C 313.4 34.95 312.02 34.25 311.29 34.08 C 310.97 33.99 310.79 34.01 310.6 34.2 L 310.16 34.14 C 309.28 36.48 307.97 39 304.77 40.89 L 304.93 41.23 C 304.81 41.53 304.84 41.75 305.09 42.3 C 305.54 43.24 306.17 43.72 306.38 44.25 C 306.61 44.91 306.36 45.5 305.87 45.72 C 305.37 45.92 304.73 45.76 304.41 45.1 C 304.07 44.41 304.09 43.86 303.67 42.95 C 303.48 42.5 303.31 42.28 303.01 42.2 L 302.84 41.82 C 300.3 42.95 296.61 42.86 294.2 41.83 Z" fill="#ffffff" pointer-events="none" stroke="none"/>
    <g transform="translate(-0.5 -0.5)">
      <switch>
        <text fill="#999999" font-family="Helvetica" font-size="12px" x="328" y="33">Kubernet...</text>
      </switch>
    </g>
    <rect fill="#000000" height="50" opacity="0.25" pointer-events="none" rx="1" ry="1" stroke="#000000" transform="translate(2,3)" width="180" x="451" y="40"/>
    <rect fill="rgb(255, 255, 255)" height="50" pointer-events="none" rx="1" ry="1" stroke="#dddddd" width="180" x="451" y="40"/>
    <path d="M 469.19 84.5 C 467.7 84.5 466.28 83.7 465.53 82.21 L 456.79 66.91 C 456 65.57 456.13 64.02 456.79 62.91 L 465.61 47.61 C 466.36 46.21 467.69 45.5 469.05 45.5 L 486.75 45.5 C 488.07 45.5 489.37 46.15 490.15 47.45 L 498.94 62.74 C 500 64.35 499.64 66.07 499.04 67.03 L 490.3 82.23 C 489.71 83.46 488.39 84.5 486.69 84.5 Z" fill="#5184f3" pointer-events="none" stroke="none"/>
    <path d="M 483.29 84.5 L 469.1 70.25 L 470.13 60.28 L 477.99 56.11 L 486.74 59.67 L 497.19 70.23 L 490.3 82.23 C 489.72 83.46 488.39 84.5 486.69 84.5 Z" fill="#000000" fill-opacity="0.07" pointer-events="none" stroke="none"/>
    <path d="M 477.9 73.49 L 484.73 69.51 L 482.15 67.98 L 478.29 70.18 L 478.29 65.23 L 482.6 62.67 L 482.6 67.1 L 485.27 68.62 L 485.27 60.82 L 478.47 56.83 L 478.47 59.91 L 482.28 62.05 L 477.92 64.62 L 473.59 62.06 L 477.4 59.89 L 477.4 56.82 L 470.6 60.82 L 470.6 68.61 L 473.21 67.04 L 473.21 62.64 L 477.57 65.23 L 477.57 70.21 L 473.76 67.98 L 471.12 69.54 Z M 478.48 75.13 C 478.04 75.37 477.6 75.29 477.12 75.02 L 469.4 70.49 C 468.96 70.2 468.88 70 468.88 69.54 L 468.88 60.38 C 468.88 59.97 469.02 59.68 469.42 59.45 L 477.18 54.93 C 477.73 54.64 478.2 54.64 478.71 54.98 L 486.52 59.52 C 486.9 59.73 486.97 60.03 486.97 60.43 L 486.97 69.52 C 486.97 69.95 486.79 70.34 486.45 70.52 Z" fill="#ffffff" pointer-events="none" stroke="none"/>
    <g transform="translate(-0.5 -0.5)">
      <switch>
        <text fill="#999999" font-family="Helvetica" font-size="12px" x="507" y="57">Schedule...</text>
      </switch>
    </g>
    <rect fill="#000000" height="51.12" opacity="0.25" pointer-events="none" rx="1" ry="1" stroke="#000000" transform="translate(2,3)" width="170" x="459" y="216"/>
    <rect fill="rgb(255, 255, 255)" height="51.12" pointer-events="none" rx="1" ry="1" stroke="#dddddd" width="170" x="459" y="216"/>
    <rect fill="#000000" height="51.12" opacity="0.25" pointer-events="none" rx="1" ry="1" stroke="#000000" transform="translate(2,3)" width="170" x="451" y="208"/>
    <rect fill="rgb(255, 255, 255)" height="51.12" pointer-events="none" rx="1" ry="1" stroke="#dddddd" width="170" x="451" y="208"/>
    <path d="M 469.19 254 C 467.7 254 466.28 253.2 465.53 251.71 L 456.79 236.41 C 456 235.07 456.13 233.52 456.79 232.41 L 465.61 217.11 C 466.36 215.71 467.69 215 469.05 215 L 486.75 215 C 488.07 215 489.37 215.65 490.15 216.95 L 498.94 232.24 C 500 233.85 499.64 235.57 499.04 236.53 L 490.3 251.73 C 489.71 252.96 488.39 254 486.69 254 Z" fill="#5184f3" pointer-events="none" stroke="none"/>
    <path d="M 483.29 254 L 469.1 239.75 L 470.13 229.78 L 477.99 225.61 L 486.74 229.17 L 497.19 239.73 L 490.3 251.73 C 489.72 252.96 488.39 254 486.69 254 Z" fill="#000000" fill-opacity="0.07" pointer-events="none" stroke="none"/>
    <path d="M 477.9 242.99 L 484.73 239.01 L 482.15 237.48 L 478.29 239.68 L 478.29 234.73 L 482.6 232.17 L 482.6 236.6 L 485.27 238.12 L 485.27 230.32 L 478.47 226.33 L 478.47 229.41 L 482.28 231.55 L 477.92 234.12 L 473.59 231.56 L 477.4 229.39 L 477.4 226.32 L 470.6 230.32 L 470.6 238.11 L 473.21 236.54 L 473.21 232.14 L 477.57 234.73 L 477.57 239.71 L 473.76 237.48 L 471.12 239.04 Z M 478.48 244.63 C 478.04 244.87 477.6 244.79 477.12 244.52 L 469.4 239.99 C 468.96 239.7 468.88 239.5 468.88 239.04 L 468.88 229.88 C 468.88 229.47 469.02 229.18 469.42 228.95 L 477.18 224.43 C 477.73 224.14 478.2 224.14 478.71 224.48 L 486.52 229.02 C 486.9 229.23 486.97 229.53 486.97 229.93 L 486.97 239.02 C 486.97 239.45 486.79 239.84 486.45 240.02 Z" fill="#ffffff" pointer-events="none" stroke="none"/>
    <g transform="translate(-0.5 -0.5)">
      <switch>
        <text fill="#999999" font-family="Helvetica" font-size="12px" x="507" y="226">Executor...</text>
      </switch>
    </g>
    <path d="M 630 379.44 L 630 390 L 838.63 390" fill="none" pointer-events="none" stroke="#ff00ff" stroke-miterlimit="10"/>
    <path d="M 843.88 390 L 836.88 393.5 L 838.63 390 L 836.88 386.5 Z" fill="#ff00ff" pointer-events="none" stroke="#ff00ff" stroke-miterlimit="10"/>
    <path d="M 445.63 394.72 L 171.4 394.7 L 171.41 317.25" fill="none" pointer-events="none" stroke="#00cc00" stroke-miterlimit="10"/>
    <path d="M 450.88 394.72 L 443.88 398.22 L 445.63 394.72 L 443.88 391.22 Z" fill="#00cc00" pointer-events="none" stroke="#00cc00" stroke-miterlimit="10"/>
    <path d="M 171.41 312 L 174.91 319 L 171.41 317.25 L 167.91 319 Z" fill="#00cc00" pointer-events="none" stroke="#00cc00" stroke-miterlimit="10"/>
    <rect fill="#000000" height="53.12" opacity="0.25" pointer-events="none" rx="1" ry="1" stroke="#000000" transform="translate(2,3)" width="170" x="460" y="356.88"/>
    <rect fill="rgb(255, 255, 255)" height="53.12" pointer-events="none" rx="1" ry="1" stroke="#dddddd" width="170" x="460" y="356.88"/>
    <rect fill="#000000" height="53.12" opacity="0.25" pointer-events="none" rx="1" ry="1" stroke="#000000" transform="translate(2,3)" width="170" x="452" y="348.88"/>
    <rect fill="rgb(255, 255, 255)" height="53.12" pointer-events="none" rx="1" ry="1" stroke="#dddddd" width="170" x="452" y="348.88"/>
    <path d="M 470.19 394.88 C 468.7 394.88 467.28 394.08 466.53 392.59 L 457.79 377.29 C 457 375.95 457.13 374.4 457.79 373.29 L 466.61 357.99 C 467.36 356.59 468.69 355.88 470.05 355.88 L 487.75 355.88 C 489.07 355.88 490.37 356.53 491.15 357.83 L 499.94 373.12 C 501 374.73 500.64 376.45 500.04 377.41 L 491.3 392.61 C 490.71 393.84 489.39 394.88 487.69 394.88 Z" fill="#5184f3" pointer-events="none" stroke="none"/>
    <path d="M 484.29 394.88 L 470.1 380.63 L 471.13 370.66 L 478.99 366.49 L 487.74 370.05 L 498.19 380.61 L 491.3 392.61 C 490.72 393.84 489.39 394.88 487.69 394.88 Z" fill="#000000" fill-opacity="0.07" pointer-events="none" stroke="none"/>
    <path d="M 478.9 383.87 L 485.73 379.89 L 483.15 378.36 L 479.29 380.56 L 479.29 375.61 L 483.6 373.05 L 483.6 377.48 L 486.27 379 L 486.27 371.2 L 479.47 367.21 L 479.47 370.29 L 483.28 372.43 L 478.92 375 L 474.59 372.44 L 478.4 370.27 L 478.4 367.2 L 471.6 371.2 L 471.6 378.99 L 474.21 377.42 L 474.21 373.02 L 478.57 375.61 L 478.57 380.59 L 474.76 378.36 L 472.12 379.92 Z M 479.48 385.51 C 479.04 385.75 478.6 385.67 478.12 385.4 L 470.4 380.87 C 469.96 380.58 469.88 380.38 469.88 379.92 L 469.88 370.76 C 469.88 370.35 470.02 370.06 470.42 369.83 L 478.18 365.31 C 478.73 365.02 479.2 365.02 479.71 365.36 L 487.52 369.9 C 487.9 370.11 487.97 370.41 487.97 370.81 L 487.97 379.9 C 487.97 380.33 487.79 380.72 487.45 380.9 Z" fill="#ffffff" pointer-events="none" stroke="none"/>
    <g transform="translate(-0.5 -0.5)">
      <switch>
        <text fill="#999999" font-family="Helvetica" font-size="12px" x="508" y="367">Worker...</text>
      </switch>
    </g>
    <path d="M 450.63 530 L 128.8 530 L 128.83 317.25" fill="none" pointer-events="none" stroke="#00cc00" stroke-miterlimit="10"/>
    <path d="M 455.88 530 L 448.88 533.5 L 450.63 530 L 448.88 526.5 Z" fill="#00cc00" pointer-events="none" stroke="#00cc00" stroke-miterlimit="10"/>
    <path d="M 128.83 312 L 132.33 319 L 128.83 317.25 L 125.33 319 Z" fill="#00cc00" pointer-events="none" stroke="#00cc00" stroke-miterlimit="10"/>
    <rect fill="#000000" height="52" opacity="0.25" pointer-events="none" rx="1" ry="1" stroke="#000000" transform="translate(2,3)" width="170" x="465" y="508"/>
    <rect fill="rgb(255, 255, 255)" height="52" pointer-events="none" rx="1" ry="1" stroke="#dddddd" width="170" x="465" y="508"/>
    <rect fill="#000000" height="52" opacity="0.25" pointer-events="none" rx="1" ry="1" stroke="#000000" transform="translate(2,3)" width="170" x="457" y="500"/>
    <rect fill="rgb(255, 255, 255)" height="52" pointer-events="none" rx="1" ry="1" stroke="#dddddd" width="170" x="457" y="500"/>
    <path d="M 475.19 546 C 473.7 546 472.28 545.2 471.53 543.71 L 462.79 528.41 C 462 527.07 462.13 525.52 462.79 524.41 L 471.61 509.11 C 472.36 507.71 473.69 507 475.05 507 L 492.75 507 C 494.07 507 495.37 507.65 496.15 508.95 L 504.94 524.24 C 506 525.85 505.64 527.57 505.04 528.53 L 496.3 543.73 C 495.71 544.96 494.39 546 492.69 546 Z" fill="#5184f3" pointer-events="none" stroke="none"/>
    <path d="M 489.29 546 L 475.1 531.75 L 476.13 521.78 L 483.99 517.61 L 492.74 521.17 L 503.19 531.73 L 496.3 543.73 C 495.72 544.96 494.39 546 492.69 546 Z" fill="#000000" fill-opacity="0.07" pointer-events="none" stroke="none"/>
    <path d="M 483.9 534.99 L 490.73 531.01 L 488.15 529.48 L 484.29 531.68 L 484.29 526.73 L 488.6 524.17 L 488.6 528.6 L 491.27 530.12 L 491.27 522.32 L 484.47 518.33 L 484.47 521.41 L 488.28 523.55 L 483.92 526.12 L 479.59 523.56 L 483.4 521.39 L 483.4 518.32 L 476.6 522.32 L 476.6 530.11 L 479.21 528.54 L 479.21 524.14 L 483.57 526.73 L 483.57 531.71 L 479.76 529.48 L 477.12 531.04 Z M 484.48 536.63 C 484.04 536.87 483.6 536.79 483.12 536.52 L 475.4 531.99 C 474.96 531.7 474.88 531.5 474.88 531.04 L 474.88 521.88 C 474.88 521.47 475.02 521.18 475.42 520.95 L 483.18 516.43 C 483.73 516.14 484.2 516.14 484.71 516.48 L 492.52 521.02 C 492.9 521.23 492.97 521.53 492.97 521.93 L 492.97 531.02 C 492.97 531.45 492.79 531.84 492.45 532.02 Z" fill="#ffffff" pointer-events="none" stroke="none"/>
    <g transform="translate(-0.5 -0.5)">
      <switch>
        <text fill="#999999" font-family="Helvetica" font-size="12px" x="513" y="518">WebServe...</text>
      </switch>
    </g>
    <path d="M 546 643 L 546 566.37" fill="none" pointer-events="none" stroke="rgb(0, 0, 0)" stroke-miterlimit="10"/>
    <path d="M 546 561.12 L 549.5 568.12 L 546 566.37 L 542.5 568.12 Z" fill="rgb(0, 0, 0)" pointer-events="none" stroke="rgb(0, 0, 0)" stroke-miterlimit="10"/>
    <rect fill="#000000" height="44" opacity="0.25" pointer-events="none" rx="1" ry="1" stroke="#000000" transform="translate(2,3)" width="130" x="481" y="643"/>
    <rect fill="rgb(255, 255, 255)" height="44" pointer-events="none" rx="1" ry="1" stroke="#dddddd" width="130" x="481" y="643"/>
    <path d="M 502.04 681 C 493.36 681 486 674.23 486 664.89 C 486 655.84 493.54 649 502.01 649 C 510.8 649 518 656.67 518 664.92 C 518 673.63 510.91 681 502.04 681 Z" fill="#757575" pointer-events="none" stroke="none"/>
    <path d="M 492.82 673.26 L 492.82 667.95 L 495.78 667.95 L 495.78 665.03 C 495.78 664.37 496.27 663.93 497.04 663.93 L 500.86 663.93 L 500.86 662.19 L 497.82 662.19 L 497.82 656.91 L 506.17 656.91 L 506.17 662.19 L 503.16 662.19 L 503.16 663.93 L 506.73 663.93 C 507.65 663.93 508.18 664.53 508.18 665.38 L 508.18 667.95 L 511.12 667.95 L 511.12 673.26 L 503.84 673.26 L 503.84 667.95 L 505.89 667.95 L 505.89 666.25 L 498.08 666.25 L 498.08 667.95 L 500.13 667.95 L 500.13 673.26 Z" fill="#ffffff" pointer-events="none" stroke="none"/>
    <g transform="translate(-0.5 -0.5)">
      <switch>
        <text fill="rgb(0, 0, 0)" font-family="Helvetica" font-size="12px" x="525" y="669">HTTPS...</text>
      </switch>
    </g>
    <path d="M 633 66.77 L 841 66.8 L 844.63 66.87" fill="none" pointer-events="none" stroke="#ff00ff" stroke-miterlimit="10"/>
    <path d="M 849.88 66.98 L 842.81 70.34 L 844.63 66.87 L 842.95 63.34 Z" fill="#ff00ff" pointer-events="none" stroke="#ff00ff" stroke-miterlimit="10"/>
    <path d="M 128.83 206.77 L 128.8 65 L 444.63 65" fill="none" pointer-events="none" stroke="#00cc00" stroke-miterlimit="10"/>
    <path d="M 128.83 212.02 L 126.5 205.02 L 128.83 206.77 L 131.16 205.02 Z" fill="#00cc00" pointer-events="none" stroke="#00cc00" stroke-miterlimit="10"/>
    <path d="M 449.88 65 L 442.88 68.5 L 444.63 65 L 442.88 61.5 Z" fill="#00cc00" pointer-events="none" stroke="#00cc00" stroke-miterlimit="10"/>
    <path d="M 220.37 237.57 L 444.63 237.56" fill="none" pointer-events="none" stroke="#00cc00" stroke-miterlimit="10"/>
    <path d="M 215.12 237.57 L 222.12 234.07 L 220.37 237.57 L 222.12 241.07 Z" fill="#00cc00" pointer-events="none" stroke="#00cc00" stroke-miterlimit="10"/>
    <path d="M 449.88 237.56 L 442.88 241.06 L 444.63 237.56 L 442.88 234.06 Z" fill="#00cc00" pointer-events="none" stroke="#00cc00" stroke-miterlimit="10"/>
    <path d="M 1 460 L 1081 460" fill="none" pointer-events="none" stroke="rgb(0, 0, 0)" stroke-dasharray="2 6" stroke-miterlimit="10" stroke-width="2"/>
    <rect fill="#dae8fc" height="97.74" pointer-events="none" rx="1" ry="1" stroke="#6c8ebf" width="170.34" x="820" y="191.26"/>
    <path d="M 894.74 256.56 C 892.79 256.56 890.91 255.48 889.93 253.45 L 878.43 232.72 C 877.39 230.91 877.56 228.8 878.43 227.29 L 890.03 206.56 C 891.01 204.67 892.77 203.7 894.56 203.7 L 917.85 203.7 C 919.58 203.7 921.3 204.58 922.32 206.35 L 933.88 227.07 C 935.28 229.25 934.8 231.58 934.01 232.88 L 922.51 253.48 C 921.75 255.15 920.01 256.56 917.77 256.56 Z" fill="#5184f3" pointer-events="none" stroke="none"/>
    <path d="M 916.06 256.56 L 896.52 236.42 L 899.63 231.64 L 896.52 228.86 L 915.98 223.87 L 930.62 238.96 L 922.51 253.48 C 921.75 255.15 920.01 256.56 917.77 256.56 Z" fill="#000000" fill-opacity="0.07" pointer-events="none" stroke="none"/>
    <path d="M 912.7 227.34 C 913.22 227.34 913.6 226.88 913.6 226.34 C 913.6 225.55 913.14 225.28 912.72 225.28 C 912 225.28 911.65 225.74 911.65 226.28 C 911.65 226.91 912.09 227.34 912.7 227.34 Z M 896.89 229.04 C 896.64 229.04 896.33 228.77 896.33 228.5 L 896.33 224.34 C 896.33 223.86 896.62 223.69 897.15 223.69 L 915.43 223.69 C 915.87 223.69 916.15 223.79 916.15 224.42 L 916.15 228.26 C 916.15 228.68 915.93 229.04 915.42 229.04 Z M 912.65 234.99 C 913.19 234.99 913.64 234.46 913.64 233.94 C 913.64 233.35 913.3 232.91 912.66 232.91 C 912.06 232.91 911.64 233.27 911.64 233.95 C 911.64 234.43 912.05 234.99 912.65 234.99 Z M 897.08 236.59 C 896.6 236.59 896.33 236.34 896.33 235.96 L 896.33 231.9 C 896.33 231.51 896.58 231.25 897.07 231.25 L 915.26 231.25 C 915.91 231.25 916.15 231.43 916.15 232.06 L 916.15 235.59 C 916.15 236.23 915.91 236.59 915.32 236.59 Z" fill="#ffffff" pointer-events="none" stroke="none"/>
    <g transform="translate(-0.5 -0.5)">
      <switch>
        <text fill="#999999" font-family="Helvetica" font-size="11px" font-weight="bold" text-anchor="middle" x="906" y="281">Internal Storage</text>
      </switch>
    </g>
    <path d="M 635 515 L 741 515 L 741 264.6 L 813.88 264.57" fill="none" pointer-events="none" stroke="#4284f3" stroke-miterlimit="10"/>
    <path d="M 818.88 264.57 L 813.88 266.23 L 813.88 262.9 Z" fill="#4284f3" pointer-events="none" stroke="#4284f3" stroke-miterlimit="10"/>
    <path d="M 630 379.44 L 725 379.4 L 725 240.1 L 813.88 240.13" fill="none" pointer-events="none" stroke="#4284f3" stroke-miterlimit="10"/>
    <path d="M 818.88 240.13 L 813.88 241.79 L 813.88 238.46 Z" fill="#4284f3" pointer-events="none" stroke="#4284f3" stroke-miterlimit="10"/>
    <path d="M 633 83.39 L 726.5 83.4 L 726.5 215.7 L 813.88 215.7" fill="none" pointer-events="none" stroke="#4284f3" stroke-miterlimit="10"/>
    <path d="M 818.88 215.7 L 813.88 217.36 L 813.88 214.03 Z" fill="#4284f3" pointer-events="none" stroke="#4284f3" stroke-miterlimit="10"/>
    <image height="110" pointer-events="none" preserveAspectRatio="none" width="110" x="828.5" y="337.5"/>
    <image height="110" pointer-events="none" preserveAspectRatio="none" width="110" x="836.5" y="9.5"/>
  </g>
  <switch>
    <g requiredFeatures="http://www.w3.org/TR/SVG11/feature#Extensibility"/>
    <a transform="translate(0,-5)">
      <text font-size="10px" text-anchor="middle" x="50%" y="100%">Text is not SVG - cannot display</text>
    </a>
  </switch>
</svg>