<svg width="58" height="58" viewBox="0 0 58 58" fill="none" xmlns="http://www.w3.org/2000/svg">
<path d="M47.6008 57.8247H50.907C51.6638 57.8247 52.341 57.1375 52.3808 56.3694V19.0162C52.3808 15.3375 49.5128 12.346 45.9677 12.346H41.7055C40.9487 12.346 40.2715 11.6588 40.2715 10.8907V7.49491C40.2715 3.81619 37.4035 0.824707 33.8583 0.824707H6.41317C2.868 0.824707 0 3.77577 0 7.49491V45.0502C0 48.6885 2.868 51.68 6.41317 51.7205H38.2002C38.479 51.7205 38.7578 51.8013 38.9968 51.963L46.7643 57.6226C47.0033 57.7439 47.322 57.8247 47.6008 57.8247ZM39.8732 46.3439H6.49283C5.69617 46.3439 5.05883 45.697 5.05883 44.8885V7.57577C5.05883 6.76726 5.69617 6.12045 6.49283 6.12045H33.7787C34.5355 6.12045 35.2127 6.80769 35.2127 7.57577V10.8907C35.2127 11.6992 34.5753 12.346 33.7787 12.346H13.4637C12.7068 12.346 12.0297 13.0332 12.0297 13.8013V38.7034C12.0297 39.5119 12.667 40.1588 13.4637 40.1588H38.8375C39.5943 40.1588 40.2715 39.4715 40.2715 38.7034V19.097C40.2715 18.2885 40.9088 17.6417 41.7055 17.6417H45.8482C46.605 17.6417 47.2822 18.329 47.2822 19.097V49.6183C47.2822 50.3864 46.4855 50.7907 45.9278 50.3864L40.7495 46.6268C40.4308 46.4247 40.152 46.3439 39.8732 46.3439ZM34.4558 34.8226H17.8055C17.447 34.8226 17.1283 34.5396 17.1283 34.0949V18.2885C17.1283 17.9247 17.4072 17.5609 17.8055 17.5609H34.4558C34.8143 17.5609 35.133 17.8439 35.133 18.2885V34.0949C35.133 34.4992 34.8542 34.8226 34.4558 34.8226Z" fill="white"/>
</svg>
