<svg width="160" height="58" viewBox="0 0 160 58" fill="none" xmlns="http://www.w3.org/2000/svg">
<path d="M32.5186 35.8104C33.571 35.8104 34.4243 34.9419 34.4243 33.8723C34.4243 32.8003 33.571 31.9326 32.5186 31.9328C31.4653 31.9328 30.6119 32.8003 30.6119 33.8723C30.6119 34.9419 31.4651 35.8104 32.5186 35.8104Z" fill="#292B5B"/>
<path d="M16.931 26.5102H31.5903V28.4488H16.931V26.5102Z" fill="#292B5B"/>
<path fill-rule="evenodd" clip-rule="evenodd" d="M32.5186 40.7246H11.9079C10.8373 40.7246 10 39.8733 10 38.7861V25.8539C10 21.8186 12.4408 19.0005 15.9351 19.0005H36.5464C37.6338 19.0005 38.4524 19.8331 38.4524 20.9389V33.8722C38.4524 37.9063 36.0114 40.7246 32.5186 40.7246ZM15.9351 20.631C13.3049 20.631 11.605 22.6803 11.605 25.8539V38.7861C11.605 38.9639 11.7316 39.0938 11.9079 39.0938H32.5186C35.1479 39.0938 36.8488 37.044 36.8488 33.8723V20.9389C36.8488 20.7381 36.7437 20.6308 36.5464 20.6308L15.9351 20.631Z" fill="#292B5B"/>
<path fill-rule="evenodd" clip-rule="evenodd" d="M54.0871 20.854C54.0343 20.7075 53.8963 20.6078 53.7411 20.6078H53.0711C52.9157 20.6078 52.778 20.7075 52.726 20.854L47.0815 38.5868C47.0418 38.6999 47.0576 38.828 47.1278 38.9256C47.196 39.0254 47.3073 39.0833 47.4287 39.0833H48.1933C48.349 39.0833 48.4868 38.9838 48.5397 38.8343L50.3845 33.1058H56.4252L58.2238 38.8429C58.2753 38.993 58.4141 39.0928 58.5706 39.0928H59.3889C59.5914 39.0928 59.7559 38.9256 59.7559 38.7217C59.7559 38.6555 59.7401 38.5952 59.7102 38.5424L54.0871 20.854ZM53.4063 23.4668C53.8599 24.9513 54.8014 28.0168 54.8014 28.0168L55.9718 31.6849H50.8474L52.2968 27.0616L53.4063 23.4668Z" fill="#292B5B"/>
<path d="M70.2348 36.4198C70.1707 36.3391 70.0765 36.2907 69.9741 36.2841C69.8741 36.2774 69.7726 36.3137 69.6992 36.3838C69.0752 36.9784 68.056 37.6857 66.7463 37.6857C64.3624 37.6857 62.7612 35.6765 62.7612 32.6861C62.7612 29.7602 64.4375 27.6363 66.7463 27.6363C67.6655 27.6363 68.4979 28.02 69.3638 28.8431C69.4362 28.9113 69.5342 28.9451 69.6299 28.9428C69.7283 28.9399 69.8216 28.8951 69.888 28.8219L70.3674 28.2901C70.501 28.1391 70.4919 27.9068 70.345 27.7683C69.5837 27.0457 68.4858 26.216 66.7465 26.216C65.2621 26.216 63.8933 26.8268 62.8951 27.9351C61.8266 29.1191 61.2618 30.7615 61.2618 32.6862C61.2618 36.5266 63.4655 39.1078 66.7465 39.1078C68.1244 39.1078 69.4293 38.5547 70.627 37.4642C70.7728 37.3311 70.7886 37.1049 70.6659 36.9516L70.2348 36.4198Z" fill="#292B5B"/>
<path d="M81.0574 36.2841C81.1597 36.2907 81.254 36.3391 81.3182 36.4198L81.7491 36.9516C81.8736 37.1049 81.8561 37.3311 81.7103 37.4642C80.5124 38.5547 79.2069 39.1078 77.8309 39.1078C74.5502 39.1078 72.3448 36.5266 72.3448 32.6862C72.3448 30.7615 72.9107 29.1191 73.9782 27.9351C74.9787 26.8268 76.3446 26.216 77.8309 26.216C79.5696 26.216 80.6673 27.0457 81.4297 27.7683C81.5756 27.9068 81.5849 28.1391 81.45 28.2901L80.971 28.8219C80.9052 28.8951 80.8127 28.9399 80.7143 28.9428C80.6175 28.9451 80.5206 28.9113 80.4488 28.8431C79.5815 28.02 78.7493 27.6363 77.8309 27.6363C75.5216 27.6363 73.8461 29.7602 73.8461 32.6861C73.8461 35.6765 75.4457 37.6857 77.8309 37.6857C79.1405 37.6857 80.159 36.9784 80.7823 36.3838C80.8573 36.3137 80.957 36.2774 81.0574 36.2841Z" fill="#292B5B"/>
<path d="M90.3839 26.4971C89.8946 26.2495 89.47 26.2159 89.12 26.2159C88.0047 26.2159 86.9877 26.8094 86.1396 27.9442L86.0922 26.8611C86.0828 26.6627 85.9209 26.5061 85.725 26.5061H85.1032C84.8997 26.5061 84.7359 26.6719 84.7359 26.8774V38.7285C84.7359 38.9325 84.8997 39.0999 85.1032 39.0999H85.8208C86.0229 39.0999 86.1882 38.9325 86.1882 38.7285V30.4837C86.9136 28.7041 87.9447 27.6847 89.0238 27.6847C89.3984 27.6847 89.5477 27.721 89.8992 27.8556C89.9953 27.8919 90.1015 27.885 90.1938 27.8396C90.2854 27.7925 90.3539 27.7089 90.3824 27.6095L90.5731 26.9312C90.6216 26.7591 90.5416 26.5762 90.3839 26.4971Z" fill="#292B5B"/>
<path fill-rule="evenodd" clip-rule="evenodd" d="M97.1662 26.2158C94.5993 26.2158 91.8723 28.4833 91.8723 32.6859C91.8723 36.4659 94.1669 39.1076 97.4523 39.1076C99.2915 39.1076 100.338 38.4616 101.178 37.9431L101.183 37.9401C101.35 37.8363 101.407 37.6196 101.315 37.4462L100.98 36.8164C100.93 36.7224 100.842 36.6552 100.738 36.6309C100.636 36.6071 100.527 36.6298 100.442 36.6921C99.5147 37.371 98.5792 37.6856 97.5008 37.6856C95.1354 37.6856 93.5131 35.8418 93.3815 33.0575H101.422C101.602 33.0575 101.755 32.9262 101.785 32.7462C101.837 32.426 101.837 32.1642 101.837 31.9108C101.837 28.345 100.09 26.2158 97.1662 26.2158ZM97.1662 27.6362C99.1492 27.6362 100.281 29.053 100.379 31.6366H93.4153C93.7462 29.2612 95.2484 27.6362 97.1662 27.6362Z" fill="#292B5B"/>
<path fill-rule="evenodd" clip-rule="evenodd" d="M113.472 20.601H114.188C114.39 20.601 114.555 20.7679 114.555 20.9742V38.7364C114.555 38.941 114.39 39.1077 114.188 39.1077H113.567C113.373 39.1077 113.213 38.9544 113.201 38.7593L113.15 37.6563C112.027 38.6208 110.834 39.1077 109.597 39.1077C106.403 39.1077 104.495 36.7066 104.495 32.6861C104.495 28.937 106.802 26.2159 109.98 26.2159C111.22 26.2159 112.135 26.6075 113.135 27.2989L113.105 25.8702V20.9743C113.105 20.7679 113.268 20.601 113.472 20.601ZM113.105 29.0297C111.973 28.0421 111.046 27.6362 109.932 27.6362C107.725 27.6362 105.995 29.8545 105.995 32.6859C105.995 35.8172 107.36 37.6856 109.645 37.6856C110.765 37.6856 111.836 37.1247 113.105 35.87V29.0297Z" fill="#292B5B"/>
<path d="M117.459 23.102C117.459 22.4105 117.955 21.9087 118.639 21.9087C119.323 21.9087 119.82 22.4104 119.82 23.102C119.82 23.773 119.302 24.2977 118.639 24.2977C117.978 24.2977 117.459 23.773 117.459 23.102Z" fill="#292B5B"/>
<path d="M118.998 26.5061H118.28C118.078 26.5061 117.914 26.6719 117.914 26.8774V38.7365C117.914 38.941 118.078 39.1077 118.28 39.1077H118.998C119.201 39.1077 119.365 38.941 119.365 38.7365V26.8774C119.365 26.6719 119.201 26.5061 118.998 26.5061Z" fill="#292B5B"/>
<path fill-rule="evenodd" clip-rule="evenodd" d="M127.826 26.2157C126.689 26.2157 125.453 26.7124 124.145 27.6942L124.176 26.1525V20.9742C124.176 20.7678 124.011 20.6009 123.808 20.6009H123.09C122.888 20.6009 122.723 20.7678 122.723 20.9742V38.4459C122.723 38.6501 122.888 38.8172 123.09 38.8172H123.712C123.904 38.8172 124.062 38.6692 124.079 38.4769L124.123 37.9402C125.212 38.6865 126.362 39.1077 127.346 39.1077C130.915 39.1077 132.783 35.7795 132.783 32.4921C132.784 28.5022 130.976 26.2157 127.826 26.2157ZM127.395 37.6856C127.027 37.6856 125.732 37.5833 124.176 36.2873V29.4645C125.537 28.2512 126.748 27.6362 127.777 27.6362C130.675 27.6362 131.284 30.2769 131.284 32.4919C131.284 35.551 129.685 37.6856 127.395 37.6856Z" fill="#292B5B"/>
<path d="M138.039 37.9263C137.994 37.73 137.803 37.605 137.608 37.6445C137.405 37.6856 137.332 37.6856 137.25 37.6856C137.162 37.6856 137.138 37.4558 137.138 37.3333V20.9742C137.138 20.7678 136.974 20.6009 136.772 20.6009H136.054C135.852 20.6009 135.687 20.7678 135.687 20.9742V37.1869C135.687 38.774 136.509 39.1075 137.202 39.1075C137.499 39.1075 137.676 39.0618 137.845 39.016L137.913 39.0002C138.106 38.95 138.227 38.7539 138.182 38.5562L138.039 37.9263Z" fill="#292B5B"/>
<path fill-rule="evenodd" clip-rule="evenodd" d="M145.328 26.2158C142.764 26.2158 140.037 28.4833 140.037 32.6859C140.037 36.4659 142.331 39.1076 145.616 39.1076C147.455 39.1076 148.503 38.4612 149.344 37.9424L149.347 37.9401C149.513 37.8363 149.572 37.6196 149.479 37.4462L149.144 36.8164C149.093 36.7224 149.005 36.6552 148.903 36.6309C148.799 36.6071 148.691 36.6298 148.607 36.6921C147.677 37.371 146.742 37.6856 145.665 37.6856C143.298 37.6856 141.677 35.8418 141.544 33.0575H149.586C149.764 33.0575 149.92 32.9262 149.948 32.7462C150 32.426 150 32.1642 150 31.9108C150 28.345 148.255 26.2158 145.328 26.2158ZM141.58 31.6366C141.911 29.2612 143.412 27.6362 145.328 27.6362C147.312 27.6362 148.446 29.053 148.543 31.6366H141.58Z" fill="#292B5B"/>
</svg>
