<svg width="160" height="58" viewBox="0 0 160 58" fill="none" xmlns="http://www.w3.org/2000/svg">
<path d="M27.5306 20.147H27.221L19 37.8434H21.0037L27.2898 23.9989L33.7738 37.8434H35.6399L27.5306 20.147Z" fill="#09426A"/>
<path d="M49.3044 21.7102C51.9874 21.7102 54.335 23.1784 55.5905 25.3548L57.0352 24.5171C55.496 21.8397 52.6065 20.0347 49.3044 20.0347C44.3769 20.0347 40.3782 24.0507 40.3782 28.9995C40.3782 33.9483 44.3769 37.9643 49.3044 37.9643C52.6065 37.9643 55.4874 36.1593 57.0352 33.4819L55.5905 32.6442C54.335 34.8206 51.9874 36.2888 49.3044 36.2888C45.297 36.2888 42.0465 33.0242 42.0465 28.9995C42.0465 24.9748 45.297 21.7102 49.3044 21.7102Z" fill="#09426A"/>
<path d="M90.7708 20.242H88.8961V37.7571H90.7708V20.242Z" fill="#09426A"/>
<path d="M108.95 20.0347C104.022 20.0347 100.024 24.0507 100.024 28.9995C100.024 33.9483 104.022 37.9643 108.95 37.9643C113.877 37.9643 117.876 33.9483 117.876 28.9995C117.868 24.0507 113.877 20.0347 108.95 20.0347ZM108.95 36.2888C104.943 36.2888 101.692 33.0242 101.692 28.9995C101.692 24.9748 104.943 21.7102 108.95 21.7102C112.957 21.7102 116.208 24.9748 116.208 28.9995C116.208 33.0242 112.957 36.2888 108.95 36.2888Z" fill="#09426A"/>
<path d="M140.536 20.242L133.192 28.4122L125.848 20.242H125.392V37.7571H127.138V25.9335C127.138 25.804 127.129 25.6658 127.129 25.5276V24.4307L128.178 25.5621C128.187 25.5708 128.187 25.5708 128.195 25.5794L129.399 26.8749L129.597 27.0908L133.2 30.9687L138.205 25.5794C138.695 24.9835 139.409 23.9557 139.409 23.9557C139.409 23.9557 139.254 25.1908 139.254 25.9421V37.7657H141V20.242H140.536Z" fill="#09426A"/>
<path d="M81.535 37.9643L76.8741 30.5887L74.6211 34.147L73.6493 35.6929L75.0854 37.9643H81.535Z" fill="#09426A"/>
<path d="M75.0854 20.0347L73.6493 22.3061L74.6211 23.8434L75.6702 25.5103L76.8741 27.4104L81.535 20.0347H75.0854Z" fill="#09426A"/>
<path d="M66.5806 14.9995H58.4542L67.303 28.9995L58.4542 42.9995H66.5806L75.4208 28.9995L66.5806 14.9995Z" fill="#00A0DD"/>
</svg>
