<svg width="160" height="58" viewBox="0 0 160 58" fill="none" xmlns="http://www.w3.org/2000/svg">
<path d="M47.4001 29.26C47.4001 26.1125 47.3945 22.965 47.4026 19.8177C47.4062 18.4977 48.3588 17.6112 49.5708 17.7692C50.5398 17.8955 51.2066 18.6769 51.2085 19.7092C51.2127 22.1822 51.2221 24.6554 51.1984 27.1281C51.1942 27.5602 51.3129 27.6484 51.7272 27.6461C55.0045 27.6279 58.2821 27.629 61.5595 27.6454C61.9471 27.6473 62.0674 27.5733 62.0637 27.1585C62.0412 24.6858 62.0517 22.2126 62.0529 19.7396C62.0534 18.6234 62.8046 17.7984 63.8521 17.7589C64.9531 17.7175 65.7607 18.4549 65.8541 19.5913C65.8658 19.7349 65.862 19.88 65.862 20.0246C65.8623 26.1588 65.8623 32.2931 65.8627 38.4276C65.8627 38.7808 65.8761 39.1376 65.7752 39.4792C65.512 40.3711 64.5986 40.9506 63.6885 40.8168C62.7515 40.679 62.0576 39.9081 62.055 38.9643C62.0477 36.379 62.0454 33.7935 62.0606 31.2082C62.0627 30.8439 61.9881 30.7234 61.5946 30.7255C58.3011 30.7431 55.0076 30.7424 51.7141 30.7265C51.3222 30.7246 51.1977 30.8151 51.2008 31.2236C51.2193 33.7928 51.2155 36.3624 51.2071 38.9315C51.2041 39.8437 50.6521 40.5377 49.7949 40.7613C48.9431 40.9836 48.0928 40.6263 47.6553 39.8622C47.4405 39.4872 47.3984 39.0777 47.3989 38.6545C47.4015 35.5227 47.4001 32.3913 47.4001 29.26Z" fill="#123A61"/>
<path d="M81.2677 17.7929C83.7238 17.7929 86.18 17.7845 88.6361 17.7964C89.8812 17.8025 90.6924 18.9557 90.2705 20.0829C90.0106 20.7778 89.3759 21.1793 88.5193 21.1795C84.6023 21.1809 80.6853 21.1802 76.7686 21.1802C75.7733 21.1802 74.7776 21.1961 73.7828 21.1741C72.9033 21.1547 72.1984 20.5081 72.0978 19.6794C72 18.8736 72.4992 18.1092 73.2802 17.8566C73.5001 17.7854 73.7236 17.7934 73.9475 17.7934C76.3877 17.7927 78.8277 17.7929 81.2677 17.7929Z" fill="#009EDB"/>
<path d="M79.4053 40.8513C77.5271 40.8511 75.6486 40.8611 73.7703 40.8466C72.8939 40.8398 72.1843 40.1831 72.0956 39.3525C72.0044 38.4983 72.5418 37.727 73.3834 37.5136C73.5062 37.4825 73.6363 37.4666 73.7631 37.4663C77.4716 37.4638 81.1799 37.4595 84.8885 37.4675C85.7894 37.4694 86.514 38.1221 86.6132 38.9709C86.7094 39.7931 86.1764 40.5902 85.3709 40.7949C85.1573 40.8492 84.9261 40.8487 84.7029 40.8492C82.9372 40.8534 81.1713 40.8515 79.4053 40.8513Z" fill="#009EDB"/>
<path d="M78.2372 27.5265C79.7299 27.5265 81.2228 27.5101 82.715 27.5335C83.4564 27.545 83.9906 27.9359 84.2713 28.6245C84.5273 29.2522 84.3317 30.0201 83.8256 30.474C83.5032 30.7631 83.1223 30.9115 82.6858 30.9112C79.7324 30.9108 76.7791 30.9159 73.8258 30.9082C72.8439 30.9056 72.0912 30.1569 72.0927 29.2216C72.0941 28.2609 72.8142 27.5347 73.8074 27.5267C75.2839 27.5148 76.7607 27.5237 78.2372 27.5237C78.2372 27.5249 78.2372 27.5256 78.2372 27.5265Z" fill="#009EDB"/>
<path fill-rule="evenodd" clip-rule="evenodd" d="M117.094 26.2581C117.094 27.2694 117.094 28.2808 117.094 29.2921C117.094 30.1928 117.094 31.0936 117.094 31.9943C117.094 34.1597 117.093 36.3251 117.094 38.4903C117.095 39.8791 118.019 40.8236 119.409 40.8327C121.191 40.8447 122.974 40.8428 124.757 40.8332C125.931 40.8269 127.097 40.7111 128.242 40.4458C131.387 39.717 133.925 38.123 135.512 35.234C136.8 32.8876 137.079 30.3468 136.803 27.7283C136.558 25.409 135.759 23.3034 134.188 21.5461C132.022 19.125 129.213 18.0504 126.049 17.8177C124.593 17.7105 123.133 17.7291 121.673 17.7477C120.964 17.7567 120.256 17.7657 119.548 17.7603C117.982 17.7484 117.094 18.6375 117.094 20.19C117.094 22.2127 117.094 24.2354 117.094 26.2581ZM120.905 27.3373C120.905 27.9918 120.904 28.6464 120.904 29.3009V29.3602C120.904 30.2232 120.904 31.0861 120.904 31.9489C120.904 32.3677 120.904 32.7866 120.904 33.2055C120.903 34.568 120.903 35.9305 120.905 37.293C120.905 37.3232 120.903 37.3541 120.902 37.3847C120.893 37.5699 120.885 37.7489 121.211 37.7413C121.754 37.7286 122.298 37.7309 122.841 37.7332C124.093 37.7386 125.346 37.744 126.594 37.5647C129.706 37.1176 131.916 35.1607 132.672 32.1232C133.08 30.4824 133.086 28.8234 132.799 27.1604C132.205 23.712 129.783 21.4033 126.309 20.9744C125.297 20.8495 124.283 20.8623 123.269 20.8751C122.646 20.8829 122.024 20.8907 121.403 20.8668C121.012 20.8516 120.89 20.9433 120.893 21.3569C120.909 23.3504 120.907 25.3439 120.905 27.3373Z" fill="#123A61"/>
<path fill-rule="evenodd" clip-rule="evenodd" d="M108.008 39.7074C108.296 40.4387 108.908 40.847 109.74 40.8512C109.975 40.8636 110.252 40.8103 110.519 40.676C111.455 40.2041 111.738 39.2801 111.291 38.1204C110.605 36.339 109.919 34.5576 109.233 32.7762C108.268 30.2708 107.303 27.7653 106.339 25.2597C106.078 24.5807 105.817 23.9014 105.556 23.2221C105.003 21.7801 104.449 20.338 103.889 18.8985C103.585 18.1159 102.965 17.7112 102.143 17.7109C101.311 17.7107 100.709 18.1138 100.396 18.8934C100.152 19.5022 99.9167 20.1147 99.6813 20.7272C97.4421 26.5547 95.203 32.3822 92.9654 38.2102C92.5221 39.3653 92.9041 40.3543 93.9385 40.7476C94.9441 41.1301 95.9246 40.6397 96.3511 39.5354C96.3915 39.4308 96.432 39.3262 96.4724 39.2216C96.7956 38.386 97.1188 37.5504 97.4257 36.7089C97.5261 36.4338 97.6496 36.3126 97.9685 36.3142C100.748 36.3287 103.527 36.3287 106.306 36.3142C106.623 36.3126 106.754 36.4272 106.856 36.7035C107.228 37.7091 107.614 38.7098 108.008 39.7074ZM105.497 33.1968L102.141 24.4658C101.868 25.1752 101.598 25.8771 101.331 26.5735C100.51 28.7106 99.7087 30.7945 98.8965 32.874C98.7432 33.2661 98.8913 33.2775 99.2114 33.2759C100.523 33.269 101.835 33.2694 103.147 33.2697C103.794 33.2699 104.44 33.27 105.087 33.2694C105.111 33.2693 105.135 33.2704 105.159 33.2714C105.263 33.2761 105.374 33.2811 105.497 33.1968Z" fill="#123A61"/>
<path fill-rule="evenodd" clip-rule="evenodd" d="M31.3586 36.3246C31.7253 36.3239 32.092 36.3232 32.4587 36.3232C32.8257 36.3232 33.1928 36.3239 33.5599 36.3246C34.5737 36.3265 35.5876 36.3284 36.6015 36.3157C36.9192 36.3118 37.0792 36.3883 37.1932 36.7088C37.4133 37.3289 37.653 37.942 37.8927 38.5552C38.0315 38.9102 38.1704 39.2654 38.3054 39.6219C38.4215 39.9283 38.5827 40.1988 38.8281 40.415C39.4397 40.9538 40.3935 41.0135 41.0629 40.5584C41.7657 40.0806 42.0446 39.2639 41.7325 38.4432C40.7778 35.9321 39.8143 33.4244 38.8509 30.9167C38.5809 30.2141 38.311 29.5115 38.0413 28.8088C37.6551 27.8028 37.2684 26.7969 36.8816 25.7911C36.0171 23.5424 35.1525 21.2936 34.2937 19.0428C34.0761 18.4726 33.7396 18.0342 33.1568 17.8187C32.1522 17.4474 31.1101 17.9104 30.7178 18.9216C30.1226 20.4554 29.5333 21.9915 28.9439 23.5276C28.6225 24.3652 28.3011 25.2029 27.9788 26.0401C26.4269 30.071 24.8741 34.1018 23.3204 38.132C23.1449 38.5873 23.0218 39.0463 23.1587 39.5362C23.3646 40.2725 23.9797 40.7942 24.7061 40.8485C25.5687 40.9131 26.2638 40.5434 26.5746 39.7887C26.9945 38.7686 27.3855 37.7359 27.7645 36.6997C27.8693 36.4131 28.0069 36.3115 28.3164 36.3155C29.3304 36.3286 30.3445 36.3266 31.3586 36.3246ZM34.5782 29.927C33.892 28.143 33.2057 26.3593 32.5095 24.5498C32.4879 24.5742 32.4683 24.5937 32.4514 24.6105C32.4217 24.64 32.4001 24.6614 32.3901 24.6871C32.0284 25.6261 31.6673 26.5653 31.3062 27.5046C30.6108 29.3135 29.9154 31.1223 29.2153 32.9294C29.0983 33.2314 29.1987 33.275 29.4755 33.2738C31.4821 33.2658 33.4891 33.2649 35.4958 33.2745C35.7934 33.2759 35.8507 33.2092 35.7374 32.9261C35.4508 32.2089 35.1751 31.4873 34.8993 30.7656C34.7925 30.486 34.6856 30.2063 34.5782 29.927Z" fill="#123A61"/>
</svg>
