<svg width="160" height="58" viewBox="0 0 160 58" fill="none" xmlns="http://www.w3.org/2000/svg">
<path d="M30.2195 16C30.2195 16 24 16 24 22.2959V36.7035C24 36.7035 24 43 30.2195 43H44.4509C44.4509 43 50.6704 43 50.6704 36.7035V22.2959C50.6704 22.2959 50.6704 16 44.4509 16H30.2195Z" fill="#FF9100"/>
<path d="M46.2849 23.242C46.2907 22.8931 46.2069 22.5486 46.0415 22.2424C45.8761 21.9362 45.635 21.6788 45.3417 21.4955C45.0484 21.3121 44.713 21.2091 44.3686 21.1965C44.0241 21.184 43.6823 21.2623 43.3767 21.4239L28.1129 30.6321C27.7772 30.8375 27.509 31.1388 27.3422 31.4982C27.1754 31.8576 27.1174 32.259 27.1756 32.6517C27.2338 33.0444 27.4055 33.4109 27.6691 33.7049C27.9328 33.9989 28.2765 34.2074 28.6569 34.3039L41.9604 37.8656C42.0626 37.8937 42.0934 37.9017 42.1666 37.9182C42.2906 37.9451 42.4169 37.9597 42.5438 37.9617C43.0291 37.9703 43.5008 37.7987 43.8698 37.4792C44.2387 37.1598 44.4794 36.7147 44.5464 36.228L46.2734 23.4672C46.2734 23.4672 46.2843 23.3185 46.2855 23.2432" fill="white"/>
<path d="M58.183 27.8122C58.203 27.05 58.424 26.3071 58.8231 25.6605C59.1911 25.0976 59.6816 24.6276 60.257 24.2867C60.8644 23.9308 61.5267 23.6811 62.2161 23.548C62.937 23.4018 63.6703 23.328 64.4055 23.3277C65.0821 23.3286 65.7579 23.3762 66.4281 23.4703C67.0765 23.5552 67.7075 23.7434 68.2978 24.0278C68.8456 24.2912 69.3207 24.6874 69.6809 25.1813C70.0637 25.7584 70.2522 26.4453 70.2182 27.1396V34.1161C70.2167 34.6966 70.2508 35.2766 70.3204 35.8528C70.3528 36.2883 70.4749 36.7121 70.6789 37.097H66.9915C66.923 36.889 66.8675 36.6768 66.8253 36.4617C66.7821 36.2435 66.7522 36.0228 66.7358 35.8008C66.1722 36.3956 65.4666 36.8332 64.6872 37.0713C63.9071 37.3125 63.0958 37.4348 62.2802 37.4342C61.6834 37.4389 61.0889 37.3604 60.5132 37.201C59.992 37.0585 59.5043 36.8117 59.0788 36.4752C58.6661 36.1432 58.3371 35.7168 58.1189 35.2311C57.8759 34.6676 57.7578 34.057 57.7731 33.4423C57.7488 32.7921 57.8853 32.1461 58.1703 31.5629C58.4148 31.0935 58.7657 30.6894 59.1943 30.3837C59.6311 30.0814 60.1161 29.8578 60.6281 29.7228C61.1635 29.5766 61.7063 29.4597 62.2542 29.3727C62.8006 29.2862 63.3384 29.2171 63.8675 29.1653C64.342 29.1226 64.8128 29.0447 65.276 28.9321C65.6294 28.8552 65.9617 28.7004 66.2492 28.4786C66.3704 28.3723 66.4641 28.2376 66.5222 28.0863C66.5802 27.9349 66.6008 27.7715 66.5823 27.6102C66.5976 27.2834 66.5315 26.9578 66.39 26.6635C66.2704 26.4392 66.0936 26.2513 65.878 26.1195C65.6497 25.9847 65.3976 25.8966 65.1357 25.86C64.8355 25.8158 64.5324 25.7941 64.229 25.7952C63.6298 25.7602 63.0356 25.9239 62.5365 26.2615C62.3145 26.4542 62.1358 26.6927 62.0121 26.9609C61.8885 27.2292 61.8229 27.5211 61.8195 27.8171L58.183 27.8122ZM66.5823 30.5342C66.4141 30.681 66.2181 30.7914 66.0062 30.8586C65.763 30.9394 65.5148 31.0042 65.2633 31.0526C64.9985 31.1044 64.7211 31.1476 64.4309 31.1823C64.1408 31.217 63.8506 31.26 63.5605 31.3114C63.2876 31.3633 63.0183 31.4326 62.7541 31.5189C62.5063 31.5968 62.2728 31.715 62.0625 31.8689C61.8655 32.0167 61.7036 32.2071 61.5886 32.4264C61.4591 32.6924 61.3968 32.9868 61.4073 33.2832C61.3988 33.5705 61.4611 33.8555 61.5886 34.1124C61.7015 34.3301 61.8694 34.5136 62.0752 34.6442C62.2952 34.7798 62.5384 34.8722 62.7922 34.9165C63.0713 34.969 63.3546 34.995 63.6384 34.9942C64.2153 35.027 64.7902 34.9016 65.3026 34.6313C65.6621 34.4229 65.9622 34.1237 66.1736 33.763C66.354 33.4479 66.4715 33.1001 66.5194 32.7391C66.5567 32.464 66.5781 32.187 66.5835 31.9093L66.5823 30.5342Z" fill="black"/>
<path d="M72.4971 21.6166V18.5837H76.1337V21.6166H72.4971ZM76.1337 23.6906V37.0927H72.4971V23.6906H76.1337Z" fill="black"/>
<path d="M81.8975 23.6906V25.5051H81.9489C82.3957 24.8423 82.987 24.2923 83.6771 23.8974C84.3881 23.508 85.1865 23.3115 85.9947 23.3271C86.7851 23.3163 87.5681 23.4835 88.2869 23.8167C89.0064 24.1769 89.5669 24.7963 89.8585 25.5534C90.2851 24.9327 90.8292 24.4039 91.4592 23.9978C92.1734 23.5373 93.0071 23.3029 93.8536 23.3246C94.5111 23.3189 95.1662 23.406 95.8 23.5835C96.367 23.7401 96.8921 24.0234 97.3366 24.4127C97.7822 24.8217 98.1244 25.3329 98.3346 25.9035C98.5901 26.6131 98.7119 27.3649 98.6937 28.12V37.0902H95.0571V29.4976C95.0571 29.0488 95.0402 28.6253 95.0063 28.2271C94.9818 27.866 94.886 27.5135 94.7246 27.1904C94.5702 26.896 94.3351 26.6529 94.0476 26.4903C93.6708 26.3001 93.252 26.2109 92.8314 26.2315C92.3982 26.2117 91.9681 26.3149 91.5898 26.5295C91.2809 26.7207 91.0253 26.9884 90.8469 27.3073C90.6618 27.6446 90.5402 28.0138 90.4884 28.396C90.4284 28.8036 90.3985 29.2152 90.3989 29.6273V37.0933H86.763V29.5753C86.763 29.1775 86.7543 28.7844 86.737 28.396C86.7242 28.0274 86.6506 27.6636 86.5194 27.3196C86.3934 26.9944 86.1694 26.7178 85.8792 26.5289C85.4765 26.3047 85.0189 26.2013 84.5602 26.2309C84.33 26.2406 84.1019 26.2799 83.8814 26.3478C83.581 26.4358 83.302 26.5858 83.0617 26.7884C82.7687 27.0434 82.5368 27.3625 82.3835 27.7216C82.1772 28.2262 82.0811 28.7701 82.1018 29.3158V37.0933H78.464V23.6912L81.8975 23.6906Z" fill="black"/>
<path d="M108.194 23.6906V26.1532H105.531V32.7899C105.466 33.0061 105.46 33.2361 105.514 33.4553C105.568 33.6745 105.68 33.8747 105.838 34.0345C105.996 34.1943 106.194 34.3076 106.41 34.3624C106.627 34.4172 106.854 34.4114 107.068 34.3456C107.273 34.3456 107.468 34.337 107.656 34.3192C107.837 34.3033 108.016 34.2773 108.194 34.2415V37.0933C107.855 37.1483 107.513 37.1828 107.17 37.1967C106.794 37.2139 106.427 37.2226 106.068 37.223C105.533 37.2249 104.998 37.1859 104.468 37.1061C104 37.0404 103.549 36.8863 103.138 36.6521C102.753 36.4251 102.438 36.0927 102.231 35.6931C101.989 35.1847 101.875 34.6236 101.899 34.0598V26.1538H99.6893V23.6912H101.892V19.673H105.528V23.6912L108.194 23.6906Z" fill="black"/>
<path d="M113.187 33.8774C113.786 34.3525 114.514 34.6306 115.274 34.6743C116.034 34.7181 116.789 34.5254 117.438 34.1222C117.885 33.8526 118.229 33.4364 118.411 32.9423H121.614C121.252 34.3356 120.417 35.5559 119.257 36.3901C118.104 37.1081 116.769 37.4686 115.416 37.4274C114.454 37.442 113.498 37.2704 112.599 36.9219C111.795 36.6069 111.069 36.1156 110.474 35.4832C109.88 34.8405 109.423 34.0819 109.129 33.2538C108.805 32.3394 108.644 31.3736 108.656 30.402C108.646 29.4467 108.81 28.4978 109.139 27.6023C109.442 26.769 109.911 26.0076 110.517 25.3655C111.122 24.7233 111.852 24.214 112.66 23.8693C113.531 23.4979 114.468 23.3127 115.413 23.3252C116.433 23.3006 117.444 23.5274 118.358 23.9862C119.172 24.4075 119.878 25.0152 120.419 25.7609C120.966 26.5237 121.362 27.3866 121.584 28.3018C121.825 29.2756 121.912 30.282 121.841 31.2833H112.29C112.251 32.2322 112.571 33.1604 113.187 33.8774ZM117.297 26.8257C117.037 26.5687 116.725 26.371 116.382 26.2458C116.04 26.1206 115.676 26.0709 115.313 26.0999C114.814 26.0825 114.318 26.1846 113.866 26.3979C113.51 26.5741 113.196 26.8261 112.944 27.1366C112.723 27.4123 112.558 27.7294 112.458 28.0698C112.371 28.3567 112.316 28.6522 112.292 28.9511H118.206C118.103 28.1718 117.788 27.4367 117.297 26.8275V26.8257Z" fill="black"/>
<path d="M129.678 26.1011C129.162 26.0829 128.653 26.2231 128.218 26.5032C127.825 26.7714 127.496 27.126 127.257 27.5405C127.006 27.9741 126.829 28.4474 126.733 28.9407C126.631 29.4396 126.58 29.9477 126.579 30.4571C126.58 30.9536 126.632 31.4486 126.733 31.9344C126.826 32.4124 126.995 32.8721 127.232 33.296C127.46 33.6996 127.78 34.0417 128.166 34.2935C128.596 34.5632 129.095 34.6984 129.6 34.6821C129.968 34.7063 130.336 34.6531 130.682 34.526C131.028 34.3989 131.344 34.2005 131.611 33.9435C132.106 33.3943 132.415 32.6995 132.494 31.9601H136C135.866 33.535 135.131 34.995 133.951 36.0303C132.717 36.9998 131.184 37.4959 129.623 37.4305C128.69 37.4413 127.764 37.2697 126.896 36.925C126.101 36.6103 125.381 36.1287 124.783 35.512C124.192 34.8901 123.73 34.1539 123.426 33.3474C123.095 32.466 122.931 31.5292 122.943 30.5862C122.934 29.6044 123.085 28.6279 123.39 27.6959C123.668 26.8429 124.117 26.0574 124.709 25.3888C125.301 24.7327 126.026 24.215 126.835 23.8717C127.744 23.4947 128.72 23.3096 129.703 23.3277C130.469 23.3249 131.232 23.4295 131.969 23.6386C132.669 23.8332 133.328 24.1537 133.916 24.5847C134.518 25.023 135.013 25.5959 135.362 26.2589C135.71 26.922 135.904 27.6574 135.926 28.4082H132.366C132.347 28.0754 132.261 27.75 132.113 27.4518C131.966 27.1536 131.76 26.8887 131.509 26.6731C131.258 26.4575 130.966 26.2956 130.651 26.1973C130.336 26.099 130.005 26.0663 129.678 26.1011Z" fill="black"/>
</svg>
