<svg width="160" height="58" viewBox="0 0 160 58" fill="none" xmlns="http://www.w3.org/2000/svg">
<path d="M28.962 13.0371H10.222L12.069 19.4199H28.962C30.7233 19.4199 32.1547 20.8524 32.1547 22.6126V25.8053H16.1974C10.9167 25.8053 6.62085 30.1013 6.62085 35.3822C6.62085 40.6627 10.9167 44.96 16.1974 44.96H28.962C34.2427 44.96 38.5387 40.6627 38.5387 35.3822V28.9977V25.8051V22.6124C38.5387 17.3332 34.2427 13.0371 28.962 13.0371ZM32.1547 35.382C32.1547 37.1422 30.7222 38.5745 28.962 38.5745H16.1974C14.4374 38.5745 13.0049 37.1422 13.0049 35.382C13.0049 33.6216 14.4374 32.1891 16.1974 32.1891H32.1547V35.382Z" fill="url(#paint0_linear_17077_16533)"/>
<path d="M47.6735 25.8057H41.855V32.1887H49.5217L47.6735 25.8057Z" fill="#EC008C"/>
<path d="M70.9638 35.4322H68.1726V33.8949C67.2901 35.0306 65.9694 35.7646 64.1557 35.7646C60.5782 35.7646 57.761 32.9471 57.761 29.0371C57.761 25.126 60.5782 22.3086 64.1557 22.3086C65.9706 22.3086 67.2913 23.0569 68.1726 24.1911V22.6435H70.9638V35.4322ZM60.6317 29.0386C60.6317 31.2809 62.0866 33.136 64.4895 33.136C66.7997 33.136 68.3461 31.3735 68.3461 29.0386C68.3461 26.7022 66.7997 24.9395 64.4895 24.9395C62.0866 24.9395 60.6317 26.796 60.6317 29.0386Z" fill="#302E45"/>
<path d="M95 27.3954V35.4328H92.1969V28.317C92.1969 26.1672 91.09 24.9665 89.2203 24.9665C87.4185 24.9665 85.9112 26.1541 85.9112 28.3432V35.4318H83.1048V28.316C83.1048 26.1662 81.9993 24.9642 80.1295 24.9642C78.3276 24.9642 76.8183 26.1531 76.8183 28.3422V35.4305H74.0139V22.6435H76.7908V24.2042C77.8195 22.6969 79.4063 22.3086 80.7166 22.3086C82.6655 22.3086 84.2535 23.1755 85.136 24.5915C86.2417 22.7622 88.2178 22.3086 89.8063 22.3086C92.8539 22.3094 95 24.4045 95 27.3954Z" fill="#302E45"/>
<path d="M126.888 29.0383C126.888 32.8689 123.953 35.7655 120.003 35.7655C116.052 35.7655 113.128 32.8686 113.128 29.0383C113.128 25.2067 116.052 22.3096 120.003 22.3096C123.953 22.3096 126.888 25.2065 126.888 29.0383ZM115.998 29.0383C115.998 31.4541 117.72 33.1357 120.003 33.1357C122.286 33.1357 124.02 31.4541 124.02 29.0383C124.02 26.6212 122.286 24.9392 120.003 24.9392C117.72 24.9392 115.998 26.6212 115.998 29.0383Z" fill="#302E45"/>
<path d="M140.352 24.3514L138.563 26.2602C137.668 25.4192 136.721 24.9392 135.494 24.9392C133.344 24.9392 131.716 26.621 131.716 29.0383C131.716 31.4541 133.346 33.1357 135.494 33.1357C136.724 33.1357 137.815 32.56 138.63 31.8L140.352 33.7214C139.191 35.0704 137.484 35.7655 135.573 35.7655C131.5 35.7655 128.845 32.8686 128.845 29.0383C128.845 25.2067 131.501 22.3096 135.573 22.3096C137.484 22.3096 139.218 23.0045 140.352 24.3514Z" fill="#302E45"/>
<path d="M151.871 25.848C151.096 25.3659 149.511 24.7529 147.921 24.7529C146.398 24.7529 145.506 25.3657 145.506 26.2744C145.506 27.1687 146.44 27.4229 147.614 27.5951L148.935 27.7946C151.727 28.196 153.38 29.3849 153.38 31.574C153.38 34.0303 151.244 35.7502 147.56 35.7502C146.239 35.7502 143.942 35.4981 142.075 34.1086L143.37 32.0133C144.291 32.7213 145.505 33.3211 147.586 33.3211C149.496 33.3211 150.496 32.7213 150.496 31.7593C150.496 31.038 149.804 30.5594 148.283 30.3458L146.947 30.1711C144.115 29.7853 142.608 28.4749 142.608 26.4189C142.608 23.8833 144.639 22.3213 147.896 22.3213C149.897 22.3213 151.754 22.8153 153.074 23.6693L151.871 25.848Z" fill="#302E45"/>
<path d="M107.788 24.189V19.4843L110.579 18.4961V35.433H107.788V33.8962C106.905 35.0318 105.585 35.7656 103.767 35.7656C100.191 35.7656 97.3726 32.9483 97.3726 29.0358C97.3726 25.1233 100.19 22.3061 103.767 22.3061C105.585 22.3052 106.905 23.0534 107.788 24.189ZM100.244 29.036C100.244 31.2807 101.699 33.1357 104.104 33.1357C106.412 33.1357 107.962 31.3732 107.962 29.036C107.962 26.6999 106.413 24.9372 104.104 24.9372C101.699 24.9374 100.244 26.7935 100.244 29.036Z" fill="#302E45"/>
<defs>
<linearGradient id="paint0_linear_17077_16533" x1="6.12017" y1="28.9984" x2="48.4507" y2="28.9984" gradientUnits="userSpaceOnUse">
<stop offset="0.0173" stop-color="#FDB515"/>
<stop offset="0.1046" stop-color="#FCA91D"/>
<stop offset="0.2628" stop-color="#F98932"/>
<stop offset="0.4741" stop-color="#F45454"/>
<stop offset="0.7279" stop-color="#ED0D83"/>
<stop offset="0.7715" stop-color="#EC008C"/>
</linearGradient>
</defs>
</svg>
