<svg width="160" height="58" viewBox="0 0 160 58" fill="none" xmlns="http://www.w3.org/2000/svg">
<path d="M99.2104 31.186C101.118 30.7621 102.319 29.349 102.319 27.5121C102.319 25.3219 100.623 23.7676 98.2212 23.7676H94.4061C94.1235 23.7676 93.9115 23.9795 93.9115 24.2621C93.9115 24.5447 94.1235 24.7567 94.4061 24.7567H98.0799C99.9169 24.7567 101.189 25.8871 101.189 27.5121C101.189 29.1371 99.9169 30.2675 98.0799 30.2675H94.4061C94.1235 30.2675 93.9115 30.4795 93.9115 30.7621C93.9115 31.0447 94.1235 31.2566 94.4061 31.2566H97.868L101.542 36.1316C101.683 36.3435 101.824 36.4142 102.036 36.4142C102.319 36.4142 102.602 36.2022 102.602 35.849C102.602 35.7077 102.531 35.5664 102.39 35.3544L99.2104 31.186Z" fill="#E30613"/>
<path d="M113.553 35.3544H106.276V30.2675H112.493C112.776 30.2675 112.987 30.0556 112.987 29.7729C112.987 29.4903 112.776 29.2784 112.493 29.2784H106.276V24.7567H113.411C113.694 24.7567 113.906 24.5447 113.906 24.2621C113.906 23.9795 113.694 23.7676 113.411 23.7676H105.781C105.498 23.7676 105.216 23.9795 105.216 24.3328V35.849C105.216 36.2022 105.428 36.4142 105.781 36.4142H113.623C113.906 36.4142 114.118 36.2022 114.118 35.9196C114.047 35.5664 113.835 35.3544 113.553 35.3544Z" fill="#E30613"/>
<path d="M124.786 24.2621C124.786 23.9795 124.574 23.7676 124.292 23.7676H115.46C115.178 23.7676 114.966 23.9795 114.966 24.2621C114.966 24.5447 115.178 24.7567 115.46 24.7567H119.346V35.9196C119.346 36.2729 119.558 36.4848 119.911 36.4848C120.264 36.4848 120.476 36.2729 120.476 35.9196V24.7567H124.362C124.574 24.7567 124.786 24.5447 124.786 24.2621Z" fill="#E30613"/>
<path d="M130.014 24.1918C129.873 23.8386 129.661 23.6973 129.308 23.6973C129.025 23.6973 128.813 23.8386 128.601 24.1918L123.585 35.6374C123.514 35.7787 123.444 35.8493 123.444 35.9906C123.444 36.2732 123.656 36.4852 124.009 36.4852C124.292 36.4852 124.433 36.2026 124.504 36.1319L126.129 32.3874H132.417L134.042 36.1319C134.112 36.3439 134.324 36.4852 134.607 36.4852C134.889 36.4852 135.172 36.2732 135.172 35.92C135.172 35.8493 135.172 35.708 135.101 35.6374L130.014 24.1918ZM131.993 31.3983H126.623L129.308 25.2516L131.993 31.3983Z" fill="#E30613"/>
<path d="M137.645 23.626C137.292 23.626 137.08 23.8379 137.08 24.1912V35.8487C137.08 36.2019 137.292 36.4139 137.645 36.4139C137.998 36.4139 138.21 36.2019 138.21 35.8487V24.1912C138.21 23.9086 137.998 23.626 137.645 23.626Z" fill="#E30613"/>
<path d="M149.585 35.3541H142.873V24.1912C142.873 23.9086 142.661 23.626 142.308 23.626C142.025 23.626 141.743 23.8379 141.743 24.1912V35.8487C141.743 36.2019 141.955 36.4139 142.308 36.4139H149.585C149.867 36.4139 150.079 36.2019 150.079 35.9193C150.15 35.5661 149.938 35.3541 149.585 35.3541Z" fill="#E30613"/>
<path d="M76.6019 25.1098H73.7052V36.2728H77.3084V28.5011C77.591 28.1479 78.3682 27.7239 79.0747 27.7239C80.1345 27.7239 80.7704 28.2892 80.7704 29.3489V36.2021H84.3736V28.925C84.3736 26.2403 83.1725 24.8979 80.6291 24.8979C78.7215 24.8979 77.6617 25.4631 76.8845 26.3816L76.6019 25.1098ZM61.4119 31.1152C61.4119 34.8597 62.8249 36.4847 65.5097 36.4847C67.1346 36.4847 68.2651 35.9195 68.9009 35.001L69.1129 36.2021H72.0802V25.6044C70.8792 25.2511 69.5368 24.8979 66.9933 24.8979C63.3901 24.8979 61.4119 27.0881 61.4119 31.1152ZM68.4064 32.8108C68.0531 33.1641 67.5585 33.588 66.6401 33.588C65.651 33.588 65.1564 32.6695 65.1564 30.9739C65.1564 28.8544 65.7216 27.7946 66.9227 27.7946C67.6292 27.7946 67.9118 27.8652 68.4064 27.9359V32.8108ZM53.1457 20.9414H49.5424V36.2728H53.1457V28.5011C53.4283 28.1479 54.2054 27.7239 54.9119 27.7239C55.9717 27.7239 56.6076 28.2892 56.6076 29.3489V36.2021H60.2108V28.925C60.2108 26.2403 59.0097 24.8979 56.4663 24.8979C54.9119 24.8979 54.0641 25.2511 53.1457 25.8164V20.9414ZM42.6892 30.6207C42.6892 28.9957 43.6077 28.0065 45.374 28.0065C46.2925 28.0065 47.0696 28.2892 47.7761 28.7131L48.2707 25.6751C47.2816 25.2511 46.2218 24.9685 44.4555 24.9685C40.8523 24.9685 38.8741 27.0174 38.8741 30.8326C38.8741 34.6478 40.711 36.5554 44.3849 36.5554C46.1512 36.5554 47.7761 35.9902 48.4827 35.5663L47.9881 32.7402C47.2109 33.1641 46.3631 33.5174 45.374 33.5174C43.6077 33.3761 42.6892 32.3163 42.6892 30.6207ZM34.635 36.2728H37.5317V25.1098H33.9285V32.8108C33.6459 33.1641 32.8687 33.588 32.1622 33.588C31.1024 33.588 30.4665 33.0228 30.4665 31.963V25.1098H26.8633V32.4576C26.8633 35.1423 28.0644 36.4847 30.6078 36.4847C32.5154 36.4847 33.5752 35.9195 34.3524 35.001L34.635 36.2728ZM22.2003 36.2728H26.3688C24.7438 31.7511 22.3416 25.2511 20.5047 20.9414H15.7711C13.8635 25.2511 11.532 31.7511 9.90698 36.2728H14.0754C14.4287 35.213 14.8526 33.8706 15.2765 32.3869H20.9286C21.4232 33.8 21.8471 35.1423 22.2003 36.2728ZM20.0101 29.4196H16.195C16.7602 27.5826 17.396 25.6751 18.1025 23.8381C18.8091 25.6751 19.4449 27.5826 20.0101 29.4196Z" fill="#E30613"/>
<path d="M89.1779 16.7021C89.4605 16.7021 89.7431 16.9141 89.7431 17.2674V40.1584C89.7431 40.441 89.5311 40.7236 89.1779 40.7236" fill="#E30613"/>
<path d="M89.1779 40.7236C88.8953 40.7236 88.6127 40.5117 88.6127 40.1584V17.2674C88.6127 16.9848 88.8246 16.7021 89.1779 16.7021" fill="#E30613"/>
</svg>
