<svg width="127" height="50" viewBox="0 0 127 50" fill="none" xmlns="http://www.w3.org/2000/svg">
<path d="M8 16.918H16.0852C17.6253 16.918 18.7803 17.3 19.6359 17.9368C20.577 18.7009 21.0904 19.8046 21.0904 21.163C21.0904 22.7336 20.4487 23.7099 19.1653 24.3042V24.3891C20.8765 24.941 21.8604 26.4692 21.8604 28.2945C21.8604 30.035 21.1759 31.3933 20.0637 32.2423C19.1225 32.9215 17.9247 33.2187 16.2991 33.2187H8V16.918ZM15.2724 23.2854C16.128 23.2854 16.7697 22.8185 16.7697 21.8422C16.7697 20.9083 16.128 20.4413 15.2297 20.4413H12.449V23.243H15.2724V23.2854ZM15.6575 29.6105C16.6414 29.6105 17.3686 29.0162 17.3686 27.9549C17.3686 26.8088 16.5986 26.2994 15.6575 26.2994H12.4918V29.6529H15.6575V29.6105Z" fill="white"/>
<path d="M22.5859 16.918H26.821V33.2611H22.5859V16.918Z" fill="white"/>
<path d="M27.6797 27.4453C27.6797 23.7521 30.0754 21.29 33.7971 21.29C37.5189 21.29 39.8717 23.7946 39.8717 27.4453C39.8717 31.1384 37.5189 33.6005 33.7971 33.6005C30.0754 33.6005 27.6797 31.1384 27.6797 27.4453ZM35.6366 27.4453C35.6366 25.4077 34.9949 24.1342 33.7116 24.1342C32.4282 24.1342 31.8293 25.4077 31.8293 27.4453C31.8293 29.4829 32.4282 30.7988 33.7116 30.7988C34.9949 30.7564 35.6366 29.4829 35.6366 27.4453Z" fill="white"/>
<path d="M40.3398 27.4453C40.3398 23.7521 42.7355 21.29 46.4572 21.29C50.179 21.29 52.4891 23.7521 52.4891 27.4453C52.4891 31.1384 50.1362 33.6005 46.4145 33.6005C42.7355 33.6005 40.3398 31.1384 40.3398 27.4453ZM48.2967 27.4453C48.2967 25.4077 47.655 24.1342 46.3717 24.1342C45.0883 24.1342 44.4894 25.4077 44.4894 27.4453C44.4894 29.4829 45.0883 30.7988 46.3717 30.7988C47.655 30.7564 48.2967 29.4829 48.2967 27.4453Z" fill="white"/>
<path d="M53.3438 21.5876H57.2794V23.3281H57.365C58.1351 21.9697 59.2044 21.248 60.9156 21.248C62.4129 21.248 63.5252 21.9697 64.0813 23.2432H64.1669C65.108 21.715 66.3486 21.248 67.8031 21.248C70.541 21.248 71.696 23.2432 71.696 25.9175V33.2189H67.5891V26.6391C67.5891 25.4506 67.2042 24.6865 66.1775 24.6865C65.1508 24.6865 64.6375 25.6204 64.6375 26.8938V33.2189H60.5307V26.6391C60.5307 25.4506 60.1456 24.6865 59.1189 24.6865C58.0922 24.6865 57.5788 25.6204 57.5788 26.8938V33.2189H53.3438V21.5876Z" fill="white"/>
<path d="M76.873 31.6905H76.83V33.2187H72.8945V16.918H77.001V22.7761H77.087C77.857 21.7573 78.926 21.2054 80.424 21.2054C83.375 21.2054 85.086 23.8373 85.086 27.3606C85.086 31.3085 83.247 33.6007 80.167 33.6007C78.884 33.6007 77.557 33.0064 76.873 31.6905ZM80.851 27.3182C80.851 25.4504 80.167 24.2193 78.926 24.2193C77.643 24.2193 76.873 25.4504 76.873 27.3182C76.873 29.186 77.686 30.417 78.926 30.417C80.167 30.417 80.851 29.2284 80.851 27.3182Z" fill="white"/>
<path d="M85.5586 27.4032C85.5586 23.7526 87.9966 21.248 91.5046 21.248C93.2586 21.248 94.5846 21.7999 95.6116 22.7762C96.9806 24.0922 97.5796 26.1298 97.5366 28.5069H89.6656C89.8366 29.9502 90.5206 30.7143 91.7616 30.7143C92.4886 30.7143 93.1306 30.3747 93.3866 29.6106H97.3656C96.6806 32.285 94.5846 33.6009 91.6326 33.6009C87.9966 33.5585 85.5586 31.0964 85.5586 27.4032ZM89.6656 26.1722H93.4296C93.3446 24.7714 92.5746 24.0497 91.5906 24.0497C90.4356 24.0073 89.7936 24.8138 89.6656 26.1722Z" fill="white"/>
<path d="M102.198 23.5828H102.283C103.139 21.9698 104.251 21.333 105.663 21.333C106.005 21.333 106.219 21.3755 106.347 21.4604V25.0261H106.262C103.823 24.6016 102.412 25.7478 102.412 28.3797V33.2614H98.2617V21.5877H102.198V23.5828Z" fill="white"/>
<path d="M106.777 33.2608H110.756C110.927 33.7702 111.44 34.2372 112.424 34.2372C113.75 34.2372 114.221 33.4306 114.221 32.1996V31.3506H114.135C113.493 32.1147 112.595 32.6665 111.312 32.6665C108.788 32.6665 106.562 30.7987 106.562 27.148C106.562 23.7945 108.36 21.2051 111.098 21.2051C112.681 21.2051 113.621 21.8418 114.262 22.8182H114.349V21.5447H118.285V31.6477C118.285 33.5155 117.643 34.9588 116.659 35.8078C115.632 36.6993 114.178 37.0813 112.51 37.0813C109.344 37.1238 107.162 35.8503 106.777 33.2608ZM114.392 26.9782C114.392 25.535 113.707 24.3464 112.51 24.3464C111.354 24.3464 110.627 25.3652 110.627 26.9782C110.627 28.5489 111.354 29.6526 112.51 29.6526C113.665 29.6526 114.392 28.5064 114.392 26.9782Z" fill="white"/>
</svg>
