<svg width="160" height="58" viewBox="0 0 160 58" fill="none" xmlns="http://www.w3.org/2000/svg">
<g clip-path="url(#clip0_17077_16667)">
<path d="M63.1556 28.1975C63.1556 25.4744 65.0999 23.6478 67.851 23.6478C68.8913 23.6352 69.911 23.938 70.7759 24.5163L69.9242 26.0515C69.2884 25.6417 68.5512 25.4166 67.795 25.4016C67.052 25.4016 66.3394 25.6968 65.814 26.2221C65.2886 26.7475 64.9934 27.4601 64.9934 28.2031C64.9934 28.9461 65.2886 29.6587 65.814 30.1841C66.3394 30.7095 67.052 31.0046 67.795 31.0046C68.5512 30.9896 69.2884 30.7646 69.9242 30.3547L70.7759 31.89C69.911 32.4683 68.8913 32.771 67.851 32.7584C65.0943 32.7416 63.1556 30.915 63.1556 28.1975Z" fill="#020A0A"/>
<path d="M79.4046 28.1971V28.4885H72.7873C72.7848 28.8258 72.8507 29.1601 72.9808 29.4712C73.1109 29.7823 73.3027 30.0639 73.5446 30.299C73.7865 30.5341 74.0734 30.7177 74.3881 30.8389C74.7029 30.9601 75.0389 31.0164 75.3759 31.0043C75.8989 30.9844 76.4092 30.8379 76.863 30.5773C77.3168 30.3167 77.7006 29.9499 77.9814 29.5083L79.2533 30.7073C78.8329 31.3437 78.2587 31.8638 77.5839 32.2194C76.9091 32.5749 76.1554 32.7544 75.3927 32.7413C72.6753 32.7413 70.9103 30.9146 70.9103 28.2139C70.9103 25.6253 72.5408 23.6475 75.2751 23.6475C77.9254 23.6475 79.4046 25.4404 79.4046 28.1971ZM72.8826 27.1774H77.4491C77.3707 25.9952 76.5022 25.3115 75.2079 25.3115C74.6549 25.2649 74.1052 25.4325 73.6724 25.7798C73.2396 26.1271 72.9568 26.6274 72.8826 27.1774Z" fill="#020A0A"/>
<path d="M88.19 27.2391V32.4892H86.386V27.5304C86.386 26.068 85.6465 25.4573 84.4306 25.4573C83.0971 25.4573 82.1558 26.253 82.1558 28.3821V32.4668H80.3403V23.9221H82.1558V25.2164H82.1894C82.461 24.7175 82.8682 24.3055 83.3638 24.0279C83.8595 23.7503 84.4235 23.6185 84.9909 23.6475C86.8007 23.6475 88.19 24.628 88.19 27.2391Z" fill="#020A0A"/>
<path d="M88.9299 31.8391L89.748 30.2311C90.5655 30.7389 91.5033 31.0193 92.4653 31.0435C93.334 31.0435 93.7933 30.7858 93.7933 30.2479C93.7933 29.8949 93.6083 29.6371 92.8915 29.2841L91.3391 28.5277C90.0449 27.917 89.5461 27.0485 89.5461 26.068C89.5461 24.4991 90.706 23.6475 92.5777 23.6475C93.5988 23.6649 94.6057 23.8918 95.5357 24.3142L94.7907 25.883C94.0767 25.5477 93.3036 25.3572 92.5159 25.3228C91.7203 25.3228 91.4623 25.5805 91.4623 25.9727C91.4623 26.3649 91.7035 26.6339 92.4428 26.9869L94.0289 27.7433C95.1494 28.2644 95.7094 29.004 95.7094 30.147C95.7094 31.8839 94.3764 32.7356 92.3815 32.7356C91.1733 32.7348 89.9858 32.4263 88.9299 31.8391Z" fill="#020A0A"/>
<path d="M98.466 25.2162H98.5053C98.7769 24.7172 99.1845 24.3053 99.6798 24.0277C100.176 23.7501 100.74 23.6183 101.307 23.6473C103.117 23.6473 104.523 24.6279 104.523 27.2165V32.4666H102.713V27.5302C102.713 26.0679 101.974 25.4571 100.752 25.4571C99.419 25.4571 98.4772 26.2528 98.4772 28.3819V32.4666H96.6674V19.5234H98.4772L98.466 25.2162Z" fill="#020A0A"/>
<path d="M105.347 28.1971C105.347 25.3452 107.252 23.6474 109.504 23.6474C110.08 23.6122 110.654 23.737 111.164 24.008C111.673 24.2789 112.098 24.6855 112.39 25.1827H112.429V23.922H114.239V32.4667H112.429V31.206H112.39C112.098 31.7032 111.673 32.1098 111.164 32.3808C110.654 32.6517 110.08 32.7765 109.504 32.7413C107.252 32.7413 105.347 31.0435 105.347 28.1971ZM112.519 28.1971C112.519 26.5666 111.482 25.4237 109.891 25.4237C108.3 25.4237 107.268 26.5443 107.268 28.1971C107.268 29.8501 108.305 30.9987 109.891 30.9987C111.477 30.9987 112.519 29.8221 112.519 28.1971Z" fill="#020A0A"/>
<path d="M120.061 25.794H119.786C118.01 25.794 117.068 26.64 117.068 28.674V32.4673H115.253V23.9226H117.068V25.794H117.102C117.266 25.1726 117.634 24.6246 118.147 24.2383C118.661 23.8519 119.289 23.6499 119.932 23.6648H120.061V25.794Z" fill="#020A0A"/>
<path d="M128.695 28.1971V28.4885H122.078C122.075 28.8258 122.141 29.1601 122.271 29.4712C122.401 29.7823 122.593 30.0639 122.835 30.299C123.077 30.5341 123.364 30.7177 123.679 30.8389C123.994 30.9601 124.329 31.0164 124.667 31.0043C125.192 30.9871 125.706 30.8418 126.163 30.5811C126.62 30.3205 127.006 29.9521 127.289 29.5083L128.561 30.7073C128.14 31.3437 127.566 31.8638 126.891 32.2194C126.216 32.5749 125.463 32.7544 124.7 32.7413C121.977 32.7413 120.218 30.9146 120.218 28.2139C120.218 25.6253 121.848 23.6475 124.582 23.6475C127.216 23.6475 128.695 25.4404 128.695 28.1971ZM122.167 27.1774H126.728C126.65 25.9952 125.781 25.3115 124.487 25.3115C123.936 25.2678 123.388 25.4366 122.957 25.7835C122.525 26.1304 122.243 26.6291 122.167 27.1774Z" fill="#020A0A"/>
<path d="M38.4564 20.3477C36.2943 20.3477 34.2207 21.2066 32.6918 22.7355C31.1629 24.2643 30.304 26.338 30.304 28.5001C30.304 30.6623 31.1629 32.736 32.6918 34.2648C34.2207 35.7937 36.2943 36.6526 38.4564 36.6526H46.6089V20.3477H38.4564Z" fill="#F05C61"/>
<path d="M54.7614 36.6523H46.6089V44.8048C46.6089 46.4172 47.087 47.9934 47.9828 49.3341C48.8787 50.6748 50.1519 51.7197 51.6416 52.3367C53.1312 52.9538 54.7704 53.1153 56.3518 52.8007C57.9333 52.4861 59.3859 51.7097 60.526 50.5695C61.6662 49.4294 62.4426 47.9767 62.7572 46.3953C63.0718 44.8139 62.9103 43.1747 62.2933 41.685C61.6763 40.1954 60.6313 38.9221 59.2907 38.0263C57.95 37.1305 56.3738 36.6523 54.7614 36.6523Z" fill="#F5B066"/>
<path d="M46.6089 12.1955V20.3479H54.7614C56.3738 20.3479 57.95 19.8698 59.2907 18.974C60.6313 18.0782 61.6763 16.8049 62.2933 15.3153C62.9103 13.8256 63.0718 12.1864 62.7572 10.605C62.4426 9.02356 61.6662 7.57093 60.526 6.43078C59.3859 5.29064 57.9333 4.51419 56.3518 4.19962C54.7704 3.88505 53.1312 4.0465 51.6416 4.66354C50.1519 5.28058 48.8787 6.32551 47.9828 7.66618C47.087 9.00685 46.6089 10.5831 46.6089 12.1955Z" fill="#6380F7"/>
</g>
<defs>
<clipPath id="clip0_17077_16667">
<rect width="98.3921" height="48.9149" fill="white" transform="translate(30.304 4.04297)"/>
</clipPath>
</defs>
</svg>
