<svg width="160" height="58" viewBox="0 0 160 58" fill="none" xmlns="http://www.w3.org/2000/svg">
<g clip-path="url(#clip0_17011_10043)">
<path d="M43.3719 35.1179C42.4079 35.1167 41.4569 34.9033 40.5918 34.4942C39.7266 34.085 38.9701 33.491 38.3801 32.7574C37.7901 32.0239 37.3823 31.1702 37.1878 30.2617C36.9933 29.3533 37.0172 28.414 37.2579 27.5158C37.4985 26.6176 37.9494 25.7843 38.5761 25.0795C39.2028 24.3747 39.9887 23.8171 40.8737 23.4493C41.7587 23.0815 42.7194 22.9134 43.6824 22.9576C44.6453 23.0019 45.585 23.2574 46.4295 23.7046C47.3382 24.1843 48.0947 24.8918 48.6187 25.7521L48.6667 25.8318L46.7832 26.8831L46.7365 26.7996C46.4233 26.2412 45.951 25.7804 45.3751 25.4713C44.7638 25.1411 44.0729 24.9716 43.3719 24.9798C42.8098 24.9587 42.2491 25.0494 41.725 25.2463C41.2009 25.4432 40.7247 25.742 40.3262 26.1241C39.5764 26.9205 39.1612 27.9566 39.1612 29.0311C39.1612 30.1057 39.5764 31.1418 40.3262 31.9382C40.7247 32.3203 41.2009 32.6191 41.725 32.816C42.2491 33.0129 42.8098 33.1036 43.3719 33.0825C44.0756 33.0902 44.769 32.9208 45.3836 32.591C45.96 32.2874 46.4303 31.8266 46.7352 31.2665L46.7813 31.1817L48.666 32.2153L48.6187 32.295C48.104 33.158 47.3538 33.8691 46.4493 34.3513C45.5109 34.8594 44.4507 35.1224 43.3739 35.1141" fill="black"/>
<path d="M51.4704 23.1338H49.4265V34.9032H51.4704V23.1338Z" fill="black"/>
<path d="M64.7621 34.9041L61.3436 26.4668H63.5696L65.9054 32.5827L68.2234 26.4668H70.454L67.0355 34.9041H64.7621Z" fill="black"/>
<path d="M80.1532 34.9047V26.468H82.1971V27.568C82.4617 27.1545 82.8396 26.8192 83.2894 26.5989C83.7392 26.3787 84.2433 26.2819 84.7465 26.3194H84.8418V28.4402L84.7406 28.4339C84.667 28.4293 84.5944 28.427 84.523 28.427C83.9589 28.4182 83.407 28.5853 82.9498 28.9033C82.6862 29.1143 82.4802 29.384 82.3495 29.689C82.2187 29.994 82.1673 30.325 82.1997 30.6535V34.9047H80.1532Z" fill="black"/>
<path d="M92.3724 35.1179C91.4084 35.1167 90.4574 34.9033 89.5922 34.4942C88.727 34.085 87.9705 33.491 87.3806 32.7574C86.7906 32.0239 86.3828 31.1702 86.1883 30.2617C85.9938 29.3533 86.0177 28.414 86.2584 27.5158C86.499 26.6176 86.9499 25.7843 87.5766 25.0795C88.2033 24.3747 88.9892 23.8171 89.8742 23.4493C90.7592 23.0815 91.7199 22.9134 92.6829 22.9576C93.6458 23.0019 94.5855 23.2574 95.43 23.7046C96.3387 24.1842 97.0952 24.8918 97.6192 25.7521L97.6672 25.8318L95.7837 26.8831L95.737 26.7996C95.4238 26.2412 94.9515 25.7804 94.3756 25.4713C93.7643 25.1411 93.0734 24.9716 92.3724 24.9798C91.8103 24.9587 91.2496 25.0495 90.7255 25.2463C90.2015 25.4432 89.7252 25.742 89.3266 26.1241C88.5769 26.9205 88.1617 27.9566 88.1617 29.0311C88.1617 30.1057 88.5769 31.1418 89.3266 31.9382C89.7252 32.3203 90.2014 32.6191 90.7255 32.816C91.2496 33.0129 91.8103 33.1036 92.3724 33.0825C93.0763 33.0903 93.77 32.9208 94.3847 32.591C94.9613 32.2874 95.4318 31.8266 95.737 31.2665L95.7824 31.1817L97.6672 32.2153L97.6199 32.295C97.1053 33.158 96.355 33.8692 95.4504 34.3513C94.512 34.8594 93.4518 35.1224 92.3751 35.1141" fill="black"/>
<path d="M102.812 35.1181C102.204 35.1279 101.601 35.0196 101.038 34.7994C100.476 34.5793 99.9647 34.252 99.5367 33.8372C98.6723 32.9989 98.1873 31.8659 98.1873 30.685C98.1873 29.5041 98.6723 28.3711 99.5367 27.5328C100.415 26.7115 101.591 26.252 102.816 26.252C104.041 26.252 105.217 26.7115 106.096 27.5328C106.748 28.1536 107.193 28.9476 107.373 29.8131C107.554 30.6786 107.461 31.5763 107.108 32.391C106.755 33.2058 106.157 33.9006 105.391 34.3865C104.625 34.8723 103.726 35.127 102.809 35.1181M102.809 28.1685C102.468 28.1615 102.129 28.2214 101.814 28.3445C101.498 28.4676 101.211 28.6514 100.972 28.8845C100.494 29.3712 100.228 30.0154 100.228 30.685C100.228 31.3546 100.494 31.9988 100.972 32.4855C101.464 32.9448 102.123 33.2016 102.809 33.2016C103.495 33.2016 104.154 32.9448 104.646 32.4855C105.124 31.9988 105.39 31.3546 105.39 30.685C105.39 30.0154 105.124 29.3712 104.646 28.8845C104.407 28.6513 104.12 28.4675 103.804 28.3444C103.489 28.2213 103.15 28.1614 102.809 28.1685" fill="black"/>
<path d="M114.42 34.9042V29.9262C114.437 29.6805 114.403 29.4341 114.319 29.2014C114.235 28.9687 114.104 28.7544 113.933 28.5713C113.754 28.4105 113.544 28.286 113.313 28.2055C113.083 28.125 112.839 28.09 112.594 28.1026C112.316 28.0913 112.038 28.1351 111.778 28.2312C111.518 28.3272 111.281 28.4736 111.082 28.6611C110.662 29.1417 110.456 29.7622 110.509 30.3879V34.9035H108.465V26.4669H110.509V27.3265C110.817 26.9648 111.21 26.6787 111.656 26.4918C112.102 26.3048 112.587 26.2224 113.073 26.2512C113.527 26.2345 113.979 26.309 114.402 26.4701C114.824 26.6312 115.207 26.8752 115.526 27.1867C116.178 27.8859 116.514 28.8051 116.462 29.7428V34.9023L114.42 34.9042Z" fill="black"/>
<path d="M123.658 34.9042V29.9262C123.675 29.6805 123.641 29.4341 123.557 29.2014C123.474 28.9687 123.343 28.7544 123.171 28.5713C122.992 28.4104 122.782 28.286 122.551 28.2054C122.321 28.1249 122.076 28.0899 121.832 28.1026C121.553 28.0913 121.276 28.1351 121.016 28.2312C120.755 28.3272 120.519 28.4736 120.32 28.6611C119.9 29.1417 119.694 29.7622 119.746 30.3879V34.9035H117.703V26.4669H119.746V27.3265C120.055 26.9648 120.448 26.6787 120.894 26.4918C121.339 26.3048 121.825 26.2224 122.31 26.2512C122.765 26.2343 123.218 26.3088 123.641 26.4702C124.064 26.6315 124.447 26.876 124.766 27.188C125.418 27.8871 125.755 28.8064 125.703 29.744V34.9035L123.658 34.9042Z" fill="black"/>
<path d="M140.875 35.1184C140.266 35.1254 139.661 35.0159 139.095 34.7963C138.53 34.5766 138.015 34.2512 137.582 33.8389C137.148 33.4265 136.804 32.9355 136.569 32.3941C136.334 31.8528 136.213 31.272 136.213 30.6853C136.213 30.0987 136.334 29.5178 136.569 28.9765C136.804 28.4352 137.148 27.9441 137.582 27.5318C138.015 27.1195 138.53 26.794 139.095 26.5744C139.661 26.3548 140.266 26.2453 140.875 26.2523C141.693 26.2445 142.498 26.4483 143.205 26.8424C143.882 27.2126 144.432 27.7651 144.786 28.432L144.827 28.5091L143.064 29.494L143.019 29.4035C142.838 29.0303 142.543 28.7189 142.173 28.5104C141.774 28.289 141.319 28.1764 140.858 28.1846C140.519 28.177 140.181 28.2366 139.867 28.3596C139.552 28.4827 139.268 28.6666 139.03 28.9C138.557 29.3828 138.294 30.0211 138.294 30.6844C138.294 31.3477 138.557 31.9859 139.03 32.4687C139.268 32.7021 139.552 32.8861 139.867 33.0091C140.181 33.1322 140.519 33.1918 140.858 33.1841C141.32 33.1895 141.774 33.074 142.173 32.8501C142.549 32.642 142.855 32.3347 143.055 31.9646L143.1 31.8792L144.863 32.8457L144.819 32.9248C144.449 33.595 143.889 34.151 143.205 34.5289C142.497 34.923 141.692 35.1268 140.875 35.119" fill="black"/>
<path d="M149.767 34.9756C149.079 35.0165 148.394 34.8626 147.795 34.5329C147.153 34.1148 146.827 33.3425 146.827 32.2368V28.367H145.249V26.4694H146.827V24.7066L148.871 23.9912V26.4669H150.998V28.3645H148.871V32.2343C148.859 32.3539 148.872 32.4746 148.909 32.5893C148.946 32.7041 149.006 32.8106 149.086 32.9029C149.269 33.0496 149.5 33.1283 149.738 33.1249C149.871 33.1316 150.019 33.135 150.182 33.135C150.397 33.135 150.642 33.1287 150.905 33.116L151.005 33.1116V34.8903L150.921 34.8997C150.54 34.9459 150.157 34.9702 149.773 34.9725" fill="black"/>
<path d="M59.4562 32.3135C59.3795 32.403 59.2967 32.4875 59.2083 32.5665C58.6443 33.0659 57.9004 33.3345 57.1342 33.3154C56.7972 33.3206 56.4629 33.2565 56.1537 33.1273C55.8446 32.9982 55.5676 32.807 55.3415 32.5665C55.2596 32.4806 55.1838 32.3896 55.1147 32.2939L59.6508 30.705L61.5967 30.0237C61.4765 29.0814 61.0333 28.2044 60.3371 27.5316C59.9177 27.1256 59.4191 26.8034 58.8698 26.5835C58.3205 26.3637 57.7314 26.2505 57.1365 26.2505C56.5416 26.2505 55.9526 26.3637 55.4033 26.5835C54.854 26.8034 54.3553 27.1256 53.9359 27.5316C53.0908 28.3795 52.6189 29.5089 52.6189 30.6838C52.6189 31.8586 53.0908 32.988 53.9359 33.836C54.349 34.2489 54.8459 34.5756 55.3957 34.796C55.9456 35.0163 56.5367 35.1255 57.1323 35.1168C58.4167 35.1449 59.6608 34.6847 60.5948 33.836C60.7879 33.6607 60.9656 33.4703 61.126 33.2667L61.0261 33.1959L59.4562 32.3135ZM55.3415 28.8011C55.571 28.5647 55.8486 28.3762 56.157 28.2474C56.4654 28.1185 56.798 28.052 57.1342 28.052C57.4704 28.052 57.8031 28.1185 58.1115 28.2474C58.4199 28.3762 58.6974 28.5647 58.927 28.8011C59.0028 28.881 59.0733 28.9655 59.138 29.0541L54.6177 30.6354C54.6061 29.9575 54.8649 29.3011 55.3408 28.8011" fill="black"/>
<path d="M77.0067 32.3135C76.9299 32.403 76.8471 32.4875 76.7588 32.5665C76.1948 33.0659 75.451 33.3345 74.6847 33.3154C74.3477 33.3206 74.0134 33.2565 73.7042 33.1273C73.3951 32.9982 73.1181 32.807 72.892 32.5665C72.8101 32.4806 72.7343 32.3895 72.6652 32.2939L77.2013 30.705L79.1472 30.0237C79.0272 29.0815 78.5842 28.2045 77.8883 27.5316C77.4689 27.1256 76.9702 26.8034 76.4209 26.5835C75.8716 26.3637 75.2826 26.2505 74.6877 26.2505C74.0928 26.2505 73.5037 26.3637 72.9544 26.5835C72.4052 26.8034 71.9065 27.1256 71.4871 27.5316C70.6419 28.3795 70.17 29.5089 70.17 30.6838C70.17 31.8586 70.6419 32.988 71.4871 33.836C71.9002 34.2489 72.3971 34.5756 72.9469 34.796C73.4968 35.0163 74.0878 35.1255 74.6834 35.1168C75.9676 35.1448 77.2115 34.6846 78.1453 33.836C78.3384 33.6607 78.5161 33.4702 78.6765 33.2667L78.5766 33.1959L77.0067 32.3135ZM72.892 28.8011C73.1215 28.5647 73.3991 28.3762 73.7075 28.2474C74.0159 28.1185 74.3485 28.052 74.6847 28.052C75.0209 28.052 75.3536 28.1185 75.662 28.2474C75.9704 28.3762 76.2479 28.5647 76.4775 28.8011C76.5533 28.881 76.6238 28.9655 76.6885 29.0541L72.1682 30.6354C72.1566 29.9575 72.4154 29.3011 72.8913 28.8011" fill="black"/>
<path d="M133.459 32.3135C133.382 32.403 133.3 32.4875 133.211 32.5665C132.647 33.0659 131.903 33.3345 131.137 33.3154C130.8 33.3206 130.466 33.2565 130.157 33.1273C129.847 32.9982 129.571 32.807 129.344 32.5665C129.262 32.4807 129.187 32.3896 129.118 32.2939L133.654 30.705L135.6 30.0237C135.48 29.0815 135.037 28.2045 134.341 27.5316C133.921 27.1256 133.423 26.8034 132.873 26.5835C132.324 26.3637 131.735 26.2505 131.14 26.2505C130.545 26.2505 129.956 26.3637 129.407 26.5835C128.858 26.8034 128.359 27.1256 127.939 27.5316C127.094 28.3795 126.622 29.5089 126.622 30.6838C126.622 31.8586 127.094 32.988 127.939 33.836C128.353 34.2489 128.849 34.5756 129.399 34.796C129.949 35.0163 130.54 35.1255 131.136 35.1168C132.42 35.1448 133.664 34.6846 134.598 33.836C134.791 33.6607 134.968 33.4703 135.129 33.2667L135.029 33.1959L133.459 32.3135ZM129.344 28.8011C129.574 28.5647 129.851 28.3762 130.16 28.2474C130.468 28.1185 130.801 28.052 131.137 28.052C131.473 28.052 131.806 28.1185 132.114 28.2474C132.423 28.3762 132.7 28.5647 132.93 28.8011C133.006 28.881 133.076 28.9655 133.141 29.0541L128.621 30.6354C128.609 29.9575 128.868 29.3011 129.344 28.8011" fill="black"/>
<path d="M28.7426 24.9086C28.7426 25.0368 28.7031 25.1622 28.629 25.2688C28.555 25.3754 28.4497 25.4585 28.3266 25.5076C28.2035 25.5567 28.068 25.5695 27.9373 25.5445C27.8066 25.5195 27.6865 25.4577 27.5923 25.367C27.498 25.2764 27.4338 25.1608 27.4078 25.0351C27.3818 24.9093 27.3952 24.779 27.4462 24.6605C27.4972 24.542 27.5836 24.4408 27.6944 24.3695C27.8052 24.2983 27.9355 24.2603 28.0687 24.2603C28.2475 24.2603 28.4189 24.3286 28.5452 24.4501C28.6716 24.5717 28.7426 24.7366 28.7426 24.9086Z" fill="#01BA18"/>
<path d="M25.531 22.312C25.3643 22.312 25.2014 22.3596 25.0628 22.4487C24.9242 22.5378 24.8162 22.6644 24.7524 22.8126C24.6886 22.9608 24.6719 23.1238 24.7044 23.2811C24.7369 23.4384 24.8172 23.5829 24.9351 23.6963C25.053 23.8097 25.2031 23.8869 25.3666 23.9182C25.5301 23.9495 25.6996 23.9335 25.8536 23.8721C26.0076 23.8107 26.1392 23.7068 26.2318 23.5734C26.3244 23.4401 26.3738 23.2833 26.3738 23.1229C26.3738 22.9078 26.285 22.7016 26.127 22.5495C25.9689 22.3974 25.7546 22.312 25.531 22.312Z" fill="#0BBF2F"/>
<path d="M22.2935 21.7256C22.0965 21.7256 21.9039 21.7818 21.7401 21.8871C21.5763 21.9924 21.4487 22.142 21.3733 22.3171C21.2979 22.4922 21.2782 22.6849 21.3166 22.8708C21.3551 23.0567 21.4499 23.2274 21.5892 23.3615C21.7285 23.4955 21.906 23.5867 22.0992 23.6237C22.2923 23.6607 22.4926 23.6417 22.6746 23.5692C22.8566 23.4967 23.0121 23.3738 23.1216 23.2163C23.231 23.0587 23.2894 22.8734 23.2894 22.6839C23.2894 22.4297 23.1845 22.186 22.9977 22.0063C22.8109 21.8265 22.5576 21.7256 22.2935 21.7256Z" fill="#0FC139"/>
<path d="M19.3014 22.6074C19.0666 22.6074 18.837 22.6744 18.6418 22.7999C18.4466 22.9255 18.2944 23.1039 18.2045 23.3126C18.1147 23.5213 18.0911 23.751 18.1369 23.9726C18.1828 24.1942 18.2958 24.3978 18.4619 24.5575C18.6279 24.7173 18.8395 24.8261 19.0698 24.8702C19.3001 24.9142 19.5388 24.8916 19.7558 24.8051C19.9727 24.7187 20.1581 24.5723 20.2886 24.3844C20.4191 24.1966 20.4887 23.9757 20.4887 23.7498C20.4887 23.4468 20.3636 23.1562 20.1409 22.942C19.9183 22.7278 19.6163 22.6074 19.3014 22.6074Z" fill="#18C552"/>
<path d="M17.205 24.7349C16.9475 24.7349 16.6957 24.8083 16.4815 24.946C16.2673 25.0837 16.1004 25.2794 16.0018 25.5084C15.9033 25.7373 15.8775 25.9893 15.9277 26.2323C15.978 26.4754 16.102 26.6987 16.2842 26.8739C16.4663 27.0492 16.6983 27.1685 16.951 27.2169C17.2036 27.2652 17.4654 27.2404 17.7034 27.1455C17.9414 27.0507 18.1448 26.8901 18.2879 26.684C18.431 26.478 18.5074 26.2357 18.5074 25.9879C18.5074 25.6556 18.3701 25.3369 18.1259 25.1019C17.8817 24.8669 17.5504 24.7349 17.205 24.7349Z" fill="#44D33B"/>
<path d="M16.4145 27.6724C16.1414 27.6724 15.8745 27.7503 15.6475 27.8962C15.4205 28.0422 15.2435 28.2496 15.139 28.4923C15.0345 28.7351 15.0072 29.0021 15.0605 29.2598C15.1137 29.5175 15.2452 29.7542 15.4383 29.9399C15.6314 30.1257 15.8774 30.2522 16.1452 30.3034C16.413 30.3547 16.6905 30.3284 16.9428 30.2279C17.1951 30.1273 17.4107 29.9571 17.5624 29.7386C17.7141 29.5202 17.795 29.2634 17.795 29.0007C17.795 28.6484 17.6496 28.3105 17.3907 28.0614C17.1318 27.8123 16.7806 27.6724 16.4145 27.6724Z" fill="#66DC22"/>
<path d="M17.205 30.7588C16.9475 30.7588 16.6957 30.8323 16.4815 30.97C16.2673 31.1077 16.1004 31.3033 16.0018 31.5323C15.9033 31.7613 15.8775 32.0132 15.9277 32.2563C15.978 32.4993 16.102 32.7226 16.2842 32.8979C16.4663 33.0731 16.6983 33.1924 16.951 33.2408C17.2036 33.2891 17.4654 33.2643 17.7034 33.1695C17.9414 33.0746 18.1448 32.914 18.2879 32.708C18.431 32.5019 18.5074 32.2597 18.5074 32.0118C18.5074 31.6795 18.3701 31.3608 18.1259 31.1258C17.8817 30.8908 17.5504 30.7588 17.205 30.7588Z" fill="#89E60B"/>
<path d="M19.3014 33.1074C19.0666 33.1074 18.837 33.1744 18.6418 33.2999C18.4466 33.4255 18.2944 33.6039 18.2045 33.8126C18.1147 34.0213 18.0911 34.251 18.1369 34.4726C18.1828 34.6942 18.2958 34.8978 18.4619 35.0575C18.6279 35.2173 18.8395 35.3261 19.0698 35.3701C19.3001 35.4142 19.5388 35.3916 19.7558 35.3051C19.9727 35.2187 20.1581 35.0723 20.2886 34.8844C20.4191 34.6966 20.4887 34.4757 20.4887 34.2498C20.4887 33.9468 20.3636 33.6562 20.1409 33.442C19.9183 33.2278 19.6163 33.1074 19.3014 33.1074Z" fill="#66E51F"/>
<path d="M22.2935 34.3589C22.0965 34.3589 21.9039 34.4151 21.7401 34.5204C21.5763 34.6257 21.4487 34.7753 21.3733 34.9505C21.2979 35.1256 21.2782 35.3182 21.3166 35.5041C21.3551 35.69 21.4499 35.8608 21.5892 35.9948C21.7285 36.1288 21.906 36.2201 22.0992 36.257C22.2923 36.294 22.4926 36.275 22.6746 36.2025C22.8566 36.13 23.0121 36.0071 23.1216 35.8496C23.231 35.692 23.2894 35.5067 23.2894 35.3172C23.2894 35.063 23.1845 34.8193 22.9977 34.6396C22.8109 34.4599 22.5576 34.3589 22.2935 34.3589Z" fill="#11DB62"/>
<path d="M25.531 34.0669C25.3643 34.0669 25.2014 34.1145 25.0628 34.2036C24.9242 34.2927 24.8162 34.4193 24.7524 34.5675C24.6886 34.7156 24.6719 34.8787 24.7044 35.036C24.7369 35.1933 24.8172 35.3378 24.9351 35.4512C25.053 35.5646 25.2031 35.6418 25.3666 35.6731C25.5301 35.7044 25.6996 35.6883 25.8536 35.627C26.0076 35.5656 26.1392 35.4617 26.2318 35.3283C26.3244 35.195 26.3738 35.0382 26.3738 34.8778C26.3738 34.6627 26.285 34.4565 26.127 34.3044C25.9689 34.1523 25.7546 34.0669 25.531 34.0669Z" fill="#00DEA7"/>
<path d="M28.0683 32.4424C27.935 32.4424 27.8047 32.4804 27.6939 32.5516C27.5831 32.6229 27.4967 32.7241 27.4457 32.8426C27.3947 32.9611 27.3814 33.0914 27.4074 33.2172C27.4334 33.343 27.4975 33.4585 27.5918 33.5492C27.686 33.6398 27.8061 33.7016 27.9368 33.7266C28.0675 33.7516 28.203 33.7388 28.3261 33.6897C28.4493 33.6406 28.5545 33.5575 28.6285 33.4509C28.7026 33.3443 28.7421 33.2189 28.7421 33.0907C28.7421 32.9188 28.6711 32.7539 28.5447 32.6323C28.4184 32.5107 28.247 32.4424 28.0683 32.4424Z" fill="#00D3C4"/>
<path d="M30.9333 34.0317C30.7666 34.0317 30.6036 34.0793 30.465 34.1684C30.3264 34.2575 30.2184 34.3841 30.1546 34.5323C30.0908 34.6805 30.0741 34.8435 30.1066 35.0008C30.1392 35.1581 30.2194 35.3026 30.3373 35.416C30.4552 35.5294 30.6053 35.6067 30.7688 35.638C30.9323 35.6692 31.1018 35.6532 31.2558 35.5918C31.4098 35.5304 31.5414 35.4265 31.634 35.2931C31.7266 35.1598 31.776 35.003 31.776 34.8426C31.776 34.6276 31.6873 34.4213 31.5292 34.2692C31.3711 34.1172 31.1568 34.0317 30.9333 34.0317Z" fill="#00D0C4"/>
<path d="M28.5762 35.9033C28.3566 35.9033 28.1419 35.966 27.9594 36.0833C27.7768 36.2007 27.6345 36.3675 27.5504 36.5627C27.4663 36.7579 27.4443 36.9726 27.4871 37.1798C27.5299 37.3871 27.6356 37.5774 27.7908 37.7269C27.946 37.8763 28.1438 37.9781 28.3592 38.0194C28.5745 38.0607 28.7977 38.0396 29.0006 37.9588C29.2035 37.8781 29.377 37.7413 29.4991 37.5656C29.6212 37.39 29.6864 37.1836 29.6865 36.9723C29.6865 36.6889 29.5696 36.4171 29.3614 36.2166C29.1532 36.0162 28.8707 35.9035 28.5762 35.9033Z" fill="#00E0BF"/>
<path d="M25.5946 37.021C25.337 37.021 25.0852 37.0945 24.871 37.2322C24.6569 37.3698 24.4899 37.5655 24.3914 37.7945C24.2928 38.0235 24.267 38.2754 24.3173 38.5185C24.3675 38.7615 24.4915 38.9848 24.6737 39.1601C24.8558 39.3353 25.0879 39.4546 25.3405 39.503C25.5931 39.5513 25.855 39.5265 26.0929 39.4317C26.3309 39.3368 26.5343 39.1762 26.6774 38.9702C26.8205 38.7641 26.8969 38.5219 26.8969 38.274C26.8969 37.9417 26.7597 37.623 26.5154 37.388C26.2712 37.153 25.94 37.021 25.5946 37.021Z" fill="#00DB96"/>
<path d="M22.2009 37.165C21.913 37.165 21.6316 37.2472 21.3922 37.401C21.1529 37.5549 20.9663 37.7736 20.8562 38.0295C20.746 38.2854 20.7172 38.567 20.7733 38.8387C20.8295 39.1103 20.9681 39.3598 21.1717 39.5557C21.3752 39.7515 21.6346 39.8849 21.9169 39.939C22.1992 39.993 22.4919 39.9653 22.7579 39.8593C23.0238 39.7533 23.2511 39.5738 23.4111 39.3435C23.571 39.1132 23.6564 38.8424 23.6564 38.5655C23.6564 38.194 23.503 37.8378 23.2301 37.5752C22.9571 37.3126 22.5869 37.165 22.2009 37.165Z" fill="#0EDA65"/>
<path d="M18.9776 36.4502C18.7046 36.4502 18.4376 36.5281 18.2106 36.6741C17.9836 36.82 17.8066 37.0275 17.7021 37.2702C17.5976 37.5129 17.5703 37.78 17.6236 38.0376C17.6768 38.2953 17.8083 38.532 18.0014 38.7178C18.1945 38.9035 18.4405 39.03 18.7083 39.0813C18.9761 39.1325 19.2537 39.1062 19.5059 39.0057C19.7582 38.9052 19.9738 38.7349 20.1255 38.5165C20.2772 38.298 20.3582 38.0412 20.3582 37.7785C20.3582 37.4262 20.2127 37.0884 19.9538 36.8393C19.6949 36.5901 19.3437 36.4502 18.9776 36.4502Z" fill="#4DE230"/>
<path d="M16.2728 34.7803C16.0077 34.7803 15.7485 34.8559 15.5281 34.9976C15.3077 35.1393 15.1359 35.3408 15.0344 35.5764C14.933 35.8121 14.9064 36.0714 14.9581 36.3216C15.0099 36.5718 15.1375 36.8016 15.325 36.982C15.5125 37.1623 15.7513 37.2852 16.0113 37.3349C16.2713 37.3847 16.5409 37.3592 16.7858 37.2615C17.0307 37.1639 17.2401 36.9986 17.3874 36.7865C17.5347 36.5744 17.6133 36.3251 17.6133 36.07C17.6133 35.7279 17.4721 35.3999 17.2207 35.158C16.9693 34.9162 16.6283 34.7803 16.2728 34.7803Z" fill="#84E90C"/>
<path d="M14.2791 32.4053C14.0277 32.4053 13.7818 32.477 13.5727 32.6114C13.3637 32.7459 13.2007 32.9369 13.1045 33.1604C13.0082 33.384 12.9831 33.6299 13.0321 33.8672C13.0812 34.1045 13.2023 34.3225 13.3801 34.4936C13.5579 34.6647 13.7844 34.7812 14.0311 34.8284C14.2777 34.8756 14.5333 34.8513 14.7657 34.7588C14.998 34.6662 15.1966 34.5094 15.3363 34.3082C15.476 34.107 15.5505 33.8705 15.5505 33.6286C15.5505 33.3041 15.4166 32.993 15.1782 32.7636C14.9397 32.5342 14.6163 32.4053 14.2791 32.4053Z" fill="#90E807"/>
<path d="M13.1895 29.4585C12.9473 29.4585 12.7105 29.5276 12.509 29.657C12.3075 29.7865 12.1505 29.9705 12.0576 30.1857C11.9648 30.401 11.9404 30.638 11.9875 30.8666C12.0345 31.0953 12.151 31.3053 12.3221 31.4703C12.4932 31.6353 12.7113 31.7478 12.9488 31.7936C13.1864 31.8394 13.4327 31.8164 13.6566 31.7275C13.8806 31.6387 14.0722 31.488 14.2071 31.2944C14.3421 31.1008 14.4144 30.8731 14.4149 30.6401C14.4153 30.485 14.3838 30.3314 14.3224 30.1881C14.261 30.0447 14.1708 29.9145 14.0569 29.8047C13.9431 29.695 13.8079 29.6079 13.6591 29.5485C13.5102 29.4891 13.3507 29.4585 13.1895 29.4585Z" fill="#6FDF1D"/>
<path d="M13.1895 26.1807C12.9471 26.1808 12.7103 26.25 12.5089 26.3797C12.3074 26.5093 12.1505 26.6935 12.0578 26.9089C11.9652 27.1244 11.941 27.3614 11.9883 27.5901C12.0357 27.8188 12.1525 28.0288 12.3239 28.1936C12.4953 28.3584 12.7136 28.4707 12.9513 28.5161C13.189 28.5615 13.4353 28.5382 13.6592 28.4489C13.8831 28.3597 14.0744 28.2085 14.2091 28.0147C14.3437 27.8208 14.4155 27.5929 14.4155 27.3597C14.4155 27.047 14.2864 26.7471 14.0566 26.526C13.8268 26.3049 13.5151 26.1807 13.1901 26.1807" fill="#5AD92B"/>
<path d="M14.279 23.1548C14.0289 23.1547 13.7844 23.2259 13.5764 23.3595C13.3684 23.4931 13.2063 23.6831 13.1105 23.9054C13.0148 24.1276 12.9897 24.3723 13.0384 24.6083C13.0872 24.8443 13.2076 25.0611 13.3844 25.2312C13.5613 25.4014 13.7866 25.5172 14.0319 25.5641C14.2772 25.611 14.5314 25.5869 14.7624 25.4948C14.9935 25.4026 15.1909 25.2466 15.3298 25.0465C15.4686 24.8464 15.5427 24.6111 15.5425 24.3705C15.5425 24.0481 15.4094 23.7389 15.1725 23.5109C14.9355 23.2829 14.6141 23.1548 14.279 23.1548Z" fill="#3FD13F"/>
<path d="M16.2728 20.6411C16.0077 20.6411 15.7485 20.7168 15.5281 20.8585C15.3077 21.0002 15.1359 21.2016 15.0344 21.4373C14.933 21.6729 14.9064 21.9323 14.9581 22.1824C15.0099 22.4326 15.1375 22.6624 15.325 22.8428C15.5125 23.0232 15.7513 23.146 16.0113 23.1958C16.2713 23.2455 16.5409 23.22 16.7858 23.1224C17.0307 23.0248 17.2401 22.8595 17.3874 22.6474C17.5347 22.4353 17.6133 22.1859 17.6133 21.9308C17.6133 21.5888 17.4721 21.2607 17.2207 21.0189C16.9693 20.777 16.6283 20.6411 16.2728 20.6411Z" fill="#1DC753"/>
<path d="M18.9776 18.8965C18.7046 18.8965 18.4376 18.9744 18.2106 19.1203C17.9836 19.2663 17.8066 19.4738 17.7021 19.7165C17.5976 19.9592 17.5703 20.2263 17.6236 20.4839C17.6768 20.7416 17.8083 20.9783 18.0014 21.164C18.1945 21.3498 18.4405 21.4763 18.7083 21.5276C18.9761 21.5788 19.2537 21.5525 19.5059 21.452C19.7582 21.3514 19.9738 21.1812 20.1255 20.9628C20.2772 20.7443 20.3582 20.4875 20.3582 20.2248C20.3582 19.8725 20.2127 19.5346 19.9538 19.2855C19.6949 19.0364 19.3437 18.8965 18.9776 18.8965Z" fill="#11C247"/>
<path d="M22.2006 18.0342C21.9126 18.0337 21.6309 18.1154 21.3912 18.269C21.1515 18.4225 20.9645 18.6411 20.854 18.8969C20.7434 19.1528 20.7142 19.4344 20.7701 19.7062C20.8259 19.9781 20.9644 20.2278 21.1678 20.4239C21.3713 20.62 21.6306 20.7537 21.913 20.8079C22.1954 20.8621 22.4882 20.8346 22.7543 20.7286C23.0204 20.6227 23.2479 20.4432 23.4079 20.2129C23.568 19.9825 23.6534 19.7117 23.6534 19.4346C23.6534 19.0632 23.5001 18.707 23.2271 18.4444C22.9542 18.1817 22.584 18.0342 22.1979 18.0342" fill="#0FC13A"/>
<path d="M25.5946 18.4717C25.337 18.4717 25.0852 18.5452 24.871 18.6829C24.6569 18.8205 24.4899 19.0162 24.3914 19.2452C24.2928 19.4742 24.267 19.7261 24.3173 19.9692C24.3675 20.2122 24.4915 20.4355 24.6737 20.6107C24.8558 20.786 25.0879 20.9053 25.3405 20.9537C25.5931 21.002 25.855 20.9772 26.0929 20.8824C26.3309 20.7875 26.5343 20.6269 26.6774 20.4209C26.8205 20.2148 26.8969 19.9725 26.8969 19.7247C26.8969 19.3924 26.7597 19.0737 26.5154 18.8387C26.2712 18.6037 25.94 18.4717 25.5946 18.4717Z" fill="#0CBF31"/>
<path d="M28.5762 19.9629C28.3564 19.9628 28.1415 20.0254 27.9587 20.1427C27.7759 20.2601 27.6334 20.427 27.5492 20.6223C27.465 20.8177 27.443 21.0326 27.4857 21.24C27.5285 21.4474 27.6343 21.6379 27.7897 21.7875C27.945 21.9371 28.143 22.0389 28.3585 22.0802C28.574 22.1215 28.7975 22.1004 29.0005 22.0195C29.2036 21.9386 29.3771 21.8016 29.4992 21.6258C29.6213 21.45 29.6865 21.2433 29.6865 21.0319C29.6865 20.7485 29.5696 20.4767 29.3613 20.2762C29.1531 20.0758 28.8707 19.9631 28.5762 19.9629Z" fill="#07BD24"/>
<path d="M30.9333 22.3472C30.7666 22.3472 30.6036 22.3947 30.465 22.4838C30.3264 22.5729 30.2184 22.6996 30.1546 22.8477C30.0908 22.9959 30.0741 23.159 30.1066 23.3163C30.1392 23.4736 30.2194 23.6181 30.3373 23.7315C30.4552 23.8449 30.6053 23.9221 30.7688 23.9534C30.9323 23.9847 31.1018 23.9686 31.2558 23.9072C31.4098 23.8459 31.5414 23.7419 31.634 23.6086C31.7266 23.4752 31.776 23.3184 31.776 23.1581C31.776 22.943 31.6873 22.7367 31.5292 22.5847C31.3711 22.4326 31.1568 22.3472 30.9333 22.3472Z" fill="#00BA15"/>
<path d="M33.9465 35.3301C33.7344 35.3301 33.5271 35.3906 33.3508 35.5039C33.1745 35.6173 33.037 35.7784 32.9559 35.9669C32.8747 36.1554 32.8535 36.3629 32.8949 36.563C32.9362 36.7631 33.0384 36.9469 33.1883 37.0912C33.3383 37.2355 33.5293 37.3338 33.7373 37.3736C33.9453 37.4134 34.1609 37.3929 34.3568 37.3148C34.5527 37.2368 34.7202 37.1045 34.838 36.9349C34.9558 36.7652 35.0187 36.5658 35.0187 36.3617C35.0187 36.0881 34.9058 35.8257 34.7047 35.6322C34.5036 35.4388 34.2309 35.3301 33.9465 35.3301Z" fill="#00CFC4"/>
<path d="M31.7252 37.397C31.4521 37.397 31.1852 37.4749 30.9582 37.6208C30.7311 37.7668 30.5542 37.9742 30.4497 38.217C30.3452 38.4597 30.3179 38.7267 30.3711 38.9844C30.4244 39.2421 30.5559 39.4788 30.749 39.6645C30.942 39.8503 31.188 39.9768 31.4558 40.028C31.7236 40.0793 32.0012 40.053 32.2535 39.9525C32.5057 39.8519 32.7213 39.6817 32.873 39.4632C33.0247 39.2448 33.1057 38.988 33.1057 38.7253C33.1057 38.373 32.9603 38.0351 32.7014 37.786C32.4425 37.5369 32.0913 37.397 31.7252 37.397Z" fill="#00DBC3"/>
<path d="M28.9621 39.0952C28.6742 39.0952 28.3928 39.1773 28.1535 39.3312C27.9141 39.4851 27.7276 39.7038 27.6174 39.9597C27.5072 40.2156 27.4784 40.4972 27.5346 40.7688C27.5907 41.0405 27.7293 41.29 27.9329 41.4859C28.1365 41.6817 28.3958 41.8151 28.6781 41.8691C28.9605 41.9232 29.2531 41.8954 29.5191 41.7894C29.785 41.6834 30.0124 41.5039 30.1723 41.2737C30.3322 41.0434 30.4176 40.7726 30.4176 40.4956C30.4176 40.1242 30.2642 39.768 29.9913 39.5054C29.7183 39.2428 29.3481 39.0952 28.9621 39.0952Z" fill="#00E0BC"/>
<path d="M25.7724 40.2383C25.4994 40.2383 25.2324 40.3162 25.0054 40.4621C24.7784 40.6081 24.6014 40.8155 24.4969 41.0583C24.3924 41.301 24.3651 41.5681 24.4184 41.8257C24.4716 42.0834 24.6031 42.3201 24.7962 42.5058C24.9893 42.6916 25.2353 42.8181 25.5031 42.8694C25.7709 42.9206 26.0485 42.8943 26.3007 42.7938C26.553 42.6932 26.7686 42.523 26.9203 42.3045C27.072 42.0861 27.153 41.8293 27.153 41.5666C27.153 41.2143 27.0075 40.8764 26.7486 40.6273C26.4897 40.3782 26.1385 40.2383 25.7724 40.2383Z" fill="#00DB94"/>
<path d="M22.2877 40.6416C22.0453 40.6416 21.8084 40.7108 21.6069 40.8403C21.4053 40.9699 21.2483 41.154 21.1555 41.3694C21.0628 41.5849 21.0385 41.8219 21.0858 42.0506C21.1331 42.2794 21.2498 42.4894 21.4212 42.6543C21.5925 42.8192 21.8109 42.9315 22.0486 42.977C22.2863 43.0225 22.5327 42.9992 22.7566 42.9099C22.9805 42.8207 23.1719 42.6696 23.3066 42.4757C23.4412 42.2818 23.5131 42.0538 23.5131 41.8206C23.5131 41.5079 23.384 41.208 23.1542 40.9869C22.9244 40.7658 22.6127 40.6416 22.2877 40.6416Z" fill="#01D97B"/>
<path d="M18.9164 40.1499C18.6967 40.1499 18.4819 40.2126 18.2992 40.33C18.1165 40.4475 17.9741 40.6145 17.89 40.8098C17.8059 41.0051 17.7839 41.2201 17.8268 41.4274C17.8696 41.6348 17.9755 41.8252 18.1308 41.9747C18.2862 42.1242 18.4842 42.226 18.6997 42.2673C18.9152 42.3085 19.1386 42.2874 19.3416 42.2065C19.5446 42.1256 19.7181 41.9885 19.8402 41.8128C19.9623 41.637 20.0275 41.4303 20.0275 41.2189C20.0275 40.9354 19.9104 40.6635 19.702 40.463C19.4937 40.2625 19.2111 40.1499 18.9164 40.1499Z" fill="#27DD4C"/>
<path d="M15.8976 38.8828C15.6976 38.8828 15.5021 38.9399 15.3358 39.0468C15.1696 39.1537 15.04 39.3056 14.9634 39.4834C14.8869 39.6611 14.8669 39.8567 14.9059 40.0454C14.9449 40.2341 15.0412 40.4075 15.1826 40.5435C15.324 40.6796 15.5042 40.7722 15.7003 40.8098C15.8964 40.8473 16.0997 40.828 16.2845 40.7544C16.4692 40.6808 16.6272 40.5561 16.7383 40.3961C16.8494 40.2361 16.9087 40.048 16.9087 39.8556C16.9087 39.5976 16.8021 39.3502 16.6125 39.1677C16.4229 38.9853 16.1657 38.8828 15.8976 38.8828Z" fill="#6EE61B"/>
<path d="M13.3488 36.9473C13.1655 36.9473 12.9863 36.9996 12.8338 37.0976C12.6814 37.1956 12.5626 37.3349 12.4924 37.4978C12.4223 37.6608 12.4039 37.8401 12.4397 38.0131C12.4755 38.1861 12.5637 38.345 12.6934 38.4698C12.823 38.5945 12.9882 38.6794 13.168 38.7139C13.3478 38.7483 13.5342 38.7306 13.7035 38.6631C13.8729 38.5956 14.0177 38.4813 14.1195 38.3346C14.2214 38.188 14.2758 38.0155 14.2758 37.8391C14.2758 37.6026 14.1781 37.3757 14.0043 37.2085C13.8304 37.0412 13.5947 36.9473 13.3488 36.9473Z" fill="#94EB03"/>
<path d="M11.3846 34.5142C11.2262 34.5142 11.0714 34.5593 10.9397 34.644C10.808 34.7287 10.7054 34.849 10.6448 34.9898C10.5842 35.1305 10.5684 35.2854 10.5992 35.4349C10.6301 35.5843 10.7064 35.7216 10.8184 35.8293C10.9304 35.9371 11.073 36.0105 11.2284 36.0402C11.3837 36.0699 11.5447 36.0547 11.691 35.9964C11.8373 35.938 11.9624 35.8393 12.0504 35.7126C12.1383 35.5859 12.1853 35.437 12.1853 35.2846C12.1853 35.0803 12.1009 34.8843 11.9508 34.7398C11.8006 34.5953 11.5969 34.5142 11.3846 34.5142Z" fill="#92E905"/>
<path d="M10.1211 31.6089C9.97947 31.6089 9.84106 31.6493 9.72333 31.725C9.60559 31.8007 9.51383 31.9082 9.45965 32.0341C9.40546 32.16 9.39128 32.2985 9.41891 32.4321C9.44653 32.5657 9.51472 32.6884 9.61484 32.7848C9.71496 32.8811 9.84253 32.9467 9.9814 32.9733C10.1203 32.9999 10.2642 32.9862 10.395 32.9341C10.5259 32.882 10.6377 32.7937 10.7163 32.6804C10.795 32.5671 10.837 32.4339 10.837 32.2977C10.837 32.115 10.7616 31.9398 10.6273 31.8106C10.493 31.6815 10.3109 31.6089 10.1211 31.6089Z" fill="#74E019"/>
<path d="M9.67384 28.3506C9.54057 28.3506 9.41029 28.3886 9.29948 28.4599C9.18866 28.5311 9.1023 28.6323 9.05129 28.7508C9.00029 28.8693 8.98695 28.9996 9.01295 29.1254C9.03895 29.2512 9.10313 29.3667 9.19736 29.4574C9.2916 29.548 9.41167 29.6098 9.54238 29.6348C9.6731 29.6598 9.80858 29.647 9.93171 29.5979C10.0548 29.5488 10.1601 29.4657 10.2341 29.3591C10.3082 29.2525 10.3477 29.1272 10.3477 28.9989C10.3477 28.827 10.2767 28.6621 10.1503 28.5405C10.024 28.4189 9.85256 28.3506 9.67384 28.3506Z" fill="#5FDA27"/>
<path d="M10.1211 25.0107C9.97947 25.0107 9.84106 25.0511 9.72333 25.1268C9.60559 25.2025 9.51383 25.3101 9.45965 25.436C9.40546 25.5618 9.39128 25.7003 9.41891 25.8339C9.44653 25.9676 9.51472 26.0903 9.61484 26.1866C9.71496 26.283 9.84253 26.3486 9.9814 26.3751C10.1203 26.4017 10.2642 26.3881 10.395 26.3359C10.5259 26.2838 10.6377 26.1955 10.7163 26.0823C10.795 25.969 10.837 25.8358 10.837 25.6996C10.837 25.5169 10.7616 25.3417 10.6273 25.2125C10.493 25.0833 10.3109 25.0107 10.1211 25.0107Z" fill="#50D633"/>
<path d="M11.3846 21.9453C11.2262 21.9453 11.0714 21.9905 10.9397 22.0752C10.808 22.1598 10.7054 22.2801 10.6448 22.4209C10.5842 22.5617 10.5684 22.7166 10.5992 22.866C10.6301 23.0155 10.7064 23.1527 10.8184 23.2605C10.9304 23.3682 11.073 23.4416 11.2284 23.4713C11.3837 23.5011 11.5447 23.4858 11.691 23.4275C11.8373 23.3692 11.9624 23.2704 12.0504 23.1437C12.1383 23.0171 12.1853 22.8681 12.1853 22.7157C12.1853 22.5114 12.1009 22.3154 11.9508 22.171C11.8006 22.0265 11.5969 21.9453 11.3846 21.9453Z" fill="#37CF45"/>
<path d="M13.3488 19.2705C13.1655 19.2705 12.9863 19.3228 12.8338 19.4208C12.6814 19.5188 12.5626 19.6581 12.4924 19.8211C12.4223 19.984 12.4039 20.1634 12.4397 20.3364C12.4755 20.5094 12.5637 20.6683 12.6934 20.793C12.823 20.9177 12.9882 21.0027 13.168 21.0371C13.3478 21.0715 13.5342 21.0538 13.7035 20.9863C13.8729 20.9188 14.0177 20.8045 14.1195 20.6579C14.2214 20.5112 14.2758 20.3388 14.2758 20.1624C14.2758 20.0452 14.2518 19.9293 14.2052 19.8211C14.1586 19.7129 14.0903 19.6145 14.0043 19.5317C13.9182 19.4489 13.816 19.3832 13.7035 19.3384C13.5911 19.2936 13.4705 19.2705 13.3488 19.2705Z" fill="#20C851"/>
<path d="M15.8976 17.1714C15.6976 17.1714 15.5021 17.2284 15.3358 17.3353C15.1696 17.4422 15.04 17.5942 14.9634 17.7719C14.8869 17.9497 14.8669 18.1453 14.9059 18.334C14.9449 18.5227 15.0412 18.696 15.1826 18.8321C15.324 18.9682 15.5042 19.0608 15.7003 19.0983C15.8964 19.1359 16.0997 19.1166 16.2845 19.043C16.4692 18.9694 16.6272 18.8447 16.7383 18.6847C16.8494 18.5247 16.9087 18.3366 16.9087 18.1442C16.9087 17.8862 16.8021 17.6388 16.6125 17.4563C16.4229 17.2739 16.1657 17.1714 15.8976 17.1714Z" fill="#0FC138"/>
<path d="M18.9164 15.7129C18.6967 15.7129 18.4819 15.7756 18.2992 15.893C18.1165 16.0105 17.9741 16.1775 17.89 16.3728C17.8059 16.5681 17.7839 16.783 17.8268 16.9904C17.8696 17.1978 17.9755 17.3882 18.1308 17.5377C18.2862 17.6872 18.4842 17.789 18.6997 17.8303C18.9152 17.8715 19.1386 17.8504 19.3416 17.7695C19.5446 17.6885 19.7181 17.5515 19.8402 17.3757C19.9623 17.2 20.0275 16.9933 20.0275 16.7819C20.0275 16.4984 19.9104 16.2265 19.702 16.026C19.4937 15.8255 19.2111 15.7129 18.9164 15.7129Z" fill="#10C143"/>
<path d="M22.2877 15C22.0453 15 21.8084 15.0691 21.6069 15.1987C21.4053 15.3283 21.2483 15.5124 21.1555 15.7278C21.0628 15.9433 21.0385 16.1803 21.0858 16.409C21.1331 16.6378 21.2498 16.8478 21.4212 17.0127C21.5925 17.1776 21.8109 17.2899 22.0486 17.3354C22.2863 17.3809 22.5327 17.3575 22.7566 17.2683C22.9805 17.1791 23.1719 17.028 23.3066 16.8341C23.4412 16.6402 23.5131 16.4122 23.5131 16.179C23.5131 15.8663 23.384 15.5664 23.1542 15.3453C22.9244 15.1242 22.6127 15 22.2877 15Z" fill="#0FC139"/>
<path d="M25.7724 15.1084C25.4994 15.1084 25.2324 15.1863 25.0054 15.3323C24.7784 15.4782 24.6014 15.6857 24.4969 15.9284C24.3924 16.1711 24.3651 16.4382 24.4184 16.6958C24.4716 16.9535 24.6031 17.1902 24.7962 17.376C24.9893 17.5617 25.2353 17.6882 25.5031 17.7395C25.7709 17.7907 26.0485 17.7644 26.3007 17.6639C26.553 17.5634 26.7686 17.3931 26.9203 17.1747C27.072 16.9562 27.153 16.6994 27.153 16.4367C27.153 16.0844 27.0075 15.7466 26.7486 15.4974C26.4897 15.2483 26.1385 15.1084 25.7724 15.1084Z" fill="#0FC138"/>
<path d="M28.9621 16.104C28.6742 16.104 28.3928 16.1861 28.1535 16.34C27.9141 16.4939 27.7276 16.7126 27.6174 16.9685C27.5072 17.2244 27.4784 17.506 27.5346 17.7776C27.5907 18.0493 27.7293 18.2988 27.9329 18.4947C28.1365 18.6905 28.3958 18.8239 28.6781 18.8779C28.9605 18.932 29.2531 18.9042 29.5191 18.7982C29.785 18.6922 30.0124 18.5127 30.1723 18.2824C30.3322 18.0521 30.4176 17.7814 30.4176 17.5044C30.4176 17.133 30.2642 16.7768 29.9913 16.5142C29.7183 16.2515 29.3481 16.104 28.9621 16.104Z" fill="#08BE28"/>
<path d="M31.7252 17.9497C31.4521 17.9497 31.1852 18.0276 30.9582 18.1736C30.7311 18.3195 30.5542 18.527 30.4497 18.7697C30.3452 19.0124 30.3179 19.2795 30.3711 19.5371C30.4244 19.7948 30.5559 20.0315 30.749 20.2173C30.942 20.403 31.188 20.5295 31.4558 20.5808C31.7236 20.632 32.0012 20.6057 32.2535 20.5052C32.5057 20.4047 32.7213 20.2344 32.873 20.016C33.0247 19.7975 33.1057 19.5407 33.1057 19.278C33.1057 18.9257 32.9603 18.5879 32.7014 18.3388C32.4425 18.0897 32.0913 17.9497 31.7252 17.9497Z" fill="#02BB19"/>
<path d="M33.9465 20.606C33.7344 20.606 33.5271 20.6665 33.3508 20.7798C33.1745 20.8932 33.037 21.0543 32.9559 21.2428C32.8747 21.4313 32.8535 21.6388 32.8949 21.8389C32.9362 22.039 33.0384 22.2228 33.1883 22.3671C33.3383 22.5114 33.5293 22.6096 33.7373 22.6494C33.9453 22.6892 34.1609 22.6688 34.3568 22.5907C34.5527 22.5126 34.7202 22.3804 34.838 22.2108C34.9558 22.0411 35.0187 21.8416 35.0187 21.6376C35.0187 21.364 34.9058 21.1016 34.7047 20.9081C34.5036 20.7146 34.2309 20.606 33.9465 20.606Z" fill="#00BA14"/>
</g>
<defs>
<clipPath id="clip0_17011_10043">
<rect width="142" height="28" fill="white" transform="translate(9 15)"/>
</clipPath>
</defs>
</svg>
