<svg width="160" height="58" viewBox="0 0 160 58" fill="none" xmlns="http://www.w3.org/2000/svg">
<path d="M54.6487 27.9242C53.1502 27.9242 52.139 29.0609 52.139 30.4954C52.139 31.9299 53.169 33.0852 54.63 33.0852C55.5476 33.0852 56.278 32.7685 56.8398 32.2096L58.0012 33.8866C57.2896 34.6687 55.9971 35.2276 54.5738 35.2276C51.9146 35.2276 49.8542 33.1035 49.8542 30.5137C49.8542 27.9053 51.9146 25.7815 54.5364 25.7815C56.072 25.7815 57.2896 26.3032 58.0761 27.1232L56.7652 28.7439C56.2034 28.2037 55.5289 27.9242 54.6487 27.9242Z" fill="#39396D"/>
<path d="M59.7235 22.1485H62.0085V34.9668H59.7235V22.1485Z" fill="#39396D"/>
<path d="M64.0866 30.514C64.0866 27.9056 66.0342 25.7818 68.6189 25.7818C71.1849 25.7818 73.1325 27.7566 73.1325 30.3277C73.1325 30.6072 73.1138 30.9239 73.0763 31.0729H66.4275C66.6522 32.3211 67.6073 33.2156 68.9935 33.2156C69.8924 33.2156 70.6602 32.8244 71.1849 32.2842L72.3647 33.8304C71.6902 34.6128 70.4167 35.2276 68.8998 35.2276C66.1095 35.2276 64.0866 33.1039 64.0866 30.514ZM66.4653 29.6385H70.7916C70.5294 28.3713 69.7241 27.7193 68.6564 27.7193C67.514 27.7193 66.7275 28.5017 66.4653 29.6385Z" fill="#39396D"/>
<path d="M83.096 26.0427L79.8559 34.9671H76.8967L73.6378 26.0427H76.1476L78.4323 32.9362L80.7548 26.0427H83.096Z" fill="#39396D"/>
<path d="M83.7318 30.514C83.7318 27.9056 85.6794 25.7818 88.2641 25.7818C90.8301 25.7818 92.7777 27.7566 92.7777 30.3277C92.7777 30.6072 92.759 30.9239 92.7215 31.0729H86.0727C86.2974 32.3211 87.2525 33.2156 88.6386 33.2156C89.5376 33.2156 90.3054 32.8244 90.83 32.2842L92.0099 33.8304C91.3354 34.6128 90.0619 35.2276 88.545 35.2276C85.7543 35.2276 83.7318 33.1039 83.7318 30.514ZM86.1102 29.6385H90.4365C90.1743 28.3713 89.369 27.7193 88.3012 27.7193C87.1592 27.7193 86.3727 28.5017 86.1102 29.6385ZM97.0285 34.9668H94.7434V26.0423H97.0285V27.0111C97.5341 26.2659 98.2832 25.7812 99.2195 25.7812C99.8188 25.7812 100.306 25.9489 100.662 26.2283L99.7064 28.3897C99.4068 28.1475 98.9574 27.9984 98.5266 27.9984C97.609 27.9984 97.0285 28.7622 97.0285 29.9735V34.9668ZM110.568 27.9242C109.07 27.9242 108.058 29.0609 108.058 30.4954C108.058 31.9299 109.088 33.0852 110.55 33.0852C111.467 33.0852 112.198 32.7685 112.759 32.2096L113.921 33.8866C113.209 34.6694 111.917 35.2282 110.493 35.2282C107.834 35.2282 105.774 33.1042 105.774 30.5144C105.774 27.9059 107.834 25.7822 110.456 25.7822C111.992 25.7822 113.209 26.3038 113.996 27.1238L112.685 28.7446C112.123 28.2037 111.448 27.9242 110.568 27.9242Z" fill="#39396D"/>
<path d="M115.643 22.1485H117.928V34.9668H115.643V22.1485Z" fill="#39396D"/>
<path d="M120.006 30.514C120.006 27.9056 122.066 25.7818 124.67 25.7818C127.273 25.7818 129.352 27.9059 129.352 30.514C129.352 33.1039 127.273 35.2279 124.67 35.2279C122.066 35.2279 120.006 33.1039 120.006 30.514ZM127.048 30.4954C127.048 29.0609 126.056 27.9242 124.688 27.9242C123.302 27.9242 122.291 29.0609 122.291 30.4954C122.291 31.9299 123.302 33.0852 124.688 33.0852C126.055 33.0852 127.048 31.9299 127.048 30.4954ZM133.583 30.868C133.583 32.1721 134.351 33.048 135.494 33.048C136.636 33.048 137.404 32.1724 137.404 30.868V26.0427H139.689V31.0357C139.689 33.5323 138.022 35.1904 135.494 35.1904C132.965 35.1904 131.299 33.5323 131.299 31.0357V26.0427H133.584V30.868H133.583ZM151 22.1485V34.9668H148.696V33.9981C148.041 34.7619 147.123 35.2279 145.962 35.2279C143.583 35.2279 141.654 33.2902 141.654 30.514C141.654 27.8125 143.471 25.7818 145.962 25.7818C147.142 25.7818 148.059 26.2103 148.696 26.9369V22.1485H151ZM148.696 30.4954C148.696 29.0609 147.704 27.9242 146.336 27.9242C144.95 27.9242 143.939 29.0609 143.939 30.4954C143.939 31.9299 144.95 33.0852 146.336 33.0852C147.703 33.0852 148.696 31.9299 148.696 30.4954Z" fill="#39396D"/>
<path d="M40.7404 20.1137V38.3435L37.3435 33.9842L35.4514 29.2292H35.4501L37.2473 24.4071L40.7404 20.1137Z" fill="#AB2B4A"/>
<path d="M9.00127 20.1137V38.3435L12.004 34.1165L14.2903 29.2292H14.2916L11.9672 24.5927L9.00127 20.1137Z" fill="#E87A68"/>
<path d="M35.4501 29.2292L25.447 29.8608L14.2903 29.2292L18.9461 20.1137L24.8708 10.9995L31.313 21.0064L35.4501 29.2292Z" fill="#D74D4E"/>
<path d="M40.7404 20.1137L35.4501 29.2292L24.8708 10.9995L40.7404 20.1137Z" fill="#BD3246"/>
<path d="M24.8708 10.9995L14.2903 29.2292L9 20.1137L24.8708 10.9995Z" fill="#F19175"/>
<path d="M35.4501 29.2292L31.8345 37.1004L24.8708 47.459L17.7047 36.7527L14.2903 29.2292H35.4501Z" fill="#CF3942"/>
<path d="M24.8708 47.459L9 38.3435L14.2903 29.2292L24.8708 47.459Z" fill="#E0625B"/>
<path d="M24.8696 47.459L40.7404 38.3435L35.4501 29.2292L24.8696 47.459Z" fill="#9A244F"/>
</svg>
