<svg width="135" height="76" viewBox="0 0 135 76" fill="none" xmlns="http://www.w3.org/2000/svg">
<rect x="64.9325" y="40.3418" width="25.8634" height="21.3545" fill="#FFED00"/>
<path d="M42.1061 49.8002C42.2719 49.8208 42.4414 49.8405 42.6136 49.862C42.7633 49.8818 42.9139 49.9006 43.0664 49.9185C43.391 49.9553 43.7254 49.9921 44.0679 50.0306C44.5943 50.0907 45.143 50.1463 45.707 50.2037C45.8039 50.2135 45.9025 50.2234 46.0002 50.2341C46.4763 50.279 46.9659 50.322 47.4653 50.3651C47.6581 50.3821 47.8536 50.3991 48.0482 50.4162C48.1611 50.426 48.2732 50.4359 48.3862 50.4458C48.6265 50.4655 48.8668 50.4834 49.1098 50.5022C49.1833 50.5076 49.256 50.513 49.3295 50.5184C49.6146 50.5381 49.9033 50.5569 50.193 50.5776C50.5516 50.6009 50.9121 50.6224 51.2752 50.6448C51.6518 50.6681 52.032 50.6941 52.4167 50.7156C53.1698 50.7542 53.9392 50.7838 54.713 50.8152C54.9318 50.8232 55.1506 50.8331 55.3702 50.8403C55.5388 50.8475 55.7092 50.8537 55.8804 50.8591C56.0616 50.8627 56.2418 50.8681 56.4229 50.8735C56.63 50.877 56.8381 50.8797 57.047 50.8833C57.1886 50.8869 57.3312 50.8905 57.472 50.8923C57.6074 50.8959 57.2819 50.8968 57.6226 50.8986V48.778C56.8363 48.7762 56.9896 48.7753 56.882 48.7735C56.7609 48.7726 55.9405 48.7708 55.8186 48.7699C55.6984 48.7654 54.8905 48.7609 54.7704 48.7565C54.5301 48.7493 52.8847 48.7403 52.6489 48.7314C52.4131 48.7179 50.8332 48.7062 50.6045 48.6928C50.4898 48.6847 49.7706 48.6811 49.6586 48.6722C49.5465 48.6623 48.8534 48.6533 48.744 48.6444C48.5234 48.6273 47.0448 48.6103 46.8359 48.5933C46.6261 48.5709 45.2452 48.5502 45.0489 48.5287C44.9511 48.5188 44.3405 48.509 44.2464 48.5C44.1522 48.4902 43.5739 48.4758 43.4824 48.465C43.122 48.4148 40.8714 48.3781 40.5826 48.3297C40.4374 48.3063 39.5336 48.2857 39.4071 48.266C39.3444 48.2561 39.0225 48.249 38.9633 48.2382C38.9059 48.2283 38.6217 48.2176 38.5688 48.2068C38.5616 48.205 38.5508 48.2041 38.5419 48.2032C38.6333 48.5888 38.732 48.9681 38.836 49.3402C38.9418 49.3563 39.0485 49.3743 39.1623 49.3922C39.7721 49.4854 40.4867 49.5859 41.2901 49.6917C41.5528 49.7284 41.8254 49.7643 42.1061 49.8002ZM39.9684 39.8025C40.5118 39.8599 41.0839 39.9137 41.681 39.9702C42.2782 40.0285 42.9023 40.0822 43.547 40.1343C44.1917 40.1889 44.8588 40.2419 45.5447 40.2921C45.8881 40.319 46.236 40.3441 46.5875 40.3719C46.9408 40.3943 47.2968 40.4167 47.6581 40.44C48.3799 40.4839 49.1179 40.5315 49.8684 40.5709C51.3649 40.6633 52.9349 40.7108 54.5202 40.7754C54.9174 40.7861 55.3155 40.7978 55.7154 40.8103C56.1109 40.8184 56.5081 40.8256 56.9053 40.8336C57.2129 40.8399 56.9994 40.8444 57.6226 40.8489V38.1482H37.9599C37.9026 38.6584 37.8595 39.0744 37.829 39.5712C38.0227 39.5927 38.22 39.6151 38.4244 39.6384C38.9095 39.6949 39.4251 39.7469 39.9684 39.8025ZM79.9403 35.2063C79.9125 35.0673 79.8865 34.9301 79.856 34.7902C79.7672 34.3795 79.683 34.0675 79.5987 33.6775C79.2149 33.6362 78.8132 33.595 78.3936 33.5519C77.8502 33.4954 77.2781 33.4416 76.6792 33.3852C76.0838 33.326 75.4615 33.2722 74.8159 33.2202C74.1703 33.1646 73.5041 33.1135 72.8182 33.0633C72.4748 33.0364 72.1269 33.0104 71.7745 32.9835C71.423 32.961 71.0661 32.9377 70.7048 32.9153C69.983 32.8714 69.2441 32.823 68.4945 32.7844C66.9989 32.6911 65.4289 32.6445 63.8427 32.5809C63.4446 32.5683 63.0465 32.5557 62.6475 32.5441C62.2511 32.536 61.8548 32.5289 61.4576 32.5208C60.7008 32.5037 59.9414 32.5011 59.1819 32.4903C58.4224 32.5011 57.6621 32.5037 56.9053 32.5208C56.5081 32.5289 56.1109 32.536 55.7154 32.5441C55.3155 32.5557 54.9174 32.5683 54.5202 32.5809C52.9349 32.6445 51.3649 32.6911 49.8684 32.7844C49.1179 32.823 48.3799 32.8714 47.6581 32.9153C47.2968 32.9377 46.9408 32.961 46.5875 32.9835C46.236 33.0104 45.8881 33.0364 45.5447 33.0633C44.8588 33.1135 44.1917 33.1646 43.547 33.2202C42.9023 33.2722 42.2782 33.326 41.681 33.3852C41.0839 33.4416 40.5118 33.4954 39.9684 33.5519C39.5497 33.595 39.148 33.6362 38.7642 33.6775C38.6808 34.0675 38.5957 34.3795 38.5069 34.7902C38.4773 34.9301 38.4513 35.0673 38.4226 35.2063H79.9403ZM43.4977 54.1929C43.6492 54.2135 43.8034 54.2359 43.9585 54.2574C44.0948 54.2771 44.232 54.2951 44.371 54.313C44.6687 54.3498 44.9709 54.3865 45.2829 54.4233C45.7743 54.4834 46.2836 54.5426 46.809 54.6017C46.8996 54.6125 46.991 54.6233 47.0834 54.634C47.5281 54.678 47.9818 54.7201 48.4472 54.7658C48.6274 54.782 48.8103 54.7999 48.9941 54.816C49.0973 54.8268 49.2031 54.8376 49.308 54.8456C49.5303 54.8671 49.7563 54.8851 49.9831 54.9057C50.0513 54.9111 50.1194 54.9165 50.1867 54.9218C50.4539 54.9407 50.7238 54.9595 50.9946 54.9783C51.3263 55.0016 51.6635 55.0241 52.0015 55.0474C52.353 55.0707 52.7081 55.094 53.0667 55.1164C53.7697 55.1559 54.4861 55.1837 55.207 55.2133C55.4106 55.2222 55.6123 55.2312 55.8168 55.2384C55.9755 55.2437 56.1342 55.25 56.2929 55.2554C56.4615 55.259 56.63 55.2644 56.7986 55.2679C56.9923 55.2724 57.186 55.2751 57.3805 55.2796C57.4603 55.2796 57.5419 55.2823 57.6226 55.2823V53.498C57.099 53.4971 57.3958 53.4953 57.2837 53.4944C57.0999 53.4926 56.4516 53.4908 56.2696 53.4881C56.0884 53.4818 55.4491 53.4755 55.2698 53.4675C54.9076 53.4558 53.6119 53.4442 53.2577 53.4307C52.9053 53.411 51.6563 53.3922 51.3138 53.3715C51.1416 53.3617 50.5669 53.3536 50.3992 53.341C50.2306 53.3267 49.6765 53.3132 49.5124 53.2998C49.1824 53.2738 48.0168 53.2487 47.703 53.2236C47.3909 53.1895 46.3006 53.159 46.0056 53.1267C45.8585 53.1124 45.3717 53.0981 45.2291 53.0837C45.0874 53.0676 44.6256 53.0478 44.4903 53.0299C43.9478 52.9573 42.1679 52.9026 41.7339 52.8273C41.5152 52.7932 40.7987 52.7618 40.6095 52.7322C40.5145 52.7188 40.2482 52.7053 40.1621 52.6901C40.1254 52.6829 40.0617 52.6775 39.9953 52.6703C40.1451 53.029 40.3002 53.3796 40.4589 53.7203C40.5701 53.741 40.6858 53.7598 40.8068 53.7813C41.3735 53.8781 42.0236 53.9777 42.7445 54.0835C42.9884 54.1193 43.2394 54.1561 43.4977 54.1929ZM57.6226 61.9991C57.1268 61.9955 57.3967 61.9937 57.1716 61.991C56.8676 61.9794 56.5655 61.9686 56.266 61.9579C55.6634 61.9372 55.0654 61.9166 54.4754 61.896C53.8863 61.8619 53.3043 61.8288 52.7314 61.7965C52.4463 61.7794 52.1611 61.7678 51.8814 61.7436C51.5998 61.7212 51.3227 61.6996 51.0493 61.6772C50.4987 61.6342 49.9607 61.5902 49.438 61.549C48.9161 61.4943 48.4086 61.4405 47.9191 61.3876C47.6734 61.3643 47.4322 61.3392 47.1937 61.3159C46.9578 61.289 46.7274 61.2558 46.5014 61.228C46.089 61.1715 45.6918 61.1222 45.3134 61.0738C45.6433 61.4405 45.9491 61.7615 46.2199 62.0323C46.2414 62.0359 46.2611 62.0413 46.2836 62.0439C46.5113 62.0852 46.7435 62.13 46.9821 62.1677C47.2215 62.2044 47.4636 62.2412 47.711 62.2771C48.2078 62.3479 48.7216 62.4214 49.2479 62.4968C49.7796 62.5586 50.3239 62.6205 50.8807 62.6842C51.1604 62.7146 51.442 62.746 51.7271 62.7774C52.0123 62.807 52.3019 62.8231 52.5924 62.8482C53.1752 62.894 53.767 62.9397 54.3669 62.9854C54.9685 63.0231 55.5774 63.0491 56.1925 63.0751C56.4991 63.0886 56.8076 63.1011 57.116 63.1154C57.359 63.119 57.099 63.1468 57.6226 63.1576V61.9991ZM46.5059 58.5084C46.9614 58.5694 47.4331 58.6304 47.9173 58.6914C48.0033 58.7021 48.0876 58.7129 48.1746 58.7236C48.5862 58.7676 49.0085 58.8124 49.438 58.8563C49.6057 58.8743 49.7751 58.8922 49.9455 58.9093C50.0423 58.92 50.1383 58.929 50.2369 58.9379C50.444 58.9595 50.6529 58.9783 50.8637 59.0007C50.9264 59.0052 50.9901 59.0115 51.0537 59.0169C51.3003 59.0357 51.5505 59.0527 51.8016 59.0715C52.1109 59.0949 52.422 59.1173 52.735 59.1388C53.0622 59.1621 53.3931 59.1863 53.7258 59.2096C54.3776 59.2482 55.0394 59.2742 55.7083 59.3029C55.8948 59.311 56.0822 59.3181 56.2705 59.3271C56.4184 59.3316 56.5655 59.3379 56.7125 59.345C56.8685 59.3468 57.0263 59.3513 57.1824 59.354C57.3294 59.3567 57.4765 59.3594 57.6226 59.363V57.9077C57.5025 57.9077 57.5608 57.9086 57.6226 57.9077V57.9059C57.3662 57.9023 56.9501 57.9005 56.7296 57.8987C56.4866 57.8889 56.0158 57.8799 55.7746 57.8727C55.294 57.8548 54.3472 57.8386 53.8746 57.8216C53.4039 57.7956 52.4893 57.7696 52.0302 57.7427C51.8025 57.7284 51.3721 57.7194 51.1488 57.7006C50.9246 57.6826 50.5086 57.6656 50.2889 57.6477C49.8486 57.6118 48.9968 57.5777 48.579 57.5445C48.162 57.5006 47.3631 57.4576 46.9713 57.4163C46.7749 57.3966 46.41 57.3769 46.2199 57.358C46.0307 57.3374 45.6864 57.3105 45.5044 57.2872C44.7817 57.1886 43.4726 57.1168 42.8933 57.0173C42.7131 56.9895 42.4414 56.9617 42.2011 56.9357C42.4172 57.2836 42.6342 57.6181 42.8521 57.9364C43.2708 58.0117 43.7245 58.087 44.206 58.165C44.4311 58.2027 44.6624 58.2386 44.8991 58.2771C45.0345 58.2986 45.1726 58.3193 45.3116 58.3426C45.4344 58.3605 45.5591 58.3802 45.6846 58.3991C45.9536 58.4349 46.2262 58.4717 46.5059 58.5084ZM40.7118 44.943C40.8938 44.9645 41.0794 44.9842 41.2695 45.0067C41.43 45.0246 41.5941 45.0434 41.7608 45.0614C42.1132 45.099 42.4791 45.1367 42.8539 45.1734C43.4152 45.2335 44.0007 45.2873 44.605 45.3429C44.7081 45.3519 44.8122 45.3626 44.9171 45.3725C45.4255 45.4164 45.9491 45.4595 46.4826 45.5016C46.6888 45.5187 46.8951 45.5357 47.104 45.5527C47.2241 45.5626 47.3443 45.5724 47.4653 45.5823C47.72 45.6011 47.9782 45.6182 48.2374 45.637C48.3154 45.6424 48.3925 45.646 48.4714 45.6523C48.7763 45.672 49.0829 45.6917 49.3931 45.7114C49.7751 45.7365 50.1616 45.7581 50.5498 45.7814C50.9506 45.8056 51.3559 45.8307 51.7648 45.8513C52.5709 45.8908 53.3922 45.9212 54.2207 45.9526C54.4539 45.9625 54.6888 45.9724 54.9237 45.9813C55.1057 45.9876 55.2859 45.9939 55.468 45.9993C55.6607 46.0046 55.8535 46.01 56.0481 46.0154C56.2678 46.0208 56.4893 46.0235 56.7116 46.028C56.8632 46.0306 57.0156 46.0333 57.1671 46.036C57.394 46.0405 57.125 46.0441 57.6226 46.0468V43.5926C56.6229 43.5917 56.5475 43.5917 56.4812 43.59C56.4202 43.59 55.4276 43.5891 55.3675 43.5891C55.3075 43.5864 54.3319 43.5837 54.2718 43.5819C54.1508 43.5774 52.1584 43.5729 52.0401 43.5702C51.9226 43.5622 50.0083 43.5568 49.8944 43.5496C49.8361 43.546 48.9735 43.5442 48.917 43.5379C48.8614 43.5344 48.0293 43.5299 47.9746 43.5254C47.8644 43.5173 46.0728 43.5084 45.967 43.5003C45.8639 43.4886 44.1917 43.4788 44.093 43.468C44.0428 43.4635 43.3094 43.4581 43.2627 43.4537C43.2152 43.4483 42.523 43.442 42.4773 43.4357C42.2961 43.4115 39.5757 43.3927 39.4304 43.3685C39.3578 43.3577 38.2684 43.3461 38.2056 43.3371C38.1805 43.3326 37.9402 43.3299 37.8254 43.3263C37.8514 43.7549 37.8873 44.1782 37.9312 44.5951C38.4917 44.6704 39.1292 44.7511 39.8357 44.8381C40.1173 44.874 40.4096 44.9089 40.7118 44.943ZM45.5044 15.2396C45.6864 15.2163 46.0307 15.1894 46.2199 15.1688C46.41 15.1508 46.7749 15.1302 46.9713 15.1105C47.3631 15.0692 48.162 15.0262 48.579 14.9823C48.9968 14.9491 49.8486 14.915 50.2889 14.8801C50.5086 14.8621 50.9246 14.8442 51.1488 14.8263C51.3721 14.8074 51.8025 14.7985 52.0302 14.7841C52.4893 14.7581 53.4039 14.7312 53.8746 14.7043C54.3472 14.6882 55.294 14.672 55.7746 14.655C56.0158 14.6469 56.4866 14.638 56.7296 14.629C56.9717 14.6263 57.4487 14.6236 57.6926 14.6209C58.0521 14.6173 58.6798 14.6137 59.1819 14.6102C59.6831 14.6137 60.3108 14.6173 60.6703 14.6209C60.9142 14.6236 61.3913 14.6263 61.6333 14.629C61.8772 14.638 62.3462 14.6469 62.5874 14.655C63.0689 14.672 64.0149 14.6882 64.4883 14.7043C64.959 14.7312 65.8745 14.7581 66.3318 14.7841C66.5604 14.7985 66.9899 14.8074 67.215 14.8263C67.4383 14.8442 67.8543 14.8621 68.074 14.8801C68.5134 14.915 69.3652 14.9491 69.7839 14.9823C70.2009 15.0262 70.9989 15.0692 71.3916 15.1105C71.5889 15.1302 71.9529 15.1508 72.1421 15.1688C72.3322 15.1894 72.6774 15.2163 72.8585 15.2396C73.5821 15.3373 74.8912 15.41 75.4696 15.5104C75.7036 15.5463 76.0874 15.5803 76.3609 15.6126C76.3196 15.3239 76.2784 15.0289 76.2353 14.7294C76.1295 14.7079 76.0192 14.6855 75.9054 14.664C75.3808 14.5635 74.7944 14.464 74.1569 14.3618C73.9309 14.325 73.6996 14.2874 73.4629 14.2497C73.3275 14.2291 73.1903 14.2058 73.0513 14.1842C72.9285 14.1645 72.8038 14.1457 72.6774 14.1278C72.4102 14.0919 72.1358 14.056 71.857 14.0184C71.4006 13.9583 70.9298 13.8973 70.4447 13.8355C70.3596 13.8247 70.2753 13.8139 70.1883 13.8041C69.7767 13.7592 69.3553 13.7153 68.9249 13.6714C68.7572 13.6534 68.5869 13.6355 68.4165 13.6176C68.3206 13.6086 68.2237 13.5978 68.126 13.5889C67.9189 13.5674 67.71 13.5476 67.4984 13.527C67.4374 13.5216 67.3737 13.5162 67.3101 13.5109C67.0635 13.4902 66.8133 13.475 66.5613 13.4544C66.2529 13.4329 65.9418 13.4095 65.627 13.3871C65.3007 13.3629 64.9698 13.3396 64.638 13.3163C63.9844 13.2795 63.3226 13.2517 62.6546 13.2239L62.0924 13.1997C61.9445 13.1943 61.7974 13.189 61.6504 13.1827C61.4944 13.1791 61.3366 13.1755 61.1805 13.1728C61.0003 13.1683 60.821 13.1665 60.6408 13.1621C60.5179 13.1612 60.3951 13.1585 60.2722 13.1567C59.91 13.1495 59.545 13.1441 59.1819 13.1396C58.8179 13.1441 58.4538 13.1495 58.0925 13.1567C57.9678 13.1585 57.8441 13.1612 57.7221 13.1621C57.5419 13.1665 57.3617 13.1683 57.1824 13.1728C57.0263 13.1755 56.8685 13.1791 56.7125 13.1827C56.5655 13.189 56.4184 13.1943 56.2705 13.1997C56.0822 13.2078 55.8948 13.2159 55.7083 13.2239C55.0394 13.2517 54.3776 13.2795 53.7258 13.3163C53.3931 13.3396 53.0622 13.3629 52.735 13.3871C52.422 13.4095 52.1109 13.4329 51.8016 13.4544C51.5505 13.475 51.3003 13.4902 51.0537 13.5109C50.9901 13.5162 50.9264 13.5216 50.8637 13.527C50.6529 13.5476 50.444 13.5674 50.2369 13.5889C50.1383 13.5978 50.0423 13.6086 49.9455 13.6176C49.7751 13.6355 49.6057 13.6534 49.438 13.6714C49.0085 13.7153 48.5862 13.7592 48.1746 13.8041C48.0876 13.8139 48.0033 13.8247 47.9173 13.8355C47.4331 13.8973 46.9614 13.9583 46.5059 14.0184C46.2262 14.056 45.9536 14.0919 45.6846 14.1278C45.5591 14.1457 45.4344 14.1645 45.3116 14.1842C45.1726 14.2058 45.0345 14.2291 44.8991 14.2497C44.6624 14.2874 44.4311 14.325 44.206 14.3618C43.5685 14.464 42.983 14.5635 42.4584 14.664C42.3437 14.6855 42.2334 14.7079 42.1276 14.7294C42.0845 15.0289 42.0424 15.3239 42.002 15.6126C42.2755 15.5803 42.6593 15.5463 42.8933 15.5104C43.4726 15.41 44.7817 15.3373 45.5044 15.2396ZM57.6226 59.3674V59.3657C57.5724 59.3657 57.5392 59.3665 57.6226 59.3674ZM57.6226 55.2886V55.2868C57.5903 55.2868 57.5787 55.2886 57.6226 55.2886ZM44.4903 19.4897C44.6256 19.4718 45.0874 19.4521 45.2291 19.4359C45.3717 19.4225 45.8585 19.4072 46.0056 19.3929C46.3006 19.3624 47.3909 19.3292 47.703 19.2961C48.0168 19.2719 49.1824 19.245 49.5124 19.2198C49.6765 19.2064 50.2306 19.1929 50.3992 19.1786C50.5669 19.166 51.1416 19.1589 51.3138 19.1481C51.6563 19.1275 52.9053 19.1078 53.2577 19.088C53.6119 19.0755 54.9076 19.0638 55.2698 19.0513C55.4491 19.045 56.0884 19.0378 56.2696 19.0307C56.4516 19.028 57.0999 19.028 57.2837 19.0244C57.602 19.0226 58.6672 19.019 59.1819 19.0154C59.6957 19.019 60.7609 19.0226 61.0792 19.0244C61.263 19.028 61.9113 19.028 62.0933 19.0307C62.2745 19.0378 62.9138 19.045 63.0949 19.0513C63.4553 19.0638 64.751 19.0755 65.1052 19.088C65.4585 19.1078 66.7066 19.1275 67.05 19.1481C67.2222 19.1589 67.796 19.166 67.9637 19.1786C68.1314 19.1929 68.6864 19.2064 68.8505 19.2198C69.1805 19.245 70.3461 19.2719 70.6599 19.2961C70.972 19.3292 72.0623 19.3624 72.3573 19.3929C72.5044 19.4072 72.9921 19.4225 73.1338 19.4359C73.2764 19.4521 73.7373 19.4718 73.8735 19.4897C74.4151 19.5624 76.1959 19.618 76.6299 19.6924C76.7061 19.7031 76.8459 19.7157 77.0038 19.7274C76.9401 19.3508 76.8782 18.9822 76.8199 18.6182C76.4442 18.559 76.0452 18.4998 75.6193 18.4362C75.3745 18.4012 75.1235 18.3635 74.8652 18.3268C74.7137 18.3053 74.5604 18.2837 74.4044 18.2631C74.269 18.2434 74.1309 18.2246 73.991 18.2066C73.6951 18.1708 73.3911 18.134 73.0809 18.0963C72.5877 18.0363 72.0793 17.9762 71.5548 17.9179C71.4633 17.908 71.3728 17.8964 71.2795 17.8865C70.8357 17.8426 70.3802 17.7987 69.9157 17.7547C69.7346 17.7377 69.5526 17.7197 69.3697 17.7027C69.2656 17.6928 69.1607 17.683 69.0558 17.6731C68.8326 17.6534 68.6075 17.6337 68.3798 17.6139C68.3116 17.6086 68.2444 17.6023 68.1771 17.5978C67.909 17.5781 67.64 17.5601 67.3692 17.5413C67.0366 17.518 66.7003 17.4956 66.3614 17.4732C66.0099 17.449 65.6539 17.4239 65.2953 17.4023C64.5923 17.3647 63.8777 17.3351 63.1559 17.3064C62.9532 17.2974 62.7506 17.2903 62.5461 17.2813C62.3883 17.275 62.2287 17.2696 62.07 17.2642C61.9014 17.2598 61.7329 17.2553 61.5643 17.2526C61.3706 17.2481 61.1769 17.2445 60.9833 17.2409C60.8506 17.2391 60.7179 17.2365 60.5843 17.2338C60.118 17.2239 59.65 17.2185 59.1819 17.2122C58.713 17.2185 58.2449 17.2239 57.7777 17.2338C57.645 17.2365 57.5114 17.2391 57.3805 17.2409C57.186 17.2445 56.9923 17.2481 56.7986 17.2526C56.63 17.2553 56.4615 17.2598 56.2929 17.2642C56.1342 17.2696 55.9755 17.275 55.8168 17.2813C55.6123 17.2903 55.4106 17.2974 55.207 17.3064C54.4861 17.3351 53.7697 17.3647 53.0667 17.4023C52.7081 17.4239 52.353 17.449 52.0015 17.4732C51.6635 17.4956 51.3263 17.518 50.9946 17.5413C50.7238 17.5601 50.4539 17.5781 50.1867 17.5978C50.1194 17.6023 50.0513 17.6086 49.9831 17.6139C49.7563 17.6337 49.5303 17.6534 49.308 17.6731C49.2031 17.683 49.0973 17.6928 48.9941 17.7027C48.8103 17.7197 48.6274 17.7377 48.4472 17.7547C47.9818 17.7987 47.5281 17.8426 47.0834 17.8865C46.991 17.8964 46.8996 17.908 46.809 17.9179C46.2836 17.9762 45.7743 18.0363 45.2829 18.0963C44.9709 18.134 44.6687 18.1708 44.371 18.2066C44.232 18.2246 44.0948 18.2434 43.9585 18.2631C43.8034 18.2837 43.6492 18.3053 43.4977 18.3268C43.2394 18.3635 42.9884 18.4012 42.7445 18.4362C42.3177 18.4998 41.9178 18.559 41.543 18.6182C41.4838 18.9822 41.4237 19.3508 41.3591 19.7274C41.5161 19.7157 41.6559 19.7031 41.7339 19.6924C42.1679 19.618 43.9478 19.5624 44.4903 19.4897ZM43.2627 29.7107C43.3094 29.7053 44.0428 29.7008 44.093 29.6972C44.1917 29.6856 45.8639 29.6739 45.967 29.664C46.0728 29.656 47.8644 29.647 47.9746 29.6398C48.0293 29.6345 48.8614 29.63 48.917 29.6246C48.9735 29.621 49.8361 29.6174 49.8944 29.6147C50.0083 29.6076 51.9226 29.6013 52.0401 29.595C52.1584 29.5905 54.1508 29.586 54.2718 29.5816C54.3319 29.5798 55.3075 29.578 55.3675 29.5753C55.4276 29.5753 56.4202 29.5744 56.4812 29.5735C56.604 29.5726 58.6995 29.5708 58.8223 29.5699C58.8519 29.5708 58.9882 29.5708 59.1819 29.5708C59.3738 29.5708 59.5119 29.5708 59.5415 29.5699C59.6634 29.5708 61.7598 29.5726 61.8817 29.5735C61.9427 29.5744 62.9353 29.5753 62.9954 29.5753C63.0554 29.578 64.031 29.5798 64.0911 29.5816C64.2112 29.586 66.2054 29.5905 66.3219 29.595C66.4403 29.6013 68.3547 29.6076 68.4694 29.6147C68.5259 29.6174 69.3894 29.621 69.4459 29.6246C69.5015 29.63 70.3336 29.6345 70.3883 29.6398C70.4985 29.647 72.2892 29.656 72.395 29.664C72.499 29.6739 74.1721 29.6856 74.2699 29.6972C74.3192 29.7008 75.0526 29.7053 75.1002 29.7107C75.1477 29.7152 75.8399 29.7223 75.8847 29.7277C76.0497 29.7501 78.3191 29.7672 78.8338 29.7887C78.728 29.2803 78.6267 28.7943 78.5299 28.3253H78.5281C78.2456 28.2904 77.9524 28.2545 77.6502 28.2204C77.4682 28.1998 77.2826 28.1792 77.0934 28.1577C76.9329 28.1397 76.7688 28.1218 76.6021 28.103C76.2488 28.0662 75.8847 28.0286 75.5108 27.99C74.9486 27.9308 74.3631 27.877 73.7579 27.8223C73.6548 27.8116 73.5507 27.8017 73.4458 27.7927C72.9365 27.7488 72.4147 27.7058 71.8794 27.6618C71.6741 27.6448 71.4669 27.6286 71.258 27.6116C71.1388 27.6017 71.0186 27.591 70.8976 27.582C70.642 27.5632 70.3856 27.5471 70.1255 27.5282C70.0466 27.5228 69.9695 27.5175 69.8915 27.5112C69.5875 27.4924 69.28 27.4726 68.9698 27.452C68.5869 27.4278 68.2013 27.4063 67.8122 27.3821C67.4123 27.3579 67.007 27.3337 66.5981 27.313C65.7929 27.2727 64.9707 27.2431 64.1422 27.2108C63.9082 27.2018 63.6741 27.1911 63.4392 27.1821C63.2581 27.1758 63.077 27.1714 62.8949 27.1651C62.7031 27.1588 62.5085 27.1534 62.3157 27.1489C62.0942 27.1445 61.8728 27.14 61.6504 27.1364C61.4997 27.1328 61.3473 27.1301 61.1958 27.1283C60.5269 27.114 59.8535 27.1086 59.1819 27.0996C58.5094 27.1086 57.8369 27.114 57.1671 27.1283C57.0156 27.1301 56.8632 27.1328 56.7116 27.1364C56.4893 27.14 56.2678 27.1445 56.0481 27.1489C55.8535 27.1534 55.6607 27.1588 55.468 27.1651C55.2859 27.1714 55.1057 27.1758 54.9237 27.1821C54.6888 27.1911 54.4539 27.2018 54.2207 27.2108C53.3922 27.2431 52.5709 27.2727 51.7648 27.313C51.3559 27.3337 50.9506 27.3579 50.5498 27.3821C50.1616 27.4063 49.7751 27.4278 49.3931 27.452C49.0829 27.4726 48.7763 27.4924 48.4714 27.5112C48.3925 27.5175 48.3154 27.5228 48.2374 27.5282C47.9782 27.5471 47.72 27.5632 47.4653 27.582C47.3443 27.591 47.2241 27.6017 47.104 27.6116C46.8951 27.6286 46.6888 27.6448 46.4826 27.6618C45.9491 27.7058 45.4255 27.7488 44.9171 27.7927C44.8122 27.8017 44.7081 27.8116 44.605 27.8223C44.0007 27.877 43.4152 27.9308 42.8539 27.99C42.4791 28.0286 42.1132 28.0662 41.7608 28.103C41.5941 28.1218 41.43 28.1397 41.2695 28.1577C41.0794 28.1792 40.8938 28.1998 40.7118 28.2204C40.4096 28.2545 40.1173 28.2904 39.8357 28.3253H39.8339C39.7362 28.7943 39.6358 29.2803 39.5291 29.7887C40.0438 29.7672 42.3132 29.7501 42.4773 29.7277C42.523 29.7223 43.2152 29.7152 43.2627 29.7107ZM40.7539 24.4724C40.7431 24.4751 40.7261 24.4769 40.7073 24.4787C40.796 24.0268 40.8794 23.5937 40.9574 23.1786C41.1224 23.1561 41.2883 23.1337 41.4605 23.1104C41.7232 23.0754 41.9958 23.0387 42.2764 23.0028C42.4432 22.9822 42.6127 22.9616 42.7857 22.9401C42.9346 22.9203 43.0843 22.9015 43.2367 22.8845C43.5622 22.8468 43.8967 22.8109 44.2392 22.7724C44.7655 22.7123 45.3134 22.6567 45.8774 22.5984C45.9751 22.5886 46.0728 22.5787 46.1715 22.5679C46.6476 22.524 47.1372 22.481 47.6366 22.4379C47.8294 22.42 48.024 22.4039 48.2203 22.3868C48.3324 22.377 48.4436 22.3662 48.5575 22.3572C48.7969 22.3366 49.0381 22.3196 49.282 22.2998C49.3546 22.2945 49.4272 22.29 49.4999 22.2846C49.7859 22.264 50.0737 22.246 50.3651 22.2263C50.7229 22.2021 51.0824 22.1797 51.4474 22.1564C51.824 22.1331 52.2024 22.108 52.5879 22.0864C53.342 22.0479 54.1095 22.0183 54.8842 21.9878C55.103 21.9788 55.3218 21.9699 55.5415 21.9618C55.7101 21.9555 55.8804 21.9493 56.0517 21.9439C56.2328 21.9394 56.413 21.934 56.5942 21.9295C56.8013 21.925 57.0084 21.9215 57.2173 21.9179C57.359 21.9152 57.5007 21.9116 57.6423 21.9107C58.2117 21.8981 58.782 21.8919 59.3514 21.8847C59.9225 21.8919 60.4928 21.8981 61.0613 21.9107C61.2038 21.9116 61.3464 21.9152 61.4872 21.9179C61.6952 21.9215 61.9032 21.925 62.1104 21.9295C62.2924 21.934 62.4735 21.9394 62.6537 21.9439C62.8241 21.9493 62.9945 21.9555 63.1639 21.9618C63.3836 21.9699 63.6015 21.9788 63.8203 21.9878C64.595 22.0183 65.3634 22.0479 66.1175 22.0864C66.5013 22.108 66.8823 22.1331 67.258 22.1564C67.6221 22.1797 67.9825 22.2021 68.3403 22.2263C68.6308 22.246 68.9186 22.264 69.2047 22.2846C69.2782 22.29 69.3499 22.2945 69.4244 22.2998C69.6665 22.3196 69.9077 22.3366 70.1471 22.3572C70.26 22.3662 70.373 22.377 70.4842 22.3868C70.6806 22.4039 70.8751 22.42 71.0688 22.4379C71.5682 22.481 72.0569 22.524 72.5339 22.5679C72.6317 22.5787 72.7303 22.5886 72.828 22.5984C73.3911 22.6567 73.9399 22.7123 74.4653 22.7724C74.8087 22.8109 75.1441 22.8468 75.4678 22.8845C75.6202 22.9015 75.7709 22.9203 75.9188 22.9401C76.0928 22.9616 76.2622 22.9822 76.4281 23.0028C76.7088 23.0387 76.9813 23.0754 77.2441 23.1104C77.4153 23.1337 77.583 23.1561 77.7471 23.1786C77.826 23.5937 77.9094 24.0268 77.9981 24.4787C77.9784 24.4769 77.9632 24.4751 77.9515 24.4724C77.6619 24.4231 75.4122 24.3873 75.0508 24.337C74.9603 24.3263 74.3819 24.3137 74.2878 24.3021C74.1937 24.294 73.5821 24.2841 73.4844 24.2734C73.2889 24.2528 71.9072 24.2312 71.6992 24.2097C71.4893 24.1936 70.0099 24.1756 69.7902 24.1586C69.6808 24.1496 68.9877 24.1407 68.8756 24.1308C68.7635 24.1227 68.0444 24.1174 67.9314 24.1102C67.701 24.0976 66.1202 24.0842 65.8844 24.0698C65.6486 24.0618 64.0041 24.0546 63.7638 24.0456C63.6436 24.0411 62.8358 24.0376 62.7147 24.0331C62.5937 24.0304 61.7741 24.0304 61.6504 24.0286C61.4083 24.0259 59.6822 24.025 59.4374 24.0214C59.4177 24.0214 59.3881 24.0214 59.3514 24.0223C59.3173 24.0214 59.2868 24.0214 59.268 24.0214C59.0223 24.025 57.2971 24.0259 57.0541 24.0286C56.9313 24.0304 56.1109 24.0304 55.9898 24.0331C55.8688 24.0376 55.0627 24.0411 54.9416 24.0456C54.7004 24.0546 53.056 24.0618 52.8193 24.0698C52.5843 24.0842 51.0044 24.0976 50.7749 24.1102C50.6601 24.1174 49.9419 24.1227 49.8289 24.1308C49.7177 24.1407 49.0246 24.1496 48.9143 24.1586C48.6938 24.1756 47.2152 24.1936 47.0063 24.2097C46.7982 24.2312 45.4165 24.2528 45.2201 24.2734C45.1224 24.2841 44.5127 24.294 44.4167 24.3021C44.3226 24.3137 43.7451 24.3263 43.6537 24.337C43.2932 24.3873 41.0417 24.4231 40.7539 24.4724Z" fill="white"/>
<path fill-rule="evenodd" clip-rule="evenodd" d="M96.1844 38.1484H58.6642V63.1619H96.1844V38.1484ZM77.4178 43.0191L76.6269 43.5974L76.9264 42.664L76.123 42.0865H77.1156L77.4178 41.1406L77.7209 42.0865H78.7117L77.9083 42.664L78.2095 43.5974L77.4178 43.0191ZM73.3215 44.1205L72.5289 44.6979L72.8292 43.7636L72.0258 43.1853L73.0175 43.188L73.3206 42.2393L73.6228 43.1853H74.6136L73.8111 43.7636L74.1115 44.6979L73.3215 44.1205ZM70.3226 45.2439L70.0186 46.1908L69.0287 46.1899L69.8321 46.7682L69.53 47.7025L70.3226 47.1251L71.1144 47.7025L70.8131 46.7682L71.6156 46.1899H70.6257L70.3226 45.2439ZM70.0146 51.7948L69.2238 51.2165L68.4321 51.7948L68.7342 50.8596L67.929 50.2822L68.9207 50.2849L69.2238 49.3353L69.5278 50.2822H70.5177L69.7134 50.8596L70.0146 51.7948ZM70.6267 54.3868L70.3236 53.4399L70.0197 54.3868H69.0297L69.8331 54.9634L69.531 55.8977L70.3236 55.3193L71.1154 55.8977L70.8141 54.9634L71.6166 54.3868H70.6267ZM73.3263 56.4453L73.6294 57.3912H74.6202L73.8159 57.9687L74.1181 58.903L73.3263 58.3247L72.5355 58.903L72.8359 57.9687L72.0334 57.3912L73.0233 57.3921L73.3263 56.4453ZM77.7206 58.478L77.4184 57.532L77.1144 58.4789L76.1236 58.478L76.9279 59.0572L76.6266 59.9897L77.4184 59.4132L78.2092 59.9897L77.908 59.0572L78.7132 58.478H77.7206ZM81.5104 56.4453L81.8134 57.3912H82.8051L82 57.9687L82.3021 58.903L81.5104 58.3247L80.7177 58.903L81.019 57.9687L80.2174 57.3912L81.2064 57.3921L81.5104 56.4453ZM84.8179 54.3868L84.513 53.4399L84.2091 54.3868H83.2201L84.0235 54.9634L83.7222 55.8977L84.513 55.3193L85.3057 55.8977L85.0035 54.9634L85.8078 54.3868H84.8179ZM85.9055 50.2715H86.8963L86.092 50.848L86.3933 51.7841L85.6015 51.204L84.8107 51.7841L85.1111 50.848L84.3077 50.2715H85.2985L85.6015 49.3246L85.9055 50.2715ZM83.7225 47.6903L84.5134 47.1119L85.3051 47.6903L85.0039 46.756L85.8082 46.1812H84.8183L84.5134 45.2335L84.2103 46.1812H83.2204L84.0238 46.756L83.7225 47.6903ZM81.2193 43.1881L81.5215 42.2394L81.8245 43.1845H82.8153L82.0119 43.7646L82.3141 44.699L81.5224 44.1197L80.7306 44.699L81.0301 43.7646L80.2276 43.1845L81.2193 43.1881Z" fill="#0E4194"/>
</svg>
