<svg version="1.2" xmlns="http://www.w3.org/2000/svg" viewBox="0 0 1561 1097" width="1561" height="1097">
	<title>Crédit_Agricole-svg</title>
	<defs>
		<clipPath clipPathUnits="userSpaceOnUse" id="cp1">
			<path d="m0.36 0.38h1560.19v1096.22h-1560.19z"/>
		</clipPath>
		<clipPath clipPathUnits="userSpaceOnUse" id="cp2">
			<path d="m0.36 0.38h1560.19v1096.22h-1560.19z"/>
		</clipPath>
	</defs>
	<style>
		.s0 { fill: #006f4e } 
		.s1 { fill: #009b9d } 
		.s2 { fill: #ed1c24 } 
	</style>
	<g id="Clip-Path" clip-path="url(#cp1)">
		<path id="Layer" class="s0" d="m1026.7 511.1l-96.6-248.6-126 274.5c-42.5 86.4-181.8 111.5-279.3 125.3l17.7-36.7 282-540.8h219.8l157.5 327.9 69 155.6 142.2 312.1-98-0.2-76.5-0.5c-32.2 0.5-63.6-1.9-76.9-36.3l-27.1-66.6-45.5-112.9z"/>
	</g>
	<g id="Clip-Path" clip-path="url(#cp2)">
		<path id="Layer" class="s1" d="m1090.2 665.1c-149.8 77.2-302 153.6-476.3 193.6-162.4 37.4-341 42.2-465.7-30.1-112.2-64.9-148.9-192.2-146.8-285.6 1.4-61.2 31.2-146.8 89.7-218.1 108.9-132.9 314.3-247.9 477.9-253.1 58.4-1.9 95.4 17.4 117.5 161.5-60.9-0.2-113.6 7.6-177.6 30.5-40.6 14.7-117.8 48.4-206 110.5-115.3 81.3-181 162.5-187.9 239.5-6 67.7 56.9 107.8 161.2 116.5 247 21.1 532.5-96.8 751.7-218.1l174.9-98.4 357.7-194.4-1.1 182.2-287.5 167.7z"/>
	</g>
	<path id="Layer" class="s0" d="m0.4 969.8h1451.4v126.8h-1451.4z"/>
	<path id="Layer" class="s2" d="m1558.8 0.4v141l-277.2 151.3c-27.3 14-62.4 3.6-71.9-27.5l-32.1-74.4c45.4-9.7 116.5-48.7 116.5-48.7l206.4-110.2z"/>
	<path id="Layer" class="s1" d="m518 133.2c54.9 2.9 147.3-35.7 168.5 104.5-25.6-8-75.7-1.2-104.2 4.7"/>
</svg>