<svg width="160" height="58" viewBox="0 0 160 58" fill="none" xmlns="http://www.w3.org/2000/svg">
<g clip-path="url(#clip0_17040_10077)">
<path d="M120.408 18.6994C120.966 18.6994 121.268 19.0008 121.268 19.5595V20.1904C121.268 20.7491 120.966 21.0508 120.408 21.0508H106.863C106.305 21.0508 106.003 20.7491 106.003 20.1904V19.5595C106.003 19.0008 106.305 18.6994 106.863 18.6994H120.408Z" fill="#B0131D"/>
<path d="M120.408 12.6623C120.966 12.6623 121.268 12.9637 121.268 13.5226V14.1533C121.268 14.7123 120.966 15.0137 120.408 15.0137H106.863C106.305 15.0137 106.003 14.7123 106.003 14.1533V13.5226C106.003 12.9637 106.305 12.6623 106.863 12.6623H120.408Z" fill="#B0131D"/>
<path d="M120.408 6.62632C120.966 6.62632 121.268 6.92777 121.268 7.48651V8.11735C121.268 8.67609 120.966 8.97754 120.408 8.97754H106.863C106.305 8.97754 106.003 8.67609 106.003 8.11735V7.48651C106.003 6.92777 106.305 6.62632 106.863 6.62632H120.408Z" fill="#B0131D"/>
<path d="M120.408 48.7365C120.966 48.7365 121.268 49.0379 121.268 49.5967V50.2275C121.268 50.7862 120.966 51.0879 120.408 51.0879H106.863C106.305 51.0879 106.003 50.7862 106.003 50.2275V49.5967C106.003 49.0379 106.305 48.7365 106.863 48.7365H120.408Z" fill="#B0131D"/>
<path d="M120.408 42.6994C120.966 42.6994 121.268 43.001 121.268 43.5598V44.1906C121.268 44.7493 120.966 45.0508 120.408 45.0508H106.863C106.305 45.0508 106.003 44.7493 106.003 44.1906V43.5598C106.003 43.001 106.305 42.6994 106.863 42.6994H120.408Z" fill="#B0131D"/>
<path d="M133.926 28.2208H129.828C129.009 28.2208 128.62 28.6097 128.62 29.429V37.8818L125.851 37.8816V29.3816C125.851 27.0144 126.995 25.8694 129.363 25.8694H133.926V28.2208Z" fill="#545F6A"/>
<path d="M62.8131 35.5295L62.8133 37.8809H58.7346C56.3677 37.8809 55.2227 36.7358 55.2227 34.3687V23.2618L57.975 23.2614V25.8687H62.4808V28.22H57.975V34.3213C57.975 35.1406 58.3639 35.5295 59.1832 35.5295H62.8131Z" fill="#545F6A"/>
<path d="M144.594 35.5295V37.8809H140.516C138.149 37.8809 137.004 36.7358 137.004 34.3687V23.2618L139.756 23.2614V25.8687H144.262V28.22H139.756V34.3213C139.756 35.1406 140.145 35.5295 140.964 35.5295H144.594Z" fill="#545F6A"/>
<path fill-rule="evenodd" clip-rule="evenodd" d="M105.371 29.3808C105.371 27.0137 106.516 25.8687 108.883 25.8687H118.388C120.756 25.8687 121.9 27.0137 121.9 29.3808V34.3687C121.9 36.7358 120.756 37.8809 118.388 37.8809H108.883C106.516 37.8809 105.371 36.7358 105.371 34.3687V29.3808ZM109.331 28.22C108.512 28.22 108.123 28.6089 108.123 29.4282V34.3213C108.123 35.1406 108.512 35.5295 109.331 35.5295H117.94C118.759 35.5295 119.148 35.1406 119.148 34.3213V29.4282C119.148 28.6089 118.759 28.22 117.94 28.22H109.331Z" fill="#545F6A"/>
<path fill-rule="evenodd" clip-rule="evenodd" d="M37.7403 34.3646C37.7403 35.1839 38.1292 35.5728 38.9485 35.5728H48.4301V32.5263H38.9485C38.1292 32.5263 37.7403 32.9155 37.7403 33.7348V34.3646ZM38.4999 37.8809C36.133 37.8809 34.9879 36.7358 34.9879 34.3687V33.7307C34.9879 31.3635 36.133 30.2185 38.4999 30.2185H48.4301V29.3849C48.4301 28.5656 48.0412 28.1767 47.2219 28.1767H37.622L37.6215 25.8687H47.6704C50.0374 25.8687 51.1826 27.0137 51.1826 29.3808V37.8809H38.4999Z" fill="#545F6A"/>
<path fill-rule="evenodd" clip-rule="evenodd" d="M67.8696 34.3646C67.8696 35.1839 68.2588 35.5728 69.0781 35.5728H78.5595V32.5263H69.0781C68.2588 32.5263 67.8696 32.9155 67.8696 33.7348V34.3646ZM68.6292 37.8809C66.2625 37.8809 65.1173 36.7358 65.1173 34.3687V33.7307C65.1173 31.3635 66.2625 30.2185 68.6292 30.2185H78.5595V29.3849C78.5595 28.5656 78.1708 28.1767 77.3515 28.1767H67.7514V25.8687H77.7998C80.1672 25.8687 81.3119 27.0137 81.3119 29.3808V37.8809H68.6292Z" fill="#545F6A"/>
<path fill-rule="evenodd" clip-rule="evenodd" d="M28.8086 25.8687V21.5235L31.561 21.5237V37.8809H18.9175C16.5506 37.8809 15.4055 36.7356 15.4055 34.3687V29.3808C15.4055 27.0137 16.5506 25.8687 18.9175 25.8687H28.8086ZM28.8086 35.5295V28.22H19.3661C18.5468 28.22 18.1579 28.6089 18.1579 29.4282V34.3213C18.1579 35.1406 18.5468 35.5295 19.3661 35.5295H28.8086Z" fill="#545F6A"/>
<path fill-rule="evenodd" clip-rule="evenodd" d="M88.2601 37.8814V42.4307L85.5077 42.4302V25.8692H98.1511C100.518 25.8692 101.663 27.0142 101.663 29.3813V34.3692C101.663 36.7363 100.518 37.8814 98.1511 37.8814H88.2601ZM88.2601 28.2205V35.53H97.7027C98.522 35.53 98.9107 35.1411 98.9107 34.3218V29.4287C98.9107 28.6094 98.522 28.2205 97.7027 28.2205H88.2601Z" fill="#545F6A"/>
</g>
<defs>
<clipPath id="clip0_17040_10077">
<rect width="129.629" height="44.9026" fill="white" transform="translate(15.1853 6.40527)"/>
</clipPath>
</defs>
</svg>
