<svg width="160" height="58" viewBox="0 0 160 58" fill="none" xmlns="http://www.w3.org/2000/svg">
<path fill-rule="evenodd" clip-rule="evenodd" d="M54.7267 35.6211H63.969V32.7402H58.2521V30.324H63.3497V27.6291H58.2521V25.2129H63.969V22.332H54.7267V35.6211ZM75.4504 29.9059C74.1164 31.9968 72.8301 32.8332 71.1151 32.8332C68.9236 32.8332 67.6849 31.3463 67.6849 28.7442C67.6849 26.2816 68.8283 25.0735 70.6387 25.0735C71.8297 25.0735 72.7825 25.5846 73.116 27.3038H76.6414C76.2602 24.0512 74.1164 22.0068 70.6863 22.0068C66.7321 22.0068 64.1119 24.7482 64.1119 28.9301C64.1119 33.1584 66.7321 35.8999 71.0198 35.8999C73.8306 35.8999 75.7362 34.7382 76.9748 33.2049H81.7865V35.6211H85.2643V22.2856H80.3573L75.4504 29.9059ZM81.7865 30.5564H78.6899L81.7865 25.631V30.5564ZM47.1995 22.2856H42.0543V35.6211H47.1995C51.2966 35.6211 53.9168 33.019 53.9168 28.9301C53.9168 24.8411 51.2966 22.2856 47.1995 22.2856ZM47.1519 32.7402H45.5797V25.1664H47.1519C49.2004 25.1664 50.3438 26.5604 50.3438 28.9301C50.3438 31.3463 49.2004 32.7402 47.1519 32.7402ZM125.711 22.0068C121.566 22.0068 118.803 24.7482 118.803 28.9301C118.803 33.112 121.566 35.8534 125.711 35.8534C129.856 35.8534 132.619 33.112 132.619 28.9301C132.619 24.7482 129.856 22.0068 125.711 22.0068ZM125.711 32.8332C123.663 32.8332 122.376 31.4857 122.376 28.9765C122.376 26.4674 123.663 25.1199 125.711 25.1199C127.76 25.1199 129.046 26.4674 129.046 28.9765C129.046 31.4857 127.76 32.8332 125.711 32.8332ZM86.1695 25.1664H89.5996V35.6211H93.125V25.1664H96.5551V22.2856H86.1218V25.1664H86.1695ZM141.623 22.2856V29.6271L137.097 22.2856H133.429V35.6211H136.811V28.0008L141.528 35.6675H145.006V22.2856H141.623ZM113.801 22.2856H110.276V35.6211H119.089V32.7402H113.801V22.2856ZM105.75 27.3967H100.986V22.2856H97.5079V35.6211H101.033V30.2776H105.797V35.6675H109.323V22.2856H105.797L105.75 27.3967ZM32.1451 19.4512C24.5226 19.4512 14.9945 27.1644 14.9945 33.5766C14.9945 36.8756 17.6147 38.5484 21.0449 38.5484C23.5698 38.5484 26.6188 37.6655 29.5725 35.8999V23.1219C28.8103 24.423 25.0943 29.72 22.1406 32.5079C20.6161 33.9483 19.4251 34.5524 18.4246 34.5524C17.2813 34.5524 16.7096 33.8089 16.7096 32.6473C16.7096 27.4897 25.6183 20.7522 31.5258 20.7522C33.9554 20.7522 35.5276 21.8209 35.5276 23.8654C35.5276 25.724 34.2413 28.0937 32.0022 30.2776V34.2271C35.9087 31.2533 38.1954 27.3967 38.1954 24.33C38.1478 21.1239 35.5752 19.4512 32.1451 19.4512Z" fill="#3643BA"/>
</svg>
