<svg width="160" height="58" viewBox="0 0 160 58" fill="none" xmlns="http://www.w3.org/2000/svg">
<path d="M39.4611 34.9958C38.8465 35.4062 37.9035 35.7241 36.8364 35.7451C35.7882 35.7725 34.879 35.4483 34.2728 34.8758C33.4603 34.1034 33.0436 32.7711 33.0436 30.9336C33.0436 29.1424 33.5551 26.12 36.9038 25.8864C37.3584 25.8527 38.577 25.758 39.4611 25.7348V34.9958ZM39.4611 18.3555V22.0557H37.0953C30.0906 22.0557 28.6299 27.2881 28.6299 31.0578C28.6299 33.8171 29.4718 36.2124 30.983 37.8036C32.2859 39.1612 34.0307 39.8873 36.0366 39.8873C37.3794 39.8873 38.5118 39.6368 39.4611 39.1359L39.4863 39.5148H44.1084V18.3555H39.4611Z" fill="black"/>
<path d="M52.016 28.3047C52.4875 26.6314 53.6451 25.558 55.4994 25.558C57.2254 25.558 58.404 26.7683 58.545 28.3047H52.016ZM63.085 28.3826C62.9082 26.4062 62.1821 24.7329 60.9992 23.569C59.6753 22.2619 57.8189 21.5947 55.4994 21.5947C52.8243 21.5947 50.6227 22.5861 49.1241 24.4572C47.7896 26.1179 47.0551 28.4416 47.0551 31.0052C47.0551 35.2842 49.4756 39.8768 56.2593 39.8768C58.8587 39.8768 61.397 39.0707 62.8535 38.3445V34.0592C62.0432 34.5075 59.5617 35.8483 56.173 35.7872C53.6872 35.7451 52.3486 34.4086 51.9297 32.0533H63.1292L63.1356 31.8808C63.1608 30.3022 63.1292 28.9698 63.085 28.3826Z" fill="black"/>
<path d="M75.2675 21.6368C73.7647 21.6368 72.1061 22.2009 71.4663 22.4387L71.4452 22.0557H66.8168V39.5148H71.4663V26.4378C72.4702 25.8106 74.0257 25.5475 75.2843 25.8422C76.5304 26.1347 77.1428 26.924 77.1428 29.1845V39.5148H81.7797V28.4984C81.7797 23.8826 79.6538 21.6368 75.2675 21.6368Z" fill="black"/>
<path d="M126.725 22.0515V35.1284C125.736 35.762 124.17 36.0209 122.911 35.7325C121.667 35.4399 121.057 34.6549 121.057 32.3817V22.0515H116.412V33.0721C116.412 37.6857 118.544 39.9294 122.924 39.9294C124.429 39.9294 126.094 39.3717 126.725 39.1275L126.752 39.5106H131.37V22.0515H126.725Z" fill="black"/>
<path d="M90.3503 18.3555H85.7072V33.5078C85.7072 35.5915 86.0692 37.0522 86.8416 38.0835C87.7509 39.3043 89.2369 39.8915 91.3774 39.8915C93.097 39.8915 94.7535 39.5148 95.7217 39.2096V35.0295C95.1218 35.1811 93.2823 35.5768 92.2172 35.5768C91.5416 35.5768 91.0659 35.4357 90.7734 35.1432C90.3503 34.7117 90.3503 33.9771 90.3503 33.2699V25.8948C92.1709 25.8948 94.4504 26.0211 95.7217 26.1579V22.0557H90.3503V18.3555Z" fill="black"/>
<path d="M107.485 28.6036C106.395 28.4058 105.105 28.1764 104.36 27.7659C103.998 27.5681 103.806 27.2881 103.81 26.9787C103.823 26.6757 104.031 26.3831 104.341 26.2315C105.016 25.8569 106.243 25.6759 108.108 26.0169C109.899 26.3389 111.886 27.0293 112.501 27.2881V23.0744C110.354 22.0094 108.443 21.5947 106.292 21.6263C104.294 21.6642 102.569 22.1862 101.297 23.1312C99.9586 24.1436 99.2051 25.5854 99.1293 27.3092C98.9925 30.2075 100.811 31.9418 105.002 32.7563C105.873 32.9289 107.142 33.1878 107.681 33.413C108.224 33.6277 108.546 33.9855 108.546 34.3918C108.55 34.7811 108.275 35.1474 107.839 35.3326C107.054 35.6609 105.776 35.6125 104.964 35.5262C102.564 35.2842 100.27 34.436 99.4387 34.0676V38.395C100.857 39.1149 103.095 39.9463 105.749 39.9084C108.788 39.8473 112.56 38.9423 113.24 34.9348C113.501 33.4467 113.236 32.1018 112.474 31.041C111.543 29.7591 110.11 29.0961 107.485 28.6036Z" fill="black"/>
</svg>
