<svg width="160" height="58" viewBox="0 0 160 58" fill="none" xmlns="http://www.w3.org/2000/svg">
<g clip-path="url(#clip0_17011_10176)">
<path d="M111.314 29.2456C110.899 28.9157 110.45 28.6285 109.974 28.3887L109.844 28.3263L109.957 28.2323C110.635 27.6211 111.167 26.8729 111.514 26.0407C111.86 25.2084 112.014 24.3124 111.964 23.4162C111.96 21.0721 111.134 19.3231 109.487 18.2164C108.098 17.265 106.179 16.7998 103.615 16.8042L96.2616 16.817C96.0572 16.82 95.8621 16.9003 95.7178 17.0406C95.5735 17.181 95.4915 17.3704 95.4891 17.5685L95.5325 40.9319C95.5329 41.1309 95.6148 41.3215 95.7602 41.4619C95.9056 41.6023 96.1026 41.681 96.3079 41.6806L104.709 41.666C107.354 41.6614 109.481 41.1106 111.011 40.0297C111.889 39.4142 112.587 38.5892 113.038 37.6348C113.538 36.5597 113.784 35.39 113.758 34.2112C113.764 33.2583 113.547 32.3165 113.124 31.4565C112.701 30.5964 112.082 29.8405 111.314 29.2456ZM97.8786 19.1431L103.619 19.1331C105.651 19.1295 107.151 19.455 108.12 20.1096C108.734 20.5305 109.574 21.3418 109.577 23.4203C109.584 27.1395 106.553 27.4416 105.634 27.4431L97.894 27.4566L97.8786 19.1431ZM104.705 39.3532L97.9161 39.365L97.8984 29.7695L105.639 29.756C108.993 29.7502 111.35 31.5897 111.355 34.2154C111.357 35.4813 111.365 39.3416 104.705 39.3532Z" fill="#007272"/>
<path d="M62.5665 20.5799C61.4849 19.306 60.0916 18.3145 58.5136 17.6957C57.0741 17.1533 55.5416 16.8802 53.9971 16.8909L47.0148 16.9031C46.8079 16.907 46.6108 16.9897 46.4662 17.1333C46.3216 17.2769 46.2412 17.4699 46.2422 17.6705L46.2855 41.0181C46.2859 41.217 46.3679 41.4076 46.5133 41.548C46.6587 41.6884 46.8557 41.7671 47.061 41.7668L54.0432 41.7546C55.5884 41.7678 57.1215 41.4891 58.5568 40.9341C60.1348 40.3211 61.5258 39.3289 62.5989 38.051C65.0607 35.109 65.4247 31.4044 65.4211 29.4509C65.418 27.7951 65.1361 23.6223 62.5665 20.5799ZM60.7418 36.5853C59.9181 37.5193 58.8877 38.2612 57.7271 38.7557C56.5666 39.2503 55.3059 39.4848 54.0389 39.4417L48.6852 39.4511L48.6478 19.2291L54.0014 19.2198C55.2687 19.1684 56.5314 19.3966 57.6944 19.8872C58.8574 20.3779 59.8902 21.1181 60.7149 22.052C62.8481 24.5802 63.0164 28.3616 63.0184 29.4551C63.0214 31.0964 62.7369 34.2064 60.7418 36.5853Z" fill="#007272"/>
<path d="M89.7124 6.77979L89.776 41.0985C89.7793 41.2478 89.7324 41.3941 89.6424 41.5154C89.5525 41.6366 89.4244 41.7263 89.2773 41.7709C89.2062 41.8015 89.1294 41.8178 89.0516 41.8186C88.9349 41.8187 88.8199 41.7919 88.716 41.7403C88.6121 41.6887 88.5225 41.6139 88.4545 41.522L72.6315 22.0624L72.6867 51.7861L70.284 51.7902L70.2202 17.3936C70.2202 17.2428 70.2703 17.0961 70.363 16.975C70.4557 16.8539 70.5861 16.7649 70.735 16.7213C70.8068 16.6944 70.884 16.6836 70.9607 16.6896C71.0758 16.6881 71.1897 16.7126 71.2934 16.7612C71.397 16.8097 71.4876 16.881 71.5579 16.9694L87.3807 36.445L87.3257 6.78393L89.7124 6.77979Z" fill="#007272"/>
</g>
<defs>
<clipPath id="clip0_17011_10176">
<rect width="67.5156" height="45.0104" fill="white" transform="translate(46.2422 6.78027)"/>
</clipPath>
</defs>
</svg>
