<svg width="160" height="58" viewBox="0 0 160 58" fill="none" xmlns="http://www.w3.org/2000/svg">
<path d="M44.6822 20.5903H40.9043C39.7606 20.5903 38.8594 19.6892 38.8594 18.5454V14.7676C38.8594 13.6585 39.7606 12.7227 40.9043 12.7227H44.6822C45.7913 12.7227 46.7271 13.6238 46.7271 14.7676V18.5454C46.7271 19.6892 45.8259 20.5903 44.6822 20.5903Z" fill="#406EB3"/>
<path d="M34.8736 29.0818H30.6452C29.3628 29.0818 28.3577 28.042 28.3577 26.7943V22.5312C28.3577 21.2835 29.3974 20.2437 30.6452 20.2437H34.9083C36.1907 20.2437 37.1958 21.2835 37.1958 22.5312V26.7943C37.1958 28.0767 36.156 29.0818 34.8736 29.0818Z" fill="#632678"/>
<path d="M34.4924 37.9199H31.8929C31.1304 37.9199 30.5065 37.2961 30.5065 36.5336V33.9341C30.5065 33.1716 31.1304 32.5478 31.8929 32.5478H34.4924C35.2549 32.5478 35.8787 33.1716 35.8787 33.9341V36.5336C35.8787 37.2961 35.2549 37.9199 34.4924 37.9199Z" fill="#982881"/>
<path d="M41.4589 46.1342H38.3742C37.4731 46.1342 36.7105 45.4064 36.7105 44.4706V41.3859C36.7105 40.4847 37.4384 39.7222 38.3742 39.7222H41.4589C42.36 39.7222 43.1225 40.4501 43.1225 41.3859V44.4706C43.1225 45.4064 42.3947 46.1342 41.4589 46.1342Z" fill="#BA2F7D"/>
<path d="M52.7231 22.15H50.6089C49.985 22.15 49.4652 21.6301 49.4652 21.0062V18.892C49.4652 18.2681 49.985 17.7483 50.6089 17.7483H52.7231C53.347 17.7483 53.8669 18.2681 53.8669 18.892V21.0062C53.9016 21.6301 53.3817 22.15 52.7231 22.15Z" fill="#BA2F7D"/>
<path d="M99.3745 23.571C100.068 23.571 100.588 23.0165 100.588 22.358C100.588 21.6648 100.033 21.1449 99.3745 21.1449C98.6814 21.1449 98.1268 21.6994 98.1268 22.358C98.1268 23.0165 98.6814 23.571 99.3745 23.571Z" fill="#26478D"/>
<path d="M54.5601 36.6722C54.3868 36.9495 54.0749 37.0881 53.7283 37.0881C53.555 37.0881 53.3123 37.0534 53.1737 36.9495C52.8964 36.7762 52.7231 36.4296 52.7231 36.083C52.7231 35.9097 52.7579 35.7364 52.8618 35.5978L55.7038 31.1267L52.8618 26.6557C52.7578 26.5171 52.7231 26.3091 52.7231 26.1705C52.7231 25.8239 52.8964 25.4773 53.2084 25.304C53.3817 25.2 53.555 25.1653 53.7283 25.1653C54.0749 25.1653 54.3868 25.304 54.5947 25.5812L56.9169 29.2551L59.2738 25.5812C59.4471 25.304 59.7936 25.1653 60.1402 25.1653C60.3135 25.1653 60.4868 25.2 60.6601 25.304C60.9721 25.4773 61.1454 25.8239 61.1454 26.1705C61.1454 26.3438 61.1107 26.5171 61.0067 26.6557L58.1646 31.1267L61.0067 35.5978C61.1107 35.7364 61.1454 35.9097 61.1454 36.083C61.1454 36.4296 60.9721 36.8109 60.6948 36.9495C60.5215 37.0535 60.3135 37.0881 60.1402 37.0881C59.7936 37.0881 59.5164 36.9495 59.3084 36.6722L56.9516 33.033L54.5601 36.6722Z" fill="#26478D"/>
<path d="M64.7152 26.517C65.7897 25.5466 67.2454 24.9574 68.805 24.9574C72.2363 24.9574 74.9397 27.6955 74.9397 31.0921C74.9397 34.454 72.2017 37.1921 68.805 37.1921C67.2454 37.1921 65.7897 36.6029 64.7152 35.6324V40.866C64.7152 41.3859 64.23 41.8365 63.7101 41.8365C63.2249 41.8365 62.705 41.3859 62.705 40.866V26.0318C62.705 25.5119 63.1902 25.0613 63.7101 25.0613C64.2647 25.0613 64.7152 25.5119 64.7152 26.0318V26.517ZM68.7704 27.0023C66.4829 27.0023 64.6806 28.8046 64.6806 31.0921C64.6806 33.3796 66.4829 35.1819 68.7704 35.1819C71.0579 35.1819 72.8602 33.3796 72.8602 31.0921C72.8948 28.8046 71.0926 27.0023 68.7704 27.0023Z" fill="#26478D"/>
<path d="M92.3041 29.983V36.1177C92.3041 36.6376 91.8188 37.0881 91.2989 37.0881C90.7444 37.0881 90.2938 36.6376 90.2938 36.1177V26.0318C90.2938 25.5119 90.779 25.0614 91.2989 25.0614C91.7842 25.0614 92.2694 25.4773 92.3041 25.9972C93.1359 25.3733 94.2103 24.9921 95.3541 24.9921C95.9779 24.9921 96.4632 25.4773 96.4632 25.9972C96.4632 26.5517 95.9779 27.0369 95.3541 27.0369C93.7944 27.0717 92.3041 27.6261 92.3041 29.983Z" fill="#26478D"/>
<path d="M99.3745 25.0614C98.82 25.0614 98.3694 25.5119 98.3694 26.0318V36.1523C98.3694 36.6722 98.8547 37.1228 99.3745 37.1228C99.8598 37.1228 100.38 36.6722 100.38 36.1523V26.0318C100.38 25.5119 99.8944 25.0614 99.3745 25.0614Z" fill="#26478D"/>
<path d="M112.268 26.0318C112.268 25.5119 112.753 25.0614 113.273 25.0614C113.758 25.0614 114.278 25.5119 114.278 26.0318V36.1523C114.278 36.6722 113.793 37.1228 113.273 37.1228C112.718 37.1228 112.268 36.6722 112.268 36.1523V35.6671C111.159 36.6376 109.738 37.2268 108.178 37.2268C104.747 37.2268 102.043 34.4887 102.043 31.0921C102.043 27.7301 104.781 24.9921 108.178 24.9921C109.738 24.9921 111.159 25.5812 112.268 26.5517V26.0318ZM108.178 35.1819C110.466 35.1819 112.268 33.3796 112.268 31.0921C112.268 28.8046 110.466 27.0023 108.178 27.0023C105.89 27.0023 104.088 28.8046 104.088 31.0921C104.088 33.3796 105.89 35.1819 108.178 35.1819Z" fill="#26478D"/>
<path d="M124.572 30.1216C124.572 28.4233 123.116 26.9676 121.418 26.9676C119.789 26.9676 118.264 27.6262 118.264 30.0176V36.1523C118.264 36.6722 117.779 37.1228 117.259 37.1228C116.704 37.1228 116.254 36.6722 116.254 36.1523V26.0318C116.254 25.5119 116.739 25.0614 117.259 25.0614C117.744 25.0614 118.229 25.4773 118.264 25.9972C119.13 25.3386 120.205 24.9921 121.383 24.9921C124.121 24.9921 126.582 27.1409 126.582 29.8443V36.1523C126.582 36.6722 126.097 37.1228 125.577 37.1228C125.022 37.1228 124.572 36.6722 124.572 36.1523V30.1216Z" fill="#26478D"/>
<path d="M52.1339 30.7455C52.0992 27.6261 49.3265 24.9921 46.0339 24.9921C42.6026 24.9921 39.8992 27.7301 39.8992 31.0921C39.8992 34.5234 42.6373 37.2268 46.0339 37.2268C47.6629 37.2268 49.1879 36.6029 50.297 35.4938C50.505 35.3205 50.6436 35.0086 50.6436 34.7313C50.6436 34.1767 50.1584 33.7262 49.6385 33.7262C49.3265 33.7262 49.0493 33.8995 48.8413 34.1421C48.1481 34.8699 47.143 35.2165 46.0686 35.2165C44.0237 35.2165 42.36 33.8302 42.0134 31.8892H51.1635C51.1635 31.8892 51.1635 31.8892 51.1982 31.8892H51.2675C51.3022 31.8892 51.3368 31.8892 51.3715 31.8545C51.7874 31.6812 52.1339 31.2654 52.1339 30.7455ZM46.0339 27.0023C47.8709 27.0023 49.3958 28.1807 49.9157 29.8443H42.1174C42.6373 28.1807 44.1623 27.0023 46.0339 27.0023Z" fill="#26478D"/>
<path d="M88.5955 30.7455C88.5608 27.6261 85.7534 24.9921 82.4955 24.9921C79.0642 24.9921 76.3608 27.7301 76.3608 31.0921C76.3608 34.5234 79.0989 37.2268 82.4955 37.2268C84.1245 37.2268 85.6495 36.6029 86.7586 35.4938C86.9665 35.3205 87.1052 35.0086 87.1052 34.7313C87.1052 34.1767 86.6199 33.7262 86.1 33.7262C85.7881 33.7262 85.5108 33.8995 85.3029 34.1421C84.6097 34.8699 83.6046 35.2165 82.5301 35.2165C80.4852 35.2165 78.8216 33.8302 78.475 31.8892H87.625C87.625 31.8892 87.625 31.8892 87.6597 31.8892H87.6944C87.729 31.8892 87.7637 31.8892 87.7637 31.8892H87.7984C88.2143 31.7159 88.5955 31.2654 88.5955 30.7455ZM82.4955 27.0023C84.3324 27.0023 85.8574 28.1807 86.3773 29.8443H78.579C79.0989 28.1807 80.6239 27.0023 82.4955 27.0023Z" fill="#26478D"/>
<path d="M128.731 37.1228C128.627 37.1228 128.558 37.0535 128.558 36.9495V35.2512H128.176C128.072 35.2512 128.003 35.1819 128.003 35.0779C128.003 34.9739 128.072 34.9046 128.176 34.9046H129.286C129.389 34.9046 129.459 34.9739 129.459 35.0779C129.459 35.1819 129.389 35.2512 129.286 35.2512H128.904V36.9495C128.904 37.0535 128.835 37.1228 128.731 37.1228Z" fill="#26478D"/>
<path d="M130.707 37.1228C130.603 37.1228 130.568 37.0535 130.533 36.9842L130.048 35.5978V36.9495C130.048 37.0535 129.979 37.1228 129.875 37.1228C129.771 37.1228 129.701 37.0535 129.701 36.9495V35.1472C129.701 35.0086 129.805 34.9046 129.944 34.9046C130.048 34.9046 130.152 34.9739 130.187 35.0779L130.672 36.4989L131.157 35.0779C131.192 34.9739 131.296 34.9046 131.4 34.9046C131.538 34.9046 131.642 35.0086 131.642 35.1472V36.9495C131.642 37.0535 131.573 37.1228 131.469 37.1228C131.365 37.1228 131.296 37.0535 131.296 36.9495V35.5978C131.226 35.8057 131.122 36.1523 131.018 36.4296C130.845 36.9842 130.811 36.9842 130.811 36.9842C130.845 37.0882 130.776 37.1228 130.707 37.1228Z" fill="#26478D"/>
</svg>
