<svg width="160" height="58" viewBox="0 0 160 58" fill="none" xmlns="http://www.w3.org/2000/svg">
<path d="M98.2173 36.6533H94.8384V22.7857L105.705 22.7947C105.705 22.7947 107.695 22.72 108.961 23.9775C108.961 23.9775 110.252 25.0624 110.252 27.7141V36.6511H106.882V27.4831C106.882 27.4831 106.924 26.5479 106.607 26.2198C106.607 26.2198 106.327 25.8633 105.794 25.8633H98.2089L98.2161 36.6484L98.2173 36.6533ZM112.601 36.6509V22.796H126.161V25.8778L115.959 25.877V28.2332H123.046V31.209H115.959V33.5731H126.224V36.6557H112.593L112.601 36.6509ZM88.9503 22.796H92.3149V36.6557H88.9503V22.796ZM131.004 36.6509V25.8738H127.828V22.792H140.461V25.8738H134.371V36.6509H131.004ZM77.838 36.6509V25.8738H74.6619V22.792H87.295V25.8738H81.2049V36.6509H77.838ZM67.6919 28.2236C68.514 28.2172 69.0059 28.2244 69.2039 28.1032C69.2039 28.1032 69.5494 27.911 69.5533 27.4988L69.5541 26.5923C69.5541 26.1781 69.2047 25.9879 69.2047 25.9879C68.9423 25.8445 68.4978 25.8714 67.4424 25.8704H60.8874V28.2234H67.8424L67.6919 28.2236ZM69.5048 36.6509V31.9211C69.5048 31.4959 69.1514 31.3177 69.1514 31.3177C68.9921 31.2182 68.5148 31.2002 67.8121 31.2002H67.9754H60.8874V36.6501H57.5228V22.7952H68.0253C69.8391 22.8008 71.0913 23.0691 71.9539 23.9112C72.8013 24.7794 72.9138 25.9152 72.9186 27.0973V28.0842C72.9295 29.0886 72.4047 30.0046 71.7788 30.5383L71.9046 30.6011C72.16 30.7255 72.2997 30.9018 72.2997 30.9018C72.7758 31.5131 72.77 32.0392 72.7689 32.686V36.6535H69.5049L69.5048 36.6509ZM18.6239 22.7912V36.6469H21.9885V31.2018H32.1821V28.2244H21.9885V25.8698H33.8375V22.7881H18.6223L18.6239 22.7912Z" fill="#231F20"/>
<path d="M139.324 34.2V34.8362H139.914C140.073 34.8362 140.227 34.7924 140.251 34.5544C140.285 34.2388 140.058 34.2 139.914 34.2H139.324ZM139.088 33.9909H139.908C140.194 33.9909 140.469 34.0447 140.493 34.4618C140.502 34.7008 140.43 34.7874 140.251 34.9238C140.44 35.0453 140.445 35.0742 140.474 35.3947C140.493 35.6376 140.459 35.6765 140.561 35.8368H140.281L140.242 35.6038C140.203 35.3847 140.309 35.0453 139.928 35.0453H139.324V35.8369H139.088L139.088 33.9909ZM139.706 33.4811C138.895 33.4811 138.233 34.1462 138.239 34.9674C138.239 35.7831 138.895 36.4482 139.711 36.4442C140.523 36.4442 141.184 35.7831 141.184 34.9627C141.184 34.1462 140.522 33.4811 139.706 33.4811ZM139.711 36.637C138.789 36.637 138.045 35.8892 138.045 34.9627C138.041 34.0395 138.789 33.2868 139.711 33.2868C140.629 33.2868 141.378 34.0395 141.378 34.9627C141.378 35.8898 140.629 36.6338 139.711 36.637Z" fill="#231F20"/>
<path d="M52.8965 36.7887C53.9895 36.4153 54.8401 35.1494 55.0445 33.558V33.098H49.4408V36.7891H52.8957L52.8965 36.7887ZM55.0453 26.3302V25.9141C54.8305 24.2533 53.9166 22.9446 52.7515 22.6371H49.4416V26.3298L55.0453 26.3302ZM35.3234 33.0984V33.5544C35.5263 35.1475 36.3768 36.4155 37.473 36.7891H40.9105V33.098L35.3234 33.0984ZM37.6163 22.6399C36.4528 22.9475 35.5364 24.2569 35.3234 25.92V26.3333H40.9105V22.6405L37.6163 22.6399ZM55.0492 27.8699H49.4455V31.5627H55.0492V27.8699ZM42.4399 36.7911H47.9216V33.1H42.4399V36.7911ZM47.9216 22.6367H42.4399V26.3294H47.9216V22.6367ZM35.3281 31.5579H40.9152V27.8652H35.3281V31.5579Z" fill="#EE2E24"/>
</svg>
