<svg width="160" height="58" viewBox="0 0 160 58" fill="none" xmlns="http://www.w3.org/2000/svg">
<path d="M45.0981 43.4892H46.703C47.0704 43.4892 47.3992 43.1605 47.4185 42.7931V24.9264C47.4185 23.1668 46.0263 21.7359 44.3054 21.7359H42.2364C41.869 21.7359 41.5403 21.4072 41.5403 21.0398V19.4156C41.5403 17.656 40.1481 16.2251 38.4271 16.2251H25.1045C23.3835 16.2251 21.9913 17.6366 21.9913 19.4156V37.379C21.9913 39.1192 23.3835 40.5501 25.1045 40.5694H40.5348C40.6701 40.5694 40.8055 40.6081 40.9215 40.6854L44.6921 43.3925C44.8081 43.4505 44.9628 43.4892 45.0981 43.4892ZM41.3469 37.9977H25.1431C24.7564 37.9977 24.447 37.6883 24.447 37.3016V19.4542C24.447 19.0675 24.7564 18.7581 25.1431 18.7581H38.3885C38.7559 18.7581 39.0846 19.0869 39.0846 19.4542V21.0398C39.0846 21.4265 38.7752 21.7359 38.3885 21.7359H28.527C28.1596 21.7359 27.8309 22.0646 27.8309 22.432V34.3432C27.8309 34.7299 28.1403 35.0393 28.527 35.0393H40.8442C41.2116 35.0393 41.5403 34.7105 41.5403 34.3432V24.9651C41.5403 24.5784 41.8497 24.269 42.2364 24.269H44.2473C44.6147 24.269 44.9435 24.5977 44.9435 24.9651V39.5639C44.9435 39.9313 44.5567 40.1247 44.286 39.9313L41.7723 38.1331C41.6176 38.0364 41.4823 37.9977 41.3469 37.9977ZM38.7172 32.4869H30.6346C30.4606 32.4869 30.3059 32.3515 30.3059 32.1388V24.5784C30.3059 24.4043 30.4413 24.2303 30.6346 24.2303H38.7172C38.8912 24.2303 39.0459 24.3657 39.0459 24.5784V32.1388C39.0459 32.3322 38.9105 32.4869 38.7172 32.4869ZM109.875 20.0343C110.899 20.0343 111.731 19.1835 111.731 18.1394C111.731 17.0952 110.899 16.2444 109.875 16.2444C108.85 16.2444 108.018 17.0952 108.018 18.1394C108.018 19.1835 108.85 20.0343 109.875 20.0343ZM88.6047 22.8188V21.7553H85.6076V34.9426H88.6047V25.9319L92.1045 24.443V21.3685H92.0659L88.6047 22.8188ZM76.9643 21.7359C75.0113 21.7359 73.4257 22.3934 72.2076 23.7082C71.6468 24.327 71.2214 25.0231 70.912 25.8545C70.622 26.6667 70.4673 27.5368 70.4673 28.4263C70.4673 30.2825 70.9894 31.8101 72.0335 32.9896C73.1937 34.2851 74.7793 34.9232 76.7902 34.9232C78.7625 34.9232 80.3288 34.2658 81.5276 32.9509C82.6491 31.6941 83.2099 30.1279 83.2099 28.2329C83.2099 26.338 82.6491 24.7911 81.5663 23.5922C80.4448 22.3547 78.8979 21.7359 76.9643 21.7359ZM79.3233 31.114C78.7625 31.8294 77.9504 32.1968 76.9643 32.1968C75.9008 32.1968 75.0113 31.8294 74.3539 31.0947C74.0445 30.766 73.7931 30.3406 73.6384 29.8571C73.4644 29.3737 73.3871 28.8903 73.3871 28.3683C73.3871 27.3048 73.6578 26.4346 74.2379 25.6805C74.8566 24.8877 75.7074 24.4817 76.7902 24.4817C77.8537 24.4817 78.7045 24.8491 79.304 25.6032C79.8647 26.2993 80.1741 27.2274 80.1741 28.3683C80.1547 29.4898 79.884 30.4179 79.3233 31.114ZM108.366 21.7553H111.344V34.9619H108.366V21.7553ZM62.7715 21.7359C61.0699 21.7359 59.6583 22.2387 58.5755 23.2635C57.5507 24.2303 57.0479 25.4485 57.0479 26.918C57.0479 28.2136 57.4927 29.2964 58.4015 30.1665C57.628 30.8046 57.2413 31.5587 57.2413 32.4482C57.2413 32.9896 57.3186 33.473 57.4347 33.8791C57.5507 34.3045 57.8021 34.6525 58.1694 34.9619C56.8159 35.716 56.1585 36.9536 56.2165 38.6358C56.2552 40.1054 56.8739 41.2655 58.0728 42.1357C59.2909 43.0251 60.8958 43.4505 62.8488 43.4505C64.8211 43.4505 66.2907 43.0638 67.2768 42.2904C68.2823 41.5169 68.785 40.3954 68.785 38.9452C68.785 37.495 68.379 36.3735 67.5862 35.5807C67.1608 35.1553 66.6 34.8266 65.9233 34.5172C65.2272 34.2271 64.299 33.9951 63.1002 33.8017C61.882 33.6084 61.0312 33.3957 60.5091 33.125C60.2578 33.0283 60.1031 32.8929 60.0451 32.7769C59.9677 32.6609 59.9484 32.4869 59.9484 32.2548C59.9484 32.0228 60.1031 31.7134 60.3931 31.3074C61.0699 31.5394 61.8047 31.6554 62.5974 31.6554C64.2217 31.6554 65.5559 31.1527 66.6 30.1665C67.0641 29.7025 67.4315 29.161 67.6829 28.5423C67.9342 27.9235 68.0696 27.2468 68.0696 26.4733C68.0696 25.7192 67.8956 24.9844 67.5475 24.327C67.5475 24.327 67.5475 24.3076 67.5282 24.3076H68.785V21.7166H62.7715V21.7359ZM60.6832 35.9867L61.3019 36.0834C63.0422 36.3541 64.2797 36.7022 64.9951 37.1663C65.6332 37.5723 65.9426 38.1137 65.9426 38.7905C65.9426 40.202 64.9565 40.8788 62.9842 40.8788C61.824 40.8788 60.8959 40.6274 60.1611 40.1634C59.8324 39.9507 59.581 39.68 59.407 39.3899C59.2136 39.0999 59.1362 38.7518 59.1362 38.3458C59.1362 37.9397 59.2523 37.5143 59.5036 37.0696C59.7743 36.6442 60.1611 36.2961 60.6832 35.9867ZM64.4537 28.4456C63.9703 28.8903 63.4096 29.1224 62.7521 29.1224C61.882 29.1224 61.2052 28.871 60.6638 28.3876C60.4124 28.1749 60.2578 27.9042 60.1031 27.6528C59.987 27.3628 59.9097 27.0921 59.9097 26.7827C59.9097 26.4926 59.9677 26.1833 60.0837 25.8932C60.4705 24.8877 61.3019 24.4043 62.6361 24.4043C63.4289 24.4043 64.067 24.617 64.5117 25.0424C64.9565 25.4678 65.2078 26.0286 65.2078 26.7247C65.2078 27.3434 64.9565 27.9429 64.4537 28.4456ZM124.531 24.617C124.763 25.2165 124.879 25.9126 124.879 26.686V34.9232H121.94V34.3045C121.051 34.7105 120.239 34.9232 119.504 34.9232C118.576 34.9232 117.802 34.8266 117.145 34.6525C116.488 34.4785 115.927 34.2078 115.482 33.8791C114.573 33.183 114.109 32.1775 114.109 30.8626C114.109 29.7025 114.67 28.7163 115.791 27.9429C117.01 27.0921 118.692 26.6667 120.8 26.6667L121.283 26.686C121.341 26.686 121.38 26.686 121.438 26.686C121.496 26.686 121.554 26.686 121.612 26.686C121.67 26.686 121.728 26.7053 121.766 26.7053C121.824 26.7053 121.882 26.7053 121.921 26.7247C121.844 25.4291 121.302 24.6364 120.258 24.443C119.929 24.3657 119.543 24.3463 119.175 24.3463C118.769 24.3463 118.402 24.385 118.034 24.443C117.648 24.5203 117.3 24.617 116.952 24.733C116.198 24.9844 115.617 25.2745 115.289 25.6032L115.25 25.5838L114.883 22.8961C116.275 22.142 117.841 21.7746 119.504 21.7746C122.153 21.7359 123.816 22.6834 124.531 24.617ZM121.94 31.7908V30.0892V28.9483C121.708 28.9097 121.496 28.8903 121.264 28.8903H120.78C119.021 28.8903 117.899 29.2964 117.416 30.0892C117.28 30.3212 117.203 30.5726 117.203 30.824C117.203 31.0947 117.261 31.3267 117.338 31.5201C117.435 31.7134 117.59 31.8875 117.802 32.0228C118.208 32.2742 118.847 32.3902 119.659 32.3902C120.471 32.3902 121.244 32.1775 121.94 31.7908ZM135.92 27.5755C136.423 27.8268 136.829 28.1169 137.139 28.4649C137.699 29.103 138.009 29.9538 138.009 31.0367C138.009 32.1775 137.564 33.125 136.655 33.8404C135.727 34.5945 134.412 34.9619 132.711 34.9619C130.68 34.9619 129.075 34.6139 127.954 33.9178V30.6693C127.954 30.6499 128.031 30.7273 128.147 30.8626C128.263 30.998 128.515 31.1527 128.843 31.3654C129.172 31.5781 129.578 31.7521 130.004 31.9068C130.951 32.2355 131.937 32.4095 132.981 32.4095C134.354 32.4095 135.05 31.9261 135.05 30.998C135.05 30.7079 134.915 30.4759 134.644 30.3212C134.18 30.0698 133.484 29.8765 132.575 29.7605C131.666 29.6251 130.912 29.4511 130.332 29.1997C129.752 28.9483 129.269 28.6583 128.901 28.3102C128.225 27.6528 127.877 26.8214 127.877 25.7772C127.877 24.501 128.36 23.4955 129.307 22.7801C130.255 22.0646 131.57 21.6973 133.252 21.6973C134.915 21.6973 136.327 22.1807 137.506 23.1475C137.448 23.3602 137.409 23.5729 137.332 23.7662C137.139 24.3076 137.003 24.6944 136.926 24.9264L136.655 25.6418C136.636 25.7192 136.617 25.7385 136.617 25.7385C136.597 25.7385 136.539 25.6418 136.423 25.4678C135.92 24.8684 135.128 24.4817 134.084 24.2883C133.755 24.211 133.426 24.1916 133.078 24.1916C131.628 24.1916 130.893 24.6364 130.893 25.5258C130.893 25.8159 131.028 26.0672 131.338 26.2219C131.899 26.5313 132.691 26.7634 133.677 26.918C134.664 27.1307 135.398 27.3241 135.92 27.5755ZM99.5683 21.7359C97.8667 21.7359 96.4552 22.2387 95.3724 23.2635C94.3475 24.2303 93.8448 25.4485 93.8448 26.918C93.8448 28.2136 94.2895 29.2964 95.1983 30.1665C94.4249 30.8046 94.0382 31.5587 94.0382 32.4482C94.0382 32.9896 94.1155 33.473 94.2315 33.8791C94.3475 34.3045 94.5989 34.6525 94.9663 34.9619C93.6128 35.716 92.9553 36.9536 93.0133 38.6358C93.052 40.1054 93.6708 41.2655 94.8696 42.1357C96.0878 43.0251 97.6927 43.4505 99.6457 43.4505C101.618 43.4505 103.088 43.0638 104.074 42.2904C105.079 41.5169 105.582 40.3954 105.582 38.9452C105.582 37.495 105.176 36.3735 104.383 35.5807C103.958 35.1553 103.397 34.8266 102.72 34.5172C102.024 34.2271 101.096 33.9951 99.897 33.8017C98.6789 33.6084 97.8281 33.3957 97.306 33.125C97.0546 33.0283 96.8999 32.8929 96.8419 32.7769C96.7646 32.6609 96.7452 32.4869 96.7452 32.2548C96.7452 32.0228 96.8999 31.7134 97.19 31.3074C97.8667 31.5394 98.6015 31.6554 99.3943 31.6554C101.019 31.6554 102.353 31.1527 103.397 30.1665C103.861 29.7025 104.228 29.161 104.48 28.5423C104.731 27.9235 104.866 27.2468 104.866 26.4733C104.866 25.7192 104.692 24.9844 104.344 24.327C104.344 24.327 104.344 24.3076 104.325 24.3076H105.582V21.7166H99.5683V21.7359ZM97.48 35.9867L98.0988 36.0834C99.839 36.3541 101.077 36.7022 101.792 37.1663C102.43 37.5723 102.739 38.1137 102.739 38.7905C102.739 40.202 101.753 40.8788 99.781 40.8788C98.6209 40.8788 97.6927 40.6274 96.9579 40.1634C96.6292 39.9507 96.3779 39.68 96.2038 39.3899C96.0105 39.0999 95.9331 38.7518 95.9331 38.3458C95.9331 37.9397 96.0491 37.5143 96.3005 37.0696C96.5712 36.6442 96.9579 36.2961 97.48 35.9867ZM101.251 28.4456C100.767 28.8903 100.206 29.1224 99.549 29.1224C98.6789 29.1224 98.0021 28.871 97.4607 28.3876C97.2286 28.1749 97.0546 27.9042 96.8999 27.6528C96.7839 27.3628 96.7066 27.0921 96.7066 26.7827C96.7066 26.4926 96.7646 26.1833 96.8806 25.8932C97.2673 24.8877 98.0988 24.4043 99.433 24.4043C100.226 24.4043 100.864 24.617 101.309 25.0424C101.753 25.4678 102.005 26.0286 102.005 26.7247C102.005 27.3434 101.753 27.9429 101.251 28.4456Z" fill="black"/>
</svg>
