<svg width="160" height="58" viewBox="0 0 160 58" fill="none" xmlns="http://www.w3.org/2000/svg">
<g clip-path="url(#clip0_17011_16096)">
<path d="M79.4872 21.4896C85.6208 20.3183 91.9522 20.3363 98.1462 21.04C100.706 21.3565 103.37 21.6767 105.626 22.9631C106.944 23.6897 107.963 25.0097 108.011 26.4928C103.789 26.5755 99.566 26.5335 95.3446 26.5215C94.0836 25.12 92.0681 24.6812 90.2125 24.6008C87.7258 24.5217 85.1408 24.7004 82.8632 25.7314C80.9384 26.5995 79.2869 28.2072 78.778 30.2154C78.5298 31.1302 79.1508 32.0762 79.9949 32.4898C81.6262 33.2823 83.4969 33.3746 85.2933 33.4381C87.6439 33.5281 90.0928 33.1096 92.0882 31.8688C92.286 31.762 92.4586 31.5594 92.7105 31.5894C96.9797 31.575 101.25 31.581 105.519 31.599C104.049 33.1648 102.094 34.2402 100.059 35.0004C97.5063 35.9547 94.7954 36.4559 92.087 36.7999C89.0813 37.1404 86.0541 37.3503 83.027 37.3083C78.9317 37.2867 74.7897 37.0337 70.8392 35.9427C69.0176 35.402 67.1797 34.5735 65.9917 33.0989C65.0016 31.9299 64.863 30.231 65.5118 28.8822C66.3533 27.1078 67.9997 25.825 69.7268 24.8586C72.7439 23.2077 76.0872 22.1538 79.4872 21.4896Z" fill="#006CB7"/>
<path d="M25.7624 21.1137C30.2004 21.0454 34.6397 21.1533 39.079 21.1365C38.2627 22.8906 37.4338 24.641 36.6149 26.395C40.9345 26.4022 45.2541 26.3806 49.5737 26.4058C50.419 24.6578 51.2064 22.8822 52.0529 21.1341C56.6144 21.1293 61.1746 21.1185 65.736 21.1353C63.2607 26.3411 60.7954 31.5492 58.3314 36.7598C54.5106 36.8389 50.6886 36.7909 46.8679 36.8017C46.1448 36.8089 45.4192 36.8245 44.7024 36.7286C45.7127 34.6832 46.6663 32.6127 47.6376 30.5517C43.3054 30.5505 38.9719 30.5505 34.6397 30.5505C33.6999 32.6175 32.73 34.6724 31.8204 36.7502C27.3308 36.8413 22.8411 36.8065 18.3514 36.7825C20.7852 31.5432 23.3135 26.3447 25.7624 21.1137Z" fill="#006CB7"/>
<path d="M114.411 21.0864C118.997 21.0864 123.585 21.0864 128.172 21.0864C126.314 25.0525 124.444 29.0125 122.567 32.9714C128.889 32.975 135.211 32.9894 141.533 32.9882C140.932 34.2567 140.332 35.5251 139.73 36.7924C128.829 36.8008 117.929 36.8032 107.03 36.7912C109.46 31.5435 111.944 26.3185 114.411 21.0864Z" fill="#006CB7"/>
</g>
<defs>
<clipPath id="clip0_17011_16096">
<rect width="124.209" height="17.7441" fill="white" transform="translate(17.8955 20.1279)"/>
</clipPath>
</defs>
</svg>
