<svg width="160" height="58" viewBox="0 0 160 58" fill="none" xmlns="http://www.w3.org/2000/svg">
<path d="M10.3661 29.3669C12.567 29.3669 14.3562 27.5813 14.3562 25.3768C14.3562 23.1724 12.567 21.3833 10.3661 21.3833C8.15813 21.3833 6.37256 23.1724 6.37256 25.3768C6.37256 27.5813 8.15813 29.3669 10.3661 29.3669Z" fill="#E00018"/>
<path d="M26.7522 28.8734V21.3797C21.8605 21.3797 18.9639 23.609 17.5049 25.4549C16.0104 27.3364 13.9444 29.4556 10.5223 29.4556V36.9494C14.3668 36.9494 17.1854 35.462 19.2266 33.2646C21.2642 31.0708 22.5954 28.8734 26.7522 28.8734Z" fill="#004492"/>
<path d="M32.0805 21.3655C31.0617 21.4046 30.5151 22.3062 30.5151 23.2469V35.1176C30.5151 36.1329 31.296 36.9174 32.1586 36.9174C33.0213 36.9174 33.7241 36.3885 33.7241 35.1389V23.1688C33.7241 21.9974 33.2555 21.3655 32.0805 21.3655Z" fill="#E00018"/>
<path d="M39.7198 27.0311V35.1957C39.7198 36.4488 39.0737 36.9174 38.2147 36.9174C37.3521 36.9174 36.564 36.1364 36.564 35.1176V23.2469C36.564 22.3062 37.171 21.4046 38.1934 21.3691C39.8015 21.3691 39.9151 22.2104 40.27 22.679L45.68 30.7975V23.2469C45.68 22.3062 46.2231 21.4046 47.2455 21.3691C48.4205 21.3691 48.9494 21.9938 48.9494 23.1688V35.1709C48.9494 36.4204 48.2465 36.9494 47.3839 36.9494C46.0314 36.9494 45.8504 36.1471 45.3818 35.4442" fill="#E00018"/>
<path d="M57.5898 24.1309L57.5933 35.1673C57.5933 36.424 56.8869 36.9494 56.0278 36.9494C55.1652 36.9494 54.3807 36.1684 54.3807 35.1496L54.3913 24.1309L51.484 24.1167C50.3019 24.1167 49.6345 23.7404 49.599 22.7251C49.599 21.6247 50.0605 21.401 51.3917 21.401H60.7811C61.7182 21.401 62.4175 21.6105 62.4175 22.7038C62.4175 23.6481 61.8673 24.1167 60.6107 24.1167" fill="#E00018"/>
<path d="M74.874 22.7322C74.874 21.7027 74.2847 21.4117 73.1949 21.4117H64.3203C63.5571 21.4117 63.0565 21.969 63.0565 23.0552V35.572C63.0565 36.3033 63.376 36.9209 64.2599 36.9209H73.4611C74.5616 36.9209 74.9911 36.4985 74.9911 35.7424C74.9911 34.8301 74.5225 34.3331 73.4327 34.3331H66.3756V30.1052H72.6376C73.2162 30.1052 73.912 29.8319 73.8765 28.7527C73.8445 27.9292 73.3759 27.5493 72.3713 27.5493H66.3756V23.9959H73.2836C74.1569 23.9959 74.874 23.7688 74.874 22.7322Z" fill="#E00018"/>
<path d="M83.0741 28.4297H79.755V23.7581H83.0457C84.0823 23.7581 85.6903 24.2622 85.6903 26.0513C85.6903 27.8298 84.2704 28.4297 83.0741 28.4297ZM88.5409 34.5284C88.445 33.9568 88.4237 33.1759 88.4237 32.7357C88.3634 30.3466 87.0535 29.6367 85.6016 29.4876C87.7883 29.1858 88.7148 27.8901 88.7148 25.8099C88.7148 21.8199 85.2857 21.4046 82.8363 21.4046H78.8143C77.7529 21.4046 76.4572 21.6389 76.4572 23.5238V34.823C76.4572 36.4417 76.9009 36.9422 78.1043 36.9422C79.3113 36.9422 79.7798 36.4666 79.7798 34.823V30.3679H81.8104C83.4149 30.3857 85.3673 30.7478 85.3673 33.616C85.3673 35.7637 85.4241 36.999 87.3055 36.999C87.8061 36.999 88.4308 36.7648 88.7148 36.0903C88.9527 35.5294 88.6225 35.0182 88.5409 34.5284Z" fill="#E00018"/>
<path d="M120.305 32.3949C118.562 32.3949 117.149 30.9821 117.149 29.2355C117.149 27.489 118.562 26.0762 120.305 26.0762C122.048 26.0762 123.464 27.489 123.464 29.2355C123.464 30.9821 122.048 32.3949 120.305 32.3949ZM134.43 29.1432H132.683V25.6466H133.951C135.008 25.6466 136.027 26.3957 136.027 27.2973C136.027 28.4475 135.463 29.1432 134.43 29.1432ZM108.193 29.3917H106.276V25.6715H108.04C109.176 25.6715 109.865 26.495 109.879 27.3577C109.907 28.735 109.063 29.3953 108.193 29.3917ZM149.414 21.401H140.159C139.304 21.401 138.981 21.8731 138.981 22.7571V23.7581C138.54 22.6719 136.514 21.401 134.689 21.401H129.311C128.544 21.401 128.193 21.6105 128.193 22.6115V26.7861C127.635 25.1994 125.58 21.1738 120.344 21.1738C117.852 21.1738 114.902 22.2565 113.347 24.6669C112.144 22.5725 110.17 21.4436 107.501 21.4436H103.322C102.502 21.4436 102.059 21.4436 102.059 22.4766V29.7503C101.313 28.1315 99.5596 26.9849 97.7421 26.9849H95.4453C94.3875 26.9849 94.068 26.417 94.068 25.8845C94.068 25.5934 94.2526 25.2136 94.7957 25.2136H99.769C100.415 25.2136 100.916 25.0609 100.916 24.2373V22.4198C100.916 21.685 100.561 21.4436 99.5028 21.4436H94.3875C92.4209 21.4436 89.4177 22.6364 89.4177 26.2856C89.4177 29.9278 93.3296 30.9821 95.1223 30.9821H97.0641C97.7101 30.9821 97.8592 31.4222 97.8592 31.6885C97.8592 32.0719 97.6817 32.4552 97.1528 32.4552H91.3346C90.5075 32.4552 90.33 32.7854 90.33 33.545V35.9589C90.33 36.5766 90.5359 36.9281 91.3346 36.9281H97.7669C99.1478 36.9281 102.059 35.895 102.059 33.6906V35.9873C102.059 36.5447 102.208 36.9565 102.825 36.9565H105.623C106.35 36.9565 106.379 36.4559 106.35 35.927V34.2799C106.35 33.8574 106.645 33.6693 107.057 33.6693C108.825 33.6693 112.332 33.0552 112.332 31.5571C113.081 34.2408 116.024 37.3966 120.344 37.3966C124.664 37.3966 128.193 33.7793 128.193 30.8152V35.6963C128.193 36.2216 128.193 36.9565 128.984 36.9565H131.895C132.396 36.9565 132.665 36.6334 132.665 35.9589V31.5784L136.038 36.3956C136.276 36.6334 136.428 36.9281 136.925 36.9281H140.393C140.859 36.9281 140.777 36.5447 140.539 36.1648C140.301 35.7815 137.777 31.9015 137.777 31.9015C139.51 30.8436 140.447 29.697 140.447 27.166C140.447 26.7258 140.418 26.2572 140.393 26.0762H142.743V35.9589C142.743 36.4879 142.949 36.9281 143.769 36.9281H146.744C147.564 36.9281 147.479 36.4879 147.479 35.9873V26.0762H149.3C150.386 26.0762 150.564 25.8738 150.564 24.9615V22.2601C150.564 21.6708 150.298 21.401 149.414 21.401Z" fill="#004492"/>
<path d="M152.733 23.0517H152.782C152.981 23.0517 153.123 22.9949 153.123 22.7961C153.123 22.5867 152.974 22.5441 152.782 22.5441H152.733V23.0517ZM153.627 23.964H153.187L152.736 23.286H152.733V23.964H152.371V22.2778H152.864C153.226 22.2778 153.482 22.4269 153.482 22.7855C153.482 22.9949 153.347 23.215 153.102 23.2505" fill="#004492"/>
</svg>
