<svg width="160" height="58" viewBox="0 0 160 58" fill="none" xmlns="http://www.w3.org/2000/svg">
<path d="M116.135 7.43555L22.153 7.49625L22.1584 9.42512L118.063 9.36303L116.135 7.43555Z" fill="url(#paint0_linear_17011_16127)"/>
<path d="M24.0809 9.42512L24.1109 51.419L22.1817 51.4205L22.153 7.49763L24.0809 9.42512Z" fill="url(#paint1_linear_17011_16127)"/>
<path d="M47.9978 35.4313C47.9996 37.4227 47.4633 40.6739 42.8525 40.676C40.2746 40.679 37.7642 39.2707 37.7596 35.8928L37.761 34.5485L40.8348 34.5476L40.8336 35.2406C40.8365 36.7371 41.205 37.8195 42.8071 37.8169C44.6034 37.8156 44.6012 36.367 44.6006 35.2813L44.5964 24.8405L47.9914 24.84L47.9978 35.4313Z" fill="#221E1F"/>
<path d="M60.291 30.0288C60.0746 28.4905 58.6055 27.322 56.9161 27.3237C53.8608 27.3264 52.7151 29.9248 52.7187 32.6334C52.7182 35.21 53.8691 37.8102 56.9205 37.8086C58.9984 37.8077 60.1676 36.3758 60.424 34.3408L63.7183 34.339C63.3731 38.193 60.71 40.6651 56.9234 40.6667C52.139 40.6719 49.3213 37.0983 49.3205 32.6358C49.3169 28.0445 52.1277 24.4663 56.9113 24.4625C60.3093 24.4616 63.1683 26.4509 63.5839 30.0254L60.291 30.0288Z" fill="#221E1F"/>
<path d="M68.323 27.6831L70.7443 27.6848C74.124 27.6806 75.2069 29.671 75.2088 32.7929C75.2107 36.2154 73.3297 37.4305 71.3595 37.4304L68.3303 37.434L68.323 27.6831ZM64.9308 40.2911L71.6007 40.2885C76.3191 40.2861 78.6088 36.9494 78.6062 32.4666C78.6032 27.331 75.5933 24.8197 71.5904 24.824L64.9219 24.8275L64.9308 40.2911Z" fill="#221E1F"/>
<path d="M82.5046 33.4813C82.5491 32.6137 83.1099 31.098 85.0602 31.0955C86.55 31.0943 87.2217 31.9175 87.5062 33.478L82.5046 33.4813ZM90.58 35.4241C90.7945 31.9809 88.9537 28.7741 85.1425 28.7756C81.7438 28.7825 79.4314 31.3386 79.4328 34.6952C79.435 38.1619 81.6222 40.5872 85.1504 40.5851C87.6841 40.5832 89.5238 39.4569 90.3862 36.8115L87.6807 36.8129C87.4852 37.5069 86.4914 38.2676 85.2595 38.2663C83.5476 38.2689 82.5944 37.3802 82.5059 35.43L90.58 35.4241Z" fill="#221E1F"/>
<path d="M99.3462 33.0169C99.1514 31.7573 98.3503 31.0856 97.0741 31.0868C95.1013 31.0909 94.4537 33.0829 94.4557 34.7318C94.457 36.3328 95.0871 38.2609 97.0127 38.2583C98.4399 38.2565 99.2637 37.3489 99.4572 35.9802L102.422 35.9801C102.033 38.9485 99.9799 40.5727 97.0344 40.5761C93.6578 40.579 91.3836 38.1964 91.3823 34.8397C91.3806 31.3515 93.4561 28.7722 97.0935 28.7692C99.7334 28.7661 102.158 30.1537 102.355 33.0113L99.3462 33.0169Z" fill="#221E1F"/>
<path d="M110.501 35.9321C110.501 36.605 110.416 38.5104 108.014 38.5121C107.017 38.5128 106.13 38.2308 106.13 37.0837C106.13 35.9591 106.996 35.6305 107.947 35.4341C108.899 35.2616 109.98 35.2383 110.501 34.7851L110.501 35.9321ZM106.474 32.5133C106.58 31.2993 107.338 30.8214 108.506 30.8204C109.589 30.8219 110.498 31.0148 110.498 32.3345C110.498 33.593 108.744 33.5288 106.863 33.8122C104.958 34.0732 103.053 34.6797 103.055 37.2154C103.056 39.5117 104.745 40.5703 106.867 40.5698C108.228 40.5691 109.659 40.2012 110.633 39.1807C110.654 39.5506 110.74 39.9176 110.849 40.2629L113.967 40.2608C113.686 39.8096 113.578 38.7892 113.576 37.7714L113.574 31.9435C113.57 29.2581 110.886 28.762 108.656 28.7635C106.146 28.7639 103.57 29.6306 103.399 32.5134L106.474 32.5133Z" fill="#221E1F"/>
<path d="M125.756 40.2541L122.833 40.2581L122.834 38.6977L122.765 38.6965C121.989 39.9555 120.647 40.5598 119.349 40.5627C116.082 40.5625 115.255 38.7258 115.254 35.9509L115.25 29.0611L118.324 29.0571L118.331 35.3864C118.33 37.2265 118.868 38.1372 120.3 38.1343C121.966 38.1341 122.681 37.2027 122.677 34.9279L122.676 29.0559L125.75 29.0549L125.756 40.2541Z" fill="#221E1F"/>
<path d="M130.245 34.3582L126.564 29.0527L130.07 29.0515L132.042 31.9754L133.988 29.0511L137.384 29.0478L133.711 34.2926L137.847 40.2475L134.342 40.2503L132.003 36.7204L129.666 40.253L126.226 40.2514L130.245 34.3582Z" fill="#221E1F"/>
<defs>
<linearGradient id="paint0_linear_17011_16127" x1="137.847" y1="29.4256" x2="28.1661" y2="55.1063" gradientUnits="userSpaceOnUse">
<stop stop-opacity="0"/>
<stop offset="1" stop-color="#221E1F"/>
</linearGradient>
<linearGradient id="paint1_linear_17011_16127" x1="53.608" y1="16.4766" x2="53.6156" y2="51.4263" gradientUnits="userSpaceOnUse">
<stop/>
<stop offset="1" stop-opacity="0"/>
</linearGradient>
</defs>
</svg>
