<svg width="160" height="58" viewBox="0 0 160 58" fill="none" xmlns="http://www.w3.org/2000/svg">
<g clip-path="url(#clip0_17040_10116)">
<path d="M23.9016 18.2258V18.8409H26.1959V30.7964C26.1959 34.3892 25.1994 35.4009 22.9777 35.4009C21.5804 35.4009 21.35 34.3394 21.35 33.7901C21.35 32.4831 21.2775 31.6832 20.0869 31.6832C18.8896 31.6832 18.7495 32.8923 18.7495 33.2619C18.7495 34.9081 19.4819 36.1679 22.7532 36.1679C26.6524 36.1679 28.7365 34.8516 28.7365 30.48V18.8375L31.1058 18.8409V18.2258H23.9016ZM31.0711 33.7965C30.7935 34.0733 30.656 34.4015 30.656 34.7998C30.656 35.1955 30.7935 35.5212 31.0745 35.7836C31.3538 36.0579 31.6863 36.1903 32.0744 36.1903C32.4693 36.1903 32.8026 36.0579 33.0878 35.7836C33.362 35.5212 33.5012 35.1955 33.5012 34.7998C33.5012 34.3973 33.362 34.0682 33.0878 33.7965C32.8127 33.5206 32.4811 33.3932 32.0744 33.3932C31.6728 33.3932 31.3412 33.5206 31.0711 33.7965ZM47.0702 33.7965C46.796 34.0733 46.6635 34.4015 46.6635 34.7998C46.6635 35.1955 46.796 35.5212 47.0702 35.7836C47.3622 36.0579 47.6853 36.1903 48.0735 36.1903C48.4751 36.1903 48.8101 36.0579 49.0928 35.7836C49.3712 35.5212 49.5087 35.1955 49.5087 34.7998C49.5087 34.3973 49.3712 34.0682 49.0944 33.7965C48.8143 33.5206 48.4785 33.3932 48.0735 33.3932C47.6769 33.3932 47.3436 33.5206 47.0702 33.7965ZM35.9989 18.2273V18.8407H38.0712V32.4787C38.0712 33.5512 38.0054 33.8296 37.8856 34.1401C37.7573 34.4869 37.4679 34.7603 37.0393 34.9383C36.7203 35.0725 36.2368 35.1434 35.5922 35.1611V35.7247H43.1862V35.167C42.5424 35.151 42.0513 35.0776 41.7299 34.9628C41.2767 34.7839 40.9831 34.5207 40.8397 34.1637C40.7139 33.8566 40.649 33.5866 40.649 33.0474V28.3771L42.5281 28.3695C47.9856 28.3695 49.5196 26.2162 49.5196 23.2773C49.5196 20.3072 48.578 18.2256 43.0521 18.2256L35.9989 18.2273ZM40.649 18.9192L41.9543 18.9015C46.1631 18.9015 47.0819 20.6329 47.0819 23.4385C47.0819 26.2617 45.4273 27.7021 42.0893 27.7021H40.649V18.9192ZM69.2205 18.2668C69.1572 18.4288 63.8726 31.5976 63.8726 31.5976L63.7519 31.6761L63.6253 31.5976C63.6253 31.5976 57.994 18.4288 57.9281 18.2668H52.9591V18.8304H55.1158V32.3739L55.0694 33.6075C55.0348 33.9332 54.9336 34.2235 54.7741 34.4547C54.6062 34.707 54.3328 34.8977 53.9776 35.0234C53.743 35.1002 53.3937 35.1516 52.9591 35.1618V35.7254H57.891V35.1694C57.4717 35.1516 57.2894 35.1103 57.0439 35.0284C56.6819 34.9095 56.4102 34.7298 56.2305 34.4724C56.0701 34.2328 55.9664 33.9467 55.9301 33.6075L55.8752 32.3739V20.6758H56.1646C56.1646 20.6758 62.5419 35.5617 62.6086 35.7254H63.141L69.1766 20.8411H69.3285V32.903C69.3285 33.4194 69.2761 33.8176 69.1766 34.1264C69.0576 34.4876 68.8003 34.7601 68.4273 34.9441C68.1505 35.0673 67.7286 35.1398 67.1726 35.1618V35.7254H74.0536V35.1618C73.5043 35.1348 73.0791 35.0605 72.7905 34.9314C72.3905 34.7365 72.1315 34.4547 72.0176 34.0944C71.918 33.7797 71.8699 33.3949 71.8699 32.903V18.8414L73.6992 18.8237V18.2668H69.2205ZM75.2987 29.5955C75.2987 35.8268 80.1471 36.2386 81.1933 36.2386C83.2657 36.2386 87.1943 34.9459 87.1943 29.4782C87.1943 25.2239 84.6815 22.9086 81.276 22.9086C77.6031 22.9086 75.2987 25.3429 75.2987 29.5955ZM78.041 29.6647C78.041 26.2474 78.2536 23.6832 81.2271 23.6832C84.4402 23.6832 84.4554 26.3368 84.4554 29.4495C84.4554 33.9224 83.6909 35.4657 81.2271 35.4657C78.4663 35.4657 78.041 34.0861 78.041 29.6647ZM93.3147 25.7188L93.1426 25.7129C93.1241 25.7188 92.8262 23.7907 92.714 23.2229C91.8567 23.2229 88.4622 23.2144 88.4622 23.2144V23.8667H90.7632C90.7632 23.8667 90.7497 25.82 90.7497 26.5237V32.5061C90.7497 33.3626 90.6552 33.96 90.4704 34.322C90.2349 34.7489 89.7076 34.9632 88.8343 34.9632H88.4622V35.7252H95.587V34.9632H95.2031C94.2682 34.9632 93.8649 34.7599 93.6143 34.3549C93.3873 33.9979 93.2861 33.393 93.2861 32.5061V28.0198C93.2861 26.5069 94.4252 24.7847 95.7904 24.7847C97.2172 24.7847 97.1835 26.9828 98.801 26.0985C99.6802 25.6175 99.5317 23.0988 96.8029 23.0988C94.6057 23.0988 93.9206 24.3966 93.3147 25.7188ZM115.56 23.8727C114.747 24.492 114.43 25.0641 114.43 25.8834C114.43 26.2639 114.532 26.5323 114.746 26.7128C114.961 26.9035 115.213 26.9913 115.522 26.9913C116.23 26.9913 116.628 26.631 116.775 25.6994C116.884 25.0084 117.035 24.6143 117.375 24.254C117.739 23.8727 118.307 23.682 119.075 23.682C119.969 23.682 120.601 23.9224 120.956 24.4034C121.281 24.8557 121.453 25.4708 121.453 26.2302V28.3287C119.17 28.5345 113.78 28.9674 114.019 33.0732C114.109 34.6798 115.526 36.0897 117.356 36.0897C119.38 36.0897 120.661 34.9371 121.53 34.0149C121.669 34.889 122.481 35.9328 123.956 35.9328C125.614 35.9328 126.605 35.1194 126.721 33.0859H126.294C126.182 33.9702 125.635 34.4469 125.186 34.4469C124.423 34.4469 124.181 34.0225 124.124 33.3162L124.08 31.7147V26.474C124.08 25.3425 123.897 24.5823 123.23 23.9157C122.573 23.2491 121.303 22.9082 119.466 22.9082C117.702 22.9082 116.393 23.2339 115.56 23.8727ZM116.513 32.5923C116.513 30.2626 119.705 29.0973 121.453 29.0973V33.1222L121.41 33.2217L121.357 33.2724C120.136 34.3794 119.203 34.7743 118.522 34.7743C116.775 34.7743 116.513 33.3196 116.513 32.5923ZM131.735 25.4818L131.507 25.4726L131.06 23.1994L127.187 23.1927V23.8449C127.915 23.8753 129.127 23.8888 129.127 23.8888V32.492C129.127 33.1602 129.075 33.6412 128.976 33.9601C128.873 34.3407 128.626 34.6065 128.26 34.76C128.026 34.8613 127.657 34.917 127.187 34.9381V35.7253H133.345V34.9322C132.726 34.8824 132.308 34.7145 132.085 34.3981C131.845 34.0597 131.735 33.4783 131.735 32.6287V29.3244C131.735 27.9423 131.728 26.6074 132.199 25.7814C132.708 24.8811 133.64 24.3849 134.682 24.3849C135.62 24.3849 136.114 24.6853 136.423 25.2802C136.676 25.7645 136.839 27.2057 136.839 28.1971L136.809 32.292C136.809 32.9738 136.895 33.4783 136.839 33.8015C136.77 34.1787 136.599 34.4723 136.303 34.6672C136.087 34.8157 135.749 34.8925 135.315 34.9254V35.7253H141.25V34.9381C140.5 34.8891 140.008 34.7069 139.793 34.3559C139.549 33.9981 139.348 33.3957 139.348 32.4979L139.382 26.8294C139.382 26.01 139.272 25.3089 138.964 24.7334C138.652 24.174 138.215 23.7496 137.672 23.4703C137.119 23.1927 136.486 23.056 135.791 23.056C133.288 23.056 132.283 24.5841 131.735 25.4818ZM111.909 22.4032C111.542 22.5205 111.299 22.847 111.169 23.3989C111.073 23.9077 110.88 24.2022 110.623 24.2848C110.364 24.3608 110.077 24.3388 109.734 24.2224C109.096 23.6292 107.872 22.9086 105.717 22.9086C102.248 22.9086 100.719 25.3801 100.719 27.6347C100.719 30.274 101.733 31.5515 103.965 32.0215C104.1 32.0502 104.1 32.1995 103.983 32.2265C102.079 32.6121 100.393 33.169 100.393 34.9781C100.393 36.0682 101.019 36.6656 101.82 36.9922C102.704 37.3516 103.947 37.5381 105.507 37.5659C106.871 37.5811 107.838 37.6292 108.468 37.7043C109.149 37.7819 109.688 37.976 110.086 38.2663C110.496 38.5835 110.713 39.051 110.713 39.6627C110.713 40.4998 110.266 41.1731 109.373 41.6718C108.543 42.1359 107.408 42.378 105.996 42.378C104.785 42.378 103.795 42.2455 102.9 41.6886C102.238 41.2786 102.109 40.4719 102.248 39.8914C102.371 39.3041 102.161 38.6848 101.48 38.57C101.106 38.5068 100.634 38.7109 100.416 39.051C100.212 39.3674 100.14 39.7437 100.14 40.1926C100.14 41.6811 101.29 42.378 102.168 42.6345C103.508 43.0429 104.396 43.1416 105.628 43.1416C107.262 43.1416 108.588 42.8919 109.537 42.4118C110.485 41.9325 111.147 41.3469 111.499 40.6736C111.871 39.9952 112.05 39.3033 112.05 38.6367C112.05 37.7372 111.852 37.004 111.468 36.464C110.229 34.7595 108.468 34.9781 104.51 34.7891C102.607 34.7891 102.24 34.4456 102.24 33.8601C102.24 33.0019 102.945 32.6636 105.702 32.2408C108.414 31.819 110.942 30.8233 110.942 27.5106C110.942 26.558 110.719 25.7395 110.45 25.1674C111.011 25.2923 111.534 25.2923 112.012 25.1345C112.559 24.9658 112.914 24.6915 113.12 24.3068C113.326 23.9212 113.373 23.5584 113.259 23.204C113.077 22.6243 112.767 22.3349 112.319 22.3349C112.193 22.3349 112.057 22.3577 111.909 22.4032ZM103.235 27.6347C103.235 25.3084 104.047 23.5778 105.784 23.5778C107.804 23.5778 108.395 25.1548 108.395 27.5866C108.395 31.0646 107.3 31.5203 105.784 31.5203C104.163 31.5203 103.235 30.9313 103.235 27.6347Z" fill="black"/>
</g>
<defs>
<clipPath id="clip0_17040_10116">
<rect width="138.862" height="34.7155" fill="white" transform="translate(10.569 11.7842)"/>
</clipPath>
</defs>
</svg>
