<svg width="160" height="58" viewBox="0 0 160 58" fill="none" xmlns="http://www.w3.org/2000/svg">
<g clip-path="url(#clip0_17040_10050)">
<path d="M85.5574 39.0222H101.843V37.033H88.3493V30.6678H98.4845V28.6551H88.3493V22.7907H101.843V20.8088H85.5574V39.0222Z" fill="black"/>
<path d="M94.0205 17.8645L91.8157 20.3415L98.7373 17.8645H94.0205Z" fill="black"/>
<path d="M129.182 37.033V20.8088H126.637V39.0222H143.1V37.033H129.182Z" fill="black"/>
<path d="M112.395 20.8088L103.134 39.0222H106.265L108.634 34.3081H119.741L122.131 39.0222H125.229L115.96 20.8088H112.395ZM109.806 32.0251L114.17 23.3255L118.585 32.0251H109.806Z" fill="black"/>
<path d="M76.7204 31.4062C80.8931 30.2928 81.2985 27.1882 81.2773 26.0782C81.0283 22.8245 78.836 20.8088 74.8968 20.8088H63.4174V39.0222H66.0343V31.382H73.5077L79.0058 39.0222H82.3041C82.3041 39.0222 78.3475 33.8802 76.7204 31.4062ZM74.5395 29.2299H66.0343V22.9646H74.836C76.8624 22.9646 78.0023 23.9106 78.4129 25.1123C78.6846 25.9361 78.5104 27.0175 78.061 27.7537C77.3254 28.9709 75.9281 29.2299 74.5395 29.2299Z" fill="black"/>
<path d="M47.691 17.7246C40.3039 17.7246 35.269 22.933 35.269 29.237C35.269 35.8736 40.8308 40.5586 47.691 40.5586C54.5467 40.5586 60.1062 35.9404 60.1062 29.237C60.1062 22.933 55.009 17.7246 47.691 17.7246ZM47.6024 38.2977C42.4916 38.2977 38.2806 34.1907 38.2806 29.2432C38.2806 24.3025 42.2928 19.9987 47.8005 19.9987C53.1717 19.9987 57.12 24.3025 57.12 29.2432C57.12 34.1905 52.7109 38.2977 47.6024 38.2977Z" fill="black"/>
<path d="M28.6782 27.2521H30.5665L33.9939 20.8088H31.2358L28.6782 27.2521Z" fill="black"/>
<path d="M19.447 37.033V20.8088H16.9001V39.0222H33.3628V37.033H19.447Z" fill="black"/>
</g>
<defs>
<clipPath id="clip0_17040_10050">
<rect width="126.2" height="22.834" fill="white" transform="translate(16.9001 17.7246)"/>
</clipPath>
</defs>
</svg>
