<svg width="211" height="38" viewBox="0 0 211 38" fill="none" xmlns="http://www.w3.org/2000/svg">
<path d="M61.5748 10.0212H56.8202C56.5103 10.0212 56.3037 10.2277 56.3037 10.5376V14.2041C56.3037 14.4623 55.9423 14.6172 55.7873 14.2557C54.3414 11.054 52.3237 9.50107 49.3285 9.50107C44.0058 9.50107 39.668 14.2557 39.668 21.7437C39.668 29.2316 44.0058 34.1412 49.122 34.1412C51.9106 34.1412 53.8729 32.9018 55.7873 29.3865C55.9423 29.0767 56.3037 29.1283 56.3037 29.4382V33.1047C56.3037 33.4145 56.5103 33.6211 56.8202 33.6211H61.5748C61.8847 33.6211 62.0912 33.4145 62.0912 33.1047V10.5376C62.0912 10.2277 61.8847 10.0212 61.5748 10.0212ZM56.3037 22.2638C56.3037 27.948 53.7217 30.2718 50.981 30.2718C47.9342 30.2718 45.5034 27.3799 45.5034 21.7474C45.5034 16.5796 47.9305 13.3778 50.981 13.3778C53.718 13.3778 56.3037 15.9599 56.3037 21.3342V22.2638Z" fill="#000069"/>
<path d="M82.2429 26.9151C81.2101 29.1357 79.8158 30.2718 78.06 30.2718C76.3042 30.2718 75.2714 29.1873 75.2714 26.7085V13.2265H82.195C82.5048 13.2265 82.7114 13.02 82.7114 12.7101V10.5412C82.7114 10.2314 82.5048 10.0248 82.195 10.0248H75.2714V4.07871C75.2714 3.66558 75.0648 3.40738 74.5484 3.51066L70.2622 4.23363C69.9524 4.28527 69.7458 4.4402 69.7458 4.80168V10.0211H65.8211C65.5112 10.0211 65.3047 10.2277 65.3047 10.5375V12.7064C65.3047 13.0163 65.5112 13.2229 65.8211 13.2229H69.4876V26.2401C69.4876 31.7177 72.741 34.1448 76.3595 34.1448C79.9781 34.1448 82.2503 31.7693 83.6963 27.4278C83.9545 26.6532 82.6118 26.1368 82.2503 26.9114" fill="#000069"/>
<path d="M29.0304 9.50479C25.6221 9.50479 22.9847 11.8286 21.1257 15.3439C20.9707 15.6538 20.6093 15.6538 20.5576 15.2923C20.0412 11.8286 17.9239 9.50479 14.6152 9.50479C11.3065 9.50479 8.93101 11.8803 7.07194 15.1373C6.86537 15.4988 6.50388 15.3956 6.50388 15.0857V10.5376C6.50388 10.2278 6.29732 10.0212 5.98747 10.0212H1.49102C1.18117 10.0212 0.974609 10.2278 0.974609 10.5376V33.1158C0.974609 33.4256 1.18117 33.6322 1.49102 33.6322H6.24568C6.55553 33.6322 6.76209 33.4256 6.76209 33.1158V23.3003C6.76209 16.6866 9.86055 13.3816 12.343 13.3816C14.2021 13.3816 15.2349 14.5693 15.2349 17.4096V33.1158C15.2349 33.4256 15.4415 33.6322 15.7513 33.6322H20.506C20.8158 33.6322 21.0224 33.4256 21.0224 33.1158V23.3003C21.0224 16.6866 24.1208 13.3816 26.6033 13.3816C28.4624 13.3816 29.4952 14.5693 29.4952 17.4096V33.1158C29.4952 33.4256 29.7018 33.6322 30.0116 33.6322H34.7663C35.0761 33.6322 35.2827 33.4256 35.2827 33.1158V16.48C35.2827 12.0905 32.5973 9.50479 29.0304 9.50479Z" fill="#000069"/>
<path d="M165.678 26.9151C164.645 29.1357 163.251 30.2718 161.495 30.2718C159.74 30.2718 158.707 29.1873 158.707 26.7085V13.2265H165.63C165.94 13.2265 166.147 13.02 166.147 12.7101V10.5412C166.147 10.2314 165.94 10.0248 165.63 10.0248H158.707V4.07871C158.707 3.66558 158.5 3.40738 157.984 3.51066L153.694 4.23363C153.384 4.28527 153.177 4.4402 153.177 4.80168V10.0211H149.253C148.943 10.0211 148.736 10.2277 148.736 10.5375V12.7064C148.736 13.0163 148.943 13.2229 149.253 13.2229H152.919V26.2401C152.919 31.7177 156.173 34.1448 159.791 34.1448C163.41 34.1448 165.682 31.7693 167.128 27.4278C167.386 26.6532 166.043 26.1368 165.682 26.9114" fill="#000069"/>
<path d="M145.322 10.0212H140.568C140.258 10.0212 140.051 10.2278 140.051 10.5376V20.3531C140.051 26.9668 136.953 30.2719 134.47 30.2719C132.611 30.2719 131.578 29.0841 131.578 26.2402V10.5376C131.578 10.2278 131.372 10.0212 131.062 10.0212H126.307C125.998 10.0212 125.791 10.2278 125.791 10.5376V27.6898C125.791 31.6145 128.528 34.1486 132.198 34.1486C135.452 34.1486 137.831 31.9281 139.69 28.4128C139.845 28.1029 140.258 28.1546 140.258 28.5161V33.1158C140.258 33.4256 140.464 33.6322 140.774 33.6322H145.322C145.632 33.6322 145.839 33.4256 145.839 33.1158V10.5376C145.839 10.2278 145.632 10.0212 145.322 10.0212Z" fill="#000069"/>
<path d="M114.482 9.50479C111.074 9.50479 108.436 11.8286 106.577 15.3439C106.422 15.6538 106.061 15.6538 106.009 15.2923C105.493 11.8286 103.375 9.50479 100.067 9.50479C96.7579 9.50479 94.3824 11.8803 92.5233 15.1373C92.3168 15.4988 91.9553 15.3956 91.9553 15.0857V10.5376C91.9553 10.2278 91.7487 10.0212 91.4389 10.0212H86.9461C86.6363 10.0212 86.4297 10.2278 86.4297 10.5376V33.1158C86.4297 33.4256 86.6363 33.6322 86.9461 33.6322H91.7008C92.0106 33.6322 92.2172 33.4256 92.2172 33.1158V23.3003C92.2172 16.6866 95.3156 13.3816 97.7981 13.3816C99.6572 13.3816 100.69 14.5693 100.69 17.4096V33.1158C100.69 33.4256 100.897 33.6322 101.206 33.6322H105.961C106.271 33.6322 106.477 33.4256 106.477 33.1158V23.3003C106.477 16.6866 109.576 13.3816 112.058 13.3816C113.917 13.3816 114.95 14.5693 114.95 17.4096V33.1158C114.95 33.4256 115.157 33.6322 115.467 33.6322H120.221C120.531 33.6322 120.738 33.4256 120.738 33.1158V16.48C120.738 12.0905 118.052 9.50479 114.486 9.50479" fill="#000069"/>
<path d="M186.185 1.83571C185.989 6.27683 184.654 8.64863 178.188 9.78473C177.988 9.83268 177.893 9.98023 177.893 10.1315C177.893 10.2827 177.941 10.4266 178.287 10.5261C180.168 11.168 182.245 11.5627 184.064 11.5627C191.5 11.5627 195.222 7.31703 195.222 0.555747C195.222 0.356561 195.122 0.209015 194.875 0.209015C190.976 0.209015 187.372 0.998384 186.531 1.39307C186.336 1.49266 186.185 1.54061 186.185 1.83571Z" fill="#0391DF"/>
<path d="M210.022 15.904C210.022 14.8897 209.852 11.3191 208.639 8.69644C208.539 8.50094 208.44 8.4493 208.292 8.4493C208.192 8.4493 208.045 8.49725 207.897 8.54889C206.96 8.84399 205.138 8.94358 204.253 8.94358C200.649 8.94358 198.086 7.58985 196.898 4.45081C196.798 4.25163 196.702 4.20367 196.603 4.20367C196.455 4.20367 196.308 4.30327 196.256 4.49877C196.108 5.18854 196.061 5.88201 196.061 6.52383C196.061 13.1634 200.011 16.7414 205.983 16.7414C207.067 16.7414 208.89 16.5459 209.775 16.2471C209.922 16.1991 210.022 16.0516 210.022 15.9004" fill="#0DD3B6"/>
<path d="M171.87 19.1133C178.93 19.5079 180.708 22.6691 180.855 27.8C180.855 28.0471 181.003 28.1947 181.202 28.1947C181.401 28.1947 181.497 28.0951 181.597 27.9475C183.349 25.3692 184.064 22.9605 184.064 20.5924C184.064 15.657 179.31 11.0093 172.511 10.67C172.264 10.67 172.117 10.7695 172.017 11.0167C171.176 13.2741 171.069 17.5935 171.375 18.7665C171.423 18.962 171.571 19.1133 171.87 19.1133Z" fill="#FCBA00"/>
<path d="M186.58 37.2798C188.701 33.5764 191.419 31.8022 194.529 31.8022C195.912 31.8022 196.901 32.1268 197.786 32.5436C197.985 32.6432 198.28 32.396 198.133 32.0973C196.296 28.3754 192.851 26.568 189.346 26.568C186.038 26.568 182.268 28.4234 179.671 32.3444C179.571 32.492 179.523 32.5915 179.523 32.7391C179.523 32.8866 179.571 32.9862 179.719 33.1338C182.094 35.5093 185.2 37.0327 186.086 37.3794C186.233 37.4274 186.281 37.4274 186.333 37.4274C186.432 37.4274 186.528 37.3794 186.58 37.2798Z" fill="#6A2DC1"/>
<path d="M206.92 18.523C206.92 18.3754 206.724 18.1283 206.378 18.2758C200.741 20.1054 198.576 24.0154 198.576 27.704C198.576 30.0426 199.908 32.5915 202.18 34.8637C202.328 35.0112 202.427 35.0592 202.575 35.0592C202.722 35.0592 202.833 35.0038 202.969 34.9116C204.013 34.2145 207.112 32.1046 208.204 29.8766C208.351 29.5815 208.403 29.3934 208.403 29.2828C208.403 29.1684 208.366 29.0983 208.204 28.936C206.285 27.136 204.6 25.5794 204.6 23.3072C204.6 21.7026 205.315 20.2714 206.772 18.8144C206.92 18.6668 206.92 18.6152 206.92 18.5193" fill="#F42A5F"/>
</svg>
