<svg width="160" height="58" viewBox="0 0 160 58" fill="none" xmlns="http://www.w3.org/2000/svg">
<g clip-path="url(#clip0_17040_10169)">
<path d="M71.184 31.4111H79.6287L75.1681 24.4777L66.9672 37.0004H63.2381L73.2121 21.9764C73.4295 21.6766 73.7184 21.4313 74.0546 21.2611C74.3908 21.0909 74.7645 21.0007 75.1443 20.9981C75.5242 20.9955 75.8991 21.0805 76.2378 21.2461C76.5765 21.4117 76.869 21.653 77.0909 21.9497L87.0926 37.0004H83.3634L81.6069 34.2004H73.0625L71.2007 31.4111M109.95 34.2004V21.1498H106.78V35.4857C106.78 35.685 106.821 35.8822 106.902 36.0656C106.983 36.2489 107.102 36.4146 107.251 36.5524C107.401 36.7001 107.581 36.8173 107.779 36.8971C107.977 36.9768 108.189 37.0174 108.404 37.0164H122.811L124.689 34.2164H109.933M57.5473 31.8697C59.0243 31.8697 60.4407 31.305 61.4851 30.2998C62.5294 29.2946 63.1162 27.9313 63.1162 26.5097C63.1162 25.0882 62.5294 23.7249 61.4851 22.7197C60.4407 21.7145 59.0243 21.1498 57.5473 21.1498H43.6945V37.0004H46.8585V23.9551H57.3534C58.0603 23.9551 58.7382 24.2254 59.238 24.7065C59.7379 25.1875 60.0187 25.84 60.0187 26.5204C60.0187 27.2008 59.7379 27.8533 59.238 28.3344C58.7382 28.8155 58.0603 29.0857 57.3534 29.0857H48.4266L57.8798 37.0004H62.4734L56.1233 31.8697H57.5473ZM24.2341 37.0004H33.8036C35.9497 36.9468 37.9892 36.0886 39.4874 34.6086C40.9857 33.1287 41.8241 31.1441 41.8241 29.0777C41.8241 27.0114 40.9857 25.0268 39.4874 23.5469C37.9892 22.0669 35.9497 21.2087 33.8036 21.1551H24.2341C23.1351 21.1276 22.0416 21.3123 21.018 21.6981C19.9944 22.0839 19.0614 22.6631 18.2741 23.4015C17.4868 24.1399 16.861 25.0225 16.4338 25.9974C16.0065 26.9723 15.7864 28.0197 15.7864 29.0777C15.7864 30.1358 16.0065 31.1832 16.4338 32.1581C16.861 33.133 17.4868 34.0156 18.2741 34.754C19.0614 35.4924 19.9944 36.0716 21.018 36.4574C22.0416 36.8432 23.1351 37.0279 24.2341 37.0004ZM33.5875 34.2111H24.4446C23.0614 34.1681 21.7497 33.6091 20.7869 32.6521C19.8242 31.6951 19.2859 30.4152 19.2859 29.0831C19.2859 27.751 19.8242 26.4711 20.7869 25.5141C21.7497 24.5571 23.0614 23.998 24.4446 23.9551H33.5875C34.3016 23.9329 35.0131 24.0491 35.6796 24.2969C36.3461 24.5446 36.9541 24.9188 37.4674 25.3971C37.9807 25.8755 38.3888 26.4483 38.6675 27.0815C38.9463 27.7147 39.0899 28.3954 39.0899 29.0831C39.0899 29.7708 38.9463 30.4514 38.6675 31.0846C38.3888 31.7179 37.9807 32.2907 37.4674 32.769C36.9541 33.2474 36.3461 33.6216 35.6796 33.8693C35.0131 34.117 34.3016 34.2333 33.5875 34.2111ZM93.7032 37.0004H103.472L105.323 34.2111H93.9193C93.2052 34.2333 92.4937 34.117 91.8272 33.8693C91.1607 33.6216 90.5527 33.2474 90.0394 32.769C89.5261 32.2907 89.118 31.7179 88.8392 31.0846C88.5605 30.4514 88.4169 29.7708 88.4169 29.0831C88.4169 28.3954 88.5605 27.7147 88.8392 27.0815C89.118 26.4483 89.5261 25.8755 90.0394 25.3971C90.5527 24.9188 91.1607 24.5446 91.8272 24.2969C92.4937 24.0491 93.2052 23.9329 93.9193 23.9551H103.201L105.074 21.1551H93.7032C92.6042 21.1276 91.5107 21.3123 90.4871 21.6981C89.4635 22.0839 88.5305 22.6631 87.7432 23.4015C86.9559 24.1399 86.3301 25.0225 85.9028 25.9974C85.4756 26.9723 85.2555 28.0197 85.2555 29.0777C85.2555 30.1358 85.4756 31.1832 85.9028 32.1581C86.3301 33.133 86.9559 34.0156 87.7432 34.754C88.5305 35.4924 89.4635 36.0716 90.4871 36.4574C91.5107 36.8432 92.6042 37.0279 93.7032 37.0004ZM132.419 34.2111C131.258 34.2115 130.129 33.8471 129.203 33.1733C128.276 32.4994 127.604 31.553 127.288 30.4778H140.819L142.681 27.6831H127.288C127.603 26.6074 128.275 25.6605 129.202 24.9865C130.128 24.3125 131.258 23.9484 132.419 23.9498H141.706L143.562 21.1498H132.203C130.057 21.2033 128.017 22.0616 126.519 23.5415C125.021 25.0215 124.182 27.0061 124.182 29.0724C124.182 31.1387 125.021 33.1234 126.519 34.6033C128.017 36.0833 130.057 36.9415 132.203 36.9951H141.972L143.828 34.2057H132.413" fill="#C74634"/>
</g>
<defs>
<clipPath id="clip0_17040_10169">
<rect width="128" height="16" fill="white" transform="translate(16 21)"/>
</clipPath>
</defs>
</svg>
