<svg width="160" height="58" viewBox="0 0 160 58" fill="none" xmlns="http://www.w3.org/2000/svg">
<path fill-rule="evenodd" clip-rule="evenodd" d="M34.0573 19.1489C31.5077 19.352 29.1394 20.4644 27.4042 22.2741C25.6947 24.0571 24.7783 26.0286 24.4772 28.5706C24.0019 32.5853 26.0845 36.857 29.4693 38.8099C32.2189 40.3964 35.7658 40.776 38.7992 39.8087C39.1719 39.6899 39.4767 39.5489 39.4767 39.4953C39.4767 39.4418 38.869 38.7983 38.1264 38.0655L36.776 36.7333L35.595 36.7699C33.5047 36.8347 31.9737 36.2751 30.6209 34.9517C29.0821 33.4463 28.4517 31.9089 28.449 29.6541C28.4463 27.5178 29.1531 25.8377 30.6491 24.4239C33.2903 21.9279 37.4316 22.0018 39.9998 24.5905C41.7141 26.3187 42.4552 29.1707 41.8202 31.5982L41.5968 32.4526L42.3743 33.2434C42.802 33.6783 43.406 34.3045 43.7166 34.6348C44.0272 34.965 44.3562 35.2353 44.4478 35.2353C44.6551 35.2353 45.331 33.771 45.6869 32.5506C45.8967 31.8314 45.9529 31.1878 45.9459 29.5834C45.9379 27.7405 45.8982 27.4211 45.5502 26.4043C44.5814 23.5743 42.8344 21.5077 40.3701 20.2765C38.3449 19.2645 36.5755 18.9484 34.0573 19.1489ZM127.755 19.1485C125.86 19.3357 124.094 20.236 123.046 21.5498C122.025 22.829 121.661 24.1673 121.911 25.7175C122.29 28.07 123.768 29.3437 128.019 30.9823C128.83 31.2952 129.77 31.7113 130.107 31.9069C132.106 33.0672 132.223 35.2382 130.345 36.3316C129.742 36.6831 129.555 36.718 128.325 36.709C126.668 36.697 125.739 36.3781 124.37 35.3514L123.433 34.6489L122.304 35.7545C120.735 37.2908 120.753 37.2288 121.682 37.951C122.388 38.4997 123.897 39.3267 124.959 39.7471C126.292 40.2748 128.73 40.47 130.208 40.1669C132.236 39.7511 134.278 38.2508 135.115 36.5626C135.471 35.8434 135.534 35.5345 135.576 34.2983C135.618 33.0477 135.58 32.7607 135.282 32.0286C134.835 30.933 134.294 30.2682 133.246 29.5292C132.269 28.8409 131.84 28.631 129.213 27.5584C127.19 26.7322 126.467 26.2815 126.032 25.5755C125.596 24.867 125.697 24.2793 126.382 23.5296C127.343 22.4788 129.66 22.311 131.526 23.1569C131.953 23.3503 132.342 23.572 132.39 23.6495C132.617 24.013 133.018 23.7036 133.852 22.5216C134.342 21.8269 134.743 21.1665 134.743 21.0543C134.743 20.9419 134.39 20.653 133.959 20.4121C132.177 19.4151 129.851 18.9415 127.755 19.1485ZM49.7785 26.5103C49.823 32.7836 49.8578 33.7008 50.0777 34.3875C51.0227 37.3383 52.8249 39.1017 55.806 39.9921C56.9846 40.3441 60.1398 40.3534 61.3972 40.0085C64.4518 39.1708 66.4683 37.1307 67.2327 34.1049C67.476 33.1418 67.5004 32.4267 67.5004 26.263V19.4808L65.5394 19.4415L63.5785 19.4023L63.5735 25.8705C63.5672 33.8662 63.5169 34.1915 62.0813 35.5024C61.0023 36.488 60.3388 36.7189 58.587 36.7189C57.137 36.7189 57.0601 36.7027 56.1625 36.2132C55.1716 35.6727 54.3026 34.7156 53.9915 33.8223C53.8687 33.4696 53.8061 31.332 53.7736 26.369L53.7278 19.4102H51.7279H49.7281L49.7785 26.5103ZM77.8797 19.5868C77.804 19.684 77.4366 20.4946 77.0634 21.3883C76.6901 22.282 76.2383 23.3325 76.0595 23.7229C75.8805 24.1132 75.4965 25.0033 75.206 25.7011C74.9153 26.3986 74.4906 27.3713 74.2621 27.8625C74.0337 28.3536 73.8467 28.8336 73.8467 28.9292C73.8467 29.0248 73.7921 29.1635 73.7253 29.2373C73.6584 29.3112 73.2991 30.1027 72.9264 30.9964C72.5538 31.8901 72.1027 32.9403 71.924 33.3303C71.7453 33.7201 71.2329 34.9247 70.7853 36.0069C69.9148 38.1117 69.4814 39.114 69.2713 39.5075C69.0045 40.0075 69.1153 40.0393 71.1196 40.0393C73.3085 40.0393 73.2501 40.0622 73.6356 39.0502C73.769 38.7005 73.9773 38.1927 74.099 37.9216C74.2206 37.6506 74.4913 37.0147 74.7007 36.5086L75.0813 35.5885L79.2368 35.5511L83.3924 35.5136L83.6051 35.8352C83.722 36.012 84.1484 36.9507 84.5525 37.9214C84.9565 38.892 85.3521 39.7656 85.4315 39.8627C85.6074 40.0776 89.3272 40.1156 89.4594 39.9038C89.5059 39.8292 89.4829 39.6544 89.4085 39.5152C89.334 39.3761 89.1773 39.0396 89.0602 38.7676C88.9433 38.4956 88.3667 37.1604 87.779 35.8004C87.1914 34.4405 86.3769 32.533 85.9692 31.5616C85.5615 30.5902 85.0811 29.4761 84.902 29.0857C84.7229 28.6954 84.3381 27.8052 84.047 27.1075C83.7558 26.4099 83.3954 25.5723 83.2458 25.2464C83.0964 24.9204 82.974 24.6202 82.974 24.5793C82.974 24.5386 82.8194 24.1694 82.6306 23.7592C82.4418 23.3489 82.0492 22.441 81.7582 21.7415C81.4671 21.0421 81.107 20.2315 80.9577 19.94L80.6863 19.4102H79.3519C78.4529 19.4102 77.9725 19.4678 77.8797 19.5868ZM92.3074 19.5916C92.2688 19.6913 92.2546 24.3169 92.2762 29.8708L92.3152 39.9687H96.8076C101.362 39.9687 101.805 39.9297 103.51 39.3787C105.068 38.8755 106.963 37.4638 107.98 36.0497C110.555 32.4686 110.749 27.8512 108.481 24.1268C107.005 21.7025 104.74 20.1706 101.811 19.6152C100.339 19.3361 92.4139 19.3163 92.3074 19.5916ZM113.844 19.5868C113.807 19.684 113.793 24.3096 113.813 29.866L113.85 39.9687H115.775H117.701L117.737 29.6894L117.774 19.4102H115.843C114.43 19.4102 113.894 19.4575 113.844 19.5868ZM100.331 22.9613C102.401 23.2596 103.878 24.1717 104.954 25.8154C105.757 27.0425 105.997 27.9616 105.991 29.7954C105.986 31.1313 105.933 31.4839 105.609 32.3048C104.889 34.1365 103.738 35.3552 102.084 36.0398C101.202 36.4048 101.04 36.4237 98.7329 36.4298L96.3084 36.4363L96.2714 29.8115C96.2447 25.0375 96.2794 23.133 96.3957 22.994C96.5998 22.7505 98.7451 22.7327 100.331 22.9613ZM79.5546 26.3421C79.6067 26.454 79.7237 26.6877 79.8144 26.8615C79.9049 27.0353 79.9791 27.2377 79.9791 27.311C79.9791 27.3843 80.1646 27.8461 80.3915 28.3372C81.4506 30.63 81.8686 31.7242 81.7358 31.8558C81.6545 31.9363 80.6333 31.9767 79.2571 31.9538C76.5549 31.9087 76.5957 31.9346 77.1896 30.6485C77.3904 30.2136 77.5547 29.8324 77.5547 29.8015C77.5547 29.7707 77.769 29.2798 78.0311 28.7107C78.2931 28.1415 78.6585 27.3091 78.8429 26.8608C79.1696 26.0666 79.3609 25.9271 79.5546 26.3421ZM34.3664 32.4072C34.3925 32.4838 36.1122 34.2323 38.1879 36.2929L41.962 40.0393H44.4749C45.8569 40.0393 47.0308 39.9965 47.0836 39.9442C47.1363 39.8919 45.4647 38.1434 43.3687 36.0586L39.5579 32.2681H36.9384C35.2811 32.2681 34.3363 32.3192 34.3664 32.4072Z" fill="black"/>
</svg>
