<svg width="160" height="58" viewBox="0 0 160 58" fill="none" xmlns="http://www.w3.org/2000/svg">
<path d="M29.4024 15.4638C26.4142 14.1373 24.6322 13.6226 22.8626 13.6226C21.0055 13.6226 19.8161 14.2876 19.8161 15.3152C19.8161 18.4166 30.3371 17.5438 30.3371 24.7176C30.3371 28.6733 27.0182 30.9717 22.4072 30.9717C18.7902 30.9717 17.0092 30.036 14.9575 28.9766V24.5389C17.9165 26.4995 19.7276 27.192 22.0101 27.192C23.9893 27.192 25.0567 26.4995 25.0567 25.2924C25.0567 21.9151 14.5356 23.1523 14.5356 15.7654C14.5356 12.2032 17.6141 9.84466 22.4072 9.84466C24.7207 9.84466 26.8077 10.3302 29.4024 11.4462V15.4638Z" fill="#009E4D"/>
<path d="M44.133 30.0296C42.3793 30.6654 40.8963 30.9688 39.4168 30.9688C34.5166 30.9688 31.3489 28.115 31.3489 23.7728C31.3489 19.5103 34.6395 16.4991 39.2346 16.4991C40.654 16.4991 42.4686 16.8625 43.9199 17.4029V20.6661C42.7711 20.0559 41.441 19.7216 40.3524 19.7216C37.7224 19.7216 36.0306 21.302 36.0306 23.741C36.0306 26.2145 37.6941 27.8426 40.2003 27.8426C41.258 27.8426 42.198 27.6003 44.133 26.876V30.0296Z" fill="#009E4D"/>
<path d="M82.3367 22.1739C82.5162 20.2372 83.6411 19.1176 85.3638 19.1176C87.0573 19.1176 88.2052 20.2691 88.3865 22.1739H82.3367ZM85.0613 16.5035C80.7616 16.5035 77.7009 19.5403 77.7009 23.8135C77.7009 28.1185 80.8837 30.9688 85.7892 30.9688C86.876 30.9688 89.5043 30.9687 92.0079 29.116V26.3914C89.9571 27.8523 88.6005 28.3555 86.8495 28.3555C84.0859 28.3555 82.3959 26.9255 82.2429 24.4847H92.2546C92.4624 19.39 89.1178 16.5035 85.0613 16.5035Z" fill="#009E4D"/>
<path d="M93.9481 30.7139H98.3258V16.7598H93.9481V30.7139Z" fill="#009E4D"/>
<path d="M110.508 26.9001C109.596 27.7208 108.838 28.0498 107.903 28.0498C105.842 28.0498 104.537 26.3536 104.537 23.8111C104.537 21.0254 105.842 19.4195 108.048 19.4195C108.838 19.4195 109.869 19.7829 110.508 20.2384V26.9001ZM110.508 10.102V17.3722C109.325 16.8 108.146 16.4985 106.872 16.4985C102.879 16.4985 100.116 19.4495 100.116 23.72C100.116 27.8986 102.879 30.9717 106.625 30.9717C108.111 30.9717 109.259 30.5826 110.508 29.5868V30.7099H114.884V10.102H110.508Z" fill="#009E4D"/>
<path d="M121.364 22.1739C121.546 20.2372 122.665 19.1176 124.385 19.1176C126.081 19.1176 127.24 20.2691 127.422 22.1739H121.364ZM124.086 16.5035C119.787 16.5035 116.732 19.5403 116.732 23.8135C116.732 28.1185 119.914 30.9688 124.815 30.9688C125.9 30.9688 128.533 30.9687 131.043 29.116V26.3914C128.989 27.8523 127.63 28.3555 125.871 28.3555C123.123 28.3555 121.426 26.9255 121.273 24.4847H131.28C131.488 19.39 128.14 16.5035 124.086 16.5035Z" fill="#009E4D"/>
<mask id="mask0_17040_10296" style="mask-type:luminance" maskUnits="userSpaceOnUse" x="14" y="9" width="132" height="40">
<path d="M14.5355 9.84372V48.4277H145.238V9.84372" fill="white"/>
</mask>
<g mask="url(#mask0_17040_10296)">
<path d="M137.833 20.7553H137.897C139.196 17.8511 140.651 16.4892 142.339 16.4892C143.214 16.4892 143.968 16.8226 145.238 17.7618L144.034 21.6308C142.884 20.9056 142.129 20.6023 141.435 20.6023C139.829 20.6023 138.801 22.1163 137.833 24.6756V30.6953H133.45V16.7448H137.833V20.7553Z" fill="#009E4D"/>
<path d="M98.5307 10.8898C98.9419 11.974 98.2018 13.4862 96.8832 14.2645C95.5593 15.0418 94.1603 14.7951 93.7526 13.7109C93.337 12.6249 94.0736 11.1109 95.3957 10.3371C96.7161 9.55532 98.116 9.80294 98.5307 10.8898Z" fill="#009E4D"/>
</g>
<path d="M59.8999 21.833C59.8999 18.0516 57.33 16.5031 54.7937 16.5031C53.0692 16.5031 51.6516 17.2309 50.3835 18.836H50.3233V10.1022H45.9414V30.6738H50.3233V21.833C51.3483 20.35 52.2238 19.7159 53.2505 19.7159C54.6133 19.7159 55.5189 20.6851 55.5189 22.7695V27.6715C56.9886 26.9162 58.4823 26.4528 59.8999 26.2804V21.833Z" fill="#009E4D"/>
<path d="M70.8907 16.4991C69.1061 16.4991 67.7433 17.1624 66.3487 18.7577V16.7609H61.9685V26.2437C63.486 26.3949 65.4219 27.0909 66.3487 28.2406V21.7238C67.5001 19.9958 68.3172 19.4201 69.4067 19.4201C70.6475 19.4201 71.5902 20.239 71.5902 22.2067V30.6787H75.9713V21.8441C75.9713 17.7345 73.0688 16.4991 70.8907 16.4991Z" fill="#009E4D"/>
<path d="M78.3908 34.6854H73.3005V38.3024H78.2113V39.8544H73.3005V43.5855H78.5429V45.1357H71.5938V33.1369H78.3908V34.6854Z" fill="#009E4D"/>
<path d="M82.548 45.1426H84.1072V33.1332H82.548V45.1426Z" fill="#009E4D"/>
<path d="M91.8267 38.416C92.9321 38.416 93.6175 39.1774 93.6688 40.374H89.6981C89.913 39.1244 90.6319 38.416 91.8267 38.416ZM89.6698 41.4148H95.2244C95.2244 38.4868 93.8863 37.0736 91.7913 37.0736C89.6176 37.0736 88.108 38.6804 88.108 41.077C88.108 43.2675 89.4717 45.29 91.9266 45.29C93.2646 45.29 94.1295 44.9929 95.0873 44.3571V42.8395C94.1623 43.4453 93.2647 43.7946 92.3202 43.7946C90.8097 43.7946 89.913 42.9845 89.6698 41.4148Z" fill="#009E4D"/>
<path d="M105.406 39.3021C104.509 38.6884 103.91 38.508 103.228 38.508C101.8 38.508 100.812 39.6028 100.812 41.2061C100.812 42.8395 101.864 43.8238 103.489 43.8238C104.157 43.8238 104.794 43.6505 105.58 43.2985V44.8364C105.055 45.084 104.054 45.29 103.228 45.29C100.866 45.29 99.2278 43.6664 99.2278 41.3459C99.2278 38.7273 100.725 37.0736 103.121 37.0736C104.036 37.0736 104.651 37.2867 105.406 37.6183V39.3021Z" fill="#009E4D"/>
<path d="M112.51 37.2248H115.012V38.63H112.51V42.6909C112.51 43.6204 113.183 43.8892 113.637 43.8892C114.201 43.8892 114.783 43.692 115.415 43.302V44.7647C114.867 45.0663 114.027 45.29 113.513 45.29C111.815 45.29 110.956 44.2359 110.956 42.8086V38.63H109.581V38.4558L112.51 35.5896V37.2248Z" fill="#009E4D"/>
<path d="M120.975 37.225V39.0565H121.006C121.801 37.6548 122.558 37.0738 123.293 37.0738C123.928 37.0738 124.523 37.3718 125.176 37.99L124.35 39.3643C123.875 38.8947 123.261 38.571 122.891 38.571C121.817 38.571 120.975 39.6623 120.975 41.0145V45.1426H119.417V37.225H120.975Z" fill="#009E4D"/>
<path d="M141.154 39.3021C140.252 38.6884 139.655 38.508 138.968 38.508C137.544 38.508 136.563 39.6028 136.563 41.2061C136.563 42.8395 137.616 43.8238 139.231 43.8238C139.9 43.8238 140.534 43.6505 141.33 43.2985V44.8364C140.794 45.084 139.792 45.29 138.968 45.29C136.61 45.29 134.964 43.6664 134.964 41.3459C134.964 38.7273 136.468 37.0736 138.864 37.0736C139.781 37.0736 140.39 37.2867 141.154 37.6183V39.3021Z" fill="#009E4D"/>
<path d="M129.31 45.1426H130.869V37.2253H129.31V45.1426Z" fill="#009E4D"/>
<mask id="mask1_17040_10296" style="mask-type:luminance" maskUnits="userSpaceOnUse" x="14" y="9" width="132" height="40">
<path d="M14.5355 9.84372V48.4277H145.238V9.84372" fill="white"/>
</mask>
<g mask="url(#mask1_17040_10296)">
<path d="M130.921 34.3801C131.073 34.7622 130.807 35.3025 130.338 35.5776C129.866 35.8535 129.366 35.765 129.224 35.3821C129.081 34.9957 129.34 34.4597 129.814 34.1838C130.281 33.9044 130.778 33.9937 130.921 34.3801Z" fill="#009E4D"/>
<path d="M61.1309 35.0205C60.8559 35.0205 60.7401 35.0656 60.6278 35.1912C60.5835 35.2398 60.5658 35.2894 60.5499 35.3884L59.1518 40.691C58.8237 42.5507 56.5394 44.4079 53.5618 44.4079H49.4222L50.1403 41.6832H52.7995C53.071 41.6832 53.2833 41.5824 53.461 41.3843C53.5265 41.3073 53.6114 41.1871 53.6229 41.0633L54.7265 36.4302C55.0519 34.5695 57.0179 32.5143 59.9946 32.5143H64.2341L63.692 35.0205H61.1309ZM62.086 38.2519L62.5592 36.5363H66.8659C67.3974 34.0486 66.9791 31.744 65.4696 30.2344C62.4141 27.179 56.0221 28.2173 51.2599 32.7734C50.5161 33.4809 49.8882 34.2458 49.3161 35.0276H51.909L51.3058 36.7468H48.208C47.9117 37.2889 47.634 37.8266 47.4218 38.3722H51.0954L50.5073 40.0914H46.8974C46.2801 42.7179 46.6736 45.1675 48.2266 46.7231C51.2439 49.7396 57.6165 48.6792 62.3761 44.124C63.2091 43.3316 63.8972 42.4764 64.5189 41.5983H61.1875L61.6952 39.8827H65.5898C65.8755 39.337 66.1381 38.7976 66.3433 38.2519H62.086Z" fill="#009E4D"/>
</g>
</svg>
