<svg width="160" height="58" viewBox="0 0 160 58" fill="none" xmlns="http://www.w3.org/2000/svg">
<path d="M12.8272 20.2158L12.2136 22.6086H17.8991L15.8131 30.9528L14.2792 37.1087H18.0014L19.5352 30.9528L21.6213 22.6086H27.2863L27.8794 20.2158H12.8272ZM126.455 20.3999C126.153 21.6433 125.874 22.6135 125.596 23.4471H124.206L124.656 23.1608C125.431 22.6577 125.813 22.3992 125.821 22.3632C125.407 21.4282 125.057 20.7827 124.737 20.4612C124.728 20.4031 124.138 20.7639 122.999 21.5043L122.61 21.7497C122.619 21.7677 122.665 21.8372 122.754 21.9542C123.154 22.4753 123.493 22.9661 123.756 23.4471H122.61L122.242 25.1651H124.819L124.635 25.5127L124.451 25.8604H121.67L121.322 27.5783H123.244C122.424 28.5796 121.448 29.3838 120.32 29.9916L122.12 21.402H117.15L115.289 30.2779C115.239 30.5102 115.182 30.7311 115.125 30.9528C114.692 32.6699 114.049 34.2103 113.182 35.5748C113.707 36.0387 114.135 36.536 114.491 37.0678C115.533 35.5822 116.351 33.6802 116.966 31.3414H118.05L117.436 34.2455C117.388 34.6431 116.984 34.8222 116.25 34.7568C116.403 35.4677 116.468 36.1794 116.414 36.9246C118.185 36.9132 119.079 36.514 119.113 35.6975L120.115 30.9528L120.177 30.6256C120.287 30.736 120.39 30.8448 120.483 30.9528C120.722 31.2342 120.908 31.5107 121.036 31.7913C121.307 31.6572 121.629 31.451 121.997 31.1369L121.342 33.2638H127.294L127.191 33.816C126.956 34.9646 126.625 35.5225 126.21 35.4521L126.537 33.816H120.156L119.788 35.5135H124.983C125.28 36.154 125.406 36.8101 125.351 37.4973C127.008 37.4433 128.023 37.188 128.419 36.7201C128.542 36.5835 128.672 36.3463 128.807 35.943C129.078 35.1323 129.395 33.9469 129.789 32.3844L130.014 31.4846H127.805L127.928 30.9528L128.091 30.1348C128.484 30.4783 128.832 30.7458 129.134 30.9528C129.358 31.1058 129.555 31.2228 129.727 31.3005C129.822 31.1819 129.92 31.0649 130.014 30.9528C130.583 30.2616 131.124 29.6856 131.629 29.2144C130.296 28.8349 129.319 28.29 128.705 27.5783H131.629L131.977 25.8604H126.721C126.862 25.6543 126.993 25.4326 127.089 25.1651H131.425L131.773 23.4471H130.218C130.897 22.7837 131.494 22.2381 132.038 21.811L130.218 20.6862C129.635 21.4306 129.006 22.1554 128.316 22.8541L129.421 23.5289H127.846L128.071 22.8132L128.357 22.0974C128.596 21.4944 128.792 21.0363 128.93 20.7476C128.943 20.6289 128.865 20.5692 128.623 20.543C128.164 20.4711 127.443 20.4236 126.455 20.3999ZM137.458 20.543C136.903 20.7271 136.041 21.0633 134.84 21.5656C135.218 22.643 135.491 23.7179 135.679 24.7969C136.103 24.6358 137.025 24.3192 138.419 23.8153C137.838 21.721 137.505 20.6257 137.458 20.543ZM139.483 21.4634L139.053 23.4471H140.689L139.912 27.1489H137.867L137.438 29.1326H139.503L139.115 30.9528L137.867 36.8633H140.158L141.385 30.9528L141.773 29.1326H143.409L143.082 30.6256C143.059 30.736 143.041 30.844 143.021 30.9528C142.602 33.146 142.817 34.8615 143.655 36.0861C144.165 36.8117 144.781 37.1185 145.516 37.0064C146.277 37.0457 147.038 35.8178 147.786 33.3252C147.105 33.016 146.479 32.7435 145.925 32.5071C145.554 33.6491 145.323 34.0197 145.23 33.6115C145.083 33.029 145.113 32.1431 145.311 30.9528C145.375 30.5683 145.457 30.1552 145.557 29.7053L147.295 21.4634H139.483ZM105.513 21.6679L104.736 24.8174H101.75L101.177 27.1489H112.098L105.513 21.6679ZM118.684 23.1608H119.768L119.256 25.5945H118.193L118.684 23.1608ZM142.96 23.4471H144.677L143.9 27.1489H142.182L142.96 23.4471ZM32.1538 24.122C29.8845 24.122 27.9162 24.7151 26.2433 25.9013C24.5794 27.1047 23.4987 28.6811 23.012 30.6256C22.9834 30.7393 22.9531 30.8416 22.9302 30.9528C22.5563 32.7583 22.8876 34.2308 23.9323 35.3499C25.0457 36.5279 26.7636 37.1087 29.086 37.1087C33.0446 37.1087 36.0788 34.6938 36.3872 34.4296L34.6693 34.041C34.2652 34.1342 32.0646 34.7715 29.8632 34.5727C27.0859 34.3232 26.456 32.2895 26.6114 31.28H37.7574L37.8597 30.9528L37.9415 30.6051C38.4471 28.578 38.1796 26.9836 37.1439 25.84C36.1001 24.6865 34.4459 24.122 32.1538 24.122ZM65.1828 24.122C62.7949 24.122 60.6352 24.7413 58.6792 26.0036C56.72 27.2667 55.5183 28.8316 55.0593 30.6665C55.034 30.7671 54.9972 30.8538 54.9775 30.9528C54.6348 32.656 55.0888 34.0966 56.3273 35.2681C57.6411 36.4968 59.5006 37.1087 61.9106 37.1087C63.3708 37.1087 64.903 36.806 66.5121 36.2088L67.4529 32.4662C66.3829 33.29 65.4855 33.8373 64.7738 34.1228C64.0391 34.4173 63.2448 34.5727 62.3809 34.5727C61.0271 34.5727 60.0029 34.2095 59.3132 33.4683C58.703 32.8008 58.4845 31.9533 58.6588 30.9528C58.6784 30.8424 58.712 30.7393 58.7406 30.6256C59.0228 29.4983 59.7018 28.551 60.7857 27.8033C61.8672 27.0556 63.0918 26.6785 64.4465 26.6785C65.3096 26.6785 66.0082 26.8249 66.5735 27.1284C67.1494 27.4221 67.7531 27.9735 68.3732 28.7645L69.314 24.981C68.0943 24.401 66.7183 24.122 65.1828 24.122ZM78.6603 24.122C76.3902 24.122 74.4219 24.7151 72.7498 25.9013C71.0851 27.1047 70.0044 28.6811 69.5185 30.6256C69.4899 30.7393 69.4604 30.8416 69.4367 30.9528C69.062 32.7583 69.3925 34.2308 70.4388 35.3499C71.5505 36.5279 73.2709 37.1087 75.5926 37.1087C79.5495 37.1087 82.5861 34.6938 82.8937 34.4296L81.1758 34.041C80.7717 34.1342 78.5711 34.7715 76.3697 34.5727C73.5932 34.3232 72.9609 32.2895 73.1179 31.28H84.264L84.3662 30.9528L84.448 30.6051C84.9552 28.578 84.7049 26.9836 83.6709 25.84C82.627 24.6865 80.9533 24.122 78.6603 24.122ZM49.6602 24.4697C48.083 24.4697 46.5409 24.9573 45.0381 25.9422L41.7046 24.8174L40.1707 30.9528L38.6369 37.1087H42.2568L43.7293 31.1778C43.7481 31.1017 43.7718 31.0215 43.7906 30.9528C44.1669 29.5392 44.6716 28.5314 45.2835 27.9465C45.9396 27.3247 46.8509 27.0261 48.0445 27.0261C49.1423 27.0261 49.8532 27.2495 50.151 27.7215C50.461 28.1829 50.4545 29.0255 50.151 30.237L49.9874 30.9528L48.433 37.1087H52.0529L53.5868 30.9528L53.9345 29.5621C54.3689 27.8287 54.2494 26.5877 53.5664 25.8195C52.7786 24.9196 51.473 24.4697 49.6602 24.4697ZM95.8599 24.4697C94.2819 24.4697 92.7423 24.9573 91.2379 25.9422L87.9043 24.8174L86.3705 30.9528L84.8366 37.1087H88.4565L89.929 31.1778C89.9486 31.1017 89.9708 31.0215 89.9903 30.9528C90.3683 29.5392 90.8697 28.5314 91.4833 27.9465C92.1402 27.3247 93.049 27.0261 94.2442 27.0261C95.3412 27.0261 96.0521 27.2495 96.3507 27.7215C96.6599 28.1829 96.6542 29.0255 96.3507 30.237L96.1667 30.9528L94.6328 37.1087H98.2527L99.7866 30.9528L100.134 29.5621C100.569 27.8287 100.448 26.5877 99.7661 25.8195C98.9791 24.9196 97.6711 24.4697 95.8599 24.4697ZM132.611 25.7582L132.182 27.7624H134.206L133.531 30.9528L133.102 33.0798C133.009 33.5248 132.653 33.9886 132.038 34.4909C131.858 34.6398 131.746 34.7355 131.732 34.7772C131.957 35.4816 132.358 36.1687 132.918 36.8019C132.961 36.8134 133.201 36.6023 133.613 36.1884C134.228 35.5364 135.789 34.0991 138.317 31.8731C138.309 31.8445 138.17 31.5459 137.908 30.9937L137.888 30.9528L137.519 30.1348L137.11 30.4824C136.914 30.655 136.724 30.8137 136.558 30.9528C136.117 31.3357 135.781 31.6163 135.556 31.7913L135.74 30.9528L136.824 25.7582H132.611ZM31.5811 26.6785C33.5003 26.6785 34.5261 27.4327 34.6488 28.9486H27.4295C27.634 28.5952 27.8712 28.2859 28.1657 28.0078C28.4578 27.7313 28.7875 27.4851 29.1474 27.292C29.5172 27.0891 29.9041 26.9435 30.3131 26.8421C30.7238 26.7325 31.1443 26.6785 31.5811 26.6785ZM78.0876 26.6785C80.0068 26.6785 81.0343 27.4327 81.1553 28.9486H73.936C74.1421 28.5952 74.3802 28.2859 74.6722 28.0078C74.9659 27.7313 75.2981 27.4851 75.6539 27.292C76.0269 27.0891 76.4106 26.9435 76.8196 26.8421C77.2319 26.7325 77.65 26.6785 78.0876 26.6785ZM117.825 27.292H118.888L118.418 29.5621H117.354L117.825 27.292ZM125.658 27.5783H126.292C126.376 27.8213 126.493 28.0634 126.639 28.2941H125.085L125.371 27.926L125.658 27.5783ZM104.02 27.6806L103.202 30.9528L101.648 37.1087H105.247L106.801 30.9528L107.619 27.6806H104.02ZM123.449 29.9098H126.005L125.801 30.9528L125.658 31.5459H123.899C123.964 31.3267 124.023 31.1303 124.083 30.9528C124.151 30.7483 124.206 30.5741 124.267 30.4211C124.181 30.372 124.129 30.3393 124.083 30.3393H123.019L123.449 29.9098Z" fill="#006CB6"/>
</svg>
