<svg height="1975" viewBox="-129.40300000000002 -35.974 634.509 419.627" width="2500" xmlns="http://www.w3.org/2000/svg"><linearGradient id="a" gradientUnits="userSpaceOnUse" x1="130.803" x2="245.011" y1="29.696" y2="153.736"><stop offset="0" stop-color="#0186f5"/><stop offset=".132" stop-color="#0186f5"/><stop offset=".315" stop-color="#35c2b0"/><stop offset=".667" stop-color="#aad825"/><stop offset="1" stop-color="#fed700"/></linearGradient><linearGradient id="c" gradientUnits="userSpaceOnUse" x1="133.843" x2="259.928" y1="10.269" y2="12.689"><stop offset="0" stop-color="#0186f5"/><stop offset=".198" stop-color="#0186f5"/><stop offset="1" stop-color="#3156fd"/></linearGradient><linearGradient id="d" gradientUnits="userSpaceOnUse" x1="266.831" x2="278.453" y1="57.721" y2="34.79"><stop offset="0" stop-color="#8434d5"/><stop offset=".854" stop-color="#3156fd"/><stop offset="1" stop-color="#3156fd"/></linearGradient><linearGradient id="e" gradientUnits="userSpaceOnUse" x1="253.89" x2="157.083" y1="70.504" y2="75.09"><stop offset="0" stop-color="#8434d5"/><stop offset="1" stop-color="#fe0201"/></linearGradient><linearGradient id="b" gradientUnits="userSpaceOnUse" x1="37.045" x2="37.983" y1="162.185" y2="84.34"><stop offset="0" stop-color="#ff7f00"/><stop offset="1" stop-color="#fe0201"/></linearGradient><path d="M124.96-5.779C111.301 5.105 98.206 19.514 90.604 35.28c-15.624 32.404-6.964 62.187-.267 81.517 9.119 26.32 27.586 39.61 49.596 49.315 31.381 13.839 70.828 14.77 106.646 5.52 12.626-3.26 32.23-10.04 36.508-16.365 4.632-6.848 5.36-20.091-4.592-25.909-9.705-5.673-10.647-1.34-39.556 5.079-20.12 4.467-42.089 5.243-68.476-6.148-16.642-7.183-27.903-18.207-31.75-33.275-11.035-43.22 12.805-59.25 17.456-62.181z" fill="url(#a)" transform="translate(179.413 96.428)"/><path d="M157.844 45.108c-12.424-1.646-48.869-5.508-86.998-12.273C11.842 22.366-57.526 7.847-79.674 6.297c-42.622-2.982-49.729 52.389-15.704 61.86 19.27 5.364 72.297-.27 85.187 25.178 3.926 7.751 14.312 36.978 26.077 73.17 4.612 14.19 42.123 11.958 35.148-18.272-3.982-17.264-13.051-63.893-13.051-63.893s107.594 11.41 116.35 12.167z" fill="url(#b)" transform="translate(179.413 96.428)"/><path d="M214.501 16.631c13.663.363 37.437 3.872 48.144 11.035l59.706 11.766c.566-33.138-17.608-50.97-37.973-61.25-15.458-7.802-37.143-14.156-69.688-12.767-31.119 1.328-63.838 8.145-89.934 28.94l31.19 38.678c14.716-9.272 33.21-17.075 58.555-16.402z" fill="url(#c)" transform="translate(179.413 96.428)"/><path d="M261.693 27.056s3.144 2.014 4.51 3.262c6.503 5.94 8.656 13.038-11.072 16.302l15.605 48.25c35.503-9.513 51.169-30.462 51.606-56.039z" fill="url(#d)" transform="translate(179.413 96.428)"/><path d="M255.72 46.537c-17.489 2.893-51.395 4.764-98.144-1.43l-3.511 51.4c75.915 6.567 102.612 2.088 117.26-1.837z" fill="url(#e)" transform="translate(179.413 96.428)"/><g fill="#fc0103" stroke-width=".369"><path d="M62.142 328.627c0 .91.716 1.61 1.575 1.61h14.319v38.241l9.438.034v-38.276h14.32c.858 0 1.574-.7 1.574-1.609v-5.907c0-.909-.716-1.609-1.575-1.609H63.717c-.86 0-1.575.7-1.575 1.61z"/><path d="M95.723 351.034c0 10.074 8.448 17.909 18.901 17.909 10.525 0 18.973-7.835 18.973-17.909 0-10.143-8.448-18.118-18.973-18.118-10.453 0-18.9 7.975-18.9 18.118zm10.453-.07c0-4.757 3.651-8.674 8.448-8.674 4.869 0 8.52 3.917 8.52 8.674s-3.651 8.605-8.52 8.605c-4.797 0-8.448-3.848-8.448-8.605zM139.77 358.349c0 7.765 5.942 10.913 11.956 10.913 4.081 0 8.259-.565 10.924-2.598 4.346-3.316.704-10.053-5.226-6.716-1.759.99-4.652.486-5.182.27-1.194-.484-3.27-.892-3.15-4.248v-14.669h8.751c6.711 0 6.626-8.464 0-8.464h-8.75V321.25l-9.323-.033v11.619h-4.582v8.464h4.582zM166.185 350.894c0 10.983 8.377 18.049 17.398 18.049 4.654 0 9.507-1.96 11.153-4.617v4.663l8.651-.033V337.35c0-6.186-8.473-5.884-8.473-.34-1.647-2.66-6.606-4.094-11.26-4.094-9.02 0-17.469 6.925-17.469 17.978zm10.453.07c0-4.757 3.652-8.674 8.52-8.674 4.869 0 8.52 3.917 8.52 8.674s-3.651 8.675-8.52 8.675c-4.868 0-8.52-3.918-8.52-8.675zM221.298 368.513v-43.217c0-5.48-9.78-5.303-9.78 0v43.214zM229.765 320.582c-.93 0-1.575.7-1.575 1.54v44.761c0 .91.644 1.61 1.575 1.61h31.662l.034-9.654h-22.532v-9.155h17.666c.93 0 1.575-.77 1.575-1.61v-6.155c0-.91-.645-1.61-1.575-1.61h-17.666v-10.073h20.356c.93 0 1.646-.7 1.646-1.609v-6.436c0-.91-.716-1.609-1.646-1.609zM293.348 367.093c0 .84.788 1.4 1.575 1.4h6.173c.788 0 1.575-.56 1.575-1.4v-18.887c0-8.325-4.801-15.848-14.037-15.848-5.441 0-10.691 1.598-12.767 4.047 0-5.017-8.193-5.235-8.193-.442v32.572l9.25.034v-19.223c0-11.857 16.424-9.965 16.424 0zM368.952 332.063c-5.095 0-9.263 3.021-11.196 6.03v-2.27c0-4.223-7.763-4.67-7.763.15v32.42l9.123.118v-16.528c0-4.976 3.34-10.466 6.93-11.05l3.699-.6c5.892 0 4.946-8.27-.793-8.27zM393.367 375.112c-4.725 0-9.238-.265-11.66-1.61-5.8-3.221-9.229 3.854-5.613 5.942 4.885 2.82 7.322 4.209 16.486 4.209 11.741 0 18.11-6.495 18.11-16.01v-31.68c0-4.177-8.122-4.66-8.122-.529v2.169c-1.718-2.658-6.642-4.158-11.368-4.158-9.02 0-17.183 6.856-17.183 17.699s8.09 17.558 17.613 17.558c4.582 0 8.305-1.958 9.88-4.337v2.93c0 4.546-2.63 7.817-8.143 7.817zm-8.897-23.968c0-4.757 3.652-8.465 8.449-8.465 4.868 0 8.52 3.708 8.52 8.465 0 4.826-3.652 8.464-8.52 8.464-4.797 0-8.449-3.638-8.449-8.464z"/><path d="M423.077 328.664c3.05 0 5.58-2.603 5.58-5.66 0-3.123-2.53-5.726-5.58-5.726-3.114 0-5.645 2.603-5.645 5.726 0 3.057 2.53 5.66 5.645 5.66zm3.245 39.828c.778 0 1.362-.65 1.362-1.43v-29.35c0-6.195-9.343-6.193-9.343 0v29.35c0 .78.649 1.43 1.427 1.43z" stroke-width=".338"/><path d="M451.975 332.315c-10.951 0-18.836 8.4-18.836 18.829 0 10.428 7.739 18.467 18.982 18.467 7.811 0 12.435-2.307 15.356-6.073 1.78-3.085-2.406-6.853-6.141-4.696-3.308 2.24-5.565 1.934-8.996 1.934-4.161 0-7.812-2.825-8.323-7.242h23.326c1.46 0 1.825-.797 1.825-1.666v-1.955c0-9.053-5.95-17.598-17.193-17.598zm7.884 14.7h-15.623c1.022-3.91 4.235-6.3 7.812-6.3 3.431 0 6.862 2.028 7.811 6.3z" stroke-width=".379"/><path d="M488.195 332.042c-9.588 0-15.534 5.087-15.534 11.556 0 5.742 3.94 9.303 9.81 10.466l5.947 1.235c3.418.654 5.202 1.381 5.202 3.125 0 1.527-1.635 2.98-4.98 2.98-3.567 0-7.267-.663-9.571-2.625-5.108-2.652-9.645 2.948-4.55 6.768 2.973 2.035 7.655 3.925 13.75 3.925 9.885 0 16.351-5.16 16.351-11.992 0-6.614-5.054-9.521-11.223-10.684l-5.723-1.09c-3.047-.582-4.162-1.527-4.162-2.908 0-1.453 1.858-2.616 4.683-2.616 3.047 0 5.619.312 7.849 1.765 4.474 2.584 9.062-2.926 4.899-6.401-2.23-1.963-5.54-3.504-12.748-3.504z" stroke-width=".383"/><path d="M327.092 332.315c-10.951 0-18.836 8.4-18.836 18.829 0 10.428 7.739 18.467 18.982 18.467 7.811 0 12.435-2.307 15.355-6.073 1.781-3.085-2.405-6.853-6.14-4.696-3.308 2.24-5.565 1.934-8.996 1.934-4.162 0-7.812-2.825-8.323-7.242h23.325c1.46 0 1.826-.797 1.826-1.666v-1.955c0-9.053-5.95-17.598-17.193-17.598zm7.884 14.7h-15.623c1.022-3.91 4.234-6.3 7.812-6.3 3.43 0 6.862 2.028 7.811 6.3z"/></g></svg>