<svg width="160" height="58" viewBox="0 0 160 58" fill="none" xmlns="http://www.w3.org/2000/svg">
<g clip-path="url(#clip0_17040_10054)">
<path d="M19.5525 31.8755H14.7179V26.9814H19.5525V31.8755ZM14.7179 15.7246V24.0452H16.1685V23.8009C16.1685 19.8858 18.344 17.4383 22.4537 17.4383H22.6951V35.0577C22.6951 37.5052 21.728 38.4833 19.3111 38.4833H18.5862V40.1961H31.1567V38.4833H30.4318C28.0141 38.4833 27.0478 37.5043 27.0478 35.0577V17.4374H27.2892C31.3989 17.4374 33.5744 19.8849 33.5744 23.8001V24.0444H35.025V15.7246H14.7179ZM30.1896 31.8755H35.0242V26.9814H30.1896V31.8755Z" fill="black"/>
<path d="M44.3172 32.207H48.2257C48.5438 33.8482 49.6157 34.4931 51.063 34.4931C52.7131 34.4931 53.5532 33.5555 53.5532 32.2951C53.5532 31.0346 52.7421 30.3897 51.2369 29.9797L49.0077 29.3348C45.9393 28.4853 44.6942 26.2286 44.6942 23.8251C44.6942 20.1033 47.4445 17.6999 51.0348 17.6999C54.9432 17.6999 57.0565 20.0153 57.4326 23.6196H53.6111C53.3792 22.1546 52.54 21.4216 51.0348 21.4216C49.7027 21.4216 48.6896 22.2426 48.6896 23.5609C48.6896 24.8792 49.5867 25.3782 50.6579 25.6709L52.8871 26.2864C55.7824 27.0487 57.5486 29.2174 57.5486 32.0603C57.5486 35.9875 54.6823 38.2148 51.0638 38.2148C47.0684 38.2148 44.666 36.0755 44.3181 32.207H44.3172Z" fill="black"/>
<path d="M68.3468 23.6196H72.3423L66.8996 39.2698C66.1466 41.4091 64.6994 42.8457 62.3252 42.8457C61.6011 42.8457 60.791 42.7576 60.0669 42.4649V39.4459C60.501 39.5633 61.0511 39.622 61.6011 39.622C62.5273 39.622 63.0773 39.2707 63.5123 38.0689L63.8304 37.2194L58.7928 23.6205H62.7882L65.5096 32.1785H65.6835L68.3468 23.6205V23.6196Z" fill="black"/>
<path d="M73.1772 33.7308H76.6515C76.8545 34.7564 77.5197 35.1958 78.5047 35.1958C79.4897 35.1958 80.1259 34.6977 80.1259 33.8767C80.1259 33.0557 79.4888 32.6456 78.5627 32.3823L76.6515 31.8841C74.6252 31.3273 73.3511 30.0375 73.3511 27.5762C73.3511 25.1149 75.3194 23.1802 78.5047 23.1802C81.458 23.1802 83.4262 24.8801 83.7162 27.723H80.1259C79.9809 26.6973 79.4308 26.1992 78.5047 26.1992C77.5785 26.1992 76.9995 26.7854 76.9995 27.5184C76.9995 28.2513 77.4335 28.6614 78.2446 28.8375L80.1267 29.3356C82.5009 29.9512 83.7452 31.3869 83.7452 33.5849C83.7452 36.3984 81.7189 38.2157 78.5047 38.2157C75.2904 38.2157 73.4091 36.5452 73.178 33.7316L73.1772 33.7308Z" fill="black"/>
<path d="M88.0144 33.584V26.8432H85.6401V23.6196H88.0144V21.3336L91.0538 18.4907H91.7488V23.6196H95.3101V26.8432H91.7488V33.1152C91.7488 34.1702 92.3569 34.727 93.428 34.727C93.9781 34.727 94.5281 34.639 95.0202 34.5216V37.4819C94.2382 37.8333 93.399 37.98 92.3569 37.98C89.7805 37.98 88.0144 36.4563 88.0144 33.584Z" fill="black"/>
<path d="M109.374 31.5915H100.631C100.834 34.2583 101.905 35.0206 103.323 35.0206C104.452 35.0206 105.205 34.5811 105.552 33.7014H109.316C108.766 36.4856 106.392 38.2148 103.323 38.2148C99.5887 38.2148 97.0695 35.4894 97.0695 30.6824C97.0695 25.8755 99.5017 23.15 103.41 23.15C107.058 23.15 109.432 25.9635 109.432 30.2715C109.432 30.7696 109.432 31.2677 109.374 31.5906V31.5915ZM100.747 28.866H105.9C105.639 26.9607 104.655 26.3451 103.41 26.3451C102.049 26.3451 101.094 26.9607 100.747 28.866Z" fill="black"/>
<path d="M131.97 28.3972V37.7461H128.235V28.866C128.235 27.4881 127.743 26.6093 126.411 26.6093C124.964 26.6093 124.008 27.6936 124.008 29.4522V37.7461H120.274V28.866C120.274 27.4881 119.782 26.6093 118.449 26.6093C117.031 26.6093 116.075 27.723 116.075 29.4522V37.7461H112.341V23.6196H115.844V25.3488H116.018C116.742 23.971 118.073 23.1508 119.753 23.1508C121.635 23.1508 122.879 23.9132 123.487 25.4076H123.661C124.443 23.9425 125.919 23.1508 127.714 23.1508C130.552 23.1508 131.97 24.9388 131.97 28.3972Z" fill="black"/>
<path d="M134.715 33.7308H138.189C138.392 34.7564 139.058 35.1958 140.043 35.1958C141.028 35.1958 141.664 34.6977 141.664 33.8767C141.664 33.0557 141.027 32.6456 140.101 32.3823L138.189 31.8841C136.163 31.3273 134.889 30.0375 134.889 27.5762C134.889 25.1149 136.857 23.1802 140.043 23.1802C142.996 23.1802 144.964 24.8801 145.254 27.723H141.664C141.519 26.6973 140.969 26.1992 140.043 26.1992C139.116 26.1992 138.537 26.7854 138.537 27.5184C138.537 28.2513 138.971 28.6614 139.782 28.8375L141.665 29.3356C144.039 29.9512 145.283 31.3869 145.283 33.5849C145.283 36.3984 143.257 38.2157 140.043 38.2157C136.828 38.2157 134.947 36.5452 134.716 33.7316L134.715 33.7308Z" fill="black"/>
</g>
<defs>
<clipPath id="clip0_17040_10054">
<rect width="130.564" height="27.1202" fill="white" transform="translate(14.7179 15.7246)"/>
</clipPath>
</defs>
</svg>
