<svg width="129" height="142" viewBox="0 0 129 142" fill="none" xmlns="http://www.w3.org/2000/svg">
<path d="M43.52 128.765C81.61 96.1253 128.76 101.565 128.76 101.565C128.76 101.565 121.9 89.5053 112.83 73.7053H61.83C61.3923 75.2356 60.4163 76.5562 59.0818 77.4238C57.7474 78.2913 56.1444 78.6474 54.5681 78.4264C52.9918 78.2054 51.5485 77.4222 50.5041 76.2211C49.4597 75.0201 48.8845 73.482 48.8845 71.8903C48.8845 70.2987 49.4597 68.7606 50.5041 67.5595C51.5485 66.3584 52.9918 65.5753 54.5681 65.3543C56.1444 65.1333 57.7474 65.4893 59.0818 66.3569C60.4163 67.2244 61.3923 68.545 61.83 70.0753H110.71C93.49 40.0553 69.92 -0.534668 68.91 0.005332C1.81001 36.2853 0 81.6153 0 81.6153L5.49 90.6853H66.23C66.6677 89.155 67.6437 87.8344 68.9782 86.9669C70.3126 86.0993 71.9156 85.7433 73.4919 85.9643C75.0682 86.1853 76.5115 86.9684 77.5559 88.1695C78.6003 89.3706 79.1755 90.9087 79.1755 92.5003C79.1755 94.092 78.6003 95.6301 77.5559 96.8311C76.5115 98.0322 75.0682 98.8154 73.4919 99.0364C71.9156 99.2574 70.3126 98.9013 68.9782 98.0338C67.6437 97.1662 66.6677 95.8456 66.23 94.3153H7.69L36.27 141.465C76.17 107.005 128.76 119.705 128.76 117.885V112.445C87.05 103.385 43.52 128.765 43.52 128.765Z" fill="#FBC170"/>
</svg>
