<svg width="1720" height="815" viewBox="0 0 1720 815" fill="none" xmlns="http://www.w3.org/2000/svg">
<g clip-path="url(#clip0_21075_9482)">
<rect width="1720" height="815" fill="#F4F4F4"/>
<mask id="mask0_21075_9482" style="mask-type:alpha" maskUnits="userSpaceOnUse" x="0" y="-6" width="1721" height="1217">
<g opacity="0.12">
<rect x="0.452882" y="-5.00122" width="85.9549" height="85.9549" stroke="white" stroke-width="0.904788"/>
<rect x="86.4075" y="-5.00122" width="85.9549" height="85.9549" stroke="white" stroke-width="0.904788"/>
<rect x="172.363" y="-5.00122" width="85.9549" height="85.9549" stroke="white" stroke-width="0.904788"/>
<rect x="258.317" y="-5.00122" width="85.9549" height="85.9549" stroke="white" stroke-width="0.904788"/>
<rect x="344.272" y="-5.00122" width="85.9549" height="85.9549" stroke="white" stroke-width="0.904788"/>
<rect x="430.227" y="-5.00122" width="85.9549" height="85.9549" stroke="white" stroke-width="0.904788"/>
<rect x="516.181" y="-5.00122" width="85.9549" height="85.9549" stroke="white" stroke-width="0.904788"/>
<rect x="602.136" y="-5.00122" width="85.9549" height="85.9549" stroke="white" stroke-width="0.904788"/>
<rect x="688.091" y="-5.00122" width="85.9549" height="85.9549" stroke="white" stroke-width="0.904788"/>
<rect x="774.046" y="-5.00122" width="85.9549" height="85.9549" stroke="white" stroke-width="0.904788"/>
<rect x="860.001" y="-5.00122" width="85.9549" height="85.9549" stroke="white" stroke-width="0.904788"/>
<rect x="945.955" y="-5.00122" width="85.9549" height="85.9549" stroke="white" stroke-width="0.904788"/>
<rect x="1031.91" y="-5.00122" width="85.9549" height="85.9549" stroke="white" stroke-width="0.904788"/>
<rect x="1117.86" y="-5.00122" width="85.9549" height="85.9549" stroke="white" stroke-width="0.904788"/>
<rect x="1203.82" y="-5.00122" width="85.9549" height="85.9549" stroke="white" stroke-width="0.904788"/>
<rect x="1289.77" y="-5.00122" width="85.9549" height="85.9549" stroke="white" stroke-width="0.904788"/>
<rect x="1375.73" y="-5.00122" width="85.9549" height="85.9549" stroke="white" stroke-width="0.904788"/>
<rect x="1461.68" y="-5.00122" width="85.9549" height="85.9549" stroke="white" stroke-width="0.904788"/>
<rect x="1547.64" y="-5.00122" width="85.9549" height="85.9549" stroke="white" stroke-width="0.904788"/>
<rect x="1633.59" y="-5.00122" width="85.9549" height="85.9549" stroke="white" stroke-width="0.904788"/>
<rect x="0.452882" y="81.8584" width="85.9549" height="85.9549" stroke="white" stroke-width="0.904788"/>
<rect x="86.4075" y="81.8584" width="85.9549" height="85.9549" stroke="white" stroke-width="0.904788"/>
<rect x="172.363" y="81.8584" width="85.9549" height="85.9549" stroke="white" stroke-width="0.904788"/>
<rect x="258.317" y="81.8584" width="85.9549" height="85.9549" stroke="white" stroke-width="0.904788"/>
<rect x="344.272" y="81.8584" width="85.9549" height="85.9549" stroke="white" stroke-width="0.904788"/>
<rect x="430.227" y="81.8584" width="85.9549" height="85.9549" stroke="white" stroke-width="0.904788"/>
<rect x="516.181" y="81.8584" width="85.9549" height="85.9549" stroke="white" stroke-width="0.904788"/>
<rect x="602.136" y="81.8584" width="85.9549" height="85.9549" stroke="white" stroke-width="0.904788"/>
<rect x="688.091" y="81.8584" width="85.9549" height="85.9549" stroke="white" stroke-width="0.904788"/>
<rect x="774.046" y="81.8584" width="85.9549" height="85.9549" stroke="white" stroke-width="0.904788"/>
<rect x="860.001" y="81.8584" width="85.9549" height="85.9549" stroke="white" stroke-width="0.904788"/>
<rect x="945.955" y="81.8584" width="85.9549" height="85.9549" stroke="white" stroke-width="0.904788"/>
<rect x="1031.91" y="81.8584" width="85.9549" height="85.9549" stroke="white" stroke-width="0.904788"/>
<rect x="1117.86" y="81.8584" width="85.9549" height="85.9549" stroke="white" stroke-width="0.904788"/>
<rect x="1203.82" y="81.8584" width="85.9549" height="85.9549" stroke="white" stroke-width="0.904788"/>
<rect x="1289.77" y="81.8584" width="85.9549" height="85.9549" stroke="white" stroke-width="0.904788"/>
<rect x="1375.73" y="81.8584" width="85.9549" height="85.9549" stroke="white" stroke-width="0.904788"/>
<rect x="1461.68" y="81.8584" width="85.9549" height="85.9549" stroke="white" stroke-width="0.904788"/>
<rect x="1547.64" y="81.8584" width="85.9549" height="85.9549" stroke="white" stroke-width="0.904788"/>
<rect x="1633.59" y="81.8584" width="85.9549" height="85.9549" stroke="white" stroke-width="0.904788"/>
<rect x="0.452882" y="168.718" width="85.9549" height="85.9549" stroke="white" stroke-width="0.904788"/>
<rect x="86.4075" y="168.718" width="85.9549" height="85.9549" stroke="white" stroke-width="0.904788"/>
<rect x="172.363" y="168.718" width="85.9549" height="85.9549" stroke="white" stroke-width="0.904788"/>
<rect x="258.317" y="168.718" width="85.9549" height="85.9549" stroke="white" stroke-width="0.904788"/>
<rect x="344.272" y="168.718" width="85.9549" height="85.9549" stroke="white" stroke-width="0.904788"/>
<rect x="430.227" y="168.718" width="85.9549" height="85.9549" stroke="white" stroke-width="0.904788"/>
<rect x="516.181" y="168.718" width="85.9549" height="85.9549" stroke="white" stroke-width="0.904788"/>
<rect x="602.136" y="168.718" width="85.9549" height="85.9549" stroke="white" stroke-width="0.904788"/>
<rect x="688.091" y="168.718" width="85.9549" height="85.9549" stroke="white" stroke-width="0.904788"/>
<rect x="774.046" y="168.718" width="85.9549" height="85.9549" stroke="white" stroke-width="0.904788"/>
<rect x="860.001" y="168.718" width="85.9549" height="85.9549" stroke="white" stroke-width="0.904788"/>
<rect x="945.955" y="168.718" width="85.9549" height="85.9549" stroke="white" stroke-width="0.904788"/>
<rect x="1031.91" y="168.718" width="85.9549" height="85.9549" stroke="white" stroke-width="0.904788"/>
<rect x="1117.86" y="168.718" width="85.9549" height="85.9549" stroke="white" stroke-width="0.904788"/>
<rect x="1203.82" y="168.718" width="85.9549" height="85.9549" stroke="white" stroke-width="0.904788"/>
<rect x="1289.77" y="168.718" width="85.9549" height="85.9549" stroke="white" stroke-width="0.904788"/>
<rect x="1375.73" y="168.718" width="85.9549" height="85.9549" stroke="white" stroke-width="0.904788"/>
<rect x="1461.68" y="168.718" width="85.9549" height="85.9549" stroke="white" stroke-width="0.904788"/>
<rect x="1547.64" y="168.718" width="85.9549" height="85.9549" stroke="white" stroke-width="0.904788"/>
<rect x="1633.59" y="168.718" width="85.9549" height="85.9549" stroke="white" stroke-width="0.904788"/>
<rect x="0.452882" y="255.578" width="85.9549" height="85.9549" stroke="white" stroke-width="0.904788"/>
<rect x="86.4075" y="255.578" width="85.9549" height="85.9549" stroke="white" stroke-width="0.904788"/>
<rect x="172.363" y="255.578" width="85.9549" height="85.9549" stroke="white" stroke-width="0.904788"/>
<rect x="258.317" y="255.578" width="85.9549" height="85.9549" stroke="white" stroke-width="0.904788"/>
<rect x="344.272" y="255.578" width="85.9549" height="85.9549" stroke="white" stroke-width="0.904788"/>
<rect x="430.227" y="255.578" width="85.9549" height="85.9549" stroke="white" stroke-width="0.904788"/>
<rect x="516.181" y="255.578" width="85.9549" height="85.9549" stroke="white" stroke-width="0.904788"/>
<rect x="602.136" y="255.578" width="85.9549" height="85.9549" stroke="white" stroke-width="0.904788"/>
<rect x="688.091" y="255.578" width="85.9549" height="85.9549" stroke="white" stroke-width="0.904788"/>
<rect x="774.046" y="255.578" width="85.9549" height="85.9549" stroke="white" stroke-width="0.904788"/>
<rect x="860.001" y="255.578" width="85.9549" height="85.9549" stroke="white" stroke-width="0.904788"/>
<rect x="945.955" y="255.578" width="85.9549" height="85.9549" stroke="white" stroke-width="0.904788"/>
<rect x="1031.91" y="255.578" width="85.9549" height="85.9549" stroke="white" stroke-width="0.904788"/>
<rect x="1117.86" y="255.578" width="85.9549" height="85.9549" stroke="white" stroke-width="0.904788"/>
<rect x="1203.82" y="255.578" width="85.9549" height="85.9549" stroke="white" stroke-width="0.904788"/>
<rect x="1289.77" y="255.578" width="85.9549" height="85.9549" stroke="white" stroke-width="0.904788"/>
<rect x="1375.73" y="255.578" width="85.9549" height="85.9549" stroke="white" stroke-width="0.904788"/>
<rect x="1461.68" y="255.578" width="85.9549" height="85.9549" stroke="white" stroke-width="0.904788"/>
<rect x="1547.64" y="255.578" width="85.9549" height="85.9549" stroke="white" stroke-width="0.904788"/>
<rect x="1633.59" y="255.578" width="85.9549" height="85.9549" stroke="white" stroke-width="0.904788"/>
<rect x="0.452882" y="342.438" width="85.9549" height="85.9549" stroke="white" stroke-width="0.904788"/>
<rect x="86.4075" y="342.438" width="85.9549" height="85.9549" stroke="white" stroke-width="0.904788"/>
<rect x="172.363" y="342.438" width="85.9549" height="85.9549" stroke="white" stroke-width="0.904788"/>
<rect x="258.317" y="342.438" width="85.9549" height="85.9549" stroke="white" stroke-width="0.904788"/>
<rect x="344.272" y="342.438" width="85.9549" height="85.9549" stroke="white" stroke-width="0.904788"/>
<rect x="429.774" y="341.985" width="86.8597" height="86.8597" fill="white" fill-opacity="0.38"/>
<rect x="516.181" y="342.438" width="85.9549" height="85.9549" stroke="white" stroke-width="0.904788"/>
<rect x="602.136" y="342.438" width="85.9549" height="85.9549" stroke="white" stroke-width="0.904788"/>
<rect x="688.091" y="342.438" width="85.9549" height="85.9549" stroke="white" stroke-width="0.904788"/>
<rect x="774.046" y="342.438" width="85.9549" height="85.9549" stroke="white" stroke-width="0.904788"/>
<rect x="860.001" y="342.438" width="85.9549" height="85.9549" stroke="white" stroke-width="0.904788"/>
<rect x="945.955" y="342.438" width="85.9549" height="85.9549" stroke="white" stroke-width="0.904788"/>
<rect x="1031.46" y="341.985" width="86.8597" height="86.8597" fill="white" fill-opacity="0.13"/>
<rect x="1117.86" y="342.438" width="85.9549" height="85.9549" stroke="white" stroke-width="0.904788"/>
<rect x="1203.37" y="341.985" width="86.8597" height="86.8597" fill="white" fill-opacity="0.13"/>
<rect x="1289.77" y="342.438" width="85.9549" height="85.9549" stroke="white" stroke-width="0.904788"/>
<rect x="1375.73" y="342.438" width="85.9549" height="85.9549" stroke="white" stroke-width="0.904788"/>
<rect x="1461.68" y="342.438" width="85.9549" height="85.9549" stroke="white" stroke-width="0.904788"/>
<rect x="1547.64" y="342.438" width="85.9549" height="85.9549" stroke="white" stroke-width="0.904788"/>
<rect x="1633.59" y="342.438" width="85.9549" height="85.9549" stroke="white" stroke-width="0.904788"/>
<rect x="0.452882" y="429.297" width="85.9549" height="85.9549" stroke="white" stroke-width="0.904788"/>
<rect x="86.4075" y="429.297" width="85.9549" height="85.9549" stroke="white" stroke-width="0.904788"/>
<rect x="172.363" y="429.297" width="85.9549" height="85.9549" stroke="white" stroke-width="0.904788"/>
<rect x="258.317" y="429.297" width="85.9549" height="85.9549" stroke="white" stroke-width="0.904788"/>
<rect x="343.819" y="428.845" width="86.8597" height="86.8597" fill="white" fill-opacity="0.13"/>
<rect x="430.227" y="429.297" width="85.9549" height="85.9549" stroke="white" stroke-width="0.904788"/>
<rect x="515.729" y="428.845" width="86.8597" height="86.8597" fill="white" fill-opacity="0.38"/>
<rect x="602.136" y="429.297" width="85.9549" height="85.9549" stroke="white" stroke-width="0.904788"/>
<rect x="688.091" y="429.297" width="85.9549" height="85.9549" stroke="white" stroke-width="0.904788"/>
<rect x="774.046" y="429.297" width="85.9549" height="85.9549" stroke="white" stroke-width="0.904788"/>
<rect x="860.001" y="429.297" width="85.9549" height="85.9549" stroke="white" stroke-width="0.904788"/>
<rect x="945.503" y="428.845" width="86.8597" height="86.8597" fill="white" fill-opacity="0.13"/>
<rect x="1031.91" y="429.297" width="85.9549" height="85.9549" stroke="white" stroke-width="0.904788"/>
<rect x="1117.41" y="428.845" width="86.8597" height="86.8597" fill="white" fill-opacity="0.23"/>
<rect x="1203.82" y="429.297" width="85.9549" height="85.9549" stroke="white" stroke-width="0.904788"/>
<rect x="1289.77" y="429.297" width="85.9549" height="85.9549" stroke="white" stroke-width="0.904788"/>
<rect x="1375.73" y="429.297" width="85.9549" height="85.9549" stroke="white" stroke-width="0.904788"/>
<rect x="1461.68" y="429.297" width="85.9549" height="85.9549" stroke="white" stroke-width="0.904788"/>
<rect x="1547.64" y="429.297" width="85.9549" height="85.9549" stroke="white" stroke-width="0.904788"/>
<rect x="1633.59" y="429.297" width="85.9549" height="85.9549" stroke="white" stroke-width="0.904788"/>
<rect x="0.452882" y="516.157" width="85.9549" height="85.9549" stroke="white" stroke-width="0.904788"/>
<rect x="86.4075" y="516.157" width="85.9549" height="85.9549" stroke="white" stroke-width="0.904788"/>
<rect x="172.363" y="516.157" width="85.9549" height="85.9549" stroke="white" stroke-width="0.904788"/>
<rect x="257.865" y="515.704" width="86.8597" height="86.8597" fill="white" fill-opacity="0.13"/>
<rect x="344.272" y="516.157" width="85.9549" height="85.9549" stroke="white" stroke-width="0.904788"/>
<rect x="429.774" y="515.704" width="86.8597" height="86.8597" fill="white" fill-opacity="0.38"/>
<rect x="516.181" y="516.157" width="85.9549" height="85.9549" stroke="white" stroke-width="0.904788"/>
<rect x="602.136" y="516.157" width="85.9549" height="85.9549" stroke="white" stroke-width="0.904788"/>
<rect x="688.091" y="516.157" width="85.9549" height="85.9549" stroke="white" stroke-width="0.904788"/>
<rect x="774.046" y="516.157" width="85.9549" height="85.9549" stroke="white" stroke-width="0.904788"/>
<rect x="860.001" y="516.157" width="85.9549" height="85.9549" stroke="white" stroke-width="0.904788"/>
<rect x="945.955" y="516.157" width="85.9549" height="85.9549" stroke="white" stroke-width="0.904788"/>
<rect x="1031.46" y="515.704" width="86.8597" height="86.8597" fill="white" fill-opacity="0.13"/>
<rect x="1117.86" y="516.157" width="85.9549" height="85.9549" stroke="white" stroke-width="0.904788"/>
<rect x="1203.82" y="516.157" width="85.9549" height="85.9549" stroke="white" stroke-width="0.904788"/>
<rect x="1289.77" y="516.157" width="85.9549" height="85.9549" stroke="white" stroke-width="0.904788"/>
<rect x="1375.73" y="516.157" width="85.9549" height="85.9549" stroke="white" stroke-width="0.904788"/>
<rect x="1461.68" y="516.157" width="85.9549" height="85.9549" stroke="white" stroke-width="0.904788"/>
<rect x="1547.64" y="516.157" width="85.9549" height="85.9549" stroke="white" stroke-width="0.904788"/>
<rect x="1633.59" y="516.157" width="85.9549" height="85.9549" stroke="white" stroke-width="0.904788"/>
<rect x="0.452882" y="603.016" width="85.9549" height="85.9549" stroke="white" stroke-width="0.904788"/>
<rect x="86.4075" y="603.016" width="85.9549" height="85.9549" stroke="white" stroke-width="0.904788"/>
<rect x="172.363" y="603.016" width="85.9549" height="85.9549" stroke="white" stroke-width="0.904788"/>
<rect x="258.317" y="603.016" width="85.9549" height="85.9549" stroke="white" stroke-width="0.904788"/>
<rect x="344.272" y="603.016" width="85.9549" height="85.9549" stroke="white" stroke-width="0.904788"/>
<rect x="430.227" y="603.016" width="85.9549" height="85.9549" stroke="white" stroke-width="0.904788"/>
<rect x="516.181" y="603.016" width="85.9549" height="85.9549" stroke="white" stroke-width="0.904788"/>
<rect x="602.136" y="603.016" width="85.9549" height="85.9549" stroke="white" stroke-width="0.904788"/>
<rect x="688.091" y="603.016" width="85.9549" height="85.9549" stroke="white" stroke-width="0.904788"/>
<rect x="774.046" y="603.016" width="85.9549" height="85.9549" stroke="white" stroke-width="0.904788"/>
<rect x="860.001" y="603.016" width="85.9549" height="85.9549" stroke="white" stroke-width="0.904788"/>
<rect x="945.955" y="603.016" width="85.9549" height="85.9549" stroke="white" stroke-width="0.904788"/>
<rect x="1031.91" y="603.016" width="85.9549" height="85.9549" stroke="white" stroke-width="0.904788"/>
<rect x="1117.86" y="603.016" width="85.9549" height="85.9549" stroke="white" stroke-width="0.904788"/>
<rect x="1203.82" y="603.016" width="85.9549" height="85.9549" stroke="white" stroke-width="0.904788"/>
<rect x="1289.77" y="603.016" width="85.9549" height="85.9549" stroke="white" stroke-width="0.904788"/>
<rect x="1375.73" y="603.016" width="85.9549" height="85.9549" stroke="white" stroke-width="0.904788"/>
<rect x="1461.68" y="603.016" width="85.9549" height="85.9549" stroke="white" stroke-width="0.904788"/>
<rect x="1547.64" y="603.016" width="85.9549" height="85.9549" stroke="white" stroke-width="0.904788"/>
<rect x="1633.59" y="603.016" width="85.9549" height="85.9549" stroke="white" stroke-width="0.904788"/>
<rect x="0.452882" y="689.876" width="85.9549" height="85.9549" stroke="white" stroke-width="0.904788"/>
<rect x="86.4075" y="689.876" width="85.9549" height="85.9549" stroke="white" stroke-width="0.904788"/>
<rect x="172.363" y="689.876" width="85.9549" height="85.9549" stroke="white" stroke-width="0.904788"/>
<rect x="258.317" y="689.876" width="85.9549" height="85.9549" stroke="white" stroke-width="0.904788"/>
<rect x="344.272" y="689.876" width="85.9549" height="85.9549" stroke="white" stroke-width="0.904788"/>
<rect x="430.227" y="689.876" width="85.9549" height="85.9549" stroke="white" stroke-width="0.904788"/>
<rect x="516.181" y="689.876" width="85.9549" height="85.9549" stroke="white" stroke-width="0.904788"/>
<rect x="602.136" y="689.876" width="85.9549" height="85.9549" stroke="white" stroke-width="0.904788"/>
<rect x="688.091" y="689.876" width="85.9549" height="85.9549" stroke="white" stroke-width="0.904788"/>
<rect x="774.046" y="689.876" width="85.9549" height="85.9549" stroke="white" stroke-width="0.904788"/>
<rect x="860.001" y="689.876" width="85.9549" height="85.9549" stroke="white" stroke-width="0.904788"/>
<rect x="945.503" y="689.424" width="86.8597" height="86.8597" fill="white" fill-opacity="0.13"/>
<rect x="1031.91" y="689.876" width="85.9549" height="85.9549" stroke="white" stroke-width="0.904788"/>
<rect x="1117.86" y="689.876" width="85.9549" height="85.9549" stroke="white" stroke-width="0.904788"/>
<rect x="1203.82" y="689.876" width="85.9549" height="85.9549" stroke="white" stroke-width="0.904788"/>
<rect x="1289.77" y="689.876" width="85.9549" height="85.9549" stroke="white" stroke-width="0.904788"/>
<rect x="1375.73" y="689.876" width="85.9549" height="85.9549" stroke="white" stroke-width="0.904788"/>
<rect x="1461.68" y="689.876" width="85.9549" height="85.9549" stroke="white" stroke-width="0.904788"/>
<rect x="1547.64" y="689.876" width="85.9549" height="85.9549" stroke="white" stroke-width="0.904788"/>
<rect x="1633.59" y="689.876" width="85.9549" height="85.9549" stroke="white" stroke-width="0.904788"/>
<rect x="0.452882" y="776.736" width="85.9549" height="85.9549" stroke="white" stroke-width="0.904788"/>
<rect x="86.4075" y="776.736" width="85.9549" height="85.9549" stroke="white" stroke-width="0.904788"/>
<rect x="172.363" y="776.736" width="85.9549" height="85.9549" stroke="white" stroke-width="0.904788"/>
<rect x="258.317" y="776.736" width="85.9549" height="85.9549" stroke="white" stroke-width="0.904788"/>
<rect x="344.272" y="776.736" width="85.9549" height="85.9549" stroke="white" stroke-width="0.904788"/>
<rect x="430.227" y="776.736" width="85.9549" height="85.9549" stroke="white" stroke-width="0.904788"/>
<rect x="516.181" y="776.736" width="85.9549" height="85.9549" stroke="white" stroke-width="0.904788"/>
<rect x="602.136" y="776.736" width="85.9549" height="85.9549" stroke="white" stroke-width="0.904788"/>
<rect x="688.091" y="776.736" width="85.9549" height="85.9549" stroke="white" stroke-width="0.904788"/>
<rect x="774.046" y="776.736" width="85.9549" height="85.9549" stroke="white" stroke-width="0.904788"/>
<rect x="859.548" y="776.283" width="86.8597" height="86.8597" fill="white" fill-opacity="0.13"/>
<rect x="945.955" y="776.736" width="85.9549" height="85.9549" stroke="white" stroke-width="0.904788"/>
<rect x="1031.46" y="776.283" width="86.8597" height="86.8597" fill="white" fill-opacity="0.13"/>
<rect x="1117.86" y="776.736" width="85.9549" height="85.9549" stroke="white" stroke-width="0.904788"/>
<rect x="1203.37" y="776.283" width="86.8597" height="86.8597" fill="white" fill-opacity="0.13"/>
<rect x="1289.77" y="776.736" width="85.9549" height="85.9549" stroke="white" stroke-width="0.904788"/>
<rect x="1375.73" y="776.736" width="85.9549" height="85.9549" stroke="white" stroke-width="0.904788"/>
<rect x="1461.68" y="776.736" width="85.9549" height="85.9549" stroke="white" stroke-width="0.904788"/>
<rect x="1547.64" y="776.736" width="85.9549" height="85.9549" stroke="white" stroke-width="0.904788"/>
<rect x="1633.59" y="776.736" width="85.9549" height="85.9549" stroke="white" stroke-width="0.904788"/>
</g>
</mask>
<g mask="url(#mask0_21075_9482)">
<g filter="url(#filter0_f_21075_9482)">
<ellipse cx="270.551" cy="645.487" rx="461.591" ry="329.906" transform="rotate(-15 270.551 645.487)" fill="#B987FF"/>
</g>
<g filter="url(#filter1_f_21075_9482)">
<ellipse cx="1411.22" cy="356.093" rx="644.603" ry="460.708" transform="rotate(-15 1411.22 356.093)" fill="#B987FF"/>
</g>
</g>
</g>
<defs>
<filter id="filter0_f_21075_9482" x="-301.482" y="187.086" width="1144.07" height="916.801" filterUnits="userSpaceOnUse" color-interpolation-filters="sRGB">
<feFlood flood-opacity="0" result="BackgroundImageFix"/>
<feBlend mode="normal" in="SourceGraphic" in2="BackgroundImageFix" result="shape"/>
<feGaussianBlur stdDeviation="58.9923" result="effect1_foregroundBlur_21075_9482"/>
</filter>
<filter id="filter1_f_21075_9482" x="659.165" y="-237.276" width="1504.11" height="1186.74" filterUnits="userSpaceOnUse" color-interpolation-filters="sRGB">
<feFlood flood-opacity="0" result="BackgroundImageFix"/>
<feBlend mode="normal" in="SourceGraphic" in2="BackgroundImageFix" result="shape"/>
<feGaussianBlur stdDeviation="58.9923" result="effect1_foregroundBlur_21075_9482"/>
</filter>
<clipPath id="clip0_21075_9482">
<rect width="1720" height="815" fill="white"/>
</clipPath>
</defs>
</svg>
