<svg width="64" height="64" viewBox="-5 -2 41 41" fill="none" xmlns="http://www.w3.org/2000/svg">
<path fill="white" d="M5.78599 17.9817L0 18.1337V1.22168H14.5178L14.3653 9.4316C14.3653 13.9009 10.2706 17.9817 5.78599 17.9817Z"></path>
<path fill="white" d="M31.0269 17.9923V18.1357L24.1821 17.982C19.6351 17.982 15.4901 13.8529 15.4901 9.32133L15.3394 1.29102C23.9915 2.07332 30.8016 9.21772 31.0269 17.9906V17.9923Z"></path>
<path fill="white" d="M14.5178 35.778H0V18.8643L5.69415 19.0162C10.2308 19.0162 14.3653 23.1385 14.3653 27.6579L14.5178 35.7763V35.778Z"></path>
<path fill="white" d="M31.0266 18.8643V19.0439C30.8031 27.8185 23.9913 34.9612 15.3374 35.7435L15.4899 27.6527C15.4899 23.135 19.6227 19.0162 24.1559 19.0162L31.0266 18.8643Z"></path>
</svg>
