<svg fill="none" viewBox="0 0 203 37" height="37" width="203" xmlns="http://www.w3.org/2000/svg"><g clip-path="url(#clip0_376_1345)"><path fill="white" d="M5.78599 17.9817L0 18.1337V1.22168H14.5178L14.3653 9.4316C14.3653 13.9009 10.2706 17.9817 5.78599 17.9817Z"></path><path fill="white" d="M31.0269 17.9923V18.1357L24.1821 17.982C19.6351 17.982 15.4901 13.8529 15.4901 9.32133L15.3394 1.29102C23.9915 2.07332 30.8016 9.21772 31.0269 17.9906V17.9923Z"></path><path fill="white" d="M14.5178 35.778H0V18.8643L5.69415 19.0162C10.2308 19.0162 14.3653 23.1385 14.3653 27.6579L14.5178 35.7763V35.778Z"></path><path fill="white" d="M31.0266 18.8643V19.0439C30.8031 27.8185 23.9913 34.9612 15.3374 35.7435L15.4899 27.6527C15.4899 23.135 19.6227 19.0162 24.1559 19.0162L31.0266 18.8643Z"></path><path fill="white" d="M62.3723 27.6854C60.7244 27.9842 59.1128 28.3071 57.5394 28.656L56.4148 28.2449L56.1895 24.4353C55.5397 25.9049 54.6473 26.9877 53.5105 27.6837C52.3738 28.3797 51.1192 28.7302 49.745 28.7302C48.2461 28.7302 46.9274 28.3434 45.7924 27.5732C44.6557 26.8012 43.7875 25.7253 43.1879 24.342C42.5884 22.9605 42.2886 21.3734 42.2886 19.5808C42.2886 17.4152 42.6941 15.5657 43.5068 14.0356C44.3177 12.5038 45.4233 11.3467 46.8234 10.5627C48.2219 9.77868 49.7953 9.38666 51.5455 9.38666C53.2956 9.38666 54.7928 9.88575 55.9677 10.8805V5.8395C55.9677 4.86896 55.7615 4.19545 55.3491 3.82243C54.9367 3.4494 54.1933 3.2249 53.1206 3.15064V1.9176C55.6437 1.32008 57.5671 0.846891 58.891 0.498047L59.9411 0.834802V23.8015C59.9411 24.798 60.104 25.4766 60.4281 25.8376C60.7521 26.1985 61.3898 26.404 62.3394 26.4541L62.3775 27.6871L62.3723 27.6854ZM53.436 25.6493C54.1985 25.0138 54.8102 24.0433 55.2728 22.736C55.7355 21.4287 55.966 19.8416 55.966 17.9748V17.0785C55.966 15.0372 55.5293 13.5003 54.6542 12.4658C53.7791 11.4331 52.7307 10.9167 51.5073 10.9167C50.6323 10.9167 49.8265 11.2034 49.09 11.775C48.3518 12.3484 47.7592 13.2188 47.3104 14.3896C46.8598 15.5605 46.6363 17.0163 46.6363 18.7588C46.6363 21.3492 47.0418 23.3024 47.8545 24.6218C48.6655 25.9412 49.7086 26.6009 50.984 26.6009C51.8574 26.6009 52.677 26.2831 53.4377 25.6493H53.436Z"></path><path fill="white" d="M64.9941 27.0517C65.8935 26.9274 66.5242 26.6407 66.8864 26.1934C67.2486 25.7444 67.4288 24.912 67.4288 23.6911V14.4294C67.4288 13.4589 67.2468 12.7854 66.8864 12.4123C66.5242 12.0393 65.8935 11.8148 64.9941 11.7406V10.5075C67.4167 9.88581 69.1911 9.41263 70.3157 9.08796L71.4022 9.42472V23.6893C71.4022 24.5614 71.4767 25.2211 71.6275 25.6684C71.7765 26.1174 72.0208 26.4404 72.3588 26.639C72.6949 26.8393 73.1767 26.9757 73.8005 27.05V28.283C72.8509 28.2588 71.378 28.245 69.3783 28.245C67.3785 28.245 65.9177 28.2571 64.9941 28.283V27.05V27.0517ZM69.0785 6.96036L66.7547 4.72051V3.56345L69.0785 1.35986H70.2031L72.5268 3.56345V4.72051L70.2031 6.96036H69.0785Z"></path><path fill="white" d="M80.6572 28.2657C79.4078 27.9548 78.3958 27.5507 77.6212 27.0517L77.4341 25.9309C77.4098 24.8843 77.3093 23.7031 77.1343 22.3837L78.2208 22.0849C78.9451 23.653 79.9259 24.8861 81.1632 25.7823C82.4004 26.6786 83.7295 27.1276 85.1539 27.1276C86.0775 27.1276 86.8521 26.9359 87.4777 26.5491C88.1015 26.164 88.4151 25.5596 88.4151 24.7375C88.4151 23.9155 87.9958 23.1194 87.1588 22.4217C86.3219 21.7257 85.0291 21.0522 83.2807 20.4046C81.1822 19.6327 79.6885 18.7865 78.803 17.866C77.9158 16.9455 77.4722 15.8627 77.4722 14.6176C77.4722 12.8751 78.1029 11.5678 79.3645 10.6974C80.626 9.82706 82.293 9.39014 84.3672 9.39014C86.5645 9.39014 88.4134 9.82533 89.9123 10.6974L90.0613 11.8182C90.1116 12.6644 90.1601 13.3621 90.2121 13.9096L90.3247 15.2169L89.2382 15.4776C88.6387 14.084 87.8138 12.9943 86.7655 12.2102C85.7154 11.4262 84.492 11.0342 83.0935 11.0342C82.1942 11.0342 81.4941 11.2086 80.9951 11.5575C80.4943 11.9063 80.2465 12.4296 80.2465 13.1255C80.2465 13.8215 80.6208 14.4087 81.3711 14.9561C82.1197 15.5035 83.4193 16.127 85.2683 16.8229C87.3668 17.5949 88.8535 18.5102 89.7269 19.5671C90.6003 20.6257 91.0387 21.8518 91.0387 23.2455C91.0387 25.0881 90.3958 26.4628 89.1083 27.3711C87.8208 28.2795 86.204 28.7337 84.2546 28.7337C83.1057 28.7337 81.9065 28.5783 80.6572 28.2674V28.2657Z"></path><path fill="white" d="M110.953 10.582C112.063 11.3799 112.919 12.4799 113.519 13.8874C114.118 15.2949 114.418 16.8681 114.418 18.6106C114.418 20.752 114.006 22.5826 113.181 24.1006C112.356 25.6186 111.238 26.7705 109.828 27.5545C108.416 28.3385 106.849 28.7305 105.125 28.7305C103.401 28.7305 101.878 28.2453 100.703 27.2747V31.9047C100.703 32.7751 100.777 33.4365 100.928 33.8838C101.077 34.3328 101.321 34.6557 101.659 34.8543C101.997 35.0529 102.477 35.1911 103.103 35.2653V36.4984L98.6805 36.4604L94.2964 36.4984V35.2653C95.1957 35.141 95.8265 34.8543 96.1887 34.407C96.5508 33.958 96.7328 33.1239 96.7328 31.9047V14.4279C96.7328 13.5317 96.5508 12.91 96.1887 12.5611C95.8265 12.2123 95.1957 11.9895 94.2964 11.8893V10.6943C96.4191 10.2453 98.1433 9.83599 99.4672 9.46124L100.405 9.72201L100.592 13.4937C101.242 12.0741 102.134 11.0362 103.271 10.3748C104.408 9.7151 105.65 9.38525 107 9.38525C108.523 9.38525 109.842 9.78418 110.953 10.5803V10.582ZM107.617 26.2852C108.353 25.7015 108.948 24.8225 109.396 23.6516C109.847 22.4824 110.071 21.0508 110.071 19.3567C110.071 16.7921 109.663 14.8511 108.852 13.5317C108.04 12.2123 106.998 11.5526 105.723 11.5526C104.848 11.5526 104.03 11.8703 103.269 12.5041C102.507 13.1396 101.895 14.1033 101.432 15.3985C100.97 16.6937 100.739 18.2739 100.739 20.1407V21.1872C100.739 23.1784 101.183 24.6722 102.07 25.6687C102.955 26.6651 104 27.1625 105.199 27.1625C106.073 27.1625 106.879 26.8706 107.617 26.2852Z"></path><path fill="white" d="M117.491 27.0516C118.39 26.9273 119.021 26.6406 119.383 26.1933C119.745 25.7443 119.927 24.9119 119.927 23.691V5.8395C119.927 4.86896 119.745 4.19545 119.383 3.82243C119.021 3.4494 118.39 3.2249 117.491 3.15064V1.9176C119.913 1.2959 121.688 0.822713 122.812 0.498047L123.899 0.834802V23.6893C123.899 24.5614 123.973 25.2211 124.124 25.6683C124.273 26.1173 124.517 26.4403 124.855 26.6389C125.193 26.8392 125.673 26.9756 126.299 27.0499V28.2829C125.349 28.2588 123.875 28.245 121.877 28.245C119.879 28.245 118.416 28.257 117.492 28.2829V27.0499L117.491 27.0516Z"></path><path fill="white" d="M147.28 27.6854C145.457 28.0343 143.834 28.3572 142.409 28.656L141.323 28.245L141.136 25.1088C140.486 26.3039 139.606 27.2071 138.493 27.8167C137.381 28.4263 136.138 28.732 134.764 28.732C133.265 28.732 132.054 28.3762 131.128 27.6682C130.203 26.9584 129.742 25.9447 129.742 24.6253C129.742 22.584 130.804 20.9348 132.927 19.6776C135.05 18.4204 137.698 17.6052 140.871 17.2322V16.6347C140.871 12.7767 139.758 10.846 137.537 10.846C136.388 10.846 135.395 11.3122 134.558 12.2465C133.721 13.1808 133.14 14.419 132.816 15.9629H131.617C131.267 14.5434 130.905 13.3241 130.531 12.3035V11.1085C131.579 10.6111 132.773 10.2001 134.109 9.87541C135.445 9.55247 136.85 9.39014 138.325 9.39014C140.474 9.39014 142.097 9.91858 143.196 10.9772C144.295 12.0358 144.846 13.6972 144.846 15.9629V23.805C144.846 24.8014 145.002 25.4801 145.314 25.8411C145.626 26.202 146.268 26.4075 147.244 26.4576L147.282 27.6906L147.28 27.6854ZM138.68 25.7616C139.366 25.152 139.904 24.2626 140.292 23.0918C140.678 21.9226 140.872 20.5272 140.872 18.9091V18.4238C138.649 18.7727 136.906 19.3944 135.644 20.2906C134.383 21.1869 133.752 22.3578 133.752 23.8015C133.752 24.6978 133.996 25.4007 134.483 25.9119C134.97 26.423 135.613 26.6769 136.414 26.6769C137.214 26.6769 137.992 26.373 138.68 25.7616Z"></path><path fill="white" d="M160.432 9.83578C161.356 9.85996 162.68 9.87377 164.404 9.87377C165.977 9.87377 167.076 9.86168 167.702 9.83578V11.0688C167.102 11.4177 166.541 12.0653 166.016 13.0116C165.49 13.958 164.855 15.4259 164.104 17.4188L160.358 27.8755C159.607 29.9409 158.715 31.6472 157.679 32.9907C156.643 34.336 155.461 35.4672 154.139 36.3894L153.39 35.7918C152.79 34.5968 152.066 33.4881 151.217 32.4675L151.778 31.4969C152.702 31.8699 153.503 32.0564 154.177 32.0564C156.201 32.0564 157.762 30.5868 158.861 27.6493L158.973 27.3125C158.649 27.2624 158.161 27.2383 157.512 27.2383C156.987 27.2383 156.601 27.2503 156.351 27.2762L150.955 14.989C150.38 13.6195 149.874 12.6801 149.437 12.1689C149.001 11.6594 148.406 11.2916 147.658 11.0671L147.696 9.87204C149.07 9.87204 150.144 9.84787 150.919 9.79779C151.694 9.7477 152.368 9.64754 152.943 9.49902L153.917 10.0586C153.893 10.1328 153.879 10.271 153.879 10.4696C153.879 11.1914 154.253 12.4487 155.003 14.2412L159.687 25.3317L162.685 17.1166C163.16 15.7713 163.397 14.7265 163.397 13.9805C163.397 13.1843 163.16 12.5488 162.685 12.0756C162.21 11.6024 161.46 11.2674 160.437 11.0671V9.83405L160.432 9.83578Z"></path><path fill="white" d="M173.155 27.817C171.894 27.2073 170.844 26.2109 170.008 24.8293C169.172 23.4478 168.754 21.6863 168.754 19.5449C168.754 17.4034 169.147 15.5366 169.934 14.0186C170.721 12.5006 171.8 11.3488 173.174 10.5647C174.549 9.78069 176.11 9.38867 177.858 9.38867C178.758 9.38867 179.688 9.47675 180.65 9.64944C181.612 9.82386 182.454 10.0846 183.18 10.4335V11.7408C183.18 12.5386 183.279 13.858 183.48 15.6989L182.43 16.0357C181.78 14.4435 180.955 13.2294 179.957 12.3953C178.957 11.5612 177.883 11.1433 176.734 11.1433C175.309 11.1433 174.192 11.7097 173.381 12.8426C172.568 13.9755 172.162 15.4762 172.162 17.343C172.162 18.937 172.455 20.3617 173.043 21.6189C173.63 22.8762 174.434 23.8588 175.46 24.5686C176.484 25.2783 177.645 25.6324 178.945 25.6324C179.868 25.6324 180.737 25.4528 181.549 25.0901C182.362 24.7292 183.067 24.2007 183.667 23.503L184.454 24.1006C183.804 25.5201 182.825 26.6461 181.511 27.4802C180.199 28.3143 178.683 28.7322 176.959 28.7322C175.685 28.7322 174.417 28.4266 173.155 27.817Z"></path><path fill="white" d="M202.101 23.5788L202.887 24.1021C202.213 25.4957 201.201 26.6165 199.851 27.4627C198.502 28.3089 196.978 28.732 195.28 28.732C193.956 28.732 192.657 28.4212 191.383 27.7977C190.109 27.176 189.04 26.1727 188.179 24.7911C187.318 23.4096 186.886 21.6481 186.886 19.5066C186.886 17.3652 187.292 15.5675 188.104 14.0357C188.915 12.5039 189.985 11.3468 191.308 10.5628C192.632 9.77874 194.081 9.38672 195.656 9.38672C197.755 9.38672 199.465 10.1397 200.789 11.6456C202.113 13.1515 202.849 15.2117 203 17.8263H190.26C190.31 19.3944 190.647 20.7639 191.272 21.9347C191.896 23.1056 192.728 24.014 193.764 24.6616C194.8 25.3092 195.98 25.6321 197.304 25.6321C199.254 25.6321 200.851 24.9483 202.101 23.5788ZM191.721 12.4883C190.92 13.4347 190.447 14.7282 190.296 16.3722H197.753C198.252 16.3722 198.583 16.317 198.746 16.2047C198.909 16.0925 198.988 15.8006 198.988 15.3274C198.988 14.2325 198.633 13.2482 197.921 12.3778C197.209 11.5074 196.204 11.0705 194.904 11.0705C193.604 11.0705 192.518 11.5437 191.719 12.49L191.721 12.4883Z"></path></g><defs><clipPath id="clip0_376_1345"><rect transform="translate(0 0.5)" fill="white" height="36" width="203"></rect></clipPath></defs></svg>
