<svg width="604" height="450" viewBox="0 0 604 450" fill="none" xmlns="http://www.w3.org/2000/svg">
<g clip-path="url(#clip0_11250_23493)">
<g filter="url(#filter0_b_11250_23493)">
<ellipse cx="151.937" cy="151.937" rx="151.937" ry="151.937" transform="matrix(1.12678 -0.277104 0.479958 0.650549 66.3896 178.253)" fill="black" fill-opacity="0.08"/>
<path d="M472.717 182.321C474.593 184.252 476.377 186.228 478.063 188.247L477.672 188.356C478.941 189.876 480.156 191.421 481.313 192.99C482.471 194.558 483.558 196.134 484.577 197.716L484.984 197.628C486.338 199.73 487.569 201.841 488.682 203.96L488.266 204.033C489.983 207.304 491.414 210.593 492.567 213.891L492.993 213.841C493.76 216.035 494.404 218.233 494.927 220.432L494.496 220.466C495.3 223.843 495.817 227.222 496.056 230.592L496.491 230.582C496.649 232.814 496.685 235.042 496.601 237.264L496.167 237.258C496.039 240.659 495.63 244.044 494.947 247.401L495.378 247.43C494.927 249.646 494.358 251.849 493.671 254.038L493.244 253.993C492.196 257.335 490.875 260.641 489.29 263.902L489.708 263.969C488.665 266.115 487.507 268.24 486.238 270.343L485.827 270.26C483.893 273.462 481.698 276.61 479.25 279.693L479.645 279.797C478.038 281.821 476.322 283.817 474.5 285.781L474.117 285.663C471.347 288.648 468.331 291.56 465.077 294.389L465.439 294.528C463.307 296.381 461.074 298.197 458.74 299.975L458.394 299.824C454.857 302.518 451.091 305.122 447.102 307.626L447.422 307.796C444.816 309.431 442.116 311.023 439.324 312.569L439.023 312.388C434.806 314.723 430.377 316.952 425.745 319.066L426.015 319.263C422.999 320.639 419.897 321.966 416.712 323.241L416.464 323.035C411.675 324.952 406.696 326.751 401.532 328.423L401.745 328.642C398.4 329.725 394.977 330.755 391.48 331.729L391.291 331.503C388.659 332.236 385.983 332.937 383.266 333.605C380.549 334.273 377.82 334.901 375.08 335.489L375.231 335.725C371.592 336.506 367.935 337.217 364.264 337.859L364.138 337.619C358.472 338.61 352.775 339.437 347.064 340.102L347.15 340.348C343.35 340.791 339.543 341.163 335.735 341.465L335.676 341.216C329.826 341.68 323.974 341.979 318.136 342.117L318.154 342.368C314.288 342.459 310.428 342.48 306.581 342.432L306.59 342.181C300.7 342.107 294.838 341.871 289.022 341.476L288.972 341.725C285.135 341.465 281.318 341.136 277.527 340.74L277.605 340.493C271.817 339.888 266.09 339.126 260.443 338.21L260.325 338.452C256.609 337.85 252.928 337.181 249.287 336.448L249.43 336.211C243.884 335.094 238.431 333.827 233.092 332.414L232.911 332.642C229.405 331.714 225.949 330.723 222.546 329.671L222.751 329.45C217.581 327.851 212.536 326.11 207.637 324.231L207.397 324.44C204.188 323.209 201.041 321.92 197.962 320.572L198.224 320.372C193.558 318.331 189.047 316.156 184.711 313.853L184.416 314.038C181.584 312.533 178.826 310.975 176.148 309.362L176.462 309.189C172.418 306.754 168.556 304.197 164.895 301.523L164.554 301.678C162.171 299.937 159.872 298.147 157.663 296.307L158.021 296.164C154.701 293.399 151.584 290.525 148.689 287.544L148.31 287.666C146.433 285.735 144.65 283.759 142.963 281.74L143.354 281.631C142.085 280.111 140.87 278.566 139.713 276.997C138.555 275.429 137.468 273.853 136.449 272.271L136.042 272.359C134.689 270.257 133.457 268.146 132.344 266.027L132.76 265.954C131.044 262.683 129.612 259.394 128.459 256.096L128.033 256.146C127.266 253.952 126.622 251.754 126.099 249.555L126.53 249.521C125.726 246.144 125.209 242.765 124.97 239.395L124.536 239.405C124.377 237.173 124.341 234.945 124.425 232.723L124.859 232.729C124.987 229.328 125.397 225.943 126.08 222.586L125.648 222.557C126.099 220.341 126.668 218.138 127.355 215.949L127.782 215.994C128.83 212.652 130.151 209.346 131.736 206.085L131.318 206.018C132.361 203.872 133.519 201.747 134.789 199.644L135.199 199.727C137.133 196.525 139.328 193.377 141.776 190.294L141.381 190.19C142.988 188.166 144.704 186.17 146.526 184.206L146.91 184.324C149.679 181.339 152.695 178.427 155.949 175.598L155.587 175.459C157.719 173.606 159.952 171.79 162.286 170.012L162.632 170.163C166.169 167.469 169.936 164.865 173.924 162.361L173.605 162.192C176.21 160.556 178.91 158.964 181.703 157.418L182.003 157.599C186.22 155.264 190.649 153.035 195.281 150.921L195.011 150.724C198.027 149.348 201.129 148.021 204.315 146.746L204.562 146.952C209.351 145.035 214.33 143.236 219.494 141.564L219.281 141.345C222.626 140.262 226.049 139.232 229.546 138.258L229.735 138.484C232.368 137.751 235.043 137.05 237.76 136.382C240.477 135.714 243.207 135.086 245.946 134.498L245.795 134.262C249.434 133.481 253.091 132.77 256.762 132.128L256.888 132.368C262.554 131.377 268.251 130.55 273.963 129.885L273.877 129.639C277.677 129.196 281.483 128.824 285.291 128.522L285.35 128.771C291.2 128.307 297.053 128.008 302.89 127.87L302.873 127.619C306.738 127.528 310.598 127.507 314.445 127.555L314.436 127.806C320.326 127.88 326.188 128.116 332.004 128.511L332.054 128.262C335.892 128.522 339.708 128.851 343.499 129.247L343.422 129.494C349.209 130.099 354.936 130.861 360.583 131.777L360.701 131.535C364.417 132.137 368.098 132.806 371.739 133.539L371.596 133.776C377.142 134.893 382.595 136.16 387.934 137.573L388.115 137.345C391.621 138.273 395.078 139.264 398.48 140.316L398.275 140.537C403.445 142.136 408.49 143.877 413.389 145.756L413.63 145.547C416.839 146.778 419.985 148.067 423.065 149.415L422.802 149.615C427.469 151.656 431.979 153.831 436.316 156.134L436.61 155.949C439.442 157.454 442.2 159.012 444.878 160.625L444.564 160.798C448.608 163.233 452.47 165.79 456.131 168.464L456.472 168.309C458.855 170.05 461.154 171.84 463.363 173.68L463.006 173.823C466.325 176.588 469.442 179.462 472.338 182.443L472.717 182.321Z" stroke="#9178D6" stroke-width="0.70976" stroke-linejoin="round" stroke-dasharray="13.76 9.02"/>
</g>
<g filter="url(#filter1_d_11250_23493)">
<path d="M413.907 205.42C426.094 222.426 426.094 241.657 413.907 258.663L413.104 258.472C407.268 266.615 398.617 274.244 387.15 280.865C375.683 287.486 362.467 292.48 348.363 295.85L348.695 296.313C319.24 303.35 285.93 303.35 256.474 296.313L256.807 295.85C242.702 292.48 229.487 287.486 218.02 280.865C206.552 274.244 197.902 266.615 192.066 258.472L191.263 258.663C179.076 241.657 179.076 222.426 191.263 205.42L192.066 205.612C197.902 197.468 206.552 189.839 218.02 183.218C229.487 176.597 242.702 171.603 256.807 168.233L256.474 167.77C285.93 160.734 319.24 160.734 348.695 167.77L348.363 168.233C362.468 171.603 375.683 176.597 387.15 183.218C398.617 189.839 407.268 197.468 413.104 205.611L413.907 205.42Z" stroke="#5F00E8" stroke-width="1.41952" stroke-linejoin="round" stroke-dasharray="54.75 54.75" shape-rendering="crispEdges"/>
</g>
<g opacity="0.7" filter="url(#filter2_f_11250_23493)">
<rect width="243.932" height="174.908" transform="matrix(-0.999351 -0.0360302 -0.0360302 0.999351 434.871 155.138)" fill="url(#paint0_linear_11250_23493)"/>
</g>
<path d="M497.041 165.387L436.455 183.131L482.993 192.235L497.041 165.387Z" fill="#3FA9F5"/>
<path d="M490.736 168.817C477.04 154.713 458.406 142.412 436.021 132.696C413.636 122.98 387.991 116.063 360.72 112.386C333.448 108.708 305.15 108.351 277.626 111.336C250.102 114.322 223.958 120.585 200.858 129.727L230.432 154.636C247.539 147.866 266.901 143.228 287.285 141.017C307.668 138.806 328.626 139.07 348.823 141.794C369.019 144.517 388.012 149.64 404.59 156.835C421.168 164.031 434.968 173.141 445.111 183.586L490.736 168.817Z" fill="#3FA9F5"/>
<path d="M286.134 360.47L297.834 321.833L257.324 337.889L286.134 360.47Z" fill="#F67447"/>
<path d="M285.157 355.501C312.92 357.621 341.144 356.379 368.03 351.854C394.916 347.329 419.875 339.62 441.316 329.219C462.756 318.817 480.209 305.951 492.562 291.44C504.914 276.929 511.896 261.092 513.061 244.937L460.799 243.68C459.936 255.644 454.766 267.373 445.618 278.12C436.47 288.866 423.544 298.395 407.666 306.098C391.787 313.801 373.303 319.51 353.392 322.861C333.48 326.213 312.578 327.132 292.017 325.562L285.157 355.501Z" fill="#F67447"/>
<path d="M125.581 161.409L177.133 186.955L173.921 158.646L125.581 161.409Z" fill="#5C3DE0"/>
<path d="M133.479 163.463C116.138 176.159 103.568 190.801 96.5698 206.457C89.5717 222.113 88.2989 238.439 92.8327 254.394C97.3666 270.35 107.607 285.585 122.903 299.129C138.198 312.673 158.213 324.229 181.671 333.061L213.096 305.334C195.723 298.794 180.901 290.236 169.573 280.205C158.246 270.174 150.661 258.891 147.304 247.075C143.946 235.258 144.889 223.168 150.071 211.573C155.254 199.979 161.709 191.565 174.552 182.162L133.479 163.463Z" fill="#5C3DE0"/>
<g filter="url(#filter3_f_11250_23493)">
<path d="M497.041 165.387L436.455 183.131L482.993 192.235L497.041 165.387Z" fill="#3FA9F5"/>
<path d="M490.736 168.817C477.04 154.713 458.406 142.412 436.021 132.696C413.636 122.98 387.991 116.063 360.72 112.386C333.448 108.708 305.15 108.351 277.626 111.336C250.102 114.322 223.958 120.585 200.858 129.727L230.432 154.636C247.539 147.866 266.901 143.228 287.285 141.017C307.668 138.806 328.626 139.07 348.823 141.794C369.019 144.517 388.012 149.64 404.59 156.835C421.168 164.031 434.968 173.141 445.111 183.586L490.736 168.817Z" fill="#3FA9F5"/>
<path d="M286.134 360.47L297.834 321.833L257.324 337.889L286.134 360.47Z" fill="#F67447"/>
<path d="M285.157 355.501C312.92 357.621 341.144 356.379 368.03 351.854C394.916 347.329 419.875 339.62 441.316 329.219C462.756 318.817 480.209 305.951 492.562 291.44C504.914 276.929 511.896 261.092 513.061 244.937L460.799 243.68C459.936 255.644 454.766 267.373 445.618 278.12C436.47 288.866 423.544 298.395 407.666 306.098C391.787 313.801 373.303 319.51 353.392 322.861C333.48 326.213 312.578 327.132 292.017 325.562L285.157 355.501Z" fill="#F67447"/>
<path d="M125.581 161.409L177.133 186.955L173.921 158.646L125.581 161.409Z" fill="#5C3DE0"/>
<path d="M133.479 163.463C116.138 176.159 103.568 190.801 96.5698 206.457C89.5717 222.113 88.2989 238.439 92.8327 254.394C97.3666 270.35 107.607 285.585 122.903 299.129C138.198 312.673 158.213 324.229 181.671 333.061L213.096 305.334C195.723 298.794 180.901 290.236 169.573 280.205C158.246 270.174 150.661 258.891 147.304 247.075C143.946 235.258 144.889 223.168 150.071 211.573C155.254 199.979 161.709 191.565 174.552 182.162L133.479 163.463Z" fill="#5C3DE0"/>
</g>
<path d="M232.837 324.802C232.837 331.037 228.417 336.784 221.05 341.002C213.697 345.211 203.504 347.831 192.217 347.831C180.93 347.831 170.738 345.211 163.385 341.002C156.017 336.784 151.598 331.037 151.598 324.802C151.598 318.567 156.017 312.82 163.385 308.603C170.738 304.394 180.93 301.774 192.217 301.774C203.504 301.774 213.697 304.394 221.05 308.603C228.417 312.82 232.837 318.567 232.837 324.802Z" fill="#0B0115" stroke="#5C3DE0" stroke-width="1.04719"/>
<path fill-rule="evenodd" clip-rule="evenodd" d="M191.693 343.279C211.282 343.279 227.162 334.189 227.162 322.975C227.162 322.961 227.162 322.946 227.162 322.932L227.162 306.68L212.858 306.68C206.95 304.161 199.626 302.671 191.693 302.671C183.761 302.671 176.436 304.161 170.529 306.68L156.224 306.68L156.224 322.974L156.224 322.974C156.224 322.974 156.224 322.975 156.224 322.975C156.224 334.189 172.104 343.279 191.693 343.279Z" fill="#131215"/>
<ellipse cx="191.693" cy="305.429" rx="35.4694" ry="20.3042" fill="#27252A"/>
<g filter="url(#filter4_f_11250_23493)">
<ellipse cx="191.693" cy="312.298" rx="35.4694" ry="20.3042" fill="#27252A"/>
</g>
<g clip-path="url(#clip1_11250_23493)">
<path d="M174.542 299.989L177.315 301.59C175.404 304.03 175.404 306.828 177.302 309.276L174.542 310.869L182.619 315.532L185.392 313.931C189.618 315.035 194.478 315.042 198.704 313.939L201.464 315.532L209.54 310.869L206.767 309.268C208.679 306.828 208.692 304.022 206.781 301.582L209.54 299.989L201.464 295.326L198.691 296.927C194.464 295.823 189.618 295.823 185.378 296.919L182.619 295.326M179.927 299.989L182.619 298.434L185.311 299.989L182.619 301.543M180.263 303.292L182.619 304.652L190.695 299.989L188.34 298.629C190.749 298.186 193.333 298.186 195.743 298.629L193.387 299.989L201.464 304.652L203.819 303.292C204.587 304.683 204.587 306.175 203.819 307.566L201.464 306.206L193.387 310.869L195.743 312.229C193.333 312.672 190.749 312.672 188.34 312.229L190.695 310.869L182.619 306.206L180.263 307.566C179.496 306.175 179.496 304.683 180.263 303.292ZM179.927 310.869L182.619 309.315L185.311 310.869L182.619 312.423M198.772 299.989L201.464 298.434L204.156 299.989L201.464 301.543M198.772 310.869L201.464 309.315L204.156 310.869L201.464 312.423" fill="white"/>
</g>
<path d="M276.264 130.127C276.264 136.362 271.845 142.109 264.477 146.326C257.124 150.535 246.932 153.155 235.645 153.155C224.358 153.155 214.165 150.535 206.812 146.326C199.445 142.109 195.025 136.362 195.025 130.127C195.025 123.891 199.445 118.145 206.812 113.927C214.165 109.718 224.358 107.098 235.645 107.098C246.932 107.098 257.124 109.718 264.477 113.927C271.845 118.145 276.264 123.891 276.264 130.127Z" fill="#0B0115" stroke="#3FA9F5" stroke-width="1.04719"/>
<path fill-rule="evenodd" clip-rule="evenodd" d="M235.121 148.603C254.71 148.603 270.59 139.513 270.59 128.299C270.59 128.277 270.59 128.254 270.59 128.232L270.59 112.004L256.286 112.004C250.378 109.486 243.053 107.995 235.121 107.995C227.189 107.995 219.864 109.486 213.956 112.004L199.651 112.004L199.651 128.298L199.652 128.298C199.652 128.299 199.652 128.299 199.652 128.299C199.652 139.513 215.532 148.603 235.121 148.603Z" fill="#131215"/>
<ellipse cx="235.121" cy="110.753" rx="35.4694" ry="20.3042" fill="#27252A"/>
<g filter="url(#filter5_f_11250_23493)">
<ellipse cx="235.121" cy="117.622" rx="35.4694" ry="20.3042" fill="#27252A"/>
</g>
<g clip-path="url(#clip2_11250_23493)">
<path d="M218.413 107.576C218.155 107.428 217.807 107.345 217.443 107.345C217.079 107.345 216.73 107.428 216.473 107.576C216.216 107.725 216.072 107.926 216.072 108.136C216.072 108.346 216.216 108.548 216.473 108.696L220.352 110.935L218.413 112.055L224.23 115.414L230.048 112.055L224.23 108.696L222.291 109.816L218.413 107.576ZM235.866 113.175C237.126 113.902 239.007 114.048 240.539 113.634L244.592 115.974L246.531 114.854L242.478 112.514C243.206 111.635 242.954 110.549 241.683 109.816L239.744 108.696L233.926 112.055L235.866 113.175ZM228.109 117.653C229.369 118.381 231.25 118.526 232.782 118.112L236.835 120.452L238.775 119.332L234.722 116.992C235.439 116.108 235.187 115.022 233.926 114.294L231.987 113.175L226.169 116.533L228.109 117.653ZM237.805 100.859L233.926 98.6195C233.669 98.471 233.32 98.3876 232.957 98.3876C232.593 98.3876 232.244 98.471 231.987 98.6195C231.73 98.768 231.586 98.9693 231.586 99.1793C231.586 99.3893 231.73 99.5906 231.987 99.7391L235.866 101.978L233.926 103.098L239.744 106.457L245.562 103.098L239.744 99.7391L237.805 100.859ZM226.169 103.098C225.912 102.949 225.564 102.866 225.2 102.866C224.836 102.866 224.487 102.949 224.23 103.098C223.973 103.246 223.829 103.448 223.829 103.658C223.829 103.868 223.973 104.069 224.23 104.218L228.109 106.457L226.169 107.576L231.987 110.935L237.805 107.576L231.987 104.218L230.048 105.337L226.169 103.098ZM243.623 108.696C244.883 109.424 246.764 109.569 248.296 109.155L252.349 111.495L254.288 110.375L250.235 108.035C250.963 107.157 250.71 106.071 249.44 105.337L247.501 104.218L241.683 107.576L243.623 108.696Z" fill="white"/>
</g>
<g filter="url(#filter6_d_11250_23493)">
<path d="M250.487 266.119C236.924 258.29 229.305 247.671 229.305 236.598C229.305 225.526 236.924 214.906 250.487 207.077L301.623 177.556L352.76 207.077C366.322 214.906 373.942 225.526 373.942 236.598C373.942 247.671 366.322 258.29 352.76 266.119C339.198 273.949 320.803 278.347 301.623 278.347C282.443 278.347 264.049 273.949 250.487 266.119V266.119Z" fill="#0A41CF"/>
</g>
<path d="M302.32 242.234L201.057 185.055L302.319 125.493L402.383 185.055L302.32 242.234Z" fill="#6400CA" stroke="url(#paint1_linear_11250_23493)" stroke-width="1.31624"/>
<path d="M301.827 242.708L301.827 305.813L200.396 246.022L200.396 184.696L301.827 242.708Z" fill="#4A0292"/>
<path d="M301.625 241.885L301.625 305.097L403.898 246.077L403.898 184.819L301.625 241.885Z" fill="#3C0077"/>
<mask id="mask0_11250_23493" style="mask-type:alpha" maskUnits="userSpaceOnUse" x="199" y="124" width="205" height="119">
<path d="M302.32 242.234L201.057 185.055L302.319 125.493L402.383 185.055L302.32 242.234Z" fill="#6400CA" stroke="url(#paint2_linear_11250_23493)" stroke-width="1.31624"/>
</mask>
<g mask="url(#mask0_11250_23493)">
<path d="M291.95 180.24C291.963 178.818 293.93 177.682 296.345 177.703L306.273 177.789C308.688 177.811 310.635 178.981 310.623 180.403L310.572 186.251C310.559 187.673 308.592 188.81 306.177 188.788L296.249 188.702C293.834 188.681 291.887 187.51 291.899 186.088L291.95 180.24Z" fill="#A950FF"/>
<path d="M314.89 166.95C314.902 165.553 316.835 164.437 319.206 164.458L329.29 164.546C331.662 164.566 333.575 165.716 333.562 167.113L333.511 173.053C333.498 174.45 331.566 175.565 329.194 175.545L319.11 175.457C316.739 175.436 314.826 174.287 314.838 172.89L314.89 166.95Z" fill="#A950FF"/>
<path d="M269.246 166.552C269.258 165.155 271.191 164.039 273.563 164.06L283.646 164.148C286.018 164.168 287.931 165.318 287.919 166.715L287.867 172.655C287.855 174.052 285.922 175.167 283.55 175.147L273.467 175.059C271.095 175.038 269.182 173.889 269.194 172.492L269.246 166.552Z" fill="#E9C1FF"/>
<path d="M283.452 177.59C285.867 177.611 287.814 178.781 287.802 180.204L287.751 186.051C287.739 187.474 285.771 188.61 283.356 188.589L273.429 188.502C271.014 188.481 269.066 187.311 269.078 185.888L269.129 180.041C269.142 178.618 271.11 177.482 273.525 177.503L283.452 177.59Z" fill="#CD88FF"/>
<path d="M283.411 191.034C285.783 191.054 287.696 192.204 287.684 193.601L287.632 199.54C287.62 200.938 285.687 202.053 283.316 202.033L273.232 201.945C270.86 201.924 268.947 200.775 268.959 199.378L269.011 193.438C269.023 192.041 270.956 190.925 273.328 190.946L283.411 191.034Z" fill="#A950FF"/>
<path d="M306.39 164.346C308.805 164.367 310.753 165.537 310.741 166.96L310.69 172.808C310.677 174.23 308.709 175.366 306.294 175.345L296.367 175.259C293.952 175.237 292.005 174.067 292.017 172.645L292.068 166.797C292.08 165.375 294.048 164.238 296.463 164.259L306.39 164.346Z" fill="#CD88FF"/>
<path d="M325.074 191.769C330.47 191.816 334.821 194.431 334.793 197.609C334.766 200.787 330.369 203.325 324.974 203.278C319.579 203.231 315.227 200.616 315.255 197.438C315.283 194.26 319.679 191.722 325.074 191.769Z" fill="#F62E76"/>
<g style="mix-blend-mode:overlay" filter="url(#filter7_f_11250_23493)">
<circle cx="226.015" cy="183.83" r="48.8613" fill="white" style="mix-blend-mode:lighten"/>
</g>
</g>
<path d="M524.688 250.575C524.688 256.811 520.268 262.557 512.901 266.775C505.548 270.984 495.355 273.604 484.068 273.604C472.781 273.604 462.588 270.984 455.235 266.775C447.868 262.557 443.448 256.81 443.448 250.575C443.448 244.34 447.868 238.593 455.235 234.376C462.588 230.167 472.781 227.547 484.068 227.547C495.355 227.547 505.548 230.167 512.901 234.376C520.268 238.593 524.688 244.34 524.688 250.575Z" fill="#0B0115" stroke="#F67348" stroke-width="1.04719"/>
<path fill-rule="evenodd" clip-rule="evenodd" d="M483.544 269.052C503.133 269.052 519.014 259.961 519.014 248.748C519.014 248.726 519.014 248.705 519.013 248.683L519.013 232.453L504.709 232.453C498.801 229.934 491.477 228.443 483.544 228.443C475.612 228.443 468.287 229.934 462.38 232.453L448.075 232.453L448.075 248.747L448.075 248.747C448.075 248.747 448.075 248.747 448.075 248.748C448.075 259.961 463.955 269.052 483.544 269.052Z" fill="#131215"/>
<ellipse cx="483.544" cy="231.202" rx="35.4694" ry="20.3042" fill="#27252A"/>
<g filter="url(#filter8_f_11250_23493)">
<ellipse cx="483.544" cy="238.071" rx="35.4694" ry="20.3042" fill="#27252A"/>
</g>
<g clip-path="url(#clip3_11250_23493)">
<path d="M496.793 226.741C496.64 226.829 496.486 226.918 496.38 227.034L490.647 225.917C490.647 225.304 490.257 224.67 489.42 224.187C487.792 223.247 485.149 223.247 483.521 224.187C483.368 224.275 483.226 224.357 483.108 224.479L477.351 223.376C477.386 222.743 476.985 222.116 476.147 221.632C474.519 220.692 471.877 220.692 470.249 221.632C468.621 222.572 468.621 224.098 470.249 225.038C471.086 225.522 472.172 225.753 473.257 225.74L475.18 229.057C474.968 229.125 474.826 229.206 474.673 229.295C473.045 230.235 473.045 231.761 474.673 232.701C475.51 233.184 476.608 233.409 477.669 233.409L479.604 236.719C479.404 236.781 479.25 236.869 479.097 236.958C477.469 237.898 477.469 239.423 479.097 240.363C480.725 241.303 483.368 241.303 484.996 240.363C486.624 239.423 486.624 237.898 484.996 236.958C484.17 236.481 483.073 236.243 481.987 236.256L480.064 232.939C480.277 232.871 480.418 232.789 480.571 232.701C480.725 232.612 480.866 232.53 480.984 232.408L486.742 233.511C486.718 234.138 487.119 234.778 487.945 235.255C489.573 236.195 492.216 236.195 493.844 235.255C495.472 234.315 495.472 232.789 493.844 231.849C492.216 230.909 489.573 230.909 487.945 231.849C487.792 231.938 487.638 232.026 487.532 232.142L481.798 231.025C481.81 230.405 481.409 229.779 480.571 229.295C479.734 228.811 478.649 228.58 477.575 228.587L475.64 225.276C475.841 225.215 475.994 225.127 476.147 225.038C476.301 224.949 476.454 224.861 476.56 224.745L482.294 225.862C482.294 226.475 482.695 227.115 483.521 227.592C485.149 228.532 487.792 228.532 489.42 227.592C489.573 227.504 489.715 227.422 489.833 227.299L495.59 228.403C495.566 229.029 495.967 229.67 496.793 230.146C498.421 231.086 501.064 231.086 502.692 230.146C504.32 229.206 504.32 227.681 502.692 226.741C501.064 225.801 498.421 225.801 496.793 226.741Z" fill="white"/>
</g>
<rect x="360.64" y="108.169" width="75.7932" height="15.6418" rx="7.82092" fill="#111113"/>
<rect x="360.64" y="108.169" width="75.7932" height="15.6418" rx="7.82092" stroke="#3FA9F5" stroke-width="0.348168"/>
<path d="M368.985 119.09C368.646 119.09 368.327 119.029 368.027 118.907C367.733 118.785 367.472 118.604 367.244 118.366C367.022 118.127 366.848 117.833 366.72 117.483C366.598 117.133 366.537 116.734 366.537 116.284C366.537 115.69 366.645 115.182 366.861 114.76C367.083 114.333 367.383 114.008 367.761 113.786C368.144 113.559 368.574 113.445 369.051 113.445C369.39 113.445 369.692 113.514 369.959 113.653C370.225 113.792 370.442 113.95 370.608 114.128L370.075 114.727C369.942 114.588 369.792 114.48 369.626 114.402C369.459 114.325 369.268 114.286 369.051 114.286C368.751 114.286 368.485 114.366 368.252 114.527C368.024 114.683 367.847 114.907 367.719 115.202C367.591 115.496 367.527 115.848 367.527 116.259C367.527 116.67 367.591 117.025 367.719 117.325C367.847 117.625 368.027 117.855 368.26 118.016C368.493 118.171 368.765 118.249 369.076 118.249C369.304 118.249 369.506 118.202 369.684 118.107C369.862 118.008 370.028 117.874 370.184 117.708L370.716 118.299C370.5 118.554 370.247 118.751 369.959 118.89C369.67 119.023 369.345 119.09 368.985 119.09ZM373.527 119.09C373.167 119.09 372.831 119.007 372.52 118.84C372.209 118.668 371.957 118.424 371.762 118.107C371.568 117.785 371.471 117.4 371.471 116.95C371.471 116.495 371.568 116.109 371.762 115.793C371.957 115.471 372.209 115.227 372.52 115.06C372.831 114.888 373.167 114.802 373.527 114.802C373.888 114.802 374.224 114.888 374.535 115.06C374.846 115.227 375.098 115.471 375.293 115.793C375.487 116.109 375.584 116.495 375.584 116.95C375.584 117.4 375.487 117.785 375.293 118.107C375.098 118.424 374.846 118.668 374.535 118.84C374.224 119.007 373.888 119.09 373.527 119.09ZM373.527 118.307C373.749 118.307 373.941 118.252 374.102 118.141C374.263 118.03 374.385 117.872 374.468 117.666C374.551 117.461 374.593 117.222 374.593 116.95C374.593 116.678 374.551 116.439 374.468 116.234C374.385 116.029 374.263 115.87 374.102 115.759C373.941 115.643 373.749 115.585 373.527 115.585C373.305 115.585 373.114 115.643 372.953 115.759C372.797 115.87 372.675 116.029 372.587 116.234C372.503 116.439 372.462 116.678 372.462 116.95C372.462 117.222 372.503 117.461 372.587 117.666C372.675 117.872 372.797 118.03 372.953 118.141C373.114 118.252 373.305 118.307 373.527 118.307ZM376.705 118.99L376.705 114.902L377.496 114.902L377.571 115.518L377.604 115.518C377.798 115.318 378.012 115.149 378.245 115.01C378.484 114.871 378.761 114.802 379.078 114.802C379.549 114.802 379.896 114.946 380.118 115.235C380.34 115.524 380.451 115.932 380.451 116.459L380.451 118.99L379.486 118.99L379.486 116.584C379.486 116.256 379.427 116.015 379.311 115.859C379.194 115.704 378.997 115.626 378.72 115.626C378.52 115.626 378.342 115.673 378.187 115.768C378.031 115.862 377.859 116.006 377.671 116.201L377.671 118.99L376.705 118.99ZM382.913 118.99L382.913 114.677C382.913 114.355 382.974 114.069 383.096 113.819C383.218 113.564 383.407 113.367 383.662 113.228C383.917 113.084 384.245 113.012 384.645 113.012C384.867 113.012 385.078 113.034 385.277 113.078C385.483 113.117 385.677 113.17 385.86 113.237L385.66 113.944C385.51 113.883 385.363 113.839 385.219 113.811C385.08 113.783 384.928 113.77 384.761 113.77C384.45 113.77 384.223 113.847 384.078 114.003C383.934 114.153 383.862 114.372 383.862 114.66L383.862 118.99L382.913 118.99ZM381.78 115.66L381.78 114.943L382.938 114.902L385.419 114.902L385.419 115.66L381.78 115.66ZM388.48 118.99L388.48 115.66L386.706 115.66L386.706 114.902L389.437 114.902L389.437 118.99L388.48 118.99ZM388.888 114.153C388.693 114.153 388.53 114.094 388.396 113.978C388.269 113.861 388.205 113.706 388.205 113.511C388.205 113.317 388.269 113.162 388.396 113.045C388.53 112.923 388.693 112.862 388.888 112.862C389.087 112.862 389.251 112.923 389.379 113.045C389.507 113.162 389.57 113.317 389.57 113.511C389.57 113.706 389.507 113.861 389.379 113.978C389.251 114.094 389.087 114.153 388.888 114.153ZM393.38 120.797C393.003 120.797 392.676 120.755 392.398 120.672C392.12 120.594 391.904 120.475 391.749 120.314C391.593 120.153 391.515 119.95 391.515 119.706C391.515 119.545 391.571 119.39 391.682 119.24C391.793 119.09 391.954 118.959 392.165 118.848L392.165 118.815C392.059 118.749 391.962 118.662 391.873 118.557C391.79 118.446 391.749 118.304 391.749 118.132C391.749 117.999 391.793 117.863 391.882 117.724C391.971 117.586 392.09 117.466 392.24 117.366L392.24 117.333C392.095 117.228 391.971 117.086 391.865 116.908C391.765 116.725 391.715 116.514 391.715 116.276C391.715 115.959 391.793 115.693 391.948 115.476C392.104 115.254 392.309 115.088 392.565 114.977C392.82 114.86 393.097 114.802 393.397 114.802C393.641 114.802 393.855 114.835 394.038 114.902L395.712 114.902L395.712 115.635L394.771 115.635C394.843 115.712 394.904 115.812 394.954 115.934C395.01 116.051 395.037 116.176 395.037 116.309C395.037 116.609 394.962 116.864 394.813 117.075C394.668 117.28 394.474 117.436 394.23 117.541C393.986 117.647 393.708 117.699 393.397 117.699C393.303 117.699 393.2 117.691 393.089 117.674C392.984 117.652 392.878 117.622 392.773 117.583C392.689 117.633 392.626 117.688 392.581 117.749C392.542 117.81 392.523 117.883 392.523 117.966C392.523 118.094 392.587 118.191 392.714 118.257C392.848 118.318 393.042 118.349 393.297 118.349L394.13 118.349C394.663 118.349 395.062 118.427 395.329 118.582C395.601 118.732 395.737 118.987 395.737 119.348C395.737 119.614 395.64 119.859 395.445 120.081C395.257 120.303 394.985 120.478 394.629 120.605C394.28 120.733 393.863 120.797 393.38 120.797ZM393.397 117.092C393.541 117.092 393.672 117.061 393.788 117C393.905 116.933 393.997 116.839 394.063 116.717C394.135 116.595 394.171 116.448 394.171 116.276C394.171 116.109 394.135 115.968 394.063 115.851C393.997 115.729 393.905 115.635 393.788 115.568C393.672 115.501 393.541 115.468 393.397 115.468C393.258 115.468 393.131 115.501 393.014 115.568C392.898 115.635 392.803 115.729 392.731 115.851C392.659 115.968 392.623 116.109 392.623 116.276C392.623 116.448 392.659 116.595 392.731 116.717C392.803 116.839 392.898 116.933 393.014 117C393.131 117.061 393.258 117.092 393.397 117.092ZM393.497 120.164C393.763 120.164 393.994 120.133 394.188 120.072C394.388 120.011 394.541 119.931 394.646 119.831C394.757 119.731 394.813 119.623 394.813 119.506C394.813 119.345 394.743 119.237 394.604 119.181C394.471 119.132 394.266 119.107 393.988 119.107L393.339 119.107C393.206 119.107 393.089 119.101 392.989 119.09C392.889 119.079 392.798 119.065 392.714 119.048C392.57 119.132 392.467 119.218 392.406 119.306C392.345 119.395 392.315 119.487 392.315 119.581C392.315 119.764 392.417 119.906 392.623 120.006C392.828 120.111 393.12 120.164 393.497 120.164ZM397.94 119.09C397.463 119.09 397.116 118.946 396.899 118.657C396.683 118.368 396.574 117.96 396.574 117.433L396.574 114.902L397.532 114.902L397.532 117.308C397.532 117.636 397.587 117.877 397.698 118.032C397.815 118.188 398.015 118.266 398.298 118.266C398.487 118.266 398.659 118.221 398.814 118.132C398.975 118.038 399.144 117.88 399.322 117.658L399.322 114.902L400.28 114.902L400.28 118.99L399.497 118.99L399.422 118.341L399.389 118.341C399.194 118.563 398.981 118.743 398.748 118.882C398.514 119.021 398.245 119.09 397.94 119.09ZM402.066 118.99L402.066 114.902L402.857 114.902L402.941 115.826L402.966 115.826C403.171 115.493 403.424 115.24 403.723 115.068C404.029 114.891 404.356 114.802 404.706 114.802C404.872 114.802 405.017 114.816 405.139 114.844C405.261 114.871 405.38 114.913 405.497 114.968L405.297 115.776C405.164 115.732 405.044 115.701 404.939 115.685C404.839 115.662 404.711 115.651 404.556 115.651C404.278 115.651 404.006 115.732 403.74 115.893C403.479 116.054 403.243 116.334 403.032 116.734L403.032 118.99L402.066 118.99ZM407.933 119.09C407.667 119.09 407.431 119.04 407.225 118.94C407.02 118.835 406.859 118.693 406.742 118.515C406.626 118.338 406.568 118.13 406.568 117.891C406.568 117.436 406.784 117.089 407.217 116.85C407.656 116.606 408.38 116.448 409.39 116.376C409.379 116.226 409.337 116.09 409.265 115.968C409.199 115.845 409.096 115.751 408.957 115.685C408.818 115.612 408.638 115.576 408.416 115.576C408.261 115.576 408.108 115.596 407.958 115.635C407.808 115.673 407.658 115.726 407.508 115.793C407.364 115.859 407.22 115.932 407.076 116.009L406.726 115.368C406.892 115.268 407.076 115.177 407.275 115.093C407.475 115.005 407.686 114.935 407.908 114.885C408.13 114.83 408.358 114.802 408.591 114.802C408.974 114.802 409.293 114.871 409.548 115.01C409.809 115.143 410.006 115.343 410.14 115.61C410.278 115.87 410.348 116.19 410.348 116.567L410.348 118.99L409.565 118.99L409.49 118.482L409.465 118.482C409.249 118.649 409.007 118.793 408.741 118.915C408.48 119.032 408.211 119.09 407.933 119.09ZM408.225 118.341C408.43 118.341 408.627 118.296 408.816 118.207C409.01 118.113 409.201 117.991 409.39 117.841L409.39 116.975C408.902 117.008 408.519 117.064 408.241 117.142C407.964 117.214 407.769 117.308 407.658 117.425C407.547 117.541 407.492 117.672 407.492 117.816C407.492 117.938 407.525 118.038 407.592 118.116C407.658 118.193 407.744 118.252 407.85 118.291C407.961 118.324 408.086 118.341 408.225 118.341ZM414.224 119.09C413.808 119.09 413.478 119.018 413.234 118.873C412.989 118.724 412.815 118.518 412.709 118.257C412.604 117.996 412.551 117.694 412.551 117.35L412.551 115.66L411.46 115.66L411.46 114.943L412.592 114.902L412.717 113.62L413.508 113.62L413.508 114.902L415.373 114.902L415.373 115.66L413.508 115.66L413.508 117.341C413.508 117.563 413.539 117.749 413.6 117.899C413.661 118.044 413.761 118.152 413.9 118.224C414.038 118.291 414.222 118.324 414.449 118.324C414.627 118.324 414.788 118.31 414.932 118.282C415.076 118.255 415.215 118.216 415.348 118.166L415.532 118.857C415.348 118.918 415.151 118.971 414.94 119.015C414.73 119.065 414.491 119.09 414.224 119.09ZM418.434 118.99L418.434 115.66L416.661 115.66L416.661 114.902L419.392 114.902L419.392 118.99L418.434 118.99ZM418.842 114.153C418.648 114.153 418.484 114.094 418.351 113.978C418.223 113.861 418.159 113.706 418.159 113.511C418.159 113.317 418.223 113.162 418.351 113.045C418.484 112.923 418.648 112.862 418.842 112.862C419.042 112.862 419.206 112.923 419.333 113.045C419.461 113.162 419.525 113.317 419.525 113.511C419.525 113.706 419.461 113.861 419.333 113.978C419.206 114.094 419.042 114.153 418.842 114.153ZM423.452 119.09C423.091 119.09 422.755 119.007 422.444 118.84C422.133 118.668 421.881 118.424 421.686 118.107C421.492 117.785 421.395 117.4 421.395 116.95C421.395 116.495 421.492 116.109 421.686 115.793C421.881 115.471 422.133 115.227 422.444 115.06C422.755 114.888 423.091 114.802 423.452 114.802C423.812 114.802 424.148 114.888 424.459 115.06C424.77 115.227 425.022 115.471 425.217 115.793C425.411 116.109 425.508 116.495 425.508 116.95C425.508 117.4 425.411 117.785 425.217 118.107C425.022 118.424 424.77 118.668 424.459 118.84C424.148 119.007 423.812 119.09 423.452 119.09ZM423.452 118.307C423.674 118.307 423.865 118.252 424.026 118.141C424.187 118.03 424.309 117.872 424.392 117.666C424.476 117.461 424.517 117.222 424.517 116.95C424.517 116.678 424.476 116.439 424.392 116.234C424.309 116.029 424.187 115.87 424.026 115.759C423.865 115.643 423.674 115.585 423.452 115.585C423.23 115.585 423.038 115.643 422.877 115.759C422.722 115.87 422.6 116.029 422.511 116.234C422.427 116.439 422.386 116.678 422.386 116.95C422.386 117.222 422.427 117.461 422.511 117.666C422.6 117.872 422.722 118.03 422.877 118.141C423.038 118.252 423.23 118.307 423.452 118.307ZM426.629 118.99L426.629 114.902L427.42 114.902L427.495 115.518L427.528 115.518C427.722 115.318 427.936 115.149 428.169 115.01C428.408 114.871 428.685 114.802 429.002 114.802C429.474 114.802 429.821 114.946 430.043 115.235C430.265 115.524 430.376 115.932 430.376 116.459L430.376 118.99L429.41 118.99L429.41 116.584C429.41 116.256 429.352 116.015 429.235 115.859C429.118 115.704 428.921 115.626 428.644 115.626C428.444 115.626 428.266 115.673 428.111 115.768C427.956 115.862 427.783 116.006 427.595 116.201L427.595 118.99L426.629 118.99Z" fill="white"/>
<rect x="81.7346" y="280.223" width="80.7932" height="15.6418" rx="7.82092" fill="#111113"/>
<rect x="81.7346" y="280.223" width="80.7932" height="15.6418" rx="7.82092" stroke="#5C3DE0" stroke-width="0.348168"/>
<path d="M87.8303 291.044L87.8303 290.228L89.1458 290.228L89.1458 286.414L87.8303 286.414L87.8303 285.598L91.4271 285.598L91.4271 286.414L90.1116 286.414L90.1116 290.228L91.4271 290.228L91.4271 291.044L87.8303 291.044ZM92.806 291.044L92.806 286.955L93.597 286.955L93.6719 287.572L93.7052 287.572C93.8995 287.372 94.1132 287.202 94.3464 287.064C94.585 286.925 94.8626 286.856 95.179 286.856C95.6508 286.856 95.9977 287 96.2197 287.288C96.4418 287.577 96.5528 287.985 96.5528 288.512L96.5528 291.044L95.5869 291.044L95.5869 288.637C95.5869 288.31 95.5287 288.068 95.4121 287.913C95.2955 287.758 95.0985 287.68 94.8209 287.68C94.6211 287.68 94.4435 287.727 94.2881 287.821C94.1327 287.916 93.9606 288.06 93.7719 288.254L93.7719 291.044L92.806 291.044ZM99.0141 291.044L99.0141 286.731C99.0141 286.409 99.0751 286.123 99.1972 285.873C99.3193 285.618 99.5081 285.421 99.7634 285.282C100.019 285.138 100.346 285.065 100.746 285.065C100.968 285.065 101.179 285.088 101.379 285.132C101.584 285.171 101.778 285.224 101.962 285.29L101.762 285.998C101.612 285.937 101.465 285.892 101.32 285.865C101.182 285.837 101.029 285.823 100.862 285.823C100.552 285.823 100.324 285.901 100.18 286.056C100.035 286.206 99.9632 286.425 99.9632 286.714L99.9632 291.044L99.0141 291.044ZM97.8817 287.713L97.8817 286.997L99.039 286.955L101.52 286.955L101.52 287.713L97.8817 287.713ZM103.191 291.044L103.191 286.955L103.982 286.955L104.065 287.88L104.09 287.88C104.295 287.547 104.548 287.294 104.847 287.122C105.153 286.944 105.48 286.856 105.83 286.856C105.996 286.856 106.141 286.869 106.263 286.897C106.385 286.925 106.504 286.967 106.621 287.022L106.421 287.83C106.288 287.785 106.168 287.755 106.063 287.738C105.963 287.716 105.835 287.705 105.68 287.705C105.402 287.705 105.131 287.785 104.864 287.946C104.603 288.107 104.367 288.388 104.156 288.787L104.156 291.044L103.191 291.044ZM109.057 291.143C108.791 291.143 108.555 291.094 108.349 290.994C108.144 290.888 107.983 290.747 107.867 290.569C107.75 290.391 107.692 290.183 107.692 289.945C107.692 289.489 107.908 289.142 108.341 288.904C108.78 288.66 109.504 288.501 110.514 288.429C110.503 288.279 110.462 288.143 110.389 288.021C110.323 287.899 110.22 287.805 110.081 287.738C109.943 287.666 109.762 287.63 109.54 287.63C109.385 287.63 109.232 287.649 109.082 287.688C108.932 287.727 108.782 287.78 108.633 287.846C108.488 287.913 108.344 287.985 108.2 288.063L107.85 287.422C108.016 287.322 108.2 287.23 108.399 287.147C108.599 287.058 108.81 286.989 109.032 286.939C109.254 286.883 109.482 286.856 109.715 286.856C110.098 286.856 110.417 286.925 110.672 287.064C110.933 287.197 111.13 287.397 111.264 287.663C111.402 287.924 111.472 288.243 111.472 288.621L111.472 291.044L110.689 291.044L110.614 290.536L110.589 290.536C110.373 290.702 110.131 290.847 109.865 290.969C109.604 291.085 109.335 291.143 109.057 291.143ZM109.349 290.394C109.554 290.394 109.751 290.35 109.94 290.261C110.134 290.167 110.326 290.044 110.514 289.895L110.514 289.029C110.026 289.062 109.643 289.117 109.365 289.195C109.088 289.267 108.893 289.362 108.782 289.478C108.671 289.595 108.616 289.725 108.616 289.87C108.616 289.992 108.649 290.092 108.716 290.169C108.782 290.247 108.868 290.305 108.974 290.344C109.085 290.377 109.21 290.394 109.349 290.394ZM114.616 291.143C114.233 291.143 113.866 291.082 113.517 290.96C113.167 290.833 112.865 290.683 112.609 290.511L113.025 289.903C113.27 290.064 113.533 290.192 113.816 290.286C114.1 290.375 114.408 290.419 114.741 290.419C115.024 290.419 115.232 290.372 115.365 290.278C115.504 290.178 115.573 290.061 115.573 289.928C115.573 289.861 115.557 289.8 115.523 289.745C115.496 289.689 115.443 289.639 115.365 289.595C115.287 289.545 115.174 289.498 115.024 289.453C114.874 289.409 114.68 289.362 114.441 289.312C113.897 289.195 113.497 289.037 113.242 288.837C112.987 288.637 112.859 288.385 112.859 288.079C112.859 287.719 113.014 287.424 113.325 287.197C113.642 286.969 114.086 286.856 114.657 286.856C114.996 286.856 115.312 286.911 115.607 287.022C115.906 287.133 116.159 287.258 116.364 287.397L115.923 287.988C115.729 287.855 115.515 287.755 115.282 287.688C115.049 287.616 114.813 287.58 114.574 287.58C114.391 287.58 114.244 287.599 114.133 287.638C114.027 287.677 113.947 287.733 113.891 287.805C113.841 287.871 113.816 287.946 113.816 288.03C113.816 288.174 113.9 288.282 114.066 288.354C114.233 288.426 114.505 288.504 114.882 288.587C115.321 288.682 115.659 288.79 115.898 288.912C116.137 289.029 116.3 289.165 116.389 289.32C116.484 289.47 116.531 289.656 116.531 289.878C116.531 290.111 116.456 290.325 116.306 290.519C116.162 290.708 115.948 290.86 115.665 290.977C115.382 291.088 115.032 291.143 114.616 291.143ZM120.341 291.143C119.925 291.143 119.594 291.071 119.35 290.927C119.106 290.777 118.931 290.572 118.826 290.311C118.72 290.05 118.667 289.747 118.667 289.403L118.667 287.713L117.577 287.713L117.577 286.997L118.709 286.955L118.834 285.673L119.625 285.673L119.625 286.955L121.49 286.955L121.49 287.713L119.625 287.713L119.625 289.395C119.625 289.617 119.655 289.803 119.716 289.953C119.777 290.097 119.877 290.205 120.016 290.278C120.155 290.344 120.338 290.377 120.566 290.377C120.743 290.377 120.904 290.364 121.049 290.336C121.193 290.308 121.332 290.269 121.465 290.219L121.648 290.91C121.465 290.971 121.268 291.024 121.057 291.069C120.846 291.119 120.607 291.143 120.341 291.143ZM123.16 291.044L123.16 286.955L123.951 286.955L124.034 287.88L124.059 287.88C124.265 287.547 124.517 287.294 124.817 287.122C125.122 286.944 125.45 286.856 125.8 286.856C125.966 286.856 126.11 286.869 126.233 286.897C126.355 286.925 126.474 286.967 126.591 287.022L126.391 287.83C126.258 287.785 126.138 287.755 126.033 287.738C125.933 287.716 125.805 287.705 125.65 287.705C125.372 287.705 125.1 287.785 124.834 287.946C124.573 288.107 124.337 288.388 124.126 288.787L124.126 291.044L123.16 291.044ZM129.019 291.143C128.541 291.143 128.194 290.999 127.978 290.711C127.761 290.422 127.653 290.014 127.653 289.487L127.653 286.955L128.611 286.955L128.611 289.362C128.611 289.689 128.666 289.931 128.777 290.086C128.894 290.241 129.093 290.319 129.377 290.319C129.565 290.319 129.737 290.275 129.893 290.186C130.054 290.092 130.223 289.933 130.401 289.711L130.401 286.955L131.358 286.955L131.358 291.044L130.576 291.044L130.501 290.394L130.467 290.394C130.273 290.616 130.059 290.797 129.826 290.935C129.593 291.074 129.324 291.143 129.019 291.143ZM134.927 291.143C134.499 291.143 134.114 291.06 133.77 290.894C133.431 290.722 133.162 290.477 132.962 290.161C132.768 289.839 132.67 289.453 132.67 289.004C132.67 288.549 132.776 288.163 132.987 287.846C133.203 287.524 133.489 287.28 133.844 287.114C134.2 286.942 134.583 286.856 134.993 286.856C135.326 286.856 135.621 286.911 135.876 287.022C136.131 287.128 136.342 287.264 136.509 287.43L136.051 288.03C135.89 287.902 135.726 287.805 135.56 287.738C135.399 287.671 135.227 287.638 135.043 287.638C134.771 287.638 134.53 287.696 134.319 287.813C134.114 287.924 133.953 288.082 133.836 288.288C133.72 288.493 133.661 288.732 133.661 289.004C133.661 289.276 133.717 289.514 133.828 289.72C133.944 289.925 134.103 290.083 134.302 290.194C134.508 290.305 134.746 290.361 135.018 290.361C135.252 290.361 135.465 290.316 135.66 290.228C135.854 290.139 136.029 290.033 136.184 289.911L136.584 290.527C136.351 290.727 136.09 290.88 135.801 290.985C135.512 291.091 135.221 291.143 134.927 291.143ZM140.311 291.143C139.894 291.143 139.564 291.071 139.32 290.927C139.076 290.777 138.901 290.572 138.795 290.311C138.69 290.05 138.637 289.747 138.637 289.403L138.637 287.713L137.546 287.713L137.546 286.997L138.679 286.955L138.804 285.673L139.595 285.673L139.595 286.955L141.46 286.955L141.46 287.713L139.595 287.713L139.595 289.395C139.595 289.617 139.625 289.803 139.686 289.953C139.747 290.097 139.847 290.205 139.986 290.278C140.125 290.344 140.308 290.377 140.535 290.377C140.713 290.377 140.874 290.364 141.018 290.336C141.163 290.308 141.301 290.269 141.435 290.219L141.618 290.91C141.435 290.971 141.238 291.024 141.027 291.069C140.816 291.119 140.577 291.143 140.311 291.143ZM143.996 291.143C143.518 291.143 143.172 290.999 142.955 290.711C142.739 290.422 142.63 290.014 142.63 289.487L142.63 286.955L143.588 286.955L143.588 289.362C143.588 289.689 143.643 289.931 143.754 290.086C143.871 290.241 144.071 290.319 144.354 290.319C144.543 290.319 144.715 290.275 144.87 290.186C145.031 290.092 145.2 289.933 145.378 289.711L145.378 286.955L146.335 286.955L146.335 291.044L145.553 291.044L145.478 290.394L145.445 290.394C145.25 290.616 145.037 290.797 144.803 290.935C144.57 291.074 144.301 291.143 143.996 291.143ZM148.122 291.044L148.122 286.955L148.913 286.955L148.997 287.88L149.022 287.88C149.227 287.547 149.479 287.294 149.779 287.122C150.084 286.944 150.412 286.856 150.762 286.856C150.928 286.856 151.073 286.869 151.195 286.897C151.317 286.925 151.436 286.967 151.553 287.022L151.353 287.83C151.22 287.785 151.1 287.755 150.995 287.738C150.895 287.716 150.767 287.705 150.612 287.705C150.334 287.705 150.062 287.785 149.796 287.946C149.535 288.107 149.299 288.388 149.088 288.787L149.088 291.044L148.122 291.044ZM154.78 291.143C154.364 291.143 153.986 291.06 153.648 290.894C153.309 290.722 153.04 290.477 152.84 290.161C152.64 289.839 152.54 289.451 152.54 288.995C152.54 288.551 152.64 288.171 152.84 287.855C153.04 287.533 153.301 287.286 153.623 287.114C153.945 286.942 154.289 286.856 154.655 286.856C155.06 286.856 155.402 286.939 155.679 287.105C155.962 287.272 156.176 287.502 156.32 287.796C156.47 288.085 156.545 288.418 156.545 288.796C156.545 288.89 156.54 288.981 156.528 289.07C156.523 289.154 156.515 289.223 156.503 289.278L153.231 289.278L153.231 288.596L155.887 288.596L155.704 288.812C155.704 288.407 155.613 288.104 155.429 287.905C155.252 287.699 155.002 287.597 154.68 287.597C154.452 287.597 154.247 287.649 154.064 287.755C153.886 287.86 153.745 288.018 153.639 288.229C153.534 288.435 153.481 288.69 153.481 288.995C153.481 289.312 153.539 289.573 153.656 289.778C153.778 289.983 153.945 290.139 154.155 290.244C154.372 290.35 154.622 290.402 154.905 290.402C155.121 290.402 155.321 290.372 155.504 290.311C155.688 290.25 155.871 290.167 156.054 290.061L156.379 290.661C156.162 290.799 155.918 290.916 155.646 291.01C155.374 291.099 155.085 291.143 154.78 291.143Z" fill="white"/>
<rect x="421.244" y="293.055" width="91.6584" height="15.6418" rx="7.82092" fill="#111113"/>
<rect x="421.244" y="293.055" width="91.6584" height="15.6418" rx="7.82092" stroke="#F67448" stroke-width="0.348168"/>
<path d="M437.723 303.876L437.723 298.43L439.155 298.43C439.688 298.43 440.146 298.53 440.529 298.73C440.918 298.93 441.212 299.23 441.412 299.629C441.617 300.029 441.72 300.529 441.72 301.128C441.72 301.733 441.617 302.241 441.412 302.652C441.212 303.057 440.923 303.362 440.546 303.568C440.168 303.773 439.721 303.876 439.205 303.876L437.723 303.876ZM438.689 303.093L439.097 303.093C439.447 303.093 439.741 303.024 439.98 302.885C440.224 302.74 440.41 302.524 440.537 302.235C440.665 301.947 440.729 301.578 440.729 301.128C440.729 300.684 440.665 300.32 440.537 300.037C440.41 299.754 440.224 299.546 439.98 299.413C439.741 299.28 439.447 299.213 439.097 299.213L438.689 299.213L438.689 303.093ZM444.814 303.976C444.397 303.976 444.02 303.892 443.681 303.726C443.343 303.554 443.074 303.309 442.874 302.993C442.674 302.671 442.574 302.283 442.574 301.827C442.574 301.383 442.674 301.003 442.874 300.687C443.074 300.365 443.334 300.118 443.656 299.946C443.978 299.774 444.323 299.688 444.689 299.688C445.094 299.688 445.435 299.771 445.713 299.937C445.996 300.104 446.21 300.334 446.354 300.628C446.504 300.917 446.579 301.25 446.579 301.628C446.579 301.722 446.573 301.814 446.562 301.902C446.557 301.986 446.548 302.055 446.537 302.11L443.265 302.11L443.265 301.428L445.921 301.428L445.738 301.644C445.738 301.239 445.646 300.936 445.463 300.737C445.286 300.531 445.036 300.429 444.714 300.429C444.486 300.429 444.281 300.481 444.098 300.587C443.92 300.692 443.779 300.85 443.673 301.061C443.568 301.267 443.515 301.522 443.515 301.827C443.515 302.144 443.573 302.405 443.69 302.61C443.812 302.815 443.978 302.971 444.189 303.076C444.406 303.182 444.656 303.234 444.939 303.234C445.155 303.234 445.355 303.204 445.538 303.143C445.721 303.082 445.904 302.999 446.088 302.893L446.412 303.493C446.196 303.631 445.952 303.748 445.68 303.842C445.408 303.931 445.119 303.976 444.814 303.976ZM447.741 305.491L447.741 299.787L448.532 299.787L448.607 300.254L448.632 300.254C448.81 300.087 449.012 299.951 449.24 299.846C449.473 299.74 449.706 299.688 449.939 299.688C450.3 299.688 450.603 299.774 450.847 299.946C451.091 300.118 451.28 300.359 451.413 300.67C451.546 300.981 451.613 301.347 451.613 301.769C451.613 302.235 451.527 302.632 451.355 302.96C451.183 303.287 450.958 303.54 450.68 303.717C450.408 303.889 450.114 303.976 449.798 303.976C449.615 303.976 449.423 303.934 449.223 303.851C449.029 303.767 448.849 303.648 448.682 303.493L448.657 303.493L448.707 304.209L448.707 305.491L447.741 305.491ZM449.598 303.185C449.792 303.185 449.967 303.132 450.123 303.026C450.278 302.921 450.4 302.765 450.489 302.56C450.578 302.349 450.622 302.088 450.622 301.777C450.622 301.505 450.589 301.272 450.522 301.078C450.456 300.884 450.353 300.737 450.214 300.637C450.081 300.531 449.901 300.479 449.673 300.479C449.518 300.479 449.359 300.517 449.198 300.595C449.037 300.673 448.874 300.798 448.707 300.97L448.707 302.81C448.857 302.943 449.012 303.04 449.173 303.101C449.334 303.157 449.476 303.185 449.598 303.185ZM454.799 303.976C454.382 303.976 454.005 303.892 453.666 303.726C453.328 303.554 453.058 303.309 452.859 302.993C452.659 302.671 452.559 302.283 452.559 301.827C452.559 301.383 452.659 301.003 452.859 300.687C453.058 300.365 453.319 300.118 453.641 299.946C453.963 299.774 454.307 299.688 454.674 299.688C455.079 299.688 455.42 299.771 455.698 299.937C455.981 300.104 456.195 300.334 456.339 300.628C456.489 300.917 456.564 301.25 456.564 301.628C456.564 301.722 456.558 301.814 456.547 301.902C456.542 301.986 456.533 302.055 456.522 302.11L453.25 302.11L453.25 301.428L455.906 301.428L455.723 301.644C455.723 301.239 455.631 300.936 455.448 300.737C455.27 300.531 455.021 300.429 454.699 300.429C454.471 300.429 454.266 300.481 454.083 300.587C453.905 300.692 453.763 300.85 453.658 301.061C453.552 301.267 453.5 301.522 453.5 301.827C453.5 302.144 453.558 302.405 453.675 302.61C453.797 302.815 453.963 302.971 454.174 303.076C454.391 303.182 454.64 303.234 454.924 303.234C455.14 303.234 455.34 303.204 455.523 303.143C455.706 303.082 455.889 302.999 456.073 302.893L456.397 303.493C456.181 303.631 455.937 303.748 455.665 303.842C455.393 303.931 455.104 303.976 454.799 303.976ZM457.726 303.876L457.726 299.787L458.517 299.787L458.592 300.404L458.625 300.404C458.82 300.204 459.033 300.034 459.266 299.896C459.505 299.757 459.783 299.688 460.099 299.688C460.571 299.688 460.918 299.832 461.14 300.121C461.362 300.409 461.473 300.817 461.473 301.344L461.473 303.876L460.507 303.876L460.507 301.469C460.507 301.142 460.449 300.9 460.332 300.745C460.216 300.59 460.019 300.512 459.741 300.512C459.541 300.512 459.364 300.559 459.208 300.653C459.053 300.748 458.881 300.892 458.692 301.086L458.692 303.876L457.726 303.876ZM464.226 303.976C463.704 303.976 463.282 303.787 462.96 303.409C462.638 303.032 462.477 302.507 462.477 301.836C462.477 301.392 462.563 301.009 462.735 300.687C462.907 300.365 463.132 300.118 463.41 299.946C463.687 299.774 463.979 299.688 464.284 299.688C464.517 299.688 464.722 299.729 464.9 299.812C465.083 299.896 465.252 300.015 465.408 300.17L465.433 300.17L465.383 299.479L465.383 297.997L466.349 297.997L466.349 303.876L465.558 303.876L465.483 303.401L465.458 303.401C465.302 303.556 465.117 303.692 464.9 303.809C464.684 303.92 464.459 303.976 464.226 303.976ZM464.459 303.185C464.625 303.185 464.786 303.146 464.942 303.068C465.097 302.985 465.244 302.86 465.383 302.693L465.383 300.853C465.239 300.714 465.094 300.617 464.95 300.562C464.806 300.506 464.659 300.479 464.509 300.479C464.32 300.479 464.145 300.531 463.984 300.637C463.829 300.742 463.704 300.895 463.609 301.095C463.515 301.295 463.468 301.539 463.468 301.827C463.468 302.266 463.554 302.602 463.726 302.835C463.904 303.068 464.148 303.185 464.459 303.185ZM469.776 303.976C469.36 303.976 468.982 303.892 468.644 303.726C468.305 303.554 468.036 303.309 467.836 302.993C467.636 302.671 467.536 302.283 467.536 301.827C467.536 301.383 467.636 301.003 467.836 300.687C468.036 300.365 468.297 300.118 468.619 299.946C468.94 299.774 469.285 299.688 469.651 299.688C470.056 299.688 470.398 299.771 470.675 299.937C470.958 300.104 471.172 300.334 471.316 300.628C471.466 300.917 471.541 301.25 471.541 301.628C471.541 301.722 471.535 301.814 471.524 301.902C471.519 301.986 471.51 302.055 471.499 302.11L468.227 302.11L468.227 301.428L470.883 301.428L470.7 301.644C470.7 301.239 470.608 300.936 470.425 300.737C470.248 300.531 469.998 300.429 469.676 300.429C469.448 300.429 469.243 300.481 469.06 300.587C468.882 300.692 468.741 300.85 468.635 301.061C468.53 301.267 468.477 301.522 468.477 301.827C468.477 302.144 468.535 302.405 468.652 302.61C468.774 302.815 468.94 302.971 469.151 303.076C469.368 303.182 469.618 303.234 469.901 303.234C470.117 303.234 470.317 303.204 470.5 303.143C470.683 303.082 470.867 302.999 471.05 302.893L471.374 303.493C471.158 303.631 470.914 303.748 470.642 303.842C470.37 303.931 470.081 303.976 469.776 303.976ZM472.703 303.876L472.703 299.787L473.494 299.787L473.569 300.404L473.603 300.404C473.797 300.204 474.011 300.034 474.244 299.896C474.482 299.757 474.76 299.688 475.076 299.688C475.548 299.688 475.895 299.832 476.117 300.121C476.339 300.409 476.45 300.817 476.45 301.344L476.45 303.876L475.484 303.876L475.484 301.469C475.484 301.142 475.426 300.9 475.31 300.745C475.193 300.59 474.996 300.512 474.718 300.512C474.519 300.512 474.341 300.559 474.185 300.653C474.03 300.748 473.858 300.892 473.669 301.086L473.669 303.876L472.703 303.876ZM479.877 303.976C479.45 303.976 479.064 303.892 478.72 303.726C478.381 303.554 478.112 303.309 477.912 302.993C477.718 302.671 477.621 302.285 477.621 301.836C477.621 301.381 477.726 300.995 477.937 300.678C478.154 300.356 478.44 300.112 478.795 299.946C479.15 299.774 479.533 299.688 479.944 299.688C480.277 299.688 480.571 299.743 480.826 299.854C481.082 299.96 481.293 300.096 481.459 300.262L481.001 300.862C480.84 300.734 480.677 300.637 480.51 300.57C480.349 300.504 480.177 300.47 479.994 300.47C479.722 300.47 479.48 300.529 479.269 300.645C479.064 300.756 478.903 300.914 478.787 301.12C478.67 301.325 478.612 301.564 478.612 301.836C478.612 302.108 478.667 302.346 478.778 302.552C478.895 302.757 479.053 302.915 479.253 303.026C479.458 303.137 479.697 303.193 479.969 303.193C480.202 303.193 480.416 303.148 480.61 303.06C480.804 302.971 480.979 302.865 481.135 302.743L481.534 303.359C481.301 303.559 481.04 303.712 480.752 303.817C480.463 303.923 480.171 303.976 479.877 303.976ZM484.478 303.876L484.478 300.545L482.705 300.545L482.705 299.787L485.436 299.787L485.436 303.876L484.478 303.876ZM484.886 299.038C484.692 299.038 484.528 298.98 484.395 298.863C484.267 298.747 484.204 298.591 484.204 298.397C484.204 298.203 484.267 298.047 484.395 297.931C484.528 297.809 484.692 297.748 484.886 297.748C485.086 297.748 485.25 297.809 485.378 297.931C485.505 298.047 485.569 298.203 485.569 298.397C485.569 298.591 485.505 298.747 485.378 298.863C485.25 298.98 485.086 299.038 484.886 299.038ZM489.746 303.976C489.329 303.976 488.952 303.892 488.613 303.726C488.275 303.554 488.005 303.309 487.806 302.993C487.606 302.671 487.506 302.283 487.506 301.827C487.506 301.383 487.606 301.003 487.806 300.687C488.005 300.365 488.266 300.118 488.588 299.946C488.91 299.774 489.254 299.688 489.621 299.688C490.026 299.688 490.367 299.771 490.645 299.937C490.928 300.104 491.142 300.334 491.286 300.628C491.436 300.917 491.511 301.25 491.511 301.628C491.511 301.722 491.505 301.814 491.494 301.902C491.489 301.986 491.48 302.055 491.469 302.11L488.197 302.11L488.197 301.428L490.853 301.428L490.67 301.644C490.67 301.239 490.578 300.936 490.395 300.737C490.217 300.531 489.968 300.429 489.646 300.429C489.418 300.429 489.213 300.481 489.03 300.587C488.852 300.692 488.71 300.85 488.605 301.061C488.499 301.267 488.447 301.522 488.447 301.827C488.447 302.144 488.505 302.405 488.622 302.61C488.744 302.815 488.91 302.971 489.121 303.076C489.338 303.182 489.587 303.234 489.87 303.234C490.087 303.234 490.287 303.204 490.47 303.143C490.653 303.082 490.836 302.999 491.019 302.893L491.344 303.493C491.128 303.631 490.883 303.748 490.611 303.842C490.339 303.931 490.051 303.976 489.746 303.976ZM494.513 303.976C494.13 303.976 493.764 303.914 493.414 303.792C493.064 303.665 492.762 303.515 492.507 303.343L492.923 302.735C493.167 302.896 493.431 303.024 493.714 303.118C493.997 303.207 494.305 303.251 494.638 303.251C494.921 303.251 495.129 303.204 495.263 303.11C495.401 303.01 495.471 302.893 495.471 302.76C495.471 302.693 495.454 302.632 495.421 302.577C495.393 302.521 495.34 302.471 495.263 302.427C495.185 302.377 495.071 302.33 494.921 302.285C494.771 302.241 494.577 302.194 494.338 302.144C493.794 302.027 493.395 301.869 493.139 301.669C492.884 301.469 492.756 301.217 492.756 300.912C492.756 300.551 492.912 300.257 493.223 300.029C493.539 299.801 493.983 299.688 494.555 299.688C494.893 299.688 495.21 299.743 495.504 299.854C495.804 299.965 496.056 300.09 496.262 300.229L495.82 300.82C495.626 300.687 495.412 300.587 495.179 300.52C494.946 300.448 494.71 300.412 494.472 300.412C494.288 300.412 494.141 300.431 494.03 300.47C493.925 300.509 493.844 300.565 493.789 300.637C493.739 300.703 493.714 300.778 493.714 300.862C493.714 301.006 493.797 301.114 493.964 301.186C494.13 301.258 494.402 301.336 494.78 301.419C495.218 301.514 495.557 301.622 495.795 301.744C496.034 301.861 496.198 301.997 496.287 302.152C496.381 302.302 496.428 302.488 496.428 302.71C496.428 302.943 496.353 303.157 496.203 303.351C496.059 303.54 495.845 303.692 495.562 303.809C495.279 303.92 494.929 303.976 494.513 303.976Z" fill="white"/>
</g>
<defs>
<filter id="filter0_b_11250_23493" x="60.2601" y="63.4089" width="500.506" height="343.169" filterUnits="userSpaceOnUse" color-interpolation-filters="sRGB">
<feFlood flood-opacity="0" result="BackgroundImageFix"/>
<feGaussianBlur in="BackgroundImageFix" stdDeviation="32.0606"/>
<feComposite in2="SourceAlpha" operator="in" result="effect1_backgroundBlur_11250_23493"/>
<feBlend mode="normal" in="SourceGraphic" in2="effect1_backgroundBlur_11250_23493" result="shape"/>
</filter>
<filter id="filter1_d_11250_23493" x="175.279" y="162.493" width="254.612" height="152.785" filterUnits="userSpaceOnUse" color-interpolation-filters="sRGB">
<feFlood flood-opacity="0" result="BackgroundImageFix"/>
<feColorMatrix in="SourceAlpha" type="matrix" values="0 0 0 0 0 0 0 0 0 0 0 0 0 0 0 0 0 0 127 0" result="hardAlpha"/>
<feOffset dy="6.84365"/>
<feGaussianBlur stdDeviation="3.42183"/>
<feComposite in2="hardAlpha" operator="out"/>
<feColorMatrix type="matrix" values="0 0 0 0 0.432266 0 0 0 0 0.00354165 0 0 0 0 0.846458 0 0 0 1 0"/>
<feBlend mode="screen" in2="BackgroundImageFix" result="effect1_dropShadow_11250_23493"/>
<feBlend mode="normal" in="SourceGraphic" in2="effect1_dropShadow_11250_23493" result="shape"/>
</filter>
<filter id="filter2_f_11250_23493" x="57.8059" y="19.359" width="504.055" height="437.563" filterUnits="userSpaceOnUse" color-interpolation-filters="sRGB">
<feFlood flood-opacity="0" result="BackgroundImageFix"/>
<feBlend mode="normal" in="SourceGraphic" in2="BackgroundImageFix" result="shape"/>
<feGaussianBlur stdDeviation="63.495" result="effect1_foregroundBlur_11250_23493"/>
</filter>
<filter id="filter3_f_11250_23493" x="-56.5843" y="18.584" width="777.398" height="465.287" filterUnits="userSpaceOnUse" color-interpolation-filters="sRGB">
<feFlood flood-opacity="0" result="BackgroundImageFix"/>
<feBlend mode="normal" in="SourceGraphic" in2="BackgroundImageFix" result="shape"/>
<feGaussianBlur stdDeviation="9.73378" result="effect1_foregroundBlur_11250_23493"/>
</filter>
<filter id="filter4_f_11250_23493" x="143.657" y="279.427" width="96.0716" height="65.7412" filterUnits="userSpaceOnUse" color-interpolation-filters="sRGB">
<feFlood flood-opacity="0" result="BackgroundImageFix"/>
<feBlend mode="normal" in="SourceGraphic" in2="BackgroundImageFix" result="shape"/>
<feGaussianBlur stdDeviation="6.28317" result="effect1_foregroundBlur_11250_23493"/>
</filter>
<filter id="filter5_f_11250_23493" x="187.085" y="84.7517" width="96.0716" height="65.7412" filterUnits="userSpaceOnUse" color-interpolation-filters="sRGB">
<feFlood flood-opacity="0" result="BackgroundImageFix"/>
<feBlend mode="normal" in="SourceGraphic" in2="BackgroundImageFix" result="shape"/>
<feGaussianBlur stdDeviation="6.28317" result="effect1_foregroundBlur_11250_23493"/>
</filter>
<filter id="filter6_d_11250_23493" x="130.192" y="86.6858" width="342.863" height="299.018" filterUnits="userSpaceOnUse" color-interpolation-filters="sRGB">
<feFlood flood-opacity="0" result="BackgroundImageFix"/>
<feColorMatrix in="SourceAlpha" type="matrix" values="0 0 0 0 0 0 0 0 0 0 0 0 0 0 0 0 0 0 127 0" result="hardAlpha"/>
<feOffset dy="8.24341"/>
<feGaussianBlur stdDeviation="49.5567"/>
<feComposite in2="hardAlpha" operator="out"/>
<feColorMatrix type="matrix" values="0 0 0 0 0.506336 0 0 0 0 0.118457 0 0 0 0 1 0 0 0 1 0"/>
<feBlend mode="soft-light" in2="BackgroundImageFix" result="effect1_dropShadow_11250_23493"/>
<feBlend mode="normal" in="SourceGraphic" in2="effect1_dropShadow_11250_23493" result="shape"/>
</filter>
<filter id="filter7_f_11250_23493" x="80.5175" y="38.3329" width="290.994" height="290.994" filterUnits="userSpaceOnUse" color-interpolation-filters="sRGB">
<feFlood flood-opacity="0" result="BackgroundImageFix"/>
<feBlend mode="normal" in="SourceGraphic" in2="BackgroundImageFix" result="shape"/>
<feGaussianBlur stdDeviation="48.3179" result="effect1_foregroundBlur_11250_23493"/>
</filter>
<filter id="filter8_f_11250_23493" x="435.508" y="205.2" width="96.0716" height="65.7412" filterUnits="userSpaceOnUse" color-interpolation-filters="sRGB">
<feFlood flood-opacity="0" result="BackgroundImageFix"/>
<feBlend mode="normal" in="SourceGraphic" in2="BackgroundImageFix" result="shape"/>
<feGaussianBlur stdDeviation="6.28317" result="effect1_foregroundBlur_11250_23493"/>
</filter>
<linearGradient id="paint0_linear_11250_23493" x1="121.966" y1="0" x2="121.966" y2="174.908" gradientUnits="userSpaceOnUse">
<stop stop-color="#6218FF" stop-opacity="0"/>
<stop offset="1" stop-color="#6117FF"/>
</linearGradient>
<linearGradient id="paint1_linear_11250_23493" x1="230.467" y1="146.683" x2="315.991" y2="293.929" gradientUnits="userSpaceOnUse">
<stop offset="0.015625" stop-color="#B010FB"/>
<stop offset="0.130208" stop-color="#DE97FF"/>
<stop offset="0.234375" stop-color="#A227DB"/>
<stop offset="0.505208" stop-color="#A227DB" stop-opacity="0"/>
<stop offset="0.765625" stop-color="#A610EC" stop-opacity="0.84"/>
</linearGradient>
<linearGradient id="paint2_linear_11250_23493" x1="230.467" y1="146.683" x2="315.991" y2="293.93" gradientUnits="userSpaceOnUse">
<stop offset="0.015625" stop-color="#B010FB"/>
<stop offset="0.130208" stop-color="#DE97FF"/>
<stop offset="0.234375" stop-color="#A227DB"/>
<stop offset="0.505208" stop-color="#A227DB" stop-opacity="0"/>
<stop offset="0.765625" stop-color="#A610EC" stop-opacity="0.84"/>
</linearGradient>
<clipPath id="clip0_11250_23493">
<rect width="603.494" height="450" fill="white" transform="translate(0.320801)"/>
</clipPath>
<clipPath id="clip1_11250_23493">
<rect width="37.3037" height="37.3037" fill="white" transform="matrix(0.866025 -0.5 0.866025 0.5 159.735 305.429)"/>
</clipPath>
<clipPath id="clip2_11250_23493">
<rect width="26.8708" height="26.8708" fill="white" transform="matrix(0.866025 -0.5 0.866025 0.5 211.625 109.256)"/>
</clipPath>
<clipPath id="clip3_11250_23493">
<rect width="32.6942" height="32.6942" fill="white" transform="matrix(0.866025 -0.5 0.866025 0.5 453.732 228.444)"/>
</clipPath>
</defs>
</svg>
