<svg width="371" height="232" viewBox="0 0 371 232" fill="none" xmlns="http://www.w3.org/2000/svg">
<rect x="0.537109" y="1.5" width="369" height="229" rx="7.5" fill="#161617"/>
<rect x="0.537109" y="1.5" width="369" height="229" rx="7.5" stroke="#252526"/>
<g clip-path="url(#clip0_11425_45514)">
<g opacity="0.7" filter="url(#filter0_f_11425_45514)">
<rect width="124.792" height="89.48" transform="matrix(-0.999351 -0.0360302 -0.0360302 0.999351 252.977 64.9375)" fill="url(#paint0_linear_11425_45514)"/>
</g>
<g filter="url(#filter1_b_11425_45514)">
<ellipse cx="90.028" cy="90.028" rx="90.028" ry="90.028" transform="matrix(1.12678 -0.277104 0.479958 0.650549 41.2583 72.1699)" fill="black" fill-opacity="0.08"/>
<path d="M282.99 75.5989C283.887 76.5628 284.745 77.5446 285.564 78.5442L285.363 78.599C285.981 79.3538 286.576 80.1188 287.148 80.8936C287.719 81.6685 288.262 82.4463 288.777 83.2265L288.984 83.1809C289.666 84.2141 290.297 85.2518 290.88 86.2929L290.668 86.3323C291.566 87.9376 292.347 89.5512 293.014 91.1696L293.23 91.1399C293.672 92.2142 294.064 93.2907 294.406 94.3683L294.188 94.3914C294.713 96.0466 295.121 97.7046 295.414 99.3617L295.635 99.3487C295.829 100.446 295.972 101.543 296.066 102.639L295.844 102.645C295.988 104.324 296.015 106 295.928 107.669L296.15 107.673C296.092 108.774 295.985 109.872 295.829 110.966L295.607 110.956C295.368 112.629 295.015 114.292 294.55 115.941L294.769 115.962C294.463 117.049 294.108 118.13 293.705 119.204L293.488 119.176C292.874 120.815 292.148 122.437 291.314 124.04L291.527 124.077C290.979 125.13 290.384 126.175 289.743 127.211L289.533 127.168C288.556 128.745 287.472 130.299 286.284 131.827L286.487 131.88C285.707 132.883 284.882 133.875 284.013 134.854L283.815 134.795C282.493 136.284 281.069 137.744 279.546 139.171L279.735 139.239C278.737 140.174 277.696 141.096 276.613 142.002L276.43 141.929C274.785 143.304 273.044 144.645 271.209 145.947L271.381 146.028C270.181 146.879 268.94 147.714 267.66 148.531L267.495 148.445C265.556 149.683 263.525 150.881 261.406 152.034L261.559 152.128C260.176 152.88 258.757 153.614 257.3 154.328L257.156 154.23C254.956 155.308 252.672 156.34 250.307 157.323L250.437 157.427C248.897 158.068 247.323 158.687 245.715 159.285L245.594 159.177C243.172 160.077 240.672 160.928 238.098 161.727L238.203 161.84C236.534 162.357 234.833 162.853 233.102 163.325L233.007 163.209C231.7 163.566 230.375 163.91 229.033 164.24C227.69 164.57 226.343 164.883 224.992 165.181L225.071 165.301C223.281 165.694 221.484 166.059 219.681 166.395L219.612 166.273C216.832 166.791 214.037 167.242 211.234 167.627L211.285 167.752C209.425 168.007 207.56 168.233 205.694 168.431L205.654 168.305C202.787 168.608 199.915 168.843 197.045 169.012L197.067 169.14C195.167 169.252 193.267 169.335 191.369 169.389L191.358 169.261C188.45 169.344 185.547 169.359 182.657 169.309L182.65 169.437C180.742 169.404 178.84 169.342 176.945 169.252L176.963 169.124C174.066 168.986 171.185 168.782 168.328 168.514L168.292 168.64C166.41 168.463 164.538 168.258 162.678 168.026L162.725 167.901C159.887 167.546 157.077 167.127 154.301 166.646L154.237 166.769C152.412 166.452 150.602 166.108 148.809 165.738L148.884 165.617C146.152 165.053 143.46 164.428 140.813 163.741L140.722 163.859C138.985 163.408 137.267 162.932 135.571 162.43L135.672 162.316C133.093 161.553 130.564 160.731 128.092 159.851L127.976 159.96C126.356 159.384 124.76 158.783 123.19 158.158L123.317 158.052C120.934 157.103 118.612 156.097 116.357 155.038L116.217 155.137C114.742 154.444 113.296 153.728 111.881 152.989L112.03 152.894C109.885 151.774 107.811 150.602 105.813 149.378L105.652 149.466C104.348 148.668 103.078 147.848 101.841 147.007L102.011 146.924C100.144 145.654 98.3559 144.336 96.6527 142.97L96.4723 143.045C95.3635 142.156 94.2905 141.247 93.2553 140.319L93.4422 140.249C91.8826 138.85 90.4085 137.407 89.0258 135.921L88.8299 135.982C87.9332 135.018 87.0748 134.036 86.2564 133.037L86.4574 132.982C85.8394 132.227 85.2442 131.462 84.6725 130.687C84.1009 129.912 83.5579 129.135 83.0434 128.354L82.8356 128.4C82.1542 127.367 81.5226 126.329 80.9402 125.288L81.1518 125.249C80.2537 123.643 79.4727 122.03 78.8063 120.411L78.59 120.441C78.1477 119.367 77.7558 118.29 77.4137 117.213L77.6324 117.189C77.1069 115.534 76.699 113.876 76.4063 112.219L76.1851 112.232C75.9912 111.135 75.8477 110.038 75.7539 108.942L75.976 108.936C75.8322 107.257 75.8052 105.581 75.8925 103.912L75.6703 103.908C75.7279 102.807 75.8352 101.709 75.9914 100.614L76.213 100.625C76.4518 98.9523 76.8051 97.2891 77.2703 95.6394L77.0509 95.6187C77.3573 94.5321 77.7122 93.4513 78.1147 92.3773L78.3321 92.4045C78.9463 90.766 79.6717 89.1436 80.5056 87.5412L80.2927 87.5042C80.841 86.4505 81.4362 85.4054 82.0775 84.3701L82.2869 84.4133C83.2637 82.8362 84.3476 81.2817 85.5359 79.7537L85.333 79.7011C86.1131 78.698 86.9381 77.7064 87.8072 76.7272L88.0051 76.7857C89.3267 75.2967 90.7506 73.8366 92.274 72.4094L92.0847 72.3421C93.0832 71.4067 94.1244 70.4853 95.2075 69.5792L95.3905 69.6521C97.0348 68.2764 98.7759 66.9358 100.611 65.6341L100.439 65.5531C101.639 64.7016 102.88 63.8668 104.16 63.0496L104.325 63.1358C106.264 61.8975 108.295 60.6998 110.414 59.5466L110.261 59.4532C111.644 58.7007 113.064 57.9671 114.52 57.2533L114.664 57.3512C116.864 56.2734 119.148 55.241 121.513 54.2577L121.383 54.1535C122.923 53.5133 124.497 52.8939 126.105 52.2962L126.226 52.4041C128.648 51.5036 131.148 50.6526 133.722 49.8543L133.617 49.7412C135.286 49.2234 136.987 48.7279 138.718 48.2554L138.813 48.3714C140.121 48.0146 141.445 47.671 142.788 47.3409C144.13 47.0109 145.477 46.6974 146.828 46.4003L146.749 46.2804C148.539 45.887 150.336 45.5223 152.139 45.1861L152.208 45.3082C154.988 44.7897 157.783 44.3388 160.586 43.9541L160.535 43.8292C162.395 43.5738 164.26 43.3476 166.126 43.15L166.166 43.2763C169.033 42.9729 171.905 42.7374 174.775 42.5684L174.753 42.4407C176.653 42.3288 178.553 42.2459 180.451 42.1917L180.462 42.32C183.37 42.2369 186.273 42.2214 189.164 42.2718L189.17 42.1435C191.078 42.1767 192.98 42.2387 194.875 42.3289L194.857 42.4568C197.754 42.5947 200.635 42.7987 203.492 43.0673L203.528 42.9406C205.41 43.1175 207.282 43.3224 209.142 43.5548L209.095 43.6803C211.933 44.0349 214.743 44.4537 217.519 44.9352L217.583 44.8122C219.408 45.1288 221.218 45.4725 223.011 45.8427L222.936 45.9636C225.668 46.5275 228.36 47.1533 231.007 47.8394L231.098 47.7223C232.835 48.1727 234.553 48.649 236.249 49.1507L236.148 49.265C238.727 50.028 241.256 50.8501 243.728 51.7297L243.844 51.6204C245.464 52.1969 247.06 52.798 248.63 53.4233L248.503 53.529C250.886 54.4783 253.208 55.4835 255.463 56.5431L255.603 56.4435C257.078 57.1366 258.524 57.8528 259.939 58.5919L259.79 58.6871C261.935 59.807 264.009 60.9793 266.007 62.2025L266.168 62.1145C267.472 62.9127 268.743 63.7325 269.979 64.5735L269.809 64.6566C271.676 65.9266 273.464 67.2452 275.167 68.6107L275.348 68.5357C276.457 69.4248 277.53 70.3338 278.565 71.2622L278.378 71.3317C279.937 72.7305 281.412 74.1736 282.794 75.6597L282.99 75.5989Z" stroke="#9178D6" stroke-width="0.363102" stroke-linejoin="round" stroke-dasharray="7.04 4.61"/>
</g>
<g filter="url(#filter2_b_11425_45514)">
<ellipse cx="66.1262" cy="66.1262" rx="66.1262" ry="66.1262" transform="matrix(1.12678 -0.277104 0.479958 0.650549 78.6626 80.0967)" fill="black" fill-opacity="0.08"/>
<path d="M254.464 80.8273C255.778 82.1023 256.998 83.4241 258.117 84.7908L257.916 84.8457C258.366 85.3957 258.799 85.9531 259.216 86.5177C259.632 87.0822 260.028 87.6489 260.403 88.2174L260.611 88.1716C261.543 89.5841 262.349 91.0078 263.031 92.4383L262.816 92.4723C263.381 93.6562 263.86 94.8446 264.256 96.0354L264.475 96.0111C264.967 97.4906 265.331 98.9736 265.571 100.455L265.35 100.467C265.547 101.687 265.659 102.906 265.689 104.122L265.911 104.12C265.947 105.622 265.857 107.12 265.644 108.606L265.423 108.596C265.248 109.815 264.991 111.026 264.652 112.228L264.872 112.249C264.455 113.729 263.916 115.195 263.258 116.64L263.043 116.608C262.506 117.789 261.889 118.957 261.195 120.108L261.405 120.15C260.552 121.565 259.583 122.954 258.501 124.315L258.299 124.262C257.417 125.37 256.461 126.459 255.431 127.525L255.625 127.588C254.365 128.893 252.995 130.166 251.519 131.4L251.336 131.327C250.137 132.329 248.869 133.306 247.532 134.254L247.704 134.335C246.074 135.493 244.342 136.608 242.513 137.677L242.354 137.587C240.874 138.452 239.33 139.286 237.724 140.086L237.87 140.184C235.919 141.156 233.876 142.08 231.746 142.95L231.618 142.845C229.903 143.545 228.131 144.21 226.303 144.838L226.417 144.948C224.209 145.707 221.919 146.411 219.552 147.057L219.457 146.941C218.504 147.201 217.539 147.451 216.561 147.691C215.583 147.932 214.602 148.16 213.617 148.377L213.696 148.497C211.25 149.035 208.784 149.5 206.306 149.894L206.247 149.77C204.197 150.096 202.138 150.373 200.076 150.602L200.118 150.728C197.555 151.012 194.987 151.222 192.42 151.361L192.4 151.233C190.287 151.347 188.175 151.412 186.07 151.429L186.073 151.557C183.471 151.578 180.877 151.526 178.302 151.403L178.32 151.275C176.21 151.174 174.111 151.026 172.029 150.83L171.993 150.957C169.429 150.716 166.891 150.405 164.387 150.025L164.443 149.901C162.398 149.591 160.375 149.235 158.38 148.834L158.307 148.955C155.858 148.463 153.451 147.903 151.094 147.279L151.187 147.162C149.267 146.653 147.381 146.101 145.534 145.506L145.426 145.618C143.164 144.891 140.96 144.1 138.823 143.248L138.949 143.142C137.214 142.45 135.522 141.718 133.879 140.946L133.738 141.045C131.734 140.104 129.802 139.104 127.95 138.048L128.106 137.957C126.609 137.102 125.164 136.211 123.777 135.283L123.609 135.367C121.924 134.241 120.325 133.062 118.818 131.832L119 131.758C117.787 130.768 116.635 129.745 115.547 128.689L115.356 128.755C114.042 127.48 112.822 126.158 111.704 124.792L111.905 124.737C111.455 124.187 111.021 123.629 110.605 123.065C110.188 122.5 109.793 121.933 109.418 121.365L109.21 121.411C108.278 119.998 107.472 118.575 106.79 117.144L107.004 117.11C106.44 115.926 105.961 114.738 105.564 113.547L105.346 113.571C104.854 112.092 104.489 110.609 104.25 109.127L104.471 109.115C104.274 107.895 104.161 106.676 104.132 105.461L103.91 105.463C103.873 103.96 103.963 102.463 104.176 100.976L104.398 100.986C104.572 99.7678 104.83 98.5561 105.168 97.354L104.949 97.3334C105.365 95.8532 105.904 94.3877 106.562 92.9419L106.777 92.9745C107.315 91.7935 107.932 90.6258 108.626 89.4741L108.416 89.4319C109.269 88.0178 110.238 86.6279 111.32 85.2672L111.522 85.3208C112.403 84.2125 113.36 83.1237 114.39 82.0572L114.195 81.9947C115.456 80.689 116.826 79.4166 118.302 78.1826L118.485 78.2556C119.684 77.2534 120.952 76.2767 122.289 75.3281L122.116 75.2471C123.747 74.0897 125.479 72.9741 127.308 71.9052L127.466 71.9955C128.946 71.1307 130.49 70.2967 132.096 69.4959L131.951 69.3988C133.902 68.4262 135.944 67.5027 138.075 66.6328L138.203 66.7376C139.918 66.0375 141.69 65.3723 143.517 64.7444L143.404 64.6341C145.612 63.8754 147.901 63.1711 150.269 62.5255L150.364 62.6416C151.316 62.3817 152.282 62.1314 153.26 61.891C154.238 61.6505 155.219 61.422 156.204 61.2054L156.124 61.0854C158.571 60.5472 161.037 60.0821 163.514 59.6884L163.573 59.8122C165.624 59.4863 167.682 59.2095 169.745 58.9807L169.703 58.8547C172.265 58.5704 174.834 58.36 177.4 58.2217L177.421 58.3495C179.534 58.2357 181.645 58.1707 183.751 58.1537L183.748 58.0254C186.35 58.0044 188.943 58.0563 191.519 58.1793L191.5 58.3073C193.611 58.4081 195.71 58.5567 197.792 58.752L197.828 58.6253C200.391 58.8659 202.93 59.1771 205.434 59.5569L205.377 59.6811C207.423 59.9913 209.445 60.3475 211.44 60.7484L211.513 60.6271C213.963 61.1194 216.37 61.6789 218.727 62.3037L218.634 62.4204C220.554 62.9293 222.439 63.4815 224.287 64.076L224.395 63.9639C226.656 64.6917 228.86 65.4827 230.998 66.3349L230.871 66.4405C232.607 67.1325 234.299 67.8649 235.942 68.6365L236.082 68.537C238.087 69.4785 240.019 70.4783 241.87 71.5345L241.714 71.6258C243.212 72.4803 244.657 73.3717 246.043 74.2991L246.212 74.2152C247.896 75.3415 249.496 76.5206 251.003 77.7507L250.821 77.8248C252.034 78.8147 253.186 79.8378 254.273 80.893L254.464 80.8273Z" stroke="url(#paint1_linear_11425_45514)" stroke-width="0.363102" stroke-linejoin="round" stroke-dasharray="4.96 6.07"/>
</g>
<g filter="url(#filter3_d_11425_45514)">
<path d="M242.463 90.5008C248.763 99.2932 248.763 109.236 242.463 118.028L242.052 117.93C239.034 122.141 234.562 126.086 228.632 129.509C222.703 132.932 215.87 135.514 208.578 137.256L208.748 137.494C193.519 141.131 176.297 141.131 161.069 137.494L161.239 137.256C153.946 135.514 147.113 132.932 141.184 129.509C135.255 126.086 130.782 122.141 127.765 117.93L127.354 118.028C121.053 109.236 121.053 99.2932 127.354 90.5008L127.765 90.599C130.782 86.3885 135.255 82.4436 141.184 79.0204C147.113 75.5971 153.946 73.0148 161.239 71.2727L161.069 71.0355C176.297 67.3977 193.519 67.3977 208.748 71.0355L208.578 71.2727C215.87 73.0148 222.703 75.5971 228.632 79.0204C234.562 82.4436 239.034 86.3885 242.052 90.599L242.463 90.5008Z" stroke="#5F00E8" stroke-width="0.726205" stroke-linejoin="round" stroke-dasharray="28.01 28.01" shape-rendering="crispEdges"/>
</g>
<g opacity="0.4" filter="url(#filter4_f_11425_45514)">
<ellipse cx="182.682" cy="48.1612" rx="20.7935" ry="11.7745" fill="black"/>
</g>
<g filter="url(#filter5_d_11425_45514)">
<path d="M158.649 121.714C151.711 117.708 147.813 112.276 147.813 106.611C147.813 100.947 151.711 95.5142 158.649 91.5087L184.81 76.4062L210.97 91.5087C217.909 95.5142 221.807 100.947 221.807 106.611C221.807 112.276 217.909 117.708 210.97 121.714C204.032 125.719 194.622 127.97 184.81 127.97C174.998 127.97 165.587 125.719 158.649 121.714V121.714Z" fill="#0A41CF"/>
</g>
<path d="M185.166 109.495L133.362 80.2423L185.166 49.7716L236.357 80.2424L185.166 109.495Z" fill="#6400CA" stroke="url(#paint2_linear_11425_45514)" stroke-width="0.673368"/>
<path d="M184.914 109.737V142.021L133.023 111.432V80.0591L184.914 109.737Z" fill="#4A0292"/>
<path d="M184.811 109.316V141.654L237.132 111.461V80.1221L184.811 109.316Z" fill="#3C0077"/>
<path d="M180.209 79.1403C180.215 78.3974 181.243 77.8042 182.504 77.8152L187.687 77.8604C188.948 77.8715 189.965 78.4825 189.959 79.2253L189.932 82.2787C189.926 83.0215 188.898 83.6148 187.637 83.6038L182.454 83.5585C181.193 83.5475 180.176 82.9364 180.182 82.1936L180.209 79.1403Z" fill="#A950FF"/>
<path d="M192.187 72.2004C192.193 71.4709 193.202 70.8882 194.441 70.8991L199.706 70.945C200.945 70.9558 201.944 71.556 201.937 72.2855L201.91 75.387C201.904 76.1165 200.895 76.6991 199.656 76.6883L194.391 76.6424C193.152 76.6316 192.153 76.0314 192.16 75.3019L192.187 72.2004Z" fill="#A950FF"/>
<path d="M168.353 71.9926C168.36 71.2631 169.369 70.6805 170.607 70.6913L175.873 70.7372C177.111 70.748 178.11 71.3482 178.103 72.0777L178.076 75.1792C178.07 75.9087 177.061 76.4913 175.822 76.4805L170.557 76.4346C169.319 76.4238 168.32 75.8236 168.326 75.0941L168.353 71.9926Z" fill="#E9C1FF"/>
<path d="M175.771 77.7562C177.032 77.7672 178.049 78.3783 178.043 79.1211L178.016 82.1745C178.009 82.9173 176.982 83.5105 175.721 83.4995L170.537 83.4543C169.276 83.4433 168.259 82.8322 168.266 82.0894L168.292 79.036C168.299 78.2932 169.326 77.6999 170.587 77.7109L175.771 77.7562Z" fill="#CD88FF"/>
<path d="M175.75 84.7761C176.989 84.7869 177.987 85.3871 177.981 86.1166L177.954 89.2181C177.948 89.9476 176.938 90.5302 175.7 90.5194L170.435 90.4735C169.196 90.4627 168.197 89.8625 168.204 89.133L168.231 86.0315C168.237 85.302 169.246 84.7194 170.485 84.7302L175.75 84.7761Z" fill="#A950FF"/>
<path d="M187.749 70.8408C189.01 70.8518 190.027 71.4629 190.02 72.2057L189.994 75.2591C189.987 76.0019 188.96 76.5951 187.699 76.5841L182.515 76.5389C181.254 76.5279 180.237 75.9168 180.244 75.174L180.27 72.1206C180.277 71.3778 181.304 70.7846 182.565 70.7956L187.749 70.8408Z" fill="#CD88FF"/>
<path d="M197.505 85.1602C200.322 85.1847 202.594 86.55 202.58 88.2095C202.565 89.8689 200.27 91.1943 197.453 91.1697C194.635 91.1451 192.363 89.7799 192.378 88.1204C192.392 86.4609 194.688 85.1356 197.505 85.1602Z" fill="#F62E76"/>
<mask id="mask0_11425_45514" style="mask-type:alpha" maskUnits="userSpaceOnUse" x="132" y="49" width="106" height="61">
<path d="M185.166 109.495L133.362 80.2423L185.166 49.7716L236.357 80.2424L185.166 109.495Z" fill="#6400CA" stroke="url(#paint3_linear_11425_45514)" stroke-width="0.673368"/>
</mask>
<g mask="url(#mask0_11425_45514)">
<g style="mix-blend-mode:overlay" filter="url(#filter6_f_11425_45514)">
<circle cx="146.13" cy="79.6158" r="24.9967" fill="white" style="mix-blend-mode:lighten"/>
</g>
</g>
<path d="M216.177 200.636C216.313 200.713 216.479 200.713 216.615 200.635L260.156 175.754C260.293 175.676 260.378 175.531 260.38 175.373C260.381 175.216 260.299 175.069 260.163 174.988L216.621 149.071C216.483 148.988 216.31 148.988 216.17 149.07L172.107 174.987C171.97 175.068 171.887 175.215 171.888 175.373C171.89 175.532 171.976 175.677 172.114 175.755L216.177 200.636Z" stroke="#9624EE" stroke-width="0.886388" stroke-linejoin="round"/>
<path d="M215.199 168.504V195.709L171.472 169.932V143.495L215.199 168.504Z" fill="#0F0C16"/>
<path d="M215.112 168.149V195.4L259.203 169.956V143.547L215.112 168.149Z" fill="black"/>
<path d="M215.414 168.626L171.19 143.654L215.414 117.642L259.114 143.654L215.414 168.626Z" fill="#211B2C"/>
<path d="M226.861 133.56C223.131 131.87 218.453 131.035 213.723 131.213C208.993 131.392 204.543 132.571 201.226 134.527C197.909 136.482 195.959 139.075 195.748 141.809C195.538 144.543 197.082 147.226 200.086 149.344L201.575 148.64C198.872 146.734 197.482 144.319 197.671 141.859C197.861 139.398 199.616 137.064 202.601 135.304C205.587 133.545 209.591 132.483 213.849 132.322C218.106 132.162 222.316 132.914 225.672 134.434L226.861 133.56Z" fill="#2D243D"/>
<path d="M198.661 149.992C196.122 148.196 194.525 146.018 194.058 143.715C193.592 141.412 194.275 139.08 196.029 136.994L201.132 138.424C199.851 139.948 199.351 141.652 199.692 143.335C200.033 145.018 201.2 146.609 203.055 147.921L198.661 149.992Z" fill="#3AFEDB"/>
<line y1="-0.0921281" x2="11.7379" y2="-0.0921281" transform="matrix(1.10108 0.309638 -0.536309 0.635707 191.954 135.919)" stroke="#3AFE94" stroke-width="0.184256"/>
<path d="M215.154 162.26L215.447 162.091L216.513 162.349L216.526 162.341L216.08 161.725L216.374 161.556L217.499 162.206L217.268 162.339L216.536 161.916L216.526 161.922L216.962 162.51L216.805 162.6L215.784 162.347L215.775 162.352L216.51 162.777L216.279 162.91L215.154 162.26Z" fill="#767676"/>
<path d="M220.779 159.239L220.583 159.126L221.507 158.592L221.703 158.706L221.359 158.905L222.288 159.441L222.053 159.577L221.124 159.04L220.779 159.239Z" fill="#767676"/>
<path d="M227.012 156.714L225.564 156.25L225.824 156.1L226.793 156.444L226.802 156.439L226.225 155.869L226.448 155.74L227.437 156.074L227.447 156.069L226.849 155.508L227.109 155.358L227.913 156.194L227.681 156.328L226.731 156.027L226.722 156.032L227.244 156.58L227.012 156.714Z" fill="#767676"/>
<path d="M231.413 153.1L231.217 152.987L232.141 152.453L232.337 152.566L231.993 152.765L232.922 153.302L232.687 153.438L231.757 152.901L231.413 153.1Z" fill="#767676"/>
<path d="M237.779 150.498L236.654 149.848L237.399 149.418L237.595 149.531L237.088 149.824L237.356 149.979L237.814 149.714L238.01 149.828L237.552 150.092L238.017 150.36L237.779 150.498Z" fill="#767676"/>
<path d="M242.905 146.612C242.856 146.589 242.803 146.58 242.745 146.585C242.687 146.591 242.629 146.61 242.572 146.643C242.533 146.665 242.506 146.687 242.49 146.709C242.474 146.73 242.469 146.751 242.473 146.77C242.478 146.789 242.493 146.806 242.517 146.82C242.537 146.832 242.558 146.839 242.583 146.843C242.607 146.846 242.633 146.846 242.661 146.843C242.688 146.839 242.716 146.834 242.746 146.826C242.775 146.818 242.805 146.808 242.835 146.797L242.96 146.753C243.02 146.731 243.08 146.713 243.139 146.7C243.199 146.687 243.257 146.68 243.314 146.678C243.37 146.676 243.425 146.681 243.478 146.692C243.531 146.703 243.581 146.722 243.629 146.749C243.697 146.789 243.739 146.834 243.755 146.883C243.771 146.932 243.76 146.983 243.723 147.037C243.685 147.09 243.621 147.143 243.529 147.196C243.438 147.249 243.345 147.286 243.25 147.309C243.155 147.332 243.061 147.338 242.969 147.329C242.877 147.318 242.789 147.291 242.706 147.245L242.937 147.112C242.977 147.132 243.019 147.144 243.064 147.148C243.108 147.151 243.153 147.147 243.198 147.136C243.243 147.124 243.286 147.106 243.327 147.083C243.367 147.059 243.396 147.036 243.414 147.012C243.433 146.988 243.439 146.965 243.435 146.943C243.431 146.922 243.415 146.903 243.388 146.888C243.363 146.873 243.334 146.865 243.302 146.864C243.27 146.862 243.233 146.866 243.193 146.876C243.152 146.885 243.107 146.899 243.056 146.917L242.903 146.97C242.785 147.011 242.674 147.034 242.569 147.037C242.465 147.04 242.372 147.018 242.289 146.97C242.221 146.931 242.179 146.886 242.165 146.835C242.151 146.784 242.162 146.732 242.198 146.678C242.234 146.625 242.293 146.574 242.375 146.527C242.458 146.479 242.546 146.445 242.637 146.425C242.728 146.406 242.816 146.4 242.902 146.41C242.988 146.419 243.065 146.443 243.133 146.481L242.905 146.612Z" fill="#767676"/>
<path d="M245.739 144.829L245.542 144.716L246.467 144.182L246.663 144.295L246.318 144.494L247.248 145.031L247.012 145.167L246.083 144.63L245.739 144.829ZM248.016 144.607C247.93 144.656 247.838 144.688 247.74 144.703C247.641 144.718 247.542 144.716 247.443 144.698C247.344 144.679 247.251 144.645 247.165 144.595C247.078 144.545 247.018 144.491 246.987 144.434C246.955 144.377 246.952 144.32 246.977 144.263C247.003 144.206 247.059 144.153 247.144 144.103C247.229 144.054 247.321 144.022 247.42 144.008C247.518 143.993 247.617 143.994 247.717 144.013C247.816 144.031 247.909 144.065 247.996 144.115C248.082 144.165 248.141 144.219 248.173 144.276C248.205 144.333 248.208 144.391 248.182 144.448C248.156 144.504 248.101 144.557 248.016 144.607ZM247.835 144.501C247.874 144.479 247.896 144.454 247.9 144.426C247.903 144.398 247.892 144.369 247.867 144.339C247.842 144.309 247.805 144.28 247.756 144.252C247.707 144.224 247.657 144.202 247.605 144.188C247.553 144.173 247.503 144.167 247.454 144.169C247.406 144.171 247.363 144.183 247.324 144.206C247.284 144.229 247.263 144.254 247.258 144.282C247.254 144.311 247.265 144.34 247.29 144.37C247.315 144.399 247.352 144.429 247.401 144.457C247.45 144.485 247.501 144.507 247.552 144.521C247.604 144.536 247.655 144.542 247.703 144.539C247.752 144.537 247.796 144.524 247.835 144.501ZM248.892 144.098C248.828 144.135 248.753 144.159 248.668 144.17C248.583 144.18 248.493 144.176 248.398 144.156C248.303 144.136 248.209 144.099 248.115 144.044C248.018 143.989 247.953 143.933 247.92 143.878C247.887 143.823 247.88 143.771 247.9 143.723C247.919 143.674 247.96 143.632 248.022 143.596C248.069 143.569 248.117 143.551 248.165 143.542C248.212 143.533 248.258 143.529 248.301 143.532C248.344 143.534 248.382 143.539 248.415 143.546L248.422 143.542L247.999 143.297L248.233 143.163L249.358 143.812L249.127 143.946L248.992 143.868L248.982 143.873C248.995 143.893 249.002 143.916 249.005 143.941C249.008 143.965 249.001 143.991 248.985 144.018C248.968 144.045 248.937 144.071 248.892 144.098ZM248.78 143.947C248.817 143.926 248.839 143.901 248.844 143.874C248.85 143.847 248.841 143.819 248.817 143.789C248.794 143.759 248.758 143.73 248.708 143.701C248.657 143.672 248.607 143.651 248.556 143.637C248.505 143.624 248.456 143.619 248.41 143.623C248.363 143.626 248.321 143.639 248.283 143.661C248.245 143.683 248.223 143.708 248.217 143.735C248.212 143.762 248.221 143.791 248.244 143.82C248.268 143.849 248.304 143.878 248.352 143.906C248.402 143.934 248.452 143.955 248.503 143.969C248.554 143.983 248.604 143.988 248.651 143.985C248.698 143.982 248.741 143.97 248.78 143.947ZM249.807 143.572C249.754 143.603 249.696 143.625 249.635 143.638C249.574 143.652 249.513 143.655 249.451 143.648C249.39 143.64 249.331 143.62 249.275 143.588C249.228 143.561 249.198 143.533 249.183 143.505C249.168 143.477 249.166 143.448 249.176 143.42C249.187 143.392 249.206 143.364 249.234 143.336C249.262 143.308 249.295 143.281 249.333 143.255C249.377 143.224 249.411 143.198 249.437 143.178C249.462 143.158 249.477 143.141 249.481 143.128C249.486 143.115 249.479 143.103 249.461 143.093L249.458 143.091C249.423 143.071 249.385 143.062 249.344 143.064C249.303 143.065 249.263 143.077 249.223 143.1C249.181 143.125 249.157 143.149 249.151 143.175C249.144 143.2 249.151 143.222 249.17 143.243L248.936 143.358C248.896 143.322 248.873 143.284 248.868 143.244C248.863 143.203 248.875 143.163 248.906 143.122C248.937 143.08 248.986 143.04 249.053 143.001C249.1 142.974 249.151 142.951 249.205 142.933C249.259 142.914 249.314 142.902 249.37 142.896C249.427 142.89 249.484 142.892 249.539 142.901C249.595 142.911 249.647 142.93 249.697 142.959L250.267 143.288L250.045 143.416L249.928 143.348L249.921 143.352C249.934 143.375 249.939 143.399 249.937 143.424C249.934 143.449 249.922 143.473 249.901 143.498C249.88 143.523 249.849 143.547 249.807 143.572ZM249.713 143.44C249.747 143.42 249.771 143.398 249.784 143.375C249.796 143.352 249.798 143.329 249.79 143.307C249.781 143.285 249.762 143.265 249.733 143.248L249.643 143.196C249.641 143.203 249.635 143.211 249.626 143.221C249.617 143.231 249.607 143.241 249.594 143.252C249.581 143.262 249.568 143.273 249.555 143.284C249.542 143.294 249.529 143.304 249.518 143.312C249.495 143.33 249.477 143.348 249.466 143.365C249.454 143.382 249.45 143.398 249.453 143.413C249.457 143.428 249.469 143.442 249.491 143.454C249.523 143.473 249.559 143.48 249.599 143.477C249.639 143.473 249.677 143.46 249.713 143.44ZM250.879 143.3C250.85 143.317 250.819 143.332 250.789 143.344C250.759 143.356 250.732 143.365 250.708 143.371L250.586 143.239C250.622 143.228 250.651 143.217 250.674 143.205C250.697 143.192 250.711 143.178 250.716 143.162C250.722 143.146 250.716 143.128 250.7 143.107L250.678 143.078L249.507 142.752L249.753 142.61L250.548 142.867L250.557 142.862L250.113 142.402L250.361 142.259L250.968 142.988C250.998 143.023 251.016 143.059 251.023 143.094C251.03 143.129 251.022 143.164 251 143.198C250.977 143.232 250.937 143.266 250.879 143.3Z" fill="#767676"/>
<rect width="4.64637" height="7.81579" rx="0.893533" transform="matrix(0.866025 -0.5 0.866025 0.5 204.95 157.823)" fill="#3AFEDB"/>
<rect width="4.64637" height="15.1015" rx="0.893533" transform="matrix(0.866025 -0.5 0.866025 0.5 203.957 151.11)" fill="#3AFEDB"/>
<rect width="4.64637" height="5.46195" rx="0.893533" transform="matrix(0.866025 -0.5 0.866025 0.5 217.622 152.86)" fill="#FF7A2F"/>
<rect width="4.64637" height="17.4581" rx="0.893533" transform="matrix(0.866025 -0.5 0.866025 0.5 212.55 143.792)" fill="#3AFEDB"/>
<rect width="4.64637" height="13.7564" rx="0.893533" transform="matrix(0.866025 -0.5 0.866025 0.5 221.073 142.573)" fill="#3AFEDB"/>
<rect width="4.64637" height="6.27343" rx="0.893533" transform="matrix(0.866025 -0.5 0.866025 0.5 232.87 143.245)" fill="#FF7A2F"/>
<rect width="4.64637" height="8.91922" rx="0.893533" transform="matrix(0.866025 -0.5 0.866025 0.5 235.896 138.853)" fill="#3AFEDB"/>
<ellipse cx="246.02" cy="139.042" rx="16.2616" ry="6.65953" fill="#3EAFEE" fill-opacity="0.49"/>
<g clip-path="url(#clip1_11425_45514)">
<path d="M230.101 132.969C234.119 130.649 239.553 129.338 245.21 129.323C250.866 129.308 256.28 130.591 260.261 132.889C263.98 135.036 266.022 137.803 266.394 140.629L267.647 140.625L269.488 139.562L292.689 139.501L292.657 143.52L269.457 143.581L267.632 142.527L266.379 142.531C265.963 145.358 263.876 148.136 260.124 150.303C256.106 152.622 250.671 153.934 245.015 153.949C239.359 153.964 233.944 152.681 229.963 150.382C225.982 148.084 223.76 144.958 223.785 141.692C223.811 138.426 226.083 135.289 230.101 132.969ZM234.72 135.636C228.893 139 228.851 144.358 234.624 147.691C240.398 151.024 249.678 151 255.505 147.636C261.331 144.272 261.374 138.914 255.6 135.581C249.826 132.247 240.546 132.272 234.72 135.636Z" fill="#52049F"/>
</g>
<path fill-rule="evenodd" clip-rule="evenodd" d="M229.947 131.569L231.239 127.627L243.193 126.011L256.828 127.627L260.769 130.276V133.83L249.784 131.116L233.694 132.602L229.171 134.8L229.947 131.569ZM223.872 135.833L223.872 142.618L234.793 151.083L251.077 151.988L262.773 145.397L264.517 141.455L264.039 139.893L266.351 140.931L266.351 136.331L264.014 139.812L263.548 138.289L251.464 145.397H238.088L228.202 138.677L223.872 135.833Z" fill="#52049F"/>
<g clip-path="url(#clip2_11425_45514)">
<g clip-path="url(#clip3_11425_45514)">
<path d="M230.101 126.944C234.119 124.624 239.553 123.313 245.21 123.298C250.866 123.283 256.28 124.566 260.261 126.865C263.98 129.011 266.022 131.779 266.394 134.604L267.647 134.6L269.488 133.537L292.689 133.476L292.657 137.495L269.457 137.556L267.632 136.503L266.379 136.506C265.963 139.333 263.876 142.111 260.124 144.278C256.106 146.597 250.671 147.909 245.015 147.924C239.359 147.939 233.944 146.656 229.963 144.357C225.982 142.059 223.76 138.933 223.785 135.667C223.811 132.402 226.083 129.264 230.101 126.944ZM234.72 129.611C228.893 132.975 228.851 138.333 234.624 141.666C240.398 144.999 249.678 144.975 255.505 141.611C261.331 138.247 261.374 132.889 255.6 129.556C249.826 126.222 240.546 126.247 234.72 129.611Z" fill="#9624EE"/>
<mask id="mask1_11425_45514" style="mask-type:alpha" maskUnits="userSpaceOnUse" x="223" y="123" width="70" height="25">
<path d="M230.1 126.945C234.118 124.625 239.553 123.313 245.209 123.298C250.865 123.284 256.28 124.566 260.261 126.865C263.979 129.012 266.022 131.779 266.394 134.604L267.647 134.601L269.488 133.538L292.688 133.477L292.657 137.495L269.456 137.556L267.632 136.503L266.379 136.506C265.962 139.334 263.875 142.112 260.123 144.278C256.105 146.598 250.671 147.909 245.014 147.924C239.358 147.939 233.944 146.656 229.963 144.358C225.981 142.059 223.759 138.933 223.785 135.668C223.811 132.402 226.082 129.264 230.1 126.945ZM234.719 129.611C228.893 132.975 228.85 138.333 234.624 141.667C240.397 145 249.678 144.976 255.504 141.612C261.331 138.248 261.373 132.89 255.6 129.556C249.826 126.223 240.546 126.247 234.719 129.611Z" fill="#9624EE"/>
</mask>
<g mask="url(#mask1_11425_45514)">
<g style="mix-blend-mode:overlay" filter="url(#filter7_f_11425_45514)">
<ellipse cx="226.028" cy="128.43" rx="24.9967" ry="24.9967" fill="white" style="mix-blend-mode:lighten"/>
</g>
</g>
</g>
<path d="M267.563 136.478L269.489 137.52V143.538L267.563 142.495V136.478Z" fill="#52049F"/>
<rect x="269.445" y="137.415" width="23.179" height="6.12354" fill="#710AD6"/>
</g>
<path d="M267.658 142.615V136.428H266.302V142.615H267.658Z" fill="#330164"/>
<path d="M178.022 196.95L103.886 154.893" stroke="url(#paint4_linear_11425_45514)" stroke-width="0.886345" stroke-linecap="round" stroke-linejoin="round" stroke-dasharray="1.77 1.77"/>
<path d="M192.57 188.676L178.555 197.482" stroke="url(#paint5_linear_11425_45514)" stroke-width="0.886345" stroke-linejoin="round" stroke-dasharray="1.77 1.77"/>
<path d="M193.353 187.931L191.601 191.706L186.815 188.943L193.353 187.931Z" fill="#9C51F6"/>
<path d="M156.18 124.774L104.059 154.739" stroke="#AA50FF" stroke-width="0.886345" stroke-linecap="round" stroke-linejoin="round" stroke-dasharray="1.77 1.77"/>
</g>
<defs>
<filter id="filter0_f_11425_45514" x="60.0764" y="-4.52472" width="257.867" height="223.85" filterUnits="userSpaceOnUse" color-interpolation-filters="sRGB">
<feFlood flood-opacity="0" result="BackgroundImageFix"/>
<feBlend mode="normal" in="SourceGraphic" in2="BackgroundImageFix" result="shape"/>
<feGaussianBlur stdDeviation="32.4831" result="effect1_foregroundBlur_11425_45514"/>
</filter>
<filter id="filter1_b_11425_45514" x="42.8167" y="9.31131" width="286.186" height="192.958" filterUnits="userSpaceOnUse" color-interpolation-filters="sRGB">
<feFlood flood-opacity="0" result="BackgroundImageFix"/>
<feGaussianBlur in="BackgroundImageFix" stdDeviation="16.4017"/>
<feComposite in2="SourceAlpha" operator="in" result="effect1_backgroundBlur_11425_45514"/>
<feBlend mode="normal" in="SourceGraphic" in2="effect1_backgroundBlur_11425_45514" result="shape"/>
</filter>
<filter id="filter2_b_11425_45514" x="80.7609" y="34.8801" width="208.299" height="139.822" filterUnits="userSpaceOnUse" color-interpolation-filters="sRGB">
<feFlood flood-opacity="0" result="BackgroundImageFix"/>
<feGaussianBlur in="BackgroundImageFix" stdDeviation="11.5705"/>
<feComposite in2="SourceAlpha" operator="in" result="effect1_backgroundBlur_11425_45514"/>
<feBlend mode="normal" in="SourceGraphic" in2="effect1_backgroundBlur_11425_45514" result="shape"/>
</filter>
<filter id="filter3_d_11425_45514" x="119.127" y="68.3071" width="131.563" height="78.9173" filterUnits="userSpaceOnUse" color-interpolation-filters="sRGB">
<feFlood flood-opacity="0" result="BackgroundImageFix"/>
<feColorMatrix in="SourceAlpha" type="matrix" values="0 0 0 0 0 0 0 0 0 0 0 0 0 0 0 0 0 0 127 0" result="hardAlpha"/>
<feOffset dy="3.50111"/>
<feGaussianBlur stdDeviation="1.75055"/>
<feComposite in2="hardAlpha" operator="out"/>
<feColorMatrix type="matrix" values="0 0 0 0 0.432266 0 0 0 0 0.00354165 0 0 0 0 0.846458 0 0 0 1 0"/>
<feBlend mode="screen" in2="BackgroundImageFix" result="effect1_dropShadow_11425_45514"/>
<feBlend mode="normal" in="SourceGraphic" in2="effect1_dropShadow_11425_45514" result="shape"/>
</filter>
<filter id="filter4_f_11425_45514" x="144.897" y="19.3956" width="75.5692" height="57.5311" filterUnits="userSpaceOnUse" color-interpolation-filters="sRGB">
<feFlood flood-opacity="0" result="BackgroundImageFix"/>
<feBlend mode="normal" in="SourceGraphic" in2="BackgroundImageFix" result="shape"/>
<feGaussianBlur stdDeviation="8.49557" result="effect1_foregroundBlur_11425_45514"/>
</filter>
<filter id="filter5_d_11425_45514" x="97.1081" y="29.9186" width="175.403" height="152.973" filterUnits="userSpaceOnUse" color-interpolation-filters="sRGB">
<feFlood flood-opacity="0" result="BackgroundImageFix"/>
<feColorMatrix in="SourceAlpha" type="matrix" values="0 0 0 0 0 0 0 0 0 0 0 0 0 0 0 0 0 0 127 0" result="hardAlpha"/>
<feOffset dy="4.2172"/>
<feGaussianBlur stdDeviation="25.3524"/>
<feComposite in2="hardAlpha" operator="out"/>
<feColorMatrix type="matrix" values="0 0 0 0 0.506336 0 0 0 0 0.118457 0 0 0 0 1 0 0 0 1 0"/>
<feBlend mode="soft-light" in2="BackgroundImageFix" result="effect1_dropShadow_11425_45514"/>
<feBlend mode="normal" in="SourceGraphic" in2="effect1_dropShadow_11425_45514" result="shape"/>
</filter>
<filter id="filter6_f_11425_45514" x="71.6954" y="5.18174" width="148.868" height="148.868" filterUnits="userSpaceOnUse" color-interpolation-filters="sRGB">
<feFlood flood-opacity="0" result="BackgroundImageFix"/>
<feBlend mode="normal" in="SourceGraphic" in2="BackgroundImageFix" result="shape"/>
<feGaussianBlur stdDeviation="24.7187" result="effect1_foregroundBlur_11425_45514"/>
</filter>
<filter id="filter7_f_11425_45514" x="151.594" y="53.9962" width="148.868" height="148.868" filterUnits="userSpaceOnUse" color-interpolation-filters="sRGB">
<feFlood flood-opacity="0" result="BackgroundImageFix"/>
<feBlend mode="normal" in="SourceGraphic" in2="BackgroundImageFix" result="shape"/>
<feGaussianBlur stdDeviation="24.7187" result="effect1_foregroundBlur_11425_45514"/>
</filter>
<linearGradient id="paint0_linear_11425_45514" x1="62.3958" y1="0" x2="62.3958" y2="89.48" gradientUnits="userSpaceOnUse">
<stop stop-color="#6218FF" stop-opacity="0"/>
<stop offset="1" stop-color="#6117FF"/>
</linearGradient>
<linearGradient id="paint1_linear_11425_45514" x1="112.899" y1="90.5473" x2="251.285" y2="186.809" gradientUnits="userSpaceOnUse">
<stop offset="0.015625" stop-color="#B010FB"/>
<stop offset="0.130208" stop-color="#DE97FF"/>
<stop offset="0.234375" stop-color="#A227DB"/>
<stop offset="0.505208" stop-color="#A227DB" stop-opacity="0"/>
<stop offset="0.765625" stop-color="#A610EC" stop-opacity="0.84"/>
</linearGradient>
<linearGradient id="paint2_linear_11425_45514" x1="148.408" y1="60.6121" x2="192.16" y2="135.941" gradientUnits="userSpaceOnUse">
<stop offset="0.015625" stop-color="#B010FB"/>
<stop offset="0.130208" stop-color="#DE97FF"/>
<stop offset="0.234375" stop-color="#A227DB"/>
<stop offset="0.505208" stop-color="#A227DB" stop-opacity="0"/>
<stop offset="0.765625" stop-color="#A610EC" stop-opacity="0.84"/>
</linearGradient>
<linearGradient id="paint3_linear_11425_45514" x1="148.408" y1="60.6121" x2="192.16" y2="135.941" gradientUnits="userSpaceOnUse">
<stop offset="0.015625" stop-color="#B010FB"/>
<stop offset="0.130208" stop-color="#DE97FF"/>
<stop offset="0.234375" stop-color="#A227DB"/>
<stop offset="0.505208" stop-color="#A227DB" stop-opacity="0"/>
<stop offset="0.765625" stop-color="#A610EC" stop-opacity="0.84"/>
</linearGradient>
<linearGradient id="paint4_linear_11425_45514" x1="127.398" y1="164.367" x2="159.297" y2="184.994" gradientUnits="userSpaceOnUse">
<stop stop-color="#AA50FF"/>
<stop offset="1" stop-color="white"/>
</linearGradient>
<linearGradient id="paint5_linear_11425_45514" x1="191.394" y1="188.676" x2="166.176" y2="205.948" gradientUnits="userSpaceOnUse">
<stop stop-color="#B970F9"/>
<stop offset="1" stop-color="#EAD8F9"/>
</linearGradient>
<clipPath id="clip0_11425_45514">
<rect width="308.738" height="230.213" fill="white" transform="translate(30.668 0.893555)"/>
</clipPath>
<clipPath id="clip1_11425_45514">
<rect width="64.5884" height="64.0013" fill="white" transform="matrix(0.866025 -0.5 0.866025 0.5 201.031 141.752)"/>
</clipPath>
<clipPath id="clip2_11425_45514">
<rect width="64.5884" height="64.0013" fill="white" transform="matrix(0.866025 -0.5 0.866025 0.5 201.031 135.728)"/>
</clipPath>
<clipPath id="clip3_11425_45514">
<rect width="47.0957" height="46.6676" fill="white" transform="matrix(0.866025 -0.5 0.866025 0.5 214.952 135.69)"/>
</clipPath>
</defs>
</svg>
