<svg width="163" height="163" viewBox="0 0 163 163" fill="none" xmlns="http://www.w3.org/2000/svg">
<path d="M77.4968 68.4108C79.7073 66.2002 83.2914 66.2002 85.502 68.4108L94.5888 77.4976C96.7993 79.7082 96.7993 83.2922 94.5888 85.5028L85.502 94.5896C83.2914 96.8002 79.7073 96.8002 77.4968 94.5896L68.41 85.5028C66.1994 83.2922 66.1994 79.7082 68.41 77.4976L77.4968 68.4108Z" fill="#A950FF"/>
<path d="M119.349 68.3383C121.52 66.1673 125.04 66.1673 127.211 68.3383L136.441 77.5684C138.612 79.7394 138.612 83.2593 136.441 85.4303L127.211 94.6603C125.04 96.8314 121.52 96.8314 119.349 94.6603L110.119 85.4303C107.948 83.2593 107.948 79.7394 110.119 77.5684L119.349 68.3383Z" fill="#A950FF"/>
<path d="M77.5684 26.5589C79.7394 24.3879 83.2593 24.3879 85.4304 26.5589L94.6604 35.7889C96.8314 37.96 96.8314 41.4799 94.6604 43.6509L85.4304 52.8809C83.2593 55.052 79.7394 55.052 77.5684 52.8809L68.3384 43.6509C66.1673 41.4799 66.1673 37.96 68.3384 35.7889L77.5684 26.5589Z" fill="#E9C1FF"/>
<path d="M73.7005 56.6077C75.9111 58.8182 75.9111 62.4023 73.7005 64.6129L64.6137 73.6996C62.4031 75.9102 58.8191 75.9102 56.6085 73.6997L47.5217 64.6129C45.3111 62.4023 45.3111 58.8182 47.5217 56.6077L56.6085 47.5209C58.8191 45.3103 62.4031 45.3103 64.6137 47.5209L73.7005 56.6077Z" fill="#CD88FF"/>
<path d="M52.8809 77.5683C55.052 79.7394 55.052 83.2593 52.8809 85.4303L43.6509 94.6603C41.4799 96.8314 37.96 96.8314 35.7889 94.6603L26.5589 85.4303C24.3879 83.2593 24.3879 79.7394 26.5589 77.5683L35.7889 68.3383C37.96 66.1673 41.4799 66.1673 43.6509 68.3383L52.8809 77.5683Z" fill="#A950FF"/>
<path d="M115.48 56.6077C117.69 58.8182 117.69 62.4023 115.48 64.6129L106.393 73.6996C104.182 75.9102 100.598 75.9102 98.3875 73.6997L89.3007 64.6129C87.0901 62.4023 87.0901 58.8182 89.3007 56.6077L98.3875 47.5209C100.598 45.3103 104.182 45.3103 106.393 47.5209L115.48 56.6077Z" fill="#CD88FF"/>
<path d="M90.4421 116.285C95.3807 121.224 95.3807 129.231 90.4421 134.17C85.5035 139.108 77.4965 139.108 72.5578 134.17C67.6192 129.231 67.6192 121.224 72.5578 116.285C77.4965 111.347 85.5035 111.347 90.4421 116.285Z" fill="#F62E76"/>
</svg>
