<svg width="370" height="230" viewBox="0 0 370 230" fill="none" xmlns="http://www.w3.org/2000/svg">
<rect x="0.5" y="0.5" width="369" height="229" rx="7.5" fill="#161617"/>
<rect x="0.5" y="0.5" width="369" height="229" rx="7.5" stroke="#252526"/>
<g filter="url(#filter0_d_11122_26082)">
<path d="M193.938 130.05C197.031 130.05 199.552 127.484 199.552 124.334C199.552 121.184 197.031 118.617 193.938 118.617C190.821 118.617 188.323 121.184 188.323 124.334C188.323 127.484 190.821 130.05 193.938 130.05ZM205.854 125.92L209.246 128.627C209.544 128.884 209.636 129.304 209.429 129.677L206.221 135.324C206.015 135.674 205.625 135.814 205.236 135.674L201.248 134.04C200.423 134.694 199.506 135.23 198.544 135.65L197.925 139.967C197.879 140.364 197.536 140.667 197.146 140.667H190.729C190.317 140.667 189.996 140.364 189.927 139.967L189.331 135.65C188.346 135.23 187.452 134.694 186.627 134.04L182.617 135.674C182.273 135.814 181.838 135.674 181.654 135.324L178.446 129.677C178.24 129.304 178.331 128.884 178.629 128.627L182.021 125.92L181.906 124.334L182.021 122.724L178.629 120.04C178.331 119.784 178.24 119.34 178.446 118.99L181.654 113.344C181.838 112.97 182.273 112.83 182.617 112.97L186.627 114.627C187.452 113.974 188.346 113.414 189.331 113.017L189.927 108.677C189.996 108.304 190.317 108 190.729 108H197.146C197.536 108 197.879 108.304 197.925 108.677L198.544 113.017C199.506 113.414 200.423 113.974 201.248 114.627L205.236 112.97C205.625 112.83 206.015 112.97 206.221 113.344L209.429 118.99C209.636 119.34 209.544 119.784 209.246 120.04L205.854 122.724L205.969 124.334L205.854 125.92ZM172.831 105.83C174.825 105.83 176.429 104.197 176.429 102.167C176.429 100.137 174.825 98.4803 172.831 98.4803C171.871 98.4803 170.95 98.8687 170.271 99.5601C169.592 100.252 169.211 101.189 169.211 102.167C169.211 104.197 170.838 105.83 172.831 105.83ZM180.486 103.194L182.708 104.92C182.869 105.084 182.915 105.364 182.777 105.597L180.715 109.237C180.6 109.47 180.325 109.564 180.096 109.47L177.529 108.42L175.833 109.447L175.398 112.224C175.352 112.48 175.146 112.667 174.894 112.667H170.769C170.494 112.667 170.288 112.48 170.242 112.224L169.875 109.447L168.133 108.42L165.521 109.47C165.315 109.564 165.063 109.47 164.925 109.237L162.863 105.597C162.725 105.364 162.794 105.084 162.977 104.92L165.154 103.194L165.086 102.167L165.154 101.14L162.977 99.4137C162.794 99.2503 162.725 98.9703 162.863 98.737L164.925 95.097C165.063 94.8637 165.315 94.7703 165.521 94.8637L168.111 95.9137L169.875 94.887L170.242 92.1103C170.288 91.8537 170.494 91.667 170.769 91.667H174.894C175.146 91.667 175.352 91.8537 175.398 92.1103L175.833 94.887L177.529 95.9137L180.096 94.8637C180.325 94.7703 180.6 94.8637 180.715 95.097L182.777 98.737C182.915 98.9703 182.869 99.2503 182.708 99.4137L180.486 101.14L180.554 102.167L180.486 103.194Z" fill="#3D3D3F"/>
</g>
<defs>
<filter id="filter0_d_11122_26082" x="138.302" y="87" width="93.3966" height="94.3966" filterUnits="userSpaceOnUse" color-interpolation-filters="sRGB">
<feFlood flood-opacity="0" result="BackgroundImageFix"/>
<feColorMatrix in="SourceAlpha" type="matrix" values="0 0 0 0 0 0 0 0 0 0 0 0 0 0 0 0 0 0 127 0" result="hardAlpha"/>
<feOffset dy="19.1983"/>
<feGaussianBlur stdDeviation="9.59916"/>
<feComposite in2="hardAlpha" operator="out"/>
<feColorMatrix type="matrix" values="0 0 0 0 0 0 0 0 0 0 0 0 0 0 0 0 0 0 0.59 0"/>
<feBlend mode="normal" in2="BackgroundImageFix" result="effect1_dropShadow_11122_26082"/>
<feBlend mode="normal" in="SourceGraphic" in2="effect1_dropShadow_11122_26082" result="shape"/>
</filter>
</defs>
</svg>
