<svg width="67" height="22" viewBox="0 0 67 22" fill="none" xmlns="http://www.w3.org/2000/svg">
<path d="M8.89286 10.624H6.42486C6.39311 10.6238 6.36165 10.63 6.33227 10.642C6.30288 10.654 6.27616 10.6717 6.25362 10.6941C6.23108 10.7165 6.21316 10.743 6.2009 10.7723C6.18863 10.8016 6.18225 10.833 6.18212 10.8648V11.2C6.18225 11.2318 6.18863 11.2632 6.2009 11.2925C6.21316 11.3218 6.23108 11.3483 6.25362 11.3707C6.27616 11.3931 6.30288 11.4108 6.33227 11.4228C6.36165 11.4348 6.39311 11.441 6.42486 11.4408H9.07016C9.1191 11.4406 9.16761 11.45 9.21292 11.4685C9.25823 11.487 9.29945 11.5142 9.33423 11.5486C9.36902 11.583 9.39668 11.624 9.41564 11.6691C9.4346 11.7142 9.44449 11.7626 9.44474 11.8116C9.44474 11.818 9.44474 11.8248 9.44474 11.8309C9.43279 12.0428 9.40379 12.2535 9.35803 12.4608C9.34384 12.5253 9.32751 12.5897 9.30903 12.6542C9.28671 12.732 9.23969 12.8003 9.17508 12.849C9.11047 12.8977 9.03178 12.924 8.95089 12.924H7.94447C7.91272 12.9239 7.88126 12.93 7.85188 12.9421C7.8225 12.9541 7.79577 12.9718 7.77323 12.9942C7.75069 13.0165 7.73278 13.0431 7.72051 13.0724C7.70824 13.1017 7.70186 13.1331 7.70174 13.1648V13.5001C7.70186 13.5318 7.70824 13.5632 7.72051 13.5925C7.73278 13.6218 7.75069 13.6484 7.77323 13.6708C7.79577 13.6931 7.8225 13.7108 7.85188 13.7229C7.88126 13.7349 7.91272 13.741 7.94447 13.7409H8.51119C8.53862 13.7406 8.5656 13.7479 8.58916 13.762C8.61273 13.7761 8.63197 13.7963 8.64478 13.8206C8.6576 13.8449 8.66349 13.8722 8.66181 13.8996C8.66014 13.927 8.65097 13.9534 8.63529 13.9759C6.79783 16.5451 2.54492 18.5734 4.61996 21.9231C5.61251 19.5824 11.6229 16.4655 11.6229 12.7516C11.6229 9.17786 7.58504 7.08702 6.60635 5.93555C6.2798 6.57157 6.85167 7.20694 7.72946 8.05217C7.74446 8.06654 7.75647 8.08374 7.76479 8.10277C7.77311 8.1218 7.77758 8.1423 7.77794 8.16306C7.7783 8.18383 7.77454 8.20447 7.76689 8.22378C7.75923 8.24309 7.74782 8.26069 7.73333 8.27557C7.71837 8.29074 7.70056 8.3028 7.68092 8.31104C7.66127 8.31929 7.64019 8.32355 7.61889 8.3236H4.90364C4.87189 8.32347 4.84042 8.3296 4.81104 8.34163C4.78166 8.35367 4.75494 8.37137 4.7324 8.39373C4.70985 8.41609 4.69194 8.44267 4.67967 8.47196C4.6674 8.50124 4.66103 8.53266 4.6609 8.56441V8.89966C4.66103 8.93141 4.6674 8.96283 4.67967 8.99211C4.69194 9.02139 4.70985 9.04798 4.7324 9.07034C4.75494 9.0927 4.78166 9.1104 4.81104 9.12243C4.84042 9.13447 4.87189 9.14059 4.90364 9.14047H8.37998C8.44651 9.14031 8.51199 9.15695 8.57037 9.18885C8.62875 9.22074 8.67814 9.26686 8.71395 9.32292C8.895 9.60603 9.04881 9.90566 9.17332 10.2178C9.18775 10.2543 9.19483 10.2932 9.19415 10.3325C9.19346 10.3717 9.18503 10.4104 9.16933 10.4464C9.15363 10.4823 9.13098 10.5148 9.10267 10.542C9.07437 10.5691 9.04097 10.5904 9.0044 10.6046C8.96883 10.6184 8.93101 10.6255 8.89286 10.6256" fill="#777777"/>
<path d="M2.7571 11.4425H5.22542C5.25717 11.4426 5.28864 11.4365 5.31802 11.4244C5.3474 11.4124 5.37413 11.3947 5.39667 11.3724C5.41921 11.35 5.43712 11.3234 5.44939 11.2941C5.46166 11.2648 5.46804 11.2334 5.46816 11.2017V10.8664C5.46804 10.8347 5.46166 10.8033 5.44939 10.774C5.43712 10.7447 5.41921 10.7181 5.39667 10.6957C5.37413 10.6734 5.3474 10.6557 5.31802 10.6437C5.28864 10.6316 5.25717 10.6255 5.22542 10.6256H2.58013C2.5312 10.6259 2.48271 10.6165 2.43742 10.598C2.39213 10.5795 2.35093 10.5522 2.31617 10.5178C2.28141 10.4834 2.25378 10.4425 2.23485 10.3973C2.21593 10.3522 2.20607 10.3038 2.20586 10.2549C2.20586 10.2485 2.20586 10.2417 2.20586 10.2356C2.21782 10.0236 2.24682 9.81296 2.29258 9.60567C2.30676 9.54119 2.32482 9.47672 2.34158 9.41225C2.36396 9.33447 2.41104 9.26608 2.4757 9.21741C2.54037 9.16874 2.61911 9.14242 2.70004 9.14243H3.70549C3.73724 9.14256 3.7687 9.13643 3.79809 9.1244C3.82747 9.11237 3.85419 9.09466 3.87673 9.0723C3.89927 9.04994 3.91719 9.02336 3.92945 8.99408C3.94172 8.96479 3.9481 8.93338 3.94823 8.90163V8.56637C3.9481 8.53462 3.94172 8.50321 3.92945 8.47392C3.91719 8.44464 3.89927 8.41806 3.87673 8.3957C3.85419 8.37333 3.82747 8.35563 3.79809 8.3436C3.7687 8.33157 3.73724 8.32544 3.70549 8.32557H3.1391C3.11162 8.32593 3.08457 8.31869 3.06093 8.30466C3.0373 8.29062 3.018 8.27033 3.00517 8.24603C2.99233 8.22172 2.98646 8.19435 2.98819 8.16691C2.98992 8.13948 2.9992 8.11306 3.01499 8.09057C4.85245 5.52135 9.10537 3.49305 7.03033 0.143066C6.03778 2.48438 0.0273438 5.60161 0.0273438 9.31683C0.0273438 12.8905 4.06525 14.9814 5.04394 16.1322C5.37049 15.4962 4.79862 14.8608 3.92083 14.0156C3.9058 14.0012 3.89377 13.984 3.88542 13.965C3.87707 13.946 3.87257 13.9255 3.87218 13.9047C3.87179 13.884 3.87552 13.8633 3.88315 13.844C3.89078 13.8247 3.90216 13.8071 3.91664 13.7922C3.9316 13.7769 3.94946 13.7648 3.96916 13.7565C3.98886 13.7482 4.01002 13.7439 4.0314 13.7438H6.74697C6.77872 13.7439 6.81019 13.7378 6.83957 13.7258C6.86895 13.7138 6.89567 13.6961 6.91821 13.6737C6.94075 13.6513 6.95867 13.6247 6.97094 13.5955C6.9832 13.5662 6.98958 13.5348 6.98971 13.503V13.1665C6.98958 13.1347 6.9832 13.1033 6.97094 13.074C6.95867 13.0447 6.94075 13.0182 6.91821 12.9958C6.89567 12.9734 6.86895 12.9557 6.83957 12.9437C6.81019 12.9317 6.77872 12.9255 6.74697 12.9257H3.2703C3.20378 12.9258 3.13829 12.9092 3.07991 12.8773C3.02153 12.8454 2.97215 12.7993 2.93634 12.7432C2.75538 12.46 2.60168 12.1602 2.47729 11.848C2.46295 11.8113 2.45604 11.7721 2.45696 11.7327C2.45788 11.6933 2.46662 11.6545 2.48266 11.6185C2.49871 11.5826 2.52174 11.5501 2.55042 11.5231C2.57911 11.4961 2.61287 11.475 2.64976 11.4612C2.68424 11.448 2.72083 11.4412 2.75775 11.4412" fill="#777777"/>
<path d="M22.0654 12.6639C21.8084 12.8168 21.5279 12.9263 21.2353 12.9879C20.893 13.0648 20.543 13.1027 20.1921 13.1007C19.1894 13.1007 18.4185 12.8565 17.8795 12.368C17.3405 11.8795 17.0707 11.1517 17.0701 10.1847V7.6206H15.9492V5.62196H17.0704V3.63428H19.7676V5.62035H21.5274V7.6206H19.7676V10.1563C19.7539 10.3906 19.8329 10.6209 19.9874 10.7975C20.0637 10.8756 20.1556 10.9367 20.2572 10.9768C20.3588 11.0168 20.4677 11.0349 20.5767 11.0299C20.8691 11.0358 21.1562 10.9523 21.3997 10.7904L22.0654 12.6639Z" fill="#777777"/>
<path d="M35.7734 5.34147L33.0334 12.9766H30.4222L28.9764 8.82039L27.4723 12.976H24.8612L22.1211 5.34082H24.6752L26.2502 9.96155L27.882 5.34082H30.1808L31.77 10.0044L33.4018 5.34082L35.7734 5.34147Z" fill="#777777"/>
<path d="M38.0292 12.6083C37.3907 12.2918 36.8527 11.8041 36.4754 11.1995C36.1911 10.7454 36.005 10.2368 35.9292 9.70639C35.8534 9.17599 35.8896 8.63559 36.0353 8.12001C36.1811 7.60443 36.4333 7.12511 36.7756 6.71292C37.1179 6.30073 37.5427 5.96481 38.0228 5.72682C38.723 5.39738 39.4874 5.22656 40.2612 5.22656C41.0351 5.22656 41.7995 5.39738 42.4997 5.72682C43.1419 6.03664 43.6814 6.52471 44.0538 7.13278C44.4262 7.74085 44.6158 8.44323 44.5999 9.1561C44.6148 9.87163 44.4251 10.5765 44.053 11.1879C43.681 11.7993 43.1421 12.2917 42.4997 12.6073C41.8019 12.941 41.0383 13.1143 40.2648 13.1143C39.4913 13.1143 38.7276 12.941 38.0299 12.6073M41.4211 10.5013C41.7412 10.1286 41.9041 9.64621 41.8753 9.15578C41.9033 8.67198 41.7402 8.19653 41.4211 7.83184C41.1115 7.52508 40.6933 7.35297 40.2575 7.35297C39.8217 7.35297 39.4035 7.52508 39.094 7.83184C38.7747 8.19642 38.6115 8.67195 38.6398 9.15578C38.6106 9.64625 38.7732 10.1289 39.0933 10.5016C39.2455 10.6555 39.4267 10.7777 39.6264 10.8611C39.8262 10.9445 40.0404 10.9875 40.2569 10.9875C40.4733 10.9875 40.6876 10.9445 40.8873 10.8611C41.0871 10.7777 41.2683 10.6555 41.4204 10.5016" fill="#777777"/>
<path d="M46.7541 12.8826C46.2254 12.7742 45.7176 12.5815 45.25 12.312L46.0588 10.4807C46.4471 10.7132 46.8678 10.8871 47.307 10.9964C47.7746 11.1212 48.2563 11.1851 48.7402 11.1866C49.0559 11.2061 49.3722 11.1606 49.6696 11.0529C49.7496 11.0241 49.8189 10.9717 49.8684 10.9026C49.9179 10.8335 49.9453 10.751 49.9468 10.666C49.9468 10.4971 49.8356 10.3774 49.6132 10.3069C49.2665 10.2115 48.913 10.1432 48.5558 10.1025C48.0264 10.0439 47.5022 9.94499 46.9878 9.80661C46.5615 9.68722 46.1761 9.45306 45.8738 9.12965C45.5428 8.7487 45.3747 8.25299 45.4057 7.7493C45.4001 7.27759 45.5553 6.81804 45.8457 6.44632C46.1831 6.03372 46.6272 5.72154 47.1297 5.5437C47.7776 5.30821 48.4637 5.19571 49.1528 5.21199C49.7105 5.21195 50.2667 5.26854 50.813 5.38091C51.2936 5.46961 51.7579 5.63115 52.1898 5.85994L51.3807 7.67709C50.703 7.30253 49.9403 7.10869 49.166 7.11425C48.8474 7.09583 48.5286 7.1463 48.2312 7.26221C48.149 7.29022 48.0768 7.34185 48.0238 7.41066C47.9707 7.47947 47.9392 7.56239 47.933 7.64905C47.933 7.82742 48.0419 7.95185 48.2596 8.02234C48.6132 8.12124 48.9736 8.19418 49.3379 8.24058C49.8695 8.31271 50.3957 8.4204 50.9129 8.56294C51.3282 8.68461 51.7031 8.91576 51.9983 9.23216C52.3242 9.60738 52.4898 10.0955 52.4596 10.5916C52.4638 11.0588 52.3087 11.5136 52.0199 11.881C51.6793 12.2948 51.2294 12.6048 50.7214 12.7759C50.0587 13.0065 49.3599 13.1163 48.6583 13.0999C48.0181 13.1001 47.3799 13.0267 46.7564 12.881" fill="#777777"/>
<path d="M56.3209 5.33887H53.625V12.9734H56.3209V5.33887Z" fill="#777777"/>
<path d="M62.9467 12.974L61.5705 10.9737L60.0947 12.974H57.1719L60.0947 9.15627L57.2579 5.33887H60.2946L61.6569 7.26884L63.0753 5.33887H65.9279L63.0911 9.05763L66.0278 12.974H62.9467Z" fill="#777777"/>
<path d="M17.969 16.2531H16.9961V15.7583H19.5047V16.2531H18.5318V18.3846H17.969V16.2531Z" fill="#777777"/>
<path d="M22.0124 17.2592V17.8978H23.503V18.3849H21.4492V15.7583H23.4311V16.2493H22.0127V16.8295H23.2631V17.2605L22.0124 17.2592Z" fill="#777777"/>
<path d="M25.3405 17.0955C25.3392 16.9148 25.3735 16.7356 25.4414 16.5681C25.5094 16.4007 25.6096 16.2482 25.7365 16.1195C25.8633 15.9908 26.0143 15.8883 26.1808 15.8179C26.3472 15.7476 26.5259 15.7107 26.7067 15.7094C26.7337 15.7094 26.7608 15.7094 26.7879 15.7094C27.1578 15.6936 27.5203 15.8159 27.8049 16.0527L27.5838 16.4956C27.3707 16.3076 27.0959 16.2044 26.8117 16.2055C26.5881 16.1956 26.3696 16.2749 26.2044 16.4261C26.0392 16.5772 25.9408 16.7877 25.9307 17.0114C25.9293 17.0381 25.9293 17.0649 25.9307 17.0917C25.9271 17.2088 25.9485 17.3254 25.9935 17.4336C26.0385 17.5418 26.106 17.6392 26.1916 17.7193C26.2772 17.7993 26.3789 17.8602 26.4899 17.8978C26.6009 17.9355 26.7186 17.949 26.8353 17.9375C27.1492 17.9309 27.4485 17.8039 27.6715 17.5829L27.8929 17.9901C27.7502 18.1354 27.5791 18.2497 27.3903 18.326C27.2014 18.4022 26.9989 18.4388 26.7953 18.4333C25.8021 18.4333 25.3398 17.8147 25.3398 17.0965" fill="#777777"/>
<path d="M30.4583 15.7583V16.7841H31.6927V15.7583H32.2555V18.3846H31.6927V17.2792H30.4583V18.3846H29.8945V15.7583H30.4583Z" fill="#777777"/>
<path d="M36.4295 15.7583H36.992V18.3846H36.4656L35.0179 16.6284H35.0111C35.0111 16.6284 35.0472 17.0316 35.0472 17.2305V18.3836H34.4844V15.7583H35.0192L36.4579 17.5065H36.4659C36.4659 17.5065 36.4298 17.0993 36.4298 16.9478L36.4295 15.7583Z" fill="#777777"/>
<path d="M41.9086 17.0555C41.8911 17.4253 41.7319 17.7742 41.464 18.0297C41.1961 18.2852 40.8401 18.4277 40.4699 18.4277C40.0997 18.4277 39.7438 18.2852 39.4759 18.0297C39.208 17.7742 39.0488 17.4253 39.0312 17.0555C39.0557 16.6906 39.2179 16.3486 39.485 16.0988C39.7521 15.8489 40.1042 15.71 40.4699 15.71C40.8357 15.71 41.1878 15.8489 41.4549 16.0988C41.722 16.3486 41.8842 16.6906 41.9086 17.0555ZM39.625 17.0594C39.62 17.2784 39.6999 17.4909 39.8481 17.6523C39.9963 17.8136 40.2012 17.9114 40.4199 17.9249C40.6386 17.9385 40.854 17.8668 41.021 17.725C41.1879 17.5831 41.2935 17.3821 41.3155 17.1642C41.3173 17.1292 41.3168 17.0942 41.3139 17.0594C41.318 16.9529 41.3011 16.8466 41.2642 16.7466C41.2272 16.6467 41.1709 16.555 41.0985 16.4768C41.0261 16.3986 40.939 16.3354 40.8421 16.2909C40.7453 16.2464 40.6406 16.2214 40.5341 16.2174C40.5125 16.2174 40.4912 16.2174 40.4696 16.2174C40.2541 16.2092 40.0441 16.2869 39.8858 16.4334C39.7275 16.5799 39.6338 16.7833 39.6254 16.9988C39.6254 17.0191 39.6254 17.0394 39.6254 17.0597L39.625 17.0594Z" fill="#777777"/>
<path d="M44.5082 15.7583V17.8898H45.8991V18.3846H43.9453V15.7583H44.5082Z" fill="#777777"/>
<path d="M50.5415 17.0555C50.524 17.4253 50.3647 17.7742 50.0968 18.0297C49.829 18.2852 49.473 18.4277 49.1028 18.4277C48.7326 18.4277 48.3766 18.2852 48.1087 18.0297C47.8408 17.7742 47.6816 17.4253 47.6641 17.0555C47.6885 16.6906 47.8507 16.3486 48.1178 16.0988C48.385 15.8489 48.737 15.71 49.1028 15.71C49.4685 15.71 49.8206 15.8489 50.0877 16.0988C50.3548 16.3486 50.517 16.6906 50.5415 17.0555ZM48.2579 17.0594C48.2538 17.2778 48.3342 17.4893 48.4823 17.6498C48.6304 17.8103 48.8348 17.9075 49.0528 17.921C49.2708 17.9345 49.4856 17.8633 49.6523 17.7223C49.8191 17.5813 49.9251 17.3814 49.948 17.1642C49.9498 17.1292 49.9493 17.0942 49.9464 17.0594C49.9505 16.9529 49.9336 16.8466 49.8967 16.7466C49.8597 16.6467 49.8034 16.555 49.731 16.4768C49.6586 16.3986 49.5715 16.3354 49.4746 16.2909C49.3778 16.2464 49.2731 16.2214 49.1666 16.2174C49.1453 16.2174 49.1237 16.2174 49.1021 16.2174C48.8866 16.209 48.6765 16.2866 48.5181 16.4331C48.3597 16.5795 48.266 16.7829 48.2575 16.9985C48.2575 17.0191 48.2575 17.0394 48.2575 17.0597" fill="#777777"/>
<path d="M52.9762 17.0994C52.9675 17.2065 52.981 17.3142 53.0157 17.4159C53.0505 17.5175 53.1058 17.611 53.1782 17.6903C53.2506 17.7697 53.3386 17.8333 53.4367 17.8772C53.5347 17.9212 53.6408 17.9444 53.7482 17.9456C53.9833 17.9527 54.2134 17.878 54.3994 17.7341V17.4027H53.8124V16.982H54.9619V18.3869H54.5841L54.4716 18.1074H54.4474C54.3625 18.2207 54.2499 18.3103 54.1204 18.3675C53.9909 18.4247 53.8489 18.4477 53.7079 18.4343C53.5316 18.4428 53.3555 18.414 53.1911 18.3497C53.0266 18.2854 52.8777 18.1871 52.7539 18.0612C52.6301 17.9353 52.5344 17.7847 52.4729 17.6192C52.4115 17.4537 52.3857 17.2771 52.3972 17.101C52.3916 16.9134 52.425 16.7267 52.4955 16.5528C52.566 16.3789 52.672 16.2216 52.8066 16.0909C52.9413 15.9602 53.1017 15.859 53.2776 15.7938C53.4536 15.7285 53.6412 15.7006 53.8285 15.7119C54.2067 15.6929 54.5791 15.8105 54.8778 16.0433L54.6928 16.4907C54.4538 16.3081 54.1616 16.2085 53.8607 16.2074C53.6397 16.1936 53.4222 16.2682 53.2562 16.4147C53.0901 16.5613 52.9891 16.7678 52.9752 16.9888C52.9726 17.026 52.9726 17.0634 52.9752 17.1006" fill="#777777"/>
<path d="M57.7113 15.7583H57.1484V18.3846H57.7113V15.7583Z" fill="#777777"/>
<path d="M60.4974 17.2592V17.8978H61.988V18.3849H59.9336V15.7583H61.9155V16.2493H60.4971V16.8295H61.7475V17.2605L60.4974 17.2592Z" fill="#777777"/>
<path d="M63.8525 18.2212L63.9737 17.7622C64.2479 17.888 64.5445 17.9573 64.846 17.9659C65.2564 17.9659 65.4331 17.7983 65.4331 17.5874C65.4342 17.5399 65.4215 17.4931 65.3965 17.4527C65.3714 17.4123 65.3352 17.38 65.2922 17.3599C65.1239 17.2999 64.948 17.2636 64.7696 17.2522C64.5531 17.2395 64.3413 17.1838 64.1465 17.0884C64.0436 17.0317 63.9585 16.9473 63.901 16.8447C63.8434 16.7422 63.8157 16.6256 63.8209 16.5082C63.8209 16.0453 64.2513 15.7097 64.8905 15.7097C65.2119 15.7052 65.5306 15.7692 65.8254 15.8973L65.6964 16.3402C65.4442 16.2398 65.1761 16.1853 64.9047 16.179C64.506 16.179 64.3822 16.3467 64.3822 16.5059C64.3808 16.5529 64.394 16.5992 64.4198 16.6384C64.4456 16.6777 64.4829 16.7081 64.5266 16.7255C64.6912 16.7778 64.8612 16.8114 65.0333 16.8254C65.2454 16.8429 65.4527 16.8974 65.6458 16.9866C65.7529 17.0432 65.8416 17.1293 65.9015 17.2347C65.9614 17.34 65.9899 17.4603 65.9837 17.5813C65.9837 18.0604 65.6136 18.4314 64.8899 18.4314C64.5325 18.4405 64.1777 18.3681 63.8525 18.2196" fill="#777777"/>
</svg>
