<svg width="160" height="58" viewBox="0 0 160 58" fill="none" xmlns="http://www.w3.org/2000/svg">
<g clip-path="url(#clip0_17042_31578)">
<path d="M28.0176 18.0505C29.803 18.0505 31.2506 19.4976 31.2506 21.2831C31.2506 23.0691 29.803 24.5162 28.0176 24.5162H13.233C11.4474 24.5162 10 23.0691 10 21.2831C10 19.4976 11.4474 18.0505 13.233 18.0505H28.0176Z" fill="#CC393C"/>
<path d="M26.5316 26.5216C28.3172 26.5216 29.7646 27.9689 29.7646 29.7546C29.7646 31.54 28.3172 32.9873 26.5316 32.9873H18.1166C17.399 32.9899 16.8114 33.5576 16.7839 34.268V38.4816C16.7839 40.2671 15.3365 41.7143 13.5515 41.7143C11.7659 41.7143 10.3185 40.2671 10.3185 38.4816V31.3111C10.3185 28.6662 12.4627 26.5216 15.1077 26.5216H26.5316Z" fill="#3D3D6A"/>
<path d="M32.7186 20.602C32.7186 18.8166 34.166 17.3691 35.9514 17.3691C37.7372 17.3691 39.1844 18.8166 39.1844 20.602V38.5044C39.1844 40.29 37.7372 41.7374 35.9514 41.7374C34.166 41.7374 32.7186 40.29 32.7186 38.5044V20.602Z" fill="#3D3D6A"/>
<path d="M72.5081 35.3252L73.8074 35.3218C74.0729 35.3218 74.2883 35.1062 74.2883 34.8409C74.2894 34.7734 74.2783 34.7134 74.2542 34.6566L69.4234 26.5389L61.8765 39.6065C61.2936 40.6169 60.2468 41.1933 59.1604 41.2222C59.1285 41.2267 59.0963 41.2291 59.0625 41.2291H46.7807C44.1354 41.2291 41.9912 39.0847 41.9912 36.4398V20.602C41.9912 18.8166 43.4386 17.3691 45.2242 17.3691C47.0094 17.3691 48.457 18.8166 48.457 20.602V33.4304C48.4593 34.1484 49.0268 34.7362 49.7378 34.7631H56.6081C56.785 34.7087 57.3253 34.525 57.4899 34.2691L66.1196 19.3305C66.7744 18.2062 67.9925 17.4492 69.3867 17.4492C70.7817 17.4492 72.0001 18.2074 72.652 19.334L81.061 33.4523C81.6869 34.2675 82.0592 35.2874 82.0592 36.3944C82.0592 39.0645 79.8945 41.2291 77.2247 41.2291H67.4226C65.7918 41.2291 64.4706 39.9072 64.4706 38.2767C64.4706 36.6467 65.7918 35.3252 67.4226 35.3252H72.5081Z" fill="#3D3D6A"/>
</g>
<defs>
<clipPath id="clip0_17042_31578">
<rect width="72.0598" height="24.4042" fill="white" transform="translate(10 17.3691)"/>
</clipPath>
</defs>
</svg>
