<svg width="160" height="58" viewBox="0 0 160 58" fill="none" xmlns="http://www.w3.org/2000/svg">
<g clip-path="url(#clip0_17040_11315)">
<path d="M34.9548 33.0696V41.4052C34.9548 41.7924 34.7064 42.0335 34.3265 42.0335H31.0244C30.6007 42.0335 30.3596 41.7851 30.3596 41.4052V33.7417C30.3596 31.3163 29.0958 29.7018 27.1233 29.7018C25.1508 29.7018 23.6459 31.3528 23.6459 33.676V41.4125C23.6459 41.7997 23.434 42.0408 23.0176 42.0408H19.7155C19.2918 42.0408 19.0507 41.7924 19.0507 41.4125V33.7491C19.0507 31.3236 17.7503 29.7091 15.8509 29.7091C13.9514 29.7091 12.3369 31.4697 12.3369 33.6102V41.4125C12.3369 41.7997 12.0885 42.0408 11.7086 42.0408H8.37733C7.95361 42.0408 7.71252 41.7924 7.71252 41.4125V26.5093C7.71252 26.1221 7.96091 25.881 8.37733 25.881H10.379C10.7662 25.881 11.0073 26.1294 11.0438 26.5093L11.1826 28.7229C12.0228 26.9622 14.1048 25.5596 16.596 25.5596C19.0872 25.5596 21.1693 26.6846 22.3601 28.4087C23.3463 26.8307 25.2092 25.5596 27.6347 25.5596C31.8938 25.5596 34.9475 28.5841 34.9475 33.0842L34.9548 33.0696Z" fill="black"/>
<path d="M54.5775 26.3408V41.2441C54.5775 41.6313 54.3291 41.8724 53.9127 41.8724H51.1366C50.7129 41.8724 50.4718 41.6605 50.4353 41.2441L50.333 39.6953C49.1349 41.1345 47.3816 42.1938 44.9854 42.1938C40.5217 42.1938 37.2196 38.5703 37.2196 33.7925C37.2196 29.0146 40.6313 25.3911 45.0949 25.3911C49.5586 25.3911 48.9303 26.1655 50.1577 27.2832L50.2599 26.297C50.2965 25.9098 50.5376 25.6979 50.9247 25.6979H53.9127C54.3364 25.6979 54.5775 25.9463 54.5775 26.3335V26.3408ZM50.1504 33.7925C50.1504 31.3305 48.5358 29.5699 46.0008 29.5699C43.4658 29.5699 41.8513 31.3597 41.8513 33.7925C41.8513 36.2252 43.6412 38.0077 46.0008 38.0077C48.3605 38.0077 50.1796 36.2179 50.1504 33.7925Z" fill="black"/>
<path d="M85.3628 40.0536L84.3109 37.7669C84.1355 37.3797 83.8214 37.3067 83.4342 37.5185C82.9447 37.7304 82.2726 38.0445 81.3594 38.0445C79.7084 38.0445 78.5103 37.3432 78.5103 35.4438V29.5701H83.8579C84.2816 29.5701 84.5227 29.3218 84.5227 28.9053V26.3411C84.5227 25.9539 84.2743 25.7128 83.8579 25.7128H78.5103V20.7889C78.5103 20.4017 78.2619 20.1606 77.8455 20.1606H74.6822C74.2585 20.1606 74.0539 20.409 74.0539 20.7889V25.7128H64.1622V20.7889C64.1622 20.4017 63.9139 20.1606 63.4974 20.1606H60.3342C59.9104 20.1606 59.7059 20.409 59.7059 20.7889V25.7128H56.9298C56.5061 25.7128 56.3015 25.9612 56.3015 26.3411V28.9053C56.3015 29.3291 56.5134 29.5701 56.9298 29.5701H59.5671V35.8967C59.5671 39.9367 61.9925 42.1868 65.9667 42.1868C69.9409 42.1868 70.3939 41.2005 70.7445 40.9594C71.0952 40.6818 71.2048 40.4334 71.0221 40.0463L69.9701 37.7596C69.7948 37.3724 69.4807 37.2994 69.0935 37.5112C68.604 37.7231 67.9319 38.0372 67.0187 38.0372C65.3677 38.0372 64.1696 37.3359 64.1696 35.4365V29.5701H73.9224V35.8967C73.9224 39.9367 76.3478 42.1868 80.3147 42.1868C84.2816 42.1868 84.7419 41.2005 85.0925 40.9594C85.4505 40.6818 85.5528 40.4334 85.3775 40.0463L85.3628 40.0536Z" fill="black"/>
<path d="M86.2103 20.1019C86.2103 18.3778 87.5107 17.2162 89.1983 17.1797C90.9224 17.1797 92.2593 18.3778 92.2593 20.1019C92.2593 21.826 90.9224 23.0241 89.1983 23.0241C87.5107 23.0241 86.2103 21.826 86.2103 20.1019ZM86.9847 41.339V26.4285C86.9847 26.0413 87.2331 25.8002 87.613 25.8002H90.9151C91.3388 25.8002 91.5799 26.0486 91.5799 26.4285V41.3317C91.5799 41.7189 91.3315 41.96 90.9151 41.96H87.613C87.1966 41.96 86.9847 41.7116 86.9847 41.3317V41.339Z" fill="black"/>
<path d="M94.9039 41.4051V17.5672C94.9039 17.18 95.1523 16.939 95.5687 16.939H98.8708C99.258 16.939 99.4991 17.1874 99.4991 17.5672V41.4051C99.4991 41.7923 99.2507 42.0334 98.8708 42.0334H95.5687C95.145 42.0334 94.9039 41.785 94.9039 41.4051Z" fill="black"/>
<path d="M119.166 17.4354V41.2733C119.166 41.6605 118.917 41.9016 118.501 41.9016H116.039C115.652 41.9016 115.411 41.6897 115.374 41.2733L115.272 39.7976C114.008 41.2002 112.174 42.223 109.749 42.223C105.285 42.223 101.837 38.5995 101.837 33.8217C101.837 29.0439 105.139 25.4203 109.603 25.4203C114.066 25.4203 113.438 26.297 114.592 27.5682V17.4354C114.592 17.0482 114.804 16.8071 115.221 16.8071H118.493C118.917 16.8071 119.166 17.0555 119.166 17.4354ZM114.775 33.8144C114.775 31.4255 113.16 29.5918 110.625 29.5918C108.09 29.5918 106.476 31.4182 106.476 33.8144C106.476 36.2106 108.266 38.037 110.625 38.037C113.153 38.037 114.775 36.2836 114.775 33.8217V33.8144Z" fill="black"/>
<path d="M138.759 26.3628V41.266C138.759 41.6532 138.511 41.8943 138.094 41.8943H135.318C134.894 41.8943 134.653 41.6825 134.617 41.266L134.515 39.7173C133.316 41.1565 131.563 42.2158 129.167 42.2158C124.703 42.2158 121.401 38.5922 121.401 33.8144C121.401 29.0366 124.813 25.4131 129.276 25.4131C133.74 25.4131 133.105 26.1875 134.339 27.3125L134.441 26.3263C134.478 25.9391 134.719 25.7272 135.106 25.7272H138.094C138.511 25.7272 138.759 25.9756 138.759 26.3628ZM134.332 33.8217C134.332 31.3598 132.717 29.5991 130.182 29.5991C127.647 29.5991 126.033 31.389 126.033 33.8217C126.033 36.2545 127.823 38.0443 130.182 38.0443C132.71 38.0443 134.361 36.2545 134.325 33.8217H134.332Z" fill="black"/>
<path d="M141.075 39.2644C141.075 37.6206 142.404 36.291 144.048 36.291C145.692 36.291 147.021 37.6206 147.021 39.2644C147.021 40.9081 145.692 42.2377 144.048 42.2377C142.426 42.2596 141.097 40.9592 141.075 39.3301C141.075 39.3082 141.075 39.2863 141.075 39.2644Z" fill="#FF9666"/>
</g>
<defs>
<clipPath id="clip0_17040_11315">
<rect width="140.266" height="29.2221" fill="white" transform="translate(7.11353 14.6743)"/>
</clipPath>
</defs>
</svg>
