<svg width="160" height="58" viewBox="0 0 160 58" fill="none" xmlns="http://www.w3.org/2000/svg">
<g clip-path="url(#clip0_17040_11247)">
<path d="M46.9172 8.66943H7.11353V48.4731H46.9172V8.66943Z" fill="#FF7900"/>
<path d="M22.7261 44.612C22.1645 44.977 21.5467 45.1595 20.9009 45.1595C19.8619 45.1595 19.2582 44.4715 19.2582 43.5449C19.2582 42.3094 20.3954 41.6495 22.7401 41.3827V41.0738C22.7401 40.6667 22.4312 40.442 21.8696 40.442C21.308 40.442 20.8447 40.6667 20.5218 41.0738L19.539 40.5122C20.0585 39.7962 20.8447 39.4312 21.8977 39.4312C23.3439 39.4312 24.1582 40.063 24.1582 41.0738C24.1582 41.0738 24.1582 45.0753 24.1582 45.0893H22.8665L22.7261 44.612ZM20.6762 43.4466C20.6762 43.8117 20.9149 44.1627 21.3361 44.1627C21.7994 44.1627 22.2347 43.9661 22.684 43.573V42.2673C21.3221 42.4498 20.6762 42.7867 20.6762 43.4466Z" fill="white"/>
<path d="M25.2954 39.7121L26.5029 39.5436L26.6292 40.2035C27.3172 39.7121 27.8507 39.4453 28.5387 39.4453C29.6759 39.4453 30.2656 40.049 30.2656 41.2424V45.1035H28.8054V41.4952C28.8054 40.8212 28.6229 40.5124 28.1034 40.5124C27.6682 40.5124 27.2329 40.7089 26.7415 41.1301V45.1035H25.2954V39.7121Z" fill="white"/>
<path d="M39.9253 45.2016C38.2966 45.2016 37.3138 44.1486 37.3138 42.3234C37.3138 40.4842 38.2966 39.4312 39.8972 39.4312C41.4978 39.4312 42.4525 40.442 42.4525 42.2532C42.4525 42.3515 42.4385 42.4498 42.4385 42.534H38.7459C38.76 43.587 39.1952 44.1065 40.0517 44.1065C40.5992 44.1065 40.9643 43.8819 41.3012 43.3905L42.3683 43.9801C41.905 44.7804 41.0626 45.2016 39.9253 45.2016ZM41.0204 41.5933C41.0204 40.8492 40.5992 40.414 39.9113 40.414C39.2514 40.414 38.8442 40.8352 38.7881 41.5933H41.0204Z" fill="white"/>
<path d="M12.0136 45.2582C10.5674 45.2582 9.27576 44.3456 9.27576 42.3378C9.27576 40.3301 10.5815 39.4175 12.0136 39.4175C13.4597 39.4175 14.7514 40.3301 14.7514 42.3378C14.7514 44.3456 13.4597 45.2582 12.0136 45.2582ZM12.0136 40.639C10.9325 40.639 10.7219 41.6218 10.7219 42.3238C10.7219 43.0398 10.9184 44.0086 12.0136 44.0086C13.1087 44.0086 13.3053 43.0258 13.3053 42.3238C13.3053 41.6218 13.0947 40.639 12.0136 40.639Z" fill="white"/>
<path d="M15.7482 39.5575H17.1381V40.2034C17.4049 39.8524 18.0507 39.4312 18.6685 39.4312C18.7247 39.4312 18.7949 39.4312 18.851 39.4452V40.8071C18.823 40.8071 18.8089 40.8071 18.7808 40.8071C18.149 40.8071 17.447 40.9054 17.2364 41.3968V45.0753H15.7482V39.5575Z" fill="white"/>
<path d="M33.8319 43.9103C34.9411 43.8963 35.0253 42.7731 35.0253 42.043C35.0253 41.1725 34.6041 40.4705 33.8179 40.4705C33.2984 40.4705 32.7087 40.8496 32.7087 42.0991C32.7227 42.7871 32.7649 43.9103 33.8319 43.9103ZM36.4434 39.5438V44.7948C36.4434 45.7215 36.3732 47.2378 33.7336 47.2659C32.6385 47.2659 31.6417 46.8307 31.4311 45.89L32.8631 45.6653C32.9193 45.9321 33.0878 46.2129 33.9021 46.2129C34.6603 46.2129 35.0253 45.8478 35.0253 44.9914V44.3456L35.0113 44.3315C34.7866 44.7387 34.4216 45.1318 33.5792 45.1318C32.2875 45.1318 31.2766 44.2332 31.2766 42.3659C31.2766 40.5126 32.3296 39.4736 33.509 39.4736C34.6182 39.4736 35.0253 39.9791 35.1236 40.2458H35.1096L35.2359 39.586H36.4434V39.5438Z" fill="white"/>
<path d="M43.0141 37.7045H42.4385V39.291H42.1296V37.7045H41.554V37.4658H43.0001V37.7045H43.0141ZM45.4009 39.291H45.0921V37.7607H45.078L44.4743 39.291H44.2777L43.674 37.7607H43.66V39.291H43.3511V37.4658H43.8144L44.362 38.8558L44.8955 37.4658H45.3588V39.291H45.4009Z" fill="white"/>
</g>
<defs>
<clipPath id="clip0_17040_11247">
<rect width="39.8037" height="39.8037" fill="white" transform="translate(7.11353 8.66943)"/>
</clipPath>
</defs>
</svg>
