<svg width="160" height="58" viewBox="0 0 160 58" fill="none" xmlns="http://www.w3.org/2000/svg">
<g clip-path="url(#clip0_17040_11280)">
<path d="M10.8093 33.1753L7.11353 24.4253H8.14903L11.226 31.7898L14.0588 24.4253H15.082L11.6846 33.163L10.8093 33.1753Z" fill="#222222"/>
<path d="M59.098 24.4253L62.7938 33.1753H61.7558L58.6813 25.8134L55.8458 33.1753H54.8226L58.2229 24.4401L59.098 24.4253Z" fill="#222222"/>
<path d="M21.4231 37.1522H20.4591C20.6909 33.4688 21.7535 29.3415 23.5361 25.2759C23.6914 24.9184 23.7555 24.7828 23.9182 24.4253H24.9291C24.7712 24.7631 24.5617 25.3104 24.4113 25.6581C22.7076 29.5683 21.645 33.6413 21.4231 37.1522Z" fill="#222222"/>
<path d="M26.0032 47.2326C25.3446 47.2364 24.6924 47.1037 24.0875 46.8431C22.0042 45.9284 20.7196 43.4629 20.4681 39.8953L21.4199 39.8263C21.6467 43.0314 22.729 45.2035 24.4697 45.9678C28.6092 47.7726 35.3178 41.6138 39.4278 32.2276C41.4421 27.6245 42.522 22.9475 42.4678 19.0619C42.4135 15.3045 41.3164 12.7675 39.376 11.9119C35.9416 10.4055 30.5003 14.4391 26.373 21.7098H25.3178C29.7557 13.8769 35.7986 9.30591 39.7607 11.0367C42.0634 12.0451 43.3627 14.8878 43.4219 19.0397C43.4786 23.0609 42.3716 27.8785 40.3031 32.5999C36.484 41.3598 30.5668 47.2326 26.0032 47.2326Z" fill="#222222"/>
<path d="M21.0654 33.306L17.2981 24.4253H18.3336L21.9431 32.9313L21.0654 33.306Z" fill="#222222"/>
<path d="M51.5879 33.1753L49.1051 25.6359L46.2402 33.1753L45.3847 33.1778L43.5923 29.1665L44.0065 27.7389L45.7693 31.8242L48.6441 24.4253H49.6599L52.5938 33.1753H51.5879Z" fill="#222222"/>
<path d="M31.8321 32.9776C31.0059 32.9781 30.1982 32.7336 29.511 32.2749C28.8239 31.8163 28.2882 31.1642 27.9717 30.401C27.6552 29.6379 27.5722 28.7981 27.733 27.9878C27.8939 27.1774 28.2915 26.433 28.8755 25.8486C29.4595 25.2643 30.2037 24.8663 31.0139 24.705C31.8242 24.5436 32.6641 24.6262 33.4273 24.9422C34.1907 25.2582 34.8431 25.7936 35.3022 26.4804C35.7612 27.1673 36.0062 27.9749 36.0062 28.8011C36.0023 29.9071 35.5614 30.9668 34.7795 31.7492C33.9976 32.5315 32.9381 32.9731 31.8321 32.9776ZM31.8321 25.5811C31.1953 25.5811 30.5727 25.7699 30.0432 26.1238C29.5137 26.4776 29.101 26.9805 28.8573 27.5688C28.6136 28.1572 28.5498 28.8046 28.674 29.4292C28.7983 30.0538 29.105 30.6276 29.5553 31.0779C30.0056 31.5282 30.5793 31.8349 31.2039 31.9591C31.8285 32.0833 32.476 32.0196 33.0643 31.7759C33.6527 31.5322 34.1556 31.1195 34.5094 30.5899C34.8632 30.0604 35.0521 29.4379 35.0521 28.8011C35.0507 27.9475 34.7111 27.1292 34.1075 26.5257C33.5039 25.9221 32.6857 25.5824 31.8321 25.5811Z" fill="#222222"/>
</g>
<defs>
<clipPath id="clip0_17040_11280">
<rect width="55.6807" height="36.6564" fill="white" transform="translate(7.11353 10.6719)"/>
</clipPath>
</defs>
</svg>
