<svg xmlns="http://www.w3.org/2000/svg" width="1000" height="811" viewBox="0 0 1000 811" version="1.1">
	<path d="M 608.879 99.250 C 607.638 101.037, 602.964 107.450, 598.492 113.500 C 594.021 119.550, 587.566 128.325, 584.146 133 C 580.727 137.675, 577.377 142.175, 576.701 143 C 576.025 143.825, 574.359 146.075, 573 148 C 571.641 149.925, 569.981 152.175, 569.311 153 C 567.786 154.879, 537.283 196.563, 531.991 204 C 529.838 207.025, 523.772 215.350, 518.509 222.500 C 513.247 229.650, 507.163 237.975, 504.990 241 C 492.650 258.178, 491.024 260.205, 490.630 258.899 C 490.398 258.129, 489.677 254.125, 489.027 250 C 488.378 245.875, 487.468 240.700, 487.005 238.500 C 486.541 236.300, 485.614 231.800, 484.943 228.500 C 473.894 174.121, 451.279 149.120, 407.678 143.083 C 387.605 140.304, 364.652 143.255, 346.500 150.948 C 345.400 151.415, 342.700 152.553, 340.500 153.478 C 316.649 163.509, 297.692 176.800, 277.715 197.500 C 271.190 204.261, 271.882 205.430, 280.897 202.871 C 286.712 201.220, 306.181 201.238, 311.500 202.900 C 344.952 213.351, 363.499 238.469, 371.015 283.500 C 372.186 290.513, 371.870 330.978, 370.578 339.500 C 370.245 341.700, 369.498 346.650, 368.918 350.500 C 366.836 364.337, 359.856 400.002, 355.934 416.847 C 353.050 429.236, 355.042 435.167, 362.464 436.291 C 367.103 436.994, 393.382 443.986, 425 452.930 C 440.675 457.364, 455.300 461.490, 457.500 462.100 C 459.700 462.710, 462.534 463.611, 463.797 464.104 C 470.673 466.786, 478.670 460.735, 496.974 439 C 499.984 435.425, 502.688 432.275, 502.981 432 C 503.995 431.049, 518.530 412.478, 522.940 406.500 C 525.374 403.200, 529.231 398.025, 531.512 395 C 533.793 391.975, 537.626 386.575, 540.031 383 C 542.435 379.425, 545.212 375.628, 546.201 374.561 C 547.191 373.495, 548 372.226, 548 371.740 C 548 371.254, 548.609 370.248, 549.354 369.503 C 550.538 368.319, 556.570 359.002, 570.073 337.500 C 572.145 334.200, 575.774 327.793, 578.137 323.262 C 583.181 313.591, 584.849 314.130, 582.599 324.702 C 581.804 328.441, 580.177 336.675, 578.983 343 C 575.889 359.398, 571.557 380.933, 569.982 387.750 C 568.951 392.213, 567.627 398.133, 566.070 405.250 C 565.123 409.577, 564.335 413.058, 561.484 425.500 C 557.692 442.045, 551.665 465.131, 549.083 473 C 547.549 477.675, 545.274 484.875, 544.028 489 C 542.782 493.125, 541.414 497.400, 540.990 498.500 C 540.565 499.600, 539.512 502.750, 538.649 505.500 C 535.430 515.760, 517.322 568.504, 515.990 571.500 C 515.501 572.600, 514.433 575.525, 513.616 578 C 512.800 580.475, 510.712 586.325, 508.977 591 C 507.241 595.675, 505.452 600.625, 505 602 C 504.548 603.375, 500.723 613.725, 496.500 625 C 492.277 636.275, 488.452 646.625, 488 648 C 487.548 649.375, 485.755 654.325, 484.016 659 C 479.789 670.360, 475.428 683.763, 474.681 687.692 C 474.163 690.412, 474.533 691.271, 477.186 693.503 C 482.419 697.906, 499.851 705.665, 512 708.998 C 514.475 709.676, 517.625 710.582, 519 711.009 C 521.567 711.807, 528.003 713.114, 538.417 714.955 C 550.128 717.024, 566.657 715.965, 576.500 712.515 C 595.304 705.925, 610.233 685.174, 622.914 648 C 624.133 644.425, 625.506 640.600, 625.965 639.500 C 626.423 638.400, 627.339 635.925, 628 634 C 628.661 632.075, 629.586 629.600, 630.056 628.500 C 632.751 622.193, 651.230 566.236, 654.990 553 C 655.693 550.525, 657.047 546.025, 658 543 C 658.953 539.975, 660.295 535.475, 660.982 533 C 661.669 530.525, 662.584 527.375, 663.015 526 C 663.446 524.625, 664.792 519.675, 666.007 515 C 667.222 510.325, 668.794 504.475, 669.500 502 C 672.428 491.742, 676.274 476.074, 681.038 455 C 682.219 449.775, 683.565 443.925, 684.030 442 C 685.298 436.740, 686.703 430.192, 688 423.500 C 688.639 420.200, 689.566 415.700, 690.059 413.500 C 691.070 408.993, 697.078 377.205, 699.509 363.500 C 702.031 349.285, 703.720 338.826, 705.889 324 C 706.412 320.425, 707.362 314.125, 708 310 C 709.895 297.750, 711.037 289.920, 712.011 282.500 C 712.517 278.650, 713.368 272.350, 713.901 268.500 C 715.575 256.427, 717.111 244.761, 717.982 237.500 C 718.912 229.750, 721.228 211.622, 723.541 194 C 725.146 181.767, 727.470 162.201, 729.045 147.657 C 729.572 142.793, 729.717 138.352, 729.368 137.787 C 728.829 136.915, 704.036 124.616, 693 119.747 C 674.922 111.770, 656.317 104.503, 647.500 101.973 C 629.956 96.940, 625.689 96.072, 618.318 96.036 C 611.329 96.001, 611.076 96.087, 608.879 99.250" stroke="none" fill="black" fill-rule="evenodd"/>
</svg>