<svg width="43" height="50" viewBox="0 0 43 50" fill="none" xmlns="http://www.w3.org/2000/svg">
<path d="M42.8317 0H0.00435839L0 35.6678C0 38.0884 0.678836 39.9876 2.01764 41.3129C3.3076 42.5903 5.13933 43.245 7.61766 43.3146C13.5353 43.4795 17.0645 44.7898 19.7919 47.8359L21.4179 49.8124L23.044 47.8359C25.7715 44.7898 29.3007 43.4796 35.2187 43.3146C37.6968 43.245 39.5285 42.5903 40.8182 41.3131C42.157 39.9876 42.8359 38.0884 42.8359 35.6676L42.8317 0ZM40.0678 40.559C38.9469 41.6687 37.3045 42.1932 35.1885 42.2524C29.0902 42.4224 25.2473 43.7699 22.2343 47.1451L21.4179 48.1371L20.6018 47.1451C17.5886 43.7699 13.7459 42.4224 7.64739 42.2524C5.53161 42.1932 3.88922 41.6687 2.76833 40.559C1.63846 39.4405 1.06559 37.7948 1.06559 35.6678L1.06973 1.06244H41.7663L41.7705 35.6678C41.7705 37.7948 41.1976 39.4404 40.0678 40.559Z" fill="black"/>
<path d="M14.2911 10.1838C13.3969 10.1838 12.7381 10.8612 12.7381 11.7527C12.7381 12.6381 13.3969 13.3088 14.2911 13.3088C15.1655 13.3088 15.8174 12.6445 15.8174 11.7527C15.8174 10.8541 15.1655 10.1838 14.2911 10.1838ZM22.4801 4.50281H21.8915V5.96079H22.48C23.0398 5.96079 23.348 5.63619 23.348 5.24295C23.348 4.8384 23.0281 4.50281 22.4801 4.50281ZM29.687 12.4035H31.1189L30.4062 10.7L29.687 12.4035ZM6.30308 7.1398C7.04569 7.1398 7.59921 6.57561 7.59921 5.81826C7.59921 5.05489 7.04569 4.4857 6.30308 4.4857C5.54361 4.4857 4.98408 5.0611 4.98408 5.81826C4.98408 6.57012 5.54361 7.1398 6.30308 7.1398ZM28.5502 7.1398C29.2929 7.1398 29.8464 6.57012 29.8464 5.81826C29.8464 5.0611 29.2929 4.4857 28.5503 4.4857C27.7908 4.4857 27.2313 5.0666 27.2313 5.81826C27.2313 6.57012 27.7908 7.1398 28.5502 7.1398Z" fill="black"/>
<path d="M40.7102 2.11535H2.12521L2.12358 15.8012H40.712L40.7102 2.11535ZM28.55 3.75668C29.7665 3.75668 30.6517 4.63372 30.6517 5.81813C30.6517 6.51902 30.3375 7.11697 29.8179 7.47556L30.566 8.15345L30.0804 8.71718L29.0695 7.80608C28.9039 7.84605 28.7325 7.86258 28.5501 7.86258C27.3221 7.86258 26.4253 6.97451 26.4253 5.8181C26.4253 4.65643 27.322 3.75668 28.55 3.75668ZM24.8555 3.80768H25.6432V7.81161H24.8555V3.80768ZM15.9474 3.80768H16.4442L17.9634 6.43907L19.5169 3.80768H20.008L20.1275 7.81161H19.351L19.3169 5.40831L18.2089 7.34438H17.7176L16.6326 5.40835L16.5928 7.81164H15.8216L15.9474 3.80768ZM12.4757 3.80768L13.4354 5.47655L14.395 3.80768H15.2858L13.7954 6.25092V7.81161H13.0072V6.25092L11.5338 3.80768H12.4757ZM9.19231 3.80768H9.98014V7.12246H11.9222V7.81161H9.19231V3.80768ZM6.30328 3.75668C7.51999 3.75668 8.405 4.63372 8.405 5.81813C8.405 6.99155 7.51999 7.86261 6.30328 7.86261C5.07555 7.86261 4.17879 6.97454 4.17879 5.81813C4.17879 4.65646 5.07551 3.75668 6.30328 3.75668ZM7.68931 14.0999H4.475V9.38564H5.40262V13.2885H7.68931V14.0999ZM9.89421 12.2624V14.0999H8.96613V12.2624L7.23158 9.38564H8.3405L9.47037 11.3504L10.6002 9.38564H11.649L9.89421 12.2624ZM14.2914 14.1601C12.8457 14.1601 11.79 13.1141 11.79 11.7529C11.79 10.3851 12.8457 9.32547 14.2914 9.32547C15.7239 9.32547 16.766 10.3582 16.766 11.7528C16.766 13.1344 15.7239 14.1601 14.2914 14.1601ZM21.9496 14.1534H21.4248L18.6074 11.0017V14.0999H17.6996V9.33854H18.2244L21.0351 12.4838V9.38564H21.9496V14.1534ZM21.8918 6.66096V7.81161H21.104V3.80768H22.5199C23.4911 3.80768 24.1593 4.37186 24.1593 5.25467C24.1593 6.12 23.4795 6.65547 22.4858 6.66096H21.8918ZM27.4158 14.1534H26.891L24.0738 11.0017V14.0999H23.1658V9.33854H23.6906L26.5013 12.4838V9.38564H27.4158V14.1534ZM31.7922 14.0999L31.4156 13.1881H29.3915L29.0149 14.0999H28.0329L30.1042 9.38564H30.716L32.7732 14.0999L31.7922 14.0999ZM34.333 14.0999H33.4053V9.38564H34.333V14.0999ZM34.9111 6.09174C34.9111 7.24791 34.209 7.86261 33.1464 7.86261C32.0843 7.86261 31.3817 7.24788 31.3817 6.09174V3.80768H32.17V6.15445C32.17 6.69544 32.4899 7.15096 33.1524 7.15096C33.8089 7.15096 34.1289 6.69544 34.1289 6.15445V3.80768H34.9111V6.09174ZM36.982 14.1601C36.1953 14.1601 35.6105 13.9524 35.1401 13.5904L35.6038 12.853C36.0277 13.1946 36.498 13.3558 36.9958 13.3558C37.4194 13.3558 37.7352 13.1744 37.7352 12.7921C37.7352 12.4165 37.4666 12.2493 36.7606 12.0547C35.9602 11.8333 35.3345 11.525 35.3345 10.6999C35.3345 9.86828 36.0205 9.32547 37.0363 9.32547C37.7288 9.32547 38.2461 9.52 38.6163 9.80831L38.1924 10.506C37.8695 10.2708 37.5067 10.1304 37.0292 10.1304C36.5989 10.1304 36.2764 10.291 36.2764 10.6399C36.2764 10.9815 36.5858 11.0892 37.2381 11.2833C38.0379 11.5183 38.6569 11.8266 38.6569 12.7321C38.6569 13.6106 37.9907 14.1601 36.982 14.1601ZM38.6569 7.81161H35.8873V3.80768H38.64V4.50278H36.6752V5.44211H38.406V6.13724H36.6751V7.12246H38.6569V7.81161Z" fill="black"/>
<path d="M40.7123 16.8544H2.12381L2.12153 35.6679C2.12153 39.3707 3.98988 41.0633 7.64739 41.1784C14.0163 41.3826 18.3805 42.8218 21.4182 46.3066C24.4556 42.8218 28.8197 41.3826 35.1887 41.1784C38.8462 41.0633 40.7146 39.3707 40.7146 35.6679L40.7123 16.8544ZM14.3725 38.0244C9.2073 38.0244 5.00526 33.8334 5.00526 28.6825C5.00526 23.5315 9.2073 19.3413 14.3725 19.3413C19.5376 19.3413 23.7398 23.5315 23.7398 28.6825C23.7398 33.8334 19.5378 38.0244 14.3725 38.0244ZM37.1308 37.6005H26.3426V19.7649H31.5487V33.0832H37.1308V37.6005Z" fill="black"/>
<path d="M12.5009 24.9596C12.886 24.8431 13.2126 24.6763 13.5939 24.8045C13.4538 24.5213 13.1269 24.3933 12.8275 24.4785C12.672 24.5213 12.5319 24.5911 12.4036 24.6339C12.0185 24.8045 11.653 24.8045 11.2563 24.688C11.5518 25.045 12.0924 25.0993 12.5009 24.9596Z" fill="black"/>
<path d="M20.416 26.1193C19.8754 27.1937 17.7479 26.9959 17.8762 28.2256L17.7207 27.9423C17.5378 27.601 17.6778 27.1783 18.0201 26.9959L19.9765 25.9643C20.5989 25.6383 20.8283 24.8161 20.416 24.2072C20.0894 23.7261 19.463 23.5594 18.9264 23.7571C18.9264 23.7571 18.3585 24.0094 18.1174 23.346C17.8333 23.6446 17.9773 24.0519 18.1602 24.1683C17.9773 24.1955 17.6196 24.4477 17.6078 24.9441C18.0201 25.0566 18.4712 24.9014 18.5569 24.7734C18.5297 24.9285 18.798 25.2545 19.1832 25.1846C18.8563 24.8432 18.9418 24.4631 19.1832 24.3661C19.4087 24.2807 19.6925 24.3505 19.8482 24.5485C20.0622 24.8315 19.9611 25.2273 19.6614 25.3824L17.705 26.414C17.04 26.7554 16.7832 27.5895 17.1411 28.2527L18.0201 29.909C18.1174 30.0913 18.0902 30.3319 17.9345 30.4752C17.7361 30.6847 17.3938 30.642 17.2227 30.4017C16.686 29.6259 16.2308 28.7918 15.877 27.8999C16.1764 28.0122 16.4019 27.8144 16.4019 27.8144C16.4019 27.8144 16.0599 27.5739 16.2465 27.0814C16.3437 26.7828 16.3748 26.5266 16.3321 26.2861C16.4176 26.3598 16.5459 26.414 16.7016 26.4026C16.5731 25.8207 16.7288 25.7936 16.7717 25.2854C16.7832 25.0567 16.7288 24.886 16.6588 24.7617C16.7832 24.7734 16.9271 24.7617 17.0554 24.6337C16.4992 24.405 16.6005 23.6292 15.9353 23.5438C16.1882 23.4314 16.2036 23.2063 16.2036 23.1636C15.6358 23.2063 15.2235 22.7951 14.6128 22.7951C13.9478 22.7951 13.7649 22.9658 13.5237 22.9658C13.1814 22.9658 13.0142 23.1326 13.057 23.3032L12.4892 23.4585C12.4035 23.6136 12.4892 23.7415 12.5592 23.7842C12.5592 23.7842 12.4621 23.8697 12.5007 24.0094C12.5436 24.1683 12.6447 24.4477 12.6447 24.4477L12.7576 24.3351C12.8159 24.2807 12.8976 24.2382 12.9988 24.2226L13.1814 24.2072C13.4111 24.1798 13.6209 24.2924 13.7377 24.5058L13.9789 24.9868H12.7576C12.7576 24.9868 12.8431 25.2544 12.8704 25.3397C12.9287 25.4676 13.0416 25.526 13.2554 25.526C13.4811 25.526 13.6094 25.4949 13.6094 25.4949V25.8207C13.6094 26.0031 13.4655 26.2434 12.9716 26.1039L11.9368 25.8051C11.3261 25.65 11.0267 25.3668 10.6144 24.8587L10.49 24.6609C10.3889 24.5329 10.346 24.3778 10.3617 24.2226C10.3732 24.0946 10.3732 23.9278 10.346 23.7689C10.2916 23.3887 10.0076 23.2607 9.9337 23.2451C9.94934 23.2878 10.0777 23.6292 9.9337 23.9396C9.82083 23.6021 9.5953 23.346 9.07034 23.3032C9.07034 23.3032 9.45525 23.6292 9.46699 24.0519C9.00032 23.7415 8.43226 23.955 8.43226 23.955C8.43226 23.955 9.33868 24.1373 9.33868 24.8587C9.33868 25.1265 9.19862 25.4832 8.77456 25.7238C8.77456 25.7238 9.22581 25.8207 9.52524 25.65C9.61098 25.5958 9.72361 25.5958 9.80929 25.6656C10.1048 25.9643 10.7583 26.6004 10.8556 26.7981C11.0695 27.221 10.7855 27.5624 10.7855 27.5624C10.7855 27.5624 11.2407 27.5312 11.3962 27.2635C11.4234 27.221 11.4816 27.2054 11.5245 27.221L12.3724 27.7292L11.7928 28.113C11.2833 28.4505 10.6883 28.6212 10.0892 28.6212H9.50986C9.32693 28.6212 9.14014 28.5787 8.98464 28.4932C8.82917 28.4234 8.58799 28.3225 8.34682 28.3225C7.83728 28.3225 7.68177 28.5787 7.68177 28.5787C7.68177 28.5787 8.19131 28.5513 8.38965 28.7491C8.07845 28.7066 7.51062 28.8463 7.45211 29.3581C7.45211 29.3581 7.8216 29.1449 8.17567 29.1991C7.92272 29.3156 7.63894 29.653 7.97733 30.1922C7.97733 30.1922 8.00842 29.6259 8.7163 29.6259C9.42419 29.6259 9.32694 30.2464 9.32694 30.2464C9.32694 30.2464 9.63814 30.1766 9.70817 29.781C9.72361 29.6956 9.77819 29.6259 9.86364 29.6259H11.3533C11.4118 29.6259 11.4505 29.6684 11.4505 29.7111C11.5245 30.0215 11.9368 30.1067 11.9368 30.1067C11.9368 30.1067 11.7346 29.7383 12.0497 29.5986L13.1388 29.1293L13.6366 29.781C12.8158 30.2464 11.6528 30.7702 11.3379 30.8981C10.6883 31.154 10.5015 31.154 10.2177 31.1386C10.2177 31.1386 10.56 31.449 11.1979 31.3791C11.2561 31.3791 11.3107 31.3635 11.3805 31.3364C11.439 31.3093 11.5091 31.3364 11.5362 31.3945C11.6374 31.5923 11.7928 31.9027 11.8357 32.0306C11.9368 32.2982 11.75 32.3681 11.5517 32.4535C11.2833 32.5815 10.9995 32.7094 10.5444 32.8647C9.85215 32.4689 9.32694 32.8376 9.32694 32.8376C9.32694 32.8376 9.73536 32.9074 9.9337 33.1477C9.53702 33.1167 9.11295 33.3457 8.96922 33.7955C9.07034 33.7528 9.50986 33.5706 9.89083 33.6287C9.77819 33.7257 9.62249 33.9391 9.62249 34.2223C9.63814 34.362 9.66533 34.4316 9.66533 34.4316C9.66533 34.4316 10.0076 33.8964 10.63 33.8964C10.8984 33.8964 11.0267 34.036 11.0267 34.1796C11.0267 34.2921 10.941 34.4316 10.941 34.4316C10.941 34.4316 11.7657 34.362 11.4973 33.6287L12.9987 33.0896C13.0687 33.0625 13.1542 33.0742 13.1971 33.1323C13.2982 33.2175 13.4811 33.3301 13.7377 33.303L13.2982 32.3138C13.1814 32.0579 13.3254 31.7747 13.6209 31.6895L14.4027 31.4373C14.4027 31.4373 14.6128 31.604 15.2974 32.1703C15.7486 32.5388 15.7486 33.1905 15.7486 33.1905C15.7486 33.1905 16.1453 33.0354 16.1453 32.6784C16.2192 32.7094 16.3047 32.7368 16.3865 32.7522C16.7831 32.8491 17.0554 33.1905 16.7831 33.7413L16.5304 34.2067C16.4293 34.3774 16.3321 34.4201 16.1882 34.4201C16.0324 34.4045 15.8341 34.393 15.6358 34.4201C14.9007 34.49 14.8851 34.9864 14.8851 34.9864C14.8851 34.9864 15.1262 34.8428 15.4218 34.8428C15.5386 34.8428 15.6514 34.8738 15.7486 34.9011C15.7486 34.9011 15.138 34.9981 15.138 35.5216C15.138 35.735 15.3091 35.8476 15.3091 35.8476C15.3091 35.8476 15.4646 35.2967 16.0909 35.2967C16.0909 35.2967 15.7486 35.4518 15.7486 35.7778C15.7486 36.1152 16.0481 36.2004 16.0481 36.2004C16.0481 36.2004 15.8498 35.7079 16.7988 35.7079H17.0554C17.2227 35.7079 17.3666 35.6071 17.4249 35.4518L17.6078 34.9436C17.7206 34.645 17.9072 34.645 18.0201 34.6721C18.2028 34.7148 18.2028 34.9707 18.2028 34.9707C18.2028 34.9707 18.514 34.5053 18.1445 34.0788C18.0745 33.9933 18.0473 33.8539 18.0901 33.7413L18.3468 33.0354C18.9107 33.1751 19.1831 32.7094 19.1831 32.7094C18.584 32.5815 18.2885 32.3954 17.4249 31.6895C17.04 31.3791 16.7988 30.9834 16.7988 30.9135C16.9044 31.025 17.0317 31.1138 17.1728 31.1745C17.3139 31.2352 17.4659 31.2666 17.6195 31.2666C17.8605 31.2666 18.1017 31.1814 18.3157 31.0261C18.5025 30.871 18.6269 30.6732 18.6852 30.4598C18.9846 29.9517 19.6925 30.359 19.8053 29.3156C19.5059 29.7383 18.8563 29.4553 18.728 29.9788C18.4596 28.8189 20.1322 29.5832 20.1476 27.83C19.7353 28.5359 18.2728 28.2954 18.3739 29.172L18.3585 29.1603C17.7904 27.349 20.5717 28.5203 20.416 26.1193ZM13.5355 23.6563C13.3254 23.6563 13.2671 23.346 13.5937 23.346C13.8234 23.346 14.0333 23.4158 14.0333 23.4158C14.0333 23.4158 13.7377 23.6563 13.5355 23.6563Z" fill="black"/>
</svg>
