<svg width="604" height="450" viewBox="0 0 604 450" fill="none" xmlns="http://www.w3.org/2000/svg">
<g clip-path="url(#clip0_22943_115421)">
<path d="M199.853 327.789L412.979 201.748L282.213 127.574L68.1149 253.447L199.853 327.789Z" stroke="#736BCD" stroke-width="0.935579" stroke-linecap="round" stroke-linejoin="round" stroke-dasharray="3.42 3.42"/>
<path d="M282.898 123.808C283.102 123.723 283.336 123.738 283.529 123.853L341.015 158.07C341.23 158.198 341.361 158.431 341.358 158.681C341.356 158.931 341.221 159.161 341.004 159.286L283.519 192.134C283.303 192.257 283.04 192.258 282.824 192.136L224.65 159.288C224.431 159.164 224.294 158.933 224.292 158.681C224.29 158.43 224.423 158.195 224.64 158.068L282.813 123.851L282.898 123.808Z" stroke="#AA50FF" stroke-width="1.40732" stroke-linejoin="round"/>
<path d="M284.357 159.899L226.184 127.05L284.357 92.8325L341.842 127.05L284.357 159.899Z" fill="#8C49FA"/>
<path d="M284.357 127.713L226.184 94.8637L284.357 60.6465L341.842 94.8637L284.357 127.713Z" fill="#231D2C"/>
<path d="M265.633 82.8147C264.178 83.663 262.906 84.5413 261.894 85.3763C258.914 87.8355 259.595 88.9878 262.064 90.413L265.324 92.2953L273.879 87.3564L274.965 87.9839L263.201 94.7763C260.714 96.2117 260.032 98.3313 262.194 100.366C264.667 102.7 266.665 103.894 270.888 105.385C274.028 106.496 277.285 106.7 279.771 105.264L282.712 103.566L278.804 101.31C275.98 99.6795 275.933 96.8311 278.834 95.1562L287.378 90.2231C289.757 88.8499 289.697 86.623 287.308 85.2439L279.163 80.541C276.844 79.2025 273.147 79.3262 270.439 80.4431C268.725 81.1503 267.089 81.9665 265.633 82.8147ZM263.629 86.9995C264.513 86.4894 265.968 86.4962 266.87 87.0168C267.768 87.5356 267.773 88.3717 266.889 88.8819C266.003 89.3938 264.558 89.3891 263.659 88.8703C262.757 88.3497 262.742 87.5115 263.629 86.9995Z" fill="url(#paint0_linear_22943_115421)"/>
<path d="M284.577 82.4348L288.375 84.628C291.32 86.3283 291.302 89.2009 288.455 90.8448L279.911 95.7779C277.57 97.1292 277.636 99.4039 279.98 100.757L288.126 105.46C290.444 106.798 293.824 106.422 296.75 105.5C300.254 104.397 302.995 102.98 305.295 100.567C306.825 98.9638 307.693 97.0132 305.225 95.588L301.965 93.7057L293.42 98.6388L292.333 98.0114L305.155 90.6088C307.641 89.1734 306.834 87.6373 305.095 85.6353C303.309 83.5726 300.694 82.1068 296.401 80.6158C293.312 79.5416 290.276 79.1441 287.787 80.5813L284.577 82.4348ZM300.399 97.1191C301.286 96.6071 302.731 96.6119 303.63 97.1306C304.531 97.6513 304.546 98.4895 303.66 99.0014C302.776 99.5116 301.321 99.5048 300.419 98.9842C299.521 98.4654 299.516 97.6293 300.399 97.1191Z" fill="url(#paint1_linear_22943_115421)"/>
<path d="M284.077 127.553V159.737L284.078 159.738V183.955L226.557 150.048V94.6543L284.077 127.553Z" fill="#1E1926"/>
<path d="M341.958 150.514L283.959 183.984V127.085L341.958 94.7231V150.514Z" fill="#130F18"/>
<path d="M212.371 164.379C212.575 164.294 212.809 164.309 213.002 164.424L270.487 198.641C270.702 198.769 270.833 199.002 270.831 199.252C270.829 199.502 270.694 199.732 270.477 199.856L212.991 232.705C212.776 232.828 212.513 232.829 212.297 232.707L154.123 199.858C153.904 199.735 153.767 199.503 153.765 199.252C153.762 199 153.895 198.766 154.112 198.639L212.286 164.422L212.371 164.379Z" stroke="#AA50FF" stroke-width="1.40732" stroke-linejoin="round"/>
<path d="M213.832 200.47L155.658 167.622L213.832 133.404L271.317 167.622L213.832 200.47Z" fill="#8C49FA"/>
<path d="M213.832 168.284L155.658 135.435L213.832 101.218L271.317 135.435L213.832 168.284Z" fill="#231D2C"/>
<g clip-path="url(#clip1_22943_115421)">
<path fill-rule="evenodd" clip-rule="evenodd" d="M223.693 140.66C213.792 146.376 200.389 147.907 193.757 144.078C187.126 140.25 189.777 132.512 199.679 126.795C209.58 121.078 222.983 119.548 229.615 123.376C236.246 127.205 233.595 134.943 223.693 140.66ZM207.117 127.921C199.591 132.266 197.165 137.91 201.699 140.528C206.232 143.145 216.009 141.745 223.535 137.399C231.061 133.054 234.102 128.397 228.406 125.108C222.712 121.821 214.644 123.576 207.117 127.921Z" fill="url(#paint2_linear_22943_115421)"/>
<path fill-rule="evenodd" clip-rule="evenodd" d="M227.652 132.119C227.652 132.119 229.065 131.682 230.014 131.502C230.343 131.44 230.943 131.349 231.506 131.358C232.057 131.368 232.475 131.459 232.475 131.459L243.962 133.153L237.053 137.145L227.751 135.507C227.751 135.507 225.952 135.232 225.215 135.277C224.601 135.315 224.358 135.342 224.022 135.536C223.788 135.671 222.38 136.484 222.38 136.484L230.286 141.047L224.172 144.58L203.979 132.921L216.262 125.83C216.262 125.83 221.957 122.658 227.279 125.731C232.601 128.804 227.652 132.119 227.652 132.119ZM218.23 129.751L214.525 131.888L217.957 133.871L221.66 131.732C221.66 131.732 223.37 130.738 221.629 129.733C219.853 128.707 218.23 129.751 218.23 129.751Z" fill="url(#paint3_linear_22943_115421)"/>
</g>
<path fill-rule="evenodd" clip-rule="evenodd" d="M213.552 168.124V224.526L156.031 190.619V135.225L213.552 168.124Z" fill="#1E1926"/>
<path fill-rule="evenodd" clip-rule="evenodd" d="M271.435 191.085L213.436 224.555V167.657L271.435 135.294V191.085Z" fill="#130F18"/>
<path d="M380.815 297.124L318.576 258.054" stroke="#736BCD" stroke-width="1.87116" stroke-linecap="round" stroke-linejoin="round"/>
<path d="M373.954 297.771L382.654 292.749L385.84 299.61L373.954 297.771Z" fill="#736BCD" stroke="#736BCD" stroke-width="0.935579"/>
<path d="M355.082 167.685L296.908 134.836L355.082 100.619L412.567 134.836L355.082 167.685Z" fill="#231D2C"/>
<path d="M354.197 139.932L344.691 141.146L342.974 140.155L345.076 134.666L347.357 135.983L345.876 139.437L345.935 139.471L351.917 138.616L354.197 139.932ZM359.256 140.158L351.26 129.899L353.362 128.685L361.358 138.944L359.256 140.158ZM365.854 133.202L363.574 131.886L365.054 128.432L364.995 128.398L359.013 129.253L356.733 127.936L366.239 126.722L367.957 127.714L365.854 133.202Z" fill="white"/>
<path fill-rule="evenodd" clip-rule="evenodd" d="M354.801 167.525V223.927L297.279 190.02V134.626L354.801 167.525Z" fill="#1E1926"/>
<path d="M412.682 190.487L354.684 223.957V167.059L412.682 134.696V190.487Z" fill="#130F18"/>
<path d="M282.797 241.599L224.623 208.75L282.797 174.533L340.282 208.75L282.797 241.599Z" fill="#8C49FA"/>
<path d="M282.797 209.413L224.623 176.564L282.797 142.347L340.282 176.564L282.797 209.413Z" fill="#231D2C"/>
<g clip-path="url(#clip2_22943_115421)">
<path fill-rule="evenodd" clip-rule="evenodd" d="M287.637 184.257C287.637 184.257 287.065 185.508 289.679 184.309C292.845 182.856 294.25 181.99 296.789 179.841C296.789 179.841 298.13 179.663 299.726 179.257C295.714 185.047 283.664 188.329 287.637 184.257Z" fill="#0074BD"/>
<path fill-rule="evenodd" clip-rule="evenodd" d="M282.853 182.486C282.853 182.486 282.455 184.03 285.044 182.815C288.393 181.243 290.815 179.874 294.166 177.018C294.166 177.018 295.32 177.023 296.54 176.686C290.536 183.018 278.797 187.155 282.853 182.486Z" fill="#0074BD"/>
<path fill-rule="evenodd" clip-rule="evenodd" d="M283.425 174.466C287.148 174.617 286.754 176.912 286.754 176.912C286.754 176.912 288.879 173.068 284.023 172.593C279.492 172.152 276.732 172.227 280.017 165.094C280.017 165.094 270.807 173.95 283.425 174.466Z" fill="#EA2D2E"/>
<path fill-rule="evenodd" clip-rule="evenodd" d="M306.198 176.894C306.198 176.894 308.048 176.791 306.564 178.394C303.74 181.441 291.297 189.052 286.19 190.213C284.355 190.63 285.982 188.8 286.573 188.27C287.19 187.717 287.67 187.476 287.67 187.476C285.246 187.719 280.442 193.921 286.542 191.383C303.173 184.459 311.585 175.718 306.198 176.894Z" fill="#0074BD"/>
<path fill-rule="evenodd" clip-rule="evenodd" d="M280.303 179.261C280.303 179.261 275.335 183.918 280.106 181.812C282.122 180.923 285.609 178.847 288.634 176.781C291.105 175.093 293.327 173.251 293.327 173.251C293.327 173.251 292.785 174.035 292.566 174.703C287.688 179.53 274.093 186.442 275.995 183.29C277.601 180.624 280.303 179.261 280.303 179.261Z" fill="#0074BD"/>
<path fill-rule="evenodd" clip-rule="evenodd" d="M298.528 176.284C301.761 170.382 295.29 170.239 293.572 171.754C293.151 172.124 293.009 172.317 293.009 172.317C293.009 172.317 292.897 172.024 293.14 171.73C295.927 168.378 305.192 169.914 298.57 176.464C298.57 176.464 298.58 176.35 298.528 176.284Z" fill="#0074BD"/>
<path fill-rule="evenodd" clip-rule="evenodd" d="M268.202 163.458C268.202 163.458 275.654 163.459 274.125 170.959C272.901 176.975 280.016 175.893 284.337 176.857C277.873 177.049 272.681 176.93 271.841 174.515C270.609 170.968 275.624 166.008 268.202 163.458Z" fill="#EA2D2E"/>
<path fill-rule="evenodd" clip-rule="evenodd" d="M296.973 188.122C303.842 184.633 313.117 178.536 310.296 176.636C310.296 176.636 311.003 177.565 307.037 180.916C302.563 184.697 295.643 188.553 290.947 190.496C290.947 190.496 292.456 190.414 296.973 188.122Z" fill="#0074BD"/>
</g>
<path d="M282.518 209.252V265.656L224.996 231.749V176.355L282.518 209.252Z" fill="#1E1926"/>
<path d="M340.397 232.215L282.398 265.685V208.787L340.397 176.424V232.215Z" fill="#130F18"/>
<path d="M199.658 257.677L199.658 316.495L271.012 274.434L271.012 216.868L199.658 257.677Z" fill="#130F18"/>
<path d="M199.801 257.099L199.801 315.493L69.2131 241.745L69.2131 184.725L199.801 257.099Z" fill="#1E1926"/>
<path d="M70.0449 184.621L199.308 257.343L270.534 217.125L140.433 142.722L70.0449 184.621Z" fill="#231D2C" stroke="url(#paint4_linear_22943_115421)" stroke-width="0.925931"/>
<g filter="url(#filter0_f_22943_115421)" style="mix-blend-mode:multiply">
<circle cx="235.338" cy="236.18" r="46.7135" fill="#9C84FF" style="mix-blend-mode:lighten"/>
</g>
<path d="M166.259 198.07C166.259 197.091 167.634 196.298 169.33 196.298L176.301 196.298C177.997 196.298 179.371 197.091 179.371 198.07L179.371 202.095C179.371 203.074 177.997 203.868 176.301 203.868L169.33 203.868C167.634 203.868 166.259 203.074 166.259 202.095V198.07Z" fill="#A950FF"/>
<path d="M182.285 188.786C182.285 187.824 183.635 187.045 185.301 187.045L192.381 187.045C194.047 187.045 195.397 187.824 195.397 188.786L195.397 192.874C195.397 193.835 194.047 194.615 192.381 194.615L185.301 194.615C183.635 194.615 182.285 193.835 182.285 192.874V188.786Z" fill="#A950FF"/>
<path d="M150.233 188.786C150.233 187.824 151.583 187.045 153.249 187.045L160.33 187.045C161.995 187.045 163.345 187.824 163.345 188.786V192.874C163.345 193.836 161.995 194.615 160.33 194.615L153.249 194.615C151.583 194.615 150.233 193.836 150.233 192.874L150.233 188.786Z" fill="#E9C1FF"/>
<path d="M160.276 196.297C161.971 196.297 163.346 197.091 163.346 198.07V202.095C163.346 203.074 161.971 203.868 160.276 203.868L153.305 203.868C151.609 203.868 150.234 203.074 150.234 202.095L150.234 198.07C150.234 197.091 151.609 196.297 153.305 196.297L160.276 196.297Z" fill="#CD88FF"/>
<path d="M160.33 205.55C161.995 205.55 163.345 206.329 163.345 207.291V211.379C163.345 212.341 161.995 213.12 160.33 213.12L153.249 213.12C151.583 213.12 150.233 212.341 150.233 211.379L150.233 207.291C150.233 206.329 151.583 205.55 153.249 205.55L160.33 205.55Z" fill="#A950FF"/>
<path d="M176.301 187.045C177.997 187.045 179.372 187.839 179.372 188.818V192.842C179.372 193.821 177.997 194.615 176.301 194.615L169.33 194.615C167.634 194.615 166.259 193.821 166.259 192.842L166.259 188.818C166.259 187.839 167.634 187.045 169.33 187.045L176.301 187.045Z" fill="#CD88FF"/>
<path d="M189.588 205.806C193.377 205.806 196.448 207.579 196.448 209.766C196.448 211.954 193.377 213.727 189.588 213.727C185.8 213.727 182.728 211.954 182.728 209.766C182.728 207.579 185.8 205.806 189.588 205.806Z" fill="#F62E76"/>
<path d="M486.002 295.848C486.273 295.734 486.585 295.754 486.842 295.907L578.758 350.619C579.043 350.789 579.218 351.098 579.215 351.431C579.212 351.763 579.032 352.07 578.743 352.235L486.827 404.759C486.541 404.922 486.19 404.923 485.903 404.762L392.886 352.237C392.594 352.073 392.413 351.765 392.41 351.431C392.407 351.096 392.583 350.786 392.871 350.616L485.889 295.904L486.002 295.848Z" stroke="#736BCD" stroke-width="1.87116" stroke-linejoin="round"/>
<g filter="url(#filter1_d_22943_115421)">
<path d="M438.666 352.245C426.324 345.12 419.39 335.456 419.39 325.379C419.39 315.303 426.324 305.639 438.666 298.513L485.204 271.647L531.741 298.513C544.084 305.639 551.018 315.303 551.018 325.379C551.018 335.456 544.084 345.12 531.741 352.245C519.399 359.371 502.659 363.374 485.204 363.374C467.749 363.374 451.009 359.371 438.666 352.245V352.245Z" fill="#5A3ABC"/>
</g>
<path d="M485.387 330.94L485.387 388.369L393.078 333.955L393.078 278.146L485.387 330.94Z" fill="#1E1926"/>
<path d="M485.203 330.191L485.203 387.718L578.278 334.006L578.278 278.257L485.203 330.191Z" fill="#130F18"/>
<path d="M576.899 278.471L485.836 330.508L393.682 278.472L485.836 224.267L576.899 278.471Z" fill="#231D2C" stroke="url(#paint5_linear_22943_115421)" stroke-width="1.19786"/>
<g clip-path="url(#clip3_22943_115421)">
<path d="M518.925 280.346C520.791 282.5 520.091 285.058 517.06 286.808L493.743 300.27C489.779 302.559 483.716 302.559 479.752 300.27L477.421 298.924L484.416 294.886L505.868 282.5C509.598 283.577 514.029 283.174 517.06 281.423L518.925 280.346ZM479.752 254.499C483.716 252.21 489.779 252.21 493.743 254.499L496.074 255.845L491.411 258.538L489.079 257.192C487.68 256.384 485.815 256.384 484.416 257.192C483.017 257.999 483.017 259.076 484.416 259.884L514.728 277.385L512.397 278.731C510.997 279.539 509.132 279.539 507.733 278.731L505.401 277.385L479.752 292.193L454.104 277.385C450.14 275.096 450.14 271.596 454.104 269.307L479.752 254.499ZM463.43 274.692L468.094 277.385L484.416 267.961L479.752 265.269L463.43 274.692ZM472.757 280.077L477.421 282.77L491.411 274.692L486.748 272L472.757 280.077Z" fill="#CDD5EF"/>
</g>
</g>
<defs>
<filter id="filter0_f_22943_115421" x="96.2371" y="97.0789" width="278.204" height="278.203" filterUnits="userSpaceOnUse" color-interpolation-filters="sRGB">
<feFlood flood-opacity="0" result="BackgroundImageFix"/>
<feBlend mode="normal" in="SourceGraphic" in2="BackgroundImageFix" result="shape"/>
<feGaussianBlur stdDeviation="46.194" result="effect1_foregroundBlur_22943_115421"/>
</filter>
<filter id="filter1_d_22943_115421" x="329.191" y="188.95" width="312.025" height="272.124" filterUnits="userSpaceOnUse" color-interpolation-filters="sRGB">
<feFlood flood-opacity="0" result="BackgroundImageFix"/>
<feColorMatrix in="SourceAlpha" type="matrix" values="0 0 0 0 0 0 0 0 0 0 0 0 0 0 0 0 0 0 127 0" result="hardAlpha"/>
<feOffset dy="7.50199"/>
<feGaussianBlur stdDeviation="45.0996"/>
<feComposite in2="hardAlpha" operator="out"/>
<feColorMatrix type="matrix" values="0 0 0 0 0.352941 0 0 0 0 0.227451 0 0 0 0 0.737255 0 0 0 1 0"/>
<feBlend mode="normal" in2="BackgroundImageFix" result="effect1_dropShadow_22943_115421"/>
<feBlend mode="normal" in="SourceGraphic" in2="effect1_dropShadow_22943_115421" result="shape"/>
</filter>
<linearGradient id="paint0_linear_22943_115421" x1="248.111" y1="92.9307" x2="296.859" y2="86.1356" gradientUnits="userSpaceOnUse">
<stop stop-color="#5A9FD4"/>
<stop offset="1" stop-color="#306998"/>
</linearGradient>
<linearGradient id="paint1_linear_22943_115421" x1="301.545" y1="98.0178" x2="285.427" y2="93.3525" gradientUnits="userSpaceOnUse">
<stop stop-color="#FFD43B"/>
<stop offset="1" stop-color="#FFE873"/>
</linearGradient>
<linearGradient id="paint2_linear_22943_115421" x1="181.75" y1="137.146" x2="241.219" y2="150.456" gradientUnits="userSpaceOnUse">
<stop stop-color="#CBCED0"/>
<stop offset="1" stop-color="#84838B"/>
</linearGradient>
<linearGradient id="paint3_linear_22943_115421" x1="203.979" y1="132.921" x2="243.949" y2="132.222" gradientUnits="userSpaceOnUse">
<stop stop-color="#276DC3"/>
<stop offset="1" stop-color="#165CAA"/>
</linearGradient>
<linearGradient id="paint4_linear_22943_115421" x1="119.377" y1="171.306" x2="244.853" y2="164.975" gradientUnits="userSpaceOnUse">
<stop offset="0.015625" stop-color="#B010FB"/>
<stop offset="0.130208" stop-color="#DE97FF"/>
<stop offset="0.234375" stop-color="#A227DB"/>
<stop offset="0.505208" stop-color="#A227DB" stop-opacity="0"/>
<stop offset="0.765625" stop-color="#A610EC" stop-opacity="0.84"/>
</linearGradient>
<linearGradient id="paint5_linear_22943_115421" x1="228.931" y1="238.59" x2="496.148" y2="490.352" gradientUnits="userSpaceOnUse">
<stop offset="0.015625" stop-color="#F3F2F2"/>
<stop offset="0.130108" stop-color="#ECECEC"/>
<stop offset="0.130208" stop-color="#F7F7F7"/>
<stop offset="0.234375" stop-color="#444444"/>
<stop offset="0.505208" stop-color="#B0B0B0"/>
<stop offset="0.765625" stop-color="#685C5A"/>
</linearGradient>
<clipPath id="clip0_22943_115421">
<rect width="603.494" height="450" fill="white"/>
</clipPath>
<clipPath id="clip1_22943_115421">
<rect width="58.1115" height="58.1115" fill="white" transform="matrix(0.866025 -0.5 0.866025 0.5 163.252 134.751)"/>
</clipPath>
<clipPath id="clip2_22943_115421">
<rect width="58.1115" height="58.1115" fill="white" transform="matrix(0.866025 -0.5 0.866025 0.5 232.217 175.881)"/>
</clipPath>
<clipPath id="clip3_22943_115421">
<rect width="64.6184" height="64.6184" fill="white" transform="matrix(0.866025 -0.5 0.866025 0.5 430.787 277.385)"/>
</clipPath>
</defs>
</svg>
