<svg width="516" height="80" viewBox="0 0 516 80" fill="none" xmlns="http://www.w3.org/2000/svg">
<path d="M83.5991 61.3308C87.4718 61.3308 90.6121 58.1619 90.6121 54.2596C90.6121 50.3483 87.4718 47.1828 83.5991 47.1833C79.7229 47.1833 76.5826 50.3483 76.5826 54.2596C76.5826 58.1619 79.7224 61.3308 83.5991 61.3308Z" fill="#292B5B"/>
<path d="M26.238 27.3992H80.1829V34.472H26.238V27.3992Z" fill="#292B5B"/>
<path fill-rule="evenodd" clip-rule="evenodd" d="M83.5991 79.26H7.7535C3.81382 79.26 0.732483 76.1538 0.732483 72.1873V25.0048C0.732483 10.2821 9.71442 0.000244141 22.5732 0.000244141H98.4212C102.423 0.000244141 105.435 3.03799 105.435 7.07237V54.2591C105.435 68.9773 96.4522 79.26 83.5991 79.26ZM22.5732 5.94904C12.8943 5.94904 6.63869 13.426 6.63869 25.0048V72.1873C6.63869 72.836 7.10462 73.31 7.7535 73.31H83.5991C93.2748 73.31 99.5338 65.8315 99.5338 54.2596V7.07237C99.5338 6.33997 99.147 5.94854 98.4212 5.94854L22.5732 5.94904Z" fill="#292B5B"/>
<path fill-rule="evenodd" clip-rule="evenodd" d="M162.969 6.76278C162.775 6.22813 162.267 5.86454 161.696 5.86454H159.23C158.659 5.86454 158.152 6.22813 157.961 6.76278L137.189 71.4604C137.043 71.8727 137.101 72.3403 137.36 72.6964C137.611 73.0606 138.02 73.2718 138.467 73.2718H141.281C141.854 73.2718 142.361 72.9086 142.555 72.3633L149.344 51.4628H171.573L178.192 72.3944C178.382 72.9422 178.892 73.3064 179.468 73.3064H182.48C183.225 73.3064 183.83 72.6964 183.83 71.9525C183.83 71.7107 183.772 71.491 183.662 71.2983L162.969 6.76278ZM160.464 16.2953C162.133 21.7115 165.598 32.8958 165.598 32.8958L169.905 46.2789H151.048L156.381 29.4109L160.464 16.2953Z" fill="#292B5B"/>
<path d="M222.391 63.554C222.156 63.2595 221.809 63.083 221.432 63.0589C221.064 63.0343 220.691 63.1667 220.421 63.4226C218.125 65.5922 214.374 68.1726 209.554 68.1726C200.782 68.1726 194.889 60.8421 194.889 49.9316C194.889 39.2567 201.058 31.5077 209.554 31.5077C212.937 31.5077 216 32.9077 219.186 35.9108C219.453 36.1596 219.814 36.2828 220.166 36.2745C220.528 36.2638 220.871 36.1005 221.115 35.8333L222.88 33.8931C223.371 33.3422 223.338 32.4947 222.797 31.9895C219.996 29.3529 215.955 26.3259 209.555 26.3259C204.093 26.3259 199.056 28.5544 195.382 32.598C191.45 36.9177 189.372 42.91 189.372 49.9322C189.372 63.9438 197.481 73.3612 209.555 73.3612C214.626 73.3612 219.427 71.343 223.835 67.3645C224.371 66.8789 224.43 66.0537 223.978 65.4944L222.391 63.554Z" fill="#292B5B"/>
<path d="M262.218 63.0589C262.594 63.083 262.941 63.2595 263.178 63.554L264.763 65.4944C265.221 66.0537 265.157 66.8789 264.62 67.3645C260.212 71.343 255.408 73.3612 250.345 73.3612C238.272 73.3612 230.156 63.9438 230.156 49.9322C230.156 42.91 232.239 36.9177 236.167 32.598C239.849 28.5544 244.875 26.3259 250.345 26.3259C256.743 26.3259 260.782 29.3529 263.588 31.9895C264.125 32.4947 264.159 33.3422 263.663 33.8931L261.9 35.8333C261.658 36.1005 261.318 36.2638 260.955 36.2745C260.599 36.2828 260.243 36.1596 259.978 35.9108C256.787 32.9077 253.724 31.5077 250.345 31.5077C241.847 31.5077 235.681 39.2567 235.681 49.9316C235.681 60.8421 241.567 68.1726 250.345 68.1726C255.164 68.1726 258.912 65.5922 261.206 63.4226C261.482 63.1667 261.848 63.0343 262.218 63.0589Z" fill="#292B5B"/>
<path d="M296.539 27.3514C294.738 26.448 293.176 26.3254 291.888 26.3254C287.783 26.3254 284.041 28.4907 280.92 32.6312L280.746 28.6793C280.711 27.9555 280.115 27.3844 279.394 27.3844H277.106C276.357 27.3844 275.754 27.989 275.754 28.739V71.9772C275.754 72.7216 276.357 73.3321 277.106 73.3321H279.747C280.49 73.3321 281.099 72.7216 281.099 71.9772V41.8964C283.768 35.4037 287.563 31.6844 291.534 31.6844C292.912 31.6844 293.461 31.8169 294.755 32.3077C295.109 32.4402 295.5 32.4153 295.839 32.2494C296.176 32.0776 296.428 31.7727 296.533 31.4101L297.235 28.9352C297.413 28.3073 297.119 27.6398 296.539 27.3514Z" fill="#292B5B"/>
<path fill-rule="evenodd" clip-rule="evenodd" d="M321.497 26.3249C312.051 26.3249 302.016 34.598 302.016 49.9311C302.016 63.7221 310.46 73.3602 322.55 73.3602C329.318 73.3602 333.168 71.0035 336.259 69.1118L336.279 69.1008C336.893 68.722 337.102 67.9314 336.763 67.2989L335.531 65.0008C335.347 64.6582 335.022 64.4129 334.642 64.3241C334.266 64.2373 333.864 64.3201 333.553 64.5473C330.139 67.0245 326.697 68.1722 322.728 68.1722C314.024 68.1722 308.054 61.4452 307.57 51.2869H337.156C337.819 51.2869 338.382 50.8078 338.493 50.1511C338.685 48.9828 338.685 48.0274 338.685 47.103C338.685 34.0933 332.256 26.3249 321.497 26.3249ZM321.497 31.5074C328.794 31.5074 332.958 36.6763 333.318 46.1028H307.694C308.912 37.4361 314.44 31.5074 321.497 31.5074Z" fill="#292B5B"/>
<path fill-rule="evenodd" clip-rule="evenodd" d="M381.5 5.8398H384.138C384.879 5.8398 385.485 6.4486 385.485 7.20111V72.0062C385.485 72.7527 384.879 73.3607 384.138 73.3607H381.85C381.137 73.3607 380.548 72.8013 380.503 72.0895L380.316 68.0653C376.184 71.5843 371.793 73.3607 367.241 73.3607C355.488 73.3607 348.465 64.6004 348.465 49.9316C348.465 36.2533 356.955 26.3253 368.651 26.3253C373.214 26.3253 376.579 27.7541 380.259 30.2769L380.149 25.064V7.20161C380.149 6.4486 380.752 5.8398 381.5 5.8398ZM380.149 36.5913C375.985 32.9884 372.574 31.5074 368.472 31.5074C360.351 31.5074 353.988 39.6007 353.988 49.931C353.988 61.3553 359.009 68.1721 367.417 68.1721C371.541 68.1721 375.481 66.1259 380.149 61.5479V36.5913Z" fill="#292B5B"/>
<path d="M396.171 14.9644C396.171 12.4417 398 10.6107 400.516 10.6107C403.033 10.6107 404.861 12.4412 404.861 14.9644C404.861 17.4124 402.956 19.3269 400.516 19.3269C398.084 19.3269 396.171 17.4124 396.171 14.9644Z" fill="#292B5B"/>
<path d="M401.835 27.3843H399.194C398.45 27.3843 397.847 27.989 397.847 28.739V72.0062C397.847 72.7527 398.45 73.3607 399.194 73.3607H401.835C402.583 73.3607 403.188 72.7527 403.188 72.0062V28.739C403.188 27.989 402.583 27.3843 401.835 27.3843Z" fill="#292B5B"/>
<path fill-rule="evenodd" clip-rule="evenodd" d="M434.323 26.3249C430.139 26.3249 425.59 28.1368 420.775 31.7188L420.891 26.0942V7.20112C420.891 6.44811 420.283 5.83931 419.538 5.83931H416.895C416.15 5.83931 415.544 6.44811 415.544 7.20112V70.9463C415.544 71.6912 416.15 72.3007 416.895 72.3007H419.185C419.889 72.3007 420.47 71.7609 420.534 71.0591L420.696 69.1012C424.702 71.8241 428.936 73.3607 432.557 73.3607C445.691 73.3607 452.564 61.2179 452.564 49.224C452.567 34.6671 445.915 26.3249 434.323 26.3249ZM432.738 68.1722C431.382 68.1722 426.618 67.7989 420.891 63.0704V38.1777C425.899 33.7513 430.357 31.5074 434.142 31.5074C444.808 31.5074 447.047 41.1417 447.047 49.2234C447.047 60.3841 441.165 68.1722 432.738 68.1722Z" fill="#292B5B"/>
<path d="M471.904 69.0505C471.739 68.3342 471.037 67.8782 470.319 68.0222C469.574 68.1722 469.305 68.1722 469.002 68.1722C468.677 68.1722 468.591 67.3339 468.591 66.887V7.20112C468.591 6.44811 467.986 5.83931 467.242 5.83931H464.6C463.856 5.83931 463.25 6.44811 463.25 7.20112V66.3527C463.25 72.1432 466.276 73.3602 468.827 73.3602C469.919 73.3602 470.57 73.1931 471.19 73.0261L471.442 72.9684C472.153 72.7853 472.597 72.0699 472.43 71.3486L471.904 69.0505Z" fill="#292B5B"/>
<path fill-rule="evenodd" clip-rule="evenodd" d="M498.73 26.3249C489.293 26.3249 479.258 34.598 479.258 49.9311C479.258 63.7221 487.702 73.3602 499.789 73.3602C506.555 73.3602 510.413 71.002 513.508 69.1093L513.518 69.1008C514.13 68.722 514.346 67.9314 514.005 67.2989L512.771 65.0008C512.585 64.6582 512.259 64.4129 511.883 64.3241C511.502 64.2373 511.105 64.3201 510.794 64.5473C507.373 67.0245 503.932 68.1722 499.967 68.1722C491.26 68.1722 485.293 61.4452 484.803 51.2869H514.396C515.053 51.2869 515.625 50.8078 515.73 50.1511C515.921 48.9828 515.921 48.0274 515.921 47.103C515.921 34.0933 509.5 26.3249 498.73 26.3249ZM484.936 46.1028C486.156 37.4361 491.676 31.5074 498.73 31.5074C506.029 31.5074 510.202 36.6763 510.559 46.1028H484.936Z" fill="#292B5B"/>
</svg>
