<svg width="516" height="80" viewBox="0 0 516 80" fill="none" xmlns="http://www.w3.org/2000/svg">
<path d="M83.5991 61.5906C87.4718 61.5906 90.6121 58.4217 90.6121 54.5194C90.6121 50.6081 87.4718 47.4425 83.5991 47.4431C79.7229 47.4431 76.5826 50.6081 76.5826 54.5194C76.5826 58.4217 79.7224 61.5906 83.5991 61.5906Z" fill="white"/>
<path d="M26.238 27.659H80.1829V34.7317H26.238V27.659Z" fill="white"/>
<path fill-rule="evenodd" clip-rule="evenodd" d="M83.5991 79.5198H7.7535C3.81382 79.5198 0.732483 76.4136 0.732483 72.4471V25.2646C0.732483 10.5419 9.71442 0.26001 22.5732 0.26001H98.4212C102.423 0.26001 105.435 3.29775 105.435 7.33214V54.5189C105.435 69.2371 96.4522 79.5198 83.5991 79.5198ZM22.5732 6.20881C12.8943 6.20881 6.63869 13.6858 6.63869 25.2646V72.4471C6.63869 73.0957 7.10462 73.5698 7.7535 73.5698H83.5991C93.2748 73.5698 99.5338 66.0913 99.5338 54.5194V7.33214C99.5338 6.59974 99.147 6.20831 98.4212 6.20831L22.5732 6.20881Z" fill="white"/>
<path fill-rule="evenodd" clip-rule="evenodd" d="M162.969 7.02255C162.775 6.4879 162.267 6.1243 161.696 6.1243H159.23C158.659 6.1243 158.152 6.4879 157.961 7.02255L137.189 71.7201C137.043 72.1325 137.101 72.6 137.36 72.9562C137.611 73.3204 138.02 73.5316 138.467 73.5316H141.281C141.854 73.5316 142.361 73.1684 142.555 72.6231L149.344 51.7226H171.573L178.192 72.6542C178.382 73.202 178.892 73.5662 179.468 73.5662H182.48C183.225 73.5662 183.83 72.9562 183.83 72.2123C183.83 71.9705 183.772 71.7507 183.662 71.5581L162.969 7.02255ZM160.464 16.555C162.133 21.9713 165.598 33.1556 165.598 33.1556L169.905 46.5386H151.048L156.381 29.6707L160.464 16.555Z" fill="white"/>
<path d="M222.391 63.8138C222.156 63.5193 221.809 63.3427 221.432 63.3187C221.064 63.2941 220.691 63.4265 220.421 63.6823C218.125 65.852 214.374 68.4324 209.554 68.4324C200.782 68.4324 194.889 61.1019 194.889 50.1914C194.889 39.5165 201.058 31.7674 209.554 31.7674C212.937 31.7674 216 33.1675 219.186 36.1706C219.453 36.4194 219.814 36.5425 220.166 36.5343C220.528 36.5236 220.871 36.3602 221.115 36.093L222.88 34.1529C223.371 33.602 223.338 32.7545 222.797 32.2492C219.996 29.6127 215.955 26.5857 209.555 26.5857C204.093 26.5857 199.056 28.8142 195.382 32.8578C191.45 37.1775 189.372 43.1698 189.372 50.1919C189.372 64.2036 197.481 73.6209 209.555 73.6209C214.626 73.6209 219.427 71.6028 223.835 67.6243C224.371 67.1387 224.43 66.3135 223.978 65.7541L222.391 63.8138Z" fill="white"/>
<path d="M262.218 63.3187C262.594 63.3427 262.941 63.5193 263.178 63.8138L264.763 65.7541C265.221 66.3135 265.157 67.1387 264.62 67.6243C260.212 71.6028 255.408 73.6209 250.345 73.6209C238.272 73.6209 230.156 64.2036 230.156 50.1919C230.156 43.1698 232.239 37.1775 236.167 32.8578C239.849 28.8142 244.875 26.5857 250.345 26.5857C256.743 26.5857 260.782 29.6127 263.588 32.2492C264.125 32.7545 264.159 33.602 263.663 34.1529L261.9 36.093C261.658 36.3602 261.318 36.5236 260.955 36.5343C260.599 36.5425 260.243 36.4194 259.978 36.1706C256.787 33.1675 253.724 31.7674 250.345 31.7674C241.847 31.7674 235.681 39.5165 235.681 50.1914C235.681 61.1019 241.567 68.4324 250.345 68.4324C255.164 68.4324 258.912 65.852 261.206 63.6823C261.482 63.4265 261.848 63.2941 262.218 63.3187Z" fill="white"/>
<path d="M296.539 27.6112C294.738 26.7078 293.176 26.5852 291.888 26.5852C287.783 26.5852 284.041 28.7505 280.92 32.891L280.746 28.9391C280.711 28.2153 280.115 27.6441 279.394 27.6441H277.106C276.357 27.6441 275.754 28.2488 275.754 28.9988V72.2369C275.754 72.9814 276.357 73.5919 277.106 73.5919H279.747C280.49 73.5919 281.099 72.9814 281.099 72.2369V42.1562C283.768 35.6634 287.563 31.9441 291.534 31.9441C292.912 31.9441 293.461 32.0766 294.755 32.5675C295.109 32.7 295.5 32.675 295.839 32.5091C296.176 32.3373 296.428 32.0325 296.533 31.6698L297.235 29.195C297.413 28.5671 297.119 27.8996 296.539 27.6112Z" fill="white"/>
<path fill-rule="evenodd" clip-rule="evenodd" d="M321.497 26.5847C312.051 26.5847 302.016 34.8578 302.016 50.1908C302.016 63.9819 310.46 73.62 322.55 73.62C329.318 73.62 333.168 71.2633 336.259 69.3716L336.279 69.3605C336.893 68.9818 337.102 68.1912 336.763 67.5586L335.531 65.2606C335.347 64.918 335.022 64.6727 334.642 64.5839C334.266 64.4971 333.864 64.5799 333.553 64.8071C330.139 67.2842 326.697 68.432 322.728 68.432C314.024 68.432 308.054 61.7049 307.57 51.5466H337.156C337.819 51.5466 338.382 51.0676 338.493 50.4108C338.685 49.2426 338.685 48.2872 338.685 47.3627C338.685 34.3531 332.256 26.5847 321.497 26.5847ZM321.497 31.7672C328.794 31.7672 332.958 36.9361 333.318 46.3626H307.694C308.912 37.6958 314.44 31.7672 321.497 31.7672Z" fill="white"/>
<path fill-rule="evenodd" clip-rule="evenodd" d="M381.5 6.09957H384.138C384.879 6.09957 385.485 6.70836 385.485 7.46088V72.266C385.485 73.0124 384.879 73.6204 384.138 73.6204H381.85C381.137 73.6204 380.548 73.0611 380.503 72.3493L380.316 68.3251C376.184 71.8441 371.793 73.6204 367.241 73.6204C355.488 73.6204 348.465 64.8602 348.465 50.1914C348.465 36.5131 356.955 26.5851 368.651 26.5851C373.214 26.5851 376.579 28.0139 380.259 30.5367L380.149 25.3238V7.46138C380.149 6.70836 380.752 6.09957 381.5 6.09957ZM380.149 36.8511C375.985 33.2482 372.574 31.7671 368.472 31.7671C360.351 31.7671 353.988 39.8604 353.988 50.1908C353.988 61.6151 359.009 68.4319 367.417 68.4319C371.541 68.4319 375.481 66.3857 380.149 61.8077V36.8511Z" fill="white"/>
<path d="M396.171 15.2242C396.171 12.7015 398 10.8705 400.516 10.8705C403.033 10.8705 404.861 12.701 404.861 15.2242C404.861 17.6722 402.956 19.5866 400.516 19.5866C398.084 19.5866 396.171 17.6722 396.171 15.2242Z" fill="white"/>
<path d="M401.835 27.6441H399.194C398.45 27.6441 397.847 28.2487 397.847 28.9987V72.266C397.847 73.0125 398.45 73.6205 399.194 73.6205H401.835C402.583 73.6205 403.188 73.0125 403.188 72.266V28.9987C403.188 28.2487 402.583 27.6441 401.835 27.6441Z" fill="white"/>
<path fill-rule="evenodd" clip-rule="evenodd" d="M434.323 26.5846C430.139 26.5846 425.59 28.3966 420.775 31.9786L420.891 26.3539V7.46089C420.891 6.70787 420.283 6.09908 419.538 6.09908H416.895C416.15 6.09908 415.544 6.70787 415.544 7.46089V71.206C415.544 71.951 416.15 72.5605 416.895 72.5605H419.185C419.889 72.5605 420.47 72.0207 420.534 71.3189L420.696 69.361C424.702 72.0839 428.936 73.6204 432.557 73.6204C445.691 73.6204 452.564 61.4776 452.564 49.4837C452.567 34.9268 445.915 26.5846 434.323 26.5846ZM432.738 68.4319C431.382 68.4319 426.618 68.0587 420.891 63.3302V38.4375C425.899 34.0111 430.357 31.7672 434.142 31.7672C444.808 31.7672 447.047 41.4015 447.047 49.4831C447.047 60.6439 441.165 68.4319 432.738 68.4319Z" fill="white"/>
<path d="M471.904 69.3103C471.739 68.594 471.037 68.138 470.319 68.2819C469.574 68.4319 469.305 68.4319 469.002 68.4319C468.677 68.4319 468.591 67.5937 468.591 67.1467V7.46089C468.591 6.70787 467.986 6.09908 467.242 6.09908H464.6C463.856 6.09908 463.25 6.70787 463.25 7.46089V66.6125C463.25 72.4029 466.276 73.6199 468.827 73.6199C469.919 73.6199 470.57 73.4529 471.19 73.2858L471.442 73.2281C472.153 73.045 472.597 72.3297 472.43 71.6083L471.904 69.3103Z" fill="white"/>
<path fill-rule="evenodd" clip-rule="evenodd" d="M498.73 26.5847C489.293 26.5847 479.258 34.8578 479.258 50.1908C479.258 63.9819 487.702 73.62 499.789 73.62C506.555 73.62 510.413 71.2618 513.508 69.3691L513.518 69.3605C514.13 68.9818 514.346 68.1912 514.005 67.5586L512.771 65.2606C512.585 64.918 512.259 64.6727 511.883 64.5839C511.502 64.4971 511.105 64.5799 510.794 64.8071C507.373 67.2842 503.932 68.432 499.967 68.432C491.26 68.432 485.293 61.7049 484.803 51.5466H514.396C515.053 51.5466 515.625 51.0676 515.73 50.4108C515.921 49.2426 515.921 48.2872 515.921 47.3627C515.921 34.3531 509.5 26.5847 498.73 26.5847ZM484.936 46.3626C486.156 37.6958 491.676 31.7672 498.73 31.7672C506.029 31.7672 510.202 36.9361 510.559 46.3626H484.936Z" fill="white"/>
</svg>
