<svg width="156" height="35" viewBox="0 0 156 35" fill="none" xmlns="http://www.w3.org/2000/svg">
<path d="M10.8945 6.4343H10.4991L0 28.5549H2.55889L10.587 11.2492L18.8677 28.5549H21.2508L10.8945 6.4343Z" fill="white"/>
<path d="M38.7018 8.38834C42.1283 8.38834 45.1264 10.2236 46.7299 12.9442L48.5749 11.897C46.6091 8.55028 42.919 6.29395 38.7018 6.29395C32.4089 6.29395 27.3021 11.314 27.3021 17.5C27.3021 23.686 32.4089 28.706 38.7018 28.706C42.919 28.706 46.5981 26.4497 48.5749 23.103L46.7299 22.0558C45.1264 24.7764 42.1283 26.6117 38.7018 26.6117C33.584 26.6117 29.4327 22.5308 29.4327 17.5C29.4327 12.4692 33.584 8.38834 38.7018 8.38834Z" fill="white"/>
<path d="M91.6586 6.55305H89.2645V28.447H91.6586V6.55305Z" fill="white"/>
<path d="M114.875 6.29395C108.582 6.29395 103.476 11.314 103.476 17.5C103.476 23.686 108.582 28.706 114.875 28.706C121.168 28.706 126.275 23.686 126.275 17.5C126.264 11.314 121.168 6.29395 114.875 6.29395ZM114.875 26.6117C109.758 26.6117 105.606 22.5308 105.606 17.5C105.606 12.4692 109.758 8.38834 114.875 8.38834C119.993 8.38834 124.144 12.4692 124.144 17.5C124.144 22.5308 119.993 26.6117 114.875 26.6117Z" fill="white"/>
<path d="M155.213 6.55305L145.834 16.7659L136.456 6.55305H135.874V28.4469H138.103V13.6675C138.103 13.5056 138.092 13.3328 138.092 13.1601V11.789L139.432 13.2033C139.443 13.2141 139.443 13.2141 139.454 13.2249L140.991 14.8442L141.244 15.1141L145.845 19.9614L152.237 13.2249C152.863 12.48 153.775 11.1953 153.775 11.1953C153.775 11.1953 153.577 12.7391 153.577 13.6783V28.4577H155.806V6.55305H155.213Z" fill="white"/>
<path d="M79.8636 28.706L73.9112 19.4864L71.0338 23.9343L69.7928 25.8668L71.6268 28.706H79.8636Z" fill="white"/>
<path d="M71.6268 6.29395L69.7928 9.13325L71.0338 11.0549L72.3736 13.1385L73.9112 15.5136L79.8636 6.29395H71.6268Z" fill="white"/>
<path d="M60.7653 0H50.387L61.6878 17.5L50.387 35H60.7653L72.0551 17.5L60.7653 0Z" fill="white"/>
</svg>
