<svg width="134" height="35" viewBox="0 0 134 35" fill="none" xmlns="http://www.w3.org/2000/svg">
<g clip-path="url(#clip0_71_58)">
<mask id="mask0_71_58" style="mask-type:luminance" maskUnits="userSpaceOnUse" x="0" y="0" width="134" height="35">
<path d="M133.873 0H0.873291V35H133.873V0Z" fill="white"/>
</mask>
<g mask="url(#mask0_71_58)">
<path fill-rule="evenodd" clip-rule="evenodd" d="M0.873291 9.16142C0.873291 1.87354 8.25834 1.87354 8.25834 1.87354H25.1573C32.5424 1.87354 32.5424 9.16142 32.5424 9.16142V25.8381C32.5424 33.1268 25.1573 33.1268 25.1573 33.1268H8.25834C0.873291 33.1268 0.873291 25.8381 0.873291 25.8381V9.16142ZM25.018 7.88738C26.3205 7.90925 27.3588 8.96976 27.3358 10.256C27.3349 10.3426 27.3216 10.515 27.3216 10.515L25.2707 25.2859C25.1093 26.4365 24.0994 27.3141 22.8927 27.2931C22.7393 27.2905 22.5894 27.273 22.4449 27.2424C22.358 27.224 22.3208 27.2144 22.1993 27.182L6.40155 23.059C5.36238 22.8018 4.60073 21.8638 4.62024 20.7613C4.63443 19.9309 5.08751 19.2108 5.75783 18.81L23.8831 8.15164C24.2218 7.97664 24.6084 7.88038 25.018 7.88738Z" fill="white"/>
<path d="M51.438 17.7148C50.7083 18.3448 49.1877 18.3745 47.8497 18.6143C46.5117 18.8549 45.2961 19.3353 45.2961 20.8954C45.2961 22.4555 46.5427 22.8764 47.941 22.8764C51.3166 22.8764 51.438 20.2654 51.438 19.3055V17.7148ZM41.4639 14.5639C41.7078 10.6028 45.3262 9.37256 48.8534 9.37256C51.9851 9.37256 55.7561 10.0629 55.7561 13.7834V21.8562C55.7561 23.2658 55.9077 24.6763 56.3032 25.3063H51.9248C51.7723 24.8259 51.6508 24.3167 51.6207 23.8057C50.2517 25.217 48.2753 25.7263 46.3299 25.7263C43.3188 25.7263 40.978 24.2563 40.978 21.0757C41.0383 14.024 51.6207 17.8049 51.438 14.3233C51.438 12.5234 50.1612 12.2233 48.6406 12.2233C46.9683 12.2233 45.9345 12.8839 45.782 14.5639H41.4639Z" fill="white"/>
<path d="M58.4624 9.79236H62.7805V25.3061H58.4624V9.79236ZM62.7805 7.39223H58.4624V3.88086H62.7805V7.39223Z" fill="white"/>
<path d="M65.5476 9.79256H69.6218V11.8934H69.683C70.8082 10.3027 72.4193 9.37256 74.487 9.37256C76.4634 9.37256 78.2269 10.0629 79.079 11.9529C80.0216 10.6028 81.6335 9.37256 83.8218 9.37256C87.1672 9.37256 89.5692 10.9029 89.5692 14.9244V25.3063H85.2511V16.5143C85.2511 14.444 85.0693 12.7334 82.6062 12.7334C80.1732 12.7334 79.7174 14.7442 79.7174 16.6648V25.3063H75.3994V16.6044C75.3994 14.8037 75.5208 12.7334 72.7846 12.7334C71.9325 12.7334 69.8648 13.2733 69.8648 16.3043V25.3063H65.5476V9.79256Z" fill="white"/>
<path d="M97.6885 9.79222H100.851V12.643H97.6885V20.3246C97.6885 21.7648 98.0538 22.1253 99.5132 22.1253C100 22.1253 100.456 22.0956 100.851 22.0055V25.3366C100.121 25.4565 99.1789 25.4862 98.3269 25.4862C95.6518 25.4862 93.3713 24.9157 93.3713 21.7955V12.643H90.7556V9.79222H93.3713V5.1416H97.6885V9.79222Z" fill="white"/>
<path d="M112.74 15.8843C112.345 13.7239 111.403 12.5838 109.304 12.5838C106.506 12.5838 105.807 14.6838 105.716 15.8843H112.74ZM105.716 18.5845C105.838 21.3154 107.145 22.5159 109.578 22.5159C111.311 22.5159 112.71 21.4659 112.984 20.5052H116.785C115.568 24.1959 112.984 25.7263 109.425 25.7263C104.469 25.7263 101.397 22.3654 101.397 17.5643C101.397 12.9128 104.652 9.37256 109.425 9.37256C114.777 9.37256 117.393 13.814 117.058 18.5845H105.716Z" fill="white"/>
<path d="M129.555 15.2543C129.282 13.4833 128.218 12.5829 126.363 12.5829C123.596 12.5829 122.684 15.3435 122.684 17.6247C122.684 19.8752 123.565 22.5159 126.272 22.5159C128.309 22.5159 129.434 21.2857 129.708 19.365H133.873C133.295 23.4758 130.468 25.7263 126.302 25.7263C121.558 25.7263 118.365 22.4258 118.365 17.7743C118.365 12.9434 121.284 9.37256 126.393 9.37256C130.102 9.37256 133.539 11.2932 133.782 15.2543H129.555Z" fill="white"/>
</g>
</g>
<defs>
<clipPath id="clip0_71_58">
<rect width="134" height="35" fill="white"/>
</clipPath>
</defs>
</svg>
