<svg width="289" height="123" viewBox="0 0 289 123" fill="none" xmlns="http://www.w3.org/2000/svg">
<path fill-rule="evenodd" clip-rule="evenodd" d="M40.0353 37.0865C46.8668 29.3376 58.1806 27.0644 67.4815 31.5372C79.8383 37.4807 84.347 52.6207 77.6191 64.2995L62.4835 90.5433C61.6378 92.0093 60.2462 93.0796 58.614 93.518C56.9819 93.9564 55.243 93.7275 53.7787 92.8823L72.1027 61.1036C76.9837 52.6274 73.7188 41.6405 64.76 37.3146C58.0372 34.069 49.8199 35.6904 44.854 41.2721C42.1145 44.3364 40.5766 48.2925 40.5253 52.407C40.474 56.5214 41.9125 60.5149 44.5749 63.647C45.0534 64.2086 45.5678 64.7385 46.1157 65.233L35.4187 83.8182C35.0004 84.5448 34.4434 85.1812 33.7795 85.6924C33.1157 86.203 32.3581 86.5776 31.5498 86.7949C30.7416 87.0121 29.8986 87.0676 29.069 86.958C28.2393 86.8484 27.4393 86.5763 26.7146 86.1572L38.3277 65.9803C36.6596 63.569 35.4616 60.8634 34.7971 58.0059L27.6807 70.3946C26.8348 71.8613 25.443 72.9309 23.8109 73.3693C22.1788 73.8084 20.4398 73.5795 18.9757 72.7337L37.3786 40.7768C38.1446 39.4645 39.0342 38.2287 40.0353 37.0865ZM61.2758 47.2585C65.7079 49.8246 67.2384 55.5314 64.6738 59.9727L47.027 90.5394C46.1813 92.0055 44.789 93.0757 43.1569 93.5141C41.5248 93.9525 39.786 93.7236 38.322 92.8784L54.708 64.4207C53.3929 64.1435 52.1543 63.5832 51.0765 62.7786C49.9987 61.9747 49.108 60.9454 48.4656 59.7623C47.8231 58.5793 47.4443 57.2706 47.3556 55.9266C47.2668 54.5826 47.4701 53.2352 47.9517 51.9776C48.4328 50.7201 49.1807 49.5822 50.1434 48.6426C51.1061 47.703 52.2604 46.984 53.5273 46.5353C54.7941 46.0866 56.1433 45.9189 57.4809 46.0438C58.8185 46.1686 60.1137 46.5831 61.2758 47.2585ZM54.8572 53.0029C54.5536 53.2363 54.299 53.5274 54.108 53.8594C53.8199 54.3595 53.6855 54.9339 53.7234 55.51C53.7613 56.086 53.9684 56.638 54.3189 57.096C54.67 57.554 55.1478 57.8975 55.6932 58.083C56.2385 58.2686 56.8269 58.2878 57.3832 58.1383C57.9394 57.9889 58.4385 57.6774 58.8185 57.2433C59.198 56.8093 59.441 56.2721 59.5163 55.6996C59.5909 55.1273 59.4951 54.5453 59.2404 54.0276C58.9857 53.5097 58.5838 53.0793 58.0848 52.7906C57.7542 52.5989 57.3883 52.4745 57.0095 52.4244C56.6301 52.3744 56.2449 52.3997 55.8758 52.499C55.5067 52.5983 55.16 52.7695 54.8572 53.0029Z" fill="#615EFF"/>
<path fill-rule="evenodd" clip-rule="evenodd" d="M92.2871 78.2627L105.513 44.2641H113.268L126.493 78.2627H119.1L116.252 70.6474H102.529L99.68 78.2627H92.2871ZM113.991 64.5271C113.087 61.8676 112.281 59.4879 111.572 57.3876C110.864 55.2872 110.14 53.1188 109.402 50.8825C108.663 53.1188 107.932 55.2872 107.209 57.3876C106.501 59.4879 105.694 61.8676 104.789 64.5271H113.991ZM128.732 47.8906C128.732 46.8026 129.064 45.9263 129.727 45.2614C130.39 44.5965 131.264 44.2641 132.349 44.2641C133.434 44.2641 134.309 44.5965 134.972 45.2614C135.635 45.9263 135.967 46.8026 135.967 47.8906C135.967 48.9786 135.635 49.855 134.972 50.5199C134.309 51.1847 133.434 51.5171 132.349 51.5171C131.264 51.5171 130.39 51.1847 129.727 50.5199C129.064 49.855 128.732 48.9786 128.732 47.8906ZM129.093 78.2627V55.597H135.605V78.2627H129.093ZM141.122 55.597V78.2627H147.632V68.2671C147.632 65.8797 148.168 64.0435 149.238 62.7593C150.308 61.4599 151.717 60.8101 153.466 60.8101C154.309 60.8101 155.168 60.9536 156.043 61.2408L156.947 55.597C155.907 55.2948 154.897 55.1436 153.918 55.1436C151.039 55.1436 148.778 56.3752 147.135 58.8382V55.597H141.122ZM159.434 78.2627V44.2641H165.945V57.8409C166.895 56.9947 167.98 56.3374 169.201 55.8689C170.422 55.3854 171.741 55.1436 173.157 55.1436C175.283 55.1436 177.174 55.6574 178.832 56.6849C180.49 57.6974 181.794 59.095 182.743 60.8781C183.693 62.6458 184.168 64.6631 184.168 66.9299C184.168 69.1967 183.693 71.2212 182.743 73.0044C181.794 74.7722 180.49 76.17 178.832 77.1977C177.174 78.2099 175.283 78.716 173.157 78.716C171.695 78.716 170.331 78.4665 169.065 77.9681C167.799 77.4543 166.691 76.7367 165.742 75.8147L165.584 78.2627H159.434ZM172.331 73.0496C173.989 73.0496 175.361 72.468 176.445 71.3043C177.531 70.1406 178.073 68.6829 178.073 66.9299C178.073 65.1769 177.531 63.7186 176.445 62.5555C175.361 61.3918 173.989 60.8101 172.331 60.8101C170.673 60.8101 169.301 61.3918 168.216 62.5555C167.131 63.7186 166.588 65.1769 166.588 66.9299C166.588 68.6829 167.131 70.1406 168.216 71.3043C169.301 72.468 170.673 73.0496 172.331 73.0496ZM195.047 66.6804L189.757 55.597H182.952L193.487 77.1293L188.333 89.5955H195.183L209.245 55.597H202.373L196.268 70.3753C196.117 69.6345 195.937 68.9543 195.726 68.3354C195.515 67.7158 195.288 67.164 195.047 66.6804ZM210.127 55.597H213.857V49.9305H220.369V55.597H225.863V61.2634H220.369V69.6042C220.369 70.677 220.708 71.5235 221.386 72.1431C222.079 72.7472 222.954 73.0496 224.008 73.0496C224.792 73.0496 225.599 72.8761 226.428 72.528V77.8772C224.996 78.4368 223.587 78.716 222.2 78.716C219.517 78.716 217.452 77.9984 216.005 76.5626C214.573 75.112 213.857 73.0418 213.857 70.3521V61.2634H210.127V55.597ZM238.206 71.9387C237.122 71.1535 236.376 70.1335 235.969 68.8789H253.603V66.9074C253.603 64.6257 253.091 62.6007 252.066 60.8327C251.04 59.0649 249.639 57.6747 247.86 56.6623C246.097 55.6499 244.077 55.1436 241.801 55.1436C239.511 55.1436 237.46 55.6574 235.652 56.6849C233.859 57.6974 232.441 59.0875 231.401 60.8554C230.362 62.6084 229.841 64.6102 229.841 66.8616C229.841 69.1432 230.384 71.1838 231.47 72.9819C232.554 74.7645 234.054 76.17 235.969 77.1977C237.882 78.2099 240.091 78.716 242.593 78.716C244.16 78.716 245.796 78.4594 247.498 77.9455C249.217 77.4317 250.95 76.4872 252.698 75.112L248.765 70.3979C247.921 71.1986 246.979 71.8555 245.939 72.3694C244.914 72.8684 243.617 73.1179 242.05 73.1179C240.588 73.1179 239.307 72.7246 238.206 71.9387ZM246.516 64.079C246.156 63.2763 245.639 62.5942 244.967 62.034C243.987 61.2181 242.811 60.8101 241.44 60.8101C240.053 60.8101 238.847 61.2256 237.823 62.0565C237.135 62.6226 236.608 63.2963 236.242 64.079H246.516Z" fill="white"/>
</svg>
