<svg width="421" height="118" viewBox="0 0 421 118" fill="none" xmlns="http://www.w3.org/2000/svg">
<g clip-path="url(#clip0_1_793)">
<path d="M42.3417 90.1499C41.9441 90.1499 41.6127 90.1499 41.2151 90.2162C39.6247 90.2864 38.0303 90.2864 36.4399 90.2162C36.1085 90.2162 35.7109 90.2162 35.3796 90.1499C35.1106 90.0173 34.8455 90.1499 34.5805 90.0173C31.6343 89.778 28.7685 88.9365 26.1605 87.5447C24.4998 86.6087 23.0419 85.4036 21.5139 84.2024C20.3188 83.3233 19.1674 82.3862 18.064 81.3944C16.9335 80.4584 15.807 79.5224 14.6141 78.5162L11.0317 75.5132C10.1702 74.7722 9.30876 73.9727 8.44337 73.2356C7.18427 72.1007 5.92517 71.0321 4.66217 69.8933C4.39709 69.6281 4.13202 69.359 3.86694 69.1601C6.25651 67.4207 8.77861 66.0167 11.6282 65.3459C14.2789 64.7453 16.7347 65.0144 19.1243 66.6173C24.4336 70.2287 30.273 72.167 36.7712 72.0344C42.2091 71.8979 47.2533 70.2287 51.8298 67.2881C55.4784 65.0144 58.7295 62.2727 62.1131 59.5973C66.5081 56.1637 70.8871 52.7095 75.2498 49.235C75.4447 49.1024 75.6435 48.8996 75.9749 48.5681C62.9746 48.7007 50.1692 48.4316 37.3014 48.0299C37.7691 47.4293 38.2954 47.0939 38.8255 46.6961C42.4118 43.8179 46.5205 42.3476 50.902 41.2127C61.1152 38.5373 71.3985 36.4001 81.748 34.3253C86.9209 33.323 92.0937 32.2544 97.2705 31.2521C97.5598 31.1728 97.8302 31.0362 98.0657 30.8504C104.899 25.367 111.733 19.9499 118.496 14.4041C122.745 10.9253 126.99 7.45037 131.765 4.64237C135.215 2.63387 138.86 0.898371 142.844 0.227571C142.91 0.227571 142.976 0.161271 142.976 0.0949707H146.956C147.288 0.496671 147.818 0.364071 148.215 0.562971C151.466 1.63157 153.458 3.90527 154.85 6.91607C155.181 7.64927 155.38 8.38637 155.645 9.11957C155.844 9.58757 155.712 9.98927 155.314 10.3247C153.723 11.6624 152.129 13.0664 150.539 14.4041C148.414 16.2059 146.29 18.0116 144.169 19.751C141.253 22.1573 138.334 24.6299 135.348 27.0401C132.56 29.3801 129.773 31.7201 126.924 34.0601C123.739 36.6653 120.62 39.2744 117.436 41.8796C114.516 44.2859 111.6 46.6259 108.614 49.0361C105.429 51.6413 102.182 54.1841 98.9935 56.7893C95.3448 59.7299 91.6299 62.6744 87.9149 65.5487C80.5513 71.2973 73.1916 77.0459 65.559 82.3967C63.1032 84.1322 60.3862 85.3373 57.599 86.4059C54.2856 87.6773 50.902 88.6133 47.4521 89.2139C46.0566 89.483 44.5987 89.6819 43.2032 89.8184C43.0083 90.1499 42.6028 89.951 42.3417 90.1499ZM407.727 38.1395C409.98 38.471 412.171 38.939 414.092 40.4093C415.488 41.4818 416.35 42.8195 416.813 44.4887C416.88 44.7578 416.88 45.023 417.145 45.2258V48.4355C417.078 48.4355 417.012 48.5018 417.012 48.5018C416.681 50.2373 415.488 51.3761 414.358 52.5773L402.815 65.0183C399.966 68.0915 397.112 71.231 394.192 74.3081L391.405 77.315C391.67 77.5841 391.935 77.4515 392.204 77.4515H414.424C415.024 77.4515 415.355 77.5841 415.422 78.1847L416.018 81.5972C416.084 82.7984 416.084 84.0698 416.018 85.271C415.819 86.4761 415.687 87.7475 415.422 88.9487C415.289 89.483 415.09 89.6195 414.556 89.6195C404.211 89.6195 393.795 89.6195 383.449 89.5532H383.18C382.915 89.4167 382.65 89.5532 382.385 89.4167C380.194 89.2178 378.074 88.8161 376.082 87.9464C373.365 86.7452 371.306 84.8732 370.843 81.6635C370.776 81.0856 370.776 80.502 370.843 79.9241C371.108 77.7167 372.234 75.9773 373.762 74.3081C375.485 72.5024 377.146 70.6304 378.869 68.7584C380.927 66.551 382.915 64.3475 384.973 62.2064C386.564 60.5372 388.158 58.7978 389.749 57.1247C391.339 55.3892 392.933 53.5835 394.59 51.9104C395.054 51.3761 395.518 50.8418 396.052 50.2412C395.783 50.0384 395.452 50.171 395.186 50.171H374.69C373.096 50.171 372.963 50.0384 372.831 48.4355L372.636 46.6298C372.499 46.2944 372.698 45.959 372.499 45.6275V42.4841C372.698 42.1487 372.499 41.8172 372.632 41.4818C372.764 40.4132 372.897 39.407 373.162 38.3384C373.298 37.8704 373.497 37.8041 373.825 37.8041H406.199C406.729 38.2058 407.263 38.003 407.727 38.1395ZM218.865 79.1207C218.865 81.7298 220.393 83.399 222.912 83.6018C222.845 84.2024 222.514 84.6704 222.249 85.1384C220.456 88.2818 217.673 89.8847 214.219 90.4853C213.626 90.6218 213.096 90.6218 212.5 90.6881C211.97 90.7553 211.435 90.7553 210.905 90.6881C209.182 90.6218 207.522 90.419 205.931 89.6858C204.072 88.8161 202.747 87.4784 202.018 85.6064C201.676 84.7552 201.497 83.848 201.487 82.931C201.417 82.5956 201.417 82.2641 201.417 81.995V50.5064C201.417 50.171 201.484 49.8356 201.351 49.5704C201.222 47.6321 200.821 45.8264 198.833 44.9567C198.501 44.8241 198.17 44.6213 197.905 44.6876C197.04 44.7578 197.305 44.1533 197.437 43.8218C197.905 42.8858 198.435 42.0161 199.098 41.279C201.086 39.0053 203.674 38.003 206.594 37.6013C206.925 37.4687 207.257 37.6676 207.588 37.4687H209.447C209.779 37.6676 210.176 37.4687 210.574 37.6013C212.367 37.9367 214.09 38.2721 215.548 39.3407C217.673 40.8773 218.468 43.0847 218.667 45.6236V46.9613C222.249 42.2813 226.229 38.5373 232.201 37.6013C232.532 37.4687 232.864 37.6676 233.195 37.4687H235.183C235.585 37.6676 236.048 37.4687 236.508 37.6013C238.434 37.9367 240.36 38.2058 242.083 39.407C243.611 40.4756 244.34 42.0161 244.671 43.8218C244.804 44.7578 244.804 45.6938 244.804 46.6298C244.671 46.895 244.804 47.1641 244.671 47.4293C244.34 49.3676 243.942 51.2396 243.014 52.979C241.818 55.1864 240.161 56.5904 237.506 56.1887C236.446 56.0561 235.452 55.6544 234.388 55.319C233.362 55.0707 232.32 54.8922 231.269 54.7847C231.004 54.6521 230.739 54.7847 230.474 54.6521C227.823 54.4493 225.235 54.6521 222.779 55.7207C220.725 56.6567 218.932 58.7276 218.803 61.4693C218.667 61.7384 218.803 62.0036 218.667 62.2727C218.667 65.2133 218.667 68.1578 218.6 71.1647V78.0521C218.932 78.3173 218.733 78.719 218.865 79.1207ZM132.097 38.003C132.954 37.3322 133.753 36.599 134.615 35.9282L137.932 33.1865C138.996 32.3168 140.057 31.3808 141.117 30.4448C142.575 29.2436 144.037 28.1048 145.428 26.9036C146.754 25.6985 148.149 24.6299 149.474 23.495C150.87 22.2899 152.262 21.2213 153.653 20.0162C154.187 19.6145 154.651 19.1465 155.115 18.6785C155.248 18.5459 155.38 18.347 155.645 18.4133C155.844 18.4796 155.778 18.7448 155.778 18.8813V77.783C155.778 78.8516 155.778 79.9202 156.109 80.9225C156.639 82.7282 157.766 83.5979 159.625 83.7968C158.495 86.4059 154.117 90.2825 148.149 90.5516C147.62 90.6184 147.084 90.6184 146.555 90.5516C144.567 90.5516 142.645 90.1499 140.918 89.1476C138.93 88.0127 137.534 86.3396 137.071 83.9996C136.739 82.6619 136.938 81.3242 136.938 79.9865C136.872 78.1145 136.872 76.3127 136.872 74.4407C136.739 74.1053 136.805 73.8362 136.805 73.5047V43.151C136.805 42.8156 136.872 42.4802 136.739 42.215C136.54 40.811 135.944 39.6059 134.615 38.8688C133.952 38.5373 133.356 38.2019 132.627 38.2019C132.494 38.1356 132.097 38.4008 132.097 38.003ZM188.351 79.3898C188.483 81.6596 189.61 83.1338 191.664 83.4653C192.327 83.6018 192.397 83.7344 192.066 84.335C190.339 87.8138 187.485 89.7521 183.704 90.419C183.041 90.5555 182.379 90.5555 181.782 90.6218C181.254 90.6883 180.72 90.6883 180.192 90.6218C178.531 90.6218 176.875 90.2864 175.346 89.6156C172.563 88.4144 171.234 86.1446 170.903 83.2001C170.836 82.8647 170.836 82.5293 170.836 82.2641V50.7755C170.836 50.4401 170.903 50.1047 170.77 49.8395C170.638 48.299 170.505 46.7624 169.312 45.6275C168.716 45.023 167.917 44.7578 167.121 44.6213C166.658 44.4887 166.525 44.4224 166.724 43.9544C167.32 42.6167 168.182 41.5481 169.18 40.4756C171.101 38.5373 173.491 37.8704 176.013 37.4726C176.344 37.3361 176.676 37.535 177.007 37.3361H178.863C179.194 37.535 179.595 37.3361 179.993 37.4687C181.65 37.8041 183.24 38.1395 184.702 39.0755C186.359 40.1441 187.287 41.6807 187.821 43.5527C187.887 43.8218 187.953 44.087 188.015 44.4224C188.152 44.6915 188.015 45.023 188.152 45.2921V77.8493C188.152 78.1184 188.218 78.3836 188.218 78.6527C188.351 78.8555 188.152 79.187 188.351 79.3898ZM121.751 52.1093C123.142 52.511 124.468 53.0453 125.598 53.9813C127.189 55.3853 127.984 57.1247 128.315 59.1956C128.382 59.7962 128.382 60.3344 128.315 60.935C127.586 64.9442 125.197 67.3544 121.416 68.0213C120.688 68.0882 119.956 68.0882 119.229 68.0213C117.472 67.865 115.838 67.0534 114.652 65.7476C113.058 64.0784 112.329 62.0036 112.395 59.6636C112.462 55.8533 115.58 52.3784 119.361 52.1093C119.891 52.043 120.492 52.043 121.018 51.9767C121.217 52.1093 121.548 51.9767 121.751 52.1093ZM185.965 22.2899C185.497 24.899 184.106 26.9036 181.65 28.0424C181.031 28.2905 180.386 28.4696 179.728 28.5767C179.065 28.643 178.469 28.643 177.802 28.5767C174.684 28.3076 171.768 25.5659 171.565 22.091C171.498 21.5575 171.498 21.0177 171.565 20.4842C171.967 17.0756 174.352 14.3339 178.27 14.0024C178.576 13.9357 178.892 13.9357 179.198 14.0024C182.449 14.3339 185.166 16.4087 185.899 20.2853C186.031 21.0224 186.031 21.623 185.965 22.2899Z" fill="#DF0000"/>
<path fill-rule="evenodd" clip-rule="evenodd" d="M251.372 45.5573C252.499 46.5635 252.697 47.9636 252.83 49.3676C252.963 49.6406 252.896 49.9721 252.83 50.171V109.139L252.838 109.346C252.849 109.564 252.865 109.806 252.764 110.009V113.819C253.411 114.014 253.996 113.955 254.639 113.893L254.689 113.885C257.539 113.686 260.26 113.152 262.782 111.748C267.491 109.205 270.079 105.196 270.146 99.7127V88.4144C270.146 87.9893 270.181 87.5642 270.216 87.1352C270.266 86.5502 270.313 85.9535 270.278 85.3412C270.742 85.739 271.136 86.0744 271.537 86.4098C273.33 87.8801 275.385 88.9487 277.642 89.6156C279.431 90.1538 281.357 90.419 283.278 90.4853C284.339 90.5555 285.403 90.5555 286.463 90.4853C288.919 90.2864 291.238 89.8847 293.495 88.8824C297.873 86.9441 301.058 83.6681 303.377 79.5224C305.568 75.6458 306.562 71.4338 306.964 67.019C307.011 66.7789 307.024 66.5334 307.003 66.2897C306.995 65.9972 306.983 65.7047 307.092 65.4161V63.2087C306.983 62.9162 306.995 62.6237 307.006 62.3351C307.025 62.091 307.01 61.8454 306.96 61.6058C306.893 61.3367 306.893 61.0013 306.893 60.6698C306.784 60.5216 306.796 60.3773 306.808 60.2291C306.815 60.1121 306.823 59.9873 306.761 59.8664C306.164 55.7207 305.038 51.7778 302.913 48.1664C301.389 45.5573 299.6 43.151 297.21 41.279C294.357 39.0755 291.106 37.8704 287.59 37.4687C287.426 37.4024 287.239 37.4024 287.052 37.4024C286.861 37.4024 286.662 37.4024 286.463 37.3361H284.339C284.132 37.4609 283.926 37.4531 283.715 37.4531C283.594 37.4453 283.469 37.4453 283.345 37.4687C278.039 38.003 273.794 40.7447 270.079 44.555C270.079 44.4285 270.062 44.3026 270.029 44.1806C270.017 44.1416 270.009 44.1104 270.009 44.087C269.611 42.1487 268.75 40.5458 267.16 39.3407C265.632 38.2058 263.842 37.8041 262.053 37.4687C261.885 37.4024 261.718 37.4024 261.554 37.4024C261.386 37.4024 261.223 37.4024 261.055 37.3361H259.067C258.884 37.4453 258.704 37.4336 258.521 37.4258C258.369 37.4057 258.215 37.4203 258.069 37.4687C256.081 37.8041 254.155 38.2721 252.495 39.4733C250.832 40.568 249.557 42.1592 248.85 44.0207C248.717 44.3561 248.717 44.4887 249.181 44.555C249.977 44.6213 250.705 45.023 251.372 45.5573ZM289.379 71.1647C290.244 68.8247 290.443 66.4184 290.443 63.743C290.377 61.5356 290.178 59.1293 289.313 56.8595C287.792 53.0453 285.068 50.8418 280.955 50.639C276.843 50.4401 273.724 52.2458 271.802 55.9196C270.808 57.7916 270.411 59.9366 270.278 62.0738C270.009 65.615 270.278 69.0236 271.935 72.2333C273.857 75.911 276.909 77.8493 281.088 77.5841C285.266 77.3813 287.917 75.0413 289.379 71.1647ZM361.292 55.319C361.226 54.9173 361.226 54.4493 361.226 54.0515C361.078 53.8526 361.148 53.5835 361.195 53.4002C361.21 53.3378 361.226 53.2832 361.226 53.2442C361.181 52.4563 361.07 51.6736 360.894 50.9042C359.897 46.4972 357.643 43.0847 353.73 40.8812C350.412 39.0092 346.764 38.2682 343.049 37.8002C342.932 37.7417 342.795 37.7495 342.655 37.7612C342.483 37.769 342.304 37.7807 342.121 37.6676C341.719 37.6013 341.256 37.6013 340.858 37.6013C338.891 37.5345 336.923 37.5345 334.956 37.6013C334.559 37.6676 334.091 37.6676 333.693 37.6676C333.514 37.7807 333.335 37.769 333.151 37.7573C333.003 37.7495 332.851 37.7417 332.699 37.8041L331.842 37.9211C329.807 38.2097 327.78 38.4944 325.799 39.1418C322.751 40.1441 319.831 41.4116 317.508 43.7516C317.442 44.06 317.442 44.3791 317.508 44.6876C317.555 44.8241 317.586 44.9645 317.625 45.1049C317.703 45.3857 317.773 45.6704 317.906 45.8927C319.5 48.8996 321.687 51.2396 325.137 51.9767C325.799 52.1093 326.197 52.043 326.731 51.575C330.446 48.1664 334.757 47.1641 339.533 48.7007C341.719 49.3676 343.38 50.8418 344.374 52.979C345.29 54.8822 345.271 56.8868 345.243 58.985L345.236 59.999C342.132 58.7336 338.877 57.88 335.553 57.4601C335.319 57.3938 335.085 57.3938 334.863 57.3938C334.64 57.3938 334.426 57.3938 334.227 57.3236H332.902C332.62 57.4128 332.323 57.4434 332.029 57.4133C331.791 57.4055 331.549 57.3977 331.307 57.4601L329.912 57.659C325.07 58.1933 320.825 59.999 317.376 63.6104C315.052 66.083 313.528 69.0236 313.13 72.4361C313.068 72.5882 313.08 72.7403 313.088 72.8924C313.095 73.0718 313.107 73.2551 312.998 73.4384V75.9773C313.107 76.1255 313.095 76.2893 313.088 76.4609C313.067 76.613 313.082 76.7677 313.13 76.9133C313.263 78.719 313.793 80.3921 314.588 81.9287C315.321 83.2664 316.315 84.4013 317.442 85.5401C318.837 86.9441 320.428 87.9464 322.151 88.7498C324.607 89.8847 327.257 90.6218 329.978 90.6218C330.91 90.6881 331.904 90.6881 332.832 90.6218C333.229 90.6218 333.627 90.6218 333.962 90.5555C337.677 89.951 341.189 88.7498 344.308 86.4761C344.705 86.1407 344.97 86.1407 345.239 86.675C345.836 87.9464 346.896 88.8161 348.089 89.483C349.816 90.419 351.605 90.6881 353.531 90.7544C354.061 90.8207 354.591 90.8207 355.121 90.7544C357.772 90.6218 360.162 89.951 362.286 88.2818C363.81 87.0104 364.937 85.5401 365.6 83.6681C362.754 83.2664 361.557 81.7961 361.491 79.0544C361.389 73.8401 361.401 68.6648 361.413 63.47C361.421 61.7384 361.425 59.999 361.425 58.2635C361.336 57.7341 361.306 57.1965 361.335 56.6606C361.355 56.2129 361.34 55.7644 361.292 55.319ZM343.579 76.5116C344.709 75.5756 345.637 74.6396 345.173 73.0406L345.161 72.7286C345.15 72.4088 345.138 72.0695 345.239 71.7653C345.306 71.0984 345.103 70.6967 344.507 70.4315C344.117 70.2209 343.746 70.0142 343.38 69.8075C342.678 69.4214 341.996 69.0431 341.256 68.6921C339.069 67.6898 336.812 66.8864 334.356 67.3544C331.97 67.8887 329.846 68.8247 328.918 71.2973C327.99 73.6373 328.388 75.911 329.912 77.9156C331.506 79.9904 333.693 80.6573 336.149 80.2556C339.069 79.8578 341.326 78.251 343.579 76.5116Z" fill="#DF0000"/>
</g>
<defs>
<clipPath id="clip0_1_793">
<rect width="421" height="117" fill="white" transform="translate(0 0.0949707)"/>
</clipPath>
</defs>
</svg>
