<?xml version="1.0" encoding="UTF-8" standalone="no"?>
<svg
   width="111.51616"
   height="30.707664"
   viewBox="0 0 278.7904 76.769162"
   fill="none"
   version="1.1"
   id="svg55"
   sodipodi:docname="airpazz.svg"
   inkscape:version="1.2.2 (b0a8486541, 2022-12-01)"
   xmlns:inkscape="http://www.inkscape.org/namespaces/inkscape"
   xmlns:sodipodi="http://sodipodi.sourceforge.net/DTD/sodipodi-0.dtd"
   xmlns="http://www.w3.org/2000/svg"
   xmlns:svg="http://www.w3.org/2000/svg">
  <sodipodi:namedview
     id="namedview57"
     pagecolor="#ffffff"
     bordercolor="#000000"
     borderopacity="0.25"
     inkscape:showpageshadow="2"
     inkscape:pageopacity="0.0"
     inkscape:pagecheckerboard="0"
     inkscape:deskcolor="#d1d1d1"
     showgrid="false"
     inkscape:zoom="2.1071429"
     inkscape:cx="148.77966"
     inkscape:cy="48.169492"
     inkscape:window-width="2560"
     inkscape:window-height="1523"
     inkscape:window-x="3840"
     inkscape:window-y="0"
     inkscape:window-maximized="1"
     inkscape:current-layer="svg55" />
  <g
     clip-path="url(#clip0_2080_8384)"
     id="g48"
     transform="translate(-18.6086,-16.4258)">
    <path
       d="m 44.563,77.1466 c -0.2682,0 -0.4917,0 -0.7599,0.0447 -1.0729,0.0473 -2.1484,0.0473 -3.2213,0 -0.2235,0 -0.4918,0 -0.7153,-0.0447 -0.1814,-0.0895 -0.3602,-1e-4 -0.5391,-0.0895 C 37.34,76.8958 35.4068,76.3284 33.6474,75.39 32.5272,74.7589 31.5437,73.9463 30.5129,73.1364 29.7067,72.5436 28.9301,71.9118 28.1857,71.243 27.4231,70.6119 26.6632,69.9808 25.8585,69.3024 L 23.4419,67.2776 C 22.8607,66.7779 22.2796,66.2388 21.6958,65.7418 20.8464,64.9766 19.997,64.2561 19.145,63.4883 18.9662,63.3094 18.7874,63.128 18.6086,62.9939 c 1.612,-1.1728 3.3133,-2.1195 5.2356,-2.5718 1.7881,-0.4049 3.4448,-0.2235 5.0568,0.8573 3.5815,2.435 7.5207,3.7419 11.9043,3.6525 3.6683,-0.092 7.0711,-1.2175 10.1583,-3.2002 2.4613,-1.5331 4.6544,-3.3817 6.9369,-5.1857 2.9648,-2.3151 5.9188,-4.6441 8.8619,-6.9869 0.1315,-0.0894 0.2656,-0.2261 0.4891,-0.4497 -8.7698,0.0895 -17.4082,-0.092 -26.0886,-0.3628 0.3156,-0.405 0.6706,-0.6312 1.0282,-0.8994 2.4193,-1.9406 5.1909,-2.932 8.1466,-3.6972 6.8896,-1.804 13.8266,-3.245 20.8083,-4.644 3.4895,-0.6758 6.979,-1.3963 10.4711,-2.0721 0.1952,-0.0534 0.3776,-0.1455 0.5365,-0.2709 4.6097,-3.6972 9.2195,-7.3498 13.7819,-11.0891 2.8663,-2.3456 5.7295,-4.6886 8.9515,-6.582 2.327,-1.3542 4.786,-2.5244 7.473,-2.9767 0.045,0 0.09,-0.0447 0.09,-0.0894 h 2.684 c 0.224,0.2708 0.582,0.1814 0.85,0.3155 2.193,0.7206 3.537,2.2536 4.475,4.2837 0.224,0.4944 0.358,0.9914 0.537,1.4857 0.134,0.3156 0.045,0.5865 -0.224,0.8126 -1.073,0.902 -2.148,1.8486 -3.221,2.7506 -1.433,1.2149 -2.866,2.4324 -4.297,3.6052 -1.967,1.6225 -3.936,3.2897 -5.951,4.9148 -1.88,1.5778 -3.76,3.1555 -5.682,4.7333 -2.1487,1.7566 -4.2524,3.5158 -6.4008,5.2724 -1.9696,1.6225 -3.9365,3.2003 -5.9508,4.8254 -2.1484,1.7566 -4.3389,3.4711 -6.49,5.2277 -2.4613,1.9827 -4.9673,3.9681 -7.4734,5.9062 -4.9673,3.876 -9.9321,7.7521 -15.0809,11.3599 -1.6566,1.1702 -3.4895,1.9828 -5.3697,2.7033 -2.2352,0.8573 -4.5177,1.4884 -6.8449,1.8933 -0.9414,0.1815 -1.9249,0.3156 -2.8663,0.4076 -0.1315,0.2236 -0.405,0.0894 -0.5812,0.2236 z M 291.046,42.0778 c 1.52,0.2235 2.998,0.5391 4.294,1.5305 0.942,0.7231 1.523,1.6251 1.836,2.7506 0.045,0.1814 0.045,0.3602 0.223,0.497 V 49.02 c -0.044,0 -0.089,0.0447 -0.089,0.0447 -0.224,1.1702 -1.028,1.9381 -1.791,2.748 l -7.786,8.3885 c -1.922,2.0722 -3.847,4.189 -5.817,6.2638 l -1.88,2.0274 c 0.179,0.1815 0.357,0.0921 0.539,0.0921 h 14.989 c 0.405,0 0.628,0.0894 0.673,0.4944 l 0.402,2.3009 c 0.045,0.8099 0.045,1.6672 0,2.4771 -0.134,0.8125 -0.223,1.6698 -0.402,2.4797 -0.089,0.3603 -0.223,0.4523 -0.584,0.4523 -6.979,0 -14.005,0 -20.984,-0.0447 h -0.182 c -0.178,-0.092 -0.357,0 -0.536,-0.092 -1.478,-0.1341 -2.908,-0.405 -4.252,-0.9914 -1.833,-0.8099 -3.221,-2.0721 -3.534,-4.2363 -0.045,-0.3897 -0.045,-0.7832 0,-1.1728 0.178,-1.4884 0.938,-2.6612 1.969,-3.7867 1.162,-1.2175 2.283,-2.4797 3.445,-3.742 1.388,-1.4883 2.73,-2.9741 4.118,-4.4177 1.073,-1.1255 2.148,-2.2983 3.221,-3.4264 1.073,-1.1702 2.149,-2.3878 3.266,-3.5159 0.313,-0.3602 0.626,-0.7205 0.986,-1.1254 -0.181,-0.1368 -0.405,-0.0474 -0.583,-0.0474 H 268.76 c -1.076,0 -1.165,-0.0894 -1.254,-1.1702 l -0.132,-1.2175 c -0.092,-0.2261 0.042,-0.4523 -0.092,-0.6758 v -2.1195 c 0.134,-0.2261 0,-0.4496 0.09,-0.6758 0.089,-0.7205 0.178,-1.399 0.357,-2.1195 0.092,-0.3155 0.226,-0.3602 0.447,-0.3602 h 21.839 c 0.358,0.2708 0.718,0.1341 1.031,0.2261 z M 163.643,69.71 c 0,1.7592 1.031,2.8847 2.73,3.0214 -0.045,0.405 -0.268,0.7205 -0.447,1.0361 -1.21,2.1195 -3.087,3.2002 -5.417,3.6052 -0.4,0.092 -0.758,0.092 -1.16,0.1367 -0.357,0.0454 -0.718,0.0454 -1.076,0 -1.162,-0.0447 -2.282,-0.1814 -3.355,-0.6758 -1.254,-0.5864 -2.148,-1.4883 -2.64,-2.7506 -0.23,-0.5739 -0.352,-1.1856 -0.358,-1.8039 -0.047,-0.2261 -0.047,-0.4497 -0.047,-0.6311 V 50.4164 c 0,-0.2262 0.045,-0.4523 -0.045,-0.6311 -0.087,-1.307 -0.357,-2.5245 -1.698,-3.1109 -0.224,-0.0894 -0.448,-0.2261 -0.626,-0.1814 -0.584,0.0473 -0.405,-0.3603 -0.316,-0.5838 0.316,-0.6311 0.673,-1.2175 1.12,-1.7145 1.341,-1.5331 3.088,-2.2089 5.057,-2.4798 0.224,-0.0894 0.447,0.0447 0.671,-0.0894 h 1.254 c 0.224,0.1341 0.492,0 0.76,0.0894 1.21,0.2262 2.372,0.4523 3.355,1.1728 1.434,1.0361 1.97,2.5245 2.104,4.2364 v 0.9019 c 2.417,-3.1555 5.102,-5.68 9.13,-6.3111 0.224,-0.0894 0.447,0.0447 0.671,-0.0894 h 1.341 c 0.271,0.1341 0.584,0 0.894,0.0894 1.299,0.2262 2.598,0.4076 3.76,1.2175 1.031,0.7206 1.523,1.7593 1.746,2.9768 0.09,0.6311 0.09,1.2622 0.09,1.8933 -0.09,0.1788 0,0.3603 -0.09,0.5391 -0.223,1.3069 -0.491,2.5691 -1.117,3.742 -0.808,1.4883 -1.925,2.435 -3.716,2.1641 -0.715,-0.0894 -1.386,-0.3602 -2.104,-0.5864 -0.692,-0.1674 -1.395,-0.2877 -2.103,-0.3602 -0.179,-0.0894 -0.358,0 -0.537,-0.0894 -1.788,-0.1368 -3.534,0 -5.191,0.7205 -1.385,0.6311 -2.595,2.0274 -2.682,3.8761 -0.092,0.1814 0,0.3602 -0.092,0.5417 0,1.9827 0,3.9681 -0.045,5.9955 v 4.6439 c 0.224,0.1789 0.09,0.4497 0.179,0.7206 z M 105.11,41.9858 c 0.579,-0.4523 1.118,-0.9467 1.699,-1.399 l 2.238,-1.8486 c 0.718,-0.5864 1.433,-1.2175 2.148,-1.8486 0.984,-0.81 1.97,-1.5778 2.909,-2.3877 0.894,-0.8126 1.835,-1.5331 2.729,-2.2983 0.942,-0.8126 1.88,-1.5331 2.819,-2.3457 0.36,-0.2708 0.673,-0.5864 0.986,-0.9019 0.09,-0.0894 0.179,-0.2236 0.358,-0.1788 0.134,0.0447 0.089,0.2235 0.089,0.3155 V 68.808 c 0,0.7205 0,1.441 0.224,2.1169 0.357,1.2175 1.117,1.8039 2.372,1.938 -0.763,1.7592 -3.716,4.3731 -7.742,4.5545 -0.357,0.0451 -0.718,0.0451 -1.075,0 -1.342,0 -2.638,-0.2708 -3.803,-0.9467 -1.341,-0.7652 -2.282,-1.8933 -2.595,-3.4711 -0.224,-0.9019 -0.09,-1.8039 -0.09,-2.7059 -0.044,-1.2622 -0.044,-2.4771 -0.044,-3.7393 -0.09,-0.2261 -0.045,-0.4076 -0.045,-0.6311 V 45.4569 c 0,-0.2262 0.045,-0.4523 -0.045,-0.6311 -0.134,-0.9467 -0.536,-1.7592 -1.433,-2.2562 -0.447,-0.2236 -0.849,-0.4497 -1.341,-0.4497 -0.09,-0.0447 -0.358,0.1341 -0.358,-0.1341 z m 37.948,27.9056 c 0.09,1.5305 0.85,2.5245 2.236,2.748 0.447,0.092 0.494,0.1814 0.27,0.5864 -1.164,2.3456 -3.089,3.6525 -5.64,4.1022 -0.447,0.092 -0.894,0.092 -1.296,0.1367 -0.357,0.0449 -0.717,0.0449 -1.073,0 -1.121,0 -2.238,-0.2261 -3.269,-0.6784 -1.878,-0.8099 -2.774,-2.3404 -2.998,-4.3257 -0.044,-0.2262 -0.044,-0.4523 -0.044,-0.6312 V 50.5978 c 0,-0.2261 0.044,-0.4523 -0.045,-0.6311 -0.09,-1.0387 -0.179,-2.0748 -0.984,-2.84 -0.402,-0.4076 -0.941,-0.5864 -1.478,-0.6784 -0.312,-0.0894 -0.402,-0.1342 -0.268,-0.4497 0.403,-0.902 0.984,-1.6225 1.657,-2.3456 1.296,-1.307 2.908,-1.7566 4.61,-2.0249 0.223,-0.092 0.447,0.0421 0.67,-0.092 h 1.252 c 0.223,0.1341 0.494,0 0.763,0.0894 1.117,0.2262 2.19,0.4523 3.176,1.0834 1.118,0.7205 1.744,1.7566 2.104,3.0188 0.045,0.1815 0.089,0.3603 0.131,0.5864 0.092,0.1815 0,0.405 0.092,0.5865 v 21.9521 c 0,0.1814 0.045,0.3603 0.045,0.5417 0.089,0.1367 -0.045,0.3603 0.089,0.497 z M 98.1312,51.4971 c 0.9388,0.2709 1.8329,0.6312 2.5958,1.2623 1.073,0.9466 1.609,2.1195 1.833,3.5158 0.044,0.4049 0.044,0.7678 0,1.1728 -0.492,2.7033 -2.104,4.3284 -4.6549,4.778 -0.4907,0.0452 -0.9845,0.0452 -1.4752,0 -1.1851,-0.1053 -2.2871,-0.6526 -3.0872,-1.533 -1.0755,-1.1255 -1.5673,-2.5245 -1.5226,-4.1023 0.0447,-2.5691 2.1484,-4.9121 4.6992,-5.0936 0.3576,-0.0447 0.7626,-0.0447 1.1176,-0.0894 0.1341,0.0895 0.3576,0 0.4943,0.0894 z M 141.449,31.391 c -0.315,1.7592 -1.254,3.1109 -2.911,3.8787 -0.418,0.1673 -0.852,0.2881 -1.296,0.3603 -0.447,0.0447 -0.85,0.0447 -1.299,0 -2.104,-0.1815 -4.071,-2.0301 -4.208,-4.3731 -0.045,-0.3597 -0.045,-0.7237 0,-1.0834 0.271,-2.2983 1.88,-4.1469 4.523,-4.3705 0.206,-0.0449 0.42,-0.0449 0.626,0 2.193,0.2236 4.026,1.6225 4.52,4.2364 0.09,0.497 0.09,0.9019 0.045,1.3516 z"
       fill="#ffffff"
       id="path44" />
    <path
       fill-rule="evenodd"
       clip-rule="evenodd"
       d="m 185.572,47.0784 c 0.76,0.6785 0.894,1.6225 0.983,2.5692 0.09,0.184 0.045,0.4076 0,0.5417 v 39.76 l 0.005,0.1393 c 0.008,0.1473 0.019,0.3103 -0.05,0.4471 v 2.5691 c 0.437,0.1315 0.831,0.0921 1.265,0.05 l 0.034,-0.0053 c 1.923,-0.1341 3.758,-0.4943 5.46,-1.441 3.176,-1.7145 4.922,-4.4178 4.967,-8.115 v -7.6181 c 0,-0.2866 0.024,-0.5732 0.047,-0.8625 0.034,-0.3944 0.066,-0.7968 0.042,-1.2096 0.313,0.2682 0.579,0.4943 0.85,0.7205 1.209,0.9914 2.595,1.7119 4.118,2.1615 1.207,0.3629 2.506,0.5417 3.802,0.5864 0.715,0.0474 1.433,0.0474 2.149,0 1.656,-0.1341 3.221,-0.4049 4.743,-1.0807 2.954,-1.307 5.102,-3.5158 6.667,-6.3111 1.477,-2.6139 2.148,-5.4539 2.419,-8.4306 0.032,-0.1619 0.041,-0.3274 0.026,-0.4918 -0.005,-0.1972 -0.013,-0.3944 0.061,-0.589 v -1.4884 c -0.074,-0.1972 -0.066,-0.3944 -0.058,-0.589 0.012,-0.1646 0.002,-0.3302 -0.032,-0.4918 -0.045,-0.1814 -0.045,-0.4076 -0.045,-0.6311 -0.073,-0.0999 -0.065,-0.1972 -0.057,-0.2971 0.005,-0.0789 0.01,-0.1631 -0.032,-0.2446 -0.402,-2.7953 -1.162,-5.4538 -2.595,-7.8889 -1.029,-1.7592 -2.236,-3.3817 -3.848,-4.6439 -1.924,-1.4857 -4.118,-2.2983 -6.489,-2.5691 -0.111,-0.0447 -0.237,-0.0447 -0.363,-0.0447 -0.129,0 -0.263,0 -0.397,-0.0447 h -1.434 c -0.139,0.0841 -0.278,0.0788 -0.42,0.0788 -0.082,-0.0052 -0.166,-0.0052 -0.25,0.0106 -3.579,0.3602 -6.443,2.2089 -8.949,4.778 0,-0.0853 -0.011,-0.1702 -0.034,-0.2524 -0.008,-0.0263 -0.013,-0.0474 -0.013,-0.0632 -0.268,-1.3069 -0.849,-2.3877 -1.922,-3.2002 -1.031,-0.7652 -2.238,-1.0361 -3.445,-1.2622 -0.113,-0.0447 -0.226,-0.0447 -0.337,-0.0447 -0.113,0 -0.223,0 -0.336,-0.0447 h -1.341 c -0.124,0.0736 -0.245,0.0657 -0.369,0.0604 -0.102,-0.0135 -0.206,-0.0036 -0.305,0.029 -1.341,0.2261 -2.64,0.5417 -3.76,1.3516 -1.122,0.7381 -1.982,1.811 -2.459,3.0661 -0.089,0.2262 -0.089,0.3156 0.224,0.3603 0.536,0.0447 1.028,0.3156 1.478,0.6758 z m 25.639,17.2662 c 0.583,-1.5778 0.717,-3.2003 0.717,-5.0042 -0.044,-1.4884 -0.178,-3.1109 -0.762,-4.6413 -1.026,-2.5718 -2.864,-4.0575 -5.638,-4.1943 -2.774,-0.1341 -4.878,1.0834 -6.174,3.5605 -0.671,1.2623 -0.939,2.7086 -1.029,4.1496 -0.181,2.3877 0,4.686 1.118,6.8502 1.296,2.4797 3.355,3.7866 6.174,3.6078 2.819,-0.1367 4.607,-1.7145 5.594,-4.3283 z m 48.511,-10.6842 c -0.045,-0.2709 -0.045,-0.5864 -0.045,-0.8547 -0.1,-0.1341 -0.052,-0.3155 -0.021,-0.4391 0.011,-0.0421 0.021,-0.0789 0.021,-0.1052 -0.03,-0.5312 -0.105,-1.059 -0.223,-1.5778 -0.673,-2.9714 -2.193,-5.2724 -4.834,-6.7581 -2.237,-1.2622 -4.699,-1.7619 -7.205,-2.0774 -0.079,-0.0395 -0.171,-0.0342 -0.265,-0.0263 -0.116,0.0052 -0.237,0.0131 -0.361,-0.0631 -0.27,-0.0447 -0.583,-0.0447 -0.852,-0.0447 -1.326,-0.0451 -2.654,-0.0451 -3.981,0 -0.268,0.0447 -0.584,0.0447 -0.852,0.0447 -0.121,0.0762 -0.242,0.0683 -0.365,0.0605 -0.1,-0.0053 -0.203,-0.0106 -0.305,0.0315 l -0.579,0.0789 c -1.373,0.1946 -2.74,0.3866 -4.076,0.8231 -2.056,0.6758 -4.026,1.5304 -5.593,3.1082 -0.045,0.208 -0.045,0.4231 0,0.6311 0.032,0.092 0.053,0.1867 0.079,0.2814 0.052,0.1893 0.1,0.3813 0.189,0.5312 1.076,2.0274 2.551,3.6052 4.878,4.1022 0.447,0.0894 0.715,0.0447 1.076,-0.2709 2.506,-2.2983 5.414,-2.9741 8.635,-1.938 1.476,0.4497 2.596,1.4437 3.266,2.8847 0.618,1.2833 0.605,2.6349 0.587,4.0496 l -0.005,0.6837 c -2.094,-0.8532 -4.29,-1.4287 -6.532,-1.7119 -0.158,-0.0447 -0.316,-0.0447 -0.466,-0.0447 -0.15,0 -0.294,0 -0.429,-0.0473 h -0.894 c -0.19,0.0602 -0.39,0.0808 -0.589,0.0605 -0.16,-0.0053 -0.323,-0.0105 -0.486,0.0315 l -0.942,0.1342 c -3.266,0.3602 -6.129,1.5777 -8.456,4.0128 -1.568,1.6672 -2.596,3.6499 -2.864,5.9508 -0.042,0.1026 -0.034,0.2051 -0.029,0.3077 0.005,0.121 0.013,0.2445 -0.061,0.3681 v 1.7119 c 0.074,0.1 0.066,0.2104 0.061,0.3261 -0.014,0.1026 -0.004,0.2069 0.029,0.305 0.089,1.2176 0.447,2.3457 0.983,3.3817 0.495,0.902 1.165,1.6672 1.925,2.4351 0.942,0.9466 2.015,1.6225 3.177,2.1642 1.657,0.7652 3.445,1.2622 5.28,1.2622 0.629,0.0447 1.299,0.0447 1.925,0 0.268,0 0.536,0 0.763,-0.0447 2.506,-0.4076 4.875,-1.2175 6.979,-2.7506 0.268,-0.2262 0.447,-0.2262 0.628,0.1341 0.402,0.8573 1.118,1.4437 1.922,1.8933 1.165,0.6311 2.372,0.8126 3.671,0.8573 0.358,0.0447 0.716,0.0447 1.073,0 1.788,-0.0894 3.4,-0.5417 4.834,-1.6672 1.028,-0.8573 1.788,-1.8486 2.235,-3.1108 -1.92,-0.2709 -2.727,-1.2623 -2.772,-3.1109 -0.068,-3.5158 -0.06,-7.0053 -0.053,-10.508 0.006,-1.1676 0.008,-2.3404 0.008,-3.5106 -0.059,-0.3569 -0.08,-0.7193 -0.06,-1.0807 0.013,-0.3019 0.004,-0.6043 -0.029,-0.9046 z m -11.949,14.2894 c 0.763,-0.6311 1.388,-1.2622 1.075,-2.3404 l -0.007,-0.2104 c -0.008,-0.2156 -0.016,-0.4444 0.052,-0.6495 0.045,-0.4496 -0.092,-0.7205 -0.494,-0.8993 -0.263,-0.142 -0.513,-0.2814 -0.76,-0.4207 -0.474,-0.2604 -0.934,-0.5155 -1.433,-0.7521 -1.476,-0.6758 -2.998,-1.2175 -4.655,-0.902 -1.609,0.3603 -3.042,0.9914 -3.668,2.6586 -0.626,1.5777 -0.358,3.1108 0.67,4.4625 1.076,1.3989 2.551,1.8486 4.208,1.5777 1.969,-0.2682 3.492,-1.3516 5.012,-2.5244 z"
       fill="#ffffff"
       id="path46" />
  </g>
  <defs
     id="defs53">
    <clipPath
       id="clip0_2080_8384">
      <rect
         width="284"
         height="78.888901"
         fill="#ffffff"
         transform="translate(16,16.4258)"
         id="rect50"
         x="0"
         y="0" />
    </clipPath>
  </defs>
</svg>
