<svg width="350" height="60" viewBox="0 0 350 60" fill="none" xmlns="http://www.w3.org/2000/svg">
<path fill-rule="evenodd" clip-rule="evenodd" d="M49.5221 44.757L50.5699 41.8463C52.7238 35.9668 51.7924 31.368 45.1561 29.6798C52.8984 28.1663 57.3808 22.8689 59.36 17.4551L60.1168 15.4177C63.2021 6.9768 60.8154 0.689799 49.3474 0.689799H21.6963L0.390381 59.3684H28.2161C39.6841 59.3684 46.4368 53.1396 49.5221 44.757ZM33.5135 38.1207L31.8836 42.6031C31.0686 44.8152 29.6133 45.8048 27.4012 45.8048H24.4905L28.449 34.9772H31.3596C33.5135 34.9772 34.3285 35.9086 33.5135 38.1207ZM41.023 17.5133L39.3348 22.1122C38.578 24.2078 37.0645 25.1974 34.9106 25.1974H32L35.9002 14.428H38.8109C41.023 14.428 41.838 15.3012 41.023 17.5133ZM80.1421 0.631592L44.6904 59.3684H61.805L66.8113 50.6365H76.3L74.7283 59.3684H93.9385L101.215 0.631592H80.1421ZM78.5703 39.1685H73.3894L82.0631 23.2182L78.5703 39.1685ZM217.292 43.5927L211.529 59.3684H174.505L190.106 16.4655H175.96L160.359 59.3684H141.149L156.75 16.4655H134.979L119.378 59.3684H100.167L115.768 16.4655H103.02L108.725 0.689799H232.893L227.479 15.5923H209.608L206.988 22.7525H224.859L219.969 36.2579H202.098L199.42 43.6509H217.292V43.5927ZM326.383 15.5341L323.821 22.6943H341.693L336.803 36.1997H318.873L316.195 43.5927H334.067L328.304 59.3684H255.363L276.669 0.631592H295.763L280.162 43.5927H296.927L312.528 0.631592H349.61L344.196 15.5341H326.383ZM257.691 43.5927L251.987 59.3684H215.545L236.851 0.631592H255.945L240.344 43.5927H257.691Z" fill="#00295A"/>
</svg>
