<svg width="345" height="104" viewBox="0 0 345 104" fill="none" xmlns="http://www.w3.org/2000/svg">
<g clip-path="url(#clip0_1_742)">
<path fill-rule="evenodd" clip-rule="evenodd" d="M124.651 10.1469C127.797 8.16988 131.791 7.96398 135.309 8.91132C138.372 9.71446 140.918 11.918 142.532 14.5747C141.374 15.3572 140.193 16.1398 138.952 16.8194C138 15.3984 136.862 13.998 135.289 13.2567C133.468 12.3505 131.336 12.2064 129.37 12.577C127.466 12.9477 125.686 14.2451 125.045 16.1192C124.547 17.5402 124.568 19.1466 125.024 20.5675C125.603 22.2974 127.114 23.4919 128.666 24.3569C131.585 25.9838 134.73 27.1782 137.689 28.764C140.504 30.3085 143.195 32.4916 144.291 35.5806C145.513 39.0404 145.306 43.1799 143.092 46.2072C141.104 48.9462 137.813 50.429 134.523 50.8408C131.585 51.1498 128.542 50.9439 125.748 49.9347C122.126 48.6784 119.105 45.8982 117.49 42.4591C118.712 41.7589 119.932 41.0587 121.216 40.5232C122.168 41.9854 123.161 43.4476 124.527 44.5391C126.927 46.4955 130.176 47.134 133.198 46.825C135.33 46.5984 137.504 45.7747 138.932 44.1272C141.125 41.6353 140.959 37.5371 138.745 35.1276C137.504 33.7683 135.868 32.8417 134.233 31.9973C132.081 30.9675 129.908 29.9996 127.777 28.9494C125.479 27.8167 123.244 26.3545 121.796 24.1921C120.346 22.0297 120.015 19.2907 120.346 16.7576C120.698 14.0598 122.313 11.5679 124.651 10.1469ZM170.844 8.56122C174.405 8.27283 178.026 8.68474 181.357 10.0233C185.104 11.5062 188.415 14.1009 190.691 17.4167C194.52 23.0182 195.286 30.3909 193.216 36.7751C191.934 40.7292 189.409 44.2714 186.035 46.7221C180.613 50.7584 173.245 51.8705 166.768 50.0789C163.166 49.1109 159.855 47.1751 157.268 44.4979C154.537 41.6558 152.694 38.0107 151.949 34.1597C151.39 31.1941 151.369 28.1255 151.949 25.16C152.735 21.2266 154.66 17.4991 157.537 14.657C161.034 11.0943 165.877 8.97302 170.844 8.56122ZM170.41 12.6389C166.188 13.1743 162.193 15.419 159.648 18.817C155.591 24.1715 155.074 31.8325 157.971 37.8254C159.606 41.2234 162.504 44.0243 165.981 45.507C172.293 48.2872 180.302 46.8663 185.021 41.8C189.739 36.8369 190.796 29.0934 188.354 22.8329C187.132 19.682 184.918 16.9018 182.061 15.0895C178.647 12.8653 174.405 12.0827 170.41 12.6389ZM308.202 8.47884C308.451 8.47884 308.7 8.47884 308.948 8.47884C309.734 10.0646 310.335 11.7532 311.059 13.3802C314.784 22.2356 318.502 31.098 322.214 39.9672C323.663 43.4476 325.173 46.8868 326.56 50.3878C325.008 50.4083 323.435 50.4083 321.883 50.3672C320.89 48.1019 320.02 45.7747 319.048 43.4888C314.329 43.3858 309.589 43.4888 304.85 43.4476C302.573 43.4681 300.318 43.4064 298.041 43.4681C297.068 45.7542 296.24 48.1019 295.268 50.3672C293.833 50.4083 292.398 50.4083 290.963 50.3672C292.288 46.825 293.819 43.3652 295.226 39.8642C298.676 31.4893 302.125 23.1144 305.575 14.7394C306.464 12.6594 307.23 10.5176 308.202 8.47884ZM307.126 21C305.223 25.7641 303.318 30.5282 301.415 35.2923C300.876 36.734 300.234 38.1138 299.779 39.5965C302.573 39.6789 305.367 39.5965 308.161 39.6377C311.224 39.5965 314.308 39.6789 317.371 39.5965C316.958 38.2167 316.378 36.9193 315.839 35.6013C314.784 32.9034 313.687 30.2055 312.611 27.5077C311.224 23.9038 309.611 20.4028 308.658 16.6547C308.079 18.0756 307.706 19.5791 307.126 21ZM203.254 8.91132C206.42 8.89064 209.587 8.91132 212.754 8.91132C216.168 8.87007 219.666 9.48788 222.687 11.1148C225.316 12.5358 227.448 14.8629 228.565 17.6226C229.579 19.9703 229.89 22.5651 229.827 25.1189C229.786 28.7846 228.586 32.5327 226.041 35.2511C223.578 37.8666 220.101 39.3081 216.583 39.823C213.623 40.3173 210.621 39.9466 207.662 40.1525C207.642 43.5711 207.745 46.9898 207.621 50.3878C206.173 50.4016 204.716 50.4016 203.254 50.3878C203.192 40.5232 203.254 30.6587 203.233 20.7941C203.254 16.84 203.192 12.8653 203.254 8.91132ZM207.724 12.9477C207.642 17.5402 207.724 22.1532 207.704 26.7664C207.724 29.8967 207.621 33.0476 207.745 36.1778C210.228 36.1573 212.732 36.3015 215.217 36.0131C218.031 35.6835 220.908 34.6333 222.77 32.4092C225.109 29.6496 225.502 25.7778 225.088 22.318C224.757 19.1259 223.019 15.9956 220.079 14.5128C216.313 12.4741 211.864 12.9271 207.724 12.9477ZM238.996 8.91132C240.445 8.89753 241.9 8.89753 243.362 8.91132C243.424 16.6547 243.342 24.4187 243.405 32.1826C248.703 32.265 254.021 32.1826 259.319 32.2032C261.389 32.1826 263.479 32.265 265.549 32.1826C265.631 24.4187 265.549 16.6752 265.59 8.91132C267.066 8.89753 268.543 8.89753 270.019 8.91132C270.033 22.7368 270.033 36.5623 270.019 50.3878C268.543 50.4016 267.066 50.4016 265.59 50.3878C265.549 45.7129 265.631 41.0587 265.549 36.3839C260.436 36.3015 255.325 36.3839 250.213 36.3632C247.936 36.3839 245.66 36.3015 243.405 36.3839C243.342 41.0587 243.424 45.7335 243.362 50.3878C241.9 50.4016 240.445 50.4016 238.996 50.3878C238.871 47.9371 238.975 45.4864 238.955 43.0357C238.941 33.7683 238.941 24.501 238.955 15.2337C238.975 13.133 238.871 11.0119 238.996 8.91132ZM280.077 25.1394C281.505 25.0982 282.954 25.0982 284.382 25.1394C284.464 31.1734 284.402 37.2076 284.423 43.2417C284.382 45.6305 284.485 47.9989 284.382 50.3878C282.947 50.4016 281.512 50.4016 280.077 50.3878C280.057 41.9648 280.077 33.5624 280.077 25.1394ZM125.748 65.8128C128.376 64.4742 131.377 63.9387 134.295 64.1034C137.897 64.1858 141.601 65.3803 144.147 67.9957C143.485 68.799 142.74 69.5403 141.953 70.2405C140.959 69.4992 140.028 68.6548 138.87 68.1605C136.634 67.1102 134.089 66.863 131.647 67.1514C128.501 67.5221 125.5 69.1491 123.575 71.6821C121.319 74.5447 120.492 78.3752 121.05 81.9379C121.526 85.3154 123.389 88.4869 126.244 90.4022C128.769 92.1115 131.916 92.7499 134.937 92.5027C137.566 92.3174 140.255 91.5966 142.388 89.9902C142.822 89.7431 142.74 89.1871 142.76 88.7752C142.74 86.9835 142.76 85.2124 142.74 83.4207C139.718 83.3383 136.675 83.4414 133.634 83.3796C133.578 82.4184 133.578 81.4574 133.634 80.4964C137.717 80.4415 141.801 80.4415 145.886 80.4964C145.947 83.5237 145.885 86.551 145.927 89.5783C145.906 90.1138 145.947 90.6493 145.824 91.1642C145.534 91.679 145.036 92.0084 144.561 92.3585C141.374 94.6445 137.379 95.5712 133.488 95.5095C129.577 95.5712 125.623 94.2738 122.664 91.6996C120.119 89.5166 118.422 86.4481 117.78 83.1736C117.18 79.9816 117.408 76.5835 118.628 73.5355C119.953 70.2199 122.541 67.3985 125.748 65.8128ZM179.308 63.9593C179.682 64.1241 180.075 64.2682 180.324 64.5977C184.793 69.911 189.305 75.1625 193.775 80.4552C195.989 83.0706 198.266 85.6243 200.315 88.3633C200.026 84.8005 200.149 81.2172 200.129 77.6337C200.149 73.2267 200.108 68.8401 200.149 64.433C201.17 64.378 202.191 64.378 203.213 64.433C203.254 71.9293 203.213 79.4049 203.233 86.9011C203.192 89.8049 203.316 92.7293 203.171 95.633C202.198 95.2829 201.681 94.3563 201.04 93.6148C197.501 89.4342 193.962 85.2743 190.444 81.0936C187.712 77.8603 184.959 74.6476 182.289 71.3526C182.517 75.0183 182.392 78.7047 182.435 82.3704C182.392 86.6541 182.476 90.917 182.392 95.2005C181.357 95.2624 180.324 95.2624 179.289 95.18C179.308 84.7594 179.247 74.3594 179.308 63.9593ZM277.759 69.0049C280.594 65.9364 284.734 64.1858 288.894 64.0829C291.708 64.0005 294.626 64.4329 297.131 65.7716C299.014 66.7601 300.649 68.2429 301.828 70.0346C301.063 70.7553 300.215 71.3526 299.304 71.8675C298.434 70.8172 297.503 69.7669 296.323 69.0254C293.136 66.966 288.997 66.6159 285.417 67.7693C282.374 68.7783 279.788 71.1055 278.442 74.0093C276.518 78.1693 276.766 83.3383 279.29 87.2101C280.987 89.8667 283.824 91.7614 286.927 92.3792C290.301 93.0382 294.006 92.4616 296.82 90.4433C297.958 89.6607 298.869 88.5899 299.738 87.5396C300.649 88.0544 301.538 88.6722 302.367 89.3519C300.67 91.7407 298.269 93.6767 295.496 94.6857C291.087 96.3126 285.976 95.9831 281.816 93.759C279.001 92.2762 276.704 89.8873 275.317 87.0453C273.765 83.9768 273.413 80.4346 273.889 77.0572C274.344 74.071 275.689 71.2084 277.759 69.0049ZM310.189 66.4718C312.342 64.2271 315.736 63.7122 318.696 64.2889C321.262 64.7419 323.517 66.4513 324.76 68.7166C323.905 69.3206 323.014 69.8629 322.089 70.3434C321.2 69.1902 320.207 67.9752 318.779 67.4603C316.936 66.7807 314.66 66.8425 313.045 68.0781C311.473 69.2726 311.121 71.5792 311.845 73.3296C312.28 74.4211 313.232 75.1625 314.205 75.7392C317.495 77.6337 321.386 78.5811 324.159 81.279C326.415 83.4001 327.037 86.7981 326.291 89.702C325.794 91.5554 324.532 93.1618 322.897 94.1297C320.662 95.4683 317.95 95.7772 315.405 95.5506C312.755 95.3035 310.148 94.2532 308.307 92.3174C307.437 91.4524 306.733 90.4433 306.196 89.3519C307.064 88.7752 307.996 88.2809 308.969 87.8897C309.755 89.0223 310.521 90.2168 311.679 91.0405C313.563 92.4822 316.067 92.8528 318.386 92.5233C319.917 92.2761 321.406 91.5554 322.338 90.2992C323.332 88.9605 323.476 87.1277 322.959 85.5831C322.503 84.2445 321.406 83.2354 320.248 82.494C317.413 80.6818 314.039 79.8168 311.327 77.7985C309.983 76.7895 308.928 75.4097 308.513 73.7827C307.913 71.2702 308.286 68.3458 310.189 66.4718ZM336.991 64.2271C338.398 65.5245 339.557 67.0278 340.923 68.3665C342.351 67.0073 343.593 65.4832 345 64.0829V72.3823C344.461 72.3411 343.945 72.2999 343.406 72.2587C343.385 70.8172 343.428 69.3755 343.365 67.9133C342.579 68.7783 341.834 69.6639 341.047 70.5082C340.24 69.6639 339.474 68.7577 338.667 67.8928C338.626 69.3755 338.667 70.8583 338.605 72.3411C338.067 72.3274 337.529 72.3136 336.991 72.2999C336.97 69.6021 336.97 66.9043 336.991 64.2271ZM153.004 64.4535C156.854 64.33 160.683 64.433 164.532 64.3918C166.953 64.4124 169.375 64.3506 171.796 64.433C171.851 65.4078 171.851 66.3825 171.796 67.3573C166.643 67.4397 161.489 67.3574 156.315 67.3985C156.296 72.1763 156.315 76.9542 156.315 81.732C160.931 81.8144 165.546 81.7115 170.14 81.7732C170.195 82.7205 170.195 83.6678 170.14 84.6152C165.546 84.677 160.931 84.5946 156.315 84.6564C156.315 87.1895 156.296 89.7225 156.315 92.2761C161.676 92.3792 167.057 92.2761 172.438 92.3174C172.521 93.2647 172.521 94.2326 172.459 95.2005C166.705 95.2829 160.972 95.2005 155.219 95.2418C154.474 95.2418 153.736 95.2211 153.004 95.18C153.004 84.9241 153.004 74.6889 153.004 64.4535ZM211.781 64.4535C214.658 64.33 217.534 64.433 220.41 64.3918C223.805 64.4124 227.199 64.3506 230.573 64.433C230.628 65.4078 230.628 66.3825 230.573 67.3573C225.461 67.4397 220.328 67.3574 215.196 67.3985C215.071 70.3229 215.174 73.2678 215.154 76.1922C215.174 78.0456 215.092 79.8992 215.174 81.732C219.77 81.7939 224.364 81.7115 228.958 81.7732C229.013 82.7205 229.013 83.6678 228.958 84.6152C224.364 84.677 219.77 84.5946 215.174 84.6564C215.119 87.1964 215.119 89.7363 215.174 92.2761C220.556 92.3585 225.936 92.2761 231.318 92.3174C231.345 93.2647 231.345 94.219 231.318 95.18C228.027 95.3035 224.736 95.2005 221.445 95.2418C218.217 95.2005 215.009 95.3035 211.781 95.18C211.781 84.9378 211.781 74.6889 211.781 64.433V64.4535ZM235.394 64.4742C237.92 64.33 240.445 64.4535 242.969 64.4124C247.874 64.433 252.779 64.3711 257.684 64.4535C257.74 65.4283 257.74 66.4031 257.684 67.3779C254.538 67.4603 251.372 67.3779 248.205 67.4192C248.164 76.6865 248.247 85.9539 248.164 95.2211C247.088 95.2829 245.991 95.2829 244.894 95.2005C244.894 88.8576 244.894 82.5352 244.894 76.2128C244.853 73.2884 244.956 70.3434 244.853 67.4192C241.687 67.3574 238.541 67.5221 235.394 67.3573C235.382 66.3962 235.382 65.4352 235.394 64.4742ZM263.52 64.4742C264.617 64.3918 265.715 64.3918 266.791 64.4535C266.873 70.57 266.811 76.6865 266.832 82.8029C266.811 86.9218 266.873 91.0611 266.791 95.18C265.715 95.2418 264.617 95.2418 263.52 95.1594C263.506 84.9309 263.506 74.7026 263.52 64.4742ZM329.209 64.4535C331.279 64.4124 333.349 64.3506 335.397 64.4948C335.397 64.9341 335.405 65.3803 335.417 65.8333C334.672 65.8471 333.941 65.8677 333.224 65.8951C333.162 68.037 333.245 70.1994 333.183 72.3411C332.645 72.3411 332.106 72.3411 331.568 72.3411C331.506 70.1994 331.59 68.037 331.527 65.8951C330.768 65.8677 330.009 65.854 329.251 65.854C329.237 65.3872 329.223 64.9203 329.209 64.4535Z" fill="white"/>
<path d="M43.3992 0H47.0417C48.6353 0.411911 50.2496 0.885638 51.6776 1.72991C54.4094 3.29517 56.5204 5.9106 57.4518 8.93794C58.5486 12.3359 58.0933 16.2077 56.21 19.2761C54.6785 21.8504 52.195 23.8686 49.339 24.7954C45.8413 26.0105 41.847 25.578 38.6598 23.7039C36.1142 22.2211 34.1274 19.8321 33.1341 17.0725C32.4097 15.1161 32.2235 12.9743 32.5132 10.9149C33.0306 7.26973 35.2244 3.8923 38.3701 1.93592C39.8809 0.947337 41.6401 0.411911 43.3992 0ZM17.8812 12.6655C20.758 12.0682 23.9037 12.8302 26.1389 14.766C29.5744 17.6081 30.485 22.9624 28.1464 26.7723C26.6563 29.3466 23.9037 31.2002 20.9028 31.509C18.4607 31.7767 15.9151 31.0766 13.9697 29.5527C11.7552 27.8844 10.3687 25.2072 10.2858 22.4477C10.1823 20.2441 10.8653 18.0198 12.1899 16.2488C13.5765 14.4159 15.6253 13.1185 17.8812 12.6655ZM78.934 27.6786C80.4449 27.5138 81.997 28.111 82.9905 29.2437C84.0666 30.4587 84.4391 32.2298 84.0252 33.7744C83.425 36.0604 80.9622 37.5637 78.6443 37.1312C76.9266 36.9047 75.4157 35.6485 74.8777 34.0215C74.4016 32.6211 74.5257 30.953 75.3951 29.738C76.1815 28.5641 77.5267 27.8228 78.934 27.6786ZM1.24177 41.3942C2.81468 39.2731 5.7534 38.3463 8.27836 39.1289C10.5963 39.829 12.3968 41.9709 12.7073 44.3597C12.997 46.2133 12.3555 48.1696 11.0723 49.5494C9.10612 51.7324 5.56717 52.2473 3.06299 50.6821C1.49007 49.776 0.517383 48.1285 0 46.4192V43.9891C0.28973 43.0623 0.68296 42.1768 1.24177 41.3942ZM82.8662 52.5974C85.8879 51.959 89.1163 53.8742 90.0891 56.7781C90.7307 58.6315 90.503 60.7733 89.3854 62.3796C88.0816 64.3566 85.5981 65.5099 83.2388 65.201C80.1551 64.8715 77.5887 62.0089 77.6509 58.8992C77.5474 55.8924 79.9067 53.1122 82.8662 52.5974ZM9.80985 67.0339C11.362 66.6425 13.1626 66.9721 14.3215 68.1254C16.2462 69.8346 16.2876 73.1504 14.4871 74.9625C12.8728 76.7131 9.87193 76.919 8.03005 75.4157C6.85036 74.4889 6.1674 72.9649 6.25013 71.4616C6.22948 69.4022 7.8024 67.5075 9.80985 67.0339ZM69.207 72.6148C71.9803 72.2236 74.919 73.0886 76.9886 74.9832C78.6029 76.4247 79.6998 78.4224 80.0309 80.5642C80.4862 83.3238 79.6377 86.2482 77.7957 88.3488C75.9331 90.5317 73.0357 91.7673 70.1383 91.6026C65.8956 91.5409 62.0048 88.2664 61.177 84.1064C60.6802 81.841 61.0528 79.3697 62.2117 77.3515C63.6398 74.7979 66.3096 72.9856 69.207 72.6148ZM39.2394 80.0082C42.261 78.4224 45.9241 78.0929 49.1941 79.1432C52.7538 80.2553 55.7339 83.0561 57.1206 86.4954C58.1554 89.049 58.321 91.9321 57.5966 94.5682C56.7066 97.8839 54.4301 100.788 51.4085 102.435C50.0426 103.197 48.5525 103.63 47.0417 104H43.3992C41.5987 103.548 39.7981 102.992 38.246 101.961C35.2658 100.088 33.1547 96.9159 32.5753 93.4561C32.2028 91.2732 32.389 89.0078 33.1547 86.9278C34.2103 83.9829 36.4454 81.4704 39.2394 80.0082Z" fill="white"/>
<path d="M281.112 11.9855C282.685 11.409 284.569 12.3151 285.044 13.9009C285.602 15.4866 284.63 17.3813 282.995 17.7725C281.298 18.2874 279.27 17.0517 279.146 15.2394C278.918 13.8596 279.767 12.418 281.112 11.9855Z" fill="white"/>
</g>
<defs>
<clipPath id="clip0_1_742">
<rect width="345" height="104" fill="white"/>
</clipPath>
</defs>
</svg>
