<svg width="131" height="53" viewBox="0 0 131 53" fill="none" xmlns="http://www.w3.org/2000/svg">
<g clip-path="url(#clip0_168_1385)">
<path d="M2.97011 28.3369H0.520996V42.8429H2.97011V28.3369Z" fill="white"/>
<path d="M75.7099 33.6918L75.1611 32.5918H73.5894V42.8388H75.8928V36.5978C75.8928 35.2488 77.0996 34.8268 78.635 35.0798V32.4268C77.5587 32.4205 76.518 32.8707 75.7108 33.6918" fill="white"/>
<path d="M53.2269 28.126C52.8737 28.1228 52.5336 28.2804 52.2804 28.5645C52.0272 28.8487 51.8813 29.2366 51.8745 29.644C51.8749 29.8468 51.9104 30.0474 51.979 30.2341C52.0476 30.4209 52.1478 30.5899 52.2738 30.7313C52.3998 30.8727 52.549 30.9837 52.7127 31.0576C52.8764 31.1316 53.0512 31.1671 53.2269 31.162C53.5802 31.1653 53.9203 31.0077 54.1735 30.7235C54.4267 30.4393 54.5725 30.0515 54.5794 29.644C54.5602 29.2414 54.4104 28.8619 54.1599 28.5807C53.9094 28.2995 53.5764 28.1372 53.2269 28.126Z" fill="white"/>
<path d="M54.3606 32.5962H52.0571V42.8432H54.3606V32.5962Z" fill="white"/>
<path d="M61.5614 28.126C61.2081 28.1228 60.868 28.2804 60.6148 28.5645C60.3616 28.8487 60.2158 29.2366 60.209 29.644C60.2094 29.8468 60.2449 30.0474 60.3135 30.2341C60.3821 30.4209 60.4823 30.5899 60.6083 30.7313C60.7342 30.8727 60.8835 30.9837 61.0472 31.0576C61.2108 31.1316 61.3857 31.1671 61.5614 31.162C61.9147 31.1653 62.2548 31.0077 62.508 30.7235C62.7612 30.4393 62.907 30.0515 62.9138 29.644C62.8946 29.2414 62.7449 28.8619 62.4944 28.5807C62.2438 28.2995 61.9108 28.1372 61.5614 28.126Z" fill="white"/>
<path d="M62.6956 32.5962H60.3921V42.8432H62.6956V32.5962Z" fill="white"/>
<path d="M58.5647 28.3369H56.2612V42.8429H58.5647V28.3369Z" fill="white"/>
<path d="M46.8661 32.4688C46.0214 32.4496 45.196 32.762 44.5254 33.3548V28.9268C43.9444 29.1935 43.3229 29.3227 42.6978 29.3068H42.2236V42.8428H44.0147L44.3442 41.8728C45.0406 42.6097 45.9587 43.0044 46.9034 42.9728C49.0967 42.9728 50.7786 41.2018 50.7786 37.7018C50.815 34.1178 49.0603 32.4728 46.867 32.4728M46.3555 40.6108C45.9919 40.6165 45.6331 40.5149 45.3133 40.3155C44.9934 40.1161 44.723 39.8257 44.528 39.4718V37.4868C44.528 35.6318 45.1131 34.7458 46.3927 34.7458C47.6724 34.7458 48.4396 35.7998 48.4396 37.6978C48.4396 39.3428 47.818 40.6078 46.359 40.6078" fill="white"/>
<path d="M11.7351 36.7691C11.7351 35.6301 12.1738 34.7871 13.2704 34.7871C14.3307 34.7871 14.733 35.5871 14.733 36.8531V42.8411H17.0364V36.0941C17.0675 35.5977 17.0036 35.0995 16.8494 34.6346C16.6952 34.1698 16.4544 33.7496 16.144 33.4039C15.8336 33.0582 15.4612 32.7952 15.053 32.6337C14.6449 32.4722 14.211 32.416 13.7819 32.4691C13.2817 32.4891 12.7903 32.6266 12.3378 32.8732C11.8852 33.1198 11.481 33.4702 11.1499 33.9031C10.8465 33.4234 10.4426 33.0402 9.97591 32.7894C9.50925 32.5386 8.99507 32.4284 8.48145 32.4691C8.04794 32.4741 7.61991 32.5815 7.22375 32.7846C6.82758 32.9877 6.47169 33.2823 6.17799 33.6501L5.6665 32.5961H4.09473V42.8431H6.39819V36.7691C6.39819 35.6301 6.80045 34.7871 7.89714 34.7871C8.95741 34.7871 9.43249 35.5871 9.43249 36.8531V42.8411H11.736L11.7351 36.7691Z" fill="white"/>
<path d="M26.028 36.7691C26.028 35.6301 26.4667 34.7871 27.5634 34.7871C28.6237 34.7871 29.0259 35.5871 29.0259 36.8531V42.8411H31.3294V36.0941C31.3604 35.5977 31.2966 35.0995 31.1424 34.6346C30.9882 34.1698 30.7473 33.7496 30.4369 33.4039C30.1265 33.0582 29.7541 32.7952 29.346 32.6337C28.9378 32.4722 28.5039 32.416 28.0749 32.4691C27.5747 32.4891 27.0833 32.6266 26.6307 32.8732C26.1782 33.1198 25.774 33.4702 25.4429 33.9031C25.1395 33.4234 24.7355 33.0402 24.2689 32.7894C23.8022 32.5386 23.288 32.4284 22.7744 32.4691C22.3409 32.4741 21.9129 32.5815 21.5167 32.7846C21.1205 32.9877 20.7647 33.2823 20.471 33.6501L19.9595 32.5961H18.3877V42.8431H20.6912V36.7691C20.6912 35.6301 21.0934 34.7871 22.1901 34.7871C23.2504 34.7871 23.7255 35.5871 23.7255 36.8531V42.8411H26.0289L26.028 36.7691Z" fill="white"/>
<path d="M71.9417 42.1679L71.3929 40.1019C70.582 40.4917 69.7122 40.6922 68.8337 40.6919C67.4076 40.6919 66.5675 40.1019 66.3109 38.7919H72.233V37.6919C72.233 34.6979 70.6612 32.4209 68.1384 32.4209C65.6893 32.4209 63.7881 34.3609 63.7881 37.6919C63.7881 41.0229 65.7621 42.9629 68.7964 42.9629C69.884 42.9832 70.9607 42.7092 71.9399 42.1629M68.1384 34.6569C69.1258 34.6569 69.7856 35.3739 69.8567 36.9339H66.2745C66.4574 35.3739 67.1518 34.6569 68.1393 34.6569" fill="white"/>
<path d="M36.7755 32.4692C35.8669 32.4436 34.9722 32.731 34.2059 33.2947C33.4395 33.8583 32.8362 34.6727 32.473 35.6338C32.1099 36.5949 32.0033 37.6591 32.167 38.6903C32.3307 39.7216 32.7572 40.6732 33.392 41.4235C34.0268 42.1738 34.8412 42.6888 35.731 42.9027C36.6208 43.1167 37.5456 43.0197 38.3875 42.6244C39.2293 42.2291 39.9498 41.5533 40.457 40.6833C40.9642 39.8133 41.2351 38.7887 41.2351 37.7402C41.272 37.0478 41.1829 36.354 40.9733 35.7037C40.7638 35.0533 40.4385 34.4608 40.0184 33.9643C39.5983 33.4678 39.0927 33.0782 38.5342 32.8207C37.9756 32.5632 37.3766 32.4435 36.7755 32.4692ZM36.7755 40.7762C35.6788 40.7762 34.655 39.8062 34.655 37.7402C34.655 35.6742 35.6788 34.7042 36.7755 34.7042C37.8722 34.7042 38.896 35.6742 38.896 37.7402C38.896 39.8062 37.8722 40.7762 36.7755 40.7762Z" fill="white"/>
<path d="M14.9513 14.126C14.0426 14.1003 13.148 14.3877 12.3816 14.9514C11.6153 15.5151 11.012 16.3295 10.6488 17.2906C10.2857 18.2517 10.1791 19.3158 10.3428 20.3471C10.5065 21.3783 10.933 22.3299 11.5678 23.0802C12.2026 23.8306 13.017 24.3456 13.9067 24.5595C14.7965 24.7734 15.7214 24.6765 16.5632 24.2812C17.4051 23.8858 18.1256 23.21 18.6328 22.34C19.14 21.47 19.4109 20.4454 19.4108 19.397C19.4478 18.7045 19.3587 18.0108 19.1491 17.3604C18.9396 16.7101 18.6143 16.1176 18.1942 15.621C17.7741 15.1245 17.2685 14.735 16.71 14.4775C16.1514 14.22 15.5524 14.1002 14.9513 14.126ZM14.9513 22.433C13.8546 22.433 12.8307 21.463 12.8307 19.397C12.8307 17.331 13.8546 16.361 14.9513 16.361C16.048 16.361 17.0718 17.331 17.0718 19.397C17.0718 21.463 16.048 22.433 14.9513 22.433Z" fill="white"/>
<path d="M35.4241 24.2469L38.1662 14.2949H35.7535L34.0353 21.2529L31.7318 14.2949H29.209L32.8649 24.7099C32.4262 26.3969 30.6715 26.1859 29.2827 25.4689V27.8299C31.8419 28.7579 34.3638 28.3789 35.4241 24.2469Z" fill="white"/>
<path d="M41.9303 24.626C42.3704 24.6387 42.8082 24.5478 43.2168 24.3586C43.6254 24.1695 43.9962 23.8862 44.3066 23.526C44.1965 25.55 43.3928 26.098 42.0404 26.098C41.1184 26.1058 40.2065 25.8751 39.372 25.423V27.784C40.3426 28.1351 41.3527 28.3198 42.3698 28.332C42.9299 28.3739 43.4913 28.279 44.0174 28.0535C44.5435 27.828 45.0223 27.477 45.4227 27.0234C45.8231 26.5697 46.136 26.0237 46.3409 25.4211C46.5458 24.8184 46.6381 24.1726 46.6118 23.526V14.295H44.8207L44.6014 15.181C43.9765 14.5066 43.1536 14.1301 42.2979 14.127C38.7157 14.127 38.2033 17.927 38.2033 19.314C38.1652 22.897 39.7369 24.626 41.9303 24.626ZM42.4418 16.361C43.7214 16.361 44.3066 17.247 44.3066 19.102V21.126C44.1317 21.5009 43.8654 21.8086 43.5407 22.011C43.2159 22.2134 42.8468 22.3017 42.4791 22.265C41.0165 22.265 40.5415 21 40.5415 19.313C40.5415 17.289 41.3087 16.361 42.4418 16.361Z" fill="white"/>
<path d="M68.5812 16.951C68.6176 16.614 68.8006 16.403 69.6051 16.403C70.6265 16.4366 71.6375 16.6501 72.603 17.036L73.1882 14.759C72.1474 14.372 71.064 14.1588 69.9709 14.126C67.5582 14.126 66.2058 15.138 66.2058 17.373C66.2058 18.849 66.9367 19.734 68.8743 20.367C70.446 20.873 71.0312 21.042 71.0312 21.632C71.0312 22.138 70.6654 22.391 69.788 22.391C68.6923 22.3695 67.6112 22.0976 66.6072 21.591L65.9492 23.784C67.0663 24.3506 68.2747 24.6379 69.495 24.627C71.9805 24.627 73.4829 23.527 73.4829 21.296C73.4829 19.525 72.3134 18.724 71.1066 18.344C69.169 17.711 68.5474 17.544 68.5839 16.952" fill="white"/>
<path d="M64.9593 23.8671L64.4105 21.8011C63.5996 22.1909 62.7297 22.3914 61.8513 22.3911C60.4251 22.3911 59.5851 21.8011 59.3285 20.4911H65.2505V19.3911C65.2505 16.3971 63.6788 14.1201 61.156 14.1201C58.7069 14.1201 56.8057 16.0601 56.8057 19.3911C56.8057 22.7221 58.7797 24.6621 61.814 24.6621C62.9016 24.6824 63.9782 24.4084 64.9575 23.8621M61.156 16.3141C62.1434 16.3141 62.8032 17.0311 62.8743 18.5911H59.2921C59.475 17.0311 60.1694 16.3141 61.1568 16.3141" fill="white"/>
<path d="M9.61438 20.4941C9.64767 19.767 9.48681 19.0456 9.15351 18.4273C8.82021 17.8089 8.3305 17.3234 7.75046 17.0361C8.24077 16.6924 8.63984 16.2 8.90417 15.6127C9.16849 15.0253 9.28791 14.3654 9.2494 13.7051C9.2494 11.7231 7.82329 10.0361 5.26147 10.0361H0V24.5421H5.11495C7.85709 24.5421 9.61179 23.1081 9.61179 20.4941M4.89562 12.4821C6.02871 12.4821 6.76041 13.0721 6.76041 14.2111C6.76041 15.3501 6.03218 15.9361 4.89822 15.9361H2.48552V12.4821H4.89562ZM2.44651 22.1821V18.3011H4.68148C6.14401 18.3011 7.09419 18.9761 7.09419 20.2411C7.09419 21.5061 6.28966 22.1811 4.68148 22.1811L2.44651 22.1821Z" fill="white"/>
<path d="M22.739 20.3249V14.2949H20.4355V20.5359C20.4355 23.4879 21.7516 24.6679 23.762 24.6679C24.6964 24.6629 25.5957 24.2568 26.2848 23.5289L26.7963 24.5409H28.3681V14.2949H26.0646V20.4519C26.0976 20.7174 26.0771 20.988 26.0048 21.2429C25.9325 21.4978 25.8103 21.73 25.6477 21.9217C25.4851 22.1133 25.2864 22.2592 25.067 22.348C24.8477 22.4369 24.6135 22.4663 24.3827 22.4339C23.176 22.3919 22.7355 21.5909 22.7355 20.3259" fill="white"/>
<path d="M50.2664 20.3249V14.2949H47.9629V20.5359C47.9629 23.4879 49.2789 24.6679 51.2894 24.6679C52.2237 24.6629 53.123 24.2568 53.8121 23.5289L54.3236 24.5409H55.8954V14.2949H53.5919V20.4519C53.6249 20.7174 53.6045 20.988 53.5322 21.2429C53.4599 21.4978 53.3377 21.73 53.1751 21.9217C53.0124 22.1133 52.8137 22.2592 52.5944 22.348C52.375 22.4369 52.1409 22.4663 51.9101 22.4339C50.7033 22.3919 50.2629 21.5909 50.2629 20.3259" fill="white"/>
<path d="M97.3882 10.0361H83.6792V42.8431H97.3882V10.0361Z" fill="white"/>
<path d="M121.954 22.939C123.529 21.8643 124.839 20.3434 125.76 18.5205C126.681 16.6977 127.183 14.6336 127.219 12.524C127.108 5.187 121.478 0 111.023 0C106.458 0.021546 101.904 0.543899 97.4243 1.56V10.036H112.011V42.842H97.4243V51.191C102.212 52.0735 107.054 52.5113 111.902 52.5C123.779 52.5 130.071 45.584 130.327 36.771C130.474 30.108 126.891 25.259 121.956 22.94" fill="white"/>
</g>
<defs>
<clipPath id="clip0_168_1385">
<rect width="130.33" height="52.499" fill="white"/>
</clipPath>
</defs>
</svg>
