<svg width="480" height="165" viewBox="0 0 480 165" fill="none" xmlns="http://www.w3.org/2000/svg">
<path d="M46.2982 88.7645H38.7375V127.584H46.2982V88.7645Z" fill="#003C4C"/>
<path d="M272.329 102.984L270.637 100.05H265.784V127.471H272.894V110.77C272.894 107.159 276.73 106.03 281.357 106.595V99.4854C277.52 99.5982 274.248 101.291 272.329 102.984Z" fill="#003C4C"/>
<path d="M202.929 88.2002C200.672 88.2002 198.754 90.0058 198.754 92.3755C198.754 94.6325 200.559 96.5508 202.929 96.5508C205.299 96.5508 207.104 94.7453 207.104 92.3755C207.104 90.0058 205.186 88.2002 202.929 88.2002Z" fill="#003C4C"/>
<path d="M206.54 100.038H199.431V127.46H206.54V100.038Z" fill="#003C4C"/>
<path d="M228.658 88.2002C226.401 88.2002 224.482 90.0058 224.482 92.3755C224.482 94.6325 226.288 96.5508 228.658 96.5508C231.027 96.5508 232.833 94.7453 232.833 92.3755C232.833 90.0058 230.915 88.2002 228.658 88.2002Z" fill="#003C4C"/>
<path d="M232.269 100.038H225.159V127.46H232.269V100.038Z" fill="#003C4C"/>
<path d="M219.517 88.7645H212.408V127.584H219.517V88.7645Z" fill="#003C4C"/>
<path d="M183.406 99.7131C180.585 99.7131 177.651 100.729 176.184 102.083V90.234C174.604 90.9111 172.686 91.2496 170.655 91.2496C170.203 91.2496 169.639 91.2496 169.188 91.2496V127.473H174.717L175.733 124.878C177.313 126.57 180.36 127.812 183.745 127.812C190.516 127.812 195.707 123.072 195.707 113.593C195.481 104.114 190.177 99.7131 183.406 99.7131ZM181.714 121.492C179.231 121.492 177.426 120.364 176.071 118.446V113.142C176.071 108.177 177.877 105.807 181.827 105.807C185.776 105.807 188.146 108.628 188.146 113.706C188.259 118.107 186.34 121.492 181.714 121.492Z" fill="#003C4C"/>
<path d="M74.9611 111.228C74.9611 108.181 76.3153 105.924 79.7007 105.924C82.9732 105.924 84.2145 108.068 84.2145 111.454V127.478H91.3238V109.422C91.3238 103.667 87.8256 99.7175 81.3933 99.7175C78.4593 99.7175 74.9611 101.41 73.2684 103.554C71.35 100.846 68.5289 99.7175 65.0306 99.7175C62.0966 99.7175 59.1626 101.297 57.9213 102.877L56.3415 100.056H51.4891V127.478H58.5984V111.228C58.5984 108.181 59.8397 105.924 63.2251 105.924C66.4976 105.924 67.9646 108.068 67.9646 111.454V127.478H75.074L74.9611 111.228Z" fill="#003C4C"/>
<path d="M119.084 111.228C119.084 108.181 120.438 105.924 123.824 105.924C127.096 105.924 128.338 108.068 128.338 111.454V127.478H135.447V109.422C135.447 103.667 131.949 99.7175 125.516 99.7175C122.582 99.7175 119.084 101.41 117.392 103.554C115.473 100.846 112.652 99.7175 109.154 99.7175C106.22 99.7175 103.286 101.297 102.044 102.877L100.465 100.056H95.6122V127.478H102.609V111.228C102.609 108.181 103.85 105.924 107.235 105.924C110.508 105.924 111.975 108.068 111.975 111.454V127.478H119.084V111.228Z" fill="#003C4C"/>
<path d="M260.819 125.674L259.239 120.145C259.239 120.145 255.854 121.725 251.34 121.725C246.939 121.725 244.343 120.145 243.553 116.647H261.835C261.835 115.97 261.835 114.051 261.835 113.713C261.835 105.701 257.095 99.607 249.196 99.607C241.748 99.607 235.767 104.798 235.767 113.713C235.767 122.628 241.861 127.819 251.227 127.819C256.982 127.819 260.819 125.674 260.819 125.674ZM249.083 105.588C252.243 105.588 254.274 107.506 254.387 111.682H243.328C243.892 107.506 246.036 105.588 249.083 105.588Z" fill="#003C4C"/>
<path d="M152.261 99.7175C144.7 99.7175 138.494 104.908 138.494 113.823C138.494 122.738 144.7 127.929 152.261 127.929C159.822 127.929 166.028 122.738 166.028 113.823C166.028 104.908 159.822 99.7175 152.261 99.7175ZM152.261 121.948C148.875 121.948 145.716 119.353 145.716 113.823C145.716 108.294 148.875 105.698 152.261 105.698C155.646 105.698 158.806 108.294 158.806 113.823C158.693 119.353 155.646 121.948 152.261 121.948Z" fill="#003C4C"/>
<path d="M84.8916 50.6309C77.3309 50.6309 71.1243 55.8218 71.1243 64.7367C71.1243 73.6515 77.3309 78.8424 84.8916 78.8424C92.4523 78.8424 98.6588 73.6515 98.6588 64.7367C98.6588 55.8218 92.4523 50.6309 84.8916 50.6309ZM84.8916 72.8616C81.5062 72.8616 78.3465 70.2661 78.3465 64.7367C78.3465 59.2072 81.5062 56.6117 84.8916 56.6117C88.277 56.6117 91.4367 59.2072 91.4367 64.7367C91.3238 70.2661 88.277 72.8616 84.8916 72.8616Z" fill="#003C4C"/>
<path d="M148.085 77.7158L156.549 51.084H149.101L143.797 69.7037L136.688 51.084H128.902L140.186 78.9571C138.832 83.4709 133.415 83.0195 129.127 80.9883V87.4205C137.027 89.7903 144.7 88.7747 148.085 77.7158Z" fill="#003C4C"/>
<path d="M168.172 78.7296C171.445 78.7296 173.814 77.4883 175.507 75.7956C175.169 81.2122 172.686 82.6792 168.511 82.6792C163.658 82.6792 160.386 80.8737 160.386 80.8737V87.3059C160.386 87.3059 164.674 88.7729 169.639 88.7729C177.877 88.7729 182.729 83.1306 182.729 75.9084V51.0823H177.087L176.41 53.452C174.83 51.985 172.009 50.6309 169.301 50.6309C158.242 50.6309 156.662 60.787 156.662 64.511C156.549 74.1029 161.401 78.7296 168.172 78.7296ZM169.639 56.6117C173.589 56.6117 175.394 58.9815 175.394 64.0596V69.4762C174.491 71.3946 172.46 72.523 169.752 72.523C165.238 72.523 163.771 69.1377 163.771 64.6238C163.771 59.0943 166.254 56.6117 169.639 56.6117Z" fill="#003C4C"/>
<path d="M250.437 58.1939C250.55 57.2911 251.114 56.7269 253.71 56.7269C258.336 56.7269 262.963 58.4196 262.963 58.4196L264.769 52.3259C264.769 52.3259 259.803 50.5203 254.838 50.5203C247.39 50.5203 243.215 53.2286 243.215 59.2095C243.215 63.272 245.472 65.5289 251.453 67.2216C256.305 68.5757 258.111 69.0271 258.111 70.607C258.111 71.9611 256.982 72.6382 254.274 72.6382C248.97 72.6382 244.456 70.4941 244.456 70.4941L242.425 76.3621C242.425 76.3621 246.939 78.619 253.371 78.619C261.045 78.619 265.671 75.6851 265.671 69.7042C265.671 64.9647 262.06 62.8206 258.449 61.805C252.243 60.2251 250.324 59.7737 250.437 58.1939Z" fill="#003C4C"/>
<path d="M239.265 76.6984L237.685 71.1689C237.685 71.1689 234.3 72.7487 229.786 72.7487C225.385 72.7487 222.79 71.1689 222 67.6707H240.281C240.281 66.9936 240.281 65.0752 240.281 64.7367C240.281 56.7246 235.541 50.6309 227.642 50.6309C220.194 50.6309 214.213 55.8218 214.213 64.7367C214.213 73.6515 220.307 78.8424 229.673 78.8424C235.429 78.8424 239.265 76.6984 239.265 76.6984ZM227.529 56.4989C230.689 56.4989 232.72 58.4173 232.833 62.5926H221.774C222.338 58.4173 224.482 56.4989 227.529 56.4989Z" fill="#003C4C"/>
<path d="M68.4161 67.6632C68.4161 60.441 62.6609 58.4098 62.6609 58.4098C64.4664 57.2813 67.2876 54.9115 67.2876 49.4949C67.2876 44.1911 62.8866 39.6773 54.9873 39.6773H38.7375V78.4964H54.536C62.9994 78.4964 68.4161 74.6596 68.4161 67.6632ZM53.8589 46.2224C57.3571 46.2224 59.614 47.8022 59.614 50.8491C59.614 53.8959 57.3571 55.4758 53.8589 55.4758C51.9405 55.4758 48.5551 55.4758 46.2982 55.4758V46.2224H53.8589ZM46.2982 72.177V61.7952H53.1818C57.6957 61.7952 60.6297 63.6007 60.6297 66.9861C60.6297 70.3715 58.0342 72.177 53.1818 72.177H46.2982Z" fill="#003C4C"/>
<path d="M108.928 67.2211V51.084H101.819V67.7853C101.819 75.6845 105.881 78.8442 112.088 78.8442C115.247 78.8442 118.069 77.4901 119.874 75.7974L121.454 78.5057H126.306V51.084H119.197V67.5596C119.197 70.6064 117.843 72.8634 114.006 72.8634C110.282 72.7505 108.928 70.6064 108.928 67.2211Z" fill="#003C4C"/>
<path d="M193.901 67.2211V51.084H186.792V67.7853C186.792 75.6845 190.854 78.8442 197.061 78.8442C200.221 78.8442 203.042 77.4901 204.847 75.7974L206.427 78.5057H211.28V51.084H204.17V67.5596C204.17 70.6064 202.816 72.8634 198.979 72.8634C195.255 72.7505 193.901 70.6064 193.901 67.2211Z" fill="#003C4C"/>
<path d="M339.36 39.6776H297.043V127.472H339.36V39.6776Z" fill="#003C4C"/>
<path d="M415.193 74.209C424.333 68.7924 431.555 58.072 431.442 46.336C431.217 26.5879 413.726 12.7078 381.452 12.7078C358.769 12.7078 339.473 16.8831 339.473 16.8831V39.5652H384.498V127.472H339.473V149.816C339.473 149.816 358.882 153.314 384.16 153.314C420.835 153.314 440.244 134.807 441.034 111.223C441.486 93.3929 430.314 80.4156 415.193 74.209Z" fill="#003C4C"/>
<path d="M297.094 39.4772H339.395V127.385H297.094V39.4772Z" fill="#75BE00"/>
</svg>
