<svg width="62" height="44" viewBox="0 0 62 44" fill="none" xmlns="http://www.w3.org/2000/svg">
<path d="M40.7859 20.5001L36.9474 10.5202L31.9406 21.5384C30.249 25.0055 24.715 26.0131 20.8424 26.5686L21.5441 25.0936L32.7486 3.38668H41.4838L47.7422 16.5503L50.4845 22.795L56.136 35.3226L52.2407 35.3149L49.2025 35.2958C47.9242 35.3149 46.6764 35.2192 46.1453 33.8361L45.0681 31.162L43.2627 26.6337L40.7859 20.5001Z" fill="white"/>
<path d="M43.3082 26.6797C37.357 29.779 31.3072 32.8439 24.3813 34.4529C17.9294 35.9509 10.8289 36.1463 5.87532 33.2423C1.41478 30.6372 -0.0417224 25.5303 0.0417231 21.7797C0.0986177 19.324 1.28203 15.8875 3.60712 13.0257C7.93491 7.69282 16.0974 3.07636 22.5986 2.86565C24.9161 2.78903 26.3877 3.56674 27.2677 9.34785C24.86 9.31261 22.4667 9.72827 20.209 10.5738C17.3028 11.6904 14.5516 13.1815 12.0237 15.0102C7.44182 18.2704 4.82846 21.5307 4.55536 24.6224C4.31641 27.3386 6.81598 28.9477 10.9617 29.2963C20.7779 30.143 32.1227 25.4116 40.8314 20.5423L47.7839 16.5924L62 8.79234L61.9545 16.1059L50.53 22.8371L43.3082 26.6797Z" fill="white"/>
<path d="M0 38.9123H57.6798V44H0V38.9123Z" fill="white"/>
<path d="M59.6142 1.26426L51.41 5.68916C51.41 5.68916 48.588 7.25224 46.7826 7.64301L48.057 10.6274C48.4363 11.8764 49.8283 12.2939 50.9131 11.7346L61.9317 5.65851V0L59.6142 1.26426Z" fill="white"/>
<path d="M20.5693 5.33287C22.7503 5.4478 26.4257 3.89621 27.2677 9.52407C26.2474 9.20609 24.2599 9.4781 23.1258 9.71563" fill="white"/>
</svg>
