<svg width="440" height="91" viewBox="0 0 440 91" fill="none" xmlns="http://www.w3.org/2000/svg">
<g clip-path="url(#clip0_1_66)">
<path d="M106.55 64.7629C103.564 64.7588 100.619 64.0719 97.9392 62.7549C95.2594 61.4378 92.9162 59.5255 91.0889 57.164C89.2615 54.8025 87.9983 52.0544 87.3959 49.1299C86.7934 46.2054 86.8677 43.1818 87.613 40.2904C88.3583 37.3989 89.7549 34.7162 91.696 32.4473C93.6371 30.1783 96.0713 28.3833 98.8125 27.1994C101.554 26.0155 104.529 25.4741 107.512 25.6166C110.494 25.7591 113.405 26.5817 116.021 28.0215C118.835 29.5655 121.178 31.8433 122.801 34.6127L122.95 34.8692L117.116 38.2534L116.972 37.9846C116.001 36.1871 114.539 34.7037 112.755 33.7086C110.861 32.6456 108.722 32.0999 106.55 32.1265C104.809 32.0584 103.073 32.3504 101.449 32.9843C99.826 33.6181 98.351 34.58 97.1166 35.81C94.7943 38.3737 93.5082 41.7093 93.5082 45.1684C93.5082 48.6275 94.7943 51.9631 97.1166 54.5269C98.351 55.7568 99.826 56.7188 101.449 57.3526C103.073 57.9864 104.809 58.2784 106.55 58.2104C108.73 58.2352 110.878 57.6898 112.781 56.6282C114.567 55.6508 116.023 54.1674 116.968 52.3644L117.11 52.0915L122.948 55.4187L122.801 55.6753C121.207 58.4535 118.884 60.7426 116.082 62.295C113.175 63.9308 109.891 64.7774 106.556 64.7507" fill="white"/>
<path d="M131.634 26.1841H125.303V64.072H131.634V26.1841Z" fill="white"/>
<path d="M172.803 64.0744L162.215 36.9134H169.109L176.344 56.6015L183.524 36.9134H190.433L179.844 64.0744H172.803Z" fill="white"/>
<path d="M220.475 64.0758V36.9168H226.805V40.4577C227.625 39.1267 228.795 38.0473 230.188 37.3382C231.581 36.6291 233.143 36.3177 234.702 36.4383H234.997V43.2657L234.683 43.2453C234.455 43.2304 234.231 43.2229 234.009 43.2229C232.262 43.1948 230.553 43.7327 229.137 44.7562C228.32 45.4355 227.682 46.3037 227.277 47.2855C226.872 48.2674 226.713 49.3331 226.813 50.3904V64.0758H220.475Z" fill="white"/>
<path d="M258.322 64.7629C255.336 64.7588 252.39 64.0719 249.71 62.7549C247.031 61.4378 244.687 59.5255 242.86 57.164C241.033 54.8025 239.77 52.0544 239.167 49.1299C238.565 46.2054 238.639 43.1818 239.384 40.2904C240.129 37.3989 241.526 34.7162 243.467 32.4473C245.408 30.1783 247.842 28.3833 250.584 27.1994C253.325 26.0155 256.301 25.4741 259.283 25.6166C262.266 25.7591 265.176 26.5817 267.792 28.0215C270.606 29.5653 272.95 31.8431 274.573 34.6127L274.721 34.8692L268.887 38.2534L268.743 37.9846C267.773 36.1872 266.31 34.7038 264.526 33.7086C262.633 32.6457 260.493 32.1 258.322 32.1265C256.58 32.0585 254.844 32.3506 253.221 32.9844C251.597 33.6182 250.122 34.5801 248.888 35.81C246.565 38.3737 245.279 41.7093 245.279 45.1684C245.279 48.6275 246.565 51.9631 248.888 54.5269C250.122 55.7568 251.597 56.7188 253.22 57.3526C254.844 57.9864 256.58 58.2784 258.322 58.2104C260.502 58.2354 262.65 57.69 264.554 56.6282C266.34 55.6507 267.797 54.1674 268.743 52.3644L268.883 52.0915L274.721 55.4187L274.575 55.6753C272.981 58.4536 270.657 60.7429 267.855 62.295C264.949 63.9308 261.665 64.7774 258.33 64.7507" fill="white"/>
<path d="M290.656 64.763C288.775 64.7948 286.906 64.4459 285.163 63.7374C283.42 63.0288 281.837 61.9751 280.512 60.6397C277.834 57.941 276.332 54.2936 276.332 50.4922C276.332 46.6908 277.834 43.0435 280.512 40.3448C283.232 37.7007 286.876 36.2214 290.669 36.2214C294.463 36.2214 298.107 37.7007 300.827 40.3448C302.847 42.3431 304.225 44.8991 304.784 47.6854C305.343 50.4716 305.057 53.3613 303.964 55.9842C302.87 58.6071 301.018 60.8439 298.646 62.4079C296.273 63.9719 293.487 64.7919 290.646 64.763M290.646 42.3911C289.591 42.3686 288.542 42.5614 287.564 42.9577C286.586 43.354 285.699 43.9455 284.957 44.6961C283.477 46.263 282.652 48.3368 282.652 50.4922C282.652 52.6477 283.477 54.7215 284.957 56.2883C286.482 57.7668 288.523 58.5936 290.647 58.5936C292.771 58.5936 294.812 57.7668 296.337 56.2883C297.817 54.7215 298.642 52.6477 298.642 50.4922C298.642 48.3368 297.817 46.263 296.337 44.6961C295.595 43.9453 294.708 43.3537 293.73 42.9574C292.752 42.561 291.703 42.3684 290.648 42.3911" fill="white"/>
<path d="M326.61 64.0745V48.0495C326.663 47.2587 326.557 46.4653 326.298 45.7162C326.039 44.967 325.633 44.2774 325.103 43.6879C324.549 43.1701 323.896 42.7696 323.183 42.5103C322.47 42.251 321.712 42.1384 320.955 42.1791C320.093 42.1428 319.233 42.2836 318.427 42.5929C317.622 42.9021 316.888 43.3732 316.272 43.9771C314.971 45.5239 314.333 47.5215 314.496 49.5359V64.0725H308.166V36.9135H314.496V39.6807C315.451 38.5163 316.669 37.5953 318.05 36.9935C319.431 36.3917 320.934 36.1263 322.437 36.2191C323.844 36.1652 325.246 36.4051 326.554 36.9237C327.863 37.4422 329.049 38.2279 330.037 39.2307C332.054 41.4815 333.097 44.4405 332.936 47.459V64.0684L326.61 64.0745Z" fill="white"/>
<path d="M355.224 64.0745V48.0495C355.277 47.2587 355.17 46.4653 354.912 45.7162C354.653 44.967 354.246 44.2774 353.717 43.6879C353.162 43.17 352.509 42.7693 351.796 42.51C351.083 42.2508 350.325 42.1382 349.567 42.1791C348.705 42.1428 347.844 42.2836 347.039 42.5929C346.233 42.9021 345.5 43.3732 344.884 43.9771C343.583 45.5239 342.945 47.5215 343.108 49.5359V64.0725H336.777V36.9135H343.108V39.6807C344.063 38.5163 345.281 37.5953 346.662 36.9935C348.042 36.3917 349.546 36.1263 351.049 36.2191C352.457 36.1645 353.861 36.4046 355.171 36.9239C356.481 37.4432 357.668 38.2302 358.657 39.2347C360.674 41.4854 361.717 44.4446 361.556 47.4631V64.0725L355.224 64.0745Z" fill="white"/>
<path d="M408.552 64.7641C406.663 64.7866 404.789 64.4342 403.038 63.7271C401.287 63.0201 399.694 61.9725 398.35 60.6451C397.007 59.3177 395.94 57.7368 395.212 55.9942C394.484 54.2516 394.11 52.3818 394.11 50.4933C394.11 48.6047 394.484 46.7349 395.212 44.9923C395.94 43.2497 397.007 41.6689 398.35 40.3415C399.694 39.0141 401.287 37.9665 403.038 37.2594C404.789 36.5524 406.663 36.1999 408.552 36.2225C411.084 36.1974 413.577 36.8535 415.768 38.1222C417.865 39.3138 419.567 41.0925 420.665 43.2392L420.792 43.4877L415.33 46.6581L415.192 46.3669C414.63 45.1654 413.716 44.1628 412.571 43.4917C411.334 42.7792 409.926 42.4167 408.499 42.4431C407.448 42.4185 406.402 42.6103 405.428 43.0064C404.454 43.4026 403.572 43.9947 402.836 44.7461C401.372 46.3003 400.557 48.3549 400.557 50.4902C400.557 52.6255 401.372 54.6802 402.836 56.2344C403.572 56.9857 404.454 57.5778 405.428 57.974C406.402 58.3702 407.448 58.5619 408.499 58.5373C409.929 58.5546 411.336 58.183 412.571 57.4622C413.735 56.7922 414.683 55.803 415.302 54.6115L415.443 54.3366L420.902 57.448L420.767 57.7025C419.619 59.86 417.886 61.6499 415.766 62.8663C413.575 64.135 411.082 64.7912 408.55 64.7661" fill="white"/>
<path d="M436.093 64.3052C433.962 64.4368 431.838 63.9413 429.985 62.8799C427.995 61.5339 426.985 59.0477 426.985 55.4884V43.0309H422.098V36.9222H426.985V31.2473L433.316 28.9443V36.9141H439.905V43.0227H433.316V55.4803C433.28 55.8654 433.32 56.2538 433.435 56.6232C433.549 56.9927 433.736 57.3357 433.984 57.6326C434.549 58.1048 435.265 58.3584 436.002 58.3473C436.416 58.369 436.874 58.3798 437.376 58.3798C438.042 58.3798 438.802 58.3595 439.616 58.3188L439.925 58.3045V64.0303L439.667 64.0609C438.487 64.2095 437.299 64.2877 436.11 64.295" fill="white"/>
<path d="M156.369 55.7342C156.131 56.0224 155.875 56.2945 155.601 56.5487C153.854 58.1563 151.55 59.0209 149.177 58.9596C148.133 58.9763 147.097 58.7699 146.14 58.3541C145.182 57.9383 144.324 57.3228 143.624 56.5487C143.37 56.2723 143.136 55.9791 142.921 55.6711L156.971 50.5561L162.999 48.3631C162.626 45.3295 161.254 42.5064 159.097 40.3405C157.798 39.0335 156.254 37.9963 154.552 37.2885C152.851 36.5807 151.027 36.2163 149.184 36.2163C147.341 36.2163 145.517 36.5807 143.815 37.2885C142.114 37.9963 140.569 39.0335 139.271 40.3405C136.653 43.0701 135.191 46.7059 135.191 50.4879C135.191 54.27 136.653 57.9057 139.271 60.6354C140.55 61.9646 142.089 63.0165 143.792 63.7259C145.495 64.4352 147.326 64.7868 149.171 64.7587C153.149 64.8492 157.002 63.3677 159.895 60.6354C160.493 60.0711 161.044 59.4581 161.541 58.8028L161.231 58.5748L156.369 55.7342ZM143.624 44.4271C144.335 43.6662 145.195 43.0595 146.15 42.6447C147.105 42.2299 148.135 42.0158 149.177 42.0158C150.218 42.0158 151.248 42.2299 152.204 42.6447C153.159 43.0595 154.019 43.6662 154.73 44.4271C154.964 44.6845 155.183 44.9566 155.383 45.2416L141.382 50.3322C141.346 48.1498 142.148 46.0367 143.622 44.4271" fill="white"/>
<path d="M210.729 55.7342C210.491 56.0223 210.234 56.2944 209.961 56.5487C208.214 58.1563 205.91 59.0209 203.537 58.9596C202.493 58.9763 201.457 58.7699 200.5 58.3541C199.542 57.9383 198.684 57.3228 197.984 56.5487C197.73 56.2723 197.496 55.9791 197.281 55.6711L211.331 50.5561L217.358 48.3631C216.987 45.3298 215.615 42.5068 213.459 40.3405C212.16 39.0335 210.616 37.9963 208.914 37.2885C207.213 36.5807 205.389 36.2163 203.546 36.2163C201.703 36.2163 199.879 36.5807 198.177 37.2885C196.476 37.9963 194.932 39.0335 193.633 40.3405C191.015 43.0701 189.553 46.7059 189.553 50.4879C189.553 54.27 191.015 57.9057 193.633 60.6354C194.912 61.9646 196.451 63.0165 198.154 63.7259C199.857 64.4352 201.688 64.7868 203.533 64.7587C207.51 64.8489 211.363 63.3673 214.255 60.6354C214.853 60.071 215.404 59.4581 215.901 58.8028L215.591 58.5748L210.729 55.7342ZM197.984 44.4271C198.695 43.6662 199.555 43.0595 200.51 42.6447C201.465 42.2299 202.495 42.0158 203.537 42.0158C204.578 42.0158 205.608 42.2299 206.564 42.6447C207.519 43.0595 208.378 43.6662 209.089 44.4271C209.324 44.6845 209.543 44.9566 209.743 45.2416L195.742 50.3322C195.706 48.1498 196.508 46.0367 197.982 44.4271" fill="white"/>
<path d="M385.581 55.7342C385.343 56.0224 385.087 56.2945 384.813 56.5487C383.066 58.1563 380.762 59.0209 378.389 58.9596C377.345 58.9763 376.31 58.7699 375.352 58.3541C374.395 57.9383 373.537 57.3228 372.836 56.5487C372.583 56.2724 372.348 55.9792 372.134 55.6711L386.184 50.5561L392.211 48.3631C391.839 45.3298 390.467 42.5068 388.312 40.3405C387.013 39.0335 385.468 37.9963 383.767 37.2885C382.065 36.5807 380.241 36.2163 378.398 36.2163C376.556 36.2163 374.731 36.5807 373.03 37.2885C371.328 37.9963 369.784 39.0335 368.485 40.3405C365.867 43.0701 364.406 46.7059 364.406 50.4879C364.406 54.27 365.867 57.9057 368.485 60.6354C369.764 61.9646 371.303 63.0165 373.007 63.7259C374.71 64.4352 376.54 64.7868 378.385 64.7587C382.363 64.8489 386.215 63.3673 389.108 60.6354C389.706 60.071 390.256 59.4581 390.753 58.8028L390.443 58.5748L385.581 55.7342ZM372.836 44.4271C373.547 43.6662 374.407 43.0595 375.362 42.6447C376.317 42.2299 377.348 42.0158 378.389 42.0158C379.431 42.0158 380.461 42.2299 381.416 42.6447C382.371 43.0595 383.231 43.6662 383.942 44.4271C384.177 44.6845 384.395 44.9566 384.595 45.2416L370.595 50.3322C370.559 48.1499 371.36 46.0368 372.834 44.4271" fill="white"/>
<path d="M61.2382 31.8977C61.2382 32.3105 61.1158 32.714 60.8865 33.0572C60.6571 33.4004 60.3312 33.6679 59.9498 33.8259C59.5684 33.9839 59.1488 34.0252 58.7439 33.9447C58.339 33.8642 57.9672 33.6654 57.6753 33.3735C57.3834 33.0816 57.1846 32.7097 57.1041 32.3048C57.0235 31.9 57.0649 31.4803 57.2228 31.099C57.3808 30.7176 57.6483 30.3916 57.9915 30.1623C58.3348 29.933 58.7383 29.8105 59.1511 29.8105C59.7046 29.8105 60.2355 30.0304 60.6269 30.4219C61.0183 30.8133 61.2382 31.3441 61.2382 31.8977Z" fill="#01BA18"/>
<path d="M51.2911 23.5391C50.7748 23.5391 50.2701 23.6922 49.8408 23.979C49.4115 24.2658 49.0769 24.6735 48.8794 25.1505C48.6818 25.6275 48.6301 26.1524 48.7308 26.6588C48.8315 27.1651 49.0802 27.6303 49.4453 27.9953C49.8103 28.3604 50.2755 28.609 50.7818 28.7098C51.2882 28.8105 51.8131 28.7588 52.2901 28.5612C52.7671 28.3636 53.1747 28.029 53.4616 27.5998C53.7484 27.1705 53.9015 26.6658 53.9015 26.1495C53.9015 25.4572 53.6265 24.7932 53.1369 24.3036C52.6474 23.8141 51.9834 23.5391 51.2911 23.5391Z" fill="#0BBF2F"/>
<path d="M41.2631 21.6504C40.653 21.6504 40.0565 21.8313 39.5492 22.1703C39.0419 22.5092 38.6465 22.991 38.413 23.5547C38.1796 24.1184 38.1185 24.7387 38.2375 25.3371C38.3565 25.9355 38.6503 26.4852 39.0818 26.9166C39.5132 27.348 40.0628 27.6418 40.6613 27.7608C41.2597 27.8799 41.8799 27.8188 42.4436 27.5853C43.0073 27.3518 43.4891 26.9564 43.828 26.4491C44.167 25.9418 44.3479 25.3454 44.3479 24.7353C44.3479 23.9171 44.0229 23.1325 43.4444 22.5539C42.8659 21.9754 42.0812 21.6504 41.2631 21.6504Z" fill="#0FC139"/>
<path d="M31.9958 24.4902C31.2684 24.4902 30.5575 24.7059 29.9527 25.11C29.348 25.5141 28.8766 26.0884 28.5983 26.7604C28.32 27.4323 28.2471 28.1717 28.389 28.8851C28.5309 29.5984 28.8812 30.2537 29.3955 30.768C29.9097 31.2822 30.565 31.6325 31.2783 31.7744C31.9917 31.9163 32.7311 31.8434 33.403 31.5651C34.075 31.2868 34.6493 30.8154 35.0534 30.2107C35.4575 29.6059 35.6732 28.895 35.6732 28.1676C35.6732 27.1923 35.2857 26.257 34.5961 25.5673C33.9064 24.8777 32.9711 24.4902 31.9958 24.4902Z" fill="#18C552"/>
<path d="M25.5025 31.3379C24.7047 31.3379 23.9248 31.5745 23.2615 32.0177C22.5981 32.4609 22.0811 33.0909 21.7758 33.828C21.4705 34.565 21.3906 35.3761 21.5463 36.1586C21.7019 36.941 22.0861 37.6598 22.6502 38.2239C23.2143 38.788 23.9331 39.1722 24.7155 39.3279C25.498 39.4835 26.3091 39.4036 27.0461 39.0983C27.7832 38.793 28.4132 38.276 28.8564 37.6127C29.2997 36.9493 29.5362 36.1694 29.5362 35.3716C29.5362 34.3018 29.1112 33.2758 28.3548 32.5193C27.5983 31.7629 26.5723 31.3379 25.5025 31.3379Z" fill="#44D33B"/>
<path d="M23.0539 40.7949C22.2082 40.7949 21.3814 41.0457 20.6782 41.5156C19.975 41.9854 19.427 42.6533 19.1033 43.4346C18.7797 44.2159 18.695 45.0757 18.86 45.9052C19.025 46.7347 19.4322 47.4966 20.0303 48.0946C20.6283 48.6926 21.3902 49.0999 22.2197 49.2649C23.0491 49.4299 23.9089 49.3452 24.6903 49.0215C25.4716 48.6979 26.1394 48.1498 26.6093 47.4466C27.0791 46.7434 27.3299 45.9167 27.3299 45.071C27.3299 43.9369 26.8794 42.8493 26.0775 42.0473C25.2756 41.2454 24.188 40.7949 23.0539 40.7949Z" fill="#66DC22"/>
<path d="M25.5025 50.7305C24.7047 50.7305 23.9248 50.9671 23.2615 51.4103C22.5981 51.8535 22.0811 52.4835 21.7758 53.2206C21.4705 53.9576 21.3906 54.7687 21.5463 55.5512C21.7019 56.3336 22.0861 57.0524 22.6502 57.6165C23.2143 58.1806 23.9331 58.5648 24.7155 58.7204C25.498 58.8761 26.3091 58.7962 27.0461 58.4909C27.7832 58.1856 28.4132 57.6686 28.8564 57.0052C29.2997 56.3419 29.5362 55.562 29.5362 54.7642C29.5362 53.6944 29.1112 52.6684 28.3548 51.9119C27.5983 51.1555 26.5723 50.7305 25.5025 50.7305Z" fill="#89E60B"/>
<path d="M31.9958 58.291C31.2684 58.291 30.5575 58.5067 29.9527 58.9108C29.348 59.3149 28.8766 59.8892 28.5983 60.5611C28.32 61.2331 28.2471 61.9725 28.389 62.6858C28.5309 63.3992 28.8812 64.0544 29.3955 64.5687C29.9097 65.083 30.565 65.4333 31.2783 65.5752C31.9917 65.717 32.7311 65.6442 33.403 65.3659C34.075 65.0876 34.6493 64.6162 35.0534 64.0115C35.4575 63.4067 35.6732 62.6957 35.6732 61.9684C35.6732 60.9931 35.2857 60.0577 34.5961 59.3681C33.9064 58.6784 32.9711 58.291 31.9958 58.291Z" fill="#66E51F"/>
<path d="M41.2631 62.3203C40.653 62.3203 40.0565 62.5012 39.5492 62.8402C39.0419 63.1792 38.6465 63.661 38.413 64.2247C38.1796 64.7884 38.1185 65.4086 38.2375 66.007C38.3565 66.6054 38.6503 67.1551 39.0818 67.5865C39.5132 68.0179 40.0628 68.3118 40.6613 68.4308C41.2597 68.5498 41.8799 68.4887 42.4436 68.2552C43.0073 68.0218 43.4891 67.6263 43.828 67.119C44.167 66.6117 44.3479 66.0153 44.3479 65.4052C44.3479 64.587 44.0229 63.8024 43.4444 63.2239C42.8659 62.6453 42.0812 62.3203 41.2631 62.3203Z" fill="#11DB62"/>
<path d="M51.2911 61.3789C50.7748 61.3789 50.2701 61.532 49.8408 61.8188C49.4115 62.1057 49.0769 62.5134 48.8794 62.9904C48.6818 63.4674 48.6301 63.9922 48.7308 64.4986C48.8315 65.005 49.0802 65.4701 49.4453 65.8352C49.8103 66.2003 50.2755 66.4489 50.7818 66.5496C51.2882 66.6503 51.8131 66.5986 52.2901 66.4011C52.7671 66.2035 53.1747 65.8689 53.4616 65.4396C53.7484 65.0103 53.9015 64.5056 53.9015 63.9893C53.9015 63.297 53.6265 62.633 53.1369 62.1435C52.6474 61.6539 51.9834 61.3789 51.2911 61.3789Z" fill="#00DEA7"/>
<path d="M59.1496 56.1504C58.7368 56.1504 58.3333 56.2728 57.9901 56.5021C57.6469 56.7315 57.3793 57.0574 57.2214 57.4388C57.0634 57.8202 57.0221 58.2398 57.1026 58.6447C57.1831 59.0495 57.3819 59.4214 57.6738 59.7133C57.9657 60.0052 58.3376 60.204 58.7424 60.2845C59.1473 60.3651 59.567 60.3237 59.9483 60.1657C60.3297 60.0078 60.6557 59.7403 60.885 59.3971C61.1143 59.0538 61.2367 58.6503 61.2367 58.2375C61.2367 57.684 61.0169 57.1531 60.6254 56.7617C60.234 56.3703 59.7032 56.1504 59.1496 56.1504Z" fill="#00D3C4"/>
<path d="M68.0235 61.2676C67.5072 61.2676 67.0025 61.4207 66.5733 61.7075C66.144 61.9944 65.8094 62.402 65.6118 62.879C65.4142 63.356 65.3625 63.8809 65.4632 64.3873C65.564 64.8936 65.8126 65.3588 66.1777 65.7238C66.5427 66.0889 67.0079 66.3376 67.5142 66.4383C68.0206 66.539 68.5455 66.4873 69.0225 66.2897C69.4995 66.0922 69.9072 65.7575 70.194 65.3283C70.4809 64.899 70.6339 64.3943 70.6339 63.878C70.6339 63.1857 70.3589 62.5217 69.8694 62.0322C69.3798 61.5426 68.7158 61.2676 68.0235 61.2676Z" fill="#00D0C4"/>
<path d="M60.7229 67.291C60.0427 67.291 59.3779 67.4927 58.8124 67.8705C58.2468 68.2483 57.806 68.7853 57.5457 69.4136C57.2853 70.0419 57.2171 70.7333 57.3496 71.4004C57.4822 72.0675 57.8095 72.6803 58.2903 73.1613C58.771 73.6424 59.3837 73.9701 60.0506 74.103C60.7176 74.236 61.4091 74.1681 62.0376 73.9081C62.666 73.6481 63.2033 73.2077 63.5814 72.6424C63.9596 72.0771 64.1616 71.4123 64.162 70.7322C64.162 69.8199 63.7997 68.9449 63.1548 68.2996C62.5099 67.6544 61.6352 67.2916 60.7229 67.291Z" fill="#00E0BF"/>
<path d="M51.4879 70.8887C50.6901 70.8887 49.9102 71.1252 49.2468 71.5685C48.5835 72.0117 48.0665 72.6417 47.7612 73.3788C47.4559 74.1158 47.376 74.9269 47.5316 75.7093C47.6873 76.4918 48.0714 77.2106 48.6356 77.7747C49.1997 78.3388 49.9184 78.723 50.7009 78.8786C51.4834 79.0343 52.2944 78.9544 53.0315 78.6491C53.7686 78.3438 54.3985 77.8268 54.8418 77.1634C55.285 76.5001 55.5216 75.7202 55.5216 74.9224C55.5216 73.8526 55.0966 72.8266 54.3401 72.0701C53.5837 71.3136 52.5577 70.8887 51.4879 70.8887Z" fill="#00DB96"/>
<path d="M40.9764 71.3535C40.0848 71.3535 39.2132 71.6179 38.4718 72.1133C37.7305 72.6086 37.1526 73.3127 36.8114 74.1365C36.4702 74.9603 36.3809 75.8667 36.5549 76.7412C36.7288 77.6157 37.1582 78.419 37.7887 79.0495C38.4192 79.68 39.2224 80.1093 40.0969 80.2833C40.9714 80.4572 41.8779 80.3679 42.7016 80.0267C43.5254 79.6855 44.2295 79.1077 44.7249 78.3663C45.2202 77.6249 45.4846 76.7533 45.4846 75.8617C45.4846 74.6661 45.0097 73.5194 44.1642 72.6739C43.3188 71.8285 42.1721 71.3535 40.9764 71.3535Z" fill="#0EDA65"/>
<path d="M30.9928 69.0527C30.1471 69.0527 29.3204 69.3035 28.6172 69.7734C27.914 70.2433 27.3659 70.9111 27.0423 71.6924C26.7187 72.4738 26.634 73.3335 26.799 74.163C26.964 74.9925 27.3712 75.7544 27.9692 76.3524C28.5672 76.9504 29.3292 77.3577 30.1586 77.5227C30.9881 77.6877 31.8479 77.603 32.6292 77.2794C33.4106 76.9557 34.0784 76.4076 34.5482 75.7045C35.0181 75.0013 35.2689 74.1745 35.2689 73.3288C35.2689 72.1947 34.8184 71.1071 34.0165 70.3052C33.2146 69.5033 32.1269 69.0527 30.9928 69.0527Z" fill="#4DE230"/>
<path d="M22.6152 63.6758C21.7941 63.6758 20.9914 63.9193 20.3086 64.3755C19.6258 64.8317 19.0937 65.4801 18.7794 66.2388C18.4652 66.9974 18.383 67.8322 18.5432 68.6376C18.7034 69.443 19.0988 70.1828 19.6794 70.7634C20.2601 71.3441 20.9999 71.7395 21.8052 71.8997C22.6106 72.0599 23.4454 71.9777 24.2041 71.6634C24.9627 71.3492 25.6111 70.817 26.0673 70.1342C26.5236 69.4515 26.7671 68.6488 26.7671 67.8276C26.7671 66.7265 26.3296 65.6705 25.551 64.8918C24.7724 64.1132 23.7164 63.6758 22.6152 63.6758Z" fill="#84E90C"/>
<path d="M16.44 56.0312C15.6611 56.0312 14.8997 56.2622 14.2521 56.6949C13.6045 57.1276 13.0998 57.7427 12.8017 58.4623C12.5037 59.1818 12.4257 59.9737 12.5776 60.7376C12.7296 61.5015 13.1046 62.2032 13.6554 62.7539C14.2061 63.3046 14.9078 63.6797 15.6717 63.8316C16.4356 63.9836 17.2274 63.9056 17.947 63.6076C18.6666 63.3095 19.2816 62.8047 19.7143 62.1571C20.1471 61.5095 20.378 60.7482 20.378 59.9693C20.378 58.9249 19.9631 57.9232 19.2246 57.1847C18.4861 56.4461 17.4844 56.0313 16.44 56.0312Z" fill="#90E807"/>
<path d="M13.065 46.5449C12.3147 46.5449 11.5812 46.7673 10.9572 47.184C10.3332 47.6007 9.84674 48.193 9.55923 48.8861C9.27172 49.5791 9.19608 50.3419 9.34187 51.0779C9.48766 51.8139 9.84834 52.4902 10.3783 53.0214C10.9083 53.5525 11.5839 53.9146 12.3196 54.062C13.0553 54.2094 13.8182 54.1354 14.5119 53.8493C15.2055 53.5633 15.7989 53.0781 16.2169 52.455C16.635 51.8319 16.8589 51.0989 16.8605 50.3486C16.8616 49.8495 16.7642 49.355 16.574 48.8936C16.3837 48.4322 16.1043 48.0128 15.7517 47.6595C15.3992 47.3062 14.9804 47.0259 14.5194 46.8346C14.0584 46.6434 13.5641 46.5449 13.065 46.5449Z" fill="#6FDF1D"/>
<path d="M13.065 35.9922C12.3144 35.9926 11.5807 36.2155 10.9568 36.6328C10.3329 37.0501 9.84678 37.643 9.55982 38.3366C9.27286 39.0302 9.19798 39.7933 9.34466 40.5294C9.49134 41.2655 9.85299 41.9416 10.3839 42.4722C10.9148 43.0028 11.5911 43.3641 12.3273 43.5104C13.0635 43.6567 13.8265 43.5814 14.5199 43.2941C15.2134 43.0067 15.806 42.5203 16.223 41.8961C16.6399 41.272 16.8625 40.5383 16.8625 39.7877C16.8625 38.7811 16.4626 37.8157 15.7508 37.1039C15.039 36.3921 14.0736 35.9922 13.067 35.9922" fill="#5AD92B"/>
<path d="M16.4396 26.252C15.665 26.2516 14.9077 26.4809 14.2635 26.911C13.6192 27.3411 13.117 27.9526 12.8204 28.6682C12.5238 29.3838 12.4461 30.1712 12.5971 30.931C12.7481 31.6907 13.1211 32.3886 13.6688 32.9364C14.2166 33.4841 14.9145 33.8571 15.6742 34.0081C16.434 34.1591 17.2214 34.0814 17.937 33.7848C18.6526 33.4882 19.2641 32.986 19.6942 32.3417C20.1243 31.6975 20.3537 30.9402 20.3533 30.1656C20.3533 29.1276 19.9409 28.1322 19.207 27.3982C18.473 26.6643 17.4776 26.252 16.4396 26.252Z" fill="#3FD13F"/>
<path d="M22.6152 18.1602C21.7941 18.1602 20.9914 18.4037 20.3086 18.8599C19.6258 19.3161 19.0937 19.9645 18.7794 20.7231C18.4652 21.4818 18.383 22.3166 18.5432 23.122C18.7034 23.9274 19.0988 24.6671 19.6794 25.2478C20.2601 25.8284 20.9999 26.2239 21.8052 26.3841C22.6106 26.5443 23.4454 26.462 24.2041 26.1478C24.9627 25.8336 25.6111 25.3014 26.0673 24.6186C26.5236 23.9359 26.7671 23.1331 26.7671 22.312C26.7671 21.2109 26.3296 20.1548 25.551 19.3762C24.7724 18.5976 23.7164 18.1602 22.6152 18.1602Z" fill="#1DC753"/>
<path d="M30.9928 12.543C30.1471 12.543 29.3204 12.7938 28.6172 13.2636C27.914 13.7335 27.3659 14.4013 27.0423 15.1826C26.7187 15.964 26.634 16.8238 26.799 17.6532C26.964 18.4827 27.3712 19.2446 27.9692 19.8426C28.5672 20.4407 29.3292 20.8479 30.1586 21.0129C30.9881 21.1779 31.8479 21.0932 32.6292 20.7696C33.4106 20.4459 34.0784 19.8979 34.5482 19.1947C35.0181 18.4915 35.2689 17.6647 35.2689 16.819C35.2689 15.6849 34.8184 14.5973 34.0165 13.7954C33.2146 12.9935 32.1269 12.543 30.9928 12.543Z" fill="#11C247"/>
<path d="M40.9753 9.76759C40.0833 9.76597 39.2109 10.029 38.4685 10.5234C37.726 11.0178 37.147 11.7213 36.8045 12.5449C36.462 13.3685 36.3716 14.2752 36.5446 15.1503C36.7176 16.0253 37.1464 16.8293 37.7765 17.4606C38.4067 18.0919 39.2099 18.5221 40.0847 18.6967C40.9594 18.8713 41.8662 18.7825 42.6905 18.4415C43.5147 18.1006 44.2193 17.5228 44.715 16.7812C45.2107 16.0397 45.4753 15.1677 45.4753 14.2758C45.4753 13.0801 45.0004 11.9334 44.1549 11.088C43.3095 10.2426 42.1628 9.76759 40.9672 9.76759" fill="#0FC13A"/>
<path d="M51.4879 11.1758C50.6901 11.1758 49.9102 11.4124 49.2468 11.8556C48.5835 12.2988 48.0665 12.9288 47.7612 13.6659C47.4559 14.4029 47.376 15.214 47.5316 15.9965C47.6873 16.7789 48.0714 17.4977 48.6356 18.0618C49.1997 18.6259 49.9184 19.0101 50.7009 19.1658C51.4834 19.3214 52.2944 19.2415 53.0315 18.9362C53.7686 18.6309 54.3985 18.1139 54.8418 17.4505C55.285 16.7872 55.5216 16.0073 55.5216 15.2095C55.5216 14.1397 55.0966 13.1137 54.3401 12.3572C53.5837 11.6008 52.5577 11.1758 51.4879 11.1758Z" fill="#0CBF31"/>
<path d="M60.723 15.9766C60.0423 15.9762 59.3768 16.1776 58.8106 16.5555C58.2445 16.9334 57.8031 17.4707 57.5423 18.0995C57.2815 18.7282 57.2131 19.4202 57.3457 20.0879C57.4782 20.7555 57.8058 21.3689 58.287 21.8503C58.7681 22.3318 59.3813 22.6598 60.0489 22.7927C60.7165 22.9256 61.4085 22.8576 62.0374 22.5972C62.6663 22.3368 63.2039 21.8958 63.5821 21.3298C63.9603 20.7639 64.1622 20.0985 64.1622 19.4178C64.1622 18.5055 63.7999 17.6305 63.155 16.9852C62.5101 16.3399 61.6353 15.9771 60.723 15.9766Z" fill="#07BD24"/>
<path d="M68.0235 23.6523C67.5072 23.6523 67.0025 23.8054 66.5733 24.0923C66.144 24.3791 65.8094 24.7868 65.6118 25.2638C65.4142 25.7408 65.3625 26.2657 65.4632 26.772C65.564 27.2784 65.8126 27.7435 66.1777 28.1086C66.5427 28.4737 67.0079 28.7223 67.5142 28.823C68.0206 28.9238 68.5455 28.8721 69.0225 28.6745C69.4995 28.4769 69.9072 28.1423 70.194 27.713C70.4809 27.2838 70.6339 26.7791 70.6339 26.2628C70.6339 25.5704 70.3589 24.9065 69.8694 24.4169C69.3798 23.9274 68.7158 23.6523 68.0235 23.6523Z" fill="#00BA15"/>
<path d="M77.3567 65.4473C76.6999 65.4473 76.0578 65.642 75.5116 66.007C74.9655 66.3719 74.5398 66.8906 74.2885 67.4974C74.0371 68.1043 73.9713 68.772 74.0995 69.4163C74.2276 70.0605 74.5439 70.6522 75.0084 71.1167C75.4728 71.5812 76.0646 71.8975 76.7088 72.0256C77.353 72.1537 78.0208 72.088 78.6276 71.8366C79.2345 71.5852 79.7531 71.1596 80.1181 70.6134C80.483 70.0673 80.6778 69.4252 80.6778 68.7683C80.6778 67.8875 80.3279 67.0428 79.705 66.42C79.0822 65.7972 78.2375 65.4473 77.3567 65.4473Z" fill="#00CFC4"/>
<path d="M70.4762 72.0996C69.6305 72.0996 68.8038 72.3504 68.1006 72.8203C67.3974 73.2901 66.8493 73.9579 66.5257 74.7393C66.202 75.5206 66.1174 76.3804 66.2824 77.2099C66.4474 78.0393 66.8546 78.8012 67.4526 79.3993C68.0506 79.9973 68.8125 80.4045 69.642 80.5695C70.4715 80.7345 71.3313 80.6499 72.1126 80.3262C72.894 80.0026 73.5618 79.4545 74.0316 78.7513C74.5015 78.0481 74.7523 77.2214 74.7523 76.3756C74.7523 75.2416 74.3018 74.1539 73.4999 73.352C72.698 72.5501 71.6103 72.0996 70.4762 72.0996Z" fill="#00DBC3"/>
<path d="M61.9183 77.5664C61.0267 77.5664 60.1551 77.8308 59.4137 78.3262C58.6724 78.8215 58.0945 79.5256 57.7533 80.3494C57.4121 81.1731 57.3228 82.0796 57.4968 82.9541C57.6707 83.8286 58.1001 84.6319 58.7306 85.2623C59.3611 85.8928 60.1643 86.3222 61.0388 86.4961C61.9133 86.6701 62.8198 86.5808 63.6435 86.2396C64.4673 85.8984 65.1714 85.3206 65.6668 84.5792C66.1621 83.8378 66.4265 82.9662 66.4265 82.0746C66.4265 80.8789 65.9516 79.7323 65.1061 78.8868C64.2607 78.0414 63.114 77.5664 61.9183 77.5664Z" fill="#00E0BC"/>
<path d="M52.0387 81.2461C51.193 81.2461 50.3663 81.4969 49.6631 81.9667C48.9599 82.4366 48.4118 83.1044 48.0882 83.8858C47.7645 84.6671 47.6799 85.5269 47.8449 86.3564C48.0099 87.1858 48.4171 87.9477 49.0151 88.5457C49.6131 89.1438 50.3751 89.551 51.2045 89.716C52.034 89.881 52.8938 89.7963 53.6751 89.4727C54.4565 89.1491 55.1243 88.601 55.5941 87.8978C56.064 87.1946 56.3148 86.3678 56.3148 85.5221C56.3148 84.388 55.8643 83.3004 55.0624 82.4985C54.2605 81.6966 53.1728 81.2461 52.0387 81.2461Z" fill="#00DB94"/>
<path d="M41.2452 82.5449C40.4945 82.5449 39.7607 82.7675 39.1365 83.1846C38.5124 83.6016 38.0259 84.1944 37.7386 84.888C37.4514 85.5815 37.3762 86.3446 37.5226 87.0809C37.6691 87.8171 38.0306 88.4935 38.5614 89.0243C39.0922 89.5551 39.7685 89.9165 40.5048 90.063C41.241 90.2095 42.0041 90.1343 42.6977 89.847C43.3912 89.5598 43.984 89.0733 44.4011 88.4491C44.8181 87.8249 45.0407 87.0911 45.0407 86.3404C45.0407 85.3338 44.6408 84.3684 43.929 83.6566C43.2172 82.9448 42.2518 82.5449 41.2452 82.5449Z" fill="#01D97B"/>
<path d="M30.8035 80.9629C30.1229 80.9629 29.4576 81.1647 28.8917 81.5428C28.3258 81.9209 27.8847 82.4584 27.6242 83.0872C27.3638 83.716 27.2956 84.4079 27.4284 85.0754C27.5612 85.743 27.889 86.3561 28.3702 86.8374C28.8515 87.3186 29.4646 87.6464 30.1322 87.7792C30.7997 87.9119 31.4916 87.8438 32.1204 87.5833C32.7492 87.3229 33.2866 86.8818 33.6648 86.3159C34.0429 85.75 34.2447 85.0847 34.2447 84.4041C34.2447 83.4914 33.8822 82.6161 33.2368 81.9708C32.5915 81.3254 31.7162 80.9629 30.8035 80.9629Z" fill="#27DD4C"/>
<path d="M21.453 76.8828C20.8336 76.8828 20.2281 77.0665 19.7131 77.4106C19.1981 77.7547 18.7967 78.2438 18.5597 78.8161C18.3226 79.3883 18.2606 80.018 18.3815 80.6255C18.5023 81.233 18.8006 81.791 19.2385 82.229C19.6765 82.6669 20.2345 82.9652 20.842 83.086C21.4495 83.2069 22.0792 83.1448 22.6514 82.9078C23.2237 82.6708 23.7128 82.2694 24.0569 81.7544C24.401 81.2394 24.5847 80.6339 24.5847 80.0145C24.5847 79.1839 24.2547 78.3874 23.6674 77.8001C23.0801 77.2128 22.2836 76.8828 21.453 76.8828Z" fill="#6EE61B"/>
<path d="M13.5586 70.6523C12.9907 70.6523 12.4356 70.8207 11.9635 71.1362C11.4913 71.4517 11.1234 71.9001 10.906 72.4247C10.6887 72.9493 10.6319 73.5266 10.7427 74.0835C10.8534 74.6404 11.1269 75.152 11.5284 75.5535C11.9299 75.9551 12.4415 76.2285 12.9984 76.3393C13.5554 76.4501 14.1327 76.3932 14.6573 76.1759C15.1819 75.9586 15.6303 75.5906 15.9458 75.1185C16.2612 74.6463 16.4296 74.0913 16.4296 73.5234C16.4296 72.762 16.1271 72.0317 15.5887 71.4933C15.0503 70.9548 14.32 70.6523 13.5586 70.6523Z" fill="#94EB03"/>
<path d="M7.47474 62.8203C6.98422 62.8203 6.50472 62.9658 6.09686 63.2383C5.68901 63.5108 5.37113 63.8981 5.18342 64.3513C4.9957 64.8045 4.94659 65.3032 5.04228 65.7843C5.13798 66.2654 5.37419 66.7073 5.72104 67.0541C6.06789 67.401 6.5098 67.6372 6.99089 67.7329C7.47199 67.8286 7.97065 67.7795 8.42383 67.5918C8.87702 67.404 9.26436 67.0861 9.53687 66.6783C9.80939 66.2704 9.95485 65.7909 9.95485 65.3004C9.95485 64.6427 9.69355 64.0118 9.22844 63.5467C8.76333 63.0816 8.1325 62.8203 7.47474 62.8203Z" fill="#92E905"/>
<path d="M3.56119 53.4668C3.12262 53.4668 2.6939 53.5969 2.32925 53.8405C1.96459 54.0842 1.68038 54.4305 1.51254 54.8357C1.34471 55.2408 1.3008 55.6867 1.38636 56.1168C1.47192 56.547 1.68311 56.9421 1.99322 57.2522C2.30334 57.5623 2.69845 57.7735 3.12859 57.8591C3.55873 57.9446 4.00458 57.9007 4.40976 57.7329C4.81495 57.5651 5.16126 57.2808 5.40492 56.9162C5.64857 56.5515 5.77863 56.1228 5.77863 55.6842C5.77863 55.0961 5.545 54.5321 5.12915 54.1163C4.7133 53.7004 4.14929 53.4668 3.56119 53.4668Z" fill="#74E019"/>
<path d="M2.17599 42.9785C1.76319 42.9785 1.35967 43.1009 1.01645 43.3303C0.673221 43.5596 0.40571 43.8856 0.247741 44.2669C0.0897715 44.6483 0.0484396 45.068 0.128972 45.4728C0.209504 45.8777 0.408282 46.2496 0.700171 46.5415C0.99206 46.8333 1.36395 47.0321 1.76881 47.1126C2.17367 47.1932 2.59332 47.1519 2.97469 46.9939C3.35607 46.8359 3.68203 46.5684 3.91136 46.2252C4.1407 45.882 4.26311 45.4784 4.26311 45.0656C4.26311 44.5121 4.04322 43.9812 3.6518 43.5898C3.26039 43.1984 2.72953 42.9785 2.17599 42.9785Z" fill="#5FDA27"/>
<path d="M3.56119 32.2266C3.12262 32.2266 2.6939 32.3566 2.32925 32.6003C1.96459 32.8439 1.68038 33.1902 1.51254 33.5954C1.34471 34.0006 1.3008 34.4465 1.38636 34.8766C1.47192 35.3067 1.68311 35.7019 1.99322 36.012C2.30334 36.3221 2.69845 36.5333 3.12859 36.6188C3.55873 36.7044 4.00458 36.6605 4.40976 36.4926C4.81495 36.3248 5.16126 36.0406 5.40492 35.6759C5.64857 35.3113 5.77863 34.8826 5.77863 34.444C5.77863 33.8559 5.545 33.2919 5.12915 32.876C4.7133 32.4602 4.14929 32.2266 3.56119 32.2266Z" fill="#50D633"/>
<path d="M7.47474 22.3574C6.98422 22.3574 6.50472 22.5029 6.09686 22.7754C5.68901 23.0479 5.37113 23.4352 5.18342 23.8884C4.9957 24.3416 4.94659 24.8403 5.04228 25.3214C5.13798 25.8025 5.37419 26.2444 5.72104 26.5912C6.06789 26.9381 6.5098 27.1743 6.99089 27.27C7.47199 27.3657 7.97065 27.3166 8.42383 27.1289C8.87702 26.9411 9.26436 26.6233 9.53687 26.2154C9.80939 25.8076 9.95485 25.328 9.95485 24.8375C9.95485 24.1798 9.69355 23.5489 9.22844 23.0838C8.76333 22.6187 8.1325 22.3574 7.47474 22.3574Z" fill="#37CF45"/>
<path d="M13.5586 13.748C12.9907 13.748 12.4356 13.9164 11.9635 14.2319C11.4913 14.5474 11.1234 14.9958 10.906 15.5204C10.6887 16.045 10.6319 16.6223 10.7427 17.1792C10.8534 17.7362 11.1269 18.2477 11.5284 18.6493C11.9299 19.0508 12.4415 19.3242 12.9984 19.435C13.5554 19.5458 14.1327 19.4889 14.6573 19.2716C15.1819 19.0543 15.6303 18.6863 15.9458 18.2142C16.2612 17.742 16.4296 17.187 16.4296 16.6191C16.4296 16.2421 16.3554 15.8687 16.2111 15.5204C16.0668 15.1721 15.8553 14.8556 15.5887 14.589C15.3221 14.3224 15.0056 14.1109 14.6573 13.9666C14.3089 13.8223 13.9356 13.748 13.5586 13.748Z" fill="#20C851"/>
<path d="M21.453 6.99023C20.8336 6.99023 20.2281 7.1739 19.7131 7.51802C19.1981 7.86213 18.7967 8.35124 18.5597 8.92348C18.3226 9.49572 18.2606 10.1254 18.3815 10.7329C18.5023 11.3404 18.8006 11.8984 19.2385 12.3364C19.6765 12.7744 20.2345 13.0726 20.842 13.1935C21.4495 13.3143 22.0792 13.2523 22.6514 13.0152C23.2237 12.7782 23.7128 12.3768 24.0569 11.8618C24.401 11.3468 24.5847 10.7413 24.5847 10.1219C24.5847 9.29135 24.2547 8.49479 23.6674 7.90749C23.0801 7.32018 22.2836 6.99023 21.453 6.99023Z" fill="#0FC138"/>
<path d="M30.8035 2.29492C30.1229 2.29492 29.4576 2.49674 28.8917 2.87487C28.3258 3.25299 27.8847 3.79044 27.6242 4.41923C27.3638 5.04803 27.2956 5.73994 27.4284 6.40747C27.5612 7.075 27.889 7.68816 28.3702 8.16942C28.8515 8.65068 29.4646 8.97843 30.1322 9.1112C30.7997 9.24398 31.4916 9.17584 32.1204 8.91538C32.7492 8.65492 33.2866 8.21386 33.6648 7.64795C34.0429 7.08205 34.2447 6.41673 34.2447 5.73612C34.2447 4.82346 33.8822 3.94818 33.2368 3.30283C32.5915 2.65748 31.7162 2.29492 30.8035 2.29492Z" fill="#10C143"/>
<path d="M41.2452 0C40.4945 0 39.7607 0.222602 39.1365 0.639658C38.5124 1.05671 38.0259 1.64949 37.7386 2.34303C37.4514 3.03656 37.3762 3.79971 37.5226 4.53597C37.6691 5.27222 38.0306 5.94852 38.5614 6.47933C39.0922 7.01014 39.7685 7.37163 40.5048 7.51808C41.241 7.66453 42.0041 7.58936 42.6977 7.30209C43.3912 7.01482 43.984 6.52834 44.4011 5.90417C44.8181 5.28 45.0407 4.54618 45.0407 3.7955C45.0407 2.78887 44.6408 1.82347 43.929 1.11168C43.2172 0.399882 42.2518 0 41.2452 0Z" fill="#0FC139"/>
<path d="M52.0387 0.349609C51.193 0.349609 50.3663 0.600395 49.6631 1.07025C48.9599 1.54011 48.4118 2.20794 48.0882 2.98929C47.7645 3.77063 47.6799 4.6304 47.8449 5.45988C48.0099 6.28935 48.4171 7.05127 49.0151 7.64928C49.6131 8.2473 50.3751 8.65455 51.2045 8.81954C52.034 8.98454 52.8938 8.89986 53.6751 8.57621C54.4565 8.25257 55.1243 7.7045 55.5941 7.00131C56.064 6.29811 56.3148 5.47138 56.3148 4.62566C56.3148 3.49158 55.8643 2.40395 55.0624 1.60204C54.2605 0.80012 53.1728 0.349609 52.0387 0.349609Z" fill="#0FC138"/>
<path d="M61.9183 3.55469C61.0267 3.55469 60.1551 3.81909 59.4137 4.31445C58.6724 4.80982 58.0945 5.5139 57.7533 6.33766C57.4121 7.16142 57.3228 8.06787 57.4968 8.94237C57.6707 9.81687 58.1001 10.6201 58.7306 11.2506C59.3611 11.8811 60.1643 12.3105 61.0388 12.4844C61.9133 12.6584 62.8198 12.5691 63.6435 12.2279C64.4673 11.8867 65.1714 11.3088 65.6668 10.5675C66.1621 9.82611 66.4265 8.9545 66.4265 8.06287C66.4265 6.86722 65.9516 5.72055 65.1061 4.8751C64.2607 4.02966 63.114 3.55469 61.9183 3.55469Z" fill="#08BE28"/>
<path d="M70.4762 9.49609C69.6305 9.49609 68.8038 9.74688 68.1006 10.2167C67.3974 10.6866 66.8493 11.3544 66.5257 12.1358C66.202 12.9171 66.1174 13.7769 66.2824 14.6064C66.4474 15.4358 66.8546 16.1978 67.4526 16.7958C68.0506 17.3938 68.8125 17.801 69.642 17.966C70.4715 18.131 71.3313 18.0463 72.1126 17.7227C72.894 17.3991 73.5618 16.851 74.0316 16.1478C74.5015 15.4446 74.7523 14.6179 74.7523 13.7721C74.7523 12.6381 74.3018 11.5504 73.4999 10.7485C72.698 9.94661 71.6103 9.49609 70.4762 9.49609Z" fill="#02BB19"/>
<path d="M77.3567 18.0469C76.6999 18.0469 76.0578 18.2417 75.5116 18.6066C74.9655 18.9715 74.5398 19.4902 74.2885 20.097C74.0371 20.7039 73.9713 21.3716 74.0995 22.0158C74.2276 22.6601 74.5439 23.2518 75.0084 23.7163C75.4728 24.1807 76.0646 24.4971 76.7088 24.6252C77.353 24.7533 78.0208 24.6876 78.6276 24.4362C79.2345 24.1848 79.7531 23.7592 80.1181 23.213C80.483 22.6669 80.6778 22.0248 80.6778 21.3679C80.6778 20.4871 80.3279 19.6424 79.705 19.0196C79.0822 18.3968 78.2375 18.0469 77.3567 18.0469Z" fill="#00BA14"/>
</g>
<defs>
<clipPath id="clip0_1_66">
<rect width="439.822" height="90.1371" fill="white" transform="translate(0.0888672)"/>
</clipPath>
</defs>
</svg>
