<svg width="196" height="50" viewBox="0 0 196 50" fill="none" xmlns="http://www.w3.org/2000/svg">
<g clip-path="url(#clip0_25_208)">
<path fill-rule="evenodd" clip-rule="evenodd" d="M41.5955 30.8308C39.9581 29.1969 39.1272 27.146 39.1272 24.7387C39.1272 22.3302 39.9581 20.2805 41.5955 18.6466C43.2341 17.0102 45.3254 16.1823 47.8108 16.1823C49.3067 16.1823 50.7074 16.5387 51.9751 17.2429C53.244 17.9472 54.2482 18.9169 54.9571 20.1229L55.023 20.2345L52.4571 21.7133L52.3936 21.5957C51.9714 20.8163 51.3467 20.1896 50.539 19.7314C49.7288 19.272 48.8113 19.0405 47.8108 19.0405C46.11 19.0405 44.7141 19.5811 43.6624 20.649C42.6094 21.7181 42.075 23.0939 42.075 24.7387C42.075 26.3823 42.6094 27.7593 43.6624 28.8272C44.7141 29.8951 46.11 30.4369 47.8108 30.4369C48.8125 30.4369 49.7337 30.2042 50.5512 29.746C51.3663 29.2878 51.9861 28.6611 52.3924 27.8829L52.4558 27.7642L55.023 29.2175L54.9583 29.3302C54.2641 30.5363 53.2684 31.5096 51.9995 32.2223C50.7318 32.9339 49.3225 33.2951 47.8108 33.2951C45.3242 33.2951 43.2341 32.466 41.5955 30.8308Z" fill="#214C44"/>
<path fill-rule="evenodd" clip-rule="evenodd" d="M56.0585 32.9928H58.8428V16.4401H56.0585V32.9928Z" fill="#214C44"/>
<path fill-rule="evenodd" clip-rule="evenodd" d="M76.9473 32.9934L72.2888 21.1267H75.3269L78.509 29.7291L81.6655 21.1267H84.7048L80.0464 32.9934H76.9473Z" fill="#214C44"/>
<path fill-rule="evenodd" clip-rule="evenodd" d="M97.913 32.9932V21.1265H100.697V22.6744C101.399 21.5084 102.564 20.9181 104.166 20.9181H104.295V23.9011L104.158 23.8926C104.058 23.8853 103.959 23.8829 103.861 23.8829C103.053 23.8829 102.332 24.1084 101.719 24.552C101.04 25.0429 100.697 25.8708 100.697 27.0138V32.9932H97.913Z" fill="#214C44"/>
<path fill-rule="evenodd" clip-rule="evenodd" d="M114.558 33.2951C112.071 33.2951 109.981 32.466 108.343 30.8308C106.705 29.1969 105.874 27.146 105.874 24.7387C105.874 22.3302 106.705 20.2805 108.343 18.6466C109.981 17.0102 112.072 16.1823 114.558 16.1823C116.054 16.1823 117.454 16.5387 118.722 17.2429C119.991 17.9472 120.995 18.9169 121.704 20.1229L121.77 20.2345L119.204 21.7133L119.141 21.5957C118.719 20.8163 118.094 20.1896 117.286 19.7314C116.476 19.272 115.558 19.0405 114.558 19.0405C112.857 19.0405 111.461 19.5811 110.409 20.649C109.357 21.7181 108.822 23.0939 108.822 24.7387C108.822 26.3823 109.357 27.7593 110.409 28.8272C111.461 29.8951 112.857 30.4369 114.558 30.4369C115.56 30.4369 116.481 30.2042 117.298 29.746C118.113 29.2878 118.733 28.6611 119.139 27.8829L119.203 27.7642L121.769 29.2175L121.704 29.3302C121.01 30.5363 120.016 31.5096 118.747 32.2223C117.479 32.9339 116.07 33.2951 114.558 33.2951Z" fill="#214C44"/>
<path fill-rule="evenodd" clip-rule="evenodd" d="M128.778 23.5209C127.79 23.5209 126.948 23.859 126.276 24.5281C125.603 25.196 125.263 26.0481 125.263 27.0603C125.263 28.0724 125.603 28.9245 126.276 29.5924C126.948 30.2603 127.79 30.5996 128.778 30.5996C129.766 30.5996 130.608 30.2603 131.281 29.5924C131.953 28.9245 132.293 28.0724 132.293 27.0603C132.293 26.0481 131.953 25.196 131.281 24.5281C130.608 23.859 129.766 23.5209 128.778 23.5209ZM128.778 33.2954C127.037 33.2954 125.536 32.6893 124.316 31.493C123.097 30.2978 122.479 28.8069 122.479 27.0603C122.479 25.3136 123.097 23.8227 124.316 22.6263C125.536 21.4312 127.037 20.8251 128.778 20.8251C130.535 20.8251 132.04 21.4312 133.251 22.6275C134.463 23.8239 135.078 25.3148 135.078 27.0603C135.078 28.8057 134.463 30.2978 133.251 31.493C132.041 32.6893 130.535 33.2954 128.778 33.2954Z" fill="#214C44"/>
<path fill-rule="evenodd" clip-rule="evenodd" d="M144.593 32.9934V25.9922C144.593 25.1655 144.37 24.5243 143.931 24.0867C143.49 23.6503 142.877 23.4285 142.105 23.4285C141.259 23.4285 140.566 23.6928 140.048 24.214C139.53 24.7352 139.267 25.5522 139.267 26.6419V32.9934H136.484V21.1267H139.267V22.3364C140.059 21.3328 141.232 20.8249 142.761 20.8249C144.13 20.8249 145.255 21.2685 146.103 22.1413C146.948 23.014 147.378 24.2237 147.378 25.7364V32.9934H144.593Z" fill="#214C44"/>
<path fill-rule="evenodd" clip-rule="evenodd" d="M157.173 32.9934V25.9922C157.173 25.1655 156.95 24.5243 156.509 24.0867C156.07 23.6503 155.456 23.4285 154.685 23.4285C153.837 23.4285 153.145 23.6928 152.628 24.214C152.11 24.7352 151.847 25.5522 151.847 26.6419V32.9934H149.063V21.1267H151.847V22.3364C152.638 21.3328 153.812 20.8249 155.34 20.8249C156.709 20.8249 157.834 21.2685 158.681 22.1413C159.528 23.014 159.957 24.2237 159.957 25.7364V32.9934H157.173Z" fill="#214C44"/>
<path fill-rule="evenodd" clip-rule="evenodd" d="M180.626 33.2951C178.837 33.2951 177.324 32.689 176.128 31.4927C174.933 30.2975 174.326 28.8054 174.326 27.0599C174.326 25.2987 174.933 23.8042 176.128 22.6163C177.324 21.4284 178.837 20.826 180.626 20.826C181.781 20.826 182.849 21.1048 183.799 21.6551C184.752 22.2078 185.477 22.9593 185.953 23.8902L186.009 23.9993L183.606 25.3848L183.547 25.2575C183.294 24.7266 182.906 24.3048 182.394 24.0017C181.879 23.6975 181.276 23.5436 180.602 23.5436C179.614 23.5436 178.777 23.883 178.112 24.5508C177.447 25.2187 177.11 26.0636 177.11 27.0599C177.11 28.0563 177.447 28.9011 178.112 29.5702C178.777 30.2381 179.614 30.5763 180.602 30.5763C181.261 30.5763 181.864 30.4187 182.394 30.1072C182.923 29.7957 183.328 29.3751 183.595 28.8587L183.656 28.7387L186.058 30.0975L185.998 30.209C185.49 31.1545 184.75 31.9133 183.799 32.4648C182.849 33.0163 181.781 33.2951 180.626 33.2951Z" fill="#214C44"/>
<path fill-rule="evenodd" clip-rule="evenodd" d="M192.738 33.0946C191.573 33.0946 190.67 32.8849 190.055 32.4716C189.179 31.8849 188.735 30.7976 188.735 29.2425V23.8001H186.585V21.1273H188.735V18.6522L191.519 17.8328V21.1273H194.417V23.8001H191.519V29.2425C191.519 29.6837 191.616 30.0001 191.806 30.1831C192 30.3686 192.299 30.474 192.694 30.4946C192.876 30.5043 193.077 30.5104 193.298 30.5104C193.591 30.5104 193.922 30.5007 194.28 30.4837L194.417 30.4764V32.9795L194.302 32.9928C193.737 33.0607 193.212 33.0946 192.738 33.0946Z" fill="#214C44"/>
<path fill-rule="evenodd" clip-rule="evenodd" d="M64.1178 24.4116C64.7742 23.7134 65.5966 23.3582 66.5593 23.3582C67.5244 23.3582 68.3455 23.7134 69.002 24.4116C69.1069 24.5243 69.2008 24.6419 69.2899 24.7643L63.1319 26.991C63.1466 25.9631 63.476 25.0952 64.1178 24.4116ZM69.7231 29.3522C69.6193 29.4758 69.5083 29.5946 69.3851 29.7085C68.6262 30.4079 67.6745 30.7619 66.5593 30.7619C65.5966 30.7619 64.7742 30.4079 64.1178 29.7085C64.0043 29.5873 63.903 29.4576 63.8091 29.3255L69.9903 27.0903L72.6404 26.1316C72.4622 24.7825 71.8924 23.6043 70.9249 22.6273C69.7426 21.431 68.2735 20.8249 66.5593 20.8249C64.8609 20.8249 63.3955 21.431 62.2059 22.6273C61.015 23.8225 60.4123 25.3146 60.4123 27.06C60.4123 28.8067 61.015 30.2976 62.2059 31.494C63.3955 32.6891 64.8609 33.2952 66.5593 33.2952C68.4126 33.2952 69.9988 32.6891 71.2763 31.494C71.5459 31.2394 71.7863 30.9728 71.9998 30.6928L71.8632 30.5934L69.7231 29.3522Z" fill="#214C44"/>
<path fill-rule="evenodd" clip-rule="evenodd" d="M88.0224 24.4116C88.6788 23.7134 89.5012 23.3582 90.4638 23.3582C91.429 23.3582 92.2501 23.7134 92.9065 24.4116C93.0115 24.5243 93.1054 24.6419 93.1945 24.7643L87.0365 26.991C87.0499 25.9631 87.3806 25.0952 88.0224 24.4116ZM93.6276 29.3522C93.5239 29.4758 93.4129 29.5946 93.2897 29.7085C92.5307 30.4079 91.579 30.7619 90.4638 30.7619C89.5012 30.7619 88.6788 30.4079 88.0224 29.7085C87.9089 29.5873 87.8076 29.4576 87.7137 29.3255L93.8936 27.0903L96.5449 26.1316C96.3668 24.7825 95.797 23.6043 94.8295 22.6273C93.6471 21.431 92.1781 20.8249 90.4638 20.8249C88.7654 20.8249 87.3001 21.431 86.1104 22.6273C84.9196 23.8225 84.3168 25.3146 84.3168 27.06C84.3168 28.8067 84.9196 30.2976 86.1104 31.494C87.3001 32.6891 88.7654 33.2952 90.4638 33.2952C92.3172 33.2952 93.9034 32.6891 95.1808 31.494C95.4505 31.2394 95.6909 30.9728 95.9044 30.6928L95.7677 30.5934L93.6276 29.3522Z" fill="#214C44"/>
<path fill-rule="evenodd" clip-rule="evenodd" d="M164.919 24.4116C165.576 23.7134 166.398 23.3582 167.361 23.3582C168.326 23.3582 169.147 23.7134 169.804 24.4116C169.909 24.5243 170.003 24.6419 170.092 24.7643L163.934 26.991C163.947 25.9631 164.278 25.0952 164.919 24.4116ZM170.525 29.3522C170.421 29.4758 170.31 29.5946 170.187 29.7085C169.428 30.4079 168.476 30.7619 167.361 30.7619C166.398 30.7619 165.576 30.4079 164.919 29.7085C164.806 29.5873 164.705 29.4576 164.611 29.3255L170.791 27.0903L173.442 26.1316C173.264 24.7825 172.693 23.6043 171.727 22.6273C170.544 21.431 169.075 20.8249 167.361 20.8249C165.663 20.8249 164.197 21.431 163.008 22.6273C161.817 23.8225 161.214 25.3146 161.214 27.06C161.214 28.8067 161.817 30.2976 163.008 31.494C164.197 32.6891 165.663 33.2952 167.361 33.2952C169.214 33.2952 170.8 32.6891 172.078 31.494C172.348 31.2394 172.588 30.9728 172.801 30.6928L172.665 30.5934L170.525 29.3522Z" fill="#214C44"/>
<path fill-rule="evenodd" clip-rule="evenodd" d="M27.8932 18.936C27.8932 19.4391 27.482 19.8476 26.9744 19.8476C26.4681 19.8476 26.0569 19.4391 26.0569 18.936C26.0569 18.4318 26.4681 18.0233 26.9744 18.0233C27.482 18.0233 27.8932 18.4318 27.8932 18.936Z" fill="#01BB17"/>
<path fill-rule="evenodd" clip-rule="evenodd" d="M23.5179 15.2846C22.8847 15.2846 22.3698 15.7949 22.3698 16.4252C22.3698 17.0543 22.8847 17.5646 23.5179 17.5646C24.1524 17.5646 24.6661 17.0543 24.6661 16.4252C24.6661 15.7949 24.1524 15.2846 23.5179 15.2846Z" fill="#0CC030"/>
<path fill-rule="evenodd" clip-rule="evenodd" d="M19.1079 14.4594C18.3587 14.4594 17.7511 15.0619 17.7511 15.8073C17.7511 16.5516 18.3587 17.1552 19.1079 17.1552C19.8571 17.1552 20.4647 16.5516 20.4647 15.8073C20.4647 15.0619 19.8571 14.4594 19.1079 14.4594Z" fill="#0FC238"/>
<path fill-rule="evenodd" clip-rule="evenodd" d="M15.0333 15.7001C14.1401 15.7001 13.4166 16.4201 13.4166 17.3073C13.4166 18.1946 14.1401 18.9134 15.0333 18.9134C15.9264 18.9134 16.6512 18.1946 16.6512 17.3073C16.6512 16.4201 15.9264 15.7001 15.0333 15.7001Z" fill="#17C551"/>
<path fill-rule="evenodd" clip-rule="evenodd" d="M12.1772 18.6915C11.1974 18.6915 10.4031 19.4806 10.4031 20.454C10.4031 21.4273 11.1974 22.2152 12.1772 22.2152C13.157 22.2152 13.9513 21.4273 13.9513 20.454C13.9513 19.4806 13.157 18.6915 12.1772 18.6915Z" fill="#3DD240"/>
<path fill-rule="evenodd" clip-rule="evenodd" d="M11.1007 22.8245C10.0636 22.8245 9.22292 23.6596 9.22292 24.6899C9.22292 25.7203 10.0636 26.5554 11.1007 26.5554C12.1378 26.5554 12.9785 25.7203 12.9785 24.6899C12.9785 23.6596 12.1378 22.8245 11.1007 22.8245Z" fill="#60DC26"/>
<path fill-rule="evenodd" clip-rule="evenodd" d="M12.1772 27.165C11.1974 27.165 10.4031 27.9541 10.4031 28.9275C10.4031 29.9008 11.1974 30.6887 12.1772 30.6887C13.157 30.6887 13.9513 29.9008 13.9513 28.9275C13.9513 27.9541 13.157 27.165 12.1772 27.165Z" fill="#80E511"/>
<path fill-rule="evenodd" clip-rule="evenodd" d="M15.0333 30.4674C14.1401 30.4674 13.4166 31.1862 13.4166 32.0735C13.4166 32.9608 14.1401 33.6808 15.0333 33.6808C15.9264 33.6808 16.6512 32.9608 16.6512 32.0735C16.6512 31.1862 15.9264 30.4674 15.0333 30.4674Z" fill="#68E61E"/>
<path fill-rule="evenodd" clip-rule="evenodd" d="M19.1079 32.2263C18.3587 32.2263 17.7511 32.8288 17.7511 33.5742C17.7511 34.3185 18.3587 34.9221 19.1079 34.9221C19.8571 34.9221 20.4647 34.3185 20.4647 33.5742C20.4647 32.8288 19.8571 32.2263 19.1079 32.2263Z" fill="#06DA6E"/>
<path fill-rule="evenodd" clip-rule="evenodd" d="M23.5179 31.8161C22.8834 31.8161 22.3698 32.3264 22.3698 32.9567C22.3698 33.5858 22.8834 34.0961 23.5179 34.0961C24.1524 34.0961 24.6661 33.5858 24.6661 32.9567C24.6661 32.3264 24.1524 31.8161 23.5179 31.8161Z" fill="#00E0AE"/>
<path fill-rule="evenodd" clip-rule="evenodd" d="M26.975 29.5328C26.4674 29.5328 26.0563 29.9413 26.0563 30.4455C26.0563 30.9485 26.4674 31.357 26.975 31.357C27.4826 31.357 27.8938 30.9485 27.8938 30.4455C27.8938 29.9413 27.4826 29.5328 26.975 29.5328Z" fill="#00D3C5"/>
<path fill-rule="evenodd" clip-rule="evenodd" d="M30.8769 31.7676C30.2424 31.7676 29.7287 32.2779 29.7287 32.9082C29.7287 33.5373 30.2424 34.0476 30.8769 34.0476C31.5101 34.0476 32.025 33.5373 32.025 32.9082C32.025 32.2779 31.5101 31.7676 30.8769 31.7676Z" fill="#00D1C5"/>
<path fill-rule="evenodd" clip-rule="evenodd" d="M27.6659 34.3986C26.8301 34.3986 26.1529 35.0713 26.1529 35.9016C26.1529 36.7319 26.8301 37.4046 27.6659 37.4046C28.5016 37.4046 29.1788 36.7319 29.1788 35.9016C29.1788 35.0713 28.5016 34.3986 27.6659 34.3986Z" fill="#00E0C1"/>
<path fill-rule="evenodd" clip-rule="evenodd" d="M23.6043 35.9722C22.6245 35.9722 21.8302 36.7613 21.8302 37.7346C21.8302 38.708 22.6245 39.4958 23.6043 39.4958C24.5841 39.4958 25.3784 38.708 25.3784 37.7346C25.3784 36.7613 24.5841 35.9722 23.6043 35.9722Z" fill="#00DEA2"/>
<path fill-rule="evenodd" clip-rule="evenodd" d="M18.9825 36.174C17.888 36.174 16.9998 37.0565 16.9998 38.1437C16.9998 39.231 17.888 40.1134 18.9825 40.1134C20.0769 40.1134 20.9652 39.231 20.9652 38.1437C20.9652 37.0565 20.0769 36.174 18.9825 36.174Z" fill="#0EDB65"/>
<path fill-rule="evenodd" clip-rule="evenodd" d="M14.5923 35.1691C13.5552 35.1691 12.7146 36.0043 12.7146 37.0346C12.7146 38.0649 13.5552 38.9 14.5923 38.9C15.6294 38.9 16.4701 38.0649 16.4701 37.0346C16.4701 36.0043 15.6294 35.1691 14.5923 35.1691Z" fill="#5DE526"/>
<path fill-rule="evenodd" clip-rule="evenodd" d="M10.9078 32.8193C9.89875 32.8193 9.08126 33.6314 9.08126 34.6338C9.08126 35.635 9.89875 36.4472 10.9078 36.4472C11.9156 36.4472 12.7331 35.635 12.7331 34.6338C12.7331 33.6314 11.9156 32.8193 10.9078 32.8193Z" fill="#81E90F"/>
<path fill-rule="evenodd" clip-rule="evenodd" d="M8.19166 29.4802C7.23508 29.4802 6.4603 30.2499 6.4603 31.2002C6.4603 32.1517 7.23508 32.9214 8.19166 32.9214C9.14824 32.9214 9.92302 32.1517 9.92302 31.2002C9.92302 30.2499 9.14824 29.4802 8.19166 29.4802Z" fill="#8BE80A"/>
<path fill-rule="evenodd" clip-rule="evenodd" d="M6.70763 25.34C5.78521 25.34 5.03849 26.083 5.03849 26.9982C5.03849 27.9145 5.78521 28.6576 6.70763 28.6576C7.63004 28.6576 8.37676 27.9145 8.37676 26.9982C8.37676 26.083 7.63004 25.34 6.70763 25.34Z" fill="#6BDF1F"/>
<path fill-rule="evenodd" clip-rule="evenodd" d="M6.70763 20.7241C5.78521 20.7241 5.03849 21.4671 5.03849 22.3823C5.03849 23.2986 5.78521 24.0405 6.70763 24.0405C7.63004 24.0405 8.37676 23.2986 8.37676 22.3823C8.37676 21.4671 7.63004 20.7241 6.70763 20.7241Z" fill="#59DA2C"/>
<path fill-rule="evenodd" clip-rule="evenodd" d="M8.19167 16.4698C7.24119 16.4698 6.47007 17.2358 6.47007 18.1801C6.47007 19.1243 7.24119 19.8904 8.19167 19.8904C9.14215 19.8904 9.91326 19.1243 9.91326 18.1801C9.91326 17.2358 9.14215 16.4698 8.19167 16.4698Z" fill="#35D046"/>
<path fill-rule="evenodd" clip-rule="evenodd" d="M10.9075 12.9336C9.89972 12.9336 9.08224 13.7457 9.08224 14.7482C9.08224 15.7494 9.89972 16.5615 10.9075 16.5615C11.9166 16.5615 12.7341 15.7494 12.7341 14.7482C12.7341 13.7457 11.9166 12.9336 10.9075 12.9336Z" fill="#1AC753"/>
<path fill-rule="evenodd" clip-rule="evenodd" d="M14.5922 10.4805C13.5551 10.4805 12.7144 11.3157 12.7144 12.346C12.7144 13.3763 13.5551 14.2114 14.5922 14.2114C15.6293 14.2114 16.4712 13.3763 16.4712 12.346C16.4712 11.3157 15.6293 10.4805 14.5922 10.4805Z" fill="#12C44A"/>
<path fill-rule="evenodd" clip-rule="evenodd" d="M18.9825 9.26785C17.888 9.26785 16.9998 10.1491 16.9998 11.2376C16.9998 12.3248 17.888 13.2072 18.9825 13.2072C20.0769 13.2072 20.9652 12.3248 20.9652 11.2376C20.9652 10.1491 20.0769 9.26785 18.9825 9.26785Z" fill="#0FC238"/>
<path fill-rule="evenodd" clip-rule="evenodd" d="M23.6043 9.88455C22.6245 9.88455 21.8302 10.6736 21.8302 11.647C21.8302 12.6203 22.6245 13.4082 23.6043 13.4082C24.5841 13.4082 25.3784 12.6203 25.3784 11.647C25.3784 10.6736 24.5841 9.88455 23.6043 9.88455Z" fill="#0DC133"/>
<path fill-rule="evenodd" clip-rule="evenodd" d="M27.6659 11.976C26.8301 11.976 26.1529 12.6488 26.1529 13.4791C26.1529 14.3094 26.8301 14.9821 27.6659 14.9821C28.5016 14.9821 29.1788 14.3094 29.1788 13.4791C29.1788 12.6488 28.5016 11.976 27.6659 11.976Z" fill="#06BE23"/>
<path fill-rule="evenodd" clip-rule="evenodd" d="M30.8766 15.333C30.2434 15.333 29.7285 15.8433 29.7285 16.4736C29.7285 17.1027 30.2434 17.613 30.8766 17.613C31.5111 17.613 32.0248 17.1027 32.0248 16.4736C32.0248 15.8433 31.5111 15.333 30.8766 15.333Z" fill="#01BB17"/>
<path fill-rule="evenodd" clip-rule="evenodd" d="M34.9823 33.594C34.1758 33.594 33.5218 34.2437 33.5218 35.0449C33.5218 35.8461 34.1758 36.497 34.9823 36.497C35.7888 36.497 36.4428 35.8461 36.4428 35.0449C36.4428 34.2437 35.7888 33.594 34.9823 33.594Z" fill="#00CFC5"/>
<path fill-rule="evenodd" clip-rule="evenodd" d="M31.9568 36.5001C30.9197 36.5001 30.0778 37.3352 30.0778 38.3655C30.0778 39.3958 30.9197 40.231 31.9568 40.231C32.9939 40.231 33.8346 39.3958 33.8346 38.3655C33.8346 37.3352 32.9939 36.5001 31.9568 36.5001Z" fill="#00D9C4"/>
<path fill-rule="evenodd" clip-rule="evenodd" d="M28.1918 38.8884C27.0974 38.8884 26.2091 39.7708 26.2091 40.8581C26.2091 41.9453 27.0974 42.8278 28.1918 42.8278C29.2863 42.8278 30.1745 41.9453 30.1745 40.8581C30.1745 39.7708 29.2863 38.8884 28.1918 38.8884Z" fill="#00E1BC"/>
<path fill-rule="evenodd" clip-rule="evenodd" d="M23.8478 40.4969C22.8107 40.4969 21.9701 41.332 21.9701 42.3623C21.9701 43.3926 22.8107 44.2278 23.8478 44.2278C24.8849 44.2278 25.7256 43.3926 25.7256 42.3623C25.7256 41.332 24.8849 40.4969 23.8478 40.4969Z" fill="#00DD9B"/>
<path fill-rule="evenodd" clip-rule="evenodd" d="M19.1002 41.0638C18.179 41.0638 17.4311 41.8069 17.4311 42.722C17.4311 43.6384 18.179 44.3814 19.1002 44.3814C20.0226 44.3814 20.7693 43.6384 20.7693 42.722C20.7693 41.8069 20.0226 41.0638 19.1002 41.0638Z" fill="#03DA76"/>
<path fill-rule="evenodd" clip-rule="evenodd" d="M14.5075 40.3732C13.6717 40.3732 12.9946 41.0459 12.9946 41.8762C12.9946 42.7065 13.6717 43.3792 14.5075 43.3792C15.3433 43.3792 16.0205 42.7065 16.0205 41.8762C16.0205 41.0459 15.3433 40.3732 14.5075 40.3732Z" fill="#31E044"/>
<path fill-rule="evenodd" clip-rule="evenodd" d="M10.3963 38.589C9.63495 38.589 9.01879 39.2023 9.01879 39.9574C9.01879 40.7126 9.63495 41.3259 10.3963 41.3259C11.1577 41.3259 11.7738 40.7126 11.7738 39.9574C11.7738 39.2023 11.1577 38.589 10.3963 38.589Z" fill="#6DE71B"/>
<path fill-rule="evenodd" clip-rule="evenodd" d="M6.92396 35.8685C6.22726 35.8685 5.66113 36.4297 5.66113 37.1231C5.66113 37.8152 6.22726 38.3764 6.92396 38.3764C7.62065 38.3764 8.18679 37.8152 8.18679 37.1231C8.18679 36.4297 7.62065 35.8685 6.92396 35.8685Z" fill="#97EC02"/>
<path fill-rule="evenodd" clip-rule="evenodd" d="M4.24834 32.4456C3.64682 32.4456 3.15877 32.9305 3.15877 33.5281C3.15877 34.1269 3.64682 34.6117 4.24834 34.6117C4.85108 34.6117 5.33913 34.1269 5.33913 33.5281C5.33913 32.9305 4.85108 32.4456 4.24834 32.4456Z" fill="#91E907"/>
<path fill-rule="evenodd" clip-rule="evenodd" d="M2.5276 28.3633C1.9883 28.3633 1.5515 28.7972 1.5515 29.333C1.5515 29.8676 1.9883 30.3015 2.5276 30.3015C3.06689 30.3015 3.50248 29.8676 3.50248 29.333C3.50248 28.7972 3.06689 28.3633 2.5276 28.3633Z" fill="#75E219"/>
<path fill-rule="evenodd" clip-rule="evenodd" d="M1.91875 23.7784C1.4124 23.7784 1 24.1869 1 24.6911C1 25.1941 1.4124 25.6026 1.91875 25.6026C2.42633 25.6026 2.83751 25.1941 2.83751 24.6911C2.83751 24.1869 2.42633 23.7784 1.91875 23.7784Z" fill="#60DC26"/>
<path fill-rule="evenodd" clip-rule="evenodd" d="M2.5276 19.0793C1.9883 19.0793 1.5515 19.5133 1.5515 20.049C1.5515 20.5836 1.9883 21.0175 2.5276 21.0175C3.06689 21.0175 3.50248 20.5836 3.50248 20.049C3.50248 19.5133 3.06689 19.0793 2.5276 19.0793Z" fill="#51D732"/>
<path fill-rule="evenodd" clip-rule="evenodd" d="M4.24834 14.7689C3.64682 14.7689 3.15877 15.2537 3.15877 15.8513C3.15877 16.4501 3.64682 16.935 4.24834 16.935C4.85108 16.935 5.33913 16.4501 5.33913 15.8513C5.33913 15.2537 4.85108 14.7689 4.24834 14.7689Z" fill="#36D045"/>
<path fill-rule="evenodd" clip-rule="evenodd" d="M6.92396 11.0041C6.22726 11.0041 5.66113 11.5653 5.66113 12.2586C5.66113 12.9507 6.22726 13.5132 6.92396 13.5132C7.62065 13.5132 8.18679 12.9507 8.18679 12.2586C8.18679 11.5653 7.62065 11.0041 6.92396 11.0041Z" fill="#1EC853"/>
<path fill-rule="evenodd" clip-rule="evenodd" d="M10.3963 8.05518C9.63495 8.05518 9.01879 8.6673 9.01879 9.42366C9.01879 10.1788 9.63495 10.7921 10.3963 10.7921C11.1577 10.7921 11.7738 10.1788 11.7738 9.42366C11.7738 8.6673 11.1577 8.05518 10.3963 8.05518Z" fill="#14C44E"/>
<path fill-rule="evenodd" clip-rule="evenodd" d="M14.5075 6.00165C13.6717 6.00165 12.9946 6.67438 12.9946 7.50468C12.9946 8.33498 13.6717 9.00771 14.5075 9.00771C15.3433 9.00771 16.0205 8.33498 16.0205 7.50468C16.0205 6.67438 15.3433 6.00165 14.5075 6.00165Z" fill="#0FC240"/>
<path fill-rule="evenodd" clip-rule="evenodd" d="M19.1002 5C18.179 5 17.4311 5.74303 17.4311 6.65818C17.4311 7.57455 18.179 8.31758 19.1002 8.31758C20.0226 8.31758 20.7693 7.57455 20.7693 6.65818C20.7693 5.74303 20.0226 5 19.1002 5Z" fill="#0FC238"/>
<path fill-rule="evenodd" clip-rule="evenodd" d="M23.8478 5.15253C22.8107 5.15253 21.9701 5.98768 21.9701 7.01798C21.9701 8.04828 22.8107 8.88344 23.8478 8.88344C24.8849 8.88344 25.7256 8.04828 25.7256 7.01798C25.7256 5.98768 24.8849 5.15253 23.8478 5.15253Z" fill="#0DC133"/>
<path fill-rule="evenodd" clip-rule="evenodd" d="M28.1918 6.55377C27.0974 6.55377 26.2091 7.4362 26.2091 8.52347C26.2091 9.61074 27.0974 10.492 28.1918 10.492C29.2863 10.492 30.1745 9.61074 30.1745 8.52347C30.1745 7.4362 29.2863 6.55377 28.1918 6.55377Z" fill="#00BB15"/>
<path fill-rule="evenodd" clip-rule="evenodd" d="M31.9568 9.14914C30.9197 9.14914 30.0778 9.98429 30.0778 11.0158C30.0778 12.0461 30.9197 12.8813 31.9568 12.8813C32.9939 12.8813 33.8346 12.0461 33.8346 11.0158C33.8346 9.98429 32.9939 9.14914 31.9568 9.14914Z" fill="#02BC1A"/>
<path fill-rule="evenodd" clip-rule="evenodd" d="M34.9823 12.8847C34.1758 12.8847 33.5218 13.5344 33.5218 14.3356C33.5218 15.1369 34.1758 15.7866 34.9823 15.7866C35.7888 15.7866 36.4428 15.1369 36.4428 14.3356C36.4428 13.5344 35.7888 12.8847 34.9823 12.8847Z" fill="#00BB15"/>
</g>
<defs>
<clipPath id="clip0_25_208">
<rect width="194" height="40" fill="white" transform="translate(1 5)"/>
</clipPath>
</defs>
</svg>
