<svg width="317" height="110" viewBox="0 0 317 110" fill="none" xmlns="http://www.w3.org/2000/svg">
<g clip-path="url(#clip0_145_34)">
<path d="M257.27 30.0587C258.636 30.0587 259.373 30.7956 259.373 32.1618V33.7043C259.373 35.0703 258.636 35.8079 257.27 35.8079H224.154C222.788 35.8079 222.051 35.0703 222.051 33.7043V32.1618C222.051 30.7956 222.788 30.0587 224.154 30.0587H257.27Z" fill="#B0131D"/>
<path d="M257.27 15.2985C258.636 15.2985 259.373 16.0355 259.373 17.402V18.944C259.373 20.3107 258.636 21.0476 257.27 21.0476H224.154C222.788 21.0476 222.051 20.3107 222.051 18.944V17.402C222.051 16.0355 222.788 15.2985 224.154 15.2985H257.27Z" fill="#B0131D"/>
<path d="M257.27 0.538835C258.636 0.538835 259.373 1.27588 259.373 2.64202V4.18442C259.373 5.55055 258.636 6.2876 257.27 6.2876H224.154C222.788 6.2876 222.051 5.55055 222.051 4.18442V2.64202C222.051 1.27588 222.788 0.538835 224.154 0.538835H257.27Z" fill="#B0131D"/>
<path d="M257.27 103.499C258.636 103.499 259.373 104.236 259.373 105.602V107.145C259.373 108.511 258.636 109.249 257.27 109.249H224.154C222.788 109.249 222.051 108.511 222.051 107.145V105.602C222.051 104.236 222.788 103.499 224.154 103.499H257.27Z" fill="#B0131D"/>
<path d="M257.27 88.7394C258.636 88.7394 259.373 89.4768 259.373 90.8429V92.3855C259.373 93.7515 258.636 94.4885 257.27 94.4885H224.154C222.788 94.4885 222.051 93.7515 222.051 92.3855V90.8429C222.051 89.4768 222.788 88.7394 224.154 88.7394H257.27Z" fill="#B0131D"/>
<path d="M290.323 53.3377H280.304C278.301 53.3377 277.35 54.2885 277.35 56.2917V76.959L270.578 76.9585V56.1757C270.578 50.3881 273.377 47.5885 279.165 47.5885H290.323V53.3377Z" fill="#545F6A"/>
<path d="M116.451 71.2094L116.451 76.9585H106.479C100.692 76.9585 97.8921 74.1588 97.8921 68.3712V41.2147L104.622 41.2138V47.5885H115.638V53.3377H104.622V68.2553C104.622 70.2584 105.572 71.2094 107.576 71.2094H116.451Z" fill="#545F6A"/>
<path d="M316.407 71.2094V76.9585H306.434C300.647 76.9585 297.847 74.1588 297.847 68.3712V41.2147L304.577 41.2138V47.5885H315.593V53.3377H304.577V68.2553C304.577 70.2584 305.527 71.2094 307.531 71.2094H316.407Z" fill="#545F6A"/>
<path fill-rule="evenodd" clip-rule="evenodd" d="M220.505 56.1757C220.505 50.3881 223.305 47.5885 229.092 47.5885H252.333C258.121 47.5885 260.92 50.3881 260.92 56.1757V68.3712C260.92 74.1588 258.121 76.9585 252.333 76.9585H229.092C223.305 76.9585 220.505 74.1588 220.505 68.3712V56.1757ZM230.188 53.3377C228.185 53.3377 227.234 54.2885 227.234 56.2918V68.2553C227.234 70.2584 228.185 71.2094 230.188 71.2094H251.236C253.24 71.2094 254.19 70.2584 254.19 68.2553V56.2918C254.19 54.2885 253.24 53.3377 251.236 53.3377H230.188Z" fill="#545F6A"/>
<path fill-rule="evenodd" clip-rule="evenodd" d="M55.1476 68.3612C55.1476 70.3643 56.0984 71.3153 58.1015 71.3153H81.2842V63.8666H58.1015C56.0984 63.8666 55.1476 64.8181 55.1476 66.8212V68.3612ZM57.0048 76.9585C51.2176 76.9585 48.418 74.1588 48.418 68.3712V66.8112C48.418 61.0236 51.2176 58.2239 57.0048 58.2239H81.2842V56.1859C81.2842 54.1826 80.3333 53.2318 78.3302 53.2318H54.8582L54.8572 47.5885H79.4269C85.214 47.5885 88.0142 50.3881 88.0142 56.1757V76.9585H57.0048Z" fill="#545F6A"/>
<path fill-rule="evenodd" clip-rule="evenodd" d="M128.814 68.3612C128.814 70.3643 129.766 71.3153 131.769 71.3153H154.951V63.8666H131.769C129.766 63.8666 128.814 64.8181 128.814 66.8212V68.3612ZM130.671 76.9585C124.885 76.9585 122.085 74.1588 122.085 68.3712V66.8112C122.085 61.0236 124.885 58.2239 130.671 58.2239H154.951V56.1859C154.951 54.1826 154.001 53.2318 151.997 53.2318H128.525V47.5885H153.094C158.882 47.5885 161.681 50.3881 161.681 56.1757V76.9585H130.671Z" fill="#545F6A"/>
<path fill-rule="evenodd" clip-rule="evenodd" d="M33.3096 47.5885V36.9646L40.0391 36.9651V76.9585H9.12561C3.33847 76.9585 0.538818 74.1583 0.538818 68.3712V56.1757C0.538818 50.3881 3.33847 47.5885 9.12561 47.5885H33.3096ZM33.3096 71.2094V53.3377H10.2224C8.21922 53.3377 7.26835 54.2885 7.26835 56.2918V68.2553C7.26835 70.2584 8.21922 71.2094 10.2224 71.2094H33.3096Z" fill="#545F6A"/>
<path fill-rule="evenodd" clip-rule="evenodd" d="M178.669 76.9584V88.0815L171.939 88.0805V47.5885H202.852C208.639 47.5885 211.439 50.388 211.439 56.1757V68.3711C211.439 74.1588 208.639 76.9584 202.852 76.9584H178.669ZM178.669 53.3376V71.2093H201.756C203.759 71.2093 204.71 70.2584 204.71 68.2552V56.2917C204.71 54.2884 203.759 53.3376 201.756 53.3376H178.669Z" fill="#545F6A"/>
</g>
<defs>
<clipPath id="clip0_145_34">
<rect width="316.945" height="109.787" fill="white"/>
</clipPath>
</defs>
</svg>
