<svg width="440" height="110" viewBox="0 0 440 110" fill="none" xmlns="http://www.w3.org/2000/svg">
<path fill-rule="evenodd" clip-rule="evenodd" d="M140.587 76.0813H169.621V66.8024H151.662V59.0202H167.675V50.34H151.662V42.5577H169.621V33.2789H140.587V76.0813ZM205.689 57.6732C201.498 64.4079 197.458 67.1018 192.07 67.1018C185.186 67.1018 181.294 62.3127 181.294 53.9318C181.294 45.9999 184.886 42.1087 190.573 42.1087C194.315 42.1087 197.308 43.755 198.356 49.2924H209.43C208.233 38.8162 201.498 32.2312 190.723 32.2312C178.301 32.2312 170.07 41.0611 170.07 54.5304C170.07 68.1494 178.301 76.9792 191.771 76.9792C200.6 76.9792 206.587 73.2378 210.478 68.299H225.593V76.0813H236.519V33.1292H221.104L205.689 57.6732ZM225.593 59.7685H215.866L225.593 43.9046V59.7685ZM116.941 33.1292H100.778V76.0813H116.941C129.812 76.0813 138.043 67.7004 138.043 54.5304C138.043 41.3604 129.812 33.1292 116.941 33.1292ZM116.791 66.8024H111.853V42.408H116.791C123.227 42.408 126.819 46.8978 126.819 54.5304C126.819 62.3127 123.227 66.8024 116.791 66.8024ZM363.579 32.2312C350.559 32.2312 341.878 41.0611 341.878 54.5304C341.878 67.9997 350.559 76.8296 363.579 76.8296C376.599 76.8296 385.28 67.9997 385.28 54.5304C385.28 41.0611 376.599 32.2312 363.579 32.2312ZM363.579 67.1018C357.144 67.1018 353.103 62.7617 353.103 54.6801C353.103 46.5985 357.144 42.2584 363.579 42.2584C370.014 42.2584 374.055 46.5985 374.055 54.6801C374.055 62.7617 370.014 67.1018 363.579 67.1018ZM239.362 42.408H250.138V76.0813H261.212V42.408H271.988V33.1292H239.212V42.408H239.362ZM413.565 33.1292V56.7753L399.347 33.1292H387.824V76.0813H398.449V51.5372L413.266 76.231H424.191V33.1292H413.565ZM326.164 33.1292H315.09V76.0813H342.776V66.8024H326.164V33.1292ZM300.872 49.5917H285.906V33.1292H274.981V76.0813H286.056V58.8705H301.022V76.231H312.096V33.1292H301.022L300.872 49.5917ZM69.6489 24C45.7035 24 15.7717 48.8434 15.7717 69.4963C15.7717 80.1221 24.003 85.5098 34.7784 85.5098C42.7103 85.5098 52.2885 82.6663 61.5673 76.9792V35.8231C59.1728 40.0135 47.4994 57.0746 38.2206 66.0541C33.4315 70.6936 29.69 72.6391 26.5472 72.6391C22.9554 72.6391 21.1595 70.2446 21.1595 66.5031C21.1595 49.891 49.1457 28.1905 67.7034 28.1905C75.336 28.1905 80.2747 31.6326 80.2747 38.2176C80.2747 44.2039 76.2339 51.8366 69.2 58.8705V71.5915C81.472 62.0134 88.6556 49.5917 88.6556 39.7142C88.5059 29.3877 80.4244 24 69.6489 24Z" fill="#3643BA"/>
</svg>
