<svg width="100" height="25" viewBox="0 0 100 25" fill="none" xmlns="http://www.w3.org/2000/svg">
<g clip-path="url(#clip0_71_174)">
<mask id="mask0_71_174" style="mask-type:luminance" maskUnits="userSpaceOnUse" x="0" y="0" width="99" height="25">
<path d="M98.7793 0.235352H0.660645V24.7651H98.7793V0.235352Z" fill="white"/>
</mask>
<g mask="url(#mask0_71_174)">
<path fill-rule="evenodd" clip-rule="evenodd" d="M98.7793 25.7651H0.660645V1.23535H98.7793V25.7651ZM37.2525 9.45565L37.223 9.41766C36.9729 9.1031 35.1374 6.94308 31.9587 7.01344C26.7959 7.12878 25.2942 11.4272 25.2942 13.419C25.2942 17.6143 28.543 19.7098 31.1974 19.9633C33.841 20.2196 35.6574 19.1092 36.5252 18.4012L36.6483 18.2982L36.757 18.2026L36.8513 18.1157L36.9635 18.0066L37.0429 17.9247L37.1096 17.8509L37.1074 17.8495L37.1232 17.8465L37.2133 17.8427L37.5436 17.8406L40.0173 17.8509V19.7196H43.1228V7.26333H39.7485L35.5786 14.2831C35.3866 14.6024 35.2493 14.8283 35.1908 14.9199L35.0922 15.0691C34.582 15.812 33.5859 16.8429 32.1268 16.8249C29.5893 16.7858 28.6355 15.0427 28.6355 13.4783C28.6355 11.6979 30.0614 10.1686 31.9287 10.1338C33.3516 10.1046 34.5293 11.0111 35.1437 11.6025L35.2666 11.7239L35.4172 11.882L35.4939 11.9673L35.6039 12.0977L37.2525 9.45565ZM79.6811 8.85269C78.4429 7.65447 76.8349 7.00293 75.136 7.00293C73.3277 7.00293 71.7548 7.61904 70.5024 8.83677C69.2487 10.0521 68.5722 11.6409 68.5722 13.3691C68.5722 14.7344 68.9028 15.9359 69.5576 16.9744L66.659 16.9738V7.26548H63.4514V19.7279H70.4226L70.4224 18.0657C71.6693 19.3419 73.2609 19.9954 75.1177 19.9954C76.8895 19.9954 78.5717 19.3074 79.8071 18.0389C80.5302 17.3059 81.0515 16.4301 81.3511 15.4552L81.3507 19.7279H84.5808V12.7834L89.5041 19.7279H92.3432V7.26319H89.1118V14.1855L84.2656 7.26319H81.3507L81.3514 11.5058C81.0364 10.5265 80.4745 9.62254 79.6811 8.85269ZM16.0048 8.7523C14.6315 7.52509 13.1679 7.2633 11.0739 7.2633H6.5664V19.7279H11.5157C13.3704 19.7279 14.6127 19.4801 16.0195 18.1852C17.0061 17.266 17.6182 16.1135 17.8388 14.7503L17.8378 19.7195H25.0133V16.9864H21.0658V14.7272L24.484 14.7237V12.0433L21.0658 12.0463V10.0099L25.0133 10.0054V7.2633H17.8378L17.8385 12.2849C17.6148 10.8236 16.9911 9.63131 16.0048 8.7523ZM52.0316 10.2382V7.25831H43.7964V10.2382H46.3023V19.7279H49.528V10.2382H52.0316ZM55.9214 11.9954V7.26204H52.6972V19.7279H55.9214V14.9584H59.2411V19.7279H62.4667V7.26204H59.2411V11.9954H55.9214ZM9.79306 9.94363H11.0739C13.4432 9.94363 14.724 11.2087 14.724 13.4531C14.724 15.906 13.5572 16.9904 11.0885 16.9904H9.79306V9.94363ZM71.7729 13.4029C71.7729 11.5699 73.2605 10.1045 75.1541 10.1045C76.9442 10.1045 78.4303 11.5699 78.4303 13.4029C78.4303 15.4458 76.9442 16.8903 75.1177 16.8903C73.364 16.8903 71.7729 15.3789 71.7729 13.4029ZM38.417 15.2451L40.0813 12.4242V15.2451H38.417Z" fill="white"/>
</g>
</g>
<defs>
<clipPath id="clip0_71_174">
<rect width="99" height="25" fill="white" transform="translate(0.516113)"/>
</clipPath>
</defs>
</svg>
