<svg width="354" height="110" viewBox="0 0 354 110" fill="none" xmlns="http://www.w3.org/2000/svg">
<g opacity="0.982">
<path fill-rule="evenodd" clip-rule="evenodd" d="M33.8683 0C36.1384 0 38.4087 0 40.6788 0C49.8354 0.975267 57.6583 4.71797 64.1474 11.2281C64.2701 11.4122 64.2701 11.5962 64.1474 11.7803C61.5629 14.4263 58.9247 17.0032 56.2325 19.5111C47.4413 11.148 37.4096 9.27667 26.1375 13.8971C15.2987 19.7738 10.4823 28.8851 11.6883 41.231C12.0063 43.1166 12.4971 44.9573 13.1608 46.753C21.1517 61.5692 29.1892 76.356 37.2736 91.1132C44.6976 77.615 52.1217 64.1166 59.5457 50.6185C60.4949 48.9044 61.2925 47.1252 61.9386 45.2805C66.0519 41.1364 70.1934 37.0257 74.3631 32.948C75.2059 39.8555 74.1936 46.4819 71.326 52.8273C62.8617 68.6526 54.2105 84.3596 45.3725 99.9484C41.5145 103.644 37.1276 104.411 32.2117 102.249C30.9152 101.506 29.78 100.555 28.8065 99.3962C20.1231 83.7481 11.5334 68.0411 3.03711 52.2751C1.50124 48.5843 0.488867 44.7802 0 40.8629C0 38.47 0 36.0772 0 33.6843C1.91074 19.4704 9.33478 9.25467 22.2721 3.03711C26.0175 1.47211 29.8829 0.459741 33.8683 0Z" fill="#0069FF"/>
<path fill-rule="evenodd" clip-rule="evenodd" d="M110.072 25.2172C124.552 25.1865 139.032 25.2172 153.512 25.3092C157.077 26.5787 158.396 29.0636 157.469 32.7639C156.769 34.5109 155.512 35.6459 153.696 36.1692C141.364 36.2612 129.031 36.292 116.699 36.2612C116.699 41.3538 116.699 46.4462 116.699 51.5388C125.718 51.508 134.737 51.5388 143.756 51.6308C147.413 52.5889 148.916 54.951 148.266 58.7174C147.524 60.8101 146.082 62.1293 143.94 62.6748C134.86 62.7669 125.779 62.7976 116.699 62.7669C116.787 70.9973 116.695 79.2188 116.422 87.4319C115.107 90.3333 112.868 91.4685 109.704 90.8371C107.648 90.2542 106.329 88.9352 105.747 86.8797C105.442 68.2329 105.381 49.5809 105.562 30.9233C105.742 27.9543 107.245 26.0521 110.072 25.2172Z" fill="#0069FF"/>
<path fill-rule="evenodd" clip-rule="evenodd" d="M261.927 25.2172C266.529 24.942 268.83 27.0893 268.83 31.6595C267.845 35.3269 265.484 36.83 261.743 36.1692C259.827 35.6573 258.568 34.4609 257.97 32.5799C257.217 28.9906 258.537 26.5364 261.927 25.2172Z" fill="#0069FF"/>
<path fill-rule="evenodd" clip-rule="evenodd" d="M279.414 25.2172C282.872 24.7843 285.173 26.1955 286.316 29.4507C286.464 42.5819 286.434 55.712 286.224 68.8411C286.151 74.1391 288.667 77.5443 293.771 79.0568C295.915 79.5209 298.064 79.9503 300.213 80.3453C302.858 81.9264 303.81 84.2273 303.066 87.2478C301.736 90.2608 299.435 91.4572 296.164 90.8371C289.53 90.3572 283.977 87.6883 279.506 82.8302C277.144 79.8842 275.856 76.5097 275.64 72.7065C275.456 70.5014 275.333 68.2926 275.272 66.0801C275.232 53.8087 275.293 41.5377 275.456 29.2667C276.073 27.2084 277.393 25.8585 279.414 25.2172Z" fill="#0069FF"/>
<path fill-rule="evenodd" clip-rule="evenodd" d="M193.823 43.0717C197.088 42.7233 199.266 44.073 200.357 47.1212C200.48 60.3127 200.48 73.5041 200.357 86.6956C199.856 88.8536 198.537 90.2341 196.4 90.8371C193.064 91.5476 190.763 90.3512 189.497 87.2478C182.695 91.3472 175.547 92.0527 168.053 89.3646C158.378 85.1724 153.285 77.779 152.776 67.1845C153.131 59.2639 156.383 52.8521 162.531 47.9495C169.844 43.0307 177.636 42.1103 185.908 45.1885C187.24 45.7775 188.498 46.483 189.681 47.3052C190.364 45.1807 191.745 43.7695 193.823 43.0717ZM175.6 54.4839C181.357 54.4493 185.56 56.9649 188.209 62.0306C190.381 67.856 189.184 72.8565 184.619 77.0321C179.45 80.7696 174.234 80.8309 168.974 77.2161C164.419 73.3079 163.038 68.4914 164.832 62.7669C166.96 58.0914 170.549 55.3304 175.6 54.4839Z" fill="#0069FF"/>
<path fill-rule="evenodd" clip-rule="evenodd" d="M263.4 43.2558C266.247 43.3128 268.18 44.6626 269.198 47.3052C269.321 60.4968 269.321 73.6881 269.198 86.8797C268.339 89.5028 266.529 90.8526 263.768 90.9291C260.895 90.7876 259.085 89.3151 258.338 86.5115C258.215 73.6268 258.215 60.7421 258.338 47.8574C259.078 45.2455 260.764 43.7115 263.4 43.2558Z" fill="#0069FF"/>
<path fill-rule="evenodd" clip-rule="evenodd" d="M228.427 43.4398C237.413 43.1271 244.621 46.5016 250.055 53.5635C251.351 56.5692 250.707 59.0541 248.122 61.0182C246.094 62.1221 244.069 62.1221 242.048 61.0182C241.005 60.0355 240.023 58.9926 239.103 57.8891C234.08 53.8405 228.803 53.4724 223.273 56.7847C218.162 60.9509 216.721 66.1355 218.948 72.3384C221.365 77.0932 225.261 79.6088 230.636 79.8851C233.767 79.73 236.528 78.6563 238.919 76.6639C239.906 75.4942 240.947 74.3898 242.048 73.3507C244.829 71.9577 247.314 72.3564 249.503 74.5472C251.145 77.0481 251.082 79.5024 249.319 81.9099C242.472 89.6749 233.973 92.4052 223.826 90.1008C214.031 86.8079 208.357 80.028 206.799 69.7614C206.17 59.1466 210.433 51.2012 219.592 45.9247C222.399 44.5179 225.344 43.6896 228.427 43.4398Z" fill="#0069FF"/>
<path fill-rule="evenodd" clip-rule="evenodd" d="M353.409 47.6734C353.409 61.233 353.409 74.7925 353.409 88.3522C351.206 100.005 344.272 106.938 332.609 109.152C331.137 109.152 329.664 109.152 328.192 109.152C324.433 107.519 323.297 104.758 324.786 100.869C325.618 99.4837 326.815 98.5939 328.376 98.1998C335.646 98.1635 340.248 94.6663 342.181 87.708C340.981 88.2456 339.753 88.7978 338.499 89.3646C328.44 92.7573 319.634 90.7633 312.086 83.3824C308.877 79.665 306.853 75.3699 306.012 70.4977C305.831 62.6332 305.892 54.7797 306.196 46.9371C307.867 43.7612 310.414 42.7488 313.834 43.9C315.395 44.7237 316.408 45.9816 316.871 47.6734C316.932 54.4839 316.995 61.2943 317.056 68.1048C318.138 75.3221 322.309 79.2488 329.572 79.8851C337.119 79.272 341.352 75.2225 342.273 67.7367C342.333 61.049 342.396 54.3611 342.457 47.6734C343.569 44.4782 345.807 43.0977 349.175 43.5319C351.296 44.21 352.706 45.5905 353.409 47.6734Z" fill="#0069FF"/>
<path fill-rule="evenodd" clip-rule="evenodd" d="M74.7312 9.57154C77.8046 9.15015 80.1054 10.2546 81.6338 12.8847C82.3154 14.659 82.1926 16.3769 81.2656 18.0386C67.4017 32.2098 53.4432 46.1068 39.3904 59.7298C36.8026 60.9294 34.2869 60.8066 31.8436 59.3617C26.5364 53.993 21.229 48.6245 15.9218 43.2558C14.9022 38.9319 15.209 34.6984 16.8421 30.5552C17.0955 29.8791 17.4329 29.2656 17.8545 28.7145C23.9112 34.7403 29.8627 40.8451 35.709 47.0292C35.8318 47.152 35.9544 47.152 36.0772 47.0292C48.1643 34.9421 60.2512 22.8551 72.3384 10.768C73.1017 10.2636 73.8993 9.86481 74.7312 9.57154Z" fill="#00BBEF"/>
</g>
</svg>
