<svg width="223" height="77" viewBox="0 0 223 77" fill="none" xmlns="http://www.w3.org/2000/svg">
<g clip-path="url(#clip0_113_21)">
<path d="M56.3164 2.96835C61.8199 2.96835 66.2821 7.42886 66.2821 12.933C66.2821 18.4381 61.8199 22.8987 56.3164 22.8987H10.7428C5.23878 22.8987 0.7771 18.4381 0.7771 12.933C0.7771 7.42886 5.23878 2.96835 10.7428 2.96835H56.3164Z" fill="#CC393C"/>
<path d="M51.7358 29.0806C57.2398 29.0806 61.7015 33.5417 61.7015 39.0463C61.7015 44.5499 57.2398 49.011 51.7358 49.011H25.7965C23.5845 49.0191 21.7733 50.7689 21.6886 52.959V65.9474C21.6886 71.451 17.227 75.9121 11.7246 75.9121C6.22048 75.9121 1.75884 71.451 1.75884 65.9474V43.8442C1.75884 35.6912 8.36841 29.0806 16.5217 29.0806H51.7358Z" fill="#3D3D6A"/>
<path d="M70.8073 10.8333C70.8073 5.32982 75.2689 0.868011 80.7724 0.868011C86.2771 0.868011 90.7382 5.32982 90.7382 10.8333V66.0176C90.7382 71.5218 86.2771 75.9834 80.7724 75.9834C75.2689 75.9834 70.8073 71.5218 70.8073 66.0176V10.8333Z" fill="#3D3D6A"/>
<path d="M193.459 56.2176L197.464 56.2073C198.282 56.2073 198.946 55.5427 198.946 54.7249C198.95 54.5168 198.915 54.3317 198.841 54.1568L183.95 29.1338L160.687 69.4147C158.89 72.5293 155.663 74.3061 152.314 74.3952C152.216 74.409 152.117 74.4164 152.013 74.4164H114.154C106 74.4164 99.3901 67.8065 99.3901 59.6534V10.8333C99.3901 5.32982 103.852 0.868011 109.356 0.868011C114.859 0.868011 119.321 5.32982 119.321 10.8333V50.3769C119.328 52.5903 121.077 54.402 123.269 54.4849H144.447C144.992 54.3174 146.658 53.7511 147.165 52.9624L173.766 6.91399C175.784 3.4484 179.539 1.11489 183.837 1.11489C188.137 1.11489 191.893 3.45183 193.902 6.92483L219.823 50.4443C221.752 52.9572 222.9 56.101 222.9 59.5134C222.9 67.7442 216.227 74.4164 207.998 74.4164H177.783C172.756 74.4164 168.683 70.3416 168.683 65.3158C168.683 60.2912 172.756 56.2176 177.783 56.2176H193.459Z" fill="#3D3D6A"/>
</g>
<defs>
<clipPath id="clip0_113_21">
<rect width="222.125" height="75.2262" fill="white" transform="translate(0.7771 0.868011)"/>
</clipPath>
</defs>
</svg>
