<svg width="425" height="50" viewBox="0 0 425 50" fill="none" xmlns="http://www.w3.org/2000/svg">
<path d="M275.545 48.9979H263.869V1.07359L301.423 1.1047C301.423 1.1047 308.299 0.846769 312.673 5.19244C312.673 5.19244 317.137 8.9416 317.137 18.1053V48.9905H305.49V17.307C305.49 17.307 305.634 14.0754 304.539 12.9413C304.539 12.9413 303.571 11.7094 301.731 11.7094H275.517L275.541 48.9808L275.545 48.9979ZM325.253 48.9896V1.10938H372.113V11.7595L336.858 11.7568V19.8992H361.351V30.1833H336.858V38.3532H372.332V49.0061H325.225L325.253 48.9896ZM243.52 1.10938H255.148V49.0061H243.52V1.10938ZM388.851 48.9896V11.7458H377.875V1.09561H421.533V11.7458H400.487V48.9896H388.851ZM205.118 48.9896V11.7458H194.142V1.09561H237.8V11.7458H216.754V48.9896H205.118ZM170.055 19.8662C172.896 19.8442 174.596 19.8689 175.28 19.45C175.28 19.45 176.474 18.786 176.487 17.3612L176.49 14.2287C176.49 12.7973 175.283 12.1399 175.283 12.1399C174.376 11.6445 172.84 11.7375 169.192 11.7339H146.539V19.8654H170.575L170.055 19.8662ZM176.32 48.9896V32.6442C176.32 31.1748 175.099 30.559 175.099 30.559C174.548 30.2149 172.898 30.153 170.47 30.153H171.034H146.539V48.9869H134.912V1.10662H171.207C177.475 1.12589 181.803 2.053 184.783 4.96314C187.712 7.96357 188.101 11.8889 188.117 15.9739V19.3845C188.155 22.8556 186.341 26.0212 184.178 27.8655L184.613 28.0824C185.496 28.5124 185.978 29.1216 185.978 29.1216C187.624 31.2342 187.604 33.0524 187.6 35.2876V48.9987H176.32L176.32 48.9896ZM0.483547 1.09286V48.9759H12.1111V30.1585H47.3386V19.8689H12.1111V11.732H53.0593V1.08185H0.478073L0.483547 1.09286Z" fill="#231F20"/>
<path d="M417.605 40.5196V42.7185H419.641C420.192 42.7185 420.725 42.5671 420.808 41.7446C420.924 40.6539 420.14 40.5196 419.641 40.5196H417.605ZM416.788 39.797H419.623C420.609 39.797 421.56 39.9828 421.642 41.4244C421.676 42.2502 421.426 42.5497 420.807 43.021C421.46 43.4408 421.478 43.5407 421.577 44.6484C421.642 45.4879 421.525 45.6223 421.878 46.1761H420.909L420.776 45.3709C420.643 44.614 421.009 43.4408 419.692 43.4408H417.605V46.1764H416.787L416.788 39.797ZM418.923 38.0353C416.12 38.0353 413.834 40.3338 413.853 43.1718C413.853 45.9906 416.122 48.2891 418.942 48.2753C421.747 48.2753 424.033 45.9906 424.033 43.1553C424.033 40.3338 421.745 38.0353 418.923 38.0353ZM418.942 48.9415C415.756 48.9415 413.183 46.3572 413.183 43.1553C413.169 39.9649 415.756 37.3637 418.942 37.3637C422.114 37.3637 424.701 39.9649 424.701 43.1553C424.701 46.3594 422.114 48.9305 418.942 48.9415Z" fill="#231F20"/>
<path d="M118.924 49.4659C122.701 48.1754 125.641 43.8008 126.347 38.3009V36.7113H106.982V49.4672H118.921L118.924 49.4659ZM126.35 13.3231V11.8848C125.608 6.14542 122.45 1.62275 118.423 0.560214H106.984V13.3217L126.35 13.3231ZM58.1942 36.7126V38.2886C58.8955 43.7939 61.8347 48.1762 65.6229 49.4672H77.5023V36.7113L58.1942 36.7126ZM66.1184 0.569849C62.0975 1.63294 58.9305 6.15781 58.1942 11.9054V13.3335H77.5023V0.572051L66.1184 0.569849ZM126.364 18.644H106.998V31.4055H126.364V18.644ZM82.7878 49.4741H101.732V36.7181H82.7878V49.4741ZM101.732 0.558838H82.7878V13.3203H101.732V0.558838ZM58.2107 31.3889H77.5187V18.6275H58.2107V31.3889Z" fill="#EE2E24"/>
</svg>
