<svg width="389" height="92" viewBox="0 0 389 92" fill="none" xmlns="http://www.w3.org/2000/svg">
<path d="M77.3603 91.1819H82.7278C83.9565 91.1819 85.0558 90.0826 85.1205 88.8539V29.1006C85.1205 23.2158 80.4644 18.4304 74.7089 18.4304H67.7895C66.5608 18.4304 65.4614 17.331 65.4614 16.1023V10.6702C65.4614 4.78542 60.8053 0 55.0499 0H10.4936C4.73813 0 0.0820312 4.72076 0.0820312 10.6702V70.7468C0.0820312 76.567 4.73813 81.3524 10.4936 81.4171H62.0987C62.5513 81.4171 63.004 81.5464 63.392 81.805L76.0023 90.8586C76.3903 91.0526 76.9077 91.1819 77.3603 91.1819ZM64.8147 72.8162H10.6229C9.32956 72.8162 8.29487 71.7815 8.29487 70.4881V10.7996C8.29487 9.5062 9.32956 8.47151 10.6229 8.47151H54.9205C56.1492 8.47151 57.2486 9.57087 57.2486 10.7996V16.1023C57.2486 17.3957 56.2139 18.4304 54.9205 18.4304H21.9398C20.7111 18.4304 19.6118 19.5297 19.6118 20.7584V60.5939C19.6118 61.8873 20.6465 62.922 21.9398 62.922H63.1334C64.3621 62.922 65.4614 61.8226 65.4614 60.5939V29.2299C65.4614 27.9366 66.4961 26.9019 67.7895 26.9019H74.5149C75.7436 26.9019 76.843 28.0013 76.843 29.2299V78.0543C76.843 79.283 75.5496 79.9297 74.6443 79.283L66.2374 73.2689C65.7201 72.9455 65.2674 72.8162 64.8147 72.8162ZM56.0199 54.3858H28.9886C28.4066 54.3858 27.8893 53.9331 27.8893 53.2218V27.9366C27.8893 27.3546 28.342 26.7726 28.9886 26.7726H56.0199C56.6019 26.7726 57.1192 27.2252 57.1192 27.9366V53.2218C57.1192 53.8685 56.6666 54.3858 56.0199 54.3858ZM293.998 12.7396C297.426 12.7396 300.206 9.89421 300.206 6.40214C300.206 2.91007 297.426 0.0646621 293.998 0.0646621C290.571 0.0646621 287.79 2.91007 287.79 6.40214C287.79 9.89421 290.571 12.7396 293.998 12.7396ZM222.863 22.0518V18.4951H212.84V62.5987H222.863V32.4633L234.568 27.4839V17.2017H234.439L222.863 22.0518ZM183.933 18.4304C177.402 18.4304 172.099 20.6291 168.025 25.0265C166.15 27.0959 164.727 29.424 163.692 32.2047C162.722 34.9207 162.205 37.8308 162.205 40.8055C162.205 47.0137 163.951 52.1224 167.443 56.0672C171.323 60.3999 176.626 62.534 183.351 62.534C189.947 62.534 195.185 60.3353 199.195 55.9378C202.946 51.7344 204.821 46.4963 204.821 40.1588C204.821 33.8214 202.946 28.6479 199.324 24.6385C195.573 20.4998 190.4 18.4304 183.933 18.4304ZM191.823 49.7944C189.947 52.1871 187.231 53.4158 183.933 53.4158C180.376 53.4158 177.402 52.1871 175.203 49.7297C174.168 48.6304 173.328 47.2077 172.81 45.591C172.228 43.9743 171.97 42.3576 171.97 40.6115C171.97 37.0548 172.875 34.1447 174.815 31.6227C176.884 28.9713 179.73 27.6132 183.351 27.6132C186.908 27.6132 189.753 28.8419 191.758 31.364C193.633 33.692 194.668 36.7961 194.668 40.6115C194.603 44.3623 193.698 47.4663 191.823 49.7944ZM288.954 18.4951H298.913V62.6633H288.954V18.4951ZM136.467 18.4304C130.776 18.4304 126.055 20.1118 122.434 23.5392C119.007 26.7726 117.325 30.8467 117.325 35.7614C117.325 40.0942 118.813 43.7156 121.852 46.6256C119.265 48.7597 117.972 51.2818 117.972 54.2565C117.972 56.0672 118.231 57.6839 118.619 59.0419C119.007 60.4646 119.847 61.6286 121.076 62.6633C116.549 65.1854 114.35 69.3241 114.544 74.9502C114.674 79.865 116.743 83.7451 120.753 86.6552C124.827 89.6299 130.194 91.0526 136.726 91.0526C143.322 91.0526 148.236 89.7592 151.535 87.1725C154.897 84.5858 156.579 80.835 156.579 75.9849C156.579 71.1348 155.221 67.3841 152.569 64.7327C151.147 63.31 149.271 62.2106 147.008 61.1759C144.68 60.2059 141.576 59.4299 137.566 58.7832C133.492 58.1366 130.647 57.4252 128.901 56.5199C128.06 56.1965 127.543 55.7438 127.349 55.3558C127.09 54.9678 127.025 54.3858 127.025 53.6098C127.025 52.8338 127.543 51.7991 128.513 50.4411C130.776 51.2171 133.234 51.6051 135.885 51.6051C141.317 51.6051 145.779 49.9237 149.271 46.6256C150.823 45.0736 152.052 43.2629 152.893 41.1935C153.733 39.1242 154.186 36.8608 154.186 34.274C154.186 31.752 153.604 29.2946 152.44 27.0959C152.44 27.0959 152.44 27.0312 152.375 27.0312H156.579V18.3657H136.467V18.4304ZM129.483 66.0907L131.552 66.4141C137.372 67.3194 141.511 68.4834 143.904 70.0355C146.038 71.3935 147.072 73.2042 147.072 75.4676C147.072 80.1884 143.774 82.4517 137.178 82.4517C133.298 82.4517 130.194 81.6111 127.737 80.059C126.637 79.3477 125.797 78.4423 125.215 77.4723C124.568 76.5023 124.309 75.3383 124.309 73.9802C124.309 72.6222 124.697 71.1995 125.538 69.7121C126.443 68.2894 127.737 67.1254 129.483 66.0907ZM142.093 40.8702C140.476 42.3576 138.601 43.1336 136.402 43.1336C133.492 43.1336 131.229 42.2929 129.418 40.6762C128.577 39.9648 128.06 39.0595 127.543 38.2188C127.155 37.2488 126.896 36.3434 126.896 35.3087C126.896 34.3387 127.09 33.304 127.478 32.334C128.771 28.9713 131.552 27.3546 136.014 27.3546C138.666 27.3546 140.8 28.0659 142.287 29.4886C143.774 30.9113 144.615 32.7867 144.615 35.1147C144.615 37.1841 143.774 39.1888 142.093 40.8702ZM343.017 28.0659C343.793 30.0706 344.181 32.3987 344.181 34.9854V62.534H334.351V60.4646C331.376 61.8226 328.66 62.534 326.203 62.534C323.099 62.534 320.512 62.2106 318.313 61.6286C316.115 61.0466 314.239 60.1413 312.752 59.0419C309.713 56.7139 308.161 53.3511 308.161 48.9537C308.161 45.0736 310.036 41.7755 313.787 39.1888C317.861 36.3434 323.487 34.9207 330.536 34.9207L332.152 34.9854C332.346 34.9854 332.476 34.9854 332.67 34.9854C332.864 34.9854 333.058 34.9854 333.252 34.9854C333.446 34.9854 333.64 35.0501 333.769 35.0501C333.963 35.0501 334.157 35.0501 334.286 35.1147C334.028 30.782 332.217 28.1306 328.725 27.4839C327.626 27.2252 326.332 27.1606 325.104 27.1606C323.746 27.1606 322.517 27.2899 321.288 27.4839C319.995 27.7426 318.831 28.0659 317.667 28.4539C315.145 29.2946 313.205 30.2646 312.105 31.364L311.976 31.2993L310.747 22.3105C315.403 19.7884 320.641 18.5597 326.203 18.5597C335.062 18.4304 340.624 21.5991 343.017 28.0659ZM334.351 52.0578V46.367V42.5516C333.575 42.4222 332.864 42.3575 332.088 42.3575H330.471C324.586 42.3575 320.835 43.7156 319.219 46.367C318.766 47.143 318.507 47.9837 318.507 48.8244C318.507 49.7297 318.701 50.5057 318.96 51.1524C319.283 51.7991 319.801 52.3811 320.512 52.8338C321.87 53.6745 324.004 54.0625 326.72 54.0625C329.436 54.0625 332.023 53.3511 334.351 52.0578ZM381.106 37.9601C382.787 38.8008 384.145 39.7708 385.18 40.9349C387.056 43.0689 388.09 45.9143 388.09 49.5357C388.09 53.3511 386.603 56.5199 383.563 58.9126C380.459 61.4346 376.062 62.6633 370.371 62.6633C363.581 62.6633 358.214 61.4993 354.463 59.1712V48.307C354.463 48.2423 354.721 48.501 355.11 48.9537C355.498 49.4064 356.338 49.9237 357.438 50.6351C358.537 51.3464 359.895 51.9284 361.318 52.4458C364.486 53.5451 367.784 54.1271 371.277 54.1271C375.868 54.1271 378.196 52.5104 378.196 49.4064C378.196 48.4364 377.743 47.6603 376.838 47.143C375.286 46.3023 372.958 45.6556 369.919 45.2676C366.879 44.8149 364.357 44.2329 362.417 43.3922C360.477 42.5516 358.86 41.5815 357.632 40.4175C355.368 38.2188 354.204 35.4381 354.204 31.946C354.204 27.6779 355.821 24.3152 358.99 21.9225C362.158 19.5298 366.556 18.3011 372.182 18.3011C377.743 18.3011 382.464 19.9178 386.409 23.1512C386.215 23.8625 386.086 24.5738 385.827 25.2205C385.18 27.0312 384.727 28.3246 384.469 29.1006L383.563 31.4933C383.499 31.752 383.434 31.8167 383.434 31.8167C383.369 31.8167 383.175 31.4933 382.787 30.9113C381.106 28.9066 378.455 27.6132 374.963 26.9666C373.863 26.7079 372.764 26.6432 371.6 26.6432C366.75 26.6432 364.292 28.1306 364.292 31.1053C364.292 32.0753 364.745 32.916 365.78 33.4334C367.655 34.4681 370.307 35.2441 373.605 35.7614C376.903 36.4728 379.36 37.1194 381.106 37.9601ZM259.53 18.4304C253.839 18.4304 249.119 20.1118 245.497 23.5392C242.07 26.7726 240.388 30.8467 240.388 35.7614C240.388 40.0942 241.876 43.7156 244.915 46.6256C242.328 48.7597 241.035 51.2818 241.035 54.2565C241.035 56.0672 241.294 57.6839 241.682 59.0419C242.07 60.4646 242.91 61.6286 244.139 62.6633C239.612 65.1854 237.414 69.3241 237.608 74.9502C237.737 79.865 239.806 83.7451 243.816 86.6552C247.89 89.6299 253.257 91.0526 259.789 91.0526C266.385 91.0526 271.3 89.7592 274.598 87.1725C277.961 84.5858 279.642 80.835 279.642 75.9849C279.642 71.1348 278.284 67.3841 275.633 64.7327C274.21 63.31 272.334 62.2106 270.071 61.1759C267.743 60.2059 264.639 59.4299 260.63 58.7832C256.555 58.1366 253.71 57.4252 251.964 56.5199C251.123 56.1965 250.606 55.7438 250.412 55.3558C250.153 54.9678 250.089 54.3858 250.089 53.6098C250.089 52.8338 250.606 51.7991 251.576 50.4411C253.839 51.2171 256.297 51.6051 258.948 51.6051C264.38 51.6051 268.842 49.9237 272.334 46.6256C273.886 45.0736 275.115 43.2629 275.956 41.1935C276.797 39.1242 277.249 36.8608 277.249 34.274C277.249 31.752 276.667 29.2946 275.503 27.0959C275.503 27.0959 275.503 27.0312 275.439 27.0312H279.642V18.3657H259.53V18.4304ZM252.546 66.0907L254.615 66.4141C260.436 67.3194 264.574 68.4834 266.967 70.0355C269.101 71.3935 270.136 73.2042 270.136 75.4676C270.136 80.1884 266.838 82.4517 260.242 82.4517C256.361 82.4517 253.257 81.6111 250.8 80.059C249.701 79.3477 248.86 78.4423 248.278 77.4723C247.631 76.5023 247.373 75.3383 247.373 73.9802C247.373 72.6222 247.761 71.1995 248.601 69.7121C249.507 68.2894 250.8 67.1254 252.546 66.0907ZM265.156 40.8702C263.54 42.3576 261.664 43.1336 259.466 43.1336C256.555 43.1336 254.292 42.2929 252.481 40.6762C251.705 39.9648 251.123 39.0595 250.606 38.2188C250.218 37.2488 249.959 36.3434 249.959 35.3087C249.959 34.3387 250.153 33.304 250.541 32.334C251.835 28.9713 254.615 27.3546 259.077 27.3546C261.729 27.3546 263.863 28.0659 265.35 29.4886C266.838 30.9113 267.678 32.7867 267.678 35.1147C267.678 37.1841 266.838 39.1888 265.156 40.8702Z" fill="black"/>
</svg>
