<?xml version="1.0" encoding="UTF-8" standalone="no"?>
<svg
   width="116.78516"
   height="27.462498"
   viewBox="0 0 291.96291 68.656244"
   fill="none"
   version="1.1"
   id="svg69"
   sodipodi:docname="gorgias.svg"
   inkscape:version="1.2.2 (b0a8486541, 2022-12-01)"
   xmlns:inkscape="http://www.inkscape.org/namespaces/inkscape"
   xmlns:sodipodi="http://sodipodi.sourceforge.net/DTD/sodipodi-0.dtd"
   xmlns="http://www.w3.org/2000/svg"
   xmlns:svg="http://www.w3.org/2000/svg">
  <defs
     id="defs73" />
  <sodipodi:namedview
     id="namedview71"
     pagecolor="#ffffff"
     bordercolor="#000000"
     borderopacity="0.25"
     inkscape:showpageshadow="2"
     inkscape:pageopacity="0.0"
     inkscape:pagecheckerboard="0"
     inkscape:deskcolor="#d1d1d1"
     showgrid="false"
     inkscape:zoom="2.3366337"
     inkscape:cx="154.28178"
     inkscape:cy="42.582627"
     inkscape:window-width="2560"
     inkscape:window-height="1523"
     inkscape:window-x="3840"
     inkscape:window-y="0"
     inkscape:window-maximized="1"
     inkscape:current-layer="svg69" />
  <path
     d="m 58.219628,68.656246 h 4.0124 c 0.9441,-0.0393 1.7309,-0.7877 1.7702,-1.7725 v -45.022 c 0.0393,-4.3723 -3.4617,-7.9567 -7.8281,-8.0355 0,0 0,0 -0.0394,0 h -5.1925 c -0.9441,-0.0394 -1.7308,-0.7878 -1.7308,-1.7725 V 7.9966459 c 0.0393,-4.3722 -3.4617,-7.95670002 -7.8282,-7.99610002421 0,0 0,0 -0.0393,0 H 7.8285277 C 3.4620277,0.03994588 -0.03897235,3.6244459 3.2765359e-4,7.9966459 c 0,0 0,0 0,0.0394 V 53.255046 c 0,4.3722 3.46170004641,7.9566 7.82820004641,8.0354 H 46.654428 c 0.3541,0 0.7081,0.1182 0.9835,0.3151 l 9.4803,6.8144 c 0.3933,0.1182 0.7474,0.2363 1.1014,0.2363 z m -9.441,-13.8256 H 8.0251277 c -0.9441,0 -1.7308,-0.7484 -1.7308,-1.6938 0,-0.0394 0,-0.0394 0,-0.0788 V 8.0754459 c 0,-0.9454 0.7867,-1.7332 1.7308,-1.7332 H 41.343928 c 0.9441,0.0394 1.7308,0.7878 1.7308,1.7726 v 3.9783001 c 0,0.9453 -0.7867,1.7331 -1.7308,1.7725 h -24.8219 c -0.9441,0.0394 -1.7308,0.8272 -1.7308,1.7725 v 30.0147 c 0,0.9454 0.7867,1.7332 1.7308,1.7726 h 30.9979 c 0.944,-0.0394 1.7308,-0.8272 1.7308,-1.7726 v -23.6336 c 0,-0.9453 0.7474,-1.7331 1.7308,-1.7725 h 5.0746 c 0.9441,0.0394 1.7308,0.8272 1.7308,1.7725 v 36.7897 c 0,0.5908 -0.4327,1.0635 -1.0228,1.1029 -0.236,0 -0.472,-0.0788 -0.6294,-0.1969 l -6.3333,-4.5298 c -0.3147,-0.2364 -0.6687,-0.3545 -1.0228,-0.3545 z m -6.6086,-13.8651 h -20.3374 c -0.4721,0 -0.8261,-0.3939 -0.8261,-0.8272 v -19.0644 c 0,-0.4727 0.354,-0.8666 0.8261,-0.8666 h 20.3374 c 0.472,0 0.8261,0.3939 0.8261,0.8272 v 19.0644 c 0.0393,0.4727 -0.3541,0.8666 -0.8261,0.8666 z M 221.19403,9.5722459 c 2.636,0.0394 4.839,-2.0483 4.878,-4.6874 0.039,-2.6391 -2.045,-4.84490002 -4.681,-4.88430002421 -2.636,-0.0392999958 -4.839,2.04830002421 -4.878,4.68740002421 0,0.0394 0,0.0788 0,0.1182 -0.039,2.5603 2.085,4.7267 4.681,4.7661 z m -53.499,7.0113001 v -2.6785 h -7.592 v 33.2053 h 7.553 v -22.6883 l 8.812,-3.742 v -7.7597 h -0.079 z m -29.267,-2.7179 c -4.917,0 -8.89,1.6544 -11.958,4.9631 -1.416,1.5755 -2.518,3.4269 -3.265,5.4357 -0.747,2.0876 -1.141,4.2541 -1.141,6.4993 0,4.6479 1.298,8.5081 3.934,11.5017 2.911,3.2693 6.923,4.8842 11.998,4.8842 4.956,0 8.89,-1.6543 11.919,-4.963 2.832,-3.1512 4.248,-7.0901 4.248,-11.8956 0,-4.8055 -1.376,-8.6657 -4.13,-11.6593 -2.911,-3.1905 -6.766,-4.7661 -11.605,-4.7661 z m 5.901,23.6336 c -1.416,1.812 -3.422,2.7573 -5.94,2.7573 -2.675,0 -4.917,-0.9454 -6.569,-2.7966 -0.826,-0.906 -1.416,-1.9695 -1.81,-3.1118 -0.432,-1.2211 -0.668,-2.4815 -0.668,-3.7814 0,-2.6785 0.708,-4.8843 2.124,-6.7356 1.573,-2.0088 3.697,-3.033 6.451,-3.033 2.754,0 4.839,0.9454 6.333,2.8361 1.417,1.7725 2.164,4.0965 2.164,6.9719 0.039,2.7966 -0.669,5.1206 -2.085,6.8931 z m 73.05,-23.5942 h 7.513 v 33.2446 h -7.513 z m -114.669,-0.0394 c -4.288002,0 -7.828002,1.2999 -10.542002,3.8602 -2.557,2.3633 -3.934,5.7114 -3.855,9.1777 -0.079,3.0724 1.14,6.066 3.383,8.193 -1.967,1.615 -2.911,3.5056 -2.911,5.7508 0,1.2211 0.157,2.4422 0.472,3.5845 0.314,1.1029 0.983,2.0482 1.888,2.7572 -3.383,1.9301 -5.035,5.0025 -4.917,9.2565 0.078,3.7026 1.652,6.6175 4.681,8.8233 3.029,2.2058 7.081,3.3481 12.037002,3.3481 4.957,0 8.654,-0.9848 11.172,-2.9149 2.518,-1.93 3.776,-4.7661 3.776,-8.4293 0,-3.6632 -0.983,-6.4992 -2.989,-8.4687 -1.22,-1.1423 -2.636,-2.0483 -4.17,-2.6785 -2.282,-0.8666 -4.681,-1.4968 -7.12,-1.8119 -3.029,-0.4727 -5.193002,-1.0241 -6.530002,-1.6937 -0.472,-0.1576 -0.905,-0.4727 -1.18,-0.8666 -0.197,-0.4333 -0.276,-0.8666 -0.276,-1.3392 0,-0.5909 0.394,-1.3787 1.141,-2.4028 1.81,0.5908 3.659002,0.906 5.547002,0.906 4.091,0 7.435,-1.2605 10.07,-3.7814 1.18,-1.1817 2.124,-2.5603 2.754,-4.0965 0.669,-1.6544 0.983,-3.4269 0.944,-5.1994 0,-1.8907 -0.433,-3.742 -1.298,-5.3964 0,0 0,-0.0394 -0.04,-0.0394 h 3.187 v -6.4992 z m -5.271002,35.9231 1.573,0.2758 c 4.406002,0.6696 7.514002,1.5755 9.284002,2.7572 1.613,1.0241 2.4,2.4028 2.4,4.0965 0,3.545 -2.479,5.2782 -7.435,5.2782 -2.911,0 -5.271002,-0.6302 -7.081002,-1.8119 -0.787,-0.5121 -1.455,-1.1817 -1.927,-1.9695 -0.472,-0.7878 -0.708,-1.6937 -0.708,-2.5997 0.039,-1.1423 0.354,-2.2058 0.904,-3.1905 0.787,-1.2211 1.77,-2.2058 2.99,-2.8361 z m 9.480002,-19.0644 c -1.141,1.1029 -2.675,1.6937 -4.248,1.6937 -2.164,0 -3.895002,-0.6302 -5.271002,-1.8513 -0.59,-0.5121 -1.062,-1.1423 -1.377,-1.8513 -0.315,-0.6696 -0.472,-1.418 -0.472,-2.1664 0,-0.7878 0.157,-1.5362 0.432,-2.2452 0.945,-2.5209 3.069,-3.7814 6.452002,-3.7814 2.006,0 3.619,0.5515 4.72,1.615 1.141,1.1029 1.77,2.6391 1.731,4.2146 -0.039,1.615 -0.747,3.23 -1.967,4.3723 z m 151.174,-9.611 c 0.59,1.6543 0.904,3.4268 0.865,5.1994 v 20.7188 h -7.395 v -1.5756 c -2.203,1.0241 -4.249,1.5756 -6.137,1.5756 -2.006,0.0394 -4.012,-0.197 -5.94,-0.6696 -1.495,-0.3939 -2.911,-1.0636 -4.17,-1.9695 -2.281,-1.7725 -3.461,-4.2935 -3.461,-7.6022 0,-2.9148 1.376,-5.4357 4.248,-7.3658 3.068,-2.127 7.278,-3.1905 12.588,-3.1905 l 1.22,0.0394 c 0.118,0 0.236,0 0.393,0 0.157,0 0.275,0.0394 0.433,0.0394 0.118,0.0393 0.275,0.0393 0.393,0.0393 0.157,0 0.275,0.0394 0.393,0.0394 -0.157,-3.2693 -1.573,-5.2388 -4.169,-5.7508 -0.905,-0.197 -1.81,-0.2757 -2.754,-0.2757 -0.944,0 -1.928,0.0787 -2.872,0.2757 -0.944,0.1969 -1.849,0.4333 -2.753,0.709 -1.928,0.6302 -3.344,1.3786 -4.17,2.1664 l -0.079,-0.0394 -0.904,-6.7749 c 3.579,-1.9301 7.592,-2.8755 11.643,-2.8361 6.609,0 10.779,2.4028 12.628,7.2477 z m -6.53,18.0797 v -7.1295 c -0.551,-0.0788 -1.141,-0.1182 -1.692,-0.1182 h -1.219 c -4.445,0 -7.238,1.0242 -8.458,3.033 -0.354,0.5515 -0.511,1.2211 -0.511,1.8513 0,0.5909 0.118,1.1817 0.354,1.7332 0.275,0.512 0.669,0.9453 1.18,1.2604 1.062,0.6302 2.596,0.9454 4.642,0.9454 1.967,-0.0788 3.933,-0.6303 5.704,-1.5756 z m 35.167,-10.6352 c 1.18,0.5515 2.203,1.2999 3.069,2.2846 1.416,1.5756 2.163,3.742 2.163,6.4993 0.039,2.7572 -1.219,5.3963 -3.383,7.0507 -2.36,1.8907 -5.664,2.836 -9.913,2.836 -5.114,0 -9.126,-0.8665 -11.958,-2.5997 v -8.1536 c 0,-0.0394 0.157,0.1182 0.472,0.4727 0.511,0.5121 1.101,0.9453 1.73,1.2998 0.905,0.5515 1.889,1.0242 2.911,1.3787 2.4,0.8271 4.918,1.2604 7.475,1.221 3.461,0 5.192,-1.1816 5.192,-3.545 0.039,-0.709 -0.354,-1.3786 -0.983,-1.6938 -1.181,-0.6302 -2.911,-1.1029 -5.193,-1.418 -1.927,-0.2363 -3.816,-0.7484 -5.664,-1.418 -1.338,-0.512 -2.557,-1.2604 -3.62,-2.2058 -1.691,-1.6543 -2.556,-3.7814 -2.556,-6.3811 0,-3.1905 1.219,-5.7114 3.619,-7.5627 2.399,-1.8513 5.703,-2.7179 9.913,-2.7179 4.209,0 7.749,1.1817 10.699,3.6238 -0.118,0.5515 -0.275,1.0635 -0.432,1.5362 -0.472,1.3786 -0.826,2.3634 -1.062,2.9148 l -0.709,1.8119 c -0.039,0.0788 -0.039,0.197 -0.078,0.2758 -0.197,-0.197 -0.354,-0.4333 -0.472,-0.6697 -1.259,-1.4968 -3.265,-2.4815 -5.901,-2.9542 -0.826,-0.1969 -1.652,-0.2757 -2.517,-0.2757 -3.659,0 -5.468,1.1029 -5.468,3.3875 0,0.7484 0.432,1.4574 1.14,1.7725 1.417,0.7878 3.383,1.3787 5.862,1.7332 2.478,0.3939 4.327,0.8665 5.664,1.4967 z m -91.459,-14.6922 c -4.288,0 -7.828,1.2999 -10.542,3.8602 -2.557,2.3633 -3.934,5.7114 -3.856,9.1777 -0.078,3.0724 1.141,6.066 3.383,8.1536 -1.966,1.615 -2.91,3.5057 -2.91,5.7508 0,1.2211 0.157,2.4422 0.472,3.5845 0.314,1.1029 0.983,2.0482 1.888,2.7572 -3.383,1.9301 -5.035,5.0025 -4.917,9.2565 0.078,3.7026 1.652,6.6175 4.681,8.8233 3.029,2.2058 7.08,3.3481 12.037,3.3481 4.956,0 8.654,-0.9848 11.172,-2.9148 2.517,-1.9301 3.776,-4.7662 3.776,-8.4294 0,-3.6632 -0.983,-6.4992 -2.989,-8.4687 -1.22,-1.1423 -2.636,-2.0482 -4.17,-2.6785 -2.282,-0.8665 -4.681,-1.4968 -7.12,-1.8119 -3.029,-0.4727 -5.193,-1.0241 -6.53,-1.6937 -0.472,-0.1576 -0.905,-0.4727 -1.18,-0.8666 -0.197,-0.4333 -0.276,-0.8666 -0.276,-1.3392 0,-0.5909 0.394,-1.3787 1.141,-2.4028 1.81,0.5908 3.658,0.906 5.547,0.906 4.091,0 7.434,-1.2605 10.07,-3.7814 1.18,-1.1817 2.124,-2.5603 2.754,-4.0965 0.668,-1.6544 0.983,-3.4269 0.944,-5.1994 0,-1.8907 -0.433,-3.742 -1.298,-5.3964 0,0 0,-0.0393 -0.04,-0.0393 h 3.186 v -6.4993 z m -5.271,35.9231 1.573,0.2758 c 4.406,0.6696 7.514,1.5755 9.284,2.7572 1.613,1.0241 2.399,2.4028 2.399,4.0965 0,3.545 -2.478,5.2782 -7.434,5.2782 -2.911,0 -5.272,-0.6302 -7.081,-1.8119 -0.787,-0.5121 -1.456,-1.1817 -1.928,-1.9695 -0.472,-0.7878 -0.747,-1.6937 -0.708,-2.5997 0.04,-1.1423 0.354,-2.2058 0.905,-3.1905 0.748,-1.2211 1.77,-2.2058 2.99,-2.8361 z m 9.48,-19.0644 c -1.141,1.1029 -2.675,1.6937 -4.248,1.6937 -2.164,0 -3.895,-0.6302 -5.272,-1.8513 -0.59,-0.5121 -1.062,-1.1423 -1.376,-1.8513 -0.315,-0.6696 -0.472,-1.418 -0.472,-2.1664 0,-0.7878 0.157,-1.5362 0.432,-2.2452 0.944,-2.5209 3.069,-3.7814 6.412,-3.7814 2.006,0 3.619,0.5515 4.721,1.615 1.141,1.1029 1.77,2.6391 1.731,4.2146 0,1.615 -0.708,3.23 -1.928,4.3723 z"
     fill="#ffffff"
     id="path67" />
</svg>
