<svg width="54" height="53" viewBox="0 0 54 53" fill="none" xmlns="http://www.w3.org/2000/svg">
<g clip-path="url(#clip0_71_215)">
<mask id="mask0_71_215" style="mask-type:luminance" maskUnits="userSpaceOnUse" x="1" y="0" width="53" height="53">
<path d="M53.2986 0H1.29858V53H53.2986V0Z" fill="white"/>
</mask>
<g mask="url(#mask0_71_215)">
<path d="M17.2644 44.2173V49.1705C17.2644 50.5774 16.5679 51.3281 15.3022 51.3281C14.0295 51.3281 13.3288 50.5557 13.3288 49.1104V44.2227H11.5777V49.1705C11.5777 51.6049 12.9269 53 15.2792 53C17.6537 53 19.0155 51.5782 19.0155 49.0991V44.2173H17.2644ZM23.7068 44.2173L19.9038 52.8651H21.6911L22.4252 51.1903L22.4778 51.0648H26.4287L27.2035 52.8651H29.0395L25.2718 44.2685L25.2379 44.2173H23.7068ZM34.1183 44.2173L32.1586 50.1676L30.2509 44.2217H28.3874L31.3955 52.8705H32.8455L34.8092 47.189L36.7714 52.8705H38.2337L41.2344 44.2217H39.4186L37.5069 50.1676L35.5467 44.2173H34.1183ZM51.254 44.2173V52.8577H52.982V44.2173H51.254ZM1.69165 44.2178V52.8701H3.44318V49.356H7.398V52.8701H9.15002V44.2178H7.398V47.7082H3.44318V44.2178H1.69165ZM42.6466 44.2237V52.8641H49.1656V51.2887H44.3746V49.1463H47.5604V47.5704H44.3746V45.7991H48.9987V44.2237H42.6466ZM24.4488 46.4069L25.6975 49.3038H25.6931L25.7781 49.5036H23.1289L23.2129 49.3038H23.2114L24.4488 46.4069Z" fill="white"/>
<path d="M23.5024 -0.000376663C22.8077 0.0612155 20.9303 0.489525 20.9303 0.489525C16.6987 1.5858 15.6977 5.4347 15.6977 5.4347C15.4911 6.08192 15.3972 6.74521 15.3696 7.37011V8.22064C15.4258 9.53472 15.7173 10.5159 15.7173 10.5159C17.1308 16.798 24.0808 27.1204 25.5745 29.2888C25.6804 29.3941 25.7653 29.3561 25.7653 29.3561C25.9265 29.3114 25.9139 29.1565 25.9139 29.1565L25.917 29.1572C28.2176 6.10897 23.5024 -0.000376663 23.5024 -0.000376663ZM31.1042 -0.000376663C31.1042 -0.000376663 26.3685 6.1122 28.6709 29.1739H28.6739C28.6917 29.3203 28.7954 29.3508 28.7954 29.3508C28.9494 29.4106 29.0284 29.2622 29.0284 29.2622L29.0292 29.2637C30.5612 27.0399 37.4715 16.7738 38.8788 10.5158C38.8788 10.5158 39.6418 7.48694 38.9052 5.43458C38.9052 5.43458 37.8591 1.52608 33.6221 0.493198C33.6221 0.493198 32.401 0.18263 31.1042 -0.000376663ZM9.26057 6.91876C9.26057 6.91876 5.22862 10.7544 5.02823 14.8207H5.02983V15.4369C5.03289 15.4833 5.03523 15.5302 5.03815 15.5775C5.21183 18.8564 7.6729 20.7971 7.6729 20.7971C11.6382 24.6706 21.2397 29.5611 23.4709 30.6707C23.5021 30.6825 23.6174 30.7202 23.6851 30.6345C23.6851 30.6345 23.7203 30.6077 23.7364 30.5596V30.4574C23.7348 30.4516 23.7317 30.4457 23.7288 30.4393C17.6187 17.0609 9.26057 6.91876 9.26057 6.91876ZM45.3362 6.91876C45.3362 6.91876 37.0026 17.0292 30.8953 30.3805L30.8976 30.3797C30.8976 30.3797 30.8255 30.5345 30.9421 30.6345C30.9421 30.6345 30.9769 30.6608 31.0251 30.6715H31.1096C31.1247 30.6671 31.141 30.6613 31.1571 30.6503V30.6517C33.4488 29.5117 42.976 24.6534 46.9226 20.7977C46.9226 20.7977 49.4219 18.7861 49.5528 15.5562C49.8414 11.0703 45.3362 6.91876 45.3362 6.91876ZM52.8369 20.2006C52.8369 20.2006 39.2506 27.5084 32.2258 32.2577L32.2266 32.2584L32.2282 32.2599C32.2282 32.2599 32.1007 32.3436 32.1453 32.4935C32.1453 32.4935 32.2119 32.6145 32.3089 32.6145C34.8251 32.6189 44.3464 32.6304 44.5851 32.5858C44.5851 32.5858 45.8162 32.5365 47.3375 31.9507C47.3375 31.9507 50.7242 30.8715 52.4833 27.0176C52.4833 27.0176 53.2871 25.4062 53.2987 23.1422V23.0463C53.2928 22.1732 53.1699 21.2067 52.8369 20.2006ZM1.75609 20.2347C0.519941 24.0703 2.18411 27.1609 2.1868 27.1659C3.92107 30.8387 7.23152 31.9515 7.23152 31.9515C8.75992 32.5809 10.2887 32.6244 10.2887 32.6244C10.5274 32.6682 19.795 32.6288 22.2782 32.6171C22.3833 32.6163 22.4411 32.5104 22.4411 32.5104C22.4484 32.4987 22.4549 32.487 22.4578 32.4763V32.3804C22.4372 32.3162 22.3823 32.2708 22.3823 32.2708L22.3839 32.27C15.3627 27.5223 1.75609 20.2347 1.75609 20.2347ZM21.9946 33.7963L6.01182 34.358C7.74508 37.4548 10.6641 39.8616 13.7049 39.1225C15.8033 38.5966 20.5572 35.2731 22.1266 34.1501L22.1213 34.1457C22.2434 34.0358 22.1998 33.9476 22.1998 33.9476C22.1596 33.8038 21.9946 33.8039 21.9946 33.8039V33.7963ZM32.5804 33.8079L32.5788 33.8138C32.5788 33.8138 32.4384 33.8316 32.3992 33.937C32.3992 33.937 32.3651 34.081 32.4596 34.1524L32.458 34.1539C33.9882 35.2537 38.6269 38.5042 40.8616 39.1354C40.8616 39.1354 41.2001 39.2508 41.7675 39.2714H42.1084C43.6056 39.2188 46.2139 38.4478 48.584 34.3663L32.5804 33.8079Z" fill="white"/>
</g>
</g>
<defs>
<clipPath id="clip0_71_215">
<rect width="53" height="53" fill="white" transform="translate(0.30127)"/>
</clipPath>
</defs>
</svg>
