<svg width="230" height="126" viewBox="0 0 230 126" fill="none" xmlns="http://www.w3.org/2000/svg">
<g clip-path="url(#clip0_102_108)">
<path d="M95.6644 69.3089H102.192V103.623H95.6644V69.3089Z" fill="white"/>
<path d="M123.347 75.6342V97.2985H126.436C129.478 97.2985 131.682 96.9573 133.054 96.27C134.423 95.5847 135.545 94.4327 136.414 92.8106C137.288 91.1914 137.722 89.1981 137.722 86.8299C137.722 83.1837 136.685 80.3553 134.61 78.3455C132.74 76.5392 129.738 75.6342 125.607 75.6342H123.347ZM116.819 69.3089H124.642C129.685 69.3089 133.437 69.9288 135.887 71.1646C138.336 72.4008 140.357 74.4108 141.945 77.1934C143.529 79.9779 144.322 83.2277 144.322 86.9443C144.322 89.5891 143.877 92.0193 142.993 94.2341C142.103 96.4521 140.881 98.2915 139.317 99.7523C137.753 101.213 136.059 102.224 134.237 102.784C132.413 103.344 129.256 103.623 124.764 103.623H116.819V69.3089Z" fill="white"/>
<path d="M157.8 69.3089H176.796V75.6342H164.327V81.8853H176.796V88.2103H164.327V97.2985H176.796V103.623H157.8V69.3089Z" fill="white"/>
<path d="M204.067 78.4329L199.395 90.2463H208.699L204.067 78.4329ZM200.719 69.3089H207.385L220.643 103.623H213.798L211.11 96.572H196.978L194.189 103.623H187.345L200.719 69.3089Z" fill="white"/>
<path d="M31.2245 61.8868C29.6696 71.2177 40.72 79.7698 46.859 84.5844C52.8499 89.2771 60.5922 95.1161 57.8305 100.174C56.5243 102.565 58.7406 104.335 59.9951 100.715C62.9512 92.1958 57.6983 87.81 51.6507 83.0703C45.4508 78.2096 39.7191 73.2248 41.0595 65.1646C42.9665 50.8865 57.3071 44.9601 69.3154 45.2941C74.4608 45.4424 74.9023 41.2354 71.0686 40.9549C59.1656 40.0916 33.3048 46.3021 31.2245 61.8868Z" fill="white"/>
<path d="M51.5771 109.889C52.5333 113.805 58.3599 119.44 65.9393 115.389C67.9982 114.288 66.3827 110.367 63.7089 111.788C61.9968 112.697 57.5002 113.421 55.6431 108.685C54.5066 105.795 50.991 107.487 51.5771 109.889Z" fill="white"/>
<path d="M52.3924 121.132C53.4218 123.794 58.0309 127.209 62.9796 123.667C64.3219 122.704 62.8258 120.103 61.0781 121.347C59.9612 122.139 56.8748 123.061 55.1339 119.914C54.0706 117.987 51.7596 119.497 52.3924 121.132Z" fill="white"/>
<path d="M20.8979 66.1868C17.0215 65.2076 9.78327 65.0411 1.64604 71.5307C-1.74967 74.2438 3.54049 78.4096 5.92105 75.5052C9.79219 70.7835 13.3863 67.3969 20.6084 67.5969C21.7987 67.6325 22.1419 66.4997 20.8979 66.1868Z" fill="white"/>
<path d="M32.9795 36.285C31.2566 31.2824 25.4017 24.0622 13.3755 20.5932C9.67601 19.5262 6.79857 23.6994 11.524 25.2183C17.9991 27.3024 26.2024 28.8429 31.2066 36.9892C32.0323 38.3293 33.53 37.8932 32.9795 36.285Z" fill="white"/>
<path d="M67.1618 25.8529C68.1519 19.9874 68.9814 13.48 67.5818 2.45128C67.0991 -1.36633 61.2748 -0.424737 62.5527 4.37427C64.381 11.239 65.4745 16.9453 65.4319 25.8438C65.4246 27.4167 66.8832 27.5275 67.1618 25.8529Z" fill="white"/>
<path d="M96.1087 118.3C96.3228 118.349 96.5863 118.366 96.9487 118.366C98.2829 118.366 99.1059 117.691 99.1059 116.571C99.1059 115.549 98.4146 114.94 97.1464 114.94C96.6358 114.94 96.2899 114.973 96.1087 115.022V118.3ZM93.622 113.26C94.3957 113.129 95.4828 113.03 97.0146 113.03C98.5624 113.03 99.6824 113.326 100.424 113.936C101.132 114.479 101.593 115.401 101.593 116.488C101.593 117.591 101.247 118.514 100.588 119.123C99.7318 119.914 98.4471 120.293 96.9652 120.293C96.6357 120.293 96.3393 120.276 96.1087 120.227V124.212H93.622V113.26Z" fill="white"/>
<path d="M113.011 121.627C113.011 122.68 113.044 123.537 113.077 124.212H110.903L110.788 123.076H110.739C110.426 123.57 109.668 124.393 108.219 124.393C106.572 124.393 105.386 123.372 105.386 120.885V116.159H107.89V120.49C107.89 121.66 108.268 122.368 109.157 122.368C109.849 122.368 110.261 121.89 110.409 121.494C110.475 121.346 110.508 121.166 110.508 120.951V116.159H113.011V121.627Z" fill="white"/>
<path d="M119.996 120.787C119.996 120.951 120.012 121.1 120.045 121.231C120.209 121.89 120.786 122.417 121.51 122.417C122.581 122.417 123.24 121.594 123.24 120.144C123.24 118.893 122.68 117.905 121.51 117.905C120.835 117.905 120.209 118.415 120.045 119.14C120.012 119.288 119.996 119.436 119.996 119.601V120.787ZM117.492 112.519H119.996V117.114H120.029C120.506 116.423 121.346 115.978 122.465 115.978C124.393 115.978 125.792 117.575 125.776 120.045C125.776 122.944 123.948 124.393 122.104 124.393C121.164 124.393 120.242 124.047 119.682 123.093H119.65L119.551 124.212H117.426C117.459 123.685 117.492 122.714 117.492 121.807V112.519Z" fill="white"/>
<path d="M129.812 112.519H132.315V124.212H129.812V112.519Z" fill="white"/>
<path d="M136.795 124.212V116.159H139.299V124.212H136.795ZM138.031 115.105C137.191 115.105 136.647 114.512 136.647 113.771C136.647 113.013 137.208 112.437 138.064 112.437C138.92 112.437 139.447 113.013 139.464 113.771C139.464 114.512 138.92 115.105 138.048 115.105H138.031Z" fill="white"/>
<path d="M149.823 124.015C149.379 124.229 148.539 124.393 147.583 124.393C144.981 124.393 143.318 122.796 143.318 120.26C143.318 117.905 144.932 115.978 147.929 115.978C148.588 115.978 149.313 116.093 149.84 116.29L149.445 118.152C149.148 118.02 148.703 117.905 148.044 117.905C146.727 117.905 145.871 118.844 145.887 120.16C145.887 121.643 146.876 122.433 148.094 122.433C148.687 122.433 149.148 122.335 149.526 122.17L149.823 124.015Z" fill="white"/>
<path d="M159.641 121.643C160.299 121.989 161.353 122.335 162.424 122.335C163.576 122.335 164.186 121.857 164.186 121.116C164.186 120.441 163.659 120.029 162.325 119.568C160.481 118.909 159.262 117.888 159.262 116.258C159.262 114.364 160.859 112.931 163.461 112.931C164.73 112.931 165.635 113.178 166.294 113.491L165.734 115.5C165.306 115.286 164.499 114.973 163.428 114.973C162.341 114.973 161.814 115.483 161.814 116.044C161.814 116.751 162.424 117.065 163.873 117.624C165.833 118.349 166.739 119.371 166.739 120.951C166.739 122.812 165.322 124.393 162.276 124.393C161.007 124.393 159.756 124.047 159.13 123.702L159.641 121.643Z" fill="white"/>
<path d="M176.885 124.015C176.44 124.229 175.6 124.393 174.645 124.393C172.043 124.393 170.38 122.796 170.38 120.26C170.38 117.905 171.994 115.978 174.991 115.978C175.649 115.978 176.374 116.093 176.902 116.29L176.506 118.152C176.21 118.02 175.765 117.905 175.106 117.905C173.789 117.905 172.933 118.844 172.949 120.16C172.949 121.643 173.937 122.433 175.156 122.433C175.749 122.433 176.21 122.335 176.588 122.17L176.885 124.015Z" fill="white"/>
<path d="M180.739 112.519H183.243V117.13H183.276C183.539 116.768 183.869 116.488 184.264 116.29C184.643 116.093 185.104 115.978 185.565 115.978C187.163 115.978 188.381 117.081 188.381 119.519V124.212H185.878V119.782C185.878 118.728 185.516 118.004 184.577 118.004C183.918 118.004 183.507 118.431 183.325 118.893C183.259 119.041 183.243 119.255 183.243 119.436V124.212H180.739V112.519Z" fill="white"/>
<path d="M196.617 122.599C197.605 122.599 198.215 121.627 198.215 120.178C198.215 118.992 197.754 117.773 196.617 117.773C195.432 117.773 194.97 118.992 194.97 120.194C194.97 121.561 195.546 122.599 196.601 122.599H196.617ZM196.568 124.393C194.213 124.393 192.401 122.846 192.401 120.243C192.401 117.641 194.114 115.978 196.716 115.978C199.17 115.978 200.817 117.674 200.817 120.111C200.817 123.043 198.725 124.393 196.584 124.393H196.568Z" fill="white"/>
<path d="M208.639 122.599C209.628 122.599 210.237 121.627 210.237 120.178C210.237 118.992 209.776 117.773 208.639 117.773C207.454 117.773 206.992 118.992 206.992 120.194C206.992 121.561 207.569 122.599 208.623 122.599H208.639ZM208.59 124.393C206.235 124.393 204.423 122.846 204.423 120.243C204.423 117.641 206.136 115.978 208.738 115.978C211.192 115.978 212.839 117.674 212.839 120.111C212.839 123.043 210.747 124.393 208.607 124.393H208.59Z" fill="white"/>
<path d="M216.859 112.519H219.362V124.212H216.859V112.519Z" fill="white"/>
<path d="M223.826 122.038C224.287 122.318 225.242 122.631 225.983 122.631C226.741 122.631 227.054 122.384 227.054 121.972C227.054 121.544 226.807 121.346 225.885 121.034C224.205 120.49 223.563 119.568 223.579 118.629C223.579 117.114 224.864 115.978 226.856 115.978C227.795 115.978 228.619 116.208 229.112 116.455L228.684 118.168C228.322 117.987 227.614 117.724 226.939 117.724C226.329 117.724 225.983 117.97 225.983 118.366C225.983 118.761 226.296 118.959 227.285 119.304C228.816 119.815 229.442 120.605 229.458 121.775C229.458 123.29 228.289 124.393 225.983 124.393C224.929 124.393 223.99 124.146 223.381 123.817L223.826 122.038Z" fill="white"/>
</g>
<defs>
<clipPath id="clip0_102_108">
<rect width="228.919" height="125.093" fill="white" transform="translate(0.540283 0.0927734)"/>
</clipPath>
</defs>
</svg>
