<svg width="225" height="25" viewBox="0 0 225 25" fill="none" xmlns="http://www.w3.org/2000/svg">
<path d="M6.72336 12.6258C10.0713 12.6258 12.7929 9.87417 12.7929 6.47701C12.7929 3.07986 10.0713 0.322744 6.72336 0.322744C3.3646 0.322744 0.648438 3.07986 0.648438 6.47701C0.648438 9.87417 3.3646 12.6258 6.72336 12.6258Z" fill="white"/>
<path d="M31.6494 11.8654V0.317286C24.2083 0.317286 19.802 3.75273 17.5826 6.59737C15.3092 9.49672 12.1665 12.7626 6.96095 12.7626V24.3107C12.8091 24.3107 17.0966 22.0186 20.2016 18.6324C23.3012 15.2516 25.3261 11.8654 31.6494 11.8654Z" fill="white"/>
<path d="M39.7547 0.295391C38.205 0.355566 37.3734 1.74506 37.3734 3.19473V21.4879C37.3734 23.0525 38.5614 24.2615 39.8735 24.2615C41.1857 24.2615 42.2549 23.4464 42.2549 21.5208V3.07438C42.2549 1.26913 41.5421 0.295391 39.7547 0.295391Z" fill="white"/>
<path d="M51.3754 9.02626V21.6083C51.3754 23.5394 50.3926 24.2615 49.0858 24.2615C47.7736 24.2615 46.5749 23.058 46.5749 21.488V3.19475C46.5749 1.74508 47.4982 0.355581 49.0534 0.300876C51.4996 0.300876 51.6724 1.59737 52.2124 2.31948L60.4419 14.8304V3.19475C60.4419 1.74508 61.2681 0.355581 62.8233 0.300876C64.6106 0.300876 65.4152 1.26368 65.4152 3.0744V21.57C65.4152 23.4956 64.346 24.3107 63.0339 24.3107C60.9765 24.3107 60.7011 23.0744 59.9883 21.9912" fill="white"/>
<path d="M78.5587 4.55689L78.5641 21.5645C78.5641 23.5011 77.4895 24.3107 76.1827 24.3107C74.8705 24.3107 73.6771 23.1072 73.6771 21.5372L73.6933 4.55689L69.2708 4.53501C67.4726 4.53501 66.4574 3.95514 66.4034 2.39059C66.4034 0.694749 67.1054 0.350109 69.1304 0.350109H83.4132C84.8388 0.350109 85.9026 0.672867 85.9026 2.35777C85.9026 3.81291 85.0656 4.53501 83.154 4.53501" fill="white"/>
<path d="M104.851 2.40152C104.851 0.815085 103.955 0.366507 102.297 0.366507H88.797C87.636 0.366507 86.8746 1.22537 86.8746 2.89933V22.1882C86.8746 23.3151 87.3606 24.2669 88.7052 24.2669H102.702C104.376 24.2669 105.029 23.616 105.029 22.4507C105.029 21.0448 104.316 20.279 102.659 20.279H91.9235V13.7637H101.449C102.329 13.7637 103.388 13.3424 103.334 11.6794C103.285 10.4103 102.572 9.82493 101.044 9.82493H91.9235V4.349H102.432C103.76 4.349 104.851 3.99889 104.851 2.40152Z" fill="white"/>
<path d="M117.325 11.1816H112.276V3.98249H117.282C118.858 3.98249 121.305 4.75929 121.305 7.5164C121.305 10.2571 119.145 11.1816 117.325 11.1816ZM125.641 20.5799C125.495 19.6991 125.462 18.4956 125.462 17.8173C125.371 14.1357 123.378 13.0416 121.17 12.8118C124.496 12.3468 125.905 10.3501 125.905 7.14441C125.905 0.995616 120.689 0.355571 116.963 0.355571H110.845C109.23 0.355571 107.259 0.716622 107.259 3.62144V21.0339C107.259 23.5284 107.934 24.2998 109.765 24.2998C111.601 24.2998 112.314 23.5667 112.314 21.0339V14.1685H115.402C117.843 14.1958 120.813 14.7538 120.813 19.174C120.813 22.4836 120.9 24.3873 123.762 24.3873C124.523 24.3873 125.473 24.0262 125.905 22.9869C126.267 22.1225 125.765 21.3348 125.641 20.5799Z" fill="white"/>
<path d="M173.959 17.2921C171.308 17.2921 169.159 15.1149 169.159 12.4234C169.159 9.73195 171.308 7.5547 173.959 7.5547C176.611 7.5547 178.765 9.73195 178.765 12.4234C178.765 15.1149 176.611 17.2921 173.959 17.2921ZM195.446 12.2812H192.789V6.89278H194.717C196.326 6.89278 197.876 8.04705 197.876 9.43654C197.876 11.209 197.017 12.2812 195.446 12.2812ZM155.535 12.6641H152.619V6.93107H155.303C157.031 6.93107 158.078 8.20022 158.1 9.52954C158.143 11.6521 156.858 12.6696 155.535 12.6641ZM218.239 0.35011H204.161C202.86 0.35011 202.368 1.07768 202.368 2.43983V3.9825C201.699 2.30853 198.615 0.35011 195.84 0.35011H187.659C186.493 0.35011 185.958 0.672867 185.958 2.21554V8.6488C185.11 6.2035 181.984 0 174.019 0C170.228 0 165.741 1.66849 163.375 5.38293C161.545 2.15536 158.542 0.415756 154.482 0.415756H148.126C146.879 0.415756 146.204 0.415755 146.204 2.00766V13.2166C145.07 10.7221 142.402 8.95514 139.637 8.95514H136.144C134.534 8.95514 134.048 8.07987 134.048 7.2593C134.048 6.81072 134.329 6.22538 135.155 6.22538H142.721C143.703 6.22538 144.465 5.99015 144.465 4.72101V1.92013C144.465 0.787748 143.925 0.415756 142.316 0.415756H134.534C131.543 0.415756 126.974 2.25383 126.974 7.87746C126.974 13.4902 132.925 15.1149 135.652 15.1149H138.606C139.589 15.1149 139.816 15.7932 139.816 16.2035C139.816 16.7943 139.546 17.3851 138.741 17.3851H129.89C128.632 17.3851 128.362 17.8939 128.362 19.0645V22.7845C128.362 23.7363 128.675 24.2779 129.89 24.2779H139.675C141.776 24.2779 146.204 22.686 146.204 19.2888V22.8282C146.204 23.6871 146.43 24.3217 147.37 24.3217H151.625C152.732 24.3217 152.775 23.5503 152.732 22.7352V20.1969C152.732 19.546 153.18 19.256 153.807 19.256C156.496 19.256 161.831 18.3096 161.831 16.0011C162.97 20.1368 167.447 25 174.019 25C180.59 25 185.958 19.4256 185.958 14.8578V22.3796C185.958 23.1893 185.958 24.3217 187.162 24.3217H191.59C192.351 24.3217 192.762 23.8238 192.762 22.7845V16.0339L197.892 23.4573C198.254 23.8238 198.486 24.2779 199.242 24.2779H204.518C205.225 24.2779 205.101 23.6871 204.739 23.1017C204.377 22.5109 200.538 16.5317 200.538 16.5317C203.173 14.9015 204.599 13.1346 204.599 9.23414C204.599 8.5558 204.555 7.8337 204.518 7.5547H208.092V22.7845C208.092 23.5996 208.405 24.2779 209.653 24.2779H214.178C215.425 24.2779 215.296 23.5996 215.296 22.8282V7.5547H218.066C219.718 7.5547 219.988 7.24289 219.988 5.83698V1.67396C219.988 0.765866 219.583 0.35011 218.239 0.35011Z" fill="white"/>
<path d="M223.288 2.89387H223.363C223.666 2.89387 223.882 2.80635 223.882 2.5C223.882 2.17724 223.655 2.1116 223.363 2.1116H223.288V2.89387ZM224.648 4.29978H223.979L223.293 3.25492H223.288V4.29978H222.737V1.70131H223.487C224.038 1.70131 224.427 1.93107 224.427 2.48359C224.427 2.80635 224.222 3.14552 223.849 3.20022" fill="white"/>
</svg>
