<svg width="67" height="37" viewBox="0 0 67 37" fill="none" xmlns="http://www.w3.org/2000/svg">
<path fill-rule="evenodd" clip-rule="evenodd" d="M42.2019 0.598267H6.26782V36.4018H42.2019V0.598267ZM22.7592 31.3855C23.6469 32.0084 24.6056 32.5244 25.6151 32.9228L24.9556 34.4571C23.6515 33.9698 22.4328 33.2804 21.3446 32.4143C20.075 33.1049 18.6487 33.4592 17.2024 33.4431C15.7425 33.4626 14.305 33.0842 13.0452 32.3489C11.8107 31.6285 10.8148 30.5638 10.1803 29.2862C9.49434 27.9003 9.15056 26.3711 9.17757 24.826C9.15969 23.2809 9.50622 21.7532 10.1893 20.3658C10.8127 19.0701 11.8199 17.996 13.0751 17.2883C14.3514 16.5795 15.792 16.2166 17.2531 16.2357C18.7263 16.2152 20.1776 16.5933 21.452 17.3299C22.6868 18.0469 23.6814 19.1113 24.311 20.3896C24.9853 21.7706 25.3237 23.2905 25.2988 24.826C25.3177 26.0873 25.1033 27.3412 24.6661 28.525C24.2502 29.6064 23.6001 30.5831 22.7621 31.3855H22.7592ZM17.85 28.5667C19.0107 28.8631 20.0944 29.4034 21.0283 30.1515C22.3453 28.98 23.0039 27.2058 23.0039 24.829C23.0315 23.6197 22.7932 22.4191 22.3055 21.3114C21.8735 20.346 21.1643 19.5297 20.2673 18.9653C19.1522 18.294 17.8441 18.0128 16.5504 18.1663C15.2567 18.3198 14.0514 18.8993 13.1258 19.8128C12.0296 20.9387 11.4815 22.6158 11.4815 24.8439C11.4815 27.0105 12.0246 28.6717 13.1109 29.8274C13.6373 30.3941 14.2792 30.8419 14.9937 31.1409C15.7081 31.4399 16.4785 31.5831 17.2531 31.5609C18.0304 31.5665 18.8007 31.4158 19.5182 31.1179C18.8384 30.6802 18.09 30.3586 17.3038 30.1664L17.85 28.5667ZM31.4883 18.4866V33.1606H33.7176V18.4866H39.2923V16.5211H25.9345V18.4866H31.4883Z" fill="white"/>
<path d="M3.35517 16.5241H0.717041V33.1606H3.35517V16.5241Z" fill="white"/>
<path d="M47.7497 16.5241H45.1116V33.1606H47.7497V16.5241Z" fill="white"/>
<path d="M59.0545 33.5561C57.4719 33.575 55.9086 33.2086 54.5004 32.4887C53.1649 31.8107 52.0755 30.7336 51.3848 29.4081C50.6755 28.0183 50.316 26.4773 50.3373 24.9182C50.3289 23.333 50.6842 21.7667 51.3759 20.3391C52.0091 18.9836 53.0654 17.8685 54.387 17.1604C55.786 16.4477 57.3403 16.0912 58.9112 16.1227C60.0492 16.1082 61.1796 16.3101 62.2417 16.7174C63.1626 17.0578 63.9783 17.6318 64.6083 18.3825C65.2338 19.2046 65.6782 20.1489 65.9124 21.1538L65.9393 21.2609L63.719 21.8555L63.6861 21.7515C63.4957 21.0487 63.1815 20.3852 62.758 19.792C62.3452 19.2865 61.8073 18.897 61.1972 18.662C60.4712 18.3702 59.694 18.2257 58.9112 18.2368C58.0245 18.2171 57.1424 18.3706 56.3149 18.6888C55.6468 18.9487 55.046 19.3552 54.5571 19.8782C54.1217 20.3535 53.7678 20.897 53.5096 21.4868C53.0825 22.5399 52.8676 23.6665 52.877 24.8023C52.8357 26.0665 53.0976 27.3224 53.641 28.4656C54.1222 29.4122 54.8994 30.1771 55.8553 30.6451C56.8155 31.1186 57.8727 31.3638 58.9441 31.3617C60.6862 31.3296 62.373 30.7465 63.7607 29.6966V26.7647H58.7829V24.5792L66.1512 24.5644V30.9097L66.1094 30.9425C65.0819 31.7743 63.9286 32.4387 62.6924 32.9109C61.5284 33.3418 60.2961 33.5603 59.0545 33.5561Z" fill="white"/>
</svg>
