<svg width="383" height="147" viewBox="0 0 383 147" fill="none" xmlns="http://www.w3.org/2000/svg">
<path d="M310.423 0.842834L0 1.04335L0.0178376 7.41442L316.791 7.20934L310.423 0.842834Z" fill="url(#paint0_linear_1_771)"/>
<path d="M6.36795 7.41441L6.46714 146.121L0.094841 146.126L2.04369e-05 1.04791L6.36795 7.41441Z" fill="url(#paint1_linear_1_771)"/>
<path d="M85.366 93.3132C85.3718 99.8906 83.6002 110.629 68.3708 110.636C59.856 110.646 51.5641 105.995 51.549 94.8375L51.5536 90.3974L61.7064 90.3942L61.7026 92.6833C61.7121 97.6261 62.9293 101.201 68.2211 101.193C74.154 101.188 74.1467 96.4039 74.1448 92.8177L74.131 58.3316L85.3448 58.3301L85.366 93.3132Z" fill="#221E1F"/>
<path d="M125.97 75.4688C125.256 70.3876 120.403 66.5279 114.823 66.5337C104.731 66.5426 100.947 75.1252 100.959 84.0716C100.957 92.5821 104.759 101.171 114.838 101.166C121.701 101.163 125.563 96.4327 126.41 89.7112L137.291 89.7053C136.151 102.435 127.355 110.601 114.847 110.606C99.0443 110.623 89.7373 98.8191 89.7346 84.0796C89.7228 68.9144 99.0071 57.0955 114.807 57.0831C126.031 57.08 135.474 63.6509 136.847 75.4575L125.97 75.4688Z" fill="#221E1F"/>
<path d="M152.5 67.7207L160.498 67.7262C171.661 67.7125 175.238 74.2868 175.244 84.5985C175.25 95.9029 169.037 99.9165 162.53 99.9161L152.524 99.9282L152.5 67.7207ZM141.296 109.365L163.327 109.357C178.911 109.349 186.474 98.3276 186.466 83.5208C186.456 66.5578 176.514 58.2629 163.293 58.2771L141.266 58.2886L141.296 109.365Z" fill="#221E1F"/>
<path d="M199.342 86.8723C199.489 84.0065 201.342 79.0002 207.783 78.9919C212.704 78.988 214.923 81.707 215.863 86.8613L199.342 86.8723ZM226.015 93.2894C226.724 81.9166 220.644 71.3244 208.055 71.3294C196.829 71.352 189.192 79.7949 189.196 90.8819C189.203 102.332 196.428 110.343 208.081 110.336C216.45 110.33 222.527 106.61 225.375 97.8719L216.439 97.8765C215.793 100.169 212.511 102.681 208.442 102.677C202.787 102.686 199.639 99.7504 199.346 93.3088L226.015 93.2894Z" fill="#221E1F"/>
<path d="M254.97 85.3385C254.327 81.1779 251.681 78.9593 247.466 78.9633C240.949 78.9768 238.81 85.5564 238.817 91.0028C238.821 96.2908 240.902 102.66 247.263 102.651C251.977 102.645 254.698 99.647 255.337 95.1261L265.129 95.1259C263.846 104.93 257.063 110.295 247.334 110.306C236.182 110.316 228.67 102.446 228.665 91.3592C228.66 79.8374 235.515 71.3181 247.529 71.3082C256.249 71.298 264.259 75.881 264.907 85.3199L254.97 85.3385Z" fill="#221E1F"/>
<path d="M291.816 94.9674C291.814 97.1899 291.533 103.483 283.601 103.489C280.308 103.491 277.378 102.56 277.378 98.7712C277.376 95.0566 280.237 93.9713 283.379 93.3224C286.522 92.7528 290.095 92.6757 291.814 91.1786L291.816 94.9674ZM278.512 83.6749C278.864 79.6652 281.367 78.0866 285.225 78.0835C288.802 78.0884 291.805 78.7254 291.805 83.0846C291.805 87.2411 286.011 87.029 279.798 87.9653C273.505 88.8274 267.213 90.8305 267.222 99.2062C267.224 106.791 272.804 110.287 279.813 110.286C284.307 110.283 289.034 109.068 292.252 105.698C292.321 106.919 292.604 108.131 292.965 109.272L303.262 109.265C302.334 107.775 301.978 104.404 301.972 101.043L301.964 81.7928C301.952 72.9229 293.087 71.2844 285.72 71.2892C277.431 71.2907 268.921 74.1535 268.357 83.6753L278.512 83.6749Z" fill="#221E1F"/>
<path d="M342.203 109.243L332.548 109.256L332.551 104.102L332.324 104.098C329.76 108.257 325.327 110.253 321.039 110.262C310.248 110.262 307.519 104.195 307.515 95.0294L307.502 72.2722L317.653 72.259L317.676 93.1649C317.675 99.2428 319.451 102.251 324.181 102.241C329.684 102.241 332.045 99.1643 332.034 91.6503L332.029 72.2551L342.181 72.252L342.203 109.243Z" fill="#221E1F"/>
<path d="M357.03 89.7686L344.87 72.2444L356.451 72.2406L362.965 81.8982L369.393 72.2394L380.61 72.2283L368.479 89.5521L382.139 109.221L370.562 109.23L362.835 97.5711L355.117 109.239L343.754 109.234L357.03 89.7686Z" fill="#221E1F"/>
<defs>
<linearGradient id="paint0_linear_1_771" x1="382.139" y1="73.4763" x2="19.8615" y2="158.3" gradientUnits="userSpaceOnUse">
<stop stop-opacity="0"/>
<stop offset="1" stop-color="#221E1F"/>
</linearGradient>
<linearGradient id="paint1_linear_1_771" x1="103.896" y1="30.7055" x2="103.922" y2="146.145" gradientUnits="userSpaceOnUse">
<stop/>
<stop offset="1" stop-opacity="0"/>
</linearGradient>
</defs>
</svg>
