<?xml version="1.0" encoding="UTF-8" standalone="no"?>
<svg
   width="138.782"
   height="52.721352"
   viewBox="0 0 277.56399 105.4427"
   fill="none"
   version="1.1"
   id="svg49"
   sodipodi:docname="jcdecaux.svg"
   inkscape:version="1.2.2 (b0a8486541, 2022-12-01)"
   xmlns:inkscape="http://www.inkscape.org/namespaces/inkscape"
   xmlns:sodipodi="http://sodipodi.sourceforge.net/DTD/sodipodi-0.dtd"
   xmlns="http://www.w3.org/2000/svg"
   xmlns:svg="http://www.w3.org/2000/svg">
  <sodipodi:namedview
     id="namedview51"
     pagecolor="#ffffff"
     bordercolor="#000000"
     borderopacity="0.25"
     inkscape:showpageshadow="2"
     inkscape:pageopacity="0.0"
     inkscape:pagecheckerboard="0"
     inkscape:deskcolor="#d1d1d1"
     showgrid="false"
     inkscape:zoom="1.6275862"
     inkscape:cx="109.67161"
     inkscape:cy="61.133475"
     inkscape:window-width="2560"
     inkscape:window-height="1523"
     inkscape:window-x="3840"
     inkscape:window-y="0"
     inkscape:window-maximized="1"
     inkscape:current-layer="svg49" />
  <path
     d="M 225.474,0 0,0.1455 0.013,4.7695 230.099,4.6207 Z"
     fill="url(#paint0_linear_2080_8350)"
     id="path17"
     style="fill:url(#paint0_linear_2080_8350)" />
  <path
     d="m 4.6254,4.7691 0.072,100.6696 -4.6285,0.004 L 1e-4,0.1485 Z"
     fill="url(#paint1_linear_2080_8350)"
     id="path19"
     style="fill:url(#paint1_linear_2080_8350)" />
  <path
     d="M 62.005,67.1126 C 62.0092,71.8863 60.7225,79.6803 49.6607,79.6854 43.476,79.6925 37.4533,76.3165 37.4423,68.2189 l 0.0033,-3.2226 7.3745,-0.0022 -0.0029,1.6613 c 0.007,3.5874 0.8911,6.1822 4.7347,6.1761 4.3094,-0.0033 4.3041,-3.4758 4.3027,-6.0786 l -0.01,-25.0291 8.145,-0.0011 z"
     fill="#ffffff"
     id="path21" />
  <path
     d="m 91.498,54.1623 c -0.519,-3.6878 -4.044,-6.4891 -8.097,-6.4849 -7.3301,0.0065 -10.0786,6.2355 -10.0702,12.7286 -0.0011,6.1767 2.7601,12.4101 10.0812,12.4064 4.985,-0.0022 7.79,-3.435 8.405,-8.3133 L 99.72,64.4948 C 98.892,73.7338 92.503,79.6601 83.418,79.6638 71.9402,79.6763 65.1801,71.1094 65.1782,60.4118 65.1696,49.4052 71.9131,40.8274 83.389,40.8184 c 8.153,-0.0023 15.012,4.7667 16.009,13.3357 z"
     fill="#ffffff"
     id="path23" />
  <path
     d="m 110.767,48.5376 5.809,0.004 c 8.109,-0.01 10.707,4.7614 10.711,12.2454 0.005,8.2045 -4.508,11.1175 -9.235,11.1172 l -7.267,0.0088 z m -8.138,30.2245 16.002,-0.0062 c 11.32,-0.0059 16.813,-8.0046 16.807,-18.751 -0.007,-12.3113 -7.228,-18.3316 -16.832,-18.3213 l -15.998,0.0083 z"
     fill="#ffffff"
     id="path25" />
  <path
     d="m 144.791,62.4389 c 0.107,-2.0799 1.452,-5.7134 6.131,-5.7194 3.574,-0.0028 5.186,1.9706 5.868,5.7114 z m 19.374,4.6573 c 0.514,-8.254 -3.902,-15.9416 -13.046,-15.938 -8.153,0.0164 -13.701,6.1441 -13.698,14.1908 0.005,8.3103 5.253,14.1244 13.717,14.1194 6.079,-0.0046 10.493,-2.7046 12.562,-9.0462 l -6.491,0.0033 c -0.469,1.6638 -2.853,3.4873 -5.809,3.4841 -4.107,0.0063 -6.394,-2.1241 -6.606,-6.7992 z"
     fill="#ffffff"
     id="path27" />
  <path
     d="m 185.196,61.3254 c -0.468,-3.0196 -2.389,-4.6298 -5.451,-4.6269 -4.733,0.0098 -6.287,4.7851 -6.282,8.7379 0.003,3.838 1.515,8.4602 6.134,8.454 3.424,-0.0045 5.401,-2.1802 5.865,-5.4614 l 7.113,-1e-4 c -0.933,7.1158 -5.859,11.0097 -12.925,11.0177 -8.101,0.0071 -13.557,-5.7048 -13.561,-13.7515 -0.003,-8.3622 4.976,-14.5454 13.702,-14.5525 6.334,-0.0074 12.151,3.3189 12.623,10.1693 z"
     fill="#ffffff"
     id="path29" />
  <path
     d="m 211.959,68.314 c -0.002,1.613 -0.206,6.1807 -5.968,6.1848 -2.391,0.0017 -4.519,-0.6744 -4.519,-3.4241 -0.002,-2.696 2.077,-3.4837 4.358,-3.9546 2.283,-0.4134 4.879,-0.4693 6.127,-1.5559 z m -9.664,-8.1959 c 0.256,-2.9101 2.074,-4.0557 4.876,-4.0581 2.599,0.0036 4.779,0.466 4.78,3.6297 0,3.0167 -4.209,2.8628 -8.722,3.5423 -4.571,0.6257 -9.141,2.0796 -9.134,8.1584 0.001,5.5048 4.054,8.0423 9.145,8.0412 3.264,-0.0017 6.698,-0.8836 9.035,-3.3299 0.051,0.8867 0.256,1.7664 0.518,2.5943 l 7.479,-0.005 c -0.674,-1.0818 -0.932,-3.5278 -0.936,-5.9678 l -0.007,-13.971 c -0.008,-6.4375 -6.447,-7.6267 -11.798,-7.6233 -6.021,0.0011 -12.202,2.0789 -12.612,8.9896 z"
     fill="#ffffff"
     id="path31" />
  <path
     d="m 248.557,78.6734 -7.013,0.0096 0.002,-3.7407 -0.165,-0.003 c -1.862,3.0182 -5.082,4.4669 -8.196,4.4738 -7.839,-3e-4 -9.821,-4.4035 -9.823,-11.0556 l -0.01,-16.5167 7.373,-0.0095 0.017,15.173 c -10e-4,4.4112 1.289,6.5944 4.724,6.5874 3.997,-5e-4 5.712,-2.2332 5.704,-7.6867 l -0.003,-14.0766 7.374,-0.0022 z"
     fill="#ffffff"
     id="path33" />
  <path
     d="m 259.326,64.5409 -8.832,-12.7186 8.412,-0.0028 4.731,7.0093 4.669,-7.0102 8.147,-0.008 -8.811,12.5732 9.922,14.2753 -8.409,0.0067 -5.612,-8.462 -5.606,8.4685 -8.254,-0.0038 z"
     fill="#ffffff"
     id="path35" />
  <defs
     id="defs47">
    <linearGradient
       id="paint0_linear_2080_8350"
       x1="249.317"
       y1="22.2048"
       x2="237.48199"
       y2="73.029099"
       gradientUnits="userSpaceOnUse"
       gradientTransform="translate(-19.218,-19.8203)">
      <stop
         stop-color="white"
         stop-opacity="0"
         id="stop37" />
      <stop
         offset="1"
         stop-color="white"
         id="stop39" />
    </linearGradient>
    <linearGradient
       id="paint1_linear_2080_8350"
       x1="20.495199"
       y1="41.611801"
       x2="21.5667"
       y2="125.263"
       gradientUnits="userSpaceOnUse"
       gradientTransform="translate(-19.218,-19.8203)">
      <stop
         stop-color="white"
         id="stop42" />
      <stop
         offset="1"
         stop-color="white"
         stop-opacity="0"
         id="stop44" />
    </linearGradient>
  </defs>
</svg>
