<svg width="240" height="30" viewBox="0 0 240 30" fill="none" xmlns="http://www.w3.org/2000/svg">
<path d="M0 13.48L16.48 29.96V13.48H0Z" fill="white"/>
<path d="M54.72 30H48.36V12.16L38.8 21.72L29.24 12.16V30H22.84V0H26.2L38.84 12.64L51.32 0H54.72V30ZM92.24 29.92H63.12V0H91V6.16H69.52V11.08H83.64V17.08H69.52V23.92H92.24V29.92ZM131.6 29.92H124.48L116.6 17.72H106.2V29.92H99.88V0.159998H119.88C122.84 0.159998 125.12 0.880005 126.92 2.28C128.88 3.84 129.88 6.04 129.88 8.92C129.88 10.88 129.32 12.6 128.24 14.16C127.08 15.72 125.6 16.76 123.72 17.44L131.6 29.92ZM123.4 8.92C123.4 8.12 123.16 7.44 122.6 6.96C122.04 6.56 121.04 6.32 119.8 6.32H106.2V11.8H119.8C121.12 11.8 122 11.56 122.6 11.08C123.16 10.28 123.4 9.64 123.4 8.92ZM169.68 29.92H162.2L151.12 15.04L146.6 18.88V29.92H140.2V0.159998H146.6V11.28L159.8 0.159998H168.68L155.72 11.12L169.68 29.92ZM203.96 29.92H177.08V0H183.48V23.92H203.96V29.92ZM240 29.92H210.88V0H238.76V6.16H217.2V11.08H231.32V17.08H217.2V23.92H240V29.92Z" fill="white"/>
</svg>
