<svg width="436" height="56" viewBox="0 0 436 56" fill="none" xmlns="http://www.w3.org/2000/svg">
<path d="M0.00548553 25.1062L29.932 55.0327V25.1062H0.00548553Z" fill="white"/>
<path d="M99.373 55.1054H87.8237V22.7092L70.4634 40.0695L53.1032 22.7092V55.1054H41.4813V0.627563H47.5828L70.5361 23.5809L93.1988 0.627563H99.373V55.1054ZM167.507 54.9601H114.627V0.627563H165.255V11.8137H126.249V20.748H151.89V31.6436H126.249V44.0645H167.507V54.9601ZM238.981 54.9601H226.052L211.743 32.8058H192.857V54.9601H181.38V0.918107H217.699C223.074 0.918107 227.214 2.22559 230.483 4.76789C234.042 7.60073 235.858 11.5958 235.858 16.8256C235.858 20.3848 234.841 23.5082 232.88 26.3411C230.773 29.1739 228.086 31.0625 224.672 32.2973L238.981 54.9601ZM224.091 16.8256C224.091 15.3729 223.655 14.1381 222.638 13.2664C221.621 12.54 219.805 12.1042 217.554 12.1042H192.857V22.0555H217.554C219.951 22.0555 221.549 21.6197 222.638 20.748C223.655 19.2953 224.091 18.1331 224.091 16.8256ZM308.132 54.9601H294.549L274.428 27.9391L266.22 34.9123V54.9601H254.598V0.918107H266.22V21.1112L290.191 0.918107H306.316L282.782 20.8207L308.132 54.9601ZM370.382 54.9601H321.57V0.627563H333.192V44.0645H370.382V54.9601ZM435.828 54.9601H382.948V0.627563H433.576V11.8137H394.425V20.748H420.066V31.6436H394.425V44.0645H435.828V54.9601Z" fill="white"/>
</svg>
