<svg width="158" height="31" viewBox="0 0 158 31" fill="none" xmlns="http://www.w3.org/2000/svg">
<path fill-rule="evenodd" clip-rule="evenodd" d="M14.1233 0.580655C10.5229 0.867375 7.17863 2.43825 4.72833 4.99379C2.31428 7.51162 1.02016 10.2956 0.595023 13.8853C-0.0762069 19.5545 2.86468 25.5867 7.64445 28.3444C11.5272 30.5847 16.536 31.1208 20.8195 29.7549C21.3458 29.5871 21.7761 29.3879 21.7761 29.3123C21.7761 29.2367 20.918 28.328 19.8694 27.2933L17.9624 25.412L16.2947 25.4636C13.343 25.5552 11.181 24.7649 9.27066 22.8961C7.09768 20.7704 6.20754 18.5993 6.20371 15.4153C6.19988 12.3986 7.19797 10.0261 9.31054 8.02959C13.0403 4.50495 18.8882 4.6093 22.5148 8.26483C24.9357 10.7052 25.9821 14.7327 25.0856 18.1606L24.77 19.3671L25.8679 20.4839C26.4719 21.098 27.3248 21.9823 27.7634 22.4486C28.202 22.9149 28.6667 23.2966 28.7959 23.2966C29.0888 23.2966 30.0431 21.2289 30.5458 19.5056C30.8421 18.49 30.9214 17.5811 30.9115 15.3155C30.9003 12.7131 30.8441 12.2619 30.3527 10.8262C28.9846 6.82983 26.5176 3.91156 23.0378 2.17288C20.1779 0.74387 17.6793 0.297526 14.1233 0.580655ZM146.436 0.580058C143.76 0.844431 141.267 2.11581 139.786 3.97101C138.345 5.77733 137.831 7.66725 138.183 9.85626C138.719 13.1784 140.806 14.9769 146.809 17.2908C147.955 17.7328 149.282 18.3204 149.758 18.5965C152.58 20.235 152.745 23.3008 150.094 24.8447C149.241 25.3411 148.978 25.3904 147.242 25.3776C144.901 25.3607 143.589 24.9103 141.656 23.4606L140.333 22.4685L138.738 24.0298C136.523 26.1993 136.548 26.1117 137.861 27.1315C138.858 27.9064 140.988 29.0743 142.487 29.6679C144.37 30.4131 147.813 30.6886 149.9 30.2607C152.763 29.6735 155.647 27.5549 156.829 25.1709C157.332 24.1553 157.421 23.7192 157.48 21.9735C157.539 20.2075 157.487 19.8023 157.065 18.7683C156.434 17.2212 155.67 16.2824 154.189 15.2389C152.811 14.267 152.204 13.9705 148.495 12.4559C145.638 11.2893 144.617 10.6528 144.003 9.65573C143.387 8.6553 143.529 7.82547 144.498 6.76678C145.855 5.2829 149.126 5.04586 151.762 6.24043C152.364 6.51358 152.913 6.82664 152.982 6.93598C153.302 7.44936 153.868 7.0124 155.045 5.34336C155.738 4.36228 156.304 3.42969 156.304 3.27127C156.304 3.11265 155.806 2.70462 155.198 2.36442C152.68 0.956564 149.395 0.287751 146.436 0.580058ZM36.3237 10.9758C36.3865 19.8346 36.4356 21.1297 36.7462 22.0994C38.0806 26.2663 40.6255 28.7564 44.8352 30.0139C46.4995 30.5109 50.955 30.524 52.7306 30.037C57.0442 28.854 59.8916 25.9732 60.9711 21.7004C61.3146 20.3404 61.3491 19.3306 61.3491 10.6266V1.04934L58.58 0.993871L55.8109 0.938406L55.8038 10.0723C55.795 21.3634 55.7239 21.8227 53.6967 23.6739C52.173 25.0656 51.2361 25.3916 48.7623 25.3916C46.7147 25.3916 46.6062 25.3689 45.3387 24.6775C43.9394 23.9143 42.7121 22.5627 42.2729 21.3013C42.0995 20.8033 42.0111 17.7847 41.9652 10.7763L41.9005 0.949579H39.0765H36.2524L36.3237 10.9758ZM76.006 1.19899C75.899 1.33626 75.3803 2.48095 74.8532 3.74295C74.3262 5.00496 73.6882 6.48844 73.4357 7.03974C73.1829 7.59083 72.6406 8.84785 72.2303 9.83311C71.8199 10.8182 71.2202 12.1917 70.8975 12.8853C70.5749 13.5788 70.3109 14.2566 70.3109 14.3917C70.3109 14.5266 70.2338 14.7225 70.1395 14.8267C70.0451 14.931 69.5376 16.0488 69.0113 17.3108C68.4851 18.5728 67.8481 20.0559 67.5958 20.6066C67.3434 21.1571 66.6198 22.858 65.9879 24.3862C64.7586 27.3585 64.1466 28.7738 63.8499 29.3295C63.4731 30.0356 63.6296 30.0805 66.4599 30.0805C69.5509 30.0805 69.4685 30.1128 70.0128 28.6838C70.2011 28.19 70.4954 27.4729 70.6672 27.09C70.8389 26.7073 71.2212 25.8094 71.5168 25.0947L72.0543 23.7954L77.9224 23.7425L83.7907 23.6896L84.091 24.1438C84.2561 24.3934 84.8582 25.719 85.4288 27.0898C85.9993 28.4603 86.558 29.694 86.6701 29.8311C86.9185 30.1346 92.1713 30.1882 92.358 29.8891C92.4236 29.7838 92.3912 29.537 92.2861 29.3404C92.181 29.1439 91.9596 28.6688 91.7943 28.2847C91.6292 27.9007 90.8149 26.0151 89.985 24.0947C89.1553 22.1742 88.0052 19.4806 87.4294 18.1089C86.8536 16.7371 86.1753 15.1639 85.9224 14.6126C85.6694 14.0615 85.1261 12.8045 84.7151 11.8192C84.3038 10.8341 83.7949 9.65134 83.5837 9.19103C83.3726 8.73072 83.1998 8.30673 83.1998 8.24907C83.1998 8.19161 82.9815 7.67024 82.7149 7.09101C82.4482 6.51159 81.8938 5.22943 81.483 4.24177C81.0719 3.25411 80.5634 2.10943 80.3526 1.6978L79.9693 0.949579H78.0849C76.8154 0.949579 76.1371 1.03099 76.006 1.19899ZM96.3797 1.20577C96.3251 1.34664 96.3052 7.87854 96.3356 15.7213L96.3908 29.9807H102.735C109.166 29.9807 109.792 29.9257 112.2 29.1477C114.4 28.437 117.076 26.4435 118.512 24.4467C122.147 19.3896 122.421 12.8693 119.219 7.60998C117.135 4.1867 113.936 2.02343 109.799 1.23909C107.721 0.845025 96.5302 0.817093 96.3797 1.20577ZM126.793 1.19899C126.74 1.33626 126.72 7.86817 126.748 15.7146L126.801 29.9807H129.519H132.238L132.29 15.4652L132.341 0.949579H129.615C127.619 0.949579 126.863 1.01642 126.793 1.19899ZM107.711 5.96429C110.633 6.38549 112.719 7.67343 114.238 9.99453C115.373 11.7274 115.711 13.0253 115.702 15.6148C115.696 17.5013 115.62 17.9991 115.164 19.1584C114.146 21.7451 112.521 23.466 110.186 24.4327C108.94 24.9481 108.711 24.9748 105.453 24.9834L102.03 24.9926L101.977 15.6375C101.94 8.89613 101.989 6.20671 102.153 6.01038C102.441 5.66659 105.471 5.64145 107.711 5.96429ZM78.3711 10.7384C78.4448 10.8964 78.6099 11.2264 78.738 11.4718C78.8659 11.7172 78.9706 12.003 78.9706 12.1065C78.9706 12.2101 79.2326 12.8621 79.5531 13.5557C81.0486 16.7934 81.6388 18.3385 81.4513 18.5243C81.3366 18.638 79.8944 18.6951 77.951 18.6628C74.1353 18.5991 74.1929 18.6356 75.0315 16.8195C75.315 16.2054 75.547 15.6671 75.547 15.6234C75.547 15.5799 75.8497 14.8867 76.2199 14.083C76.5898 13.2793 77.1058 12.1039 77.3662 11.4708C77.8275 10.3493 78.0976 10.1524 78.3711 10.7384ZM14.5597 19.303C14.5966 19.4112 17.0252 21.8803 19.9562 24.79L25.2857 30.0805H28.8342C30.7859 30.0805 32.4435 30.02 32.518 29.9462C32.5925 29.8724 30.232 27.4032 27.2722 24.4592L21.8909 19.1065H18.1918C15.8515 19.1065 14.5173 19.1787 14.5597 19.303Z" fill="white"/>
</svg>
