<svg width="73" height="21" viewBox="0 0 73 21" fill="none" xmlns="http://www.w3.org/2000/svg">
<g clip-path="url(#clip0_71_274)">
<path fill-rule="evenodd" clip-rule="evenodd" d="M7.03768 0.393504C5.39699 0.587734 3.87302 1.65188 2.75642 3.38305C1.65635 5.08867 1.06662 6.9746 0.872891 9.40633C0.567015 13.2468 1.90717 17.3331 4.08529 19.2012C5.85464 20.7188 8.13713 21.082 10.0891 20.1567C10.3289 20.043 10.525 19.9081 10.525 19.8569C10.525 19.8057 10.134 19.1901 9.65615 18.4892L8.78714 17.2147L8.02717 17.2497C6.6821 17.3117 5.69688 16.7764 4.82635 15.5104C3.83613 14.0704 3.43049 12.5997 3.42875 10.4428C3.427 8.39921 3.88183 6.79203 4.84452 5.43956C6.54416 3.0519 9.20902 3.12259 10.8616 5.59891C11.9648 7.25207 12.4417 9.98037 12.0332 12.3025L11.8893 13.1198L12.3896 13.8763C12.6649 14.2924 13.0535 14.8914 13.2534 15.2073C13.4533 15.5232 13.665 15.7817 13.7239 15.7817C13.8574 15.7817 14.2923 14.381 14.5213 13.2136C14.6564 12.5256 14.6925 11.9099 14.688 10.3752C14.6829 8.61226 14.6573 8.30661 14.4334 7.33403C13.8099 4.62682 12.6857 2.64992 11.1 1.47211C9.79673 0.504069 8.65813 0.201707 7.03768 0.393504ZM67.3321 0.3931C66.1126 0.572191 64.9766 1.43345 64.3017 2.6902C63.645 3.91383 63.4108 5.1941 63.5712 6.67698C63.8155 8.92746 64.7665 10.1458 67.502 11.7133C68.0243 12.0127 68.629 12.4108 68.8459 12.5978C70.1319 13.7077 70.207 15.7846 68.999 16.8304C68.6103 17.1667 68.4904 17.2001 67.6994 17.1914C66.6326 17.18 66.0347 16.8749 65.1538 15.8928L64.5509 15.2208L63.8241 16.2784C62.8148 17.7481 62.8261 17.6887 63.4245 18.3796C63.8788 18.9045 64.8494 19.6957 65.5325 20.0978C66.3906 20.6026 67.9596 20.7892 68.9106 20.4993C70.2153 20.1016 71.5295 18.6664 72.0681 17.0514C72.2973 16.3634 72.3379 16.068 72.3648 14.8854C72.3917 13.6891 72.368 13.4146 72.1757 12.7142C71.8881 11.6661 71.54 11.0302 70.8651 10.3233C70.2371 9.6649 69.9605 9.46404 68.2703 8.43803C66.9684 7.64775 66.5032 7.21657 66.2234 6.54114C65.9427 5.86343 66.0074 5.30128 66.4489 4.58411C67.0673 3.5789 68.5579 3.41832 69.7591 4.22755C70.0334 4.41258 70.2836 4.62466 70.3151 4.69872C70.4609 5.0465 70.7188 4.75049 71.2552 3.61985C71.571 2.95525 71.8289 2.3235 71.8289 2.21618C71.8289 2.10873 71.6019 1.83232 71.3249 1.60186C70.1774 0.648152 68.6805 0.195086 67.3321 0.3931ZM17.1543 7.43538C17.1829 13.4365 17.2053 14.3138 17.3468 14.9707C17.9549 17.7935 19.1146 19.4803 21.033 20.3322C21.7914 20.6688 23.8217 20.6777 24.6309 20.3478C26.5966 19.5464 27.8941 17.5949 28.386 14.7004C28.5426 13.7791 28.5583 13.0951 28.5583 7.19882V0.711001L27.2964 0.673425L26.0346 0.635852L26.0313 6.82333C26.0273 14.4721 25.9949 14.7833 25.0711 16.0373C24.3768 16.9801 23.9498 17.2009 22.8225 17.2009C21.8895 17.2009 21.84 17.1855 21.2624 16.7172C20.6248 16.2002 20.0655 15.2846 19.8653 14.4301C19.7863 14.0927 19.746 12.0479 19.7251 7.30023L19.6956 0.643421H18.4088H17.1218L17.1543 7.43538ZM35.2374 0.812377C35.1886 0.905366 34.9523 1.6808 34.7121 2.5357C34.4719 3.39061 34.1812 4.39555 34.0661 4.76901C33.9509 5.14233 33.7038 5.99386 33.5168 6.6613C33.3298 7.32862 33.0565 8.25905 32.9095 8.72891C32.7625 9.1987 32.6421 9.65785 32.6421 9.74937C32.6421 9.84076 32.607 9.97346 32.564 10.0441C32.521 10.1147 32.2898 10.8719 32.0499 11.7268C31.8101 12.5817 31.5199 13.5864 31.4049 13.9595C31.2899 14.3324 30.9601 15.4846 30.6722 16.5198C30.112 18.5333 29.8331 19.4921 29.6979 19.8685C29.5262 20.3469 29.5975 20.3773 30.8873 20.3773C32.2958 20.3773 32.2583 20.3992 32.5063 19.4311C32.5921 19.0966 32.7262 18.6108 32.8045 18.3514C32.8828 18.0922 33.057 17.4839 33.1917 16.9998L33.4366 16.1196L36.1107 16.0838L38.7848 16.048L38.9217 16.3556C38.9969 16.5247 39.2713 17.4227 39.5313 18.3513C39.7913 19.2797 40.0459 20.1154 40.097 20.2083C40.2102 20.4139 42.6039 20.4502 42.6889 20.2476C42.7188 20.1763 42.7041 20.0091 42.6562 19.8759C42.6083 19.7428 42.5074 19.421 42.4321 19.1608C42.3568 18.9006 41.9857 17.6233 41.6076 16.3224C41.2295 15.0214 40.7054 13.1967 40.443 12.2675C40.1806 11.3382 39.8715 10.2725 39.7563 9.89902C39.641 9.52569 39.3934 8.67417 39.2061 8.00671C39.0187 7.33939 38.7868 6.53816 38.6905 6.22634C38.5943 5.91452 38.5156 5.6273 38.5156 5.58824C38.5156 5.54931 38.4161 5.19613 38.2946 4.80375C38.1731 4.41123 37.9204 3.54267 37.7332 2.87361C37.5459 2.20455 37.3142 1.42913 37.2181 1.15028L37.0434 0.643421H36.1847C35.6062 0.643421 35.2971 0.69857 35.2374 0.812377ZM44.5216 0.816969C44.4967 0.912397 44.4877 5.33723 44.5015 10.6501L44.5267 20.3097H47.4177C50.3483 20.3097 50.6335 20.2724 51.7309 19.7454C52.7334 19.2639 53.9528 17.9135 54.6072 16.5608C56.2637 13.135 56.3885 8.71807 54.9294 5.15531C53.9797 2.83631 52.5219 1.37087 50.6367 0.839541C49.6898 0.572594 44.5902 0.553672 44.5216 0.816969ZM58.3808 0.812377C58.3567 0.905366 58.3476 5.33021 58.3603 10.6455L58.3845 20.3097H59.6231H60.8621L60.8858 10.4766L60.909 0.643421H59.6668C58.7572 0.643421 58.4127 0.6887 58.3808 0.812377ZM49.6852 4.04048C51.0168 4.32581 51.9674 5.19829 52.6596 6.77065C53.1768 7.94453 53.3308 8.82375 53.3267 10.5779C53.324 11.8559 53.2893 12.1931 53.0815 12.9784C52.6176 14.7307 51.8771 15.8965 50.8131 16.5513C50.2453 16.9005 50.1409 16.9186 48.6563 16.9244L47.0964 16.9306L47.0723 10.5933C47.0554 6.02657 47.0777 4.2047 47.1525 4.07171C47.2837 3.83882 48.6645 3.82179 49.6852 4.04048ZM36.3152 7.27456C36.3487 7.38159 36.424 7.60514 36.4823 7.77138C36.5406 7.93762 36.5883 8.13122 36.5883 8.20133C36.5883 8.27152 36.7077 8.71319 36.8538 9.18305C37.5353 11.3763 37.8042 12.423 37.7188 12.5489C37.6665 12.6259 37.0093 12.6646 36.1237 12.6427C34.3849 12.5995 34.4112 12.6243 34.7933 11.394C34.9225 10.978 35.0282 10.6134 35.0282 10.5838C35.0282 10.5543 35.1662 10.0847 35.3349 9.54025C35.5034 8.99581 35.7386 8.19957 35.8572 7.7707C36.0674 7.01097 36.1905 6.87759 36.3152 7.27456ZM7.23654 13.0764C7.25336 13.1497 8.36006 14.8223 9.69571 16.7934L12.1243 20.3773H13.7414C14.6308 20.3773 15.3861 20.3363 15.4201 20.2863C15.454 20.2363 14.3783 18.5636 13.0296 16.5693L10.5773 12.9433H8.89167C7.82521 12.9433 7.21722 12.9922 7.23654 13.0764Z" fill="white"/>
</g>
<defs>
<clipPath id="clip0_71_274">
<rect width="72" height="21" fill="white" transform="translate(0.601807)"/>
</clipPath>
</defs>
</svg>
