<svg width="239" height="60" viewBox="0 0 239 60" fill="none" xmlns="http://www.w3.org/2000/svg">
<path fill-rule="evenodd" clip-rule="evenodd" d="M235.961 45.5952C233.006 53.9062 225.064 59.2609 211.954 59.2609C201.057 59.2609 190.345 52.984 193.117 38.3937C195.147 26.0221 206.413 17.8959 219.34 17.8959C233.744 17.8959 240.207 27.6831 237.806 39.3158L237.251 41.9028H210.106C210.106 42.2709 209.738 43.5649 209.738 44.8552C209.738 48.3655 211.583 49.6571 213.799 49.6571C216.2 49.6571 218.417 48.1821 219.523 45.5952H235.961ZM222.109 33.779L222.295 32.853C222.848 29.7134 221.369 27.4984 218.233 27.4984C215.278 27.4984 212.69 29.5299 211.954 33.779H222.109ZM190.533 18.6334C186.283 18.6334 182.96 20.8496 180.743 23.9893H180.375L181.114 19.0027H163.571L162.461 24.174L172.064 23.0659L171.879 23.9906L162.092 25.6528L155.258 58.154H174.095C174.095 58.154 175.941 48.7349 177.235 43.379C179.081 34.5152 183.883 32.6696 187.022 32.6696C189.794 32.6696 191.455 33.779 191.824 34.1471L194.964 19.7428C194.594 19.5581 193.117 18.6334 190.533 18.6334ZM19.1588 35.254C11.5879 32.8531 5.86259 28.4218 5.86259 19.9274C5.86259 7.55463 18.2354 0.536494 34.856 0.351807C48.7063 0.351807 58.1241 6.26182 56.462 17.8959H36.5169C37.2557 14.7562 35.4088 12.9093 31.8997 12.9093C29.3141 12.9093 27.2826 14.2021 26.9132 15.8643C26.5438 18.0806 28.0213 19.5568 31.5304 20.4815C34.4854 21.4049 36.5169 21.959 39.4707 22.6978C47.965 25.2834 52.0282 30.2687 52.9516 35.4412L28.0213 38.0256L19.1588 35.254ZM19.8976 48.7349L21.5598 40.7946H0.138539C-1.33896 54.0909 9.18697 59.6315 22.8526 59.6315C35.7782 59.6315 49.6285 55.199 52.5848 43.379L19.8976 48.7349ZM130.885 21.7731C132.36 20.6649 136.055 17.8959 141.594 17.8959C147.318 17.8959 151.752 20.2968 153.781 24.9127L110.2 29.5299L115.925 1.8293H134.761L130.514 21.7731H130.885ZM129.775 30.8228C128.669 32.4849 127.559 34.8846 126.82 38.3924C125.158 46.1493 127.006 48.1821 129.224 48.1821C132.361 48.1821 134.948 45.2271 136.239 38.5771C136.978 34.3306 136.795 31.1909 135.687 29.8993L154.521 26.9443C155.444 29.8993 155.63 33.779 154.707 38.0256C151.935 52.0593 143.44 59.2609 134.024 59.2609C129.775 59.2609 124.975 58.154 123.128 53.5368H122.573L121.095 58.154H104.106L109.093 34.1471L129.775 30.8228ZM82.6838 44.3037C82.1297 47.2561 80.0995 49.6571 77.3291 49.6571C74.5588 49.6571 73.4507 47.4434 73.8201 45.0424C74.3741 43.0096 76.4057 40.978 80.2841 40.978H83.4226L82.6838 44.3037ZM77.8832 30.8228C78.4373 28.4218 80.2841 26.5749 82.6851 26.5749C84.9013 26.5749 86.0095 28.6065 85.4554 30.6393L85.2707 32.1143L102.814 30.2687C101.521 21.2203 93.211 17.3418 83.4226 17.3418C68.8335 17.3418 61.8166 24.5434 60.3391 31.0074L60.1544 31.9296H77.6985L77.8832 30.8228ZM56.2773 42.8262C55.6708 44.4185 55.3579 46.1076 55.3538 47.8115C55.3538 53.9062 59.971 59.2596 67.7266 59.2596C74.7435 59.2596 78.8066 56.3071 80.6535 54.2743H80.8382L80.4688 58.1527H98.1976L102.444 37.6537C102.629 36.9149 102.814 35.9915 102.998 35.2527L56.2773 42.8262Z" fill="#CC2131"/>
</svg>
