<svg width="128" height="37" viewBox="0 0 128 37" fill="none" xmlns="http://www.w3.org/2000/svg">
<path d="M34.6057 0H2.71122C1.26966 0 0.0683594 1.2013 0.0683594 2.64286V34.3571C0.0683594 35.7987 1.26966 37 2.71122 37H34.6057C36.0473 37 37.2486 35.7987 37.2486 34.3571V2.64286C37.2486 1.14123 36.0473 0 34.6057 0ZM23.3736 27.8101C20.13 31.0536 14.9645 31.1737 11.5408 28.2305L11.4807 28.1705C11.3005 27.9903 11.2404 27.6299 11.4807 27.3896L23.0132 15.9172C23.2534 15.737 23.5537 15.737 23.794 15.9172C26.7973 19.401 26.6771 24.5666 23.3736 27.8101ZM25.7762 9.49026L14.2437 20.9627C14.0034 21.1429 13.7031 21.1429 13.4628 20.9627C10.4596 17.539 10.5797 12.3734 13.8232 9.12987C17.0667 5.88636 22.2323 5.76623 25.656 8.70942C25.656 8.70942 25.7161 8.70942 25.7161 8.76948C26.0164 8.94968 26.0164 9.31007 25.7762 9.49026Z" fill="white"/>
<path fill-rule="evenodd" clip-rule="evenodd" d="M53.4661 16.6981C51.8443 16.0373 50.8232 15.6169 50.8232 14.6558C50.8232 13.875 51.4239 13.1542 52.8054 13.1542C53.6463 13.1542 54.3671 13.5146 54.9077 14.2354C55.268 14.6558 55.6284 14.8961 56.0489 14.8961C56.8898 14.8961 57.5505 14.2354 57.5505 13.4545C57.5505 13.1542 57.4904 12.8539 57.3102 12.6737C56.4093 11.2922 54.5473 10.3312 52.8054 10.3312C50.4028 10.3312 47.9401 11.8328 47.9401 14.7159C47.9401 17.6591 50.3427 18.6201 52.3249 19.3409C53.8865 19.9416 55.268 20.4821 55.268 21.7435C55.268 22.7045 54.3671 23.6656 52.6852 23.6656C52.1447 23.6656 51.1836 23.5455 50.5229 22.7646C50.1625 22.3442 49.7421 22.164 49.3817 22.164C48.6008 22.164 47.8801 22.8247 47.8801 23.6055C47.8801 23.9058 48.0002 24.2062 48.1804 24.4464C49.0813 25.8279 51.1236 26.4886 52.6852 26.4886C55.3281 26.4886 58.2112 24.8068 58.2112 21.7435C58.1512 18.5 55.5684 17.4789 53.4661 16.6981ZM113.051 10.2711H112.99C110.107 10.2711 107.825 12.5536 107.825 15.3766V33.1558C107.825 33.9367 108.486 34.5974 109.266 34.5974C110.047 34.5974 110.708 33.9367 110.708 33.1558V25.7679C111.249 26.2484 112.15 26.4886 112.99 26.4886H113.051C115.934 26.4886 118.096 24.026 118.096 21.2029V15.2565C118.096 12.4334 115.934 10.2711 113.051 10.2711ZM115.333 21.3231C115.333 22.8847 114.312 23.5455 113.111 23.5455H113.051C111.789 23.5455 110.828 22.8847 110.828 21.3231V15.3766C110.828 14.1753 111.849 13.1542 113.051 13.1542H113.111C114.372 13.1542 115.333 14.1153 115.333 15.3766V21.3231ZM86.4417 10.2711H86.3817C84.9401 10.2711 83.6788 10.8718 82.7778 11.7727C81.8768 10.8718 80.5554 10.2711 79.1739 10.2711H79.1138C76.3508 10.2711 74.0684 12.4935 74.0684 15.3166V25.1071C74.1284 25.888 74.7291 26.4886 75.5099 26.4886C76.2908 26.4886 76.8914 25.888 76.9515 25.1071V15.3166C76.9515 14.1153 77.9125 13.1542 79.1138 13.1542H79.1739C80.3752 13.1542 81.2762 14.0552 81.3362 15.2565V25.1071C81.4089 25.8171 81.9086 26.4886 82.7177 26.4886C83.4986 26.4886 84.0992 25.888 84.1593 25.1071V15.1964C84.2193 14.0552 85.1804 13.0942 86.3216 13.0942H86.3817C87.583 13.0942 88.544 14.0552 88.544 15.2565V25.1071C88.6041 25.888 89.2047 26.4886 89.9856 26.4886C90.7664 26.4886 91.3671 25.888 91.4271 25.1071V15.3166C91.4872 12.5536 89.2047 10.2711 86.4417 10.2711ZM69.3833 10.2711C68.6025 10.2711 68.0018 10.8718 67.9417 11.6526V21.4432C67.9417 22.6445 66.9807 23.6055 65.7193 23.6055H65.6593C64.458 23.6055 63.4369 22.6445 63.4369 21.4432V11.5925C63.3768 10.8117 62.7762 10.211 61.9953 10.211C61.2145 10.211 60.6138 10.8117 60.5538 11.5925V21.3831C60.5538 24.1461 62.8362 26.4286 65.6593 26.4286H65.7193C68.5424 26.4286 70.8249 24.1461 70.8249 21.3831V11.6526C70.8249 10.8718 70.1641 10.2711 69.3833 10.2711ZM103.5 10.2711C102.719 10.2711 102.119 10.8718 102.059 11.6526V21.4432C102.059 22.6445 101.098 23.6055 99.8362 23.6055H99.7762C98.5749 23.6055 97.5538 22.6445 97.5538 21.4432V11.5925C97.4937 10.8117 96.893 10.211 96.1122 10.211C95.3313 10.211 94.7307 10.8117 94.6706 11.5925V21.3831C94.6706 24.1461 96.9531 26.4286 99.7762 26.4286H99.8362C102.659 26.4286 104.942 24.1461 104.942 21.3831V11.6526C104.882 10.8718 104.281 10.2711 103.5 10.2711Z" fill="white"/>
<path d="M125.124 13.2744C125.484 13.2143 125.724 12.914 125.724 12.5536C125.724 12.0731 125.364 11.7727 124.823 11.7727H124.102C123.922 11.7727 123.802 11.8929 123.802 12.0731V14.0552C123.802 14.2354 123.922 14.3555 124.102 14.3555C124.283 14.3555 124.403 14.2354 124.403 14.0552V13.3344L125.124 14.2354C125.184 14.3555 125.244 14.3555 125.424 14.3555C125.664 14.3555 125.724 14.1753 125.724 14.0552C125.724 13.9351 125.664 13.875 125.604 13.8149L125.124 13.2744ZM124.883 12.8539H124.523V12.2532H124.883C125.064 12.2532 125.184 12.3734 125.184 12.5536C125.184 12.6737 125.064 12.8539 124.883 12.8539ZM124.823 10.2711C123.262 10.2711 121.94 11.5325 121.94 13.1542C121.94 14.7159 123.201 16.0373 124.823 16.0373C126.385 16.0373 127.706 14.776 127.706 13.1542C127.706 11.5925 126.445 10.2711 124.823 10.2711ZM124.823 15.3166C123.622 15.3166 122.661 14.3555 122.661 13.1542C122.661 11.9529 123.622 10.9919 124.823 10.9919C126.025 10.9919 126.986 11.9529 126.986 13.1542C126.986 14.3555 126.025 15.3166 124.823 15.3166Z" fill="white"/>
</svg>
