<svg width="427" height="55" viewBox="0 0 427 55" fill="none" xmlns="http://www.w3.org/2000/svg">
<path d="M1.93217 0L0 7.53547H17.9048L11.3354 33.813L6.50498 53.1991H18.2268L23.0573 33.813L29.6266 7.53547H47.467L49.3348 0H1.93217ZM359.77 0.579652C358.817 4.49552 357.941 7.55093 357.065 10.1761H352.686L354.103 9.27443C356.545 7.69005 357.748 6.87596 357.774 6.7626C356.47 3.81797 355.368 1.78533 354.36 0.772869C354.332 0.589854 352.472 1.72607 348.886 4.05756L347.662 4.83043C347.688 4.88711 347.835 5.10609 348.113 5.47449C349.375 7.11555 350.442 8.66128 351.269 10.1761H347.662L346.503 15.5862H354.618L354.038 16.6811L353.459 17.776H344.7L343.605 23.1861H349.659C347.075 26.3394 344.001 28.8718 340.449 30.7859L346.116 3.73553H330.466L324.605 31.6876C324.448 32.4193 324.27 33.1149 324.09 33.813C322.727 39.2205 320.699 44.0716 317.971 48.3687C319.625 49.8294 320.972 51.3958 322.093 53.0703C325.373 48.3919 327.949 42.4022 329.886 35.0367H333.3L331.368 44.1823C331.215 45.4344 329.943 45.9986 327.632 45.7925C328.114 48.0312 328.32 50.2725 328.147 52.6195C333.725 52.5834 336.541 51.3262 336.649 48.7551L339.805 33.813L339.998 32.7825C340.346 33.1303 340.67 33.4729 340.964 33.813C341.716 34.6992 342.301 35.57 342.703 36.4536C343.558 36.0311 344.573 35.3819 345.73 34.3927L343.669 41.0909H362.411L362.089 42.8298C361.347 46.4468 360.304 48.2038 358.997 47.9823L360.028 42.8298H339.933L338.774 48.1755H355.133C356.068 50.1927 356.468 52.2588 356.292 54.4229C361.512 54.2528 364.709 53.449 365.953 51.9754C366.342 51.5452 366.752 50.7981 367.177 49.528C368.03 46.975 369.029 43.242 370.268 38.3214L370.977 35.4876H364.021L364.408 33.813L364.923 31.2368C366.159 32.3188 367.257 33.1612 368.208 33.813C368.911 34.2948 369.532 34.6632 370.075 34.9079C370.374 34.5344 370.681 34.166 370.977 33.813C372.77 31.6361 374.473 29.8224 376.065 28.3385C371.866 27.1432 368.79 25.4274 366.855 23.1861H376.065L377.16 17.776H360.608C361.051 17.1268 361.463 16.4286 361.767 15.5862H375.421L376.516 10.1761H371.621C373.759 8.08678 375.64 6.36844 377.353 5.02365L371.621 1.48133C369.784 3.8257 367.803 6.10824 365.631 8.30834L369.109 10.4337H364.15L364.859 8.17953L365.76 5.92533C366.512 4.02665 367.131 2.58396 367.564 1.67455C367.605 1.301 367.36 1.11293 366.597 1.03049C365.152 0.803784 362.883 0.654362 359.77 0.579652ZM394.421 1.03049C392.674 1.61014 389.959 2.66897 386.177 4.25078C387.367 7.64367 388.225 11.0288 388.817 14.4269C390.155 13.9194 393.055 12.9224 397.448 11.3354C395.616 4.74026 394.568 1.29069 394.421 1.03049ZM400.797 3.92875L399.444 10.1761H404.597L402.149 21.8335H395.709L394.356 28.0809H400.861L399.638 33.813L395.709 52.4263H402.922L406.787 33.813L408.01 28.0809H413.163L412.132 32.7825C412.058 33.1303 412.004 33.4704 411.939 33.813C410.62 40.7199 411.298 46.1222 413.936 49.9789C415.543 52.264 417.483 53.2301 419.797 52.8771C422.193 53.0008 424.591 49.1339 426.946 41.2841C424.802 40.3103 422.829 39.4524 421.085 38.7078C419.915 42.3043 419.189 43.4713 418.895 42.1858C418.434 40.3515 418.529 37.5614 419.153 33.813C419.354 32.6022 419.611 31.3012 419.926 29.8843L425.4 3.92875H400.797ZM293.819 4.57281L291.372 14.4913H281.968L280.165 21.8335H314.558L293.819 4.57281ZM335.296 9.27443H338.71L337.1 16.9387H333.751L335.296 9.27443ZM411.746 10.1761H417.156L414.709 21.8335H409.298L411.746 10.1761ZM62.7956 12.3015C55.6491 12.3015 49.4507 14.1693 44.1823 17.9048C38.9423 21.6944 35.5391 26.6588 34.0062 32.7825C33.9162 33.1406 33.8207 33.4626 33.7486 33.813C32.5713 39.4988 33.6146 44.136 36.9045 47.6602C40.4107 51.37 45.8208 53.1991 53.1347 53.1991C65.6011 53.1991 75.1563 45.5941 76.1276 44.762L70.7175 43.5383C69.4448 43.832 62.5148 45.8389 55.5822 45.2128C46.8359 44.4271 44.8522 38.0226 45.3416 34.8435H80.4428L80.7648 33.813L81.0224 32.7181C82.6145 26.3342 81.7721 21.3131 78.5106 17.7116C75.2233 14.0791 70.0142 12.3015 62.7956 12.3015ZM166.811 12.3015C159.291 12.3015 152.49 14.2517 146.33 18.2268C140.16 22.2045 136.375 27.1329 134.93 32.9113C134.85 33.2282 134.734 33.5013 134.672 33.813C133.593 39.1767 135.023 43.7135 138.923 47.4026C143.061 51.2721 148.916 53.1991 156.506 53.1991C161.105 53.1991 165.93 52.2459 170.997 50.3653L173.96 38.579C170.59 41.1733 167.764 42.8968 165.523 43.7959C163.209 44.7233 160.708 45.2128 157.987 45.2128C153.724 45.2128 150.498 44.069 148.326 41.7349C146.405 39.6327 145.717 36.9637 146.265 33.813C146.327 33.4652 146.433 33.1406 146.523 32.7825C147.412 29.2325 149.55 26.2492 152.964 23.8945C156.369 21.5399 160.226 20.3522 164.492 20.3522C167.21 20.3522 169.41 20.8134 171.19 21.7691C173.004 22.694 174.905 24.4304 176.858 26.9216L179.821 15.0065C175.98 13.18 171.646 12.3015 166.811 12.3015ZM209.254 12.3015C202.105 12.3015 195.907 14.1693 190.641 17.9048C185.398 21.6944 181.995 26.6588 180.465 32.7825C180.375 33.1406 180.282 33.4626 180.207 33.813C179.027 39.4988 180.068 44.136 183.363 47.6602C186.864 51.37 192.282 53.1991 199.593 53.1991C212.055 53.1991 221.618 45.5941 222.586 44.762L217.176 43.5383C215.903 43.832 208.973 45.8389 202.041 45.2128C193.297 44.4271 191.306 38.0226 191.8 34.8435H226.901L227.223 33.813L227.481 32.7181C229.078 26.3342 228.29 21.3131 225.034 17.7116C221.746 14.0791 216.475 12.3015 209.254 12.3015ZM117.927 13.3964C112.96 13.3964 108.104 14.9318 103.371 18.0336L92.8731 14.4913L88.0426 33.813L83.2122 53.1991H94.612L99.2492 34.5215C99.3086 34.2819 99.3832 34.0294 99.4424 33.813C100.627 29.3613 102.217 26.1874 104.144 24.3454C106.21 22.3874 109.08 21.4471 112.839 21.4471C116.296 21.4471 118.535 22.1504 119.473 23.6369C120.449 25.0899 120.428 27.7434 119.473 31.5588L118.957 33.813L114.062 53.1991H125.462L130.293 33.813L131.388 29.4334C132.756 23.9744 132.379 20.0663 130.228 17.6472C127.747 14.8133 123.636 13.3964 117.927 13.3964ZM263.419 13.3964C258.45 13.3964 253.601 14.9318 248.864 18.0336L238.366 14.4913L233.535 33.813L228.705 53.1991H240.105L244.742 34.5215C244.804 34.2819 244.873 34.0294 244.935 33.813C246.125 29.3613 247.704 26.1874 249.637 24.3454C251.705 22.3874 254.567 21.4471 258.331 21.4471C261.786 21.4471 264.025 22.1504 264.965 23.6369C265.939 25.0899 265.921 27.7434 264.965 31.5588L264.385 33.813L259.555 53.1991H270.955L275.785 33.813L276.88 29.4334C278.248 23.9744 277.869 20.0663 275.721 17.6472C273.243 14.8133 269.123 13.3964 263.419 13.3964ZM379.157 17.454L377.804 23.7657H384.18L382.055 33.813L380.702 40.5112C380.409 41.9127 379.288 43.3734 377.353 44.9552C376.784 45.4241 376.434 45.7255 376.387 45.8569C377.096 48.075 378.358 50.2391 380.123 52.2331C380.259 52.2691 381.014 51.6045 382.312 50.3009C384.25 48.2476 389.165 43.7212 397.126 36.7113C397.1 36.621 396.662 35.6808 395.838 33.9418L395.773 33.813L394.614 31.2368L393.326 32.3317C392.708 32.8753 392.11 33.3751 391.587 33.813C390.196 35.0187 389.14 35.9023 388.431 36.4536L389.011 33.813L392.424 17.454H379.157ZM60.9922 20.3522C67.0361 20.3522 70.2667 22.7275 70.6531 27.5013H47.9179C48.5619 26.3883 49.309 25.4145 50.2365 24.5386C51.1562 23.6678 52.1944 22.8924 53.328 22.2844C54.4924 21.6455 55.711 21.1869 56.9991 20.8675C58.2923 20.5222 59.6165 20.3522 60.9922 20.3522ZM207.451 20.3522C213.495 20.3522 216.73 22.7275 217.112 27.5013H194.377C195.026 26.3883 195.775 25.4145 196.695 24.5386C197.62 23.6678 198.666 22.8924 199.787 22.2844C200.961 21.6455 202.17 21.1869 203.458 20.8675C204.756 20.5222 206.073 20.3522 207.451 20.3522ZM332.591 22.2844H335.94L334.459 29.4334H331.11L332.591 22.2844ZM357.259 23.1861H359.255C359.521 23.9512 359.889 24.7138 360.35 25.4403H355.455L356.357 24.281L357.259 23.1861ZM289.117 23.5081L286.541 33.813L281.646 53.1991H292.982L297.877 33.813L300.453 23.5081H289.117ZM350.303 30.5283H358.354L357.709 33.813L357.259 35.6808H351.72C351.926 34.9903 352.111 34.3721 352.299 33.813C352.513 33.169 352.686 32.6202 352.879 32.1385C352.609 31.9839 352.444 31.8808 352.299 31.8808H348.95L350.303 30.5283Z" fill="#006CB6"/>
</svg>
