<svg width="188" height="25" viewBox="0 0 188 25" fill="none" xmlns="http://www.w3.org/2000/svg">
<g clip-path="url(#clip0_150_243)">
<path d="M122.063 7.76245H116.399L118.626 10.9424H121.498L119.083 24.617H124.114L126.532 10.9424H132.807L122.9 3.01587L122.063 7.76245Z" fill="white"/>
<path d="M23.7371 0H0.882735L0.257324 3.58096H9.13187L5.41365 24.6163H10.4449L14.1631 3.58096H23.1131L23.7371 0Z" fill="white"/>
<path d="M27.4584 7.38436C21.0631 7.38436 16.9696 11.3865 16.1576 16.0379C15.2562 21.2029 18.4468 24.9819 24.8994 24.9819C27.784 24.9819 30.4813 24.4426 32.6727 23.2318L33.3533 19.3791C31.2122 20.9054 28.4877 21.7583 26.1789 21.7583C22.9617 21.7583 20.4041 20.4251 20.8066 17.3689H34.1003C34.261 17.0075 34.4525 16.3708 34.5915 15.5785C35.2358 11.8877 33.9207 7.38436 27.4584 7.38436ZM30.0648 14.3975H21.316C21.8415 12.6738 23.541 10.2911 26.6352 10.2911C30.0033 10.2911 30.3597 12.8378 30.0648 14.3975Z" fill="white"/>
<path d="M49.675 7.38507C46.5353 7.38507 44.1832 8.67858 43.0749 9.98808H42.9575L38.5287 7.38507C38.3658 8.8447 38.1478 10.8291 37.8075 12.7753L35.7412 24.6171H40.7704L42.5194 14.7006C42.604 14.2141 42.7703 13.6983 42.9876 13.348C43.7381 12.0455 45.3145 10.8472 47.3138 10.8472C50.06 10.8472 50.8077 12.6905 50.3856 15.1065L48.7029 24.6171H53.7342L55.5056 14.6075C56.4364 9.27773 53.1409 7.38577 49.675 7.38577" fill="white"/>
<path d="M110.025 7.38507C106.884 7.38507 104.534 8.67858 103.425 9.98808H103.307L98.8792 7.38507C98.7164 8.8447 98.4983 10.8291 98.1573 12.7753L96.0903 24.6171H101.119L102.87 14.7006C102.954 14.2141 103.12 13.6983 103.335 13.348C104.089 12.0455 105.664 10.8472 107.662 10.8472C110.411 10.8472 111.156 12.6905 110.735 15.1065L109.054 24.6171H114.084L115.854 14.6075C116.785 9.27773 113.491 7.38577 110.025 7.38577" fill="white"/>
<path d="M87.8066 7.38436C81.4127 7.38436 77.3199 11.3865 76.5073 16.0379C75.6058 21.2029 78.7958 24.9819 85.249 24.9819C88.1322 24.9819 90.8323 24.4426 93.023 23.2318L93.7029 19.3791C91.5618 20.9054 88.838 21.7583 86.5278 21.7583C83.3134 21.7583 80.7573 20.4251 81.157 17.3689H94.452C94.6106 17.0075 94.8035 16.3708 94.9433 15.5785C95.5854 11.8877 94.2689 7.38436 87.8066 7.38436ZM90.4151 14.3975H81.6657C82.1919 12.6738 83.8913 10.2911 86.9848 10.2911C90.3529 10.2911 90.7086 12.8378 90.4151 14.3975Z" fill="white"/>
<path d="M57.6175 15.9635C56.7049 21.1952 60.3875 24.9805 66.6206 24.9805C69.0978 24.9805 72.0579 24.2737 73.178 23.8594L73.9921 19.3547C72.243 21.2244 69.8742 21.6123 68.1943 21.6123C64.7688 21.6123 62.1764 19.63 62.7801 16.1748C63.3042 13.0853 66.2461 10.7095 70.0796 10.7095C71.6421 10.7095 73.7601 11.2308 75.0969 12.9796L75.876 8.39775C74.7943 7.98419 73.062 7.39478 70.4989 7.39478C63.5054 7.39478 58.4987 10.9187 57.6175 15.9649" fill="white"/>
<path d="M146.543 2.26247C145.171 9.75942 143.938 17.1716 142.538 24.6393H139.708C140.269 21.8236 140.913 18.8432 141.389 16.0831H139.373C138.756 18.9815 138.111 21.8799 137.496 24.6393H134.666C137.046 17.0868 138.223 9.3118 139.567 0.730557H144.862C146.236 0.730557 146.795 0.952977 146.543 2.26247ZM142.65 9.4244H140.716C140.426 10.9121 140.127 12.3982 139.82 13.8825H141.837L142.65 9.4244ZM143.238 3.04303H141.837C141.613 4.38033 141.389 5.77323 141.11 7.22244H143.014L143.715 3.57197C143.799 3.15424 143.631 3.04303 143.238 3.04303ZM154.415 21.351H144.919L144.527 19.2046H154.893V19.2324L154.415 21.351ZM157.553 13.0471L156.91 15.9441H158.282C159.207 15.9441 159.879 16.1401 159.71 17.2814C159.402 19.3436 158.842 22.2135 158.393 24.6393H150.942L150.327 22.438H155.817C156.07 21.2669 156.378 19.8455 156.545 18.6757C156.602 18.285 156.433 18.1453 156.041 18.1453H146.741L147.58 13.6587C146.909 13.9659 145.9 14.3003 144.919 14.4949L145.509 11.7925C147.246 11.3754 149.008 10.5379 150.101 9.34099H145.956L146.432 7.22244H151.559C151.839 6.8332 152.065 6.33137 152.176 5.96855H146.629L147.049 3.76798H149.038L148.309 0.506747H151.139L151.81 3.76798H152.791C153.099 2.6809 153.323 1.23239 153.351 0.0327148H156.236C156.181 1.23239 156.013 2.65171 155.732 3.76798H156.881C157.33 2.765 157.777 1.56672 158.141 0.506747H161.027C160.601 1.60656 160.143 2.69408 159.654 3.76798H161.671L161.14 5.96855H155.116C155.004 6.33137 154.779 6.86031 154.585 7.22244H161.98L161.475 9.34099H157.161C158.085 10.7054 160.3 11.7376 162.008 12.0983L161.054 14.4949C159.879 14.2453 158.59 13.6865 157.552 13.0471M154.64 13.4363H148.504L150.354 14.2725L150.018 15.9441H154.08L154.64 13.4363ZM155.676 11.3469C155.2 10.8166 154.695 9.95264 154.388 9.34099H153.351C152.791 10.0374 151.95 10.8166 151.222 11.3469H155.676Z" fill="white"/>
<path d="M164.149 7.19389H170.033C169.437 11.1452 168.764 15.0846 168.015 19.0099C169.136 18.1745 170.312 17.2806 171.377 16.3618L170.76 19.9573C168.771 21.6289 166.026 23.58 163.505 25.0007C164.598 19.9573 165.606 14.6067 166.335 9.67596H163.702L164.149 7.19389ZM171.068 5.88439C170.649 3.93405 170.117 1.8996 169.667 0.0055542H166.502C166.922 1.92671 167.372 3.99035 167.736 5.88439H171.068ZM185.44 0.757612H172.358L172.917 3.2369H182.695C183.339 3.2369 183.648 3.32031 183.507 4.04595C183.14 6.05522 182.757 8.06146 182.358 10.0645H178.1L178.829 5.82879L175.859 4.10156L174.768 10.0645H171.601L171.18 12.5445H174.291C173.645 16.5578 172.861 20.6524 172.049 24.6664H175.438C176.222 20.6253 177.007 16.5849 177.68 12.5445H181.911C181.204 16.5943 180.448 20.6353 179.64 24.6664H185.636L186.672 22.1572H183.479C184.741 15.7779 186.057 9.11643 187.177 2.68085C187.428 1.28725 187.15 0.757612 185.44 0.757612Z" fill="white"/>
</g>
<defs>
<clipPath id="clip0_150_243">
<rect width="187" height="25" fill="white" transform="translate(0.257324)"/>
</clipPath>
</defs>
</svg>
