<svg width="464" height="113" viewBox="0 0 464 113" fill="none" xmlns="http://www.w3.org/2000/svg">
<g clip-path="url(#clip0_102_46)">
<path d="M21.7494 0H90.8763C102.874 0 112.634 9.75983 112.634 21.7576V90.8845C112.634 102.882 102.874 112.642 90.8763 112.642H21.7494C9.75165 112.642 -0.00817871 102.882 -0.00817871 90.8845V21.7576C-0.00817871 9.75983 9.75165 0 21.7494 0Z" fill="#FFC700"/>
<path d="M69.4917 101.017C74.2983 101.017 78.1948 97.1208 78.1948 92.3142C78.1948 87.5077 74.2983 83.6112 69.4917 83.6112C64.6852 83.6112 60.7887 87.5077 60.7887 92.3142C60.7887 97.1208 64.6852 101.017 69.4917 101.017Z" fill="white"/>
<path d="M55.6912 34.1284V11.8735C43.5691 11.8735 33.685 21.7576 33.685 33.8797V79.4463C33.685 91.6305 43.507 101.453 55.6912 101.453V56.4454C67.9998 56.4454 78.0083 46.437 78.0083 34.1284H55.6912Z" fill="white"/>
<path d="M137.873 34.3148C137.873 27.4767 143.405 21.8819 150.306 21.8819H191.769C191.769 28.72 186.237 34.3148 179.336 34.3148H171.877V93.8062C164.106 93.8062 157.765 87.4654 157.765 79.6949V34.3148H137.873Z" fill="#28465B"/>
<path d="M219.743 52.7777L216.324 58.186C215.081 56.8184 213.651 55.5751 212.159 54.5183C210.605 53.4615 209.051 52.9642 207.497 52.9642C206.627 52.9642 205.756 53.1507 204.762 53.5237C203.767 53.8966 202.835 54.5805 201.964 55.4508C201.094 56.3211 200.348 57.5022 199.789 58.9941C199.229 60.4861 198.856 62.2888 198.856 64.4646V93.8063C191.707 93.8063 185.926 88.025 185.926 80.876V54.7669C185.926 47.618 191.707 41.8367 198.856 41.8367V47.4315C200.41 45.1936 202.151 43.5152 204.016 42.334C205.881 41.1529 207.994 40.5313 210.356 40.5313C212.719 40.5313 214.895 41.1529 217.07 42.3962C217.07 42.3962 217.132 42.3962 217.132 42.4584C220.862 44.3855 222.043 49.1721 219.743 52.7777Z" fill="#28465B"/>
<path d="M279.421 66.3296C279.421 67.1377 279.359 68.0702 279.297 68.9405L278.986 71.7379H237.398C237.895 73.2299 238.579 74.6596 239.45 76.0273C240.32 77.3949 241.377 78.576 242.62 79.5085C243.863 80.5031 245.293 81.2491 246.909 81.8707C248.526 82.4302 250.266 82.741 252.193 82.741C254.555 82.741 256.856 82.368 259.218 81.5599H259.28C263.321 80.1301 267.859 81.1248 270.905 84.1708L273.205 86.4709C269.599 89.144 266.056 91.0711 262.637 92.19C259.218 93.309 255.55 93.8685 251.696 93.8685C247.842 93.8685 244.174 93.1225 240.755 91.6927C237.336 90.2629 234.414 88.3358 231.928 85.8493C229.441 83.3627 227.452 80.5031 226.022 77.1462C224.592 73.8515 223.846 70.246 223.846 66.4539C223.846 62.6619 224.592 59.1185 226.022 55.7616C227.452 52.4669 229.441 49.5452 231.928 47.0586C234.414 44.572 237.398 42.6449 240.755 41.2151C244.112 39.7854 247.717 39.0394 251.572 39.0394C255.426 39.0394 258.721 39.7232 262.077 41.0908C265.434 42.4584 268.418 44.3234 270.967 46.6856C273.516 49.11 275.567 51.9696 277.059 55.2643C278.551 58.559 279.421 62.2889 279.421 66.3296ZM265.807 61.2943C264.813 57.9996 262.948 55.3265 260.337 53.3372C257.726 51.348 254.742 50.3533 251.509 50.3533C248.277 50.3533 245.355 51.348 242.806 53.3372C240.258 55.3265 238.455 57.9996 237.398 61.2943H265.807Z" fill="#28465B"/>
<path d="M294.216 35.7446C290.487 35.7446 287.44 32.6985 287.44 29.0308C287.44 25.3009 290.487 22.317 294.216 22.317C297.946 22.317 300.992 25.3631 300.992 29.0308C300.992 32.6985 297.946 35.7446 294.216 35.7446ZM300.806 93.8062C293.533 93.8062 287.689 87.9006 287.689 80.6895V41.7124C294.962 41.7124 300.806 47.618 300.806 54.8291V93.8062Z" fill="#28465B"/>
<path d="M359.986 93.8062C352.838 93.8062 347.056 88.0249 347.056 80.876V62.7861C347.056 60.9212 346.745 59.3049 346.186 57.8751C345.627 56.4454 344.818 55.2642 343.886 54.3939C342.953 53.4615 341.834 52.7776 340.591 52.3425C339.348 51.9073 338.105 51.6587 336.737 51.6587C334.748 51.6587 332.821 52.0317 330.831 52.7155C328.904 53.3993 327.164 54.5183 325.61 56.0102V93.8684C318.461 93.8684 312.679 88.0871 312.679 80.9382V41.7745H321.755C323.931 41.7745 325.672 43.5151 325.734 45.6287C326.48 44.8828 327.474 44.1368 328.593 43.453C329.712 42.7692 330.893 42.2718 332.137 41.7745C333.38 41.3394 334.623 40.9664 335.929 40.7177C337.234 40.4691 338.478 40.3447 339.659 40.3447C342.27 40.3447 344.818 40.7799 347.243 41.588C349.667 42.3962 351.843 43.7016 353.708 45.4422C355.573 47.1828 357.127 49.4208 358.246 52.156C359.365 54.8912 359.986 58.186 359.986 61.978V93.8062Z" fill="#28465B"/>
<path d="M448.136 92.4386H438.003C436.449 92.4386 435.206 91.1953 435.206 89.6412C432.905 91.1953 430.543 92.2521 427.932 92.8738C425.384 93.4954 422.773 93.7441 420.037 93.7441C417.551 93.7441 415.251 93.3711 413.199 92.6251C411.148 91.8791 409.407 90.8223 407.915 89.3925C406.423 87.9628 405.242 86.3465 404.434 84.4194C403.626 82.4923 403.191 80.3787 403.191 78.0164C403.191 75.0947 403.812 72.546 405.118 70.308C406.423 68.1323 408.164 66.2673 410.402 64.8376C412.64 63.3456 415.189 62.2888 418.172 61.5428C421.156 60.7969 424.327 60.486 427.746 60.486H435.206C435.206 57.44 434.211 55.0156 432.222 53.2128C430.232 51.41 427.373 50.5397 423.643 50.5397C421.84 50.5397 419.975 50.8505 418.048 51.5344H417.986C413.821 52.9641 409.221 52.0317 406.113 48.8613L404.621 47.3693C407.356 44.7584 410.588 42.707 414.194 41.2772C417.799 39.8474 421.529 39.1015 425.384 39.1015C428.989 39.1015 432.159 39.6609 435.019 40.8421C437.879 42.0232 440.117 43.453 441.857 45.2557C444.095 47.5558 445.711 50.1046 446.644 52.902C447.576 55.6994 448.011 59.3049 448.011 63.7186L448.136 92.4386ZM435.206 79.4462V69.8107H429.3C427.497 69.8107 425.819 69.9351 424.202 70.1837C422.586 70.4324 421.219 70.8054 420.037 71.3648C418.856 71.9243 417.924 72.6703 417.24 73.6028C416.556 74.4731 416.183 75.592 416.183 76.8353C416.183 78.6381 416.867 80.13 418.297 81.249C419.727 82.368 421.529 82.9896 423.767 82.9896C425.694 82.9896 427.621 82.6788 429.486 82.1193C431.351 81.4977 433.278 80.6273 435.206 79.4462Z" fill="#28465B"/>
<path d="M369.808 42.1476L369.746 34.1905C369.684 29.2174 373.725 25.1767 378.698 25.1767H382.925V40.407H396.042V44.6342C396.042 48.737 392.685 52.0939 388.582 52.0939H382.925V75.7786C382.925 77.084 383.112 78.203 383.422 79.0111C383.733 79.8193 384.168 80.5031 384.728 81.0004C385.287 81.4977 385.909 81.8085 386.593 81.995C387.277 82.1815 388.023 82.2437 388.769 82.2437C389.763 82.2437 391.007 82.0572 392.436 81.6842C393.866 81.3112 395.109 80.7517 396.104 79.8814V90.2629C396.104 90.9467 395.731 91.5684 395.109 91.8792C394.053 92.4387 392.809 92.8738 391.504 93.1846C389.763 93.6198 388.023 93.8063 386.282 93.8063C383.236 93.8063 380.625 93.4333 378.512 92.6873C376.398 91.9414 374.719 90.7602 373.476 89.2061C372.233 87.652 371.3 85.6627 370.741 83.2383C370.181 80.8139 369.871 78.0165 369.871 74.784V58.6833L369.808 51.9696V42.1476Z" fill="#28465B"/>
<path d="M455.223 38.0447C454.104 38.0447 453.047 37.8582 452.052 37.423C451.058 36.9879 450.249 36.4284 449.503 35.7446C448.757 34.9986 448.198 34.1905 447.825 33.1958C447.39 32.2012 447.203 31.1444 447.203 30.0254C447.203 28.9065 447.39 27.8497 447.825 26.855C448.26 25.8604 448.82 25.0523 449.503 24.3063C450.187 23.5603 451.058 23.0009 452.052 22.6279C453.047 22.2549 454.104 22.0062 455.223 22.0062C456.341 22.0062 457.398 22.1927 458.393 22.6279C459.388 23.063 460.196 23.6225 460.942 24.3063C461.688 25.0523 462.247 25.8604 462.62 26.855C463.055 27.8497 463.242 28.9065 463.242 30.0254C463.242 31.1444 463.055 32.2012 462.62 33.1958C462.185 34.1905 461.625 34.9986 460.942 35.7446C460.196 36.4905 459.388 37.05 458.393 37.423C457.46 37.796 456.404 38.0447 455.223 38.0447ZM455.223 36.8635C456.528 36.8635 457.709 36.5527 458.704 35.9311C459.698 35.3094 460.507 34.5013 461.128 33.4445C461.75 32.3877 461.998 31.2687 461.998 29.9633C461.998 28.6578 461.688 27.4767 461.128 26.4821C460.569 25.4874 459.761 24.6171 458.704 24.0576C457.647 23.4982 456.528 23.1873 455.223 23.1873C453.917 23.1873 452.736 23.4982 451.741 24.0576C450.685 24.6793 449.876 25.4874 449.317 26.4821C448.757 27.4767 448.447 28.6578 448.447 29.9633C448.447 31.2687 448.757 32.4499 449.317 33.4445C449.876 34.4391 450.685 35.3094 451.741 35.9311C452.798 36.5527 453.979 36.8635 455.223 36.8635ZM451.803 34.6878V25.3631H455.844C456.901 25.3631 457.709 25.6118 458.269 26.1091C458.828 26.6064 459.077 27.2902 459.077 28.0983C459.077 28.7821 458.89 29.2795 458.579 29.7146C458.269 30.1498 457.771 30.3984 457.15 30.5849C457.398 30.6471 457.647 30.8336 457.833 31.0822C458.02 31.3309 458.206 31.7039 458.331 32.139L459.139 34.6878H456.963L456.093 31.8904C455.969 31.5795 455.844 31.3309 455.596 31.2687C455.347 31.1444 455.098 31.0822 454.85 31.0822H453.855V34.6878H451.803ZM453.917 29.466H455.596C456.59 29.466 457.087 29.0308 457.087 28.1605C457.087 27.2902 456.59 26.855 455.596 26.855H453.917V29.466Z" fill="#28465B"/>
<path d="M137.873 34.3148C137.873 27.4767 143.405 21.8819 150.306 21.8819H191.769C191.769 28.72 186.237 34.3148 179.336 34.3148H171.877V93.8062C164.106 93.8062 157.765 87.4654 157.765 79.6949V34.3148H137.873Z" fill="#1A2732"/>
<path d="M219.743 52.7777L216.324 58.186C215.081 56.8184 213.651 55.5751 212.159 54.5183C210.605 53.4615 209.051 52.9642 207.497 52.9642C206.627 52.9642 205.756 53.1507 204.762 53.5237C203.767 53.8966 202.835 54.5805 201.964 55.4508C201.094 56.3211 200.348 57.5022 199.789 58.9941C199.229 60.4861 198.856 62.2888 198.856 64.4646V93.8063C191.707 93.8063 185.926 88.025 185.926 80.876V54.7669C185.926 47.618 191.707 41.8367 198.856 41.8367V47.4315C200.41 45.1936 202.151 43.5152 204.016 42.334C205.881 41.1529 207.994 40.5313 210.356 40.5313C212.719 40.5313 214.895 41.1529 217.07 42.3962C217.07 42.3962 217.132 42.3962 217.132 42.4584C220.862 44.3855 222.043 49.1721 219.743 52.7777Z" fill="#1A2732"/>
<path d="M279.421 66.3296C279.421 67.1377 279.359 68.0702 279.297 68.9405L278.986 71.7379H237.398C237.895 73.2299 238.579 74.6596 239.45 76.0273C240.32 77.3949 241.377 78.576 242.62 79.5085C243.863 80.5031 245.293 81.2491 246.909 81.8707C248.526 82.4302 250.266 82.741 252.193 82.741C254.555 82.741 256.856 82.368 259.218 81.5599H259.28C263.321 80.1301 267.859 81.1248 270.905 84.1708L273.205 86.4709C269.599 89.144 266.056 91.0711 262.637 92.19C259.218 93.309 255.55 93.8685 251.696 93.8685C247.842 93.8685 244.174 93.1225 240.755 91.6927C237.336 90.2629 234.414 88.3358 231.928 85.8493C229.441 83.3627 227.452 80.5031 226.022 77.1462C224.592 73.8515 223.846 70.246 223.846 66.4539C223.846 62.6619 224.592 59.1185 226.022 55.7616C227.452 52.4669 229.441 49.5452 231.928 47.0586C234.414 44.572 237.398 42.6449 240.755 41.2151C244.112 39.7854 247.717 39.0394 251.572 39.0394C255.426 39.0394 258.721 39.7232 262.077 41.0908C265.434 42.4584 268.418 44.3234 270.967 46.6856C273.516 49.11 275.567 51.9696 277.059 55.2643C278.551 58.559 279.421 62.2889 279.421 66.3296ZM265.807 61.2943C264.813 57.9996 262.948 55.3265 260.337 53.3372C257.726 51.348 254.742 50.3533 251.509 50.3533C248.277 50.3533 245.355 51.348 242.806 53.3372C240.258 55.3265 238.455 57.9996 237.398 61.2943H265.807Z" fill="#1A2732"/>
<path d="M294.216 35.7446C290.487 35.7446 287.44 32.6985 287.44 29.0308C287.44 25.3009 290.487 22.317 294.216 22.317C297.946 22.317 300.992 25.3631 300.992 29.0308C300.992 32.6985 297.946 35.7446 294.216 35.7446ZM300.806 93.8062C293.533 93.8062 287.689 87.9006 287.689 80.6895V41.7124C294.962 41.7124 300.806 47.618 300.806 54.8291V93.8062Z" fill="#1A2732"/>
<path d="M359.986 93.8062C352.838 93.8062 347.056 88.0249 347.056 80.876V62.7861C347.056 60.9212 346.745 59.3049 346.186 57.8751C345.627 56.4454 344.818 55.2642 343.886 54.3939C342.953 53.4615 341.834 52.7776 340.591 52.3425C339.348 51.9073 338.105 51.6587 336.737 51.6587C334.748 51.6587 332.821 52.0317 330.831 52.7155C328.904 53.3993 327.164 54.5183 325.61 56.0102V93.8684C318.461 93.8684 312.679 88.0871 312.679 80.9382V41.7745H321.755C323.931 41.7745 325.672 43.5151 325.734 45.6287C326.48 44.8828 327.474 44.1368 328.593 43.453C329.712 42.7692 330.893 42.2718 332.137 41.7745C333.38 41.3394 334.623 40.9664 335.929 40.7177C337.234 40.4691 338.478 40.3447 339.659 40.3447C342.27 40.3447 344.818 40.7799 347.243 41.588C349.667 42.3962 351.843 43.7016 353.708 45.4422C355.573 47.1828 357.127 49.4208 358.246 52.156C359.365 54.8912 359.986 58.186 359.986 61.978V93.8062Z" fill="#1A2732"/>
<path d="M448.136 92.4386H438.003C436.449 92.4386 435.206 91.1953 435.206 89.6412C432.905 91.1953 430.543 92.2521 427.932 92.8738C425.384 93.4954 422.773 93.7441 420.037 93.7441C417.551 93.7441 415.251 93.3711 413.199 92.6251C411.148 91.8791 409.407 90.8223 407.915 89.3925C406.423 87.9628 405.242 86.3465 404.434 84.4194C403.626 82.4923 403.191 80.3787 403.191 78.0164C403.191 75.0947 403.812 72.546 405.118 70.308C406.423 68.1323 408.164 66.2673 410.402 64.8376C412.64 63.3456 415.189 62.2888 418.172 61.5428C421.156 60.7969 424.327 60.486 427.746 60.486H435.206C435.206 57.44 434.211 55.0156 432.222 53.2128C430.232 51.41 427.373 50.5397 423.643 50.5397C421.84 50.5397 419.975 50.8505 418.048 51.5344H417.986C413.821 52.9641 409.221 52.0317 406.113 48.8613L404.621 47.3693C407.356 44.7584 410.588 42.707 414.194 41.2772C417.799 39.8474 421.529 39.1015 425.384 39.1015C428.989 39.1015 432.159 39.6609 435.019 40.8421C437.879 42.0232 440.117 43.453 441.857 45.2557C444.095 47.5558 445.711 50.1046 446.644 52.902C447.576 55.6994 448.011 59.3049 448.011 63.7186L448.136 92.4386ZM435.206 79.4462V69.8107H429.3C427.497 69.8107 425.819 69.9351 424.202 70.1837C422.586 70.4324 421.219 70.8054 420.037 71.3648C418.856 71.9243 417.924 72.6703 417.24 73.6028C416.556 74.4731 416.183 75.592 416.183 76.8353C416.183 78.6381 416.867 80.13 418.297 81.249C419.727 82.368 421.529 82.9896 423.767 82.9896C425.694 82.9896 427.621 82.6788 429.486 82.1193C431.351 81.4977 433.278 80.6273 435.206 79.4462Z" fill="#1A2732"/>
<path d="M369.808 42.1476L369.746 34.1905C369.684 29.2174 373.725 25.1767 378.698 25.1767H382.925V40.407H396.042V44.6342C396.042 48.737 392.685 52.0939 388.582 52.0939H382.925V75.7786C382.925 77.084 383.112 78.203 383.422 79.0111C383.733 79.8193 384.168 80.5031 384.728 81.0004C385.287 81.4977 385.909 81.8085 386.593 81.995C387.277 82.1815 388.023 82.2437 388.769 82.2437C389.763 82.2437 391.007 82.0572 392.436 81.6842C393.866 81.3112 395.109 80.7517 396.104 79.8814V90.2629C396.104 90.9467 395.731 91.5684 395.109 91.8792C394.053 92.4387 392.809 92.8738 391.504 93.1846C389.763 93.6198 388.023 93.8063 386.282 93.8063C383.236 93.8063 380.625 93.4333 378.512 92.6873C376.398 91.9414 374.719 90.7602 373.476 89.2061C372.233 87.652 371.3 85.6627 370.741 83.2383C370.181 80.8139 369.871 78.0165 369.871 74.784V58.6833L369.808 51.9696V42.1476Z" fill="#1A2732"/>
<path d="M455.223 38.0447C454.104 38.0447 453.047 37.8582 452.052 37.423C451.058 36.9879 450.249 36.4284 449.503 35.7446C448.757 34.9986 448.198 34.1905 447.825 33.1958C447.39 32.2012 447.203 31.1444 447.203 30.0254C447.203 28.9065 447.39 27.8497 447.825 26.855C448.26 25.8604 448.82 25.0523 449.503 24.3063C450.187 23.5603 451.058 23.0009 452.052 22.6279C453.047 22.2549 454.104 22.0062 455.223 22.0062C456.341 22.0062 457.398 22.1927 458.393 22.6279C459.388 23.063 460.196 23.6225 460.942 24.3063C461.688 25.0523 462.247 25.8604 462.62 26.855C463.055 27.8497 463.242 28.9065 463.242 30.0254C463.242 31.1444 463.055 32.2012 462.62 33.1958C462.185 34.1905 461.625 34.9986 460.942 35.7446C460.196 36.4905 459.388 37.05 458.393 37.423C457.46 37.796 456.404 38.0447 455.223 38.0447ZM455.223 36.8635C456.528 36.8635 457.709 36.5527 458.704 35.9311C459.698 35.3094 460.507 34.5013 461.128 33.4445C461.75 32.3877 461.998 31.2687 461.998 29.9633C461.998 28.6578 461.688 27.4767 461.128 26.4821C460.569 25.4874 459.761 24.6171 458.704 24.0576C457.647 23.4982 456.528 23.1873 455.223 23.1873C453.917 23.1873 452.736 23.4982 451.741 24.0576C450.685 24.6793 449.876 25.4874 449.317 26.4821C448.757 27.4767 448.447 28.6578 448.447 29.9633C448.447 31.2687 448.757 32.4499 449.317 33.4445C449.876 34.4391 450.685 35.3094 451.741 35.9311C452.798 36.5527 453.979 36.8635 455.223 36.8635ZM451.803 34.6878V25.3631H455.844C456.901 25.3631 457.709 25.6118 458.269 26.1091C458.828 26.6064 459.077 27.2902 459.077 28.0983C459.077 28.7821 458.89 29.2795 458.579 29.7146C458.269 30.1498 457.771 30.3984 457.15 30.5849C457.398 30.6471 457.647 30.8336 457.833 31.0822C458.02 31.3309 458.206 31.7039 458.331 32.139L459.139 34.6878H456.963L456.093 31.8904C455.969 31.5795 455.844 31.3309 455.596 31.2687C455.347 31.1444 455.098 31.0822 454.85 31.0822H453.855V34.6878H451.803ZM453.917 29.466H455.596C456.59 29.466 457.087 29.0308 457.087 28.1605C457.087 27.2902 456.59 26.855 455.596 26.855H453.917V29.466Z" fill="#1A2732"/>
</g>
<defs>
<clipPath id="clip0_102_46">
<rect width="463.25" height="112.642" fill="white" transform="translate(-0.00817871)"/>
</clipPath>
</defs>
</svg>
