<svg width="113" height="37" viewBox="0 0 113 37" fill="none" xmlns="http://www.w3.org/2000/svg">
<path d="M15.7827 17.805H11.5901C11.5362 17.8048 11.4827 17.8152 11.4328 17.8357C11.3829 17.8561 11.3375 17.8862 11.2992 17.9242C11.2609 17.9622 11.2305 18.0073 11.2096 18.0571C11.1888 18.1068 11.1779 18.1602 11.1777 18.2141V18.7837C11.1779 18.8376 11.1888 18.891 11.2096 18.9407C11.2305 18.9905 11.2609 19.0356 11.2992 19.0736C11.3375 19.1116 11.3829 19.1417 11.4328 19.1621C11.4827 19.1825 11.5362 19.193 11.5901 19.1927H16.0839C16.1671 19.1923 16.2495 19.2083 16.3265 19.2397C16.4034 19.2711 16.4735 19.3174 16.5325 19.3758C16.5916 19.4343 16.6386 19.5039 16.6708 19.5805C16.7031 19.6571 16.7199 19.7394 16.7203 19.8225C16.7203 19.8335 16.7203 19.845 16.7203 19.8554C16.7 20.2154 16.6507 20.5733 16.573 20.9254C16.5489 21.035 16.5211 21.1445 16.4897 21.254C16.4518 21.3861 16.3719 21.5023 16.2622 21.5849C16.1524 21.6676 16.0187 21.7124 15.8813 21.7124H14.1716C14.1177 21.7122 14.0642 21.7226 14.0143 21.743C13.9644 21.7635 13.919 21.7935 13.8807 21.8315C13.8424 21.8695 13.812 21.9147 13.7911 21.9644C13.7703 22.0142 13.7595 22.0675 13.7593 22.1215V22.691C13.7595 22.7449 13.7703 22.7983 13.7911 22.848C13.812 22.8978 13.8424 22.943 13.8807 22.9809C13.919 23.0189 13.9644 23.049 14.0143 23.0694C14.0642 23.0899 14.1177 23.1003 14.1716 23.1001H15.1343C15.181 23.0997 15.2268 23.1121 15.2668 23.136C15.3068 23.1598 15.3395 23.1943 15.3613 23.2355C15.3831 23.2767 15.3931 23.3231 15.3902 23.3697C15.3874 23.4162 15.3718 23.461 15.3452 23.4993C12.2237 27.8639 4.99883 31.3096 8.52392 37C10.2101 33.0237 20.4206 27.7286 20.4206 21.4194C20.4206 15.3484 13.561 11.7965 11.8984 9.84033C11.3437 10.9208 12.3152 12.0002 13.8063 13.4361C13.8318 13.4605 13.8522 13.4897 13.8664 13.522C13.8805 13.5544 13.8881 13.5892 13.8887 13.6244C13.8893 13.6597 13.8829 13.6948 13.8699 13.7276C13.8569 13.7604 13.8375 13.7903 13.8129 13.8156C13.7875 13.8413 13.7573 13.8618 13.7239 13.8758C13.6905 13.8898 13.6547 13.8971 13.6185 13.8972H9.00583C8.95189 13.897 8.89844 13.9074 8.84853 13.9278C8.79861 13.9482 8.75322 13.9783 8.71492 14.0163C8.67663 14.0543 8.6462 14.0994 8.62536 14.1492C8.60452 14.1989 8.59368 14.2523 8.59347 14.3062V14.8758C8.59368 14.9297 8.60452 14.9831 8.62536 15.0328C8.6462 15.0826 8.67663 15.1277 8.71492 15.1657C8.75322 15.2037 8.79861 15.2338 8.84853 15.2542C8.89844 15.2747 8.95189 15.2851 9.00583 15.2849H14.9115C15.0245 15.2846 15.1357 15.3129 15.2349 15.3671C15.3341 15.4212 15.418 15.4996 15.4788 15.5948C15.7864 16.0758 16.0477 16.5848 16.2592 17.115C16.2837 17.177 16.2957 17.2432 16.2946 17.3098C16.2934 17.3765 16.2791 17.4422 16.2524 17.5033C16.2257 17.5644 16.1873 17.6196 16.1392 17.6657C16.0911 17.7119 16.0343 17.7481 15.9722 17.7722C15.9118 17.7956 15.8476 17.8077 15.7827 17.8078" fill="white"/>
<path d="M5.35803 19.1955H9.55122C9.60516 19.1957 9.65861 19.1853 9.70852 19.1649C9.75844 19.1444 9.80384 19.1143 9.84213 19.0764C9.88042 19.0384 9.91086 18.9932 9.9317 18.9435C9.95254 18.8937 9.96337 18.8403 9.96359 18.7864V18.2169C9.96337 18.1629 9.95254 18.1096 9.9317 18.0598C9.91086 18.0101 9.88042 17.9649 9.84213 17.9269C9.80384 17.8889 9.75844 17.8589 9.70852 17.8384C9.65861 17.818 9.60516 17.8076 9.55122 17.8078H5.05738C4.97427 17.8082 4.89189 17.7923 4.81495 17.7609C4.73801 17.7294 4.66801 17.6832 4.60897 17.6247C4.54992 17.5662 4.50298 17.4966 4.47083 17.42C4.43867 17.3434 4.42194 17.2611 4.42158 17.178C4.42158 17.1671 4.42158 17.1556 4.42158 17.1452C4.44189 16.7851 4.49115 16.4273 4.56889 16.0751C4.59299 15.9656 4.62366 15.856 4.65213 15.7465C4.69016 15.6144 4.77013 15.4982 4.87999 15.4155C4.98984 15.3329 5.1236 15.2881 5.2611 15.2882H6.96915C7.02309 15.2884 7.07654 15.278 7.12645 15.2575C7.17637 15.2371 7.22177 15.207 7.26006 15.169C7.29835 15.131 7.32878 15.0859 7.34962 15.0361C7.37046 14.9864 7.3813 14.933 7.38152 14.8791V14.3095C7.3813 14.2556 7.37046 14.2022 7.34962 14.1525C7.32878 14.1027 7.29835 14.0576 7.26006 14.0196C7.22177 13.9816 7.17637 13.9515 7.12645 13.9311C7.07654 13.9107 7.02309 13.9002 6.96915 13.9005H6.00697C5.96028 13.9011 5.91433 13.8888 5.87418 13.8649C5.83403 13.8411 5.80125 13.8066 5.77944 13.7653C5.75763 13.7241 5.74765 13.6775 5.7506 13.6309C5.75354 13.5843 5.7693 13.5395 5.79613 13.5012C8.91762 9.13664 16.1425 5.69096 12.6174 0C10.9312 3.97743 0.720703 9.273 0.720703 15.5844C0.720703 21.6554 7.58031 25.2074 9.24291 27.1624C9.79766 26.0819 8.82616 25.0025 7.33497 23.5667C7.30944 23.5423 7.289 23.5131 7.27482 23.4808C7.26063 23.4485 7.25299 23.4137 7.25233 23.3784C7.25167 23.3431 7.258 23.308 7.27096 23.2752C7.28392 23.2424 7.30326 23.2125 7.32785 23.1872C7.35327 23.1612 7.3836 23.1406 7.41707 23.1265C7.45054 23.1124 7.48649 23.1051 7.5228 23.105H12.136C12.19 23.1052 12.2434 23.0948 12.2933 23.0744C12.3432 23.0539 12.3886 23.0239 12.4269 22.9859C12.4652 22.9479 12.4957 22.9027 12.5165 22.853C12.5373 22.8032 12.5482 22.7499 12.5484 22.6959V22.1242C12.5482 22.0703 12.5373 22.0169 12.5165 21.9672C12.4957 21.9174 12.4652 21.8723 12.4269 21.8343C12.3886 21.7963 12.3432 21.7662 12.2933 21.7458C12.2434 21.7253 12.19 21.7149 12.136 21.7151H6.22985C6.11684 21.7154 6.00559 21.6871 5.90642 21.6329C5.80724 21.5788 5.72335 21.5004 5.66251 21.4052C5.3551 20.924 5.094 20.4148 4.88268 19.8844C4.85832 19.8221 4.84658 19.7555 4.84814 19.6886C4.84971 19.6217 4.86455 19.5557 4.89181 19.4946C4.91907 19.4335 4.95819 19.3783 5.00692 19.3324C5.05565 19.2866 5.11301 19.2508 5.17567 19.2273C5.23425 19.2049 5.29642 19.1934 5.35912 19.1933" fill="white"/>
<path d="M38.1607 21.271C37.724 21.5307 37.2476 21.7166 36.7505 21.8214C36.169 21.9521 35.5745 22.0164 34.9784 22.0131C33.2749 22.0131 31.9653 21.5981 31.0497 20.7683C30.1341 19.9385 29.6757 18.7021 29.6746 17.0592V12.7034H27.7705V9.30808H29.6752V5.9314H34.2572V9.30534H37.2467V12.7034H34.2572V17.011C34.2339 17.409 34.3681 17.8003 34.6307 18.1003C34.7602 18.233 34.9164 18.3368 35.0889 18.4048C35.2615 18.4729 35.4464 18.5036 35.6317 18.4951C36.1283 18.5052 36.6162 18.3632 37.0298 18.0882L38.1607 21.271Z" fill="white"/>
<path d="M61.4458 8.83105L56.791 21.8016H52.3552L49.8991 14.7411L47.3438 21.8005H42.908L38.2532 8.82996H42.592L45.2678 16.6797L48.0399 8.82996H51.945L54.6448 16.7525L57.4169 8.82996L61.4458 8.83105Z" fill="white"/>
<path d="M65.279 21.1758C64.1943 20.6382 63.2804 19.8096 62.6394 18.7826C62.1564 18.0112 61.8403 17.1471 61.7115 16.246C61.5828 15.345 61.6442 14.427 61.8918 13.5511C62.1395 12.6752 62.5678 11.8609 63.1493 11.1607C63.7308 10.4605 64.4526 9.88982 65.2681 9.48552C66.4577 8.92586 67.7561 8.63568 69.0708 8.63568C70.3855 8.63568 71.6839 8.92586 72.8735 9.48552C73.9645 10.0118 74.8811 10.841 75.5137 11.874C76.1463 12.907 76.4683 14.1002 76.4414 15.3112C76.4666 16.5267 76.1443 17.7242 75.5123 18.7628C74.8802 19.8015 73.9648 20.638 72.8735 21.1741C71.6882 21.7411 70.3908 22.0354 69.0768 22.0354C67.7628 22.0354 66.4655 21.7411 65.2801 21.1741M71.0412 17.5964C71.585 16.9634 71.8616 16.1438 71.8128 15.3106C71.8604 14.4888 71.5833 13.6811 71.0412 13.0615C70.5153 12.5404 69.8049 12.248 69.0645 12.248C68.3241 12.248 67.6137 12.5404 67.0878 13.0615C66.5454 13.6809 66.2683 14.4887 66.3162 15.3106C66.2667 16.1439 66.543 16.9637 67.0867 17.597C67.3453 17.8585 67.6531 18.066 67.9924 18.2077C68.3317 18.3494 68.6957 18.4223 69.0634 18.4223C69.4311 18.4223 69.7951 18.3494 70.1344 18.2077C70.4737 18.066 70.7816 17.8585 71.0401 17.597" fill="white"/>
<path d="M80.1036 21.6417C79.2054 21.4576 78.3427 21.1303 77.5483 20.6724L78.9223 17.5613C79.582 17.9564 80.2966 18.2517 81.0428 18.4376C81.8371 18.6495 82.6554 18.7581 83.4775 18.7607C84.0138 18.7937 84.5512 18.7164 85.0563 18.5334C85.1922 18.4845 85.31 18.3955 85.3942 18.2782C85.4783 18.1608 85.5247 18.0206 85.5273 17.8762C85.5273 17.5893 85.3384 17.3859 84.9605 17.2662C84.3717 17.1041 83.7711 16.988 83.1643 16.919C82.2649 16.8194 81.3744 16.6513 80.5006 16.4163C79.7763 16.2134 79.1217 15.8156 78.608 15.2662C78.0458 14.6191 77.7602 13.777 77.8128 12.9213C77.8033 12.12 78.0669 11.3393 78.5604 10.7078C79.1336 10.0069 79.888 9.47652 80.7416 9.17441C81.8422 8.77435 83.0078 8.58324 84.1785 8.6109C85.1259 8.61082 86.0708 8.70697 86.9988 8.89786C87.8153 9.04854 88.604 9.32296 89.3377 9.71164L87.9632 12.7986C86.8119 12.1623 85.5163 11.833 84.2009 11.8425C83.6596 11.8112 83.118 11.8969 82.6128 12.0938C82.4731 12.1414 82.3505 12.2291 82.2604 12.346C82.1703 12.4629 82.1167 12.6038 82.1063 12.751C82.1063 13.054 82.2912 13.2654 82.661 13.3851C83.2618 13.5531 83.874 13.677 84.4928 13.7559C85.396 13.8784 86.2899 14.0614 87.1685 14.3035C87.874 14.5102 88.5109 14.9029 89.0124 15.4404C89.566 16.0778 89.8474 16.907 89.7961 17.7497C89.8031 18.5436 89.5397 19.3161 89.0491 19.9402C88.4704 20.6432 87.7062 21.1699 86.8432 21.4605C85.7174 21.8523 84.5302 22.0387 83.3384 22.0108C82.2507 22.0112 81.1666 21.8865 80.1074 21.639" fill="white"/>
<path d="M96.3506 8.82672H91.7708V21.7962H96.3506V8.82672Z" fill="white"/>
<path d="M107.608 21.7968L105.27 18.3987L102.763 21.7968H97.7974L102.763 15.3112L97.9436 8.82617H103.102L105.417 12.1048L107.826 8.82617H112.672L107.853 15.1436L112.842 21.7968H107.608Z" fill="white"/>
<path d="M31.1996 27.3678H29.5469V26.5272H33.8085V27.3678H32.1558V30.9887H31.1996V27.3678Z" fill="white"/>
<path d="M38.0712 29.0769V30.1618H40.6034V30.9892H37.1145V26.5272H40.4813V27.3612H38.0718V28.3469H40.196V29.0791L38.0712 29.0769Z" fill="white"/>
<path d="M43.7201 28.7987C43.7179 28.4917 43.7761 28.1872 43.8915 27.9028C44.007 27.6183 44.1773 27.3593 44.3928 27.1406C44.6083 26.922 44.8648 26.7479 45.1476 26.6283C45.4304 26.5088 45.7339 26.4461 46.0409 26.4439C46.0869 26.4439 46.1329 26.4439 46.1789 26.4439C46.8073 26.417 47.4232 26.6249 47.9067 27.0271L47.531 27.7796C47.1689 27.4602 46.7023 27.2848 46.2195 27.2867C45.8395 27.2699 45.4684 27.4047 45.1877 27.6614C44.9071 27.9181 44.7398 28.2758 44.7228 28.6558C44.7204 28.7012 44.7204 28.7467 44.7228 28.7921C44.7166 28.9911 44.753 29.1892 44.8294 29.373C44.9058 29.5569 45.0206 29.7223 45.166 29.8583C45.3114 29.9943 45.4842 30.0977 45.6727 30.1617C45.8613 30.2256 46.0613 30.2486 46.2594 30.2291C46.7927 30.2178 47.3012 30.0021 47.68 29.6267L48.0562 30.3184C47.8138 30.5652 47.5231 30.7595 47.2023 30.889C46.8815 31.0186 46.5374 31.0806 46.1915 31.0714C44.5043 31.0714 43.719 30.0205 43.719 28.8003" fill="white"/>
<path d="M52.4165 26.5272V28.2697H54.5134V26.5272H55.4696V30.9887H54.5134V29.1109H52.4165V30.9887H51.4587V26.5272H52.4165Z" fill="white"/>
<path d="M62.5585 26.5272H63.5142V30.9887H62.6199L60.1605 28.0052H60.149C60.149 28.0052 60.2103 28.6903 60.2103 29.0282V30.9871H59.2542V26.5272H60.1627L62.6067 29.497H62.6204C62.6204 29.497 62.5591 28.8053 62.5591 28.5479L62.5585 26.5272Z" fill="white"/>
<path d="M71.8676 28.7313C71.8379 29.3595 71.5674 29.9522 71.1123 30.3862C70.6572 30.8203 70.0525 31.0624 69.4236 31.0624C68.7947 31.0624 68.1899 30.8203 67.7348 30.3862C67.2797 29.9522 67.0092 29.3595 66.9795 28.7313C67.021 28.1114 67.2966 27.5304 67.7503 27.106C68.2041 26.6816 68.8022 26.4455 69.4236 26.4455C70.0449 26.4455 70.643 26.6816 71.0968 27.106C71.5506 27.5304 71.8261 28.1114 71.8676 28.7313ZM67.9882 28.7379C67.9796 29.11 68.1154 29.471 68.3671 29.7451C68.6189 30.0192 68.967 30.1852 69.3385 30.2083C69.71 30.2313 70.0759 30.1095 70.3596 29.8686C70.6433 29.6276 70.8226 29.2862 70.86 28.9159C70.8631 28.8566 70.8622 28.7971 70.8573 28.7379C70.8643 28.557 70.8356 28.3764 70.7728 28.2066C70.71 28.0368 70.6144 27.881 70.4914 27.7481C70.3683 27.6153 70.2203 27.508 70.0558 27.4324C69.8913 27.3568 69.7135 27.3143 69.5325 27.3075C69.4958 27.3075 69.4597 27.3075 69.423 27.3075C69.0569 27.2936 68.7001 27.4256 68.4312 27.6745C68.1623 27.9234 68.0032 28.2688 67.9888 28.635C67.9888 28.6695 67.9888 28.704 67.9888 28.7385L67.9882 28.7379Z" fill="white"/>
<path d="M76.2877 26.5272V30.1481H78.6507V30.9887H75.3315V26.5272H76.2877Z" fill="white"/>
<path d="M86.5327 28.7313C86.5029 29.3595 86.2324 29.9522 85.7774 30.3862C85.3223 30.8203 84.7175 31.0624 84.0886 31.0624C83.4597 31.0624 82.855 30.8203 82.3999 30.3862C81.9448 29.9522 81.6743 29.3595 81.6445 28.7313C81.6861 28.1114 81.9616 27.5304 82.4154 27.106C82.8692 26.6816 83.4673 26.4455 84.0886 26.4455C84.7099 26.4455 85.308 26.6816 85.7618 27.106C86.2156 27.5304 86.4912 28.1114 86.5327 28.7313ZM82.6533 28.7379C82.6464 29.1089 82.783 29.4682 83.0346 29.7409C83.2862 30.0136 83.6333 30.1786 84.0037 30.2016C84.374 30.2246 84.7389 30.1037 85.0222 29.8641C85.3056 29.6246 85.4855 29.2849 85.5245 28.9159C85.5276 28.8566 85.5267 28.7971 85.5218 28.7379C85.5288 28.557 85.5001 28.3764 85.4373 28.2066C85.3745 28.0368 85.2789 27.881 85.1559 27.7481C85.0328 27.6153 84.8848 27.508 84.7203 27.4324C84.5558 27.3568 84.378 27.3143 84.197 27.3075C84.1609 27.3075 84.1242 27.3075 84.0875 27.3075C83.7213 27.2933 83.3645 27.4251 83.0954 27.6739C82.8263 27.9227 82.6671 28.2682 82.6527 28.6344C82.6527 28.6695 82.6527 28.704 82.6527 28.7385" fill="white"/>
<path d="M90.6683 28.8053C90.6535 28.9872 90.6764 29.1703 90.7355 29.343C90.7945 29.5157 90.8885 29.6744 91.0115 29.8093C91.1345 29.9441 91.284 30.0522 91.4506 30.1268C91.6172 30.2014 91.7973 30.2409 91.9799 30.2428C92.3791 30.255 92.7701 30.128 93.0861 29.8836V29.3206H92.0888V28.606H94.0417V30.9925H93.3999L93.2087 30.5177H93.1677C93.0234 30.7102 92.8321 30.8624 92.6121 30.9596C92.3921 31.0569 92.1508 31.0959 91.9114 31.073C91.6119 31.0876 91.3126 31.0386 91.0333 30.9294C90.754 30.8202 90.5009 30.6532 90.2907 30.4393C90.0804 30.2255 89.9178 29.9696 89.8133 29.6885C89.7089 29.4073 89.6651 29.1073 89.6847 28.808C89.6751 28.4894 89.732 28.1722 89.8517 27.8768C89.9715 27.5814 90.1515 27.3141 90.3802 27.0921C90.609 26.8701 90.8815 26.6982 91.1804 26.5873C91.4793 26.4765 91.798 26.4291 92.1162 26.4483C92.7587 26.4159 93.3914 26.6158 93.8988 27.0113L93.5844 27.7714C93.1784 27.461 92.682 27.292 92.171 27.29C91.7955 27.2666 91.4261 27.3933 91.1439 27.6423C90.8618 27.8912 90.6902 28.242 90.6666 28.6175C90.6622 28.6807 90.6622 28.7442 90.6666 28.8075" fill="white"/>
<path d="M98.7125 26.5272H97.7563V30.9887H98.7125V26.5272Z" fill="white"/>
<path d="M103.446 29.0769V30.1618H105.978V30.9892H102.488V26.5272H105.855V27.3612H103.446V28.3469H105.57V29.0791L103.446 29.0769Z" fill="white"/>
<path d="M109.149 30.711L109.355 29.9312C109.821 30.145 110.325 30.2627 110.837 30.2773C111.534 30.2773 111.834 29.9925 111.834 29.6344C111.836 29.5537 111.815 29.4742 111.772 29.4055C111.73 29.3369 111.668 29.2821 111.595 29.2478C111.309 29.1459 111.01 29.0843 110.707 29.0649C110.339 29.0433 109.98 28.9487 109.649 28.7867C109.474 28.6903 109.329 28.5469 109.231 28.3727C109.134 28.1985 109.087 28.0005 109.096 27.8009C109.096 27.0145 109.827 26.4445 110.913 26.4445C111.459 26.4369 112 26.5455 112.501 26.7632L112.282 27.5156C111.853 27.3451 111.398 27.2524 110.937 27.2418C110.259 27.2418 110.049 27.5266 110.049 27.7971C110.047 27.8769 110.069 27.9555 110.113 28.0222C110.157 28.0889 110.22 28.1405 110.294 28.17C110.574 28.259 110.863 28.316 111.155 28.3398C111.515 28.3695 111.868 28.4622 112.196 28.6136C112.378 28.7099 112.528 28.8561 112.63 29.0351C112.732 29.2141 112.78 29.4184 112.77 29.624C112.77 30.4378 112.141 31.0681 110.911 31.0681C110.304 31.0836 109.702 30.9605 109.149 30.7083" fill="white"/>
</svg>
