<svg width="292" height="283" viewBox="0 0 292 283" fill="none" xmlns="http://www.w3.org/2000/svg">
<g filter="url(#filter0_di_20887_7254)">
<path d="M177.865 133.633C182.418 137.11 182.404 144.122 177.833 149.294L159.042 170.556C154.471 175.729 147.074 177.104 142.52 173.626L123.803 159.335C119.25 155.858 119.264 148.846 123.835 143.673L142.626 122.411C147.197 117.238 154.594 115.864 159.148 119.341L177.865 133.633ZM177.846 215.485C182.317 218.899 182.303 225.786 177.814 230.865L158.727 252.463C154.237 257.543 146.973 258.893 142.501 255.479L123.488 240.961C119.017 237.547 119.031 230.659 123.52 225.58L142.607 203.982C147.096 198.903 154.361 197.553 158.833 200.967C163.305 204.382 177.846 215.485 177.846 215.485ZM264.242 117.722C268.714 121.136 268.7 128.023 264.21 133.103L245.123 154.701C240.634 159.78 233.369 161.13 228.897 157.716L209.885 143.198C205.413 139.783 205.427 132.897 209.917 127.817L229.003 106.22C233.493 101.14 240.758 99.7895 245.23 103.204L264.242 117.722ZM202.241 121.679C197.669 126.852 190.272 128.226 185.719 124.749L167.002 110.457C162.448 106.98 162.463 99.9684 167.034 94.7959L185.825 73.5336C190.396 68.361 197.793 66.9864 202.347 70.4634L221.064 84.7556C225.617 88.2325 225.603 95.2444 221.031 100.417L202.241 121.679ZM159.065 88.9871C154.575 94.067 147.31 95.417 142.838 92.0024L123.826 77.485C119.355 74.07 119.369 67.1837 123.858 62.1038L142.945 40.5063C147.434 35.4263 154.699 34.0763 159.171 37.491L178.183 52.0085C182.655 55.4233 182.641 62.3096 178.152 67.3897L159.065 88.9871ZM202.072 203.415C197.501 208.588 190.103 209.963 185.55 206.485L166.833 192.193C162.279 188.717 162.294 181.705 166.865 176.532L185.656 155.27C190.227 150.097 197.624 148.722 202.178 152.199L220.895 166.491C225.448 169.969 225.434 176.981 220.863 182.153L202.072 203.415ZM79.0054 177.32C68.7935 188.876 52.2676 191.947 42.0943 184.179C31.9223 176.412 31.9547 160.747 42.1666 149.191C52.3799 137.635 68.9058 134.564 79.0777 142.332C89.2511 150.099 89.2187 165.764 79.0054 177.32Z" fill="url(#paint0_linear_20887_7254)"/>
<path fill-rule="evenodd" clip-rule="evenodd" d="M167.452 122.097C167.962 122.486 168.415 122.92 168.81 123.39L179.439 136.082C179.044 135.612 178.591 135.178 178.081 134.789L167.452 122.097Z" stroke="black" stroke-width="0.78154"/>
<path fill-rule="evenodd" clip-rule="evenodd" d="M168.81 123.398C171.945 127.128 171.479 133.172 167.42 137.765L178.049 150.457C182.108 145.864 182.574 139.82 179.44 136.09L168.81 123.398Z" stroke="black" stroke-width="0.78154"/>
<path fill-rule="evenodd" clip-rule="evenodd" d="M167.419 137.76L148.628 159.022L159.257 171.714L178.048 150.452L167.419 137.76Z" stroke="black" stroke-width="0.78154"/>
<path fill-rule="evenodd" clip-rule="evenodd" d="M148.627 159.02C144.056 164.194 136.659 165.568 132.105 162.09L142.735 174.782C147.288 178.26 154.685 176.885 159.256 171.712L148.627 159.02Z" stroke="black" stroke-width="0.78154"/>
<path fill-rule="evenodd" clip-rule="evenodd" d="M132.106 162.092L113.388 147.8L124.018 160.492L142.735 174.784L132.106 162.092Z" stroke="black" stroke-width="0.78154"/>
<path fill-rule="evenodd" clip-rule="evenodd" d="M113.389 147.8C112.879 147.411 112.426 146.977 112.031 146.506L122.66 159.198C123.055 159.669 123.508 160.103 124.018 160.492L113.389 147.8Z" stroke="black" stroke-width="0.78154"/>
<path fill-rule="evenodd" clip-rule="evenodd" d="M112.03 146.504C108.895 142.774 109.361 136.73 113.42 132.137L124.05 144.829C119.991 149.422 119.525 155.466 122.659 159.196L112.03 146.504Z" stroke="black" stroke-width="0.78154"/>
<path fill-rule="evenodd" clip-rule="evenodd" d="M113.421 132.138L132.212 110.876L142.842 123.568L124.051 144.83L113.421 132.138Z" stroke="black" stroke-width="0.78154"/>
<path fill-rule="evenodd" clip-rule="evenodd" d="M132.213 110.877C136.784 105.704 144.181 104.33 148.734 107.807L159.364 120.499C154.81 117.022 147.413 118.396 142.842 123.569L132.213 110.877Z" stroke="black" stroke-width="0.78154"/>
<path fill-rule="evenodd" clip-rule="evenodd" d="M148.733 107.806L167.45 122.098L178.08 134.79L159.363 120.498L148.733 107.806Z" stroke="black" stroke-width="0.78154"/>
<path fill-rule="evenodd" clip-rule="evenodd" d="M167.432 203.946C167.932 204.328 168.377 204.754 168.765 205.216L179.395 217.908C179.006 217.446 178.562 217.02 178.061 216.638L167.432 203.946Z" stroke="black" stroke-width="0.78154"/>
<path fill-rule="evenodd" clip-rule="evenodd" d="M168.764 205.216C171.843 208.88 171.385 214.816 167.399 219.326L178.028 232.018C182.015 227.508 182.472 221.572 179.394 217.908L168.764 205.216Z" stroke="black" stroke-width="0.78154"/>
<path fill-rule="evenodd" clip-rule="evenodd" d="M167.4 219.328L148.313 240.925L158.942 253.617L178.029 232.019L167.4 219.328Z" stroke="black" stroke-width="0.78154"/>
<path fill-rule="evenodd" clip-rule="evenodd" d="M148.313 240.931C143.823 246.01 136.559 247.36 132.087 243.946L142.716 256.638C147.188 260.052 154.453 258.702 158.942 253.623L148.313 240.931Z" stroke="black" stroke-width="0.78154"/>
<path fill-rule="evenodd" clip-rule="evenodd" d="M132.086 243.941L113.073 229.423L123.702 242.115L142.715 256.633L132.086 243.941Z" stroke="black" stroke-width="0.78154"/>
<path fill-rule="evenodd" clip-rule="evenodd" d="M113.073 229.423C112.573 229.041 112.128 228.615 111.74 228.153L122.369 240.845C122.757 241.307 123.202 241.733 123.703 242.115L113.073 229.423Z" stroke="black" stroke-width="0.78154"/>
<path fill-rule="evenodd" clip-rule="evenodd" d="M111.741 228.151C108.662 224.488 109.12 218.552 113.106 214.041L123.735 226.733C119.749 231.244 119.291 237.18 122.37 240.843L111.741 228.151Z" stroke="black" stroke-width="0.78154"/>
<path fill-rule="evenodd" clip-rule="evenodd" d="M113.107 214.049L132.194 192.451L142.823 205.143L123.736 226.741L113.107 214.049Z" stroke="black" stroke-width="0.78154"/>
<path fill-rule="evenodd" clip-rule="evenodd" d="M132.192 192.447C136.682 187.368 143.947 186.018 148.418 189.432L159.048 202.124C154.576 198.71 147.311 200.06 142.822 205.139L132.192 192.447Z" stroke="black" stroke-width="0.78154"/>
<path fill-rule="evenodd" clip-rule="evenodd" d="M148.419 189.436C152.891 192.851 167.431 203.954 167.431 203.954L178.061 216.645C178.061 216.645 163.52 205.543 159.048 202.127L148.419 189.436Z" stroke="black" stroke-width="0.78154"/>
<path fill-rule="evenodd" clip-rule="evenodd" d="M253.828 106.185C254.329 106.567 254.773 106.993 255.162 107.456L265.791 120.147C265.403 119.685 264.958 119.259 264.457 118.877L253.828 106.185Z" stroke="black" stroke-width="0.78154"/>
<path fill-rule="evenodd" clip-rule="evenodd" d="M255.161 107.455C258.239 111.119 257.782 117.055 253.795 121.566L264.424 134.258C268.411 129.747 268.869 123.811 265.79 120.147L255.161 107.455Z" stroke="black" stroke-width="0.78154"/>
<path fill-rule="evenodd" clip-rule="evenodd" d="M253.797 121.566L234.71 143.164L245.339 155.856L264.426 134.258L253.797 121.566Z" stroke="black" stroke-width="0.78154"/>
<path fill-rule="evenodd" clip-rule="evenodd" d="M234.709 143.165C230.219 148.244 222.955 149.594 218.483 146.18L229.112 158.872C233.584 162.286 240.849 160.936 245.338 155.857L234.709 143.165Z" stroke="black" stroke-width="0.78154"/>
<path fill-rule="evenodd" clip-rule="evenodd" d="M218.483 146.18L199.47 131.662L210.1 144.354L229.112 158.872L218.483 146.18Z" stroke="black" stroke-width="0.78154"/>
<path fill-rule="evenodd" clip-rule="evenodd" d="M199.471 131.665C198.97 131.282 198.525 130.856 198.137 130.394L208.766 143.086C209.155 143.548 209.599 143.974 210.1 144.357L199.471 131.665Z" stroke="black" stroke-width="0.78154"/>
<path fill-rule="evenodd" clip-rule="evenodd" d="M198.137 130.391C195.058 126.727 195.516 120.791 199.502 116.28L210.132 128.972C206.145 133.483 205.687 139.419 208.766 143.083L198.137 130.391Z" stroke="black" stroke-width="0.78154"/>
<path fill-rule="evenodd" clip-rule="evenodd" d="M199.502 116.281L218.589 94.6836L229.218 107.376L210.131 128.973L199.502 116.281Z" stroke="black" stroke-width="0.78154"/>
<path fill-rule="evenodd" clip-rule="evenodd" d="M218.589 94.6867C223.079 89.6066 230.343 88.2566 234.815 91.6714L245.445 104.363C240.973 100.949 233.708 102.299 229.218 107.379L218.589 94.6867Z" stroke="black" stroke-width="0.78154"/>
<path fill-rule="evenodd" clip-rule="evenodd" d="M234.815 91.6683L253.827 106.186L264.456 118.878L245.444 104.36L234.815 91.6683Z" stroke="black" stroke-width="0.78154"/>
<path fill-rule="evenodd" clip-rule="evenodd" d="M191.827 110.143C187.255 115.316 179.858 116.69 175.305 113.213L185.934 125.905C190.488 129.382 197.885 128.008 202.456 122.835L191.827 110.143Z" stroke="black" stroke-width="0.78154"/>
<path fill-rule="evenodd" clip-rule="evenodd" d="M175.305 113.215L156.588 98.9231L167.217 111.615L185.934 125.907L175.305 113.215Z" stroke="black" stroke-width="0.78154"/>
<path fill-rule="evenodd" clip-rule="evenodd" d="M156.588 98.9224C156.078 98.533 155.625 98.0993 155.23 97.6287L165.859 110.321C166.255 110.791 166.707 111.225 167.217 111.614L156.588 98.9224Z" stroke="black" stroke-width="0.78154"/>
<path fill-rule="evenodd" clip-rule="evenodd" d="M155.229 97.6277C152.094 93.897 152.56 87.8534 156.619 83.2602L167.249 95.9521C163.189 100.545 162.723 106.589 165.858 110.32L155.229 97.6277Z" stroke="black" stroke-width="0.78154"/>
<path fill-rule="evenodd" clip-rule="evenodd" d="M156.621 83.2624L175.412 62.0001L186.041 74.692L167.25 95.9543L156.621 83.2624Z" stroke="black" stroke-width="0.78154"/>
<path fill-rule="evenodd" clip-rule="evenodd" d="M175.412 62.0013C179.983 56.8286 187.38 55.4541 191.934 58.9311L202.563 71.623C198.009 68.146 190.612 69.5206 186.041 74.6932L175.412 62.0013Z" stroke="black" stroke-width="0.78154"/>
<path fill-rule="evenodd" clip-rule="evenodd" d="M191.932 58.9298L210.65 73.222L221.279 85.914L202.562 71.6217L191.932 58.9298Z" stroke="black" stroke-width="0.78154"/>
<path fill-rule="evenodd" clip-rule="evenodd" d="M210.649 73.2199C211.159 73.6093 211.611 74.0431 212.007 74.5136L222.636 87.2056C222.241 86.735 221.788 86.3013 221.278 85.9119L210.649 73.2199Z" stroke="black" stroke-width="0.78154"/>
<path fill-rule="evenodd" clip-rule="evenodd" d="M212.008 74.5145C215.143 78.2453 214.677 84.2889 210.617 88.8821L221.247 101.574C225.306 96.9808 225.772 90.9372 222.637 87.2064L212.008 74.5145Z" stroke="black" stroke-width="0.78154"/>
<path fill-rule="evenodd" clip-rule="evenodd" d="M210.618 88.8826L191.827 110.145L202.457 122.837L221.247 101.575L210.618 88.8826Z" stroke="black" stroke-width="0.78154"/>
<path fill-rule="evenodd" clip-rule="evenodd" d="M148.65 77.451C144.161 82.5309 136.896 83.8809 132.424 80.4663L143.053 93.1582C147.526 96.5729 154.79 95.2229 159.28 90.1429L148.65 77.451Z" stroke="black" stroke-width="0.78154"/>
<path fill-rule="evenodd" clip-rule="evenodd" d="M132.425 80.4679L113.412 65.9505L124.041 78.6424L143.054 93.1598L132.425 80.4679Z" stroke="black" stroke-width="0.78154"/>
<path fill-rule="evenodd" clip-rule="evenodd" d="M113.413 65.9505C112.912 65.5681 112.467 65.1421 112.079 64.6799L122.708 77.3718C123.097 77.834 123.541 78.26 124.042 78.6425L113.413 65.9505Z" stroke="black" stroke-width="0.78154"/>
<path fill-rule="evenodd" clip-rule="evenodd" d="M112.077 64.6776C108.999 61.0134 109.456 55.078 113.443 50.567L124.072 63.2589C120.086 67.7699 119.628 73.7053 122.707 77.3695L112.077 64.6776Z" stroke="black" stroke-width="0.78154"/>
<path fill-rule="evenodd" clip-rule="evenodd" d="M113.443 50.5697L132.53 28.9723L143.159 41.6642L124.072 63.2617L113.443 50.5697Z" stroke="black" stroke-width="0.78154"/>
<path fill-rule="evenodd" clip-rule="evenodd" d="M132.532 28.9749C137.021 23.8949 144.286 22.5449 148.758 25.9597L159.387 38.6516C154.915 35.2369 147.65 36.5869 143.161 41.6669L132.532 28.9749Z" stroke="black" stroke-width="0.78154"/>
<path fill-rule="evenodd" clip-rule="evenodd" d="M148.757 25.9572L167.769 40.4746L178.398 53.1666L159.386 38.6491L148.757 25.9572Z" stroke="black" stroke-width="0.78154"/>
<path fill-rule="evenodd" clip-rule="evenodd" d="M167.769 40.4713C168.27 40.8537 168.715 41.2797 169.103 41.7419L179.732 54.4338C179.344 53.9717 178.899 53.5457 178.399 53.1632L167.769 40.4713Z" stroke="black" stroke-width="0.78154"/>
<path fill-rule="evenodd" clip-rule="evenodd" d="M169.103 41.7414C172.182 45.4055 171.724 51.3409 167.737 55.852L178.367 68.5439C182.353 64.0328 182.811 58.0974 179.732 54.4333L169.103 41.7414Z" stroke="black" stroke-width="0.78154"/>
<path fill-rule="evenodd" clip-rule="evenodd" d="M167.737 55.8551L148.65 77.4525L159.279 90.1444L178.366 68.547L167.737 55.8551Z" stroke="black" stroke-width="0.78154"/>
<path fill-rule="evenodd" clip-rule="evenodd" d="M191.657 191.881C187.086 197.054 179.689 198.428 175.136 194.951L185.765 207.643C190.318 211.12 197.715 209.746 202.287 204.573L191.657 191.881Z" stroke="black" stroke-width="0.78154"/>
<path fill-rule="evenodd" clip-rule="evenodd" d="M175.136 194.952L156.419 180.66L167.048 193.352L185.766 207.644L175.136 194.952Z" stroke="black" stroke-width="0.78154"/>
<path fill-rule="evenodd" clip-rule="evenodd" d="M156.418 180.658C155.908 180.268 155.455 179.835 155.06 179.364L165.689 192.056C166.084 192.527 166.537 192.96 167.047 193.35L156.418 180.658Z" stroke="black" stroke-width="0.78154"/>
<path fill-rule="evenodd" clip-rule="evenodd" d="M155.061 179.365C151.926 175.635 152.392 169.591 156.452 164.997L167.081 177.689C163.022 182.283 162.556 188.327 165.69 192.057L155.061 179.365Z" stroke="black" stroke-width="0.78154"/>
<path fill-rule="evenodd" clip-rule="evenodd" d="M156.451 164.998L175.242 143.736L185.871 156.427L167.08 177.69L156.451 164.998Z" stroke="black" stroke-width="0.78154"/>
<path fill-rule="evenodd" clip-rule="evenodd" d="M175.242 143.739C179.814 138.566 187.211 137.192 191.764 140.669L202.394 153.36C197.84 149.883 190.443 151.258 185.872 156.431L175.242 143.739Z" stroke="black" stroke-width="0.78154"/>
<path fill-rule="evenodd" clip-rule="evenodd" d="M191.764 140.665L210.481 154.957L221.111 167.649L202.394 153.357L191.764 140.665Z" stroke="black" stroke-width="0.78154"/>
<path fill-rule="evenodd" clip-rule="evenodd" d="M210.48 154.957C210.99 155.347 211.443 155.78 211.838 156.251L222.468 168.943C222.072 168.472 221.619 168.039 221.109 167.649L210.48 154.957Z" stroke="black" stroke-width="0.78154"/>
<path fill-rule="evenodd" clip-rule="evenodd" d="M211.839 156.252C214.974 159.983 214.508 166.027 210.449 170.619L221.078 183.311C225.137 178.718 225.603 172.675 222.468 168.944L211.839 156.252Z" stroke="black" stroke-width="0.78154"/>
<path fill-rule="evenodd" clip-rule="evenodd" d="M210.448 170.62L191.657 191.882L202.287 204.574L221.077 183.312L210.448 170.62Z" stroke="black" stroke-width="0.78154"/>
<path fill-rule="evenodd" clip-rule="evenodd" d="M68.5917 165.785C58.3798 177.342 41.8539 180.413 31.6806 172.645L42.3099 185.336C52.4832 193.105 69.0091 190.034 79.221 178.477L68.5917 165.785Z" stroke="black" stroke-width="0.78154"/>
<path fill-rule="evenodd" clip-rule="evenodd" d="M31.6804 172.645C30.5411 171.775 29.5298 170.806 28.6466 169.755L39.2759 182.447C40.1592 183.498 41.1704 184.467 42.3097 185.337L31.6804 172.645Z" stroke="black" stroke-width="0.78154"/>
<path fill-rule="evenodd" clip-rule="evenodd" d="M28.647 169.756C21.6437 161.422 22.6849 147.92 31.7531 137.658L42.3824 150.35C33.3142 160.612 32.2731 174.113 39.2763 182.448L28.647 169.756Z" stroke="black" stroke-width="0.78154"/>
<path fill-rule="evenodd" clip-rule="evenodd" d="M31.7519 137.657C41.9652 126.101 58.4911 123.03 68.6631 130.798L79.2924 143.49C69.1204 135.722 52.5945 138.793 42.3813 150.349L31.7519 137.657Z" stroke="black" stroke-width="0.78154"/>
<path fill-rule="evenodd" clip-rule="evenodd" d="M68.6645 130.799C69.8039 131.669 70.8153 132.638 71.6987 133.689L82.328 146.381C81.4446 145.33 80.4332 144.361 79.2938 143.491L68.6645 130.799Z" stroke="black" stroke-width="0.78154"/>
<path fill-rule="evenodd" clip-rule="evenodd" d="M71.6981 133.69C78.7023 142.025 77.661 155.526 68.5916 165.788L79.2209 178.48C88.2903 168.218 89.3316 154.717 82.3274 146.382L71.6981 133.69Z" stroke="black" stroke-width="0.78154"/>
<path d="M68.5454 130.953C78.5998 138.63 78.6099 154.156 68.4455 165.656C58.2803 177.16 41.8685 180.178 31.7999 172.49C21.7468 164.813 21.7365 149.287 31.8996 137.786C42.0662 126.283 58.4782 123.266 68.5454 130.953ZM167.314 204.106C171.667 207.43 171.694 214.178 167.254 219.202L148.168 240.8C143.725 245.827 136.573 247.123 132.206 243.789L113.193 229.271C108.841 225.948 108.813 219.199 113.253 214.175L132.34 192.577C136.783 187.551 143.934 186.254 148.302 189.588C150.538 191.296 155.291 194.925 159.485 198.128C161.581 199.729 163.538 201.223 164.971 202.318C165.688 202.865 166.274 203.312 166.68 203.622C166.883 203.777 167.042 203.899 167.15 203.981C167.203 204.022 167.244 204.053 167.271 204.074C167.285 204.085 167.296 204.093 167.303 204.098L167.313 204.106L167.313 204.106L167.314 204.106ZM167.334 122.254C171.768 125.641 171.795 132.514 167.273 137.631L148.483 158.892C144.029 163.933 136.901 165.292 132.436 162.093L132.225 161.937L113.508 147.646C109.074 144.259 109.046 137.386 113.568 132.268L132.359 111.007C136.884 105.887 144.168 104.565 148.616 107.962L167.334 122.254ZM167.652 40.63C172.004 43.9541 172.032 50.7014 167.591 55.7261L148.505 77.3238C144.062 82.351 136.911 83.6475 132.543 80.3128L113.531 65.7959C109.179 62.4718 109.15 55.7237 113.59 50.699L132.678 29.1021C137.121 24.0748 144.272 22.7774 148.639 26.1121L167.652 40.63ZM210.363 155.113C214.797 158.5 214.825 165.372 210.303 170.489L191.512 191.752C186.987 196.872 179.704 198.193 175.256 194.796L156.538 180.504C152.104 177.118 152.076 170.245 156.598 165.127L175.389 143.865C179.914 138.745 187.197 137.423 191.646 140.82L210.363 155.113ZM210.532 73.3771C214.966 76.7633 214.994 83.6363 210.471 88.7535L191.681 110.016C187.157 115.136 179.873 116.457 175.424 113.06L156.707 98.7674C152.272 95.3812 152.245 88.5082 156.767 83.391L175.557 62.1285C180.082 57.0086 187.366 55.6875 191.815 59.0846L210.532 73.3771ZM253.71 106.343C258.063 109.667 258.091 116.414 253.65 121.439L234.564 143.037C230.121 148.063 222.97 149.361 218.602 146.027L199.59 131.509C195.237 128.185 195.209 121.437 199.65 116.412L218.737 94.8152C223.179 89.7879 230.331 88.4904 234.698 91.8253L253.71 106.343Z" fill="url(#paint1_linear_20887_7254)" stroke="black" stroke-width="0.39077"/>
</g>
<defs>
<filter id="filter0_di_20887_7254" x="4.57764e-05" y="-1.52588e-05" width="291.873" height="282.598" filterUnits="userSpaceOnUse" color-interpolation-filters="sRGB">
<feFlood flood-opacity="0" result="BackgroundImageFix"/>
<feColorMatrix in="SourceAlpha" type="matrix" values="0 0 0 0 0 0 0 0 0 0 0 0 0 0 0 0 0 0 127 0" result="hardAlpha"/>
<feOffset/>
<feGaussianBlur stdDeviation="11.8407"/>
<feComposite in2="hardAlpha" operator="out"/>
<feColorMatrix type="matrix" values="0 0 0 0 0.584236 0 0 0 0 0.457699 0 0 0 0 1 0 0 0 0.45 0"/>
<feBlend mode="normal" in2="BackgroundImageFix" result="effect1_dropShadow_20887_7254"/>
<feBlend mode="normal" in="SourceGraphic" in2="effect1_dropShadow_20887_7254" result="shape"/>
<feColorMatrix in="SourceAlpha" type="matrix" values="0 0 0 0 0 0 0 0 0 0 0 0 0 0 0 0 0 0 127 0" result="hardAlpha"/>
<feOffset dx="2.44979" dy="1.6332"/>
<feGaussianBlur stdDeviation="0.816598"/>
<feComposite in2="hardAlpha" operator="arithmetic" k2="-1" k3="1"/>
<feColorMatrix type="matrix" values="0 0 0 0 0.788047 0 0 0 0 0.48877 0 0 0 0 0.987565 0 0 0 0.45 0"/>
<feBlend mode="normal" in2="shape" result="effect2_innerShadow_20887_7254"/>
</filter>
<linearGradient id="paint0_linear_20887_7254" x1="231.261" y1="132.411" x2="86.582" y2="145.157" gradientUnits="userSpaceOnUse">
<stop stop-color="#D485FF"/>
<stop offset="0.392726" stop-color="#A224FF"/>
<stop offset="0.513135" stop-color="#9C27FB"/>
<stop offset="0.817308" stop-color="#7700EB"/>
<stop offset="1" stop-color="#99073C"/>
</linearGradient>
<linearGradient id="paint1_linear_20887_7254" x1="220.847" y1="120.877" x2="76.1687" y2="133.623" gradientUnits="userSpaceOnUse">
<stop stop-color="#E9C1FF"/>
<stop offset="0.392726" stop-color="#CD88FF"/>
<stop offset="0.513135" stop-color="#B358FC"/>
<stop offset="0.817308" stop-color="#A950FF"/>
<stop offset="1" stop-color="#F62E76"/>
</linearGradient>
</defs>
</svg>
