<svg width="1720" height="425" viewBox="0 0 1720 425" fill="none" xmlns="http://www.w3.org/2000/svg">
    <mask id="mask0_24449_17044" style="mask-type:alpha" maskUnits="userSpaceOnUse" x="498" y="-61"
        width="1222" height="865">
        <g opacity="0.12">
            <rect x="498.585" y="-59.8369" width="61.0548" height="61.0548" stroke="white"
                stroke-width="0.642682" />
            <rect x="559.64" y="-59.8369" width="61.0548" height="61.0548" stroke="white"
                stroke-width="0.642682" />
            <rect x="620.694" y="-59.8369" width="61.0548" height="61.0548" stroke="white"
                stroke-width="0.642682" />
            <rect x="681.749" y="-59.8369" width="61.0548" height="61.0548" stroke="white"
                stroke-width="0.642682" />
            <rect x="742.804" y="-59.8369" width="61.0548" height="61.0548" stroke="white"
                stroke-width="0.642682" />
            <rect x="803.858" y="-59.8369" width="61.0548" height="61.0548" stroke="white"
                stroke-width="0.642682" />
            <rect x="864.913" y="-59.8369" width="61.0548" height="61.0548" stroke="white"
                stroke-width="0.642682" />
            <rect x="925.968" y="-59.8369" width="61.0548" height="61.0548" stroke="white"
                stroke-width="0.642682" />
            <rect x="987.023" y="-59.8369" width="61.0548" height="61.0548" stroke="white"
                stroke-width="0.642682" />
            <rect x="1048.08" y="-59.8369" width="61.0548" height="61.0548" stroke="white"
                stroke-width="0.642682" />
            <rect x="1109.13" y="-59.8369" width="61.0548" height="61.0548" stroke="white"
                stroke-width="0.642682" />
            <rect x="1170.19" y="-59.8369" width="61.0548" height="61.0548" stroke="white"
                stroke-width="0.642682" />
            <rect x="1231.24" y="-59.8369" width="61.0548" height="61.0548" stroke="white"
                stroke-width="0.642682" />
            <rect x="1292.3" y="-59.8369" width="61.0548" height="61.0548" stroke="white"
                stroke-width="0.642682" />
            <rect x="1353.35" y="-59.8369" width="61.0548" height="61.0548" stroke="white"
                stroke-width="0.642682" />
            <rect x="1414.41" y="-59.8369" width="61.0548" height="61.0548" stroke="white"
                stroke-width="0.642682" />
            <rect x="1475.46" y="-59.8369" width="61.0548" height="61.0548" stroke="white"
                stroke-width="0.642682" />
            <rect x="1536.51" y="-59.8369" width="61.0548" height="61.0548" stroke="white"
                stroke-width="0.642682" />
            <rect x="1597.57" y="-59.8369" width="61.0548" height="61.0548" stroke="white"
                stroke-width="0.642682" />
            <rect x="1658.62" y="-59.8369" width="61.0548" height="61.0548" stroke="white"
                stroke-width="0.642682" />
            <rect x="498.585" y="1.8604" width="61.0548" height="61.0548" stroke="white"
                stroke-width="0.642682" />
            <rect x="559.64" y="1.8604" width="61.0548" height="61.0548" stroke="white"
                stroke-width="0.642682" />
            <rect x="620.694" y="1.8604" width="61.0548" height="61.0548" stroke="white"
                stroke-width="0.642682" />
            <rect x="681.749" y="1.8604" width="61.0548" height="61.0548" stroke="white"
                stroke-width="0.642682" />
            <rect x="742.804" y="1.8604" width="61.0548" height="61.0548" stroke="white"
                stroke-width="0.642682" />
            <rect x="803.858" y="1.8604" width="61.0548" height="61.0548" stroke="white"
                stroke-width="0.642682" />
            <rect x="864.913" y="1.8604" width="61.0548" height="61.0548" stroke="white"
                stroke-width="0.642682" />
            <rect x="925.968" y="1.8604" width="61.0548" height="61.0548" stroke="white"
                stroke-width="0.642682" />
            <rect x="987.023" y="1.8604" width="61.0548" height="61.0548" stroke="white"
                stroke-width="0.642682" />
            <rect x="1048.08" y="1.8604" width="61.0548" height="61.0548" stroke="white"
                stroke-width="0.642682" />
            <rect x="1109.13" y="1.8604" width="61.0548" height="61.0548" stroke="white"
                stroke-width="0.642682" />
            <rect x="1170.19" y="1.8604" width="61.0548" height="61.0548" stroke="white"
                stroke-width="0.642682" />
            <rect x="1231.24" y="1.8604" width="61.0548" height="61.0548" stroke="white"
                stroke-width="0.642682" />
            <rect x="1292.3" y="1.8604" width="61.0548" height="61.0548" stroke="white"
                stroke-width="0.642682" />
            <rect x="1353.35" y="1.8604" width="61.0548" height="61.0548" stroke="white"
                stroke-width="0.642682" />
            <rect x="1414.41" y="1.8604" width="61.0548" height="61.0548" stroke="white"
                stroke-width="0.642682" />
            <rect x="1475.46" y="1.8604" width="61.0548" height="61.0548" stroke="white"
                stroke-width="0.642682" />
            <rect x="1536.51" y="1.8604" width="61.0548" height="61.0548" stroke="white"
                stroke-width="0.642682" />
            <rect x="1597.57" y="1.8604" width="61.0548" height="61.0548" stroke="white"
                stroke-width="0.642682" />
            <rect x="1658.62" y="1.8604" width="61.0548" height="61.0548" stroke="white"
                stroke-width="0.642682" />
            <rect x="498.585" y="63.5577" width="61.0548" height="61.0548" stroke="white"
                stroke-width="0.642682" />
            <rect x="559.64" y="63.5577" width="61.0548" height="61.0548" stroke="white"
                stroke-width="0.642682" />
            <rect x="620.694" y="63.5577" width="61.0548" height="61.0548" stroke="white"
                stroke-width="0.642682" />
            <rect x="681.749" y="63.5577" width="61.0548" height="61.0548" stroke="white"
                stroke-width="0.642682" />
            <rect x="742.804" y="63.5577" width="61.0548" height="61.0548" stroke="white"
                stroke-width="0.642682" />
            <rect x="803.858" y="63.5577" width="61.0548" height="61.0548" stroke="white"
                stroke-width="0.642682" />
            <rect x="864.913" y="63.5577" width="61.0548" height="61.0548" stroke="white"
                stroke-width="0.642682" />
            <rect x="925.968" y="63.5577" width="61.0548" height="61.0548" stroke="white"
                stroke-width="0.642682" />
            <rect x="987.023" y="63.5577" width="61.0548" height="61.0548" stroke="white"
                stroke-width="0.642682" />
            <rect x="1048.08" y="63.5577" width="61.0548" height="61.0548" stroke="white"
                stroke-width="0.642682" />
            <rect x="1109.13" y="63.5577" width="61.0548" height="61.0548" stroke="white"
                stroke-width="0.642682" />
            <rect x="1170.19" y="63.5577" width="61.0548" height="61.0548" stroke="white"
                stroke-width="0.642682" />
            <rect x="1231.24" y="63.5577" width="61.0548" height="61.0548" stroke="white"
                stroke-width="0.642682" />
            <rect x="1292.3" y="63.5577" width="61.0548" height="61.0548" stroke="white"
                stroke-width="0.642682" />
            <rect x="1353.35" y="63.5577" width="61.0548" height="61.0548" stroke="white"
                stroke-width="0.642682" />
            <rect x="1414.41" y="63.5577" width="61.0548" height="61.0548" stroke="white"
                stroke-width="0.642682" />
            <rect x="1475.46" y="63.5577" width="61.0548" height="61.0548" stroke="white"
                stroke-width="0.642682" />
            <rect x="1536.51" y="63.5577" width="61.0548" height="61.0548" stroke="white"
                stroke-width="0.642682" />
            <rect x="1597.57" y="63.5577" width="61.0548" height="61.0548" stroke="white"
                stroke-width="0.642682" />
            <rect x="1658.62" y="63.5577" width="61.0548" height="61.0548" stroke="white"
                stroke-width="0.642682" />
            <rect x="498.585" y="125.256" width="61.0548" height="61.0548" stroke="white"
                stroke-width="0.642682" />
            <rect x="559.64" y="125.256" width="61.0548" height="61.0548" stroke="white"
                stroke-width="0.642682" />
            <rect x="620.694" y="125.256" width="61.0548" height="61.0548" stroke="white"
                stroke-width="0.642682" />
            <rect x="681.749" y="125.256" width="61.0548" height="61.0548" stroke="white"
                stroke-width="0.642682" />
            <rect x="742.804" y="125.256" width="61.0548" height="61.0548" stroke="white"
                stroke-width="0.642682" />
            <rect x="803.858" y="125.256" width="61.0548" height="61.0548" stroke="white"
                stroke-width="0.642682" />
            <rect x="864.913" y="125.256" width="61.0548" height="61.0548" stroke="white"
                stroke-width="0.642682" />
            <rect x="925.968" y="125.256" width="61.0548" height="61.0548" stroke="white"
                stroke-width="0.642682" />
            <rect x="987.023" y="125.256" width="61.0548" height="61.0548" stroke="white"
                stroke-width="0.642682" />
            <rect x="1048.08" y="125.256" width="61.0548" height="61.0548" stroke="white"
                stroke-width="0.642682" />
            <rect x="1109.13" y="125.256" width="61.0548" height="61.0548" stroke="white"
                stroke-width="0.642682" />
            <rect x="1170.19" y="125.256" width="61.0548" height="61.0548" stroke="white"
                stroke-width="0.642682" />
            <rect x="1231.24" y="125.256" width="61.0548" height="61.0548" stroke="white"
                stroke-width="0.642682" />
            <rect x="1292.3" y="125.256" width="61.0548" height="61.0548" stroke="white"
                stroke-width="0.642682" />
            <rect x="1353.35" y="125.256" width="61.0548" height="61.0548" stroke="white"
                stroke-width="0.642682" />
            <rect x="1414.41" y="125.256" width="61.0548" height="61.0548" stroke="white"
                stroke-width="0.642682" />
            <rect x="1475.46" y="125.256" width="61.0548" height="61.0548" stroke="white"
                stroke-width="0.642682" />
            <rect x="1536.51" y="125.256" width="61.0548" height="61.0548" stroke="white"
                stroke-width="0.642682" />
            <rect x="1597.57" y="125.256" width="61.0548" height="61.0548" stroke="white"
                stroke-width="0.642682" />
            <rect x="1658.62" y="125.256" width="61.0548" height="61.0548" stroke="white"
                stroke-width="0.642682" />
            <rect x="498.585" y="186.953" width="61.0548" height="61.0548" stroke="white"
                stroke-width="0.642682" />
            <rect x="559.64" y="186.953" width="61.0548" height="61.0548" stroke="white"
                stroke-width="0.642682" />
            <rect x="620.694" y="186.953" width="61.0548" height="61.0548" stroke="white"
                stroke-width="0.642682" />
            <rect x="681.749" y="186.953" width="61.0548" height="61.0548" stroke="white"
                stroke-width="0.642682" />
            <rect x="742.804" y="186.953" width="61.0548" height="61.0548" stroke="white"
                stroke-width="0.642682" />
            <rect x="803.537" y="186.632" width="61.6975" height="61.6975" fill="white"
                fill-opacity="0.38" />
            <rect x="864.913" y="186.953" width="61.0548" height="61.0548" stroke="white"
                stroke-width="0.642682" />
            <rect x="925.968" y="186.953" width="61.0548" height="61.0548" stroke="white"
                stroke-width="0.642682" />
            <rect x="987.023" y="186.953" width="61.0548" height="61.0548" stroke="white"
                stroke-width="0.642682" />
            <rect x="1048.08" y="186.953" width="61.0548" height="61.0548" stroke="white"
                stroke-width="0.642682" />
            <rect x="1109.13" y="186.953" width="61.0548" height="61.0548" stroke="white"
                stroke-width="0.642682" />
            <rect x="1170.19" y="186.953" width="61.0548" height="61.0548" stroke="white"
                stroke-width="0.642682" />
            <rect x="1230.92" y="186.632" width="61.6975" height="61.6975" fill="white"
                fill-opacity="0.13" />
            <rect x="1292.3" y="186.953" width="61.0548" height="61.0548" stroke="white"
                stroke-width="0.642682" />
            <rect x="1353.03" y="186.632" width="61.6975" height="61.6975" fill="white"
                fill-opacity="0.13" />
            <rect x="1414.41" y="186.953" width="61.0548" height="61.0548" stroke="white"
                stroke-width="0.642682" />
            <rect x="1475.46" y="186.953" width="61.0548" height="61.0548" stroke="white"
                stroke-width="0.642682" />
            <rect x="1536.51" y="186.953" width="61.0548" height="61.0548" stroke="white"
                stroke-width="0.642682" />
            <rect x="1597.57" y="186.953" width="61.0548" height="61.0548" stroke="white"
                stroke-width="0.642682" />
            <rect x="1658.62" y="186.953" width="61.0548" height="61.0548" stroke="white"
                stroke-width="0.642682" />
            <rect x="498.585" y="248.65" width="61.0548" height="61.0548" stroke="white"
                stroke-width="0.642682" />
            <rect x="559.64" y="248.65" width="61.0548" height="61.0548" stroke="white"
                stroke-width="0.642682" />
            <rect x="620.694" y="248.65" width="61.0548" height="61.0548" stroke="white"
                stroke-width="0.642682" />
            <rect x="681.749" y="248.65" width="61.0548" height="61.0548" stroke="white"
                stroke-width="0.642682" />
            <rect x="742.482" y="248.329" width="61.6975" height="61.6975" fill="white"
                fill-opacity="0.13" />
            <rect x="803.858" y="248.65" width="61.0548" height="61.0548" stroke="white"
                stroke-width="0.642682" />
            <rect x="864.592" y="248.329" width="61.6975" height="61.6975" fill="white"
                fill-opacity="0.38" />
            <rect x="925.968" y="248.65" width="61.0548" height="61.0548" stroke="white"
                stroke-width="0.642682" />
            <rect x="987.023" y="248.65" width="61.0548" height="61.0548" stroke="white"
                stroke-width="0.642682" />
            <rect x="1048.08" y="248.65" width="61.0548" height="61.0548" stroke="white"
                stroke-width="0.642682" />
            <rect x="1109.13" y="248.65" width="61.0548" height="61.0548" stroke="white"
                stroke-width="0.642682" />
            <rect x="1169.87" y="248.329" width="61.6975" height="61.6975" fill="white"
                fill-opacity="0.13" />
            <rect x="1231.24" y="248.65" width="61.0548" height="61.0548" stroke="white"
                stroke-width="0.642682" />
            <rect x="1291.97" y="248.329" width="61.6975" height="61.6975" fill="white"
                fill-opacity="0.23" />
            <rect x="1353.35" y="248.65" width="61.0548" height="61.0548" stroke="white"
                stroke-width="0.642682" />
            <rect x="1414.41" y="248.65" width="61.0548" height="61.0548" stroke="white"
                stroke-width="0.642682" />
            <rect x="1475.46" y="248.65" width="61.0548" height="61.0548" stroke="white"
                stroke-width="0.642682" />
            <rect x="1536.51" y="248.65" width="61.0548" height="61.0548" stroke="white"
                stroke-width="0.642682" />
            <rect x="1597.57" y="248.65" width="61.0548" height="61.0548" stroke="white"
                stroke-width="0.642682" />
            <rect x="1658.62" y="248.65" width="61.0548" height="61.0548" stroke="white"
                stroke-width="0.642682" />
            <rect x="498.585" y="310.348" width="61.0548" height="61.0548" stroke="white"
                stroke-width="0.642682" />
            <rect x="559.64" y="310.348" width="61.0548" height="61.0548" stroke="white"
                stroke-width="0.642682" />
            <rect x="620.694" y="310.348" width="61.0548" height="61.0548" stroke="white"
                stroke-width="0.642682" />
            <rect x="681.428" y="310.026" width="61.6975" height="61.6975" fill="white"
                fill-opacity="0.13" />
            <rect x="742.804" y="310.348" width="61.0548" height="61.0548" stroke="white"
                stroke-width="0.642682" />
            <rect x="803.537" y="310.026" width="61.6975" height="61.6975" fill="white"
                fill-opacity="0.38" />
            <rect x="864.913" y="310.348" width="61.0548" height="61.0548" stroke="white"
                stroke-width="0.642682" />
            <rect x="925.968" y="310.348" width="61.0548" height="61.0548" stroke="white"
                stroke-width="0.642682" />
            <rect x="987.023" y="310.348" width="61.0548" height="61.0548" stroke="white"
                stroke-width="0.642682" />
            <rect x="1048.08" y="310.348" width="61.0548" height="61.0548" stroke="white"
                stroke-width="0.642682" />
            <rect x="1109.13" y="310.348" width="61.0548" height="61.0548" stroke="white"
                stroke-width="0.642682" />
            <rect x="1170.19" y="310.348" width="61.0548" height="61.0548" stroke="white"
                stroke-width="0.642682" />
            <rect x="1230.92" y="310.026" width="61.6975" height="61.6975" fill="white"
                fill-opacity="0.13" />
            <rect x="1292.3" y="310.348" width="61.0548" height="61.0548" stroke="white"
                stroke-width="0.642682" />
            <rect x="1353.35" y="310.348" width="61.0548" height="61.0548" stroke="white"
                stroke-width="0.642682" />
            <rect x="1414.41" y="310.348" width="61.0548" height="61.0548" stroke="white"
                stroke-width="0.642682" />
            <rect x="1475.46" y="310.348" width="61.0548" height="61.0548" stroke="white"
                stroke-width="0.642682" />
            <rect x="1536.51" y="310.348" width="61.0548" height="61.0548" stroke="white"
                stroke-width="0.642682" />
            <rect x="1597.57" y="310.348" width="61.0548" height="61.0548" stroke="white"
                stroke-width="0.642682" />
            <rect x="1658.62" y="310.348" width="61.0548" height="61.0548" stroke="white"
                stroke-width="0.642682" />
            <rect x="498.585" y="372.045" width="61.0548" height="61.0548" stroke="white"
                stroke-width="0.642682" />
            <rect x="559.64" y="372.045" width="61.0548" height="61.0548" stroke="white"
                stroke-width="0.642682" />
            <rect x="620.694" y="372.045" width="61.0548" height="61.0548" stroke="white"
                stroke-width="0.642682" />
            <rect x="681.749" y="372.045" width="61.0548" height="61.0548" stroke="white"
                stroke-width="0.642682" />
            <rect x="742.804" y="372.045" width="61.0548" height="61.0548" stroke="white"
                stroke-width="0.642682" />
            <rect x="803.858" y="372.045" width="61.0548" height="61.0548" stroke="white"
                stroke-width="0.642682" />
            <rect x="864.913" y="372.045" width="61.0548" height="61.0548" stroke="white"
                stroke-width="0.642682" />
            <rect x="925.968" y="372.045" width="61.0548" height="61.0548" stroke="white"
                stroke-width="0.642682" />
            <rect x="987.023" y="372.045" width="61.0548" height="61.0548" stroke="white"
                stroke-width="0.642682" />
            <rect x="1048.08" y="372.045" width="61.0548" height="61.0548" stroke="white"
                stroke-width="0.642682" />
            <rect x="1109.13" y="372.045" width="61.0548" height="61.0548" stroke="white"
                stroke-width="0.642682" />
            <rect x="1170.19" y="372.045" width="61.0548" height="61.0548" stroke="white"
                stroke-width="0.642682" />
            <rect x="1231.24" y="372.045" width="61.0548" height="61.0548" stroke="white"
                stroke-width="0.642682" />
            <rect x="1292.3" y="372.045" width="61.0548" height="61.0548" stroke="white"
                stroke-width="0.642682" />
            <rect x="1353.35" y="372.045" width="61.0548" height="61.0548" stroke="white"
                stroke-width="0.642682" />
            <rect x="1414.41" y="372.045" width="61.0548" height="61.0548" stroke="white"
                stroke-width="0.642682" />
            <rect x="1475.46" y="372.045" width="61.0548" height="61.0548" stroke="white"
                stroke-width="0.642682" />
            <rect x="1536.51" y="372.045" width="61.0548" height="61.0548" stroke="white"
                stroke-width="0.642682" />
            <rect x="1597.57" y="372.045" width="61.0548" height="61.0548" stroke="white"
                stroke-width="0.642682" />
            <rect x="1658.62" y="372.045" width="61.0548" height="61.0548" stroke="white"
                stroke-width="0.642682" />
        </g>
    </mask>
    <g mask="url(#mask0_24449_17044)">
        <g filter="url(#filter0_f_24449_17044)">
            <ellipse cx="690.439" cy="352.213" rx="252.658" ry="180.579"
                transform="rotate(-15 690.439 352.213)" fill="#B987FF" />
        </g>
        <g filter="url(#filter1_f_24449_17044)">
            <ellipse cx="1250.67" cy="176.653" rx="312.682" ry="223.479"
                transform="rotate(-15 1250.67 176.653)" fill="#B987FF" />
        </g>
    </g>
    <defs>
        <filter id="filter0_f_24449_17044" x="358.103" y="82.0749" width="664.671" height="540.275"
            filterUnits="userSpaceOnUse" color-interpolation-filters="sRGB">
            <feFlood flood-opacity="0" result="BackgroundImageFix" />
            <feBlend mode="normal" in="SourceGraphic" in2="BackgroundImageFix" result="shape" />
            <feGaussianBlur stdDeviation="41.903" result="effect1_foregroundBlur_24449_17044" />
        </filter>
        <filter id="filter1_f_24449_17044" x="839.381" y="-157.661" width="822.577" height="668.628"
            filterUnits="userSpaceOnUse" color-interpolation-filters="sRGB">
            <feFlood flood-opacity="0" result="BackgroundImageFix" />
            <feBlend mode="normal" in="SourceGraphic" in2="BackgroundImageFix" result="shape" />
            <feGaussianBlur stdDeviation="51.8578" result="effect1_foregroundBlur_24449_17044" />
        </filter>
    </defs>
</svg>