<svg width="190" height="53" viewBox="0 0 190 53" fill="none" xmlns="http://www.w3.org/2000/svg">
<path fill-rule="evenodd" clip-rule="evenodd" d="M17.6942 6.56238C23.1972 0.336146 32.3108 -1.49036 39.803 2.10354C49.7568 6.87904 53.3886 19.044 47.9691 28.4278L35.7769 49.5145C35.0957 50.6925 33.9747 51.5524 32.6599 51.9046C31.3452 52.2569 29.9445 52.073 28.7649 51.3939L43.5255 25.8599C47.4573 19.0493 44.8273 10.2214 37.6107 6.74565C32.1953 4.13782 25.576 5.4406 21.5758 9.92544C19.369 12.3876 18.1302 15.5663 18.0889 18.8722C18.0476 22.1782 19.2063 25.3869 21.351 27.9036C21.7364 28.3548 22.1508 28.7806 22.5921 29.1779L13.9753 44.111C13.6384 44.6948 13.1897 45.2061 12.6549 45.6169C12.1202 46.0271 11.5099 46.3281 10.8588 46.5027C10.2077 46.6773 9.52872 46.7218 8.86042 46.6337C8.19211 46.5457 7.54769 46.3271 6.96388 45.9904L16.3186 29.7783C14.9749 27.8409 14.0099 25.6669 13.4746 23.3709L7.74216 33.3252C7.06075 34.5037 5.93959 35.3631 4.6249 35.7154C3.31015 36.0681 1.90931 35.8842 0.72998 35.2046L15.5541 9.52749C16.1711 8.47305 16.8878 7.48011 17.6942 6.56238ZM34.804 14.7354C38.3742 16.7973 39.6072 21.3827 37.5413 24.9512L23.3262 49.5114C22.645 50.6894 21.5235 51.5493 20.2087 51.9015C18.894 52.2538 17.4933 52.0699 16.314 51.3908L29.5135 28.5252C28.4541 28.3024 27.4564 27.8523 26.5882 27.2058C25.72 26.5598 25.0025 25.7328 24.485 24.7822C23.9675 23.8316 23.6624 22.7801 23.5909 21.7002C23.5194 20.6203 23.6831 19.5377 24.0711 18.5273C24.4586 17.5168 25.061 16.6026 25.8365 15.8476C26.612 15.0926 27.5419 14.5149 28.5624 14.1544C29.5829 13.7939 30.6697 13.6591 31.7472 13.7594C32.8247 13.8598 33.868 14.1928 34.804 14.7354ZM29.6336 19.3511C29.3891 19.5386 29.184 19.7725 29.0301 20.0393C28.7981 20.4411 28.6898 20.9026 28.7204 21.3655C28.7509 21.8283 28.9177 22.2719 29.2001 22.6399C29.4829 23.0078 29.8678 23.2838 30.3071 23.4329C30.7464 23.582 31.2203 23.5975 31.6684 23.4774C32.1165 23.3573 32.5185 23.107 32.8247 22.7582C33.1303 22.4095 33.3261 21.9778 33.3867 21.5179C33.4468 21.058 33.3696 20.5904 33.1645 20.1744C32.9593 19.7583 32.6356 19.4124 32.2336 19.1805C31.9673 19.0264 31.6726 18.9265 31.3675 18.8863C31.0618 18.8461 30.7515 18.8664 30.4542 18.9462C30.1568 19.026 29.8776 19.1635 29.6336 19.3511Z" fill="#615EFF"/>
<path fill-rule="evenodd" clip-rule="evenodd" d="M59.7847 39.6472L70.4384 12.3295H76.6852L87.3389 39.6472H81.3837L79.0894 33.5283H68.0347L65.7399 39.6472H59.7847ZM77.268 28.6107C76.5397 26.4738 75.8901 24.5617 75.3192 22.8741C74.7488 21.1865 74.1661 19.4442 73.5709 17.6473C72.9762 19.4442 72.3872 21.1865 71.8044 22.8741C71.2341 24.5617 70.5844 26.4738 69.8556 28.6107H77.268ZM89.1421 15.2434C89.1421 14.3692 89.4094 13.6651 89.9435 13.1308C90.4776 12.5966 91.1816 12.3295 92.056 12.3295C92.9299 12.3295 93.6344 12.5966 94.1685 13.1308C94.7026 13.6651 94.9699 14.3692 94.9699 15.2434C94.9699 16.1175 94.7026 16.8217 94.1685 17.356C93.6344 17.8902 92.9299 18.1573 92.056 18.1573C91.1816 18.1573 90.4776 17.8902 89.9435 17.356C89.4094 16.8217 89.1421 16.1175 89.1421 15.2434ZM89.4333 39.6472V21.4354H94.6783V39.6472H89.4333ZM99.1224 21.4354V39.6472H104.367V31.6157C104.367 29.6975 104.798 28.2221 105.66 27.1902C106.522 26.1462 107.657 25.6241 109.066 25.6241C109.745 25.6241 110.438 25.7394 111.142 25.9701L111.87 21.4354C111.033 21.1926 110.219 21.0711 109.43 21.0711C107.111 21.0711 105.29 22.0607 103.966 24.0397V21.4354H99.1224ZM113.874 39.6472V12.3295H119.119V23.2383C119.884 22.5584 120.758 22.0303 121.741 21.6539C122.725 21.2654 123.787 21.0711 124.928 21.0711C126.64 21.0711 128.164 21.4839 129.499 22.3095C130.835 23.123 131.885 24.2461 132.65 25.6788C133.415 27.0991 133.797 28.72 133.797 30.5413C133.797 32.3627 133.415 33.9893 132.65 35.4222C131.885 36.8426 130.835 37.9657 129.499 38.7914C128.164 39.6047 126.64 40.0113 124.928 40.0113C123.75 40.0113 122.652 39.8109 121.632 39.4104C120.612 38.9976 119.72 38.421 118.955 37.6802L118.827 39.6472H113.874ZM124.263 35.4584C125.598 35.4584 126.703 34.9912 127.577 34.0561C128.451 33.1211 128.888 31.9498 128.888 30.5413C128.888 29.1328 128.451 27.9611 127.577 27.0265C126.703 26.0915 125.598 25.6241 124.263 25.6241C122.927 25.6241 121.822 26.0915 120.948 27.0265C120.074 27.9611 119.637 29.1328 119.637 30.5413C119.637 31.9498 120.074 33.1211 120.948 34.0561C121.822 34.9912 122.927 35.4584 124.263 35.4584ZM142.561 30.3409L138.299 21.4354H132.818L141.305 38.7365L137.153 48.753H142.671L153.998 21.4354H148.462L143.544 33.3097C143.423 32.7144 143.278 32.1679 143.108 31.6706C142.938 31.1728 142.756 30.7294 142.561 30.3409ZM154.708 21.4354H157.713V16.8824H162.958V21.4354H167.384V25.9883H162.958V32.6901C162.958 33.5521 163.231 34.2323 163.778 34.7301C164.336 35.2155 165.041 35.4584 165.89 35.4584C166.522 35.4584 167.172 35.3191 167.839 35.0393V39.3374C166.686 39.787 165.551 40.0113 164.434 40.0113C162.273 40.0113 160.609 39.4348 159.444 38.2811C158.29 37.1156 157.713 35.4522 157.713 33.291V25.9883H154.708V21.4354ZM177.327 34.5659C176.453 33.9349 175.853 33.1154 175.525 32.1073H189.73V30.5232C189.73 28.6899 189.317 27.0628 188.491 25.6423C187.666 24.2218 186.537 23.1048 185.104 22.2913C183.684 21.4779 182.056 21.0711 180.223 21.0711C178.378 21.0711 176.726 21.4839 175.27 22.3095C173.825 23.123 172.683 24.24 171.846 25.6605C171.008 27.069 170.589 28.6775 170.589 30.4864C170.589 32.3197 171.026 33.9593 171.901 35.404C172.774 36.8364 173.983 37.9657 175.525 38.7914C177.066 39.6047 178.845 40.0113 180.861 40.0113C182.123 40.0113 183.441 39.8052 184.812 39.3923C186.196 38.9794 187.593 38.2205 189.001 37.1156L185.832 33.3278C185.153 33.9712 184.394 34.499 183.556 34.9119C182.73 35.3129 181.686 35.5133 180.424 35.5133C179.246 35.5133 178.214 35.1973 177.327 34.5659ZM184.021 28.2506C183.731 27.6057 183.315 27.0576 182.773 26.6075C181.984 25.9519 181.036 25.6241 179.932 25.6241C178.815 25.6241 177.843 25.958 177.018 26.6256C176.464 27.0804 176.04 27.6218 175.745 28.2506H184.021Z" fill="white"/>
</svg>
