<svg width="149" height="45" viewBox="0 0 149 45" fill="none" xmlns="http://www.w3.org/2000/svg">
<g clip-path="url(#clip0_5729_5187)">
<path d="M30.4628 19.2636L16.3808 27.2464L1.41971 18.7434L0.720088 19.1201V25.2911L16.3987 34.2247L30.4808 26.2418V29.5247L16.3987 37.5075L1.41971 29.0044L0.720088 29.3811V30.4216L16.3987 39.3552L32.1312 30.4216V24.2506L31.4315 23.8739L16.3808 32.3769L2.35253 24.3941V21.1651L16.3808 29.0941L32.1132 20.1605V14.0792L31.306 13.6487L16.3808 22.0979L3.10596 14.5456L16.3808 7.04717L27.3415 13.2182L28.3281 12.6979V11.9445L16.3808 5.19946L0.702148 14.0972V15.0479L16.3808 23.9815L30.4628 15.9987V19.2636Z" fill="#FF3621"/>
<path d="M70.6947 26.6365V21.1651C70.6947 21.0216 70.605 20.9319 70.4615 20.9319H68.6676V18.7972H70.4615C70.605 18.7972 70.6947 18.7075 70.6947 18.564V15.1376H73.242V18.564C73.242 18.7075 73.3317 18.7972 73.4752 18.7972H75.9867V20.9319H73.4752C73.3317 20.9319 73.242 21.0216 73.242 21.1651V26.0086C73.242 28.2869 74.0493 28.4842 75.0898 28.4842C75.4665 28.4842 76.0405 28.4304 76.3634 28.3945V30.6189C75.9329 30.6727 75.2333 30.7624 74.426 30.7624C73.4394 30.7086 70.6947 30.7086 70.6947 26.6365ZM140.029 27.964L142.11 26.8697C142.576 27.964 143.473 28.6815 144.513 28.6815C145.321 28.6815 146.218 28.3407 146.218 27.354C146.218 26.6903 145.787 26.3136 144.8 25.9727L143.383 25.5063C141.392 24.8964 140.405 23.7483 140.405 22.1338C140.405 20.0888 142.11 18.564 144.424 18.564C146.271 18.564 147.832 19.5685 148.586 21.1292L146.505 22.2773C146.038 21.2727 145.285 20.7166 144.388 20.7166C143.491 20.7166 142.881 21.183 142.881 21.9006C142.881 22.5105 143.347 22.9949 144.298 23.2819L145.715 23.7483C147.796 24.412 148.783 25.5601 148.783 27.1208C148.783 29.5964 146.666 30.8701 144.531 30.8701C142.397 30.8162 140.692 29.722 140.029 27.964ZM132.189 25.8292C132.136 25.883 132.1 25.9189 132.1 25.9727V30.5292H129.499V13.6666H132.1V22.8872C132.1 22.9769 132.154 23.0846 132.243 23.0846C132.333 23.1384 132.441 23.0846 132.476 23.0307L136.674 18.7613H139.831L134.934 23.7304C134.844 23.8201 134.844 23.9277 134.934 24.0174L140.262 30.5292H137.105L132.997 25.3987C132.943 25.3449 132.907 25.309 132.853 25.309C132.799 25.309 132.763 25.309 132.71 25.3628L132.189 25.8292ZM128.225 20.3578L126.574 21.9185C125.624 21.201 124.691 20.8781 123.65 20.8781C121.48 20.8781 119.865 22.4926 119.865 24.6811C119.865 26.8697 121.48 28.4842 123.65 28.4842C124.601 28.4842 125.588 28.1433 126.628 27.4437L128.099 29.0044C125.983 30.5651 124.834 30.8521 123.381 30.8521C121.641 30.8521 120.081 30.2422 118.95 29.0941C117.856 27.9998 117.246 26.3853 117.246 24.6811C117.246 21.1113 119.847 18.5101 123.435 18.5101C124.583 18.5101 126.341 18.6895 128.225 20.3578ZM116.044 15.2811C116.044 16.1422 115.345 16.8418 114.484 16.8418C113.641 16.8418 112.923 16.1243 112.923 15.2811C112.923 14.4201 113.623 13.7204 114.484 13.7204C115.327 13.7025 116.044 14.4201 116.044 15.2811ZM115.793 30.5292H113.192V18.7972H115.793V30.5292ZM107.541 25.3987V30.583H104.94V18.851H107.487V20.2682C107.487 20.3578 107.541 20.4655 107.631 20.5014C107.721 20.5552 107.828 20.5014 107.864 20.4117C108.528 19.3174 109.748 18.5998 111.075 18.5998C111.273 18.5998 111.398 18.5998 111.506 18.6536V21.3086C111.362 21.2548 111.129 21.2548 110.896 21.2548C108.815 21.2189 107.541 22.8334 107.541 25.3987ZM93.6027 24.6811C93.6027 22.5464 95.2172 20.8781 97.2802 20.8781C99.3611 20.8781 100.958 22.5464 100.958 24.6811C100.958 26.8159 99.3432 28.4842 97.2802 28.4842C95.2172 28.4842 93.6027 26.8159 93.6027 24.6811ZM93.8359 29.1479C93.8898 29.1479 93.8898 29.1479 93.9256 29.1479C93.9795 29.1479 94.0691 29.2017 94.123 29.2376C95.0199 30.2781 96.3474 30.8521 97.8543 30.8521C101.065 30.8521 103.523 28.1433 103.523 24.6811C103.523 22.9769 102.949 21.4521 101.873 20.2682C100.832 19.1201 99.3611 18.5101 97.8184 18.5101C96.3474 18.5101 94.984 19.1201 94.0871 20.2143C94.0333 20.2682 93.9436 20.304 93.8539 20.2682C93.7642 20.2143 93.7104 20.1785 93.7104 20.0708V13.7025H91.1092V30.5651H93.7104V29.3811C93.6924 29.2376 93.7462 29.2017 93.8359 29.1479ZM83.0726 28.4842C81.0455 28.4842 79.3951 26.8159 79.3951 24.6811C79.3951 22.5464 81.0096 20.8781 83.0726 20.8781C85.1535 20.8781 86.7501 22.5464 86.7501 24.6811C86.7501 26.8159 85.0997 28.4842 83.0726 28.4842ZM89.1718 30.5292V18.7972H86.6245V19.9811C86.6245 20.0708 86.5707 20.1785 86.481 20.1785C86.3913 20.2323 86.2836 20.1785 86.2478 20.1246C85.4046 19.0842 84.0772 18.5101 82.5165 18.5101C79.3054 18.5101 76.8478 21.2189 76.8478 24.6811C76.8478 28.1433 79.3592 30.8521 82.5165 30.8521C83.9875 30.8521 85.3508 30.2422 86.2478 29.1479C86.3016 29.0582 86.3913 29.0582 86.481 29.0941C86.5707 29.1479 86.6245 29.1838 86.6245 29.2914V30.583H89.1718V30.5292ZM61.205 28.4842C59.1779 28.4842 57.5275 26.8159 57.5275 24.6811C57.5275 22.5464 59.142 20.8781 61.205 20.8781C63.2321 20.8781 64.8825 22.5464 64.8825 24.6811C64.8825 26.8159 63.2321 28.4842 61.205 28.4842ZM67.3043 30.5292V18.7972H64.7569V19.9811C64.7569 20.0708 64.7031 20.1785 64.6134 20.1785C64.5237 20.2323 64.4161 20.1785 64.3802 20.1246C63.5371 19.0842 62.2096 18.5101 60.6489 18.5101C57.4378 18.5101 54.9802 21.2189 54.9802 24.6811C54.9802 28.1433 57.4917 30.8521 60.6489 30.8521C62.1199 30.8521 63.4833 30.2422 64.3802 29.1479C64.434 29.0582 64.5237 29.0582 64.6134 29.0941C64.7031 29.1479 64.7569 29.1838 64.7569 29.2914V30.583H67.3043V30.5292ZM47.41 28.4842C45.3291 28.4842 43.7325 26.8159 43.7325 24.6811C43.7325 22.5464 45.347 20.8781 47.41 20.8781C49.4371 20.8781 51.0875 22.5464 51.0875 24.6811C51.1054 26.8159 49.4371 28.4842 47.41 28.4842ZM53.5092 30.5292V13.7025H50.9081V20.017C50.9081 20.1067 50.8543 20.2143 50.7646 20.2143C50.6749 20.2682 50.5672 20.2143 50.5314 20.1605C49.6344 19.1201 48.3069 18.546 46.8001 18.546C43.589 18.546 41.1313 21.2548 41.1313 24.717C41.1313 26.4212 41.7054 27.946 42.7817 29.13C43.8222 30.2781 45.2932 30.888 46.8359 30.888C48.3069 30.888 49.6703 30.2781 50.5672 29.1838C50.621 29.13 50.7107 29.0941 50.8004 29.13C50.8901 29.1838 50.9439 29.2197 50.9439 29.3273V30.5651H53.4913V30.5292H53.5092Z" fill="white"/>
</g>
<defs>
<clipPath id="clip0_5729_5187">
<rect width="148.081" height="44.1557" fill="white" transform="translate(0.702148 0.199463)"/>
</clipPath>
</defs>
</svg>
