<svg width="12" height="14" viewBox="0 0 12 14" fill="none" xmlns="http://www.w3.org/2000/svg">
<path d="M2.71119 13.0761C2.71119 12.9321 2.69519 12.8681 2.63119 12.8681L2.26319 13.0441C2.26319 12.9641 2.21519 12.9161 2.13519 12.8841L2.00719 12.8681C1.89519 12.8681 1.84719 12.8841 1.68719 12.9801C1.63919 12.8841 1.57519 12.7721 1.52719 12.6761C1.11119 11.8761 0.679188 10.6761 0.487188 10.1481C0.391188 9.87607 0.295188 9.31607 0.183188 8.46807C0.311188 8.54807 0.407188 8.58007 0.455188 8.58007C0.519188 8.58007 0.599188 8.46807 0.663188 8.24407C0.695188 8.29207 0.759188 8.30807 0.839188 8.30807C0.887188 8.30807 0.951188 8.29207 0.983188 8.24407L1.23919 7.86007L1.52719 7.95607H1.54319C1.57519 7.95607 1.62319 7.90807 1.70319 7.86007C1.78319 7.81207 1.84719 7.78007 1.89519 7.78007L1.94319 7.79607C2.19919 7.92407 2.37519 8.14807 2.45519 8.50007C2.64719 9.31607 2.82319 9.71607 3.03119 9.71607C3.20719 9.71607 3.44719 9.50807 3.70319 9.10807C3.95919 8.70807 4.21519 8.16407 4.50319 7.50807C4.51919 7.63607 4.53519 7.70007 4.56719 7.70007C4.66319 7.70007 4.90319 7.14007 5.49519 6.19607C6.37519 4.77207 8.55119 2.03607 9.11119 1.65207C9.52719 1.36407 9.84719 1.09207 10.0712 0.85207C10.0392 1.01207 10.0072 1.12407 10.0072 1.17207C10.0072 1.22007 10.0392 1.23607 10.0712 1.23607L10.5192 1.01207V1.07607C10.5192 1.15607 10.5352 1.20407 10.5832 1.20407C10.6472 1.20407 10.9032 0.94807 10.9352 0.85207L10.9032 1.07607L11.4472 0.75607L11.3192 1.04407C11.4792 0.93207 11.6072 0.86807 11.6872 0.86807C11.7672 0.86807 11.8152 0.99607 11.8152 1.07607C11.8152 1.20407 11.7032 1.38007 11.5272 1.60407C11.3352 1.86007 10.8552 2.35607 9.41519 4.00407C8.79119 4.70807 6.02319 8.46807 5.49519 9.36407L4.50319 11.0441C4.07119 11.7641 3.79919 12.2281 3.65519 12.4041C3.51119 12.5801 3.33519 12.7561 3.12719 12.9161L2.98319 12.8361L2.85519 12.9161L2.71119 13.0761Z" fill="#03DABA"/>
</svg>
