<svg width="263" height="189" viewBox="0 0 263 189" fill="none" xmlns="http://www.w3.org/2000/svg">
<circle cx="220.154" cy="43.3588" r="8.29733" fill="#AA50FF" fill-opacity="0.4"/>
<circle cx="254.348" cy="43.3588" r="8.29733" fill="#AA50FF" fill-opacity="0.4"/>
<circle cx="254.348" cy="113.828" r="8.29733" fill="#AA50FF"/>
<circle cx="220.154" cy="7.02639" r="6.41164" fill="#AA50FF" fill-opacity="0.24"/>
<circle cx="220.154" cy="149.338" r="6.41164" fill="#AA50FF" fill-opacity="0.24"/>
<circle cx="112.78" cy="149.338" r="6.41164" fill="#AA50FF" fill-opacity="0.24"/>
<circle cx="112.78" cy="77.5537" r="6.41164" fill="#AA50FF" fill-opacity="0.4"/>
<circle cx="112.781" cy="183.829" r="4.49203" fill="#AA50FF" fill-opacity="0.24"/>
<circle cx="147.872" cy="183.829" r="4.49203" fill="#AA50FF" fill-opacity="0.24"/>
<circle cx="147.872" cy="113.827" r="4.49203" fill="#AA50FF" fill-opacity="0.24"/>
<circle cx="184.534" cy="77.5539" r="3.25707" fill="#AA50FF"/>
<circle cx="184.534" cy="113.827" r="5.65624" fill="#AA50FF" fill-opacity="0.4"/>
<circle cx="6.00756" cy="113.827" r="5.65624" fill="#AA50FF" fill-opacity="0.24"/>
<circle cx="184.534" cy="43.3587" r="4.49203" fill="#E9C1FF"/>
<circle cx="113.602" cy="43.3587" r="4.49203" fill="#AA50FF" fill-opacity="0.24"/>
<circle cx="42.6695" cy="43.3587" r="4.49203" fill="#AA50FF" fill-opacity="0.4"/>
<circle cx="42.6695" cy="113.827" r="4.49203" fill="#AA50FF" fill-opacity="0.24"/>
<circle cx="148.693" cy="7.0267" r="4.49203" fill="#AA50FF" fill-opacity="0.24"/>
<circle cx="185.769" cy="7.0267" r="4.49203" fill="#AA50FF" fill-opacity="0.24"/>
<circle cx="77.16" cy="77.5536" r="4.49203" fill="#AA50FF" fill-opacity="0.24"/>
<circle cx="254.348" cy="149.338" r="6.41164" fill="#AA50FF" fill-opacity="0.24"/>
<circle cx="254.347" cy="184.802" r="3.21424" fill="#AA50FF" fill-opacity="0.24"/>
<circle cx="218.655" cy="184.802" r="3.21424" fill="#AA50FF" fill-opacity="0.24"/>
<circle cx="181.907" cy="184.801" r="1.86461" fill="#AA50FF" fill-opacity="0.24"/>
<circle cx="254.348" cy="77.5537" r="6.41164" fill="#AA50FF" fill-opacity="0.4"/>
</svg>
