<svg width="276" height="143" viewBox="0 0 276 143" fill="none" xmlns="http://www.w3.org/2000/svg">
<ellipse cx="31.7795" cy="5.26066" rx="4.65453" ry="4.65055" fill="#AB9FE6" fill-opacity="0.2"/>
<ellipse cx="31.7795" cy="31.8356" rx="4.65453" ry="4.65055" fill="#AB9FE6" fill-opacity="0.2"/>
<ellipse cx="31.7795" cy="58.41" rx="4.65453" ry="4.65055" fill="#AB9FE6" fill-opacity="0.2"/>
<ellipse cx="5.18285" cy="84.9843" rx="4.65453" ry="4.65055" fill="#AB9FE6" fill-opacity="0.2"/>
<ellipse cx="111.572" cy="111.559" rx="4.65453" ry="4.65055" fill="#AB9FE6" fill-opacity="0.2"/>
<ellipse cx="58.3772" cy="138.134" rx="4.65453" ry="4.65055" fill="#AB9FE6" fill-opacity="0.2"/>
<ellipse cx="5.18285" cy="138.134" rx="4.65453" ry="4.65055" fill="#AB9FE6" fill-opacity="0.2"/>
<ellipse cx="164.767" cy="31.8356" rx="4.65453" ry="4.65055" fill="#AB9FE6" fill-opacity="0.2"/>
<ellipse cx="164.767" cy="58.41" rx="4.65453" ry="4.65055" fill="#AB9FE6" fill-opacity="0.2"/>
<ellipse cx="138.17" cy="84.9843" rx="4.65453" ry="4.65055" fill="#AB9FE6" fill-opacity="0.2"/>
<ellipse cx="244.559" cy="111.559" rx="4.65453" ry="4.65055" fill="#AB9FE6" fill-opacity="0.2"/>
<ellipse cx="191.364" cy="138.134" rx="4.65453" ry="4.65055" fill="#AB9FE6" fill-opacity="0.2"/>
<ellipse cx="84.9758" cy="5.26066" rx="4.65453" ry="4.65055" fill="#AB9FE6" fill-opacity="0.2"/>
<ellipse cx="84.9758" cy="31.8356" rx="4.65453" ry="4.65055" fill="#AB9FE6" fill-opacity="0.2"/>
<ellipse cx="84.9758" cy="58.41" rx="4.65453" ry="4.65055" fill="#AB9FE6" fill-opacity="0.2"/>
<ellipse cx="58.3772" cy="84.9843" rx="4.65453" ry="4.65055" fill="#AB9FE6" fill-opacity="0.2"/>
<ellipse cx="164.767" cy="111.559" rx="4.65453" ry="4.65055" fill="#AB9FE6" fill-opacity="0.2"/>
<ellipse cx="111.572" cy="138.134" rx="4.65453" ry="4.65055" fill="#AB9FE6" fill-opacity="0.2"/>
<ellipse cx="217.961" cy="31.8356" rx="4.65453" ry="4.65055" fill="#AB9FE6" fill-opacity="0.2"/>
<ellipse cx="217.961" cy="58.41" rx="4.65453" ry="4.65055" fill="#AB9FE6" fill-opacity="0.2"/>
<ellipse cx="191.364" cy="84.9843" rx="4.65453" ry="4.65055" fill="#AB9FE6" fill-opacity="0.2"/>
<ellipse cx="217.961" cy="84.9843" rx="4.65453" ry="4.65055" fill="#AB9FE6" fill-opacity="0.2"/>
<ellipse cx="244.559" cy="138.134" rx="4.65453" ry="4.65055" fill="#AB9FE6" fill-opacity="0.2"/>
<ellipse cx="58.3772" cy="5.26066" rx="4.65453" ry="4.65055" fill="#AB9FE6" fill-opacity="0.2"/>
<ellipse cx="58.3772" cy="31.8356" rx="4.65453" ry="4.65055" fill="#AB9FE6" fill-opacity="0.2"/>
<ellipse cx="58.3772" cy="58.41" rx="4.65453" ry="4.65055" fill="#AB9FE6" fill-opacity="0.2"/>
<ellipse cx="31.7795" cy="84.9843" rx="4.65453" ry="4.65055" fill="#AB9FE6" fill-opacity="0.2"/>
<ellipse cx="138.17" cy="111.559" rx="4.65453" ry="4.65055" fill="#AB9FE6" fill-opacity="0.2"/>
<ellipse cx="84.9758" cy="138.134" rx="4.65453" ry="4.65055" fill="#AB9FE6" fill-opacity="0.2"/>
<ellipse cx="31.7795" cy="138.134" rx="4.65453" ry="4.65055" fill="#AB9FE6" fill-opacity="0.2"/>
<ellipse cx="191.364" cy="31.8356" rx="4.65453" ry="4.65055" fill="#AB9FE6" fill-opacity="0.2"/>
<ellipse cx="191.364" cy="58.41" rx="4.65453" ry="4.65055" fill="#AB9FE6" fill-opacity="0.2"/>
<ellipse cx="164.767" cy="84.9843" rx="4.65453" ry="4.65055" fill="#AB9FE6" fill-opacity="0.2"/>
<ellipse cx="271.155" cy="111.559" rx="4.65453" ry="4.65055" fill="#AB9FE6" fill-opacity="0.2"/>
<ellipse cx="217.961" cy="138.134" rx="4.65453" ry="4.65055" fill="#AB9FE6" fill-opacity="0.2"/>
<ellipse cx="111.572" cy="5.26066" rx="4.65453" ry="4.65055" fill="#AB9FE6" fill-opacity="0.2"/>
<ellipse cx="111.572" cy="31.8356" rx="4.65453" ry="4.65055" fill="#AB9FE6" fill-opacity="0.2"/>
<ellipse cx="111.572" cy="58.41" rx="4.65453" ry="4.65055" fill="#AB9FE6" fill-opacity="0.2"/>
<ellipse cx="84.9758" cy="84.9843" rx="4.65453" ry="4.65055" fill="#AB9FE6" fill-opacity="0.2"/>
<ellipse cx="191.364" cy="111.559" rx="4.65453" ry="4.65055" fill="#AB9FE6" fill-opacity="0.2"/>
<ellipse cx="138.17" cy="138.134" rx="4.65453" ry="4.65055" fill="#AB9FE6" fill-opacity="0.2"/>
<ellipse cx="244.559" cy="31.8356" rx="4.65453" ry="4.65055" fill="#AB9FE6" fill-opacity="0.2"/>
<ellipse cx="138.17" cy="5.26066" rx="4.65453" ry="4.65055" fill="#AB9FE6" fill-opacity="0.2"/>
<ellipse cx="138.17" cy="31.8356" rx="4.65453" ry="4.65055" fill="#AB9FE6" fill-opacity="0.2"/>
<ellipse cx="138.17" cy="58.41" rx="4.65453" ry="4.65055" fill="#AB9FE6" fill-opacity="0.2"/>
<ellipse cx="111.572" cy="84.9843" rx="4.65453" ry="4.65055" fill="#AB9FE6" fill-opacity="0.2"/>
<ellipse cx="217.961" cy="111.559" rx="4.65453" ry="4.65055" fill="#AB9FE6" fill-opacity="0.2"/>
<ellipse cx="164.767" cy="138.134" rx="4.65453" ry="4.65055" fill="#AB9FE6" fill-opacity="0.2"/>
</svg>
