<svg width="109" height="58" viewBox="0 0 109 58" fill="none" xmlns="http://www.w3.org/2000/svg">
<g filter="url(#filter0_ddi_26783_61617)">
<path d="M6.60433 47.141C5.99443 47.141 5.5 46.6466 5.5 46.0367V45.5264C5.5 43.1251 5.97612 41.0136 6.92836 39.1919C7.92201 37.3702 9.20546 35.7555 10.7787 34.3479C12.3934 32.9402 14.1737 31.6775 16.1196 30.5596C18.0654 29.4004 19.9906 28.3032 21.8951 27.2682C23.841 26.2331 25.6213 25.1774 27.2359 24.1009C28.8506 22.9831 30.1341 21.7824 31.0863 20.499C32.0386 19.1741 32.5147 17.663 32.5147 15.9655C32.5147 14.3094 32.1214 12.9638 31.3347 11.9288C30.5481 10.8524 29.4923 10.045 28.1675 9.5068C26.884 8.96857 25.4557 8.69946 23.8824 8.69946C21.8537 8.69946 20.1148 9.05138 18.6658 9.75521C17.2581 10.459 16.1817 11.432 15.4364 12.674C14.8479 13.6549 14.4531 14.7648 14.2518 16.0038C14.1592 16.5742 13.6855 17.0212 13.1077 17.0212H6.81229C6.17064 17.0212 5.66126 16.4755 5.73956 15.8386C6.09261 12.9671 6.9443 10.546 8.29462 8.57525C9.82649 6.33956 11.938 4.66279 14.6291 3.54494C17.3202 2.42709 20.5082 1.86816 24.1929 1.86816C27.8777 1.86816 31.0035 2.44779 33.5704 3.60704C36.1373 4.76629 38.0832 6.38096 39.4081 8.45105C40.7743 10.5211 41.4575 12.9431 41.4575 15.7171C41.4575 17.7872 41.0434 19.6502 40.2154 21.3063C39.4288 22.921 38.3523 24.37 36.9861 25.6535C35.6612 26.937 34.1914 28.0962 32.5768 29.1313C30.9621 30.1663 29.306 31.1392 27.6086 32.0501C25.9111 32.9609 24.3171 33.8511 22.8267 34.7205C21.3362 35.5899 20.0734 36.4801 19.0384 37.3909C18.4516 37.9073 17.9779 38.4503 17.6173 39.0199C17.2199 39.6477 17.7412 40.3718 18.4842 40.3718H40.6637C41.2736 40.3718 41.768 40.8663 41.768 41.4762V46.0367C41.768 46.6466 41.2736 47.141 40.6637 47.141H6.60433Z" fill="#161616"/>
<path d="M47.7852 47.141C47.1753 47.141 46.6809 46.6466 46.6809 46.0367V40.793C46.6809 40.1831 47.1753 39.6887 47.7852 39.6887H54.333C54.9429 39.6887 55.4374 40.1831 55.4374 40.793V46.0367C55.4374 46.6466 54.9429 47.141 54.333 47.141H47.7852Z" fill="#161616"/>
<path d="M80.182 47.7C76.8698 47.7 73.8268 47.2031 71.0529 46.2095C68.3204 45.2159 65.9605 43.7461 63.9732 41.8002C61.9859 39.8543 60.454 37.453 59.3776 34.5963C58.3011 31.7396 57.7629 28.4481 57.7629 24.722C57.7629 21.0372 58.3011 17.7872 59.3776 14.9718C60.454 12.1151 61.9652 9.71381 63.9111 7.76792C65.8984 5.82204 68.2583 4.35227 70.9908 3.35863C73.7647 2.36499 76.8284 1.86816 80.182 1.86816C83.5355 1.86816 86.5786 2.36499 89.3111 3.35863C92.0436 4.35227 94.4035 5.82204 96.3908 7.76792C98.3781 9.71381 99.9099 12.1151 100.986 14.9718C102.063 17.7872 102.601 21.0579 102.601 24.7841C102.601 28.4688 102.063 31.7396 100.986 34.5963C99.9099 37.453 98.3781 39.8543 96.3908 41.8002C94.4449 43.7461 92.085 45.2159 89.3111 46.2095C86.5786 47.2031 83.5355 47.7 80.182 47.7ZM80.182 40.496C82.2521 40.496 84.1151 40.1855 85.7712 39.5645C87.4273 38.9021 88.835 37.9291 89.9942 36.6457C91.1949 35.3208 92.1057 33.6854 92.7267 31.7396C93.3477 29.7523 93.6583 27.4338 93.6583 24.7841C93.6583 22.1343 93.3477 19.8365 92.7267 17.8907C92.1057 15.9034 91.2156 14.268 90.0563 12.9845C88.8971 11.6597 87.4687 10.6867 85.7712 10.0657C84.1151 9.40329 82.2521 9.07208 80.182 9.07208C78.1119 9.07208 76.2281 9.40329 74.5306 10.0657C72.8746 10.6867 71.4669 11.6597 70.3076 12.9845C69.1484 14.268 68.2583 15.8827 67.6372 17.8286C67.0162 19.7744 66.7057 22.0929 66.7057 24.7841C66.7057 27.4338 66.9955 29.7523 67.5751 31.7396C68.1962 33.6854 69.0863 35.3208 70.2456 36.6457C71.4462 37.9291 72.8746 38.9021 74.5306 39.5645C76.1867 40.1855 78.0705 40.496 80.182 40.496Z" fill="#161616"/>
<path d="M80.1816 1.11816C83.6093 1.11816 86.7412 1.62564 89.5674 2.65332C92.3957 3.6818 94.8479 5.20835 96.915 7.23242C98.9878 9.26195 100.577 11.7582 101.688 14.707H101.688C102.803 17.6248 103.351 20.9886 103.351 24.7842C103.351 28.5409 102.802 31.9037 101.688 34.8604C100.578 37.8066 98.9899 40.3005 96.9199 42.3291L96.9209 42.3301C94.8913 44.3597 92.4351 45.8877 89.5645 46.916L89.5635 46.915C86.7382 47.9419 83.6079 48.4502 80.1816 48.4502C76.794 48.4502 73.6642 47.9421 70.7998 46.916L70.7969 46.9141C67.9685 45.8856 65.5154 44.36 63.4482 42.3359C61.3756 40.3064 59.7869 37.8092 58.6758 34.8604C57.5614 31.9028 57.0127 28.5187 57.0127 24.7217C57.0127 20.9653 57.5613 17.6215 58.6768 14.7041C59.7866 11.7599 61.3524 9.26576 63.3809 7.2373L63.3867 7.23242C65.4539 5.20833 67.906 3.68181 70.7344 2.65332L70.7383 2.65234C73.6035 1.62605 76.754 1.1182 80.1816 1.11816ZM24.1934 1.11816C27.953 1.11821 31.1901 1.70954 33.8789 2.92383C36.5549 4.13234 38.6202 5.83267 40.0342 8.03809L40.2988 8.45605C41.5776 10.5673 42.207 12.9956 42.207 15.7168C42.207 17.8893 41.7726 19.8697 40.8867 21.6416L40.8857 21.6406C40.0578 23.3381 38.9279 24.8588 37.5 26.2002C36.14 27.5166 34.6332 28.7039 32.9814 29.7627C31.3504 30.8082 29.6773 31.791 27.9629 32.7109C26.2725 33.618 24.686 34.5037 23.2041 35.3682C21.7457 36.2189 20.5251 37.0821 19.5342 37.9541C18.9926 38.4307 18.5679 38.9203 18.251 39.4209C18.2298 39.4543 18.2304 39.4709 18.2305 39.4736C18.2306 39.4783 18.2316 39.4929 18.2461 39.5146C18.2774 39.5614 18.3577 39.6221 18.4844 39.6221H40.6641C41.688 39.6223 42.5176 40.4526 42.5176 41.4766V46.0371C42.5174 47.0609 41.6879 47.8904 40.6641 47.8906H6.60449C5.58051 47.8906 4.75022 47.061 4.75 46.0371V45.5264C4.75 43.0245 5.24672 40.7903 6.26367 38.8447L6.26953 38.833C7.30483 36.935 8.6425 35.2527 10.2783 33.7891L10.2861 33.7822C11.9364 32.3436 13.7532 31.0546 15.7354 29.915C17.6893 28.751 19.6236 27.6493 21.5371 26.6094L21.543 26.6064C23.4662 25.5835 25.2214 24.5413 26.8105 23.4824C28.3718 22.4013 29.591 21.2559 30.4844 20.0518C31.3364 18.8622 31.7646 17.5087 31.7646 15.9658C31.7646 14.4283 31.4004 13.2553 30.7373 12.3828L30.7295 12.3711C30.0311 11.4154 29.0903 10.6909 27.8848 10.2012L27.877 10.1982C26.6968 9.70343 25.3691 9.44927 23.8828 9.44922C21.939 9.44922 20.3172 9.78661 18.9932 10.4297C17.7056 11.0751 16.7433 11.9527 16.0791 13.0596C15.5441 13.9512 15.1797 14.9698 14.9922 16.124C14.8472 17.0169 14.0927 17.7715 13.1074 17.7715H6.8125C5.74622 17.7715 4.85873 16.8564 4.99512 15.7471C5.35977 12.7813 6.24468 10.24 7.67578 8.15137C9.29588 5.78689 11.5272 4.02167 14.3418 2.85254C17.1447 1.68831 20.4351 1.11816 24.1934 1.11816ZM54.333 38.9385C55.3571 38.9385 56.1875 39.7689 56.1875 40.793V46.0371C56.1873 47.061 55.357 47.8906 54.333 47.8906H47.7852C46.7612 47.8906 45.9309 47.061 45.9307 46.0371V40.793C45.9307 39.7689 46.7611 38.9385 47.7852 38.9385H54.333ZM80.1816 9.82227C78.1925 9.8223 76.4031 10.1405 74.8037 10.7646L74.7939 10.7676C73.2533 11.3453 71.9493 12.2474 70.8721 13.4785L70.8643 13.4873C69.7884 14.6784 68.9459 16.1943 68.3516 18.0566C67.7602 19.9096 67.4561 22.1474 67.4561 24.7842C67.4561 27.3735 67.7384 29.6125 68.29 31.5117L68.4043 31.8574C68.9895 33.562 69.7917 34.9855 70.8018 36.1426C71.9232 37.3388 73.2551 38.2456 74.8047 38.8662C76.3594 39.4475 78.1479 39.7461 80.1816 39.7461C82.1719 39.7461 83.9401 39.4479 85.4961 38.8662C87.0478 38.2449 88.3582 37.3375 89.4375 36.1426L89.4385 36.1416C90.5566 34.9077 91.4178 33.3719 92.0107 31.5156C92.6039 29.6174 92.9082 27.3775 92.9082 24.7842C92.9082 22.1904 92.6043 19.973 92.0127 18.1191L92.0107 18.1143C91.4156 16.2098 90.5733 14.6756 89.5 13.4873L89.4922 13.4785C88.4182 12.2511 87.096 11.3495 85.5137 10.7705L85.5029 10.7666L85.4922 10.7617C83.9379 10.1401 82.1712 9.82227 80.1816 9.82227Z" stroke="url(#paint0_linear_26783_61617)" stroke-width="1.5"/>
</g>
<defs>
<filter id="filter0_ddi_26783_61617" x="0" y="5.4419e-05" width="108.101" height="57.1999" filterUnits="userSpaceOnUse" color-interpolation-filters="sRGB">
<feFlood flood-opacity="0" result="BackgroundImageFix"/>
<feColorMatrix in="SourceAlpha" type="matrix" values="0 0 0 0 0 0 0 0 0 0 0 0 0 0 0 0 0 0 127 0" result="hardAlpha"/>
<feOffset dx="-0.736219" dy="0.736219"/>
<feGaussianBlur stdDeviation="0.552164"/>
<feComposite in2="hardAlpha" operator="out"/>
<feColorMatrix type="matrix" values="0 0 0 0 0.234919 0 0 0 0 0.20946 0 0 0 0 0.973238 0 0 0 0.45 0"/>
<feBlend mode="normal" in2="BackgroundImageFix" result="effect1_dropShadow_26783_61617"/>
<feColorMatrix in="SourceAlpha" type="matrix" values="0 0 0 0 0 0 0 0 0 0 0 0 0 0 0 0 0 0 127 0" result="hardAlpha"/>
<feOffset dy="4"/>
<feGaussianBlur stdDeviation="2"/>
<feComposite in2="hardAlpha" operator="out"/>
<feColorMatrix type="matrix" values="0 0 0 0 0.123009 0 0 0 0 0.313024 0 0 0 0 1 0 0 0 0.65 0"/>
<feBlend mode="normal" in2="effect1_dropShadow_26783_61617" result="effect2_dropShadow_26783_61617"/>
<feBlend mode="normal" in="SourceGraphic" in2="BackgroundImageFix" result="shape"/>
<feColorMatrix in="SourceAlpha" type="matrix" values="0 0 0 0 0 0 0 0 0 0 0 0 0 0 0 0 0 0 127 0" result="hardAlpha"/>
<feOffset dy="4"/>
<feGaussianBlur stdDeviation="2"/>
<feComposite in2="hardAlpha" operator="arithmetic" k2="-1" k3="1"/>
<feColorMatrix type="matrix" values="0 0 0 0 0.285414 0 0 0 0 0.606189 0 0 0 0 0.949087 0 0 0 0.2 0"/>
<feBlend mode="normal" in2="shape" result="effect3_innerShadow_26783_61617"/>
<feBlend mode="normal" in="effect3_innerShadow_26783_61617" in2="effect2_dropShadow_26783_61617" result="effect3_innerShadow_26783_61617"/>
</filter>
<linearGradient id="paint0_linear_26783_61617" x1="36.9156" y1="13.1998" x2="45.3125" y2="47.7" gradientUnits="userSpaceOnUse">
<stop offset="0.0432692" stop-color="#A99CFF"/>
<stop offset="0.221154" stop-color="#EBEBED"/>
<stop offset="0.605769" stop-color="#5A41FD"/>
<stop offset="0.798077" stop-color="#3B76EC"/>
<stop offset="0.971154" stop-color="#9CBDFF"/>
</linearGradient>
</defs>
</svg>
