<svg width="507" height="320" viewBox="0 0 507 320" fill="none" xmlns="http://www.w3.org/2000/svg">
<path d="M203.421 126.489C205.32 119.135 208.796 114.615 212.554 114.615H294.568C298.326 114.615 301.803 119.135 303.702 126.489L309.268 148.047C311.202 155.536 311.202 164.81 309.268 172.299L303.702 193.857C301.803 201.211 298.326 205.731 294.568 205.731H212.554C208.796 205.731 205.32 201.211 203.421 193.857L197.855 172.299C195.921 164.81 195.921 155.536 197.855 148.047L203.421 126.489Z" fill="#08020D"/>
<g filter="url(#filter0_d_16532_11240)">
<path d="M203.421 126.489C205.32 119.135 208.796 114.615 212.554 114.615H294.568C298.326 114.615 301.803 119.135 303.702 126.489L309.268 148.047C311.202 155.536 311.202 164.81 309.268 172.299L303.702 193.857C301.803 201.211 298.326 205.731 294.568 205.731H212.554C208.796 205.731 205.32 201.211 203.421 193.857L197.855 172.299C195.921 164.81 195.921 155.536 197.855 148.047L203.421 126.489Z" fill="url(#paint0_linear_16532_11240)" shape-rendering="crispEdges"/>
</g>
<path fill-rule="evenodd" clip-rule="evenodd" d="M212.554 115.615C208.953 115.615 205.621 119.946 203.801 126.994L198.235 148.552C196.382 155.73 196.382 164.617 198.235 171.794L203.801 193.352C205.621 200.4 208.953 204.731 212.554 204.731H294.568C298.17 204.731 301.502 200.4 303.321 193.352L308.887 171.794C310.741 164.616 310.741 155.73 308.887 148.552L303.321 126.994C301.502 119.946 298.17 115.615 294.568 115.615H212.554ZM212.554 114.615C208.796 114.615 205.32 119.135 203.421 126.489L197.855 148.047C195.921 155.536 195.921 164.81 197.855 172.299L203.421 193.857C205.32 201.211 208.796 205.731 212.554 205.731H294.568C298.326 205.731 301.803 201.211 303.702 193.857L309.268 172.299C311.202 164.81 311.202 155.536 309.268 148.047L303.702 126.489C301.803 119.135 298.326 114.615 294.568 114.615H212.554Z" fill="url(#paint1_linear_16532_11240)"/>
<g filter="url(#filter1_d_16532_11240)">
<path d="M251.793 154.017C252.77 153.027 254.353 153.027 255.329 154.017L259.343 158.086C260.319 159.076 260.319 160.681 259.343 161.671L255.329 165.741C254.353 166.731 252.77 166.731 251.793 165.741L247.779 161.671C246.803 160.681 246.803 159.076 247.779 158.086L251.793 154.017Z" fill="#A950FF"/>
<path d="M270.28 153.984C271.239 153.012 272.794 153.012 273.753 153.984L277.83 158.118C278.789 159.09 278.789 160.667 277.83 161.639L273.753 165.773C272.794 166.745 271.239 166.745 270.28 165.773L266.203 161.639C265.244 160.667 265.244 159.09 266.203 158.118L270.28 153.984Z" fill="#A950FF"/>
<path d="M251.825 135.273C252.784 134.301 254.339 134.301 255.298 135.273L259.375 139.407C260.334 140.379 260.334 141.956 259.375 142.928L255.298 147.062C254.339 148.034 252.784 148.034 251.825 147.062L247.748 142.928C246.789 141.956 246.789 140.379 247.748 139.407L251.825 135.273Z" fill="#E9C1FF"/>
<path d="M250.116 148.731C251.093 149.721 251.093 151.326 250.116 152.316L246.102 156.385C245.126 157.375 243.543 157.375 242.566 156.385L238.553 152.316C237.576 151.326 237.576 149.721 238.553 148.731L242.566 144.661C243.543 143.671 245.126 143.671 246.102 144.661L250.116 148.731Z" fill="#CD88FF"/>
<path d="M240.92 158.118C241.879 159.09 241.879 160.667 240.92 161.639L236.843 165.773C235.884 166.745 234.329 166.745 233.37 165.773L229.293 161.639C228.334 160.667 228.334 159.09 229.293 158.118L233.37 153.984C234.329 153.012 235.884 153.012 236.843 153.984L240.92 158.118Z" fill="#A950FF"/>
<path d="M268.571 148.731C269.547 149.721 269.547 151.326 268.571 152.316L264.557 156.385C263.581 157.375 261.997 157.375 261.021 156.385L257.007 152.316C256.031 151.326 256.031 149.721 257.007 148.731L261.021 144.661C261.997 143.671 263.581 143.671 264.557 144.661L268.571 148.731Z" fill="#CD88FF"/>
<path d="M257.511 175.457C259.693 177.669 259.693 181.255 257.511 183.467C255.33 185.679 251.793 185.679 249.612 183.467C247.43 181.255 247.43 177.669 249.612 175.457C251.793 173.246 255.33 173.246 257.511 175.457Z" fill="#F62E76"/>
</g>
<line x1="253.062" y1="114.615" x2="253.062" y2="93.2014" stroke="url(#paint2_linear_16532_11240)"/>
<path d="M310.027 153.22L335.067 144.67" stroke="url(#paint3_linear_16532_11240)"/>
<path d="M197.261 153.22L176.704 146.292" stroke="url(#paint4_linear_16532_11240)"/>
<path d="M206.664 201.229L173.102 224.928" stroke="url(#paint5_linear_16532_11240)"/>
<path d="M300.102 201.229L333.665 224.928" stroke="url(#paint6_linear_16532_11240)"/>
<g filter="url(#filter2_dd_16532_11240)">
<rect x="193.151" y="40.3789" width="125" height="52.8225" rx="5.8768" fill="#080808" fill-opacity="0.3" shape-rendering="crispEdges"/>
<rect x="193.519" y="40.7462" width="124.265" height="52.0879" rx="5.5095" stroke="url(#paint7_linear_16532_11240)" stroke-width="0.7346" shape-rendering="crispEdges"/>
<g filter="url(#filter3_di_16532_11240)">
<path d="M227.229 63.79V53.668H230.708C231.991 53.668 232.95 53.8967 233.585 54.354C234.224 54.8067 234.544 55.46 234.544 56.314C234.544 56.832 234.411 57.28 234.145 57.658C233.879 58.036 233.41 58.3557 232.738 58.617C233.149 58.715 233.487 58.8504 233.753 59.023C234.024 59.191 234.234 59.3847 234.383 59.604C234.532 59.8187 234.637 60.0497 234.698 60.297C234.759 60.5444 234.789 60.7987 234.789 61.06C234.789 61.984 234.467 62.67 233.823 63.118C233.184 63.566 232.192 63.79 230.848 63.79H227.229ZM228.93 62.432H230.869C231.588 62.432 232.131 62.3037 232.5 62.047C232.873 61.7857 233.06 61.41 233.06 60.92C233.06 60.5654 232.969 60.2737 232.787 60.045C232.605 59.8117 232.358 59.639 232.045 59.527C231.732 59.415 231.382 59.359 230.995 59.359H228.93V62.432ZM228.93 57.98H230.995C231.233 57.98 231.464 57.9544 231.688 57.903C231.912 57.8517 232.115 57.77 232.297 57.658C232.479 57.546 232.624 57.3967 232.731 57.21C232.843 57.0234 232.899 56.797 232.899 56.531C232.899 56.0224 232.705 55.6444 232.318 55.397C231.935 55.145 231.443 55.019 230.841 55.019H228.93V57.98ZM239.118 63.93C238.764 63.93 238.421 63.8787 238.089 63.776C237.763 63.6687 237.469 63.5147 237.207 63.314C236.946 63.1087 236.738 62.8567 236.584 62.558C236.43 62.2594 236.353 61.9117 236.353 61.515V56.552H238.061V61.319C238.061 61.711 238.185 62.033 238.432 62.285C238.684 62.537 239.062 62.663 239.566 62.663C240.024 62.663 240.39 62.544 240.665 62.306C240.941 62.0634 241.078 61.7157 241.078 61.263V56.552H242.772V63.79H241.463L241.274 62.376C241.186 62.7727 241.029 63.0854 240.805 63.314C240.586 63.538 240.327 63.6967 240.028 63.79C239.734 63.8834 239.431 63.93 239.118 63.93ZM247.474 63.93C246.97 63.93 246.492 63.8507 246.039 63.692C245.591 63.5287 245.213 63.2744 244.905 62.929C244.602 62.5837 244.411 62.138 244.331 61.592H245.829C245.895 61.858 246.009 62.075 246.172 62.243C246.34 62.411 246.536 62.5347 246.76 62.614C246.989 62.6887 247.225 62.726 247.467 62.726C247.901 62.726 248.251 62.6514 248.517 62.502C248.783 62.3527 248.916 62.1217 248.916 61.809C248.916 61.5804 248.842 61.3984 248.692 61.263C248.548 61.1277 248.31 61.025 247.978 60.955L246.606 60.64C245.99 60.5047 245.498 60.2807 245.129 59.968C244.761 59.6554 244.574 59.2144 244.569 58.645C244.565 58.2157 244.672 57.833 244.891 57.497C245.111 57.161 245.437 56.8974 245.871 56.706C246.305 56.51 246.84 56.412 247.474 56.412C248.319 56.412 248.996 56.601 249.504 56.979C250.018 57.3524 250.281 57.8867 250.295 58.582H248.846C248.795 58.2694 248.648 58.0267 248.405 57.854C248.163 57.6767 247.848 57.588 247.46 57.588C247.059 57.588 246.73 57.665 246.473 57.819C246.217 57.973 246.088 58.2087 246.088 58.526C246.088 58.7454 246.184 58.918 246.375 59.044C246.571 59.17 246.868 59.2774 247.264 59.366L248.566 59.681C248.94 59.7744 249.245 59.9004 249.483 60.059C249.721 60.2177 249.906 60.3927 250.036 60.584C250.172 60.7707 250.265 60.9644 250.316 61.165C250.372 61.361 250.4 61.543 250.4 61.711C250.4 62.1777 250.279 62.5767 250.036 62.908C249.798 63.2347 249.46 63.4867 249.021 63.664C248.587 63.8414 248.072 63.93 247.474 63.93ZM251.976 63.79V56.552H253.607V63.79H251.976ZM251.948 55.285V53.675H253.635V55.285H251.948ZM255.626 63.79V56.552H257.292V57.588C257.404 57.4014 257.556 57.2217 257.747 57.049C257.943 56.8764 258.183 56.7364 258.468 56.629C258.753 56.5217 259.086 56.468 259.469 56.468C259.917 56.468 260.332 56.5567 260.715 56.734C261.102 56.9114 261.413 57.189 261.646 57.567C261.884 57.945 262.003 58.4327 262.003 59.03V63.79H260.295V59.233C260.295 58.757 260.164 58.4047 259.903 58.176C259.642 57.9427 259.313 57.826 258.916 57.826C258.645 57.826 258.389 57.8727 258.146 57.966C257.903 58.0547 257.705 58.1924 257.551 58.379C257.402 58.561 257.327 58.7897 257.327 59.065V63.79H255.626ZM267.028 63.93C266.333 63.93 265.719 63.783 265.187 63.489C264.66 63.1904 264.247 62.7657 263.948 62.215C263.654 61.6644 263.507 61.0087 263.507 60.248C263.507 59.506 263.64 58.848 263.906 58.274C264.177 57.6954 264.567 57.2404 265.075 56.909C265.589 56.5777 266.207 56.412 266.93 56.412C267.644 56.412 268.244 56.5637 268.729 56.867C269.215 57.1704 269.583 57.595 269.835 58.141C270.087 58.6824 270.213 59.317 270.213 60.045V60.563H265.208C265.204 60.9737 265.269 61.3377 265.404 61.655C265.54 61.9724 265.74 62.222 266.006 62.404C266.272 62.5814 266.601 62.67 266.993 62.67C267.395 62.67 267.742 62.5814 268.036 62.404C268.335 62.222 268.533 61.9467 268.631 61.578H270.185C270.101 62.082 269.901 62.509 269.583 62.859C269.271 63.209 268.888 63.475 268.435 63.657C267.987 63.839 267.518 63.93 267.028 63.93ZM265.201 59.506H268.603C268.603 59.156 268.54 58.841 268.414 58.561C268.293 58.2764 268.109 58.0524 267.861 57.889C267.614 57.721 267.301 57.637 266.923 57.637C266.55 57.637 266.235 57.728 265.978 57.91C265.722 58.092 265.528 58.3277 265.397 58.617C265.267 58.9017 265.201 59.198 265.201 59.506ZM274.586 63.93C274.082 63.93 273.603 63.8507 273.151 63.692C272.703 63.5287 272.325 63.2744 272.017 62.929C271.713 62.5837 271.522 62.138 271.443 61.592H272.941C273.006 61.858 273.12 62.075 273.284 62.243C273.452 62.411 273.648 62.5347 273.872 62.614C274.1 62.6887 274.336 62.726 274.579 62.726C275.013 62.726 275.363 62.6514 275.629 62.502C275.895 62.3527 276.028 62.1217 276.028 61.809C276.028 61.5804 275.953 61.3984 275.804 61.263C275.659 61.1277 275.421 61.025 275.09 60.955L273.718 60.64C273.102 60.5047 272.609 60.2807 272.241 59.968C271.872 59.6554 271.685 59.2144 271.681 58.645C271.676 58.2157 271.783 57.833 272.003 57.497C272.222 57.161 272.549 56.8974 272.983 56.706C273.417 56.51 273.951 56.412 274.586 56.412C275.43 56.412 276.107 56.601 276.616 56.979C277.129 57.3524 277.393 57.8867 277.407 58.582H275.958C275.906 58.2694 275.759 58.0267 275.517 57.854C275.274 57.6767 274.959 57.588 274.572 57.588C274.17 57.588 273.841 57.665 273.585 57.819C273.328 57.973 273.2 58.2087 273.2 58.526C273.2 58.7454 273.295 58.918 273.487 59.044C273.683 59.17 273.979 59.2774 274.376 59.366L275.678 59.681C276.051 59.7744 276.357 59.9004 276.595 60.059C276.833 60.2177 277.017 60.3927 277.148 60.584C277.283 60.7707 277.376 60.9644 277.428 61.165C277.484 61.361 277.512 61.543 277.512 61.711C277.512 62.1777 277.39 62.5767 277.148 62.908C276.91 63.2347 276.571 63.4867 276.133 63.664C275.699 63.8414 275.183 63.93 274.586 63.93ZM281.791 63.93C281.287 63.93 280.808 63.8507 280.356 63.692C279.908 63.5287 279.53 63.2744 279.222 62.929C278.918 62.5837 278.727 62.138 278.648 61.592H280.146C280.211 61.858 280.325 62.075 280.489 62.243C280.657 62.411 280.853 62.5347 281.077 62.614C281.305 62.6887 281.541 62.726 281.784 62.726C282.218 62.726 282.568 62.6514 282.834 62.502C283.1 62.3527 283.233 62.1217 283.233 61.809C283.233 61.5804 283.158 61.3984 283.009 61.263C282.864 61.1277 282.626 61.025 282.295 60.955L280.923 60.64C280.307 60.5047 279.814 60.2807 279.446 59.968C279.077 59.6554 278.89 59.2144 278.886 58.645C278.881 58.2157 278.988 57.833 279.208 57.497C279.427 57.161 279.754 56.8974 280.188 56.706C280.622 56.51 281.156 56.412 281.791 56.412C282.635 56.412 283.312 56.601 283.821 56.979C284.334 57.3524 284.598 57.8867 284.612 58.582H283.163C283.111 58.2694 282.964 58.0267 282.722 57.854C282.479 57.6767 282.164 57.588 281.777 57.588C281.375 57.588 281.046 57.665 280.79 57.819C280.533 57.973 280.405 58.2087 280.405 58.526C280.405 58.7454 280.5 58.918 280.692 59.044C280.888 59.17 281.184 59.2774 281.581 59.366L282.883 59.681C283.256 59.7744 283.562 59.9004 283.8 60.059C284.038 60.2177 284.222 60.3927 284.353 60.584C284.488 60.7707 284.581 60.9644 284.633 61.165C284.689 61.361 284.717 61.543 284.717 61.711C284.717 62.1777 284.595 62.5767 284.353 62.908C284.115 63.2347 283.776 63.4867 283.338 63.664C282.904 63.8414 282.388 63.93 281.791 63.93ZM217.655 79.79L221.288 69.668H223.136L226.769 79.79H225.061L224.158 77.249H220.28L219.37 79.79H217.655ZM220.686 75.737H223.731L222.212 71.32L220.686 75.737ZM230.73 79.93C230.376 79.93 230.033 79.8787 229.701 79.776C229.375 79.6687 229.081 79.5147 228.819 79.314C228.558 79.1087 228.35 78.8567 228.196 78.558C228.042 78.2594 227.965 77.9117 227.965 77.515V72.552H229.673V77.319C229.673 77.711 229.797 78.033 230.044 78.285C230.296 78.537 230.674 78.663 231.178 78.663C231.636 78.663 232.002 78.544 232.277 78.306C232.553 78.0634 232.69 77.7157 232.69 77.263V72.552H234.384V79.79H233.075L232.886 78.376C232.798 78.7727 232.641 79.0854 232.417 79.314C232.198 79.538 231.939 79.6967 231.64 79.79C231.346 79.8834 231.043 79.93 230.73 79.93ZM239.22 79.846C238.646 79.846 238.2 79.7714 237.883 79.622C237.57 79.468 237.353 79.251 237.232 78.971C237.11 78.691 237.05 78.3574 237.05 77.97V73.756H235.874V72.552H237.099L237.526 70.403H238.751V72.545H240.368V73.756H238.751L238.758 77.907C238.758 78.1217 238.781 78.2804 238.828 78.383C238.879 78.481 238.958 78.5464 239.066 78.579C239.178 78.607 239.325 78.621 239.507 78.621H240.403V79.699C240.305 79.7364 240.16 79.769 239.969 79.797C239.782 79.8297 239.532 79.846 239.22 79.846ZM244.808 79.93C244.117 79.93 243.515 79.783 243.002 79.489C242.488 79.1904 242.089 78.7634 241.805 78.208C241.525 77.6527 241.385 76.9854 241.385 76.206C241.385 75.45 241.522 74.7874 241.798 74.218C242.073 73.6487 242.465 73.2054 242.974 72.888C243.487 72.5707 244.101 72.412 244.815 72.412C245.505 72.412 246.105 72.5637 246.614 72.867C247.122 73.1704 247.514 73.6044 247.79 74.169C248.07 74.7337 248.21 75.4127 248.21 76.206C248.21 76.9387 248.077 77.585 247.811 78.145C247.549 78.7004 247.164 79.1367 246.656 79.454C246.152 79.7714 245.536 79.93 244.808 79.93ZM244.815 78.635C245.207 78.635 245.529 78.5277 245.781 78.313C246.037 78.0984 246.229 77.8044 246.355 77.431C246.481 77.0577 246.544 76.633 246.544 76.157C246.544 75.7137 246.488 75.3054 246.376 74.932C246.264 74.5587 246.079 74.26 245.823 74.036C245.571 73.8074 245.235 73.693 244.815 73.693C244.418 73.693 244.089 73.798 243.828 74.008C243.571 74.2134 243.38 74.5027 243.254 74.876C243.128 75.2447 243.065 75.6717 243.065 76.157C243.065 76.5957 243.121 77.004 243.233 77.382C243.345 77.7554 243.529 78.0587 243.786 78.292C244.042 78.5207 244.385 78.635 244.815 78.635ZM249.768 79.79V72.552H251.427V73.588C251.637 73.2707 251.921 72.9954 252.281 72.762C252.645 72.5287 253.107 72.412 253.667 72.412C253.923 72.412 254.182 72.4564 254.444 72.545C254.71 72.6337 254.955 72.7644 255.179 72.937C255.407 73.1097 255.589 73.3244 255.725 73.581C255.953 73.2404 256.257 72.9604 256.635 72.741C257.017 72.5217 257.447 72.412 257.923 72.412C258.184 72.412 258.452 72.454 258.728 72.538C259.008 72.622 259.264 72.762 259.498 72.958C259.731 73.154 259.92 73.4224 260.065 73.763C260.209 74.099 260.282 74.5214 260.282 75.03V79.79H258.581V75.233C258.581 74.8737 258.518 74.5914 258.392 74.386C258.266 74.1807 258.102 74.036 257.902 73.952C257.706 73.8634 257.496 73.819 257.272 73.819C257.071 73.819 256.861 73.8587 256.642 73.938C256.427 74.0174 256.243 74.148 256.089 74.33C255.939 74.512 255.865 74.757 255.865 75.065V79.79H254.164V74.96C254.164 74.708 254.098 74.498 253.968 74.33C253.837 74.162 253.671 74.036 253.471 73.952C253.275 73.8634 253.074 73.819 252.869 73.819C252.659 73.819 252.444 73.8634 252.225 73.952C252.01 74.0407 251.83 74.176 251.686 74.358C251.541 74.54 251.469 74.7757 251.469 75.065V79.79H249.768ZM264.165 79.93C263.703 79.93 263.288 79.846 262.919 79.678C262.555 79.5054 262.268 79.2604 262.058 78.943C261.853 78.621 261.75 78.2314 261.75 77.774C261.75 76.976 262.037 76.374 262.611 75.968C263.19 75.562 264.109 75.3497 265.369 75.331L266.454 75.303V74.813C266.454 74.4304 266.34 74.1317 266.111 73.917C265.887 73.6977 265.537 73.5904 265.061 73.595C264.707 73.5997 264.385 73.6837 264.095 73.847C263.806 74.0057 263.615 74.274 263.521 74.652H262.072C262.1 74.1574 262.243 73.7444 262.499 73.413C262.761 73.077 263.118 72.8274 263.57 72.664C264.023 72.496 264.546 72.412 265.138 72.412C265.829 72.412 266.391 72.503 266.825 72.685C267.259 72.867 267.579 73.1307 267.784 73.476C267.99 73.8167 268.092 74.2297 268.092 74.715V79.79H266.657L266.517 78.488C266.261 79.034 265.932 79.412 265.53 79.622C265.134 79.8274 264.679 79.93 264.165 79.93ZM264.718 78.775C264.928 78.775 265.136 78.7377 265.341 78.663C265.547 78.5837 265.731 78.4787 265.894 78.348C266.062 78.2127 266.195 78.0634 266.293 77.9C266.396 77.7367 266.45 77.5664 266.454 77.389V76.248L265.565 76.262C265.127 76.2667 264.742 76.3134 264.41 76.402C264.084 76.4907 263.829 76.633 263.647 76.829C263.465 77.0204 263.374 77.277 263.374 77.599C263.374 77.9677 263.503 78.257 263.759 78.467C264.016 78.6724 264.336 78.775 264.718 78.775ZM272.524 79.846C271.95 79.846 271.505 79.7714 271.187 79.622C270.875 79.468 270.658 79.251 270.536 78.971C270.415 78.691 270.354 78.3574 270.354 77.97V73.756H269.178V72.552H270.403L270.83 70.403H272.055V72.545H273.672V73.756H272.055L272.062 77.907C272.062 78.1217 272.086 78.2804 272.132 78.383C272.184 78.481 272.263 78.5464 272.37 78.579C272.482 78.607 272.629 78.621 272.811 78.621H273.707V79.699C273.609 79.7364 273.465 79.769 273.273 79.797C273.087 79.8297 272.837 79.846 272.524 79.846ZM275.307 79.79V72.552H276.938V79.79H275.307ZM275.279 71.285V69.675H276.966V71.285H275.279ZM281.927 79.93C281.236 79.93 280.634 79.783 280.121 79.489C279.608 79.1904 279.209 78.7634 278.924 78.208C278.644 77.6527 278.504 76.9854 278.504 76.206C278.504 75.45 278.642 74.7874 278.917 74.218C279.192 73.6487 279.584 73.2054 280.093 72.888C280.606 72.5707 281.22 72.412 281.934 72.412C282.625 72.412 283.224 72.5637 283.733 72.867C284.242 73.1704 284.634 73.6044 284.909 74.169C285.189 74.7337 285.329 75.4127 285.329 76.206C285.329 76.9387 285.196 77.585 284.93 78.145C284.669 78.7004 284.284 79.1367 283.775 79.454C283.271 79.7714 282.655 79.93 281.927 79.93ZM281.934 78.635C282.326 78.635 282.648 78.5277 282.9 78.313C283.157 78.0984 283.348 77.8044 283.474 77.431C283.6 77.0577 283.663 76.633 283.663 76.157C283.663 75.7137 283.607 75.3054 283.495 74.932C283.383 74.5587 283.199 74.26 282.942 74.036C282.69 73.8074 282.354 73.693 281.934 73.693C281.537 73.693 281.208 73.798 280.947 74.008C280.69 74.2134 280.499 74.5027 280.373 74.876C280.247 75.2447 280.184 75.6717 280.184 76.157C280.184 76.5957 280.24 77.004 280.352 77.382C280.464 77.7554 280.648 78.0587 280.905 78.292C281.162 78.5207 281.505 78.635 281.934 78.635ZM286.887 79.79V72.552H288.553V73.588C288.665 73.4014 288.817 73.2217 289.008 73.049C289.204 72.8764 289.444 72.7364 289.729 72.629C290.014 72.5217 290.347 72.468 290.73 72.468C291.178 72.468 291.593 72.5567 291.976 72.734C292.363 72.9114 292.674 73.189 292.907 73.567C293.145 73.945 293.264 74.4327 293.264 75.03V79.79H291.556V75.233C291.556 74.757 291.425 74.4047 291.164 74.176C290.903 73.9427 290.574 73.826 290.177 73.826C289.906 73.826 289.65 73.8727 289.407 73.966C289.164 74.0547 288.966 74.1924 288.812 74.379C288.663 74.561 288.588 74.7897 288.588 75.065V79.79H286.887Z" fill="white"/>
</g>
</g>
<g filter="url(#filter4_dd_16532_11240)">
<rect x="334.651" y="119.379" width="125" height="52.8225" rx="5.8768" fill="#080808" fill-opacity="0.3" shape-rendering="crispEdges"/>
<rect x="335.019" y="119.746" width="124.265" height="52.0879" rx="5.5095" stroke="url(#paint8_linear_16532_11240)" stroke-width="0.7346" shape-rendering="crispEdges"/>
<g filter="url(#filter5_di_16532_11240)">
<path d="M378.333 142.79V132.668H380.769L383.422 140.403L386.103 132.668H388.525V142.79H386.796V134.852L384.129 142.79H382.708L380.062 134.901V142.79H378.333ZM390.98 142.79L390.987 132.668H392.709V141.32H397.28V142.79H390.98ZM398.01 143.175L401.531 132.668H402.77L399.242 143.175H398.01ZM403.452 142.79L407.085 132.668H408.933L412.566 142.79H410.858L409.955 140.249H406.077L405.167 142.79H403.452ZM406.483 138.737H409.528L408.009 134.32L406.483 138.737ZM414.263 142.79V132.668H415.964V142.79H414.263ZM356.949 158.93C356.016 158.93 355.209 158.725 354.527 158.314C353.851 157.903 353.326 157.311 352.952 156.536C352.584 155.761 352.399 154.833 352.399 153.75C352.399 152.658 352.586 151.722 352.959 150.943C353.333 150.164 353.86 149.566 354.541 149.151C355.227 148.736 356.03 148.528 356.949 148.528C357.869 148.528 358.664 148.736 359.336 149.151C360.013 149.566 360.536 150.164 360.904 150.943C361.273 151.722 361.457 152.658 361.457 153.75C361.457 154.833 361.275 155.761 360.911 156.536C360.547 157.306 360.027 157.899 359.35 158.314C358.674 158.725 357.873 158.93 356.949 158.93ZM356.949 157.502C357.5 157.502 357.974 157.374 358.37 157.117C358.767 156.856 359.07 156.452 359.28 155.906C359.495 155.355 359.602 154.644 359.602 153.771C359.602 152.884 359.495 152.161 359.28 151.601C359.066 151.036 358.76 150.621 358.363 150.355C357.967 150.089 357.495 149.956 356.949 149.956C356.399 149.956 355.923 150.091 355.521 150.362C355.125 150.628 354.817 151.043 354.597 151.608C354.378 152.168 354.268 152.889 354.268 153.771C354.268 154.644 354.378 155.355 354.597 155.906C354.817 156.452 355.125 156.856 355.521 157.117C355.923 157.374 356.399 157.502 356.949 157.502ZM362.981 158.79V151.552H364.612V153.12C364.728 152.761 364.894 152.455 365.109 152.203C365.328 151.946 365.585 151.75 365.879 151.615C366.173 151.48 366.492 151.412 366.838 151.412C366.922 151.412 367.003 151.417 367.083 151.426C367.162 151.435 367.22 151.452 367.258 151.475V153.106C367.206 153.083 367.139 153.066 367.055 153.057C366.975 153.048 366.905 153.043 366.845 153.043C366.495 153.015 366.184 153.029 365.914 153.085C365.648 153.141 365.421 153.237 365.235 153.372C365.053 153.503 364.915 153.671 364.822 153.876C364.728 154.077 364.682 154.312 364.682 154.583V158.79H362.981ZM371.597 158.93C370.934 158.93 370.344 158.785 369.826 158.496C369.312 158.202 368.909 157.777 368.615 157.222C368.321 156.662 368.174 155.988 368.174 155.199C368.174 154.448 368.311 153.79 368.587 153.225C368.867 152.656 369.261 152.212 369.77 151.895C370.283 151.573 370.892 151.412 371.597 151.412C372.161 151.412 372.658 151.524 373.088 151.748C373.517 151.972 373.86 152.282 374.117 152.679C374.378 153.076 374.534 153.526 374.586 154.03H373.137C373.099 153.811 373.018 153.603 372.892 153.407C372.766 153.206 372.595 153.045 372.381 152.924C372.171 152.798 371.914 152.735 371.611 152.735C371.065 152.735 370.624 152.936 370.288 153.337C369.952 153.738 369.784 154.354 369.784 155.185C369.784 155.95 369.942 156.559 370.26 157.012C370.582 157.465 371.041 157.691 371.639 157.691C371.937 157.691 372.194 157.626 372.409 157.495C372.623 157.36 372.791 157.194 372.913 156.998C373.039 156.797 373.118 156.597 373.151 156.396H374.565C374.523 156.886 374.371 157.322 374.11 157.705C373.848 158.088 373.503 158.389 373.074 158.608C372.644 158.823 372.152 158.93 371.597 158.93ZM376.133 158.79V148.388H377.813V152.602C377.93 152.42 378.084 152.245 378.275 152.077C378.466 151.904 378.7 151.764 378.975 151.657C379.255 151.545 379.589 151.489 379.976 151.489C380.438 151.489 380.86 151.578 381.243 151.755C381.626 151.932 381.931 152.189 382.16 152.525C382.389 152.856 382.503 153.253 382.503 153.715V158.79H380.795V154.002C380.795 153.629 380.662 153.339 380.396 153.134C380.135 152.929 379.803 152.826 379.402 152.826C379.136 152.826 378.882 152.873 378.639 152.966C378.396 153.059 378.2 153.199 378.051 153.386C377.906 153.568 377.834 153.797 377.834 154.072V158.79H376.133ZM387.521 158.93C386.826 158.93 386.212 158.783 385.68 158.489C385.153 158.19 384.74 157.766 384.441 157.215C384.147 156.664 384 156.009 384 155.248C384 154.506 384.133 153.848 384.399 153.274C384.67 152.695 385.06 152.24 385.568 151.909C386.082 151.578 386.7 151.412 387.423 151.412C388.137 151.412 388.737 151.564 389.222 151.867C389.708 152.17 390.076 152.595 390.328 153.141C390.58 153.682 390.706 154.317 390.706 155.045V155.563H385.701C385.697 155.974 385.762 156.338 385.897 156.655C386.033 156.972 386.233 157.222 386.499 157.404C386.765 157.581 387.094 157.67 387.486 157.67C387.888 157.67 388.235 157.581 388.529 157.404C388.828 157.222 389.026 156.947 389.124 156.578H390.678C390.594 157.082 390.394 157.509 390.076 157.859C389.764 158.209 389.381 158.475 388.928 158.657C388.48 158.839 388.011 158.93 387.521 158.93ZM385.694 154.506H389.096C389.096 154.156 389.033 153.841 388.907 153.561C388.786 153.276 388.602 153.052 388.354 152.889C388.107 152.721 387.794 152.637 387.416 152.637C387.043 152.637 386.728 152.728 386.471 152.91C386.215 153.092 386.021 153.328 385.89 153.617C385.76 153.902 385.694 154.198 385.694 154.506ZM395.079 158.93C394.575 158.93 394.096 158.851 393.644 158.692C393.196 158.529 392.818 158.274 392.51 157.929C392.206 157.584 392.015 157.138 391.936 156.592H393.434C393.499 156.858 393.613 157.075 393.777 157.243C393.945 157.411 394.141 157.535 394.365 157.614C394.593 157.689 394.829 157.726 395.072 157.726C395.506 157.726 395.856 157.651 396.122 157.502C396.388 157.353 396.521 157.122 396.521 156.809C396.521 156.58 396.446 156.398 396.297 156.263C396.152 156.128 395.914 156.025 395.583 155.955L394.211 155.64C393.595 155.505 393.102 155.281 392.734 154.968C392.365 154.655 392.178 154.214 392.174 153.645C392.169 153.216 392.276 152.833 392.496 152.497C392.715 152.161 393.042 151.897 393.476 151.706C393.91 151.51 394.444 151.412 395.079 151.412C395.923 151.412 396.6 151.601 397.109 151.979C397.622 152.352 397.886 152.887 397.9 153.582H396.451C396.399 153.269 396.252 153.027 396.01 152.854C395.767 152.677 395.452 152.588 395.065 152.588C394.663 152.588 394.334 152.665 394.078 152.819C393.821 152.973 393.693 153.209 393.693 153.526C393.693 153.745 393.788 153.918 393.98 154.044C394.176 154.17 394.472 154.277 394.869 154.366L396.171 154.681C396.544 154.774 396.85 154.9 397.088 155.059C397.326 155.218 397.51 155.393 397.641 155.584C397.776 155.771 397.869 155.964 397.921 156.165C397.977 156.361 398.005 156.543 398.005 156.711C398.005 157.178 397.883 157.577 397.641 157.908C397.403 158.235 397.064 158.487 396.626 158.664C396.192 158.841 395.676 158.93 395.079 158.93ZM402.376 158.846C401.802 158.846 401.356 158.771 401.039 158.622C400.726 158.468 400.509 158.251 400.388 157.971C400.267 157.691 400.206 157.357 400.206 156.97V152.756H399.03V151.552H400.255L400.682 149.403H401.907V151.545H403.524V152.756H401.907L401.914 156.907C401.914 157.122 401.937 157.28 401.984 157.383C402.035 157.481 402.115 157.546 402.222 157.579C402.334 157.607 402.481 157.621 402.663 157.621H403.559V158.699C403.461 158.736 403.316 158.769 403.125 158.797C402.938 158.83 402.689 158.846 402.376 158.846ZM405.131 158.79V151.552H406.762V153.12C406.879 152.761 407.044 152.455 407.259 152.203C407.478 151.946 407.735 151.75 408.029 151.615C408.323 151.48 408.643 151.412 408.988 151.412C409.072 151.412 409.154 151.417 409.233 151.426C409.312 151.435 409.371 151.452 409.408 151.475V153.106C409.357 153.083 409.289 153.066 409.205 153.057C409.126 153.048 409.056 153.043 408.995 153.043C408.645 153.015 408.335 153.029 408.064 153.085C407.798 153.141 407.572 153.237 407.385 153.372C407.203 153.503 407.065 153.671 406.972 153.876C406.879 154.077 406.832 154.312 406.832 154.583V158.79H405.131ZM412.652 158.93C412.19 158.93 411.774 158.846 411.406 158.678C411.042 158.505 410.755 158.26 410.545 157.943C410.339 157.621 410.237 157.231 410.237 156.774C410.237 155.976 410.524 155.374 411.098 154.968C411.676 154.562 412.596 154.35 413.856 154.331L414.941 154.303V153.813C414.941 153.43 414.826 153.132 414.598 152.917C414.374 152.698 414.024 152.59 413.548 152.595C413.193 152.6 412.871 152.684 412.582 152.847C412.292 153.006 412.101 153.274 412.008 153.652H410.559C410.587 153.157 410.729 152.744 410.986 152.413C411.247 152.077 411.604 151.827 412.057 151.664C412.509 151.496 413.032 151.412 413.625 151.412C414.315 151.412 414.878 151.503 415.312 151.685C415.746 151.867 416.065 152.131 416.271 152.476C416.476 152.817 416.579 153.23 416.579 153.715V158.79H415.144L415.004 157.488C414.747 158.034 414.418 158.412 414.017 158.622C413.62 158.827 413.165 158.93 412.652 158.93ZM413.205 157.775C413.415 157.775 413.622 157.738 413.828 157.663C414.033 157.584 414.217 157.479 414.381 157.348C414.549 157.213 414.682 157.063 414.78 156.9C414.882 156.737 414.936 156.566 414.941 156.389V155.248L414.052 155.262C413.613 155.267 413.228 155.313 412.897 155.402C412.57 155.491 412.316 155.633 412.134 155.829C411.952 156.02 411.861 156.277 411.861 156.599C411.861 156.968 411.989 157.257 412.246 157.467C412.502 157.672 412.822 157.775 413.205 157.775ZM421.011 158.846C420.437 158.846 419.991 158.771 419.674 158.622C419.361 158.468 419.144 158.251 419.023 157.971C418.901 157.691 418.841 157.357 418.841 156.97V152.756H417.665V151.552H418.89L419.317 149.403H420.542V151.545H422.159V152.756H420.542L420.549 156.907C420.549 157.122 420.572 157.28 420.619 157.383C420.67 157.481 420.749 157.546 420.857 157.579C420.969 157.607 421.116 157.621 421.298 157.621H422.194V158.699C422.096 158.736 421.951 158.769 421.76 158.797C421.573 158.83 421.323 158.846 421.011 158.846ZM423.794 158.79V151.552H425.425V158.79H423.794ZM423.766 150.285V148.675H425.453V150.285H423.766ZM430.413 158.93C429.723 158.93 429.121 158.783 428.607 158.489C428.094 158.19 427.695 157.763 427.41 157.208C427.13 156.653 426.99 155.985 426.99 155.206C426.99 154.45 427.128 153.787 427.403 153.218C427.679 152.649 428.071 152.205 428.579 151.888C429.093 151.571 429.706 151.412 430.42 151.412C431.111 151.412 431.711 151.564 432.219 151.867C432.728 152.17 433.12 152.604 433.395 153.169C433.675 153.734 433.815 154.413 433.815 155.206C433.815 155.939 433.682 156.585 433.416 157.145C433.155 157.7 432.77 158.137 432.261 158.454C431.757 158.771 431.141 158.93 430.413 158.93ZM430.42 157.635C430.812 157.635 431.134 157.528 431.386 157.313C431.643 157.098 431.834 156.804 431.96 156.431C432.086 156.058 432.149 155.633 432.149 155.157C432.149 154.714 432.093 154.305 431.981 153.932C431.869 153.559 431.685 153.26 431.428 153.036C431.176 152.807 430.84 152.693 430.42 152.693C430.024 152.693 429.695 152.798 429.433 153.008C429.177 153.213 428.985 153.503 428.859 153.876C428.733 154.245 428.67 154.672 428.67 155.157C428.67 155.596 428.726 156.004 428.838 156.382C428.95 156.755 429.135 157.059 429.391 157.292C429.648 157.521 429.991 157.635 430.42 157.635ZM435.373 158.79V151.552H437.039V152.588C437.151 152.401 437.303 152.222 437.494 152.049C437.69 151.876 437.931 151.736 438.215 151.629C438.5 151.522 438.834 151.468 439.216 151.468C439.664 151.468 440.08 151.557 440.462 151.734C440.85 151.911 441.16 152.189 441.393 152.567C441.631 152.945 441.75 153.433 441.75 154.03V158.79H440.042V154.233C440.042 153.757 439.912 153.405 439.65 153.176C439.389 152.943 439.06 152.826 438.663 152.826C438.393 152.826 438.136 152.873 437.893 152.966C437.651 153.055 437.452 153.192 437.298 153.379C437.149 153.561 437.074 153.79 437.074 154.065V158.79H435.373Z" fill="white"/>
</g>
</g>
<g filter="url(#filter6_dd_16532_11240)">
<rect x="272.151" y="224.379" width="125" height="52.8225" rx="5.8768" fill="#080808" fill-opacity="0.3" shape-rendering="crispEdges"/>
<rect x="272.519" y="224.746" width="124.265" height="52.0879" rx="5.5095" stroke="url(#paint9_linear_16532_11240)" stroke-width="0.7346" shape-rendering="crispEdges"/>
<g filter="url(#filter7_di_16532_11240)">
<path d="M294.464 247.79V237.668H301.156L301.149 239.131H296.179V241.966H300.568V243.408H296.165V246.306L301.254 246.313V247.79H294.464ZM304.765 247.79L302.091 240.552H303.652L305.388 245.62H305.479L307.208 240.552H308.776L306.109 247.79H304.765ZM313.004 247.93C312.309 247.93 311.695 247.783 311.163 247.489C310.636 247.19 310.223 246.766 309.924 246.215C309.63 245.664 309.483 245.009 309.483 244.248C309.483 243.506 309.616 242.848 309.882 242.274C310.153 241.695 310.542 241.24 311.051 240.909C311.564 240.578 312.183 240.412 312.906 240.412C313.62 240.412 314.22 240.564 314.705 240.867C315.19 241.17 315.559 241.595 315.811 242.141C316.063 242.682 316.189 243.317 316.189 244.045V244.563H311.184C311.179 244.974 311.245 245.338 311.38 245.655C311.515 245.972 311.716 246.222 311.982 246.404C312.248 246.581 312.577 246.67 312.969 246.67C313.37 246.67 313.718 246.581 314.012 246.404C314.311 246.222 314.509 245.947 314.607 245.578H316.161C316.077 246.082 315.876 246.509 315.559 246.859C315.246 247.209 314.864 247.475 314.411 247.657C313.963 247.839 313.494 247.93 313.004 247.93ZM311.177 243.506H314.579C314.579 243.156 314.516 242.841 314.39 242.561C314.269 242.276 314.084 242.052 313.837 241.889C313.59 241.721 313.277 241.637 312.899 241.637C312.526 241.637 312.211 241.728 311.954 241.91C311.697 242.092 311.504 242.328 311.373 242.617C311.242 242.902 311.177 243.198 311.177 243.506ZM317.817 247.79V240.552H319.483V241.588C319.595 241.401 319.746 241.222 319.938 241.049C320.134 240.876 320.374 240.736 320.659 240.629C320.943 240.522 321.277 240.468 321.66 240.468C322.108 240.468 322.523 240.557 322.906 240.734C323.293 240.911 323.603 241.189 323.837 241.567C324.075 241.945 324.194 242.433 324.194 243.03V247.79H322.486V243.233C322.486 242.757 322.355 242.405 322.094 242.176C321.832 241.943 321.503 241.826 321.107 241.826C320.836 241.826 320.579 241.873 320.337 241.966C320.094 242.055 319.896 242.192 319.742 242.379C319.592 242.561 319.518 242.79 319.518 243.065V247.79H317.817ZM328.638 247.846C328.064 247.846 327.618 247.771 327.301 247.622C326.988 247.468 326.771 247.251 326.65 246.971C326.528 246.691 326.468 246.357 326.468 245.97V241.756H325.292V240.552H326.517L326.944 238.403H328.169V240.545H329.786V241.756H328.169L328.176 245.907C328.176 246.122 328.199 246.28 328.246 246.383C328.297 246.481 328.376 246.546 328.484 246.579C328.596 246.607 328.743 246.621 328.925 246.621H329.821V247.699C329.723 247.736 329.578 247.769 329.387 247.797C329.2 247.83 328.95 247.846 328.638 247.846ZM334.919 247.79V237.668C334.961 237.668 335.085 237.668 335.29 237.668C335.496 237.668 335.738 237.668 336.018 237.668C336.303 237.668 336.59 237.67 336.879 237.675C337.173 237.675 337.428 237.677 337.642 237.682C338.874 237.705 339.875 237.918 340.645 238.319C341.42 238.716 341.987 239.283 342.346 240.02C342.71 240.753 342.892 241.637 342.892 242.673C342.892 243.756 342.699 244.677 342.311 245.438C341.929 246.199 341.341 246.782 340.547 247.188C339.759 247.589 338.755 247.79 337.537 247.79H334.919ZM336.648 246.383H337.565C338.261 246.383 338.874 246.264 339.406 246.026C339.938 245.783 340.354 245.391 340.652 244.85C340.956 244.309 341.107 243.585 341.107 242.68C341.107 241.803 340.967 241.1 340.687 240.573C340.407 240.046 340.006 239.665 339.483 239.432C338.961 239.194 338.335 239.075 337.607 239.075H336.648V246.383ZM344.572 247.79V240.552H346.203V242.12C346.32 241.761 346.486 241.455 346.7 241.203C346.92 240.946 347.176 240.75 347.47 240.615C347.764 240.48 348.084 240.412 348.429 240.412C348.513 240.412 348.595 240.417 348.674 240.426C348.754 240.435 348.812 240.452 348.849 240.475V242.106C348.798 242.083 348.73 242.066 348.646 242.057C348.567 242.048 348.497 242.043 348.436 242.043C348.086 242.015 347.776 242.029 347.505 242.085C347.239 242.141 347.013 242.237 346.826 242.372C346.644 242.503 346.507 242.671 346.413 242.876C346.32 243.077 346.273 243.312 346.273 243.583V247.79H344.572ZM350.233 247.79V240.552H351.864V247.79H350.233ZM350.205 239.285V237.675H351.892V239.285H350.205ZM355.775 247.79L353.101 240.552H354.662L356.398 245.62H356.489L358.218 240.552H359.786L357.119 247.79H355.775ZM364.014 247.93C363.318 247.93 362.705 247.783 362.173 247.489C361.645 247.19 361.232 246.766 360.934 246.215C360.64 245.664 360.493 245.009 360.493 244.248C360.493 243.506 360.626 242.848 360.892 242.274C361.162 241.695 361.552 241.24 362.061 240.909C362.574 240.578 363.192 240.412 363.916 240.412C364.63 240.412 365.229 240.564 365.715 240.867C366.2 241.17 366.569 241.595 366.821 242.141C367.073 242.682 367.199 243.317 367.199 244.045V244.563H362.194C362.189 244.974 362.254 245.338 362.39 245.655C362.525 245.972 362.726 246.222 362.992 246.404C363.258 246.581 363.587 246.67 363.979 246.67C364.38 246.67 364.728 246.581 365.022 246.404C365.32 246.222 365.519 245.947 365.617 245.578H367.171C367.087 246.082 366.886 246.509 366.569 246.859C366.256 247.209 365.873 247.475 365.421 247.657C364.973 247.839 364.504 247.93 364.014 247.93ZM362.187 243.506H365.589C365.589 243.156 365.526 242.841 365.4 242.561C365.278 242.276 365.094 242.052 364.847 241.889C364.599 241.721 364.287 241.637 363.909 241.637C363.535 241.637 363.22 241.728 362.964 241.91C362.707 242.092 362.513 242.328 362.383 242.617C362.252 242.902 362.187 243.198 362.187 243.506ZM368.826 247.79V240.552H370.492V241.588C370.604 241.401 370.756 241.222 370.947 241.049C371.143 240.876 371.384 240.736 371.668 240.629C371.953 240.522 372.287 240.468 372.669 240.468C373.117 240.468 373.533 240.557 373.915 240.734C374.303 240.911 374.613 241.189 374.846 241.567C375.084 241.945 375.203 242.433 375.203 243.03V247.79H373.495V243.233C373.495 242.757 373.365 242.405 373.103 242.176C372.842 241.943 372.513 241.826 372.116 241.826C371.846 241.826 371.589 241.873 371.346 241.966C371.104 242.055 370.905 242.192 370.751 242.379C370.602 242.561 370.527 242.79 370.527 243.065V247.79H368.826ZM296.655 263.79L300.288 253.668H302.136L305.769 263.79H304.061L303.158 261.249H299.28L298.37 263.79H296.655ZM299.686 259.737H302.731L301.212 255.32L299.686 259.737ZM309.73 263.93C309.376 263.93 309.033 263.879 308.701 263.776C308.375 263.669 308.081 263.515 307.819 263.314C307.558 263.109 307.35 262.857 307.196 262.558C307.042 262.259 306.965 261.912 306.965 261.515V256.552H308.673V261.319C308.673 261.711 308.797 262.033 309.044 262.285C309.296 262.537 309.674 262.663 310.178 262.663C310.636 262.663 311.002 262.544 311.277 262.306C311.553 262.063 311.69 261.716 311.69 261.263V256.552H313.384V263.79H312.075L311.886 262.376C311.798 262.773 311.641 263.085 311.417 263.314C311.198 263.538 310.939 263.697 310.64 263.79C310.346 263.883 310.043 263.93 309.73 263.93ZM318.22 263.846C317.646 263.846 317.2 263.771 316.883 263.622C316.57 263.468 316.353 263.251 316.232 262.971C316.11 262.691 316.05 262.357 316.05 261.97V257.756H314.874V256.552H316.099L316.526 254.403H317.751V256.545H319.368V257.756H317.751L317.758 261.907C317.758 262.122 317.781 262.28 317.828 262.383C317.879 262.481 317.958 262.546 318.066 262.579C318.178 262.607 318.325 262.621 318.507 262.621H319.403V263.699C319.305 263.736 319.16 263.769 318.969 263.797C318.782 263.83 318.532 263.846 318.22 263.846ZM323.808 263.93C323.117 263.93 322.515 263.783 322.002 263.489C321.488 263.19 321.089 262.763 320.805 262.208C320.525 261.653 320.385 260.985 320.385 260.206C320.385 259.45 320.522 258.787 320.798 258.218C321.073 257.649 321.465 257.205 321.974 256.888C322.487 256.571 323.101 256.412 323.815 256.412C324.505 256.412 325.105 256.564 325.614 256.867C326.122 257.17 326.514 257.604 326.79 258.169C327.07 258.734 327.21 259.413 327.21 260.206C327.21 260.939 327.077 261.585 326.811 262.145C326.549 262.7 326.164 263.137 325.656 263.454C325.152 263.771 324.536 263.93 323.808 263.93ZM323.815 262.635C324.207 262.635 324.529 262.528 324.781 262.313C325.037 262.098 325.229 261.804 325.355 261.431C325.481 261.058 325.544 260.633 325.544 260.157C325.544 259.714 325.488 259.305 325.376 258.932C325.264 258.559 325.079 258.26 324.823 258.036C324.571 257.807 324.235 257.693 323.815 257.693C323.418 257.693 323.089 257.798 322.828 258.008C322.571 258.213 322.38 258.503 322.254 258.876C322.128 259.245 322.065 259.672 322.065 260.157C322.065 260.596 322.121 261.004 322.233 261.382C322.345 261.755 322.529 262.059 322.786 262.292C323.042 262.521 323.385 262.635 323.815 262.635ZM328.768 263.79V256.552H330.427V257.588C330.637 257.271 330.921 256.995 331.281 256.762C331.645 256.529 332.107 256.412 332.667 256.412C332.923 256.412 333.182 256.456 333.444 256.545C333.71 256.634 333.955 256.764 334.179 256.937C334.407 257.11 334.589 257.324 334.725 257.581C334.953 257.24 335.257 256.96 335.635 256.741C336.017 256.522 336.447 256.412 336.923 256.412C337.184 256.412 337.452 256.454 337.728 256.538C338.008 256.622 338.264 256.762 338.498 256.958C338.731 257.154 338.92 257.422 339.065 257.763C339.209 258.099 339.282 258.521 339.282 259.03V263.79H337.581V259.233C337.581 258.874 337.518 258.591 337.392 258.386C337.266 258.181 337.102 258.036 336.902 257.952C336.706 257.863 336.496 257.819 336.272 257.819C336.071 257.819 335.861 257.859 335.642 257.938C335.427 258.017 335.243 258.148 335.089 258.33C334.939 258.512 334.865 258.757 334.865 259.065V263.79H333.164V258.96C333.164 258.708 333.098 258.498 332.968 258.33C332.837 258.162 332.671 258.036 332.471 257.952C332.275 257.863 332.074 257.819 331.869 257.819C331.659 257.819 331.444 257.863 331.225 257.952C331.01 258.041 330.83 258.176 330.686 258.358C330.541 258.54 330.469 258.776 330.469 259.065V263.79H328.768ZM343.165 263.93C342.703 263.93 342.288 263.846 341.919 263.678C341.555 263.505 341.268 263.26 341.058 262.943C340.853 262.621 340.75 262.231 340.75 261.774C340.75 260.976 341.037 260.374 341.611 259.968C342.19 259.562 343.109 259.35 344.369 259.331L345.454 259.303V258.813C345.454 258.43 345.34 258.132 345.111 257.917C344.887 257.698 344.537 257.59 344.061 257.595C343.707 257.6 343.385 257.684 343.095 257.847C342.806 258.006 342.615 258.274 342.521 258.652H341.072C341.1 258.157 341.243 257.744 341.499 257.413C341.761 257.077 342.118 256.827 342.57 256.664C343.023 256.496 343.546 256.412 344.138 256.412C344.829 256.412 345.391 256.503 345.825 256.685C346.259 256.867 346.579 257.131 346.784 257.476C346.99 257.817 347.092 258.23 347.092 258.715V263.79H345.657L345.517 262.488C345.261 263.034 344.932 263.412 344.53 263.622C344.134 263.827 343.679 263.93 343.165 263.93ZM343.718 262.775C343.928 262.775 344.136 262.738 344.341 262.663C344.547 262.584 344.731 262.479 344.894 262.348C345.062 262.213 345.195 262.063 345.293 261.9C345.396 261.737 345.45 261.566 345.454 261.389V260.248L344.565 260.262C344.127 260.267 343.742 260.313 343.41 260.402C343.084 260.491 342.829 260.633 342.647 260.829C342.465 261.02 342.374 261.277 342.374 261.599C342.374 261.968 342.503 262.257 342.759 262.467C343.016 262.672 343.336 262.775 343.718 262.775ZM351.524 263.846C350.95 263.846 350.505 263.771 350.187 263.622C349.875 263.468 349.658 263.251 349.536 262.971C349.415 262.691 349.354 262.357 349.354 261.97V257.756H348.178V256.552H349.403L349.83 254.403H351.055V256.545H352.672V257.756H351.055L351.062 261.907C351.062 262.122 351.086 262.28 351.132 262.383C351.184 262.481 351.263 262.546 351.37 262.579C351.482 262.607 351.629 262.621 351.811 262.621H352.707V263.699C352.609 263.736 352.465 263.769 352.273 263.797C352.087 263.83 351.837 263.846 351.524 263.846ZM354.307 263.79V256.552H355.938V263.79H354.307ZM354.279 255.285V253.675H355.966V255.285H354.279ZM360.927 263.93C360.236 263.93 359.634 263.783 359.121 263.489C358.608 263.19 358.209 262.763 357.924 262.208C357.644 261.653 357.504 260.985 357.504 260.206C357.504 259.45 357.642 258.787 357.917 258.218C358.192 257.649 358.584 257.205 359.093 256.888C359.606 256.571 360.22 256.412 360.934 256.412C361.625 256.412 362.224 256.564 362.733 256.867C363.242 257.17 363.634 257.604 363.909 258.169C364.189 258.734 364.329 259.413 364.329 260.206C364.329 260.939 364.196 261.585 363.93 262.145C363.669 262.7 363.284 263.137 362.775 263.454C362.271 263.771 361.655 263.93 360.927 263.93ZM360.934 262.635C361.326 262.635 361.648 262.528 361.9 262.313C362.157 262.098 362.348 261.804 362.474 261.431C362.6 261.058 362.663 260.633 362.663 260.157C362.663 259.714 362.607 259.305 362.495 258.932C362.383 258.559 362.199 258.26 361.942 258.036C361.69 257.807 361.354 257.693 360.934 257.693C360.537 257.693 360.208 257.798 359.947 258.008C359.69 258.213 359.499 258.503 359.373 258.876C359.247 259.245 359.184 259.672 359.184 260.157C359.184 260.596 359.24 261.004 359.352 261.382C359.464 261.755 359.648 262.059 359.905 262.292C360.162 262.521 360.505 262.635 360.934 262.635ZM365.887 263.79V256.552H367.553V257.588C367.665 257.401 367.817 257.222 368.008 257.049C368.204 256.876 368.444 256.736 368.729 256.629C369.014 256.522 369.347 256.468 369.73 256.468C370.178 256.468 370.593 256.557 370.976 256.734C371.363 256.911 371.674 257.189 371.907 257.567C372.145 257.945 372.264 258.433 372.264 259.03V263.79H370.556V259.233C370.556 258.757 370.425 258.405 370.164 258.176C369.903 257.943 369.574 257.826 369.177 257.826C368.906 257.826 368.65 257.873 368.407 257.966C368.164 258.055 367.966 258.192 367.812 258.379C367.663 258.561 367.588 258.79 367.588 259.065V263.79H365.887Z" fill="white"/>
</g>
</g>
<g filter="url(#filter8_dd_16532_11240)">
<rect x="112.651" y="224.379" width="125" height="52.8225" rx="5.8768" fill="#080808" fill-opacity="0.3" shape-rendering="crispEdges"/>
<rect x="113.019" y="224.746" width="124.265" height="52.0879" rx="5.5095" stroke="url(#paint10_linear_16532_11240)" stroke-width="0.7346" shape-rendering="crispEdges"/>
<g filter="url(#filter9_di_16532_11240)">
<path d="M140.782 247.79V237.668C140.824 237.668 140.947 237.668 141.153 237.668C141.358 237.668 141.601 237.668 141.881 237.668C142.165 237.668 142.452 237.67 142.742 237.675C143.036 237.675 143.29 237.677 143.505 237.682C144.737 237.705 145.738 237.918 146.508 238.319C147.282 238.716 147.849 239.283 148.209 240.02C148.573 240.753 148.755 241.637 148.755 242.673C148.755 243.756 148.561 244.677 148.174 245.438C147.791 246.199 147.203 246.782 146.41 247.188C145.621 247.589 144.618 247.79 143.4 247.79H140.782ZM142.511 246.383H143.428C144.123 246.383 144.737 246.264 145.269 246.026C145.801 245.783 146.216 245.391 146.515 244.85C146.818 244.309 146.97 243.585 146.97 242.68C146.97 241.803 146.83 241.1 146.55 240.573C146.27 240.046 145.868 239.665 145.346 239.432C144.823 239.194 144.198 239.075 143.47 239.075H142.511V246.383ZM152.528 247.93C152.066 247.93 151.65 247.846 151.282 247.678C150.918 247.505 150.631 247.26 150.421 246.943C150.215 246.621 150.113 246.231 150.113 245.774C150.113 244.976 150.4 244.374 150.974 243.968C151.552 243.562 152.472 243.35 153.732 243.331L154.817 243.303V242.813C154.817 242.43 154.702 242.132 154.474 241.917C154.25 241.698 153.9 241.59 153.424 241.595C153.069 241.6 152.747 241.684 152.458 241.847C152.168 242.006 151.977 242.274 151.884 242.652H150.435C150.463 242.157 150.605 241.744 150.862 241.413C151.123 241.077 151.48 240.827 151.933 240.664C152.385 240.496 152.908 240.412 153.501 240.412C154.191 240.412 154.754 240.503 155.188 240.685C155.622 240.867 155.941 241.131 156.147 241.476C156.352 241.817 156.455 242.23 156.455 242.715V247.79H155.02L154.88 246.488C154.623 247.034 154.294 247.412 153.893 247.622C153.496 247.827 153.041 247.93 152.528 247.93ZM153.081 246.775C153.291 246.775 153.498 246.738 153.704 246.663C153.909 246.584 154.093 246.479 154.257 246.348C154.425 246.213 154.558 246.063 154.656 245.9C154.758 245.737 154.812 245.566 154.817 245.389V244.248L153.928 244.262C153.489 244.267 153.104 244.313 152.773 244.402C152.446 244.491 152.192 244.633 152.01 244.829C151.828 245.02 151.737 245.277 151.737 245.599C151.737 245.968 151.865 246.257 152.122 246.467C152.378 246.672 152.698 246.775 153.081 246.775ZM160.887 247.846C160.313 247.846 159.867 247.771 159.55 247.622C159.237 247.468 159.02 247.251 158.899 246.971C158.777 246.691 158.717 246.357 158.717 245.97V241.756H157.541V240.552H158.766L159.193 238.403H160.418V240.545H162.035V241.756H160.418L160.425 245.907C160.425 246.122 160.448 246.28 160.495 246.383C160.546 246.481 160.625 246.546 160.733 246.579C160.845 246.607 160.992 246.621 161.174 246.621H162.07V247.699C161.972 247.736 161.827 247.769 161.636 247.797C161.449 247.83 161.199 247.846 160.887 247.846ZM165.707 247.93C165.245 247.93 164.83 247.846 164.461 247.678C164.097 247.505 163.81 247.26 163.6 246.943C163.395 246.621 163.292 246.231 163.292 245.774C163.292 244.976 163.579 244.374 164.153 243.968C164.732 243.562 165.651 243.35 166.911 243.331L167.996 243.303V242.813C167.996 242.43 167.882 242.132 167.653 241.917C167.429 241.698 167.079 241.59 166.603 241.595C166.249 241.6 165.927 241.684 165.637 241.847C165.348 242.006 165.157 242.274 165.063 242.652H163.614C163.642 242.157 163.785 241.744 164.041 241.413C164.303 241.077 164.66 240.827 165.112 240.664C165.565 240.496 166.088 240.412 166.68 240.412C167.371 240.412 167.933 240.503 168.367 240.685C168.801 240.867 169.121 241.131 169.326 241.476C169.532 241.817 169.634 242.23 169.634 242.715V247.79H168.199L168.059 246.488C167.803 247.034 167.474 247.412 167.072 247.622C166.676 247.827 166.221 247.93 165.707 247.93ZM166.26 246.775C166.47 246.775 166.678 246.738 166.883 246.663C167.089 246.584 167.273 246.479 167.436 246.348C167.604 246.213 167.737 246.063 167.835 245.9C167.938 245.737 167.992 245.566 167.996 245.389V244.248L167.107 244.262C166.669 244.267 166.284 244.313 165.952 244.402C165.626 244.491 165.371 244.633 165.189 244.829C165.007 245.02 164.916 245.277 164.916 245.599C164.916 245.968 165.045 246.257 165.301 246.467C165.558 246.672 165.878 246.775 166.26 246.775ZM177.551 247.86C176.846 247.86 176.258 247.75 175.787 247.531C175.32 247.307 174.97 246.999 174.737 246.607C174.504 246.215 174.387 245.762 174.387 245.249C174.387 244.796 174.478 244.393 174.66 244.038C174.842 243.679 175.117 243.347 175.486 243.044C175.855 242.741 176.317 242.442 176.872 242.148C176.62 241.877 176.401 241.621 176.214 241.378C176.032 241.135 175.89 240.89 175.787 240.643C175.684 240.391 175.633 240.116 175.633 239.817C175.633 239.383 175.752 238.993 175.99 238.648C176.228 238.298 176.557 238.023 176.977 237.822C177.402 237.617 177.892 237.514 178.447 237.514C178.988 237.514 179.481 237.605 179.924 237.787C180.372 237.969 180.729 238.223 180.995 238.55C181.261 238.877 181.394 239.259 181.394 239.698C181.394 239.899 181.352 240.109 181.268 240.328C181.189 240.547 181.058 240.771 180.876 241C180.699 241.229 180.463 241.462 180.169 241.7C179.875 241.938 179.513 242.176 179.084 242.414L180.96 244.605C181.035 244.474 181.126 244.29 181.233 244.052C181.345 243.809 181.45 243.529 181.548 243.212C181.646 242.89 181.709 242.545 181.737 242.176H183.459C183.366 242.619 183.226 243.039 183.039 243.436C182.857 243.833 182.654 244.211 182.43 244.57C182.211 244.929 181.994 245.275 181.779 245.606L183.648 247.79H181.681L180.764 246.74C180.237 247.146 179.695 247.435 179.14 247.608C178.589 247.776 178.06 247.86 177.551 247.86ZM177.95 246.537C178.277 246.537 178.62 246.465 178.979 246.32C179.343 246.175 179.66 245.975 179.931 245.718L177.712 243.142C177.287 243.38 176.933 243.669 176.648 244.01C176.363 244.351 176.242 244.738 176.284 245.172C176.307 245.457 176.401 245.702 176.564 245.907C176.727 246.112 176.93 246.269 177.173 246.376C177.42 246.483 177.679 246.537 177.95 246.537ZM178.363 241.525C178.769 241.282 179.082 241.063 179.301 240.867C179.52 240.666 179.672 240.477 179.756 240.3C179.84 240.118 179.882 239.936 179.882 239.754C179.882 239.479 179.817 239.255 179.686 239.082C179.555 238.909 179.385 238.786 179.175 238.711C178.97 238.632 178.753 238.594 178.524 238.599C178.141 238.604 177.845 238.716 177.635 238.935C177.43 239.15 177.327 239.406 177.327 239.705C177.327 239.892 177.367 240.081 177.446 240.272C177.525 240.459 177.623 240.636 177.74 240.804C177.861 240.967 177.978 241.112 178.09 241.238L178.363 241.525ZM187.98 247.79L191.613 237.668H193.461L197.094 247.79H195.386L194.483 245.249H190.605L189.695 247.79H187.98ZM191.011 243.737H194.056L192.537 239.32L191.011 243.737ZM198.791 247.79V237.668H202.382C203.11 237.668 203.761 237.794 204.335 238.046C204.914 238.293 205.369 238.66 205.7 239.145C206.032 239.63 206.197 240.228 206.197 240.937C206.197 241.604 206.046 242.176 205.742 242.652C205.444 243.128 205.026 243.492 204.489 243.744C203.953 243.996 203.325 244.122 202.606 244.122H200.52V247.79H198.791ZM200.506 242.757H202.564C203.157 242.757 203.64 242.58 204.013 242.225C204.391 241.87 204.58 241.408 204.58 240.839C204.58 240.26 204.384 239.812 203.992 239.495C203.6 239.173 203.108 239.012 202.515 239.012H200.506V242.757ZM207.815 247.79V237.668H209.516V247.79H207.815ZM134.949 263.93C134.016 263.93 133.209 263.725 132.527 263.314C131.851 262.903 131.326 262.311 130.952 261.536C130.584 260.761 130.399 259.833 130.399 258.75C130.399 257.658 130.586 256.722 130.959 255.943C131.333 255.164 131.86 254.566 132.541 254.151C133.227 253.736 134.03 253.528 134.949 253.528C135.869 253.528 136.664 253.736 137.336 254.151C138.013 254.566 138.536 255.164 138.904 255.943C139.273 256.722 139.457 257.658 139.457 258.75C139.457 259.833 139.275 260.761 138.911 261.536C138.547 262.306 138.027 262.899 137.35 263.314C136.674 263.725 135.873 263.93 134.949 263.93ZM134.949 262.502C135.5 262.502 135.974 262.374 136.37 262.117C136.767 261.856 137.07 261.452 137.28 260.906C137.495 260.355 137.602 259.644 137.602 258.771C137.602 257.884 137.495 257.161 137.28 256.601C137.066 256.036 136.76 255.621 136.363 255.355C135.967 255.089 135.495 254.956 134.949 254.956C134.399 254.956 133.923 255.091 133.521 255.362C133.125 255.628 132.817 256.043 132.597 256.608C132.378 257.168 132.268 257.889 132.268 258.771C132.268 259.644 132.378 260.355 132.597 260.906C132.817 261.452 133.125 261.856 133.521 262.117C133.923 262.374 134.399 262.502 134.949 262.502ZM140.981 263.79V256.552H142.612V258.12C142.728 257.761 142.894 257.455 143.109 257.203C143.328 256.946 143.585 256.75 143.879 256.615C144.173 256.48 144.492 256.412 144.838 256.412C144.922 256.412 145.003 256.417 145.083 256.426C145.162 256.435 145.22 256.452 145.258 256.475V258.106C145.206 258.083 145.139 258.066 145.055 258.057C144.975 258.048 144.905 258.043 144.845 258.043C144.495 258.015 144.184 258.029 143.914 258.085C143.648 258.141 143.421 258.237 143.235 258.372C143.053 258.503 142.915 258.671 142.822 258.876C142.728 259.077 142.682 259.312 142.682 259.583V263.79H140.981ZM149.597 263.93C148.934 263.93 148.344 263.785 147.826 263.496C147.312 263.202 146.909 262.777 146.615 262.222C146.321 261.662 146.174 260.988 146.174 260.199C146.174 259.448 146.311 258.79 146.587 258.225C146.867 257.656 147.261 257.212 147.77 256.895C148.283 256.573 148.892 256.412 149.597 256.412C150.161 256.412 150.658 256.524 151.088 256.748C151.517 256.972 151.86 257.282 152.117 257.679C152.378 258.076 152.534 258.526 152.586 259.03H151.137C151.099 258.811 151.018 258.603 150.892 258.407C150.766 258.206 150.595 258.045 150.381 257.924C150.171 257.798 149.914 257.735 149.611 257.735C149.065 257.735 148.624 257.936 148.288 258.337C147.952 258.738 147.784 259.354 147.784 260.185C147.784 260.95 147.942 261.559 148.26 262.012C148.582 262.465 149.041 262.691 149.639 262.691C149.937 262.691 150.194 262.626 150.409 262.495C150.623 262.36 150.791 262.194 150.913 261.998C151.039 261.797 151.118 261.597 151.151 261.396H152.565C152.523 261.886 152.371 262.322 152.11 262.705C151.848 263.088 151.503 263.389 151.074 263.608C150.644 263.823 150.152 263.93 149.597 263.93ZM154.133 263.79V253.388H155.813V257.602C155.93 257.42 156.084 257.245 156.275 257.077C156.466 256.904 156.7 256.764 156.975 256.657C157.255 256.545 157.589 256.489 157.976 256.489C158.438 256.489 158.86 256.578 159.243 256.755C159.626 256.932 159.931 257.189 160.16 257.525C160.389 257.856 160.503 258.253 160.503 258.715V263.79H158.795V259.002C158.795 258.629 158.662 258.339 158.396 258.134C158.135 257.929 157.803 257.826 157.402 257.826C157.136 257.826 156.882 257.873 156.639 257.966C156.396 258.059 156.2 258.199 156.051 258.386C155.906 258.568 155.834 258.797 155.834 259.072V263.79H154.133ZM165.521 263.93C164.826 263.93 164.212 263.783 163.68 263.489C163.153 263.19 162.74 262.766 162.441 262.215C162.147 261.664 162 261.009 162 260.248C162 259.506 162.133 258.848 162.399 258.274C162.67 257.695 163.06 257.24 163.568 256.909C164.082 256.578 164.7 256.412 165.423 256.412C166.137 256.412 166.737 256.564 167.222 256.867C167.708 257.17 168.076 257.595 168.328 258.141C168.58 258.682 168.706 259.317 168.706 260.045V260.563H163.701C163.697 260.974 163.762 261.338 163.897 261.655C164.033 261.972 164.233 262.222 164.499 262.404C164.765 262.581 165.094 262.67 165.486 262.67C165.888 262.67 166.235 262.581 166.529 262.404C166.828 262.222 167.026 261.947 167.124 261.578H168.678C168.594 262.082 168.394 262.509 168.076 262.859C167.764 263.209 167.381 263.475 166.928 263.657C166.48 263.839 166.011 263.93 165.521 263.93ZM163.694 259.506H167.096C167.096 259.156 167.033 258.841 166.907 258.561C166.786 258.276 166.602 258.052 166.354 257.889C166.107 257.721 165.794 257.637 165.416 257.637C165.043 257.637 164.728 257.728 164.471 257.91C164.215 258.092 164.021 258.328 163.89 258.617C163.76 258.902 163.694 259.198 163.694 259.506ZM173.079 263.93C172.575 263.93 172.096 263.851 171.644 263.692C171.196 263.529 170.818 263.274 170.51 262.929C170.206 262.584 170.015 262.138 169.936 261.592H171.434C171.499 261.858 171.613 262.075 171.777 262.243C171.945 262.411 172.141 262.535 172.365 262.614C172.593 262.689 172.829 262.726 173.072 262.726C173.506 262.726 173.856 262.651 174.122 262.502C174.388 262.353 174.521 262.122 174.521 261.809C174.521 261.58 174.446 261.398 174.297 261.263C174.152 261.128 173.914 261.025 173.583 260.955L172.211 260.64C171.595 260.505 171.102 260.281 170.734 259.968C170.365 259.655 170.178 259.214 170.174 258.645C170.169 258.216 170.276 257.833 170.496 257.497C170.715 257.161 171.042 256.897 171.476 256.706C171.91 256.51 172.444 256.412 173.079 256.412C173.923 256.412 174.6 256.601 175.109 256.979C175.622 257.352 175.886 257.887 175.9 258.582H174.451C174.399 258.269 174.252 258.027 174.01 257.854C173.767 257.677 173.452 257.588 173.065 257.588C172.663 257.588 172.334 257.665 172.078 257.819C171.821 257.973 171.693 258.209 171.693 258.526C171.693 258.745 171.788 258.918 171.98 259.044C172.176 259.17 172.472 259.277 172.869 259.366L174.171 259.681C174.544 259.774 174.85 259.9 175.088 260.059C175.326 260.218 175.51 260.393 175.641 260.584C175.776 260.771 175.869 260.964 175.921 261.165C175.977 261.361 176.005 261.543 176.005 261.711C176.005 262.178 175.883 262.577 175.641 262.908C175.403 263.235 175.064 263.487 174.626 263.664C174.192 263.841 173.676 263.93 173.079 263.93ZM180.376 263.846C179.802 263.846 179.356 263.771 179.039 263.622C178.726 263.468 178.509 263.251 178.388 262.971C178.267 262.691 178.206 262.357 178.206 261.97V257.756H177.03V256.552H178.255L178.682 254.403H179.907V256.545H181.524V257.756H179.907L179.914 261.907C179.914 262.122 179.937 262.28 179.984 262.383C180.035 262.481 180.115 262.546 180.222 262.579C180.334 262.607 180.481 262.621 180.663 262.621H181.559V263.699C181.461 263.736 181.316 263.769 181.125 263.797C180.938 263.83 180.689 263.846 180.376 263.846ZM183.131 263.79V256.552H184.762V258.12C184.879 257.761 185.044 257.455 185.259 257.203C185.478 256.946 185.735 256.75 186.029 256.615C186.323 256.48 186.643 256.412 186.988 256.412C187.072 256.412 187.154 256.417 187.233 256.426C187.312 256.435 187.371 256.452 187.408 256.475V258.106C187.357 258.083 187.289 258.066 187.205 258.057C187.126 258.048 187.056 258.043 186.995 258.043C186.645 258.015 186.335 258.029 186.064 258.085C185.798 258.141 185.572 258.237 185.385 258.372C185.203 258.503 185.065 258.671 184.972 258.876C184.879 259.077 184.832 259.312 184.832 259.583V263.79H183.131ZM190.652 263.93C190.19 263.93 189.774 263.846 189.406 263.678C189.042 263.505 188.755 263.26 188.545 262.943C188.339 262.621 188.237 262.231 188.237 261.774C188.237 260.976 188.524 260.374 189.098 259.968C189.676 259.562 190.596 259.35 191.856 259.331L192.941 259.303V258.813C192.941 258.43 192.826 258.132 192.598 257.917C192.374 257.698 192.024 257.59 191.548 257.595C191.193 257.6 190.871 257.684 190.582 257.847C190.292 258.006 190.101 258.274 190.008 258.652H188.559C188.587 258.157 188.729 257.744 188.986 257.413C189.247 257.077 189.604 256.827 190.057 256.664C190.509 256.496 191.032 256.412 191.625 256.412C192.315 256.412 192.878 256.503 193.312 256.685C193.746 256.867 194.065 257.131 194.271 257.476C194.476 257.817 194.579 258.23 194.579 258.715V263.79H193.144L193.004 262.488C192.747 263.034 192.418 263.412 192.017 263.622C191.62 263.827 191.165 263.93 190.652 263.93ZM191.205 262.775C191.415 262.775 191.622 262.738 191.828 262.663C192.033 262.584 192.217 262.479 192.381 262.348C192.549 262.213 192.682 262.063 192.78 261.9C192.882 261.737 192.936 261.566 192.941 261.389V260.248L192.052 260.262C191.613 260.267 191.228 260.313 190.897 260.402C190.57 260.491 190.316 260.633 190.134 260.829C189.952 261.02 189.861 261.277 189.861 261.599C189.861 261.968 189.989 262.257 190.246 262.467C190.502 262.672 190.822 262.775 191.205 262.775ZM199.011 263.846C198.437 263.846 197.991 263.771 197.674 263.622C197.361 263.468 197.144 263.251 197.023 262.971C196.901 262.691 196.841 262.357 196.841 261.97V257.756H195.665V256.552H196.89L197.317 254.403H198.542V256.545H200.159V257.756H198.542L198.549 261.907C198.549 262.122 198.572 262.28 198.619 262.383C198.67 262.481 198.749 262.546 198.857 262.579C198.969 262.607 199.116 262.621 199.298 262.621H200.194V263.699C200.096 263.736 199.951 263.769 199.76 263.797C199.573 263.83 199.323 263.846 199.011 263.846ZM201.794 263.79V256.552H203.425V263.79H201.794ZM201.766 255.285V253.675H203.453V255.285H201.766ZM208.413 263.93C207.723 263.93 207.121 263.783 206.607 263.489C206.094 263.19 205.695 262.763 205.41 262.208C205.13 261.653 204.99 260.985 204.99 260.206C204.99 259.45 205.128 258.787 205.403 258.218C205.679 257.649 206.071 257.205 206.579 256.888C207.093 256.571 207.706 256.412 208.42 256.412C209.111 256.412 209.711 256.564 210.219 256.867C210.728 257.17 211.12 257.604 211.395 258.169C211.675 258.734 211.815 259.413 211.815 260.206C211.815 260.939 211.682 261.585 211.416 262.145C211.155 262.7 210.77 263.137 210.261 263.454C209.757 263.771 209.141 263.93 208.413 263.93ZM208.42 262.635C208.812 262.635 209.134 262.528 209.386 262.313C209.643 262.098 209.834 261.804 209.96 261.431C210.086 261.058 210.149 260.633 210.149 260.157C210.149 259.714 210.093 259.305 209.981 258.932C209.869 258.559 209.685 258.26 209.428 258.036C209.176 257.807 208.84 257.693 208.42 257.693C208.024 257.693 207.695 257.798 207.433 258.008C207.177 258.213 206.985 258.503 206.859 258.876C206.733 259.245 206.67 259.672 206.67 260.157C206.67 260.596 206.726 261.004 206.838 261.382C206.95 261.755 207.135 262.059 207.391 262.292C207.648 262.521 207.991 262.635 208.42 262.635ZM213.373 263.79V256.552H215.039V257.588C215.151 257.401 215.303 257.222 215.494 257.049C215.69 256.876 215.931 256.736 216.215 256.629C216.5 256.522 216.834 256.468 217.216 256.468C217.664 256.468 218.08 256.557 218.462 256.734C218.85 256.911 219.16 257.189 219.393 257.567C219.631 257.945 219.75 258.433 219.75 259.03V263.79H218.042V259.233C218.042 258.757 217.912 258.405 217.65 258.176C217.389 257.943 217.06 257.826 216.663 257.826C216.393 257.826 216.136 257.873 215.893 257.966C215.651 258.055 215.452 258.192 215.298 258.379C215.149 258.561 215.074 258.79 215.074 259.065V263.79H213.373Z" fill="white"/>
</g>
</g>
<g filter="url(#filter10_dd_16532_11240)">
<rect x="51.9697" y="119.379" width="125" height="52.8225" rx="5.8768" fill="#080808" fill-opacity="0.3" shape-rendering="crispEdges"/>
<rect x="52.337" y="119.746" width="124.265" height="52.0879" rx="5.5095" stroke="url(#paint11_linear_16532_11240)" stroke-width="0.7346" shape-rendering="crispEdges"/>
<g filter="url(#filter11_di_16532_11240)">
<path d="M88.1801 142.79V132.668H91.6591C92.9424 132.668 93.9014 132.897 94.5361 133.354C95.1754 133.807 95.4951 134.46 95.4951 135.314C95.4951 135.832 95.3621 136.28 95.0961 136.658C94.8301 137.036 94.3611 137.356 93.6891 137.617C94.0997 137.715 94.4381 137.85 94.7041 138.023C94.9747 138.191 95.1847 138.385 95.3341 138.604C95.4834 138.819 95.5884 139.05 95.6491 139.297C95.7097 139.544 95.7401 139.799 95.7401 140.06C95.7401 140.984 95.4181 141.67 94.7741 142.118C94.1347 142.566 93.1431 142.79 91.7991 142.79H88.1801ZM89.8811 141.432H91.8201C92.5387 141.432 93.0824 141.304 93.4511 141.047C93.8244 140.786 94.0111 140.41 94.0111 139.92C94.0111 139.565 93.9201 139.274 93.7381 139.045C93.5561 138.812 93.3087 138.639 92.9961 138.527C92.6834 138.415 92.3334 138.359 91.9461 138.359H89.8811V141.432ZM89.8811 136.98H91.9461C92.1841 136.98 92.4151 136.954 92.6391 136.903C92.8631 136.852 93.0661 136.77 93.2481 136.658C93.4301 136.546 93.5747 136.397 93.6821 136.21C93.7941 136.023 93.8501 135.797 93.8501 135.531C93.8501 135.022 93.6564 134.644 93.2691 134.397C92.8864 134.145 92.3941 134.019 91.7921 134.019H89.8811V136.98ZM99.5024 142.93C99.0404 142.93 98.625 142.846 98.2564 142.678C97.8924 142.505 97.6054 142.26 97.3954 141.943C97.19 141.621 97.0874 141.231 97.0874 140.774C97.0874 139.976 97.3744 139.374 97.9484 138.968C98.527 138.562 99.4464 138.35 100.706 138.331L101.791 138.303V137.813C101.791 137.43 101.677 137.132 101.448 136.917C101.224 136.698 100.874 136.59 100.398 136.595C100.044 136.6 99.7217 136.684 99.4324 136.847C99.143 137.006 98.9517 137.274 98.8584 137.652H97.4094C97.4374 137.157 97.5797 136.744 97.8364 136.413C98.0977 136.077 98.4547 135.827 98.9074 135.664C99.36 135.496 99.8827 135.412 100.475 135.412C101.166 135.412 101.728 135.503 102.162 135.685C102.596 135.867 102.916 136.131 103.121 136.476C103.327 136.817 103.429 137.23 103.429 137.715V142.79H101.994L101.854 141.488C101.598 142.034 101.269 142.412 100.867 142.622C100.471 142.827 100.016 142.93 99.5024 142.93ZM100.055 141.775C100.265 141.775 100.473 141.738 100.678 141.663C100.884 141.584 101.068 141.479 101.231 141.348C101.399 141.213 101.532 141.063 101.63 140.9C101.733 140.737 101.787 140.566 101.791 140.389V139.248L100.902 139.262C100.464 139.267 100.079 139.313 99.7474 139.402C99.4207 139.491 99.1664 139.633 98.9844 139.829C98.8024 140.02 98.7114 140.277 98.7114 140.599C98.7114 140.968 98.8397 141.257 99.0964 141.467C99.353 141.672 99.6727 141.775 100.055 141.775ZM107.861 142.846C107.287 142.846 106.842 142.771 106.524 142.622C106.212 142.468 105.995 142.251 105.873 141.971C105.752 141.691 105.691 141.357 105.691 140.97V136.756H104.515V135.552H105.74L106.167 133.403H107.392V135.545H109.009V136.756H107.392L107.399 140.907C107.399 141.122 107.423 141.28 107.469 141.383C107.521 141.481 107.6 141.546 107.707 141.579C107.819 141.607 107.966 141.621 108.148 141.621H109.044V142.699C108.946 142.736 108.802 142.769 108.61 142.797C108.424 142.83 108.174 142.846 107.861 142.846ZM113.449 142.93C112.787 142.93 112.196 142.785 111.678 142.496C111.165 142.202 110.761 141.777 110.467 141.222C110.173 140.662 110.026 139.988 110.026 139.199C110.026 138.448 110.164 137.79 110.439 137.225C110.719 136.656 111.114 136.212 111.622 135.895C112.136 135.573 112.745 135.412 113.449 135.412C114.014 135.412 114.511 135.524 114.94 135.748C115.37 135.972 115.713 136.282 115.969 136.679C116.231 137.076 116.387 137.526 116.438 138.03H114.989C114.952 137.811 114.87 137.603 114.744 137.407C114.618 137.206 114.448 137.045 114.233 136.924C114.023 136.798 113.767 136.735 113.463 136.735C112.917 136.735 112.476 136.936 112.14 137.337C111.804 137.738 111.636 138.354 111.636 139.185C111.636 139.95 111.795 140.559 112.112 141.012C112.434 141.465 112.894 141.691 113.491 141.691C113.79 141.691 114.047 141.626 114.261 141.495C114.476 141.36 114.644 141.194 114.765 140.998C114.891 140.797 114.971 140.597 115.003 140.396H116.417C116.375 140.886 116.224 141.322 115.962 141.705C115.701 142.088 115.356 142.389 114.926 142.608C114.497 142.823 114.005 142.93 113.449 142.93ZM117.986 142.79V132.388H119.666V136.602C119.782 136.42 119.936 136.245 120.128 136.077C120.319 135.904 120.552 135.764 120.828 135.657C121.108 135.545 121.441 135.489 121.829 135.489C122.291 135.489 122.713 135.578 123.096 135.755C123.478 135.932 123.784 136.189 124.013 136.525C124.241 136.856 124.356 137.253 124.356 137.715V142.79H122.648V138.002C122.648 137.629 122.515 137.339 122.249 137.134C121.987 136.929 121.656 136.826 121.255 136.826C120.989 136.826 120.734 136.873 120.492 136.966C120.249 137.059 120.053 137.199 119.904 137.386C119.759 137.568 119.687 137.797 119.687 138.072V142.79H117.986ZM132.358 142.93C131.667 142.93 131.065 142.783 130.552 142.489C130.038 142.19 129.639 141.763 129.355 141.208C129.075 140.653 128.935 139.985 128.935 139.206C128.935 138.45 129.072 137.787 129.348 137.218C129.623 136.649 130.015 136.205 130.524 135.888C131.037 135.571 131.651 135.412 132.365 135.412C133.055 135.412 133.655 135.564 134.164 135.867C134.672 136.17 135.064 136.604 135.34 137.169C135.62 137.734 135.76 138.413 135.76 139.206C135.76 139.939 135.627 140.585 135.361 141.145C135.099 141.7 134.714 142.137 134.206 142.454C133.702 142.771 133.086 142.93 132.358 142.93ZM132.365 141.635C132.757 141.635 133.079 141.528 133.331 141.313C133.587 141.098 133.779 140.804 133.905 140.431C134.031 140.058 134.094 139.633 134.094 139.157C134.094 138.714 134.038 138.305 133.926 137.932C133.814 137.559 133.629 137.26 133.373 137.036C133.121 136.807 132.785 136.693 132.365 136.693C131.968 136.693 131.639 136.798 131.378 137.008C131.121 137.213 130.93 137.503 130.804 137.876C130.678 138.245 130.615 138.672 130.615 139.157C130.615 139.596 130.671 140.004 130.783 140.382C130.895 140.755 131.079 141.059 131.336 141.292C131.592 141.521 131.935 141.635 132.365 141.635ZM137.318 142.79V135.552H138.949V137.12C139.065 136.761 139.231 136.455 139.446 136.203C139.665 135.946 139.922 135.75 140.216 135.615C140.51 135.48 140.829 135.412 141.175 135.412C141.259 135.412 141.34 135.417 141.42 135.426C141.499 135.435 141.557 135.452 141.595 135.475V137.106C141.543 137.083 141.476 137.066 141.392 137.057C141.312 137.048 141.242 137.043 141.182 137.043C140.832 137.015 140.521 137.029 140.251 137.085C139.985 137.141 139.758 137.237 139.572 137.372C139.39 137.503 139.252 137.671 139.159 137.876C139.065 138.077 139.019 138.312 139.019 138.583V142.79H137.318ZM68.5131 158.79V148.668H72.6221C73.3968 148.668 74.0338 148.789 74.5331 149.032C75.0371 149.27 75.4104 149.608 75.6531 150.047C75.8958 150.481 76.0171 150.99 76.0171 151.573C76.0171 152.114 75.9284 152.569 75.7511 152.938C75.5738 153.302 75.3428 153.601 75.0581 153.834C74.7781 154.063 74.4771 154.249 74.1551 154.394L76.0871 158.79H74.3091L72.5661 154.681H70.2141V158.79H68.5131ZM70.2141 153.33H72.2371C72.8811 153.33 73.3828 153.181 73.7421 152.882C74.1061 152.583 74.2881 152.168 74.2881 151.636C74.2881 151.113 74.1201 150.71 73.7841 150.425C73.4481 150.14 73.0048 149.998 72.4541 149.998H70.2141V153.33ZM80.8183 158.93C80.123 158.93 79.5093 158.783 78.9773 158.489C78.45 158.19 78.037 157.766 77.7383 157.215C77.4443 156.664 77.2973 156.009 77.2973 155.248C77.2973 154.506 77.4303 153.848 77.6963 153.274C77.967 152.695 78.3567 152.24 78.8653 151.909C79.3787 151.578 79.997 151.412 80.7203 151.412C81.4343 151.412 82.034 151.564 82.5193 151.867C83.0047 152.17 83.3733 152.595 83.6253 153.141C83.8773 153.682 84.0033 154.317 84.0033 155.045V155.563H78.9983C78.9937 155.974 79.059 156.338 79.1943 156.655C79.3297 156.972 79.5303 157.222 79.7963 157.404C80.0623 157.581 80.3913 157.67 80.7833 157.67C81.1847 157.67 81.5323 157.581 81.8263 157.404C82.125 157.222 82.3233 156.947 82.4213 156.578H83.9753C83.8913 157.082 83.6907 157.509 83.3733 157.859C83.0607 158.209 82.678 158.475 82.2253 158.657C81.7773 158.839 81.3083 158.93 80.8183 158.93ZM78.9913 154.506H82.3933C82.3933 154.156 82.3303 153.841 82.2043 153.561C82.083 153.276 81.8987 153.052 81.6513 152.889C81.404 152.721 81.0913 152.637 80.7133 152.637C80.34 152.637 80.025 152.728 79.7683 152.91C79.5117 153.092 79.318 153.328 79.1873 153.617C79.0567 153.902 78.9913 154.198 78.9913 154.506ZM87.6557 158.93C87.1937 158.93 86.7783 158.846 86.4097 158.678C86.0457 158.505 85.7587 158.26 85.5487 157.943C85.3433 157.621 85.2407 157.231 85.2407 156.774C85.2407 155.976 85.5277 155.374 86.1017 154.968C86.6803 154.562 87.5997 154.35 88.8597 154.331L89.9447 154.303V153.813C89.9447 153.43 89.8303 153.132 89.6017 152.917C89.3777 152.698 89.0277 152.59 88.5517 152.595C88.197 152.6 87.875 152.684 87.5857 152.847C87.2963 153.006 87.105 153.274 87.0117 153.652H85.5627C85.5907 153.157 85.733 152.744 85.9897 152.413C86.251 152.077 86.608 151.827 87.0607 151.664C87.5133 151.496 88.036 151.412 88.6287 151.412C89.3193 151.412 89.8817 151.503 90.3157 151.685C90.7497 151.867 91.0693 152.131 91.2747 152.476C91.48 152.817 91.5827 153.23 91.5827 153.715V158.79H90.1477L90.0077 157.488C89.751 158.034 89.422 158.412 89.0207 158.622C88.624 158.827 88.169 158.93 87.6557 158.93ZM88.2087 157.775C88.4187 157.775 88.6263 157.738 88.8317 157.663C89.037 157.584 89.2213 157.479 89.3847 157.348C89.5527 157.213 89.6857 157.063 89.7837 156.9C89.8863 156.737 89.94 156.566 89.9447 156.389V155.248L89.0557 155.262C88.617 155.267 88.232 155.313 87.9007 155.402C87.574 155.491 87.3197 155.633 87.1377 155.829C86.9557 156.02 86.8647 156.277 86.8647 156.599C86.8647 156.968 86.993 157.257 87.2497 157.467C87.5063 157.672 87.826 157.775 88.2087 157.775ZM95.4827 158.895C95.016 158.895 94.6427 158.837 94.3627 158.72C94.0827 158.603 93.8727 158.447 93.7327 158.251C93.5927 158.055 93.5017 157.836 93.4597 157.593C93.4177 157.346 93.3967 157.094 93.3967 156.837V148.388H95.0627V156.641C95.0627 156.954 95.1257 157.196 95.2517 157.369C95.3823 157.542 95.5923 157.642 95.8817 157.67L96.2457 157.684V158.755C96.1197 158.792 95.9913 158.825 95.8607 158.853C95.73 158.881 95.604 158.895 95.4827 158.895ZM97.4956 155.822V154.548L101.192 154.541V155.815L97.4956 155.822ZM103.709 158.79V150.201H100.559V148.668H108.455V150.201H105.417V158.79H103.709ZM109.749 158.79V151.552H111.38V158.79H109.749ZM109.721 150.285V148.675H111.408V150.285H109.721ZM113.399 158.79V151.552H115.058V152.588C115.268 152.271 115.552 151.995 115.912 151.762C116.276 151.529 116.738 151.412 117.298 151.412C117.554 151.412 117.813 151.456 118.075 151.545C118.341 151.634 118.586 151.764 118.81 151.937C119.038 152.11 119.22 152.324 119.356 152.581C119.584 152.24 119.888 151.96 120.266 151.741C120.648 151.522 121.078 151.412 121.554 151.412C121.815 151.412 122.083 151.454 122.359 151.538C122.639 151.622 122.895 151.762 123.129 151.958C123.362 152.154 123.551 152.422 123.696 152.763C123.84 153.099 123.913 153.521 123.913 154.03V158.79H122.212V154.233C122.212 153.874 122.149 153.591 122.023 153.386C121.897 153.181 121.733 153.036 121.533 152.952C121.337 152.863 121.127 152.819 120.903 152.819C120.702 152.819 120.492 152.859 120.273 152.938C120.058 153.017 119.874 153.148 119.72 153.33C119.57 153.512 119.496 153.757 119.496 154.065V158.79H117.795V153.96C117.795 153.708 117.729 153.498 117.599 153.33C117.468 153.162 117.302 153.036 117.102 152.952C116.906 152.863 116.705 152.819 116.5 152.819C116.29 152.819 116.075 152.863 115.856 152.952C115.641 153.041 115.461 153.176 115.317 153.358C115.172 153.54 115.1 153.776 115.1 154.065V158.79H113.399ZM128.943 158.93C128.248 158.93 127.634 158.783 127.102 158.489C126.575 158.19 126.162 157.766 125.863 157.215C125.569 156.664 125.422 156.009 125.422 155.248C125.422 154.506 125.555 153.848 125.821 153.274C126.092 152.695 126.482 152.24 126.99 151.909C127.504 151.578 128.122 151.412 128.845 151.412C129.559 151.412 130.159 151.564 130.644 151.867C131.13 152.17 131.498 152.595 131.75 153.141C132.002 153.682 132.128 154.317 132.128 155.045V155.563H127.123C127.119 155.974 127.184 156.338 127.319 156.655C127.455 156.972 127.655 157.222 127.921 157.404C128.187 157.581 128.516 157.67 128.908 157.67C129.31 157.67 129.657 157.581 129.951 157.404C130.25 157.222 130.448 156.947 130.546 156.578H132.1C132.016 157.082 131.816 157.509 131.498 157.859C131.186 158.209 130.803 158.475 130.35 158.657C129.902 158.839 129.433 158.93 128.943 158.93ZM127.116 154.506H130.518C130.518 154.156 130.455 153.841 130.329 153.561C130.208 153.276 130.024 153.052 129.776 152.889C129.529 152.721 129.216 152.637 128.838 152.637C128.465 152.637 128.15 152.728 127.893 152.91C127.637 153.092 127.443 153.328 127.312 153.617C127.182 153.902 127.116 154.198 127.116 154.506ZM137.214 158.79V148.668H143.906L143.899 150.131H138.929V152.966H143.318V154.408H138.915V157.306L144.004 157.313V158.79H137.214ZM148.525 158.79V150.201H145.375V148.668H153.271V150.201H150.233V158.79H148.525ZM154.796 158.79L154.803 148.668H156.525V157.32H161.096V158.79H154.796Z" fill="white"/>
</g>
</g>
<defs>
<filter id="filter0_d_16532_11240" x="192.404" y="114.615" width="122.314" height="99.1157" filterUnits="userSpaceOnUse" color-interpolation-filters="sRGB">
<feFlood flood-opacity="0" result="BackgroundImageFix"/>
<feColorMatrix in="SourceAlpha" type="matrix" values="0 0 0 0 0 0 0 0 0 0 0 0 0 0 0 0 0 0 127 0" result="hardAlpha"/>
<feOffset dy="4"/>
<feGaussianBlur stdDeviation="2"/>
<feComposite in2="hardAlpha" operator="out"/>
<feColorMatrix type="matrix" values="0 0 0 0 0 0 0 0 0 0 0 0 0 0 0 0 0 0 0.25 0"/>
<feBlend mode="normal" in2="BackgroundImageFix" result="effect1_dropShadow_16532_11240"/>
<feBlend mode="normal" in="SourceGraphic" in2="effect1_dropShadow_16532_11240" result="shape"/>
</filter>
<filter id="filter1_d_16532_11240" x="195.855" y="123.379" width="115.414" height="116.414" filterUnits="userSpaceOnUse" color-interpolation-filters="sRGB">
<feFlood flood-opacity="0" result="BackgroundImageFix"/>
<feColorMatrix in="SourceAlpha" type="matrix" values="0 0 0 0 0 0 0 0 0 0 0 0 0 0 0 0 0 0 127 0" result="hardAlpha"/>
<feOffset dy="21.7069"/>
<feGaussianBlur stdDeviation="10.8534"/>
<feComposite in2="hardAlpha" operator="out"/>
<feColorMatrix type="matrix" values="0 0 0 0 0 0 0 0 0 0 0 0 0 0 0 0 0 0 0.25 0"/>
<feBlend mode="normal" in2="BackgroundImageFix" result="effect1_dropShadow_16532_11240"/>
<feBlend mode="normal" in="SourceGraphic" in2="effect1_dropShadow_16532_11240" result="shape"/>
</filter>
<filter id="filter2_dd_16532_11240" x="175.258" y="24.1125" width="160.786" height="88.6084" filterUnits="userSpaceOnUse" color-interpolation-filters="sRGB">
<feFlood flood-opacity="0" result="BackgroundImageFix"/>
<feColorMatrix in="SourceAlpha" type="matrix" values="0 0 0 0 0 0 0 0 0 0 0 0 0 0 0 0 0 0 127 0" result="hardAlpha"/>
<feOffset dy="1.62664"/>
<feGaussianBlur stdDeviation="8.94654"/>
<feComposite in2="hardAlpha" operator="out"/>
<feColorMatrix type="matrix" values="0 0 0 0 0.463294 0 0 0 0 0.487507 0 0 0 0 0.644889 0 0 0 0.55 0"/>
<feBlend mode="normal" in2="BackgroundImageFix" result="effect1_dropShadow_16532_11240"/>
<feColorMatrix in="SourceAlpha" type="matrix" values="0 0 0 0 0 0 0 0 0 0 0 0 0 0 0 0 0 0 127 0" result="hardAlpha"/>
<feOffset dy="4"/>
<feGaussianBlur stdDeviation="2"/>
<feComposite in2="hardAlpha" operator="out"/>
<feColorMatrix type="matrix" values="0 0 0 0 0 0 0 0 0 0 0 0 0 0 0 0 0 0 0.25 0"/>
<feBlend mode="normal" in2="effect1_dropShadow_16532_11240" result="effect2_dropShadow_16532_11240"/>
<feBlend mode="normal" in="SourceGraphic" in2="effect2_dropShadow_16532_11240" result="shape"/>
</filter>
<filter id="filter3_di_16532_11240" x="199.371" y="38.5642" width="112.176" height="62.8293" filterUnits="userSpaceOnUse" color-interpolation-filters="sRGB">
<feFlood flood-opacity="0" result="BackgroundImageFix"/>
<feColorMatrix in="SourceAlpha" type="matrix" values="0 0 0 0 0 0 0 0 0 0 0 0 0 0 0 0 0 0 127 0" result="hardAlpha"/>
<feOffset dy="3.17975"/>
<feGaussianBlur stdDeviation="9.14178"/>
<feComposite in2="hardAlpha" operator="out"/>
<feColorMatrix type="matrix" values="0 0 0 0 1 0 0 0 0 1 0 0 0 0 1 0 0 0 0.25 0"/>
<feBlend mode="normal" in2="BackgroundImageFix" result="effect1_dropShadow_16532_11240"/>
<feBlend mode="normal" in="SourceGraphic" in2="effect1_dropShadow_16532_11240" result="shape"/>
<feColorMatrix in="SourceAlpha" type="matrix" values="0 0 0 0 0 0 0 0 0 0 0 0 0 0 0 0 0 0 127 0" result="hardAlpha"/>
<feOffset dy="3.17975"/>
<feGaussianBlur stdDeviation="2.60739"/>
<feComposite in2="hardAlpha" operator="arithmetic" k2="-1" k3="1"/>
<feColorMatrix type="matrix" values="0 0 0 0 1 0 0 0 0 1 0 0 0 0 1 0 0 0 1 0"/>
<feBlend mode="normal" in2="shape" result="effect2_innerShadow_16532_11240"/>
</filter>
<filter id="filter4_dd_16532_11240" x="316.758" y="103.112" width="160.786" height="88.6084" filterUnits="userSpaceOnUse" color-interpolation-filters="sRGB">
<feFlood flood-opacity="0" result="BackgroundImageFix"/>
<feColorMatrix in="SourceAlpha" type="matrix" values="0 0 0 0 0 0 0 0 0 0 0 0 0 0 0 0 0 0 127 0" result="hardAlpha"/>
<feOffset dy="1.62664"/>
<feGaussianBlur stdDeviation="8.94654"/>
<feComposite in2="hardAlpha" operator="out"/>
<feColorMatrix type="matrix" values="0 0 0 0 0.463294 0 0 0 0 0.487507 0 0 0 0 0.644889 0 0 0 0.55 0"/>
<feBlend mode="normal" in2="BackgroundImageFix" result="effect1_dropShadow_16532_11240"/>
<feColorMatrix in="SourceAlpha" type="matrix" values="0 0 0 0 0 0 0 0 0 0 0 0 0 0 0 0 0 0 127 0" result="hardAlpha"/>
<feOffset dy="4"/>
<feGaussianBlur stdDeviation="2"/>
<feComposite in2="hardAlpha" operator="out"/>
<feColorMatrix type="matrix" values="0 0 0 0 0 0 0 0 0 0 0 0 0 0 0 0 0 0 0.25 0"/>
<feBlend mode="normal" in2="effect1_dropShadow_16532_11240" result="effect2_dropShadow_16532_11240"/>
<feBlend mode="normal" in="SourceGraphic" in2="effect2_dropShadow_16532_11240" result="shape"/>
</filter>
<filter id="filter5_di_16532_11240" x="334.116" y="117.564" width="125.918" height="62.8293" filterUnits="userSpaceOnUse" color-interpolation-filters="sRGB">
<feFlood flood-opacity="0" result="BackgroundImageFix"/>
<feColorMatrix in="SourceAlpha" type="matrix" values="0 0 0 0 0 0 0 0 0 0 0 0 0 0 0 0 0 0 127 0" result="hardAlpha"/>
<feOffset dy="3.17975"/>
<feGaussianBlur stdDeviation="9.14178"/>
<feComposite in2="hardAlpha" operator="out"/>
<feColorMatrix type="matrix" values="0 0 0 0 1 0 0 0 0 1 0 0 0 0 1 0 0 0 0.25 0"/>
<feBlend mode="normal" in2="BackgroundImageFix" result="effect1_dropShadow_16532_11240"/>
<feBlend mode="normal" in="SourceGraphic" in2="effect1_dropShadow_16532_11240" result="shape"/>
<feColorMatrix in="SourceAlpha" type="matrix" values="0 0 0 0 0 0 0 0 0 0 0 0 0 0 0 0 0 0 127 0" result="hardAlpha"/>
<feOffset dy="3.17975"/>
<feGaussianBlur stdDeviation="2.60739"/>
<feComposite in2="hardAlpha" operator="arithmetic" k2="-1" k3="1"/>
<feColorMatrix type="matrix" values="0 0 0 0 1 0 0 0 0 1 0 0 0 0 1 0 0 0 1 0"/>
<feBlend mode="normal" in2="shape" result="effect2_innerShadow_16532_11240"/>
</filter>
<filter id="filter6_dd_16532_11240" x="254.258" y="208.112" width="160.786" height="88.6084" filterUnits="userSpaceOnUse" color-interpolation-filters="sRGB">
<feFlood flood-opacity="0" result="BackgroundImageFix"/>
<feColorMatrix in="SourceAlpha" type="matrix" values="0 0 0 0 0 0 0 0 0 0 0 0 0 0 0 0 0 0 127 0" result="hardAlpha"/>
<feOffset dy="1.62664"/>
<feGaussianBlur stdDeviation="8.94654"/>
<feComposite in2="hardAlpha" operator="out"/>
<feColorMatrix type="matrix" values="0 0 0 0 0.463294 0 0 0 0 0.487507 0 0 0 0 0.644889 0 0 0 0.55 0"/>
<feBlend mode="normal" in2="BackgroundImageFix" result="effect1_dropShadow_16532_11240"/>
<feColorMatrix in="SourceAlpha" type="matrix" values="0 0 0 0 0 0 0 0 0 0 0 0 0 0 0 0 0 0 127 0" result="hardAlpha"/>
<feOffset dy="4"/>
<feGaussianBlur stdDeviation="2"/>
<feComposite in2="hardAlpha" operator="out"/>
<feColorMatrix type="matrix" values="0 0 0 0 0 0 0 0 0 0 0 0 0 0 0 0 0 0 0.25 0"/>
<feBlend mode="normal" in2="effect1_dropShadow_16532_11240" result="effect2_dropShadow_16532_11240"/>
<feBlend mode="normal" in="SourceGraphic" in2="effect2_dropShadow_16532_11240" result="shape"/>
</filter>
<filter id="filter7_di_16532_11240" x="276.181" y="222.564" width="117.306" height="62.8293" filterUnits="userSpaceOnUse" color-interpolation-filters="sRGB">
<feFlood flood-opacity="0" result="BackgroundImageFix"/>
<feColorMatrix in="SourceAlpha" type="matrix" values="0 0 0 0 0 0 0 0 0 0 0 0 0 0 0 0 0 0 127 0" result="hardAlpha"/>
<feOffset dy="3.17975"/>
<feGaussianBlur stdDeviation="9.14178"/>
<feComposite in2="hardAlpha" operator="out"/>
<feColorMatrix type="matrix" values="0 0 0 0 1 0 0 0 0 1 0 0 0 0 1 0 0 0 0.25 0"/>
<feBlend mode="normal" in2="BackgroundImageFix" result="effect1_dropShadow_16532_11240"/>
<feBlend mode="normal" in="SourceGraphic" in2="effect1_dropShadow_16532_11240" result="shape"/>
<feColorMatrix in="SourceAlpha" type="matrix" values="0 0 0 0 0 0 0 0 0 0 0 0 0 0 0 0 0 0 127 0" result="hardAlpha"/>
<feOffset dy="3.17975"/>
<feGaussianBlur stdDeviation="2.60739"/>
<feComposite in2="hardAlpha" operator="arithmetic" k2="-1" k3="1"/>
<feColorMatrix type="matrix" values="0 0 0 0 1 0 0 0 0 1 0 0 0 0 1 0 0 0 1 0"/>
<feBlend mode="normal" in2="shape" result="effect2_innerShadow_16532_11240"/>
</filter>
<filter id="filter8_dd_16532_11240" x="94.7583" y="208.112" width="160.786" height="88.6084" filterUnits="userSpaceOnUse" color-interpolation-filters="sRGB">
<feFlood flood-opacity="0" result="BackgroundImageFix"/>
<feColorMatrix in="SourceAlpha" type="matrix" values="0 0 0 0 0 0 0 0 0 0 0 0 0 0 0 0 0 0 127 0" result="hardAlpha"/>
<feOffset dy="1.62664"/>
<feGaussianBlur stdDeviation="8.94654"/>
<feComposite in2="hardAlpha" operator="out"/>
<feColorMatrix type="matrix" values="0 0 0 0 0.463294 0 0 0 0 0.487507 0 0 0 0 0.644889 0 0 0 0.55 0"/>
<feBlend mode="normal" in2="BackgroundImageFix" result="effect1_dropShadow_16532_11240"/>
<feColorMatrix in="SourceAlpha" type="matrix" values="0 0 0 0 0 0 0 0 0 0 0 0 0 0 0 0 0 0 127 0" result="hardAlpha"/>
<feOffset dy="4"/>
<feGaussianBlur stdDeviation="2"/>
<feComposite in2="hardAlpha" operator="out"/>
<feColorMatrix type="matrix" values="0 0 0 0 0 0 0 0 0 0 0 0 0 0 0 0 0 0 0.25 0"/>
<feBlend mode="normal" in2="effect1_dropShadow_16532_11240" result="effect2_dropShadow_16532_11240"/>
<feBlend mode="normal" in="SourceGraphic" in2="effect2_dropShadow_16532_11240" result="shape"/>
</filter>
<filter id="filter9_di_16532_11240" x="112.116" y="222.41" width="125.918" height="62.9831" filterUnits="userSpaceOnUse" color-interpolation-filters="sRGB">
<feFlood flood-opacity="0" result="BackgroundImageFix"/>
<feColorMatrix in="SourceAlpha" type="matrix" values="0 0 0 0 0 0 0 0 0 0 0 0 0 0 0 0 0 0 127 0" result="hardAlpha"/>
<feOffset dy="3.17975"/>
<feGaussianBlur stdDeviation="9.14178"/>
<feComposite in2="hardAlpha" operator="out"/>
<feColorMatrix type="matrix" values="0 0 0 0 1 0 0 0 0 1 0 0 0 0 1 0 0 0 0.25 0"/>
<feBlend mode="normal" in2="BackgroundImageFix" result="effect1_dropShadow_16532_11240"/>
<feBlend mode="normal" in="SourceGraphic" in2="effect1_dropShadow_16532_11240" result="shape"/>
<feColorMatrix in="SourceAlpha" type="matrix" values="0 0 0 0 0 0 0 0 0 0 0 0 0 0 0 0 0 0 127 0" result="hardAlpha"/>
<feOffset dy="3.17975"/>
<feGaussianBlur stdDeviation="2.60739"/>
<feComposite in2="hardAlpha" operator="arithmetic" k2="-1" k3="1"/>
<feColorMatrix type="matrix" values="0 0 0 0 1 0 0 0 0 1 0 0 0 0 1 0 0 0 1 0"/>
<feBlend mode="normal" in2="shape" result="effect2_innerShadow_16532_11240"/>
</filter>
<filter id="filter10_dd_16532_11240" x="34.0766" y="103.112" width="160.786" height="88.6084" filterUnits="userSpaceOnUse" color-interpolation-filters="sRGB">
<feFlood flood-opacity="0" result="BackgroundImageFix"/>
<feColorMatrix in="SourceAlpha" type="matrix" values="0 0 0 0 0 0 0 0 0 0 0 0 0 0 0 0 0 0 127 0" result="hardAlpha"/>
<feOffset dy="1.62664"/>
<feGaussianBlur stdDeviation="8.94654"/>
<feComposite in2="hardAlpha" operator="out"/>
<feColorMatrix type="matrix" values="0 0 0 0 0.463294 0 0 0 0 0.487507 0 0 0 0 0.644889 0 0 0 0.55 0"/>
<feBlend mode="normal" in2="BackgroundImageFix" result="effect1_dropShadow_16532_11240"/>
<feColorMatrix in="SourceAlpha" type="matrix" values="0 0 0 0 0 0 0 0 0 0 0 0 0 0 0 0 0 0 127 0" result="hardAlpha"/>
<feOffset dy="4"/>
<feGaussianBlur stdDeviation="2"/>
<feComposite in2="hardAlpha" operator="out"/>
<feColorMatrix type="matrix" values="0 0 0 0 0 0 0 0 0 0 0 0 0 0 0 0 0 0 0.25 0"/>
<feBlend mode="normal" in2="effect1_dropShadow_16532_11240" result="effect2_dropShadow_16532_11240"/>
<feBlend mode="normal" in="SourceGraphic" in2="effect2_dropShadow_16532_11240" result="shape"/>
</filter>
<filter id="filter11_di_16532_11240" x="50.2296" y="117.284" width="129.15" height="63.1091" filterUnits="userSpaceOnUse" color-interpolation-filters="sRGB">
<feFlood flood-opacity="0" result="BackgroundImageFix"/>
<feColorMatrix in="SourceAlpha" type="matrix" values="0 0 0 0 0 0 0 0 0 0 0 0 0 0 0 0 0 0 127 0" result="hardAlpha"/>
<feOffset dy="3.17975"/>
<feGaussianBlur stdDeviation="9.14178"/>
<feComposite in2="hardAlpha" operator="out"/>
<feColorMatrix type="matrix" values="0 0 0 0 1 0 0 0 0 1 0 0 0 0 1 0 0 0 0.25 0"/>
<feBlend mode="normal" in2="BackgroundImageFix" result="effect1_dropShadow_16532_11240"/>
<feBlend mode="normal" in="SourceGraphic" in2="effect1_dropShadow_16532_11240" result="shape"/>
<feColorMatrix in="SourceAlpha" type="matrix" values="0 0 0 0 0 0 0 0 0 0 0 0 0 0 0 0 0 0 127 0" result="hardAlpha"/>
<feOffset dy="3.17975"/>
<feGaussianBlur stdDeviation="2.60739"/>
<feComposite in2="hardAlpha" operator="arithmetic" k2="-1" k3="1"/>
<feColorMatrix type="matrix" values="0 0 0 0 1 0 0 0 0 1 0 0 0 0 1 0 0 0 1 0"/>
<feBlend mode="normal" in2="shape" result="effect2_innerShadow_16532_11240"/>
</filter>
<linearGradient id="paint0_linear_16532_11240" x1="253.561" y1="153.358" x2="253.561" y2="205.731" gradientUnits="userSpaceOnUse">
<stop stop-color="#08020D" stop-opacity="0"/>
<stop offset="1" stop-color="#3C3243" stop-opacity="0.7"/>
</linearGradient>
<linearGradient id="paint1_linear_16532_11240" x1="253.561" y1="114.615" x2="253.561" y2="205.731" gradientUnits="userSpaceOnUse">
<stop stop-color="white" stop-opacity="0.6"/>
<stop offset="1" stop-color="white" stop-opacity="0.13"/>
</linearGradient>
<linearGradient id="paint2_linear_16532_11240" x1="254.062" y1="93.2014" x2="254.062" y2="114.615" gradientUnits="userSpaceOnUse">
<stop stop-color="#532CFA"/>
<stop offset="1" stop-color="white"/>
</linearGradient>
<linearGradient id="paint3_linear_16532_11240" x1="335.407" y1="145.61" x2="310.284" y2="154.701" gradientUnits="userSpaceOnUse">
<stop stop-color="#C1B4F6"/>
<stop offset="1" stop-color="#6D6970"/>
</linearGradient>
<linearGradient id="paint4_linear_16532_11240" x1="176.364" y1="147.232" x2="196.959" y2="154.685" gradientUnits="userSpaceOnUse">
<stop stop-color="#C1B4F6"/>
<stop offset="1" stop-color="#6D6970"/>
</linearGradient>
<linearGradient id="paint5_linear_16532_11240" x1="169.687" y1="214.28" x2="207.125" y2="200.733" gradientUnits="userSpaceOnUse">
<stop stop-color="#B4A4F8"/>
<stop offset="1" stop-color="#3E2876"/>
</linearGradient>
<linearGradient id="paint6_linear_16532_11240" x1="337.079" y1="214.28" x2="299.642" y2="200.733" gradientUnits="userSpaceOnUse">
<stop stop-color="#B4A4F8"/>
<stop offset="1" stop-color="#3E2876"/>
</linearGradient>
<linearGradient id="paint7_linear_16532_11240" x1="255.651" y1="93.2013" x2="261.81" y2="51.262" gradientUnits="userSpaceOnUse">
<stop stop-color="#9C90D3"/>
<stop offset="0.96875" stop-color="#AC82D6" stop-opacity="0.5"/>
</linearGradient>
<linearGradient id="paint8_linear_16532_11240" x1="459.651" y1="145.79" x2="343.027" y2="122.004" gradientUnits="userSpaceOnUse">
<stop offset="0.03125" stop-color="#AC82D6" stop-opacity="0.5"/>
<stop offset="1" stop-color="#9C90D3"/>
</linearGradient>
<linearGradient id="paint9_linear_16532_11240" x1="295.752" y1="218.355" x2="322.238" y2="285.672" gradientUnits="userSpaceOnUse">
<stop stop-color="#9C90D3"/>
<stop offset="0.751197" stop-color="#AC82D6" stop-opacity="0.5"/>
</linearGradient>
<linearGradient id="paint10_linear_16532_11240" x1="181.355" y1="224.379" x2="184.168" y2="292.875" gradientUnits="userSpaceOnUse">
<stop stop-color="#9C90D3"/>
<stop offset="0.96875" stop-color="#AC82D6" stop-opacity="0.5"/>
</linearGradient>
<linearGradient id="paint11_linear_16532_11240" x1="176.97" y1="145.79" x2="60.3449" y2="122.004" gradientUnits="userSpaceOnUse">
<stop stop-color="#9C90D3"/>
<stop offset="0.96875" stop-color="#AC82D6" stop-opacity="0.5"/>
</linearGradient>
</defs>
</svg>
