<svg width="691" height="447" viewBox="0 0 691 447" fill="none" xmlns="http://www.w3.org/2000/svg">
<circle cx="671.955" cy="427.955" r="18.9551" fill="#AA4DF7"/>
<path d="M668.04 433.455V432.375V431.82C668.04 431.27 668.142 430.795 668.347 430.395C668.552 429.99 668.822 429.64 669.157 429.345C669.497 429.045 669.867 428.783 670.267 428.558C670.672 428.333 671.077 428.12 671.482 427.92C671.887 427.72 672.257 427.52 672.592 427.32C672.932 427.115 673.205 426.888 673.41 426.638C673.615 426.388 673.717 426.093 673.717 425.753C673.717 425.318 673.565 424.963 673.26 424.688C672.96 424.413 672.547 424.275 672.022 424.275C671.477 424.275 671.015 424.433 670.635 424.748C670.255 425.063 670.02 425.538 669.93 426.173H667.837C667.847 425.483 668.007 424.858 668.317 424.298C668.632 423.733 669.102 423.285 669.727 422.955C670.352 422.625 671.137 422.46 672.082 422.46C672.892 422.46 673.59 422.598 674.175 422.873C674.765 423.148 675.22 423.53 675.54 424.02C675.86 424.51 676.02 425.083 676.02 425.738C676.02 426.283 675.92 426.753 675.72 427.148C675.52 427.543 675.255 427.88 674.925 428.16C674.595 428.44 674.232 428.685 673.837 428.895C673.442 429.105 673.047 429.3 672.652 429.48C672.262 429.66 671.902 429.845 671.572 430.035C671.242 430.22 670.977 430.43 670.777 430.665C670.577 430.9 670.477 431.183 670.477 431.513V431.61H676.005V433.455H668.04Z" fill="black"/>
<path d="M1.75366 73.1252L1.75342 1.08154C1.75342 1.03651 1.78993 1 1.83496 1V1C1.88 1 1.9165 1.03651 1.9165 1.08154V264.379C1.9165 277.634 12.6617 288.379 25.9165 288.379H647.955C661.21 288.379 671.955 299.125 671.955 312.379V405" stroke="#AA4DF7" stroke-width="2" stroke-miterlimit="0" stroke-linejoin="bevel"/>
</svg>
