<svg width="119" height="134" viewBox="0 0 119 134" fill="none" xmlns="http://www.w3.org/2000/svg">
<path d="M0.705444 98.7043L59.4338 64.7037L59.4338 0.823795L0.705443 34.8244L0.705444 98.7043Z" fill="url(#paint0_linear_16185_41226)"/>
<path fill-rule="evenodd" clip-rule="evenodd" d="M59.4338 58.5218L59.4338 60.5824L0.705444 94.5831L0.705444 92.5224L59.4338 58.5218ZM59.4338 56.4612L0.705444 90.4618L0.705444 88.4011L59.4338 54.4005L59.4338 56.4612ZM0.705444 84.2798L0.705444 86.3405L59.4338 52.3399L59.4338 50.2792L0.705444 84.2798ZM0.705444 82.2192L0.705444 80.1586L59.4338 46.1579L59.4338 48.2186L0.705444 82.2192ZM0.705444 76.0373L0.705444 78.0979L59.4338 44.0973L59.4338 42.0367L0.705444 76.0373ZM0.705444 73.9766L0.705444 71.916L59.4338 37.9154L59.4338 39.976L0.705444 73.9766ZM0.705444 67.7947L0.705444 69.8553L59.4338 35.8547L59.4338 33.7941L0.705444 67.7947ZM0.705444 65.7341L0.705444 63.6734L59.4338 29.6728L59.4338 31.7334L0.705444 65.7341ZM0.705443 59.5521L0.705444 61.6128L59.4338 27.6122L59.4338 25.5515L0.705443 59.5521ZM0.705443 57.4915L0.705443 55.4308L59.4338 21.4302L59.4338 23.4909L0.705443 57.4915ZM0.705443 51.3096L0.705443 53.3702L59.4338 19.3696L59.4338 17.3089L0.705443 51.3096ZM0.705443 49.2489L0.705443 47.1883L59.4338 13.1877L59.4338 15.2483L0.705443 49.2489ZM0.705443 43.067L0.705443 45.1276L59.4338 11.127L59.4338 9.06637L0.705443 43.067ZM0.705443 41.0063L0.705443 38.9457L59.4338 4.94508L59.4338 7.00572L0.705443 41.0063ZM0.705443 34.8244L0.705443 36.885L59.4338 2.88444L59.4338 0.823795L0.705443 34.8244ZM59.4338 64.7037L59.4338 62.6431L0.705444 96.6437L0.705444 98.7043L59.4338 64.7037Z" fill="url(#paint1_linear_16185_41226)"/>
<path d="M59.434 64.7004L118.162 98.701L118.162 34.821L59.434 0.820488L59.434 64.7004Z" fill="url(#paint2_linear_16185_41226)"/>
<path fill-rule="evenodd" clip-rule="evenodd" d="M118.162 92.5191L118.162 94.5797L59.434 60.5791L59.434 58.5185L118.162 92.5191ZM118.162 90.4584L59.434 56.4579L59.434 54.3972L118.162 88.3978L118.162 90.4584ZM59.434 50.2759L59.434 52.3366L118.162 86.3371L118.162 84.2765L59.434 50.2759ZM59.434 48.2153L59.434 46.1546L118.162 80.1552L118.162 82.2159L59.434 48.2153ZM59.434 42.0334L59.434 44.094L118.162 78.0946L118.162 76.0339L59.434 42.0334ZM59.434 39.9727L59.434 37.9121L118.162 71.9126L118.162 73.9733L59.434 39.9727ZM59.434 33.7908L59.434 35.8514L118.162 69.852L118.162 67.7914L59.434 33.7908ZM59.434 31.7301L59.434 29.6695L118.162 63.6701L118.162 65.7307L59.434 31.7301ZM59.434 25.5482L59.434 27.6088L118.162 61.6094L118.162 59.5488L59.434 25.5482ZM59.434 23.4876L59.434 21.4269L118.162 55.4275L118.162 57.4881L59.434 23.4876ZM59.434 17.3056L59.434 19.3663L118.162 53.3669L118.162 51.3062L59.434 17.3056ZM59.434 15.245L59.434 13.1843L118.162 47.1849L118.162 49.2456L59.434 15.245ZM59.434 9.06306L59.434 11.1237L118.162 45.1243L118.162 43.0636L59.434 9.06306ZM59.434 7.00242L59.434 4.94177L118.162 38.9424L118.162 41.003L59.434 7.00242ZM59.434 0.820488L59.434 2.88113L118.162 36.8817L118.162 34.821L59.434 0.820488ZM118.162 98.701L118.162 96.6404L59.434 62.6398L59.434 64.7004L118.162 98.701Z" fill="url(#paint3_linear_16185_41226)"/>
<path d="M0.705444 34.822L59.4338 68.8226L59.4338 132.703L0.705443 98.702L0.705444 34.822Z" fill="url(#paint4_linear_16185_41226)"/>
<path fill-rule="evenodd" clip-rule="evenodd" d="M59.4338 75.0046L59.4338 72.9439L0.705444 38.9433L0.705444 41.004L59.4338 75.0046ZM59.4338 77.0652L0.705444 43.0646L0.705444 45.1252L59.4338 79.1258L59.4338 77.0652ZM0.705444 49.2465L0.705444 47.1859L59.4338 81.1865L59.4338 83.2471L0.705444 49.2465ZM0.705444 51.3072L0.705444 53.3678L59.4338 87.3684L59.4338 85.3078L0.705444 51.3072ZM0.705444 57.4891L0.705444 55.4285L59.4338 89.4291L59.4338 91.4897L0.705444 57.4891ZM0.705444 59.5497L0.705444 61.6104L59.4338 95.611L59.4338 93.5504L0.705444 59.5497ZM0.705444 65.7317L0.705444 63.671L59.4338 97.6716L59.4338 99.7323L0.705444 65.7317ZM0.705444 67.7923L0.705444 69.853L59.4338 103.854L59.4338 101.793L0.705444 67.7923ZM0.705443 73.9742L0.705444 71.9136L59.4338 105.914L59.4338 107.975L0.705443 73.9742ZM0.705443 76.0349L0.705443 78.0955L59.4338 112.096L59.4338 110.035L0.705443 76.0349ZM0.705443 82.2168L0.705443 80.1562L59.4338 114.157L59.4338 116.217L0.705443 82.2168ZM0.705443 84.2775L0.705443 86.3381L59.4338 120.339L59.4338 118.278L0.705443 84.2775ZM0.705443 90.4594L0.705443 88.3987L59.4338 122.399L59.4338 124.46L0.705443 90.4594ZM0.705443 92.52L0.705443 94.5807L59.4338 128.581L59.4338 126.521L0.705443 92.52ZM0.705443 98.702L0.705443 96.6413L59.4338 130.642L59.4338 132.703L0.705443 98.702ZM59.4338 68.8226L59.4338 70.8833L0.705444 36.8827L0.705444 34.822L59.4338 68.8226Z" fill="url(#paint5_linear_16185_41226)"/>
<path d="M59.434 68.8262L118.162 34.8256L118.162 98.7056L59.434 132.706L59.434 68.8262Z" fill="url(#paint6_linear_16185_41226)"/>
<path fill-rule="evenodd" clip-rule="evenodd" d="M118.162 41.0075L118.162 38.9469L59.434 72.9475L59.434 75.0081L118.162 41.0075ZM118.162 43.0682L59.434 77.0688L59.434 79.1294L118.162 45.1288L118.162 43.0682ZM59.434 83.2507L59.434 81.19L118.162 47.1895L118.162 49.2501L59.434 83.2507ZM59.434 85.3113L59.434 87.372L118.162 53.3714L118.162 51.3107L59.434 85.3113ZM59.434 91.4933L59.434 89.4326L118.162 55.432L118.162 57.4927L59.434 91.4933ZM59.434 93.5539L59.434 95.6145L118.162 61.614L118.162 59.5533L59.434 93.5539ZM59.434 99.7358L59.434 97.6752L118.162 63.6746L118.162 65.7353L59.434 99.7358ZM59.434 101.796L59.434 103.857L118.162 69.8565L118.162 67.7959L59.434 101.796ZM59.434 107.978L59.434 105.918L118.162 71.9172L118.162 73.9778L59.434 107.978ZM59.434 110.039L59.434 112.1L118.162 78.0991L118.162 76.0385L59.434 110.039ZM59.434 116.221L59.434 114.16L118.162 80.1598L118.162 82.2204L59.434 116.221ZM59.434 118.282L59.434 120.342L118.162 86.3417L118.162 84.281L59.434 118.282ZM59.434 124.464L59.434 122.403L118.162 88.4023L118.162 90.463L59.434 124.464ZM59.434 126.524L59.434 128.585L118.162 94.5843L118.162 92.5236L59.434 126.524ZM59.434 132.706L59.434 130.645L118.162 96.6449L118.162 98.7056L59.434 132.706ZM118.162 34.8256L118.162 36.8862L59.434 70.8868L59.434 68.8262L118.162 34.8256Z" fill="url(#paint7_linear_16185_41226)"/>
<g style="mix-blend-mode:overlay">
<path d="M118.619 34.957L59.6637 1.07959L0.0493164 34.957L0.0493164 99.411L59.6637 133.948L118.619 99.411L118.619 34.957Z" fill="#9172EF"/>
</g>
<rect x="-0.66042" width="66.1854" height="66.1276" transform="matrix(-0.866025 -0.5 -0.866025 0.5 115.668 34.7372)" fill="#0C0C0C" fill-opacity="0.78" stroke="url(#paint8_linear_16185_41226)" stroke-width="0.762587"/>

<defs>
<filter id="filter0_d_16185_41226" x="34.3301" y="58.9507" width="49.8831" height="49.8831" filterUnits="userSpaceOnUse" color-interpolation-filters="sRGB">
<feFlood flood-opacity="0" result="BackgroundImageFix"/>
<feColorMatrix in="SourceAlpha" type="matrix" values="0 0 0 0 0 0 0 0 0 0 0 0 0 0 0 0 0 0 127 0" result="hardAlpha"/>
<feOffset dy="-1"/>
<feGaussianBlur stdDeviation="5"/>
<feComposite in2="hardAlpha" operator="out"/>
<feColorMatrix type="matrix" values="0 0 0 0 0.563191 0 0 0 0 0.548128 0 0 0 0 1 0 0 0 0.81 0"/>
<feBlend mode="normal" in2="BackgroundImageFix" result="effect1_dropShadow_16185_41226"/>
<feBlend mode="normal" in="SourceGraphic" in2="effect1_dropShadow_16185_41226" result="shape"/>
</filter>
<linearGradient id="paint0_linear_16185_41226" x1="30.0696" y1="81.7509" x2="2.36817" y2="33.7706" gradientUnits="userSpaceOnUse">
<stop stop-color="#353535"/>
<stop offset="1" stop-color="white"/>
</linearGradient>
<linearGradient id="paint1_linear_16185_41226" x1="49.6457" y1="79.6434" x2="-3.87848" y2="27.0896" gradientUnits="userSpaceOnUse">
<stop stop-color="#181818"/>
<stop offset="1" stop-color="#181818" stop-opacity="0"/>
</linearGradient>
<linearGradient id="paint2_linear_16185_41226" x1="64.5856" y1="67.7913" x2="96.584" y2="27.5373" gradientUnits="userSpaceOnUse">
<stop stop-color="#5F5C5B"/>
<stop offset="1" stop-color="white"/>
</linearGradient>
<linearGradient id="paint3_linear_16185_41226" x1="60.4643" y1="69.3368" x2="112.216" y2="29.6688" gradientUnits="userSpaceOnUse">
<stop stop-color="#181818"/>
<stop offset="1" stop-color="#181818" stop-opacity="0"/>
</linearGradient>
<linearGradient id="paint4_linear_16185_41226" x1="14.1971" y1="41.2966" x2="-5.68044" y2="121.087" gradientUnits="userSpaceOnUse">
<stop stop-color="white"/>
<stop offset="1" stop-color="#5F5F5F"/>
</linearGradient>
<linearGradient id="paint5_linear_16185_41226" x1="14.9907" y1="44.4711" x2="-4.56443" y2="104.459" gradientUnits="userSpaceOnUse">
<stop stop-color="#282828"/>
<stop offset="1" stop-color="#181818"/>
</linearGradient>
<linearGradient id="paint6_linear_16185_41226" x1="68.9575" y1="67.4897" x2="116.999" y2="77.8468" gradientUnits="userSpaceOnUse">
<stop stop-color="white"/>
<stop offset="1" stop-color="#4E4E4E"/>
</linearGradient>
<linearGradient id="paint7_linear_16185_41226" x1="65.783" y1="69.8705" x2="130.424" y2="74.6125" gradientUnits="userSpaceOnUse">
<stop stop-color="#1C1C1C"/>
<stop offset="1" stop-color="#181818"/>
</linearGradient>
<linearGradient id="paint8_linear_16185_41226" x1="30.7003" y1="51.7394" x2="70.2114" y2="34.8325" gradientUnits="userSpaceOnUse">
<stop stop-color="#393939"/>
<stop offset="1" stop-color="#9F9F9F"/>
</linearGradient>
</defs>
</svg>
