
<svg width="1900" height="702" viewBox="0 0 1900 702" fill="none" xmlns="http://www.w3.org/2000/svg">
    <g clip-path="url(#clip0_2175_12843)">
        <rect width="1900" height="702" />
        <g filter="url(#filter0_f_2175_12843)">
            <path d="M1468.09 801.551C1658.1 774.724 1667.39 695.993 1488.83 625.699V625.699C1310.27 555.404 1011.48 520.167 821.47 546.993L432.048 601.972C242.036 628.798 232.75 707.53 411.309 777.824V777.824C589.868 848.118 888.654 883.356 1078.67 856.53L1468.09 801.551Z" fill="url(#paint0_radial_2175_12843)"/>
            <path d="M1468.09 801.551C1658.1 774.724 1667.39 695.993 1488.83 625.699V625.699C1310.27 555.404 1011.48 520.167 821.47 546.993L432.048 601.972C242.036 628.798 232.75 707.53 411.309 777.824V777.824C589.868 848.118 888.654 883.356 1078.67 856.53L1468.09 801.551Z" stroke="#C726CA" stroke-width="62.1954"/>
        </g>
    </g>
    <defs>
        <filter id="filter0_f_2175_12843" x="-55.4403" y="229.386" width="2011.02" height="944.75" filterUnits="userSpaceOnUse" color-interpolation-filters="sRGB">
            <feFlood flood-opacity="0" result="BackgroundImageFix"/>
            <feBlend mode="normal" in="SourceGraphic" in2="BackgroundImageFix" result="shape"/>
            <feGaussianBlur stdDeviation="148.21" result="effect1_foregroundBlur_2175_12843"/>
        </filter>
        <radialGradient id="paint0_radial_2175_12843" cx="0" cy="0" r="1" gradientUnits="userSpaceOnUse" gradientTransform="translate(879.892 728.983) rotate(-170.893) scale(549.56 185.093)">
            <stop stop-color="#8200FF"/>
            <stop offset="1" stop-color="#8200FF"/>
        </radialGradient>
        <clipPath id="clip0_2175_12843">
            <rect width="1900" height="702" fill="white"/>
        </clipPath>
    </defs>
</svg>
