<svg width="545" height="502" viewBox="0 0 545 502" fill="none" xmlns="http://www.w3.org/2000/svg">
<path d="M264.627 172.724L235.749 190.495L342.378 253.437" stroke="#8405FF" stroke-width="2.32802" stroke-linejoin="round"/>
<path d="M342.827 277.036L242.556 335.935L355.393 400.429" stroke="#8405FF" stroke-width="2.32802" stroke-linejoin="round"/>
<path d="M263.976 136.969L203.632 101.238L48.0059 192.549L159.167 260.834" stroke="#8405FF" stroke-width="2.32802" stroke-linejoin="round"/>
<path d="M295.656 189.522C296.013 189.723 296.45 189.722 296.806 189.519L356.569 155.368C356.929 155.163 357.152 154.782 357.156 154.368C357.159 153.954 356.943 153.569 356.587 153.357L296.824 117.784C296.459 117.567 296.005 117.566 295.639 117.781L235.16 153.354C234.801 153.565 234.582 153.952 234.586 154.368C234.59 154.784 234.815 155.167 235.178 155.371L295.656 189.522Z" stroke="#8200FF" stroke-width="2.32802" stroke-linejoin="round"/>
<path d="M297.463 148.315L236.984 114.165L297.463 78.5918L357.226 114.165L297.463 148.315Z" fill="#8C49FA"/>
<path d="M297.169 148.149V173.325L237.368 138.074V113.947L297.169 148.149Z" fill="#320282"/>
<path d="M297.052 147.664V173.354L357.349 138.558V114.02L297.052 147.664Z" fill="#1F0152"/>
<ellipse cx="318.505" cy="148.586" rx="2.68041" ry="3.70571" transform="rotate(1.95579 318.505 148.586)" fill="#D9D9D9"/>
<ellipse cx="327.171" cy="143.687" rx="2.68041" ry="3.70571" transform="rotate(1.95579 327.171 143.687)" fill="#D9D9D9"/>
<ellipse cx="335.894" cy="139.075" rx="2.68041" ry="3.70571" transform="rotate(1.95579 335.894 139.075)" fill="#D9D9D9"/>
<path d="M297.463 114.852L236.984 80.7019L297.463 45.1289L357.226 80.7019L297.463 114.852Z" fill="#4906B9"/>
<path d="M297.169 114.686V151.891L237.368 116.64V80.4844L297.169 114.686Z" fill="#320282"/>
<path d="M297.052 114.201V148.997L357.349 114.201V80.5566L297.052 114.201Z" fill="#1F0152"/>
<path d="M333.694 98.9753L349.728 89.7373V91.8607L333.694 101.099V98.9753Z" fill="#D9D9D9"/>
<path d="M333.694 103.222L349.728 93.9844V96.1078L333.694 105.346V103.222Z" fill="#D9D9D9"/>
<path d="M333.694 107.364L349.728 98.1265V100.25L333.694 109.488V107.364Z" fill="#D9D9D9"/>
<g clip-path="url(#clip0_5263_29414)">
<path d="M281.16 118.035C280.808 117.555 280.414 117.13 279.998 116.786C279.571 116.431 279.131 116.158 278.699 115.978C278.246 115.789 277.806 115.697 277.4 115.706L275.504 115.82L273.604 115.929L271.702 116.037L269.802 116.157C269.39 116.198 268.949 116.159 268.489 116.042C268.045 115.934 267.585 115.747 267.122 115.484C266.66 115.224 266.199 114.892 265.752 114.498C265.291 114.091 264.848 113.625 264.435 113.112L262.592 110.891L260.75 108.67L258.907 106.454L257.063 104.232C256.379 103.334 255.562 102.659 254.76 102.33C254.02 102.036 253.333 102.034 252.795 102.325C252.252 102.606 251.883 103.167 251.739 103.931C251.591 104.764 251.737 105.798 252.149 106.84L252.795 108.579L254.218 112.401L255.642 116.223L256.289 117.963C256.53 118.573 256.717 119.185 256.846 119.785C256.968 120.369 257.03 120.935 257.031 121.469C257.03 122.002 256.968 122.498 256.846 122.943C256.731 123.419 256.554 123.839 256.32 124.193L255.309 125.788L254.296 127.376L253.283 128.962L252.27 130.549C252.1 130.807 251.968 131.111 251.88 131.453C251.796 131.777 251.759 132.139 251.769 132.529C251.781 132.914 251.844 133.323 251.955 133.742C252.066 134.179 252.227 134.622 252.433 135.055C252.684 135.598 252.995 136.119 253.352 136.593C253.706 137.07 254.099 137.494 254.513 137.848C254.938 138.214 255.377 138.5 255.812 138.695C256.265 138.896 256.705 138.996 257.111 138.988L259.084 138.878L261.054 138.768L263.025 138.657L264.996 138.546C264.403 137.712 263.855 136.836 263.36 135.93C262.865 135.021 262.411 134.095 262.001 133.157C261.587 132.215 261.208 131.264 260.857 130.316C260.544 129.47 260.253 128.63 259.972 127.799C260.468 129.157 261.535 130.91 262.921 132.853C264.607 135.166 266.364 137.397 268.182 139.533C270.093 141.81 272.054 144.053 273.749 146.012C275.443 147.971 276.879 149.651 277.73 150.792C278.418 151.659 279.235 152.279 280.014 152.526C280.737 152.736 281.386 152.648 281.87 152.274C282.377 151.903 282.707 151.275 282.819 150.464C282.935 149.607 282.77 148.568 282.351 147.527L281.186 144.42L278.634 137.59L276.082 130.76L274.93 127.689C274.683 127.066 274.415 126.447 274.127 125.832C273.84 125.227 273.531 124.63 273.199 124.043C272.87 123.459 272.518 122.889 272.145 122.335C271.766 121.772 271.366 121.23 270.946 120.713C271.598 121.432 272.26 122.17 272.91 122.929C273.564 123.687 274.201 124.475 274.817 125.288C275.433 126.099 276.016 126.947 276.562 127.825C277.112 128.715 277.606 129.64 278.037 130.584L279.085 128.973L280.134 127.363L281.186 125.751L282.234 124.141C282.409 123.908 282.54 123.623 282.624 123.294C282.707 122.968 282.744 122.604 282.735 122.212C282.722 121.815 282.66 121.393 282.549 120.961C282.437 120.519 282.274 120.07 282.065 119.631C281.827 119.071 281.52 118.528 281.16 118.035ZM256.844 135.031C256.871 135.499 256.728 135.862 256.453 136.026C256.177 136.191 255.794 136.141 255.402 135.891C254.599 135.435 253.944 134.312 253.937 133.381C253.93 132.451 254.576 132.066 255.378 132.522C255.77 132.716 256.155 133.102 256.435 133.582C256.716 134.062 256.864 134.589 256.844 135.031ZM253.969 106.011C253.942 105.543 254.085 105.181 254.361 105.016C254.636 104.852 255.019 104.901 255.411 105.151C255.804 105.346 256.188 105.733 256.469 106.213C256.749 106.693 256.898 107.221 256.877 107.663C256.905 108.131 256.762 108.493 256.486 108.658C256.211 108.822 255.828 108.773 255.436 108.523C255.043 108.328 254.658 107.941 254.378 107.461C254.097 106.98 253.949 106.453 253.969 106.011ZM280.557 148.67C280.563 149.353 280.213 149.768 279.671 149.722C279.129 149.675 278.503 149.176 278.083 148.457C277.663 147.738 277.533 146.941 277.753 146.439C277.974 145.936 278.502 145.826 279.091 146.161C279.483 146.355 279.867 146.741 280.148 147.221C280.428 147.701 280.577 148.229 280.557 148.67ZM270.722 128.728C270.293 127.671 269.586 126.945 268.738 126.466C267.58 125.842 266.555 126.087 266.132 127.088C265.708 128.089 265.967 129.656 266.79 131.073C265.87 130.407 265.037 129.371 264.474 128.196C263.912 127.021 263.668 125.805 263.797 124.82C264.07 122.854 265.898 122.259 267.735 123.618C269.29 124.82 270.568 126.846 270.722 128.728ZM280.661 121.28C280.641 122.174 280.003 122.529 279.219 122.085C278.435 121.64 277.787 120.555 277.753 119.631C277.773 118.738 278.41 118.382 279.194 118.827C279.978 119.271 280.627 120.356 280.661 121.28Z" fill="#FF694B"/>
</g>
<g filter="url(#filter0_f_5263_29414)">
<ellipse cx="341.711" cy="99.6653" rx="26.5793" ry="26.5793" transform="rotate(-90 341.711 99.6653)" fill="#7331FF" fill-opacity="0.8"/>
<ellipse cx="341.711" cy="99.6653" rx="26.5793" ry="26.5793" transform="rotate(-90 341.711 99.6653)" fill="#7331FF" fill-opacity="0.8"/>
</g>
<path d="M137.867 348.825C138.222 349.025 138.655 349.025 139.01 348.826L248.119 287.442C248.481 287.238 248.707 286.857 248.712 286.442C248.717 286.026 248.5 285.64 248.143 285.427L188.381 249.854C188.02 249.64 187.572 249.636 187.207 249.844L77.3828 312.65C77.0194 312.858 76.7955 313.245 76.7967 313.664C76.7978 314.083 77.0238 314.469 77.3884 314.675L137.867 348.825Z" stroke="#8405FF" stroke-width="2.32802" stroke-linejoin="round"/>
<path d="M138.517 299.333L78.0378 265.182L187.862 202.376L247.625 237.949L138.517 299.333Z" fill="#8C49FA"/>
<path d="M138.223 299.166V324.342L78.4224 289.091V264.964L138.223 299.166Z" fill="#A570FB"/>
<path d="M138.106 298.681V324.371L247.549 262.564V238.026L138.106 298.681Z" fill="#660BFA"/>
<g clip-path="url(#clip1_5263_29414)">
<path d="M175.929 243.33C176.519 243.252 177.027 243.193 177.537 243.119C179.193 242.864 180.847 242.604 182.499 242.339C183.651 242.152 184.72 242.2 185.733 242.624C187.075 243.183 187.42 244.443 186.379 245.189C185.869 245.574 185.153 245.85 184.342 245.976C180.406 246.575 176.448 247.186 172.511 247.809C171.241 248.009 170.11 247.916 169.12 247.411C168.085 246.885 167.843 246.195 168.154 245.461C168.704 244.175 169.329 242.901 169.924 241.622L171.304 238.673C171.478 238.295 171.657 237.92 172.138 237.611C172.609 237.303 173.24 237.091 173.936 237.006C174.632 236.92 175.357 236.966 176.004 237.136C177.435 237.52 178.1 238.372 177.765 239.28C177.558 239.878 177.236 240.464 176.964 241.053C176.653 241.711 176.342 242.369 176.041 243.035C175.985 243.104 175.973 243.187 175.929 243.33Z" fill="#32C0F0"/>
<path d="M149.787 258.394C148.662 258.565 147.624 258.722 146.584 258.883C145.368 259.071 144.147 259.254 142.937 259.453C141.331 259.722 139.612 259.209 139.057 258.462C138.219 257.351 139.128 256.16 141.152 255.818C142.7 255.558 144.264 255.332 145.822 255.09C148.23 254.719 150.642 254.354 153.045 253.969C154.114 253.796 155.133 253.779 156.101 254.117C156.636 254.286 157.071 254.544 157.349 254.858C157.627 255.171 157.736 255.526 157.661 255.875C157.558 256.321 157.392 256.762 157.165 257.192C156.241 259.221 155.303 261.246 154.352 263.267C154.024 263.985 153.276 264.51 151.993 264.727C151.521 264.809 151.022 264.827 150.536 264.778C150.05 264.729 149.591 264.615 149.196 264.445C148.8 264.275 148.479 264.054 148.259 263.799C148.038 263.545 147.924 263.264 147.925 262.979C147.968 262.56 148.094 262.145 148.299 261.742C148.752 260.713 149.243 259.691 149.716 258.664C149.75 258.597 149.758 258.528 149.787 258.394Z" fill="#32C0F0"/>
<path d="M145.069 248.242L144.416 247.865C142.921 247.002 141.424 246.137 139.929 245.274C139.348 244.933 139.01 244.479 138.982 244.001C138.953 243.524 139.235 243.057 139.773 242.693C140.772 242.047 142.884 241.713 144.439 242.575C145.599 243.22 146.717 243.89 147.86 244.55C149.765 245.65 151.67 246.75 153.575 247.85C154.103 248.137 154.448 248.519 154.553 248.933C154.658 249.348 154.517 249.771 154.154 250.134C153.923 250.368 153.612 250.573 153.241 250.737C152.869 250.9 152.445 251.019 151.992 251.085C149.378 251.49 146.776 251.896 144.187 252.301L140.029 252.947C139.4 253.06 138.731 253.072 138.092 252.982C137.388 252.881 136.764 252.646 136.321 252.315C135.877 251.984 135.641 251.576 135.648 251.158C135.65 250.739 135.894 250.332 136.341 250.001C136.787 249.671 137.411 249.435 138.115 249.332C139.302 249.139 140.502 248.968 141.691 248.783C142.771 248.607 143.85 248.431 145.069 248.242Z" fill="#32C0F0"/>
<path d="M167.416 261.143L166.44 263.227C166.146 263.859 165.866 264.494 165.558 265.123C165.362 265.572 164.894 265.965 164.24 266.232C163.586 266.499 162.787 266.622 161.99 266.578C160.496 266.496 159.173 265.742 159.165 264.873C159.176 264.468 159.277 264.065 159.466 263.674C160.432 261.55 161.432 259.431 162.415 257.311C162.699 256.697 163.184 256.18 164.212 255.876C164.821 255.677 165.526 255.6 166.219 255.657C166.911 255.713 167.551 255.901 168.039 256.19C169.225 256.861 170.389 257.547 171.559 258.222C173.41 259.291 175.262 260.361 177.115 261.43C177.719 261.769 178.069 262.231 178.09 262.717C178.111 263.204 177.801 263.675 177.227 264.032C176.932 264.217 176.575 264.367 176.177 264.471C175.78 264.576 175.35 264.633 174.914 264.639C174.478 264.646 174.044 264.601 173.638 264.509C173.232 264.417 172.862 264.278 172.551 264.101C171.048 263.262 169.594 262.394 168.118 261.541L167.416 261.143Z" fill="#32C0F0"/>
<path d="M158.315 240.558L159.052 238.99C159.415 238.218 159.775 237.446 160.131 236.674C160.373 236.148 160.813 235.696 161.662 235.428C162.96 235.016 164.248 235.052 165.416 235.576C166.47 236.05 166.754 236.716 166.507 237.454C166.316 238.043 166 238.61 165.733 239.185C164.905 240.969 164.06 242.75 163.249 244.536C162.815 245.482 161.367 246.159 159.68 246.066C158.97 246.038 158.299 245.866 157.787 245.58C154.706 243.801 151.624 242.022 148.545 240.244C148.035 239.947 147.714 239.558 147.631 239.142C147.549 238.726 147.711 238.306 148.091 237.949C148.471 237.592 149.047 237.319 149.727 237.173C150.407 237.027 151.152 237.017 151.843 237.145C152.36 237.255 152.831 237.428 153.223 237.651C154.701 238.472 156.12 239.31 157.563 240.143L158.315 240.558Z" fill="#32C0F0"/>
<path d="M180.775 253.526L185.791 256.422C186.388 256.769 186.727 257.238 186.733 257.728C186.74 258.218 186.413 258.691 185.825 259.044C185.236 259.397 184.431 259.604 183.583 259.619C182.735 259.634 181.91 259.457 181.285 259.126C180.423 258.667 179.609 258.159 178.773 257.676C176.561 256.399 174.349 255.122 172.146 253.85C171.827 253.672 171.575 253.458 171.406 253.221C171.238 252.985 171.157 252.73 171.168 252.474C171.179 252.218 171.282 251.966 171.471 251.734C171.66 251.503 171.93 251.296 172.264 251.127C172.683 250.919 173.175 250.764 173.706 250.675C177.699 250.044 181.688 249.429 185.68 248.81C186.21 248.711 186.773 248.687 187.322 248.738C187.871 248.79 188.391 248.916 188.839 249.107C190.204 249.677 190.512 250.96 189.424 251.708C188.875 252.092 188.124 252.363 187.285 252.479C185.302 252.77 183.349 253.078 181.366 253.388C181.164 253.427 180.967 253.473 180.775 253.526Z" fill="#32C0F0"/>
<path d="M167.141 248.394C167.734 248.628 167.864 248.96 167.856 249.35C167.83 250.366 167.848 251.384 167.843 252.403C167.846 252.577 167.789 252.748 167.675 252.909C167.562 253.069 167.394 253.215 167.182 253.338C166.969 253.46 166.717 253.557 166.439 253.623C166.161 253.688 165.863 253.721 165.563 253.72C163.75 253.724 161.94 253.726 160.133 253.727C159.539 253.727 158.97 253.591 158.548 253.35C158.126 253.109 157.885 252.782 157.878 252.439C157.873 251.379 157.874 250.317 157.88 249.255C157.892 248.92 158.127 248.6 158.536 248.362C158.945 248.124 159.497 247.985 160.077 247.975C161.863 247.97 163.653 247.986 165.445 247.963C166.147 247.959 166.736 248.047 167.141 248.394ZM161.369 249.96C161.268 250.053 161.194 250.155 161.149 250.261C161.112 250.652 161.112 251.042 161.15 251.432C161.189 251.694 161.475 251.833 161.97 251.853C162.546 251.875 163.124 251.876 163.7 251.856C163.821 251.861 163.943 251.851 164.057 251.827C164.171 251.802 164.275 251.763 164.361 251.714C164.447 251.664 164.513 251.604 164.556 251.539C164.599 251.473 164.616 251.402 164.608 251.332C164.643 251.014 164.644 250.694 164.608 250.375C164.569 250.018 164.279 249.86 163.643 249.84C163.117 249.823 162.589 249.824 162.063 249.844C161.824 249.867 161.591 249.906 161.369 249.96Z" fill="#32C0F0"/>
</g>
<path d="M436.792 482.219C436.437 482.42 436.004 482.42 435.649 482.22L326.54 420.837C326.178 420.633 325.952 420.252 325.947 419.836C325.942 419.421 326.159 419.034 326.516 418.822L386.279 383.249C386.639 383.034 387.087 383.03 387.452 383.239L497.276 446.045C497.64 446.253 497.864 446.64 497.862 447.059C497.861 447.477 497.635 447.863 497.271 448.069L436.792 482.219Z" stroke="#8405FF" stroke-width="2.32802" stroke-linejoin="round"/>
<path d="M436.513 456V481.177L496.314 445.926V421.799L436.513 456Z" fill="#060409"/>
<path d="M436.63 455.515V481.205L327.187 419.398V394.86L436.63 455.515Z" fill="#14101D"/>
<path d="M436.22 456.167L496.698 422.017L386.874 359.21L327.111 394.783L436.22 456.167Z" fill="#1D1925" stroke="#819AF5" stroke-width="0.776008"/>
<g clip-path="url(#clip2_5263_29414)">
<path d="M411.857 399.013L423.942 405.99L428.374 396.458L416.276 389.473L411.857 399.013Z" fill="#4040B2"/>
<path d="M394.185 402.227L410.708 399.675L422.794 406.653L406.277 409.208L394.185 402.227ZM375.818 405.039L387.91 412.02L404.428 409.466L392.335 402.484L375.818 405.039ZM419.697 416.956L436.215 414.402L424.121 407.42L407.605 409.975L419.697 416.956Z" fill="#5C4EE5"/>
</g>
<path d="M411.867 263.758C411.867 269.48 407.806 274.886 400.746 278.927C393.719 282.95 383.933 285.475 373.061 285.475C362.189 285.475 352.403 282.95 345.376 278.927C338.316 274.886 334.254 269.48 334.254 263.758C334.254 258.037 338.316 252.631 345.376 248.589C352.403 244.567 362.189 242.041 373.061 242.041C383.933 242.041 393.719 244.567 400.746 248.589C407.806 252.631 411.867 258.037 411.867 263.758Z" stroke="#8405FF" stroke-width="2.32802"/>
<path fill-rule="evenodd" clip-rule="evenodd" d="M413.032 246.801C413.032 246.8 413.032 246.8 413.032 246.8V228.439H396.915C390.257 225.6 382.002 223.919 373.062 223.919C364.121 223.919 355.867 225.6 349.209 228.439H333.091V246.8C333.091 246.8 333.091 246.8 333.091 246.801C333.091 259.437 350.987 269.681 373.062 269.681C395.137 269.681 413.032 259.437 413.032 246.801Z" fill="#5506D7"/>
<ellipse cx="373.061" cy="227.028" rx="39.9705" ry="22.8809" fill="#3B009B"/>
<g filter="url(#filter1_f_5263_29414)">
<ellipse cx="195.257" cy="246.801" rx="32.6667" ry="32.6667" transform="rotate(-90 195.257 246.801)" fill="#7331FF" fill-opacity="0.8"/>
<ellipse cx="195.257" cy="246.801" rx="32.6667" ry="32.6667" transform="rotate(-90 195.257 246.801)" fill="#7331FF" fill-opacity="0.8"/>
</g>
<path fill-rule="evenodd" clip-rule="evenodd" d="M413.032 220.878C413.032 220.878 413.032 220.878 413.032 220.878V202.516H396.915C390.257 199.677 382.002 197.997 373.062 197.997C364.121 197.997 355.867 199.677 349.209 202.516H333.091V220.878C333.091 220.878 333.091 220.878 333.091 220.878C333.091 233.515 350.987 243.759 373.062 243.759C395.137 243.759 413.032 233.515 413.032 220.878Z" fill="#5506D7"/>
<ellipse cx="373.061" cy="201.105" rx="39.9705" ry="22.8809" fill="#3B009B"/>
<path fill-rule="evenodd" clip-rule="evenodd" d="M413.032 195.034C413.032 195.034 413.032 195.034 413.032 195.034V176.672H396.915C390.257 173.833 382.002 172.153 373.062 172.153C364.121 172.153 355.867 173.833 349.209 176.672H333.091V195.034C333.091 195.034 333.091 195.034 333.091 195.034C333.091 207.671 350.987 217.915 373.062 217.915C395.137 217.915 413.032 207.671 413.032 195.034Z" fill="#660BFA"/>
<ellipse cx="373.061" cy="175.262" rx="39.9705" ry="22.8809" fill="#8C49FA"/>
<g filter="url(#filter2_f_5263_29414)">
<ellipse cx="373.06" cy="185.249" rx="32.6667" ry="32.6667" transform="rotate(-90 373.06 185.249)" fill="#7331FF" fill-opacity="0.8"/>
<ellipse cx="373.06" cy="185.249" rx="32.6667" ry="32.6667" transform="rotate(-90 373.06 185.249)" fill="#7331FF" fill-opacity="0.8"/>
</g>
<g clip-path="url(#clip3_5263_29414)">
<path d="M367.899 166.607C367.505 166.835 367.228 167.044 367.068 167.222C366.919 167.406 366.77 167.615 366.642 167.861C366.61 167.941 366.546 168.003 366.472 168.046C366.365 168.107 366.195 168.132 365.95 168.113L364.832 167.984C364.672 167.966 364.544 167.929 364.459 167.88C364.352 167.818 364.299 167.726 364.288 167.609C364.299 167.431 364.342 167.259 364.406 167.099C364.48 166.933 364.576 166.755 364.704 166.546C362.893 166.632 361.36 166.312 360.103 165.586C359.208 165.07 358.75 164.51 358.74 163.914C358.729 163.317 359.144 162.77 359.996 162.278C360.902 161.756 361.956 161.516 363.16 161.571C364.363 161.626 365.503 161.965 366.599 162.598C366.962 162.807 367.302 163.041 367.643 163.299C367.984 163.557 368.303 163.84 368.634 164.141L369.411 163.692C370.22 163.225 370.615 162.801 370.615 162.42C370.604 162.032 370.189 161.608 369.368 161.135C368.996 160.919 368.57 160.723 368.08 160.55C367.59 160.378 367.089 160.225 366.568 160.095C366.323 160.04 366.152 159.991 366.056 159.96C365.96 159.929 365.897 159.905 365.854 159.88C365.705 159.794 365.737 159.69 365.96 159.56L366.482 159.259C366.653 159.161 366.802 159.099 366.93 159.087C367.057 159.075 367.228 159.087 367.451 159.13C368.016 159.235 368.623 159.401 369.273 159.628C369.933 159.849 370.551 160.132 371.136 160.471C372.404 161.202 373.043 161.903 373.064 162.58C373.075 163.25 372.5 163.926 371.328 164.602L367.877 166.595L367.899 166.607ZM361.956 165.045C362.308 165.248 362.734 165.42 363.245 165.568C363.756 165.715 364.331 165.777 364.938 165.758C365.311 165.74 365.662 165.685 365.982 165.574C366.301 165.463 366.653 165.31 367.015 165.101L367.462 164.842C367.228 164.621 366.962 164.393 366.663 164.172C366.365 163.951 366.056 163.748 365.726 163.557C365.013 163.145 364.352 162.924 363.713 162.887C363.074 162.85 362.499 162.985 361.967 163.293C361.466 163.582 361.221 163.871 361.232 164.172C361.221 164.473 361.466 164.762 361.956 165.045ZM369.358 170.647C369.166 170.536 369.07 170.444 369.06 170.352C369.038 170.266 369.113 170.136 369.251 169.983L374.981 163.785C375.13 163.625 375.237 163.526 375.311 163.483C375.482 163.385 375.663 163.379 375.833 163.477L376.877 164.08C377.079 164.197 377.186 164.295 377.186 164.381C377.207 164.467 377.122 164.59 376.983 164.744L371.722 169.847L380.434 166.736C380.7 166.644 380.902 166.601 381.052 166.613C381.201 166.625 381.392 166.687 381.584 166.798L382.436 167.29C382.638 167.406 382.745 167.505 382.756 167.597C382.777 167.683 382.702 167.812 382.543 167.954L377.09 173.045L386.068 169.989C386.345 169.903 386.558 169.866 386.696 169.872C386.845 169.884 387.026 169.94 387.218 170.05L388.208 170.622C388.379 170.721 388.389 170.825 388.208 170.93C388.155 170.96 388.091 170.985 388.017 171.016C387.942 171.046 387.836 171.083 387.676 171.126L376.877 174.398C376.6 174.484 376.387 174.52 376.238 174.508C376.089 174.496 375.908 174.441 375.727 174.336L374.811 173.807C374.608 173.69 374.502 173.592 374.491 173.5C374.48 173.408 374.544 173.285 374.715 173.137L379.933 168.218L371.435 171.231C371.168 171.323 370.966 171.366 370.806 171.36C370.646 171.354 370.465 171.286 370.274 171.176L369.358 170.647ZM382.756 178.714C382.202 178.394 381.712 178.038 381.307 177.656C380.902 177.275 380.626 176.955 380.508 176.703C380.434 176.55 380.423 176.42 380.476 176.341C380.53 176.261 380.615 176.187 380.711 176.131L381.254 175.818C381.478 175.689 381.669 175.676 381.829 175.769C381.893 175.806 381.946 175.849 381.989 175.898C382.031 175.947 382.085 176.027 382.148 176.113C382.351 176.414 382.617 176.716 382.947 177.005C383.288 177.3 383.661 177.564 384.087 177.81C384.758 178.197 385.397 178.431 385.993 178.505C386.59 178.579 387.122 178.493 387.559 178.24C387.857 178.068 388.006 177.872 388.017 177.644C388.027 177.417 387.846 177.103 387.495 176.703L386.43 175.535C385.897 174.945 385.684 174.404 385.812 173.924C385.929 173.451 386.27 173.045 386.824 172.725C387.271 172.467 387.761 172.295 388.294 172.209C388.826 172.122 389.38 172.098 389.934 172.147C390.498 172.19 391.041 172.295 391.595 172.467C392.149 172.639 392.649 172.866 393.118 173.137C393.352 173.272 393.587 173.42 393.789 173.574C394.002 173.733 394.183 173.887 394.364 174.041C394.524 174.195 394.673 174.342 394.801 174.49C394.928 174.637 395.014 174.76 395.056 174.859C395.12 174.994 395.141 175.105 395.11 175.197C395.088 175.283 395.003 175.369 394.854 175.455L394.353 175.744C394.13 175.873 393.927 175.892 393.768 175.799C393.682 175.75 393.587 175.646 393.491 175.492C393.161 174.982 392.617 174.508 391.861 174.072C391.254 173.721 390.679 173.5 390.147 173.426C389.614 173.352 389.135 173.432 388.698 173.684C388.4 173.856 388.251 174.065 388.262 174.305C388.272 174.545 388.464 174.889 388.847 175.32L389.88 176.47C390.402 177.054 390.615 177.57 390.509 178.013C390.402 178.456 390.061 178.837 389.508 179.157C389.05 179.421 388.538 179.606 387.995 179.71C387.442 179.808 386.866 179.845 386.281 179.802C385.684 179.765 385.099 179.649 384.502 179.464C383.874 179.273 383.299 179.028 382.756 178.714Z" fill="white"/>
<path fill-rule="evenodd" clip-rule="evenodd" d="M379.592 182.864C373.501 182.336 367.036 180.19 362.659 177.662C356.525 174.121 353.266 169.62 352.861 165.033C352.829 164.67 353.532 164.609 353.692 164.971C355.587 169.091 359.57 173.223 365.332 176.55C369.219 178.794 374.299 180.792 379.891 182.102C380.743 182.286 380.594 182.95 379.592 182.864Z" fill="white"/>
<path fill-rule="evenodd" clip-rule="evenodd" d="M382.713 182.748C382.841 182.157 380.029 180.878 378.751 180.3C378.368 180.128 378.613 179.925 379.145 179.974C382.553 180.319 385.439 182.452 385.354 182.944C385.258 183.442 381.477 185.059 378.027 184.887C377.494 184.863 377.345 184.629 377.793 184.518C379.273 184.156 382.596 183.332 382.713 182.748Z" fill="white"/>
</g>
<defs>
<filter id="filter0_f_5263_29414" x="244.313" y="2.26675" width="194.797" height="194.797" filterUnits="userSpaceOnUse" color-interpolation-filters="sRGB">
<feFlood flood-opacity="0" result="BackgroundImageFix"/>
<feBlend mode="normal" in="SourceGraphic" in2="BackgroundImageFix" result="shape"/>
<feGaussianBlur stdDeviation="35.4096" result="effect1_foregroundBlur_5263_29414"/>
</filter>
<filter id="filter1_f_5263_29414" x="91.7711" y="143.315" width="206.972" height="206.972" filterUnits="userSpaceOnUse" color-interpolation-filters="sRGB">
<feFlood flood-opacity="0" result="BackgroundImageFix"/>
<feBlend mode="normal" in="SourceGraphic" in2="BackgroundImageFix" result="shape"/>
<feGaussianBlur stdDeviation="35.4096" result="effect1_foregroundBlur_5263_29414"/>
</filter>
<filter id="filter2_f_5263_29414" x="269.574" y="81.7628" width="206.972" height="206.972" filterUnits="userSpaceOnUse" color-interpolation-filters="sRGB">
<feFlood flood-opacity="0" result="BackgroundImageFix"/>
<feBlend mode="normal" in="SourceGraphic" in2="BackgroundImageFix" result="shape"/>
<feGaussianBlur stdDeviation="35.4096" result="effect1_foregroundBlur_5263_29414"/>
</filter>
<clipPath id="clip0_5263_29414">
<rect width="50.3929" height="50.3929" fill="white" transform="matrix(0.866025 0.5 -2.20305e-08 1 245.448 89.5405)"/>
</clipPath>
<clipPath id="clip1_5263_29414">
<rect width="62.0806" height="62.0806" fill="white" transform="matrix(0.866025 -0.5 0.866025 0.5 109.069 250.855)"/>
</clipPath>
<clipPath id="clip2_5263_29414">
<rect width="62.0806" height="62.0806" fill="white" transform="matrix(0.866025 -0.5 0.866025 0.5 358.062 406.366)"/>
</clipPath>
<clipPath id="clip3_5263_29414">
<rect width="51.895" height="51.895" fill="white" transform="matrix(0.866025 0.5 -0.866025 0.5 372.266 146.206)"/>
</clipPath>
</defs>
</svg>
