<svg width="578" height="421" viewBox="0 0 578 421" fill="none" xmlns="http://www.w3.org/2000/svg">
<rect width="568" height="420" rx="12" transform="matrix(-1 0 0 1 568.5 0.849609)" fill="url(#paint0_diamond_917_3363)"/>
<circle cx="135.981" cy="44.2867" r="3.2877" fill="#AB9FE6" fill-opacity="0.2"/>
<circle cx="135.981" cy="63.0736" r="3.2877" fill="#AB9FE6" fill-opacity="0.2"/>
<circle cx="135.981" cy="81.8605" r="3.2877" fill="#AB9FE6" fill-opacity="0.2"/>
<circle cx="117.194" cy="100.647" r="3.2877" fill="#AB9FE6" fill-opacity="0.2"/>
<circle cx="192.342" cy="119.434" r="3.2877" fill="#AB9FE6" fill-opacity="0.2"/>
<circle cx="154.768" cy="138.221" r="3.2877" fill="#AB9FE6" fill-opacity="0.2"/>
<circle cx="117.194" cy="138.221" r="3.2877" fill="#AB9FE6" fill-opacity="0.2"/>
<circle cx="229.915" cy="63.0736" r="3.2877" fill="#AB9FE6" fill-opacity="0.2"/>
<circle cx="229.915" cy="81.8605" r="3.2877" fill="#AB9FE6" fill-opacity="0.2"/>
<circle cx="211.129" cy="100.647" r="3.2877" fill="#AB9FE6" fill-opacity="0.2"/>
<circle cx="286.276" cy="119.434" r="3.2877" fill="#AB9FE6" fill-opacity="0.2"/>
<circle cx="248.702" cy="138.221" r="3.2877" fill="#AB9FE6" fill-opacity="0.2"/>
<circle cx="173.555" cy="44.2867" r="3.2877" fill="#AB9FE6" fill-opacity="0.2"/>
<circle cx="173.555" cy="63.0736" r="3.2877" fill="#AB9FE6" fill-opacity="0.2"/>
<circle cx="173.555" cy="81.8605" r="3.2877" fill="#AB9FE6" fill-opacity="0.2"/>
<circle cx="154.768" cy="100.647" r="3.2877" fill="#AB9FE6" fill-opacity="0.2"/>
<circle cx="229.915" cy="119.434" r="3.2877" fill="#AB9FE6" fill-opacity="0.2"/>
<circle cx="192.342" cy="138.221" r="3.2877" fill="#AB9FE6" fill-opacity="0.2"/>
<circle cx="267.489" cy="63.0736" r="3.2877" fill="#AB9FE6" fill-opacity="0.2"/>
<circle cx="267.489" cy="81.8605" r="3.2877" fill="#AB9FE6" fill-opacity="0.2"/>
<circle cx="248.702" cy="100.647" r="3.2877" fill="#AB9FE6" fill-opacity="0.2"/>
<circle cx="267.489" cy="100.647" r="3.2877" fill="#AB9FE6" fill-opacity="0.2"/>
<circle cx="286.276" cy="138.221" r="3.2877" fill="#AB9FE6" fill-opacity="0.2"/>
<circle cx="154.768" cy="44.2867" r="3.2877" fill="#AB9FE6" fill-opacity="0.2"/>
<circle cx="154.768" cy="63.0736" r="3.2877" fill="#AB9FE6" fill-opacity="0.2"/>
<circle cx="154.768" cy="81.8605" r="3.2877" fill="#AB9FE6" fill-opacity="0.2"/>
<circle cx="135.981" cy="100.647" r="3.2877" fill="#AB9FE6" fill-opacity="0.2"/>
<circle cx="211.129" cy="119.434" r="3.2877" fill="#AB9FE6" fill-opacity="0.2"/>
<circle cx="173.555" cy="138.221" r="3.2877" fill="#AB9FE6" fill-opacity="0.2"/>
<circle cx="135.981" cy="138.221" r="3.2877" fill="#AB9FE6" fill-opacity="0.2"/>
<circle cx="248.702" cy="63.0736" r="3.2877" fill="#AB9FE6" fill-opacity="0.2"/>
<circle cx="248.702" cy="81.8605" r="3.2877" fill="#AB9FE6" fill-opacity="0.2"/>
<circle cx="229.915" cy="100.647" r="3.2877" fill="#AB9FE6" fill-opacity="0.2"/>
<circle cx="305.063" cy="119.434" r="3.2877" fill="#AB9FE6" fill-opacity="0.2"/>
<circle cx="267.489" cy="138.221" r="3.2877" fill="#AB9FE6" fill-opacity="0.2"/>
<circle cx="192.342" cy="44.2867" r="3.2877" fill="#AB9FE6" fill-opacity="0.2"/>
<circle cx="192.342" cy="63.0736" r="3.2877" fill="#AB9FE6" fill-opacity="0.2"/>
<circle cx="192.342" cy="81.8605" r="3.2877" fill="#AB9FE6" fill-opacity="0.2"/>
<circle cx="173.555" cy="100.647" r="3.2877" fill="#AB9FE6" fill-opacity="0.2"/>
<circle cx="248.702" cy="119.434" r="3.2877" fill="#AB9FE6" fill-opacity="0.2"/>
<circle cx="211.129" cy="138.221" r="3.2877" fill="#AB9FE6" fill-opacity="0.2"/>
<circle cx="286.276" cy="63.0736" r="3.2877" fill="#AB9FE6" fill-opacity="0.2"/>
<circle cx="211.129" cy="44.2867" r="3.2877" fill="#AB9FE6" fill-opacity="0.2"/>
<circle cx="211.129" cy="63.0736" r="3.2877" fill="#AB9FE6" fill-opacity="0.2"/>
<circle cx="211.129" cy="81.8605" r="3.2877" fill="#AB9FE6" fill-opacity="0.2"/>
<circle cx="192.342" cy="100.647" r="3.2877" fill="#AB9FE6" fill-opacity="0.2"/>
<circle cx="267.489" cy="119.434" r="3.2877" fill="#AB9FE6" fill-opacity="0.2"/>
<circle cx="229.915" cy="138.221" r="3.2877" fill="#AB9FE6" fill-opacity="0.2"/>
<path fill-rule="evenodd" clip-rule="evenodd" d="M153.43 305.519C155.149 304.237 156.941 303.1 158.79 302.108L141.199 319.699C142.191 317.85 143.328 316.057 144.61 314.339L153.43 305.519ZM139.004 324.476L163.567 299.913C164.548 299.533 165.541 299.191 166.542 298.886L137.977 327.451C138.282 326.45 138.624 325.457 139.004 324.476ZM136.629 333.33C136.755 332.53 136.903 331.732 137.073 330.938L170.029 297.982C170.823 297.812 171.621 297.664 172.421 297.538L136.629 333.33ZM136.142 338.348C136.169 337.654 136.212 336.961 136.272 336.269L175.36 297.181C176.052 297.121 176.745 297.078 177.439 297.051L136.142 338.348ZM136.201 342.82C136.16 342.198 136.134 341.576 136.12 340.953L180.044 297.029C180.667 297.042 181.289 297.069 181.911 297.11L136.201 342.82ZM136.66 346.891C136.569 346.323 136.489 345.754 136.42 345.183L184.274 297.329C184.845 297.397 185.414 297.478 185.982 297.569L136.66 346.891ZM137.438 350.645C137.305 350.12 137.181 349.594 137.068 349.066L188.157 297.977C188.685 298.09 189.212 298.214 189.736 298.347L137.438 350.645ZM138.483 354.131C138.314 353.644 138.154 353.154 138.003 352.662L191.753 298.912C192.245 299.063 192.735 299.223 193.222 299.392L138.483 354.131ZM139.762 357.383C139.561 356.928 139.369 356.471 139.185 356.011L195.102 300.094C195.562 300.278 196.019 300.47 196.474 300.671L139.762 357.383ZM141.251 360.425C141.021 360 140.8 359.572 140.586 359.141L198.232 301.495C198.663 301.709 199.091 301.93 199.516 302.16L141.251 360.425ZM142.933 363.273C142.677 362.875 142.428 362.474 142.187 362.071L201.162 303.096C201.566 303.337 201.966 303.586 202.364 303.842L142.933 363.273ZM144.799 365.939C144.517 365.567 144.243 365.192 143.975 364.814L203.905 304.884C204.283 305.151 204.658 305.426 205.03 305.707L144.799 365.939ZM146.837 368.43C146.531 368.084 146.232 367.733 145.939 367.38L206.471 306.848C206.825 307.141 207.175 307.44 207.521 307.746L146.837 368.43ZM149.045 370.754C148.93 370.642 148.816 370.529 148.703 370.416C148.491 370.204 148.282 369.99 148.075 369.775L208.866 308.984C209.081 309.191 209.295 309.4 209.507 309.612C209.62 309.725 209.733 309.839 209.845 309.954L149.045 370.754ZM151.419 372.912C151.068 372.616 150.721 372.313 150.377 372.004L211.095 311.286C211.404 311.63 211.707 311.977 212.003 312.328L151.419 372.912ZM153.962 374.899C153.587 374.628 153.215 374.35 152.847 374.065L213.156 313.756C213.441 314.124 213.719 314.496 213.99 314.871L153.962 374.899ZM156.682 376.71C156.281 376.465 155.884 376.213 155.49 375.953L215.044 316.399C215.304 316.793 215.556 317.19 215.801 317.591L156.682 376.71ZM159.586 378.336C159.159 378.118 158.735 377.893 158.313 377.66L216.751 319.222C216.984 319.644 217.209 320.068 217.427 320.495L159.586 378.336ZM162.689 379.764C162.234 379.576 161.78 379.38 161.33 379.175L218.266 322.239C218.471 322.689 218.667 323.142 218.855 323.598L162.689 379.764ZM166.009 380.975C165.521 380.82 165.036 380.655 164.553 380.482L219.573 325.462C219.746 325.945 219.911 326.43 220.066 326.917L166.009 380.975ZM169.571 381.944C169.048 381.826 168.526 381.697 168.007 381.559L220.65 328.916C220.789 329.435 220.917 329.957 221.035 330.48L169.571 381.944ZM173.413 382.633C172.848 382.558 172.285 382.471 171.723 382.374L221.465 332.632C221.562 333.194 221.649 333.757 221.724 334.322L173.413 382.633ZM177.594 382.982C176.979 382.961 176.364 382.926 175.75 382.879L221.97 336.658C222.017 337.273 222.052 337.888 222.074 338.503L177.594 382.982ZM182.211 382.897C181.529 382.946 180.846 382.979 180.164 382.996L222.087 341.072C222.07 341.755 222.037 342.438 221.988 343.12L182.211 382.897ZM187.441 382.198C186.663 382.351 185.882 382.482 185.098 382.592L221.683 346.007C221.573 346.791 221.442 347.572 221.289 348.35L187.441 382.198ZM193.705 380.465C192.757 380.806 191.8 381.113 190.835 381.386L220.477 351.744C220.204 352.709 219.897 353.666 219.556 354.614L193.705 380.465ZM202.799 375.901C201.312 376.885 199.777 377.767 198.205 378.547L217.638 359.114C216.858 360.686 215.976 362.221 214.992 363.708L202.799 375.901Z" fill="#8200FF"/>
<g filter="url(#filter0_d_917_3363)">
<rect x="50.8213" y="44.2866" width="487.128" height="293.116" rx="10" fill="white"/>
</g>
<path d="M50.8213 54.2866C50.8213 48.7638 55.2984 44.2866 60.8213 44.2866H527.949C533.472 44.2866 537.949 48.7638 537.949 54.2866V96.1377H50.8213V54.2866Z" fill="#CFCAEA" fill-opacity="0.6"/>
<path d="M132.132 142.845V136.71H128.847V135.51H133.617V142.845H132.132ZM132.747 134.085C132.427 134.085 132.162 133.99 131.952 133.8C131.742 133.6 131.637 133.34 131.637 133.02C131.637 132.7 131.742 132.445 131.952 132.255C132.162 132.055 132.427 131.955 132.747 131.955C133.067 131.955 133.332 132.055 133.542 132.255C133.752 132.445 133.857 132.7 133.857 133.02C133.857 133.34 133.752 133.6 133.542 133.8C133.332 133.99 133.067 134.085 132.747 134.085ZM140.541 143.025C139.591 143.025 138.826 142.69 138.246 142.02C137.666 141.34 137.376 140.395 137.376 139.185C137.376 138.395 137.531 137.715 137.841 137.145C138.161 136.565 138.571 136.12 139.071 135.81C139.571 135.49 140.101 135.33 140.661 135.33C141.091 135.33 141.476 135.41 141.816 135.57C142.156 135.73 142.471 135.955 142.761 136.245H142.806L142.731 134.94V132.21H144.216V142.845H143.001L142.881 141.945H142.836C142.546 142.235 142.201 142.49 141.801 142.71C141.401 142.92 140.981 143.025 140.541 143.025ZM140.886 141.795C141.216 141.795 141.531 141.715 141.831 141.555C142.141 141.385 142.441 141.135 142.731 140.805V137.325C142.441 137.055 142.151 136.865 141.861 136.755C141.571 136.635 141.281 136.575 140.991 136.575C140.611 136.575 140.261 136.68 139.941 136.89C139.631 137.1 139.381 137.4 139.191 137.79C139.001 138.18 138.906 138.64 138.906 139.17C138.906 140.01 139.081 140.66 139.431 141.12C139.781 141.57 140.266 141.795 140.886 141.795ZM150.03 137.355C149.8 137.355 149.59 137.27 149.4 137.1C149.22 136.92 149.13 136.68 149.13 136.38C149.13 136.06 149.22 135.82 149.4 135.66C149.59 135.49 149.8 135.405 150.03 135.405C150.27 135.405 150.48 135.49 150.66 135.66C150.84 135.82 150.93 136.06 150.93 136.38C150.93 136.68 150.84 136.92 150.66 137.1C150.48 137.27 150.27 137.355 150.03 137.355ZM150.03 143.025C149.8 143.025 149.59 142.94 149.4 142.77C149.22 142.59 149.13 142.35 149.13 142.05C149.13 141.73 149.22 141.49 149.4 141.33C149.59 141.16 149.8 141.075 150.03 141.075C150.27 141.075 150.48 141.16 150.66 141.33C150.84 141.49 150.93 141.73 150.93 142.05C150.93 142.35 150.84 142.59 150.66 142.77C150.48 142.94 150.27 143.025 150.03 143.025ZM128.862 165.845V158.51H130.077L130.197 159.695H130.257C130.627 159.315 131.027 158.995 131.457 158.735C131.887 158.465 132.387 158.33 132.957 158.33C133.807 158.33 134.432 158.59 134.832 159.11C135.242 159.62 135.447 160.35 135.447 161.3V165.845H133.962V161.495C133.962 160.855 133.842 160.385 133.602 160.085C133.372 159.775 132.982 159.62 132.432 159.62C132.042 159.62 131.692 159.72 131.382 159.92C131.072 160.11 130.727 160.4 130.347 160.79V165.845H128.862ZM140.151 166.025C139.681 166.025 139.256 165.94 138.876 165.77C138.506 165.59 138.211 165.345 137.991 165.035C137.781 164.715 137.676 164.34 137.676 163.91C137.676 163.09 138.076 162.465 138.876 162.035C139.686 161.605 141.011 161.32 142.851 161.18C142.841 160.88 142.771 160.605 142.641 160.355C142.521 160.105 142.326 159.91 142.056 159.77C141.796 159.62 141.451 159.545 141.021 159.545C140.721 159.545 140.426 159.585 140.136 159.665C139.846 159.735 139.566 159.835 139.296 159.965C139.026 160.095 138.771 160.23 138.531 160.37L137.976 159.365C138.246 159.205 138.556 159.045 138.906 158.885C139.256 158.715 139.631 158.58 140.031 158.48C140.441 158.38 140.856 158.33 141.276 158.33C141.956 158.33 142.521 158.455 142.971 158.705C143.421 158.955 143.761 159.31 143.991 159.77C144.221 160.23 144.336 160.785 144.336 161.435V165.845H143.121L143.001 164.9H142.956C142.566 165.2 142.126 165.465 141.636 165.695C141.146 165.915 140.651 166.025 140.151 166.025ZM140.571 164.84C140.961 164.84 141.346 164.755 141.726 164.585C142.106 164.415 142.481 164.175 142.851 163.865V162.125C141.891 162.195 141.136 162.305 140.586 162.455C140.046 162.605 139.666 162.795 139.446 163.025C139.226 163.245 139.116 163.505 139.116 163.805C139.116 164.045 139.181 164.245 139.311 164.405C139.451 164.555 139.631 164.665 139.851 164.735C140.071 164.805 140.311 164.84 140.571 164.84ZM146.31 165.845V158.51H147.48L147.6 159.47H147.63C147.81 159.14 148.025 158.87 148.275 158.66C148.525 158.44 148.86 158.33 149.28 158.33C149.63 158.33 149.92 158.435 150.15 158.645C150.38 158.855 150.54 159.17 150.63 159.59C150.83 159.21 151.055 158.905 151.305 158.675C151.565 158.445 151.905 158.33 152.325 158.33C152.845 158.33 153.245 158.53 153.525 158.93C153.815 159.33 153.96 159.895 153.96 160.625V165.845H152.505V160.73C152.505 159.98 152.28 159.605 151.83 159.605C151.61 159.605 151.425 159.69 151.275 159.86C151.125 160.03 150.96 160.285 150.78 160.625V165.845H149.49V160.73C149.49 160.36 149.435 160.08 149.325 159.89C149.225 159.7 149.06 159.605 148.83 159.605C148.61 159.605 148.415 159.69 148.245 159.86C148.085 160.03 147.925 160.285 147.765 160.625V165.845H146.31ZM159.474 166.025C158.734 166.025 158.059 165.875 157.449 165.575C156.849 165.275 156.374 164.835 156.024 164.255C155.674 163.675 155.499 162.98 155.499 162.17C155.499 161.37 155.674 160.685 156.024 160.115C156.384 159.545 156.849 159.105 157.419 158.795C157.989 158.485 158.599 158.33 159.249 158.33C159.969 158.33 160.579 158.48 161.079 158.78C161.579 159.07 161.959 159.475 162.219 159.995C162.489 160.505 162.624 161.105 162.624 161.795C162.624 161.945 162.619 162.095 162.609 162.245C162.599 162.385 162.584 162.505 162.564 162.605H156.534V161.51H161.634L161.304 161.87C161.304 161.08 161.124 160.49 160.764 160.1C160.404 159.7 159.914 159.5 159.294 159.5C158.864 159.5 158.469 159.605 158.109 159.815C157.759 160.015 157.479 160.315 157.269 160.715C157.059 161.105 156.954 161.59 156.954 162.17C156.954 162.77 157.069 163.27 157.299 163.67C157.539 164.06 157.859 164.355 158.259 164.555C158.669 164.755 159.139 164.855 159.669 164.855C160.079 164.855 160.454 164.8 160.794 164.69C161.134 164.57 161.469 164.41 161.799 164.21L162.324 165.155C161.954 165.405 161.529 165.615 161.049 165.785C160.569 165.945 160.044 166.025 159.474 166.025ZM168.108 166.025C167.418 166.025 166.758 165.91 166.128 165.68C165.498 165.45 164.963 165.185 164.523 164.885L165.183 163.925C165.613 164.225 166.078 164.46 166.578 164.63C167.088 164.8 167.663 164.885 168.303 164.885C168.863 164.885 169.278 164.785 169.548 164.585C169.828 164.385 169.968 164.15 169.968 163.88C169.968 163.75 169.938 163.63 169.878 163.52C169.828 163.41 169.728 163.31 169.578 163.22C169.438 163.12 169.223 163.025 168.933 162.935C168.653 162.845 168.283 162.75 167.823 162.65C166.853 162.45 166.133 162.175 165.663 161.825C165.203 161.475 164.973 161.025 164.973 160.475C164.973 159.855 165.238 159.345 165.768 158.945C166.308 158.535 167.088 158.33 168.108 158.33C168.688 158.33 169.238 158.43 169.758 158.63C170.288 158.82 170.738 159.04 171.108 159.29L170.418 160.22C170.068 159.99 169.683 159.81 169.263 159.68C168.853 159.54 168.423 159.47 167.973 159.47C167.603 159.47 167.308 159.515 167.088 159.605C166.868 159.685 166.708 159.795 166.608 159.935C166.508 160.075 166.458 160.23 166.458 160.4C166.458 160.68 166.613 160.9 166.923 161.06C167.243 161.21 167.758 161.36 168.468 161.51C169.268 161.68 169.883 161.87 170.313 162.08C170.753 162.29 171.053 162.535 171.213 162.815C171.383 163.085 171.468 163.41 171.468 163.79C171.468 164.2 171.338 164.575 171.078 164.915C170.818 165.255 170.438 165.525 169.938 165.725C169.448 165.925 168.838 166.025 168.108 166.025ZM173.832 168.845V158.51H175.047L175.167 159.41H175.212C175.542 159.1 175.922 158.845 176.352 158.645C176.782 158.435 177.217 158.33 177.657 158.33C178.307 158.33 178.852 158.485 179.292 158.795C179.742 159.105 180.082 159.54 180.312 160.1C180.552 160.66 180.672 161.315 180.672 162.065C180.672 162.905 180.517 163.62 180.207 164.21C179.897 164.8 179.492 165.25 178.992 165.56C178.492 165.87 177.952 166.025 177.372 166.025C177.042 166.025 176.687 165.945 176.307 165.785C175.937 165.625 175.597 165.405 175.287 165.125H175.242L175.317 166.445V168.845H173.832ZM177.087 164.795C177.477 164.795 177.827 164.69 178.137 164.48C178.447 164.27 178.692 163.965 178.872 163.565C179.052 163.155 179.142 162.66 179.142 162.08C179.142 161.57 179.072 161.13 178.932 160.76C178.802 160.38 178.602 160.09 178.332 159.89C178.062 159.68 177.702 159.575 177.252 159.575C176.952 159.575 176.637 159.655 176.307 159.815C175.977 159.965 175.647 160.215 175.317 160.565V164.03C175.627 164.3 175.942 164.495 176.262 164.615C176.582 164.735 176.857 164.795 177.087 164.795ZM185.121 166.025C184.651 166.025 184.226 165.94 183.846 165.77C183.476 165.59 183.181 165.345 182.961 165.035C182.751 164.715 182.646 164.34 182.646 163.91C182.646 163.09 183.046 162.465 183.846 162.035C184.656 161.605 185.981 161.32 187.821 161.18C187.811 160.88 187.741 160.605 187.611 160.355C187.491 160.105 187.296 159.91 187.026 159.77C186.766 159.62 186.421 159.545 185.991 159.545C185.691 159.545 185.396 159.585 185.106 159.665C184.816 159.735 184.536 159.835 184.266 159.965C183.996 160.095 183.741 160.23 183.501 160.37L182.946 159.365C183.216 159.205 183.526 159.045 183.876 158.885C184.226 158.715 184.601 158.58 185.001 158.48C185.411 158.38 185.826 158.33 186.246 158.33C186.926 158.33 187.491 158.455 187.941 158.705C188.391 158.955 188.731 159.31 188.961 159.77C189.191 160.23 189.306 160.785 189.306 161.435V165.845H188.091L187.971 164.9H187.926C187.536 165.2 187.096 165.465 186.606 165.695C186.116 165.915 185.621 166.025 185.121 166.025ZM185.541 164.84C185.931 164.84 186.316 164.755 186.696 164.585C187.076 164.415 187.451 164.175 187.821 163.865V162.125C186.861 162.195 186.106 162.305 185.556 162.455C185.016 162.605 184.636 162.795 184.416 163.025C184.196 163.245 184.086 163.505 184.086 163.805C184.086 164.045 184.151 164.245 184.281 164.405C184.421 164.555 184.601 164.665 184.821 164.735C185.041 164.805 185.281 164.84 185.541 164.84ZM195.675 166.025C194.915 166.025 194.23 165.875 193.62 165.575C193.01 165.275 192.525 164.84 192.165 164.27C191.815 163.69 191.64 162.995 191.64 162.185C191.64 161.375 191.83 160.685 192.21 160.115C192.59 159.535 193.09 159.095 193.71 158.795C194.34 158.485 195.025 158.33 195.765 158.33C196.365 158.33 196.89 158.435 197.34 158.645C197.79 158.845 198.165 159.09 198.465 159.38L197.745 160.325C197.445 160.085 197.14 159.9 196.83 159.77C196.53 159.63 196.2 159.56 195.84 159.56C195.32 159.56 194.855 159.67 194.445 159.89C194.045 160.11 193.73 160.42 193.5 160.82C193.28 161.21 193.17 161.665 193.17 162.185C193.17 162.715 193.28 163.175 193.5 163.565C193.72 163.955 194.025 164.26 194.415 164.48C194.815 164.7 195.275 164.81 195.795 164.81C196.235 164.81 196.635 164.725 196.995 164.555C197.355 164.385 197.68 164.18 197.97 163.94L198.615 164.9C198.205 165.26 197.745 165.54 197.235 165.74C196.735 165.93 196.215 166.025 195.675 166.025ZM204.445 166.025C203.705 166.025 203.03 165.875 202.42 165.575C201.82 165.275 201.345 164.835 200.995 164.255C200.645 163.675 200.47 162.98 200.47 162.17C200.47 161.37 200.645 160.685 200.995 160.115C201.355 159.545 201.82 159.105 202.39 158.795C202.96 158.485 203.57 158.33 204.22 158.33C204.94 158.33 205.55 158.48 206.05 158.78C206.55 159.07 206.93 159.475 207.19 159.995C207.46 160.505 207.595 161.105 207.595 161.795C207.595 161.945 207.59 162.095 207.58 162.245C207.57 162.385 207.555 162.505 207.535 162.605H201.505V161.51H206.605L206.275 161.87C206.275 161.08 206.095 160.49 205.735 160.1C205.375 159.7 204.885 159.5 204.265 159.5C203.835 159.5 203.44 159.605 203.08 159.815C202.73 160.015 202.45 160.315 202.24 160.715C202.03 161.105 201.925 161.59 201.925 162.17C201.925 162.77 202.04 163.27 202.27 163.67C202.51 164.06 202.83 164.355 203.23 164.555C203.64 164.755 204.11 164.855 204.64 164.855C205.05 164.855 205.425 164.8 205.765 164.69C206.105 164.57 206.44 164.41 206.77 164.21L207.295 165.155C206.925 165.405 206.5 165.615 206.02 165.785C205.54 165.945 205.015 166.025 204.445 166.025ZM212.989 160.355C212.759 160.355 212.549 160.27 212.359 160.1C212.179 159.92 212.089 159.68 212.089 159.38C212.089 159.06 212.179 158.82 212.359 158.66C212.549 158.49 212.759 158.405 212.989 158.405C213.229 158.405 213.439 158.49 213.619 158.66C213.799 158.82 213.889 159.06 213.889 159.38C213.889 159.68 213.799 159.92 213.619 160.1C213.439 160.27 213.229 160.355 212.989 160.355ZM212.989 166.025C212.759 166.025 212.549 165.94 212.359 165.77C212.179 165.59 212.089 165.35 212.089 165.05C212.089 164.73 212.179 164.49 212.359 164.33C212.549 164.16 212.759 164.075 212.989 164.075C213.229 164.075 213.439 164.16 213.619 164.33C213.799 164.49 213.889 164.73 213.889 165.05C213.889 165.35 213.799 165.59 213.619 165.77C213.439 165.94 213.229 166.025 212.989 166.025ZM131.547 189.025C130.597 189.025 129.832 188.69 129.252 188.02C128.672 187.34 128.382 186.395 128.382 185.185C128.382 184.395 128.537 183.715 128.847 183.145C129.167 182.565 129.577 182.12 130.077 181.81C130.577 181.49 131.107 181.33 131.667 181.33C132.097 181.33 132.482 181.41 132.822 181.57C133.162 181.73 133.477 181.955 133.767 182.245H133.812L133.737 180.94V178.21H135.222V188.845H134.007L133.887 187.945H133.842C133.552 188.235 133.207 188.49 132.807 188.71C132.407 188.92 131.987 189.025 131.547 189.025ZM131.892 187.795C132.222 187.795 132.537 187.715 132.837 187.555C133.147 187.385 133.447 187.135 133.737 186.805V183.325C133.447 183.055 133.157 182.865 132.867 182.755C132.577 182.635 132.287 182.575 131.997 182.575C131.617 182.575 131.267 182.68 130.947 182.89C130.637 183.1 130.387 183.4 130.197 183.79C130.007 184.18 129.912 184.64 129.912 185.17C129.912 186.01 130.087 186.66 130.437 187.12C130.787 187.57 131.272 187.795 131.892 187.795ZM141.486 189.025C140.746 189.025 140.071 188.875 139.461 188.575C138.861 188.275 138.386 187.835 138.036 187.255C137.686 186.675 137.511 185.98 137.511 185.17C137.511 184.37 137.686 183.685 138.036 183.115C138.396 182.545 138.861 182.105 139.431 181.795C140.001 181.485 140.611 181.33 141.261 181.33C141.981 181.33 142.591 181.48 143.091 181.78C143.591 182.07 143.971 182.475 144.231 182.995C144.501 183.505 144.636 184.105 144.636 184.795C144.636 184.945 144.631 185.095 144.621 185.245C144.611 185.385 144.596 185.505 144.576 185.605H138.546V184.51H143.646L143.316 184.87C143.316 184.08 143.136 183.49 142.776 183.1C142.416 182.7 141.926 182.5 141.306 182.5C140.876 182.5 140.481 182.605 140.121 182.815C139.771 183.015 139.491 183.315 139.281 183.715C139.071 184.105 138.966 184.59 138.966 185.17C138.966 185.77 139.081 186.27 139.311 186.67C139.551 187.06 139.871 187.355 140.271 187.555C140.681 187.755 141.151 187.855 141.681 187.855C142.091 187.855 142.466 187.8 142.806 187.69C143.146 187.57 143.481 187.41 143.811 187.21L144.336 188.155C143.966 188.405 143.541 188.615 143.061 188.785C142.581 188.945 142.056 189.025 141.486 189.025ZM150.12 189.025C149.43 189.025 148.77 188.91 148.14 188.68C147.51 188.45 146.975 188.185 146.535 187.885L147.195 186.925C147.625 187.225 148.09 187.46 148.59 187.63C149.1 187.8 149.675 187.885 150.315 187.885C150.875 187.885 151.29 187.785 151.56 187.585C151.84 187.385 151.98 187.15 151.98 186.88C151.98 186.75 151.95 186.63 151.89 186.52C151.84 186.41 151.74 186.31 151.59 186.22C151.45 186.12 151.235 186.025 150.945 185.935C150.665 185.845 150.295 185.75 149.835 185.65C148.865 185.45 148.145 185.175 147.675 184.825C147.215 184.475 146.985 184.025 146.985 183.475C146.985 182.855 147.25 182.345 147.78 181.945C148.32 181.535 149.1 181.33 150.12 181.33C150.7 181.33 151.25 181.43 151.77 181.63C152.3 181.82 152.75 182.04 153.12 182.29L152.43 183.22C152.08 182.99 151.695 182.81 151.275 182.68C150.865 182.54 150.435 182.47 149.985 182.47C149.615 182.47 149.32 182.515 149.1 182.605C148.88 182.685 148.72 182.795 148.62 182.935C148.52 183.075 148.47 183.23 148.47 183.4C148.47 183.68 148.625 183.9 148.935 184.06C149.255 184.21 149.77 184.36 150.48 184.51C151.28 184.68 151.895 184.87 152.325 185.08C152.765 185.29 153.065 185.535 153.225 185.815C153.395 186.085 153.48 186.41 153.48 186.79C153.48 187.2 153.35 187.575 153.09 187.915C152.83 188.255 152.45 188.525 151.95 188.725C151.46 188.925 150.85 189.025 150.12 189.025ZM159.699 189.025C158.939 189.025 158.254 188.875 157.644 188.575C157.034 188.275 156.549 187.84 156.189 187.27C155.839 186.69 155.664 185.995 155.664 185.185C155.664 184.375 155.854 183.685 156.234 183.115C156.614 182.535 157.114 182.095 157.734 181.795C158.364 181.485 159.049 181.33 159.789 181.33C160.389 181.33 160.914 181.435 161.364 181.645C161.814 181.845 162.189 182.09 162.489 182.38L161.769 183.325C161.469 183.085 161.164 182.9 160.854 182.77C160.554 182.63 160.224 182.56 159.864 182.56C159.344 182.56 158.879 182.67 158.469 182.89C158.069 183.11 157.754 183.42 157.524 183.82C157.304 184.21 157.194 184.665 157.194 185.185C157.194 185.715 157.304 186.175 157.524 186.565C157.744 186.955 158.049 187.26 158.439 187.48C158.839 187.7 159.299 187.81 159.819 187.81C160.259 187.81 160.659 187.725 161.019 187.555C161.379 187.385 161.704 187.18 161.994 186.94L162.639 187.9C162.229 188.26 161.769 188.54 161.259 188.74C160.759 188.93 160.239 189.025 159.699 189.025ZM165.588 188.845V181.51H166.818L166.938 183.22H166.983C167.363 182.62 167.828 182.155 168.378 181.825C168.928 181.495 169.528 181.33 170.178 181.33C170.458 181.33 170.713 181.355 170.943 181.405C171.173 181.455 171.398 181.53 171.618 181.63L171.288 182.905C171.038 182.815 170.823 182.755 170.643 182.725C170.463 182.685 170.233 182.665 169.953 182.665C169.423 182.665 168.913 182.815 168.423 183.115C167.933 183.415 167.483 183.935 167.073 184.675V188.845H165.588ZM177.102 188.845V182.71H173.817V181.51H178.587V188.845H177.102ZM177.717 180.085C177.397 180.085 177.132 179.99 176.922 179.8C176.712 179.6 176.607 179.34 176.607 179.02C176.607 178.7 176.712 178.445 176.922 178.255C177.132 178.055 177.397 177.955 177.717 177.955C178.037 177.955 178.302 178.055 178.512 178.255C178.722 178.445 178.827 178.7 178.827 179.02C178.827 179.34 178.722 179.6 178.512 179.8C178.302 179.99 178.037 180.085 177.717 180.085ZM182.826 191.845V181.51H184.041L184.161 182.41H184.206C184.536 182.1 184.916 181.845 185.346 181.645C185.776 181.435 186.211 181.33 186.651 181.33C187.301 181.33 187.846 181.485 188.286 181.795C188.736 182.105 189.076 182.54 189.306 183.1C189.546 183.66 189.666 184.315 189.666 185.065C189.666 185.905 189.511 186.62 189.201 187.21C188.891 187.8 188.486 188.25 187.986 188.56C187.486 188.87 186.946 189.025 186.366 189.025C186.036 189.025 185.681 188.945 185.301 188.785C184.931 188.625 184.591 188.405 184.281 188.125H184.236L184.311 189.445V191.845H182.826ZM186.081 187.795C186.471 187.795 186.821 187.69 187.131 187.48C187.441 187.27 187.686 186.965 187.866 186.565C188.046 186.155 188.136 185.66 188.136 185.08C188.136 184.57 188.066 184.13 187.926 183.76C187.796 183.38 187.596 183.09 187.326 182.89C187.056 182.68 186.696 182.575 186.246 182.575C185.946 182.575 185.631 182.655 185.301 182.815C184.971 182.965 184.641 183.215 184.311 183.565V187.03C184.621 187.3 184.936 187.495 185.256 187.615C185.576 187.735 185.851 187.795 186.081 187.795ZM196.395 189.025C195.655 189.025 195.07 188.895 194.64 188.635C194.22 188.375 193.92 188.015 193.74 187.555C193.56 187.095 193.47 186.56 193.47 185.95V182.71H191.46V181.6L193.53 181.51L193.725 179.2H194.955V181.51H198.42V182.71H194.955V185.95C194.955 186.36 195.01 186.71 195.12 187C195.23 187.28 195.415 187.49 195.675 187.63C195.935 187.76 196.285 187.825 196.725 187.825C197.055 187.825 197.355 187.8 197.625 187.75C197.895 187.69 198.155 187.615 198.405 187.525L198.705 188.605C198.375 188.715 198.02 188.81 197.64 188.89C197.27 188.98 196.855 189.025 196.395 189.025ZM204.085 188.845V182.71H200.8V181.51H205.57V188.845H204.085ZM204.7 180.085C204.38 180.085 204.115 179.99 203.905 179.8C203.695 179.6 203.59 179.34 203.59 179.02C203.59 178.7 203.695 178.445 203.905 178.255C204.115 178.055 204.38 177.955 204.7 177.955C205.02 177.955 205.285 178.055 205.495 178.255C205.705 178.445 205.81 178.7 205.81 179.02C205.81 179.34 205.705 179.6 205.495 179.8C205.285 179.99 205.02 180.085 204.7 180.085ZM212.989 189.025C212.349 189.025 211.749 188.875 211.189 188.575C210.639 188.275 210.189 187.84 209.839 187.27C209.499 186.69 209.329 185.995 209.329 185.185C209.329 184.375 209.499 183.685 209.839 183.115C210.189 182.535 210.639 182.095 211.189 181.795C211.749 181.485 212.349 181.33 212.989 181.33C213.629 181.33 214.224 181.485 214.774 181.795C215.334 182.095 215.784 182.535 216.124 183.115C216.474 183.685 216.649 184.375 216.649 185.185C216.649 185.995 216.474 186.69 216.124 187.27C215.784 187.84 215.334 188.275 214.774 188.575C214.224 188.875 213.629 189.025 212.989 189.025ZM212.989 187.81C213.419 187.81 213.794 187.7 214.114 187.48C214.434 187.26 214.679 186.955 214.849 186.565C215.029 186.175 215.119 185.715 215.119 185.185C215.119 184.665 215.029 184.21 214.849 183.82C214.679 183.42 214.434 183.11 214.114 182.89C213.794 182.67 213.419 182.56 212.989 182.56C212.559 182.56 212.184 182.67 211.864 182.89C211.544 183.11 211.294 183.42 211.114 183.82C210.944 184.21 210.859 184.665 210.859 185.185C210.859 185.715 210.944 186.175 211.114 186.565C211.294 186.955 211.544 187.26 211.864 187.48C212.184 187.7 212.559 187.81 212.989 187.81ZM218.803 188.845V181.51H220.018L220.138 182.695H220.198C220.568 182.315 220.968 181.995 221.398 181.735C221.828 181.465 222.328 181.33 222.898 181.33C223.748 181.33 224.373 181.59 224.773 182.11C225.183 182.62 225.388 183.35 225.388 184.3V188.845H223.903V184.495C223.903 183.855 223.783 183.385 223.543 183.085C223.313 182.775 222.923 182.62 222.373 182.62C221.983 182.62 221.633 182.72 221.323 182.92C221.013 183.11 220.668 183.4 220.288 183.79V188.845H218.803ZM230.977 183.355C230.747 183.355 230.537 183.27 230.347 183.1C230.167 182.92 230.077 182.68 230.077 182.38C230.077 182.06 230.167 181.82 230.347 181.66C230.537 181.49 230.747 181.405 230.977 181.405C231.217 181.405 231.427 181.49 231.607 181.66C231.787 181.82 231.877 182.06 231.877 182.38C231.877 182.68 231.787 182.92 231.607 183.1C231.427 183.27 231.217 183.355 230.977 183.355ZM230.977 189.025C230.747 189.025 230.537 188.94 230.347 188.77C230.167 188.59 230.077 188.35 230.077 188.05C230.077 187.73 230.167 187.49 230.347 187.33C230.537 187.16 230.747 187.075 230.977 187.075C231.217 187.075 231.427 187.16 231.607 187.33C231.787 187.49 231.877 187.73 231.877 188.05C231.877 188.35 231.787 188.59 231.607 188.77C231.427 188.94 231.217 189.025 230.977 189.025ZM133.437 212.025C132.697 212.025 132.112 211.895 131.682 211.635C131.262 211.375 130.962 211.015 130.782 210.555C130.602 210.095 130.512 209.56 130.512 208.95V205.71H128.502V204.6L130.572 204.51L130.767 202.2H131.997V204.51H135.462V205.71H131.997V208.95C131.997 209.36 132.052 209.71 132.162 210C132.272 210.28 132.457 210.49 132.717 210.63C132.977 210.76 133.327 210.825 133.767 210.825C134.097 210.825 134.397 210.8 134.667 210.75C134.937 210.69 135.197 210.615 135.447 210.525L135.747 211.605C135.417 211.715 135.062 211.81 134.682 211.89C134.312 211.98 133.897 212.025 133.437 212.025ZM140.151 212.025C139.681 212.025 139.256 211.94 138.876 211.77C138.506 211.59 138.211 211.345 137.991 211.035C137.781 210.715 137.676 210.34 137.676 209.91C137.676 209.09 138.076 208.465 138.876 208.035C139.686 207.605 141.011 207.32 142.851 207.18C142.841 206.88 142.771 206.605 142.641 206.355C142.521 206.105 142.326 205.91 142.056 205.77C141.796 205.62 141.451 205.545 141.021 205.545C140.721 205.545 140.426 205.585 140.136 205.665C139.846 205.735 139.566 205.835 139.296 205.965C139.026 206.095 138.771 206.23 138.531 206.37L137.976 205.365C138.246 205.205 138.556 205.045 138.906 204.885C139.256 204.715 139.631 204.58 140.031 204.48C140.441 204.38 140.856 204.33 141.276 204.33C141.956 204.33 142.521 204.455 142.971 204.705C143.421 204.955 143.761 205.31 143.991 205.77C144.221 206.23 144.336 206.785 144.336 207.435V211.845H143.121L143.001 210.9H142.956C142.566 211.2 142.126 211.465 141.636 211.695C141.146 211.915 140.651 212.025 140.151 212.025ZM140.571 210.84C140.961 210.84 141.346 210.755 141.726 210.585C142.106 210.415 142.481 210.175 142.851 209.865V208.125C141.891 208.195 141.136 208.305 140.586 208.455C140.046 208.605 139.666 208.795 139.446 209.025C139.226 209.245 139.116 209.505 139.116 209.805C139.116 210.045 139.181 210.245 139.311 210.405C139.451 210.555 139.631 210.665 139.851 210.735C140.071 210.805 140.311 210.84 140.571 210.84ZM150.12 212.025C149.43 212.025 148.77 211.91 148.14 211.68C147.51 211.45 146.975 211.185 146.535 210.885L147.195 209.925C147.625 210.225 148.09 210.46 148.59 210.63C149.1 210.8 149.675 210.885 150.315 210.885C150.875 210.885 151.29 210.785 151.56 210.585C151.84 210.385 151.98 210.15 151.98 209.88C151.98 209.75 151.95 209.63 151.89 209.52C151.84 209.41 151.74 209.31 151.59 209.22C151.45 209.12 151.235 209.025 150.945 208.935C150.665 208.845 150.295 208.75 149.835 208.65C148.865 208.45 148.145 208.175 147.675 207.825C147.215 207.475 146.985 207.025 146.985 206.475C146.985 205.855 147.25 205.345 147.78 204.945C148.32 204.535 149.1 204.33 150.12 204.33C150.7 204.33 151.25 204.43 151.77 204.63C152.3 204.82 152.75 205.04 153.12 205.29L152.43 206.22C152.08 205.99 151.695 205.81 151.275 205.68C150.865 205.54 150.435 205.47 149.985 205.47C149.615 205.47 149.32 205.515 149.1 205.605C148.88 205.685 148.72 205.795 148.62 205.935C148.52 206.075 148.47 206.23 148.47 206.4C148.47 206.68 148.625 206.9 148.935 207.06C149.255 207.21 149.77 207.36 150.48 207.51C151.28 207.68 151.895 207.87 152.325 208.08C152.765 208.29 153.065 208.535 153.225 208.815C153.395 209.085 153.48 209.41 153.48 209.79C153.48 210.2 153.35 210.575 153.09 210.915C152.83 211.255 152.45 211.525 151.95 211.725C151.46 211.925 150.85 212.025 150.12 212.025ZM155.994 211.845V201.21H157.479V208.14H157.539L161.154 204.51H162.819L157.479 209.895V211.845H155.994ZM161.544 211.845L158.859 208.095L159.744 207.15L163.179 211.845H161.544ZM168.108 212.025C167.418 212.025 166.758 211.91 166.128 211.68C165.498 211.45 164.963 211.185 164.523 210.885L165.183 209.925C165.613 210.225 166.078 210.46 166.578 210.63C167.088 210.8 167.663 210.885 168.303 210.885C168.863 210.885 169.278 210.785 169.548 210.585C169.828 210.385 169.968 210.15 169.968 209.88C169.968 209.75 169.938 209.63 169.878 209.52C169.828 209.41 169.728 209.31 169.578 209.22C169.438 209.12 169.223 209.025 168.933 208.935C168.653 208.845 168.283 208.75 167.823 208.65C166.853 208.45 166.133 208.175 165.663 207.825C165.203 207.475 164.973 207.025 164.973 206.475C164.973 205.855 165.238 205.345 165.768 204.945C166.308 204.535 167.088 204.33 168.108 204.33C168.688 204.33 169.238 204.43 169.758 204.63C170.288 204.82 170.738 205.04 171.108 205.29L170.418 206.22C170.068 205.99 169.683 205.81 169.263 205.68C168.853 205.54 168.423 205.47 167.973 205.47C167.603 205.47 167.308 205.515 167.088 205.605C166.868 205.685 166.708 205.795 166.608 205.935C166.508 206.075 166.458 206.23 166.458 206.4C166.458 206.68 166.613 206.9 166.923 207.06C167.243 207.21 167.758 207.36 168.468 207.51C169.268 207.68 169.883 207.87 170.313 208.08C170.753 208.29 171.053 208.535 171.213 208.815C171.383 209.085 171.468 209.41 171.468 209.79C171.468 210.2 171.338 210.575 171.078 210.915C170.818 211.255 170.438 211.525 169.938 211.725C169.448 211.925 168.838 212.025 168.108 212.025ZM177.012 206.355C176.782 206.355 176.572 206.27 176.382 206.1C176.202 205.92 176.112 205.68 176.112 205.38C176.112 205.06 176.202 204.82 176.382 204.66C176.572 204.49 176.782 204.405 177.012 204.405C177.252 204.405 177.462 204.49 177.642 204.66C177.822 204.82 177.912 205.06 177.912 205.38C177.912 205.68 177.822 205.92 177.642 206.1C177.462 206.27 177.252 206.355 177.012 206.355ZM177.012 212.025C176.782 212.025 176.572 211.94 176.382 211.77C176.202 211.59 176.112 211.35 176.112 211.05C176.112 210.73 176.202 210.49 176.382 210.33C176.572 210.16 176.782 210.075 177.012 210.075C177.252 210.075 177.462 210.16 177.642 210.33C177.822 210.49 177.912 210.73 177.912 211.05C177.912 211.35 177.822 211.59 177.642 211.77C177.462 211.94 177.252 212.025 177.012 212.025ZM128.967 230.18V229.61H135.117V230.18H128.967ZM150.12 234.845V228.71H146.835V227.51H151.605V234.845H150.12ZM150.735 226.085C150.415 226.085 150.15 225.99 149.94 225.8C149.73 225.6 149.625 225.34 149.625 225.02C149.625 224.7 149.73 224.445 149.94 224.255C150.15 224.055 150.415 223.955 150.735 223.955C151.055 223.955 151.32 224.055 151.53 224.255C151.74 224.445 151.845 224.7 151.845 225.02C151.845 225.34 151.74 225.6 151.53 225.8C151.32 225.99 151.055 226.085 150.735 226.085ZM158.529 235.025C157.579 235.025 156.814 234.69 156.234 234.02C155.654 233.34 155.364 232.395 155.364 231.185C155.364 230.395 155.519 229.715 155.829 229.145C156.149 228.565 156.559 228.12 157.059 227.81C157.559 227.49 158.089 227.33 158.649 227.33C159.079 227.33 159.464 227.41 159.804 227.57C160.144 227.73 160.459 227.955 160.749 228.245H160.794L160.719 226.94V224.21H162.204V234.845H160.989L160.869 233.945H160.824C160.534 234.235 160.189 234.49 159.789 234.71C159.389 234.92 158.969 235.025 158.529 235.025ZM158.874 233.795C159.204 233.795 159.519 233.715 159.819 233.555C160.129 233.385 160.429 233.135 160.719 232.805V229.325C160.429 229.055 160.139 228.865 159.849 228.755C159.559 228.635 159.269 228.575 158.979 228.575C158.599 228.575 158.249 228.68 157.929 228.89C157.619 229.1 157.369 229.4 157.179 229.79C156.989 230.18 156.894 230.64 156.894 231.17C156.894 232.01 157.069 232.66 157.419 233.12C157.769 233.57 158.254 233.795 158.874 233.795ZM168.018 229.355C167.788 229.355 167.578 229.27 167.388 229.1C167.208 228.92 167.118 228.68 167.118 228.38C167.118 228.06 167.208 227.82 167.388 227.66C167.578 227.49 167.788 227.405 168.018 227.405C168.258 227.405 168.468 227.49 168.648 227.66C168.828 227.82 168.918 228.06 168.918 228.38C168.918 228.68 168.828 228.92 168.648 229.1C168.468 229.27 168.258 229.355 168.018 229.355ZM168.018 235.025C167.788 235.025 167.578 234.94 167.388 234.77C167.208 234.59 167.118 234.35 167.118 234.05C167.118 233.73 167.208 233.49 167.388 233.33C167.578 233.16 167.788 233.075 168.018 233.075C168.258 233.075 168.468 233.16 168.648 233.33C168.828 233.49 168.918 233.73 168.918 234.05C168.918 234.35 168.828 234.59 168.648 234.77C168.468 234.94 168.258 235.025 168.018 235.025ZM128.967 253.18V252.61H135.117V253.18H128.967ZM150.12 257.845V251.71H146.835V250.51H151.605V257.845H150.12ZM150.735 249.085C150.415 249.085 150.15 248.99 149.94 248.8C149.73 248.6 149.625 248.34 149.625 248.02C149.625 247.7 149.73 247.445 149.94 247.255C150.15 247.055 150.415 246.955 150.735 246.955C151.055 246.955 151.32 247.055 151.53 247.255C151.74 247.445 151.845 247.7 151.845 248.02C151.845 248.34 151.74 248.6 151.53 248.8C151.32 248.99 151.055 249.085 150.735 249.085ZM158.529 258.025C157.579 258.025 156.814 257.69 156.234 257.02C155.654 256.34 155.364 255.395 155.364 254.185C155.364 253.395 155.519 252.715 155.829 252.145C156.149 251.565 156.559 251.12 157.059 250.81C157.559 250.49 158.089 250.33 158.649 250.33C159.079 250.33 159.464 250.41 159.804 250.57C160.144 250.73 160.459 250.955 160.749 251.245H160.794L160.719 249.94V247.21H162.204V257.845H160.989L160.869 256.945H160.824C160.534 257.235 160.189 257.49 159.789 257.71C159.389 257.92 158.969 258.025 158.529 258.025ZM158.874 256.795C159.204 256.795 159.519 256.715 159.819 256.555C160.129 256.385 160.429 256.135 160.719 255.805V252.325C160.429 252.055 160.139 251.865 159.849 251.755C159.559 251.635 159.269 251.575 158.979 251.575C158.599 251.575 158.249 251.68 157.929 251.89C157.619 252.1 157.369 252.4 157.179 252.79C156.989 253.18 156.894 253.64 156.894 254.17C156.894 255.01 157.069 255.66 157.419 256.12C157.769 256.57 158.254 256.795 158.874 256.795ZM168.018 252.355C167.788 252.355 167.578 252.27 167.388 252.1C167.208 251.92 167.118 251.68 167.118 251.38C167.118 251.06 167.208 250.82 167.388 250.66C167.578 250.49 167.788 250.405 168.018 250.405C168.258 250.405 168.468 250.49 168.648 250.66C168.828 250.82 168.918 251.06 168.918 251.38C168.918 251.68 168.828 251.92 168.648 252.1C168.468 252.27 168.258 252.355 168.018 252.355ZM168.018 258.025C167.788 258.025 167.578 257.94 167.388 257.77C167.208 257.59 167.118 257.35 167.118 257.05C167.118 256.73 167.208 256.49 167.388 256.33C167.578 256.16 167.788 256.075 168.018 256.075C168.258 256.075 168.468 256.16 168.648 256.33C168.828 256.49 168.918 256.73 168.918 257.05C168.918 257.35 168.828 257.59 168.648 257.77C168.468 257.94 168.258 258.025 168.018 258.025ZM131.547 281.025C130.597 281.025 129.832 280.69 129.252 280.02C128.672 279.34 128.382 278.395 128.382 277.185C128.382 276.395 128.537 275.715 128.847 275.145C129.167 274.565 129.577 274.12 130.077 273.81C130.577 273.49 131.107 273.33 131.667 273.33C132.097 273.33 132.482 273.41 132.822 273.57C133.162 273.73 133.477 273.955 133.767 274.245H133.812L133.737 272.94V270.21H135.222V280.845H134.007L133.887 279.945H133.842C133.552 280.235 133.207 280.49 132.807 280.71C132.407 280.92 131.987 281.025 131.547 281.025ZM131.892 279.795C132.222 279.795 132.537 279.715 132.837 279.555C133.147 279.385 133.447 279.135 133.737 278.805V275.325C133.447 275.055 133.157 274.865 132.867 274.755C132.577 274.635 132.287 274.575 131.997 274.575C131.617 274.575 131.267 274.68 130.947 274.89C130.637 275.1 130.387 275.4 130.197 275.79C130.007 276.18 129.912 276.64 129.912 277.17C129.912 278.01 130.087 278.66 130.437 279.12C130.787 279.57 131.272 279.795 131.892 279.795ZM141.486 281.025C140.746 281.025 140.071 280.875 139.461 280.575C138.861 280.275 138.386 279.835 138.036 279.255C137.686 278.675 137.511 277.98 137.511 277.17C137.511 276.37 137.686 275.685 138.036 275.115C138.396 274.545 138.861 274.105 139.431 273.795C140.001 273.485 140.611 273.33 141.261 273.33C141.981 273.33 142.591 273.48 143.091 273.78C143.591 274.07 143.971 274.475 144.231 274.995C144.501 275.505 144.636 276.105 144.636 276.795C144.636 276.945 144.631 277.095 144.621 277.245C144.611 277.385 144.596 277.505 144.576 277.605H138.546V276.51H143.646L143.316 276.87C143.316 276.08 143.136 275.49 142.776 275.1C142.416 274.7 141.926 274.5 141.306 274.5C140.876 274.5 140.481 274.605 140.121 274.815C139.771 275.015 139.491 275.315 139.281 275.715C139.071 276.105 138.966 276.59 138.966 277.17C138.966 277.77 139.081 278.27 139.311 278.67C139.551 279.06 139.871 279.355 140.271 279.555C140.681 279.755 141.151 279.855 141.681 279.855C142.091 279.855 142.466 279.8 142.806 279.69C143.146 279.57 143.481 279.41 143.811 279.21L144.336 280.155C143.966 280.405 143.541 280.615 143.061 280.785C142.581 280.945 142.056 281.025 141.486 281.025ZM151.575 281.025C150.765 281.025 150.145 280.79 149.715 280.32C149.285 279.84 149.07 279.16 149.07 278.28V271.41H146.625V270.21H150.555V278.37C150.555 278.88 150.685 279.25 150.945 279.48C151.205 279.7 151.53 279.81 151.92 279.81C152.12 279.81 152.325 279.785 152.535 279.735C152.755 279.685 152.995 279.605 153.255 279.495L153.615 280.605C153.265 280.725 152.94 280.825 152.64 280.905C152.35 280.985 151.995 281.025 151.575 281.025ZM159.474 281.025C158.734 281.025 158.059 280.875 157.449 280.575C156.849 280.275 156.374 279.835 156.024 279.255C155.674 278.675 155.499 277.98 155.499 277.17C155.499 276.37 155.674 275.685 156.024 275.115C156.384 274.545 156.849 274.105 157.419 273.795C157.989 273.485 158.599 273.33 159.249 273.33C159.969 273.33 160.579 273.48 161.079 273.78C161.579 274.07 161.959 274.475 162.219 274.995C162.489 275.505 162.624 276.105 162.624 276.795C162.624 276.945 162.619 277.095 162.609 277.245C162.599 277.385 162.584 277.505 162.564 277.605H156.534V276.51H161.634L161.304 276.87C161.304 276.08 161.124 275.49 160.764 275.1C160.404 274.7 159.914 274.5 159.294 274.5C158.864 274.5 158.469 274.605 158.109 274.815C157.759 275.015 157.479 275.315 157.269 275.715C157.059 276.105 156.954 276.59 156.954 277.17C156.954 277.77 157.069 278.27 157.299 278.67C157.539 279.06 157.859 279.355 158.259 279.555C158.669 279.755 159.139 279.855 159.669 279.855C160.079 279.855 160.454 279.8 160.794 279.69C161.134 279.57 161.469 279.41 161.799 279.21L162.324 280.155C161.954 280.405 161.529 280.615 161.049 280.785C160.569 280.945 160.044 281.025 159.474 281.025ZM169.413 281.025C168.673 281.025 168.088 280.895 167.658 280.635C167.238 280.375 166.938 280.015 166.758 279.555C166.578 279.095 166.488 278.56 166.488 277.95V274.71H164.478V273.6L166.548 273.51L166.743 271.2H167.973V273.51H171.438V274.71H167.973V277.95C167.973 278.36 168.028 278.71 168.138 279C168.248 279.28 168.433 279.49 168.693 279.63C168.953 279.76 169.303 279.825 169.743 279.825C170.073 279.825 170.373 279.8 170.643 279.75C170.913 279.69 171.173 279.615 171.423 279.525L171.723 280.605C171.393 280.715 171.038 280.81 170.658 280.89C170.288 280.98 169.873 281.025 169.413 281.025ZM177.462 281.025C176.722 281.025 176.047 280.875 175.437 280.575C174.837 280.275 174.362 279.835 174.012 279.255C173.662 278.675 173.487 277.98 173.487 277.17C173.487 276.37 173.662 275.685 174.012 275.115C174.372 274.545 174.837 274.105 175.407 273.795C175.977 273.485 176.587 273.33 177.237 273.33C177.957 273.33 178.567 273.48 179.067 273.78C179.567 274.07 179.947 274.475 180.207 274.995C180.477 275.505 180.612 276.105 180.612 276.795C180.612 276.945 180.607 277.095 180.597 277.245C180.587 277.385 180.572 277.505 180.552 277.605H174.522V276.51H179.622L179.292 276.87C179.292 276.08 179.112 275.49 178.752 275.1C178.392 274.7 177.902 274.5 177.282 274.5C176.852 274.5 176.457 274.605 176.097 274.815C175.747 275.015 175.467 275.315 175.257 275.715C175.047 276.105 174.942 276.59 174.942 277.17C174.942 277.77 175.057 278.27 175.287 278.67C175.527 279.06 175.847 279.355 176.247 279.555C176.657 279.755 177.127 279.855 177.657 279.855C178.067 279.855 178.442 279.8 178.782 279.69C179.122 279.57 179.457 279.41 179.787 279.21L180.312 280.155C179.942 280.405 179.517 280.615 179.037 280.785C178.557 280.945 178.032 281.025 177.462 281.025ZM185.511 281.025C184.561 281.025 183.796 280.69 183.216 280.02C182.636 279.34 182.346 278.395 182.346 277.185C182.346 276.395 182.501 275.715 182.811 275.145C183.131 274.565 183.541 274.12 184.041 273.81C184.541 273.49 185.071 273.33 185.631 273.33C186.061 273.33 186.446 273.41 186.786 273.57C187.126 273.73 187.441 273.955 187.731 274.245H187.776L187.701 272.94V270.21H189.186V280.845H187.971L187.851 279.945H187.806C187.516 280.235 187.171 280.49 186.771 280.71C186.371 280.92 185.951 281.025 185.511 281.025ZM185.856 279.795C186.186 279.795 186.501 279.715 186.801 279.555C187.111 279.385 187.411 279.135 187.701 278.805V275.325C187.411 275.055 187.121 274.865 186.831 274.755C186.541 274.635 186.251 274.575 185.961 274.575C185.581 274.575 185.231 274.68 184.911 274.89C184.601 275.1 184.351 275.4 184.161 275.79C183.971 276.18 183.876 276.64 183.876 277.17C183.876 278.01 184.051 278.66 184.401 279.12C184.751 279.57 185.236 279.795 185.856 279.795ZM195 275.355C194.77 275.355 194.56 275.27 194.37 275.1C194.19 274.92 194.1 274.68 194.1 274.38C194.1 274.06 194.19 273.82 194.37 273.66C194.56 273.49 194.77 273.405 195 273.405C195.24 273.405 195.45 273.49 195.63 273.66C195.81 273.82 195.9 274.06 195.9 274.38C195.9 274.68 195.81 274.92 195.63 275.1C195.45 275.27 195.24 275.355 195 275.355ZM195 281.025C194.77 281.025 194.56 280.94 194.37 280.77C194.19 280.59 194.1 280.35 194.1 280.05C194.1 279.73 194.19 279.49 194.37 279.33C194.56 279.16 194.77 279.075 195 279.075C195.24 279.075 195.45 279.16 195.63 279.33C195.81 279.49 195.9 279.73 195.9 280.05C195.9 280.35 195.81 280.59 195.63 280.77C195.45 280.94 195.24 281.025 195 281.025Z" fill="#8200FF"/>
<path d="M167.583 143.025C166.633 143.025 165.868 142.695 165.288 142.035C164.708 141.365 164.418 140.425 164.418 139.215C164.418 138.425 164.573 137.745 164.883 137.175C165.203 136.595 165.613 136.15 166.113 135.84C166.623 135.53 167.163 135.375 167.733 135.375C168.163 135.375 168.553 135.46 168.903 135.63C169.263 135.79 169.598 136.02 169.908 136.32H169.953L169.893 134.97V132.165H171.123V142.845H170.103L169.998 141.885H169.953C169.663 142.195 169.308 142.465 168.888 142.695C168.478 142.915 168.043 143.025 167.583 143.025ZM167.838 141.99C168.198 141.99 168.548 141.9 168.888 141.72C169.228 141.53 169.563 141.255 169.893 140.895V137.265C169.563 136.955 169.238 136.735 168.918 136.605C168.608 136.475 168.293 136.41 167.973 136.41C167.553 136.41 167.168 136.53 166.818 136.77C166.478 137 166.203 137.325 165.993 137.745C165.793 138.155 165.693 138.64 165.693 139.2C165.693 140.07 165.883 140.755 166.263 141.255C166.643 141.745 167.168 141.99 167.838 141.99ZM177.252 142.845V136.56H173.862V135.555H178.482V142.845H177.252ZM177.732 134.025C177.452 134.025 177.217 133.94 177.027 133.77C176.837 133.59 176.742 133.355 176.742 133.065C176.742 132.775 176.837 132.545 177.027 132.375C177.217 132.195 177.452 132.105 177.732 132.105C178.012 132.105 178.247 132.195 178.437 132.375C178.627 132.545 178.722 132.775 178.722 133.065C178.722 133.355 178.627 133.59 178.437 133.77C178.247 133.94 178.012 134.025 177.732 134.025ZM186.156 143.025C185.446 143.025 184.781 142.91 184.161 142.68C183.541 142.45 183.011 142.185 182.571 141.885L183.141 141.075C183.561 141.375 184.026 141.615 184.536 141.795C185.046 141.975 185.636 142.065 186.306 142.065C186.926 142.065 187.386 141.95 187.686 141.72C187.996 141.49 188.151 141.225 188.151 140.925C188.151 140.785 188.121 140.655 188.061 140.535C188.011 140.415 187.906 140.3 187.746 140.19C187.596 140.08 187.371 139.975 187.071 139.875C186.771 139.775 186.371 139.675 185.871 139.575C184.921 139.375 184.206 139.105 183.726 138.765C183.256 138.425 183.021 137.985 183.021 137.445C183.021 136.855 183.276 136.365 183.786 135.975C184.296 135.575 185.051 135.375 186.051 135.375C186.611 135.375 187.151 135.47 187.671 135.66C188.191 135.84 188.631 136.055 188.991 136.305L188.391 137.1C188.061 136.86 187.686 136.675 187.266 136.545C186.846 136.405 186.406 136.335 185.946 136.335C185.526 136.335 185.191 136.385 184.941 136.485C184.701 136.575 184.526 136.7 184.416 136.86C184.316 137.02 184.266 137.195 184.266 137.385C184.266 137.695 184.431 137.94 184.761 138.12C185.101 138.29 185.641 138.45 186.381 138.6C187.191 138.77 187.811 138.96 188.241 139.17C188.681 139.38 188.981 139.62 189.141 139.89C189.311 140.16 189.396 140.48 189.396 140.85C189.396 141.25 189.271 141.615 189.021 141.945C188.771 142.265 188.406 142.525 187.926 142.725C187.446 142.925 186.856 143.025 186.156 143.025ZM194.19 143.025C193.74 143.025 193.325 142.945 192.945 142.785C192.565 142.615 192.265 142.375 192.045 142.065C191.825 141.755 191.715 141.385 191.715 140.955C191.715 140.135 192.125 139.515 192.945 139.095C193.765 138.665 195.115 138.375 196.995 138.225C196.985 137.895 196.915 137.59 196.785 137.31C196.665 137.03 196.465 136.81 196.185 136.65C195.905 136.48 195.53 136.395 195.06 136.395C194.75 136.395 194.44 136.44 194.13 136.53C193.83 136.61 193.54 136.72 193.26 136.86C192.99 136.99 192.74 137.125 192.51 137.265L192.03 136.425C192.27 136.265 192.56 136.105 192.9 135.945C193.25 135.775 193.625 135.64 194.025 135.54C194.425 135.43 194.84 135.375 195.27 135.375C195.94 135.375 196.49 135.5 196.92 135.75C197.36 136 197.685 136.35 197.895 136.8C198.115 137.24 198.225 137.765 198.225 138.375V142.845H197.22L197.115 141.855H197.07C196.67 142.175 196.22 142.45 195.72 142.68C195.22 142.91 194.71 143.025 194.19 143.025ZM194.52 142.035C194.94 142.035 195.355 141.94 195.765 141.75C196.175 141.56 196.585 141.295 196.995 140.955V139.035C195.955 139.125 195.135 139.25 194.535 139.41C193.945 139.57 193.525 139.775 193.275 140.025C193.035 140.265 192.915 140.545 192.915 140.865C192.915 141.135 192.99 141.36 193.14 141.54C193.29 141.71 193.485 141.835 193.725 141.915C193.975 141.995 194.24 142.035 194.52 142.035ZM204.295 143.025C203.935 143.025 203.55 142.94 203.14 142.77C202.74 142.59 202.37 142.345 202.03 142.035H201.985L201.88 142.845H200.89V132.165H202.12V135.075L202.075 136.485H202.12C202.45 136.145 202.83 135.875 203.26 135.675C203.7 135.475 204.135 135.375 204.565 135.375C205.225 135.375 205.78 135.53 206.23 135.84C206.68 136.14 207.02 136.57 207.25 137.13C207.48 137.68 207.595 138.33 207.595 139.08C207.595 139.91 207.44 140.62 207.13 141.21C206.83 141.8 206.43 142.25 205.93 142.56C205.43 142.87 204.885 143.025 204.295 143.025ZM204.1 141.99C204.52 141.99 204.895 141.875 205.225 141.645C205.565 141.415 205.83 141.085 206.02 140.655C206.22 140.215 206.32 139.695 206.32 139.095C206.32 138.565 206.25 138.1 206.11 137.7C205.97 137.29 205.75 136.975 205.45 136.755C205.15 136.525 204.755 136.41 204.265 136.41C203.935 136.41 203.585 136.5 203.215 136.68C202.855 136.85 202.49 137.125 202.12 137.505V141.135C202.47 141.445 202.82 141.665 203.17 141.795C203.53 141.925 203.84 141.99 204.1 141.99ZM214.579 143.025C213.809 143.025 213.219 142.805 212.809 142.365C212.399 141.915 212.194 141.26 212.194 140.4V133.17H209.704V132.165H213.424V140.49C213.424 141.02 213.554 141.405 213.814 141.645C214.074 141.885 214.419 142.005 214.849 142.005C215.059 142.005 215.274 141.98 215.494 141.93C215.714 141.87 215.959 141.78 216.229 141.66L216.544 142.59C216.214 142.71 215.904 142.81 215.614 142.89C215.324 142.98 214.979 143.025 214.579 143.025ZM222.433 143.025C221.703 143.025 221.038 142.875 220.438 142.575C219.848 142.275 219.378 141.84 219.028 141.27C218.678 140.69 218.503 139.995 218.503 139.185C218.503 138.395 218.678 137.715 219.028 137.145C219.378 136.575 219.833 136.14 220.393 135.84C220.963 135.53 221.573 135.375 222.223 135.375C222.923 135.375 223.518 135.52 224.008 135.81C224.508 136.09 224.888 136.485 225.148 136.995C225.418 137.505 225.553 138.105 225.553 138.795C225.553 138.935 225.548 139.07 225.538 139.2C225.528 139.33 225.513 139.445 225.493 139.545H219.328V138.585H224.758L224.443 138.93C224.443 138.07 224.243 137.425 223.843 136.995C223.453 136.565 222.923 136.35 222.253 136.35C221.803 136.35 221.383 136.46 220.993 136.68C220.613 136.9 220.308 137.22 220.078 137.64C219.848 138.06 219.733 138.575 219.733 139.185C219.733 139.815 219.858 140.34 220.108 140.76C220.358 141.18 220.698 141.5 221.128 141.72C221.558 141.93 222.043 142.035 222.583 142.035C223.023 142.035 223.418 141.975 223.768 141.855C224.128 141.725 224.473 141.555 224.803 141.345L225.253 142.155C224.893 142.395 224.478 142.6 224.008 142.77C223.548 142.94 223.023 143.025 222.433 143.025ZM227.752 138.36V137.43H234.202V138.36H227.752ZM240.121 143.025C239.411 143.025 238.746 142.91 238.126 142.68C237.506 142.45 236.976 142.185 236.536 141.885L237.106 141.075C237.526 141.375 237.991 141.615 238.501 141.795C239.011 141.975 239.601 142.065 240.271 142.065C240.891 142.065 241.351 141.95 241.651 141.72C241.961 141.49 242.116 141.225 242.116 140.925C242.116 140.785 242.086 140.655 242.026 140.535C241.976 140.415 241.871 140.3 241.711 140.19C241.561 140.08 241.336 139.975 241.036 139.875C240.736 139.775 240.336 139.675 239.836 139.575C238.886 139.375 238.171 139.105 237.691 138.765C237.221 138.425 236.986 137.985 236.986 137.445C236.986 136.855 237.241 136.365 237.751 135.975C238.261 135.575 239.016 135.375 240.016 135.375C240.576 135.375 241.116 135.47 241.636 135.66C242.156 135.84 242.596 136.055 242.956 136.305L242.356 137.1C242.026 136.86 241.651 136.675 241.231 136.545C240.811 136.405 240.371 136.335 239.911 136.335C239.491 136.335 239.156 136.385 238.906 136.485C238.666 136.575 238.491 136.7 238.381 136.86C238.281 137.02 238.231 137.195 238.231 137.385C238.231 137.695 238.396 137.94 238.726 138.12C239.066 138.29 239.606 138.45 240.346 138.6C241.156 138.77 241.776 138.96 242.206 139.17C242.646 139.38 242.946 139.62 243.106 139.89C243.276 140.16 243.361 140.48 243.361 140.85C243.361 141.25 243.236 141.615 242.986 141.945C242.736 142.265 242.371 142.525 241.891 142.725C241.411 142.925 240.821 143.025 240.121 143.025ZM249.205 142.845V136.56H245.815V135.555H250.435V142.845H249.205ZM249.685 134.025C249.405 134.025 249.17 133.94 248.98 133.77C248.79 133.59 248.695 133.355 248.695 133.065C248.695 132.775 248.79 132.545 248.98 132.375C249.17 132.195 249.405 132.105 249.685 132.105C249.965 132.105 250.2 132.195 250.39 132.375C250.58 132.545 250.675 132.775 250.675 133.065C250.675 133.355 250.58 133.59 250.39 133.77C250.2 133.94 249.965 134.025 249.685 134.025ZM254.329 142.845V135.555H255.319L255.424 136.515H255.454C255.644 136.175 255.864 135.9 256.114 135.69C256.364 135.48 256.699 135.375 257.119 135.375C257.479 135.375 257.774 135.48 258.004 135.69C258.234 135.9 258.399 136.215 258.499 136.635C258.709 136.245 258.939 135.94 259.189 135.72C259.449 135.49 259.789 135.375 260.209 135.375C260.719 135.375 261.114 135.57 261.394 135.96C261.684 136.34 261.829 136.895 261.829 137.625V142.845H260.599V137.715C260.599 136.865 260.339 136.44 259.819 136.44C259.569 136.44 259.359 136.535 259.189 136.725C259.029 136.905 258.849 137.185 258.649 137.565V142.845H257.509V137.715C257.509 137.295 257.449 136.98 257.329 136.77C257.219 136.55 257.029 136.44 256.759 136.44C256.509 136.44 256.289 136.535 256.099 136.725C255.919 136.905 255.739 137.185 255.559 137.565V142.845H254.329ZM263.849 145.92V135.555H264.869L264.974 136.485H265.019C265.359 136.165 265.749 135.9 266.189 135.69C266.639 135.48 267.089 135.375 267.539 135.375C268.199 135.375 268.749 135.53 269.189 135.84C269.639 136.14 269.979 136.57 270.209 137.13C270.439 137.68 270.554 138.335 270.554 139.095C270.554 139.915 270.399 140.62 270.089 141.21C269.779 141.8 269.374 142.25 268.874 142.56C268.374 142.87 267.829 143.025 267.239 143.025C266.909 143.025 266.544 142.945 266.144 142.785C265.754 142.615 265.394 142.38 265.064 142.08H265.019L265.079 143.46V145.92H263.849ZM267.029 141.99C267.459 141.99 267.844 141.875 268.184 141.645C268.524 141.415 268.789 141.085 268.979 140.655C269.179 140.215 269.279 139.695 269.279 139.095C269.279 138.565 269.209 138.1 269.069 137.7C268.929 137.29 268.709 136.975 268.409 136.755C268.109 136.525 267.714 136.41 267.224 136.41C266.894 136.41 266.544 136.5 266.174 136.68C265.814 136.85 265.449 137.125 265.079 137.505V141.135C265.429 141.445 265.779 141.665 266.129 141.795C266.489 141.925 266.789 141.99 267.029 141.99ZM277.538 143.025C276.768 143.025 276.178 142.805 275.768 142.365C275.358 141.915 275.153 141.26 275.153 140.4V133.17H272.663V132.165H276.383V140.49C276.383 141.02 276.513 141.405 276.773 141.645C277.033 141.885 277.378 142.005 277.808 142.005C278.018 142.005 278.233 141.98 278.453 141.93C278.673 141.87 278.918 141.78 279.188 141.66L279.503 142.59C279.173 142.71 278.863 142.81 278.573 142.89C278.283 142.98 277.938 143.025 277.538 143.025ZM285.392 143.025C284.662 143.025 283.997 142.875 283.397 142.575C282.807 142.275 282.337 141.84 281.987 141.27C281.637 140.69 281.462 139.995 281.462 139.185C281.462 138.395 281.637 137.715 281.987 137.145C282.337 136.575 282.792 136.14 283.352 135.84C283.922 135.53 284.532 135.375 285.182 135.375C285.882 135.375 286.477 135.52 286.967 135.81C287.467 136.09 287.847 136.485 288.107 136.995C288.377 137.505 288.512 138.105 288.512 138.795C288.512 138.935 288.507 139.07 288.497 139.2C288.487 139.33 288.472 139.445 288.452 139.545H282.287V138.585H287.717L287.402 138.93C287.402 138.07 287.202 137.425 286.802 136.995C286.412 136.565 285.882 136.35 285.212 136.35C284.762 136.35 284.342 136.46 283.952 136.68C283.572 136.9 283.267 137.22 283.037 137.64C282.807 138.06 282.692 138.575 282.692 139.185C282.692 139.815 282.817 140.34 283.067 140.76C283.317 141.18 283.657 141.5 284.087 141.72C284.517 141.93 285.002 142.035 285.542 142.035C285.982 142.035 286.377 141.975 286.727 141.855C287.087 141.725 287.432 141.555 287.762 141.345L288.212 142.155C287.852 142.395 287.437 142.6 286.967 142.77C286.507 142.94 285.982 143.025 285.392 143.025ZM231.217 165.845V159.56H227.827V158.555H232.447V165.845H231.217ZM231.697 157.025C231.417 157.025 231.182 156.94 230.992 156.77C230.802 156.59 230.707 156.355 230.707 156.065C230.707 155.775 230.802 155.545 230.992 155.375C231.182 155.195 231.417 155.105 231.697 155.105C231.977 155.105 232.212 155.195 232.402 155.375C232.592 155.545 232.687 155.775 232.687 156.065C232.687 156.355 232.592 156.59 232.402 156.77C232.212 156.94 231.977 157.025 231.697 157.025ZM239.971 166.025C239.331 166.025 238.736 165.875 238.186 165.575C237.646 165.275 237.206 164.84 236.866 164.27C236.536 163.7 236.371 163.015 236.371 162.215C236.371 161.395 236.536 160.7 236.866 160.13C237.206 159.56 237.646 159.125 238.186 158.825C238.736 158.525 239.331 158.375 239.971 158.375C240.611 158.375 241.201 158.525 241.741 158.825C242.291 159.125 242.731 159.56 243.061 160.13C243.401 160.7 243.571 161.395 243.571 162.215C243.571 163.015 243.401 163.7 243.061 164.27C242.731 164.84 242.291 165.275 241.741 165.575C241.201 165.875 240.611 166.025 239.971 166.025ZM239.971 165.005C240.441 165.005 240.851 164.89 241.201 164.66C241.551 164.42 241.821 164.09 242.011 163.67C242.201 163.25 242.296 162.765 242.296 162.215C242.296 161.655 242.201 161.165 242.011 160.745C241.821 160.315 241.551 159.985 241.201 159.755C240.851 159.515 240.441 159.395 239.971 159.395C239.501 159.395 239.091 159.515 238.741 159.755C238.401 159.985 238.131 160.315 237.931 160.745C237.741 161.165 237.646 161.655 237.646 162.215C237.646 162.765 237.741 163.25 237.931 163.67C238.131 164.09 238.401 164.42 238.741 164.66C239.091 164.89 239.501 165.005 239.971 165.005ZM248.965 166.025C248.635 166.025 248.35 165.91 248.11 165.68C247.87 165.44 247.75 165.135 247.75 164.765C247.75 164.385 247.87 164.08 248.11 163.85C248.35 163.61 248.635 163.49 248.965 163.49C249.305 163.49 249.59 163.61 249.82 163.85C250.06 164.08 250.18 164.385 250.18 164.765C250.18 165.135 250.06 165.44 249.82 165.68C249.59 165.91 249.305 166.025 248.965 166.025ZM255.049 165.845V155.165H256.279V162.395H256.339L260.269 158.555H261.679L256.279 163.865V165.845H255.049ZM260.689 165.845L257.839 161.96L258.589 161.165L262.069 165.845H260.689ZM267.404 166.025C266.674 166.025 266.009 165.875 265.409 165.575C264.819 165.275 264.349 164.84 263.999 164.27C263.649 163.69 263.474 162.995 263.474 162.185C263.474 161.395 263.649 160.715 263.999 160.145C264.349 159.575 264.804 159.14 265.364 158.84C265.934 158.53 266.544 158.375 267.194 158.375C267.894 158.375 268.489 158.52 268.979 158.81C269.479 159.09 269.859 159.485 270.119 159.995C270.389 160.505 270.524 161.105 270.524 161.795C270.524 161.935 270.519 162.07 270.509 162.2C270.499 162.33 270.484 162.445 270.464 162.545H264.299V161.585H269.729L269.414 161.93C269.414 161.07 269.214 160.425 268.814 159.995C268.424 159.565 267.894 159.35 267.224 159.35C266.774 159.35 266.354 159.46 265.964 159.68C265.584 159.9 265.279 160.22 265.049 160.64C264.819 161.06 264.704 161.575 264.704 162.185C264.704 162.815 264.829 163.34 265.079 163.76C265.329 164.18 265.669 164.5 266.099 164.72C266.529 164.93 267.014 165.035 267.554 165.035C267.994 165.035 268.389 164.975 268.739 164.855C269.099 164.725 269.444 164.555 269.774 164.345L270.224 165.155C269.864 165.395 269.449 165.6 268.979 165.77C268.519 165.94 267.994 166.025 267.404 166.025ZM276.098 166.025C275.388 166.025 274.723 165.91 274.103 165.68C273.483 165.45 272.953 165.185 272.513 164.885L273.083 164.075C273.503 164.375 273.968 164.615 274.478 164.795C274.988 164.975 275.578 165.065 276.248 165.065C276.868 165.065 277.328 164.95 277.628 164.72C277.938 164.49 278.093 164.225 278.093 163.925C278.093 163.785 278.063 163.655 278.003 163.535C277.953 163.415 277.848 163.3 277.688 163.19C277.538 163.08 277.313 162.975 277.013 162.875C276.713 162.775 276.313 162.675 275.813 162.575C274.863 162.375 274.148 162.105 273.668 161.765C273.198 161.425 272.963 160.985 272.963 160.445C272.963 159.855 273.218 159.365 273.728 158.975C274.238 158.575 274.993 158.375 275.993 158.375C276.553 158.375 277.093 158.47 277.613 158.66C278.133 158.84 278.573 159.055 278.933 159.305L278.333 160.1C278.003 159.86 277.628 159.675 277.208 159.545C276.788 159.405 276.348 159.335 275.888 159.335C275.468 159.335 275.133 159.385 274.883 159.485C274.643 159.575 274.468 159.7 274.358 159.86C274.258 160.02 274.208 160.195 274.208 160.385C274.208 160.695 274.373 160.94 274.703 161.12C275.043 161.29 275.583 161.45 276.323 161.6C277.133 161.77 277.753 161.96 278.183 162.17C278.623 162.38 278.923 162.62 279.083 162.89C279.253 163.16 279.338 163.48 279.338 163.85C279.338 164.25 279.213 164.615 278.963 164.945C278.713 165.265 278.348 165.525 277.868 165.725C277.388 165.925 276.798 166.025 276.098 166.025ZM286.352 166.025C285.642 166.025 285.082 165.9 284.672 165.65C284.262 165.39 283.967 165.035 283.787 164.585C283.617 164.135 283.532 163.61 283.532 163.01V159.56H281.477V158.63L283.577 158.555L283.742 156.215H284.762V158.555H288.347V159.56H284.762V163.025C284.762 163.455 284.817 163.82 284.927 164.12C285.037 164.42 285.227 164.645 285.497 164.795C285.767 164.945 286.137 165.02 286.607 165.02C286.957 165.02 287.272 164.99 287.552 164.93C287.832 164.87 288.102 164.79 288.362 164.69L288.632 165.59C288.302 165.71 287.952 165.81 287.582 165.89C287.222 165.98 286.812 166.025 286.352 166.025ZM291.626 165.845V158.555H292.646L292.751 160.28H292.796C293.176 159.69 293.646 159.225 294.206 158.885C294.766 158.545 295.381 158.375 296.051 158.375C296.321 158.375 296.571 158.4 296.801 158.45C297.041 158.49 297.271 158.565 297.491 158.675L297.206 159.74C296.956 159.65 296.741 159.585 296.561 159.545C296.381 159.505 296.146 159.485 295.856 159.485C295.306 159.485 294.776 159.645 294.266 159.965C293.766 160.275 293.296 160.81 292.856 161.57V165.845H291.626ZM302.12 166.025C301.67 166.025 301.255 165.945 300.875 165.785C300.495 165.615 300.195 165.375 299.975 165.065C299.755 164.755 299.645 164.385 299.645 163.955C299.645 163.135 300.055 162.515 300.875 162.095C301.695 161.665 303.045 161.375 304.925 161.225C304.915 160.895 304.845 160.59 304.715 160.31C304.595 160.03 304.395 159.81 304.115 159.65C303.835 159.48 303.46 159.395 302.99 159.395C302.68 159.395 302.37 159.44 302.06 159.53C301.76 159.61 301.47 159.72 301.19 159.86C300.92 159.99 300.67 160.125 300.44 160.265L299.96 159.425C300.2 159.265 300.49 159.105 300.83 158.945C301.18 158.775 301.555 158.64 301.955 158.54C302.355 158.43 302.77 158.375 303.2 158.375C303.87 158.375 304.42 158.5 304.85 158.75C305.29 159 305.615 159.35 305.825 159.8C306.045 160.24 306.155 160.765 306.155 161.375V165.845H305.15L305.045 164.855H305C304.6 165.175 304.15 165.45 303.65 165.68C303.15 165.91 302.64 166.025 302.12 166.025ZM302.45 165.035C302.87 165.035 303.285 164.94 303.695 164.75C304.105 164.56 304.515 164.295 304.925 163.955V162.035C303.885 162.125 303.065 162.25 302.465 162.41C301.875 162.57 301.455 162.775 301.205 163.025C300.965 163.265 300.845 163.545 300.845 163.865C300.845 164.135 300.92 164.36 301.07 164.54C301.22 164.71 301.415 164.835 301.655 164.915C301.905 164.995 302.17 165.035 302.45 165.035ZM311.924 166.025C311.594 166.025 311.309 165.91 311.069 165.68C310.829 165.44 310.709 165.135 310.709 164.765C310.709 164.385 310.829 164.08 311.069 163.85C311.309 163.61 311.594 163.49 311.924 163.49C312.264 163.49 312.549 163.61 312.779 163.85C313.019 164.08 313.139 164.385 313.139 164.765C313.139 165.135 313.019 165.44 312.779 165.68C312.549 165.91 312.264 166.025 311.924 166.025ZM320.483 166.025C319.533 166.025 318.768 165.695 318.188 165.035C317.608 164.365 317.318 163.425 317.318 162.215C317.318 161.425 317.473 160.745 317.783 160.175C318.103 159.595 318.513 159.15 319.013 158.84C319.523 158.53 320.063 158.375 320.633 158.375C321.063 158.375 321.453 158.46 321.803 158.63C322.163 158.79 322.498 159.02 322.808 159.32H322.853L322.793 157.97V155.165H324.023V165.845H323.003L322.898 164.885H322.853C322.563 165.195 322.208 165.465 321.788 165.695C321.378 165.915 320.943 166.025 320.483 166.025ZM320.738 164.99C321.098 164.99 321.448 164.9 321.788 164.72C322.128 164.53 322.463 164.255 322.793 163.895V160.265C322.463 159.955 322.138 159.735 321.818 159.605C321.508 159.475 321.193 159.41 320.873 159.41C320.453 159.41 320.068 159.53 319.718 159.77C319.378 160 319.103 160.325 318.893 160.745C318.693 161.155 318.593 161.64 318.593 162.2C318.593 163.07 318.783 163.755 319.163 164.255C319.543 164.745 320.068 164.99 320.738 164.99ZM330.363 166.025C329.633 166.025 328.968 165.875 328.368 165.575C327.778 165.275 327.308 164.84 326.958 164.27C326.608 163.69 326.433 162.995 326.433 162.185C326.433 161.395 326.608 160.715 326.958 160.145C327.308 159.575 327.763 159.14 328.323 158.84C328.893 158.53 329.503 158.375 330.153 158.375C330.853 158.375 331.448 158.52 331.938 158.81C332.438 159.09 332.818 159.485 333.078 159.995C333.348 160.505 333.483 161.105 333.483 161.795C333.483 161.935 333.478 162.07 333.468 162.2C333.458 162.33 333.443 162.445 333.423 162.545H327.258V161.585H332.688L332.373 161.93C332.373 161.07 332.173 160.425 331.773 159.995C331.383 159.565 330.853 159.35 330.183 159.35C329.733 159.35 329.313 159.46 328.923 159.68C328.543 159.9 328.238 160.22 328.008 160.64C327.778 161.06 327.663 161.575 327.663 162.185C327.663 162.815 327.788 163.34 328.038 163.76C328.288 164.18 328.628 164.5 329.058 164.72C329.488 164.93 329.973 165.035 330.513 165.035C330.953 165.035 331.348 164.975 331.698 164.855C332.058 164.725 332.403 164.555 332.733 164.345L333.183 165.155C332.823 165.395 332.408 165.6 331.938 165.77C331.478 165.94 330.953 166.025 330.363 166.025ZM335.277 165.845V158.555H336.267L336.372 159.515H336.402C336.592 159.175 336.812 158.9 337.062 158.69C337.312 158.48 337.647 158.375 338.067 158.375C338.427 158.375 338.722 158.48 338.952 158.69C339.182 158.9 339.347 159.215 339.447 159.635C339.657 159.245 339.887 158.94 340.137 158.72C340.397 158.49 340.737 158.375 341.157 158.375C341.667 158.375 342.062 158.57 342.342 158.96C342.632 159.34 342.777 159.895 342.777 160.625V165.845H341.547V160.715C341.547 159.865 341.287 159.44 340.767 159.44C340.517 159.44 340.307 159.535 340.137 159.725C339.977 159.905 339.797 160.185 339.597 160.565V165.845H338.457V160.715C338.457 160.295 338.397 159.98 338.277 159.77C338.167 159.55 337.977 159.44 337.707 159.44C337.457 159.44 337.237 159.535 337.047 159.725C336.867 159.905 336.687 160.185 336.507 160.565V165.845H335.277ZM347.901 166.025C347.261 166.025 346.666 165.875 346.116 165.575C345.576 165.275 345.136 164.84 344.796 164.27C344.466 163.7 344.301 163.015 344.301 162.215C344.301 161.395 344.466 160.7 344.796 160.13C345.136 159.56 345.576 159.125 346.116 158.825C346.666 158.525 347.261 158.375 347.901 158.375C348.541 158.375 349.131 158.525 349.671 158.825C350.221 159.125 350.661 159.56 350.991 160.13C351.331 160.7 351.501 161.395 351.501 162.215C351.501 163.015 351.331 163.7 350.991 164.27C350.661 164.84 350.221 165.275 349.671 165.575C349.131 165.875 348.541 166.025 347.901 166.025ZM347.901 165.005C348.371 165.005 348.781 164.89 349.131 164.66C349.481 164.42 349.751 164.09 349.941 163.67C350.131 163.25 350.226 162.765 350.226 162.215C350.226 161.655 350.131 161.165 349.941 160.745C349.751 160.315 349.481 159.985 349.131 159.755C348.781 159.515 348.371 159.395 347.901 159.395C347.431 159.395 347.021 159.515 346.671 159.755C346.331 159.985 346.061 160.315 345.861 160.745C345.671 161.165 345.576 161.655 345.576 162.215C345.576 162.765 345.671 163.25 345.861 163.67C346.061 164.09 346.331 164.42 346.671 164.66C347.021 164.89 347.431 165.005 347.901 165.005ZM356.895 166.025C356.565 166.025 356.28 165.91 356.04 165.68C355.8 165.44 355.68 165.135 355.68 164.765C355.68 164.385 355.8 164.08 356.04 163.85C356.28 163.61 356.565 163.49 356.895 163.49C357.235 163.49 357.52 163.61 357.75 163.85C357.99 164.08 358.11 164.385 358.11 164.765C358.11 165.135 357.99 165.44 357.75 165.68C357.52 165.91 357.235 166.025 356.895 166.025ZM365.019 165.845V157.94C365.019 157.35 365.124 156.835 365.334 156.395C365.554 155.945 365.879 155.6 366.309 155.36C366.739 155.11 367.289 154.985 367.959 154.985C368.319 154.985 368.669 155.02 369.009 155.09C369.359 155.15 369.709 155.255 370.059 155.405L369.774 156.335C369.474 156.195 369.194 156.105 368.934 156.065C368.684 156.015 368.399 155.99 368.079 155.99C367.429 155.99 366.959 156.16 366.669 156.5C366.379 156.84 366.234 157.305 366.234 157.895V165.845H365.019ZM362.934 159.56V158.63L365.064 158.555H369.294V159.56H362.934ZM376.473 166.025C375.703 166.025 375.113 165.805 374.703 165.365C374.293 164.915 374.088 164.26 374.088 163.4V156.17H371.598V155.165H375.318V163.49C375.318 164.02 375.448 164.405 375.708 164.645C375.968 164.885 376.313 165.005 376.743 165.005C376.953 165.005 377.168 164.98 377.388 164.93C377.608 164.87 377.853 164.78 378.123 164.66L378.438 165.59C378.108 165.71 377.798 165.81 377.508 165.89C377.218 165.98 376.873 166.025 376.473 166.025ZM383.877 166.025C383.237 166.025 382.642 165.875 382.092 165.575C381.552 165.275 381.112 164.84 380.772 164.27C380.442 163.7 380.277 163.015 380.277 162.215C380.277 161.395 380.442 160.7 380.772 160.13C381.112 159.56 381.552 159.125 382.092 158.825C382.642 158.525 383.237 158.375 383.877 158.375C384.517 158.375 385.107 158.525 385.647 158.825C386.197 159.125 386.637 159.56 386.967 160.13C387.307 160.7 387.477 161.395 387.477 162.215C387.477 163.015 387.307 163.7 386.967 164.27C386.637 164.84 386.197 165.275 385.647 165.575C385.107 165.875 384.517 166.025 383.877 166.025ZM383.877 165.005C384.347 165.005 384.757 164.89 385.107 164.66C385.457 164.42 385.727 164.09 385.917 163.67C386.107 163.25 386.202 162.765 386.202 162.215C386.202 161.655 386.107 161.165 385.917 160.745C385.727 160.315 385.457 159.985 385.107 159.755C384.757 159.515 384.347 159.395 383.877 159.395C383.407 159.395 382.997 159.515 382.647 159.755C382.307 159.985 382.037 160.315 381.837 160.745C381.647 161.165 381.552 161.655 381.552 162.215C381.552 162.765 381.647 163.25 381.837 163.67C382.037 164.09 382.307 164.42 382.647 164.66C382.997 164.89 383.407 165.005 383.877 165.005ZM390.082 165.845L388.492 158.555H389.722L390.592 162.785C390.662 163.125 390.722 163.46 390.772 163.79C390.832 164.11 390.882 164.445 390.922 164.795H390.982C391.032 164.445 391.092 164.11 391.162 163.79C391.242 163.46 391.322 163.125 391.402 162.785L392.302 159.005H393.532L394.402 162.785C394.482 163.125 394.567 163.46 394.657 163.79C394.747 164.11 394.812 164.445 394.852 164.795H394.912C394.972 164.445 395.022 164.11 395.062 163.79C395.112 163.46 395.172 163.125 395.242 162.785L396.112 158.555H397.252L395.692 165.845H394.102L393.262 162.365C393.202 162.105 393.142 161.795 393.082 161.435C393.022 161.075 392.962 160.665 392.902 160.205H392.842C392.782 160.665 392.722 161.075 392.662 161.435C392.602 161.795 392.542 162.105 392.482 162.365L391.672 165.845H390.082ZM402.016 166.025C401.306 166.025 400.641 165.91 400.021 165.68C399.401 165.45 398.871 165.185 398.431 164.885L399.001 164.075C399.421 164.375 399.886 164.615 400.396 164.795C400.906 164.975 401.496 165.065 402.166 165.065C402.786 165.065 403.246 164.95 403.546 164.72C403.856 164.49 404.011 164.225 404.011 163.925C404.011 163.785 403.981 163.655 403.921 163.535C403.871 163.415 403.766 163.3 403.606 163.19C403.456 163.08 403.231 162.975 402.931 162.875C402.631 162.775 402.231 162.675 401.731 162.575C400.781 162.375 400.066 162.105 399.586 161.765C399.116 161.425 398.881 160.985 398.881 160.445C398.881 159.855 399.136 159.365 399.646 158.975C400.156 158.575 400.911 158.375 401.911 158.375C402.471 158.375 403.011 158.47 403.531 158.66C404.051 158.84 404.491 159.055 404.851 159.305L404.251 160.1C403.921 159.86 403.546 159.675 403.126 159.545C402.706 159.405 402.266 159.335 401.806 159.335C401.386 159.335 401.051 159.385 400.801 159.485C400.561 159.575 400.386 159.7 400.276 159.86C400.176 160.02 400.126 160.195 400.126 160.385C400.126 160.695 400.291 160.94 400.621 161.12C400.961 161.29 401.501 161.45 402.241 161.6C403.051 161.77 403.671 161.96 404.101 162.17C404.541 162.38 404.841 162.62 405.001 162.89C405.171 163.16 405.256 163.48 405.256 163.85C405.256 164.25 405.131 164.615 404.881 164.945C404.631 165.265 404.266 165.525 403.786 165.725C403.306 165.925 402.716 166.025 402.016 166.025ZM187.416 235.025C186.706 235.025 186.146 234.9 185.736 234.65C185.326 234.39 185.031 234.035 184.851 233.585C184.681 233.135 184.596 232.61 184.596 232.01V228.56H182.541V227.63L184.641 227.555L184.806 225.215H185.826V227.555H189.411V228.56H185.826V232.025C185.826 232.455 185.881 232.82 185.991 233.12C186.101 233.42 186.291 233.645 186.561 233.795C186.831 233.945 187.201 234.02 187.671 234.02C188.021 234.02 188.336 233.99 188.616 233.93C188.896 233.87 189.166 233.79 189.426 233.69L189.696 234.59C189.366 234.71 189.016 234.81 188.646 234.89C188.286 234.98 187.876 235.025 187.416 235.025ZM191.955 234.845V233.825H194.715V226.775H192.57V225.98C192.95 225.93 193.285 225.87 193.575 225.8C193.865 225.73 194.13 225.655 194.37 225.575C194.61 225.485 194.83 225.385 195.03 225.275H195.945V233.825H198.45V234.845H191.955ZM187.416 258.025C186.706 258.025 186.146 257.9 185.736 257.65C185.326 257.39 185.031 257.035 184.851 256.585C184.681 256.135 184.596 255.61 184.596 255.01V251.56H182.541V250.63L184.641 250.555L184.806 248.215H185.826V250.555H189.411V251.56H185.826V255.025C185.826 255.455 185.881 255.82 185.991 256.12C186.101 256.42 186.291 256.645 186.561 256.795C186.831 256.945 187.201 257.02 187.671 257.02C188.021 257.02 188.336 256.99 188.616 256.93C188.896 256.87 189.166 256.79 189.426 256.69L189.696 257.59C189.366 257.71 189.016 257.81 188.646 257.89C188.286 257.98 187.876 258.025 187.416 258.025ZM191.595 257.845V257.11C192.675 256.16 193.585 255.325 194.325 254.605C195.075 253.875 195.645 253.22 196.035 252.64C196.425 252.06 196.62 251.505 196.62 250.975C196.62 250.425 196.45 249.975 196.11 249.625C195.77 249.275 195.245 249.1 194.535 249.1C194.085 249.1 193.665 249.21 193.275 249.43C192.895 249.65 192.55 249.925 192.24 250.255L191.535 249.55C191.965 249.11 192.425 248.76 192.915 248.5C193.415 248.23 194.005 248.095 194.685 248.095C195.325 248.095 195.875 248.215 196.335 248.455C196.805 248.685 197.165 249.01 197.415 249.43C197.675 249.85 197.805 250.345 197.805 250.915C197.805 251.515 197.62 252.12 197.25 252.73C196.88 253.34 196.36 253.985 195.69 254.665C195.03 255.335 194.265 256.07 193.395 256.87C193.695 256.84 193.995 256.82 194.295 256.81C194.595 256.79 194.89 256.78 195.18 256.78H198.33V257.845H191.595Z" fill="#F62E76"/>
<path d="M212.119 280.845V272.94C212.119 272.35 212.224 271.835 212.434 271.395C212.654 270.945 212.979 270.6 213.409 270.36C213.839 270.11 214.389 269.985 215.059 269.985C215.419 269.985 215.769 270.02 216.109 270.09C216.459 270.15 216.809 270.255 217.159 270.405L216.874 271.335C216.574 271.195 216.294 271.105 216.034 271.065C215.784 271.015 215.499 270.99 215.179 270.99C214.529 270.99 214.059 271.16 213.769 271.5C213.479 271.84 213.334 272.305 213.334 272.895V280.845H212.119ZM210.034 274.56V273.63L212.164 273.555H216.394V274.56H210.034ZM221.173 281.025C220.723 281.025 220.308 280.945 219.928 280.785C219.548 280.615 219.248 280.375 219.028 280.065C218.808 279.755 218.698 279.385 218.698 278.955C218.698 278.135 219.108 277.515 219.928 277.095C220.748 276.665 222.098 276.375 223.978 276.225C223.968 275.895 223.898 275.59 223.768 275.31C223.648 275.03 223.448 274.81 223.168 274.65C222.888 274.48 222.513 274.395 222.043 274.395C221.733 274.395 221.423 274.44 221.113 274.53C220.813 274.61 220.523 274.72 220.243 274.86C219.973 274.99 219.723 275.125 219.493 275.265L219.013 274.425C219.253 274.265 219.543 274.105 219.883 273.945C220.233 273.775 220.608 273.64 221.008 273.54C221.408 273.43 221.823 273.375 222.253 273.375C222.923 273.375 223.473 273.5 223.903 273.75C224.343 274 224.668 274.35 224.878 274.8C225.098 275.24 225.208 275.765 225.208 276.375V280.845H224.203L224.098 279.855H224.053C223.653 280.175 223.203 280.45 222.703 280.68C222.203 280.91 221.693 281.025 221.173 281.025ZM221.503 280.035C221.923 280.035 222.338 279.94 222.748 279.75C223.158 279.56 223.568 279.295 223.978 278.955V277.035C222.938 277.125 222.118 277.25 221.518 277.41C220.928 277.57 220.508 277.775 220.258 278.025C220.018 278.265 219.898 278.545 219.898 278.865C219.898 279.135 219.973 279.36 220.123 279.54C220.273 279.71 220.468 279.835 220.708 279.915C220.958 279.995 221.223 280.035 221.503 280.035ZM232.567 281.025C231.797 281.025 231.207 280.805 230.797 280.365C230.387 279.915 230.182 279.26 230.182 278.4V271.17H227.692V270.165H231.412V278.49C231.412 279.02 231.542 279.405 231.802 279.645C232.062 279.885 232.407 280.005 232.837 280.005C233.047 280.005 233.262 279.98 233.482 279.93C233.702 279.87 233.947 279.78 234.217 279.66L234.532 280.59C234.202 280.71 233.892 280.81 233.602 280.89C233.312 280.98 232.967 281.025 232.567 281.025ZM240.121 281.025C239.411 281.025 238.746 280.91 238.126 280.68C237.506 280.45 236.976 280.185 236.536 279.885L237.106 279.075C237.526 279.375 237.991 279.615 238.501 279.795C239.011 279.975 239.601 280.065 240.271 280.065C240.891 280.065 241.351 279.95 241.651 279.72C241.961 279.49 242.116 279.225 242.116 278.925C242.116 278.785 242.086 278.655 242.026 278.535C241.976 278.415 241.871 278.3 241.711 278.19C241.561 278.08 241.336 277.975 241.036 277.875C240.736 277.775 240.336 277.675 239.836 277.575C238.886 277.375 238.171 277.105 237.691 276.765C237.221 276.425 236.986 275.985 236.986 275.445C236.986 274.855 237.241 274.365 237.751 273.975C238.261 273.575 239.016 273.375 240.016 273.375C240.576 273.375 241.116 273.47 241.636 273.66C242.156 273.84 242.596 274.055 242.956 274.305L242.356 275.1C242.026 274.86 241.651 274.675 241.231 274.545C240.811 274.405 240.371 274.335 239.911 274.335C239.491 274.335 239.156 274.385 238.906 274.485C238.666 274.575 238.491 274.7 238.381 274.86C238.281 275.02 238.231 275.195 238.231 275.385C238.231 275.695 238.396 275.94 238.726 276.12C239.066 276.29 239.606 276.45 240.346 276.6C241.156 276.77 241.776 276.96 242.206 277.17C242.646 277.38 242.946 277.62 243.106 277.89C243.276 278.16 243.361 278.48 243.361 278.85C243.361 279.25 243.236 279.615 242.986 279.945C242.736 280.265 242.371 280.525 241.891 280.725C241.411 280.925 240.821 281.025 240.121 281.025ZM249.415 281.025C248.685 281.025 248.02 280.875 247.42 280.575C246.83 280.275 246.36 279.84 246.01 279.27C245.66 278.69 245.485 277.995 245.485 277.185C245.485 276.395 245.66 275.715 246.01 275.145C246.36 274.575 246.815 274.14 247.375 273.84C247.945 273.53 248.555 273.375 249.205 273.375C249.905 273.375 250.5 273.52 250.99 273.81C251.49 274.09 251.87 274.485 252.13 274.995C252.4 275.505 252.535 276.105 252.535 276.795C252.535 276.935 252.53 277.07 252.52 277.2C252.51 277.33 252.495 277.445 252.475 277.545H246.31V276.585H251.74L251.425 276.93C251.425 276.07 251.225 275.425 250.825 274.995C250.435 274.565 249.905 274.35 249.235 274.35C248.785 274.35 248.365 274.46 247.975 274.68C247.595 274.9 247.29 275.22 247.06 275.64C246.83 276.06 246.715 276.575 246.715 277.185C246.715 277.815 246.84 278.34 247.09 278.76C247.34 279.18 247.68 279.5 248.11 279.72C248.54 279.93 249.025 280.035 249.565 280.035C250.005 280.035 250.4 279.975 250.75 279.855C251.11 279.725 251.455 279.555 251.785 279.345L252.235 280.155C251.875 280.395 251.46 280.6 250.99 280.77C250.53 280.94 250.005 281.025 249.415 281.025Z" fill="#5B7FFB"/>
<path d="M98.5956 142.862V142.277H101.461V134.327H99.3156V133.877C99.6556 133.837 99.9656 133.787 100.246 133.727C100.526 133.657 100.781 133.587 101.011 133.517C101.241 133.437 101.446 133.357 101.626 133.277H102.121V142.277H104.821V142.862H98.5956ZM98.2056 165.862V165.442C99.3856 164.372 100.366 163.452 101.146 162.682C101.926 161.902 102.511 161.202 102.901 160.582C103.291 159.962 103.486 159.367 103.486 158.797C103.486 158.197 103.296 157.692 102.916 157.282C102.546 156.872 101.946 156.667 101.116 156.667C100.626 156.667 100.166 156.787 99.7356 157.027C99.3056 157.257 98.9256 157.557 98.5956 157.927L98.1606 157.507C98.5606 157.107 99.0006 156.772 99.4806 156.502C99.9706 156.232 100.536 156.097 101.176 156.097C101.796 156.097 102.326 156.207 102.766 156.427C103.216 156.647 103.556 156.962 103.786 157.372C104.026 157.772 104.146 158.242 104.146 158.782C104.146 159.412 103.946 160.052 103.546 160.702C103.146 161.352 102.576 162.052 101.836 162.802C101.096 163.542 100.221 164.387 99.2106 165.337C99.5206 165.317 99.8206 165.302 100.111 165.292C100.411 165.272 100.711 165.262 101.011 165.262H104.686V165.862H98.2056ZM101.356 189.042C100.796 189.042 100.306 188.977 99.8856 188.847C99.4656 188.707 99.0956 188.537 98.7756 188.337C98.4656 188.127 98.2006 187.912 97.9806 187.692L98.3556 187.227C98.6756 187.537 99.0756 187.822 99.5556 188.082C100.036 188.332 100.636 188.457 101.356 188.457C101.846 188.457 102.286 188.372 102.676 188.202C103.076 188.022 103.386 187.777 103.606 187.467C103.836 187.147 103.951 186.772 103.951 186.342C103.951 185.902 103.816 185.517 103.546 185.187C103.286 184.857 102.876 184.597 102.316 184.407C101.756 184.217 101.026 184.122 100.126 184.122V183.537C100.966 183.537 101.636 183.442 102.136 183.252C102.646 183.062 103.016 182.812 103.246 182.502C103.476 182.192 103.591 181.842 103.591 181.452C103.591 180.912 103.381 180.482 102.961 180.162C102.541 179.832 101.991 179.667 101.311 179.667C100.821 179.667 100.351 179.772 99.9006 179.982C99.4506 180.182 99.0756 180.427 98.7756 180.717L98.3706 180.267C98.7406 179.937 99.1706 179.662 99.6606 179.442C100.161 179.212 100.716 179.097 101.326 179.097C101.876 179.097 102.371 179.187 102.811 179.367C103.261 179.547 103.616 179.812 103.876 180.162C104.146 180.502 104.281 180.917 104.281 181.407C104.281 182.027 104.071 182.532 103.651 182.922C103.241 183.312 102.726 183.597 102.106 183.777V183.837C102.556 183.917 102.971 184.067 103.351 184.287C103.741 184.507 104.051 184.792 104.281 185.142C104.521 185.482 104.641 185.877 104.641 186.327C104.641 186.887 104.491 187.372 104.191 187.782C103.901 188.182 103.506 188.492 103.006 188.712C102.516 188.932 101.966 189.042 101.356 189.042ZM102.736 211.862V204.647C102.756 204.407 102.771 204.162 102.781 203.912C102.791 203.662 102.801 203.422 102.811 203.192H102.721C102.571 203.402 102.416 203.617 102.256 203.837C102.106 204.047 101.951 204.257 101.791 204.467L98.5056 208.412H105.046V208.997H97.6056V208.592L102.856 202.262H103.381V211.862H102.736ZM101.281 235.042C100.711 235.042 100.211 234.977 99.7806 234.847C99.3606 234.717 99.0006 234.552 98.7006 234.352C98.4006 234.152 98.1356 233.952 97.9056 233.752L98.2806 233.287C98.5006 233.487 98.7456 233.677 99.0156 233.857C99.2856 234.037 99.6006 234.182 99.9606 234.292C100.331 234.402 100.771 234.457 101.281 234.457C101.781 234.457 102.236 234.352 102.646 234.142C103.066 233.922 103.401 233.617 103.651 233.227C103.901 232.837 104.026 232.387 104.026 231.877C104.026 231.107 103.786 230.502 103.306 230.062C102.826 229.622 102.161 229.402 101.311 229.402C100.871 229.402 100.491 229.462 100.171 229.582C99.8506 229.692 99.5156 229.847 99.1656 230.047L98.7006 229.762L99.0606 225.277H104.221V225.862H99.6606L99.3456 229.327C99.6556 229.177 99.9706 229.057 100.291 228.967C100.611 228.867 100.986 228.817 101.416 228.817C102.046 228.817 102.611 228.927 103.111 229.147C103.611 229.357 104.001 229.687 104.281 230.137C104.571 230.577 104.716 231.147 104.716 231.847C104.716 232.527 104.551 233.107 104.221 233.587C103.901 234.067 103.476 234.432 102.946 234.682C102.426 234.922 101.871 235.042 101.281 235.042ZM101.821 258.042C101.281 258.042 100.791 257.942 100.351 257.742C99.9206 257.542 99.5506 257.252 99.2406 256.872C98.9306 256.492 98.6906 256.022 98.5206 255.462C98.3506 254.892 98.2656 254.242 98.2656 253.512C98.2656 252.512 98.3756 251.667 98.5956 250.977C98.8156 250.277 99.1056 249.717 99.4656 249.297C99.8356 248.877 100.261 248.572 100.741 248.382C101.221 248.192 101.716 248.097 102.226 248.097C102.756 248.097 103.216 248.182 103.606 248.352C104.006 248.522 104.361 248.747 104.671 249.027L104.266 249.477C103.996 249.217 103.686 249.022 103.336 248.892C102.996 248.752 102.626 248.682 102.226 248.682C101.646 248.682 101.106 248.837 100.606 249.147C100.106 249.447 99.7006 249.952 99.3906 250.662C99.0906 251.362 98.9406 252.312 98.9406 253.512C98.9406 254.292 99.0406 254.982 99.2406 255.582C99.4506 256.172 99.7706 256.637 100.201 256.977C100.631 257.307 101.181 257.472 101.851 257.472C102.301 257.472 102.701 257.367 103.051 257.157C103.411 256.937 103.691 256.647 103.891 256.287C104.101 255.917 104.206 255.502 104.206 255.042C104.206 254.282 104.006 253.692 103.606 253.272C103.206 252.852 102.601 252.642 101.791 252.642C101.361 252.642 100.891 252.757 100.381 252.987C99.8706 253.217 99.3706 253.617 98.8806 254.187V253.482C99.3006 253.052 99.7606 252.712 100.261 252.462C100.771 252.202 101.311 252.072 101.881 252.072C102.491 252.072 103.021 252.187 103.471 252.417C103.921 252.647 104.266 252.982 104.506 253.422C104.756 253.862 104.881 254.402 104.881 255.042C104.881 255.622 104.741 256.137 104.461 256.587C104.181 257.037 103.806 257.392 103.336 257.652C102.876 257.912 102.371 258.042 101.821 258.042ZM100.651 280.862C100.691 279.882 100.781 278.992 100.921 278.192C101.061 277.392 101.266 276.642 101.536 275.942C101.816 275.242 102.161 274.562 102.571 273.902C102.991 273.232 103.486 272.552 104.056 271.862H98.0856V271.277H104.896V271.667C104.236 272.427 103.686 273.162 103.246 273.872C102.816 274.572 102.471 275.282 102.211 276.002C101.951 276.712 101.756 277.462 101.626 278.252C101.506 279.042 101.426 279.912 101.386 280.862H100.651Z" fill="#B5AEDF"/>
<circle cx="76.5818" cy="70.6892" r="5.81421" fill="#B5AEDF"/>
<circle cx="96.7102" cy="70.6892" r="5.81421" fill="#B5AEDF"/>
<circle cx="116.839" cy="70.6892" r="5.81421" fill="#B5AEDF"/>
<rect x="319.522" y="28.1379" width="132.762" height="41.8513" rx="4" fill="#8200FF"/>
<path d="M366.229 53.0637V43.8937H367.615V51.8877H372.025V53.0637H366.229ZM377.046 53.2317C376.448 53.2317 375.888 53.0917 375.366 52.8117C374.852 52.5317 374.432 52.1257 374.106 51.5937C373.788 51.0524 373.63 50.4037 373.63 49.6477C373.63 48.8917 373.788 48.2477 374.106 47.7157C374.432 47.1744 374.852 46.7637 375.366 46.4837C375.888 46.1944 376.448 46.0497 377.046 46.0497C377.643 46.0497 378.198 46.1944 378.712 46.4837C379.234 46.7637 379.654 47.1744 379.972 47.7157C380.298 48.2477 380.462 48.8917 380.462 49.6477C380.462 50.4037 380.298 51.0524 379.972 51.5937C379.654 52.1257 379.234 52.5317 378.712 52.8117C378.198 53.0917 377.643 53.2317 377.046 53.2317ZM377.046 52.0977C377.447 52.0977 377.797 51.9951 378.096 51.7897C378.394 51.5844 378.623 51.2997 378.782 50.9357C378.95 50.5717 379.034 50.1424 379.034 49.6477C379.034 49.1624 378.95 48.7377 378.782 48.3737C378.623 48.0004 378.394 47.7111 378.096 47.5057C377.797 47.3004 377.447 47.1977 377.046 47.1977C376.644 47.1977 376.294 47.3004 375.996 47.5057C375.697 47.7111 375.464 48.0004 375.296 48.3737C375.137 48.7377 375.058 49.1624 375.058 49.6477C375.058 50.1424 375.137 50.5717 375.296 50.9357C375.464 51.2997 375.697 51.5844 375.996 51.7897C376.294 51.9951 376.644 52.0977 377.046 52.0977ZM382.738 53.0637L381.338 46.2177H382.71L383.41 49.9837C383.476 50.3011 383.532 50.6184 383.578 50.9357C383.625 51.2531 383.667 51.5751 383.704 51.9017H383.76C383.807 51.5751 383.863 51.2531 383.928 50.9357C383.994 50.6184 384.059 50.3011 384.124 49.9837L384.866 46.7777H386.098L386.826 49.9837C386.892 50.3011 386.962 50.6184 387.036 50.9357C387.12 51.2531 387.181 51.5751 387.218 51.9017H387.274C387.33 51.5751 387.377 51.2531 387.414 50.9357C387.452 50.6184 387.498 50.3011 387.554 49.9837L388.254 46.2177H389.542L388.184 53.0637H386.462L385.79 50.0677C385.734 49.8157 385.678 49.5217 385.622 49.1857C385.576 48.8497 385.524 48.4717 385.468 48.0517H385.412C385.366 48.4437 385.314 48.8077 385.258 49.1437C385.212 49.4704 385.16 49.7784 385.104 50.0677L384.446 53.0637H382.738ZM402.859 53.2317C402.15 53.2317 401.511 53.0917 400.941 52.8117C400.372 52.5317 399.919 52.1257 399.583 51.5937C399.257 51.0524 399.093 50.4037 399.093 49.6477C399.093 48.8917 399.271 48.2477 399.625 47.7157C399.98 47.1744 400.447 46.7637 401.025 46.4837C401.613 46.1944 402.253 46.0497 402.943 46.0497C403.503 46.0497 403.993 46.1477 404.413 46.3437C404.833 46.5304 405.183 46.7591 405.463 47.0297L404.791 47.9117C404.511 47.6877 404.227 47.5151 403.937 47.3937C403.657 47.2631 403.349 47.1977 403.013 47.1977C402.528 47.1977 402.094 47.3004 401.711 47.5057C401.338 47.7111 401.044 48.0004 400.829 48.3737C400.624 48.7377 400.521 49.1624 400.521 49.6477C400.521 50.1424 400.624 50.5717 400.829 50.9357C401.035 51.2997 401.319 51.5844 401.683 51.7897C402.057 51.9951 402.486 52.0977 402.971 52.0977C403.382 52.0977 403.755 52.0184 404.091 51.8597C404.427 51.7011 404.731 51.5097 405.001 51.2857L405.603 52.1817C405.221 52.5177 404.791 52.7791 404.315 52.9657C403.849 53.1431 403.363 53.2317 402.859 53.2317ZM410.624 53.2317C410.026 53.2317 409.466 53.0917 408.944 52.8117C408.43 52.5317 408.01 52.1257 407.684 51.5937C407.366 51.0524 407.208 50.4037 407.208 49.6477C407.208 48.8917 407.366 48.2477 407.684 47.7157C408.01 47.1744 408.43 46.7637 408.944 46.4837C409.466 46.1944 410.026 46.0497 410.624 46.0497C411.221 46.0497 411.776 46.1944 412.29 46.4837C412.812 46.7637 413.232 47.1744 413.55 47.7157C413.876 48.2477 414.04 48.8917 414.04 49.6477C414.04 50.4037 413.876 51.0524 413.55 51.5937C413.232 52.1257 412.812 52.5317 412.29 52.8117C411.776 53.0917 411.221 53.2317 410.624 53.2317ZM410.624 52.0977C411.025 52.0977 411.375 51.9951 411.674 51.7897C411.972 51.5844 412.201 51.2997 412.36 50.9357C412.528 50.5717 412.612 50.1424 412.612 49.6477C412.612 49.1624 412.528 48.7377 412.36 48.3737C412.201 48.0004 411.972 47.7111 411.674 47.5057C411.375 47.3004 411.025 47.1977 410.624 47.1977C410.222 47.1977 409.872 47.3004 409.574 47.5057C409.275 47.7111 409.042 48.0004 408.874 48.3737C408.715 48.7377 408.636 49.1624 408.636 49.6477C408.636 50.1424 408.715 50.5717 408.874 50.9357C409.042 51.2997 409.275 51.5844 409.574 51.7897C409.872 51.9951 410.222 52.0977 410.624 52.0977ZM418.556 53.2317C417.67 53.2317 416.956 52.9191 416.414 52.2937C415.873 51.6591 415.602 50.7771 415.602 49.6477C415.602 48.9104 415.747 48.2757 416.036 47.7437C416.335 47.2024 416.718 46.7871 417.184 46.4977C417.651 46.1991 418.146 46.0497 418.668 46.0497C419.07 46.0497 419.429 46.1244 419.746 46.2737C420.064 46.4231 420.358 46.6331 420.628 46.9037H420.67L420.6 45.6857V43.1377H421.986V53.0637H420.852L420.74 52.2237H420.698C420.428 52.4944 420.106 52.7324 419.732 52.9377C419.359 53.1337 418.967 53.2317 418.556 53.2317ZM418.878 52.0837C419.186 52.0837 419.48 52.0091 419.76 51.8597C420.05 51.7011 420.33 51.4677 420.6 51.1597V47.9117C420.33 47.6597 420.059 47.4824 419.788 47.3797C419.518 47.2677 419.247 47.2117 418.976 47.2117C418.622 47.2117 418.295 47.3097 417.996 47.5057C417.707 47.7017 417.474 47.9817 417.296 48.3457C417.119 48.7097 417.03 49.1391 417.03 49.6337C417.03 50.4177 417.194 51.0244 417.52 51.4537C417.847 51.8737 418.3 52.0837 418.878 52.0837ZM427.833 53.2317C427.142 53.2317 426.512 53.0917 425.943 52.8117C425.383 52.5317 424.94 52.1211 424.613 51.5797C424.286 51.0384 424.123 50.3897 424.123 49.6337C424.123 48.8871 424.286 48.2477 424.613 47.7157C424.949 47.1837 425.383 46.7731 425.915 46.4837C426.447 46.1944 427.016 46.0497 427.623 46.0497C428.295 46.0497 428.864 46.1897 429.331 46.4697C429.798 46.7404 430.152 47.1184 430.395 47.6037C430.647 48.0797 430.773 48.6397 430.773 49.2837C430.773 49.4237 430.768 49.5637 430.759 49.7037C430.75 49.8344 430.736 49.9464 430.717 50.0397H425.089V49.0177H429.849L429.541 49.3537C429.541 48.6164 429.373 48.0657 429.037 47.7017C428.701 47.3284 428.244 47.1417 427.665 47.1417C427.264 47.1417 426.895 47.2397 426.559 47.4357C426.232 47.6224 425.971 47.9024 425.775 48.2757C425.579 48.6397 425.481 49.0924 425.481 49.6337C425.481 50.1937 425.588 50.6604 425.803 51.0337C426.027 51.3977 426.326 51.6731 426.699 51.8597C427.082 52.0464 427.52 52.1397 428.015 52.1397C428.398 52.1397 428.748 52.0884 429.065 51.9857C429.382 51.8737 429.695 51.7244 430.003 51.5377L430.493 52.4197C430.148 52.6531 429.751 52.8491 429.303 53.0077C428.855 53.1571 428.365 53.2317 427.833 53.2317Z" fill="white"/>
<path d="M348.193 48.0637H336.183V50.0637H348.193V53.0637L352.183 49.0637L348.193 45.0637V48.0637Z" fill="white"/>
<rect x="184.813" y="312.086" width="96.1123" height="41.8513" rx="4" fill="#F62E76"/>
<path d="M234.933 338.34V334.66L231.445 327.86H233.141L234.597 330.82C234.789 331.215 234.976 331.615 235.157 332.02C235.338 332.415 235.53 332.825 235.733 333.252H235.797C236 332.825 236.197 332.415 236.389 332.02C236.581 331.615 236.773 331.209 236.965 330.804L238.357 327.86H240.021L236.533 334.66V338.34H234.933ZM240.943 338.34L244.399 327.86H246.255L249.711 338.34H248.015L246.319 332.628C246.148 332.052 245.978 331.476 245.807 330.9C245.647 330.313 245.487 329.727 245.327 329.14H245.263C245.114 329.727 244.954 330.313 244.783 330.9C244.623 331.476 244.458 332.052 244.287 332.628L242.575 338.34H240.943ZM242.879 335.332V334.068H247.743V335.332H242.879ZM251.209 338.34V327.86H253.065L254.425 332.132L254.889 333.764H254.953L255.417 332.132L256.777 327.86H258.633V338.34H257.161V333.62C257.161 333.353 257.171 333.044 257.193 332.692C257.214 332.329 257.235 331.956 257.257 331.572C257.289 331.188 257.315 330.825 257.337 330.484C257.369 330.143 257.395 329.849 257.417 329.604H257.369L256.713 331.86L255.385 335.556H254.393L253.081 331.86L252.441 329.604H252.393C252.425 329.849 252.451 330.143 252.473 330.484C252.505 330.825 252.531 331.188 252.553 331.572C252.574 331.956 252.595 332.329 252.617 332.692C252.638 333.044 252.649 333.353 252.649 333.62V338.34H251.209ZM261.746 338.34V327.86H263.33V336.996H268.37V338.34H261.746Z" fill="white"/>
<path d="M213.484 332.012H201.474V334.012H213.484V337.012L217.474 333.012L213.484 329.012V332.012Z" fill="white"/>
<defs>
<filter id="filter0_d_917_3363" x="11.0944" y="17.5318" width="566.581" height="372.57" filterUnits="userSpaceOnUse" color-interpolation-filters="sRGB">
<feFlood flood-opacity="0" result="BackgroundImageFix"/>
<feColorMatrix in="SourceAlpha" type="matrix" values="0 0 0 0 0 0 0 0 0 0 0 0 0 0 0 0 0 0 127 0" result="hardAlpha"/>
<feOffset dy="12.972"/>
<feGaussianBlur stdDeviation="19.8635"/>
<feComposite in2="hardAlpha" operator="out"/>
<feColorMatrix type="matrix" values="0 0 0 0 0.351796 0 0 0 0 0 0 0 0 0 0.691667 0 0 0 0.1 0"/>
<feBlend mode="normal" in2="BackgroundImageFix" result="effect1_dropShadow_917_3363"/>
<feBlend mode="normal" in="SourceGraphic" in2="effect1_dropShadow_917_3363" result="shape"/>
</filter>
<radialGradient id="paint0_diamond_917_3363" cx="0" cy="0" r="1" gradientUnits="userSpaceOnUse" gradientTransform="translate(563.146 8.2613e-06) rotate(141.902) scale(551.683 666.426)">
<stop offset="0.35225" stop-color="#E2E0FE" stop-opacity="0.4"/>
<stop offset="1" stop-color="#E2E0FE" stop-opacity="0"/>
</radialGradient>
</defs>
</svg>
