<svg width="575" height="421" viewBox="0 0 575 421" fill="none" xmlns="http://www.w3.org/2000/svg">
<rect x="0.5" y="0.849609" width="568" height="420" rx="12" fill="url(#paint0_diamond_917_3688)"/>
<circle cx="345.981" cy="44.2867" r="3.2877" fill="#AB9FE6" fill-opacity="0.2"/>
<circle cx="345.981" cy="63.0736" r="3.2877" fill="#AB9FE6" fill-opacity="0.2"/>
<circle cx="345.981" cy="81.8605" r="3.2877" fill="#AB9FE6" fill-opacity="0.2"/>
<circle cx="327.194" cy="100.647" r="3.2877" fill="#AB9FE6" fill-opacity="0.2"/>
<circle cx="402.342" cy="119.434" r="3.2877" fill="#AB9FE6" fill-opacity="0.2"/>
<circle cx="364.768" cy="138.221" r="3.2877" fill="#AB9FE6" fill-opacity="0.2"/>
<circle cx="327.194" cy="138.221" r="3.2877" fill="#AB9FE6" fill-opacity="0.2"/>
<circle cx="439.915" cy="63.0736" r="3.2877" fill="#AB9FE6" fill-opacity="0.2"/>
<circle cx="439.915" cy="81.8605" r="3.2877" fill="#AB9FE6" fill-opacity="0.2"/>
<circle cx="421.129" cy="100.647" r="3.2877" fill="#AB9FE6" fill-opacity="0.2"/>
<circle cx="496.276" cy="119.434" r="3.2877" fill="#AB9FE6" fill-opacity="0.2"/>
<circle cx="458.702" cy="138.221" r="3.2877" fill="#AB9FE6" fill-opacity="0.2"/>
<circle cx="383.555" cy="44.2867" r="3.2877" fill="#AB9FE6" fill-opacity="0.2"/>
<circle cx="383.555" cy="63.0736" r="3.2877" fill="#AB9FE6" fill-opacity="0.2"/>
<circle cx="383.555" cy="81.8605" r="3.2877" fill="#AB9FE6" fill-opacity="0.2"/>
<circle cx="364.768" cy="100.647" r="3.2877" fill="#AB9FE6" fill-opacity="0.2"/>
<circle cx="439.915" cy="119.434" r="3.2877" fill="#AB9FE6" fill-opacity="0.2"/>
<circle cx="402.342" cy="138.221" r="3.2877" fill="#AB9FE6" fill-opacity="0.2"/>
<circle cx="477.489" cy="63.0736" r="3.2877" fill="#AB9FE6" fill-opacity="0.2"/>
<circle cx="477.489" cy="81.8605" r="3.2877" fill="#AB9FE6" fill-opacity="0.2"/>
<circle cx="458.702" cy="100.647" r="3.2877" fill="#AB9FE6" fill-opacity="0.2"/>
<circle cx="477.489" cy="100.647" r="3.2877" fill="#AB9FE6" fill-opacity="0.2"/>
<circle cx="496.276" cy="138.221" r="3.2877" fill="#AB9FE6" fill-opacity="0.2"/>
<circle cx="364.768" cy="44.2867" r="3.2877" fill="#AB9FE6" fill-opacity="0.2"/>
<circle cx="364.768" cy="63.0736" r="3.2877" fill="#AB9FE6" fill-opacity="0.2"/>
<circle cx="364.768" cy="81.8605" r="3.2877" fill="#AB9FE6" fill-opacity="0.2"/>
<circle cx="345.981" cy="100.647" r="3.2877" fill="#AB9FE6" fill-opacity="0.2"/>
<circle cx="421.129" cy="119.434" r="3.2877" fill="#AB9FE6" fill-opacity="0.2"/>
<circle cx="383.555" cy="138.221" r="3.2877" fill="#AB9FE6" fill-opacity="0.2"/>
<circle cx="345.981" cy="138.221" r="3.2877" fill="#AB9FE6" fill-opacity="0.2"/>
<circle cx="458.702" cy="63.0736" r="3.2877" fill="#AB9FE6" fill-opacity="0.2"/>
<circle cx="458.702" cy="81.8605" r="3.2877" fill="#AB9FE6" fill-opacity="0.2"/>
<circle cx="439.915" cy="100.647" r="3.2877" fill="#AB9FE6" fill-opacity="0.2"/>
<circle cx="515.063" cy="119.434" r="3.2877" fill="#AB9FE6" fill-opacity="0.2"/>
<circle cx="477.489" cy="138.221" r="3.2877" fill="#AB9FE6" fill-opacity="0.2"/>
<circle cx="402.342" cy="44.2867" r="3.2877" fill="#AB9FE6" fill-opacity="0.2"/>
<circle cx="402.342" cy="63.0736" r="3.2877" fill="#AB9FE6" fill-opacity="0.2"/>
<circle cx="402.342" cy="81.8605" r="3.2877" fill="#AB9FE6" fill-opacity="0.2"/>
<circle cx="383.555" cy="100.647" r="3.2877" fill="#AB9FE6" fill-opacity="0.2"/>
<circle cx="458.702" cy="119.434" r="3.2877" fill="#AB9FE6" fill-opacity="0.2"/>
<circle cx="421.129" cy="138.221" r="3.2877" fill="#AB9FE6" fill-opacity="0.2"/>
<circle cx="496.276" cy="63.0736" r="3.2877" fill="#AB9FE6" fill-opacity="0.2"/>
<circle cx="421.129" cy="44.2867" r="3.2877" fill="#AB9FE6" fill-opacity="0.2"/>
<circle cx="421.129" cy="63.0736" r="3.2877" fill="#AB9FE6" fill-opacity="0.2"/>
<circle cx="421.129" cy="81.8605" r="3.2877" fill="#AB9FE6" fill-opacity="0.2"/>
<circle cx="402.342" cy="100.647" r="3.2877" fill="#AB9FE6" fill-opacity="0.2"/>
<circle cx="477.489" cy="119.434" r="3.2877" fill="#AB9FE6" fill-opacity="0.2"/>
<circle cx="439.915" cy="138.221" r="3.2877" fill="#AB9FE6" fill-opacity="0.2"/>
<path fill-rule="evenodd" clip-rule="evenodd" d="M110.823 70.4267C110.16 70.4073 109.496 70.4207 108.834 70.4668L90.2327 89.0684C90.1866 89.7303 90.1733 90.3941 90.1926 91.0571L110.823 70.4267ZM90.7152 95.0658C90.5882 94.5242 90.484 93.9784 90.4026 93.4298L113.196 70.6366C113.744 70.7181 114.29 70.8223 114.832 70.9493L90.7152 95.0658ZM91.843 98.4683C91.6424 98.0068 91.46 97.5393 91.2958 97.0669L116.833 71.5299C117.305 71.6941 117.773 71.8765 118.234 72.077L91.843 98.4683ZM93.4294 101.413C93.1694 101.015 92.9251 100.609 92.6964 100.198L119.963 72.9305C120.375 73.1592 120.781 73.4035 121.179 73.6635L93.4294 101.413ZM95.4066 103.966C95.094 103.623 94.7954 103.272 94.5108 102.913L122.679 74.7449C123.038 75.0295 123.389 75.3281 123.732 75.6407L95.4066 103.966ZM97.7462 106.158C97.3885 105.872 97.0382 105.573 96.6962 105.259L125.025 76.9303C125.339 77.2723 125.638 77.6226 125.924 77.9803L97.7462 106.158ZM100.455 107.979C100.045 107.749 99.64 107.504 99.2428 107.243L127.009 79.4768C127.27 79.8741 127.515 80.2786 127.745 80.6895L100.455 107.979ZM103.578 109.388C103.107 109.222 102.641 109.038 102.18 108.837L128.603 82.4145C128.804 82.8747 128.988 83.3411 129.153 83.8123L103.578 109.388ZM107.206 110.291C106.659 110.208 106.115 110.102 105.575 109.974L129.74 85.8089C129.868 86.3488 129.974 86.8931 130.057 87.4401L107.206 110.291ZM111.55 110.477C110.891 110.52 110.23 110.531 109.57 110.509L130.275 89.804C130.297 90.4642 130.286 91.1252 130.243 91.7846L111.55 110.477ZM117.331 109.227C116.425 109.57 115.498 109.844 114.56 110.05L129.816 94.7937C129.61 95.7322 129.336 96.6588 128.993 97.5655L117.331 109.227ZM90.6761 86.0423L105.808 70.9102C104.86 71.1238 103.925 71.4069 103.01 71.7595L91.5254 83.2443C91.1728 84.159 90.8897 85.0944 90.6761 86.0423Z" fill="#EE81DE"/>
<circle cx="72.6415" cy="153.087" r="3.2877" fill="#AB9FE6" fill-opacity="0.2"/>
<circle cx="72.6415" cy="171.874" r="3.2877" fill="#AB9FE6" fill-opacity="0.2"/>
<circle cx="72.6415" cy="190.661" r="3.2877" fill="#AB9FE6" fill-opacity="0.2"/>
<circle cx="53.8546" cy="209.448" r="3.2877" fill="#AB9FE6" fill-opacity="0.2"/>
<circle cx="129.002" cy="228.234" r="3.2877" fill="#AB9FE6" fill-opacity="0.2"/>
<circle cx="91.4283" cy="247.021" r="3.2877" fill="#AB9FE6" fill-opacity="0.2"/>
<circle cx="53.8546" cy="247.021" r="3.2877" fill="#AB9FE6" fill-opacity="0.2"/>
<circle cx="166.576" cy="171.874" r="3.2877" fill="#AB9FE6" fill-opacity="0.2"/>
<circle cx="166.576" cy="190.661" r="3.2877" fill="#AB9FE6" fill-opacity="0.2"/>
<circle cx="147.789" cy="209.448" r="3.2877" fill="#AB9FE6" fill-opacity="0.2"/>
<circle cx="222.936" cy="228.234" r="3.2877" fill="#AB9FE6" fill-opacity="0.2"/>
<circle cx="185.363" cy="247.021" r="3.2877" fill="#AB9FE6" fill-opacity="0.2"/>
<circle cx="110.215" cy="153.087" r="3.2877" fill="#AB9FE6" fill-opacity="0.2"/>
<circle cx="110.215" cy="171.874" r="3.2877" fill="#AB9FE6" fill-opacity="0.2"/>
<circle cx="110.215" cy="190.661" r="3.2877" fill="#AB9FE6" fill-opacity="0.2"/>
<circle cx="91.4283" cy="209.448" r="3.2877" fill="#AB9FE6" fill-opacity="0.2"/>
<circle cx="166.576" cy="228.234" r="3.2877" fill="#AB9FE6" fill-opacity="0.2"/>
<circle cx="129.002" cy="247.021" r="3.2877" fill="#AB9FE6" fill-opacity="0.2"/>
<circle cx="204.15" cy="171.874" r="3.2877" fill="#AB9FE6" fill-opacity="0.2"/>
<circle cx="204.15" cy="190.661" r="3.2877" fill="#AB9FE6" fill-opacity="0.2"/>
<circle cx="185.363" cy="209.448" r="3.2877" fill="#AB9FE6" fill-opacity="0.2"/>
<circle cx="204.15" cy="209.448" r="3.2877" fill="#AB9FE6" fill-opacity="0.2"/>
<circle cx="222.936" cy="247.021" r="3.2877" fill="#AB9FE6" fill-opacity="0.2"/>
<circle cx="91.4283" cy="153.087" r="3.2877" fill="#AB9FE6" fill-opacity="0.2"/>
<circle cx="91.4283" cy="171.874" r="3.2877" fill="#AB9FE6" fill-opacity="0.2"/>
<circle cx="91.4283" cy="190.661" r="3.2877" fill="#AB9FE6" fill-opacity="0.2"/>
<circle cx="72.6415" cy="209.448" r="3.2877" fill="#AB9FE6" fill-opacity="0.2"/>
<circle cx="147.789" cy="228.234" r="3.2877" fill="#AB9FE6" fill-opacity="0.2"/>
<circle cx="110.215" cy="247.021" r="3.2877" fill="#AB9FE6" fill-opacity="0.2"/>
<circle cx="72.6415" cy="247.021" r="3.2877" fill="#AB9FE6" fill-opacity="0.2"/>
<circle cx="185.363" cy="171.874" r="3.2877" fill="#AB9FE6" fill-opacity="0.2"/>
<circle cx="185.363" cy="190.661" r="3.2877" fill="#AB9FE6" fill-opacity="0.2"/>
<circle cx="166.576" cy="209.448" r="3.2877" fill="#AB9FE6" fill-opacity="0.2"/>
<circle cx="241.723" cy="228.234" r="3.2877" fill="#AB9FE6" fill-opacity="0.2"/>
<circle cx="204.15" cy="247.021" r="3.2877" fill="#AB9FE6" fill-opacity="0.2"/>
<circle cx="129.002" cy="153.087" r="3.2877" fill="#AB9FE6" fill-opacity="0.2"/>
<circle cx="129.002" cy="171.874" r="3.2877" fill="#AB9FE6" fill-opacity="0.2"/>
<circle cx="129.002" cy="190.661" r="3.2877" fill="#AB9FE6" fill-opacity="0.2"/>
<circle cx="110.215" cy="209.448" r="3.2877" fill="#AB9FE6" fill-opacity="0.2"/>
<circle cx="185.363" cy="228.234" r="3.2877" fill="#AB9FE6" fill-opacity="0.2"/>
<circle cx="147.789" cy="247.021" r="3.2877" fill="#AB9FE6" fill-opacity="0.2"/>
<circle cx="222.936" cy="171.874" r="3.2877" fill="#AB9FE6" fill-opacity="0.2"/>
<circle cx="147.789" cy="153.087" r="3.2877" fill="#AB9FE6" fill-opacity="0.2"/>
<circle cx="147.789" cy="171.874" r="3.2877" fill="#AB9FE6" fill-opacity="0.2"/>
<circle cx="147.789" cy="190.661" r="3.2877" fill="#AB9FE6" fill-opacity="0.2"/>
<circle cx="129.002" cy="209.448" r="3.2877" fill="#AB9FE6" fill-opacity="0.2"/>
<circle cx="204.15" cy="228.234" r="3.2877" fill="#AB9FE6" fill-opacity="0.2"/>
<circle cx="166.576" cy="247.021" r="3.2877" fill="#AB9FE6" fill-opacity="0.2"/>
<path fill-rule="evenodd" clip-rule="evenodd" d="M398.86 284.89C400.578 283.608 402.371 282.471 404.22 281.479L386.629 299.07C387.621 297.221 388.758 295.429 390.04 293.71L398.86 284.89ZM384.434 303.847L408.997 279.284C409.978 278.904 410.971 278.562 411.972 278.257L383.407 306.822C383.712 305.821 384.054 304.828 384.434 303.847ZM382.059 312.701C382.185 311.901 382.333 311.103 382.503 310.309L415.459 277.353C416.253 277.183 417.051 277.035 417.851 276.909L382.059 312.701ZM381.572 317.719C381.599 317.025 381.642 316.332 381.702 315.64L420.79 276.552C421.482 276.492 422.175 276.449 422.869 276.422L381.572 317.719ZM381.631 322.191C381.59 321.569 381.563 320.947 381.55 320.324L425.474 276.4C426.097 276.414 426.719 276.441 427.341 276.481L381.631 322.191ZM382.09 326.262C381.999 325.694 381.918 325.125 381.85 324.554L429.704 276.7C430.275 276.769 430.844 276.849 431.412 276.94L382.09 326.262ZM382.868 330.016C382.735 329.492 382.611 328.965 382.498 328.437L433.587 277.348C434.115 277.461 434.641 277.585 435.166 277.718L382.868 330.016ZM383.913 333.502C383.744 333.015 383.584 332.525 383.433 332.033L437.183 278.283C437.675 278.434 438.165 278.594 438.652 278.763L383.913 333.502ZM385.192 336.754C384.991 336.299 384.799 335.842 384.615 335.382L440.532 279.465C440.992 279.649 441.449 279.841 441.904 280.042L385.192 336.754ZM386.681 339.796C386.451 339.371 386.23 338.943 386.016 338.512L443.662 280.866C444.093 281.08 444.521 281.301 444.946 281.531L386.681 339.796ZM388.363 342.644C388.107 342.246 387.858 341.846 387.617 341.442L446.592 282.467C446.996 282.708 447.396 282.957 447.794 283.213L388.363 342.644ZM390.228 345.31C389.947 344.938 389.672 344.563 389.405 344.185L449.335 284.255C449.713 284.523 450.088 284.797 450.46 285.079L390.228 345.31ZM392.267 347.801C391.961 347.455 391.662 347.105 391.369 346.751L451.901 286.219C452.254 286.512 452.605 286.811 452.951 287.117L392.267 347.801ZM394.475 350.125C394.36 350.013 394.246 349.9 394.133 349.787C393.921 349.575 393.712 349.361 393.505 349.146L454.296 288.355C454.511 288.562 454.725 288.771 454.937 288.983C455.05 289.096 455.163 289.21 455.275 289.325L394.475 350.125ZM396.849 352.283C396.498 351.987 396.151 351.684 395.807 351.375L456.525 290.657C456.834 291.001 457.137 291.348 457.433 291.699L396.849 352.283ZM399.392 354.27C399.017 353.999 398.645 353.721 398.277 353.436L458.586 293.127C458.871 293.495 459.149 293.867 459.42 294.242L399.392 354.27ZM402.112 356.081C401.711 355.836 401.314 355.584 400.92 355.324L460.474 295.77C460.734 296.164 460.986 296.561 461.231 296.962L402.112 356.081ZM405.016 357.707C404.589 357.489 404.165 357.264 403.743 357.031L462.181 298.593C462.414 299.015 462.639 299.439 462.857 299.866L405.016 357.707ZM408.119 359.135C407.663 358.947 407.21 358.751 406.76 358.546L463.696 301.61C463.901 302.06 464.097 302.514 464.285 302.969L408.119 359.135ZM411.438 360.346C410.951 360.191 410.466 360.026 409.983 359.853L465.003 304.833C465.176 305.316 465.341 305.801 465.496 306.289L411.438 360.346ZM415.001 361.315C414.478 361.197 413.956 361.069 413.437 360.93L466.08 308.287C466.218 308.806 466.347 309.328 466.465 309.851L415.001 361.315ZM418.843 362.004C418.278 361.929 417.715 361.843 417.153 361.745L466.895 312.003C466.992 312.565 467.079 313.128 467.154 313.693L418.843 362.004ZM423.024 362.354C422.409 362.332 421.794 362.297 421.179 362.25L467.4 316.03C467.447 316.644 467.482 317.259 467.503 317.874L423.024 362.354ZM427.641 362.268C426.959 362.317 426.276 362.35 425.593 362.367L467.517 320.444C467.5 321.126 467.467 321.809 467.418 322.491L427.641 362.268ZM432.871 361.569C432.093 361.722 431.312 361.853 430.528 361.963L467.113 325.378C467.003 326.162 466.872 326.943 466.719 327.721L432.871 361.569ZM439.135 359.836C438.187 360.177 437.23 360.484 436.265 360.757L465.907 331.115C465.634 332.08 465.327 333.037 464.986 333.985L439.135 359.836ZM448.229 355.272C446.742 356.256 445.207 357.138 443.635 357.918L463.068 338.485C462.288 340.057 461.406 341.592 460.422 343.079L448.229 355.272Z" fill="#8200FF"/>
<g filter="url(#filter0_d_917_3688)">
<rect x="68.6416" y="92.7363" width="412.15" height="123.968" rx="10" fill="white"/>
</g>
<g filter="url(#filter1_d_917_3688)">
<rect x="407.319" y="47.6946" width="127.027" height="76.3785" rx="10" fill="white"/>
</g>
<circle cx="420.986" cy="61.0803" r="2.9541" fill="#ED4F4F"/>
<circle cx="431.213" cy="61.0803" r="2.9541" fill="#F8D45C"/>
<circle cx="441.44" cy="61.0803" r="2.9541" fill="#8EF85C"/>
<rect x="420.986" y="75.9839" width="10.3635" height="4.56546" rx="2.28273" fill="#6F20C7"/>
<rect x="457.438" y="75.9839" width="32.9503" height="4.56546" rx="2.28273" fill="#FACA84"/>
<rect x="435.527" y="75.9839" width="17.7344" height="4.56546" rx="2.28273" fill="#52D7BD"/>
<rect x="435.527" y="85.8838" width="10.4717" height="4.56546" rx="2.28273" fill="#52D7BD"/>
<rect x="435.527" y="105.683" width="10.4717" height="4.56546" rx="2.28273" fill="#52D7BD"/>
<rect x="435.527" y="95.7832" width="24.2661" height="4.56546" rx="2.28273" fill="#52D7BD"/>
<rect x="420.986" y="85.8838" width="10.3635" height="4.56546" rx="2.28273" fill="#6F20C7"/>
<rect x="450.176" y="85.8838" width="62.0676" height="4.56546" rx="2.28273" fill="#FACA84"/>
<rect x="420.986" y="95.7832" width="10.3635" height="4.56546" rx="2.28273" fill="#6F20C7"/>
<rect x="462.838" y="95.7832" width="32.9503" height="4.56546" rx="2.28273" fill="#FACA84"/>
<rect x="420.986" y="105.683" width="10.3635" height="4.56546" rx="2.28273" fill="#6F20C7"/>
<rect x="450.176" y="105.683" width="32.9503" height="4.56546" rx="2.28273" fill="#FACA84"/>
<path d="M457.092 64.1307C456.708 64.1307 456.353 64.0613 456.028 63.9227C455.708 63.7787 455.428 63.5893 455.188 63.3547L455.588 62.8907C455.785 63.088 456.014 63.248 456.276 63.3707C456.542 63.488 456.825 63.5467 457.124 63.5467C457.486 63.5467 457.766 63.4693 457.964 63.3147C458.166 63.16 458.268 62.96 458.268 62.7147C458.268 62.528 458.225 62.3787 458.14 62.2667C458.06 62.1547 457.948 62.0613 457.804 61.9867C457.665 61.912 457.505 61.8373 457.324 61.7627L456.572 61.4347C456.396 61.36 456.22 61.2667 456.044 61.1547C455.873 61.0427 455.729 60.9013 455.612 60.7307C455.494 60.5547 455.436 60.3387 455.436 60.0827C455.436 59.816 455.508 59.5787 455.652 59.3707C455.801 59.1573 456.006 58.992 456.268 58.8747C456.529 58.752 456.825 58.6907 457.156 58.6907C457.486 58.6907 457.79 58.752 458.068 58.8747C458.345 58.992 458.58 59.1467 458.772 59.3387L458.42 59.7707C458.249 59.616 458.06 59.496 457.852 59.4107C457.644 59.32 457.404 59.2747 457.132 59.2747C456.828 59.2747 456.582 59.344 456.396 59.4827C456.209 59.616 456.116 59.8027 456.116 60.0427C456.116 60.208 456.161 60.344 456.252 60.4507C456.348 60.5573 456.468 60.6453 456.612 60.7147C456.756 60.784 456.902 60.8507 457.052 60.9147L457.788 61.2347C458.006 61.32 458.204 61.424 458.38 61.5467C458.556 61.664 458.694 61.8107 458.796 61.9867C458.897 62.1627 458.948 62.3787 458.948 62.6347C458.948 62.912 458.873 63.1653 458.724 63.3947C458.574 63.6187 458.361 63.7973 458.084 63.9307C457.806 64.064 457.476 64.1307 457.092 64.1307ZM461.848 64.1307C461.507 64.1307 461.19 64.0507 460.896 63.8907C460.608 63.7307 460.374 63.4987 460.192 63.1947C460.016 62.8907 459.928 62.5253 459.928 62.0987C459.928 61.6613 460.016 61.2907 460.192 60.9867C460.374 60.6827 460.608 60.4507 460.896 60.2907C461.19 60.1307 461.507 60.0507 461.848 60.0507C462.19 60.0507 462.504 60.1307 462.792 60.2907C463.086 60.4507 463.32 60.6827 463.496 60.9867C463.678 61.2907 463.768 61.6613 463.768 62.0987C463.768 62.5253 463.678 62.8907 463.496 63.1947C463.32 63.4987 463.086 63.7307 462.792 63.8907C462.504 64.0507 462.19 64.1307 461.848 64.1307ZM461.848 63.5867C462.099 63.5867 462.318 63.5253 462.504 63.4027C462.691 63.2747 462.835 63.0987 462.936 62.8747C463.038 62.6507 463.088 62.392 463.088 62.0987C463.088 61.8 463.038 61.5387 462.936 61.3147C462.835 61.0853 462.691 60.9093 462.504 60.7867C462.318 60.6587 462.099 60.5947 461.848 60.5947C461.598 60.5947 461.379 60.6587 461.192 60.7867C461.011 60.9093 460.867 61.0853 460.76 61.3147C460.659 61.5387 460.608 61.8 460.608 62.0987C460.608 62.392 460.659 62.6507 460.76 62.8747C460.867 63.0987 461.011 63.2747 461.192 63.4027C461.379 63.5253 461.598 63.5867 461.848 63.5867ZM466.213 64.1307C465.749 64.1307 465.408 63.9973 465.189 63.7307C464.971 63.464 464.861 63.0747 464.861 62.5627V60.1467H465.525V62.4747C465.525 62.8427 465.592 63.1173 465.725 63.2987C465.864 63.4747 466.096 63.5627 466.421 63.5627C466.645 63.5627 466.848 63.5067 467.029 63.3947C467.216 63.2773 467.416 63.0933 467.629 62.8427V60.1467H468.285V64.0347H467.749L467.693 63.3547H467.661C467.464 63.5787 467.248 63.7653 467.013 63.9147C466.779 64.0587 466.512 64.1307 466.213 64.1307ZM470.21 64.0347V60.1467H470.754L470.81 61.0667H470.834C471.037 60.752 471.288 60.504 471.586 60.3227C471.885 60.1413 472.213 60.0507 472.57 60.0507C472.714 60.0507 472.848 60.064 472.97 60.0907C473.098 60.112 473.221 60.152 473.338 60.2107L473.186 60.7787C473.053 60.7307 472.938 60.696 472.842 60.6747C472.746 60.6533 472.621 60.6427 472.466 60.6427C472.173 60.6427 471.89 60.728 471.618 60.8987C471.352 61.064 471.101 61.3493 470.866 61.7547V64.0347H470.21ZM476.607 64.1307C476.202 64.1307 475.836 64.0507 475.511 63.8907C475.191 63.7307 474.938 63.4987 474.751 63.1947C474.57 62.8907 474.479 62.5253 474.479 62.0987C474.479 61.6613 474.578 61.2907 474.775 60.9867C474.972 60.6827 475.234 60.4507 475.559 60.2907C475.89 60.1307 476.252 60.0507 476.647 60.0507C476.967 60.0507 477.242 60.1067 477.471 60.2187C477.706 60.3307 477.903 60.464 478.063 60.6187L477.735 61.0427C477.575 60.904 477.41 60.7947 477.239 60.7147C477.068 60.6347 476.879 60.5947 476.671 60.5947C476.372 60.5947 476.108 60.6587 475.879 60.7867C475.65 60.9093 475.471 61.0853 475.343 61.3147C475.22 61.5387 475.159 61.8 475.159 62.0987C475.159 62.392 475.22 62.6507 475.343 62.8747C475.466 63.0987 475.639 63.2747 475.863 63.4027C476.092 63.5253 476.356 63.5867 476.655 63.5867C476.895 63.5867 477.114 63.5387 477.311 63.4427C477.514 63.3467 477.695 63.232 477.855 63.0987L478.151 63.5227C477.938 63.7147 477.698 63.864 477.431 63.9707C477.17 64.0773 476.895 64.1307 476.607 64.1307ZM481.276 64.1307C480.887 64.1307 480.532 64.0507 480.212 63.8907C479.897 63.7307 479.647 63.4987 479.46 63.1947C479.273 62.8853 479.18 62.5147 479.18 62.0827C479.18 61.6613 479.273 61.2987 479.46 60.9947C479.647 60.6907 479.889 60.4587 480.188 60.2987C480.492 60.1333 480.817 60.0507 481.164 60.0507C481.537 60.0507 481.855 60.128 482.116 60.2827C482.383 60.432 482.585 60.6427 482.724 60.9147C482.868 61.1867 482.94 61.5067 482.94 61.8747C482.94 61.9493 482.937 62.0213 482.932 62.0907C482.927 62.16 482.919 62.2213 482.908 62.2747H479.62V61.7627H482.516L482.348 61.9467C482.348 61.488 482.241 61.144 482.028 60.9147C481.82 60.6853 481.537 60.5707 481.18 60.5707C480.94 60.5707 480.716 60.6293 480.508 60.7467C480.305 60.864 480.143 61.0347 480.02 61.2587C479.897 61.4827 479.836 61.7573 479.836 62.0827C479.836 62.4187 479.903 62.6987 480.036 62.9227C480.169 63.1467 480.351 63.3173 480.58 63.4347C480.809 63.5467 481.068 63.6027 481.356 63.6027C481.591 63.6027 481.801 63.5707 481.988 63.5067C482.18 63.4373 482.364 63.3467 482.54 63.2347L482.78 63.6667C482.588 63.7947 482.367 63.904 482.116 63.9947C481.871 64.0853 481.591 64.1307 481.276 64.1307ZM485.913 64.1307C485.534 64.1307 485.18 64.0693 484.849 63.9467C484.518 63.824 484.236 63.6827 484.001 63.5227L484.305 63.0907C484.529 63.2507 484.777 63.3787 485.049 63.4747C485.321 63.5707 485.636 63.6187 485.993 63.6187C486.324 63.6187 486.569 63.5573 486.729 63.4347C486.894 63.312 486.977 63.1707 486.977 63.0107C486.977 62.936 486.961 62.8667 486.929 62.8027C486.902 62.7387 486.846 62.6773 486.761 62.6187C486.681 62.56 486.561 62.504 486.401 62.4507C486.241 62.3973 486.028 62.344 485.761 62.2907C485.254 62.184 484.873 62.04 484.617 61.8587C484.366 61.6773 484.241 61.4427 484.241 61.1547C484.241 60.84 484.377 60.5787 484.649 60.3707C484.921 60.1573 485.324 60.0507 485.857 60.0507C486.156 60.0507 486.444 60.1013 486.721 60.2027C486.998 60.2987 487.233 60.4133 487.425 60.5467L487.105 60.9707C486.929 60.8427 486.729 60.744 486.505 60.6747C486.281 60.6 486.046 60.5627 485.801 60.5627C485.577 60.5627 485.398 60.5893 485.265 60.6427C485.137 60.6907 485.044 60.7573 484.985 60.8427C484.932 60.928 484.905 61.0213 484.905 61.1227C484.905 61.288 484.993 61.4187 485.169 61.5147C485.35 61.6053 485.638 61.6907 486.033 61.7707C486.465 61.8613 486.796 61.9627 487.025 62.0747C487.26 62.1867 487.42 62.3147 487.505 62.4587C487.596 62.6027 487.641 62.7733 487.641 62.9707C487.641 63.184 487.574 63.3787 487.441 63.5547C487.308 63.7253 487.113 63.864 486.857 63.9707C486.601 64.0773 486.286 64.1307 485.913 64.1307Z" fill="#450088"/>
<path d="M259.572 113.724V109.036H257.844V108.476H261.972V109.036H260.244V113.724H259.572ZM263.473 113.724V109.836H264.017L264.073 110.756H264.097C264.3 110.441 264.551 110.193 264.849 110.012C265.148 109.831 265.476 109.74 265.833 109.74C265.977 109.74 266.111 109.753 266.233 109.78C266.361 109.801 266.484 109.841 266.601 109.9L266.449 110.468C266.316 110.42 266.201 110.385 266.105 110.364C266.009 110.343 265.884 110.332 265.729 110.332C265.436 110.332 265.153 110.417 264.881 110.588C264.615 110.753 264.364 111.039 264.129 111.444V113.724H263.473ZM269.63 113.724V110.372H267.822V109.836H270.286V113.724H269.63ZM269.886 109.02C269.737 109.02 269.611 108.975 269.51 108.884C269.409 108.788 269.358 108.663 269.358 108.508C269.358 108.353 269.409 108.231 269.51 108.14C269.611 108.044 269.737 107.996 269.886 107.996C270.035 107.996 270.161 108.044 270.262 108.14C270.363 108.231 270.414 108.353 270.414 108.508C270.414 108.663 270.363 108.788 270.262 108.884C270.161 108.975 270.035 109.02 269.886 109.02ZM274.267 115.516C273.888 115.516 273.566 115.473 273.299 115.388C273.032 115.303 272.827 115.18 272.683 115.02C272.544 114.86 272.475 114.665 272.475 114.436C272.475 114.281 272.528 114.127 272.635 113.972C272.747 113.823 272.907 113.689 273.115 113.572V113.54C273.014 113.481 272.92 113.401 272.835 113.3C272.755 113.199 272.715 113.065 272.715 112.9C272.715 112.777 272.755 112.652 272.835 112.524C272.915 112.391 273.03 112.273 273.179 112.172V112.14C273.046 112.039 272.931 111.903 272.835 111.732C272.744 111.561 272.699 111.361 272.699 111.132C272.699 110.849 272.768 110.604 272.907 110.396C273.051 110.188 273.238 110.028 273.467 109.916C273.702 109.799 273.955 109.74 274.227 109.74C274.446 109.74 274.638 109.772 274.803 109.836H276.411V110.372H275.403C275.494 110.463 275.571 110.577 275.635 110.716C275.699 110.855 275.731 111.001 275.731 111.156C275.731 111.433 275.664 111.673 275.531 111.876C275.398 112.073 275.216 112.225 274.987 112.332C274.763 112.439 274.51 112.492 274.227 112.492C274.126 112.492 274.016 112.481 273.899 112.46C273.787 112.433 273.678 112.396 273.571 112.348C273.475 112.407 273.4 112.473 273.347 112.548C273.294 112.623 273.267 112.705 273.267 112.796C273.267 112.945 273.336 113.057 273.475 113.132C273.619 113.207 273.819 113.244 274.075 113.244H274.947C275.448 113.244 275.819 113.313 276.059 113.452C276.304 113.591 276.427 113.825 276.427 114.156C276.427 114.396 276.339 114.62 276.163 114.828C275.987 115.036 275.736 115.201 275.411 115.324C275.091 115.452 274.71 115.516 274.267 115.516ZM274.227 112.052C274.392 112.052 274.542 112.015 274.675 111.94C274.814 111.865 274.923 111.759 275.003 111.62C275.083 111.481 275.123 111.319 275.123 111.132C275.123 110.951 275.083 110.793 275.003 110.66C274.923 110.521 274.814 110.415 274.675 110.34C274.542 110.26 274.392 110.22 274.227 110.22C274.067 110.22 273.918 110.26 273.779 110.34C273.646 110.415 273.536 110.521 273.451 110.66C273.371 110.793 273.331 110.951 273.331 111.132C273.331 111.319 273.371 111.481 273.451 111.62C273.536 111.759 273.646 111.865 273.779 111.94C273.918 112.015 274.067 112.052 274.227 112.052ZM274.315 115.036C274.619 115.036 274.88 114.999 275.099 114.924C275.318 114.849 275.486 114.753 275.603 114.636C275.72 114.519 275.779 114.393 275.779 114.26C275.779 114.073 275.704 113.948 275.555 113.884C275.411 113.82 275.19 113.788 274.891 113.788H274.131C274.019 113.788 273.912 113.783 273.811 113.772C273.715 113.761 273.624 113.745 273.539 113.724C273.358 113.825 273.23 113.929 273.155 114.036C273.08 114.148 273.043 114.26 273.043 114.372C273.043 114.575 273.15 114.735 273.363 114.852C273.582 114.975 273.899 115.036 274.315 115.036ZM279.064 115.516C278.685 115.516 278.362 115.473 278.096 115.388C277.829 115.303 277.624 115.18 277.48 115.02C277.341 114.86 277.272 114.665 277.272 114.436C277.272 114.281 277.325 114.127 277.432 113.972C277.544 113.823 277.704 113.689 277.912 113.572V113.54C277.81 113.481 277.717 113.401 277.632 113.3C277.552 113.199 277.512 113.065 277.512 112.9C277.512 112.777 277.552 112.652 277.632 112.524C277.712 112.391 277.826 112.273 277.976 112.172V112.14C277.842 112.039 277.728 111.903 277.632 111.732C277.541 111.561 277.496 111.361 277.496 111.132C277.496 110.849 277.565 110.604 277.704 110.396C277.848 110.188 278.034 110.028 278.264 109.916C278.498 109.799 278.752 109.74 279.024 109.74C279.242 109.74 279.434 109.772 279.6 109.836H281.208V110.372H280.2C280.29 110.463 280.368 110.577 280.432 110.716C280.496 110.855 280.528 111.001 280.528 111.156C280.528 111.433 280.461 111.673 280.328 111.876C280.194 112.073 280.013 112.225 279.784 112.332C279.56 112.439 279.306 112.492 279.024 112.492C278.922 112.492 278.813 112.481 278.696 112.46C278.584 112.433 278.474 112.396 278.368 112.348C278.272 112.407 278.197 112.473 278.144 112.548C278.09 112.623 278.064 112.705 278.064 112.796C278.064 112.945 278.133 113.057 278.272 113.132C278.416 113.207 278.616 113.244 278.872 113.244H279.744C280.245 113.244 280.616 113.313 280.856 113.452C281.101 113.591 281.224 113.825 281.224 114.156C281.224 114.396 281.136 114.62 280.96 114.828C280.784 115.036 280.533 115.201 280.208 115.324C279.888 115.452 279.506 115.516 279.064 115.516ZM279.024 112.052C279.189 112.052 279.338 112.015 279.472 111.94C279.61 111.865 279.72 111.759 279.8 111.62C279.88 111.481 279.92 111.319 279.92 111.132C279.92 110.951 279.88 110.793 279.8 110.66C279.72 110.521 279.61 110.415 279.472 110.34C279.338 110.26 279.189 110.22 279.024 110.22C278.864 110.22 278.714 110.26 278.576 110.34C278.442 110.415 278.333 110.521 278.248 110.66C278.168 110.793 278.128 110.951 278.128 111.132C278.128 111.319 278.168 111.481 278.248 111.62C278.333 111.759 278.442 111.865 278.576 111.94C278.714 112.015 278.864 112.052 279.024 112.052ZM279.112 115.036C279.416 115.036 279.677 114.999 279.896 114.924C280.114 114.849 280.282 114.753 280.4 114.636C280.517 114.519 280.576 114.393 280.576 114.26C280.576 114.073 280.501 113.948 280.352 113.884C280.208 113.82 279.986 113.788 279.688 113.788H278.928C278.816 113.788 278.709 113.783 278.608 113.772C278.512 113.761 278.421 113.745 278.336 113.724C278.154 113.825 278.026 113.929 277.952 114.036C277.877 114.148 277.84 114.26 277.84 114.372C277.84 114.575 277.946 114.735 278.16 114.852C278.378 114.975 278.696 115.036 279.112 115.036ZM284.133 113.82C283.743 113.82 283.389 113.74 283.069 113.58C282.754 113.42 282.503 113.188 282.317 112.884C282.13 112.575 282.037 112.204 282.037 111.772C282.037 111.351 282.13 110.988 282.317 110.684C282.503 110.38 282.746 110.148 283.045 109.988C283.349 109.823 283.674 109.74 284.021 109.74C284.394 109.74 284.711 109.817 284.973 109.972C285.239 110.121 285.442 110.332 285.581 110.604C285.725 110.876 285.797 111.196 285.797 111.564C285.797 111.639 285.794 111.711 285.789 111.78C285.783 111.849 285.775 111.911 285.765 111.964H282.477V111.452H285.373L285.205 111.636C285.205 111.177 285.098 110.833 284.885 110.604C284.677 110.375 284.394 110.26 284.037 110.26C283.797 110.26 283.573 110.319 283.365 110.436C283.162 110.553 282.999 110.724 282.877 110.948C282.754 111.172 282.693 111.447 282.693 111.772C282.693 112.108 282.759 112.388 282.893 112.612C283.026 112.836 283.207 113.007 283.437 113.124C283.666 113.236 283.925 113.292 284.213 113.292C284.447 113.292 284.658 113.26 284.845 113.196C285.037 113.127 285.221 113.036 285.397 112.924L285.637 113.356C285.445 113.484 285.223 113.593 284.973 113.684C284.727 113.775 284.447 113.82 284.133 113.82ZM287.458 113.724V109.836H288.002L288.058 110.756H288.082C288.284 110.441 288.535 110.193 288.834 110.012C289.132 109.831 289.46 109.74 289.818 109.74C289.962 109.74 290.095 109.753 290.218 109.78C290.346 109.801 290.468 109.841 290.586 109.9L290.434 110.468C290.3 110.42 290.186 110.385 290.09 110.364C289.994 110.343 289.868 110.332 289.714 110.332C289.42 110.332 289.138 110.417 288.866 110.588C288.599 110.753 288.348 111.039 288.114 111.444V113.724H287.458ZM293.566 113.82C293.188 113.82 292.833 113.759 292.502 113.636C292.172 113.513 291.889 113.372 291.654 113.212L291.958 112.78C292.182 112.94 292.43 113.068 292.702 113.164C292.974 113.26 293.289 113.308 293.646 113.308C293.977 113.308 294.222 113.247 294.382 113.124C294.548 113.001 294.63 112.86 294.63 112.7C294.63 112.625 294.614 112.556 294.582 112.492C294.556 112.428 294.5 112.367 294.414 112.308C294.334 112.249 294.214 112.193 294.054 112.14C293.894 112.087 293.681 112.033 293.414 111.98C292.908 111.873 292.526 111.729 292.27 111.548C292.02 111.367 291.894 111.132 291.894 110.844C291.894 110.529 292.03 110.268 292.302 110.06C292.574 109.847 292.977 109.74 293.51 109.74C293.809 109.74 294.097 109.791 294.374 109.892C294.652 109.988 294.886 110.103 295.078 110.236L294.758 110.66C294.582 110.532 294.382 110.433 294.158 110.364C293.934 110.289 293.7 110.252 293.454 110.252C293.23 110.252 293.052 110.279 292.918 110.332C292.79 110.38 292.697 110.447 292.638 110.532C292.585 110.617 292.558 110.711 292.558 110.812C292.558 110.977 292.646 111.108 292.822 111.204C293.004 111.295 293.292 111.38 293.686 111.46C294.118 111.551 294.449 111.652 294.678 111.764C294.913 111.876 295.073 112.004 295.158 112.148C295.249 112.292 295.294 112.463 295.294 112.66C295.294 112.873 295.228 113.068 295.094 113.244C294.961 113.415 294.766 113.553 294.51 113.66C294.254 113.767 293.94 113.82 293.566 113.82Z" fill="#450088"/>
<g filter="url(#filter2_d_917_3688)">
<path d="M314.866 267.792C314.866 262.27 319.343 257.792 324.866 257.792H502.655C508.178 257.792 512.655 262.27 512.655 267.792V322.503C512.655 328.026 508.178 332.503 502.655 332.503H324.866C319.343 332.503 314.866 328.026 314.866 322.503V267.792Z" fill="white"/>
</g>
<path d="M334.862 280.026H340.266C340.809 278.526 342.232 277.44 343.912 277.44C345.593 277.44 347.015 278.526 347.558 280.026H352.962C354.385 280.026 355.548 281.189 355.548 282.611V300.712C355.548 302.134 354.385 303.297 352.962 303.297H334.862C333.44 303.297 332.276 302.134 332.276 300.712V282.611C332.276 281.189 333.44 280.026 334.862 280.026ZM343.912 280.026C343.201 280.026 342.619 280.607 342.619 281.319C342.619 282.03 343.201 282.611 343.912 282.611C344.623 282.611 345.205 282.03 345.205 281.319C345.205 280.607 344.623 280.026 343.912 280.026ZM338.741 295.54H343.912V299.419L349.924 293.407C350.183 293.148 350.183 292.747 349.924 292.489L343.912 286.49V290.369H338.741V295.54Z" fill="#0D1523"/>
<path d="M124.048 158.473C121.975 158.473 120.295 156.793 120.295 154.72C120.295 152.647 121.975 150.967 124.048 150.967C126.12 150.967 127.801 152.647 127.801 154.72C127.801 156.793 126.12 158.473 124.048 158.473Z" fill="#5D18E9"/>
<path d="M124.593 148.594C124.433 148.754 124.24 148.818 124.048 148.818C123.855 148.818 123.663 148.754 123.503 148.594L121.193 146.284C120.904 145.996 120.904 145.483 121.193 145.194C121.482 144.905 121.995 144.905 122.284 145.194L123.246 146.156V140.254C123.246 139.837 123.599 139.484 124.016 139.484C124.433 139.484 124.786 139.837 124.786 140.254V146.156L125.748 145.194C126.037 144.905 126.55 144.905 126.838 145.194C127.127 145.483 127.127 145.996 126.838 146.284L124.593 148.594Z" fill="#5D18E9"/>
<path d="M133.574 156.484C133.863 156.773 133.863 157.286 133.574 157.575C133.414 157.735 133.221 157.799 133.029 157.799C132.836 157.799 132.644 157.735 132.484 157.575L130.174 155.265C130.014 155.105 129.95 154.913 129.95 154.72C129.95 154.528 130.046 154.303 130.174 154.175L132.484 151.865C132.772 151.577 133.286 151.577 133.574 151.865C133.863 152.154 133.863 152.667 133.574 152.956L132.612 153.918H138.514C138.931 153.918 139.284 154.271 139.284 154.688C139.284 155.105 138.931 155.458 138.514 155.458H132.612L133.574 156.484Z" fill="#5D18E9"/>
<path d="M123.502 160.847C123.791 160.558 124.304 160.558 124.593 160.847L126.902 163.156C127.191 163.445 127.191 163.958 126.902 164.247C126.742 164.407 126.55 164.471 126.357 164.471C126.165 164.471 125.972 164.407 125.812 164.247L124.85 163.284V169.186C124.85 169.603 124.497 169.956 124.08 169.956C123.663 169.956 123.31 169.603 123.31 169.186V163.284L122.348 164.247C122.059 164.535 121.546 164.535 121.257 164.247C120.968 163.958 120.968 163.445 121.257 163.156L123.502 160.847Z" fill="#5D18E9"/>
<path d="M109.582 153.951H115.483L114.521 152.988C114.233 152.7 114.233 152.186 114.521 151.898C114.81 151.609 115.323 151.609 115.612 151.898L117.921 154.207C118.082 154.367 118.146 154.56 118.146 154.752C118.146 154.945 118.05 155.169 117.921 155.298L115.612 157.607C115.451 157.768 115.259 157.832 115.066 157.832C114.874 157.832 114.682 157.768 114.521 157.607C114.233 157.318 114.233 156.805 114.521 156.517L115.483 155.554H109.582C109.165 155.554 108.812 155.201 108.812 154.784C108.812 154.367 109.165 153.951 109.582 153.951Z" fill="#5D18E9"/>
<path d="M119.333 150.775C119.14 150.775 118.948 150.711 118.787 150.55L114.618 146.381V147.76C114.618 148.177 114.265 148.53 113.848 148.53C113.431 148.53 113.078 148.177 113.078 147.76V144.488C113.078 144.071 113.431 143.718 113.848 143.718H117.087C117.504 143.718 117.857 144.071 117.857 144.488C117.857 144.905 117.504 145.258 117.087 145.258H115.708L119.878 149.428C120.167 149.716 120.167 150.23 119.878 150.518C119.718 150.711 119.525 150.775 119.333 150.775Z" fill="#5D18E9"/>
<path d="M132.388 145.29H131.008C130.591 145.29 130.238 144.937 130.238 144.52C130.238 144.103 130.591 143.75 131.008 143.75H134.28C134.697 143.75 135.05 144.103 135.05 144.52V147.792C135.05 148.209 134.697 148.562 134.28 148.562C133.863 148.562 133.51 148.209 133.51 147.792V146.38L129.34 150.55C129.18 150.711 128.987 150.775 128.795 150.775C128.603 150.775 128.41 150.711 128.25 150.55C127.961 150.262 127.961 149.748 128.25 149.46L132.388 145.29Z" fill="#5D18E9"/>
<path d="M129.308 158.89L133.478 163.06V161.681C133.478 161.264 133.831 160.911 134.248 160.911C134.665 160.911 135.018 161.264 135.018 161.681V164.952C135.018 165.369 134.665 165.722 134.248 165.722H130.976C130.559 165.722 130.206 165.369 130.206 164.952C130.206 164.535 130.559 164.183 130.976 164.183H132.387L128.218 160.013C127.929 159.724 127.929 159.211 128.218 158.922C128.506 158.633 129.019 158.601 129.308 158.89Z" fill="#5D18E9"/>
<path d="M113.816 160.911C114.232 160.911 114.585 161.264 114.585 161.681V163.06L118.755 158.89C119.044 158.601 119.557 158.601 119.846 158.89C120.134 159.179 120.134 159.692 119.846 159.981L115.676 164.151H117.055C117.472 164.151 117.825 164.503 117.825 164.92C117.825 165.337 117.472 165.69 117.055 165.69H113.783C113.366 165.69 113.014 165.337 113.014 164.92V161.681C113.046 161.264 113.399 160.911 113.816 160.911Z" fill="#5D18E9"/>
<path d="M156.876 161.272V152.088H158.304L159.592 156.008L160.04 157.492H160.096L160.53 156.008L161.832 152.088H163.26V161.272H162.14V156.68C162.14 156.456 162.144 156.199 162.154 155.91C162.172 155.621 162.191 155.322 162.21 155.014C162.238 154.706 162.261 154.417 162.28 154.146C162.308 153.866 162.326 153.628 162.336 153.432H162.294L161.776 155.224L160.46 158.836H159.62L158.332 155.224L157.8 153.432H157.772C157.79 153.628 157.809 153.866 157.828 154.146C157.856 154.417 157.879 154.706 157.898 155.014C157.916 155.322 157.93 155.621 157.94 155.91C157.958 156.199 157.968 156.456 157.968 156.68V161.272H156.876ZM167.706 161.44C166.894 161.44 166.297 161.207 165.914 160.74C165.532 160.273 165.34 159.592 165.34 158.696V154.468H166.502V158.542C166.502 159.186 166.619 159.667 166.852 159.984C167.095 160.292 167.501 160.446 168.07 160.446C168.462 160.446 168.817 160.348 169.134 160.152C169.461 159.947 169.811 159.625 170.184 159.186V154.468H171.332V161.272H170.394L170.296 160.082H170.24C169.895 160.474 169.517 160.801 169.106 161.062C168.696 161.314 168.229 161.44 167.706 161.44ZM178.341 161.44C177.622 161.44 177.071 161.235 176.689 160.824C176.306 160.404 176.115 159.793 176.115 158.99V152.242H173.791V151.304H177.263V159.074C177.263 159.569 177.384 159.928 177.627 160.152C177.869 160.376 178.191 160.488 178.593 160.488C178.789 160.488 178.989 160.465 179.195 160.418C179.4 160.362 179.629 160.278 179.881 160.166L180.175 161.034C179.867 161.146 179.577 161.239 179.307 161.314C179.036 161.398 178.714 161.44 178.341 161.44ZM186.567 161.44C185.905 161.44 185.382 161.323 184.999 161.09C184.617 160.847 184.341 160.516 184.173 160.096C184.015 159.676 183.935 159.186 183.935 158.626V155.406H182.017V154.538L183.977 154.468L184.131 152.284H185.083V154.468H188.429V155.406H185.083V158.64C185.083 159.041 185.135 159.382 185.237 159.662C185.34 159.942 185.517 160.152 185.769 160.292C186.021 160.432 186.367 160.502 186.805 160.502C187.132 160.502 187.426 160.474 187.687 160.418C187.949 160.362 188.201 160.287 188.443 160.194L188.695 161.034C188.387 161.146 188.061 161.239 187.715 161.314C187.379 161.398 186.997 161.44 186.567 161.44ZM193.87 161.272V155.406H190.706V154.468H195.018V161.272H193.87ZM194.318 153.04C194.056 153.04 193.837 152.961 193.66 152.802C193.482 152.634 193.394 152.415 193.394 152.144C193.394 151.873 193.482 151.659 193.66 151.5C193.837 151.332 194.056 151.248 194.318 151.248C194.579 151.248 194.798 151.332 194.976 151.5C195.153 151.659 195.242 151.873 195.242 152.144C195.242 152.415 195.153 152.634 194.976 152.802C194.798 152.961 194.579 153.04 194.318 153.04ZM199.142 164.142V154.468H200.094L200.192 155.336H200.234C200.552 155.037 200.916 154.79 201.326 154.594C201.746 154.398 202.166 154.3 202.586 154.3C203.202 154.3 203.716 154.445 204.126 154.734C204.546 155.014 204.864 155.415 205.078 155.938C205.293 156.451 205.4 157.063 205.4 157.772C205.4 158.537 205.256 159.195 204.966 159.746C204.677 160.297 204.299 160.717 203.832 161.006C203.366 161.295 202.857 161.44 202.306 161.44C201.998 161.44 201.658 161.365 201.284 161.216C200.92 161.057 200.584 160.838 200.276 160.558H200.234L200.29 161.846V164.142H199.142ZM202.11 160.474C202.512 160.474 202.871 160.367 203.188 160.152C203.506 159.937 203.753 159.629 203.93 159.228C204.117 158.817 204.21 158.332 204.21 157.772C204.21 157.277 204.145 156.843 204.014 156.47C203.884 156.087 203.678 155.793 203.398 155.588C203.118 155.373 202.75 155.266 202.292 155.266C201.984 155.266 201.658 155.35 201.312 155.518C200.976 155.677 200.636 155.933 200.29 156.288V159.676C200.617 159.965 200.944 160.171 201.27 160.292C201.606 160.413 201.886 160.474 202.11 160.474ZM211.919 161.44C211.2 161.44 210.65 161.235 210.267 160.824C209.884 160.404 209.693 159.793 209.693 158.99V152.242H207.369V151.304H210.841V159.074C210.841 159.569 210.962 159.928 211.205 160.152C211.448 160.376 211.77 160.488 212.171 160.488C212.367 160.488 212.568 160.465 212.773 160.418C212.978 160.362 213.207 160.278 213.459 160.166L213.753 161.034C213.445 161.146 213.156 161.239 212.885 161.314C212.614 161.398 212.292 161.44 211.919 161.44ZM219.249 161.44C218.568 161.44 217.947 161.3 217.387 161.02C216.837 160.74 216.398 160.334 216.071 159.802C215.745 159.261 215.581 158.612 215.581 157.856C215.581 157.119 215.745 156.484 216.071 155.952C216.398 155.42 216.823 155.014 217.345 154.734C217.877 154.445 218.447 154.3 219.053 154.3C219.707 154.3 220.262 154.435 220.719 154.706C221.186 154.967 221.541 155.336 221.783 155.812C222.035 156.288 222.161 156.848 222.161 157.492C222.161 157.623 222.157 157.749 222.147 157.87C222.138 157.991 222.124 158.099 222.105 158.192H216.351V157.296H221.419L221.125 157.618C221.125 156.815 220.939 156.213 220.565 155.812C220.201 155.411 219.707 155.21 219.081 155.21C218.661 155.21 218.269 155.313 217.905 155.518C217.551 155.723 217.266 156.022 217.051 156.414C216.837 156.806 216.729 157.287 216.729 157.856C216.729 158.444 216.846 158.934 217.079 159.326C217.313 159.718 217.63 160.017 218.031 160.222C218.433 160.418 218.885 160.516 219.389 160.516C219.8 160.516 220.169 160.46 220.495 160.348C220.831 160.227 221.153 160.068 221.461 159.872L221.881 160.628C221.545 160.852 221.158 161.043 220.719 161.202C220.29 161.361 219.8 161.44 219.249 161.44ZM224.214 157.086V156.218H230.234V157.086H224.214ZM237.102 161.44C236.384 161.44 235.833 161.235 235.45 160.824C235.068 160.404 234.876 159.793 234.876 158.99V152.242H232.552V151.304H236.024V159.074C236.024 159.569 236.146 159.928 236.388 160.152C236.631 160.376 236.953 160.488 237.354 160.488C237.55 160.488 237.751 160.465 237.956 160.418C238.162 160.362 238.39 160.278 238.642 160.166L238.936 161.034C238.628 161.146 238.339 161.239 238.068 161.314C237.798 161.398 237.476 161.44 237.102 161.44ZM244.237 161.272V155.406H241.073V154.468H245.385V161.272H244.237ZM244.685 153.04C244.424 153.04 244.204 152.961 244.027 152.802C243.85 152.634 243.761 152.415 243.761 152.144C243.761 151.873 243.85 151.659 244.027 151.5C244.204 151.332 244.424 151.248 244.685 151.248C244.946 151.248 245.166 151.332 245.343 151.5C245.52 151.659 245.609 151.873 245.609 152.144C245.609 152.415 245.52 152.634 245.343 152.802C245.166 152.961 244.946 153.04 244.685 153.04ZM252.548 161.44C251.885 161.44 251.264 161.333 250.686 161.118C250.107 160.903 249.612 160.656 249.202 160.376L249.734 159.62C250.126 159.9 250.56 160.124 251.036 160.292C251.512 160.46 252.062 160.544 252.688 160.544C253.266 160.544 253.696 160.437 253.976 160.222C254.265 160.007 254.41 159.76 254.41 159.48C254.41 159.349 254.382 159.228 254.326 159.116C254.279 159.004 254.181 158.897 254.032 158.794C253.892 158.691 253.682 158.593 253.402 158.5C253.122 158.407 252.748 158.313 252.282 158.22C251.395 158.033 250.728 157.781 250.28 157.464C249.841 157.147 249.622 156.736 249.622 156.232C249.622 155.681 249.86 155.224 250.336 154.86C250.812 154.487 251.516 154.3 252.45 154.3C252.972 154.3 253.476 154.389 253.962 154.566C254.447 154.734 254.858 154.935 255.194 155.168L254.634 155.91C254.326 155.686 253.976 155.513 253.584 155.392C253.192 155.261 252.781 155.196 252.352 155.196C251.96 155.196 251.647 155.243 251.414 155.336C251.19 155.42 251.026 155.537 250.924 155.686C250.83 155.835 250.784 155.999 250.784 156.176C250.784 156.465 250.938 156.694 251.246 156.862C251.563 157.021 252.067 157.17 252.758 157.31C253.514 157.469 254.092 157.646 254.494 157.842C254.904 158.038 255.184 158.262 255.334 158.514C255.492 158.766 255.572 159.065 255.572 159.41C255.572 159.783 255.455 160.124 255.222 160.432C254.988 160.731 254.648 160.973 254.2 161.16C253.752 161.347 253.201 161.44 252.548 161.44ZM262.118 161.44C261.455 161.44 260.933 161.323 260.55 161.09C260.167 160.847 259.892 160.516 259.724 160.096C259.565 159.676 259.486 159.186 259.486 158.626V155.406H257.568V154.538L259.528 154.468L259.682 152.284H260.634V154.468H263.98V155.406H260.634V158.64C260.634 159.041 260.685 159.382 260.788 159.662C260.891 159.942 261.068 160.152 261.32 160.292C261.572 160.432 261.917 160.502 262.356 160.502C262.683 160.502 262.977 160.474 263.238 160.418C263.499 160.362 263.751 160.287 263.994 160.194L264.246 161.034C263.938 161.146 263.611 161.239 263.266 161.314C262.93 161.398 262.547 161.44 262.118 161.44ZM269.617 161.44C268.935 161.44 268.315 161.3 267.755 161.02C267.204 160.74 266.765 160.334 266.439 159.802C266.112 159.261 265.949 158.612 265.949 157.856C265.949 157.119 266.112 156.484 266.439 155.952C266.765 155.42 267.19 155.014 267.713 154.734C268.245 154.445 268.814 154.3 269.421 154.3C270.074 154.3 270.629 154.435 271.087 154.706C271.553 154.967 271.908 155.336 272.151 155.812C272.403 156.288 272.529 156.848 272.529 157.492C272.529 157.623 272.524 157.749 272.515 157.87C272.505 157.991 272.491 158.099 272.473 158.192H266.719V157.296H271.787L271.493 157.618C271.493 156.815 271.306 156.213 270.933 155.812C270.569 155.411 270.074 155.21 269.449 155.21C269.029 155.21 268.637 155.313 268.273 155.518C267.918 155.723 267.633 156.022 267.419 156.414C267.204 156.806 267.097 157.287 267.097 157.856C267.097 158.444 267.213 158.934 267.447 159.326C267.68 159.718 267.997 160.017 268.399 160.222C268.8 160.418 269.253 160.516 269.757 160.516C270.167 160.516 270.536 160.46 270.863 160.348C271.199 160.227 271.521 160.068 271.829 159.872L272.249 160.628C271.913 160.852 271.525 161.043 271.087 161.202C270.657 161.361 270.167 161.44 269.617 161.44ZM274.693 161.272V154.468H275.645L275.743 155.63H275.799C276.154 155.247 276.536 154.93 276.947 154.678C277.358 154.426 277.829 154.3 278.361 154.3C279.164 154.3 279.756 154.533 280.139 155C280.522 155.467 280.713 156.148 280.713 157.044V161.272H279.565V157.198C279.565 156.554 279.444 156.078 279.201 155.77C278.958 155.453 278.557 155.294 277.997 155.294C277.596 155.294 277.236 155.397 276.919 155.602C276.602 155.807 276.242 156.115 275.841 156.526V161.272H274.693ZM293.568 161.272V153.894C293.568 153.343 293.666 152.863 293.862 152.452C294.068 152.032 294.371 151.71 294.772 151.486C295.174 151.253 295.687 151.136 296.312 151.136C296.648 151.136 296.975 151.169 297.292 151.234C297.619 151.29 297.946 151.388 298.272 151.528L298.006 152.396C297.726 152.265 297.465 152.181 297.222 152.144C296.989 152.097 296.723 152.074 296.424 152.074C295.818 152.074 295.379 152.233 295.108 152.55C294.838 152.867 294.702 153.301 294.702 153.852V161.272H293.568ZM291.622 155.406V154.538L293.61 154.468H297.558V155.406H291.622ZM304.259 161.44C303.54 161.44 302.989 161.235 302.607 160.824C302.224 160.404 302.033 159.793 302.033 158.99V152.242H299.709V151.304H303.181V159.074C303.181 159.569 303.302 159.928 303.545 160.152C303.787 160.376 304.109 160.488 304.511 160.488C304.707 160.488 304.907 160.465 305.113 160.418C305.318 160.362 305.547 160.278 305.799 160.166L306.093 161.034C305.785 161.146 305.495 161.239 305.225 161.314C304.954 161.398 304.632 161.44 304.259 161.44ZM311.169 161.44C310.572 161.44 310.017 161.3 309.503 161.02C308.999 160.74 308.589 160.334 308.271 159.802C307.963 159.27 307.809 158.631 307.809 157.884C307.809 157.119 307.963 156.47 308.271 155.938C308.589 155.406 308.999 155 309.503 154.72C310.017 154.44 310.572 154.3 311.169 154.3C311.767 154.3 312.317 154.44 312.821 154.72C313.335 155 313.745 155.406 314.053 155.938C314.371 156.47 314.529 157.119 314.529 157.884C314.529 158.631 314.371 159.27 314.053 159.802C313.745 160.334 313.335 160.74 312.821 161.02C312.317 161.3 311.767 161.44 311.169 161.44ZM311.169 160.488C311.608 160.488 311.991 160.381 312.317 160.166C312.644 159.942 312.896 159.634 313.073 159.242C313.251 158.85 313.339 158.397 313.339 157.884C313.339 157.361 313.251 156.904 313.073 156.512C312.896 156.111 312.644 155.803 312.317 155.588C311.991 155.364 311.608 155.252 311.169 155.252C310.731 155.252 310.348 155.364 310.021 155.588C309.704 155.803 309.452 156.111 309.265 156.512C309.088 156.904 308.999 157.361 308.999 157.884C308.999 158.397 309.088 158.85 309.265 159.242C309.452 159.634 309.704 159.942 310.021 160.166C310.348 160.381 310.731 160.488 311.169 160.488ZM316.96 161.272L315.476 154.468H316.624L317.436 158.416C317.501 158.733 317.557 159.046 317.604 159.354C317.66 159.653 317.706 159.965 317.744 160.292H317.8C317.846 159.965 317.902 159.653 317.968 159.354C318.042 159.046 318.117 158.733 318.192 158.416L319.032 154.888H320.18L320.992 158.416C321.066 158.733 321.146 159.046 321.23 159.354C321.314 159.653 321.374 159.965 321.412 160.292H321.468C321.524 159.965 321.57 159.653 321.608 159.354C321.654 159.046 321.71 158.733 321.776 158.416L322.588 154.468H323.652L322.196 161.272H320.712L319.928 158.024C319.872 157.781 319.816 157.492 319.76 157.156C319.704 156.82 319.648 156.437 319.592 156.008H319.536C319.48 156.437 319.424 156.82 319.368 157.156C319.312 157.492 319.256 157.781 319.2 158.024L318.444 161.272H316.96Z" fill="#030303"/>
<path d="M377.737 294.816C377.046 294.816 376.435 294.625 375.903 294.242C375.371 293.859 374.956 293.313 374.657 292.604C374.358 291.885 374.209 291.022 374.209 290.014C374.209 289.025 374.358 288.18 374.657 287.48C374.956 286.771 375.371 286.229 375.903 285.856C376.435 285.483 377.046 285.296 377.737 285.296C378.428 285.296 379.039 285.483 379.571 285.856C380.103 286.229 380.518 286.771 380.817 287.48C381.116 288.18 381.265 289.025 381.265 290.014C381.265 291.022 381.116 291.885 380.817 292.604C380.518 293.313 380.103 293.859 379.571 294.242C379.039 294.625 378.428 294.816 377.737 294.816ZM377.737 293.794C378.204 293.794 378.61 293.645 378.955 293.346C379.31 293.038 379.58 292.604 379.767 292.044C379.963 291.475 380.061 290.798 380.061 290.014C380.061 289.239 379.963 288.577 379.767 288.026C379.58 287.475 379.31 287.055 378.955 286.766C378.61 286.467 378.204 286.318 377.737 286.318C377.27 286.318 376.86 286.467 376.505 286.766C376.16 287.055 375.889 287.475 375.693 288.026C375.506 288.577 375.413 289.239 375.413 290.014C375.413 290.798 375.506 291.475 375.693 292.044C375.889 292.604 376.16 293.038 376.505 293.346C376.86 293.645 377.27 293.794 377.737 293.794ZM383.234 294.648V287.844H384.186L384.284 289.006H384.34C384.694 288.623 385.077 288.306 385.488 288.054C385.898 287.802 386.37 287.676 386.902 287.676C387.704 287.676 388.297 287.909 388.68 288.376C389.062 288.843 389.254 289.524 389.254 290.42V294.648H388.106V290.574C388.106 289.93 387.984 289.454 387.742 289.146C387.499 288.829 387.098 288.67 386.538 288.67C386.136 288.67 385.777 288.773 385.46 288.978C385.142 289.183 384.783 289.491 384.382 289.902V294.648H383.234ZM396.01 294.816C395.292 294.816 394.741 294.611 394.358 294.2C393.976 293.78 393.784 293.169 393.784 292.366V285.618H391.46V284.68H394.932V292.45C394.932 292.945 395.054 293.304 395.296 293.528C395.539 293.752 395.861 293.864 396.262 293.864C396.458 293.864 396.659 293.841 396.864 293.794C397.07 293.738 397.298 293.654 397.55 293.542L397.844 294.41C397.536 294.522 397.247 294.615 396.976 294.69C396.706 294.774 396.384 294.816 396.01 294.816ZM400.555 297.574C400.405 297.574 400.247 297.56 400.079 297.532C399.92 297.504 399.78 297.471 399.659 297.434L399.897 296.524C399.99 296.552 400.088 296.575 400.191 296.594C400.303 296.613 400.41 296.622 400.513 296.622C400.989 296.622 401.376 296.482 401.675 296.202C401.973 295.931 402.207 295.586 402.375 295.166L402.585 294.662L399.407 287.844H400.569L402.235 291.61C402.365 291.909 402.501 292.231 402.641 292.576C402.79 292.912 402.935 293.248 403.075 293.584H403.131C403.252 293.257 403.373 292.926 403.495 292.59C403.625 292.245 403.747 291.918 403.859 291.61L405.343 287.844H406.435L403.439 295.208C403.271 295.656 403.061 296.057 402.809 296.412C402.557 296.776 402.244 297.061 401.871 297.266C401.507 297.471 401.068 297.574 400.555 297.574ZM408.305 290.462V289.594H414.325V290.462H408.305ZM379.221 309.816C378.502 309.816 377.952 309.611 377.569 309.2C377.186 308.78 376.995 308.169 376.995 307.366V300.618H374.671V299.68H378.143V307.45C378.143 307.945 378.264 308.304 378.507 308.528C378.75 308.752 379.072 308.864 379.473 308.864C379.669 308.864 379.87 308.841 380.075 308.794C380.28 308.738 380.509 308.654 380.761 308.542L381.055 309.41C380.747 309.522 380.458 309.615 380.187 309.69C379.916 309.774 379.594 309.816 379.221 309.816ZM386.356 309.648V303.782H383.192V302.844H387.504V309.648H386.356ZM386.804 301.416C386.542 301.416 386.323 301.337 386.146 301.178C385.968 301.01 385.88 300.791 385.88 300.52C385.88 300.249 385.968 300.035 386.146 299.876C386.323 299.708 386.542 299.624 386.804 299.624C387.065 299.624 387.284 299.708 387.462 299.876C387.639 300.035 387.728 300.249 387.728 300.52C387.728 300.791 387.639 301.01 387.462 301.178C387.284 301.337 387.065 301.416 386.804 301.416ZM394.666 309.816C394.004 309.816 393.383 309.709 392.804 309.494C392.226 309.279 391.731 309.032 391.32 308.752L391.852 307.996C392.244 308.276 392.678 308.5 393.154 308.668C393.63 308.836 394.181 308.92 394.806 308.92C395.385 308.92 395.814 308.813 396.094 308.598C396.384 308.383 396.528 308.136 396.528 307.856C396.528 307.725 396.5 307.604 396.444 307.492C396.398 307.38 396.3 307.273 396.15 307.17C396.01 307.067 395.8 306.969 395.52 306.876C395.24 306.783 394.867 306.689 394.4 306.596C393.514 306.409 392.846 306.157 392.398 305.84C391.96 305.523 391.74 305.112 391.74 304.608C391.74 304.057 391.978 303.6 392.454 303.236C392.93 302.863 393.635 302.676 394.568 302.676C395.091 302.676 395.595 302.765 396.08 302.942C396.566 303.11 396.976 303.311 397.312 303.544L396.752 304.286C396.444 304.062 396.094 303.889 395.702 303.768C395.31 303.637 394.9 303.572 394.47 303.572C394.078 303.572 393.766 303.619 393.532 303.712C393.308 303.796 393.145 303.913 393.042 304.062C392.949 304.211 392.902 304.375 392.902 304.552C392.902 304.841 393.056 305.07 393.364 305.238C393.682 305.397 394.186 305.546 394.876 305.686C395.632 305.845 396.211 306.022 396.612 306.218C397.023 306.414 397.303 306.638 397.452 306.89C397.611 307.142 397.69 307.441 397.69 307.786C397.69 308.159 397.574 308.5 397.34 308.808C397.107 309.107 396.766 309.349 396.318 309.536C395.87 309.723 395.32 309.816 394.666 309.816ZM404.237 309.816C403.574 309.816 403.051 309.699 402.669 309.466C402.286 309.223 402.011 308.892 401.843 308.472C401.684 308.052 401.605 307.562 401.605 307.002V303.782H399.687V302.914L401.647 302.844L401.801 300.66H402.753V302.844H406.099V303.782H402.753V307.016C402.753 307.417 402.804 307.758 402.907 308.038C403.009 308.318 403.187 308.528 403.439 308.668C403.691 308.808 404.036 308.878 404.475 308.878C404.801 308.878 405.095 308.85 405.357 308.794C405.618 308.738 405.87 308.663 406.113 308.57L406.365 309.41C406.057 309.522 405.73 309.615 405.385 309.69C405.049 309.774 404.666 309.816 404.237 309.816ZM411.735 309.816C411.054 309.816 410.433 309.676 409.873 309.396C409.323 309.116 408.884 308.71 408.557 308.178C408.231 307.637 408.067 306.988 408.067 306.232C408.067 305.495 408.231 304.86 408.557 304.328C408.884 303.796 409.309 303.39 409.831 303.11C410.363 302.821 410.933 302.676 411.539 302.676C412.193 302.676 412.748 302.811 413.205 303.082C413.672 303.343 414.027 303.712 414.269 304.188C414.521 304.664 414.647 305.224 414.647 305.868C414.647 305.999 414.643 306.125 414.633 306.246C414.624 306.367 414.61 306.475 414.591 306.568H408.837V305.672H413.905L413.611 305.994C413.611 305.191 413.425 304.589 413.051 304.188C412.687 303.787 412.193 303.586 411.567 303.586C411.147 303.586 410.755 303.689 410.391 303.894C410.037 304.099 409.752 304.398 409.537 304.79C409.323 305.182 409.215 305.663 409.215 306.232C409.215 306.82 409.332 307.31 409.565 307.702C409.799 308.094 410.116 308.393 410.517 308.598C410.919 308.794 411.371 308.892 411.875 308.892C412.286 308.892 412.655 308.836 412.981 308.724C413.317 308.603 413.639 308.444 413.947 308.248L414.367 309.004C414.031 309.228 413.644 309.419 413.205 309.578C412.776 309.737 412.286 309.816 411.735 309.816ZM417.554 309.648V302.844H418.506L418.604 304.454H418.646C419 303.903 419.439 303.469 419.962 303.152C420.484 302.835 421.058 302.676 421.684 302.676C421.936 302.676 422.169 302.699 422.384 302.746C422.608 302.783 422.822 302.853 423.028 302.956L422.762 303.95C422.528 303.866 422.328 303.805 422.16 303.768C421.992 303.731 421.772 303.712 421.502 303.712C420.988 303.712 420.494 303.861 420.018 304.16C419.551 304.449 419.112 304.949 418.702 305.658V309.648H417.554ZM425.206 309.648V302.844H426.158L426.256 304.006H426.312C426.667 303.623 427.05 303.306 427.46 303.054C427.871 302.802 428.342 302.676 428.874 302.676C429.677 302.676 430.27 302.909 430.652 303.376C431.035 303.843 431.226 304.524 431.226 305.42V309.648H430.078V305.574C430.078 304.93 429.957 304.454 429.714 304.146C429.472 303.829 429.07 303.67 428.51 303.67C428.109 303.67 427.75 303.773 427.432 303.978C427.115 304.183 426.756 304.491 426.354 304.902V309.648H425.206ZM436.919 309.816C436.237 309.816 435.617 309.676 435.057 309.396C434.506 309.116 434.067 308.71 433.741 308.178C433.414 307.637 433.251 306.988 433.251 306.232C433.251 305.495 433.414 304.86 433.741 304.328C434.067 303.796 434.492 303.39 435.015 303.11C435.547 302.821 436.116 302.676 436.723 302.676C437.376 302.676 437.931 302.811 438.389 303.082C438.855 303.343 439.21 303.712 439.453 304.188C439.705 304.664 439.831 305.224 439.831 305.868C439.831 305.999 439.826 306.125 439.817 306.246C439.807 306.367 439.793 306.475 439.775 306.568H434.021V305.672H439.089L438.795 305.994C438.795 305.191 438.608 304.589 438.235 304.188C437.871 303.787 437.376 303.586 436.751 303.586C436.331 303.586 435.939 303.689 435.575 303.894C435.22 304.099 434.935 304.398 434.721 304.79C434.506 305.182 434.399 305.663 434.399 306.232C434.399 306.82 434.515 307.31 434.749 307.702C434.982 308.094 435.299 308.393 435.701 308.598C436.102 308.794 436.555 308.892 437.059 308.892C437.469 308.892 437.838 308.836 438.165 308.724C438.501 308.603 438.823 308.444 439.131 308.248L439.551 309.004C439.215 309.228 438.827 309.419 438.389 309.578C437.959 309.737 437.469 309.816 436.919 309.816ZM446.209 309.816C445.547 309.816 445.024 309.699 444.641 309.466C444.259 309.223 443.983 308.892 443.815 308.472C443.657 308.052 443.577 307.562 443.577 307.002V303.782H441.659V302.914L443.619 302.844L443.773 300.66H444.725V302.844H448.071V303.782H444.725V307.016C444.725 307.417 444.777 307.758 444.879 308.038C444.982 308.318 445.159 308.528 445.411 308.668C445.663 308.808 446.009 308.878 446.447 308.878C446.774 308.878 447.068 308.85 447.329 308.794C447.591 308.738 447.843 308.663 448.085 308.57L448.337 309.41C448.029 309.522 447.703 309.615 447.357 309.69C447.021 309.774 446.639 309.816 446.209 309.816Z" fill="#030303"/>
<path d="M114.609 178.862V173.614H117.833V174.174H115.281V175.95H117.441V176.51H115.281V178.862H114.609ZM121.59 178.958C121.18 178.958 120.865 178.84 120.646 178.606C120.428 178.366 120.318 178.016 120.318 177.558V173.702H118.99V173.166H120.974V177.606C120.974 177.888 121.044 178.094 121.182 178.222C121.321 178.35 121.505 178.414 121.734 178.414C121.846 178.414 121.961 178.4 122.078 178.374C122.196 178.342 122.326 178.294 122.47 178.23L122.638 178.726C122.462 178.79 122.297 178.843 122.142 178.886C121.988 178.934 121.804 178.958 121.59 178.958ZM125.539 178.958C125.198 178.958 124.88 178.878 124.587 178.718C124.299 178.558 124.064 178.326 123.883 178.022C123.707 177.718 123.619 177.352 123.619 176.926C123.619 176.488 123.707 176.118 123.883 175.814C124.064 175.51 124.299 175.278 124.587 175.118C124.88 174.958 125.198 174.878 125.539 174.878C125.88 174.878 126.195 174.958 126.483 175.118C126.776 175.278 127.011 175.51 127.187 175.814C127.368 176.118 127.459 176.488 127.459 176.926C127.459 177.352 127.368 177.718 127.187 178.022C127.011 178.326 126.776 178.558 126.483 178.718C126.195 178.878 125.88 178.958 125.539 178.958ZM125.539 178.414C125.79 178.414 126.008 178.352 126.195 178.23C126.382 178.102 126.526 177.926 126.627 177.702C126.728 177.478 126.779 177.219 126.779 176.926C126.779 176.627 126.728 176.366 126.627 176.142C126.526 175.912 126.382 175.736 126.195 175.614C126.008 175.486 125.79 175.422 125.539 175.422C125.288 175.422 125.07 175.486 124.883 175.614C124.702 175.736 124.558 175.912 124.451 176.142C124.35 176.366 124.299 176.627 124.299 176.926C124.299 177.219 124.35 177.478 124.451 177.702C124.558 177.926 124.702 178.102 124.883 178.23C125.07 178.352 125.288 178.414 125.539 178.414ZM128.848 178.862L128 174.974H128.656L129.12 177.23C129.157 177.411 129.189 177.59 129.216 177.766C129.248 177.936 129.275 178.115 129.296 178.302H129.328C129.355 178.115 129.387 177.936 129.424 177.766C129.467 177.59 129.509 177.411 129.552 177.23L130.032 175.214H130.688L131.152 177.23C131.195 177.411 131.24 177.59 131.288 177.766C131.336 177.936 131.371 178.115 131.392 178.302H131.424C131.456 178.115 131.483 177.936 131.504 177.766C131.531 177.59 131.563 177.411 131.6 177.23L132.064 174.974H132.672L131.84 178.862H130.992L130.544 177.006C130.512 176.867 130.48 176.702 130.448 176.51C130.416 176.318 130.384 176.099 130.352 175.854H130.32C130.288 176.099 130.256 176.318 130.224 176.51C130.192 176.702 130.16 176.867 130.128 177.006L129.696 178.862H128.848Z" fill="#5D18E9"/>
<path d="M330.321 317.238V311.99H331.953C332.311 311.99 332.625 312.038 332.897 312.134C333.175 312.224 333.391 312.379 333.545 312.598C333.705 312.811 333.785 313.099 333.785 313.462C333.785 313.814 333.705 314.104 333.545 314.334C333.391 314.563 333.175 314.736 332.897 314.854C332.625 314.966 332.311 315.022 331.953 315.022H330.985V317.238H330.321ZM330.985 314.478H331.857C332.268 314.478 332.58 314.395 332.793 314.23C333.012 314.059 333.121 313.803 333.121 313.462C333.121 313.12 333.012 312.88 332.793 312.742C332.58 312.598 332.268 312.526 331.857 312.526H330.985V314.478ZM331.817 314.838L332.345 314.486L333.945 317.238H333.185L331.817 314.838ZM336.958 317.334C336.569 317.334 336.214 317.254 335.894 317.094C335.58 316.934 335.329 316.702 335.142 316.398C334.956 316.088 334.862 315.718 334.862 315.286C334.862 314.864 334.956 314.502 335.142 314.198C335.329 313.894 335.572 313.662 335.87 313.502C336.174 313.336 336.5 313.254 336.846 313.254C337.22 313.254 337.537 313.331 337.798 313.486C338.065 313.635 338.268 313.846 338.406 314.118C338.55 314.39 338.622 314.71 338.622 315.078C338.622 315.152 338.62 315.224 338.614 315.294C338.609 315.363 338.601 315.424 338.59 315.478H335.302V314.966H338.198L338.03 315.15C338.03 314.691 337.924 314.347 337.71 314.118C337.502 313.888 337.22 313.774 336.862 313.774C336.622 313.774 336.398 313.832 336.19 313.95C335.988 314.067 335.825 314.238 335.702 314.462C335.58 314.686 335.518 314.96 335.518 315.286C335.518 315.622 335.585 315.902 335.718 316.126C335.852 316.35 336.033 316.52 336.262 316.638C336.492 316.75 336.75 316.806 337.038 316.806C337.273 316.806 337.484 316.774 337.67 316.71C337.862 316.64 338.046 316.55 338.222 316.438L338.462 316.87C338.27 316.998 338.049 317.107 337.798 317.198C337.553 317.288 337.273 317.334 336.958 317.334ZM342.267 317.334C341.889 317.334 341.59 317.267 341.371 317.134C341.153 316.995 340.995 316.806 340.899 316.566C340.809 316.326 340.763 316.046 340.763 315.726V313.886H339.667V313.39L340.787 313.35L340.875 312.102H341.419V313.35H343.331V313.886H341.419V315.734C341.419 315.963 341.449 316.158 341.507 316.318C341.566 316.478 341.667 316.598 341.811 316.678C341.955 316.758 342.153 316.798 342.403 316.798C342.59 316.798 342.758 316.782 342.907 316.75C343.057 316.718 343.201 316.675 343.339 316.622L343.483 317.102C343.307 317.166 343.121 317.219 342.923 317.262C342.731 317.31 342.513 317.334 342.267 317.334ZM345.88 317.334C345.416 317.334 345.075 317.2 344.856 316.934C344.637 316.667 344.528 316.278 344.528 315.766V313.35H345.192V315.678C345.192 316.046 345.259 316.32 345.392 316.502C345.531 316.678 345.763 316.766 346.088 316.766C346.312 316.766 346.515 316.71 346.696 316.598C346.883 316.48 347.083 316.296 347.296 316.046V313.35H347.952V317.238H347.416L347.36 316.558H347.328C347.131 316.782 346.915 316.968 346.68 317.118C346.445 317.262 346.179 317.334 345.88 317.334ZM349.877 317.238V313.35H350.421L350.477 314.27H350.501C350.704 313.955 350.954 313.707 351.253 313.526C351.552 313.344 351.88 313.254 352.237 313.254C352.381 313.254 352.514 313.267 352.637 313.294C352.765 313.315 352.888 313.355 353.005 313.414L352.853 313.982C352.72 313.934 352.605 313.899 352.509 313.878C352.413 313.856 352.288 313.846 352.133 313.846C351.84 313.846 351.557 313.931 351.285 314.102C351.018 314.267 350.768 314.552 350.533 314.958V317.238H349.877ZM354.25 317.238V313.35H354.794L354.85 314.014H354.882C355.085 313.795 355.303 313.614 355.538 313.47C355.773 313.326 356.042 313.254 356.346 313.254C356.805 313.254 357.143 313.387 357.362 313.654C357.581 313.92 357.69 314.31 357.69 314.822V317.238H357.034V314.91C357.034 314.542 356.965 314.27 356.826 314.094C356.687 313.912 356.458 313.822 356.138 313.822C355.909 313.822 355.703 313.88 355.522 313.998C355.341 314.115 355.135 314.291 354.906 314.526V317.238H354.25Z" fill="#30015C"/>
<path d="M494.476 295.175L491.306 298.345L492.716 299.755L497.306 295.175L492.716 290.585L491.306 292.005L494.476 295.175ZM482.136 295.175L485.306 292.005L483.896 290.595L479.306 295.175L483.896 299.765L485.306 298.345L482.136 295.175Z" fill="#4327D0"/>
<path d="M225.475 194.127C225.475 195.6 226.669 196.794 228.142 196.794C229.614 196.794 230.808 195.6 230.808 194.127C230.808 192.655 229.614 191.461 228.142 191.461C226.669 191.461 225.475 192.655 225.475 194.127ZM228.142 295.148H227.642V295.648H228.142V295.148ZM254.233 295.502C254.428 295.306 254.428 294.99 254.233 294.794L251.051 291.612C250.856 291.417 250.539 291.417 250.344 291.612C250.149 291.808 250.149 292.124 250.344 292.32L253.172 295.148L250.344 297.976C250.149 298.172 250.149 298.488 250.344 298.683C250.539 298.879 250.856 298.879 251.051 298.683L254.233 295.502ZM227.642 194.127V295.148H228.642V194.127H227.642ZM228.142 295.648H253.88V294.648H228.142V295.648Z" fill="#EE81DE"/>
<path d="M509.988 295.367C509.988 296.839 511.182 298.033 512.655 298.033C514.128 298.033 515.321 296.839 515.321 295.367C515.321 293.894 514.128 292.7 512.655 292.7C511.182 292.7 509.988 293.894 509.988 295.367ZM535.165 295.72C535.361 295.525 535.361 295.208 535.165 295.013L531.983 291.831C531.788 291.636 531.471 291.636 531.276 291.831C531.081 292.026 531.081 292.343 531.276 292.538L534.105 295.367L531.276 298.195C531.081 298.39 531.081 298.707 531.276 298.902C531.471 299.097 531.788 299.097 531.983 298.902L535.165 295.72ZM512.655 295.867H534.812V294.867H512.655V295.867Z" fill="#AA50FF"/>
<circle cx="537.742" cy="295.476" r="2.5965" fill="#D45E5E"/>
<path d="M257.222 295.148C257.222 296.621 258.416 297.815 259.889 297.815C261.361 297.815 262.555 296.621 262.555 295.148C262.555 293.675 261.361 292.481 259.889 292.481C258.416 292.481 257.222 293.675 257.222 295.148ZM289.62 295.502C289.815 295.306 289.815 294.99 289.62 294.794L286.438 291.612C286.243 291.417 285.926 291.417 285.731 291.612C285.536 291.808 285.536 292.124 285.731 292.32L288.559 295.148L285.731 297.976C285.536 298.172 285.536 298.488 285.731 298.683C285.926 298.879 286.243 298.879 286.438 298.683L289.62 295.502ZM259.889 295.648H289.267V294.648H259.889V295.648Z" fill="#AA50FF"/>
<path d="M43.9002 156.772C43.9002 158.245 45.0941 159.439 46.5669 159.439C48.0397 159.439 49.2336 158.245 49.2336 156.772C49.2336 155.299 48.0397 154.105 46.5669 154.105C45.0941 154.105 43.9002 155.299 43.9002 156.772ZM92.5812 157.126C92.7765 156.93 92.7765 156.614 92.5812 156.418L89.3992 153.236C89.204 153.041 88.8874 153.041 88.6921 153.236C88.4969 153.432 88.4969 153.748 88.6921 153.944L91.5206 156.772L88.6921 159.6C88.4969 159.796 88.4969 160.112 88.6921 160.308C88.8874 160.503 89.204 160.503 89.3992 160.308L92.5812 157.126ZM46.5669 157.272L92.2277 157.272L92.2277 156.272L46.5669 156.272L46.5669 157.272Z" fill="#D36366"/>
<path d="M292.763 295.148C292.763 296.621 293.956 297.815 295.429 297.815C296.902 297.815 298.096 296.621 298.096 295.148C298.096 293.675 296.902 292.481 295.429 292.481C293.956 292.481 292.763 293.675 292.763 295.148ZM313.983 295.502C314.179 295.306 314.179 294.99 313.983 294.794L310.801 291.612C310.606 291.417 310.29 291.417 310.094 291.612C309.899 291.808 309.899 292.124 310.094 292.32L312.923 295.148L310.094 297.976C309.899 298.172 309.899 298.488 310.094 298.683C310.29 298.879 310.606 298.879 310.801 298.683L313.983 295.502ZM295.429 295.648H313.63V294.648H295.429V295.648Z" fill="#D45E5E"/>
<g filter="url(#filter3_d_917_3688)">
<rect x="376.219" y="133.575" width="64.8682" height="49.2123" rx="9" fill="white"/>
<path d="M399.912 158.181L404.403 153.69L402.405 151.693L395.903 158.181L402.405 164.684L404.403 162.672L399.912 158.181ZM417.393 158.181L412.903 162.672L414.9 164.669L421.403 158.181L414.9 151.679L412.903 153.69L417.393 158.181Z" fill="#5D18E9"/>
</g>
<path fill-rule="evenodd" clip-rule="evenodd" d="M432.653 163.39C430.996 163.39 429.653 164.733 429.653 166.39V173.49C427.371 173.953 425.653 175.971 425.653 178.39V181.467C425.653 182.926 426.109 184.348 426.957 185.536L429.942 189.715C430.693 190.766 431.905 191.39 433.197 191.39H440.912C442.347 191.39 443.673 190.621 444.385 189.374L446.731 185.269C447.335 184.212 447.653 183.014 447.653 181.796V178.39C447.653 175.709 445.543 173.521 442.894 173.395C442.345 172.778 441.544 172.39 440.653 172.39C440.118 172.39 439.616 172.53 439.181 172.775C438.648 171.942 437.715 171.39 436.653 171.39C436.302 171.39 435.966 171.45 435.653 171.56V166.39C435.653 164.733 434.31 163.39 432.653 163.39Z" fill="white"/>
<path fill-rule="evenodd" clip-rule="evenodd" d="M432.653 163.39C430.996 163.39 429.653 164.733 429.653 166.39V173.49C427.371 173.953 425.653 175.971 425.653 178.39V181.467C425.653 182.926 426.109 184.348 426.957 185.536L429.942 189.715C430.693 190.766 431.905 191.39 433.197 191.39H440.912C442.347 191.39 443.673 190.621 444.385 189.374L446.731 185.269C447.335 184.212 447.653 183.014 447.653 181.796V178.39C447.653 175.709 445.543 173.521 442.894 173.395C442.345 172.778 441.544 172.39 440.653 172.39C440.118 172.39 439.616 172.53 439.181 172.775C438.648 171.942 437.715 171.39 436.653 171.39C436.302 171.39 435.966 171.45 435.653 171.56V166.39C435.653 164.733 434.31 163.39 432.653 163.39ZM435.653 174.39C435.653 174.942 435.205 175.39 434.653 175.39C434.101 175.39 433.653 174.942 433.653 174.39V166.39C433.653 165.837 433.205 165.39 432.653 165.39C432.101 165.39 431.653 165.837 431.653 166.39V179.39C431.653 179.942 431.205 180.39 430.653 180.39C430.101 180.39 429.653 179.942 429.653 179.39V175.56C428.488 175.972 427.653 177.083 427.653 178.39V181.467C427.653 182.509 427.978 183.525 428.584 184.373L431.569 188.552C431.945 189.078 432.551 189.39 433.197 189.39H440.912C441.63 189.39 442.292 189.005 442.648 188.382L444.994 184.277C445.426 183.521 445.653 182.666 445.653 181.796V178.39C445.653 177.083 444.818 175.972 443.653 175.56V176.39C443.653 176.942 443.205 177.39 442.653 177.39C442.101 177.39 441.653 176.942 441.653 176.39V175.39C441.653 174.837 441.205 174.39 440.653 174.39C440.101 174.39 439.653 174.837 439.653 175.39C439.653 175.942 439.205 176.39 438.653 176.39C438.101 176.39 437.653 175.942 437.653 175.39V174.39C437.653 173.837 437.205 173.39 436.653 173.39C436.101 173.39 435.653 173.837 435.653 174.39Z" fill="#12131A"/>
<defs>
<filter id="filter0_d_917_3688" x="28.9147" y="65.9815" width="491.604" height="203.422" filterUnits="userSpaceOnUse" color-interpolation-filters="sRGB">
<feFlood flood-opacity="0" result="BackgroundImageFix"/>
<feColorMatrix in="SourceAlpha" type="matrix" values="0 0 0 0 0 0 0 0 0 0 0 0 0 0 0 0 0 0 127 0" result="hardAlpha"/>
<feOffset dy="12.972"/>
<feGaussianBlur stdDeviation="19.8635"/>
<feComposite in2="hardAlpha" operator="out"/>
<feColorMatrix type="matrix" values="0 0 0 0 0.351796 0 0 0 0 0 0 0 0 0 0.691667 0 0 0 0.1 0"/>
<feBlend mode="normal" in2="BackgroundImageFix" result="effect1_dropShadow_917_3688"/>
<feBlend mode="normal" in="SourceGraphic" in2="effect1_dropShadow_917_3688" result="shape"/>
</filter>
<filter id="filter1_d_917_3688" x="367.592" y="20.9397" width="206.481" height="155.832" filterUnits="userSpaceOnUse" color-interpolation-filters="sRGB">
<feFlood flood-opacity="0" result="BackgroundImageFix"/>
<feColorMatrix in="SourceAlpha" type="matrix" values="0 0 0 0 0 0 0 0 0 0 0 0 0 0 0 0 0 0 127 0" result="hardAlpha"/>
<feOffset dy="12.972"/>
<feGaussianBlur stdDeviation="19.8635"/>
<feComposite in2="hardAlpha" operator="out"/>
<feColorMatrix type="matrix" values="0 0 0 0 0.351796 0 0 0 0 0 0 0 0 0 0.691667 0 0 0 0.1 0"/>
<feBlend mode="normal" in2="BackgroundImageFix" result="effect1_dropShadow_917_3688"/>
<feBlend mode="normal" in="SourceGraphic" in2="effect1_dropShadow_917_3688" result="shape"/>
</filter>
<filter id="filter2_d_917_3688" x="275.139" y="231.038" width="277.242" height="154.164" filterUnits="userSpaceOnUse" color-interpolation-filters="sRGB">
<feFlood flood-opacity="0" result="BackgroundImageFix"/>
<feColorMatrix in="SourceAlpha" type="matrix" values="0 0 0 0 0 0 0 0 0 0 0 0 0 0 0 0 0 0 127 0" result="hardAlpha"/>
<feOffset dy="12.972"/>
<feGaussianBlur stdDeviation="19.8635"/>
<feComposite in2="hardAlpha" operator="out"/>
<feColorMatrix type="matrix" values="0 0 0 0 0.351796 0 0 0 0 0 0 0 0 0 0.691667 0 0 0 0.1 0"/>
<feBlend mode="normal" in2="BackgroundImageFix" result="effect1_dropShadow_917_3688"/>
<feBlend mode="normal" in="SourceGraphic" in2="effect1_dropShadow_917_3688" result="shape"/>
</filter>
<filter id="filter3_d_917_3688" x="325.831" y="106.82" width="165.643" height="128.666" filterUnits="userSpaceOnUse" color-interpolation-filters="sRGB">
<feFlood flood-opacity="0" result="BackgroundImageFix"/>
<feColorMatrix in="SourceAlpha" type="matrix" values="0 0 0 0 0 0 0 0 0 0 0 0 0 0 0 0 0 0 127 0" result="hardAlpha"/>
<feOffset dy="12.972"/>
<feGaussianBlur stdDeviation="19.8635"/>
<feComposite in2="hardAlpha" operator="out"/>
<feColorMatrix type="matrix" values="0 0 0 0 0.351796 0 0 0 0 0 0 0 0 0 0.691667 0 0 0 0.1 0"/>
<feBlend mode="normal" in2="BackgroundImageFix" result="effect1_dropShadow_917_3688"/>
<feBlend mode="normal" in="SourceGraphic" in2="effect1_dropShadow_917_3688" result="shape"/>
</filter>
<radialGradient id="paint0_diamond_917_3688" cx="0" cy="0" r="1" gradientUnits="userSpaceOnUse" gradientTransform="translate(563.646 0.849618) rotate(141.902) scale(551.683 666.426)">
<stop offset="0.35225" stop-color="#E2E0FE" stop-opacity="0.4"/>
<stop offset="1" stop-color="#E2E0FE" stop-opacity="0"/>
</radialGradient>
</defs>
</svg>
