<svg width="569" height="421" viewBox="0 0 569 421" fill="none" xmlns="http://www.w3.org/2000/svg">
<rect x="0.376953" y="0.229492" width="568" height="420" rx="12" fill="#F5F5F5"/>
<g opacity="0.3">
<circle cx="371.536" cy="126.797" r="14.6541" stroke="white" stroke-width="3.81"/>
<circle cx="371.538" cy="126.798" r="28.8476" stroke="white" stroke-width="3.81"/>
<circle cx="371.535" cy="126.797" r="44.2239" stroke="white" stroke-width="3.81"/>
<circle cx="371.537" cy="126.797" r="58.4174" stroke="white" stroke-width="3.81"/>
<circle cx="371.537" cy="126.797" r="73.7937" stroke="white" stroke-width="3.81"/>
<circle cx="371.538" cy="126.798" r="89.17" stroke="white" stroke-width="3.81"/>
<circle cx="371.536" cy="126.797" r="105.729" stroke="white" stroke-width="3.81"/>
<circle cx="371.537" cy="126.797" r="119.923" stroke="white" stroke-width="3.81"/>
</g>
<circle cx="379.569" cy="220.745" r="3.2877" fill="#C2BFCE" fill-opacity="0.2"/>
<circle cx="379.569" cy="239.532" r="3.2877" fill="#C2BFCE" fill-opacity="0.2"/>
<circle cx="379.569" cy="258.319" r="3.2877" fill="#C2BFCE" fill-opacity="0.2"/>
<circle cx="360.782" cy="277.105" r="3.2877" fill="#C2BFCE" fill-opacity="0.2"/>
<circle cx="435.93" cy="295.892" r="3.2877" fill="#C2BFCE" fill-opacity="0.2"/>
<circle cx="398.356" cy="314.679" r="3.2877" fill="#C2BFCE" fill-opacity="0.2"/>
<circle cx="360.782" cy="314.679" r="3.2877" fill="#C2BFCE" fill-opacity="0.2"/>
<circle cx="473.503" cy="239.532" r="3.2877" fill="#C2BFCE" fill-opacity="0.2"/>
<circle cx="473.503" cy="258.319" r="3.2877" fill="#C2BFCE" fill-opacity="0.2"/>
<circle cx="454.715" cy="277.105" r="3.2877" fill="#C2BFCE" fill-opacity="0.2"/>
<circle cx="529.864" cy="295.892" r="3.2877" fill="#C2BFCE" fill-opacity="0.2"/>
<circle cx="492.29" cy="314.679" r="3.2877" fill="#C2BFCE" fill-opacity="0.2"/>
<circle cx="417.143" cy="220.745" r="3.2877" fill="#C2BFCE" fill-opacity="0.2"/>
<circle cx="417.143" cy="239.532" r="3.2877" fill="#C2BFCE" fill-opacity="0.2"/>
<circle cx="417.143" cy="258.319" r="3.2877" fill="#C2BFCE" fill-opacity="0.2"/>
<circle cx="398.356" cy="277.105" r="3.2877" fill="#C2BFCE" fill-opacity="0.2"/>
<circle cx="473.503" cy="295.892" r="3.2877" fill="#C2BFCE" fill-opacity="0.2"/>
<circle cx="435.93" cy="314.679" r="3.2877" fill="#C2BFCE" fill-opacity="0.2"/>
<circle cx="511.077" cy="239.532" r="3.2877" fill="#C2BFCE" fill-opacity="0.2"/>
<circle cx="511.077" cy="258.319" r="3.2877" fill="#C2BFCE" fill-opacity="0.2"/>
<circle cx="492.29" cy="277.105" r="3.2877" fill="#C2BFCE" fill-opacity="0.2"/>
<circle cx="511.077" cy="277.105" r="3.2877" fill="#C2BFCE" fill-opacity="0.2"/>
<circle cx="529.864" cy="314.679" r="3.2877" fill="#C2BFCE" fill-opacity="0.2"/>
<circle cx="398.356" cy="220.745" r="3.2877" fill="#C2BFCE" fill-opacity="0.2"/>
<circle cx="398.356" cy="239.532" r="3.2877" fill="#C2BFCE" fill-opacity="0.2"/>
<circle cx="398.356" cy="258.319" r="3.2877" fill="#C2BFCE" fill-opacity="0.2"/>
<circle cx="379.569" cy="277.105" r="3.2877" fill="#C2BFCE" fill-opacity="0.2"/>
<circle cx="454.715" cy="295.892" r="3.2877" fill="#C2BFCE" fill-opacity="0.2"/>
<circle cx="417.143" cy="314.679" r="3.2877" fill="#C2BFCE" fill-opacity="0.2"/>
<circle cx="379.569" cy="314.679" r="3.2877" fill="#C2BFCE" fill-opacity="0.2"/>
<circle cx="492.29" cy="239.532" r="3.2877" fill="#C2BFCE" fill-opacity="0.2"/>
<circle cx="492.29" cy="258.319" r="3.2877" fill="#C2BFCE" fill-opacity="0.2"/>
<circle cx="473.503" cy="277.105" r="3.2877" fill="#C2BFCE" fill-opacity="0.2"/>
<circle cx="548.651" cy="295.892" r="3.2877" fill="#C2BFCE" fill-opacity="0.2"/>
<circle cx="511.077" cy="314.679" r="3.2877" fill="#C2BFCE" fill-opacity="0.2"/>
<circle cx="435.93" cy="220.745" r="3.2877" fill="#C2BFCE" fill-opacity="0.2"/>
<circle cx="435.93" cy="239.532" r="3.2877" fill="#C2BFCE" fill-opacity="0.2"/>
<circle cx="435.93" cy="258.319" r="3.2877" fill="#C2BFCE" fill-opacity="0.2"/>
<circle cx="417.143" cy="277.105" r="3.2877" fill="#C2BFCE" fill-opacity="0.2"/>
<circle cx="492.29" cy="295.892" r="3.2877" fill="#C2BFCE" fill-opacity="0.2"/>
<circle cx="454.715" cy="314.679" r="3.2877" fill="#C2BFCE" fill-opacity="0.2"/>
<circle cx="529.864" cy="239.532" r="3.2877" fill="#C2BFCE" fill-opacity="0.2"/>
<circle cx="454.715" cy="220.745" r="3.2877" fill="#C2BFCE" fill-opacity="0.2"/>
<circle cx="454.715" cy="239.532" r="3.2877" fill="#C2BFCE" fill-opacity="0.2"/>
<circle cx="454.715" cy="258.319" r="3.2877" fill="#C2BFCE" fill-opacity="0.2"/>
<circle cx="435.93" cy="277.105" r="3.2877" fill="#C2BFCE" fill-opacity="0.2"/>
<circle cx="511.077" cy="295.892" r="3.2877" fill="#C2BFCE" fill-opacity="0.2"/>
<circle cx="473.503" cy="314.679" r="3.2877" fill="#C2BFCE" fill-opacity="0.2"/>
<g filter="url(#filter0_d_5054_10239)">
<rect x="257.852" y="247.363" width="212.439" height="59.483" rx="8.49757" fill="white" shape-rendering="crispEdges"/>
<rect x="270.217" y="259.729" width="34.7537" height="34.7537" rx="6.36461" fill="white"/>
<path d="M280.037 268.359H284.671C285.137 267.051 286.356 266.104 287.797 266.104C289.239 266.104 290.458 267.051 290.924 268.359H295.558C296.778 268.359 297.775 269.373 297.775 270.613V286.393C297.775 287.633 296.778 288.648 295.558 288.648H280.037C278.817 288.648 277.819 287.633 277.819 286.393V270.613C277.819 269.373 278.817 268.359 280.037 268.359ZM287.797 268.359C287.188 268.359 286.689 268.866 286.689 269.486C286.689 270.106 287.188 270.613 287.797 270.613C288.407 270.613 288.906 270.106 288.906 269.486C288.906 268.866 288.407 268.359 287.797 268.359ZM283.363 281.885H287.797V285.266L292.953 280.025C293.174 279.799 293.174 279.45 292.953 279.225L287.797 273.995V277.376H283.363V281.885Z" fill="#26282D"/>
<rect x="270.217" y="259.729" width="34.7537" height="34.7537" rx="6.36461" stroke="#E5E4F7" stroke-width="0.41062"/>
<g clip-path="url(#clip0_5054_10239)">
<path d="M321.608 283.265C321.032 283.265 320.477 283.172 319.944 282.985C319.411 282.793 318.96 282.495 318.592 282.089C318.224 281.679 317.989 281.148 317.888 280.497H319.912C319.981 280.791 320.107 281.023 320.288 281.193C320.475 281.364 320.685 281.487 320.92 281.561C321.155 281.631 321.379 281.665 321.592 281.665C322.04 281.665 322.4 281.596 322.672 281.457C322.949 281.313 323.088 281.095 323.088 280.801C323.088 280.577 323.005 280.399 322.84 280.265C322.68 280.132 322.413 280.031 322.04 279.961L320.584 279.657C319.853 279.503 319.267 279.241 318.824 278.873C318.381 278.5 318.155 277.972 318.144 277.289C318.144 276.793 318.275 276.348 318.536 275.953C318.803 275.559 319.195 275.247 319.712 275.017C320.229 274.788 320.864 274.673 321.616 274.673C322.635 274.673 323.448 274.897 324.056 275.345C324.669 275.793 324.981 276.425 324.992 277.241H323.04C322.981 276.921 322.821 276.676 322.56 276.505C322.304 276.329 321.981 276.241 321.592 276.241C321.187 276.241 320.853 276.313 320.592 276.457C320.331 276.601 320.2 276.82 320.2 277.113C320.2 277.332 320.307 277.505 320.52 277.633C320.733 277.756 321.064 277.863 321.512 277.953L322.856 278.257C323.32 278.369 323.696 278.524 323.984 278.721C324.277 278.913 324.504 279.124 324.664 279.353C324.824 279.583 324.933 279.815 324.992 280.049C325.056 280.279 325.088 280.487 325.088 280.673C325.088 281.223 324.941 281.692 324.648 282.081C324.355 282.465 323.947 282.759 323.424 282.961C322.901 283.164 322.296 283.265 321.608 283.265ZM326.503 275.097C326.503 274.265 326.697 273.575 327.087 273.025C327.481 272.476 328.012 272.065 328.679 271.793C329.345 271.516 330.087 271.377 330.903 271.377C331.767 271.377 332.535 271.489 333.207 271.713C333.884 271.937 334.417 272.279 334.807 272.737C335.196 273.196 335.391 273.777 335.391 274.481C335.391 275.052 335.225 275.556 334.895 275.993C334.564 276.425 334.025 276.769 333.279 277.025C333.705 277.143 334.1 277.321 334.463 277.561C334.825 277.801 335.116 278.108 335.335 278.481C335.553 278.855 335.663 279.303 335.663 279.825C335.663 280.391 335.537 280.889 335.287 281.321C335.036 281.753 334.689 282.116 334.247 282.409C333.804 282.703 333.292 282.921 332.711 283.065C332.129 283.209 331.508 283.281 330.847 283.281C329.919 283.276 329.127 283.124 328.471 282.825C327.82 282.521 327.319 282.089 326.967 281.529C326.62 280.969 326.441 280.303 326.431 279.529H328.679C328.791 280.185 329.047 280.66 329.447 280.953C329.847 281.247 330.321 281.393 330.871 281.393C331.351 281.393 331.761 281.324 332.103 281.185C332.449 281.047 332.713 280.855 332.895 280.609C333.081 280.359 333.175 280.073 333.175 279.753C333.175 279.423 333.079 279.137 332.887 278.897C332.7 278.657 332.439 278.471 332.103 278.337C331.767 278.199 331.383 278.124 330.951 278.113L329.847 278.073V276.217L330.839 276.161C331.255 276.145 331.617 276.068 331.927 275.929C332.236 275.791 332.476 275.607 332.647 275.377C332.823 275.143 332.911 274.879 332.911 274.585C332.911 274.303 332.823 274.057 332.647 273.849C332.471 273.641 332.228 273.479 331.919 273.361C331.609 273.244 331.255 273.185 330.855 273.185C330.487 273.185 330.148 273.247 329.839 273.369C329.529 273.492 329.276 273.695 329.079 273.977C328.881 274.255 328.767 274.628 328.735 275.097H326.503ZM344.231 283.617V285.313H337.295V283.625L344.231 283.617ZM349.283 283.265C348.174 283.265 347.31 282.884 346.691 282.121C346.072 281.353 345.763 280.287 345.763 278.921C345.763 278.057 345.888 277.308 346.139 276.673C346.39 276.039 346.76 275.548 347.251 275.201C347.742 274.849 348.342 274.673 349.051 274.673C349.35 274.673 349.627 274.708 349.883 274.777C350.144 274.841 350.382 274.932 350.595 275.049C350.808 275.167 350.995 275.303 351.155 275.457C351.315 275.612 351.446 275.777 351.547 275.953V271.217H353.891V283.105H352.195L351.931 281.409C351.856 281.639 351.752 281.863 351.619 282.081C351.486 282.3 351.315 282.5 351.107 282.681C350.899 282.857 350.643 282.999 350.339 283.105C350.04 283.212 349.688 283.265 349.283 283.265ZM349.795 281.585C350.382 281.585 350.819 281.38 351.107 280.969C351.4 280.559 351.547 279.865 351.547 278.889C351.542 278.324 351.475 277.855 351.347 277.481C351.219 277.108 351.027 276.831 350.771 276.649C350.52 276.463 350.2 276.369 349.811 276.369C349.304 276.369 348.883 276.564 348.547 276.953C348.211 277.337 348.043 277.983 348.043 278.889C348.043 279.812 348.2 280.492 348.515 280.929C348.83 281.367 349.256 281.585 349.795 281.585ZM359.45 283.265C358.64 283.265 357.933 283.092 357.33 282.745C356.733 282.399 356.269 281.908 355.938 281.273C355.613 280.639 355.45 279.887 355.45 279.017C355.45 278.148 355.613 277.388 355.938 276.737C356.269 276.087 356.733 275.58 357.33 275.217C357.933 274.855 358.642 274.673 359.458 274.673C360.274 274.673 360.981 274.852 361.578 275.209C362.176 275.561 362.637 276.063 362.962 276.713C363.288 277.364 363.45 278.132 363.45 279.017C363.45 279.849 363.29 280.585 362.97 281.225C362.656 281.86 362.2 282.359 361.602 282.721C361.01 283.084 360.293 283.265 359.45 283.265ZM359.458 281.529C359.869 281.529 360.2 281.409 360.45 281.169C360.701 280.929 360.882 280.615 360.994 280.225C361.112 279.831 361.17 279.401 361.17 278.937C361.17 278.5 361.117 278.087 361.01 277.697C360.909 277.308 360.733 276.993 360.482 276.753C360.232 276.513 359.89 276.393 359.458 276.393C359.048 276.393 358.714 276.508 358.458 276.737C358.208 276.961 358.024 277.268 357.906 277.657C357.789 278.041 357.73 278.468 357.73 278.937C357.73 279.369 357.784 279.785 357.89 280.185C357.997 280.58 358.176 280.903 358.426 281.153C358.677 281.404 359.021 281.529 359.458 281.529ZM376.072 274.833L373.352 283.105H371.496L369.952 278.097L368.416 283.105H366.608L363.928 274.833H365.992L367.576 279.961H367.64L369.16 274.833H370.824L372.36 279.961H372.424L373.96 274.833H376.072ZM377.32 283.105V274.833H379.616V276.001C379.744 275.799 379.91 275.604 380.112 275.417C380.32 275.225 380.582 275.068 380.896 274.945C381.211 274.823 381.584 274.761 382.016 274.761C382.523 274.761 382.995 274.86 383.432 275.057C383.875 275.255 384.232 275.567 384.504 275.993C384.776 276.415 384.912 276.967 384.912 277.649V283.105H382.576V277.937C382.576 277.489 382.443 277.153 382.176 276.929C381.91 276.705 381.584 276.593 381.2 276.593C380.944 276.593 380.696 276.639 380.456 276.729C380.222 276.82 380.03 276.956 379.88 277.137C379.731 277.319 379.656 277.543 379.656 277.809V283.105H377.32ZM389.445 283.249C388.837 283.249 388.354 283.177 387.997 283.033C387.639 282.889 387.375 282.7 387.205 282.465C387.034 282.225 386.925 281.961 386.877 281.673C386.829 281.38 386.805 281.084 386.805 280.785V271.217H389.093V280.497C389.093 280.801 389.157 281.049 389.285 281.241C389.418 281.428 389.666 281.543 390.029 281.585L390.421 281.609V283.049C390.261 283.103 390.098 283.148 389.933 283.185C389.767 283.228 389.605 283.249 389.445 283.249ZM395.466 283.265C394.655 283.265 393.949 283.092 393.346 282.745C392.749 282.399 392.285 281.908 391.954 281.273C391.629 280.639 391.466 279.887 391.466 279.017C391.466 278.148 391.629 277.388 391.954 276.737C392.285 276.087 392.749 275.58 393.346 275.217C393.949 274.855 394.658 274.673 395.474 274.673C396.29 274.673 396.997 274.852 397.594 275.209C398.191 275.561 398.653 276.063 398.978 276.713C399.303 277.364 399.466 278.132 399.466 279.017C399.466 279.849 399.306 280.585 398.986 281.225C398.671 281.86 398.215 282.359 397.618 282.721C397.026 283.084 396.309 283.265 395.466 283.265ZM395.474 281.529C395.885 281.529 396.215 281.409 396.466 281.169C396.717 280.929 396.898 280.615 397.01 280.225C397.127 279.831 397.186 279.401 397.186 278.937C397.186 278.5 397.133 278.087 397.026 277.697C396.925 277.308 396.749 276.993 396.498 276.753C396.247 276.513 395.906 276.393 395.474 276.393C395.063 276.393 394.73 276.508 394.474 276.737C394.223 276.961 394.039 277.268 393.922 277.657C393.805 278.041 393.746 278.468 393.746 278.937C393.746 279.369 393.799 279.785 393.906 280.185C394.013 280.58 394.191 280.903 394.442 281.153C394.693 281.404 395.037 281.529 395.474 281.529ZM403.377 283.265C402.849 283.265 402.374 283.167 401.953 282.969C401.531 282.772 401.198 282.487 400.953 282.113C400.707 281.735 400.585 281.276 400.585 280.737C400.585 279.831 400.923 279.143 401.601 278.673C402.278 278.199 403.347 277.953 404.809 277.937L405.841 277.921V277.425C405.841 277.047 405.729 276.756 405.505 276.553C405.286 276.345 404.945 276.244 404.481 276.249C404.139 276.255 403.814 276.335 403.505 276.489C403.201 276.644 402.993 276.913 402.881 277.297H400.937C400.969 276.7 401.142 276.209 401.457 275.825C401.771 275.436 402.198 275.148 402.737 274.961C403.281 274.769 403.897 274.673 404.585 274.673C405.433 274.673 406.113 274.78 406.625 274.993C407.137 275.201 407.507 275.503 407.737 275.897C407.966 276.287 408.081 276.751 408.081 277.289V283.105H406.129L405.937 281.681C405.654 282.279 405.299 282.692 404.873 282.921C404.451 283.151 403.953 283.265 403.377 283.265ZM404.161 281.729C404.374 281.729 404.579 281.692 404.777 281.617C404.979 281.537 405.158 281.433 405.313 281.305C405.473 281.172 405.601 281.023 405.697 280.857C405.793 280.692 405.841 280.521 405.841 280.345V279.121L405.001 279.137C404.611 279.143 404.249 279.191 403.913 279.281C403.577 279.367 403.305 279.508 403.097 279.705C402.894 279.903 402.793 280.169 402.793 280.505C402.793 280.889 402.926 281.191 403.193 281.409C403.459 281.623 403.782 281.729 404.161 281.729ZM413.22 283.265C412.111 283.265 411.247 282.884 410.628 282.121C410.01 281.353 409.7 280.287 409.7 278.921C409.7 278.057 409.826 277.308 410.076 276.673C410.327 276.039 410.698 275.548 411.188 275.201C411.679 274.849 412.279 274.673 412.988 274.673C413.287 274.673 413.564 274.708 413.82 274.777C414.082 274.841 414.319 274.932 414.532 275.049C414.746 275.167 414.932 275.303 415.092 275.457C415.252 275.612 415.383 275.777 415.484 275.953V271.217H417.828V283.105H416.132L415.868 281.409C415.794 281.639 415.69 281.863 415.556 282.081C415.423 282.3 415.252 282.5 415.044 282.681C414.836 282.857 414.58 282.999 414.276 283.105C413.978 283.212 413.626 283.265 413.22 283.265ZM413.732 281.585C414.319 281.585 414.756 281.38 415.044 280.969C415.338 280.559 415.484 279.865 415.484 278.889C415.479 278.324 415.412 277.855 415.284 277.481C415.156 277.108 414.964 276.831 414.708 276.649C414.458 276.463 414.138 276.369 413.748 276.369C413.242 276.369 412.82 276.564 412.484 276.953C412.148 277.337 411.98 277.983 411.98 278.889C411.98 279.812 412.138 280.492 412.452 280.929C412.767 281.367 413.194 281.585 413.732 281.585Z" fill="#26282D"/>
</g>
<rect x="433.113" y="235.679" width="22.5883" height="22.5883" rx="11.2941" fill="#A6A4CA"/>
<path d="M439.627 249.873V251.488C439.627 251.637 439.744 251.753 439.893 251.753H441.507C441.576 251.753 441.645 251.727 441.693 251.674L447.493 245.88L445.501 243.888L439.707 249.682C439.654 249.735 439.627 249.799 439.627 249.873Z" fill="white"/>
<path d="M449.033 243.59L447.79 242.348C447.583 242.141 447.248 242.141 447.041 242.348L446.069 243.32L448.061 245.311L449.033 244.339C449.24 244.132 449.24 243.798 449.033 243.59Z" fill="white"/>
<rect x="459.951" y="235.679" width="22.5883" height="22.5883" rx="11.2941" fill="#A6A4CA"/>
<path d="M468.058 250.691C468.058 251.275 468.536 251.753 469.121 251.753H473.369C473.954 251.753 474.432 251.275 474.432 250.691V245.38C474.432 244.796 473.954 244.318 473.369 244.318H469.121C468.536 244.318 468.058 244.796 468.058 245.38V250.691ZM474.432 242.724H473.104L472.727 242.347C472.631 242.252 472.493 242.193 472.355 242.193H470.135C469.997 242.193 469.859 242.252 469.763 242.347L469.386 242.724H468.058C467.766 242.724 467.527 242.963 467.527 243.256C467.527 243.548 467.766 243.787 468.058 243.787H474.432C474.724 243.787 474.963 243.548 474.963 243.256C474.963 242.963 474.724 242.724 474.432 242.724Z" fill="white"/>
<rect x="257.32" y="246.832" width="213.501" height="60.5452" rx="9.02867" stroke="#E5E4F7" stroke-width="1.0622" shape-rendering="crispEdges"/>
</g>
<path d="M29.8138 156.935C29.8138 158.407 31.0077 159.601 32.4805 159.601C33.9532 159.601 35.1471 158.407 35.1471 156.935C35.1471 155.462 33.9532 154.268 32.4805 154.268C31.0077 154.268 29.8138 155.462 29.8138 156.935ZM119.002 157.288C119.197 157.093 119.197 156.776 119.002 156.581L115.82 153.399C115.625 153.204 115.308 153.204 115.113 153.399C114.918 153.594 114.918 153.911 115.113 154.106L117.941 156.935L115.113 159.763C114.918 159.958 114.918 160.275 115.113 160.47C115.308 160.665 115.625 160.665 115.82 160.47L119.002 157.288ZM32.4805 157.435H118.648V156.435H32.4805V157.435Z" fill="#26282D"/>
<path d="M197.808 274.542C197.808 276.015 199.002 277.209 200.475 277.209C201.947 277.209 203.141 276.015 203.141 274.542C203.141 273.069 201.947 271.875 200.475 271.875C199.002 271.875 197.808 273.069 197.808 274.542ZM230.206 274.896C230.401 274.7 230.401 274.384 230.206 274.188L227.024 271.006C226.829 270.811 226.512 270.811 226.317 271.006C226.122 271.202 226.122 271.518 226.317 271.714L229.145 274.542L226.317 277.37C226.122 277.566 226.122 277.882 226.317 278.078C226.512 278.273 226.829 278.273 227.024 278.078L230.206 274.896ZM200.475 275.042H229.853V274.042H200.475V275.042Z" fill="#AA50FF"/>
<path d="M467.624 274.542C467.624 276.015 468.818 277.209 470.291 277.209C471.764 277.209 472.958 276.015 472.958 274.542C472.958 273.069 471.764 271.875 470.291 271.875C468.818 271.875 467.624 273.069 467.624 274.542ZM540.371 274.896C540.566 274.7 540.566 274.384 540.371 274.188L537.189 271.006C536.994 270.811 536.677 270.811 536.482 271.006C536.287 271.202 536.287 271.518 536.482 271.714L539.31 274.542L536.482 277.37C536.287 277.566 536.287 277.882 536.482 278.078C536.677 278.273 536.994 278.273 537.189 278.078L540.371 274.896ZM470.291 275.042H540.018V274.042H470.291V275.042Z" fill="#26282D"/>
<path d="M233.347 274.542C233.347 276.015 234.541 277.209 236.014 277.209C237.486 277.209 238.68 276.015 238.68 274.542C238.68 273.069 237.486 271.875 236.014 271.875C234.541 271.875 233.347 273.069 233.347 274.542ZM254.568 274.896C254.763 274.7 254.763 274.384 254.568 274.188L251.386 271.006C251.191 270.811 250.874 270.811 250.679 271.006C250.484 271.202 250.484 271.518 250.679 271.714L253.507 274.542L250.679 277.37C250.484 277.566 250.484 277.882 250.679 278.078C250.874 278.273 251.191 278.273 251.386 278.078L254.568 274.896ZM236.014 275.042H254.214V274.042H236.014V275.042Z" fill="#26282D"/>
<circle cx="104.169" cy="93.0006" r="3.2877" fill="#C2BFCE" fill-opacity="0.2"/>
<circle cx="104.169" cy="111.788" r="3.2877" fill="#C2BFCE" fill-opacity="0.2"/>
<circle cx="104.169" cy="130.575" r="3.2877" fill="#C2BFCE" fill-opacity="0.2"/>
<circle cx="85.3815" cy="149.361" r="3.2877" fill="#C2BFCE" fill-opacity="0.2"/>
<circle cx="160.53" cy="168.148" r="3.2877" fill="#C2BFCE" fill-opacity="0.2"/>
<circle cx="122.956" cy="186.935" r="3.2877" fill="#C2BFCE" fill-opacity="0.2"/>
<circle cx="85.3815" cy="186.935" r="3.2877" fill="#C2BFCE" fill-opacity="0.2"/>
<circle cx="198.102" cy="111.788" r="3.2877" fill="#C2BFCE" fill-opacity="0.2"/>
<circle cx="198.102" cy="130.575" r="3.2877" fill="#C2BFCE" fill-opacity="0.2"/>
<circle cx="179.315" cy="149.361" r="3.2877" fill="#C2BFCE" fill-opacity="0.2"/>
<circle cx="254.463" cy="168.148" r="3.2877" fill="#C2BFCE" fill-opacity="0.2"/>
<circle cx="216.889" cy="186.935" r="3.2877" fill="#C2BFCE" fill-opacity="0.2"/>
<circle cx="141.743" cy="93.0006" r="3.2877" fill="#C2BFCE" fill-opacity="0.2"/>
<circle cx="141.743" cy="111.788" r="3.2877" fill="#C2BFCE" fill-opacity="0.2"/>
<circle cx="141.743" cy="130.575" r="3.2877" fill="#C2BFCE" fill-opacity="0.2"/>
<circle cx="122.956" cy="149.361" r="3.2877" fill="#C2BFCE" fill-opacity="0.2"/>
<circle cx="198.102" cy="168.148" r="3.2877" fill="#C2BFCE" fill-opacity="0.2"/>
<circle cx="160.53" cy="186.935" r="3.2877" fill="#C2BFCE" fill-opacity="0.2"/>
<circle cx="235.676" cy="111.788" r="3.2877" fill="#C2BFCE" fill-opacity="0.2"/>
<circle cx="235.676" cy="130.575" r="3.2877" fill="#C2BFCE" fill-opacity="0.2"/>
<circle cx="216.889" cy="149.361" r="3.2877" fill="#C2BFCE" fill-opacity="0.2"/>
<circle cx="235.676" cy="149.361" r="3.2877" fill="#C2BFCE" fill-opacity="0.2"/>
<circle cx="254.463" cy="186.935" r="3.2877" fill="#C2BFCE" fill-opacity="0.2"/>
<circle cx="122.956" cy="93.0006" r="3.2877" fill="#C2BFCE" fill-opacity="0.2"/>
<circle cx="122.956" cy="111.788" r="3.2877" fill="#C2BFCE" fill-opacity="0.2"/>
<circle cx="122.956" cy="130.575" r="3.2877" fill="#C2BFCE" fill-opacity="0.2"/>
<circle cx="104.169" cy="149.361" r="3.2877" fill="#C2BFCE" fill-opacity="0.2"/>
<circle cx="179.315" cy="168.148" r="3.2877" fill="#C2BFCE" fill-opacity="0.2"/>
<circle cx="141.743" cy="186.935" r="3.2877" fill="#C2BFCE" fill-opacity="0.2"/>
<circle cx="104.169" cy="186.935" r="3.2877" fill="#C2BFCE" fill-opacity="0.2"/>
<circle cx="216.889" cy="111.788" r="3.2877" fill="#C2BFCE" fill-opacity="0.2"/>
<circle cx="216.889" cy="130.575" r="3.2877" fill="#C2BFCE" fill-opacity="0.2"/>
<circle cx="198.102" cy="149.361" r="3.2877" fill="#C2BFCE" fill-opacity="0.2"/>
<circle cx="273.251" cy="168.148" r="3.2877" fill="#C2BFCE" fill-opacity="0.2"/>
<circle cx="235.676" cy="186.935" r="3.2877" fill="#C2BFCE" fill-opacity="0.2"/>
<circle cx="160.53" cy="93.0006" r="3.2877" fill="#C2BFCE" fill-opacity="0.2"/>
<circle cx="160.53" cy="111.788" r="3.2877" fill="#C2BFCE" fill-opacity="0.2"/>
<circle cx="160.53" cy="130.575" r="3.2877" fill="#C2BFCE" fill-opacity="0.2"/>
<circle cx="141.743" cy="149.361" r="3.2877" fill="#C2BFCE" fill-opacity="0.2"/>
<circle cx="216.889" cy="168.148" r="3.2877" fill="#C2BFCE" fill-opacity="0.2"/>
<circle cx="179.315" cy="186.935" r="3.2877" fill="#C2BFCE" fill-opacity="0.2"/>
<circle cx="254.463" cy="111.788" r="3.2877" fill="#C2BFCE" fill-opacity="0.2"/>
<circle cx="179.315" cy="93.0006" r="3.2877" fill="#C2BFCE" fill-opacity="0.2"/>
<circle cx="179.315" cy="111.788" r="3.2877" fill="#C2BFCE" fill-opacity="0.2"/>
<circle cx="179.315" cy="130.575" r="3.2877" fill="#C2BFCE" fill-opacity="0.2"/>
<circle cx="160.53" cy="149.361" r="3.2877" fill="#C2BFCE" fill-opacity="0.2"/>
<circle cx="235.676" cy="168.148" r="3.2877" fill="#C2BFCE" fill-opacity="0.2"/>
<circle cx="198.102" cy="186.935" r="3.2877" fill="#C2BFCE" fill-opacity="0.2"/>
<g filter="url(#filter1_d_5054_10239)">
<rect x="120.863" y="123.591" width="254.489" height="71.2568" rx="10.1795" fill="white" shape-rendering="crispEdges"/>
<rect x="135.676" y="138.403" width="41.6327" height="41.6327" rx="7.62439" fill="white"/>
<path d="M167.806 164.543V160.793C167.806 159.405 166.711 158.292 165.346 158.292H157.968V154.541H160.427V147.04H153.049V154.541H155.508V158.292H148.13C146.765 158.292 145.67 159.405 145.67 160.793V164.543H143.211V172.045H150.589V164.543H148.13V160.793H155.508V164.543H153.049V172.045H160.427V164.543H157.968V160.793H165.346V164.543H162.887V172.045H170.265V164.543H167.806ZM155.508 149.541H157.968V152.041H155.508V149.541ZM148.13 169.544H145.67V167.044H148.13V169.544ZM157.968 169.544H155.508V167.044H157.968V169.544ZM167.806 169.544H165.346V167.044H167.806V169.544Z" fill="#26282D"/>
<rect x="135.676" y="138.403" width="41.6327" height="41.6327" rx="7.62439" stroke="#E5E4F7" stroke-width="0.491896"/>
<g clip-path="url(#clip1_5054_10239)">
<path d="M197.761 165.38C197.19 165.38 196.63 165.308 196.081 165.164C195.532 165.02 195.03 164.804 194.577 164.516C194.124 164.228 193.748 163.868 193.449 163.436C193.156 163.004 192.98 162.497 192.921 161.916H195.313C195.393 162.268 195.545 162.564 195.769 162.804C195.993 163.044 196.276 163.228 196.617 163.356C196.958 163.484 197.337 163.548 197.753 163.548C198.18 163.548 198.569 163.494 198.921 163.388C199.273 163.281 199.556 163.121 199.769 162.908C199.982 162.689 200.089 162.417 200.089 162.092C200.089 161.798 200.001 161.558 199.825 161.372C199.654 161.185 199.422 161.033 199.129 160.916C198.836 160.798 198.502 160.702 198.129 160.628L196.129 160.22C195.254 160.054 194.561 159.708 194.049 159.18C193.537 158.646 193.273 157.937 193.257 157.052C193.252 156.326 193.444 155.7 193.833 155.172C194.228 154.638 194.761 154.228 195.433 153.94C196.11 153.652 196.868 153.508 197.705 153.508C198.702 153.508 199.54 153.665 200.217 153.98C200.9 154.289 201.417 154.71 201.769 155.244C202.126 155.772 202.31 156.361 202.321 157.012H199.977C199.934 156.606 199.812 156.284 199.609 156.044C199.406 155.804 199.145 155.63 198.825 155.524C198.51 155.417 198.15 155.364 197.745 155.364C197.436 155.364 197.153 155.398 196.897 155.468C196.646 155.537 196.433 155.636 196.257 155.764C196.081 155.886 195.945 156.033 195.849 156.204C195.753 156.374 195.705 156.566 195.705 156.78C195.705 157.116 195.817 157.388 196.041 157.596C196.265 157.804 196.684 157.974 197.297 158.108L199.281 158.516C199.99 158.654 200.553 158.86 200.969 159.132C201.39 159.404 201.705 159.71 201.913 160.052C202.126 160.393 202.265 160.742 202.329 161.1C202.398 161.452 202.433 161.777 202.433 162.076C202.433 162.7 202.236 163.262 201.841 163.764C201.452 164.26 200.908 164.654 200.209 164.948C199.51 165.236 198.694 165.38 197.761 165.38ZM207.263 165.38C206.879 165.38 206.5 165.321 206.127 165.204C205.759 165.086 205.423 164.913 205.119 164.684C204.815 164.454 204.57 164.172 204.383 163.836C204.202 163.5 204.111 163.11 204.111 162.668V156.948H206.447V162.372C206.447 162.756 206.572 163.07 206.823 163.316C207.074 163.561 207.442 163.684 207.927 163.684C208.386 163.684 208.748 163.566 209.015 163.332C209.287 163.092 209.423 162.758 209.423 162.332V156.948H211.735V165.22H209.975L209.703 163.58C209.607 164.065 209.426 164.438 209.159 164.7C208.898 164.956 208.596 165.132 208.255 165.228C207.919 165.329 207.588 165.38 207.263 165.38ZM218.292 165.38C217.881 165.38 217.526 165.326 217.228 165.22C216.929 165.113 216.676 164.972 216.468 164.796C216.26 164.614 216.089 164.414 215.956 164.196C215.822 163.977 215.718 163.753 215.644 163.524L215.38 165.22H213.684V153.332H216.028V158.068C216.129 157.892 216.26 157.726 216.42 157.572C216.58 157.417 216.766 157.281 216.98 157.164C217.193 157.046 217.428 156.956 217.684 156.892C217.945 156.822 218.222 156.788 218.516 156.788C219.545 156.788 220.35 157.158 220.932 157.9C221.518 158.641 221.812 159.686 221.812 161.036C221.812 161.91 221.678 162.673 221.412 163.324C221.145 163.974 220.75 164.481 220.228 164.844C219.705 165.201 219.06 165.38 218.292 165.38ZM217.78 163.7C218.281 163.7 218.697 163.494 219.028 163.084C219.364 162.668 219.532 161.974 219.532 161.004C219.532 160.145 219.372 159.51 219.052 159.1C218.737 158.689 218.308 158.484 217.764 158.484C217.374 158.484 217.052 158.577 216.796 158.764C216.54 158.945 216.348 159.222 216.22 159.596C216.097 159.969 216.033 160.438 216.028 161.004C216.028 161.98 216.172 162.673 216.46 163.084C216.753 163.494 217.193 163.7 217.78 163.7ZM228.153 156.948V158.572H226.409V165.22H224.073V158.572H222.545V156.948H224.073V155.756C224.073 155.089 224.268 154.572 224.657 154.204C225.052 153.836 225.609 153.652 226.329 153.652H228.225L228.233 155.204H227.145C226.847 155.204 226.641 155.278 226.529 155.428C226.423 155.572 226.369 155.812 226.369 156.148V156.948H228.153ZM232.161 165.364C231.553 165.364 231.071 165.292 230.713 165.148C230.356 165.004 230.092 164.814 229.921 164.58C229.751 164.34 229.641 164.076 229.593 163.788C229.545 163.494 229.521 163.198 229.521 162.9V153.332H231.809V162.612C231.809 162.916 231.873 163.164 232.001 163.356C232.135 163.542 232.383 163.657 232.745 163.7L233.137 163.724V165.164C232.977 165.217 232.815 165.262 232.649 165.3C232.484 165.342 232.321 165.364 232.161 165.364ZM238.173 165.38C237.362 165.38 236.656 165.206 236.053 164.86C235.456 164.513 234.992 164.022 234.661 163.388C234.336 162.753 234.173 162.001 234.173 161.132C234.173 160.262 234.336 159.502 234.661 158.852C234.992 158.201 235.456 157.694 236.053 157.332C236.656 156.969 237.365 156.788 238.181 156.788C238.997 156.788 239.704 156.966 240.301 157.324C240.898 157.676 241.36 158.177 241.685 158.828C242.01 159.478 242.173 160.246 242.173 161.132C242.173 161.964 242.013 162.7 241.693 163.34C241.378 163.974 240.922 164.473 240.325 164.836C239.733 165.198 239.016 165.38 238.173 165.38ZM238.181 163.644C238.592 163.644 238.922 163.524 239.173 163.284C239.424 163.044 239.605 162.729 239.717 162.34C239.834 161.945 239.893 161.516 239.893 161.052C239.893 160.614 239.84 160.201 239.733 159.812C239.632 159.422 239.456 159.108 239.205 158.868C238.954 158.628 238.613 158.508 238.181 158.508C237.77 158.508 237.437 158.622 237.181 158.852C236.93 159.076 236.746 159.382 236.629 159.772C236.512 160.156 236.453 160.582 236.453 161.052C236.453 161.484 236.506 161.9 236.613 162.3C236.72 162.694 236.898 163.017 237.149 163.268C237.4 163.518 237.744 163.644 238.181 163.644ZM254.795 156.948L252.075 165.22H250.219L248.675 160.212L247.139 165.22H245.331L242.651 156.948H244.715L246.299 162.076H246.363L247.883 156.948H249.547L251.083 162.076H251.147L252.683 156.948H254.795ZM261.724 165.38C261.196 165.38 260.722 165.281 260.3 165.084C259.879 164.886 259.546 164.601 259.3 164.228C259.055 163.849 258.932 163.39 258.932 162.852C258.932 161.945 259.271 161.257 259.948 160.788C260.626 160.313 261.695 160.068 263.156 160.052L264.188 160.036V159.54C264.188 159.161 264.076 158.87 263.852 158.668C263.634 158.46 263.292 158.358 262.828 158.364C262.487 158.369 262.162 158.449 261.852 158.604C261.548 158.758 261.34 159.028 261.228 159.412H259.284C259.316 158.814 259.49 158.324 259.804 157.94C260.119 157.55 260.546 157.262 261.084 157.076C261.628 156.884 262.244 156.788 262.932 156.788C263.78 156.788 264.46 156.894 264.972 157.108C265.484 157.316 265.855 157.617 266.084 158.012C266.314 158.401 266.428 158.865 266.428 159.404V165.22H264.476L264.284 163.796C264.002 164.393 263.647 164.806 263.22 165.036C262.799 165.265 262.3 165.38 261.724 165.38ZM262.508 163.844C262.722 163.844 262.927 163.806 263.124 163.732C263.327 163.652 263.506 163.548 263.66 163.42C263.82 163.286 263.948 163.137 264.044 162.972C264.14 162.806 264.188 162.636 264.188 162.46V161.236L263.348 161.252C262.959 161.257 262.596 161.305 262.26 161.396C261.924 161.481 261.652 161.622 261.444 161.82C261.242 162.017 261.14 162.284 261.14 162.62C261.14 163.004 261.274 163.305 261.54 163.524C261.807 163.737 262.13 163.844 262.508 163.844Z" fill="#26282D"/>
<path d="M287.633 154.978H289.329V156.674H287.633V154.978ZM287.633 158.371H289.329V163.461H287.633V158.371ZM288.481 150.736C283.798 150.736 279.998 154.537 279.998 159.219C279.998 163.902 283.798 167.702 288.481 167.702C293.164 167.702 296.964 163.902 296.964 159.219C296.964 154.537 293.164 150.736 288.481 150.736ZM288.481 166.006C284.74 166.006 281.695 162.96 281.695 159.219C281.695 155.478 284.74 152.433 288.481 152.433C292.222 152.433 295.267 155.478 295.267 159.219C295.267 162.96 292.222 166.006 288.481 166.006Z" fill="#9A8EB4"/>
</g>
<rect x="293.916" y="109.594" width="27.0593" height="27.0593" rx="13.5296" fill="#8405FF"/>
<path d="M301.719 126.599V128.533C301.719 128.711 301.859 128.851 302.037 128.851H303.971C304.054 128.851 304.136 128.819 304.194 128.756L311.141 121.814L308.755 119.429L301.814 126.37C301.751 126.433 301.719 126.51 301.719 126.599Z" fill="white"/>
<path d="M312.986 119.072L311.497 117.584C311.249 117.335 310.849 117.335 310.6 117.584L309.436 118.748L311.822 121.134L312.986 119.969C313.234 119.721 313.234 119.32 312.986 119.072Z" fill="white"/>
<rect x="326.064" y="109.594" width="27.0593" height="27.0593" rx="13.5296" fill="#8405FF"/>
<path d="M335.777 127.577C335.777 128.277 336.349 128.849 337.049 128.849H342.139C342.839 128.849 343.412 128.277 343.412 127.577V121.215C343.412 120.515 342.839 119.942 342.139 119.942H337.049C336.349 119.942 335.777 120.515 335.777 121.215V127.577ZM343.412 118.034H341.821L341.369 117.582C341.255 117.467 341.089 117.397 340.924 117.397H338.264C338.099 117.397 337.934 117.467 337.819 117.582L337.367 118.034H335.777C335.427 118.034 335.141 118.32 335.141 118.67C335.141 119.02 335.427 119.306 335.777 119.306H343.412C343.761 119.306 344.048 119.02 344.048 118.67C344.048 118.32 343.761 118.034 343.412 118.034Z" fill="white"/>
<circle cx="371.744" cy="123.123" r="13.5296" fill="#8405FF"/>
<path d="M374.52 120.348L374.52 123.2L375.789 123.2L375.793 119.075H371.664L371.668 120.348L374.52 120.348ZM368.969 125.899L368.969 123.047L367.7 123.047L367.696 127.172H371.826L371.821 125.899L368.969 125.899Z" fill="white"/>
<rect x="120.227" y="122.955" width="255.761" height="72.5292" rx="10.8158" stroke="#26282D" stroke-width="1.27244" shape-rendering="crispEdges"/>
</g>
<circle cx="371.319" cy="123.39" r="17.7177" stroke="#A05AFA" stroke-width="0.808687"/>
<path fill-rule="evenodd" clip-rule="evenodd" d="M373.102 129.346C371.283 129.346 369.807 130.793 369.807 132.579V140.23C367.301 140.729 365.414 142.903 365.414 145.51V148.826C365.414 150.398 365.915 151.931 366.846 153.211L370.125 157.714C370.949 158.847 372.281 159.519 373.7 159.519H382.174C383.75 159.519 385.206 158.69 385.988 157.347L388.565 152.924C389.229 151.784 389.578 150.494 389.578 149.181V145.51C389.578 142.621 387.261 140.264 384.351 140.128C383.747 139.463 382.868 139.044 381.889 139.044C381.302 139.044 380.751 139.195 380.273 139.459C379.688 138.562 378.663 137.967 377.496 137.967C377.111 137.967 376.741 138.032 376.398 138.151V132.579C376.398 130.793 374.922 129.346 373.102 129.346Z" fill="white"/>
<path fill-rule="evenodd" clip-rule="evenodd" d="M373.102 129.346C371.283 129.346 369.807 130.793 369.807 132.579V140.23C367.301 140.729 365.414 142.903 365.414 145.51V148.826C365.414 150.398 365.915 151.931 366.846 153.211L370.125 157.714C370.949 158.847 372.281 159.519 373.7 159.519H382.174C383.75 159.519 385.206 158.69 385.988 157.347L388.565 152.924C389.229 151.784 389.578 150.494 389.578 149.181V145.51C389.578 142.621 387.261 140.264 384.351 140.128C383.747 139.463 382.868 139.044 381.889 139.044C381.302 139.044 380.751 139.195 380.273 139.459C379.688 138.562 378.663 137.967 377.496 137.967C377.111 137.967 376.741 138.032 376.398 138.151V132.579C376.398 130.793 374.922 129.346 373.102 129.346ZM376.398 141.2C376.398 141.795 375.906 142.277 375.299 142.277C374.693 142.277 374.201 141.795 374.201 141.2V132.579C374.201 131.983 373.709 131.501 373.102 131.501C372.496 131.501 372.004 131.983 372.004 132.579V146.588C372.004 147.183 371.512 147.665 370.906 147.665C370.299 147.665 369.807 147.183 369.807 146.588V142.461C368.528 142.905 367.611 144.102 367.611 145.51V148.826C367.611 149.949 367.968 151.044 368.634 151.958L371.912 156.461C372.325 157.028 372.99 157.364 373.7 157.364H382.174C382.962 157.364 383.69 156.949 384.081 156.278L386.657 151.854C387.132 151.04 387.381 150.119 387.381 149.181V145.51C387.381 144.102 386.464 142.905 385.184 142.461V143.355C385.184 143.95 384.693 144.432 384.086 144.432C383.479 144.432 382.988 143.95 382.988 143.355V142.277C382.988 141.682 382.496 141.2 381.889 141.2C381.283 141.2 380.791 141.682 380.791 142.277C380.791 142.872 380.299 143.355 379.693 143.355C379.086 143.355 378.594 142.872 378.594 142.277V141.2C378.594 140.604 378.102 140.122 377.496 140.122C376.889 140.122 376.398 140.604 376.398 141.2Z" fill="#12131A"/>
<path d="M150.562 194.848C150.562 196.32 151.756 197.514 153.229 197.514C154.701 197.514 155.895 196.32 155.895 194.848C155.895 193.375 154.701 192.181 153.229 192.181C151.756 192.181 150.562 193.375 150.562 194.848ZM153.229 274.543H152.729V275.043H153.229V274.543ZM194.82 274.897C195.015 274.701 195.015 274.385 194.82 274.189L191.638 271.007C191.443 270.812 191.126 270.812 190.931 271.007C190.736 271.203 190.736 271.519 190.931 271.715L193.759 274.543L190.931 277.371C190.736 277.567 190.736 277.883 190.931 278.078C191.126 278.274 191.443 278.274 191.638 278.078L194.82 274.897ZM152.729 194.848V274.543H153.729V194.848H152.729ZM153.229 275.043H194.466V274.043H153.229V275.043Z" fill="#26282D"/>
<defs>
<filter id="filter0_d_5054_10239" x="244.043" y="235.679" width="251.243" height="97.7222" filterUnits="userSpaceOnUse" color-interpolation-filters="sRGB">
<feFlood flood-opacity="0" result="BackgroundImageFix"/>
<feColorMatrix in="SourceAlpha" type="matrix" values="0 0 0 0 0 0 0 0 0 0 0 0 0 0 0 0 0 0 127 0" result="hardAlpha"/>
<feOffset dy="12.7464"/>
<feGaussianBlur stdDeviation="6.37318"/>
<feComposite in2="hardAlpha" operator="out"/>
<feColorMatrix type="matrix" values="0 0 0 0 0.509804 0 0 0 0 0.403922 0 0 0 0 0.619608 0 0 0 0.1 0"/>
<feBlend mode="normal" in2="BackgroundImageFix" result="effect1_dropShadow_5054_10239"/>
<feBlend mode="normal" in="SourceGraphic" in2="effect1_dropShadow_5054_10239" result="shape"/>
</filter>
<filter id="filter1_d_5054_10239" x="104.322" y="109.594" width="296.22" height="117.065" filterUnits="userSpaceOnUse" color-interpolation-filters="sRGB">
<feFlood flood-opacity="0" result="BackgroundImageFix"/>
<feColorMatrix in="SourceAlpha" type="matrix" values="0 0 0 0 0 0 0 0 0 0 0 0 0 0 0 0 0 0 127 0" result="hardAlpha"/>
<feOffset dy="15.2693"/>
<feGaussianBlur stdDeviation="7.63466"/>
<feComposite in2="hardAlpha" operator="out"/>
<feColorMatrix type="matrix" values="0 0 0 0 0.509804 0 0 0 0 0.403922 0 0 0 0 0.619608 0 0 0 0.1 0"/>
<feBlend mode="normal" in2="BackgroundImageFix" result="effect1_dropShadow_5054_10239"/>
<feBlend mode="normal" in="SourceGraphic" in2="effect1_dropShadow_5054_10239" result="shape"/>
</filter>
<clipPath id="clip0_5054_10239">
<path d="M317.336 265.105H436.331V289.105H317.336V265.105Z" fill="white"/>
</clipPath>
<clipPath id="clip1_5054_10239">
<path d="M192.121 147.22H298.66V171.22H192.121V147.22Z" fill="white"/>
</clipPath>
</defs>
</svg>
