<svg width="569" height="421" viewBox="0 0 569 421" fill="none" xmlns="http://www.w3.org/2000/svg">
<mask id="mask0_5054_13447" style="mask-type:alpha" maskUnits="userSpaceOnUse" x="0" y="0" width="569" height="421">
<rect x="0.376953" y="0.229492" width="568" height="420" rx="12" fill="#EDECFF"/>
</mask>
<g mask="url(#mask0_5054_13447)">
<rect x="0.238281" y="0.164062" width="568.138" height="420.065" fill="#F4F4F4"/>
<g opacity="0.3">
<circle cx="284.377" cy="293.127" r="6.5326" stroke="white" stroke-width="3.81"/>
<circle cx="284.379" cy="293.128" r="13.7648" stroke="white" stroke-width="3.81"/>
<circle cx="284.378" cy="293.127" r="21.5998" stroke="white" stroke-width="3.81"/>
<circle cx="284.378" cy="293.128" r="28.832" stroke="white" stroke-width="3.81"/>
<circle cx="284.377" cy="293.128" r="36.6669" stroke="white" stroke-width="3.81"/>
<circle cx="284.378" cy="293.128" r="44.5018" stroke="white" stroke-width="3.81"/>
<circle cx="284.378" cy="293.128" r="52.9394" stroke="white" stroke-width="3.81"/>
<circle cx="284.377" cy="293.127" r="60.1717" stroke="white" stroke-width="3.81"/>
</g>
<circle cx="295.549" cy="64.9313" r="3.2877" fill="#C2BFCE" fill-opacity="0.2"/>
<circle cx="295.549" cy="83.7184" r="3.2877" fill="#C2BFCE" fill-opacity="0.2"/>
<circle cx="295.549" cy="102.505" r="3.2877" fill="#C2BFCE" fill-opacity="0.2"/>
<circle cx="276.762" cy="121.292" r="3.2877" fill="#C2BFCE" fill-opacity="0.2"/>
<circle cx="351.911" cy="140.079" r="3.2877" fill="#C2BFCE" fill-opacity="0.2"/>
<circle cx="314.337" cy="158.866" r="3.2877" fill="#C2BFCE" fill-opacity="0.2"/>
<circle cx="276.762" cy="158.866" r="3.2877" fill="#C2BFCE" fill-opacity="0.2"/>
<circle cx="389.483" cy="83.7184" r="3.2877" fill="#C2BFCE" fill-opacity="0.2"/>
<circle cx="389.483" cy="102.505" r="3.2877" fill="#C2BFCE" fill-opacity="0.2"/>
<circle cx="370.696" cy="121.292" r="3.2877" fill="#C2BFCE" fill-opacity="0.2"/>
<circle cx="445.844" cy="140.079" r="3.2877" fill="#C2BFCE" fill-opacity="0.2"/>
<circle cx="408.27" cy="158.866" r="3.2877" fill="#C2BFCE" fill-opacity="0.2"/>
<circle cx="333.124" cy="64.9313" r="3.2877" fill="#C2BFCE" fill-opacity="0.2"/>
<circle cx="333.124" cy="83.7184" r="3.2877" fill="#C2BFCE" fill-opacity="0.2"/>
<circle cx="333.124" cy="102.505" r="3.2877" fill="#C2BFCE" fill-opacity="0.2"/>
<circle cx="314.337" cy="121.292" r="3.2877" fill="#C2BFCE" fill-opacity="0.2"/>
<circle cx="389.483" cy="140.079" r="3.2877" fill="#C2BFCE" fill-opacity="0.2"/>
<circle cx="351.911" cy="158.866" r="3.2877" fill="#C2BFCE" fill-opacity="0.2"/>
<circle cx="427.057" cy="83.7184" r="3.2877" fill="#C2BFCE" fill-opacity="0.2"/>
<circle cx="427.057" cy="102.505" r="3.2877" fill="#C2BFCE" fill-opacity="0.2"/>
<circle cx="408.27" cy="121.292" r="3.2877" fill="#C2BFCE" fill-opacity="0.2"/>
<circle cx="427.057" cy="121.292" r="3.2877" fill="#C2BFCE" fill-opacity="0.2"/>
<circle cx="445.844" cy="158.866" r="3.2877" fill="#C2BFCE" fill-opacity="0.2"/>
<circle cx="314.337" cy="64.9313" r="3.2877" fill="#C2BFCE" fill-opacity="0.2"/>
<circle cx="314.337" cy="83.7184" r="3.2877" fill="#C2BFCE" fill-opacity="0.2"/>
<circle cx="314.337" cy="102.505" r="3.2877" fill="#C2BFCE" fill-opacity="0.2"/>
<circle cx="295.549" cy="121.292" r="3.2877" fill="#C2BFCE" fill-opacity="0.2"/>
<circle cx="370.696" cy="140.079" r="3.2877" fill="#C2BFCE" fill-opacity="0.2"/>
<circle cx="333.124" cy="158.866" r="3.2877" fill="#C2BFCE" fill-opacity="0.2"/>
<circle cx="295.549" cy="158.866" r="3.2877" fill="#C2BFCE" fill-opacity="0.2"/>
<circle cx="408.27" cy="83.7184" r="3.2877" fill="#C2BFCE" fill-opacity="0.2"/>
<circle cx="408.27" cy="102.505" r="3.2877" fill="#C2BFCE" fill-opacity="0.2"/>
<circle cx="389.483" cy="121.292" r="3.2877" fill="#C2BFCE" fill-opacity="0.2"/>
<circle cx="464.631" cy="140.079" r="3.2877" fill="#C2BFCE" fill-opacity="0.2"/>
<circle cx="427.057" cy="158.866" r="3.2877" fill="#C2BFCE" fill-opacity="0.2"/>
<circle cx="351.911" cy="64.9313" r="3.2877" fill="#C2BFCE" fill-opacity="0.2"/>
<circle cx="351.911" cy="83.7184" r="3.2877" fill="#C2BFCE" fill-opacity="0.2"/>
<circle cx="351.911" cy="102.505" r="3.2877" fill="#C2BFCE" fill-opacity="0.2"/>
<circle cx="333.124" cy="121.292" r="3.2877" fill="#C2BFCE" fill-opacity="0.2"/>
<circle cx="408.27" cy="140.079" r="3.2877" fill="#C2BFCE" fill-opacity="0.2"/>
<circle cx="370.696" cy="158.866" r="3.2877" fill="#C2BFCE" fill-opacity="0.2"/>
<circle cx="445.844" cy="83.7184" r="3.2877" fill="#C2BFCE" fill-opacity="0.2"/>
<circle cx="370.696" cy="64.9313" r="3.2877" fill="#C2BFCE" fill-opacity="0.2"/>
<circle cx="370.696" cy="83.7184" r="3.2877" fill="#C2BFCE" fill-opacity="0.2"/>
<circle cx="370.696" cy="102.505" r="3.2877" fill="#C2BFCE" fill-opacity="0.2"/>
<circle cx="351.911" cy="121.292" r="3.2877" fill="#C2BFCE" fill-opacity="0.2"/>
<circle cx="427.057" cy="140.079" r="3.2877" fill="#C2BFCE" fill-opacity="0.2"/>
<circle cx="389.483" cy="158.866" r="3.2877" fill="#C2BFCE" fill-opacity="0.2"/>
<g filter="url(#filter0_d_5054_13447)">
<rect x="215.918" y="263.458" width="136.918" height="55.6275" rx="7.69774" fill="#8405FF"/>
<rect x="216.418" y="263.958" width="135.918" height="54.6275" rx="7.19774" stroke="#AA50FF"/>
</g>
<path fill-rule="evenodd" clip-rule="evenodd" d="M324.316 312.769C323.041 312.769 322.007 313.802 322.007 315.078V320.543C320.25 320.9 318.928 322.453 318.928 324.315V326.684C318.928 327.807 319.279 328.902 319.931 329.816L322.229 333.033C322.807 333.842 323.74 334.322 324.735 334.322H330.674C331.779 334.322 332.799 333.73 333.347 332.771L335.153 329.611C335.618 328.797 335.863 327.875 335.863 326.937V324.315C335.863 322.252 334.239 320.568 332.2 320.471C331.777 319.996 331.16 319.697 330.474 319.697C330.063 319.697 329.676 319.804 329.342 319.993C328.931 319.352 328.213 318.927 327.395 318.927C327.125 318.927 326.866 318.973 326.625 319.058V315.078C326.625 313.802 325.592 312.769 324.316 312.769Z" fill="white"/>
<path fill-rule="evenodd" clip-rule="evenodd" d="M324.316 312.769C323.041 312.769 322.007 313.802 322.007 315.078V320.543C320.25 320.9 318.928 322.453 318.928 324.315V326.684C318.928 327.807 319.279 328.902 319.931 329.816L322.229 333.033C322.807 333.842 323.74 334.322 324.735 334.322H330.674C331.779 334.322 332.799 333.73 333.347 332.771L335.153 329.611C335.618 328.797 335.863 327.875 335.863 326.937V324.315C335.863 322.252 334.239 320.568 332.2 320.471C331.777 319.996 331.16 319.697 330.474 319.697C330.063 319.697 329.676 319.804 329.342 319.993C328.931 319.352 328.213 318.927 327.395 318.927C327.125 318.927 326.866 318.973 326.625 319.058V315.078C326.625 313.802 325.592 312.769 324.316 312.769ZM326.625 321.236C326.625 321.661 326.281 322.006 325.856 322.006C325.431 322.006 325.086 321.661 325.086 321.236V315.078C325.086 314.653 324.741 314.308 324.316 314.308C323.891 314.308 323.546 314.653 323.546 315.078V325.085C323.546 325.51 323.202 325.855 322.777 325.855C322.351 325.855 322.007 325.51 322.007 325.085V322.137C321.11 322.454 320.467 323.31 320.467 324.315V326.684C320.467 327.486 320.718 328.268 321.184 328.921L323.482 332.138C323.771 332.543 324.238 332.783 324.735 332.783H330.674C331.226 332.783 331.736 332.487 332.01 332.007L333.816 328.847C334.148 328.266 334.323 327.607 334.323 326.937V324.315C334.323 323.31 333.681 322.454 332.784 322.137V322.776C332.784 323.201 332.439 323.545 332.014 323.545C331.589 323.545 331.244 323.201 331.244 322.776V322.006C331.244 321.581 330.899 321.236 330.474 321.236C330.049 321.236 329.705 321.581 329.705 322.006C329.705 322.431 329.36 322.776 328.935 322.776C328.51 322.776 328.165 322.431 328.165 322.006V321.236C328.165 320.811 327.82 320.466 327.395 320.466C326.97 320.466 326.625 320.811 326.625 321.236Z" fill="#12131A"/>
<path d="M279.507 295.035V286.98H282.192C282.751 286.98 283.251 287.054 283.695 287.202C284.146 287.35 284.504 287.6 284.766 287.953C285.029 288.298 285.16 288.77 285.16 289.37C285.16 289.944 285.029 290.417 284.766 290.786C284.504 291.155 284.146 291.431 283.695 291.611C283.251 291.792 282.751 291.882 282.192 291.882H280.936V295.035H279.507ZM280.936 290.749H282.044C282.603 290.749 283.026 290.634 283.313 290.404C283.609 290.174 283.756 289.829 283.756 289.37C283.756 288.91 283.609 288.59 283.313 288.409C283.026 288.22 282.603 288.126 282.044 288.126H280.936V290.749ZM281.934 291.5L282.968 290.651L285.481 295.035H283.867L281.934 291.5ZM288.74 295.183C288.034 295.183 287.52 294.969 287.2 294.543C286.88 294.116 286.72 293.512 286.72 292.732V288.988H288.136V292.547C288.136 293.032 288.218 293.389 288.383 293.619C288.555 293.849 288.851 293.964 289.269 293.964C289.548 293.964 289.803 293.898 290.033 293.767C290.271 293.627 290.521 293.393 290.784 293.065V288.988H292.201V295.035H291.043L290.932 294.074H290.883C290.595 294.403 290.279 294.67 289.934 294.875C289.59 295.08 289.191 295.183 288.74 295.183ZM294.253 295.035V288.988H295.423L295.534 289.899H295.583C295.87 289.604 296.186 289.353 296.531 289.148C296.884 288.943 297.295 288.84 297.763 288.84C298.461 288.84 298.974 289.053 299.302 289.48C299.631 289.907 299.795 290.511 299.795 291.291V295.035H298.366V291.476C298.366 290.991 298.28 290.634 298.108 290.404C297.935 290.174 297.644 290.059 297.233 290.059C296.938 290.059 296.675 290.129 296.445 290.269C296.215 290.408 295.961 290.622 295.681 290.909V295.035H294.253Z" fill="white"/>
</g>
<path d="M257.256 301.087H256.166L257.256 293.454H253.44C252.48 293.454 253.08 292.636 253.102 292.603C254.508 290.117 256.624 286.409 259.448 281.458H260.539L259.448 289.092H263.276C263.712 289.092 263.952 289.299 263.712 289.811C259.405 297.325 257.256 301.087 257.256 301.087Z" fill="white"/>
<g filter="url(#filter1_d_5054_13447)">
<rect x="155.475" y="121.791" width="257.448" height="124.134" rx="4" fill="white"/>
<rect x="155.808" y="122.125" width="256.78" height="123.466" rx="3.66611" stroke="#E5E4F7" stroke-width="0.667781"/>
</g>
<circle cx="173.437" cy="148.259" r="3.88262" fill="#EBEBEB"/>
<circle cx="186.879" cy="148.259" r="3.88262" fill="#EBEBEB"/>
<circle cx="200.32" cy="148.259" r="3.88262" fill="#EBEBEB"/>
<rect x="169.555" y="162.153" width="225.421" height="6.00046" rx="3.00023" fill="#EBEBEB"/>
<rect x="169.555" y="178.168" width="225.421" height="6.00046" rx="3.00023" fill="#EBEBEB"/>
<rect x="169.555" y="194.182" width="225.421" height="6.00046" rx="3.00023" fill="#EBEBEB"/>
<rect x="169.555" y="210.183" width="225.421" height="6.00046" rx="3.00023" fill="#EBEBEB"/>
<rect x="288.969" y="210.183" width="106.007" height="6.00046" rx="3.00023" fill="#CD88FF"/>
<rect x="381.355" y="177.858" width="13.6209" height="6.00046" rx="3.00023" fill="#FACA84"/>
<rect x="315.078" y="162.153" width="79.8986" height="6.00046" rx="3.00023" fill="#EF9191"/>
<rect x="224.441" y="194.175" width="170.534" height="6.00046" rx="3.00023" fill="#CD88FF"/>
<rect x="333.473" y="194.175" width="61.5043" height="6.00046" rx="3.00023" fill="#9662FF"/>
<rect x="309.697" y="88.665" width="121.784" height="49.8147" rx="6.67781" fill="black"/>
<path d="M334.455 104.566C328.935 104.566 324.455 109.046 324.455 114.566C324.455 120.086 328.935 124.566 334.455 124.566C339.975 124.566 344.455 120.086 344.455 114.566C344.455 109.046 339.975 104.566 334.455 104.566ZM334.455 122.566C330.045 122.566 326.455 118.976 326.455 114.566C326.455 110.156 330.045 106.566 334.455 106.566C338.865 106.566 342.455 110.156 342.455 114.566C342.455 118.976 338.865 122.566 334.455 122.566ZM339.045 110.146L332.455 116.736L329.865 114.156L328.455 115.566L332.455 119.566L340.455 111.566L339.045 110.146Z" fill="#7EC050"/>
<path d="M358.718 117.714C358.151 117.714 357.609 117.612 357.092 117.406C356.575 117.201 356.115 116.91 355.712 116.532L356.55 115.559C356.854 115.83 357.199 116.051 357.584 116.224C357.97 116.388 358.377 116.47 358.804 116.47C359.272 116.47 359.629 116.38 359.875 116.199C360.122 116.01 360.245 115.776 360.245 115.497C360.245 115.259 360.187 115.07 360.072 114.931C359.957 114.783 359.797 114.66 359.592 114.561C359.395 114.463 359.161 114.36 358.89 114.253L357.794 113.773C357.515 113.658 357.24 113.51 356.969 113.33C356.706 113.149 356.488 112.919 356.316 112.64C356.152 112.361 356.07 112.024 356.07 111.63C356.07 111.203 356.189 110.821 356.427 110.484C356.665 110.14 356.993 109.869 357.412 109.672C357.839 109.466 358.323 109.364 358.865 109.364C359.358 109.364 359.826 109.458 360.269 109.647C360.721 109.828 361.115 110.074 361.452 110.386L360.713 111.297C360.442 111.076 360.155 110.907 359.851 110.792C359.555 110.669 359.202 110.608 358.791 110.608C358.414 110.608 358.106 110.69 357.868 110.854C357.63 111.018 357.511 111.252 357.511 111.556C357.511 111.761 357.576 111.93 357.708 112.061C357.839 112.192 358.007 112.307 358.213 112.406C358.426 112.504 358.652 112.599 358.89 112.689L359.949 113.145C360.294 113.276 360.598 113.436 360.861 113.625C361.123 113.814 361.329 114.048 361.476 114.327C361.624 114.598 361.698 114.931 361.698 115.325C361.698 115.76 361.579 116.158 361.341 116.52C361.103 116.881 360.762 117.172 360.319 117.394C359.875 117.607 359.342 117.714 358.718 117.714ZM365.265 117.714C364.559 117.714 364.046 117.501 363.726 117.074C363.405 116.647 363.245 116.043 363.245 115.263V111.519H364.662V115.078C364.662 115.563 364.744 115.92 364.908 116.15C365.08 116.38 365.376 116.495 365.795 116.495C366.074 116.495 366.328 116.429 366.558 116.298C366.796 116.158 367.047 115.924 367.31 115.596V111.519H368.726V117.566H367.568L367.457 116.606H367.408C367.121 116.934 366.805 117.201 366.46 117.406C366.115 117.612 365.717 117.714 365.265 117.714ZM374.005 117.714C373.373 117.714 372.802 117.591 372.293 117.345C371.792 117.09 371.394 116.729 371.098 116.261C370.811 115.785 370.667 115.214 370.667 114.549C370.667 113.876 370.823 113.305 371.135 112.837C371.455 112.361 371.878 111.999 372.404 111.753C372.929 111.499 373.496 111.371 374.103 111.371C374.596 111.371 375.031 111.453 375.409 111.618C375.787 111.774 376.099 111.975 376.345 112.221L375.668 113.108C375.43 112.919 375.187 112.775 374.941 112.677C374.703 112.578 374.448 112.529 374.177 112.529C373.775 112.529 373.418 112.615 373.106 112.788C372.802 112.952 372.564 113.186 372.391 113.49C372.219 113.793 372.133 114.147 372.133 114.549C372.133 114.951 372.215 115.304 372.379 115.608C372.552 115.912 372.786 116.146 373.081 116.31C373.385 116.474 373.738 116.556 374.14 116.556C374.485 116.556 374.801 116.491 375.089 116.359C375.376 116.228 375.635 116.072 375.865 115.891L376.456 116.803C376.111 117.098 375.725 117.324 375.298 117.48C374.871 117.636 374.44 117.714 374.005 117.714ZM381.218 117.714C380.602 117.714 380.043 117.591 379.542 117.345C379.042 117.09 378.643 116.729 378.348 116.261C378.052 115.785 377.904 115.21 377.904 114.537C377.904 113.88 378.052 113.317 378.348 112.849C378.643 112.373 379.029 112.008 379.506 111.753C379.982 111.499 380.491 111.371 381.033 111.371C381.632 111.371 382.137 111.494 382.548 111.741C382.966 111.987 383.283 112.328 383.496 112.763C383.718 113.19 383.829 113.683 383.829 114.241C383.829 114.381 383.82 114.516 383.804 114.647C383.796 114.771 383.783 114.873 383.767 114.955H378.927V113.945H382.856L382.585 114.266C382.585 113.666 382.449 113.219 382.178 112.923C381.915 112.619 381.546 112.467 381.07 112.467C380.733 112.467 380.429 112.545 380.158 112.701C379.896 112.857 379.686 113.091 379.53 113.403C379.374 113.707 379.296 114.085 379.296 114.537C379.296 115.005 379.382 115.391 379.555 115.694C379.735 115.998 379.982 116.228 380.294 116.384C380.614 116.54 380.983 116.618 381.402 116.618C381.722 116.618 382.018 116.573 382.289 116.483C382.56 116.392 382.831 116.269 383.102 116.113L383.582 117C383.262 117.205 382.901 117.378 382.498 117.517C382.096 117.649 381.669 117.714 381.218 117.714ZM388.27 117.714C387.703 117.714 387.162 117.624 386.644 117.443C386.127 117.254 385.679 117.033 385.302 116.778L385.918 115.879C386.279 116.117 386.669 116.306 387.088 116.446C387.506 116.577 387.962 116.643 388.455 116.643C388.873 116.643 389.181 116.573 389.378 116.433C389.584 116.286 389.686 116.113 389.686 115.916C389.686 115.817 389.662 115.727 389.612 115.645C389.571 115.563 389.493 115.489 389.378 115.423C389.264 115.349 389.095 115.28 388.873 115.214C388.652 115.148 388.364 115.078 388.011 115.005C387.207 114.832 386.615 114.598 386.238 114.303C385.86 114.007 385.671 113.633 385.671 113.182C385.671 112.648 385.901 112.213 386.361 111.876C386.829 111.54 387.486 111.371 388.332 111.371C388.832 111.371 389.3 111.453 389.736 111.618C390.179 111.782 390.553 111.967 390.856 112.172L390.204 113.046C389.916 112.849 389.6 112.701 389.255 112.603C388.91 112.496 388.561 112.443 388.208 112.443C387.937 112.443 387.72 112.472 387.556 112.529C387.4 112.586 387.281 112.669 387.198 112.775C387.125 112.874 387.088 112.985 387.088 113.108C387.088 113.321 387.211 113.481 387.457 113.588C387.703 113.695 388.106 113.81 388.664 113.933C389.313 114.073 389.814 114.233 390.167 114.413C390.52 114.586 390.762 114.787 390.893 115.017C391.033 115.239 391.103 115.514 391.103 115.842C391.103 116.187 390.992 116.503 390.77 116.79C390.557 117.07 390.241 117.295 389.822 117.468C389.403 117.632 388.886 117.714 388.27 117.714ZM395.655 117.714C395.088 117.714 394.547 117.624 394.029 117.443C393.512 117.254 393.064 117.033 392.687 116.778L393.303 115.879C393.664 116.117 394.054 116.306 394.473 116.446C394.891 116.577 395.347 116.643 395.84 116.643C396.259 116.643 396.566 116.573 396.763 116.433C396.969 116.286 397.071 116.113 397.071 115.916C397.071 115.817 397.047 115.727 396.997 115.645C396.956 115.563 396.878 115.489 396.763 115.423C396.649 115.349 396.48 115.28 396.259 115.214C396.037 115.148 395.749 115.078 395.396 115.005C394.592 114.832 394.001 114.598 393.623 114.303C393.245 114.007 393.056 113.633 393.056 113.182C393.056 112.648 393.286 112.213 393.746 111.876C394.214 111.54 394.871 111.371 395.717 111.371C396.217 111.371 396.685 111.453 397.121 111.618C397.564 111.782 397.938 111.967 398.241 112.172L397.589 113.046C397.301 112.849 396.985 112.701 396.64 112.603C396.295 112.496 395.946 112.443 395.593 112.443C395.322 112.443 395.105 112.472 394.941 112.529C394.785 112.586 394.666 112.669 394.583 112.775C394.51 112.874 394.473 112.985 394.473 113.108C394.473 113.321 394.596 113.481 394.842 113.588C395.088 113.695 395.491 113.81 396.049 113.933C396.698 114.073 397.199 114.233 397.552 114.413C397.905 114.586 398.147 114.787 398.278 115.017C398.418 115.239 398.488 115.514 398.488 115.842C398.488 116.187 398.377 116.503 398.155 116.79C397.942 117.07 397.626 117.295 397.207 117.468C396.788 117.632 396.271 117.714 395.655 117.714ZM402.535 114.561L402.338 110.718L402.301 109.314H403.705L403.668 110.718L403.471 114.561H402.535ZM403.003 117.714C402.707 117.714 402.453 117.612 402.239 117.406C402.034 117.201 401.932 116.934 401.932 116.606C401.932 116.277 402.034 116.015 402.239 115.817C402.453 115.62 402.707 115.522 403.003 115.522C403.307 115.522 403.561 115.62 403.767 115.817C403.972 116.015 404.075 116.277 404.075 116.606C404.075 116.934 403.972 117.201 403.767 117.406C403.561 117.612 403.307 117.714 403.003 117.714Z" fill="white"/>
<path opacity="0.3" d="M90.2756 93.78V85.3433H91.4456L91.5565 86.033H91.5934C91.8562 85.7867 92.1559 85.5855 92.4925 85.4295C92.8374 85.2735 93.1822 85.1955 93.5271 85.1955C94.0608 85.1955 94.5083 85.3228 94.8696 85.5773C95.2309 85.8318 95.51 86.189 95.7071 86.6488C95.9042 87.1086 96.0027 87.6505 96.0027 88.2746C96.0027 88.9643 95.8754 89.5514 95.6209 90.0358C95.3663 90.5203 95.0338 90.8939 94.6233 91.1566C94.2209 91.4112 93.7857 91.5384 93.3177 91.5384C93.0468 91.5384 92.7635 91.4768 92.4679 91.3537C92.1805 91.2305 91.9136 91.054 91.6673 90.8241H91.6304L91.7043 91.8833V93.78H90.2756ZM93.0221 90.3684C93.3095 90.3684 93.5681 90.2904 93.7981 90.1344C94.028 89.9783 94.2086 89.7484 94.34 89.4446C94.4713 89.1326 94.537 88.7467 94.537 88.2869C94.537 87.8846 94.4878 87.5397 94.3892 87.2523C94.2907 86.9649 94.1388 86.7473 93.9335 86.5996C93.7365 86.4435 93.4696 86.3655 93.133 86.3655C92.9031 86.3655 92.6691 86.423 92.4309 86.538C92.1928 86.6529 91.9506 86.8377 91.7043 87.0922V89.8141C91.926 90.0112 92.1559 90.1549 92.394 90.2452C92.6321 90.3273 92.8415 90.3684 93.0221 90.3684ZM98.2518 91.3906V85.3433H99.4218L99.545 86.7104H99.5819C99.8857 86.2177 100.259 85.8441 100.703 85.5896C101.154 85.3269 101.639 85.1955 102.156 85.1955C102.402 85.1955 102.616 85.216 102.797 85.2571C102.977 85.2981 103.154 85.3597 103.326 85.4418L103.031 86.6365C102.833 86.5708 102.657 86.5257 102.501 86.501C102.353 86.4682 102.164 86.4518 101.934 86.4518C101.524 86.4518 101.121 86.5708 100.727 86.8089C100.341 87.047 99.9925 87.4617 99.6805 88.0529V91.3906H98.2518ZM107.731 91.5384C107.197 91.5384 106.7 91.4153 106.24 91.1689C105.78 90.9144 105.407 90.5531 105.12 90.0851C104.832 89.6089 104.688 89.0382 104.688 88.3731C104.688 87.6998 104.832 87.1292 105.12 86.6611C105.407 86.1849 105.78 85.8236 106.24 85.5773C106.7 85.3228 107.197 85.1955 107.731 85.1955C108.264 85.1955 108.761 85.3228 109.221 85.5773C109.681 85.8236 110.054 86.1849 110.342 86.6611C110.629 87.1292 110.773 87.6998 110.773 88.3731C110.773 89.0382 110.629 89.6089 110.342 90.0851C110.054 90.5531 109.681 90.9144 109.221 91.1689C108.761 91.4153 108.264 91.5384 107.731 91.5384ZM107.731 90.3807C108.059 90.3807 108.342 90.2986 108.58 90.1344C108.819 89.9701 108.999 89.7361 109.122 89.4323C109.245 89.1285 109.307 88.7754 109.307 88.3731C109.307 87.9708 109.245 87.6177 109.122 87.3139C108.999 87.0101 108.819 86.7761 108.58 86.6119C108.342 86.4394 108.059 86.3532 107.731 86.3532C107.402 86.3532 107.119 86.4394 106.881 86.6119C106.651 86.7761 106.47 87.0101 106.339 87.3139C106.216 87.6177 106.154 87.9708 106.154 88.3731C106.154 88.7754 106.216 89.1285 106.339 89.4323C106.47 89.7361 106.651 89.9701 106.881 90.1344C107.119 90.2986 107.402 90.3807 107.731 90.3807ZM115.658 91.5384C115.025 91.5384 114.455 91.4153 113.946 91.1689C113.445 90.9144 113.046 90.5531 112.751 90.0851C112.463 89.6089 112.32 89.0382 112.32 88.3731C112.32 87.6998 112.476 87.1292 112.788 86.6611C113.108 86.1849 113.531 85.8236 114.056 85.5773C114.582 85.3228 115.148 85.1955 115.756 85.1955C116.249 85.1955 116.684 85.2776 117.062 85.4418C117.439 85.5978 117.751 85.799 117.998 86.0453L117.32 86.9321C117.082 86.7432 116.84 86.5996 116.594 86.501C116.355 86.4025 116.101 86.3532 115.83 86.3532C115.428 86.3532 115.07 86.4394 114.758 86.6119C114.455 86.7761 114.216 87.0101 114.044 87.3139C113.872 87.6177 113.785 87.9708 113.785 88.3731C113.785 88.7754 113.868 89.1285 114.032 89.4323C114.204 89.7361 114.438 89.9701 114.734 90.1344C115.038 90.2986 115.391 90.3807 115.793 90.3807C116.138 90.3807 116.454 90.315 116.741 90.1836C117.029 90.0522 117.287 89.8962 117.517 89.7156L118.108 90.627C117.764 90.9226 117.378 91.1484 116.951 91.3044C116.524 91.4604 116.093 91.5384 115.658 91.5384ZM122.87 91.5384C122.254 91.5384 121.696 91.4153 121.195 91.1689C120.694 90.9144 120.296 90.5531 120 90.0851C119.705 89.6089 119.557 89.0341 119.557 88.3608C119.557 87.7039 119.705 87.1415 120 86.6735C120.296 86.1972 120.682 85.8318 121.158 85.5773C121.634 85.3228 122.143 85.1955 122.685 85.1955C123.285 85.1955 123.79 85.3186 124.2 85.565C124.619 85.8113 124.935 86.1521 125.149 86.5872C125.37 87.0142 125.481 87.5069 125.481 88.0652C125.481 88.2048 125.473 88.3403 125.457 88.4716C125.448 88.5948 125.436 88.6974 125.42 88.7796H120.579V87.7696H124.508L124.237 88.0898C124.237 87.4904 124.102 87.0429 123.831 86.7473C123.568 86.4435 123.199 86.2916 122.722 86.2916C122.386 86.2916 122.082 86.3696 121.811 86.5257C121.548 86.6817 121.339 86.9157 121.183 87.2277C121.027 87.5315 120.949 87.9092 120.949 88.3608C120.949 88.8288 121.035 89.2147 121.207 89.5185C121.388 89.8223 121.634 90.0522 121.946 90.2083C122.267 90.3643 122.636 90.4423 123.055 90.4423C123.375 90.4423 123.671 90.3971 123.942 90.3068C124.213 90.2165 124.484 90.0933 124.755 89.9373L125.235 90.8241C124.915 91.0293 124.553 91.2018 124.151 91.3414C123.749 91.4727 123.322 91.5384 122.87 91.5384ZM129.923 91.5384C129.356 91.5384 128.814 91.4481 128.297 91.2675C127.78 91.0786 127.332 90.8569 126.954 90.6024L127.57 89.7033C127.931 89.9414 128.321 90.1302 128.74 90.2698C129.159 90.4012 129.615 90.4669 130.107 90.4669C130.526 90.4669 130.834 90.3971 131.031 90.2575C131.236 90.1097 131.339 89.9373 131.339 89.7402C131.339 89.6417 131.314 89.5514 131.265 89.4693C131.224 89.3872 131.146 89.3133 131.031 89.2476C130.916 89.1737 130.748 89.1039 130.526 89.0382C130.304 88.9725 130.017 88.9027 129.664 88.8288C128.859 88.6564 128.268 88.4224 127.89 88.1268C127.513 87.8312 127.324 87.4576 127.324 87.006C127.324 86.4723 127.554 86.0371 128.014 85.7005C128.482 85.3638 129.138 85.1955 129.984 85.1955C130.485 85.1955 130.953 85.2776 131.388 85.4418C131.832 85.606 132.205 85.7908 132.509 85.996L131.856 86.8705C131.569 86.6735 131.253 86.5257 130.908 86.4271C130.563 86.3204 130.214 86.267 129.861 86.267C129.59 86.267 129.372 86.2957 129.208 86.3532C129.052 86.4107 128.933 86.4928 128.851 86.5996C128.777 86.6981 128.74 86.8089 128.74 86.9321C128.74 87.1456 128.863 87.3057 129.11 87.4124C129.356 87.5192 129.758 87.6341 130.317 87.7573C130.965 87.8969 131.466 88.057 131.819 88.2376C132.172 88.4101 132.415 88.6112 132.546 88.8411C132.686 89.0628 132.755 89.3379 132.755 89.6663C132.755 90.0112 132.645 90.3273 132.423 90.6147C132.209 90.8939 131.893 91.1197 131.474 91.2921C131.056 91.4563 130.538 91.5384 129.923 91.5384ZM137.308 91.5384C136.741 91.5384 136.199 91.4481 135.682 91.2675C135.165 91.0786 134.717 90.8569 134.339 90.6024L134.955 89.7033C135.316 89.9414 135.706 90.1302 136.125 90.2698C136.544 90.4012 137 90.4669 137.492 90.4669C137.911 90.4669 138.219 90.3971 138.416 90.2575C138.621 90.1097 138.724 89.9373 138.724 89.7402C138.724 89.6417 138.699 89.5514 138.65 89.4693C138.609 89.3872 138.531 89.3133 138.416 89.2476C138.301 89.1737 138.133 89.1039 137.911 89.0382C137.689 88.9725 137.402 88.9027 137.049 88.8288C136.244 88.6564 135.653 88.4224 135.275 88.1268C134.898 87.8312 134.709 87.4576 134.709 87.006C134.709 86.4723 134.939 86.0371 135.399 85.7005C135.867 85.3638 136.523 85.1955 137.369 85.1955C137.87 85.1955 138.338 85.2776 138.773 85.4418C139.217 85.606 139.59 85.7908 139.894 85.996L139.241 86.8705C138.954 86.6735 138.638 86.5257 138.293 86.4271C137.948 86.3204 137.599 86.267 137.246 86.267C136.975 86.267 136.757 86.2957 136.593 86.3532C136.437 86.4107 136.318 86.4928 136.236 86.5996C136.162 86.6981 136.125 86.8089 136.125 86.9321C136.125 87.1456 136.248 87.3057 136.495 87.4124C136.741 87.5192 137.143 87.6341 137.702 87.7573C138.35 87.8969 138.851 88.057 139.204 88.2376C139.557 88.4101 139.8 88.6112 139.931 88.8411C140.071 89.0628 140.14 89.3379 140.14 89.6663C140.14 90.0112 140.03 90.3273 139.808 90.6147C139.594 90.8939 139.278 91.1197 138.859 91.2921C138.441 91.4563 137.923 91.5384 137.308 91.5384ZM151.24 91.5384C150.846 91.5384 150.497 91.4645 150.193 91.3167C149.889 91.1607 149.651 90.9513 149.479 90.6886C149.306 90.4258 149.22 90.1179 149.22 89.7649C149.22 89.0916 149.54 88.5784 150.181 88.2253C150.83 87.864 151.901 87.63 153.395 87.5233C153.379 87.3016 153.317 87.1004 153.211 86.9198C153.112 86.7391 152.96 86.5996 152.755 86.501C152.55 86.3943 152.283 86.3409 151.954 86.3409C151.725 86.3409 151.499 86.3696 151.277 86.4271C151.055 86.4846 150.834 86.5626 150.612 86.6611C150.399 86.7597 150.185 86.8664 149.972 86.9814L149.454 86.033C149.701 85.8852 149.972 85.7497 150.267 85.6266C150.563 85.4952 150.875 85.3925 151.203 85.3186C151.532 85.2365 151.868 85.1955 152.213 85.1955C152.78 85.1955 153.252 85.2981 153.63 85.5034C154.015 85.7005 154.307 85.996 154.504 86.3902C154.709 86.7761 154.812 87.2482 154.812 87.8066V91.3906H153.654L153.543 90.6393H153.506C153.186 90.8857 152.829 91.0991 152.435 91.2798C152.049 91.4522 151.651 91.5384 151.24 91.5384ZM151.671 90.4299C151.975 90.4299 152.266 90.3643 152.546 90.2329C152.833 90.0933 153.116 89.9127 153.395 89.691V88.4101C152.673 88.4593 152.106 88.5414 151.696 88.6564C151.285 88.7631 150.998 88.9027 150.834 89.0751C150.669 89.2476 150.587 89.4405 150.587 89.654C150.587 89.8347 150.637 89.9825 150.735 90.0974C150.834 90.2124 150.961 90.2986 151.117 90.356C151.281 90.4053 151.466 90.4299 151.671 90.4299ZM158.613 91.5384C157.907 91.5384 157.394 91.3249 157.073 90.898C156.753 90.471 156.593 89.8675 156.593 89.0875V85.3433H158.009V88.9027C158.009 89.3872 158.091 89.7443 158.256 89.9742C158.428 90.2041 158.724 90.3191 159.142 90.3191C159.422 90.3191 159.676 90.2534 159.906 90.122C160.144 89.9825 160.395 89.7484 160.657 89.42V85.3433H162.074V91.3906H160.916L160.805 90.4299H160.756C160.468 90.7584 160.152 91.0252 159.808 91.2305C159.463 91.4358 159.064 91.5384 158.613 91.5384ZM167.932 91.5384C167.316 91.5384 166.827 91.4317 166.466 91.2182C166.105 90.9965 165.846 90.6927 165.69 90.3068C165.534 89.9209 165.456 89.4734 165.456 88.9643V86.4641H163.842V85.4049L165.518 85.3433L165.702 83.4466H166.872V85.3433H169.631V86.4641H166.872V88.952C166.872 89.2804 166.917 89.5555 167.008 89.7772C167.098 89.9907 167.246 90.1508 167.451 90.2575C167.656 90.356 167.927 90.4053 168.264 90.4053C168.527 90.4053 168.765 90.3848 168.978 90.3437C169.192 90.3027 169.397 90.2452 169.594 90.1713L169.865 91.1936C169.594 91.2839 169.303 91.3619 168.991 91.4276C168.679 91.5015 168.326 91.5384 167.932 91.5384ZM174.196 91.5384C173.662 91.5384 173.165 91.4153 172.705 91.1689C172.246 90.9144 171.872 90.5531 171.585 90.0851C171.297 89.6089 171.154 89.0382 171.154 88.3731C171.154 87.6998 171.297 87.1292 171.585 86.6611C171.872 86.1849 172.246 85.8236 172.705 85.5773C173.165 85.3228 173.662 85.1955 174.196 85.1955C174.729 85.1955 175.226 85.3228 175.686 85.5773C176.146 85.8236 176.519 86.1849 176.807 86.6611C177.094 87.1292 177.238 87.6998 177.238 88.3731C177.238 89.0382 177.094 89.6089 176.807 90.0851C176.519 90.5531 176.146 90.9144 175.686 91.1689C175.226 91.4153 174.729 91.5384 174.196 91.5384ZM174.196 90.3807C174.524 90.3807 174.807 90.2986 175.046 90.1344C175.284 89.9701 175.464 89.7361 175.587 89.4323C175.711 89.1285 175.772 88.7754 175.772 88.3731C175.772 87.9708 175.711 87.6177 175.587 87.3139C175.464 87.0101 175.284 86.7761 175.046 86.6119C174.807 86.4394 174.524 86.3532 174.196 86.3532C173.867 86.3532 173.584 86.4394 173.346 86.6119C173.116 86.7761 172.935 87.0101 172.804 87.3139C172.681 87.6177 172.619 87.9708 172.619 88.3731C172.619 88.7754 172.681 89.1285 172.804 89.4323C172.935 89.7361 173.116 89.9701 173.346 90.1344C173.584 90.2986 173.867 90.3807 174.196 90.3807ZM178.452 91.3906V85.3433H179.549L179.659 86.1069H179.696C179.828 85.8441 179.996 85.6266 180.201 85.4541C180.407 85.2817 180.686 85.1955 181.039 85.1955C181.318 85.1955 181.552 85.2817 181.741 85.4541C181.93 85.6183 182.061 85.8688 182.135 86.2054C182.275 85.9098 182.451 85.6676 182.665 85.4788C182.878 85.2899 183.161 85.1955 183.514 85.1955C183.941 85.1955 184.27 85.3638 184.5 85.7005C184.738 86.0289 184.857 86.4969 184.857 87.1045V91.3906H183.49V87.2031C183.49 86.6693 183.33 86.4025 183.009 86.4025C182.845 86.4025 182.706 86.4641 182.591 86.5872C182.484 86.7104 182.369 86.9034 182.246 87.1661V91.3906H181.063V87.2031C181.063 86.9403 181.027 86.7432 180.953 86.6119C180.879 86.4723 180.756 86.4025 180.583 86.4025C180.427 86.4025 180.292 86.4641 180.177 86.5872C180.062 86.7104 179.947 86.9034 179.832 87.1661V91.3906H178.452ZM188.165 91.5384C187.771 91.5384 187.422 91.4645 187.118 91.3167C186.815 91.1607 186.576 90.9513 186.404 90.6886C186.232 90.4258 186.145 90.1179 186.145 89.7649C186.145 89.0916 186.466 88.5784 187.106 88.2253C187.755 87.864 188.826 87.63 190.321 87.5233C190.304 87.3016 190.243 87.1004 190.136 86.9198C190.037 86.7391 189.885 86.5996 189.68 86.501C189.475 86.3943 189.208 86.3409 188.88 86.3409C188.65 86.3409 188.424 86.3696 188.202 86.4271C187.98 86.4846 187.759 86.5626 187.537 86.6611C187.324 86.7597 187.11 86.8664 186.897 86.9814L186.379 86.033C186.626 85.8852 186.897 85.7497 187.192 85.6266C187.488 85.4952 187.8 85.3925 188.128 85.3186C188.457 85.2365 188.793 85.1955 189.138 85.1955C189.705 85.1955 190.177 85.2981 190.555 85.5034C190.941 85.7005 191.232 85.996 191.429 86.3902C191.634 86.7761 191.737 87.2482 191.737 87.8066V91.3906H190.579L190.468 90.6393H190.431C190.111 90.8857 189.754 91.0991 189.36 91.2798C188.974 91.4522 188.576 91.5384 188.165 91.5384ZM188.596 90.4299C188.9 90.4299 189.192 90.3643 189.471 90.2329C189.758 90.0933 190.041 89.9127 190.321 89.691V88.4101C189.598 88.4593 189.031 88.5414 188.621 88.6564C188.21 88.7631 187.923 88.9027 187.759 89.0751C187.595 89.2476 187.512 89.4405 187.512 89.654C187.512 89.8347 187.562 89.9825 187.66 90.0974C187.759 90.2124 187.886 90.2986 188.042 90.356C188.206 90.4053 188.391 90.4299 188.596 90.4299ZM197.472 91.5384C196.856 91.5384 196.367 91.4317 196.006 91.2182C195.645 90.9965 195.386 90.6927 195.23 90.3068C195.074 89.9209 194.996 89.4734 194.996 88.9643V86.4641H193.383V85.4049L195.058 85.3433L195.242 83.4466H196.412V85.3433H199.171V86.4641H196.412V88.952C196.412 89.2804 196.458 89.5555 196.548 89.7772C196.638 89.9907 196.786 90.1508 196.991 90.2575C197.197 90.356 197.467 90.4053 197.804 90.4053C198.067 90.4053 198.305 90.3848 198.518 90.3437C198.732 90.3027 198.937 90.2452 199.134 90.1713L199.405 91.1936C199.134 91.2839 198.843 91.3619 198.531 91.4276C198.219 91.5015 197.866 91.5384 197.472 91.5384ZM203.699 91.3906V86.4641H201.075V85.3433H205.115V91.3906H203.699ZM204.302 84.2348C204.015 84.2348 203.773 84.1486 203.576 83.9762C203.387 83.8037 203.292 83.5738 203.292 83.2864C203.292 82.9991 203.387 82.7692 203.576 82.5967C203.773 82.4161 204.015 82.3258 204.302 82.3258C204.598 82.3258 204.84 82.4161 205.029 82.5967C205.218 82.7692 205.312 82.9991 205.312 83.2864C205.312 83.5738 205.218 83.8037 205.029 83.9762C204.84 84.1486 204.598 84.2348 204.302 84.2348ZM211.121 91.5384C210.587 91.5384 210.09 91.4153 209.631 91.1689C209.171 90.9144 208.797 90.5531 208.51 90.0851C208.222 89.6089 208.079 89.0382 208.079 88.3731C208.079 87.6998 208.222 87.1292 208.51 86.6611C208.797 86.1849 209.171 85.8236 209.631 85.5773C210.09 85.3228 210.587 85.1955 211.121 85.1955C211.655 85.1955 212.151 85.3228 212.611 85.5773C213.071 85.8236 213.445 86.1849 213.732 86.6611C214.019 87.1292 214.163 87.6998 214.163 88.3731C214.163 89.0382 214.019 89.6089 213.732 90.0851C213.445 90.5531 213.071 90.9144 212.611 91.1689C212.151 91.4153 211.655 91.5384 211.121 91.5384ZM211.121 90.3807C211.449 90.3807 211.733 90.2986 211.971 90.1344C212.209 89.9701 212.389 89.7361 212.513 89.4323C212.636 89.1285 212.697 88.7754 212.697 88.3731C212.697 87.9708 212.636 87.6177 212.513 87.3139C212.389 87.0101 212.209 86.7761 211.971 86.6119C211.733 86.4394 211.449 86.3532 211.121 86.3532C210.792 86.3532 210.509 86.4394 210.271 86.6119C210.041 86.7761 209.86 87.0101 209.729 87.3139C209.606 87.6177 209.544 87.9708 209.544 88.3731C209.544 88.7754 209.606 89.1285 209.729 89.4323C209.86 89.7361 210.041 89.9701 210.271 90.1344C210.509 90.2986 210.792 90.3807 211.121 90.3807ZM215.821 91.3906V85.3433H216.991L217.102 86.2547H217.151C217.438 85.9591 217.755 85.7087 218.099 85.5034C218.452 85.2981 218.863 85.1955 219.331 85.1955C220.029 85.1955 220.542 85.409 220.871 85.8359C221.199 86.2629 221.363 86.8664 221.363 87.6464V91.3906H219.935V87.8312C219.935 87.3467 219.848 86.9896 219.676 86.7597C219.503 86.5298 219.212 86.4148 218.801 86.4148C218.506 86.4148 218.243 86.4846 218.013 86.6242C217.783 86.7638 217.529 86.9773 217.25 87.2646V91.3906H215.821ZM225.891 91.5384C225.546 91.5384 225.255 91.4194 225.016 91.1812C224.786 90.9431 224.672 90.6475 224.672 90.2945C224.672 89.9332 224.786 89.6376 225.016 89.4077C225.255 89.1696 225.546 89.0505 225.891 89.0505C226.244 89.0505 226.535 89.1696 226.765 89.4077C226.995 89.6376 227.11 89.9332 227.11 90.2945C227.11 90.6475 226.995 90.9431 226.765 91.1812C226.535 91.4194 226.244 91.5384 225.891 91.5384ZM233.276 91.5384C232.931 91.5384 232.64 91.4194 232.401 91.1812C232.172 90.9431 232.057 90.6475 232.057 90.2945C232.057 89.9332 232.172 89.6376 232.401 89.4077C232.64 89.1696 232.931 89.0505 233.276 89.0505C233.629 89.0505 233.92 89.1696 234.15 89.4077C234.38 89.6376 234.495 89.9332 234.495 90.2945C234.495 90.6475 234.38 90.9431 234.15 91.1812C233.92 91.4194 233.629 91.5384 233.276 91.5384ZM240.661 91.5384C240.316 91.5384 240.025 91.4194 239.786 91.1812C239.557 90.9431 239.442 90.6475 239.442 90.2945C239.442 89.9332 239.557 89.6376 239.786 89.4077C240.025 89.1696 240.316 89.0505 240.661 89.0505C241.014 89.0505 241.305 89.1696 241.535 89.4077C241.765 89.6376 241.88 89.9332 241.88 90.2945C241.88 90.6475 241.765 90.9431 241.535 91.1812C241.305 91.4194 241.014 91.5384 240.661 91.5384Z" fill="black"/>
<path d="M67.923 278.334C67.1512 278.334 66.5271 278.055 66.0509 277.497C65.5747 276.938 65.3365 276.163 65.3365 275.169C65.3365 274.512 65.4638 273.946 65.7184 273.469C65.9729 272.993 66.3054 272.628 66.716 272.373C67.1265 272.119 67.5576 271.991 68.0092 271.991C68.3541 271.991 68.6579 272.053 68.9206 272.176C69.1916 272.299 69.442 272.476 69.6719 272.706H69.7089L69.635 271.683V269.491H71.0637V278.187H69.8936L69.7828 277.484H69.7458C69.5159 277.714 69.2408 277.916 68.9206 278.088C68.6004 278.252 68.2678 278.334 67.923 278.334ZM68.2678 277.164C68.5142 277.164 68.7523 277.107 68.9822 276.992C69.2121 276.869 69.4297 276.684 69.635 276.438V273.716C69.4215 273.51 69.208 273.367 68.9945 273.285C68.781 273.202 68.5634 273.161 68.3417 273.161C68.0626 273.161 67.8039 273.239 67.5658 273.395C67.3359 273.551 67.1512 273.777 67.0116 274.073C66.872 274.368 66.8022 274.73 66.8022 275.157C66.8022 275.805 66.9295 276.302 67.184 276.647C67.4468 276.992 67.808 277.164 68.2678 277.164ZM74.9631 278.334C74.569 278.334 74.2201 278.26 73.9163 278.113C73.6124 277.957 73.3743 277.747 73.2019 277.484C73.0295 277.222 72.9433 276.914 72.9433 276.561C72.9433 275.887 73.2635 275.374 73.9039 275.021C74.5526 274.66 75.6241 274.426 77.1185 274.319C77.1021 274.097 77.0405 273.896 76.9338 273.716C76.8352 273.535 76.6833 273.395 76.4781 273.297C76.2728 273.19 76.0059 273.137 75.6775 273.137C75.4476 273.137 75.2218 273.166 75.0001 273.223C74.7784 273.28 74.5567 273.359 74.335 273.457C74.1215 273.556 73.908 273.662 73.6946 273.777L73.1773 272.829C73.4236 272.681 73.6946 272.546 73.9901 272.422C74.2857 272.291 74.5978 272.188 74.9262 272.115C75.2546 272.032 75.5913 271.991 75.9361 271.991C76.5027 271.991 76.9748 272.094 77.3525 272.299C77.7384 272.496 78.0299 272.792 78.227 273.186C78.4323 273.572 78.5349 274.044 78.5349 274.602V278.187H77.3772L77.2663 277.435H77.2294C76.9091 277.682 76.552 277.895 76.1578 278.076C75.7719 278.248 75.3737 278.334 74.9631 278.334ZM75.3942 277.226C75.698 277.226 75.9895 277.16 76.2687 277.029C76.5561 276.889 76.8393 276.709 77.1185 276.487V275.206C76.396 275.255 75.8294 275.337 75.4189 275.452C75.0083 275.559 74.7209 275.699 74.5567 275.871C74.3925 276.043 74.3104 276.236 74.3104 276.45C74.3104 276.631 74.3596 276.778 74.4582 276.893C74.5567 277.008 74.684 277.094 74.84 277.152C75.0042 277.201 75.1889 277.226 75.3942 277.226ZM84.2695 278.334C83.6537 278.334 83.1651 278.228 82.8039 278.014C82.4426 277.792 82.1839 277.489 82.0279 277.103C81.8719 276.717 81.7939 276.269 81.7939 275.76V273.26H80.1805V272.201L81.8555 272.139L82.0403 270.242H83.2103V272.139H85.9692V273.26H83.2103V275.748C83.2103 276.076 83.2555 276.351 83.3458 276.573C83.4361 276.787 83.5839 276.947 83.7892 277.053C83.9945 277.152 84.2654 277.201 84.6021 277.201C84.8648 277.201 85.1029 277.181 85.3164 277.14C85.5299 277.099 85.7352 277.041 85.9322 276.967L86.2032 277.989C85.9322 278.08 85.6407 278.158 85.3287 278.223C85.0167 278.297 84.6636 278.334 84.2695 278.334ZM89.7332 278.334C89.3391 278.334 88.9901 278.26 88.6863 278.113C88.3825 277.957 88.1444 277.747 87.9719 277.484C87.7995 277.222 87.7133 276.914 87.7133 276.561C87.7133 275.887 88.0335 275.374 88.674 275.021C89.3226 274.66 90.3942 274.426 91.8885 274.319C91.8721 274.097 91.8105 273.896 91.7038 273.716C91.6053 273.535 91.4534 273.395 91.2481 273.297C91.0428 273.19 90.776 273.137 90.4475 273.137C90.2176 273.137 89.9918 273.166 89.7701 273.223C89.5484 273.28 89.3267 273.359 89.105 273.457C88.8916 273.556 88.6781 273.662 88.4646 273.777L87.9473 272.829C88.1936 272.681 88.4646 272.546 88.7602 272.422C89.0558 272.291 89.3678 272.188 89.6962 272.115C90.0247 272.032 90.3613 271.991 90.7062 271.991C91.2727 271.991 91.7449 272.094 92.1226 272.299C92.5085 272.496 92.8 272.792 92.997 273.186C93.2023 273.572 93.3049 274.044 93.3049 274.602V278.187H92.1472L92.0363 277.435H91.9994C91.6792 277.682 91.322 277.895 90.9279 278.076C90.542 278.248 90.1437 278.334 89.7332 278.334ZM90.1643 277.226C90.4681 277.226 90.7595 277.16 91.0387 277.029C91.3261 276.889 91.6094 276.709 91.8885 276.487V275.206C91.166 275.255 90.5994 275.337 90.1889 275.452C89.7783 275.559 89.491 275.699 89.3267 275.871C89.1625 276.043 89.0804 276.236 89.0804 276.45C89.0804 276.631 89.1297 276.778 89.2282 276.893C89.3267 277.008 89.454 277.094 89.61 277.152C89.7742 277.201 89.959 277.226 90.1643 277.226ZM102.828 278.187L101.683 272.139H103.075L103.616 275.28C103.666 275.575 103.707 275.867 103.74 276.154C103.781 276.433 103.818 276.721 103.85 277.016H103.887C103.928 276.721 103.974 276.429 104.023 276.142C104.08 275.855 104.142 275.567 104.208 275.28L104.762 272.73H105.932L106.474 275.28C106.54 275.575 106.601 275.867 106.659 276.154C106.724 276.433 106.778 276.721 106.819 277.016H106.868C106.909 276.721 106.942 276.433 106.966 276.154C106.999 275.867 107.04 275.575 107.09 275.28L107.607 272.139H108.925L107.816 278.187H106.092L105.587 275.773C105.546 275.534 105.501 275.268 105.452 274.972C105.411 274.676 105.369 274.348 105.328 273.987H105.279C105.238 274.299 105.197 274.598 105.156 274.886C105.123 275.173 105.082 275.469 105.033 275.773L104.54 278.187H102.828ZM111.888 278.334C111.494 278.334 111.145 278.26 110.841 278.113C110.538 277.957 110.299 277.747 110.127 277.484C109.955 277.222 109.868 276.914 109.868 276.561C109.868 275.887 110.189 275.374 110.829 275.021C111.478 274.66 112.549 274.426 114.044 274.319C114.027 274.097 113.966 273.896 113.859 273.716C113.76 273.535 113.608 273.395 113.403 273.297C113.198 273.19 112.931 273.137 112.603 273.137C112.373 273.137 112.147 273.166 111.925 273.223C111.703 273.28 111.482 273.359 111.26 273.457C111.047 273.556 110.833 273.662 110.62 273.777L110.102 272.829C110.349 272.681 110.62 272.546 110.915 272.422C111.211 272.291 111.523 272.188 111.851 272.115C112.18 272.032 112.516 271.991 112.861 271.991C113.428 271.991 113.9 272.094 114.278 272.299C114.664 272.496 114.955 272.792 115.152 273.186C115.357 273.572 115.46 274.044 115.46 274.602V278.187H114.302L114.191 277.435H114.154C113.834 277.682 113.477 277.895 113.083 278.076C112.697 278.248 112.299 278.334 111.888 278.334ZM112.319 277.226C112.623 277.226 112.915 277.16 113.194 277.029C113.481 276.889 113.764 276.709 114.044 276.487V275.206C113.321 275.255 112.754 275.337 112.344 275.452C111.933 275.559 111.646 275.699 111.482 275.871C111.318 276.043 111.235 276.236 111.235 276.45C111.235 276.631 111.285 276.778 111.383 276.893C111.482 277.008 111.609 277.094 111.765 277.152C111.929 277.201 112.114 277.226 112.319 277.226ZM117.98 278.187V272.139H119.15L119.273 273.506H119.31C119.614 273.014 119.988 272.64 120.431 272.386C120.883 272.123 121.367 271.991 121.884 271.991C122.131 271.991 122.344 272.012 122.525 272.053C122.705 272.094 122.882 272.156 123.054 272.238L122.759 273.432C122.562 273.367 122.385 273.322 122.229 273.297C122.081 273.264 121.893 273.248 121.663 273.248C121.252 273.248 120.85 273.367 120.456 273.605C120.07 273.843 119.721 274.258 119.409 274.849V278.187H117.98ZM127.828 278.334C127.213 278.334 126.654 278.211 126.153 277.965C125.652 277.71 125.254 277.349 124.959 276.881C124.663 276.405 124.515 275.83 124.515 275.157C124.515 274.5 124.663 273.937 124.959 273.469C125.254 272.993 125.64 272.628 126.116 272.373C126.593 272.119 127.102 271.991 127.644 271.991C128.243 271.991 128.748 272.115 129.158 272.361C129.577 272.607 129.893 272.948 130.107 273.383C130.329 273.81 130.439 274.303 130.439 274.861C130.439 275.001 130.431 275.136 130.415 275.268C130.407 275.391 130.394 275.493 130.378 275.575H125.537V274.566H129.466L129.195 274.886C129.195 274.286 129.06 273.839 128.789 273.543C128.526 273.239 128.157 273.088 127.681 273.088C127.344 273.088 127.04 273.166 126.769 273.322C126.506 273.478 126.297 273.712 126.141 274.024C125.985 274.327 125.907 274.705 125.907 275.157C125.907 275.625 125.993 276.011 126.166 276.314C126.346 276.618 126.593 276.848 126.905 277.004C127.225 277.16 127.594 277.238 128.013 277.238C128.333 277.238 128.629 277.193 128.9 277.103C129.171 277.012 129.442 276.889 129.713 276.733L130.193 277.62C129.873 277.825 129.512 277.998 129.109 278.137C128.707 278.269 128.28 278.334 127.828 278.334ZM132.159 278.187V269.491H133.588V271.733L133.501 273.026H133.538C133.801 272.747 134.105 272.505 134.45 272.299C134.803 272.094 135.209 271.991 135.669 271.991C136.367 271.991 136.88 272.205 137.209 272.632C137.537 273.059 137.701 273.662 137.701 274.442V278.187H136.273V274.627C136.273 274.143 136.186 273.785 136.014 273.556C135.841 273.326 135.55 273.211 135.139 273.211C134.844 273.211 134.581 273.28 134.351 273.42C134.121 273.56 133.867 273.773 133.588 274.061V278.187H132.159ZM142.229 278.334C141.695 278.334 141.198 278.211 140.739 277.965C140.279 277.71 139.905 277.349 139.618 276.881C139.33 276.405 139.187 275.834 139.187 275.169C139.187 274.496 139.33 273.925 139.618 273.457C139.905 272.981 140.279 272.62 140.739 272.373C141.198 272.119 141.695 271.991 142.229 271.991C142.763 271.991 143.259 272.119 143.719 272.373C144.179 272.62 144.553 272.981 144.84 273.457C145.127 273.925 145.271 274.496 145.271 275.169C145.271 275.834 145.127 276.405 144.84 276.881C144.553 277.349 144.179 277.71 143.719 277.965C143.259 278.211 142.763 278.334 142.229 278.334ZM142.229 277.177C142.557 277.177 142.841 277.094 143.079 276.93C143.317 276.766 143.497 276.532 143.621 276.228C143.744 275.924 143.805 275.571 143.805 275.169C143.805 274.767 143.744 274.414 143.621 274.11C143.497 273.806 143.317 273.572 143.079 273.408C142.841 273.235 142.557 273.149 142.229 273.149C141.9 273.149 141.617 273.235 141.379 273.408C141.149 273.572 140.968 273.806 140.837 274.11C140.714 274.414 140.652 274.767 140.652 275.169C140.652 275.571 140.714 275.924 140.837 276.228C140.968 276.532 141.149 276.766 141.379 276.93C141.617 277.094 141.9 277.177 142.229 277.177ZM148.801 278.334C148.095 278.334 147.582 278.121 147.261 277.694C146.941 277.267 146.781 276.663 146.781 275.883V272.139H148.198V275.699C148.198 276.183 148.28 276.54 148.444 276.77C148.616 277 148.912 277.115 149.331 277.115C149.61 277.115 149.864 277.049 150.094 276.918C150.332 276.778 150.583 276.544 150.846 276.216V272.139H152.262V278.187H151.104L150.993 277.226H150.944C150.657 277.554 150.341 277.821 149.996 278.026C149.651 278.232 149.253 278.334 148.801 278.334ZM157.036 278.334C156.469 278.334 155.927 278.244 155.41 278.063C154.893 277.875 154.445 277.653 154.068 277.398L154.683 276.499C155.045 276.737 155.435 276.926 155.853 277.066C156.272 277.197 156.728 277.263 157.221 277.263C157.639 277.263 157.947 277.193 158.144 277.053C158.35 276.906 158.452 276.733 158.452 276.536C158.452 276.438 158.428 276.347 158.378 276.265C158.337 276.183 158.259 276.109 158.144 276.043C158.029 275.97 157.861 275.9 157.639 275.834C157.418 275.768 157.13 275.699 156.777 275.625C155.973 275.452 155.381 275.218 155.004 274.923C154.626 274.627 154.437 274.253 154.437 273.802C154.437 273.268 154.667 272.833 155.127 272.496C155.595 272.16 156.252 271.991 157.097 271.991C157.598 271.991 158.066 272.073 158.502 272.238C158.945 272.402 159.319 272.587 159.622 272.792L158.97 273.666C158.682 273.469 158.366 273.322 158.021 273.223C157.676 273.116 157.327 273.063 156.974 273.063C156.703 273.063 156.486 273.092 156.322 273.149C156.166 273.207 156.046 273.289 155.964 273.395C155.89 273.494 155.853 273.605 155.853 273.728C155.853 273.941 155.977 274.102 156.223 274.208C156.469 274.315 156.872 274.43 157.43 274.553C158.079 274.693 158.58 274.853 158.933 275.034C159.286 275.206 159.528 275.407 159.659 275.637C159.799 275.859 159.869 276.134 159.869 276.462C159.869 276.807 159.758 277.123 159.536 277.411C159.323 277.69 159.006 277.916 158.588 278.088C158.169 278.252 157.652 278.334 157.036 278.334ZM164.753 278.334C164.138 278.334 163.579 278.211 163.078 277.965C162.578 277.71 162.179 277.349 161.884 276.881C161.588 276.405 161.44 275.83 161.44 275.157C161.44 274.5 161.588 273.937 161.884 273.469C162.179 272.993 162.565 272.628 163.041 272.373C163.518 272.119 164.027 271.991 164.569 271.991C165.168 271.991 165.673 272.115 166.084 272.361C166.502 272.607 166.818 272.948 167.032 273.383C167.254 273.81 167.364 274.303 167.364 274.861C167.364 275.001 167.356 275.136 167.34 275.268C167.332 275.391 167.319 275.493 167.303 275.575H162.463V274.566H166.392L166.121 274.886C166.121 274.286 165.985 273.839 165.714 273.543C165.451 273.239 165.082 273.088 164.606 273.088C164.269 273.088 163.965 273.166 163.694 273.322C163.431 273.478 163.222 273.712 163.066 274.024C162.91 274.327 162.832 274.705 162.832 275.157C162.832 275.625 162.918 276.011 163.091 276.314C163.271 276.618 163.518 276.848 163.83 277.004C164.15 277.16 164.519 277.238 164.938 277.238C165.258 277.238 165.554 277.193 165.825 277.103C166.096 277.012 166.367 276.889 166.638 276.733L167.118 277.62C166.798 277.825 166.437 277.998 166.034 278.137C165.632 278.269 165.205 278.334 164.753 278.334ZM47.8224 296.187V290.139H48.9924L49.1156 291.506H49.1525C49.4563 291.014 49.8299 290.64 50.2733 290.386C50.7249 290.123 51.2094 289.991 51.7267 289.991C51.973 289.991 52.1865 290.012 52.3671 290.053C52.5477 290.094 52.7243 290.156 52.8967 290.238L52.6011 291.432C52.4041 291.367 52.2275 291.322 52.0715 291.297C51.9237 291.264 51.7349 291.248 51.505 291.248C51.0944 291.248 50.6921 291.367 50.298 291.605C49.912 291.843 49.5631 292.258 49.2511 292.849V296.187H47.8224ZM57.6707 296.334C57.0548 296.334 56.4965 296.211 55.9956 295.965C55.4948 295.71 55.0965 295.349 54.8009 294.881C54.5053 294.405 54.3575 293.83 54.3575 293.157C54.3575 292.5 54.5053 291.937 54.8009 291.469C55.0965 290.993 55.4824 290.628 55.9587 290.373C56.4349 290.119 56.944 289.991 57.4859 289.991C58.0853 289.991 58.5903 290.115 59.0008 290.361C59.4196 290.607 59.7357 290.948 59.9492 291.383C60.1709 291.81 60.2817 292.303 60.2817 292.861C60.2817 293.001 60.2735 293.136 60.2571 293.268C60.2489 293.391 60.2366 293.493 60.2201 293.575H55.3798V292.566H59.3087L59.0378 292.886C59.0378 292.286 58.9023 291.839 58.6313 291.543C58.3686 291.239 57.9991 291.088 57.5229 291.088C57.1862 291.088 56.8824 291.166 56.6114 291.322C56.3487 291.478 56.1393 291.712 55.9833 292.024C55.8273 292.327 55.7493 292.705 55.7493 293.157C55.7493 293.625 55.8355 294.011 56.0079 294.314C56.1886 294.618 56.4349 294.848 56.7469 295.004C57.0672 295.16 57.4366 295.238 57.8554 295.238C58.1756 295.238 58.4712 295.193 58.7422 295.103C59.0131 295.012 59.2841 294.889 59.5551 294.733L60.0354 295.62C59.7152 295.825 59.3539 295.998 58.9516 296.137C58.5492 296.269 58.1223 296.334 57.6707 296.334ZM63.7994 296.187V289.807C63.7994 289.33 63.8897 288.908 64.0704 288.538C64.251 288.16 64.5302 287.869 64.9079 287.664C65.2856 287.45 65.77 287.343 66.3612 287.343C66.6896 287.343 67.0017 287.376 67.2973 287.442C67.6011 287.499 67.8884 287.577 68.1594 287.676L67.8638 288.723C67.6421 288.632 67.4245 288.567 67.211 288.526C67.0058 288.485 66.78 288.464 66.5336 288.464C66.0738 288.464 65.7372 288.579 65.5237 288.809C65.3102 289.031 65.2035 289.355 65.2035 289.782V296.187H63.7994ZM62.1244 291.26V290.201L63.8364 290.139H67.5066V291.26H62.1244ZM69.9774 296.187V290.139H71.1475L71.2706 291.506H71.3076C71.6114 291.014 71.985 290.64 72.4284 290.386C72.88 290.123 73.3644 289.991 73.8817 289.991C74.128 289.991 74.3415 290.012 74.5222 290.053C74.7028 290.094 74.8793 290.156 75.0518 290.238L74.7562 291.432C74.5591 291.367 74.3826 291.322 74.2266 291.297C74.0788 291.264 73.8899 291.248 73.66 291.248C73.2495 291.248 72.8471 291.367 72.453 291.605C72.0671 291.843 71.7181 292.258 71.4061 292.849V296.187H69.9774ZM79.8257 296.334C79.2099 296.334 78.6515 296.211 78.1507 295.965C77.6498 295.71 77.2516 295.349 76.956 294.881C76.6604 294.405 76.5126 293.83 76.5126 293.157C76.5126 292.5 76.6604 291.937 76.956 291.469C77.2516 290.993 77.6375 290.628 78.1137 290.373C78.59 290.119 79.099 289.991 79.641 289.991C80.2404 289.991 80.7453 290.115 81.1559 290.361C81.5746 290.607 81.8908 290.948 82.1042 291.383C82.3259 291.81 82.4368 292.303 82.4368 292.861C82.4368 293.001 82.4286 293.136 82.4121 293.268C82.4039 293.391 82.3916 293.493 82.3752 293.575H77.5349V292.566H81.4638L81.1928 292.886C81.1928 292.286 81.0573 291.839 80.7864 291.543C80.5236 291.239 80.1541 291.088 79.6779 291.088C79.3413 291.088 79.0375 291.166 78.7665 291.322C78.5038 291.478 78.2944 291.712 78.1384 292.024C77.9824 292.327 77.9044 292.705 77.9044 293.157C77.9044 293.625 77.9906 294.011 78.163 294.314C78.3436 294.618 78.59 294.848 78.902 295.004C79.2222 295.16 79.5917 295.238 80.0105 295.238C80.3307 295.238 80.6263 295.193 80.8972 295.103C81.1682 295.012 81.4392 294.889 81.7101 294.733L82.1905 295.62C81.8702 295.825 81.5089 295.998 81.1066 296.137C80.7043 296.269 80.2773 296.334 79.8257 296.334ZM86.8782 296.334C86.3116 296.334 85.7697 296.244 85.2524 296.063C84.7351 295.875 84.2876 295.653 83.9099 295.398L84.5258 294.499C84.887 294.737 85.2771 294.926 85.6958 295.066C86.1146 295.197 86.5703 295.263 87.0629 295.263C87.4817 295.263 87.7896 295.193 87.9867 295.053C88.1919 294.906 88.2946 294.733 88.2946 294.536C88.2946 294.438 88.2699 294.347 88.2207 294.265C88.1796 294.183 88.1016 294.109 87.9867 294.043C87.8717 293.97 87.7034 293.9 87.4817 293.834C87.26 293.768 86.9726 293.699 86.6195 293.625C85.8149 293.452 85.2237 293.218 84.846 292.923C84.4683 292.627 84.2794 292.253 84.2794 291.802C84.2794 291.268 84.5093 290.833 84.9691 290.496C85.4372 290.16 86.094 289.991 86.9398 289.991C87.4406 289.991 87.9087 290.073 88.3438 290.238C88.7872 290.402 89.1608 290.587 89.4646 290.792L88.8119 291.666C88.5245 291.469 88.2084 291.322 87.8635 291.223C87.5186 291.116 87.1697 291.063 86.8166 291.063C86.5456 291.063 86.3281 291.092 86.1638 291.149C86.0078 291.207 85.8888 291.289 85.8067 291.395C85.7328 291.494 85.6958 291.605 85.6958 291.728C85.6958 291.941 85.819 292.102 86.0653 292.208C86.3116 292.315 86.714 292.43 87.2723 292.553C87.921 292.693 88.4218 292.853 88.7749 293.034C89.128 293.206 89.3702 293.407 89.5016 293.637C89.6412 293.859 89.711 294.134 89.711 294.462C89.711 294.807 89.6001 295.123 89.3784 295.411C89.1649 295.69 88.8488 295.916 88.43 296.088C88.0113 296.252 87.494 296.334 86.8782 296.334ZM91.5413 296.187V287.491H92.97V289.733L92.8838 291.026H92.9207C93.1835 290.747 93.4873 290.505 93.8321 290.299C94.1852 290.094 94.5916 289.991 95.0515 289.991C95.7494 289.991 96.2626 290.205 96.591 290.632C96.9194 291.059 97.0837 291.662 97.0837 292.442V296.187H95.655V292.627C95.655 292.143 95.5687 291.785 95.3963 291.556C95.2239 291.326 94.9324 291.211 94.5218 291.211C94.2263 291.211 93.9635 291.28 93.7336 291.42C93.5037 291.56 93.2492 291.773 92.97 292.061V296.187H91.5413ZM106.311 298.576V290.139H107.481L107.592 290.829H107.629C107.892 290.583 108.192 290.381 108.528 290.225C108.873 290.069 109.218 289.991 109.563 289.991C110.097 289.991 110.544 290.119 110.905 290.373C111.267 290.628 111.546 290.985 111.743 291.445C111.94 291.905 112.038 292.446 112.038 293.07C112.038 293.76 111.911 294.347 111.657 294.832C111.402 295.316 111.07 295.69 110.659 295.953C110.257 296.207 109.821 296.334 109.353 296.334C109.083 296.334 108.799 296.273 108.504 296.15C108.216 296.026 107.949 295.85 107.703 295.62H107.666L107.74 296.679V298.576H106.311ZM109.058 295.164C109.345 295.164 109.604 295.086 109.834 294.93C110.064 294.774 110.244 294.544 110.376 294.241C110.507 293.929 110.573 293.543 110.573 293.083C110.573 292.68 110.524 292.336 110.425 292.048C110.326 291.761 110.175 291.543 109.969 291.395C109.772 291.239 109.505 291.161 109.169 291.161C108.939 291.161 108.705 291.219 108.467 291.334C108.229 291.449 107.986 291.634 107.74 291.888V294.61C107.962 294.807 108.192 294.951 108.43 295.041C108.668 295.123 108.877 295.164 109.058 295.164ZM116.344 296.187V291.26H113.721V290.139H117.761V296.187H116.344ZM116.948 289.031C116.66 289.031 116.418 288.944 116.221 288.772C116.032 288.6 115.938 288.37 115.938 288.082C115.938 287.795 116.032 287.565 116.221 287.393C116.418 287.212 116.66 287.122 116.948 287.122C117.243 287.122 117.486 287.212 117.675 287.393C117.863 287.565 117.958 287.795 117.958 288.082C117.958 288.37 117.863 288.6 117.675 288.772C117.486 288.944 117.243 289.031 116.948 289.031ZM121.081 298.576V290.139H122.251L122.362 290.829H122.399C122.662 290.583 122.962 290.381 123.298 290.225C123.643 290.069 123.988 289.991 124.333 289.991C124.867 289.991 125.314 290.119 125.675 290.373C126.037 290.628 126.316 290.985 126.513 291.445C126.71 291.905 126.808 292.446 126.808 293.07C126.808 293.76 126.681 294.347 126.427 294.832C126.172 295.316 125.84 295.69 125.429 295.953C125.027 296.207 124.592 296.334 124.124 296.334C123.853 296.334 123.569 296.273 123.274 296.15C122.986 296.026 122.719 295.85 122.473 295.62H122.436L122.51 296.679V298.576H121.081ZM123.828 295.164C124.115 295.164 124.374 295.086 124.604 294.93C124.834 294.774 125.014 294.544 125.146 294.241C125.277 293.929 125.343 293.543 125.343 293.083C125.343 292.68 125.294 292.336 125.195 292.048C125.096 291.761 124.945 291.543 124.739 291.395C124.542 291.239 124.275 291.161 123.939 291.161C123.709 291.161 123.475 291.219 123.237 291.334C122.999 291.449 122.756 291.634 122.51 291.888V294.61C122.732 294.807 122.962 294.951 123.2 295.041C123.438 295.123 123.647 295.164 123.828 295.164ZM131.521 296.334C130.905 296.334 130.347 296.211 129.846 295.965C129.345 295.71 128.947 295.349 128.651 294.881C128.356 294.405 128.208 293.83 128.208 293.157C128.208 292.5 128.356 291.937 128.651 291.469C128.947 290.993 129.333 290.628 129.809 290.373C130.285 290.119 130.794 289.991 131.336 289.991C131.935 289.991 132.44 290.115 132.851 290.361C133.27 290.607 133.586 290.948 133.799 291.383C134.021 291.81 134.132 292.303 134.132 292.861C134.132 293.001 134.124 293.136 134.107 293.268C134.099 293.391 134.087 293.493 134.07 293.575H129.23V292.566H133.159L132.888 292.886C132.888 292.286 132.752 291.839 132.482 291.543C132.219 291.239 131.849 291.088 131.373 291.088C131.036 291.088 130.733 291.166 130.462 291.322C130.199 291.478 129.989 291.712 129.833 292.024C129.677 292.327 129.599 292.705 129.599 293.157C129.599 293.625 129.686 294.011 129.858 294.314C130.039 294.618 130.285 294.848 130.597 295.004C130.917 295.16 131.287 295.238 131.706 295.238C132.026 295.238 132.321 295.193 132.592 295.103C132.863 295.012 133.134 294.889 133.405 294.733L133.886 295.62C133.565 295.825 133.204 295.998 132.802 296.137C132.399 296.269 131.972 296.334 131.521 296.334ZM139.768 296.334C139.07 296.334 138.536 296.129 138.167 295.719C137.806 295.3 137.625 294.721 137.625 293.982V288.612H135.654V287.491H139.041V294.056C139.041 294.466 139.144 294.758 139.349 294.93C139.563 295.094 139.821 295.177 140.125 295.177C140.281 295.177 140.441 295.16 140.606 295.127C140.77 295.086 140.954 295.025 141.16 294.943L141.492 295.989C141.205 296.088 140.934 296.17 140.679 296.236C140.433 296.301 140.129 296.334 139.768 296.334ZM145.884 296.187V291.26H143.261V290.139H147.301V296.187H145.884ZM146.488 289.031C146.201 289.031 145.958 288.944 145.761 288.772C145.572 288.6 145.478 288.37 145.478 288.082C145.478 287.795 145.572 287.565 145.761 287.393C145.958 287.212 146.201 287.122 146.488 287.122C146.784 287.122 147.026 287.212 147.215 287.393C147.403 287.565 147.498 287.795 147.498 288.082C147.498 288.37 147.403 288.6 147.215 288.772C147.026 288.944 146.784 289.031 146.488 289.031ZM150.621 296.187V290.139H151.791L151.902 291.051H151.952C152.239 290.755 152.555 290.505 152.9 290.299C153.253 290.094 153.664 289.991 154.132 289.991C154.83 289.991 155.343 290.205 155.671 290.632C156 291.059 156.164 291.662 156.164 292.442V296.187H154.735V292.627C154.735 292.143 154.649 291.785 154.476 291.556C154.304 291.326 154.013 291.211 153.602 291.211C153.306 291.211 153.044 291.28 152.814 291.42C152.584 291.56 152.329 291.773 152.05 292.061V296.187H150.621ZM161.061 296.334C160.445 296.334 159.887 296.211 159.386 295.965C158.885 295.71 158.487 295.349 158.191 294.881C157.896 294.405 157.748 293.83 157.748 293.157C157.748 292.5 157.896 291.937 158.191 291.469C158.487 290.993 158.873 290.628 159.349 290.373C159.825 290.119 160.334 289.991 160.876 289.991C161.476 289.991 161.981 290.115 162.391 290.361C162.81 290.607 163.126 290.948 163.339 291.383C163.561 291.81 163.672 292.303 163.672 292.861C163.672 293.001 163.664 293.136 163.647 293.268C163.639 293.391 163.627 293.493 163.61 293.575H158.77V292.566H162.699L162.428 292.886C162.428 292.286 162.293 291.839 162.022 291.543C161.759 291.239 161.389 291.088 160.913 291.088C160.576 291.088 160.273 291.166 160.002 291.322C159.739 291.478 159.53 291.712 159.374 292.024C159.218 292.327 159.14 292.705 159.14 293.157C159.14 293.625 159.226 294.011 159.398 294.314C159.579 294.618 159.825 294.848 160.137 295.004C160.457 295.16 160.827 295.238 161.246 295.238C161.566 295.238 161.861 295.193 162.132 295.103C162.403 295.012 162.674 294.889 162.945 294.733L163.426 295.62C163.105 295.825 162.744 295.998 162.342 296.137C161.939 296.269 161.513 296.334 161.061 296.334ZM168.076 296.334C167.732 296.334 167.44 296.215 167.202 295.977C166.972 295.739 166.857 295.443 166.857 295.09C166.857 294.729 166.972 294.433 167.202 294.204C167.44 293.965 167.732 293.846 168.076 293.846C168.43 293.846 168.721 293.965 168.951 294.204C169.181 294.433 169.296 294.729 169.296 295.09C169.296 295.443 169.181 295.739 168.951 295.977C168.721 296.215 168.43 296.334 168.076 296.334ZM175.461 296.334C175.117 296.334 174.825 296.215 174.587 295.977C174.357 295.739 174.242 295.443 174.242 295.09C174.242 294.729 174.357 294.433 174.587 294.204C174.825 293.965 175.117 293.846 175.461 293.846C175.815 293.846 176.106 293.965 176.336 294.204C176.566 294.433 176.681 294.729 176.681 295.09C176.681 295.443 176.566 295.739 176.336 295.977C176.106 296.215 175.815 296.334 175.461 296.334ZM182.846 296.334C182.502 296.334 182.21 296.215 181.972 295.977C181.742 295.739 181.627 295.443 181.627 295.09C181.627 294.729 181.742 294.433 181.972 294.204C182.21 293.965 182.502 293.846 182.846 293.846C183.2 293.846 183.491 293.965 183.721 294.204C183.951 294.433 184.066 294.729 184.066 295.09C184.066 295.443 183.951 295.739 183.721 295.977C183.491 296.215 183.2 296.334 182.846 296.334Z" fill="#525252" fill-opacity="0.7"/>
<path d="M406.963 304.358V299.432H404.339V298.311H408.379V304.358H406.963ZM407.566 297.203C407.279 297.203 407.037 297.116 406.84 296.944C406.651 296.772 406.556 296.542 406.556 296.254C406.556 295.967 406.651 295.737 406.84 295.565C407.037 295.384 407.279 295.294 407.566 295.294C407.862 295.294 408.104 295.384 408.293 295.565C408.482 295.737 408.576 295.967 408.576 296.254C408.576 296.542 408.482 296.772 408.293 296.944C408.104 297.116 407.862 297.203 407.566 297.203ZM411.7 304.358V298.311H412.87L412.981 299.222H413.03C413.317 298.927 413.634 298.676 413.978 298.471C414.331 298.266 414.742 298.163 415.21 298.163C415.908 298.163 416.421 298.377 416.75 298.804C417.078 299.231 417.242 299.834 417.242 300.614V304.358H415.814V300.799C415.814 300.315 415.727 299.957 415.555 299.727C415.382 299.498 415.091 299.383 414.68 299.383C414.385 299.383 414.122 299.452 413.892 299.592C413.662 299.732 413.408 299.945 413.129 300.232V304.358H411.7ZM420.883 304.358V297.979C420.883 297.502 420.973 297.079 421.154 296.71C421.335 296.332 421.614 296.041 421.992 295.835C422.369 295.622 422.854 295.515 423.445 295.515C423.773 295.515 424.085 295.548 424.381 295.614C424.685 295.671 424.972 295.749 425.243 295.848L424.947 296.895C424.726 296.804 424.508 296.739 424.295 296.698C424.089 296.657 423.864 296.636 423.617 296.636C423.157 296.636 422.821 296.751 422.607 296.981C422.394 297.203 422.287 297.527 422.287 297.954V304.358H420.883ZM419.208 299.432V298.373L420.92 298.311H424.59V299.432H419.208ZM427.061 304.358V298.311H428.231L428.354 299.678H428.391C428.695 299.186 429.069 298.812 429.512 298.557C429.964 298.295 430.448 298.163 430.965 298.163C431.212 298.163 431.425 298.184 431.606 298.225C431.786 298.266 431.963 298.327 432.135 298.41L431.84 299.604C431.643 299.539 431.466 299.493 431.31 299.469C431.162 299.436 430.974 299.42 430.744 299.42C430.333 299.42 429.931 299.539 429.537 299.777C429.151 300.015 428.802 300.429 428.49 301.021V304.358H427.061ZM435.739 304.506C435.345 304.506 434.996 304.432 434.692 304.285C434.389 304.128 434.15 303.919 433.978 303.656C433.806 303.394 433.719 303.086 433.719 302.733C433.719 302.059 434.04 301.546 434.68 301.193C435.329 300.832 436.4 300.598 437.895 300.491C437.878 300.269 437.817 300.068 437.71 299.888C437.611 299.707 437.459 299.567 437.254 299.469C437.049 299.362 436.782 299.309 436.454 299.309C436.224 299.309 435.998 299.337 435.776 299.395C435.555 299.452 435.333 299.53 435.111 299.629C434.898 299.727 434.684 299.834 434.471 299.949L433.953 299.001C434.2 298.853 434.471 298.717 434.766 298.594C435.062 298.463 435.374 298.36 435.702 298.286C436.031 298.204 436.367 298.163 436.712 298.163C437.279 298.163 437.751 298.266 438.129 298.471C438.515 298.668 438.806 298.964 439.003 299.358C439.208 299.744 439.311 300.216 439.311 300.774V304.358H438.153L438.042 303.607H438.006C437.685 303.853 437.328 304.067 436.934 304.248C436.548 304.42 436.15 304.506 435.739 304.506ZM436.17 303.398C436.474 303.398 436.766 303.332 437.045 303.201C437.332 303.061 437.615 302.88 437.895 302.659V301.378C437.172 301.427 436.606 301.509 436.195 301.624C435.784 301.731 435.497 301.87 435.333 302.043C435.169 302.215 435.087 302.408 435.087 302.622C435.087 302.802 435.136 302.95 435.234 303.065C435.333 303.18 435.46 303.266 435.616 303.324C435.78 303.373 435.965 303.398 436.17 303.398ZM443.962 304.506C443.395 304.506 442.853 304.416 442.336 304.235C441.819 304.046 441.371 303.825 440.994 303.57L441.609 302.671C441.971 302.909 442.361 303.098 442.779 303.238C443.198 303.369 443.654 303.435 444.147 303.435C444.565 303.435 444.873 303.365 445.07 303.225C445.276 303.077 445.378 302.905 445.378 302.708C445.378 302.609 445.354 302.519 445.304 302.437C445.263 302.355 445.185 302.281 445.07 302.215C444.955 302.141 444.787 302.072 444.565 302.006C444.344 301.94 444.056 301.87 443.703 301.797C442.899 301.624 442.307 301.39 441.93 301.095C441.552 300.799 441.363 300.425 441.363 299.974C441.363 299.44 441.593 299.005 442.053 298.668C442.521 298.332 443.178 298.163 444.023 298.163C444.524 298.163 444.992 298.245 445.427 298.41C445.871 298.574 446.244 298.759 446.548 298.964L445.895 299.838C445.608 299.641 445.292 299.493 444.947 299.395C444.602 299.288 444.253 299.235 443.9 299.235C443.629 299.235 443.412 299.264 443.247 299.321C443.091 299.378 442.972 299.461 442.89 299.567C442.816 299.666 442.779 299.777 442.779 299.9C442.779 300.113 442.903 300.273 443.149 300.38C443.395 300.487 443.798 300.602 444.356 300.725C445.005 300.865 445.505 301.025 445.859 301.205C446.212 301.378 446.454 301.579 446.585 301.809C446.725 302.031 446.795 302.306 446.795 302.634C446.795 302.979 446.684 303.295 446.462 303.582C446.249 303.862 445.932 304.087 445.514 304.26C445.095 304.424 444.578 304.506 443.962 304.506ZM452.431 304.506C451.815 304.506 451.326 304.399 450.965 304.186C450.604 303.964 450.345 303.66 450.189 303.275C450.033 302.889 449.955 302.441 449.955 301.932V299.432H448.342V298.373L450.017 298.311L450.201 296.414H451.371V298.311H454.13V299.432H451.371V301.92C451.371 302.248 451.417 302.523 451.507 302.745C451.597 302.958 451.745 303.119 451.95 303.225C452.156 303.324 452.427 303.373 452.763 303.373C453.026 303.373 453.264 303.353 453.478 303.312C453.691 303.27 453.896 303.213 454.093 303.139L454.364 304.161C454.093 304.252 453.802 304.33 453.49 304.395C453.178 304.469 452.825 304.506 452.431 304.506ZM456.601 304.358V298.311H457.771L457.894 299.678H457.931C458.235 299.186 458.609 298.812 459.052 298.557C459.504 298.295 459.988 298.163 460.505 298.163C460.752 298.163 460.965 298.184 461.146 298.225C461.327 298.266 461.503 298.327 461.675 298.41L461.38 299.604C461.183 299.539 461.006 299.493 460.85 299.469C460.702 299.436 460.514 299.42 460.284 299.42C459.873 299.42 459.471 299.539 459.077 299.777C458.691 300.015 458.342 300.429 458.03 301.021V304.358H456.601ZM465.267 304.506C464.561 304.506 464.048 304.293 463.728 303.866C463.407 303.439 463.247 302.835 463.247 302.055V298.311H464.664V301.87C464.664 302.355 464.746 302.712 464.91 302.942C465.082 303.172 465.378 303.287 465.797 303.287C466.076 303.287 466.33 303.221 466.56 303.09C466.798 302.95 467.049 302.716 467.312 302.388V298.311H468.728V304.358H467.57L467.459 303.398H467.41C467.123 303.726 466.807 303.993 466.462 304.198C466.117 304.404 465.719 304.506 465.267 304.506ZM474.007 304.506C473.375 304.506 472.804 304.383 472.295 304.137C471.794 303.882 471.396 303.521 471.1 303.053C470.813 302.577 470.669 302.006 470.669 301.341C470.669 300.668 470.825 300.097 471.137 299.629C471.457 299.153 471.88 298.791 472.406 298.545C472.931 298.291 473.498 298.163 474.105 298.163C474.598 298.163 475.033 298.245 475.411 298.41C475.789 298.566 476.101 298.767 476.347 299.013L475.67 299.9C475.431 299.711 475.189 299.567 474.943 299.469C474.705 299.37 474.45 299.321 474.179 299.321C473.777 299.321 473.42 299.407 473.108 299.58C472.804 299.744 472.566 299.978 472.393 300.282C472.221 300.585 472.135 300.939 472.135 301.341C472.135 301.743 472.217 302.096 472.381 302.4C472.554 302.704 472.788 302.938 473.083 303.102C473.387 303.266 473.74 303.348 474.142 303.348C474.487 303.348 474.803 303.283 475.091 303.151C475.378 303.02 475.637 302.864 475.867 302.683L476.458 303.595C476.113 303.89 475.727 304.116 475.3 304.272C474.873 304.428 474.442 304.506 474.007 304.506ZM481.971 304.506C481.355 304.506 480.866 304.399 480.505 304.186C480.144 303.964 479.885 303.66 479.729 303.275C479.573 302.889 479.495 302.441 479.495 301.932V299.432H477.882V298.373L479.557 298.311L479.741 296.414H480.912V298.311H483.67V299.432H480.912V301.92C480.912 302.248 480.957 302.523 481.047 302.745C481.137 302.958 481.285 303.119 481.49 303.225C481.696 303.324 481.967 303.373 482.303 303.373C482.566 303.373 482.804 303.353 483.018 303.312C483.231 303.27 483.436 303.213 483.633 303.139L483.904 304.161C483.633 304.252 483.342 304.33 483.03 304.395C482.718 304.469 482.365 304.506 481.971 304.506ZM487.422 304.506C486.716 304.506 486.203 304.293 485.883 303.866C485.562 303.439 485.402 302.835 485.402 302.055V298.311H486.819V301.87C486.819 302.355 486.901 302.712 487.065 302.942C487.237 303.172 487.533 303.287 487.952 303.287C488.231 303.287 488.485 303.221 488.715 303.09C488.953 302.95 489.204 302.716 489.467 302.388V298.311H490.883V304.358H489.725L489.614 303.398H489.565C489.278 303.726 488.962 303.993 488.617 304.198C488.272 304.404 487.874 304.506 487.422 304.506ZM493.526 304.358V298.311H494.696L494.819 299.678H494.856C495.16 299.186 495.534 298.812 495.977 298.557C496.429 298.295 496.913 298.163 497.431 298.163C497.677 298.163 497.89 298.184 498.071 298.225C498.252 298.266 498.428 298.327 498.601 298.41L498.305 299.604C498.108 299.539 497.931 299.493 497.775 299.469C497.628 299.436 497.439 299.42 497.209 299.42C496.798 299.42 496.396 299.539 496.002 299.777C495.616 300.015 495.267 300.429 494.955 301.021V304.358H493.526ZM503.375 304.506C502.759 304.506 502.2 304.383 501.699 304.137C501.199 303.882 500.8 303.521 500.505 303.053C500.209 302.577 500.061 302.002 500.061 301.329C500.061 300.672 500.209 300.109 500.505 299.641C500.8 299.165 501.186 298.8 501.663 298.545C502.139 298.291 502.648 298.163 503.19 298.163C503.789 298.163 504.294 298.286 504.705 298.533C505.123 298.779 505.44 299.12 505.653 299.555C505.875 299.982 505.986 300.475 505.986 301.033C505.986 301.173 505.977 301.308 505.961 301.439C505.953 301.563 505.94 301.665 505.924 301.747H501.084V300.737H505.013L504.742 301.058C504.742 300.458 504.606 300.011 504.335 299.715C504.072 299.411 503.703 299.259 503.227 299.259C502.89 299.259 502.586 299.337 502.315 299.493C502.053 299.649 501.843 299.883 501.687 300.195C501.531 300.499 501.453 300.877 501.453 301.329C501.453 301.797 501.539 302.183 501.712 302.486C501.892 302.79 502.139 303.02 502.451 303.176C502.771 303.332 503.141 303.41 503.559 303.41C503.879 303.41 504.175 303.365 504.446 303.275C504.717 303.184 504.988 303.061 505.259 302.905L505.739 303.792C505.419 303.997 505.058 304.17 504.655 304.309C504.253 304.441 503.826 304.506 503.375 304.506ZM409.892 322.506C409.498 322.506 409.149 322.432 408.845 322.285C408.541 322.128 408.303 321.919 408.13 321.656C407.958 321.394 407.872 321.086 407.872 320.733C407.872 320.059 408.192 319.546 408.833 319.193C409.481 318.832 410.553 318.598 412.047 318.491C412.031 318.269 411.969 318.068 411.862 317.888C411.764 317.707 411.612 317.567 411.407 317.469C411.201 317.362 410.935 317.309 410.606 317.309C410.376 317.309 410.15 317.337 409.929 317.395C409.707 317.452 409.485 317.53 409.264 317.629C409.05 317.727 408.837 317.834 408.623 317.949L408.106 317.001C408.352 316.853 408.623 316.717 408.919 316.594C409.214 316.463 409.526 316.36 409.855 316.286C410.183 316.204 410.52 316.163 410.865 316.163C411.431 316.163 411.903 316.266 412.281 316.471C412.667 316.668 412.959 316.964 413.156 317.358C413.361 317.744 413.463 318.216 413.463 318.774V322.358H412.306L412.195 321.607H412.158C411.838 321.853 411.481 322.067 411.086 322.248C410.701 322.42 410.302 322.506 409.892 322.506ZM410.323 321.398C410.627 321.398 410.918 321.332 411.197 321.201C411.485 321.061 411.768 320.88 412.047 320.659V319.378C411.325 319.427 410.758 319.509 410.347 319.624C409.937 319.731 409.65 319.87 409.485 320.043C409.321 320.215 409.239 320.408 409.239 320.622C409.239 320.802 409.288 320.95 409.387 321.065C409.485 321.18 409.613 321.266 409.769 321.324C409.933 321.373 410.118 321.398 410.323 321.398ZM417.264 322.506C416.558 322.506 416.045 322.293 415.725 321.866C415.405 321.439 415.245 320.835 415.245 320.055V316.311H416.661V319.87C416.661 320.355 416.743 320.712 416.907 320.942C417.08 321.172 417.375 321.287 417.794 321.287C418.073 321.287 418.328 321.221 418.558 321.09C418.796 320.95 419.046 320.716 419.309 320.388V316.311H420.725V322.358H419.568L419.457 321.398H419.407C419.12 321.726 418.804 321.993 418.459 322.198C418.114 322.404 417.716 322.506 417.264 322.506ZM426.583 322.506C425.967 322.506 425.479 322.399 425.117 322.186C424.756 321.964 424.498 321.66 424.342 321.275C424.186 320.889 424.108 320.441 424.108 319.932V317.432H422.494V316.373L424.169 316.311L424.354 314.414H425.524V316.311H428.283V317.432H425.524V319.92C425.524 320.248 425.569 320.523 425.659 320.745C425.75 320.958 425.898 321.119 426.103 321.225C426.308 321.324 426.579 321.373 426.916 321.373C427.178 321.373 427.417 321.353 427.63 321.312C427.843 321.27 428.049 321.213 428.246 321.139L428.517 322.161C428.246 322.252 427.954 322.33 427.642 322.395C427.33 322.469 426.977 322.506 426.583 322.506ZM432.847 322.506C432.314 322.506 431.817 322.383 431.357 322.137C430.897 321.882 430.524 321.521 430.236 321.053C429.949 320.577 429.805 320.006 429.805 319.341C429.805 318.668 429.949 318.097 430.236 317.629C430.524 317.153 430.897 316.791 431.357 316.545C431.817 316.291 432.314 316.163 432.847 316.163C433.381 316.163 433.878 316.291 434.338 316.545C434.797 316.791 435.171 317.153 435.458 317.629C435.746 318.097 435.889 318.668 435.889 319.341C435.889 320.006 435.746 320.577 435.458 321.053C435.171 321.521 434.797 321.882 434.338 322.137C433.878 322.383 433.381 322.506 432.847 322.506ZM432.847 321.348C433.176 321.348 433.459 321.266 433.697 321.102C433.935 320.938 434.116 320.704 434.239 320.4C434.362 320.096 434.424 319.743 434.424 319.341C434.424 318.939 434.362 318.585 434.239 318.282C434.116 317.978 433.935 317.744 433.697 317.58C433.459 317.407 433.176 317.321 432.847 317.321C432.519 317.321 432.236 317.407 431.998 317.58C431.768 317.744 431.587 317.978 431.456 318.282C431.332 318.585 431.271 318.939 431.271 319.341C431.271 319.743 431.332 320.096 431.456 320.4C431.587 320.704 431.768 320.938 431.998 321.102C432.236 321.266 432.519 321.348 432.847 321.348ZM437.104 322.358V316.311H438.2L438.311 317.075H438.348C438.479 316.812 438.648 316.594 438.853 316.422C439.058 316.249 439.337 316.163 439.69 316.163C439.97 316.163 440.204 316.249 440.392 316.422C440.581 316.586 440.713 316.837 440.787 317.173C440.926 316.878 441.103 316.635 441.316 316.447C441.53 316.258 441.813 316.163 442.166 316.163C442.593 316.163 442.921 316.332 443.151 316.668C443.389 316.997 443.509 317.465 443.509 318.072V322.358H442.141V318.171C442.141 317.637 441.981 317.37 441.661 317.37C441.497 317.37 441.357 317.432 441.242 317.555C441.136 317.678 441.021 317.871 440.897 318.134V322.358H439.715V318.171C439.715 317.908 439.678 317.711 439.604 317.58C439.53 317.44 439.407 317.37 439.235 317.37C439.079 317.37 438.943 317.432 438.828 317.555C438.713 317.678 438.598 317.871 438.483 318.134V322.358H437.104ZM446.817 322.506C446.423 322.506 446.074 322.432 445.77 322.285C445.466 322.128 445.228 321.919 445.056 321.656C444.883 321.394 444.797 321.086 444.797 320.733C444.797 320.059 445.117 319.546 445.758 319.193C446.406 318.832 447.478 318.598 448.972 318.491C448.956 318.269 448.894 318.068 448.787 317.888C448.689 317.707 448.537 317.567 448.332 317.469C448.126 317.362 447.86 317.309 447.531 317.309C447.301 317.309 447.075 317.337 446.854 317.395C446.632 317.452 446.41 317.53 446.189 317.629C445.975 317.727 445.762 317.834 445.548 317.949L445.031 317.001C445.277 316.853 445.548 316.717 445.844 316.594C446.139 316.463 446.451 316.36 446.78 316.286C447.108 316.204 447.445 316.163 447.79 316.163C448.356 316.163 448.828 316.266 449.206 316.471C449.592 316.668 449.884 316.964 450.081 317.358C450.286 317.744 450.389 318.216 450.389 318.774V322.358H449.231L449.12 321.607H449.083C448.763 321.853 448.406 322.067 448.012 322.248C447.626 322.42 447.227 322.506 446.817 322.506ZM447.248 321.398C447.552 321.398 447.843 321.332 448.122 321.201C448.41 321.061 448.693 320.88 448.972 320.659V319.378C448.25 319.427 447.683 319.509 447.273 319.624C446.862 319.731 446.575 319.87 446.41 320.043C446.246 320.215 446.164 320.408 446.164 320.622C446.164 320.802 446.213 320.95 446.312 321.065C446.41 321.18 446.538 321.266 446.694 321.324C446.858 321.373 447.043 321.398 447.248 321.398ZM456.123 322.506C455.507 322.506 455.019 322.399 454.658 322.186C454.296 321.964 454.038 321.66 453.882 321.275C453.726 320.889 453.648 320.441 453.648 319.932V317.432H452.034V316.373L453.709 316.311L453.894 314.414H455.064V316.311H457.823V317.432H455.064V319.92C455.064 320.248 455.109 320.523 455.199 320.745C455.29 320.958 455.438 321.119 455.643 321.225C455.848 321.324 456.119 321.373 456.456 321.373C456.718 321.373 456.957 321.353 457.17 321.312C457.384 321.27 457.589 321.213 457.786 321.139L458.057 322.161C457.786 322.252 457.494 322.33 457.182 322.395C456.87 322.469 456.517 322.506 456.123 322.506ZM462.35 322.358V317.432H459.727V316.311H463.767V322.358H462.35ZM462.954 315.203C462.667 315.203 462.424 315.116 462.227 314.944C462.038 314.772 461.944 314.542 461.944 314.254C461.944 313.967 462.038 313.737 462.227 313.565C462.424 313.384 462.667 313.294 462.954 313.294C463.25 313.294 463.492 313.384 463.681 313.565C463.869 313.737 463.964 313.967 463.964 314.254C463.964 314.542 463.869 314.772 463.681 314.944C463.492 315.116 463.25 315.203 462.954 315.203ZM469.772 322.506C469.239 322.506 468.742 322.383 468.282 322.137C467.822 321.882 467.449 321.521 467.161 321.053C466.874 320.577 466.73 320.006 466.73 319.341C466.73 318.668 466.874 318.097 467.161 317.629C467.449 317.153 467.822 316.791 468.282 316.545C468.742 316.291 469.239 316.163 469.772 316.163C470.306 316.163 470.803 316.291 471.263 316.545C471.723 316.791 472.096 317.153 472.384 317.629C472.671 318.097 472.815 318.668 472.815 319.341C472.815 320.006 472.671 320.577 472.384 321.053C472.096 321.521 471.723 321.882 471.263 322.137C470.803 322.383 470.306 322.506 469.772 322.506ZM469.772 321.348C470.101 321.348 470.384 321.266 470.622 321.102C470.86 320.938 471.041 320.704 471.164 320.4C471.287 320.096 471.349 319.743 471.349 319.341C471.349 318.939 471.287 318.585 471.164 318.282C471.041 317.978 470.86 317.744 470.622 317.58C470.384 317.407 470.101 317.321 469.772 317.321C469.444 317.321 469.161 317.407 468.923 317.58C468.693 317.744 468.512 317.978 468.381 318.282C468.258 318.585 468.196 318.939 468.196 319.341C468.196 319.743 468.258 320.096 468.381 320.4C468.512 320.704 468.693 320.938 468.923 321.102C469.161 321.266 469.444 321.348 469.772 321.348ZM474.472 322.358V316.311H475.643L475.753 317.222H475.803C476.09 316.927 476.406 316.676 476.751 316.471C477.104 316.266 477.515 316.163 477.983 316.163C478.681 316.163 479.194 316.377 479.522 316.804C479.851 317.231 480.015 317.834 480.015 318.614V322.358H478.586V318.799C478.586 318.315 478.5 317.957 478.328 317.727C478.155 317.498 477.864 317.383 477.453 317.383C477.157 317.383 476.895 317.452 476.665 317.592C476.435 317.732 476.18 317.945 475.901 318.232V322.358H474.472ZM484.542 322.506C484.198 322.506 483.906 322.387 483.668 322.149C483.438 321.911 483.323 321.615 483.323 321.262C483.323 320.901 483.438 320.605 483.668 320.375C483.906 320.137 484.198 320.018 484.542 320.018C484.896 320.018 485.187 320.137 485.417 320.375C485.647 320.605 485.762 320.901 485.762 321.262C485.762 321.615 485.647 321.911 485.417 322.149C485.187 322.387 484.896 322.506 484.542 322.506ZM491.927 322.506C491.583 322.506 491.291 322.387 491.053 322.149C490.823 321.911 490.708 321.615 490.708 321.262C490.708 320.901 490.823 320.605 491.053 320.375C491.291 320.137 491.583 320.018 491.927 320.018C492.281 320.018 492.572 320.137 492.802 320.375C493.032 320.605 493.147 320.901 493.147 321.262C493.147 321.615 493.032 321.911 492.802 322.149C492.572 322.387 492.281 322.506 491.927 322.506ZM499.313 322.506C498.968 322.506 498.676 322.387 498.438 322.149C498.208 321.911 498.093 321.615 498.093 321.262C498.093 320.901 498.208 320.605 498.438 320.375C498.676 320.137 498.968 320.018 499.313 320.018C499.666 320.018 499.957 320.137 500.187 320.375C500.417 320.605 500.532 320.901 500.532 321.262C500.532 321.615 500.417 321.911 500.187 322.149C499.957 322.387 499.666 322.506 499.313 322.506Z" fill="#545454" fill-opacity="0.560784"/>
<defs>
<filter id="filter0_d_5054_13447" x="205.338" y="262.864" width="158.078" height="76.7879" filterUnits="userSpaceOnUse" color-interpolation-filters="sRGB">
<feFlood flood-opacity="0" result="BackgroundImageFix"/>
<feColorMatrix in="SourceAlpha" type="matrix" values="0 0 0 0 0 0 0 0 0 0 0 0 0 0 0 0 0 0 127 0" result="hardAlpha"/>
<feOffset dy="9.98555"/>
<feGaussianBlur stdDeviation="5.29"/>
<feComposite in2="hardAlpha" operator="out"/>
<feColorMatrix type="matrix" values="0 0 0 0 0.604167 0 0 0 0 0.604167 0 0 0 0 0.604167 0 0 0 0.22 0"/>
<feBlend mode="normal" in2="BackgroundImageFix" result="effect1_dropShadow_5054_13447"/>
<feBlend mode="normal" in="SourceGraphic" in2="effect1_dropShadow_5054_13447" result="shape"/>
</filter>
<filter id="filter1_d_5054_13447" x="122.753" y="99.7542" width="322.89" height="189.576" filterUnits="userSpaceOnUse" color-interpolation-filters="sRGB">
<feFlood flood-opacity="0" result="BackgroundImageFix"/>
<feColorMatrix in="SourceAlpha" type="matrix" values="0 0 0 0 0 0 0 0 0 0 0 0 0 0 0 0 0 0 127 0" result="hardAlpha"/>
<feOffset dy="10.6845"/>
<feGaussianBlur stdDeviation="16.3606"/>
<feComposite in2="hardAlpha" operator="out"/>
<feColorMatrix type="matrix" values="0 0 0 0 0.304167 0 0 0 0 0.304167 0 0 0 0 0.304167 0 0 0 0.22 0"/>
<feBlend mode="normal" in2="BackgroundImageFix" result="effect1_dropShadow_5054_13447"/>
<feBlend mode="normal" in="SourceGraphic" in2="effect1_dropShadow_5054_13447" result="shape"/>
</filter>
</defs>
</svg>
