<svg width="569" height="421" viewBox="0 0 569 421" fill="none" xmlns="http://www.w3.org/2000/svg">
<rect x="0.5" y="0.849609" width="568" height="420" rx="12" fill="url(#paint0_diamond_917_3206)"/>
<path d="M281.932 238.344V293.442H387.364" stroke="#E8E5FA" stroke-width="8"/>
<path d="M278.264 163.563L278.264 108.465L172.831 108.465" stroke="#E8E5FA" stroke-width="8"/>
<path d="M480.58 146.213L480.58 201.311L345.28 201.311" stroke="#E8E5FA" stroke-width="8"/>
<path d="M480.58 256.564L480.58 201.465L320.701 201.465" stroke="#E8E5FA" stroke-width="8"/>
<path d="M82.2798 146.213L82.2798 201.311L242.795 201.311" stroke="#E9E6FA" stroke-width="8"/>
<path d="M82.2798 256.564L82.2798 201.465L217.58 201.465" stroke="#E9E6FA" stroke-width="8"/>
<path d="M281.932 163.956V108.857H387.364" stroke="#E8E5FA" stroke-width="9" stroke-linejoin="round"/>
<path d="M278.26 238.524L278.706 293.621L173.277 294.475" stroke="#E8E5FA" stroke-width="9" stroke-linejoin="round"/>
<path d="M278.265 163.956C278.265 162.483 279.459 161.289 280.932 161.289C282.405 161.289 283.599 162.483 283.599 163.956C283.599 165.429 282.405 166.622 280.932 166.622C279.459 166.622 278.265 165.429 278.265 163.956ZM280.932 108.857H280.432V108.357H280.932V108.857ZM386.718 108.504C386.913 108.699 386.913 109.016 386.718 109.211L383.536 112.393C383.341 112.588 383.024 112.588 382.829 112.393C382.634 112.198 382.634 111.881 382.829 111.686L385.657 108.857L382.829 106.029C382.634 105.834 382.634 105.517 382.829 105.322C383.024 105.127 383.341 105.127 383.536 105.322L386.718 108.504ZM280.432 163.956V108.857H281.432V163.956H280.432ZM280.932 108.357H386.364V109.357H280.932V108.357Z" fill="#8200FF"/>
<path d="M283.599 163.956C283.599 162.483 282.405 161.289 280.932 161.289C279.459 161.289 278.265 162.483 278.265 163.956C278.265 165.429 279.459 166.622 280.932 166.622C282.405 166.622 283.599 165.429 283.599 163.956ZM280.932 108.857H281.432V108.357H280.932V108.857ZM175.146 108.504C174.951 108.699 174.951 109.016 175.146 109.211L178.328 112.393C178.523 112.588 178.84 112.588 179.035 112.393C179.23 112.198 179.23 111.881 179.035 111.686L176.206 108.857L179.035 106.029C179.23 105.834 179.23 105.517 179.035 105.322C178.84 105.127 178.523 105.127 178.328 105.322L175.146 108.504ZM281.432 163.956V108.857H280.432V163.956H281.432ZM280.932 108.357H175.499V109.357H280.932V108.357Z" fill="#8200FF"/>
<path d="M282.927 238.503C282.939 239.975 281.755 241.179 280.282 241.191C278.809 241.203 277.606 240.018 277.594 238.546C277.582 237.073 278.766 235.87 280.239 235.858C281.711 235.846 282.915 237.03 282.927 238.503ZM280.706 293.621L281.206 293.617L281.21 294.117L280.711 294.121L280.706 293.621ZM173.361 294.844C173.164 294.65 173.161 294.333 173.355 294.137L176.511 290.929C176.705 290.732 177.021 290.729 177.218 290.923C177.415 291.117 177.417 291.433 177.224 291.63L174.418 294.481L177.27 297.287C177.466 297.481 177.469 297.797 177.275 297.994C177.082 298.191 176.765 298.193 176.568 298L173.361 294.844ZM280.76 238.52L281.206 293.617L280.206 293.625L279.76 238.528L280.76 238.52ZM280.711 294.121L173.715 294.987L173.707 293.987L280.702 293.121L280.711 294.121Z" fill="#953EF6"/>
<path d="M277.594 238.344C277.594 239.817 278.787 241.011 280.26 241.011C281.733 241.011 282.927 239.817 282.927 238.344C282.927 236.871 281.733 235.677 280.26 235.677C278.787 235.677 277.594 236.871 277.594 238.344ZM280.26 293.442H279.76V293.942H280.26V293.442ZM387.718 293.796C387.913 293.601 387.913 293.284 387.718 293.089L384.536 289.907C384.341 289.712 384.024 289.712 383.829 289.907C383.634 290.102 383.634 290.419 383.829 290.614L386.657 293.442L383.829 296.271C383.634 296.466 383.634 296.783 383.829 296.978C384.024 297.173 384.341 297.173 384.536 296.978L387.718 293.796ZM279.76 238.344V293.442H280.76V238.344H279.76ZM280.26 293.942H387.365V292.942H280.26V293.942Z" fill="#A251FC"/>
<path d="M483.247 146.213C483.247 147.685 482.053 148.879 480.58 148.879C479.107 148.879 477.913 147.685 477.913 146.213C477.913 144.74 479.107 143.546 480.58 143.546C482.053 143.546 483.247 144.74 483.247 146.213ZM480.58 201.311L481.08 201.311L481.08 201.811L480.58 201.811L480.58 201.311ZM320.347 201.665C320.152 201.469 320.152 201.153 320.347 200.957L323.529 197.775C323.724 197.58 324.041 197.58 324.236 197.775C324.431 197.971 324.431 198.287 324.236 198.483L321.408 201.311L324.236 204.139C324.431 204.335 324.431 204.651 324.236 204.847C324.041 205.042 323.724 205.042 323.529 204.847L320.347 201.665ZM481.08 146.213L481.08 147.197L480.08 147.197L480.08 146.213L481.08 146.213ZM481.08 149.164L481.08 151.132L480.08 151.132L480.08 149.164L481.08 149.164ZM481.08 153.1L481.08 155.068L480.08 155.068L480.08 153.1L481.08 153.1ZM481.08 157.036L481.08 159.003L480.08 159.003L480.08 157.036L481.08 157.036ZM481.08 160.971L481.08 162.939L480.08 162.939L480.08 160.971L481.08 160.971ZM481.08 164.907L481.08 166.875L480.08 166.875L480.08 164.907L481.08 164.907ZM481.08 168.842L481.08 170.81L480.08 170.81L480.08 168.842L481.08 168.842ZM481.08 172.778L481.08 174.746L480.08 174.746L480.08 172.778L481.08 172.778ZM481.08 176.714L481.08 178.681L480.08 178.681L480.08 176.714L481.08 176.714ZM481.08 180.649L481.08 182.617L480.08 182.617L480.08 180.649L481.08 180.649ZM481.08 184.585L481.08 186.552L480.08 186.552L480.08 184.585L481.08 184.585ZM481.08 188.52L481.08 190.488L480.08 190.488L480.08 188.52L481.08 188.52ZM481.08 192.456L481.08 194.424L480.08 194.424L480.08 192.456L481.08 192.456ZM481.08 196.391L481.08 198.359L480.08 198.359L480.08 196.391L481.08 196.391ZM481.08 200.327L481.08 201.311L480.08 201.311L480.08 200.327L481.08 200.327ZM480.58 201.811L479.581 201.811L479.581 200.811L480.58 200.811L480.58 201.811ZM477.582 201.811L475.584 201.811L475.584 200.811L477.582 200.811L477.582 201.811ZM473.585 201.811L471.587 201.811L471.587 200.811L473.585 200.811L473.585 201.811ZM469.588 201.811L467.59 201.811L467.59 200.811L469.588 200.811L469.588 201.811ZM465.591 201.811L463.593 201.811L463.593 200.811L465.591 200.811L465.591 201.811ZM461.594 201.811L459.596 201.811L459.596 200.811L461.594 200.811L461.594 201.811ZM457.597 201.811L455.599 201.811L455.599 200.811L457.597 200.811L457.597 201.811ZM453.6 201.811L451.602 201.811L451.602 200.811L453.6 200.811L453.6 201.811ZM449.603 201.811L447.605 201.811L447.605 200.811L449.603 200.811L449.603 201.811ZM445.606 201.811L443.608 201.811L443.608 200.811L445.606 200.811L445.606 201.811ZM441.609 201.811L439.611 201.811L439.611 200.811L441.609 200.811L441.609 201.811ZM437.612 201.811L435.614 201.811L435.614 200.811L437.612 200.811L437.612 201.811ZM433.615 201.811L431.617 201.811L431.617 200.811L433.615 200.811L433.615 201.811ZM429.619 201.811L427.62 201.811L427.62 200.811L429.619 200.811L429.619 201.811ZM425.622 201.811L423.623 201.811L423.623 200.811L425.622 200.811L425.622 201.811ZM421.625 201.811L419.626 201.811L419.626 200.811L421.625 200.811L421.625 201.811ZM417.628 201.811L415.629 201.811L415.629 200.811L417.628 200.811L417.628 201.811ZM413.631 201.811L411.632 201.811L411.632 200.811L413.631 200.811L413.631 201.811ZM409.634 201.811L407.635 201.811L407.635 200.811L409.634 200.811L409.634 201.811ZM405.637 201.811L403.638 201.811L403.638 200.811L405.637 200.811L405.637 201.811ZM401.64 201.811L399.641 201.811L399.641 200.811L401.64 200.811L401.64 201.811ZM397.643 201.811L395.644 201.811L395.644 200.811L397.643 200.811L397.643 201.811ZM393.646 201.811L391.647 201.811L391.647 200.811L393.646 200.811L393.646 201.811ZM389.649 201.811L387.65 201.811L387.65 200.811L389.649 200.811L389.649 201.811ZM385.652 201.811L383.653 201.811L383.653 200.811L385.652 200.811L385.652 201.811ZM381.655 201.811L379.656 201.811L379.656 200.811L381.655 200.811L381.655 201.811ZM377.658 201.811L375.659 201.811L375.659 200.811L377.658 200.811L377.658 201.811ZM373.661 201.811L371.662 201.811L371.662 200.811L373.661 200.811L373.661 201.811ZM369.664 201.811L367.665 201.811L367.665 200.811L369.664 200.811L369.664 201.811ZM365.667 201.811L363.668 201.811L363.668 200.811L365.667 200.811L365.667 201.811ZM361.67 201.811L359.671 201.811L359.671 200.811L361.67 200.811L361.67 201.811ZM357.673 201.811L355.674 201.811L355.674 200.811L357.673 200.811L357.673 201.811ZM353.676 201.811L351.677 201.811L351.677 200.811L353.676 200.811L353.676 201.811ZM349.679 201.811L347.68 201.811L347.68 200.811L349.679 200.811L349.679 201.811ZM345.682 201.811L343.683 201.811L343.683 200.811L345.682 200.811L345.682 201.811ZM341.685 201.811L339.686 201.811L339.686 200.811L341.685 200.811L341.685 201.811ZM337.688 201.811L335.689 201.811L335.689 200.811L337.688 200.811L337.688 201.811ZM333.691 201.811L331.692 201.811L331.692 200.811L333.691 200.811L333.691 201.811ZM329.694 201.811L327.696 201.811L327.696 200.811L329.694 200.811L329.694 201.811ZM325.697 201.811L323.699 201.811L323.699 200.811L325.697 200.811L325.697 201.811ZM321.7 201.811L320.701 201.811L320.701 200.811L321.7 200.811L321.7 201.811Z" fill="#8200FF"/>
<path d="M79.12 146.213C79.12 147.685 80.3139 148.879 81.7866 148.879C83.2594 148.879 84.4533 147.685 84.4533 146.213C84.4533 144.74 83.2594 143.546 81.7866 143.546C80.3139 143.546 79.12 144.74 79.12 146.213ZM81.7866 201.311L81.2866 201.311L81.2866 201.811L81.7866 201.811L81.7866 201.311ZM243.148 201.665C243.344 201.469 243.344 201.153 243.148 200.957L239.967 197.775C239.771 197.58 239.455 197.58 239.259 197.775C239.064 197.971 239.064 198.287 239.259 198.483L242.088 201.311L239.259 204.139C239.064 204.335 239.064 204.651 239.259 204.847C239.455 205.042 239.771 205.042 239.967 204.847L243.148 201.665ZM81.2866 146.213L81.2866 147.197L82.2866 147.197L82.2866 146.213L81.2866 146.213ZM81.2866 149.164L81.2866 151.132L82.2866 151.132L82.2866 149.164L81.2866 149.164ZM81.2866 153.1L81.2866 155.068L82.2866 155.068L82.2866 153.1L81.2866 153.1ZM81.2866 157.036L81.2866 159.003L82.2866 159.003L82.2866 157.036L81.2866 157.036ZM81.2866 160.971L81.2866 162.939L82.2866 162.939L82.2866 160.971L81.2866 160.971ZM81.2866 164.907L81.2866 166.875L82.2866 166.875L82.2866 164.907L81.2866 164.907ZM81.2866 168.842L81.2866 170.81L82.2866 170.81L82.2866 168.842L81.2866 168.842ZM81.2866 172.778L81.2866 174.746L82.2866 174.746L82.2866 172.778L81.2866 172.778ZM81.2866 176.714L81.2866 178.681L82.2866 178.681L82.2866 176.714L81.2866 176.714ZM81.2866 180.649L81.2866 182.617L82.2866 182.617L82.2866 180.649L81.2866 180.649ZM81.2866 184.585L81.2866 186.552L82.2866 186.552L82.2866 184.585L81.2866 184.585ZM81.2866 188.52L81.2866 190.488L82.2866 190.488L82.2866 188.52L81.2866 188.52ZM81.2866 192.456L81.2866 194.424L82.2866 194.424L82.2866 192.456L81.2866 192.456ZM81.2866 196.391L81.2866 198.359L82.2866 198.359L82.2866 196.391L81.2866 196.391ZM81.2866 200.327L81.2866 201.311L82.2866 201.311L82.2866 200.327L81.2866 200.327ZM81.7866 201.811L82.7929 201.811L82.7929 200.811L81.7866 200.811L81.7866 201.811ZM84.8055 201.811L86.8181 201.811L86.8181 200.811L84.8055 200.811L84.8055 201.811ZM88.8307 201.811L90.8433 201.811L90.8433 200.811L88.8307 200.811L88.8307 201.811ZM92.8559 201.811L94.8685 201.811L94.8685 200.811L92.8559 200.811L92.8559 201.811ZM96.8811 201.811L98.8938 201.811L98.8938 200.811L96.8811 200.811L96.8811 201.811ZM100.906 201.811L102.919 201.811L102.919 200.811L100.906 200.811L100.906 201.811ZM104.932 201.811L106.944 201.811L106.944 200.811L104.932 200.811L104.932 201.811ZM108.957 201.811L110.969 201.811L110.969 200.811L108.957 200.811L108.957 201.811ZM112.982 201.811L114.995 201.811L114.995 200.811L112.982 200.811L112.982 201.811ZM117.007 201.811L119.02 201.811L119.02 200.811L117.007 200.811L117.007 201.811ZM121.032 201.811L123.045 201.811L123.045 200.811L121.032 200.811L121.032 201.811ZM125.058 201.811L127.07 201.811L127.07 200.811L125.058 200.811L125.058 201.811ZM129.083 201.811L131.095 201.811L131.095 200.811L129.083 200.811L129.083 201.811ZM133.108 201.811L135.121 201.811L135.121 200.811L133.108 200.811L133.108 201.811ZM137.133 201.811L139.146 201.811L139.146 200.811L137.133 200.811L137.133 201.811ZM141.158 201.811L143.171 201.811L143.171 200.811L141.158 200.811L141.158 201.811ZM145.184 201.811L147.196 201.811L147.196 200.811L145.184 200.811L145.184 201.811ZM149.209 201.811L151.221 201.811L151.221 200.811L149.209 200.811L149.209 201.811ZM153.234 201.811L155.247 201.811L155.247 200.811L153.234 200.811L153.234 201.811ZM157.259 201.811L159.272 201.811L159.272 200.811L157.259 200.811L157.259 201.811ZM161.284 201.811L163.297 201.811L163.297 200.811L161.284 200.811L161.284 201.811ZM165.31 201.811L167.322 201.811L167.322 200.811L165.31 200.811L165.31 201.811ZM169.335 201.811L171.347 201.811L171.347 200.811L169.335 200.811L169.335 201.811ZM173.36 201.811L175.373 201.811L175.373 200.811L173.36 200.811L173.36 201.811ZM177.385 201.811L179.398 201.811L179.398 200.811L177.385 200.811L177.385 201.811ZM181.411 201.811L183.423 201.811L183.423 200.811L181.411 200.811L181.411 201.811ZM185.436 201.811L187.448 201.811L187.448 200.811L185.436 200.811L185.436 201.811ZM189.461 201.811L191.474 201.811L191.474 200.811L189.461 200.811L189.461 201.811ZM193.486 201.811L195.499 201.811L195.499 200.811L193.486 200.811L193.486 201.811ZM197.511 201.811L199.524 201.811L199.524 200.811L197.511 200.811L197.511 201.811ZM201.537 201.811L203.549 201.811L203.549 200.811L201.537 200.811L201.537 201.811ZM205.562 201.811L207.574 201.811L207.574 200.811L205.562 200.811L205.562 201.811ZM209.587 201.811L211.6 201.811L211.6 200.811L209.587 200.811L209.587 201.811ZM213.612 201.811L215.625 201.811L215.625 200.811L213.612 200.811L213.612 201.811ZM217.637 201.811L219.65 201.811L219.65 200.811L217.637 200.811L217.637 201.811ZM221.663 201.811L223.675 201.811L223.675 200.811L221.663 200.811L221.663 201.811ZM225.688 201.811L227.7 201.811L227.7 200.811L225.688 200.811L225.688 201.811ZM229.713 201.811L231.726 201.811L231.726 200.811L229.713 200.811L229.713 201.811ZM233.738 201.811L235.751 201.811L235.751 200.811L233.738 200.811L233.738 201.811ZM237.763 201.811L239.776 201.811L239.776 200.811L237.763 200.811L237.763 201.811ZM241.789 201.811L242.795 201.811L242.795 200.811L241.789 200.811L241.789 201.811Z" fill="#8200FF"/>
<path d="M483.247 256.564C483.247 255.091 482.053 253.897 480.58 253.897C479.107 253.897 477.913 255.091 477.913 256.564C477.913 258.036 479.107 259.23 480.58 259.23C482.053 259.23 483.247 258.036 483.247 256.564ZM480.58 201.465L481.08 201.465L481.08 200.965L480.58 200.965L480.58 201.465ZM320.347 201.112C320.152 201.307 320.152 201.624 320.347 201.819L323.529 205.001C323.724 205.196 324.041 205.196 324.236 205.001C324.431 204.806 324.431 204.489 324.236 204.294L321.408 201.465L324.236 198.637C324.431 198.442 324.431 198.125 324.236 197.93C324.041 197.735 323.724 197.735 323.529 197.93L320.347 201.112ZM481.08 256.564L481.08 255.58L480.08 255.58L480.08 256.564L481.08 256.564ZM481.08 253.612L481.08 251.644L480.08 251.644L480.08 253.612L481.08 253.612ZM481.08 249.676L481.08 247.709L480.08 247.709L480.08 249.676L481.08 249.676ZM481.08 245.741L481.08 243.773L480.08 243.773L480.08 245.741L481.08 245.741ZM481.08 241.805L481.08 239.837L480.08 239.837L480.08 241.805L481.08 241.805ZM481.08 237.87L481.08 235.902L480.08 235.902L480.08 237.87L481.08 237.87ZM481.08 233.934L481.08 231.966L480.08 231.966L480.08 233.934L481.08 233.934ZM481.08 229.998L481.08 228.031L480.08 228.031L480.08 229.998L481.08 229.998ZM481.08 226.063L481.08 224.095L480.08 224.095L480.08 226.063L481.08 226.063ZM481.08 222.127L481.08 220.159L480.08 220.159L480.08 222.127L481.08 222.127ZM481.08 218.192L481.08 216.224L480.08 216.224L480.08 218.192L481.08 218.192ZM481.08 214.256L481.08 212.288L480.08 212.288L480.08 214.256L481.08 214.256ZM481.08 210.32L481.08 208.353L480.08 208.353L480.08 210.32L481.08 210.32ZM481.08 206.385L481.08 204.417L480.08 204.417L480.08 206.385L481.08 206.385ZM481.08 202.449L481.08 201.465L480.08 201.465L480.08 202.449L481.08 202.449ZM480.58 200.965L479.581 200.965L479.581 201.965L480.58 201.965L480.58 200.965ZM477.582 200.965L475.584 200.965L475.584 201.965L477.582 201.965L477.582 200.965ZM473.585 200.965L471.587 200.965L471.587 201.965L473.585 201.965L473.585 200.965ZM469.588 200.965L467.59 200.965L467.59 201.965L469.588 201.965L469.588 200.965ZM465.591 200.965L463.593 200.965L463.593 201.965L465.591 201.965L465.591 200.965ZM461.594 200.965L459.596 200.965L459.596 201.965L461.594 201.965L461.594 200.965ZM457.597 200.965L455.599 200.965L455.599 201.965L457.597 201.965L457.597 200.965ZM453.6 200.965L451.602 200.965L451.602 201.965L453.6 201.965L453.6 200.965ZM449.603 200.965L447.605 200.965L447.605 201.965L449.603 201.965L449.603 200.965ZM445.606 200.965L443.608 200.965L443.608 201.965L445.606 201.965L445.606 200.965ZM441.609 200.965L439.611 200.965L439.611 201.965L441.609 201.965L441.609 200.965ZM437.612 200.965L435.614 200.965L435.614 201.965L437.612 201.965L437.612 200.965ZM433.615 200.965L431.617 200.965L431.617 201.965L433.615 201.965L433.615 200.965ZM429.619 200.965L427.62 200.965L427.62 201.965L429.619 201.965L429.619 200.965ZM425.622 200.965L423.623 200.965L423.623 201.965L425.622 201.965L425.622 200.965ZM421.625 200.965L419.626 200.965L419.626 201.965L421.625 201.965L421.625 200.965ZM417.628 200.965L415.629 200.965L415.629 201.965L417.628 201.965L417.628 200.965ZM413.631 200.965L411.632 200.965L411.632 201.965L413.631 201.965L413.631 200.965ZM409.634 200.965L407.635 200.965L407.635 201.965L409.634 201.965L409.634 200.965ZM405.637 200.965L403.638 200.965L403.638 201.965L405.637 201.965L405.637 200.965ZM401.64 200.965L399.641 200.965L399.641 201.965L401.64 201.965L401.64 200.965ZM397.643 200.965L395.644 200.965L395.644 201.965L397.643 201.965L397.643 200.965ZM393.646 200.965L391.647 200.965L391.647 201.965L393.646 201.965L393.646 200.965ZM389.649 200.965L387.65 200.965L387.65 201.965L389.649 201.965L389.649 200.965ZM385.652 200.965L383.653 200.965L383.653 201.965L385.652 201.965L385.652 200.965ZM381.655 200.965L379.656 200.965L379.656 201.965L381.655 201.965L381.655 200.965ZM377.658 200.965L375.659 200.965L375.659 201.965L377.658 201.965L377.658 200.965ZM373.661 200.965L371.662 200.965L371.662 201.965L373.661 201.965L373.661 200.965ZM369.664 200.965L367.665 200.965L367.665 201.965L369.664 201.965L369.664 200.965ZM365.667 200.965L363.668 200.965L363.668 201.965L365.667 201.965L365.667 200.965ZM361.67 200.965L359.671 200.965L359.671 201.965L361.67 201.965L361.67 200.965ZM357.673 200.965L355.674 200.965L355.674 201.965L357.673 201.965L357.673 200.965ZM353.676 200.965L351.677 200.965L351.677 201.965L353.676 201.965L353.676 200.965ZM349.679 200.965L347.68 200.965L347.68 201.965L349.679 201.965L349.679 200.965ZM345.682 200.965L343.683 200.965L343.683 201.965L345.682 201.965L345.682 200.965ZM341.685 200.965L339.686 200.965L339.686 201.965L341.685 201.965L341.685 200.965ZM337.688 200.965L335.689 200.965L335.689 201.965L337.688 201.965L337.688 200.965ZM333.691 200.965L331.692 200.965L331.692 201.965L333.691 201.965L333.691 200.965ZM329.694 200.965L327.696 200.965L327.696 201.965L329.694 201.965L329.694 200.965ZM325.697 200.965L323.699 200.965L323.699 201.965L325.697 201.965L325.697 200.965ZM321.7 200.965L320.701 200.965L320.701 201.965L321.7 201.965L321.7 200.965Z" fill="#8200FF"/>
<path d="M79.12 256.564C79.12 255.091 80.3139 253.897 81.7866 253.897C83.2594 253.897 84.4533 255.091 84.4533 256.564C84.4533 258.036 83.2594 259.23 81.7866 259.23C80.3139 259.23 79.12 258.036 79.12 256.564ZM81.7866 201.465L81.2866 201.465L81.2866 200.965L81.7866 200.965L81.7866 201.465ZM243.148 201.112C243.344 201.307 243.344 201.624 243.148 201.819L239.967 205.001C239.771 205.196 239.455 205.196 239.259 205.001C239.064 204.806 239.064 204.489 239.259 204.294L242.088 201.465L239.259 198.637C239.064 198.442 239.064 198.125 239.259 197.93C239.455 197.735 239.771 197.735 239.967 197.93L243.148 201.112ZM81.2866 256.564L81.2866 255.58L82.2866 255.58L82.2866 256.564L81.2866 256.564ZM81.2866 253.612L81.2866 251.644L82.2866 251.644L82.2866 253.612L81.2866 253.612ZM81.2866 249.676L81.2866 247.709L82.2866 247.709L82.2866 249.676L81.2866 249.676ZM81.2866 245.741L81.2866 243.773L82.2866 243.773L82.2866 245.741L81.2866 245.741ZM81.2866 241.805L81.2866 239.837L82.2866 239.837L82.2866 241.805L81.2866 241.805ZM81.2866 237.87L81.2866 235.902L82.2866 235.902L82.2866 237.87L81.2866 237.87ZM81.2866 233.934L81.2866 231.966L82.2866 231.966L82.2866 233.934L81.2866 233.934ZM81.2866 229.998L81.2866 228.031L82.2866 228.031L82.2866 229.998L81.2866 229.998ZM81.2866 226.063L81.2866 224.095L82.2866 224.095L82.2866 226.063L81.2866 226.063ZM81.2866 222.127L81.2866 220.159L82.2866 220.159L82.2866 222.127L81.2866 222.127ZM81.2866 218.192L81.2866 216.224L82.2866 216.224L82.2866 218.192L81.2866 218.192ZM81.2866 214.256L81.2866 212.288L82.2866 212.288L82.2866 214.256L81.2866 214.256ZM81.2866 210.32L81.2866 208.353L82.2866 208.353L82.2866 210.32L81.2866 210.32ZM81.2866 206.385L81.2866 204.417L82.2866 204.417L82.2866 206.385L81.2866 206.385ZM81.2866 202.449L81.2866 201.465L82.2866 201.465L82.2866 202.449L81.2866 202.449ZM81.7866 200.965L82.7929 200.965L82.7929 201.965L81.7866 201.965L81.7866 200.965ZM84.8055 200.965L86.8181 200.965L86.8181 201.965L84.8055 201.965L84.8055 200.965ZM88.8307 200.965L90.8433 200.965L90.8433 201.965L88.8307 201.965L88.8307 200.965ZM92.8559 200.965L94.8685 200.965L94.8685 201.965L92.8559 201.965L92.8559 200.965ZM96.8811 200.965L98.8938 200.965L98.8938 201.965L96.8811 201.965L96.8811 200.965ZM100.906 200.965L102.919 200.965L102.919 201.965L100.906 201.965L100.906 200.965ZM104.932 200.965L106.944 200.965L106.944 201.965L104.932 201.965L104.932 200.965ZM108.957 200.965L110.969 200.965L110.969 201.965L108.957 201.965L108.957 200.965ZM112.982 200.965L114.995 200.965L114.995 201.965L112.982 201.965L112.982 200.965ZM117.007 200.965L119.02 200.965L119.02 201.965L117.007 201.965L117.007 200.965ZM121.032 200.965L123.045 200.965L123.045 201.965L121.032 201.965L121.032 200.965ZM125.058 200.965L127.07 200.965L127.07 201.965L125.058 201.965L125.058 200.965ZM129.083 200.965L131.095 200.965L131.095 201.965L129.083 201.965L129.083 200.965ZM133.108 200.965L135.121 200.965L135.121 201.965L133.108 201.965L133.108 200.965ZM137.133 200.965L139.146 200.965L139.146 201.965L137.133 201.965L137.133 200.965ZM141.158 200.965L143.171 200.965L143.171 201.965L141.158 201.965L141.158 200.965ZM145.184 200.965L147.196 200.965L147.196 201.965L145.184 201.965L145.184 200.965ZM149.209 200.965L151.221 200.965L151.221 201.965L149.209 201.965L149.209 200.965ZM153.234 200.965L155.247 200.965L155.247 201.965L153.234 201.965L153.234 200.965ZM157.259 200.965L159.272 200.965L159.272 201.965L157.259 201.965L157.259 200.965ZM161.284 200.965L163.297 200.965L163.297 201.965L161.284 201.965L161.284 200.965ZM165.31 200.965L167.322 200.965L167.322 201.965L165.31 201.965L165.31 200.965ZM169.335 200.965L171.347 200.965L171.347 201.965L169.335 201.965L169.335 200.965ZM173.36 200.965L175.373 200.965L175.373 201.965L173.36 201.965L173.36 200.965ZM177.385 200.965L179.398 200.965L179.398 201.965L177.385 201.965L177.385 200.965ZM181.411 200.965L183.423 200.965L183.423 201.965L181.411 201.965L181.411 200.965ZM185.436 200.965L187.448 200.965L187.448 201.965L185.436 201.965L185.436 200.965ZM189.461 200.965L191.474 200.965L191.474 201.965L189.461 201.965L189.461 200.965ZM193.486 200.965L195.499 200.965L195.499 201.965L193.486 201.965L193.486 200.965ZM197.511 200.965L199.524 200.965L199.524 201.965L197.511 201.965L197.511 200.965ZM201.537 200.965L203.549 200.965L203.549 201.965L201.537 201.965L201.537 200.965ZM205.562 200.965L207.574 200.965L207.574 201.965L205.562 201.965L205.562 200.965ZM209.587 200.965L211.6 200.965L211.6 201.965L209.587 201.965L209.587 200.965ZM213.612 200.965L215.625 200.965L215.625 201.965L213.612 201.965L213.612 200.965ZM217.637 200.965L219.65 200.965L219.65 201.965L217.637 201.965L217.637 200.965ZM221.663 200.965L223.675 200.965L223.675 201.965L221.663 201.965L221.663 200.965ZM225.688 200.965L227.7 200.965L227.7 201.965L225.688 201.965L225.688 200.965ZM229.713 200.965L231.726 200.965L231.726 201.965L229.713 201.965L229.713 200.965ZM233.738 200.965L235.751 200.965L235.751 201.965L233.738 201.965L233.738 200.965ZM237.763 200.965L239.776 200.965L239.776 201.965L237.763 201.965L237.763 200.965ZM241.789 200.965L242.795 200.965L242.795 201.965L241.789 201.965L241.789 200.965Z" fill="#8200FF"/>
<g filter="url(#filter0_d_917_3206)">
<path d="M387.364 95.5022C387.364 82.2474 398.109 71.5022 411.364 71.5022H468.595C481.85 71.5022 492.595 82.2474 492.595 95.5022V122.213C492.595 135.467 481.85 146.213 468.595 146.213H411.364C398.109 146.213 387.364 135.467 387.364 122.213V95.5022Z" fill="white"/>
</g>
<path fill-rule="evenodd" clip-rule="evenodd" d="M435.639 97.7835C438.641 94.3829 443.613 93.3854 447.7 95.3482C453.131 97.9564 455.112 104.6 452.156 109.725L445.504 121.242C445.132 121.886 444.521 122.355 443.803 122.548C443.086 122.74 442.322 122.64 441.679 122.268L449.731 108.323C451.877 104.603 450.442 99.7819 446.504 97.8835C443.55 96.4593 439.939 97.1708 437.756 99.6202C436.552 100.965 435.877 102.701 435.854 104.507C435.831 106.312 436.464 108.065 437.634 109.439C437.844 109.686 438.07 109.918 438.311 110.135L433.61 118.291C433.426 118.61 433.181 118.889 432.889 119.113C432.598 119.337 432.265 119.502 431.91 119.597C431.554 119.692 431.184 119.717 430.819 119.669C430.455 119.621 430.103 119.501 429.785 119.317L434.888 110.463C434.155 109.405 433.629 108.218 433.337 106.964L430.209 112.4C429.837 113.044 429.226 113.513 428.508 113.706C427.791 113.898 427.027 113.798 426.384 113.427L434.471 99.4029C434.808 98.827 435.199 98.2847 435.639 97.7835ZM444.973 102.247C446.921 103.373 447.594 105.878 446.467 107.827L438.711 121.24C438.34 121.884 437.728 122.353 437.011 122.546C436.293 122.738 435.529 122.638 434.886 122.267L442.087 109.779C441.509 109.657 440.965 109.411 440.491 109.058C440.017 108.705 439.626 108.254 439.344 107.734C439.061 107.215 438.895 106.641 438.856 106.051C438.817 105.461 438.906 104.87 439.118 104.318C439.329 103.766 439.658 103.267 440.081 102.855C440.504 102.442 441.011 102.127 441.568 101.93C442.125 101.733 442.718 101.659 443.306 101.714C443.893 101.769 444.462 101.951 444.973 102.247ZM442.152 104.768C442.019 104.871 441.907 104.998 441.823 105.144C441.697 105.363 441.638 105.615 441.654 105.868C441.671 106.121 441.762 106.363 441.916 106.564C442.07 106.765 442.28 106.916 442.52 106.997C442.76 107.079 443.018 107.087 443.262 107.022C443.507 106.956 443.727 106.82 443.893 106.629C444.06 106.438 444.167 106.203 444.2 105.952C444.233 105.7 444.191 105.445 444.079 105.218C443.967 104.991 443.79 104.802 443.571 104.675C443.426 104.591 443.265 104.536 443.098 104.514C442.932 104.492 442.762 104.503 442.6 104.547C442.438 104.591 442.286 104.666 442.152 104.768Z" fill="#615EFF"/>
<g filter="url(#filter1_d_917_3206)">
<path d="M67.8213 95.5022C67.8213 82.2474 78.5665 71.5022 91.8213 71.5022H149.052C162.307 71.5022 173.052 82.2474 173.052 95.5022V122.213C173.052 135.467 162.307 146.213 149.052 146.213H91.8213C78.5665 146.213 67.8213 135.467 67.8213 122.213V95.5022Z" fill="white"/>
</g>
<path d="M131.595 96.7794C131.314 96.5922 130.997 96.4596 130.664 96.3891C130.322 96.3159 129.969 96.3027 129.622 96.35C129.258 96.3993 128.906 96.5083 128.58 96.6724L127.059 97.4878L125.536 98.3016L124.01 99.1156L122.487 99.9367C122.156 100.124 121.802 100.27 121.434 100.37C121.077 100.471 120.709 100.523 120.337 100.527C119.967 100.531 119.597 100.487 119.239 100.395C118.869 100.3 118.514 100.158 118.182 99.9729L116.705 99.1922L115.227 98.4116L113.749 97.6338L112.27 96.8532C111.722 96.5134 111.066 96.3763 110.423 96.4671C109.829 96.5568 109.279 96.8229 108.847 97.229C108.412 97.6297 108.116 98.1521 108 98.7238C107.882 99.3435 107.999 99.9842 108.329 100.527L108.847 101.449L109.989 103.473L111.13 105.497L111.65 106.419C111.843 106.736 111.992 107.076 112.096 107.431C112.194 107.778 112.244 108.135 112.245 108.495C112.244 108.855 112.194 109.214 112.096 109.562C112.004 109.928 111.862 110.28 111.675 110.61L110.864 112.08L110.051 113.546L109.239 115.011L108.426 116.476C108.29 116.717 108.184 116.973 108.113 117.238C108.046 117.489 108.017 117.748 108.024 118.007C108.034 118.262 108.085 118.514 108.173 118.753C108.263 119.005 108.392 119.241 108.557 119.453C108.758 119.721 109.008 119.952 109.294 120.133C109.578 120.316 109.893 120.45 110.225 120.527C110.566 120.608 110.918 120.63 111.267 120.592C111.63 120.552 111.983 120.447 112.309 120.284L113.891 119.442L115.471 118.6L117.051 117.757L118.632 116.914C118.157 116.583 117.717 116.205 117.321 115.787C116.923 115.367 116.559 114.918 116.23 114.445C115.898 113.971 115.595 113.477 115.313 112.974C115.062 112.525 114.828 112.072 114.604 111.621C115.001 112.343 115.856 113.111 116.968 113.882C118.32 114.785 119.73 115.606 121.187 116.339C122.72 117.131 124.293 117.88 125.652 118.542C127.01 119.204 128.162 119.778 128.845 120.216C129.397 120.533 130.052 120.634 130.677 120.497C131.257 120.357 131.777 120.044 132.165 119.603C132.572 119.156 132.836 118.604 132.926 118.013C133.019 117.389 132.887 116.753 132.551 116.213L131.616 114.571L129.57 110.957L127.523 107.343L126.599 105.719C126.401 105.395 126.187 105.082 125.955 104.78C125.725 104.483 125.477 104.201 125.211 103.934C124.947 103.668 124.665 103.421 124.366 103.192C124.062 102.96 123.741 102.75 123.404 102.565C123.927 102.796 124.458 103.036 124.979 103.295C125.504 103.552 126.014 103.835 126.509 104.144C127.003 104.451 127.47 104.796 127.908 105.176C128.349 105.562 128.746 105.993 129.091 106.462L129.931 104.968L130.773 103.473L131.616 101.975L132.457 100.48C132.597 100.256 132.703 100.012 132.77 99.7574C132.837 99.5049 132.866 99.2446 132.859 98.984C132.849 98.7209 132.798 98.4608 132.71 98.212C132.62 97.9574 132.489 97.7183 132.322 97.5037C132.131 97.2182 131.884 96.972 131.595 96.7794ZM112.094 117.718C112.116 118.024 112.002 118.324 111.781 118.542C111.56 118.761 111.253 118.876 110.938 118.86C110.294 118.866 109.768 118.363 109.763 117.738C109.758 117.113 110.275 116.602 110.919 116.596C111.233 116.575 111.542 116.685 111.767 116.9C111.992 117.114 112.111 117.412 112.094 117.718ZM109.789 99.2587C109.767 98.9531 109.882 98.6532 110.103 98.4348C110.324 98.2165 110.631 98.1005 110.946 98.1166C111.26 98.0955 111.569 98.2064 111.793 98.4212C112.018 98.6359 112.138 98.9341 112.121 99.2399C112.143 99.5455 112.029 99.8455 111.808 100.064C111.587 100.282 111.28 100.398 110.965 100.382C110.65 100.403 110.341 100.292 110.117 100.077C109.892 99.8626 109.773 99.5646 109.789 99.2587ZM131.112 117.684C131.117 118.142 130.836 118.558 130.402 118.738C129.967 118.918 129.464 118.825 129.128 118.504C128.791 118.182 128.687 117.695 128.864 117.27C129.041 116.845 129.464 116.565 129.936 116.562C130.25 116.54 130.559 116.651 130.784 116.865C131.009 117.08 131.128 117.378 131.112 117.684ZM123.224 108.06C122.881 107.513 122.314 107.299 121.634 107.307C120.705 107.337 119.883 107.901 119.543 108.741C119.204 109.582 119.411 110.538 120.071 111.174C119.334 111.083 118.665 110.708 118.214 110.135C117.763 109.561 117.567 108.835 117.671 108.121C117.889 106.688 119.355 105.575 120.829 105.776C122.076 105.981 123.101 106.85 123.224 108.06ZM131.195 99.1633C131.179 99.7738 130.668 100.262 130.039 100.268C129.41 100.273 128.89 99.7937 128.863 99.1835C128.879 98.573 129.39 98.0846 130.019 98.0792C130.648 98.0737 131.168 98.5532 131.195 99.1633Z" fill="#FF694B"/>
<g filter="url(#filter2_d_917_3206)">
<path d="M387.364 280.058C387.364 266.803 398.109 256.058 411.364 256.058H468.595C481.85 256.058 492.595 266.803 492.595 280.058V306.768C492.595 320.023 481.85 330.768 468.595 330.768H411.364C398.109 330.768 387.364 320.023 387.364 306.768V280.058Z" fill="white"/>
</g>
<path d="M451.247 287.985H443.442C442.818 287.91 442.343 287.361 442.343 286.713V278.523C442.343 277.824 441.776 277.263 441.083 277.263H438.352C437.653 277.263 437.092 277.83 437.092 278.523V286.799C437.058 287.424 436.542 287.928 435.924 287.985H433.88C433.278 287.91 432.815 287.406 432.774 286.799V278.523C432.774 277.824 432.208 277.263 431.515 277.263H428.783C428.085 277.263 427.523 277.83 427.523 278.523V289.245V302.424C427.523 303.123 428.09 303.684 428.783 303.684H431.515H438.352H441.083H451.253C451.952 303.684 452.513 303.117 452.513 302.424V289.245C452.507 288.546 451.946 287.985 451.247 287.985ZM447.651 297.023C447.651 297.722 447.084 298.283 446.392 298.283H443.66C442.961 298.283 442.4 297.716 442.4 297.023V294.446C442.4 293.747 442.967 293.185 443.66 293.185H446.392C447.09 293.185 447.651 293.752 447.651 294.446V297.023Z" fill="#FF6600"/>
<circle cx="376.104" cy="201.797" r="6.37573" fill="#F05757"/>
<circle cx="6.37573" cy="6.37573" r="6.37573" transform="matrix(-1 0 0 1 192.639 195.421)" fill="#F05757"/>
<circle cx="205.737" cy="294.475" r="6.37573" fill="#F05757"/>
<rect x="408.751" y="195.697" width="12.2545" height="12.2545" rx="4" fill="#076DCB"/>
<rect width="12.2545" height="12.2545" rx="4" transform="matrix(-1 0 0 1 153.616 195.697)" fill="#076DCB"/>
<rect x="240.895" y="288.531" width="12.2545" height="12.2545" rx="4" fill="#076DCB"/>
<rect x="447.276" y="195.697" width="12.2545" height="12.2545" rx="4" fill="#AA50FF"/>
<rect width="12.2545" height="12.2545" rx="4" transform="matrix(-1 0 0 1 115.09 195.697)" fill="#AA50FF"/>
<rect x="312.035" y="102.73" width="12.2545" height="12.2545" rx="4" fill="#AA50FF"/>
<rect width="12.2545" height="12.2545" rx="4" transform="matrix(-1 0 0 1 251.828 102.73)" fill="#AA50FF"/>
<rect x="342.523" y="287.286" width="12.2545" height="12.2545" rx="4" fill="#AA50FF"/>
<rect x="360.905" y="100.192" width="12.2545" height="12.2545" rx="4" transform="rotate(45 360.905 100.192)" fill="#ADE29B"/>
<rect width="12.2545" height="12.2545" rx="4" transform="matrix(-0.707107 0.707107 0.707107 0.707107 202.958 100.192)" fill="#ADE29B"/>
<rect x="312.035" y="284.777" width="12.2545" height="12.2545" rx="4" transform="rotate(45 312.035 284.777)" fill="#ADE29B"/>
<g filter="url(#filter3_d_917_3206)">
<path d="M67.8213 280.058C67.8213 266.803 78.5665 256.058 91.8213 256.058H149.052C162.307 256.058 173.052 266.803 173.052 280.058V306.768C173.052 320.023 162.307 330.768 149.052 330.768H91.8213C78.5665 330.768 67.8213 320.023 67.8213 306.768V280.058Z" fill="white"/>
</g>
<g clip-path="url(#clip0_917_3206)">
<path d="M126.225 294.821H129.855C130.139 294.821 130.422 294.594 130.422 294.254C130.422 294.197 130.422 294.084 130.366 294.027L124.126 277.01C124.013 276.84 123.842 276.67 123.615 276.67H119.985C119.702 276.67 119.418 276.897 119.418 277.237C119.418 277.294 119.418 277.351 119.475 277.407L125.771 294.538C125.828 294.708 125.998 294.821 126.225 294.821Z" fill="#0073FF"/>
<path d="M125.601 312.973H129.231C129.515 312.973 129.798 312.746 129.798 312.406C129.798 312.349 129.798 312.292 129.742 312.235L116.809 277.01C116.752 276.84 116.525 276.67 116.298 276.67H112.668C112.384 276.67 112.101 276.897 112.101 277.237C112.101 277.294 112.101 277.351 112.157 277.407L125.09 312.632C125.147 312.859 125.374 312.973 125.601 312.973Z" fill="#0073FF"/>
<path d="M118.397 312.973H122.027C122.311 312.973 122.538 312.746 122.594 312.462C122.594 312.406 122.594 312.292 122.538 312.235L116.241 295.162C116.185 294.935 115.958 294.821 115.731 294.821H112.044C111.76 294.821 111.533 295.105 111.533 295.389C111.533 295.445 111.533 295.502 111.59 295.559L117.83 312.632C118 312.859 118.17 312.973 118.397 312.973Z" fill="#0073FF"/>
<path d="M126.679 277.407L129.628 285.405C129.685 285.632 129.912 285.746 130.139 285.746H133.712C133.996 285.746 134.279 285.519 134.279 285.178C134.279 285.122 134.279 285.065 134.223 285.008L131.273 277.01C131.216 276.84 131.046 276.67 130.819 276.67H127.189C126.905 276.67 126.622 276.897 126.622 277.237C126.622 277.294 126.622 277.351 126.679 277.407Z" fill="#0073FF"/>
<path d="M111.704 312.973H115.334C115.618 312.973 115.901 312.746 115.901 312.406C115.901 312.349 115.901 312.292 115.844 312.235L112.895 304.237C112.838 304.011 112.611 303.897 112.384 303.897H108.754C108.47 303.897 108.187 304.124 108.187 304.464C108.187 304.521 108.187 304.578 108.243 304.634L111.193 312.632C111.25 312.859 111.477 312.973 111.704 312.973Z" fill="#0073FF"/>
</g>
<circle cx="205.784" cy="149.5" r="3.2877" fill="#AB9FE6" fill-opacity="0.2"/>
<circle cx="205.784" cy="168.287" r="3.2877" fill="#AB9FE6" fill-opacity="0.2"/>
<circle cx="205.784" cy="187.074" r="3.2877" fill="#AB9FE6" fill-opacity="0.2"/>
<circle cx="186.997" cy="205.861" r="3.2877" fill="#AB9FE6" fill-opacity="0.2"/>
<circle cx="262.145" cy="224.648" r="3.2877" fill="#AB9FE6" fill-opacity="0.2"/>
<circle cx="224.571" cy="243.435" r="3.2877" fill="#AB9FE6" fill-opacity="0.2"/>
<circle cx="186.997" cy="243.435" r="3.2877" fill="#AB9FE6" fill-opacity="0.2"/>
<circle cx="299.719" cy="168.287" r="3.2877" fill="#AB9FE6" fill-opacity="0.2"/>
<circle cx="299.719" cy="187.074" r="3.2877" fill="#AB9FE6" fill-opacity="0.2"/>
<circle cx="280.932" cy="205.861" r="3.2877" fill="#AB9FE6" fill-opacity="0.2"/>
<circle cx="356.079" cy="224.648" r="3.2877" fill="#AB9FE6" fill-opacity="0.2"/>
<circle cx="318.505" cy="243.435" r="3.2877" fill="#AB9FE6" fill-opacity="0.2"/>
<circle cx="243.358" cy="149.5" r="3.2877" fill="#AB9FE6" fill-opacity="0.2"/>
<circle cx="243.358" cy="168.287" r="3.2877" fill="#AB9FE6" fill-opacity="0.2"/>
<circle cx="243.358" cy="187.074" r="3.2877" fill="#AB9FE6" fill-opacity="0.2"/>
<circle cx="224.571" cy="205.861" r="3.2877" fill="#AB9FE6" fill-opacity="0.2"/>
<circle cx="299.719" cy="224.648" r="3.2877" fill="#AB9FE6" fill-opacity="0.2"/>
<circle cx="262.145" cy="243.435" r="3.2877" fill="#AB9FE6" fill-opacity="0.2"/>
<circle cx="337.292" cy="168.287" r="3.2877" fill="#AB9FE6" fill-opacity="0.2"/>
<circle cx="337.292" cy="187.074" r="3.2877" fill="#AB9FE6" fill-opacity="0.2"/>
<circle cx="318.505" cy="205.861" r="3.2877" fill="#AB9FE6" fill-opacity="0.2"/>
<circle cx="337.292" cy="205.861" r="3.2877" fill="#AB9FE6" fill-opacity="0.2"/>
<circle cx="356.079" cy="243.435" r="3.2877" fill="#AB9FE6" fill-opacity="0.2"/>
<circle cx="224.571" cy="149.5" r="3.2877" fill="#AB9FE6" fill-opacity="0.2"/>
<circle cx="224.571" cy="168.287" r="3.2877" fill="#AB9FE6" fill-opacity="0.2"/>
<circle cx="224.571" cy="187.074" r="3.2877" fill="#AB9FE6" fill-opacity="0.2"/>
<circle cx="205.784" cy="205.861" r="3.2877" fill="#AB9FE6" fill-opacity="0.2"/>
<circle cx="280.932" cy="224.648" r="3.2877" fill="#AB9FE6" fill-opacity="0.2"/>
<circle cx="243.358" cy="243.435" r="3.2877" fill="#AB9FE6" fill-opacity="0.2"/>
<circle cx="205.784" cy="243.435" r="3.2877" fill="#AB9FE6" fill-opacity="0.2"/>
<circle cx="318.505" cy="168.287" r="3.2877" fill="#AB9FE6" fill-opacity="0.2"/>
<circle cx="318.505" cy="187.074" r="3.2877" fill="#AB9FE6" fill-opacity="0.2"/>
<circle cx="299.719" cy="205.861" r="3.2877" fill="#AB9FE6" fill-opacity="0.2"/>
<circle cx="374.866" cy="224.648" r="3.2877" fill="#AB9FE6" fill-opacity="0.2"/>
<circle cx="337.292" cy="243.435" r="3.2877" fill="#AB9FE6" fill-opacity="0.2"/>
<circle cx="262.145" cy="149.5" r="3.2877" fill="#AB9FE6" fill-opacity="0.2"/>
<circle cx="262.145" cy="168.287" r="3.2877" fill="#AB9FE6" fill-opacity="0.2"/>
<circle cx="262.145" cy="187.074" r="3.2877" fill="#AB9FE6" fill-opacity="0.2"/>
<circle cx="243.358" cy="205.861" r="3.2877" fill="#AB9FE6" fill-opacity="0.2"/>
<circle cx="318.505" cy="224.648" r="3.2877" fill="#AB9FE6" fill-opacity="0.2"/>
<circle cx="280.932" cy="243.435" r="3.2877" fill="#AB9FE6" fill-opacity="0.2"/>
<circle cx="356.079" cy="168.287" r="3.2877" fill="#AB9FE6" fill-opacity="0.2"/>
<circle cx="280.932" cy="149.5" r="3.2877" fill="#AB9FE6" fill-opacity="0.2"/>
<circle cx="280.932" cy="168.287" r="3.2877" fill="#AB9FE6" fill-opacity="0.2"/>
<circle cx="280.932" cy="187.074" r="3.2877" fill="#AB9FE6" fill-opacity="0.2"/>
<circle cx="262.145" cy="205.861" r="3.2877" fill="#AB9FE6" fill-opacity="0.2"/>
<circle cx="337.292" cy="224.648" r="3.2877" fill="#AB9FE6" fill-opacity="0.2"/>
<circle cx="299.719" cy="243.435" r="3.2877" fill="#AB9FE6" fill-opacity="0.2"/>
<g filter="url(#filter4_d_917_3206)">
<path d="M239.156 175.526C239.156 168.346 244.976 162.526 252.156 162.526H308.793C315.973 162.526 321.793 168.346 321.793 175.526V224.236C321.793 231.416 315.973 237.236 308.793 237.236H252.156C244.976 237.236 239.156 231.416 239.156 224.236V175.526Z" fill="white"/>
</g>
<rect x="252.771" y="172.177" width="55.4072" height="55.4072" rx="4.27811" fill="#2C0059"/>
<path d="M279.114 195.431C279.865 194.68 281.083 194.68 281.835 195.431L284.924 198.52C285.675 199.272 285.675 200.49 284.924 201.241L281.835 204.33C281.083 205.082 279.865 205.082 279.114 204.33L276.025 201.241C275.273 200.49 275.273 199.272 276.025 198.52L279.114 195.431Z" fill="#A950FF"/>
<path d="M293.34 195.407C294.078 194.669 295.275 194.669 296.013 195.407L299.15 198.544C299.888 199.282 299.888 200.479 299.15 201.217L296.013 204.354C295.275 205.092 294.078 205.092 293.34 204.354L290.203 201.217C289.465 200.479 289.465 199.282 290.203 198.544L293.34 195.407Z" fill="#A950FF"/>
<path d="M279.138 181.205C279.876 180.467 281.073 180.467 281.811 181.205L284.948 184.343C285.686 185.081 285.686 186.277 284.948 187.015L281.811 190.153C281.073 190.89 279.876 190.89 279.138 190.153L276.001 187.015C275.263 186.277 275.263 185.081 276.001 184.343L279.138 181.205Z" fill="#E9C1FF"/>
<path d="M277.823 191.419C278.575 192.171 278.575 193.389 277.823 194.14L274.734 197.229C273.983 197.981 272.765 197.981 272.013 197.229L268.925 194.14C268.173 193.389 268.173 192.171 268.925 191.419L272.013 188.331C272.765 187.579 273.983 187.579 274.734 188.331L277.823 191.419Z" fill="#CD88FF"/>
<path d="M270.746 198.544C271.484 199.282 271.484 200.479 270.746 201.217L267.609 204.354C266.871 205.092 265.674 205.092 264.936 204.354L261.799 201.217C261.061 200.479 261.061 199.282 261.799 198.544L264.936 195.407C265.674 194.669 266.871 194.669 267.609 195.407L270.746 198.544Z" fill="#A950FF"/>
<path d="M292.025 191.419C292.776 192.171 292.776 193.389 292.025 194.14L288.936 197.229C288.185 197.981 286.966 197.981 286.215 197.229L283.126 194.14C282.375 193.389 282.375 192.171 283.126 191.419L286.215 188.331C286.966 187.579 288.185 187.579 288.936 188.331L292.025 191.419Z" fill="#CD88FF"/>
<path d="M283.514 211.705C285.193 213.384 285.193 216.106 283.514 217.784C281.835 219.463 279.114 219.463 277.435 217.784C275.756 216.106 275.756 213.384 277.435 211.705C279.114 210.026 281.835 210.026 283.514 211.705Z" fill="#F62E76"/>
<defs>
<filter id="filter0_d_917_3206" x="347.637" y="44.7473" width="184.685" height="154.164" filterUnits="userSpaceOnUse" color-interpolation-filters="sRGB">
<feFlood flood-opacity="0" result="BackgroundImageFix"/>
<feColorMatrix in="SourceAlpha" type="matrix" values="0 0 0 0 0 0 0 0 0 0 0 0 0 0 0 0 0 0 127 0" result="hardAlpha"/>
<feOffset dy="12.972"/>
<feGaussianBlur stdDeviation="19.8635"/>
<feComposite in2="hardAlpha" operator="out"/>
<feColorMatrix type="matrix" values="0 0 0 0 0.351796 0 0 0 0 0 0 0 0 0 0.691667 0 0 0 0.1 0"/>
<feBlend mode="normal" in2="BackgroundImageFix" result="effect1_dropShadow_917_3206"/>
<feBlend mode="normal" in="SourceGraphic" in2="effect1_dropShadow_917_3206" result="shape"/>
</filter>
<filter id="filter1_d_917_3206" x="28.0944" y="44.7473" width="184.685" height="154.164" filterUnits="userSpaceOnUse" color-interpolation-filters="sRGB">
<feFlood flood-opacity="0" result="BackgroundImageFix"/>
<feColorMatrix in="SourceAlpha" type="matrix" values="0 0 0 0 0 0 0 0 0 0 0 0 0 0 0 0 0 0 127 0" result="hardAlpha"/>
<feOffset dy="12.972"/>
<feGaussianBlur stdDeviation="19.8635"/>
<feComposite in2="hardAlpha" operator="out"/>
<feColorMatrix type="matrix" values="0 0 0 0 0.351796 0 0 0 0 0 0 0 0 0 0.691667 0 0 0 0.1 0"/>
<feBlend mode="normal" in2="BackgroundImageFix" result="effect1_dropShadow_917_3206"/>
<feBlend mode="normal" in="SourceGraphic" in2="effect1_dropShadow_917_3206" result="shape"/>
</filter>
<filter id="filter2_d_917_3206" x="347.637" y="229.303" width="184.685" height="154.164" filterUnits="userSpaceOnUse" color-interpolation-filters="sRGB">
<feFlood flood-opacity="0" result="BackgroundImageFix"/>
<feColorMatrix in="SourceAlpha" type="matrix" values="0 0 0 0 0 0 0 0 0 0 0 0 0 0 0 0 0 0 127 0" result="hardAlpha"/>
<feOffset dy="12.972"/>
<feGaussianBlur stdDeviation="19.8635"/>
<feComposite in2="hardAlpha" operator="out"/>
<feColorMatrix type="matrix" values="0 0 0 0 0.351796 0 0 0 0 0 0 0 0 0 0.691667 0 0 0 0.1 0"/>
<feBlend mode="normal" in2="BackgroundImageFix" result="effect1_dropShadow_917_3206"/>
<feBlend mode="normal" in="SourceGraphic" in2="effect1_dropShadow_917_3206" result="shape"/>
</filter>
<filter id="filter3_d_917_3206" x="28.0944" y="229.303" width="184.685" height="154.164" filterUnits="userSpaceOnUse" color-interpolation-filters="sRGB">
<feFlood flood-opacity="0" result="BackgroundImageFix"/>
<feColorMatrix in="SourceAlpha" type="matrix" values="0 0 0 0 0 0 0 0 0 0 0 0 0 0 0 0 0 0 127 0" result="hardAlpha"/>
<feOffset dy="12.972"/>
<feGaussianBlur stdDeviation="19.8635"/>
<feComposite in2="hardAlpha" operator="out"/>
<feColorMatrix type="matrix" values="0 0 0 0 0.351796 0 0 0 0 0 0 0 0 0 0.691667 0 0 0 0.1 0"/>
<feBlend mode="normal" in2="BackgroundImageFix" result="effect1_dropShadow_917_3206"/>
<feBlend mode="normal" in="SourceGraphic" in2="effect1_dropShadow_917_3206" result="shape"/>
</filter>
<filter id="filter4_d_917_3206" x="199.429" y="135.771" width="162.091" height="154.164" filterUnits="userSpaceOnUse" color-interpolation-filters="sRGB">
<feFlood flood-opacity="0" result="BackgroundImageFix"/>
<feColorMatrix in="SourceAlpha" type="matrix" values="0 0 0 0 0 0 0 0 0 0 0 0 0 0 0 0 0 0 127 0" result="hardAlpha"/>
<feOffset dy="12.972"/>
<feGaussianBlur stdDeviation="19.8635"/>
<feComposite in2="hardAlpha" operator="out"/>
<feColorMatrix type="matrix" values="0 0 0 0 0.351796 0 0 0 0 0 0 0 0 0 0.691667 0 0 0 0.1 0"/>
<feBlend mode="normal" in2="BackgroundImageFix" result="effect1_dropShadow_917_3206"/>
<feBlend mode="normal" in="SourceGraphic" in2="effect1_dropShadow_917_3206" result="shape"/>
</filter>
<radialGradient id="paint0_diamond_917_3206" cx="0" cy="0" r="1" gradientUnits="userSpaceOnUse" gradientTransform="translate(563.646 0.849618) rotate(141.902) scale(551.683 666.426)">
<stop offset="0.35225" stop-color="#E2E0FE" stop-opacity="0.4"/>
<stop offset="1" stop-color="#E2E0FE" stop-opacity="0"/>
</radialGradient>
<clipPath id="clip0_917_3206">
<rect width="42.1113" height="42.1113" fill="white" transform="translate(95.8438 269.409)"/>
</clipPath>
</defs>
</svg>
