<svg width="574" height="420" viewBox="0 0 574 420" fill="none" xmlns="http://www.w3.org/2000/svg">
<rect width="568" height="420" rx="12" fill="url(#paint0_diamond_628_8261)"/>
<circle cx="345.481" cy="43.4371" r="3.2877" fill="#AB9FE6" fill-opacity="0.2"/>
<circle cx="345.481" cy="62.2242" r="3.2877" fill="#AB9FE6" fill-opacity="0.2"/>
<circle cx="345.481" cy="81.0113" r="3.2877" fill="#AB9FE6" fill-opacity="0.2"/>
<circle cx="326.694" cy="99.7975" r="3.2877" fill="#AB9FE6" fill-opacity="0.2"/>
<circle cx="401.841" cy="118.585" r="3.2877" fill="#AB9FE6" fill-opacity="0.2"/>
<circle cx="364.267" cy="137.372" r="3.2877" fill="#AB9FE6" fill-opacity="0.2"/>
<circle cx="326.694" cy="137.372" r="3.2877" fill="#AB9FE6" fill-opacity="0.2"/>
<circle cx="439.416" cy="62.2242" r="3.2877" fill="#AB9FE6" fill-opacity="0.2"/>
<circle cx="439.416" cy="81.0113" r="3.2877" fill="#AB9FE6" fill-opacity="0.2"/>
<circle cx="420.629" cy="99.7975" r="3.2877" fill="#AB9FE6" fill-opacity="0.2"/>
<circle cx="495.776" cy="118.585" r="3.2877" fill="#AB9FE6" fill-opacity="0.2"/>
<circle cx="458.202" cy="137.372" r="3.2877" fill="#AB9FE6" fill-opacity="0.2"/>
<circle cx="383.054" cy="43.4371" r="3.2877" fill="#AB9FE6" fill-opacity="0.2"/>
<circle cx="383.054" cy="62.2242" r="3.2877" fill="#AB9FE6" fill-opacity="0.2"/>
<circle cx="383.054" cy="81.0113" r="3.2877" fill="#AB9FE6" fill-opacity="0.2"/>
<circle cx="364.267" cy="99.7975" r="3.2877" fill="#AB9FE6" fill-opacity="0.2"/>
<circle cx="439.416" cy="118.585" r="3.2877" fill="#AB9FE6" fill-opacity="0.2"/>
<circle cx="401.841" cy="137.372" r="3.2877" fill="#AB9FE6" fill-opacity="0.2"/>
<circle cx="476.989" cy="62.2242" r="3.2877" fill="#AB9FE6" fill-opacity="0.2"/>
<circle cx="476.989" cy="81.0113" r="3.2877" fill="#AB9FE6" fill-opacity="0.2"/>
<circle cx="458.202" cy="99.7975" r="3.2877" fill="#AB9FE6" fill-opacity="0.2"/>
<circle cx="476.989" cy="99.7975" r="3.2877" fill="#AB9FE6" fill-opacity="0.2"/>
<circle cx="495.776" cy="137.372" r="3.2877" fill="#AB9FE6" fill-opacity="0.2"/>
<circle cx="364.267" cy="43.4371" r="3.2877" fill="#AB9FE6" fill-opacity="0.2"/>
<circle cx="364.267" cy="62.2242" r="3.2877" fill="#AB9FE6" fill-opacity="0.2"/>
<circle cx="364.267" cy="81.0113" r="3.2877" fill="#AB9FE6" fill-opacity="0.2"/>
<circle cx="345.481" cy="99.7975" r="3.2877" fill="#AB9FE6" fill-opacity="0.2"/>
<circle cx="420.629" cy="118.585" r="3.2877" fill="#AB9FE6" fill-opacity="0.2"/>
<circle cx="383.054" cy="137.372" r="3.2877" fill="#AB9FE6" fill-opacity="0.2"/>
<circle cx="345.481" cy="137.372" r="3.2877" fill="#AB9FE6" fill-opacity="0.2"/>
<circle cx="458.202" cy="62.2242" r="3.2877" fill="#AB9FE6" fill-opacity="0.2"/>
<circle cx="458.202" cy="81.0113" r="3.2877" fill="#AB9FE6" fill-opacity="0.2"/>
<circle cx="439.416" cy="99.7975" r="3.2877" fill="#AB9FE6" fill-opacity="0.2"/>
<circle cx="514.563" cy="118.585" r="3.2877" fill="#AB9FE6" fill-opacity="0.2"/>
<circle cx="476.989" cy="137.372" r="3.2877" fill="#AB9FE6" fill-opacity="0.2"/>
<circle cx="401.841" cy="43.4371" r="3.2877" fill="#AB9FE6" fill-opacity="0.2"/>
<circle cx="401.841" cy="62.2242" r="3.2877" fill="#AB9FE6" fill-opacity="0.2"/>
<circle cx="401.841" cy="81.0113" r="3.2877" fill="#AB9FE6" fill-opacity="0.2"/>
<circle cx="383.054" cy="99.7975" r="3.2877" fill="#AB9FE6" fill-opacity="0.2"/>
<circle cx="458.202" cy="118.585" r="3.2877" fill="#AB9FE6" fill-opacity="0.2"/>
<circle cx="420.629" cy="137.372" r="3.2877" fill="#AB9FE6" fill-opacity="0.2"/>
<circle cx="495.776" cy="62.2242" r="3.2877" fill="#AB9FE6" fill-opacity="0.2"/>
<circle cx="420.629" cy="43.4371" r="3.2877" fill="#AB9FE6" fill-opacity="0.2"/>
<circle cx="420.629" cy="62.2242" r="3.2877" fill="#AB9FE6" fill-opacity="0.2"/>
<circle cx="420.629" cy="81.0113" r="3.2877" fill="#AB9FE6" fill-opacity="0.2"/>
<circle cx="401.841" cy="99.7975" r="3.2877" fill="#AB9FE6" fill-opacity="0.2"/>
<circle cx="476.989" cy="118.585" r="3.2877" fill="#AB9FE6" fill-opacity="0.2"/>
<circle cx="439.416" cy="137.372" r="3.2877" fill="#AB9FE6" fill-opacity="0.2"/>
<path fill-rule="evenodd" clip-rule="evenodd" d="M110.323 69.5776C109.66 69.5582 108.996 69.5716 108.335 69.6177L89.7329 88.2193C89.6869 88.8812 89.6735 89.545 89.6928 90.208L110.323 69.5776ZM90.2155 94.2166C90.0885 93.6751 89.9842 93.1293 89.9028 92.5807L112.696 69.7875C113.245 69.869 113.79 69.9732 114.332 70.1002L90.2155 94.2166ZM91.3432 97.6192C91.1426 97.1577 90.9602 96.6902 90.796 96.2177L116.333 70.6808C116.805 70.845 117.273 71.0274 117.734 71.2279L91.3432 97.6192ZM92.9296 100.564C92.6697 100.166 92.4254 99.7603 92.1966 99.3485L119.464 72.0814C119.876 72.3101 120.281 72.5544 120.679 72.8143L92.9296 100.564ZM94.9069 103.117C94.5942 102.774 94.2956 102.423 94.011 102.064L122.18 73.8958C122.538 74.1803 122.889 74.4789 123.232 74.7916L94.9069 103.117ZM97.2465 105.309C96.8887 105.023 96.5385 104.724 96.1965 104.41L124.526 76.0812C124.839 76.4232 125.139 76.7734 125.424 77.1312L97.2465 105.309ZM99.9556 107.13C99.5448 106.9 99.1403 106.655 98.743 106.394L126.509 78.6277C126.77 79.025 127.015 79.4295 127.245 79.8403L99.9556 107.13ZM103.078 108.538C102.607 108.373 102.141 108.189 101.681 107.988L128.103 81.5653C128.305 82.0256 128.488 82.4919 128.654 82.9632L103.078 108.538ZM106.706 109.442C106.159 109.359 105.615 109.253 105.075 109.125L129.24 84.9598C129.368 85.4997 129.474 86.0439 129.557 86.591L106.706 109.442ZM111.051 109.628C110.391 109.671 109.73 109.681 109.07 109.66L129.775 88.9549C129.797 89.6151 129.786 90.2761 129.743 90.9354L111.051 109.628ZM116.832 108.378C115.925 108.721 114.998 108.995 114.06 109.201L129.317 93.9446C129.11 94.8831 128.836 95.8096 128.493 96.7164L116.832 108.378ZM90.1764 85.1931L105.308 70.0611C104.361 70.2747 103.425 70.5578 102.51 70.9104L91.0257 82.3952C90.673 83.3099 90.3899 84.2453 90.1764 85.1931Z" fill="#EE81DE"/>
<circle cx="72.1412" cy="152.238" r="3.2877" fill="#AB9FE6" fill-opacity="0.2"/>
<circle cx="72.1412" cy="171.025" r="3.2877" fill="#AB9FE6" fill-opacity="0.2"/>
<circle cx="72.1412" cy="189.812" r="3.2877" fill="#AB9FE6" fill-opacity="0.2"/>
<circle cx="53.3541" cy="208.598" r="3.2877" fill="#AB9FE6" fill-opacity="0.2"/>
<circle cx="128.502" cy="227.385" r="3.2877" fill="#AB9FE6" fill-opacity="0.2"/>
<circle cx="90.9274" cy="246.172" r="3.2877" fill="#AB9FE6" fill-opacity="0.2"/>
<circle cx="53.3541" cy="246.172" r="3.2877" fill="#AB9FE6" fill-opacity="0.2"/>
<circle cx="166.076" cy="171.025" r="3.2877" fill="#AB9FE6" fill-opacity="0.2"/>
<circle cx="166.076" cy="189.812" r="3.2877" fill="#AB9FE6" fill-opacity="0.2"/>
<circle cx="147.289" cy="208.598" r="3.2877" fill="#AB9FE6" fill-opacity="0.2"/>
<circle cx="222.436" cy="227.385" r="3.2877" fill="#AB9FE6" fill-opacity="0.2"/>
<circle cx="184.862" cy="246.172" r="3.2877" fill="#AB9FE6" fill-opacity="0.2"/>
<circle cx="109.714" cy="152.238" r="3.2877" fill="#AB9FE6" fill-opacity="0.2"/>
<circle cx="109.714" cy="171.025" r="3.2877" fill="#AB9FE6" fill-opacity="0.2"/>
<circle cx="109.714" cy="189.812" r="3.2877" fill="#AB9FE6" fill-opacity="0.2"/>
<circle cx="90.9274" cy="208.598" r="3.2877" fill="#AB9FE6" fill-opacity="0.2"/>
<circle cx="166.076" cy="227.385" r="3.2877" fill="#AB9FE6" fill-opacity="0.2"/>
<circle cx="128.502" cy="246.172" r="3.2877" fill="#AB9FE6" fill-opacity="0.2"/>
<circle cx="203.649" cy="171.025" r="3.2877" fill="#AB9FE6" fill-opacity="0.2"/>
<circle cx="203.649" cy="189.812" r="3.2877" fill="#AB9FE6" fill-opacity="0.2"/>
<circle cx="184.862" cy="208.598" r="3.2877" fill="#AB9FE6" fill-opacity="0.2"/>
<circle cx="203.649" cy="208.598" r="3.2877" fill="#AB9FE6" fill-opacity="0.2"/>
<circle cx="222.436" cy="246.172" r="3.2877" fill="#AB9FE6" fill-opacity="0.2"/>
<circle cx="90.9274" cy="152.238" r="3.2877" fill="#AB9FE6" fill-opacity="0.2"/>
<circle cx="90.9274" cy="171.025" r="3.2877" fill="#AB9FE6" fill-opacity="0.2"/>
<circle cx="90.9274" cy="189.812" r="3.2877" fill="#AB9FE6" fill-opacity="0.2"/>
<circle cx="72.1412" cy="208.598" r="3.2877" fill="#AB9FE6" fill-opacity="0.2"/>
<circle cx="147.289" cy="227.385" r="3.2877" fill="#AB9FE6" fill-opacity="0.2"/>
<circle cx="109.714" cy="246.172" r="3.2877" fill="#AB9FE6" fill-opacity="0.2"/>
<circle cx="72.1412" cy="246.172" r="3.2877" fill="#AB9FE6" fill-opacity="0.2"/>
<circle cx="184.862" cy="171.025" r="3.2877" fill="#AB9FE6" fill-opacity="0.2"/>
<circle cx="184.862" cy="189.812" r="3.2877" fill="#AB9FE6" fill-opacity="0.2"/>
<circle cx="166.076" cy="208.598" r="3.2877" fill="#AB9FE6" fill-opacity="0.2"/>
<circle cx="241.223" cy="227.385" r="3.2877" fill="#AB9FE6" fill-opacity="0.2"/>
<circle cx="203.649" cy="246.172" r="3.2877" fill="#AB9FE6" fill-opacity="0.2"/>
<circle cx="128.502" cy="152.238" r="3.2877" fill="#AB9FE6" fill-opacity="0.2"/>
<circle cx="128.502" cy="171.025" r="3.2877" fill="#AB9FE6" fill-opacity="0.2"/>
<circle cx="128.502" cy="189.812" r="3.2877" fill="#AB9FE6" fill-opacity="0.2"/>
<circle cx="109.714" cy="208.598" r="3.2877" fill="#AB9FE6" fill-opacity="0.2"/>
<circle cx="184.862" cy="227.385" r="3.2877" fill="#AB9FE6" fill-opacity="0.2"/>
<circle cx="147.289" cy="246.172" r="3.2877" fill="#AB9FE6" fill-opacity="0.2"/>
<circle cx="222.436" cy="171.025" r="3.2877" fill="#AB9FE6" fill-opacity="0.2"/>
<circle cx="147.289" cy="152.238" r="3.2877" fill="#AB9FE6" fill-opacity="0.2"/>
<circle cx="147.289" cy="171.025" r="3.2877" fill="#AB9FE6" fill-opacity="0.2"/>
<circle cx="147.289" cy="189.812" r="3.2877" fill="#AB9FE6" fill-opacity="0.2"/>
<circle cx="128.502" cy="208.598" r="3.2877" fill="#AB9FE6" fill-opacity="0.2"/>
<circle cx="203.649" cy="227.385" r="3.2877" fill="#AB9FE6" fill-opacity="0.2"/>
<circle cx="166.076" cy="246.172" r="3.2877" fill="#AB9FE6" fill-opacity="0.2"/>
<path fill-rule="evenodd" clip-rule="evenodd" d="M398.36 284.041C400.079 282.759 401.871 281.621 403.721 280.629L386.129 298.221C387.121 296.371 388.258 294.579 389.54 292.861L398.36 284.041ZM383.934 302.997L408.497 278.435C409.478 278.055 410.471 277.713 411.472 277.408L382.907 305.973C383.212 304.971 383.555 303.979 383.934 302.997ZM381.56 311.852C381.685 311.051 381.833 310.253 382.004 309.459L414.959 276.504C415.753 276.333 416.551 276.185 417.351 276.06L381.56 311.852ZM381.072 316.87C381.099 316.176 381.142 315.483 381.202 314.791L420.29 275.703C420.982 275.643 421.676 275.599 422.369 275.573L381.072 316.87ZM381.131 321.342C381.091 320.72 381.064 320.097 381.05 319.474L424.974 275.551C425.597 275.564 426.22 275.591 426.842 275.632L381.131 321.342ZM381.59 325.413C381.499 324.845 381.419 324.275 381.35 323.705L429.204 275.85C429.775 275.919 430.345 275.999 430.913 276.091L381.59 325.413ZM382.368 329.167C382.235 328.642 382.112 328.116 381.998 327.588L433.087 276.499C433.615 276.612 434.142 276.735 434.666 276.869L382.368 329.167ZM383.413 332.653C383.244 332.165 383.084 331.676 382.934 331.184L436.683 277.434C437.175 277.585 437.665 277.745 438.152 277.914L383.413 332.653ZM384.692 335.904C384.491 335.45 384.299 334.993 384.115 334.533L440.032 278.615C440.492 278.799 440.949 278.992 441.404 279.192L384.692 335.904ZM386.181 338.947C385.952 338.522 385.73 338.094 385.516 337.663L443.163 280.016C443.593 280.23 444.021 280.452 444.446 280.681L386.181 338.947ZM387.864 341.794C387.607 341.397 387.359 340.996 387.117 340.592L446.092 281.617C446.496 281.859 446.896 282.108 447.294 282.364L387.864 341.794ZM389.729 344.46C389.447 344.089 389.173 343.714 388.905 343.336L448.835 283.405C449.214 283.673 449.589 283.948 449.96 284.229L389.729 344.46ZM391.767 346.952C391.462 346.606 391.162 346.255 390.87 345.901L451.401 285.37C451.755 285.663 452.105 285.962 452.452 286.268L391.767 346.952ZM393.975 349.276C393.86 349.164 393.746 349.051 393.633 348.938C393.421 348.726 393.212 348.512 393.005 348.297L453.796 287.506C454.012 287.712 454.225 287.922 454.437 288.133C454.551 288.247 454.663 288.361 454.775 288.475L393.975 349.276ZM396.349 351.433C395.998 351.137 395.651 350.835 395.307 350.526L456.026 289.808C456.334 290.151 456.637 290.499 456.933 290.849L396.349 351.433ZM398.892 353.42C398.517 353.149 398.145 352.872 397.777 352.587L458.086 292.277C458.371 292.646 458.649 293.017 458.92 293.392L398.892 353.42ZM401.612 355.232C401.211 354.987 400.814 354.734 400.42 354.475L459.975 294.921C460.234 295.315 460.486 295.712 460.731 296.112L401.612 355.232ZM404.516 356.858C404.089 356.64 403.665 356.415 403.244 356.182L461.681 297.744C461.914 298.165 462.14 298.59 462.357 299.017L404.516 356.858ZM407.62 358.286C407.164 358.098 406.71 357.901 406.26 357.697L463.196 300.76C463.401 301.211 463.597 301.664 463.785 302.12L407.62 358.286ZM410.939 359.497C410.451 359.341 409.966 359.177 409.483 359.004L464.503 303.984C464.677 304.466 464.841 304.952 464.996 305.439L410.939 359.497ZM414.501 360.466C413.978 360.347 413.457 360.219 412.937 360.081L465.581 307.438C465.719 307.957 465.847 308.478 465.965 309.002L414.501 360.466ZM418.343 361.154C417.778 361.079 417.215 360.993 416.653 360.896L466.395 311.153C466.493 311.715 466.579 312.279 466.654 312.843L418.343 361.154ZM422.524 361.504C421.909 361.483 421.294 361.448 420.68 361.4L466.9 315.18C466.948 315.794 466.982 316.409 467.004 317.025L422.524 361.504ZM427.141 361.419C426.459 361.468 425.777 361.501 425.094 361.518L467.017 319.594C467 320.277 466.968 320.96 466.918 321.641L427.141 361.419ZM432.371 360.719C431.593 360.872 430.812 361.004 430.028 361.113L466.613 324.529C466.503 325.312 466.372 326.094 466.219 326.871L432.371 360.719ZM438.635 358.987C437.687 359.328 436.73 359.635 435.765 359.907L465.407 330.266C465.134 331.231 464.827 332.188 464.486 333.135L438.635 358.987ZM447.729 354.423C446.242 355.407 444.707 356.289 443.135 357.068L462.568 337.635C461.788 339.208 460.906 340.742 459.922 342.229L447.729 354.423Z" fill="#8200FF"/>
<g filter="url(#filter0_d_628_8261)">
<rect x="68.1416" y="91.8867" width="412.15" height="123.968" rx="10" fill="white"/>
</g>
<g filter="url(#filter1_d_628_8261)">
<rect x="406.819" y="46.8457" width="127.027" height="76.3785" rx="10" fill="white"/>
</g>
<circle cx="420.486" cy="60.2314" r="2.9541" fill="#ED4F4F"/>
<circle cx="430.714" cy="60.2314" r="2.9541" fill="#F8D45C"/>
<circle cx="440.94" cy="60.2314" r="2.9541" fill="#8EF85C"/>
<rect x="420.486" y="75.1348" width="10.3635" height="4.56546" rx="2.28273" fill="#6F20C7"/>
<rect x="456.938" y="75.1348" width="32.9503" height="4.56546" rx="2.28273" fill="#FACA84"/>
<rect x="435.027" y="75.1348" width="17.7344" height="4.56546" rx="2.28273" fill="#52D7BD"/>
<rect x="435.027" y="85.0352" width="10.4717" height="4.56546" rx="2.28273" fill="#52D7BD"/>
<rect x="435.027" y="104.833" width="10.4717" height="4.56546" rx="2.28273" fill="#52D7BD"/>
<rect x="435.027" y="94.9336" width="24.2661" height="4.56546" rx="2.28273" fill="#52D7BD"/>
<rect x="420.486" y="85.0352" width="10.3635" height="4.56546" rx="2.28273" fill="#6F20C7"/>
<rect x="449.676" y="85.0352" width="62.0676" height="4.56546" rx="2.28273" fill="#FACA84"/>
<rect x="420.486" y="94.9336" width="10.3635" height="4.56546" rx="2.28273" fill="#6F20C7"/>
<rect x="462.338" y="94.9336" width="32.9503" height="4.56546" rx="2.28273" fill="#FACA84"/>
<rect x="420.486" y="104.834" width="10.3635" height="4.56546" rx="2.28273" fill="#6F20C7"/>
<rect x="449.676" y="104.834" width="32.9503" height="4.56546" rx="2.28273" fill="#FACA84"/>
<path d="M456.591 63.2815C456.207 63.2815 455.853 63.2122 455.527 63.0735C455.207 62.9295 454.927 62.7402 454.687 62.5055L455.087 62.0415C455.285 62.2389 455.514 62.3989 455.775 62.5215C456.042 62.6389 456.325 62.6975 456.623 62.6975C456.986 62.6975 457.266 62.6202 457.463 62.4655C457.666 62.3109 457.767 62.1109 457.767 61.8655C457.767 61.6789 457.725 61.5295 457.639 61.4175C457.559 61.3055 457.447 61.2122 457.303 61.1375C457.165 61.0629 457.005 60.9882 456.823 60.9135L456.071 60.5855C455.895 60.5109 455.719 60.4175 455.543 60.3055C455.373 60.1935 455.229 60.0522 455.111 59.8815C454.994 59.7055 454.935 59.4895 454.935 59.2335C454.935 58.9669 455.007 58.7295 455.151 58.5215C455.301 58.3082 455.506 58.1429 455.767 58.0255C456.029 57.9029 456.325 57.8415 456.655 57.8415C456.986 57.8415 457.29 57.9029 457.567 58.0255C457.845 58.1429 458.079 58.2975 458.271 58.4895L457.919 58.9215C457.749 58.7669 457.559 58.6469 457.351 58.5615C457.143 58.4709 456.903 58.4255 456.631 58.4255C456.327 58.4255 456.082 58.4949 455.895 58.6335C455.709 58.7669 455.615 58.9535 455.615 59.1935C455.615 59.3589 455.661 59.4949 455.751 59.6015C455.847 59.7082 455.967 59.7962 456.111 59.8655C456.255 59.9349 456.402 60.0015 456.551 60.0655L457.287 60.3855C457.506 60.4709 457.703 60.5749 457.879 60.6975C458.055 60.8149 458.194 60.9615 458.295 61.1375C458.397 61.3135 458.447 61.5295 458.447 61.7855C458.447 62.0629 458.373 62.3162 458.223 62.5455C458.074 62.7695 457.861 62.9482 457.583 63.0815C457.306 63.2149 456.975 63.2815 456.591 63.2815ZM461.348 63.2815C461.007 63.2815 460.69 63.2015 460.396 63.0415C460.108 62.8815 459.874 62.6495 459.692 62.3455C459.516 62.0415 459.428 61.6762 459.428 61.2495C459.428 60.8122 459.516 60.4415 459.692 60.1375C459.874 59.8335 460.108 59.6015 460.396 59.4415C460.69 59.2815 461.007 59.2015 461.348 59.2015C461.69 59.2015 462.004 59.2815 462.292 59.4415C462.586 59.6015 462.82 59.8335 462.996 60.1375C463.178 60.4415 463.268 60.8122 463.268 61.2495C463.268 61.6762 463.178 62.0415 462.996 62.3455C462.82 62.6495 462.586 62.8815 462.292 63.0415C462.004 63.2015 461.69 63.2815 461.348 63.2815ZM461.348 62.7375C461.599 62.7375 461.818 62.6762 462.004 62.5535C462.191 62.4255 462.335 62.2495 462.436 62.0255C462.538 61.8015 462.588 61.5429 462.588 61.2495C462.588 60.9509 462.538 60.6895 462.436 60.4655C462.335 60.2362 462.191 60.0602 462.004 59.9375C461.818 59.8095 461.599 59.7455 461.348 59.7455C461.098 59.7455 460.879 59.8095 460.692 59.9375C460.511 60.0602 460.367 60.2362 460.26 60.4655C460.159 60.6895 460.108 60.9509 460.108 61.2495C460.108 61.5429 460.159 61.8015 460.26 62.0255C460.367 62.2495 460.511 62.4255 460.692 62.5535C460.879 62.6762 461.098 62.7375 461.348 62.7375ZM465.713 63.2815C465.249 63.2815 464.908 63.1482 464.689 62.8815C464.47 62.6149 464.361 62.2255 464.361 61.7135V59.2975H465.025V61.6255C465.025 61.9935 465.092 62.2682 465.225 62.4495C465.364 62.6255 465.596 62.7135 465.921 62.7135C466.145 62.7135 466.348 62.6575 466.529 62.5455C466.716 62.4282 466.916 62.2442 467.129 61.9935V59.2975H467.785V63.1855H467.249L467.193 62.5055H467.161C466.964 62.7295 466.748 62.9162 466.513 63.0655C466.278 63.2095 466.012 63.2815 465.713 63.2815ZM469.71 63.1855V59.2975H470.254L470.31 60.2175H470.334C470.537 59.9029 470.787 59.6549 471.086 59.4735C471.385 59.2922 471.713 59.2015 472.07 59.2015C472.214 59.2015 472.347 59.2149 472.47 59.2415C472.598 59.2629 472.721 59.3029 472.838 59.3615L472.686 59.9295C472.553 59.8815 472.438 59.8469 472.342 59.8255C472.246 59.8042 472.121 59.7935 471.966 59.7935C471.673 59.7935 471.39 59.8789 471.118 60.0495C470.851 60.2149 470.601 60.5002 470.366 60.9055V63.1855H469.71ZM476.107 63.2815C475.702 63.2815 475.336 63.2015 475.011 63.0415C474.691 62.8815 474.438 62.6495 474.251 62.3455C474.07 62.0415 473.979 61.6762 473.979 61.2495C473.979 60.8122 474.078 60.4415 474.275 60.1375C474.472 59.8335 474.734 59.6015 475.059 59.4415C475.39 59.2815 475.752 59.2015 476.147 59.2015C476.467 59.2015 476.742 59.2575 476.971 59.3695C477.206 59.4815 477.403 59.6149 477.563 59.7695L477.235 60.1935C477.075 60.0549 476.91 59.9455 476.739 59.8655C476.568 59.7855 476.379 59.7455 476.171 59.7455C475.872 59.7455 475.608 59.8095 475.379 59.9375C475.15 60.0602 474.971 60.2362 474.843 60.4655C474.72 60.6895 474.659 60.9509 474.659 61.2495C474.659 61.5429 474.72 61.8015 474.843 62.0255C474.966 62.2495 475.139 62.4255 475.363 62.5535C475.592 62.6762 475.856 62.7375 476.155 62.7375C476.395 62.7375 476.614 62.6895 476.811 62.5935C477.014 62.4975 477.195 62.3829 477.355 62.2495L477.651 62.6735C477.438 62.8655 477.198 63.0149 476.931 63.1215C476.67 63.2282 476.395 63.2815 476.107 63.2815ZM480.776 63.2815C480.386 63.2815 480.032 63.2015 479.712 63.0415C479.397 62.8815 479.146 62.6495 478.96 62.3455C478.773 62.0362 478.68 61.6655 478.68 61.2335C478.68 60.8122 478.773 60.4495 478.96 60.1455C479.146 59.8415 479.389 59.6095 479.688 59.4495C479.992 59.2842 480.317 59.2015 480.664 59.2015C481.037 59.2015 481.354 59.2789 481.616 59.4335C481.882 59.5829 482.085 59.7935 482.224 60.0655C482.368 60.3375 482.44 60.6575 482.44 61.0255C482.44 61.1002 482.437 61.1722 482.432 61.2415C482.426 61.3109 482.418 61.3722 482.408 61.4255H479.12V60.9135H482.016L481.848 61.0975C481.848 60.6389 481.741 60.2949 481.528 60.0655C481.32 59.8362 481.037 59.7215 480.68 59.7215C480.44 59.7215 480.216 59.7802 480.008 59.8975C479.805 60.0149 479.642 60.1855 479.52 60.4095C479.397 60.6335 479.336 60.9082 479.336 61.2335C479.336 61.5695 479.402 61.8495 479.536 62.0735C479.669 62.2975 479.85 62.4682 480.08 62.5855C480.309 62.6975 480.568 62.7535 480.856 62.7535C481.09 62.7535 481.301 62.7215 481.488 62.6575C481.68 62.5882 481.864 62.4975 482.04 62.3855L482.28 62.8175C482.088 62.9455 481.866 63.0549 481.616 63.1455C481.37 63.2362 481.09 63.2815 480.776 63.2815ZM485.413 63.2815C485.034 63.2815 484.679 63.2202 484.349 63.0975C484.018 62.9749 483.735 62.8335 483.501 62.6735L483.805 62.2415C484.029 62.4015 484.277 62.5295 484.549 62.6255C484.821 62.7215 485.135 62.7695 485.493 62.7695C485.823 62.7695 486.069 62.7082 486.229 62.5855C486.394 62.4629 486.477 62.3215 486.477 62.1615C486.477 62.0869 486.461 62.0175 486.429 61.9535C486.402 61.8895 486.346 61.8282 486.261 61.7695C486.181 61.7109 486.061 61.6549 485.901 61.6015C485.741 61.5482 485.527 61.4949 485.261 61.4415C484.754 61.3349 484.373 61.1909 484.117 61.0095C483.866 60.8282 483.741 60.5935 483.741 60.3055C483.741 59.9909 483.877 59.7295 484.149 59.5215C484.421 59.3082 484.823 59.2015 485.357 59.2015C485.655 59.2015 485.943 59.2522 486.221 59.3535C486.498 59.4495 486.733 59.5642 486.925 59.6975L486.605 60.1215C486.429 59.9935 486.229 59.8949 486.005 59.8255C485.781 59.7509 485.546 59.7135 485.301 59.7135C485.077 59.7135 484.898 59.7402 484.765 59.7935C484.637 59.8415 484.543 59.9082 484.485 59.9935C484.431 60.0789 484.405 60.1722 484.405 60.2735C484.405 60.4389 484.493 60.5695 484.669 60.6655C484.85 60.7562 485.138 60.8415 485.533 60.9215C485.965 61.0122 486.295 61.1135 486.525 61.2255C486.759 61.3375 486.919 61.4655 487.005 61.6095C487.095 61.7535 487.141 61.9242 487.141 62.1215C487.141 62.3349 487.074 62.5295 486.941 62.7055C486.807 62.8762 486.613 63.0149 486.357 63.1215C486.101 63.2282 485.786 63.2815 485.413 63.2815Z" fill="#450088"/>
<path d="M259.072 112.875V108.187H257.344V107.627H261.472V108.187H259.744V112.875H259.072ZM262.973 112.875V108.987H263.517L263.573 109.907H263.597C263.8 109.592 264.051 109.344 264.349 109.163C264.648 108.982 264.976 108.891 265.333 108.891C265.477 108.891 265.611 108.904 265.733 108.931C265.861 108.952 265.984 108.992 266.101 109.051L265.949 109.619C265.816 109.571 265.701 109.536 265.605 109.515C265.509 109.494 265.384 109.483 265.229 109.483C264.936 109.483 264.653 109.568 264.381 109.739C264.115 109.904 263.864 110.19 263.629 110.595V112.875H262.973ZM269.13 112.875V109.523H267.322V108.987H269.786V112.875H269.13ZM269.386 108.171C269.237 108.171 269.111 108.126 269.01 108.035C268.909 107.939 268.858 107.814 268.858 107.659C268.858 107.504 268.909 107.382 269.01 107.291C269.111 107.195 269.237 107.147 269.386 107.147C269.535 107.147 269.661 107.195 269.762 107.291C269.863 107.382 269.914 107.504 269.914 107.659C269.914 107.814 269.863 107.939 269.762 108.035C269.661 108.126 269.535 108.171 269.386 108.171ZM273.767 114.667C273.388 114.667 273.066 114.624 272.799 114.539C272.532 114.454 272.327 114.331 272.183 114.171C272.044 114.011 271.975 113.816 271.975 113.587C271.975 113.432 272.028 113.278 272.135 113.123C272.247 112.974 272.407 112.84 272.615 112.723V112.691C272.514 112.632 272.42 112.552 272.335 112.451C272.255 112.35 272.215 112.216 272.215 112.051C272.215 111.928 272.255 111.803 272.335 111.675C272.415 111.542 272.53 111.424 272.679 111.323V111.291C272.546 111.19 272.431 111.054 272.335 110.883C272.244 110.712 272.199 110.512 272.199 110.283C272.199 110 272.268 109.755 272.407 109.547C272.551 109.339 272.738 109.179 272.967 109.067C273.202 108.95 273.455 108.891 273.727 108.891C273.946 108.891 274.138 108.923 274.303 108.987H275.911V109.523H274.903C274.994 109.614 275.071 109.728 275.135 109.867C275.199 110.006 275.231 110.152 275.231 110.307C275.231 110.584 275.164 110.824 275.031 111.027C274.898 111.224 274.716 111.376 274.487 111.483C274.263 111.59 274.01 111.643 273.727 111.643C273.626 111.643 273.516 111.632 273.399 111.611C273.287 111.584 273.178 111.547 273.071 111.499C272.975 111.558 272.9 111.624 272.847 111.699C272.794 111.774 272.767 111.856 272.767 111.947C272.767 112.096 272.836 112.208 272.975 112.283C273.119 112.358 273.319 112.395 273.575 112.395H274.447C274.948 112.395 275.319 112.464 275.559 112.603C275.804 112.742 275.927 112.976 275.927 113.307C275.927 113.547 275.839 113.771 275.663 113.979C275.487 114.187 275.236 114.352 274.911 114.475C274.591 114.603 274.21 114.667 273.767 114.667ZM273.727 111.203C273.892 111.203 274.042 111.166 274.175 111.091C274.314 111.016 274.423 110.91 274.503 110.771C274.583 110.632 274.623 110.47 274.623 110.283C274.623 110.102 274.583 109.944 274.503 109.811C274.423 109.672 274.314 109.566 274.175 109.491C274.042 109.411 273.892 109.371 273.727 109.371C273.567 109.371 273.418 109.411 273.279 109.491C273.146 109.566 273.036 109.672 272.951 109.811C272.871 109.944 272.831 110.102 272.831 110.283C272.831 110.47 272.871 110.632 272.951 110.771C273.036 110.91 273.146 111.016 273.279 111.091C273.418 111.166 273.567 111.203 273.727 111.203ZM273.815 114.187C274.119 114.187 274.38 114.15 274.599 114.075C274.818 114 274.986 113.904 275.103 113.787C275.22 113.67 275.279 113.544 275.279 113.411C275.279 113.224 275.204 113.099 275.055 113.035C274.911 112.971 274.69 112.939 274.391 112.939H273.631C273.519 112.939 273.412 112.934 273.311 112.923C273.215 112.912 273.124 112.896 273.039 112.875C272.858 112.976 272.73 113.08 272.655 113.187C272.58 113.299 272.543 113.411 272.543 113.523C272.543 113.726 272.65 113.886 272.863 114.003C273.082 114.126 273.399 114.187 273.815 114.187ZM278.564 114.667C278.185 114.667 277.862 114.624 277.596 114.539C277.329 114.454 277.124 114.331 276.98 114.171C276.841 114.011 276.772 113.816 276.772 113.587C276.772 113.432 276.825 113.278 276.932 113.123C277.044 112.974 277.204 112.84 277.412 112.723V112.691C277.31 112.632 277.217 112.552 277.132 112.451C277.052 112.35 277.012 112.216 277.012 112.051C277.012 111.928 277.052 111.803 277.132 111.675C277.212 111.542 277.326 111.424 277.476 111.323V111.291C277.342 111.19 277.228 111.054 277.132 110.883C277.041 110.712 276.996 110.512 276.996 110.283C276.996 110 277.065 109.755 277.204 109.547C277.348 109.339 277.534 109.179 277.764 109.067C277.998 108.95 278.252 108.891 278.524 108.891C278.742 108.891 278.934 108.923 279.1 108.987H280.708V109.523H279.7C279.79 109.614 279.868 109.728 279.932 109.867C279.996 110.006 280.028 110.152 280.028 110.307C280.028 110.584 279.961 110.824 279.828 111.027C279.694 111.224 279.513 111.376 279.284 111.483C279.06 111.59 278.806 111.643 278.524 111.643C278.422 111.643 278.313 111.632 278.196 111.611C278.084 111.584 277.974 111.547 277.868 111.499C277.772 111.558 277.697 111.624 277.644 111.699C277.59 111.774 277.564 111.856 277.564 111.947C277.564 112.096 277.633 112.208 277.772 112.283C277.916 112.358 278.116 112.395 278.372 112.395H279.244C279.745 112.395 280.116 112.464 280.356 112.603C280.601 112.742 280.724 112.976 280.724 113.307C280.724 113.547 280.636 113.771 280.46 113.979C280.284 114.187 280.033 114.352 279.708 114.475C279.388 114.603 279.006 114.667 278.564 114.667ZM278.524 111.203C278.689 111.203 278.838 111.166 278.972 111.091C279.11 111.016 279.22 110.91 279.3 110.771C279.38 110.632 279.42 110.47 279.42 110.283C279.42 110.102 279.38 109.944 279.3 109.811C279.22 109.672 279.11 109.566 278.972 109.491C278.838 109.411 278.689 109.371 278.524 109.371C278.364 109.371 278.214 109.411 278.076 109.491C277.942 109.566 277.833 109.672 277.748 109.811C277.668 109.944 277.628 110.102 277.628 110.283C277.628 110.47 277.668 110.632 277.748 110.771C277.833 110.91 277.942 111.016 278.076 111.091C278.214 111.166 278.364 111.203 278.524 111.203ZM278.612 114.187C278.916 114.187 279.177 114.15 279.396 114.075C279.614 114 279.782 113.904 279.9 113.787C280.017 113.67 280.076 113.544 280.076 113.411C280.076 113.224 280.001 113.099 279.852 113.035C279.708 112.971 279.486 112.939 279.188 112.939H278.428C278.316 112.939 278.209 112.934 278.108 112.923C278.012 112.912 277.921 112.896 277.836 112.875C277.654 112.976 277.526 113.08 277.452 113.187C277.377 113.299 277.34 113.411 277.34 113.523C277.34 113.726 277.446 113.886 277.66 114.003C277.878 114.126 278.196 114.187 278.612 114.187ZM283.633 112.971C283.243 112.971 282.889 112.891 282.569 112.731C282.254 112.571 282.003 112.339 281.817 112.035C281.63 111.726 281.537 111.355 281.537 110.923C281.537 110.502 281.63 110.139 281.817 109.835C282.003 109.531 282.246 109.299 282.545 109.139C282.849 108.974 283.174 108.891 283.521 108.891C283.894 108.891 284.211 108.968 284.473 109.123C284.739 109.272 284.942 109.483 285.081 109.755C285.225 110.027 285.297 110.347 285.297 110.715C285.297 110.79 285.294 110.862 285.289 110.931C285.283 111 285.275 111.062 285.265 111.115H281.977V110.603H284.873L284.705 110.787C284.705 110.328 284.598 109.984 284.385 109.755C284.177 109.526 283.894 109.411 283.537 109.411C283.297 109.411 283.073 109.47 282.865 109.587C282.662 109.704 282.499 109.875 282.377 110.099C282.254 110.323 282.193 110.598 282.193 110.923C282.193 111.259 282.259 111.539 282.393 111.763C282.526 111.987 282.707 112.158 282.937 112.275C283.166 112.387 283.425 112.443 283.713 112.443C283.947 112.443 284.158 112.411 284.345 112.347C284.537 112.278 284.721 112.187 284.897 112.075L285.137 112.507C284.945 112.635 284.723 112.744 284.473 112.835C284.227 112.926 283.947 112.971 283.633 112.971ZM286.958 112.875V108.987H287.502L287.558 109.907H287.582C287.784 109.592 288.035 109.344 288.334 109.163C288.632 108.982 288.96 108.891 289.318 108.891C289.462 108.891 289.595 108.904 289.718 108.931C289.846 108.952 289.968 108.992 290.086 109.051L289.934 109.619C289.8 109.571 289.686 109.536 289.59 109.515C289.494 109.494 289.368 109.483 289.214 109.483C288.92 109.483 288.638 109.568 288.366 109.739C288.099 109.904 287.848 110.19 287.614 110.595V112.875H286.958ZM293.066 112.971C292.688 112.971 292.333 112.91 292.002 112.787C291.672 112.664 291.389 112.523 291.154 112.363L291.458 111.931C291.682 112.091 291.93 112.219 292.202 112.315C292.474 112.411 292.789 112.459 293.146 112.459C293.477 112.459 293.722 112.398 293.882 112.275C294.048 112.152 294.13 112.011 294.13 111.851C294.13 111.776 294.114 111.707 294.082 111.643C294.056 111.579 294 111.518 293.914 111.459C293.834 111.4 293.714 111.344 293.554 111.291C293.394 111.238 293.181 111.184 292.914 111.131C292.408 111.024 292.026 110.88 291.77 110.699C291.52 110.518 291.394 110.283 291.394 109.995C291.394 109.68 291.53 109.419 291.802 109.211C292.074 108.998 292.477 108.891 293.01 108.891C293.309 108.891 293.597 108.942 293.874 109.043C294.152 109.139 294.386 109.254 294.578 109.387L294.258 109.811C294.082 109.683 293.882 109.584 293.658 109.515C293.434 109.44 293.2 109.403 292.954 109.403C292.73 109.403 292.552 109.43 292.418 109.483C292.29 109.531 292.197 109.598 292.138 109.683C292.085 109.768 292.058 109.862 292.058 109.963C292.058 110.128 292.146 110.259 292.322 110.355C292.504 110.446 292.792 110.531 293.186 110.611C293.618 110.702 293.949 110.803 294.178 110.915C294.413 111.027 294.573 111.155 294.658 111.299C294.749 111.443 294.794 111.614 294.794 111.811C294.794 112.024 294.728 112.219 294.594 112.395C294.461 112.566 294.266 112.704 294.01 112.811C293.754 112.918 293.44 112.971 293.066 112.971Z" fill="#450088"/>
<g filter="url(#filter2_d_628_8261)">
<path d="M314.366 266.943C314.366 261.421 318.843 256.943 324.366 256.943H502.155C507.678 256.943 512.155 261.421 512.155 266.943V321.654C512.155 327.177 507.678 331.654 502.155 331.654H324.366C318.843 331.654 314.366 327.177 314.366 321.654V266.943Z" fill="white"/>
</g>
<path d="M123.547 157.624C121.474 157.624 119.794 155.944 119.794 153.871C119.794 151.798 121.474 150.118 123.547 150.118C125.62 150.118 127.3 151.798 127.3 153.871C127.3 155.944 125.62 157.624 123.547 157.624Z" fill="#5D18E9"/>
<path d="M124.093 147.744C123.932 147.905 123.74 147.969 123.548 147.969C123.355 147.969 123.163 147.905 123.002 147.744L120.693 145.435C120.404 145.146 120.404 144.633 120.693 144.344C120.982 144.056 121.495 144.056 121.783 144.344L122.746 145.307V139.405C122.746 138.988 123.099 138.635 123.516 138.635C123.932 138.635 124.285 138.988 124.285 139.405V145.307L125.248 144.344C125.536 144.056 126.049 144.056 126.338 144.344C126.627 144.633 126.627 145.146 126.338 145.435L124.093 147.744Z" fill="#5D18E9"/>
<path d="M133.074 155.635C133.362 155.924 133.362 156.437 133.074 156.726C132.913 156.886 132.721 156.95 132.528 156.95C132.336 156.95 132.144 156.886 131.983 156.726L129.674 154.416C129.513 154.256 129.449 154.064 129.449 153.871C129.449 153.679 129.545 153.454 129.674 153.326L131.983 151.016C132.272 150.728 132.785 150.728 133.074 151.016C133.362 151.305 133.362 151.818 133.074 152.107L132.111 153.069H138.013C138.43 153.069 138.783 153.422 138.783 153.839C138.783 154.256 138.43 154.609 138.013 154.609H132.111L133.074 155.635Z" fill="#5D18E9"/>
<path d="M123.002 159.997C123.29 159.708 123.804 159.708 124.092 159.997L126.402 162.306C126.69 162.595 126.69 163.108 126.402 163.397C126.241 163.557 126.049 163.621 125.856 163.621C125.664 163.621 125.471 163.557 125.311 163.397L124.349 162.435V168.336C124.349 168.753 123.996 169.106 123.579 169.106C123.162 169.106 122.809 168.753 122.809 168.336V162.435L121.847 163.397C121.558 163.685 121.045 163.685 120.756 163.397C120.468 163.108 120.468 162.595 120.756 162.306L123.002 159.997Z" fill="#5D18E9"/>
<path d="M109.081 153.1H114.983L114.021 152.138C113.732 151.849 113.732 151.336 114.021 151.048C114.31 150.759 114.823 150.759 115.112 151.048L117.421 153.357C117.581 153.517 117.646 153.71 117.646 153.902C117.646 154.095 117.549 154.319 117.421 154.448L115.112 156.757C114.951 156.917 114.759 156.982 114.566 156.982C114.374 156.982 114.181 156.917 114.021 156.757C113.732 156.468 113.732 155.955 114.021 155.666L114.983 154.704H109.081C108.664 154.704 108.311 154.351 108.311 153.934C108.311 153.517 108.664 153.1 109.081 153.1Z" fill="#5D18E9"/>
<path d="M118.832 149.925C118.639 149.925 118.447 149.861 118.287 149.7L114.117 145.53V146.91C114.117 147.327 113.764 147.68 113.347 147.68C112.93 147.68 112.577 147.327 112.577 146.91V143.638C112.577 143.221 112.93 142.868 113.347 142.868H116.587C117.004 142.868 117.356 143.221 117.356 143.638C117.356 144.055 117.004 144.408 116.587 144.408H115.207L119.377 148.578C119.666 148.866 119.666 149.38 119.377 149.668C119.217 149.861 119.024 149.925 118.832 149.925Z" fill="#5D18E9"/>
<path d="M131.887 144.44H130.507C130.09 144.44 129.737 144.087 129.737 143.67C129.737 143.253 130.09 142.9 130.507 142.9H133.779C134.196 142.9 134.549 143.253 134.549 143.67V146.942C134.549 147.359 134.196 147.712 133.779 147.712C133.362 147.712 133.009 147.359 133.009 146.942V145.531L128.839 149.7C128.679 149.861 128.487 149.925 128.294 149.925C128.102 149.925 127.909 149.861 127.749 149.7C127.46 149.412 127.46 148.899 127.749 148.61L131.887 144.44Z" fill="#5D18E9"/>
<path d="M128.808 158.04L132.978 162.21V160.831C132.978 160.414 133.331 160.061 133.748 160.061C134.165 160.061 134.518 160.414 134.518 160.831V164.102C134.518 164.519 134.165 164.872 133.748 164.872H130.476C130.059 164.872 129.706 164.519 129.706 164.102C129.706 163.685 130.059 163.332 130.476 163.332H131.887L127.718 159.163C127.429 158.874 127.429 158.361 127.718 158.072C128.006 157.783 128.519 157.751 128.808 158.04Z" fill="#5D18E9"/>
<path d="M113.315 160.062C113.732 160.062 114.085 160.414 114.085 160.831V162.211L118.254 158.041C118.543 157.752 119.056 157.752 119.345 158.041C119.634 158.329 119.634 158.843 119.345 159.131L115.175 163.301H116.554C116.971 163.301 117.324 163.654 117.324 164.071C117.324 164.488 116.971 164.841 116.554 164.841H113.283C112.866 164.841 112.513 164.488 112.513 164.071V160.831C112.545 160.414 112.898 160.062 113.315 160.062Z" fill="#5D18E9"/>
<path d="M160.516 160.168C159.853 160.168 159.331 160.051 158.948 159.818C158.565 159.575 158.29 159.244 158.122 158.824C157.963 158.404 157.884 157.914 157.884 157.354V154.134H155.966V153.266L157.926 153.196L158.08 151.012H159.032V153.196H162.378V154.134H159.032V157.368C159.032 157.769 159.083 158.11 159.186 158.39C159.289 158.67 159.466 158.88 159.718 159.02C159.97 159.16 160.315 159.23 160.754 159.23C161.081 159.23 161.375 159.202 161.636 159.146C161.897 159.09 162.149 159.015 162.392 158.922L162.644 159.762C162.336 159.874 162.009 159.967 161.664 160.042C161.328 160.126 160.945 160.168 160.516 160.168ZM165.439 160V153.196H166.391L166.489 154.806H166.531C166.885 154.255 167.324 153.821 167.847 153.504C168.369 153.187 168.943 153.028 169.569 153.028C169.821 153.028 170.054 153.051 170.269 153.098C170.493 153.135 170.707 153.205 170.913 153.308L170.647 154.302C170.413 154.218 170.213 154.157 170.045 154.12C169.877 154.083 169.657 154.064 169.387 154.064C168.873 154.064 168.379 154.213 167.903 154.512C167.436 154.801 166.997 155.301 166.587 156.01V160H165.439ZM176.213 160V154.134H173.049V153.196H177.361V160H176.213ZM176.661 151.768C176.4 151.768 176.18 151.689 176.003 151.53C175.826 151.362 175.737 151.143 175.737 150.872C175.737 150.601 175.826 150.387 176.003 150.228C176.18 150.06 176.4 149.976 176.661 149.976C176.922 149.976 177.142 150.06 177.319 150.228C177.496 150.387 177.585 150.601 177.585 150.872C177.585 151.143 177.496 151.362 177.319 151.53C177.142 151.689 176.922 151.768 176.661 151.768ZM184.328 163.136C183.665 163.136 183.1 163.061 182.634 162.912C182.167 162.763 181.808 162.548 181.556 162.268C181.313 161.988 181.192 161.647 181.192 161.246C181.192 160.975 181.285 160.705 181.472 160.434C181.668 160.173 181.948 159.939 182.312 159.734V159.678C182.134 159.575 181.971 159.435 181.822 159.258C181.682 159.081 181.612 158.847 181.612 158.558C181.612 158.343 181.682 158.124 181.822 157.9C181.962 157.667 182.162 157.461 182.424 157.284V157.228C182.19 157.051 181.99 156.813 181.822 156.514C181.663 156.215 181.584 155.865 181.584 155.464C181.584 154.969 181.705 154.54 181.948 154.176C182.2 153.812 182.526 153.532 182.928 153.336C183.338 153.131 183.782 153.028 184.258 153.028C184.64 153.028 184.976 153.084 185.266 153.196H188.08V154.134H186.316C186.474 154.293 186.61 154.493 186.722 154.736C186.834 154.979 186.89 155.235 186.89 155.506C186.89 155.991 186.773 156.411 186.54 156.766C186.306 157.111 185.989 157.377 185.588 157.564C185.196 157.751 184.752 157.844 184.258 157.844C184.08 157.844 183.889 157.825 183.684 157.788C183.488 157.741 183.296 157.676 183.11 157.592C182.942 157.695 182.811 157.811 182.718 157.942C182.624 158.073 182.578 158.217 182.578 158.376C182.578 158.637 182.699 158.833 182.942 158.964C183.194 159.095 183.544 159.16 183.992 159.16H185.518C186.395 159.16 187.044 159.281 187.464 159.524C187.893 159.767 188.108 160.177 188.108 160.756C188.108 161.176 187.954 161.568 187.646 161.932C187.338 162.296 186.899 162.585 186.33 162.8C185.77 163.024 185.102 163.136 184.328 163.136ZM184.258 157.074C184.547 157.074 184.808 157.009 185.042 156.878C185.284 156.747 185.476 156.561 185.616 156.318C185.756 156.075 185.826 155.791 185.826 155.464C185.826 155.147 185.756 154.871 185.616 154.638C185.476 154.395 185.284 154.209 185.042 154.078C184.808 153.938 184.547 153.868 184.258 153.868C183.978 153.868 183.716 153.938 183.474 154.078C183.24 154.209 183.049 154.395 182.9 154.638C182.76 154.871 182.69 155.147 182.69 155.464C182.69 155.791 182.76 156.075 182.9 156.318C183.049 156.561 183.24 156.747 183.474 156.878C183.716 157.009 183.978 157.074 184.258 157.074ZM184.412 162.296C184.944 162.296 185.401 162.231 185.784 162.1C186.166 161.969 186.46 161.801 186.666 161.596C186.871 161.391 186.974 161.171 186.974 160.938C186.974 160.611 186.843 160.392 186.582 160.28C186.33 160.168 185.942 160.112 185.42 160.112H184.09C183.894 160.112 183.707 160.103 183.53 160.084C183.362 160.065 183.203 160.037 183.054 160C182.736 160.177 182.512 160.359 182.382 160.546C182.251 160.742 182.186 160.938 182.186 161.134C182.186 161.489 182.372 161.769 182.746 161.974C183.128 162.189 183.684 162.296 184.412 162.296ZM192.722 163.136C192.059 163.136 191.495 163.061 191.028 162.912C190.561 162.763 190.202 162.548 189.95 162.268C189.707 161.988 189.586 161.647 189.586 161.246C189.586 160.975 189.679 160.705 189.866 160.434C190.062 160.173 190.342 159.939 190.706 159.734V159.678C190.529 159.575 190.365 159.435 190.216 159.258C190.076 159.081 190.006 158.847 190.006 158.558C190.006 158.343 190.076 158.124 190.216 157.9C190.356 157.667 190.557 157.461 190.818 157.284V157.228C190.585 157.051 190.384 156.813 190.216 156.514C190.057 156.215 189.978 155.865 189.978 155.464C189.978 154.969 190.099 154.54 190.342 154.176C190.594 153.812 190.921 153.532 191.322 153.336C191.733 153.131 192.176 153.028 192.652 153.028C193.035 153.028 193.371 153.084 193.66 153.196H196.474V154.134H194.71C194.869 154.293 195.004 154.493 195.116 154.736C195.228 154.979 195.284 155.235 195.284 155.506C195.284 155.991 195.167 156.411 194.934 156.766C194.701 157.111 194.383 157.377 193.982 157.564C193.59 157.751 193.147 157.844 192.652 157.844C192.475 157.844 192.283 157.825 192.078 157.788C191.882 157.741 191.691 157.676 191.504 157.592C191.336 157.695 191.205 157.811 191.112 157.942C191.019 158.073 190.972 158.217 190.972 158.376C190.972 158.637 191.093 158.833 191.336 158.964C191.588 159.095 191.938 159.16 192.386 159.16H193.912C194.789 159.16 195.438 159.281 195.858 159.524C196.287 159.767 196.502 160.177 196.502 160.756C196.502 161.176 196.348 161.568 196.04 161.932C195.732 162.296 195.293 162.585 194.724 162.8C194.164 163.024 193.497 163.136 192.722 163.136ZM192.652 157.074C192.941 157.074 193.203 157.009 193.436 156.878C193.679 156.747 193.87 156.561 194.01 156.318C194.15 156.075 194.22 155.791 194.22 155.464C194.22 155.147 194.15 154.871 194.01 154.638C193.87 154.395 193.679 154.209 193.436 154.078C193.203 153.938 192.941 153.868 192.652 153.868C192.372 153.868 192.111 153.938 191.868 154.078C191.635 154.209 191.443 154.395 191.294 154.638C191.154 154.871 191.084 155.147 191.084 155.464C191.084 155.791 191.154 156.075 191.294 156.318C191.443 156.561 191.635 156.747 191.868 156.878C192.111 157.009 192.372 157.074 192.652 157.074ZM192.806 162.296C193.338 162.296 193.795 162.231 194.178 162.1C194.561 161.969 194.855 161.801 195.06 161.596C195.265 161.391 195.368 161.171 195.368 160.938C195.368 160.611 195.237 160.392 194.976 160.28C194.724 160.168 194.337 160.112 193.814 160.112H192.484C192.288 160.112 192.101 160.103 191.924 160.084C191.756 160.065 191.597 160.037 191.448 160C191.131 160.177 190.907 160.359 190.776 160.546C190.645 160.742 190.58 160.938 190.58 161.134C190.58 161.489 190.767 161.769 191.14 161.974C191.523 162.189 192.078 162.296 192.806 162.296ZM201.593 160.168C200.911 160.168 200.291 160.028 199.731 159.748C199.18 159.468 198.741 159.062 198.415 158.53C198.088 157.989 197.925 157.34 197.925 156.584C197.925 155.847 198.088 155.212 198.415 154.68C198.741 154.148 199.166 153.742 199.689 153.462C200.221 153.173 200.79 153.028 201.397 153.028C202.05 153.028 202.605 153.163 203.063 153.434C203.529 153.695 203.884 154.064 204.127 154.54C204.379 155.016 204.505 155.576 204.505 156.22C204.505 156.351 204.5 156.477 204.491 156.598C204.481 156.719 204.467 156.827 204.449 156.92H198.695V156.024H203.763L203.469 156.346C203.469 155.543 203.282 154.941 202.909 154.54C202.545 154.139 202.05 153.938 201.425 153.938C201.005 153.938 200.613 154.041 200.249 154.246C199.894 154.451 199.609 154.75 199.395 155.142C199.18 155.534 199.073 156.015 199.073 156.584C199.073 157.172 199.189 157.662 199.423 158.054C199.656 158.446 199.973 158.745 200.375 158.95C200.776 159.146 201.229 159.244 201.733 159.244C202.143 159.244 202.512 159.188 202.839 159.076C203.175 158.955 203.497 158.796 203.805 158.6L204.225 159.356C203.889 159.58 203.501 159.771 203.063 159.93C202.633 160.089 202.143 160.168 201.593 160.168ZM207.411 160V153.196H208.363L208.461 154.806H208.503C208.858 154.255 209.297 153.821 209.819 153.504C210.342 153.187 210.916 153.028 211.541 153.028C211.793 153.028 212.027 153.051 212.241 153.098C212.465 153.135 212.68 153.205 212.885 153.308L212.619 154.302C212.386 154.218 212.185 154.157 212.017 154.12C211.849 154.083 211.63 154.064 211.359 154.064C210.846 154.064 210.351 154.213 209.875 154.512C209.409 154.801 208.97 155.301 208.559 156.01V160H207.411ZM218.102 160.168C217.439 160.168 216.818 160.061 216.24 159.846C215.661 159.631 215.166 159.384 214.756 159.104L215.288 158.348C215.68 158.628 216.114 158.852 216.59 159.02C217.066 159.188 217.616 159.272 218.242 159.272C218.82 159.272 219.25 159.165 219.53 158.95C219.819 158.735 219.964 158.488 219.964 158.208C219.964 158.077 219.936 157.956 219.88 157.844C219.833 157.732 219.735 157.625 219.586 157.522C219.446 157.419 219.236 157.321 218.956 157.228C218.676 157.135 218.302 157.041 217.836 156.948C216.949 156.761 216.282 156.509 215.834 156.192C215.395 155.875 215.176 155.464 215.176 154.96C215.176 154.409 215.414 153.952 215.89 153.588C216.366 153.215 217.07 153.028 218.004 153.028C218.526 153.028 219.03 153.117 219.516 153.294C220.001 153.462 220.412 153.663 220.748 153.896L220.188 154.638C219.88 154.414 219.53 154.241 219.138 154.12C218.746 153.989 218.335 153.924 217.906 153.924C217.514 153.924 217.201 153.971 216.968 154.064C216.744 154.148 216.58 154.265 216.478 154.414C216.384 154.563 216.338 154.727 216.338 154.904C216.338 155.193 216.492 155.422 216.8 155.59C217.117 155.749 217.621 155.898 218.312 156.038C219.068 156.197 219.646 156.374 220.048 156.57C220.458 156.766 220.738 156.99 220.888 157.242C221.046 157.494 221.126 157.793 221.126 158.138C221.126 158.511 221.009 158.852 220.776 159.16C220.542 159.459 220.202 159.701 219.754 159.888C219.306 160.075 218.755 160.168 218.102 160.168ZM223.346 155.814V154.946H229.366V155.814H223.346ZM231.363 160V153.196H232.287L232.385 154.092H232.413C232.59 153.775 232.795 153.518 233.029 153.322C233.262 153.126 233.575 153.028 233.967 153.028C234.303 153.028 234.578 153.126 234.793 153.322C235.007 153.518 235.161 153.812 235.255 154.204C235.451 153.84 235.665 153.555 235.899 153.35C236.141 153.135 236.459 153.028 236.851 153.028C237.327 153.028 237.695 153.21 237.957 153.574C238.227 153.929 238.363 154.447 238.363 155.128V160H237.215V155.212C237.215 154.419 236.972 154.022 236.487 154.022C236.253 154.022 236.057 154.111 235.899 154.288C235.749 154.456 235.581 154.717 235.395 155.072V160H234.331V155.212C234.331 154.82 234.275 154.526 234.163 154.33C234.06 154.125 233.883 154.022 233.631 154.022C233.397 154.022 233.192 154.111 233.015 154.288C232.847 154.456 232.679 154.717 232.511 155.072V160H231.363ZM242.389 160.168C241.577 160.168 240.98 159.935 240.597 159.468C240.215 159.001 240.023 158.32 240.023 157.424V153.196H241.185V157.27C241.185 157.914 241.302 158.395 241.535 158.712C241.778 159.02 242.184 159.174 242.753 159.174C243.145 159.174 243.5 159.076 243.817 158.88C244.144 158.675 244.494 158.353 244.867 157.914V153.196H246.015V160H245.077L244.979 158.81H244.923C244.578 159.202 244.2 159.529 243.789 159.79C243.379 160.042 242.912 160.168 242.389 160.168ZM253.024 160.168C252.305 160.168 251.755 159.963 251.372 159.552C250.989 159.132 250.798 158.521 250.798 157.718V150.97H248.474V150.032H251.946V157.802C251.946 158.297 252.067 158.656 252.31 158.88C252.553 159.104 252.875 159.216 253.276 159.216C253.472 159.216 253.673 159.193 253.878 159.146C254.083 159.09 254.312 159.006 254.564 158.894L254.858 159.762C254.55 159.874 254.261 159.967 253.99 160.042C253.719 160.126 253.397 160.168 253.024 160.168ZM261.25 160.168C260.588 160.168 260.065 160.051 259.682 159.818C259.3 159.575 259.024 159.244 258.856 158.824C258.698 158.404 258.618 157.914 258.618 157.354V154.134H256.7V153.266L258.66 153.196L258.814 151.012H259.766V153.196H263.112V154.134H259.766V157.368C259.766 157.769 259.818 158.11 259.92 158.39C260.023 158.67 260.2 158.88 260.452 159.02C260.704 159.16 261.05 159.23 261.488 159.23C261.815 159.23 262.109 159.202 262.37 159.146C262.632 159.09 262.884 159.015 263.126 158.922L263.378 159.762C263.07 159.874 262.744 159.967 262.398 160.042C262.062 160.126 261.68 160.168 261.25 160.168ZM268.553 160V154.134H265.389V153.196H269.701V160H268.553ZM269.001 151.768C268.74 151.768 268.52 151.689 268.343 151.53C268.166 151.362 268.077 151.143 268.077 150.872C268.077 150.601 268.166 150.387 268.343 150.228C268.52 150.06 268.74 149.976 269.001 149.976C269.262 149.976 269.482 150.06 269.659 150.228C269.836 150.387 269.925 150.601 269.925 150.872C269.925 151.143 269.836 151.362 269.659 151.53C269.482 151.689 269.262 151.768 269.001 151.768ZM273.825 162.87V153.196H274.777L274.875 154.064H274.917C275.235 153.765 275.599 153.518 276.009 153.322C276.429 153.126 276.849 153.028 277.269 153.028C277.885 153.028 278.399 153.173 278.809 153.462C279.229 153.742 279.547 154.143 279.761 154.666C279.976 155.179 280.083 155.791 280.083 156.5C280.083 157.265 279.939 157.923 279.649 158.474C279.36 159.025 278.982 159.445 278.515 159.734C278.049 160.023 277.54 160.168 276.989 160.168C276.681 160.168 276.341 160.093 275.967 159.944C275.603 159.785 275.267 159.566 274.959 159.286H274.917L274.973 160.574V162.87H273.825ZM276.793 159.202C277.195 159.202 277.554 159.095 277.871 158.88C278.189 158.665 278.436 158.357 278.613 157.956C278.8 157.545 278.893 157.06 278.893 156.5C278.893 156.005 278.828 155.571 278.697 155.198C278.567 154.815 278.361 154.521 278.081 154.316C277.801 154.101 277.433 153.994 276.975 153.994C276.667 153.994 276.341 154.078 275.995 154.246C275.659 154.405 275.319 154.661 274.973 155.016V158.404C275.3 158.693 275.627 158.899 275.953 159.02C276.289 159.141 276.569 159.202 276.793 159.202ZM286.602 160.168C285.883 160.168 285.333 159.963 284.95 159.552C284.567 159.132 284.376 158.521 284.376 157.718V150.97H282.052V150.032H285.524V157.802C285.524 158.297 285.645 158.656 285.888 158.88C286.131 159.104 286.453 159.216 286.854 159.216C287.05 159.216 287.251 159.193 287.456 159.146C287.661 159.09 287.89 159.006 288.142 158.894L288.436 159.762C288.128 159.874 287.839 159.967 287.568 160.042C287.297 160.126 286.975 160.168 286.602 160.168ZM293.933 160.168C293.251 160.168 292.631 160.028 292.071 159.748C291.52 159.468 291.081 159.062 290.755 158.53C290.428 157.989 290.265 157.34 290.265 156.584C290.265 155.847 290.428 155.212 290.755 154.68C291.081 154.148 291.506 153.742 292.029 153.462C292.561 153.173 293.13 153.028 293.737 153.028C294.39 153.028 294.945 153.163 295.403 153.434C295.869 153.695 296.224 154.064 296.467 154.54C296.719 155.016 296.845 155.576 296.845 156.22C296.845 156.351 296.84 156.477 296.831 156.598C296.821 156.719 296.807 156.827 296.789 156.92H291.035V156.024H296.103L295.809 156.346C295.809 155.543 295.622 154.941 295.249 154.54C294.885 154.139 294.39 153.938 293.765 153.938C293.345 153.938 292.953 154.041 292.589 154.246C292.234 154.451 291.949 154.75 291.735 155.142C291.52 155.534 291.413 156.015 291.413 156.584C291.413 157.172 291.529 157.662 291.763 158.054C291.996 158.446 292.313 158.745 292.715 158.95C293.116 159.146 293.569 159.244 294.073 159.244C294.483 159.244 294.852 159.188 295.179 159.076C295.515 158.955 295.837 158.796 296.145 158.6L296.565 159.356C296.229 159.58 295.841 159.771 295.403 159.93C294.973 160.089 294.483 160.168 293.933 160.168ZM298.897 155.814V154.946H304.917V155.814H298.897ZM309.49 160V152.622C309.49 152.071 309.588 151.591 309.784 151.18C309.989 150.76 310.292 150.438 310.694 150.214C311.095 149.981 311.608 149.864 312.234 149.864C312.57 149.864 312.896 149.897 313.214 149.962C313.54 150.018 313.867 150.116 314.194 150.256L313.928 151.124C313.648 150.993 313.386 150.909 313.144 150.872C312.91 150.825 312.644 150.802 312.346 150.802C311.739 150.802 311.3 150.961 311.03 151.278C310.759 151.595 310.624 152.029 310.624 152.58V160H309.49ZM307.544 154.134V153.266L309.532 153.196H313.48V154.134H307.544ZM320.18 160.168C319.461 160.168 318.911 159.963 318.528 159.552C318.145 159.132 317.954 158.521 317.954 157.718V150.97H315.63V150.032H319.102V157.802C319.102 158.297 319.223 158.656 319.466 158.88C319.709 159.104 320.031 159.216 320.432 159.216C320.628 159.216 320.829 159.193 321.034 159.146C321.239 159.09 321.468 159.006 321.72 158.894L322.014 159.762C321.706 159.874 321.417 159.967 321.146 160.042C320.875 160.126 320.553 160.168 320.18 160.168ZM327.091 160.168C326.493 160.168 325.938 160.028 325.425 159.748C324.921 159.468 324.51 159.062 324.193 158.53C323.885 157.998 323.731 157.359 323.731 156.612C323.731 155.847 323.885 155.198 324.193 154.666C324.51 154.134 324.921 153.728 325.425 153.448C325.938 153.168 326.493 153.028 327.091 153.028C327.688 153.028 328.239 153.168 328.743 153.448C329.256 153.728 329.667 154.134 329.975 154.666C330.292 155.198 330.451 155.847 330.451 156.612C330.451 157.359 330.292 157.998 329.975 158.53C329.667 159.062 329.256 159.468 328.743 159.748C328.239 160.028 327.688 160.168 327.091 160.168ZM327.091 159.216C327.529 159.216 327.912 159.109 328.239 158.894C328.565 158.67 328.817 158.362 328.995 157.97C329.172 157.578 329.261 157.125 329.261 156.612C329.261 156.089 329.172 155.632 328.995 155.24C328.817 154.839 328.565 154.531 328.239 154.316C327.912 154.092 327.529 153.98 327.091 153.98C326.652 153.98 326.269 154.092 325.943 154.316C325.625 154.531 325.373 154.839 325.187 155.24C325.009 155.632 324.921 156.089 324.921 156.612C324.921 157.125 325.009 157.578 325.187 157.97C325.373 158.362 325.625 158.67 325.943 158.894C326.269 159.109 326.652 159.216 327.091 159.216ZM332.881 160L331.397 153.196H332.545L333.357 157.144C333.422 157.461 333.478 157.774 333.525 158.082C333.581 158.381 333.628 158.693 333.665 159.02H333.721C333.768 158.693 333.824 158.381 333.889 158.082C333.964 157.774 334.038 157.461 334.113 157.144L334.953 153.616H336.101L336.913 157.144C336.988 157.461 337.067 157.774 337.151 158.082C337.235 158.381 337.296 158.693 337.333 159.02H337.389C337.445 158.693 337.492 158.381 337.529 158.082C337.576 157.774 337.632 157.461 337.697 157.144L338.509 153.196H339.573L338.117 160H336.633L335.849 156.752C335.793 156.509 335.737 156.22 335.681 155.884C335.625 155.548 335.569 155.165 335.513 154.736H335.457C335.401 155.165 335.345 155.548 335.289 155.884C335.233 156.22 335.177 156.509 335.121 156.752L334.365 160H332.881ZM344.02 160.168C343.357 160.168 342.736 160.061 342.158 159.846C341.579 159.631 341.084 159.384 340.674 159.104L341.206 158.348C341.598 158.628 342.032 158.852 342.508 159.02C342.984 159.188 343.534 159.272 344.16 159.272C344.738 159.272 345.168 159.165 345.448 158.95C345.737 158.735 345.882 158.488 345.882 158.208C345.882 158.077 345.854 157.956 345.798 157.844C345.751 157.732 345.653 157.625 345.504 157.522C345.364 157.419 345.154 157.321 344.874 157.228C344.594 157.135 344.22 157.041 343.754 156.948C342.867 156.761 342.2 156.509 341.752 156.192C341.313 155.875 341.094 155.464 341.094 154.96C341.094 154.409 341.332 153.952 341.808 153.588C342.284 153.215 342.988 153.028 343.922 153.028C344.444 153.028 344.948 153.117 345.434 153.294C345.919 153.462 346.33 153.663 346.666 153.896L346.106 154.638C345.798 154.414 345.448 154.241 345.056 154.12C344.664 153.989 344.253 153.924 343.824 153.924C343.432 153.924 343.119 153.971 342.886 154.064C342.662 154.148 342.498 154.265 342.396 154.414C342.302 154.563 342.256 154.727 342.256 154.904C342.256 155.193 342.41 155.422 342.718 155.59C343.035 155.749 343.539 155.898 344.23 156.038C344.986 156.197 345.564 156.374 345.966 156.57C346.376 156.766 346.656 156.99 346.806 157.242C346.964 157.494 347.044 157.793 347.044 158.138C347.044 158.511 346.927 158.852 346.694 159.16C346.46 159.459 346.12 159.701 345.672 159.888C345.224 160.075 344.673 160.168 344.02 160.168Z" fill="#030303"/>
<path d="M374.339 296.669V286.995H375.291L375.389 287.863H375.431C375.748 287.564 376.112 287.317 376.523 287.121C376.943 286.925 377.363 286.827 377.783 286.827C378.399 286.827 378.912 286.971 379.323 287.261C379.743 287.541 380.06 287.942 380.275 288.465C380.49 288.978 380.597 289.589 380.597 290.299C380.597 291.064 380.452 291.722 380.163 292.273C379.874 292.823 379.496 293.243 379.029 293.533C378.562 293.822 378.054 293.967 377.503 293.967C377.195 293.967 376.854 293.892 376.481 293.743C376.117 293.584 375.781 293.365 375.473 293.085H375.431L375.487 294.373V296.669H374.339ZM377.307 293.001C377.708 293.001 378.068 292.893 378.385 292.679C378.702 292.464 378.95 292.156 379.127 291.755C379.314 291.344 379.407 290.859 379.407 290.299C379.407 289.804 379.342 289.37 379.211 288.997C379.08 288.614 378.875 288.32 378.595 288.115C378.315 287.9 377.946 287.793 377.489 287.793C377.181 287.793 376.854 287.877 376.509 288.045C376.173 288.203 375.832 288.46 375.487 288.815V292.203C375.814 292.492 376.14 292.697 376.467 292.819C376.803 292.94 377.083 293.001 377.307 293.001ZM383.266 296.725C383.116 296.725 382.958 296.711 382.79 296.683C382.631 296.655 382.491 296.622 382.37 296.585L382.608 295.675C382.701 295.703 382.799 295.726 382.902 295.745C383.014 295.763 383.121 295.773 383.224 295.773C383.7 295.773 384.087 295.633 384.386 295.353C384.684 295.082 384.918 294.737 385.086 294.317L385.296 293.813L382.118 286.995H383.28L384.946 290.761C385.076 291.059 385.212 291.381 385.352 291.727C385.501 292.063 385.646 292.399 385.786 292.735H385.842C385.963 292.408 386.084 292.077 386.206 291.741C386.336 291.395 386.458 291.069 386.57 290.761L388.054 286.995H389.146L386.15 294.359C385.982 294.807 385.772 295.208 385.52 295.563C385.268 295.927 384.955 296.211 384.582 296.417C384.218 296.622 383.779 296.725 383.266 296.725ZM395.342 293.967C394.68 293.967 394.157 293.85 393.774 293.617C393.392 293.374 393.116 293.043 392.948 292.623C392.79 292.203 392.71 291.713 392.71 291.153V287.933H390.792V287.065L392.752 286.995L392.906 284.811H393.858V286.995H397.204V287.933H393.858V291.167C393.858 291.568 393.91 291.909 394.012 292.189C394.115 292.469 394.292 292.679 394.544 292.819C394.796 292.959 395.142 293.029 395.58 293.029C395.907 293.029 396.201 293.001 396.462 292.945C396.724 292.889 396.976 292.814 397.218 292.721L397.47 293.561C397.162 293.673 396.836 293.766 396.49 293.841C396.154 293.925 395.772 293.967 395.342 293.967ZM399.523 293.799V283.831H400.671V286.547L400.601 288.157H400.643C400.988 287.783 401.366 287.471 401.777 287.219C402.187 286.957 402.659 286.827 403.191 286.827C403.993 286.827 404.586 287.06 404.969 287.527C405.351 287.993 405.543 288.675 405.543 289.571V293.799H404.395V289.725C404.395 289.081 404.273 288.605 404.031 288.297C403.788 287.979 403.387 287.821 402.827 287.821C402.425 287.821 402.066 287.923 401.749 288.129C401.431 288.334 401.072 288.642 400.671 289.053V293.799H399.523ZM410.815 293.967C410.218 293.967 409.663 293.827 409.149 293.547C408.645 293.267 408.235 292.861 407.917 292.329C407.609 291.797 407.455 291.157 407.455 290.411C407.455 289.645 407.609 288.997 407.917 288.465C408.235 287.933 408.645 287.527 409.149 287.247C409.663 286.967 410.218 286.827 410.815 286.827C411.413 286.827 411.963 286.967 412.467 287.247C412.981 287.527 413.391 287.933 413.699 288.465C414.017 288.997 414.175 289.645 414.175 290.411C414.175 291.157 414.017 291.797 413.699 292.329C413.391 292.861 412.981 293.267 412.467 293.547C411.963 293.827 411.413 293.967 410.815 293.967ZM410.815 293.015C411.254 293.015 411.637 292.907 411.963 292.693C412.29 292.469 412.542 292.161 412.719 291.769C412.897 291.377 412.985 290.924 412.985 290.411C412.985 289.888 412.897 289.431 412.719 289.039C412.542 288.637 412.29 288.329 411.963 288.115C411.637 287.891 411.254 287.779 410.815 287.779C410.377 287.779 409.994 287.891 409.667 288.115C409.35 288.329 409.098 288.637 408.911 289.039C408.734 289.431 408.645 289.888 408.645 290.411C408.645 290.924 408.734 291.377 408.911 291.769C409.098 292.161 409.35 292.469 409.667 292.693C409.994 292.907 410.377 293.015 410.815 293.015ZM416.312 293.799V286.995H417.264L417.362 288.157H417.418C417.772 287.774 418.155 287.457 418.566 287.205C418.976 286.953 419.448 286.827 419.98 286.827C420.782 286.827 421.375 287.06 421.758 287.527C422.14 287.993 422.332 288.675 422.332 289.571V293.799H421.184V289.725C421.184 289.081 421.062 288.605 420.82 288.297C420.577 287.979 420.176 287.821 419.616 287.821C419.214 287.821 418.855 287.923 418.538 288.129C418.22 288.334 417.861 288.642 417.46 289.053V293.799H416.312ZM424.594 289.613V288.745H430.614V289.613H424.594ZM433.843 293.799V286.995H434.795L434.893 288.605H434.935C435.289 288.054 435.728 287.62 436.251 287.303C436.773 286.985 437.347 286.827 437.973 286.827C438.225 286.827 438.458 286.85 438.673 286.897C438.897 286.934 439.111 287.004 439.317 287.107L439.051 288.101C438.817 288.017 438.617 287.956 438.449 287.919C438.281 287.881 438.061 287.863 437.791 287.863C437.277 287.863 436.783 288.012 436.307 288.311C435.84 288.6 435.401 289.099 434.991 289.809V293.799H433.843ZM443.637 293.967C442.825 293.967 442.228 293.733 441.845 293.267C441.463 292.8 441.271 292.119 441.271 291.223V286.995H442.433V291.069C442.433 291.713 442.55 292.193 442.783 292.511C443.026 292.819 443.432 292.973 444.001 292.973C444.393 292.973 444.748 292.875 445.065 292.679C445.392 292.473 445.742 292.151 446.115 291.713V286.995H447.263V293.799H446.325L446.227 292.609H446.171C445.826 293.001 445.448 293.327 445.037 293.589C444.627 293.841 444.16 293.967 443.637 293.967ZM449.89 293.799V286.995H450.842L450.94 288.157H450.996C451.351 287.774 451.733 287.457 452.144 287.205C452.555 286.953 453.026 286.827 453.558 286.827C454.361 286.827 454.953 287.06 455.336 287.527C455.719 287.993 455.91 288.675 455.91 289.571V293.799H454.762V289.725C454.762 289.081 454.641 288.605 454.398 288.297C454.155 287.979 453.754 287.821 453.194 287.821C452.793 287.821 452.433 287.923 452.116 288.129C451.799 288.334 451.439 288.642 451.038 289.053V293.799H449.89Z" fill="#030303"/>
<path d="M114.11 178.013V172.765H117.334V173.325H114.782V175.101H116.942V175.661H114.782V178.013H114.11ZM121.091 178.109C120.68 178.109 120.365 177.991 120.147 177.757C119.928 177.517 119.819 177.167 119.819 176.709V172.853H118.491V172.317H120.475V176.757C120.475 177.039 120.544 177.245 120.683 177.373C120.821 177.501 121.005 177.565 121.235 177.565C121.347 177.565 121.461 177.551 121.579 177.525C121.696 177.493 121.827 177.445 121.971 177.381L122.139 177.877C121.963 177.941 121.797 177.994 121.643 178.037C121.488 178.085 121.304 178.109 121.091 178.109ZM125.04 178.109C124.698 178.109 124.381 178.029 124.088 177.869C123.8 177.709 123.565 177.477 123.384 177.173C123.208 176.869 123.12 176.503 123.12 176.077C123.12 175.639 123.208 175.269 123.384 174.965C123.565 174.661 123.8 174.429 124.088 174.269C124.381 174.109 124.698 174.029 125.04 174.029C125.381 174.029 125.696 174.109 125.984 174.269C126.277 174.429 126.512 174.661 126.688 174.965C126.869 175.269 126.96 175.639 126.96 176.077C126.96 176.503 126.869 176.869 126.688 177.173C126.512 177.477 126.277 177.709 125.984 177.869C125.696 178.029 125.381 178.109 125.04 178.109ZM125.04 177.565C125.29 177.565 125.509 177.503 125.696 177.381C125.882 177.253 126.026 177.077 126.128 176.853C126.229 176.629 126.28 176.37 126.28 176.077C126.28 175.778 126.229 175.517 126.128 175.293C126.026 175.063 125.882 174.887 125.696 174.765C125.509 174.637 125.29 174.573 125.04 174.573C124.789 174.573 124.57 174.637 124.384 174.765C124.202 174.887 124.058 175.063 123.952 175.293C123.85 175.517 123.8 175.778 123.8 176.077C123.8 176.37 123.85 176.629 123.952 176.853C124.058 177.077 124.202 177.253 124.384 177.381C124.57 177.503 124.789 177.565 125.04 177.565ZM128.349 178.013L127.501 174.125H128.157L128.621 176.381C128.658 176.562 128.69 176.741 128.717 176.917C128.749 177.087 128.775 177.266 128.797 177.453H128.829C128.855 177.266 128.887 177.087 128.925 176.917C128.967 176.741 129.01 176.562 129.053 176.381L129.533 174.365H130.189L130.653 176.381C130.695 176.562 130.741 176.741 130.789 176.917C130.837 177.087 130.871 177.266 130.893 177.453H130.925C130.957 177.266 130.983 177.087 131.005 176.917C131.031 176.741 131.063 176.562 131.101 176.381L131.565 174.125H132.173L131.341 178.013H130.493L130.045 176.157C130.013 176.018 129.981 175.853 129.949 175.661C129.917 175.469 129.885 175.25 129.853 175.005H129.821C129.789 175.25 129.757 175.469 129.725 175.661C129.693 175.853 129.661 176.018 129.629 176.157L129.197 178.013H128.349Z" fill="#5D18E9"/>
<path d="M329.837 316.389V311.141H331.421C331.811 311.141 332.149 311.191 332.437 311.293C332.731 311.389 332.957 311.549 333.117 311.773C333.283 311.997 333.365 312.301 333.365 312.685C333.365 313.053 333.283 313.357 333.117 313.597C332.957 313.831 332.731 314.01 332.437 314.133C332.144 314.25 331.805 314.309 331.421 314.309H330.501V316.389H329.837ZM330.501 313.765H331.341C331.8 313.765 332.139 313.677 332.357 313.501C332.581 313.325 332.693 313.053 332.693 312.685C332.693 312.306 332.581 312.045 332.357 311.901C332.133 311.751 331.795 311.677 331.341 311.677H330.501V313.765ZM334.866 318.061C334.781 318.061 334.69 318.053 334.594 318.037C334.504 318.021 334.424 318.002 334.354 317.981L334.49 317.461C334.544 317.477 334.6 317.49 334.658 317.501C334.722 317.511 334.784 317.517 334.842 317.517C335.114 317.517 335.336 317.437 335.506 317.277C335.677 317.122 335.81 316.925 335.906 316.685L336.026 316.397L334.21 312.501H334.874L335.826 314.653C335.901 314.823 335.978 315.007 336.058 315.205C336.144 315.397 336.226 315.589 336.306 315.781H336.338C336.408 315.594 336.477 315.405 336.546 315.213C336.621 315.015 336.69 314.829 336.754 314.653L337.602 312.501H338.226L336.514 316.709C336.418 316.965 336.298 317.194 336.154 317.397C336.01 317.605 335.832 317.767 335.618 317.885C335.41 318.002 335.16 318.061 334.866 318.061ZM341.767 316.485C341.389 316.485 341.09 316.418 340.871 316.285C340.653 316.146 340.495 315.957 340.399 315.717C340.309 315.477 340.263 315.197 340.263 314.877V313.037H339.167V312.541L340.287 312.501L340.375 311.253H340.919V312.501H342.831V313.037H340.919V314.885C340.919 315.114 340.949 315.309 341.007 315.469C341.066 315.629 341.167 315.749 341.311 315.829C341.455 315.909 341.653 315.949 341.903 315.949C342.09 315.949 342.258 315.933 342.407 315.901C342.557 315.869 342.701 315.826 342.839 315.773L342.983 316.253C342.807 316.317 342.621 316.37 342.423 316.413C342.231 316.461 342.013 316.485 341.767 316.485ZM344.156 316.389V310.693H344.812V312.245L344.772 313.165H344.796C344.993 312.951 345.209 312.773 345.444 312.629C345.679 312.479 345.948 312.405 346.252 312.405C346.711 312.405 347.049 312.538 347.268 312.805C347.487 313.071 347.596 313.461 347.596 313.973V316.389H346.94V314.061C346.94 313.693 346.871 313.421 346.732 313.245C346.593 313.063 346.364 312.973 346.044 312.973C345.815 312.973 345.609 313.031 345.428 313.149C345.247 313.266 345.041 313.442 344.812 313.677V316.389H344.156ZM350.609 316.485C350.268 316.485 349.95 316.405 349.657 316.245C349.369 316.085 349.134 315.853 348.953 315.549C348.777 315.245 348.689 314.879 348.689 314.453C348.689 314.015 348.777 313.645 348.953 313.341C349.134 313.037 349.369 312.805 349.657 312.645C349.95 312.485 350.268 312.405 350.609 312.405C350.95 312.405 351.265 312.485 351.553 312.645C351.846 312.805 352.081 313.037 352.257 313.341C352.438 313.645 352.529 314.015 352.529 314.453C352.529 314.879 352.438 315.245 352.257 315.549C352.081 315.853 351.846 316.085 351.553 316.245C351.265 316.405 350.95 316.485 350.609 316.485ZM350.609 315.941C350.86 315.941 351.078 315.879 351.265 315.757C351.452 315.629 351.596 315.453 351.697 315.229C351.798 315.005 351.849 314.746 351.849 314.453C351.849 314.154 351.798 313.893 351.697 313.669C351.596 313.439 351.452 313.263 351.265 313.141C351.078 313.013 350.86 312.949 350.609 312.949C350.358 312.949 350.14 313.013 349.953 313.141C349.772 313.263 349.628 313.439 349.521 313.669C349.42 313.893 349.369 314.154 349.369 314.453C349.369 314.746 349.42 315.005 349.521 315.229C349.628 315.453 349.772 315.629 349.953 315.757C350.14 315.879 350.358 315.941 350.609 315.941ZM353.75 316.389V312.501H354.294L354.35 313.165H354.382C354.585 312.946 354.803 312.765 355.038 312.621C355.273 312.477 355.542 312.405 355.846 312.405C356.305 312.405 356.643 312.538 356.862 312.805C357.081 313.071 357.19 313.461 357.19 313.973V316.389H356.534V314.061C356.534 313.693 356.465 313.421 356.326 313.245C356.187 313.063 355.958 312.973 355.638 312.973C355.409 312.973 355.203 313.031 355.022 313.149C354.841 313.266 354.635 313.442 354.406 313.677V316.389H353.75Z" fill="#30015C"/>
<path d="M493.976 294.326L490.806 297.496L492.216 298.906L496.806 294.326L492.216 289.736L490.806 291.156L493.976 294.326ZM481.636 294.326L484.806 291.156L483.396 289.746L478.806 294.326L483.396 298.916L484.806 297.496L481.636 294.326Z" fill="#4327D0"/>
<path d="M224.975 193.278C224.975 194.751 226.169 195.945 227.642 195.945C229.114 195.945 230.308 194.751 230.308 193.278C230.308 191.806 229.114 190.612 227.642 190.612C226.169 190.612 224.975 191.806 224.975 193.278ZM227.642 294.299H227.142V294.799H227.642V294.299ZM253.733 294.652C253.928 294.457 253.928 294.141 253.733 293.945L250.551 290.763C250.356 290.568 250.039 290.568 249.844 290.763C249.649 290.959 249.649 291.275 249.844 291.47L252.672 294.299L249.844 297.127C249.649 297.323 249.649 297.639 249.844 297.834C250.039 298.03 250.356 298.03 250.551 297.834L253.733 294.652ZM227.142 193.278V294.299H228.142V193.278H227.142ZM227.642 294.799H253.38V293.799H227.642V294.799Z" fill="#EE81DE"/>
<path d="M509.489 294.518C509.489 295.99 510.683 297.184 512.155 297.184C513.628 297.184 514.822 295.99 514.822 294.518C514.822 293.045 513.628 291.851 512.155 291.851C510.683 291.851 509.489 293.045 509.489 294.518ZM534.666 294.871C534.861 294.676 534.861 294.359 534.666 294.164L531.484 290.982C531.289 290.787 530.972 290.787 530.777 290.982C530.581 291.177 530.581 291.494 530.777 291.689L533.605 294.518L530.777 297.346C530.581 297.541 530.581 297.858 530.777 298.053C530.972 298.248 531.289 298.248 531.484 298.053L534.666 294.871ZM512.155 295.018H534.312V294.018H512.155V295.018Z" fill="#AA50FF"/>
<circle cx="537.242" cy="294.627" r="2.5965" fill="#D45E5E"/>
<path d="M256.722 294.299C256.722 295.772 257.916 296.965 259.389 296.965C260.861 296.965 262.055 295.772 262.055 294.299C262.055 292.826 260.861 291.632 259.389 291.632C257.916 291.632 256.722 292.826 256.722 294.299ZM289.12 294.652C289.315 294.457 289.315 294.141 289.12 293.945L285.938 290.763C285.743 290.568 285.426 290.568 285.231 290.763C285.036 290.959 285.036 291.275 285.231 291.47L288.059 294.299L285.231 297.127C285.036 297.323 285.036 297.639 285.231 297.834C285.426 298.03 285.743 298.03 285.938 297.834L289.12 294.652ZM259.389 294.799H288.767V293.799H259.389V294.799Z" fill="#AA50FF"/>
<path d="M43.3997 155.923C43.3997 157.396 44.5936 158.59 46.0664 158.59C47.5392 158.59 48.7331 157.396 48.7331 155.923C48.7331 154.45 47.5392 153.256 46.0664 153.256C44.5936 153.256 43.3997 154.45 43.3997 155.923ZM92.0807 156.276C92.276 156.081 92.276 155.765 92.0807 155.569L88.8988 152.387C88.7035 152.192 88.3869 152.192 88.1916 152.387C87.9964 152.583 87.9964 152.899 88.1916 153.094L91.0201 155.923L88.1916 158.751C87.9964 158.947 87.9964 159.263 88.1916 159.458C88.3869 159.654 88.7035 159.654 88.8988 159.458L92.0807 156.276ZM46.0664 156.423L91.7272 156.423L91.7272 155.423L46.0664 155.423L46.0664 156.423Z" fill="#D36366"/>
<path d="M292.263 294.299C292.263 295.772 293.457 296.965 294.93 296.965C296.402 296.965 297.596 295.772 297.596 294.299C297.596 292.826 296.402 291.632 294.93 291.632C293.457 291.632 292.263 292.826 292.263 294.299ZM313.484 294.652C313.679 294.457 313.679 294.141 313.484 293.945L310.302 290.763C310.107 290.568 309.79 290.568 309.595 290.763C309.4 290.959 309.4 291.275 309.595 291.47L312.423 294.299L309.595 297.127C309.4 297.323 309.4 297.639 309.595 297.834C309.79 298.03 310.107 298.03 310.302 297.834L313.484 294.652ZM294.93 294.799H313.13V293.799H294.93V294.799Z" fill="#D45E5E"/>
<g filter="url(#filter3_d_628_8261)">
<rect x="375.719" y="132.726" width="64.8682" height="49.2123" rx="9" fill="white"/>
<path d="M399.412 157.332L403.902 152.842L401.905 150.844L395.402 157.332L401.905 163.835L403.902 161.823L399.412 157.332ZM416.893 157.332L412.402 161.823L414.4 163.821L420.902 157.332L414.4 150.83L412.402 152.842L416.893 157.332Z" fill="#5D18E9"/>
</g>
<path fill-rule="evenodd" clip-rule="evenodd" d="M432.152 162.541C430.495 162.541 429.152 163.884 429.152 165.541V172.641C426.87 173.104 425.152 175.122 425.152 177.541V180.618C425.152 182.077 425.608 183.5 426.456 184.687L429.441 188.866C430.192 189.917 431.404 190.541 432.696 190.541H440.411C441.847 190.541 443.172 189.772 443.884 188.526L446.23 184.421C446.834 183.363 447.152 182.166 447.152 180.948V177.541C447.152 174.86 445.043 172.673 442.394 172.547C441.844 171.93 441.044 171.541 440.152 171.541C439.618 171.541 439.116 171.681 438.681 171.926C438.148 171.093 437.215 170.541 436.152 170.541C435.802 170.541 435.465 170.601 435.152 170.712V165.541C435.152 163.884 433.809 162.541 432.152 162.541Z" fill="white"/>
<path fill-rule="evenodd" clip-rule="evenodd" d="M432.152 162.541C430.495 162.541 429.152 163.884 429.152 165.541V172.641C426.87 173.104 425.152 175.122 425.152 177.541V180.618C425.152 182.077 425.608 183.5 426.456 184.687L429.441 188.866C430.192 189.917 431.404 190.541 432.696 190.541H440.411C441.847 190.541 443.172 189.772 443.884 188.526L446.23 184.421C446.834 183.363 447.152 182.166 447.152 180.948V177.541C447.152 174.86 445.043 172.673 442.394 172.547C441.844 171.93 441.044 171.541 440.152 171.541C439.618 171.541 439.116 171.681 438.681 171.926C438.148 171.093 437.215 170.541 436.152 170.541C435.802 170.541 435.465 170.601 435.152 170.712V165.541C435.152 163.884 433.809 162.541 432.152 162.541ZM435.152 173.541C435.152 174.093 434.705 174.541 434.152 174.541C433.6 174.541 433.152 174.093 433.152 173.541V165.541C433.152 164.989 432.705 164.541 432.152 164.541C431.6 164.541 431.152 164.989 431.152 165.541V178.541C431.152 179.093 430.705 179.541 430.152 179.541C429.6 179.541 429.152 179.093 429.152 178.541V174.712C427.987 175.124 427.152 176.235 427.152 177.541V180.618C427.152 181.66 427.478 182.676 428.084 183.524L431.069 187.703C431.444 188.229 432.05 188.541 432.696 188.541H440.411C441.129 188.541 441.792 188.156 442.148 187.533L444.494 183.428C444.925 182.673 445.152 181.818 445.152 180.948V177.541C445.152 176.235 444.318 175.124 443.152 174.712V175.541C443.152 176.093 442.705 176.541 442.152 176.541C441.6 176.541 441.152 176.093 441.152 175.541V174.541C441.152 173.989 440.705 173.541 440.152 173.541C439.6 173.541 439.152 173.989 439.152 174.541C439.152 175.093 438.705 175.541 438.152 175.541C437.6 175.541 437.152 175.093 437.152 174.541V173.541C437.152 172.989 436.705 172.541 436.152 172.541C435.6 172.541 435.152 172.989 435.152 173.541Z" fill="#12131A"/>
<g clip-path="url(#clip0_628_8261)">
<path d="M350.75 276.125C350.75 273.847 347.056 272 342.5 272C337.944 272 334.25 273.847 334.25 276.125V300.875C334.25 303.153 337.944 305 342.5 305C347.056 305 350.75 303.153 350.75 300.875V276.125Z" fill="#6726EA"/>
<path d="M354.875 280.25H330.125C327.847 280.25 326 283.944 326 288.5C326 293.056 327.847 296.75 330.125 296.75H354.875C357.153 296.75 359 293.056 359 288.5C359 283.944 357.153 280.25 354.875 280.25Z" fill="#6726EA"/>
<path d="M337.963 277.651C338.806 277.651 339.489 276.968 339.489 276.125C339.489 275.282 338.806 274.599 337.963 274.599C337.12 274.599 336.437 275.282 336.437 276.125C336.437 276.968 337.12 277.651 337.963 277.651Z" fill="white"/>
<path d="M347.038 302.401C347.881 302.401 348.564 301.718 348.564 300.875C348.564 300.032 347.881 299.349 347.038 299.349C346.195 299.349 345.512 300.032 345.512 300.875C345.512 301.718 346.195 302.401 347.038 302.401Z" fill="white"/>
<path d="M334.25 279.838H342.5" stroke="white"/>
<path d="M342.5 297.162H350.75" stroke="white"/>
<path d="M333.838 296.75C333.838 288.5 335.9 288.5 342.088 288.5C349.1 288.5 351.163 288.5 351.163 280.25" stroke="white"/>
</g>
<defs>
<filter id="filter0_d_628_8261" x="28.4147" y="65.1319" width="491.604" height="203.423" filterUnits="userSpaceOnUse" color-interpolation-filters="sRGB">
<feFlood flood-opacity="0" result="BackgroundImageFix"/>
<feColorMatrix in="SourceAlpha" type="matrix" values="0 0 0 0 0 0 0 0 0 0 0 0 0 0 0 0 0 0 127 0" result="hardAlpha"/>
<feOffset dy="12.972"/>
<feGaussianBlur stdDeviation="19.8635"/>
<feComposite in2="hardAlpha" operator="out"/>
<feColorMatrix type="matrix" values="0 0 0 0 0.351796 0 0 0 0 0 0 0 0 0 0.691667 0 0 0 0.1 0"/>
<feBlend mode="normal" in2="BackgroundImageFix" result="effect1_dropShadow_628_8261"/>
<feBlend mode="normal" in="SourceGraphic" in2="effect1_dropShadow_628_8261" result="shape"/>
</filter>
<filter id="filter1_d_628_8261" x="367.092" y="20.0909" width="206.481" height="155.833" filterUnits="userSpaceOnUse" color-interpolation-filters="sRGB">
<feFlood flood-opacity="0" result="BackgroundImageFix"/>
<feColorMatrix in="SourceAlpha" type="matrix" values="0 0 0 0 0 0 0 0 0 0 0 0 0 0 0 0 0 0 127 0" result="hardAlpha"/>
<feOffset dy="12.972"/>
<feGaussianBlur stdDeviation="19.8635"/>
<feComposite in2="hardAlpha" operator="out"/>
<feColorMatrix type="matrix" values="0 0 0 0 0.351796 0 0 0 0 0 0 0 0 0 0.691667 0 0 0 0.1 0"/>
<feBlend mode="normal" in2="BackgroundImageFix" result="effect1_dropShadow_628_8261"/>
<feBlend mode="normal" in="SourceGraphic" in2="effect1_dropShadow_628_8261" result="shape"/>
</filter>
<filter id="filter2_d_628_8261" x="274.639" y="230.189" width="277.242" height="154.165" filterUnits="userSpaceOnUse" color-interpolation-filters="sRGB">
<feFlood flood-opacity="0" result="BackgroundImageFix"/>
<feColorMatrix in="SourceAlpha" type="matrix" values="0 0 0 0 0 0 0 0 0 0 0 0 0 0 0 0 0 0 127 0" result="hardAlpha"/>
<feOffset dy="12.972"/>
<feGaussianBlur stdDeviation="19.8635"/>
<feComposite in2="hardAlpha" operator="out"/>
<feColorMatrix type="matrix" values="0 0 0 0 0.351796 0 0 0 0 0 0 0 0 0 0.691667 0 0 0 0.1 0"/>
<feBlend mode="normal" in2="BackgroundImageFix" result="effect1_dropShadow_628_8261"/>
<feBlend mode="normal" in="SourceGraphic" in2="effect1_dropShadow_628_8261" result="shape"/>
</filter>
<filter id="filter3_d_628_8261" x="325.332" y="105.971" width="165.642" height="128.666" filterUnits="userSpaceOnUse" color-interpolation-filters="sRGB">
<feFlood flood-opacity="0" result="BackgroundImageFix"/>
<feColorMatrix in="SourceAlpha" type="matrix" values="0 0 0 0 0 0 0 0 0 0 0 0 0 0 0 0 0 0 127 0" result="hardAlpha"/>
<feOffset dy="12.972"/>
<feGaussianBlur stdDeviation="19.8635"/>
<feComposite in2="hardAlpha" operator="out"/>
<feColorMatrix type="matrix" values="0 0 0 0 0.351796 0 0 0 0 0 0 0 0 0 0.691667 0 0 0 0.1 0"/>
<feBlend mode="normal" in2="BackgroundImageFix" result="effect1_dropShadow_628_8261"/>
<feBlend mode="normal" in="SourceGraphic" in2="effect1_dropShadow_628_8261" result="shape"/>
</filter>
<radialGradient id="paint0_diamond_628_8261" cx="0" cy="0" r="1" gradientUnits="userSpaceOnUse" gradientTransform="translate(563.146 8.2613e-06) rotate(141.902) scale(551.683 666.426)">
<stop offset="0.35225" stop-color="#E2E0FE" stop-opacity="0.4"/>
<stop offset="1" stop-color="#E2E0FE" stop-opacity="0"/>
</radialGradient>
<clipPath id="clip0_628_8261">
<rect width="33" height="33" fill="white" transform="translate(326 272)"/>
</clipPath>
</defs>
</svg>
