<svg width="1720" height="1251" viewBox="0 0 1720 1251" fill="none" xmlns="http://www.w3.org/2000/svg">
<g id="Intro" clip-path="url(#clip0_1484_9420)">
<rect width="1720" height="1251" fill="#040114"/>
<rect width="1720" height="1251" fill="url(#paint0_linear_1484_9420)" fill-opacity="0.3"/>
<g id="Group 3" style="mix-blend-mode:screen">
<g id="Rectangle 93" filter="url(#filter0_f_1484_9420)">
<path d="M1346.93 1375.08C1532.97 1354.03 1539.04 1291.31 1360.49 1234.99V1234.99C1181.93 1178.66 886.357 1150.06 700.312 1171.11L296.521 1216.79C110.476 1237.83 104.408 1300.56 282.966 1356.88V1356.88C461.525 1413.21 757.094 1441.81 943.139 1420.76L1346.93 1375.08Z" fill="url(#paint1_radial_1484_9420)"/>
<path d="M1346.93 1375.08C1532.97 1354.03 1539.04 1291.31 1360.49 1234.99V1234.99C1181.93 1178.66 886.357 1150.06 700.312 1171.11L296.521 1216.79C110.476 1237.83 104.408 1300.56 282.966 1356.88V1356.88C461.525 1413.21 757.094 1441.81 943.139 1420.76L1346.93 1375.08Z" stroke="#C726CA" stroke-width="62.1954"/>
</g>
</g>
</g>
<defs>
<filter id="filter0_f_1484_9420" x="-186.332" y="857.781" width="2016.12" height="876.306" filterUnits="userSpaceOnUse" color-interpolation-filters="sRGB">
<feFlood flood-opacity="0" result="BackgroundImageFix"/>
<feBlend mode="normal" in="SourceGraphic" in2="BackgroundImageFix" result="shape"/>
<feGaussianBlur stdDeviation="148.21" result="effect1_foregroundBlur_1484_9420"/>
</filter>
<linearGradient id="paint0_linear_1484_9420" x1="297.792" y1="12.663" x2="587.625" y2="1128.05" gradientUnits="userSpaceOnUse">
<stop stop-color="#8200FF"/>
<stop offset="1" stop-color="#8200FF" stop-opacity="0"/>
</linearGradient>
<radialGradient id="paint1_radial_1484_9420" cx="0" cy="0" r="1" gradientUnits="userSpaceOnUse" gradientTransform="translate(751.549 1317.75) rotate(-172.681) scale(547.09 148.982)">
<stop stop-color="#8200FF"/>
<stop offset="1" stop-color="#8200FF"/>
</radialGradient>
<clipPath id="clip0_1484_9420">
<rect width="1720" height="1251" fill="white"/>
</clipPath>
</defs>
</svg>
