<svg width="25" height="25" viewBox="0 0 25 25" fill="none" xmlns="http://www.w3.org/2000/svg">
<path d="M22.7808 5.49055L11.3708 16.9105L7.13076 12.6705L8.54076 11.2605L11.3708 14.0905L21.3708 4.09055L22.7808 5.49055ZM20.5708 10.5305C20.7008 11.1005 20.7808 11.7005 20.7808 12.3105C20.7808 16.7305 17.2008 20.3105 12.7808 20.3105C8.36076 20.3105 4.78076 16.7305 4.78076 12.3105C4.78076 7.89055 8.36076 4.31055 12.7808 4.31055C14.3608 4.31055 15.8208 4.77055 17.0608 5.56055L18.5008 4.12055C16.8808 2.98055 14.9108 2.31055 12.7808 2.31055C7.26076 2.31055 2.78076 6.79055 2.78076 12.3105C2.78076 17.8305 7.26076 22.3105 12.7808 22.3105C18.3008 22.3105 22.7808 17.8305 22.7808 12.3105C22.7808 11.1205 22.5608 9.98055 22.1808 8.92055L20.5708 10.5305Z" fill="#7745ED"/>
</svg>
