<svg width="41" height="41" viewBox="0 0 41 41" fill="none" xmlns="http://www.w3.org/2000/svg">
<g clip-path="url(#clip0_25034_7472)">
<path d="M0 4.49601C0 2.01293 2.01293 0 4.49601 0H35.7218C38.2048 0 40.2178 2.01293 40.2178 4.49601V35.7218C40.2178 38.2048 38.2048 40.2178 35.7218 40.2178H4.49601C2.01293 40.2178 0 38.2048 0 35.7218V4.49601Z" fill="#2C0059"/>
<path d="M19.1222 16.8794C19.6677 16.334 20.552 16.334 21.0974 16.8794L23.3394 19.1215C23.8848 19.6669 23.8848 20.5512 23.3394 21.0966L21.0974 23.3386C20.552 23.8841 19.6677 23.8841 19.1222 23.3386L16.8802 21.0966C16.3348 20.5512 16.3348 19.6669 16.8802 19.1215L19.1222 16.8794Z" fill="#A950FF"/>
<path d="M29.4486 16.8616C29.9843 16.3259 30.8528 16.3259 31.3885 16.8616L33.6658 19.1389C34.2015 19.6746 34.2015 20.5431 33.6658 21.0787L31.3885 23.3561C30.8528 23.8918 29.9843 23.8918 29.4486 23.3561L27.1713 21.0787C26.6356 20.5431 26.6356 19.6746 27.1713 19.1389L29.4486 16.8616Z" fill="#A950FF"/>
<path d="M19.1399 6.55312C19.6756 6.01745 20.5441 6.01745 21.0797 6.55312L23.3571 8.83048C23.8928 9.36615 23.8928 10.2346 23.3571 10.7703L21.0797 13.0477C20.5441 13.5833 19.6756 13.5833 19.1399 13.0477L16.8625 10.7703C16.3269 10.2346 16.3269 9.36615 16.8625 8.83048L19.1399 6.55312Z" fill="#E9C1FF"/>
<path d="M18.1856 13.9672C18.731 14.5126 18.731 15.3969 18.1856 15.9423L15.9435 18.1844C15.3981 18.7298 14.5138 18.7298 13.9684 18.1844L11.7263 15.9423C11.1809 15.3969 11.1809 14.5126 11.7263 13.9672L13.9684 11.7252C14.5138 11.1797 15.3981 11.1797 15.9435 11.7252L18.1856 13.9672Z" fill="#CD88FF"/>
<path d="M13.0486 19.1389C13.5843 19.6746 13.5843 20.5431 13.0486 21.0787L10.7713 23.3561C10.2356 23.8918 9.36713 23.8918 8.83146 23.3561L6.55409 21.0787C6.01843 20.5431 6.01843 19.6746 6.55409 19.1389L8.83146 16.8616C9.36713 16.3259 10.2356 16.3259 10.7713 16.8616L13.0486 19.1389Z" fill="#A950FF"/>
<path d="M28.4939 13.9672C29.0393 14.5126 29.0393 15.3969 28.4939 15.9423L26.2519 18.1844C25.7064 18.7298 24.8221 18.7298 24.2767 18.1844L22.0347 15.9423C21.4892 15.3969 21.4892 14.5126 22.0347 13.9672L24.2767 11.7252C24.8221 11.1797 25.7064 11.1797 26.2519 11.7252L28.4939 13.9672Z" fill="#CD88FF"/>
<path d="M22.3163 28.6917C23.5348 29.9103 23.5348 31.8859 22.3163 33.1044C21.0978 34.3229 19.1222 34.3229 17.9036 33.1044C16.6851 31.8859 16.6851 29.9103 17.9036 28.6917C19.1222 27.4732 21.0978 27.4732 22.3163 28.6917Z" fill="#F62E76"/>
</g>
<defs>
<clipPath id="clip0_25034_7472">
<rect width="40.2178" height="40.2178" rx="11.6573" fill="white"/>
</clipPath>
</defs>
</svg>
