<svg width="25" height="25" viewBox="0 0 25 25" fill="none" xmlns="http://www.w3.org/2000/svg">
<path fill-rule="evenodd" clip-rule="evenodd" d="M15.7205 3.77861C15.5457 3.84743 15.3878 3.96077 15.2445 4.11056C15.0056 4.3583 14.804 4.71292 14.6502 5.13312C14.4956 5.55575 14.3952 6.02372 14.3571 6.49331C13.8474 6.20492 13.2816 6.02932 12.6982 5.97838L12.6569 5.97514C11.9525 5.91847 11.2562 6.04558 10.649 6.35891C10.5672 6.40182 10.4871 6.44797 10.4085 6.49655C10.3681 6.03586 10.2693 5.57842 10.1171 5.16551C9.96325 4.7445 9.76165 4.39069 9.52362 4.14213C9.39059 3.99823 9.22788 3.88497 9.04674 3.81018C8.83867 3.72922 8.61764 3.71465 8.40227 3.77618C8.07761 3.86848 7.7991 4.07412 7.57969 4.37288C7.3789 4.64572 7.22831 4.99549 7.12548 5.41488C6.93927 6.17107 6.90688 7.16611 7.03238 8.36599L6.98946 8.39837L6.96841 8.41376C6.35552 8.88011 5.92884 9.54481 5.70296 10.3164C5.35077 11.5203 5.52808 12.8708 6.1353 13.6262L6.14987 13.6432L6.14825 13.6456C5.81064 14.2625 5.6058 14.9143 5.56208 15.5887L5.56046 15.613C5.50865 16.4753 5.72239 17.3432 6.2195 18.1957L6.22517 18.2038L6.21707 18.2233C5.83493 19.16 5.7151 20.1032 5.86246 21.0457L5.86731 21.0772C5.89014 21.2149 5.96663 21.3379 6.08001 21.4192C6.19338 21.5006 6.33439 21.5337 6.47211 21.5112C6.5403 21.5005 6.60573 21.4765 6.66463 21.4406C6.72354 21.4046 6.77476 21.3574 6.81538 21.3015C6.85599 21.2457 6.88519 21.1825 6.90131 21.1154C6.91743 21.0482 6.92015 20.9786 6.90931 20.9104C6.7741 20.0741 6.90121 19.2353 7.29793 18.382C7.33495 18.3027 7.35139 18.2154 7.34573 18.128C7.34007 18.0407 7.31249 17.9563 7.26555 17.8824L7.26231 17.8776C6.77329 17.1295 6.57088 16.3959 6.6146 15.6754C6.65185 15.0447 6.87774 14.4253 7.26231 13.8351C7.33711 13.7203 7.36375 13.5807 7.33648 13.4465C7.30921 13.3123 7.23022 13.1942 7.11658 13.1177L7.10929 13.1129C6.91255 12.9841 6.73119 12.6554 6.6397 12.2061C6.53875 11.6747 6.56511 11.127 6.71662 10.6079C6.88259 10.0411 7.18621 9.56829 7.61126 9.24525C8.09299 8.87768 8.73098 8.70037 9.53819 8.75137C9.64374 8.75824 9.74892 8.73328 9.84014 8.67973C9.93136 8.62619 10.0044 8.54651 10.0499 8.451C10.3041 7.91259 10.6749 7.52721 11.1372 7.28837C11.5811 7.06685 12.078 6.97375 12.5719 7.01957C13.5799 7.09972 14.4689 7.66808 14.7336 8.38461C14.7711 8.48546 14.8384 8.57245 14.9267 8.63395C15.015 8.69544 15.1199 8.7285 15.2275 8.7287C16.0914 8.73032 16.7601 8.93273 17.2491 9.29788C17.6718 9.61363 17.96 10.0549 18.1122 10.5836C18.2499 11.0812 18.2688 11.6043 18.1673 12.1105C18.0766 12.5623 17.8993 12.9364 17.6961 13.138L17.6896 13.1436C17.5179 13.3112 17.4815 13.5727 17.6013 13.7792C17.8928 14.2828 18.1106 15.0333 18.1462 15.7547C18.1867 16.5789 17.9956 17.2946 17.5641 17.8079L17.5511 17.8233C17.486 17.8992 17.4441 17.9923 17.4305 18.0913C17.4168 18.1904 17.432 18.2913 17.4742 18.382C17.9406 19.3827 18.0839 20.2053 17.9292 20.853C17.9014 20.9876 17.9273 21.1279 18.0013 21.2438C18.0753 21.3597 18.1917 21.4421 18.3255 21.4736C18.4594 21.505 18.6003 21.4829 18.7182 21.4121C18.836 21.3413 18.9216 21.2272 18.9567 21.0942C19.1534 20.27 19.0198 19.326 18.5737 18.2621L18.5624 18.2338L18.5688 18.2241C18.7881 17.9002 18.9517 17.542 19.053 17.1643L19.057 17.1489C19.1799 16.6776 19.2283 16.19 19.2004 15.7037C19.1647 14.9669 18.9753 14.2123 18.6968 13.6067L18.687 13.5857L18.6887 13.5841C18.9259 13.2456 19.1016 12.8125 19.1987 12.3332L19.2028 12.3138C19.3366 11.6452 19.3108 10.9545 19.1275 10.2978C18.9154 9.55696 18.4984 8.92059 17.8839 8.46072C17.8353 8.42428 17.7843 8.38785 17.7333 8.35384C17.862 7.14506 17.8296 6.14354 17.6426 5.38249C17.5398 4.9631 17.3884 4.61334 17.1876 4.34049C16.969 4.04255 16.6905 3.8369 16.3658 3.74379C16.1505 3.68226 15.9286 3.69602 15.7205 3.7778V3.77861ZM12.3881 11.1382C11.6303 11.1382 10.9308 11.3916 10.4077 11.8304C9.89767 12.2571 9.59405 12.8303 9.59405 13.4011C9.59405 14.1201 9.92277 14.6803 10.5114 15.0382C11.0133 15.3418 11.6861 15.4891 12.4569 15.4891C13.2738 15.4891 13.9717 15.2794 14.4753 14.8949C14.9749 14.5143 15.255 13.98 15.255 13.4011C15.255 12.8287 14.9328 12.2538 14.4 11.8256C13.8592 11.3908 13.1451 11.1382 12.3881 11.1382ZM12.3881 11.8636C12.9498 11.8587 13.4966 12.0442 13.9394 12.3899C14.3126 12.6894 14.5239 13.0659 14.5239 13.4019C14.5239 13.7484 14.3539 14.0731 14.03 14.32C13.6617 14.601 13.12 14.7637 12.4569 14.7637C11.81 14.7637 11.2643 14.6447 10.8927 14.4188C10.5178 14.1921 10.326 13.8634 10.326 13.4011C10.326 13.0586 10.5251 12.6805 10.8789 12.3842C11.2708 12.0563 11.8019 11.8636 12.3881 11.8636ZM11.8521 12.8433L11.8489 12.8465C11.7517 12.9688 11.772 13.1461 11.8942 13.2432L12.1306 13.4294V13.7905C12.1311 13.8709 12.1634 13.9478 12.2204 14.0045C12.2775 14.0611 12.3547 14.0927 12.4351 14.0925C12.5154 14.0927 12.5926 14.0611 12.6497 14.0045C12.7068 13.9478 12.7391 13.8709 12.7395 13.7905V13.4181L12.9589 13.2416C12.9878 13.2184 13.0119 13.1897 13.0297 13.1572C13.0475 13.1246 13.0587 13.0889 13.0626 13.052C13.0665 13.0151 13.0631 12.9778 13.0525 12.9423C13.0419 12.9067 13.0244 12.8736 13.001 12.8449C12.9532 12.7867 12.8844 12.7497 12.8095 12.742C12.7346 12.7343 12.6597 12.7564 12.601 12.8036L12.427 12.9428L12.2488 12.802C12.1904 12.7558 12.1162 12.7343 12.0421 12.742C11.968 12.7497 11.8998 12.786 11.8521 12.8433ZM15.9327 11.2896C15.5457 11.2896 15.2307 11.6053 15.2307 11.9948C15.2305 12.1814 15.3044 12.3606 15.4362 12.4928C15.5679 12.625 15.7468 12.6995 15.9335 12.7C16.1199 12.6993 16.2984 12.6248 16.43 12.4928C16.5616 12.3608 16.6354 12.182 16.6354 11.9956C16.6359 11.8089 16.5622 11.6297 16.4306 11.4973C16.2989 11.3649 16.1193 11.2902 15.9327 11.2896ZM8.884 11.2896C8.49538 11.2896 8.18124 11.6053 8.18124 11.9948C8.18103 12.1814 8.25492 12.3606 8.38669 12.4928C8.51846 12.625 8.69733 12.6995 8.884 12.7C9.0704 12.6993 9.24894 12.6248 9.38051 12.4928C9.51208 12.3608 9.58596 12.182 9.58596 11.9956C9.58639 11.8089 9.5127 11.6297 9.38108 11.4973C9.24946 11.3649 9.07068 11.2902 8.884 11.2896ZM16.097 4.75826L16.0995 4.75988C16.1933 4.80067 16.2733 4.86755 16.3302 4.95257L16.3343 4.95743C16.446 5.11045 16.5431 5.33553 16.616 5.63105C16.7536 6.19131 16.7909 6.95156 16.7164 7.88345C16.3683 7.77981 15.9885 7.71504 15.5797 7.69156L15.5716 7.69075L15.5562 7.66323C15.5189 7.59684 15.4793 7.53288 15.4364 7.46972C15.3368 6.8455 15.4186 6.09982 15.6412 5.49098C15.7497 5.19627 15.8817 4.96472 16.008 4.83275C16.034 4.80531 16.0631 4.78087 16.0946 4.75988L16.097 4.75826ZM8.66945 4.79065L8.67107 4.79146C8.70257 4.81245 8.73163 4.83689 8.7577 4.86432C8.88401 4.99629 9.01679 5.22866 9.12447 5.52337C9.35926 6.16621 9.4378 6.96127 9.31068 7.60574L9.26372 7.68428L9.25725 7.69561H9.23296C8.83114 7.69572 8.43142 7.75352 8.04603 7.86725C7.97641 6.95723 8.01527 6.21317 8.14967 5.66343C8.22254 5.36792 8.31969 5.14284 8.43223 4.98982L8.43547 4.98496C8.49221 4.89964 8.57231 4.83246 8.66621 4.79146H8.66945V4.79065Z" fill="black"/>
</svg>
