<svg width="25" height="25" viewBox="0 0 25 25" fill="none" xmlns="http://www.w3.org/2000/svg">
<path d="M13.3499 3.43902C15.2983 3.43902 17.0294 4.69365 17.6327 6.54547C18.2519 6.67311 18.8369 6.93116 19.3486 7.30246C19.8603 7.67377 20.2871 8.14979 20.6005 8.69887C21.5777 10.3878 21.3545 12.5111 20.0454 13.9587C20.4496 15.1713 20.3109 16.4981 19.6654 17.5961C18.6942 19.291 16.74 20.1597 14.8277 19.7555C14.409 20.228 13.8943 20.6058 13.3181 20.8638C12.7418 21.1218 12.1172 21.2539 11.4859 21.2514C9.53748 21.2514 7.80639 19.9968 7.20305 18.145C5.9484 17.8855 4.86861 17.1013 4.24129 15.9915C3.25809 14.3026 3.48124 12.1794 4.79012 10.7317V10.7257C4.59049 10.1264 4.5211 9.49131 4.58665 8.86301C4.65219 8.23469 4.85114 7.62761 5.17014 7.08238C6.14158 5.39343 8.09599 4.52458 10.0021 4.92876C10.4227 4.45745 10.9387 4.08091 11.5159 3.82408C12.093 3.56725 12.7182 3.43599 13.3499 3.43902ZM13.3499 4.59725L13.3559 4.60324C12.5717 4.60324 11.8176 4.87469 11.2145 5.37547C11.2386 5.38744 11.2869 5.41758 11.323 5.43574L14.8698 7.48056C15.0508 7.58316 15.1594 7.77616 15.1594 7.98734V12.7887L16.6855 11.9081V7.93903C16.6858 7.05369 16.3347 6.20441 15.7093 5.57778C15.0838 4.95115 14.2352 4.59862 13.3499 4.59725ZM9.07727 5.99509C8.48953 5.99397 7.91186 6.14802 7.40273 6.44169C6.8936 6.73537 6.47105 7.15824 6.17772 7.66759C5.7917 8.34321 5.64704 9.1334 5.77976 9.89944C5.80391 9.88123 5.85198 9.85731 5.88235 9.83916L9.42907 7.78814C9.51831 7.73767 9.61909 7.71115 9.72161 7.71115C9.82408 7.71115 9.92486 7.73767 10.0141 7.78814L14.1702 10.1888V8.42742L10.738 6.44287C10.2334 6.1503 9.66059 5.99579 9.07727 5.99488V5.99509ZM17.8497 7.81827V12.0346C17.8497 12.2458 17.7411 12.4328 17.5601 12.5414L13.4102 14.9361L14.9424 15.8227L18.3686 13.8442C19.1343 13.4004 19.6926 12.671 19.9211 11.816C20.1495 10.961 20.0293 10.0503 19.5869 9.28388C19.1967 8.60746 18.5821 8.08911 17.8497 7.81827ZM9.89952 8.86173L6.46731 10.8403C4.86878 11.7632 4.32611 13.802 5.24903 15.4006L5.24304 15.4066C5.63505 16.0822 6.25038 16.6009 6.98029 16.8664V12.6498C6.98029 12.4386 7.08887 12.2456 7.26995 12.1432L11.4258 9.74234L9.89952 8.86173ZM12.421 10.3155L10.6716 11.3289V13.3496L12.421 14.3629L14.1702 13.3496V11.3289L12.421 10.3155ZM9.67038 11.9081L8.14434 12.7887V16.7518C8.14434 18.5976 9.64024 20.0936 11.4799 20.0936V20.0876C12.2581 20.0876 13.0182 19.8162 13.6153 19.3156C13.5912 19.3036 13.5369 19.2733 13.5068 19.2551L9.96003 17.2103C9.77896 17.1077 9.66444 16.9147 9.6706 16.7035L9.67038 11.9081ZM10.6658 14.5018V16.263L14.0979 18.2416C15.6965 19.1585 17.7353 18.6156 18.6582 17.023H18.6523C19.0443 16.3534 19.1832 15.5572 19.0505 14.7912C19.0263 14.8094 18.978 14.8333 18.9479 14.8515L15.4011 16.9025C15.3119 16.953 15.2111 16.9795 15.1086 16.9795C15.0061 16.9795 14.9053 16.953 14.8161 16.9025L10.6658 14.5018Z" fill="#26282D"/>
</svg>
