<svg width="80" height="80" viewBox="0 0 80 80" fill="none" xmlns="http://www.w3.org/2000/svg">
<path d="M30.5022 13.1458H47.369L29.8596 65.0243C29.6797 65.5574 29.337 66.0206 28.88 66.3488C28.423 66.6769 27.8745 66.8535 27.3119 66.8536H14.1853C13.7591 66.8537 13.3389 66.7522 12.9596 66.5576C12.5803 66.3631 12.2527 66.081 12.0041 65.7347C11.7554 65.3885 11.5928 64.988 11.5296 64.5664C11.4665 64.1448 11.5046 63.7142 11.6409 63.3103L27.9538 14.9751C28.1337 14.4418 28.4764 13.9783 28.9336 13.65C29.3907 13.3218 29.9394 13.1458 30.5022 13.1458Z" fill="url(#paint0_linear_419_98)"/>
<path d="M55.0121 47.9424H28.2654C28.0168 47.9421 27.7738 48.0168 27.5681 48.1565C27.3625 48.2963 27.2037 48.4948 27.1125 48.7262C27.0212 48.9575 27.0018 49.2109 27.0567 49.4534C27.1115 49.696 27.2382 49.9164 27.4201 50.0859L44.6069 66.1275C45.1073 66.5942 45.7662 66.8538 46.4505 66.8536H61.5955L55.0121 47.9424Z" fill="#0078D4"/>
<path d="M30.5022 13.1458C29.9332 13.1436 29.3785 13.3234 28.9189 13.6589C28.4594 13.9944 28.1192 14.4681 27.948 15.0107L11.661 63.2662C11.5155 63.6716 11.4699 64.1061 11.5278 64.5329C11.5858 64.9596 11.7457 65.3662 11.9941 65.7181C12.2424 66.07 12.5718 66.3569 12.9545 66.5545C13.3371 66.7522 13.7618 66.8548 14.1925 66.8536H27.6578C28.1593 66.764 28.6281 66.5429 29.0161 66.2128C29.4042 65.8828 29.6978 65.4557 29.8667 64.9751L33.1147 55.4029L44.7164 66.224C45.2025 66.6261 45.8124 66.8485 46.4433 66.8536H61.532L54.9143 47.9424L35.6229 47.9469L47.4299 13.1458L30.5022 13.1458Z" fill="url(#paint1_linear_419_98)"/>
<path d="M52.0453 14.9725C51.8657 14.4401 51.5235 13.9774 51.0671 13.6497C50.6106 13.3219 50.0628 13.1457 49.5009 13.1458H30.703C31.2649 13.1458 31.8127 13.3221 32.2691 13.6498C32.7256 13.9775 33.0678 14.4401 33.2475 14.9725L49.5611 63.3096C49.6975 63.7136 49.7357 64.1443 49.6726 64.566C49.6095 64.9877 49.4469 65.3883 49.1982 65.7347C48.9496 66.0811 48.622 66.3633 48.2427 66.558C47.8633 66.7527 47.443 66.8542 47.0166 66.8543H65.8151C66.2415 66.8541 66.6617 66.7525 67.0409 66.5578C67.4202 66.3631 67.7477 66.0808 67.9963 65.7345C68.2449 65.3881 68.4074 64.9875 68.4705 64.5658C68.5335 64.1442 68.4953 63.7136 68.3589 63.3096L52.0453 14.9725Z" fill="url(#paint2_linear_419_98)"/>
<defs>
<linearGradient id="paint0_linear_419_98" x1="51.4656" y1="17.1263" x2="39.713" y2="72.3005" gradientUnits="userSpaceOnUse">
<stop stop-color="#114A8B"/>
<stop offset="1" stop-color="#0669BC"/>
</linearGradient>
<linearGradient id="paint1_linear_419_98" x1="46.3417" y1="41.2421" x2="41.8667" y2="42.9638" gradientUnits="userSpaceOnUse">
<stop stop-opacity="0.3"/>
<stop offset="0.071" stop-opacity="0.2"/>
<stop offset="0.321" stop-opacity="0.1"/>
<stop offset="0.623" stop-opacity="0.05"/>
<stop offset="1" stop-opacity="0"/>
</linearGradient>
<linearGradient id="paint2_linear_419_98" x1="39.893" y1="15.6164" x2="59.1209" y2="66.8432" gradientUnits="userSpaceOnUse">
<stop stop-color="#3CCBF4"/>
<stop offset="1" stop-color="#2892DF"/>
</linearGradient>
</defs>
</svg>
