<svg width="691" height="447" viewBox="0 0 691 447" fill="none" xmlns="http://www.w3.org/2000/svg">
<mask id="mask0_37_21" style="mask-type:luminance" maskUnits="userSpaceOnUse" x="0" y="0" width="691" height="447">
    <path d="M691 0H0V447H691V0Z" fill="white"/>
</mask>
<g mask="url(#mask0_37_21)">
    <path d="M671.946 405V312.5C671.946 299.245 661.201 288.5 647.946 288.5C634.691 288.5 336.499 288.5 336.499 288.5L25.9078 288C12.6528 288 1.90782 277.254 1.90782 264V1.00036" stroke="#AA4DF7" stroke-width="2" stroke-miterlimit="0" stroke-linejoin="bevel"/>
    <path d="M671.953 446.91C682.422 446.91 690.908 438.423 690.908 427.955C690.908 417.486 682.422 409 671.953 409C661.485 409 652.998 417.486 652.998 427.955C652.998 438.423 661.485 446.91 671.953 446.91Z" fill="#AA4DF7"/>
    <path d="M678.998 422V421C678.998 420.47 678.787 419.961 678.412 419.586C678.037 419.211 677.528 419 676.998 419H674.998C674.468 419 673.959 419.211 673.584 419.586C673.209 419.961 672.998 420.47 672.998 421V422H670.998V421C670.998 420.47 670.787 419.961 670.412 419.586C670.037 419.211 669.528 419 668.998 419H666.998C666.468 419 665.959 419.211 665.584 419.586C665.209 419.961 664.998 420.47 664.998 421V422H662.998V436H673.998V434H664.998V424H678.998V429H680.998V422M680.998 431V434H683.998V436H680.998V439H678.998V436H675.998V434H678.998V431H680.998Z" fill="white"/>
</g>
</svg>
