<svg width="683" height="433" viewBox="0 0 683 433" fill="none" xmlns="http://www.w3.org/2000/svg">
<circle cx="18.9551" cy="413.108" r="18.9551" fill="#7F4AF6"/>
<path d="M14.6928 411.1C14.6928 410.32 14.8753 409.673 15.2403 409.158C15.6103 408.643 16.1078 408.258 16.7328 408.003C17.3578 407.743 18.0528 407.613 18.8178 407.613C19.6278 407.613 20.3478 407.718 20.9778 407.928C21.6128 408.138 22.1128 408.458 22.4778 408.888C22.8428 409.318 23.0253 409.863 23.0253 410.523C23.0253 411.058 22.8703 411.53 22.5603 411.94C22.2503 412.345 21.7453 412.668 21.0453 412.908C21.4453 413.018 21.8153 413.185 22.1553 413.41C22.4953 413.635 22.7678 413.923 22.9728 414.273C23.1778 414.623 23.2803 415.043 23.2803 415.533C23.2803 416.063 23.1628 416.53 22.9278 416.935C22.6928 417.34 22.3678 417.68 21.9528 417.955C21.5378 418.23 21.0578 418.435 20.5128 418.57C19.9678 418.705 19.3853 418.773 18.7653 418.773C17.8953 418.768 17.1528 418.625 16.5378 418.345C15.9278 418.06 15.4578 417.655 15.1278 417.13C14.8028 416.605 14.6353 415.98 14.6253 415.255H16.7328C16.8378 415.87 17.0778 416.315 17.4528 416.59C17.8278 416.865 18.2728 417.003 18.7878 417.003C19.2378 417.003 19.6228 416.938 19.9428 416.808C20.2678 416.678 20.5153 416.498 20.6853 416.268C20.8603 416.033 20.9478 415.765 20.9478 415.465C20.9478 415.155 20.8578 414.888 20.6778 414.663C20.5028 414.438 20.2578 414.263 19.9428 414.138C19.6278 414.008 19.2678 413.938 18.8628 413.928L17.8278 413.89V412.15L18.7578 412.098C19.1478 412.083 19.4878 412.01 19.7778 411.88C20.0678 411.75 20.2928 411.578 20.4528 411.363C20.6178 411.143 20.7003 410.895 20.7003 410.62C20.7003 410.355 20.6178 410.125 20.4528 409.93C20.2878 409.735 20.0603 409.583 19.7703 409.473C19.4803 409.363 19.1478 409.308 18.7728 409.308C18.4278 409.308 18.1103 409.365 17.8203 409.48C17.5303 409.595 17.2928 409.785 17.1078 410.05C16.9228 410.31 16.8153 410.66 16.7853 411.1H14.6928Z" fill="black"/>
<path d="M681.996 0.506653V29.0829C681.996 29.084 681.997 29.0849 681.998 29.0849V29.0849C681.999 29.0849 682 29.0858 682 29.0869V243.365C682 256.62 671.255 267.365 658 267.365H42.9551C29.7002 267.365 18.9551 278.11 18.9551 291.365V390.153" stroke="#7F4AF6" stroke-width="2" stroke-miterlimit="0" stroke-linejoin="bevel"/>
</svg>
