<svg width="683" height="433" viewBox="0 0 683 433" fill="none" xmlns="http://www.w3.org/2000/svg">
<g clip-path="url(#clip0_39_51)">
<mask id="mask0_39_51" style="mask-type:luminance" maskUnits="userSpaceOnUse" x="0" y="0" width="683" height="433">
<path d="M683 0H0V433H683V0Z" fill="white"/>
</mask>
<g mask="url(#mask0_39_51)">
<mask id="mask1_39_51" style="mask-type:luminance" maskUnits="userSpaceOnUse" x="0" y="0" width="683" height="433">
<path d="M683 0H0V433H683V0Z" fill="white"/>
</mask>
<g mask="url(#mask1_39_51)">
<path d="M18.9591 390.153V361.577L18.9571 361.575L18.9551 361.573V291.5C18.9551 278.245 29.7001 267.5 42.9551 267.5L657.5 267.5C670.755 267.5 681.5 256.755 681.5 243.5L682 0.506897" stroke="#7F4AF6" stroke-width="2" stroke-miterlimit="0" stroke-linejoin="bevel"/>
</g>
<path d="M18.9551 432.91C29.4237 432.91 37.9102 424.424 37.9102 413.955C37.9102 403.486 29.4237 395 18.9551 395C8.48649 395 0 403.486 0 413.955C0 424.424 8.48649 432.91 18.9551 432.91Z" fill="#7F4AF6"/>
<mask id="mask2_39_51" style="mask-type:luminance" maskUnits="userSpaceOnUse" x="7" y="402" width="24" height="24">
<path d="M31 402H7V426H31V402Z" fill="white"/>
</mask>
<g mask="url(#mask2_39_51)">
<path d="M12 411H26V413.1L28 414.8V407C28 405.9 27.1 405 26 405H25V403H23V405H15V403H13V405H12C10.9 405 10 405.9 10 407V421C10 422.1 10.9 423 12 423H20V421H12V411ZM26 407V409H12V407H26ZM14 418V413H19V418H14ZM29.9 419.7C29.8 419.8 29.7 419.9 29.6 419.9L27.7 420.3L29 423.1C29.2 423.4 29 423.7 28.7 423.9L26.6 424.9C26.4 425 26.4 425 26.3 425C26.1 425 25.9 424.9 25.8 424.7L24.5 421.9L23 423C22.9 423.1 22.8 423.1 22.6 423.1C22.3 423.1 22 422.8 22 422.5V413.5C22 413.2 22.3 412.9 22.6 412.9C22.7 412.9 22.9 413 23 413L29.8 418.8C30 419.1 30.1 419.5 29.9 419.7Z" fill="white"/>
</g>
</g>
</g>
<defs>
<clipPath id="clip0_39_51">
<rect width="683" height="433" fill="white"/>
</clipPath>
</defs>
</svg>
