<svg width="639" height="668" viewBox="0 0 639 668" fill="none" xmlns="http://www.w3.org/2000/svg">
<g filter="url(#filter0_f_1_2279)">
<rect width="170.248" height="266.493" transform="matrix(-1 0 0 1 391.691 200.703)" fill="url(#paint0_linear_1_2279)"/>
</g>
<rect x="99.002" y="208.197" width="477" height="114" rx="7.5" fill="#1761FD" fill-opacity="0.05"/>
<rect x="99.002" y="208.197" width="477" height="114" rx="7.5" stroke="#1761FD"/>
<rect x="106.502" y="215.697" width="39" height="15" rx="7.5" fill="#1761FD"/>
<path d="M116.327 224.447C116.324 224.71 116.365 224.94 116.452 225.137C116.539 225.33 116.664 225.48 116.827 225.587C116.994 225.69 117.194 225.742 117.427 225.742C117.677 225.742 117.895 225.688 118.082 225.582C118.272 225.475 118.404 225.3 118.477 225.057H119.792C119.735 225.423 119.589 225.737 119.352 225.997C119.119 226.257 118.835 226.455 118.502 226.592C118.169 226.728 117.822 226.797 117.462 226.797C116.952 226.797 116.502 226.69 116.112 226.477C115.725 226.26 115.424 225.955 115.207 225.562C114.99 225.168 114.882 224.705 114.882 224.172C114.882 223.655 114.98 223.19 115.177 222.777C115.374 222.36 115.659 222.032 116.032 221.792C116.409 221.548 116.86 221.427 117.387 221.427C117.914 221.427 118.355 221.538 118.712 221.762C119.072 221.982 119.342 222.29 119.522 222.687C119.705 223.08 119.797 223.535 119.797 224.052V224.447H116.327ZM116.322 223.577H118.432C118.432 223.37 118.394 223.18 118.317 223.007C118.24 222.833 118.124 222.697 117.967 222.597C117.814 222.497 117.62 222.447 117.387 222.447C117.16 222.447 116.967 222.502 116.807 222.612C116.65 222.718 116.53 222.858 116.447 223.032C116.364 223.205 116.322 223.387 116.322 223.577ZM122.281 226.797C121.951 226.797 121.655 226.735 121.391 226.612C121.128 226.488 120.92 226.31 120.766 226.077C120.613 225.84 120.536 225.553 120.536 225.217C120.536 224.65 120.748 224.22 121.171 223.927C121.595 223.63 122.263 223.477 123.176 223.467L123.821 223.457V223.147C123.821 222.91 123.751 222.728 123.611 222.602C123.475 222.472 123.261 222.408 122.971 222.412C122.758 222.415 122.555 222.465 122.361 222.562C122.171 222.658 122.041 222.827 121.971 223.067H120.756C120.776 222.693 120.885 222.387 121.081 222.147C121.278 221.903 121.545 221.723 121.881 221.607C122.221 221.487 122.606 221.427 123.036 221.427C123.566 221.427 123.991 221.493 124.311 221.627C124.631 221.757 124.863 221.945 125.006 222.192C125.15 222.435 125.221 222.725 125.221 223.062V226.697H124.001L123.881 225.807C123.705 226.18 123.483 226.438 123.216 226.582C122.953 226.725 122.641 226.797 122.281 226.797ZM122.771 225.837C122.905 225.837 123.033 225.813 123.156 225.767C123.283 225.717 123.395 225.652 123.491 225.572C123.591 225.488 123.671 225.395 123.731 225.292C123.791 225.188 123.821 225.082 123.821 224.972V224.207L123.296 224.217C123.053 224.22 122.826 224.25 122.616 224.307C122.406 224.36 122.236 224.448 122.106 224.572C121.98 224.695 121.916 224.862 121.916 225.072C121.916 225.312 122 225.5 122.166 225.637C122.333 225.77 122.535 225.837 122.771 225.837ZM128.729 221.427C129.162 221.427 129.535 221.515 129.849 221.692C130.165 221.868 130.414 222.107 130.594 222.407C130.777 222.707 130.882 223.042 130.909 223.412H129.694C129.67 223.275 129.622 223.14 129.549 223.007C129.475 222.87 129.372 222.758 129.239 222.672C129.105 222.582 128.939 222.537 128.739 222.537C128.399 222.537 128.122 222.668 127.909 222.932C127.699 223.192 127.594 223.588 127.594 224.122C127.594 224.625 127.697 225.025 127.904 225.322C128.11 225.615 128.399 225.762 128.769 225.762C128.965 225.762 129.129 225.713 129.259 225.617C129.392 225.52 129.495 225.405 129.569 225.272C129.642 225.135 129.689 225.008 129.709 224.892H130.894C130.87 225.248 130.767 225.572 130.584 225.862C130.4 226.148 130.15 226.377 129.834 226.547C129.52 226.713 129.152 226.797 128.729 226.797C128.249 226.797 127.82 226.69 127.444 226.477C127.067 226.263 126.77 225.958 126.554 225.562C126.34 225.162 126.234 224.685 126.234 224.132C126.234 223.598 126.337 223.128 126.544 222.722C126.75 222.315 127.04 221.998 127.414 221.772C127.79 221.542 128.229 221.427 128.729 221.427ZM131.914 226.697V219.267H133.364V222.272C133.447 222.152 133.552 222.033 133.679 221.917C133.806 221.797 133.964 221.697 134.154 221.617C134.344 221.537 134.576 221.497 134.849 221.497C135.179 221.497 135.479 221.562 135.749 221.692C136.022 221.818 136.241 222.003 136.404 222.247C136.571 222.49 136.654 222.787 136.654 223.137V226.697H135.189V223.352C135.189 223.118 135.104 222.94 134.934 222.817C134.767 222.69 134.564 222.627 134.324 222.627C134.167 222.627 134.016 222.655 133.869 222.712C133.722 222.768 133.602 222.855 133.509 222.972C133.419 223.085 133.374 223.227 133.374 223.397V226.697H131.914Z" fill="white"/>
<rect x="562.502" y="199.931" width="21.2656" height="21.2656" rx="10.6328" fill="#1761FD"/>
<g clip-path="url(#clip0_1_2279)">
<path d="M569.182 211.271L569.186 212.272L571.427 212.272L571.427 214.513L572.424 214.513L572.428 211.271L569.182 211.271ZM577.087 209.857L577.084 208.856L574.842 208.856L574.842 206.615L573.842 206.611L573.842 209.857L577.087 209.857Z" fill="white"/>
</g>
<path d="M331.281 207.499L334.168 202.499L328.394 202.499L331.281 207.499ZM331.781 202.999L331.781 188.74L330.781 188.74L330.781 202.999L331.781 202.999Z" fill="#918BA9"/>
<path d="M346.963 266.329L341.963 263.442V269.215L346.963 266.329ZM342.463 265.829H328.205V266.829H342.463V265.829Z" fill="#918BA9"/>
<g filter="url(#filter1_d_1_2279)">
<rect x="121.443" y="238.329" width="200" height="56" rx="8" fill="#13151E" shape-rendering="crispEdges"/>
<rect x="120.943" y="237.829" width="201" height="57" rx="8.5" stroke="#404559" shape-rendering="crispEdges"/>
<rect x="133.084" y="249.969" width="32.7187" height="32.7187" rx="5.99193" fill="white"/>
<rect x="133.084" y="249.969" width="32.7187" height="32.7187" rx="5.99193" stroke="#404559" stroke-width="0.386576"/>
<path fill-rule="evenodd" clip-rule="evenodd" d="M142.603 256.516H148.401V262.411H146.468L146.468 264.649H151.282V262.411H157.08V268.307H151.282V266.614L146.468 266.614V272.478H151.282V270.423H157.08V276.319H151.282V274.443H146.468C145.401 274.443 144.535 273.563 144.535 272.478L144.535 264.649L144.535 262.411H142.603V256.516Z" fill="#26282D"/>
<g clip-path="url(#clip1_1_2279)">
<path d="M180.363 268.729C180.358 269.15 180.425 269.518 180.563 269.833C180.702 270.142 180.902 270.382 181.163 270.553C181.43 270.718 181.75 270.801 182.123 270.801C182.523 270.801 182.873 270.715 183.171 270.545C183.475 270.374 183.686 270.094 183.803 269.705H185.907C185.817 270.291 185.582 270.793 185.203 271.209C184.83 271.625 184.377 271.942 183.843 272.161C183.31 272.379 182.755 272.489 182.179 272.489C181.363 272.489 180.643 272.318 180.019 271.977C179.401 271.63 178.918 271.142 178.571 270.513C178.225 269.883 178.051 269.142 178.051 268.289C178.051 267.462 178.209 266.718 178.523 266.057C178.838 265.39 179.294 264.865 179.891 264.481C180.494 264.091 181.217 263.897 182.059 263.897C182.902 263.897 183.609 264.075 184.179 264.433C184.755 264.785 185.187 265.278 185.475 265.913C185.769 266.542 185.915 267.27 185.915 268.097V268.729H180.363ZM180.355 267.337H183.731C183.731 267.006 183.67 266.702 183.547 266.425C183.425 266.147 183.238 265.929 182.987 265.769C182.742 265.609 182.433 265.529 182.059 265.529C181.697 265.529 181.387 265.617 181.131 265.793C180.881 265.963 180.689 266.187 180.555 266.465C180.422 266.742 180.355 267.033 180.355 267.337ZM189.89 272.489C189.362 272.489 188.888 272.39 188.466 272.193C188.045 271.995 187.712 271.71 187.466 271.337C187.221 270.958 187.098 270.499 187.098 269.961C187.098 269.054 187.437 268.366 188.114 267.897C188.792 267.422 189.861 267.177 191.322 267.161L192.354 267.145V266.649C192.354 266.27 192.242 265.979 192.018 265.777C191.8 265.569 191.458 265.467 190.994 265.473C190.653 265.478 190.328 265.558 190.018 265.713C189.714 265.867 189.506 266.137 189.394 266.521H187.45C187.482 265.923 187.656 265.433 187.97 265.049C188.285 264.659 188.712 264.371 189.25 264.185C189.794 263.993 190.41 263.897 191.098 263.897C191.946 263.897 192.626 264.003 193.138 264.217C193.65 264.425 194.021 264.726 194.25 265.121C194.48 265.51 194.594 265.974 194.594 266.513V272.329H192.642L192.45 270.905C192.168 271.502 191.813 271.915 191.386 272.145C190.965 272.374 190.466 272.489 189.89 272.489ZM190.674 270.953C190.888 270.953 191.093 270.915 191.29 270.841C191.493 270.761 191.672 270.657 191.826 270.529C191.986 270.395 192.114 270.246 192.21 270.081C192.306 269.915 192.354 269.745 192.354 269.569V268.345L191.514 268.361C191.125 268.366 190.762 268.414 190.426 268.505C190.09 268.59 189.818 268.731 189.61 268.929C189.408 269.126 189.306 269.393 189.306 269.729C189.306 270.113 189.44 270.414 189.706 270.633C189.973 270.846 190.296 270.953 190.674 270.953ZM200.206 263.897C200.899 263.897 201.497 264.038 201.998 264.321C202.505 264.603 202.902 264.985 203.19 265.465C203.483 265.945 203.651 266.481 203.694 267.073H201.75C201.713 266.854 201.635 266.638 201.518 266.425C201.401 266.206 201.235 266.027 201.022 265.889C200.809 265.745 200.542 265.673 200.222 265.673C199.678 265.673 199.235 265.883 198.894 266.305C198.558 266.721 198.39 267.355 198.39 268.209C198.39 269.014 198.555 269.654 198.886 270.129C199.217 270.598 199.678 270.833 200.27 270.833C200.585 270.833 200.846 270.755 201.054 270.601C201.267 270.446 201.433 270.262 201.55 270.049C201.667 269.83 201.742 269.627 201.774 269.441H203.67C203.633 270.011 203.467 270.529 203.174 270.993C202.881 271.451 202.481 271.817 201.974 272.089C201.473 272.355 200.883 272.489 200.206 272.489C199.438 272.489 198.753 272.318 198.15 271.977C197.547 271.635 197.073 271.147 196.726 270.513C196.385 269.873 196.214 269.11 196.214 268.225C196.214 267.371 196.379 266.619 196.71 265.969C197.041 265.318 197.505 264.811 198.102 264.449C198.705 264.081 199.406 263.897 200.206 263.897ZM205.303 272.329V260.441H207.623V265.249C207.756 265.057 207.924 264.867 208.127 264.681C208.329 264.489 208.583 264.329 208.887 264.201C209.191 264.073 209.561 264.009 209.999 264.009C210.527 264.009 211.007 264.113 211.439 264.321C211.876 264.523 212.225 264.819 212.487 265.209C212.753 265.598 212.887 266.073 212.887 266.633V272.329H210.543V266.977C210.543 266.603 210.407 266.318 210.135 266.121C209.868 265.918 209.543 265.817 209.159 265.817C208.908 265.817 208.665 265.862 208.431 265.953C208.196 266.043 208.004 266.182 207.855 266.369C207.711 266.55 207.639 266.777 207.639 267.049V272.329H205.303Z" fill="white"/>
<path d="M229.777 262.995H231.11V264.329H229.777V262.995ZM229.777 265.662H231.11V269.662H229.777V265.662ZM230.444 259.662C226.764 259.662 223.777 262.649 223.777 266.329C223.777 270.009 226.764 272.995 230.444 272.995C234.124 272.995 237.11 270.009 237.11 266.329C237.11 262.649 234.124 259.662 230.444 259.662ZM230.444 271.662C227.504 271.662 225.11 269.269 225.11 266.329C225.11 263.389 227.504 260.995 230.444 260.995C233.384 260.995 235.777 263.389 235.777 266.329C235.777 269.269 233.384 271.662 230.444 271.662Z" fill="#918BA9"/>
</g>
</g>
<g filter="url(#filter2_d_1_2279)">
<rect x="347.963" y="237.855" width="200" height="56" rx="8" fill="#13151E" shape-rendering="crispEdges"/>
<rect x="347.463" y="237.355" width="201" height="57" rx="8.5" stroke="#404559" shape-rendering="crispEdges"/>
<rect x="359.603" y="249.496" width="32.7187" height="32.7187" rx="5.99193" fill="white"/>
<rect x="359.603" y="249.496" width="32.7187" height="32.7187" rx="5.99193" stroke="#404559" stroke-width="0.386576"/>
<path fill-rule="evenodd" clip-rule="evenodd" d="M371.79 265.123V267.338C372.133 267.94 372.621 268.444 373.207 268.803V265.123H371.79Z" fill="#AECBFA"/>
<path fill-rule="evenodd" clip-rule="evenodd" d="M374.408 263.085V269.427C374.712 269.466 375.02 269.483 375.327 269.477C375.603 269.495 375.88 269.495 376.155 269.477V263.085H374.408Z" fill="#669DF6"/>
<path fill-rule="evenodd" clip-rule="evenodd" d="M377.514 265.991V268.761C378.103 268.379 378.587 267.852 378.922 267.229V265.991H377.514Z" fill="#AECBFA"/>
<path fill-rule="evenodd" clip-rule="evenodd" d="M380.91 269.747L379.734 270.942C379.701 270.975 379.674 271.015 379.657 271.058C379.639 271.101 379.629 271.148 379.629 271.195C379.629 271.242 379.639 271.289 379.657 271.332C379.674 271.376 379.701 271.415 379.734 271.448L382.666 274.429C382.731 274.494 382.819 274.531 382.91 274.531C383.002 274.531 383.09 274.494 383.155 274.429L384.339 273.225C384.404 273.159 384.44 273.069 384.44 272.976C384.44 272.883 384.404 272.794 384.339 272.728L381.407 269.747C381.375 269.713 381.336 269.686 381.293 269.668C381.251 269.65 381.205 269.64 381.159 269.64C381.112 269.64 381.066 269.65 381.024 269.668C380.981 269.686 380.942 269.713 380.91 269.747Z" fill="#4285F4"/>
<path fill-rule="evenodd" clip-rule="evenodd" d="M375.327 257.687C373.853 257.687 372.411 258.132 371.185 258.965C369.959 259.797 369.004 260.981 368.44 262.366C367.875 263.751 367.728 265.275 368.015 266.745C368.303 268.215 369.013 269.566 370.056 270.626C371.098 271.686 372.427 272.408 373.873 272.7C375.319 272.993 376.818 272.842 378.18 272.269C379.542 271.695 380.707 270.724 381.526 269.477C382.345 268.231 382.782 266.766 382.782 265.266C382.782 264.271 382.589 263.286 382.215 262.366C381.84 261.446 381.291 260.611 380.599 259.907C379.906 259.203 379.084 258.645 378.18 258.264C377.276 257.883 376.306 257.687 375.327 257.687ZM375.327 270.9C374.233 270.899 373.165 270.568 372.256 269.949C371.347 269.33 370.639 268.451 370.222 267.424C369.804 266.396 369.695 265.266 369.909 264.175C370.123 263.085 370.649 262.083 371.423 261.297C372.196 260.511 373.181 259.975 374.254 259.758C375.326 259.541 376.438 259.651 377.449 260.076C378.46 260.501 379.324 261.22 379.933 262.144C380.541 263.068 380.867 264.155 380.869 265.266C380.87 266.007 380.727 266.74 380.449 267.424C380.171 268.108 379.763 268.729 379.248 269.253C378.733 269.776 378.122 270.191 377.449 270.474C376.776 270.757 376.055 270.901 375.327 270.9Z" fill="#669DF6"/>
<g clip-path="url(#clip2_1_2279)">
<path d="M408.011 272.015C407.627 272.015 407.248 271.956 406.875 271.839C406.507 271.722 406.171 271.548 405.867 271.319C405.563 271.09 405.318 270.807 405.131 270.471C404.95 270.135 404.859 269.746 404.859 269.303V263.583H407.195V269.007C407.195 269.391 407.32 269.706 407.571 269.951C407.822 270.196 408.19 270.319 408.675 270.319C409.134 270.319 409.496 270.202 409.763 269.967C410.035 269.727 410.171 269.394 410.171 268.967V263.583H412.483V271.855H410.723L410.451 270.215C410.355 270.7 410.174 271.074 409.907 271.335C409.646 271.591 409.344 271.767 409.003 271.863C408.667 271.964 408.336 272.015 408.011 272.015ZM414.432 274.431V263.583H416.776L416.784 264.775C416.906 264.578 417.056 264.399 417.232 264.239C417.413 264.074 417.613 263.93 417.832 263.807C418.05 263.684 418.288 263.591 418.544 263.527C418.8 263.458 419.069 263.423 419.352 263.423C419.965 263.423 420.512 263.575 420.992 263.879C421.472 264.178 421.848 264.642 422.12 265.271C422.397 265.895 422.536 266.69 422.536 267.655C422.536 268.658 422.386 269.482 422.088 270.127C421.794 270.767 421.389 271.242 420.872 271.551C420.354 271.86 419.77 272.015 419.12 272.015C418.853 272.015 418.602 271.978 418.368 271.903C418.133 271.834 417.914 271.735 417.712 271.607C417.514 271.479 417.336 271.332 417.176 271.167C417.021 270.996 416.885 270.812 416.768 270.615V274.431H414.432ZM418.56 270.303C419.066 270.303 419.49 270.092 419.832 269.671C420.178 269.25 420.352 268.583 420.352 267.671C420.352 266.871 420.186 266.247 419.856 265.799C419.53 265.346 419.098 265.119 418.56 265.119C417.957 265.119 417.506 265.364 417.208 265.855C416.914 266.34 416.768 266.946 416.768 267.671C416.768 268.135 416.832 268.567 416.96 268.967C417.093 269.367 417.29 269.69 417.552 269.935C417.818 270.18 418.154 270.303 418.56 270.303ZM426.728 271.999C426.12 271.999 425.637 271.927 425.28 271.783C424.923 271.639 424.659 271.45 424.488 271.215C424.317 270.975 424.208 270.711 424.16 270.423C424.112 270.13 424.088 269.834 424.088 269.535V259.967H426.376V269.247C426.376 269.551 426.44 269.799 426.568 269.991C426.701 270.178 426.949 270.292 427.312 270.335L427.704 270.359V271.799C427.544 271.852 427.381 271.898 427.216 271.935C427.051 271.978 426.888 271.999 426.728 271.999ZM432.749 272.015C431.939 272.015 431.232 271.842 430.629 271.495C430.032 271.148 429.568 270.658 429.237 270.023C428.912 269.388 428.749 268.636 428.749 267.767C428.749 266.898 428.912 266.138 429.237 265.487C429.568 264.836 430.032 264.33 430.629 263.967C431.232 263.604 431.941 263.423 432.757 263.423C433.573 263.423 434.28 263.602 434.877 263.959C435.475 264.311 435.936 264.812 436.261 265.463C436.587 266.114 436.749 266.882 436.749 267.767C436.749 268.599 436.589 269.335 436.269 269.975C435.955 270.61 435.499 271.108 434.901 271.471C434.309 271.834 433.592 272.015 432.749 272.015ZM432.757 270.279C433.168 270.279 433.499 270.159 433.749 269.919C434 269.679 434.181 269.364 434.293 268.975C434.411 268.58 434.469 268.151 434.469 267.687C434.469 267.25 434.416 266.836 434.309 266.447C434.208 266.058 434.032 265.743 433.781 265.503C433.531 265.263 433.189 265.143 432.757 265.143C432.347 265.143 432.013 265.258 431.757 265.487C431.507 265.711 431.323 266.018 431.205 266.407C431.088 266.791 431.029 267.218 431.029 267.687C431.029 268.119 431.083 268.535 431.189 268.935C431.296 269.33 431.475 269.652 431.725 269.903C431.976 270.154 432.32 270.279 432.757 270.279ZM440.66 272.015C440.132 272.015 439.657 271.916 439.236 271.719C438.814 271.522 438.481 271.236 438.236 270.863C437.99 270.484 437.868 270.026 437.868 269.487C437.868 268.58 438.206 267.892 438.884 267.423C439.561 266.948 440.63 266.703 442.092 266.687L443.124 266.671V266.175C443.124 265.796 443.012 265.506 442.788 265.303C442.569 265.095 442.228 264.994 441.764 264.999C441.422 265.004 441.097 265.084 440.788 265.239C440.484 265.394 440.276 265.663 440.164 266.047H438.22C438.252 265.45 438.425 264.959 438.74 264.575C439.054 264.186 439.481 263.898 440.02 263.711C440.564 263.519 441.18 263.423 441.868 263.423C442.716 263.423 443.396 263.53 443.908 263.743C444.42 263.951 444.79 264.252 445.02 264.647C445.249 265.036 445.364 265.5 445.364 266.039V271.855H443.412L443.22 270.431C442.937 271.028 442.582 271.442 442.156 271.671C441.734 271.9 441.236 272.015 440.66 272.015ZM441.444 270.479C441.657 270.479 441.862 270.442 442.06 270.367C442.262 270.287 442.441 270.183 442.596 270.055C442.756 269.922 442.884 269.772 442.98 269.607C443.076 269.442 443.124 269.271 443.124 269.095V267.871L442.284 267.887C441.894 267.892 441.532 267.94 441.196 268.031C440.86 268.116 440.588 268.258 440.38 268.455C440.177 268.652 440.076 268.919 440.076 269.255C440.076 269.639 440.209 269.94 440.476 270.159C440.742 270.372 441.065 270.479 441.444 270.479ZM450.504 272.015C449.394 272.015 448.53 271.634 447.912 270.871C447.293 270.103 446.984 269.036 446.984 267.671C446.984 266.807 447.109 266.058 447.36 265.423C447.61 264.788 447.981 264.298 448.472 263.951C448.962 263.599 449.562 263.423 450.272 263.423C450.57 263.423 450.848 263.458 451.104 263.527C451.365 263.591 451.602 263.682 451.816 263.799C452.029 263.916 452.216 264.052 452.376 264.207C452.536 264.362 452.666 264.527 452.768 264.703V259.967H455.112V271.855H453.416L453.152 270.159C453.077 270.388 452.973 270.612 452.84 270.831C452.706 271.05 452.536 271.25 452.328 271.431C452.12 271.607 451.864 271.748 451.56 271.855C451.261 271.962 450.909 272.015 450.504 272.015ZM451.016 270.335C451.602 270.335 452.04 270.13 452.328 269.719C452.621 269.308 452.768 268.615 452.768 267.639C452.762 267.074 452.696 266.604 452.568 266.231C452.44 265.858 452.248 265.58 451.992 265.399C451.741 265.212 451.421 265.119 451.032 265.119C450.525 265.119 450.104 265.314 449.768 265.703C449.432 266.087 449.264 266.732 449.264 267.639C449.264 268.562 449.421 269.242 449.736 269.679C450.05 270.116 450.477 270.335 451.016 270.335ZM457.415 260.287H465.287L465.279 262.239H459.767V265.143H464.543V267.055H459.767V271.855H457.415V260.287ZM466.932 271.855V263.583H469.18V265.543C469.313 265.122 469.5 264.754 469.74 264.439C469.985 264.119 470.281 263.871 470.628 263.695C470.974 263.514 471.366 263.423 471.804 263.423C471.878 263.423 471.948 263.428 472.012 263.439C472.081 263.444 472.132 263.455 472.164 263.471V265.695C472.116 265.674 472.057 265.66 471.988 265.655C471.924 265.65 471.865 265.644 471.812 265.639C471.353 265.602 470.961 265.615 470.636 265.679C470.31 265.743 470.046 265.852 469.844 266.007C469.641 266.162 469.494 266.351 469.404 266.575C469.313 266.799 469.268 267.05 469.268 267.327V271.855H466.932ZM476.952 272.015C476.142 272.015 475.435 271.842 474.832 271.495C474.235 271.148 473.771 270.658 473.44 270.023C473.115 269.388 472.952 268.636 472.952 267.767C472.952 266.898 473.115 266.138 473.44 265.487C473.771 264.836 474.235 264.33 474.832 263.967C475.435 263.604 476.144 263.423 476.96 263.423C477.776 263.423 478.483 263.602 479.08 263.959C479.678 264.311 480.139 264.812 480.464 265.463C480.79 266.114 480.952 266.882 480.952 267.767C480.952 268.599 480.792 269.335 480.472 269.975C480.158 270.61 479.702 271.108 479.104 271.471C478.512 271.834 477.795 272.015 476.952 272.015ZM476.96 270.279C477.371 270.279 477.702 270.159 477.952 269.919C478.203 269.679 478.384 269.364 478.496 268.975C478.614 268.58 478.672 268.151 478.672 267.687C478.672 267.25 478.619 266.836 478.512 266.447C478.411 266.058 478.235 265.743 477.984 265.503C477.734 265.263 477.392 265.143 476.96 265.143C476.55 265.143 476.216 265.258 475.96 265.487C475.71 265.711 475.526 266.018 475.408 266.407C475.291 266.791 475.232 267.218 475.232 267.687C475.232 268.119 475.286 268.535 475.392 268.935C475.499 269.33 475.678 269.652 475.928 269.903C476.179 270.154 476.523 270.279 476.96 270.279ZM482.51 271.855V263.583H484.798V264.751C485.048 264.388 485.384 264.076 485.806 263.815C486.232 263.554 486.768 263.423 487.414 263.423C487.696 263.423 487.984 263.474 488.278 263.575C488.571 263.676 488.846 263.826 489.102 264.023C489.363 264.215 489.574 264.458 489.734 264.751C490 264.372 490.35 264.058 490.782 263.807C491.219 263.551 491.704 263.423 492.238 263.423C492.547 263.423 492.859 263.474 493.174 263.575C493.494 263.676 493.787 263.842 494.054 264.071C494.32 264.3 494.534 264.607 494.694 264.991C494.859 265.37 494.942 265.839 494.942 266.399V271.855H492.606V266.687C492.606 266.356 492.539 266.092 492.406 265.895C492.278 265.692 492.112 265.548 491.91 265.463C491.712 265.372 491.502 265.327 491.278 265.327C491.07 265.327 490.859 265.37 490.646 265.455C490.432 265.535 490.251 265.666 490.102 265.847C489.952 266.028 489.878 266.266 489.878 266.559V271.855H487.55V266.479C487.55 266.228 487.483 266.018 487.35 265.847C487.216 265.676 487.048 265.548 486.846 265.463C486.648 265.372 486.446 265.327 486.238 265.327C486.024 265.327 485.811 265.372 485.598 265.463C485.384 265.548 485.206 265.684 485.062 265.871C484.918 266.052 484.846 266.282 484.846 266.559V271.855H482.51ZM497.134 260.287H505.006L504.998 262.239H499.486V265.143H504.262V267.055H499.486V271.855H497.134V260.287ZM509.002 263.583V271.855H506.77V263.583H509.002ZM509.026 260.295V262.399H506.754V260.295H509.026ZM513.806 271.999C513.198 271.999 512.715 271.927 512.358 271.783C512.001 271.639 511.737 271.45 511.566 271.215C511.395 270.975 511.286 270.711 511.238 270.423C511.19 270.13 511.166 269.834 511.166 269.535V259.967H513.454V269.247C513.454 269.551 513.518 269.799 513.646 269.991C513.779 270.178 514.027 270.292 514.39 270.335L514.782 270.359V271.799C514.622 271.852 514.459 271.898 514.294 271.935C514.129 271.978 513.966 271.999 513.806 271.999ZM518.195 268.255C518.19 268.676 518.257 269.044 518.395 269.359C518.534 269.668 518.734 269.908 518.995 270.079C519.262 270.244 519.582 270.327 519.955 270.327C520.355 270.327 520.705 270.242 521.003 270.071C521.307 269.9 521.518 269.62 521.635 269.231H523.739C523.649 269.818 523.414 270.319 523.035 270.735C522.662 271.151 522.209 271.468 521.675 271.687C521.142 271.906 520.587 272.015 520.011 272.015C519.195 272.015 518.475 271.844 517.851 271.503C517.233 271.156 516.75 270.668 516.403 270.039C516.057 269.41 515.883 268.668 515.883 267.815C515.883 266.988 516.041 266.244 516.355 265.583C516.67 264.916 517.126 264.391 517.723 264.007C518.326 263.618 519.049 263.423 519.891 263.423C520.734 263.423 521.441 263.602 522.011 263.959C522.587 264.311 523.019 264.804 523.307 265.439C523.601 266.068 523.747 266.796 523.747 267.623V268.255H518.195ZM518.187 266.863H521.563C521.563 266.532 521.502 266.228 521.379 265.951C521.257 265.674 521.07 265.455 520.819 265.295C520.574 265.135 520.265 265.055 519.891 265.055C519.529 265.055 519.219 265.143 518.963 265.319C518.713 265.49 518.521 265.714 518.387 265.991C518.254 266.268 518.187 266.559 518.187 266.863Z" fill="white"/>
</g>
</g>
<g filter="url(#filter3_d_1_2279)">
<rect x="280.781" y="123.949" width="101" height="30" rx="8" fill="#03DABA" fill-opacity="0.1" shape-rendering="crispEdges"/>
<rect x="281.281" y="124.449" width="100" height="29" rx="7.5" stroke="#03DABA" shape-rendering="crispEdges"/>
<path d="M303.448 141.282H307.368C307.548 141.075 307.815 140.949 308.115 140.949C308.668 140.949 309.115 141.395 309.115 141.949C309.115 142.502 308.668 142.949 308.115 142.949C307.821 142.949 307.555 142.822 307.368 142.615H304.715C304.408 144.135 303.061 145.282 301.448 145.282C299.608 145.282 298.115 143.789 298.115 141.949C298.115 140.335 299.261 138.989 300.781 138.682V140.062C300.008 140.335 299.448 141.082 299.448 141.949C299.448 143.049 300.348 143.949 301.448 143.949C302.548 143.949 303.448 143.049 303.448 141.949V141.282ZM305.115 133.949C306.215 133.949 307.115 134.849 307.115 135.949H308.448C308.448 134.109 306.955 132.615 305.115 132.615C303.275 132.615 301.781 134.109 301.781 135.949C301.781 136.902 302.181 137.755 302.815 138.362L301.248 140.962C300.795 141.055 300.448 141.462 300.448 141.949C300.448 142.502 300.895 142.949 301.448 142.949C302.001 142.949 302.448 142.502 302.448 141.949C302.448 141.842 302.435 141.742 302.401 141.649L304.655 137.895C303.775 137.689 303.115 136.895 303.115 135.949C303.115 134.849 304.015 133.949 305.115 133.949ZM308.115 139.949C307.688 139.949 307.295 140.082 306.968 140.309L304.935 136.929C304.468 136.849 304.115 136.442 304.115 135.949C304.115 135.395 304.561 134.949 305.115 134.949C305.668 134.949 306.115 135.395 306.115 135.949C306.115 136.049 306.101 136.142 306.075 136.235L307.535 138.669C307.721 138.635 307.915 138.615 308.115 138.615C309.955 138.615 311.448 140.109 311.448 141.949C311.448 143.789 309.955 145.282 308.115 145.282C306.881 145.282 305.801 144.609 305.228 143.615H307.008C307.328 143.829 307.708 143.949 308.115 143.949C309.215 143.949 310.115 143.049 310.115 141.949C310.115 140.849 309.215 139.949 308.115 139.949Z" fill="#03DABA"/>
<path d="M317.009 135.833V134.273H323.951V135.833H321.389V142.949H319.631V135.833H317.009ZM324.738 142.949V136.745H326.424V138.215C326.524 137.899 326.664 137.623 326.844 137.387C327.028 137.147 327.25 136.961 327.51 136.829C327.77 136.693 328.064 136.625 328.392 136.625C328.448 136.625 328.5 136.629 328.548 136.637C328.6 136.641 328.638 136.649 328.662 136.661V138.329C328.626 138.313 328.582 138.303 328.53 138.299C328.482 138.295 328.438 138.291 328.398 138.287C328.054 138.259 327.76 138.269 327.516 138.317C327.272 138.365 327.074 138.447 326.922 138.563C326.77 138.679 326.66 138.821 326.592 138.989C326.524 139.157 326.49 139.345 326.49 139.553V142.949H324.738ZM331.377 136.745V142.949H329.703V136.745H331.377ZM331.395 134.279V135.857H329.691V134.279H331.395ZM335.792 145.001C334.688 145.001 333.848 144.861 333.272 144.581C332.7 144.301 332.414 143.933 332.414 143.477C332.414 143.265 332.47 143.087 332.582 142.943C332.694 142.799 332.824 142.685 332.972 142.601C333.124 142.513 333.262 142.447 333.386 142.403C333.514 142.355 333.592 142.323 333.62 142.307C333.556 142.271 333.464 142.219 333.344 142.151C333.224 142.079 333.112 141.983 333.008 141.863C332.908 141.739 332.858 141.579 332.858 141.383C332.858 141.163 332.962 140.959 333.17 140.771C333.382 140.583 333.702 140.453 334.13 140.381C333.722 140.189 333.412 139.929 333.2 139.601C332.988 139.273 332.882 138.937 332.882 138.593C332.882 138.185 333.01 137.835 333.266 137.543C333.522 137.251 333.87 137.029 334.31 136.877C334.754 136.725 335.256 136.649 335.816 136.649C336.244 136.649 336.594 136.695 336.866 136.787C337.138 136.875 337.39 136.991 337.622 137.135C337.714 137.099 337.836 137.053 337.988 136.997C338.14 136.937 338.304 136.873 338.48 136.805C338.656 136.733 338.828 136.663 338.996 136.595C339.164 136.523 339.314 136.459 339.446 136.403L339.44 137.759L338.366 137.933C338.41 138.041 338.444 138.157 338.468 138.281C338.492 138.405 338.504 138.507 338.504 138.587C338.504 138.947 338.398 139.283 338.186 139.595C337.978 139.907 337.664 140.159 337.244 140.351C336.828 140.543 336.312 140.639 335.696 140.639C335.62 140.639 335.518 140.637 335.39 140.633C335.266 140.629 335.164 140.623 335.084 140.615C334.848 140.627 334.686 140.657 334.598 140.705C334.51 140.753 334.466 140.809 334.466 140.873C334.466 140.969 334.556 141.033 334.736 141.065C334.916 141.093 335.188 141.119 335.552 141.143C335.68 141.151 335.858 141.161 336.086 141.173C336.314 141.185 336.566 141.201 336.842 141.221C337.602 141.273 338.168 141.461 338.54 141.785C338.916 142.105 339.104 142.509 339.104 142.997C339.104 143.577 338.828 144.055 338.276 144.431C337.728 144.811 336.9 145.001 335.792 145.001ZM336.074 144.023C336.562 144.023 336.91 143.963 337.118 143.843C337.326 143.723 337.43 143.551 337.43 143.327C337.43 143.139 337.35 142.987 337.19 142.871C337.03 142.751 336.796 142.681 336.488 142.661L335.066 142.565C334.882 142.557 334.718 142.585 334.574 142.649C334.434 142.713 334.324 142.801 334.244 142.913C334.168 143.025 334.13 143.145 334.13 143.273C334.13 143.533 334.288 143.723 334.604 143.843C334.92 143.963 335.41 144.023 336.074 144.023ZM335.744 139.661C336.076 139.661 336.342 139.571 336.542 139.391C336.746 139.207 336.848 138.959 336.848 138.647C336.848 138.323 336.746 138.063 336.542 137.867C336.342 137.671 336.076 137.573 335.744 137.573C335.416 137.573 335.148 137.671 334.94 137.867C334.736 138.063 334.634 138.323 334.634 138.647C334.634 138.955 334.732 139.201 334.928 139.385C335.128 139.569 335.4 139.661 335.744 139.661ZM343.292 145.001C342.188 145.001 341.348 144.861 340.772 144.581C340.2 144.301 339.914 143.933 339.914 143.477C339.914 143.265 339.97 143.087 340.082 142.943C340.194 142.799 340.324 142.685 340.472 142.601C340.624 142.513 340.762 142.447 340.886 142.403C341.014 142.355 341.092 142.323 341.12 142.307C341.056 142.271 340.964 142.219 340.844 142.151C340.724 142.079 340.612 141.983 340.508 141.863C340.408 141.739 340.358 141.579 340.358 141.383C340.358 141.163 340.462 140.959 340.67 140.771C340.882 140.583 341.202 140.453 341.63 140.381C341.222 140.189 340.912 139.929 340.7 139.601C340.488 139.273 340.382 138.937 340.382 138.593C340.382 138.185 340.51 137.835 340.766 137.543C341.022 137.251 341.37 137.029 341.81 136.877C342.254 136.725 342.756 136.649 343.316 136.649C343.744 136.649 344.094 136.695 344.366 136.787C344.638 136.875 344.89 136.991 345.122 137.135C345.214 137.099 345.336 137.053 345.488 136.997C345.64 136.937 345.804 136.873 345.98 136.805C346.156 136.733 346.328 136.663 346.496 136.595C346.664 136.523 346.814 136.459 346.946 136.403L346.94 137.759L345.866 137.933C345.91 138.041 345.944 138.157 345.968 138.281C345.992 138.405 346.004 138.507 346.004 138.587C346.004 138.947 345.898 139.283 345.686 139.595C345.478 139.907 345.164 140.159 344.744 140.351C344.328 140.543 343.812 140.639 343.196 140.639C343.12 140.639 343.018 140.637 342.89 140.633C342.766 140.629 342.664 140.623 342.584 140.615C342.348 140.627 342.186 140.657 342.098 140.705C342.01 140.753 341.966 140.809 341.966 140.873C341.966 140.969 342.056 141.033 342.236 141.065C342.416 141.093 342.688 141.119 343.052 141.143C343.18 141.151 343.358 141.161 343.586 141.173C343.814 141.185 344.066 141.201 344.342 141.221C345.102 141.273 345.668 141.461 346.04 141.785C346.416 142.105 346.604 142.509 346.604 142.997C346.604 143.577 346.328 144.055 345.776 144.431C345.228 144.811 344.4 145.001 343.292 145.001ZM343.574 144.023C344.062 144.023 344.41 143.963 344.618 143.843C344.826 143.723 344.93 143.551 344.93 143.327C344.93 143.139 344.85 142.987 344.69 142.871C344.53 142.751 344.296 142.681 343.988 142.661L342.566 142.565C342.382 142.557 342.218 142.585 342.074 142.649C341.934 142.713 341.824 142.801 341.744 142.913C341.668 143.025 341.63 143.145 341.63 143.273C341.63 143.533 341.788 143.723 342.104 143.843C342.42 143.963 342.91 144.023 343.574 144.023ZM343.244 139.661C343.576 139.661 343.842 139.571 344.042 139.391C344.246 139.207 344.348 138.959 344.348 138.647C344.348 138.323 344.246 138.063 344.042 137.867C343.842 137.671 343.576 137.573 343.244 137.573C342.916 137.573 342.648 137.671 342.44 137.867C342.236 138.063 342.134 138.323 342.134 138.647C342.134 138.955 342.232 139.201 342.428 139.385C342.628 139.569 342.9 139.661 343.244 139.661ZM349.241 140.249C349.237 140.565 349.287 140.841 349.391 141.077C349.495 141.309 349.645 141.489 349.841 141.617C350.041 141.741 350.281 141.803 350.561 141.803C350.861 141.803 351.123 141.739 351.347 141.611C351.575 141.483 351.733 141.273 351.821 140.981H353.399C353.331 141.421 353.155 141.797 352.871 142.109C352.591 142.421 352.251 142.659 351.851 142.823C351.451 142.987 351.035 143.069 350.603 143.069C349.991 143.069 349.451 142.941 348.983 142.685C348.519 142.425 348.157 142.059 347.897 141.587C347.637 141.115 347.507 140.559 347.507 139.919C347.507 139.299 347.625 138.741 347.861 138.245C348.097 137.745 348.439 137.351 348.887 137.063C349.339 136.771 349.881 136.625 350.513 136.625C351.145 136.625 351.675 136.759 352.103 137.027C352.535 137.291 352.859 137.661 353.075 138.137C353.295 138.609 353.405 139.155 353.405 139.775V140.249H349.241ZM349.235 139.205H351.767C351.767 138.957 351.721 138.729 351.629 138.521C351.537 138.313 351.397 138.149 351.209 138.029C351.025 137.909 350.793 137.849 350.513 137.849C350.241 137.849 350.009 137.915 349.817 138.047C349.629 138.175 349.485 138.343 349.385 138.551C349.285 138.759 349.235 138.977 349.235 139.205ZM354.621 142.949V136.745H356.307V138.215C356.407 137.899 356.547 137.623 356.727 137.387C356.911 137.147 357.133 136.961 357.393 136.829C357.653 136.693 357.947 136.625 358.275 136.625C358.331 136.625 358.383 136.629 358.431 136.637C358.483 136.641 358.521 136.649 358.545 136.661V138.329C358.509 138.313 358.465 138.303 358.413 138.299C358.365 138.295 358.321 138.291 358.281 138.287C357.937 138.259 357.643 138.269 357.399 138.317C357.155 138.365 356.957 138.447 356.805 138.563C356.653 138.679 356.543 138.821 356.475 138.989C356.407 139.157 356.373 139.345 356.373 139.553V142.949H354.621ZM361.938 143.069C361.506 143.069 361.09 142.999 360.69 142.859C360.29 142.715 359.952 142.491 359.676 142.187C359.4 141.879 359.224 141.481 359.148 140.993H360.666C360.718 141.213 360.812 141.387 360.948 141.515C361.088 141.643 361.246 141.735 361.422 141.791C361.598 141.843 361.766 141.869 361.926 141.869C362.262 141.869 362.532 141.817 362.736 141.713C362.944 141.605 363.048 141.441 363.048 141.221C363.048 141.053 362.986 140.919 362.862 140.819C362.742 140.719 362.542 140.643 362.262 140.591L361.17 140.363C360.622 140.247 360.182 140.051 359.85 139.775C359.518 139.495 359.348 139.099 359.34 138.587C359.34 138.215 359.438 137.881 359.634 137.585C359.834 137.289 360.128 137.055 360.516 136.883C360.904 136.711 361.38 136.625 361.944 136.625C362.708 136.625 363.318 136.793 363.774 137.129C364.234 137.465 364.468 137.939 364.476 138.551H363.012C362.968 138.311 362.848 138.127 362.652 137.999C362.46 137.867 362.218 137.801 361.926 137.801C361.622 137.801 361.372 137.855 361.176 137.963C360.98 138.071 360.882 138.235 360.882 138.455C360.882 138.619 360.962 138.749 361.122 138.845C361.282 138.937 361.53 139.017 361.866 139.085L362.874 139.313C363.222 139.397 363.504 139.513 363.72 139.661C363.94 139.805 364.11 139.963 364.23 140.135C364.35 140.307 364.432 140.481 364.476 140.657C364.524 140.829 364.548 140.985 364.548 141.125C364.548 141.537 364.438 141.889 364.218 142.181C363.998 142.469 363.692 142.689 363.3 142.841C362.908 142.993 362.454 143.069 361.938 143.069Z" fill="white"/>
<circle cx="377.414" cy="126.949" r="10.6328" fill="#03DABA"/>
<path d="M379.595 124.767V127.009H380.592L380.596 123.767H377.35L377.354 124.767H379.595ZM375.233 129.13V126.889H374.236L374.232 130.131H377.478L377.474 129.13H375.233Z" fill="white"/>
</g>
<path d="M330.781 184.766C330.781 185.042 331.005 185.266 331.281 185.266C331.557 185.266 331.781 185.042 331.781 184.766L330.781 184.766ZM331.781 184.766L331.781 183.683L330.781 183.683L330.781 184.766L331.781 184.766ZM331.781 181.517L331.781 179.351L330.781 179.351L330.781 181.517L331.781 181.517ZM331.781 177.184L331.781 175.018L330.781 175.018L330.781 177.184L331.781 177.184ZM331.781 172.852L331.781 170.686L330.781 170.686L330.781 172.852L331.781 172.852ZM331.781 168.52L331.781 166.353L330.781 166.353L330.781 168.52L331.781 168.52ZM331.781 164.187L331.781 162.021L330.781 162.021L330.781 164.187L331.781 164.187ZM331.781 159.855L331.781 158.772L330.781 158.772L330.781 159.855L331.781 159.855Z" fill="#918BA9"/>
<circle cx="331.281" cy="186.241" r="2.5" transform="rotate(90 331.281 186.241)" fill="#918BA9"/>
<circle cx="325.705" cy="266.329" r="2.5" fill="#918BA9"/>
<path fill-rule="evenodd" clip-rule="evenodd" d="M301.677 287.379C300.391 287.379 299.347 288.403 299.347 289.665V295.075C297.575 295.428 296.241 296.966 296.241 298.809V301.154C296.241 302.266 296.595 303.35 297.253 304.255L299.572 307.439C300.155 308.24 301.097 308.715 302.1 308.715H308.092C309.207 308.715 310.236 308.129 310.789 307.18L312.611 304.052C313.081 303.246 313.327 302.333 313.327 301.405V298.809C313.327 296.767 311.689 295.099 309.631 295.004C309.205 294.533 308.583 294.237 307.891 294.237C307.476 294.237 307.086 294.344 306.748 294.531C306.334 293.896 305.609 293.475 304.784 293.475C304.512 293.475 304.25 293.521 304.007 293.605V289.665C304.007 288.403 302.964 287.379 301.677 287.379Z" fill="white"/>
<path fill-rule="evenodd" clip-rule="evenodd" d="M301.677 287.379C300.391 287.379 299.347 288.403 299.347 289.665V295.075C297.575 295.428 296.241 296.966 296.241 298.809V301.154C296.241 302.266 296.595 303.35 297.253 304.255L299.572 307.439C300.155 308.24 301.097 308.715 302.1 308.715H308.092C309.207 308.715 310.236 308.129 310.789 307.18L312.611 304.052C313.081 303.246 313.327 302.333 313.327 301.405V298.809C313.327 296.767 311.689 295.099 309.631 295.004C309.205 294.533 308.583 294.237 307.891 294.237C307.476 294.237 307.086 294.344 306.748 294.531C306.334 293.896 305.609 293.475 304.784 293.475C304.512 293.475 304.25 293.521 304.007 293.605V289.665C304.007 288.403 302.964 287.379 301.677 287.379ZM304.007 295.761C304.007 296.182 303.66 296.523 303.231 296.523C302.802 296.523 302.454 296.182 302.454 295.761V289.665C302.454 289.244 302.106 288.903 301.677 288.903C301.248 288.903 300.901 289.244 300.901 289.665V299.571C300.901 299.992 300.553 300.333 300.124 300.333C299.695 300.333 299.347 299.992 299.347 299.571V296.653C298.442 296.967 297.794 297.814 297.794 298.809V301.154C297.794 301.948 298.047 302.723 298.517 303.369L300.836 306.553C301.127 306.954 301.598 307.191 302.1 307.191H308.092C308.649 307.191 309.164 306.898 309.441 306.424L311.262 303.295C311.598 302.72 311.774 302.068 311.774 301.405V298.809C311.774 297.814 311.126 296.967 310.221 296.653V297.285C310.221 297.706 309.873 298.047 309.444 298.047C309.015 298.047 308.667 297.706 308.667 297.285V296.523C308.667 296.102 308.32 295.761 307.891 295.761C307.462 295.761 307.114 296.102 307.114 296.523C307.114 296.944 306.766 297.285 306.337 297.285C305.908 297.285 305.561 296.944 305.561 296.523V295.761C305.561 295.34 305.213 294.999 304.784 294.999C304.355 294.999 304.007 295.34 304.007 295.761Z" fill="#12131A"/>
<path d="M331.281 342.828L334.168 337.828L328.394 337.828L331.281 342.828ZM331.781 338.328L331.781 324.069L330.781 324.069L330.781 338.328L331.781 338.328Z" fill="#9A8EB4"/>
<circle cx="331.281" cy="321.57" r="2.5" transform="rotate(90 331.281 321.57)" fill="#9A8EB4"/>
<circle cx="331.281" cy="345.328" r="2.5" transform="rotate(90 331.281 345.328)" fill="#9A8EB4"/>
<g filter="url(#filter4_d_1_2279)">
<rect x="111.449" y="408.328" width="200" height="56" rx="8" fill="#13151E" shape-rendering="crispEdges"/>
<rect x="110.949" y="407.828" width="201" height="57" rx="8.5" stroke="#404559" shape-rendering="crispEdges"/>
<rect x="123.09" y="419.968" width="32.7187" height="32.7187" rx="5.99193" fill="white"/>
<rect x="123.09" y="419.968" width="32.7187" height="32.7187" rx="5.99193" stroke="#404559" stroke-width="0.386576"/>
<path d="M147.025 428.477C146.838 428.347 146.628 428.255 146.407 428.206C146.181 428.155 145.947 428.146 145.717 428.179C145.476 428.213 145.243 428.289 145.027 428.403L144.019 428.968L143.009 429.533L141.998 430.097L140.988 430.667C140.77 430.797 140.535 430.898 140.291 430.967C140.055 431.037 139.81 431.074 139.564 431.076C139.319 431.079 139.074 431.048 138.836 430.985C138.591 430.919 138.356 430.82 138.136 430.692L137.157 430.15L136.177 429.609L135.198 429.07L134.218 428.528C133.855 428.292 133.42 428.197 132.994 428.26C132.601 428.323 132.236 428.507 131.95 428.789C131.661 429.067 131.465 429.429 131.388 429.825C131.31 430.255 131.387 430.7 131.606 431.076L131.95 431.716L132.706 433.119L133.463 434.523L133.807 435.163C133.935 435.383 134.034 435.619 134.102 435.864C134.167 436.105 134.201 436.353 134.201 436.602C134.201 436.852 134.167 437.101 134.102 437.342C134.042 437.596 133.948 437.841 133.823 438.069L133.286 439.089L132.747 440.106L132.209 441.121L131.671 442.138C131.58 442.305 131.51 442.482 131.463 442.666C131.419 442.841 131.399 443.02 131.404 443.2C131.411 443.376 131.444 443.551 131.503 443.717C131.562 443.892 131.648 444.055 131.757 444.203C131.89 444.389 132.056 444.548 132.246 444.674C132.434 444.801 132.643 444.894 132.863 444.948C133.088 445.004 133.322 445.019 133.553 444.993C133.794 444.964 134.028 444.892 134.244 444.779L135.292 444.195L136.339 443.611L137.387 443.026L138.434 442.442C138.119 442.212 137.828 441.95 137.565 441.66C137.302 441.368 137.06 441.057 136.842 440.729C136.622 440.4 136.421 440.058 136.235 439.709C136.068 439.398 135.913 439.083 135.764 438.77C136.028 439.271 136.595 439.804 137.331 440.338C138.227 440.965 139.161 441.534 140.127 442.043C141.143 442.592 142.186 443.112 143.086 443.571C143.986 444.03 144.75 444.428 145.202 444.732C145.568 444.952 146.002 445.021 146.416 444.926C146.8 444.829 147.145 444.613 147.403 444.307C147.672 443.996 147.847 443.613 147.907 443.204C147.969 442.771 147.881 442.33 147.658 441.956L147.039 440.817L145.683 438.31L144.326 435.803L143.714 434.677C143.583 434.453 143.44 434.235 143.287 434.026C143.135 433.82 142.97 433.624 142.794 433.439C142.619 433.255 142.432 433.083 142.234 432.925C142.033 432.764 141.82 432.618 141.597 432.49C141.943 432.65 142.295 432.816 142.64 432.996C142.988 433.174 143.326 433.37 143.654 433.584C143.981 433.798 144.291 434.037 144.581 434.3C144.873 434.568 145.136 434.867 145.365 435.193L145.922 434.156L146.48 433.119L147.039 432.08L147.596 431.044C147.689 430.888 147.759 430.719 147.803 430.542C147.847 430.367 147.867 430.187 147.862 430.006C147.855 429.823 147.822 429.643 147.763 429.471C147.704 429.294 147.617 429.128 147.506 428.979C147.38 428.781 147.216 428.61 147.025 428.477ZM134.101 442.999C134.116 443.211 134.04 443.419 133.894 443.571C133.747 443.722 133.544 443.803 133.335 443.791C132.909 443.795 132.56 443.446 132.557 443.013C132.553 442.579 132.896 442.225 133.323 442.221C133.531 442.206 133.735 442.283 133.884 442.432C134.033 442.581 134.112 442.787 134.101 442.999ZM132.574 430.196C132.559 429.985 132.635 429.777 132.782 429.625C132.928 429.474 133.132 429.393 133.34 429.404C133.549 429.39 133.753 429.467 133.902 429.616C134.051 429.765 134.13 429.971 134.119 430.183C134.134 430.395 134.058 430.603 133.912 430.755C133.765 430.906 133.562 430.987 133.353 430.976C133.145 430.99 132.94 430.913 132.791 430.764C132.642 430.615 132.563 430.409 132.574 430.196ZM146.704 442.975C146.708 443.293 146.522 443.582 146.234 443.707C145.946 443.831 145.613 443.767 145.389 443.544C145.166 443.321 145.097 442.983 145.215 442.689C145.332 442.394 145.612 442.2 145.925 442.197C146.134 442.182 146.338 442.259 146.487 442.408C146.636 442.557 146.715 442.763 146.704 442.975ZM141.477 436.301C141.25 435.922 140.874 435.773 140.423 435.778C139.808 435.799 139.263 436.19 139.038 436.773C138.813 437.356 138.95 438.019 139.388 438.46C138.899 438.397 138.456 438.137 138.157 437.74C137.858 437.342 137.728 436.839 137.797 436.343C137.942 435.349 138.913 434.577 139.89 434.716C140.716 434.859 141.396 435.461 141.477 436.301ZM146.76 430.13C146.749 430.554 146.41 430.892 145.993 430.896C145.577 430.9 145.232 430.567 145.214 430.144C145.225 429.721 145.564 429.382 145.98 429.378C146.397 429.375 146.742 429.707 146.76 430.13Z" fill="#FF694B"/>
<g clip-path="url(#clip3_1_2279)">
<path d="M171.521 442.488C170.412 442.488 169.548 442.106 168.929 441.344C168.311 440.576 168.001 439.509 168.001 438.144C168.001 437.28 168.127 436.53 168.377 435.896C168.628 435.261 168.999 434.77 169.489 434.424C169.98 434.072 170.58 433.896 171.289 433.896C171.588 433.896 171.865 433.93 172.121 434C172.383 434.064 172.62 434.154 172.833 434.272C173.047 434.389 173.233 434.525 173.393 434.68C173.553 434.834 173.684 435 173.785 435.176V430.44H176.129V442.328H174.433L174.169 440.632C174.095 440.861 173.991 441.085 173.857 441.304C173.724 441.522 173.553 441.722 173.345 441.904C173.137 442.08 172.881 442.221 172.577 442.328C172.279 442.434 171.927 442.488 171.521 442.488ZM172.033 440.808C172.62 440.808 173.057 440.602 173.345 440.192C173.639 439.781 173.785 439.088 173.785 438.112C173.78 437.546 173.713 437.077 173.585 436.704C173.457 436.33 173.265 436.053 173.009 435.872C172.759 435.685 172.439 435.592 172.049 435.592C171.543 435.592 171.121 435.786 170.785 436.176C170.449 436.56 170.281 437.205 170.281 438.112C170.281 439.034 170.439 439.714 170.753 440.152C171.068 440.589 171.495 440.808 172.033 440.808ZM182.792 442.488C182.381 442.488 182.026 442.434 181.728 442.328C181.429 442.221 181.176 442.08 180.968 441.904C180.76 441.722 180.589 441.522 180.456 441.304C180.322 441.085 180.218 440.861 180.144 440.632L179.88 442.328H178.184V430.44H180.528V435.176C180.629 435 180.76 434.834 180.92 434.68C181.08 434.525 181.266 434.389 181.48 434.272C181.693 434.154 181.928 434.064 182.184 434C182.445 433.93 182.722 433.896 183.016 433.896C184.045 433.896 184.85 434.266 185.432 435.008C186.018 435.749 186.312 436.794 186.312 438.144C186.312 439.018 186.178 439.781 185.912 440.432C185.645 441.082 185.25 441.589 184.728 441.952C184.205 442.309 183.56 442.488 182.792 442.488ZM182.28 440.808C182.781 440.808 183.197 440.602 183.528 440.192C183.864 439.776 184.032 439.082 184.032 438.112C184.032 437.253 183.872 436.618 183.552 436.208C183.237 435.797 182.808 435.592 182.264 435.592C181.874 435.592 181.552 435.685 181.296 435.872C181.04 436.053 180.848 436.33 180.72 436.704C180.597 437.077 180.533 437.546 180.528 438.112C180.528 439.088 180.672 439.781 180.96 440.192C181.253 440.602 181.693 440.808 182.28 440.808ZM192.645 435.68H190.805L190.821 440.088C190.821 440.29 190.845 440.442 190.893 440.544C190.947 440.64 191.027 440.704 191.133 440.736C191.245 440.762 191.387 440.776 191.557 440.776H192.669V442.216C192.563 442.264 192.395 442.309 192.165 442.352C191.941 442.394 191.627 442.416 191.221 442.416C190.496 442.416 189.933 442.322 189.533 442.136C189.139 441.949 188.864 441.688 188.709 441.352C188.555 441.016 188.477 440.626 188.477 440.184V435.68H187.133V434.056H188.557L189.141 431.56H190.805V434.048H192.645V435.68ZM199.379 430.6C200.248 430.6 201.022 430.776 201.699 431.128C202.382 431.474 202.931 431.949 203.347 432.552C203.768 433.154 204.016 433.834 204.091 434.592H201.643C201.568 434.192 201.432 433.837 201.235 433.528C201.038 433.213 200.779 432.968 200.459 432.792C200.139 432.61 199.755 432.52 199.307 432.52C198.768 432.52 198.304 432.65 197.915 432.912C197.526 433.173 197.227 433.594 197.019 434.176C196.811 434.757 196.707 435.525 196.707 436.48C196.707 437.92 196.936 438.962 197.395 439.608C197.859 440.248 198.496 440.568 199.307 440.568C199.755 440.568 200.139 440.466 200.459 440.264C200.779 440.056 201.038 439.784 201.235 439.448C201.432 439.106 201.568 438.733 201.643 438.328H204.091C204.022 438.877 203.888 439.402 203.691 439.904C203.494 440.4 203.214 440.842 202.851 441.232C202.488 441.621 202.022 441.928 201.451 442.152C200.88 442.376 200.19 442.488 199.379 442.488C198.302 442.488 197.371 442.237 196.587 441.736C195.803 441.234 195.198 440.53 194.771 439.624C194.35 438.717 194.139 437.658 194.139 436.448C194.139 435.232 194.35 434.189 194.771 433.32C195.192 432.445 195.795 431.773 196.579 431.304C197.363 430.834 198.296 430.6 199.379 430.6ZM208.495 442.472C207.887 442.472 207.405 442.4 207.047 442.256C206.69 442.112 206.426 441.922 206.255 441.688C206.085 441.448 205.975 441.184 205.927 440.896C205.879 440.602 205.855 440.306 205.855 440.008V430.44H208.143V439.72C208.143 440.024 208.207 440.272 208.335 440.464C208.469 440.65 208.717 440.765 209.079 440.808L209.471 440.832V442.272C209.311 442.325 209.149 442.37 208.983 442.408C208.818 442.45 208.655 442.472 208.495 442.472ZM214.517 442.488C213.706 442.488 213 442.314 212.397 441.968C211.8 441.621 211.336 441.13 211.005 440.496C210.68 439.861 210.517 439.109 210.517 438.24C210.517 437.37 210.68 436.61 211.005 435.96C211.336 435.309 211.8 434.802 212.397 434.44C213 434.077 213.709 433.896 214.525 433.896C215.341 433.896 216.048 434.074 216.645 434.432C217.242 434.784 217.704 435.285 218.029 435.936C218.354 436.586 218.517 437.354 218.517 438.24C218.517 439.072 218.357 439.808 218.037 440.448C217.722 441.082 217.266 441.581 216.669 441.944C216.077 442.306 215.36 442.488 214.517 442.488ZM214.525 440.752C214.936 440.752 215.266 440.632 215.517 440.392C215.768 440.152 215.949 439.837 216.061 439.448C216.178 439.053 216.237 438.624 216.237 438.16C216.237 437.722 216.184 437.309 216.077 436.92C215.976 436.53 215.8 436.216 215.549 435.976C215.298 435.736 214.957 435.616 214.525 435.616C214.114 435.616 213.781 435.73 213.525 435.96C213.274 436.184 213.09 436.49 212.973 436.88C212.856 437.264 212.797 437.69 212.797 438.16C212.797 438.592 212.85 439.008 212.957 439.408C213.064 439.802 213.242 440.125 213.493 440.376C213.744 440.626 214.088 440.752 214.525 440.752ZM223.028 442.488C222.644 442.488 222.266 442.429 221.892 442.312C221.524 442.194 221.188 442.021 220.884 441.792C220.58 441.562 220.335 441.28 220.148 440.944C219.967 440.608 219.876 440.218 219.876 439.776V434.056H222.212V439.48C222.212 439.864 222.338 440.178 222.588 440.424C222.839 440.669 223.207 440.792 223.692 440.792C224.151 440.792 224.514 440.674 224.78 440.44C225.052 440.2 225.188 439.866 225.188 439.44V434.056H227.5V442.328H225.74L225.468 440.688C225.372 441.173 225.191 441.546 224.924 441.808C224.663 442.064 224.362 442.24 224.02 442.336C223.684 442.437 223.354 442.488 223.028 442.488ZM232.474 442.488C231.365 442.488 230.501 442.106 229.882 441.344C229.264 440.576 228.954 439.509 228.954 438.144C228.954 437.28 229.08 436.53 229.33 435.896C229.581 435.261 229.952 434.77 230.442 434.424C230.933 434.072 231.533 433.896 232.242 433.896C232.541 433.896 232.818 433.93 233.074 434C233.336 434.064 233.573 434.154 233.786 434.272C234 434.389 234.186 434.525 234.346 434.68C234.506 434.834 234.637 435 234.738 435.176V430.44H237.082V442.328H235.386L235.122 440.632C235.048 440.861 234.944 441.085 234.81 441.304C234.677 441.522 234.506 441.722 234.298 441.904C234.09 442.08 233.834 442.221 233.53 442.328C233.232 442.434 232.88 442.488 232.474 442.488ZM232.986 440.808C233.573 440.808 234.01 440.602 234.298 440.192C234.592 439.781 234.738 439.088 234.738 438.112C234.733 437.546 234.666 437.077 234.538 436.704C234.41 436.33 234.218 436.053 233.962 435.872C233.712 435.685 233.392 435.592 233.002 435.592C232.496 435.592 232.074 435.786 231.738 436.176C231.402 436.56 231.234 437.205 231.234 438.112C231.234 439.034 231.392 439.714 231.706 440.152C232.021 440.589 232.448 440.808 232.986 440.808ZM243.482 439.112C243.482 439.848 243.402 440.466 243.242 440.968C243.082 441.469 242.789 441.848 242.362 442.104C241.935 442.36 241.322 442.488 240.522 442.488C240.154 442.488 239.775 442.456 239.386 442.392C238.997 442.333 238.711 442.28 238.53 442.232L238.578 440.096C238.733 440.128 238.909 440.17 239.106 440.224C239.309 440.277 239.533 440.304 239.778 440.304C240.317 440.304 240.679 440.162 240.866 439.88C241.053 439.592 241.146 439.128 241.146 438.488V430.76H243.482V439.112ZM249.079 442.488C248.269 442.488 247.562 442.314 246.959 441.968C246.362 441.621 245.898 441.13 245.567 440.496C245.242 439.861 245.079 439.109 245.079 438.24C245.079 437.37 245.242 436.61 245.567 435.96C245.898 435.309 246.362 434.802 246.959 434.44C247.562 434.077 248.271 433.896 249.087 433.896C249.903 433.896 250.61 434.074 251.207 434.432C251.805 434.784 252.266 435.285 252.591 435.936C252.917 436.586 253.079 437.354 253.079 438.24C253.079 439.072 252.919 439.808 252.599 440.448C252.285 441.082 251.829 441.581 251.231 441.944C250.639 442.306 249.922 442.488 249.079 442.488ZM249.087 440.752C249.498 440.752 249.829 440.632 250.079 440.392C250.33 440.152 250.511 439.837 250.623 439.448C250.741 439.053 250.799 438.624 250.799 438.16C250.799 437.722 250.746 437.309 250.639 436.92C250.538 436.53 250.362 436.216 250.111 435.976C249.861 435.736 249.519 435.616 249.087 435.616C248.677 435.616 248.343 435.73 248.087 435.96C247.837 436.184 247.653 436.49 247.535 436.88C247.418 437.264 247.359 437.69 247.359 438.16C247.359 438.592 247.413 439.008 247.519 439.408C247.626 439.802 247.805 440.125 248.055 440.376C248.306 440.626 248.65 440.752 249.087 440.752ZM259.245 442.488C258.834 442.488 258.479 442.434 258.181 442.328C257.882 442.221 257.629 442.08 257.421 441.904C257.213 441.722 257.042 441.522 256.909 441.304C256.775 441.085 256.671 440.861 256.597 440.632L256.333 442.328H254.637V430.44H256.981V435.176C257.082 435 257.213 434.834 257.373 434.68C257.533 434.525 257.719 434.389 257.933 434.272C258.146 434.154 258.381 434.064 258.637 434C258.898 433.93 259.175 433.896 259.469 433.896C260.498 433.896 261.303 434.266 261.885 435.008C262.471 435.749 262.765 436.794 262.765 438.144C262.765 439.018 262.631 439.781 262.365 440.432C262.098 441.082 261.703 441.589 261.181 441.952C260.658 442.309 260.013 442.488 259.245 442.488ZM258.733 440.808C259.234 440.808 259.65 440.602 259.981 440.192C260.317 439.776 260.485 439.082 260.485 438.112C260.485 437.253 260.325 436.618 260.005 436.208C259.69 435.797 259.261 435.592 258.717 435.592C258.327 435.592 258.005 435.685 257.749 435.872C257.493 436.053 257.301 436.33 257.173 436.704C257.05 437.077 256.986 437.546 256.981 438.112C256.981 439.088 257.125 439.781 257.413 440.192C257.706 440.602 258.146 440.808 258.733 440.808Z" fill="white"/>
</g>
</g>
<path d="M209.229 399.328C208.953 399.328 208.758 399.666 208.896 399.905L211.116 403.75C211.254 403.989 211.644 403.989 211.783 403.75L214.003 399.905C214.141 399.666 213.945 399.328 213.669 399.328H209.229ZM329.781 344.828H235.449V345.828H329.781V344.828ZM210.949 369.328V399.828H211.949V369.328H210.949ZM235.449 344.828C221.918 344.828 210.949 355.797 210.949 369.328H211.949C211.949 356.349 222.471 345.828 235.449 345.828V344.828Z" fill="#918BA9"/>
<rect x="338.084" y="391.328" width="234" height="90" rx="7.5" fill="#FD1717" fill-opacity="0.05"/>
<rect x="338.084" y="391.328" width="234" height="90" rx="7.5" stroke="#E36065" stroke-dasharray="2 2"/>
<rect x="558.584" y="383.062" width="21.2656" height="21.2656" rx="10.6328" fill="#E36065"/>
<g clip-path="url(#clip4_1_2279)">
<path d="M565.264 394.402L565.268 395.403L567.509 395.403L567.509 397.644L568.506 397.644L568.51 394.402L565.264 394.402ZM573.169 392.988L573.166 391.987L570.924 391.987L570.924 389.746L569.924 389.742L569.924 392.988L573.169 392.988Z" fill="white"/>
</g>
<path d="M452.864 381.828C452.588 381.828 452.392 382.166 452.531 382.405L454.751 386.25C454.889 386.489 455.279 386.489 455.417 386.25L457.637 382.405C457.775 382.166 457.58 381.828 457.304 381.828H452.864ZM337.781 345.828H339.697V344.828H337.781V345.828ZM343.528 345.828H347.36V344.828H343.528V345.828ZM351.191 345.828H355.023V344.828H351.191V345.828ZM358.854 345.828H362.685V344.828H358.854V345.828ZM366.517 345.828H368.433V344.828H366.517V345.828ZM424.433 345.828H426.095V344.828H424.433V345.828ZM429.421 345.828H431.084V344.828H429.421V345.828ZM431.084 345.828C431.705 345.828 432.321 345.852 432.93 345.899L433.008 344.902C432.373 344.853 431.731 344.828 431.084 344.828V345.828ZM436.573 346.472C437.781 346.761 438.952 347.143 440.079 347.611L440.462 346.687C439.287 346.199 438.065 345.801 436.805 345.499L436.573 346.472ZM443.364 349.287C444.415 349.933 445.412 350.659 446.346 351.458L446.996 350.697C446.023 349.865 444.983 349.108 443.887 348.435L443.364 349.287ZM448.954 354.066C449.752 354.999 450.479 355.996 451.124 357.048L451.977 356.525C451.303 355.428 450.546 354.389 449.714 353.416L448.954 354.066ZM452.801 360.332C453.268 361.46 453.651 362.631 453.94 363.839L454.912 363.606C454.611 362.347 454.212 361.125 453.725 359.949L452.801 360.332ZM454.513 367.481C454.56 368.091 454.584 368.706 454.584 369.328H455.584C455.584 368.68 455.559 368.039 455.51 367.404L454.513 367.481ZM454.584 369.328V371.515H455.584V369.328H454.584ZM454.584 375.89V380.265H455.584V375.89H454.584Z" fill="#E36065"/>
<path d="M378.235 340.873V350.328H376.236V340.873H378.235ZM383.513 343.237V344.714H379.137V343.237H383.513ZM380.138 350.328V342.724C380.138 342.21 380.239 341.784 380.439 341.446C380.642 341.107 380.919 340.853 381.27 340.684C381.62 340.515 382.019 340.43 382.465 340.43C382.767 340.43 383.042 340.453 383.292 340.499C383.544 340.545 383.732 340.587 383.855 340.624L383.504 342.101C383.427 342.076 383.332 342.053 383.218 342.032C383.107 342.01 382.993 342 382.876 342C382.587 342 382.385 342.067 382.271 342.203C382.157 342.335 382.1 342.521 382.1 342.761V350.328H380.138ZM390.669 350.466C389.939 350.466 389.312 350.318 388.785 350.023C388.262 349.724 387.859 349.303 387.576 348.758C387.293 348.21 387.151 347.562 387.151 346.814C387.151 346.085 387.293 345.445 387.576 344.894C387.859 344.343 388.258 343.914 388.772 343.606C389.289 343.298 389.895 343.144 390.59 343.144C391.058 343.144 391.494 343.22 391.897 343.371C392.303 343.518 392.657 343.741 392.959 344.04C393.263 344.339 393.5 344.714 393.67 345.166C393.839 345.616 393.924 346.142 393.924 346.745V347.285H387.936V346.067H392.072C392.072 345.783 392.011 345.533 391.888 345.314C391.765 345.096 391.594 344.925 391.375 344.802C391.16 344.676 390.909 344.612 390.623 344.612C390.324 344.612 390.06 344.682 389.829 344.82C389.601 344.956 389.422 345.139 389.293 345.37C389.164 345.597 389.098 345.851 389.095 346.131V347.29C389.095 347.641 389.159 347.944 389.289 348.199C389.421 348.455 389.607 348.652 389.847 348.79C390.087 348.929 390.372 348.998 390.701 348.998C390.92 348.998 391.12 348.967 391.301 348.906C391.483 348.844 391.638 348.752 391.768 348.629C391.897 348.506 391.995 348.355 392.063 348.176L393.882 348.296C393.79 348.733 393.6 349.115 393.314 349.441C393.031 349.764 392.665 350.017 392.215 350.198C391.769 350.377 391.254 350.466 390.669 350.466ZM395.064 350.328V343.237H396.97V344.474H397.044C397.174 344.034 397.391 343.701 397.695 343.477C398 343.249 398.351 343.135 398.748 343.135C398.846 343.135 398.952 343.141 399.066 343.154C399.18 343.166 399.28 343.183 399.366 343.204V344.949C399.274 344.922 399.146 344.897 398.983 344.876C398.82 344.854 398.671 344.843 398.535 344.843C398.246 344.843 397.988 344.906 397.76 345.033C397.535 345.156 397.357 345.328 397.224 345.55C397.095 345.771 397.031 346.027 397.031 346.316V350.328H395.064ZM400.24 350.328V343.237H402.147V344.474H402.221C402.35 344.034 402.567 343.701 402.872 343.477C403.176 343.249 403.527 343.135 403.924 343.135C404.023 343.135 404.129 343.141 404.243 343.154C404.357 343.166 404.457 343.183 404.543 343.204V344.949C404.45 344.922 404.323 344.897 404.16 344.876C403.996 344.854 403.847 344.843 403.712 344.843C403.423 344.843 403.164 344.906 402.936 345.033C402.712 345.156 402.533 345.328 402.401 345.55C402.271 345.771 402.207 346.027 402.207 346.316V350.328H400.24ZM408.29 350.466C407.573 350.466 406.953 350.314 406.43 350.009C405.91 349.701 405.508 349.274 405.225 348.726C404.942 348.175 404.8 347.536 404.8 346.81C404.8 346.077 404.942 345.437 405.225 344.889C405.508 344.339 405.91 343.911 406.43 343.606C406.953 343.298 407.573 343.144 408.29 343.144C409.007 343.144 409.626 343.298 410.146 343.606C410.669 343.911 411.073 344.339 411.356 344.889C411.639 345.437 411.78 346.077 411.78 346.81C411.78 347.536 411.639 348.175 411.356 348.726C411.073 349.274 410.669 349.701 410.146 350.009C409.626 350.314 409.007 350.466 408.29 350.466ZM408.3 348.943C408.626 348.943 408.898 348.85 409.117 348.666C409.335 348.478 409.5 348.223 409.611 347.899C409.725 347.576 409.781 347.208 409.781 346.796C409.781 346.384 409.725 346.016 409.611 345.693C409.5 345.37 409.335 345.114 409.117 344.926C408.898 344.739 408.626 344.645 408.3 344.645C407.97 344.645 407.693 344.739 407.469 344.926C407.247 345.114 407.079 345.37 406.965 345.693C406.855 346.016 406.799 346.384 406.799 346.796C406.799 347.208 406.855 347.576 406.965 347.899C407.079 348.223 407.247 348.478 407.469 348.666C407.693 348.85 407.97 348.943 408.3 348.943ZM412.916 350.328V343.237H414.823V344.474H414.897C415.026 344.034 415.243 343.701 415.548 343.477C415.852 343.249 416.203 343.135 416.6 343.135C416.699 343.135 416.805 343.141 416.919 343.154C417.032 343.166 417.133 343.183 417.219 343.204V344.949C417.126 344.922 416.999 344.897 416.836 344.876C416.672 344.854 416.523 344.843 416.388 344.843C416.098 344.843 415.84 344.906 415.612 345.033C415.387 345.156 415.209 345.328 415.077 345.55C414.947 345.771 414.883 346.027 414.883 346.316V350.328H412.916Z" fill="#E36065"/>
<g filter="url(#filter5_d_1_2279)">
<rect x="355.115" y="408.375" width="200" height="56" rx="8" fill="#13151E" shape-rendering="crispEdges"/>
<rect x="354.615" y="407.875" width="201" height="57" rx="8.5" stroke="#E36065" shape-rendering="crispEdges"/>
<rect x="366.756" y="420.015" width="32.7187" height="32.7187" rx="5.99193" fill="white"/>
<rect x="366.756" y="420.015" width="32.7187" height="32.7187" rx="5.99193" stroke="#404559" stroke-width="0.386576"/>
<path d="M378.529 438.803C378.529 439.759 377.753 440.532 376.794 440.532C375.834 440.532 375.058 439.759 375.058 438.803C375.058 437.847 375.834 437.074 376.794 437.074H378.529V438.803ZM379.397 438.803C379.397 437.847 380.172 437.074 381.132 437.074C382.092 437.074 382.868 437.847 382.868 438.803V443.126C382.868 444.082 382.092 444.855 381.132 444.855C380.172 444.855 379.397 444.082 379.397 443.126V438.803Z" fill="#E01E5A"/>
<path d="M381.132 431.861C380.172 431.861 379.397 431.088 379.397 430.131C379.397 429.175 380.172 428.402 381.132 428.402C382.092 428.402 382.868 429.175 382.868 430.131V431.861H381.132ZM381.132 432.738C382.092 432.738 382.868 433.511 382.868 434.467C382.868 435.423 382.092 436.196 381.132 436.196H376.78C375.821 436.196 375.045 435.423 375.045 434.467C375.045 433.511 375.821 432.738 376.78 432.738H381.132Z" fill="#36C5F0"/>
<path d="M388.087 434.467C388.087 433.511 388.863 432.738 389.822 432.738C390.782 432.738 391.558 433.511 391.558 434.467C391.558 435.423 390.782 436.196 389.822 436.196H388.087V434.467ZM387.219 434.467C387.219 435.423 386.444 436.196 385.484 436.196C384.524 436.196 383.748 435.423 383.748 434.467V430.131C383.748 429.175 384.524 428.402 385.484 428.402C386.444 428.402 387.219 429.175 387.219 430.131V434.467Z" fill="#2EB67D"/>
<path d="M385.484 441.397C386.444 441.397 387.219 442.17 387.219 443.126C387.219 444.082 386.444 444.855 385.484 444.855C384.524 444.855 383.748 444.082 383.748 443.126V441.397H385.484ZM385.484 440.532C384.524 440.532 383.748 439.759 383.748 438.803C383.748 437.847 384.524 437.074 385.484 437.074H389.836C390.795 437.074 391.571 437.847 391.571 438.803C391.571 439.759 390.795 440.532 389.836 440.532H385.484Z" fill="#ECB22E"/>
<g clip-path="url(#clip5_1_2279)">
<path d="M416.755 442.535C416.185 442.535 415.625 442.463 415.075 442.319C414.526 442.175 414.025 441.959 413.571 441.671C413.118 441.383 412.742 441.023 412.443 440.591C412.15 440.159 411.974 439.652 411.915 439.071H414.307C414.387 439.423 414.539 439.719 414.763 439.959C414.987 440.199 415.27 440.383 415.611 440.511C415.953 440.639 416.331 440.703 416.747 440.703C417.174 440.703 417.563 440.649 417.915 440.543C418.267 440.436 418.55 440.276 418.763 440.063C418.977 439.844 419.083 439.572 419.083 439.247C419.083 438.953 418.995 438.713 418.819 438.527C418.649 438.34 418.417 438.188 418.123 438.071C417.83 437.953 417.497 437.857 417.123 437.783L415.123 437.375C414.249 437.209 413.555 436.863 413.043 436.335C412.531 435.801 412.267 435.092 412.251 434.207C412.246 433.481 412.438 432.855 412.827 432.327C413.222 431.793 413.755 431.383 414.427 431.095C415.105 430.807 415.862 430.663 416.699 430.663C417.697 430.663 418.534 430.82 419.211 431.135C419.894 431.444 420.411 431.865 420.763 432.399C421.121 432.927 421.305 433.516 421.315 434.167H418.971C418.929 433.761 418.806 433.439 418.603 433.199C418.401 432.959 418.139 432.785 417.819 432.679C417.505 432.572 417.145 432.519 416.739 432.519C416.43 432.519 416.147 432.553 415.891 432.623C415.641 432.692 415.427 432.791 415.251 432.919C415.075 433.041 414.939 433.188 414.843 433.359C414.747 433.529 414.699 433.721 414.699 433.935C414.699 434.271 414.811 434.543 415.035 434.751C415.259 434.959 415.678 435.129 416.291 435.263L418.275 435.671C418.985 435.809 419.547 436.015 419.963 436.287C420.385 436.559 420.699 436.865 420.907 437.207C421.121 437.548 421.259 437.897 421.323 438.255C421.393 438.607 421.427 438.932 421.427 439.231C421.427 439.855 421.23 440.417 420.835 440.919C420.446 441.415 419.902 441.809 419.203 442.103C418.505 442.391 417.689 442.535 416.755 442.535ZM425.849 442.519C425.241 442.519 424.758 442.447 424.401 442.303C424.044 442.159 423.78 441.969 423.609 441.735C423.438 441.495 423.329 441.231 423.281 440.943C423.233 440.649 423.209 440.353 423.209 440.055V430.487H425.497V439.767C425.497 440.071 425.561 440.319 425.689 440.511C425.822 440.697 426.07 440.812 426.433 440.855L426.825 440.879V442.319C426.665 442.372 426.502 442.417 426.337 442.455C426.172 442.497 426.009 442.519 425.849 442.519ZM430.734 442.535C430.206 442.535 429.731 442.436 429.31 442.239C428.889 442.041 428.555 441.756 428.31 441.383C428.065 441.004 427.942 440.545 427.942 440.007C427.942 439.1 428.281 438.412 428.958 437.943C429.635 437.468 430.705 437.223 432.166 437.207L433.198 437.191V436.695C433.198 436.316 433.086 436.025 432.862 435.823C432.643 435.615 432.302 435.513 431.838 435.519C431.497 435.524 431.171 435.604 430.862 435.759C430.558 435.913 430.35 436.183 430.238 436.567H428.294C428.326 435.969 428.499 435.479 428.814 435.095C429.129 434.705 429.555 434.417 430.094 434.231C430.638 434.039 431.254 433.943 431.942 433.943C432.79 433.943 433.47 434.049 433.982 434.263C434.494 434.471 434.865 434.772 435.094 435.167C435.323 435.556 435.438 436.02 435.438 436.559V442.375H433.486L433.294 440.951C433.011 441.548 432.657 441.961 432.23 442.191C431.809 442.42 431.31 442.535 430.734 442.535ZM431.518 440.999C431.731 440.999 431.937 440.961 432.134 440.887C432.337 440.807 432.515 440.703 432.67 440.575C432.83 440.441 432.958 440.292 433.054 440.127C433.15 439.961 433.198 439.791 433.198 439.615V438.391L432.358 438.407C431.969 438.412 431.606 438.46 431.27 438.551C430.934 438.636 430.662 438.777 430.454 438.975C430.251 439.172 430.15 439.439 430.15 439.775C430.15 440.159 430.283 440.46 430.55 440.679C430.817 440.892 431.139 440.999 431.518 440.999ZM441.05 433.943C441.743 433.943 442.341 434.084 442.842 434.367C443.349 434.649 443.746 435.031 444.034 435.511C444.327 435.991 444.495 436.527 444.538 437.119H442.594C442.557 436.9 442.479 436.684 442.362 436.471C442.245 436.252 442.079 436.073 441.866 435.935C441.653 435.791 441.386 435.719 441.066 435.719C440.522 435.719 440.079 435.929 439.738 436.351C439.402 436.767 439.234 437.401 439.234 438.255C439.234 439.06 439.399 439.7 439.73 440.175C440.061 440.644 440.522 440.879 441.114 440.879C441.429 440.879 441.69 440.801 441.898 440.647C442.111 440.492 442.277 440.308 442.394 440.095C442.511 439.876 442.586 439.673 442.618 439.487H444.514C444.477 440.057 444.311 440.575 444.018 441.039C443.725 441.497 443.325 441.863 442.818 442.135C442.317 442.401 441.727 442.535 441.05 442.535C440.282 442.535 439.597 442.364 438.994 442.023C438.391 441.681 437.917 441.193 437.57 440.559C437.229 439.919 437.058 439.156 437.058 438.271C437.058 437.417 437.223 436.665 437.554 436.015C437.885 435.364 438.349 434.857 438.946 434.495C439.549 434.127 440.25 433.943 441.05 433.943ZM454.138 442.375H451.81L449.578 438.807L448.482 439.975V442.375H446.146V430.487H448.482V437.535L451.522 434.103H454.034L451.026 437.399L454.138 442.375Z" fill="white"/>
</g>
</g>
<defs>
<filter id="filter0_f_1_2279" x="21.4438" y="0.702637" width="570.248" height="666.493" filterUnits="userSpaceOnUse" color-interpolation-filters="sRGB">
<feFlood flood-opacity="0" result="BackgroundImageFix"/>
<feBlend mode="normal" in="SourceGraphic" in2="BackgroundImageFix" result="shape"/>
<feGaussianBlur stdDeviation="100" result="effect1_foregroundBlur_1_2279"/>
</filter>
<filter id="filter1_d_1_2279" x="108.443" y="237.329" width="226" height="82" filterUnits="userSpaceOnUse" color-interpolation-filters="sRGB">
<feFlood flood-opacity="0" result="BackgroundImageFix"/>
<feColorMatrix in="SourceAlpha" type="matrix" values="0 0 0 0 0 0 0 0 0 0 0 0 0 0 0 0 0 0 127 0" result="hardAlpha"/>
<feOffset dy="12"/>
<feGaussianBlur stdDeviation="6"/>
<feComposite in2="hardAlpha" operator="out"/>
<feColorMatrix type="matrix" values="0 0 0 0 0.509804 0 0 0 0 0.403922 0 0 0 0 0.619608 0 0 0 0.1 0"/>
<feBlend mode="normal" in2="BackgroundImageFix" result="effect1_dropShadow_1_2279"/>
<feBlend mode="normal" in="SourceGraphic" in2="effect1_dropShadow_1_2279" result="shape"/>
</filter>
<filter id="filter2_d_1_2279" x="334.963" y="236.855" width="226" height="82" filterUnits="userSpaceOnUse" color-interpolation-filters="sRGB">
<feFlood flood-opacity="0" result="BackgroundImageFix"/>
<feColorMatrix in="SourceAlpha" type="matrix" values="0 0 0 0 0 0 0 0 0 0 0 0 0 0 0 0 0 0 127 0" result="hardAlpha"/>
<feOffset dy="12"/>
<feGaussianBlur stdDeviation="6"/>
<feComposite in2="hardAlpha" operator="out"/>
<feColorMatrix type="matrix" values="0 0 0 0 0.509804 0 0 0 0 0.403922 0 0 0 0 0.619608 0 0 0 0.1 0"/>
<feBlend mode="normal" in2="BackgroundImageFix" result="effect1_dropShadow_1_2279"/>
<feBlend mode="normal" in="SourceGraphic" in2="effect1_dropShadow_1_2279" result="shape"/>
</filter>
<filter id="filter3_d_1_2279" x="268.781" y="116.316" width="131.266" height="61.6328" filterUnits="userSpaceOnUse" color-interpolation-filters="sRGB">
<feFlood flood-opacity="0" result="BackgroundImageFix"/>
<feColorMatrix in="SourceAlpha" type="matrix" values="0 0 0 0 0 0 0 0 0 0 0 0 0 0 0 0 0 0 127 0" result="hardAlpha"/>
<feOffset dy="12"/>
<feGaussianBlur stdDeviation="6"/>
<feComposite in2="hardAlpha" operator="out"/>
<feColorMatrix type="matrix" values="0 0 0 0 0.509804 0 0 0 0 0.403922 0 0 0 0 0.619608 0 0 0 0.1 0"/>
<feBlend mode="normal" in2="BackgroundImageFix" result="effect1_dropShadow_1_2279"/>
<feBlend mode="normal" in="SourceGraphic" in2="effect1_dropShadow_1_2279" result="shape"/>
</filter>
<filter id="filter4_d_1_2279" x="98.4492" y="407.328" width="226" height="82" filterUnits="userSpaceOnUse" color-interpolation-filters="sRGB">
<feFlood flood-opacity="0" result="BackgroundImageFix"/>
<feColorMatrix in="SourceAlpha" type="matrix" values="0 0 0 0 0 0 0 0 0 0 0 0 0 0 0 0 0 0 127 0" result="hardAlpha"/>
<feOffset dy="12"/>
<feGaussianBlur stdDeviation="6"/>
<feComposite in2="hardAlpha" operator="out"/>
<feColorMatrix type="matrix" values="0 0 0 0 0.509804 0 0 0 0 0.403922 0 0 0 0 0.619608 0 0 0 0.1 0"/>
<feBlend mode="normal" in2="BackgroundImageFix" result="effect1_dropShadow_1_2279"/>
<feBlend mode="normal" in="SourceGraphic" in2="effect1_dropShadow_1_2279" result="shape"/>
</filter>
<filter id="filter5_d_1_2279" x="342.115" y="407.375" width="226" height="82" filterUnits="userSpaceOnUse" color-interpolation-filters="sRGB">
<feFlood flood-opacity="0" result="BackgroundImageFix"/>
<feColorMatrix in="SourceAlpha" type="matrix" values="0 0 0 0 0 0 0 0 0 0 0 0 0 0 0 0 0 0 127 0" result="hardAlpha"/>
<feOffset dy="12"/>
<feGaussianBlur stdDeviation="6"/>
<feComposite in2="hardAlpha" operator="out"/>
<feColorMatrix type="matrix" values="0 0 0 0 0.509804 0 0 0 0 0.403922 0 0 0 0 0.619608 0 0 0 0.1 0"/>
<feBlend mode="normal" in2="BackgroundImageFix" result="effect1_dropShadow_1_2279"/>
<feBlend mode="normal" in="SourceGraphic" in2="effect1_dropShadow_1_2279" result="shape"/>
</filter>
<linearGradient id="paint0_linear_1_2279" x1="85.1238" y1="0" x2="85.1238" y2="266.493" gradientUnits="userSpaceOnUse">
<stop stop-color="#6218FF" stop-opacity="0"/>
<stop offset="1" stop-color="#6117FF"/>
</linearGradient>
<clipPath id="clip0_1_2279">
<rect width="12" height="12" fill="white" transform="translate(573.135 202.079) rotate(45)"/>
</clipPath>
<clipPath id="clip1_1_2279">
<path d="M177.443 254.329H238.443V278.329H177.443V254.329Z" fill="white"/>
</clipPath>
<clipPath id="clip2_1_2279">
<path d="M403.963 253.855H524.963V277.855H403.963V253.855Z" fill="white"/>
</clipPath>
<clipPath id="clip3_1_2279">
<path d="M167.449 424.328H263.449V448.328H167.449V424.328Z" fill="white"/>
</clipPath>
<clipPath id="clip4_1_2279">
<rect width="12" height="12" fill="white" transform="translate(569.217 385.21) rotate(45)"/>
</clipPath>
<clipPath id="clip5_1_2279">
<path d="M411.115 424.375H455.115V448.375H411.115V424.375Z" fill="white"/>
</clipPath>
</defs>
</svg>
