<svg width="48" height="54" viewBox="0 0 48 54" fill="none" xmlns="http://www.w3.org/2000/svg">
<path d="M35.7321 19.7072C35.7321 19.9499 35.6606 20.1872 35.5266 20.389C35.3926 20.5908 35.2021 20.7481 34.9792 20.841C34.7564 20.9339 34.5112 20.9582 34.2746 20.9108C34.038 20.8635 33.8207 20.7466 33.6502 20.575C33.4796 20.4033 33.3635 20.1847 33.3164 19.9466C33.2693 19.7086 33.2935 19.4618 33.3858 19.2376C33.4781 19.0133 33.6344 18.8217 33.835 18.6868C34.0355 18.552 34.2713 18.48 34.5125 18.48C34.836 18.48 35.1462 18.6093 35.3749 18.8394C35.6036 19.0696 35.7321 19.3817 35.7321 19.7072Z" fill="#01BA18"/>
<path d="M29.9179 14.7925C29.6162 14.7925 29.3213 14.8825 29.0705 15.0512C28.8196 15.2198 28.6241 15.4595 28.5087 15.74C28.3932 16.0205 28.363 16.3291 28.4219 16.6268C28.4807 16.9246 28.626 17.1981 28.8393 17.4127C29.0527 17.6274 29.3245 17.7736 29.6203 17.8328C29.9162 17.892 30.2229 17.8616 30.5016 17.7455C30.7804 17.6293 31.0186 17.4326 31.1862 17.1801C31.3538 16.9277 31.4433 16.631 31.4433 16.3274C31.4433 15.9203 31.2826 15.5299 30.9965 15.242C30.7104 14.9542 30.3225 14.7925 29.9179 14.7925Z" fill="#0BBF2F"/>
<path d="M24.0584 13.6821C23.7019 13.6821 23.3534 13.7885 23.057 13.9878C22.7605 14.1871 22.5295 14.4704 22.3931 14.8019C22.2566 15.1333 22.2209 15.498 22.2905 15.8499C22.36 16.2017 22.5317 16.5249 22.7838 16.7786C23.0359 17.0323 23.3571 17.205 23.7068 17.275C24.0564 17.345 24.4189 17.3091 24.7482 17.1718C25.0776 17.0345 25.3591 16.802 25.5572 16.5037C25.7553 16.2055 25.861 15.8548 25.861 15.496C25.861 15.0149 25.6711 14.5536 25.333 14.2134C24.995 13.8732 24.5365 13.6821 24.0584 13.6821Z" fill="#0FC139"/>
<path d="M18.6449 15.3516C18.2199 15.3516 17.8045 15.4784 17.4511 15.716C17.0977 15.9536 16.8223 16.2913 16.6597 16.6864C16.497 17.0815 16.4545 17.5162 16.5374 17.9357C16.6203 18.3551 16.825 18.7404 17.1255 19.0428C17.426 19.3452 17.8089 19.5512 18.2257 19.6346C18.6425 19.718 19.0746 19.6752 19.4672 19.5115C19.8599 19.3479 20.1955 19.0707 20.4316 18.7152C20.6677 18.3596 20.7937 17.9415 20.7937 17.5138C20.7937 16.9404 20.5673 16.3904 20.1643 15.9849C19.7614 15.5794 19.2148 15.3516 18.6449 15.3516Z" fill="#18C552"/>
<path d="M14.8492 19.3779C14.383 19.3779 13.9273 19.517 13.5397 19.7776C13.1521 20.0383 12.85 20.4087 12.6716 20.8421C12.4932 21.2755 12.4465 21.7524 12.5375 22.2125C12.6284 22.6725 12.8529 23.0952 13.1825 23.4269C13.5122 23.7586 13.9322 23.9845 14.3894 24.076C14.8466 24.1675 15.3205 24.1205 15.7512 23.941C16.1819 23.7615 16.55 23.4575 16.809 23.0674C17.068 22.6774 17.2062 22.2188 17.2062 21.7497C17.2062 21.1207 16.9579 20.5174 16.5159 20.0726C16.0738 19.6278 15.4743 19.3779 14.8492 19.3779Z" fill="#44D33B"/>
<path d="M13.4185 24.939C12.9244 24.939 12.4413 25.0864 12.0304 25.3627C11.6195 25.639 11.2992 26.0316 11.1101 26.4911C10.921 26.9505 10.8715 27.456 10.9679 27.9438C11.0643 28.4315 11.3023 28.8795 11.6518 29.2311C12.0012 29.5828 12.4464 29.8222 12.9311 29.9192C13.4158 30.0162 13.9182 29.9665 14.3747 29.7762C14.8313 29.5858 15.2215 29.2636 15.4961 28.8501C15.7706 28.4366 15.9171 27.9505 15.9171 27.4533C15.9171 26.7864 15.6539 26.1469 15.1853 25.6754C14.7167 25.2039 14.0812 24.939 13.4185 24.939Z" fill="#66DC22"/>
<path d="M14.8492 30.7808C14.383 30.7808 13.9273 30.9199 13.5397 31.1805C13.1521 31.4411 12.85 31.8115 12.6716 32.2449C12.4932 32.6783 12.4465 33.1552 12.5375 33.6153C12.6284 34.0754 12.8529 34.498 13.1825 34.8297C13.5122 35.1614 13.9322 35.3873 14.3894 35.4788C14.8466 35.5703 15.3205 35.5234 15.7512 35.3438C16.1819 35.1643 16.55 34.8603 16.809 34.4703C17.068 34.0802 17.2062 33.6217 17.2062 33.1526C17.2062 32.5235 16.9579 31.9203 16.5159 31.4755C16.0738 31.0307 15.4743 30.7808 14.8492 30.7808Z" fill="#89E60B"/>
<path d="M18.6449 35.2266C18.2199 35.2266 17.8045 35.3534 17.4511 35.591C17.0977 35.8286 16.8223 36.1663 16.6597 36.5614C16.497 36.9565 16.4545 37.3912 16.5374 37.8107C16.6203 38.2301 16.825 38.6154 17.1255 38.9178C17.426 39.2202 17.8089 39.4262 18.2257 39.5096C18.6425 39.593 19.0746 39.5502 19.4672 39.3865C19.8599 39.2229 20.1955 38.9457 20.4316 38.5902C20.6677 38.2346 20.7937 37.8165 20.7937 37.3889C20.7937 36.8154 20.5673 36.2654 20.1643 35.8599C19.7614 35.4544 19.2148 35.2266 18.6449 35.2266Z" fill="#66E51F"/>
<path d="M24.0584 37.5957C23.7019 37.5957 23.3534 37.7021 23.057 37.9014C22.7605 38.1007 22.5295 38.384 22.3931 38.7154C22.2566 39.0469 22.2209 39.4116 22.2905 39.7635C22.36 40.1153 22.5317 40.4385 22.7838 40.6922C23.0359 40.9459 23.3571 41.1186 23.7068 41.1886C24.0564 41.2586 24.4189 41.2227 24.7482 41.0854C25.0776 40.9481 25.3591 40.7156 25.5572 40.4173C25.7553 40.119 25.861 39.7683 25.861 39.4096C25.861 38.9285 25.6711 38.4672 25.333 38.127C24.995 37.7868 24.5365 37.5957 24.0584 37.5957Z" fill="#11DB62"/>
<path d="M29.9179 37.042C29.6162 37.042 29.3213 37.132 29.0705 37.3007C28.8196 37.4693 28.6241 37.709 28.5087 37.9895C28.3932 38.27 28.363 38.5786 28.4219 38.8764C28.4807 39.1741 28.626 39.4476 28.8393 39.6622C29.0527 39.8769 29.3245 40.0231 29.6203 40.0823C29.9162 40.1416 30.2229 40.1112 30.5016 39.995C30.7804 39.8788 31.0186 39.6821 31.1862 39.4297C31.3538 39.1772 31.4433 38.8805 31.4433 38.5769C31.4433 38.1698 31.2826 37.7794 30.9965 37.4916C30.7104 37.2037 30.3225 37.042 29.9179 37.042Z" fill="#00DEA7"/>
<path d="M34.5106 33.9678C34.2694 33.9678 34.0336 34.0397 33.833 34.1746C33.6325 34.3094 33.4762 34.5011 33.3838 34.7253C33.2915 34.9496 33.2674 35.1963 33.3145 35.4344C33.3615 35.6724 33.4777 35.8911 33.6482 36.0627C33.8188 36.2344 34.0361 36.3513 34.2727 36.3986C34.5092 36.446 34.7544 36.4217 34.9773 36.3288C35.2001 36.2359 35.3906 36.0786 35.5246 35.8768C35.6586 35.675 35.7301 35.4377 35.7301 35.195C35.7301 34.8695 35.6017 34.5574 35.3729 34.3272C35.1442 34.0971 34.834 33.9678 34.5106 33.9678Z" fill="#00D3C4"/>
<path d="M39.6953 36.9766C39.3936 36.9766 39.0987 37.0666 38.8478 37.2352C38.597 37.4039 38.4015 37.6436 38.286 37.9241C38.1706 38.2046 38.1404 38.5132 38.1992 38.8109C38.2581 39.1087 38.4034 39.3822 38.6167 39.5968C38.83 39.8115 39.1018 39.9577 39.3977 40.0169C39.6936 40.0761 40.0003 40.0457 40.279 39.9296C40.5577 39.8134 40.7959 39.6166 40.9636 39.3642C41.1312 39.1118 41.2206 38.815 41.2206 38.5115C41.2206 38.1044 41.0599 37.714 40.7738 37.4261C40.4878 37.1383 40.0998 36.9766 39.6953 36.9766Z" fill="#00D0C4"/>
<path d="M35.4295 40.5186C35.0321 40.5186 34.6436 40.6371 34.3132 40.8593C33.9827 41.0814 33.7251 41.3972 33.573 41.7666C33.4209 42.1361 33.381 42.5426 33.4584 42.9348C33.5359 43.3271 33.7272 43.6874 34.0081 43.9703C34.289 44.2531 34.647 44.4458 35.0367 44.524C35.4265 44.6021 35.8305 44.5622 36.1977 44.4094C36.565 44.2565 36.8789 43.9975 37.0999 43.6651C37.3208 43.3327 37.4389 42.9419 37.4391 42.542C37.4391 42.0055 37.2274 41.4911 36.8506 41.1116C36.4738 40.7322 35.9626 40.5189 35.4295 40.5186Z" fill="#00E0BF"/>
<path d="M30.0348 42.6338C29.5686 42.6338 29.1129 42.7729 28.7253 43.0335C28.3377 43.2941 28.0356 43.6646 27.8572 44.0979C27.6788 44.5313 27.6321 45.0082 27.723 45.4683C27.814 45.9284 28.0385 46.351 28.3681 46.6827C28.6977 47.0144 29.1177 47.2403 29.5749 47.3318C30.0321 47.4234 30.5061 47.3764 30.9368 47.1969C31.3674 47.0174 31.7356 46.7133 31.9946 46.3233C32.2535 45.9333 32.3918 45.4747 32.3918 45.0056C32.3918 44.3766 32.1434 43.7733 31.7014 43.3285C31.2594 42.8837 30.6599 42.6338 30.0348 42.6338Z" fill="#00DB96"/>
<path d="M23.8921 42.9072C23.3711 42.9072 22.8617 43.0627 22.4285 43.354C21.9953 43.6452 21.6577 44.0592 21.4583 44.5436C21.2589 45.028 21.2068 45.561 21.3084 46.0752C21.4101 46.5894 21.661 47.0617 22.0294 47.4324C22.3978 47.8031 22.8671 48.0556 23.3781 48.1579C23.8891 48.2601 24.4188 48.2076 24.9001 48.007C25.3815 47.8064 25.7929 47.4666 26.0824 47.0307C26.3718 46.5948 26.5263 46.0823 26.5263 45.558C26.5263 44.855 26.2488 44.1807 25.7548 43.6836C25.2607 43.1865 24.5907 42.9072 23.8921 42.9072Z" fill="#0EDA65"/>
<path d="M18.0572 41.5542C17.563 41.5542 17.0799 41.7017 16.6691 41.9779C16.2582 42.2542 15.9379 42.6469 15.7488 43.1063C15.5597 43.5657 15.5102 44.0713 15.6066 44.559C15.703 45.0467 15.941 45.4947 16.2904 45.8464C16.6399 46.198 17.0851 46.4375 17.5698 46.5345C18.0544 46.6315 18.5568 46.5817 19.0134 46.3914C19.4699 46.2011 19.8602 45.8788 20.1347 45.4654C20.4093 45.0519 20.5558 44.5658 20.5558 44.0685C20.5558 43.4017 20.2926 42.7621 19.824 42.2906C19.3554 41.8191 18.7199 41.5542 18.0572 41.5542Z" fill="#4DE230"/>
<path d="M13.1624 38.3926C12.6825 38.3926 12.2135 38.5357 11.8145 38.804C11.4156 39.0722 11.1046 39.4535 10.921 39.8996C10.7374 40.3457 10.6893 40.8365 10.7829 41.3101C10.8766 41.7836 11.1076 42.2186 11.4469 42.5601C11.7862 42.9015 12.2185 43.134 12.6891 43.2282C13.1597 43.3224 13.6475 43.274 14.0908 43.0893C14.5341 42.9045 14.913 42.5916 15.1795 42.1901C15.4461 41.7886 15.5884 41.3167 15.5884 40.8338C15.5884 40.1864 15.3328 39.5654 14.8778 39.1076C14.4229 38.6498 13.8058 38.3926 13.1624 38.3926Z" fill="#84E90C"/>
<path d="M9.55501 33.8975C9.09989 33.8975 8.655 34.0333 8.27658 34.2877C7.89817 34.5421 7.60323 34.9038 7.42907 35.3269C7.2549 35.75 7.20933 36.2156 7.29812 36.6647C7.38691 37.1139 7.60607 37.5265 7.92788 37.8503C8.2497 38.1742 8.65972 38.3947 9.10609 38.484C9.55246 38.5734 10.0151 38.5275 10.4356 38.3523C10.8561 38.177 11.2155 37.8802 11.4683 37.4994C11.7212 37.1187 11.8561 36.671 11.8561 36.213C11.8561 35.5989 11.6137 35.0099 11.1821 34.5757C10.7506 34.1414 10.1653 33.8975 9.55501 33.8975Z" fill="#90E807"/>
<path d="M7.58305 28.3198C7.14461 28.3198 6.716 28.4506 6.35139 28.6956C5.98678 28.9406 5.70251 29.2889 5.53451 29.6964C5.36651 30.1039 5.32231 30.5524 5.4075 30.9852C5.49269 31.418 5.70345 31.8156 6.01314 32.1279C6.32283 32.4402 6.71756 32.6532 7.14746 32.7398C7.57736 32.8265 8.02314 32.783 8.42847 32.6148C8.83381 32.4466 9.18051 32.1613 9.42478 31.7949C9.66905 31.4286 9.79992 30.9975 9.80086 30.5563C9.80149 30.2629 9.74458 29.9721 9.63341 29.7008C9.52223 29.4295 9.35897 29.1829 9.15296 28.9752C8.94696 28.7674 8.70226 28.6026 8.43287 28.4902C8.16348 28.3777 7.87469 28.3198 7.58305 28.3198Z" fill="#6FDF1D"/>
<path d="M7.58186 22.1147C7.14327 22.115 6.71459 22.2461 6.35003 22.4914C5.98547 22.7368 5.70139 23.0854 5.53372 23.4933C5.36604 23.9011 5.32229 24.3498 5.408 24.7826C5.4937 25.2154 5.70502 25.613 6.01524 25.925C6.32545 26.237 6.72063 26.4494 7.15081 26.5354C7.58099 26.6214 8.02686 26.5772 8.43205 26.4082C8.83723 26.2393 9.18353 25.9532 9.42718 25.5862C9.67082 25.2193 9.80087 24.7878 9.80087 24.3465C9.80087 23.7546 9.5672 23.1869 9.15128 22.7684C8.73536 22.3499 8.17125 22.1147 7.58305 22.1147" fill="#5AD92B"/>
<path d="M9.55483 16.3877C9.1022 16.3875 8.65967 16.5223 8.28323 16.7752C7.90679 17.0281 7.61334 17.3877 7.44002 17.8084C7.2667 18.2292 7.22129 18.6922 7.30953 19.1389C7.39778 19.5857 7.61571 19.996 7.93577 20.3181C8.25583 20.6401 8.66362 20.8595 9.10756 20.9483C9.5515 21.0371 10.0116 20.9914 10.4298 20.8169C10.8479 20.6425 11.2052 20.3473 11.4565 19.9684C11.7079 19.5896 11.8419 19.1443 11.8417 18.6889C11.8417 18.0786 11.6007 17.4932 11.1719 17.0617C10.743 16.6301 10.1613 16.3877 9.55483 16.3877Z" fill="#3FD13F"/>
<path d="M13.1624 11.6299C12.6825 11.6299 12.2135 11.7731 11.8145 12.0413C11.4156 12.3096 11.1046 12.6908 10.921 13.1369C10.7374 13.583 10.6893 14.0738 10.7829 14.5474C10.8766 15.021 11.1076 15.4559 11.4469 15.7974C11.7862 16.1388 12.2185 16.3713 12.6891 16.4655C13.1597 16.5597 13.6475 16.5113 14.0908 16.3266C14.5341 16.1418 14.913 15.8289 15.1795 15.4274C15.4461 15.026 15.5884 14.554 15.5884 14.0711C15.5884 13.4237 15.3328 12.8027 14.8778 12.3449C14.4229 11.8871 13.8058 11.6299 13.1624 11.6299Z" fill="#1DC753"/>
<path d="M18.0572 8.32666C17.563 8.32666 17.0799 8.47412 16.6691 8.75039C16.2582 9.02667 15.9379 9.41935 15.7488 9.87877C15.5597 10.3382 15.5102 10.8437 15.6066 11.3315C15.703 11.8192 15.941 12.2672 16.2904 12.6188C16.6399 12.9704 17.0851 13.2099 17.5698 13.3069C18.0544 13.4039 18.5568 13.3541 19.0134 13.1638C19.4699 12.9735 19.8602 12.6513 20.1347 12.2378C20.4093 11.8243 20.5558 11.3382 20.5558 10.8409C20.5558 10.1741 20.2926 9.5346 19.824 9.06308C19.3554 8.59156 18.7199 8.32666 18.0572 8.32666Z" fill="#11C247"/>
<path d="M23.891 6.69483C23.3698 6.69388 22.86 6.84854 22.4262 7.13923C21.9923 7.42993 21.654 7.84359 21.4538 8.32787C21.2537 8.81216 21.2009 9.34529 21.302 9.85981C21.4031 10.3743 21.6536 10.8471 22.0218 11.2183C22.39 11.5895 22.8594 11.8424 23.3705 11.9451C23.8817 12.0478 24.4116 11.9956 24.8932 11.7951C25.3748 11.5946 25.7865 11.2548 26.0762 10.8188C26.3658 10.3828 26.5204 9.87008 26.5205 9.34561C26.5205 8.64258 26.2429 7.96834 25.7489 7.47122C25.2549 6.9741 24.5849 6.69483 23.8862 6.69483" fill="#0FC13A"/>
<path d="M30.0348 7.52295C29.5686 7.52295 29.1129 7.66205 28.7253 7.92267C28.3377 8.18329 28.0356 8.55372 27.8572 8.98711C27.6788 9.4205 27.6321 9.89739 27.723 10.3575C27.814 10.8176 28.0385 11.2402 28.3681 11.5719C28.6977 11.9036 29.1177 12.1295 29.5749 12.221C30.0321 12.3125 30.5061 12.2655 30.9368 12.086C31.3674 11.9065 31.7356 11.6025 31.9946 11.2125C32.2535 10.8224 32.3918 10.3639 32.3918 9.89476C32.3918 9.26572 32.1434 8.66244 31.7014 8.21764C31.2594 7.77284 30.6599 7.52295 30.0348 7.52295Z" fill="#0CBF31"/>
<path d="M35.4299 10.3457C35.0322 10.3455 34.6433 10.4639 34.3125 10.6861C33.9817 10.9083 33.7237 11.2242 33.5714 11.594C33.419 11.9637 33.379 12.3705 33.4565 12.7631C33.5339 13.1557 33.7253 13.5163 34.0065 13.7994C34.2877 14.0825 34.6459 14.2754 35.036 14.3535C35.4261 14.4317 35.8305 14.3917 36.198 14.2386C36.5655 14.0855 36.8796 13.8261 37.1006 13.4934C37.3216 13.1606 37.4395 12.7693 37.4395 12.3691C37.4395 11.8327 37.2279 11.3182 36.851 10.9388C36.4742 10.5593 35.963 10.346 35.4299 10.3457Z" fill="#07BD24"/>
<path d="M39.6953 14.8589C39.3936 14.8589 39.0987 14.9489 38.8478 15.1176C38.597 15.2862 38.4015 15.5259 38.286 15.8064C38.1706 16.0869 38.1404 16.3955 38.1992 16.6932C38.2581 16.991 38.4034 17.2645 38.6167 17.4791C38.83 17.6938 39.1018 17.84 39.3977 17.8992C39.6936 17.9584 40.0003 17.928 40.279 17.8119C40.5577 17.6957 40.7959 17.499 40.9636 17.2466C41.1312 16.9941 41.2206 16.6974 41.2206 16.3938C41.2206 15.9867 41.0599 15.5963 40.7738 15.3085C40.4878 15.0206 40.0998 14.8589 39.6953 14.8589Z" fill="#00BA15"/>
<path d="M45.1496 39.4341C44.7658 39.4341 44.3906 39.5486 44.0714 39.7632C43.7523 39.9778 43.5036 40.2827 43.3567 40.6396C43.2098 40.9964 43.1714 41.389 43.2463 41.7678C43.3211 42.1466 43.506 42.4946 43.7774 42.7677C44.0488 43.0408 44.3945 43.2267 44.771 43.3021C45.1474 43.3774 45.5376 43.3388 45.8922 43.191C46.2468 43.0432 46.5499 42.7929 46.7631 42.4717C46.9763 42.1506 47.0902 41.7731 47.0902 41.3868C47.0902 40.8689 46.8857 40.3722 46.5218 40.006C46.1578 39.6398 45.6642 39.4341 45.1496 39.4341Z" fill="#00CFC4"/>
<path d="M41.1295 43.3457C40.6353 43.3457 40.1522 43.4932 39.7413 43.7694C39.3304 44.0457 39.0102 44.4384 38.821 44.8978C38.6319 45.3572 38.5825 45.8628 38.6789 46.3505C38.7753 46.8382 39.0132 47.2862 39.3627 47.6379C39.7121 47.9895 40.1573 48.2289 40.642 48.326C41.1267 48.423 41.6291 48.3732 42.0856 48.1829C42.5422 47.9926 42.9324 47.6703 43.207 47.2569C43.4815 46.8434 43.6281 46.3573 43.6281 45.86C43.6281 45.1932 43.3648 44.5536 42.8963 44.0821C42.4277 43.6106 41.7921 43.3457 41.1295 43.3457Z" fill="#00DBC3"/>
<path d="M36.1284 46.5601C35.6074 46.5601 35.0981 46.7155 34.6649 47.0068C34.2317 47.2981 33.894 47.7121 33.6947 48.1964C33.4953 48.6808 33.4431 49.2138 33.5448 49.728C33.6464 50.2422 33.8973 50.7145 34.2657 51.0852C34.6341 51.4559 35.1035 51.7084 35.6145 51.8107C36.1255 51.913 36.6551 51.8605 37.1365 51.6598C37.6178 51.4592 38.0292 51.1194 38.3187 50.6835C38.6081 50.2476 38.7626 49.7351 38.7626 49.2108C38.7626 48.5078 38.4851 47.8336 37.9911 47.3365C37.4971 46.8393 36.827 46.5601 36.1284 46.5601Z" fill="#00E0BC"/>
<path d="M30.356 48.7236C29.8619 48.7236 29.3788 48.8711 28.9679 49.1474C28.557 49.4236 28.2367 49.8163 28.0476 50.2757C27.8585 50.7352 27.809 51.2407 27.9054 51.7284C28.0018 52.2162 28.2398 52.6642 28.5892 53.0158C28.9387 53.3674 29.3839 53.6069 29.8686 53.7039C30.3533 53.8009 30.8556 53.7511 31.3122 53.5608C31.7688 53.3705 32.159 53.0483 32.4336 52.6348C32.7081 52.2213 32.8546 51.7352 32.8546 51.2379C32.8546 50.5711 32.5914 49.9316 32.1228 49.46C31.6542 48.9885 31.0187 48.7236 30.356 48.7236Z" fill="#00DB94"/>
<path d="M24.0479 49.4873C23.6093 49.4873 23.1805 49.6182 22.8157 49.8634C22.451 50.1087 22.1668 50.4572 21.9989 50.865C21.831 51.2728 21.7871 51.7215 21.8727 52.1544C21.9583 52.5873 22.1695 52.985 22.4797 53.2971C22.7898 53.6092 23.185 53.8218 23.6152 53.9079C24.0454 53.994 24.4914 53.9498 24.8966 53.7809C25.3019 53.612 25.6482 53.3259 25.8919 52.9589C26.1356 52.5919 26.2657 52.1604 26.2657 51.719C26.2657 51.1271 26.032 50.5595 25.6161 50.141C25.2002 49.7224 24.6361 49.4873 24.0479 49.4873Z" fill="#01D97B"/>
<path d="M17.9483 48.5571C17.5506 48.5571 17.1618 48.6758 16.8312 48.8981C16.5005 49.1205 16.2428 49.4365 16.0906 49.8062C15.9384 50.1759 15.8986 50.5828 15.9761 50.9753C16.0537 51.3678 16.2452 51.7283 16.5264 52.0113C16.8077 52.2943 17.1659 52.487 17.556 52.565C17.9461 52.6431 18.3504 52.603 18.7178 52.4499C19.0852 52.2968 19.3992 52.0374 19.6202 51.7047C19.8411 51.3719 19.9591 50.9807 19.9591 50.5805C19.9591 50.0439 19.7472 49.5292 19.3701 49.1498C18.993 48.7703 18.4816 48.5571 17.9483 48.5571Z" fill="#27DD4C"/>
<path d="M12.4842 46.1582C12.1223 46.1582 11.7685 46.2662 11.4676 46.4685C11.1666 46.6709 10.9321 46.9585 10.7936 47.2949C10.6551 47.6314 10.6189 48.0017 10.6895 48.3589C10.7601 48.7161 10.9344 49.0442 11.1903 49.3017C11.4462 49.5592 11.7723 49.7346 12.1272 49.8057C12.4822 49.8767 12.8501 49.8402 13.1845 49.7009C13.5189 49.5615 13.8047 49.3255 14.0058 49.0227C14.2068 48.7198 14.3142 48.3638 14.3142 47.9996C14.3142 47.5112 14.1214 47.0429 13.7782 46.6975C13.435 46.3522 12.9696 46.1582 12.4842 46.1582Z" fill="#6EE61B"/>
<path d="M7.871 42.4946C7.53919 42.4946 7.21484 42.5936 6.93895 42.7791C6.66307 42.9646 6.44804 43.2283 6.32106 43.5368C6.19409 43.8452 6.16086 44.1847 6.2256 44.5121C6.29033 44.8396 6.45011 45.1404 6.68473 45.3765C6.91935 45.6126 7.21828 45.7734 7.54371 45.8385C7.86914 45.9037 8.20646 45.8702 8.513 45.7425C8.81955 45.6147 9.08156 45.3983 9.2659 45.1207C9.45025 44.8431 9.54864 44.5167 9.54864 44.1828C9.54864 43.7351 9.37189 43.3057 9.05727 42.9891C8.74265 42.6725 8.31594 42.4946 7.871 42.4946Z" fill="#94EB03"/>
<path d="M4.31638 37.8896C4.02976 37.8896 3.74957 37.9752 3.51125 38.1354C3.27293 38.2957 3.08719 38.5234 2.9775 38.7899C2.86782 39.0563 2.83912 39.3496 2.89503 39.6324C2.95095 39.9153 3.08897 40.1752 3.29165 40.3791C3.49432 40.583 3.75254 40.7219 4.03366 40.7782C4.31477 40.8345 4.60616 40.8056 4.87097 40.6952C5.13577 40.5849 5.3621 40.3979 5.52134 40.1581C5.68058 39.9183 5.76558 39.6364 5.76558 39.3479C5.76558 38.9612 5.61289 38.5903 5.34112 38.3168C5.06934 38.0433 4.70073 37.8896 4.31638 37.8896Z" fill="#92E905"/>
<path d="M2.02813 32.3896C1.77186 32.3896 1.52135 32.4661 1.30827 32.6094C1.0952 32.7527 0.929122 32.9563 0.831052 33.1945C0.732983 33.4328 0.707324 33.6949 0.757319 33.9479C0.807314 34.2008 0.930719 34.4331 1.11193 34.6154C1.29313 34.7978 1.52401 34.922 1.77535 34.9723C2.02669 35.0226 2.28722 34.9968 2.52398 34.8981C2.76074 34.7994 2.9631 34.6323 3.10547 34.4179C3.24785 34.2034 3.32384 33.9514 3.32384 33.6935C3.32384 33.3477 3.18733 33.0161 2.94434 32.7715C2.70134 32.527 2.37177 32.3896 2.02813 32.3896Z" fill="#74E019"/>
<path d="M1.21956 26.2227C0.978355 26.2227 0.742565 26.2946 0.542009 26.4295C0.341454 26.5643 0.18514 26.756 0.092834 26.9802C0.000528414 27.2045 -0.0236229 27.4512 0.0234341 27.6893C0.0704911 27.9273 0.186643 28.146 0.357201 28.3176C0.52776 28.4893 0.745065 28.6061 0.981636 28.6535C1.21821 28.7009 1.46342 28.6766 1.68627 28.5837C1.90911 28.4908 2.09958 28.3335 2.23359 28.1317C2.3676 27.9299 2.43912 27.6926 2.43912 27.4499C2.43912 27.1244 2.31063 26.8122 2.08192 26.5821C1.85321 26.352 1.54301 26.2227 1.21956 26.2227Z" fill="#5FDA27"/>
<path d="M2.02813 19.9009C1.77186 19.9009 1.52135 19.9773 1.30827 20.1206C1.0952 20.2639 0.929122 20.4675 0.831052 20.7058C0.732983 20.944 0.707324 21.2062 0.757319 21.4591C0.807314 21.712 0.930719 21.9443 1.11193 22.1267C1.29313 22.309 1.52401 22.4332 1.77535 22.4835C2.02669 22.5338 2.28722 22.508 2.52398 22.4093C2.76074 22.3106 2.9631 22.1435 3.10547 21.9291C3.24785 21.7147 3.32384 21.4626 3.32384 21.2047C3.32384 20.8589 3.18733 20.5273 2.94434 20.2828C2.70134 20.0382 2.37177 19.9009 2.02813 19.9009Z" fill="#50D633"/>
<path d="M4.31638 14.0977C4.02976 14.0977 3.74957 14.1832 3.51125 14.3434C3.27293 14.5037 3.08719 14.7314 2.9775 14.9979C2.86782 15.2643 2.83912 15.5576 2.89503 15.8404C2.95095 16.1233 3.08897 16.3832 3.29165 16.5871C3.49432 16.7911 3.75254 16.9299 4.03366 16.9862C4.31477 17.0425 4.60616 17.0136 4.87097 16.9032C5.13577 16.7928 5.3621 16.6059 5.52134 16.3661C5.68058 16.1263 5.76558 15.8444 5.76558 15.5559C5.76558 15.1692 5.61289 14.7983 5.34112 14.5248C5.06934 14.2513 4.70073 14.0977 4.31638 14.0977Z" fill="#37CF45"/>
<path d="M7.871 9.03564C7.53919 9.03564 7.21484 9.13465 6.93895 9.32015C6.66307 9.50565 6.44804 9.76931 6.32106 10.0778C6.19409 10.3862 6.16086 10.7257 6.2256 11.0532C6.29033 11.3806 6.45011 11.6814 6.68473 11.9175C6.91935 12.1536 7.21828 12.3144 7.54371 12.3795C7.86914 12.4447 8.20646 12.4112 8.513 12.2835C8.81955 12.1557 9.08156 11.9393 9.2659 11.6617C9.45025 11.3841 9.54864 11.0577 9.54864 10.7238C9.54864 10.5021 9.50524 10.2826 9.42094 10.0778C9.33663 9.87296 9.21305 9.68686 9.05727 9.5301C8.90148 9.37334 8.71654 9.24899 8.513 9.16415C8.30946 9.07931 8.09131 9.03564 7.871 9.03564Z" fill="#20C851"/>
<path d="M12.4842 5.06201C12.1223 5.06201 11.7685 5.17001 11.4676 5.37235C11.1666 5.57468 10.9321 5.86227 10.7936 6.19875C10.6551 6.53522 10.6189 6.90547 10.6895 7.26267C10.7601 7.61987 10.9344 7.94798 11.1903 8.20551C11.4462 8.46303 11.7723 8.63841 12.1272 8.70946C12.4822 8.78051 12.8501 8.74405 13.1845 8.60468C13.5189 8.4653 13.8047 8.22929 14.0058 7.92647C14.2068 7.62365 14.3142 7.26763 14.3142 6.90343C14.3142 6.41505 14.1214 5.94668 13.7782 5.60135C13.435 5.25602 12.9696 5.06201 12.4842 5.06201Z" fill="#0FC138"/>
<path d="M17.9483 2.30127C17.5506 2.30127 17.1618 2.41994 16.8312 2.64227C16.5005 2.86461 16.2428 3.18062 16.0906 3.55035C15.9384 3.92008 15.8986 4.32692 15.9761 4.71942C16.0537 5.11192 16.2452 5.47246 16.5264 5.75544C16.8077 6.03841 17.1659 6.23112 17.556 6.3092C17.9461 6.38727 18.3504 6.3472 18.7178 6.19405C19.0852 6.04091 19.3992 5.78156 19.6202 5.44882C19.8411 5.11607 19.9591 4.72486 19.9591 4.32467C19.9591 3.78803 19.7472 3.27337 19.3701 2.89391C18.993 2.51445 18.4816 2.30127 17.9483 2.30127Z" fill="#10C143"/>
<path d="M24.0479 0.95166C23.6093 0.95166 23.1805 1.08255 22.8157 1.32777C22.451 1.573 22.1668 1.92155 21.9989 2.32934C21.831 2.73714 21.7871 3.18587 21.8727 3.61878C21.9583 4.05169 22.1695 4.44935 22.4797 4.76146C22.7898 5.07358 23.185 5.28613 23.6152 5.37224C24.0454 5.45835 24.4914 5.41416 24.8966 5.24524C25.3019 5.07633 25.6482 4.79028 25.8919 4.42327C26.1356 4.05627 26.2657 3.62479 26.2657 3.18339C26.2657 2.5915 26.032 2.02385 25.6161 1.60532C25.2002 1.18679 24.6361 0.95166 24.0479 0.95166Z" fill="#0FC139"/>
<path d="M30.356 1.15723C29.8619 1.15723 29.3788 1.30469 28.9679 1.58096C28.557 1.85723 28.2367 2.24991 28.0476 2.70934C27.8585 3.16876 27.809 3.6743 27.9054 4.16203C28.0018 4.64975 28.2398 5.09776 28.5892 5.44939C28.9387 5.80102 29.3839 6.04048 29.8686 6.13749C30.3533 6.23451 30.8556 6.18472 31.3122 5.99441C31.7688 5.80411 32.159 5.48185 32.4336 5.06838C32.7081 4.65491 32.8546 4.16879 32.8546 3.67152C32.8546 3.00468 32.5914 2.36517 32.1228 1.89364C31.6542 1.42212 31.0187 1.15723 30.356 1.15723Z" fill="#0FC138"/>
<path d="M36.1284 3.04199C35.6074 3.04199 35.0981 3.19746 34.6649 3.48873C34.2317 3.78 33.894 4.194 33.6947 4.67836C33.4953 5.16273 33.4431 5.69571 33.5448 6.20991C33.6464 6.72411 33.8973 7.19644 34.2657 7.56715C34.6341 7.93787 35.1035 8.19033 35.6145 8.29261C36.1255 8.3949 36.6551 8.3424 37.1365 8.14177C37.6178 7.94114 38.0292 7.60138 38.3187 7.16546C38.6081 6.72955 38.7626 6.21705 38.7626 5.69277C38.7626 4.98974 38.4851 4.3155 37.9911 3.81839C37.4971 3.32127 36.827 3.04199 36.1284 3.04199Z" fill="#08BE28"/>
<path d="M41.1295 6.53516C40.6353 6.53516 40.1522 6.68262 39.7413 6.95889C39.3304 7.23516 39.0102 7.62784 38.821 8.08727C38.6319 8.5467 38.5825 9.05223 38.6789 9.53996C38.7753 10.0277 39.0132 10.4757 39.3627 10.8273C39.7121 11.1789 40.1573 11.4184 40.642 11.5154C41.1267 11.6124 41.6291 11.5626 42.0856 11.3723C42.5422 11.182 42.9324 10.8598 43.207 10.4463C43.4815 10.0328 43.6281 9.54672 43.6281 9.04945C43.6281 8.38261 43.3648 7.7431 42.8963 7.27157C42.4277 6.80005 41.7921 6.53516 41.1295 6.53516Z" fill="#02BB19"/>
<path d="M45.1496 11.563C44.7658 11.563 44.3906 11.6775 44.0714 11.8921C43.7523 12.1067 43.5036 12.4116 43.3567 12.7685C43.2098 13.1253 43.1714 13.5179 43.2463 13.8967C43.3211 14.2755 43.506 14.6235 43.7774 14.8966C44.0488 15.1697 44.3945 15.3556 44.771 15.431C45.1474 15.5063 45.5376 15.4677 45.8922 15.3199C46.2468 15.1721 46.5499 14.9218 46.7631 14.6007C46.9763 14.2795 47.0902 13.902 47.0902 13.5158C47.0902 12.9978 46.8857 12.5012 46.5218 12.1349C46.1578 11.7687 45.6642 11.563 45.1496 11.563Z" fill="#00BA14"/>
</svg>
