<svg width="1182" height="512" viewBox="0 0 1182 512" fill="none" xmlns="http://www.w3.org/2000/svg">
<g opacity="0.5">
<path d="M4.14252 0.540039H0.679688V3.71603H4.14252V0.540039Z" fill="#21262D"/>
<path d="M73.3964 0.540039H69.9336V3.71603H73.3964V0.540039Z" fill="#21262D"/>
<path d="M142.639 0.540039H139.176V3.71603H142.639V0.540039Z" fill="#21262D"/>
<path d="M211.885 0.540039H208.422V3.71603H211.885V0.540039Z" fill="#21262D"/>
<path d="M281.131 0.540039H277.668V3.71603H281.131V0.540039Z" fill="#21262D"/>
<path d="M350.373 0.540039H346.91V3.71603H350.373V0.540039Z" fill="#21262D"/>
<path d="M419.619 0.540039H416.156V3.71603H419.619V0.540039Z" fill="#21262D"/>
<path d="M488.869 0.540039H485.406V3.71603H488.869V0.540039Z" fill="#21262D"/>
<path d="M558.114 0.540039H554.652V3.71603H558.114V0.540039Z" fill="#21262D"/>
<path d="M627.358 0.540039H623.895V3.71603H627.358V0.540039Z" fill="#21262D"/>
<path d="M696.607 0.540039H693.145V3.71603H696.607V0.540039Z" fill="#21262D"/>
<path d="M765.85 0.540039H762.387V3.71603H765.85V0.540039Z" fill="#21262D"/>
<path d="M835.099 0.540039H831.637V3.71603H835.099V0.540039Z" fill="#21262D"/>
<path d="M904.346 0.540039H900.883V3.71603H904.346V0.540039Z" fill="#21262D"/>
<path d="M973.596 0.540039H970.133V3.71603H973.596V0.540039Z" fill="#21262D"/>
<path d="M1042.83 0.540039H1039.37V3.71603H1042.83V0.540039Z" fill="#21262D"/>
<path d="M1112.08 0.540039H1108.62V3.71603H1112.08V0.540039Z" fill="#21262D"/>
<path d="M1181.33 0.540039H1177.88V3.71603H1181.33V0.540039Z" fill="#21262D"/>
<path d="M4.14252 64.0596H0.679688V67.2355H4.14252V64.0596Z" fill="#21262D"/>
<path d="M73.3964 64.0596H69.9336V67.2355H73.3964V64.0596Z" fill="#21262D"/>
<path d="M142.639 64.0596H139.176V67.2355H142.639V64.0596Z" fill="#21262D"/>
<path d="M211.885 64.0596H208.422V67.2355H211.885V64.0596Z" fill="#21262D"/>
<path d="M281.131 64.0596H277.668V67.2355H281.131V64.0596Z" fill="#21262D"/>
<path d="M350.373 64.0596H346.91V67.2355H350.373V64.0596Z" fill="#21262D"/>
<path d="M419.619 64.0596H416.156V67.2355H419.619V64.0596Z" fill="#21262D"/>
<path d="M488.869 64.0596H485.406V67.2355H488.869V64.0596Z" fill="#21262D"/>
<path d="M558.114 64.0596H554.652V67.2355H558.114V64.0596Z" fill="#21262D"/>
<path d="M627.358 64.0596H623.895V67.2355H627.358V64.0596Z" fill="#21262D"/>
<path d="M696.607 64.0596H693.145V67.2355H696.607V64.0596Z" fill="#21262D"/>
<path d="M765.85 64.0596H762.387V67.2355H765.85V64.0596Z" fill="#21262D"/>
<path d="M835.099 64.0596H831.637V67.2355H835.099V64.0596Z" fill="#21262D"/>
<path d="M904.346 64.0596H900.883V67.2355H904.346V64.0596Z" fill="#21262D"/>
<path d="M973.596 64.0596H970.133V67.2355H973.596V64.0596Z" fill="#21262D"/>
<path d="M1042.83 64.0596H1039.37V67.2355H1042.83V64.0596Z" fill="#21262D"/>
<path d="M1112.08 64.0596H1108.62V67.2355H1112.08V64.0596Z" fill="#21262D"/>
<path d="M1181.33 64.0596H1177.88V67.2355H1181.33V64.0596Z" fill="#21262D"/>
<path d="M4.14252 127.58H0.679688V130.756H4.14252V127.58Z" fill="#21262D"/>
<path d="M73.3964 127.58H69.9336V130.756H73.3964V127.58Z" fill="#21262D"/>
<path d="M142.639 127.58H139.176V130.756H142.639V127.58Z" fill="#21262D"/>
<path d="M211.885 127.58H208.422V130.756H211.885V127.58Z" fill="#21262D"/>
<path d="M281.131 127.58H277.668V130.756H281.131V127.58Z" fill="#21262D"/>
<path d="M350.373 127.58H346.91V130.756H350.373V127.58Z" fill="#21262D"/>
<path d="M419.619 127.58H416.156V130.756H419.619V127.58Z" fill="#21262D"/>
<path d="M488.869 127.58H485.406V130.756H488.869V127.58Z" fill="#21262D"/>
<path d="M558.114 127.58H554.652V130.756H558.114V127.58Z" fill="#21262D"/>
<path d="M627.358 127.58H623.895V130.756H627.358V127.58Z" fill="#21262D"/>
<path d="M696.607 127.58H693.145V130.756H696.607V127.58Z" fill="#21262D"/>
<path d="M765.85 127.58H762.387V130.756H765.85V127.58Z" fill="#21262D"/>
<path d="M835.099 127.58H831.637V130.756H835.099V127.58Z" fill="#21262D"/>
<path d="M904.346 127.58H900.883V130.756H904.346V127.58Z" fill="#21262D"/>
<path d="M973.596 127.58H970.133V130.756H973.596V127.58Z" fill="#21262D"/>
<path d="M1042.83 127.58H1039.37V130.756H1042.83V127.58Z" fill="#21262D"/>
<path d="M1112.08 127.58H1108.62V130.756H1112.08V127.58Z" fill="#21262D"/>
<path d="M1181.33 127.58H1177.88V130.756H1181.33V127.58Z" fill="#21262D"/>
<path d="M4.14252 191.099H0.679688V194.275H4.14252V191.099Z" fill="#21262D"/>
<path d="M73.3964 191.099H69.9336V194.275H73.3964V191.099Z" fill="#21262D"/>
<path d="M142.639 191.099H139.176V194.275H142.639V191.099Z" fill="#21262D"/>
<path d="M211.885 191.099H208.422V194.275H211.885V191.099Z" fill="#21262D"/>
<path d="M281.131 191.099H277.668V194.275H281.131V191.099Z" fill="#21262D"/>
<path d="M350.373 191.099H346.91V194.275H350.373V191.099Z" fill="#21262D"/>
<path d="M419.619 191.099H416.156V194.275H419.619V191.099Z" fill="#21262D"/>
<path d="M488.869 191.099H485.406V194.275H488.869V191.099Z" fill="#21262D"/>
<path d="M558.114 191.099H554.652V194.275H558.114V191.099Z" fill="#21262D"/>
<path d="M627.358 191.099H623.895V194.275H627.358V191.099Z" fill="#21262D"/>
<path d="M696.607 191.099H693.145V194.275H696.607V191.099Z" fill="#21262D"/>
<path d="M765.85 191.099H762.387V194.275H765.85V191.099Z" fill="#21262D"/>
<path d="M835.099 191.099H831.637V194.275H835.099V191.099Z" fill="#21262D"/>
<path d="M904.346 191.099H900.883V194.275H904.346V191.099Z" fill="#21262D"/>
<path d="M973.596 191.099H970.133V194.275H973.596V191.099Z" fill="#21262D"/>
<path d="M1042.83 191.099H1039.37V194.275H1042.83V191.099Z" fill="#21262D"/>
<path d="M1112.08 191.099H1108.62V194.275H1112.08V191.099Z" fill="#21262D"/>
<path d="M1181.33 191.099H1177.88V194.275H1181.33V191.099Z" fill="#21262D"/>
<path d="M4.14252 254.619H0.679688V257.794H4.14252V254.619Z" fill="#21262D"/>
<path d="M73.3964 254.619H69.9336V257.794H73.3964V254.619Z" fill="#21262D"/>
<path d="M142.639 254.619H139.176V257.794H142.639V254.619Z" fill="#21262D"/>
<path d="M211.885 254.619H208.422V257.794H211.885V254.619Z" fill="#21262D"/>
<path d="M281.131 254.619H277.668V257.794H281.131V254.619Z" fill="#21262D"/>
<path d="M350.373 254.619H346.91V257.794H350.373V254.619Z" fill="#21262D"/>
<path d="M419.619 254.619H416.156V257.794H419.619V254.619Z" fill="#21262D"/>
<path d="M488.869 254.619H485.406V257.794H488.869V254.619Z" fill="#21262D"/>
<path d="M558.114 254.619H554.652V257.794H558.114V254.619Z" fill="#21262D"/>
<path d="M627.358 254.619H623.895V257.794H627.358V254.619Z" fill="#21262D"/>
<path d="M696.607 254.619H693.145V257.794H696.607V254.619Z" fill="#21262D"/>
<path d="M765.85 254.619H762.387V257.794H765.85V254.619Z" fill="#21262D"/>
<path d="M835.099 254.619H831.637V257.794H835.099V254.619Z" fill="#21262D"/>
<path d="M904.346 254.619H900.883V257.794H904.346V254.619Z" fill="#21262D"/>
<path d="M973.596 254.619H970.133V257.794H973.596V254.619Z" fill="#21262D"/>
<path d="M1042.83 254.619H1039.37V257.794H1042.83V254.619Z" fill="#21262D"/>
<path d="M1112.08 254.619H1108.62V257.794H1112.08V254.619Z" fill="#21262D"/>
<path d="M1181.33 254.619H1177.88V257.794H1181.33V254.619Z" fill="#21262D"/>
<path d="M4.14252 318.138H0.679688V321.314H4.14252V318.138Z" fill="#21262D"/>
<path d="M73.3964 318.138H69.9336V321.314H73.3964V318.138Z" fill="#21262D"/>
<path d="M142.639 318.138H139.176V321.314H142.639V318.138Z" fill="#21262D"/>
<path d="M211.885 318.138H208.422V321.314H211.885V318.138Z" fill="#21262D"/>
<path d="M281.131 318.138H277.668V321.314H281.131V318.138Z" fill="#21262D"/>
<path d="M350.373 318.138H346.91V321.314H350.373V318.138Z" fill="#21262D"/>
<path d="M419.619 318.138H416.156V321.314H419.619V318.138Z" fill="#21262D"/>
<path d="M488.869 318.138H485.406V321.314H488.869V318.138Z" fill="#21262D"/>
<path d="M558.114 318.138H554.652V321.314H558.114V318.138Z" fill="#21262D"/>
<path d="M627.358 318.138H623.895V321.314H627.358V318.138Z" fill="#21262D"/>
<path d="M696.607 318.138H693.145V321.314H696.607V318.138Z" fill="#21262D"/>
<path d="M765.85 318.138H762.387V321.314H765.85V318.138Z" fill="#21262D"/>
<path d="M835.099 318.138H831.637V321.314H835.099V318.138Z" fill="#21262D"/>
<path d="M904.346 318.138H900.883V321.314H904.346V318.138Z" fill="#21262D"/>
<path d="M973.596 318.138H970.133V321.314H973.596V318.138Z" fill="#21262D"/>
<path d="M1042.83 318.138H1039.37V321.314H1042.83V318.138Z" fill="#21262D"/>
<path d="M1112.08 318.138H1108.62V321.314H1112.08V318.138Z" fill="#21262D"/>
<path d="M1181.33 318.138H1177.88V321.314H1181.33V318.138Z" fill="#21262D"/>
<path d="M4.14252 381.658H0.679688V384.833H4.14252V381.658Z" fill="#21262D"/>
<path d="M73.3964 381.658H69.9336V384.834H73.3964V381.658Z" fill="#21262D"/>
<path d="M142.639 381.658H139.176V384.834H142.639V381.658Z" fill="#21262D"/>
<path d="M211.885 381.658H208.422V384.834H211.885V381.658Z" fill="#21262D"/>
<path d="M281.131 381.658H277.668V384.834H281.131V381.658Z" fill="#21262D"/>
<path d="M350.373 381.658H346.91V384.834H350.373V381.658Z" fill="#21262D"/>
<path d="M419.619 381.658H416.156V384.834H419.619V381.658Z" fill="#21262D"/>
<path d="M488.869 381.658H485.406V384.834H488.869V381.658Z" fill="#21262D"/>
<path d="M558.114 381.658H554.652V384.834H558.114V381.658Z" fill="#21262D"/>
<path d="M627.358 381.658H623.895V384.834H627.358V381.658Z" fill="#21262D"/>
<path d="M696.607 381.658H693.145V384.834H696.607V381.658Z" fill="#21262D"/>
<path d="M765.85 381.658H762.387V384.833H765.85V381.658Z" fill="#21262D"/>
<path d="M835.099 381.658H831.637V384.834H835.099V381.658Z" fill="#21262D"/>
<path d="M904.346 381.658H900.883V384.834H904.346V381.658Z" fill="#21262D"/>
<path d="M973.596 381.658H970.133V384.834H973.596V381.658Z" fill="#21262D"/>
<path d="M1042.83 381.658H1039.37V384.834H1042.83V381.658Z" fill="#21262D"/>
<path d="M1112.08 381.658H1108.62V384.834H1112.08V381.658Z" fill="#21262D"/>
<path d="M1181.33 381.658H1177.88V384.834H1181.33V381.658Z" fill="#21262D"/>
<path d="M4.14252 445.177H0.679688V448.354H4.14252V445.177Z" fill="#21262D"/>
<path d="M73.3964 445.177H69.9336V448.354H73.3964V445.177Z" fill="#21262D"/>
<path d="M142.639 445.177H139.176V448.354H142.639V445.177Z" fill="#21262D"/>
<path d="M211.885 445.177H208.422V448.354H211.885V445.177Z" fill="#21262D"/>
<path d="M281.131 445.177H277.668V448.354H281.131V445.177Z" fill="#21262D"/>
<path d="M350.373 445.177H346.91V448.354H350.373V445.177Z" fill="#21262D"/>
<path d="M419.619 445.177H416.156V448.354H419.619V445.177Z" fill="#21262D"/>
<path d="M488.869 445.177H485.406V448.354H488.869V445.177Z" fill="#21262D"/>
<path d="M558.114 445.177H554.652V448.354H558.114V445.177Z" fill="#21262D"/>
<path d="M627.358 445.177H623.895V448.354H627.358V445.177Z" fill="#21262D"/>
<path d="M696.607 445.177H693.145V448.354H696.607V445.177Z" fill="#21262D"/>
<path d="M765.85 445.177H762.387V448.354H765.85V445.177Z" fill="#21262D"/>
<path d="M835.099 445.177H831.637V448.354H835.099V445.177Z" fill="#21262D"/>
<path d="M904.346 445.177H900.883V448.354H904.346V445.177Z" fill="#21262D"/>
<path d="M973.596 445.177H970.133V448.354H973.596V445.177Z" fill="#21262D"/>
<path d="M1042.83 445.177H1039.37V448.354H1042.83V445.177Z" fill="#21262D"/>
<path d="M1112.08 445.177H1108.62V448.354H1112.08V445.177Z" fill="#21262D"/>
<path d="M1181.33 445.177H1177.88V448.354H1181.33V445.177Z" fill="#21262D"/>
<path d="M4.14252 508.698H0.679688V511.873H4.14252V508.698Z" fill="#21262D"/>
<path d="M73.3964 508.698H69.9336V511.873H73.3964V508.698Z" fill="#21262D"/>
<path d="M142.639 508.698H139.176V511.873H142.639V508.698Z" fill="#21262D"/>
<path d="M211.885 508.698H208.422V511.873H211.885V508.698Z" fill="#21262D"/>
<path d="M281.131 508.698H277.668V511.873H281.131V508.698Z" fill="#21262D"/>
<path d="M350.373 508.698H346.91V511.873H350.373V508.698Z" fill="#21262D"/>
<path d="M419.619 508.698H416.156V511.873H419.619V508.698Z" fill="#21262D"/>
<path d="M488.869 508.698H485.406V511.873H488.869V508.698Z" fill="#21262D"/>
<path d="M558.114 508.698H554.652V511.873H558.114V508.698Z" fill="#21262D"/>
<path d="M627.358 508.698H623.895V511.873H627.358V508.698Z" fill="#21262D"/>
<path d="M696.607 508.698H693.145V511.873H696.607V508.698Z" fill="#21262D"/>
<path d="M765.85 508.698H762.387V511.873H765.85V508.698Z" fill="#21262D"/>
<path d="M835.099 508.698H831.637V511.873H835.099V508.698Z" fill="#21262D"/>
<path d="M904.346 508.698H900.883V511.873H904.346V508.698Z" fill="#21262D"/>
<path d="M973.596 508.698H970.133V511.873H973.596V508.698Z" fill="#21262D"/>
<path d="M1042.83 508.698H1039.37V511.873H1042.83V508.698Z" fill="#21262D"/>
<path d="M1112.08 508.698H1108.62V511.873H1112.08V508.698Z" fill="#21262D"/>
<path d="M1181.33 508.698H1177.88V511.873H1181.33V508.698Z" fill="#21262D"/>
<g opacity="0.4">
<path d="M4.14252 64.0601H0.679688V67.236H4.14252V64.0601Z" fill="url(#paint0_linear_4475_32793)"/>
<path d="M73.3964 64.0601H69.9336V67.236H73.3964V64.0601Z" fill="url(#paint1_linear_4475_32793)"/>
<path d="M211.885 64.0601H208.422V67.236H211.885V64.0601Z" fill="url(#paint2_linear_4475_32793)"/>
<path d="M419.619 64.0601H416.156V67.236H419.619V64.0601Z" fill="url(#paint3_linear_4475_32793)"/>
<path d="M488.869 64.0601H485.406V67.236H488.869V64.0601Z" fill="url(#paint4_linear_4475_32793)"/>
<path d="M558.114 64.0601H554.652V67.236H558.114V64.0601Z" fill="url(#paint5_linear_4475_32793)"/>
<path d="M627.358 64.0601H623.895V67.236H627.358V64.0601Z" fill="url(#paint6_linear_4475_32793)"/>
<path d="M765.85 64.0601H762.387V67.236H765.85V64.0601Z" fill="url(#paint7_linear_4475_32793)"/>
<path d="M835.099 64.0601H831.637V67.236H835.099V64.0601Z" fill="url(#paint8_linear_4475_32793)"/>
<path d="M904.346 64.0601H900.883V67.236H904.346V64.0601Z" fill="url(#paint9_linear_4475_32793)"/>
<path d="M1181.33 64.0601H1177.88V67.236H1181.33V64.0601Z" fill="url(#paint10_linear_4475_32793)"/>
<path d="M1112.08 127.58H1108.62V130.756H1112.08V127.58Z" fill="url(#paint11_linear_4475_32793)"/>
<path d="M1181.33 127.58H1177.88V130.756H1181.33V127.58Z" fill="url(#paint12_linear_4475_32793)"/>
<path d="M142.639 191.099H139.176V194.275H142.639V191.099Z" fill="url(#paint13_linear_4475_32793)"/>
<path d="M1112.08 191.099H1108.62V194.275H1112.08V191.099Z" fill="url(#paint14_linear_4475_32793)"/>
<path d="M142.639 254.619H139.176V257.796H142.639V254.619Z" fill="url(#paint15_linear_4475_32793)"/>
<path d="M1181.33 254.619H1177.88V257.796H1181.33V254.619Z" fill="url(#paint16_linear_4475_32793)"/>
<path d="M73.3964 318.138H69.9336V321.315H73.3964V318.138Z" fill="url(#paint17_linear_4475_32793)"/>
<path d="M142.639 318.138H139.176V321.315H142.639V318.138Z" fill="url(#paint18_linear_4475_32793)"/>
<path d="M1181.33 318.138H1177.88V321.315H1181.33V318.138Z" fill="url(#paint19_linear_4475_32793)"/>
<path d="M4.14252 381.659H0.679688V384.835H4.14252V381.659Z" fill="url(#paint20_linear_4475_32793)"/>
<path d="M142.639 381.659H139.176V384.835H142.639V381.659Z" fill="url(#paint21_linear_4475_32793)"/>
<path d="M1112.08 381.659H1108.62V384.835H1112.08V381.659Z" fill="url(#paint22_linear_4475_32793)"/>
<path d="M1181.33 381.659H1177.88V384.835H1181.33V381.659Z" fill="url(#paint23_linear_4475_32793)"/>
<path d="M142.639 445.178H139.176V448.354H142.639V445.178Z" fill="url(#paint24_linear_4475_32793)"/>
<path d="M1042.83 445.178H1039.37V448.354H1042.83V445.178Z" fill="url(#paint25_linear_4475_32793)"/>
<path d="M1112.08 445.178H1108.62V448.354H1112.08V445.178Z" fill="url(#paint26_linear_4475_32793)"/>
<path d="M4.14252 508.698H0.679688V511.873H4.14252V508.698Z" fill="url(#paint27_linear_4475_32793)"/>
<path d="M1181.33 508.698H1177.88V511.873H1181.33V508.698Z" fill="url(#paint28_linear_4475_32793)"/>
<path d="M280.908 381.659H277.445V384.835H280.908V381.659Z" fill="url(#paint29_linear_4475_32793)"/>
<path d="M904.346 381.659H900.883V384.835H904.346V381.659Z" fill="url(#paint30_linear_4475_32793)"/>
<path d="M973.596 381.659H970.133V384.835H973.596V381.659Z" fill="url(#paint31_linear_4475_32793)"/>
</g>
</g>
<defs>
<linearGradient id="paint0_linear_4475_32793" x1="0.724744" y1="-80347.9" x2="1.21918e+06" y2="-8730.51" gradientUnits="userSpaceOnUse">
<stop stop-color="#8200FF"/>
<stop offset="1" stop-color="#CD88FF"/>
</linearGradient>
<linearGradient id="paint1_linear_4475_32793" x1="-86362.3" y1="-80347.9" x2="1.13282e+06" y2="-8731.55" gradientUnits="userSpaceOnUse">
<stop stop-color="#8200FF"/>
<stop offset="1" stop-color="#CD88FF"/>
</linearGradient>
<linearGradient id="paint2_linear_4475_32793" x1="-259088" y1="-80339" x2="960092" y2="-8722.44" gradientUnits="userSpaceOnUse">
<stop stop-color="#8200FF"/>
<stop offset="1" stop-color="#CD88FF"/>
</linearGradient>
<linearGradient id="paint3_linear_4475_32793" x1="-518178" y1="-80339" x2="701002" y2="-8722.43" gradientUnits="userSpaceOnUse">
<stop stop-color="#8200FF"/>
<stop offset="1" stop-color="#CD88FF"/>
</linearGradient>
<linearGradient id="paint4_linear_4475_32793" x1="-604546" y1="-80339" x2="614645" y2="-8721.27" gradientUnits="userSpaceOnUse">
<stop stop-color="#8200FF"/>
<stop offset="1" stop-color="#CD88FF"/>
</linearGradient>
<linearGradient id="paint5_linear_4475_32793" x1="-690600" y1="-80347.9" x2="528047" y2="-8762.83" gradientUnits="userSpaceOnUse">
<stop stop-color="#8200FF"/>
<stop offset="1" stop-color="#CD88FF"/>
</linearGradient>
<linearGradient id="paint6_linear_4475_32793" x1="-777273" y1="-80339" x2="441917" y2="-8721.25" gradientUnits="userSpaceOnUse">
<stop stop-color="#8200FF"/>
<stop offset="1" stop-color="#CD88FF"/>
</linearGradient>
<linearGradient id="paint7_linear_4475_32793" x1="-949985" y1="-80339" x2="269185" y2="-8723.67" gradientUnits="userSpaceOnUse">
<stop stop-color="#8200FF"/>
<stop offset="1" stop-color="#CD88FF"/>
</linearGradient>
<linearGradient id="paint8_linear_4475_32793" x1="-1.0359e+06" y1="-80347.9" x2="182747" y2="-8762.81" gradientUnits="userSpaceOnUse">
<stop stop-color="#8200FF"/>
<stop offset="1" stop-color="#CD88FF"/>
</linearGradient>
<linearGradient id="paint9_linear_4475_32793" x1="-1.12271e+06" y1="-80339" x2="96460.3" y2="-8723.65" gradientUnits="userSpaceOnUse">
<stop stop-color="#8200FF"/>
<stop offset="1" stop-color="#CD88FF"/>
</linearGradient>
<linearGradient id="paint10_linear_4475_32793" x1="-1.46032e+06" y1="-80347.9" x2="-247630" y2="-9112.41" gradientUnits="userSpaceOnUse">
<stop stop-color="#8200FF"/>
<stop offset="1" stop-color="#CD88FF"/>
</linearGradient>
<linearGradient id="paint11_linear_4475_32793" x1="-1.38182e+06" y1="-117761" x2="-162631" y2="-46143.1" gradientUnits="userSpaceOnUse">
<stop stop-color="#8200FF"/>
<stop offset="1" stop-color="#CD88FF"/>
</linearGradient>
<linearGradient id="paint12_linear_4475_32793" x1="-1.46016e+06" y1="-117761" x2="-247602" y2="-46533.2" gradientUnits="userSpaceOnUse">
<stop stop-color="#8200FF"/>
<stop offset="1" stop-color="#CD88FF"/>
</linearGradient>
<linearGradient id="paint13_linear_4475_32793" x1="-172726" y1="-155174" x2="1.04646e+06" y2="-83557.6" gradientUnits="userSpaceOnUse">
<stop stop-color="#8200FF"/>
<stop offset="1" stop-color="#CD88FF"/>
</linearGradient>
<linearGradient id="paint14_linear_4475_32793" x1="-1.38182e+06" y1="-155174" x2="-162631" y2="-83556.4" gradientUnits="userSpaceOnUse">
<stop stop-color="#8200FF"/>
<stop offset="1" stop-color="#CD88FF"/>
</linearGradient>
<linearGradient id="paint15_linear_4475_32793" x1="-172726" y1="-192587" x2="1.04645e+06" y2="-120970" gradientUnits="userSpaceOnUse">
<stop stop-color="#8200FF"/>
<stop offset="1" stop-color="#CD88FF"/>
</linearGradient>
<linearGradient id="paint16_linear_4475_32793" x1="-1.46016e+06" y1="-192587" x2="-247602" y2="-121359" gradientUnits="userSpaceOnUse">
<stop stop-color="#8200FF"/>
<stop offset="1" stop-color="#CD88FF"/>
</linearGradient>
<linearGradient id="paint17_linear_4475_32793" x1="-86352.5" y1="-230000" x2="1.13269e+06" y2="-158392" gradientUnits="userSpaceOnUse">
<stop stop-color="#8200FF"/>
<stop offset="1" stop-color="#CD88FF"/>
</linearGradient>
<linearGradient id="paint18_linear_4475_32793" x1="-172726" y1="-230000" x2="1.04646e+06" y2="-158384" gradientUnits="userSpaceOnUse">
<stop stop-color="#8200FF"/>
<stop offset="1" stop-color="#CD88FF"/>
</linearGradient>
<linearGradient id="paint19_linear_4475_32793" x1="-1.46016e+06" y1="-230000" x2="-247602" y2="-158773" gradientUnits="userSpaceOnUse">
<stop stop-color="#EE81DE"/>
<stop offset="1" stop-color="#79C0FF"/>
</linearGradient>
<linearGradient id="paint20_linear_4475_32793" x1="0.93914" y1="-267414" x2="1.21906e+06" y2="-195804" gradientUnits="userSpaceOnUse">
<stop stop-color="#8405FF"/>
<stop offset="1" stop-color="#CD88FF"/>
</linearGradient>
<linearGradient id="paint21_linear_4475_32793" x1="-172726" y1="-267414" x2="1.04645e+06" y2="-195797" gradientUnits="userSpaceOnUse">
<stop stop-color="#A950FF"/>
<stop offset="1" stop-color="#79C0FF"/>
</linearGradient>
<linearGradient id="paint22_linear_4475_32793" x1="-1.38182e+06" y1="-267414" x2="-162631" y2="-195796" gradientUnits="userSpaceOnUse">
<stop stop-color="#8200FF"/>
<stop offset="1" stop-color="#CD88FF"/>
</linearGradient>
<linearGradient id="paint23_linear_4475_32793" x1="-1.46016e+06" y1="-267414" x2="-247602" y2="-196186" gradientUnits="userSpaceOnUse">
<stop stop-color="#8200FF"/>
<stop offset="1" stop-color="#CD88FF"/>
</linearGradient>
<linearGradient id="paint24_linear_4475_32793" x1="-172726" y1="-304827" x2="1.04646e+06" y2="-233210" gradientUnits="userSpaceOnUse">
<stop stop-color="#8200FF"/>
<stop offset="1" stop-color="#CD88FF"/>
</linearGradient>
<linearGradient id="paint25_linear_4475_32793" x1="-1.29545e+06" y1="-304827" x2="-76263.1" y2="-233209" gradientUnits="userSpaceOnUse">
<stop stop-color="#8200FF"/>
<stop offset="1" stop-color="#CD88FF"/>
</linearGradient>
<linearGradient id="paint26_linear_4475_32793" x1="-1.38182e+06" y1="-304827" x2="-162631" y2="-233209" gradientUnits="userSpaceOnUse">
<stop stop-color="#8200FF"/>
<stop offset="1" stop-color="#CD88FF"/>
</linearGradient>
<linearGradient id="paint27_linear_4475_32793" x1="0.720355" y1="-342090" x2="1.21918e+06" y2="-270475" gradientUnits="userSpaceOnUse">
<stop stop-color="#8200FF"/>
<stop offset="1" stop-color="#CD88FF"/>
</linearGradient>
<linearGradient id="paint28_linear_4475_32793" x1="-1.46096e+06" y1="-342245" x2="-247741" y2="-270980" gradientUnits="userSpaceOnUse">
<stop stop-color="#8200FF"/>
<stop offset="1" stop-color="#CD88FF"/>
</linearGradient>
<linearGradient id="paint29_linear_4475_32793" x1="-345172" y1="-267414" x2="874008" y2="-195797" gradientUnits="userSpaceOnUse">
<stop stop-color="#8200FF"/>
<stop offset="1" stop-color="#CD88FF"/>
</linearGradient>
<linearGradient id="paint30_linear_4475_32793" x1="-1.12271e+06" y1="-267414" x2="96460.7" y2="-195798" gradientUnits="userSpaceOnUse">
<stop stop-color="#A950FF"/>
<stop offset="1" stop-color="#D479FF"/>
</linearGradient>
<linearGradient id="paint31_linear_4475_32793" x1="-1.20906e+06" y1="-267414" x2="10093" y2="-195801" gradientUnits="userSpaceOnUse">
<stop stop-color="#8200FF"/>
<stop offset="1" stop-color="#CD88FF"/>
</linearGradient>
</defs>
</svg>
