<svg width="492" height="314" viewBox="0 0 492 314" fill="none" xmlns="http://www.w3.org/2000/svg">
<g id="Artwork">
<g id="Frame 15433">
<g id="Ellipse 1" filter="url(#filter0_f_8338_16384)">
<ellipse cx="131.099" cy="135.008" rx="32.3794" ry="32.474" transform="rotate(-90 131.099 135.008)" fill="#7300CE" fill-opacity="0.5"/>
</g>
<path id="Ellipse 1219" d="M325.846 257.21C323.471 257.941 321.055 258.643 318.598 259.315L317.992 258.563L316.683 258.913C315.035 259.354 313.369 259.781 311.685 260.194C310.001 260.607 308.312 261.002 306.619 261.381L305.274 261.682L305.795 262.454C303.252 263.009 300.698 263.525 298.137 264.005L297.704 263.215L296.328 263.465C292.836 264.099 289.329 264.664 285.814 265.16L284.413 265.358L284.756 266.162C282.109 266.522 279.457 266.843 276.803 267.126L276.552 266.31L275.131 266.455C271.532 266.82 267.93 267.115 264.328 267.342L262.894 267.432L263.051 268.255C260.348 268.411 257.647 268.529 254.948 268.609L254.885 267.782L253.443 267.817C249.795 267.907 246.154 267.928 242.525 267.88L241.082 267.86L241.051 268.688C238.339 268.639 235.634 268.552 232.938 268.427L233.063 267.602L231.626 267.529C227.993 267.343 224.378 267.088 220.786 266.767L219.36 266.639L219.141 267.458C216.464 267.205 213.8 266.915 211.153 266.588L211.464 265.78L210.055 265.599C206.498 265.142 202.971 264.619 199.479 264.03L198.093 263.797L197.691 264.592C195.095 264.141 192.519 263.654 189.966 263.132L190.456 262.354L189.1 262.069C185.678 261.35 182.297 260.568 178.963 259.723L177.642 259.388L177.065 260.146C174.593 259.505 172.148 258.829 169.732 258.12L170.393 257.386L169.112 257.002C165.883 256.034 162.707 255.006 159.59 253.917L158.355 253.486L157.611 254.195C155.307 253.374 153.034 252.522 150.797 251.637L151.619 250.958L150.435 250.481C147.455 249.281 144.538 248.023 141.69 246.708L140.563 246.187L139.665 246.834C137.568 245.848 135.509 244.832 133.491 243.785L134.46 243.175L133.395 242.613C130.715 241.199 128.11 239.732 125.583 238.211L124.585 237.61L123.547 238.182C121.694 237.047 119.884 235.883 118.12 234.692L119.22 234.16L118.293 233.522C115.963 231.921 113.716 230.269 111.557 228.568L110.705 227.897L109.545 228.385C107.969 227.121 106.44 225.83 104.961 224.513L106.174 224.069L105.4 223.367C103.458 221.604 101.606 219.796 99.8478 217.943L99.1552 217.213L97.8945 217.609C96.622 216.24 95.4004 214.847 94.2317 213.43L95.5345 213.081L94.9256 212.327C94.1588 211.377 93.4159 210.416 92.6974 209.445C91.9789 208.474 91.2903 207.5 90.6314 206.523L90.1082 205.748L88.7689 206.047C87.8042 204.581 86.9055 203.108 86.0719 201.631L87.4421 201.383L87.0073 200.589C85.9038 198.576 84.9221 196.554 84.06 194.526L83.7164 193.718L82.3208 193.915C81.6959 192.388 81.1381 190.859 80.6463 189.329L82.0614 189.186L81.8109 188.367C81.1766 186.292 80.6645 184.215 80.2725 182.138L80.1163 181.311L78.6878 181.4C78.4174 179.842 78.2138 178.284 78.0761 176.729L79.5117 176.695L79.4507 175.864C79.2963 173.761 79.2633 171.663 79.3494 169.571L79.3836 168.739L77.947 168.719C78.0348 167.156 78.1884 165.597 78.4069 164.044L79.8381 164.119L79.9671 163.29C80.293 161.197 80.7379 159.115 81.2994 157.046L81.5224 156.224L80.1027 156.095C80.5447 154.553 81.0509 153.019 81.6204 151.494L83.0226 151.676L83.3383 150.865C84.1351 148.817 85.0473 146.786 86.0726 144.775L86.4794 143.978L85.1007 143.743C85.8868 142.249 86.7349 140.766 87.6443 139.296L88.9937 139.582L89.4897 138.801C90.7409 136.832 92.103 134.886 93.5739 132.968L94.1569 132.207L92.8425 131.872C93.9579 130.45 95.1328 129.043 96.3662 127.653L97.6402 128.037L98.3078 127.3C99.9904 125.443 101.779 123.616 103.671 121.823L104.421 121.113L103.193 120.682C104.618 119.357 106.1 118.05 107.638 116.764L108.815 117.24L109.643 116.56C111.729 114.846 113.915 113.169 116.199 111.532L117.103 110.885L115.983 110.365C117.695 109.16 119.46 107.976 121.277 106.816L122.336 107.377L123.311 106.765C125.766 105.225 128.314 103.728 130.954 102.276L131.997 101.702L131.005 101.102C132.975 100.038 134.994 98.9977 137.063 97.9841L137.985 98.6199L139.091 98.0869C141.87 96.7487 144.736 95.4578 147.687 94.2173L148.853 93.7274L148.005 93.0581C150.199 92.1524 152.438 91.2742 154.723 90.4246L155.492 91.1245L156.711 90.6798C159.768 89.5642 162.905 88.5 166.119 87.49L167.385 87.0921L166.696 86.3648C169.071 85.6337 171.487 84.9318 173.944 84.2603L174.55 85.0117L175.859 84.6618C177.507 84.2212 179.173 83.7942 180.857 83.3813C182.541 82.9684 184.23 82.5726 185.924 82.1939L187.268 81.8931L186.747 81.1209C189.29 80.5664 191.844 80.0497 194.405 79.5705L194.839 80.3604L196.214 80.1104C199.706 79.4759 203.213 78.9112 206.728 78.4152L208.129 78.2175L207.786 77.413C210.433 77.0534 213.085 76.7322 215.739 76.4491L215.99 77.2647L217.411 77.1204C221.01 76.7549 224.612 76.4597 228.214 76.2333L229.649 76.1432L229.491 75.3199C232.194 75.1636 234.895 75.0457 237.594 74.9657L237.657 75.7932L239.099 75.7576C242.747 75.6676 246.388 75.6474 250.017 75.6955L251.46 75.7146L251.491 74.8866C254.203 74.9361 256.909 75.0233 259.604 75.1479L259.479 75.9728L260.917 76.0464C264.549 76.2324 268.165 76.4868 271.756 76.8081L273.183 76.9358L273.401 76.1174C276.078 76.3704 278.742 76.6604 281.389 76.9869L281.079 77.7952L282.487 77.9762C286.044 78.433 289.572 78.9563 293.064 79.5445L294.449 79.778L294.851 78.983C297.447 79.4342 300.023 79.9211 302.577 80.4432L302.086 81.2214L303.443 81.5062C306.865 82.2248 310.245 83.0073 313.579 83.8524L314.9 84.1874L315.478 83.4293C317.949 84.0704 320.394 84.7457 322.81 85.4547L322.149 86.1895L323.43 86.5733C326.659 87.5408 329.835 88.5693 332.952 89.6576L334.187 90.0887L334.931 89.3805C337.235 90.2006 339.508 91.0534 341.745 91.9381L340.923 92.6168L342.107 93.0935C345.088 94.294 348.005 95.5524 350.852 96.8672L351.979 97.3876L352.877 96.7415C354.974 97.727 357.033 98.7433 359.051 99.7897L358.082 100.4L359.147 100.962C361.827 102.376 364.432 103.843 366.959 105.364L367.958 105.965L368.995 105.393C370.848 106.528 372.658 107.692 374.422 108.883L373.322 109.415L374.249 110.053C376.579 111.654 378.826 113.306 380.985 115.007L381.837 115.678L382.997 115.19C384.573 116.454 386.102 117.745 387.581 119.062L386.368 119.506L387.142 120.208C389.084 121.971 390.937 123.779 392.694 125.632L393.387 126.362L394.648 125.966C395.92 127.335 397.142 128.728 398.31 130.145L397.008 130.494L397.616 131.248C398.383 132.198 399.126 133.159 399.845 134.13C400.563 135.101 401.252 136.075 401.911 137.052L402.434 137.827L403.773 137.528C404.738 138.994 405.637 140.467 406.47 141.944L405.1 142.192L405.535 142.986C406.638 144.999 407.62 147.021 408.482 149.049L408.826 149.857L410.221 149.66C410.846 151.187 411.404 152.716 411.896 154.246L410.481 154.389L410.731 155.208C411.366 157.283 411.878 159.36 412.27 161.437L412.426 162.264L413.854 162.175C414.125 163.733 414.328 165.291 414.466 166.846L413.03 166.88L413.091 167.711C413.246 169.814 413.279 171.912 413.193 174.004L413.159 174.836L414.595 174.856C414.507 176.419 414.354 177.978 414.135 179.531L412.704 179.456L412.575 180.285C412.249 182.378 411.804 184.46 411.243 186.529L411.02 187.351L412.439 187.48C411.997 189.022 411.491 190.556 410.922 192.081L409.52 191.899L409.204 192.71C408.407 194.758 407.495 196.789 406.47 198.8L406.063 199.597L407.441 199.832C406.655 201.326 405.807 202.809 404.898 204.279L403.548 203.993L403.052 204.774C401.801 206.743 400.439 208.689 398.968 210.607L398.385 211.368L399.7 211.703C398.584 213.125 397.409 214.532 396.176 215.922L394.902 215.538L394.234 216.275C392.552 218.132 390.763 219.959 388.871 221.752L388.122 222.462L389.349 222.893C387.924 224.218 386.442 225.525 384.904 226.811L383.727 226.335L382.899 227.015C380.813 228.729 378.627 230.406 376.343 232.043L375.439 232.69L376.559 233.21C374.847 234.415 373.082 235.599 371.265 236.759L370.206 236.198L369.231 236.81C366.776 238.35 364.228 239.847 361.588 241.299L360.545 241.873L361.537 242.473C359.567 243.537 357.548 244.577 355.48 245.591L354.557 244.955L353.451 245.488C350.672 246.826 347.806 248.117 344.855 249.358L343.69 249.848L344.537 250.517C342.343 251.423 340.104 252.301 337.819 253.15L337.05 252.451L335.831 252.895C332.774 254.011 329.637 255.075 326.423 256.085L325.157 256.483L325.846 257.21Z" stroke="url(#paint0_linear_8338_16384)" stroke-width="2.35563" stroke-linecap="square" stroke-linejoin="round" stroke-dasharray="8.84 8.84"/>
<path id="Ellipse 1221" d="M325.846 257.21C323.471 257.941 321.055 258.643 318.598 259.315L317.992 258.563L316.683 258.913C315.035 259.354 313.369 259.781 311.685 260.194C310.001 260.607 308.312 261.002 306.619 261.381L305.274 261.682L305.795 262.454C303.252 263.009 300.698 263.525 298.137 264.005L297.704 263.215L296.328 263.465C292.836 264.099 289.329 264.664 285.814 265.16L284.413 265.358L284.756 266.162C282.109 266.522 279.457 266.843 276.803 267.126L276.552 266.31L275.131 266.455C271.532 266.82 267.93 267.115 264.328 267.342L262.894 267.432L263.051 268.255C260.348 268.411 257.647 268.529 254.948 268.609L254.885 267.782L253.443 267.817C249.795 267.907 246.154 267.928 242.525 267.88L241.082 267.86L241.051 268.688C238.339 268.639 235.634 268.552 232.938 268.427L233.063 267.602L231.626 267.529C227.993 267.343 224.378 267.088 220.786 266.767L219.36 266.639L219.141 267.458C216.464 267.205 213.8 266.915 211.153 266.588L211.464 265.78L210.055 265.599C206.498 265.142 202.971 264.619 199.479 264.03L198.093 263.797L197.691 264.592C195.095 264.141 192.519 263.654 189.966 263.132L190.456 262.354L189.1 262.069C185.678 261.35 182.297 260.568 178.963 259.723L177.642 259.388L177.065 260.146C174.593 259.505 172.148 258.829 169.732 258.12L170.393 257.386L169.112 257.002C165.883 256.034 162.707 255.006 159.59 253.917L158.355 253.486L157.611 254.195C155.307 253.374 153.034 252.522 150.797 251.637L151.619 250.958L150.435 250.481C147.455 249.281 144.538 248.023 141.69 246.708L140.563 246.187L139.665 246.834C137.568 245.848 135.509 244.832 133.491 243.785L134.46 243.175L133.395 242.613C130.715 241.199 128.11 239.732 125.583 238.211L124.585 237.61L123.547 238.182C121.694 237.047 119.884 235.883 118.12 234.692L119.22 234.16L118.293 233.522C115.963 231.921 113.716 230.269 111.557 228.568L110.705 227.897L109.545 228.385C107.969 227.121 106.44 225.83 104.961 224.513L106.174 224.069L105.4 223.367C103.458 221.604 101.606 219.796 99.8478 217.943L99.1552 217.213L97.8945 217.609C96.622 216.24 95.4004 214.847 94.2317 213.43L95.5345 213.081L94.9256 212.327C94.1588 211.377 93.4159 210.416 92.6974 209.445C91.9789 208.474 91.2903 207.5 90.6314 206.523L90.1082 205.748L88.7689 206.047C87.8042 204.581 86.9055 203.108 86.0719 201.631L87.4421 201.383L87.0073 200.589C85.9038 198.576 84.9221 196.554 84.06 194.526L83.7164 193.718L82.3208 193.915C81.6959 192.388 81.1381 190.859 80.6463 189.329L82.0614 189.186L81.8109 188.367C81.1766 186.292 80.6645 184.215 80.2725 182.138L80.1163 181.311L78.6878 181.4C78.4174 179.842 78.2138 178.284 78.0761 176.729L79.5117 176.695L79.4507 175.864C79.2963 173.761 79.2633 171.663 79.3494 169.571L79.3836 168.739L77.947 168.719C78.0348 167.156 78.1884 165.597 78.4069 164.044L79.8381 164.119L79.9671 163.29C80.293 161.197 80.7379 159.115 81.2994 157.046L81.5224 156.224L80.1027 156.095C80.5447 154.553 81.0509 153.019 81.6204 151.494L83.0226 151.676L83.3383 150.865C84.1351 148.817 85.0473 146.786 86.0726 144.775L86.4794 143.978L85.1007 143.743C85.8868 142.249 86.7349 140.766 87.6443 139.296L88.9937 139.582L89.4897 138.801C90.7409 136.832 92.103 134.886 93.5739 132.968L94.1569 132.207L92.8425 131.872C93.9579 130.45 95.1328 129.043 96.3662 127.653L97.6402 128.037L98.3078 127.3C99.9904 125.443 101.779 123.616 103.671 121.823L104.421 121.113L103.193 120.682C104.618 119.357 106.1 118.05 107.638 116.764L108.815 117.24L109.643 116.56C111.729 114.846 113.915 113.169 116.199 111.532L117.103 110.885L115.983 110.365C117.695 109.16 119.46 107.976 121.277 106.816L122.336 107.377L123.311 106.765C125.766 105.225 128.314 103.728 130.954 102.276L131.997 101.702L131.005 101.102C132.975 100.038 134.994 98.9977 137.063 97.9841L137.985 98.6199L139.091 98.0869C141.87 96.7487 144.736 95.4578 147.687 94.2173L148.853 93.7274L148.005 93.0581C150.199 92.1524 152.438 91.2742 154.723 90.4246L155.492 91.1245L156.711 90.6798C159.768 89.5642 162.905 88.5 166.119 87.49L167.385 87.0921L166.696 86.3648C169.071 85.6337 171.487 84.9318 173.944 84.2603L174.55 85.0117L175.859 84.6618C177.507 84.2212 179.173 83.7942 180.857 83.3813C182.541 82.9684 184.23 82.5726 185.924 82.1939L187.268 81.8931L186.747 81.1209C189.29 80.5664 191.844 80.0497 194.405 79.5705L194.839 80.3604L196.214 80.1104C199.706 79.4759 203.213 78.9112 206.728 78.4152L208.129 78.2175L207.786 77.413C210.433 77.0534 213.085 76.7322 215.739 76.4491L215.99 77.2647L217.411 77.1204C221.01 76.7549 224.612 76.4597 228.214 76.2333L229.649 76.1432L229.491 75.3199C232.194 75.1636 234.895 75.0457 237.594 74.9657L237.657 75.7932L239.099 75.7576C242.747 75.6676 246.388 75.6474 250.017 75.6955L251.46 75.7146L251.491 74.8866C254.203 74.9361 256.909 75.0233 259.604 75.1479L259.479 75.9728L260.917 76.0464C264.549 76.2324 268.165 76.4868 271.756 76.8081L273.183 76.9358L273.401 76.1174C276.078 76.3704 278.742 76.6604 281.389 76.9869L281.079 77.7952L282.487 77.9762C286.044 78.433 289.572 78.9563 293.064 79.5445L294.449 79.778L294.851 78.983C297.447 79.4342 300.023 79.9211 302.577 80.4432L302.086 81.2214L303.443 81.5062C306.865 82.2248 310.245 83.0073 313.579 83.8524L314.9 84.1874L315.478 83.4293C317.949 84.0704 320.394 84.7457 322.81 85.4547L322.149 86.1895L323.43 86.5733C326.659 87.5408 329.835 88.5693 332.952 89.6576L334.187 90.0887L334.931 89.3805C337.235 90.2006 339.508 91.0534 341.745 91.9381L340.923 92.6168L342.107 93.0935C345.088 94.294 348.005 95.5524 350.852 96.8672L351.979 97.3876L352.877 96.7415C354.974 97.727 357.033 98.7433 359.051 99.7897L358.082 100.4L359.147 100.962C361.827 102.376 364.432 103.843 366.959 105.364L367.958 105.965L368.995 105.393C370.848 106.528 372.658 107.692 374.422 108.883L373.322 109.415L374.249 110.053C376.579 111.654 378.826 113.306 380.985 115.007L381.837 115.678L382.997 115.19C384.573 116.454 386.102 117.745 387.581 119.062L386.368 119.506L387.142 120.208C389.084 121.971 390.937 123.779 392.694 125.632L393.387 126.362L394.648 125.966C395.92 127.335 397.142 128.728 398.31 130.145L397.008 130.494L397.616 131.248C398.383 132.198 399.126 133.159 399.845 134.13C400.563 135.101 401.252 136.075 401.911 137.052L402.434 137.827L403.773 137.528C404.738 138.994 405.637 140.467 406.47 141.944L405.1 142.192L405.535 142.986C406.638 144.999 407.62 147.021 408.482 149.049L408.826 149.857L410.221 149.66C410.846 151.187 411.404 152.716 411.896 154.246L410.481 154.389L410.731 155.208C411.366 157.283 411.878 159.36 412.27 161.437L412.426 162.264L413.854 162.175C414.125 163.733 414.328 165.291 414.466 166.846L413.03 166.88L413.091 167.711C413.246 169.814 413.279 171.912 413.193 174.004L413.159 174.836L414.595 174.856C414.507 176.419 414.354 177.978 414.135 179.531L412.704 179.456L412.575 180.285C412.249 182.378 411.804 184.46 411.243 186.529L411.02 187.351L412.439 187.48C411.997 189.022 411.491 190.556 410.922 192.081L409.52 191.899L409.204 192.71C408.407 194.758 407.495 196.789 406.47 198.8L406.063 199.597L407.441 199.832C406.655 201.326 405.807 202.809 404.898 204.279L403.548 203.993L403.052 204.774C401.801 206.743 400.439 208.689 398.968 210.607L398.385 211.368L399.7 211.703C398.584 213.125 397.409 214.532 396.176 215.922L394.902 215.538L394.234 216.275C392.552 218.132 390.763 219.959 388.871 221.752L388.122 222.462L389.349 222.893C387.924 224.218 386.442 225.525 384.904 226.811L383.727 226.335L382.899 227.015C380.813 228.729 378.627 230.406 376.343 232.043L375.439 232.69L376.559 233.21C374.847 234.415 373.082 235.599 371.265 236.759L370.206 236.198L369.231 236.81C366.776 238.35 364.228 239.847 361.588 241.299L360.545 241.873L361.537 242.473C359.567 243.537 357.548 244.577 355.48 245.591L354.557 244.955L353.451 245.488C350.672 246.826 347.806 248.117 344.855 249.358L343.69 249.848L344.537 250.517C342.343 251.423 340.104 252.301 337.819 253.15L337.05 252.451L335.831 252.895C332.774 254.011 329.637 255.075 326.423 256.085L325.157 256.483L325.846 257.21Z" stroke="#43A2F9" stroke-width="2.35563" stroke-linecap="square" stroke-linejoin="round" stroke-dasharray="8.84 8.84"/>
<g id="Ellipse 1220" filter="url(#filter1_d_8338_16384)">
<path d="M179.773 264.206C165.973 260.919 152.759 256.564 140.513 251.141L141.131 250.679C135.229 248.066 129.554 245.203 124.147 242.09C118.74 238.978 113.768 235.711 109.228 232.314L108.425 232.669C99.0049 225.62 91.4399 218.013 85.7301 210.068L86.6667 209.845C80.8557 201.76 76.9772 193.323 75.0314 184.767L74.0264 184.843C72.0561 176.18 72.056 167.396 74.0264 158.733L75.0314 158.809C76.9772 150.253 80.8557 141.816 86.6667 133.731L85.7301 133.508C91.44 125.563 99.0049 117.957 108.425 110.907L109.228 111.263C113.768 107.866 118.741 104.598 124.147 101.486C129.554 98.3734 135.229 95.5106 141.131 92.8974L140.513 92.4349C152.759 87.0122 165.973 82.6573 179.773 79.3703L180.161 79.9095C194.205 76.5643 208.862 74.3316 223.724 73.2114L223.592 72.6329C238.641 71.4986 253.899 71.4986 268.948 72.6329L268.817 73.2114C283.678 74.3315 298.335 76.5643 312.38 79.9095L312.767 79.3703C326.568 82.6573 339.781 87.0122 352.027 92.4349L351.409 92.8974C357.311 95.5106 362.986 98.3733 368.393 101.486C373.8 104.598 378.773 107.865 383.312 111.263L384.115 110.907C393.535 117.957 401.1 125.563 406.81 133.508L405.873 133.731C411.684 141.816 415.563 150.253 417.509 158.809L418.514 158.733C420.484 167.396 420.484 176.18 418.514 184.843L417.509 184.767C415.563 193.323 411.684 201.76 405.873 209.845L406.81 210.068C401.1 218.013 393.535 225.62 384.115 232.669L383.312 232.314C378.773 235.711 373.8 238.978 368.393 242.09C362.986 245.203 357.311 248.066 351.409 250.679L352.027 251.141C339.781 256.564 326.567 260.919 312.767 264.206L312.379 263.667C298.335 267.012 283.678 269.245 268.816 270.365L268.948 270.943C253.899 272.078 238.641 272.078 223.592 270.943L223.724 270.365C208.862 269.245 194.205 267.012 180.161 263.667L179.773 264.206Z" stroke="#1462FB" stroke-width="1.65396" stroke-linejoin="round" stroke-dasharray="39.69 39.69" shape-rendering="crispEdges"/>
</g>
</g>
<g id="Frame 15506">
<g id="Union" style="mix-blend-mode:overlay" filter="url(#filter2_bii_8338_16384)">
<path fill-rule="evenodd" clip-rule="evenodd" d="M168.885 162.018L188.223 173.183L129.953 206.826L71.9364 173.33L91.36 162.116L110.795 173.337C104.974 149.566 117.958 124.429 149.716 106.094C196.721 78.9556 269.122 75.5632 322.246 95.8054L302.24 107.356C260.334 93.1421 205.182 96.4008 169.054 117.259C140.405 133.8 130.916 157.255 140.623 178.335L168.885 162.018ZM323.936 161.822L304.597 150.657L362.868 117.015L420.884 150.51L401.46 161.724L382.025 150.503C387.846 174.274 374.862 199.411 343.105 217.747C296.1 244.885 223.699 248.277 170.574 228.035L190.581 216.485C232.487 230.698 287.638 227.44 323.766 206.581C352.416 190.04 361.904 166.586 352.197 145.506L323.936 161.822Z" fill="white" fill-opacity="0.155"/>
</g>
<path id="Vector" d="M304.327 150.813L323.666 161.979L351.927 145.662C361.635 166.742 352.146 190.197 323.496 206.738C287.369 227.596 232.217 230.855 190.311 216.641L170.305 228.191C223.429 248.434 295.83 245.041 342.835 217.903C374.593 199.568 387.576 174.43 381.755 150.66L401.191 161.881L420.614 150.666L362.598 117.171L304.327 150.813Z" fill="#8A34FC"/>
<path id="Vector_2" d="M187.954 173.34L168.615 162.174L140.354 178.491C130.646 157.411 140.135 133.956 168.785 117.415C204.913 96.5571 260.064 93.2983 301.97 107.512L321.977 95.9616C268.852 75.7195 196.451 79.1119 149.446 106.25C117.688 124.585 104.705 149.723 110.526 173.493L91.0905 162.272L71.6669 173.487L129.683 206.982L187.954 173.34Z" fill="#F05133"/>
</g>
<g id="Frame 15508" style="mix-blend-mode:screen" opacity="0.3" filter="url(#filter3_f_8338_16384)">
<g id="Union_2" style="mix-blend-mode:overlay" filter="url(#filter4_bii_8338_16384)">
<path fill-rule="evenodd" clip-rule="evenodd" d="M168.885 162.018L188.223 173.183L129.953 206.826L71.9364 173.33L91.36 162.116L110.795 173.337C104.974 149.566 117.958 124.429 149.716 106.094C196.721 78.9556 269.122 75.5632 322.246 95.8054L302.24 107.356C260.334 93.1421 205.182 96.4008 169.054 117.259C140.405 133.8 130.916 157.255 140.623 178.335L168.885 162.018ZM323.936 161.822L304.597 150.657L362.868 117.015L420.884 150.51L401.46 161.724L382.025 150.503C387.846 174.274 374.862 199.411 343.105 217.747C296.1 244.885 223.699 248.277 170.574 228.035L190.581 216.485C232.487 230.698 287.638 227.44 323.766 206.581C352.416 190.04 361.904 166.586 352.197 145.506L323.936 161.822Z" fill="white" fill-opacity="0.155"/>
</g>
<path id="Vector_3" d="M304.327 150.813L323.666 161.979L351.927 145.662C361.635 166.742 352.146 190.197 323.496 206.738C287.369 227.596 232.217 230.855 190.311 216.641L170.305 228.191C223.429 248.434 295.83 245.041 342.835 217.903C374.593 199.568 387.576 174.43 381.755 150.66L401.191 161.881L420.614 150.666L362.598 117.171L304.327 150.813Z" fill="#8A34FC"/>
<path id="Vector_4" d="M187.954 173.34L168.615 162.174L140.354 178.491C130.646 157.411 140.135 133.956 168.785 117.415C204.913 96.5571 260.064 93.2983 301.97 107.512L321.977 95.9616C268.852 75.7195 196.451 79.1119 149.446 106.25C117.688 124.585 104.705 149.723 110.526 173.493L91.0905 162.272L71.6669 173.487L129.683 206.982L187.954 173.34Z" fill="#F05133"/>
</g>
<path id="Ellipse 1296" d="M204.925 108.206C204.925 114.625 200.375 120.54 192.792 124.881C185.223 129.214 174.731 131.911 163.113 131.911C151.494 131.911 141.002 129.214 133.434 124.881C125.85 120.54 121.301 114.625 121.301 108.206C121.301 101.788 125.85 95.8727 133.434 91.5314C141.002 87.1988 151.494 84.5019 163.113 84.5019C174.731 84.5019 185.223 87.1988 192.792 91.5314C200.375 95.8727 204.925 101.788 204.925 108.206Z" fill="#0B0115" stroke="#F05133" stroke-width="1.07793"/>
<g id="Frame 915">
<path id="Ellipse 1296_2" d="M375.229 211.416C375.229 217.835 370.68 223.75 363.096 228.091C355.528 232.424 345.036 235.121 333.417 235.121C321.799 235.121 311.307 232.424 303.738 228.091C296.155 223.75 291.605 217.835 291.605 211.416C291.605 204.998 296.155 199.083 303.738 194.741C311.307 190.409 321.799 187.712 333.417 187.712C345.036 187.712 355.528 190.409 363.096 194.741C370.68 199.083 375.229 204.998 375.229 211.416Z" fill="#0B0115" stroke="#8A34FC" stroke-width="1.07793"/>
<path id="Union_3" fill-rule="evenodd" clip-rule="evenodd" d="M332.878 230.435C353.042 230.435 369.388 221.078 369.388 209.535C369.388 209.535 369.388 209.534 369.388 209.534V192.762L354.663 192.762C348.582 190.169 341.043 188.635 332.878 188.635C324.713 188.635 317.173 190.169 311.092 192.762L296.367 192.762V209.534C296.367 209.534 296.367 209.535 296.367 209.535C296.367 221.078 312.714 230.435 332.878 230.435Z" fill="#131215"/>
<ellipse id="Ellipse 1295" cx="332.878" cy="191.475" rx="36.5106" ry="20.9003" fill="#27252A"/>
<g id="Ellipse 1297" filter="url(#filter5_f_8338_16384)">
<ellipse cx="332.878" cy="198.545" rx="36.5106" ry="20.9003" fill="#27252A"/>
</g>
<g id="Vector_5">
<path d="M327.425 188.813C327.425 187.994 328.575 187.33 329.993 187.33L335.824 187.33C337.242 187.33 338.392 187.993 338.392 188.812L338.392 192.179C338.392 192.998 337.242 193.662 335.823 193.662L329.992 193.662C328.574 193.662 327.424 192.998 327.424 192.179L327.425 188.813Z" fill="#A950FF"/>
<path d="M340.83 181.046C340.83 180.242 341.959 179.59 343.353 179.59L349.275 179.59C350.668 179.59 351.798 180.242 351.797 181.046L351.797 184.465C351.797 185.27 350.668 185.922 349.274 185.922L343.352 185.922C341.959 185.922 340.829 185.27 340.83 184.466L340.83 181.046Z" fill="#A950FF"/>
<path d="M314.021 181.048C314.021 180.243 315.15 179.591 316.544 179.591L322.466 179.591C323.859 179.591 324.988 180.243 324.988 181.047L324.988 184.467C324.988 185.271 323.858 185.923 322.465 185.923L316.543 185.923C315.15 185.923 314.02 185.271 314.021 184.467L314.021 181.048Z" fill="#E9C1FF"/>
<path d="M322.42 187.33C323.838 187.33 324.988 187.994 324.988 188.813L324.988 192.179C324.988 192.998 323.838 193.662 322.419 193.662L316.588 193.662C315.17 193.662 314.02 192.998 314.02 192.179L314.021 188.813C314.021 187.994 315.171 187.33 316.589 187.33L322.42 187.33Z" fill="#CD88FF"/>
<path d="M322.464 195.069C323.857 195.069 324.987 195.721 324.987 196.525L324.986 199.945C324.986 200.749 323.857 201.401 322.464 201.401L316.541 201.401C315.148 201.401 314.019 200.749 314.019 199.945L314.019 196.526C314.019 195.721 315.149 195.069 316.542 195.069L322.464 195.069Z" fill="#A950FF"/>
<path d="M335.825 179.59C337.244 179.59 338.393 180.254 338.393 181.073L338.393 184.44C338.393 185.258 337.243 185.922 335.824 185.922L329.994 185.923C328.575 185.923 327.425 185.259 327.425 184.44L327.426 181.074C327.426 180.255 328.576 179.591 329.994 179.591L335.825 179.59Z" fill="#CD88FF"/>
<path d="M346.937 195.282C350.106 195.282 352.675 196.765 352.675 198.595C352.674 200.424 350.105 201.908 346.936 201.908C343.767 201.908 341.198 200.425 341.199 198.595C341.199 196.766 343.768 195.282 346.937 195.282Z" fill="#F62E76"/>
</g>
</g>
<g id="Frame 15507">
<path id="Union_4" fill-rule="evenodd" clip-rule="evenodd" d="M162.772 126.766C182.937 126.766 199.283 117.409 199.283 105.866C199.283 105.866 199.283 105.865 199.283 105.865V89.0926L184.558 89.0926C178.477 86.5002 170.937 84.9658 162.772 84.9658C154.607 84.9658 147.068 86.5002 140.987 89.0926L126.262 89.0926V105.865C126.262 105.865 126.262 105.866 126.262 105.866C126.262 117.409 142.608 126.766 162.772 126.766Z" fill="#131215"/>
<ellipse id="Ellipse 1295_2" cx="162.776" cy="87.8055" rx="36.5106" ry="20.9003" fill="#27252A"/>
<g id="folder" clip-path="url(#clip0_8338_16384)">
<path id="Vector_6" d="M145.604 79.0125L135.301 84.9607C133.395 86.0611 133.395 87.8257 135.301 88.9261L155.906 100.822C156.817 101.348 158.052 101.644 159.34 101.644C160.628 101.644 161.864 101.348 162.775 100.822L190.248 84.9607C191.158 84.4348 191.67 83.7216 191.67 82.9779C191.67 82.2343 191.158 81.5211 190.248 80.9952L173.077 71.0817C171.171 69.9813 168.097 69.9912 166.209 71.0817L152.472 79.0125L145.604 79.0125Z" fill="#F05133"/>
</g>
</g>
<g id="Clone">
<path id="Vector_7" d="M173.852 79.7595L158.994 79.7862C158.138 79.7877 157.442 80.1895 157.439 80.6838L157.43 82.4652L161.343 82.4582C161.646 82.1064 162.272 81.8637 162.997 81.8625C163.727 81.8613 164.354 82.1049 164.651 82.4589L168.423 82.452C168.724 82.097 169.353 81.8509 170.083 81.8499C171.101 81.8481 171.924 82.323 171.921 82.9113C171.918 83.4996 171.09 83.9775 170.071 83.9796C169.305 83.9807 168.648 83.7116 168.373 83.3275L164.854 83.3339L169.469 85.9982C169.655 85.9618 169.854 85.941 170.061 85.9406C171.079 85.9388 171.902 86.4138 171.899 87.0021C171.896 87.59 171.068 88.0683 170.05 88.07C169.031 88.0714 168.208 87.5964 168.211 87.0085C168.212 86.8632 168.263 86.724 168.356 86.5972L163.698 83.9081C163.479 83.9615 163.239 83.9914 162.986 83.9917C162.215 83.9932 161.557 83.721 161.283 83.3338L157.425 83.3405L157.393 89.2227C157.39 89.7171 158.082 90.1165 158.938 90.1149L173.797 90.0881C174.653 90.0866 175.349 89.6849 175.352 89.1905L175.397 80.6517C175.4 80.1575 174.708 79.7579 173.852 79.7595Z" fill="white"/>
</g>
<g id="Frame 15422">
<path id="Vector 99" d="M246.693 192.311C246.988 192.478 247.348 192.477 247.642 192.309L296.931 164.143C297.228 163.974 297.412 163.66 297.415 163.318C297.418 162.977 297.24 162.659 296.946 162.485L247.656 133.146C247.355 132.967 246.981 132.966 246.679 133.143L196.798 162.482C196.503 162.656 196.322 162.975 196.325 163.318C196.328 163.661 196.514 163.977 196.813 164.146L246.693 192.311Z" stroke="#0A91F3" stroke-width="1.92005" stroke-linejoin="round"/>
<g id="Frame 15414">
<path id="Vector 96" d="M248.181 157.183L198.301 129.017L248.181 99.6777L297.471 129.017L248.181 157.183Z" fill="#31A7FF"/>
<path id="Vector 98" d="M247.938 157.045V185.543L198.617 158.656V128.837L247.938 157.045Z" fill="#3075FC"/>
<path id="Vector 97" d="M247.84 156.645V185.343L297.57 156.645V128.896L247.84 156.645Z" fill="#0543BD"/>
<g id="cloud-download" clip-path="url(#clip1_8338_16384)">
<path id="Vector_8" d="M252.437 142.455C249.702 144.034 246.428 144.837 242.613 144.865C238.787 144.885 235.513 144.11 232.79 142.538C230.451 141.187 229.066 139.577 228.634 137.708C228.214 135.831 228.892 134.089 230.667 132.483C228.94 130.682 228.184 128.764 228.4 126.728C228.628 124.699 229.791 122.871 231.89 121.243L246.41 129.626L240.742 129.678L240.742 132.587H255.136V124.276L250.098 124.276L250.008 127.549L235.489 119.166C239.003 117.621 242.961 116.936 247.363 117.109C251.765 117.282 255.556 118.286 258.734 120.121C261.049 119.062 263.664 118.591 266.579 118.709C269.481 118.806 271.964 119.45 274.027 120.641C276.282 121.943 277.41 123.501 277.41 125.315C277.41 127.13 276.282 128.688 274.027 129.99L252.437 142.455Z" fill="white"/>
</g>
<g id="Ellipse 1304" style="mix-blend-mode:overlay" filter="url(#filter6_f_8338_16384)">
<ellipse cx="272.706" cy="133.594" rx="30.0931" ry="30.0931" fill="white" style="mix-blend-mode:lighten"/>
</g>
</g>
</g>
<g id="Ellipse 1303" filter="url(#filter7_f_8338_16384)">
<circle cx="131.867" cy="89.7435" r="30.0931" fill="#F08726" fill-opacity="0.48" style="mix-blend-mode:lighten"/>
</g>
<g id="Ellipse 1304_2" filter="url(#filter8_f_8338_16384)">
<circle cx="345.671" cy="188.634" r="30.0931" fill="#B238EB" fill-opacity="0.21" style="mix-blend-mode:lighten"/>
</g>
</g>
<defs>
<filter id="filter0_f_8338_16384" x="49.4383" y="53.4422" width="163.323" height="163.132" filterUnits="userSpaceOnUse" color-interpolation-filters="sRGB">
<feFlood flood-opacity="0" result="BackgroundImageFix"/>
<feBlend mode="normal" in="SourceGraphic" in2="BackgroundImageFix" result="shape"/>
<feGaussianBlur stdDeviation="24.5933" result="effect1_foregroundBlur_8338_16384"/>
</filter>
<filter id="filter1_d_8338_16384" x="67.585" y="71.7822" width="357.369" height="209.935" filterUnits="userSpaceOnUse" color-interpolation-filters="sRGB">
<feFlood flood-opacity="0" result="BackgroundImageFix"/>
<feColorMatrix in="SourceAlpha" type="matrix" values="0 0 0 0 0 0 0 0 0 0 0 0 0 0 0 0 0 0 127 0" result="hardAlpha"/>
<feOffset dy="4.96187"/>
<feGaussianBlur stdDeviation="2.48093"/>
<feComposite in2="hardAlpha" operator="out"/>
<feColorMatrix type="matrix" values="0 0 0 0 0.432266 0 0 0 0 0.00354165 0 0 0 0 0.846458 0 0 0 1 0"/>
<feBlend mode="screen" in2="BackgroundImageFix" result="effect1_dropShadow_8338_16384"/>
<feBlend mode="normal" in="SourceGraphic" in2="effect1_dropShadow_8338_16384" result="shape"/>
</filter>
<filter id="filter2_bii_8338_16384" x="46.6225" y="57.4965" width="399.575" height="208.848" filterUnits="userSpaceOnUse" color-interpolation-filters="sRGB">
<feFlood flood-opacity="0" result="BackgroundImageFix"/>
<feGaussianBlur in="BackgroundImageFix" stdDeviation="12.6575"/>
<feComposite in2="SourceAlpha" operator="in" result="effect1_backgroundBlur_8338_16384"/>
<feBlend mode="normal" in="SourceGraphic" in2="effect1_backgroundBlur_8338_16384" result="shape"/>
<feColorMatrix in="SourceAlpha" type="matrix" values="0 0 0 0 0 0 0 0 0 0 0 0 0 0 0 0 0 0 127 0" result="hardAlpha"/>
<feOffset dx="-6.84189" dy="6.84189"/>
<feGaussianBlur stdDeviation="3.42094"/>
<feComposite in2="hardAlpha" operator="arithmetic" k2="-1" k3="1"/>
<feColorMatrix type="matrix" values="0 0 0 0 1 0 0 0 0 1 0 0 0 0 1 0 0 0 0.155 0"/>
<feBlend mode="normal" in2="shape" result="effect2_innerShadow_8338_16384"/>
<feColorMatrix in="SourceAlpha" type="matrix" values="0 0 0 0 0 0 0 0 0 0 0 0 0 0 0 0 0 0 127 0" result="hardAlpha"/>
<feOffset dx="6.84189" dy="-6.84189"/>
<feGaussianBlur stdDeviation="3.42094"/>
<feComposite in2="hardAlpha" operator="arithmetic" k2="-1" k3="1"/>
<feColorMatrix type="matrix" values="0 0 0 0 0.76 0 0 0 0 0.76 0 0 0 0 0.76 0 0 0 0.155 0"/>
<feBlend mode="normal" in2="effect2_innerShadow_8338_16384" result="effect3_innerShadow_8338_16384"/>
</filter>
<filter id="filter3_f_8338_16384" x="35.0812" y="32.7765" width="422.388" height="258.444" filterUnits="userSpaceOnUse" color-interpolation-filters="sRGB">
<feFlood flood-opacity="0" result="BackgroundImageFix"/>
<feBlend mode="normal" in="SourceGraphic" in2="BackgroundImageFix" result="shape"/>
<feGaussianBlur stdDeviation="8.62348" result="effect1_foregroundBlur_8338_16384"/>
</filter>
<filter id="filter4_bii_8338_16384" x="46.6225" y="57.4965" width="399.575" height="208.848" filterUnits="userSpaceOnUse" color-interpolation-filters="sRGB">
<feFlood flood-opacity="0" result="BackgroundImageFix"/>
<feGaussianBlur in="BackgroundImageFix" stdDeviation="12.6575"/>
<feComposite in2="SourceAlpha" operator="in" result="effect1_backgroundBlur_8338_16384"/>
<feBlend mode="normal" in="SourceGraphic" in2="effect1_backgroundBlur_8338_16384" result="shape"/>
<feColorMatrix in="SourceAlpha" type="matrix" values="0 0 0 0 0 0 0 0 0 0 0 0 0 0 0 0 0 0 127 0" result="hardAlpha"/>
<feOffset dx="-6.84189" dy="6.84189"/>
<feGaussianBlur stdDeviation="3.42094"/>
<feComposite in2="hardAlpha" operator="arithmetic" k2="-1" k3="1"/>
<feColorMatrix type="matrix" values="0 0 0 0 1 0 0 0 0 1 0 0 0 0 1 0 0 0 0.155 0"/>
<feBlend mode="normal" in2="shape" result="effect2_innerShadow_8338_16384"/>
<feColorMatrix in="SourceAlpha" type="matrix" values="0 0 0 0 0 0 0 0 0 0 0 0 0 0 0 0 0 0 127 0" result="hardAlpha"/>
<feOffset dx="6.84189" dy="-6.84189"/>
<feGaussianBlur stdDeviation="3.42094"/>
<feComposite in2="hardAlpha" operator="arithmetic" k2="-1" k3="1"/>
<feColorMatrix type="matrix" values="0 0 0 0 0.76 0 0 0 0 0.76 0 0 0 0 0.76 0 0 0 0.155 0"/>
<feBlend mode="normal" in2="effect2_innerShadow_8338_16384" result="effect3_innerShadow_8338_16384"/>
</filter>
<filter id="filter5_f_8338_16384" x="283.432" y="164.709" width="98.89" height="67.6712" filterUnits="userSpaceOnUse" color-interpolation-filters="sRGB">
<feFlood flood-opacity="0" result="BackgroundImageFix"/>
<feBlend mode="normal" in="SourceGraphic" in2="BackgroundImageFix" result="shape"/>
<feGaussianBlur stdDeviation="6.46761" result="effect1_foregroundBlur_8338_16384"/>
</filter>
<filter id="filter6_f_8338_16384" x="183.096" y="43.9841" width="179.221" height="179.22" filterUnits="userSpaceOnUse" color-interpolation-filters="sRGB">
<feFlood flood-opacity="0" result="BackgroundImageFix"/>
<feBlend mode="normal" in="SourceGraphic" in2="BackgroundImageFix" result="shape"/>
<feGaussianBlur stdDeviation="29.7585" result="effect1_foregroundBlur_8338_16384"/>
</filter>
<filter id="filter7_f_8338_16384" x="42.2565" y="0.13348" width="179.221" height="179.22" filterUnits="userSpaceOnUse" color-interpolation-filters="sRGB">
<feFlood flood-opacity="0" result="BackgroundImageFix"/>
<feBlend mode="normal" in="SourceGraphic" in2="BackgroundImageFix" result="shape"/>
<feGaussianBlur stdDeviation="29.7585" result="effect1_foregroundBlur_8338_16384"/>
</filter>
<filter id="filter8_f_8338_16384" x="256.061" y="99.0241" width="179.221" height="179.22" filterUnits="userSpaceOnUse" color-interpolation-filters="sRGB">
<feFlood flood-opacity="0" result="BackgroundImageFix"/>
<feBlend mode="normal" in="SourceGraphic" in2="BackgroundImageFix" result="shape"/>
<feGaussianBlur stdDeviation="29.7585" result="effect1_foregroundBlur_8338_16384"/>
</filter>
<linearGradient id="paint0_linear_8338_16384" x1="25.3887" y1="120.599" x2="58.0704" y2="254.094" gradientUnits="userSpaceOnUse">
<stop offset="0.03125" stop-color="#E151F7"/>
<stop offset="0.96875" stop-color="#5C47F5"/>
</linearGradient>
<clipPath id="clip0_8338_16384">
<rect width="47.5849" height="47.5849" fill="white" transform="matrix(0.866025 -0.5 0.866025 0.5 121.566 84.96)"/>
</clipPath>
<clipPath id="clip1_8338_16384">
<rect width="49.8604" height="49.8604" fill="white" transform="matrix(0.866025 -0.5 0.866025 0.5 204.758 128.431)"/>
</clipPath>
</defs>
</svg>
