<svg xmlns="http://www.w3.org/2000/svg" width="667" height="599" viewBox="0 0 667 599" fill="none">
    <g clip-path="url(#clip0_1_2)">
        <g filter="url(#filter0_f_1_2)">
            <path d="M486.994 162.705H-17.883V440.537H486.994V162.705Z" fill="url(#paint0_linear_1_2)"/>
        </g>
        <path d="M170.801 374.537L398.602 239.817L258.832 160.536L29.992 295.077L170.801 374.537Z" stroke="#736BCD" stroke-linecap="round" stroke-linejoin="round" stroke-dasharray="3.66 3.66"/>
        <path d="M259.485 229.544C259.716 229.674 259.998 229.674 260.228 229.542L321.672 194.431C321.904 194.299 322.048 194.053 322.051 193.785C322.053 193.518 321.913 193.269 321.683 193.132L260.24 156.559C260.004 156.418 259.71 156.418 259.474 156.557L197.294 193.13C197.063 193.266 196.921 193.516 196.924 193.785C196.926 194.054 197.072 194.301 197.306 194.433L259.485 229.544Z" stroke="#AA50FF" stroke-width="1.50422" stroke-linejoin="round"/>
        <path d="M261.125 195.086L198.945 159.976L261.125 123.402L322.568 159.976L261.125 195.086Z" fill="#8C49FA"/>
        <path d="M261.125 160.684L198.945 125.573L261.125 89L322.568 125.573L261.125 160.684Z" fill="#231D2C"/>
        <path d="M241.111 112.693C239.555 113.6 238.196 114.539 237.115 115.431C233.929 118.06 234.658 119.291 237.296 120.815L240.781 122.827L249.924 117.548L251.086 118.218L238.511 125.479C235.854 127.013 235.124 129.278 237.435 131.453C240.078 133.948 242.214 135.225 246.727 136.818C250.084 138.006 253.565 138.223 256.222 136.689L259.366 134.874L255.189 132.462C252.171 130.719 252.12 127.675 255.221 125.885L264.354 120.612C266.896 119.144 266.832 116.764 264.279 115.29L255.572 110.263C253.094 108.832 249.143 108.965 246.248 110.158C244.416 110.914 242.667 111.787 241.111 112.693ZM238.969 117.166C239.914 116.621 241.469 116.628 242.433 117.185C243.393 117.739 243.398 118.633 242.454 119.178C241.506 119.725 239.962 119.72 239.001 119.166C238.037 118.609 238.021 117.714 238.969 117.166Z" fill="url(#paint1_linear_1_2)"/>
        <path d="M261.359 112.287L265.419 114.631C268.567 116.449 268.548 119.519 265.504 121.276L256.372 126.549C253.87 127.993 253.941 130.425 256.446 131.871L265.153 136.898C267.631 138.329 271.243 137.926 274.371 136.941C278.116 135.761 281.045 134.248 283.504 131.668C285.139 129.954 286.068 127.87 283.429 126.346L279.944 124.334L270.811 129.607L269.65 128.936L283.354 121.024C286.012 119.49 285.148 117.848 283.29 115.708C281.381 113.503 278.586 111.937 273.998 110.343C270.696 109.195 267.451 108.77 264.79 110.306L261.359 112.287ZM278.271 127.983C279.219 127.435 280.764 127.441 281.724 127.995C282.688 128.552 282.704 129.447 281.756 129.995C280.811 130.54 279.256 130.533 278.292 129.976C277.332 129.422 277.327 128.528 278.271 127.983Z" fill="url(#paint2_linear_1_2)"/>
        <path fill-rule="evenodd" clip-rule="evenodd" d="M260.826 194.915V160.513L199.344 125.35V159.752V162.522V184.557L260.826 220.8V198.764V194.915Z" fill="#1E1926"/>
        <path fill-rule="evenodd" clip-rule="evenodd" d="M260.699 194.418V160.013L322.691 125.423V159.827V160.013V185.056L260.699 220.83V195.788V194.418Z" fill="#130F18"/>
        <path d="M184.103 272.908C184.333 273.039 184.615 273.038 184.846 272.906L246.289 237.796C246.521 237.663 246.666 237.417 246.668 237.149C246.67 236.882 246.53 236.633 246.301 236.496L184.857 199.923C184.621 199.783 184.328 199.782 184.091 199.921L121.912 236.494C121.68 236.631 121.538 236.88 121.541 237.149C121.543 237.418 121.689 237.665 121.923 237.798L184.103 272.908Z" stroke="#AA50FF" stroke-width="1.50422" stroke-linejoin="round"/>
        <path d="M185.742 238.452L123.562 203.341L185.742 166.768L247.185 203.341L185.742 238.452Z" fill="#8C49FA"/>
        <path d="M185.742 204.049L123.562 168.939L185.742 132.365L247.185 168.939L185.742 204.049Z" fill="#231D2C"/>
        <mask id="mask0_1_2" style="mask-type:luminance" maskUnits="userSpaceOnUse" x="131" y="137" width="109" height="63">
            <path d="M185.471 137.151L131.68 168.207L185.471 199.263L239.263 168.207L185.471 137.151Z" fill="white"/>
        </mask>
        <g mask="url(#mask0_1_2)">
            <path fill-rule="evenodd" clip-rule="evenodd" d="M196.285 174.522C185.701 180.633 171.375 182.269 164.287 178.176C157.199 174.084 160.033 165.813 170.616 159.703C181.2 153.592 195.525 151.956 202.614 156.049C209.702 160.141 206.868 168.412 196.285 174.522ZM178.567 160.906C170.523 165.551 167.93 171.584 172.776 174.381C177.621 177.179 188.071 175.682 196.115 171.037C204.159 166.393 207.41 161.415 201.322 157.9C195.236 154.386 186.612 156.262 178.567 160.906Z" fill="url(#paint3_linear_1_2)"/>
            <path fill-rule="evenodd" clip-rule="evenodd" d="M200.516 165.394C200.516 165.394 202.026 164.926 203.04 164.734C203.393 164.667 204.033 164.57 204.635 164.58C205.224 164.591 205.671 164.688 205.671 164.688L217.949 166.498L210.564 170.766L200.622 169.015C200.622 169.015 198.699 168.721 197.911 168.769C197.254 168.809 196.995 168.838 196.636 169.045C196.386 169.19 194.88 170.059 194.88 170.059L203.331 174.936L196.797 178.712L175.213 166.251L188.341 158.671C188.341 158.671 194.428 155.281 200.117 158.566C205.806 161.85 200.516 165.394 200.516 165.394ZM190.445 162.863L186.485 165.146L190.153 167.266L194.111 164.979C194.111 164.979 195.939 163.917 194.078 162.843C192.179 161.747 190.445 162.863 190.445 162.863Z" fill="url(#paint4_linear_1_2)"/>
        </g>
        <path fill-rule="evenodd" clip-rule="evenodd" d="M185.443 238.28V203.877L123.961 168.714V203.116V205.886V227.922L185.443 264.164V242.128V238.28Z" fill="#1E1926"/>
        <path fill-rule="evenodd" clip-rule="evenodd" d="M185.32 237.783V203.379L247.313 168.788V203.193V203.379V228.421L185.32 264.196V239.153V237.783Z" fill="#130F18"/>
        <path d="M364.223 341.76L297.699 300" stroke="#736BCD" stroke-width="2" stroke-linecap="round" stroke-linejoin="round"/>
        <path d="M366.19 337.084L369.594 344.418L356.891 342.453L366.19 337.084Z" fill="#736BCD" stroke="#736BCD"/>
        <g filter="url(#filter1_f_1_2)">
            <path d="M238.455 89.297H360.961V260.454H238.455V89.297Z" fill="url(#paint5_linear_1_2)"/>
        </g>
        <path d="M336.718 203.409L274.539 168.298L336.718 131.725L398.162 168.298L336.718 203.409Z" fill="#231D2C"/>
        <path d="M336.194 173.988L326.034 175.286L324.198 174.226L326.445 168.359L328.882 169.767L327.3 173.458L327.363 173.495L333.757 172.581L336.194 173.988ZM341.601 174.229L333.055 163.264L335.302 161.967L343.848 172.932L341.601 174.229ZM348.654 166.795L346.216 165.388L347.799 161.696L347.736 161.659L341.342 162.573L338.904 161.166L349.065 159.868L350.901 160.928L348.654 166.795Z" fill="white"/>
        <path fill-rule="evenodd" clip-rule="evenodd" d="M336.419 237.64V203.238L274.938 168.074V202.477V205.246V227.282L336.419 263.524V241.488V237.64Z" fill="#1E1926"/>
        <path fill-rule="evenodd" clip-rule="evenodd" d="M336.293 237.144V202.739L398.285 168.148V202.553V202.739V227.781L336.293 263.556V238.513V237.144Z" fill="#130F18"/>
        <path d="M259.457 282.413L197.277 247.302L259.457 210.729L320.9 247.302L259.457 282.413Z" fill="#8C49FA"/>
        <path d="M259.457 248.01L197.277 212.9L259.457 176.326L320.9 212.9L259.457 248.01Z" fill="#231D2C"/>
        <mask id="mask1_1_2" style="mask-type:luminance" maskUnits="userSpaceOnUse" x="205" y="181" width="108" height="63">
            <path d="M259.186 181.112L205.395 212.168L259.186 243.224L312.978 212.168L259.186 181.112Z" fill="white"/>
        </mask>
        <g mask="url(#mask1_1_2)">
            <path fill-rule="evenodd" clip-rule="evenodd" d="M264.633 221.12C264.633 221.12 264.021 222.457 266.815 221.176C270.199 219.623 271.701 218.698 274.415 216.401C274.415 216.401 275.848 216.21 277.554 215.776C273.266 221.964 260.387 225.473 264.633 221.12Z" fill="#0074BD"/>
            <path fill-rule="evenodd" clip-rule="evenodd" d="M259.52 219.227C259.52 219.227 259.094 220.877 261.861 219.579C265.441 217.899 268.03 216.436 271.611 213.383C271.611 213.383 272.845 213.388 274.148 213.028C267.731 219.797 255.184 224.218 259.52 219.227Z" fill="#0074BD"/>
            <path fill-rule="evenodd" clip-rule="evenodd" d="M260.131 210.655C264.11 210.817 263.69 213.27 263.69 213.27C263.69 213.27 265.961 209.161 260.77 208.653C255.927 208.182 252.977 208.262 256.488 200.638C256.488 200.638 246.644 210.104 260.131 210.655Z" fill="#EA2D2E"/>
            <path fill-rule="evenodd" clip-rule="evenodd" d="M284.472 213.25C284.472 213.25 286.449 213.14 284.863 214.854C281.844 218.111 268.545 226.246 263.086 227.487C261.125 227.932 262.863 225.976 263.496 225.41C264.155 224.819 264.668 224.561 264.668 224.561C262.077 224.821 256.942 231.45 263.462 228.737C281.239 221.337 290.23 211.993 284.472 213.25Z" fill="#0074BD"/>
            <path fill-rule="evenodd" clip-rule="evenodd" d="M256.794 215.781C256.794 215.781 251.484 220.758 256.584 218.508C258.738 217.557 262.465 215.338 265.698 213.13C268.339 211.325 270.715 209.356 270.715 209.356C270.715 209.356 270.135 210.194 269.901 210.909C264.688 216.067 250.157 223.456 252.189 220.086C253.906 217.237 256.794 215.781 256.794 215.781Z" fill="#0074BD"/>
            <path fill-rule="evenodd" clip-rule="evenodd" d="M276.274 212.599C279.729 206.29 272.813 206.137 270.976 207.756C270.527 208.152 270.375 208.358 270.375 208.358C270.375 208.358 270.255 208.045 270.515 207.73C273.493 204.148 283.397 205.79 276.319 212.791C276.319 212.791 276.329 212.669 276.274 212.599Z" fill="#0074BD"/>
            <path fill-rule="evenodd" clip-rule="evenodd" d="M243.859 198.889C243.859 198.889 251.825 198.891 250.19 206.907C248.882 213.337 256.487 212.18 261.106 213.211C254.196 213.417 248.647 213.289 247.749 210.707C246.433 206.917 251.793 201.615 243.859 198.889Z" fill="#EA2D2E"/>
            <path fill-rule="evenodd" clip-rule="evenodd" d="M274.611 225.251C281.954 221.522 291.867 215.005 288.852 212.975C288.852 212.975 289.608 213.968 285.369 217.55C280.587 221.591 273.191 225.712 268.171 227.789C268.171 227.789 269.784 227.701 274.611 225.251Z" fill="#0074BD"/>
        </g>
        <path fill-rule="evenodd" clip-rule="evenodd" d="M259.158 282.242V247.839L197.676 212.676V247.078V249.848V271.884L259.158 308.126V286.09V282.242Z" fill="#1E1926"/>
        <path fill-rule="evenodd" clip-rule="evenodd" d="M259.031 281.745V247.34L321.023 212.75V247.155V247.34V272.383L259.031 308.158V283.115V281.745Z" fill="#130F18"/>
        <path d="M170.593 299.598V362.465L246.859 317.508V255.979L170.593 299.598Z" fill="#130F18"/>
        <path d="M170.746 298.979V361.394L31.167 282.568V221.622L170.746 298.979Z" fill="#1E1926"/>
        <path d="M170.219 299.242L246.35 256.253L107.291 176.728L32.055 221.512L170.219 299.242Z" fill="#231D2C" stroke="url(#paint6_linear_1_2)" stroke-width="0.989688"/>
        <g style="mix-blend-mode:multiply" filter="url(#filter2_f_1_2)">
            <g style="mix-blend-mode:lighten">
                <path d="M208.731 326.55C236.307 326.55 258.661 304.196 258.661 276.62C258.661 249.044 236.307 226.69 208.731 226.69C181.155 226.69 158.801 249.044 158.801 276.62C158.801 304.196 181.155 326.55 208.731 326.55Z" fill="#9C84FF"/>
            </g>
        </g>
        <path d="M134.894 235.886C134.894 234.84 136.363 233.992 138.176 233.992H145.627C147.439 233.992 148.909 234.84 148.909 235.886V240.188C148.909 241.235 147.439 242.083 145.627 242.083H138.176C136.363 242.083 134.894 241.235 134.894 240.188V235.886Z" fill="#A950FF"/>
        <path d="M152.023 225.962C152.023 224.935 153.466 224.102 155.246 224.102H162.815C164.595 224.102 166.038 224.935 166.038 225.962V230.332C166.038 231.36 164.595 232.193 162.815 232.193H155.246C153.466 232.193 152.023 231.36 152.023 230.332V225.962Z" fill="#A950FF"/>
        <path d="M117.764 225.963C117.764 224.935 119.207 224.102 120.987 224.102H128.556C130.336 224.102 131.779 224.935 131.779 225.963V230.332C131.779 231.36 130.336 232.193 128.556 232.193H120.987C119.207 232.193 117.764 231.36 117.764 230.332V225.963Z" fill="#E9C1FF"/>
        <path d="M128.498 233.991C130.311 233.991 131.78 234.839 131.78 235.886V240.188C131.78 241.234 130.311 242.083 128.498 242.083H121.047C119.234 242.083 117.765 241.234 117.765 240.188V235.886C117.765 234.839 119.234 233.991 121.047 233.991H128.498Z" fill="#CD88FF"/>
        <path d="M128.556 243.881C130.336 243.881 131.779 244.714 131.779 245.742V250.111C131.779 251.139 130.336 251.972 128.556 251.972H120.987C119.207 251.972 117.764 251.139 117.764 250.111V245.742C117.764 244.714 119.207 243.881 120.987 243.881H128.556Z" fill="#A950FF"/>
        <path d="M145.627 224.102C147.44 224.102 148.909 224.95 148.909 225.997V230.298C148.909 231.345 147.44 232.193 145.627 232.193H138.176C136.363 232.193 134.894 231.345 134.894 230.298V225.997C134.894 224.95 136.363 224.102 138.176 224.102H145.627Z" fill="#CD88FF"/>
        <path d="M159.829 244.154C163.879 244.154 167.161 246.05 167.161 248.388C167.161 250.726 163.879 252.621 159.829 252.621C155.78 252.621 152.497 250.726 152.497 248.388C152.497 246.05 155.78 244.154 159.829 244.154Z" fill="#F62E76"/>
        <path d="M476.548 456.81C476.854 456.983 477.23 456.982 477.535 456.807L575.781 400.667C576.09 400.49 576.281 400.163 576.285 399.807C576.288 399.452 576.102 399.121 575.796 398.939L477.551 340.46C477.237 340.273 476.847 340.272 476.532 340.457L377.11 398.937C376.802 399.118 376.614 399.45 376.617 399.807C376.62 400.165 376.814 400.493 377.125 400.669L476.548 456.81Z" stroke="#736BCD" stroke-width="2" stroke-linejoin="round"/>
        <g filter="url(#filter3_d_1_2)">
            <path d="M426.058 400.678C412.866 393.062 405.455 382.733 405.455 371.962C405.455 361.191 412.866 350.862 426.058 343.246L475.8 314.53L525.542 343.246C538.734 350.862 546.146 361.191 546.146 371.962C546.146 382.733 538.734 393.062 525.542 400.678C512.35 408.294 494.457 412.572 475.8 412.572C457.143 412.572 439.251 408.294 426.058 400.678Z" fill="#5A3ABC"/>
        </g>
        <path d="M475.997 377.905V439.289L377.332 381.128V321.476L475.997 377.905Z" fill="#1E1926"/>
        <path d="M475.801 377.105V438.592L575.285 381.182V321.595L475.801 377.105Z" fill="#130F18"/>
        <path d="M476.478 377.444L377.977 321.824L476.478 263.887L573.812 321.824L476.478 377.444Z" fill="#231D2C" stroke="url(#paint7_linear_1_2)" stroke-width="1.28034"/>
        <mask id="mask2_1_2" style="mask-type:luminance" maskUnits="userSpaceOnUse" x="417" y="286" width="121" height="70">
            <path d="M477.452 286.128L417.637 320.662L477.452 355.196L537.266 320.662L477.452 286.128Z" fill="white"/>
        </mask>
        <g mask="url(#mask2_1_2)">
            <path d="M511.844 323.828C513.838 326.13 513.09 328.864 509.85 330.735L484.928 345.124C480.691 347.57 474.211 347.57 469.974 345.124L467.482 343.685L474.959 339.368L497.888 326.13C501.875 327.281 506.611 326.849 509.85 324.979L511.844 323.828ZM469.974 296.201C474.211 293.754 480.691 293.754 484.928 296.201L487.42 297.639L482.435 300.517L479.943 299.078C478.448 298.215 476.454 298.215 474.959 299.078C473.463 299.942 473.463 301.093 474.959 301.956L507.358 320.662L504.866 322.101C503.371 322.964 501.377 322.964 499.881 322.101L497.389 320.662L469.974 336.49L442.559 320.662C438.322 318.216 438.322 314.475 442.559 312.029L469.974 296.201ZM452.528 317.784L457.513 320.662L474.959 310.59L469.974 307.712L452.528 317.784ZM462.497 323.54L467.482 326.418L482.435 317.784L477.451 314.906L462.497 323.54Z" fill="#CDD5EF"/>
        </g>
    </g>
    <defs>
        <filter id="filter0_f_1_2" x="-197.883" y="-17.295" width="864.877" height="637.832" filterUnits="userSpaceOnUse" color-interpolation-filters="sRGB">
            <feFlood flood-opacity="0" result="BackgroundImageFix"/>
            <feBlend mode="normal" in="SourceGraphic" in2="BackgroundImageFix" result="shape"/>
            <feGaussianBlur stdDeviation="90" result="effect1_foregroundBlur_1_2"/>
        </filter>
        <filter id="filter1_f_1_2" x="108.455" y="-40.703" width="382.506" height="431.157" filterUnits="userSpaceOnUse" color-interpolation-filters="sRGB">
            <feFlood flood-opacity="0" result="BackgroundImageFix"/>
            <feBlend mode="normal" in="SourceGraphic" in2="BackgroundImageFix" result="shape"/>
            <feGaussianBlur stdDeviation="65" result="effect1_foregroundBlur_1_2"/>
        </filter>
        <filter id="filter2_f_1_2" x="60.0516" y="127.941" width="297.359" height="297.359" filterUnits="userSpaceOnUse" color-interpolation-filters="sRGB">
            <feFlood flood-opacity="0" result="BackgroundImageFix"/>
            <feBlend mode="normal" in="SourceGraphic" in2="BackgroundImageFix" result="shape"/>
            <feGaussianBlur stdDeviation="49.3747" result="effect1_foregroundBlur_1_2"/>
        </filter>
        <filter id="filter3_d_1_2" x="309.045" y="226.139" width="333.511" height="290.862" filterUnits="userSpaceOnUse" color-interpolation-filters="sRGB">
            <feFlood flood-opacity="0" result="BackgroundImageFix"/>
            <feColorMatrix in="SourceAlpha" type="matrix" values="0 0 0 0 0 0 0 0 0 0 0 0 0 0 0 0 0 0 127 0" result="hardAlpha"/>
            <feOffset dy="8.01856"/>
            <feGaussianBlur stdDeviation="48.205"/>
            <feComposite in2="hardAlpha" operator="out"/>
            <feColorMatrix type="matrix" values="0 0 0 0 0.352941 0 0 0 0 0.227451 0 0 0 0 0.737255 0 0 0 1 0"/>
            <feBlend mode="normal" in2="BackgroundImageFix" result="effect1_dropShadow_1_2"/>
            <feBlend mode="normal" in="SourceGraphic" in2="effect1_dropShadow_1_2" result="shape"/>
        </filter>
        <linearGradient id="paint0_linear_1_2" x1="343.794" y1="241.959" x2="151.386" y2="310.388" gradientUnits="userSpaceOnUse">
            <stop stop-color="#590CFF"/>
            <stop offset="0.585" stop-color="#7D17FF" stop-opacity="0"/>
        </linearGradient>
        <linearGradient id="paint1_linear_1_2" x1="222.383" y1="123.506" x2="274.487" y2="116.243" gradientUnits="userSpaceOnUse">
            <stop stop-color="#5A9FD4"/>
            <stop offset="1" stop-color="#306998"/>
        </linearGradient>
        <linearGradient id="paint2_linear_1_2" x1="279.496" y1="128.943" x2="262.268" y2="123.957" gradientUnits="userSpaceOnUse">
            <stop stop-color="#FFD43B"/>
            <stop offset="1" stop-color="#FFE873"/>
        </linearGradient>
        <linearGradient id="paint3_linear_1_2" x1="151.453" y1="170.767" x2="215.017" y2="184.993" gradientUnits="userSpaceOnUse">
            <stop stop-color="#CBCED0"/>
            <stop offset="1" stop-color="#84838B"/>
        </linearGradient>
        <linearGradient id="paint4_linear_1_2" x1="175.213" y1="166.251" x2="217.935" y2="165.503" gradientUnits="userSpaceOnUse">
            <stop stop-color="#276DC3"/>
            <stop offset="1" stop-color="#165CAA"/>
        </linearGradient>
        <linearGradient id="paint5_linear_1_2" x1="299.708" y1="89.297" x2="299.708" y2="260.454" gradientUnits="userSpaceOnUse">
            <stop stop-color="#6218FF" stop-opacity="0"/>
            <stop offset="1" stop-color="#6117FF"/>
        </linearGradient>
        <linearGradient id="paint6_linear_1_2" x1="84.785" y1="207.28" x2="218.901" y2="200.513" gradientUnits="userSpaceOnUse">
            <stop offset="0.015625" stop-color="#B010FB"/>
            <stop offset="0.130208" stop-color="#DE97FF"/>
            <stop offset="0.234375" stop-color="#A227DB"/>
            <stop offset="0.505208" stop-color="#A227DB" stop-opacity="0"/>
            <stop offset="0.765625" stop-color="#A610EC" stop-opacity="0.84"/>
        </linearGradient>
        <linearGradient id="paint7_linear_1_2" x1="201.882" y1="279.197" x2="487.499" y2="548.294" gradientUnits="userSpaceOnUse">
            <stop offset="0.015625" stop-color="#F3F2F2"/>
            <stop offset="0.130108" stop-color="#ECECEC"/>
            <stop offset="0.130208" stop-color="#F7F7F7"/>
            <stop offset="0.234375" stop-color="#444444"/>
            <stop offset="0.505208" stop-color="#B0B0B0"/>
            <stop offset="0.765625" stop-color="#685C5A"/>
        </linearGradient>
        <clipPath id="clip0_1_2">
            <rect width="667" height="599" fill="white"/>
        </clipPath>
    </defs>
</svg>
