<svg width="160" height="58" viewBox="0 0 160 58" fill="none" xmlns="http://www.w3.org/2000/svg">
<path d="M15.6442 20.147H15.3346L7.11353 37.8434H9.11719L15.4034 23.9989L21.8873 37.8434H23.7534L15.6442 20.147Z" fill="#09426A"/>
<path d="M37.4179 21.7102C40.1009 21.7102 42.4486 23.1784 43.7041 25.3548L45.1488 24.5171C43.6095 21.8397 40.7201 20.0347 37.4179 20.0347C32.4904 20.0347 28.4917 24.0507 28.4917 28.9995C28.4917 33.9483 32.4904 37.9644 37.4179 37.9644C40.7201 37.9644 43.6009 36.1593 45.1488 33.4819L43.7041 32.6442C42.4486 34.8206 40.1009 36.2888 37.4179 36.2888C33.4106 36.2888 30.16 33.0242 30.16 28.9995C30.16 24.9748 33.4106 21.7102 37.4179 21.7102Z" fill="#09426A"/>
<path d="M78.8843 20.242H77.0096V37.7571H78.8843V20.242Z" fill="#09426A"/>
<path d="M97.0635 20.0347C92.136 20.0347 88.1373 24.0507 88.1373 28.9995C88.1373 33.9483 92.136 37.9644 97.0635 37.9644C101.991 37.9644 105.99 33.9483 105.99 28.9995C105.981 24.0507 101.991 20.0347 97.0635 20.0347ZM97.0635 36.2888C93.0562 36.2888 89.8056 33.0242 89.8056 28.9995C89.8056 24.9748 93.0562 21.7102 97.0635 21.7102C101.071 21.7102 104.321 24.9748 104.321 28.9995C104.321 33.0242 101.071 36.2888 97.0635 36.2888Z" fill="#09426A"/>
<path d="M128.649 20.242L121.305 28.4122L113.961 20.242H113.506V37.7571H115.251V25.9335C115.251 25.804 115.243 25.6658 115.243 25.5276V24.4307L116.292 25.5621C116.3 25.5708 116.3 25.5708 116.309 25.5794L117.513 26.8749L117.711 27.0908L121.314 30.9687L126.319 25.5794C126.809 24.9835 127.523 23.9557 127.523 23.9557C127.523 23.9557 127.368 25.1908 127.368 25.9421V37.7657H129.114V20.242H128.649Z" fill="#09426A"/>
<path d="M69.6485 37.9644L64.9876 30.5887L62.7346 34.147L61.7629 35.6929L63.199 37.9644H69.6485Z" fill="#09426A"/>
<path d="M63.199 20.0347L61.7629 22.3061L62.7346 23.8434L63.7837 25.5103L64.9876 27.4104L69.6485 20.0347H63.199Z" fill="#09426A"/>
<path d="M54.6941 14.9995H46.5677L55.4165 28.9995L46.5677 42.9995H54.6941L63.5343 28.9995L54.6941 14.9995Z" fill="#00A0DD"/>
</svg>
