<svg width="160" height="58" viewBox="0 0 160 58" fill="none" xmlns="http://www.w3.org/2000/svg">
<g clip-path="url(#clip0_17042_11416)">
<path d="M18.3778 36.4958C18.272 36.4958 18.1838 36.4958 18.0781 36.5111C17.655 36.5273 17.2308 36.5273 16.8077 36.5111C16.7195 36.5111 16.6138 36.5111 16.5256 36.4958C16.4541 36.4652 16.3835 36.4958 16.313 36.4652C15.5292 36.41 14.7669 36.2158 14.073 35.8946C13.6312 35.6786 13.2434 35.4005 12.8369 35.1233C12.5189 34.9204 12.2126 34.7041 11.9191 34.4753C11.6184 34.2593 11.3187 34.0433 11.0013 33.8111L10.0483 33.1181C9.8191 32.9471 9.58992 32.7626 9.35969 32.5925C9.02473 32.3306 8.68977 32.084 8.35377 31.8212C8.28325 31.76 8.21273 31.6979 8.14221 31.652C8.77792 31.2506 9.44888 30.9266 10.207 30.7718C10.9121 30.6332 11.5655 30.6953 12.2012 31.0652C13.6136 31.8986 15.1671 32.3459 16.8958 32.3153C18.3425 32.2838 19.6844 31.8986 20.9019 31.22C21.8726 30.6953 22.7375 30.0626 23.6376 29.4452C24.8068 28.6528 25.9718 27.8557 27.1324 27.0539C27.1843 27.0233 27.2372 26.9765 27.3253 26.9C23.8668 26.9306 20.4601 26.8685 17.0369 26.7758C17.1613 26.6372 17.3013 26.5598 17.4424 26.468C18.3964 25.8038 19.4895 25.4645 20.6551 25.2026C23.3721 24.5852 26.1078 24.092 28.8612 23.6132C30.2373 23.3819 31.6135 23.1353 32.9907 22.904C33.0676 22.8857 33.1396 22.8542 33.2022 22.8113C35.0201 21.5459 36.8381 20.2958 38.6373 19.016C39.7677 18.2132 40.897 17.4113 42.1674 16.7633C43.0852 16.2998 44.0548 15.8993 45.1147 15.7445C45.1323 15.7445 45.1499 15.7292 45.1499 15.7139H46.2087C46.2969 15.8066 46.4379 15.776 46.5437 15.8219C47.4086 16.0685 47.9385 16.5932 48.3087 17.288C48.3969 17.4572 48.4498 17.6273 48.5203 17.7965C48.5732 17.9045 48.5379 17.9972 48.4321 18.0746C48.009 18.3833 47.5849 18.7073 47.1618 19.016C46.5966 19.4318 46.0314 19.8485 45.4673 20.2499C44.6915 20.8052 43.9148 21.3758 43.1204 21.932C42.379 22.472 41.6375 23.012 40.8794 23.552C40.0321 24.1532 39.2025 24.7553 38.3553 25.3565C37.5785 25.9118 36.8028 26.4518 36.0084 27.008C35.1612 27.6092 34.2973 28.196 33.449 28.7972C32.4784 29.4758 31.4901 30.1553 30.5018 30.8186C28.5428 32.1452 26.5849 33.4718 24.5544 34.7066C23.901 35.1071 23.1782 35.3852 22.4367 35.6318C21.5553 35.9252 20.6551 36.1412 19.7373 36.2798C19.3661 36.3419 18.9782 36.3878 18.607 36.4193C18.5551 36.4958 18.4473 36.4499 18.3778 36.4958ZM115.582 24.4934C116.182 24.5699 116.765 24.6779 117.276 25.0172C117.647 25.2647 117.876 25.5734 118 25.9586C118.017 26.0207 118.017 26.0819 118.088 26.1287V26.8694C118.07 26.8694 118.053 26.8847 118.053 26.8847C117.964 27.2852 117.647 27.548 117.346 27.8252L114.276 30.6962C113.518 31.4054 112.759 32.1299 111.982 32.84L111.24 33.5339C111.311 33.596 111.381 33.5654 111.453 33.5654H117.364C117.524 33.5654 117.612 33.596 117.629 33.7346L117.788 34.5221C117.806 34.7993 117.806 35.0927 117.788 35.3699C117.735 35.648 117.7 35.9414 117.629 36.2186C117.594 36.3419 117.541 36.3734 117.399 36.3734C114.647 36.3734 111.876 36.3734 109.124 36.3581H109.052C108.982 36.3266 108.911 36.3581 108.841 36.3266C108.258 36.2807 107.694 36.188 107.164 35.9873C106.441 35.7101 105.893 35.2781 105.77 34.5374C105.752 34.404 105.752 34.2693 105.77 34.136C105.84 33.6266 106.14 33.2252 106.547 32.84C107.005 32.4233 107.447 31.9913 107.905 31.5593C108.453 31.0499 108.982 30.5414 109.529 30.0473C109.952 29.6621 110.376 29.2607 110.8 28.8746C111.223 28.4741 111.647 28.0574 112.088 27.6713C112.211 27.548 112.334 27.4247 112.476 27.2861C112.405 27.2393 112.317 27.2699 112.246 27.2699H106.793C106.369 27.2699 106.334 27.2393 106.299 26.8694L106.247 26.4527C106.211 26.3753 106.264 26.2979 106.211 26.2214V25.496C106.264 25.4186 106.211 25.3421 106.246 25.2647C106.281 25.0181 106.316 24.7859 106.387 24.5393C106.423 24.4313 106.476 24.416 106.563 24.416H115.176C115.317 24.5087 115.459 24.4619 115.582 24.4934ZM65.339 33.9506C65.339 34.5527 65.7455 34.9379 66.4154 34.9847C66.3978 35.1233 66.3096 35.2313 66.2391 35.3393C65.7621 36.0647 65.0216 36.4346 64.1028 36.5732C63.9452 36.6047 63.8041 36.6047 63.6455 36.62C63.5047 36.6355 63.3621 36.6355 63.2213 36.62C62.763 36.6047 62.3212 36.5579 61.8981 36.3887C61.4034 36.188 61.0508 35.8793 60.8569 35.4473C60.7661 35.2509 60.7183 35.0415 60.7158 34.8299C60.6972 34.7525 60.6972 34.676 60.6972 34.6139V27.3473C60.6972 27.2699 60.7148 27.1925 60.6795 27.1313C60.6453 26.684 60.5385 26.2673 60.0096 26.0666C59.9215 26.036 59.8333 25.9892 59.7628 26.0045C59.5326 26.0207 59.6031 25.8812 59.6384 25.8047C59.7628 25.5887 59.9038 25.388 60.0801 25.2179C60.609 24.6932 61.2976 24.4619 62.0744 24.3692C62.1625 24.3386 62.2507 24.3845 62.3388 24.3386H62.8335C62.9216 24.3845 63.0274 24.3386 63.1332 24.3692C63.6102 24.4466 64.0686 24.524 64.4564 24.7706C65.0216 25.1252 65.2332 25.6346 65.2861 26.2205V26.5292C66.2391 25.4492 67.2979 24.5852 68.8867 24.3692C68.9748 24.3386 69.063 24.3845 69.1511 24.3386H69.68C69.7868 24.3845 69.9102 24.3386 70.0326 24.3692C70.5449 24.4466 71.0572 24.5087 71.5156 24.7859C71.9221 25.0325 72.116 25.388 72.2041 25.8047C72.2394 26.0207 72.2394 26.2367 72.2394 26.4527C72.2041 26.5139 72.2394 26.576 72.2041 26.6372C72.116 27.0845 72.0102 27.5165 71.7634 27.9179C71.445 28.4273 71.0043 28.7513 70.2981 28.6586C70.016 28.628 69.7515 28.5353 69.4684 28.4579C69.1954 28.4006 68.9182 28.3594 68.6388 28.3346C68.5683 28.304 68.4978 28.3346 68.4273 28.304C67.7221 28.2572 67.0335 28.304 66.3801 28.5506C65.8336 28.7666 65.3566 29.2445 65.3224 29.8772C65.2861 29.9393 65.3224 30.0005 65.2861 30.0626C65.2861 30.7412 65.2861 31.4207 65.2684 32.1146V33.704C65.3566 33.7652 65.3037 33.8579 65.339 33.9506ZM42.2555 24.4619C42.4837 24.3071 42.6963 24.1379 42.9255 23.9831L43.808 23.3504C44.0911 23.1497 44.3732 22.9337 44.6553 22.7177C45.0431 22.4405 45.432 22.1777 45.8022 21.9005C46.1548 21.6224 46.5261 21.3758 46.8787 21.1139C47.2499 20.8358 47.6201 20.5892 47.9904 20.3111C48.1324 20.2184 48.2558 20.1104 48.3793 20.0024C48.4145 19.9718 48.4498 19.9259 48.5203 19.9412C48.5732 19.9565 48.5555 20.0177 48.5555 20.0492V33.6419C48.5555 33.8885 48.5555 34.1351 48.6437 34.3664C48.7847 34.7831 49.0844 34.9838 49.5791 35.0297C49.2784 35.6318 48.1138 36.5264 46.5261 36.5885C46.3852 36.6039 46.2427 36.6039 46.1019 36.5885C45.573 36.5885 45.0618 36.4958 44.6024 36.2645C44.0735 36.0026 43.7022 35.6165 43.5788 35.0765C43.4907 34.7678 43.5435 34.4591 43.5435 34.1504C43.5259 33.7184 43.5259 33.3026 43.5259 32.8706C43.4907 32.7932 43.5083 32.7311 43.5083 32.6546V25.6499C43.5083 25.5725 43.5259 25.4951 43.4907 25.4339C43.4378 25.1099 43.2791 24.8318 42.9255 24.6617C42.7492 24.5852 42.5905 24.5078 42.3966 24.5078C42.3613 24.4925 42.2555 24.5537 42.2555 24.4619ZM57.221 34.0127C57.2563 34.5365 57.556 34.8767 58.1025 34.9532C58.2788 34.9847 58.2975 35.0153 58.2093 35.1539C57.7499 35.9567 56.9908 36.404 55.9849 36.5579C55.8086 36.5894 55.6323 36.5894 55.4736 36.6047C55.3331 36.62 55.191 36.62 55.0505 36.6047C54.6087 36.6047 54.168 36.5273 53.7615 36.3725C53.021 36.0953 52.6674 35.5715 52.5792 34.892C52.5616 34.8146 52.5616 34.7372 52.5616 34.676V27.4094C52.5616 27.332 52.5792 27.2546 52.544 27.1934C52.5087 26.8379 52.4735 26.4833 52.1561 26.2214C51.9975 26.0819 51.7849 26.0207 51.5733 25.9892C51.4499 25.9586 51.4147 25.9433 51.4675 25.8353C51.6262 25.5266 51.8554 25.28 52.1209 25.0325C52.6321 24.5852 53.2678 24.4313 53.9388 24.3395C54.027 24.308 54.1151 24.3539 54.2033 24.308H54.6969C54.785 24.3539 54.8918 24.308 54.9976 24.3386C55.4384 24.416 55.8615 24.4934 56.2504 24.7094C56.6911 24.956 56.9379 25.3106 57.08 25.7426C57.0976 25.8047 57.1152 25.8659 57.1318 25.9433C57.1681 26.0054 57.1318 26.0819 57.1681 26.144V33.6572C57.1681 33.7193 57.1858 33.7805 57.1858 33.8426C57.221 33.8894 57.1681 33.9659 57.221 34.0127ZM39.5032 27.7172C39.8735 27.8099 40.2261 27.9332 40.5268 28.1492C40.9499 28.4732 41.1615 28.8746 41.2496 29.3525C41.2672 29.4911 41.2672 29.6153 41.2496 29.7539C41.0557 30.6791 40.42 31.2353 39.4141 31.3892C39.2205 31.4046 39.0258 31.4046 38.8323 31.3892C38.365 31.3531 37.9303 31.1658 37.6148 30.8645C37.1907 30.4793 36.9967 30.0005 37.0144 29.4605C37.032 28.5812 37.8616 27.7793 38.8675 27.7172C39.0086 27.7019 39.1683 27.7019 39.3083 27.6866C39.3612 27.7172 39.4493 27.6866 39.5032 27.7172ZM56.5864 20.8358C56.4619 21.4379 56.0917 21.9005 55.4384 22.1633C55.2737 22.2205 55.1022 22.2619 54.9271 22.2866C54.7508 22.3019 54.5921 22.3019 54.4148 22.2866C53.5852 22.2245 52.8095 21.5918 52.7556 20.7899C52.7378 20.6667 52.7378 20.5422 52.7556 20.4191C52.8624 19.6325 53.497 18.9998 54.5393 18.9233C54.6206 18.9079 54.7048 18.9079 54.7861 18.9233C55.651 18.9998 56.3738 19.4786 56.5687 20.3732C56.604 20.5433 56.604 20.6819 56.5864 20.8358Z" fill="#DF0000"/>
<path fill-rule="evenodd" clip-rule="evenodd" d="M73.9868 26.2052C74.2865 26.4374 74.3394 26.7605 74.3747 27.0845C74.4099 27.1475 74.3923 27.224 74.3747 27.2699V40.8779L74.3767 40.9256C74.3798 40.976 74.384 41.0318 74.357 41.0786V41.9579C74.5292 42.0029 74.6847 41.9894 74.8558 41.975L74.8693 41.9732C75.6274 41.9273 76.3513 41.804 77.0222 41.48C78.275 40.8932 78.9635 39.968 78.9812 38.7026V36.0953C78.9812 35.9972 78.9905 35.8991 78.9998 35.8001C79.0133 35.6651 79.0258 35.5274 79.0164 35.3861C79.1398 35.4779 79.2446 35.5553 79.3514 35.6327C79.8284 35.972 80.3749 36.2186 80.9754 36.3725C81.4514 36.4967 81.9637 36.5579 82.4749 36.5732C82.757 36.5894 83.0401 36.5894 83.3222 36.5732C83.9755 36.5273 84.5926 36.4346 85.193 36.2033C86.3576 35.756 87.2049 35 87.8219 34.0433C88.4047 33.1487 88.6692 32.1767 88.776 31.1579C88.7886 31.1025 88.7921 31.0458 88.7864 30.9896C88.7843 30.9221 88.7812 30.8546 88.8102 30.788V30.2786C88.7812 30.2111 88.7843 30.1436 88.7874 30.077C88.7924 30.0206 88.7882 29.964 88.775 29.9087C88.7573 29.8466 88.7573 29.7692 88.7573 29.6927C88.7283 29.6585 88.7314 29.6252 88.7345 29.591C88.7366 29.564 88.7387 29.5352 88.7221 29.5073C88.5634 28.5506 88.2637 27.6407 87.6985 26.8073C87.293 26.2052 86.817 25.6499 86.1813 25.2179C85.4222 24.7094 84.5573 24.4313 83.6219 24.3386C83.5784 24.3233 83.5286 24.3233 83.4788 24.3233C83.428 24.3233 83.3751 24.3233 83.3222 24.308H82.757C82.7021 24.3368 82.6471 24.335 82.5911 24.335C82.559 24.3332 82.5258 24.3332 82.4926 24.3386C81.0812 24.4619 79.9518 25.0946 78.9635 25.9739C78.9635 25.9447 78.9589 25.9156 78.9501 25.8875C78.947 25.8785 78.9449 25.8713 78.9449 25.8659C78.8391 25.4186 78.6099 25.0487 78.1868 24.7706C77.7803 24.5087 77.3043 24.416 76.8283 24.3386C76.7837 24.3233 76.7391 24.3233 76.6955 24.3233C76.651 24.3233 76.6074 24.3233 76.5628 24.308H76.0339C75.9852 24.3332 75.9375 24.3305 75.8887 24.3287C75.8483 24.324 75.8072 24.3274 75.7684 24.3386C75.2395 24.416 74.7273 24.524 74.2855 24.8012C73.8432 25.0538 73.5039 25.421 73.3158 25.8506C73.2806 25.928 73.2806 25.9586 73.404 25.9739C73.6155 25.9892 73.8095 26.0819 73.9868 26.2052ZM84.0979 32.1146C84.3281 31.5746 84.381 31.0193 84.381 30.4019C84.3634 29.8925 84.3105 29.3372 84.0803 28.8134C83.6758 27.9332 82.951 27.4247 81.8569 27.3779C80.7628 27.332 79.9332 27.7487 79.4219 28.5965C79.1575 29.0285 79.0517 29.5235 79.0164 30.0167C78.9449 30.8339 79.0164 31.6205 79.4572 32.3612C79.9684 33.2099 80.7804 33.6572 81.8921 33.596C83.0038 33.5492 83.709 33.0092 84.0979 32.1146ZM103.229 28.4579C103.212 28.3652 103.212 28.2572 103.212 28.1654C103.172 28.1195 103.191 28.0574 103.203 28.0151C103.207 28.0007 103.212 27.9881 103.212 27.9791C103.2 27.7973 103.17 27.6166 103.123 27.4391C102.858 26.4221 102.259 25.6346 101.217 25.1261C100.335 24.6941 99.3641 24.5231 98.3758 24.4151C98.3447 24.4016 98.3084 24.4034 98.2711 24.4061C98.2255 24.4079 98.1778 24.4106 98.129 24.3845C98.0222 24.3692 97.8988 24.3692 97.793 24.3692C97.2698 24.3538 96.7462 24.3538 96.223 24.3692C96.1172 24.3845 95.9927 24.3845 95.887 24.3845C95.8392 24.4106 95.7915 24.4079 95.7428 24.4052C95.7034 24.4034 95.663 24.4016 95.6225 24.416L95.3944 24.443C94.853 24.5096 94.3138 24.5753 93.787 24.7247C92.976 24.956 92.1992 25.2485 91.5812 25.7885C91.5635 25.8597 91.5635 25.9333 91.5812 26.0045C91.5936 26.036 91.6019 26.0684 91.6123 26.1008C91.633 26.1656 91.6517 26.2313 91.687 26.2826C92.1111 26.9765 92.6929 27.5165 93.6107 27.6866C93.787 27.7172 93.8927 27.7019 94.0348 27.5939C95.0231 26.8073 96.1701 26.576 97.4404 26.9306C98.0222 27.0845 98.464 27.4247 98.7284 27.9179C98.9721 28.3571 98.967 28.8197 98.9597 29.3039L98.9576 29.5379C98.1321 29.2459 97.2661 29.0489 96.3816 28.952C96.3194 28.9367 96.2572 28.9367 96.1981 28.9367C96.139 28.9367 96.0819 28.9367 96.029 28.9205H95.6764C95.6014 28.9411 95.5224 28.9481 95.4441 28.9412C95.3809 28.9394 95.3166 28.9376 95.2523 28.952L94.881 28.9979C93.593 29.1212 92.4637 29.5379 91.5459 30.3713C90.9278 30.9419 90.5224 31.6205 90.4166 32.408C90.4 32.4431 90.4031 32.4782 90.4052 32.5133C90.4073 32.5547 90.4104 32.597 90.3813 32.6393V33.2252C90.4104 33.2594 90.4073 33.2972 90.4052 33.3368C90.3998 33.3719 90.4037 33.4076 90.4166 33.4412C90.4518 33.8579 90.5929 34.244 90.8044 34.5986C90.9994 34.9073 91.2638 35.1692 91.5635 35.432C91.9348 35.756 92.3579 35.9873 92.8163 36.1727C93.4696 36.4346 94.1748 36.6047 94.8987 36.6047C95.1465 36.62 95.411 36.62 95.6578 36.6047C95.7635 36.6047 95.8693 36.6047 95.9585 36.5894C96.9468 36.4499 97.8812 36.1727 98.7108 35.648C98.8166 35.5706 98.8871 35.5706 98.9587 35.6939C99.1173 35.9873 99.3994 36.188 99.7167 36.3419C100.176 36.5579 100.652 36.62 101.164 36.6353C101.305 36.6506 101.447 36.6506 101.588 36.6353C102.293 36.6047 102.928 36.4499 103.494 36.0647C103.899 35.7713 104.199 35.432 104.375 35C103.618 34.9073 103.3 34.568 103.282 33.9353C103.255 32.732 103.258 31.5377 103.261 30.3389C103.263 29.9393 103.264 29.5379 103.264 29.1374C103.241 29.0152 103.233 28.8912 103.241 28.7675C103.246 28.6642 103.242 28.5607 103.229 28.4579ZM98.5169 33.3485C98.8176 33.1325 99.0644 32.9165 98.941 32.5475L98.9379 32.4755C98.9348 32.4017 98.9317 32.3234 98.9587 32.2532C98.9763 32.0993 98.9224 32.0066 98.7637 31.9454C98.66 31.8968 98.5615 31.8491 98.464 31.8014C98.2773 31.7123 98.0958 31.625 97.8988 31.544C97.317 31.3127 96.7166 31.1273 96.0633 31.2353C95.4286 31.3586 94.8634 31.5746 94.6166 32.1452C94.3698 32.6852 94.4755 33.2099 94.881 33.6725C95.3052 34.1513 95.887 34.3052 96.5403 34.2125C97.317 34.1207 97.9175 33.7499 98.5169 33.3485Z" fill="#DF0000"/>
</g>
<defs>
<clipPath id="clip0_17042_11416">
<rect width="112" height="27" fill="white" transform="translate(7.11353 15.7139)"/>
</clipPath>
</defs>
</svg>
