<svg width="160" height="58" viewBox="0 0 160 58" fill="none" xmlns="http://www.w3.org/2000/svg">
<g clip-path="url(#clip0_17042_11346)">
<path d="M41.4855 35.9749C40.5214 35.9736 39.5705 35.7602 38.7053 35.3511C37.8401 34.942 37.0836 34.3479 36.4936 33.6144C35.9036 32.8808 35.4958 32.0271 35.3013 31.1187C35.1068 30.2102 35.1308 29.271 35.3714 28.3728C35.612 27.4746 36.0629 26.6412 36.6896 25.9364C37.3163 25.2316 38.1022 24.674 38.9872 24.3062C39.8723 23.9385 40.833 23.7703 41.7959 23.8145C42.7588 23.8588 43.6985 24.1143 44.5431 24.5616C45.4517 25.0412 46.2082 25.7488 46.7322 26.6091L46.7802 26.6888L44.8967 27.74L44.8501 27.6565C44.5368 27.0981 44.0645 26.6373 43.4886 26.3282C42.8773 25.998 42.1864 25.8285 41.4855 25.8368C40.9233 25.8156 40.3626 25.9063 39.8385 26.1032C39.3145 26.3001 38.8383 26.5989 38.4397 26.981C37.6899 27.7774 37.2747 28.8135 37.2747 29.8881C37.2747 30.9626 37.6899 31.9988 38.4397 32.7952C38.8383 33.1772 39.3145 33.4761 39.8385 33.6729C40.3626 33.8698 40.9233 33.9605 41.4855 33.9394C42.1891 33.9471 42.8826 33.7777 43.4971 33.4479C44.0736 33.1443 44.5438 32.6835 44.8488 32.1234L44.8948 32.0387L46.7796 33.0722L46.7322 33.1519C46.2176 34.0149 45.4673 34.726 44.5628 35.2083C43.6244 35.7164 42.5642 35.9794 41.4874 35.9711" fill="black"/>
<path d="M49.5838 23.9907H47.5399V35.7601H49.5838V23.9907Z" fill="black"/>
<path d="M62.8757 35.761L59.4572 27.3237H61.6831L64.0189 33.4396L66.3369 27.3237H68.5675L65.149 35.761H62.8757Z" fill="black"/>
<path d="M78.2667 35.7611V27.3245H80.3106V28.4244C80.5752 28.011 80.9532 27.6757 81.4029 27.4554C81.8527 27.2351 82.3569 27.1384 82.86 27.1758H82.9554V29.2967L82.8541 29.2904C82.7805 29.2857 82.7079 29.2834 82.6365 29.2834C82.0724 29.2747 81.5206 29.4418 81.0633 29.7597C80.7998 29.9707 80.5937 30.2404 80.463 30.5454C80.3323 30.8504 80.2809 31.1815 80.3132 31.5099V35.7611H78.2667Z" fill="black"/>
<path d="M90.486 35.9749C89.5219 35.9736 88.571 35.7602 87.7058 35.3511C86.8406 34.942 86.0841 34.3479 85.4941 33.6144C84.9041 32.8808 84.4963 32.0271 84.3018 31.1187C84.1073 30.2102 84.1313 29.271 84.3719 28.3728C84.6125 27.4746 85.0634 26.6412 85.6901 25.9364C86.3168 25.2316 87.1027 24.674 87.9877 24.3062C88.8727 23.9385 89.8334 23.7703 90.7964 23.8145C91.7593 23.8588 92.699 24.1143 93.5436 24.5616C94.4522 25.0412 95.2087 25.7487 95.7327 26.6091L95.7807 26.6888L93.8972 27.74L93.8506 27.6565C93.5373 27.0982 93.065 26.6374 92.4891 26.3282C91.8778 25.998 91.1869 25.8285 90.486 25.8368C89.9238 25.8157 89.3631 25.9064 88.8391 26.1033C88.315 26.3002 87.8388 26.599 87.4402 26.981C86.6904 27.7774 86.2752 28.8135 86.2752 29.8881C86.2752 30.9626 86.6904 31.9988 87.4402 32.7952C87.8387 33.1772 88.315 33.4761 88.839 33.6729C89.3631 33.8698 89.9238 33.9605 90.486 33.9394C91.1898 33.9472 91.8835 33.7778 92.4983 33.4479C93.0748 33.1443 93.5453 32.6835 93.8506 32.1234L93.8959 32.0387L95.7807 33.0722L95.7334 33.1519C95.2188 34.015 94.4685 34.7261 93.5639 35.2083C92.6256 35.7164 91.5653 35.9794 90.4886 35.9711" fill="black"/>
<path d="M100.925 35.9745C100.318 35.9844 99.7147 35.876 99.1519 35.6559C98.589 35.4358 98.0782 35.1085 97.6502 34.6936C96.7858 33.8553 96.3008 32.7223 96.3008 31.5414C96.3008 30.3606 96.7858 29.2276 97.6502 28.3893C98.5284 27.5679 99.7049 27.1084 100.93 27.1084C102.154 27.1084 103.331 27.5679 104.209 28.3893C104.861 29.01 105.306 29.804 105.487 30.6695C105.667 31.5351 105.575 32.4327 105.222 33.2475C104.869 34.0622 104.271 34.7571 103.505 35.2429C102.739 35.7287 101.84 35.9835 100.922 35.9745M100.922 29.0249C100.581 29.0179 100.243 29.0778 99.9271 29.2009C99.6113 29.324 99.3249 29.5078 99.0853 29.741C98.6074 30.2277 98.3412 30.8719 98.3412 31.5414C98.3412 32.211 98.6074 32.8552 99.0853 33.3419C99.5778 33.8012 100.237 34.058 100.922 34.058C101.608 34.058 102.267 33.8012 102.76 33.3419C103.237 32.8552 103.504 32.211 103.504 31.5414C103.504 30.8719 103.237 30.2277 102.76 29.741C102.52 29.5077 102.234 29.3239 101.918 29.2008C101.602 29.0777 101.263 29.0179 100.923 29.0249" fill="black"/>
<path d="M112.533 35.7611V30.7831C112.55 30.5375 112.516 30.291 112.433 30.0583C112.349 29.8256 112.218 29.6114 112.047 29.4283C111.868 29.2674 111.657 29.143 111.427 29.0624C111.197 28.9819 110.952 28.9469 110.708 28.9596C110.429 28.9483 110.152 28.992 109.891 29.0881C109.631 29.1842 109.395 29.3305 109.196 29.5181C108.776 29.9986 108.57 30.6191 108.622 31.2449V35.7605H106.578V27.3238H108.622V28.1835C108.931 27.8217 109.324 27.5357 109.77 27.3487C110.215 27.1618 110.701 27.0793 111.186 27.1082C111.64 27.0914 112.093 27.1659 112.515 27.327C112.938 27.4881 113.321 27.7322 113.64 28.0437C114.291 28.7428 114.628 29.662 114.576 30.5997V35.7592L112.533 35.7611Z" fill="black"/>
<path d="M121.772 35.7611V30.7831C121.789 30.5375 121.754 30.291 121.671 30.0583C121.587 29.8256 121.456 29.6114 121.285 29.4283C121.106 29.2674 120.895 29.1429 120.665 29.0624C120.435 28.9818 120.19 28.9469 119.945 28.9596C119.667 28.9483 119.389 28.992 119.129 29.0881C118.869 29.1842 118.632 29.3305 118.433 29.5181C118.013 29.9986 117.807 30.6191 117.86 31.2449V35.7605H115.816V27.3238H117.86V28.1835C118.168 27.8217 118.562 27.5357 119.007 27.3487C119.453 27.1618 119.938 27.0793 120.424 27.1082C120.878 27.0912 121.332 27.1658 121.755 27.3271C122.178 27.4884 122.561 27.7329 122.88 28.0449C123.531 28.7441 123.868 29.6633 123.816 30.601V35.7605L121.772 35.7611Z" fill="black"/>
<path d="M138.989 35.9748C138.379 35.9818 137.774 35.8723 137.209 35.6527C136.643 35.4331 136.129 35.1076 135.695 34.6953C135.262 34.283 134.917 33.7919 134.682 33.2506C134.447 32.7092 134.326 32.1284 134.326 31.5418C134.326 30.9551 134.447 30.3743 134.682 29.833C134.917 29.2916 135.262 28.8006 135.695 28.3882C136.129 27.9759 136.643 27.6505 137.209 27.4308C137.774 27.2112 138.379 27.1017 138.989 27.1087C139.807 27.1009 140.611 27.3048 141.319 27.6989C141.996 28.069 142.545 28.6215 142.9 29.2884L142.941 29.3656L141.177 30.3504L141.133 30.26C140.951 29.8867 140.656 29.5753 140.287 29.3668C139.887 29.1455 139.433 29.0329 138.972 29.0411C138.632 29.0334 138.295 29.093 137.981 29.2161C137.666 29.3391 137.381 29.5231 137.144 29.7565C136.671 30.2393 136.408 30.8775 136.408 31.5408C136.408 32.2041 136.671 32.8424 137.144 33.3252C137.381 33.5586 137.666 33.7425 137.981 33.8656C138.295 33.9886 138.632 34.0482 138.972 34.0406C139.434 34.0459 139.888 33.9305 140.287 33.7066C140.662 33.4985 140.968 33.1912 141.168 32.8211L141.214 32.7357L142.976 33.7022L142.933 33.7812C142.562 34.4514 142.003 35.0074 141.318 35.3853C140.611 35.7794 139.806 35.9832 138.988 35.9755" fill="black"/>
<path d="M147.881 35.8326C147.193 35.8734 146.507 35.7195 145.909 35.3898C145.266 34.9717 144.94 34.1994 144.94 33.0937V29.224H143.363V27.3264H144.94V25.5635L146.984 24.8481V27.3238H149.112V29.2214H146.984V33.0912C146.972 33.2108 146.985 33.3315 147.023 33.4463C147.06 33.561 147.12 33.6676 147.2 33.7598C147.382 33.9065 147.614 33.9853 147.851 33.9818C147.985 33.9886 148.133 33.9919 148.295 33.9919C148.51 33.9919 148.755 33.9856 149.018 33.973L149.118 33.9685V35.7472L149.035 35.7567C148.654 35.8028 148.27 35.8271 147.886 35.8294" fill="black"/>
<path d="M57.5696 33.1699C57.4929 33.2594 57.4101 33.344 57.3217 33.4229C56.7577 33.9223 56.0139 34.1909 55.2476 34.1719C54.9106 34.177 54.5763 34.1129 54.2671 33.9838C53.958 33.8546 53.681 33.6634 53.4549 33.4229C53.373 33.3371 53.2972 33.246 53.2281 33.1503L57.7642 31.5614L59.7101 30.8802C59.59 29.9378 59.1467 29.0609 58.4505 28.388C58.0311 27.982 57.5325 27.6598 56.9832 27.44C56.4339 27.2201 55.8448 27.1069 55.2499 27.1069C54.655 27.1069 54.066 27.2201 53.5167 27.44C52.9674 27.6598 52.4687 27.982 52.0493 28.388C51.2042 29.236 50.7323 30.3654 50.7323 31.5402C50.7323 32.7151 51.2042 33.8445 52.0493 34.6924C52.4624 35.1053 52.9593 35.4321 53.5091 35.6524C54.059 35.8728 54.6501 35.982 55.2457 35.9733C56.5301 36.0014 57.7742 35.5412 58.7082 34.6924C58.9013 34.5171 59.079 34.3267 59.2394 34.1231L59.1395 34.0523L57.5696 33.1699ZM53.4549 29.6575C53.6844 29.4211 53.962 29.2327 54.2704 29.1038C54.5788 28.975 54.9114 28.9085 55.2476 28.9085C55.5838 28.9085 55.9165 28.975 56.2249 29.1038C56.5333 29.2327 56.8109 29.4211 57.0404 29.6575C57.1162 29.7375 57.1867 29.822 57.2514 29.9105L52.7311 31.4918C52.7195 30.8139 52.9783 30.1575 53.4542 29.6575" fill="black"/>
<path d="M75.1201 33.1699C75.0433 33.2594 74.9605 33.3439 74.8722 33.4229C74.3082 33.9223 73.5644 34.1909 72.7981 34.1718C72.4611 34.177 72.1268 34.1129 71.8177 33.9838C71.5085 33.8546 71.2315 33.6634 71.0054 33.4229C70.9235 33.3371 70.8477 33.246 70.7786 33.1503L75.3147 31.5614L77.2606 30.8802C77.1406 29.9379 76.6976 29.061 76.0017 28.388C75.5823 27.982 75.0836 27.6598 74.5343 27.44C73.985 27.2201 73.396 27.1069 72.8011 27.1069C72.2062 27.1069 71.6171 27.2201 71.0678 27.44C70.5186 27.6598 70.0199 27.982 69.6005 28.388C68.7553 29.236 68.2834 30.3654 68.2834 31.5402C68.2834 32.7151 68.7553 33.8445 69.6005 34.6924C70.0136 35.1053 70.5105 35.4321 71.0603 35.6524C71.6102 35.8728 72.2012 35.982 72.7968 35.9733C74.081 36.0013 75.3249 35.5411 76.2587 34.6924C76.4518 34.5171 76.6295 34.3267 76.7899 34.1231L76.69 34.0523L75.1201 33.1699ZM71.0054 29.6575C71.2349 29.4211 71.5125 29.2327 71.8209 29.1038C72.1293 28.975 72.4619 28.9085 72.7981 28.9085C73.1343 28.9085 73.467 28.975 73.7754 29.1038C74.0838 29.2327 74.3613 29.4211 74.5909 29.6575C74.6667 29.7375 74.7372 29.822 74.8019 29.9105L70.2816 31.4918C70.27 30.8139 70.5288 30.1575 71.0047 29.6575" fill="black"/>
<path d="M131.573 33.1699C131.496 33.2595 131.413 33.344 131.325 33.4229C130.761 33.9223 130.017 34.1909 129.251 34.1718C128.914 34.177 128.579 34.1129 128.27 33.9838C127.961 33.8546 127.684 33.6634 127.458 33.4229C127.376 33.3371 127.3 33.246 127.231 33.1503L131.767 31.5614L133.713 30.8802C133.593 29.9379 133.15 29.061 132.454 28.388C132.035 27.982 131.536 27.6598 130.987 27.44C130.438 27.2201 129.849 27.1069 129.254 27.1069C128.659 27.1069 128.07 27.2201 127.52 27.44C126.971 27.6598 126.473 27.982 126.053 28.388C125.208 29.236 124.736 30.3654 124.736 31.5402C124.736 32.7151 125.208 33.8445 126.053 34.6924C126.466 35.1053 126.963 35.4321 127.513 35.6524C128.063 35.8728 128.654 35.982 129.249 35.9733C130.534 36.0013 131.778 35.5411 132.711 34.6924C132.904 34.5171 133.082 34.3267 133.243 34.1231L133.143 34.0523L131.573 33.1699ZM127.458 29.6575C127.688 29.4211 127.965 29.2327 128.274 29.1038C128.582 28.975 128.915 28.9085 129.251 28.9085C129.587 28.9085 129.92 28.975 130.228 29.1038C130.536 29.2327 130.814 29.4211 131.044 29.6575C131.119 29.7375 131.19 29.822 131.255 29.9105L126.734 31.4918C126.723 30.8139 126.981 30.1575 127.457 29.6575" fill="black"/>
<path d="M26.8561 25.7655C26.8561 25.8938 26.8166 26.0191 26.7425 26.1257C26.6685 26.2323 26.5633 26.3154 26.4401 26.3645C26.317 26.4136 26.1815 26.4264 26.0508 26.4014C25.9201 26.3764 25.8 26.3146 25.7058 26.224C25.6116 26.1333 25.5474 26.0178 25.5214 25.892C25.4954 25.7662 25.5087 25.6359 25.5597 25.5174C25.6107 25.399 25.6971 25.2977 25.8079 25.2265C25.9187 25.1552 26.049 25.1172 26.1823 25.1172C26.361 25.1172 26.5324 25.1855 26.6587 25.3071C26.7851 25.4287 26.8561 25.5936 26.8561 25.7655Z" fill="#01BA18"/>
<path d="M23.6446 23.1689C23.4779 23.1689 23.3149 23.2165 23.1763 23.3056C23.0377 23.3947 22.9297 23.5214 22.8659 23.6695C22.8021 23.8177 22.7854 23.9807 22.818 24.138C22.8505 24.2953 22.9307 24.4398 23.0486 24.5532C23.1665 24.6666 23.3166 24.7439 23.4801 24.7752C23.6436 24.8064 23.8131 24.7904 23.9671 24.729C24.1211 24.6676 24.2527 24.5637 24.3453 24.4304C24.4379 24.297 24.4874 24.1402 24.4874 23.9798C24.4874 23.7648 24.3986 23.5585 24.2405 23.4065C24.0824 23.2544 23.8681 23.1689 23.6446 23.1689Z" fill="#0BBF2F"/>
<path d="M20.407 22.5825C20.21 22.5825 20.0174 22.6387 19.8536 22.744C19.6899 22.8493 19.5622 22.999 19.4868 23.1741C19.4114 23.3492 19.3917 23.5419 19.4301 23.7277C19.4686 23.9136 19.5634 24.0844 19.7027 24.2184C19.842 24.3524 20.0195 24.4437 20.2127 24.4807C20.4059 24.5176 20.6061 24.4987 20.7881 24.4261C20.9701 24.3536 21.1257 24.2308 21.2351 24.0732C21.3445 23.9156 21.403 23.7303 21.403 23.5408C21.403 23.2866 21.298 23.0429 21.1112 22.8632C20.9245 22.6835 20.6711 22.5825 20.407 22.5825Z" fill="#0FC139"/>
<path d="M17.4149 23.4644C17.1801 23.4644 16.9506 23.5314 16.7553 23.6569C16.5601 23.7824 16.4079 23.9608 16.318 24.1695C16.2282 24.3783 16.2047 24.608 16.2505 24.8296C16.2963 25.0511 16.4094 25.2547 16.5754 25.4145C16.7415 25.5742 16.953 25.683 17.1833 25.7271C17.4136 25.7712 17.6523 25.7485 17.8693 25.6621C18.0862 25.5756 18.2717 25.4292 18.4021 25.2413C18.5326 25.0535 18.6022 24.8326 18.6022 24.6067C18.6022 24.3037 18.4771 24.0132 18.2545 23.7989C18.0318 23.5847 17.7298 23.4644 17.4149 23.4644Z" fill="#18C552"/>
<path d="M15.3186 25.5918C15.061 25.5918 14.8092 25.6653 14.595 25.803C14.3809 25.9407 14.2139 26.1364 14.1154 26.3653C14.0168 26.5943 13.991 26.8462 14.0413 27.0893C14.0915 27.3323 14.2155 27.5556 14.3977 27.7309C14.5798 27.9061 14.8119 28.0254 15.0645 28.0738C15.3171 28.1221 15.579 28.0973 15.8169 28.0025C16.0549 27.9076 16.2583 27.747 16.4014 27.541C16.5445 27.3349 16.6209 27.0927 16.6209 26.8448C16.6209 26.5125 16.4837 26.1938 16.2394 25.9588C15.9952 25.7238 15.664 25.5918 15.3186 25.5918Z" fill="#44D33B"/>
<path d="M14.528 28.5293C14.255 28.5293 13.9881 28.6072 13.761 28.7532C13.534 28.8991 13.357 29.1066 13.2526 29.3493C13.1481 29.592 13.1207 29.8591 13.174 30.1167C13.2273 30.3744 13.3587 30.6111 13.5518 30.7969C13.7449 30.9826 13.9909 31.1091 14.2587 31.1604C14.5265 31.2116 14.8041 31.1853 15.0563 31.0848C15.3086 30.9843 15.5242 30.814 15.6759 30.5956C15.8276 30.3771 15.9086 30.1203 15.9086 29.8576C15.9086 29.5053 15.7631 29.1675 15.5042 28.9183C15.2453 28.6692 14.8942 28.5293 14.528 28.5293Z" fill="#66DC22"/>
<path d="M15.3186 31.6157C15.061 31.6157 14.8092 31.6892 14.595 31.8269C14.3809 31.9646 14.2139 32.1603 14.1154 32.3892C14.0168 32.6182 13.991 32.8701 14.0413 33.1132C14.0915 33.3563 14.2155 33.5795 14.3977 33.7548C14.5798 33.93 14.8119 34.0494 15.0645 34.0977C15.3171 34.1461 15.579 34.1212 15.8169 34.0264C16.0549 33.9316 16.2583 33.771 16.4014 33.5649C16.5445 33.3588 16.6209 33.1166 16.6209 32.8688C16.6209 32.5364 16.4837 32.2177 16.2394 31.9827C15.9952 31.7477 15.664 31.6157 15.3186 31.6157Z" fill="#89E60B"/>
<path d="M17.4149 33.9644C17.1801 33.9644 16.9506 34.0314 16.7553 34.1569C16.5601 34.2824 16.4079 34.4608 16.318 34.6695C16.2282 34.8783 16.2047 35.108 16.2505 35.3296C16.2963 35.5511 16.4094 35.7547 16.5754 35.9144C16.7415 36.0742 16.953 36.183 17.1833 36.2271C17.4136 36.2712 17.6523 36.2485 17.8693 36.1621C18.0862 36.0756 18.2717 35.9292 18.4021 35.7413C18.5326 35.5535 18.6022 35.3326 18.6022 35.1067C18.6022 34.8037 18.4771 34.5132 18.2545 34.2989C18.0318 34.0847 17.7298 33.9644 17.4149 33.9644Z" fill="#66E51F"/>
<path d="M20.407 35.2158C20.21 35.2158 20.0174 35.272 19.8536 35.3773C19.6899 35.4826 19.5622 35.6323 19.4868 35.8074C19.4114 35.9825 19.3917 36.1752 19.4301 36.361C19.4686 36.5469 19.5634 36.7177 19.7027 36.8517C19.842 36.9857 20.0195 37.077 20.2127 37.114C20.4059 37.1509 20.6061 37.132 20.7881 37.0594C20.9701 36.9869 21.1257 36.8641 21.2351 36.7065C21.3445 36.5489 21.403 36.3636 21.403 36.1741C21.403 35.9199 21.298 35.6762 21.1112 35.4965C20.9245 35.3168 20.6711 35.2158 20.407 35.2158Z" fill="#11DB62"/>
<path d="M23.6446 34.9233C23.4779 34.9233 23.3149 34.9709 23.1763 35.06C23.0377 35.1491 22.9297 35.2757 22.8659 35.4239C22.8021 35.5721 22.7854 35.7351 22.818 35.8924C22.8505 36.0497 22.9307 36.1942 23.0486 36.3076C23.1665 36.421 23.3166 36.4983 23.4801 36.5296C23.6436 36.5608 23.8131 36.5448 23.9671 36.4834C24.1211 36.422 24.2527 36.3181 24.3453 36.1848C24.4379 36.0514 24.4874 35.8946 24.4874 35.7342C24.4874 35.5192 24.3986 35.3129 24.2405 35.1608C24.0824 35.0088 23.8681 34.9233 23.6446 34.9233Z" fill="#00DEA7"/>
<path d="M26.1818 33.2993C26.0485 33.2993 25.9182 33.3373 25.8074 33.4086C25.6966 33.4798 25.6102 33.5811 25.5592 33.6995C25.5082 33.818 25.4949 33.9484 25.5209 34.0741C25.5469 34.1999 25.6111 34.3154 25.7053 34.4061C25.7995 34.4968 25.9196 34.5585 26.0503 34.5835C26.181 34.6085 26.3165 34.5957 26.4396 34.5466C26.5628 34.4976 26.668 34.4145 26.7421 34.3079C26.8161 34.2012 26.8556 34.0759 26.8556 33.9477C26.8556 33.7757 26.7846 33.6108 26.6583 33.4892C26.5319 33.3676 26.3605 33.2993 26.1818 33.2993Z" fill="#00D3C4"/>
<path d="M29.0468 34.8892C28.8801 34.8892 28.7171 34.9367 28.5785 35.0258C28.44 35.1149 28.3319 35.2416 28.2681 35.3897C28.2043 35.5379 28.1877 35.701 28.2202 35.8583C28.2527 36.0156 28.333 36.16 28.4508 36.2734C28.5687 36.3869 28.7189 36.4641 28.8824 36.4954C29.0458 36.5267 29.2153 36.5106 29.3693 36.4492C29.5233 36.3879 29.6549 36.2839 29.7475 36.1506C29.8401 36.0172 29.8896 35.8604 29.8896 35.7001C29.8896 35.485 29.8008 35.2787 29.6427 35.1267C29.4847 34.9746 29.2703 34.8892 29.0468 34.8892Z" fill="#00D0C4"/>
<path d="M26.6897 36.7603C26.4701 36.7603 26.2555 36.8229 26.0729 36.9403C25.8903 37.0576 25.748 37.2244 25.6639 37.4196C25.5799 37.6148 25.5578 37.8296 25.6006 38.0368C25.6434 38.244 25.7491 38.4344 25.9043 38.5838C26.0596 38.7332 26.2573 38.835 26.4727 38.8763C26.688 38.9176 26.9113 38.8965 27.1142 38.8158C27.3171 38.735 27.4905 38.5982 27.6126 38.4226C27.7347 38.247 27.7999 38.0405 27.8001 37.8292C27.8001 37.5458 27.6831 37.274 27.4749 37.0736C27.2667 36.8731 26.9843 36.7604 26.6897 36.7603Z" fill="#00E0BF"/>
<path d="M23.7081 37.8774C23.4505 37.8774 23.1987 37.9509 22.9846 38.0886C22.7704 38.2263 22.6035 38.422 22.5049 38.651C22.4063 38.8799 22.3805 39.1319 22.4308 39.3749C22.481 39.618 22.6051 39.8413 22.7872 40.0165C22.9693 40.1917 23.2014 40.3111 23.454 40.3594C23.7066 40.4078 23.9685 40.383 24.2065 40.2881C24.4444 40.1933 24.6478 40.0327 24.7909 39.8266C24.934 39.6206 25.0104 39.3783 25.0104 39.1305C25.0104 38.7982 24.8732 38.4794 24.629 38.2444C24.3847 38.0095 24.0535 37.8774 23.7081 37.8774Z" fill="#00DB96"/>
<path d="M20.3144 38.022C20.0265 38.022 19.7451 38.1041 19.5058 38.258C19.2664 38.4119 19.0798 38.6306 18.9697 38.8865C18.8595 39.1424 18.8307 39.4239 18.8869 39.6956C18.943 39.9672 19.0816 40.2168 19.2852 40.4126C19.4887 40.6085 19.7481 40.7419 20.0304 40.7959C20.3128 40.8499 20.6054 40.8222 20.8714 40.7162C21.1373 40.6102 21.3647 40.4307 21.5246 40.2004C21.6845 39.9701 21.7699 39.6994 21.7699 39.4224C21.7699 39.051 21.6165 38.6948 21.3436 38.4321C21.0706 38.1695 20.7004 38.022 20.3144 38.022Z" fill="#0EDA65"/>
<path d="M17.0911 37.3071C16.8181 37.3071 16.5512 37.385 16.3241 37.531C16.0971 37.677 15.9202 37.8844 15.8157 38.1271C15.7112 38.3698 15.6838 38.6369 15.7371 38.8946C15.7904 39.1522 15.9219 39.3889 16.1149 39.5747C16.308 39.7605 16.554 39.887 16.8218 39.9382C17.0896 39.9895 17.3672 39.9632 17.6194 39.8626C17.8717 39.7621 18.0873 39.5918 18.239 39.3734C18.3907 39.155 18.4717 38.8982 18.4717 38.6354C18.4717 38.2831 18.3262 37.9453 18.0673 37.6962C17.8084 37.4471 17.4573 37.3071 17.0911 37.3071Z" fill="#4DE230"/>
<path d="M14.3864 35.6372C14.1212 35.6372 13.8621 35.7128 13.6416 35.8546C13.4212 35.9963 13.2494 36.1977 13.1479 36.4334C13.0465 36.669 13.0199 36.9284 13.0717 37.1785C13.1234 37.4287 13.251 37.6585 13.4385 37.8389C13.626 38.0193 13.8648 38.1421 14.1248 38.1919C14.3849 38.2416 14.6544 38.2161 14.8993 38.1185C15.1443 38.0209 15.3536 37.8555 15.5009 37.6435C15.6482 37.4314 15.7268 37.182 15.7268 36.9269C15.7268 36.5849 15.5856 36.2568 15.3342 36.015C15.0828 35.7731 14.7419 35.6372 14.3864 35.6372Z" fill="#84E90C"/>
<path d="M12.3926 33.2622C12.1412 33.2622 11.8954 33.334 11.6863 33.4684C11.4772 33.6028 11.3142 33.7938 11.218 34.0174C11.1218 34.2409 11.0966 34.4869 11.1456 34.7242C11.1947 34.9615 11.3158 35.1794 11.4936 35.3505C11.6714 35.5216 11.898 35.6381 12.1446 35.6853C12.3912 35.7325 12.6469 35.7083 12.8792 35.6157C13.1115 35.5231 13.3101 35.3663 13.4498 35.1651C13.5895 34.964 13.6641 34.7275 13.6641 34.4855C13.6641 34.1611 13.5301 33.8499 13.2917 33.6205C13.0532 33.3911 12.7298 33.2622 12.3926 33.2622Z" fill="#90E807"/>
<path d="M11.303 30.3154C11.0608 30.3154 10.824 30.3845 10.6225 30.514C10.4211 30.6434 10.264 30.8274 10.1712 31.0427C10.0783 31.258 10.0539 31.4949 10.101 31.7235C10.1481 31.9522 10.2645 32.1623 10.4356 32.3273C10.6067 32.4923 10.8248 32.6047 11.0624 32.6505C11.2999 32.6963 11.5462 32.6733 11.7702 32.5845C11.9941 32.4956 12.1857 32.3449 12.3207 32.1513C12.4556 31.9578 12.5279 31.7301 12.5285 31.497C12.5288 31.3419 12.4974 31.1884 12.4359 31.045C12.3745 30.9017 12.2843 30.7714 12.1705 30.6617C12.0566 30.5519 11.9214 30.4648 11.7726 30.4054C11.6237 30.346 11.4642 30.3154 11.303 30.3154Z" fill="#6FDF1D"/>
<path d="M11.303 27.0376C11.0607 27.0377 10.8238 27.107 10.6224 27.2366C10.4209 27.3662 10.264 27.5504 10.1713 27.7659C10.0787 27.9813 10.0545 28.2184 10.1019 28.447C10.1492 28.6757 10.266 28.8857 10.4374 29.0505C10.6088 29.2154 10.8271 29.3276 11.0648 29.373C11.3025 29.4185 11.5489 29.3951 11.7727 29.3058C11.9966 29.2166 12.188 29.0655 12.3226 28.8716C12.4572 28.6777 12.5291 28.4498 12.5291 28.2166C12.5291 27.9039 12.4 27.604 12.1701 27.3829C11.9403 27.1618 11.6287 27.0376 11.3037 27.0376" fill="#5AD92B"/>
<path d="M12.3925 24.0117C12.1424 24.0116 11.8979 24.0828 11.6899 24.2164C11.4819 24.3501 11.3198 24.54 11.224 24.7623C11.1283 24.9846 11.1032 25.2292 11.1519 25.4652C11.2007 25.7012 11.3211 25.918 11.498 26.0882C11.6748 26.2583 11.9001 26.3742 12.1454 26.4211C12.3907 26.468 12.6449 26.4438 12.876 26.3517C13.107 26.2596 13.3044 26.1036 13.4433 25.9034C13.5822 25.7033 13.6562 25.4681 13.6561 25.2274C13.6561 24.905 13.523 24.5958 13.286 24.3678C13.049 24.1398 12.7276 24.0117 12.3925 24.0117Z" fill="#3FD13F"/>
<path d="M14.3864 21.498C14.1212 21.498 13.8621 21.5737 13.6416 21.7154C13.4212 21.8571 13.2494 22.0585 13.1479 22.2942C13.0465 22.5299 13.0199 22.7892 13.0717 23.0394C13.1234 23.2896 13.251 23.5194 13.4385 23.6997C13.626 23.8801 13.8648 24.0029 14.1248 24.0527C14.3849 24.1025 14.6544 24.0769 14.8993 23.9793C15.1443 23.8817 15.3536 23.7164 15.5009 23.5043C15.6482 23.2922 15.7268 23.0428 15.7268 22.7878C15.7268 22.4457 15.5856 22.1177 15.3342 21.8758C15.0828 21.6339 14.7419 21.498 14.3864 21.498Z" fill="#1DC753"/>
<path d="M17.0911 19.7534C16.8181 19.7534 16.5512 19.8313 16.3241 19.9773C16.0971 20.1232 15.9202 20.3307 15.8157 20.5734C15.7112 20.8161 15.6838 21.0832 15.7371 21.3409C15.7904 21.5985 15.9219 21.8352 16.1149 22.021C16.308 22.2067 16.554 22.3332 16.8218 22.3845C17.0896 22.4358 17.3672 22.4095 17.6194 22.3089C17.8717 22.2084 18.0873 22.0381 18.239 21.8197C18.3907 21.6012 18.4717 21.3444 18.4717 21.0817C18.4717 20.7294 18.3262 20.3916 18.0673 20.1425C17.8084 19.8934 17.4573 19.7534 17.0911 19.7534Z" fill="#11C247"/>
<path d="M20.3141 18.8911C20.0261 18.8906 19.7444 18.9723 19.5047 19.1259C19.265 19.2795 19.0781 19.498 18.9675 19.7539C18.8569 20.0097 18.8277 20.2914 18.8836 20.5632C18.9395 20.835 19.0779 21.0848 19.2813 21.2809C19.4848 21.477 19.7441 21.6106 20.0265 21.6648C20.3089 21.7191 20.6017 21.6915 20.8678 21.5856C21.134 21.4797 21.3614 21.3002 21.5215 21.0698C21.6815 20.8395 21.767 20.5686 21.767 20.2915C21.767 19.9201 21.6136 19.5639 21.3407 19.3013C21.0677 19.0387 20.6975 18.8911 20.3115 18.8911" fill="#0FC13A"/>
<path d="M23.7081 19.3286C23.4505 19.3286 23.1987 19.4021 22.9846 19.5398C22.7704 19.6775 22.6035 19.8732 22.5049 20.1021C22.4063 20.3311 22.3805 20.583 22.4308 20.8261C22.481 21.0692 22.6051 21.2924 22.7872 21.4677C22.9693 21.6429 23.2014 21.7623 23.454 21.8106C23.7066 21.859 23.9685 21.8341 24.2065 21.7393C24.4444 21.6445 24.6478 21.4839 24.7909 21.2778C24.934 21.0717 25.0104 20.8295 25.0104 20.5816C25.0104 20.2493 24.8732 19.9306 24.629 19.6956C24.3847 19.4606 24.0535 19.3286 23.7081 19.3286Z" fill="#0CBF31"/>
<path d="M26.6897 20.8198C26.4699 20.8197 26.255 20.8823 26.0723 20.9997C25.8895 21.1171 25.747 21.284 25.6628 21.4793C25.5786 21.6746 25.5565 21.8895 25.5993 22.0969C25.6421 22.3044 25.7478 22.4949 25.9032 22.6444C26.0585 22.794 26.2565 22.8959 26.472 22.9372C26.6876 22.9785 26.911 22.9573 27.114 22.8765C27.3171 22.7956 27.4906 22.6585 27.6128 22.4827C27.7349 22.3069 27.8 22.1002 27.8 21.8888C27.8 21.6054 27.6831 21.3336 27.4749 21.1331C27.2666 20.9327 26.9842 20.82 26.6897 20.8198Z" fill="#07BD24"/>
<path d="M29.0468 23.2041C28.8801 23.2041 28.7171 23.2517 28.5785 23.3408C28.44 23.4299 28.3319 23.5565 28.2681 23.7047C28.2043 23.8529 28.1877 24.0159 28.2202 24.1732C28.2527 24.3305 28.333 24.475 28.4508 24.5884C28.5687 24.7018 28.7189 24.779 28.8824 24.8103C29.0458 24.8416 29.2153 24.8255 29.3693 24.7642C29.5233 24.7028 29.6549 24.5989 29.7475 24.4655C29.8401 24.3322 29.8896 24.1754 29.8896 24.015C29.8896 23.7999 29.8008 23.5937 29.6427 23.4416C29.4847 23.2895 29.2703 23.2041 29.0468 23.2041Z" fill="#00BA15"/>
<path d="M32.06 36.1875C31.848 36.1875 31.6407 36.248 31.4643 36.3614C31.288 36.4747 31.1506 36.6358 31.0694 36.8244C30.9883 37.0129 30.967 37.2203 31.0084 37.4204C31.0498 37.6205 31.1519 37.8044 31.3018 37.9486C31.4518 38.0929 31.6428 38.1912 31.8508 38.231C32.0588 38.2708 32.2744 38.2504 32.4703 38.1723C32.6663 38.0942 32.8337 37.962 32.9515 37.7923C33.0694 37.6227 33.1323 37.4232 33.1323 37.2191C33.1323 36.9455 33.0193 36.6831 32.8182 36.4897C32.6171 36.2962 32.3444 36.1875 32.06 36.1875Z" fill="#00CFC4"/>
<path d="M29.8387 38.2539C29.5656 38.2539 29.2987 38.3318 29.0717 38.4778C28.8447 38.6237 28.6677 38.8312 28.5632 39.0739C28.4587 39.3166 28.4314 39.5837 28.4847 39.8413C28.5379 40.099 28.6694 40.3357 28.8625 40.5215C29.0556 40.7072 29.3015 40.8337 29.5693 40.885C29.8371 40.9362 30.1147 40.9099 30.367 40.8094C30.6193 40.7089 30.8349 40.5386 30.9866 40.3202C31.1383 40.1017 31.2192 39.8449 31.2192 39.5822C31.2192 39.2299 31.0738 38.8921 30.8149 38.643C30.556 38.3938 30.2048 38.2539 29.8387 38.2539Z" fill="#00DBC3"/>
<path d="M27.0756 39.9521C26.7877 39.9521 26.5063 40.0343 26.267 40.1882C26.0276 40.342 25.8411 40.5607 25.7309 40.8166C25.6207 41.0725 25.5919 41.3541 25.6481 41.6258C25.7042 41.8974 25.8429 42.1469 26.0464 42.3428C26.25 42.5386 26.5093 42.672 26.7917 42.7261C27.074 42.7801 27.3667 42.7524 27.6326 42.6464C27.8986 42.5404 28.1259 42.3609 28.2858 42.1306C28.4458 41.9003 28.5311 41.6295 28.5311 41.3526C28.5311 40.9811 28.3778 40.6249 28.1048 40.3623C27.8319 40.0997 27.4616 39.9521 27.0756 39.9521Z" fill="#00E0BC"/>
<path d="M23.8859 41.0952C23.6129 41.0952 23.346 41.1731 23.1189 41.3191C22.8919 41.465 22.7149 41.6725 22.6105 41.9152C22.506 42.1579 22.4786 42.425 22.5319 42.6827C22.5852 42.9403 22.7167 43.177 22.9097 43.3628C23.1028 43.5485 23.3488 43.675 23.6166 43.7263C23.8844 43.7775 24.162 43.7512 24.4142 43.6507C24.6665 43.5502 24.8821 43.3799 25.0338 43.1615C25.1855 42.943 25.2665 42.6862 25.2665 42.4235C25.2665 42.0712 25.121 41.7334 24.8621 41.4843C24.6032 41.2352 24.2521 41.0952 23.8859 41.0952Z" fill="#00DB94"/>
<path d="M20.4012 41.4985C20.1588 41.4985 19.9219 41.5677 19.7204 41.6972C19.5189 41.8268 19.3618 42.0109 19.2691 42.2264C19.1763 42.4418 19.152 42.6789 19.1993 42.9076C19.2466 43.1363 19.3633 43.3464 19.5347 43.5113C19.7061 43.6762 19.9244 43.7884 20.1621 43.8339C20.3998 43.8794 20.6462 43.8561 20.8701 43.7668C21.094 43.6776 21.2854 43.5265 21.4201 43.3326C21.5547 43.1387 21.6266 42.9108 21.6266 42.6776C21.6266 42.3649 21.4975 42.065 21.2677 41.8439C21.0379 41.6228 20.7262 41.4985 20.4012 41.4985Z" fill="#01D97B"/>
<path d="M17.03 41.0073C16.8102 41.0073 16.5954 41.07 16.4127 41.1875C16.23 41.3049 16.0876 41.4719 16.0035 41.6672C15.9194 41.8625 15.8974 42.0775 15.9403 42.2848C15.9832 42.4922 16.089 42.6827 16.2444 42.8322C16.3997 42.9817 16.5977 43.0835 16.8132 43.1247C17.0287 43.166 17.2521 43.1448 17.4551 43.0639C17.6581 42.983 17.8317 42.846 17.9537 42.6702C18.0758 42.4944 18.141 42.2877 18.141 42.0763C18.141 41.7928 18.0239 41.5209 17.8156 41.3204C17.6072 41.1199 17.3246 41.0073 17.03 41.0073Z" fill="#27DD4C"/>
<path d="M14.0111 39.7397C13.8111 39.7397 13.6156 39.7968 13.4494 39.9037C13.2831 40.0106 13.1535 40.1625 13.077 40.3403C13.0004 40.518 12.9804 40.7136 13.0194 40.9024C13.0584 41.0911 13.1547 41.2644 13.2961 41.4005C13.4375 41.5365 13.6177 41.6292 13.8138 41.6667C14.01 41.7042 14.2133 41.685 14.398 41.6113C14.5828 41.5377 14.7407 41.413 14.8518 41.253C14.9629 41.0931 15.0222 40.905 15.0222 40.7126C15.0222 40.4546 14.9157 40.2071 14.726 40.0247C14.5364 39.8422 14.2793 39.7397 14.0111 39.7397Z" fill="#6EE61B"/>
<path d="M11.4623 37.8042C11.279 37.8042 11.0998 37.8565 10.9474 37.9545C10.7949 38.0525 10.6761 38.1918 10.606 38.3548C10.5358 38.5177 10.5174 38.697 10.5532 38.8701C10.589 39.0431 10.6773 39.202 10.8069 39.3267C10.9365 39.4514 11.1017 39.5364 11.2815 39.5708C11.4613 39.6052 11.6477 39.5875 11.8171 39.52C11.9864 39.4525 12.1312 39.3382 12.2331 39.1916C12.3349 39.0449 12.3893 38.8725 12.3893 38.6961C12.3893 38.4595 12.2916 38.2327 12.1178 38.0654C11.944 37.8982 11.7082 37.8042 11.4623 37.8042Z" fill="#94EB03"/>
<path d="M9.49811 35.3711C9.33974 35.3711 9.18493 35.4163 9.05325 35.5009C8.92157 35.5856 8.81894 35.7059 8.75834 35.8467C8.69773 35.9875 8.68188 36.1424 8.71277 36.2918C8.74367 36.4413 8.81993 36.5785 8.93191 36.6863C9.0439 36.794 9.18657 36.8674 9.3419 36.8971C9.49722 36.9268 9.65822 36.9116 9.80453 36.8533C9.95085 36.795 10.0759 36.6962 10.1639 36.5695C10.2519 36.4428 10.2988 36.2939 10.2988 36.1415C10.2988 35.9372 10.2145 35.7412 10.0643 35.5967C9.91414 35.4523 9.71047 35.3711 9.49811 35.3711Z" fill="#92E905"/>
<path d="M8.23459 32.4658C8.093 32.4658 7.95458 32.5062 7.83685 32.5819C7.71912 32.6576 7.62736 32.7652 7.57317 32.891C7.51899 33.0169 7.50481 33.1554 7.53243 33.289C7.56006 33.4226 7.62824 33.5454 7.72836 33.6417C7.82849 33.738 7.95605 33.8036 8.09493 33.8302C8.2338 33.8568 8.37775 33.8432 8.50856 33.791C8.63938 33.7389 8.75119 33.6506 8.82986 33.5373C8.90852 33.4241 8.95051 33.2909 8.95051 33.1546C8.95051 32.972 8.87508 32.7968 8.74082 32.6676C8.60656 32.5384 8.42447 32.4658 8.23459 32.4658Z" fill="#74E019"/>
<path d="M7.78737 29.2075C7.65409 29.2075 7.52381 29.2455 7.413 29.3168C7.30219 29.388 7.21582 29.4893 7.16482 29.6078C7.11382 29.7262 7.10047 29.8566 7.12647 29.9823C7.15247 30.1081 7.21665 30.2236 7.31089 30.3143C7.40513 30.405 7.5252 30.4667 7.65591 30.4917C7.78662 30.5168 7.92211 30.5039 8.04524 30.4548C8.16837 30.4058 8.27361 30.3227 8.34765 30.2161C8.42169 30.1094 8.46121 29.9841 8.46121 29.8559C8.46121 29.6839 8.39022 29.519 8.26385 29.3974C8.13748 29.2758 7.96608 29.2075 7.78737 29.2075Z" fill="#5FDA27"/>
<path d="M8.23459 25.8677C8.093 25.8677 7.95458 25.9081 7.83685 25.9838C7.71912 26.0594 7.62736 26.167 7.57317 26.2929C7.51899 26.4188 7.50481 26.5573 7.53243 26.6909C7.56006 26.8245 7.62824 26.9472 7.72836 27.0436C7.82849 27.1399 7.95605 27.2055 8.09493 27.2321C8.2338 27.2587 8.37775 27.245 8.50856 27.1929C8.63938 27.1407 8.75119 27.0525 8.82986 26.9392C8.90852 26.8259 8.95051 26.6927 8.95051 26.5565C8.95051 26.3738 8.87508 26.1986 8.74082 26.0694C8.60656 25.9402 8.42447 25.8677 8.23459 25.8677Z" fill="#50D633"/>
<path d="M9.49811 22.8022C9.33974 22.8022 9.18493 22.8474 9.05325 22.9321C8.92157 23.0167 8.81894 23.1371 8.75834 23.2778C8.69773 23.4186 8.68188 23.5735 8.71277 23.723C8.74367 23.8724 8.81993 24.0097 8.93191 24.1174C9.0439 24.2252 9.18657 24.2985 9.3419 24.3283C9.49722 24.358 9.65822 24.3427 9.80453 24.2844C9.95085 24.2261 10.0759 24.1274 10.1639 24.0007C10.2519 23.874 10.2988 23.725 10.2988 23.5727C10.2988 23.3683 10.2145 23.1724 10.0643 23.0279C9.91414 22.8834 9.71047 22.8022 9.49811 22.8022Z" fill="#37CF45"/>
<path d="M11.4623 20.1274C11.279 20.1274 11.0998 20.1797 10.9474 20.2777C10.7949 20.3757 10.6761 20.515 10.606 20.678C10.5358 20.841 10.5174 21.0203 10.5532 21.1933C10.589 21.3663 10.6773 21.5252 10.8069 21.6499C10.9365 21.7747 11.1017 21.8596 11.2815 21.894C11.4613 21.9284 11.6477 21.9108 11.8171 21.8433C11.9864 21.7758 12.1312 21.6615 12.2331 21.5148C12.3349 21.3681 12.3893 21.1957 12.3893 21.0193C12.3893 20.9022 12.3653 20.7862 12.3187 20.678C12.2721 20.5698 12.2039 20.4715 12.1178 20.3887C12.0317 20.3058 11.9295 20.2402 11.8171 20.1953C11.7046 20.1505 11.5841 20.1274 11.4623 20.1274Z" fill="#20C851"/>
<path d="M14.0111 18.0283C13.8111 18.0283 13.6156 18.0854 13.4494 18.1923C13.2831 18.2992 13.1535 18.4511 13.077 18.6289C13.0004 18.8066 12.9804 19.0022 13.0194 19.1909C13.0584 19.3796 13.1547 19.553 13.2961 19.689C13.4375 19.8251 13.6177 19.9177 13.8138 19.9553C14.01 19.9928 14.2133 19.9735 14.398 19.8999C14.5828 19.8263 14.7407 19.7016 14.8518 19.5416C14.9629 19.3816 15.0222 19.1936 15.0222 19.0011C15.0222 18.7431 14.9157 18.4957 14.726 18.3133C14.5364 18.1308 14.2793 18.0283 14.0111 18.0283Z" fill="#0FC138"/>
<path d="M17.03 16.5698C16.8102 16.5698 16.5954 16.6325 16.4127 16.75C16.23 16.8674 16.0876 17.0344 16.0035 17.2297C15.9194 17.425 15.8974 17.64 15.9403 17.8473C15.9832 18.0547 16.089 18.2452 16.2444 18.3947C16.3997 18.5442 16.5977 18.646 16.8132 18.6872C17.0287 18.7285 17.2521 18.7073 17.4551 18.6264C17.6581 18.5455 17.8317 18.4085 17.9537 18.2327C18.0758 18.0569 18.141 17.8502 18.141 17.6388C18.141 17.3553 18.0239 17.0834 17.8156 16.8829C17.6072 16.6824 17.3246 16.5698 17.03 16.5698Z" fill="#10C143"/>
<path d="M20.4012 15.8569C20.1588 15.8569 19.9219 15.9261 19.7204 16.0556C19.5189 16.1852 19.3618 16.3693 19.2691 16.5848C19.1763 16.8002 19.152 17.0373 19.1993 17.266C19.2466 17.4947 19.3633 17.7048 19.5347 17.8697C19.7061 18.0345 19.9244 18.1468 20.1621 18.1923C20.3998 18.2378 20.6462 18.2145 20.8701 18.1252C21.094 18.036 21.2854 17.8849 21.4201 17.691C21.5547 17.4971 21.6266 17.2692 21.6266 17.036C21.6266 16.7233 21.4975 16.4234 21.2677 16.2023C21.0379 15.9812 20.7262 15.8569 20.4012 15.8569Z" fill="#0FC139"/>
<path d="M23.8859 15.9653C23.6129 15.9653 23.346 16.0432 23.1189 16.1892C22.8919 16.3351 22.7149 16.5426 22.6105 16.7853C22.506 17.028 22.4786 17.2951 22.5319 17.5528C22.5852 17.8104 22.7167 18.0471 22.9097 18.2329C23.1028 18.4187 23.3488 18.5452 23.6166 18.5964C23.8844 18.6477 24.162 18.6214 24.4142 18.5208C24.6665 18.4203 24.8821 18.25 25.0338 18.0316C25.1855 17.8132 25.2665 17.5563 25.2665 17.2936C25.2665 16.9413 25.121 16.6035 24.8621 16.3544C24.6032 16.1053 24.2521 15.9653 23.8859 15.9653Z" fill="#0FC138"/>
<path d="M27.0756 16.9609C26.7877 16.9609 26.5063 17.0431 26.267 17.1969C26.0276 17.3508 25.8411 17.5695 25.7309 17.8254C25.6207 18.0813 25.5919 18.3629 25.6481 18.6346C25.7042 18.9062 25.8429 19.1557 26.0464 19.3516C26.25 19.5474 26.5093 19.6808 26.7917 19.7349C27.074 19.7889 27.3667 19.7612 27.6326 19.6552C27.8986 19.5492 28.1259 19.3697 28.2858 19.1394C28.4458 18.9091 28.5311 18.6383 28.5311 18.3613C28.5311 17.9899 28.3778 17.6337 28.1048 17.3711C27.8319 17.1085 27.4616 16.9609 27.0756 16.9609Z" fill="#08BE28"/>
<path d="M29.8387 18.8066C29.5656 18.8066 29.2987 18.8845 29.0717 19.0305C28.8447 19.1765 28.6677 19.3839 28.5632 19.6266C28.4587 19.8693 28.4314 20.1364 28.4847 20.3941C28.5379 20.6517 28.6694 20.8884 28.8625 21.0742C29.0556 21.26 29.3015 21.3865 29.5693 21.4377C29.8371 21.489 30.1147 21.4627 30.367 21.3621C30.6193 21.2616 30.8349 21.0913 30.9866 20.8729C31.1383 20.6545 31.2192 20.3977 31.2192 20.1349C31.2192 19.7827 31.0738 19.4448 30.8149 19.1957C30.556 18.9466 30.2048 18.8066 29.8387 18.8066Z" fill="#02BB19"/>
<path d="M32.06 21.4629C31.848 21.4629 31.6407 21.5234 31.4643 21.6368C31.288 21.7501 31.1506 21.9112 31.0694 22.0997C30.9883 22.2883 30.967 22.4957 31.0084 22.6958C31.0498 22.8959 31.1519 23.0797 31.3018 23.224C31.4518 23.3683 31.6428 23.4666 31.8508 23.5064C32.0588 23.5462 32.2744 23.5257 32.4703 23.4477C32.6663 23.3696 32.8337 23.2373 32.9515 23.0677C33.0694 22.898 33.1323 22.6986 33.1323 22.4945C33.1323 22.2209 33.0193 21.9585 32.8182 21.7651C32.6171 21.5716 32.3444 21.4629 32.06 21.4629Z" fill="#00BA14"/>
</g>
<defs>
<clipPath id="clip0_17042_11346">
<rect width="142" height="28" fill="white" transform="translate(7.11353 15.8569)"/>
</clipPath>
</defs>
</svg>
