<svg width="160" height="58" viewBox="0 0 160 58" fill="none" xmlns="http://www.w3.org/2000/svg">
<path fill-rule="evenodd" clip-rule="evenodd" d="M51.8402 36.3349H61.0825V33.4541H55.3656V31.0379H60.4632V28.3429H55.3656V25.9267H61.0825V23.0459H51.8402V36.3349ZM72.5639 30.6197C71.2299 32.7107 69.9437 33.547 68.2286 33.547C66.0371 33.547 64.7985 32.0601 64.7985 29.4581C64.7985 26.9954 65.9418 25.7873 67.7522 25.7873C68.9432 25.7873 69.896 26.2985 70.2295 28.0177H73.7549C73.3738 24.7651 71.2299 22.7206 67.7998 22.7206C63.8457 22.7206 61.2254 25.4621 61.2254 29.6439C61.2254 33.8723 63.8457 36.6137 68.1333 36.6137C70.9441 36.6137 72.8497 35.4521 74.0884 33.9188H78.9001V36.3349H82.3778V22.9994H77.4709L72.5639 30.6197ZM78.9001 31.2702H75.8034L78.9001 26.3449V31.2702ZM44.313 22.9994H39.1679V36.3349H44.313C48.4101 36.3349 51.0304 33.7329 51.0304 29.6439C51.0304 25.555 48.4101 22.9994 44.313 22.9994ZM44.2654 33.4541H42.6933V25.8803H44.2654C46.3139 25.8803 47.4573 27.2742 47.4573 29.6439C47.4573 32.0601 46.3139 33.4541 44.2654 33.4541ZM122.825 22.7206C118.68 22.7206 115.917 25.4621 115.917 29.6439C115.917 33.8258 118.68 36.5673 122.825 36.5673C126.969 36.5673 129.733 33.8258 129.733 29.6439C129.733 25.4621 126.969 22.7206 122.825 22.7206ZM122.825 33.547C120.776 33.547 119.49 32.1995 119.49 29.6904C119.49 27.1813 120.776 25.8338 122.825 25.8338C124.873 25.8338 126.159 27.1813 126.159 29.6904C126.159 32.1995 124.873 33.547 122.825 33.547ZM83.283 25.8803H86.7131V36.3349H90.2385V25.8803H93.6686V22.9994H83.2354V25.8803H83.283ZM138.737 22.9994V30.3409L134.211 22.9994H130.542V36.3349H133.925V28.7146L138.641 36.3814H142.119V22.9994H138.737ZM110.915 22.9994H107.389V36.3349H116.203V33.4541H110.915V22.9994ZM102.863 28.1106H98.0992V22.9994H94.6214V36.3349H98.1468V30.9914H102.911V36.3814H106.436V22.9994H102.911L102.863 28.1106ZM29.2586 20.165C21.6361 20.165 12.108 27.8783 12.108 34.2905C12.108 37.5895 14.7283 39.2623 18.1584 39.2623C20.6833 39.2623 23.7323 38.3794 26.686 36.6137V23.8358C25.9238 25.1368 22.2078 30.4339 19.2541 33.2218C17.7296 34.6622 16.5386 35.2662 15.5382 35.2662C14.3948 35.2662 13.8231 34.5228 13.8231 33.3612C13.8231 28.2035 22.7319 21.4661 28.6393 21.4661C31.069 21.4661 32.6411 22.5348 32.6411 24.5792C32.6411 26.4378 31.3548 28.8076 29.1157 30.9914V34.941C33.0222 31.9672 35.309 28.1106 35.309 25.0439C35.2613 21.8378 32.6887 20.165 29.2586 20.165Z" fill="#3643BA"/>
</svg>
