<svg width="160" height="58" viewBox="0 0 160 58" fill="none" xmlns="http://www.w3.org/2000/svg">
<g clip-path="url(#clip0_17040_11232)">
<path d="M20.4462 18.3698V18.9849H22.7404V30.9404C22.7404 34.5332 21.7439 35.5449 19.5222 35.5449C18.1249 35.5449 17.8946 34.4835 17.8946 33.9342C17.8946 32.6271 17.822 31.8272 16.6315 31.8272C15.4341 31.8272 15.2941 33.0364 15.2941 33.406C15.2941 35.0522 16.0265 36.3119 19.2978 36.3119C23.1969 36.3119 25.281 34.9956 25.281 30.624V18.9815L27.6504 18.9849V18.3698H20.4462ZM27.6157 33.9406C27.3381 34.2173 27.2006 34.5456 27.2006 34.9438C27.2006 35.3396 27.3381 35.6653 27.6191 35.9277C27.8984 36.2019 28.2308 36.3344 28.619 36.3344C29.0138 36.3344 29.3471 36.2019 29.6323 35.9277C29.9066 35.6653 30.0458 35.3396 30.0458 34.9438C30.0458 34.5413 29.9066 34.2123 29.6323 33.9406C29.3573 33.6646 29.0257 33.5372 28.619 33.5372C28.2173 33.5372 27.8857 33.6646 27.6157 33.9406ZM43.6148 33.9406C43.3405 34.2173 43.2081 34.5456 43.2081 34.9438C43.2081 35.3396 43.3405 35.6653 43.6148 35.9277C43.9067 36.2019 44.2299 36.3344 44.618 36.3344C45.0197 36.3344 45.3546 36.2019 45.6373 35.9277C45.9158 35.6653 46.0533 35.3396 46.0533 34.9438C46.0533 34.5413 45.9158 34.2123 45.639 33.9406C45.3589 33.6646 45.023 33.5372 44.618 33.5372C44.2215 33.5372 43.8882 33.6646 43.6148 33.9406ZM32.5435 18.3713V18.9847H34.6158V32.6228C34.6158 33.6952 34.55 33.9736 34.4301 34.2842C34.3019 34.631 34.0125 34.9043 33.5838 35.0824C33.2649 35.2165 32.7814 35.2874 32.1368 35.3051V35.8688H39.7308V35.311C39.087 35.295 38.5959 35.2216 38.2744 35.1068C37.8213 34.928 37.5277 34.6647 37.3842 34.3078C37.2585 34.0007 37.1935 33.7306 37.1935 33.1915V28.5211L39.0726 28.5136C44.5302 28.5136 46.0642 26.3602 46.0642 23.4213C46.0642 20.4512 45.1225 18.3696 39.5966 18.3696L32.5435 18.3713ZM37.1935 19.0632L38.4989 19.0455C42.7076 19.0455 43.6265 20.7769 43.6265 23.5825C43.6265 26.4058 41.9719 27.8461 38.6339 27.8461H37.1935V19.0632ZM65.765 18.4108C65.7017 18.5728 60.4171 31.7417 60.4171 31.7417L60.2965 31.8202L60.1699 31.7417C60.1699 31.7417 54.5385 18.5728 54.4727 18.4108H49.5037V18.9744H51.6604V32.518L51.614 33.7516C51.5794 34.0773 51.4781 34.3675 51.3187 34.5987C51.1507 34.851 50.8774 35.0417 50.5221 35.1674C50.2876 35.2442 49.9382 35.2957 49.5037 35.3058V35.8695H54.4356V35.3134C54.0162 35.2957 53.834 35.2543 53.5884 35.1725C53.2264 35.0535 52.9547 34.8738 52.775 34.6164C52.6147 34.3768 52.5109 34.0908 52.4746 33.7516L52.4198 32.518V20.8198H52.7092C52.7092 20.8198 59.0865 35.7058 59.1531 35.8695H59.6856L65.7211 20.9852H65.873V33.047C65.873 33.5634 65.8207 33.9617 65.7211 34.2705C65.6022 34.6316 65.3448 34.9042 64.9719 35.0881C64.6951 35.2113 64.2732 35.2839 63.7172 35.3058V35.8695H70.5982V35.3058C70.0489 35.2788 69.6236 35.2046 69.335 35.0755C68.9351 34.8805 68.676 34.5987 68.5621 34.2384C68.4626 33.9237 68.4145 33.5389 68.4145 33.047V18.9854L70.2438 18.9677V18.4108H65.765ZM71.8433 29.7396C71.8433 35.9709 76.6916 36.3826 77.7379 36.3826C79.8102 36.3826 83.7389 35.09 83.7389 29.6223C83.7389 25.3679 81.2261 23.0526 77.8206 23.0526C74.1476 23.0526 71.8433 25.4869 71.8433 29.7396ZM74.5855 29.8088C74.5855 26.3914 74.7982 23.8272 77.7717 23.8272C80.9848 23.8272 81 26.4809 81 29.5936C81 34.0665 80.2355 35.6097 77.7717 35.6097C75.0108 35.6097 74.5855 34.2302 74.5855 29.8088ZM89.8593 25.8628L89.6872 25.8569C89.6686 25.8628 89.3708 23.9348 89.2585 23.3669C88.4013 23.3669 85.0067 23.3585 85.0067 23.3585V24.0107H87.3077C87.3077 24.0107 87.2942 25.9641 87.2942 26.6678V32.6502C87.2942 33.5066 87.1997 34.104 87.0149 34.466C86.7795 34.893 86.2521 35.1073 85.3788 35.1073H85.0067V35.8692H92.1316V35.1073H91.7477C90.8128 35.1073 90.4094 34.9039 90.1588 34.4989C89.9319 34.142 89.8306 33.537 89.8306 32.6502V28.1638C89.8306 26.6509 90.9697 24.9288 92.3349 24.9288C93.7618 24.9288 93.728 27.1268 95.3456 26.2425C96.2248 25.7616 96.0763 23.2429 93.3475 23.2429C91.1503 23.2429 90.4651 24.5406 89.8593 25.8628ZM112.104 24.0167C111.291 24.636 110.975 25.2081 110.975 26.0274C110.975 26.408 111.077 26.6763 111.291 26.8569C111.505 27.0476 111.758 27.1353 112.066 27.1353C112.774 27.1353 113.173 26.775 113.32 25.8435C113.428 25.1524 113.579 24.7584 113.919 24.3981C114.283 24.0167 114.852 23.826 115.62 23.826C116.513 23.826 117.145 24.0665 117.5 24.5474C117.825 24.9997 117.997 25.6148 117.997 26.3742V28.4727C115.714 28.6786 110.324 29.1114 110.564 33.2173C110.654 34.8238 112.071 36.2338 113.901 36.2338C115.924 36.2338 117.205 35.0812 118.074 34.1589C118.213 35.0331 119.025 36.0768 120.5 36.0768C122.159 36.0768 123.15 35.2634 123.265 33.2299H122.839C122.727 34.1142 122.18 34.591 121.73 34.591C120.968 34.591 120.725 34.1665 120.669 33.4603L120.624 31.8588V26.6181C120.624 25.4866 120.442 24.7263 119.774 24.0597C119.118 23.3931 117.847 23.0523 116.01 23.0523C114.247 23.0523 112.937 23.378 112.104 24.0167ZM113.058 32.7363C113.058 30.4066 116.249 29.2414 117.997 29.2414V33.2662L117.954 33.3658L117.901 33.4164C116.68 34.5234 115.748 34.9183 115.066 34.9183C113.32 34.9183 113.058 33.4637 113.058 32.7363ZM128.28 25.6259L128.051 25.6166L127.605 23.3435L123.732 23.3367V23.9889C124.459 24.0193 125.672 24.0328 125.672 24.0328V32.636C125.672 33.3043 125.619 33.7852 125.521 34.1042C125.418 34.4847 125.17 34.7505 124.805 34.9041C124.57 35.0053 124.202 35.061 123.732 35.0821V35.8694H129.89V35.0762C129.27 35.0264 128.853 34.8585 128.63 34.5421C128.389 34.2037 128.28 33.6224 128.28 32.7727V29.4685C128.28 28.0863 128.272 26.7515 128.744 25.9254C129.253 25.0251 130.184 24.529 131.227 24.529C132.164 24.529 132.658 24.8294 132.968 25.4242C133.22 25.9085 133.384 27.3497 133.384 28.3412L133.353 32.436C133.353 33.1178 133.439 33.6224 133.384 33.9456C133.315 34.3227 133.143 34.6164 132.847 34.8113C132.632 34.9598 132.294 35.0366 131.86 35.0695V35.8694H137.795V35.0821C137.044 35.0332 136.553 34.8509 136.338 34.4999C136.094 34.1422 135.892 33.5397 135.892 32.6419L135.926 26.9734C135.926 26.1541 135.816 25.4529 135.508 24.8775C135.197 24.318 134.76 23.8936 134.217 23.6143C133.664 23.3367 133.031 23.2 132.336 23.2C129.832 23.2 128.827 24.7281 128.28 25.6259ZM108.454 22.5473C108.087 22.6645 107.843 22.9911 107.714 23.5429C107.618 24.0517 107.425 24.3462 107.167 24.4289C106.909 24.5048 106.621 24.4829 106.279 24.3664C105.641 23.7733 104.417 23.0527 102.262 23.0527C98.7927 23.0527 97.2638 25.5241 97.2638 27.7787C97.2638 30.418 98.278 31.6955 100.51 32.1655C100.645 32.1942 100.645 32.3435 100.528 32.3705C98.624 32.7562 96.9373 33.313 96.9373 35.1221C96.9373 36.2123 97.5633 36.8097 98.3641 37.1362C99.2484 37.4957 100.491 37.6821 102.051 37.71C103.416 37.7252 104.383 37.7733 105.012 37.8484C105.693 37.926 106.232 38.1201 106.631 38.4103C107.041 38.7276 107.258 39.195 107.258 39.8068C107.258 40.6438 106.81 41.3171 105.918 41.8158C105.087 42.2799 103.952 42.5221 102.541 42.5221C101.33 42.5221 100.339 42.3896 99.445 41.8327C98.7826 41.4226 98.6535 40.616 98.7927 40.0354C98.9159 39.4482 98.7058 38.8288 98.0249 38.7141C97.6503 38.6508 97.1786 38.855 96.9609 39.195C96.7567 39.5115 96.685 39.8878 96.685 40.3367C96.685 41.8251 97.8342 42.5221 98.7126 42.7786C100.052 43.187 100.941 43.2857 102.173 43.2857C103.806 43.2857 105.133 43.0359 106.081 42.5558C107.03 42.0765 107.691 41.491 108.044 40.8176C108.416 40.1392 108.594 39.4473 108.594 38.7807C108.594 37.8813 108.397 37.148 108.013 36.608C106.773 34.9036 105.012 35.1221 101.055 34.9331C99.1513 34.9331 98.7843 34.5897 98.7843 34.0041C98.7843 33.146 99.4897 32.8076 102.246 32.3849C104.958 31.963 107.486 30.9673 107.486 27.6547C107.486 26.702 107.263 25.8836 106.994 25.3115C107.555 25.4364 108.079 25.4364 108.556 25.2786C109.104 25.1098 109.459 24.8356 109.665 24.4508C109.871 24.0652 109.917 23.7024 109.803 23.348C109.622 22.7683 109.311 22.4789 108.863 22.4789C108.738 22.4789 108.602 22.5017 108.454 22.5473ZM99.78 27.7787C99.78 25.4524 100.592 23.7218 102.328 23.7218C104.349 23.7218 104.94 25.2988 104.94 27.7306C104.94 31.2087 103.844 31.6643 102.328 31.6643C100.707 31.6643 99.78 31.0753 99.78 27.7787Z" fill="black"/>
</g>
<defs>
<clipPath id="clip0_17040_11232">
<rect width="138.862" height="34.7155" fill="white" transform="translate(7.11353 11.9277)"/>
</clipPath>
</defs>
</svg>
