<svg width="160" height="58" viewBox="0 0 160 58" fill="none" xmlns="http://www.w3.org/2000/svg">
<g clip-path="url(#clip0_17040_11218)">
<path d="M14.5527 50.7243H71.2241L43.0387 22.5394L14.5527 50.7243Z" fill="#7BB51C"/>
<path d="M13.4698 49.3384L17.8851 45.0311L16.4144 43.5229L13.6412 46.2293L8.75599 41.2205L7.11353 42.8229L13.4698 49.3384Z" fill="black"/>
<path d="M18.8542 44.0502L23.3782 39.6354L22.1358 38.3627L19.2633 41.1649L17.8838 39.7507L20.1857 37.5049L18.8857 36.1733L16.5838 38.4179L15.4019 37.2066L18.18 34.4956L16.9385 33.2234L12.4287 37.6235L18.8542 44.0502Z" fill="black"/>
<path d="M33.6617 23.1211C31.8372 21.2508 28.6722 21.4746 27.1479 22.962C25.6233 24.4494 24.8452 27.4153 26.9982 29.6222C29.3631 32.0461 32.1768 31.1657 33.7014 29.6791C35.9493 27.486 35.1492 24.6458 33.6617 23.1211ZM32.3208 28.3983C31.3116 29.3829 30.0778 29.1158 28.6681 27.6705C27.4834 26.4564 27.5545 25.2365 28.4161 24.3958C29.0084 23.8178 30.2115 23.3007 31.6429 24.7681C33.276 26.442 33.33 27.4136 32.3208 28.3983Z" fill="black"/>
<path d="M38.7503 24.6744L40.4194 23.0454L37.9084 20.4719L36.4054 14.2187L34.4922 16.0857L35.4875 19.6333L32.1248 18.395L30.3208 20.1549L36.0536 21.9957L38.7503 24.6744Z" fill="black"/>
<path d="M29.8511 33.3666C29.8511 33.3666 25.7889 31.9806 25.5959 32.0142C25.5333 32.0244 26.4684 29.5359 24.3674 28.433C24.3674 28.433 22.8084 27.5891 21.2481 29.0066L17.9227 32.2837L24.3334 38.7399L26.0295 37.0851L22.5605 33.5302L28.1682 35.0086L29.8511 33.3666ZM23.5594 32.4801C22.6169 33.3981 22.4897 33.4705 22.4897 33.4705C22.4897 33.4705 21.0121 31.9561 20.9597 31.9025C20.9074 31.8489 22.0164 30.8982 22.1911 30.7276C22.2651 30.6552 22.9556 30.2048 23.5271 30.7902C23.5271 30.7902 24.5016 31.5605 23.5594 32.4801Z" fill="black"/>
<path d="M38.2324 15.4508L36.7491 13.9552L43.2248 7.53223L45.3443 9.66886L43.0113 14.2604L47.7677 12.1123L49.807 14.1688L43.3312 20.5918L41.7681 19.016L45.1864 15.6259L40.5102 17.7474L39.5435 16.7726L41.717 12.1009L38.2324 15.4508Z" fill="black"/>
<path d="M49.4764 26.7873L44.9863 22.2608L51.4625 15.8378L55.9653 20.3778L54.657 21.6754L51.836 18.8315L50.781 19.8775L53.006 22.1209L51.6438 23.4717L49.4323 21.2418L48.0168 22.6454L50.8113 25.4627L49.4764 26.7873Z" fill="black"/>
<path d="M64.2823 28.7632L65.951 30.4461L61.0506 35.306L63.7919 38.069L62.2161 39.6329L57.8062 35.1866L64.2823 28.7632Z" fill="black"/>
<path d="M63.3815 40.8082L69.8577 34.3852L71.4867 36.0272L65.0105 42.4498L63.3815 40.8082Z" fill="black"/>
<path d="M67.9637 45.4288L66.4403 43.8927L72.9168 37.4701L75.1287 39.6988L73.2388 46.3676L77.5256 42.1156L79.0089 43.6112L72.5331 50.0338L70.599 48.0849L72.2644 41.0839L67.9637 45.4288Z" fill="black"/>
<path d="M61.3558 25.8125L57.4224 21.8464L50.9328 28.2563L52.6014 29.9385L56.1396 26.4294L54.8661 32.222L56.5744 33.9446C56.5744 33.9446 57.9211 29.801 57.9624 29.6284C57.9624 29.6284 59.4216 30.4322 61.0228 29.0557C61.0228 29.0557 62.5585 27.5592 61.3558 25.8125ZM58.954 27.691C58.954 27.691 58.1273 28.2461 57.3987 27.5118L56.2607 26.3099C56.2607 26.3099 57.6356 24.946 57.809 24.7738C57.809 24.7738 58.8686 25.8423 59.0011 25.9757C59.1332 26.1091 59.9686 26.7374 58.954 27.691Z" fill="black"/>
</g>
<defs>
<clipPath id="clip0_17040_11218">
<rect width="71.8954" height="43.2212" fill="white" transform="translate(7.11353 7.53223)"/>
</clipPath>
</defs>
</svg>
