<svg width="160" height="58" viewBox="0 0 160 58" fill="none" xmlns="http://www.w3.org/2000/svg">
<g clip-path="url(#clip0_17040_11291)">
<path d="M41.5533 23.691H42.8782C46.0976 23.691 48.0982 25.5484 48.0982 28.5334C48.0982 31.3652 45.9916 33.3432 42.9776 33.3432H41.5533V23.691ZM57.3358 27.2397C56.7131 20.0738 50.9367 15 43.1432 15H32.3223V42.07H42.2588L57.3358 27.2397Z" fill="black"/>
<path d="M67.9543 15H58.6604V42.07H67.9543V15Z" fill="black"/>
<path d="M74.1387 32.6035C71.2538 32.6035 69.1638 34.6761 69.1638 37.5307C69.1638 40.4146 71.2107 42.4285 74.1387 42.4285C77.0236 42.4285 79.1135 40.369 79.1135 37.5307C79.1168 34.6761 77.0236 32.6035 74.1387 32.6035Z" fill="#F26624"/>
<path d="M16.3743 23.5639H19.2327C20.6834 23.5639 21.6936 24.561 21.6936 25.9851C21.6936 27.3863 20.6801 28.3672 19.2327 28.3672H16.3743V23.5639ZM17.2719 15H7.11353V42.07H16.3743V36.9245H19.4877C25.1913 36.9245 29.6693 33.3204 30.7226 28.2303L17.2719 15Z" fill="black"/>
<path d="M30.7224 28.2336C30.8748 27.4906 30.9576 26.715 30.9576 25.9134C30.9576 22.9577 29.838 20.2237 27.8077 18.2163C25.7078 16.1406 22.7666 15 19.524 15H17.2717L30.7224 28.2336Z" fill="#22BFFF"/>
<path d="M42.2625 42.0704H43.2429C51.3114 42.0704 57.3958 36.2503 57.3958 28.5337C57.3958 28.0938 57.3759 27.6604 57.3395 27.2368L42.2625 42.0704Z" fill="#40C75C"/>
</g>
<defs>
<clipPath id="clip0_17040_11291">
<rect width="72" height="28" fill="white" transform="translate(7.11353 15)"/>
</clipPath>
</defs>
</svg>
