<svg width="25" height="25" viewBox="0 0 25 25" fill="none" xmlns="http://www.w3.org/2000/svg">
<path d="M14.2617 2.0752C12.14 2.0752 10.1052 2.91805 8.60486 4.41834C7.10457 5.91863 6.26172 7.95346 6.26172 10.0752C6.26172 12.1969 7.10457 14.2318 8.60486 15.732C10.1052 17.2323 12.14 18.0752 14.2617 18.0752C16.3835 18.0752 18.4183 17.2323 19.9186 15.732C21.4189 14.2318 22.2617 12.1969 22.2617 10.0752H20.2617C20.2617 13.3952 17.5817 16.0752 14.2617 16.0752C12.6704 16.0752 11.1443 15.4431 10.0191 14.3178C8.89386 13.1926 8.26172 11.6665 8.26172 10.0752C8.26172 8.4839 8.89386 6.95777 10.0191 5.83255C11.1443 4.70734 12.6704 4.0752 14.2617 4.0752C14.6917 4.0752 15.1217 4.1252 15.5317 4.2152L17.1417 2.6152C16.2217 2.2552 15.2617 2.0752 14.2617 2.0752ZM20.8517 3.6552L14.2617 10.2452L11.8817 7.8652L10.4717 9.2852L14.2617 13.0752L22.2617 5.0752M5.19172 5.8952C3.34172 7.4152 2.26172 9.68519 2.26172 12.0752C2.26172 14.1969 3.10457 16.2318 4.60486 17.732C6.10516 19.2323 8.13999 20.0752 10.2617 20.0752C10.9017 20.0752 11.5317 19.9952 12.1417 19.8452C10.3817 19.4552 8.76172 18.5752 7.43172 17.3652C5.48172 16.3252 4.26172 14.2852 4.26172 12.0752C4.26172 11.7752 4.29172 11.4852 4.33172 11.1852C4.29172 10.8152 4.26172 10.4452 4.26172 10.0752C4.26172 8.6352 4.58172 7.2052 5.19172 5.8952Z" fill="#02BE8A"/>
</svg>
