<svg width="548" height="391" viewBox="0 0 548 391" fill="none" xmlns="http://www.w3.org/2000/svg">
<line x1="268.783" y1="176.126" x2="353.354" y2="223.985" stroke="#363EB9" stroke-linecap="round" stroke-dasharray="2 2"/>
<path d="M192.316 226.579L112.355 179.841C105.886 176.06 105.886 166.712 112.355 162.931L192.316 116.193C195.351 114.419 199.103 114.408 202.149 116.163L283.236 162.901C289.773 166.669 289.773 176.103 283.236 179.871L202.149 226.608C199.103 228.364 195.351 228.352 192.316 226.579Z" fill="#2B3193" fill-opacity="0.4"/>
<g filter="url(#filter0_d_26472_14656)">
<path d="M192.316 208.391L112.355 161.653C105.886 157.872 105.886 148.524 112.355 144.743L192.316 98.0053C195.351 96.2315 199.103 96.2201 202.149 97.9754L283.236 144.713C289.773 148.481 289.773 157.915 283.236 161.683L202.149 208.421C199.103 210.176 195.351 210.165 192.316 208.391Z" fill="white"/>
<path d="M192.316 208.391L112.355 161.653C105.886 157.872 105.886 148.524 112.355 144.743L192.316 98.0053C195.351 96.2315 199.103 96.2201 202.149 97.9754L283.236 144.713C289.773 148.481 289.773 157.915 283.236 161.683L202.149 208.421C199.103 210.176 195.351 210.165 192.316 208.391Z" stroke="#2B3193" stroke-width="0.699534"/>
</g>
<line x1="244.674" y1="190.745" x2="329.245" y2="238.604" stroke="#363EB9" stroke-linecap="round" stroke-dasharray="2 2"/>
<line x1="249.814" y1="187.899" x2="334.385" y2="235.758" stroke="#A950FF" stroke-linecap="round" stroke-dasharray="2 2"/>
<line x1="220.674" y1="203.745" x2="305.245" y2="251.604" stroke="#363EB9" stroke-linecap="round" stroke-dasharray="2 2"/>
<line x1="225.814" y1="200.899" x2="310.385" y2="248.758" stroke="#A950FF" stroke-linecap="round" stroke-dasharray="2 2"/>
<line x1="273.392" y1="173.569" x2="357.963" y2="221.428" stroke="#A950FF" stroke-linecap="round" stroke-dasharray="2 2"/>
<g transform="translate(149 141.6) scale(0.7)">
<path d="M72.9118 0.0538142L101.103 0.0631996C101.119 8.11753 101.521 11.2586 97.557 18.4276C97.9198 19.0327 98.3192 19.6147 98.7542 20.17C100.667 22.577 102.801 23.7573 105.861 24.1205C105.771 26.7135 105.826 29.6091 105.819 32.2251C105.514 32.2231 105.209 32.2087 104.906 32.1824C99.746 31.7059 95.2882 28.9419 92.039 24.9896L90.228 26.4361C84.3574 30.816 79.1133 32.2378 71.9517 32.1925L71.9378 24.0865C73.4875 24.0897 74.9447 24.0952 76.478 23.8537C85.0321 22.5069 91.1576 16.2057 92.8608 7.8914C86.1925 7.84676 79.4773 7.95304 72.823 7.86883C72.8204 6.65312 72.7114 0.806248 72.9118 0.0538142Z" fill="#2B3192"/>
<path d="M0.785534 0.0547078C11.879 -0.0617146 23.215 0.0410112 34.3253 0.059654C34.3322 5.34952 34.8353 9.52893 31.659 14.1652C29.1866 17.7739 25.7607 19.8953 21.4969 20.7184C19.5673 26.778 15.4712 30.4492 9.26788 31.7796C6.73855 32.1051 2.67087 31.99 0.0109065 31.9877L0 24.1107C5.30775 24.126 11.9111 25.1776 13.6278 18.4976C14.0565 16.8292 13.9027 14.4341 13.8936 12.6824C19.1307 12.7441 23.144 13.6863 25.4231 7.9103C17.3003 7.6975 8.9034 8.01468 0.749262 7.86389C0.738482 6.04222 0.600501 1.75742 0.785534 0.0547078Z" fill="#2B3192"/>
<path d="M108.849 0.0456973L116.717 0.0597735L116.711 9.06526C121.939 11.0898 124.387 10.9122 129.855 10.9048L139.812 10.902L139.799 18.7798L124.934 18.768C122.115 18.8033 119.391 18.0152 116.712 17.2501L116.713 32.1955L108.833 32.1925C108.83 21.5412 108.714 10.6796 108.849 0.0456973Z" fill="#2B3192"/>
<path d="M62.2852 3.80609L70.4311 3.81865C70.4552 8.74986 70.1699 12.9336 68.1737 17.5297C63.9827 27.1731 55.9979 31.4195 45.9327 32.187L37.7537 32.1916L37.7484 24.0821C44.8879 24.0944 51.6089 24.5411 57.1695 19.0198C61.5489 14.6712 62.2802 9.65334 62.2852 3.80609Z" fill="#2B3192"/>
<path d="M37.7601 0.0456973L54.3979 0.0619331V6.79845C53.9711 7.15863 39.1391 6.97537 37.7481 6.97448L37.7601 0.0456973Z" fill="#2B3192"/>
<path d="M37.7441 9.52513L54.3987 9.52158C54.4034 11.8031 54.44 14.1801 54.3789 16.453C48.9517 16.5436 43.2029 16.4582 37.7536 16.4583L37.7441 9.52513Z" fill="#2B3192"/>
</g>
<path d="M338.316 317.518L258.355 270.78C251.886 266.999 251.886 257.651 258.355 253.87L338.316 207.132C341.351 205.359 345.103 205.347 348.149 207.103L429.236 253.84C435.773 257.608 435.773 267.042 429.236 270.81L348.149 317.548C345.103 319.303 341.351 319.292 338.316 317.518Z" fill="#6D03D9" fill-opacity="0.1"/>
<g filter="url(#filter1_d_26472_14656)">
<path d="M338.316 299.33L258.355 252.593C251.886 248.812 251.886 239.463 258.355 235.682L338.316 188.945C341.351 187.171 345.103 187.16 348.149 188.915L429.236 235.653C435.773 239.421 435.773 248.854 429.236 252.622L348.149 299.36C345.103 301.115 341.351 301.104 338.316 299.33Z" fill="#CDC5FF"/>
<path d="M338.316 299.33L258.355 252.593C251.886 248.812 251.886 239.463 258.355 235.682L338.316 188.945C341.351 187.171 345.103 187.16 348.149 188.915L429.236 235.653C435.773 239.421 435.773 248.854 429.236 252.622L348.149 299.36C345.103 301.115 341.351 301.104 338.316 299.33Z" stroke="#6D04DA" stroke-width="0.699534"/>
</g>
<g clip-path="url(#clip0_26472_14656)">
<path d="M274.42 246.126C269.607 243.347 269.646 238.91 274.507 236.216L335.633 202.333C340.494 199.638 348.336 199.707 353.149 202.485L413.675 237.43C418.488 240.209 418.45 244.646 413.589 247.34L352.462 281.223C347.602 283.918 339.759 283.849 334.946 281.07L274.42 246.126Z" fill="#2C0059"/>
<path d="M335.854 239.236C335.865 238.033 337.596 237.074 339.721 237.092L348.456 237.169C350.581 237.187 352.295 238.177 352.284 239.379L352.241 244.321C352.231 245.523 350.499 246.483 348.375 246.464L339.64 246.388C337.515 246.369 335.801 245.38 335.811 244.177L335.854 239.236Z" fill="#A950FF"/>
<path d="M356.034 228.01C356.045 226.83 357.745 225.887 359.832 225.906L368.704 225.983C370.791 226.001 372.475 226.973 372.464 228.154L372.42 233.174C372.41 234.354 370.71 235.297 368.623 235.278L359.751 235.201C357.664 235.183 355.98 234.211 355.991 233.03L356.034 228.01Z" fill="#A950FF"/>
<path d="M315.873 227.66C315.883 226.48 317.584 225.537 319.671 225.555L328.543 225.633C330.63 225.651 332.313 226.623 332.303 227.804L332.259 232.823C332.249 234.004 330.549 234.947 328.462 234.928L319.589 234.851C317.503 234.833 315.819 233.861 315.829 232.68L315.873 227.66Z" fill="#E9C1FF"/>
<path d="M328.376 236.993C330.501 237.011 332.215 238.001 332.204 239.203L332.161 244.145C332.151 245.347 330.42 246.307 328.295 246.288L319.56 246.212C317.435 246.194 315.721 245.204 315.732 244.002L315.775 239.06C315.785 237.858 317.516 236.898 319.641 236.917L328.376 236.993Z" fill="#CD88FF"/>
<path d="M328.345 248.355C330.432 248.373 332.115 249.345 332.105 250.525L332.061 255.545C332.051 256.726 330.35 257.668 328.264 257.65L319.391 257.573C317.304 257.555 315.621 256.583 315.631 255.402L315.675 250.382C315.685 249.201 317.385 248.259 319.472 248.277L328.345 248.355Z" fill="#A950FF"/>
<path d="M348.555 225.807C350.68 225.826 352.394 226.816 352.384 228.018L352.341 232.96C352.33 234.162 350.599 235.121 348.474 235.103L339.739 235.027C337.614 235.008 335.9 234.018 335.911 232.816L335.954 227.874C335.964 226.672 337.696 225.713 339.821 225.731L348.555 225.807Z" fill="#CD88FF"/>
<path d="M365.003 248.989C369.751 249.03 373.58 251.241 373.557 253.927C373.533 256.613 369.666 258.757 364.918 258.715C360.171 258.674 356.342 256.463 356.365 253.777C356.389 251.091 360.256 248.947 365.003 248.989Z" fill="#F62E76"/>
</g>
<defs>
<filter id="filter0_d_26472_14656" x="107.154" y="96.3171" width="181.334" height="115.161" filterUnits="userSpaceOnUse" color-interpolation-filters="sRGB">
<feFlood flood-opacity="0" result="BackgroundImageFix"/>
<feColorMatrix in="SourceAlpha" type="matrix" values="0 0 0 0 0 0 0 0 0 0 0 0 0 0 0 0 0 0 127 0" result="hardAlpha"/>
<feOffset dy="1.39907"/>
<feComposite in2="hardAlpha" operator="out"/>
<feColorMatrix type="matrix" values="0 0 0 0 0.827451 0 0 0 0 0.701961 0 0 0 0 0.956863 0 0 0 1 0"/>
<feBlend mode="normal" in2="BackgroundImageFix" result="effect1_dropShadow_26472_14656"/>
<feBlend mode="normal" in="SourceGraphic" in2="effect1_dropShadow_26472_14656" result="shape"/>
</filter>
<filter id="filter1_d_26472_14656" x="253.154" y="187.257" width="181.334" height="115.161" filterUnits="userSpaceOnUse" color-interpolation-filters="sRGB">
<feFlood flood-opacity="0" result="BackgroundImageFix"/>
<feColorMatrix in="SourceAlpha" type="matrix" values="0 0 0 0 0 0 0 0 0 0 0 0 0 0 0 0 0 0 127 0" result="hardAlpha"/>
<feOffset dy="1.39907"/>
<feComposite in2="hardAlpha" operator="out"/>
<feColorMatrix type="matrix" values="0 0 0 0 0.827451 0 0 0 0 0.701961 0 0 0 0 0.956863 0 0 0 1 0"/>
<feBlend mode="normal" in2="BackgroundImageFix" result="effect1_dropShadow_26472_14656"/>
<feBlend mode="normal" in="SourceGraphic" in2="effect1_dropShadow_26472_14656" result="shape"/>
</filter>
<clipPath id="clip0_26472_14656">
<rect width="126.337" height="126.337" fill="white" transform="matrix(0.87462 -0.48481 0.866025 0.5 234.094 240.818)"/>
</clipPath>
</defs>
</svg>
