<svg width="140" height="33" viewBox="0 0 140 33" fill="none" xmlns="http://www.w3.org/2000/svg">
<path d="M72.9118 0.0538142L101.103 0.0631996C101.119 8.11753 101.521 11.2586 97.557 18.4276C97.9198 19.0327 98.3192 19.6147 98.7542 20.17C100.667 22.577 102.801 23.7573 105.861 24.1205C105.771 26.7135 105.826 29.6091 105.819 32.2251C105.514 32.2231 105.209 32.2087 104.906 32.1824C99.746 31.7059 95.2882 28.9419 92.039 24.9896L90.228 26.4361C84.3574 30.816 79.1133 32.2378 71.9517 32.1925L71.9378 24.0865C73.4875 24.0897 74.9447 24.0952 76.478 23.8537C85.0321 22.5069 91.1576 16.2057 92.8608 7.8914C86.1925 7.84676 79.4773 7.95304 72.823 7.86883C72.8204 6.65312 72.7114 0.806248 72.9118 0.0538142Z" fill="currentColor"/>
<path d="M0.785534 0.0547078C11.879 -0.0617146 23.215 0.0410112 34.3253 0.059654C34.3322 5.34952 34.8353 9.52893 31.659 14.1652C29.1866 17.7739 25.7607 19.8953 21.4969 20.7184C19.5673 26.778 15.4712 30.4492 9.26788 31.7796C6.73855 32.1051 2.67087 31.99 0.0109065 31.9877L0 24.1107C5.30775 24.126 11.9111 25.1776 13.6278 18.4976C14.0565 16.8292 13.9027 14.4341 13.8936 12.6824C19.1307 12.7441 23.144 13.6863 25.4231 7.9103C17.3003 7.6975 8.9034 8.01468 0.749262 7.86389C0.738482 6.04222 0.600501 1.75742 0.785534 0.0547078Z" fill="currentColor"/>
<path d="M108.849 0.0456973L116.717 0.0597735L116.711 9.06526C121.939 11.0898 124.387 10.9122 129.855 10.9048L139.812 10.902L139.799 18.7798L124.934 18.768C122.115 18.8033 119.391 18.0152 116.712 17.2501L116.713 32.1955L108.833 32.1925C108.83 21.5412 108.714 10.6796 108.849 0.0456973Z" fill="currentColor"/>
<path d="M62.2852 3.80609L70.4311 3.81865C70.4552 8.74986 70.1699 12.9336 68.1737 17.5297C63.9827 27.1731 55.9979 31.4195 45.9327 32.187L37.7537 32.1916L37.7484 24.0821C44.8879 24.0944 51.6089 24.5411 57.1695 19.0198C61.5489 14.6712 62.2802 9.65334 62.2852 3.80609Z" fill="currentColor"/>
<path d="M37.7601 0.0456973L54.3979 0.0619331V6.79845C53.9711 7.15863 39.1391 6.97537 37.7481 6.97448L37.7601 0.0456973Z" fill="currentColor"/>
<path d="M37.7441 9.52513L54.3987 9.52158C54.4034 11.8031 54.44 14.1801 54.3789 16.453C48.9517 16.5436 43.2029 16.4582 37.7536 16.4583L37.7441 9.52513Z" fill="currentColor"/>
</svg>
