<svg width="548" height="391" viewBox="0 0 548 391" fill="none" xmlns="http://www.w3.org/2000/svg">
<line x1="268.783" y1="176.126" x2="353.354" y2="223.985" stroke="#363EB9" stroke-linecap="round" stroke-dasharray="2 2"/>
<path d="M192.316 226.579L112.355 179.841C105.886 176.06 105.886 166.712 112.355 162.931L192.316 116.193C195.351 114.419 199.103 114.408 202.149 116.163L283.236 162.901C289.773 166.669 289.773 176.103 283.236 179.871L202.149 226.608C199.103 228.364 195.351 228.352 192.316 226.579Z" fill="#2B3193" fill-opacity="0.4"/>
<g filter="url(#filter0_d_26472_14656)">
<path d="M192.316 208.391L112.355 161.653C105.886 157.872 105.886 148.524 112.355 144.743L192.316 98.0053C195.351 96.2315 199.103 96.2201 202.149 97.9754L283.236 144.713C289.773 148.481 289.773 157.915 283.236 161.683L202.149 208.421C199.103 210.176 195.351 210.165 192.316 208.391Z" fill="white"/>
<path d="M192.316 208.391L112.355 161.653C105.886 157.872 105.886 148.524 112.355 144.743L192.316 98.0053C195.351 96.2315 199.103 96.2201 202.149 97.9754L283.236 144.713C289.773 148.481 289.773 157.915 283.236 161.683L202.149 208.421C199.103 210.176 195.351 210.165 192.316 208.391Z" stroke="#2B3193" stroke-width="0.699534"/>
</g>
<line x1="244.674" y1="190.745" x2="329.245" y2="238.604" stroke="#363EB9" stroke-linecap="round" stroke-dasharray="2 2"/>
<line x1="249.814" y1="187.899" x2="334.385" y2="235.758" stroke="#A950FF" stroke-linecap="round" stroke-dasharray="2 2"/>
<line x1="220.674" y1="203.745" x2="305.245" y2="251.604" stroke="#363EB9" stroke-linecap="round" stroke-dasharray="2 2"/>
<line x1="225.814" y1="200.899" x2="310.385" y2="248.758" stroke="#A950FF" stroke-linecap="round" stroke-dasharray="2 2"/>
<line x1="273.392" y1="173.569" x2="357.963" y2="221.428" stroke="#A950FF" stroke-linecap="round" stroke-dasharray="2 2"/>
<path d="M191.05 144.982L208.059 134.769C212.927 137.682 215.064 138.675 216.997 142.709C217.58 142.797 218.172 142.863 218.77 142.907C221.375 143.086 223.374 142.74 225.439 141.763C226.949 142.735 228.728 143.765 230.302 144.715C230.116 144.825 229.924 144.93 229.725 145.031C226.326 146.728 221.97 147.342 217.626 147.087L217.407 148.268C216.507 151.982 214.202 154.398 209.855 156.977L204.958 154.044C205.895 153.484 206.777 152.958 207.556 152.315C211.903 148.727 211.797 144.223 207.81 140.593C203.761 142.993 199.775 145.465 195.71 147.846C194.976 147.407 191.383 145.327 191.05 144.982Z" fill="#2B3193"/>
<path d="M147.549 171.121C154.17 167.058 161.069 162.988 167.781 158.968C170.976 160.882 173.8 162.215 174.681 165.046C175.366 167.25 174.579 169.26 172.504 171.104C174.995 173.999 174.739 176.814 171.8 179.544C170.47 180.579 167.948 182.011 166.342 182.974L161.584 180.123C164.795 178.205 169.412 176.194 166.418 173.151C165.671 172.391 164.133 171.578 163.071 170.947C166.267 169.071 169.256 167.958 167.147 165.039C162.119 167.906 157.246 171.064 152.237 173.964C151.132 173.308 148.465 171.805 147.549 171.121Z" fill="#2B3193"/>
<path d="M212.721 131.955L217.475 129.109L222.902 132.375C227.276 131.214 228.646 130.262 231.939 128.278L237.943 124.669L242.687 127.529L233.714 132.911C232.035 133.946 229.917 134.647 227.84 135.341L236.855 140.757L232.1 143.611C225.674 139.752 219.053 135.858 212.721 131.955Z" fill="#2B3193"/>
<path d="M186.904 150.193L191.825 147.245C194.814 149.024 197.165 150.643 198.733 153.032C202.022 158.046 199.767 162.479 194.159 166.404L189.229 169.37L184.335 166.433C188.648 163.85 192.971 161.576 192.995 157.56C193.013 154.397 190.428 152.314 186.904 150.193Z" fill="#2B3193"/>
<path d="M169.844 157.718L179.889 151.694L183.952 154.136C183.912 154.421 174.856 159.73 174.016 160.233L169.844 157.718Z" fill="#2B3193"/>
<path d="M175.552 161.159L185.595 155.122C186.974 155.947 188.43 156.796 189.764 157.641C186.545 159.641 183.026 161.694 179.74 163.668L175.552 161.159Z" fill="#2B3193"/>
<path d="M338.316 317.518L258.355 270.78C251.886 266.999 251.886 257.651 258.355 253.87L338.316 207.132C341.351 205.359 345.103 205.347 348.149 207.103L429.236 253.84C435.773 257.608 435.773 267.042 429.236 270.81L348.149 317.548C345.103 319.303 341.351 319.292 338.316 317.518Z" fill="#6D03D9" fill-opacity="0.1"/>
<g filter="url(#filter1_d_26472_14656)">
<path d="M338.316 299.33L258.355 252.593C251.886 248.812 251.886 239.463 258.355 235.682L338.316 188.945C341.351 187.171 345.103 187.16 348.149 188.915L429.236 235.653C435.773 239.421 435.773 248.854 429.236 252.622L348.149 299.36C345.103 301.115 341.351 301.104 338.316 299.33Z" fill="#CDC5FF"/>
<path d="M338.316 299.33L258.355 252.593C251.886 248.812 251.886 239.463 258.355 235.682L338.316 188.945C341.351 187.171 345.103 187.16 348.149 188.915L429.236 235.653C435.773 239.421 435.773 248.854 429.236 252.622L348.149 299.36C345.103 301.115 341.351 301.104 338.316 299.33Z" stroke="#6D04DA" stroke-width="0.699534"/>
</g>
<g clip-path="url(#clip0_26472_14656)">
<path d="M274.42 246.126C269.607 243.347 269.646 238.91 274.507 236.216L335.633 202.333C340.494 199.638 348.336 199.707 353.149 202.485L413.675 237.43C418.488 240.209 418.45 244.646 413.589 247.34L352.462 281.223C347.602 283.918 339.759 283.849 334.946 281.07L274.42 246.126Z" fill="#2C0059"/>
<path d="M335.854 239.236C335.865 238.033 337.596 237.074 339.721 237.092L348.456 237.169C350.581 237.187 352.295 238.177 352.284 239.379L352.241 244.321C352.231 245.523 350.499 246.483 348.375 246.464L339.64 246.388C337.515 246.369 335.801 245.38 335.811 244.177L335.854 239.236Z" fill="#A950FF"/>
<path d="M356.034 228.01C356.045 226.83 357.745 225.887 359.832 225.906L368.704 225.983C370.791 226.001 372.475 226.973 372.464 228.154L372.42 233.174C372.41 234.354 370.71 235.297 368.623 235.278L359.751 235.201C357.664 235.183 355.98 234.211 355.991 233.03L356.034 228.01Z" fill="#A950FF"/>
<path d="M315.873 227.66C315.883 226.48 317.584 225.537 319.671 225.555L328.543 225.633C330.63 225.651 332.313 226.623 332.303 227.804L332.259 232.823C332.249 234.004 330.549 234.947 328.462 234.928L319.589 234.851C317.503 234.833 315.819 233.861 315.829 232.68L315.873 227.66Z" fill="#E9C1FF"/>
<path d="M328.376 236.993C330.501 237.011 332.215 238.001 332.204 239.203L332.161 244.145C332.151 245.347 330.42 246.307 328.295 246.288L319.56 246.212C317.435 246.194 315.721 245.204 315.732 244.002L315.775 239.06C315.785 237.858 317.516 236.898 319.641 236.917L328.376 236.993Z" fill="#CD88FF"/>
<path d="M328.345 248.355C330.432 248.373 332.115 249.345 332.105 250.525L332.061 255.545C332.051 256.726 330.35 257.668 328.264 257.65L319.391 257.573C317.304 257.555 315.621 256.583 315.631 255.402L315.675 250.382C315.685 249.201 317.385 248.259 319.472 248.277L328.345 248.355Z" fill="#A950FF"/>
<path d="M348.555 225.807C350.68 225.826 352.394 226.816 352.384 228.018L352.341 232.96C352.33 234.162 350.599 235.121 348.474 235.103L339.739 235.027C337.614 235.008 335.9 234.018 335.911 232.816L335.954 227.874C335.964 226.672 337.696 225.713 339.821 225.731L348.555 225.807Z" fill="#CD88FF"/>
<path d="M365.003 248.989C369.751 249.03 373.58 251.241 373.557 253.927C373.533 256.613 369.666 258.757 364.918 258.715C360.171 258.674 356.342 256.463 356.365 253.777C356.389 251.091 360.256 248.947 365.003 248.989Z" fill="#F62E76"/>
</g>
<defs>
<filter id="filter0_d_26472_14656" x="107.154" y="96.3171" width="181.334" height="115.161" filterUnits="userSpaceOnUse" color-interpolation-filters="sRGB">
<feFlood flood-opacity="0" result="BackgroundImageFix"/>
<feColorMatrix in="SourceAlpha" type="matrix" values="0 0 0 0 0 0 0 0 0 0 0 0 0 0 0 0 0 0 127 0" result="hardAlpha"/>
<feOffset dy="1.39907"/>
<feComposite in2="hardAlpha" operator="out"/>
<feColorMatrix type="matrix" values="0 0 0 0 0.827451 0 0 0 0 0.701961 0 0 0 0 0.956863 0 0 0 1 0"/>
<feBlend mode="normal" in2="BackgroundImageFix" result="effect1_dropShadow_26472_14656"/>
<feBlend mode="normal" in="SourceGraphic" in2="effect1_dropShadow_26472_14656" result="shape"/>
</filter>
<filter id="filter1_d_26472_14656" x="253.154" y="187.257" width="181.334" height="115.161" filterUnits="userSpaceOnUse" color-interpolation-filters="sRGB">
<feFlood flood-opacity="0" result="BackgroundImageFix"/>
<feColorMatrix in="SourceAlpha" type="matrix" values="0 0 0 0 0 0 0 0 0 0 0 0 0 0 0 0 0 0 127 0" result="hardAlpha"/>
<feOffset dy="1.39907"/>
<feComposite in2="hardAlpha" operator="out"/>
<feColorMatrix type="matrix" values="0 0 0 0 0.827451 0 0 0 0 0.701961 0 0 0 0 0.956863 0 0 0 1 0"/>
<feBlend mode="normal" in2="BackgroundImageFix" result="effect1_dropShadow_26472_14656"/>
<feBlend mode="normal" in="SourceGraphic" in2="effect1_dropShadow_26472_14656" result="shape"/>
</filter>
<clipPath id="clip0_26472_14656">
<rect width="126.337" height="126.337" fill="white" transform="matrix(0.87462 -0.48481 0.866025 0.5 234.094 240.818)"/>
</clipPath>
</defs>
</svg>
