<svg width="548" height="391" viewBox="0 0 548 391" fill="none" xmlns="http://www.w3.org/2000/svg">
<line x1="268.783" y1="176.126" x2="353.354" y2="223.985" stroke="#E0DE2A" stroke-linecap="round" stroke-dasharray="2 2"/>
<path d="M192.316 226.579L112.355 179.841C105.886 176.06 105.886 166.712 112.355 162.931L192.316 116.193C195.351 114.419 199.103 114.408 202.149 116.163L283.236 162.901C289.773 166.669 289.773 176.103 283.236 179.871L202.149 226.608C199.103 228.364 195.351 228.352 192.316 226.579Z" fill="#E0DE2A" fill-opacity="0.4"/>
<g filter="url(#filter0_d_22685_112431)">
<path d="M192.316 208.391L112.355 161.653C105.886 157.872 105.886 148.524 112.355 144.743L192.316 98.0053C195.351 96.2315 199.103 96.2201 202.149 97.9754L283.236 144.713C289.773 148.481 289.773 157.915 283.236 161.683L202.149 208.421C199.103 210.176 195.351 210.165 192.316 208.391Z" fill="white"/>
<path d="M192.316 208.391L112.355 161.653C105.886 157.872 105.886 148.524 112.355 144.743L192.316 98.0053C195.351 96.2315 199.103 96.2201 202.149 97.9754L283.236 144.713C289.773 148.481 289.773 157.915 283.236 161.683L202.149 208.421C199.103 210.176 195.351 210.165 192.316 208.391Z" stroke="#A2A002" stroke-width="0.699534"/>
</g>
<line x1="244.674" y1="190.745" x2="329.245" y2="238.604" stroke="#E0DE2A" stroke-linecap="round" stroke-dasharray="2 2"/>
<line x1="249.814" y1="187.899" x2="334.385" y2="235.758" stroke="#A950FF" stroke-linecap="round" stroke-dasharray="2 2"/>
<line x1="220.674" y1="203.745" x2="305.245" y2="251.604" stroke="#E0DE2A" stroke-linecap="round" stroke-dasharray="2 2"/>
<line x1="225.814" y1="200.899" x2="310.385" y2="248.758" stroke="#A950FF" stroke-linecap="round" stroke-dasharray="2 2"/>
<line x1="273.392" y1="173.569" x2="357.963" y2="221.428" stroke="#A950FF" stroke-linecap="round" stroke-dasharray="2 2"/>
<path d="M338.316 317.518L258.355 270.78C251.886 266.999 251.886 257.651 258.355 253.87L338.316 207.132C341.351 205.359 345.103 205.347 348.149 207.103L429.236 253.84C435.773 257.608 435.773 267.042 429.236 270.81L348.149 317.548C345.103 319.303 341.351 319.292 338.316 317.518Z" fill="#6D03D9" fill-opacity="0.1"/>
<g filter="url(#filter1_d_22685_112431)">
<path d="M338.316 299.33L258.355 252.593C251.886 248.812 251.886 239.463 258.355 235.682L338.316 188.945C341.351 187.171 345.103 187.16 348.149 188.915L429.236 235.653C435.773 239.421 435.773 248.854 429.236 252.622L348.149 299.36C345.103 301.115 341.351 301.104 338.316 299.33Z" fill="#CDC5FF"/>
<path d="M338.316 299.33L258.355 252.593C251.886 248.812 251.886 239.463 258.355 235.682L338.316 188.945C341.351 187.171 345.103 187.16 348.149 188.915L429.236 235.653C435.773 239.421 435.773 248.854 429.236 252.622L348.149 299.36C345.103 301.115 341.351 301.104 338.316 299.33Z" stroke="#6D04DA" stroke-width="0.699534"/>
</g>
<g clip-path="url(#clip0_22685_112431)">
<path d="M274.42 246.126C269.607 243.347 269.646 238.91 274.507 236.216L335.633 202.333C340.494 199.638 348.336 199.707 353.149 202.485L413.675 237.43C418.488 240.209 418.45 244.646 413.589 247.34L352.462 281.223C347.602 283.918 339.759 283.849 334.946 281.07L274.42 246.126Z" fill="#2C0059"/>
<path d="M335.854 239.236C335.865 238.033 337.596 237.074 339.721 237.092L348.456 237.169C350.581 237.187 352.295 238.177 352.284 239.379L352.241 244.321C352.231 245.523 350.499 246.483 348.375 246.464L339.64 246.388C337.515 246.369 335.801 245.38 335.811 244.177L335.854 239.236Z" fill="#A950FF"/>
<path d="M356.034 228.01C356.045 226.83 357.745 225.887 359.832 225.906L368.704 225.983C370.791 226.001 372.475 226.973 372.464 228.154L372.42 233.174C372.41 234.354 370.71 235.297 368.623 235.278L359.751 235.201C357.664 235.183 355.98 234.211 355.991 233.03L356.034 228.01Z" fill="#A950FF"/>
<path d="M315.873 227.66C315.883 226.48 317.584 225.537 319.671 225.555L328.543 225.633C330.63 225.651 332.313 226.623 332.303 227.804L332.259 232.823C332.249 234.004 330.549 234.947 328.462 234.928L319.589 234.851C317.503 234.833 315.819 233.861 315.829 232.68L315.873 227.66Z" fill="#E9C1FF"/>
<path d="M328.376 236.993C330.501 237.011 332.215 238.001 332.204 239.203L332.161 244.145C332.151 245.347 330.42 246.307 328.295 246.288L319.56 246.212C317.435 246.194 315.721 245.204 315.732 244.002L315.775 239.06C315.785 237.858 317.516 236.898 319.641 236.917L328.376 236.993Z" fill="#CD88FF"/>
<path d="M328.345 248.355C330.432 248.373 332.115 249.345 332.105 250.525L332.061 255.545C332.051 256.726 330.35 257.668 328.264 257.65L319.391 257.573C317.304 257.555 315.621 256.583 315.631 255.402L315.675 250.382C315.685 249.201 317.385 248.259 319.472 248.277L328.345 248.355Z" fill="#A950FF"/>
<path d="M348.555 225.807C350.68 225.826 352.394 226.816 352.384 228.018L352.341 232.96C352.33 234.162 350.599 235.121 348.474 235.103L339.739 235.027C337.614 235.008 335.9 234.018 335.911 232.816L335.954 227.874C335.964 226.672 337.696 225.713 339.821 225.731L348.555 225.807Z" fill="#CD88FF"/>
<path d="M365.003 248.989C369.751 249.03 373.58 251.241 373.557 253.927C373.533 256.613 369.666 258.757 364.918 258.715C360.171 258.674 356.342 256.463 356.365 253.777C356.389 251.091 360.256 248.947 365.003 248.989Z" fill="#F62E76"/>
</g>
<path d="M210.468 129.957C205.967 130.728 201.902 132.122 198.27 134.135C194.638 136.148 192.12 138.406 190.711 140.908C189.306 143.414 189.173 145.952 190.308 148.526C191.448 151.101 193.869 153.459 197.584 155.603C201.298 157.747 205.415 159.167 209.945 159.863C214.472 160.56 218.962 160.535 223.414 159.789C227.867 159.045 231.909 157.666 235.541 155.653C239.173 153.64 241.716 151.368 243.171 148.838C244.625 146.307 244.784 143.758 243.647 141.182C242.507 138.607 240.083 136.248 236.369 134.104C232.655 131.96 228.537 130.542 224.01 129.845C219.481 129.149 214.968 129.187 210.468 129.957ZM232.456 143.021C233.226 144.563 233.228 146.057 232.461 147.504C231.693 148.952 230.271 150.254 228.189 151.408C226.106 152.563 223.861 153.294 221.312 153.684C218.763 154.075 216.12 154.045 213.389 153.59C210.66 153.137 208.176 152.267 205.938 150.975C203.7 149.683 202.212 148.262 201.467 146.707C200.722 145.154 200.719 143.66 201.462 142.224C202.204 140.79 203.618 139.496 205.7 138.342C207.782 137.188 210.039 136.45 212.611 136.044C215.187 135.641 217.827 135.672 220.534 136.138C223.24 136.606 225.713 137.483 227.949 138.774C230.184 140.065 231.688 141.481 232.456 143.021Z" fill="#E0DE2A"/>
<path d="M196.358 160.172C197.01 160.82 197.395 161.562 197.745 162.261C198.515 163.802 198.518 165.296 197.75 166.744C196.982 168.191 195.56 169.493 193.478 170.648C191.395 171.802 189.15 172.533 186.601 172.924C184.052 173.315 181.409 173.284 178.678 172.83C175.949 172.377 173.465 171.506 171.227 170.214C168.989 168.922 167.501 167.502 166.756 165.946C166.011 164.394 166.008 162.9 166.751 161.464C167.495 160.031 168.907 158.735 170.989 157.581C173.071 156.427 175.328 155.689 177.9 155.283C180.479 154.881 183.117 154.912 185.823 155.377C187.312 155.635 188.716 156.047 190.064 156.556C187.815 154.888 186.263 153.107 185.421 151.204C185.046 150.353 184.862 149.507 184.761 148.665C181.756 148.529 178.754 148.687 175.762 149.199C171.26 149.97 167.196 151.364 163.564 153.377C159.932 155.39 157.414 157.648 156.005 160.15C154.6 162.656 154.467 165.193 155.602 167.768C156.742 170.343 159.163 172.7 162.877 174.845C166.591 176.989 170.709 178.409 175.238 179.105C179.765 179.802 184.253 179.776 188.707 179.031C193.161 178.287 197.202 176.908 200.834 174.895C204.466 172.882 207.01 170.61 208.464 168.08C209.437 166.386 209.778 164.682 209.591 162.967C208.082 162.895 206.572 162.774 205.057 162.541C202.002 162.07 199.042 161.303 196.36 160.173L196.358 160.172Z" fill="#E0DE2A"/>
<defs>
<filter id="filter0_d_22685_112431" x="107.154" y="96.3171" width="181.334" height="115.161" filterUnits="userSpaceOnUse" color-interpolation-filters="sRGB">
<feFlood flood-opacity="0" result="BackgroundImageFix"/>
<feColorMatrix in="SourceAlpha" type="matrix" values="0 0 0 0 0 0 0 0 0 0 0 0 0 0 0 0 0 0 127 0" result="hardAlpha"/>
<feOffset dy="1.39907"/>
<feComposite in2="hardAlpha" operator="out"/>
<feColorMatrix type="matrix" values="0 0 0 0 0.827451 0 0 0 0 0.701961 0 0 0 0 0.956863 0 0 0 1 0"/>
<feBlend mode="normal" in2="BackgroundImageFix" result="effect1_dropShadow_22685_112431"/>
<feBlend mode="normal" in="SourceGraphic" in2="effect1_dropShadow_22685_112431" result="shape"/>
</filter>
<filter id="filter1_d_22685_112431" x="253.154" y="187.257" width="181.334" height="115.161" filterUnits="userSpaceOnUse" color-interpolation-filters="sRGB">
<feFlood flood-opacity="0" result="BackgroundImageFix"/>
<feColorMatrix in="SourceAlpha" type="matrix" values="0 0 0 0 0 0 0 0 0 0 0 0 0 0 0 0 0 0 127 0" result="hardAlpha"/>
<feOffset dy="1.39907"/>
<feComposite in2="hardAlpha" operator="out"/>
<feColorMatrix type="matrix" values="0 0 0 0 0.827451 0 0 0 0 0.701961 0 0 0 0 0.956863 0 0 0 1 0"/>
<feBlend mode="normal" in2="BackgroundImageFix" result="effect1_dropShadow_22685_112431"/>
<feBlend mode="normal" in="SourceGraphic" in2="effect1_dropShadow_22685_112431" result="shape"/>
</filter>
<clipPath id="clip0_22685_112431">
<rect width="126.337" height="126.337" fill="white" transform="matrix(0.87462 -0.48481 0.866025 0.5 234.094 240.818)"/>
</clipPath>
</defs>
</svg>
