<svg width="103" height="53" viewBox="0 0 103 53" fill="none" xmlns="http://www.w3.org/2000/svg">
<path d="M88.9765 3.20809C84.8326 1.06726 80.2337 0 75.1802 0C70.1267 0 65.5628 1.07042 61.4857 3.20809C57.4083 5.35201 54.193 8.41169 51.8332 12.3902C49.4766 16.3719 48.2966 20.9662 48.2966 26.1857C48.2966 31.4052 49.4735 36.0026 51.8332 39.9843C54.1898 43.966 57.4083 47.0254 61.4857 49.1631C65.5628 51.3039 70.1267 52.3745 75.1802 52.3745C80.2337 52.3745 84.8326 51.3039 88.9765 49.1631C93.1204 47.0223 96.3676 43.966 98.7273 39.9843C101.084 36.0026 102.264 31.4052 102.264 26.1857C102.264 20.9662 101.084 16.3719 98.7273 12.3902C96.3676 8.40853 93.1172 5.34885 88.9765 3.20809ZM88.5217 34.5657C87.1731 37.0097 85.3381 38.8663 83.0134 40.1357C80.6885 41.4051 78.0776 42.043 75.1802 42.043C72.2828 42.043 69.7895 41.4051 67.4997 40.1357C65.2098 38.8663 63.3716 37.0097 61.9914 34.5657C60.6109 32.1249 59.9176 29.3338 59.9176 26.1888C59.9176 23.0438 60.6077 20.2557 61.9914 17.8117C63.3716 15.3709 65.2067 13.5142 67.4997 12.242C69.7895 10.9726 72.3846 10.3379 75.282 10.3379C78.1791 10.3379 80.6885 10.9757 83.0134 12.242C85.3381 13.5142 87.1731 15.3709 88.5217 17.8117C89.8669 20.2557 90.5443 23.047 90.5443 26.1888C90.5443 29.3307 89.8703 32.1249 88.5217 34.5657Z" fill="#131316"/>
<path d="M41.8088 31.0153C41.4748 32.2686 40.8356 33.456 40.2249 34.5643C38.8766 37.0082 37.0415 38.8649 34.7166 40.1343C32.3917 41.4034 29.7808 42.0413 26.8834 42.0413C23.9862 42.0413 21.4927 41.4034 19.2029 40.1343C16.9131 38.8649 15.0748 37.0082 13.6946 34.5643C12.3144 32.1235 11.6211 29.3321 11.6211 26.1871C11.6211 23.0424 12.3112 20.2542 13.6946 17.8103C15.0748 15.3695 16.9099 13.5128 19.2029 12.2403C21.4927 10.974 24.0878 10.3362 26.9852 10.3362C29.8826 10.3362 32.3917 10.974 34.7166 12.2403C37.0415 13.516 38.8766 15.3695 40.2249 17.8103C40.966 19.1552 41.4558 20.6332 41.7866 22.193C42.2412 18.5743 43.3289 15.2936 45.0718 12.3509C45.8511 11.0372 46.7605 9.8595 47.7242 8.74496C45.7588 6.50617 43.4339 4.63688 40.6797 3.21283C36.5358 1.072 31.9369 0.00474151 26.8834 0.00474151C21.8299 0.00474151 17.266 1.07516 13.1889 3.21283C9.11174 5.35687 5.89645 8.41656 3.53645 12.3951C1.17991 16.3768 0 20.9711 0 26.1903C0 31.4098 1.17671 36.0072 3.53645 39.9889C5.89329 43.9706 9.11174 47.0271 13.1889 49.168C17.266 51.3088 21.8299 52.3791 26.8834 52.3791C31.9369 52.3791 36.5358 51.3088 40.6797 49.168C43.4531 47.7345 45.7905 45.8526 47.7656 43.5948C46.7829 42.4676 45.8606 41.2772 45.0718 39.9447C43.4816 37.2576 42.324 34.2675 41.8088 31.0184V31.0153Z" fill="#131316"/>
</svg>
