<svg width="344" height="236" viewBox="0 0 344 236" fill="none" xmlns="http://www.w3.org/2000/svg">
<circle cx="96.0078" cy="96.0078" r="95.5078" transform="matrix(0.87462 -0.48481 0.866025 0.5 2.70996 122.432)" stroke="currentColor" stroke-dasharray="2 2"/>
<g filter="url(#filter0_d_22685_112793)">
<circle cx="10.8797" cy="10.8797" r="10.8797" transform="matrix(0.87462 -0.48481 0.866025 0.5 219.655 176.494)" fill="#C5E7FF"/>
<circle cx="10.8797" cy="10.8797" r="10.3797" transform="matrix(0.87462 -0.48481 0.866025 0.5 219.655 176.494)" stroke="#045DDA"/>
</g>
<path d="M166.269 185.541L86.3081 138.803C79.8395 135.022 79.8395 125.674 86.3081 121.893L166.269 75.1552C169.304 73.3814 173.056 73.37 176.102 75.1253L257.189 121.863C263.726 125.631 263.726 135.065 257.189 138.833L176.102 185.571C173.056 187.326 169.304 187.315 166.269 185.541Z" fill="#6D03D9" fill-opacity="0.1"/>
<g filter="url(#filter1_d_22685_112793)">
<path d="M166.269 167.353L86.3081 120.616C79.8395 116.835 79.8395 107.486 86.3081 103.705L166.269 56.9677C169.304 55.1939 173.056 55.1825 176.102 56.9378L257.189 103.676C263.726 107.443 263.726 116.877 257.189 120.645L176.102 167.383C173.056 169.138 169.304 169.127 166.269 167.353Z" fill="#CDC5FF"/>
<path d="M166.269 167.353L86.3081 120.616C79.8395 116.835 79.8395 107.486 86.3081 103.705L166.269 56.9677C169.304 55.1939 173.056 55.1825 176.102 56.9378L257.189 103.676C263.726 107.443 263.726 116.877 257.189 120.645L176.102 167.383C173.056 169.138 169.304 169.127 166.269 167.353Z" stroke="#6D04DA" stroke-width="0.699534"/>
</g>
<g clip-path="url(#clip0_22685_112793)">
<path d="M102.372 114.149C97.5595 111.37 97.5982 106.933 102.459 104.239L163.586 70.3555C168.446 67.6612 176.289 67.7296 181.102 70.5084L241.628 105.453C246.441 108.232 246.402 112.669 241.541 115.363L180.414 149.246C175.554 151.941 167.711 151.872 162.898 149.093L102.372 114.149Z" fill="#2C0059"/>
<path d="M163.806 107.259C163.817 106.056 165.548 105.097 167.673 105.115L176.408 105.192C178.533 105.21 180.247 106.2 180.236 107.402L180.193 112.344C180.183 113.546 178.452 114.506 176.327 114.487L167.592 114.411C165.467 114.392 163.753 113.403 163.763 112.2L163.806 107.259Z" fill="#A950FF"/>
<path d="M183.987 96.0334C183.997 94.8527 185.697 93.9103 187.784 93.9285L196.656 94.0059C198.743 94.0241 200.427 94.996 200.416 96.1768L200.372 101.197C200.362 102.377 198.662 103.32 196.575 103.301L187.703 103.224C185.616 103.206 183.932 102.234 183.943 101.053L183.987 96.0334Z" fill="#A950FF"/>
<path d="M143.825 95.6832C143.836 94.5025 145.536 93.5601 147.623 93.5783L156.495 93.6558C158.582 93.674 160.265 94.6459 160.255 95.8266L160.211 100.846C160.201 102.027 158.501 102.969 156.414 102.951L147.541 102.874C145.455 102.856 143.771 101.884 143.781 100.703L143.825 95.6832Z" fill="#E9C1FF"/>
<path d="M156.328 105.016C158.453 105.034 160.167 106.024 160.156 107.226L160.113 112.168C160.103 113.37 158.372 114.33 156.247 114.311L147.512 114.235C145.387 114.217 143.673 113.227 143.684 112.025L143.727 107.083C143.737 105.881 145.468 104.921 147.593 104.94L156.328 105.016Z" fill="#CD88FF"/>
<path d="M156.297 116.378C158.384 116.396 160.067 117.368 160.057 118.548L160.013 123.568C160.003 124.749 158.302 125.691 156.216 125.673L147.343 125.596C145.256 125.577 143.573 124.606 143.583 123.425L143.627 118.405C143.637 117.224 145.337 116.282 147.424 116.3L156.297 116.378Z" fill="#A950FF"/>
<path d="M176.507 93.8303C178.632 93.8488 180.346 94.8385 180.336 96.0407L180.293 100.983C180.282 102.185 178.551 103.144 176.426 103.126L167.691 103.05C165.566 103.031 163.852 102.041 163.863 100.839L163.906 95.8973C163.917 94.6951 165.648 93.7355 167.773 93.7541L176.507 93.8303Z" fill="#CD88FF"/>
<path d="M192.955 117.012C197.703 117.053 201.532 119.264 201.509 121.95C201.485 124.636 197.618 126.78 192.87 126.738C188.123 126.697 184.294 124.486 184.317 121.8C184.341 119.114 188.208 116.97 192.955 117.012Z" fill="#F62E76"/>
</g>
<g filter="url(#filter2_d_22685_112793)">
<circle cx="10.8797" cy="10.8797" r="10.8797" transform="matrix(0.87462 -0.48481 0.866025 0.5 219.749 68.1562)" fill="#D7FFC5"/>
<circle cx="10.8797" cy="10.8797" r="10.3797" transform="matrix(0.87462 -0.48481 0.866025 0.5 219.749 68.1562)" stroke="#6FDA04"/>
</g>
<g filter="url(#filter3_d_22685_112793)">
<circle cx="10.8797" cy="10.8797" r="10.8797" transform="matrix(0.87462 -0.48481 0.866025 0.5 102.401 61.4082)" fill="#E7FFC5"/>
<circle cx="10.8797" cy="10.8797" r="10.3797" transform="matrix(0.87462 -0.48481 0.866025 0.5 102.401 61.4082)" stroke="#67870A"/>
</g>
<g filter="url(#filter4_d_22685_112793)">
<circle cx="10.8797" cy="10.8797" r="10.8797" transform="matrix(0.87462 -0.48481 0.866025 0.5 55.7842 159.342)" fill="#FFC5D4"/>
<circle cx="10.8797" cy="10.8797" r="10.3797" transform="matrix(0.87462 -0.48481 0.866025 0.5 55.7842 159.342)" stroke="#EB3E5D"/>
</g>
<circle cx="7.28997" cy="7.28997" r="7.28997" transform="matrix(0.87462 -0.48481 0.866025 0.5 108.714 61.5742)" fill="#A6D614"/>
<circle cx="7.28997" cy="7.28997" r="7.28997" transform="matrix(0.87462 -0.48481 0.866025 0.5 226.347 68.1001)" fill="#6FDA04"/>
<circle cx="7.28997" cy="7.28997" r="7.28997" transform="matrix(0.87462 -0.48481 0.866025 0.5 226.284 176.438)" fill="#1C6FD7"/>
<circle cx="7.28997" cy="7.28997" r="7.28997" transform="matrix(0.87462 -0.48481 0.866025 0.5 61.9717 159.508)" fill="#F62E76"/>
<g filter="url(#filter5_d_22685_112793)">
<circle cx="10.8797" cy="10.8797" r="10.8797" transform="matrix(0.87462 -0.48481 0.866025 0.5 140.278 188.41)" fill="#FFF6C5"/>
<circle cx="10.8797" cy="10.8797" r="10.3797" transform="matrix(0.87462 -0.48481 0.866025 0.5 140.278 188.41)" stroke="#DAA504"/>
</g>
<g filter="url(#filter6_d_22685_112793)">
<circle cx="10.8797" cy="10.8797" r="10.8797" transform="matrix(0.87462 -0.48481 0.866025 0.5 37.6211 101.281)" fill="#FAD3A0"/>
<circle cx="10.8797" cy="10.8797" r="10.3797" transform="matrix(0.87462 -0.48481 0.866025 0.5 37.6211 101.281)" stroke="#DA6F04"/>
</g>
<circle cx="7.28997" cy="7.28997" r="7.28997" transform="matrix(0.87462 -0.48481 0.866025 0.5 43.9336 101.225)" fill="#DA6F04"/>
<g filter="url(#filter7_d_22685_112793)">
<circle cx="10.8797" cy="10.8797" r="10.8797" transform="matrix(0.87462 -0.48481 0.866025 0.5 268.891 123.559)" fill="#CDC5FF"/>
<circle cx="10.8797" cy="10.8797" r="10.3797" transform="matrix(0.87462 -0.48481 0.866025 0.5 268.891 123.559)" stroke="#6D04DA"/>
</g>
<circle cx="7.28997" cy="7.28997" r="7.28997" transform="matrix(0.87462 -0.48481 0.866025 0.5 275.141 123.613)" fill="#6705CC"/>
<circle cx="7.28997" cy="7.28997" r="7.28997" transform="matrix(0.87462 -0.48481 0.866025 0.5 146.625 188.797)" fill="#DAA404"/>
<defs>
<filter id="filter0_d_22685_112793" x="225.202" y="169.082" width="26.7822" height="19.1543" filterUnits="userSpaceOnUse" color-interpolation-filters="sRGB">
<feFlood flood-opacity="0" result="BackgroundImageFix"/>
<feColorMatrix in="SourceAlpha" type="matrix" values="0 0 0 0 0 0 0 0 0 0 0 0 0 0 0 0 0 0 127 0" result="hardAlpha"/>
<feOffset dy="4"/>
<feComposite in2="hardAlpha" operator="out"/>
<feColorMatrix type="matrix" values="0 0 0 0 0.87451 0 0 0 0 0.933529 0 0 0 0 0.956863 0 0 0 1 0"/>
<feBlend mode="normal" in2="BackgroundImageFix" result="effect1_dropShadow_22685_112793"/>
<feBlend mode="normal" in="SourceGraphic" in2="effect1_dropShadow_22685_112793" result="shape"/>
</filter>
<filter id="filter1_d_22685_112793" x="81.1069" y="55.2795" width="181.334" height="115.161" filterUnits="userSpaceOnUse" color-interpolation-filters="sRGB">
<feFlood flood-opacity="0" result="BackgroundImageFix"/>
<feColorMatrix in="SourceAlpha" type="matrix" values="0 0 0 0 0 0 0 0 0 0 0 0 0 0 0 0 0 0 127 0" result="hardAlpha"/>
<feOffset dy="1.39907"/>
<feComposite in2="hardAlpha" operator="out"/>
<feColorMatrix type="matrix" values="0 0 0 0 0.827451 0 0 0 0 0.701961 0 0 0 0 0.956863 0 0 0 1 0"/>
<feBlend mode="normal" in2="BackgroundImageFix" result="effect1_dropShadow_22685_112793"/>
<feBlend mode="normal" in="SourceGraphic" in2="effect1_dropShadow_22685_112793" result="shape"/>
</filter>
<filter id="filter2_d_22685_112793" x="225.296" y="60.7444" width="26.7822" height="19.1543" filterUnits="userSpaceOnUse" color-interpolation-filters="sRGB">
<feFlood flood-opacity="0" result="BackgroundImageFix"/>
<feColorMatrix in="SourceAlpha" type="matrix" values="0 0 0 0 0 0 0 0 0 0 0 0 0 0 0 0 0 0 127 0" result="hardAlpha"/>
<feOffset dy="4"/>
<feComposite in2="hardAlpha" operator="out"/>
<feColorMatrix type="matrix" values="0 0 0 0 0.913725 0 0 0 0 0.87451 0 0 0 0 0.956863 0 0 0 1 0"/>
<feBlend mode="normal" in2="BackgroundImageFix" result="effect1_dropShadow_22685_112793"/>
<feBlend mode="normal" in="SourceGraphic" in2="effect1_dropShadow_22685_112793" result="shape"/>
</filter>
<filter id="filter3_d_22685_112793" x="107.948" y="53.9963" width="26.7822" height="19.1543" filterUnits="userSpaceOnUse" color-interpolation-filters="sRGB">
<feFlood flood-opacity="0" result="BackgroundImageFix"/>
<feColorMatrix in="SourceAlpha" type="matrix" values="0 0 0 0 0 0 0 0 0 0 0 0 0 0 0 0 0 0 127 0" result="hardAlpha"/>
<feOffset dy="4"/>
<feComposite in2="hardAlpha" operator="out"/>
<feColorMatrix type="matrix" values="0 0 0 0 0.913725 0 0 0 0 0.87451 0 0 0 0 0.956863 0 0 0 1 0"/>
<feBlend mode="normal" in2="BackgroundImageFix" result="effect1_dropShadow_22685_112793"/>
<feBlend mode="normal" in="SourceGraphic" in2="effect1_dropShadow_22685_112793" result="shape"/>
</filter>
<filter id="filter4_d_22685_112793" x="61.3307" y="151.93" width="26.7822" height="19.1543" filterUnits="userSpaceOnUse" color-interpolation-filters="sRGB">
<feFlood flood-opacity="0" result="BackgroundImageFix"/>
<feColorMatrix in="SourceAlpha" type="matrix" values="0 0 0 0 0 0 0 0 0 0 0 0 0 0 0 0 0 0 127 0" result="hardAlpha"/>
<feOffset dy="4"/>
<feComposite in2="hardAlpha" operator="out"/>
<feColorMatrix type="matrix" values="0 0 0 0 1 0 0 0 0 0.859037 0 0 0 0 0.893063 0 0 0 1 0"/>
<feBlend mode="normal" in2="BackgroundImageFix" result="effect1_dropShadow_22685_112793"/>
<feBlend mode="normal" in="SourceGraphic" in2="effect1_dropShadow_22685_112793" result="shape"/>
</filter>
<filter id="filter5_d_22685_112793" x="145.824" y="180.998" width="26.7822" height="19.1543" filterUnits="userSpaceOnUse" color-interpolation-filters="sRGB">
<feFlood flood-opacity="0" result="BackgroundImageFix"/>
<feColorMatrix in="SourceAlpha" type="matrix" values="0 0 0 0 0 0 0 0 0 0 0 0 0 0 0 0 0 0 127 0" result="hardAlpha"/>
<feOffset dy="4"/>
<feComposite in2="hardAlpha" operator="out"/>
<feColorMatrix type="matrix" values="0 0 0 0 0.956863 0 0 0 0 0.952745 0 0 0 0 0.87451 0 0 0 1 0"/>
<feBlend mode="normal" in2="BackgroundImageFix" result="effect1_dropShadow_22685_112793"/>
<feBlend mode="normal" in="SourceGraphic" in2="effect1_dropShadow_22685_112793" result="shape"/>
</filter>
<filter id="filter6_d_22685_112793" x="43.1676" y="93.8694" width="26.7822" height="19.1543" filterUnits="userSpaceOnUse" color-interpolation-filters="sRGB">
<feFlood flood-opacity="0" result="BackgroundImageFix"/>
<feColorMatrix in="SourceAlpha" type="matrix" values="0 0 0 0 0 0 0 0 0 0 0 0 0 0 0 0 0 0 127 0" result="hardAlpha"/>
<feOffset dy="4"/>
<feComposite in2="hardAlpha" operator="out"/>
<feColorMatrix type="matrix" values="0 0 0 0 0.956863 0 0 0 0 0.922549 0 0 0 0 0.87451 0 0 0 1 0"/>
<feBlend mode="normal" in2="BackgroundImageFix" result="effect1_dropShadow_22685_112793"/>
<feBlend mode="normal" in="SourceGraphic" in2="effect1_dropShadow_22685_112793" result="shape"/>
</filter>
<filter id="filter7_d_22685_112793" x="274.437" y="116.147" width="26.7822" height="19.1543" filterUnits="userSpaceOnUse" color-interpolation-filters="sRGB">
<feFlood flood-opacity="0" result="BackgroundImageFix"/>
<feColorMatrix in="SourceAlpha" type="matrix" values="0 0 0 0 0 0 0 0 0 0 0 0 0 0 0 0 0 0 127 0" result="hardAlpha"/>
<feOffset dy="4"/>
<feComposite in2="hardAlpha" operator="out"/>
<feColorMatrix type="matrix" values="0 0 0 0 0.913725 0 0 0 0 0.87451 0 0 0 0 0.956863 0 0 0 1 0"/>
<feBlend mode="normal" in2="BackgroundImageFix" result="effect1_dropShadow_22685_112793"/>
<feBlend mode="normal" in="SourceGraphic" in2="effect1_dropShadow_22685_112793" result="shape"/>
</filter>
<clipPath id="clip0_22685_112793">
<rect width="126.337" height="126.337" fill="white" transform="matrix(0.87462 -0.48481 0.866025 0.5 62.0459 108.841)"/>
</clipPath>
</defs>
</svg>
