<svg width="163" height="49" viewBox="0 0 163 49" fill="none" xmlns="http://www.w3.org/2000/svg">
<g clip-path="url(#clip0_25276_2991)">
<path d="M77.5252 12.4568C79.7957 12.3812 82.4588 12.4363 84.7574 12.4429C84.6261 20.9148 84.7216 29.7566 84.7542 38.2507L84.6881 38.3806C83.5572 38.4049 79.8387 38.4609 78.8058 38.3342C78.3039 37.9237 75.4108 34.3358 74.8468 33.6578L69.8816 27.691C68.9912 26.6168 67.9482 25.4166 67.1231 24.3078C67.0676 26.286 67.1036 28.3847 67.1032 30.3726C67.0915 33.0428 67.0983 35.7131 67.1235 38.3832C64.7251 38.3714 62.3266 38.3781 59.9283 38.4032C59.8951 29.8257 60.0541 20.9981 59.8989 12.4472C61.7326 12.4469 63.6525 12.3951 65.4845 12.4533C65.7945 12.4631 66.0476 12.6468 66.2481 12.8715C67.5074 14.2821 68.7344 15.8219 69.9418 17.2766L77.6198 26.5403C77.4966 25.7333 77.5536 22.9005 77.5538 21.9691C77.5703 18.7983 77.5608 15.6274 77.5252 12.4568Z" fill="#131316"/>
<path d="M128.405 18.1844C132.542 18.1236 135.133 19.0781 138.392 21.5721L134.469 25.8791C132.326 24.0855 129.854 22.5476 127.119 24.4211C124.991 25.8777 124.742 29.8632 126.394 31.7335C129.423 35.1626 132.048 33.2009 134.846 31.0391C135.424 31.5103 136.38 32.5273 136.936 33.0847C137.559 33.6789 138.132 34.313 138.771 34.9071C136.275 37.2763 133.622 38.6903 130.073 38.9219C127.066 39.118 124.004 38.2289 121.735 36.2321C119.627 34.3887 118.369 31.7899 118.246 29.0255C117.932 22.9401 122.236 18.4752 128.405 18.1844Z" fill="#131316"/>
<path d="M91.9455 13.4698C94.0483 13.5463 96.4901 13.4933 98.6168 13.4792L98.6192 18.8264C100.154 18.8081 101.691 18.799 103.227 18.7992L103.217 23.4394C101.698 23.4669 100.128 23.4454 98.6048 23.4426C98.6462 25.413 98.6104 27.5818 98.6048 29.5499C98.5937 33.6308 98.2586 34.1788 102.799 33.459C102.86 34.7492 103.024 36.2443 103.116 37.5627C103.144 37.8169 103.213 38.1252 103.096 38.3412C102.344 38.9439 99.3912 39.113 98.3645 39.0751C96.5602 39.0086 94.5832 38.4935 93.3304 37.1464C92.716 36.4803 92.2942 35.6664 92.1071 34.7879C91.8699 33.709 91.9328 31.0658 91.9424 29.8376C91.9583 27.7854 91.8978 25.482 91.9957 23.4479C90.8814 23.4395 89.7672 23.4462 88.6529 23.4679C88.5988 21.9497 88.6243 20.2999 88.6235 18.7783C89.6589 18.8435 90.9387 18.8111 91.9997 18.8273C91.8851 17.219 91.944 15.1155 91.9455 13.4698Z" fill="#131316"/>
<path d="M107.427 18.7782C109.485 18.8841 112.024 18.8168 114.113 18.789C114.055 21.3142 114.093 23.9685 114.092 26.5028L114.11 38.3738C112.238 38.4904 109.439 38.3686 107.438 38.4053L107.427 18.7782Z" fill="#131316"/>
<path d="M110.042 9.91199C112.017 9.78969 114.057 10.4881 114.518 12.5973C114.693 13.404 114.535 14.2458 114.08 14.9398C113.498 15.8148 112.601 16.2831 111.579 16.4894C110.498 16.6418 109.561 16.5854 108.585 16.0273C107.794 15.5841 107.217 14.8499 106.982 13.9879C106.419 11.8436 108.081 10.3951 110.042 9.91199Z" fill="#131316"/>
<path d="M11.3243 0H38.897C42.6339 0.63581 45.6088 2.15995 47.8337 5.25912C48.9256 6.78476 49.6466 8.53449 49.9419 10.3747C50.1281 11.5769 50.0646 13.6694 50.0641 14.9426L50.0588 22.4862L50.0615 32.7483C50.0623 34.6171 50.2013 37.1884 49.8676 38.9816C48.9969 43.6606 45.1259 47.6 40.3886 48.6505C39.9617 48.7478 39.1857 48.8712 38.8061 49H11.3449C10.8978 48.8726 10.2966 48.7834 9.83189 48.6758C4.13152 47.3549 1.20993 43.5222 0 38.2193V11.0208C0.175617 9.00486 1.19943 6.5555 2.43915 4.94875C4.77245 1.92465 7.59401 0.558794 11.3243 0ZM20.1022 31.8483C21.5462 31.4307 22.9869 31.0018 24.4241 30.562C25.2577 30.3121 26.7244 30.0564 27.2221 29.3505C27.4006 28.5718 25.6164 23.4444 25.1885 22.3239C25.1385 22.1929 24.8543 22.0446 24.6777 22.0138C24.5781 21.9973 24.4776 21.9853 24.3769 21.9778C23.2327 22.2523 17.8452 23.6605 17.3482 24.3438C17.0904 25.3587 18.9644 30.228 19.3606 31.4293C19.4314 31.6438 19.8804 31.7951 20.1022 31.8483ZM21.0194 42.634C21.1831 42.5086 21.3192 42.3832 21.413 42.1982C21.8822 41.2735 22.7614 37.9145 22.8957 36.855C22.922 36.6472 22.961 36.2965 22.8271 36.123C22.4763 35.6685 17.5506 34.493 16.6902 34.3279C15.6548 35.0755 15.6376 36.8996 15.2793 38.0573C15.1304 38.5389 14.9915 39.0342 14.8368 39.5153C14.5903 40.2524 14.4004 40.9116 15.4099 41.2019C17.2254 41.7241 19.1606 42.2553 21.0194 42.634ZM33.3151 35.4173C34.0255 34.872 37.1764 32.075 37.5722 31.4307C37.1979 30.766 34.208 27.5274 33.5806 27.2022L33.2231 27.1793C32.1715 27.9675 31.2364 28.9831 30.23 29.8224C29.481 30.447 28.6446 31.1169 29.6383 31.9792C30.3142 32.5658 32.5886 35.4811 33.3151 35.4173ZM42.7671 13.9588C47.3911 13.0573 44.9735 7.77812 42.3589 8.28209C41.4775 8.40533 40.8362 8.64784 40.2767 9.38003C39.8444 9.93734 39.662 10.6427 39.7714 11.3342C39.9023 12.1524 40.3583 12.8868 41.0401 13.3772C41.5085 13.7088 42.1851 13.9589 42.7671 13.9588ZM10.4671 34.8488C11.8373 34.6123 12.7481 33.3281 12.4951 31.989C12.2423 30.6499 10.9228 29.7691 9.55675 30.0276C8.20651 30.2832 7.31937 31.5565 7.56931 32.8801C7.81925 34.2037 9.1128 35.0825 10.4671 34.8488ZM6.60897 37.2563C6.60059 38.7233 6.81104 39.7102 6.85168 41.0007C7.2325 40.962 7.682 40.9046 8.05807 40.8828C8.44448 40.8615 8.83821 40.8504 9.22231 40.8339C10.0645 40.7977 10.7915 40.832 10.6422 39.7719C10.5173 38.8854 10.433 37.9665 10.3499 37.0808C10.1085 37.0815 9.57856 37.0707 9.36709 37.1131C8.34818 37.2108 7.63779 37.3143 6.60897 37.2563ZM3.5076 34.359C2.81089 34.6278 2.1079 34.8808 1.3992 35.1177C1.60459 35.5213 2.19584 37.2429 2.40845 37.3135C3.09312 37.0629 3.85649 36.7659 4.54746 36.5581C4.32526 36.0338 3.87915 34.8131 3.64853 34.4074L3.5076 34.359ZM45.8023 19.5055C45.5183 18.6781 45.409 16.8473 45.0259 16.3281C44.8794 16.2899 44.8499 16.2795 44.6938 16.2937C43.9899 16.4315 42.4855 16.6995 41.822 16.8954C42.1452 17.9511 42.1798 18.9666 42.4989 20.0338C42.7268 20.1302 42.6643 20.1005 42.9411 20.0588C43.8779 19.885 44.8784 19.7165 45.8023 19.5055ZM29.7277 23.6774C29.9215 24.0219 30.5707 25.2193 30.8432 25.418C31.3868 25.0667 31.9722 24.7407 32.5347 24.4165C32.3975 24.1779 31.5921 22.7761 31.436 22.6822L29.7277 23.6774ZM28.0475 42.562L29.6414 41.6374C29.5032 41.4047 28.797 40.1591 28.6391 40.072L27.0553 40.9742C27.3657 41.411 27.8543 42.3123 28.0475 42.562ZM37.086 14.9287C36.3793 15.2624 35.2784 15.8175 34.7625 16.3892C34.9772 17.0331 35.7051 18.5557 36.3745 18.7818C37.3364 18.2614 39.2009 17.6687 38.2283 16.3366C37.8954 15.8807 37.6192 15.1689 37.086 14.9287ZM44.4583 5.50656C44.5816 5.71134 44.9049 6.37385 45.1211 6.39643L45.9401 5.88662C45.7981 5.63617 45.565 5.18224 45.3708 4.99706L45.3057 4.98092L44.4583 5.50656ZM25.4249 34.1263C25.3264 34.7616 25.3618 36.1533 25.3698 36.848C26.3007 36.8531 27.2569 36.8697 28.1854 36.8457L28.1834 34.1364C27.2594 34.0851 26.3493 34.1105 25.4249 34.1263ZM38.3245 27.6716C40.1986 27.4967 41.5771 25.8739 41.4105 24.0384C41.244 22.2029 39.595 20.8432 37.7187 20.9943C35.8251 21.1467 34.4204 22.7789 34.5884 24.6313C34.7564 26.4837 36.433 27.848 38.3245 27.6716Z" fill="#131316"/>
<path d="M163 29.4384C162.814 31.3481 162.107 33.1739 160.953 34.7251C155.545 41.8541 142.32 39.762 140.806 30.3044C139.257 20.6317 149.277 15.5254 157.563 19.4493C160.891 21.025 162.51 24.0115 163 27.5314V29.4384ZM155.643 33.183C156.429 32.6805 156.532 32.6182 156.534 31.6715C156.538 29.4216 156.575 27.155 156.513 24.9073C156.498 24.3679 155.93 24.0032 155.436 24.0001C153.04 23.9851 150.277 23.8552 147.905 24.0228C147.622 24.1781 147.337 24.3143 147.239 24.6438C147.059 25.2596 147.062 32.1716 147.292 32.5696C147.432 32.8114 147.645 33.0139 147.923 33.0845C148.857 33.3209 154.383 33.2454 155.643 33.183Z" fill="#131316"/>
</g>
<defs>
<clipPath id="clip0_25276_2991">
<rect width="163" height="49" fill="white"/>
</clipPath>
</defs>
</svg>
