<svg width="138" height="75" viewBox="0 0 138 75" fill="none" xmlns="http://www.w3.org/2000/svg">
<path d="M20.1195 29.295H19.8302L12.1475 45.1901H14.0199L19.8945 32.7548L25.9539 45.1901H27.6978L20.1195 29.295Z" fill="white"/>
<path d="M40.4676 30.6991C42.975 30.6991 45.1689 32.0179 46.3422 33.9728L47.6923 33.2203C46.2538 30.8155 43.5536 29.1942 40.4676 29.1942C35.8628 29.1942 32.1259 32.8014 32.1259 37.2464C32.1259 41.6915 35.8628 45.2987 40.4676 45.2987C43.5536 45.2987 46.2458 43.6774 47.6923 41.2725L46.3422 40.5201C45.1689 42.475 42.975 43.7937 40.4676 43.7937C36.7227 43.7937 33.6849 40.8614 33.6849 37.2464C33.6849 33.6314 36.7227 30.6991 40.4676 30.6991Z" fill="white"/>
<path d="M79.219 29.3804H77.4671V45.1125H79.219V29.3804Z" fill="white"/>
<path d="M96.2079 29.1942C91.6031 29.1942 87.8662 32.8014 87.8662 37.2464C87.8662 41.6915 91.6031 45.2987 96.2079 45.2987C100.813 45.2987 104.55 41.6915 104.55 37.2464C104.542 32.8014 100.813 29.1942 96.2079 29.1942ZM96.2079 43.7937C92.463 43.7937 89.4252 40.8614 89.4252 37.2464C89.4252 33.6314 92.463 30.6991 96.2079 30.6991C99.9529 30.6991 102.991 33.6314 102.991 37.2464C102.991 40.8614 99.9529 43.7937 96.2079 43.7937Z" fill="white"/>
<path d="M125.725 29.3804L118.862 36.7189L111.999 29.3804H111.573V45.1125H113.205V34.4925C113.205 34.3762 113.197 34.252 113.197 34.1279V33.1427L114.177 34.159C114.185 34.1667 114.185 34.1667 114.193 34.1745L115.318 35.3381L115.503 35.532L118.87 39.0151L123.548 34.1745C124.006 33.6392 124.673 32.7161 124.673 32.7161C124.673 32.7161 124.528 33.8254 124.528 34.5003V45.1203H126.159V29.3804H125.725Z" fill="white"/>
<path d="M70.588 45.2987L66.2322 38.6738L64.1267 41.8699L63.2186 43.2585L64.5607 45.2987H70.588Z" fill="white"/>
<path d="M64.5607 29.1942L63.2186 31.2344L64.1267 32.6152L65.1071 34.1124L66.2322 35.819L70.588 29.1942H64.5607Z" fill="white"/>
<path d="M56.6127 24.6716H49.0183L57.2878 37.2464L49.0183 49.8213H56.6127L64.8741 37.2464L56.6127 24.6716Z" fill="white"/>
</svg>
