<svg width="97" height="22" viewBox="0 0 97 22" fill="none" xmlns="http://www.w3.org/2000/svg">
    <path d="M7.6252 4.35838H7.38151L0.910156 17.7471H2.48738L7.43566 7.27266L12.5396 17.7471H14.0085L7.6252 4.35838Z" fill="white"/>
    <path d="M24.7648 5.54108C26.8768 5.54108 28.7248 6.6519 29.7131 8.29854L30.8503 7.66471C29.6386 5.63909 27.3642 4.27343 24.7648 4.27343C20.8861 4.27343 17.7384 7.31186 17.7384 11.056C17.7384 14.8001 20.8861 17.8386 24.7648 17.8386C27.3642 17.8386 29.6319 16.4729 30.8503 14.4473L29.7131 13.8135C28.7248 15.4601 26.8768 16.5709 24.7648 16.5709C21.6104 16.5709 19.0516 14.101 19.0516 11.056C19.0516 8.01103 21.6104 5.54108 24.7648 5.54108Z" fill="white"/>
    <path d="M57.4059 4.43025H55.9302V17.6817H57.4059V4.43025Z" fill="white"/>
    <path d="M71.7159 4.27343C67.8372 4.27343 64.6895 7.31186 64.6895 11.056C64.6895 14.8001 67.8372 17.8386 71.7159 17.8386C75.5947 17.8386 78.7424 14.8001 78.7424 11.056C78.7356 7.31186 75.5947 4.27343 71.7159 4.27343ZM71.7159 16.5709C68.5615 16.5709 66.0027 14.101 66.0027 11.056C66.0027 8.01103 68.5615 5.54108 71.7159 5.54108C74.8704 5.54108 77.4291 8.01103 77.4291 11.056C77.4291 14.101 74.8704 16.5709 71.7159 16.5709Z" fill="white"/>
    <path d="M96.5792 4.43025L90.7983 10.6117L85.0174 4.43025H84.6586V17.6817H86.0328V8.73633C86.0328 8.63832 86.026 8.53377 86.026 8.42922V7.59937L86.8519 8.45536C86.8586 8.4619 86.8586 8.4619 86.8654 8.46843L87.8131 9.44857L87.9688 9.61193L90.8051 12.5458L94.7447 8.46843C95.1306 8.01757 95.6924 7.23999 95.6924 7.23999C95.6924 7.23999 95.5706 8.17439 95.5706 8.74287V17.6883H96.9447V4.43025H96.5792Z" fill="white"/>
    <path d="M50.1357 17.8386L46.4668 12.2583L44.6933 14.9504L43.9284 16.1201L45.0588 17.8386H50.1357Z" fill="white"/>
    <path d="M45.0588 4.27343L43.9284 5.99194L44.6933 7.15504L45.5192 8.41616L46.4668 9.85369L50.1357 4.27343H45.0588Z" fill="white"/>
    <path d="M38.3641 0.463951H31.9672L38.9327 11.056L31.9672 21.648H38.3641L45.3228 11.056L38.3641 0.463951Z" fill="white"/>
</svg>
