<svg width="135" height="75" viewBox="0 0 135 75" fill="none" xmlns="http://www.w3.org/2000/svg">
<path d="M19.1195 29.295H18.8302L11.1475 45.1901H13.0199L18.8945 32.7548L24.9539 45.1901H26.6978L19.1195 29.295Z" fill="white"/>
<path d="M39.4676 30.6991C41.975 30.6991 44.1689 32.0179 45.3422 33.9728L46.6923 33.2203C45.2538 30.8155 42.5536 29.1942 39.4676 29.1942C34.8628 29.1942 31.1259 32.8014 31.1259 37.2464C31.1259 41.6915 34.8628 45.2987 39.4676 45.2987C42.5536 45.2987 45.2458 43.6774 46.6923 41.2725L45.3422 40.5201C44.1689 42.475 41.975 43.7937 39.4676 43.7937C35.7227 43.7937 32.6849 40.8614 32.6849 37.2464C32.6849 33.6314 35.7227 30.6991 39.4676 30.6991Z" fill="white"/>
<path d="M78.219 29.3804H76.4671V45.1125H78.219V29.3804Z" fill="white"/>
<path d="M95.2079 29.1942C90.6031 29.1942 86.8662 32.8014 86.8662 37.2464C86.8662 41.6915 90.6031 45.2987 95.2079 45.2987C99.813 45.2987 103.55 41.6915 103.55 37.2464C103.542 32.8014 99.813 29.1942 95.2079 29.1942ZM95.2079 43.7937C91.463 43.7937 88.4252 40.8614 88.4252 37.2464C88.4252 33.6314 91.463 30.6991 95.2079 30.6991C98.9529 30.6991 101.991 33.6314 101.991 37.2464C101.991 40.8614 98.9529 43.7937 95.2079 43.7937Z" fill="white"/>
<path d="M124.725 29.3804L117.862 36.7189L110.999 29.3804H110.573V45.1125H112.205V34.4925C112.205 34.3762 112.197 34.252 112.197 34.1279V33.1427L113.177 34.159C113.185 34.1667 113.185 34.1667 113.193 34.1745L114.318 35.3381L114.503 35.532L117.87 39.0151L122.548 34.1745C123.006 33.6392 123.673 32.7161 123.673 32.7161C123.673 32.7161 123.528 33.8254 123.528 34.5003V45.1203H125.159V29.3804H124.725Z" fill="white"/>
<path d="M69.588 45.2987L65.2322 38.6738L63.1267 41.8699L62.2186 43.2585L63.5607 45.2987H69.588Z" fill="white"/>
<path d="M63.5607 29.1942L62.2186 31.2344L63.1267 32.6152L64.1071 34.1124L65.2322 35.819L69.588 29.1942H63.5607Z" fill="white"/>
<path d="M55.6127 24.6716H48.0183L56.2878 37.2464L48.0183 49.8213H55.6127L63.8741 37.2464L55.6127 24.6716Z" fill="white"/>
</svg>
