<svg width="116" height="64" viewBox="0 0 116 64" fill="none" xmlns="http://www.w3.org/2000/svg">
    <path d="M16.6818 24.5942H16.4381L9.9668 37.9829H11.544L16.4923 27.5085L21.5963 37.9829H23.0652L16.6818 24.5942Z" fill="white"/>
    <path d="M33.8214 25.7769C35.9334 25.7769 37.7814 26.8877 38.7697 28.5343L39.9069 27.9005C38.6953 25.8749 36.4208 24.5092 33.8214 24.5092C29.9427 24.5092 26.795 27.5477 26.795 31.2918C26.795 35.0359 29.9427 38.0744 33.8214 38.0744C36.4208 38.0744 38.6885 36.7087 39.9069 34.6831L38.7697 34.0493C37.7814 35.6959 35.9334 36.8067 33.8214 36.8067C30.667 36.8067 28.1082 34.3368 28.1082 31.2918C28.1082 28.2468 30.667 25.7769 33.8214 25.7769Z" fill="white"/>
    <path d="M66.4625 24.666H64.9868V37.9175H66.4625V24.666Z" fill="white"/>
    <path d="M80.7726 24.5092C76.8938 24.5092 73.7462 27.5477 73.7462 31.2918C73.7462 35.0359 76.8938 38.0744 80.7726 38.0744C84.6513 38.0744 87.799 35.0359 87.799 31.2918C87.7922 27.5477 84.6513 24.5092 80.7726 24.5092ZM80.7726 36.8067C77.6181 36.8067 75.0594 34.3368 75.0594 31.2918C75.0594 28.2468 77.6181 25.7769 80.7726 25.7769C83.927 25.7769 86.4858 28.2468 86.4858 31.2918C86.4858 34.3368 83.927 36.8067 80.7726 36.8067Z" fill="white"/>
    <path d="M105.636 24.666L99.8549 30.8475L94.074 24.666H93.7153V37.9175H95.0894V28.9721C95.0894 28.8741 95.0827 28.7696 95.0827 28.665V27.8352L95.9085 28.6912C95.9153 28.6977 95.9153 28.6977 95.922 28.7042L96.8697 29.6844L97.0254 29.8477L99.8617 32.7816L103.801 28.7042C104.187 28.2534 104.749 27.4758 104.749 27.4758C104.749 27.4758 104.627 28.4102 104.627 28.9787V37.9241H106.001V24.666H105.636Z" fill="white"/>
    <path d="M59.1924 38.0744L55.5235 32.4941L53.75 35.1862L52.985 36.3559L54.1155 38.0744H59.1924Z" fill="white"/>
    <path d="M54.1155 24.5092L52.985 26.2277L53.75 27.3908L54.5758 28.6519L55.5235 30.0895L59.1924 24.5092H54.1155Z" fill="white"/>
    <path d="M47.4208 20.6997H41.0239L47.9894 31.2918L41.0239 41.8838H47.4208L54.3795 31.2918L47.4208 20.6997Z" fill="white"/>
</svg>
