<svg width="86" height="15" viewBox="0 0 86 15" fill="none" xmlns="http://www.w3.org/2000/svg">
    <path fill-rule="evenodd" clip-rule="evenodd" d="M12.2712 10.6445L12.5254 9.94471C13.0481 8.53104 12.8221 7.42529 11.2118 7.01939C13.0904 6.65547 14.1781 5.38177 14.6583 4.08007L14.8419 3.59018C15.5906 1.56065 15.0114 0.0489991 12.2288 0.0489991H5.51939L0.349609 14.1577H7.1014C9.88404 14.1577 11.5226 12.6601 12.2712 10.6445ZM8.38678 9.04892L7.99128 10.1267C7.79353 10.6585 7.4404 10.8965 6.90365 10.8965H6.19739L7.1579 8.29309H7.86415C8.38678 8.29309 8.58453 8.51704 8.38678 9.04892ZM10.2089 4.09406L9.79929 5.19981C9.61567 5.70369 9.24841 5.94164 8.72578 5.94164H8.01953L8.96591 3.35223H9.67216C10.2089 3.35223 10.4067 3.56218 10.2089 4.09406ZM19.701 0.0350037L11.0988 14.1577H15.2516L16.4663 12.0582H18.7687L18.3873 14.1577H23.0486L24.8143 0.0350037H19.701ZM19.3196 9.30086H18.0625L20.1671 5.46575L19.3196 9.30086ZM52.9797 10.3646L51.5813 14.1577H42.5977L46.3833 3.84212H42.9509L39.1653 14.1577H34.5041L38.2896 3.84212H33.0068L29.2213 14.1577H24.56L28.3455 3.84212H25.2521L26.6364 0.0489991H56.7652L55.4516 3.63217H51.1152L50.4795 5.35377H54.8159L53.6294 8.60102H49.293L48.6433 10.3786H52.9797V10.3646ZM79.4501 3.61817L78.8286 5.33978H83.165L81.9785 8.58702H77.6279L76.9782 10.3646H81.3146L79.9162 14.1577H62.2175L67.3873 0.0350037H72.0203L68.2348 10.3646H72.3028L76.0883 0.0350037H85.086L83.7724 3.61817H79.4501ZM62.7825 10.3646L61.3982 14.1577H52.5559L57.7257 0.0350037H62.3587L58.5732 10.3646H62.7825Z" fill="white"/>
</svg>
