<svg width="114" height="64" viewBox="0 0 114 64" fill="none" xmlns="http://www.w3.org/2000/svg">
    <path fill-rule="evenodd" clip-rule="evenodd" d="M26.4284 35.0822L26.6827 34.3823C27.2053 32.9686 26.9793 31.8629 25.369 31.457C27.2477 31.0931 28.3353 29.8194 28.8155 28.5177L28.9992 28.0278C29.7478 25.9983 29.1687 24.4866 26.386 24.4866H19.6766L14.5068 38.5953H21.2586C24.0413 38.5953 25.6798 37.0977 26.4284 35.0822ZM22.544 33.4865L22.1485 34.5643C21.9508 35.0962 21.5976 35.3341 21.0609 35.3341H20.3546L21.3151 32.7307H22.0214C22.544 32.7307 22.7418 32.9547 22.544 33.4865ZM24.3661 28.5317L23.9565 29.6374C23.7729 30.1413 23.4056 30.3792 22.883 30.3792H22.1768L23.1231 27.7898H23.8294C24.3661 27.7898 24.5639 27.9998 24.3661 28.5317ZM33.8582 24.4726L25.256 38.5953H29.4088L30.6236 36.4958H32.9259L32.5446 38.5953H37.2058L38.9715 24.4726H33.8582ZM33.4768 33.7385H32.2197L34.3243 29.9034L33.4768 33.7385ZM67.1369 34.8022L65.7385 38.5953H56.755L60.5405 28.2797H57.1081L53.3226 38.5953H48.6613L52.4468 28.2797H47.164L43.3785 38.5953H38.7172L42.5028 28.2797H39.4094L40.7936 24.4866H70.9224L69.6088 28.0698H65.2724L64.6368 29.7914H68.9732L67.7867 33.0386H63.4503L62.8005 34.8162H67.1369V34.8022ZM93.6073 28.0558L92.9858 29.7774H97.3222L96.1357 33.0246H91.7852L91.1354 34.8022H95.4718L94.0734 38.5953H76.3747L81.5445 24.4726H86.1775L82.392 34.8022H86.46L90.2455 24.4726H99.2432L97.9296 28.0558H93.6073ZM76.9397 34.8022L75.5555 38.5953H66.7132L71.8829 24.4726H76.516L72.7304 34.8022H76.9397Z" fill="white"/>
</svg>
