<svg width="60" height="51" viewBox="0 0 60 51" fill="none" xmlns="http://www.w3.org/2000/svg">
<path d="M5.10606 37.4261C5.27194 37.4468 5.44141 37.4665 5.61356 37.488C5.7633 37.5077 5.91394 37.5266 6.06637 37.5445C6.39096 37.5813 6.72541 37.618 7.06793 37.6566C7.59427 37.7167 8.14302 37.7723 8.70701 37.8296C8.80385 37.8395 8.90248 37.8494 9.00022 37.8601C9.47634 37.905 9.96591 37.948 10.4653 37.991C10.6581 38.0081 10.8536 38.0251 11.0482 38.0421C11.1611 38.052 11.2732 38.0619 11.3862 38.0717C11.6265 38.0915 11.8668 38.1094 12.1098 38.1282C12.1833 38.1336 12.256 38.139 12.3295 38.1444C12.6146 38.1641 12.9033 38.1829 13.193 38.2035C13.5516 38.2269 13.9121 38.2484 14.2752 38.2708C14.6518 38.2941 15.032 38.3201 15.4167 38.3416C16.1698 38.3802 16.9392 38.4098 17.713 38.4412C17.9318 38.4492 18.1506 38.4591 18.3702 38.4663C18.5388 38.4734 18.7092 38.4797 18.8804 38.4851C19.0616 38.4887 19.2418 38.4941 19.4229 38.4994C19.63 38.503 19.8381 38.5057 20.047 38.5093C20.1886 38.5129 20.3312 38.5165 20.472 38.5183C20.6074 38.5219 20.2819 38.5227 20.6226 38.5245V36.404C19.8363 36.4022 19.9896 36.4013 19.882 36.3995C19.7609 36.3986 18.9405 36.3968 18.8186 36.3959C18.6984 36.3914 17.8905 36.3869 17.7704 36.3824C17.5301 36.3753 15.8847 36.3663 15.6489 36.3573C15.4131 36.3439 13.8332 36.3322 13.6045 36.3188C13.4898 36.3107 12.7706 36.3071 12.6586 36.2982C12.5465 36.2883 11.8534 36.2793 11.744 36.2704C11.5234 36.2533 10.0448 36.2363 9.8359 36.2192C9.62608 36.1968 8.24524 36.1762 8.04887 36.1547C7.95113 36.1448 7.34051 36.135 7.24637 36.126C7.15222 36.1161 6.57388 36.1018 6.48242 36.091C6.12196 36.0408 3.87137 36.0041 3.58265 35.9556C3.43739 35.9323 2.53356 35.9117 2.40713 35.892C2.34437 35.8821 2.02247 35.8749 1.96329 35.8642C1.90591 35.8543 1.62167 35.8436 1.56876 35.8328C1.56159 35.831 1.55083 35.8301 1.54186 35.8292C1.63332 36.2148 1.73195 36.594 1.83597 36.9662C1.94177 36.9823 2.04847 37.0002 2.16235 37.0182C2.77207 37.1114 3.4867 37.2118 4.2901 37.3176C4.55282 37.3544 4.8254 37.3903 5.10606 37.4261ZM2.96844 27.4285C3.51181 27.4859 4.08387 27.5397 4.68104 27.5961C5.27821 27.6544 5.90228 27.7082 6.54698 27.7602C7.19167 27.8149 7.85878 27.8678 8.54472 27.918C8.88814 27.9449 9.23604 27.97 9.58753 27.9978C9.94081 28.0203 10.2968 28.0427 10.6581 28.066C11.3799 28.1099 12.1179 28.1574 12.8684 28.1969C14.3649 28.2893 15.9349 28.3368 17.5202 28.4013C17.9174 28.4121 18.3155 28.4238 18.7154 28.4363C19.1109 28.4444 19.5081 28.4516 19.9053 28.4596C20.2129 28.4659 19.9995 28.4704 20.6226 28.4749V25.7741H0.959937C0.902552 26.2843 0.859512 26.7004 0.829026 27.1971C1.0227 27.2187 1.21997 27.2411 1.4244 27.2644C1.90949 27.3209 2.42507 27.3729 2.96844 27.4285ZM42.9403 22.8322C42.9125 22.6933 42.8865 22.5561 42.856 22.4162C42.7672 22.0055 42.683 21.6935 42.5987 21.3034C42.2149 21.2622 41.8132 21.2209 41.3936 21.1779C40.8502 21.1214 40.2781 21.0676 39.6792 21.0111C39.0838 20.952 38.4615 20.8982 37.8159 20.8461C37.1703 20.7906 36.5041 20.7394 35.8182 20.6892C35.4748 20.6623 35.1269 20.6363 34.7745 20.6094C34.423 20.587 34.0661 20.5637 33.7048 20.5413C32.983 20.4973 32.2441 20.4489 31.4945 20.4104C29.9989 20.3171 28.4289 20.2705 26.8427 20.2068C26.4446 20.1943 26.0465 20.1817 25.6475 20.1701C25.2511 20.162 24.8548 20.1548 24.4576 20.1468C23.7008 20.1297 22.9414 20.127 22.1819 20.1163C21.4224 20.127 20.6621 20.1297 19.9053 20.1468C19.5081 20.1548 19.1109 20.162 18.7154 20.1701C18.3155 20.1817 17.9174 20.1943 17.5202 20.2068C15.9349 20.2705 14.3649 20.3171 12.8684 20.4104C12.1179 20.4489 11.3799 20.4973 10.6581 20.5413C10.2968 20.5637 9.94081 20.587 9.58753 20.6094C9.23604 20.6363 8.88814 20.6623 8.54472 20.6892C7.85878 20.7394 7.19167 20.7906 6.54698 20.8461C5.90228 20.8982 5.27821 20.952 4.68104 21.0111C4.08387 21.0676 3.51181 21.1214 2.96844 21.1779C2.5497 21.2209 2.148 21.2622 1.76423 21.3034C1.68085 21.6935 1.59566 22.0055 1.5069 22.4162C1.47731 22.5561 1.4513 22.6933 1.42261 22.8322H42.9403ZM6.49766 41.8188C6.6492 41.8395 6.80342 41.8619 6.95854 41.8834C7.09483 41.9031 7.23202 41.9211 7.371 41.939C7.66869 41.9758 7.97086 42.0125 8.2829 42.0493C8.77426 42.1094 9.28356 42.1685 9.809 42.2277C9.89956 42.2385 9.99102 42.2492 10.0834 42.26C10.5281 42.3039 10.9818 42.3461 11.4472 42.3918C11.6274 42.4079 11.8103 42.4259 11.9941 42.442C12.0973 42.4528 12.2031 42.4635 12.308 42.4716C12.5303 42.4931 12.7563 42.5111 12.9831 42.5317C13.0513 42.5371 13.1194 42.5424 13.1867 42.5478C13.4539 42.5666 13.7238 42.5855 13.9946 42.6043C14.3263 42.6276 14.6635 42.65 15.0015 42.6734C15.353 42.6967 15.7081 42.72 16.0667 42.7424C16.7697 42.7818 17.4861 42.8096 18.207 42.8392C18.4106 42.8482 18.6123 42.8572 18.8168 42.8643C18.9755 42.8697 19.1342 42.876 19.2929 42.8814C19.4615 42.885 19.63 42.8903 19.7986 42.8939C19.9923 42.8984 20.186 42.9011 20.3805 42.9056C20.4603 42.9056 20.5419 42.9083 20.6226 42.9083V41.1239C20.099 41.123 20.3958 41.1212 20.2837 41.1203C20.0999 41.1186 19.4516 41.1168 19.2696 41.1141C19.0884 41.1078 18.4491 41.1015 18.2698 41.0934C17.9076 41.0818 16.6119 41.0701 16.2577 41.0567C15.9053 41.037 14.6563 41.0181 14.3138 40.9975C14.1416 40.9876 13.5669 40.9796 13.3992 40.967C13.2306 40.9527 12.6765 40.9392 12.5124 40.9258C12.1824 40.8998 11.0168 40.8747 10.703 40.8496C10.3909 40.8155 9.3006 40.785 9.0056 40.7527C8.85855 40.7384 8.37166 40.724 8.2291 40.7097C8.08743 40.6935 7.62565 40.6738 7.49025 40.6559C6.94778 40.5833 5.16793 40.5286 4.73395 40.4532C4.51516 40.4192 3.79874 40.3878 3.60954 40.3582C3.5145 40.3447 3.24819 40.3313 3.16212 40.3161C3.12535 40.3089 3.06169 40.3035 2.99534 40.2963C3.14508 40.655 3.3002 41.0056 3.45891 41.3463C3.57009 41.3669 3.68576 41.3858 3.80681 41.4073C4.37349 41.5041 5.02357 41.6036 5.74447 41.7094C5.98836 41.7453 6.23943 41.7821 6.49766 41.8188ZM20.6226 49.6251C20.1268 49.6215 20.3967 49.6197 20.1716 49.617C19.8676 49.6054 19.5655 49.5946 19.266 49.5838C18.6634 49.5632 18.0654 49.5426 17.4754 49.522C16.8863 49.4879 16.3043 49.4547 15.7314 49.4224C15.4463 49.4054 15.1611 49.3938 14.8814 49.3695C14.5998 49.3471 14.3227 49.3256 14.0493 49.3032C13.4987 49.2602 12.9607 49.2162 12.438 49.175C11.9161 49.1203 11.4086 49.0665 10.9191 49.0136C10.6734 48.9903 10.4322 48.9652 10.1937 48.9418C9.95784 48.9149 9.7274 48.8818 9.50145 48.854C9.08899 48.7975 8.69177 48.7482 8.31338 48.6997C8.64335 49.0665 8.94911 49.3875 9.2199 49.6583C9.24142 49.6619 9.26114 49.6672 9.28356 49.6699C9.51131 49.7112 9.74354 49.756 9.98205 49.7937C10.2215 49.8304 10.4636 49.8672 10.711 49.9031C11.2078 49.9739 11.7216 50.0474 12.2479 50.1227C12.7796 50.1846 13.3239 50.2465 13.8807 50.3101C14.1605 50.3406 14.442 50.372 14.7271 50.4034C15.0123 50.433 15.3019 50.4491 15.5924 50.4742C16.1752 50.5199 16.767 50.5657 17.3669 50.6114C17.9685 50.6491 18.5774 50.6751 19.1925 50.7011C19.4991 50.7145 19.8076 50.7271 20.116 50.7414C20.359 50.745 20.099 50.7728 20.6226 50.7836V49.6251ZM9.50593 46.1344C9.96143 46.1954 10.4331 46.2564 10.9173 46.3173C11.0033 46.3281 11.0876 46.3389 11.1746 46.3496C11.5862 46.3936 12.0085 46.4384 12.438 46.4823C12.6057 46.5003 12.7751 46.5182 12.9455 46.5352C13.0423 46.546 13.1383 46.555 13.2369 46.5639C13.444 46.5854 13.6529 46.6043 13.8637 46.6267C13.9264 46.6312 13.9901 46.6375 14.0537 46.6428C14.3003 46.6617 14.5505 46.6787 14.8016 46.6975C15.1109 46.7208 15.422 46.7432 15.735 46.7648C16.0623 46.7881 16.3931 46.8123 16.7258 46.8356C17.3776 46.8742 18.0394 46.9002 18.7083 46.9289C18.8948 46.9369 19.0822 46.9441 19.2705 46.9531C19.4184 46.9576 19.5655 46.9638 19.7125 46.971C19.8685 46.9728 20.0263 46.9773 20.1824 46.98C20.3294 46.9827 20.4765 46.9853 20.6226 46.9889V45.5337C20.5025 45.5337 20.5608 45.5346 20.6226 45.5337V45.5319C20.3662 45.5283 19.9501 45.5265 19.7296 45.5247C19.4866 45.5148 19.0158 45.5059 18.7746 45.4987C18.294 45.4808 17.3472 45.4646 16.8746 45.4476C16.4039 45.4216 15.4893 45.3956 15.0302 45.3687C14.8025 45.3543 14.3721 45.3454 14.1488 45.3265C13.9246 45.3086 13.5086 45.2916 13.2889 45.2736C12.8486 45.2378 11.9968 45.2037 11.579 45.1705C11.162 45.1266 10.3631 45.0836 9.97129 45.0423C9.77493 45.0226 9.40999 45.0028 9.2199 44.984C9.0307 44.9634 8.68639 44.9365 8.50437 44.9132C7.78167 44.8146 6.47256 44.7428 5.89332 44.6433C5.71309 44.6155 5.44141 44.5877 5.2011 44.5617C5.4172 44.9096 5.63419 45.2441 5.85207 45.5624C6.27081 45.6377 6.72451 45.713 7.20602 45.791C7.43108 45.8287 7.66241 45.8645 7.89913 45.9031C8.03452 45.9246 8.17261 45.9452 8.31159 45.9685C8.43443 45.9865 8.55906 46.0062 8.6846 46.025C8.95359 46.0609 9.22617 46.0977 9.50593 46.1344ZM3.71176 32.569C3.89378 32.5905 4.07939 32.6102 4.26948 32.6326C4.42998 32.6506 4.59407 32.6694 4.76085 32.6873C5.11323 32.725 5.47906 32.7627 5.85387 32.7994C6.41517 32.8595 7.00068 32.9133 7.60503 32.9689C7.70814 32.9779 7.81215 32.9886 7.91706 32.9985C8.42546 33.0424 8.94911 33.0854 9.48262 33.1276C9.68885 33.1446 9.89508 33.1617 10.104 33.1787C10.2241 33.1886 10.3443 33.1984 10.4653 33.2083C10.72 33.2271 10.9782 33.2442 11.2374 33.263C11.3154 33.2684 11.3925 33.272 11.4714 33.2782C11.7763 33.298 12.0829 33.3177 12.3931 33.3374C12.7751 33.3625 13.1616 33.384 13.5498 33.4073C13.9506 33.4316 14.3559 33.4567 14.7648 33.4773C15.5709 33.5167 16.3922 33.5472 17.2207 33.5786C17.4539 33.5885 17.6888 33.5983 17.9237 33.6073C18.1057 33.6136 18.2859 33.6199 18.468 33.6252C18.6607 33.6306 18.8535 33.636 19.0481 33.6414C19.2678 33.6468 19.4893 33.6494 19.7116 33.6539C19.8632 33.6566 20.0156 33.6593 20.1671 33.662C20.394 33.6665 20.125 33.6701 20.6226 33.6728V31.2186C19.6229 31.2177 19.5475 31.2177 19.4812 31.2159C19.4202 31.2159 18.4276 31.215 18.3675 31.215C18.3075 31.2123 17.3319 31.2097 17.2718 31.2079C17.1508 31.2034 15.1584 31.1989 15.0401 31.1962C14.9226 31.1881 13.0083 31.1828 12.8944 31.1756C12.8361 31.172 11.9735 31.1702 11.917 31.1639C11.8614 31.1603 11.0293 31.1559 10.9746 31.1514C10.8644 31.1433 9.07285 31.1343 8.96704 31.1263C8.86393 31.1146 7.19167 31.1047 7.09304 31.094C7.04283 31.0895 6.30936 31.0841 6.26274 31.0796C6.21522 31.0743 5.523 31.068 5.47727 31.0617C5.29615 31.0375 2.5757 31.0187 2.43045 30.9945C2.35782 30.9837 1.26839 30.972 1.20562 30.9631C1.18051 30.9586 0.940211 30.9559 0.825439 30.9523C0.851442 31.3809 0.887308 31.8041 0.931244 32.2211C1.49165 32.2964 2.12917 32.3771 2.83573 32.4641C3.11728 32.4999 3.40959 32.5349 3.71176 32.569ZM8.50437 2.86559C8.68639 2.84227 9.0307 2.81537 9.2199 2.79475C9.40999 2.77682 9.77493 2.75619 9.97129 2.73647C10.3631 2.69522 11.162 2.65218 11.579 2.60825C11.9968 2.57507 12.8486 2.541 13.2889 2.50603C13.5086 2.4881 13.9246 2.47016 14.1488 2.45223C14.3721 2.4334 14.8025 2.42443 15.0302 2.41009C15.4893 2.38409 16.4039 2.35718 16.8746 2.33029C17.3472 2.31415 18.294 2.29801 18.7746 2.28097C19.0158 2.2729 19.4866 2.26393 19.7296 2.25497C19.9717 2.25228 20.4487 2.24958 20.6926 2.24689C21.0521 2.24331 21.6798 2.23972 22.1819 2.23614C22.6831 2.23972 23.3108 2.24331 23.6703 2.24689C23.9142 2.24958 24.3913 2.25228 24.6333 2.25497C24.8772 2.26393 25.3462 2.2729 25.5874 2.28097C26.0689 2.29801 27.0149 2.31415 27.4883 2.33029C27.959 2.35718 28.8745 2.38409 29.3318 2.41009C29.5604 2.42443 29.99 2.4334 30.215 2.45223C30.4383 2.47016 30.8543 2.4881 31.074 2.50603C31.5134 2.541 32.3652 2.57507 32.7839 2.60825C33.2009 2.65218 33.9989 2.69522 34.3916 2.73647C34.5889 2.75619 34.9529 2.77682 35.1421 2.79475C35.3322 2.81537 35.6774 2.84227 35.8585 2.86559C36.5821 2.96332 37.8913 3.03595 38.4696 3.13637C38.7036 3.17224 39.0874 3.20632 39.3609 3.23859C39.3196 2.94987 39.2784 2.65487 39.2353 2.35539C39.1295 2.33387 39.0192 2.31145 38.9054 2.28993C38.3808 2.18951 37.7944 2.08998 37.1569 1.98776C36.9309 1.951 36.6996 1.91334 36.4629 1.87568C36.3275 1.85506 36.1903 1.83175 36.0513 1.81023C35.9285 1.7905 35.8038 1.77167 35.6774 1.75374C35.4102 1.71787 35.1358 1.68201 34.857 1.64435C34.4006 1.58427 33.9298 1.5233 33.4447 1.46143C33.3596 1.45067 33.2753 1.43991 33.1883 1.43005C32.7767 1.38521 32.3553 1.34128 31.9249 1.29734C31.7572 1.27941 31.5869 1.26147 31.4165 1.24354C31.3206 1.23457 31.2237 1.22382 31.126 1.21485C30.9189 1.19333 30.71 1.1736 30.4984 1.15298C30.4374 1.1476 30.3737 1.14222 30.3101 1.13684C30.0635 1.11622 29.8133 1.10097 29.5613 1.08035C29.2529 1.05883 28.9418 1.03552 28.627 1.0131C28.3007 0.988892 27.9698 0.965581 27.638 0.942268C26.9844 0.905505 26.3226 0.877708 25.6546 0.849912L25.0924 0.825702C24.9445 0.820322 24.7974 0.814941 24.6504 0.808665C24.4944 0.805078 24.3366 0.801493 24.1805 0.798803C24.0003 0.79432 23.821 0.792526 23.6408 0.788043C23.5179 0.787146 23.3951 0.784456 23.2722 0.782662C22.91 0.775489 22.545 0.770108 22.1819 0.765625C21.8179 0.770108 21.4538 0.775489 21.0925 0.782662C20.9678 0.784456 20.8441 0.787146 20.7222 0.788043C20.5419 0.792526 20.3617 0.79432 20.1824 0.798803C20.0263 0.801493 19.8685 0.805078 19.7125 0.808665C19.5655 0.814941 19.4184 0.820322 19.2705 0.825702C19.0822 0.833772 18.8948 0.841842 18.7083 0.849912C18.0394 0.877708 17.3776 0.905505 16.7258 0.942268C16.3931 0.965581 16.0623 0.988892 15.735 1.0131C15.422 1.03552 15.1109 1.05883 14.8016 1.08035C14.5505 1.10097 14.3003 1.11622 14.0537 1.13684C13.9901 1.14222 13.9264 1.1476 13.8637 1.15298C13.6529 1.1736 13.444 1.19333 13.2369 1.21485C13.1383 1.22382 13.0423 1.23457 12.9455 1.24354C12.7751 1.26147 12.6057 1.27941 12.438 1.29734C12.0085 1.34128 11.5862 1.38521 11.1746 1.43005C11.0876 1.43991 11.0033 1.45067 10.9173 1.46143C10.4331 1.5233 9.96143 1.58427 9.50593 1.64435C9.22617 1.68201 8.95359 1.71787 8.6846 1.75374C8.55906 1.77167 8.43443 1.7905 8.31159 1.81023C8.17261 1.83175 8.03452 1.85506 7.89913 1.87568C7.66241 1.91334 7.43108 1.951 7.20602 1.98776C6.5685 2.08998 5.98298 2.18951 5.45844 2.28993C5.34367 2.31145 5.23338 2.33387 5.12758 2.35539C5.08454 2.65487 5.04239 2.94987 5.00205 3.23859C5.27552 3.20632 5.65929 3.17224 5.89332 3.13637C6.47256 3.03595 7.78167 2.96332 8.50437 2.86559ZM20.6226 46.9934V46.9916C20.5724 46.9916 20.5392 46.9925 20.6226 46.9934ZM20.6226 42.9145V42.9128C20.5903 42.9128 20.5787 42.9145 20.6226 42.9145ZM7.49025 7.11572C7.62565 7.09778 8.08743 7.07806 8.2291 7.06192C8.37166 7.04847 8.85855 7.03323 9.0056 7.01888C9.3006 6.98839 10.3909 6.95521 10.703 6.92204C11.0168 6.89783 12.1824 6.87093 12.5124 6.84582C12.6765 6.83237 13.2306 6.81892 13.3992 6.80458C13.5669 6.79202 14.1416 6.78485 14.3138 6.77409C14.6563 6.75347 15.9053 6.73374 16.2577 6.71402C16.6119 6.70146 17.9076 6.68981 18.2698 6.67725C18.4491 6.67098 19.0884 6.6638 19.2696 6.65663C19.4516 6.65394 20.0999 6.65394 20.2837 6.65035C20.602 6.64856 21.6672 6.64497 22.1819 6.64139C22.6957 6.64497 23.7609 6.64856 24.0792 6.65035C24.263 6.65394 24.9113 6.65394 25.0933 6.65663C25.2745 6.6638 25.9138 6.67098 26.0949 6.67725C26.4553 6.68981 27.751 6.70146 28.1052 6.71402C28.4585 6.73374 29.7066 6.75347 30.05 6.77409C30.2222 6.78485 30.796 6.79202 30.9637 6.80458C31.1314 6.81892 31.6864 6.83237 31.8505 6.84582C32.1805 6.87093 33.3461 6.89783 33.6599 6.92204C33.972 6.95521 35.0623 6.98839 35.3573 7.01888C35.5044 7.03323 35.9921 7.04847 36.1338 7.06192C36.2764 7.07806 36.7373 7.09778 36.8736 7.11572C37.4151 7.18834 39.1959 7.24394 39.6299 7.31836C39.7061 7.32912 39.8459 7.34167 40.0038 7.35333C39.9401 6.97673 39.8782 6.60821 39.8199 6.24417C39.4442 6.18499 39.0452 6.12581 38.6193 6.06215C38.3745 6.02718 38.1235 5.98952 37.8652 5.95276C37.7137 5.93124 37.5604 5.90972 37.4044 5.8891C37.269 5.86937 37.1309 5.85054 36.991 5.83261C36.6951 5.79674 36.3911 5.75998 36.0809 5.72232C35.5877 5.66224 35.0793 5.60217 34.5548 5.54389C34.4633 5.53402 34.3728 5.52237 34.2795 5.5125C33.8357 5.46857 33.3802 5.42463 32.9157 5.3807C32.7346 5.36366 32.5526 5.34572 32.3697 5.32869C32.2656 5.31882 32.1607 5.30896 32.0558 5.2991C31.8326 5.27937 31.6075 5.25965 31.3798 5.23992C31.3116 5.23454 31.2444 5.22826 31.1771 5.22378C30.909 5.20405 30.64 5.18612 30.3692 5.16729C30.0366 5.14398 29.7003 5.12156 29.3614 5.09914C29.0099 5.07493 28.6539 5.04983 28.2953 5.02831C27.5923 4.99065 26.8777 4.96106 26.1559 4.93237C25.9532 4.9234 25.7506 4.91623 25.5461 4.90726C25.3883 4.90099 25.2287 4.89561 25.07 4.89023C24.9014 4.88574 24.7329 4.88126 24.5643 4.87857C24.3706 4.87409 24.177 4.8705 23.9833 4.86691C23.8506 4.86512 23.7179 4.86243 23.5843 4.85974C23.118 4.84988 22.65 4.8445 22.1819 4.83822C21.713 4.8445 21.2449 4.84988 20.7777 4.85974C20.645 4.86243 20.5114 4.86512 20.3805 4.86691C20.186 4.8705 19.9923 4.87409 19.7986 4.87857C19.63 4.88126 19.4615 4.88574 19.2929 4.89023C19.1342 4.89561 18.9755 4.90099 18.8168 4.90726C18.6123 4.91623 18.4106 4.9234 18.207 4.93237C17.4861 4.96106 16.7697 4.99065 16.0667 5.02831C15.7081 5.04983 15.353 5.07493 15.0015 5.09914C14.6635 5.12156 14.3263 5.14398 13.9946 5.16729C13.7238 5.18612 13.4539 5.20405 13.1867 5.22378C13.1194 5.22826 13.0513 5.23454 12.9831 5.23992C12.7563 5.25965 12.5303 5.27937 12.308 5.2991C12.2031 5.30896 12.0973 5.31882 11.9941 5.32869C11.8103 5.34572 11.6274 5.36366 11.4472 5.3807C10.9818 5.42463 10.5281 5.46857 10.0834 5.5125C9.99102 5.52237 9.89956 5.53402 9.809 5.54389C9.28356 5.60217 8.77426 5.66224 8.2829 5.72232C7.97086 5.75998 7.66869 5.79674 7.371 5.83261C7.23202 5.85054 7.09483 5.86937 6.95854 5.8891C6.80342 5.90972 6.6492 5.93124 6.49766 5.95276C6.23943 5.98952 5.98836 6.02718 5.74447 6.06215C5.31767 6.12581 4.91776 6.18499 4.54296 6.24417C4.48378 6.60821 4.4237 6.97673 4.35915 7.35333C4.51606 7.34167 4.65594 7.32912 4.73395 7.31836C5.16793 7.24394 6.94778 7.18834 7.49025 7.11572ZM6.26274 17.3367C6.30936 17.3313 7.04283 17.3268 7.09304 17.3232C7.19167 17.3115 8.86393 17.2999 8.96704 17.29C9.07285 17.282 10.8644 17.273 10.9746 17.2658C11.0293 17.2604 11.8614 17.256 11.917 17.2506C11.9735 17.247 12.8361 17.2434 12.8944 17.2407C13.0083 17.2335 14.9226 17.2273 15.0401 17.221C15.1584 17.2165 17.1508 17.212 17.2718 17.2075C17.3319 17.2057 18.3075 17.2039 18.3675 17.2013C18.4276 17.2013 19.4202 17.2004 19.4812 17.1995C19.604 17.1986 21.6995 17.1968 21.8223 17.1959C21.8519 17.1968 21.9882 17.1968 22.1819 17.1968C22.3738 17.1968 22.5119 17.1968 22.5415 17.1959C22.6634 17.1968 24.7598 17.1986 24.8817 17.1995C24.9427 17.2004 25.9353 17.2013 25.9954 17.2013C26.0554 17.2039 27.031 17.2057 27.0911 17.2075C27.2112 17.212 29.2054 17.2165 29.3219 17.221C29.4403 17.2273 31.3547 17.2335 31.4694 17.2407C31.5259 17.2434 32.3894 17.247 32.4459 17.2506C32.5015 17.256 33.3336 17.2604 33.3883 17.2658C33.4986 17.273 35.2892 17.282 35.395 17.29C35.499 17.2999 37.1721 17.3115 37.2699 17.3232C37.3192 17.3268 38.0526 17.3313 38.1002 17.3367C38.1477 17.3411 38.8399 17.3483 38.8847 17.3537C39.0497 17.3761 41.3192 17.3931 41.8338 17.4147C41.728 16.9063 41.6267 16.4203 41.5299 15.9513H41.5281C41.2456 15.9164 40.9524 15.8805 40.6502 15.8464C40.4682 15.8258 40.2826 15.8052 40.0934 15.7837C39.9329 15.7657 39.7688 15.7478 39.6021 15.729C39.2488 15.6922 38.8847 15.6545 38.5108 15.616C37.9486 15.5568 37.3631 15.503 36.7579 15.4483C36.6548 15.4375 36.5507 15.4277 36.4458 15.4187C35.9365 15.3748 35.4147 15.3317 34.8794 15.2878C34.6741 15.2708 34.4669 15.2546 34.258 15.2376C34.1388 15.2277 34.0186 15.217 33.8976 15.208C33.642 15.1892 33.3856 15.173 33.1255 15.1542C33.0466 15.1488 32.9695 15.1434 32.8915 15.1372C32.5876 15.1183 32.28 15.0986 31.9698 15.078C31.5869 15.0538 31.2013 15.0323 30.8122 15.008C30.4123 14.9838 30.007 14.9596 29.5981 14.939C28.7929 14.8987 27.9707 14.8691 27.1422 14.8368C26.9082 14.8278 26.6741 14.8171 26.4392 14.8081C26.2581 14.8018 26.077 14.7973 25.8949 14.7911C25.7031 14.7848 25.5085 14.7794 25.3157 14.7749C25.0942 14.7704 24.8728 14.766 24.6504 14.7624C24.4997 14.7588 24.3473 14.7561 24.1958 14.7543C23.5269 14.7399 22.8535 14.7346 22.1819 14.7256C21.5094 14.7346 20.8369 14.7399 20.1671 14.7543C20.0156 14.7561 19.8632 14.7588 19.7116 14.7624C19.4893 14.766 19.2678 14.7704 19.0481 14.7749C18.8535 14.7794 18.6607 14.7848 18.468 14.7911C18.2859 14.7973 18.1057 14.8018 17.9237 14.8081C17.6888 14.8171 17.4539 14.8278 17.2207 14.8368C16.3922 14.8691 15.5709 14.8987 14.7648 14.939C14.3559 14.9596 13.9506 14.9838 13.5498 15.008C13.1616 15.0323 12.7751 15.0538 12.3931 15.078C12.0829 15.0986 11.7763 15.1183 11.4714 15.1372C11.3925 15.1434 11.3154 15.1488 11.2374 15.1542C10.9782 15.173 10.72 15.1892 10.4653 15.208C10.3443 15.217 10.2241 15.2277 10.104 15.2376C9.89508 15.2546 9.68885 15.2708 9.48262 15.2878C8.94911 15.3317 8.42546 15.3748 7.91706 15.4187C7.81215 15.4277 7.70814 15.4375 7.60503 15.4483C7.00068 15.503 6.41517 15.5568 5.85387 15.616C5.47906 15.6545 5.11323 15.6922 4.76085 15.729C4.59407 15.7478 4.42998 15.7657 4.26948 15.7837C4.07939 15.8052 3.89378 15.8258 3.71176 15.8464C3.40959 15.8805 3.11728 15.9164 2.83573 15.9513H2.83394C2.73621 16.4203 2.63578 16.9063 2.52908 17.4147C3.04376 17.3931 5.31318 17.3761 5.47727 17.3537C5.523 17.3483 6.21522 17.3411 6.26274 17.3367ZM3.75391 12.0984C3.74315 12.1011 3.72611 12.1029 3.70728 12.1047C3.79605 11.6528 3.87944 11.2197 3.95745 10.8045C4.12243 10.7821 4.28831 10.7597 4.46047 10.7364C4.72319 10.7014 4.99577 10.6647 5.27642 10.6288C5.4432 10.6082 5.61267 10.5876 5.78572 10.566C5.93456 10.5463 6.0843 10.5275 6.23674 10.5104C6.56222 10.4728 6.89667 10.4369 7.23919 10.3984C7.76553 10.3383 8.31338 10.2827 8.87738 10.2244C8.97511 10.2145 9.07285 10.2047 9.17148 10.1939C9.6476 10.15 10.1372 10.1069 10.6366 10.0639C10.8294 10.046 11.024 10.0298 11.2203 10.0128C11.3324 10.0029 11.4436 9.99217 11.5575 9.98321C11.7969 9.96258 12.0381 9.94555 12.282 9.92582C12.3546 9.92044 12.4272 9.91596 12.4999 9.91058C12.7859 9.88996 13.0737 9.87202 13.3651 9.8523C13.7229 9.82809 14.0824 9.80567 14.4474 9.78236C14.824 9.75905 15.2024 9.73394 15.5879 9.71242C16.342 9.67386 17.1095 9.64427 17.8842 9.61379C18.103 9.60482 18.3218 9.59585 18.5415 9.58779C18.7101 9.58151 18.8804 9.57523 19.0517 9.56985C19.2328 9.56537 19.413 9.55999 19.5942 9.55551C19.8013 9.55102 20.0084 9.54744 20.2173 9.54385C20.359 9.54116 20.5007 9.53757 20.6423 9.53668C21.2117 9.52412 21.782 9.51785 22.3514 9.51067C22.9225 9.51785 23.4928 9.52412 24.0613 9.53668C24.2039 9.53757 24.3464 9.54116 24.4872 9.54385C24.6952 9.54744 24.9032 9.55102 25.1104 9.55551C25.2924 9.55999 25.4735 9.56537 25.6537 9.56985C25.8241 9.57523 25.9945 9.58151 26.1639 9.58779C26.3836 9.59585 26.6015 9.60482 26.8203 9.61379C27.595 9.64427 28.3634 9.67386 29.1175 9.71242C29.5013 9.73394 29.8824 9.75905 30.258 9.78236C30.6221 9.80567 30.9825 9.82809 31.3403 9.8523C31.6308 9.87202 31.9186 9.88996 32.2047 9.91058C32.2782 9.91596 32.3499 9.92044 32.4244 9.92582C32.6665 9.94555 32.9077 9.96258 33.1471 9.98321C33.26 9.99217 33.373 10.0029 33.4842 10.0128C33.6806 10.0298 33.8751 10.046 34.0688 10.0639C34.5683 10.1069 35.0569 10.15 35.534 10.1939C35.6317 10.2047 35.7303 10.2145 35.8281 10.2244C36.3911 10.2827 36.9399 10.3383 37.4653 10.3984C37.8088 10.4369 38.1441 10.4728 38.4678 10.5104C38.6202 10.5275 38.7709 10.5463 38.9188 10.566C39.0928 10.5876 39.2622 10.6082 39.4281 10.6288C39.7088 10.6647 39.9813 10.7014 40.2441 10.7364C40.4153 10.7597 40.583 10.7821 40.7471 10.8045C40.826 11.2197 40.9094 11.6528 40.9981 12.1047C40.9784 12.1029 40.9632 12.1011 40.9515 12.0984C40.6619 12.0491 38.4122 12.0132 38.0508 11.963C37.9603 11.9523 37.382 11.9397 37.2878 11.928C37.1937 11.92 36.5821 11.9101 36.4844 11.8994C36.2889 11.8787 34.9072 11.8572 34.6992 11.8357C34.4893 11.8196 33.0099 11.8016 32.7902 11.7846C32.6808 11.7756 31.9877 11.7666 31.8756 11.7568C31.7635 11.7487 31.0444 11.7433 30.9314 11.7362C30.701 11.7236 29.1202 11.7102 28.8844 11.6958C28.6486 11.6877 27.0041 11.6806 26.7638 11.6716C26.6436 11.6671 25.8358 11.6635 25.7147 11.6591C25.5937 11.6564 24.7741 11.6564 24.6504 11.6546C24.4083 11.6519 22.6822 11.651 22.4374 11.6474C22.4177 11.6474 22.3881 11.6474 22.3514 11.6483C22.3173 11.6474 22.2868 11.6474 22.268 11.6474C22.0223 11.651 20.2971 11.6519 20.0541 11.6546C19.9313 11.6564 19.1109 11.6564 18.9898 11.6591C18.8688 11.6635 18.0627 11.6671 17.9416 11.6716C17.7004 11.6806 16.056 11.6877 15.8193 11.6958C15.5843 11.7102 14.0044 11.7236 13.7749 11.7362C13.6601 11.7433 12.9419 11.7487 12.8289 11.7568C12.7177 11.7666 12.0246 11.7756 11.9143 11.7846C11.6938 11.8016 10.2152 11.8196 10.0063 11.8357C9.79824 11.8572 8.4165 11.8787 8.22013 11.8994C8.12239 11.9101 7.51267 11.92 7.41673 11.928C7.32258 11.9397 6.74514 11.9523 6.65368 11.963C6.29322 12.0132 4.04173 12.0491 3.75391 12.0984Z" fill="white"/>
<path fill-rule="evenodd" clip-rule="evenodd" d="M59.1844 25.7746H21.6642V50.7881H59.1844V25.7746ZM40.4178 30.6453L39.627 31.2236L39.9264 30.2902L39.123 29.7127H40.1156L40.4178 28.7668L40.7209 29.7127H41.7117L40.9083 30.2902L41.2095 31.2236L40.4178 30.6453ZM36.3215 31.7467L35.5289 32.3241L35.8293 31.3898L35.0259 30.8115L36.0176 30.8142L36.3206 29.8655L36.6228 30.8115H37.6136L36.8111 31.3898L37.1115 32.3241L36.3215 31.7467ZM33.3226 32.8701L33.0187 33.817L32.0288 33.8161L32.8322 34.3944L32.53 35.3287L33.3226 34.7513L34.1144 35.3287L33.8131 34.3944L34.6156 33.8161H33.6257L33.3226 32.8701ZM33.0147 39.421L32.2238 38.8427L31.4321 39.421L31.7342 38.4858L30.9291 37.9084L31.9207 37.9111L32.2238 36.9615L32.5278 37.9084H33.5177L32.7134 38.4858L33.0147 39.421ZM33.6267 42.013L33.3236 41.0661L33.0197 42.013H32.0298L32.8332 42.5896L32.531 43.5239L33.3236 42.9455L34.1154 43.5239L33.8141 42.5896L34.6166 42.013H33.6267ZM36.3263 44.0715L36.6294 45.0174H37.6202L36.8159 45.5949L37.1181 46.5292L36.3263 45.9509L35.5355 46.5292L35.8359 45.5949L35.0334 45.0174L36.0233 45.0183L36.3263 44.0715ZM40.7206 46.1042L40.4184 45.1582L40.1144 46.1051L39.1236 46.1042L39.9279 46.6834L39.6267 47.6159L40.4184 47.0394L41.2093 47.6159L40.908 46.6834L41.7132 46.1042H40.7206ZM44.5104 44.0715L44.8135 45.0174H45.8052L45 45.5949L45.3021 46.5292L44.5104 45.9509L43.7178 46.5292L44.019 45.5949L43.2174 45.0174L44.2064 45.0183L44.5104 44.0715ZM47.8179 42.013L47.5131 41.0661L47.2091 42.013H46.2201L47.0235 42.5896L46.7222 43.5239L47.5131 42.9455L48.3057 43.5239L48.0035 42.5896L48.8078 42.013H47.8179ZM48.9055 37.8977H49.8963L49.092 38.4742L49.3933 39.4103L48.6016 38.8302L47.8107 39.4103L48.1111 38.4742L47.3077 37.8977H48.2985L48.6016 36.9508L48.9055 37.8977ZM46.7226 35.3165L47.5134 34.7381L48.3052 35.3165L48.0039 34.3822L48.8082 33.8074H47.8183L47.5134 32.8597L47.2103 33.8074H46.2204L47.0238 34.3822L46.7226 35.3165ZM44.2193 30.8143L44.5215 29.8656L44.8246 30.8107H45.8154L45.012 31.3908L45.3141 32.3252L44.5224 31.7459L43.7306 32.3252L44.0301 31.3908L43.2276 30.8107L44.2193 30.8143Z" fill="white"/>
</svg>
