<svg width="135" height="75" viewBox="0 0 135 75" fill="none" xmlns="http://www.w3.org/2000/svg">
<path fill-rule="evenodd" clip-rule="evenodd" d="M104.586 15.1254V59.2542H30.0996V15.1254H104.586ZM76.1189 32.0274C77.0777 30.7273 77.9626 27.6681 76.4876 25.4501C75.5289 23.997 73.9802 23.2322 72.4315 22.8498C68.1541 21.8556 63.7292 23.2322 59.968 25.3737C56.7231 27.1327 53.4781 29.5801 51.3394 32.7922C50.602 33.8629 50.012 35.0866 49.6433 36.6162C49.2745 38.0693 49.127 39.6754 49.3482 41.205C50.4544 49.3119 58.8618 52.2946 65.4991 51.9886C69.9978 51.8357 74.6439 50.5355 78.6264 48.1647C82.1663 46.0997 85.6324 43.117 87.8449 39.3695C87.9187 39.2165 88.7299 37.7634 89.0249 37.9928C89.3199 38.2223 88.5087 39.5989 88.3612 39.7519C86.0749 43.6523 82.9776 47.0175 79.4376 49.6178C75.6765 52.3711 71.2516 54.1301 66.7529 54.8184C62.8442 55.3538 58.7881 55.2008 55.1006 53.6712C52.0032 52.3711 49.3482 50.0767 48.0208 46.7115C46.8408 43.6523 47.1357 40.2108 48.242 37.1516C51.2657 29.1212 58.1243 22.8498 65.7204 20.326C69.1865 19.1788 74.054 18.4905 77.1514 21.0908C80.9863 24.15 79.3639 29.5036 76.1189 32.0274ZM76.1189 32.0274H77.3725L76.4138 32.7922L76.7825 34.0159L75.7501 33.2511L74.7913 34.0159L75.1601 32.7922L74.1275 32.0274H75.3813L75.7501 30.8037L76.1189 32.0274ZM67.4902 27.4386L68.5227 26.6738H67.269L66.9002 25.4501L66.5315 26.6738H65.2777L66.2365 27.4386L65.8678 28.6623L66.9002 27.8975L67.8589 28.6623L67.4902 27.4386ZM73.6114 28.1269L72.6526 28.8152L73.0213 30.0389L71.9889 29.3506L71.0302 30.0389L71.3989 28.8152L70.3664 28.1269H71.6201L71.9889 26.9032L72.4314 28.1269H73.6114ZM78.7738 37.381L77.7412 38.1458L78.1837 39.3695L77.1513 38.6047L76.1188 39.3695L76.5613 38.1458L75.5288 37.381H76.7087L77.1513 36.1573L77.52 37.381H78.7738ZM76.4138 43.4994L77.3725 42.7346H76.1188L75.7501 41.5109L75.3813 42.7346H74.1275L75.1601 43.4994L74.7913 44.723L75.7501 43.9583L76.7825 44.723L76.4138 43.4994ZM73.6114 46.635L72.6526 47.3234L73.0213 48.6235L71.9889 47.8587L71.0302 48.6235L71.3989 47.3234L70.3664 46.635H71.6201L71.9889 45.4114L72.4314 46.635H73.6114ZM67.4902 48.853L68.5227 48.0882H67.269L66.9002 46.8645L66.5315 48.0882H65.2777L66.2365 48.853L65.8678 50.0766L66.9002 49.3118L67.8589 50.0766L67.4902 48.853ZM63.3603 46.635L62.4015 47.3234L62.7703 48.6235L61.8116 47.8587L60.7791 48.6235L61.1479 47.3234L60.1891 46.635H61.3691L61.8116 45.4114L62.1066 46.635H63.3603ZM58.6404 43.4994L59.6729 42.7346H58.4191L58.0504 41.5109L57.6817 42.7346H56.428L57.4604 43.4994L57.0179 44.723L58.0504 43.9583L59.0829 44.723L58.6404 43.4994ZM58.2717 37.381L57.3129 38.1458L57.6817 39.3695L56.6492 38.6047L55.6905 39.3695L56.0592 38.1458L55.1005 37.381H56.2804L56.6492 36.1573L57.0179 37.381H58.2717ZM58.6404 32.7922L59.6729 32.0274H58.4191L58.0504 30.8037L57.6817 32.0274H56.428L57.4604 32.7922L57.0179 34.0159L58.0504 33.2511L59.0829 34.0159L58.6404 32.7922ZM63.3603 28.1269L62.4015 28.8152L62.7703 30.0389L61.8116 29.3506L60.7791 30.0389L61.1479 28.8152L60.1891 28.1269H61.3691L61.8116 26.9032L62.1066 28.1269H63.3603Z" fill="white"/>
<path d="M75.1616 32.7922C73.7604 34.5513 71.4004 36.1573 68.598 37.1516C66.7543 37.8399 64.9844 38.1458 63.2881 38.1458L64.5419 35.5455C68.5243 35.622 73.6129 34.0924 75.1616 32.7922Z" fill="white"/>
<path d="M32.3136 67.1317C31.5761 67.1317 30.9861 66.9023 30.6174 66.4434C30.2486 65.9845 30.0273 65.3727 30.0273 64.5314C30.0273 63.6901 30.2486 63.0783 30.6912 62.6194C31.0599 62.1605 31.6499 61.9311 32.4611 61.9311C32.9036 61.9311 33.4198 62.0075 34.0098 62.1605V62.8488C33.346 62.6194 32.8298 62.4664 32.4611 62.4664C31.9448 62.4664 31.5023 62.6959 31.2073 63.0018C30.9124 63.3842 30.7648 63.8431 30.7648 64.5314C30.7648 65.1432 30.9124 65.6786 31.2073 65.9845C31.5023 66.3669 31.9448 66.5198 32.4611 66.5198C32.9036 66.5198 33.4198 66.3669 33.9361 66.1374V66.7493C33.4198 66.9787 32.8298 67.1317 32.3136 67.1317Z" fill="white"/>
<path d="M36.6646 67.1317C36.0009 67.1317 35.4109 66.9023 35.0422 66.4434C34.6735 65.9845 34.4521 65.2962 34.4521 64.5314C34.4521 63.7666 34.6735 63.0783 35.0422 62.6194C35.4109 62.1605 36.0009 61.9311 36.6646 61.9311C37.3283 61.9311 37.9184 62.1605 38.2871 62.6194C38.6559 63.0783 38.9508 63.7666 38.9508 64.5314C38.9508 65.3727 38.7295 65.9845 38.2871 66.4434C37.9184 66.9023 37.4021 67.1317 36.6646 67.1317ZM36.6646 66.6728C37.1809 66.6728 37.5496 66.4434 37.7708 66.1374C37.992 65.755 38.1396 65.2962 38.1396 64.6078C38.1396 63.9195 37.992 63.4607 37.7708 63.0783C37.4759 62.6959 37.1071 62.5429 36.6646 62.5429C36.1484 62.5429 35.8534 62.7723 35.5584 63.0783C35.3372 63.4607 35.1896 63.9195 35.1896 64.6078C35.1896 65.2962 35.3372 65.755 35.5584 66.1374C35.8534 66.4434 36.2221 66.6728 36.6646 66.6728Z" fill="white"/>
<path d="M40.2783 66.9787V62.084H40.942L43.3758 65.908V62.084H43.9658V67.0552H43.302L40.8683 63.2312V67.0552L40.2783 66.9787Z" fill="white"/>
<path d="M46.2518 67.1317C45.8831 67.1317 45.5143 67.0552 44.998 66.9022V66.2139C45.5143 66.4434 45.9568 66.5963 46.3256 66.5963C46.5468 66.5963 46.8418 66.5199 46.9893 66.3669C47.1368 66.2139 47.2105 65.9845 47.2105 65.8315C47.2105 65.6021 47.1368 65.4491 47.0631 65.2962C46.9893 65.1432 46.7681 64.9903 46.473 64.8373L46.1043 64.6079C45.7355 64.3784 45.4406 64.149 45.2194 63.9195C45.0718 63.6901 44.998 63.4607 44.998 63.1547C44.998 62.7723 45.1456 62.4664 45.3668 62.237C45.5881 62.0075 45.9568 61.8546 46.3993 61.8546C46.7681 61.8546 47.2105 61.9311 47.5792 62.084V62.7723C47.0631 62.5429 46.6943 62.4664 46.473 62.4664C46.2518 62.4664 46.0306 62.5429 45.8831 62.6959C45.7355 62.8488 45.6619 63.0018 45.6619 63.2312C45.6619 63.3842 45.7355 63.5371 45.8093 63.6901C45.8831 63.7666 46.1043 63.9195 46.473 64.149L46.8418 64.3784C47.2105 64.6079 47.5056 64.8373 47.7268 65.0667C47.8743 65.2962 47.948 65.5256 47.948 65.8315C47.948 66.2139 47.8005 66.5963 47.5056 66.8258C47.2105 66.9787 46.7681 67.1317 46.2518 67.1317Z" fill="white"/>
<path d="M49.2754 66.9787V62.084H52.004V62.6194H50.0129V64.2254H51.7091V64.7608H50.0129V66.5198H52.1516V67.0552C52.1516 66.9787 49.2754 66.9787 49.2754 66.9787Z" fill="white"/>
<path d="M53.1846 66.9787V62.084H53.8483V67.0552L53.1846 66.9787Z" fill="white"/>
<path d="M55.5439 66.9787V62.084H56.2077V66.5198H58.3464V67.0552L55.5439 66.9787Z" fill="white"/>
<path d="M61.7393 66.9787V62.084H63.3617C63.8779 62.084 64.2467 62.1605 64.5417 62.237C64.8366 62.3135 65.0579 62.5429 65.3529 62.7723C65.7217 63.1547 65.8691 63.7666 65.8691 64.3784C65.8691 65.2197 65.6479 65.8315 65.2054 66.2904C64.7629 66.7493 64.1729 66.9787 63.4354 66.9787H61.7393ZM62.403 66.5198H63.2879C63.9517 66.5198 64.3941 66.3669 64.6154 65.9845C64.9104 65.6021 65.0579 65.1432 65.0579 64.5314C65.0579 63.996 64.9104 63.5371 64.6892 63.1547C64.5417 62.9253 64.3205 62.7723 64.0992 62.7723C63.878 62.6959 63.5092 62.6959 63.0667 62.6959H62.5504V66.5963L62.403 66.5198Z" fill="white"/>
<path d="M66.8281 66.9787V62.084H69.5569V62.6194H67.5656V64.2254H69.2618V64.7608H67.5656V66.5198H69.7043V67.0552C69.6305 66.9787 66.8281 66.9787 66.8281 66.9787Z" fill="white"/>
<path d="M73.0234 66.9787V62.084H73.6873V66.5198H75.8259V67.0552L73.0234 66.9787Z" fill="white"/>
<path d="M77.0049 63.6136V63.3842C77.0787 63.3077 77.2262 63.3077 77.2262 63.1547C77.2999 63.0783 77.2999 62.8488 77.2999 62.6194V62.5429H77.0049V61.7016H77.8161V62.3899C77.8161 62.7723 77.7424 63.0783 77.5949 63.2312C77.4474 63.4607 77.2999 63.6136 77.0049 63.6136Z" fill="white"/>
<path d="M79.291 66.9787V62.084H82.0197V62.6194H79.9548V64.2254H81.651V64.7608H79.9548V66.5198H82.0935V67.0552C82.1673 66.9787 79.291 66.9787 79.291 66.9787Z" fill="white"/>
<path d="M83.1997 62.084H83.8635V65.2197C83.8635 65.755 83.9372 66.061 84.0847 66.2904C84.306 66.5199 84.5272 66.6728 84.8959 66.6728C85.2647 66.6728 85.5596 66.5963 85.7072 66.3669C85.8546 66.1374 85.9284 65.8315 85.9284 65.2962V62.1605H86.5184V65.2962C86.5184 65.9845 86.3709 66.4434 86.1497 66.7493C85.8546 67.0552 85.4859 67.2082 84.8959 67.2082C84.306 67.2082 83.8635 67.0552 83.5685 66.7493C83.2734 66.4434 83.126 65.908 83.126 65.2962L83.1997 62.084Z" fill="white"/>
<path d="M87.7725 66.9787V62.084H89.2474C89.6899 62.084 90.0587 62.1605 90.3537 62.3899C90.575 62.6194 90.7224 62.9253 90.7224 63.3077C90.7224 63.996 90.3537 64.4549 89.7637 64.7608L91.3862 67.0552H90.575L89.1738 64.9902H88.5099V67.0552L87.7725 66.9787ZM88.3625 64.3784H88.5837C89.395 64.3784 89.8375 63.996 89.8375 63.3842C89.8375 62.8488 89.4687 62.6194 88.7313 62.6194H88.2887L88.3625 64.3784Z" fill="white"/>
<path d="M94.1148 67.1317C93.4511 67.1317 92.8611 66.9023 92.4924 66.4434C92.1236 65.9845 91.9023 65.2962 91.9023 64.5314C91.9023 63.7666 92.1236 63.0783 92.4924 62.6194C92.8611 62.1605 93.4511 61.9311 94.1148 61.9311C94.7786 61.9311 95.3686 62.1605 95.7373 62.6194C96.106 63.0783 96.401 63.7666 96.401 64.5314C96.401 65.3727 96.1798 65.9845 95.7373 66.4434C95.3686 66.9023 94.8523 67.1317 94.1148 67.1317ZM94.1886 66.6728C94.7048 66.6728 95.0736 66.4434 95.2948 66.1374C95.5161 65.8315 95.6635 65.2962 95.6635 64.6078C95.6635 63.9195 95.5161 63.4607 95.2948 63.0783C94.9998 62.6959 94.6311 62.5429 94.1886 62.5429C93.6724 62.5429 93.3773 62.7723 93.0823 63.0783C92.8611 63.4607 92.7136 63.9195 92.7136 64.6078C92.7136 65.2962 92.8611 65.755 93.0823 66.1374C93.3036 66.4434 93.6724 66.6728 94.1886 66.6728Z" fill="white"/>
<path d="M97.7285 66.9787V62.084H99.0554C99.6455 62.084 100.015 62.1605 100.309 62.3899C100.531 62.6194 100.678 62.9253 100.678 63.3842C100.678 63.9195 100.456 64.3019 100.161 64.6078C99.7931 64.9138 99.3504 65.0667 98.7603 65.0667H98.4652V67.0552L97.7285 66.9787ZM98.4652 64.5314H98.7603C99.1296 64.5314 99.498 64.4549 99.7198 64.2254C99.9406 63.996 100.088 63.7666 100.088 63.3842C100.088 63.0783 100.015 62.8488 99.8673 62.7723C99.6455 62.6959 99.4247 62.5429 98.9821 62.5429H98.5395C98.4652 62.6194 98.4652 64.5314 98.4652 64.5314Z" fill="white"/>
<path d="M101.712 66.9787V62.084H104.44V62.6194H102.449V64.2254H104.145V64.7608H102.449V66.5198H104.587V67.0552C104.587 66.9787 101.712 66.9787 101.712 66.9787Z" fill="white"/>
<path d="M32.3136 12.678C31.5761 12.678 30.9861 12.4486 30.6174 11.9897C30.2486 11.5308 30.0273 10.919 30.0273 10.0777C30.0273 9.23646 30.2486 8.62462 30.6912 8.16574C31.0599 7.70686 31.6499 7.47742 32.4611 7.47742C32.9036 7.47742 33.4198 7.5539 34.0098 7.70686V8.39518C33.346 8.16574 32.8298 8.01278 32.4611 8.01278C31.9448 8.01278 31.5023 8.24222 31.2073 8.54814C30.9124 8.93054 30.7648 9.38942 30.7648 10.0777C30.7648 10.6895 30.9124 11.2249 31.2073 11.5308C31.5023 11.9132 31.9448 12.0662 32.4611 12.0662C32.9036 12.0662 33.4198 11.9132 33.9361 11.6838V12.2956C33.4198 12.5251 32.8298 12.678 32.3136 12.678Z" fill="white"/>
<path d="M36.9595 12.678C36.2958 12.678 35.7058 12.4486 35.337 11.9897C34.9683 11.5308 34.7471 10.8425 34.7471 10.0777C34.7471 9.31294 34.9683 8.62462 35.337 8.16574C35.7058 7.70686 36.2958 7.47742 36.9595 7.47742C37.6232 7.47742 38.2132 7.70686 38.5819 8.16574C38.9507 8.62462 39.2458 9.31294 39.2458 10.0777C39.2458 10.919 39.0245 11.5308 38.5819 11.9897C38.1395 12.4486 37.6232 12.678 36.9595 12.678ZM36.9595 12.1427C37.4757 12.1427 37.8445 11.9132 38.0658 11.6073C38.287 11.2249 38.4345 10.766 38.4345 10.0777C38.4345 9.38942 38.287 8.93054 38.0658 8.54814C37.7708 8.16574 37.402 8.01278 36.9595 8.01278C36.4433 8.01278 36.1483 8.24222 35.8533 8.54814C35.632 8.93054 35.4846 9.38942 35.4846 10.0777C35.4846 10.766 35.632 11.2249 35.8533 11.6073C36.0745 11.9897 36.4433 12.1427 36.9595 12.1427Z" fill="white"/>
<path d="M40.7954 7.63037H41.4592V10.766C41.4592 11.3014 41.5329 11.6073 41.6804 11.8367C41.9017 12.0662 42.1229 12.2191 42.4916 12.2191C42.8604 12.2191 43.1553 12.1427 43.3029 11.9132C43.4503 11.6838 43.5241 11.3779 43.5241 10.8425V7.70685H44.1141V10.8425C44.1141 11.5308 43.9666 11.9897 43.7454 12.2956C43.5241 12.678 43.0816 12.831 42.4916 12.831C41.9017 12.831 41.4592 12.678 41.1642 12.3721C40.8691 12.0662 40.7217 11.5308 40.7217 10.919L40.7954 7.63037Z" fill="white"/>
<path d="M45.5879 12.5251V7.55389H46.2516L48.6853 11.3779V7.55389H49.2753V12.5251H48.6115L46.1778 8.70109V12.5251H45.5879Z" fill="white"/>
<path d="M52.963 12.678C52.2255 12.678 51.6355 12.4486 51.2667 11.9897C50.898 11.5308 50.6768 10.919 50.6768 10.0777C50.6768 9.23646 50.898 8.62462 51.3405 8.16574C51.7092 7.70686 52.2993 7.47742 53.1104 7.47742C53.5529 7.47742 54.0692 7.5539 54.6592 7.70686V8.39518C53.9217 8.16574 53.4055 8.01278 53.0367 8.01278C52.5205 8.01278 52.078 8.24222 51.783 8.54814C51.488 8.93054 51.3405 9.38942 51.3405 10.0777C51.3405 10.6895 51.488 11.2249 51.783 11.5308C52.078 11.9132 52.5205 12.0662 53.0367 12.0662C53.4792 12.0662 53.9954 11.9132 54.5117 11.6838V12.2956C54.0692 12.5251 53.4792 12.678 52.963 12.678Z" fill="white"/>
<path d="M55.6191 12.5251V7.55389H56.2829V12.5251H55.6191Z" fill="white"/>
<path d="M58.2002 12.5251V7.55389H58.8639V11.9897H61.0026V12.5251C61.0764 12.5251 58.2002 12.5251 58.2002 12.5251Z" fill="white"/>
<path d="M66.9019 12.678C66.2381 12.678 65.6481 12.4486 65.2794 11.9897C64.9107 11.5308 64.6895 10.8425 64.6895 10.0777C64.6895 9.31294 64.9107 8.62462 65.2794 8.16574C65.6481 7.70686 66.2381 7.47742 66.9019 7.47742C67.5656 7.47742 68.1556 7.70686 68.5243 8.16574C68.8931 8.62462 69.188 9.31294 69.188 10.0777C69.188 10.919 68.9668 11.5308 68.5243 11.9897C68.1556 12.4486 67.6394 12.678 66.9019 12.678ZM66.9756 12.1427C67.4919 12.1427 67.8606 11.9132 68.0818 11.6073C68.3031 11.2249 68.4506 10.766 68.4506 10.0777C68.4506 9.38942 68.3031 8.93054 68.0818 8.54814C67.7868 8.16574 67.4181 8.01278 66.9756 8.01278C66.4594 8.01278 66.1644 8.24222 65.8694 8.54814C65.6481 8.93054 65.5006 9.38942 65.5006 10.0777C65.5006 10.766 65.6481 11.2249 65.8694 11.6073C66.0907 11.9897 66.4594 12.1427 66.9756 12.1427Z" fill="white"/>
<path d="M70.8096 12.5251V7.55389H73.5383V8.08925H71.5471V9.69533H73.2433V10.2307H71.5471V12.4486L70.8096 12.5251Z" fill="white"/>
<path d="M77.5947 12.5251V7.55389H80.3234V8.08925H78.3321V9.69533H80.0284V10.2307H78.3321V11.9897H80.4709V12.5251H77.5947Z" fill="white"/>
<path d="M81.7993 7.63037H82.4631V10.766C82.4631 11.3014 82.5367 11.6073 82.6843 11.8367C82.9055 12.0662 83.1268 12.2191 83.4955 12.2191C83.8643 12.2191 84.1593 12.1427 84.3067 11.9132C84.4542 11.6838 84.528 11.3779 84.528 10.8425V7.70685H85.1179V10.8425C85.1179 11.5308 84.9705 11.9897 84.7492 12.2956C84.4542 12.6015 84.0855 12.7545 83.4955 12.7545C82.9055 12.7545 82.4631 12.6015 82.168 12.2956C81.873 11.9897 81.7256 11.4543 81.7256 10.8425L81.7993 7.63037Z" fill="white"/>
<path d="M86.5928 12.5251V7.55389H88.0677C88.5103 7.55389 88.879 7.63037 89.174 7.85981C89.3952 8.08925 89.5427 8.39517 89.5427 8.77757C89.5427 9.46589 89.174 9.92477 88.584 10.2307L90.2064 12.5251H89.3952L87.994 10.4601H87.3303V12.5251H86.5928ZM87.2565 9.92477H87.4778C88.289 9.92477 88.7315 9.54237 88.7315 8.93053C88.7315 8.39517 88.3627 8.16573 87.6252 8.16573H87.1827L87.2565 9.92477Z" fill="white"/>
<path d="M93.23 12.678C92.5662 12.678 91.9763 12.4486 91.6075 11.9897C91.2388 11.5308 91.0176 10.8425 91.0176 10.0777C91.0176 9.31294 91.2388 8.62462 91.6075 8.16574C91.9763 7.70686 92.5662 7.47742 93.23 7.47742C93.8937 7.47742 94.4837 7.70686 94.8524 8.16574C95.2212 8.62462 95.5162 9.31294 95.5162 10.0777C95.5162 10.919 95.295 11.5308 94.8524 11.9897C94.4837 12.4486 93.9675 12.678 93.23 12.678ZM93.3037 12.1427C93.82 12.1427 94.1887 11.9132 94.4099 11.6073C94.6312 11.2249 94.7787 10.766 94.7787 10.0777C94.7787 9.38942 94.6312 8.93054 94.4099 8.54814C94.115 8.16574 93.7462 8.01278 93.3037 8.01278C92.7875 8.01278 92.4925 8.24222 92.1975 8.54814C91.9763 8.93054 91.8287 9.38942 91.8287 10.0777C91.8287 10.766 91.9763 11.2249 92.1975 11.6073C92.4188 11.9897 92.7875 12.1427 93.3037 12.1427Z" fill="white"/>
<path d="M97.1387 12.5251V7.55389H98.4665C99.0566 7.55389 99.425 7.63037 99.7201 7.85981C99.9419 8.08925 100.089 8.39517 100.089 8.85405C100.089 9.38941 99.8676 9.77181 99.5725 10.0777C99.2042 10.3836 98.7616 10.5366 98.1714 10.5366H97.8763V12.5251H97.1387ZM97.8763 10.0777H98.1714C98.5398 10.0777 98.9091 10.0012 99.1299 9.77181C99.3517 9.54237 99.4992 9.31293 99.4992 8.93053C99.4992 8.62461 99.425 8.39517 99.2775 8.31869C99.0566 8.24221 98.8349 8.08925 98.3922 8.08925H97.9506C97.8764 8.08925 97.8763 10.0777 97.8763 10.0777Z" fill="white"/>
<path d="M101.343 12.5251V7.55389H104.071V8.08925H102.08V9.69533H103.777V10.2307H102.08V11.9897H104.218V12.5251H101.343Z" fill="white"/>
</svg>
