<svg width="51" height="19" viewBox="0 0 51 19" fill="none" xmlns="http://www.w3.org/2000/svg">
    <g clip-path="url(#clip0_14269_12332)">
        <path d="M12.8715 0.388828C14.1312 0.388828 15.1525 1.47745 15.1525 2.82077C15.1525 4.16435 14.1312 5.25299 12.8715 5.25299H2.44023C1.18041 5.25299 0.15918 4.16435 0.15918 2.82077C0.15918 1.47745 1.18041 0.388828 2.44023 0.388828H12.8715Z" fill="white"/>
        <path d="M11.8231 6.76174C13.0829 6.76174 14.1041 7.8505 14.1041 9.19395C14.1041 10.5371 13.0829 11.6259 11.8231 11.6259H5.88585C5.37953 11.6279 4.96497 12.0549 4.9456 12.5894V15.7594C4.9456 17.1026 3.92437 18.1913 2.66494 18.1913C1.40511 18.1913 0.383888 17.1026 0.383888 15.7594V10.3649C0.383888 8.37509 1.89675 6.76174 3.76295 6.76174H11.8231Z" fill="white"/>
        <path d="M16.1883 2.30834C16.1883 0.965164 17.2095 -0.123775 18.4692 -0.123775C19.7292 -0.123775 20.7503 0.965164 20.7503 2.30834V15.7765C20.7503 17.1198 19.7292 18.2087 18.4692 18.2087C17.2095 18.2087 16.1883 17.1198 16.1883 15.7765V2.30834Z" fill="white"/>
        <path d="M44.2618 13.3847L45.1786 13.3822C45.3658 13.3822 45.5179 13.22 45.5179 13.0204C45.5187 12.9696 45.5108 12.9245 45.4938 12.8818L42.0854 6.77472L36.7607 16.6056C36.3495 17.3657 35.6109 17.7994 34.8444 17.8211C34.8218 17.8245 34.7991 17.8263 34.7753 17.8263H26.1098C24.2434 17.8263 22.7306 16.2131 22.7306 14.2233V2.30834C22.7306 0.965164 23.7518 -0.123775 25.0117 -0.123775C26.2712 -0.123775 27.2926 0.965164 27.2926 2.30834V11.9593C27.2942 12.4995 27.6945 12.9416 28.1962 12.9618H33.0436C33.1684 12.921 33.5496 12.7828 33.6657 12.5903L39.7544 1.35179C40.2164 0.505988 41.0758 -0.0635233 42.0595 -0.0635233C43.0438 -0.0635233 43.9034 0.506826 44.3633 1.35444L50.2963 11.9757C50.738 12.589 51.0006 13.3563 51.0006 14.1891C51.0006 16.1979 49.4733 17.8263 47.5896 17.8263H40.6738C39.5231 17.8263 38.591 16.8318 38.591 15.6052C38.591 14.3789 39.5231 13.3847 40.6738 13.3847H44.2618Z" fill="white"/>
    </g>
    <defs>
        <clipPath id="clip0_14269_12332">
            <rect width="50.8418" height="18.3596" fill="white" transform="translate(0 0.118412)"/>
        </clipPath>
    </defs>
</svg>
