<svg width="114" height="75" viewBox="0 0 114 75" fill="none" xmlns="http://www.w3.org/2000/svg">
<g clip-path="url(#clip0_14883_12611)">
<path d="M42.0872 26.9568C43.5827 26.9568 44.7952 28.2492 44.7952 29.844C44.7952 31.4391 43.5827 32.7315 42.0872 32.7315H29.7032C28.2075 32.7315 26.9951 31.4391 26.9951 29.844C26.9951 28.2492 28.2075 26.9568 29.7032 26.9568H42.0872Z" fill="white"/>
<path d="M40.8424 34.5227C42.3381 34.5227 43.5505 35.8153 43.5505 37.4102C43.5505 39.0049 42.3381 40.2975 40.8424 40.2975H33.7938C33.1927 40.2998 32.7005 40.8068 32.6775 41.4414V45.2047C32.6775 46.7993 31.4651 48.0919 29.9699 48.0919C28.4743 48.0919 27.2619 46.7993 27.2619 45.2047V38.8004C27.2619 36.4381 29.058 34.5227 31.2735 34.5227H40.8424Z" fill="white"/>
<path d="M46.0248 29.2357C46.0248 27.6411 47.2372 26.3483 48.7327 26.3483C50.2285 26.3483 51.4408 27.6411 51.4408 29.2357V45.225C51.4408 46.8198 50.2285 48.1126 48.7327 48.1126C47.2372 48.1126 46.0248 46.8198 46.0248 45.225V29.2357Z" fill="white"/>
<path d="M79.3537 42.3855L80.442 42.3825C80.6644 42.3825 80.8448 42.19 80.8448 41.953C80.8458 41.8927 80.8364 41.8391 80.8163 41.7884L76.7698 34.5381L70.4483 46.2093C69.9601 47.1118 69.0833 47.6266 68.1733 47.6524C68.1465 47.6564 68.1195 47.6585 68.0913 47.6585H57.8036C55.5879 47.6585 53.7918 45.7433 53.7918 43.381V29.2357C53.7918 27.6411 55.0043 26.3483 56.4999 26.3483C57.9953 26.3483 59.2078 27.6411 59.2078 29.2357V40.6932C59.2097 41.3345 59.685 41.8595 60.2806 41.8835H66.0354C66.1836 41.835 66.6361 41.6709 66.774 41.4423L74.0025 28.1001C74.5509 27.0959 75.5712 26.4198 76.7391 26.4198C77.9076 26.4198 78.9282 27.0969 79.4742 28.1032L86.5178 40.7127C87.0421 41.4408 87.3539 42.3517 87.3539 43.3405C87.3539 45.7253 85.5407 47.6585 83.3044 47.6585H75.0939C73.7279 47.6585 72.6213 46.4779 72.6213 45.0217C72.6213 43.5658 73.7279 42.3855 75.0939 42.3855H79.3537Z" fill="white"/>
</g>
<defs>
<clipPath id="clip0_14883_12611">
<rect width="60.3593" height="21.7964" fill="white" transform="translate(26.8057 26.6358)"/>
</clipPath>
</defs>
</svg>
