<svg width="97" height="64" viewBox="0 0 97 64" fill="none" xmlns="http://www.w3.org/2000/svg">
    <g clip-path="url(#clip0_14082_14823)">
        <path d="M36.0756 22.6246C37.3353 22.6246 38.3566 23.7132 38.3566 25.0566C38.3566 26.4001 37.3353 27.4888 36.0756 27.4888H25.6443C24.3845 27.4888 23.3633 26.4001 23.3633 25.0566C23.3633 23.7132 24.3845 22.6246 25.6443 22.6246H36.0756Z" fill="white"/>
        <path d="M35.0272 28.9975C36.287 28.9975 37.3082 30.0863 37.3082 31.4297C37.3082 32.7729 36.287 33.8617 35.0272 33.8617H29.09C28.5836 33.8637 28.1691 34.2907 28.1497 34.8252V37.9952C28.1497 39.3383 27.1285 40.4271 25.869 40.4271C24.6092 40.4271 23.588 39.3383 23.588 37.9952V32.6007C23.588 30.6109 25.1008 28.9975 26.9671 28.9975H35.0272Z" fill="white"/>
        <path d="M39.3924 24.5441C39.3924 23.201 40.4136 22.112 41.6733 22.112C42.9333 22.112 43.9544 23.201 43.9544 24.5441V38.0123C43.9544 39.3556 42.9333 40.4445 41.6733 40.4445C40.4136 40.4445 39.3924 39.3556 39.3924 38.0123V24.5441Z" fill="white"/>
        <path d="M67.4659 35.6205L68.3827 35.618C68.57 35.618 68.722 35.4558 68.722 35.2562C68.7228 35.2054 68.7149 35.1602 68.6979 35.1176L65.2895 29.0105L59.9648 38.8414C59.5536 39.6015 58.815 40.0352 58.0485 40.0569C58.0259 40.0603 58.0032 40.0621 57.9794 40.0621H49.3139C47.4475 40.0621 45.9347 38.4489 45.9347 36.4591V24.5441C45.9347 23.201 46.9559 22.112 48.2158 22.112C49.4753 22.112 50.4967 23.201 50.4967 24.5441V34.1951C50.4983 34.7353 50.8987 35.1774 51.4003 35.1976H56.2477C56.3725 35.1568 56.7537 35.0185 56.8698 34.8261L62.9585 23.5876C63.4205 22.7418 64.2799 22.1723 65.2636 22.1723C66.2479 22.1723 67.1075 22.7426 67.5674 23.5902L73.5004 34.2115C73.9421 34.8248 74.2047 35.5921 74.2047 36.4249C74.2047 38.4337 72.6774 40.0621 70.7937 40.0621H63.8779C62.7272 40.0621 61.7951 39.0676 61.7951 37.841C61.7951 36.6147 62.7272 35.6205 63.8779 35.6205H67.4659Z" fill="white"/>
    </g>
    <defs>
        <clipPath id="clip0_14082_14823">
            <rect width="50.8418" height="18.3596" fill="white" transform="translate(23.2041 22.3542)"/>
        </clipPath>
    </defs>
</svg>
