<svg width="94" height="23" viewBox="0 0 94 23" fill="none" xmlns="http://www.w3.org/2000/svg">
    <path d="M18.7557 22.5964H20.0451C20.3403 22.5964 20.6044 22.3239 20.6199 22.0194V7.21161C20.6199 5.75326 19.5014 4.56735 18.1188 4.56735H16.4566C16.1614 4.56735 15.8973 4.29491 15.8973 3.99042V2.64425C15.8973 1.18591 14.7788 0 13.3962 0H2.69254C1.30993 0 0.191406 1.16988 0.191406 2.64425V17.5322C0.191406 18.9745 1.30993 20.1605 2.69254 20.1765H15.0895C15.1982 20.1765 15.307 20.2085 15.4002 20.2726L18.4295 22.5162C18.5227 22.5643 18.647 22.5964 18.7557 22.5964ZM15.7419 18.045H2.72361C2.41291 18.045 2.16435 17.7886 2.16435 17.4681V2.67631C2.16435 2.35579 2.41291 2.09938 2.72361 2.09938H13.3651C13.6603 2.09938 13.9243 2.37182 13.9243 2.67631V3.99042C13.9243 4.31094 13.6758 4.56735 13.3651 4.56735H5.44224C5.14707 4.56735 4.88298 4.83979 4.88298 5.14428V15.0162C4.88298 15.3367 5.13154 15.5931 5.44224 15.5931H15.338C15.6332 15.5931 15.8973 15.3207 15.8973 15.0162V7.24366C15.8973 6.92314 16.1459 6.66673 16.4566 6.66673H18.0722C18.3674 6.66673 18.6315 6.93917 18.6315 7.24366V19.3431C18.6315 19.6476 18.3208 19.8079 18.1033 19.6476L16.0837 18.1572C15.9594 18.0771 15.8507 18.045 15.7419 18.045ZM13.6292 13.4777H7.13555C6.99574 13.4777 6.87146 13.3655 6.87146 13.1892V6.92314C6.87146 6.77891 6.9802 6.63468 7.13555 6.63468H13.6292C13.769 6.63468 13.8933 6.74686 13.8933 6.92314V13.1892C13.8933 13.3495 13.7845 13.4777 13.6292 13.4777ZM70.798 3.15708C71.6214 3.15708 72.2894 2.45195 72.2894 1.58656C72.2894 0.721162 71.6214 0.0160243 70.798 0.0160243C69.9746 0.0160243 69.3066 0.721162 69.3066 1.58656C69.3066 2.45195 69.9746 3.15708 70.798 3.15708ZM53.7095 5.46479V4.58338H51.3016V15.513H53.7095V8.04495L56.5213 6.81096V4.26286H56.4903L53.7095 5.46479ZM44.3574 4.56735C42.7884 4.56735 41.5145 5.11223 40.5358 6.20198C40.0853 6.71481 39.7435 7.29174 39.495 7.98085C39.2619 8.65393 39.1377 9.37509 39.1377 10.1123C39.1377 11.6508 39.5571 12.9168 40.396 13.8944C41.3281 14.9681 42.602 15.4969 44.2176 15.4969C45.8022 15.4969 47.0605 14.9521 48.0237 13.8623C48.9247 12.8206 49.3752 11.5225 49.3752 9.95202C49.3752 8.38149 48.9247 7.09943 48.0548 6.10583C47.1537 5.08018 45.9109 4.56735 44.3574 4.56735ZM46.2527 12.3399C45.8022 12.9328 45.1497 13.2373 44.3574 13.2373C43.503 13.2373 42.7884 12.9328 42.2602 12.3238C42.0116 12.0514 41.8097 11.6988 41.6854 11.2982C41.5456 10.8975 41.4834 10.4969 41.4834 10.0642C41.4834 9.18278 41.7009 8.46162 42.167 7.83662C42.6641 7.17956 43.3476 6.84301 44.2176 6.84301C45.072 6.84301 45.7556 7.1475 46.2372 7.77251C46.6877 8.34944 46.9362 9.11868 46.9362 10.0642C46.9207 10.9937 46.7032 11.7629 46.2527 12.3399ZM69.5863 4.58338H71.9787V15.529H69.5863V4.58338ZM32.9547 4.56735C31.5876 4.56735 30.4536 4.98402 29.5836 5.83339C28.7603 6.63468 28.3564 7.6443 28.3564 8.86227C28.3564 9.93599 28.7137 10.8334 29.4438 11.5546C28.8224 12.0834 28.5117 12.7085 28.5117 13.4456C28.5117 13.8944 28.5739 14.295 28.6671 14.6316C28.7603 14.9841 28.9622 15.2726 29.2574 15.529C28.1699 16.154 27.6418 17.1797 27.6884 18.5739C27.7194 19.7919 28.2166 20.7534 29.1797 21.4746C30.1584 22.2118 31.4478 22.5643 33.0169 22.5643C34.6014 22.5643 35.7821 22.2438 36.5744 21.6028C37.3822 20.9617 37.7861 20.0322 37.7861 18.8303C37.7861 17.6284 37.4599 16.6989 36.8229 16.0418C36.4812 15.6893 36.0307 15.4168 35.4869 15.1604C34.9277 14.92 34.182 14.7277 33.2188 14.5674C32.2401 14.4072 31.5566 14.2309 31.1371 14.0065C30.9352 13.9264 30.8109 13.8142 30.7643 13.7181C30.7022 13.6219 30.6866 13.4777 30.6866 13.2854C30.6866 13.0931 30.8109 12.8367 31.0439 12.5001C31.5876 12.6924 32.178 12.7886 32.8149 12.7886C34.1199 12.7886 35.1918 12.3719 36.0307 11.5546C36.4035 11.17 36.6987 10.7213 36.9006 10.2084C37.1026 9.69561 37.2113 9.1347 37.2113 8.49367C37.2113 7.86866 37.0715 7.25969 36.7919 6.71481C36.7919 6.71481 36.7919 6.69878 36.7763 6.69878H37.7861V4.55133H32.9547V4.56735ZM31.2769 16.3784L31.7741 16.4585C33.1722 16.6829 34.1665 16.9713 34.7413 17.3559C35.2539 17.6925 35.5025 18.1412 35.5025 18.7021C35.5025 19.872 34.7102 20.4329 33.1256 20.4329C32.1935 20.4329 31.4478 20.2246 30.8575 19.8399C30.5934 19.6637 30.3915 19.4393 30.2516 19.1989C30.0963 18.9585 30.0341 18.6701 30.0341 18.3335C30.0341 17.997 30.1274 17.6444 30.3293 17.2758C30.5468 16.9232 30.8575 16.6348 31.2769 16.3784ZM34.3063 10.1283C33.9179 10.4969 33.4674 10.6892 32.9392 10.6892C32.2401 10.6892 31.6964 10.4809 31.2614 10.0802C31.0595 9.90394 30.9352 9.67958 30.8109 9.47124C30.7177 9.23086 30.6555 9.0065 30.6555 8.75008C30.6555 8.5097 30.7022 8.25328 30.7954 8.01289C31.1061 7.17955 31.7741 6.77891 32.846 6.77891C33.4829 6.77891 33.9956 6.95519 34.3529 7.30776C34.7102 7.66033 34.9121 8.12508 34.9121 8.70201C34.9121 9.21483 34.7102 9.71163 34.3063 10.1283ZM82.5735 6.9552C82.76 7.452 82.8532 8.02892 82.8532 8.66995V15.4969H80.4918V14.9841C79.7772 15.3207 79.1248 15.4969 78.5344 15.4969C77.7887 15.4969 77.1673 15.4168 76.6392 15.2726C76.111 15.1284 75.6605 14.904 75.3031 14.6316C74.573 14.0546 74.2002 13.2213 74.2002 12.1315C74.2002 11.17 74.6507 10.3527 75.5517 9.71163C76.5304 9.0065 77.882 8.65393 79.5753 8.65393L79.9636 8.66995C80.0103 8.66995 80.0413 8.66995 80.0879 8.66995C80.1345 8.66995 80.1811 8.66995 80.2277 8.66995C80.2743 8.66995 80.321 8.68598 80.352 8.68598C80.3986 8.68598 80.4452 8.68598 80.4763 8.70201C80.4142 7.62828 79.9792 6.97122 79.1403 6.81096C78.8762 6.74686 78.5655 6.73083 78.2703 6.73083C77.9441 6.73083 77.6489 6.76288 77.3538 6.81096C77.0431 6.87506 76.7634 6.95519 76.4838 7.05135C75.8779 7.25968 75.4119 7.50007 75.1478 7.77251L75.1167 7.75649L74.8216 5.5289C75.9401 4.90389 77.1984 4.5994 78.5344 4.5994C80.6627 4.56735 81.9987 5.35262 82.5735 6.9552ZM80.4918 12.9008V11.4905V10.545C80.3054 10.5129 80.1345 10.4969 79.9481 10.4969H79.5597C78.146 10.4969 77.245 10.8334 76.8566 11.4905C76.7479 11.6828 76.6858 11.8911 76.6858 12.0995C76.6858 12.3238 76.7324 12.5161 76.7945 12.6764C76.8722 12.8367 76.9965 12.9809 77.1673 13.0931C77.4936 13.3014 78.0062 13.3976 78.6587 13.3976C79.3112 13.3976 79.9326 13.2213 80.4918 12.9008ZM91.7236 9.40714C92.1276 9.61548 92.4538 9.85586 92.7023 10.1443C93.1529 10.6732 93.4014 11.3783 93.4014 12.2758C93.4014 13.2213 93.0441 14.0065 92.314 14.5995C91.5683 15.2245 90.5119 15.529 89.1448 15.529C87.5137 15.529 86.2243 15.2405 85.3232 14.6636V11.9713C85.3232 11.9552 85.3854 12.0193 85.4786 12.1315C85.5718 12.2437 85.7737 12.3719 86.0378 12.5482C86.3019 12.7245 86.6282 12.8687 86.9699 12.9969C87.7312 13.2694 88.5234 13.4136 89.3623 13.4136C90.4653 13.4136 91.0246 13.0129 91.0246 12.2437C91.0246 12.0033 90.9158 11.811 90.6983 11.6828C90.3255 11.4745 89.7662 11.3142 89.0361 11.2181C88.3059 11.1059 87.7001 10.9616 87.234 10.7533C86.768 10.545 86.3796 10.3046 86.0844 10.0161C85.5407 9.47124 85.2611 8.78214 85.2611 7.91674C85.2611 6.85904 85.6495 6.0257 86.4107 5.43275C87.1719 4.83979 88.2283 4.5353 89.5798 4.5353C90.9158 4.5353 92.0499 4.93595 92.9975 5.73724C92.9509 5.91352 92.9198 6.0898 92.8577 6.25006C92.7023 6.69878 92.5936 7.0193 92.5315 7.21161L92.314 7.80456C92.2984 7.86866 92.2829 7.88469 92.2829 7.88469C92.2674 7.88469 92.2208 7.80456 92.1276 7.66033C91.7236 7.16353 91.0867 6.84301 90.2478 6.68276C89.9837 6.61865 89.7196 6.60263 89.44 6.60263C88.2749 6.60263 87.6845 6.97122 87.6845 7.70841C87.6845 7.94879 87.7933 8.15713 88.0418 8.28534C88.4924 8.54175 89.1293 8.73406 89.9216 8.86227C90.7139 9.03855 91.3042 9.19881 91.7236 9.40714ZM62.5178 4.56735C61.1508 4.56735 60.0167 4.98402 59.1467 5.83339C58.3234 6.63468 57.9195 7.6443 57.9195 8.86227C57.9195 9.93599 58.2768 10.8334 59.0069 11.5546C58.3855 12.0834 58.0748 12.7085 58.0748 13.4456C58.0748 13.8944 58.137 14.295 58.2302 14.6316C58.3234 14.9841 58.5253 15.2726 58.8205 15.529C57.7331 16.154 57.2049 17.1797 57.2515 18.5739C57.2825 19.7919 57.7797 20.7534 58.7428 21.4746C59.7215 22.2118 61.0109 22.5643 62.58 22.5643C64.1646 22.5643 65.3452 22.2438 66.1375 21.6028C66.9453 20.9617 67.3492 20.0322 67.3492 18.8303C67.3492 17.6284 67.023 16.6989 66.3861 16.0418C66.0443 15.6893 65.5938 15.4168 65.05 15.1604C64.4908 14.92 63.7451 14.7277 62.7819 14.5674C61.8032 14.4072 61.1197 14.2309 60.7002 14.0065C60.4983 13.9264 60.374 13.8142 60.3274 13.7181C60.2653 13.6219 60.2497 13.4777 60.2497 13.2854C60.2497 13.0931 60.374 12.8367 60.607 12.5001C61.1508 12.6924 61.7411 12.7886 62.378 12.7886C63.683 12.7886 64.7549 12.3719 65.5938 11.5546C65.9666 11.17 66.2618 10.7213 66.4637 10.2084C66.6657 9.69561 66.7744 9.1347 66.7744 8.49367C66.7744 7.86866 66.6346 7.25969 66.355 6.71481C66.355 6.71481 66.355 6.69878 66.3394 6.69878H67.3492V4.55133H62.5178V4.56735ZM60.8401 16.3784L61.3372 16.4585C62.7353 16.6829 63.7296 16.9713 64.3044 17.3559C64.817 17.6925 65.0656 18.1412 65.0656 18.7021C65.0656 19.872 64.2733 20.4329 62.6887 20.4329C61.7566 20.4329 61.0109 20.2246 60.4206 19.8399C60.1565 19.6637 59.9546 19.4393 59.8147 19.1989C59.6594 18.9585 59.5973 18.6701 59.5973 18.3335C59.5973 17.997 59.6905 17.6444 59.8924 17.2758C60.1099 16.9232 60.4206 16.6348 60.8401 16.3784ZM63.8694 10.1283C63.481 10.4969 63.0305 10.6892 62.5023 10.6892C61.8032 10.6892 61.2595 10.4809 60.8245 10.0802C60.6381 9.90394 60.4983 9.67958 60.374 9.47124C60.2808 9.23086 60.2187 9.0065 60.2187 8.75008C60.2187 8.5097 60.2653 8.25328 60.3585 8.01289C60.6692 7.17955 61.3372 6.77891 62.4091 6.77891C63.046 6.77891 63.5587 6.95519 63.916 7.30776C64.2733 7.66033 64.4753 8.12508 64.4753 8.70201C64.4753 9.21483 64.2733 9.71163 63.8694 10.1283Z" fill="white"/>
</svg>
