<svg width="128" height="75" viewBox="0 0 128 75" fill="none" xmlns="http://www.w3.org/2000/svg">
<path d="M30.5464 50.9471H32.0771C32.4276 50.9471 32.7411 50.6237 32.7595 50.2622V32.6824C32.7595 30.951 31.4316 29.5431 29.7902 29.5431H27.8168C27.4664 29.5431 27.1528 29.2197 27.1528 28.8582V27.26C27.1528 25.5287 25.8249 24.1208 24.1835 24.1208H11.4762C9.83474 24.1208 8.50684 25.5097 8.50684 27.26V44.935C8.50684 46.6473 9.83474 48.0552 11.4762 48.0742H26.1938C26.3229 48.0742 26.452 48.1123 26.5626 48.1884L30.1591 50.852C30.2697 50.9091 30.4173 50.9471 30.5464 50.9471ZM26.9684 45.5438H11.5131C11.1442 45.5438 10.8491 45.2394 10.8491 44.8589V27.2981C10.8491 26.9176 11.1442 26.6132 11.5131 26.6132H24.1466C24.497 26.6132 24.8105 26.9366 24.8105 27.2981V28.8582C24.8105 29.2387 24.5155 29.5431 24.1466 29.5431H14.7406C14.3902 29.5431 14.0767 29.8666 14.0767 30.2281V41.9479C14.0767 42.3285 14.3717 42.6329 14.7406 42.6329H26.4889C26.8393 42.6329 27.1528 42.3094 27.1528 41.9479V32.7204C27.1528 32.3399 27.4479 32.0355 27.8168 32.0355H29.7349C30.0853 32.0355 30.3988 32.359 30.3988 32.7204V47.0849C30.3988 47.4464 30.03 47.6367 29.7717 47.4464L27.3741 45.677C27.2266 45.5819 27.0975 45.5438 26.9684 45.5438ZM24.4601 40.1215H16.7509C16.5849 40.1215 16.4374 39.9883 16.4374 39.779V32.3399C16.4374 32.1687 16.5665 31.9975 16.7509 31.9975H24.4601C24.6261 31.9975 24.7737 32.1306 24.7737 32.3399V39.779C24.7737 39.9693 24.6446 40.1215 24.4601 40.1215ZM92.3308 27.8689C93.3083 27.8689 94.1013 27.0317 94.1013 26.0043C94.1013 24.977 93.3083 24.1398 92.3308 24.1398C91.3533 24.1398 90.5603 24.977 90.5603 26.0043C90.5603 27.0317 91.3533 27.8689 92.3308 27.8689ZM72.0434 30.6086V29.5622H69.1847V42.5377H72.0434V33.6717L75.3816 32.2067V29.1816H75.3447L72.0434 30.6086ZM60.9406 29.5431C59.0779 29.5431 57.5655 30.19 56.4036 31.4838C55.8688 32.0926 55.463 32.7775 55.1679 33.5956C54.8913 34.3947 54.7437 35.2509 54.7437 36.1261C54.7437 37.9525 55.2417 39.4556 56.2376 40.6161C57.3442 41.8909 58.8565 42.5187 60.7746 42.5187C62.6558 42.5187 64.1497 41.8718 65.2932 40.5781C66.3629 39.3414 66.8977 37.8003 66.8977 35.9358C66.8977 34.0713 66.3629 32.5492 65.3301 31.3696C64.2604 30.152 62.7849 29.5431 60.9406 29.5431ZM63.1907 38.7706C62.6558 39.4746 61.8812 39.8361 60.9406 39.8361C59.9262 39.8361 59.0779 39.4746 58.4508 38.7516C58.1557 38.4282 57.9159 38.0096 57.7684 37.534C57.6024 37.0583 57.5286 36.5827 57.5286 36.069C57.5286 35.0226 57.7868 34.1664 58.3401 33.4244C58.9303 32.6443 59.7418 32.2448 60.7746 32.2448C61.789 32.2448 62.6005 32.6063 63.1722 33.3483C63.7071 34.0332 64.0022 34.9465 64.0022 36.069C63.9837 37.1725 63.7255 38.0857 63.1907 38.7706ZM90.8922 29.5622H93.7325V42.5568H90.8922V29.5622ZM47.4034 29.5431C45.7804 29.5431 44.434 30.0378 43.4012 31.0462C42.4237 31.9975 41.9442 33.1961 41.9442 34.642C41.9442 35.9168 42.3684 36.9822 43.2352 37.8384C42.4975 38.4662 42.1286 39.2082 42.1286 40.0834C42.1286 40.6161 42.2024 41.0918 42.3131 41.4913C42.4237 41.9099 42.6635 42.2524 43.0139 42.5568C41.7229 43.2988 41.0958 44.5164 41.1511 46.1717C41.188 47.6176 41.7782 48.7592 42.9217 49.6153C44.0836 50.4905 45.6144 50.9091 47.4771 50.9091C49.3583 50.9091 50.76 50.5286 51.7006 49.7675C52.6597 49.0065 53.1392 47.903 53.1392 46.4761C53.1392 45.0491 52.7519 43.9457 51.9957 43.1656C51.59 42.747 51.0551 42.4236 50.4096 42.1192C49.7456 41.8338 48.8604 41.6055 47.7169 41.4152C46.555 41.225 45.7435 41.0157 45.2455 40.7493C45.0058 40.6542 44.8582 40.521 44.8029 40.4069C44.7291 40.2927 44.7107 40.1215 44.7107 39.8932C44.7107 39.6649 44.8582 39.3604 45.1349 38.9609C45.7804 39.1892 46.4812 39.3034 47.2374 39.3034C48.7866 39.3034 50.0592 38.8087 51.0551 37.8384C51.4977 37.3818 51.8482 36.849 52.0879 36.2402C52.3277 35.6314 52.4568 34.9655 52.4568 34.2044C52.4568 33.4624 52.2908 32.7395 51.9588 32.0926C51.9588 32.0926 51.9588 32.0736 51.9404 32.0736H53.1392V29.5241H47.4034V29.5431ZM45.4115 43.5651L46.0017 43.6603C47.6616 43.9266 48.8419 44.2691 49.5243 44.7257C50.1329 45.1253 50.428 45.658 50.428 46.3239C50.428 47.7128 49.4874 48.3787 47.6062 48.3787C46.4997 48.3787 45.6144 48.1313 44.9135 47.6747C44.6 47.4654 44.3603 47.1991 44.1943 46.9137C44.0098 46.6283 43.9361 46.2858 43.9361 45.8863C43.9361 45.4867 44.0467 45.0682 44.2865 44.6306C44.5447 44.212 44.9135 43.8695 45.4115 43.5651ZM49.0079 36.1451C48.5468 36.5827 48.012 36.811 47.3849 36.811C46.555 36.811 45.9095 36.5637 45.3931 36.088C45.1533 35.8787 45.0058 35.6124 44.8582 35.365C44.7476 35.0796 44.6738 34.8133 44.6738 34.5089C44.6738 34.2235 44.7291 33.9191 44.8398 33.6337C45.2086 32.6443 46.0017 32.1687 47.2743 32.1687C48.0304 32.1687 48.6391 32.378 49.0632 32.7965C49.4874 33.2151 49.7272 33.7669 49.7272 34.4518C49.7272 35.0606 49.4874 35.6504 49.0079 36.1451ZM106.311 32.378C106.532 32.9678 106.643 33.6527 106.643 34.4137V42.5187H103.839V41.9099C102.991 42.3094 102.216 42.5187 101.515 42.5187C100.63 42.5187 99.8925 42.4236 99.2654 42.2524C98.6383 42.0811 98.1035 41.8148 97.6793 41.4913C96.8125 40.8064 96.3698 39.8171 96.3698 38.5233C96.3698 37.3818 96.9047 36.4114 97.9744 35.6504C99.1363 34.8133 100.741 34.3947 102.751 34.3947L103.212 34.4137C103.268 34.4137 103.304 34.4137 103.36 34.4137C103.415 34.4137 103.47 34.4137 103.526 34.4137C103.581 34.4137 103.636 34.4328 103.673 34.4328C103.729 34.4328 103.784 34.4328 103.821 34.4518C103.747 33.1771 103.231 32.397 102.235 32.2067C101.921 32.1306 101.552 32.1116 101.202 32.1116C100.815 32.1116 100.464 32.1497 100.114 32.2067C99.7449 32.2828 99.413 32.378 99.081 32.4921C98.3617 32.7395 97.8084 33.0249 97.4949 33.3483L97.458 33.3293L97.1076 30.6847C98.4355 29.9427 99.9294 29.5812 101.515 29.5812C104.042 29.5431 105.628 30.4754 106.311 32.378ZM103.839 39.4365V37.7623V36.6398C103.618 36.6017 103.415 36.5827 103.194 36.5827H102.733C101.054 36.5827 99.9847 36.9822 99.5236 37.7623C99.3945 37.9906 99.3207 38.2379 99.3207 38.4853C99.3207 38.7516 99.3761 38.9799 99.4498 39.1702C99.5421 39.3604 99.6896 39.5317 99.8925 39.6649C100.28 39.9122 100.888 40.0263 101.663 40.0263C102.438 40.0263 103.175 39.8171 103.839 39.4365ZM117.174 35.2889C117.653 35.5363 118.04 35.8216 118.336 36.1641C118.87 36.792 119.166 37.6291 119.166 38.6945C119.166 39.8171 118.741 40.7493 117.875 41.4533C116.989 42.1953 115.735 42.5568 114.112 42.5568C112.176 42.5568 110.645 42.2143 109.575 41.5294V38.333C109.575 38.314 109.649 38.3901 109.76 38.5233C109.87 38.6565 110.11 38.8087 110.423 39.018C110.737 39.2273 111.124 39.3985 111.53 39.5507C112.434 39.8741 113.374 40.0454 114.37 40.0454C115.68 40.0454 116.344 39.5697 116.344 38.6565C116.344 38.3711 116.215 38.1428 115.956 37.9906C115.514 37.7433 114.85 37.553 113.983 37.4388C113.116 37.3057 112.397 37.1344 111.844 36.8871C111.29 36.6398 110.829 36.3544 110.479 36.0119C109.833 35.365 109.501 34.5469 109.501 33.5195C109.501 32.2638 109.962 31.2745 110.866 30.5705C111.77 29.8666 113.024 29.5051 114.629 29.5051C116.215 29.5051 117.561 29.9807 118.686 30.932C118.631 31.1413 118.594 31.3506 118.52 31.5408C118.336 32.0736 118.206 32.4541 118.133 32.6824L117.875 33.3863C117.856 33.4624 117.838 33.4815 117.838 33.4815C117.819 33.4815 117.764 33.3863 117.653 33.2151C117.174 32.6253 116.418 32.2448 115.422 32.0545C115.108 31.9784 114.795 31.9594 114.463 31.9594C113.079 31.9594 112.378 32.397 112.378 33.2722C112.378 33.5576 112.508 33.8049 112.803 33.9571C113.338 34.2615 114.094 34.4898 115.034 34.642C115.975 34.8513 116.676 35.0416 117.174 35.2889ZM82.5006 29.5431C80.8776 29.5431 79.5313 30.0378 78.4985 31.0462C77.521 31.9975 77.0415 33.1961 77.0415 34.642C77.0415 35.9168 77.4656 36.9822 78.3325 37.8384C77.5947 38.4662 77.2259 39.2082 77.2259 40.0834C77.2259 40.6161 77.2997 41.0918 77.4103 41.4913C77.521 41.9099 77.7607 42.2524 78.1112 42.5568C76.8201 43.2988 76.1931 44.5164 76.2484 46.1717C76.2853 47.6176 76.8755 48.7592 78.0189 49.6153C79.1809 50.4905 80.7116 50.9091 82.5744 50.9091C84.4556 50.9091 85.8573 50.5286 86.7979 49.7675C87.7569 49.0065 88.2364 47.903 88.2364 46.4761C88.2364 45.0491 87.8491 43.9457 87.093 43.1656C86.6872 42.747 86.1524 42.4236 85.5068 42.1192C84.8429 41.8338 83.9576 41.6055 82.8141 41.4152C81.6522 41.225 80.8407 41.0157 80.3428 40.7493C80.103 40.6542 79.9555 40.521 79.9001 40.4069C79.8264 40.2927 79.8079 40.1215 79.8079 39.8932C79.8079 39.6649 79.9555 39.3604 80.2321 38.9609C80.8776 39.1892 81.5785 39.3034 82.3346 39.3034C83.8838 39.3034 85.1564 38.8087 86.1524 37.8384C86.595 37.3818 86.9454 36.849 87.1852 36.2402C87.4249 35.6314 87.554 34.9655 87.554 34.2044C87.554 33.4624 87.388 32.7395 87.0561 32.0926C87.0561 32.0926 87.0561 32.0736 87.0376 32.0736H88.2364V29.5241H82.5006V29.5431ZM80.5088 43.5651L81.0989 43.6603C82.7588 43.9266 83.9392 44.2691 84.6216 44.7257C85.2302 45.1253 85.5253 45.658 85.5253 46.3239C85.5253 47.7128 84.5847 48.3787 82.7035 48.3787C81.5969 48.3787 80.7116 48.1313 80.0108 47.6747C79.6973 47.4654 79.4575 47.1991 79.2915 46.9137C79.1071 46.6283 79.0333 46.2858 79.0333 45.8863C79.0333 45.4867 79.144 45.0682 79.3837 44.6306C79.6419 44.212 80.0108 43.8695 80.5088 43.5651ZM84.1052 36.1451C83.6441 36.5827 83.1092 36.811 82.4822 36.811C81.6522 36.811 81.0067 36.5637 80.4903 36.088C80.269 35.8787 80.103 35.6124 79.9555 35.365C79.8448 35.0796 79.771 34.8133 79.771 34.5089C79.771 34.2235 79.8264 33.9191 79.937 33.6337C80.3059 32.6443 81.0989 32.1687 82.3715 32.1687C83.1277 32.1687 83.7363 32.378 84.1605 32.7965C84.5847 33.2151 84.8244 33.7669 84.8244 34.4518C84.8244 35.0606 84.5847 35.6504 84.1052 36.1451Z" fill="white"/>
</svg>
