<svg width="108" height="64" viewBox="0 0 108 64" fill="none" xmlns="http://www.w3.org/2000/svg">
    <path d="M26.4335 42.8322H27.7229C28.018 42.8322 28.2821 42.5597 28.2977 42.2552V27.4474C28.2977 25.9891 27.1791 24.8031 25.7965 24.8031H24.1343C23.8391 24.8031 23.575 24.5307 23.575 24.2262V22.8801C23.575 21.4217 22.4565 20.2358 21.0739 20.2358H10.3703C8.98766 20.2358 7.86914 21.4057 7.86914 22.8801V37.768C7.86914 39.2103 8.98766 40.3962 10.3703 40.4123H22.7672C22.876 40.4123 22.9847 40.4443 23.0779 40.5084L26.1072 42.752C26.2004 42.8001 26.3247 42.8322 26.4335 42.8322ZM23.4197 38.2808H10.4013C10.0906 38.2808 9.84209 38.0244 9.84209 37.7039V22.9121C9.84209 22.5916 10.0906 22.3352 10.4013 22.3352H21.0428C21.338 22.3352 21.6021 22.6076 21.6021 22.9121V24.2262C21.6021 24.5467 21.3535 24.8031 21.0428 24.8031H13.12C12.8248 24.8031 12.5607 25.0756 12.5607 25.3801V35.252C12.5607 35.5725 12.8093 35.8289 13.12 35.8289H23.0158C23.3109 35.8289 23.575 35.5565 23.575 35.252V27.4795C23.575 27.1589 23.8236 26.9025 24.1343 26.9025H25.7499C26.0451 26.9025 26.3092 27.175 26.3092 27.4795V39.5789C26.3092 39.8834 25.9985 40.0437 25.781 39.8834L23.7614 38.393C23.6372 38.3129 23.5284 38.2808 23.4197 38.2808ZM21.3069 33.7135H14.8133C14.6735 33.7135 14.5492 33.6013 14.5492 33.425V27.1589C14.5492 27.0147 14.6579 26.8705 14.8133 26.8705H21.3069C21.4467 26.8705 21.571 26.9827 21.571 27.1589V33.425C21.571 33.5853 21.4623 33.7135 21.3069 33.7135ZM78.4757 23.3929C79.2991 23.3929 79.9671 22.6877 79.9671 21.8224C79.9671 20.957 79.2991 20.2518 78.4757 20.2518C77.6524 20.2518 76.9844 20.957 76.9844 21.8224C76.9844 22.6877 77.6524 23.3929 78.4757 23.3929ZM61.3872 25.7006V24.8192H58.9793V35.7488H61.3872V28.2807L64.1991 27.0468V24.4987H64.168L61.3872 25.7006ZM52.0352 24.8031C50.4661 24.8031 49.1922 25.348 48.2135 26.4378C47.763 26.9506 47.4213 27.5275 47.1727 28.2166C46.9397 28.8897 46.8154 29.6109 46.8154 30.3481C46.8154 31.8865 47.2348 33.1526 48.0737 34.1302C49.0058 35.2039 50.2797 35.7327 51.8953 35.7327C53.4799 35.7327 54.7382 35.1879 55.7014 34.0981C56.6024 33.0564 57.053 31.7583 57.053 30.1878C57.053 28.6173 56.6024 27.3352 55.7325 26.3416C54.8315 25.316 53.5887 24.8031 52.0352 24.8031ZM53.9304 32.5757C53.4799 33.1686 52.8274 33.4731 52.0352 33.4731C51.1807 33.4731 50.4661 33.1686 49.9379 32.5596C49.6894 32.2872 49.4874 31.9346 49.3631 31.534C49.2233 31.1333 49.1612 30.7327 49.1612 30.3C49.1612 29.4186 49.3787 28.6974 49.8447 28.0724C50.3418 27.4154 51.0254 27.0788 51.8953 27.0788C52.7498 27.0788 53.4333 27.3833 53.9149 28.0083C54.3654 28.5852 54.614 29.3545 54.614 30.3C54.5984 31.2295 54.3809 31.9987 53.9304 32.5757ZM77.264 24.8192H79.6564V35.7648H77.264V24.8192ZM40.6325 24.8031C39.2654 24.8031 38.1313 25.2198 37.2614 26.0692C36.438 26.8705 36.0341 27.8801 36.0341 29.0981C36.0341 30.1718 36.3914 31.0692 37.1215 31.7904C36.5001 32.3192 36.1894 32.9443 36.1894 33.6814C36.1894 34.1302 36.2516 34.5308 36.3448 34.8673C36.438 35.2199 36.64 35.5084 36.9351 35.7648C35.8477 36.3898 35.3195 37.4155 35.3661 38.8097C35.3972 40.0277 35.8943 40.9892 36.8575 41.7104C37.8362 42.4475 39.1256 42.8001 40.6946 42.8001C42.2792 42.8001 43.4598 42.4796 44.2521 41.8386C45.0599 41.1975 45.4638 40.268 45.4638 39.0661C45.4638 37.8642 45.1376 36.9347 44.5007 36.2776C44.1589 35.925 43.7084 35.6526 43.1647 35.3962C42.6054 35.1558 41.8597 34.9635 40.8966 34.8032C39.9179 34.643 39.2343 34.4667 38.8149 34.2423C38.6129 34.1622 38.4886 34.05 38.442 33.9539C38.3799 33.8577 38.3643 33.7135 38.3643 33.5212C38.3643 33.3289 38.4886 33.0725 38.7217 32.7359C39.2654 32.9282 39.8557 33.0244 40.4926 33.0244C41.7976 33.0244 42.8695 32.6077 43.7084 31.7904C44.0812 31.4058 44.3764 30.9571 44.5784 30.4442C44.7803 29.9314 44.889 29.3705 44.889 28.7295C44.889 28.1045 44.7492 27.4955 44.4696 26.9506C44.4696 26.9506 44.4696 26.9346 44.4541 26.9346H45.4638V24.7871H40.6325V24.8031ZM38.9547 36.6142L39.4518 36.6943C40.8499 36.9186 41.8442 37.2071 42.419 37.5917C42.9316 37.9283 43.1802 38.377 43.1802 38.9379C43.1802 40.1078 42.3879 40.6687 40.8033 40.6687C39.8712 40.6687 39.1256 40.4604 38.5352 40.0757C38.2711 39.8994 38.0692 39.6751 37.9294 39.4347C37.774 39.1943 37.7119 38.9059 37.7119 38.5693C37.7119 38.2328 37.8051 37.8802 38.007 37.5116C38.2245 37.159 38.5352 36.8706 38.9547 36.6142ZM41.984 30.3641C41.5956 30.7327 41.1451 30.925 40.6169 30.925C39.9179 30.925 39.3741 30.7167 38.9391 30.316C38.7372 30.1397 38.6129 29.9154 38.4886 29.707C38.3954 29.4667 38.3333 29.2423 38.3333 28.9859C38.3333 28.7455 38.3799 28.4891 38.4731 28.2487C38.7838 27.4154 39.4518 27.0147 40.5237 27.0147C41.1607 27.0147 41.6733 27.191 42.0306 27.5436C42.3879 27.8961 42.5899 28.3609 42.5899 28.9378C42.5899 29.4506 42.3879 29.9474 41.984 30.3641ZM90.2513 27.191C90.4377 27.6878 90.5309 28.2647 90.5309 28.9058V35.7327H88.1696V35.2199C87.455 35.5565 86.8025 35.7327 86.2122 35.7327C85.4665 35.7327 84.8451 35.6526 84.3169 35.5084C83.7887 35.3641 83.3382 35.1398 82.9809 34.8673C82.2507 34.2904 81.8779 33.4571 81.8779 32.3673C81.8779 31.4058 82.3284 30.5885 83.2294 29.9474C84.2081 29.2423 85.5597 28.8897 87.253 28.8897L87.6414 28.9058C87.688 28.9058 87.7191 28.9058 87.7657 28.9058C87.8123 28.9058 87.8589 28.9058 87.9055 28.9058C87.9521 28.9058 87.9987 28.9218 88.0298 28.9218C88.0764 28.9218 88.123 28.9218 88.154 28.9378C88.0919 27.8641 87.6569 27.207 86.818 27.0468C86.5539 26.9827 86.2432 26.9666 85.9481 26.9666C85.6218 26.9666 85.3267 26.9987 85.0315 27.0468C84.7208 27.1109 84.4412 27.191 84.1615 27.2871C83.5557 27.4955 83.0896 27.7359 82.8255 28.0083L82.7945 27.9923L82.4993 25.7647C83.6178 25.1397 84.8762 24.8352 86.2122 24.8352C88.3405 24.8031 89.6765 25.5884 90.2513 27.191ZM88.1696 33.1366V31.7263V30.7808C87.9832 30.7487 87.8123 30.7327 87.6258 30.7327H87.2375C85.8238 30.7327 84.9228 31.0692 84.5344 31.7263C84.4256 31.9186 84.3635 32.1269 84.3635 32.3353C84.3635 32.5596 84.4101 32.7519 84.4722 32.9122C84.5499 33.0725 84.6742 33.2167 84.8451 33.3289C85.1713 33.5372 85.684 33.6334 86.3364 33.6334C86.9889 33.6334 87.6103 33.4571 88.1696 33.1366ZM99.4014 29.6429C99.8053 29.8513 100.132 30.0917 100.38 30.3801C100.831 30.909 101.079 31.6141 101.079 32.5116C101.079 33.4571 100.722 34.2423 99.9917 34.8353C99.246 35.4603 98.1897 35.7648 96.8226 35.7648C95.1914 35.7648 93.902 35.4763 93.001 34.8994V32.2071C93.001 32.191 93.0631 32.2551 93.1563 32.3673C93.2495 32.4795 93.4515 32.6077 93.7156 32.784C93.9797 32.9603 94.3059 33.1045 94.6477 33.2327C95.4089 33.5052 96.2012 33.6494 97.0401 33.6494C98.143 33.6494 98.7023 33.2487 98.7023 32.4795C98.7023 32.2391 98.5936 32.0468 98.3761 31.9186C98.0032 31.7103 97.444 31.55 96.7138 31.4539C95.9837 31.3417 95.3778 31.1974 94.9118 30.9891C94.4457 30.7808 94.0573 30.5404 93.7622 30.2519C93.2185 29.707 92.9388 29.0179 92.9388 28.1525C92.9388 27.0948 93.3272 26.2615 94.0884 25.6685C94.8496 25.0756 95.906 24.7711 97.2576 24.7711C98.5936 24.7711 99.7276 25.1717 100.675 25.973C100.629 26.1493 100.598 26.3256 100.535 26.4859C100.38 26.9346 100.271 27.2551 100.209 27.4474L99.9917 28.0404C99.9762 28.1045 99.9606 28.1205 99.9606 28.1205C99.9451 28.1205 99.8985 28.0404 99.8053 27.8961C99.4014 27.3993 98.7644 27.0788 97.9256 26.9186C97.6615 26.8545 97.3974 26.8384 97.1177 26.8384C95.9526 26.8384 95.3623 27.207 95.3623 27.9442C95.3623 28.1846 95.471 28.3929 95.7196 28.5211C96.1701 28.7775 96.807 28.9699 97.5993 29.0981C98.3916 29.2743 98.9819 29.4346 99.4014 29.6429ZM70.1956 24.8031C68.8285 24.8031 67.6944 25.2198 66.8245 26.0692C66.0011 26.8705 65.5972 27.8801 65.5972 29.0981C65.5972 30.1718 65.9545 31.0692 66.6847 31.7904C66.0633 32.3192 65.7526 32.9443 65.7526 33.6814C65.7526 34.1302 65.8147 34.5308 65.9079 34.8673C66.0011 35.2199 66.2031 35.5084 66.4982 35.7648C65.4108 36.3898 64.8826 37.4155 64.9292 38.8097C64.9603 40.0277 65.4574 40.9892 66.4206 41.7104C67.3993 42.4475 68.6887 42.8001 70.2577 42.8001C71.8423 42.8001 73.0229 42.4796 73.8152 41.8386C74.623 41.1975 75.027 40.268 75.027 39.0661C75.027 37.8642 74.7007 36.9347 74.0638 36.2776C73.722 35.925 73.2715 35.6526 72.7278 35.3962C72.1685 35.1558 71.4228 34.9635 70.4597 34.8032C69.481 34.643 68.7974 34.4667 68.378 34.2423C68.176 34.1622 68.0517 34.05 68.0051 33.9539C67.943 33.8577 67.9275 33.7135 67.9275 33.5212C67.9275 33.3289 68.0517 33.0725 68.2848 32.7359C68.8285 32.9282 69.4188 33.0244 70.0558 33.0244C71.3607 33.0244 72.4326 32.6077 73.2715 31.7904C73.6443 31.4058 73.9395 30.9571 74.1415 30.4442C74.3434 29.9314 74.4522 29.3705 74.4522 28.7295C74.4522 28.1045 74.3123 27.4955 74.0327 26.9506C74.0327 26.9506 74.0327 26.9346 74.0172 26.9346H75.027V24.7871H70.1956V24.8031ZM68.5178 36.6142L69.0149 36.6943C70.4131 36.9186 71.4073 37.2071 71.9821 37.5917C72.4948 37.9283 72.7433 38.377 72.7433 38.9379C72.7433 40.1078 71.951 40.6687 70.3665 40.6687C69.4344 40.6687 68.6887 40.4604 68.0983 40.0757C67.8342 39.8994 67.6323 39.6751 67.4925 39.4347C67.3371 39.1943 67.275 38.9059 67.275 38.5693C67.275 38.2328 67.3682 37.8802 67.5702 37.5116C67.7876 37.159 68.0983 36.8706 68.5178 36.6142ZM71.5471 30.3641C71.1587 30.7327 70.7082 30.925 70.18 30.925C69.481 30.925 68.9372 30.7167 68.5023 30.316C68.3158 30.1397 68.176 29.9154 68.0517 29.707C67.9585 29.4667 67.8964 29.2423 67.8964 28.9859C67.8964 28.7455 67.943 28.4891 68.0362 28.2487C68.3469 27.4154 69.0149 27.0147 70.0868 27.0147C70.7238 27.0147 71.2364 27.191 71.5937 27.5436C71.951 27.8961 72.153 28.3609 72.153 28.9378C72.153 29.4506 71.951 29.9474 71.5471 30.3641Z" fill="white"/>
</svg>
