<svg width="140" height="75" viewBox="0 0 140 75" fill="none" xmlns="http://www.w3.org/2000/svg">
<g clip-path="url(#clip0_14883_12619)">
<path d="M75.1014 46.2672H89.962V44.509H77.649V38.883H86.8975V37.104H77.649V31.9206H89.962V30.1688H75.1014V46.2672Z" fill="white"/>
<path d="M82.824 27.5665L80.8121 29.7558L87.1281 27.5665H82.824Z" fill="white"/>
<path d="M114.909 44.509V30.1688H112.587V46.2672H127.609V44.509H114.909Z" fill="white"/>
<path d="M99.5912 30.1688L91.1405 46.2672H93.997L96.1589 42.1005H106.294L108.475 46.2672H111.302L102.844 30.1688H99.5912ZM97.2286 40.0826L101.211 32.3933L105.24 40.0826H97.2286Z" fill="white"/>
<path d="M67.0376 39.5357C70.8451 38.5516 71.2151 35.8074 71.1958 34.8264C70.9685 31.9505 68.9681 30.1688 65.3735 30.1688H54.8985V46.2672H57.2864V39.5142H64.1059L69.1229 46.2672H72.1327C72.1327 46.2672 68.5222 41.7224 67.0376 39.5357ZM65.0475 37.6121H57.2864V32.0743H65.318C67.1671 32.0743 68.2073 32.9105 68.582 33.9726C68.8299 34.7007 68.6709 35.6565 68.2608 36.3073C67.5896 37.3831 66.3145 37.6121 65.0475 37.6121Z" fill="white"/>
<path d="M40.548 27.4428C33.8072 27.4428 29.2129 32.0464 29.2129 37.6183C29.2129 43.4842 34.288 47.6252 40.548 47.6252C46.8039 47.6252 51.877 43.5433 51.877 37.6183C51.877 32.0464 47.2258 27.4428 40.548 27.4428ZM40.4671 45.6268C35.8035 45.6268 31.961 41.9968 31.961 37.6238C31.961 33.2568 35.6221 29.4528 40.6479 29.4528C45.5492 29.4528 49.1521 33.2568 49.1521 37.6238C49.1521 41.9966 45.1287 45.6268 40.4671 45.6268Z" fill="white"/>
<path d="M23.1987 35.8639H24.9218L28.0493 30.1688H25.5326L23.1987 35.8639Z" fill="white"/>
<path d="M14.7752 44.509V30.1688H12.4512V46.2672H27.4734V44.509H14.7752Z" fill="white"/>
</g>
<defs>
<clipPath id="clip0_14883_12619">
<rect width="115.158" height="20.1824" fill="white" transform="translate(12.4512 27.4428)"/>
</clipPath>
</defs>
</svg>
