<svg width="97" height="18" viewBox="0 0 97 18" fill="none" xmlns="http://www.w3.org/2000/svg">
    <g clip-path="url(#clip0_14269_12340)">
        <path d="M52.7715 16.4526H65.2889V14.9716H54.9174V10.2327H62.7076V8.73417H54.9174V4.36813H65.2889V2.89254H52.7715V16.4526Z" fill="white"/>
        <path d="M59.2765 0.700541L57.5817 2.54467L62.9018 0.700541H59.2765Z" fill="white"/>
        <path d="M86.3025 14.9716V2.89254H84.346V16.4526H97V14.9716H86.3025Z" fill="white"/>
        <path d="M73.3998 2.89254L66.2816 16.4526H68.6876L70.5087 12.9428H79.0459L80.8825 16.4526H83.2637L76.1398 2.89254H73.3998ZM71.4097 11.2432L74.764 4.76627L78.1575 11.2432H71.4097Z" fill="white"/>
        <path d="M45.9792 10.7824C49.1864 9.95348 49.498 7.64204 49.4818 6.81569C49.2903 4.39326 47.6053 2.89254 44.5776 2.89254H35.7542V16.4526H37.7656V10.7643H43.5098L47.7358 16.4526H50.271C50.271 16.4526 47.2298 12.6243 45.9792 10.7824ZM44.3029 9.16214H37.7656V4.49755H44.5308C46.0883 4.49755 46.9645 5.20187 47.2801 6.09657C47.4889 6.70987 47.355 7.51496 47.0096 8.06308C46.4442 8.96929 45.3702 9.16214 44.3029 9.16214Z" fill="white"/>
        <path d="M23.6665 0.596367C17.9887 0.596367 14.1187 4.47406 14.1187 9.16742C14.1187 14.1084 18.3936 17.5964 23.6665 17.5964C28.9359 17.5964 33.2092 14.1581 33.2092 9.16742C33.2092 4.47406 29.2913 0.596367 23.6665 0.596367ZM23.5984 15.9131C19.6701 15.9131 16.4335 12.8554 16.4335 9.172C16.4335 5.49361 19.5174 2.28946 23.7507 2.28946C27.8791 2.28946 30.9139 5.49361 30.9139 9.172C30.9139 12.8553 27.525 15.9131 23.5984 15.9131Z" fill="white"/>
        <path d="M9.05289 7.68961H10.5043L13.1387 2.89254H11.0187L9.05289 7.68961Z" fill="white"/>
        <path d="M1.95758 14.9716V2.89254H0V16.4526H12.6535V14.9716H1.95758Z" fill="white"/>
    </g>
    <defs>
        <clipPath id="clip0_14269_12340">
            <rect width="97" height="17" fill="white" transform="translate(0 0.596367)"/>
        </clipPath>
    </defs>
</svg>
