<svg width="118" height="64" viewBox="0 0 118 64" fill="none" xmlns="http://www.w3.org/2000/svg">
    <g clip-path="url(#clip0_14082_14831)">
        <path d="M63.4463 38.8902H75.9637V37.4092H65.5922V32.6703H73.3824V31.1718H65.5922V26.8057H75.9637V25.3302H63.4463V38.8902Z" fill="white"/>
        <path d="M69.9513 23.1382L68.2566 24.9823L73.5766 23.1382H69.9513Z" fill="white"/>
        <path d="M96.9773 37.4092V25.3302H95.0208V38.8902H107.675V37.4092H96.9773Z" fill="white"/>
        <path d="M84.0746 25.3302L76.9564 38.8902H79.3624L81.1835 35.3804H89.7207L91.5573 38.8902H93.9385L86.8146 25.3302H84.0746ZM82.0845 33.6808L85.4388 27.2039L88.8323 33.6808H82.0845Z" fill="white"/>
        <path d="M56.654 33.22C59.8612 32.3911 60.1728 30.0797 60.1566 29.2533C59.9651 26.8309 58.2801 25.3302 55.2524 25.3302H46.429V38.8902H48.4404V33.2019H54.1846L58.4106 38.8902H60.9458C60.9458 38.8902 57.9046 35.0619 56.654 33.22ZM54.9777 31.5998H48.4404V26.9352H55.2056C56.7631 26.9352 57.6393 27.6395 57.9549 28.5342C58.1637 29.1475 58.0298 29.9526 57.6844 30.5007C57.119 31.4069 56.045 31.5998 54.9777 31.5998Z" fill="white"/>
        <path d="M34.3414 23.034C28.6635 23.034 24.7935 26.9117 24.7935 31.605C24.7935 36.546 29.0684 40.034 34.3414 40.034C39.6108 40.034 43.884 36.5958 43.884 31.605C43.884 26.9117 39.9661 23.034 34.3414 23.034ZM34.2732 38.3508C30.345 38.3508 27.1083 35.2931 27.1083 31.6096C27.1083 27.9312 30.1922 24.7271 34.4255 24.7271C38.5539 24.7271 41.5887 27.9312 41.5887 31.6096C41.5887 35.2929 38.1998 38.3508 34.2732 38.3508Z" fill="white"/>
        <path d="M19.7277 30.1272H21.1791L23.8135 25.3302H21.6935L19.7277 30.1272Z" fill="white"/>
        <path d="M12.6324 37.4092V25.3302H10.6748V38.8902H23.3283V37.4092H12.6324Z" fill="white"/>
    </g>
    <defs>
        <clipPath id="clip0_14082_14831">
            <rect width="97" height="17" fill="white" transform="translate(10.6748 23.034)"/>
        </clipPath>
    </defs>
</svg>
