<svg width="492" height="314" viewBox="0 0 492 314" fill="none" xmlns="http://www.w3.org/2000/svg">
<g id="Artwork">
<g id="Frame 15433">
<g id="Ellipse 1" filter="url(#filter0_f_8338_16384)">
<path d="M131.099 102.629C149.034 102.629 163.573 117.126 163.573 135.008C163.573 152.891 149.034 167.388 131.099 167.388C113.164 167.388 98.625 152.891 98.625 135.008C98.625 117.126 113.164 102.629 131.099 102.629Z" fill="#7300CE" fill-opacity="0.5"/>
</g>
<path id="Ellipse 1219 (Stroke)" fill-rule="evenodd" clip-rule="evenodd" d="M305.795 262.454C306.244 262.356 306.693 262.257 307.142 262.157C308.85 261.775 310.554 261.376 312.252 260.959C313.95 260.543 315.63 260.112 317.292 259.668C317.729 259.551 318.164 259.433 318.598 259.315C319.033 259.196 319.466 259.076 319.899 258.955L318.692 257.459L316.075 258.159C314.441 258.596 312.789 259.019 311.119 259.428C309.449 259.838 307.774 260.23 306.095 260.606L303.405 261.207L304.443 262.745C304.894 262.649 305.345 262.552 305.795 262.454ZM299.508 263.744L298.644 262.171L295.892 262.671C292.43 263.3 288.954 263.86 285.469 264.352L282.666 264.747L283.35 266.349C283.819 266.288 284.287 266.226 284.756 266.162C285.224 266.098 285.691 266.034 286.159 265.968C289.705 265.467 293.241 264.898 296.763 264.258C297.221 264.175 297.679 264.09 298.137 264.005C298.594 263.919 299.051 263.832 299.508 263.744ZM278.22 266.971L277.72 265.347L274.879 265.635C271.312 265.998 267.74 266.29 264.17 266.515L261.301 266.695L261.615 268.335C262.093 268.309 262.572 268.283 263.051 268.255C263.529 268.227 264.008 268.199 264.486 268.169C268.119 267.94 271.753 267.642 275.383 267.274C275.856 267.226 276.33 267.176 276.803 267.126C277.275 267.076 277.748 267.024 278.22 266.971ZM256.389 268.563L256.263 266.915L253.38 266.986C249.764 267.076 246.154 267.096 242.556 267.048L239.671 267.01L239.608 268.658C240.089 268.67 240.57 268.68 241.051 268.688C241.531 268.697 242.012 268.705 242.493 268.711C246.154 268.76 249.827 268.739 253.507 268.648C253.987 268.637 254.467 268.624 254.948 268.609C255.428 268.595 255.909 268.58 256.389 268.563ZM234.377 268.49L234.627 266.847L231.751 266.7C228.15 266.516 224.566 266.264 221.006 265.945L218.153 265.69L217.717 267.319C218.191 267.367 218.666 267.413 219.141 267.458C219.616 267.503 220.091 267.546 220.566 267.589C224.189 267.913 227.835 268.169 231.5 268.357C231.979 268.382 232.458 268.405 232.938 268.427C233.417 268.449 233.897 268.47 234.377 268.49ZM212.566 266.759L213.185 265.149L210.367 264.787C206.841 264.334 203.344 263.815 199.882 263.232L197.111 262.765L196.311 264.348C196.77 264.431 197.231 264.512 197.691 264.592C198.152 264.672 198.613 264.751 199.075 264.829C202.597 265.422 206.155 265.95 209.742 266.411C210.212 266.471 210.682 266.53 211.153 266.588C211.623 266.646 212.094 266.703 212.566 266.759ZM191.328 263.407L192.305 261.857L189.592 261.287C186.199 260.575 182.848 259.799 179.543 258.961L176.9 258.291L175.75 259.801C176.188 259.917 176.626 260.032 177.065 260.146C177.503 260.26 177.943 260.372 178.384 260.484C181.746 261.336 185.156 262.126 188.607 262.85C189.059 262.945 189.512 263.039 189.966 263.132C190.419 263.225 190.873 263.316 191.328 263.407ZM171.021 258.495L172.339 257.032L169.777 256.264C166.576 255.305 163.427 254.285 160.336 253.206L157.866 252.344L156.386 253.754C156.793 253.902 157.202 254.049 157.611 254.195C158.021 254.34 158.432 254.485 158.843 254.629C161.988 255.726 165.191 256.764 168.448 257.74C168.875 257.868 169.303 257.994 169.732 258.12C170.161 258.246 170.59 258.371 171.021 258.495ZM151.991 252.105L153.628 250.753L151.261 249.8C148.306 248.61 145.414 247.362 142.592 246.059L140.338 245.018L138.55 246.305C138.921 246.482 139.292 246.658 139.665 246.834C140.039 247.009 140.413 247.183 140.789 247.357C143.661 248.683 146.603 249.952 149.61 251.163C150.004 251.322 150.4 251.48 150.797 251.637C151.194 251.794 151.592 251.95 151.991 252.105ZM134.569 244.339L136.499 243.123L134.369 242C131.712 240.598 129.129 239.143 126.625 237.636L124.628 236.434L122.562 237.573C122.889 237.777 123.218 237.98 123.547 238.182C123.877 238.384 124.209 238.585 124.542 238.786C127.09 240.32 129.718 241.8 132.422 243.226C132.777 243.413 133.133 243.6 133.491 243.785C133.849 243.971 134.208 244.156 134.569 244.339ZM119.062 235.322L121.254 234.264L119.398 232.988C117.089 231.401 114.862 229.764 112.722 228.078L111.016 226.734L108.708 227.707C108.986 227.934 109.265 228.16 109.545 228.385C109.826 228.611 110.109 228.835 110.393 229.059C112.571 230.774 114.838 232.441 117.187 234.056C117.497 234.269 117.808 234.481 118.12 234.692C118.432 234.903 118.746 235.113 119.062 235.322ZM105.751 225.209L108.166 224.327L106.618 222.922C104.693 221.174 102.856 219.382 101.114 217.545L99.7287 216.084L97.2182 216.874C97.442 217.12 97.6674 217.365 97.8945 217.609C98.122 217.854 98.351 218.098 98.5817 218.341C100.355 220.21 102.223 222.034 104.182 223.812C104.44 224.046 104.7 224.28 104.961 224.513C105.223 224.746 105.486 224.978 105.751 225.209ZM94.8573 214.18L97.4519 213.486L96.234 211.977C95.4737 211.035 94.7371 210.082 94.0247 209.12C93.3123 208.157 92.6296 207.191 91.9763 206.223L90.9299 204.672L88.2628 205.268C88.4294 205.528 88.5981 205.788 88.7689 206.047C88.9393 206.306 89.1119 206.565 89.2864 206.824C89.951 207.809 90.6454 208.791 91.37 209.771C92.0946 210.75 92.8439 211.719 93.6172 212.677C93.8204 212.929 94.0252 213.18 94.2317 213.43C94.4386 213.681 94.6471 213.931 94.8573 214.18ZM86.5244 202.421L89.253 201.926L88.3834 200.34C87.2895 198.343 86.3162 196.339 85.4617 194.329L84.7744 192.713L81.9953 193.104C82.1017 193.374 82.2102 193.644 82.3208 193.915C82.4313 194.184 82.5438 194.454 82.6584 194.724C83.528 196.768 84.5182 198.808 85.6312 200.839C85.7761 201.103 85.9229 201.367 86.0719 201.631C86.2206 201.895 86.3715 202.158 86.5244 202.421ZM80.9153 190.146L83.7332 189.862L83.2321 188.223C82.6034 186.167 82.0957 184.108 81.7071 182.049L81.3949 180.395L78.5504 180.572C78.5941 180.848 78.6399 181.124 78.6878 181.4C78.7357 181.676 78.7857 181.952 78.8378 182.227C79.2332 184.322 79.7498 186.417 80.3897 188.51C80.4731 188.783 80.5587 189.056 80.6463 189.329C80.7339 189.601 80.8236 189.874 80.9153 190.146ZM78.1558 177.559L81.0146 177.492L80.8925 175.829C80.7395 173.745 80.7068 171.665 80.7921 169.592L80.8605 167.929L77.9999 167.888C77.9802 168.164 77.9626 168.442 77.947 168.719C77.9315 168.996 77.918 169.273 77.9066 169.55C77.8198 171.66 77.8531 173.777 78.0088 175.898C78.0292 176.175 78.0516 176.452 78.0761 176.729C78.1006 177.005 78.1272 177.282 78.1558 177.559ZM78.2965 164.873L81.1464 165.023L81.4045 163.366C81.7276 161.291 82.1686 159.226 82.7252 157.175L83.1712 155.532L80.344 155.275C80.2616 155.548 80.1811 155.822 80.1027 156.095C80.0243 156.369 79.9479 156.642 79.8736 156.916C79.3073 159.003 78.8585 161.104 78.5297 163.215C78.4867 163.491 78.4458 163.767 78.4069 164.044C78.368 164.32 78.3312 164.596 78.2965 164.873ZM81.3228 152.308L84.1151 152.671L84.7465 151.048C85.5364 149.018 86.4408 147.004 87.4572 145.011L88.2708 143.415L85.5252 142.948C85.3817 143.213 85.2402 143.478 85.1007 143.743C84.9611 144.008 84.8236 144.274 84.688 144.54C83.6539 146.568 82.7338 148.616 81.9301 150.682C81.8249 150.953 81.7217 151.223 81.6204 151.494C81.5192 151.765 81.42 152.037 81.3228 152.308ZM87.1656 140.08L89.8529 140.649L90.845 139.088C92.0853 137.135 93.4358 135.207 94.894 133.305L96.0601 131.784L93.4424 131.116C93.2405 131.367 93.0406 131.619 92.8425 131.872C92.6444 132.124 92.4481 132.377 92.2538 132.631C90.7703 134.566 89.3964 136.528 88.1345 138.514C87.9692 138.774 87.8058 139.035 87.6443 139.296C87.4828 139.557 87.3232 139.819 87.1656 140.08ZM95.7149 128.395L98.2519 129.16L99.5872 127.686C101.255 125.845 103.028 124.034 104.904 122.256L106.403 120.836L103.958 119.978C103.701 120.212 103.446 120.447 103.193 120.682C102.939 120.918 102.688 121.154 102.438 121.391C100.529 123.199 98.7255 125.041 97.0284 126.915C96.8058 127.16 96.5851 127.406 96.3662 127.653C96.1473 127.9 95.9302 128.147 95.7149 128.395ZM106.825 117.451L109.168 118.399L110.825 117.038C112.893 115.339 115.06 113.677 117.324 112.054L119.132 110.759L116.901 109.724C116.594 109.937 116.288 110.151 115.983 110.365C115.678 110.58 115.376 110.795 115.074 111.011C112.77 112.662 110.565 114.353 108.461 116.081C108.185 116.308 107.911 116.536 107.638 116.764C107.365 116.992 107.094 117.221 106.825 117.451ZM120.315 107.436L122.423 108.552L124.375 107.328C126.808 105.801 129.334 104.317 131.951 102.878L134.038 101.73L132.061 100.536C131.707 100.724 131.355 100.913 131.005 101.102C130.654 101.292 130.305 101.482 129.957 101.674C127.294 103.138 124.724 104.648 122.248 106.202C121.923 106.406 121.599 106.611 121.277 106.816C120.955 107.022 120.634 107.229 120.315 107.436ZM135.968 98.5254L137.804 99.7915L140.018 98.7255C142.772 97.3989 145.614 96.1192 148.539 94.8895L150.869 93.9098L149.181 92.5769C148.788 92.7365 148.396 92.8969 148.005 93.0581C147.614 93.2196 147.224 93.3819 146.836 93.5451C143.859 94.7963 140.969 96.0984 138.165 97.4484C137.796 97.6261 137.429 97.8047 137.063 97.9841C136.696 98.1637 136.331 98.3441 135.968 98.5254ZM153.514 90.8784L155.047 92.2721L157.484 91.3827C160.515 90.2767 163.624 89.2217 166.811 88.2205L169.344 87.4246L167.972 85.9762C167.545 86.1048 167.12 86.2344 166.696 86.3648C166.272 86.4955 165.849 86.6271 165.427 86.7596C162.185 87.7782 159.021 88.8516 155.938 89.9769C155.531 90.1252 155.126 90.2745 154.723 90.4246C154.318 90.575 153.916 90.7262 153.514 90.8784ZM172.643 84.6198L173.851 86.1162L176.468 85.4164C178.101 84.9795 179.753 84.5562 181.423 84.1467C183.093 83.7373 184.768 83.3449 186.447 82.9694L189.137 82.3679L188.099 80.83C187.648 80.9258 187.197 81.0228 186.747 81.1209C186.298 81.2189 185.849 81.318 185.4 81.4184C183.692 81.8003 181.989 82.1994 180.29 82.6158C178.592 83.0323 176.912 83.4628 175.25 83.9072C174.814 84.024 174.378 84.1417 173.944 84.2603C173.509 84.3792 173.076 84.499 172.643 84.6198ZM193.035 79.8306L193.898 81.4037L196.65 80.9037C200.112 80.2746 203.588 79.7148 207.073 79.2231L209.876 78.8277L209.192 77.2257C208.723 77.2869 208.255 77.3494 207.786 77.413C207.318 77.4766 206.851 77.5413 206.383 77.6073C202.837 78.1076 199.301 78.6771 195.779 79.3171C195.321 79.4004 194.863 79.4848 194.405 79.5705C193.948 79.656 193.491 79.7427 193.035 79.8306ZM214.322 76.6039L214.822 78.2281L217.664 77.9395C221.23 77.5773 224.802 77.2846 228.372 77.0602L231.241 76.8799L230.928 75.2404C230.449 75.2657 229.97 75.2922 229.491 75.3199C229.013 75.3475 228.534 75.3764 228.056 75.4065C224.423 75.6348 220.789 75.9326 217.159 76.3012C216.686 76.3493 216.213 76.3986 215.739 76.4491C215.267 76.4995 214.794 76.5511 214.322 76.6039ZM236.153 75.012L236.279 76.6597L239.163 76.5886C242.778 76.4994 246.388 76.4793 249.986 76.527L252.871 76.5653L252.934 74.9165C252.453 74.9054 251.972 74.8954 251.491 74.8866C251.011 74.8779 250.53 74.8703 250.049 74.8639C246.388 74.8154 242.715 74.8359 239.036 74.9266C238.555 74.9384 238.075 74.9515 237.594 74.9657C237.114 74.98 236.634 74.9954 236.153 75.012ZM258.165 75.085L257.915 76.7277L260.791 76.8749C264.392 77.0593 267.976 77.3115 271.537 77.6301L274.389 77.8853L274.825 76.2555C274.351 76.2083 273.876 76.1623 273.401 76.1174C272.927 76.0725 272.451 76.0288 271.976 75.9862C268.353 75.6621 264.707 75.4055 261.042 75.2179C260.563 75.1934 260.084 75.1701 259.604 75.1479C259.125 75.1257 258.645 75.1048 258.165 75.085ZM279.976 76.8163L279.357 78.4261L282.175 78.788C285.701 79.2409 289.198 79.7597 292.66 80.3429L295.432 80.8097L296.231 79.2267C295.772 79.1443 295.312 79.0631 294.851 78.983C294.39 78.903 293.929 78.824 293.467 78.7462C289.945 78.1529 286.387 77.6251 282.8 77.1644C282.33 77.1041 281.86 77.0449 281.389 76.9869C280.919 76.9289 280.448 76.872 279.976 76.8163ZM301.214 80.1684L300.237 81.718L302.95 82.2877C306.343 83.0001 309.694 83.7758 312.999 84.6137L315.642 85.2837L316.792 83.7741C316.355 83.6581 315.917 83.5432 315.478 83.4293C315.039 83.3155 314.599 83.2027 314.158 83.0911C310.796 82.2387 307.387 81.4495 303.935 80.7247C303.483 80.6298 303.03 80.536 302.577 80.4432C302.123 80.3505 301.669 80.2589 301.214 80.1684ZM321.521 85.0803L320.203 86.5435L322.766 87.3112C325.967 88.2704 329.115 89.29 332.206 90.3689L334.676 91.2312L336.156 89.8207C335.749 89.673 335.34 89.5262 334.931 89.3805C334.521 89.2347 334.111 89.09 333.699 88.9463C330.555 87.8486 327.351 86.8112 324.094 85.8354C323.667 85.7075 323.239 85.5806 322.81 85.4547C322.381 85.3289 321.952 85.204 321.521 85.0803ZM340.551 91.4702L338.914 92.8217L341.281 93.7751C344.236 94.9652 347.128 96.2127 349.951 97.5161L352.205 98.5568L353.992 97.2702C353.621 97.093 353.25 96.9168 352.877 96.7415C352.503 96.5661 352.129 96.3917 351.754 96.2183C348.881 94.8921 345.939 93.6228 342.932 92.4119C342.538 92.253 342.142 92.0951 341.745 91.9381C341.348 91.7811 340.95 91.6252 340.551 91.4702ZM357.973 99.2357L356.043 100.452L358.173 101.575C360.83 102.977 363.413 104.432 365.917 105.939L367.914 107.141L369.98 106.002C369.653 105.798 369.325 105.595 368.995 105.393C368.665 105.191 368.333 104.99 368.001 104.789C365.452 103.255 362.824 101.775 360.121 100.349C359.765 100.162 359.409 99.9752 359.051 99.7897C358.693 99.6041 358.334 99.4194 357.973 99.2357ZM373.48 108.253L371.288 109.311L373.144 110.587C375.453 112.174 377.68 113.811 379.82 115.497L381.526 116.841L383.834 115.868C383.557 115.641 383.277 115.415 382.997 115.19C382.716 114.964 382.433 114.74 382.149 114.516C379.971 112.801 377.705 111.134 375.355 109.519C375.045 109.306 374.735 109.094 374.422 108.883C374.11 108.672 373.796 108.462 373.48 108.253ZM386.791 118.365L384.376 119.248L385.924 120.653C387.849 122.401 389.686 124.193 391.428 126.03L392.813 127.491L395.324 126.701C395.1 126.455 394.875 126.21 394.648 125.966C394.42 125.721 394.191 125.477 393.96 125.234C392.187 123.365 390.319 121.541 388.36 119.763C388.102 119.529 387.842 119.295 387.581 119.062C387.319 118.829 387.056 118.597 386.791 118.365ZM397.685 129.395L395.09 130.089L396.308 131.598C397.068 132.54 397.805 133.493 398.517 134.455C399.23 135.418 399.912 136.384 400.566 137.352L401.612 138.903L404.279 138.307C404.113 138.047 403.944 137.787 403.773 137.528C403.603 137.269 403.43 137.01 403.256 136.751C402.591 135.766 401.897 134.784 401.172 133.804C400.448 132.825 399.698 131.856 398.925 130.898C398.722 130.646 398.517 130.395 398.31 130.145C398.104 129.894 397.895 129.644 397.685 129.395ZM406.018 141.154L403.289 141.649L404.159 143.235C405.253 145.232 406.226 147.236 407.08 149.246L407.768 150.862L410.547 150.471C410.44 150.201 410.332 149.931 410.221 149.66C410.111 149.391 409.998 149.121 409.884 148.851C409.014 146.807 408.024 144.767 406.911 142.736C406.766 142.472 406.619 142.208 406.47 141.944C406.321 141.68 406.171 141.417 406.018 141.154ZM411.627 153.429L408.809 153.713L409.31 155.352C409.939 157.408 410.446 159.467 410.835 161.526L411.147 163.18L413.992 163.003C413.948 162.727 413.902 162.451 413.854 162.175C413.806 161.899 413.756 161.623 413.704 161.348C413.309 159.253 412.792 157.158 412.152 155.065C412.069 154.792 411.983 154.519 411.896 154.246C411.808 153.974 411.719 153.701 411.627 153.429ZM414.386 166.016L411.528 166.083L411.65 167.746C411.803 169.83 411.835 171.91 411.75 173.983L411.682 175.646L414.542 175.687C414.562 175.411 414.579 175.133 414.595 174.856C414.611 174.579 414.624 174.302 414.635 174.025C414.722 171.915 414.689 169.798 414.533 167.677C414.513 167.4 414.491 167.123 414.466 166.846C414.442 166.57 414.415 166.293 414.386 166.016ZM414.246 178.702L411.396 178.552L411.138 180.209C410.815 182.284 410.374 184.349 409.817 186.4L409.371 188.043L412.198 188.3C412.281 188.027 412.361 187.753 412.439 187.48C412.518 187.206 412.594 186.933 412.668 186.659C413.235 184.572 413.684 182.471 414.012 180.36C414.055 180.084 414.096 179.808 414.135 179.531C414.174 179.255 414.211 178.979 414.246 178.702ZM411.219 191.267L408.427 190.904L407.796 192.527C407.006 194.557 406.101 196.571 405.085 198.564L404.271 200.16L407.017 200.627C407.16 200.362 407.302 200.097 407.441 199.832C407.581 199.567 407.719 199.301 407.854 199.035C408.888 197.007 409.808 194.959 410.612 192.893C410.717 192.622 410.82 192.352 410.922 192.081C411.023 191.81 411.122 191.538 411.219 191.267ZM405.377 203.495L402.689 202.926L401.697 204.487C400.457 206.44 399.106 208.368 397.648 210.27L396.482 211.791L399.1 212.459C399.302 212.208 399.502 211.956 399.7 211.703C399.898 211.451 400.094 211.198 400.288 210.944C401.772 209.009 403.146 207.047 404.408 205.061C404.573 204.801 404.736 204.54 404.898 204.279C405.059 204.018 405.219 203.756 405.377 203.495ZM396.827 215.18L394.29 214.415L392.955 215.889C391.287 217.73 389.514 219.541 387.638 221.319L386.139 222.739L388.584 223.597C388.841 223.363 389.096 223.128 389.349 222.893C389.603 222.657 389.854 222.421 390.104 222.184C392.013 220.376 393.817 218.534 395.514 216.66C395.736 216.415 395.957 216.169 396.176 215.922C396.395 215.675 396.612 215.428 396.827 215.18ZM385.717 226.124L383.374 225.176L381.717 226.537C379.649 228.236 377.482 229.898 375.218 231.521L373.41 232.816L375.641 233.851C375.948 233.638 376.255 233.424 376.559 233.21C376.864 232.995 377.167 232.78 377.468 232.564C379.772 230.913 381.977 229.222 384.081 227.494C384.357 227.267 384.631 227.039 384.904 226.811C385.177 226.583 385.448 226.354 385.717 226.124ZM372.227 236.139L370.119 235.023L368.167 236.247C365.734 237.774 363.208 239.258 360.591 240.697L358.504 241.845L360.481 243.039C360.835 242.851 361.187 242.662 361.537 242.473C361.888 242.283 362.237 242.093 362.585 241.901C365.248 240.437 367.818 238.927 370.294 237.373C370.619 237.169 370.943 236.964 371.265 236.759C371.588 236.553 371.908 236.346 372.227 236.139ZM356.574 245.05L354.738 243.784L352.525 244.849C349.77 246.176 346.929 247.456 344.003 248.685L341.673 249.665L343.361 250.998C343.755 250.839 344.147 250.678 344.537 250.517C344.928 250.355 345.318 250.193 345.706 250.03C348.683 248.779 351.574 247.477 354.377 246.127C354.746 245.949 355.114 245.77 355.48 245.591C355.846 245.411 356.211 245.231 356.574 245.05ZM339.028 252.697L337.495 251.303L335.058 252.192C332.027 253.298 328.918 254.353 325.731 255.355L323.198 256.15L324.57 257.599C324.997 257.47 325.422 257.341 325.846 257.21C326.27 257.079 326.693 256.948 327.115 256.815C330.357 255.797 333.521 254.723 336.604 253.598C337.011 253.45 337.416 253.301 337.819 253.15C338.224 253 338.627 252.849 339.028 252.697Z" fill="url(#paint0_linear_8338_16384)"/>
<path id="Ellipse 1221 (Stroke)" fill-rule="evenodd" clip-rule="evenodd" d="M305.795 262.454C306.244 262.356 306.693 262.257 307.142 262.157C308.85 261.775 310.554 261.376 312.252 260.959C313.95 260.543 315.63 260.112 317.292 259.668C317.729 259.551 318.164 259.433 318.598 259.315C319.033 259.196 319.466 259.076 319.899 258.955L318.692 257.459L316.075 258.159C314.441 258.596 312.789 259.019 311.119 259.428C309.449 259.838 307.774 260.23 306.095 260.606L303.405 261.207L304.443 262.745C304.894 262.649 305.345 262.552 305.795 262.454ZM299.508 263.744L298.644 262.171L295.892 262.671C292.43 263.3 288.954 263.86 285.469 264.352L282.666 264.747L283.35 266.349C283.819 266.288 284.287 266.226 284.756 266.162C285.224 266.098 285.691 266.034 286.159 265.968C289.705 265.467 293.241 264.898 296.763 264.258C297.221 264.175 297.679 264.09 298.137 264.005C298.594 263.919 299.051 263.832 299.508 263.744ZM278.22 266.971L277.72 265.347L274.879 265.635C271.312 265.998 267.74 266.29 264.17 266.515L261.301 266.695L261.615 268.335C262.093 268.309 262.572 268.283 263.051 268.255C263.529 268.227 264.008 268.199 264.486 268.169C268.119 267.94 271.753 267.642 275.383 267.274C275.856 267.226 276.33 267.176 276.803 267.126C277.275 267.076 277.748 267.024 278.22 266.971ZM256.389 268.563L256.263 266.915L253.38 266.986C249.764 267.076 246.154 267.096 242.556 267.048L239.671 267.01L239.608 268.658C240.089 268.67 240.57 268.68 241.051 268.688C241.531 268.697 242.012 268.705 242.493 268.711C246.154 268.76 249.827 268.739 253.507 268.648C253.987 268.637 254.467 268.624 254.948 268.609C255.428 268.595 255.909 268.58 256.389 268.563ZM234.377 268.49L234.627 266.847L231.751 266.7C228.15 266.516 224.566 266.264 221.006 265.945L218.153 265.69L217.717 267.319C218.191 267.367 218.666 267.413 219.141 267.458C219.616 267.503 220.091 267.546 220.566 267.589C224.189 267.913 227.835 268.169 231.5 268.357C231.979 268.382 232.458 268.405 232.938 268.427C233.417 268.449 233.897 268.47 234.377 268.49ZM212.566 266.759L213.185 265.149L210.367 264.787C206.841 264.334 203.344 263.815 199.882 263.232L197.111 262.765L196.311 264.348C196.77 264.431 197.231 264.512 197.691 264.592C198.152 264.672 198.613 264.751 199.075 264.829C202.597 265.422 206.155 265.95 209.742 266.411C210.212 266.471 210.682 266.53 211.153 266.588C211.623 266.646 212.094 266.703 212.566 266.759ZM191.328 263.407L192.305 261.857L189.592 261.287C186.199 260.575 182.848 259.799 179.543 258.961L176.9 258.291L175.75 259.801C176.188 259.917 176.626 260.032 177.065 260.146C177.503 260.26 177.943 260.372 178.384 260.484C181.746 261.336 185.156 262.126 188.607 262.85C189.059 262.945 189.512 263.039 189.966 263.132C190.419 263.225 190.873 263.316 191.328 263.407ZM171.021 258.495L172.339 257.032L169.777 256.264C166.576 255.305 163.427 254.285 160.336 253.206L157.866 252.344L156.386 253.754C156.793 253.902 157.202 254.049 157.611 254.195C158.021 254.34 158.432 254.485 158.843 254.629C161.988 255.726 165.191 256.764 168.448 257.74C168.875 257.868 169.303 257.994 169.732 258.12C170.161 258.246 170.59 258.371 171.021 258.495ZM151.991 252.105L153.628 250.753L151.261 249.8C148.306 248.61 145.414 247.362 142.592 246.059L140.338 245.018L138.55 246.305C138.921 246.482 139.292 246.658 139.665 246.834C140.039 247.009 140.413 247.183 140.789 247.357C143.661 248.683 146.603 249.952 149.61 251.163C150.004 251.322 150.4 251.48 150.797 251.637C151.194 251.794 151.592 251.95 151.991 252.105ZM134.569 244.339L136.499 243.123L134.369 242C131.712 240.598 129.129 239.143 126.625 237.636L124.628 236.434L122.562 237.573C122.889 237.777 123.218 237.98 123.547 238.182C123.877 238.384 124.209 238.585 124.542 238.786C127.09 240.32 129.718 241.8 132.422 243.226C132.777 243.413 133.133 243.6 133.491 243.785C133.849 243.971 134.208 244.156 134.569 244.339ZM119.062 235.322L121.254 234.264L119.398 232.988C117.089 231.401 114.862 229.764 112.722 228.078L111.016 226.734L108.708 227.707C108.986 227.934 109.265 228.16 109.545 228.385C109.826 228.611 110.109 228.835 110.393 229.059C112.571 230.774 114.838 232.441 117.187 234.056C117.497 234.269 117.808 234.481 118.12 234.692C118.432 234.903 118.746 235.113 119.062 235.322ZM105.751 225.209L108.166 224.327L106.618 222.922C104.693 221.174 102.856 219.382 101.114 217.545L99.7287 216.084L97.2182 216.874C97.442 217.12 97.6674 217.365 97.8945 217.609C98.122 217.854 98.351 218.098 98.5817 218.341C100.355 220.21 102.223 222.034 104.182 223.812C104.44 224.046 104.7 224.28 104.961 224.513C105.223 224.746 105.486 224.978 105.751 225.209ZM94.8573 214.18L97.4519 213.486L96.234 211.977C95.4737 211.035 94.7371 210.082 94.0247 209.12C93.3123 208.157 92.6296 207.191 91.9763 206.223L90.9299 204.672L88.2628 205.268C88.4294 205.528 88.5981 205.788 88.7689 206.047C88.9393 206.306 89.1119 206.565 89.2864 206.824C89.951 207.809 90.6454 208.791 91.37 209.771C92.0946 210.75 92.8439 211.719 93.6172 212.677C93.8204 212.929 94.0252 213.18 94.2317 213.43C94.4386 213.681 94.6471 213.931 94.8573 214.18ZM86.5244 202.421L89.253 201.926L88.3834 200.34C87.2895 198.343 86.3162 196.339 85.4617 194.329L84.7744 192.713L81.9953 193.104C82.1017 193.374 82.2102 193.644 82.3208 193.915C82.4313 194.184 82.5438 194.454 82.6584 194.724C83.528 196.768 84.5182 198.808 85.6312 200.839C85.7761 201.103 85.9229 201.367 86.0719 201.631C86.2206 201.895 86.3715 202.158 86.5244 202.421ZM80.9153 190.146L83.7332 189.862L83.2321 188.223C82.6034 186.167 82.0957 184.108 81.7071 182.049L81.3949 180.395L78.5504 180.572C78.5941 180.848 78.6399 181.124 78.6878 181.4C78.7357 181.676 78.7857 181.952 78.8378 182.227C79.2332 184.322 79.7498 186.417 80.3897 188.51C80.4731 188.783 80.5587 189.056 80.6463 189.329C80.7339 189.601 80.8236 189.874 80.9153 190.146ZM78.1558 177.559L81.0146 177.492L80.8925 175.829C80.7395 173.745 80.7068 171.665 80.7921 169.592L80.8605 167.929L77.9999 167.888C77.9802 168.164 77.9626 168.442 77.947 168.719C77.9315 168.996 77.918 169.273 77.9066 169.55C77.8198 171.66 77.8531 173.777 78.0088 175.898C78.0292 176.175 78.0516 176.452 78.0761 176.729C78.1006 177.005 78.1272 177.282 78.1558 177.559ZM78.2965 164.873L81.1464 165.023L81.4045 163.366C81.7276 161.291 82.1686 159.226 82.7252 157.175L83.1712 155.532L80.344 155.275C80.2616 155.548 80.1811 155.822 80.1027 156.095C80.0243 156.369 79.9479 156.642 79.8736 156.916C79.3073 159.003 78.8585 161.104 78.5297 163.215C78.4867 163.491 78.4458 163.767 78.4069 164.044C78.368 164.32 78.3312 164.596 78.2965 164.873ZM81.3228 152.308L84.1151 152.671L84.7465 151.048C85.5364 149.018 86.4408 147.004 87.4572 145.011L88.2708 143.415L85.5252 142.948C85.3817 143.213 85.2402 143.478 85.1007 143.743C84.9611 144.008 84.8236 144.274 84.688 144.54C83.6539 146.568 82.7338 148.616 81.9301 150.682C81.8249 150.953 81.7217 151.223 81.6204 151.494C81.5192 151.765 81.42 152.037 81.3228 152.308ZM87.1656 140.08L89.8529 140.649L90.845 139.088C92.0853 137.135 93.4358 135.207 94.894 133.305L96.0601 131.784L93.4424 131.116C93.2405 131.367 93.0406 131.619 92.8425 131.872C92.6444 132.124 92.4481 132.377 92.2538 132.631C90.7703 134.566 89.3964 136.528 88.1345 138.514C87.9692 138.774 87.8058 139.035 87.6443 139.296C87.4828 139.557 87.3232 139.819 87.1656 140.08ZM95.7149 128.395L98.2519 129.16L99.5872 127.686C101.255 125.845 103.028 124.034 104.904 122.256L106.403 120.836L103.958 119.978C103.701 120.212 103.446 120.447 103.193 120.682C102.939 120.918 102.688 121.154 102.438 121.391C100.529 123.199 98.7255 125.041 97.0284 126.915C96.8058 127.16 96.5851 127.406 96.3662 127.653C96.1473 127.9 95.9302 128.147 95.7149 128.395ZM106.825 117.451L109.168 118.399L110.825 117.038C112.893 115.339 115.06 113.677 117.324 112.054L119.132 110.759L116.901 109.724C116.594 109.937 116.288 110.151 115.983 110.365C115.678 110.58 115.376 110.795 115.074 111.011C112.77 112.662 110.565 114.353 108.461 116.081C108.185 116.308 107.911 116.536 107.638 116.764C107.365 116.992 107.094 117.221 106.825 117.451ZM120.315 107.436L122.423 108.552L124.375 107.328C126.808 105.801 129.334 104.317 131.951 102.878L134.038 101.73L132.061 100.536C131.707 100.724 131.355 100.913 131.005 101.102C130.654 101.292 130.305 101.482 129.957 101.674C127.294 103.138 124.724 104.648 122.248 106.202C121.923 106.406 121.599 106.611 121.277 106.816C120.955 107.022 120.634 107.229 120.315 107.436ZM135.968 98.5254L137.804 99.7915L140.018 98.7255C142.772 97.3989 145.614 96.1192 148.539 94.8895L150.869 93.9098L149.181 92.5769C148.788 92.7365 148.396 92.8969 148.005 93.0581C147.614 93.2196 147.224 93.3819 146.836 93.5451C143.859 94.7963 140.969 96.0984 138.165 97.4484C137.796 97.6261 137.429 97.8047 137.063 97.9841C136.696 98.1637 136.331 98.3441 135.968 98.5254ZM153.514 90.8784L155.047 92.2721L157.484 91.3827C160.515 90.2767 163.624 89.2217 166.811 88.2205L169.344 87.4246L167.972 85.9762C167.545 86.1048 167.12 86.2344 166.696 86.3648C166.272 86.4955 165.849 86.6271 165.427 86.7596C162.185 87.7782 159.021 88.8516 155.938 89.9769C155.531 90.1252 155.126 90.2745 154.723 90.4246C154.318 90.575 153.916 90.7262 153.514 90.8784ZM172.643 84.6198L173.851 86.1162L176.468 85.4164C178.101 84.9795 179.753 84.5562 181.423 84.1467C183.093 83.7373 184.768 83.3449 186.447 82.9694L189.137 82.3679L188.099 80.83C187.648 80.9258 187.197 81.0228 186.747 81.1209C186.298 81.2189 185.849 81.318 185.4 81.4184C183.692 81.8003 181.989 82.1994 180.29 82.6158C178.592 83.0323 176.912 83.4628 175.25 83.9072C174.814 84.024 174.378 84.1417 173.944 84.2603C173.509 84.3792 173.076 84.499 172.643 84.6198ZM193.035 79.8306L193.898 81.4037L196.65 80.9037C200.112 80.2746 203.588 79.7148 207.073 79.2231L209.876 78.8277L209.192 77.2257C208.723 77.2869 208.255 77.3494 207.786 77.413C207.318 77.4766 206.851 77.5413 206.383 77.6073C202.837 78.1076 199.301 78.6771 195.779 79.3171C195.321 79.4004 194.863 79.4848 194.405 79.5705C193.948 79.656 193.491 79.7427 193.035 79.8306ZM214.322 76.6039L214.822 78.2281L217.664 77.9395C221.23 77.5773 224.802 77.2846 228.372 77.0602L231.241 76.8799L230.928 75.2404C230.449 75.2657 229.97 75.2922 229.491 75.3199C229.013 75.3475 228.534 75.3764 228.056 75.4065C224.423 75.6348 220.789 75.9326 217.159 76.3012C216.686 76.3493 216.213 76.3986 215.739 76.4491C215.267 76.4995 214.794 76.5511 214.322 76.6039ZM236.153 75.012L236.279 76.6597L239.163 76.5886C242.778 76.4994 246.388 76.4793 249.986 76.527L252.871 76.5653L252.934 74.9165C252.453 74.9054 251.972 74.8954 251.491 74.8866C251.011 74.8779 250.53 74.8703 250.049 74.8639C246.388 74.8154 242.715 74.8359 239.036 74.9266C238.555 74.9384 238.075 74.9515 237.594 74.9657C237.114 74.98 236.634 74.9954 236.153 75.012ZM258.165 75.085L257.915 76.7277L260.791 76.8749C264.392 77.0593 267.976 77.3115 271.537 77.6301L274.389 77.8853L274.825 76.2555C274.351 76.2083 273.876 76.1623 273.401 76.1174C272.927 76.0725 272.451 76.0288 271.976 75.9862C268.353 75.6621 264.707 75.4055 261.042 75.2179C260.563 75.1934 260.084 75.1701 259.604 75.1479C259.125 75.1257 258.645 75.1048 258.165 75.085ZM279.976 76.8163L279.357 78.4261L282.175 78.788C285.701 79.2409 289.198 79.7597 292.66 80.3429L295.432 80.8097L296.231 79.2267C295.772 79.1443 295.312 79.0631 294.851 78.983C294.39 78.903 293.929 78.824 293.467 78.7462C289.945 78.1529 286.387 77.6251 282.8 77.1644C282.33 77.1041 281.86 77.0449 281.389 76.9869C280.919 76.9289 280.448 76.872 279.976 76.8163ZM301.214 80.1684L300.237 81.718L302.95 82.2877C306.343 83.0001 309.694 83.7758 312.999 84.6137L315.642 85.2837L316.792 83.7741C316.355 83.6581 315.917 83.5432 315.478 83.4293C315.039 83.3155 314.599 83.2027 314.158 83.0911C310.796 82.2387 307.387 81.4495 303.935 80.7247C303.483 80.6298 303.03 80.536 302.577 80.4432C302.123 80.3505 301.669 80.2589 301.214 80.1684ZM321.521 85.0803L320.203 86.5435L322.766 87.3112C325.967 88.2704 329.115 89.29 332.206 90.3689L334.676 91.2312L336.156 89.8207C335.749 89.673 335.34 89.5262 334.931 89.3805C334.521 89.2347 334.111 89.09 333.699 88.9463C330.555 87.8486 327.351 86.8112 324.094 85.8354C323.667 85.7075 323.239 85.5806 322.81 85.4547C322.381 85.3289 321.952 85.204 321.521 85.0803ZM340.551 91.4702L338.914 92.8217L341.281 93.7751C344.236 94.9652 347.128 96.2127 349.951 97.5161L352.205 98.5568L353.992 97.2702C353.621 97.093 353.25 96.9168 352.877 96.7415C352.503 96.5661 352.129 96.3917 351.754 96.2183C348.881 94.8921 345.939 93.6228 342.932 92.4119C342.538 92.253 342.142 92.0951 341.745 91.9381C341.348 91.7811 340.95 91.6252 340.551 91.4702ZM357.973 99.2357L356.043 100.452L358.173 101.575C360.83 102.977 363.413 104.432 365.917 105.939L367.914 107.141L369.98 106.002C369.653 105.798 369.325 105.595 368.995 105.393C368.665 105.191 368.333 104.99 368.001 104.789C365.452 103.255 362.824 101.775 360.121 100.349C359.765 100.162 359.409 99.9752 359.051 99.7897C358.693 99.6041 358.334 99.4194 357.973 99.2357ZM373.48 108.253L371.288 109.311L373.144 110.587C375.453 112.174 377.68 113.811 379.82 115.497L381.526 116.841L383.834 115.868C383.557 115.641 383.277 115.415 382.997 115.19C382.716 114.964 382.433 114.74 382.149 114.516C379.971 112.801 377.705 111.134 375.355 109.519C375.045 109.306 374.735 109.094 374.422 108.883C374.11 108.672 373.796 108.462 373.48 108.253ZM386.791 118.365L384.376 119.248L385.924 120.653C387.849 122.401 389.686 124.193 391.428 126.03L392.813 127.491L395.324 126.701C395.1 126.455 394.875 126.21 394.648 125.966C394.42 125.721 394.191 125.477 393.96 125.234C392.187 123.365 390.319 121.541 388.36 119.763C388.102 119.529 387.842 119.295 387.581 119.062C387.319 118.829 387.056 118.597 386.791 118.365ZM397.685 129.395L395.09 130.089L396.308 131.598C397.068 132.54 397.805 133.493 398.517 134.455C399.23 135.418 399.912 136.384 400.566 137.352L401.612 138.903L404.279 138.307C404.113 138.047 403.944 137.787 403.773 137.528C403.603 137.269 403.43 137.01 403.256 136.751C402.591 135.766 401.897 134.784 401.172 133.804C400.448 132.825 399.698 131.856 398.925 130.898C398.722 130.646 398.517 130.395 398.31 130.145C398.104 129.894 397.895 129.644 397.685 129.395ZM406.018 141.154L403.289 141.649L404.159 143.235C405.253 145.232 406.226 147.236 407.08 149.246L407.768 150.862L410.547 150.471C410.44 150.201 410.332 149.931 410.221 149.66C410.111 149.391 409.998 149.121 409.884 148.851C409.014 146.807 408.024 144.767 406.911 142.736C406.766 142.472 406.619 142.208 406.47 141.944C406.321 141.68 406.171 141.417 406.018 141.154ZM411.627 153.429L408.809 153.713L409.31 155.352C409.939 157.408 410.446 159.467 410.835 161.526L411.147 163.18L413.992 163.003C413.948 162.727 413.902 162.451 413.854 162.175C413.806 161.899 413.756 161.623 413.704 161.348C413.309 159.253 412.792 157.158 412.152 155.065C412.069 154.792 411.983 154.519 411.896 154.246C411.808 153.974 411.719 153.701 411.627 153.429ZM414.386 166.016L411.528 166.083L411.65 167.746C411.803 169.83 411.835 171.91 411.75 173.983L411.682 175.646L414.542 175.687C414.562 175.411 414.579 175.133 414.595 174.856C414.611 174.579 414.624 174.302 414.635 174.025C414.722 171.915 414.689 169.798 414.533 167.677C414.513 167.4 414.491 167.123 414.466 166.846C414.442 166.57 414.415 166.293 414.386 166.016ZM414.246 178.702L411.396 178.552L411.138 180.209C410.815 182.284 410.374 184.349 409.817 186.4L409.371 188.043L412.198 188.3C412.281 188.027 412.361 187.753 412.439 187.48C412.518 187.206 412.594 186.933 412.668 186.659C413.235 184.572 413.684 182.471 414.012 180.36C414.055 180.084 414.096 179.808 414.135 179.531C414.174 179.255 414.211 178.979 414.246 178.702ZM411.219 191.267L408.427 190.904L407.796 192.527C407.006 194.557 406.101 196.571 405.085 198.564L404.271 200.16L407.017 200.627C407.16 200.362 407.302 200.097 407.441 199.832C407.581 199.567 407.719 199.301 407.854 199.035C408.888 197.007 409.808 194.959 410.612 192.893C410.717 192.622 410.82 192.352 410.922 192.081C411.023 191.81 411.122 191.538 411.219 191.267ZM405.377 203.495L402.689 202.926L401.697 204.487C400.457 206.44 399.106 208.368 397.648 210.27L396.482 211.791L399.1 212.459C399.302 212.208 399.502 211.956 399.7 211.703C399.898 211.451 400.094 211.198 400.288 210.944C401.772 209.009 403.146 207.047 404.408 205.061C404.573 204.801 404.736 204.54 404.898 204.279C405.059 204.018 405.219 203.756 405.377 203.495ZM396.827 215.18L394.29 214.415L392.955 215.889C391.287 217.73 389.514 219.541 387.638 221.319L386.139 222.739L388.584 223.597C388.841 223.363 389.096 223.128 389.349 222.893C389.603 222.657 389.854 222.421 390.104 222.184C392.013 220.376 393.817 218.534 395.514 216.66C395.736 216.415 395.957 216.169 396.176 215.922C396.395 215.675 396.612 215.428 396.827 215.18ZM385.717 226.124L383.374 225.176L381.717 226.537C379.649 228.236 377.482 229.898 375.218 231.521L373.41 232.816L375.641 233.851C375.948 233.638 376.255 233.424 376.559 233.21C376.864 232.995 377.167 232.78 377.468 232.564C379.772 230.913 381.977 229.222 384.081 227.494C384.357 227.267 384.631 227.039 384.904 226.811C385.177 226.583 385.448 226.354 385.717 226.124ZM372.227 236.139L370.119 235.023L368.167 236.247C365.734 237.774 363.208 239.258 360.591 240.697L358.504 241.845L360.481 243.039C360.835 242.851 361.187 242.662 361.537 242.473C361.888 242.283 362.237 242.093 362.585 241.901C365.248 240.437 367.818 238.927 370.294 237.373C370.619 237.169 370.943 236.964 371.265 236.759C371.588 236.553 371.908 236.346 372.227 236.139ZM356.574 245.05L354.738 243.784L352.525 244.849C349.77 246.176 346.929 247.456 344.003 248.685L341.673 249.665L343.361 250.998C343.755 250.839 344.147 250.678 344.537 250.517C344.928 250.355 345.318 250.193 345.706 250.03C348.683 248.779 351.574 247.477 354.377 246.127C354.746 245.949 355.114 245.77 355.48 245.591C355.846 245.411 356.211 245.231 356.574 245.05ZM339.028 252.697L337.495 251.303L335.058 252.192C332.027 253.298 328.918 254.353 325.731 255.355L323.198 256.15L324.57 257.599C324.997 257.47 325.422 257.341 325.846 257.21C326.27 257.079 326.693 256.948 327.115 256.815C330.357 255.797 333.521 254.723 336.604 253.598C337.011 253.45 337.416 253.301 337.819 253.15C338.224 253 338.627 252.849 339.028 252.697Z" fill="#43A2F9"/>
<g id="Ellipse 1220 (Stroke)" filter="url(#filter1_d_8338_16384)">
<path fill-rule="evenodd" clip-rule="evenodd" d="M108.425 232.669L110.032 231.958C114.544 235.335 119.488 238.583 124.864 241.678C130.239 244.772 135.882 247.619 141.749 250.216L140.513 251.141C134.577 248.513 128.868 245.633 123.43 242.503C117.993 239.373 112.991 236.086 108.425 232.669ZM179.773 264.206L180.548 263.128C194.51 266.453 209.08 268.673 223.855 269.786L223.592 270.943C208.643 269.817 193.901 267.571 179.773 264.206ZM268.948 270.943L268.685 269.786C283.46 268.673 298.03 266.453 311.992 263.128L312.767 264.206C298.639 267.571 283.897 269.817 268.948 270.943ZM352.027 251.141L350.791 250.216C356.658 247.619 362.301 244.772 367.676 241.678C373.052 238.583 377.996 235.335 382.509 231.958L384.115 232.669C379.549 236.086 374.547 239.373 369.11 242.503C363.672 245.633 357.963 248.513 352.027 251.141ZM406.81 210.068L404.937 209.622C410.713 201.585 414.569 193.197 416.504 184.692L418.514 184.843C416.557 193.449 412.655 201.935 406.81 210.068ZM418.514 158.733L416.504 158.885C414.569 150.379 410.713 141.991 404.937 133.954L406.81 133.508C412.655 141.641 416.557 150.128 418.514 158.733ZM384.115 110.907C379.549 107.49 374.547 104.204 369.11 101.073C363.672 97.9429 357.963 95.0634 352.027 92.4349L350.791 93.3599C356.658 95.9577 362.301 98.8038 367.676 101.898C373.052 104.993 377.996 108.241 382.509 111.618L384.115 110.907ZM312.767 79.3703L311.992 80.4486C298.03 77.1232 283.46 74.9035 268.685 73.79L268.948 72.6329C283.897 73.7595 298.639 76.0054 312.767 79.3703ZM223.592 72.6329L223.855 73.79C209.08 74.9035 194.51 77.1232 180.548 80.4486L179.773 79.3703C193.901 76.0054 208.644 73.7596 223.592 72.6329ZM140.513 92.4349L141.749 93.3599C135.882 95.9577 130.24 98.8039 124.864 101.898C119.488 104.993 114.544 108.241 110.032 111.618L108.425 110.907C112.991 107.49 117.993 104.204 123.43 101.073C128.868 97.9429 134.577 95.0635 140.513 92.4349ZM85.7301 133.508L87.6033 133.954C81.8266 141.991 77.9709 150.379 76.0364 158.885L74.0264 158.733C75.9836 150.128 79.8848 141.641 85.7301 133.508ZM74.0264 184.843L76.0364 184.692C77.9708 193.197 81.8266 201.585 87.6032 209.622L85.7301 210.068C79.8848 201.935 75.9836 193.449 74.0264 184.843Z" fill="#1462FB"/>
</g>
</g>
<g id="Frame 15506">
<g id="Union" style="mix-blend-mode:overlay" filter="url(#filter2_bii_8338_16384)">
<path fill-rule="evenodd" clip-rule="evenodd" d="M168.885 162.018L188.223 173.183L129.953 206.826L71.9364 173.33L91.36 162.116L110.795 173.337C104.974 149.566 117.958 124.429 149.716 106.094C196.721 78.9556 269.122 75.5632 322.246 95.8054L302.24 107.356C260.334 93.1421 205.182 96.4008 169.054 117.259C140.405 133.8 130.916 157.255 140.623 178.335L168.885 162.018ZM323.936 161.822L304.597 150.657L362.868 117.015L420.884 150.51L401.46 161.724L382.025 150.503C387.846 174.274 374.862 199.411 343.105 217.747C296.1 244.885 223.699 248.277 170.574 228.035L190.581 216.485C232.487 230.698 287.638 227.44 323.766 206.581C352.416 190.04 361.904 166.586 352.197 145.506L323.936 161.822Z" fill="white" fill-opacity="0.155"/>
</g>
<path id="Vector" d="M304.327 150.813L323.666 161.979L351.927 145.662C361.635 166.742 352.146 190.197 323.496 206.738C287.369 227.596 232.217 230.855 190.311 216.641L170.305 228.191C223.429 248.434 295.83 245.041 342.835 217.903C374.593 199.568 387.576 174.43 381.755 150.66L401.191 161.881L420.614 150.666L362.598 117.171L304.327 150.813Z" fill="#8A34FC"/>
<path id="Vector_2" d="M187.954 173.34L168.615 162.174L140.354 178.491C130.646 157.411 140.135 133.956 168.785 117.415C204.913 96.5571 260.064 93.2983 301.97 107.512L321.977 95.9616C268.852 75.7195 196.451 79.1119 149.446 106.25C117.688 124.585 104.705 149.723 110.526 173.493L91.0905 162.272L71.6669 173.487L129.683 206.982L187.954 173.34Z" fill="#F05133"/>
</g>
<g id="Frame 15508" style="mix-blend-mode:screen" opacity="0.3" filter="url(#filter3_f_8338_16384)">
<g id="Union_2" style="mix-blend-mode:overlay" filter="url(#filter4_bii_8338_16384)">
<path fill-rule="evenodd" clip-rule="evenodd" d="M168.885 162.018L188.223 173.183L129.953 206.826L71.9364 173.33L91.36 162.116L110.795 173.337C104.974 149.566 117.958 124.429 149.716 106.094C196.721 78.9556 269.122 75.5632 322.246 95.8054L302.24 107.356C260.334 93.1421 205.182 96.4008 169.054 117.259C140.405 133.8 130.916 157.255 140.623 178.335L168.885 162.018ZM323.936 161.822L304.597 150.657L362.868 117.015L420.884 150.51L401.46 161.724L382.025 150.503C387.846 174.274 374.862 199.411 343.105 217.747C296.1 244.885 223.699 248.277 170.574 228.035L190.581 216.485C232.487 230.698 287.638 227.44 323.766 206.581C352.416 190.04 361.904 166.586 352.197 145.506L323.936 161.822Z" fill="white" fill-opacity="0.155"/>
</g>
<path id="Vector_3" d="M304.327 150.813L323.666 161.979L351.927 145.662C361.635 166.742 352.146 190.197 323.496 206.738C287.369 227.596 232.217 230.855 190.311 216.641L170.305 228.191C223.429 248.434 295.83 245.041 342.835 217.903C374.593 199.568 387.576 174.43 381.755 150.66L401.191 161.881L420.614 150.666L362.598 117.171L304.327 150.813Z" fill="#8A34FC"/>
<path id="Vector_4" d="M187.954 173.34L168.615 162.174L140.354 178.491C130.646 157.411 140.135 133.956 168.785 117.415C204.913 96.5571 260.064 93.2983 301.97 107.512L321.977 95.9616C268.852 75.7195 196.451 79.1119 149.446 106.25C117.688 124.585 104.705 149.723 110.526 173.493L91.0905 162.272L71.6669 173.487L129.683 206.982L187.954 173.34Z" fill="#F05133"/>
</g>
<path id="Ellipse 1296" d="M205.464 108.206C205.464 121.596 186.502 132.45 163.113 132.45C139.723 132.45 120.762 121.596 120.762 108.206C120.762 94.8171 139.723 83.9629 163.113 83.9629C186.502 83.9629 205.464 94.8171 205.464 108.206Z" fill="#0B0115"/>
<path id="Ellipse 1296 (Stroke)" fill-rule="evenodd" clip-rule="evenodd" d="M192.524 124.414C200.027 120.118 204.386 114.348 204.386 108.206C204.386 102.065 200.027 96.2945 192.524 91.9992C185.051 87.7211 174.654 85.0408 163.113 85.0408C151.571 85.0408 141.175 87.7211 133.702 91.9992C126.198 96.2944 121.84 102.065 121.84 108.206C121.84 114.348 126.198 120.118 133.702 124.414C141.175 128.692 151.571 131.372 163.113 131.372C174.654 131.372 185.051 128.692 192.524 124.414ZM163.113 132.45C186.502 132.45 205.464 121.596 205.464 108.206C205.464 94.8171 186.502 83.9629 163.113 83.9629C139.723 83.9629 120.762 94.8171 120.762 108.206C120.762 121.596 139.723 132.45 163.113 132.45Z" fill="#F05133"/>
<g id="Frame 915">
<path id="Ellipse 1296_2" d="M375.768 211.416C375.768 224.806 356.807 235.66 333.417 235.66C310.028 235.66 291.066 224.806 291.066 211.416C291.066 198.027 310.028 187.173 333.417 187.173C356.807 187.173 375.768 198.027 375.768 211.416Z" fill="#0B0115"/>
<path id="Ellipse 1296 (Stroke)_2" fill-rule="evenodd" clip-rule="evenodd" d="M362.828 227.624C370.332 223.328 374.69 217.558 374.69 211.416C374.69 205.275 370.332 199.504 362.828 195.209C355.355 190.931 344.959 188.251 333.417 188.251C321.876 188.251 311.48 190.931 304.006 195.209C296.503 199.504 292.144 205.275 292.144 211.416C292.144 217.558 296.503 223.328 304.006 227.624C311.48 231.902 321.876 234.582 333.417 234.582C344.959 234.582 355.355 231.902 362.828 227.624ZM333.417 235.66C356.807 235.66 375.768 224.806 375.768 211.416C375.768 198.027 356.807 187.173 333.417 187.173C310.028 187.173 291.066 198.027 291.066 211.416C291.066 224.806 310.028 235.66 333.417 235.66Z" fill="#8A34FC"/>
<path id="Union_3" fill-rule="evenodd" clip-rule="evenodd" d="M332.878 230.435C353.042 230.435 369.388 221.078 369.388 209.535C369.388 209.535 369.388 209.534 369.388 209.534V192.762L354.663 192.762C348.582 190.169 341.043 188.635 332.878 188.635C324.713 188.635 317.173 190.169 311.092 192.762L296.367 192.762V209.534C296.367 209.534 296.367 209.535 296.367 209.535C296.367 221.078 312.714 230.435 332.878 230.435Z" fill="#131215"/>
<path id="Ellipse 1295" d="M369.388 191.474C369.388 203.017 353.042 212.375 332.878 212.375C312.714 212.375 296.367 203.017 296.367 191.474C296.367 179.932 312.714 170.574 332.878 170.574C353.042 170.574 369.388 179.932 369.388 191.474Z" fill="#27252A"/>
<g id="Ellipse 1297" filter="url(#filter5_f_8338_16384)">
<path d="M369.388 198.545C369.388 210.088 353.042 219.445 332.878 219.445C312.714 219.445 296.367 210.088 296.367 198.545C296.367 187.002 312.714 177.645 332.878 177.645C353.042 177.645 369.388 187.002 369.388 198.545Z" fill="#27252A"/>
</g>
<g id="Vector_5">
<path d="M327.425 188.813C327.425 187.994 328.575 187.33 329.993 187.33L335.824 187.33C337.242 187.33 338.392 187.993 338.392 188.812L338.392 192.179C338.392 192.998 337.242 193.662 335.823 193.662L329.992 193.662C328.574 193.662 327.424 192.998 327.424 192.179L327.425 188.813Z" fill="#A950FF"/>
<path d="M340.83 181.046C340.83 180.242 341.959 179.59 343.353 179.59L349.275 179.59C350.668 179.59 351.798 180.242 351.797 181.046L351.797 184.465C351.797 185.27 350.668 185.922 349.274 185.922L343.352 185.922C341.959 185.922 340.829 185.27 340.83 184.466L340.83 181.046Z" fill="#A950FF"/>
<path d="M314.021 181.048C314.021 180.243 315.15 179.591 316.544 179.591L322.466 179.591C323.859 179.591 324.988 180.243 324.988 181.047L324.988 184.467C324.988 185.271 323.858 185.923 322.465 185.923L316.543 185.923C315.15 185.923 314.02 185.271 314.021 184.467L314.021 181.048Z" fill="#E9C1FF"/>
<path d="M322.42 187.33C323.838 187.33 324.988 187.994 324.988 188.813L324.988 192.179C324.988 192.998 323.838 193.662 322.419 193.662L316.588 193.662C315.17 193.662 314.02 192.998 314.02 192.179L314.021 188.813C314.021 187.994 315.171 187.33 316.589 187.33L322.42 187.33Z" fill="#CD88FF"/>
<path d="M322.464 195.069C323.857 195.069 324.987 195.721 324.987 196.525L324.986 199.945C324.986 200.749 323.857 201.401 322.464 201.401L316.541 201.401C315.148 201.401 314.019 200.749 314.019 199.945L314.019 196.526C314.019 195.721 315.149 195.069 316.542 195.069L322.464 195.069Z" fill="#A950FF"/>
<path d="M335.825 179.59C337.244 179.59 338.393 180.254 338.393 181.073L338.393 184.44C338.393 185.258 337.243 185.922 335.824 185.922L329.994 185.923C328.575 185.923 327.425 185.259 327.425 184.44L327.426 181.074C327.426 180.255 328.576 179.591 329.994 179.591L335.825 179.59Z" fill="#CD88FF"/>
<path d="M346.937 195.282C350.106 195.282 352.675 196.765 352.675 198.595C352.674 200.424 350.105 201.908 346.936 201.908C343.767 201.908 341.198 200.425 341.199 198.595C341.199 196.766 343.768 195.282 346.937 195.282Z" fill="#F62E76"/>
</g>
</g>
<g id="Frame 15507">
<path id="Union_4" fill-rule="evenodd" clip-rule="evenodd" d="M162.772 126.766C182.937 126.766 199.283 117.409 199.283 105.866C199.283 105.866 199.283 105.865 199.283 105.865V89.0926L184.558 89.0926C178.477 86.5002 170.937 84.9658 162.772 84.9658C154.607 84.9658 147.068 86.5002 140.987 89.0926L126.262 89.0926V105.865C126.262 105.865 126.262 105.866 126.262 105.866C126.262 117.409 142.608 126.766 162.772 126.766Z" fill="#131215"/>
<path id="Ellipse 1295_2" d="M199.287 87.8056C199.287 99.3485 182.94 108.706 162.776 108.706C142.612 108.706 126.266 99.3485 126.266 87.8056C126.266 76.2626 142.612 66.9053 162.776 66.9053C182.94 66.9053 199.287 76.2626 199.287 87.8056Z" fill="#27252A"/>
<g id="folder" clip-path="url(#clip0_8338_16384)">
<path id="Vector_6" d="M145.604 79.0125L135.301 84.9607C133.395 86.0611 133.395 87.8257 135.301 88.9261L155.906 100.822C156.817 101.348 158.052 101.644 159.34 101.644C160.628 101.644 161.864 101.348 162.775 100.822L190.248 84.9607C191.158 84.4348 191.67 83.7216 191.67 82.9779C191.67 82.2343 191.158 81.5211 190.248 80.9952L173.077 71.0817C171.171 69.9813 168.097 69.9912 166.209 71.0817L152.472 79.0125L145.604 79.0125Z" fill="#F05133"/>
</g>
</g>
<g id="Clone">
<path id="Vector_7" d="M173.852 79.7595L158.994 79.7862C158.138 79.7877 157.442 80.1895 157.439 80.6838L157.43 82.4652L161.343 82.4582C161.646 82.1064 162.272 81.8637 162.997 81.8625C163.727 81.8613 164.354 82.1049 164.651 82.4589L168.423 82.452C168.724 82.097 169.353 81.8509 170.083 81.8499C171.101 81.8481 171.924 82.323 171.921 82.9113C171.918 83.4996 171.09 83.9775 170.071 83.9796C169.305 83.9807 168.648 83.7116 168.373 83.3275L164.854 83.3339L169.469 85.9982C169.655 85.9618 169.854 85.941 170.061 85.9406C171.079 85.9388 171.902 86.4138 171.899 87.0021C171.896 87.59 171.068 88.0683 170.05 88.07C169.031 88.0714 168.208 87.5964 168.211 87.0085C168.212 86.8632 168.263 86.724 168.356 86.5972L163.698 83.9081C163.479 83.9615 163.239 83.9914 162.986 83.9917C162.215 83.9932 161.557 83.721 161.283 83.3338L157.425 83.3405L157.393 89.2227C157.39 89.7171 158.082 90.1165 158.938 90.1149L173.797 90.0881C174.653 90.0866 175.349 89.6849 175.352 89.1905L175.397 80.6517C175.4 80.1575 174.708 79.7579 173.852 79.7595Z" fill="white"/>
</g>
<g id="Frame 15422">
<path id="Vector 99 (Stroke)" fill-rule="evenodd" clip-rule="evenodd" d="M195.363 163.327C195.357 162.64 195.718 162.003 196.31 161.655L246.19 132.316C246.794 131.961 247.544 131.963 248.146 132.321L297.435 161.66C298.022 162.009 298.379 162.644 298.373 163.327C298.367 164.01 297.999 164.638 297.406 164.977L248.116 193.143C247.529 193.478 246.808 193.48 246.219 193.148L196.339 164.982C195.741 164.644 195.369 164.013 195.363 163.327ZM247.164 191.476L197.283 163.31L247.164 133.971L296.453 163.31L247.164 191.476Z" fill="#0A91F3"/>
<g id="Frame 15414">
<path id="Vector 96" d="M248.181 157.183L198.301 129.017L248.181 99.6777L297.471 129.017L248.181 157.183Z" fill="#31A7FF"/>
<path id="Vector 98" d="M247.938 157.045V185.543L198.617 158.656V128.837L247.938 157.045Z" fill="#3075FC"/>
<path id="Vector 97" d="M247.84 156.645V185.343L297.57 156.645V128.896L247.84 156.645Z" fill="#0543BD"/>
<g id="cloud-download" clip-path="url(#clip1_8338_16384)">
<path id="Vector_8" d="M252.437 142.455C249.702 144.034 246.428 144.837 242.613 144.865C238.787 144.885 235.513 144.11 232.79 142.538C230.451 141.187 229.066 139.577 228.634 137.708C228.214 135.831 228.892 134.089 230.667 132.483C228.94 130.682 228.184 128.764 228.4 126.728C228.628 124.699 229.791 122.871 231.89 121.243L246.41 129.626L240.742 129.678L240.742 132.587H255.136V124.276L250.098 124.276L250.008 127.549L235.489 119.166C239.003 117.621 242.961 116.936 247.363 117.109C251.765 117.282 255.556 118.286 258.734 120.121C261.049 119.062 263.664 118.591 266.579 118.709C269.481 118.806 271.964 119.45 274.027 120.641C276.282 121.943 277.41 123.501 277.41 125.315C277.41 127.13 276.282 128.688 274.027 129.99L252.437 142.455Z" fill="white"/>
</g>
<g id="Ellipse 1304" style="mix-blend-mode:overlay" filter="url(#filter6_f_8338_16384)">
<path d="M302.8 133.594C302.8 150.214 289.326 163.687 272.706 163.687C256.086 163.687 242.613 150.214 242.613 133.594C242.613 116.974 256.086 103.501 272.706 103.501C289.326 103.501 302.8 116.974 302.8 133.594Z" fill="white" style="mix-blend-mode:lighten"/>
</g>
</g>
</g>
<g id="Ellipse 1303" filter="url(#filter7_f_8338_16384)">
<path d="M161.96 89.7435C161.96 106.363 148.487 119.837 131.867 119.837C115.247 119.837 101.773 106.363 101.773 89.7435C101.773 73.1235 115.247 59.6504 131.867 59.6504C148.487 59.6504 161.96 73.1235 161.96 89.7435Z" fill="#F08726" fill-opacity="0.48" style="mix-blend-mode:lighten"/>
</g>
<g id="Ellipse 1304_2" filter="url(#filter8_f_8338_16384)">
<path d="M375.764 188.634C375.764 205.254 362.291 218.727 345.671 218.727C329.051 218.727 315.578 205.254 315.578 188.634C315.578 172.014 329.051 158.541 345.671 158.541C362.291 158.541 375.764 172.014 375.764 188.634Z" fill="#B238EB" fill-opacity="0.21" style="mix-blend-mode:lighten"/>
</g>
</g>
<defs>
<filter id="filter0_f_8338_16384" x="49.4383" y="53.4422" width="163.323" height="163.132" filterUnits="userSpaceOnUse" color-interpolation-filters="sRGB">
<feFlood flood-opacity="0" result="BackgroundImageFix"/>
<feBlend mode="normal" in="SourceGraphic" in2="BackgroundImageFix" result="shape"/>
<feGaussianBlur stdDeviation="24.5933" result="effect1_foregroundBlur_8338_16384"/>
</filter>
<filter id="filter1_d_8338_16384" x="69.0655" y="72.6328" width="354.412" height="208.234" filterUnits="userSpaceOnUse" color-interpolation-filters="sRGB">
<feFlood flood-opacity="0" result="BackgroundImageFix"/>
<feColorMatrix in="SourceAlpha" type="matrix" values="0 0 0 0 0 0 0 0 0 0 0 0 0 0 0 0 0 0 127 0" result="hardAlpha"/>
<feOffset dy="4.96187"/>
<feGaussianBlur stdDeviation="2.48093"/>
<feComposite in2="hardAlpha" operator="out"/>
<feColorMatrix type="matrix" values="0 0 0 0 0.432266 0 0 0 0 0.00354165 0 0 0 0 0.846458 0 0 0 1 0"/>
<feBlend mode="screen" in2="BackgroundImageFix" result="effect1_dropShadow_8338_16384"/>
<feBlend mode="normal" in="SourceGraphic" in2="effect1_dropShadow_8338_16384" result="shape"/>
</filter>
<filter id="filter2_bii_8338_16384" x="46.6225" y="57.4965" width="399.575" height="208.848" filterUnits="userSpaceOnUse" color-interpolation-filters="sRGB">
<feFlood flood-opacity="0" result="BackgroundImageFix"/>
<feGaussianBlur in="BackgroundImageFix" stdDeviation="12.6575"/>
<feComposite in2="SourceAlpha" operator="in" result="effect1_backgroundBlur_8338_16384"/>
<feBlend mode="normal" in="SourceGraphic" in2="effect1_backgroundBlur_8338_16384" result="shape"/>
<feColorMatrix in="SourceAlpha" type="matrix" values="0 0 0 0 0 0 0 0 0 0 0 0 0 0 0 0 0 0 127 0" result="hardAlpha"/>
<feOffset dx="-6.84189" dy="6.84189"/>
<feGaussianBlur stdDeviation="3.42094"/>
<feComposite in2="hardAlpha" operator="arithmetic" k2="-1" k3="1"/>
<feColorMatrix type="matrix" values="0 0 0 0 1 0 0 0 0 1 0 0 0 0 1 0 0 0 0.155 0"/>
<feBlend mode="normal" in2="shape" result="effect2_innerShadow_8338_16384"/>
<feColorMatrix in="SourceAlpha" type="matrix" values="0 0 0 0 0 0 0 0 0 0 0 0 0 0 0 0 0 0 127 0" result="hardAlpha"/>
<feOffset dx="6.84189" dy="-6.84189"/>
<feGaussianBlur stdDeviation="3.42094"/>
<feComposite in2="hardAlpha" operator="arithmetic" k2="-1" k3="1"/>
<feColorMatrix type="matrix" values="0 0 0 0 0.76 0 0 0 0 0.76 0 0 0 0 0.76 0 0 0 0.155 0"/>
<feBlend mode="normal" in2="effect2_innerShadow_8338_16384" result="effect3_innerShadow_8338_16384"/>
</filter>
<filter id="filter3_f_8338_16384" x="35.0812" y="32.7765" width="422.388" height="258.444" filterUnits="userSpaceOnUse" color-interpolation-filters="sRGB">
<feFlood flood-opacity="0" result="BackgroundImageFix"/>
<feBlend mode="normal" in="SourceGraphic" in2="BackgroundImageFix" result="shape"/>
<feGaussianBlur stdDeviation="8.62348" result="effect1_foregroundBlur_8338_16384"/>
</filter>
<filter id="filter4_bii_8338_16384" x="46.6225" y="57.4965" width="399.575" height="208.848" filterUnits="userSpaceOnUse" color-interpolation-filters="sRGB">
<feFlood flood-opacity="0" result="BackgroundImageFix"/>
<feGaussianBlur in="BackgroundImageFix" stdDeviation="12.6575"/>
<feComposite in2="SourceAlpha" operator="in" result="effect1_backgroundBlur_8338_16384"/>
<feBlend mode="normal" in="SourceGraphic" in2="effect1_backgroundBlur_8338_16384" result="shape"/>
<feColorMatrix in="SourceAlpha" type="matrix" values="0 0 0 0 0 0 0 0 0 0 0 0 0 0 0 0 0 0 127 0" result="hardAlpha"/>
<feOffset dx="-6.84189" dy="6.84189"/>
<feGaussianBlur stdDeviation="3.42094"/>
<feComposite in2="hardAlpha" operator="arithmetic" k2="-1" k3="1"/>
<feColorMatrix type="matrix" values="0 0 0 0 1 0 0 0 0 1 0 0 0 0 1 0 0 0 0.155 0"/>
<feBlend mode="normal" in2="shape" result="effect2_innerShadow_8338_16384"/>
<feColorMatrix in="SourceAlpha" type="matrix" values="0 0 0 0 0 0 0 0 0 0 0 0 0 0 0 0 0 0 127 0" result="hardAlpha"/>
<feOffset dx="6.84189" dy="-6.84189"/>
<feGaussianBlur stdDeviation="3.42094"/>
<feComposite in2="hardAlpha" operator="arithmetic" k2="-1" k3="1"/>
<feColorMatrix type="matrix" values="0 0 0 0 0.76 0 0 0 0 0.76 0 0 0 0 0.76 0 0 0 0.155 0"/>
<feBlend mode="normal" in2="effect2_innerShadow_8338_16384" result="effect3_innerShadow_8338_16384"/>
</filter>
<filter id="filter5_f_8338_16384" x="283.432" y="164.709" width="98.89" height="67.6712" filterUnits="userSpaceOnUse" color-interpolation-filters="sRGB">
<feFlood flood-opacity="0" result="BackgroundImageFix"/>
<feBlend mode="normal" in="SourceGraphic" in2="BackgroundImageFix" result="shape"/>
<feGaussianBlur stdDeviation="6.46761" result="effect1_foregroundBlur_8338_16384"/>
</filter>
<filter id="filter6_f_8338_16384" x="183.096" y="43.9841" width="179.221" height="179.22" filterUnits="userSpaceOnUse" color-interpolation-filters="sRGB">
<feFlood flood-opacity="0" result="BackgroundImageFix"/>
<feBlend mode="normal" in="SourceGraphic" in2="BackgroundImageFix" result="shape"/>
<feGaussianBlur stdDeviation="29.7585" result="effect1_foregroundBlur_8338_16384"/>
</filter>
<filter id="filter7_f_8338_16384" x="42.2565" y="0.13348" width="179.221" height="179.22" filterUnits="userSpaceOnUse" color-interpolation-filters="sRGB">
<feFlood flood-opacity="0" result="BackgroundImageFix"/>
<feBlend mode="normal" in="SourceGraphic" in2="BackgroundImageFix" result="shape"/>
<feGaussianBlur stdDeviation="29.7585" result="effect1_foregroundBlur_8338_16384"/>
</filter>
<filter id="filter8_f_8338_16384" x="256.061" y="99.0241" width="179.221" height="179.22" filterUnits="userSpaceOnUse" color-interpolation-filters="sRGB">
<feFlood flood-opacity="0" result="BackgroundImageFix"/>
<feBlend mode="normal" in="SourceGraphic" in2="BackgroundImageFix" result="shape"/>
<feGaussianBlur stdDeviation="29.7585" result="effect1_foregroundBlur_8338_16384"/>
</filter>
<linearGradient id="paint0_linear_8338_16384" x1="25.3887" y1="120.599" x2="58.0704" y2="254.094" gradientUnits="userSpaceOnUse">
<stop offset="0.03125" stop-color="#E151F7"/>
<stop offset="0.96875" stop-color="#5C47F5"/>
</linearGradient>
<clipPath id="clip0_8338_16384">
<rect width="47.5849" height="47.5849" fill="white" transform="matrix(0.866025 -0.5 0.866025 0.5 121.566 84.96)"/>
</clipPath>
<clipPath id="clip1_8338_16384">
<rect width="49.8604" height="49.8604" fill="white" transform="matrix(0.866025 -0.5 0.866025 0.5 204.758 128.431)"/>
</clipPath>
</defs>
</svg>
