<svg width="453" height="336" viewBox="0 0 453 336" fill="none" xmlns="http://www.w3.org/2000/svg">
<circle cx="226.163" cy="167.285" r="61.8312" fill="black" stroke="white" stroke-width="0.797474" stroke-dasharray="1.59 1.59"/>
<g filter="url(#filter0_b_52_4845)">
<rect x="44.147" y="139.318" width="73.6013" height="57.3086" rx="6.37979" fill="#111113"/>
<rect x="44.5128" y="139.684" width="72.8697" height="56.577" rx="6.014" stroke="#3D3D3F" stroke-width="0.731592" stroke-dasharray="1.46 1.46"/>
</g>
<path d="M63.8762 159.998H59.0913V155.213H55.5027V169.567H59.0913V163.586H63.8762V169.567H67.4648V155.213H63.8762V159.998ZM69.8572 158.802H73.4459V169.567H77.0345V158.802H80.6231V155.213H69.8572V158.802ZM83.0155 158.802H86.6042V169.567H90.1928V158.802H93.7815V155.213H83.0155V158.802ZM104.547 155.213H96.1739V169.567H99.7625V164.783H104.547C106.461 164.783 108.136 163.108 108.136 161.194V158.802C108.136 156.888 106.461 155.213 104.547 155.213ZM104.547 161.194H99.7625V158.802H104.547V161.194Z" fill="#E1E1E1"/>
<path d="M61.8604 182.567H60.9002L59.3363 178.882H56.9501V182.567H56.0531V174.253H59.1925C59.7752 174.253 60.2639 174.341 60.6587 174.518C61.0574 174.69 61.3563 174.941 61.5557 175.271C61.7588 175.601 61.8604 175.999 61.8604 176.467C61.8604 176.919 61.7761 177.297 61.6074 177.6C61.4426 177.899 61.2337 178.138 60.9807 178.318C60.7277 178.495 60.467 178.627 60.1987 178.715L61.8604 182.567ZM58.836 178.111C59.5107 178.111 60.0281 177.983 60.3885 177.726C60.7526 177.465 60.9347 177.067 60.9347 176.53C60.9347 176.013 60.7756 175.631 60.4575 175.386C60.1393 175.137 59.6947 175.012 59.1235 175.012H56.9501V178.111H58.836ZM63.7682 182.567V174.253H68.8797V175.058H64.6651V177.968H68.4945V178.773H64.6651V181.739L69.0062 181.745V182.567H63.7682ZM70.3484 178.428C70.3484 177.508 70.4921 176.729 70.7796 176.093C71.0709 175.453 71.4811 174.968 72.0101 174.638C72.539 174.305 73.1677 174.138 73.896 174.138C74.6243 174.138 75.2529 174.305 75.7819 174.638C76.3109 174.968 76.7172 175.453 77.0009 176.093C77.2845 176.729 77.4264 177.508 77.4264 178.428C77.4264 179.309 77.2941 180.064 77.0296 180.693C76.769 181.322 76.3396 181.818 75.7417 182.182C75.895 182.516 76.1154 182.759 76.4029 182.912C76.6904 183.07 77.0066 183.156 77.3516 183.171V183.953C77.1063 183.953 76.8341 183.919 76.5351 183.85C76.24 183.781 75.9487 183.646 75.6612 183.447C75.3737 183.252 75.1149 182.96 74.8849 182.573C74.6971 182.608 74.5246 182.634 74.3675 182.654C74.2103 182.673 74.0531 182.682 73.896 182.682C73.1753 182.682 72.5486 182.521 72.0158 182.199C71.4868 181.874 71.0767 181.394 70.7853 180.762C70.494 180.129 70.3484 179.351 70.3484 178.428ZM71.3431 178.451C71.3431 179.627 71.5654 180.494 72.0101 181.049C72.4547 181.601 73.0833 181.877 73.896 181.877C74.7086 181.877 75.3373 181.6 75.7819 181.044C76.2266 180.488 76.4489 179.618 76.4489 178.433C76.4489 177.264 76.2285 176.39 75.7877 175.811C75.3507 175.229 74.7201 174.937 73.896 174.937C73.0718 174.937 72.4394 175.229 71.9986 175.811C71.5616 176.394 71.3431 177.274 71.3431 178.451ZM85.1093 179.773C85.1093 180.402 85.0039 180.933 84.7931 181.366C84.5861 181.799 84.2641 182.127 83.8271 182.349C83.3901 182.571 82.8286 182.682 82.1424 182.682C81.4486 182.682 80.8832 182.569 80.4462 182.343C80.0131 182.113 79.6949 181.772 79.4918 181.32C79.2886 180.867 79.187 180.31 79.187 179.646V174.253H80.1243V179.813C80.1243 180.503 80.2948 181.021 80.636 181.366C80.981 181.711 81.4831 181.883 82.1424 181.883C82.5871 181.883 82.9627 181.808 83.2694 181.659C83.5761 181.506 83.808 181.276 83.9651 180.969C84.1261 180.662 84.2066 180.277 84.2066 179.813V174.253H85.1093V179.773ZM87.1716 182.567V174.253H92.2832V175.058H88.0686V177.968H91.8979V178.773H88.0686V181.739L92.4097 181.745V182.567H87.1716ZM97.0454 182.682C96.6582 182.682 96.2845 182.634 95.9241 182.539C95.5677 182.439 95.2418 182.293 94.9467 182.102C94.6554 181.91 94.4139 181.674 94.2222 181.394C94.0305 181.111 93.906 180.781 93.8485 180.405H94.7972C94.8738 180.739 95.0195 181.019 95.2342 181.245C95.4488 181.467 95.7133 181.636 96.0276 181.751C96.342 181.862 96.6793 181.918 97.0396 181.918C97.4536 181.918 97.8216 181.858 98.1436 181.739C98.4655 181.621 98.7185 181.452 98.9025 181.233C99.0904 181.015 99.1843 180.76 99.1843 180.469C99.1843 180.204 99.1287 179.974 99.0175 179.779C98.9064 179.583 98.7435 179.42 98.5288 179.29C98.3141 179.156 98.0477 179.05 97.7296 178.974L96.0506 178.571C95.4412 178.433 94.9639 178.198 94.6189 177.864C94.2778 177.527 94.1053 177.084 94.1015 176.536C94.1015 176.068 94.2241 175.656 94.4694 175.3C94.7186 174.939 95.0598 174.658 95.4929 174.454C95.9299 174.251 96.432 174.15 96.9994 174.15C97.6548 174.15 98.2011 174.263 98.638 174.489C99.0789 174.715 99.4123 175.01 99.6385 175.374C99.8647 175.739 99.9777 176.124 99.9777 176.53H99.0405C99.006 176.131 98.8891 175.815 98.6898 175.581C98.4905 175.348 98.2432 175.181 97.9481 175.081C97.6567 174.981 97.3405 174.932 96.9994 174.932C96.7617 174.932 96.526 174.964 96.2921 175.029C96.0621 175.091 95.8532 175.185 95.6654 175.311C95.4776 175.438 95.3281 175.597 95.2169 175.788C95.1058 175.98 95.0502 176.204 95.0502 176.461C95.0502 176.775 95.1575 177.032 95.3722 177.232C95.5907 177.427 95.9816 177.598 96.5451 177.743L98.1723 178.14C98.5633 178.228 98.8834 178.355 99.1325 178.52C99.3855 178.684 99.5829 178.874 99.7248 179.089C99.8666 179.3 99.9643 179.522 100.018 179.756C100.075 179.99 100.104 180.221 100.104 180.451C100.104 180.862 99.9854 181.235 99.7478 181.573C99.5101 181.91 99.1632 182.18 98.707 182.383C98.2509 182.583 97.697 182.682 97.0454 182.682ZM100.886 175.087V174.253H107.078V175.087H104.514V182.567H103.611V175.087H100.886Z" fill="#8B8B8D"/>
<g filter="url(#filter1_d_52_4845)">
<rect x="334.577" y="139.264" width="65.1377" height="56.5991" rx="6.37979" fill="black"/>
<rect x="334.976" y="139.662" width="64.3402" height="55.8017" rx="5.98106" stroke="#B8B6D9" stroke-opacity="0.2" stroke-width="0.797474"/>
</g>
<g filter="url(#filter2_d_52_4845)">
<path d="M223.342 158.687C224.899 157.119 227.424 157.119 228.982 158.687L235.384 165.133C236.941 166.701 236.941 169.244 235.384 170.812L228.982 177.259C227.424 178.827 224.899 178.827 223.342 177.259L216.94 170.812C215.383 169.244 215.383 166.701 216.94 165.133L223.342 158.687Z" fill="#A950FF"/>
<path d="M252.828 158.636C254.357 157.095 256.837 157.095 258.367 158.636L264.869 165.183C266.399 166.724 266.399 169.221 264.869 170.761L258.367 177.309C256.837 178.849 254.357 178.849 252.828 177.309L246.325 170.761C244.796 169.221 244.796 166.724 246.325 165.183L252.828 158.636Z" fill="#A950FF"/>
<path d="M223.393 128.997C224.922 127.457 227.402 127.457 228.931 128.997L235.434 135.545C236.964 137.085 236.964 139.582 235.434 141.122L228.931 147.67C227.402 149.21 224.922 149.21 223.393 147.67L216.89 141.122C215.36 139.582 215.36 137.085 216.89 135.545L223.393 128.997Z" fill="#E9C1FF"/>
<path d="M220.668 150.314C222.225 151.882 222.225 154.425 220.668 155.993L214.266 162.439C212.708 164.007 210.183 164.007 208.626 162.439L202.224 155.993C200.667 154.425 200.667 151.882 202.224 150.314L208.626 143.868C210.183 142.299 212.708 142.299 214.266 143.868L220.668 150.314Z" fill="#CD88FF"/>
<path d="M206 165.183C207.529 166.724 207.529 169.221 206 170.761L199.497 177.309C197.968 178.849 195.488 178.849 193.958 177.309L187.455 170.761C185.926 169.221 185.926 166.724 187.455 165.183L193.958 158.636C195.488 157.095 197.968 157.095 199.497 158.636L206 165.183Z" fill="#A950FF"/>
<path d="M250.102 150.314C251.659 151.882 251.659 154.425 250.102 155.993L243.7 162.439C242.142 164.007 239.617 164.007 238.06 162.439L231.658 155.993C230.101 154.425 230.101 151.882 231.658 150.314L238.06 143.868C239.617 142.299 242.142 142.299 243.7 143.868L250.102 150.314Z" fill="#CD88FF"/>
<path d="M232.462 192.65C235.942 196.153 235.942 201.833 232.462 205.337C228.983 208.84 223.342 208.84 219.863 205.337C216.383 201.833 216.383 196.153 219.863 192.65C223.342 189.146 228.983 189.146 232.462 192.65Z" fill="#F62E76"/>
</g>
<path d="M295.364 174.202C294.965 178.695 294.128 183.199 292.828 187.657L292.563 187.578C291.932 189.742 291.192 191.894 290.339 194.03C289.487 196.165 288.542 198.234 287.511 200.235L287.756 200.363C285.631 204.486 283.14 208.319 280.342 211.838L280.126 211.664C277.271 215.253 274.095 218.513 270.659 221.419L270.837 221.631C267.341 224.586 263.577 227.176 259.608 229.372L259.474 229.129C255.501 231.327 251.322 233.13 247.002 234.509L247.087 234.773C242.761 236.154 238.293 237.113 233.749 237.62L233.717 237.344C229.241 237.844 224.69 237.905 220.126 237.501L220.103 237.777C215.623 237.38 211.131 236.536 206.684 235.22L206.761 234.954C204.603 234.315 202.456 233.565 200.326 232.7C198.196 231.836 196.132 230.876 194.137 229.828L194.01 230.074C189.899 227.916 186.08 225.385 182.577 222.541L182.75 222.326C179.181 219.428 175.942 216.204 173.057 212.716L172.845 212.893C169.917 209.351 167.354 205.539 165.183 201.519L165.426 201.388C163.258 197.375 161.483 193.155 160.129 188.794L159.865 188.875C158.512 184.518 157.576 180.021 157.086 175.447L157.36 175.418C156.878 170.922 156.828 166.352 157.235 161.769L156.96 161.743C157.359 157.251 158.197 152.747 159.497 148.288L159.762 148.367C160.392 146.204 161.133 144.051 161.985 141.916C162.837 139.781 163.782 137.712 164.814 135.711L164.568 135.583C166.694 131.459 169.184 127.626 171.982 124.108L172.199 124.282C175.053 120.693 178.229 117.432 181.666 114.527L181.487 114.315C184.983 111.359 188.748 108.77 192.717 106.574L192.851 106.817C196.824 104.619 201.002 102.816 205.322 101.437L205.237 101.173C209.564 99.7914 214.031 98.8332 218.576 98.3256L218.607 98.6013C223.083 98.1013 227.634 98.0404 232.198 98.445L232.221 98.1687C236.701 98.5659 241.194 99.4099 245.64 100.726L245.563 100.992C247.721 101.63 249.869 102.381 251.999 103.245C254.129 104.11 256.192 105.07 258.187 106.117L258.315 105.872C262.425 108.03 266.244 110.561 269.747 113.405L269.574 113.62C273.143 116.517 276.383 119.741 279.267 123.23L279.479 123.053C282.407 126.595 284.97 130.407 287.141 134.426L286.898 134.558C289.066 138.571 290.841 142.791 292.195 147.152L292.459 147.07C293.812 151.427 294.748 155.925 295.238 160.499L294.964 160.527C295.446 165.024 295.496 169.594 295.089 174.177L295.364 174.202Z" stroke="url(#paint0_linear_52_4845)" stroke-width="0.553526" stroke-linejoin="round" stroke-dasharray="13.28 13.28"/>
<g filter="url(#filter3_d_52_4845)">
<path d="M247.751 217.013C243.496 218.8 238.963 220.048 234.236 220.673L234.2 220.398C231.919 220.7 229.593 220.855 227.23 220.855C224.868 220.855 222.541 220.7 220.261 220.398L220.224 220.673C215.497 220.048 210.964 218.8 206.709 217.013L206.817 216.758C202.491 214.941 198.454 212.564 194.795 209.716L194.625 209.935C190.931 207.059 187.621 203.707 184.785 199.969L185.005 199.802C182.209 196.116 179.876 192.053 178.094 187.703L177.838 187.808C176.092 183.542 174.873 179.002 174.264 174.268L174.538 174.232C174.244 171.951 174.093 169.624 174.093 167.261C174.093 164.898 174.244 162.571 174.538 160.29L174.264 160.254C174.873 155.52 176.092 150.98 177.838 146.714L178.094 146.819C179.876 142.469 182.209 138.406 185.005 134.72L184.785 134.553C187.621 130.815 190.931 127.463 194.625 124.587L194.795 124.806C198.454 121.958 202.491 119.581 206.817 117.764L206.709 117.509C210.964 115.722 215.497 114.474 220.224 113.849L220.261 114.124C222.541 113.822 224.868 113.667 227.23 113.667C229.593 113.667 231.919 113.822 234.2 114.124L234.236 113.849C238.963 114.474 243.496 115.722 247.751 117.509L247.644 117.764C251.97 119.581 256.006 121.958 259.665 124.806L259.835 124.587C263.529 127.463 266.84 130.815 269.676 134.553L269.455 134.72C272.252 138.406 274.585 142.469 276.366 146.819L276.622 146.714C278.368 150.98 279.587 155.52 280.197 160.254L279.922 160.29C280.216 162.571 280.368 164.898 280.368 167.261C280.368 169.624 280.216 171.951 279.922 174.232L280.197 174.268C279.587 179.002 278.368 183.542 276.622 187.808L276.366 187.703C274.585 192.053 272.252 196.116 269.455 199.802L269.676 199.969C266.84 203.707 263.529 207.059 259.835 209.935L259.665 209.716C256.006 212.564 251.97 214.941 247.644 216.758L247.751 217.013Z" stroke="#5F00E8" stroke-width="0.553526" stroke-linejoin="round" stroke-dasharray="13.28 13.28" shape-rendering="crispEdges"/>
</g>
<path d="M164.215 168.255C164.37 168.099 164.37 167.846 164.215 167.691L161.677 165.153C161.521 164.997 161.269 164.997 161.113 165.153C160.957 165.309 160.957 165.561 161.113 165.717L163.369 167.973L161.113 170.228C160.957 170.384 160.957 170.636 161.113 170.792C161.269 170.948 161.521 170.948 161.677 170.792L164.215 168.255ZM117.748 165.846C116.574 165.846 115.622 166.798 115.622 167.973C115.622 169.147 116.574 170.099 117.748 170.099C118.923 170.099 119.875 169.147 119.875 167.973C119.875 166.798 118.923 165.846 117.748 165.846ZM163.933 167.574L163.108 167.574L163.108 168.371L163.933 168.371L163.933 167.574ZM161.458 167.574L159.809 167.574L159.809 168.371L161.458 168.371L161.458 167.574ZM158.16 167.574L156.51 167.574L156.51 168.371L158.16 168.371L158.16 167.574ZM154.861 167.574L153.211 167.574L153.211 168.371L154.861 168.371L154.861 167.574ZM151.562 167.574L149.912 167.574L149.912 168.371L151.562 168.371L151.562 167.574ZM148.263 167.574L146.614 167.574L146.614 168.371L148.263 168.371L148.263 167.574ZM144.964 167.574L143.315 167.574L143.315 168.371L144.964 168.371L144.964 167.574ZM141.665 167.574L140.016 167.574L140.016 168.371L141.665 168.371L141.665 167.574ZM138.366 167.574L136.717 167.574L136.717 168.371L138.366 168.371L138.366 167.574ZM135.067 167.574L133.418 167.574L133.418 168.371L135.067 168.371L135.067 167.574ZM131.769 167.574L130.119 167.574L130.119 168.371L131.769 168.371L131.769 167.574ZM128.47 167.574L126.82 167.574L126.82 168.371L128.47 168.371L128.47 167.574ZM125.171 167.574L123.521 167.574L123.521 168.371L125.171 168.371L125.171 167.574ZM121.872 167.574L120.223 167.574L120.223 168.371L121.872 168.371L121.872 167.574ZM118.573 167.574L117.748 167.574L117.748 168.371L118.573 168.371L118.573 167.574Z" fill="#9F9DFF"/>
<path d="M334.859 168.255C335.015 168.099 335.015 167.846 334.859 167.691L332.321 165.153C332.166 164.997 331.913 164.997 331.757 165.153C331.602 165.309 331.602 165.561 331.757 165.717L334.013 167.973L331.757 170.228C331.602 170.384 331.602 170.636 331.757 170.792C331.913 170.948 332.166 170.948 332.321 170.792L334.859 168.255ZM288.393 165.846C287.218 165.846 286.266 166.798 286.266 167.973C286.266 169.147 287.218 170.099 288.393 170.099C289.567 170.099 290.519 169.147 290.519 167.973C290.519 166.798 289.567 165.846 288.393 165.846ZM334.577 167.574L333.752 167.574L333.752 168.371L334.577 168.371L334.577 167.574ZM332.103 167.574L330.453 167.574L330.453 168.371L332.103 168.371L332.103 167.574ZM328.804 167.574L327.154 167.574L327.154 168.371L328.804 168.371L328.804 167.574ZM325.505 167.574L323.856 167.574L323.856 168.371L325.505 168.371L325.505 167.574ZM322.206 167.574L320.557 167.574L320.557 168.371L322.206 168.371L322.206 167.574ZM318.907 167.574L317.258 167.574L317.258 168.371L318.907 168.371L318.907 167.574ZM315.608 167.574L313.959 167.574L313.959 168.371L315.608 168.371L315.608 167.574ZM312.31 167.574L310.66 167.574L310.66 168.371L312.31 168.371L312.31 167.574ZM309.011 167.574L307.361 167.574L307.361 168.371L309.011 168.371L309.011 167.574ZM305.712 167.574L304.062 167.574L304.062 168.371L305.712 168.371L305.712 167.574ZM302.413 167.574L300.763 167.574L300.763 168.371L302.413 168.371L302.413 167.574ZM299.114 167.574L297.465 167.574L297.465 168.371L299.114 168.371L299.114 167.574ZM295.815 167.574L294.166 167.574L294.166 168.371L295.815 168.371L295.815 167.574ZM292.516 167.574L290.867 167.574L290.867 168.371L292.516 168.371L292.516 167.574ZM289.217 167.574L288.393 167.574L288.393 168.371L289.217 168.371L289.217 167.574Z" fill="#9F9DFF"/>
<g filter="url(#filter4_d_52_4845)">
<path d="M365.281 182.228H363.653L365.281 170.83H359.582C358.15 170.83 359.045 169.609 359.078 169.56C361.178 165.848 364.337 160.312 368.554 152.92H370.182L368.554 164.318H374.268C374.92 164.318 375.278 164.627 374.92 165.392C368.488 176.61 365.281 182.228 365.281 182.228Z" fill="#FCE07C"/>
</g>
<defs>
<filter id="filter0_b_52_4845" x="39.0258" y="134.197" width="83.8436" height="67.5509" filterUnits="userSpaceOnUse" color-interpolation-filters="sRGB">
<feFlood flood-opacity="0" result="BackgroundImageFix"/>
<feGaussianBlur in="BackgroundImageFix" stdDeviation="2.56057"/>
<feComposite in2="SourceAlpha" operator="in" result="effect1_backgroundBlur_52_4845"/>
<feBlend mode="normal" in="SourceGraphic" in2="effect1_backgroundBlur_52_4845" result="shape"/>
</filter>
<filter id="filter1_d_52_4845" x="315.438" y="139.264" width="103.416" height="94.8779" filterUnits="userSpaceOnUse" color-interpolation-filters="sRGB">
<feFlood flood-opacity="0" result="BackgroundImageFix"/>
<feColorMatrix in="SourceAlpha" type="matrix" values="0 0 0 0 0 0 0 0 0 0 0 0 0 0 0 0 0 0 127 0" result="hardAlpha"/>
<feOffset dy="19.1394"/>
<feGaussianBlur stdDeviation="9.56969"/>
<feComposite in2="hardAlpha" operator="out"/>
<feColorMatrix type="matrix" values="0 0 0 0 0.352941 0 0 0 0 0.184314 0 0 0 0 0.835294 0 0 0 0.22 0"/>
<feBlend mode="normal" in2="BackgroundImageFix" result="effect1_dropShadow_52_4845"/>
<feBlend mode="normal" in="SourceGraphic" in2="effect1_dropShadow_52_4845" result="shape"/>
</filter>
<filter id="filter2_d_52_4845" x="167.966" y="112.69" width="116.392" height="116.806" filterUnits="userSpaceOnUse" color-interpolation-filters="sRGB">
<feFlood flood-opacity="0" result="BackgroundImageFix"/>
<feColorMatrix in="SourceAlpha" type="matrix" values="0 0 0 0 0 0 0 0 0 0 0 0 0 0 0 0 0 0 127 0" result="hardAlpha"/>
<feOffset dy="3.1899"/>
<feGaussianBlur stdDeviation="9.17095"/>
<feComposite in2="hardAlpha" operator="out"/>
<feColorMatrix type="matrix" values="0 0 0 0 0 0 0 0 0 0 0 0 0 0 0 0 0 0 0.95 0"/>
<feBlend mode="normal" in2="BackgroundImageFix" result="effect1_dropShadow_52_4845"/>
<feBlend mode="normal" in="SourceGraphic" in2="effect1_dropShadow_52_4845" result="shape"/>
</filter>
<filter id="filter3_d_52_4845" x="172.155" y="113.39" width="110.15" height="111.063" filterUnits="userSpaceOnUse" color-interpolation-filters="sRGB">
<feFlood flood-opacity="0" result="BackgroundImageFix"/>
<feColorMatrix in="SourceAlpha" type="matrix" values="0 0 0 0 0 0 0 0 0 0 0 0 0 0 0 0 0 0 127 0" result="hardAlpha"/>
<feOffset dy="1.66058"/>
<feGaussianBlur stdDeviation="0.830288"/>
<feComposite in2="hardAlpha" operator="out"/>
<feColorMatrix type="matrix" values="0 0 0 0 0.432266 0 0 0 0 0.00354165 0 0 0 0 0.846458 0 0 0 1 0"/>
<feBlend mode="screen" in2="BackgroundImageFix" result="effect1_dropShadow_52_4845"/>
<feBlend mode="normal" in="SourceGraphic" in2="effect1_dropShadow_52_4845" result="shape"/>
</filter>
<filter id="filter4_d_52_4845" x="344.189" y="148.036" width="45.456" height="45.456" filterUnits="userSpaceOnUse" color-interpolation-filters="sRGB">
<feFlood flood-opacity="0" result="BackgroundImageFix"/>
<feColorMatrix in="SourceAlpha" type="matrix" values="0 0 0 0 0 0 0 0 0 0 0 0 0 0 0 0 0 0 127 0" result="hardAlpha"/>
<feOffset dy="3.1899"/>
<feGaussianBlur stdDeviation="1.59495"/>
<feComposite in2="hardAlpha" operator="out"/>
<feColorMatrix type="matrix" values="0 0 0 0 0.918197 0 0 0 0 0.784592 0 0 0 0 0.0831667 0 0 0 0.35 0"/>
<feBlend mode="normal" in2="BackgroundImageFix" result="effect1_dropShadow_52_4845"/>
<feBlend mode="normal" in="SourceGraphic" in2="effect1_dropShadow_52_4845" result="shape"/>
</filter>
<linearGradient id="paint0_linear_52_4845" x1="197.452" y1="108.839" x2="262.551" y2="260.026" gradientUnits="userSpaceOnUse">
<stop offset="0.015625" stop-color="#B010FB"/>
<stop offset="0.130208" stop-color="#DE97FF"/>
<stop offset="0.234375" stop-color="#A227DB"/>
<stop offset="0.505208" stop-color="#A227DB" stop-opacity="0"/>
<stop offset="0.765625" stop-color="#A610EC" stop-opacity="0.84"/>
</linearGradient>
</defs>
</svg>
