<svg width="1720" height="702" viewBox="0 0 1720 702" fill="none" xmlns="http://www.w3.org/2000/svg">
<mask id="mask0_20768_42272" style="mask-type:alpha" maskUnits="userSpaceOnUse" x="0" y="-175" width="1721" height="1217">
<g opacity="0.12">
<rect x="0.452882" y="-0.114989" width="85.9549" height="85.9549" stroke="white" stroke-width="0.904788"/>
<rect x="86.4077" y="-0.114989" width="85.9549" height="85.9549" stroke="white" stroke-width="0.904788"/>
<rect x="172.362" y="-0.114989" width="85.9549" height="85.9549" stroke="white" stroke-width="0.904788"/>
<rect x="258.317" y="-0.114989" width="85.9549" height="85.9549" stroke="white" stroke-width="0.904788"/>
<rect x="344.272" y="-0.114989" width="85.9549" height="85.9549" stroke="white" stroke-width="0.904788"/>
<rect x="430.227" y="-0.114989" width="85.9549" height="85.9549" stroke="white" stroke-width="0.904788"/>
<rect x="516.181" y="-0.114989" width="85.9549" height="85.9549" stroke="white" stroke-width="0.904788"/>
<rect x="602.136" y="-0.114989" width="85.9549" height="85.9549" stroke="white" stroke-width="0.904788"/>
<rect x="688.091" y="-0.114989" width="85.9549" height="85.9549" stroke="white" stroke-width="0.904788"/>
<rect x="774.046" y="-0.114989" width="85.9549" height="85.9549" stroke="white" stroke-width="0.904788"/>
<rect x="860" y="-0.114989" width="85.9549" height="85.9549" stroke="white" stroke-width="0.904788"/>
<rect x="945.955" y="-0.114989" width="85.9549" height="85.9549" stroke="white" stroke-width="0.904788"/>
<rect x="1031.91" y="-0.114989" width="85.9549" height="85.9549" stroke="white" stroke-width="0.904788"/>
<rect x="1117.86" y="-0.114989" width="85.9549" height="85.9549" stroke="white" stroke-width="0.904788"/>
<rect x="1203.82" y="-0.114989" width="85.9549" height="85.9549" stroke="white" stroke-width="0.904788"/>
<rect x="1289.77" y="-0.114989" width="85.9549" height="85.9549" stroke="white" stroke-width="0.904788"/>
<rect x="1375.73" y="-0.114989" width="85.9549" height="85.9549" stroke="white" stroke-width="0.904788"/>
<rect x="1461.68" y="-0.114989" width="85.9549" height="85.9549" stroke="white" stroke-width="0.904788"/>
<rect x="1547.64" y="-0.114989" width="85.9549" height="85.9549" stroke="white" stroke-width="0.904788"/>
<rect x="1633.59" y="-0.114989" width="85.9549" height="85.9549" stroke="white" stroke-width="0.904788"/>
<rect x="0.452882" y="86.7444" width="85.9549" height="85.9549" stroke="white" stroke-width="0.904788"/>
<rect x="86.4077" y="86.7444" width="85.9549" height="85.9549" stroke="white" stroke-width="0.904788"/>
<rect x="172.362" y="86.7444" width="85.9549" height="85.9549" stroke="white" stroke-width="0.904788"/>
<rect x="258.317" y="86.7444" width="85.9549" height="85.9549" stroke="white" stroke-width="0.904788"/>
<rect x="344.272" y="86.7444" width="85.9549" height="85.9549" stroke="white" stroke-width="0.904788"/>
<rect x="430.227" y="86.7444" width="85.9549" height="85.9549" stroke="white" stroke-width="0.904788"/>
<rect x="516.181" y="86.7444" width="85.9549" height="85.9549" stroke="white" stroke-width="0.904788"/>
<rect x="602.136" y="86.7444" width="85.9549" height="85.9549" stroke="white" stroke-width="0.904788"/>
<rect x="688.091" y="86.7444" width="85.9549" height="85.9549" stroke="white" stroke-width="0.904788"/>
<rect x="774.046" y="86.7444" width="85.9549" height="85.9549" stroke="white" stroke-width="0.904788"/>
<rect x="860" y="86.7444" width="85.9549" height="85.9549" stroke="white" stroke-width="0.904788"/>
<rect x="945.955" y="86.7444" width="85.9549" height="85.9549" stroke="white" stroke-width="0.904788"/>
<rect x="1031.91" y="86.7444" width="85.9549" height="85.9549" stroke="white" stroke-width="0.904788"/>
<rect x="1117.86" y="86.7444" width="85.9549" height="85.9549" stroke="white" stroke-width="0.904788"/>
<rect x="1203.82" y="86.7444" width="85.9549" height="85.9549" stroke="white" stroke-width="0.904788"/>
<rect x="1289.77" y="86.7444" width="85.9549" height="85.9549" stroke="white" stroke-width="0.904788"/>
<rect x="1375.73" y="86.7444" width="85.9549" height="85.9549" stroke="white" stroke-width="0.904788"/>
<rect x="1461.68" y="86.7444" width="85.9549" height="85.9549" stroke="white" stroke-width="0.904788"/>
<rect x="1547.64" y="86.7444" width="85.9549" height="85.9549" stroke="white" stroke-width="0.904788"/>
<rect x="1633.59" y="86.7444" width="85.9549" height="85.9549" stroke="white" stroke-width="0.904788"/>
<rect x="0.452882" y="173.604" width="85.9549" height="85.9549" stroke="white" stroke-width="0.904788"/>
<rect x="86.4077" y="173.604" width="85.9549" height="85.9549" stroke="white" stroke-width="0.904788"/>
<rect x="172.362" y="173.604" width="85.9549" height="85.9549" stroke="white" stroke-width="0.904788"/>
<rect x="258.317" y="173.604" width="85.9549" height="85.9549" stroke="white" stroke-width="0.904788"/>
<rect x="344.272" y="173.604" width="85.9549" height="85.9549" stroke="white" stroke-width="0.904788"/>
<rect x="429.774" y="173.151" width="86.8597" height="86.8597" fill="white" fill-opacity="0.38"/>
<rect x="516.181" y="173.604" width="85.9549" height="85.9549" stroke="white" stroke-width="0.904788"/>
<rect x="602.136" y="173.604" width="85.9549" height="85.9549" stroke="white" stroke-width="0.904788"/>
<rect x="688.091" y="173.604" width="85.9549" height="85.9549" stroke="white" stroke-width="0.904788"/>
<rect x="774.046" y="173.604" width="85.9549" height="85.9549" stroke="white" stroke-width="0.904788"/>
<rect x="860" y="173.604" width="85.9549" height="85.9549" stroke="white" stroke-width="0.904788"/>
<rect x="945.955" y="173.604" width="85.9549" height="85.9549" stroke="white" stroke-width="0.904788"/>
<rect x="1031.46" y="173.151" width="86.8597" height="86.8597" fill="white" fill-opacity="0.13"/>
<rect x="1117.86" y="173.604" width="85.9549" height="85.9549" stroke="white" stroke-width="0.904788"/>
<rect x="1203.37" y="173.151" width="86.8597" height="86.8597" fill="white" fill-opacity="0.13"/>
<rect x="1289.77" y="173.604" width="85.9549" height="85.9549" stroke="white" stroke-width="0.904788"/>
<rect x="1375.73" y="173.604" width="85.9549" height="85.9549" stroke="white" stroke-width="0.904788"/>
<rect x="1461.68" y="173.604" width="85.9549" height="85.9549" stroke="white" stroke-width="0.904788"/>
<rect x="1547.64" y="173.604" width="85.9549" height="85.9549" stroke="white" stroke-width="0.904788"/>
<rect x="1633.59" y="173.604" width="85.9549" height="85.9549" stroke="white" stroke-width="0.904788"/>
<rect x="0.452882" y="260.464" width="85.9549" height="85.9549" stroke="white" stroke-width="0.904788"/>
<rect x="86.4077" y="260.464" width="85.9549" height="85.9549" stroke="white" stroke-width="0.904788"/>
<rect x="172.362" y="260.464" width="85.9549" height="85.9549" stroke="white" stroke-width="0.904788"/>
<rect x="258.317" y="260.464" width="85.9549" height="85.9549" stroke="white" stroke-width="0.904788"/>
<rect x="343.82" y="260.012" width="86.8597" height="86.8597" fill="white" fill-opacity="0.13"/>
<rect x="430.227" y="260.464" width="85.9549" height="85.9549" stroke="white" stroke-width="0.904788"/>
<rect x="515.729" y="260.012" width="86.8597" height="86.8597" fill="white" fill-opacity="0.38"/>
<rect x="602.136" y="260.464" width="85.9549" height="85.9549" stroke="white" stroke-width="0.904788"/>
<rect x="688.091" y="260.464" width="85.9549" height="85.9549" stroke="white" stroke-width="0.904788"/>
<rect x="774.046" y="260.464" width="85.9549" height="85.9549" stroke="white" stroke-width="0.904788"/>
<rect x="860" y="260.464" width="85.9549" height="85.9549" stroke="white" stroke-width="0.904788"/>
<rect x="945.503" y="260.012" width="86.8597" height="86.8597" fill="white" fill-opacity="0.13"/>
<rect x="1031.91" y="260.464" width="85.9549" height="85.9549" stroke="white" stroke-width="0.904788"/>
<rect x="1117.41" y="260.012" width="86.8597" height="86.8597" fill="white" fill-opacity="0.23"/>
<rect x="1203.82" y="260.464" width="85.9549" height="85.9549" stroke="white" stroke-width="0.904788"/>
<rect x="1289.77" y="260.464" width="85.9549" height="85.9549" stroke="white" stroke-width="0.904788"/>
<rect x="1375.73" y="260.464" width="85.9549" height="85.9549" stroke="white" stroke-width="0.904788"/>
<rect x="1461.68" y="260.464" width="85.9549" height="85.9549" stroke="white" stroke-width="0.904788"/>
<rect x="1547.64" y="260.464" width="85.9549" height="85.9549" stroke="white" stroke-width="0.904788"/>
<rect x="1633.59" y="260.464" width="85.9549" height="85.9549" stroke="white" stroke-width="0.904788"/>
<rect x="0.452882" y="347.323" width="85.9549" height="85.9549" stroke="white" stroke-width="0.904788"/>
<rect x="86.4077" y="347.323" width="85.9549" height="85.9549" stroke="white" stroke-width="0.904788"/>
<rect x="172.362" y="347.323" width="85.9549" height="85.9549" stroke="white" stroke-width="0.904788"/>
<rect x="257.865" y="346.871" width="86.8597" height="86.8597" fill="white" fill-opacity="0.13"/>
<rect x="344.272" y="347.323" width="85.9549" height="85.9549" stroke="white" stroke-width="0.904788"/>
<rect x="429.774" y="346.871" width="86.8597" height="86.8597" fill="white" fill-opacity="0.38"/>
<rect x="516.181" y="347.323" width="85.9549" height="85.9549" stroke="white" stroke-width="0.904788"/>
<rect x="602.136" y="347.323" width="85.9549" height="85.9549" stroke="white" stroke-width="0.904788"/>
<rect x="688.091" y="347.323" width="85.9549" height="85.9549" stroke="white" stroke-width="0.904788"/>
<rect x="774.046" y="347.323" width="85.9549" height="85.9549" stroke="white" stroke-width="0.904788"/>
<rect x="860" y="347.323" width="85.9549" height="85.9549" stroke="white" stroke-width="0.904788"/>
<rect x="945.955" y="347.323" width="85.9549" height="85.9549" stroke="white" stroke-width="0.904788"/>
<rect x="1031.46" y="346.871" width="86.8597" height="86.8597" fill="white" fill-opacity="0.13"/>
<rect x="1117.86" y="347.323" width="85.9549" height="85.9549" stroke="white" stroke-width="0.904788"/>
<rect x="1203.82" y="347.323" width="85.9549" height="85.9549" stroke="white" stroke-width="0.904788"/>
<rect x="1289.77" y="347.323" width="85.9549" height="85.9549" stroke="white" stroke-width="0.904788"/>
<rect x="1375.73" y="347.323" width="85.9549" height="85.9549" stroke="white" stroke-width="0.904788"/>
<rect x="1461.68" y="347.323" width="85.9549" height="85.9549" stroke="white" stroke-width="0.904788"/>
<rect x="1547.64" y="347.323" width="85.9549" height="85.9549" stroke="white" stroke-width="0.904788"/>
<rect x="1633.59" y="347.323" width="85.9549" height="85.9549" stroke="white" stroke-width="0.904788"/>
<rect x="0.452882" y="434.183" width="85.9549" height="85.9549" stroke="white" stroke-width="0.904788"/>
<rect x="86.4077" y="434.183" width="85.9549" height="85.9549" stroke="white" stroke-width="0.904788"/>
<rect x="172.362" y="434.183" width="85.9549" height="85.9549" stroke="white" stroke-width="0.904788"/>
<rect x="258.317" y="434.183" width="85.9549" height="85.9549" stroke="white" stroke-width="0.904788"/>
<rect x="344.272" y="434.183" width="85.9549" height="85.9549" stroke="white" stroke-width="0.904788"/>
<rect x="430.227" y="434.183" width="85.9549" height="85.9549" stroke="white" stroke-width="0.904788"/>
<rect x="516.181" y="434.183" width="85.9549" height="85.9549" stroke="white" stroke-width="0.904788"/>
<rect x="602.136" y="434.183" width="85.9549" height="85.9549" stroke="white" stroke-width="0.904788"/>
<rect x="688.091" y="434.183" width="85.9549" height="85.9549" stroke="white" stroke-width="0.904788"/>
<rect x="774.046" y="434.183" width="85.9549" height="85.9549" stroke="white" stroke-width="0.904788"/>
<rect x="860" y="434.183" width="85.9549" height="85.9549" stroke="white" stroke-width="0.904788"/>
<rect x="945.955" y="434.183" width="85.9549" height="85.9549" stroke="white" stroke-width="0.904788"/>
<rect x="1031.91" y="434.183" width="85.9549" height="85.9549" stroke="white" stroke-width="0.904788"/>
<rect x="1117.86" y="434.183" width="85.9549" height="85.9549" stroke="white" stroke-width="0.904788"/>
<rect x="1203.82" y="434.183" width="85.9549" height="85.9549" stroke="white" stroke-width="0.904788"/>
<rect x="1289.77" y="434.183" width="85.9549" height="85.9549" stroke="white" stroke-width="0.904788"/>
<rect x="1375.73" y="434.183" width="85.9549" height="85.9549" stroke="white" stroke-width="0.904788"/>
<rect x="1461.68" y="434.183" width="85.9549" height="85.9549" stroke="white" stroke-width="0.904788"/>
<rect x="1547.64" y="434.183" width="85.9549" height="85.9549" stroke="white" stroke-width="0.904788"/>
<rect x="1633.59" y="434.183" width="85.9549" height="85.9549" stroke="white" stroke-width="0.904788"/>
<rect x="0.452882" y="521.042" width="85.9549" height="85.9549" stroke="white" stroke-width="0.904788"/>
<rect x="86.4077" y="521.042" width="85.9549" height="85.9549" stroke="white" stroke-width="0.904788"/>
<rect x="172.362" y="521.042" width="85.9549" height="85.9549" stroke="white" stroke-width="0.904788"/>
<rect x="258.317" y="521.042" width="85.9549" height="85.9549" stroke="white" stroke-width="0.904788"/>
<rect x="344.272" y="521.042" width="85.9549" height="85.9549" stroke="white" stroke-width="0.904788"/>
<rect x="430.227" y="521.042" width="85.9549" height="85.9549" stroke="white" stroke-width="0.904788"/>
<rect x="516.181" y="521.042" width="85.9549" height="85.9549" stroke="white" stroke-width="0.904788"/>
<rect x="602.136" y="521.042" width="85.9549" height="85.9549" stroke="white" stroke-width="0.904788"/>
<rect x="688.091" y="521.042" width="85.9549" height="85.9549" stroke="white" stroke-width="0.904788"/>
<rect x="774.046" y="521.042" width="85.9549" height="85.9549" stroke="white" stroke-width="0.904788"/>
<rect x="860" y="521.042" width="85.9549" height="85.9549" stroke="white" stroke-width="0.904788"/>
<rect x="945.503" y="520.59" width="86.8597" height="86.8597" fill="white" fill-opacity="0.13"/>
<rect x="1031.91" y="521.042" width="85.9549" height="85.9549" stroke="white" stroke-width="0.904788"/>
<rect x="1117.86" y="521.042" width="85.9549" height="85.9549" stroke="white" stroke-width="0.904788"/>
<rect x="1203.82" y="521.042" width="85.9549" height="85.9549" stroke="white" stroke-width="0.904788"/>
<rect x="1289.77" y="521.042" width="85.9549" height="85.9549" stroke="white" stroke-width="0.904788"/>
<rect x="1375.73" y="521.042" width="85.9549" height="85.9549" stroke="white" stroke-width="0.904788"/>
<rect x="1461.68" y="521.042" width="85.9549" height="85.9549" stroke="white" stroke-width="0.904788"/>
<rect x="1547.64" y="521.042" width="85.9549" height="85.9549" stroke="white" stroke-width="0.904788"/>
<rect x="1633.59" y="521.042" width="85.9549" height="85.9549" stroke="white" stroke-width="0.904788"/>
<rect x="0.452882" y="607.903" width="85.9549" height="85.9549" stroke="white" stroke-width="0.904788"/>
<rect x="86.4077" y="607.903" width="85.9549" height="85.9549" stroke="white" stroke-width="0.904788"/>
<rect x="172.362" y="607.903" width="85.9549" height="85.9549" stroke="white" stroke-width="0.904788"/>
<rect x="258.317" y="607.903" width="85.9549" height="85.9549" stroke="white" stroke-width="0.904788"/>
<rect x="344.272" y="607.903" width="85.9549" height="85.9549" stroke="white" stroke-width="0.904788"/>
<rect x="430.227" y="607.903" width="85.9549" height="85.9549" stroke="white" stroke-width="0.904788"/>
<rect x="516.181" y="607.903" width="85.9549" height="85.9549" stroke="white" stroke-width="0.904788"/>
<rect x="602.136" y="607.903" width="85.9549" height="85.9549" stroke="white" stroke-width="0.904788"/>
<rect x="688.091" y="607.903" width="85.9549" height="85.9549" stroke="white" stroke-width="0.904788"/>
<rect x="774.046" y="607.903" width="85.9549" height="85.9549" stroke="white" stroke-width="0.904788"/>
<rect x="859.548" y="607.45" width="86.8597" height="86.8597" fill="white" fill-opacity="0.13"/>
<rect x="945.955" y="607.903" width="85.9549" height="85.9549" stroke="white" stroke-width="0.904788"/>
<rect x="1031.46" y="607.45" width="86.8597" height="86.8597" fill="white" fill-opacity="0.13"/>
<rect x="1117.86" y="607.903" width="85.9549" height="85.9549" stroke="white" stroke-width="0.904788"/>
<rect x="1203.37" y="607.45" width="86.8597" height="86.8597" fill="white" fill-opacity="0.13"/>
<rect x="1289.77" y="607.903" width="85.9549" height="85.9549" stroke="white" stroke-width="0.904788"/>
<rect x="1375.73" y="607.903" width="85.9549" height="85.9549" stroke="white" stroke-width="0.904788"/>
<rect x="1461.68" y="607.903" width="85.9549" height="85.9549" stroke="white" stroke-width="0.904788"/>
<rect x="1547.64" y="607.903" width="85.9549" height="85.9549" stroke="white" stroke-width="0.904788"/>
<rect x="1633.59" y="607.903" width="85.9549" height="85.9549" stroke="white" stroke-width="0.904788"/>
<rect x="0.452882" y="694.762" width="85.9549" height="85.9549" stroke="white" stroke-width="0.904788"/>
<rect x="86.4077" y="694.762" width="85.9549" height="85.9549" stroke="white" stroke-width="0.904788"/>
<rect x="172.362" y="694.762" width="85.9549" height="85.9549" stroke="white" stroke-width="0.904788"/>
<rect x="258.317" y="694.762" width="85.9549" height="85.9549" stroke="white" stroke-width="0.904788"/>
<rect x="344.272" y="694.762" width="85.9549" height="85.9549" stroke="white" stroke-width="0.904788"/>
<rect x="430.227" y="694.762" width="85.9549" height="85.9549" stroke="white" stroke-width="0.904788"/>
<rect x="516.181" y="694.762" width="85.9549" height="85.9549" stroke="white" stroke-width="0.904788"/>
<rect x="602.136" y="694.762" width="85.9549" height="85.9549" stroke="white" stroke-width="0.904788"/>
<rect x="688.091" y="694.762" width="85.9549" height="85.9549" stroke="white" stroke-width="0.904788"/>
<rect x="773.593" y="694.31" width="86.8597" height="86.8597" fill="white" fill-opacity="0.13"/>
<rect x="860" y="694.762" width="85.9549" height="85.9549" stroke="white" stroke-width="0.904788"/>
<rect x="945.503" y="694.31" width="86.8597" height="86.8597" fill="white" fill-opacity="0.13"/>
<rect x="1031.91" y="694.762" width="85.9549" height="85.9549" stroke="white" stroke-width="0.904788"/>
<rect x="1117.41" y="694.31" width="86.8597" height="86.8597" fill="white" fill-opacity="0.13"/>
<rect x="1203.82" y="694.762" width="85.9549" height="85.9549" stroke="white" stroke-width="0.904788"/>
<rect x="1289.77" y="694.762" width="85.9549" height="85.9549" stroke="white" stroke-width="0.904788"/>
<rect x="1375.73" y="694.762" width="85.9549" height="85.9549" stroke="white" stroke-width="0.904788"/>
<rect x="1461.68" y="694.762" width="85.9549" height="85.9549" stroke="white" stroke-width="0.904788"/>
<rect x="1547.64" y="694.762" width="85.9549" height="85.9549" stroke="white" stroke-width="0.904788"/>
<rect x="1633.59" y="694.762" width="85.9549" height="85.9549" stroke="white" stroke-width="0.904788"/>
</g>
</mask>
<g mask="url(#mask0_20768_42272)">
<g filter="url(#filter0_f_20768_42272)">
<ellipse cx="270.551" cy="476.653" rx="355.701" ry="254.225" transform="rotate(-15 270.551 476.653)" fill="#B987FF"/>
</g>
<g filter="url(#filter1_f_20768_42272)">
<ellipse cx="1411.22" cy="187.26" rx="355.701" ry="254.225" transform="rotate(-15 1411.22 187.26)" fill="#B987FF"/>
</g>
</g>
<defs>
<filter id="filter0_f_20768_42272" x="-197.322" y="96.3454" width="935.746" height="760.616" filterUnits="userSpaceOnUse" color-interpolation-filters="sRGB">
<feFlood flood-opacity="0" result="BackgroundImageFix"/>
<feBlend mode="normal" in="SourceGraphic" in2="BackgroundImageFix" result="shape"/>
<feGaussianBlur stdDeviation="58.9923" result="effect1_foregroundBlur_20768_42272"/>
</filter>
<filter id="filter1_f_20768_42272" x="943.347" y="-193.048" width="935.746" height="760.616" filterUnits="userSpaceOnUse" color-interpolation-filters="sRGB">
<feFlood flood-opacity="0" result="BackgroundImageFix"/>
<feBlend mode="normal" in="SourceGraphic" in2="BackgroundImageFix" result="shape"/>
<feGaussianBlur stdDeviation="58.9923" result="effect1_foregroundBlur_20768_42272"/>
</filter>
</defs>
</svg>
