<svg width="45" height="45" viewBox="0 0 45 45" fill="none" xmlns="http://www.w3.org/2000/svg">
<path d="M21.3949 18.8865C22.0052 18.2762 22.9947 18.2762 23.6049 18.8865L26.1136 21.3952C26.7239 22.0054 26.7239 22.9949 26.1136 23.6052L23.6049 26.1138C22.9947 26.7241 22.0052 26.7241 21.3949 26.1138L18.8863 23.6052C18.276 22.9949 18.276 22.0054 18.8863 21.3952L21.3949 18.8865Z" fill="#A950FF"/>
<path d="M32.9492 18.8665C33.5486 18.2672 34.5204 18.2672 35.1197 18.8665L37.6679 21.4147C38.2672 22.0141 38.2672 22.9858 37.6679 23.5852L35.1197 26.1333C34.5204 26.7327 33.5486 26.7327 32.9492 26.1333L30.4011 23.5852C29.8017 22.9858 29.8017 22.0141 30.4011 21.4147C31.0004 20.8153 32.9492 18.8665 32.9492 18.8665Z" fill="#A950FF"/>
<path d="M21.4147 7.33234C22.0141 6.73297 22.9858 6.73297 23.5852 7.33233L26.1333 9.8805C26.7327 10.4799 26.7327 11.4516 26.1333 12.051L23.5852 14.5991C22.9858 15.1985 22.0141 15.1985 21.4147 14.5991L18.8665 12.051C18.2672 11.4516 18.2672 10.4799 18.8665 9.8805L21.4147 7.33234Z" fill="#E9C1FF"/>
<path d="M20.3469 15.628C20.9572 16.2383 20.9572 17.2277 20.3469 17.838L17.8383 20.3466C17.228 20.9569 16.2385 20.9569 15.6282 20.3466L13.1196 17.838C12.5093 17.2277 12.5093 16.2383 13.1196 15.628L15.6282 13.1194C16.2385 12.5091 17.228 12.5091 17.8383 13.1194L20.3469 15.628Z" fill="#CD88FF"/>
<path d="M14.5991 21.4147C15.1985 22.0141 15.1985 22.9858 14.5991 23.5852L12.051 26.1333C11.4516 26.7327 10.4799 26.7327 9.8805 26.1333L7.33233 23.5852C6.73297 22.9858 6.73297 22.0141 7.33233 21.4147L9.8805 18.8665C10.4799 18.2672 11.4516 18.2672 12.051 18.8665L14.5991 21.4147Z" fill="#A950FF"/>
<path d="M31.881 15.628C32.4912 16.2383 32.4912 17.2277 31.881 17.838L29.3723 20.3466C28.7621 20.9569 27.7726 20.9569 27.1623 20.3466L24.6537 17.838C24.0434 17.2277 24.0434 16.2383 24.6537 15.628L27.1623 13.1194C27.7726 12.5091 28.7621 12.5091 29.3723 13.1194L31.881 15.628Z" fill="#CD88FF"/>
<path d="M24.9688 32.1034C26.3322 33.4668 26.3322 35.6774 24.9688 37.0408C23.6054 38.4042 21.3948 38.4042 20.0314 37.0408C18.668 35.6774 18.668 33.4668 20.0314 32.1034C21.3948 30.74 23.6054 30.74 24.9688 32.1034Z" fill="#F62E76"/>
</svg>
