<svg width="134" height="35" viewBox="0 0 134 35" fill="none" xmlns="http://www.w3.org/2000/svg">
<g clip-path="url(#clip0_889_6616)">
<path fill-rule="evenodd" clip-rule="evenodd" d="M0.873291 9.16123C0.873291 1.87335 8.25834 1.87335 8.25834 1.87335H25.1573C32.5424 1.87335 32.5424 9.16123 32.5424 9.16123V25.8379C32.5424 33.1266 25.1573 33.1266 25.1573 33.1266H8.25834C0.873291 33.1266 0.873291 25.8379 0.873291 25.8379V9.16123ZM25.018 7.8872C26.3205 7.90907 27.3588 8.96957 27.3358 10.2558C27.3349 10.3424 27.3216 10.5148 27.3216 10.5148L25.2707 25.2857C25.1093 26.4363 24.0994 27.3139 22.8927 27.2929C22.7393 27.2903 22.5894 27.2728 22.4449 27.2422H22.444C22.3571 27.2238 22.3208 27.2142 22.1993 27.1818L6.40155 23.0588C5.36238 22.8016 4.60073 21.8636 4.62024 20.7611C4.63443 19.9307 5.08751 19.2106 5.75783 18.8098L23.8831 8.15145C24.2218 7.97645 24.6084 7.8802 25.018 7.8872Z" fill="black"/>
<path d="M51.438 17.7144C50.7083 18.3444 49.1877 18.3741 47.8497 18.6139C46.5117 18.8545 45.2961 19.3349 45.2961 20.895C45.2961 22.4551 46.5427 22.876 47.941 22.876C51.3166 22.876 51.438 20.265 51.438 19.3051V17.7144ZM41.4639 14.5635C41.7078 10.6024 45.3262 9.37213 48.8534 9.37213C51.9851 9.37213 55.7561 10.0625 55.7561 13.783V21.8558C55.7561 23.2654 55.9077 24.6759 56.3032 25.3059H51.9248C51.7723 24.8255 51.6508 24.3163 51.6207 23.8053C50.2517 25.2166 48.2753 25.7259 46.3299 25.7259C43.3188 25.7259 40.978 24.2559 40.978 21.0753C41.0383 14.0236 51.6207 17.8045 51.438 14.3229C51.438 12.523 50.1612 12.2229 48.6406 12.2229C46.9683 12.2229 45.9345 12.8835 45.782 14.5635H41.4639Z" fill="black"/>
<path d="M58.4624 9.79212H62.7805V25.3059H58.4624V9.79212ZM62.7805 7.39199H58.4624V3.88062H62.7805V7.39199Z" fill="black"/>
<path d="M65.5476 9.79213H69.6218V11.893H69.683C70.8082 10.3023 72.4193 9.37213 74.487 9.37213C76.4634 9.37213 78.2269 10.0625 79.079 11.9525C80.0216 10.6024 81.6335 9.37213 83.8218 9.37213C87.1672 9.37213 89.5692 10.9025 89.5692 14.924V25.3059H85.2511V16.5139C85.2511 14.4436 85.0693 12.733 82.6062 12.733C80.1732 12.733 79.7174 14.7438 79.7174 16.6644V25.3059H75.3994V16.604C75.3994 14.8033 75.5208 12.733 72.7846 12.733C71.9325 12.733 69.8648 13.2729 69.8648 16.3039V25.3059H65.5476V9.79213Z" fill="black"/>
<path d="M97.6885 9.7921H100.851V12.6429H97.6885V20.3245C97.6885 21.7647 98.0538 22.1252 99.5132 22.1252C100 22.1252 100.456 22.0955 100.851 22.0054V25.3365C100.121 25.4564 99.1789 25.4861 98.3269 25.4861C95.6518 25.4861 93.3713 24.9156 93.3713 21.7954V12.6429H90.7556V9.7921H93.3713V5.14148H97.6885V9.7921Z" fill="black"/>
<path d="M112.74 15.8839C112.345 13.7235 111.403 12.5834 109.304 12.5834C106.506 12.5834 105.807 14.6834 105.716 15.8839H112.74ZM105.716 18.5841C105.838 21.315 107.145 22.5155 109.578 22.5155C111.311 22.5155 112.71 21.4655 112.984 20.5048H116.785C115.568 24.1955 112.984 25.7259 109.425 25.7259C104.469 25.7259 101.397 22.365 101.397 17.5639C101.397 12.9124 104.652 9.37213 109.425 9.37213C114.777 9.37213 117.393 13.8136 117.058 18.5841H105.716Z" fill="black"/>
<path d="M129.555 15.2539C129.282 13.4829 128.218 12.5825 126.363 12.5825C123.596 12.5825 122.684 15.3431 122.684 17.6243C122.684 19.8748 123.565 22.5155 126.272 22.5155C128.309 22.5155 129.434 21.2853 129.708 19.3646H133.873C133.295 23.4754 130.468 25.7259 126.302 25.7259C121.558 25.7259 118.365 22.4254 118.365 17.7739C118.365 12.943 121.284 9.37213 126.393 9.37213C130.102 9.37213 133.539 11.2928 133.782 15.2539H129.555Z" fill="black"/>
</g>
<defs>
<clipPath id="clip0_889_6616">
<rect width="133" height="35" fill="black" transform="translate(0.873291)"/>
</clipPath>
</defs>
</svg>
