<svg width="135" height="29" viewBox="0 0 135 29" fill="none" xmlns="http://www.w3.org/2000/svg">
<path d="M33.0833 20.4708C32.1781 20.4696 31.2851 20.2614 30.4727 19.8621C29.6603 19.4628 28.95 18.8831 28.396 18.1671C27.842 17.4512 27.459 16.6181 27.2764 15.7315C27.0938 14.8449 27.1163 13.9283 27.3422 13.0517C27.5682 12.1751 27.9915 11.3618 28.58 10.674C29.1685 9.98614 29.9064 9.44196 30.7375 9.08305C31.5685 8.72414 32.4706 8.56001 33.3748 8.6032C34.279 8.64639 35.1613 8.89577 35.9544 9.33225C36.8075 9.80034 37.5179 10.4909 38.01 11.3305L38.055 11.4082L36.2865 12.4342L36.2426 12.3527C35.9485 11.8078 35.505 11.3581 34.9642 11.0564C34.3902 10.7341 33.7415 10.5687 33.0833 10.5767C32.5554 10.5561 32.0289 10.6446 31.5368 10.8368C31.0447 11.0289 30.5976 11.3206 30.2233 11.6934C29.5193 12.4707 29.1294 13.4819 29.1294 14.5305C29.1294 15.5792 29.5193 16.5904 30.2233 17.3677C30.5976 17.7405 31.0447 18.0322 31.5368 18.2243C32.0289 18.4165 32.5554 18.505 33.0833 18.4844C33.744 18.4919 34.3952 18.3265 34.9722 18.0047C35.5135 17.7084 35.9551 17.2587 36.2414 16.7121L36.2846 16.6294L38.0544 17.638L38.01 17.7158C37.5267 18.5581 36.8222 19.2521 35.9729 19.7227C35.0918 20.2186 34.0962 20.4752 33.0851 20.4671" fill="black"/>
<path d="M40.6875 8.77545H38.7683V20.2616H40.6875V8.77545Z" fill="black"/>
<path d="M53.1685 20.2615L49.9585 12.0273H52.0487L54.2419 17.996L56.4186 12.0273H58.5131L55.3031 20.2615H53.1685Z" fill="black"/>
<path d="M67.6206 20.2616V12.028H69.5398V13.1015C69.7883 12.6979 70.1432 12.3707 70.5655 12.1557C70.9878 11.9408 71.4612 11.8464 71.9337 11.8829H72.0232V13.9527L71.9281 13.9466C71.859 13.942 71.7909 13.9398 71.7238 13.9398C71.1941 13.9312 70.6759 14.0943 70.2466 14.4046C69.9991 14.6105 69.8056 14.8737 69.6829 15.1714C69.5601 15.469 69.5119 15.7921 69.5423 16.1127V20.2616H67.6206Z" fill="black"/>
<path d="M79.0945 20.4708C78.1893 20.4696 77.2963 20.2614 76.4839 19.8621C75.6715 19.4628 74.9612 18.8831 74.4072 18.1671C73.8532 17.4512 73.4703 16.6181 73.2876 15.7315C73.105 14.8449 73.1275 13.9283 73.3534 13.0517C73.5794 12.1751 74.0028 11.3618 74.5913 10.674C75.1797 9.98614 75.9177 9.44196 76.7487 9.08305C77.5797 8.72414 78.4818 8.56001 79.386 8.6032C80.2902 8.64639 81.1726 8.89577 81.9656 9.33225C82.8188 9.80029 83.5292 10.4908 84.0212 11.3305L84.0663 11.4082L82.2977 12.4342L82.2539 12.3527C81.9597 11.8078 81.5162 11.3581 80.9754 11.0564C80.4015 10.7341 79.7527 10.5687 79.0945 10.5767C78.5666 10.5561 78.0402 10.6447 77.5481 10.8368C77.056 11.029 76.6088 11.3206 76.2346 11.6934C75.5305 12.4707 75.1406 13.4819 75.1406 14.5305C75.1406 15.5792 75.5305 16.5904 76.2346 17.3677C76.6088 17.7405 77.056 18.0322 77.5481 18.2243C78.0402 18.4165 78.5666 18.505 79.0945 18.4844C79.7554 18.492 80.4068 18.3266 80.9841 18.0047C81.5255 17.7084 81.9672 17.2587 82.2539 16.7121L82.2965 16.6294L84.0663 17.638L84.0218 17.7158C83.5386 18.5581 82.8341 19.2521 81.9847 19.7227C81.1036 20.2186 80.108 20.4752 79.097 20.4671" fill="black"/>
<path d="M88.8969 20.4708C88.3265 20.4805 87.7601 20.3747 87.2316 20.1599C86.7031 19.9451 86.2235 19.6256 85.8215 19.2208C85.0099 18.4027 84.5544 17.2969 84.5544 16.1445C84.5544 14.992 85.0099 13.8863 85.8215 13.0681C86.6462 12.2666 87.7509 11.8181 88.9009 11.8181C90.051 11.8181 91.1557 12.2666 91.9803 13.0681C92.5929 13.674 93.0106 14.4488 93.18 15.2935C93.3495 16.1382 93.2628 17.0143 92.9313 17.8094C92.5998 18.6046 92.0384 19.2827 91.3191 19.7568C90.5998 20.231 89.7553 20.4796 88.8938 20.4708M88.8938 13.6885C88.5739 13.6817 88.2561 13.7401 87.9595 13.8603C87.663 13.9804 87.394 14.1598 87.1691 14.3873C86.7204 14.8623 86.4704 15.491 86.4704 16.1445C86.4704 16.7979 86.7204 17.4266 87.1691 17.9016C87.6315 18.3498 88.2502 18.6005 88.8942 18.6005C89.5381 18.6005 90.1568 18.3498 90.6192 17.9016C91.068 17.4266 91.318 16.7979 91.318 16.1445C91.318 15.491 91.068 14.8623 90.6192 14.3873C90.3943 14.1597 90.1254 13.9803 89.8289 13.8602C89.5323 13.74 89.2144 13.6816 88.8945 13.6885" fill="black"/>
<path d="M99.7966 20.2616V15.4034C99.8126 15.1637 99.7805 14.9231 99.702 14.696C99.6236 14.4689 99.5004 14.2598 99.3398 14.0811C99.1718 13.9242 98.9738 13.8027 98.7577 13.7241C98.5416 13.6455 98.3119 13.6114 98.0823 13.6237C97.821 13.6127 97.5602 13.6554 97.316 13.7492C97.0718 13.8429 96.8494 13.9857 96.6625 14.1688C96.2682 14.6378 96.0748 15.2433 96.1242 15.854V20.2609H94.2051V12.0274H96.1242V12.8663C96.4138 12.5133 96.7831 12.2341 97.2016 12.0517C97.6202 11.8692 98.076 11.7887 98.5317 11.8169C98.9581 11.8005 99.3832 11.8733 99.7799 12.0305C100.177 12.1877 100.536 12.4259 100.835 12.7299C101.447 13.4122 101.763 14.3093 101.715 15.2244V20.2597L99.7966 20.2616Z" fill="black"/>
<path d="M108.471 20.2616V15.4034C108.487 15.1637 108.455 14.9231 108.377 14.696C108.298 14.4689 108.175 14.2598 108.014 14.0811C107.846 13.9241 107.648 13.8027 107.432 13.7241C107.216 13.6455 106.986 13.6113 106.756 13.6237C106.495 13.6127 106.234 13.6554 105.99 13.7492C105.746 13.8429 105.523 13.9857 105.337 14.1688C104.942 14.6378 104.749 15.2433 104.798 15.854V20.2609H102.879V12.0274H104.798V12.8663C105.088 12.5133 105.457 12.2341 105.876 12.0517C106.294 11.8692 106.75 11.7887 107.206 11.8169C107.633 11.8003 108.058 11.8731 108.455 12.0305C108.853 12.188 109.212 12.4266 109.512 12.7311C110.124 13.4134 110.44 14.3105 110.391 15.2256V20.2609L108.471 20.2616Z" fill="black"/>
<path d="M124.638 20.4708C124.066 20.4777 123.498 20.3708 122.967 20.1565C122.436 19.9421 121.953 19.6245 121.546 19.2221C121.138 18.8197 120.815 18.3404 120.594 17.8121C120.374 17.2839 120.26 16.717 120.26 16.1445C120.26 15.5719 120.374 15.0051 120.594 14.4768C120.815 13.9485 121.138 13.4693 121.546 13.0668C121.953 12.6644 122.436 12.3468 122.967 12.1325C123.498 11.9181 124.066 11.8113 124.638 11.8181C125.406 11.8105 126.162 12.0094 126.826 12.3941C127.462 12.7553 127.978 13.2945 128.311 13.9453L128.349 14.0207L126.693 14.9818L126.651 14.8935C126.481 14.5293 126.204 14.2253 125.857 14.0219C125.482 13.8059 125.055 13.696 124.622 13.704C124.304 13.6965 123.987 13.7547 123.691 13.8748C123.396 13.9949 123.129 14.1744 122.906 14.4021C122.462 14.8733 122.215 15.4962 122.215 16.1436C122.215 16.7909 122.462 17.4138 122.906 17.885C123.129 18.1127 123.396 18.2922 123.691 18.4123C123.987 18.5325 124.304 18.5906 124.622 18.5831C125.056 18.5884 125.483 18.4757 125.857 18.2572C126.21 18.0541 126.497 17.7542 126.685 17.393L126.727 17.3096L128.382 18.2529L128.342 18.33C127.994 18.9841 127.468 19.5267 126.825 19.8955C126.161 20.2801 125.405 20.4791 124.638 20.4715" fill="black"/>
<path d="M132.988 20.3319C132.342 20.3718 131.698 20.2216 131.136 19.8998C130.533 19.4918 130.227 18.7381 130.227 17.659V13.8824H128.745V12.0305H130.227V10.31L132.146 9.61188V12.028H134.143V13.8799H132.146V17.6566C132.135 17.7733 132.147 17.8911 132.182 18.0031C132.217 18.115 132.273 18.219 132.348 18.309C132.52 18.4522 132.737 18.5291 132.96 18.5257C133.086 18.5323 133.224 18.5356 133.377 18.5356C133.579 18.5356 133.809 18.5294 134.056 18.5171L134.15 18.5127V20.2486L134.071 20.2579C133.713 20.3029 133.353 20.3266 132.993 20.3288" fill="black"/>
<path d="M48.1863 17.7343C48.1143 17.8217 48.0365 17.9042 47.9536 17.9813C47.4239 18.4686 46.7255 18.7307 46.006 18.7121C45.6895 18.7172 45.3756 18.6546 45.0853 18.5286C44.795 18.4025 44.535 18.2159 44.3226 17.9813C44.2457 17.8975 44.1746 17.8086 44.1096 17.7152L48.369 16.1645L50.1962 15.4997C50.0834 14.58 49.6672 13.7242 49.0135 13.0675C48.6197 12.6713 48.1514 12.3569 47.6357 12.1423C47.1199 11.9277 46.5668 11.8173 46.0081 11.8173C45.4495 11.8173 44.8964 11.9277 44.3806 12.1423C43.8648 12.3569 43.3966 12.6713 43.0028 13.0675C42.2092 13.8951 41.7661 14.9973 41.7661 16.1439C41.7661 17.2904 42.2092 18.3926 43.0028 19.2202C43.3907 19.6231 43.8572 19.942 44.3736 20.1571C44.8899 20.3721 45.4449 20.4787 46.0041 20.4702C47.2102 20.4976 48.3784 20.0485 49.2555 19.2202C49.4368 19.0491 49.6036 18.8633 49.7542 18.6646L49.6604 18.5955L48.1863 17.7343ZM44.3226 14.3065C44.5381 14.0758 44.7988 13.8918 45.0883 13.7661C45.3779 13.6403 45.6903 13.5754 46.006 13.5754C46.3217 13.5754 46.634 13.6403 46.9236 13.7661C47.2132 13.8918 47.4738 14.0758 47.6894 14.3065C47.7606 14.3845 47.8267 14.467 47.8875 14.5534L43.6429 16.0966C43.6321 15.435 43.8751 14.7944 44.322 14.3065" fill="black"/>
<path d="M64.6662 17.7343C64.5941 17.8217 64.5163 17.9041 64.4334 17.9813C63.9038 18.4686 63.2053 18.7307 62.4858 18.7121C62.1694 18.7172 61.8555 18.6546 61.5652 18.5286C61.2749 18.4025 61.0148 18.2159 60.8025 17.9813C60.7256 17.8975 60.6544 17.8086 60.5895 17.7152L64.8489 16.1645L66.6761 15.4997C66.5634 14.5801 66.1474 13.7243 65.494 13.0675C65.1002 12.6713 64.6319 12.3569 64.1161 12.1423C63.6004 11.9277 63.0473 11.8173 62.4886 11.8173C61.93 11.8173 61.3769 11.9277 60.8611 12.1423C60.3453 12.3569 59.8771 12.6713 59.4833 13.0675C58.6897 13.8951 58.2466 14.9973 58.2466 16.1439C58.2466 17.2904 58.6897 18.3926 59.4833 19.2202C59.8712 19.6231 60.3377 19.942 60.854 20.1571C61.3704 20.3721 61.9254 20.4787 62.4846 20.4702C63.6905 20.4975 64.8585 20.0484 65.7353 19.2202C65.9166 19.0491 66.0835 18.8633 66.2341 18.6646L66.1403 18.5955L64.6662 17.7343ZM60.8025 14.3065C61.018 14.0758 61.2786 13.8918 61.5682 13.7661C61.8578 13.6403 62.1701 13.5754 62.4858 13.5754C62.8015 13.5754 63.1139 13.6403 63.4035 13.7661C63.693 13.8918 63.9537 14.0758 64.1692 14.3065C64.2404 14.3845 64.3066 14.467 64.3674 14.5534L60.1228 16.0966C60.112 15.435 60.3549 14.7944 60.8018 14.3065" fill="black"/>
<path d="M117.674 17.7343C117.602 17.8217 117.525 17.9042 117.442 17.9813C116.912 18.4686 116.214 18.7307 115.494 18.7121C115.178 18.7172 114.864 18.6546 114.573 18.5286C114.283 18.4025 114.023 18.2159 113.811 17.9813C113.734 17.8975 113.663 17.8086 113.598 17.7152L117.857 16.1645L119.684 15.4997C119.572 14.5801 119.156 13.7243 118.502 13.0675C118.108 12.6713 117.64 12.3569 117.124 12.1423C116.609 11.9277 116.056 11.8173 115.497 11.8173C114.938 11.8173 114.385 11.9277 113.869 12.1423C113.354 12.3569 112.885 12.6713 112.492 13.0675C111.698 13.8951 111.255 14.9973 111.255 16.1439C111.255 17.2904 111.698 18.3926 112.492 19.2202C112.879 19.6231 113.346 19.942 113.862 20.1571C114.379 20.3721 114.934 20.4787 115.493 20.4702C116.699 20.4975 117.867 20.0484 118.744 19.2202C118.925 19.0491 119.092 18.8633 119.242 18.6646L119.149 18.5955L117.674 17.7343ZM113.811 14.3065C114.026 14.0758 114.287 13.8918 114.577 13.7661C114.866 13.6403 115.178 13.5754 115.494 13.5754C115.81 13.5754 116.122 13.6403 116.412 13.7661C116.701 13.8918 116.962 14.0758 117.178 14.3065C117.249 14.3845 117.315 14.467 117.376 14.5534L113.131 16.0966C113.12 15.435 113.363 14.7945 113.81 14.3065" fill="black"/>
<path d="M19.3456 10.5066C19.3456 10.6317 19.3085 10.754 19.239 10.858C19.1695 10.962 19.0707 11.043 18.9552 11.0909C18.8396 11.1387 18.7125 11.1513 18.5898 11.1269C18.4671 11.1025 18.3545 11.0422 18.266 10.9538C18.1776 10.8654 18.1174 10.7527 18.093 10.63C18.0686 10.5073 18.0811 10.3802 18.1289 10.2646C18.1768 10.1491 18.2579 10.0503 18.3619 9.98084C18.4658 9.91136 18.5881 9.87427 18.7132 9.87427C18.8809 9.87427 19.0417 9.94089 19.1603 10.0595C19.2789 10.1781 19.3456 10.3389 19.3456 10.5066Z" fill="black"/>
<path d="M16.3302 7.97296C16.1738 7.97296 16.0209 8.01935 15.8908 8.10625C15.7608 8.19316 15.6594 8.31669 15.5995 8.46121C15.5396 8.60573 15.524 8.76476 15.5545 8.91819C15.585 9.07161 15.6604 9.21254 15.771 9.32316C15.8816 9.43377 16.0225 9.5091 16.1759 9.53961C16.3294 9.57013 16.4884 9.55447 16.6329 9.49461C16.7774 9.43474 16.901 9.33337 16.9879 9.2033C17.0748 9.07323 17.1212 8.92032 17.1212 8.76389C17.1212 8.55412 17.0378 8.35295 16.8895 8.20462C16.7412 8.05629 16.54 7.97296 16.3302 7.97296Z" fill="black"/>
<path d="M13.2907 7.4007C13.1057 7.4007 12.9249 7.45554 12.7711 7.55831C12.6173 7.66107 12.4974 7.80713 12.4267 7.97802C12.3559 8.1489 12.3374 8.33695 12.3734 8.51836C12.4095 8.69977 12.4986 8.86641 12.6294 8.9972C12.7602 9.12799 12.9268 9.21706 13.1082 9.25315C13.2896 9.28923 13.4777 9.27071 13.6486 9.19993C13.8195 9.12915 13.9655 9.00928 14.0683 8.85548C14.171 8.70169 14.2259 8.52087 14.2259 8.33591C14.2259 8.08787 14.1274 7.85 13.952 7.67461C13.7766 7.49923 13.5387 7.4007 13.2907 7.4007Z" fill="black"/>
<path d="M10.4813 8.2619C10.2608 8.2619 10.0453 8.32729 9.86193 8.44979C9.67859 8.57229 9.5357 8.7464 9.45132 8.95011C9.36694 9.15383 9.34486 9.37798 9.38788 9.59424C9.43089 9.8105 9.53707 10.0091 9.69299 10.1651C9.8489 10.321 10.0475 10.4272 10.2638 10.4702C10.4801 10.5132 10.7042 10.4911 10.9079 10.4067C11.1116 10.3224 11.2858 10.1795 11.4083 9.99612C11.5308 9.81279 11.5962 9.59724 11.5962 9.37675C11.5962 9.08107 11.4787 8.79751 11.2696 8.58843C11.0605 8.37936 10.777 8.2619 10.4813 8.2619Z" fill="black"/>
<path d="M8.51291 10.3372C8.27105 10.3372 8.03462 10.4089 7.83352 10.5433C7.63242 10.6777 7.47568 10.8687 7.38312 11.0921C7.29057 11.3156 7.26635 11.5614 7.31354 11.7987C7.36072 12.0359 7.47719 12.2538 7.64821 12.4248C7.81923 12.5958 8.03713 12.7123 8.27434 12.7595C8.51156 12.8067 8.75744 12.7824 8.98089 12.6899C9.20434 12.5973 9.39533 12.4406 9.5297 12.2395C9.66407 12.0384 9.73579 11.802 9.73579 11.5601C9.73579 11.2358 9.60695 10.9247 9.37762 10.6954C9.14828 10.4661 8.83724 10.3372 8.51291 10.3372Z" fill="black"/>
<path d="M7.77046 13.2052C7.51406 13.2052 7.26343 13.2812 7.05025 13.4237C6.83707 13.5661 6.67092 13.7686 6.5728 14.0054C6.47468 14.2423 6.44901 14.503 6.49903 14.7544C6.54905 15.0059 6.67251 15.2369 6.85381 15.4182C7.0351 15.5995 7.26609 15.7229 7.51755 15.773C7.76902 15.823 8.02967 15.7973 8.26654 15.6992C8.50341 15.6011 8.70587 15.4349 8.84832 15.2217C8.99076 15.0086 9.06679 14.7579 9.06679 14.5015C9.06679 14.1577 8.93021 13.828 8.6871 13.5849C8.44399 13.3418 8.11426 13.2052 7.77046 13.2052Z" fill="black"/>
<path d="M8.51291 16.217C8.27105 16.217 8.03462 16.2888 7.83352 16.4231C7.63242 16.5575 7.47568 16.7485 7.38312 16.9719C7.29057 17.1954 7.26635 17.4413 7.31354 17.6785C7.36072 17.9157 7.47719 18.1336 7.64821 18.3046C7.81923 18.4756 8.03713 18.5921 8.27434 18.6393C8.51156 18.6865 8.75744 18.6623 8.98089 18.5697C9.20434 18.4772 9.39533 18.3204 9.5297 18.1193C9.66407 17.9182 9.73579 17.6818 9.73579 17.4399C9.73579 17.1156 9.60695 16.8045 9.37762 16.5752C9.14828 16.3459 8.83724 16.217 8.51291 16.217Z" fill="black"/>
<path d="M10.4813 18.5085C10.2608 18.5085 10.0453 18.5739 9.86193 18.6964C9.67859 18.8189 9.5357 18.993 9.45132 19.1967C9.36694 19.4004 9.34486 19.6246 9.38788 19.8408C9.43089 20.0571 9.53707 20.2557 9.69299 20.4116C9.8489 20.5676 10.0475 20.6737 10.2638 20.7168C10.4801 20.7598 10.7042 20.7377 10.9079 20.6533C11.1116 20.5689 11.2858 20.426 11.4083 20.2427C11.5308 20.0594 11.5962 19.8438 11.5962 19.6233C11.5962 19.3277 11.4787 19.0441 11.2696 18.835C11.0605 18.6259 10.777 18.5085 10.4813 18.5085Z" fill="black"/>
<path d="M13.2907 19.7294C13.1057 19.7294 12.9249 19.7843 12.7711 19.887C12.6173 19.9898 12.4974 20.1359 12.4267 20.3068C12.3559 20.4776 12.3374 20.6657 12.3734 20.8471C12.4095 21.0285 12.4986 21.1951 12.6294 21.3259C12.7602 21.4567 12.9268 21.5458 13.1082 21.5819C13.2896 21.618 13.4777 21.5995 13.6486 21.5287C13.8195 21.4579 13.9655 21.338 14.0683 21.1842C14.171 21.0304 14.2259 20.8496 14.2259 20.6646C14.2259 20.4166 14.1274 20.1787 13.952 20.0034C13.7766 19.828 13.5387 19.7294 13.2907 19.7294Z" fill="black"/>
<path d="M16.3302 19.4443C16.1738 19.4443 16.0209 19.4907 15.8908 19.5776C15.7608 19.6645 15.6594 19.788 15.5995 19.9325C15.5396 20.077 15.524 20.2361 15.5545 20.3895C15.585 20.5429 15.6604 20.6839 15.771 20.7945C15.8816 20.9051 16.0225 20.9804 16.1759 21.0109C16.3294 21.0414 16.4884 21.0258 16.6329 20.9659C16.7774 20.9061 16.901 20.8047 16.9879 20.6746C17.0748 20.5446 17.1212 20.3916 17.1212 20.2352C17.1212 20.0254 17.0378 19.8243 16.8895 19.6759C16.7412 19.5276 16.54 19.4443 16.3302 19.4443Z" fill="black"/>
<path d="M18.7127 17.8603C18.5876 17.8603 18.4654 17.8974 18.3614 17.9669C18.2574 18.0363 18.1763 18.1351 18.1285 18.2507C18.0806 18.3662 18.0681 18.4934 18.0925 18.616C18.1169 18.7387 18.1771 18.8514 18.2655 18.9398C18.354 19.0282 18.4667 19.0885 18.5893 19.1129C18.712 19.1373 18.8391 19.1248 18.9547 19.0769C19.0702 19.029 19.169 18.948 19.2385 18.844C19.308 18.74 19.3451 18.6177 19.3451 18.4927C19.3451 18.3249 19.2784 18.1641 19.1599 18.0455C19.0413 17.9269 18.8804 17.8603 18.7127 17.8603Z" fill="black"/>
<path d="M21.403 19.4109C21.2466 19.4109 21.0936 19.4573 20.9636 19.5442C20.8335 19.6312 20.7321 19.7547 20.6723 19.8992C20.6124 20.0437 20.5967 20.2028 20.6273 20.3562C20.6578 20.5096 20.7331 20.6505 20.8437 20.7611C20.9543 20.8718 21.0953 20.9471 21.2487 20.9776C21.4021 21.0081 21.5611 20.9925 21.7057 20.9326C21.8502 20.8727 21.9737 20.7714 22.0606 20.6413C22.1475 20.5112 22.1939 20.3583 22.1939 20.2019C22.1939 19.9921 22.1106 19.7909 21.9623 19.6426C21.8139 19.4943 21.6128 19.4109 21.403 19.4109Z" fill="black"/>
<path d="M19.1901 21.2369C18.9839 21.2369 18.7823 21.2981 18.6109 21.4126C18.4395 21.5271 18.3058 21.6899 18.2269 21.8804C18.148 22.0709 18.1273 22.2805 18.1674 22.4827C18.2076 22.685 18.3069 22.8707 18.4526 23.0166C18.5984 23.1624 18.7841 23.2618 18.9863 23.3021C19.1885 23.3424 19.3981 23.3218 19.5886 23.243C19.7792 23.1642 19.9421 23.0306 20.0567 22.8593C20.1713 22.6879 20.2326 22.4864 20.2327 22.2802C20.2327 22.0036 20.1229 21.7383 19.9274 21.5427C19.7319 21.3471 19.4667 21.2371 19.1901 21.2369Z" fill="black"/>
<path d="M16.3904 22.3283C16.1485 22.3283 15.9121 22.4 15.711 22.5344C15.5099 22.6688 15.3531 22.8598 15.2606 23.0832C15.168 23.3067 15.1438 23.5525 15.191 23.7897C15.2382 24.027 15.3546 24.2449 15.5257 24.4159C15.6967 24.5869 15.9146 24.7034 16.1518 24.7506C16.389 24.7977 16.6349 24.7735 16.8583 24.681C17.0818 24.5884 17.2728 24.4317 17.4071 24.2306C17.5415 24.0295 17.6132 23.793 17.6132 23.5512C17.6132 23.2269 17.4844 22.9158 17.2551 22.6865C17.0257 22.4571 16.7147 22.3283 16.3904 22.3283Z" fill="black"/>
<path d="M13.2036 22.4684C12.9333 22.4684 12.6691 22.5486 12.4443 22.6988C12.2196 22.8489 12.0444 23.0624 11.9409 23.3121C11.8375 23.5619 11.8104 23.8367 11.8632 24.1018C11.9159 24.3669 12.0461 24.6104 12.2372 24.8016C12.4283 24.9927 12.6719 25.1229 12.937 25.1756C13.2021 25.2283 13.4769 25.2013 13.7266 25.0978C13.9764 24.9944 14.1898 24.8192 14.34 24.5944C14.4902 24.3697 14.5703 24.1055 14.5703 23.8352C14.5703 23.4727 14.4263 23.1251 14.17 22.8687C13.9137 22.6124 13.5661 22.4684 13.2036 22.4684Z" fill="black"/>
<path d="M10.1769 21.7709C9.92056 21.7709 9.66993 21.8469 9.45674 21.9894C9.24356 22.1318 9.07741 22.3343 8.97929 22.5711C8.88118 22.808 8.85551 23.0686 8.90552 23.3201C8.95554 23.5716 9.07901 23.8026 9.2603 23.9839C9.4416 24.1652 9.67258 24.2886 9.92405 24.3386C10.1755 24.3887 10.4362 24.363 10.673 24.2649C10.9099 24.1668 11.1124 24.0006 11.2548 23.7874C11.3973 23.5742 11.4733 23.3236 11.4733 23.0672C11.4733 22.7234 11.3367 22.3937 11.0936 22.1506C10.8505 21.9075 10.5208 21.7709 10.1769 21.7709Z" fill="black"/>
<path d="M7.63734 20.1406C7.3884 20.1406 7.14505 20.2144 6.93806 20.3527C6.73107 20.4911 6.56974 20.6876 6.47447 20.9176C6.37921 21.1476 6.35428 21.4007 6.40285 21.6449C6.45141 21.889 6.57129 22.1133 6.74732 22.2893C6.92335 22.4654 7.14762 22.5852 7.39178 22.6338C7.63594 22.6824 7.88902 22.6574 8.11902 22.5622C8.34901 22.4669 8.54559 22.3056 8.68389 22.0986C8.8222 21.8916 8.89602 21.6482 8.89602 21.3993C8.89602 21.0655 8.76341 20.7453 8.52736 20.5093C8.29131 20.2732 7.97116 20.1406 7.63734 20.1406Z" fill="black"/>
<path d="M5.76539 17.8232C5.52927 17.8232 5.29845 17.8933 5.10212 18.0244C4.90579 18.1556 4.75277 18.3421 4.66241 18.5602C4.57205 18.7784 4.54841 19.0184 4.59447 19.25C4.64054 19.4816 4.75424 19.6943 4.92121 19.8613C5.08817 20.0283 5.3009 20.142 5.53248 20.188C5.76407 20.2341 6.00412 20.2104 6.22227 20.1201C6.44041 20.0297 6.62687 19.8767 6.75805 19.6804C6.88924 19.484 6.95925 19.2532 6.95925 19.0171C6.95925 18.7005 6.83347 18.3968 6.60958 18.1729C6.38569 17.949 6.08203 17.8232 5.76539 17.8232Z" fill="black"/>
<path d="M4.7422 14.9485C4.51473 14.9485 4.29236 15.0159 4.10319 15.1422C3.91402 15.2686 3.76654 15.4481 3.67938 15.6582C3.59222 15.8683 3.56928 16.0996 3.61348 16.3227C3.65768 16.5458 3.76703 16.7509 3.9277 16.9119C4.08837 17.0729 4.29317 17.1827 4.51621 17.2274C4.73925 17.2721 4.97053 17.2496 5.18083 17.1629C5.39112 17.0762 5.571 16.9291 5.69773 16.7402C5.82446 16.5513 5.89236 16.3291 5.89285 16.1016C5.89318 15.9503 5.86365 15.8004 5.80597 15.6605C5.74829 15.5206 5.66359 15.3935 5.55671 15.2864C5.44983 15.1793 5.32287 15.0943 5.18311 15.0363C5.04334 14.9783 4.89351 14.9485 4.7422 14.9485Z" fill="black"/>
<path d="M4.74207 11.7478C4.51452 11.7479 4.29212 11.8155 4.10298 11.942C3.91383 12.0685 3.76645 12.2483 3.67945 12.4585C3.59246 12.6688 3.56976 12.9001 3.61423 13.1233C3.65869 13.3465 3.76833 13.5514 3.92928 13.7123C4.09022 13.8732 4.29525 13.9827 4.51844 14.027C4.74162 14.0714 4.97295 14.0486 5.18317 13.9615C5.39339 13.8743 5.57306 13.7269 5.69947 13.5377C5.82587 13.3484 5.89334 13.126 5.89334 12.8985C5.89334 12.5933 5.77211 12.3006 5.55632 12.0848C5.34054 11.869 5.04786 11.7478 4.74269 11.7478" fill="black"/>
<path d="M5.76508 8.79584C5.53025 8.79572 5.30066 8.86525 5.10535 8.99564C4.91004 9.12603 4.7578 9.31142 4.66787 9.52835C4.57795 9.74528 4.55439 9.98402 4.60017 10.2143C4.64596 10.4447 4.75903 10.6562 4.92508 10.8223C5.09113 10.9883 5.3027 11.1014 5.53303 11.1472C5.76336 11.193 6.00209 11.1694 6.21902 11.0795C6.43596 10.9896 6.62134 10.8373 6.75173 10.642C6.88212 10.4467 6.95166 10.2171 6.95153 9.98229C6.95153 9.66762 6.82653 9.36585 6.60403 9.14334C6.38153 8.92084 6.07975 8.79584 5.76508 8.79584Z" fill="black"/>
<path d="M7.63734 6.34204C7.3884 6.34204 7.14505 6.41586 6.93806 6.55417C6.73107 6.69247 6.56974 6.88905 6.47447 7.11904C6.37921 7.34903 6.35428 7.60211 6.40285 7.84627C6.45141 8.09043 6.57129 8.31471 6.74732 8.49074C6.92335 8.66677 7.14762 8.78664 7.39178 8.83521C7.63594 8.88378 7.88902 8.85885 8.11902 8.76359C8.34901 8.66832 8.54559 8.50699 8.68389 8.3C8.8222 8.09301 8.89602 7.84966 8.89602 7.60072C8.89602 7.2669 8.76341 6.94675 8.52736 6.7107C8.29131 6.47465 7.97116 6.34204 7.63734 6.34204Z" fill="black"/>
<path d="M10.1769 4.63953C9.92056 4.63953 9.66993 4.71556 9.45674 4.858C9.24356 5.00044 9.07741 5.2029 8.97929 5.43977C8.88118 5.67665 8.85551 5.9373 8.90552 6.18876C8.95554 6.44023 9.07901 6.67121 9.2603 6.85251C9.4416 7.0338 9.67258 7.15726 9.92405 7.20728C10.1755 7.2573 10.4362 7.23163 10.673 7.13352C10.9099 7.0354 11.1124 6.86925 11.2548 6.65606C11.3973 6.44288 11.4733 6.19225 11.4733 5.93586C11.4733 5.59205 11.3367 5.26232 11.0936 5.01921C10.8505 4.7761 10.5208 4.63953 10.1769 4.63953Z" fill="black"/>
<path d="M13.2034 3.79816C12.933 3.79767 12.6685 3.87741 12.4434 4.02729C12.2184 4.17717 12.0428 4.39045 11.939 4.64013C11.8352 4.88982 11.8077 5.1647 11.8602 5.42998C11.9126 5.69526 12.0426 5.93901 12.2337 6.13039C12.4247 6.32178 12.6682 6.45219 12.9334 6.50513C13.1986 6.55806 13.4735 6.53114 13.7234 6.42777C13.9733 6.3244 14.1868 6.14923 14.3371 5.92442C14.4874 5.69961 14.5676 5.43528 14.5676 5.16486C14.5676 4.80239 14.4236 4.45476 14.1673 4.19846C13.911 3.94215 13.5634 3.79816 13.2009 3.79816" fill="black"/>
<path d="M16.3904 4.22473C16.1485 4.22473 15.9121 4.29645 15.711 4.43082C15.5099 4.56519 15.3531 4.75618 15.2606 4.97963C15.168 5.20308 15.1438 5.44896 15.191 5.68618C15.2382 5.92339 15.3546 6.14129 15.5257 6.31231C15.6967 6.48333 15.9146 6.5998 16.1518 6.64698C16.389 6.69417 16.6349 6.66995 16.8583 6.57739C17.0818 6.48484 17.2728 6.3281 17.4071 6.127C17.5415 5.9259 17.6132 5.68947 17.6132 5.44761C17.6132 5.12328 17.4844 4.81224 17.2551 4.5829C17.0257 4.35357 16.7147 4.22473 16.3904 4.22473Z" fill="black"/>
<path d="M19.1903 5.6803C18.984 5.68018 18.7822 5.74126 18.6106 5.85581C18.4389 5.97037 18.3051 6.13326 18.2261 6.32388C18.147 6.5145 18.1263 6.72428 18.1665 6.92668C18.2066 7.12909 18.3059 7.31504 18.4518 7.461C18.5977 7.60696 18.7836 7.70638 18.986 7.74669C19.1884 7.78699 19.3981 7.76637 19.5888 7.68742C19.7795 7.60848 19.9424 7.47477 20.0571 7.30319C20.1718 7.13162 20.233 6.9299 20.233 6.72354C20.233 6.44696 20.1231 6.1817 19.9276 5.98607C19.7321 5.79045 19.4669 5.68046 19.1903 5.6803Z" fill="black"/>
<path d="M21.403 8.0069C21.2466 8.0069 21.0936 8.05328 20.9636 8.14019C20.8335 8.2271 20.7321 8.35062 20.6723 8.49515C20.6124 8.63967 20.5967 8.7987 20.6273 8.95212C20.6578 9.10555 20.7331 9.24648 20.8437 9.35709C20.9543 9.46771 21.0953 9.54303 21.2487 9.57355C21.4021 9.60407 21.5611 9.58841 21.7057 9.52854C21.8502 9.46868 21.9737 9.3673 22.0606 9.23724C22.1475 9.10717 22.1939 8.95425 22.1939 8.79782C22.1939 8.58805 22.1106 8.38688 21.9623 8.23855C21.8139 8.09023 21.6128 8.0069 21.403 8.0069Z" fill="black"/>
<path d="M24.2331 20.6783C24.034 20.6783 23.8393 20.7373 23.6738 20.848C23.5082 20.9586 23.3792 21.1158 23.303 21.2998C23.2268 21.4838 23.2068 21.6862 23.2457 21.8815C23.2845 22.0768 23.3804 22.2562 23.5212 22.397C23.662 22.5378 23.8414 22.6337 24.0367 22.6726C24.232 22.7114 24.4345 22.6915 24.6184 22.6153C24.8024 22.5391 24.9596 22.41 25.0703 22.2445C25.1809 22.0789 25.24 21.8842 25.24 21.6851C25.24 21.4181 25.1339 21.162 24.9451 20.9732C24.7562 20.7844 24.5002 20.6783 24.2331 20.6783Z" fill="black"/>
<path d="M22.1469 22.6944C21.8905 22.6944 21.6399 22.7704 21.4267 22.9129C21.2135 23.0553 21.0474 23.2578 20.9493 23.4946C20.8511 23.7315 20.8255 23.9922 20.8755 24.2436C20.9255 24.4951 21.049 24.7261 21.2303 24.9074C21.4116 25.0887 21.6425 25.2121 21.894 25.2621C22.1455 25.3122 22.4061 25.2865 22.643 25.1884C22.8799 25.0903 23.0823 24.9241 23.2248 24.7109C23.3672 24.4978 23.4432 24.2471 23.4432 23.9907C23.4432 23.6469 23.3067 23.3172 23.0636 23.0741C22.8205 22.831 22.4907 22.6944 22.1469 22.6944Z" fill="black"/>
<path d="M19.5525 24.3518C19.2822 24.3518 19.018 24.432 18.7932 24.5821C18.5684 24.7323 18.3933 24.9458 18.2898 25.1955C18.1864 25.4452 18.1593 25.72 18.2121 25.9851C18.2648 26.2503 18.395 26.4938 18.5861 26.6849C18.7772 26.8761 19.0208 27.0062 19.2859 27.059C19.551 27.1117 19.8258 27.0846 20.0755 26.9812C20.3252 26.8777 20.5387 26.7026 20.6889 26.4778C20.839 26.2531 20.9192 25.9888 20.9192 25.7185C20.9192 25.356 20.7752 25.0084 20.5189 24.7521C20.2626 24.4958 19.915 24.3518 19.5525 24.3518Z" fill="black"/>
<path d="M16.5576 25.4679C16.3012 25.4679 16.0505 25.5439 15.8374 25.6864C15.6242 25.8288 15.458 26.0313 15.3599 26.2681C15.2618 26.505 15.2361 26.7657 15.2861 27.0171C15.3362 27.2686 15.4596 27.4996 15.6409 27.6809C15.8222 27.8622 16.0532 27.9856 16.3047 28.0356C16.5561 28.0857 16.8168 28.06 17.0536 27.9619C17.2905 27.8638 17.493 27.6976 17.6354 27.4844C17.7779 27.2712 17.8539 27.0206 17.8539 26.7642C17.8539 26.4204 17.7173 26.0907 17.4742 25.8476C17.2311 25.6045 16.9014 25.4679 16.5576 25.4679Z" fill="black"/>
<path d="M13.2852 25.8618C13.0576 25.8618 12.8351 25.9292 12.6459 26.0557C12.4567 26.1821 12.3092 26.3618 12.2221 26.5721C12.135 26.7823 12.1122 27.0137 12.1566 27.2369C12.201 27.4601 12.3106 27.6651 12.4715 27.826C12.6325 27.987 12.8375 28.0965 13.0607 28.1409C13.2839 28.1853 13.5153 28.1626 13.7255 28.0755C13.9358 27.9884 14.1155 27.8409 14.2419 27.6517C14.3683 27.4624 14.4358 27.24 14.4358 27.0124C14.4358 26.7072 14.3146 26.4146 14.0988 26.1988C13.883 25.983 13.5903 25.8618 13.2852 25.8618Z" fill="black"/>
<path d="M10.1197 25.3821C9.91332 25.3821 9.71162 25.4433 9.54006 25.5579C9.3685 25.6725 9.23479 25.8355 9.15583 26.0261C9.07687 26.2167 9.05621 26.4265 9.09646 26.6288C9.13672 26.8312 9.23608 27.0171 9.38197 27.163C9.52787 27.3089 9.71376 27.4083 9.91613 27.4485C10.1185 27.4888 10.3283 27.4681 10.5189 27.3891C10.7095 27.3102 10.8724 27.1765 10.9871 27.0049C11.1017 26.8333 11.1629 26.6316 11.1629 26.4253C11.1629 26.1486 11.053 25.8833 10.8573 25.6876C10.6617 25.492 10.3963 25.3821 10.1197 25.3821Z" fill="black"/>
<path d="M7.2851 24.1444C7.09733 24.1444 6.91377 24.2001 6.75764 24.3044C6.60151 24.4087 6.47982 24.557 6.40796 24.7305C6.3361 24.904 6.3173 25.0949 6.35394 25.279C6.39057 25.4632 6.48099 25.6324 6.61377 25.7652C6.74655 25.8979 6.91572 25.9884 7.09988 26.025C7.28405 26.0616 7.47495 26.0428 7.64843 25.971C7.82191 25.8991 7.97019 25.7774 8.07451 25.6213C8.17883 25.4652 8.23451 25.2816 8.23451 25.0938C8.23451 24.842 8.13449 24.6005 7.95644 24.4225C7.77839 24.2444 7.5369 24.1444 7.2851 24.1444Z" fill="black"/>
<path d="M4.89114 22.2561C4.71909 22.2561 4.5509 22.3071 4.40785 22.4027C4.26479 22.4983 4.1533 22.6342 4.08746 22.7931C4.02162 22.9521 4.00439 23.127 4.03796 23.2957C4.07152 23.4644 4.15437 23.6194 4.27603 23.7411C4.39768 23.8628 4.55268 23.9456 4.72143 23.9792C4.89017 24.0127 5.06508 23.9955 5.22403 23.9297C5.38298 23.8638 5.51884 23.7523 5.61443 23.6093C5.71001 23.4662 5.76103 23.298 5.76103 23.126C5.76103 22.8953 5.66938 22.674 5.50624 22.5109C5.34311 22.3478 5.12185 22.2561 4.89114 22.2561Z" fill="black"/>
<path d="M3.04685 19.8813C2.89823 19.8813 2.75295 19.9254 2.62937 20.008C2.5058 20.0906 2.40949 20.2079 2.35261 20.3452C2.29574 20.4825 2.28085 20.6336 2.30985 20.7794C2.33884 20.9252 2.41041 21.059 2.5155 21.1641C2.62059 21.2692 2.75449 21.3408 2.90025 21.3698C3.04602 21.3988 3.19711 21.3839 3.33442 21.327C3.47172 21.2702 3.58908 21.1738 3.67165 21.0503C3.75422 20.9267 3.79829 20.7814 3.79829 20.6328C3.79829 20.4335 3.71912 20.2424 3.5782 20.1014C3.43728 19.9605 3.24615 19.8813 3.04685 19.8813Z" fill="black"/>
<path d="M1.86058 17.0461C1.7277 17.0461 1.5978 17.0855 1.48731 17.1593C1.37683 17.2331 1.29071 17.3381 1.23986 17.4608C1.18901 17.5836 1.17571 17.7187 1.20163 17.849C1.22755 17.9793 1.29154 18.099 1.3855 18.193C1.47946 18.287 1.59918 18.351 1.7295 18.3769C1.85983 18.4028 1.99492 18.3895 2.11768 18.3387C2.24045 18.2878 2.34538 18.2017 2.4192 18.0912C2.49303 17.9807 2.53243 17.8508 2.53243 17.7179C2.53243 17.5397 2.46165 17.3689 2.33565 17.2429C2.20965 17.1169 2.03876 17.0461 1.86058 17.0461Z" fill="black"/>
<path d="M1.44072 13.8669C1.31565 13.8669 1.19339 13.904 1.08939 13.9735C0.985401 14.043 0.904349 14.1418 0.856486 14.2573C0.808624 14.3729 0.796101 14.5 0.820501 14.6227C0.844901 14.7454 0.905128 14.858 0.993567 14.9465C1.08201 15.0349 1.19468 15.0951 1.31735 15.1195C1.44002 15.1439 1.56717 15.1314 1.68272 15.0835C1.79827 15.0357 1.89703 14.9546 1.96652 14.8506C2.036 14.7466 2.07309 14.6244 2.07309 14.4993C2.07309 14.3316 2.00647 14.1708 1.88787 14.0522C1.76928 13.9336 1.60844 13.8669 1.44072 13.8669Z" fill="black"/>
<path d="M1.86058 10.6064C1.7277 10.6064 1.5978 10.6458 1.48731 10.7196C1.37683 10.7934 1.29071 10.8984 1.23986 11.0211C1.18901 11.1439 1.17571 11.279 1.20163 11.4093C1.22755 11.5396 1.29154 11.6594 1.3855 11.7533C1.47946 11.8473 1.59918 11.9113 1.7295 11.9372C1.85983 11.9631 1.99492 11.9498 2.11768 11.899C2.24045 11.8481 2.34538 11.762 2.4192 11.6515C2.49303 11.541 2.53243 11.4111 2.53243 11.2782C2.53243 11.1001 2.46165 10.9292 2.33565 10.8032C2.20965 10.6772 2.03876 10.6064 1.86058 10.6064Z" fill="black"/>
<path d="M3.04685 7.61554C2.89823 7.61554 2.75295 7.65961 2.62937 7.74218C2.5058 7.82475 2.40949 7.94211 2.35261 8.07941C2.29574 8.21672 2.28085 8.36781 2.30985 8.51358C2.33884 8.65935 2.41041 8.79324 2.5155 8.89833C2.62059 9.00342 2.75449 9.07499 2.90025 9.10398C3.04602 9.13298 3.19711 9.1181 3.33442 9.06122C3.47172 9.00435 3.58908 8.90803 3.67165 8.78446C3.75422 8.66088 3.79829 8.5156 3.79829 8.36698C3.79829 8.16769 3.71912 7.97655 3.5782 7.83563C3.43728 7.69471 3.24615 7.61554 3.04685 7.61554Z" fill="black"/>
<path d="M4.89114 5.00439C4.71909 5.00439 4.5509 5.05541 4.40785 5.151C4.26479 5.24658 4.1533 5.38244 4.08746 5.5414C4.02162 5.70035 4.00439 5.87525 4.03796 6.044C4.07152 6.21274 4.15437 6.36774 4.27603 6.4894C4.39768 6.61106 4.55268 6.69391 4.72143 6.72747C4.89017 6.76104 5.06508 6.74381 5.22403 6.67797C5.38298 6.61213 5.51884 6.50063 5.61443 6.35758C5.71001 6.21452 5.76103 6.04634 5.76103 5.87429C5.76103 5.76005 5.73853 5.64694 5.69481 5.5414C5.6511 5.43585 5.58702 5.33996 5.50624 5.25918C5.42547 5.1784 5.32957 5.11433 5.22403 5.07061C5.11849 5.0269 5.00537 5.00439 4.89114 5.00439Z" fill="black"/>
<path d="M7.2851 2.95679C7.09733 2.95679 6.91377 3.01247 6.75764 3.11679C6.60151 3.22111 6.47982 3.36939 6.40796 3.54287C6.3361 3.71636 6.3173 3.90725 6.35394 4.09142C6.39057 4.27558 6.48099 4.44475 6.61377 4.57753C6.74655 4.71031 6.91572 4.80073 7.09988 4.83736C7.28405 4.874 7.47495 4.8552 7.64843 4.78334C7.82191 4.71148 7.97019 4.58979 8.07451 4.43366C8.17883 4.27753 8.23451 4.09397 8.23451 3.9062C8.23451 3.6544 8.13449 3.41291 7.95644 3.23486C7.77839 3.05681 7.5369 2.95679 7.2851 2.95679Z" fill="black"/>
<path d="M10.1197 1.53204C9.91332 1.53204 9.71162 1.59323 9.54006 1.70786C9.3685 1.82249 9.23479 1.98543 9.15583 2.17605C9.07687 2.36668 9.05621 2.57644 9.09646 2.77881C9.13672 2.98118 9.23608 3.16707 9.38197 3.31296C9.52787 3.45886 9.71376 3.55822 9.91613 3.59848C10.1185 3.63873 10.3283 3.61807 10.5189 3.53911C10.7095 3.46015 10.8724 3.32644 10.9871 3.15488C11.1017 2.98332 11.1629 2.78162 11.1629 2.57528C11.1629 2.2986 11.053 2.03325 10.8573 1.8376C10.6617 1.64196 10.3963 1.53204 10.1197 1.53204Z" fill="black"/>
<path d="M13.2852 0.836975C13.0576 0.836975 12.8351 0.90446 12.6459 1.03089C12.4567 1.15733 12.3092 1.33704 12.2221 1.54729C12.135 1.75754 12.1122 1.9889 12.1566 2.21211C12.201 2.43531 12.3106 2.64034 12.4715 2.80126C12.6325 2.96218 12.8375 3.07177 13.0607 3.11617C13.2839 3.16056 13.5153 3.13778 13.7255 3.05069C13.9358 2.9636 14.1155 2.81612 14.2419 2.62689C14.3683 2.43767 14.4358 2.2152 14.4358 1.98763C14.4358 1.68245 14.3146 1.38978 14.0988 1.17399C13.883 0.958204 13.5903 0.836975 13.2852 0.836975Z" fill="black"/>
<path d="M16.5576 0.942505C16.3012 0.942505 16.0505 1.01853 15.8374 1.16098C15.6242 1.30342 15.458 1.50588 15.3599 1.74275C15.2618 1.97963 15.2361 2.24028 15.2861 2.49174C15.3362 2.7432 15.4596 2.97419 15.6409 3.15548C15.8222 3.33678 16.0532 3.46024 16.3047 3.51026C16.5561 3.56028 16.8168 3.53461 17.0536 3.43649C17.2905 3.33838 17.493 3.17222 17.6354 2.95904C17.7779 2.74586 17.8539 2.49523 17.8539 2.23884C17.8539 1.89503 17.7173 1.5653 17.4742 1.32219C17.2311 1.07908 16.9014 0.942505 16.5576 0.942505Z" fill="black"/>
<path d="M19.5525 1.91479C19.2822 1.91479 19.018 1.99495 18.7932 2.14513C18.5684 2.2953 18.3933 2.50875 18.2898 2.75848C18.1864 3.00822 18.1593 3.28302 18.2121 3.54813C18.2648 3.81325 18.395 4.05677 18.5861 4.24791C18.7772 4.43904 19.0208 4.56921 19.2859 4.62194C19.551 4.67468 19.8258 4.64761 20.0755 4.54417C20.3252 4.44073 20.5387 4.26555 20.6889 4.0408C20.839 3.81605 20.9192 3.55181 20.9192 3.2815C20.9192 2.91903 20.7752 2.5714 20.5189 2.31509C20.2626 2.05879 19.915 1.91479 19.5525 1.91479Z" fill="black"/>
<path d="M22.1469 3.71606C21.8905 3.71606 21.6399 3.79209 21.4267 3.93454C21.2135 4.07698 21.0474 4.27944 20.9493 4.51631C20.8511 4.75319 20.8255 5.01384 20.8755 5.2653C20.9255 5.51676 21.049 5.74775 21.2303 5.92904C21.4116 6.11034 21.6425 6.2338 21.894 6.28382C22.1455 6.33384 22.4061 6.30817 22.643 6.21005C22.8799 6.11194 23.0823 5.94578 23.2248 5.7326C23.3672 5.51942 23.4432 5.26879 23.4432 5.0124C23.4432 4.66859 23.3067 4.33886 23.0636 4.09575C22.8205 3.85264 22.4907 3.71606 22.1469 3.71606Z" fill="black"/>
<path d="M24.2331 6.30811C24.034 6.30811 23.8393 6.36716 23.6738 6.47779C23.5082 6.58842 23.3792 6.74566 23.303 6.92963C23.2268 7.1136 23.2068 7.31604 23.2457 7.51134C23.2845 7.70665 23.3804 7.88605 23.5212 8.02685C23.662 8.16766 23.8414 8.26355 24.0367 8.3024C24.232 8.34125 24.4345 8.32131 24.6184 8.2451C24.8024 8.1689 24.9596 8.03985 25.0703 7.87428C25.1809 7.70871 25.24 7.51405 25.24 7.31492C25.24 7.0479 25.1339 6.79181 24.9451 6.603C24.7562 6.41418 24.5002 6.30811 24.2331 6.30811Z" fill="black"/>
</svg>
