<svg width="58" height="41" viewBox="0 0 58 41" fill="none" xmlns="http://www.w3.org/2000/svg">
<g clip-path="url(#clip0_153_350)">
<path d="M55.7521 20.4655C55.3993 20.1759 55.0173 19.9238 54.6123 19.7134L54.5024 19.6586L54.5983 19.5761C55.1753 19.0397 55.6273 18.3829 55.9223 17.6524C56.2172 16.9219 56.348 16.1355 56.3053 15.3488C56.3016 13.2913 55.5993 11.7561 54.1984 10.7847C53.0172 9.94965 51.3843 9.54137 49.2032 9.54525L42.9484 9.55649C42.7745 9.55913 42.6085 9.62955 42.4858 9.75275C42.363 9.87594 42.2933 10.0422 42.2913 10.2161L42.3281 30.723C42.3285 30.8976 42.3981 31.0649 42.5218 31.1882C42.6455 31.3114 42.8131 31.3805 42.9877 31.3802L50.1342 31.3674C52.3836 31.3633 54.1934 30.8799 55.4948 29.9311C56.2413 29.3909 56.8354 28.6667 57.2194 27.829C57.6444 26.8853 57.8535 25.8587 57.8313 24.824C57.8366 23.9876 57.6522 23.1609 57.2921 22.4061C56.932 21.6512 56.4054 20.9877 55.7521 20.4655ZM44.3238 11.5982L49.2071 11.5894C50.9354 11.5863 52.2116 11.872 53.0356 12.4465C53.5574 12.816 54.272 13.528 54.2753 15.3524C54.2812 18.6169 51.7029 18.8821 50.921 18.8834L44.3369 18.8953L44.3238 11.5982ZM50.1306 29.3373L44.3557 29.3477L44.3406 20.9253L50.9247 20.9135C53.7778 20.9084 55.7833 22.523 55.7874 24.8277C55.7895 25.9388 55.7955 29.3272 50.1306 29.3373Z" fill="black"/>
<path d="M14.286 12.8591C13.3659 11.741 12.1808 10.8707 10.8385 10.3276C9.61395 9.85149 8.3103 9.6118 6.99652 9.62118L1.05715 9.63186C0.881085 9.63531 0.713446 9.7079 0.590464 9.83394C0.467482 9.95998 0.399034 10.1294 0.399911 10.3055L0.436764 30.7984C0.437123 30.9731 0.506816 31.1404 0.630517 31.2636C0.754218 31.3869 0.9218 31.4559 1.09641 31.4556L7.03572 31.4449C8.35015 31.4565 9.65426 31.2119 10.8751 30.7247C12.2175 30.1867 13.4007 29.3158 14.3135 28.1942C16.4076 25.6118 16.7173 22.3602 16.7142 20.6456C16.7115 19.1922 16.4718 15.5296 14.286 12.8591ZM12.7338 26.9077C12.0332 27.7274 11.1566 28.3786 10.1694 28.8127C9.18223 29.2468 8.10983 29.4526 7.03207 29.4148L2.47806 29.423L2.4462 11.6735L7.00016 11.6653C8.07816 11.6202 9.15232 11.8205 10.1416 12.2512C11.1309 12.6818 12.0094 13.3315 12.7109 14.1512C14.5256 16.3703 14.6687 19.6894 14.6704 20.6492C14.673 22.0899 14.4309 24.8196 12.7338 26.9077Z" fill="black"/>
<path d="M37.3772 0.746338L37.4313 30.8692C37.4341 31.0002 37.3942 31.1286 37.3177 31.235C37.2412 31.3415 37.1322 31.4202 37.0071 31.4593C36.9466 31.4862 36.8813 31.5005 36.8151 31.5012C36.7158 31.5013 36.618 31.4778 36.5296 31.4325C36.4413 31.3872 36.365 31.3215 36.3071 31.2408L22.8476 14.1605L22.8945 40.25L20.8506 40.2536L20.7964 10.0625C20.7964 9.93013 20.839 9.80131 20.9178 9.69503C20.9967 9.58876 21.1076 9.51068 21.2343 9.47233C21.2954 9.44876 21.361 9.43927 21.4263 9.44455C21.5242 9.44324 21.6211 9.46474 21.7093 9.50736C21.7974 9.54999 21.8745 9.61255 21.9343 9.69011L35.3938 26.7845L35.347 0.74998L37.3772 0.746338Z" fill="black"/>
</g>
<defs>
<clipPath id="clip0_153_350">
<rect width="57.4584" height="39.5073" fill="black" transform="translate(0.381348 0.746338)"/>
</clipPath>
</defs>
</svg>
