<svg width="104" height="33" viewBox="0 0 104 33" fill="none" xmlns="http://www.w3.org/2000/svg">
<g opacity="0.982">
<path fill-rule="evenodd" clip-rule="evenodd" d="M10.5031 0.618469C11.1637 0.618469 11.8244 0.618469 12.485 0.618469C15.1495 0.902271 17.426 1.99139 19.3143 3.88583C19.35 3.9394 19.35 3.99296 19.3143 4.04652C18.5622 4.8165 17.7945 5.56639 17.0111 6.29619C14.4528 3.86253 11.5336 3.31797 8.25346 4.6625C5.09936 6.37262 3.69779 9.02401 4.04873 12.6167C4.14128 13.1654 4.28411 13.701 4.47724 14.2236C6.80259 18.535 9.14149 22.838 11.494 27.1323C13.6544 23.2044 15.8148 19.2764 17.9752 15.3484C18.2514 14.8496 18.4835 14.3319 18.6715 13.7951C19.8685 12.5891 21.0737 11.3929 22.2871 10.2063C22.5323 12.2164 22.2377 14.1447 21.4033 15.9912C18.9402 20.5963 16.4227 25.167 13.8508 29.7034C12.7281 30.7788 11.4516 31.002 10.021 30.3729C9.64375 30.1566 9.31342 29.8799 9.03013 29.5427C6.50328 24.9891 4.00367 20.4184 1.53126 15.8305C1.08432 14.7565 0.789721 13.6495 0.647461 12.5095C0.647461 11.8132 0.647461 11.1169 0.647461 10.4206C1.20348 6.28435 3.36387 3.31157 7.12863 1.50226C8.21854 1.04685 9.34337 0.752253 10.5031 0.618469Z" fill="black"/>
<path fill-rule="evenodd" clip-rule="evenodd" d="M22.3942 3.40376C23.2885 3.28114 23.9581 3.60252 24.4028 4.3679C24.6012 4.8842 24.5654 5.38413 24.2957 5.86768C20.2613 9.99147 16.1994 14.0355 12.11 17.9998C11.357 18.3489 10.6249 18.3131 9.91392 17.8927C8.36953 16.3304 6.82508 14.7681 5.28069 13.2059C4.98399 11.9476 5.07326 10.7156 5.54851 9.50999C5.62223 9.31325 5.72043 9.13472 5.84311 8.97435C7.60561 10.7279 9.33747 12.5043 11.0388 14.3039C11.0745 14.3396 11.1102 14.3396 11.1459 14.3039C14.6632 10.7866 18.1805 7.26927 21.6979 3.75193C21.92 3.60516 22.1521 3.48911 22.3942 3.40376Z" fill="black"/>
<path fill-rule="evenodd" clip-rule="evenodd" d="M32.6784 7.95665C36.892 7.9477 41.1057 7.95665 45.3193 7.98343C46.3567 8.35286 46.7406 9.07596 46.4709 10.1527C46.2672 10.6611 45.9012 10.9914 45.3729 11.1437C41.7842 11.1705 38.1954 11.1794 34.6066 11.1705C34.6066 12.6524 34.6066 14.1343 34.6066 15.6162C37.2313 15.6073 39.8559 15.6162 42.4804 15.643C43.5445 15.9218 43.9819 16.6092 43.7928 17.7052C43.5767 18.3141 43.1571 18.698 42.534 18.8568C39.8916 18.8836 37.2491 18.8925 34.6066 18.8836C34.6323 21.2786 34.6055 23.6711 34.5263 26.0611C34.1436 26.9054 33.492 27.2357 32.5712 27.052C31.9731 26.8824 31.5892 26.4985 31.4196 25.9004C31.3311 20.4742 31.3132 15.0465 31.3661 9.61711C31.4183 8.75314 31.8557 8.19961 32.6784 7.95665Z" fill="black"/>
<path fill-rule="evenodd" clip-rule="evenodd" d="M76.8681 7.95665C78.2072 7.87657 78.8768 8.50144 78.8768 9.83137C78.5902 10.8986 77.903 11.336 76.8146 11.1437C76.257 10.9947 75.8906 10.6465 75.7165 10.0992C75.4974 9.0547 75.8815 8.34054 76.8681 7.95665Z" fill="black"/>
<path fill-rule="evenodd" clip-rule="evenodd" d="M81.9566 7.95665C82.9631 7.83067 83.6326 8.24134 83.9653 9.18861C84.0081 13.0098 83.9996 16.8306 83.9385 20.6512C83.9171 22.1929 84.6493 23.1838 86.1346 23.6239C86.7586 23.759 87.3837 23.8839 88.0093 23.9989C88.779 24.459 89.0559 25.1285 88.8395 26.0075C88.4523 26.8843 87.7827 27.2324 86.8309 27.052C84.9005 26.9123 83.2845 26.1357 81.9834 24.722C81.2962 23.8647 80.9213 22.8827 80.8586 21.776C80.805 21.1343 80.7691 20.4915 80.7515 19.8477C80.7397 16.2768 80.7574 12.7059 80.805 9.13504C80.9845 8.5361 81.3685 8.14326 81.9566 7.95665Z" fill="black"/>
<path fill-rule="evenodd" clip-rule="evenodd" d="M57.0497 13.1523C57.9999 13.0509 58.6336 13.4437 58.9512 14.3307C58.9871 18.1694 58.9871 22.0081 58.9512 25.8468C58.8055 26.4748 58.4214 26.8765 57.7996 27.052C56.829 27.2587 56.1595 26.9106 55.7909 26.0075C53.8114 27.2004 51.7314 27.4057 49.5508 26.6235C46.7352 25.4036 45.2533 23.2521 45.1051 20.1691C45.2085 17.8642 46.1548 15.9984 47.9439 14.5717C50.072 13.1404 52.3395 12.8725 54.7465 13.7683C55.1343 13.9397 55.5001 14.145 55.8445 14.3843C56.0432 13.766 56.445 13.3554 57.0497 13.1523ZM51.7469 16.4732C53.4221 16.4632 54.6452 17.1952 55.416 18.6693C56.048 20.3645 55.6999 21.8197 54.3715 23.0347C52.8671 24.1223 51.3495 24.1402 49.8186 23.0883C48.4932 21.951 48.0915 20.5494 48.6135 18.8836C49.2326 17.523 50.2771 16.7196 51.7469 16.4732Z" fill="black"/>
<path fill-rule="evenodd" clip-rule="evenodd" d="M77.2966 13.2059C78.1253 13.2225 78.6877 13.6152 78.9839 14.3843C79.0198 18.223 79.0198 22.0617 78.9839 25.9004C78.7337 26.6637 78.2072 27.0565 77.4038 27.0788C76.5676 27.0376 76.0411 26.6091 75.8236 25.7933C75.7878 22.0438 75.7878 18.2944 75.8236 14.5449C76.039 13.7849 76.5296 13.3385 77.2966 13.2059Z" fill="black"/>
<path fill-rule="evenodd" clip-rule="evenodd" d="M67.1196 13.2594C69.7346 13.1684 71.8321 14.1504 73.4133 16.2054C73.7904 17.08 73.6029 17.8032 72.8509 18.3747C72.2606 18.6959 71.6714 18.6959 71.0833 18.3747C70.7796 18.0887 70.4941 17.7853 70.2263 17.4641C68.7645 16.286 67.2289 16.1789 65.6198 17.1428C64.1324 18.3551 63.713 19.8638 64.3611 21.6689C65.0644 23.0525 66.1983 23.7846 67.7624 23.865C68.6735 23.8198 69.4769 23.5074 70.1727 22.9276C70.4598 22.5872 70.763 22.2658 71.0833 21.9635C71.8926 21.5581 72.6157 21.6741 73.2526 22.3116C73.7304 23.0394 73.7122 23.7536 73.199 24.4542C71.2065 26.7138 68.7335 27.5083 65.7805 26.8377C62.9304 25.8795 61.279 23.9065 60.8259 20.919C60.6427 17.8301 61.8832 15.518 64.5486 13.9825C65.3654 13.5731 66.2224 13.3321 67.1196 13.2594Z" fill="black"/>
<path fill-rule="evenodd" clip-rule="evenodd" d="M103.489 14.4914C103.489 18.4372 103.489 22.383 103.489 26.3289C102.848 29.7199 100.83 31.7374 97.4365 32.3815C97.0079 32.3815 96.5794 32.3815 96.1509 32.3815C95.0572 31.9063 94.7267 31.1029 95.16 29.9712C95.4021 29.5681 95.7503 29.3092 96.2045 29.1945C98.3203 29.184 99.6593 28.1663 100.222 26.1414C99.8725 26.2979 99.5153 26.4586 99.1505 26.6235C96.2233 27.6108 93.6608 27.0305 91.4641 24.8827C90.5305 23.8009 89.9413 22.5511 89.6966 21.1332C89.6441 18.8447 89.6617 16.5593 89.7501 14.2771C90.2365 13.3529 90.9778 13.0583 91.973 13.3933C92.4272 13.633 92.7218 13.9991 92.8568 14.4914C92.8745 16.4732 92.8927 18.4551 92.9104 20.4369C93.2253 22.5371 94.4391 23.6798 96.5527 23.865C98.7488 23.6866 99.9807 22.5082 100.249 20.3298C100.266 18.3837 100.284 16.4375 100.302 14.4914C100.626 13.5616 101.277 13.1598 102.257 13.2862C102.874 13.4835 103.285 13.8853 103.489 14.4914Z" fill="black"/>
</g>
</svg>
