<svg width="104" height="13" viewBox="0 0 104 13" fill="none" xmlns="http://www.w3.org/2000/svg">
<g clip-path="url(#clip0_672_4933)">
<path d="M67.2927 12.2605H64.4739V0.756653L73.5396 0.764119C73.5396 0.764119 75.1994 0.702206 76.2553 1.74535C76.2553 1.74535 77.333 2.64531 77.333 4.84499V12.2588H74.5215V4.65337C74.5215 4.65337 74.5562 3.87764 74.2919 3.6054C74.2919 3.6054 74.0581 3.30971 73.6139 3.30971H67.2858L67.2917 12.2564L67.2927 12.2605ZM79.2922 12.2586V1.48812V0.765243H90.6045V3.32174L82.0938 3.32108V5.27561H88.0063V7.74423H82.0938V9.70537H90.6573V12.2625H79.2856L79.2922 12.2586ZM59.5618 12.2586V1.48812V0.765243H62.3687V12.2625H59.5618V12.2586ZM94.645 12.2586V3.31843H91.9954V0.761939H102.535V3.31843H97.4539V12.2586H94.647H94.645ZM50.2913 12.2586V3.31843H47.6416V0.761939H58.1808V3.31843H53.1002V12.2586H50.2933H50.2913ZM41.8269 5.26768C42.5128 5.2624 42.9231 5.26835 43.0883 5.16778C43.0883 5.16778 43.3765 5.0084 43.3798 4.66639L43.3805 3.91444C43.3805 3.57084 43.089 3.41305 43.089 3.41305C42.8701 3.29412 42.4992 3.31645 41.6188 3.31559H36.1503V5.26749H41.9524L41.8269 5.26768ZM43.3394 12.2586V8.33495C43.3394 7.98223 43.0446 7.83442 43.0446 7.83442C42.9116 7.75183 42.5134 7.73696 41.9272 7.73696H42.0635H36.1503V12.2579H33.3434V1.48746V0.764582H42.1051C43.6182 0.769207 44.6629 0.991753 45.3825 1.69031C46.0895 2.41054 46.1833 3.35279 46.1873 4.33337V5.15205C46.1964 5.98527 45.7586 6.74515 45.2364 7.18786L45.3414 7.23993C45.5545 7.34314 45.671 7.48937 45.671 7.48937C46.0682 7.99651 46.0633 8.43294 46.0625 8.96948V12.2607H43.3395L43.3394 12.2586ZM0.891947 0.761278V1.48481V12.2553H3.69887V7.73828H12.2029V5.26835H3.69887V3.31513H13.5839V0.758635H0.890625L0.891947 0.761278Z" fill="black"/>
<path d="M101.586 10.2254V10.7532H102.078C102.211 10.7532 102.34 10.7169 102.36 10.5194C102.388 10.2576 102.198 10.2254 102.078 10.2254H101.586ZM101.389 10.0519H102.074C102.311 10.0519 102.541 10.0966 102.561 10.4426C102.569 10.6408 102.509 10.7127 102.359 10.8258C102.517 10.9266 102.521 10.9506 102.545 11.2165C102.561 11.418 102.533 11.4503 102.618 11.5832H102.384L102.352 11.3899C102.32 11.2082 102.408 10.9266 102.09 10.9266H101.586V11.5833H101.389L101.389 10.0519ZM101.904 9.62906C101.228 9.62906 100.676 10.1808 100.681 10.862C100.681 11.5387 101.228 12.0904 101.909 12.0871C102.586 12.0871 103.138 11.5387 103.138 10.8581C103.138 10.1808 102.586 9.62906 101.904 9.62906ZM101.909 12.247C101.14 12.247 100.519 11.6267 100.519 10.8581C100.516 10.0923 101.14 9.46783 101.909 9.46783C102.675 9.46783 103.299 10.0923 103.299 10.8581C103.299 11.6272 102.675 12.2444 101.909 12.247Z" fill="black"/>
<path d="M29.4841 12.3729C30.3959 12.0631 31.1056 11.013 31.2761 9.69284V9.31125H26.6012V12.3732H29.4834L29.4841 12.3729ZM31.2767 3.69708V3.35183C31.0975 1.97414 30.3352 0.888503 29.3632 0.633448H26.6018V3.69675L31.2767 3.69708ZM14.8237 9.31158V9.68987C14.993 11.0114 15.7025 12.0633 16.617 12.3732H19.4848V9.31125L14.8237 9.31158ZM16.7366 0.635761C15.766 0.890948 15.0015 1.97711 14.8237 3.35678V3.69959H19.4848V0.636289L16.7366 0.635761ZM31.28 4.97433H26.6051V8.03763H31.28V4.97433ZM20.7607 12.3749H25.3338V9.31291H20.7607V12.3749ZM25.3338 0.633118H20.7607V3.69642H25.3338V0.633118ZM14.8277 8.03367H19.4887V4.97037H14.8277V8.03367Z" fill="black"/>
</g>
<defs>
<clipPath id="clip0_672_4933">
<rect width="103.079" height="12.4822" fill="black" transform="translate(0.533936 0.258911)"/>
</clipPath>
</defs>
</svg>
