<svg width="76" height="11" viewBox="0 0 76 11" fill="none" xmlns="http://www.w3.org/2000/svg">
<path fill-rule="evenodd" clip-rule="evenodd" d="M0.226074 10.6832H8.3964L10.1337 6.61691H18.2033L16.4786 10.6832H24.7622L29.3195 0.586731H20.9351L19.4119 4.02356H11.3926L12.8529 0.586731H4.68261L0.226074 10.6832Z" fill="black"/>
<path fill-rule="evenodd" clip-rule="evenodd" d="M47.3471 3.94799C55.1398 3.94799 55.1398 3.94799 55.1398 3.94799C55.0139 2.22329 53.4025 1.11545 50.1923 0.624472C43.7592 -0.357477 36.8226 0.00760357 31.8751 2.71426C27.9096 4.92994 27.6704 8.12757 31.51 9.7138C34.8587 11.0608 41.6568 11.1867 46.6044 10.3307C49.8272 9.83969 52.1687 8.73185 53.541 7.25892C45.6224 7.25892 45.6224 7.25892 45.6224 7.25892C44.6405 8.00168 43.2683 8.36677 41.6694 8.49266C37.2129 8.49266 36.596 7.14562 37.4647 5.5468C38.3333 3.8221 40.3098 2.71426 43.2808 2.71426C45.6098 2.58837 46.7303 3.07934 47.3471 3.94799Z" fill="black"/>
<path fill-rule="evenodd" clip-rule="evenodd" d="M67.6282 0.586731L64.1284 8.17796H75.7607L74.8166 10.6832H54.6362L59.1935 0.586731H67.6282Z" fill="black"/>
</svg>
