<svg width="53" height="53" viewBox="0 0 53 53" fill="none" xmlns="http://www.w3.org/2000/svg">
<g clip-path="url(#clip0_150_227)">
<path d="M16.9631 44.2173V49.1705C16.9631 50.5774 16.2666 51.3281 15.0009 51.3281C13.7282 51.3281 13.0275 50.5557 13.0275 49.1104V44.2227H11.2764V49.1705C11.2764 51.6049 12.6256 53 14.9779 53C17.3524 53 18.7142 51.5782 18.7142 49.0991V44.2173H16.9631ZM23.4055 44.2173L19.6025 52.8651H21.3898L22.1239 51.1903L22.1765 51.0648H26.1274L26.9022 52.8651H28.7382L24.9705 44.2685L24.9366 44.2173L23.4055 44.2173ZM33.817 44.2173L31.8573 50.1676L29.9496 44.2217H28.0861L31.0942 52.8705H32.5442L34.5079 47.189L36.4701 52.8705H37.9324L40.9331 44.2217H39.1173L37.2056 50.1676L35.2454 44.2173H33.817ZM50.9527 44.2173V52.8577H52.6807V44.2173H50.9527ZM1.39038 44.2178V52.8701H3.14191V49.356H7.09673V52.8701H8.84875V44.2178H7.09673V47.7082H3.14191V44.2178H1.39038ZM42.3453 44.2237V52.8641H48.8643V51.2887H44.0733V49.1463H47.2591V47.5704H44.0733V45.7991H48.6974V44.2237H42.3453ZM24.1475 46.4069L25.3962 49.3038H25.3918L25.4768 49.5036H22.8276L22.9116 49.3038H22.9101L24.1475 46.4069Z" fill="black"/>
<path d="M23.2011 -0.000193558C22.5064 0.0613986 20.629 0.489708 20.629 0.489708H20.6282C16.3966 1.58598 15.3964 5.43488 15.3964 5.43488C15.1898 6.0821 15.0959 6.74539 15.0683 7.37029V8.22082C15.1245 9.5349 15.416 10.5161 15.416 10.5161C16.8295 16.7982 23.7795 27.1206 25.2732 29.289C25.3791 29.3943 25.464 29.3563 25.464 29.3563C25.6252 29.3116 25.6126 29.1567 25.6126 29.1567L25.6157 29.1574C27.9163 6.10915 23.2012 -0.000171234 23.2012 -0.000171234L23.2011 -0.000193558ZM30.8029 -0.000193558C30.8029 -0.000193558 26.0672 6.11238 28.3696 29.1741H28.3726C28.3904 29.3205 28.4941 29.351 28.4941 29.351C28.6481 29.4108 28.7271 29.2624 28.7271 29.2624L28.7279 29.2639C30.2599 27.0401 37.1702 16.774 38.5775 10.516C38.5775 10.516 39.3405 7.48712 38.6039 5.43476C38.6039 5.43476 37.5578 1.52626 33.3208 0.493381C33.3208 0.493381 32.0998 0.182701 30.803 -0.000305176L30.8029 -0.000193558ZM8.9593 6.91894C8.9593 6.91894 4.92735 10.7546 4.72696 14.8209H4.72856V15.4371C4.73162 15.4835 4.73396 15.5304 4.73688 15.5777C4.91056 18.8566 7.37163 20.7973 7.37163 20.7973C11.3369 24.6708 20.9384 29.5613 23.1696 30.6709C23.2008 30.6827 23.3161 30.7204 23.3838 30.6347C23.3838 30.6347 23.419 30.6079 23.4351 30.5598V30.4576C23.4335 30.4518 23.4304 30.4459 23.4275 30.4395H23.4283C17.3182 17.0611 8.95939 6.91881 8.95939 6.91881L8.9593 6.91894ZM45.0349 6.91894C45.0349 6.91894 36.7013 17.0294 30.594 30.3807L30.5963 30.3799C30.5963 30.3799 30.5242 30.5347 30.6408 30.6347C30.6408 30.6347 30.6756 30.661 30.7238 30.6717H30.8083C30.8234 30.6673 30.8397 30.6615 30.8558 30.6505V30.6519C33.1475 29.5119 42.6747 24.6536 46.6213 20.7979C46.6213 20.7979 49.1206 18.7863 49.2515 15.5564C49.5401 11.0705 45.035 6.9188 45.035 6.9188L45.0349 6.91894ZM52.5356 20.2008C52.5356 20.2008 38.9493 27.5086 31.9245 32.2579L31.9253 32.2586L31.9269 32.2601C31.9269 32.2601 31.7994 32.3438 31.844 32.4937C31.844 32.4937 31.9106 32.6147 32.0076 32.6147V32.6155C34.5238 32.6199 44.0451 32.6306 44.2838 32.586C44.2838 32.586 45.5149 32.5367 47.0362 31.9509C47.0362 31.9509 50.4229 30.8717 52.182 27.0178C52.182 27.0178 52.9858 25.4064 52.9974 23.1424V23.0465C52.9915 22.1734 52.8688 21.2069 52.5358 20.2008H52.5356ZM1.45482 20.2349C0.218671 24.0705 1.88284 27.1611 1.88553 27.1661C3.6198 30.8389 6.93025 31.9517 6.93025 31.9517C8.45865 32.5811 9.9874 32.6246 9.9874 32.6246C10.2261 32.6684 19.4937 32.629 21.9769 32.6173C22.082 32.6165 22.1398 32.5106 22.1398 32.5106C22.1471 32.4989 22.1536 32.4872 22.1565 32.4765V32.3806C22.1359 32.3164 22.081 32.271 22.081 32.271L22.0826 32.2702C15.0614 27.5225 1.45493 20.2351 1.45493 20.2351L1.45482 20.2349ZM21.6933 33.7965L5.71055 34.3582C7.44381 37.455 10.3628 39.8618 13.4036 39.1227C15.502 38.5968 20.2559 35.2733 21.8253 34.1503L21.82 34.1459C21.9421 34.036 21.8985 33.9478 21.8985 33.9478C21.8583 33.804 21.6933 33.8041 21.6933 33.8041L21.6933 33.7965ZM32.2791 33.8081L32.2775 33.814C32.2775 33.814 32.1371 33.8318 32.0979 33.9372C32.0979 33.9372 32.0638 34.0812 32.1583 34.1526L32.1567 34.1541C33.6869 35.2539 38.3256 38.5044 40.5603 39.1356C40.5603 39.1356 40.8988 39.251 41.4662 39.2716H41.8071C43.3043 39.219 45.9126 38.448 48.2827 34.3665L32.2791 33.8081Z" fill="black"/>
</g>
<defs>
<clipPath id="clip0_150_227">
<rect width="52" height="53" fill="black" transform="translate(0.997314)"/>
</clipPath>
</defs>
</svg>
