<svg width="62" height="39" viewBox="0 0 62 39" fill="none" xmlns="http://www.w3.org/2000/svg">
<g clip-path="url(#clip0_331_2320)">
<path d="M6.54688 37.9941H54.719L30.7607 13.8412L6.54688 37.9941Z" fill="black"/>
<path d="M5.62666 36.8064L9.37971 33.1154L8.12962 31.8229L5.77236 34.1422L1.61977 29.8499L0.223633 31.2231L5.62666 36.8064Z" fill="black"/>
<path d="M10.2032 32.2748L14.0488 28.4915L12.9927 27.4009L10.551 29.8023L9.37843 28.5904L11.3351 26.6658L10.23 25.5247L8.27335 27.4482L7.26876 26.4102L9.63019 24.0871L8.57483 22.9968L4.74146 26.7675L10.2032 32.2748Z" fill="black"/>
<path d="M22.7901 14.3398C21.2392 12.737 18.5488 12.9287 17.2532 14.2034C15.9572 15.478 15.2958 18.0196 17.1259 19.9109C19.1361 21.9879 21.5278 21.2335 22.8238 19.9596C24.7346 18.0802 24.0544 15.6463 22.7901 14.3398ZM21.6502 18.862C20.7924 19.7058 19.7436 19.4769 18.5453 18.2383C17.5383 17.1979 17.5988 16.1525 18.3311 15.4321C18.8346 14.9368 19.8573 14.4936 21.074 15.7511C22.4622 17.1856 22.508 18.0182 21.6502 18.862Z" fill="black"/>
<path d="M27.1158 15.6708L28.5345 14.2749L26.4001 12.0695L25.1226 6.71088L23.4962 8.31083L24.3423 11.3509L21.4839 10.2897L19.9504 11.7979L24.8235 13.3754L27.1158 15.6708Z" fill="black"/>
<path d="M19.5511 23.1195C19.5511 23.1195 16.0981 21.9318 15.934 21.9606C15.8808 21.9693 16.6757 19.8369 14.8898 18.8918C14.8898 18.8918 13.5646 18.1686 12.2383 19.3832L9.41162 22.1916L14.8609 27.7241L16.3026 26.3061L13.3538 23.2597L18.1205 24.5267L19.5511 23.1195ZM14.203 22.3599C13.4018 23.1465 13.2937 23.2086 13.2937 23.2086C13.2937 23.2086 12.0377 21.9108 11.9932 21.8649C11.9487 21.8189 12.8914 21.0042 13.0398 20.8581C13.1028 20.796 13.6897 20.41 14.1755 20.9117C14.1755 20.9117 15.0038 21.5718 14.203 22.3599Z" fill="black"/>
<path d="M26.6754 7.76675L25.4146 6.4851L30.9191 0.980957L32.7207 2.81193L30.7376 6.74662L34.7807 4.90583L36.5141 6.66809L31.0095 12.1722L29.6809 10.8219L32.5865 7.91679L28.6116 9.7348L27.7899 8.89941L29.6374 4.89601L26.6754 7.76675Z" fill="black"/>
<path d="M36.2329 17.4815L32.4163 13.6025L37.9212 8.09839L41.7486 11.9889L40.6366 13.1009L38.2387 10.6638L37.3419 11.5602L39.2332 13.4826L38.0752 14.6402L36.1954 12.7293L34.9922 13.9321L37.3676 16.3464L36.2329 17.4815Z" fill="black"/>
<path d="M48.8184 19.1747L50.2368 20.6169L46.0713 24.7815L48.4015 27.1492L47.062 28.4894L43.3135 24.6792L48.8184 19.1747Z" fill="black"/>
<path d="M48.0525 29.4966L53.5574 23.9924L54.9421 25.3996L49.4372 30.9034L48.0525 29.4966Z" fill="black"/>
<path d="M51.9475 33.4561L50.6526 32.1398L56.1578 26.636L58.038 28.5458L56.4315 34.2607L60.0754 30.6169L61.3362 31.8986L55.8317 37.4024L54.1876 35.7323L55.6032 29.7328L51.9475 33.4561Z" fill="black"/>
<path d="M46.3308 16.6461L42.9873 13.2474L37.4709 18.7403L38.8893 20.1818L41.8969 17.1747L40.8144 22.1386L42.2665 23.6148C42.2665 23.6148 43.4112 20.064 43.4463 19.9161C43.4463 19.9161 44.6867 20.6049 46.0477 19.4253C46.0477 19.4253 47.3531 18.1429 46.3308 16.6461ZM44.2892 18.2558C44.2892 18.2558 43.5865 18.7315 42.9672 18.1023L41.9998 17.0723C41.9998 17.0723 43.1685 15.9036 43.3159 15.756C43.3159 15.756 44.2166 16.6716 44.3292 16.7859C44.4415 16.9002 45.1516 17.4387 44.2892 18.2558Z" fill="black"/>
</g>
<defs>
<clipPath id="clip0_331_2320">
<rect width="61.1128" height="37.0381" fill="black" transform="translate(0.223877 0.980957)"/>
</clipPath>
</defs>
</svg>
