<svg width="68" height="41" viewBox="0 0 68 41" fill="none" xmlns="http://www.w3.org/2000/svg">
<g clip-path="url(#clip0_24_339)">
<path d="M7.61615 40.8387H60.064L33.9792 14.7543L7.61615 40.8387Z" fill="#7BB51C"/>
<path d="M6.61401 39.556L10.7002 35.5698L9.33914 34.1739L6.77264 36.6787L2.25147 32.0432L0.731415 33.5262L6.61401 39.556Z" fill="white"/>
<path d="M11.5971 34.662L15.7839 30.5762L14.6342 29.3984L11.9757 31.9917L10.699 30.6829L12.8294 28.6044L11.6262 27.3721L9.49587 29.4495L8.40211 28.3285L10.9731 25.8195L9.82411 24.6421L5.65049 28.7142L11.5971 34.662Z" fill="white"/>
<path d="M25.3011 15.2927C23.6125 13.5618 20.6833 13.7689 19.2727 15.1454C17.8617 16.522 17.1416 19.2668 19.1341 21.3093C21.3228 23.5525 23.9268 22.7377 25.3378 21.3619C27.4182 19.3323 26.6776 16.7037 25.3011 15.2927ZM24.06 20.1766C23.126 21.0878 21.9842 20.8406 20.6795 19.503C19.5831 18.3794 19.649 17.2504 20.4463 16.4724C20.9945 15.9374 22.108 15.4589 23.4327 16.8169C24.944 18.3661 24.994 19.2653 24.06 20.1766Z" fill="white"/>
<path d="M30.0104 16.7302L31.555 15.2227L29.2312 12.8409L27.8403 7.05372L26.0696 8.78163L26.9907 12.0648L23.8787 10.9188L22.2091 12.5475L27.5147 14.2512L30.0104 16.7302Z" fill="white"/>
<path d="M21.7744 24.7746C21.7744 24.7746 18.015 23.4919 17.8363 23.523C17.7784 23.5324 18.6438 21.2294 16.6994 20.2087C16.6994 20.2087 15.2566 19.4277 13.8126 20.7395L10.735 23.7724L16.668 29.7474L18.2376 28.216L15.0271 24.926L20.2169 26.2943L21.7744 24.7746ZM15.9517 23.9542C15.0794 24.8037 14.9616 24.8707 14.9616 24.8707C14.9616 24.8707 13.5942 23.4692 13.5457 23.4196C13.4972 23.37 14.5236 22.4901 14.6853 22.3323C14.7538 22.2653 15.3929 21.8484 15.9218 22.3902C15.9218 22.3902 16.8236 23.1031 15.9517 23.9542Z" fill="white"/>
<path d="M29.5311 8.19405L28.1583 6.80991L34.1514 0.865601L36.1129 2.843L33.9538 7.09234L38.3557 5.10434L40.243 7.00754L34.2499 12.9518L32.8033 11.4935L35.9668 8.35609L31.6391 10.3195L30.7445 9.41729L32.756 5.09374L29.5311 8.19405Z" fill="white"/>
<path d="M39.9371 18.6857L35.7817 14.4965L41.7752 8.5522L45.9424 12.7538L44.7316 13.9547L42.1209 11.3228L41.1445 12.2908L43.2036 14.367L41.9429 15.6171L39.8962 13.5534L38.5863 14.8524L41.1725 17.4598L39.9371 18.6857Z" fill="white"/>
<path d="M53.6396 20.5143L55.1839 22.0718L50.6487 26.5695L53.1857 29.1265L51.7273 30.5739L47.6461 26.459L53.6396 20.5143Z" fill="white"/>
<path d="M52.8059 31.6616L58.7995 25.7173L60.307 27.237L54.3135 33.1809L52.8059 31.6616Z" fill="white"/>
<path d="M57.0466 35.9378L55.6367 34.5162L61.6306 28.5723L63.6776 30.6348L61.9285 36.8067L65.8958 32.8716L67.2686 34.2557L61.2755 40.1997L59.4855 38.396L61.0267 31.9168L57.0466 35.9378Z" fill="white"/>
<path d="M50.9311 17.7835L47.2909 14.113L41.2849 20.0452L42.8292 21.602L46.1037 18.3544L44.9251 23.7153L46.5061 25.3095C46.5061 25.3095 47.7525 21.4748 47.7907 21.315C47.7907 21.315 49.1411 22.0589 50.623 20.785C50.623 20.785 52.0442 19.4001 50.9311 17.7835ZM48.7084 19.522C48.7084 19.522 47.9433 20.0357 47.269 19.3561L46.2157 18.2438C46.2157 18.2438 47.4882 16.9816 47.6487 16.8222C47.6487 16.8222 48.6293 17.8111 48.7519 17.9345C48.8742 18.0579 49.6473 18.6395 48.7084 19.522Z" fill="white"/>
</g>
<defs>
<clipPath id="clip0_24_339">
<rect width="66.5372" height="40" fill="white" transform="translate(0.731415 0.865601)"/>
</clipPath>
</defs>
</svg>
