<svg width="46" height="47" viewBox="0 0 46 47" fill="none" xmlns="http://www.w3.org/2000/svg">
<path d="M39.0103 23.6073C39.4556 23.8868 39.8296 24.136 40.2214 24.3698C41.5088 25.1156 42.8005 25.8545 44.0965 26.5866C45.0022 27.0951 45.6078 27.8019 45.7782 28.8745C46.0073 30.2931 44.8802 31.8439 43.4477 31.9989C42.7254 32.0941 41.992 31.9485 41.3613 31.5846C38.3081 29.805 35.2295 28.0254 32.1508 26.2713C31.1586 25.7046 30.5631 24.9113 30.492 23.7673C30.4156 22.5725 31.0008 21.6904 31.9727 21.1007C33.6774 20.0709 35.4152 19.0998 37.1403 18.1058L41.1221 15.8179C41.6309 15.523 42.1399 15.2332 42.7633 15.2002C43.3798 15.1627 43.9923 15.3241 44.5104 15.6604C45.0283 15.9968 45.4246 16.4904 45.6408 17.0688C46.1116 18.355 45.6129 19.6693 44.4425 20.4295C43.6793 20.9378 42.8599 21.3624 42.0661 21.8226C41.1756 22.331 40.2851 22.8394 39.392 23.3631C39.2851 23.4013 39.1885 23.4826 39.0103 23.6073Z" fill="#32C0F0"/>
<path d="M6.94924 23.5766C6.07649 23.0681 5.27249 22.5978 4.46338 22.1301C3.51689 21.5834 2.57295 21.0292 1.61882 20.4981C0.346647 19.799 -0.162209 18.1973 0.290673 17.0634C0.9573 15.3679 2.78157 14.6585 4.38706 15.5383C5.61342 16.2119 6.81428 16.9312 8.02792 17.6303C9.90067 18.7134 11.7682 19.8065 13.6535 20.8718C14.4931 21.3445 15.1369 21.9521 15.3709 22.9054C15.5199 23.4136 15.5127 23.9547 15.3504 24.4588C15.1878 24.9627 14.8778 25.4065 14.46 25.7323C13.9225 26.1432 13.3524 26.5096 12.7553 26.828C10.0312 28.4178 7.30287 29.9947 4.57024 31.559C3.60594 32.1209 2.58821 32.2201 1.57048 31.6633C1.1929 31.4612 0.867987 31.1735 0.621816 30.8233C0.375646 30.4731 0.215067 30.0701 0.152974 29.6468C0.0908807 29.2233 0.128985 28.7912 0.264253 28.3851C0.39952 27.979 0.628164 27.6103 0.931842 27.3086C1.40365 26.8892 1.9218 26.5249 2.47626 26.223C3.84765 25.4069 5.23686 24.6213 6.61844 23.8206C6.71 23.7698 6.78882 23.7011 6.94924 23.5766Z" fill="#32C0F0"/>
<path d="M14.8463 9.88719V9.08642C14.8463 7.25087 14.8463 5.4129 14.8463 3.57745C14.8523 2.85891 15.1276 2.16872 15.618 1.64306C16.1082 1.11738 16.7779 0.794411 17.4948 0.737834C18.795 0.664105 20.4463 1.60471 20.4845 3.47577C20.5099 4.87397 20.4845 6.27217 20.4845 7.67549C20.4845 10.0143 20.4845 12.3531 20.4845 14.692C20.5031 15.3214 20.3084 15.9387 19.9321 16.444C19.5557 16.9492 19.0197 17.3126 18.4108 17.4756C18.02 17.5829 17.6114 17.6101 17.2096 17.5559C16.8078 17.5017 16.4211 17.3673 16.0726 17.1604C14.0372 15.9859 12.0092 14.8199 9.98912 13.6622L6.75015 11.7963C6.24464 11.5303 5.82079 11.1323 5.5238 10.6447C5.19915 10.1055 5.06601 9.47269 5.14589 8.84849C5.22577 8.22445 5.51399 7.64546 5.96397 7.20516C6.41075 6.76086 6.99281 6.47774 7.61831 6.40043C8.24398 6.32311 8.87748 6.45596 9.4191 6.77806C10.3529 7.30178 11.2715 7.85597 12.1976 8.38976C13.0474 8.86513 13.8972 9.3405 14.8463 9.88719Z" fill="#32C0F0"/>
<path d="M14.8468 37.3198L12.0327 38.9367C11.1802 39.4274 10.3331 39.9306 9.47557 40.4111C8.8783 40.7675 8.17315 40.8984 7.48776 40.7805C6.8022 40.6625 6.18153 40.3034 5.73798 39.7679C4.90853 38.7638 4.89836 37.1494 5.81685 36.2215C6.25459 35.7967 6.74542 35.4301 7.27725 35.1309C10.127 33.4659 12.9944 31.8262 15.8517 30.1762C16.6786 29.6984 17.5258 29.4466 18.48 29.7542C19.0654 29.9161 19.5804 30.2669 19.945 30.7521C20.3097 31.2374 20.5031 31.8296 20.4951 32.4362C20.5104 33.8776 20.4951 35.3217 20.4951 36.7579C20.4951 39.0307 20.4951 41.3042 20.4951 43.5787C20.5055 44.3097 20.2292 45.0156 19.7251 45.5453C19.221 46.0752 18.5293 46.3867 17.7982 46.4132C17.4194 46.4293 17.0413 46.3689 16.6866 46.2359C16.3316 46.1029 16.0072 45.8999 15.7326 45.639C15.4577 45.3781 15.2384 45.0646 15.0876 44.7171C14.9367 44.3697 14.8574 43.9955 14.8543 43.6168C14.8238 41.8018 14.8543 39.9866 14.8543 38.1741L14.8468 37.3198Z" fill="#32C0F0"/>
<path d="M31.1457 9.84883L33.2652 8.63373C34.3083 8.03711 35.3498 7.43723 36.3896 6.83382C37.0969 6.42454 37.8475 6.21354 38.654 6.44995C39.888 6.80841 40.6412 7.63713 40.8014 8.91082C40.9439 10.0624 40.4096 10.9445 39.4732 11.5775C38.7304 12.086 37.934 12.4953 37.1579 12.9427C34.7535 14.3307 32.3415 15.706 29.9448 17.1068C28.6726 17.8466 27.0645 17.6762 26.1283 16.5424C25.7219 16.0766 25.4932 15.4824 25.4821 14.8646C25.4821 11.0819 25.4821 7.29901 25.4821 3.51882C25.486 2.88936 25.7012 2.27943 26.093 1.78652C26.4848 1.29362 27.0307 0.946208 27.6435 0.799827C28.2563 0.653431 28.9004 0.716504 29.473 0.978993C30.0456 1.24147 30.5137 1.68818 30.8022 2.24772C31.0024 2.68239 31.1073 3.15474 31.1101 3.63321C31.1457 5.41274 31.1253 7.17448 31.1253 8.9464L31.1457 9.84883Z" fill="#32C0F0"/>
<path d="M31.145 37.4217V43.5788C31.1423 44.3153 30.8514 45.0216 30.3342 45.5465C29.8173 46.0715 29.1151 46.3733 28.3781 46.3876C27.641 46.402 26.9277 46.1275 26.3906 45.6229C25.8536 45.1185 25.5353 44.424 25.5042 43.6881C25.4634 42.6713 25.5042 41.6315 25.5042 40.6045C25.5042 37.8894 25.5042 35.1744 25.5042 32.4696C25.497 32.0848 25.5698 31.7026 25.7183 31.3475C25.8666 30.9924 26.0874 30.672 26.3663 30.4067C26.6453 30.1413 26.9765 29.9369 27.3387 29.8061C27.701 29.6754 28.0866 29.6216 28.4708 29.6477C28.9501 29.6829 29.416 29.8207 29.8372 30.0519C32.9591 31.8313 36.0605 33.6262 39.1698 35.4184C39.5996 35.639 39.971 35.9585 40.2532 36.3505C40.5353 36.7427 40.7204 37.196 40.793 37.6733C41.0246 39.1172 39.8491 40.6706 38.3861 40.7977C37.6407 40.8691 36.8921 40.6959 36.2539 40.3044C34.7274 39.3969 33.2008 38.525 31.6538 37.6377C31.4885 37.5558 31.3186 37.4837 31.145 37.4217Z" fill="#32C0F0"/>
<path d="M28.2325 23.5975C28.3471 24.2102 28.0747 24.6424 27.655 25.0517C26.5583 26.1168 25.4872 27.21 24.4008 28.2905C24.2184 28.4765 24.0007 28.6242 23.7603 28.725C23.5201 28.826 23.2621 28.8779 23.0013 28.8779C22.7407 28.8779 22.4827 28.826 22.2425 28.725C22.0021 28.6242 21.7844 28.4765 21.602 28.2905C20.4841 27.1821 19.3707 26.0737 18.2613 24.9652C17.8971 24.6004 17.6913 24.1071 17.6884 23.5918C17.6856 23.0766 17.8858 22.5808 18.246 22.212C19.3707 21.0816 20.4995 19.9538 21.6325 18.8284C21.9964 18.4795 22.4806 18.2837 22.9848 18.2814C23.4891 18.279 23.9751 18.4702 24.3422 18.8157C25.4439 19.9063 26.5252 21.0224 27.6499 22.0976C28.085 22.5247 28.3521 22.9798 28.2325 23.5975ZM23.0243 21.7188C22.8638 21.7565 22.71 21.8192 22.5689 21.9044C22.1315 22.2965 21.7162 22.7123 21.3247 23.1502C21.0703 23.4526 21.0982 23.7755 21.3807 24.1009C21.7108 24.4777 22.0643 24.8335 22.4391 25.166C22.5083 25.2458 22.594 25.3097 22.6901 25.3535C22.7862 25.3973 22.8907 25.42 22.9963 25.42C23.102 25.42 23.2064 25.3973 23.3026 25.3535C23.3987 25.3097 23.4842 25.2458 23.5535 25.166C23.9142 24.8491 24.2541 24.5095 24.5712 24.1492C24.9274 23.745 24.9173 23.3992 24.5483 22.9875C24.2429 22.6466 23.9175 22.3239 23.5738 22.0214C23.4033 21.8993 23.2187 21.7978 23.0243 21.7188Z" fill="#32C0F0"/>
</svg>
