<svg width="569" height="421" viewBox="0 0 569 421" fill="none" xmlns="http://www.w3.org/2000/svg">
<rect x="0.282227" y="0.947754" width="568" height="420" rx="12" fill="url(#paint0_diamond_1556_4565)"/>
<circle cx="72.4234" cy="153.185" r="3.2877" fill="#AB9FE6" fill-opacity="0.2"/>
<circle cx="72.4234" cy="171.972" r="3.2877" fill="#AB9FE6" fill-opacity="0.2"/>
<circle cx="72.4234" cy="190.759" r="3.2877" fill="#AB9FE6" fill-opacity="0.2"/>
<circle cx="53.6368" cy="209.546" r="3.2877" fill="#AB9FE6" fill-opacity="0.2"/>
<circle cx="128.784" cy="228.333" r="3.2877" fill="#AB9FE6" fill-opacity="0.2"/>
<circle cx="91.2106" cy="247.12" r="3.2877" fill="#AB9FE6" fill-opacity="0.2"/>
<circle cx="53.6368" cy="247.12" r="3.2877" fill="#AB9FE6" fill-opacity="0.2"/>
<circle cx="166.358" cy="171.972" r="3.2877" fill="#AB9FE6" fill-opacity="0.2"/>
<circle cx="166.358" cy="190.759" r="3.2877" fill="#AB9FE6" fill-opacity="0.2"/>
<circle cx="147.571" cy="209.546" r="3.2877" fill="#AB9FE6" fill-opacity="0.2"/>
<circle cx="222.718" cy="228.333" r="3.2877" fill="#AB9FE6" fill-opacity="0.2"/>
<circle cx="185.145" cy="247.12" r="3.2877" fill="#AB9FE6" fill-opacity="0.2"/>
<circle cx="109.998" cy="153.185" r="3.2877" fill="#AB9FE6" fill-opacity="0.2"/>
<circle cx="109.998" cy="171.972" r="3.2877" fill="#AB9FE6" fill-opacity="0.2"/>
<circle cx="109.998" cy="190.759" r="3.2877" fill="#AB9FE6" fill-opacity="0.2"/>
<circle cx="91.2106" cy="209.546" r="3.2877" fill="#AB9FE6" fill-opacity="0.2"/>
<circle cx="166.358" cy="228.333" r="3.2877" fill="#AB9FE6" fill-opacity="0.2"/>
<circle cx="128.784" cy="247.12" r="3.2877" fill="#AB9FE6" fill-opacity="0.2"/>
<circle cx="203.932" cy="171.972" r="3.2877" fill="#AB9FE6" fill-opacity="0.2"/>
<circle cx="203.932" cy="190.759" r="3.2877" fill="#AB9FE6" fill-opacity="0.2"/>
<circle cx="185.145" cy="209.546" r="3.2877" fill="#AB9FE6" fill-opacity="0.2"/>
<circle cx="203.932" cy="209.546" r="3.2877" fill="#AB9FE6" fill-opacity="0.2"/>
<circle cx="222.718" cy="247.12" r="3.2877" fill="#AB9FE6" fill-opacity="0.2"/>
<circle cx="91.2106" cy="153.185" r="3.2877" fill="#AB9FE6" fill-opacity="0.2"/>
<circle cx="91.2106" cy="171.972" r="3.2877" fill="#AB9FE6" fill-opacity="0.2"/>
<circle cx="91.2106" cy="190.759" r="3.2877" fill="#AB9FE6" fill-opacity="0.2"/>
<circle cx="72.4234" cy="209.546" r="3.2877" fill="#AB9FE6" fill-opacity="0.2"/>
<circle cx="147.571" cy="228.333" r="3.2877" fill="#AB9FE6" fill-opacity="0.2"/>
<circle cx="109.998" cy="247.12" r="3.2877" fill="#AB9FE6" fill-opacity="0.2"/>
<circle cx="72.4234" cy="247.12" r="3.2877" fill="#AB9FE6" fill-opacity="0.2"/>
<circle cx="185.145" cy="171.972" r="3.2877" fill="#AB9FE6" fill-opacity="0.2"/>
<circle cx="185.145" cy="190.759" r="3.2877" fill="#AB9FE6" fill-opacity="0.2"/>
<circle cx="166.358" cy="209.546" r="3.2877" fill="#AB9FE6" fill-opacity="0.2"/>
<circle cx="241.505" cy="228.333" r="3.2877" fill="#AB9FE6" fill-opacity="0.2"/>
<circle cx="203.932" cy="247.12" r="3.2877" fill="#AB9FE6" fill-opacity="0.2"/>
<circle cx="128.784" cy="153.185" r="3.2877" fill="#AB9FE6" fill-opacity="0.2"/>
<circle cx="128.784" cy="171.972" r="3.2877" fill="#AB9FE6" fill-opacity="0.2"/>
<circle cx="128.784" cy="190.759" r="3.2877" fill="#AB9FE6" fill-opacity="0.2"/>
<circle cx="109.998" cy="209.546" r="3.2877" fill="#AB9FE6" fill-opacity="0.2"/>
<circle cx="185.145" cy="228.333" r="3.2877" fill="#AB9FE6" fill-opacity="0.2"/>
<circle cx="147.571" cy="247.12" r="3.2877" fill="#AB9FE6" fill-opacity="0.2"/>
<circle cx="222.718" cy="171.972" r="3.2877" fill="#AB9FE6" fill-opacity="0.2"/>
<circle cx="147.571" cy="153.185" r="3.2877" fill="#AB9FE6" fill-opacity="0.2"/>
<circle cx="147.571" cy="171.972" r="3.2877" fill="#AB9FE6" fill-opacity="0.2"/>
<circle cx="147.571" cy="190.759" r="3.2877" fill="#AB9FE6" fill-opacity="0.2"/>
<circle cx="128.784" cy="209.546" r="3.2877" fill="#AB9FE6" fill-opacity="0.2"/>
<circle cx="203.932" cy="228.333" r="3.2877" fill="#AB9FE6" fill-opacity="0.2"/>
<circle cx="166.358" cy="247.12" r="3.2877" fill="#AB9FE6" fill-opacity="0.2"/>
<path d="M256.762 209.167C255.289 209.167 254.095 210.361 254.095 211.833C254.095 213.306 255.289 214.5 256.762 214.5C258.234 214.5 259.428 213.306 259.428 211.833C259.428 210.361 258.234 209.167 256.762 209.167ZM198.077 211.833L198.077 211.333L197.577 211.333L197.577 211.833L198.077 211.833ZM197.724 282.75C197.919 282.945 198.235 282.945 198.431 282.75L201.613 279.568C201.808 279.373 201.808 279.056 201.613 278.861C201.417 278.666 201.101 278.666 200.906 278.861L198.077 281.689L195.249 278.861C195.053 278.666 194.737 278.666 194.542 278.861C194.346 279.056 194.346 279.373 194.542 279.568L197.724 282.75ZM256.762 211.333L198.077 211.333L198.077 212.333L256.762 212.333L256.762 211.333ZM197.577 211.833L197.577 282.396L198.577 282.396L198.577 211.833L197.577 211.833Z" fill="#EE81DE"/>
<path d="M245.527 327.871C244.055 327.871 242.861 326.677 242.861 325.204C242.861 323.731 244.055 322.537 245.527 322.537C247 322.537 248.194 323.731 248.194 325.204C248.194 326.677 247 327.871 245.527 327.871ZM144.283 325.204L144.283 325.704L143.783 325.704L143.783 325.204L144.283 325.204ZM143.93 316.93C144.125 316.734 144.441 316.734 144.637 316.93L147.819 320.112C148.014 320.307 148.014 320.623 147.819 320.819C147.623 321.014 147.307 321.014 147.112 320.819L144.283 317.99L141.455 320.819C141.259 321.014 140.943 321.014 140.748 320.819C140.552 320.623 140.552 320.307 140.748 320.112L143.93 316.93ZM245.527 325.704L144.283 325.704L144.283 324.704L245.527 324.704L245.527 325.704ZM143.783 325.204L143.783 317.283L144.783 317.283L144.783 325.204L143.783 325.204Z" fill="#EE81DE"/>
<path d="M320.23 215.5C321.703 215.5 322.897 214.306 322.897 212.833C322.897 211.361 321.703 210.167 320.23 210.167C318.758 210.167 317.564 211.361 317.564 212.833C317.564 214.306 318.758 215.5 320.23 215.5ZM432.435 212.833L432.435 213.333L432.935 213.333L432.935 212.833L432.435 212.833ZM432.789 140.567C432.593 140.372 432.277 140.372 432.082 140.567L428.9 143.749C428.704 143.945 428.704 144.261 428.9 144.456C429.095 144.652 429.411 144.652 429.607 144.456L432.435 141.628L435.264 144.456C435.459 144.652 435.775 144.652 435.971 144.456C436.166 144.261 436.166 143.945 435.971 143.749L432.789 140.567ZM320.23 213.333L321.232 213.333L321.232 212.333L320.23 212.333L320.23 213.333ZM323.236 213.333L325.24 213.333L325.24 212.333L323.236 212.333L323.236 213.333ZM327.243 213.333L329.247 213.333L329.247 212.333L327.243 212.333L327.243 213.333ZM331.251 213.333L333.254 213.333L333.254 212.333L331.251 212.333L331.251 213.333ZM335.258 213.333L337.262 213.333L337.262 212.333L335.258 212.333L335.258 213.333ZM339.265 213.333L341.269 213.333L341.269 212.333L339.265 212.333L339.265 213.333ZM343.272 213.333L345.276 213.333L345.276 212.333L343.272 212.333L343.272 213.333ZM347.28 213.333L349.283 213.333L349.283 212.333L347.28 212.333L347.28 213.333ZM351.287 213.333L353.291 213.333L353.291 212.333L351.287 212.333L351.287 213.333ZM355.294 213.333L357.298 213.333L357.298 212.333L355.294 212.333L355.294 213.333ZM359.302 213.333L361.305 213.333L361.305 212.333L359.302 212.333L359.302 213.333ZM363.309 213.333L365.313 213.333L365.313 212.333L363.309 212.333L363.309 213.333ZM367.316 213.333L369.32 213.333L369.32 212.333L367.316 212.333L367.316 213.333ZM371.324 213.333L373.327 213.333L373.327 212.333L371.324 212.333L371.324 213.333ZM375.331 213.333L377.335 213.333L377.335 212.333L375.331 212.333L375.331 213.333ZM379.338 213.333L381.342 213.333L381.342 212.333L379.338 212.333L379.338 213.333ZM383.346 213.333L385.349 213.333L385.349 212.333L383.346 212.333L383.346 213.333ZM387.353 213.333L389.357 213.333L389.357 212.333L387.353 212.333L387.353 213.333ZM391.36 213.333L393.364 213.333L393.364 212.333L391.36 212.333L391.36 213.333ZM395.368 213.333L397.371 213.333L397.371 212.333L395.368 212.333L395.368 213.333ZM399.375 213.333L401.378 213.333L401.378 212.333L399.375 212.333L399.375 213.333ZM403.382 213.333L405.386 213.333L405.386 212.333L403.382 212.333L403.382 213.333ZM407.389 213.333L409.393 213.333L409.393 212.333L407.389 212.333L407.389 213.333ZM411.397 213.333L413.4 213.333L413.4 212.333L411.397 212.333L411.397 213.333ZM415.404 213.333L417.408 213.333L417.408 212.333L415.404 212.333L415.404 213.333ZM419.411 213.333L421.415 213.333L421.415 212.333L419.411 212.333L419.411 213.333ZM423.419 213.333L425.422 213.333L425.422 212.333L423.419 212.333L423.419 213.333ZM427.426 213.333L429.43 213.333L429.43 212.333L427.426 212.333L427.426 213.333ZM431.433 213.333L432.435 213.333L432.435 212.333L431.433 212.333L431.433 213.333ZM432.935 212.833L432.935 211.835L431.935 211.835L431.935 212.833L432.935 212.833ZM432.935 209.837L432.935 207.84L431.935 207.84L431.935 209.837L432.935 209.837ZM432.935 205.842L432.935 203.844L431.935 203.844L431.935 205.842L432.935 205.842ZM432.935 201.847L432.935 199.849L431.935 199.849L431.935 201.847L432.935 201.847ZM432.935 197.852L432.935 195.854L431.935 195.854L431.935 197.852L432.935 197.852ZM432.935 193.857L432.935 191.859L431.935 191.859L431.935 193.857L432.935 193.857ZM432.935 189.861L432.935 187.864L431.935 187.864L431.935 189.861L432.935 189.861ZM432.935 185.866L432.935 183.869L431.935 183.869L431.935 185.866L432.935 185.866ZM432.935 181.871L432.935 179.874L431.935 179.874L431.935 181.871L432.935 181.871ZM432.935 177.876L432.935 175.878L431.935 175.878L431.935 177.876L432.935 177.876ZM432.935 173.881L432.935 171.883L431.935 171.883L431.935 173.881L432.935 173.881ZM432.935 169.886L432.935 167.888L431.935 167.888L431.935 169.886L432.935 169.886ZM432.935 165.891L432.935 163.893L431.935 163.893L431.935 165.891L432.935 165.891ZM432.935 161.895L432.935 159.898L431.935 159.898L431.935 161.895L432.935 161.895ZM432.935 157.9L432.935 155.903L431.935 155.903L431.935 157.9L432.935 157.9ZM432.935 153.905L432.935 151.908L431.935 151.908L431.935 153.905L432.935 153.905ZM432.935 149.91L432.935 147.912L431.935 147.912L431.935 149.91L432.935 149.91ZM432.935 145.915L432.935 143.917L431.935 143.917L431.935 145.915L432.935 145.915ZM432.935 141.92L432.935 140.921L431.935 140.921L431.935 141.92L432.935 141.92Z" fill="#EE81DE"/>
<path d="M432.435 41.3836C430.962 41.3836 429.768 42.5775 429.768 44.0503C429.768 45.5231 430.962 46.717 432.435 46.717C433.907 46.717 435.101 45.5231 435.101 44.0503C435.101 42.5775 433.907 41.3836 432.435 41.3836ZM91.7267 44.0503L91.7267 43.5503L91.2267 43.5503L91.2267 44.0503L91.7267 44.0503ZM91.3732 76.0777C91.5685 76.2729 91.885 76.2729 92.0803 76.0777L95.2623 72.8957C95.4576 72.7004 95.4576 72.3839 95.2623 72.1886C95.067 71.9933 94.7504 71.9933 94.5552 72.1886L91.7267 75.017L88.8983 72.1886C88.7031 71.9933 88.3865 71.9933 88.1912 72.1886C87.9959 72.3839 87.9959 72.7004 88.1912 72.8957L91.3732 76.0777ZM432.435 43.5503L431.432 43.5503L431.432 44.5503L432.435 44.5503L432.435 43.5503ZM429.428 43.5503L427.424 43.5503L427.424 44.5503L429.428 44.5503L429.428 43.5503ZM425.42 43.5503L423.416 43.5503L423.416 44.5503L425.42 44.5503L425.42 43.5503ZM421.412 43.5503L419.408 43.5503L419.408 44.5503L421.412 44.5503L421.412 43.5503ZM417.403 43.5503L415.399 43.5503L415.399 44.5503L417.403 44.5503L417.403 43.5503ZM413.395 43.5503L411.391 43.5503L411.391 44.5503L413.395 44.5503L413.395 43.5503ZM409.387 43.5503L407.383 43.5503L407.383 44.5503L409.387 44.5503L409.387 43.5503ZM405.378 43.5503L403.374 43.5503L403.374 44.5503L405.378 44.5503L405.378 43.5503ZM401.37 43.5503L399.366 43.5503L399.366 44.5503L401.37 44.5503L401.37 43.5503ZM397.362 43.5503L395.358 43.5503L395.358 44.5503L397.362 44.5503L397.362 43.5503ZM393.353 43.5503L391.349 43.5503L391.349 44.5503L393.353 44.5503L393.353 43.5503ZM389.345 43.5503L387.341 43.5503L387.341 44.5503L389.345 44.5503L389.345 43.5503ZM385.337 43.5503L383.333 43.5503L383.333 44.5503L385.337 44.5503L385.337 43.5503ZM381.328 43.5503L379.324 43.5503L379.324 44.5503L381.328 44.5503L381.328 43.5503ZM377.32 43.5503L375.316 43.5503L375.316 44.5503L377.32 44.5503L377.32 43.5503ZM373.312 43.5503L371.308 43.5503L371.308 44.5503L373.312 44.5503L373.312 43.5503ZM369.303 43.5503L367.299 43.5503L367.299 44.5503L369.303 44.5503L369.303 43.5503ZM365.295 43.5503L363.291 43.5503L363.291 44.5503L365.295 44.5503L365.295 43.5503ZM361.287 43.5503L359.283 43.5503L359.283 44.5503L361.287 44.5503L361.287 43.5503ZM357.278 43.5503L355.274 43.5503L355.274 44.5503L357.278 44.5503L357.278 43.5503ZM353.27 43.5503L351.266 43.5503L351.266 44.5503L353.27 44.5503L353.27 43.5503ZM349.262 43.5503L347.258 43.5503L347.258 44.5503L349.262 44.5503L349.262 43.5503ZM345.253 43.5503L343.249 43.5503L343.249 44.5503L345.253 44.5503L345.253 43.5503ZM341.245 43.5503L339.241 43.5503L339.241 44.5503L341.245 44.5503L341.245 43.5503ZM337.237 43.5503L335.233 43.5503L335.233 44.5503L337.237 44.5503L337.237 43.5503ZM333.228 43.5503L331.224 43.5503L331.224 44.5503L333.228 44.5503L333.228 43.5503ZM329.22 43.5503L327.216 43.5503L327.216 44.5503L329.22 44.5503L329.22 43.5503ZM325.212 43.5503L323.208 43.5503L323.208 44.5503L325.212 44.5503L325.212 43.5503ZM321.203 43.5503L319.199 43.5503L319.199 44.5503L321.203 44.5503L321.203 43.5503ZM317.195 43.5503L315.191 43.5503L315.191 44.5503L317.195 44.5503L317.195 43.5503ZM313.187 43.5503L311.183 43.5503L311.183 44.5503L313.187 44.5503L313.187 43.5503ZM309.178 43.5503L307.174 43.5503L307.174 44.5503L309.178 44.5503L309.178 43.5503ZM305.17 43.5503L303.166 43.5503L303.166 44.5503L305.17 44.5503L305.17 43.5503ZM301.162 43.5503L299.158 43.5503L299.158 44.5503L301.162 44.5503L301.162 43.5503ZM297.153 43.5503L295.149 43.5503L295.149 44.5503L297.153 44.5503L297.153 43.5503ZM293.145 43.5503L291.141 43.5503L291.141 44.5503L293.145 44.5503L293.145 43.5503ZM289.137 43.5503L287.133 43.5503L287.133 44.5503L289.137 44.5503L289.137 43.5503ZM285.128 43.5503L283.124 43.5503L283.124 44.5503L285.128 44.5503L285.128 43.5503ZM281.12 43.5503L279.116 43.5503L279.116 44.5503L281.12 44.5503L281.12 43.5503ZM277.112 43.5503L275.108 43.5503L275.108 44.5503L277.112 44.5503L277.112 43.5503ZM273.103 43.5503L271.099 43.5503L271.099 44.5503L273.103 44.5503L273.103 43.5503ZM269.095 43.5503L267.091 43.5503L267.091 44.5503L269.095 44.5503L269.095 43.5503ZM265.087 43.5503L263.083 43.5503L263.083 44.5503L265.087 44.5503L265.087 43.5503ZM261.078 43.5503L259.074 43.5503L259.074 44.5503L261.078 44.5503L261.078 43.5503ZM257.07 43.5503L255.066 43.5503L255.066 44.5503L257.07 44.5503L257.07 43.5503ZM253.062 43.5503L251.058 43.5503L251.058 44.5503L253.062 44.5503L253.062 43.5503ZM249.053 43.5503L247.049 43.5503L247.049 44.5503L249.053 44.5503L249.053 43.5503ZM245.045 43.5503L243.041 43.5503L243.041 44.5503L245.045 44.5503L245.045 43.5503ZM241.037 43.5503L239.033 43.5503L239.033 44.5503L241.037 44.5503L241.037 43.5503ZM237.028 43.5503L235.024 43.5503L235.024 44.5503L237.028 44.5503L237.028 43.5503ZM233.02 43.5503L231.016 43.5503L231.016 44.5503L233.02 44.5503L233.02 43.5503ZM229.012 43.5503L227.008 43.5503L227.008 44.5503L229.012 44.5503L229.012 43.5503ZM225.003 43.5503L222.999 43.5503L222.999 44.5503L225.003 44.5503L225.003 43.5503ZM220.995 43.5503L218.991 43.5503L218.991 44.5503L220.995 44.5503L220.995 43.5503ZM216.987 43.5503L214.983 43.5503L214.983 44.5503L216.987 44.5503L216.987 43.5503ZM212.978 43.5503L210.974 43.5503L210.974 44.5503L212.978 44.5503L212.978 43.5503ZM208.97 43.5503L206.966 43.5503L206.966 44.5503L208.97 44.5503L208.97 43.5503ZM204.962 43.5503L202.958 43.5503L202.958 44.5503L204.962 44.5503L204.962 43.5503ZM200.953 43.5503L198.949 43.5503L198.949 44.5503L200.953 44.5503L200.953 43.5503ZM196.945 43.5503L194.941 43.5503L194.941 44.5503L196.945 44.5503L196.945 43.5503ZM192.937 43.5503L190.933 43.5503L190.933 44.5503L192.937 44.5503L192.937 43.5503ZM188.928 43.5503L186.924 43.5503L186.924 44.5503L188.928 44.5503L188.928 43.5503ZM184.92 43.5503L182.916 43.5503L182.916 44.5503L184.92 44.5503L184.92 43.5503ZM180.912 43.5503L178.908 43.5503L178.908 44.5503L180.912 44.5503L180.912 43.5503ZM176.903 43.5503L174.899 43.5503L174.899 44.5503L176.903 44.5503L176.903 43.5503ZM172.895 43.5503L170.891 43.5503L170.891 44.5503L172.895 44.5503L172.895 43.5503ZM168.887 43.5503L166.883 43.5503L166.883 44.5503L168.887 44.5503L168.887 43.5503ZM164.879 43.5503L162.874 43.5503L162.874 44.5503L164.879 44.5503L164.879 43.5503ZM160.87 43.5503L158.866 43.5503L158.866 44.5503L160.87 44.5503L160.87 43.5503ZM156.862 43.5503L154.858 43.5503L154.858 44.5503L156.862 44.5503L156.862 43.5503ZM152.854 43.5503L150.85 43.5503L150.85 44.5503L152.854 44.5503L152.854 43.5503ZM148.845 43.5503L146.841 43.5503L146.841 44.5503L148.845 44.5503L148.845 43.5503ZM144.837 43.5503L142.833 43.5503L142.833 44.5503L144.837 44.5503L144.837 43.5503ZM140.829 43.5503L138.825 43.5503L138.825 44.5503L140.829 44.5503L140.829 43.5503ZM136.82 43.5503L134.816 43.5503L134.816 44.5503L136.82 44.5503L136.82 43.5503ZM132.812 43.5503L130.808 43.5503L130.808 44.5503L132.812 44.5503L132.812 43.5503ZM128.804 43.5503L126.8 43.5503L126.8 44.5503L128.804 44.5503L128.804 43.5503ZM124.796 43.5503L122.791 43.5503L122.791 44.5503L124.796 44.5503L124.796 43.5503ZM120.787 43.5503L118.783 43.5503L118.783 44.5503L120.787 44.5503L120.787 43.5503ZM116.779 43.5503L114.775 43.5503L114.775 44.5503L116.779 44.5503L116.779 43.5503ZM112.771 43.5503L110.767 43.5503L110.767 44.5503L112.771 44.5503L112.771 43.5503ZM108.762 43.5503L106.758 43.5503L106.758 44.5503L108.762 44.5503L108.762 43.5503ZM104.754 43.5503L102.75 43.5503L102.75 44.5503L104.754 44.5503L104.754 43.5503ZM100.746 43.5503L98.7416 43.5503L98.7416 44.5503L100.746 44.5503L100.746 43.5503ZM96.7375 43.5503L94.7333 43.5503L94.7333 44.5503L96.7375 44.5503L96.7375 43.5503ZM92.7292 43.5503L91.7267 43.5503L91.7267 44.5503L92.7292 44.5503L92.7292 43.5503ZM91.2267 44.0503L91.2267 45.0401L92.2267 45.0401L92.2267 44.0503L91.2267 44.0503ZM91.2267 47.0197L91.2267 48.9993L92.2267 48.9993L92.2267 47.0197L91.2267 47.0197ZM91.2267 50.9789L91.2267 52.9586L92.2267 52.9586L92.2267 50.9789L91.2267 50.9789ZM91.2267 54.9382L91.2267 56.9178L92.2267 56.9178L92.2267 54.9382L91.2267 54.9382ZM91.2267 58.8974L91.2267 60.877L92.2267 60.877L92.2267 58.8974L91.2267 58.8974ZM91.2267 62.8566L91.2267 64.8362L92.2267 64.8362L92.2267 62.8566L91.2267 62.8566ZM91.2267 66.8159L91.2267 68.7955L92.2267 68.7955L92.2267 66.8159L91.2267 66.8159ZM91.2267 70.7751L91.2267 72.7547L92.2267 72.7547L92.2267 70.7751L91.2267 70.7751ZM91.2267 74.7343L91.2267 75.7241L92.2267 75.7241L92.2267 74.7343L91.2267 74.7343Z" fill="#EE81DE"/>
<path d="M198.077 214.5C196.604 214.5 195.41 213.306 195.41 211.833C195.41 210.361 196.604 209.167 198.077 209.167C199.55 209.167 200.744 210.361 200.744 211.833C200.744 213.306 199.55 214.5 198.077 214.5ZM108.78 211.833L108.78 212.333L108.28 212.333L108.28 211.833L108.78 211.833ZM108.426 139.567C108.622 139.372 108.938 139.372 109.133 139.567L112.315 142.749C112.511 142.945 112.511 143.261 112.315 143.456C112.12 143.652 111.804 143.652 111.608 143.456L108.78 140.628L105.951 143.456C105.756 143.652 105.44 143.652 105.244 143.456C105.049 143.261 105.049 142.945 105.244 142.749L108.426 139.567ZM198.077 212.333L197.062 212.333L197.062 211.333L198.077 211.333L198.077 212.333ZM195.033 212.333L193.003 212.333L193.003 211.333L195.033 211.333L195.033 212.333ZM190.974 212.333L188.944 212.333L188.944 211.333L190.974 211.333L190.974 212.333ZM186.915 212.333L184.886 212.333L184.886 211.333L186.915 211.333L186.915 212.333ZM182.856 212.333L180.827 212.333L180.827 211.333L182.856 211.333L182.856 212.333ZM178.797 212.333L176.768 212.333L176.768 211.333L178.797 211.333L178.797 212.333ZM174.738 212.333L172.709 212.333L172.709 211.333L174.738 211.333L174.738 212.333ZM170.679 212.333L168.65 212.333L168.65 211.333L170.679 211.333L170.679 212.333ZM166.62 212.333L164.591 212.333L164.591 211.333L166.62 211.333L166.62 212.333ZM162.561 212.333L160.532 212.333L160.532 211.333L162.561 211.333L162.561 212.333ZM158.502 212.333L156.473 212.333L156.473 211.333L158.502 211.333L158.502 212.333ZM154.443 212.333L152.414 212.333L152.414 211.333L154.443 211.333L154.443 212.333ZM150.384 212.333L148.355 212.333L148.355 211.333L150.384 211.333L150.384 212.333ZM146.325 212.333L144.296 212.333L144.296 211.333L146.325 211.333L146.325 212.333ZM142.266 212.333L140.237 212.333L140.237 211.333L142.266 211.333L142.266 212.333ZM138.207 212.333L136.178 212.333L136.178 211.333L138.207 211.333L138.207 212.333ZM134.148 212.333L132.119 212.333L132.119 211.333L134.148 211.333L134.148 212.333ZM130.089 212.333L128.06 212.333L128.06 211.333L130.089 211.333L130.089 212.333ZM126.03 212.333L124.001 212.333L124.001 211.333L126.03 211.333L126.03 212.333ZM121.972 212.333L119.942 212.333L119.942 211.333L121.972 211.333L121.972 212.333ZM117.913 212.333L115.883 212.333L115.883 211.333L117.913 211.333L117.913 212.333ZM113.854 212.333L111.824 212.333L111.824 211.333L113.854 211.333L113.854 212.333ZM109.795 212.333L108.78 212.333L108.78 211.333L109.795 211.333L109.795 212.333ZM108.28 211.833L108.28 210.835L109.28 210.835L109.28 211.833L108.28 211.833ZM108.28 208.837L108.28 206.84L109.28 206.84L109.28 208.837L108.28 208.837ZM108.28 204.842L108.28 202.844L109.28 202.844L109.28 204.842L108.28 204.842ZM108.28 200.847L108.28 198.849L109.28 198.849L109.28 200.847L108.28 200.847ZM108.28 196.852L108.28 194.854L109.28 194.854L109.28 196.852L108.28 196.852ZM108.28 192.857L108.28 190.859L109.28 190.859L109.28 192.857L108.28 192.857ZM108.28 188.861L108.28 186.864L109.28 186.864L109.28 188.861L108.28 188.861ZM108.28 184.866L108.28 182.869L109.28 182.869L109.28 184.866L108.28 184.866ZM108.28 180.871L108.28 178.874L109.28 178.874L109.28 180.871L108.28 180.871ZM108.28 176.876L108.28 174.878L109.28 174.878L109.28 176.876L108.28 176.876ZM108.28 172.881L108.28 170.883L109.28 170.883L109.28 172.881L108.28 172.881ZM108.28 168.886L108.28 166.888L109.28 166.888L109.28 168.886L108.28 168.886ZM108.28 164.891L108.28 162.893L109.28 162.893L109.28 164.891L108.28 164.891ZM108.28 160.895L108.28 158.898L109.28 158.898L109.28 160.895L108.28 160.895ZM108.28 156.9L108.28 154.903L109.28 154.903L109.28 156.9L108.28 156.9ZM108.28 152.905L108.28 150.908L109.28 150.908L109.28 152.905L108.28 152.905ZM108.28 148.91L108.28 146.912L109.28 146.912L109.28 148.91L108.28 148.91ZM108.28 144.915L108.28 142.917L109.28 142.917L109.28 144.915L108.28 144.915ZM108.28 140.92L108.28 139.921L109.28 139.921L109.28 140.92L108.28 140.92Z" fill="#EE81DE"/>
<path d="M181.413 300.246C181.413 298.773 180.219 297.579 178.746 297.579C177.273 297.579 176.079 298.773 176.079 300.246C176.079 301.719 177.273 302.913 178.746 302.913C180.219 302.913 181.413 301.719 181.413 300.246ZM160.192 299.893C159.997 300.088 159.997 300.404 160.192 300.6L163.374 303.782C163.569 303.977 163.886 303.977 164.081 303.782C164.276 303.586 164.276 303.27 164.081 303.075L161.253 300.246L164.081 297.418C164.276 297.222 164.276 296.906 164.081 296.711C163.886 296.515 163.569 296.515 163.374 296.711L160.192 299.893ZM178.746 299.746L160.545 299.746L160.545 300.746L178.746 300.746L178.746 299.746Z" fill="#D45E5E"/>
<path d="M288.396 236.483C286.923 236.483 285.729 237.677 285.729 239.15C285.729 240.623 286.923 241.817 288.396 241.817C289.868 241.817 291.062 240.623 291.062 239.15C291.062 237.677 289.868 236.483 288.396 236.483ZM288.042 288.6C288.237 288.795 288.554 288.795 288.749 288.6L291.931 285.418C292.126 285.222 292.126 284.906 291.931 284.711C291.736 284.515 291.419 284.515 291.224 284.711L288.396 287.539L285.567 284.711C285.372 284.515 285.055 284.515 284.86 284.711C284.665 284.906 284.665 285.222 284.86 285.418L288.042 288.6ZM287.896 239.15L287.896 288.246L288.896 288.246L288.896 239.15L287.896 239.15Z" fill="#D45E5E"/>
<path d="M432.435 78.3908C433.907 78.3908 435.101 77.1969 435.101 75.7241C435.101 74.2514 433.907 73.0575 432.435 73.0575C430.962 73.0575 429.768 74.2514 429.768 75.7241C429.768 77.1969 430.962 78.3908 432.435 78.3908ZM432.788 48.019C432.593 47.8237 432.276 47.8237 432.081 48.019L428.899 51.201C428.704 51.3962 428.704 51.7128 428.899 51.9081C429.094 52.1034 429.411 52.1034 429.606 51.9081L432.435 49.0797L435.263 51.9081C435.458 52.1034 435.775 52.1034 435.97 51.9081C436.165 51.7128 436.165 51.3962 435.97 51.201L432.788 48.019ZM432.935 75.7241L432.935 48.3726L431.935 48.3726L431.935 75.7241L432.935 75.7241Z" fill="#D45E5E"/>
<path d="M126.441 300.246C126.441 298.773 125.247 297.579 123.774 297.579C122.301 297.579 121.107 298.773 121.107 300.246C121.107 301.719 122.301 302.913 123.774 302.913C125.247 302.913 126.441 301.719 126.441 300.246ZM105.22 299.893C105.024 300.088 105.024 300.404 105.22 300.6L108.402 303.782C108.597 303.977 108.914 303.977 109.109 303.782C109.304 303.586 109.304 303.27 109.109 303.075L106.28 300.246L109.109 297.418C109.304 297.222 109.304 296.906 109.109 296.711C108.914 296.515 108.597 296.515 108.402 296.711L105.22 299.893ZM123.774 299.746L105.573 299.746L105.573 300.746L123.774 300.746L123.774 299.746Z" fill="#D45E5E"/>
<path d="M312.296 183.615H308.33V175.682C308.33 164.733 299.444 155.848 288.496 155.848C277.548 155.848 268.662 164.733 268.662 175.682V183.615H264.695C260.332 183.615 256.762 187.185 256.762 191.549V231.216C256.762 235.58 260.332 239.15 264.695 239.15H312.296C316.66 239.15 320.23 235.58 320.23 231.216V191.549C320.23 187.185 316.66 183.615 312.296 183.615ZM276.596 183.615V175.682C276.596 169.097 281.911 163.781 288.496 163.781C295.081 163.781 300.396 169.097 300.396 175.682V183.615H276.596Z" fill="#AA50FF" fill-opacity="0.58"/>
<path d="M271.65 198.44C271.65 196.38 273.321 194.709 275.381 194.709H301.291C303.352 194.709 305.022 196.38 305.022 198.44V224.35C305.022 226.411 303.352 228.081 301.291 228.081H275.381C273.321 228.081 271.65 226.411 271.65 224.35V198.44Z" fill="#2C0059"/>
<path d="M287.517 208.715C287.969 208.263 288.703 208.263 289.156 208.715L291.016 210.576C291.469 211.028 291.469 211.762 291.016 212.215L289.156 214.075C288.703 214.528 287.969 214.528 287.517 214.075L285.657 212.215C285.204 211.762 285.204 211.028 285.657 210.576L287.517 208.715Z" fill="#A950FF"/>
<path d="M296.085 208.7C296.53 208.256 297.251 208.256 297.695 208.7L299.585 210.59C300.029 211.035 300.029 211.755 299.585 212.2L297.695 214.089C297.251 214.534 296.53 214.534 296.085 214.089L294.196 212.2C293.751 211.755 293.751 211.035 294.196 210.59L296.085 208.7Z" fill="#A950FF"/>
<path d="M287.532 200.147C287.976 199.702 288.697 199.702 289.141 200.147L291.031 202.037C291.475 202.481 291.475 203.202 291.031 203.646L289.141 205.536C288.697 205.98 287.976 205.98 287.532 205.536L285.642 203.646C285.197 203.202 285.197 202.481 285.642 202.037L287.532 200.147Z" fill="#E9C1FF"/>
<path d="M286.74 206.299C287.192 206.751 287.192 207.485 286.74 207.938L284.879 209.798C284.427 210.251 283.693 210.251 283.24 209.798L281.38 207.938C280.927 207.485 280.927 206.751 281.38 206.299L283.24 204.438C283.693 203.986 284.427 203.986 284.879 204.438L286.74 206.299Z" fill="#CD88FF"/>
<path d="M282.477 210.59C282.922 211.035 282.922 211.755 282.477 212.2L280.588 214.089C280.143 214.534 279.422 214.534 278.978 214.089L277.088 212.2C276.644 211.755 276.644 211.035 277.088 210.59L278.978 208.7C279.422 208.256 280.143 208.256 280.588 208.7L282.477 210.59Z" fill="#A950FF"/>
<path d="M295.293 206.299C295.746 206.751 295.746 207.485 295.293 207.938L293.433 209.798C292.98 210.251 292.247 210.251 291.794 209.798L289.934 207.938C289.481 207.485 289.481 206.751 289.934 206.299L291.794 204.438C292.247 203.986 292.98 203.986 293.433 204.438L295.293 206.299Z" fill="#CD88FF"/>
<path d="M290.167 218.517C291.178 219.528 291.178 221.167 290.167 222.178C289.156 223.189 287.517 223.189 286.506 222.178C285.495 221.167 285.495 219.528 286.506 218.517C287.517 217.506 289.156 217.506 290.167 218.517Z" fill="#F62E76"/>
<g filter="url(#filter0_d_1556_4565)">
<path d="M388.519 85.7241C388.519 80.2013 392.996 75.7241 398.519 75.7241H469.088C474.611 75.7241 479.088 80.2013 479.088 85.7241V129.361C479.088 134.884 474.611 139.361 469.088 139.361H398.519C392.996 139.361 388.519 134.884 388.519 129.361V85.7241Z" fill="white"/>
</g>
<g filter="url(#filter1_d_1556_4565)">
<path d="M245.527 301.246C245.527 295.723 250.004 291.246 255.527 291.246H326.097C331.62 291.246 336.097 295.723 336.097 301.246V344.883C336.097 350.406 331.62 354.883 326.097 354.883H255.527C250.005 354.883 245.527 350.406 245.527 344.883V301.246Z" fill="white"/>
</g>
<g filter="url(#filter2_d_1556_4565)">
<path d="M54.4268 85.7241C54.4268 80.2013 58.9039 75.7241 64.4268 75.7241H134.996C140.519 75.7241 144.996 80.2013 144.996 85.7241V129.361C144.996 134.884 140.519 139.361 134.996 139.361H64.4268C58.9039 139.361 54.4268 134.884 54.4268 129.361V85.7241Z" fill="white"/>
</g>
<g filter="url(#filter3_d_1556_4565)">
<path d="M181.537 287.273C181.537 285.064 183.328 283.273 185.537 283.273H210.618C212.827 283.273 214.618 285.064 214.618 287.273V312.723C214.618 314.932 212.827 316.723 210.618 316.723H185.537C183.328 316.723 181.537 314.932 181.537 312.723V287.273Z" fill="white"/>
</g>
<g filter="url(#filter4_d_1556_4565)">
<path d="M127.13 287.273C127.13 285.064 128.921 283.273 131.13 283.273H156.212C158.421 283.273 160.212 285.064 160.212 287.273V312.723C160.212 314.932 158.421 316.723 156.212 316.723H131.13C128.921 316.723 127.13 314.932 127.13 312.723V287.273Z" fill="white"/>
</g>
<g filter="url(#filter5_d_1556_4565)">
<path d="M71.3823 287.273C71.3823 285.064 73.1732 283.273 75.3823 283.273H100.464C102.673 283.273 104.464 285.064 104.464 287.273V312.723C104.464 314.932 102.673 316.723 100.464 316.723H75.3823C73.1732 316.723 71.3823 314.932 71.3823 312.723V287.273Z" fill="white"/>
</g>
<path d="M418.955 116.83C417.899 116.83 416.851 116.638 415.811 116.254C414.787 115.87 413.851 115.31 413.003 114.574L415.043 112.15C415.635 112.63 416.283 113.022 416.987 113.326C417.707 113.63 418.443 113.782 419.195 113.782C419.947 113.782 420.499 113.654 420.851 113.398C421.219 113.142 421.403 112.814 421.403 112.414C421.403 112.046 421.307 111.758 421.115 111.55C420.923 111.326 420.643 111.134 420.275 110.974C419.907 110.798 419.475 110.606 418.979 110.398L416.963 109.534C416.387 109.31 415.843 109.014 415.331 108.646C414.819 108.262 414.403 107.798 414.083 107.254C413.779 106.694 413.627 106.03 413.627 105.262C413.627 104.398 413.867 103.622 414.347 102.934C414.843 102.23 415.515 101.67 416.363 101.254C417.227 100.822 418.227 100.606 419.363 100.606C420.307 100.606 421.235 100.782 422.147 101.134C423.059 101.486 423.867 101.998 424.571 102.67L422.771 104.902C422.227 104.502 421.683 104.198 421.139 103.99C420.595 103.766 419.939 103.654 419.171 103.654C418.595 103.654 418.123 103.774 417.755 104.014C417.387 104.254 417.203 104.606 417.203 105.07C417.203 105.374 417.315 105.63 417.539 105.838C417.763 106.046 418.067 106.23 418.451 106.39C418.835 106.55 419.275 106.726 419.771 106.918L421.667 107.734C422.371 107.99 422.971 108.31 423.467 108.694C423.963 109.062 424.347 109.518 424.619 110.062C424.891 110.606 425.027 111.246 425.027 111.982C425.027 112.846 424.787 113.646 424.307 114.382C423.843 115.118 423.155 115.71 422.243 116.158C421.347 116.606 420.251 116.83 418.955 116.83ZM433.345 116.83C432.289 116.83 431.241 116.638 430.201 116.254C429.177 115.87 428.241 115.31 427.393 114.574L429.433 112.15C430.025 112.63 430.673 113.022 431.377 113.326C432.097 113.63 432.833 113.782 433.585 113.782C434.337 113.782 434.889 113.654 435.241 113.398C435.609 113.142 435.793 112.814 435.793 112.414C435.793 112.046 435.697 111.758 435.505 111.55C435.313 111.326 435.033 111.134 434.665 110.974C434.297 110.798 433.865 110.606 433.369 110.398L431.353 109.534C430.777 109.31 430.233 109.014 429.721 108.646C429.209 108.262 428.793 107.798 428.473 107.254C428.169 106.694 428.017 106.03 428.017 105.262C428.017 104.398 428.257 103.622 428.737 102.934C429.233 102.23 429.905 101.67 430.753 101.254C431.617 100.822 432.617 100.606 433.753 100.606C434.697 100.606 435.625 100.782 436.537 101.134C437.449 101.486 438.257 101.998 438.961 102.67L437.161 104.902C436.617 104.502 436.073 104.198 435.529 103.99C434.985 103.766 434.329 103.654 433.561 103.654C432.985 103.654 432.513 103.774 432.145 104.014C431.777 104.254 431.593 104.606 431.593 105.07C431.593 105.374 431.705 105.63 431.929 105.838C432.153 106.046 432.457 106.23 432.841 106.39C433.225 106.55 433.665 106.726 434.161 106.918L436.057 107.734C436.761 107.99 437.361 108.31 437.857 108.694C438.353 109.062 438.737 109.518 439.009 110.062C439.281 110.606 439.417 111.246 439.417 111.982C439.417 112.846 439.177 113.646 438.697 114.382C438.233 115.118 437.545 115.71 436.633 116.158C435.737 116.606 434.641 116.83 433.345 116.83ZM447.784 116.83C446.536 116.83 445.44 116.518 444.496 115.894C443.552 115.27 442.816 114.358 442.288 113.158C441.76 111.942 441.496 110.438 441.496 108.646C441.496 106.902 441.76 105.438 442.288 104.254C442.816 103.054 443.552 102.15 444.496 101.542C445.44 100.918 446.536 100.606 447.784 100.606C449.032 100.606 450.128 100.918 451.072 101.542C452.016 102.15 452.752 103.054 453.28 104.254C453.808 105.438 454.072 106.902 454.072 108.646C454.072 110.438 453.808 111.942 453.28 113.158C452.752 114.358 452.016 115.27 451.072 115.894C450.128 116.518 449.032 116.83 447.784 116.83ZM447.784 113.782C448.328 113.782 448.8 113.59 449.2 113.206C449.6 112.806 449.904 112.23 450.112 111.478C450.336 110.71 450.448 109.766 450.448 108.646C450.448 107.558 450.336 106.646 450.112 105.91C449.904 105.174 449.6 104.614 449.2 104.23C448.8 103.846 448.328 103.654 447.784 103.654C447.24 103.654 446.768 103.846 446.368 104.23C445.968 104.614 445.656 105.174 445.432 105.91C445.224 106.646 445.12 107.558 445.12 108.646C445.12 109.766 445.224 110.71 445.432 111.478C445.656 112.23 445.968 112.806 446.368 113.206C446.768 113.59 447.24 113.782 447.784 113.782Z" fill="#030303"/>
<path d="M270.205 332.064V330.048C271.661 328.816 272.933 327.704 274.021 326.712C275.125 325.704 275.981 324.784 276.589 323.952C277.197 323.104 277.501 322.32 277.501 321.6C277.501 320.848 277.277 320.28 276.829 319.896C276.397 319.496 275.789 319.296 275.005 319.296C274.397 319.296 273.837 319.456 273.325 319.776C272.829 320.08 272.365 320.44 271.933 320.856L270.037 318.96C270.821 318.144 271.629 317.536 272.461 317.136C273.309 316.736 274.317 316.536 275.485 316.536C276.541 316.536 277.469 316.736 278.269 317.136C279.085 317.536 279.717 318.104 280.165 318.84C280.629 319.56 280.861 320.408 280.861 321.384C280.861 322.248 280.597 323.12 280.069 324C279.557 324.88 278.869 325.768 278.005 326.664C277.157 327.544 276.245 328.416 275.269 329.28C275.701 329.232 276.173 329.192 276.685 329.16C277.197 329.112 277.645 329.088 278.029 329.088H281.653V332.064H270.205ZM285.723 332.064V316.416H296.115V319.392H289.251V323.016H295.107V325.992H289.251V332.064H285.723ZM297.81 332.064L302.682 316.416H306.906L311.778 332.064H308.034L306.018 324.144C305.826 323.36 305.618 322.528 305.394 321.648C305.17 320.768 304.962 319.92 304.77 319.104H304.674C304.482 319.92 304.282 320.768 304.074 321.648C303.866 322.528 303.658 323.36 303.45 324.144L301.41 332.064H297.81ZM301.026 328.344V325.584H308.514V328.344H301.026Z" fill="#030303"/>
<path d="M205.145 291.246H191.145C190.045 291.246 189.145 292.146 189.145 293.246V307.246C189.145 308.346 190.045 309.246 191.145 309.246H205.145C206.245 309.246 207.145 308.346 207.145 307.246V293.246C207.145 292.146 206.245 291.246 205.145 291.246ZM205.145 307.246H191.145V293.246H205.145V307.246ZM204.135 297.246L202.725 295.826L196.135 302.416L193.555 299.846L192.135 301.256L196.135 305.246L204.135 297.246Z" fill="#AA50FF"/>
<path d="M151.283 291.246H137.283C136.183 291.246 135.283 292.146 135.283 293.246V307.246C135.283 308.346 136.183 309.246 137.283 309.246H151.283C152.383 309.246 153.283 308.346 153.283 307.246V293.246C153.283 292.146 152.383 291.246 151.283 291.246ZM151.283 307.246H137.283V293.246H151.283V307.246ZM150.273 297.246L148.863 295.826L142.273 302.416L139.693 299.846L138.273 301.256L142.273 305.246L150.273 297.246Z" fill="#AA50FF"/>
<path d="M94.7114 291.246H80.7114C79.6114 291.246 78.7114 292.146 78.7114 293.246V307.246C78.7114 308.346 79.6114 309.246 80.7114 309.246H94.7114C95.8114 309.246 96.7114 308.346 96.7114 307.246V293.246C96.7114 292.146 95.8114 291.246 94.7114 291.246ZM94.7114 307.246H80.7114V293.246H94.7114V307.246Z" fill="#AA50FF"/>
<path d="M87.9229 293.913C89.3956 293.913 90.5895 292.719 90.5895 291.246C90.5895 289.773 89.3956 288.579 87.9229 288.579C86.4501 288.579 85.2562 289.773 85.2562 291.246C85.2562 292.719 86.4501 293.913 87.9229 293.913ZM88.2764 139.567C88.0811 139.372 87.7646 139.372 87.5693 139.567L84.3873 142.749C84.192 142.945 84.192 143.261 84.3873 143.456C84.5826 143.652 84.8992 143.652 85.0944 143.456L87.9228 140.628L90.7513 143.456C90.9465 143.652 91.2631 143.652 91.4584 143.456C91.6536 143.261 91.6536 142.945 91.4584 142.749L88.2764 139.567ZM88.4229 291.246L88.4229 290.251L87.4229 290.251L87.4229 291.246L88.4229 291.246ZM88.4229 288.259L88.4229 286.268L87.4229 286.268L87.4229 288.259L88.4229 288.259ZM88.4229 284.277L88.4229 282.286L87.4229 282.286L87.4229 284.277L88.4229 284.277ZM88.4229 280.295L88.4229 278.304L87.4229 278.304L87.4229 280.295L88.4229 280.295ZM88.4229 276.313L88.4229 274.322L87.4229 274.322L87.4229 276.313L88.4229 276.313ZM88.4229 272.33L88.4229 270.339L87.4229 270.339L87.4229 272.33L88.4229 272.33ZM88.4229 268.348L88.4229 266.357L87.4229 266.357L87.4229 268.348L88.4229 268.348ZM88.4229 264.366L88.4229 262.375L87.4229 262.375L87.4229 264.366L88.4229 264.366ZM88.4229 260.384L88.4229 258.393L87.4229 258.393L87.4229 260.384L88.4229 260.384ZM88.4229 256.401L88.4228 254.41L87.4228 254.41L87.4229 256.401L88.4229 256.401ZM88.4228 252.419L88.4228 250.428L87.4228 250.428L87.4228 252.419L88.4228 252.419ZM88.4228 248.437L88.4228 246.446L87.4228 246.446L87.4228 248.437L88.4228 248.437ZM88.4228 244.455L88.4228 242.464L87.4228 242.464L87.4228 244.455L88.4228 244.455ZM88.4228 240.473L88.4228 238.481L87.4228 238.481L87.4228 240.473L88.4228 240.473ZM88.4228 236.49L88.4228 234.499L87.4228 234.499L87.4228 236.49L88.4228 236.49ZM88.4228 232.508L88.4228 230.517L87.4228 230.517L87.4228 232.508L88.4228 232.508ZM88.4228 228.526L88.4228 226.535L87.4228 226.535L87.4228 228.526L88.4228 228.526ZM88.4228 224.544L88.4228 222.552L87.4228 222.552L87.4228 224.544L88.4228 224.544ZM88.4228 220.561L88.4228 218.57L87.4228 218.57L87.4228 220.561L88.4228 220.561ZM88.4228 216.579L88.4228 214.588L87.4228 214.588L87.4228 216.579L88.4228 216.579ZM88.4228 212.597L88.4228 210.606L87.4228 210.606L87.4228 212.597L88.4228 212.597ZM88.4228 208.615L88.4228 206.623L87.4228 206.623L87.4228 208.615L88.4228 208.615ZM88.4228 204.632L88.4228 202.641L87.4228 202.641L87.4228 204.632L88.4228 204.632ZM88.4228 200.65L88.4228 198.659L87.4228 198.659L87.4228 200.65L88.4228 200.65ZM88.4228 196.668L88.4228 194.677L87.4228 194.677L87.4228 196.668L88.4228 196.668ZM88.4228 192.686L88.4228 190.695L87.4228 190.695L87.4228 192.686L88.4228 192.686ZM88.4228 188.703L88.4228 186.712L87.4228 186.712L87.4228 188.703L88.4228 188.703ZM88.4228 184.721L88.4228 182.73L87.4228 182.73L87.4228 184.721L88.4228 184.721ZM88.4228 180.739L88.4228 178.748L87.4228 178.748L87.4228 180.739L88.4228 180.739ZM88.4228 176.757L88.4228 174.766L87.4228 174.766L87.4228 176.757L88.4228 176.757ZM88.4228 172.774L88.4228 170.783L87.4228 170.783L87.4228 172.774L88.4228 172.774ZM88.4228 168.792L88.4228 166.801L87.4228 166.801L87.4228 168.792L88.4228 168.792ZM88.4228 164.81L88.4228 162.819L87.4228 162.819L87.4228 164.81L88.4228 164.81ZM88.4228 160.828L88.4228 158.837L87.4228 158.837L87.4228 160.828L88.4228 160.828ZM88.4228 156.846L88.4228 154.854L87.4228 154.854L87.4228 156.846L88.4228 156.846ZM88.4228 152.863L88.4228 150.872L87.4228 150.872L87.4228 152.863L88.4228 152.863ZM88.4228 148.881L88.4228 146.89L87.4228 146.89L87.4228 148.881L88.4228 148.881ZM88.4228 144.899L88.4228 142.908L87.4228 142.908L87.4228 144.899L88.4228 144.899ZM88.4228 140.917L88.4228 139.921L87.4228 139.921L87.4228 140.917L88.4228 140.917Z" fill="#D45E5E"/>
<path d="M98.7741 96.9906C106.67 96.9906 113.712 101.428 117.149 108.449C115.92 110.991 114.191 113.178 112.128 114.949L115.066 117.886C117.962 115.324 120.253 112.116 121.691 108.449C118.087 99.3031 109.191 92.8239 98.7741 92.8239C96.1283 92.8239 93.5866 93.2406 91.1908 94.0114L94.6283 97.4489C95.9824 97.1781 97.3574 96.9906 98.7741 96.9906ZM96.5449 99.3656L100.857 103.678C102.045 104.199 103.003 105.157 103.524 106.345L107.837 110.657C108.003 109.949 108.128 109.199 108.128 108.428C108.149 103.261 103.941 99.0739 98.7741 99.0739C98.0033 99.0739 97.2741 99.1781 96.5449 99.3656ZM77.9616 92.5531L83.5449 98.1364C80.1491 100.803 77.4616 104.345 75.8574 108.449C79.4616 117.595 88.3574 124.074 98.7741 124.074C101.941 124.074 104.982 123.47 107.774 122.366L114.899 129.491L117.837 126.553L80.8991 89.5947L77.9616 92.5531ZM93.5866 108.178L99.0241 113.616C98.9408 113.636 98.8574 113.657 98.7741 113.657C95.8991 113.657 93.5658 111.324 93.5658 108.449C93.5658 108.345 93.5866 108.282 93.5866 108.178ZM86.5033 101.095L90.1491 104.741C89.6699 105.886 89.3991 107.136 89.3991 108.449C89.3991 113.616 93.6074 117.824 98.7741 117.824C100.087 117.824 101.337 117.553 102.462 117.074L104.503 119.116C102.67 119.616 100.753 119.907 98.7741 119.907C90.8783 119.907 83.8366 115.47 80.3991 108.449C81.8574 105.47 83.9824 103.011 86.5033 101.095Z" fill="#8200FF"/>
<path opacity="0.3" d="M432.539 199.902L441.897 205.096L437.131 207.74C435.975 206.537 434.344 205.777 432.539 205.777C430.734 205.777 429.104 206.537 427.948 207.74L423.182 205.096L432.539 199.902ZM430.956 223.447L421.456 218.174V207.772L426.412 210.527C426.269 211.017 426.206 211.556 426.206 212.11C426.206 215.055 428.217 217.541 430.956 218.237V223.447ZM429.373 212.11C429.373 210.368 430.798 208.943 432.539 208.943C434.281 208.943 435.706 210.368 435.706 212.11C435.706 213.852 434.281 215.277 432.539 215.277C430.798 215.277 429.373 213.852 429.373 212.11ZM434.123 223.447V218.253C436.862 217.557 438.873 215.071 438.873 212.126C438.873 211.572 438.809 211.033 438.667 210.527L443.623 207.772V218.174L434.123 223.447Z" fill="#E97DDC"/>
<path d="M446.789 204.193L432.539 196.276L418.289 204.193V220.026L432.539 227.943L446.789 220.026V204.193ZM432.539 199.902L441.897 205.096L437.131 207.74C435.975 206.536 434.344 205.776 432.539 205.776C430.734 205.776 429.103 206.536 427.947 207.74L423.182 205.096L432.539 199.902ZM430.956 223.446L421.456 218.174V207.771L426.412 210.526C426.269 211.017 426.206 211.556 426.206 212.11C426.206 215.055 428.217 217.541 430.956 218.237V223.446ZM429.372 212.11C429.372 210.368 430.797 208.943 432.539 208.943C434.281 208.943 435.706 210.368 435.706 212.11C435.706 213.851 434.281 215.276 432.539 215.276C430.797 215.276 429.372 213.851 429.372 212.11ZM434.122 223.446V218.253C436.862 217.556 438.872 215.071 438.872 212.126C438.872 211.571 438.809 211.033 438.667 210.526L443.622 207.771V218.174L434.122 223.446Z" fill="#8200FF"/>
<path d="M197.537 171.676L185.537 177.009V185.009C185.537 192.409 190.657 199.329 197.537 201.009C204.417 199.329 209.537 192.409 209.537 185.009V177.009L197.537 171.676ZM206.87 185.009C206.87 191.036 202.897 196.596 197.537 198.249C192.177 196.596 188.204 191.036 188.204 185.009V178.742L197.537 174.596L206.87 178.742V185.009ZM191.417 185.796L189.537 187.676L194.87 193.009L205.537 182.342L203.657 180.449L194.87 189.236L191.417 185.796Z" fill="#E97DDC"/>
<path opacity="0.3" d="M188.204 178.742V185.009C188.204 191.036 192.177 196.596 197.537 198.249C202.897 196.609 206.871 191.036 206.871 185.009V178.742L197.537 174.596L188.204 178.742ZM205.537 182.342L194.871 193.009L189.537 187.676L191.417 185.796L194.871 189.236L203.657 180.449L205.537 182.342Z" fill="#F39292"/>
<defs>
<filter id="filter0_d_1556_4565" x="348.792" y="48.9693" width="170.023" height="143.091" filterUnits="userSpaceOnUse" color-interpolation-filters="sRGB">
<feFlood flood-opacity="0" result="BackgroundImageFix"/>
<feColorMatrix in="SourceAlpha" type="matrix" values="0 0 0 0 0 0 0 0 0 0 0 0 0 0 0 0 0 0 127 0" result="hardAlpha"/>
<feOffset dy="12.972"/>
<feGaussianBlur stdDeviation="19.8635"/>
<feComposite in2="hardAlpha" operator="out"/>
<feColorMatrix type="matrix" values="0 0 0 0 0.351796 0 0 0 0 0 0 0 0 0 0.691667 0 0 0 0.1 0"/>
<feBlend mode="normal" in2="BackgroundImageFix" result="effect1_dropShadow_1556_4565"/>
<feBlend mode="normal" in="SourceGraphic" in2="effect1_dropShadow_1556_4565" result="shape"/>
</filter>
<filter id="filter1_d_1556_4565" x="205.8" y="264.491" width="170.023" height="143.091" filterUnits="userSpaceOnUse" color-interpolation-filters="sRGB">
<feFlood flood-opacity="0" result="BackgroundImageFix"/>
<feColorMatrix in="SourceAlpha" type="matrix" values="0 0 0 0 0 0 0 0 0 0 0 0 0 0 0 0 0 0 127 0" result="hardAlpha"/>
<feOffset dy="12.972"/>
<feGaussianBlur stdDeviation="19.8635"/>
<feComposite in2="hardAlpha" operator="out"/>
<feColorMatrix type="matrix" values="0 0 0 0 0.351796 0 0 0 0 0 0 0 0 0 0.691667 0 0 0 0.1 0"/>
<feBlend mode="normal" in2="BackgroundImageFix" result="effect1_dropShadow_1556_4565"/>
<feBlend mode="normal" in="SourceGraphic" in2="effect1_dropShadow_1556_4565" result="shape"/>
</filter>
<filter id="filter2_d_1556_4565" x="14.6999" y="48.9693" width="170.023" height="143.091" filterUnits="userSpaceOnUse" color-interpolation-filters="sRGB">
<feFlood flood-opacity="0" result="BackgroundImageFix"/>
<feColorMatrix in="SourceAlpha" type="matrix" values="0 0 0 0 0 0 0 0 0 0 0 0 0 0 0 0 0 0 127 0" result="hardAlpha"/>
<feOffset dy="12.972"/>
<feGaussianBlur stdDeviation="19.8635"/>
<feComposite in2="hardAlpha" operator="out"/>
<feColorMatrix type="matrix" values="0 0 0 0 0.351796 0 0 0 0 0 0 0 0 0 0.691667 0 0 0 0.1 0"/>
<feBlend mode="normal" in2="BackgroundImageFix" result="effect1_dropShadow_1556_4565"/>
<feBlend mode="normal" in="SourceGraphic" in2="effect1_dropShadow_1556_4565" result="shape"/>
</filter>
<filter id="filter3_d_1556_4565" x="141.81" y="256.519" width="112.535" height="112.904" filterUnits="userSpaceOnUse" color-interpolation-filters="sRGB">
<feFlood flood-opacity="0" result="BackgroundImageFix"/>
<feColorMatrix in="SourceAlpha" type="matrix" values="0 0 0 0 0 0 0 0 0 0 0 0 0 0 0 0 0 0 127 0" result="hardAlpha"/>
<feOffset dy="12.972"/>
<feGaussianBlur stdDeviation="19.8635"/>
<feComposite in2="hardAlpha" operator="out"/>
<feColorMatrix type="matrix" values="0 0 0 0 0.351796 0 0 0 0 0 0 0 0 0 0.691667 0 0 0 0.1 0"/>
<feBlend mode="normal" in2="BackgroundImageFix" result="effect1_dropShadow_1556_4565"/>
<feBlend mode="normal" in="SourceGraphic" in2="effect1_dropShadow_1556_4565" result="shape"/>
</filter>
<filter id="filter4_d_1556_4565" x="87.4035" y="256.519" width="112.535" height="112.904" filterUnits="userSpaceOnUse" color-interpolation-filters="sRGB">
<feFlood flood-opacity="0" result="BackgroundImageFix"/>
<feColorMatrix in="SourceAlpha" type="matrix" values="0 0 0 0 0 0 0 0 0 0 0 0 0 0 0 0 0 0 127 0" result="hardAlpha"/>
<feOffset dy="12.972"/>
<feGaussianBlur stdDeviation="19.8635"/>
<feComposite in2="hardAlpha" operator="out"/>
<feColorMatrix type="matrix" values="0 0 0 0 0.351796 0 0 0 0 0 0 0 0 0 0.691667 0 0 0 0.1 0"/>
<feBlend mode="normal" in2="BackgroundImageFix" result="effect1_dropShadow_1556_4565"/>
<feBlend mode="normal" in="SourceGraphic" in2="effect1_dropShadow_1556_4565" result="shape"/>
</filter>
<filter id="filter5_d_1556_4565" x="31.6554" y="256.519" width="112.535" height="112.904" filterUnits="userSpaceOnUse" color-interpolation-filters="sRGB">
<feFlood flood-opacity="0" result="BackgroundImageFix"/>
<feColorMatrix in="SourceAlpha" type="matrix" values="0 0 0 0 0 0 0 0 0 0 0 0 0 0 0 0 0 0 127 0" result="hardAlpha"/>
<feOffset dy="12.972"/>
<feGaussianBlur stdDeviation="19.8635"/>
<feComposite in2="hardAlpha" operator="out"/>
<feColorMatrix type="matrix" values="0 0 0 0 0.351796 0 0 0 0 0 0 0 0 0 0.691667 0 0 0 0.1 0"/>
<feBlend mode="normal" in2="BackgroundImageFix" result="effect1_dropShadow_1556_4565"/>
<feBlend mode="normal" in="SourceGraphic" in2="effect1_dropShadow_1556_4565" result="shape"/>
</filter>
<radialGradient id="paint0_diamond_1556_4565" cx="0" cy="0" r="1" gradientUnits="userSpaceOnUse" gradientTransform="translate(563.429 0.947762) rotate(141.902) scale(551.683 666.426)">
<stop offset="0.35225" stop-color="#E2E0FE" stop-opacity="0.4"/>
<stop offset="1" stop-color="#E2E0FE" stop-opacity="0"/>
</radialGradient>
</defs>
</svg>
