<svg width="147" height="147" viewBox="0 0 147 147" fill="none" xmlns="http://www.w3.org/2000/svg">
<path d="M50.6795 65.0962C50.6795 66.3763 50.8179 67.4142 51.0601 68.1753C51.3369 68.9365 51.6828 69.7668 52.1672 70.6664C52.3402 70.9432 52.4094 71.2199 52.4094 71.4621C52.4094 71.8081 52.2018 72.1541 51.752 72.5L49.5724 73.9531C49.261 74.1607 48.9496 74.2645 48.6729 74.2645C48.3269 74.2645 47.9809 74.0915 47.6349 73.7802C47.1506 73.2612 46.7354 72.7076 46.3894 72.1541C46.0434 71.5659 45.6975 70.9086 45.3169 70.1128C42.6183 73.2958 39.2277 74.8873 35.1452 74.8873C32.239 74.8873 29.9209 74.0569 28.2257 72.3963C26.5304 70.7356 25.6654 68.5213 25.6654 65.7535C25.6654 62.8127 26.7034 60.4255 28.8138 58.6264C30.9243 56.8273 33.7267 55.9278 37.2902 55.9278C38.4666 55.9278 39.6775 56.0316 40.9576 56.2046C42.2377 56.3776 43.5524 56.6543 44.9363 56.9657V54.4401C44.9363 51.8107 44.3828 49.977 43.3102 48.9045C42.2031 47.8319 40.3348 47.313 37.6708 47.313C36.4599 47.313 35.2144 47.4514 33.9343 47.7627C32.6542 48.0741 31.4086 48.4547 30.1977 48.9391C29.6442 49.1812 29.229 49.3196 28.9868 49.3888C28.7446 49.458 28.5716 49.4926 28.4332 49.4926C27.9489 49.4926 27.7067 49.1466 27.7067 48.4201V46.7248C27.7067 46.1713 27.7759 45.7561 27.9489 45.5139C28.1219 45.2717 28.4332 45.0295 28.9176 44.7873C30.1285 44.1646 31.5816 43.6456 33.2769 43.2305C34.9722 42.7807 36.7713 42.5731 38.6741 42.5731C42.7913 42.5731 45.8013 43.5072 47.7387 45.3755C49.6416 47.2438 50.6103 50.0808 50.6103 53.8865V65.0962H50.6795ZM36.6329 70.355C37.7746 70.355 38.9509 70.1474 40.1964 69.7322C41.442 69.3171 42.5491 68.5559 43.4832 67.518C44.0368 66.8606 44.4519 66.1341 44.6595 65.3037C44.8671 64.4734 45.0055 63.4701 45.0055 62.2937V60.8406C44.0022 60.5985 42.9296 60.3909 41.8225 60.2525C40.7154 60.1141 39.6429 60.0449 38.5704 60.0449C36.2523 60.0449 34.557 60.4947 33.4153 61.4288C32.2736 62.3629 31.72 63.6777 31.72 65.4075C31.72 67.0336 32.1352 68.2445 33.0001 69.0749C33.8305 69.9398 35.0414 70.355 36.6329 70.355ZM64.4148 74.0915C63.792 74.0915 63.3768 73.9877 63.1001 73.7456C62.8233 73.538 62.5811 73.0536 62.3735 72.3963L54.2431 45.6523C54.0355 44.9603 53.9317 44.5106 53.9317 44.2684C53.9317 43.7148 54.2085 43.4034 54.762 43.4034H58.1526C58.81 43.4034 59.2597 43.5072 59.5019 43.7494C59.7787 43.957 59.9863 44.4414 60.1939 45.0987L66.0063 68.0024L71.4035 45.0987C71.5765 44.4068 71.7841 43.957 72.0608 43.7494C72.3376 43.5418 72.822 43.4034 73.4447 43.4034H76.2126C76.8699 43.4034 77.3197 43.5072 77.5965 43.7494C77.8732 43.957 78.1154 44.4414 78.2538 45.0987L83.7202 68.2791L89.7056 45.0987C89.9132 44.4068 90.1554 43.957 90.3976 43.7494C90.6744 43.5418 91.1241 43.4034 91.7469 43.4034H94.9645C95.518 43.4034 95.8294 43.6802 95.8294 44.2684C95.8294 44.4414 95.7948 44.6144 95.7602 44.8219C95.7256 45.0295 95.6564 45.3063 95.518 45.6869L87.18 72.4308C86.9724 73.1228 86.7302 73.5726 86.4535 73.7802C86.1767 73.9877 85.7269 74.1261 85.1387 74.1261H82.1633C81.506 74.1261 81.0562 74.0223 80.7794 73.7802C80.5027 73.538 80.2605 73.0882 80.1221 72.3963L74.7595 50.0808L69.4314 72.3617C69.2584 73.0536 69.0508 73.5034 68.7741 73.7456C68.4973 73.9877 68.0129 74.0915 67.3902 74.0915H64.4148ZM108.873 75.0257C107.074 75.0257 105.275 74.8181 103.545 74.4029C101.815 73.9877 100.465 73.538 99.5659 73.019C99.0124 72.7076 98.6318 72.3617 98.4934 72.0503C98.355 71.7389 98.2858 71.3929 98.2858 71.0815V69.3171C98.2858 68.5905 98.5626 68.2445 99.0816 68.2445C99.2892 68.2445 99.4968 68.2791 99.7043 68.3483C99.9119 68.4175 100.223 68.5559 100.569 68.6943C101.746 69.2133 103.026 69.6284 104.375 69.9052C105.759 70.182 107.108 70.3204 108.492 70.3204C110.672 70.3204 112.367 69.9398 113.543 69.1787C114.72 68.4175 115.342 67.3104 115.342 65.8919C115.342 64.9232 115.031 64.1274 114.408 63.4701C113.786 62.8127 112.609 62.2246 110.914 61.671L105.897 60.1141C103.372 59.3183 101.503 58.142 100.362 56.5851C99.22 55.0628 98.6318 53.3676 98.6318 51.5685C98.6318 50.1154 98.9432 48.8353 99.5659 47.7281C100.189 46.621 101.019 45.6523 102.057 44.8911C103.095 44.0954 104.271 43.5072 105.655 43.0921C107.039 42.6769 108.492 42.5039 110.014 42.5039C110.776 42.5039 111.571 42.5385 112.332 42.6423C113.128 42.7461 113.855 42.8845 114.581 43.0229C115.273 43.1959 115.931 43.3688 116.553 43.5764C117.176 43.784 117.66 43.9916 118.006 44.1992C118.491 44.476 118.837 44.7528 119.044 45.0641C119.252 45.3409 119.356 45.7215 119.356 46.2059V47.8319C119.356 48.5585 119.079 48.9391 118.56 48.9391C118.283 48.9391 117.833 48.8007 117.245 48.5239C115.273 47.6244 113.059 47.1746 110.603 47.1746C108.631 47.1746 107.074 47.486 106.001 48.1433C104.929 48.8007 104.375 49.804 104.375 51.2225C104.375 52.1912 104.721 53.0216 105.413 53.6789C106.105 54.3363 107.385 54.9936 109.219 55.5818L114.132 57.1387C116.623 57.9344 118.422 59.0416 119.494 60.4601C120.567 61.8786 121.086 63.5047 121.086 65.3037C121.086 66.7914 120.774 68.1407 120.186 69.3171C119.563 70.4934 118.733 71.5313 117.66 72.3617C116.588 73.2266 115.308 73.8493 113.82 74.2991C112.263 74.7835 110.637 75.0257 108.873 75.0257Z" fill="#252F3E"/>
<path fill-rule="evenodd" clip-rule="evenodd" d="M115.412 91.8401C104.029 100.247 87.4914 104.71 73.2718 104.71C53.3435 104.71 35.3874 97.3411 21.8251 85.0936C20.7526 84.1248 21.7213 82.8101 23.0014 83.5713C37.6708 92.0823 55.7654 97.2373 74.4827 97.2373C87.1108 97.2373 100.984 94.6079 113.751 89.2107C115.654 88.3458 117.28 90.4562 115.412 91.8401Z" fill="#FF9900"/>
<path fill-rule="evenodd" clip-rule="evenodd" d="M120.152 86.4429C118.698 84.5746 110.533 85.5434 106.831 85.9931C105.724 86.1315 105.551 85.1628 106.555 84.4362C113.059 79.8693 123.75 81.1841 124.995 82.7063C126.241 84.2632 124.649 94.9539 118.56 100.074C117.626 100.87 116.726 100.455 117.142 99.417C118.525 95.9918 121.605 88.2766 120.152 86.4429Z" fill="#FF9900"/>
</svg>
