<svg width="94" height="95" viewBox="0 0 94 95" fill="none" xmlns="http://www.w3.org/2000/svg">
<circle cx="62.6673" cy="31.7044" r="30.5487" stroke="url(#paint0_linear_7389_56419)" stroke-width="1.56927"/>
<circle cx="31.3333" cy="31.7044" r="30.5487" stroke="url(#paint1_linear_7389_56419)" stroke-width="1.56927"/>
<circle cx="31.3333" cy="63.0384" r="30.5487" stroke="url(#paint2_linear_7389_56419)" stroke-width="1.56927"/>
<circle cx="62.6673" cy="63.0384" r="30.5487" stroke="url(#paint3_linear_7389_56419)" stroke-width="1.56927"/>
<path d="M30.3529 15.0586L22.5065 10.5285V19.5887L30.3529 15.0586ZM16.8456 15.8432H23.2911V14.274H16.8456V15.8432ZM14.4917 63.0378V18.1971H12.9224V63.0378H14.4917ZM16.8456 14.274C14.6789 14.274 12.9224 16.0304 12.9224 18.1971H14.4917C14.4917 16.8971 15.5456 15.8432 16.8456 15.8432V14.274Z" fill="url(#paint4_linear_7389_56419)"/>
<path d="M13.707 64.9967L9.17692 72.8431H18.2371L13.707 64.9967ZM14.4917 78.504V72.0585H12.9224V78.504H14.4917ZM61.6862 80.8579H16.8456V82.4272H61.6862V80.8579ZM12.9224 78.504C12.9224 80.6707 14.6789 82.4272 16.8456 82.4272V80.8579C15.5456 80.8579 14.4917 79.8041 14.4917 78.504H12.9224Z" fill="url(#paint5_linear_7389_56419)"/>
<path d="M80.291 31.7044L84.8211 23.858H75.7609L80.291 31.7044ZM79.5064 18.1971V24.6427H81.0757V18.1971H79.5064ZM32.3119 15.8432L77.1525 15.8432V14.274L32.3119 14.274V15.8432ZM81.0757 18.1971C81.0757 16.0304 79.3192 14.274 77.1525 14.274V15.8432C78.4525 15.8432 79.5064 16.8971 79.5064 18.1971H81.0757Z" fill="url(#paint6_linear_7389_56419)"/>
<path d="M63.6452 81.6426L71.4916 86.1727V77.1125L63.6452 81.6426ZM77.1525 80.8579H70.7069V82.4272H77.1525V80.8579ZM79.5064 33.6634V78.504H81.0757V33.6634H79.5064ZM77.1525 82.4272C79.3192 82.4272 81.0757 80.6707 81.0757 78.504H79.5064C79.5064 79.8041 78.4525 80.8579 77.1525 80.8579V82.4272Z" fill="url(#paint7_linear_7389_56419)"/>
<defs>
<linearGradient id="paint0_linear_7389_56419" x1="31.334" y1="63.0379" x2="73.4278" y2="63.0621" gradientUnits="userSpaceOnUse">
<stop offset="0.03125" stop-color="#E151F7"/>
<stop offset="0.96875" stop-color="#5C47F5"/>
</linearGradient>
<linearGradient id="paint1_linear_7389_56419" x1="-7.18157e-08" y1="63.0379" x2="42.0939" y2="63.0621" gradientUnits="userSpaceOnUse">
<stop offset="0.03125" stop-color="#E151F7"/>
<stop offset="0.96875" stop-color="#5C47F5"/>
</linearGradient>
<linearGradient id="paint2_linear_7389_56419" x1="-7.18157e-08" y1="94.3719" x2="42.0939" y2="94.3961" gradientUnits="userSpaceOnUse">
<stop offset="0.03125" stop-color="#E151F7"/>
<stop offset="0.96875" stop-color="#5C47F5"/>
</linearGradient>
<linearGradient id="paint3_linear_7389_56419" x1="31.334" y1="94.3719" x2="73.4278" y2="94.3961" gradientUnits="userSpaceOnUse">
<stop offset="0.03125" stop-color="#E151F7"/>
<stop offset="0.96875" stop-color="#5C47F5"/>
</linearGradient>
<linearGradient id="paint4_linear_7389_56419" x1="13.707" y1="63.0378" x2="24.8882" y2="63.0401" gradientUnits="userSpaceOnUse">
<stop offset="0.03125" stop-color="#E151F7"/>
<stop offset="0.96875" stop-color="#5C47F5"/>
</linearGradient>
<linearGradient id="paint5_linear_7389_56419" x1="61.6863" y1="81.6426" x2="61.6885" y2="70.4614" gradientUnits="userSpaceOnUse">
<stop offset="0.03125" stop-color="#E151F7"/>
<stop offset="0.96875" stop-color="#5C47F5"/>
</linearGradient>
<linearGradient id="paint6_linear_7389_56419" x1="32.3118" y1="15.0586" x2="32.3095" y2="26.2398" gradientUnits="userSpaceOnUse">
<stop offset="0.03125" stop-color="#E151F7"/>
<stop offset="0.96875" stop-color="#5C47F5"/>
</linearGradient>
<linearGradient id="paint7_linear_7389_56419" x1="80.291" y1="33.6633" x2="69.1098" y2="33.6611" gradientUnits="userSpaceOnUse">
<stop offset="0.03125" stop-color="#E151F7"/>
<stop offset="0.96875" stop-color="#5C47F5"/>
</linearGradient>
</defs>
</svg>
