<svg width="147" height="147" viewBox="0 0 147 147" fill="none" xmlns="http://www.w3.org/2000/svg">
<path d="M87.651 73.6077H98.0795C98.8943 73.6077 99.709 72.9559 99.709 71.9782C99.709 71.8153 99.709 71.4894 99.546 71.3265L81.6219 22.4425C81.296 21.9537 80.8072 21.4648 80.1554 21.4648H69.7268C68.9121 21.4648 68.0974 22.1166 68.0974 23.0943C68.0974 23.2573 68.0974 23.4202 68.2603 23.5831L86.3474 72.793C86.5103 73.2818 86.9992 73.6077 87.651 73.6077Z" fill="#0073FF"/>
<path d="M85.8585 125.751H96.2871C97.1018 125.751 97.9166 125.099 97.9166 124.121C97.9166 123.958 97.9166 123.795 97.7536 123.632L60.6018 22.4425C60.4389 21.9537 59.7871 21.4648 59.1353 21.4648H48.7068C47.892 21.4648 47.0773 22.1166 47.0773 23.0943C47.0773 23.2573 47.0773 23.4202 47.2402 23.5831L84.392 124.773C84.555 125.425 85.2068 125.751 85.8585 125.751Z" fill="#0073FF"/>
<path d="M65.1643 125.751H75.5929C76.4077 125.751 77.0594 125.099 77.2224 124.284C77.2224 124.121 77.2224 123.795 77.0594 123.632L58.9724 74.5854C58.8094 73.9336 58.1576 73.6077 57.5059 73.6077H46.9143C46.0996 73.6077 45.4478 74.4224 45.4478 75.2372C45.4478 75.4001 45.4478 75.5631 45.6108 75.726L63.5349 124.773C64.0237 125.425 64.5126 125.751 65.1643 125.751Z" fill="#0073FF"/>
<path d="M88.9545 23.5831L97.4277 46.5586C97.5907 47.2104 98.2425 47.5363 98.8943 47.5363H109.16C109.975 47.5363 110.789 46.8845 110.789 45.9068C110.789 45.7439 110.789 45.5809 110.626 45.418L102.153 22.4425C101.99 21.9537 101.501 21.4648 100.85 21.4648H90.421C89.6063 21.4648 88.7916 22.1166 88.7916 23.0943C88.7916 23.2573 88.7916 23.4202 88.9545 23.5831Z" fill="#0073FF"/>
<path d="M45.9367 125.751H56.3652C57.18 125.751 57.9947 125.099 57.9947 124.121C57.9947 123.958 57.9947 123.795 57.8318 123.632L49.3585 100.657C49.1956 100.005 48.5438 99.6791 47.892 99.6791H37.4634C36.6487 99.6791 35.834 100.331 35.834 101.309C35.834 101.472 35.834 101.634 35.9969 101.797L44.4701 124.773C44.6331 125.425 45.2849 125.751 45.9367 125.751Z" fill="#0073FF"/>
</svg>
