<svg width="147" height="147" viewBox="0 0 147 147" fill="none" xmlns="http://www.w3.org/2000/svg">
<path d="M91.4587 54.7209L100.501 45.6784L101.104 41.871C84.626 26.8877 58.4324 28.5866 43.5783 45.4159C39.4523 50.0902 36.3913 55.9176 34.759 61.9352L37.9976 61.4789L56.0821 58.4967L57.4783 57.0688C65.5228 48.234 79.1244 47.0454 88.4127 54.5624L91.4587 54.7209Z" fill="#EA4335"/>
<path d="M113.382 61.6693C111.304 54.0153 107.037 47.1344 101.104 41.871L88.4127 54.5624C93.7716 58.9412 96.8246 65.5377 96.6937 72.4566V74.7094C102.932 74.7094 107.989 79.7664 107.989 86.0042C107.989 92.2425 102.932 97.1727 96.6937 97.1727H74.0719L71.8508 99.584V113.132L74.0719 115.257H96.6937C112.919 115.384 126.175 102.46 126.301 86.2342C126.378 76.3994 121.529 67.1794 113.382 61.6693Z" fill="#4285F4"/>
<path d="M51.4817 115.257L74.0719 115.257V97.1727L51.4817 97.1725C49.8721 97.1721 48.3134 96.8263 46.8497 96.1574L43.6449 97.1408L34.539 106.183L33.7458 109.261C38.8524 113.117 45.0829 115.285 51.4817 115.257Z" fill="#34A853"/>
<path d="M51.4817 56.5929C35.2558 56.6896 22.1812 69.9219 22.2779 86.1474C22.3319 95.2081 26.5636 103.737 33.7458 109.261L46.8497 96.1574C41.1645 93.5889 38.6383 86.8983 41.2068 81.2135C43.7749 75.5287 50.4658 73.0024 56.1502 75.5706C58.6553 76.7022 60.6615 78.7088 61.7932 81.2135L74.8971 68.11C69.3216 60.8214 60.6582 56.56 51.4817 56.5929Z" fill="#FBBC05"/>
</svg>
