<svg width="147" height="147" viewBox="0 0 147 147" fill="none" xmlns="http://www.w3.org/2000/svg">
<path d="M56.0433 24.5987H86.8252L54.8705 119.277C54.5421 120.25 53.9169 121.095 53.0828 121.694C52.2487 122.293 51.2478 122.615 50.221 122.615H26.265C25.487 122.616 24.7202 122.43 24.028 122.075C23.3357 121.72 22.738 121.205 22.2842 120.574C21.8304 119.942 21.5336 119.211 21.4183 118.441C21.3031 117.672 21.3727 116.886 21.6214 116.149L51.3925 27.9372C51.7208 26.9639 52.3462 26.1181 53.1805 25.519C54.0148 24.9198 55.0161 24.5987 56.0433 24.5987Z" fill="url(#paint0_linear_3513_22201)"/>
<path d="M100.774 88.1025H51.9612C51.5074 88.102 51.0639 88.2382 50.6886 88.4933C50.3133 88.7485 50.0235 89.1107 49.857 89.5329C49.6905 89.955 49.655 90.4175 49.7552 90.8602C49.8553 91.3028 50.0864 91.705 50.4184 92.0144L81.7843 121.29C82.6976 122.142 83.9 122.616 85.1489 122.615H112.789L100.774 88.1025Z" fill="#0078D4"/>
<path d="M56.0433 24.5987C55.0049 24.5947 53.9924 24.9228 53.1538 25.5352C52.3152 26.1475 51.6943 27.0119 51.3819 28.0022L21.658 116.068C21.3926 116.808 21.3093 117.601 21.4151 118.38C21.5209 119.159 21.8127 119.901 22.2659 120.543C22.7191 121.185 23.3203 121.709 24.0187 122.07C24.717 122.43 25.492 122.618 26.278 122.615H50.8523C51.7675 122.452 52.623 122.048 53.3312 121.446C54.0395 120.844 54.5752 120.064 54.8835 119.187L60.8111 101.718L81.9841 121.466C82.8714 122.2 83.9844 122.606 85.1359 122.615H112.673L100.595 88.1025L65.3885 88.1108L86.9363 24.5987L56.0433 24.5987Z" fill="url(#paint1_linear_3513_22201)"/>
<path d="M95.3595 27.9325C95.0317 26.9607 94.4072 26.1163 93.5741 25.5183C92.7411 24.9202 91.7413 24.5985 90.7158 24.5987H56.4098C57.4352 24.5987 58.4349 24.9204 59.2679 25.5185C60.101 26.1165 60.7254 26.9608 61.0534 27.9325L90.8258 116.148C91.0746 116.885 91.1444 117.671 91.0292 118.441C90.9141 119.21 90.6173 119.941 90.1635 120.574C89.7097 121.206 89.112 121.721 88.4196 122.076C87.7273 122.431 86.9603 122.617 86.1821 122.617H120.489C121.267 122.616 122.034 122.431 122.726 122.076C123.419 121.72 124.016 121.205 124.47 120.573C124.924 119.941 125.22 119.21 125.335 118.44C125.45 117.671 125.381 116.885 125.132 116.148L95.3595 27.9325Z" fill="url(#paint2_linear_3513_22201)"/>
<defs>
<linearGradient id="paint0_linear_3513_22201" x1="94.3015" y1="31.8632" x2="72.8531" y2="132.556" gradientUnits="userSpaceOnUse">
<stop stop-color="#114A8B"/>
<stop offset="1" stop-color="#0669BC"/>
</linearGradient>
<linearGradient id="paint1_linear_3513_22201" x1="84.9504" y1="75.8745" x2="76.7835" y2="79.0166" gradientUnits="userSpaceOnUse">
<stop stop-opacity="0.3"/>
<stop offset="0.071" stop-opacity="0.2"/>
<stop offset="0.321" stop-opacity="0.1"/>
<stop offset="0.623" stop-opacity="0.05"/>
<stop offset="1" stop-opacity="0"/>
</linearGradient>
<linearGradient id="paint2_linear_3513_22201" x1="73.1814" y1="29.1075" x2="108.272" y2="122.597" gradientUnits="userSpaceOnUse">
<stop stop-color="#3CCBF4"/>
<stop offset="1" stop-color="#2892DF"/>
</linearGradient>
</defs>
</svg>
