<svg width="147" height="147" viewBox="0 0 147 147" fill="none" xmlns="http://www.w3.org/2000/svg">
<path d="M23.404 88.3331C23.404 88.3331 52.8528 108.874 54.6465 109.901C56.3761 110.923 58.9075 111.165 61.1289 110.322C63.3524 109.479 65.02 107.551 65.5139 105.623C66.0698 103.695 72.8002 68.9933 72.8002 68.9933C72.8622 68.5118 73.0461 67.1273 72.3043 65.8006C71.2545 63.9946 68.9091 63.0316 66.8096 63.6309C65.6547 63.9663 64.6651 64.718 64.0323 65.7407C63.6603 66.402 62.9825 67.4889 61.7468 68.4519C60.821 69.1751 59.8953 69.5967 59.4634 69.7765C55.6963 71.285 51.4972 70.0182 49.0898 67.0074C47.6082 65.1394 44.9528 64.4161 42.6053 65.3191C41.4956 65.7521 40.5544 66.5304 39.9208 67.5391C39.2871 68.5479 38.9945 69.7336 39.0862 70.9213C39.5201 74.6574 37.3586 78.3915 33.5295 79.8979C31.5711 80.6475 29.4165 80.7116 27.417 80.0798C26.983 79.9578 25.4415 79.5983 23.8978 80.4414C21.9843 81.4043 20.9966 83.694 21.4904 85.7418C21.8603 87.1263 22.9721 88.0314 23.404 88.3331Z" fill="#FF9538"/>
<path d="M72.4902 43.3301C72.4902 43.3301 82.9877 77.1867 83.7275 78.9949C84.4693 80.8629 86.3209 82.5491 88.6043 83.2104C90.8898 83.8737 93.4212 83.3323 95.0268 82.1276C96.6324 80.9229 123.738 57.4873 123.738 57.4873C124.579 56.7532 125.145 55.7548 125.344 54.6563C125.654 52.6084 124.356 50.4387 122.38 49.6555C121.244 49.2387 119.997 49.2387 118.861 49.6555C118.181 49.9572 116.946 50.3788 115.402 50.4387C114.168 50.5007 113.242 50.2589 112.749 50.137C108.857 49.0521 106.264 45.5598 106.264 41.7638C106.226 40.5785 105.81 39.4364 105.077 38.5043C104.344 37.5723 103.332 36.8991 102.189 36.5832C99.7197 35.9199 97.1883 36.9448 95.8926 38.9327C93.853 42.1853 89.84 43.8116 85.889 42.7267C83.7895 42.1254 82.0599 40.8607 80.9502 39.2344C80.6402 38.8707 79.6525 37.666 77.9249 37.3664C75.8254 37.0047 73.5399 38.2095 72.6761 40.0775C71.9963 41.524 72.3662 42.8466 72.4902 43.3301Z" fill="#FF9538"/>
</svg>
