<svg width="147" height="147" viewBox="0 0 147 147" fill="none" xmlns="http://www.w3.org/2000/svg">
<path d="M108.859 73.6919C109.844 74.3102 110.672 74.8615 111.538 75.3788C114.386 77.0285 117.243 78.6631 120.11 80.2825C122.114 81.4074 123.454 82.9708 123.83 85.3437C124.337 88.4818 121.844 91.9123 118.675 92.2552C117.077 92.4657 115.455 92.1437 114.06 91.3387C107.306 87.402 100.495 83.4654 93.685 79.5851C91.4901 78.3313 90.1728 76.5766 90.0154 74.046C89.8465 71.4028 91.141 69.4516 93.2911 68.147C97.062 65.8691 100.906 63.7209 104.722 61.522L113.531 56.4609C114.656 55.8086 115.782 55.1675 117.161 55.0945C118.525 55.0115 119.88 55.3685 121.026 56.1125C122.172 56.8566 123.048 57.9486 123.527 59.2279C124.568 62.0733 123.465 64.9807 120.876 66.6622C119.187 67.7867 117.375 68.726 115.619 69.744C113.649 70.8685 111.679 71.9934 109.703 73.1518C109.467 73.2363 109.253 73.4161 108.859 73.6919Z" fill="#32C0F0"/>
<path d="M37.9361 73.6241C36.0055 72.4992 34.2269 71.4588 32.4371 70.4242C30.3433 69.2149 28.2552 67.989 26.1446 66.8139C23.3304 65.2674 22.2047 61.7243 23.2065 59.2161C24.6812 55.4654 28.7167 53.8961 32.2682 55.8423C34.9811 57.3324 37.6376 58.9237 40.3223 60.4702C44.465 62.8661 48.5962 65.284 52.7668 67.6406C54.6241 68.6864 56.0482 70.0304 56.5659 72.1393C56.8955 73.2634 56.8796 74.4605 56.5204 75.5756C56.1609 76.6904 55.475 77.6719 54.5508 78.3928C53.3617 79.3018 52.1008 80.1122 50.7799 80.8165C44.7538 84.3333 38.7184 87.8216 32.6735 91.2821C30.5403 92.525 28.289 92.7445 26.0376 91.5128C25.2024 91.0658 24.4836 90.4294 23.9391 89.6547C23.3945 88.88 23.0393 87.9884 22.9019 87.052C22.7646 86.1152 22.8489 85.1593 23.1481 84.2611C23.4473 83.3626 23.9531 82.5471 24.6249 81.8796C25.6686 80.9519 26.8148 80.1462 28.0413 79.4783C31.075 77.673 34.1481 75.9352 37.2043 74.1638C37.4069 74.0515 37.5812 73.8995 37.9361 73.6241Z" fill="#32C0F0"/>
<path d="M55.4053 43.3414V41.57C55.4053 37.5096 55.4053 33.4438 55.4053 29.3835C55.4187 27.794 56.0277 26.2672 57.1124 25.1044C58.1969 23.9415 59.6784 23.2271 61.2642 23.1019C64.1403 22.9388 67.7932 25.0196 67.8776 29.1586C67.934 32.2516 67.8776 35.3446 67.8776 38.4489C67.8776 43.6226 67.8776 48.7964 67.8776 53.9701C67.9188 55.3625 67.4881 56.7281 66.6557 57.8458C65.8232 58.9634 64.6374 59.7673 63.2905 60.128C62.4259 60.3652 61.522 60.4254 60.6332 60.3056C59.7445 60.1857 58.8889 59.8883 58.1182 59.4305C53.6155 56.8325 49.1294 54.2532 44.6607 51.6923L37.4957 47.5647C36.3774 46.9763 35.4398 46.0958 34.7829 45.0171C34.0647 43.8244 33.7702 42.4245 33.9469 41.0437C34.1236 39.6632 34.7612 38.3824 35.7566 37.4084C36.7449 36.4256 38.0325 35.7993 39.4162 35.6283C40.8002 35.4572 42.2016 35.7511 43.3997 36.4636C45.4653 37.6222 47.4974 38.8481 49.546 40.0289C51.4261 41.0805 53.3058 42.1321 55.4053 43.3414Z" fill="#32C0F0"/>
<path d="M55.4064 104.026L49.1814 107.602C47.2956 108.688 45.4217 109.801 43.5246 110.864C42.2034 111.652 40.6435 111.942 39.1274 111.681C37.6108 111.42 36.2378 110.626 35.2567 109.441C33.4218 107.22 33.3993 103.649 35.4311 101.596C36.3995 100.656 37.4852 99.8453 38.6617 99.1836C44.9657 95.5004 51.3087 91.8732 57.6294 88.2231C59.4585 87.1662 61.3328 86.6091 63.4436 87.2896C64.7384 87.6477 65.8777 88.4239 66.6842 89.4971C67.491 90.5707 67.9188 91.8807 67.9011 93.2225C67.935 96.4112 67.9011 99.6056 67.9011 102.783C67.9011 107.81 67.9011 112.84 67.9011 117.871C67.9242 119.488 67.313 121.05 66.1979 122.222C65.0828 123.394 63.5526 124.083 61.9353 124.141C61.0975 124.177 60.261 124.043 59.4762 123.749C58.6911 123.455 57.9734 123.006 57.3659 122.429C56.7579 121.852 56.2728 121.158 55.9392 120.389C55.6053 119.621 55.4299 118.793 55.423 117.955C55.3555 113.94 55.423 109.925 55.423 105.915L55.4064 104.026Z" fill="#32C0F0"/>
<path d="M91.4616 43.2566L96.1502 40.5686C98.4576 39.2488 100.762 37.9218 103.062 36.587C104.626 35.6816 106.287 35.2149 108.071 35.7378C110.801 36.5308 112.467 38.364 112.821 41.1816C113.136 43.7291 111.954 45.6803 109.883 47.0806C108.24 48.2054 106.478 49.1108 104.761 50.1007C99.4424 53.1709 94.1069 56.2134 88.805 59.3121C85.9907 60.9485 82.4335 60.5716 80.3625 58.0634C79.4636 57.0332 78.9575 55.7188 78.9329 54.3521C78.9329 45.9842 78.9329 37.616 78.9329 29.2538C78.9416 27.8614 79.4177 26.5121 80.2845 25.4217C81.1512 24.3314 82.3588 23.5629 83.7143 23.2391C85.0698 22.9152 86.4947 23.0547 87.7614 23.6354C89.0281 24.216 90.0635 25.2042 90.7017 26.442C91.1446 27.4035 91.3767 28.4484 91.3829 29.5069C91.4616 33.4434 91.4165 37.3406 91.4165 41.2603L91.4616 43.2566Z" fill="#32C0F0"/>
<path d="M91.46 104.251V117.871C91.4542 119.501 90.8105 121.063 89.6665 122.224C88.5229 123.386 86.9696 124.053 85.3393 124.085C83.7087 124.117 82.1308 123.509 80.9428 122.393C79.7547 121.277 79.0508 119.741 78.9819 118.113C78.8916 115.864 78.9819 113.564 78.9819 111.292C78.9819 105.286 78.9819 99.2798 78.9819 93.2963C78.966 92.4451 79.127 91.5997 79.4555 90.8141C79.7836 90.0286 80.272 89.32 80.889 88.733C81.5063 88.146 82.2387 87.6937 83.0401 87.4046C83.8416 87.1154 84.6946 86.9963 85.5444 87.054C86.6046 87.132 87.6352 87.4367 88.567 87.9482C95.4731 91.8845 102.334 95.8551 109.212 99.8195C110.163 100.308 110.984 101.014 111.608 101.881C112.233 102.749 112.642 103.752 112.803 104.808C113.315 108.002 110.715 111.438 107.478 111.719C105.829 111.877 104.173 111.494 102.762 110.628C99.3849 108.621 96.0078 106.692 92.5855 104.729C92.2199 104.548 91.8441 104.388 91.46 104.251Z" fill="#32C0F0"/>
<path d="M85.0173 73.6702C85.2707 75.0258 84.6682 75.9817 83.7397 76.887C81.3138 79.2432 78.9443 81.6615 76.5411 84.0517C76.1375 84.4632 75.656 84.7899 75.1242 85.013C74.5928 85.2365 74.0221 85.3513 73.4452 85.3513C72.8687 85.3513 72.298 85.2365 71.7666 85.013C71.2349 84.7899 70.7533 84.4632 70.3497 84.0517C67.8769 81.5998 65.4139 79.1479 62.9598 76.6957C62.1541 75.8889 61.6989 74.7976 61.6924 73.6576C61.6862 72.5179 62.1292 71.4212 62.9259 70.6054C65.4139 68.1048 67.9108 65.61 70.4172 63.1205C71.2222 62.3487 72.2933 61.9155 73.4088 61.9105C74.5243 61.9051 75.5993 62.3282 76.4115 63.0924C78.8486 65.5049 81.2405 67.9737 83.7285 70.3523C84.6909 71.2971 85.2819 72.3039 85.0173 73.6702ZM73.4961 69.5145C73.1409 69.5978 72.8009 69.7365 72.4886 69.9249C71.5211 70.7924 70.6024 71.7122 69.7364 72.6807C69.1736 73.3497 69.2353 74.0641 69.8602 74.7839C70.5905 75.6174 71.3724 76.4044 72.2016 77.1401C72.3547 77.3166 72.5442 77.4578 72.7568 77.5549C72.9695 77.6516 73.2005 77.7018 73.4341 77.7018C73.668 77.7018 73.899 77.6516 74.1116 77.5549C74.3243 77.4578 74.5134 77.3166 74.6668 77.1401C75.4646 76.439 76.2166 75.6878 76.918 74.8907C77.7061 73.9966 77.6837 73.2316 76.8675 72.3208C76.1917 71.5667 75.4719 70.853 74.7116 70.1837C74.3344 69.9137 73.9261 69.6892 73.4961 69.5145Z" fill="#32C0F0"/>
</svg>
