<svg width="119" height="116" viewBox="0 0 119 116" fill="none" xmlns="http://www.w3.org/2000/svg">
<g clip-path="url(#clip0_3527_22399)">
<path fill-rule="evenodd" clip-rule="evenodd" d="M118.619 33.1683V83.9365C118.619 91.3473 114.591 98.1724 108.103 101.754C77.8261 118.468 41.0888 118.468 10.8121 101.754C4.32418 98.1724 0.295898 91.3473 0.295898 83.9365V33.1683C0.295898 26.6265 4.2841 20.7457 10.3618 18.3256L49.1145 2.89461C55.7563 0.249973 63.1587 0.249973 69.8003 2.89461L108.553 18.3256C114.631 20.7457 118.619 26.6265 118.619 33.1683ZM11.8394 22.0363C7.28108 23.8513 4.28993 28.2619 4.28993 33.1683V83.9365C4.28993 89.8929 7.52768 95.3787 12.7424 98.2574C41.8177 114.308 77.0973 114.308 106.173 98.2574C111.387 95.3787 114.625 89.8929 114.625 83.9365V33.1683C114.625 28.2619 111.634 23.8513 107.076 22.0363L68.3228 6.60529C62.63 4.33846 56.285 4.33846 50.5922 6.60529L11.8394 22.0363Z" fill="#1C708D"/>
<path d="M11.8375 22.0364C7.27925 23.8514 4.28809 28.262 4.28809 33.1684V83.9366C4.28809 89.8931 7.52583 95.3787 12.7405 98.2574C41.816 114.308 77.0954 114.308 106.171 98.2574C111.385 95.3787 114.623 89.8931 114.623 83.9366V33.1684C114.623 28.262 111.632 23.8514 107.074 22.0364L68.3209 6.60541C62.6281 4.33856 56.2832 4.33856 50.5903 6.6054L11.8375 22.0364Z" fill="white"/>
<mask id="mask0_3527_22399" style="mask-type:alpha" maskUnits="userSpaceOnUse" x="12" y="74" width="101" height="33">
<path d="M89.957 76.1226C96.4329 74.4032 101.908 74.3883 106.034 75.1101C111.496 76.0658 113.073 81.7815 111.422 87.0754C111.19 87.8182 110.935 88.556 110.542 89.228C109.823 90.4585 108.312 92.5745 105.622 94.4125C101.537 97.2036 83.9689 105.994 61.4333 106.909C44.465 107.598 26.4447 101.507 13.2909 94.9118C12.6738 94.5527 12.9909 93.664 13.6953 93.7812C18.0943 94.5129 24.5363 95.4083 32.3821 94.0621C39.7994 92.7896 50.4491 89.3622 61.4333 85.5694C71.4843 82.0991 76.8908 79.5914 89.957 76.1226Z" fill="#B22400"/>
</mask>
<g mask="url(#mask0_3527_22399)">
<path d="M112.572 70.9961H86.3906V107.699H112.572V70.9961Z" fill="url(#paint0_linear_3527_22399)"/>
<path opacity="0.24" fill-rule="evenodd" clip-rule="evenodd" d="M91.1328 106.941L102.859 71.9707L108.539 73.8753L96.8131 108.846L91.1328 106.941Z" fill="url(#paint1_linear_3527_22399)"/>
<path opacity="0.1" fill-rule="evenodd" clip-rule="evenodd" d="M81.6475 106.941L93.3738 71.9707L99.0541 73.8753L87.3278 108.846L81.6475 106.941Z" fill="url(#paint2_linear_3527_22399)"/>
<path opacity="0.4" fill-rule="evenodd" clip-rule="evenodd" d="M97.4121 106.941L109.138 71.9707L112.925 73.2405L101.199 108.211L97.4121 106.941Z" fill="url(#paint3_linear_3527_22399)"/>
<path d="M79.0679 78.6679C74.1533 80.0785 69.4722 81.7156 64.5157 83.4578C56.0446 86.4285 47.2912 90.5005 37.1842 92.3524C34.933 92.7635 32.8604 93.0671 30.8474 93.275C28.0229 93.5692 25.3109 93.6673 22.7886 93.5763C18.542 93.4174 13.4399 93.7249 8.4834 92.0223C9.4381 92.8164 10.5273 93.6385 11.8568 94.6216C20.5462 100.635 35.8392 104.805 50.1576 106.339C52.8101 106.622 55.5 106.811 58.2032 106.907C64.8796 107.143 71.2869 106.152 77.7559 105.274C80.9905 104.84 84.5028 103.896 87.5543 103.194C87.9998 103.091 88.4341 102.983 88.8728 102.876C88.6613 100.386 88.3525 97.5885 87.9534 95.545C87.539 93.4314 89.3646 91.3833 89.4484 89.2253L89.358 77.0134C89.3469 76.969 89.3227 75.8163 89.2941 75.5898C87.5323 76.0943 85.8059 76.622 84.0928 77.1521C82.4457 77.6637 80.7435 78.1844 79.0679 78.6679ZM70.3497 95.8555C70.3476 95.8555 70.3476 95.8555 70.3497 95.8555V95.8555Z" fill="#1C708D"/>
<path opacity="0.24" fill-rule="evenodd" clip-rule="evenodd" d="M29.2256 106.941L40.9519 71.9707L46.632 73.8753L34.9057 108.846L29.2256 106.941Z" fill="url(#paint4_linear_3527_22399)"/>
<path opacity="0.1" fill-rule="evenodd" clip-rule="evenodd" d="M19.7402 106.941L31.4665 71.9707L37.1467 73.8753L25.4204 108.846L19.7402 106.941Z" fill="url(#paint5_linear_3527_22399)"/>
<path opacity="0.4" fill-rule="evenodd" clip-rule="evenodd" d="M35.5049 106.941L47.2312 71.9707L51.018 73.2405L39.2916 108.211L35.5049 106.941Z" fill="url(#paint6_linear_3527_22399)"/>
</g>
<path d="M7.0918 33.8003C7.0918 29.6966 9.60252 26.0108 13.4213 24.5086L50.6843 9.84835C56.323 7.62998 62.5926 7.62998 68.2313 9.84835L105.494 24.5086C109.313 26.0109 111.824 29.6966 111.824 33.8003V72.5277C111.824 73.0141 111.05 73.3425 110.643 73.0756C108.46 71.6432 102.814 69.5098 90.2073 72.3795C72.6458 76.3773 46.5871 87.6324 32.3829 90.0695C24.3123 91.4542 17.2481 91.2654 12.6521 90.8441C9.38386 90.5445 7.0918 87.7315 7.0918 84.4494V33.8003Z" fill="url(#paint7_linear_3527_22399)"/>
<mask id="mask1_3527_22399" style="mask-type:alpha" maskUnits="userSpaceOnUse" x="7" y="8" width="105" height="84">
<path d="M7.0918 33.8003C7.0918 29.6966 9.60252 26.0108 13.4213 24.5086L50.6843 9.84835C56.323 7.62998 62.5926 7.62998 68.2313 9.84835L105.494 24.5086C109.313 26.0109 111.824 29.6966 111.824 33.8003V72.5277C111.824 73.0141 111.05 73.3425 110.643 73.0756C108.46 71.6432 102.814 69.5098 90.2074 72.3795C72.6458 76.3773 46.5871 87.6324 32.3829 90.0695C24.3123 91.4542 17.2481 91.2654 12.6521 90.8441C9.38386 90.5445 7.0918 87.7315 7.0918 84.4494V33.8003Z" fill="url(#paint8_linear_3527_22399)"/>
</mask>
<g mask="url(#mask1_3527_22399)">
<path opacity="0.4" d="M114.776 58.6959C110.055 56.7552 104.836 56.2857 100.557 56.1223C98.2613 56.0383 95.7741 56.134 93.168 56.4048C91.2674 56.6033 89.3029 56.893 87.1575 57.2946C86.3836 57.4371 85.4399 57.5959 84.6771 57.7501L84.6285 58.0466C84.6285 58.0466 85.0629 65.2888 84.9681 67.0497C84.9306 67.7644 84.5051 69.8452 84.4654 70.6254C84.4522 70.922 84.4103 71.6785 84.5183 72.4657C84.6329 73.304 84.6969 74.1401 84.6815 74.4694C84.6507 75.1724 84.9417 75.8613 84.9107 76.5105C89.6513 75.0931 94.6828 73.909 100.742 73.6006C106.472 73.3111 111.169 73.8552 114.791 75.4784L114.776 58.6959Z" fill="#EC7F50"/>
<path d="M6.65332 33.2877V34.9781C17.5826 34.9098 28.4995 34.8397 39.4308 34.7714C40.3393 34.7656 47.0055 34.9975 44.1441 33.7284C40.4627 32.0966 36.7627 30.4569 32.6805 29.2052C29.2847 28.1623 25.0462 27.4233 21.7697 28.601C20.2589 29.1409 19.188 30.0183 17.9197 30.7533C14.9556 32.469 10.7747 33.3911 6.65332 33.2877Z" fill="url(#paint9_linear_3527_22399)"/>
<path d="M7.40234 33.1309C9.03104 33.1204 10.6063 32.9801 12.1875 32.6286C13.7766 32.2979 15.3341 31.7913 16.7827 31.0441C17.5049 30.6716 18.2016 30.2509 18.8704 29.7653C19.5393 29.284 20.2102 28.7796 20.9424 28.3716C22.4129 27.5365 24.1068 27.2329 25.7435 27.2497C27.3919 27.2686 29.0225 27.5636 30.6037 27.9885C32.1928 28.4176 33.7286 28.9994 35.2425 29.6461C38.2682 30.927 41.1892 32.4507 44.1043 33.9785C41.1299 32.5888 38.1733 31.1446 35.1395 29.9245C34.3815 29.6209 33.6157 29.3343 32.8459 29.0705C32.0801 28.7985 31.3043 28.5557 30.5187 28.3484C28.9512 27.9404 27.3444 27.6641 25.7415 27.6598C24.1404 27.6536 22.5216 27.9174 21.1087 28.7106C20.4002 29.0999 19.7392 29.5874 19.0584 30.071C18.3816 30.5544 17.6614 30.9897 16.9133 31.3477C13.9191 32.7667 10.6479 33.2899 7.40234 33.1309Z" fill="url(#paint10_linear_3527_22399)"/>
<path d="M104.397 22.6551L91.4848 18.3604C91.0453 18.6498 90.6085 18.9419 90.1476 19.2175C86.1295 21.6205 80.1654 22.7275 74.6597 22.0923C72.0644 21.791 69.5598 21.1324 66.9216 21.1067C62.4974 21.0624 58.6033 22.7813 55.0674 24.4207C72.4655 24.311 89.8684 24.1965 107.266 24.0868C106.397 23.4912 105.438 23.0031 104.397 22.6551Z" fill="url(#paint11_linear_3527_22399)"/>
<path d="M54.3164 24.4271C55.738 23.7193 57.1812 23.0491 58.6729 22.4722C60.1645 21.9048 61.7069 21.4423 63.3 21.1715C64.8909 20.8889 66.5276 20.8539 68.1303 21.0126C69.7356 21.1621 71.3094 21.468 72.8832 21.6969C76.0141 22.2154 79.2294 22.1617 82.3625 21.6526C83.9339 21.4027 85.4715 21.0009 86.9631 20.4639C87.7101 20.2022 88.4402 19.887 89.1462 19.5343C89.8545 19.1839 90.5194 18.7519 91.2034 18.3525C90.5459 18.7917 89.9028 19.2564 89.2066 19.6371C88.5103 20.02 87.7875 20.368 87.0453 20.6623C85.5585 21.2486 84.0088 21.6922 82.4254 21.9888C79.2656 22.575 75.9922 22.6241 72.8131 22.1314C71.2272 21.8884 69.6655 21.5684 68.0869 21.4073C66.5081 21.2322 64.9271 21.2742 63.3557 21.5007C61.7843 21.7226 60.2515 22.143 58.7503 22.6662C57.2441 23.1823 55.7839 23.8128 54.3164 24.4271Z" fill="url(#paint12_linear_3527_22399)"/>
<mask id="mask2_3527_22399" style="mask-type:alpha" maskUnits="userSpaceOnUse" x="7" y="8" width="105" height="84">
<path d="M7.0918 33.8003C7.0918 29.6966 9.60252 26.0108 13.4213 24.5086L50.6843 9.84835C56.323 7.62998 62.5926 7.62998 68.2313 9.84835L105.494 24.5086C109.313 26.0109 111.824 29.6966 111.824 33.8003V72.5277C111.824 73.0141 111.05 73.3425 110.643 73.0756C108.46 71.6432 102.814 69.5098 90.2073 72.3795C72.6458 76.3773 46.5871 87.6324 32.3829 90.0695C24.3123 91.4542 17.2481 91.2654 12.6521 90.8441C9.38386 90.5445 7.0918 87.7315 7.0918 84.4494V33.8003Z" fill="black"/>
</mask>
<g mask="url(#mask2_3527_22399)">
<path d="M0.621094 49.738V97.9574L86.7352 79.7217C86.7352 79.7217 90.5277 43.066 90.5146 41.7621C90.5015 40.4582 90.306 40.1318 90.306 40.1318C90.306 40.1318 33.5571 46.9332 0.621094 49.738Z" fill="white"/>
<path d="M0.621094 49.738V97.9574L86.7352 79.7217C86.7352 79.7217 90.5277 43.066 90.5146 41.7621C90.5015 40.4582 90.306 40.1318 90.306 40.1318C90.306 40.1318 33.5571 46.9332 0.621094 49.738Z" fill="url(#paint13_radial_3527_22399)"/>
<path d="M0.621094 49.738V97.9574L86.7352 79.7217C86.7352 79.7217 90.5277 43.066 90.5146 41.7621C90.5015 40.4582 90.306 40.1318 90.306 40.1318C90.306 40.1318 33.5571 46.9332 0.621094 49.738Z" fill="url(#paint14_radial_3527_22399)"/>
<path d="M0.621094 49.738V97.9574L86.7352 79.7217C86.7352 79.7217 90.5277 43.066 90.5146 41.7621C90.5015 40.4582 90.306 40.1318 90.306 40.1318C90.306 40.1318 33.5571 46.9332 0.621094 49.738Z" fill="url(#paint15_radial_3527_22399)"/>
<path d="M0.621094 49.738V97.9574L86.7352 79.7217C86.7352 79.7217 90.5277 43.066 90.5146 41.7621C90.5015 40.4582 90.306 40.1318 90.306 40.1318C90.306 40.1318 33.5571 46.9332 0.621094 49.738Z" fill="url(#paint16_radial_3527_22399)"/>
<path d="M0.621094 49.738V97.9574L86.7352 79.7217C86.7352 79.7217 90.5277 43.066 90.5146 41.7621C90.5015 40.4582 90.306 40.1318 90.306 40.1318C90.306 40.1318 33.5571 46.9332 0.621094 49.738Z" fill="white" fill-opacity="0.5"/>
<path d="M9.72949 66.4445L13.5012 90.7813L27.1668 95.8794L21.3607 63.167L17.957 63.5177L9.72949 66.4445Z" fill="white"/>
<path d="M22.7236 63.0945L29.2531 100.503L35.2432 79.081V62.4307H29.7606L22.7236 63.0945Z" fill="white"/>
<path d="M36.5657 61.9234V79.4875L31.6924 97.6607L45.8047 99.2852L40.2207 60.8066L36.5657 61.9234Z" fill="white"/>
<path d="M47.2216 100.401L70.1667 101.619L57.3743 56.3047L41.7393 60.6024L47.2216 100.401Z" fill="white"/>
<path d="M58.5957 55.4257L72.4034 103.448L71.0836 52.4814C71.0836 52.4814 66.0071 52.4814 63.672 53.0905C61.337 53.6997 58.5957 55.4257 58.5957 55.4257Z" fill="white"/>
<path d="M72.6064 52.076L73.9264 98.9812L88.7982 95.9419C88.7982 95.9419 88.0809 88.773 88.0809 87.1485C88.0809 85.5239 89.0962 82.973 89.0962 80.8409C89.0962 78.7087 89.5089 73.734 89.5089 72.1094C89.5089 70.4849 88.7982 69.5714 88.7982 68.1498C88.7982 66.7284 89.5089 65.5104 89.5089 64.0888C89.5089 62.6673 89.0962 55.9603 89.0962 54.2341C89.0962 52.508 90.5242 48.1492 90.5242 46.6264V41.7529C90.5242 41.7529 81.7438 46.1874 79.1042 48.1164C76.4645 50.0454 72.6064 52.076 72.6064 52.076Z" fill="white"/>
<path d="M13.9678 44.1256C9.31262 44.1256 -0.741401 46.227 -5.18652 47.2777V67.4017C-2.51946 66.9975 3.15409 66.0924 4.51185 65.7044C6.20907 65.2196 8.87612 65.7044 11.7856 64.2497C14.6951 62.7949 18.332 62.0676 21.484 62.0676C24.636 62.0676 32.8795 61.5827 35.3041 60.6129C37.7288 59.6431 48.3969 56.7336 52.7611 56.2486C57.1254 55.7637 60.5198 51.8843 64.6416 51.3994C68.7634 50.9144 71.4305 52.6117 76.0373 48.7324C80.6439 44.8531 88.4026 42.4286 90.0998 40.7312C91.7971 39.0339 84.5233 39.5191 79.4316 39.2767C74.34 39.0342 41.8505 41.4587 35.3041 42.4286C28.7578 43.3984 19.7868 44.1257 13.9678 44.1256Z" fill="white"/>
</g>
<g opacity="0.58">
<mask id="mask3_3527_22399" style="mask-type:alpha" maskUnits="userSpaceOnUse" x="7" y="8" width="105" height="84">
<path d="M7.09277 33.8003C7.09277 29.6966 9.60349 26.0108 13.4222 24.5086L50.6854 9.84835C56.3239 7.62998 62.5937 7.62998 68.2322 9.84835L105.495 24.5086C109.314 26.0109 111.825 29.6966 111.825 33.8003V72.5277C111.825 73.0141 111.051 73.3425 110.644 73.0756C108.461 71.6432 102.815 69.5098 90.2083 72.3795C72.6468 76.3773 46.5881 87.6324 32.3839 90.0695C24.3133 91.4542 17.2492 91.2654 12.6531 90.8441C9.38484 90.5445 7.09277 87.7315 7.09277 84.4494V33.8003Z" fill="url(#paint17_linear_3527_22399)"/>
</mask>
<g mask="url(#mask3_3527_22399)">
<path d="M0.62207 67.72V90.8341L12.0147 90.8517L8.20426 66.5267C8.20426 66.5267 5.12516 66.1419 0.62207 67.72Z" fill="url(#paint18_linear_3527_22399)"/>
<path d="M0.62207 67.72V90.8341L12.0147 90.8517L8.20426 66.5267C8.20426 66.5267 5.12516 66.1419 0.62207 67.72Z" fill="white" fill-opacity="0.84"/>
<path d="M9.72949 66.4455L13.5012 90.7823L27.1668 95.8804L21.3607 63.168L17.957 63.5187L9.72949 66.4455Z" fill="url(#paint19_linear_3527_22399)"/>
<path d="M9.72949 66.4455L13.5012 90.7823L27.1668 95.8804L21.3607 63.168L17.957 63.5187L9.72949 66.4455Z" fill="white" fill-opacity="0.84"/>
<path d="M22.7236 63.0955L29.2531 100.504L35.2432 79.0819V62.4316H29.7606L22.7236 63.0955Z" fill="url(#paint20_linear_3527_22399)"/>
<path d="M36.5657 61.9244V79.4884L31.6924 97.6617L45.8046 99.2862L40.2206 60.8076L36.5657 61.9244Z" fill="url(#paint21_linear_3527_22399)"/>
<path d="M47.2237 100.403L70.1688 101.621L57.3764 56.3066L41.7412 60.6044L47.2237 100.403Z" fill="url(#paint22_linear_3527_22399)"/>
<path d="M58.5967 55.4257L72.4042 103.448L71.0844 52.4814C71.0844 52.4814 66.0081 52.4814 63.673 53.0905C61.3379 53.6997 58.5967 55.4257 58.5967 55.4257Z" fill="url(#paint23_linear_3527_22399)"/>
<path d="M72.6064 52.076L73.9264 98.9812L88.7982 95.9419C88.7982 95.9419 88.0809 88.773 88.0809 87.1485C88.0809 85.5239 89.0962 82.973 89.0962 80.8409C89.0962 78.7087 89.5089 73.734 89.5089 72.1094C89.5089 70.4849 88.7982 69.5714 88.7982 68.1498C88.7982 66.7284 89.5089 65.5104 89.5089 64.0888C89.5089 62.6673 89.0962 55.9603 89.0962 54.2341C89.0962 52.508 90.5242 48.1492 90.5242 46.6264V41.7529C90.5242 41.7529 81.7438 46.1874 79.1042 48.1164C76.4645 50.0454 72.6064 52.076 72.6064 52.076Z" fill="url(#paint24_linear_3527_22399)"/>
</g>
</g>
<g opacity="0.5">
<mask id="mask4_3527_22399" style="mask-type:alpha" maskUnits="userSpaceOnUse" x="7" y="8" width="105" height="84">
<path d="M7.09277 33.8003C7.09277 29.6966 9.60349 26.0108 13.4222 24.5086L50.6854 9.84835C56.3239 7.62998 62.5937 7.62998 68.2322 9.84835L105.495 24.5086C109.314 26.0109 111.825 29.6966 111.825 33.8003V72.5277C111.825 73.0141 111.051 73.3425 110.644 73.0756C108.461 71.6432 102.815 69.5098 90.2083 72.3795C72.6468 76.3773 46.5881 87.6324 32.3839 90.0695C24.3133 91.4542 17.2492 91.2654 12.6531 90.8441C9.38484 90.5445 7.09277 87.7315 7.09277 84.4494V33.8003Z" fill="url(#paint25_linear_3527_22399)"/>
</mask>
<g mask="url(#mask4_3527_22399)">
<path d="M13.9678 44.1256C9.31262 44.1256 -0.741401 46.227 -5.18652 47.2777V67.4017C-2.51946 66.9975 3.15409 66.0924 4.51185 65.7044C6.20907 65.2196 8.87612 65.7044 11.7856 64.2497C14.6951 62.7949 18.332 62.0676 21.484 62.0676C24.636 62.0676 32.8795 61.5827 35.3041 60.6129C37.7288 59.6431 48.3969 56.7336 52.7611 56.2486C57.1254 55.7637 60.5198 51.8843 64.6416 51.3994C68.7634 50.9144 71.4305 52.6117 76.0373 48.7324C80.6439 44.8531 88.4026 42.4286 90.0998 40.7312C91.7971 39.0339 84.5233 39.5191 79.4316 39.2767C74.34 39.0342 41.8505 41.4587 35.3041 42.4286C28.7578 43.3984 19.7868 44.1257 13.9678 44.1256Z" fill="white"/>
<path d="M13.9678 44.1256C9.31262 44.1256 -0.741401 46.227 -5.18652 47.2777V67.4017C-2.51946 66.9975 3.15409 66.0924 4.51185 65.7044C6.20907 65.2196 8.87612 65.7044 11.7856 64.2497C14.6951 62.7949 18.332 62.0676 21.484 62.0676C24.636 62.0676 32.8795 61.5827 35.3041 60.6129C37.7288 59.6431 48.3969 56.7336 52.7611 56.2486C57.1254 55.7637 60.5198 51.8843 64.6416 51.3994C68.7634 50.9144 71.4305 52.6117 76.0373 48.7324C80.6439 44.8531 88.4026 42.4286 90.0998 40.7312C91.7971 39.0339 84.5233 39.5191 79.4316 39.2767C74.34 39.0342 41.8505 41.4587 35.3041 42.4286C28.7578 43.3984 19.7868 44.1257 13.9678 44.1256Z" fill="url(#paint26_radial_3527_22399)"/>
<path d="M13.9678 44.1256C9.31262 44.1256 -0.741401 46.227 -5.18652 47.2777V67.4017C-2.51946 66.9975 3.15409 66.0924 4.51185 65.7044C6.20907 65.2196 8.87612 65.7044 11.7856 64.2497C14.6951 62.7949 18.332 62.0676 21.484 62.0676C24.636 62.0676 32.8795 61.5827 35.3041 60.6129C37.7288 59.6431 48.3969 56.7336 52.7611 56.2486C57.1254 55.7637 60.5198 51.8843 64.6416 51.3994C68.7634 50.9144 71.4305 52.6117 76.0373 48.7324C80.6439 44.8531 88.4026 42.4286 90.0998 40.7312C91.7971 39.0339 84.5233 39.5191 79.4316 39.2767C74.34 39.0342 41.8505 41.4587 35.3041 42.4286C28.7578 43.3984 19.7868 44.1257 13.9678 44.1256Z" fill="url(#paint27_radial_3527_22399)"/>
<path d="M13.9678 44.1256C9.31262 44.1256 -0.741401 46.227 -5.18652 47.2777V67.4017C-2.51946 66.9975 3.15409 66.0924 4.51185 65.7044C6.20907 65.2196 8.87612 65.7044 11.7856 64.2497C14.6951 62.7949 18.332 62.0676 21.484 62.0676C24.636 62.0676 32.8795 61.5827 35.3041 60.6129C37.7288 59.6431 48.3969 56.7336 52.7611 56.2486C57.1254 55.7637 60.5198 51.8843 64.6416 51.3994C68.7634 50.9144 71.4305 52.6117 76.0373 48.7324C80.6439 44.8531 88.4026 42.4286 90.0998 40.7312C91.7971 39.0339 84.5233 39.5191 79.4316 39.2767C74.34 39.0342 41.8505 41.4587 35.3041 42.4286C28.7578 43.3984 19.7868 44.1257 13.9678 44.1256Z" fill="url(#paint28_radial_3527_22399)"/>
<path d="M13.9678 44.1256C9.31262 44.1256 -0.741401 46.227 -5.18652 47.2777V67.4017C-2.51946 66.9975 3.15409 66.0924 4.51185 65.7044C6.20907 65.2196 8.87612 65.7044 11.7856 64.2497C14.6951 62.7949 18.332 62.0676 21.484 62.0676C24.636 62.0676 32.8795 61.5827 35.3041 60.6129C37.7288 59.6431 48.3969 56.7336 52.7611 56.2486C57.1254 55.7637 60.5198 51.8843 64.6416 51.3994C68.7634 50.9144 71.4305 52.6117 76.0373 48.7324C80.6439 44.8531 88.4026 42.4286 90.0998 40.7312C91.7971 39.0339 84.5233 39.5191 79.4316 39.2767C74.34 39.0342 41.8505 41.4587 35.3041 42.4286C28.7578 43.3984 19.7868 44.1257 13.9678 44.1256Z" fill="url(#paint29_radial_3527_22399)"/>
<path d="M13.9678 44.1256C9.31262 44.1256 -0.741401 46.227 -5.18652 47.2777V67.4017C-2.51946 66.9975 3.15409 66.0924 4.51185 65.7044C6.20907 65.2196 8.87612 65.7044 11.7856 64.2497C14.6951 62.7949 18.332 62.0676 21.484 62.0676C24.636 62.0676 32.8795 61.5827 35.3041 60.6129C37.7288 59.6431 48.3969 56.7336 52.7611 56.2486C57.1254 55.7637 60.5198 51.8843 64.6416 51.3994C68.7634 50.9144 71.4305 52.6117 76.0373 48.7324C80.6439 44.8531 88.4026 42.4286 90.0998 40.7312C91.7971 39.0339 84.5233 39.5191 79.4316 39.2767C74.34 39.0342 41.8505 41.4587 35.3041 42.4286C28.7578 43.3984 19.7868 44.1257 13.9678 44.1256Z" fill="white" fill-opacity="0.5"/>
</g>
</g>
</g>
</g>
<defs>
<linearGradient id="paint0_linear_3527_22399" x1="98.6493" y1="109.804" x2="123.606" y2="83.6536" gradientUnits="userSpaceOnUse">
<stop stop-color="#054B56"/>
<stop offset="0.5293" stop-color="#136A8A"/>
<stop offset="1" stop-color="#2996B6"/>
</linearGradient>
<linearGradient id="paint1_linear_3527_22399" x1="97.0428" y1="88.2351" x2="104.399" y2="91.6418" gradientUnits="userSpaceOnUse">
<stop stop-color="#054B56"/>
<stop offset="0.5293" stop-color="#136A8A"/>
<stop offset="1" stop-color="#2996B6"/>
</linearGradient>
<linearGradient id="paint2_linear_3527_22399" x1="87.5575" y1="88.2351" x2="94.9141" y2="91.6418" gradientUnits="userSpaceOnUse">
<stop stop-color="#054B56"/>
<stop offset="0.5293" stop-color="#136A8A"/>
<stop offset="1" stop-color="#2996B6"/>
</linearGradient>
<linearGradient id="paint3_linear_3527_22399" x1="103.431" y1="88.2717" x2="108.432" y2="90.3691" gradientUnits="userSpaceOnUse">
<stop stop-color="#054B56"/>
<stop offset="0.5293" stop-color="#136A8A"/>
<stop offset="1" stop-color="#2996B6"/>
</linearGradient>
<linearGradient id="paint4_linear_3527_22399" x1="35.1356" y1="88.2351" x2="42.492" y2="91.6418" gradientUnits="userSpaceOnUse">
<stop stop-color="#054B56"/>
<stop offset="0.5293" stop-color="#136A8A"/>
<stop offset="1" stop-color="#2996B6"/>
</linearGradient>
<linearGradient id="paint5_linear_3527_22399" x1="25.6502" y1="88.2351" x2="33.0068" y2="91.6418" gradientUnits="userSpaceOnUse">
<stop stop-color="#054B56"/>
<stop offset="0.5293" stop-color="#136A8A"/>
<stop offset="1" stop-color="#2996B6"/>
</linearGradient>
<linearGradient id="paint6_linear_3527_22399" x1="41.5235" y1="88.2717" x2="46.5244" y2="90.3691" gradientUnits="userSpaceOnUse">
<stop stop-color="#054B56"/>
<stop offset="0.5293" stop-color="#136A8A"/>
<stop offset="1" stop-color="#2996B6"/>
</linearGradient>
<linearGradient id="paint7_linear_3527_22399" x1="83.8786" y1="121.797" x2="20.1416" y2="12.2216" gradientUnits="userSpaceOnUse">
<stop offset="0.2664" stop-color="#F4B933"/>
<stop offset="0.4592" stop-color="#F3A836"/>
<stop offset="0.8647" stop-color="#F17E37"/>
<stop offset="1" stop-color="#F16E37"/>
</linearGradient>
<linearGradient id="paint8_linear_3527_22399" x1="83.8786" y1="121.797" x2="20.1416" y2="12.2215" gradientUnits="userSpaceOnUse">
<stop offset="0.2664" stop-color="#F4B933"/>
<stop offset="0.4592" stop-color="#F3A836"/>
<stop offset="0.8647" stop-color="#F17E37"/>
<stop offset="1" stop-color="#F16E37"/>
</linearGradient>
<linearGradient id="paint9_linear_3527_22399" x1="34.6603" y1="37.5558" x2="33.0347" y2="25.4381" gradientUnits="userSpaceOnUse">
<stop offset="0.2664" stop-color="#F4B933"/>
<stop offset="0.4592" stop-color="#F3A836"/>
<stop offset="0.8647" stop-color="#F17E37"/>
<stop offset="1" stop-color="#F16E37"/>
</linearGradient>
<linearGradient id="paint10_linear_3527_22399" x1="7.40153" y1="30.6111" x2="44.193" y2="30.6111" gradientUnits="userSpaceOnUse">
<stop offset="0.1028" stop-color="#EC7F50"/>
<stop offset="0.5256" stop-color="#F1A83E"/>
<stop offset="0.7336" stop-color="#F3B930"/>
</linearGradient>
<linearGradient id="paint11_linear_3527_22399" x1="93.3384" y1="26.6591" x2="92.4317" y2="16.0244" gradientUnits="userSpaceOnUse">
<stop offset="0.2664" stop-color="#F4B933"/>
<stop offset="0.4592" stop-color="#F3A836"/>
<stop offset="0.8647" stop-color="#F17E37"/>
<stop offset="1" stop-color="#F16E37"/>
</linearGradient>
<linearGradient id="paint12_linear_3527_22399" x1="54.2184" y1="21.39" x2="91.3297" y2="21.39" gradientUnits="userSpaceOnUse">
<stop offset="0.1028" stop-color="#EC7F50"/>
<stop offset="0.5256" stop-color="#F1A83E"/>
<stop offset="0.7336" stop-color="#F3B930"/>
</linearGradient>
<radialGradient id="paint13_radial_3527_22399" cx="0" cy="0" r="1" gradientUnits="userSpaceOnUse" gradientTransform="translate(0.621094 40.1318) rotate(32.7518) scale(106.886 165.021)">
<stop stop-color="#F4F5F6" stop-opacity="0"/>
<stop offset="1" stop-color="#F4F5F6"/>
</radialGradient>
<radialGradient id="paint14_radial_3527_22399" cx="0" cy="0" r="1" gradientUnits="userSpaceOnUse" gradientTransform="translate(90.5146 40.1318) rotate(147.248) scale(106.886 165.021)">
<stop stop-color="#F1F9F1" stop-opacity="0"/>
<stop offset="1" stop-color="#F1F9F1"/>
</radialGradient>
<radialGradient id="paint15_radial_3527_22399" cx="0" cy="0" r="1" gradientUnits="userSpaceOnUse" gradientTransform="translate(90.5146 40.1318) rotate(147.248) scale(106.886 165.021)">
<stop stop-color="#D9D4E2"/>
<stop offset="1" stop-color="#D9D4E2" stop-opacity="0"/>
</radialGradient>
<radialGradient id="paint16_radial_3527_22399" cx="0" cy="0" r="1" gradientUnits="userSpaceOnUse" gradientTransform="translate(0.621094 40.1318) rotate(32.7518) scale(106.886 165.021)">
<stop stop-color="#EFF7FB"/>
<stop offset="1" stop-color="#EFF7FB" stop-opacity="0"/>
</radialGradient>
<linearGradient id="paint17_linear_3527_22399" x1="83.8795" y1="121.797" x2="20.1426" y2="12.2215" gradientUnits="userSpaceOnUse">
<stop offset="0.2664" stop-color="#F4B933"/>
<stop offset="0.4592" stop-color="#F3A836"/>
<stop offset="0.8647" stop-color="#F17E37"/>
<stop offset="1" stop-color="#F16E37"/>
</linearGradient>
<linearGradient id="paint18_linear_3527_22399" x1="5.95632" y1="92.2494" x2="21.4374" y2="81.6171" gradientUnits="userSpaceOnUse">
<stop stop-color="#438893"/>
<stop offset="0.5293" stop-color="#74B8D1"/>
<stop offset="1" stop-color="#79CFE9"/>
</linearGradient>
<linearGradient id="paint19_linear_3527_22399" x1="17.8941" y1="97.7566" x2="39.5118" y2="80.8298" gradientUnits="userSpaceOnUse">
<stop stop-color="#438893"/>
<stop offset="0.5293" stop-color="#74B8D1"/>
<stop offset="1" stop-color="#79CFE9"/>
</linearGradient>
<linearGradient id="paint20_linear_3527_22399" x1="22.8676" y1="81.4674" x2="35.3875" y2="81.4674" gradientUnits="userSpaceOnUse">
<stop stop-color="#C3E3EE" stop-opacity="0.5"/>
<stop offset="0.9077" stop-color="#C5E4EF"/>
</linearGradient>
<linearGradient id="paint21_linear_3527_22399" x1="31.8547" y1="80.0465" x2="45.9674" y2="80.0465" gradientUnits="userSpaceOnUse">
<stop stop-color="#C3E3EE" stop-opacity="0.5"/>
<stop offset="0.9077" stop-color="#C5E4EF"/>
</linearGradient>
<linearGradient id="paint22_linear_3527_22399" x1="42.0683" y1="78.9635" x2="70.4967" y2="78.9635" gradientUnits="userSpaceOnUse">
<stop stop-color="#C3E3EE" stop-opacity="0.5"/>
<stop offset="0.9077" stop-color="#C5E4EF"/>
</linearGradient>
<linearGradient id="paint23_linear_3527_22399" x1="58.7556" y1="77.9642" x2="72.5636" y2="77.9642" gradientUnits="userSpaceOnUse">
<stop stop-color="#C3E3EE" stop-opacity="0.5"/>
<stop offset="0.9077" stop-color="#C5E4EF"/>
</linearGradient>
<linearGradient id="paint24_linear_3527_22399" x1="72.8126" y1="70.3665" x2="90.7309" y2="70.3665" gradientUnits="userSpaceOnUse">
<stop stop-color="#C3E3EE" stop-opacity="0.5"/>
<stop offset="0.9077" stop-color="#C5E4EF"/>
</linearGradient>
<linearGradient id="paint25_linear_3527_22399" x1="83.8795" y1="121.797" x2="20.1426" y2="12.2215" gradientUnits="userSpaceOnUse">
<stop offset="0.2664" stop-color="#F4B933"/>
<stop offset="0.4592" stop-color="#F3A836"/>
<stop offset="0.8647" stop-color="#F17E37"/>
<stop offset="1" stop-color="#F16E37"/>
</linearGradient>
<radialGradient id="paint26_radial_3527_22399" cx="0" cy="0" r="1" gradientUnits="userSpaceOnUse" gradientTransform="translate(-5.18652 39.2597) rotate(16.4131) scale(99.5961 91.6003)">
<stop stop-color="#F4F5F6" stop-opacity="0"/>
<stop offset="1" stop-color="#F4F5F6"/>
</radialGradient>
<radialGradient id="paint27_radial_3527_22399" cx="0" cy="0" r="1" gradientUnits="userSpaceOnUse" gradientTransform="translate(90.3511 39.2597) rotate(163.587) scale(99.5961 91.6003)">
<stop stop-color="#F1F9F1" stop-opacity="0"/>
<stop offset="1" stop-color="#F1F9F1"/>
</radialGradient>
<radialGradient id="paint28_radial_3527_22399" cx="0" cy="0" r="1" gradientUnits="userSpaceOnUse" gradientTransform="translate(90.3511 39.2597) rotate(163.587) scale(99.5961 91.6003)">
<stop stop-color="#D9D4E2"/>
<stop offset="1" stop-color="#D9D4E2" stop-opacity="0"/>
</radialGradient>
<radialGradient id="paint29_radial_3527_22399" cx="0" cy="0" r="1" gradientUnits="userSpaceOnUse" gradientTransform="translate(-5.18652 39.2597) rotate(16.4131) scale(99.5961 91.6003)">
<stop stop-color="#EFF7FB"/>
<stop offset="1" stop-color="#EFF7FB" stop-opacity="0"/>
</radialGradient>
<clipPath id="clip0_3527_22399">
<rect width="118" height="115" fill="white" transform="translate(0.376953 0.107422)"/>
</clipPath>
</defs>
</svg>
