<svg width="447" height="380" viewBox="0 0 447 380" fill="none" xmlns="http://www.w3.org/2000/svg">
<g filter="url(#filter0_f_22931_71616)">
<ellipse cx="328.163" cy="285.074" rx="28.6104" ry="5.14927" fill="#1D3051"/>
</g>
<g filter="url(#filter1_f_22931_71616)">
<ellipse cx="328.163" cy="285.075" rx="17.4951" ry="2.48579" fill="black"/>
</g>
<path fill-rule="evenodd" clip-rule="evenodd" d="M29.3118 258.821L28.3714 258.275C28.0456 258.086 27.7325 257.892 27.4324 257.694L29.1969 256.803C29.4641 256.979 29.743 257.152 30.0335 257.32L30.9739 257.866L29.3118 258.821ZM25.76 256.436L27.7092 255.683C27.2523 255.289 26.8449 254.881 26.4869 254.462L24.3845 255.062C24.7874 255.533 25.2459 255.992 25.76 256.436ZM23.331 253.596L25.5506 253.16C25.2869 252.713 25.0749 252.258 24.9147 251.798L22.6158 252.064C22.7959 252.582 23.0343 253.094 23.331 253.596ZM22.2493 250.492L24.5886 250.398C24.5322 249.928 24.5284 249.456 24.5771 248.986L22.2365 248.905C22.1817 249.434 22.1859 249.964 22.2493 250.492ZM22.5774 247.331L24.8805 247.585C25.0333 247.124 25.2379 246.668 25.4944 246.219L23.2677 245.795C22.9793 246.299 22.7492 246.812 22.5774 247.331ZM24.2975 244.324L26.4095 244.912C26.7607 244.491 27.1615 244.081 27.612 243.684L25.6507 242.942C25.1437 243.389 24.6927 243.851 24.2975 244.324ZM27.3026 241.675L29.0814 242.557C29.3458 242.379 29.6218 242.205 29.9097 242.035L30.8315 241.49L29.154 240.544L28.2322 241.089C27.9094 241.28 27.5995 241.475 27.3026 241.675ZM30.9978 239.454L32.6752 240.4L34.519 239.31L32.8415 238.364L30.9978 239.454ZM34.6852 237.274L36.3627 238.22L38.2064 237.131L36.529 236.185L34.6852 237.274ZM38.3727 235.095L40.0502 236.041L41.8939 234.951L40.2164 234.005L38.3727 235.095ZM42.0601 232.915L43.7376 233.861L45.5814 232.771L43.9039 231.825L42.0601 232.915ZM45.7476 230.735L47.4251 231.681L49.2688 230.591L47.5913 229.645L45.7476 230.735ZM49.435 228.556L51.1125 229.502L52.9563 228.412L51.2788 227.466L49.435 228.556ZM53.1225 226.376L54.8 227.322L56.6437 226.232L54.9662 225.286L53.1225 226.376ZM56.8099 224.196L58.4874 225.142L60.3312 224.052L58.6537 223.106L56.8099 224.196ZM60.4974 222.016L62.1749 222.962L64.0186 221.873L62.3411 220.927L60.4974 222.016ZM64.1849 219.837L65.8624 220.783L67.7061 219.693L66.0286 218.747L64.1849 219.837ZM67.8723 217.657L69.5498 218.603L71.3935 217.513L69.716 216.567L67.8723 217.657ZM71.5598 215.477L73.2373 216.423L75.081 215.333L73.4035 214.388L71.5598 215.477ZM75.2472 213.298L76.9247 214.244L78.7685 213.154L77.0909 212.208L75.2472 213.298ZM78.9347 211.118L80.6122 212.064L82.4559 210.974L80.7784 210.028L78.9347 211.118ZM82.6222 208.938L84.2996 209.884L86.1434 208.794L84.4659 207.848L82.6222 208.938ZM86.3096 206.759L87.9871 207.704L89.8308 206.615L88.1533 205.669L86.3096 206.759ZM89.9971 204.579L91.6745 205.525L93.5183 204.435L91.8408 203.489L89.9971 204.579ZM93.6845 202.399L95.362 203.345L97.2058 202.255L95.5283 201.309L93.6845 202.399ZM97.372 200.219L99.0495 201.165L100.893 200.076L99.2157 199.13L97.372 200.219ZM101.059 198.04L102.737 198.986L104.581 197.896L102.903 196.95L101.059 198.04ZM104.747 195.86L106.424 196.806L108.268 195.716L106.591 194.77L104.747 195.86ZM108.434 193.68L110.112 194.626L111.956 193.536L110.278 192.59L108.434 193.68ZM112.122 191.501L113.799 192.447L115.643 191.357L113.966 190.411L112.122 191.501ZM115.809 189.321L117.487 190.267L119.33 189.177L117.653 188.231L115.809 189.321ZM119.497 187.141L121.174 188.087L123.018 186.997L121.34 186.051L119.497 187.141ZM123.184 184.961L124.862 185.907L126.705 184.818L125.028 183.872L123.184 184.961ZM126.872 182.782L128.549 183.728L130.393 182.638L128.715 181.692L126.872 182.782ZM130.559 180.602L132.237 181.548L134.08 180.458L132.403 179.512L130.559 180.602ZM134.247 178.422L135.924 179.368L137.768 178.278L136.09 177.332L134.247 178.422ZM137.934 176.243L139.612 177.189L141.455 176.099L139.778 175.153L137.934 176.243ZM141.621 174.063L143.299 175.009L145.143 173.919L143.465 172.973L141.621 174.063ZM145.309 171.883L146.986 172.829L148.83 171.739L147.153 170.793L145.309 171.883ZM148.996 169.704L150.674 170.649L152.518 169.56L150.84 168.614L148.996 169.704ZM152.684 167.524L154.361 168.47L156.205 167.38L154.528 166.434L152.684 167.524ZM156.371 165.344L158.049 166.29L159.893 165.2L158.215 164.254L156.371 165.344ZM160.059 163.164L161.736 164.11L163.58 163.02L161.903 162.075L160.059 163.164ZM163.746 160.985L165.424 161.931L167.267 160.841L165.59 159.895L163.746 160.985ZM167.434 158.805L169.111 159.751L170.955 158.661L169.277 157.715L167.434 158.805ZM171.121 156.625L172.799 157.571L174.642 156.481L172.965 155.535L171.121 156.625ZM174.809 154.446L176.486 155.391L178.33 154.302L176.652 153.356L174.809 154.446ZM178.496 152.266L180.174 153.212L182.017 152.122L180.34 151.176L178.496 152.266ZM182.183 150.086L183.861 151.032L185.705 149.942L184.027 148.996L182.183 150.086ZM185.871 147.906L187.548 148.852L189.392 147.763L187.715 146.817L185.871 147.906ZM189.558 145.727L191.236 146.673L193.08 145.583L191.402 144.637L189.558 145.727ZM193.246 143.547L194.923 144.493L196.767 143.403L195.09 142.457L193.246 143.547ZM196.933 141.367L198.611 142.313L200.455 141.223L198.777 140.277L196.933 141.367ZM200.621 139.188L202.298 140.134L204.142 139.044L202.465 138.098L200.621 139.188ZM204.308 137.008L205.986 137.954L207.829 136.864L206.152 135.918L204.308 137.008ZM207.996 134.828L209.673 135.774L211.517 134.684L209.839 133.738L207.996 134.828ZM211.683 132.648L213.361 133.594L215.204 132.505L213.527 131.559L211.683 132.648ZM215.371 130.469L217.048 131.415L218.892 130.325L217.214 129.379L215.371 130.469ZM219.058 128.289L220.736 129.235L222.579 128.145L220.902 127.199L219.058 128.289ZM222.745 126.109L224.423 127.055L226.267 125.966L224.589 125.02L222.745 126.109ZM226.433 123.93L228.11 124.876L229.954 123.786L228.277 122.84L226.433 123.93ZM230.12 121.75L231.798 122.696L233.642 121.606L231.964 120.66L230.12 121.75ZM233.808 119.57L235.485 120.516L237.329 119.426L235.651 118.48L233.808 119.57ZM237.495 117.391L239.173 118.337L241.016 117.247L239.339 116.301L237.495 117.391ZM241.183 115.211L242.86 116.157L244.704 115.067L243.026 114.121L241.183 115.211ZM244.87 113.031L246.548 113.977L248.391 112.887L246.714 111.941L244.87 113.031ZM248.558 110.852L250.235 111.798L252.079 110.708L250.401 109.762L248.558 110.852ZM252.245 108.672L253.922 109.618L255.766 108.528L254.089 107.582L252.245 108.672ZM255.932 106.492L257.61 107.438L259.454 106.348L257.776 105.402L255.932 106.492ZM259.62 104.312L261.297 105.258L263.141 104.169L261.464 103.223L259.62 104.312ZM263.307 102.133L264.985 103.079L266.828 101.989L265.151 101.043L263.307 102.133ZM266.995 99.9531L268.672 100.899L270.516 99.8092L268.838 98.8632L266.995 99.9531ZM270.682 97.7734L272.36 98.7193L274.203 97.6295L272.526 96.6835L270.682 97.7734ZM274.37 95.5937L276.047 96.5396L277.891 95.4498L276.213 94.5038L274.37 95.5937ZM278.057 93.414L279.734 94.3599L281.578 93.2701L279.901 92.3241L278.057 93.414ZM281.744 91.2343L283.422 92.1803L285.266 91.0904L283.588 90.1445L281.744 91.2343ZM285.432 89.0546L287.109 90.0006L288.953 88.9107L287.276 87.9648L285.432 89.0546ZM289.119 86.8749L290.797 87.8209L292.641 86.731L290.963 85.7851L289.119 86.8749ZM292.807 84.6952L294.484 85.6412L296.328 84.5513L294.65 83.6054L292.807 84.6952ZM296.494 82.5155L298.172 83.4615L300.015 82.3716L298.338 81.4257L296.494 82.5155ZM300.182 80.3358L301.859 81.2818L302.781 80.7366C303.065 80.5689 303.356 80.4077 303.653 80.253L302.082 79.2478C301.748 79.4216 301.422 79.6026 301.104 79.7906L300.182 80.3358ZM304.205 78.2761L305.541 79.3887C306.207 79.1221 306.896 78.883 307.604 78.6715L306.527 77.4691C305.73 77.7072 304.954 77.9762 304.205 78.2761ZM309.008 76.8411L309.81 78.1133C310.568 77.9542 311.34 77.8238 312.123 77.7224L311.609 76.4015C310.73 76.5155 309.861 76.662 309.008 76.8411ZM314.285 76.1567L314.504 77.5047C315.305 77.4613 316.11 77.4475 316.915 77.4632L316.994 76.1101C316.09 76.0925 315.186 76.1081 314.285 76.1567ZM319.691 76.2624L319.314 77.5986C320.106 77.6729 320.89 77.7765 321.663 77.9093L322.332 76.6117C321.463 76.4623 320.58 76.3459 319.691 76.2624ZM324.874 77.1533L323.922 78.3906C324.651 78.5774 325.364 78.7923 326.056 79.0355L327.275 77.879C326.496 77.6054 325.694 77.3635 324.874 77.1533ZM329.495 78.7759L328.03 79.8334C328.343 79.9776 328.65 80.1285 328.95 80.2861L329.941 80.8062L331.518 79.8042L330.527 79.2842C330.19 79.1073 329.846 78.9379 329.495 78.7759ZM333.501 80.8443L335.484 81.8845L333.907 82.8864L331.924 81.8463L333.501 80.8443ZM337.466 82.9246L335.889 83.9266L337.872 84.9667L339.449 83.9647L337.466 82.9246ZM341.432 85.0048L339.855 86.0068L341.838 87.0469L343.414 86.0449L341.432 85.0048ZM345.397 87.0851L343.82 88.087L345.803 89.1272L347.38 88.1252L345.397 87.0851ZM349.363 89.1653L347.786 90.1673L349.768 91.2074L351.345 90.2054L349.363 89.1653ZM353.328 91.2456L351.751 92.2475L353.734 93.2876L355.311 92.2857L353.328 91.2456ZM357.293 93.3258L355.716 94.3278L357.699 95.3679L359.276 94.3659L357.293 93.3258ZM361.259 95.406L359.682 96.408L361.665 97.4481L363.241 96.4462L361.259 95.406ZM365.224 97.4863L363.647 98.4882L365.63 99.5284L367.207 98.5264L365.224 97.4863ZM369.189 99.5665L367.613 100.568L369.595 101.609L371.172 100.607L369.189 99.5665ZM373.155 101.647L371.578 102.649L373.561 103.689L375.138 102.687L373.155 101.647ZM377.12 103.727L375.543 104.729L377.526 105.769L379.103 104.767L377.12 103.727ZM381.086 105.807L379.509 106.809L381.491 107.849L383.068 106.847L381.086 105.807ZM385.051 107.887L383.474 108.889L385.457 109.93L387.034 108.928L385.051 107.887ZM389.016 109.968L387.44 110.97L389.422 112.01L390.999 111.008L389.016 109.968ZM392.982 112.048L391.405 113.05L393.388 114.09L394.965 113.088L392.982 112.048ZM396.947 114.128L395.37 115.13L397.353 116.17L398.93 115.168L396.947 114.128ZM400.913 116.208L399.336 117.21L400.327 117.73C400.642 117.896 400.945 118.066 401.236 118.24L402.924 117.3C402.597 117.105 402.257 116.914 401.904 116.729L400.913 116.208ZM404.754 118.553L402.864 119.354C403.366 119.75 403.817 120.16 404.216 120.584L406.276 119.936C405.827 119.46 405.319 118.998 404.754 118.553ZM407.461 121.425L405.27 121.907C405.57 122.363 405.816 122.829 406.007 123.301L408.29 122.993C408.076 122.462 407.799 121.938 407.461 121.425ZM408.749 124.61L406.415 124.74C406.496 125.225 406.521 125.712 406.489 126.198L408.833 126.249C408.868 125.702 408.84 125.155 408.749 124.61ZM408.538 127.879L406.227 127.649C406.085 128.127 405.887 128.6 405.633 129.065L407.87 129.472C408.155 128.948 408.378 128.416 408.538 127.879ZM406.837 130.998L404.716 130.422C404.36 130.858 403.952 131.283 403.49 131.695L405.458 132.431C405.978 131.968 406.438 131.489 406.837 130.998ZM403.759 133.743L401.978 132.862C401.706 133.046 401.421 133.226 401.123 133.402L400.201 133.945L401.877 134.892L402.798 134.349C403.132 134.152 403.453 133.95 403.759 133.743ZM400.033 135.98L398.357 135.033L396.514 136.121L398.189 137.067L400.033 135.98ZM396.346 138.155L394.67 137.208L392.826 138.296L394.502 139.243L396.346 138.155ZM392.659 140.33L390.983 139.383L389.139 140.471L390.815 141.418L392.659 140.33ZM388.972 142.505L387.296 141.558L385.452 142.646L387.128 143.593L388.972 142.505ZM385.284 144.68L383.608 143.734L381.765 144.821L383.441 145.768L385.284 144.68ZM381.597 146.856L379.921 145.909L378.078 146.996L379.754 147.943L381.597 146.856ZM377.91 149.031L376.234 148.084L374.391 149.171L376.066 150.118L377.91 149.031ZM374.223 151.206L372.547 150.259L370.703 151.347L372.379 152.293L374.223 151.206ZM370.536 153.381L368.86 152.434L367.016 153.522L368.692 154.469L370.536 153.381ZM366.848 155.556L365.173 154.609L363.329 155.697L365.005 156.644L366.848 155.556ZM363.161 157.731L361.485 156.784L359.642 157.872L361.318 158.819L363.161 157.731ZM359.474 159.906L357.798 158.96L355.955 160.047L357.63 160.994L359.474 159.906ZM355.787 162.082L354.111 161.135L352.267 162.222L353.943 163.169L355.787 162.082ZM352.1 164.257L350.424 163.31L348.58 164.397L350.256 165.344L352.1 164.257ZM348.412 166.432L346.737 165.485L344.893 166.573L346.569 167.519L348.412 166.432ZM344.725 168.607L343.049 167.66L341.206 168.748L342.882 169.695L344.725 168.607ZM341.038 170.782L339.362 169.835L337.519 170.923L339.194 171.87L341.038 170.782ZM337.351 172.957L335.675 172.01L333.831 173.098L335.507 174.045L337.351 172.957ZM333.664 175.133L331.988 174.186L330.144 175.273L331.82 176.22L333.664 175.133ZM329.977 177.308L328.301 176.361L326.457 177.448L328.133 178.395L329.977 177.308ZM326.289 179.483L324.614 178.536L322.77 179.623L324.446 180.57L326.289 179.483ZM322.602 181.658L320.926 180.711L319.083 181.799L320.759 182.746L322.602 181.658ZM318.915 183.833L317.239 182.886L315.396 183.974L317.071 184.921L318.915 183.833ZM315.228 186.008L313.552 185.061L311.708 186.149L313.384 187.096L315.228 186.008ZM311.541 188.183L309.865 187.236L308.021 188.324L309.697 189.271L311.541 188.183ZM307.853 190.359L306.178 189.412L304.334 190.499L306.01 191.446L307.853 190.359ZM304.166 192.534L302.49 191.587L300.647 192.674L302.323 193.621L304.166 192.534ZM300.479 194.709L298.803 193.762L296.96 194.849L298.635 195.796L300.479 194.709ZM296.792 196.884L295.116 195.937L293.272 197.025L294.948 197.972L296.792 196.884ZM293.105 199.059L291.429 198.112L289.585 199.2L291.261 200.147L293.105 199.059ZM289.417 201.234L287.742 200.287L285.898 201.375L287.574 202.322L289.417 201.234ZM285.73 203.409L284.054 202.462L282.211 203.55L283.887 204.497L285.73 203.409ZM282.043 205.585L280.367 204.638L278.524 205.725L280.199 206.672L282.043 205.585ZM278.356 207.76L276.68 206.813L274.836 207.9L276.512 208.847L278.356 207.76ZM274.669 209.935L272.993 208.988L271.149 210.076L272.825 211.022L274.669 209.935ZM270.981 212.11L269.306 211.163L267.462 212.251L269.138 213.198L270.981 212.11ZM267.294 214.285L265.618 213.338L263.775 214.426L265.451 215.373L267.294 214.285ZM263.607 216.46L261.931 215.513L260.088 216.601L261.763 217.548L263.607 216.46ZM259.92 218.635L258.244 217.689L256.4 218.776L258.076 219.723L259.92 218.635ZM256.233 220.811L254.557 219.864L252.713 220.951L254.389 221.898L256.233 220.811ZM252.545 222.986L250.87 222.039L249.026 223.126L250.702 224.073L252.545 222.986ZM248.858 225.161L247.182 224.214L245.339 225.302L247.015 226.249L248.858 225.161ZM245.171 227.336L243.495 226.389L241.652 227.477L243.327 228.424L245.171 227.336ZM241.484 229.511L239.808 228.564L237.964 229.652L239.64 230.599L241.484 229.511ZM237.797 231.686L236.121 230.739L234.277 231.827L235.953 232.774L237.797 231.686ZM234.109 233.862L232.434 232.915L230.59 234.002L232.266 234.949L234.109 233.862ZM230.422 236.037L228.746 235.09L226.903 236.177L228.579 237.124L230.422 236.037ZM226.735 238.212L225.059 237.265L223.216 238.353L224.891 239.299L226.735 238.212ZM223.048 240.387L221.372 239.44L219.528 240.528L221.204 241.475L223.048 240.387ZM219.361 242.562L217.685 241.615L215.841 242.703L217.517 243.65L219.361 242.562ZM215.673 244.737L213.998 243.79L212.154 244.878L213.83 245.825L215.673 244.737ZM211.986 246.912L210.31 245.965L208.467 247.053L210.143 248L211.986 246.912ZM208.299 249.088L206.623 248.141L204.78 249.228L206.456 250.175L208.299 249.088ZM204.612 251.263L202.936 250.316L201.092 251.403L202.768 252.35L204.612 251.263ZM200.925 253.438L199.249 252.491L197.405 253.578L199.081 254.525L200.925 253.438ZM197.238 255.613L195.562 254.666L193.718 255.754L195.394 256.701L197.238 255.613ZM193.55 257.788L191.875 256.841L190.031 257.929L191.707 258.876L193.55 257.788ZM189.863 259.963L188.187 259.016L186.344 260.104L188.02 261.051L189.863 259.963ZM186.176 262.138L184.5 261.191L182.657 262.279L184.332 263.226L186.176 262.138ZM182.489 264.314L180.813 263.367L178.969 264.454L180.645 265.401L182.489 264.314ZM178.802 266.489L177.126 265.542L175.282 266.629L176.958 267.576L178.802 266.489ZM175.115 268.664L173.439 267.717L171.595 268.804L173.271 269.751L175.115 268.664ZM171.427 270.839L169.751 269.892L167.908 270.98L169.584 271.927L171.427 270.839ZM167.74 273.014L166.064 272.067L164.221 273.155L165.897 274.102L167.74 273.014ZM164.053 275.189L162.377 274.242L160.534 275.33L162.209 276.277L164.053 275.189ZM160.366 277.364L158.69 276.417L156.846 277.505L158.522 278.452L160.366 277.364ZM156.679 279.539L155.003 278.593L153.159 279.68L154.835 280.627L156.679 279.539ZM152.991 281.715L151.316 280.768L149.472 281.855L151.148 282.802L152.991 281.715ZM149.304 283.89L147.628 282.943L145.785 284.03L147.461 284.977L149.304 283.89ZM145.617 286.065L143.941 285.118L142.098 286.206L143.774 287.152L145.617 286.065ZM141.93 288.24L140.254 287.293L138.41 288.381L140.086 289.328L141.93 288.24ZM138.243 290.415L136.567 289.468L134.723 290.556L136.399 291.503L138.243 290.415ZM134.556 292.59L132.88 291.643L131.036 292.731L132.712 293.678L134.556 292.59ZM130.868 294.765L129.193 293.819L127.349 294.906L129.025 295.853L130.868 294.765ZM127.181 296.941L125.505 295.994L124.584 296.537C124.29 296.711 123.99 296.877 123.682 297.036L125.248 298.044C125.593 297.865 125.93 297.678 126.259 297.484L127.181 296.941ZM123.048 299.04L121.726 297.922C121.035 298.195 120.319 298.438 119.585 298.651L120.639 299.86C121.466 299.62 122.271 299.347 123.048 299.04ZM118.063 300.489L117.296 299.209C116.509 299.367 115.708 299.493 114.897 299.589L115.366 300.915C116.277 300.808 117.178 300.666 118.063 300.489ZM112.595 301.133L112.431 299.783C111.603 299.816 110.771 299.818 109.942 299.789L109.798 301.14C110.729 301.173 111.664 301.171 112.595 301.133ZM107.024 300.935L107.473 299.606C106.661 299.515 105.858 299.392 105.069 299.239L104.321 300.522C105.208 300.694 106.111 300.832 107.024 300.935ZM101.736 299.906L102.772 298.692C102.035 298.482 101.316 298.242 100.621 297.973L99.3146 299.097C100.097 299.4 100.905 299.67 101.736 299.906ZM97.1006 298.111L98.6516 297.096C98.3421 296.938 98.0391 296.774 97.7432 296.602L96.8028 296.057L95.1407 297.012L96.0811 297.557C96.4129 297.75 96.7529 297.934 97.1006 298.111ZM93.2599 295.92L94.922 294.965L93.0412 293.874L91.3791 294.829L93.2599 295.92ZM89.4983 293.738L91.1603 292.783L89.2795 291.692L87.6174 292.647L89.4983 293.738ZM85.7366 291.556L87.3987 290.601L85.5179 289.51L83.8558 290.465L85.7366 291.556ZM81.9749 289.373L83.637 288.418L81.7562 287.327L80.0941 288.282L81.9749 289.373ZM78.2133 287.191L79.8754 286.236L77.9946 285.145L76.3325 286.1L78.2133 287.191ZM74.4516 285.009L76.1137 284.054L74.2329 282.963L72.5708 283.918L74.4516 285.009ZM70.69 282.826L72.3521 281.871L70.4712 280.78L68.8092 281.735L70.69 282.826ZM66.9284 280.644L68.5904 279.689L66.7096 278.598L65.0475 279.553L66.9284 280.644ZM63.1667 278.462L64.8288 277.507L62.948 276.416L61.2859 277.371L63.1667 278.462ZM59.4051 276.279L61.0671 275.324L59.1863 274.233L57.5242 275.188L59.4051 276.279ZM55.6434 274.097L57.3055 273.142L55.4246 272.051L53.7626 273.006L55.6434 274.097ZM51.8817 271.915L53.5438 270.96L51.663 269.869L50.0009 270.824L51.8817 271.915ZM48.1201 269.732L49.7822 268.777L47.9013 267.686L46.2393 268.641L48.1201 269.732ZM44.3584 267.55L46.0205 266.595L44.1397 265.504L42.4776 266.459L44.3584 267.55ZM40.5968 265.368L42.2589 264.413L40.3781 263.322L38.716 264.277L40.5968 265.368ZM36.8351 263.185L38.4972 262.23L36.6164 261.139L34.9543 262.094L36.8351 263.185ZM33.0735 261.003L34.7356 260.048L32.8547 258.957L31.1927 259.912L33.0735 261.003Z" fill="#B674F8"/>
<path fill-rule="evenodd" clip-rule="evenodd" d="M29.3118 258.821L28.3714 258.275C28.0456 258.086 27.7325 257.892 27.4324 257.694L29.1969 256.803C29.4641 256.979 29.743 257.152 30.0335 257.32L30.9739 257.866L29.3118 258.821ZM25.76 256.436L27.7092 255.683C27.2523 255.289 26.8449 254.881 26.4869 254.462L24.3845 255.062C24.7874 255.533 25.2459 255.992 25.76 256.436ZM23.331 253.596L25.5506 253.16C25.2869 252.713 25.0749 252.258 24.9147 251.798L22.6158 252.064C22.7959 252.582 23.0343 253.094 23.331 253.596ZM22.2493 250.492L24.5886 250.398C24.5322 249.928 24.5284 249.456 24.5771 248.986L22.2365 248.905C22.1817 249.434 22.1859 249.964 22.2493 250.492ZM22.5774 247.331L24.8805 247.585C25.0333 247.124 25.2379 246.668 25.4944 246.219L23.2677 245.795C22.9793 246.299 22.7492 246.812 22.5774 247.331ZM24.2975 244.324L26.4095 244.912C26.7607 244.491 27.1615 244.081 27.612 243.684L25.6507 242.942C25.1437 243.389 24.6927 243.851 24.2975 244.324ZM27.3026 241.675L29.0814 242.557C29.3458 242.379 29.6218 242.205 29.9097 242.035L30.8315 241.49L29.154 240.544L28.2322 241.089C27.9094 241.28 27.5995 241.475 27.3026 241.675ZM30.9978 239.454L32.6752 240.4L34.519 239.31L32.8415 238.364L30.9978 239.454ZM34.6852 237.274L36.3627 238.22L38.2064 237.131L36.529 236.185L34.6852 237.274ZM38.3727 235.095L40.0502 236.041L41.8939 234.951L40.2164 234.005L38.3727 235.095ZM42.0601 232.915L43.7376 233.861L45.5814 232.771L43.9039 231.825L42.0601 232.915ZM45.7476 230.735L47.4251 231.681L49.2688 230.591L47.5913 229.645L45.7476 230.735ZM49.435 228.556L51.1125 229.502L52.9563 228.412L51.2788 227.466L49.435 228.556ZM53.1225 226.376L54.8 227.322L56.6437 226.232L54.9662 225.286L53.1225 226.376ZM56.8099 224.196L58.4874 225.142L60.3312 224.052L58.6537 223.106L56.8099 224.196ZM60.4974 222.016L62.1749 222.962L64.0186 221.873L62.3411 220.927L60.4974 222.016ZM64.1849 219.837L65.8624 220.783L67.7061 219.693L66.0286 218.747L64.1849 219.837ZM67.8723 217.657L69.5498 218.603L71.3935 217.513L69.716 216.567L67.8723 217.657ZM71.5598 215.477L73.2373 216.423L75.081 215.333L73.4035 214.388L71.5598 215.477ZM75.2472 213.298L76.9247 214.244L78.7685 213.154L77.0909 212.208L75.2472 213.298ZM78.9347 211.118L80.6122 212.064L82.4559 210.974L80.7784 210.028L78.9347 211.118ZM82.6222 208.938L84.2996 209.884L86.1434 208.794L84.4659 207.848L82.6222 208.938ZM86.3096 206.759L87.9871 207.704L89.8308 206.615L88.1533 205.669L86.3096 206.759ZM89.9971 204.579L91.6745 205.525L93.5183 204.435L91.8408 203.489L89.9971 204.579ZM93.6845 202.399L95.362 203.345L97.2058 202.255L95.5283 201.309L93.6845 202.399ZM97.372 200.219L99.0495 201.165L100.893 200.076L99.2157 199.13L97.372 200.219ZM101.059 198.04L102.737 198.986L104.581 197.896L102.903 196.95L101.059 198.04ZM104.747 195.86L106.424 196.806L108.268 195.716L106.591 194.77L104.747 195.86ZM108.434 193.68L110.112 194.626L111.956 193.536L110.278 192.59L108.434 193.68ZM112.122 191.501L113.799 192.447L115.643 191.357L113.966 190.411L112.122 191.501ZM115.809 189.321L117.487 190.267L119.33 189.177L117.653 188.231L115.809 189.321ZM119.497 187.141L121.174 188.087L123.018 186.997L121.34 186.051L119.497 187.141ZM123.184 184.961L124.862 185.907L126.705 184.818L125.028 183.872L123.184 184.961ZM126.872 182.782L128.549 183.728L130.393 182.638L128.715 181.692L126.872 182.782ZM130.559 180.602L132.237 181.548L134.08 180.458L132.403 179.512L130.559 180.602ZM134.247 178.422L135.924 179.368L137.768 178.278L136.09 177.332L134.247 178.422ZM137.934 176.243L139.612 177.189L141.455 176.099L139.778 175.153L137.934 176.243ZM141.621 174.063L143.299 175.009L145.143 173.919L143.465 172.973L141.621 174.063ZM145.309 171.883L146.986 172.829L148.83 171.739L147.153 170.793L145.309 171.883ZM148.996 169.704L150.674 170.649L152.518 169.56L150.84 168.614L148.996 169.704ZM152.684 167.524L154.361 168.47L156.205 167.38L154.528 166.434L152.684 167.524ZM156.371 165.344L158.049 166.29L159.893 165.2L158.215 164.254L156.371 165.344ZM160.059 163.164L161.736 164.11L163.58 163.02L161.903 162.075L160.059 163.164ZM163.746 160.985L165.424 161.931L167.267 160.841L165.59 159.895L163.746 160.985ZM167.434 158.805L169.111 159.751L170.955 158.661L169.277 157.715L167.434 158.805ZM171.121 156.625L172.799 157.571L174.642 156.481L172.965 155.535L171.121 156.625ZM174.809 154.446L176.486 155.391L178.33 154.302L176.652 153.356L174.809 154.446ZM178.496 152.266L180.174 153.212L182.017 152.122L180.34 151.176L178.496 152.266ZM182.183 150.086L183.861 151.032L185.705 149.942L184.027 148.996L182.183 150.086ZM185.871 147.906L187.548 148.852L189.392 147.763L187.715 146.817L185.871 147.906ZM189.558 145.727L191.236 146.673L193.08 145.583L191.402 144.637L189.558 145.727ZM193.246 143.547L194.923 144.493L196.767 143.403L195.09 142.457L193.246 143.547ZM196.933 141.367L198.611 142.313L200.455 141.223L198.777 140.277L196.933 141.367ZM200.621 139.188L202.298 140.134L204.142 139.044L202.465 138.098L200.621 139.188ZM204.308 137.008L205.986 137.954L207.829 136.864L206.152 135.918L204.308 137.008ZM207.996 134.828L209.673 135.774L211.517 134.684L209.839 133.738L207.996 134.828ZM211.683 132.648L213.361 133.594L215.204 132.505L213.527 131.559L211.683 132.648ZM215.371 130.469L217.048 131.415L218.892 130.325L217.214 129.379L215.371 130.469ZM219.058 128.289L220.736 129.235L222.579 128.145L220.902 127.199L219.058 128.289ZM222.745 126.109L224.423 127.055L226.267 125.966L224.589 125.02L222.745 126.109ZM226.433 123.93L228.11 124.876L229.954 123.786L228.277 122.84L226.433 123.93ZM230.12 121.75L231.798 122.696L233.642 121.606L231.964 120.66L230.12 121.75ZM233.808 119.57L235.485 120.516L237.329 119.426L235.651 118.48L233.808 119.57ZM237.495 117.391L239.173 118.337L241.016 117.247L239.339 116.301L237.495 117.391ZM241.183 115.211L242.86 116.157L244.704 115.067L243.026 114.121L241.183 115.211ZM244.87 113.031L246.548 113.977L248.391 112.887L246.714 111.941L244.87 113.031ZM248.558 110.852L250.235 111.798L252.079 110.708L250.401 109.762L248.558 110.852ZM252.245 108.672L253.922 109.618L255.766 108.528L254.089 107.582L252.245 108.672ZM255.932 106.492L257.61 107.438L259.454 106.348L257.776 105.402L255.932 106.492ZM259.62 104.312L261.297 105.258L263.141 104.169L261.464 103.223L259.62 104.312ZM263.307 102.133L264.985 103.079L266.828 101.989L265.151 101.043L263.307 102.133ZM266.995 99.9531L268.672 100.899L270.516 99.8092L268.838 98.8632L266.995 99.9531ZM270.682 97.7734L272.36 98.7193L274.203 97.6295L272.526 96.6835L270.682 97.7734ZM274.37 95.5937L276.047 96.5396L277.891 95.4498L276.213 94.5038L274.37 95.5937ZM278.057 93.414L279.734 94.3599L281.578 93.2701L279.901 92.3241L278.057 93.414ZM281.744 91.2343L283.422 92.1803L285.266 91.0904L283.588 90.1445L281.744 91.2343ZM285.432 89.0546L287.109 90.0006L288.953 88.9107L287.276 87.9648L285.432 89.0546ZM289.119 86.8749L290.797 87.8209L292.641 86.731L290.963 85.7851L289.119 86.8749ZM292.807 84.6952L294.484 85.6412L296.328 84.5513L294.65 83.6054L292.807 84.6952ZM296.494 82.5155L298.172 83.4615L300.015 82.3716L298.338 81.4257L296.494 82.5155ZM300.182 80.3358L301.859 81.2818L302.781 80.7366C303.065 80.5689 303.356 80.4077 303.653 80.253L302.082 79.2478C301.748 79.4216 301.422 79.6026 301.104 79.7906L300.182 80.3358ZM304.205 78.2761L305.541 79.3887C306.207 79.1221 306.896 78.883 307.604 78.6715L306.527 77.4691C305.73 77.7072 304.954 77.9762 304.205 78.2761ZM309.008 76.8411L309.81 78.1133C310.568 77.9542 311.34 77.8238 312.123 77.7224L311.609 76.4015C310.73 76.5155 309.861 76.662 309.008 76.8411ZM314.285 76.1567L314.504 77.5047C315.305 77.4613 316.11 77.4475 316.915 77.4632L316.994 76.1101C316.09 76.0925 315.186 76.1081 314.285 76.1567ZM319.691 76.2624L319.314 77.5986C320.106 77.6729 320.89 77.7765 321.663 77.9093L322.332 76.6117C321.463 76.4623 320.58 76.3459 319.691 76.2624ZM324.874 77.1533L323.922 78.3906C324.651 78.5774 325.364 78.7923 326.056 79.0355L327.275 77.879C326.496 77.6054 325.694 77.3635 324.874 77.1533ZM329.495 78.7759L328.03 79.8334C328.343 79.9776 328.65 80.1285 328.95 80.2861L329.941 80.8062L331.518 79.8042L330.527 79.2842C330.19 79.1073 329.846 78.9379 329.495 78.7759ZM333.501 80.8443L335.484 81.8845L333.907 82.8864L331.924 81.8463L333.501 80.8443ZM337.466 82.9246L335.889 83.9266L337.872 84.9667L339.449 83.9647L337.466 82.9246ZM341.432 85.0048L339.855 86.0068L341.838 87.0469L343.414 86.0449L341.432 85.0048ZM345.397 87.0851L343.82 88.087L345.803 89.1272L347.38 88.1252L345.397 87.0851ZM349.363 89.1653L347.786 90.1673L349.768 91.2074L351.345 90.2054L349.363 89.1653ZM353.328 91.2456L351.751 92.2475L353.734 93.2876L355.311 92.2857L353.328 91.2456ZM357.293 93.3258L355.716 94.3278L357.699 95.3679L359.276 94.3659L357.293 93.3258ZM361.259 95.406L359.682 96.408L361.665 97.4481L363.241 96.4462L361.259 95.406ZM365.224 97.4863L363.647 98.4882L365.63 99.5284L367.207 98.5264L365.224 97.4863ZM369.189 99.5665L367.613 100.568L369.595 101.609L371.172 100.607L369.189 99.5665ZM373.155 101.647L371.578 102.649L373.561 103.689L375.138 102.687L373.155 101.647ZM377.12 103.727L375.543 104.729L377.526 105.769L379.103 104.767L377.12 103.727ZM381.086 105.807L379.509 106.809L381.491 107.849L383.068 106.847L381.086 105.807ZM385.051 107.887L383.474 108.889L385.457 109.93L387.034 108.928L385.051 107.887ZM389.016 109.968L387.44 110.97L389.422 112.01L390.999 111.008L389.016 109.968ZM392.982 112.048L391.405 113.05L393.388 114.09L394.965 113.088L392.982 112.048ZM396.947 114.128L395.37 115.13L397.353 116.17L398.93 115.168L396.947 114.128ZM400.913 116.208L399.336 117.21L400.327 117.73C400.642 117.896 400.945 118.066 401.236 118.24L402.924 117.3C402.597 117.105 402.257 116.914 401.904 116.729L400.913 116.208ZM404.754 118.553L402.864 119.354C403.366 119.75 403.817 120.16 404.216 120.584L406.276 119.936C405.827 119.46 405.319 118.998 404.754 118.553ZM407.461 121.425L405.27 121.907C405.57 122.363 405.816 122.829 406.007 123.301L408.29 122.993C408.076 122.462 407.799 121.938 407.461 121.425ZM408.749 124.61L406.415 124.74C406.496 125.225 406.521 125.712 406.489 126.198L408.833 126.249C408.868 125.702 408.84 125.155 408.749 124.61ZM408.538 127.879L406.227 127.649C406.085 128.127 405.887 128.6 405.633 129.065L407.87 129.472C408.155 128.948 408.378 128.416 408.538 127.879ZM406.837 130.998L404.716 130.422C404.36 130.858 403.952 131.283 403.49 131.695L405.458 132.431C405.978 131.968 406.438 131.489 406.837 130.998ZM403.759 133.743L401.978 132.862C401.706 133.046 401.421 133.226 401.123 133.402L400.201 133.945L401.877 134.892L402.798 134.349C403.132 134.152 403.453 133.95 403.759 133.743ZM400.033 135.98L398.357 135.033L396.514 136.121L398.189 137.067L400.033 135.98ZM396.346 138.155L394.67 137.208L392.826 138.296L394.502 139.243L396.346 138.155ZM392.659 140.33L390.983 139.383L389.139 140.471L390.815 141.418L392.659 140.33ZM388.972 142.505L387.296 141.558L385.452 142.646L387.128 143.593L388.972 142.505ZM385.284 144.68L383.608 143.734L381.765 144.821L383.441 145.768L385.284 144.68ZM381.597 146.856L379.921 145.909L378.078 146.996L379.754 147.943L381.597 146.856ZM377.91 149.031L376.234 148.084L374.391 149.171L376.066 150.118L377.91 149.031ZM374.223 151.206L372.547 150.259L370.703 151.347L372.379 152.293L374.223 151.206ZM370.536 153.381L368.86 152.434L367.016 153.522L368.692 154.469L370.536 153.381ZM366.848 155.556L365.173 154.609L363.329 155.697L365.005 156.644L366.848 155.556ZM363.161 157.731L361.485 156.784L359.642 157.872L361.318 158.819L363.161 157.731ZM359.474 159.906L357.798 158.96L355.955 160.047L357.63 160.994L359.474 159.906ZM355.787 162.082L354.111 161.135L352.267 162.222L353.943 163.169L355.787 162.082ZM352.1 164.257L350.424 163.31L348.58 164.397L350.256 165.344L352.1 164.257ZM348.412 166.432L346.737 165.485L344.893 166.573L346.569 167.519L348.412 166.432ZM344.725 168.607L343.049 167.66L341.206 168.748L342.882 169.695L344.725 168.607ZM341.038 170.782L339.362 169.835L337.519 170.923L339.194 171.87L341.038 170.782ZM337.351 172.957L335.675 172.01L333.831 173.098L335.507 174.045L337.351 172.957ZM333.664 175.133L331.988 174.186L330.144 175.273L331.82 176.22L333.664 175.133ZM329.977 177.308L328.301 176.361L326.457 177.448L328.133 178.395L329.977 177.308ZM326.289 179.483L324.614 178.536L322.77 179.623L324.446 180.57L326.289 179.483ZM322.602 181.658L320.926 180.711L319.083 181.799L320.759 182.746L322.602 181.658ZM318.915 183.833L317.239 182.886L315.396 183.974L317.071 184.921L318.915 183.833ZM315.228 186.008L313.552 185.061L311.708 186.149L313.384 187.096L315.228 186.008ZM311.541 188.183L309.865 187.236L308.021 188.324L309.697 189.271L311.541 188.183ZM307.853 190.359L306.178 189.412L304.334 190.499L306.01 191.446L307.853 190.359ZM304.166 192.534L302.49 191.587L300.647 192.674L302.323 193.621L304.166 192.534ZM300.479 194.709L298.803 193.762L296.96 194.849L298.635 195.796L300.479 194.709ZM296.792 196.884L295.116 195.937L293.272 197.025L294.948 197.972L296.792 196.884ZM293.105 199.059L291.429 198.112L289.585 199.2L291.261 200.147L293.105 199.059ZM289.417 201.234L287.742 200.287L285.898 201.375L287.574 202.322L289.417 201.234ZM285.73 203.409L284.054 202.462L282.211 203.55L283.887 204.497L285.73 203.409ZM282.043 205.585L280.367 204.638L278.524 205.725L280.199 206.672L282.043 205.585ZM278.356 207.76L276.68 206.813L274.836 207.9L276.512 208.847L278.356 207.76ZM274.669 209.935L272.993 208.988L271.149 210.076L272.825 211.022L274.669 209.935ZM270.981 212.11L269.306 211.163L267.462 212.251L269.138 213.198L270.981 212.11ZM267.294 214.285L265.618 213.338L263.775 214.426L265.451 215.373L267.294 214.285ZM263.607 216.46L261.931 215.513L260.088 216.601L261.763 217.548L263.607 216.46ZM259.92 218.635L258.244 217.689L256.4 218.776L258.076 219.723L259.92 218.635ZM256.233 220.811L254.557 219.864L252.713 220.951L254.389 221.898L256.233 220.811ZM252.545 222.986L250.87 222.039L249.026 223.126L250.702 224.073L252.545 222.986ZM248.858 225.161L247.182 224.214L245.339 225.302L247.015 226.249L248.858 225.161ZM245.171 227.336L243.495 226.389L241.652 227.477L243.327 228.424L245.171 227.336ZM241.484 229.511L239.808 228.564L237.964 229.652L239.64 230.599L241.484 229.511ZM237.797 231.686L236.121 230.739L234.277 231.827L235.953 232.774L237.797 231.686ZM234.109 233.862L232.434 232.915L230.59 234.002L232.266 234.949L234.109 233.862ZM230.422 236.037L228.746 235.09L226.903 236.177L228.579 237.124L230.422 236.037ZM226.735 238.212L225.059 237.265L223.216 238.353L224.891 239.299L226.735 238.212ZM223.048 240.387L221.372 239.44L219.528 240.528L221.204 241.475L223.048 240.387ZM219.361 242.562L217.685 241.615L215.841 242.703L217.517 243.65L219.361 242.562ZM215.673 244.737L213.998 243.79L212.154 244.878L213.83 245.825L215.673 244.737ZM211.986 246.912L210.31 245.965L208.467 247.053L210.143 248L211.986 246.912ZM208.299 249.088L206.623 248.141L204.78 249.228L206.456 250.175L208.299 249.088ZM204.612 251.263L202.936 250.316L201.092 251.403L202.768 252.35L204.612 251.263ZM200.925 253.438L199.249 252.491L197.405 253.578L199.081 254.525L200.925 253.438ZM197.238 255.613L195.562 254.666L193.718 255.754L195.394 256.701L197.238 255.613ZM193.55 257.788L191.875 256.841L190.031 257.929L191.707 258.876L193.55 257.788ZM189.863 259.963L188.187 259.016L186.344 260.104L188.02 261.051L189.863 259.963ZM186.176 262.138L184.5 261.191L182.657 262.279L184.332 263.226L186.176 262.138ZM182.489 264.314L180.813 263.367L178.969 264.454L180.645 265.401L182.489 264.314ZM178.802 266.489L177.126 265.542L175.282 266.629L176.958 267.576L178.802 266.489ZM175.115 268.664L173.439 267.717L171.595 268.804L173.271 269.751L175.115 268.664ZM171.427 270.839L169.751 269.892L167.908 270.98L169.584 271.927L171.427 270.839ZM167.74 273.014L166.064 272.067L164.221 273.155L165.897 274.102L167.74 273.014ZM164.053 275.189L162.377 274.242L160.534 275.33L162.209 276.277L164.053 275.189ZM160.366 277.364L158.69 276.417L156.846 277.505L158.522 278.452L160.366 277.364ZM156.679 279.539L155.003 278.593L153.159 279.68L154.835 280.627L156.679 279.539ZM152.991 281.715L151.316 280.768L149.472 281.855L151.148 282.802L152.991 281.715ZM149.304 283.89L147.628 282.943L145.785 284.03L147.461 284.977L149.304 283.89ZM145.617 286.065L143.941 285.118L142.098 286.206L143.774 287.152L145.617 286.065ZM141.93 288.24L140.254 287.293L138.41 288.381L140.086 289.328L141.93 288.24ZM138.243 290.415L136.567 289.468L134.723 290.556L136.399 291.503L138.243 290.415ZM134.556 292.59L132.88 291.643L131.036 292.731L132.712 293.678L134.556 292.59ZM130.868 294.765L129.193 293.819L127.349 294.906L129.025 295.853L130.868 294.765ZM127.181 296.941L125.505 295.994L124.584 296.537C124.29 296.711 123.99 296.877 123.682 297.036L125.248 298.044C125.593 297.865 125.93 297.678 126.259 297.484L127.181 296.941ZM123.048 299.04L121.726 297.922C121.035 298.195 120.319 298.438 119.585 298.651L120.639 299.86C121.466 299.62 122.271 299.347 123.048 299.04ZM118.063 300.489L117.296 299.209C116.509 299.367 115.708 299.493 114.897 299.589L115.366 300.915C116.277 300.808 117.178 300.666 118.063 300.489ZM112.595 301.133L112.431 299.783C111.603 299.816 110.771 299.818 109.942 299.789L109.798 301.14C110.729 301.173 111.664 301.171 112.595 301.133ZM107.024 300.935L107.473 299.606C106.661 299.515 105.858 299.392 105.069 299.239L104.321 300.522C105.208 300.694 106.111 300.832 107.024 300.935ZM101.736 299.906L102.772 298.692C102.035 298.482 101.316 298.242 100.621 297.973L99.3146 299.097C100.097 299.4 100.905 299.67 101.736 299.906ZM97.1006 298.111L98.6516 297.096C98.3421 296.938 98.0391 296.774 97.7432 296.602L96.8028 296.057L95.1407 297.012L96.0811 297.557C96.4129 297.75 96.7529 297.934 97.1006 298.111ZM93.2599 295.92L94.922 294.965L93.0412 293.874L91.3791 294.829L93.2599 295.92ZM89.4983 293.738L91.1603 292.783L89.2795 291.692L87.6174 292.647L89.4983 293.738ZM85.7366 291.556L87.3987 290.601L85.5179 289.51L83.8558 290.465L85.7366 291.556ZM81.9749 289.373L83.637 288.418L81.7562 287.327L80.0941 288.282L81.9749 289.373ZM78.2133 287.191L79.8754 286.236L77.9946 285.145L76.3325 286.1L78.2133 287.191ZM74.4516 285.009L76.1137 284.054L74.2329 282.963L72.5708 283.918L74.4516 285.009ZM70.69 282.826L72.3521 281.871L70.4712 280.78L68.8092 281.735L70.69 282.826ZM66.9284 280.644L68.5904 279.689L66.7096 278.598L65.0475 279.553L66.9284 280.644ZM63.1667 278.462L64.8288 277.507L62.948 276.416L61.2859 277.371L63.1667 278.462ZM59.4051 276.279L61.0671 275.324L59.1863 274.233L57.5242 275.188L59.4051 276.279ZM55.6434 274.097L57.3055 273.142L55.4246 272.051L53.7626 273.006L55.6434 274.097ZM51.8817 271.915L53.5438 270.96L51.663 269.869L50.0009 270.824L51.8817 271.915ZM48.1201 269.732L49.7822 268.777L47.9013 267.686L46.2393 268.641L48.1201 269.732ZM44.3584 267.55L46.0205 266.595L44.1397 265.504L42.4776 266.459L44.3584 267.55ZM40.5968 265.368L42.2589 264.413L40.3781 263.322L38.716 264.277L40.5968 265.368ZM36.8351 263.185L38.4972 262.23L36.6164 261.139L34.9543 262.094L36.8351 263.185ZM33.0735 261.003L34.7356 260.048L32.8547 258.957L31.1927 259.912L33.0735 261.003Z" fill="white"/>
<g filter="url(#filter2_di_22931_71616)">
<g filter="url(#filter3_d_22931_71616)">
<path d="M295.467 135.555C287.338 130.862 282.771 124.496 282.771 117.859C282.771 111.222 287.338 104.856 295.467 100.163L326.12 82.4672L356.773 100.163C364.903 104.856 369.47 111.222 369.47 117.859C369.47 124.496 364.903 130.862 356.773 135.555C348.644 140.248 337.618 142.885 326.12 142.885C314.623 142.885 303.597 140.248 295.467 135.555V135.555Z" fill="#1F12DA"/>
</g>
<path d="M326.239 121.522L326.239 159.349L265.438 123.508L265.438 86.7475L326.239 121.522Z" fill="#1E1926"/>
<path d="M326.12 121.028L326.12 158.92L387.426 123.541L387.426 86.8209L326.12 121.028Z" fill="#130F18"/>
<path d="M326.539 121.691L265.048 86.9693L326.539 50.8008L387.302 86.9694L326.539 121.691Z" fill="#231D2C"/>
<path fill-rule="evenodd" clip-rule="evenodd" d="M326.537 120.784L385.736 86.9554L326.537 51.7176L266.628 86.9554L326.537 120.784ZM326.539 121.691L387.302 86.9694L326.539 50.8008L265.048 86.9693L326.539 121.691Z" fill="url(#paint0_linear_22931_71616)"/>
<g filter="url(#filter4_ddi_22931_71616)">
<g clip-path="url(#clip0_22931_71616)">
<path d="M309.101 82.3156C310.906 81.2732 313.355 80.6876 315.908 80.6876C318.462 80.6876 320.91 81.2732 322.716 82.3156C324.521 83.358 325.536 84.7718 325.536 86.246C325.536 87.7202 324.521 89.134 322.716 90.1764C320.91 91.2188 318.462 91.8044 315.908 91.8044C313.355 91.8044 310.906 91.2188 309.101 90.1764C307.295 89.134 306.281 87.7202 306.281 86.246C306.281 84.7718 307.295 83.358 309.101 82.3156ZM326.12 92.1415C330.664 89.518 342.016 85.5975 346.543 88.2112L349.946 90.1764L322.716 105.898L319.312 103.933C314.785 101.319 321.576 94.7651 326.12 92.1415ZM322.92 75.0444C330.102 75.2213 335.293 78.2182 335.293 82.1879L329.558 82.1781C328.979 80.1932 326.375 78.6899 322.937 78.3558L322.92 75.0444ZM322.835 68.4905C336.416 68.6085 346.679 74.5924 346.662 82.2468L341.114 82.2468C340.416 76.4004 332.689 71.9394 322.835 71.6938L322.835 68.4905Z" fill="white"/>
</g>
</g>
</g>
<g filter="url(#filter5_di_22931_71616)">
<g filter="url(#filter6_d_22931_71616)">
<path d="M223.764 177.021C215.635 172.328 211.067 165.963 211.067 159.325C211.067 152.688 215.635 146.323 223.764 141.629L254.417 123.933L285.07 141.629C293.2 146.323 297.767 152.688 297.767 159.325C297.767 165.963 293.2 172.328 285.07 177.021C276.941 181.715 265.914 184.351 254.417 184.351C242.92 184.351 231.894 181.715 223.764 177.021V177.021Z" fill="#1F12DA"/>
</g>
<path d="M254.537 162.988L254.537 200.815L193.735 164.974L193.735 128.214L254.537 162.988Z" fill="#1E1926"/>
<path d="M254.417 162.495L254.417 200.386L315.723 165.007L315.723 128.287L254.417 162.495Z" fill="#130F18"/>
<path d="M254.836 163.158L193.345 128.436L254.836 92.2672L315.599 128.436L254.836 163.158Z" fill="#231D2C"/>
<path fill-rule="evenodd" clip-rule="evenodd" d="M254.834 162.25L314.033 128.422L254.833 93.1839L194.925 128.422L254.834 162.25ZM254.836 163.158L315.599 128.436L254.836 92.2672L193.345 128.436L254.836 163.158Z" fill="url(#paint1_linear_22931_71616)"/>
<g filter="url(#filter7_ddi_22931_71616)">
<g clip-path="url(#clip1_22931_71616)">
<path d="M245.71 117.731L263.923 117.731L281.212 127.713L254.816 142.952L228.421 127.713L245.71 117.731ZM241.939 115.554L224.65 125.535C222.576 126.733 222.576 128.692 224.65 129.89L251.046 145.129C253.12 146.327 256.513 146.327 258.587 145.129L284.983 129.89C287.057 128.692 287.057 126.733 284.983 125.535L267.694 115.554C266.695 114.977 265.337 114.65 263.923 114.661L245.71 114.661C244.296 114.65 242.938 114.977 241.939 115.554ZM251.046 136.421L269.9 125.535L273.671 127.713L254.816 138.598L251.046 136.421ZM243.504 132.067L262.358 121.181L266.129 123.358L247.275 134.244L243.504 132.067ZM235.962 127.713L249.16 120.093L252.931 122.27L239.733 129.89L235.962 127.713Z" fill="white"/>
</g>
</g>
</g>
<g filter="url(#filter8_di_22931_71616)">
<g filter="url(#filter9_d_22931_71616)">
<path d="M151.987 219.188C143.857 214.495 139.29 208.13 139.29 201.492C139.29 194.855 143.857 188.49 151.987 183.796L182.64 166.1L213.293 183.796C221.423 188.49 225.99 194.855 225.99 201.492C225.99 208.13 221.423 214.495 213.293 219.188C205.163 223.882 194.137 226.518 182.64 226.518C171.143 226.518 160.117 223.882 151.987 219.188V219.188Z" fill="#1F12DA"/>
</g>
<path d="M182.758 205.155L182.758 242.982L121.957 207.141L121.957 170.381L182.758 205.155Z" fill="#1E1926"/>
<path d="M182.64 204.662L182.64 242.553L243.946 207.174L243.946 170.454L182.64 204.662Z" fill="#130F18"/>
<path d="M183.059 205.325L121.567 170.603L183.059 134.434L243.822 170.603L183.059 205.325Z" fill="#231D2C"/>
<path fill-rule="evenodd" clip-rule="evenodd" d="M183.056 204.417L242.256 170.589L183.056 135.351L123.147 170.589L183.056 204.417ZM183.059 205.325L243.822 170.603L183.059 134.434L121.567 170.603L183.059 205.325Z" fill="url(#paint2_linear_22931_71616)"/>
<g filter="url(#filter10_ddi_22931_71616)">
<g clip-path="url(#clip2_22931_71616)">
<path d="M167.148 160.705C158.376 165.769 158.376 173.99 167.148 179.054C175.92 184.119 190.158 184.119 198.93 179.054C207.702 173.99 207.702 165.769 198.93 160.705C190.158 155.64 175.92 155.64 167.148 160.705ZM195.752 177.219C188.744 181.265 177.334 181.265 170.326 177.219C163.318 173.173 163.318 166.586 170.326 162.54C177.334 158.494 188.744 158.494 195.752 162.54C202.76 166.586 202.76 173.173 195.752 177.219ZM186.217 176.302L190.19 165.751L171.915 168.044L186.217 176.302Z" fill="white"/>
</g>
</g>
</g>
<g filter="url(#filter11_di_22931_71616)">
<g filter="url(#filter12_d_22931_71616)">
<path d="M80.2839 260.655C72.1542 255.961 67.587 249.596 67.587 242.959C67.587 236.321 72.1542 229.956 80.2839 225.263L110.937 207.567L141.59 225.263C149.72 229.956 154.287 236.321 154.287 242.959C154.287 249.596 149.72 255.961 141.59 260.655C133.46 265.348 122.434 267.985 110.937 267.985C99.4398 267.985 88.4136 265.348 80.2839 260.655V260.655Z" fill="#1F12DA"/>
</g>
<path d="M111.056 246.621L111.056 284.448L50.2549 248.607L50.2549 211.847L111.056 246.621Z" fill="#1E1926"/>
<path d="M110.937 246.128L110.937 284.019L172.243 248.64L172.243 211.92L110.937 246.128Z" fill="#130F18"/>
<path d="M111.355 246.791L49.8643 212.069L111.355 175.9L172.119 212.069L111.355 246.791Z" fill="#231D2C"/>
<path fill-rule="evenodd" clip-rule="evenodd" d="M111.353 245.884L170.553 212.055L111.353 176.817L51.4442 212.055L111.353 245.884ZM111.355 246.791L172.119 212.069L111.355 175.9L49.8643 212.069L111.355 246.791Z" fill="url(#paint3_linear_22931_71616)"/>
<g filter="url(#filter13_ddi_22931_71616)">
<path d="M104.862 209.952C104.862 209.273 105.814 208.723 106.989 208.723L111.819 208.723C112.994 208.723 113.946 209.273 113.946 209.952L113.946 212.74C113.946 213.418 112.994 213.968 111.819 213.968L106.989 213.968C105.814 213.968 104.862 213.418 104.862 212.74L104.862 209.952Z" fill="#A950FF"/>
<path d="M115.965 203.519C115.965 202.853 116.9 202.313 118.054 202.313L122.96 202.313C124.114 202.313 125.05 202.853 125.05 203.519L125.05 206.351C125.05 207.018 124.114 207.558 122.96 207.558L118.054 207.558C116.9 207.558 115.965 207.018 115.965 206.351C115.965 205.685 115.965 203.519 115.965 203.519Z" fill="#A950FF"/>
<path d="M93.7584 203.519C93.7584 202.853 94.6939 202.313 95.8478 202.313L100.754 202.313C101.908 202.313 102.843 202.853 102.843 203.519L102.843 206.352C102.843 207.018 101.908 207.558 100.754 207.558L95.8478 207.558C94.6939 207.558 93.7584 207.018 93.7584 206.352L93.7584 203.519Z" fill="#E9C1FF"/>
<path d="M100.716 208.723C101.891 208.723 102.844 209.273 102.844 209.951L102.844 212.74C102.844 213.418 101.891 213.968 100.716 213.968L95.8864 213.968C94.7115 213.968 93.759 213.418 93.759 212.74L93.759 209.951C93.759 209.273 94.7115 208.723 95.8864 208.723L100.716 208.723Z" fill="#CD88FF"/>
<path d="M100.754 215.134C101.908 215.134 102.843 215.674 102.843 216.34L102.843 219.172C102.843 219.839 101.908 220.379 100.754 220.379L95.8478 220.379C94.6939 220.379 93.7584 219.839 93.7584 219.172L93.7584 216.34C93.7584 215.674 94.6939 215.134 95.8478 215.134L100.754 215.134Z" fill="#A950FF"/>
<path d="M111.819 202.313C112.994 202.313 113.947 202.863 113.947 203.541L113.947 206.329C113.947 207.008 112.994 207.558 111.819 207.558L106.989 207.558C105.814 207.558 104.862 207.008 104.862 206.329L104.862 203.541C104.862 202.863 105.814 202.313 106.989 202.313L111.819 202.313Z" fill="#CD88FF"/>
<path d="M121.025 215.311C123.65 215.311 125.778 216.539 125.778 218.055C125.778 219.57 123.65 220.799 121.025 220.799C118.4 220.799 116.272 219.57 116.272 218.055C116.272 216.539 118.4 215.311 121.025 215.311Z" fill="#F62E76"/>
</g>
</g>
<path d="M329.456 192.945L300.693 176.703L329.456 159.785L357.879 176.703L329.456 192.945Z" fill="#C8C8C8"/>
<g filter="url(#filter14_f_22931_71616)">
<ellipse cx="328.002" cy="177.325" rx="17.4951" ry="2.48579" fill="black" fill-opacity="0.3"/>
</g>
<path d="M329.317 192.866L329.317 265.867L300.877 249.102L300.877 176.6L329.317 192.866Z" fill="#868686"/>
<path d="M329.261 192.635L329.261 265.842L357.937 249.293L357.937 176.634L329.261 192.635Z" fill="#494949"/>
<path d="M329.151 285.028L329.151 265.707L300.887 249.26L329.151 285.028Z" fill="#2A292D"/>
<path d="M329.206 285.028L329.206 265.707L357.938 249.26L329.206 285.028Z" fill="#363636"/>
<path d="M329.384 285.215L322.302 276.452L336.466 276.452L329.384 285.215Z" fill="#D9D9D9"/>
<g filter="url(#filter15_di_22931_71616)">
<path d="M311.105 149.582C311.105 141.227 317.879 134.453 326.235 134.453H331.768C340.124 134.453 346.897 141.227 346.897 149.582V162.77C346.897 164.442 345.543 165.796 343.872 165.796H314.131C312.46 165.796 311.105 164.442 311.105 162.77V149.582Z" fill="white"/>
<path d="M354.954 108.501C354.954 122.834 343.334 134.454 329.001 134.454C314.668 134.454 303.049 122.834 303.049 108.501C303.049 94.1679 314.668 82.5486 329.001 82.5486C343.334 82.5486 354.954 94.1679 354.954 108.501Z" fill="white"/>
<path d="M319.804 155.303H325.56V178.325H319.804V155.303Z" fill="white"/>
<path d="M332.202 157.59H337.957V178.325H332.202V157.59Z" fill="white"/>
<g filter="url(#filter16_ii_22931_71616)">
<path d="M311.105 149.582C311.105 141.227 317.879 134.453 326.235 134.453H331.768C340.124 134.453 346.897 141.227 346.897 149.582V162.77C346.897 164.442 345.543 165.796 343.872 165.796H314.131C312.46 165.796 311.105 164.442 311.105 162.77V149.582Z" fill="url(#paint4_linear_22931_71616)"/>
<path d="M354.954 108.501C354.954 122.834 343.334 134.454 329.001 134.454C314.668 134.454 303.049 122.834 303.049 108.501C303.049 94.1679 314.668 82.5486 329.001 82.5486C343.334 82.5486 354.954 94.1679 354.954 108.501Z" fill="url(#paint5_linear_22931_71616)"/>
<path d="M319.804 155.303H325.56V178.325H319.804V155.303Z" fill="url(#paint6_linear_22931_71616)"/>
<path d="M332.202 157.59H337.957V178.325H332.202V157.59Z" fill="url(#paint7_linear_22931_71616)"/>
</g>
</g>
<defs>
<filter id="filter0_f_22931_71616" x="286.553" y="266.925" width="83.2207" height="36.2985" filterUnits="userSpaceOnUse" color-interpolation-filters="sRGB">
<feFlood flood-opacity="0" result="BackgroundImageFix"/>
<feBlend mode="normal" in="SourceGraphic" in2="BackgroundImageFix" result="shape"/>
<feGaussianBlur stdDeviation="6.5" result="effect1_foregroundBlur_22931_71616"/>
</filter>
<filter id="filter1_f_22931_71616" x="297.668" y="269.589" width="60.9902" height="30.9716" filterUnits="userSpaceOnUse" color-interpolation-filters="sRGB">
<feFlood flood-opacity="0" result="BackgroundImageFix"/>
<feBlend mode="normal" in="SourceGraphic" in2="BackgroundImageFix" result="shape"/>
<feGaussianBlur stdDeviation="6.5" result="effect1_foregroundBlur_22931_71616"/>
</filter>
<filter id="filter2_di_22931_71616" x="255.048" y="39.8008" width="142.379" height="128.548" filterUnits="userSpaceOnUse" color-interpolation-filters="sRGB">
<feFlood flood-opacity="0" result="BackgroundImageFix"/>
<feColorMatrix in="SourceAlpha" type="matrix" values="0 0 0 0 0 0 0 0 0 0 0 0 0 0 0 0 0 0 127 0" result="hardAlpha"/>
<feOffset dy="-1"/>
<feGaussianBlur stdDeviation="5"/>
<feComposite in2="hardAlpha" operator="out"/>
<feColorMatrix type="matrix" values="0 0 0 0 0.241213 0 0 0 0 0.0293206 0 0 0 0 0.735628 0 0 0 0.81 0"/>
<feBlend mode="normal" in2="BackgroundImageFix" result="effect1_dropShadow_22931_71616"/>
<feBlend mode="normal" in="SourceGraphic" in2="effect1_dropShadow_22931_71616" result="shape"/>
<feColorMatrix in="SourceAlpha" type="matrix" values="0 0 0 0 0 0 0 0 0 0 0 0 0 0 0 0 0 0 127 0" result="hardAlpha"/>
<feOffset dy="4"/>
<feGaussianBlur stdDeviation="2"/>
<feComposite in2="hardAlpha" operator="arithmetic" k2="-1" k3="1"/>
<feColorMatrix type="matrix" values="0 0 0 0 0.337054 0 0 0 0 0.164266 0 0 0 0 0.961748 0 0 0 0.52 0"/>
<feBlend mode="normal" in2="shape" result="effect2_innerShadow_22931_71616"/>
</filter>
<filter id="filter3_d_22931_71616" x="223.359" y="27.9967" width="205.524" height="179.242" filterUnits="userSpaceOnUse" color-interpolation-filters="sRGB">
<feFlood flood-opacity="0" result="BackgroundImageFix"/>
<feColorMatrix in="SourceAlpha" type="matrix" values="0 0 0 0 0 0 0 0 0 0 0 0 0 0 0 0 0 0 127 0" result="hardAlpha"/>
<feOffset dy="4.94137"/>
<feGaussianBlur stdDeviation="29.7059"/>
<feComposite in2="hardAlpha" operator="out"/>
<feColorMatrix type="matrix" values="0 0 0 0 0.610758 0 0 0 0 0.563693 0 0 0 0 0.554812 0 0 0 1 0"/>
<feBlend mode="normal" in2="BackgroundImageFix" result="effect1_dropShadow_22931_71616"/>
<feBlend mode="normal" in="SourceGraphic" in2="effect1_dropShadow_22931_71616" result="shape"/>
</filter>
<filter id="filter4_ddi_22931_71616" x="275.274" y="51.6638" width="101.691" height="67.1644" filterUnits="userSpaceOnUse" color-interpolation-filters="sRGB">
<feFlood flood-opacity="0" result="BackgroundImageFix"/>
<feColorMatrix in="SourceAlpha" type="matrix" values="0 0 0 0 0 0 0 0 0 0 0 0 0 0 0 0 0 0 127 0" result="hardAlpha"/>
<feOffset dy="-1"/>
<feGaussianBlur stdDeviation="5"/>
<feComposite in2="hardAlpha" operator="out"/>
<feColorMatrix type="matrix" values="0 0 0 0 0.563191 0 0 0 0 0.548128 0 0 0 0 1 0 0 0 0.81 0"/>
<feBlend mode="normal" in2="BackgroundImageFix" result="effect1_dropShadow_22931_71616"/>
<feColorMatrix in="SourceAlpha" type="matrix" values="0 0 0 0 0 0 0 0 0 0 0 0 0 0 0 0 0 0 127 0" result="hardAlpha"/>
<feOffset dy="4"/>
<feGaussianBlur stdDeviation="2"/>
<feComposite in2="hardAlpha" operator="out"/>
<feColorMatrix type="matrix" values="0 0 0 0 0 0 0 0 0 0 0 0 0 0 0 0 0 0 0.25 0"/>
<feBlend mode="normal" in2="effect1_dropShadow_22931_71616" result="effect2_dropShadow_22931_71616"/>
<feBlend mode="normal" in="SourceGraphic" in2="effect2_dropShadow_22931_71616" result="shape"/>
<feColorMatrix in="SourceAlpha" type="matrix" values="0 0 0 0 0 0 0 0 0 0 0 0 0 0 0 0 0 0 127 0" result="hardAlpha"/>
<feOffset dy="4"/>
<feGaussianBlur stdDeviation="2"/>
<feComposite in2="hardAlpha" operator="arithmetic" k2="-1" k3="1"/>
<feColorMatrix type="matrix" values="0 0 0 0 1 0 0 0 0 1 0 0 0 0 1 0 0 0 0.52 0"/>
<feBlend mode="normal" in2="shape" result="effect3_innerShadow_22931_71616"/>
</filter>
<filter id="filter5_di_22931_71616" x="183.345" y="81.2671" width="142.379" height="128.548" filterUnits="userSpaceOnUse" color-interpolation-filters="sRGB">
<feFlood flood-opacity="0" result="BackgroundImageFix"/>
<feColorMatrix in="SourceAlpha" type="matrix" values="0 0 0 0 0 0 0 0 0 0 0 0 0 0 0 0 0 0 127 0" result="hardAlpha"/>
<feOffset dy="-1"/>
<feGaussianBlur stdDeviation="5"/>
<feComposite in2="hardAlpha" operator="out"/>
<feColorMatrix type="matrix" values="0 0 0 0 0.241213 0 0 0 0 0.0293206 0 0 0 0 0.735628 0 0 0 0.81 0"/>
<feBlend mode="normal" in2="BackgroundImageFix" result="effect1_dropShadow_22931_71616"/>
<feBlend mode="normal" in="SourceGraphic" in2="effect1_dropShadow_22931_71616" result="shape"/>
<feColorMatrix in="SourceAlpha" type="matrix" values="0 0 0 0 0 0 0 0 0 0 0 0 0 0 0 0 0 0 127 0" result="hardAlpha"/>
<feOffset dy="4"/>
<feGaussianBlur stdDeviation="2"/>
<feComposite in2="hardAlpha" operator="arithmetic" k2="-1" k3="1"/>
<feColorMatrix type="matrix" values="0 0 0 0 0.337054 0 0 0 0 0.164266 0 0 0 0 0.961748 0 0 0 0.52 0"/>
<feBlend mode="normal" in2="shape" result="effect2_innerShadow_22931_71616"/>
</filter>
<filter id="filter6_d_22931_71616" x="151.656" y="69.463" width="205.524" height="179.242" filterUnits="userSpaceOnUse" color-interpolation-filters="sRGB">
<feFlood flood-opacity="0" result="BackgroundImageFix"/>
<feColorMatrix in="SourceAlpha" type="matrix" values="0 0 0 0 0 0 0 0 0 0 0 0 0 0 0 0 0 0 127 0" result="hardAlpha"/>
<feOffset dy="4.94137"/>
<feGaussianBlur stdDeviation="29.7059"/>
<feComposite in2="hardAlpha" operator="out"/>
<feColorMatrix type="matrix" values="0 0 0 0 0.610758 0 0 0 0 0.563693 0 0 0 0 0.554812 0 0 0 1 0"/>
<feBlend mode="normal" in2="BackgroundImageFix" result="effect1_dropShadow_22931_71616"/>
<feBlend mode="normal" in="SourceGraphic" in2="effect1_dropShadow_22931_71616" result="shape"/>
</filter>
<filter id="filter7_ddi_22931_71616" x="203.404" y="94.8088" width="102.825" height="64.5751" filterUnits="userSpaceOnUse" color-interpolation-filters="sRGB">
<feFlood flood-opacity="0" result="BackgroundImageFix"/>
<feColorMatrix in="SourceAlpha" type="matrix" values="0 0 0 0 0 0 0 0 0 0 0 0 0 0 0 0 0 0 127 0" result="hardAlpha"/>
<feOffset dy="-0.616241"/>
<feGaussianBlur stdDeviation="3.08121"/>
<feComposite in2="hardAlpha" operator="out"/>
<feColorMatrix type="matrix" values="0 0 0 0 0.563191 0 0 0 0 0.548128 0 0 0 0 1 0 0 0 0.81 0"/>
<feBlend mode="normal" in2="BackgroundImageFix" result="effect1_dropShadow_22931_71616"/>
<feColorMatrix in="SourceAlpha" type="matrix" values="0 0 0 0 0 0 0 0 0 0 0 0 0 0 0 0 0 0 127 0" result="hardAlpha"/>
<feOffset dy="2.46497"/>
<feGaussianBlur stdDeviation="1.23248"/>
<feComposite in2="hardAlpha" operator="out"/>
<feColorMatrix type="matrix" values="0 0 0 0 0 0 0 0 0 0 0 0 0 0 0 0 0 0 0.25 0"/>
<feBlend mode="normal" in2="effect1_dropShadow_22931_71616" result="effect2_dropShadow_22931_71616"/>
<feBlend mode="normal" in="SourceGraphic" in2="effect2_dropShadow_22931_71616" result="shape"/>
<feColorMatrix in="SourceAlpha" type="matrix" values="0 0 0 0 0 0 0 0 0 0 0 0 0 0 0 0 0 0 127 0" result="hardAlpha"/>
<feOffset dy="2.46497"/>
<feGaussianBlur stdDeviation="1.23248"/>
<feComposite in2="hardAlpha" operator="arithmetic" k2="-1" k3="1"/>
<feColorMatrix type="matrix" values="0 0 0 0 1 0 0 0 0 1 0 0 0 0 1 0 0 0 0.52 0"/>
<feBlend mode="normal" in2="shape" result="effect3_innerShadow_22931_71616"/>
</filter>
<filter id="filter8_di_22931_71616" x="111.567" y="123.434" width="142.379" height="128.548" filterUnits="userSpaceOnUse" color-interpolation-filters="sRGB">
<feFlood flood-opacity="0" result="BackgroundImageFix"/>
<feColorMatrix in="SourceAlpha" type="matrix" values="0 0 0 0 0 0 0 0 0 0 0 0 0 0 0 0 0 0 127 0" result="hardAlpha"/>
<feOffset dy="-1"/>
<feGaussianBlur stdDeviation="5"/>
<feComposite in2="hardAlpha" operator="out"/>
<feColorMatrix type="matrix" values="0 0 0 0 0.241213 0 0 0 0 0.0293206 0 0 0 0 0.735628 0 0 0 0.81 0"/>
<feBlend mode="normal" in2="BackgroundImageFix" result="effect1_dropShadow_22931_71616"/>
<feBlend mode="normal" in="SourceGraphic" in2="effect1_dropShadow_22931_71616" result="shape"/>
<feColorMatrix in="SourceAlpha" type="matrix" values="0 0 0 0 0 0 0 0 0 0 0 0 0 0 0 0 0 0 127 0" result="hardAlpha"/>
<feOffset dy="4"/>
<feGaussianBlur stdDeviation="2"/>
<feComposite in2="hardAlpha" operator="arithmetic" k2="-1" k3="1"/>
<feColorMatrix type="matrix" values="0 0 0 0 0.337054 0 0 0 0 0.164266 0 0 0 0 0.961748 0 0 0 0.52 0"/>
<feBlend mode="normal" in2="shape" result="effect2_innerShadow_22931_71616"/>
</filter>
<filter id="filter9_d_22931_71616" x="79.8782" y="111.63" width="205.524" height="179.242" filterUnits="userSpaceOnUse" color-interpolation-filters="sRGB">
<feFlood flood-opacity="0" result="BackgroundImageFix"/>
<feColorMatrix in="SourceAlpha" type="matrix" values="0 0 0 0 0 0 0 0 0 0 0 0 0 0 0 0 0 0 127 0" result="hardAlpha"/>
<feOffset dy="4.94137"/>
<feGaussianBlur stdDeviation="29.7059"/>
<feComposite in2="hardAlpha" operator="out"/>
<feColorMatrix type="matrix" values="0 0 0 0 0.610758 0 0 0 0 0.563693 0 0 0 0 0.554812 0 0 0 1 0"/>
<feBlend mode="normal" in2="BackgroundImageFix" result="effect1_dropShadow_22931_71616"/>
<feBlend mode="normal" in="SourceGraphic" in2="effect1_dropShadow_22931_71616" result="shape"/>
</filter>
<filter id="filter10_ddi_22931_71616" x="136.612" y="138.743" width="92.8538" height="60.6151" filterUnits="userSpaceOnUse" color-interpolation-filters="sRGB">
<feFlood flood-opacity="0" result="BackgroundImageFix"/>
<feColorMatrix in="SourceAlpha" type="matrix" values="0 0 0 0 0 0 0 0 0 0 0 0 0 0 0 0 0 0 127 0" result="hardAlpha"/>
<feOffset dy="-0.828824"/>
<feGaussianBlur stdDeviation="4.14412"/>
<feComposite in2="hardAlpha" operator="out"/>
<feColorMatrix type="matrix" values="0 0 0 0 0.563191 0 0 0 0 0.548128 0 0 0 0 1 0 0 0 0.81 0"/>
<feBlend mode="normal" in2="BackgroundImageFix" result="effect1_dropShadow_22931_71616"/>
<feColorMatrix in="SourceAlpha" type="matrix" values="0 0 0 0 0 0 0 0 0 0 0 0 0 0 0 0 0 0 127 0" result="hardAlpha"/>
<feOffset dy="3.3153"/>
<feGaussianBlur stdDeviation="1.65765"/>
<feComposite in2="hardAlpha" operator="out"/>
<feColorMatrix type="matrix" values="0 0 0 0 0 0 0 0 0 0 0 0 0 0 0 0 0 0 0.25 0"/>
<feBlend mode="normal" in2="effect1_dropShadow_22931_71616" result="effect2_dropShadow_22931_71616"/>
<feBlend mode="normal" in="SourceGraphic" in2="effect2_dropShadow_22931_71616" result="shape"/>
<feColorMatrix in="SourceAlpha" type="matrix" values="0 0 0 0 0 0 0 0 0 0 0 0 0 0 0 0 0 0 127 0" result="hardAlpha"/>
<feOffset dy="3.3153"/>
<feGaussianBlur stdDeviation="1.65765"/>
<feComposite in2="hardAlpha" operator="arithmetic" k2="-1" k3="1"/>
<feColorMatrix type="matrix" values="0 0 0 0 1 0 0 0 0 1 0 0 0 0 1 0 0 0 0.52 0"/>
<feBlend mode="normal" in2="shape" result="effect3_innerShadow_22931_71616"/>
</filter>
<filter id="filter11_di_22931_71616" x="39.8643" y="164.9" width="142.379" height="128.548" filterUnits="userSpaceOnUse" color-interpolation-filters="sRGB">
<feFlood flood-opacity="0" result="BackgroundImageFix"/>
<feColorMatrix in="SourceAlpha" type="matrix" values="0 0 0 0 0 0 0 0 0 0 0 0 0 0 0 0 0 0 127 0" result="hardAlpha"/>
<feOffset dy="-1"/>
<feGaussianBlur stdDeviation="5"/>
<feComposite in2="hardAlpha" operator="out"/>
<feColorMatrix type="matrix" values="0 0 0 0 0.241213 0 0 0 0 0.0293206 0 0 0 0 0.735628 0 0 0 0.81 0"/>
<feBlend mode="normal" in2="BackgroundImageFix" result="effect1_dropShadow_22931_71616"/>
<feBlend mode="normal" in="SourceGraphic" in2="effect1_dropShadow_22931_71616" result="shape"/>
<feColorMatrix in="SourceAlpha" type="matrix" values="0 0 0 0 0 0 0 0 0 0 0 0 0 0 0 0 0 0 127 0" result="hardAlpha"/>
<feOffset dy="4"/>
<feGaussianBlur stdDeviation="2"/>
<feComposite in2="hardAlpha" operator="arithmetic" k2="-1" k3="1"/>
<feColorMatrix type="matrix" values="0 0 0 0 0.337054 0 0 0 0 0.164266 0 0 0 0 0.961748 0 0 0 0.52 0"/>
<feBlend mode="normal" in2="shape" result="effect2_innerShadow_22931_71616"/>
</filter>
<filter id="filter12_d_22931_71616" x="8.17507" y="153.096" width="205.524" height="179.242" filterUnits="userSpaceOnUse" color-interpolation-filters="sRGB">
<feFlood flood-opacity="0" result="BackgroundImageFix"/>
<feColorMatrix in="SourceAlpha" type="matrix" values="0 0 0 0 0 0 0 0 0 0 0 0 0 0 0 0 0 0 127 0" result="hardAlpha"/>
<feOffset dy="4.94137"/>
<feGaussianBlur stdDeviation="29.7059"/>
<feComposite in2="hardAlpha" operator="out"/>
<feColorMatrix type="matrix" values="0 0 0 0 0.610758 0 0 0 0 0.563693 0 0 0 0 0.554812 0 0 0 1 0"/>
<feBlend mode="normal" in2="BackgroundImageFix" result="effect1_dropShadow_22931_71616"/>
<feBlend mode="normal" in="SourceGraphic" in2="effect1_dropShadow_22931_71616" result="shape"/>
</filter>
<filter id="filter13_ddi_22931_71616" x="57.7977" y="177.219" width="103.213" height="66.596" filterUnits="userSpaceOnUse" color-interpolation-filters="sRGB">
<feFlood flood-opacity="0" result="BackgroundImageFix"/>
<feColorMatrix in="SourceAlpha" type="matrix" values="0 0 0 0 0 0 0 0 0 0 0 0 0 0 0 0 0 0 127 0" result="hardAlpha"/>
<feOffset dy="-0.828824"/>
<feGaussianBlur stdDeviation="4.14412"/>
<feComposite in2="hardAlpha" operator="out"/>
<feColorMatrix type="matrix" values="0 0 0 0 0.563191 0 0 0 0 0.548128 0 0 0 0 1 0 0 0 0.81 0"/>
<feBlend mode="normal" in2="BackgroundImageFix" result="effect1_dropShadow_22931_71616"/>
<feColorMatrix in="SourceAlpha" type="matrix" values="0 0 0 0 0 0 0 0 0 0 0 0 0 0 0 0 0 0 127 0" result="hardAlpha"/>
<feOffset dy="3.3153"/>
<feGaussianBlur stdDeviation="1.65765"/>
<feComposite in2="hardAlpha" operator="out"/>
<feColorMatrix type="matrix" values="0 0 0 0 0 0 0 0 0 0 0 0 0 0 0 0 0 0 0.25 0"/>
<feBlend mode="normal" in2="effect1_dropShadow_22931_71616" result="effect2_dropShadow_22931_71616"/>
<feBlend mode="normal" in="SourceGraphic" in2="effect2_dropShadow_22931_71616" result="shape"/>
<feColorMatrix in="SourceAlpha" type="matrix" values="0 0 0 0 0 0 0 0 0 0 0 0 0 0 0 0 0 0 127 0" result="hardAlpha"/>
<feOffset dy="3.3153"/>
<feGaussianBlur stdDeviation="1.65765"/>
<feComposite in2="hardAlpha" operator="arithmetic" k2="-1" k3="1"/>
<feColorMatrix type="matrix" values="0 0 0 0 1 0 0 0 0 1 0 0 0 0 1 0 0 0 0.52 0"/>
<feBlend mode="normal" in2="shape" result="effect3_innerShadow_22931_71616"/>
</filter>
<filter id="filter14_f_22931_71616" x="301.507" y="165.84" width="52.9902" height="22.9716" filterUnits="userSpaceOnUse" color-interpolation-filters="sRGB">
<feFlood flood-opacity="0" result="BackgroundImageFix"/>
<feBlend mode="normal" in="SourceGraphic" in2="BackgroundImageFix" result="shape"/>
<feGaussianBlur stdDeviation="4.5" result="effect1_foregroundBlur_22931_71616"/>
</filter>
<filter id="filter15_di_22931_71616" x="293.049" y="71.5486" width="71.9062" height="118.064" filterUnits="userSpaceOnUse" color-interpolation-filters="sRGB">
<feFlood flood-opacity="0" result="BackgroundImageFix"/>
<feColorMatrix in="SourceAlpha" type="matrix" values="0 0 0 0 0 0 0 0 0 0 0 0 0 0 0 0 0 0 127 0" result="hardAlpha"/>
<feOffset dy="-1"/>
<feGaussianBlur stdDeviation="5"/>
<feComposite in2="hardAlpha" operator="out"/>
<feColorMatrix type="matrix" values="0 0 0 0 0.563191 0 0 0 0 0.548128 0 0 0 0 1 0 0 0 0.81 0"/>
<feBlend mode="normal" in2="BackgroundImageFix" result="effect1_dropShadow_22931_71616"/>
<feBlend mode="normal" in="SourceGraphic" in2="effect1_dropShadow_22931_71616" result="shape"/>
<feColorMatrix in="SourceAlpha" type="matrix" values="0 0 0 0 0 0 0 0 0 0 0 0 0 0 0 0 0 0 127 0" result="hardAlpha"/>
<feOffset dy="4"/>
<feGaussianBlur stdDeviation="2"/>
<feComposite in2="hardAlpha" operator="arithmetic" k2="-1" k3="1"/>
<feColorMatrix type="matrix" values="0 0 0 0 1 0 0 0 0 1 0 0 0 0 1 0 0 0 0.52 0"/>
<feBlend mode="normal" in2="shape" result="effect2_innerShadow_22931_71616"/>
</filter>
<filter id="filter16_ii_22931_71616" x="303.049" y="77.5941" width="51.9053" height="105.686" filterUnits="userSpaceOnUse" color-interpolation-filters="sRGB">
<feFlood flood-opacity="0" result="BackgroundImageFix"/>
<feBlend mode="normal" in="SourceGraphic" in2="BackgroundImageFix" result="shape"/>
<feColorMatrix in="SourceAlpha" type="matrix" values="0 0 0 0 0 0 0 0 0 0 0 0 0 0 0 0 0 0 127 0" result="hardAlpha"/>
<feOffset dy="-4.95453"/>
<feGaussianBlur stdDeviation="2.47726"/>
<feComposite in2="hardAlpha" operator="arithmetic" k2="-1" k3="1"/>
<feColorMatrix type="matrix" values="0 0 0 0 1 0 0 0 0 1 0 0 0 0 1 0 0 0 0.5 0"/>
<feBlend mode="normal" in2="shape" result="effect1_innerShadow_22931_71616"/>
<feColorMatrix in="SourceAlpha" type="matrix" values="0 0 0 0 0 0 0 0 0 0 0 0 0 0 0 0 0 0 127 0" result="hardAlpha"/>
<feOffset dy="4.95453"/>
<feGaussianBlur stdDeviation="2.47726"/>
<feComposite in2="hardAlpha" operator="arithmetic" k2="-1" k3="1"/>
<feColorMatrix type="matrix" values="0 0 0 0 0.5925 0 0 0 0 0.5925 0 0 0 0 0.5925 0 0 0 0.5 0"/>
<feBlend mode="normal" in2="effect1_innerShadow_22931_71616" result="effect2_innerShadow_22931_71616"/>
</filter>
<linearGradient id="paint0_linear_22931_71616" x1="326.175" y1="50.8008" x2="326.175" y2="121.691" gradientUnits="userSpaceOnUse">
<stop stop-color="#4883F2"/>
<stop offset="1" stop-color="#3D547F"/>
</linearGradient>
<linearGradient id="paint1_linear_22931_71616" x1="254.472" y1="92.2672" x2="254.472" y2="163.158" gradientUnits="userSpaceOnUse">
<stop stop-color="#4883F2"/>
<stop offset="1" stop-color="#3D547F"/>
</linearGradient>
<linearGradient id="paint2_linear_22931_71616" x1="182.695" y1="134.434" x2="182.695" y2="205.325" gradientUnits="userSpaceOnUse">
<stop stop-color="#4883F2"/>
<stop offset="1" stop-color="#3D547F"/>
</linearGradient>
<linearGradient id="paint3_linear_22931_71616" x1="110.991" y1="175.9" x2="110.991" y2="246.791" gradientUnits="userSpaceOnUse">
<stop stop-color="#4883F2"/>
<stop offset="1" stop-color="#3D547F"/>
</linearGradient>
<linearGradient id="paint4_linear_22931_71616" x1="329.001" y1="82.5486" x2="329.001" y2="180.613" gradientUnits="userSpaceOnUse">
<stop stop-color="#A2FCEE"/>
<stop offset="1" stop-color="white"/>
</linearGradient>
<linearGradient id="paint5_linear_22931_71616" x1="329.001" y1="82.5486" x2="329.001" y2="180.613" gradientUnits="userSpaceOnUse">
<stop stop-color="#A2FCEE"/>
<stop offset="1" stop-color="white"/>
</linearGradient>
<linearGradient id="paint6_linear_22931_71616" x1="329.001" y1="82.5486" x2="329.001" y2="180.613" gradientUnits="userSpaceOnUse">
<stop stop-color="#A2FCEE"/>
<stop offset="1" stop-color="white"/>
</linearGradient>
<linearGradient id="paint7_linear_22931_71616" x1="329.001" y1="82.5486" x2="329.001" y2="180.613" gradientUnits="userSpaceOnUse">
<stop stop-color="#A2FCEE"/>
<stop offset="1" stop-color="white"/>
</linearGradient>
<clipPath id="clip0_22931_71616">
<rect width="47.1644" height="47.1644" fill="white" transform="matrix(0.866025 -0.5 0.866025 0.5 285.274 86.246)"/>
</clipPath>
<clipPath id="clip1_22931_71616">
<rect width="52.2502" height="52.2502" fill="white" transform="matrix(0.866025 -0.5 0.866025 0.5 209.566 127.713)"/>
</clipPath>
<clipPath id="clip2_22931_71616">
<rect width="44.0386" height="44.0386" fill="white" transform="matrix(0.866025 -0.5 0.866025 0.5 144.9 169.879)"/>
</clipPath>
</defs>
</svg>
