<svg width="70" height="51" viewBox="0 0 70 51" fill="none" xmlns="http://www.w3.org/2000/svg">
<path d="M68.4823 8.8837C67.6852 5.8895 65.9377 3.35517 62.9435 2.55808C57.5172 1.10697 35.2498 0.974121 35.2498 0.974121C35.2498 0.974121 12.9824 1.10697 7.55606 2.55808C4.56186 3.35517 2.82462 5.8895 2.01731 8.8837C0.566197 14.31 0.504883 25.4999 0.504883 25.4999C0.504883 25.4999 0.566197 36.6898 2.01731 42.1162C2.8144 45.1104 4.56186 47.6447 7.55606 48.4418C12.9824 49.8929 35.2498 50.0258 35.2498 50.0258C35.2498 50.0258 57.5172 49.8929 62.9435 48.4418C65.9377 47.6447 67.6852 45.1104 68.4823 42.1162C69.9334 36.6898 69.9947 25.4999 69.9947 25.4999C69.9947 25.4999 69.9334 14.31 68.4823 8.8837Z" fill="#FF0000"/>
<path d="M44.447 25.4999L26.0526 15.2809V35.719" fill="white"/>
</svg>
