<svg width="266" height="69" viewBox="0 0 266 69" fill="none" xmlns="http://www.w3.org/2000/svg">
<g clip-path="url(#clip0_21182_25408)">
<path d="M85.5631 31.9531C82.7628 31.9531 80.8736 34.0885 80.8736 36.7832C80.8736 39.4779 82.7984 41.6482 85.5287 41.6482C87.2435 41.6482 88.6083 41.0533 89.6582 40.0034L91.8285 43.1536C90.4987 44.6241 88.0834 45.6739 85.4231 45.6739C80.4537 45.6739 76.6035 41.6838 76.6035 36.8188C76.6035 31.9187 80.4537 27.9292 85.3537 27.9292C88.2234 27.9292 90.4987 28.9091 91.9679 30.4495L89.5182 33.4942C88.4683 32.4781 87.2085 31.9531 85.5631 31.9531Z" fill="black"/>
<path d="M95.0449 21.103H99.315V45.1826H95.0449V21.103Z" fill="black"/>
<path d="M103.203 36.8178C103.203 31.9178 106.843 27.9282 111.673 27.9282C116.468 27.9282 120.107 31.6378 120.107 36.4678C120.107 36.9928 120.072 37.5877 120.002 37.8677H107.578C107.998 40.2124 109.783 41.8928 112.373 41.8928C114.052 41.8928 115.488 41.1579 116.468 40.143L118.673 43.0477C117.413 44.5175 115.032 45.6724 112.198 45.6724C106.983 45.6724 103.203 41.6828 103.203 36.8178ZM107.648 35.173H115.733C115.243 32.7927 113.738 31.5678 111.743 31.5678C109.607 31.5678 108.138 33.0376 107.648 35.173Z" fill="black"/>
<path d="M138.726 28.4182L132.671 45.1831H127.141L121.051 28.4182H125.741L130.01 41.3679L134.35 28.4182H138.726Z" fill="black"/>
<path d="M139.914 36.8183C139.914 31.9182 143.554 27.9287 148.384 27.9287C153.179 27.9287 156.818 31.6383 156.818 36.4683C156.818 36.9932 156.783 37.5882 156.713 37.8681H144.289C144.709 40.2129 146.494 41.8933 149.084 41.8933C150.763 41.8933 152.199 41.1583 153.179 40.1435L155.383 43.0481C154.124 44.518 151.743 45.6728 148.909 45.6728C143.694 45.6728 139.914 41.6833 139.914 36.8183ZM144.359 35.1734H152.444C151.954 32.7931 150.449 31.5683 148.454 31.5683C146.319 31.5683 144.849 33.0381 144.359 35.1734ZM164.762 45.1829H160.492V28.418H164.762V30.2378C165.707 28.838 167.107 27.9275 168.856 27.9275C169.977 27.9275 170.887 28.2425 171.552 28.7674L169.766 32.8275C169.207 32.3726 168.367 32.0926 167.561 32.0926C165.846 32.0926 164.761 33.5274 164.761 35.8028L164.762 45.1829ZM190.064 31.9532C187.264 31.9532 185.374 34.0886 185.374 36.7833C185.374 39.4779 187.299 41.6483 190.029 41.6483C191.744 41.6483 193.109 41.0534 194.159 40.0035L196.329 43.1537C194.999 44.6241 192.584 45.674 189.924 45.674C184.954 45.674 181.104 41.6839 181.104 36.8188C181.104 31.9188 184.954 27.9293 189.854 27.9293C192.724 27.9293 194.999 28.9092 196.469 30.4496L194.018 33.4942C192.969 32.4782 191.709 31.9532 190.064 31.9532Z" fill="black"/>
<path d="M199.541 21.103H203.811V45.1826H199.541V21.103Z" fill="black"/>
<path d="M207.701 36.818C207.701 31.918 211.551 27.9284 216.416 27.9284C221.281 27.9284 225.166 31.9186 225.166 36.818C225.166 41.683 221.281 45.6732 216.416 45.6732C211.552 45.6726 207.701 41.683 207.701 36.818ZM220.861 36.783C220.861 34.0883 219.006 31.953 216.451 31.953C213.861 31.953 211.971 34.0883 211.971 36.783C211.971 39.4777 213.861 41.648 216.451 41.648C219.006 41.648 220.861 39.4777 220.861 36.783ZM233.074 37.4829C233.074 39.9326 234.509 41.5781 236.644 41.5781C238.779 41.5781 240.214 39.9332 240.214 37.4829V28.4184H244.484V37.7979C244.484 42.4879 241.369 45.6026 236.644 45.6026C231.919 45.6026 228.804 42.4879 228.804 37.7979V28.4184H233.074V37.4829ZM265.621 21.103V45.1826H261.316V43.3628C260.091 44.7977 258.375 45.6732 256.206 45.6732C251.761 45.6732 248.156 42.033 248.156 36.818C248.156 31.743 251.551 27.9284 256.206 27.9284C258.411 27.9284 260.125 28.7333 261.316 30.0982V21.103H265.621ZM261.316 36.783C261.316 34.0883 259.46 31.953 256.906 31.953C254.315 31.953 252.425 34.0883 252.425 36.783C252.425 39.4777 254.315 41.648 256.906 41.648C259.46 41.648 261.316 39.4777 261.316 36.783Z" fill="black"/>
<path d="M59.5755 17.281V51.5261L53.2276 43.337L49.6918 34.4047H49.6895L53.0479 25.3461L59.5755 17.281Z" fill="#AB2B4A"/>
<path d="M0.257812 17.281V51.5261L5.86903 43.5855L10.1415 34.4047H10.1439L5.80023 25.6949L0.257812 17.281Z" fill="#E87A68"/>
<path d="M49.6845 34.4042L30.9913 35.5905L10.1426 34.4042L18.8429 17.2805L29.9147 0.15918L41.9533 18.9574L49.6845 34.4042Z" fill="#D74D4E"/>
<path d="M59.5699 17.2805L49.6838 34.4042L29.9141 0.15918L59.5699 17.2805Z" fill="#BD3246"/>
<path d="M29.916 0.15918L10.1439 34.4042L0.257812 17.2805L29.916 0.15918Z" fill="#F19175"/>
<path d="M49.6845 34.4043L42.9279 49.1904L29.9147 68.6494L16.5231 48.5373L10.1426 34.4043H49.6845Z" fill="#CF3942"/>
<path d="M29.916 68.6494L0.257812 51.5256L10.1439 34.4043L29.916 68.6494Z" fill="#E0625B"/>
<path d="M29.9141 68.6494L59.5723 51.5256L49.6862 34.4043L29.9141 68.6494Z" fill="#9A244F"/>
</g>
<defs>
<clipPath id="clip0_21182_25408">
<rect width="265.732" height="68.8057" fill="white"/>
</clipPath>
</defs>
</svg>
