<svg width="58" height="54" viewBox="0 0 58 54" fill="none" xmlns="http://www.w3.org/2000/svg">
    <path d="M19.1077 0.203145H35.9745L18.4651 52.0817C18.2851 52.6147 17.9425 53.078 17.4855 53.4061C17.0285 53.7343 16.48 53.9109 15.9174 53.911H2.79082C2.36452 53.911 1.94434 53.8096 1.56503 53.615C1.18572 53.4204 0.858196 53.1384 0.609542 52.7921C0.360888 52.4458 0.198255 52.0453 0.135099 51.6237C0.0719427 51.2021 0.110078 50.7716 0.246349 50.3676L16.5593 2.03247C16.7392 1.49915 17.0819 1.03571 17.539 0.707421C17.9962 0.379128 18.5448 0.203176 19.1077 0.203145Z" fill="url(#paint0_linear_7920_9167)"/>
    <path d="M43.6176 34.9998H16.8709C16.6222 34.9995 16.3793 35.0741 16.1736 35.2139C15.968 35.3537 15.8092 35.5522 15.7179 35.7835C15.6267 36.0148 15.6073 36.2683 15.6621 36.5108C15.717 36.7534 15.8436 36.9737 16.0255 37.1433L33.2124 53.1848C33.7128 53.6516 34.3716 53.9111 35.0559 53.911H50.201L43.6176 34.9998Z" fill="#0078D4"/>
    <path d="M19.1077 0.203145C18.5387 0.200961 17.9839 0.380763 17.5244 0.716287C17.0649 1.05181 16.7247 1.52548 16.5535 2.06809L0.26643 50.3236C0.120991 50.729 0.0753303 51.1634 0.133312 51.5902C0.191293 52.017 0.35121 52.4235 0.599535 52.7754C0.84786 53.1273 1.17729 53.4142 1.55995 53.6119C1.94261 53.8096 2.36725 53.9121 2.79794 53.911H16.2633C16.7648 53.8214 17.2335 53.6003 17.6216 53.2702C18.0097 52.9402 18.3032 52.513 18.4722 52.0324L21.7202 42.4602L33.3218 53.2813C33.808 53.6835 34.4179 53.9058 35.0488 53.911H50.1375L43.5198 34.9998L24.2283 35.0043L36.0354 0.203144L19.1077 0.203145Z" fill="url(#paint1_linear_7920_9167)"/>
    <path d="M40.6508 2.02988C40.4712 1.49743 40.129 1.03475 39.6725 0.707035C39.2161 0.379319 38.6683 0.203079 38.1063 0.203144H19.3085C19.8704 0.203176 20.4181 0.379454 20.8746 0.707156C21.3311 1.03486 21.6732 1.49748 21.853 2.02988L38.1666 50.367C38.3029 50.771 38.3412 51.2017 38.2781 51.6234C38.215 52.0451 38.0524 52.4457 37.8037 52.7921C37.5551 53.1385 37.2275 53.4207 36.8481 53.6154C36.4688 53.8101 36.0485 53.9116 35.6221 53.9116H54.4206C54.8469 53.9115 55.2671 53.8099 55.6464 53.6152C56.0257 53.4204 56.3532 53.1382 56.6017 52.7918C56.8503 52.4455 57.0129 52.0449 57.0759 51.6232C57.139 51.2016 57.1008 50.771 56.9644 50.367L40.6508 2.02988Z" fill="url(#paint2_linear_7920_9167)"/>
    <defs>
        <linearGradient id="paint0_linear_7920_9167" x1="40.0711" y1="4.18372" x2="28.3185" y2="59.3579" gradientUnits="userSpaceOnUse">
            <stop stop-color="#114A8B"/>
            <stop offset="1" stop-color="#0669BC"/>
        </linearGradient>
        <linearGradient id="paint1_linear_7920_9167" x1="34.9472" y1="28.2995" x2="30.4722" y2="30.0212" gradientUnits="userSpaceOnUse">
            <stop stop-opacity="0.3"/>
            <stop offset="0.071" stop-opacity="0.2"/>
            <stop offset="0.321" stop-opacity="0.1"/>
            <stop offset="0.623" stop-opacity="0.05"/>
            <stop offset="1" stop-opacity="0"/>
        </linearGradient>
        <linearGradient id="paint2_linear_7920_9167" x1="28.4984" y1="2.67375" x2="47.7264" y2="53.9006" gradientUnits="userSpaceOnUse">
            <stop stop-color="#3CCBF4"/>
            <stop offset="1" stop-color="#2892DF"/>
        </linearGradient>
    </defs>
</svg>
