<svg width="25" height="24" viewBox="0 0 25 24" fill="none" xmlns="http://www.w3.org/2000/svg">
<path d="M11.0903 13.4103C11.5003 13.8003 11.5003 14.4403 11.0903 14.8303C10.7003 15.2203 10.0603 15.2203 9.67031 14.8303C7.72031 12.8803 7.72031 9.71031 9.67031 7.76031L13.2103 4.22031C15.1603 2.27031 18.3303 2.27031 20.2803 4.22031C22.2303 6.17031 22.2303 9.34031 20.2803 11.2903L18.7903 12.7803C18.8003 11.9603 18.6703 11.1403 18.3903 10.3603L18.8603 9.88031C20.0403 8.71031 20.0403 6.81031 18.8603 5.64031C17.6903 4.46031 15.7903 4.46031 14.6203 5.64031L11.0903 9.17031C9.91031 10.3403 9.91031 12.2403 11.0903 13.4103ZM13.9103 9.17031C14.3003 8.78031 14.9403 8.78031 15.3303 9.17031C17.2803 11.1203 17.2803 14.2903 15.3303 16.2403L11.7903 19.7803C9.84031 21.7303 6.67031 21.7303 4.72031 19.7803C2.77031 17.8303 2.77031 14.6603 4.72031 12.7103L6.21031 11.2203C6.20031 12.0403 6.33031 12.8603 6.61031 13.6503L6.14031 14.1203C4.96031 15.2903 4.96031 17.1903 6.14031 18.3603C7.31031 19.5403 9.21031 19.5403 10.3803 18.3603L13.9103 14.8303C15.0903 13.6603 15.0903 11.7603 13.9103 10.5903C13.5003 10.2003 13.5003 9.56031 13.9103 9.17031Z" fill="#9CA1DE"/>
</svg>
