<svg width="2600" height="446" viewBox="0 0 2600 446" fill="none" xmlns="http://www.w3.org/2000/svg">
<path d="M989.057 7.52838H843.431V437.583H989.057V7.52838Z" fill="#CF163D"/>
<path d="M666.915 13.4696L371.317 193.998C367.112 196.565 361.821 196.565 357.616 193.998L62.0183 13.4696C55.6574 9.5856 48.3474 7.52838 40.8948 7.52838H40.53C18.1447 7.52838 0 25.6731 0 48.0583V437.095H145.533V251.923C145.533 240.554 157.983 233.576 167.683 239.509L333.335 340.85C349.664 350.84 370.165 351.029 386.675 341.347L561.487 238.815C571.188 233.123 583.406 240.12 583.406 251.369V437.098H728.939V48.0583C728.939 25.6731 710.794 7.52838 688.409 7.52838H688.044C680.591 7.52838 673.276 9.58286 666.915 13.4696Z" fill="#CF163D"/>
<path d="M1715.22 7.52838H1567.54V203.274C1567.54 214.257 1555.84 221.284 1546.14 216.119L1163.39 12.2874C1157.53 9.16319 1150.99 7.53112 1144.34 7.53112H1144.08C1121.7 7.53112 1103.55 25.6758 1103.55 48.0611V437.123H1250.06V241.599C1250.06 230.627 1261.74 223.6 1271.43 228.74L1655.69 432.542C1661.54 435.644 1668.06 437.265 1674.68 437.265C1697.07 437.265 1715.21 419.12 1715.21 396.735L1715.22 7.52838Z" fill="#CF163D"/>
<path d="M1829.71 437.586V7.52838H1896.73V437.583L1829.71 437.586Z" fill="#CF163D"/>
<path d="M2291.09 445.256C2110.83 445.256 1982.96 359.747 1982.96 222.632C1982.96 86.2798 2111.6 0 2291.09 0C2470.58 0 2600 85.509 2600 222.632C2600 359.756 2473.66 445.256 2291.09 445.256ZM2291.09 57.0042C2157.05 57.0042 2053.82 115.547 2053.82 222.632C2053.82 330.477 2157.05 388.252 2291.09 388.252C2425.13 388.252 2529.13 330.477 2529.13 222.632C2529.13 115.547 2425.13 57.0042 2291.09 57.0042Z" fill="#CF163D"/>
</svg>