<svg width="218" height="184" viewBox="0 0 218 184" fill="none" xmlns="http://www.w3.org/2000/svg">
<g opacity="0.7">
<path fill-rule="evenodd" clip-rule="evenodd" d="M23.6971 147.592C33.4418 157.094 45.2141 161.846 59.0141 161.846H91.1807C89.8884 159.354 89.1582 156.523 89.1582 153.522C89.1582 149.896 90.2242 146.519 92.06 143.688H59.0141C50.2378 143.688 42.7628 140.661 36.5892 134.609C30.355 128.254 27.2379 120.688 27.2379 111.912C27.2379 103.135 30.355 95.6603 36.5892 89.4866C42.7628 83.2525 50.2378 80.1354 59.0141 80.1354H63.5535C63.5535 67.6065 67.9719 56.8934 76.8087 47.996C85.7061 39.1592 96.4192 34.7408 108.948 34.7408C121.538 34.7408 132.251 39.1592 141.087 47.996C149.924 56.8934 154.343 67.6065 154.343 80.1354V98.2932H167.961C174.316 98.2932 179.673 100.502 184.031 104.921C188.449 109.279 190.658 114.635 190.658 120.99C190.658 127.346 188.449 132.702 184.031 137.06C179.673 141.479 174.316 143.688 167.961 143.688H122.463C124.299 146.519 125.365 149.896 125.365 153.522C125.365 156.523 124.635 159.354 123.343 161.846H167.961C179.34 161.846 188.994 157.881 196.923 149.952C204.852 142.023 208.816 132.369 208.816 120.99C208.816 110.58 205.366 101.501 198.466 93.7537C191.627 85.8854 182.971 81.3459 172.5 80.1354C172.5 62.4012 166.327 47.3908 153.979 35.104C141.693 22.7567 126.682 16.583 108.948 16.583C94.6034 16.583 81.7416 20.9106 70.3627 29.5658C59.0443 38.1605 51.4786 49.4184 47.6654 63.3394C36.1655 65.8815 26.8445 71.7828 19.7024 81.0433C12.6209 90.3038 9.08008 100.835 9.08008 112.638C9.08008 126.377 13.9524 138.029 23.6971 147.592Z" fill="url(#paint0_linear_10273_24959)"/>
</g>
<path d="M104.464 107.968C106.229 106.203 109.091 106.203 110.856 107.968L118.112 115.224C119.878 116.99 119.878 119.852 118.112 121.617L110.856 128.873C109.091 130.638 106.229 130.638 104.464 128.873L97.2079 121.617C95.4427 119.852 95.4427 116.99 97.2079 115.224L104.464 107.968Z" fill="#A950FF"/>
<path d="M137.884 107.91C139.618 106.177 142.429 106.177 144.162 107.91L151.533 115.281C153.266 117.015 153.266 119.825 151.533 121.559L144.162 128.929C142.429 130.663 139.618 130.663 137.884 128.929L130.514 121.559C128.78 119.825 128.78 117.015 130.514 115.281L137.884 107.91Z" fill="#A950FF"/>
<path d="M104.521 74.5483C106.255 72.8146 109.066 72.8146 110.799 74.5483L118.17 81.9187C119.903 83.6524 119.903 86.4631 118.17 88.1968L110.799 95.5672C109.066 97.3008 106.255 97.3008 104.521 95.5672L97.1507 88.1968C95.4171 86.4631 95.4171 83.6524 97.1507 81.9187L104.521 74.5483Z" fill="#E9C1FF"/>
<path d="M101.433 98.5431C103.198 100.308 103.198 103.17 101.433 104.936L94.1764 112.192C92.4112 113.957 89.5492 113.957 87.784 112.192L80.5279 104.936C78.7627 103.17 78.7627 100.308 80.5279 98.5431L87.784 91.287C89.5492 89.5218 92.4112 89.5218 94.1764 91.287L101.433 98.5431Z" fill="#CD88FF"/>
<path d="M84.8074 115.281C86.5411 117.015 86.5411 119.825 84.8074 121.559L77.437 128.929C75.7034 130.663 72.8926 130.663 71.159 128.929L63.7885 121.559C62.0549 119.825 62.0549 117.015 63.7885 115.281L71.159 107.91C72.8926 106.177 75.7034 106.177 77.437 107.91L84.8074 115.281Z" fill="#A950FF"/>
<path d="M134.794 98.5431C136.56 100.308 136.56 103.17 134.794 104.936L127.538 112.192C125.773 113.957 122.911 113.957 121.146 112.192L113.89 104.936C112.125 103.17 112.125 100.308 113.89 98.5431L121.146 91.287C122.911 89.5218 125.773 89.5218 127.538 91.287L134.794 98.5431Z" fill="#CD88FF"/>
<path d="M114.801 146.198C118.745 150.141 118.745 156.535 114.801 160.479C110.858 164.422 104.464 164.422 100.52 160.479C96.5764 156.535 96.5764 150.141 100.52 146.198C104.464 142.254 110.858 142.254 114.801 146.198Z" fill="#F62E76"/>
<defs>
<linearGradient id="paint0_linear_10273_24959" x1="39.1733" y1="43.5501" x2="154.287" y2="201.57" gradientUnits="userSpaceOnUse">
<stop offset="0.015625" stop-color="#3C2079"/>
<stop offset="1" stop-color="#4411B1"/>
</linearGradient>
</defs>
</svg>
