<svg width="371" height="232" viewBox="0 0 371 232" fill="none" xmlns="http://www.w3.org/2000/svg">
<rect x="1.03711" y="1.5" width="369" height="229" rx="7.5" fill="#161617"/>
<rect x="1.03711" y="1.5" width="369" height="229" rx="7.5" stroke="#252526"/>
<g clip-path="url(#clip0_11425_45618)">
<g filter="url(#filter0_b_11425_45618)">
<ellipse cx="90.028" cy="90.028" rx="90.028" ry="90.028" transform="matrix(1.12678 -0.277104 0.479958 0.650549 41.7583 74.0854)" fill="black" fill-opacity="0.08"/>
<path d="M283.49 77.5145C284.387 78.4783 285.245 79.4602 286.064 80.4597L285.863 80.5146C286.481 81.2694 287.076 82.0343 287.648 82.8092C288.219 83.584 288.762 84.3618 289.277 85.1421L289.484 85.0964C290.166 86.1296 290.797 87.1673 291.38 88.2084L291.168 88.2479C292.066 89.8532 292.847 91.4667 293.514 93.0852L293.73 93.0555C294.172 94.1298 294.564 95.2062 294.906 96.2838L294.688 96.307C295.213 97.9622 295.621 99.6201 295.914 101.277L296.135 101.264C296.329 102.362 296.472 103.459 296.566 104.554L296.344 104.561C296.488 106.24 296.515 107.916 296.428 109.584L296.65 109.588C296.592 110.69 296.485 111.788 296.329 112.882L296.107 112.871C295.868 114.544 295.515 116.207 295.05 117.857L295.269 117.878C294.963 118.964 294.608 120.045 294.205 121.119L293.988 121.092C293.374 122.73 292.648 124.353 291.814 125.955L292.027 125.992C291.479 127.046 290.884 128.091 290.243 129.126L290.033 129.083C289.056 130.66 287.972 132.215 286.784 133.743L286.987 133.795C286.207 134.798 285.382 135.79 284.513 136.769L284.315 136.711C282.993 138.2 281.569 139.66 280.046 141.087L280.235 141.154C279.237 142.09 278.196 143.011 277.113 143.917L276.93 143.844C275.285 145.22 273.544 146.561 271.709 147.862L271.881 147.943C270.681 148.795 269.44 149.63 268.16 150.447L267.995 150.361C266.056 151.599 264.025 152.797 261.906 153.95L262.059 154.043C260.676 154.796 259.257 155.529 257.8 156.243L257.656 156.145C255.456 157.223 253.172 158.255 250.807 159.239L250.937 159.343C249.397 159.983 247.823 160.603 246.215 161.2L246.094 161.092C243.672 161.993 241.172 162.844 238.598 163.642L238.703 163.755C237.034 164.273 235.333 164.769 233.602 165.241L233.507 165.125C232.2 165.482 230.875 165.825 229.533 166.155C228.19 166.486 226.843 166.799 225.492 167.096L225.571 167.216C223.781 167.609 221.984 167.974 220.181 168.31L220.112 168.188C217.332 168.707 214.537 169.158 211.734 169.542L211.785 169.667C209.925 169.923 208.06 170.149 206.194 170.346L206.154 170.22C203.287 170.523 200.415 170.759 197.545 170.928L197.567 171.056C195.667 171.168 193.767 171.25 191.869 171.305L191.858 171.176C188.95 171.259 186.047 171.275 183.157 171.225L183.15 171.353C181.242 171.32 179.34 171.258 177.445 171.168L177.463 171.04C174.566 170.902 171.685 170.698 168.828 170.429L168.792 170.556C166.91 170.379 165.038 170.174 163.178 169.942L163.225 169.816C160.387 169.462 157.577 169.043 154.801 168.561L154.737 168.684C152.912 168.368 151.102 168.024 149.309 167.654L149.384 167.533C146.652 166.969 143.96 166.343 141.313 165.657L141.222 165.774C139.485 165.324 137.767 164.847 136.071 164.346L136.172 164.231C133.593 163.468 131.064 162.646 128.592 161.767L128.476 161.876C126.856 161.3 125.26 160.698 123.69 160.073L123.817 159.967C121.434 159.018 119.112 158.013 116.857 156.953L116.717 157.053C115.242 156.36 113.796 155.644 112.381 154.905L112.53 154.809C110.385 153.689 108.311 152.517 106.313 151.294L106.152 151.382C104.848 150.584 103.578 149.764 102.341 148.923L102.511 148.84C100.644 147.57 98.8559 146.251 97.1527 144.886L96.9723 144.961C95.8635 144.072 94.7905 143.163 93.7553 142.234L93.9422 142.165C92.3826 140.766 90.9085 139.323 89.5258 137.837L89.3299 137.897C88.4332 136.934 87.5748 135.952 86.7564 134.952L86.9574 134.897C86.3394 134.143 85.7442 133.378 85.1725 132.603C84.6009 131.828 84.0579 131.05 83.5434 130.27L83.3356 130.316C82.6542 129.282 82.0226 128.245 81.4402 127.204L81.6518 127.164C80.7537 125.559 79.9727 123.945 79.3063 122.327L79.09 122.356C78.6477 121.282 78.2558 120.206 77.9137 119.128L78.1324 119.105C77.6069 117.45 77.199 115.792 76.9063 114.135L76.6851 114.148C76.4912 113.05 76.3477 111.953 76.2539 110.858L76.476 110.851C76.3322 109.172 76.3052 107.496 76.3925 105.828L76.1703 105.824C76.2279 104.722 76.3352 103.624 76.4914 102.53L76.713 102.541C76.9518 100.868 77.3051 99.2046 77.7703 97.5549L77.5509 97.5343C77.8573 96.4476 78.2122 95.3668 78.6147 94.2929L78.8321 94.32C79.4463 92.6815 80.1717 91.0591 81.0056 89.4567L80.7927 89.4198C81.341 88.366 81.9362 87.321 82.5775 86.2856L82.7869 86.3288C83.7637 84.7517 84.8476 83.1972 86.0359 81.6692L85.833 81.6167C86.6131 80.6136 87.4381 79.6219 88.3072 78.6427L88.5051 78.7013C89.8267 77.2122 91.2506 75.7521 92.774 74.325L92.5847 74.2576C93.5832 73.3222 94.6244 72.4009 95.7075 71.4947L95.8905 71.5676C97.5348 70.192 99.2759 68.8514 101.111 67.5497L100.939 67.4686C102.139 66.6172 103.38 65.7823 104.66 64.9652L104.825 65.0513C106.764 63.813 108.795 62.6154 110.914 61.4622L110.761 61.3687C112.144 60.6162 113.564 59.8826 115.02 59.1688L115.164 59.2667C117.364 58.1889 119.648 57.1565 122.013 56.1732L121.883 56.069C123.423 55.4289 124.997 54.8094 126.605 54.2117L126.726 54.3196C129.148 53.4192 131.648 52.5681 134.222 51.7698L134.117 51.6567C135.786 51.139 137.487 50.6434 139.218 50.1709L139.313 50.287C140.621 49.9301 141.945 49.5865 143.288 49.2564C144.63 48.9264 145.977 48.6129 147.328 48.3159L147.249 48.1959C149.039 47.8025 150.836 47.4379 152.639 47.1016L152.708 47.2237C155.488 46.7052 158.283 46.2543 161.086 45.8696L161.035 45.7447C162.895 45.4893 164.76 45.2631 166.626 45.0656L166.666 45.1918C169.533 44.8884 172.405 44.653 175.275 44.4839L175.253 44.3562C177.153 44.2443 179.053 44.1614 180.951 44.1073L180.962 44.2355C183.87 44.1525 186.773 44.1369 189.664 44.1873L189.67 44.059C191.578 44.0923 193.48 44.1542 195.375 44.2444L195.357 44.3723C198.254 44.5102 201.135 44.7142 203.992 44.9828L204.028 44.8561C205.91 45.033 207.782 45.2379 209.642 45.4703L209.595 45.5958C212.433 45.9504 215.243 46.3692 218.019 46.8507L218.083 46.7277C219.908 47.0443 221.718 47.388 223.511 47.7582L223.436 47.8791C226.168 48.4431 228.86 49.0689 231.507 49.7549L231.598 49.6378C233.335 50.0882 235.053 50.5645 236.749 51.0663L236.648 51.1805C239.227 51.9436 241.756 52.7656 244.228 53.6452L244.344 53.5359C245.964 54.1124 247.56 54.7135 249.13 55.3388L249.003 55.4445C251.386 56.3938 253.708 57.399 255.963 58.4586L256.103 58.359C257.578 59.0521 259.024 59.7684 260.439 60.5074L260.29 60.6026C262.435 61.7225 264.509 62.8948 266.507 64.1181L266.668 64.03C267.972 64.8282 269.243 65.648 270.479 66.4891L270.309 66.5721C272.176 67.8422 273.964 69.1607 275.667 70.5263L275.848 70.4513C276.957 71.3403 278.03 72.2493 279.065 73.1777L278.878 73.2472C280.437 74.646 281.912 76.0891 283.294 77.5752L283.49 77.5145Z" stroke="#9178D6" stroke-width="0.363102" stroke-linejoin="round" stroke-dasharray="7.04 4.61"/>
</g>
<g filter="url(#filter1_b_11425_45618)">
<ellipse cx="66.1262" cy="66.1262" rx="66.1262" ry="66.1262" transform="matrix(1.12678 -0.277104 0.479958 0.650549 79.1631 82.0117)" fill="black" fill-opacity="0.08"/>
<path d="M254.965 82.7424C256.279 84.0174 257.499 85.3391 258.617 86.7059L258.416 86.7607C258.866 87.3108 259.3 87.8681 259.716 88.4327C260.133 88.9973 260.528 89.5639 260.904 90.1324L261.111 90.0867C262.044 91.4992 262.849 92.9228 263.531 94.3533L263.317 94.3874C263.881 95.5712 264.361 96.7597 264.757 97.9504L264.975 97.9262C265.468 99.4057 265.832 100.889 266.071 102.37L265.85 102.382C266.047 103.602 266.16 104.821 266.189 106.037L266.412 106.035C266.448 107.537 266.358 109.035 266.145 110.522L265.923 110.511C265.749 111.73 265.491 112.941 265.153 114.143L265.372 114.164C264.956 115.644 264.417 117.11 263.759 118.556L263.544 118.523C263.006 119.704 262.39 120.872 261.695 122.023L261.905 122.066C261.053 123.48 260.083 124.87 259.001 126.23L258.799 126.177C257.918 127.285 256.961 128.374 255.932 129.44L256.126 129.503C254.865 130.808 253.495 132.081 252.019 133.315L251.836 133.242C250.638 134.244 249.369 135.221 248.032 136.169L248.205 136.25C246.574 137.408 244.842 138.523 243.013 139.592L242.855 139.502C241.375 140.367 239.831 141.201 238.225 142.001L238.37 142.099C236.419 143.071 234.377 143.995 232.246 144.865L232.118 144.76C230.403 145.46 228.631 146.125 226.804 146.753L226.917 146.863C224.709 147.622 222.42 148.326 220.052 148.972L219.957 148.856C219.005 149.116 218.039 149.366 217.061 149.606C216.084 149.847 215.102 150.075 214.118 150.292L214.197 150.412C211.75 150.95 209.284 151.415 206.807 151.809L206.748 151.685C204.697 152.011 202.639 152.288 200.576 152.517L200.618 152.643C198.056 152.927 195.487 153.137 192.921 153.276L192.9 153.148C190.787 153.262 188.676 153.327 186.57 153.344L186.574 153.472C183.971 153.493 181.378 153.441 178.803 153.318L178.821 153.19C176.71 153.089 174.611 152.941 172.529 152.745L172.494 152.872C169.93 152.632 167.391 152.32 164.887 151.94L164.944 151.816C162.898 151.506 160.876 151.15 158.881 150.749L158.808 150.87C156.359 150.378 153.951 149.818 151.594 149.194L151.687 149.077C149.768 148.568 147.882 148.016 146.034 147.421L145.926 147.533C143.665 146.806 141.461 146.015 139.323 145.163L139.45 145.057C137.714 144.365 136.022 143.633 134.379 142.861L134.239 142.96C132.234 142.019 130.302 141.019 128.451 139.963L128.607 139.872C127.109 139.017 125.665 138.126 124.278 137.198L124.109 137.282C122.425 136.156 120.825 134.977 119.319 133.747L119.5 133.673C118.288 132.683 117.135 131.66 116.048 130.604L115.857 130.67C114.543 129.395 113.323 128.073 112.204 126.707L112.406 126.652C111.956 126.102 111.522 125.544 111.105 124.98C110.689 124.415 110.293 123.849 109.918 123.28L109.71 123.326C108.778 121.913 107.972 120.49 107.29 119.059L107.505 119.025C106.941 117.841 106.461 116.653 106.065 115.462L105.846 115.486C105.354 114.007 104.99 112.524 104.75 111.042L104.972 111.03C104.774 109.81 104.662 108.591 104.632 107.376L104.41 107.378C104.374 105.875 104.464 104.378 104.677 102.891L104.898 102.902C105.073 101.683 105.33 100.471 105.669 99.269L105.449 99.2485C105.866 97.7682 106.405 96.3027 107.063 94.8569L107.278 94.8895C107.815 93.7086 108.432 92.5408 109.126 91.3891L108.916 91.3469C109.769 89.9329 110.738 88.5429 111.82 87.1822L112.022 87.2358C112.904 86.1276 113.86 85.0388 114.89 83.9722L114.696 83.9097C115.957 82.6041 117.327 81.3317 118.802 80.0977L118.985 80.1706C120.184 79.1685 121.453 78.1917 122.789 77.2431L122.617 77.1621C124.247 76.0048 125.979 74.8892 127.809 73.8203L127.967 73.9105C129.447 73.0458 130.991 72.2117 132.597 71.411L132.452 71.3138C134.402 70.3413 136.445 69.4177 138.575 68.5478L138.704 68.6526C140.418 67.9526 142.19 67.2873 144.018 66.6595L143.904 66.5492C146.113 65.7905 148.402 65.0861 150.769 64.4405L150.864 64.5566C151.817 64.2968 152.782 64.0465 153.76 63.806C154.738 63.5655 155.719 63.337 156.704 63.1204L156.625 63.0005C159.071 62.4622 161.537 61.9971 164.015 61.6034L164.074 61.7272C166.124 61.4014 168.183 61.1246 170.245 60.8958L170.203 60.7697C172.766 60.4854 175.334 60.2751 177.901 60.1368L177.921 60.2646C180.034 60.1507 182.146 60.0858 184.251 60.0688L184.248 59.9404C186.851 59.9194 189.444 59.9714 192.019 60.0944L192.001 60.2223C194.112 60.3231 196.21 60.4717 198.292 60.6671L198.328 60.5404C200.892 60.7809 203.43 61.0921 205.934 61.4719L205.878 61.5961C207.923 61.9064 209.946 62.2625 211.941 62.6634L212.014 62.5422C214.463 63.0344 216.871 63.594 219.227 64.2188L219.135 64.3354C221.054 64.8443 222.94 65.3966 224.787 65.9911L224.895 65.8789C227.157 66.6068 229.361 67.3978 231.498 68.2499L231.372 68.3555C233.108 69.0475 234.799 69.7799 236.442 70.5516L236.583 70.452C238.587 71.3935 240.52 72.3934 242.371 73.4496L242.215 73.5409C243.712 74.3953 245.157 75.2868 246.544 76.2141L246.712 76.1302C248.397 77.2565 249.996 78.4356 251.503 79.6657L251.322 79.7398C252.534 80.7298 253.686 81.7528 254.774 82.808L254.965 82.7424Z" stroke="url(#paint0_linear_11425_45618)" stroke-width="0.363102" stroke-linejoin="round" stroke-dasharray="4.96 6.07"/>
</g>
<g opacity="0.7" filter="url(#filter2_f_11425_45618)">
<rect width="124.792" height="89.48" transform="matrix(-0.999351 -0.0360302 -0.0360302 0.999351 253.477 64.9375)" fill="url(#paint1_linear_11425_45618)"/>
</g>
<g filter="url(#filter3_f_11425_45618)">
<rect width="95.306" height="72.1032" transform="matrix(-1 4.61043e-09 4.36336e-08 1 259.479 101.706)" fill="url(#paint2_linear_11425_45618)"/>
</g>
<g filter="url(#filter4_d_11425_45618)">
<path d="M242.963 90.5008C249.263 99.2932 249.263 109.236 242.963 118.028L242.552 117.93C239.534 122.141 235.062 126.086 229.132 129.509C223.203 132.932 216.37 135.514 209.078 137.256L209.248 137.494C194.019 141.131 176.797 141.131 161.569 137.494L161.739 137.256C154.446 135.514 147.613 132.932 141.684 129.509C135.755 126.086 131.282 122.141 128.265 117.93L127.854 118.028C121.553 109.236 121.553 99.2932 127.854 90.5008L128.265 90.599C131.282 86.3885 135.755 82.4436 141.684 79.0204C147.613 75.5971 154.446 73.0148 161.739 71.2727L161.569 71.0355C176.797 67.3977 194.019 67.3977 209.248 71.0355L209.078 71.2727C216.37 73.0148 223.203 75.5971 229.132 79.0204C235.062 82.4436 239.534 86.3885 242.552 90.599L242.963 90.5008Z" stroke="#E3262F" stroke-width="0.726205" stroke-linejoin="round" stroke-dasharray="28.01 28.01" shape-rendering="crispEdges"/>
</g>
<g opacity="0.4" filter="url(#filter5_f_11425_45618)">
<ellipse cx="183.182" cy="48.1612" rx="20.7935" ry="11.7745" fill="black"/>
</g>
<g filter="url(#filter6_d_11425_45618)">
<path d="M159.149 121.714C152.211 117.708 148.313 112.276 148.313 106.611C148.313 100.947 152.211 95.5142 159.149 91.5087L185.31 76.4062L211.47 91.5087C218.409 95.5142 222.307 100.947 222.307 106.611C222.307 112.276 218.409 117.708 211.47 121.714C204.532 125.719 195.122 127.97 185.31 127.97C175.498 127.97 166.087 125.719 159.149 121.714V121.714Z" fill="#0A41CF"/>
</g>
<path d="M185.666 109.495L133.862 80.2423L185.666 49.7716L236.857 80.2424L185.666 109.495Z" fill="#6400CA" stroke="url(#paint3_linear_11425_45618)" stroke-width="0.673368"/>
<path d="M185.414 109.737V142.021L133.523 111.432V80.0591L185.414 109.737Z" fill="#4A0292"/>
<path d="M185.311 109.316V141.654L237.632 111.461V80.1221L185.311 109.316Z" fill="#3C0077"/>
<path d="M180.709 79.1403C180.715 78.3974 181.743 77.8042 183.004 77.8152L188.187 77.8604C189.448 77.8715 190.465 78.4825 190.459 79.2253L190.432 82.2787C190.426 83.0215 189.398 83.6148 188.137 83.6038L182.954 83.5585C181.693 83.5475 180.676 82.9364 180.682 82.1936L180.709 79.1403Z" fill="#A950FF"/>
<path d="M192.687 72.2004C192.693 71.4709 193.702 70.8882 194.941 70.8991L200.206 70.945C201.445 70.9558 202.444 71.556 202.437 72.2855L202.41 75.387C202.404 76.1165 201.395 76.6991 200.156 76.6883L194.891 76.6424C193.652 76.6316 192.653 76.0314 192.66 75.3019L192.687 72.2004Z" fill="#A950FF"/>
<path d="M168.853 71.9926C168.86 71.2631 169.869 70.6805 171.107 70.6913L176.373 70.7372C177.611 70.748 178.61 71.3482 178.603 72.0777L178.576 75.1792C178.57 75.9087 177.561 76.4913 176.322 76.4805L171.057 76.4346C169.819 76.4238 168.82 75.8236 168.826 75.0941L168.853 71.9926Z" fill="#E9C1FF"/>
<path d="M176.271 77.7562C177.532 77.7672 178.549 78.3783 178.543 79.1211L178.516 82.1745C178.509 82.9173 177.482 83.5105 176.221 83.4995L171.037 83.4543C169.776 83.4433 168.759 82.8322 168.766 82.0894L168.792 79.036C168.799 78.2932 169.826 77.6999 171.087 77.7109L176.271 77.7562Z" fill="#CD88FF"/>
<path d="M176.25 84.7761C177.489 84.7869 178.487 85.3871 178.481 86.1166L178.454 89.2181C178.448 89.9476 177.438 90.5302 176.2 90.5194L170.935 90.4735C169.696 90.4627 168.697 89.8625 168.704 89.133L168.731 86.0315C168.737 85.302 169.746 84.7194 170.985 84.7302L176.25 84.7761Z" fill="#A950FF"/>
<path d="M188.249 70.8408C189.51 70.8518 190.527 71.4629 190.52 72.2057L190.494 75.2591C190.487 76.0019 189.46 76.5951 188.199 76.5841L183.015 76.5389C181.754 76.5279 180.737 75.9168 180.744 75.174L180.77 72.1206C180.777 71.3778 181.804 70.7846 183.065 70.7956L188.249 70.8408Z" fill="#CD88FF"/>
<path d="M198.005 85.1602C200.822 85.1847 203.094 86.55 203.08 88.2095C203.065 89.8689 200.77 91.1943 197.953 91.1697C195.135 91.1451 192.863 89.7799 192.878 88.1204C192.892 86.4609 195.188 85.1356 198.005 85.1602Z" fill="#F62E76"/>
<mask id="mask0_11425_45618" style="mask-type:alpha" maskUnits="userSpaceOnUse" x="133" y="49" width="105" height="61">
<path d="M185.666 109.495L133.862 80.2423L185.666 49.7716L236.857 80.2424L185.666 109.495Z" fill="#6400CA" stroke="url(#paint4_linear_11425_45618)" stroke-width="0.673368"/>
</mask>
<g mask="url(#mask0_11425_45618)">
<g style="mix-blend-mode:overlay" filter="url(#filter7_f_11425_45618)">
<circle cx="146.63" cy="79.6158" r="24.9967" fill="white" style="mix-blend-mode:lighten"/>
</g>
</g>
<circle cx="31.8434" cy="31.8434" r="31.585" transform="matrix(0.866025 -0.5 0.866025 0.5 161.056 166.664)" stroke="white" stroke-width="0.516684" stroke-dasharray="1.03 1.03"/>
<path d="M242.649 146.69C245.641 148.009 248.373 149.565 250.753 151.343L250.578 151.42C251.726 152.277 252.791 153.186 253.764 154.146C254.736 155.106 255.587 156.086 256.318 157.082L256.521 157.034C258.038 159.099 259.043 161.231 259.562 163.374L259.344 163.391C259.873 165.577 259.893 167.776 259.43 169.931L259.648 169.947C259.179 172.131 258.216 174.27 256.785 176.306L256.581 176.258C255.165 178.274 253.289 180.187 250.979 181.942L251.155 182.018C248.884 183.743 246.197 185.315 243.116 186.68L242.981 186.58C241.494 187.239 239.916 187.849 238.248 188.405C236.581 188.961 234.875 189.445 233.141 189.86L233.226 189.976C229.633 190.836 225.921 191.398 222.184 191.676L222.155 191.55C218.353 191.833 214.525 191.821 210.77 191.529L210.741 191.654C206.948 191.359 203.23 190.78 199.689 189.933L199.773 189.817C196.278 188.981 192.956 187.883 189.905 186.537L189.771 186.638C186.78 185.318 184.048 183.763 181.668 181.985L181.843 181.908C180.695 181.05 179.63 180.141 178.657 179.182C177.684 178.222 176.834 177.241 176.103 176.245L175.9 176.294C174.383 174.228 173.378 172.097 172.859 169.953L173.077 169.936C172.548 167.75 172.528 165.551 172.991 163.396L172.773 163.38C173.242 161.197 174.205 159.057 175.635 157.021L175.84 157.069C177.255 155.054 179.131 153.14 181.441 151.385L181.266 151.309C183.536 149.584 186.224 148.013 189.305 146.647L189.44 146.748C190.926 146.089 192.505 145.479 194.172 144.923C195.84 144.367 197.546 143.882 199.28 143.468L199.194 143.351C202.788 142.491 206.5 141.93 210.237 141.652L210.266 141.777C214.068 141.495 217.896 141.507 221.651 141.799L221.679 141.673C225.472 141.968 229.191 142.547 232.732 143.394L232.648 143.511C236.143 144.346 239.465 145.445 242.516 146.79L242.649 146.69Z" stroke="#AB0009" stroke-width="0.35863" stroke-linejoin="round" stroke-dasharray="8.61 8.61"/>
<g filter="url(#filter8_d_11425_45618)">
<path d="M247.825 173.869C246.732 175.415 245.276 176.894 243.458 178.263L243.283 178.186C242.407 178.846 241.447 179.48 240.401 180.083C239.356 180.687 238.258 181.242 237.115 181.747L237.249 181.848C234.877 182.898 232.315 183.738 229.638 184.37L229.554 184.252C226.836 184.893 223.998 185.317 221.119 185.524L221.146 185.65C218.234 185.86 215.282 185.849 212.369 185.618L212.398 185.493C209.53 185.266 206.7 184.824 203.986 184.167L203.901 184.284C201.237 183.64 198.685 182.79 196.317 181.734L196.451 181.634C195.311 181.126 194.214 180.57 193.169 179.967C192.123 179.363 191.16 178.73 190.28 178.072L190.107 178.149C188.279 176.782 186.807 175.308 185.691 173.77L185.893 173.721C184.756 172.155 183.991 170.52 183.597 168.864L183.379 168.881C182.98 167.2 182.961 165.495 183.324 163.814L183.542 163.83C183.901 162.167 184.636 160.529 185.746 158.959L185.542 158.911C186.636 157.365 188.092 155.886 189.91 154.517L190.084 154.594C190.96 153.934 191.921 153.3 192.966 152.697C194.012 152.093 195.11 151.539 196.253 151.033L196.119 150.932C198.491 149.882 201.053 149.042 203.73 148.411L203.813 148.528C206.531 147.887 209.37 147.463 212.249 147.256L212.222 147.13C215.133 146.92 218.086 146.931 220.999 147.162L220.969 147.287C223.838 147.515 226.668 147.957 229.382 148.613L229.466 148.496C232.13 149.141 234.683 149.991 237.051 151.046L236.917 151.146C238.056 151.654 239.153 152.21 240.199 152.814C241.245 153.417 242.207 154.051 243.087 154.709L243.261 154.631C245.089 155.998 246.561 157.472 247.677 159.01L247.474 159.059C248.611 160.626 249.377 162.26 249.77 163.916L249.988 163.899C250.388 165.581 250.406 167.285 250.043 168.966L249.825 168.951C249.466 170.613 248.732 172.252 247.622 173.821L247.825 173.869Z" stroke="#AB0009" stroke-width="0.35863" stroke-linejoin="round" stroke-dasharray="8.61 8.61" shape-rendering="crispEdges"/>
</g>
<path d="M215.699 168.504V195.709L171.972 169.932V143.495L215.699 168.504Z" fill="#870007"/>
<path d="M215.612 168.149V195.4L259.703 169.956V143.547L215.612 168.149Z" fill="#5A0005"/>
<path d="M215.913 168.185L172.457 143.647L215.913 118.087L258.854 143.647L215.913 168.185Z" fill="#E3262F" stroke="url(#paint5_linear_11425_45618)" stroke-width="0.7661"/>
<mask id="mask1_11425_45618" style="mask-type:alpha" maskUnits="userSpaceOnUse" x="171" y="117" width="89" height="52">
<path d="M215.914 168.406L172.074 143.651L215.914 117.865L259.234 143.651L215.914 168.406Z" fill="#E3262F" stroke="white" stroke-width="0.38305"/>
</mask>
<g mask="url(#mask1_11425_45618)">
<g style="mix-blend-mode:lighten" filter="url(#filter9_f_11425_45618)">
<circle cx="190.616" cy="134.503" r="25.0837" fill="#FF9797" style="mix-blend-mode:lighten"/>
</g>
</g>
<g filter="url(#filter10_d_11425_45618)">
<path d="M218.119 143.606L215.783 144.955L208.773 140.908L211.11 139.559M222.792 146.304L220.456 147.653L218.119 146.304L220.456 144.955M204.1 136.861C202.566 137.747 201.349 138.798 200.519 139.956C199.689 141.113 199.261 142.353 199.261 143.606C199.261 146.136 201.002 148.562 204.1 150.351C207.199 152.14 211.401 153.145 215.783 153.145C217.953 153.145 220.101 152.898 222.105 152.419C224.11 151.939 225.931 151.237 227.465 150.351C230.564 148.562 232.304 146.136 232.304 143.606C232.304 141.076 230.564 138.65 227.465 136.861C225.931 135.975 224.11 135.273 222.105 134.793C220.101 134.314 217.953 134.067 215.783 134.067C213.613 134.067 211.465 134.314 209.46 134.793C207.456 135.273 205.635 135.975 204.1 136.861Z" fill="#FEECED"/>
</g>
<path d="M178.522 196.95L104.386 154.893" stroke="#E3262F" stroke-width="0.886345" stroke-linecap="round" stroke-linejoin="round" stroke-dasharray="1.77 1.77"/>
<path d="M193.07 188.676L179.055 197.482" stroke="#E3262F" stroke-width="0.886345" stroke-linejoin="round" stroke-dasharray="1.77 1.77"/>
<path d="M142.81 130.603L104.559 154.739" stroke="#E3262F" stroke-width="0.886345" stroke-linecap="round" stroke-linejoin="round" stroke-dasharray="1.77 1.77"/>
</g>
<defs>
<filter id="filter0_b_11425_45618" x="43.3167" y="11.2268" width="286.186" height="192.958" filterUnits="userSpaceOnUse" color-interpolation-filters="sRGB">
<feFlood flood-opacity="0" result="BackgroundImageFix"/>
<feGaussianBlur in="BackgroundImageFix" stdDeviation="16.4017"/>
<feComposite in2="SourceAlpha" operator="in" result="effect1_backgroundBlur_11425_45618"/>
<feBlend mode="normal" in="SourceGraphic" in2="effect1_backgroundBlur_11425_45618" result="shape"/>
</filter>
<filter id="filter1_b_11425_45618" x="81.2614" y="36.7951" width="208.299" height="139.822" filterUnits="userSpaceOnUse" color-interpolation-filters="sRGB">
<feFlood flood-opacity="0" result="BackgroundImageFix"/>
<feGaussianBlur in="BackgroundImageFix" stdDeviation="11.5705"/>
<feComposite in2="SourceAlpha" operator="in" result="effect1_backgroundBlur_11425_45618"/>
<feBlend mode="normal" in="SourceGraphic" in2="effect1_backgroundBlur_11425_45618" result="shape"/>
</filter>
<filter id="filter2_f_11425_45618" x="60.5764" y="-4.52472" width="257.867" height="223.85" filterUnits="userSpaceOnUse" color-interpolation-filters="sRGB">
<feFlood flood-opacity="0" result="BackgroundImageFix"/>
<feBlend mode="normal" in="SourceGraphic" in2="BackgroundImageFix" result="shape"/>
<feGaussianBlur stdDeviation="32.4831" result="effect1_foregroundBlur_11425_45618"/>
</filter>
<filter id="filter3_f_11425_45618" x="102.885" y="40.4181" width="217.882" height="194.679" filterUnits="userSpaceOnUse" color-interpolation-filters="sRGB">
<feFlood flood-opacity="0" result="BackgroundImageFix"/>
<feBlend mode="normal" in="SourceGraphic" in2="BackgroundImageFix" result="shape"/>
<feGaussianBlur stdDeviation="30.644" result="effect1_foregroundBlur_11425_45618"/>
</filter>
<filter id="filter4_d_11425_45618" x="119.627" y="68.3071" width="131.563" height="78.9173" filterUnits="userSpaceOnUse" color-interpolation-filters="sRGB">
<feFlood flood-opacity="0" result="BackgroundImageFix"/>
<feColorMatrix in="SourceAlpha" type="matrix" values="0 0 0 0 0 0 0 0 0 0 0 0 0 0 0 0 0 0 127 0" result="hardAlpha"/>
<feOffset dy="3.50111"/>
<feGaussianBlur stdDeviation="1.75055"/>
<feComposite in2="hardAlpha" operator="out"/>
<feColorMatrix type="matrix" values="0 0 0 0 0.432266 0 0 0 0 0.00354165 0 0 0 0 0.846458 0 0 0 1 0"/>
<feBlend mode="screen" in2="BackgroundImageFix" result="effect1_dropShadow_11425_45618"/>
<feBlend mode="normal" in="SourceGraphic" in2="effect1_dropShadow_11425_45618" result="shape"/>
</filter>
<filter id="filter5_f_11425_45618" x="145.397" y="19.3956" width="75.5692" height="57.5311" filterUnits="userSpaceOnUse" color-interpolation-filters="sRGB">
<feFlood flood-opacity="0" result="BackgroundImageFix"/>
<feBlend mode="normal" in="SourceGraphic" in2="BackgroundImageFix" result="shape"/>
<feGaussianBlur stdDeviation="8.49557" result="effect1_foregroundBlur_11425_45618"/>
</filter>
<filter id="filter6_d_11425_45618" x="97.6081" y="29.9186" width="175.403" height="152.973" filterUnits="userSpaceOnUse" color-interpolation-filters="sRGB">
<feFlood flood-opacity="0" result="BackgroundImageFix"/>
<feColorMatrix in="SourceAlpha" type="matrix" values="0 0 0 0 0 0 0 0 0 0 0 0 0 0 0 0 0 0 127 0" result="hardAlpha"/>
<feOffset dy="4.2172"/>
<feGaussianBlur stdDeviation="25.3524"/>
<feComposite in2="hardAlpha" operator="out"/>
<feColorMatrix type="matrix" values="0 0 0 0 0.506336 0 0 0 0 0.118457 0 0 0 0 1 0 0 0 1 0"/>
<feBlend mode="soft-light" in2="BackgroundImageFix" result="effect1_dropShadow_11425_45618"/>
<feBlend mode="normal" in="SourceGraphic" in2="effect1_dropShadow_11425_45618" result="shape"/>
</filter>
<filter id="filter7_f_11425_45618" x="72.1954" y="5.18174" width="148.868" height="148.868" filterUnits="userSpaceOnUse" color-interpolation-filters="sRGB">
<feFlood flood-opacity="0" result="BackgroundImageFix"/>
<feBlend mode="normal" in="SourceGraphic" in2="BackgroundImageFix" result="shape"/>
<feGaussianBlur stdDeviation="24.7187" result="effect1_foregroundBlur_11425_45618"/>
</filter>
<filter id="filter8_d_11425_45618" x="181.99" y="146.98" width="69.3886" height="40.9711" filterUnits="userSpaceOnUse" color-interpolation-filters="sRGB">
<feFlood flood-opacity="0" result="BackgroundImageFix"/>
<feColorMatrix in="SourceAlpha" type="matrix" values="0 0 0 0 0 0 0 0 0 0 0 0 0 0 0 0 0 0 127 0" result="hardAlpha"/>
<feOffset dy="1.07589"/>
<feGaussianBlur stdDeviation="0.537945"/>
<feComposite in2="hardAlpha" operator="out"/>
<feColorMatrix type="matrix" values="0 0 0 0 0.432266 0 0 0 0 0.00354165 0 0 0 0 0.846458 0 0 0 1 0"/>
<feBlend mode="screen" in2="BackgroundImageFix" result="effect1_dropShadow_11425_45618"/>
<feBlend mode="normal" in="SourceGraphic" in2="effect1_dropShadow_11425_45618" result="shape"/>
</filter>
<filter id="filter9_f_11425_45618" x="116.095" y="59.982" width="149.042" height="149.042" filterUnits="userSpaceOnUse" color-interpolation-filters="sRGB">
<feFlood flood-opacity="0" result="BackgroundImageFix"/>
<feBlend mode="normal" in="SourceGraphic" in2="BackgroundImageFix" result="shape"/>
<feGaussianBlur stdDeviation="24.7187" result="effect1_foregroundBlur_11425_45618"/>
</filter>
<filter id="filter10_d_11425_45618" x="177.745" y="113.418" width="76.0757" height="52.375" filterUnits="userSpaceOnUse" color-interpolation-filters="sRGB">
<feFlood flood-opacity="0" result="BackgroundImageFix"/>
<feColorMatrix in="SourceAlpha" type="matrix" values="0 0 0 0 0 0 0 0 0 0 0 0 0 0 0 0 0 0 127 0" result="hardAlpha"/>
<feOffset dy="-4"/>
<feGaussianBlur stdDeviation="5"/>
<feComposite in2="hardAlpha" operator="out"/>
<feColorMatrix type="matrix" values="0 0 0 0 0.86125 0 0 0 0 0.87883 0 0 0 0 0.975 0 0 0 0.5 0"/>
<feBlend mode="normal" in2="BackgroundImageFix" result="effect1_dropShadow_11425_45618"/>
<feBlend mode="normal" in="SourceGraphic" in2="effect1_dropShadow_11425_45618" result="shape"/>
</filter>
<linearGradient id="paint0_linear_11425_45618" x1="113.399" y1="92.4624" x2="251.785" y2="188.724" gradientUnits="userSpaceOnUse">
<stop offset="0.015625" stop-color="#B010FB"/>
<stop offset="0.130208" stop-color="#DE97FF"/>
<stop offset="0.234375" stop-color="#A227DB"/>
<stop offset="0.505208" stop-color="#A227DB" stop-opacity="0"/>
<stop offset="0.765625" stop-color="#A610EC" stop-opacity="0.84"/>
</linearGradient>
<linearGradient id="paint1_linear_11425_45618" x1="62.3958" y1="0" x2="62.3958" y2="89.48" gradientUnits="userSpaceOnUse">
<stop stop-color="#6218FF" stop-opacity="0"/>
<stop offset="1" stop-color="#6117FF"/>
</linearGradient>
<linearGradient id="paint2_linear_11425_45618" x1="47.653" y1="22.9275" x2="49.7717" y2="49.0831" gradientUnits="userSpaceOnUse">
<stop stop-color="#FF1818" stop-opacity="0"/>
<stop offset="1" stop-color="#F30E0E"/>
</linearGradient>
<linearGradient id="paint3_linear_11425_45618" x1="148.908" y1="60.6121" x2="192.66" y2="135.941" gradientUnits="userSpaceOnUse">
<stop offset="0.015625" stop-color="#B010FB"/>
<stop offset="0.130208" stop-color="#DE97FF"/>
<stop offset="0.234375" stop-color="#A227DB"/>
<stop offset="0.505208" stop-color="#A227DB" stop-opacity="0"/>
<stop offset="0.765625" stop-color="#A610EC" stop-opacity="0.84"/>
</linearGradient>
<linearGradient id="paint4_linear_11425_45618" x1="148.908" y1="60.6121" x2="192.66" y2="135.941" gradientUnits="userSpaceOnUse">
<stop offset="0.015625" stop-color="#B010FB"/>
<stop offset="0.130208" stop-color="#DE97FF"/>
<stop offset="0.234375" stop-color="#A227DB"/>
<stop offset="0.505208" stop-color="#A227DB" stop-opacity="0"/>
<stop offset="0.765625" stop-color="#A610EC" stop-opacity="0.84"/>
</linearGradient>
<linearGradient id="paint5_linear_11425_45618" x1="190.707" y1="141.898" x2="240.114" y2="156.856" gradientUnits="userSpaceOnUse">
<stop stop-color="#FFCACA"/>
<stop offset="0.453161" stop-color="#FD4949"/>
<stop offset="0.645" stop-color="#E06363"/>
</linearGradient>
<clipPath id="clip0_11425_45618">
<rect width="308.738" height="230.213" fill="white" transform="translate(31.168 0.893555)"/>
</clipPath>
</defs>
</svg>
