<svg width="605" height="450" viewBox="0 0 605 450" fill="none" xmlns="http://www.w3.org/2000/svg">
<g clip-path="url(#clip0_11276_33150)">
<g opacity="0.7" filter="url(#filter0_f_11276_33150)">
<rect width="243.932" height="174.908" transform="matrix(-0.999351 -0.0360302 -0.0360302 0.999351 435.371 125.188)" fill="url(#paint0_linear_11276_33150)"/>
</g>
<g filter="url(#filter1_b_11276_33150)">
<ellipse cx="175.979" cy="175.979" rx="175.979" ry="175.979" transform="matrix(1.12678 -0.277104 0.479958 0.650549 21.5215 139.325)" fill="black" fill-opacity="0.08"/>
<path d="M494.038 146.028C495.79 147.912 497.468 149.831 499.068 151.785L498.675 151.892C499.883 153.367 501.046 154.863 502.164 156.377C503.281 157.892 504.343 159.412 505.348 160.937L505.755 160.848C507.087 162.868 508.321 164.896 509.46 166.931L509.046 167.008C510.801 170.146 512.328 173.3 513.631 176.464L514.054 176.406C514.918 178.506 515.684 180.61 516.353 182.716L515.925 182.762C516.953 185.997 517.75 189.238 518.322 192.477L518.754 192.452C519.133 194.597 519.414 196.741 519.597 198.883L519.163 198.895C519.444 202.177 519.497 205.453 519.326 208.715L519.761 208.723C519.648 210.875 519.438 213.022 519.133 215.161L518.7 215.14C518.233 218.41 517.543 221.661 516.633 224.886L517.062 224.926C516.463 227.05 515.769 229.163 514.983 231.262L514.558 231.209C513.357 234.412 511.939 237.583 510.309 240.715L510.725 240.788C509.653 242.847 508.49 244.89 507.236 246.914L506.827 246.829C504.918 249.912 502.799 252.951 500.476 255.938L500.873 256.04C499.348 258.001 497.735 259.94 496.037 261.854L495.65 261.739C493.066 264.65 490.283 267.504 487.305 270.294L487.675 270.425C485.723 272.254 483.688 274.055 481.571 275.826L481.213 275.683C477.999 278.372 474.596 280.993 471.009 283.537L471.346 283.696C468.999 285.36 466.574 286.992 464.072 288.589L463.75 288.421C459.958 290.841 455.989 293.182 451.848 295.437L452.146 295.619C449.443 297.09 446.668 298.524 443.82 299.919L443.539 299.728C439.239 301.835 434.775 303.853 430.152 305.775L430.406 305.979C427.396 307.23 424.318 308.441 421.175 309.609L420.939 309.398C416.204 311.158 411.318 312.822 406.286 314.382L406.492 314.603C403.229 315.615 399.905 316.584 396.52 317.508L396.335 317.281C393.779 317.978 391.189 318.65 388.566 319.295C385.943 319.94 383.309 320.553 380.668 321.134L380.822 321.368C377.324 322.137 373.811 322.85 370.286 323.507L370.152 323.269C364.717 324.282 359.254 325.164 353.775 325.916L353.876 326.16C350.238 326.659 346.594 327.101 342.945 327.487L342.867 327.24C337.263 327.833 331.65 328.294 326.039 328.624L326.083 328.874C322.368 329.093 318.654 329.255 314.944 329.36L314.923 329.11C309.238 329.272 303.564 329.302 297.914 329.204L297.901 329.455C294.173 329.39 290.454 329.269 286.75 329.092L286.786 328.842C281.122 328.573 275.491 328.174 269.906 327.649L269.836 327.897C266.157 327.551 262.498 327.15 258.862 326.696L258.954 326.451C253.406 325.758 247.913 324.939 242.488 323.998L242.363 324.238C238.796 323.619 235.257 322.948 231.752 322.224L231.898 321.988C226.559 320.885 221.296 319.662 216.122 318.321L215.944 318.55C212.548 317.669 209.191 316.738 205.876 315.758L206.074 315.534C201.032 314.043 196.089 312.436 191.257 310.717L191.029 310.93C187.862 309.803 184.743 308.628 181.675 307.406L181.922 307.199C177.264 305.344 172.725 303.379 168.318 301.308L168.044 301.502C165.161 300.148 162.335 298.747 159.568 297.303L159.86 297.117C155.667 294.928 151.613 292.636 147.708 290.245L147.392 290.417C144.844 288.857 142.36 287.254 139.944 285.61L140.275 285.448C136.626 282.966 133.131 280.388 129.802 277.719L129.449 277.866C127.281 276.128 125.184 274.351 123.161 272.536L123.526 272.4C120.477 269.666 117.596 266.845 114.893 263.94L114.51 264.059C112.757 262.175 111.08 260.256 109.48 258.302L109.873 258.195C108.665 256.719 107.501 255.224 106.384 253.709C105.266 252.195 104.205 250.674 103.199 249.149L102.793 249.239C101.461 247.219 100.227 245.191 99.0881 243.155L99.5017 243.078C97.7462 239.94 96.2195 236.786 94.917 233.623L94.4942 233.681C93.6296 231.581 92.8636 229.477 92.1949 227.37L92.6224 227.325C91.5952 224.09 90.7979 220.849 90.2256 217.61L89.7933 217.635C89.4143 215.49 89.1338 213.346 88.9504 211.204L89.3845 211.192C89.1034 207.909 89.0507 204.634 89.2214 201.372L88.787 201.364C88.8996 199.211 89.1093 197.065 89.4146 194.926L89.8478 194.946C90.3145 191.677 91.0052 188.426 91.9146 185.201L91.4856 185.161C92.0846 183.037 92.7783 180.924 93.5652 178.825L93.99 178.878C95.1906 175.675 96.6085 172.504 98.2386 169.371L97.8224 169.299C98.8943 167.239 100.058 165.197 101.311 163.173L101.72 163.257C103.63 160.174 105.749 157.136 108.071 154.149L107.675 154.046C109.2 152.086 110.812 150.147 112.511 148.233L112.898 148.348C115.481 145.437 118.265 142.583 121.243 139.793L120.873 139.661C122.824 137.833 124.859 136.032 126.977 134.261L127.334 134.403C130.548 131.714 133.952 129.094 137.539 126.549L137.202 126.391C139.548 124.727 141.974 123.095 144.476 121.497L144.798 121.666C148.59 119.245 152.559 116.904 156.7 114.65L156.402 114.467C159.104 112.997 161.88 111.562 164.727 110.167L165.009 110.359C169.309 108.252 173.773 106.234 178.396 104.312L178.142 104.108C181.152 102.857 184.23 101.646 187.373 100.477L187.608 100.688C192.344 98.9283 197.23 97.2647 202.261 95.7043L202.056 95.4832C205.319 94.4712 208.643 93.5025 212.027 92.5789L212.213 92.8058C214.769 92.1083 217.358 91.4366 219.982 90.7914C222.605 90.1463 225.238 89.5335 227.88 88.9528L227.726 88.7183C231.224 87.9494 234.737 87.2366 238.262 86.5793L238.395 86.8181C243.83 85.8045 249.293 84.9231 254.773 84.1711L254.672 83.927C258.309 83.4278 261.954 82.9856 265.602 82.5995L265.681 82.8463C271.285 82.2532 276.898 81.7929 282.508 81.4625L282.464 81.2129C286.18 80.9941 289.894 80.8322 293.603 80.7263L293.625 80.9769C299.31 80.8146 304.983 80.7842 310.633 80.8827L310.647 80.6319C314.375 80.6969 318.093 80.818 321.798 80.9943L321.762 81.2444C327.426 81.5138 333.056 81.9126 338.642 82.4376L338.712 82.19C342.391 82.5358 346.05 82.9363 349.686 83.3906L349.594 83.6359C355.141 84.329 360.634 85.1477 366.06 86.0888L366.185 85.8485C369.752 86.4674 373.29 87.1391 376.796 87.8628L376.649 88.0991C381.989 89.2015 387.252 90.4247 392.425 91.7658L392.603 91.5368C395.999 92.4172 399.357 93.3482 402.672 94.3291L402.474 94.5524C407.515 96.0439 412.459 97.6509 417.29 99.3701L417.519 99.1565C420.686 100.283 423.805 101.458 426.873 102.681L426.626 102.887C431.283 104.743 435.822 106.708 440.229 108.779L440.504 108.584C443.386 109.939 446.213 111.339 448.98 112.784L448.688 112.97C452.88 115.159 456.935 117.451 460.84 119.842L461.156 119.669C463.704 121.23 466.187 122.832 468.604 124.476L468.273 124.639C471.922 127.121 475.417 129.698 478.746 132.368L479.099 132.221C481.266 133.959 483.364 135.736 485.387 137.551L485.022 137.686C488.07 140.421 490.952 143.241 493.655 146.146L494.038 146.028Z" stroke="#9178D6" stroke-width="0.70976" stroke-linejoin="round" stroke-dasharray="13.76 9.02"/>
</g>
<g filter="url(#filter2_b_11276_33150)">
<ellipse cx="129.258" cy="129.258" rx="129.258" ry="129.258" transform="matrix(1.12678 -0.277104 0.479958 0.650549 94.6367 154.819)" fill="black" fill-opacity="0.08"/>
<path d="M438.278 156.247C440.847 158.74 443.232 161.323 445.418 163.995L445.025 164.102C445.904 165.177 446.752 166.267 447.566 167.37C448.38 168.474 449.154 169.581 449.887 170.693L450.293 170.603C452.115 173.364 453.69 176.147 455.023 178.943L454.604 179.01C455.707 181.324 456.644 183.647 457.419 185.975L457.846 185.927C458.808 188.819 459.52 191.718 459.989 194.614L459.556 194.637C459.941 197.022 460.161 199.405 460.219 201.781L460.653 201.777C460.725 204.715 460.549 207.641 460.132 210.548L459.699 210.527C459.358 212.909 458.855 215.278 458.193 217.627L458.622 217.667C457.808 220.561 456.754 223.426 455.468 226.252L455.048 226.188C453.997 228.496 452.792 230.779 451.434 233.03L451.845 233.113C450.178 235.877 448.284 238.594 446.168 241.253L445.773 241.149C444.051 243.315 442.181 245.443 440.168 247.528L440.548 247.65C438.083 250.202 435.405 252.69 432.52 255.102L432.163 254.959C429.82 256.918 427.34 258.827 424.728 260.682L425.065 260.84C421.877 263.102 418.492 265.283 414.916 267.372L414.607 267.196C411.714 268.886 408.696 270.516 405.556 272.082L405.84 272.272C402.027 274.173 398.035 275.978 393.87 277.678L393.619 277.473C390.268 278.842 386.804 280.142 383.232 281.37L383.454 281.585C379.137 283.068 374.662 284.445 370.035 285.707L369.849 285.48C367.987 285.988 366.1 286.477 364.188 286.947C362.277 287.417 360.358 287.864 358.434 288.287L358.588 288.522C353.806 289.574 348.986 290.483 344.143 291.253L344.028 291.011C340.02 291.648 335.996 292.189 331.965 292.636L332.047 292.882C327.037 293.438 322.017 293.849 317 294.12L316.96 293.87C312.83 294.092 308.703 294.219 304.587 294.252L304.593 294.503C299.506 294.544 294.437 294.443 289.403 294.202L289.439 293.952C285.313 293.755 281.21 293.465 277.141 293.083L277.071 293.331C272.059 292.86 267.098 292.252 262.203 291.51L262.313 291.267C258.315 290.661 254.361 289.964 250.462 289.181L250.319 289.418C245.532 288.455 240.826 287.362 236.219 286.14L236.4 285.912C232.648 284.918 228.962 283.838 225.351 282.676L225.139 282.895C220.719 281.473 216.411 279.926 212.233 278.261L212.48 278.054C209.087 276.702 205.78 275.27 202.568 273.762L202.294 273.956C198.376 272.116 194.599 270.161 190.98 268.097L191.285 267.918C188.358 266.248 185.534 264.506 182.823 262.693L182.494 262.857C179.201 260.655 176.074 258.351 173.129 255.946L173.484 255.801C171.114 253.866 168.861 251.866 166.736 249.804L166.362 249.932C163.794 247.44 161.409 244.856 159.223 242.185L159.616 242.077C158.736 241.002 157.889 239.913 157.075 238.809C156.261 237.706 155.487 236.598 154.754 235.487L154.348 235.576C152.525 232.815 150.951 230.032 149.618 227.236L150.037 227.17C148.934 224.855 147.996 222.532 147.222 220.205L146.795 220.252C145.832 217.36 145.12 214.461 144.652 211.565L145.085 211.542C144.699 209.157 144.479 206.774 144.422 204.398L143.987 204.402C143.916 201.465 144.092 198.538 144.508 195.632L144.942 195.653C145.283 193.27 145.786 190.902 146.447 188.552L146.018 188.512C146.833 185.619 147.887 182.754 149.173 179.928L149.593 179.992C150.643 177.683 151.849 175.4 153.206 173.149L152.796 173.067C154.463 170.303 156.357 167.586 158.472 164.926L158.867 165.031C160.59 162.864 162.46 160.736 164.473 158.651L164.093 158.529C166.557 155.977 169.235 153.49 172.12 151.078L172.478 151.22C174.821 149.261 177.3 147.352 179.913 145.498L179.576 145.34C182.764 143.077 186.149 140.897 189.725 138.807L190.034 138.984C192.927 137.293 195.945 135.663 199.084 134.098L198.8 133.908C202.614 132.007 206.606 130.201 210.77 128.501L211.021 128.706C214.373 127.337 217.837 126.037 221.409 124.81L221.187 124.594C225.504 123.111 229.979 121.734 234.606 120.472L234.792 120.699C236.654 120.191 238.541 119.702 240.452 119.232C242.364 118.762 244.282 118.315 246.207 117.892L246.052 117.658C250.834 116.606 255.654 115.696 260.498 114.927L260.613 115.169C264.621 114.532 268.645 113.991 272.676 113.543L272.594 113.297C277.603 112.741 282.624 112.33 287.64 112.06L287.681 112.31C291.811 112.087 295.938 111.96 300.054 111.927L300.047 111.676C305.135 111.635 310.204 111.737 315.238 111.977L315.202 112.227C319.328 112.424 323.43 112.715 327.5 113.096L327.57 112.849C332.581 113.319 337.543 113.927 342.438 114.67L342.328 114.912C346.326 115.519 350.279 116.215 354.179 116.999L354.322 116.762C359.109 117.724 363.815 118.818 368.422 120.039L368.241 120.267C371.993 121.262 375.679 122.341 379.29 123.503L379.501 123.284C383.922 124.707 388.23 126.253 392.408 127.919L392.161 128.125C395.554 129.478 398.861 130.909 402.072 132.418L402.347 132.223C406.265 134.064 410.042 136.018 413.661 138.083L413.355 138.261C416.283 139.931 419.107 141.674 421.818 143.486L422.147 143.322C425.44 145.524 428.567 147.829 431.512 150.233L431.157 150.378C433.527 152.313 435.779 154.313 437.905 156.376L438.278 156.247Z" stroke="url(#paint1_linear_11276_33150)" stroke-width="0.70976" stroke-linejoin="round" stroke-dasharray="9.7 11.87"/>
</g>
<g filter="url(#filter3_d_11276_33150)">
<path d="M414.818 175.156C427.135 192.342 427.135 211.778 414.818 228.964L414.015 228.772C408.117 237.003 399.374 244.714 387.784 251.405C376.194 258.097 362.838 263.144 348.583 266.55L348.915 267.013C319.147 274.124 285.484 274.124 255.716 267.013L256.049 266.55C241.794 263.144 228.438 258.097 216.848 251.405C205.258 244.714 196.515 237.003 190.617 228.772L189.814 228.964C177.497 211.778 177.497 192.342 189.814 175.156L190.617 175.348C196.515 167.118 205.258 159.406 216.848 152.715C228.438 146.024 241.794 140.976 256.049 137.571L255.717 137.107C285.484 129.996 319.147 129.996 348.915 137.107L348.583 137.571C362.838 140.976 376.194 146.024 387.784 152.715C399.374 159.406 408.117 167.118 414.015 175.348L414.818 175.156Z" stroke="#5F00E8" stroke-width="1.41952" stroke-linejoin="round" stroke-dasharray="54.75 54.75" shape-rendering="crispEdges"/>
</g>
<g opacity="0.4" filter="url(#filter4_f_11276_33150)">
<ellipse cx="297.964" cy="92.3953" rx="40.6452" ry="23.0157" fill="black"/>
</g>
<g filter="url(#filter5_d_11276_33150)">
<path d="M250.987 236.169C237.424 228.34 229.805 217.721 229.805 206.648C229.805 195.575 237.424 184.956 250.987 177.127L302.123 147.606L353.26 177.127C366.822 184.956 374.442 195.575 374.442 206.648C374.442 217.721 366.822 228.34 353.26 236.169C339.698 243.999 321.303 248.397 302.123 248.397C282.943 248.397 264.549 243.999 250.987 236.169V236.169Z" fill="#0A41CF"/>
</g>
<path d="M302.82 212.284L201.557 155.105L302.819 95.543L402.883 155.105L302.82 212.284Z" fill="#6400CA" stroke="url(#paint2_linear_11276_33150)" stroke-width="1.31624"/>
<path d="M302.327 212.758V275.863L200.896 216.072V154.746L302.327 212.758Z" fill="#4A0292"/>
<path d="M302.125 211.935V275.147L404.398 216.127V154.869L302.125 211.935Z" fill="#3C0077"/>
<path d="M293.129 152.95C293.142 151.498 295.15 150.338 297.615 150.36L307.748 150.448C310.213 150.47 312.201 151.664 312.188 153.116L312.136 159.085C312.123 160.537 310.115 161.696 307.65 161.675L297.517 161.586C295.052 161.565 293.064 160.37 293.077 158.919L293.129 152.95Z" fill="#A950FF"/>
<path d="M316.543 139.385C316.556 137.959 318.528 136.82 320.949 136.841L331.241 136.931C333.662 136.952 335.615 138.125 335.602 139.551L335.549 145.613C335.537 147.039 333.564 148.178 331.143 148.157L320.851 148.067C318.43 148.046 316.478 146.873 316.49 145.447L316.543 139.385Z" fill="#A950FF"/>
<path d="M269.955 138.978C269.968 137.552 271.94 136.414 274.361 136.435L284.653 136.525C287.074 136.546 289.027 137.719 289.014 139.145L288.961 145.207C288.949 146.633 286.976 147.772 284.555 147.751L274.263 147.661C271.842 147.64 269.89 146.467 269.902 145.041L269.955 138.978Z" fill="#E9C1FF"/>
<path d="M284.455 150.245C286.92 150.266 288.908 151.461 288.895 152.913L288.843 158.881C288.83 160.333 286.822 161.493 284.357 161.471L274.224 161.383C271.759 161.361 269.772 160.167 269.784 158.715L269.836 152.746C269.849 151.294 271.857 150.135 274.322 150.156L284.455 150.245Z" fill="#CD88FF"/>
<path d="M284.414 163.967C286.835 163.988 288.787 165.161 288.775 166.587L288.722 172.649C288.709 174.075 286.737 175.214 284.316 175.193L274.024 175.103C271.603 175.082 269.65 173.909 269.663 172.483L269.716 166.42C269.728 164.994 271.701 163.856 274.122 163.877L284.414 163.967Z" fill="#A950FF"/>
<path d="M307.868 136.727C310.333 136.748 312.321 137.943 312.308 139.395L312.256 145.363C312.244 146.815 310.235 147.975 307.77 147.954L297.638 147.865C295.173 147.844 293.185 146.649 293.197 145.197L293.249 139.229C293.262 137.777 295.271 136.617 297.736 136.639L307.868 136.727Z" fill="#CD88FF"/>
<path d="M326.938 164.717C332.445 164.765 336.887 167.434 336.858 170.678C336.83 173.922 332.343 176.512 326.836 176.464C321.329 176.416 316.888 173.747 316.916 170.504C316.944 167.26 321.432 164.669 326.938 164.717Z" fill="#F62E76"/>
<mask id="mask0_11276_33150" style="mask-type:alpha" maskUnits="userSpaceOnUse" x="200" y="94" width="205" height="120">
<path d="M302.82 212.284L201.557 155.105L302.819 95.5433L402.883 155.105L302.82 212.284Z" fill="#6400CA" stroke="url(#paint3_linear_11276_33150)" stroke-width="1.31624"/>
</mask>
<g mask="url(#mask0_11276_33150)">
<g style="mix-blend-mode:overlay" filter="url(#filter6_f_11276_33150)">
<circle cx="226.515" cy="153.88" r="48.8613" fill="white" style="mix-blend-mode:lighten"/>
</g>
</g>
<path d="M363.437 390.439C363.703 390.589 364.028 390.589 364.293 390.437L449.404 341.802C449.672 341.649 449.838 341.365 449.841 341.057C449.843 340.749 449.682 340.463 449.417 340.305L364.306 289.644C364.034 289.482 363.696 289.481 363.424 289.641L277.293 340.303C277.026 340.46 276.863 340.748 276.866 341.057C276.868 341.367 277.036 341.652 277.306 341.804L363.437 390.439Z" stroke="#9624EE" stroke-width="1.73263" stroke-linejoin="round"/>
<path d="M361.527 327.63V380.808L276.052 330.422V278.744L361.527 327.63Z" fill="#0F0C16"/>
<path d="M361.356 326.937V380.204L447.541 330.469V278.848L361.356 326.937Z" fill="black"/>
<path d="M361.946 327.869L275.501 279.056L361.946 228.21L447.368 279.056L361.946 327.869Z" fill="#211B2C"/>
<path d="M384.321 259.325C377.031 256.022 367.887 254.389 358.641 254.738C349.395 255.087 340.696 257.393 334.213 261.215C327.73 265.037 323.917 270.106 323.505 275.45C323.094 280.795 326.113 286.039 331.983 290.178L334.894 288.801C329.611 285.076 326.894 280.357 327.264 275.547C327.634 270.737 331.066 266.175 336.901 262.735C342.736 259.295 350.565 257.219 358.886 256.905C367.208 256.592 375.438 258.062 381.998 261.034L384.321 259.325Z" fill="#2D243D"/>
<path d="M329.199 291.445C324.235 287.934 321.113 283.677 320.201 279.175C319.29 274.674 320.626 270.116 324.053 266.038L334.027 268.832C331.523 271.812 330.547 275.143 331.213 278.432C331.879 281.721 334.161 284.832 337.788 287.398L329.199 291.445Z" fill="#3AFEDB"/>
<line y1="-0.180084" x2="22.9442" y2="-0.180084" transform="matrix(1.10108 0.309638 -0.536309 0.635707 316.088 263.937)" stroke="#3AFE94" stroke-width="0.360168"/>
<path d="M360.65 314.972L361.224 314.641L363.308 315.144L363.334 315.13L362.461 313.926L363.035 313.595L365.235 314.865L364.784 315.126L363.352 314.299L363.334 314.31L364.186 315.459L363.878 315.636L361.882 315.141L361.864 315.152L363.302 315.982L362.85 316.242L360.65 314.972Z" fill="#767676"/>
<path d="M371.645 309.066L371.262 308.845L373.069 307.802L373.452 308.023L372.779 308.412L374.595 309.461L374.135 309.726L372.319 308.677L371.645 309.066Z" fill="#767676"/>
<path d="M383.829 304.13L380.999 303.223L381.507 302.93L383.4 303.602L383.419 303.592L382.292 302.477L382.727 302.226L384.659 302.879L384.679 302.868L383.511 301.773L384.019 301.48L385.59 303.114L385.136 303.375L383.279 302.787L383.262 302.797L384.282 303.869L383.829 304.13Z" fill="#767676"/>
<path d="M392.431 297.066L392.048 296.844L393.855 295.801L394.238 296.022L393.565 296.411L395.381 297.46L394.922 297.726L393.105 296.677L392.431 297.066Z" fill="#767676"/>
<path d="M404.876 291.978L402.676 290.708L404.133 289.867L404.516 290.088L403.525 290.661L404.049 290.964L404.944 290.447L405.327 290.668L404.433 291.185L405.341 291.71L404.876 291.978Z" fill="#767676"/>
<path d="M414.895 284.384C414.8 284.339 414.696 284.321 414.583 284.331C414.47 284.341 414.357 284.378 414.245 284.443C414.17 284.487 414.116 284.53 414.085 284.572C414.054 284.615 414.043 284.654 414.052 284.692C414.062 284.729 414.091 284.762 414.138 284.789C414.176 284.812 414.219 284.828 414.266 284.834C414.314 284.84 414.365 284.84 414.418 284.834C414.471 284.828 414.527 284.817 414.585 284.801C414.642 284.786 414.7 284.767 414.759 284.745L415.004 284.659C415.121 284.616 415.238 284.581 415.354 284.556C415.47 284.53 415.584 284.515 415.695 284.512C415.806 284.508 415.913 284.517 416.016 284.54C416.12 284.561 416.218 284.599 416.31 284.651C416.444 284.729 416.527 284.817 416.557 284.913C416.588 285.008 416.567 285.109 416.494 285.214C416.421 285.318 416.295 285.422 416.116 285.525C415.938 285.628 415.756 285.701 415.57 285.746C415.385 285.79 415.202 285.803 415.021 285.784C414.841 285.764 414.669 285.709 414.508 285.62L414.958 285.36C415.037 285.4 415.119 285.423 415.206 285.43C415.293 285.436 415.38 285.429 415.468 285.407C415.556 285.384 415.64 285.349 415.72 285.303C415.799 285.258 415.856 285.211 415.891 285.165C415.927 285.118 415.941 285.073 415.932 285.031C415.924 284.989 415.893 284.952 415.84 284.922C415.79 284.893 415.734 284.878 415.671 284.875C415.609 284.872 415.538 284.88 415.458 284.899C415.38 284.917 415.29 284.943 415.191 284.979L414.891 285.082C414.661 285.163 414.444 285.207 414.24 285.214C414.037 285.22 413.854 285.177 413.692 285.082C413.558 285.006 413.477 284.918 413.449 284.819C413.422 284.72 413.444 284.618 413.514 284.513C413.584 284.408 413.699 284.309 413.86 284.216C414.023 284.122 414.194 284.056 414.371 284.018C414.55 283.979 414.722 283.969 414.89 283.987C415.058 284.006 415.208 284.052 415.341 284.126L414.895 284.384Z" fill="#767676"/>
<path d="M420.434 280.899L420.051 280.677L421.858 279.634L422.241 279.855L421.568 280.244L423.384 281.293L422.924 281.559L421.108 280.51L420.434 280.899ZM424.885 280.464C424.718 280.56 424.539 280.623 424.346 280.652C424.153 280.681 423.96 280.677 423.767 280.642C423.573 280.606 423.391 280.539 423.222 280.441C423.052 280.343 422.936 280.238 422.874 280.126C422.812 280.014 422.806 279.903 422.856 279.792C422.906 279.68 423.015 279.576 423.182 279.48C423.348 279.384 423.528 279.321 423.721 279.293C423.913 279.263 424.107 279.267 424.301 279.303C424.494 279.338 424.676 279.405 424.847 279.504C425.016 279.601 425.131 279.706 425.194 279.818C425.255 279.93 425.261 280.041 425.211 280.153C425.161 280.264 425.052 280.367 424.885 280.464ZM424.533 280.258C424.609 280.214 424.651 280.165 424.659 280.111C424.666 280.056 424.645 280 424.595 279.941C424.547 279.883 424.474 279.826 424.378 279.77C424.282 279.715 424.183 279.673 424.082 279.645C423.981 279.616 423.883 279.604 423.788 279.608C423.694 279.613 423.609 279.637 423.533 279.68C423.456 279.725 423.414 279.774 423.405 279.83C423.397 279.885 423.418 279.942 423.466 280C423.516 280.059 423.588 280.116 423.684 280.171C423.78 280.226 423.879 280.268 423.98 280.297C424.081 280.325 424.18 280.337 424.275 280.332C424.37 280.327 424.456 280.302 424.533 280.258ZM426.598 279.469C426.472 279.541 426.327 279.588 426.161 279.61C425.994 279.63 425.819 279.621 425.633 279.583C425.448 279.544 425.263 279.471 425.079 279.365C424.89 279.255 424.763 279.147 424.698 279.04C424.633 278.932 424.62 278.831 424.659 278.736C424.697 278.641 424.777 278.559 424.898 278.489C424.991 278.436 425.083 278.4 425.176 278.383C425.27 278.365 425.358 278.358 425.443 278.363C425.527 278.367 425.602 278.376 425.666 278.39L425.68 278.382L424.853 277.905L425.31 277.641L427.51 278.911L427.059 279.172L426.794 279.019L426.775 279.03C426.799 279.069 426.814 279.113 426.82 279.162C426.826 279.21 426.812 279.26 426.779 279.313C426.747 279.366 426.687 279.418 426.598 279.469ZM426.379 279.175C426.452 279.132 426.495 279.085 426.505 279.032C426.516 278.979 426.499 278.923 426.453 278.865C426.408 278.807 426.336 278.75 426.238 278.693C426.14 278.636 426.041 278.595 425.941 278.569C425.842 278.543 425.747 278.533 425.656 278.54C425.565 278.547 425.482 278.572 425.409 278.615C425.333 278.658 425.29 278.707 425.28 278.76C425.269 278.813 425.286 278.868 425.332 278.926C425.378 278.983 425.449 279.039 425.544 279.094C425.64 279.149 425.738 279.19 425.838 279.218C425.939 279.244 426.035 279.255 426.127 279.249C426.22 279.243 426.303 279.218 426.379 279.175ZM428.388 278.44C428.283 278.501 428.17 278.545 428.052 278.571C427.932 278.597 427.812 278.603 427.692 278.589C427.571 278.574 427.457 278.535 427.348 278.473C427.256 278.42 427.196 278.366 427.167 278.31C427.139 278.255 427.134 278.199 427.155 278.144C427.175 278.088 427.212 278.034 427.266 277.98C427.321 277.926 427.386 277.873 427.46 277.821C427.546 277.76 427.614 277.71 427.664 277.671C427.713 277.632 427.742 277.6 427.751 277.574C427.759 277.548 427.746 277.525 427.711 277.505L427.705 277.501C427.637 277.462 427.562 277.444 427.482 277.447C427.403 277.45 427.324 277.474 427.246 277.519C427.163 277.567 427.116 277.615 427.104 277.664C427.091 277.713 427.104 277.758 427.143 277.798L426.685 278.023C426.606 277.953 426.562 277.878 426.552 277.8C426.541 277.721 426.566 277.641 426.626 277.561C426.686 277.48 426.782 277.401 426.914 277.325C427.006 277.272 427.104 277.228 427.209 277.192C427.315 277.155 427.423 277.131 427.534 277.12C427.645 277.108 427.755 277.111 427.864 277.13C427.972 277.149 428.075 277.187 428.173 277.243L429.286 277.886L428.852 278.136L428.623 278.004L428.61 278.012C428.635 278.057 428.645 278.104 428.64 278.152C428.635 278.2 428.612 278.248 428.571 278.297C428.531 278.345 428.469 278.393 428.388 278.44ZM428.203 278.182C428.27 278.143 428.317 278.101 428.342 278.056C428.366 278.011 428.37 277.966 428.353 277.923C428.337 277.88 428.3 277.841 428.242 277.808L428.067 277.707C428.062 277.72 428.05 277.737 428.033 277.756C428.016 277.774 427.995 277.794 427.971 277.815C427.946 277.836 427.92 277.857 427.895 277.878C427.868 277.898 427.844 277.916 427.823 277.933C427.777 277.969 427.743 278.003 427.72 278.036C427.697 278.069 427.689 278.1 427.696 278.13C427.702 278.16 427.727 278.187 427.77 278.211C427.832 278.247 427.903 278.262 427.981 278.255C428.059 278.247 428.133 278.223 428.203 278.182ZM430.483 277.909C430.425 277.943 430.366 277.971 430.306 277.995C430.247 278.019 430.195 278.037 430.148 278.048L429.91 277.791C429.98 277.77 430.037 277.747 430.081 277.723C430.127 277.699 430.154 277.671 430.164 277.641C430.175 277.61 430.164 277.573 430.133 277.532L430.09 277.476L427.801 276.838L428.282 276.56L429.835 277.062L429.853 277.053L428.986 276.154L429.47 275.874L430.657 277.3C430.715 277.369 430.751 277.438 430.764 277.507C430.778 277.575 430.763 277.643 430.718 277.71C430.675 277.777 430.596 277.844 430.483 277.909Z" fill="#767676"/>
<rect width="9.08232" height="15.2776" rx="1.7466" transform="matrix(0.866025 -0.5 0.866025 0.5 341.492 306.751)" fill="#3AFEDB"/>
<rect width="9.08232" height="29.5191" rx="1.7466" transform="matrix(0.866025 -0.5 0.866025 0.5 339.551 293.631)" fill="#3AFEDB"/>
<rect width="9.08232" height="10.6765" rx="1.7466" transform="matrix(0.866025 -0.5 0.866025 0.5 366.263 297.051)" fill="#FF7A2F"/>
<rect width="9.08232" height="34.1255" rx="1.7466" transform="matrix(0.866025 -0.5 0.866025 0.5 356.348 279.326)" fill="#3AFEDB"/>
<rect width="9.08232" height="26.8899" rx="1.7466" transform="matrix(0.866025 -0.5 0.866025 0.5 373.007 276.944)" fill="#3AFEDB"/>
<rect width="9.08232" height="12.2627" rx="1.7466" transform="matrix(0.866025 -0.5 0.866025 0.5 396.067 278.256)" fill="#FF7A2F"/>
<rect width="9.08232" height="17.4345" rx="1.7466" transform="matrix(0.866025 -0.5 0.866025 0.5 401.982 269.671)" fill="#3AFEDB"/>
<ellipse cx="421.772" cy="270.04" rx="31.7867" ry="13.0175" fill="#3EAFEE" fill-opacity="0.49"/>
<g clip-path="url(#clip1_11276_33150)">
<path d="M390.654 258.169C398.508 253.634 409.131 251.071 420.187 251.041C431.244 251.012 441.827 253.52 449.609 258.013C456.877 262.209 460.871 267.619 461.598 273.141L464.047 273.135L467.646 271.057L512.996 270.937L512.934 278.792L467.584 278.912L464.017 276.853L461.568 276.859C460.754 282.386 456.675 287.816 449.34 292.051C441.486 296.585 430.863 299.149 419.807 299.178C408.751 299.207 398.167 296.699 390.385 292.206C382.603 287.713 378.259 281.603 378.31 275.22C378.36 268.836 382.801 262.703 390.654 258.169ZM399.683 263.381C388.293 269.957 388.211 280.43 399.496 286.946C410.782 293.462 428.922 293.414 440.311 286.838C451.701 280.263 451.784 269.789 440.498 263.274C429.212 256.758 411.072 256.806 399.683 263.381Z" fill="#52049F"/>
</g>
<path fill-rule="evenodd" clip-rule="evenodd" d="M390.352 255.432L392.879 247.727L416.246 244.57L442.897 247.727L450.602 252.906V259.853L429.129 254.548L397.678 257.453L388.837 261.748L390.352 255.432ZM378.479 263.769L378.479 277.031L399.826 293.578L431.656 295.346L454.518 282.463L457.928 274.758L456.993 271.704L461.513 273.733L461.513 264.742L456.945 271.547L456.033 268.569L432.414 282.463L406.267 282.463L386.942 269.326L378.479 263.769Z" fill="#52049F"/>
<g clip-path="url(#clip2_11276_33150)">
<g clip-path="url(#clip3_11276_33150)">
<path d="M390.654 246.393C398.508 241.858 409.131 239.295 420.187 239.265C431.244 239.236 441.827 241.744 449.609 246.237C456.877 250.433 460.871 255.843 461.598 261.365L464.047 261.359L467.646 259.281L512.996 259.161L512.934 267.016L467.584 267.136L464.017 265.077L461.568 265.083C460.754 270.61 456.675 276.04 449.34 280.275C441.486 284.809 430.863 287.373 419.807 287.402C408.751 287.431 398.167 284.923 390.385 280.43C382.603 275.937 378.259 269.827 378.31 263.444C378.36 257.06 382.801 250.927 390.654 246.393ZM399.683 251.605C388.293 258.181 388.211 268.654 399.496 275.17C410.782 281.686 428.922 281.638 440.311 275.062C451.701 268.487 451.784 258.013 440.498 251.498C429.212 244.982 411.072 245.03 399.683 251.605Z" fill="#9624EE"/>
<mask id="mask1_11276_33150" style="mask-type:alpha" maskUnits="userSpaceOnUse" x="378" y="239" width="135" height="49">
<path d="M390.654 246.393C398.508 241.858 409.131 239.295 420.187 239.265C431.244 239.236 441.827 241.744 449.609 246.237C456.877 250.433 460.871 255.843 461.598 261.365L464.047 261.359L467.646 259.281L512.996 259.161L512.934 267.016L467.584 267.136L464.017 265.077L461.568 265.083C460.754 270.61 456.675 276.04 449.34 280.275C441.486 284.809 430.863 287.373 419.807 287.402C408.751 287.431 398.167 284.923 390.385 280.43C382.603 275.937 378.259 269.827 378.31 263.444C378.36 257.06 382.801 250.927 390.654 246.393ZM399.683 251.605C388.293 258.181 388.211 268.654 399.496 275.17C410.782 281.686 428.922 281.638 440.311 275.062C451.701 268.487 451.784 258.013 440.498 251.498C429.212 244.982 411.072 245.03 399.683 251.605Z" fill="#9624EE"/>
</mask>
<g mask="url(#mask1_11276_33150)">
<g style="mix-blend-mode:overlay" filter="url(#filter7_f_11276_33150)">
<circle cx="382.693" cy="249.296" r="48.8613" fill="white" style="mix-blend-mode:lighten"/>
</g>
</g>
</g>
<path d="M463.883 265.027L467.647 267.066V278.828L463.883 276.789V265.027Z" fill="#52049F"/>
<rect x="467.562" y="266.858" width="45.3082" height="11.9698" fill="#710AD6"/>
</g>
<path d="M464.068 277.025V264.931H461.418V277.025H464.068Z" fill="#330164"/>
<path d="M288.855 383.232L143.941 301.023" stroke="url(#paint4_linear_11276_33150)" stroke-width="1.73255" stroke-linecap="round" stroke-linejoin="round" stroke-dasharray="3.47 3.47"/>
<path d="M317.292 367.061L289.897 384.275" stroke="url(#paint5_linear_11276_33150)" stroke-width="1.73255" stroke-linejoin="round" stroke-dasharray="3.47 3.47"/>
<path d="M318.822 365.604L315.398 372.983L306.043 367.581L318.822 365.604Z" fill="#9C51F6"/>
<path d="M246.161 242.15L144.279 300.723" stroke="#AA50FF" stroke-width="1.73255" stroke-linecap="round" stroke-linejoin="round" stroke-dasharray="3.47 3.47"/>
</g>
<defs>
<filter id="filter0_f_11276_33150" x="58.3059" y="-10.5911" width="504.055" height="437.563" filterUnits="userSpaceOnUse" color-interpolation-filters="sRGB">
<feFlood flood-opacity="0" result="BackgroundImageFix"/>
<feBlend mode="normal" in="SourceGraphic" in2="BackgroundImageFix" result="shape"/>
<feGaussianBlur stdDeviation="63.495" result="effect1_foregroundBlur_11276_33150"/>
</filter>
<filter id="filter1_b_11276_33150" x="24.5682" y="16.4542" width="559.411" height="377.178" filterUnits="userSpaceOnUse" color-interpolation-filters="sRGB">
<feFlood flood-opacity="0" result="BackgroundImageFix"/>
<feGaussianBlur in="BackgroundImageFix" stdDeviation="32.0606"/>
<feComposite in2="SourceAlpha" operator="in" result="effect1_backgroundBlur_11276_33150"/>
<feBlend mode="normal" in="SourceGraphic" in2="effect1_backgroundBlur_11276_33150" result="shape"/>
</filter>
<filter id="filter2_b_11276_33150" x="98.7379" y="66.4334" width="407.165" height="273.313" filterUnits="userSpaceOnUse" color-interpolation-filters="sRGB">
<feFlood flood-opacity="0" result="BackgroundImageFix"/>
<feGaussianBlur in="BackgroundImageFix" stdDeviation="22.6169"/>
<feComposite in2="SourceAlpha" operator="in" result="effect1_backgroundBlur_11276_33150"/>
<feBlend mode="normal" in="SourceGraphic" in2="effect1_backgroundBlur_11276_33150" result="shape"/>
</filter>
<filter id="filter3_d_11276_33150" x="173.733" y="131.774" width="257.167" height="154.26" filterUnits="userSpaceOnUse" color-interpolation-filters="sRGB">
<feFlood flood-opacity="0" result="BackgroundImageFix"/>
<feColorMatrix in="SourceAlpha" type="matrix" values="0 0 0 0 0 0 0 0 0 0 0 0 0 0 0 0 0 0 127 0" result="hardAlpha"/>
<feOffset dy="6.84365"/>
<feGaussianBlur stdDeviation="3.42183"/>
<feComposite in2="hardAlpha" operator="out"/>
<feColorMatrix type="matrix" values="0 0 0 0 0.432266 0 0 0 0 0.00354165 0 0 0 0 0.846458 0 0 0 1 0"/>
<feBlend mode="screen" in2="BackgroundImageFix" result="effect1_dropShadow_11276_33150"/>
<feBlend mode="normal" in="SourceGraphic" in2="effect1_dropShadow_11276_33150" result="shape"/>
</filter>
<filter id="filter4_f_11276_33150" x="224.106" y="36.1667" width="147.716" height="112.457" filterUnits="userSpaceOnUse" color-interpolation-filters="sRGB">
<feFlood flood-opacity="0" result="BackgroundImageFix"/>
<feBlend mode="normal" in="SourceGraphic" in2="BackgroundImageFix" result="shape"/>
<feGaussianBlur stdDeviation="16.6064" result="effect1_foregroundBlur_11276_33150"/>
</filter>
<filter id="filter5_d_11276_33150" x="130.692" y="56.7357" width="342.863" height="299.018" filterUnits="userSpaceOnUse" color-interpolation-filters="sRGB">
<feFlood flood-opacity="0" result="BackgroundImageFix"/>
<feColorMatrix in="SourceAlpha" type="matrix" values="0 0 0 0 0 0 0 0 0 0 0 0 0 0 0 0 0 0 127 0" result="hardAlpha"/>
<feOffset dy="8.24341"/>
<feGaussianBlur stdDeviation="49.5567"/>
<feComposite in2="hardAlpha" operator="out"/>
<feColorMatrix type="matrix" values="0 0 0 0 0.506336 0 0 0 0 0.118457 0 0 0 0 1 0 0 0 1 0"/>
<feBlend mode="soft-light" in2="BackgroundImageFix" result="effect1_dropShadow_11276_33150"/>
<feBlend mode="normal" in="SourceGraphic" in2="effect1_dropShadow_11276_33150" result="shape"/>
</filter>
<filter id="filter6_f_11276_33150" x="81.0175" y="8.38283" width="290.994" height="290.994" filterUnits="userSpaceOnUse" color-interpolation-filters="sRGB">
<feFlood flood-opacity="0" result="BackgroundImageFix"/>
<feBlend mode="normal" in="SourceGraphic" in2="BackgroundImageFix" result="shape"/>
<feGaussianBlur stdDeviation="48.3179" result="effect1_foregroundBlur_11276_33150"/>
</filter>
<filter id="filter7_f_11276_33150" x="237.196" y="103.799" width="290.994" height="290.994" filterUnits="userSpaceOnUse" color-interpolation-filters="sRGB">
<feFlood flood-opacity="0" result="BackgroundImageFix"/>
<feBlend mode="normal" in="SourceGraphic" in2="BackgroundImageFix" result="shape"/>
<feGaussianBlur stdDeviation="48.3179" result="effect1_foregroundBlur_11276_33150"/>
</filter>
<linearGradient id="paint0_linear_11276_33150" x1="121.966" y1="0" x2="121.966" y2="174.908" gradientUnits="userSpaceOnUse">
<stop stop-color="#6218FF" stop-opacity="0"/>
<stop offset="1" stop-color="#6117FF"/>
</linearGradient>
<linearGradient id="paint1_linear_11276_33150" x1="161.558" y1="175.247" x2="432.063" y2="363.412" gradientUnits="userSpaceOnUse">
<stop offset="0.015625" stop-color="#B010FB"/>
<stop offset="0.130208" stop-color="#DE97FF"/>
<stop offset="0.234375" stop-color="#A227DB"/>
<stop offset="0.505208" stop-color="#A227DB" stop-opacity="0"/>
<stop offset="0.765625" stop-color="#A610EC" stop-opacity="0.84"/>
</linearGradient>
<linearGradient id="paint2_linear_11276_33150" x1="230.967" y1="116.733" x2="316.491" y2="263.979" gradientUnits="userSpaceOnUse">
<stop offset="0.015625" stop-color="#B010FB"/>
<stop offset="0.130208" stop-color="#DE97FF"/>
<stop offset="0.234375" stop-color="#A227DB"/>
<stop offset="0.505208" stop-color="#A227DB" stop-opacity="0"/>
<stop offset="0.765625" stop-color="#A610EC" stop-opacity="0.84"/>
</linearGradient>
<linearGradient id="paint3_linear_11276_33150" x1="230.967" y1="116.733" x2="316.491" y2="263.98" gradientUnits="userSpaceOnUse">
<stop offset="0.015625" stop-color="#B010FB"/>
<stop offset="0.130208" stop-color="#DE97FF"/>
<stop offset="0.234375" stop-color="#A227DB"/>
<stop offset="0.505208" stop-color="#A227DB" stop-opacity="0"/>
<stop offset="0.765625" stop-color="#A610EC" stop-opacity="0.84"/>
</linearGradient>
<linearGradient id="paint4_linear_11276_33150" x1="189.901" y1="319.543" x2="252.254" y2="359.863" gradientUnits="userSpaceOnUse">
<stop stop-color="#AA50FF"/>
<stop offset="1" stop-color="white"/>
</linearGradient>
<linearGradient id="paint5_linear_11276_33150" x1="314.994" y1="367.061" x2="265.699" y2="400.823" gradientUnits="userSpaceOnUse">
<stop stop-color="#B970F9"/>
<stop offset="1" stop-color="#EAD8F9"/>
</linearGradient>
<clipPath id="clip0_11276_33150">
<rect width="603.494" height="450" fill="white" transform="translate(0.820801)"/>
</clipPath>
<clipPath id="clip1_11276_33150">
<rect width="126.252" height="125.104" fill="white" transform="matrix(0.866025 -0.5 0.866025 0.5 333.832 275.337)"/>
</clipPath>
<clipPath id="clip2_11276_33150">
<rect width="126.252" height="125.104" fill="white" transform="matrix(0.866025 -0.5 0.866025 0.5 333.832 263.561)"/>
</clipPath>
<clipPath id="clip3_11276_33150">
<rect width="92.0585" height="91.2216" fill="white" transform="matrix(0.866025 -0.5 0.866025 0.5 361.042 263.489)"/>
</clipPath>
</defs>
</svg>
