<svg width="371" height="232" viewBox="0 0 371 232" fill="none" xmlns="http://www.w3.org/2000/svg">
<rect x="1.03711" y="1.5" width="369" height="229" rx="7.5" fill="#161617"/>
<rect x="1.03711" y="1.5" width="369" height="229" rx="7.5" stroke="#252526"/>
<g clip-path="url(#clip0_11276_33859)">
<g filter="url(#filter0_b_11276_33859)">
<ellipse cx="77.7286" cy="77.7286" rx="77.7286" ry="77.7286" transform="matrix(1.12678 -0.277104 0.479958 0.650549 64.9678 92.0854)" fill="black" fill-opacity="0.08"/>
<path d="M272.838 94.1662C273.798 95.1543 274.711 96.1651 275.574 97.1981L275.373 97.2539C276.023 98.0315 276.644 98.8217 277.236 99.6242C277.828 100.427 278.385 101.233 278.906 102.042L279.114 101.997C279.807 103.072 280.437 104.153 281.006 105.237L280.793 105.274C281.671 106.947 282.404 108.63 282.993 110.317L283.211 110.292C283.604 111.414 283.933 112.538 284.201 113.663L283.981 113.681C284.392 115.408 284.656 117.137 284.779 118.861L285.001 118.856C285.082 119.998 285.1 121.138 285.057 122.274L284.835 122.271C284.77 124.011 284.56 125.743 284.211 127.46L284.432 127.475C284.201 128.609 283.91 129.736 283.559 130.856L283.34 130.833C282.804 132.542 282.128 134.234 281.317 135.902L281.531 135.936C280.997 137.034 280.405 138.121 279.755 139.197L279.545 139.155C278.556 140.793 277.433 142.403 276.181 143.98L276.383 144.034C275.561 145.069 274.683 146.09 273.751 147.095L273.555 147.034C272.138 148.562 270.595 150.052 268.93 151.499L269.115 151.57C268.025 152.517 266.882 153.447 265.688 154.356L265.511 154.279C263.702 155.657 261.775 156.99 259.734 158.27L259.898 158.357C258.565 159.194 257.184 160.008 255.755 160.799L255.601 160.707C253.444 161.901 251.178 163.042 248.808 164.123L248.946 164.224C247.404 164.928 245.817 165.607 244.187 166.259L244.06 166.154C241.61 167.134 239.063 168.055 236.422 168.91L236.53 169.022C234.819 169.576 233.068 170.103 231.279 170.601L231.182 170.485C229.836 170.86 228.467 171.219 227.077 171.561C225.687 171.903 224.29 172.224 222.889 172.525L222.966 172.645C221.105 173.045 219.234 173.409 217.356 173.737L217.291 173.614C214.393 174.122 211.478 174.544 208.556 174.885L208.6 175.011C206.656 175.237 204.709 175.427 202.761 175.582L202.73 175.455C199.738 175.692 196.744 175.845 193.757 175.916L193.766 176.044C191.789 176.09 189.814 176.101 187.846 176.077L187.851 175.948C184.837 175.91 181.838 175.789 178.863 175.588L178.837 175.715C176.874 175.582 174.922 175.414 172.982 175.211L173.022 175.085C170.061 174.775 167.131 174.385 164.242 173.917L164.182 174.041C162.281 173.732 160.398 173.39 158.535 173.015L158.608 172.894C155.771 172.323 152.982 171.675 150.25 170.952L150.157 171.068C148.364 170.594 146.596 170.087 144.855 169.548L144.96 169.435C142.315 168.617 139.734 167.727 137.228 166.765L137.105 166.872C135.463 166.243 133.853 165.583 132.278 164.894L132.412 164.791C130.025 163.747 127.717 162.634 125.499 161.456L125.348 161.551C123.9 160.781 122.489 159.984 121.119 159.159L121.279 159.07C119.21 157.824 117.235 156.516 115.362 155.148L115.187 155.228C113.968 154.337 112.792 153.421 111.662 152.48L111.845 152.407C110.146 150.992 108.552 149.522 107.071 147.997L106.877 148.059C105.917 147.071 105.004 146.06 104.141 145.027L104.342 144.972C103.692 144.194 103.071 143.404 102.479 142.601C101.887 141.799 101.33 140.993 100.809 140.184L100.601 140.228C99.9084 139.153 99.2782 138.073 98.7092 136.989L98.922 136.952C98.0437 135.278 97.3114 133.596 96.7216 131.908L96.5037 131.934C96.1113 130.811 95.7818 129.687 95.5142 128.562L95.7345 128.545C95.3234 126.817 95.0587 125.089 94.9365 123.364L94.7143 123.37C94.6334 122.228 94.6149 121.088 94.6576 119.951L94.8799 119.954C94.9454 118.214 95.1548 116.483 95.5043 114.765L95.2834 114.75C95.514 113.617 95.8054 112.49 96.1565 111.37L96.3753 111.393C96.9114 109.683 97.587 107.992 98.3981 106.324L98.184 106.289C98.7177 105.192 99.31 104.104 99.9596 103.029L100.17 103.071C101.159 101.433 102.282 99.8224 103.534 98.2454L103.332 98.1919C104.154 97.1565 105.032 96.1356 105.965 95.1306L106.161 95.1912C107.577 93.6641 109.12 92.1741 110.785 90.727L110.6 90.6559C111.69 89.7081 112.833 88.7787 114.027 87.8692L114.204 87.9467C116.013 86.5684 117.94 85.2361 119.981 83.9553L119.817 83.8684C121.15 83.0319 122.531 82.2174 123.96 81.4264L124.114 81.519C126.271 80.3246 128.537 79.1839 130.907 78.1026L130.769 78.0018C132.311 77.2979 133.898 76.619 135.528 75.9666L135.655 76.0721C138.105 75.0915 140.652 74.1711 143.293 73.3158L143.185 73.2038C144.896 72.6497 146.647 72.1228 148.436 71.6246L148.533 71.7402C149.879 71.3652 151.248 71.0065 152.638 70.6647C154.028 70.3228 155.425 70.0016 156.826 69.7007L156.749 69.5804C158.61 69.1807 160.481 68.8168 162.359 68.4883L162.424 68.6111C165.322 68.1041 168.237 67.6813 171.159 67.3408L171.115 67.2149C173.059 66.9884 175.006 66.7982 176.954 66.6437L176.985 66.7708C179.977 66.5335 182.971 66.3806 185.958 66.3101L185.949 66.1818C187.926 66.1351 189.901 66.1244 191.869 66.1491L191.864 66.2774C194.878 66.3152 197.877 66.4361 200.852 66.6379L200.878 66.5104C202.841 66.6435 204.793 66.8118 206.733 67.0145L206.693 67.1408C209.654 67.4503 212.584 67.8404 215.473 68.3087L215.533 68.1851C217.434 68.4932 219.317 68.8351 221.18 69.2102L221.107 69.3314C223.944 69.9027 226.734 70.5511 229.465 71.2741L229.558 71.1574C231.351 71.6321 233.119 72.1389 234.86 72.6772L234.755 72.7903C237.4 73.6083 239.981 74.499 242.487 75.4603L242.61 75.3534C244.252 75.9829 245.862 76.6427 247.437 77.3319L247.303 77.4342C249.69 78.4788 251.998 79.5913 254.216 80.7695L254.367 80.675C255.816 81.4446 257.226 82.2421 258.596 83.0669L258.436 83.1557C260.505 84.4013 262.48 85.7092 264.353 87.0774L264.528 86.9978C265.747 87.8885 266.923 88.8047 268.053 89.7457L267.87 89.8188C269.569 91.2332 271.163 92.704 272.644 94.229L272.838 94.1662Z" stroke="#9178D6" stroke-width="0.363102" stroke-linejoin="round" stroke-dasharray="7.04 4.61"/>
</g>
<g filter="url(#filter1_d_11276_33859)">
<path d="M242.752 105.983C248.987 114.683 248.987 124.521 242.752 133.221L242.341 133.123C239.356 137.289 234.93 141.192 229.064 144.58C223.197 147.967 216.437 150.522 209.221 152.245L209.391 152.483C194.322 156.082 177.281 156.082 162.212 152.483L162.382 152.245C155.167 150.522 148.406 147.967 142.54 144.58C136.673 141.193 132.247 137.289 129.262 133.123L128.851 133.221C122.616 124.521 122.616 114.683 128.851 105.983L129.262 106.081C132.247 101.915 136.673 98.0118 142.54 94.6247C148.406 91.2377 155.167 88.6826 162.382 86.9589L162.212 86.7217C177.281 83.1221 194.322 83.1221 209.391 86.7217L209.221 86.9589C216.437 88.6826 223.197 91.2376 229.064 94.6247C234.93 98.0118 239.356 101.915 242.341 106.081L242.752 105.983Z" stroke="#5F00E8" stroke-width="0.726205" stroke-linejoin="round" stroke-dasharray="28.01 28.01" shape-rendering="crispEdges"/>
</g>
<g opacity="0.7" filter="url(#filter2_f_11276_33859)">
<rect width="124.792" height="89.48" transform="matrix(-0.999351 -0.0360302 -0.0360302 0.999351 253.477 80.2598)" fill="url(#paint0_linear_11276_33859)"/>
</g>
<path d="M285.282 85.5031L254.287 94.5806L278.096 99.2376L285.282 85.5031Z" fill="#3FA9F5"/>
<path d="M282.057 87.2574C275.05 80.0423 265.517 73.7491 254.065 68.7786C242.613 63.8082 229.494 60.2695 215.542 58.3882C201.591 56.5068 187.113 56.324 173.033 57.8514C158.952 59.3788 145.577 62.5829 133.76 67.2595L148.889 80.0029C157.641 76.5394 167.546 74.1665 177.974 73.0354C188.402 71.9042 199.123 72.0396 209.456 73.4329C219.788 74.8262 229.504 77.4469 237.985 81.1279C246.467 84.8089 253.526 89.4696 258.715 94.813L282.057 87.2574Z" fill="#3FA9F5"/>
<path d="M177.386 185.304L183.371 165.538L162.647 173.753L177.386 185.304Z" fill="#F67447"/>
<path d="M176.886 182.762C191.089 183.847 205.528 183.212 219.283 180.897C233.037 178.582 245.805 174.638 256.774 169.317C267.743 163.996 276.672 157.414 282.991 149.99C289.31 142.566 292.882 134.464 293.478 126.2L266.742 125.557C266.3 131.677 263.655 137.678 258.975 143.175C254.295 148.673 247.683 153.548 239.559 157.489C231.436 161.43 221.98 164.35 211.794 166.065C201.607 167.779 190.914 168.25 180.395 167.446L176.886 182.762Z" fill="#F67447"/>
<path d="M95.2492 83.468L121.622 96.5367L119.979 82.0544L95.2492 83.468Z" fill="#5C3DE0"/>
<path d="M99.2896 84.5186C90.4182 91.0137 83.9875 98.5046 80.4074 106.514C76.8272 114.523 76.1761 122.875 78.4955 131.038C80.815 139.2 86.0541 146.994 93.879 153.923C101.704 160.852 111.943 166.764 123.944 171.282L140.02 157.098C131.133 153.752 123.55 149.374 117.755 144.242C111.96 139.111 108.08 133.338 106.362 127.293C104.644 121.248 105.127 115.063 107.778 109.131C110.429 103.2 113.732 98.8953 120.302 94.0851L99.2896 84.5186Z" fill="#5C3DE0"/>
<g filter="url(#filter3_f_11276_33859)">
<path d="M285.282 85.5031L254.287 94.5806L278.096 99.2376L285.282 85.5031Z" fill="#3FA9F5"/>
<path d="M282.057 87.2574C275.05 80.0423 265.517 73.7491 254.065 68.7786C242.613 63.8082 229.494 60.2695 215.542 58.3882C201.591 56.5068 187.113 56.324 173.033 57.8514C158.952 59.3788 145.577 62.5829 133.76 67.2595L148.889 80.0029C157.641 76.5394 167.546 74.1665 177.974 73.0354C188.402 71.9042 199.123 72.0396 209.456 73.4329C219.788 74.8262 229.504 77.4469 237.985 81.1279C246.467 84.8089 253.526 89.4696 258.715 94.813L282.057 87.2574Z" fill="#3FA9F5"/>
<path d="M177.386 185.304L183.371 165.538L162.647 173.753L177.386 185.304Z" fill="#F67447"/>
<path d="M176.886 182.762C191.089 183.847 205.528 183.212 219.283 180.897C233.037 178.582 245.805 174.638 256.774 169.317C267.743 163.996 276.672 157.414 282.991 149.99C289.31 142.566 292.882 134.464 293.478 126.2L266.742 125.557C266.3 131.677 263.655 137.678 258.975 143.175C254.295 148.673 247.683 153.548 239.559 157.489C231.436 161.43 221.98 164.35 211.794 166.065C201.607 167.779 190.914 168.25 180.395 167.446L176.886 182.762Z" fill="#F67447"/>
<path d="M95.2492 83.468L121.622 96.5367L119.979 82.0544L95.2492 83.468Z" fill="#5C3DE0"/>
<path d="M99.2896 84.5186C90.4182 91.0137 83.9875 98.5046 80.4074 106.514C76.8272 114.523 76.1761 122.875 78.4955 131.038C80.815 139.2 86.0541 146.994 93.879 153.923C101.704 160.852 111.943 166.764 123.944 171.282L140.02 157.098C131.133 153.752 123.55 149.374 117.755 144.242C111.96 139.111 108.08 133.338 106.362 127.293C104.644 121.248 105.127 115.063 107.778 109.131C110.429 103.2 113.732 98.8953 120.302 94.0851L99.2896 84.5186Z" fill="#5C3DE0"/>
</g>
<path d="M150.12 167.057C150.12 170.247 147.859 173.187 144.089 175.345C140.328 177.498 135.113 178.838 129.339 178.838C123.565 178.838 118.351 177.498 114.589 175.345C110.82 173.187 108.559 170.247 108.559 167.057C108.559 163.867 110.82 160.927 114.589 158.77C118.351 156.617 123.565 155.276 129.339 155.276C135.113 155.276 140.328 156.617 144.089 158.77C147.859 160.927 150.12 163.867 150.12 167.057Z" fill="#0B0115" stroke="#5C3DE0" stroke-width="0.535728"/>
<path fill-rule="evenodd" clip-rule="evenodd" d="M129.071 176.51C139.092 176.51 147.216 171.859 147.216 166.123C147.216 166.122 147.216 166.122 147.216 166.122L147.217 166.122L147.217 157.786L139.898 157.786C136.875 156.498 133.129 155.735 129.071 155.735C125.013 155.735 121.266 156.498 118.244 157.786L110.925 157.786L110.925 166.087C110.925 166.099 110.925 166.111 110.925 166.123C110.925 171.859 119.049 176.51 129.071 176.51Z" fill="#131215"/>
<ellipse cx="129.071" cy="157.147" rx="18.1456" ry="10.3873" fill="#27252A"/>
<g filter="url(#filter4_f_11276_33859)">
<ellipse cx="129.071" cy="160.66" rx="18.1456" ry="10.3873" fill="#27252A"/>
</g>
<g clip-path="url(#clip1_11276_33859)">
<path d="M120.297 154.363L121.716 155.182C120.738 156.431 120.738 157.862 121.709 159.115L120.297 159.93L124.429 162.315L125.847 161.496C128.01 162.061 130.496 162.065 132.658 161.5L134.07 162.315L138.201 159.93L136.783 159.111C137.761 157.862 137.768 156.427 136.79 155.178L138.201 154.363L134.07 151.978L132.651 152.797C130.489 152.232 128.01 152.232 125.841 152.793L124.429 151.978M123.052 154.363L124.429 153.568L125.806 154.363L124.429 155.159M123.224 156.053L124.429 156.749L128.561 154.363L127.356 153.668C128.588 153.441 129.91 153.441 131.143 153.668L129.938 154.363L134.07 156.749L135.275 156.053C135.667 156.765 135.667 157.528 135.275 158.24L134.07 157.544L129.938 159.93L131.143 160.625C129.91 160.852 128.588 160.852 127.356 160.625L128.561 159.93L124.429 157.544L123.224 158.24C122.831 157.528 122.831 156.765 123.224 156.053ZM123.052 159.93L124.429 159.134L125.806 159.93L124.429 160.725M132.692 154.363L134.07 153.568L135.447 154.363L134.07 155.159M132.692 159.93L134.07 159.134L135.447 159.93L134.07 160.725" fill="white"/>
</g>
<path d="M172.336 67.4645C172.336 70.6543 170.075 73.5943 166.306 75.7519C162.545 77.9052 157.33 79.2455 151.556 79.2455C145.782 79.2455 140.567 77.9052 136.806 75.7519C133.037 73.5943 130.776 70.6543 130.776 67.4645C130.776 64.2746 133.037 61.3346 136.806 59.177C140.567 57.0238 145.782 55.6834 151.556 55.6834C157.33 55.6834 162.545 57.0238 166.306 59.177C170.075 61.3346 172.336 64.2746 172.336 67.4645Z" fill="#0B0115" stroke="#3FA9F5" stroke-width="0.535728"/>
<path fill-rule="evenodd" clip-rule="evenodd" d="M151.288 76.9168C161.309 76.9168 169.433 72.2662 169.433 66.5294C169.433 66.5293 169.433 66.5292 169.433 66.5291L169.433 66.5291L169.433 58.1932L162.115 58.1932C159.093 56.9047 155.346 56.1421 151.288 56.1421C147.23 56.1421 143.483 56.9047 140.46 58.1932L133.142 58.1932L133.142 66.4795C133.142 66.4961 133.142 66.5128 133.142 66.5294C133.142 72.2662 141.266 76.9168 151.288 76.9168Z" fill="#131215"/>
<ellipse cx="151.288" cy="57.5534" rx="18.1456" ry="10.3873" fill="#27252A"/>
<g filter="url(#filter5_f_11276_33859)">
<ellipse cx="151.288" cy="61.0675" rx="18.1456" ry="10.3873" fill="#27252A"/>
</g>
<g clip-path="url(#clip2_11276_33859)">
<path d="M142.74 55.9279C142.609 55.852 142.43 55.8093 142.244 55.8093C142.058 55.8093 141.88 55.852 141.748 55.9279C141.617 56.0039 141.543 56.1069 141.543 56.2143C141.543 56.3217 141.617 56.4248 141.748 56.5007L143.733 57.6463L142.74 58.2191L145.717 59.9374L148.693 58.2191L145.717 56.5007L144.725 57.0735L142.74 55.9279ZM151.669 58.7918C152.314 59.1641 153.276 59.2386 154.06 59.0267L156.134 60.2238L157.126 59.651L155.052 58.4539C155.424 58.0043 155.295 57.4487 154.645 57.0735L153.653 56.5007L150.677 58.2191L151.669 58.7918ZM147.701 61.083C148.346 61.4553 149.308 61.5297 150.092 61.3178L152.165 62.5149L153.157 61.9421L151.084 60.745C151.451 60.2925 151.322 59.7369 150.677 59.3646L149.685 58.7918L146.709 60.5102L147.701 61.083ZM152.661 52.4913L150.677 51.3457C150.546 51.2698 150.367 51.2271 150.181 51.2271C149.995 51.2271 149.817 51.2698 149.685 51.3457C149.553 51.4217 149.48 51.5247 149.48 51.6321C149.48 51.7395 149.553 51.8425 149.685 51.9185L151.669 53.064L150.677 53.6368L153.653 55.3552L156.63 53.6368L153.653 51.9185L152.661 52.4913ZM146.709 53.6368C146.577 53.5609 146.399 53.5182 146.213 53.5182C146.027 53.5182 145.848 53.5609 145.717 53.6368C145.585 53.7128 145.511 53.8158 145.511 53.9232C145.511 54.0306 145.585 54.1336 145.717 54.2096L147.701 55.3552L146.709 55.9279L149.685 57.6463L152.661 55.9279L149.685 54.2096L148.693 54.7824L146.709 53.6368ZM155.638 56.5007C156.282 56.873 157.245 56.9475 158.028 56.7356L160.102 57.9327L161.094 57.3599L159.021 56.1628C159.393 55.7131 159.264 55.1576 158.614 54.7824L157.622 54.2096L154.645 55.9279L155.638 56.5007Z" fill="white"/>
</g>
<g filter="url(#filter6_d_11276_33859)">
<path d="M159.149 137.036C152.211 133.031 148.313 127.598 148.313 121.934C148.313 116.269 152.211 110.836 159.149 106.831L185.31 91.7284L211.47 106.831C218.409 110.836 222.307 116.269 222.307 121.934C222.307 127.598 218.409 133.031 211.47 137.036C204.532 141.042 195.122 143.292 185.31 143.292C175.498 143.292 166.087 141.042 159.149 137.036V137.036Z" fill="#0A41CF"/>
</g>
<path d="M185.666 124.817L133.862 95.5646L185.666 65.0938L236.857 95.5646L185.666 124.817Z" fill="#6400CA" stroke="url(#paint1_linear_11276_33859)" stroke-width="0.673368"/>
<path d="M185.414 125.059L185.414 157.343L133.523 126.754L133.523 95.3813L185.414 125.059Z" fill="#4A0292"/>
<path d="M185.311 124.638L185.311 156.976L237.632 126.782L237.632 95.4438L185.311 124.638Z" fill="#3C0077"/>
<mask id="mask0_11276_33859" style="mask-type:alpha" maskUnits="userSpaceOnUse" x="133" y="64" width="105" height="62">
<path d="M185.666 124.817L133.862 95.5646L185.666 65.0938L236.857 95.5646L185.666 124.817Z" fill="#6400CA" stroke="url(#paint2_linear_11276_33859)" stroke-width="0.673368"/>
</mask>
<g mask="url(#mask0_11276_33859)">
<path d="M180.361 93.1019C180.368 92.3741 181.374 91.7929 182.61 91.8037L187.688 91.848C188.924 91.8588 189.92 92.4575 189.914 93.1853L189.888 96.1768C189.881 96.9045 188.875 97.4857 187.639 97.475L182.561 97.4306C181.325 97.4199 180.329 96.8212 180.335 96.0934L180.361 93.1019Z" fill="#A950FF"/>
<path d="M192.097 86.3027C192.103 85.5879 193.092 85.0171 194.305 85.0277L199.464 85.0727C200.677 85.0833 201.656 85.6713 201.649 86.386L201.623 89.4247C201.617 90.1394 200.628 90.7102 199.415 90.6996L194.256 90.6546C193.043 90.644 192.064 90.056 192.07 89.3413L192.097 86.3027Z" fill="#A950FF"/>
<path d="M168.746 86.0991C168.752 85.3844 169.741 84.8135 170.954 84.8241L176.113 84.8691C177.326 84.8797 178.305 85.4677 178.299 86.1825L178.272 89.2211C178.266 89.9358 177.277 90.5067 176.064 90.4961L170.905 90.4511C169.692 90.4405 168.713 89.8525 168.72 89.1377L168.746 86.0991Z" fill="#E9C1FF"/>
<path d="M176.014 91.7459C177.249 91.7566 178.245 92.3553 178.239 93.0831L178.213 96.0746C178.207 96.8024 177.2 97.3836 175.964 97.3728L170.886 97.3285C169.65 97.3177 168.654 96.719 168.66 95.9912L168.686 92.9997C168.693 92.272 169.7 91.6908 170.935 91.7015L176.014 91.7459Z" fill="#CD88FF"/>
<path d="M175.993 98.6235C177.206 98.6341 178.185 99.2221 178.179 99.9369L178.152 102.976C178.146 103.69 177.157 104.261 175.944 104.25L170.785 104.205C169.572 104.195 168.593 103.607 168.6 102.892L168.626 99.8535C168.632 99.1388 169.621 98.5679 170.834 98.5785L175.993 98.6235Z" fill="#A950FF"/>
<path d="M187.749 84.9706C188.984 84.9814 189.981 85.5801 189.974 86.3078L189.948 89.2994C189.942 90.0271 188.935 90.6083 187.7 90.5976L182.621 90.5532C181.385 90.5425 180.389 89.9437 180.395 89.216L180.422 86.2245C180.428 85.4967 181.435 84.9155 182.67 84.9263L187.749 84.9706Z" fill="#CD88FF"/>
<path d="M197.307 98.9998C200.067 99.0239 202.293 100.361 202.279 101.987C202.265 103.613 200.016 104.912 197.256 104.888C194.496 104.863 192.269 103.526 192.284 101.9C192.298 100.274 194.547 98.9757 197.307 98.9998Z" fill="#F62E76"/>
<g style="mix-blend-mode:overlay" filter="url(#filter7_f_11276_33859)">
<circle cx="146.63" cy="94.9381" r="24.9967" fill="white" style="mix-blend-mode:lighten"/>
</g>
</g>
<path d="M299.426 129.084C299.426 132.274 297.165 135.214 293.396 137.372C289.635 139.525 284.42 140.865 278.646 140.865C272.872 140.865 267.657 139.525 263.896 137.372C260.127 135.214 257.866 132.274 257.866 129.084C257.866 125.894 260.127 122.954 263.896 120.797C267.657 118.643 272.872 117.303 278.646 117.303C284.42 117.303 289.635 118.643 293.396 120.797C297.165 122.954 299.426 125.894 299.426 129.084Z" fill="#0B0115" stroke="#F67348" stroke-width="0.535728"/>
<path fill-rule="evenodd" clip-rule="evenodd" d="M278.378 138.536C288.399 138.536 296.523 133.886 296.523 128.149C296.523 128.137 296.523 128.125 296.523 128.114L296.523 119.813L289.205 119.813C286.183 118.524 282.436 117.762 278.378 117.762C274.32 117.762 270.573 118.524 267.55 119.813L260.232 119.813L260.232 128.149L260.232 128.149C260.232 128.149 260.232 128.149 260.232 128.149C260.232 133.886 268.356 138.536 278.378 138.536Z" fill="#131215"/>
<ellipse cx="278.378" cy="119.173" rx="18.1456" ry="10.3873" fill="#27252A"/>
<g filter="url(#filter8_f_11276_33859)">
<ellipse cx="278.378" cy="122.687" rx="18.1456" ry="10.3873" fill="#27252A"/>
</g>
<g clip-path="url(#clip3_11276_33859)">
<path d="M285.156 116.891C285.077 116.936 284.999 116.981 284.944 117.04L282.011 116.469C282.011 116.155 281.812 115.831 281.384 115.584C280.551 115.103 279.199 115.103 278.366 115.584C278.287 115.629 278.215 115.671 278.155 115.734L275.209 115.169C275.227 114.845 275.022 114.525 274.594 114.277C273.761 113.796 272.409 113.796 271.576 114.277C270.743 114.758 270.743 115.539 271.576 116.019C272.004 116.267 272.56 116.385 273.115 116.378L274.099 118.075C273.99 118.11 273.918 118.152 273.839 118.197C273.006 118.678 273.006 119.459 273.839 119.94C274.268 120.187 274.829 120.302 275.372 120.302L276.362 121.995C276.259 122.027 276.181 122.072 276.103 122.117C275.27 122.598 275.27 123.379 276.103 123.86C276.935 124.341 278.287 124.341 279.12 123.86C279.953 123.379 279.953 122.598 279.12 122.117C278.698 121.873 278.136 121.752 277.581 121.759L276.597 120.062C276.706 120.027 276.778 119.985 276.857 119.94C276.935 119.894 277.008 119.852 277.068 119.79L280.013 120.354C280.001 120.675 280.207 121.002 280.629 121.246C281.462 121.727 282.814 121.727 283.647 121.246C284.48 120.765 284.48 119.985 283.647 119.504C282.814 119.023 281.462 119.023 280.629 119.504C280.551 119.549 280.472 119.595 280.418 119.654L277.485 119.082C277.491 118.765 277.285 118.445 276.857 118.197C276.428 117.95 275.873 117.831 275.324 117.835L274.334 116.141C274.437 116.11 274.515 116.065 274.594 116.019C274.672 115.974 274.751 115.929 274.805 115.87L277.738 116.441C277.738 116.755 277.943 117.082 278.366 117.326C279.199 117.807 280.551 117.807 281.384 117.326C281.462 117.281 281.534 117.239 281.595 117.176L284.54 117.741C284.528 118.061 284.733 118.389 285.156 118.633C285.989 119.114 287.34 119.114 288.173 118.633C289.006 118.152 289.006 117.371 288.173 116.891C287.34 116.41 285.989 116.41 285.156 116.891Z" fill="white"/>
</g>
<rect x="215.502" y="56.2311" width="39.5216" height="7.88628" rx="3.94314" fill="#111113"/>
<rect x="215.502" y="56.2311" width="39.5216" height="7.88628" rx="3.94314" stroke="#3FA9F5" stroke-width="0.178117"/>
<path d="M219.771 61.7254C219.597 61.7254 219.434 61.6942 219.281 61.6317C219.13 61.5692 218.997 61.477 218.88 61.3549C218.767 61.2327 218.677 61.0822 218.612 60.9033C218.55 60.7244 218.518 60.52 218.518 60.29C218.518 59.9861 218.574 59.7263 218.684 59.5105C218.798 59.2918 218.951 59.1257 219.144 59.0121C219.34 58.8957 219.56 58.8375 219.805 58.8375C219.978 58.8375 220.133 58.873 220.269 58.944C220.405 59.015 220.516 59.0959 220.601 59.1868L220.329 59.4934C220.26 59.4225 220.184 59.3671 220.099 59.3273C220.013 59.2876 219.915 59.2677 219.805 59.2677C219.651 59.2677 219.515 59.3089 219.396 59.3912C219.279 59.4707 219.188 59.5857 219.123 59.7362C219.058 59.8867 219.025 60.0671 219.025 60.2772C219.025 60.4873 219.058 60.6691 219.123 60.8224C219.188 60.9758 219.281 61.0936 219.4 61.176C219.519 61.2555 219.658 61.2952 219.817 61.2952C219.934 61.2952 220.037 61.2711 220.128 61.2228C220.219 61.1717 220.304 61.1035 220.384 61.0184L220.657 61.3208C220.546 61.4514 220.417 61.5522 220.269 61.6232C220.121 61.6914 219.955 61.7254 219.771 61.7254ZM222.095 61.7254C221.91 61.7254 221.738 61.6828 221.579 61.5976C221.42 61.5096 221.291 61.3847 221.192 61.2228C221.092 61.0581 221.042 60.8607 221.042 60.6307C221.042 60.3979 221.092 60.2005 221.192 60.0387C221.291 59.874 221.42 59.749 221.579 59.6638C221.738 59.5758 221.91 59.5318 222.095 59.5318C222.279 59.5318 222.451 59.5758 222.61 59.6638C222.769 59.749 222.898 59.874 222.998 60.0387C223.097 60.2005 223.147 60.3979 223.147 60.6307C223.147 60.8607 223.097 61.0581 222.998 61.2228C222.898 61.3847 222.769 61.5096 222.61 61.5976C222.451 61.6828 222.279 61.7254 222.095 61.7254ZM222.095 61.325C222.208 61.325 222.306 61.2966 222.389 61.2398C222.471 61.1831 222.533 61.1021 222.576 60.9971C222.619 60.892 222.64 60.7699 222.64 60.6307C222.64 60.4916 222.619 60.3695 222.576 60.2644C222.533 60.1593 222.471 60.0784 222.389 60.0216C222.306 59.962 222.208 59.9322 222.095 59.9322C221.981 59.9322 221.883 59.962 221.801 60.0216C221.721 60.0784 221.659 60.1593 221.613 60.2644C221.571 60.3695 221.549 60.4916 221.549 60.6307C221.549 60.7699 221.571 60.892 221.613 60.9971C221.659 61.1021 221.721 61.1831 221.801 61.2398C221.883 61.2966 221.981 61.325 222.095 61.325ZM223.72 61.6743L223.72 59.5829L224.125 59.5829L224.163 59.8981L224.18 59.8981C224.279 59.7959 224.389 59.7093 224.508 59.6383C224.63 59.5673 224.772 59.5318 224.934 59.5318C225.175 59.5318 225.353 59.6056 225.466 59.7533C225.58 59.9009 225.637 60.1097 225.637 60.3794L225.637 61.6743L225.143 61.6743L225.143 60.4433C225.143 60.2758 225.113 60.1522 225.053 60.0727C224.994 59.9932 224.893 59.9535 224.751 59.9535C224.649 59.9535 224.558 59.9776 224.478 60.0259C224.399 60.0742 224.311 60.148 224.214 60.2474L224.214 61.6743L223.72 61.6743ZM226.896 61.6743L226.896 59.4679C226.896 59.3032 226.927 59.1569 226.99 59.0292C227.052 58.8985 227.149 58.7977 227.279 58.7267C227.41 58.6529 227.578 58.616 227.782 58.616C227.896 58.616 228.003 58.6273 228.106 58.6501C228.211 58.6699 228.31 58.6969 228.404 58.731L228.302 59.0931C228.225 59.0618 228.15 59.0391 228.076 59.0249C228.005 59.0107 227.927 59.0036 227.842 59.0036C227.683 59.0036 227.566 59.0434 227.492 59.1229C227.419 59.1995 227.382 59.3117 227.382 59.4594L227.382 61.6743L226.896 61.6743ZM226.317 59.9705L226.317 59.6042L226.909 59.5829L228.178 59.5829L228.178 59.9705L226.317 59.9705ZM229.744 61.6743L229.744 59.9705L228.837 59.9705L228.837 59.5829L230.234 59.5829L230.234 61.6743L229.744 61.6743ZM229.953 59.1995C229.853 59.1995 229.77 59.1697 229.701 59.1101C229.636 59.0505 229.603 58.9709 229.603 58.8716C229.603 58.7722 229.636 58.6927 229.701 58.633C229.77 58.5705 229.853 58.5393 229.953 58.5393C230.055 58.5393 230.139 58.5705 230.204 58.633C230.269 58.6927 230.302 58.7722 230.302 58.8716C230.302 58.9709 230.269 59.0505 230.204 59.1101C230.139 59.1697 230.055 59.1995 229.953 59.1995ZM232.251 62.5986C232.058 62.5986 231.891 62.5773 231.749 62.5347C231.607 62.495 231.496 62.4339 231.416 62.3516C231.337 62.2692 231.297 62.1656 231.297 62.0406C231.297 61.9583 231.325 61.8788 231.382 61.8021C231.439 61.7254 231.521 61.6587 231.629 61.6019L231.629 61.5849C231.575 61.5508 231.526 61.5068 231.48 61.4528C231.438 61.396 231.416 61.3236 231.416 61.2356C231.416 61.1674 231.439 61.0979 231.484 61.0269C231.53 60.9559 231.591 60.8948 231.668 60.8437L231.668 60.8267C231.594 60.7727 231.53 60.7003 231.476 60.6094C231.425 60.5157 231.399 60.4078 231.399 60.2857C231.399 60.1239 231.439 59.9875 231.519 59.8768C231.598 59.7632 231.703 59.678 231.834 59.6212C231.964 59.5616 232.106 59.5318 232.26 59.5318C232.385 59.5318 232.494 59.5488 232.588 59.5829L233.444 59.5829L233.444 59.9577L232.962 59.9577C232.999 59.9975 233.031 60.0486 233.056 60.1111C233.085 60.1707 233.099 60.2346 233.099 60.3028C233.099 60.4561 233.06 60.5867 232.984 60.6946C232.91 60.7997 232.811 60.8792 232.686 60.9332C232.561 60.9871 232.419 61.0141 232.26 61.0141C232.211 61.0141 232.159 61.0098 232.102 61.0013C232.048 60.99 231.994 60.9743 231.94 60.9545C231.898 60.98 231.865 61.0084 231.842 61.0396C231.822 61.0709 231.812 61.1078 231.812 61.1504C231.812 61.2157 231.845 61.2654 231.91 61.2995C231.979 61.3307 232.078 61.3463 232.209 61.3463L232.634 61.3463C232.907 61.3463 233.112 61.3861 233.248 61.4656C233.387 61.5423 233.457 61.6729 233.457 61.8575C233.457 61.9938 233.407 62.1187 233.308 62.2323C233.211 62.3459 233.072 62.4353 232.89 62.5007C232.711 62.566 232.498 62.5986 232.251 62.5986ZM232.26 60.7031C232.333 60.7031 232.4 60.6875 232.46 60.6563C232.519 60.6222 232.566 60.5739 232.6 60.5115C232.637 60.449 232.656 60.3737 232.656 60.2857C232.656 60.2005 232.637 60.1281 232.6 60.0685C232.566 60.006 232.519 59.9577 232.46 59.9237C232.4 59.8896 232.333 59.8725 232.26 59.8725C232.189 59.8725 232.123 59.8896 232.064 59.9237C232.004 59.9577 231.956 60.006 231.919 60.0685C231.882 60.1281 231.864 60.2005 231.864 60.2857C231.864 60.3737 231.882 60.449 231.919 60.5115C231.956 60.5739 232.004 60.6222 232.064 60.6563C232.123 60.6875 232.189 60.7031 232.26 60.7031ZM232.311 62.2749C232.447 62.2749 232.565 62.2593 232.664 62.2281C232.767 62.1968 232.845 62.1556 232.899 62.1045C232.955 62.0534 232.984 61.998 232.984 61.9384C232.984 61.8561 232.948 61.8007 232.877 61.7723C232.809 61.7467 232.704 61.7339 232.562 61.7339L232.23 61.7339C232.162 61.7339 232.102 61.7311 232.051 61.7254C232 61.7198 231.953 61.7127 231.91 61.7041C231.837 61.7467 231.784 61.7907 231.753 61.8362C231.722 61.8816 231.706 61.9285 231.706 61.9767C231.706 62.0705 231.758 62.1429 231.864 62.194C231.969 62.2479 232.118 62.2749 232.311 62.2749ZM234.584 61.7254C234.339 61.7254 234.162 61.6516 234.051 61.5039C233.941 61.3563 233.885 61.1476 233.885 60.8778L233.885 59.5829L234.375 59.5829L234.375 60.8139C234.375 60.9814 234.403 61.105 234.46 61.1845C234.52 61.264 234.622 61.3037 234.767 61.3037C234.863 61.3037 234.951 61.281 235.031 61.2356C235.113 61.1873 235.2 61.1064 235.291 60.9928L235.291 59.5829L235.781 59.5829L235.781 61.6743L235.38 61.6743L235.342 61.3421L235.325 61.3421C235.225 61.4557 235.116 61.548 234.997 61.6189C234.878 61.6899 234.74 61.7254 234.584 61.7254ZM236.695 61.6743L236.695 59.5829L237.099 59.5829L237.142 60.0557L237.155 60.0557C237.26 59.8853 237.389 59.7561 237.542 59.6681C237.699 59.5772 237.866 59.5318 238.045 59.5318C238.13 59.5318 238.204 59.5389 238.267 59.5531C238.329 59.5673 238.39 59.5886 238.45 59.617L238.347 60.0301C238.279 60.0074 238.218 59.9918 238.164 59.9833C238.113 59.9719 238.048 59.9663 237.968 59.9663C237.826 59.9663 237.687 60.0074 237.551 60.0898C237.417 60.1721 237.297 60.3155 237.189 60.52L237.189 61.6743L236.695 61.6743ZM239.696 61.7254C239.56 61.7254 239.439 61.6999 239.334 61.6488C239.229 61.5948 239.147 61.5224 239.087 61.4315C239.027 61.3407 238.997 61.2342 238.997 61.1121C238.997 60.8792 239.108 60.7017 239.33 60.5796C239.554 60.4547 239.925 60.3737 240.441 60.3368C240.436 60.2602 240.414 60.1906 240.378 60.1281C240.343 60.0656 240.291 60.0174 240.22 59.9833C240.149 59.9464 240.057 59.9279 239.943 59.9279C239.864 59.9279 239.785 59.9379 239.709 59.9577C239.632 59.9776 239.555 60.0046 239.479 60.0387C239.405 60.0727 239.331 60.1097 239.257 60.1494L239.078 59.8214C239.164 59.7703 239.257 59.7235 239.36 59.6809C239.462 59.6354 239.57 59.5999 239.683 59.5744C239.797 59.546 239.913 59.5318 240.033 59.5318C240.228 59.5318 240.392 59.5673 240.522 59.6383C240.656 59.7064 240.757 59.8086 240.825 59.945C240.896 60.0784 240.931 60.2417 240.931 60.4348L240.931 61.6743L240.531 61.6743L240.493 61.4145L240.48 61.4145C240.369 61.4997 240.246 61.5735 240.109 61.636C239.976 61.6956 239.838 61.7254 239.696 61.7254ZM239.845 61.3421C239.95 61.3421 240.051 61.3194 240.148 61.2739C240.247 61.2256 240.345 61.1632 240.441 61.0865L240.441 60.6435C240.192 60.6606 239.996 60.6889 239.854 60.7287C239.712 60.7656 239.612 60.8139 239.555 60.8735C239.499 60.9332 239.47 60.9999 239.47 61.0737C239.47 61.1362 239.487 61.1873 239.521 61.2271C239.555 61.2668 239.599 61.2966 239.653 61.3165C239.71 61.3336 239.774 61.3421 239.845 61.3421ZM242.915 61.7254C242.702 61.7254 242.533 61.6885 242.408 61.6147C242.283 61.538 242.193 61.4329 242.139 61.2995C242.085 61.166 242.058 61.0113 242.058 60.8352L242.058 59.9705L241.5 59.9705L241.5 59.6042L242.08 59.5829L242.144 58.9269L242.548 58.9269L242.548 59.5829L243.502 59.5829L243.502 59.9705L242.548 59.9705L242.548 60.8309C242.548 60.9445 242.564 61.0396 242.595 61.1163C242.626 61.1902 242.677 61.2455 242.748 61.2824C242.819 61.3165 242.913 61.3336 243.03 61.3336C243.12 61.3336 243.203 61.3265 243.277 61.3123C243.35 61.2981 243.421 61.2782 243.49 61.2526L243.583 61.6062C243.49 61.6374 243.389 61.6644 243.281 61.6871C243.173 61.7127 243.051 61.7254 242.915 61.7254ZM245.068 61.6743L245.068 59.9705L244.161 59.9705L244.161 59.5829L245.558 59.5829L245.558 61.6743L245.068 61.6743ZM245.277 59.1995C245.178 59.1995 245.094 59.1697 245.026 59.1101C244.96 59.0505 244.928 58.9709 244.928 58.8716C244.928 58.7722 244.96 58.6927 245.026 58.633C245.094 58.5705 245.178 58.5393 245.277 58.5393C245.379 58.5393 245.463 58.5705 245.528 58.633C245.594 58.6927 245.626 58.7722 245.626 58.8716C245.626 58.9709 245.594 59.0505 245.528 59.1101C245.463 59.1697 245.379 59.1995 245.277 59.1995ZM247.635 61.7254C247.45 61.7254 247.279 61.6828 247.12 61.5976C246.961 61.5096 246.831 61.3847 246.732 61.2228C246.633 61.0581 246.583 60.8607 246.583 60.6307C246.583 60.3979 246.633 60.2005 246.732 60.0387C246.831 59.874 246.961 59.749 247.12 59.6638C247.279 59.5758 247.45 59.5318 247.635 59.5318C247.82 59.5318 247.991 59.5758 248.15 59.6638C248.309 59.749 248.439 59.874 248.538 60.0387C248.637 60.2005 248.687 60.3979 248.687 60.6307C248.687 60.8607 248.637 61.0581 248.538 61.2228C248.439 61.3847 248.309 61.5096 248.15 61.5976C247.991 61.6828 247.82 61.7254 247.635 61.7254ZM247.635 61.325C247.749 61.325 247.847 61.2966 247.929 61.2398C248.011 61.1831 248.074 61.1021 248.116 60.9971C248.159 60.892 248.18 60.7699 248.18 60.6307C248.18 60.4916 248.159 60.3695 248.116 60.2644C248.074 60.1593 248.011 60.0784 247.929 60.0216C247.847 59.962 247.749 59.9322 247.635 59.9322C247.521 59.9322 247.423 59.962 247.341 60.0216C247.262 60.0784 247.199 60.1593 247.154 60.2644C247.111 60.3695 247.09 60.4916 247.09 60.6307C247.09 60.7699 247.111 60.892 247.154 60.9971C247.199 61.1021 247.262 61.1831 247.341 61.2398C247.423 61.2966 247.521 61.325 247.635 61.325ZM249.261 61.6743L249.261 59.5829L249.665 59.5829L249.704 59.8981L249.721 59.8981C249.82 59.7959 249.929 59.7093 250.049 59.6383C250.171 59.5673 250.313 59.5318 250.474 59.5318C250.716 59.5318 250.893 59.6056 251.007 59.7533C251.121 59.9009 251.177 60.1097 251.177 60.3794L251.177 61.6743L250.683 61.6743L250.683 60.4433C250.683 60.2758 250.653 60.1522 250.594 60.0727C250.534 59.9932 250.433 59.9535 250.291 59.9535C250.189 59.9535 250.098 59.9776 250.019 60.0259C249.939 60.0742 249.851 60.148 249.755 60.2474L249.755 61.6743L249.261 61.6743Z" fill="white"/>
<rect x="72.8181" y="144.251" width="41.5216" height="7.88628" rx="3.94314" fill="#111113"/>
<rect x="72.8181" y="144.251" width="41.5216" height="7.88628" rx="3.94314" stroke="#5C3DE0" stroke-width="0.178117"/>
<path d="M75.9364 149.694L75.9364 149.277L76.6094 149.277L76.6094 147.326L75.9364 147.326L75.9364 146.909L77.7765 146.909L77.7765 147.326L77.1035 147.326L77.1035 149.277L77.7765 149.277L77.7765 149.694L75.9364 149.694ZM78.4819 149.694L78.4819 147.603L78.8866 147.603L78.9249 147.918L78.942 147.918C79.0414 147.816 79.1507 147.729 79.2699 147.658C79.3921 147.587 79.534 147.552 79.6959 147.552C79.9373 147.552 80.1148 147.626 80.2283 147.773C80.3419 147.921 80.3987 148.13 80.3987 148.399L80.3987 149.694L79.9046 149.694L79.9046 148.463C79.9046 148.296 79.8748 148.172 79.8152 148.093C79.7555 148.013 79.6547 147.973 79.5127 147.973C79.4105 147.973 79.3196 147.998 79.2401 148.046C79.1606 148.094 79.0726 148.168 78.976 148.267L78.976 149.694L78.4819 149.694ZM81.6579 149.694L81.6579 147.488C81.6579 147.323 81.6891 147.177 81.7516 147.049C81.8141 146.919 81.9106 146.818 82.0412 146.747C82.1719 146.673 82.3394 146.636 82.5439 146.636C82.6574 146.636 82.7653 146.647 82.8676 146.67C82.9726 146.69 83.072 146.717 83.1657 146.751L83.0635 147.113C82.9868 147.082 82.9116 147.059 82.8378 147.045C82.7668 147.031 82.6887 147.024 82.6035 147.024C82.4445 147.024 82.328 147.063 82.2542 147.143C82.1804 147.22 82.1435 147.332 82.1435 147.479L82.1435 149.694L81.6579 149.694ZM81.0786 147.991L81.0786 147.624L81.6707 147.603L82.94 147.603L82.94 147.991L81.0786 147.991ZM83.7945 149.694L83.7945 147.603L84.1991 147.603L84.2417 148.076L84.2545 148.076C84.3596 147.905 84.4888 147.776 84.6421 147.688C84.7983 147.597 84.9659 147.552 85.1448 147.552C85.2299 147.552 85.3038 147.559 85.3662 147.573C85.4287 147.587 85.4898 147.609 85.5494 147.637L85.4472 148.05C85.379 148.027 85.318 148.012 85.264 148.003C85.2129 147.992 85.1476 147.986 85.0681 147.986C84.9261 147.986 84.787 148.027 84.6506 148.11C84.5172 148.192 84.3965 148.336 84.2886 148.54L84.2886 149.694L83.7945 149.694ZM86.7958 149.745C86.6595 149.745 86.5388 149.72 86.4337 149.669C86.3287 149.615 86.2463 149.542 86.1867 149.452C86.127 149.361 86.0972 149.254 86.0972 149.132C86.0972 148.899 86.208 148.722 86.4295 148.6C86.6538 148.475 87.0244 148.394 87.5412 148.357C87.5355 148.28 87.5142 148.211 87.4773 148.148C87.4432 148.086 87.3907 148.037 87.3197 148.003C87.2487 147.966 87.1564 147.948 87.0428 147.948C86.9633 147.948 86.8852 147.958 86.8086 147.978C86.7319 147.998 86.6552 148.025 86.5785 148.059C86.5047 148.093 86.4309 148.13 86.357 148.169L86.1781 147.841C86.2633 147.79 86.357 147.743 86.4593 147.701C86.5615 147.655 86.6694 147.62 86.783 147.594C86.8966 147.566 87.013 147.552 87.1323 147.552C87.3282 147.552 87.4915 147.587 87.6221 147.658C87.7556 147.726 87.8564 147.829 87.9246 147.965C87.9955 148.098 88.031 148.262 88.031 148.455L88.031 149.694L87.6306 149.694L87.5923 149.435L87.5795 149.435C87.4688 149.52 87.3453 149.594 87.209 149.656C87.0755 149.716 86.9378 149.745 86.7958 149.745ZM86.9449 149.362C87.0499 149.362 87.1507 149.339 87.2473 149.294C87.3467 149.246 87.4446 149.183 87.5412 149.107L87.5412 148.664C87.2913 148.681 87.0954 148.709 86.9534 148.749C86.8114 148.786 86.712 148.834 86.6552 148.894C86.5984 148.953 86.57 149.02 86.57 149.094C86.57 149.156 86.5871 149.207 86.6211 149.247C86.6552 149.287 86.6992 149.317 86.7532 149.337C86.81 149.354 86.8739 149.362 86.9449 149.362ZM89.6395 149.745C89.4435 149.745 89.2561 149.714 89.0772 149.652C88.8983 149.586 88.7436 149.51 88.6129 149.422L88.8259 149.111C88.9508 149.193 89.0857 149.258 89.2306 149.307C89.3754 149.352 89.533 149.375 89.7034 149.375C89.8482 149.375 89.9547 149.351 90.0228 149.302C90.0938 149.251 90.1293 149.192 90.1293 149.124C90.1293 149.089 90.1208 149.058 90.1038 149.03C90.0896 149.001 90.0626 148.976 90.0228 148.953C89.9831 148.928 89.9249 148.903 89.8482 148.881C89.7715 148.858 89.6721 148.834 89.55 148.808C89.2717 148.749 89.0673 148.668 88.9367 148.566C88.806 148.463 88.7407 148.334 88.7407 148.178C88.7407 147.993 88.8202 147.843 88.9792 147.726C89.1411 147.61 89.3683 147.552 89.6608 147.552C89.834 147.552 89.9959 147.58 90.1464 147.637C90.2997 147.694 90.4289 147.758 90.534 147.829L90.3082 148.131C90.2088 148.063 90.0995 148.012 89.9802 147.978C89.861 147.941 89.7403 147.922 89.6182 147.922C89.5245 147.922 89.4492 147.932 89.3924 147.952C89.3385 147.972 89.2973 148 89.2689 148.037C89.2433 148.071 89.2306 148.11 89.2306 148.152C89.2306 148.226 89.2732 148.282 89.3583 148.319C89.4435 148.355 89.5827 148.395 89.7758 148.438C90.0001 148.486 90.1733 148.541 90.2954 148.604C90.4175 148.664 90.5013 148.733 90.5467 148.813C90.595 148.889 90.6192 148.984 90.6192 149.098C90.6192 149.217 90.5808 149.327 90.5042 149.426C90.4303 149.523 90.321 149.601 90.1762 149.66C90.0313 149.717 89.8524 149.745 89.6395 149.745ZM92.5684 149.745C92.3554 149.745 92.1864 149.709 92.0615 149.635C91.9365 149.558 91.8471 149.453 91.7931 149.319C91.7392 149.186 91.7122 149.031 91.7122 148.855L91.7122 147.991L91.1542 147.991L91.1542 147.624L91.7335 147.603L91.7974 146.947L92.202 146.947L92.202 147.603L93.1562 147.603L93.1562 147.991L92.202 147.991L92.202 148.851C92.202 148.965 92.2177 149.06 92.2489 149.136C92.2801 149.21 92.3312 149.266 92.4022 149.302C92.4732 149.337 92.5669 149.354 92.6834 149.354C92.7742 149.354 92.8566 149.346 92.9304 149.332C93.0042 149.318 93.0752 149.298 93.1434 149.273L93.2371 149.626C93.1434 149.657 93.0426 149.684 92.9347 149.707C92.8268 149.733 92.7047 149.745 92.5684 149.745ZM94.0107 149.694L94.0107 147.603L94.4153 147.603L94.4579 148.076L94.4707 148.076C94.5758 147.905 94.705 147.776 94.8583 147.688C95.0145 147.597 95.182 147.552 95.3609 147.552C95.4461 147.552 95.52 147.559 95.5824 147.573C95.6449 147.587 95.706 147.609 95.7656 147.637L95.6634 148.05C95.5952 148.027 95.5342 148.012 95.4802 148.003C95.4291 147.992 95.3638 147.986 95.2843 147.986C95.1423 147.986 95.0031 148.027 94.8668 148.11C94.7334 148.192 94.6127 148.336 94.5048 148.54L94.5048 149.694L94.0107 149.694ZM97.0077 149.745C96.7635 149.745 96.586 149.672 96.4753 149.524C96.3645 149.376 96.3091 149.168 96.3091 148.898L96.3091 147.603L96.799 147.603L96.799 148.834C96.799 149.001 96.8274 149.125 96.8842 149.204C96.9438 149.284 97.046 149.324 97.1909 149.324C97.2874 149.324 97.3754 149.301 97.4549 149.256C97.5373 149.207 97.6239 149.126 97.7148 149.013L97.7148 147.603L98.2046 147.603L98.2046 149.694L97.8042 149.694L97.7659 149.362L97.7489 149.362C97.6495 149.476 97.5401 149.568 97.4209 149.639C97.3016 149.71 97.1639 149.745 97.0077 149.745ZM100.03 149.745C99.8116 149.745 99.6143 149.703 99.4382 149.618C99.265 149.53 99.1273 149.405 99.025 149.243C98.9257 149.078 98.876 148.881 98.876 148.651C98.876 148.418 98.9299 148.221 99.0378 148.059C99.1486 147.894 99.2948 147.769 99.4766 147.684C99.6583 147.596 99.8542 147.552 100.064 147.552C100.235 147.552 100.385 147.58 100.516 147.637C100.647 147.691 100.754 147.761 100.84 147.846L100.605 148.152C100.523 148.087 100.439 148.037 100.354 148.003C100.272 147.969 100.184 147.952 100.09 147.952C99.9508 147.952 99.8273 147.982 99.7193 148.042C99.6143 148.098 99.5319 148.179 99.4723 148.284C99.4127 148.39 99.3828 148.512 99.3828 148.651C99.3828 148.79 99.4112 148.912 99.468 149.017C99.5277 149.122 99.6086 149.203 99.7108 149.26C99.8159 149.317 99.938 149.345 100.077 149.345C100.196 149.345 100.306 149.322 100.405 149.277C100.505 149.231 100.594 149.178 100.673 149.115L100.878 149.43C100.759 149.532 100.625 149.611 100.478 149.665C100.33 149.718 100.181 149.745 100.03 149.745ZM102.785 149.745C102.572 149.745 102.403 149.709 102.278 149.635C102.153 149.558 102.063 149.453 102.009 149.319C101.955 149.186 101.928 149.031 101.928 148.855L101.928 147.991L101.37 147.991L101.37 147.624L101.95 147.603L102.014 146.947L102.418 146.947L102.418 147.603L103.372 147.603L103.372 147.991L102.418 147.991L102.418 148.851C102.418 148.965 102.434 149.06 102.465 149.136C102.496 149.21 102.547 149.266 102.618 149.302C102.689 149.337 102.783 149.354 102.9 149.354C102.99 149.354 103.073 149.346 103.147 149.332C103.22 149.318 103.291 149.298 103.36 149.273L103.453 149.626C103.36 149.657 103.259 149.684 103.151 149.707C103.043 149.733 102.921 149.745 102.785 149.745ZM104.67 149.745C104.426 149.745 104.248 149.672 104.137 149.524C104.027 149.376 103.971 149.168 103.971 148.898L103.971 147.603L104.461 147.603L104.461 148.834C104.461 149.001 104.49 149.125 104.546 149.204C104.606 149.284 104.708 149.324 104.853 149.324C104.95 149.324 105.038 149.301 105.117 149.256C105.199 149.207 105.286 149.126 105.377 149.013L105.377 147.603L105.867 147.603L105.867 149.694L105.466 149.694L105.428 149.362L105.411 149.362C105.312 149.476 105.202 149.568 105.083 149.639C104.964 149.71 104.826 149.745 104.67 149.745ZM106.781 149.694L106.781 147.603L107.186 147.603L107.228 148.076L107.241 148.076C107.346 147.905 107.475 147.776 107.629 147.688C107.785 147.597 107.952 147.552 108.131 147.552C108.216 147.552 108.29 147.559 108.353 147.573C108.415 147.587 108.476 147.609 108.536 147.637L108.434 148.05C108.365 148.027 108.304 148.012 108.25 148.003C108.199 147.992 108.134 147.986 108.054 147.986C107.913 147.986 107.773 148.027 107.637 148.11C107.504 148.192 107.383 148.336 107.275 148.54L107.275 149.694L106.781 149.694ZM110.187 149.745C109.974 149.745 109.781 149.703 109.608 149.618C109.434 149.53 109.297 149.405 109.194 149.243C109.092 149.078 109.041 148.879 109.041 148.646C109.041 148.419 109.092 148.225 109.194 148.063C109.297 147.898 109.43 147.772 109.595 147.684C109.759 147.596 109.936 147.552 110.123 147.552C110.33 147.552 110.505 147.594 110.647 147.68C110.792 147.765 110.901 147.883 110.975 148.033C111.052 148.181 111.09 148.351 111.09 148.544C111.09 148.593 111.087 148.639 111.081 148.685C111.078 148.727 111.074 148.763 111.069 148.791L109.395 148.791L109.395 148.442L110.753 148.442L110.66 148.553C110.66 148.345 110.613 148.191 110.519 148.088C110.428 147.983 110.3 147.931 110.136 147.931C110.019 147.931 109.914 147.958 109.821 148.012C109.73 148.066 109.657 148.147 109.603 148.255C109.549 148.36 109.522 148.49 109.522 148.646C109.522 148.808 109.552 148.942 109.612 149.047C109.674 149.152 109.759 149.231 109.867 149.285C109.978 149.339 110.106 149.366 110.251 149.366C110.361 149.366 110.464 149.351 110.557 149.319C110.651 149.288 110.745 149.246 110.839 149.192L111.005 149.498C110.894 149.569 110.769 149.629 110.63 149.677C110.491 149.723 110.343 149.745 110.187 149.745Z" fill="white"/>
<rect x="246.506" y="150.767" width="46.891" height="7.88628" rx="3.94314" fill="#111113"/>
<rect x="246.506" y="150.767" width="46.891" height="7.88628" rx="3.94314" stroke="#F67448" stroke-width="0.178117"/>
<path d="M254.784 156.21L254.784 153.425L255.517 153.425C255.789 153.425 256.023 153.476 256.219 153.578C256.418 153.68 256.569 153.834 256.671 154.038C256.776 154.243 256.828 154.498 256.828 154.805C256.828 155.114 256.776 155.374 256.671 155.584C256.569 155.792 256.421 155.948 256.228 156.053C256.035 156.158 255.806 156.21 255.542 156.21L254.784 156.21ZM255.278 155.81L255.487 155.81C255.666 155.81 255.816 155.775 255.938 155.704C256.063 155.63 256.158 155.519 256.224 155.371C256.289 155.224 256.322 155.035 256.322 154.805C256.322 154.578 256.289 154.392 256.224 154.247C256.158 154.102 256.063 153.996 255.938 153.927C255.816 153.859 255.666 153.825 255.487 153.825L255.278 153.825L255.278 155.81ZM258.411 156.262C258.198 156.262 258.005 156.219 257.832 156.134C257.659 156.046 257.521 155.921 257.419 155.759C257.317 155.594 257.266 155.395 257.266 155.163C257.266 154.935 257.317 154.741 257.419 154.579C257.521 154.414 257.655 154.288 257.819 154.2C257.984 154.112 258.16 154.068 258.347 154.068C258.555 154.068 258.729 154.111 258.871 154.196C259.016 154.281 259.126 154.399 259.199 154.549C259.276 154.697 259.314 154.867 259.314 155.06C259.314 155.109 259.312 155.156 259.306 155.201C259.303 155.244 259.299 155.279 259.293 155.307L257.619 155.307L257.619 154.958L258.978 154.958L258.884 155.069C258.884 154.862 258.837 154.707 258.744 154.605C258.653 154.5 258.525 154.447 258.36 154.447C258.244 154.447 258.139 154.474 258.045 154.528C257.954 154.582 257.882 154.663 257.828 154.771C257.774 154.876 257.747 155.006 257.747 155.163C257.747 155.324 257.777 155.458 257.836 155.563C257.899 155.668 257.984 155.748 258.092 155.802C258.203 155.855 258.33 155.882 258.475 155.882C258.586 155.882 258.688 155.867 258.782 155.836C258.876 155.804 258.969 155.762 259.063 155.708L259.229 156.015C259.118 156.086 258.993 156.145 258.854 156.193C258.715 156.239 258.568 156.262 258.411 156.262ZM259.909 157.037L259.909 154.119L260.314 154.119L260.352 154.358L260.365 154.358C260.456 154.272 260.559 154.203 260.676 154.149C260.795 154.095 260.914 154.068 261.034 154.068C261.218 154.068 261.373 154.112 261.498 154.2C261.623 154.288 261.719 154.412 261.787 154.571C261.856 154.73 261.89 154.917 261.89 155.133C261.89 155.371 261.846 155.574 261.758 155.742C261.67 155.909 261.555 156.039 261.413 156.13C261.273 156.218 261.123 156.262 260.961 156.262C260.867 156.262 260.769 156.24 260.667 156.198C260.568 156.155 260.476 156.094 260.39 156.015L260.378 156.015L260.403 156.381L260.403 157.037L259.909 157.037ZM260.859 155.857C260.958 155.857 261.048 155.83 261.127 155.776C261.207 155.722 261.269 155.643 261.315 155.537C261.36 155.43 261.383 155.296 261.383 155.137C261.383 154.998 261.366 154.879 261.332 154.779C261.298 154.68 261.245 154.605 261.174 154.553C261.106 154.5 261.014 154.473 260.897 154.473C260.818 154.473 260.737 154.492 260.654 154.532C260.572 154.572 260.488 154.636 260.403 154.724L260.403 155.665C260.48 155.733 260.559 155.783 260.642 155.814C260.724 155.843 260.796 155.857 260.859 155.857ZM263.519 156.262C263.306 156.262 263.113 156.219 262.94 156.134C262.767 156.046 262.629 155.921 262.527 155.759C262.425 155.594 262.374 155.395 262.374 155.163C262.374 154.935 262.425 154.741 262.527 154.579C262.629 154.414 262.763 154.288 262.927 154.2C263.092 154.112 263.268 154.068 263.456 154.068C263.663 154.068 263.837 154.111 263.979 154.196C264.124 154.281 264.234 154.399 264.307 154.549C264.384 154.697 264.422 154.867 264.422 155.06C264.422 155.109 264.42 155.156 264.414 155.201C264.411 155.244 264.407 155.279 264.401 155.307L262.727 155.307L262.727 154.958L264.086 154.958L263.992 155.069C263.992 154.862 263.945 154.707 263.852 154.605C263.761 154.5 263.633 154.447 263.468 154.447C263.352 154.447 263.247 154.474 263.153 154.528C263.062 154.582 262.99 154.663 262.936 154.771C262.882 154.876 262.855 155.006 262.855 155.163C262.855 155.324 262.885 155.458 262.944 155.563C263.007 155.668 263.092 155.748 263.2 155.802C263.311 155.855 263.439 155.882 263.583 155.882C263.694 155.882 263.796 155.867 263.89 155.836C263.984 155.804 264.077 155.762 264.171 155.708L264.337 156.015C264.227 156.086 264.102 156.145 263.962 156.193C263.823 156.239 263.676 156.262 263.519 156.262ZM265.017 156.21L265.017 154.119L265.422 154.119L265.46 154.434L265.477 154.434C265.577 154.332 265.686 154.245 265.805 154.174C265.927 154.103 266.069 154.068 266.231 154.068C266.472 154.068 266.65 154.142 266.764 154.289C266.877 154.437 266.934 154.646 266.934 154.916L266.934 156.21L266.44 156.21L266.44 154.979C266.44 154.812 266.41 154.688 266.35 154.609C266.291 154.529 266.19 154.49 266.048 154.49C265.946 154.49 265.855 154.514 265.775 154.562C265.696 154.61 265.608 154.684 265.511 154.784L265.511 156.21L265.017 156.21ZM268.342 156.262C268.075 156.262 267.859 156.165 267.695 155.972C267.53 155.779 267.448 155.51 267.448 155.167C267.448 154.94 267.492 154.744 267.58 154.579C267.668 154.414 267.783 154.288 267.925 154.2C268.067 154.112 268.216 154.068 268.372 154.068C268.491 154.068 268.596 154.089 268.687 154.132C268.781 154.174 268.867 154.235 268.947 154.315L268.96 154.315L268.934 153.961L268.934 153.203L269.428 153.203L269.428 156.21L269.024 156.21L268.985 155.968L268.973 155.968C268.893 156.047 268.798 156.117 268.687 156.176C268.576 156.233 268.461 156.262 268.342 156.262ZM268.461 155.857C268.547 155.857 268.629 155.837 268.708 155.797C268.788 155.755 268.863 155.691 268.934 155.606L268.934 154.664C268.86 154.593 268.787 154.544 268.713 154.515C268.639 154.487 268.564 154.473 268.487 154.473C268.39 154.473 268.301 154.5 268.219 154.553C268.139 154.607 268.075 154.686 268.027 154.788C267.979 154.89 267.955 155.015 267.955 155.163C267.955 155.387 267.999 155.559 268.087 155.678C268.177 155.797 268.302 155.857 268.461 155.857ZM271.182 156.262C270.969 156.262 270.775 156.219 270.602 156.134C270.429 156.046 270.291 155.921 270.189 155.759C270.087 155.594 270.036 155.395 270.036 155.163C270.036 154.935 270.087 154.741 270.189 154.579C270.291 154.414 270.425 154.288 270.589 154.2C270.754 154.112 270.93 154.068 271.118 154.068C271.325 154.068 271.5 154.111 271.642 154.196C271.786 154.281 271.896 154.399 271.97 154.549C272.046 154.697 272.085 154.867 272.085 155.06C272.085 155.109 272.082 155.156 272.076 155.201C272.073 155.244 272.069 155.279 272.063 155.307L270.389 155.307L270.389 154.958L271.748 154.958L271.654 155.069C271.654 154.862 271.608 154.707 271.514 154.605C271.423 154.5 271.295 154.447 271.13 154.447C271.014 154.447 270.909 154.474 270.815 154.528C270.724 154.582 270.652 154.663 270.598 154.771C270.544 154.876 270.517 155.006 270.517 155.163C270.517 155.324 270.547 155.458 270.607 155.563C270.669 155.668 270.754 155.748 270.862 155.802C270.973 155.855 271.101 155.882 271.245 155.882C271.356 155.882 271.458 155.867 271.552 155.836C271.646 155.804 271.74 155.762 271.833 155.708L271.999 156.015C271.889 156.086 271.764 156.145 271.625 156.193C271.485 156.239 271.338 156.262 271.182 156.262ZM272.679 156.21L272.679 154.119L273.084 154.119L273.122 154.434L273.139 154.434C273.239 154.332 273.348 154.245 273.467 154.174C273.589 154.103 273.731 154.068 273.893 154.068C274.135 154.068 274.312 154.142 274.426 154.289C274.539 154.437 274.596 154.646 274.596 154.916L274.596 156.21L274.102 156.21L274.102 154.979C274.102 154.812 274.072 154.688 274.012 154.609C273.953 154.529 273.852 154.49 273.71 154.49C273.608 154.49 273.517 154.514 273.437 154.562C273.358 154.61 273.27 154.684 273.173 154.784L273.173 156.21L272.679 156.21ZM276.349 156.262C276.131 156.262 275.933 156.219 275.757 156.134C275.584 156.046 275.446 155.921 275.344 155.759C275.245 155.594 275.195 155.397 275.195 155.167C275.195 154.934 275.249 154.737 275.357 154.575C275.468 154.41 275.614 154.285 275.796 154.2C275.977 154.112 276.173 154.068 276.383 154.068C276.554 154.068 276.704 154.096 276.835 154.153C276.966 154.207 277.073 154.277 277.159 154.362L276.924 154.669C276.842 154.603 276.758 154.553 276.673 154.519C276.591 154.485 276.503 154.468 276.409 154.468C276.27 154.468 276.146 154.498 276.038 154.558C275.933 154.615 275.851 154.695 275.791 154.801C275.732 154.906 275.702 155.028 275.702 155.167C275.702 155.306 275.73 155.428 275.787 155.533C275.847 155.638 275.928 155.719 276.03 155.776C276.135 155.833 276.257 155.861 276.396 155.861C276.515 155.861 276.625 155.838 276.724 155.793C276.824 155.748 276.913 155.694 276.992 155.631L277.197 155.946C277.078 156.049 276.944 156.127 276.797 156.181C276.649 156.235 276.5 156.262 276.349 156.262ZM278.703 156.21L278.703 154.507L277.796 154.507L277.796 154.119L279.193 154.119L279.193 156.21L278.703 156.21ZM278.912 153.736C278.812 153.736 278.729 153.706 278.661 153.646C278.595 153.587 278.563 153.507 278.563 153.408C278.563 153.308 278.595 153.229 278.661 153.169C278.729 153.107 278.812 153.075 278.912 153.075C279.014 153.075 279.098 153.107 279.163 153.169C279.228 153.229 279.261 153.308 279.261 153.408C279.261 153.507 279.228 153.587 279.163 153.646C279.098 153.706 279.014 153.736 278.912 153.736ZM281.398 156.262C281.185 156.262 280.992 156.219 280.818 156.134C280.645 156.046 280.508 155.921 280.405 155.759C280.303 155.594 280.252 155.395 280.252 155.163C280.252 154.935 280.303 154.741 280.405 154.579C280.508 154.414 280.641 154.288 280.806 154.2C280.97 154.112 281.146 154.068 281.334 154.068C281.541 154.068 281.716 154.111 281.858 154.196C282.003 154.281 282.112 154.399 282.186 154.549C282.262 154.697 282.301 154.867 282.301 155.06C282.301 155.109 282.298 155.156 282.292 155.201C282.289 155.244 282.285 155.279 282.279 155.307L280.605 155.307L280.605 154.958L281.964 154.958L281.871 155.069C281.871 154.862 281.824 154.707 281.73 154.605C281.639 154.5 281.511 154.447 281.347 154.447C281.23 154.447 281.125 154.474 281.031 154.528C280.941 154.582 280.868 154.663 280.814 154.771C280.76 154.876 280.733 155.006 280.733 155.163C280.733 155.324 280.763 155.458 280.823 155.563C280.885 155.668 280.97 155.748 281.078 155.802C281.189 155.855 281.317 155.882 281.462 155.882C281.572 155.882 281.675 155.867 281.768 155.836C281.862 155.804 281.956 155.762 282.049 155.708L282.216 156.015C282.105 156.086 281.98 156.145 281.841 156.193C281.702 156.239 281.554 156.262 281.398 156.262ZM283.837 156.262C283.641 156.262 283.453 156.23 283.275 156.168C283.096 156.103 282.941 156.026 282.81 155.938L283.023 155.627C283.148 155.709 283.283 155.775 283.428 155.823C283.573 155.868 283.73 155.891 283.901 155.891C284.046 155.891 284.152 155.867 284.22 155.819C284.291 155.767 284.327 155.708 284.327 155.64C284.327 155.606 284.318 155.574 284.301 155.546C284.287 155.518 284.26 155.492 284.22 155.469C284.18 155.444 284.122 155.42 284.046 155.397C283.969 155.374 283.869 155.35 283.747 155.324C283.469 155.265 283.265 155.184 283.134 155.082C283.003 154.979 282.938 154.85 282.938 154.694C282.938 154.509 283.018 154.359 283.177 154.243C283.338 154.126 283.566 154.068 283.858 154.068C284.031 154.068 284.193 154.096 284.344 154.153C284.497 154.21 284.626 154.274 284.731 154.345L284.506 154.647C284.406 154.579 284.297 154.528 284.178 154.494C284.058 154.457 283.938 154.438 283.815 154.438C283.722 154.438 283.647 154.448 283.59 154.468C283.536 154.488 283.495 154.517 283.466 154.553C283.441 154.588 283.428 154.626 283.428 154.669C283.428 154.742 283.47 154.798 283.556 154.835C283.641 154.872 283.78 154.911 283.973 154.954C284.197 155.002 284.371 155.058 284.493 155.12C284.615 155.18 284.699 155.249 284.744 155.329C284.792 155.405 284.816 155.501 284.816 155.614C284.816 155.733 284.778 155.843 284.701 155.942C284.628 156.039 284.518 156.117 284.373 156.176C284.229 156.233 284.05 156.262 283.837 156.262Z" fill="white"/>
</g>
<defs>
<filter id="filter0_b_11276_33859" x="61.8318" y="33.3328" width="256.051" height="175.56" filterUnits="userSpaceOnUse" color-interpolation-filters="sRGB">
<feFlood flood-opacity="0" result="BackgroundImageFix"/>
<feGaussianBlur in="BackgroundImageFix" stdDeviation="16.4017"/>
<feComposite in2="SourceAlpha" operator="in" result="effect1_backgroundBlur_11276_33859"/>
<feBlend mode="normal" in="SourceGraphic" in2="effect1_backgroundBlur_11276_33859" result="shape"/>
</filter>
<filter id="filter1_d_11276_33859" x="120.674" y="84.022" width="130.255" height="78.1624" filterUnits="userSpaceOnUse" color-interpolation-filters="sRGB">
<feFlood flood-opacity="0" result="BackgroundImageFix"/>
<feColorMatrix in="SourceAlpha" type="matrix" values="0 0 0 0 0 0 0 0 0 0 0 0 0 0 0 0 0 0 127 0" result="hardAlpha"/>
<feOffset dy="3.50111"/>
<feGaussianBlur stdDeviation="1.75055"/>
<feComposite in2="hardAlpha" operator="out"/>
<feColorMatrix type="matrix" values="0 0 0 0 0.432266 0 0 0 0 0.00354165 0 0 0 0 0.846458 0 0 0 1 0"/>
<feBlend mode="screen" in2="BackgroundImageFix" result="effect1_dropShadow_11276_33859"/>
<feBlend mode="normal" in="SourceGraphic" in2="effect1_dropShadow_11276_33859" result="shape"/>
</filter>
<filter id="filter2_f_11276_33859" x="60.5764" y="10.7975" width="257.867" height="223.85" filterUnits="userSpaceOnUse" color-interpolation-filters="sRGB">
<feFlood flood-opacity="0" result="BackgroundImageFix"/>
<feBlend mode="normal" in="SourceGraphic" in2="BackgroundImageFix" result="shape"/>
<feGaussianBlur stdDeviation="32.4831" result="effect1_foregroundBlur_11276_33859"/>
</filter>
<filter id="filter3_f_11276_33859" x="2.05633" y="10.4006" width="397.705" height="238.033" filterUnits="userSpaceOnUse" color-interpolation-filters="sRGB">
<feFlood flood-opacity="0" result="BackgroundImageFix"/>
<feBlend mode="normal" in="SourceGraphic" in2="BackgroundImageFix" result="shape"/>
<feGaussianBlur stdDeviation="4.97965" result="effect1_foregroundBlur_11276_33859"/>
</filter>
<filter id="filter4_f_11276_33859" x="104.497" y="143.844" width="49.1485" height="33.6324" filterUnits="userSpaceOnUse" color-interpolation-filters="sRGB">
<feFlood flood-opacity="0" result="BackgroundImageFix"/>
<feBlend mode="normal" in="SourceGraphic" in2="BackgroundImageFix" result="shape"/>
<feGaussianBlur stdDeviation="3.21437" result="effect1_foregroundBlur_11276_33859"/>
</filter>
<filter id="filter5_f_11276_33859" x="126.713" y="44.2514" width="49.1485" height="33.6324" filterUnits="userSpaceOnUse" color-interpolation-filters="sRGB">
<feFlood flood-opacity="0" result="BackgroundImageFix"/>
<feBlend mode="normal" in="SourceGraphic" in2="BackgroundImageFix" result="shape"/>
<feGaussianBlur stdDeviation="3.21437" result="effect1_foregroundBlur_11276_33859"/>
</filter>
<filter id="filter6_d_11276_33859" x="97.6081" y="45.2408" width="175.403" height="152.973" filterUnits="userSpaceOnUse" color-interpolation-filters="sRGB">
<feFlood flood-opacity="0" result="BackgroundImageFix"/>
<feColorMatrix in="SourceAlpha" type="matrix" values="0 0 0 0 0 0 0 0 0 0 0 0 0 0 0 0 0 0 127 0" result="hardAlpha"/>
<feOffset dy="4.2172"/>
<feGaussianBlur stdDeviation="25.3524"/>
<feComposite in2="hardAlpha" operator="out"/>
<feColorMatrix type="matrix" values="0 0 0 0 0.506336 0 0 0 0 0.118457 0 0 0 0 1 0 0 0 1 0"/>
<feBlend mode="soft-light" in2="BackgroundImageFix" result="effect1_dropShadow_11276_33859"/>
<feBlend mode="normal" in="SourceGraphic" in2="effect1_dropShadow_11276_33859" result="shape"/>
</filter>
<filter id="filter7_f_11276_33859" x="72.1954" y="20.504" width="148.868" height="148.868" filterUnits="userSpaceOnUse" color-interpolation-filters="sRGB">
<feFlood flood-opacity="0" result="BackgroundImageFix"/>
<feBlend mode="normal" in="SourceGraphic" in2="BackgroundImageFix" result="shape"/>
<feGaussianBlur stdDeviation="24.7187" result="effect1_foregroundBlur_11276_33859"/>
</filter>
<filter id="filter8_f_11276_33859" x="253.803" y="105.871" width="49.1485" height="33.6324" filterUnits="userSpaceOnUse" color-interpolation-filters="sRGB">
<feFlood flood-opacity="0" result="BackgroundImageFix"/>
<feBlend mode="normal" in="SourceGraphic" in2="BackgroundImageFix" result="shape"/>
<feGaussianBlur stdDeviation="3.21437" result="effect1_foregroundBlur_11276_33859"/>
</filter>
<linearGradient id="paint0_linear_11276_33859" x1="62.3958" y1="0" x2="62.3958" y2="89.48" gradientUnits="userSpaceOnUse">
<stop stop-color="#6218FF" stop-opacity="0"/>
<stop offset="1" stop-color="#6117FF"/>
</linearGradient>
<linearGradient id="paint1_linear_11276_33859" x1="148.908" y1="75.9343" x2="192.66" y2="151.263" gradientUnits="userSpaceOnUse">
<stop offset="0.015625" stop-color="#B010FB"/>
<stop offset="0.130208" stop-color="#DE97FF"/>
<stop offset="0.234375" stop-color="#A227DB"/>
<stop offset="0.505208" stop-color="#A227DB" stop-opacity="0"/>
<stop offset="0.765625" stop-color="#A610EC" stop-opacity="0.84"/>
</linearGradient>
<linearGradient id="paint2_linear_11276_33859" x1="148.908" y1="75.9343" x2="192.66" y2="151.263" gradientUnits="userSpaceOnUse">
<stop offset="0.015625" stop-color="#B010FB"/>
<stop offset="0.130208" stop-color="#DE97FF"/>
<stop offset="0.234375" stop-color="#A227DB"/>
<stop offset="0.505208" stop-color="#A227DB" stop-opacity="0"/>
<stop offset="0.765625" stop-color="#A610EC" stop-opacity="0.84"/>
</linearGradient>
<clipPath id="clip0_11276_33859">
<rect width="308.738" height="230.213" fill="white" transform="translate(31.168 0.893555)"/>
</clipPath>
<clipPath id="clip1_11276_33859">
<rect width="19.084" height="19.084" fill="white" transform="matrix(0.866025 -0.5 0.866025 0.5 112.722 157.146)"/>
</clipPath>
<clipPath id="clip2_11276_33859">
<rect width="13.7467" height="13.7467" fill="white" transform="matrix(0.866025 -0.5 0.866025 0.5 139.268 56.7871)"/>
</clipPath>
<clipPath id="clip3_11276_33859">
<rect width="16.7259" height="16.7259" fill="white" transform="matrix(0.866025 -0.5 0.866025 0.5 263.126 117.762)"/>
</clipPath>
</defs>
</svg>
