<svg width="543" height="280" viewBox="0 0 543 280" fill="none" xmlns="http://www.w3.org/2000/svg">
<g filter="url(#filter0_d_7322_49135)">
<rect x="24.561" y="1.11371" width="493.261" height="229.981" rx="10.1142" fill="#161617" stroke="#252526" stroke-width="0.518676"/>
<path d="M24.8203 56.7373H517.562V220.98C517.562 226.423 513.15 230.835 507.708 230.835H34.6752C29.2325 230.835 24.8203 226.423 24.8203 220.98V56.7373Z" fill="#111113"/>
<g clip-path="url(#clip0_7322_49135)">
<path d="M330.89 160.019L355.753 134.497C355.909 134.337 355.938 134.089 355.809 133.908C354.296 131.794 351.507 131.427 350.473 130.007C347.41 125.8 346.633 123.418 345.317 123.566C345.225 123.576 345.143 123.626 345.078 123.692L336.097 132.912C330.93 138.216 330.189 149.894 330.053 159.673C330.047 160.115 330.582 160.335 330.89 160.019Z" fill="#017CEE"/>
<path d="M381.775 159.388L356.289 134.49C356.129 134.334 355.882 134.304 355.701 134.434C353.59 135.949 353.224 138.742 351.806 139.777C347.604 142.844 345.226 143.623 345.374 144.941C345.384 145.033 345.434 145.115 345.5 145.179L354.707 154.174C360.003 159.348 371.665 160.09 381.43 160.226C381.871 160.233 382.091 159.697 381.775 159.388Z" fill="#00AD46"/>
<path fill-rule="evenodd" clip-rule="evenodd" d="M354.707 154.174C351.813 151.348 350.471 145.756 356.018 134.225C347.003 138.259 343.844 143.562 345.398 145.081L354.707 154.174Z" fill="#04D659"/>
<path d="M381.144 108.431L356.282 133.954C356.126 134.114 356.096 134.361 356.226 134.542C357.739 136.656 360.528 137.023 361.562 138.443C364.625 142.651 365.402 145.032 366.718 144.884C366.81 144.874 366.892 144.824 366.956 144.758L375.938 135.538C381.105 130.234 381.846 118.556 381.982 108.777C381.988 108.335 381.453 108.115 381.144 108.431Z" fill="#00C7D4"/>
<path fill-rule="evenodd" clip-rule="evenodd" d="M375.938 135.538C373.115 138.435 367.532 139.78 356.018 134.225C360.046 143.252 365.341 146.416 366.857 144.86L375.938 135.538Z" fill="#11E1EE"/>
<path d="M330.26 109.062L355.746 133.96C355.906 134.116 356.153 134.146 356.334 134.016C358.445 132.501 358.811 129.708 360.229 128.673C364.431 125.606 366.809 124.827 366.661 123.509C366.651 123.417 366.602 123.335 366.536 123.271L357.329 114.276C352.032 109.102 340.37 108.36 330.606 108.224C330.164 108.218 329.944 108.754 330.26 109.062Z" fill="#E43921"/>
<path fill-rule="evenodd" clip-rule="evenodd" d="M357.329 114.276C360.222 117.103 361.564 122.694 356.017 134.225C365.032 130.191 368.191 124.888 366.637 123.369L357.329 114.276Z" fill="#FF7557"/>
<path fill-rule="evenodd" clip-rule="evenodd" d="M336.097 132.912C338.919 130.015 344.503 128.671 356.018 134.225C351.989 125.198 346.694 122.034 345.178 123.591L336.097 132.912Z" fill="#0CB6FF"/>
<path d="M356.035 135.335C356.649 135.327 357.141 134.823 357.133 134.208C357.125 133.593 356.622 133.101 356.008 133.108C355.394 133.116 354.902 133.621 354.91 134.235C354.917 134.85 355.421 135.342 356.035 135.335Z" fill="#4A4848"/>
<path d="M388.91 125.186C388.858 125.186 388.812 125.166 388.773 125.127C388.733 125.088 388.714 125.042 388.714 124.989C388.714 124.936 388.717 124.9 388.723 124.881L391.163 118.508C391.215 118.364 391.32 118.291 391.477 118.291H392.146C392.303 118.291 392.408 118.364 392.461 118.508L394.89 124.881L394.91 124.989C394.91 125.042 394.89 125.088 394.851 125.127C394.812 125.166 394.766 125.186 394.713 125.186H394.212C394.139 125.186 394.084 125.17 394.044 125.137C394.005 125.097 393.979 125.058 393.966 125.019L393.425 123.62H390.199L389.658 125.019C389.645 125.058 389.615 125.097 389.569 125.137C389.53 125.17 389.478 125.186 389.412 125.186H388.91ZM393.14 122.773L391.812 119.276L390.484 122.773H393.14ZM396.07 127.057C396.004 127.057 395.949 127.034 395.903 126.989C395.863 126.949 395.844 126.897 395.844 126.831V120.291C395.844 120.225 395.863 120.173 395.903 120.133C395.949 120.087 396.004 120.064 396.07 120.064H396.522C396.588 120.064 396.64 120.087 396.68 120.133C396.726 120.173 396.749 120.225 396.749 120.291V120.724C397.116 120.219 397.653 119.966 398.361 119.966C399.05 119.966 399.565 120.182 399.906 120.616C400.253 121.049 400.44 121.607 400.466 122.29C400.473 122.363 400.476 122.474 400.476 122.625C400.476 122.776 400.473 122.888 400.466 122.96C400.44 123.636 400.253 124.195 399.906 124.634C399.558 125.068 399.043 125.285 398.361 125.285C397.68 125.285 397.148 125.038 396.768 124.546V126.831C396.768 126.897 396.749 126.949 396.709 126.989C396.67 127.034 396.617 127.057 396.552 127.057H396.07ZM398.155 124.487C398.621 124.487 398.958 124.342 399.168 124.053C399.384 123.764 399.502 123.384 399.522 122.911C399.529 122.845 399.532 122.75 399.532 122.625C399.532 121.384 399.073 120.764 398.155 120.764C397.702 120.764 397.362 120.915 397.132 121.217C396.909 121.512 396.788 121.867 396.768 122.28L396.758 122.655L396.768 123.039C396.781 123.426 396.906 123.764 397.142 124.053C397.378 124.342 397.716 124.487 398.155 124.487ZM403.119 125.285C402.798 125.285 402.499 125.219 402.224 125.088C401.948 124.956 401.729 124.779 401.565 124.556C401.408 124.326 401.329 124.073 401.329 123.797C401.329 123.364 401.506 123.009 401.86 122.734C402.221 122.451 402.706 122.267 403.316 122.182L404.781 121.975V121.689C404.781 121.02 404.398 120.685 403.631 120.685C403.342 120.685 403.106 120.747 402.922 120.872C402.739 120.99 402.601 121.131 402.509 121.295C402.49 121.355 402.463 121.397 402.431 121.424C402.404 121.45 402.365 121.463 402.313 121.463H401.889C401.831 121.463 401.778 121.443 401.732 121.404C401.693 121.358 401.673 121.305 401.673 121.246C401.68 121.089 401.752 120.911 401.889 120.714C402.034 120.511 402.253 120.337 402.548 120.192C402.844 120.041 403.207 119.966 403.64 119.966C404.375 119.966 404.903 120.14 405.224 120.488C405.545 120.829 405.706 121.256 405.706 121.768V124.959C405.706 125.025 405.683 125.081 405.637 125.127C405.598 125.166 405.545 125.186 405.48 125.186H405.027C404.962 125.186 404.906 125.166 404.86 125.127C404.821 125.081 404.801 125.025 404.801 124.959V124.536C404.657 124.746 404.447 124.923 404.171 125.068C403.896 125.212 403.545 125.285 403.119 125.285ZM403.325 124.546C403.752 124.546 404.099 124.408 404.368 124.132C404.643 123.85 404.781 123.446 404.781 122.921V122.645L403.64 122.812C403.175 122.878 402.824 122.99 402.588 123.147C402.352 123.298 402.234 123.492 402.234 123.728C402.234 123.991 402.342 124.195 402.558 124.339C402.775 124.477 403.031 124.546 403.325 124.546ZM409.185 125.285C408.484 125.285 407.933 125.088 407.533 124.694C407.139 124.293 406.929 123.735 406.903 123.019L406.893 122.625L406.903 122.231C406.929 121.515 407.139 120.961 407.533 120.567C407.933 120.166 408.484 119.966 409.185 119.966C409.657 119.966 410.057 120.051 410.385 120.222C410.713 120.393 410.956 120.603 411.113 120.852C411.277 121.102 411.365 121.351 411.378 121.601C411.385 121.666 411.365 121.719 411.32 121.758C411.274 121.798 411.218 121.817 411.152 121.817H410.68C410.615 121.817 410.565 121.804 410.533 121.778C410.5 121.752 410.467 121.699 410.434 121.621C410.323 121.305 410.165 121.082 409.962 120.951C409.759 120.813 409.503 120.744 409.195 120.744C408.788 120.744 408.464 120.872 408.221 121.128C407.985 121.378 407.857 121.762 407.838 122.28L407.828 122.635L407.838 122.97C407.857 123.495 407.985 123.883 408.221 124.132C408.457 124.382 408.782 124.506 409.195 124.506C409.503 124.506 409.759 124.441 409.962 124.309C410.165 124.172 410.323 123.945 410.434 123.63C410.467 123.551 410.5 123.498 410.533 123.472C410.565 123.439 410.615 123.423 410.68 123.423H411.152C411.218 123.423 411.274 123.446 411.32 123.492C411.365 123.531 411.385 123.584 411.378 123.65C411.365 123.892 411.277 124.142 411.113 124.398C410.956 124.648 410.713 124.858 410.385 125.028C410.064 125.199 409.664 125.285 409.185 125.285ZM412.783 125.186C412.717 125.186 412.661 125.166 412.615 125.127C412.576 125.081 412.556 125.025 412.556 124.959V118.419C412.556 118.354 412.576 118.301 412.615 118.262C412.661 118.216 412.717 118.193 412.783 118.193H413.274C413.34 118.193 413.392 118.216 413.432 118.262C413.478 118.301 413.501 118.354 413.501 118.419V120.714C413.691 120.471 413.914 120.288 414.169 120.163C414.425 120.031 414.743 119.966 415.123 119.966C415.753 119.966 416.242 120.169 416.589 120.576C416.943 120.977 417.12 121.512 417.12 122.182V124.959C417.12 125.025 417.097 125.081 417.051 125.127C417.012 125.166 416.959 125.186 416.894 125.186H416.402C416.336 125.186 416.281 125.166 416.235 125.127C416.196 125.081 416.176 125.025 416.176 124.959V122.231C416.176 121.765 416.061 121.404 415.832 121.148C415.609 120.892 415.284 120.764 414.858 120.764C414.445 120.764 414.114 120.895 413.864 121.158C413.622 121.414 413.501 121.772 413.501 122.231V124.959C413.501 125.025 413.478 125.081 413.432 125.127C413.392 125.166 413.34 125.186 413.274 125.186H412.783ZM420.586 125.285C419.911 125.285 419.37 125.078 418.963 124.664C418.563 124.244 418.343 123.672 418.304 122.95L418.294 122.615L418.304 122.29C418.35 121.581 418.573 121.016 418.973 120.596C419.379 120.176 419.914 119.966 420.576 119.966C421.304 119.966 421.868 120.199 422.268 120.665C422.668 121.125 422.868 121.749 422.868 122.537V122.704C422.868 122.77 422.845 122.825 422.799 122.871C422.759 122.911 422.707 122.93 422.642 122.93H419.238V123.019C419.258 123.446 419.386 123.81 419.622 124.112C419.865 124.408 420.182 124.556 420.576 124.556C420.878 124.556 421.124 124.497 421.314 124.378C421.51 124.254 421.655 124.126 421.746 123.994C421.806 123.915 421.848 123.869 421.874 123.856C421.907 123.837 421.963 123.827 422.041 123.827H422.524C422.583 123.827 422.632 123.843 422.671 123.876C422.71 123.909 422.73 123.955 422.73 124.014C422.73 124.158 422.638 124.332 422.455 124.536C422.278 124.74 422.025 124.917 421.697 125.068C421.376 125.212 421.005 125.285 420.586 125.285ZM421.933 122.251V122.221C421.933 121.768 421.809 121.401 421.559 121.118C421.317 120.829 420.989 120.685 420.576 120.685C420.163 120.685 419.835 120.829 419.592 121.118C419.357 121.401 419.238 121.768 419.238 122.221V122.251H421.933Z" fill="white"/>
<path fill-rule="evenodd" clip-rule="evenodd" d="M393.202 122.816C393.188 122.836 393.164 122.849 393.14 122.849H390.484C390.459 122.849 390.436 122.836 390.422 122.816C390.407 122.795 390.404 122.769 390.413 122.746L391.741 119.249C391.752 119.22 391.78 119.201 391.812 119.201C391.843 119.201 391.871 119.22 391.882 119.249L393.21 122.746C393.219 122.769 393.216 122.795 393.202 122.816ZM391.812 119.489L390.594 122.697H393.03L391.812 119.489Z" fill="white"/>
<path fill-rule="evenodd" clip-rule="evenodd" d="M388.723 124.881L388.724 124.881L388.653 124.854L391.092 118.481C391.122 118.398 391.17 118.33 391.238 118.283C391.306 118.237 391.387 118.216 391.477 118.216H392.146C392.236 118.216 392.318 118.237 392.386 118.283C392.454 118.33 392.501 118.398 392.532 118.482L394.961 124.854C394.963 124.858 394.964 124.863 394.965 124.867L394.984 124.976C394.985 124.978 394.985 124.98 394.985 124.982C394.985 124.984 394.986 124.987 394.986 124.989C394.986 125.063 394.957 125.128 394.904 125.18C394.852 125.233 394.787 125.262 394.713 125.262H394.212C394.129 125.262 394.053 125.243 393.996 125.195C393.994 125.193 393.992 125.192 393.991 125.19C393.946 125.146 393.913 125.098 393.895 125.045L393.373 123.696H390.25L389.729 125.045C389.709 125.101 389.669 125.15 389.618 125.194L389.563 125.13L389.569 125.137L389.618 125.194L389.617 125.195C389.561 125.242 389.49 125.262 389.412 125.262H388.91C388.836 125.262 388.772 125.233 388.719 125.18C388.666 125.128 388.638 125.063 388.638 124.989C388.638 124.937 388.641 124.889 388.651 124.857L388.653 124.854L388.723 124.881ZM389.521 125.079C389.56 125.045 389.579 125.016 389.586 124.995L389.587 124.991L390.128 123.593C390.139 123.563 390.168 123.544 390.199 123.544H393.425C393.456 123.544 393.484 123.563 393.495 123.593L394.036 124.991L394.037 124.995C394.045 125.019 394.063 125.048 394.096 125.081C394.117 125.097 394.153 125.11 394.212 125.11H394.713C394.744 125.11 394.771 125.1 394.797 125.073C394.822 125.049 394.833 125.024 394.834 124.995L394.817 124.902L392.39 118.535L392.39 118.534C392.368 118.473 392.337 118.433 392.3 118.408C392.263 118.382 392.213 118.367 392.146 118.367H391.477C391.41 118.367 391.361 118.382 391.323 118.408C391.286 118.433 391.256 118.473 391.234 118.534L391.233 118.535L388.795 124.905C388.793 124.911 388.789 124.936 388.789 124.989C388.789 125.02 388.8 125.047 388.826 125.073C388.852 125.1 388.879 125.11 388.91 125.11H389.412C389.465 125.11 389.499 125.097 389.521 125.079Z" fill="white"/>
<path fill-rule="evenodd" clip-rule="evenodd" d="M397.072 121.171C396.839 121.48 396.713 121.85 396.692 122.277V122.278L396.682 122.653V122.657L396.692 123.041V123.041C396.706 123.445 396.836 123.799 397.083 124.101C397.336 124.411 397.697 124.562 398.155 124.562C398.636 124.562 399 124.412 399.228 124.099C399.456 123.795 399.577 123.399 399.597 122.916C399.604 122.847 399.608 122.749 399.608 122.625C399.608 121.998 399.492 121.513 399.248 121.184C399.002 120.851 398.633 120.688 398.155 120.688C397.684 120.688 397.318 120.846 397.072 121.171ZM399.107 124.009L399.107 124.008C399.312 123.735 399.427 123.37 399.446 122.908C399.446 122.906 399.447 122.905 399.447 122.903C399.453 122.841 399.456 122.749 399.456 122.625C399.456 122.012 399.342 121.565 399.127 121.274C398.914 120.987 398.595 120.839 398.155 120.839C397.721 120.839 397.405 120.983 397.192 121.262C396.979 121.544 396.863 121.884 396.844 122.284L396.834 122.655L396.844 123.036C396.856 123.408 396.975 123.73 397.2 124.005C397.419 124.274 397.734 124.411 398.155 124.411C398.604 124.411 398.915 124.272 399.107 124.009Z" fill="white"/>
<path fill-rule="evenodd" clip-rule="evenodd" d="M399.965 120.569C400.324 121.017 400.515 121.592 400.542 122.286C400.548 122.362 400.552 122.476 400.552 122.625C400.552 122.775 400.548 122.888 400.542 122.964C400.515 123.653 400.324 124.227 399.965 124.681L399.964 124.682C399.599 125.137 399.06 125.36 398.361 125.36C397.735 125.36 397.227 125.158 396.844 124.751V126.831C396.844 126.912 396.819 126.984 396.765 127.04C396.71 127.103 396.636 127.133 396.552 127.133H396.07C395.984 127.133 395.909 127.102 395.849 127.042C395.793 126.986 395.768 126.913 395.768 126.831V120.291C395.768 120.209 395.793 120.136 395.849 120.08C395.909 120.019 395.984 119.989 396.07 119.989H396.522C396.606 119.989 396.678 120.018 396.733 120.079C396.794 120.134 396.824 120.207 396.824 120.291V120.511C397.2 120.096 397.715 119.89 398.361 119.89C399.067 119.89 399.606 120.113 399.965 120.569ZM396.63 120.191C396.627 120.188 396.625 120.185 396.622 120.183C396.598 120.155 396.568 120.14 396.522 120.14H396.07C396.024 120.14 395.987 120.155 395.956 120.187C395.933 120.209 395.919 120.241 395.919 120.291V126.831C395.919 126.88 395.933 126.912 395.956 126.935C395.987 126.967 396.024 126.982 396.07 126.982H396.552C396.597 126.982 396.628 126.967 396.652 126.939C396.653 126.938 396.654 126.936 396.656 126.935C396.678 126.912 396.692 126.88 396.692 126.831V124.546C396.692 124.513 396.713 124.485 396.744 124.474C396.774 124.464 396.808 124.474 396.828 124.5C397.192 124.971 397.7 125.209 398.361 125.209C399.026 125.209 399.517 124.998 399.846 124.587C400.182 124.162 400.365 123.621 400.391 122.957L400.391 122.953C400.397 122.885 400.401 122.776 400.401 122.625C400.401 122.475 400.397 122.366 400.391 122.297L400.391 122.293C400.365 121.623 400.182 121.081 399.846 120.663L399.846 120.663C399.523 120.252 399.033 120.042 398.361 120.042C397.674 120.042 397.16 120.286 396.809 120.769C396.79 120.795 396.756 120.806 396.725 120.796C396.694 120.786 396.673 120.757 396.673 120.724V120.291C396.673 120.245 396.658 120.214 396.63 120.191Z" fill="white"/>
<path d="M401.504 124.601L401.503 124.599C401.337 124.356 401.253 124.089 401.253 123.797C401.253 123.34 401.442 122.963 401.813 122.674L401.906 122.793C401.57 123.055 401.404 123.388 401.404 123.797C401.404 124.058 401.478 124.296 401.627 124.513C401.783 124.724 401.992 124.893 402.256 125.019C402.521 125.145 402.808 125.209 403.119 125.209C403.537 125.209 403.875 125.138 404.136 125.001C404.403 124.861 404.602 124.691 404.739 124.493C404.757 124.466 404.791 124.454 404.823 124.464C404.855 124.473 404.876 124.503 404.876 124.536V124.959C404.876 125.007 404.89 125.043 404.914 125.074C404.944 125.098 404.98 125.11 405.027 125.11H405.48C405.529 125.11 405.561 125.096 405.583 125.073C405.615 125.042 405.63 125.005 405.63 124.959V121.768C405.63 121.273 405.476 120.866 405.169 120.54L405.168 120.539C404.867 120.214 404.365 120.042 403.64 120.042C403.216 120.042 402.864 120.116 402.583 120.26L402.582 120.26C402.295 120.401 402.086 120.567 401.951 120.758C401.819 120.947 401.755 121.109 401.749 121.246C401.749 121.285 401.76 121.319 401.786 121.35C401.817 121.375 401.851 121.387 401.889 121.387H402.312C402.353 121.387 402.37 121.377 402.377 121.37C402.378 121.369 402.379 121.368 402.38 121.367C402.381 121.366 402.382 121.365 402.383 121.364C402.4 121.351 402.42 121.323 402.437 121.272C402.439 121.267 402.441 121.263 402.443 121.258C402.542 121.082 402.689 120.932 402.881 120.808C403.08 120.673 403.332 120.609 403.63 120.609C404.023 120.609 404.332 120.695 404.543 120.879C404.756 121.065 404.857 121.34 404.857 121.689V121.975C404.857 122.013 404.829 122.045 404.792 122.05L403.326 122.257H403.326L403.316 122.182L403.305 122.107L404.706 121.909V121.689C404.706 121.369 404.614 121.142 404.444 120.993C404.271 120.842 404.005 120.761 403.63 120.761C403.353 120.761 403.132 120.821 402.965 120.935L402.963 120.936C402.79 121.047 402.663 121.177 402.578 121.327C402.557 121.388 402.526 121.442 402.482 121.479C402.436 121.523 402.375 121.539 402.312 121.539H401.889C401.812 121.539 401.742 121.512 401.683 121.461C401.68 121.459 401.677 121.456 401.675 121.453C401.624 121.394 401.598 121.324 401.598 121.246V121.243C401.605 121.065 401.686 120.874 401.827 120.671L401.828 120.671C401.981 120.454 402.212 120.273 402.514 120.125C402.823 119.967 403.199 119.89 403.64 119.89C404.384 119.89 404.937 120.066 405.279 120.436C405.615 120.793 405.781 121.239 405.781 121.768V124.959C405.781 125.045 405.75 125.12 405.69 125.18C405.634 125.237 405.561 125.262 405.48 125.262H405.027C404.945 125.262 404.871 125.237 404.811 125.184C404.808 125.182 404.805 125.179 404.802 125.176C404.75 125.115 404.725 125.042 404.725 124.959V124.75C404.587 124.898 404.414 125.026 404.206 125.135C403.917 125.287 403.553 125.36 403.119 125.36C402.787 125.36 402.477 125.292 402.191 125.156C401.906 125.02 401.676 124.835 401.504 124.601Z" fill="white"/>
<path d="M403.305 122.107C402.687 122.194 402.188 122.381 401.813 122.674L401.86 122.734L401.906 122.793L401.907 122.793C402.254 122.521 402.725 122.341 403.326 122.257L403.305 122.107Z" fill="white"/>
<path fill-rule="evenodd" clip-rule="evenodd" d="M404.83 122.588C404.847 122.602 404.857 122.623 404.857 122.645V122.921C404.857 123.459 404.715 123.884 404.422 124.185C404.137 124.477 403.77 124.622 403.325 124.622C403.018 124.622 402.748 124.55 402.518 124.403L402.516 124.402L402.555 124.344L402.558 124.339L402.516 124.402C402.279 124.243 402.158 124.016 402.158 123.728C402.158 123.461 402.294 123.245 402.547 123.083C402.797 122.917 403.16 122.804 403.63 122.737L404.77 122.57C404.792 122.567 404.814 122.573 404.83 122.588ZM404.706 122.732L403.651 122.887L403.651 122.887C403.19 122.952 402.852 123.062 402.63 123.21L402.588 123.147L402.591 123.152L402.63 123.21L402.629 123.211C402.41 123.351 402.309 123.523 402.309 123.728C402.309 123.965 402.405 124.145 402.599 124.275C402.801 124.404 403.043 124.47 403.325 124.47C403.734 124.47 404.061 124.339 404.314 124.079C404.571 123.815 404.706 123.433 404.706 122.921V122.732Z" fill="white"/>
<path fill-rule="evenodd" clip-rule="evenodd" d="M407.48 124.748L407.479 124.747C407.069 124.329 406.854 123.751 406.828 123.022V123.021L406.818 122.627V122.623L406.828 122.229V122.228C406.854 121.499 407.069 120.924 407.479 120.513C407.897 120.095 408.468 119.89 409.185 119.89C409.666 119.89 410.079 119.977 410.42 120.155C410.756 120.33 411.01 120.548 411.176 120.811C411.345 121.069 411.44 121.331 411.454 121.596C411.462 121.682 411.435 121.759 411.369 121.816C411.308 121.868 411.234 121.893 411.152 121.893H410.68C410.606 121.893 410.537 121.879 410.485 121.837C410.437 121.798 410.398 121.73 410.364 121.65L410.363 121.646C410.255 121.341 410.106 121.134 409.921 121.014L409.92 121.013C409.732 120.886 409.492 120.82 409.195 120.82C408.806 120.82 408.502 120.941 408.276 121.18C408.058 121.411 407.932 121.774 407.913 122.283L407.903 122.633V122.637L407.913 122.967C407.932 123.483 408.058 123.849 408.276 124.08C408.495 124.311 408.798 124.431 409.195 124.431C409.492 124.431 409.733 124.367 409.921 124.246C410.106 124.12 410.255 123.909 410.363 123.605L410.364 123.601C410.397 123.522 410.434 123.456 410.481 123.417C410.533 123.366 410.604 123.347 410.68 123.347H411.152C411.236 123.347 411.31 123.377 411.37 123.436C411.435 123.492 411.462 123.569 411.454 123.655C411.44 123.913 411.346 124.175 411.177 124.439C411.011 124.702 410.757 124.92 410.42 125.096C410.085 125.274 409.672 125.36 409.185 125.36C408.469 125.36 407.897 125.159 407.48 124.748ZM411.05 120.894L411.049 120.893C410.9 120.657 410.669 120.455 410.35 120.289C410.036 120.125 409.648 120.042 409.185 120.042C408.498 120.042 407.969 120.237 407.586 120.62C407.21 120.997 407.004 121.532 406.979 122.234L406.969 122.625L406.979 123.016C407.004 123.719 407.21 124.257 407.587 124.64C407.969 125.017 408.499 125.209 409.185 125.209C409.655 125.209 410.042 125.125 410.35 124.962L410.35 124.961C410.669 124.795 410.9 124.593 411.049 124.358L411.049 124.357C411.208 124.109 411.291 123.872 411.303 123.645L411.303 123.642C411.308 123.598 411.295 123.571 411.27 123.549C411.269 123.548 411.267 123.547 411.266 123.545C411.234 123.514 411.198 123.499 411.152 123.499H410.68C410.626 123.499 410.6 123.512 410.586 123.526C410.584 123.528 410.582 123.53 410.58 123.531C410.563 123.545 410.536 123.581 410.505 123.656C410.39 123.981 410.225 124.223 410.004 124.372L410.003 124.373C409.785 124.514 409.514 124.582 409.195 124.582C408.766 124.582 408.419 124.452 408.166 124.184C407.912 123.916 407.782 123.507 407.762 122.973V122.972L407.752 122.637V122.633L407.762 122.278V122.278C407.782 121.75 407.913 121.344 408.166 121.076C408.425 120.802 408.771 120.668 409.195 120.668C409.514 120.668 409.786 120.74 410.004 120.888C410.225 121.031 410.39 121.27 410.505 121.594C410.536 121.669 410.563 121.705 410.58 121.719C410.593 121.73 410.623 121.742 410.68 121.742H411.152C411.201 121.742 411.239 121.728 411.27 121.701C411.295 121.679 411.308 121.652 411.303 121.608L411.303 121.605C411.291 121.371 411.207 121.134 411.05 120.894Z" fill="white"/>
<path fill-rule="evenodd" clip-rule="evenodd" d="M413.919 121.21C413.693 121.448 413.576 121.785 413.576 122.231V124.959C413.576 125.045 413.545 125.12 413.485 125.18C413.429 125.237 413.356 125.262 413.274 125.262H412.783C412.701 125.262 412.627 125.237 412.566 125.184C412.563 125.182 412.56 125.179 412.558 125.176C412.506 125.115 412.481 125.042 412.481 124.959V118.419C412.481 118.338 412.506 118.264 412.562 118.208C412.622 118.148 412.697 118.117 412.783 118.117H413.274C413.358 118.117 413.43 118.147 413.485 118.208C413.546 118.263 413.576 118.336 413.576 118.419V120.51C413.741 120.335 413.927 120.197 414.135 120.095C414.404 119.957 414.735 119.89 415.123 119.89C415.771 119.89 416.282 120.1 416.646 120.527C417.015 120.945 417.196 121.499 417.196 122.182V124.959C417.196 125.045 417.165 125.12 417.105 125.18C417.049 125.237 416.975 125.262 416.894 125.262H416.402C416.32 125.262 416.246 125.237 416.185 125.184C416.183 125.182 416.18 125.179 416.177 125.176C416.125 125.115 416.1 125.042 416.1 124.959V122.231C416.1 121.777 415.988 121.436 415.775 121.198L415.774 121.197C415.569 120.962 415.268 120.839 414.858 120.839C414.462 120.839 414.152 120.964 413.919 121.21ZM413.379 118.316C413.377 118.314 413.376 118.313 413.374 118.311C413.35 118.283 413.32 118.269 413.274 118.269H412.783C412.737 118.269 412.7 118.284 412.669 118.315C412.646 118.338 412.632 118.37 412.632 118.419V124.959C412.632 125.006 412.645 125.043 412.669 125.073C412.699 125.097 412.736 125.11 412.783 125.11H413.274C413.324 125.11 413.355 125.096 413.378 125.073C413.41 125.042 413.425 125.005 413.425 124.959V122.231C413.425 121.758 413.55 121.379 413.81 121.105C414.075 120.826 414.427 120.688 414.858 120.688C415.299 120.688 415.647 120.821 415.888 121.097C416.133 121.372 416.251 121.753 416.251 122.231V124.959C416.251 125.006 416.264 125.043 416.288 125.073C416.318 125.097 416.355 125.11 416.402 125.11H416.894C416.943 125.11 416.975 125.096 416.997 125.073C417.029 125.042 417.044 125.005 417.044 124.959V122.182C417.044 121.526 416.871 121.01 416.532 120.627L416.531 120.626C416.201 120.238 415.735 120.042 415.123 120.042C414.751 120.042 414.446 120.106 414.204 120.23L414.202 120.231C413.958 120.35 413.744 120.526 413.56 120.761C413.54 120.786 413.506 120.796 413.476 120.786C413.445 120.775 413.425 120.747 413.425 120.714V118.419C413.425 118.374 413.41 118.343 413.382 118.319C413.381 118.318 413.38 118.317 413.379 118.316Z" fill="white"/>
<path fill-rule="evenodd" clip-rule="evenodd" d="M422.009 122.251C422.009 122.293 421.975 122.327 421.933 122.327H419.238C419.196 122.327 419.163 122.293 419.163 122.251V122.221C419.163 121.755 419.284 121.368 419.534 121.07L419.535 121.069C419.793 120.762 420.143 120.609 420.576 120.609C421.008 120.609 421.358 120.761 421.616 121.068C421.617 121.069 421.617 121.069 421.617 121.069L421.559 121.118L421.616 121.068C421.616 121.068 421.616 121.068 421.616 121.068C421.88 121.367 422.009 121.754 422.009 122.221V122.251ZM421.503 121.168L421.502 121.167C421.275 120.897 420.969 120.761 420.576 120.761C420.183 120.761 419.877 120.897 419.65 121.167C419.436 121.423 419.322 121.757 419.314 122.175H421.857C421.849 121.758 421.729 121.425 421.503 121.168Z" fill="white"/>
<path fill-rule="evenodd" clip-rule="evenodd" d="M418.909 124.717L418.908 124.716C418.493 124.28 418.269 123.69 418.228 122.954V122.952L418.218 122.618V122.613L418.228 122.288V122.285C418.275 121.563 418.503 120.98 418.918 120.544L418.919 120.543C419.341 120.107 419.896 119.89 420.576 119.89C421.321 119.89 421.908 120.13 422.325 120.615C422.74 121.092 422.943 121.736 422.943 122.537V122.704C422.943 122.789 422.912 122.865 422.852 122.925C422.796 122.981 422.723 123.006 422.641 123.006H419.314V123.016C419.333 123.429 419.456 123.777 419.682 124.066C419.909 124.342 420.205 124.48 420.576 124.48C420.868 124.48 421.098 124.423 421.273 124.314C421.465 124.193 421.6 124.071 421.685 123.951L421.686 123.949C421.716 123.908 421.743 123.875 421.767 123.849C421.789 123.826 421.814 123.802 421.84 123.789C421.891 123.76 421.963 123.751 422.041 123.751H422.523C422.597 123.751 422.664 123.772 422.719 123.818C422.779 123.867 422.806 123.936 422.806 124.014C422.806 124.188 422.697 124.38 422.511 124.586C422.325 124.8 422.063 124.983 421.729 125.137L421.728 125.137C421.395 125.287 421.014 125.36 420.586 125.36C419.894 125.36 419.332 125.148 418.909 124.717ZM422.211 120.715L422.21 120.714C421.827 120.268 421.286 120.042 420.576 120.042C419.931 120.042 419.417 120.245 419.027 120.649C418.643 121.053 418.425 121.598 418.379 122.293L418.37 122.613V122.618L418.38 122.948C418.419 123.656 418.633 124.208 419.018 124.612C419.407 125.008 419.928 125.209 420.586 125.209C420.997 125.209 421.356 125.138 421.666 124.999C421.987 124.851 422.23 124.679 422.397 124.486L422.398 124.485C422.579 124.285 422.654 124.129 422.654 124.014C422.654 123.974 422.642 123.95 422.622 123.934C422.599 123.914 422.568 123.903 422.523 123.903H422.041C421.965 123.903 421.927 123.913 421.913 123.921C421.911 123.922 421.91 123.923 421.908 123.924C421.909 123.924 421.908 123.924 421.906 123.925C421.905 123.926 421.903 123.928 421.901 123.93C421.895 123.935 421.887 123.942 421.878 123.952C421.859 123.972 421.836 124 421.808 124.038C421.709 124.18 421.556 124.315 421.354 124.442L421.353 124.443C421.148 124.571 420.887 124.631 420.576 124.631C420.161 124.631 419.821 124.474 419.564 124.161L419.562 124.159C419.316 123.843 419.183 123.463 419.163 123.023L419.163 123.019V122.93C419.163 122.889 419.196 122.855 419.238 122.855H422.641C422.691 122.855 422.723 122.841 422.745 122.818C422.777 122.786 422.792 122.75 422.792 122.704V122.537C422.792 121.761 422.595 121.157 422.211 120.715Z" fill="white"/>
<path fill-rule="evenodd" clip-rule="evenodd" d="M386.515 148.168C386.615 148.268 386.732 148.318 386.865 148.318H388.14C388.306 148.318 388.439 148.277 388.539 148.193C388.656 148.093 388.731 147.993 388.764 147.893L390.139 144.34H398.334L399.709 147.893C399.742 147.993 399.809 148.093 399.909 148.193C400.009 148.277 400.15 148.318 400.333 148.318H401.608C401.741 148.318 401.858 148.268 401.958 148.168C402.058 148.068 402.108 147.951 402.108 147.818L402.058 147.542L395.886 131.353C395.752 130.986 395.486 130.802 395.086 130.802H393.387C392.987 130.802 392.72 130.986 392.587 131.353L386.39 147.542C386.374 147.593 386.365 147.684 386.365 147.818C386.365 147.951 386.415 148.068 386.515 148.168ZM394.237 133.304L397.61 142.188H390.863L394.237 133.304Z" fill="white"/>
<path d="M404.404 132.729C404.521 132.829 404.663 132.879 404.829 132.879H406.404C406.57 132.879 406.712 132.829 406.828 132.729C406.945 132.612 407.003 132.47 407.003 132.303V130.952C407.003 130.785 406.945 130.644 406.828 130.527C406.712 130.41 406.57 130.352 406.404 130.352H404.829C404.663 130.352 404.521 130.41 404.404 130.527C404.304 130.644 404.254 130.785 404.254 130.952V132.303C404.254 132.47 404.304 132.612 404.404 132.729Z" fill="white"/>
<path d="M404.604 148.168C404.721 148.268 404.863 148.318 405.029 148.318H406.228C406.395 148.318 406.528 148.268 406.628 148.168C406.745 148.051 406.803 147.909 406.803 147.743V135.882C406.803 135.715 406.745 135.581 406.628 135.481C406.528 135.365 406.395 135.306 406.228 135.306H405.029C404.863 135.306 404.721 135.365 404.604 135.481C404.504 135.581 404.454 135.715 404.454 135.882V147.743C404.454 147.909 404.504 148.051 404.604 148.168Z" fill="white"/>
<path d="M410.656 148.168C410.773 148.268 410.914 148.318 411.081 148.318H412.305C412.472 148.318 412.613 148.268 412.73 148.168C412.847 148.051 412.905 147.909 412.905 147.743V140.386C412.905 139.485 413.163 138.776 413.68 138.259C414.196 137.725 414.904 137.458 415.804 137.458H417.303C417.469 137.458 417.603 137.408 417.703 137.308C417.819 137.208 417.877 137.075 417.877 136.908V135.882C417.877 135.715 417.819 135.581 417.703 135.481C417.603 135.365 417.469 135.306 417.303 135.306H416.328C414.679 135.306 413.513 135.873 412.83 137.008V135.907C412.83 135.74 412.772 135.598 412.655 135.481C412.539 135.365 412.397 135.306 412.23 135.306H411.081C410.914 135.306 410.773 135.365 410.656 135.481C410.556 135.598 410.506 135.74 410.506 135.907V147.743C410.506 147.909 410.556 148.051 410.656 148.168Z" fill="white"/>
<path d="M421.448 148.168C421.564 148.268 421.706 148.318 421.872 148.318H423.047C423.214 148.318 423.347 148.268 423.447 148.168C423.563 148.051 423.622 147.909 423.622 147.743V137.308H428.969V147.743C428.969 147.909 429.019 148.051 429.119 148.168C429.236 148.268 429.377 148.318 429.544 148.318H430.693C430.86 148.318 430.993 148.268 431.093 148.168C431.21 148.051 431.268 147.909 431.268 147.743V130.377C431.268 130.21 431.21 130.076 431.093 129.976C430.993 129.86 430.86 129.801 430.693 129.801H429.544C429.377 129.801 429.236 129.86 429.119 129.976C429.019 130.076 428.969 130.21 428.969 130.377V135.306H423.622V134.18C423.622 133.379 423.772 132.787 424.071 132.404C424.371 132.003 424.896 131.803 425.646 131.803H426.995C427.162 131.803 427.295 131.753 427.395 131.653C427.512 131.536 427.57 131.394 427.57 131.227V130.377C427.57 130.21 427.512 130.076 427.395 129.976C427.295 129.86 427.162 129.801 426.995 129.801H425.596C422.73 129.801 421.298 131.219 421.298 134.055V135.306H419.174C419.007 135.306 418.866 135.365 418.749 135.481C418.649 135.581 418.599 135.715 418.599 135.882V136.733C418.599 136.899 418.649 137.041 418.749 137.158C418.866 137.258 419.007 137.308 419.174 137.308H421.298V147.743C421.298 147.909 421.348 148.051 421.448 148.168Z" fill="white"/>
<path fill-rule="evenodd" clip-rule="evenodd" d="M436.031 147.017C437.047 148.051 438.471 148.569 440.304 148.569C442.136 148.569 443.552 148.051 444.552 147.017C445.568 145.983 446.109 144.607 446.176 142.888C446.192 142.705 446.201 142.346 446.201 141.812C446.201 141.278 446.192 140.92 446.176 140.736C446.109 139.035 445.568 137.667 444.552 136.632C443.535 135.581 442.119 135.056 440.304 135.056C438.488 135.056 437.072 135.581 436.056 136.632C435.04 137.667 434.498 139.035 434.432 140.736L434.407 141.812L434.432 142.888C434.498 144.607 435.031 145.983 436.031 147.017ZM442.777 145.641C442.178 146.308 441.353 146.642 440.304 146.642C439.254 146.642 438.421 146.308 437.805 145.641C437.189 144.974 436.864 144.014 436.831 142.763L436.805 141.812L436.831 140.861C436.864 139.61 437.189 138.651 437.805 137.984C438.421 137.316 439.254 136.983 440.304 136.983C441.353 136.983 442.178 137.316 442.777 137.984C443.394 138.651 443.727 139.61 443.777 140.861C443.794 141.028 443.802 141.345 443.802 141.812C443.802 142.279 443.794 142.596 443.777 142.763C443.727 144.014 443.394 144.974 442.777 145.641Z" fill="white"/>
<path d="M451.937 148.168C452.053 148.268 452.22 148.318 452.436 148.318H453.411C453.844 148.318 454.127 148.11 454.26 147.693L457.159 138.734L460.058 147.693C460.157 148.11 460.432 148.318 460.882 148.318H461.857C462.09 148.318 462.265 148.268 462.381 148.168C462.498 148.068 462.598 147.909 462.681 147.693L466.204 136.082L466.254 135.832C466.254 135.682 466.204 135.556 466.105 135.456C466.005 135.356 465.888 135.306 465.755 135.306H464.63C464.464 135.306 464.322 135.356 464.205 135.456C464.106 135.556 464.047 135.648 464.031 135.732L461.257 145.165L458.284 135.832C458.25 135.698 458.175 135.581 458.059 135.481C457.942 135.365 457.784 135.306 457.584 135.306H456.734C456.534 135.306 456.376 135.365 456.259 135.481C456.143 135.581 456.068 135.698 456.034 135.832L453.061 145.165L450.287 135.732C450.254 135.632 450.179 135.54 450.062 135.456C449.963 135.356 449.829 135.306 449.663 135.306H448.563C448.43 135.306 448.305 135.356 448.189 135.456C448.088 135.556 448.039 135.682 448.039 135.832L448.088 136.082L451.637 147.693C451.72 147.909 451.82 148.068 451.937 148.168Z" fill="white"/>
</g>
<path d="M267.151 151.028L274.197 131.052H277.761L270.716 151.028H267.151ZM278.457 151.028L285.503 131.052H289.067L282.021 151.028H278.457Z" fill="#C182FF"/>
<path d="M113.541 121.162H107.184V150.023H113.541V144.275L115.919 141.803L121.242 150.023H128.475L120.235 137.335L128.166 129.097H120.315L113.541 136.333V121.162Z" fill="white"/>
<path d="M179.388 122.689H173.105V129.097H169.463V134.265H173.105V145.278C173.105 146.818 173.498 148.017 174.324 148.828C175.15 149.639 176.369 150.023 177.936 150.023H183.44V144.967H179.388V134.265H183.44V129.097H179.388V122.689Z" fill="white"/>
<path fill-rule="evenodd" clip-rule="evenodd" d="M138.178 128.725C135.075 128.725 132.564 129.68 130.669 131.608L130.668 131.61C128.797 133.552 127.875 136.212 127.875 139.56C127.875 142.87 128.785 145.517 130.629 147.471C132.476 149.429 135.028 150.396 138.253 150.396C140.88 150.396 143.097 149.778 144.888 148.527L144.889 148.526L144.891 148.525C146.681 147.237 147.798 145.535 148.234 143.426L148.293 143.142H142.058L142.005 143.305C141.788 143.965 141.349 144.499 140.671 144.907C140.005 145.303 139.19 145.507 138.216 145.507C137.03 145.507 136.095 145.18 135.387 144.544C134.682 143.898 134.326 143.057 134.326 142V141.138H147.914L147.938 140.929C148.039 140.076 148.089 139.241 148.089 138.424C148.089 135.431 147.182 133.06 145.345 131.342C143.55 129.59 141.152 128.725 138.178 128.725ZM135.346 134.505C136.027 133.918 136.939 133.613 138.104 133.613C139.23 133.613 140.117 133.911 140.787 134.487L140.789 134.488L140.79 134.49C141.468 135.051 141.806 135.784 141.806 136.71V136.846H134.326V136.785C134.326 135.831 134.666 135.08 135.344 134.507L135.346 134.505Z" fill="white"/>
<path fill-rule="evenodd" clip-rule="evenodd" d="M159.056 128.725C156.396 128.725 154.26 129.316 152.675 130.524L152.674 130.525C151.092 131.741 150.303 133.427 150.303 135.555C150.303 137.217 150.825 138.579 151.882 139.617C152.933 140.649 154.493 141.34 156.53 141.712L156.532 141.712L160.179 142.309L160.182 142.309C160.794 142.393 161.25 142.558 161.569 142.788L161.57 142.789L161.572 142.79C161.863 142.994 162.064 143.375 162.124 144.004C162.121 144.568 161.897 144.994 161.443 145.307L161.44 145.308C160.986 145.629 160.308 145.805 159.374 145.805C158.348 145.805 157.578 145.582 157.036 145.166C156.518 144.759 156.25 144.175 156.25 143.378V143.142H149.986V143.378C149.986 145.512 150.829 147.228 152.507 148.503L152.508 148.504C154.193 149.774 156.478 150.396 159.337 150.396C162.132 150.396 164.367 149.793 166.015 148.56C167.685 147.32 168.519 145.596 168.519 143.416C168.519 141.698 168.027 140.31 167.019 139.278C166.015 138.251 164.526 137.605 162.585 137.314L162.584 137.314L159.055 136.737L159.052 136.736C158.614 136.676 158.314 136.633 158.151 136.608C158.022 136.575 157.853 136.513 157.64 136.419C157.441 136.331 157.244 136.202 157.048 136.03C156.768 135.782 156.624 135.452 156.624 135.015C156.624 134.462 156.824 134.058 157.217 133.772C157.622 133.477 158.213 133.315 159.019 133.315C159.945 133.315 160.601 133.504 161.027 133.845C161.445 134.179 161.677 134.687 161.695 135.412L161.7 135.643H167.948L167.94 135.399C167.876 133.356 167.047 131.723 165.456 130.524C163.871 129.315 161.729 128.725 159.056 128.725ZM165.873 148.37L166.015 148.56L166.014 148.56L165.873 148.37ZM156.89 145.353L157.035 145.165L157.036 145.166L157.037 145.167L156.89 145.353ZM162.362 143.993L162.125 144.015L162.124 144.004L162.124 143.993H162.362Z" fill="white"/>
<path fill-rule="evenodd" clip-rule="evenodd" d="M209.328 128.725C206.555 128.725 204.309 129.347 202.613 130.616C200.92 131.879 199.995 133.684 199.829 136.004L199.811 136.258H206.019L206.036 136.039C206.094 135.259 206.376 134.684 206.864 134.286L206.865 134.285C207.369 133.872 208.092 133.65 209.067 133.65C210.048 133.65 210.739 133.884 211.186 134.311C211.631 134.735 211.873 135.39 211.873 136.319V137.274H206.695C204.353 137.274 202.469 137.856 201.07 139.044C199.677 140.226 198.988 141.848 198.988 143.881C198.988 145.846 199.598 147.439 200.834 148.634L200.836 148.636C202.085 149.816 203.748 150.396 205.799 150.396C207.363 150.396 208.747 150.078 209.945 149.436L209.947 149.435C211.037 148.839 211.811 148.053 212.25 147.075L212.306 147.421L212.307 147.424C212.464 148.312 212.837 148.991 213.449 149.421L213.451 149.422L213.452 149.423C214.06 149.836 214.977 150.023 216.163 150.023H220.696V145.507H218.175V136.431C218.175 134.299 217.463 132.477 216.038 130.979C214.63 129.458 212.373 128.725 209.328 128.725ZM205.364 142.987C205.364 142.389 205.565 141.974 205.944 141.698C206.336 141.412 206.954 141.25 207.835 141.25H211.873V141.739C211.873 142.929 211.512 143.85 210.807 144.53C210.102 145.198 209.133 145.544 207.872 145.544C206.979 145.544 206.353 145.378 205.954 145.083C205.569 144.799 205.364 144.369 205.364 143.751V142.987Z" fill="white"/>
<path d="M191.681 129.097C189.524 129.097 188.023 129.662 187.311 130.892C187.002 131.418 186.787 131.936 186.669 132.447L186.668 132.449L186.668 132.452C186.564 132.945 186.513 133.546 186.513 134.251V150.023H192.796V134.265H198.884V129.097H191.681Z" fill="white"/>
<path d="M224.86 150.04C224.183 150.04 223.622 149.826 223.176 149.397C222.749 148.95 222.535 148.4 222.535 147.748C222.535 147.096 222.749 146.555 223.176 146.127C223.622 145.68 224.183 145.456 224.86 145.456C225.519 145.456 226.062 145.68 226.49 146.127C226.917 146.555 227.131 147.096 227.131 147.748C227.131 148.4 226.917 148.95 226.49 149.397C226.062 149.826 225.519 150.04 224.86 150.04Z" fill="#F62E76"/>
<path d="M80.6883 132.736C81.2036 132.222 82.039 132.222 82.5543 132.736L84.6723 134.848C85.1876 135.362 85.1876 136.196 84.6723 136.71L82.5543 138.822C82.039 139.336 81.2036 139.336 80.6883 138.822L78.5702 136.71C78.055 136.196 78.055 135.362 78.5702 134.848L80.6883 132.736Z" fill="#A950FF"/>
<path d="M90.4438 132.719C90.9498 132.214 91.7703 132.214 92.2763 132.719L94.4278 134.865C94.9338 135.37 94.9338 136.188 94.4278 136.693L92.2763 138.839C91.7703 139.343 90.9498 139.343 90.4438 138.839L88.2923 136.693C87.7863 136.188 87.7863 135.37 88.2923 134.865C88.7984 134.36 90.4438 132.719 90.4438 132.719Z" fill="#A950FF"/>
<path d="M80.705 123.006C81.211 122.501 82.0315 122.501 82.5376 123.006L84.689 125.151C85.1951 125.656 85.1951 126.475 84.689 126.979L82.5376 129.125C82.0315 129.63 81.211 129.63 80.705 129.125L78.5535 126.979C78.0475 126.475 78.0475 125.656 78.5535 125.151L80.705 123.006Z" fill="#E9C1FF"/>
<path d="M79.8034 129.992C80.3187 130.506 80.3187 131.339 79.8034 131.853L77.6854 133.965C77.1701 134.479 76.3347 134.479 75.8194 133.965L73.7013 131.853C73.1861 131.339 73.1861 130.506 73.7013 129.992L75.8194 127.879C76.3347 127.365 77.1701 127.365 77.6854 127.879L79.8034 129.992Z" fill="#CD88FF"/>
<path d="M74.9505 134.865C75.4566 135.37 75.4566 136.188 74.9505 136.693L72.7991 138.839C72.293 139.343 71.4726 139.343 70.9665 138.839L68.8151 136.693C68.309 136.188 68.309 135.37 68.8151 134.865L70.9665 132.719C71.4726 132.214 72.293 132.214 72.7991 132.719L74.9505 134.865Z" fill="#A950FF"/>
<path d="M89.5418 129.992C90.0571 130.506 90.0571 131.339 89.5418 131.853L87.4237 133.965C86.9085 134.479 86.073 134.479 85.5578 133.965L83.4397 131.853C82.9244 131.339 82.9244 130.506 83.4397 129.992L85.5578 127.879C86.073 127.365 86.9085 127.365 87.4237 127.879L89.5418 129.992Z" fill="#CD88FF"/>
<path d="M83.7058 143.866C84.8569 145.015 84.8569 146.876 83.7058 148.024C82.5546 149.173 80.6882 149.173 79.5371 148.024C78.3859 146.876 78.3859 145.015 79.5371 143.866C80.6882 142.718 82.5546 142.718 83.7058 143.866Z" fill="#F62E76"/>
<circle cx="52.3823" cy="27.773" r="6.29249" fill="#ED6A5E"/>
<circle cx="73.355" cy="27.773" r="6.29249" fill="#F4BF4F"/>
<circle cx="94.3296" cy="27.773" r="6.29249" fill="#61C554"/>
</g>
<defs>
<filter id="filter0_d_7322_49135" x="0.300781" y="0.854492" width="541.781" height="278.5" filterUnits="userSpaceOnUse" color-interpolation-filters="sRGB">
<feFlood flood-opacity="0" result="BackgroundImageFix"/>
<feColorMatrix in="SourceAlpha" type="matrix" values="0 0 0 0 0 0 0 0 0 0 0 0 0 0 0 0 0 0 127 0" result="hardAlpha"/>
<feOffset dy="24"/>
<feGaussianBlur stdDeviation="12"/>
<feComposite in2="hardAlpha" operator="out"/>
<feColorMatrix type="matrix" values="0 0 0 0 0.352941 0 0 0 0 0.184314 0 0 0 0 0.835294 0 0 0 0.22 0"/>
<feBlend mode="normal" in2="BackgroundImageFix" result="effect1_dropShadow_7322_49135"/>
<feBlend mode="normal" in="SourceGraphic" in2="effect1_dropShadow_7322_49135" result="shape"/>
</filter>
<clipPath id="clip0_7322_49135">
<rect width="137" height="53" fill="white" transform="translate(329.625 107.794)"/>
</clipPath>
</defs>
</svg>
