<svg width="541" height="279" viewBox="0 0 541 279" fill="none" xmlns="http://www.w3.org/2000/svg">
<g filter="url(#filter0_d_3076_20203)">
<rect x="24.0703" y="0.578613" width="492.742" height="229.462" rx="9.85484" fill="#152433"/>
<path d="M24.0703 55.9431H516.812V220.186C516.812 225.629 512.4 230.041 506.958 230.041H33.9252C28.4825 230.041 24.0703 225.629 24.0703 220.186V55.9431Z" fill="#061626"/>
<g clip-path="url(#clip0_3076_20203)">
<path d="M330.142 159.225L355.005 133.702C355.161 133.542 355.19 133.295 355.06 133.114C353.548 131 350.759 130.633 349.725 129.213C346.662 125.005 345.885 122.624 344.569 122.772C344.477 122.782 344.395 122.832 344.33 122.898L335.349 132.118C330.182 137.422 329.441 149.1 329.305 158.879C329.299 159.321 329.834 159.541 330.142 159.225Z" fill="#017CEE"/>
<path d="M381.027 158.594L355.541 133.696C355.381 133.54 355.134 133.51 354.953 133.64C352.842 135.154 352.476 137.948 351.058 138.983C346.856 142.05 344.478 142.828 344.626 144.147C344.636 144.239 344.685 144.321 344.752 144.385L353.959 153.38C359.255 158.554 370.917 159.296 380.682 159.432C381.123 159.438 381.343 158.902 381.027 158.594Z" fill="#00AD46"/>
<path fill-rule="evenodd" clip-rule="evenodd" d="M353.959 153.38C351.065 150.553 349.723 144.962 355.27 133.431C346.255 137.465 343.096 142.768 344.65 144.286L353.959 153.38Z" fill="#04D659"/>
<path d="M380.396 107.637L355.534 133.159C355.378 133.319 355.348 133.567 355.478 133.748C356.99 135.862 359.78 136.229 360.814 137.649C363.877 141.856 364.654 144.238 365.97 144.09C366.062 144.08 366.144 144.03 366.208 143.964L375.19 134.744C380.357 129.44 381.098 117.762 381.234 107.983C381.24 107.541 380.705 107.321 380.396 107.637Z" fill="#00C7D4"/>
<path fill-rule="evenodd" clip-rule="evenodd" d="M375.19 134.744C372.367 137.641 366.784 138.986 355.27 133.431C359.298 142.458 364.593 145.622 366.109 144.065L375.19 134.744Z" fill="#11E1EE"/>
<path d="M329.512 108.268L354.998 133.166C355.158 133.322 355.405 133.352 355.586 133.222C357.697 131.707 358.063 128.914 359.481 127.879C363.683 124.811 366.061 124.033 365.913 122.715C365.903 122.623 365.853 122.541 365.788 122.476L356.581 113.482C351.284 108.308 339.622 107.566 329.858 107.429C329.416 107.423 329.196 107.959 329.512 108.268Z" fill="#E43921"/>
<path fill-rule="evenodd" clip-rule="evenodd" d="M356.581 113.482C359.474 116.308 360.816 121.9 355.269 133.431C364.284 129.397 367.443 124.093 365.889 122.575L356.581 113.482Z" fill="#FF7557"/>
<path fill-rule="evenodd" clip-rule="evenodd" d="M335.349 132.118C338.171 129.221 343.755 127.877 355.27 133.431C351.241 124.404 345.945 121.24 344.43 122.796L335.349 132.118Z" fill="#0CB6FF"/>
<path d="M355.287 134.541C355.901 134.533 356.393 134.028 356.385 133.414C356.377 132.799 355.873 132.307 355.26 132.314C354.646 132.322 354.154 132.826 354.162 133.441C354.169 134.056 354.673 134.548 355.287 134.541Z" fill="#4A4848"/>
<path d="M388.162 124.392C388.11 124.392 388.064 124.373 388.025 124.333C387.985 124.294 387.966 124.248 387.966 124.195C387.966 124.143 387.969 124.107 387.975 124.087L390.415 117.714C390.467 117.57 390.572 117.498 390.729 117.498H391.398C391.555 117.498 391.66 117.57 391.713 117.714L394.142 124.087L394.162 124.195C394.162 124.248 394.142 124.294 394.103 124.333C394.064 124.373 394.018 124.392 393.965 124.392H393.464C393.391 124.392 393.336 124.376 393.296 124.343C393.257 124.304 393.231 124.264 393.218 124.225L392.677 122.826H389.451L388.91 124.225C388.897 124.264 388.867 124.304 388.821 124.343C388.782 124.376 388.729 124.392 388.664 124.392H388.162ZM392.392 121.979L391.064 118.483L389.736 121.979H392.392ZM395.322 126.264C395.256 126.264 395.201 126.241 395.155 126.195C395.115 126.155 395.096 126.103 395.096 126.037V119.497C395.096 119.431 395.115 119.379 395.155 119.34C395.201 119.294 395.256 119.271 395.322 119.271H395.774C395.84 119.271 395.892 119.294 395.932 119.34C395.977 119.379 396 119.431 396 119.497V119.931C396.368 119.425 396.905 119.172 397.613 119.172C398.302 119.172 398.817 119.389 399.158 119.822C399.505 120.256 399.692 120.814 399.718 121.497C399.725 121.569 399.728 121.68 399.728 121.831C399.728 121.982 399.725 122.094 399.718 122.166C399.692 122.843 399.505 123.401 399.158 123.841C398.81 124.274 398.295 124.491 397.613 124.491C396.932 124.491 396.4 124.245 396.02 123.752V126.037C396.02 126.103 396 126.155 395.961 126.195C395.922 126.241 395.869 126.264 395.804 126.264H395.322ZM397.407 123.693C397.872 123.693 398.21 123.549 398.42 123.26C398.636 122.971 398.754 122.59 398.774 122.117C398.781 122.051 398.784 121.956 398.784 121.831C398.784 120.59 398.325 119.97 397.407 119.97C396.954 119.97 396.613 120.121 396.384 120.423C396.161 120.718 396.04 121.073 396.02 121.487L396.01 121.861L396.02 122.245C396.033 122.633 396.158 122.971 396.394 123.26C396.63 123.549 396.968 123.693 397.407 123.693ZM402.371 124.491C402.05 124.491 401.751 124.425 401.476 124.294C401.2 124.163 400.981 123.985 400.817 123.762C400.66 123.532 400.581 123.279 400.581 123.004C400.581 122.57 400.758 122.216 401.112 121.94C401.473 121.657 401.958 121.474 402.568 121.388L404.033 121.181V120.896C404.033 120.226 403.649 119.891 402.883 119.891C402.594 119.891 402.358 119.953 402.174 120.078C401.991 120.196 401.853 120.338 401.761 120.502C401.741 120.561 401.715 120.604 401.682 120.63C401.656 120.656 401.617 120.669 401.565 120.669H401.141C401.082 120.669 401.03 120.65 400.984 120.61C400.945 120.564 400.925 120.512 400.925 120.453C400.932 120.295 401.004 120.118 401.141 119.921C401.286 119.717 401.505 119.543 401.8 119.399C402.096 119.248 402.459 119.172 402.892 119.172C403.626 119.172 404.155 119.346 404.476 119.694C404.797 120.036 404.958 120.462 404.958 120.975V124.166C404.958 124.231 404.935 124.287 404.889 124.333C404.85 124.373 404.797 124.392 404.732 124.392H404.279C404.214 124.392 404.158 124.373 404.112 124.333C404.073 124.287 404.053 124.231 404.053 124.166V123.742C403.909 123.952 403.699 124.13 403.423 124.274C403.148 124.419 402.797 124.491 402.371 124.491ZM402.577 123.752C403.004 123.752 403.351 123.614 403.62 123.338C403.895 123.056 404.033 122.652 404.033 122.127V121.851L402.892 122.019C402.427 122.084 402.076 122.196 401.84 122.353C401.604 122.505 401.486 122.698 401.486 122.935C401.486 123.197 401.594 123.401 401.81 123.545C402.027 123.683 402.283 123.752 402.577 123.752ZM408.437 124.491C407.736 124.491 407.185 124.294 406.785 123.9C406.391 123.499 406.181 122.941 406.155 122.225L406.145 121.831L406.155 121.437C406.181 120.722 406.391 120.167 406.785 119.773C407.185 119.372 407.736 119.172 408.437 119.172C408.909 119.172 409.309 119.257 409.637 119.428C409.965 119.599 410.208 119.809 410.365 120.059C410.529 120.308 410.617 120.558 410.63 120.807C410.637 120.873 410.617 120.925 410.571 120.965C410.525 121.004 410.47 121.024 410.404 121.024H409.932C409.866 121.024 409.817 121.011 409.785 120.984C409.752 120.958 409.719 120.906 409.686 120.827C409.575 120.512 409.417 120.288 409.214 120.157C409.011 120.019 408.755 119.95 408.447 119.95C408.04 119.95 407.716 120.078 407.473 120.334C407.237 120.584 407.109 120.968 407.09 121.487L407.08 121.841L407.09 122.176C407.109 122.702 407.237 123.089 407.473 123.338C407.709 123.588 408.034 123.713 408.447 123.713C408.755 123.713 409.011 123.647 409.214 123.516C409.417 123.378 409.575 123.151 409.686 122.836C409.719 122.757 409.752 122.705 409.785 122.679C409.817 122.646 409.866 122.629 409.932 122.629H410.404C410.47 122.629 410.525 122.652 410.571 122.698C410.617 122.738 410.637 122.79 410.63 122.856C410.617 123.099 410.529 123.348 410.365 123.604C410.208 123.854 409.965 124.064 409.637 124.235C409.316 124.405 408.916 124.491 408.437 124.491ZM412.035 124.392C411.969 124.392 411.913 124.373 411.867 124.333C411.828 124.287 411.808 124.231 411.808 124.166V117.626C411.808 117.56 411.828 117.508 411.867 117.468C411.913 117.422 411.969 117.399 412.035 117.399H412.526C412.592 117.399 412.644 117.422 412.684 117.468C412.73 117.508 412.753 117.56 412.753 117.626V119.921C412.943 119.678 413.166 119.494 413.421 119.369C413.677 119.238 413.995 119.172 414.375 119.172C415.005 119.172 415.493 119.376 415.841 119.783C416.195 120.183 416.372 120.718 416.372 121.388V124.166C416.372 124.231 416.349 124.287 416.303 124.333C416.264 124.373 416.211 124.392 416.146 124.392H415.654C415.588 124.392 415.533 124.373 415.487 124.333C415.448 124.287 415.428 124.231 415.428 124.166V121.437C415.428 120.971 415.313 120.61 415.084 120.354C414.86 120.098 414.536 119.97 414.11 119.97C413.697 119.97 413.366 120.101 413.116 120.364C412.874 120.62 412.753 120.978 412.753 121.437V124.166C412.753 124.231 412.73 124.287 412.684 124.333C412.644 124.373 412.592 124.392 412.526 124.392H412.035ZM419.838 124.491C419.163 124.491 418.621 124.284 418.215 123.87C417.815 123.45 417.595 122.879 417.556 122.157L417.546 121.822L417.556 121.497C417.602 120.787 417.825 120.223 418.225 119.802C418.631 119.382 419.166 119.172 419.828 119.172C420.556 119.172 421.12 119.405 421.52 119.871C421.92 120.331 422.12 120.955 422.12 121.743V121.91C422.12 121.976 422.097 122.032 422.051 122.078C422.011 122.117 421.959 122.137 421.893 122.137H418.49V122.225C418.51 122.652 418.638 123.017 418.874 123.319C419.117 123.614 419.434 123.762 419.828 123.762C420.13 123.762 420.376 123.703 420.565 123.585C420.762 123.46 420.907 123.332 420.998 123.201C421.058 123.122 421.1 123.076 421.126 123.063C421.159 123.043 421.215 123.033 421.293 123.033H421.776C421.834 123.033 421.883 123.05 421.923 123.082C421.962 123.115 421.982 123.161 421.982 123.22C421.982 123.365 421.89 123.539 421.707 123.742C421.53 123.946 421.277 124.123 420.949 124.274C420.628 124.419 420.257 124.491 419.838 124.491ZM421.185 121.457V121.428C421.185 120.975 421.061 120.607 420.811 120.324C420.569 120.036 420.241 119.891 419.828 119.891C419.415 119.891 419.087 120.036 418.844 120.324C418.608 120.607 418.49 120.975 418.49 121.428V121.457H421.185Z" fill="white"/>
<path fill-rule="evenodd" clip-rule="evenodd" d="M392.454 122.022C392.44 122.043 392.416 122.055 392.391 122.055H389.736C389.711 122.055 389.688 122.043 389.674 122.022C389.659 122.002 389.656 121.976 389.665 121.952L390.993 118.456C391.004 118.426 391.032 118.407 391.064 118.407C391.095 118.407 391.123 118.426 391.134 118.456L392.462 121.952C392.471 121.976 392.468 122.002 392.454 122.022ZM391.064 118.696L389.846 121.904H392.282L391.064 118.696Z" fill="white"/>
<path fill-rule="evenodd" clip-rule="evenodd" d="M387.975 124.087L387.976 124.087L387.905 124.06L390.344 117.687C390.374 117.604 390.422 117.536 390.49 117.489C390.558 117.443 390.639 117.422 390.729 117.422H391.398C391.488 117.422 391.57 117.443 391.638 117.489C391.706 117.536 391.753 117.605 391.784 117.688L394.213 124.06C394.215 124.064 394.216 124.069 394.217 124.073L394.236 124.182C394.237 124.184 394.237 124.186 394.237 124.188C394.237 124.191 394.237 124.193 394.237 124.195C394.237 124.269 394.209 124.334 394.156 124.387C394.104 124.439 394.039 124.468 393.965 124.468H393.464C393.381 124.468 393.305 124.449 393.248 124.401C393.246 124.4 393.244 124.398 393.243 124.397C393.198 124.352 393.165 124.304 393.147 124.251L392.625 122.902H389.502L388.981 124.251C388.961 124.307 388.921 124.357 388.87 124.401L388.815 124.336L388.821 124.343L388.87 124.401L388.869 124.401C388.813 124.448 388.742 124.468 388.664 124.468H388.162C388.088 124.468 388.024 124.439 387.971 124.387C387.918 124.334 387.89 124.269 387.89 124.195C387.89 124.143 387.893 124.096 387.903 124.063L387.905 124.06L387.975 124.087ZM388.773 124.285C388.812 124.251 388.831 124.223 388.838 124.201L388.839 124.198L389.38 122.799C389.391 122.77 389.42 122.751 389.451 122.751H392.677C392.708 122.751 392.736 122.77 392.747 122.799L393.288 124.198L393.289 124.201C393.297 124.225 393.315 124.254 393.348 124.287C393.369 124.304 393.405 124.317 393.464 124.317H393.965C393.996 124.317 394.023 124.306 394.049 124.28C394.074 124.255 394.085 124.23 394.086 124.201L394.069 124.108L391.642 117.741L391.642 117.74C391.62 117.68 391.589 117.64 391.552 117.614C391.515 117.589 391.465 117.573 391.398 117.573H390.729C390.662 117.573 390.613 117.589 390.575 117.614C390.538 117.64 390.508 117.68 390.486 117.74L390.485 117.741L388.047 124.111C388.045 124.118 388.041 124.142 388.041 124.195C388.041 124.226 388.052 124.254 388.078 124.28C388.104 124.306 388.131 124.317 388.162 124.317H388.664C388.717 124.317 388.751 124.304 388.773 124.285Z" fill="white"/>
<path fill-rule="evenodd" clip-rule="evenodd" d="M396.324 120.377C396.09 120.686 395.965 121.056 395.944 121.483V121.485L395.934 121.859V121.863L395.944 122.247V122.248C395.958 122.651 396.088 123.005 396.335 123.308C396.588 123.617 396.949 123.769 397.407 123.769C397.888 123.769 398.252 123.619 398.48 123.305C398.708 123.001 398.829 122.605 398.849 122.123C398.856 122.053 398.86 121.956 398.86 121.831C398.86 121.204 398.744 120.719 398.5 120.39C398.254 120.057 397.884 119.894 397.407 119.894C396.936 119.894 396.57 120.053 396.324 120.377ZM398.359 123.215L398.359 123.214C398.564 122.941 398.679 122.576 398.698 122.114C398.698 122.112 398.699 122.111 398.699 122.11C398.705 122.048 398.708 121.956 398.708 121.831C398.708 121.218 398.594 120.772 398.379 120.48C398.166 120.193 397.847 120.046 397.407 120.046C396.973 120.046 396.657 120.189 396.444 120.469C396.231 120.75 396.115 121.09 396.096 121.49L396.086 121.861L396.096 122.243C396.108 122.614 396.227 122.936 396.452 123.212C396.671 123.48 396.986 123.617 397.407 123.617C397.856 123.617 398.167 123.479 398.359 123.215Z" fill="white"/>
<path fill-rule="evenodd" clip-rule="evenodd" d="M399.217 119.775C399.576 120.224 399.767 120.798 399.794 121.493C399.8 121.568 399.804 121.682 399.804 121.831C399.804 121.981 399.8 122.094 399.794 122.17C399.767 122.859 399.576 123.433 399.217 123.888L399.216 123.888C398.851 124.344 398.312 124.567 397.613 124.567C396.987 124.567 396.479 124.364 396.096 123.957V126.037C396.096 126.118 396.071 126.191 396.016 126.246C395.962 126.309 395.888 126.339 395.803 126.339H395.322C395.236 126.339 395.161 126.309 395.101 126.248C395.045 126.192 395.02 126.119 395.02 126.037V119.497C395.02 119.415 395.045 119.342 395.101 119.286C395.161 119.226 395.236 119.195 395.322 119.195H395.774C395.858 119.195 395.93 119.225 395.985 119.286C396.046 119.34 396.076 119.413 396.076 119.497V119.717C396.452 119.302 396.967 119.096 397.613 119.096C398.319 119.096 398.858 119.319 399.217 119.775ZM395.882 119.397C395.879 119.395 395.877 119.392 395.874 119.389C395.85 119.361 395.82 119.346 395.774 119.346H395.322C395.276 119.346 395.239 119.361 395.208 119.393C395.185 119.416 395.171 119.448 395.171 119.497V126.037C395.171 126.087 395.185 126.119 395.208 126.141C395.239 126.173 395.276 126.188 395.322 126.188H395.803C395.849 126.188 395.88 126.173 395.904 126.146C395.905 126.144 395.906 126.143 395.908 126.141C395.93 126.119 395.944 126.087 395.944 126.037V123.752C395.944 123.72 395.965 123.691 395.996 123.68C396.026 123.67 396.06 123.68 396.08 123.706C396.444 124.178 396.952 124.415 397.613 124.415C398.278 124.415 398.769 124.205 399.098 123.793C399.434 123.368 399.617 122.827 399.642 122.163L399.643 122.159C399.649 122.091 399.652 121.982 399.652 121.831C399.652 121.681 399.649 121.572 399.643 121.503L399.642 121.499C399.617 120.829 399.434 120.288 399.098 119.87L399.098 119.869C398.775 119.458 398.285 119.248 397.613 119.248C396.925 119.248 396.412 119.492 396.061 119.975C396.042 120.002 396.008 120.013 395.977 120.002C395.946 119.992 395.925 119.963 395.925 119.931V119.497C395.925 119.451 395.91 119.421 395.882 119.397Z" fill="white"/>
<path d="M400.756 123.807L400.755 123.805C400.588 123.563 400.505 123.295 400.505 123.004C400.505 122.546 400.694 122.17 401.065 121.88L401.158 122C400.822 122.262 400.656 122.595 400.656 123.004C400.656 123.264 400.73 123.502 400.879 123.719C401.035 123.93 401.244 124.099 401.508 124.225C401.773 124.352 402.06 124.415 402.371 124.415C402.789 124.415 403.127 124.344 403.388 124.207C403.655 124.067 403.854 123.897 403.991 123.699C404.009 123.672 404.043 123.66 404.075 123.67C404.107 123.68 404.128 123.709 404.128 123.742V124.166C404.128 124.213 404.141 124.25 404.166 124.28C404.196 124.304 404.232 124.317 404.279 124.317H404.731C404.781 124.317 404.813 124.302 404.835 124.28C404.867 124.248 404.882 124.212 404.882 124.166V120.975C404.882 120.48 404.728 120.072 404.421 119.746L404.42 119.746C404.119 119.42 403.617 119.248 402.892 119.248C402.468 119.248 402.116 119.322 401.835 119.466L401.834 119.467C401.546 119.607 401.338 119.774 401.203 119.964C401.071 120.154 401.007 120.316 401.001 120.453C401.001 120.491 401.012 120.525 401.038 120.556C401.069 120.582 401.103 120.593 401.141 120.593H401.564C401.605 120.593 401.622 120.583 401.629 120.576C401.63 120.575 401.631 120.574 401.632 120.573C401.633 120.573 401.634 120.572 401.635 120.571C401.652 120.557 401.672 120.529 401.689 120.478C401.691 120.473 401.693 120.469 401.695 120.465C401.794 120.288 401.941 120.138 402.133 120.015C402.332 119.88 402.584 119.815 402.882 119.815C403.275 119.815 403.584 119.901 403.795 120.085C404.008 120.271 404.109 120.546 404.109 120.896V121.181C404.109 121.219 404.081 121.251 404.044 121.256L402.578 121.463H402.578L402.568 121.388L402.557 121.313L403.958 121.116V120.896C403.958 120.575 403.866 120.348 403.696 120.199C403.523 120.049 403.257 119.967 402.882 119.967C402.604 119.967 402.384 120.027 402.216 120.141L402.215 120.142C402.042 120.253 401.915 120.384 401.83 120.533C401.809 120.595 401.778 120.648 401.733 120.686C401.688 120.729 401.627 120.745 401.564 120.745H401.141C401.064 120.745 400.994 120.718 400.935 120.668C400.932 120.665 400.929 120.662 400.927 120.659C400.876 120.6 400.849 120.53 400.849 120.453V120.449C400.857 120.272 400.937 120.08 401.079 119.877L401.08 119.877C401.233 119.66 401.464 119.479 401.766 119.331C402.075 119.173 402.451 119.096 402.892 119.096C403.636 119.096 404.189 119.272 404.531 119.643C404.867 119.999 405.033 120.445 405.033 120.975V124.166C405.033 124.251 405.002 124.326 404.942 124.387C404.886 124.443 404.813 124.468 404.731 124.468H404.279C404.197 124.468 404.123 124.443 404.062 124.391C404.059 124.388 404.057 124.385 404.054 124.383C404.002 124.322 403.977 124.248 403.977 124.166V123.957C403.839 124.104 403.666 124.232 403.458 124.341C403.169 124.493 402.805 124.567 402.371 124.567C402.039 124.567 401.729 124.499 401.443 124.362C401.158 124.226 400.928 124.041 400.756 123.807Z" fill="white"/>
<path d="M402.557 121.313C401.939 121.4 401.44 121.587 401.065 121.88L401.112 121.94L401.158 122L401.159 121.999C401.505 121.728 401.977 121.547 402.578 121.463L402.557 121.313Z" fill="white"/>
<path fill-rule="evenodd" clip-rule="evenodd" d="M404.082 121.794C404.099 121.808 404.109 121.829 404.109 121.851V122.127C404.109 122.665 403.967 123.091 403.674 123.391C403.389 123.683 403.022 123.828 402.577 123.828C402.27 123.828 402 123.756 401.769 123.609L401.768 123.608L401.807 123.55L401.81 123.545L401.768 123.608C401.531 123.45 401.41 123.222 401.41 122.935C401.41 122.667 401.546 122.452 401.799 122.29C402.049 122.123 402.412 122.01 402.882 121.944L404.022 121.776C404.044 121.773 404.066 121.779 404.082 121.794ZM403.958 121.939L402.903 122.094L402.903 122.094C402.442 122.159 402.104 122.268 401.882 122.416L401.84 122.353L401.843 122.359L401.882 122.416L401.88 122.417C401.662 122.557 401.561 122.729 401.561 122.935C401.561 123.172 401.657 123.351 401.851 123.481C402.053 123.61 402.294 123.676 402.577 123.676C402.986 123.676 403.313 123.545 403.566 123.286C403.823 123.022 403.958 122.639 403.958 122.127V121.939Z" fill="white"/>
<path fill-rule="evenodd" clip-rule="evenodd" d="M406.732 123.954L406.731 123.953C406.321 123.536 406.106 122.957 406.08 122.228V122.227L406.07 121.833V121.83L406.08 121.436V121.435C406.106 120.706 406.321 120.13 406.731 119.719C407.148 119.301 407.72 119.096 408.437 119.096C408.918 119.096 409.33 119.183 409.672 119.361C410.008 119.536 410.262 119.754 410.428 120.017C410.597 120.275 410.692 120.537 410.706 120.802C410.714 120.889 410.687 120.966 410.621 121.022C410.56 121.074 410.486 121.1 410.404 121.1H409.932C409.858 121.1 409.789 121.085 409.737 121.044C409.689 121.005 409.65 120.937 409.616 120.856L409.615 120.852C409.507 120.547 409.358 120.34 409.173 120.221L409.172 120.22C408.984 120.092 408.744 120.026 408.447 120.026C408.058 120.026 407.754 120.148 407.528 120.386C407.31 120.617 407.184 120.98 407.165 121.49L407.155 121.839V121.843L407.165 122.173C407.184 122.69 407.31 123.056 407.528 123.286C407.747 123.518 408.05 123.637 408.447 123.637C408.744 123.637 408.985 123.574 409.173 123.452C409.358 123.326 409.507 123.115 409.615 122.811L409.616 122.807C409.649 122.728 409.686 122.662 409.733 122.623C409.785 122.572 409.856 122.554 409.932 122.554H410.404C410.488 122.554 410.562 122.584 410.622 122.642C410.687 122.699 410.714 122.775 410.706 122.861C410.692 123.119 410.598 123.381 410.429 123.645C410.263 123.908 410.009 124.127 409.672 124.302C409.337 124.48 408.924 124.567 408.437 124.567C407.721 124.567 407.149 124.365 406.732 123.954ZM410.302 120.1L410.301 120.099C410.152 119.863 409.921 119.661 409.602 119.495C409.288 119.332 408.9 119.248 408.437 119.248C407.75 119.248 407.221 119.443 406.838 119.826C406.462 120.203 406.256 120.738 406.231 121.44L406.221 121.831L406.231 122.223C406.256 122.925 406.462 123.463 406.838 123.847C407.221 124.223 407.751 124.415 408.437 124.415C408.907 124.415 409.294 124.331 409.601 124.168L409.602 124.168C409.921 124.001 410.152 123.8 410.301 123.564L410.301 123.564C410.46 123.316 410.543 123.079 410.555 122.852L410.555 122.848C410.56 122.805 410.547 122.777 410.522 122.756C410.521 122.754 410.519 122.753 410.518 122.752C410.486 122.72 410.45 122.705 410.404 122.705H409.932C409.878 122.705 409.852 122.718 409.838 122.732C409.836 122.734 409.834 122.736 409.832 122.738C409.815 122.751 409.788 122.788 409.757 122.863C409.642 123.187 409.477 123.429 409.256 123.578L409.255 123.579C409.037 123.72 408.766 123.788 408.447 123.788C408.018 123.788 407.671 123.658 407.418 123.391C407.164 123.122 407.034 122.713 407.014 122.179V122.178L407.004 121.844V121.839L407.014 121.485V121.484C407.034 120.956 407.164 120.55 407.418 120.282C407.677 120.009 408.023 119.874 408.447 119.874C408.766 119.874 409.038 119.946 409.256 120.094C409.477 120.238 409.642 120.477 409.757 120.8C409.788 120.875 409.815 120.912 409.832 120.925C409.845 120.936 409.875 120.948 409.932 120.948H410.404C410.453 120.948 410.491 120.934 410.522 120.907C410.547 120.886 410.56 120.858 410.555 120.815L410.555 120.811C410.543 120.577 410.459 120.341 410.302 120.1Z" fill="white"/>
<path fill-rule="evenodd" clip-rule="evenodd" d="M413.171 120.416C412.945 120.654 412.828 120.991 412.828 121.437V124.166C412.828 124.251 412.797 124.326 412.737 124.387C412.681 124.443 412.608 124.468 412.526 124.468H412.034C411.953 124.468 411.879 124.443 411.818 124.391C411.815 124.388 411.812 124.385 411.81 124.383C411.758 124.322 411.733 124.248 411.733 124.166V117.626C411.733 117.544 411.758 117.471 411.814 117.415C411.874 117.354 411.949 117.323 412.034 117.323H412.526C412.61 117.323 412.682 117.353 412.737 117.414C412.798 117.469 412.828 117.542 412.828 117.626V119.716C412.993 119.542 413.179 119.403 413.387 119.302C413.656 119.163 413.987 119.096 414.375 119.096C415.022 119.096 415.534 119.307 415.898 119.734C416.267 120.151 416.448 120.705 416.448 121.388V124.166C416.448 124.251 416.417 124.326 416.356 124.387C416.301 124.443 416.227 124.468 416.146 124.468H415.654C415.572 124.468 415.498 124.443 415.437 124.391C415.435 124.388 415.432 124.385 415.429 124.383C415.377 124.322 415.352 124.248 415.352 124.166V121.437C415.352 120.983 415.24 120.643 415.027 120.405L415.026 120.404C414.821 120.168 414.52 120.046 414.11 120.046C413.714 120.046 413.404 120.171 413.171 120.416ZM412.631 117.522C412.629 117.521 412.628 117.519 412.626 117.517C412.602 117.49 412.572 117.475 412.526 117.475H412.034C411.989 117.475 411.952 117.49 411.921 117.522C411.898 117.544 411.884 117.576 411.884 117.626V124.166C411.884 124.213 411.897 124.249 411.921 124.279C411.951 124.304 411.988 124.317 412.034 124.317H412.526C412.576 124.317 412.607 124.302 412.63 124.28C412.662 124.248 412.677 124.212 412.677 124.166V121.437C412.677 120.964 412.802 120.586 413.062 120.312C413.327 120.032 413.679 119.894 414.11 119.894C414.551 119.894 414.899 120.027 415.14 120.304C415.385 120.578 415.503 120.959 415.503 121.437V124.166C415.503 124.213 415.516 124.249 415.54 124.279C415.57 124.304 415.607 124.317 415.654 124.317H416.146C416.195 124.317 416.227 124.302 416.249 124.28C416.281 124.248 416.296 124.212 416.296 124.166V121.388C416.296 120.732 416.123 120.216 415.784 119.833L415.783 119.832C415.453 119.445 414.987 119.248 414.375 119.248C414.003 119.248 413.698 119.312 413.456 119.436L413.454 119.437C413.21 119.556 412.996 119.733 412.812 119.967C412.792 119.993 412.758 120.003 412.728 119.992C412.697 119.982 412.677 119.953 412.677 119.921V117.626C412.677 117.58 412.662 117.549 412.634 117.526C412.633 117.525 412.632 117.523 412.631 117.522Z" fill="white"/>
<path fill-rule="evenodd" clip-rule="evenodd" d="M421.261 121.457C421.261 121.499 421.227 121.533 421.185 121.533H418.49C418.448 121.533 418.415 121.499 418.415 121.457V121.428C418.415 120.961 418.536 120.575 418.786 120.276L418.786 120.276C419.045 119.968 419.395 119.815 419.828 119.815C420.26 119.815 420.61 119.968 420.868 120.275C420.869 120.275 420.869 120.275 420.869 120.276L420.811 120.324L420.868 120.274C420.868 120.274 420.868 120.275 420.868 120.275C421.132 120.573 421.261 120.96 421.261 121.428V121.457ZM420.755 120.375L420.754 120.373C420.527 120.103 420.221 119.967 419.828 119.967C419.435 119.967 419.129 120.103 418.902 120.373C418.688 120.629 418.574 120.964 418.566 121.381H421.109C421.101 120.965 420.981 120.631 420.755 120.375Z" fill="white"/>
<path fill-rule="evenodd" clip-rule="evenodd" d="M418.161 123.923L418.16 123.923C417.745 123.486 417.521 122.896 417.48 122.161V122.159L417.47 121.824V121.819L417.48 121.494V121.492C417.527 120.769 417.755 120.186 418.17 119.75L418.17 119.75C418.593 119.313 419.148 119.096 419.828 119.096C420.573 119.096 421.16 119.336 421.577 119.822C421.992 120.299 422.195 120.942 422.195 121.743V121.91C422.195 121.996 422.164 122.071 422.104 122.131C422.048 122.187 421.975 122.213 421.893 122.213H418.566V122.222C418.585 122.635 418.708 122.984 418.933 123.272C419.161 123.549 419.457 123.686 419.828 123.686C420.12 123.686 420.35 123.629 420.525 123.521C420.717 123.399 420.852 123.277 420.936 123.157L420.938 123.155C420.968 123.115 420.995 123.081 421.019 123.055C421.041 123.032 421.066 123.008 421.092 122.995C421.143 122.966 421.215 122.957 421.293 122.957H421.775C421.849 122.957 421.916 122.978 421.971 123.024C422.031 123.074 422.058 123.142 422.058 123.22C422.058 123.394 421.949 123.586 421.763 123.792C421.577 124.006 421.315 124.189 420.981 124.343L420.98 124.343C420.647 124.493 420.266 124.567 419.838 124.567C419.146 124.567 418.584 124.354 418.161 123.923ZM421.463 119.921L421.462 119.921C421.079 119.474 420.538 119.248 419.828 119.248C419.183 119.248 418.669 119.452 418.279 119.855C417.895 120.259 417.677 120.805 417.631 121.499L417.622 121.819V121.824L417.632 122.154C417.671 122.862 417.885 123.414 418.27 123.818C418.659 124.214 419.18 124.415 419.838 124.415C420.249 124.415 420.608 124.344 420.918 124.205C421.239 124.057 421.481 123.886 421.649 123.693L421.65 123.692C421.831 123.491 421.906 123.335 421.906 123.22C421.906 123.18 421.894 123.157 421.874 123.141C421.851 123.121 421.82 123.109 421.775 123.109H421.293C421.217 123.109 421.179 123.119 421.165 123.128C421.163 123.129 421.162 123.129 421.16 123.13C421.161 123.13 421.16 123.13 421.158 123.132C421.157 123.133 421.155 123.134 421.153 123.136C421.147 123.141 421.139 123.148 421.13 123.158C421.111 123.178 421.088 123.207 421.06 123.244C420.961 123.386 420.808 123.521 420.606 123.649L420.605 123.649C420.4 123.777 420.139 123.838 419.828 123.838C419.413 123.838 419.073 123.68 418.816 123.367L418.814 123.365C418.568 123.05 418.435 122.67 418.415 122.229L418.415 122.225V122.137C418.415 122.095 418.448 122.061 418.49 122.061H421.893C421.943 122.061 421.975 122.047 421.997 122.024C422.029 121.993 422.044 121.956 422.044 121.91V121.743C422.044 120.968 421.847 120.363 421.463 119.921Z" fill="white"/>
<path fill-rule="evenodd" clip-rule="evenodd" d="M385.767 147.374C385.867 147.474 385.984 147.525 386.117 147.525H387.392C387.558 147.525 387.691 147.483 387.791 147.4C387.908 147.299 387.983 147.199 388.016 147.099L389.391 143.546H397.586L398.961 147.099C398.994 147.199 399.061 147.299 399.161 147.4C399.261 147.483 399.402 147.525 399.585 147.525H400.86C400.993 147.525 401.11 147.474 401.209 147.374C401.31 147.274 401.359 147.158 401.359 147.024L401.31 146.749L395.138 130.559C395.004 130.192 394.738 130.008 394.338 130.008H392.639C392.239 130.008 391.972 130.192 391.839 130.559L385.642 146.749C385.626 146.799 385.617 146.89 385.617 147.024C385.617 147.158 385.667 147.274 385.767 147.374ZM393.488 132.511L396.862 141.394H390.115L393.488 132.511Z" fill="white"/>
<path d="M403.656 131.935C403.773 132.035 403.915 132.085 404.081 132.085H405.655C405.822 132.085 405.964 132.035 406.08 131.935C406.197 131.818 406.255 131.677 406.255 131.51V130.159C406.255 129.992 406.197 129.85 406.08 129.733C405.964 129.616 405.822 129.558 405.655 129.558H404.081C403.915 129.558 403.773 129.616 403.656 129.733C403.556 129.85 403.506 129.992 403.506 130.159V131.51C403.506 131.677 403.556 131.818 403.656 131.935Z" fill="white"/>
<path d="M403.856 147.374C403.973 147.474 404.115 147.525 404.281 147.525H405.48C405.647 147.525 405.78 147.474 405.88 147.374C405.997 147.258 406.055 147.116 406.055 146.949V135.088C406.055 134.921 405.997 134.788 405.88 134.688C405.78 134.571 405.647 134.513 405.48 134.513H404.281C404.115 134.513 403.973 134.571 403.856 134.688C403.756 134.788 403.706 134.921 403.706 135.088V146.949C403.706 147.116 403.756 147.258 403.856 147.374Z" fill="white"/>
<path d="M409.908 147.374C410.025 147.474 410.166 147.525 410.333 147.525H411.557C411.724 147.525 411.865 147.474 411.982 147.374C412.099 147.258 412.157 147.116 412.157 146.949V139.592C412.157 138.692 412.415 137.983 412.932 137.465C413.448 136.931 414.156 136.665 415.056 136.665H416.555C416.721 136.665 416.855 136.614 416.955 136.514C417.071 136.414 417.129 136.281 417.129 136.114V135.088C417.129 134.921 417.071 134.788 416.955 134.688C416.855 134.571 416.721 134.513 416.555 134.513H415.58C413.931 134.513 412.765 135.08 412.082 136.214V135.113C412.082 134.946 412.024 134.804 411.907 134.688C411.791 134.571 411.649 134.513 411.482 134.513H410.333C410.166 134.513 410.025 134.571 409.908 134.688C409.808 134.804 409.758 134.946 409.758 135.113V146.949C409.758 147.116 409.808 147.258 409.908 147.374Z" fill="white"/>
<path d="M420.7 147.374C420.816 147.474 420.958 147.525 421.124 147.525H422.299C422.466 147.525 422.599 147.474 422.699 147.374C422.815 147.258 422.874 147.116 422.874 146.949V136.514H428.221V146.949C428.221 147.116 428.271 147.258 428.371 147.374C428.488 147.474 428.629 147.525 428.796 147.525H429.945C430.112 147.525 430.245 147.474 430.345 147.374C430.462 147.258 430.52 147.116 430.52 146.949V129.583C430.52 129.416 430.462 129.283 430.345 129.183C430.245 129.066 430.112 129.007 429.945 129.007H428.796C428.629 129.007 428.488 129.066 428.371 129.183C428.271 129.283 428.221 129.416 428.221 129.583V134.513H422.874V133.386C422.874 132.586 423.024 131.994 423.323 131.61C423.623 131.209 424.148 131.009 424.898 131.009H426.247C426.414 131.009 426.547 130.959 426.647 130.859C426.763 130.742 426.822 130.601 426.822 130.434V129.583C426.822 129.416 426.763 129.283 426.647 129.183C426.547 129.066 426.414 129.007 426.247 129.007H424.848C421.982 129.007 420.55 130.425 420.55 133.261V134.513H418.426C418.259 134.513 418.118 134.571 418.001 134.688C417.901 134.788 417.851 134.921 417.851 135.088V135.939C417.851 136.106 417.901 136.247 418.001 136.364C418.118 136.464 418.259 136.514 418.426 136.514H420.55V146.949C420.55 147.116 420.6 147.258 420.7 147.374Z" fill="white"/>
<path fill-rule="evenodd" clip-rule="evenodd" d="M435.283 146.223C436.299 147.258 437.723 147.775 439.556 147.775C441.388 147.775 442.804 147.258 443.803 146.223C444.82 145.189 445.361 143.813 445.428 142.094C445.444 141.911 445.453 141.552 445.453 141.019C445.453 140.485 445.444 140.126 445.428 139.943C445.361 138.241 444.82 136.873 443.803 135.839C442.787 134.788 441.371 134.262 439.556 134.262C437.74 134.262 436.324 134.788 435.308 135.839C434.292 136.873 433.75 138.241 433.684 139.943L433.659 141.019L433.684 142.094C433.75 143.813 434.283 145.189 435.283 146.223ZM442.029 144.847C441.43 145.514 440.605 145.848 439.556 145.848C438.506 145.848 437.673 145.514 437.057 144.847C436.441 144.18 436.116 143.22 436.082 141.969L436.057 141.019L436.082 140.068C436.116 138.817 436.441 137.857 437.057 137.19C437.673 136.523 438.506 136.189 439.556 136.189C440.605 136.189 441.43 136.523 442.029 137.19C442.646 137.857 442.979 138.817 443.029 140.068C443.046 140.235 443.054 140.551 443.054 141.019C443.054 141.486 443.046 141.802 443.029 141.969C442.979 143.22 442.646 144.18 442.029 144.847Z" fill="white"/>
<path d="M451.188 147.374C451.305 147.474 451.472 147.525 451.688 147.525H452.663C453.096 147.525 453.379 147.316 453.512 146.899L456.411 137.941L459.31 146.899C459.409 147.316 459.684 147.525 460.134 147.525H461.109C461.342 147.525 461.517 147.474 461.633 147.374C461.75 147.274 461.85 147.116 461.933 146.899L465.456 135.288L465.506 135.038C465.506 134.888 465.456 134.763 465.357 134.663C465.257 134.563 465.14 134.513 465.007 134.513H463.882C463.716 134.513 463.574 134.563 463.457 134.663C463.358 134.763 463.299 134.855 463.283 134.938L460.509 144.372L457.536 135.038C457.502 134.905 457.427 134.788 457.311 134.688C457.194 134.571 457.036 134.513 456.836 134.513H455.986C455.786 134.513 455.628 134.571 455.511 134.688C455.395 134.788 455.32 134.905 455.286 135.038L452.313 144.372L449.539 134.938C449.506 134.838 449.431 134.746 449.314 134.663C449.215 134.563 449.081 134.513 448.915 134.513H447.815C447.682 134.513 447.557 134.563 447.44 134.663C447.34 134.763 447.29 134.888 447.29 135.038L447.34 135.288L450.889 146.899C450.972 147.116 451.072 147.274 451.188 147.374Z" fill="white"/>
</g>
<path d="M266.401 150.234L273.447 130.257H277.011L269.966 150.234H266.401ZM277.707 150.234L284.753 130.257H288.317L281.271 150.234H277.707Z" fill="#C182FF"/>
<path d="M112.791 120.367H106.434V149.228H112.791V143.48L115.169 141.008L120.492 149.228H127.725L119.485 136.54L127.416 128.302H119.565L112.791 135.538V120.367Z" fill="white"/>
<path d="M178.638 121.894H172.355V128.302H168.713V133.47H172.355V144.483C172.355 146.023 172.748 147.222 173.574 148.033C174.4 148.843 175.619 149.228 177.186 149.228H182.69V144.172H178.638V133.47H182.69V128.302H178.638V121.894Z" fill="white"/>
<path fill-rule="evenodd" clip-rule="evenodd" d="M137.428 127.929C134.325 127.929 131.814 128.885 129.919 130.813L129.918 130.815C128.047 132.757 127.125 135.417 127.125 138.765C127.125 142.075 128.035 144.722 129.879 146.676C131.726 148.633 134.278 149.6 137.503 149.6C140.13 149.6 142.347 148.982 144.138 147.732L144.139 147.731L144.141 147.73C145.931 146.442 147.048 144.74 147.484 142.631L147.543 142.346H141.308L141.255 142.51C141.038 143.17 140.599 143.704 139.921 144.112C139.255 144.508 138.44 144.712 137.466 144.712C136.28 144.712 135.345 144.385 134.637 143.749C133.932 143.103 133.576 142.262 133.576 141.205V140.343H147.164L147.188 140.134C147.289 139.281 147.339 138.446 147.339 137.629C147.339 134.636 146.432 132.265 144.595 130.547C142.8 128.795 140.402 127.929 137.428 127.929ZM134.596 133.71C135.277 133.122 136.189 132.818 137.354 132.818C138.48 132.818 139.367 133.116 140.037 133.692L140.039 133.693L140.04 133.694C140.718 134.256 141.056 134.989 141.056 135.915V136.051H133.576V135.989C133.576 135.036 133.916 134.284 134.594 133.712L134.596 133.71Z" fill="white"/>
<path fill-rule="evenodd" clip-rule="evenodd" d="M158.306 127.929C155.646 127.929 153.51 128.52 151.925 129.729L151.924 129.73C150.342 130.946 149.553 132.632 149.553 134.76C149.553 136.422 150.075 137.784 151.132 138.822C152.183 139.854 153.743 140.545 155.78 140.916L155.782 140.917L159.429 141.514L159.432 141.514C160.044 141.598 160.5 141.763 160.819 141.993L160.82 141.994L160.822 141.995C161.113 142.199 161.314 142.58 161.374 143.209C161.371 143.773 161.147 144.199 160.693 144.512L160.69 144.513C160.236 144.834 159.558 145.01 158.624 145.01C157.598 145.01 156.828 144.787 156.286 144.371C155.768 143.964 155.5 143.38 155.5 142.583V142.346H149.236V142.583C149.236 144.717 150.079 146.433 151.757 147.708L151.758 147.708C153.443 148.979 155.728 149.6 158.587 149.6C161.382 149.6 163.617 148.998 165.265 147.765C166.935 146.525 167.769 144.801 167.769 142.621C167.769 140.903 167.277 139.515 166.269 138.483C165.265 137.456 163.776 136.809 161.835 136.519L161.834 136.519L158.305 135.941L158.302 135.941C157.864 135.88 157.564 135.838 157.401 135.813C157.272 135.78 157.103 135.718 156.89 135.624C156.691 135.536 156.494 135.407 156.298 135.235C156.018 134.987 155.874 134.657 155.874 134.22C155.874 133.667 156.074 133.263 156.467 132.977C156.872 132.682 157.463 132.52 158.269 132.52C159.195 132.52 159.851 132.709 160.277 133.05C160.695 133.383 160.927 133.892 160.945 134.617L160.95 134.848H167.198L167.19 134.604C167.126 132.56 166.297 130.928 164.706 129.729C163.121 128.52 160.979 127.929 158.306 127.929ZM165.123 147.575L165.265 147.765L165.264 147.765L165.123 147.575ZM156.14 144.558L156.285 144.37L156.286 144.371L156.287 144.372L156.14 144.558ZM161.612 143.198L161.375 143.22L161.374 143.209L161.374 143.198H161.612Z" fill="white"/>
<path fill-rule="evenodd" clip-rule="evenodd" d="M208.578 127.929C205.805 127.929 203.559 128.552 201.863 129.821C200.17 131.084 199.245 132.889 199.079 135.209L199.061 135.463H205.269L205.286 135.243C205.344 134.463 205.626 133.889 206.114 133.491L206.115 133.49C206.619 133.077 207.342 132.855 208.317 132.855C209.298 132.855 209.989 133.089 210.436 133.516C210.881 133.94 211.123 134.594 211.123 135.524V136.479H205.945C203.603 136.479 201.719 137.06 200.32 138.249C198.927 139.43 198.238 141.053 198.238 143.086C198.238 145.051 198.848 146.644 200.084 147.839L200.086 147.84C201.335 149.021 202.998 149.6 205.049 149.6C206.613 149.6 207.997 149.283 209.195 148.641L209.197 148.64C210.287 148.044 211.061 147.258 211.5 146.28L211.556 146.626L211.557 146.629C211.714 147.517 212.087 148.195 212.699 148.626L212.701 148.627L212.702 148.628C213.31 149.041 214.227 149.228 215.413 149.228H219.946V144.712H217.425V135.636C217.425 133.504 216.713 131.682 215.288 130.184C213.88 128.663 211.623 127.929 208.578 127.929ZM204.614 142.192C204.614 141.594 204.815 141.179 205.194 140.903C205.586 140.616 206.204 140.455 207.085 140.455H211.123V140.944C211.123 142.134 210.762 143.055 210.057 143.735C209.352 144.403 208.383 144.749 207.122 144.749C206.229 144.749 205.603 144.583 205.204 144.288C204.819 144.003 204.614 143.574 204.614 142.956V142.192Z" fill="white"/>
<path d="M190.931 128.302C188.774 128.302 187.273 128.867 186.561 130.097C186.252 130.622 186.037 131.141 185.919 131.652L185.918 131.654L185.918 131.657C185.814 132.15 185.763 132.751 185.763 133.456V149.228H192.046V133.47H198.134V128.302H190.931Z" fill="white"/>
<path d="M224.11 149.245C223.433 149.245 222.872 149.031 222.426 148.602C221.999 148.155 221.785 147.605 221.785 146.953C221.785 146.301 221.999 145.761 222.426 145.332C222.872 144.885 223.433 144.661 224.11 144.661C224.769 144.661 225.312 144.885 225.74 145.332C226.167 145.761 226.381 146.301 226.381 146.953C226.381 147.605 226.167 148.155 225.74 148.602C225.312 149.031 224.769 149.245 224.11 149.245Z" fill="#F62E76"/>
<path d="M79.9403 131.94C80.4555 131.426 81.2909 131.426 81.8062 131.94L83.9243 134.053C84.4395 134.567 84.4395 135.4 83.9243 135.914L81.8062 138.027C81.2909 138.541 80.4555 138.541 79.9403 138.027L77.8222 135.914C77.3069 135.4 77.3069 134.567 77.8222 134.053L79.9403 131.94Z" fill="#A950FF"/>
<path d="M89.6957 131.924C90.2018 131.419 91.0222 131.419 91.5283 131.924L93.6797 134.069C94.1858 134.574 94.1858 135.393 93.6797 135.897L91.5283 138.043C91.0222 138.548 90.2018 138.548 89.6957 138.043L87.5443 135.897C87.0382 135.393 87.0382 134.574 87.5443 134.069C88.0503 133.565 89.6957 131.924 89.6957 131.924Z" fill="#A950FF"/>
<path d="M79.9569 122.21C80.463 121.705 81.2835 121.705 81.7895 122.21L83.941 124.356C84.447 124.861 84.447 125.679 83.941 126.184L81.7895 128.33C81.2835 128.835 80.463 128.835 79.9569 128.33L77.8055 126.184C77.2995 125.679 77.2995 124.861 77.8055 124.356L79.9569 122.21Z" fill="#E9C1FF"/>
<path d="M79.0554 129.196C79.5706 129.71 79.5706 130.543 79.0554 131.057L76.9373 133.17C76.422 133.684 75.5866 133.684 75.0714 133.17L72.9533 131.057C72.438 130.543 72.438 129.71 72.9533 129.196L75.0714 127.084C75.5866 126.57 76.422 126.57 76.9373 127.084L79.0554 129.196Z" fill="#CD88FF"/>
<path d="M74.2025 134.069C74.7085 134.574 74.7085 135.393 74.2025 135.897L72.051 138.043C71.545 138.548 70.7245 138.548 70.2185 138.043L68.067 135.897C67.561 135.393 67.561 134.574 68.067 134.069L70.2185 131.924C70.7245 131.419 71.545 131.419 72.0511 131.924L74.2025 134.069Z" fill="#A950FF"/>
<path d="M88.7937 129.196C89.309 129.71 89.309 130.543 88.7937 131.057L86.6757 133.17C86.1604 133.684 85.325 133.684 84.8097 133.17L82.6917 131.057C82.1764 130.543 82.1764 129.71 82.6917 129.196L84.8097 127.084C85.325 126.57 86.1604 126.57 86.6757 127.084L88.7937 129.196Z" fill="#CD88FF"/>
<path d="M82.9577 143.071C84.1089 144.219 84.1089 146.081 82.9577 147.229C81.8066 148.377 79.9402 148.377 78.789 147.229C77.6379 146.081 77.6379 144.219 78.789 143.071C79.9402 141.923 81.8066 141.923 82.9577 143.071Z" fill="#F62E76"/>
<circle cx="51.6284" cy="26.9785" r="6.29249" fill="#ED6A5E"/>
<circle cx="72.605" cy="26.9785" r="6.29249" fill="#F4BF4F"/>
<circle cx="93.5777" cy="26.9785" r="6.29249" fill="#61C554"/>
</g>
<defs>
<filter id="filter0_d_3076_20203" x="0.0703125" y="0.578613" width="540.742" height="277.462" filterUnits="userSpaceOnUse" color-interpolation-filters="sRGB">
<feFlood flood-opacity="0" result="BackgroundImageFix"/>
<feColorMatrix in="SourceAlpha" type="matrix" values="0 0 0 0 0 0 0 0 0 0 0 0 0 0 0 0 0 0 127 0" result="hardAlpha"/>
<feOffset dy="24"/>
<feGaussianBlur stdDeviation="12"/>
<feComposite in2="hardAlpha" operator="out"/>
<feColorMatrix type="matrix" values="0 0 0 0 0.352941 0 0 0 0 0.184314 0 0 0 0 0.835294 0 0 0 0.22 0"/>
<feBlend mode="normal" in2="BackgroundImageFix" result="effect1_dropShadow_3076_20203"/>
<feBlend mode="normal" in="SourceGraphic" in2="effect1_dropShadow_3076_20203" result="shape"/>
</filter>
<clipPath id="clip0_3076_20203">
<rect width="137" height="53" fill="white" transform="translate(328.875 107)"/>
</clipPath>
</defs>
</svg>
