<svg width="599" height="423" viewBox="0 0 599 423" fill="none" xmlns="http://www.w3.org/2000/svg">
<g filter="url(#filter0_f_16132_27912)">
<rect width="358.052" height="282.057" transform="matrix(-1 0 0 1 493.971 70.499)" fill="url(#paint0_linear_16132_27912)"/>
</g>
<g filter="url(#filter1_d_16132_27912)">
<rect x="53.2978" y="95.6132" width="493.261" height="229.981" rx="10.1142" fill="#161617" stroke="#252526" stroke-width="0.518676"/>
<path d="M53.5571 151.237H546.299V315.48C546.299 320.923 541.887 325.335 536.444 325.335H63.412C57.9693 325.335 53.5571 320.923 53.5571 315.48V151.237Z" fill="#111113"/>
<path d="M283.361 250L290.407 230.024H293.971L286.926 250H283.361ZM294.667 250L301.713 230.024H305.277L298.231 250H294.667Z" fill="#C182FF"/>
<path d="M149.916 220.133H143.559V248.994H149.916V243.245L152.294 240.774L157.617 248.994H164.85L156.61 236.306L164.541 228.068H156.69L149.916 235.303V220.133Z" fill="white"/>
<path d="M215.763 221.66H209.48V228.068H205.838V233.236H209.48V244.249C209.48 245.789 209.873 246.988 210.699 247.799C211.525 248.609 212.744 248.994 214.311 248.994H219.815V243.938H215.763V233.236H219.815V228.068H215.763V221.66Z" fill="white"/>
<path fill-rule="evenodd" clip-rule="evenodd" d="M174.553 227.695C171.45 227.695 168.939 228.651 167.044 230.579L167.043 230.581C165.172 232.523 164.25 235.183 164.25 238.531C164.25 241.841 165.16 244.488 167.004 246.442C168.851 248.399 171.403 249.366 174.628 249.366C177.255 249.366 179.472 248.748 181.263 247.498L181.264 247.497L181.266 247.496C183.056 246.208 184.173 244.506 184.609 242.397L184.668 242.112H178.433L178.38 242.275C178.163 242.935 177.724 243.469 177.046 243.878C176.38 244.274 175.565 244.478 174.591 244.478C173.405 244.478 172.47 244.151 171.762 243.515C171.057 242.869 170.701 242.028 170.701 240.971V240.109H184.289L184.313 239.9C184.414 239.046 184.464 238.211 184.464 237.394C184.464 234.402 183.557 232.031 181.72 230.313C179.925 228.561 177.527 227.695 174.553 227.695ZM171.721 233.476C172.402 232.888 173.314 232.584 174.479 232.584C175.605 232.584 176.492 232.882 177.162 233.457L177.164 233.459L177.165 233.46C177.843 234.022 178.181 234.754 178.181 235.681V235.816H170.701V235.755C170.701 234.802 171.041 234.05 171.719 233.477L171.721 233.476Z" fill="white"/>
<path fill-rule="evenodd" clip-rule="evenodd" d="M195.431 227.695C192.771 227.695 190.635 228.286 189.05 229.495L189.049 229.495C187.467 230.711 186.678 232.398 186.678 234.526C186.678 236.188 187.2 237.55 188.257 238.588C189.308 239.62 190.868 240.311 192.905 240.682L192.907 240.683L196.554 241.28L196.557 241.28C197.169 241.364 197.625 241.529 197.944 241.759L197.945 241.76L197.947 241.761C198.238 241.964 198.439 242.346 198.499 242.975C198.496 243.539 198.272 243.965 197.818 244.278L197.815 244.279C197.361 244.6 196.683 244.776 195.749 244.776C194.723 244.776 193.953 244.553 193.411 244.137C192.893 243.729 192.625 243.145 192.625 242.349V242.112H186.361V242.349C186.361 244.483 187.204 246.199 188.882 247.474L188.883 247.474C190.568 248.745 192.853 249.366 195.712 249.366C198.507 249.366 200.742 248.763 202.39 247.531C204.06 246.291 204.894 244.567 204.894 242.386C204.894 240.669 204.402 239.281 203.394 238.249C202.39 237.222 200.901 236.575 198.96 236.285L198.959 236.285L195.43 235.707L195.427 235.707C194.989 235.646 194.689 235.604 194.526 235.579C194.397 235.546 194.228 235.484 194.015 235.39C193.816 235.302 193.619 235.173 193.423 235.001C193.143 234.753 192.999 234.423 192.999 233.986C192.999 233.433 193.199 233.029 193.592 232.743C193.997 232.448 194.588 232.286 195.394 232.286C196.32 232.286 196.976 232.475 197.402 232.816C197.82 233.149 198.052 233.657 198.07 234.383L198.075 234.614H204.323L204.315 234.37C204.251 232.326 203.422 230.694 201.831 229.494C200.246 228.286 198.104 227.695 195.431 227.695ZM202.248 247.341L202.39 247.531L202.389 247.531L202.248 247.341ZM193.265 244.324L193.41 244.136L193.411 244.137L193.412 244.137L193.265 244.324ZM198.737 242.964L198.5 242.986L198.499 242.975L198.499 242.964H198.737Z" fill="white"/>
<path fill-rule="evenodd" clip-rule="evenodd" d="M245.703 227.695C242.93 227.695 240.684 228.318 238.988 229.586C237.295 230.85 236.37 232.655 236.204 234.975L236.186 235.229H242.394L242.411 235.009C242.469 234.229 242.751 233.655 243.239 233.256L243.24 233.256C243.744 232.843 244.467 232.621 245.442 232.621C246.423 232.621 247.114 232.855 247.561 233.282C248.006 233.706 248.248 234.36 248.248 235.29V236.245H243.07C240.728 236.245 238.844 236.826 237.445 238.015C236.052 239.196 235.363 240.819 235.363 242.852C235.363 244.817 235.973 246.41 237.209 247.604L237.211 247.606C238.46 248.787 240.123 249.366 242.174 249.366C243.738 249.366 245.122 249.049 246.32 248.407L246.322 248.406C247.412 247.809 248.186 247.024 248.625 246.046L248.681 246.392L248.682 246.395C248.839 247.283 249.212 247.961 249.824 248.392L249.826 248.393L249.827 248.394C250.435 248.807 251.352 248.994 252.538 248.994H257.071V244.478H254.55V235.401C254.55 233.27 253.838 231.448 252.413 229.95C251.005 228.428 248.748 227.695 245.703 227.695ZM241.739 241.958C241.739 241.36 241.94 240.945 242.319 240.668C242.711 240.382 243.329 240.221 244.21 240.221H248.248V240.71C248.248 241.9 247.887 242.821 247.182 243.501C246.477 244.169 245.508 244.515 244.247 244.515C243.354 244.515 242.728 244.349 242.329 244.054C241.944 243.769 241.739 243.34 241.739 242.722V241.958Z" fill="white"/>
<path d="M228.056 228.068C225.899 228.068 224.398 228.633 223.686 229.863C223.377 230.388 223.162 230.907 223.044 231.418L223.043 231.42L223.043 231.422C222.939 231.916 222.888 232.517 222.888 233.222V248.994H229.171V233.236H235.259V228.068H228.056Z" fill="white"/>
<path d="M261.234 249.011C260.557 249.011 259.996 248.797 259.551 248.368C259.123 247.921 258.909 247.371 258.909 246.719C258.909 246.067 259.123 245.526 259.551 245.098C259.996 244.651 260.557 244.427 261.234 244.427C261.893 244.427 262.436 244.651 262.864 245.098C263.291 245.526 263.505 246.067 263.505 246.719C263.505 247.371 263.291 247.921 262.864 248.368C262.436 248.797 261.893 249.011 261.234 249.011Z" fill="#F62E76"/>
<path d="M117.064 231.706C117.579 231.192 118.414 231.192 118.93 231.706L121.048 233.819C121.563 234.333 121.563 235.166 121.048 235.68L118.93 237.793C118.414 238.307 117.579 238.307 117.064 237.793L114.946 235.68C114.43 235.166 114.43 234.333 114.946 233.819L117.064 231.706Z" fill="#A950FF"/>
<path d="M126.819 231.689C127.325 231.185 128.146 231.185 128.652 231.689L130.803 233.835C131.309 234.34 131.309 235.158 130.803 235.663L128.652 237.809C128.146 238.314 127.325 238.314 126.819 237.809L124.668 235.663C124.162 235.158 124.162 234.34 124.668 233.835C125.174 233.331 126.819 231.689 126.819 231.689Z" fill="#A950FF"/>
<path d="M117.08 221.976C117.587 221.471 118.407 221.471 118.913 221.976L121.064 224.122C121.571 224.627 121.571 225.445 121.064 225.95L118.913 228.096C118.407 228.6 117.587 228.6 117.08 228.096L114.929 225.95C114.423 225.445 114.423 224.627 114.929 224.122L117.08 221.976Z" fill="#E9C1FF"/>
<path d="M116.179 228.962C116.694 229.476 116.694 230.309 116.179 230.823L114.061 232.936C113.546 233.45 112.71 233.45 112.195 232.936L110.077 230.823C109.562 230.309 109.562 229.476 110.077 228.962L112.195 226.849C112.71 226.336 113.546 226.336 114.061 226.849L116.179 228.962Z" fill="#CD88FF"/>
<path d="M111.326 233.835C111.832 234.34 111.832 235.158 111.326 235.663L109.175 237.809C108.669 238.314 107.848 238.314 107.342 237.809L105.191 235.663C104.685 235.158 104.685 234.34 105.191 233.835L107.342 231.689C107.848 231.185 108.669 231.185 109.175 231.689L111.326 233.835Z" fill="#A950FF"/>
<path d="M125.917 228.962C126.433 229.476 126.433 230.309 125.917 230.823L123.799 232.936C123.284 233.45 122.449 233.45 121.933 232.936L119.815 230.823C119.3 230.309 119.3 229.476 119.815 228.962L121.933 226.849C122.449 226.336 123.284 226.336 123.799 226.849L125.917 228.962Z" fill="#CD88FF"/>
<path d="M120.081 242.837C121.232 243.985 121.232 245.847 120.081 246.995C118.93 248.143 117.064 248.143 115.913 246.995C114.761 245.847 114.761 243.985 115.913 242.837C117.064 241.689 118.93 241.689 120.081 242.837Z" fill="#F62E76"/>
<path d="M363.196 254.632H361.776V251.59H363.196C363.598 251.585 363.981 251.423 364.266 251.139C364.55 250.855 364.712 250.471 364.717 250.069V241.328C364.712 240.926 364.55 240.542 364.266 240.258C363.981 239.974 363.598 239.812 363.196 239.807H355.874V236.764H363.196C364.406 236.764 365.567 237.245 366.423 238.101C367.278 238.957 367.759 240.117 367.759 241.328V250.069C367.759 251.279 367.278 252.44 366.423 253.296C365.567 254.152 364.406 254.632 363.196 254.632Z" fill="#4285F4"/>
<path d="M347.072 254.633H337.134V251.59H347.072V254.633Z" fill="#4285F4"/>
<path fill-rule="evenodd" clip-rule="evenodd" d="M340.116 239.807H332.774C331.563 239.807 330.403 239.326 329.547 238.47C328.691 237.614 328.21 236.454 328.21 235.243V226.502C328.21 225.292 328.691 224.131 329.547 223.275C330.403 222.419 331.563 221.939 332.774 221.939H334.802V224.981H332.774C332.37 224.981 331.983 225.141 331.698 225.426C331.413 225.712 331.253 226.099 331.253 226.502V235.243C331.258 235.645 331.42 236.029 331.704 236.313C331.988 236.597 332.372 236.759 332.774 236.764H340.116V239.807Z" fill="#669DF6"/>
<path d="M358.734 224.981H347.62V221.939H358.734V224.981Z" fill="#4285F4"/>
<path d="M341.15 221.939V218.897H335.066C334.461 218.897 333.882 219.135 333.452 219.561C333.023 219.986 332.779 220.564 332.774 221.168V225.732C332.774 226.339 333.015 226.922 333.445 227.352C333.875 227.782 334.458 228.023 335.066 228.023H341.15V224.981H335.816V221.939H341.15Z" fill="#AECBFA"/>
<path fill-rule="evenodd" clip-rule="evenodd" d="M349.506 221.168V225.732C349.506 226.336 349.267 226.916 348.842 227.345C348.416 227.774 347.839 228.018 347.234 228.023H341.15V224.981H346.464V221.939H341.15V218.897H347.234C347.837 218.897 348.415 219.136 348.841 219.562C349.267 219.988 349.506 220.566 349.506 221.168Z" fill="#669DF6"/>
<path d="M362.811 228.409C361.832 228.409 360.875 228.118 360.061 227.575C359.248 227.031 358.613 226.258 358.239 225.354C357.864 224.449 357.766 223.454 357.957 222.494C358.148 221.535 358.619 220.653 359.311 219.961C360.004 219.269 360.885 218.797 361.845 218.606C362.805 218.415 363.8 218.513 364.704 218.888C365.609 219.262 366.382 219.897 366.925 220.711C367.469 221.524 367.759 222.481 367.759 223.46C367.754 224.771 367.231 226.026 366.304 226.953C365.377 227.88 364.122 228.403 362.811 228.409ZM362.811 221.553C362.434 221.553 362.065 221.665 361.752 221.875C361.438 222.084 361.194 222.382 361.049 222.73C360.905 223.079 360.867 223.462 360.941 223.832C361.014 224.202 361.196 224.541 361.463 224.808C361.729 225.075 362.069 225.256 362.439 225.33C362.809 225.403 363.192 225.366 363.54 225.221C363.889 225.077 364.186 224.833 364.396 224.519C364.605 224.206 364.717 223.837 364.717 223.46C364.717 222.954 364.516 222.469 364.159 222.112C363.801 221.754 363.316 221.553 362.811 221.553Z" fill="#AECBFA"/>
<path d="M333.159 258.06C332.18 258.064 331.221 257.777 330.404 257.236C329.588 256.695 328.95 255.923 328.573 255.019C328.195 254.115 328.094 253.12 328.283 252.159C328.471 251.197 328.941 250.314 329.632 249.619C330.324 248.925 331.205 248.452 332.166 248.259C333.126 248.067 334.122 248.164 335.028 248.538C335.933 248.912 336.707 249.546 337.252 250.36C337.797 251.174 338.087 252.132 338.087 253.111C338.088 254.42 337.569 255.676 336.645 256.604C335.722 257.531 334.468 258.055 333.159 258.06ZM333.159 251.205C332.781 251.201 332.411 251.309 332.094 251.516C331.778 251.723 331.531 252.02 331.383 252.368C331.236 252.716 331.195 253.1 331.267 253.471C331.338 253.842 331.518 254.184 331.784 254.452C332.049 254.721 332.389 254.904 332.759 254.98C333.13 255.055 333.514 255.018 333.864 254.875C334.213 254.731 334.512 254.487 334.723 254.173C334.933 253.859 335.045 253.489 335.045 253.111C335.045 252.609 334.847 252.127 334.494 251.771C334.141 251.414 333.661 251.21 333.159 251.205Z" fill="#9AA0A6"/>
<path d="M333.159 258.06C332.18 258.064 331.221 257.777 330.404 257.236C329.588 256.695 328.95 255.923 328.573 255.019C328.195 254.115 328.094 253.12 328.283 252.159C328.471 251.197 328.941 250.314 329.632 249.619C330.324 248.925 331.205 248.452 332.166 248.259C333.126 248.067 334.122 248.164 335.028 248.538C335.933 248.912 336.707 249.546 337.252 250.36C337.797 251.174 338.087 252.132 338.087 253.111C338.088 254.42 337.569 255.676 336.645 256.604C335.722 257.531 334.468 258.055 333.159 258.06ZM333.159 251.205C332.781 251.201 332.411 251.309 332.094 251.516C331.778 251.723 331.531 252.02 331.383 252.368C331.236 252.716 331.195 253.1 331.267 253.471C331.338 253.842 331.518 254.184 331.784 254.452C332.049 254.721 332.389 254.904 332.759 254.98C333.13 255.055 333.514 255.018 333.864 254.875C334.213 254.731 334.512 254.487 334.723 254.173C334.933 253.859 335.045 253.489 335.045 253.111C335.045 252.609 334.847 252.127 334.494 251.771C334.141 251.414 333.661 251.21 333.159 251.205Z" fill="#AECBFA"/>
<path d="M354.799 251.611V248.568H348.715C348.111 248.574 347.533 248.818 347.107 249.247C346.682 249.676 346.443 250.256 346.443 250.86V255.423C346.443 256.026 346.683 256.604 347.109 257.03C347.535 257.456 348.112 257.695 348.715 257.695H354.799V254.653H349.486V251.611H354.799Z" fill="#AECBFA"/>
<path fill-rule="evenodd" clip-rule="evenodd" d="M363.176 250.86V255.423C363.171 256.028 362.927 256.605 362.498 257.031C362.068 257.456 361.489 257.695 360.884 257.695H354.8V254.653H360.154V251.611H354.8V248.568H360.884C361.49 248.574 362.07 248.817 362.499 249.245C362.928 249.674 363.171 250.254 363.176 250.86Z" fill="#669DF6"/>
<path d="M347.985 236.765V233.722H341.901C341.296 233.722 340.716 233.961 340.287 234.386C339.858 234.812 339.614 235.39 339.609 235.994V240.557C339.609 241.165 339.85 241.748 340.28 242.178C340.71 242.608 341.293 242.849 341.901 242.849H347.985V239.807H342.651V236.765H347.985Z" fill="#AECBFA"/>
<path fill-rule="evenodd" clip-rule="evenodd" d="M356.341 235.994V240.557C356.341 241.162 356.102 241.741 355.677 242.171C355.251 242.6 354.674 242.844 354.069 242.849H347.985V239.807H353.299V236.765H347.985V233.722H354.069C354.672 233.722 355.249 233.962 355.675 234.388C356.101 234.814 356.341 235.391 356.341 235.994Z" fill="#669DF6"/>
<path d="M394.947 221.696H404.996C405.053 221.925 405.101 222.202 405.139 222.527C405.177 222.851 405.196 223.176 405.196 223.5C405.196 224.817 404.996 226.058 404.595 227.222C404.194 228.386 403.565 229.427 402.706 230.343C401.789 231.316 400.692 232.07 399.413 232.604C398.134 233.139 396.674 233.406 395.033 233.406C393.544 233.406 392.141 233.139 390.824 232.604C389.507 232.07 388.362 231.326 387.389 230.371C386.415 229.417 385.642 228.291 385.07 226.993C384.497 225.676 384.211 224.244 384.211 222.698C384.211 221.152 384.497 219.73 385.07 218.433C385.642 217.116 386.415 215.98 387.389 215.026C388.362 214.071 389.507 213.327 390.824 212.792C392.141 212.258 393.544 211.991 395.033 211.991C396.693 211.991 398.173 212.277 399.47 212.85C400.787 213.422 401.914 214.214 402.849 215.226L400.186 217.831C399.518 217.125 398.774 216.591 397.953 216.228C397.132 215.846 396.149 215.655 395.004 215.655C394.069 215.655 393.181 215.827 392.342 216.171C391.502 216.495 390.767 216.963 390.137 217.574C389.507 218.184 389.001 218.929 388.62 219.807C388.257 220.666 388.076 221.63 388.076 222.698C388.076 223.767 388.257 224.741 388.62 225.619C389.001 226.478 389.507 227.212 390.137 227.823C390.786 228.434 391.53 228.911 392.37 229.255C393.21 229.579 394.107 229.741 395.061 229.741C396.149 229.741 397.066 229.589 397.81 229.283C398.573 228.959 399.222 228.549 399.757 228.052C400.139 227.709 400.463 227.279 400.73 226.764C401.016 226.229 401.236 225.638 401.389 224.989H394.947V221.696ZM414.435 218.461C415.523 218.461 416.515 218.652 417.413 219.034C418.329 219.396 419.111 219.912 419.76 220.58C420.428 221.229 420.944 222.011 421.306 222.927C421.688 223.844 421.879 224.846 421.879 225.934C421.879 227.022 421.688 228.024 421.306 228.94C420.944 229.856 420.428 230.648 419.76 231.316C419.111 231.965 418.329 232.48 417.413 232.862C416.515 233.225 415.523 233.406 414.435 233.406C413.347 233.406 412.345 233.225 411.429 232.862C410.532 232.48 409.749 231.965 409.081 231.316C408.432 230.648 407.917 229.856 407.535 228.94C407.173 228.024 406.991 227.022 406.991 225.934C406.991 224.846 407.173 223.844 407.535 222.927C407.917 222.011 408.432 221.229 409.081 220.58C409.749 219.912 410.532 219.396 411.429 219.034C412.345 218.652 413.347 218.461 414.435 218.461ZM414.435 229.942C414.912 229.942 415.37 229.856 415.809 229.684C416.267 229.493 416.668 229.226 417.012 228.883C417.355 228.539 417.622 228.119 417.813 227.623C418.023 227.127 418.128 226.564 418.128 225.934C418.128 225.304 418.023 224.741 417.813 224.244C417.622 223.748 417.355 223.328 417.012 222.985C416.668 222.641 416.267 222.384 415.809 222.212C415.37 222.021 414.912 221.925 414.435 221.925C413.939 221.925 413.471 222.021 413.032 222.212C412.593 222.384 412.202 222.641 411.858 222.985C411.515 223.328 411.238 223.748 411.028 224.244C410.837 224.741 410.742 225.304 410.742 225.934C410.742 226.564 410.837 227.127 411.028 227.623C411.238 228.119 411.515 228.539 411.858 228.883C412.202 229.226 412.593 229.493 413.032 229.684C413.471 229.856 413.939 229.942 414.435 229.942ZM430.931 218.461C432.019 218.461 433.011 218.652 433.908 219.034C434.824 219.396 435.607 219.912 436.256 220.58C436.924 221.229 437.439 222.011 437.802 222.927C438.184 223.844 438.375 224.846 438.375 225.934C438.375 227.022 438.184 228.024 437.802 228.94C437.439 229.856 436.924 230.648 436.256 231.316C435.607 231.965 434.824 232.48 433.908 232.862C433.011 233.225 432.019 233.406 430.931 233.406C429.843 233.406 428.841 233.225 427.925 232.862C427.028 232.48 426.245 231.965 425.577 231.316C424.928 230.648 424.413 229.856 424.031 228.94C423.668 228.024 423.487 227.022 423.487 225.934C423.487 224.846 423.668 223.844 424.031 222.927C424.413 222.011 424.928 221.229 425.577 220.58C426.245 219.912 427.028 219.396 427.925 219.034C428.841 218.652 429.843 218.461 430.931 218.461ZM430.931 229.942C431.408 229.942 431.866 229.856 432.305 229.684C432.763 229.493 433.164 229.226 433.508 228.883C433.851 228.539 434.118 228.119 434.309 227.623C434.519 227.127 434.624 226.564 434.624 225.934C434.624 225.304 434.519 224.741 434.309 224.244C434.118 223.748 433.851 223.328 433.508 222.985C433.164 222.641 432.763 222.384 432.305 222.212C431.866 222.021 431.408 221.925 430.931 221.925C430.435 221.925 429.967 222.021 429.528 222.212C429.089 222.384 428.698 222.641 428.354 222.985C428.011 223.328 427.734 223.748 427.524 224.244C427.333 224.741 427.238 225.304 427.238 225.934C427.238 226.564 427.333 227.127 427.524 227.623C427.734 228.119 428.011 228.539 428.354 228.883C428.698 229.226 429.089 229.493 429.528 229.684C429.967 229.856 430.435 229.942 430.931 229.942ZM447.255 239.59C446.262 239.59 445.375 239.457 444.592 239.189C443.829 238.941 443.161 238.607 442.588 238.187C442.016 237.786 441.538 237.338 441.157 236.842C440.775 236.345 440.498 235.849 440.326 235.353L443.905 233.921C444.172 234.666 444.611 235.238 445.222 235.639C445.833 236.059 446.51 236.269 447.255 236.269C448.438 236.269 449.373 235.897 450.061 235.153C450.748 234.427 451.091 233.406 451.091 232.089V231.116H450.862C450.423 231.726 449.841 232.213 449.116 232.576C448.41 232.919 447.57 233.091 446.596 233.091C445.757 233.091 444.936 232.919 444.134 232.576C443.352 232.232 442.655 231.746 442.044 231.116C441.433 230.467 440.937 229.694 440.555 228.797C440.174 227.9 439.983 226.898 439.983 225.79C439.983 224.683 440.174 223.681 440.555 222.784C440.937 221.868 441.433 221.095 442.044 220.465C442.655 219.816 443.352 219.32 444.134 218.977C444.936 218.633 445.757 218.461 446.596 218.461C447.57 218.461 448.41 218.643 449.116 219.005C449.841 219.349 450.423 219.826 450.862 220.437H451.091V218.919H454.67V231.946C454.67 233.129 454.489 234.189 454.126 235.124C453.763 236.078 453.258 236.88 452.609 237.529C451.96 238.197 451.177 238.703 450.261 239.046C449.364 239.409 448.362 239.59 447.255 239.59ZM447.398 229.713C447.856 229.713 448.305 229.627 448.744 229.455C449.202 229.283 449.602 229.035 449.946 228.711C450.29 228.367 450.566 227.957 450.776 227.48C450.986 226.983 451.091 226.42 451.091 225.79C451.091 225.161 450.986 224.598 450.776 224.101C450.566 223.605 450.29 223.195 449.946 222.87C449.602 222.527 449.202 222.269 448.744 222.097C448.305 221.925 447.856 221.84 447.398 221.84C446.94 221.84 446.491 221.925 446.052 222.097C445.613 222.269 445.222 222.527 444.879 222.87C444.535 223.214 444.258 223.634 444.048 224.13C443.838 224.607 443.733 225.161 443.733 225.79C443.733 226.42 443.838 226.983 444.048 227.48C444.258 227.957 444.535 228.367 444.879 228.711C445.222 229.035 445.613 229.283 446.052 229.455C446.491 229.627 446.94 229.713 447.398 229.713ZM457.867 232.948V212.449H461.618V232.948H457.867ZM477.974 229.57C477.325 230.715 476.447 231.641 475.34 232.347C474.252 233.053 472.916 233.406 471.332 233.406C470.263 233.406 469.27 233.225 468.354 232.862C467.457 232.48 466.674 231.955 466.006 231.287C465.338 230.619 464.813 229.837 464.432 228.94C464.069 228.024 463.888 227.022 463.888 225.934C463.888 224.922 464.069 223.968 464.432 223.071C464.794 222.154 465.3 221.362 465.949 220.694C466.598 220.007 467.362 219.463 468.239 219.062C469.137 218.662 470.12 218.461 471.188 218.461C472.315 218.461 473.317 218.652 474.195 219.034C475.073 219.396 475.807 219.912 476.399 220.58C476.991 221.229 477.439 222.002 477.745 222.899C478.05 223.796 478.203 224.769 478.203 225.819C478.203 225.953 478.203 226.067 478.203 226.163C478.184 226.277 478.174 226.382 478.174 226.478C478.155 226.573 478.145 226.678 478.145 226.793H467.581C467.657 227.365 467.81 227.861 468.039 228.281C468.287 228.682 468.583 229.026 468.927 229.312C469.289 229.579 469.681 229.78 470.1 229.913C470.52 230.028 470.95 230.085 471.389 230.085C472.248 230.085 472.954 229.894 473.507 229.512C474.08 229.112 474.529 228.615 474.853 228.024L477.974 229.57ZM474.567 224.13C474.548 223.882 474.462 223.605 474.309 223.3C474.175 222.994 473.965 222.708 473.679 222.441C473.412 222.174 473.068 221.954 472.649 221.782C472.248 221.611 471.761 221.525 471.188 221.525C470.387 221.525 469.681 221.754 469.07 222.212C468.459 222.67 468.03 223.309 467.781 224.13H474.567Z" fill="white"/>
<path d="M403.912 243.464H406.372L401.477 261.815H399.068L395.121 249.718H395.018L391.071 261.815H388.662L383.561 243.464H386.022L389.892 257.894H389.995L393.967 245.925H396.171L400.144 257.894H400.247L403.912 243.464ZM406.095 255.536C406.095 253.605 406.702 252.007 407.915 250.743C409.145 249.479 410.691 248.846 412.554 248.846C414.416 248.846 415.954 249.479 417.167 250.743C418.397 252.007 419.013 253.605 419.013 255.536C419.013 257.484 418.397 259.081 417.167 260.329C415.954 261.593 414.416 262.225 412.554 262.225C410.691 262.225 409.145 261.593 407.915 260.329C406.702 259.064 406.095 257.467 406.095 255.536ZM408.453 255.536C408.453 256.886 408.846 257.979 409.632 258.816C410.418 259.654 411.392 260.072 412.554 260.072C413.716 260.072 414.69 259.654 415.476 258.816C416.262 257.979 416.655 256.886 416.655 255.536C416.655 254.203 416.262 253.118 415.476 252.281C414.673 251.426 413.699 250.999 412.554 250.999C411.409 250.999 410.435 251.426 409.632 252.281C408.846 253.118 408.453 254.203 408.453 255.536ZM423.262 261.815H420.904V249.256H423.16V251.307H423.262C423.501 250.641 423.988 250.077 424.723 249.615C425.475 249.137 426.21 248.898 426.927 248.898C427.611 248.898 428.192 249 428.67 249.205L427.952 251.486C427.662 251.367 427.201 251.307 426.568 251.307C425.68 251.307 424.902 251.666 424.236 252.383C423.587 253.101 423.262 253.938 423.262 254.895V261.815ZM441.387 261.815H438.542L434.62 255.895L432.698 257.791V261.815H430.34V243.464H432.698V254.767L438.132 249.256H441.156V249.359L436.261 254.229L441.387 261.713V261.815ZM454.622 243.362V261.815H452.264V245.515H448.727C447.326 245.515 446.625 246.3 446.625 247.872V249.256H449.906V251.409H446.625V261.815H444.268V251.409H441.91V249.256H444.268V247.591C444.268 246.326 444.678 245.309 445.498 244.541C446.318 243.755 447.394 243.362 448.727 243.362H454.622ZM456.654 255.536C456.654 253.605 457.261 252.007 458.474 250.743C459.704 249.479 461.251 248.846 463.113 248.846C464.975 248.846 466.513 249.479 467.726 250.743C468.957 252.007 469.572 253.605 469.572 255.536C469.572 257.484 468.957 259.081 467.726 260.329C466.513 261.593 464.975 262.225 463.113 262.225C461.251 262.225 459.704 261.593 458.474 260.329C457.261 259.064 456.654 257.467 456.654 255.536ZM459.012 255.536C459.012 256.886 459.405 257.979 460.191 258.816C460.977 259.654 461.951 260.072 463.113 260.072C464.275 260.072 465.249 259.654 466.035 258.816C466.821 257.979 467.214 256.886 467.214 255.536C467.214 254.203 466.821 253.118 466.035 252.281C465.232 251.426 464.258 250.999 463.113 250.999C461.968 250.999 460.994 251.426 460.191 252.281C459.405 253.118 459.012 254.203 459.012 255.536ZM489.251 249.256L485.201 261.815H482.792L479.665 252.178L476.564 261.815H474.18L470.131 249.256H472.591L475.385 258.74H475.41L478.512 249.256H480.946L484.048 258.74H484.073L486.841 249.256H489.251Z" fill="#B5B5B5"/>
<circle cx="81.1192" cy="122.272" r="6.29249" fill="#ED6A5E"/>
<circle cx="102.096" cy="122.272" r="6.29249" fill="#F4BF4F"/>
<circle cx="123.068" cy="122.272" r="6.29249" fill="#61C554"/>
</g>
<defs>
<filter id="filter0_f_16132_27912" x="65.9189" y="0.499023" width="498.052" height="422.057" filterUnits="userSpaceOnUse" color-interpolation-filters="sRGB">
<feFlood flood-opacity="0" result="BackgroundImageFix"/>
<feBlend mode="normal" in="SourceGraphic" in2="BackgroundImageFix" result="shape"/>
<feGaussianBlur stdDeviation="35" result="effect1_foregroundBlur_16132_27912"/>
</filter>
<filter id="filter1_d_16132_27912" x="29.0386" y="95.354" width="541.779" height="278.5" filterUnits="userSpaceOnUse" color-interpolation-filters="sRGB">
<feFlood flood-opacity="0" result="BackgroundImageFix"/>
<feColorMatrix in="SourceAlpha" type="matrix" values="0 0 0 0 0 0 0 0 0 0 0 0 0 0 0 0 0 0 127 0" result="hardAlpha"/>
<feOffset dy="24"/>
<feGaussianBlur stdDeviation="12"/>
<feComposite in2="hardAlpha" operator="out"/>
<feColorMatrix type="matrix" values="0 0 0 0 0.352941 0 0 0 0 0.184314 0 0 0 0 0.835294 0 0 0 0.22 0"/>
<feBlend mode="normal" in2="BackgroundImageFix" result="effect1_dropShadow_16132_27912"/>
<feBlend mode="normal" in="SourceGraphic" in2="effect1_dropShadow_16132_27912" result="shape"/>
</filter>
<linearGradient id="paint0_linear_16132_27912" x1="179.026" y1="0" x2="179.026" y2="282.057" gradientUnits="userSpaceOnUse">
<stop stop-color="#6218FF" stop-opacity="0"/>
<stop offset="1" stop-color="#6117FF"/>
</linearGradient>
</defs>
</svg>
