<svg width="103" height="87" viewBox="0 0 103 87" fill="none" xmlns="http://www.w3.org/2000/svg">
<g filter="url(#filter0_ddi_16353_18745)">
</g>
<g filter="url(#filter1_ddi_16353_18745)">
<path d="M26.434 17.01C25.2167 16.6517 24.0247 16.4078 22.9492 16.2828C19.7809 15.9135 18.9015 16.8627 18.2871 18.9147L17.4758 21.6248L24.5867 23.7536L24.3163 24.657L14.5367 21.7293C12.4701 21.1106 10.2886 21.811 9.0152 24.0046C7.55144 26.5177 7.01649 28.1992 6.85167 31.2315C6.72691 33.488 7.48499 35.3494 9.55161 35.9681L11.9965 36.7L12.9691 33.4512C13.6717 31.1041 16.3223 29.6417 18.7338 30.3637L25.8364 32.49C27.8135 33.0819 29.8792 31.9265 30.4736 29.9409L32.5006 23.1698C33.0776 21.2427 31.8852 19.3084 30.0518 18.4091C28.8911 17.8401 27.6513 17.3682 26.434 17.01ZM21.9359 18.0384C22.6704 18.2583 23.0878 19.0475 22.8634 19.7971C22.6398 20.544 21.8591 20.9684 21.1246 20.7485C20.3875 20.5278 19.9711 19.7451 20.1947 18.9981C20.4191 18.2486 21.1988 17.8177 21.9359 18.0384Z" fill="url(#paint0_linear_16353_18745)"/>
<path d="M32.3056 27.0488L31.3603 30.2064C30.6275 32.6545 27.9351 34.0936 25.5684 33.3851L18.4658 31.2588C16.5203 30.6763 14.4118 31.8595 13.8286 33.8078L11.8015 40.5789C11.2246 42.506 12.561 44.1412 14.2752 45.2568C16.328 46.5925 18.4506 47.3583 21.3778 47.3831C23.3232 47.4007 25.4007 46.886 26.015 44.834L26.8263 42.1239L19.7237 39.9976L19.9942 39.0943L30.6522 42.285C32.7188 42.9036 33.9205 41.6927 35.2869 39.7442C36.6962 37.739 37.3059 35.5875 37.4505 32.5173C37.5556 30.307 37.0436 28.4672 34.9743 27.8477L32.3056 27.0488ZM23.1775 43.0002C23.9147 43.2209 24.331 44.0037 24.1074 44.7506C23.883 45.5002 23.1033 45.931 22.3662 45.7103C21.6317 45.4905 21.2144 44.7013 21.4388 43.9517C21.6624 43.2048 22.443 42.7804 23.1775 43.0002Z" fill="url(#paint1_linear_16353_18745)"/>
</g>
<g filter="url(#filter2_ddi_16353_18745)">
<path fill-rule="evenodd" clip-rule="evenodd" d="M59.6569 26.9291C50.7995 28.3956 42.828 24.8062 41.8521 18.9119C40.8761 13.0175 47.2653 7.05038 56.1227 5.58383C64.9801 4.11727 72.9516 7.70668 73.9276 13.601C74.9035 19.4953 68.5143 25.4625 59.6569 26.9291ZM59.2684 9.35C52.536 10.4647 47.6192 14.635 48.2864 18.6646C48.9536 22.6942 54.9522 25.0572 61.6846 23.9425C68.4169 22.8278 73.0155 19.7718 72.1772 14.7089C71.3392 9.64757 66.0008 8.2353 59.2684 9.35Z" fill="url(#paint2_linear_16353_18745)"/>
<path fill-rule="evenodd" clip-rule="evenodd" d="M67.2466 20.7255C67.2466 20.7255 68.2655 20.8559 68.8763 21.046C69.0883 21.112 69.4594 21.2523 69.7462 21.4696C70.0273 21.6825 70.1863 21.919 70.1863 21.919L75.0728 27.6944L68.8903 28.7209L65.1057 23.8046C65.1057 23.8046 64.3463 22.8919 63.9335 22.6591C63.5891 22.465 63.4451 22.3994 63.1447 22.4491C62.9355 22.4838 61.6756 22.6924 61.6756 22.6924L62.8402 29.7186L57.3693 30.6268L54.3975 12.6782L65.3845 10.8591C65.3845 10.8591 70.4035 10.1202 71.1868 14.8509C71.9701 19.5817 67.2466 20.7255 67.2466 20.7255ZM63.8717 15.1096L60.5591 15.6559L61.0628 18.7081L64.3765 18.1583C64.3765 18.1583 65.9103 17.8995 65.6541 16.3517C65.3927 14.7729 63.8717 15.1096 63.8717 15.1096Z" fill="url(#paint3_linear_16353_18745)"/>
</g>
<g filter="url(#filter3_ddi_16353_18745)">
<path fill-rule="evenodd" clip-rule="evenodd" d="M51.308 62.1993L32.5151 57.03L48.6274 71.6372L65.5462 57.6658L51.308 62.1993Z" fill="url(#paint4_linear_16353_18745)"/>
<path fill-rule="evenodd" clip-rule="evenodd" d="M48.6643 71.6543L56.6419 61.3819L48.2861 62.376L48.6643 71.6543Z" fill="url(#paint5_linear_16353_18745)"/>
<path fill-rule="evenodd" clip-rule="evenodd" d="M48.6813 71.672L39.9758 61.0867L32.5871 57.0642L48.6813 71.672Z" fill="url(#paint6_linear_16353_18745)"/>
<path fill-rule="evenodd" clip-rule="evenodd" d="M32.5972 57.0802L43.0189 51.7821L36.6525 47.4865L32.5972 57.0802Z" fill="url(#paint7_linear_16353_18745)"/>
<path fill-rule="evenodd" clip-rule="evenodd" d="M48.2588 62.4008L54.9411 51.6049L42.6363 50.9756L48.2588 62.4008Z" fill="url(#paint8_linear_16353_18745)"/>
<path fill-rule="evenodd" clip-rule="evenodd" d="M62.453 59.6549L61.5575 48.7217L54.4077 52.3238L62.453 59.6549Z" fill="url(#paint9_linear_16353_18745)"/>
<path fill-rule="evenodd" clip-rule="evenodd" d="M66.4777 50.2639L61.0222 48.5802L60.8506 44.3682L66.4777 50.2639Z" fill="url(#paint10_linear_16353_18745)"/>
<path fill-rule="evenodd" clip-rule="evenodd" d="M32.5798 48.6645L36.7823 47.524L38.8834 43.1489L32.5798 48.6645Z" fill="url(#paint11_linear_16353_18745)"/>
<path fill-rule="evenodd" clip-rule="evenodd" d="M38.9084 42.9688L36.6098 47.5478L42.9412 51.7277L54.4605 52.3664L61.572 48.8285L60.8781 44.2858L54.7283 41.3453C51.9841 41.1933 46.6097 40.9496 46.4619 40.8966C46.315 40.8463 41.3033 42.2856 38.9084 42.9688Z" fill="white"/>
<path fill-rule="evenodd" clip-rule="evenodd" d="M49.3113 41.2546C55.4488 41.3968 61.1872 43.674 61.1166 46.7371C61.0435 49.7993 55.6489 51.8213 49.5123 51.6782C43.3748 51.536 37.5834 49.4066 37.6557 46.3452C37.7263 43.2821 43.1738 41.1123 49.3113 41.2546Z" fill="url(#paint12_linear_16353_18745)"/>
<path fill-rule="evenodd" clip-rule="evenodd" d="M32.5998 57.0775L43.0302 51.7355L48.2296 62.3422C42.6622 62.0585 37.202 61.0381 32.5998 57.0775Z" fill="url(#paint13_linear_16353_18745)"/>
<path fill-rule="evenodd" clip-rule="evenodd" d="M54.4874 52.3625L48.2524 62.3745C53.1813 62.3443 58.0623 61.8765 62.5195 59.657L54.4874 52.3625Z" fill="url(#paint14_linear_16353_18745)"/>
<path fill-rule="evenodd" clip-rule="evenodd" d="M62.4569 59.6765C65.7709 58.0894 69.5587 54.8116 66.4478 50.2416L61.5677 48.7357L62.4569 59.6765Z" fill="url(#paint15_linear_16353_18745)"/>
<path fill-rule="evenodd" clip-rule="evenodd" d="M32.6159 48.63C28.5807 52.737 31.4001 55.7879 32.5916 57.0973L36.6299 47.5353L32.6159 48.63Z" fill="#9E1209"/>
<path fill-rule="evenodd" clip-rule="evenodd" d="M54.4853 52.3868C55.1408 55.3788 56.4694 61.4039 56.5009 61.5212C56.5485 61.7063 60.6275 60.6967 62.44 59.6133L54.4861 52.3859L54.4853 52.3868Z" fill="url(#paint16_radial_16353_18745)"/>
<path fill-rule="evenodd" clip-rule="evenodd" d="M43.0269 51.7319L39.8762 61.052C42.7789 61.9733 45.5068 62.2564 48.2041 62.3244L43.0269 51.7319Z" fill="url(#paint17_radial_16353_18745)"/>
<path fill-rule="evenodd" clip-rule="evenodd" d="M36.6084 47.5306L30.6627 52.3671C30.3117 54.3862 31.3615 55.6843 32.6672 56.8532C34.0565 53.7612 36.8341 47.5816 36.6084 47.5306Z" fill="url(#paint18_linear_16353_18745)"/>
<path fill-rule="evenodd" clip-rule="evenodd" d="M61.5358 48.7292L66.8656 56.0828C67.9971 54.3258 67.92 52.354 66.4734 50.2596L61.5358 48.7292Z" fill="url(#paint19_linear_16353_18745)"/>
</g>
<g filter="url(#filter4_ddi_16353_18745)">
<path d="M71.6331 47.2617C73.9753 48.5794 76.9354 47.761 78.2447 45.4337C79.554 43.1065 78.7167 40.1517 76.3745 38.834C74.0324 37.5163 71.0723 38.3347 69.763 40.662C68.4537 42.9893 69.291 45.9441 71.6331 47.2617Z" fill="#D5635C"/>
<path d="M71.4519 47.5839C70.5489 47.0759 69.8158 46.3132 69.3454 45.3923C68.875 44.4714 68.6885 43.4336 68.8093 42.4102C68.9301 41.3868 69.3528 40.4237 70.0241 39.6428C70.6954 38.8619 71.585 38.2981 72.5805 38.0229C73.576 37.7477 74.6326 37.7733 75.6168 38.0965C76.601 38.4197 77.4684 39.026 78.1095 39.8388C78.7507 40.6515 79.1366 41.6342 79.2186 42.6625C79.3005 43.6908 79.0748 44.7186 78.57 45.6159C77.892 46.8179 76.7618 47.7002 75.4273 48.0692C74.0928 48.4381 72.6632 48.2636 71.4519 47.5839ZM76.1929 39.1569C75.4185 38.7213 74.5332 38.5236 73.6489 38.5888C72.7645 38.6541 71.9209 38.9793 71.2246 39.5235C70.5284 40.0676 70.0108 40.8062 69.7373 41.6458C69.4638 42.4854 69.4467 43.3884 69.6882 44.2405C69.9296 45.0926 70.4188 45.8556 71.0938 46.433C71.7689 47.0104 72.5994 47.3762 73.4805 47.4843C74.3615 47.5923 75.2535 47.4377 76.0436 47.04C76.8338 46.6422 77.4865 46.0193 77.9194 45.2498C78.4983 44.2178 78.6415 42.9968 78.3178 41.8547C77.9941 40.7126 77.2301 39.742 76.1929 39.1569Z" fill="#CB3C33"/>
<path d="M82.5327 40.9125C84.8749 42.2302 87.835 41.4117 89.1443 39.0845C90.4536 36.7572 89.6163 33.8024 87.2741 32.4847C84.932 31.1671 81.9719 31.9855 80.6626 34.3127C79.3533 36.64 80.1906 39.5948 82.5327 40.9125Z" fill="#60AD51"/>
<path d="M82.3511 41.2354C81.448 40.7274 80.715 39.9647 80.2446 39.0437C79.7742 38.1228 79.5876 37.085 79.7084 36.0616C79.8292 35.0382 80.252 34.0752 80.9233 33.2943C81.5946 32.5133 82.4842 31.9496 83.4797 31.6744C84.4752 31.3991 85.5318 31.4247 86.516 31.748C87.5001 32.0712 88.3676 32.6775 89.0087 33.4902C89.6498 34.303 90.0358 35.2856 90.1177 36.314C90.1997 37.3423 89.974 38.3701 89.4692 39.2673C88.7912 40.4694 87.6609 41.3517 86.3265 41.7206C84.992 42.0896 83.5623 41.9151 82.3511 41.2354ZM87.0912 32.8098C86.3169 32.3742 85.4316 32.1765 84.5472 32.2417C83.6629 32.307 82.8192 32.6322 82.123 33.1764C81.4267 33.7205 80.9091 34.4591 80.6357 35.2987C80.3622 36.1384 80.3451 37.0413 80.5865 37.8934C80.828 38.7455 81.3172 39.5085 81.9922 40.0859C82.6672 40.6633 83.4978 41.0291 84.3788 41.1372C85.2599 41.2452 86.1519 41.0906 86.942 40.6929C87.7321 40.2951 88.3849 39.6722 88.8178 38.9027C89.3969 37.8707 89.5404 36.6496 89.2167 35.5073C88.893 34.365 88.1286 33.3949 87.0912 32.8098Z" fill="#389826"/>
<path d="M82.765 53.5245C85.1072 54.8422 88.0673 54.0237 89.3766 51.6965C90.6859 49.3692 89.8486 46.4144 87.5064 45.0967C85.1643 43.7791 82.2042 44.5975 80.8949 46.9247C79.5856 49.252 80.4229 52.2068 82.765 53.5245Z" fill="#AA79C1"/>
<path d="M82.5838 53.8467C81.6808 53.3386 80.9477 52.5759 80.4773 51.6549C80.0069 50.734 79.8204 49.6961 79.9412 48.6727C80.0621 47.6493 80.4849 46.6862 81.1562 45.9053C81.8276 45.1244 82.7173 44.5607 83.7128 44.2855C84.7084 44.0104 85.765 44.0361 86.7492 44.3594C87.7334 44.6827 88.6008 45.2892 89.2418 46.102C89.8829 46.9148 90.2687 47.8976 90.3505 48.9259C90.4323 49.9543 90.2065 50.9821 89.7015 51.8793C89.0234 53.0811 87.8932 53.9632 86.5588 54.332C85.2245 54.7008 83.7949 54.5263 82.5838 53.8467ZM87.3248 45.4196C86.5504 44.984 85.6651 44.7863 84.7808 44.8515C83.8964 44.9168 83.0528 45.2421 82.3566 45.7862C81.6603 46.3303 81.1427 47.0689 80.8692 47.9086C80.5957 48.7482 80.5786 49.6511 80.8201 50.5033C81.0616 51.3554 81.5507 52.1184 82.2257 52.6957C82.9008 53.2731 83.7313 53.639 84.6124 53.747C85.4934 53.855 86.3854 53.7004 87.1756 53.3027C87.9657 52.905 88.6185 52.282 89.0513 51.5126C89.6302 50.4805 89.7735 49.2596 89.4497 48.1175C89.126 46.9754 88.362 46.0047 87.3248 45.4196Z" fill="#9558B2"/>
</g>
<defs>
<filter id="filter0_ddi_16353_18745" x="27" y="72.646" width="47" height="47" filterUnits="userSpaceOnUse" color-interpolation-filters="sRGB">
<feFlood flood-opacity="0" result="BackgroundImageFix"/>
<feColorMatrix in="SourceAlpha" type="matrix" values="0 0 0 0 0 0 0 0 0 0 0 0 0 0 0 0 0 0 127 0" result="hardAlpha"/>
<feOffset dy="-1"/>
<feGaussianBlur stdDeviation="5"/>
<feComposite in2="hardAlpha" operator="out"/>
<feColorMatrix type="matrix" values="0 0 0 0 0.563191 0 0 0 0 0.548128 0 0 0 0 1 0 0 0 0.81 0"/>
<feBlend mode="normal" in2="BackgroundImageFix" result="effect1_dropShadow_16353_18745"/>
<feColorMatrix in="SourceAlpha" type="matrix" values="0 0 0 0 0 0 0 0 0 0 0 0 0 0 0 0 0 0 127 0" result="hardAlpha"/>
<feOffset dy="4"/>
<feGaussianBlur stdDeviation="2"/>
<feComposite in2="hardAlpha" operator="out"/>
<feColorMatrix type="matrix" values="0 0 0 0 0 0 0 0 0 0 0 0 0 0 0 0 0 0 0.25 0"/>
<feBlend mode="normal" in2="effect1_dropShadow_16353_18745" result="effect2_dropShadow_16353_18745"/>
<feBlend mode="normal" in="SourceGraphic" in2="effect2_dropShadow_16353_18745" result="shape"/>
<feColorMatrix in="SourceAlpha" type="matrix" values="0 0 0 0 0 0 0 0 0 0 0 0 0 0 0 0 0 0 127 0" result="hardAlpha"/>
<feOffset dy="4"/>
<feGaussianBlur stdDeviation="2"/>
<feComposite in2="hardAlpha" operator="arithmetic" k2="-1" k3="1"/>
<feColorMatrix type="matrix" values="0 0 0 0 1 0 0 0 0 1 0 0 0 0 1 0 0 0 0.52 0"/>
<feBlend mode="normal" in2="shape" result="effect3_innerShadow_16353_18745"/>
</filter>
<filter id="filter1_ddi_16353_18745" x="-15" y="-6" width="74.3575" height="74.3574" filterUnits="userSpaceOnUse" color-interpolation-filters="sRGB">
<feFlood flood-opacity="0" result="BackgroundImageFix"/>
<feColorMatrix in="SourceAlpha" type="matrix" values="0 0 0 0 0 0 0 0 0 0 0 0 0 0 0 0 0 0 127 0" result="hardAlpha"/>
<feOffset dy="-1"/>
<feGaussianBlur stdDeviation="5"/>
<feComposite in2="hardAlpha" operator="out"/>
<feColorMatrix type="matrix" values="0 0 0 0 0.563191 0 0 0 0 0.548128 0 0 0 0 1 0 0 0 0.81 0"/>
<feBlend mode="normal" in2="BackgroundImageFix" result="effect1_dropShadow_16353_18745"/>
<feColorMatrix in="SourceAlpha" type="matrix" values="0 0 0 0 0 0 0 0 0 0 0 0 0 0 0 0 0 0 127 0" result="hardAlpha"/>
<feOffset dy="4"/>
<feGaussianBlur stdDeviation="2"/>
<feComposite in2="hardAlpha" operator="out"/>
<feColorMatrix type="matrix" values="0 0 0 0 0 0 0 0 0 0 0 0 0 0 0 0 0 0 0.25 0"/>
<feBlend mode="normal" in2="effect1_dropShadow_16353_18745" result="effect2_dropShadow_16353_18745"/>
<feBlend mode="normal" in="SourceGraphic" in2="effect2_dropShadow_16353_18745" result="shape"/>
<feColorMatrix in="SourceAlpha" type="matrix" values="0 0 0 0 0 0 0 0 0 0 0 0 0 0 0 0 0 0 127 0" result="hardAlpha"/>
<feOffset dy="4"/>
<feGaussianBlur stdDeviation="2"/>
<feComposite in2="hardAlpha" operator="arithmetic" k2="-1" k3="1"/>
<feColorMatrix type="matrix" values="0 0 0 0 1 0 0 0 0 1 0 0 0 0 1 0 0 0 0.52 0"/>
<feBlend mode="normal" in2="shape" result="effect3_innerShadow_16353_18745"/>
</filter>
<filter id="filter2_ddi_16353_18745" x="22" y="-19.2163" width="72.4247" height="72.1855" filterUnits="userSpaceOnUse" color-interpolation-filters="sRGB">
<feFlood flood-opacity="0" result="BackgroundImageFix"/>
<feColorMatrix in="SourceAlpha" type="matrix" values="0 0 0 0 0 0 0 0 0 0 0 0 0 0 0 0 0 0 127 0" result="hardAlpha"/>
<feOffset dy="-1"/>
<feGaussianBlur stdDeviation="5"/>
<feComposite in2="hardAlpha" operator="out"/>
<feColorMatrix type="matrix" values="0 0 0 0 0.563191 0 0 0 0 0.548128 0 0 0 0 1 0 0 0 0.81 0"/>
<feBlend mode="normal" in2="BackgroundImageFix" result="effect1_dropShadow_16353_18745"/>
<feColorMatrix in="SourceAlpha" type="matrix" values="0 0 0 0 0 0 0 0 0 0 0 0 0 0 0 0 0 0 127 0" result="hardAlpha"/>
<feOffset dy="4"/>
<feGaussianBlur stdDeviation="2"/>
<feComposite in2="hardAlpha" operator="out"/>
<feColorMatrix type="matrix" values="0 0 0 0 0 0 0 0 0 0 0 0 0 0 0 0 0 0 0.25 0"/>
<feBlend mode="normal" in2="effect1_dropShadow_16353_18745" result="effect2_dropShadow_16353_18745"/>
<feBlend mode="normal" in="SourceGraphic" in2="effect2_dropShadow_16353_18745" result="shape"/>
<feColorMatrix in="SourceAlpha" type="matrix" values="0 0 0 0 0 0 0 0 0 0 0 0 0 0 0 0 0 0 127 0" result="hardAlpha"/>
<feOffset dy="4"/>
<feGaussianBlur stdDeviation="2"/>
<feComposite in2="hardAlpha" operator="arithmetic" k2="-1" k3="1"/>
<feColorMatrix type="matrix" values="0 0 0 0 1 0 0 0 0 1 0 0 0 0 1 0 0 0 0.52 0"/>
<feBlend mode="normal" in2="shape" result="effect3_innerShadow_16353_18745"/>
</filter>
<filter id="filter3_ddi_16353_18745" x="18" y="21" width="62.2303" height="62.2305" filterUnits="userSpaceOnUse" color-interpolation-filters="sRGB">
<feFlood flood-opacity="0" result="BackgroundImageFix"/>
<feColorMatrix in="SourceAlpha" type="matrix" values="0 0 0 0 0 0 0 0 0 0 0 0 0 0 0 0 0 0 127 0" result="hardAlpha"/>
<feOffset dy="-1"/>
<feGaussianBlur stdDeviation="5"/>
<feComposite in2="hardAlpha" operator="out"/>
<feColorMatrix type="matrix" values="0 0 0 0 0.563191 0 0 0 0 0.548128 0 0 0 0 1 0 0 0 0.81 0"/>
<feBlend mode="normal" in2="BackgroundImageFix" result="effect1_dropShadow_16353_18745"/>
<feColorMatrix in="SourceAlpha" type="matrix" values="0 0 0 0 0 0 0 0 0 0 0 0 0 0 0 0 0 0 127 0" result="hardAlpha"/>
<feOffset dy="4"/>
<feGaussianBlur stdDeviation="2"/>
<feComposite in2="hardAlpha" operator="out"/>
<feColorMatrix type="matrix" values="0 0 0 0 0 0 0 0 0 0 0 0 0 0 0 0 0 0 0.25 0"/>
<feBlend mode="normal" in2="effect1_dropShadow_16353_18745" result="effect2_dropShadow_16353_18745"/>
<feBlend mode="normal" in="SourceGraphic" in2="effect2_dropShadow_16353_18745" result="shape"/>
<feColorMatrix in="SourceAlpha" type="matrix" values="0 0 0 0 0 0 0 0 0 0 0 0 0 0 0 0 0 0 127 0" result="hardAlpha"/>
<feOffset dy="4"/>
<feGaussianBlur stdDeviation="2"/>
<feComposite in2="hardAlpha" operator="arithmetic" k2="-1" k3="1"/>
<feColorMatrix type="matrix" values="0 0 0 0 1 0 0 0 0 1 0 0 0 0 1 0 0 0 0.52 0"/>
<feBlend mode="normal" in2="shape" result="effect3_innerShadow_16353_18745"/>
</filter>
<filter id="filter4_ddi_16353_18745" x="51.58" y="10.125" width="60.8563" height="60.7832" filterUnits="userSpaceOnUse" color-interpolation-filters="sRGB">
<feFlood flood-opacity="0" result="BackgroundImageFix"/>
<feColorMatrix in="SourceAlpha" type="matrix" values="0 0 0 0 0 0 0 0 0 0 0 0 0 0 0 0 0 0 127 0" result="hardAlpha"/>
<feOffset dy="-1"/>
<feGaussianBlur stdDeviation="5"/>
<feComposite in2="hardAlpha" operator="out"/>
<feColorMatrix type="matrix" values="0 0 0 0 0.563191 0 0 0 0 0.548128 0 0 0 0 1 0 0 0 0.81 0"/>
<feBlend mode="normal" in2="BackgroundImageFix" result="effect1_dropShadow_16353_18745"/>
<feColorMatrix in="SourceAlpha" type="matrix" values="0 0 0 0 0 0 0 0 0 0 0 0 0 0 0 0 0 0 127 0" result="hardAlpha"/>
<feOffset dy="4"/>
<feGaussianBlur stdDeviation="2"/>
<feComposite in2="hardAlpha" operator="out"/>
<feColorMatrix type="matrix" values="0 0 0 0 0 0 0 0 0 0 0 0 0 0 0 0 0 0 0.25 0"/>
<feBlend mode="normal" in2="effect1_dropShadow_16353_18745" result="effect2_dropShadow_16353_18745"/>
<feBlend mode="normal" in="SourceGraphic" in2="effect2_dropShadow_16353_18745" result="shape"/>
<feColorMatrix in="SourceAlpha" type="matrix" values="0 0 0 0 0 0 0 0 0 0 0 0 0 0 0 0 0 0 127 0" result="hardAlpha"/>
<feOffset dy="4"/>
<feGaussianBlur stdDeviation="2"/>
<feComposite in2="hardAlpha" operator="arithmetic" k2="-1" k3="1"/>
<feColorMatrix type="matrix" values="0 0 0 0 1 0 0 0 0 1 0 0 0 0 1 0 0 0 0.52 0"/>
<feBlend mode="normal" in2="shape" result="effect3_innerShadow_16353_18745"/>
</filter>
<linearGradient id="paint0_linear_16353_18745" x1="11.8691" y1="12.6494" x2="28.393" y2="38.1572" gradientUnits="userSpaceOnUse">
<stop stop-color="#5A9FD4"/>
<stop offset="1" stop-color="#306998"/>
</linearGradient>
<linearGradient id="paint1_linear_16353_18745" x1="22.6704" y1="44.0721" x2="19.2556" y2="34.0678" gradientUnits="userSpaceOnUse">
<stop stop-color="#FFD43B"/>
<stop offset="1" stop-color="#FFE873"/>
</linearGradient>
<linearGradient id="paint2_linear_16353_18745" x1="40.085" y1="8.23926" x2="68.944" y2="35.2811" gradientUnits="userSpaceOnUse">
<stop stop-color="#CBCED0"/>
<stop offset="1" stop-color="#84838B"/>
</linearGradient>
<linearGradient id="paint3_linear_16353_18745" x1="54.3975" y1="12.6782" x2="75.2769" y2="27.4085" gradientUnits="userSpaceOnUse">
<stop stop-color="#276DC3"/>
<stop offset="1" stop-color="#165CAA"/>
</linearGradient>
<linearGradient id="paint4_linear_16353_18745" x1="44.3376" y1="73.1437" x2="47.9165" y2="61.1002" gradientUnits="userSpaceOnUse">
<stop stop-color="#FB7655"/>
<stop offset="0.41" stop-color="#E42B1E"/>
<stop offset="0.99" stop-color="#990000"/>
<stop offset="1" stop-color="#990000"/>
</linearGradient>
<linearGradient id="paint5_linear_16353_18745" x1="53.0918" y1="68.9949" x2="51.4136" y2="59.5321" gradientUnits="userSpaceOnUse">
<stop stop-color="#871101"/>
<stop offset="0.99" stop-color="#911209"/>
<stop offset="1" stop-color="#911209"/>
</linearGradient>
<linearGradient id="paint6_linear_16353_18745" x1="41.8091" y1="70.9962" x2="40.1318" y2="61.5342" gradientUnits="userSpaceOnUse">
<stop stop-color="#871101"/>
<stop offset="0.99" stop-color="#911209"/>
<stop offset="1" stop-color="#911209"/>
</linearGradient>
<linearGradient id="paint7_linear_16353_18745" x1="39.8322" y1="49.6385" x2="34.8998" y2="56.1072" gradientUnits="userSpaceOnUse">
<stop stop-color="white"/>
<stop offset="0.23" stop-color="#E57252"/>
<stop offset="0.46" stop-color="#DE3B20"/>
<stop offset="0.99" stop-color="#A60003"/>
<stop offset="1" stop-color="#A60003"/>
</linearGradient>
<linearGradient id="paint8_linear_16353_18745" x1="51.142" y1="50.5604" x2="45.5478" y2="56.5798" gradientUnits="userSpaceOnUse">
<stop stop-color="white"/>
<stop offset="0.23" stop-color="#E4714E"/>
<stop offset="0.56" stop-color="#BE1A0D"/>
<stop offset="0.99" stop-color="#A80D00"/>
<stop offset="1" stop-color="#A80D00"/>
</linearGradient>
<linearGradient id="paint9_linear_16353_18745" x1="61.8431" y1="50.7372" x2="58.5537" y2="55.8001" gradientUnits="userSpaceOnUse">
<stop stop-color="white"/>
<stop offset="0.18" stop-color="#E46342"/>
<stop offset="0.4" stop-color="#C82410"/>
<stop offset="0.99" stop-color="#A80D00"/>
<stop offset="1" stop-color="#A80D00"/>
</linearGradient>
<linearGradient id="paint10_linear_16353_18745" x1="60.4441" y1="46.2997" x2="66.6407" y2="48.4955" gradientUnits="userSpaceOnUse">
<stop stop-color="white"/>
<stop offset="0.54" stop-color="#C81F11"/>
<stop offset="0.99" stop-color="#BF0905"/>
<stop offset="1" stop-color="#BF0905"/>
</linearGradient>
<linearGradient id="paint11_linear_16353_18745" x1="37.7335" y1="44.5042" x2="34.5793" y2="48.2143" gradientUnits="userSpaceOnUse">
<stop stop-color="white"/>
<stop offset="0.31" stop-color="#DE4024"/>
<stop offset="0.99" stop-color="#BF190B"/>
<stop offset="1" stop-color="#BF190B"/>
</linearGradient>
<linearGradient id="paint12_linear_16353_18745" x1="30.9916" y1="46.3773" x2="63.6235" y2="46.5369" gradientUnits="userSpaceOnUse">
<stop stop-color="#BD0012"/>
<stop offset="0.07" stop-color="white"/>
<stop offset="0.17" stop-color="white"/>
<stop offset="0.27" stop-color="#C82F1C"/>
<stop offset="0.33" stop-color="#820C01"/>
<stop offset="0.46" stop-color="#A31601"/>
<stop offset="0.72" stop-color="#B31301"/>
<stop offset="0.99" stop-color="#E82609"/>
<stop offset="1" stop-color="#E82609"/>
</linearGradient>
<linearGradient id="paint13_linear_16353_18745" x1="41.3799" y1="60.5666" x2="37.8447" y2="54.4576" gradientUnits="userSpaceOnUse">
<stop stop-color="#8C0C01"/>
<stop offset="0.54" stop-color="#990C00"/>
<stop offset="0.99" stop-color="#A80D0E"/>
<stop offset="1" stop-color="#A80D0E"/>
</linearGradient>
<linearGradient id="paint14_linear_16353_18745" x1="55.4694" y1="63.3379" x2="55.1767" y2="55.1692" gradientUnits="userSpaceOnUse">
<stop stop-color="#7E110B"/>
<stop offset="0.99" stop-color="#9E0C00"/>
<stop offset="1" stop-color="#9E0C00"/>
</linearGradient>
<linearGradient id="paint15_linear_16353_18745" x1="64.2312" y1="58.0051" x2="64.4633" y2="53.5724" gradientUnits="userSpaceOnUse">
<stop stop-color="#79130D"/>
<stop offset="0.99" stop-color="#9E120B"/>
<stop offset="1" stop-color="#9E120B"/>
</linearGradient>
<radialGradient id="paint16_radial_16353_18745" cx="0" cy="0" r="1" gradientUnits="userSpaceOnUse" gradientTransform="translate(55.7594 55.9241) rotate(46.0773) scale(7.46015 7.46016)">
<stop stop-color="#A80D00"/>
<stop offset="0.99" stop-color="#7E0E08"/>
<stop offset="1" stop-color="#7E0E08"/>
</radialGradient>
<radialGradient id="paint17_radial_16353_18745" cx="0" cy="0" r="1" gradientUnits="userSpaceOnUse" gradientTransform="translate(41.5109 55.3024) rotate(46.0773) scale(9.91727 9.91727)">
<stop stop-color="#A30C00"/>
<stop offset="0.99" stop-color="#800E08"/>
<stop offset="1" stop-color="#800E08"/>
</radialGradient>
<linearGradient id="paint18_linear_16353_18745" x1="31.1332" y1="55.5442" x2="35.458" y2="47.9475" gradientUnits="userSpaceOnUse">
<stop stop-color="#8B2114"/>
<stop offset="0.43" stop-color="#9E100A"/>
<stop offset="0.99" stop-color="#B3100C"/>
<stop offset="1" stop-color="#B3100C"/>
</linearGradient>
<linearGradient id="paint19_linear_16353_18745" x1="64.2949" y1="49.9263" x2="66.3762" y2="55.6134" gradientUnits="userSpaceOnUse">
<stop stop-color="#B31000"/>
<stop offset="0.44" stop-color="#910F08"/>
<stop offset="0.99" stop-color="#791C12"/>
<stop offset="1" stop-color="#791C12"/>
</linearGradient>
</defs>
</svg>
