<svg width="65" height="69" viewBox="0 0 65 59" fill="none" xmlns="http://www.w3.org/2000/svg">
<g filter="url(#filter0_ddi_16353_18596)">
<path d="M44.2358 31.1084C46.3622 30.5439 48.5005 30.8039 50.2641 31.9912L51.968 29.0557L54.0207 36.7878L46.2885 38.8406L48.8443 34.4374C47.6725 33.9207 46.3587 33.6487 45.0056 34.008C42.2993 34.7264 40.7375 37.4173 41.4559 40.1235C42.1744 42.8298 44.8652 44.3916 47.5715 43.6732C49.1179 43.2626 50.2658 42.1302 50.9244 40.7138L54.2106 39.8414C53.8205 43.0488 51.6274 45.7003 48.3413 46.5727C44.0886 47.7017 39.6854 45.146 38.5564 40.8933C37.4274 36.6406 39.9831 32.2374 44.2358 31.1084ZM34.8801 44.9732L34.1069 45.1784L31.9994 40.3578C29.5772 40.587 27.2849 39.7471 25.2766 38.4179L21.1505 41.5825L18.9369 39.4801L22.1752 35.3096C20.7862 33.1952 20.1704 30.8756 20.3278 28.3506L15.5499 26.7221L16.4292 23.7986L21.5817 24.5C22.6663 22.3497 24.2914 20.6767 26.4571 19.481L25.7027 14.3011L28.6023 13.5313L30.7098 18.352C33.1321 18.1228 35.6176 18.9114 37.4326 20.2919L41.5588 17.1272L43.7723 19.2296L40.4827 23.2069C41.1772 24.2641 41.6784 25.3726 41.9863 26.5324L42.9529 26.2758C43.9194 26.0192 44.9372 25.9559 45.9551 25.8926L45.8524 25.506L45.1459 23.6243L48.3842 19.4538C48.6682 18.9645 48.5656 18.5779 48.2696 18.2426L42.6074 12.5033C42.2602 11.9748 41.8735 12.0774 41.2936 12.2313L36.9742 15.4473C35.8024 14.9307 34.4886 14.6587 33.1749 14.3867L31.0161 9.37276C31.158 9.12814 30.4755 8.89548 30.0889 8.99812L22.3567 11.0508C21.9701 11.1535 21.4928 11.694 21.5955 12.0806L22.2079 17.5051C21.1507 18.1996 20.3894 19.2295 19.3835 20.1173L14.2311 19.4159C13.6512 19.5698 13.2645 19.6725 13.0319 20.355L10.9619 28.147C10.8713 28.5849 11.1672 28.9202 11.6565 29.2042L16.5369 31.2194L16.8568 33.2037L17.5633 35.0855L14.3763 39.4493C14.0923 39.9386 14.195 40.3252 14.4909 40.6605L20.1531 46.3997C20.4491 46.735 20.8357 46.6324 21.4156 46.4784L25.735 43.2624C26.9068 43.7791 28.2206 44.0511 29.5344 44.3231L31.6932 49.337C31.7958 49.7236 32.285 50.0076 32.865 49.8536L37.6976 48.5707C36.3718 47.4741 35.626 46.2237 34.8801 44.9732ZM39.2407 27.8821L39.0868 27.3022C37.9578 23.0495 33.5546 20.4937 29.3019 21.6227C25.0492 22.7517 22.4935 27.1549 23.6225 31.4076C24.7514 35.6603 29.1546 38.216 33.4073 37.087C33.8881 33.4417 36.0692 29.9656 39.2407 27.8821ZM27.4885 30.3812C26.924 28.2549 28.2019 26.0533 30.3283 25.4888C32.4546 24.9243 34.6562 26.2022 35.2207 28.3285C35.7852 30.4549 34.5073 32.6565 32.381 33.221C30.2546 33.7855 28.053 32.5076 27.4885 30.3812Z" fill="#21CE9C"/>
</g>
<defs>
<filter id="filter0_ddi_16353_18596" x="-8" y="-11" width="78.7094" height="78.7095" filterUnits="userSpaceOnUse" color-interpolation-filters="sRGB">
<feFlood flood-opacity="0" result="BackgroundImageFix"/>
<feColorMatrix in="SourceAlpha" type="matrix" values="0 0 0 0 0 0 0 0 0 0 0 0 0 0 0 0 0 0 127 0" result="hardAlpha"/>
<feOffset dy="-1"/>
<feGaussianBlur stdDeviation="5"/>
<feComposite in2="hardAlpha" operator="out"/>
<feColorMatrix type="matrix" values="0 0 0 0 0.563191 0 0 0 0 0.548128 0 0 0 0 1 0 0 0 0.81 0"/>
<feBlend mode="normal" in2="BackgroundImageFix" result="effect1_dropShadow_16353_18596"/>
<feColorMatrix in="SourceAlpha" type="matrix" values="0 0 0 0 0 0 0 0 0 0 0 0 0 0 0 0 0 0 127 0" result="hardAlpha"/>
<feOffset dy="4"/>
<feGaussianBlur stdDeviation="2"/>
<feComposite in2="hardAlpha" operator="out"/>
<feColorMatrix type="matrix" values="0 0 0 0 0 0 0 0 0 0 0 0 0 0 0 0 0 0 0.25 0"/>
<feBlend mode="normal" in2="effect1_dropShadow_16353_18596" result="effect2_dropShadow_16353_18596"/>
<feBlend mode="normal" in="SourceGraphic" in2="effect2_dropShadow_16353_18596" result="shape"/>
<feColorMatrix in="SourceAlpha" type="matrix" values="0 0 0 0 0 0 0 0 0 0 0 0 0 0 0 0 0 0 127 0" result="hardAlpha"/>
<feOffset dy="4"/>
<feGaussianBlur stdDeviation="2"/>
<feComposite in2="hardAlpha" operator="arithmetic" k2="-1" k3="1"/>
<feColorMatrix type="matrix" values="0 0 0 0 1 0 0 0 0 1 0 0 0 0 1 0 0 0 0.52 0"/>
<feBlend mode="normal" in2="shape" result="effect3_innerShadow_16353_18596"/>
</filter>
</defs>
</svg>
