<svg width="12" height="12" viewBox="0 0 12 12" fill="none" xmlns="http://www.w3.org/2000/svg">
    <g clip-path="url(#clip0_24237_65798)">
        <path
            d="M6.5 9.5C6.5 9.67 6.52 9.835 6.545 10H3.25C2.5 10 1.845 9.75 1.305 9.215C0.77 8.69 0.5 8.045 0.5 7.29C0.5 6.64 0.695 6.06 1.085 5.55C1.475 5.04 2 4.715 2.625 4.575C2.835 3.81 3.25 3.19 3.875 2.715C4.5 2.24 5.21 2 6 2C6.975 2 7.8 2.34 8.48 3.02C9.16 3.7 9.5 4.525 9.5 5.5C10.075 5.565 10.55 5.815 10.93 6.25C11.185 6.535 11.35 6.855 11.43 7.21C10.91 6.77 10.25 6.5 9.5 6.5C9.445 6.5 9.395 6.5 9.34 6.5C9.31 6.5 9.28 6.5 9.25 6.5H8.5V5.5C8.5 4.81 8.25 4.22 7.77 3.73C7.28 3.25 6.69 3 6 3C5.31 3 4.72 3.25 4.23 3.73C3.75 4.22 3.5 4.81 3.5 5.5H3.25C2.765 5.5 2.355 5.67 2.015 6.015C1.67 6.355 1.5 6.765 1.5 7.25C1.5 7.735 1.67 8.145 2.015 8.5C2.355 8.83 2.765 9 3.25 9H6.545C6.52 9.165 6.5 9.33 6.5 9.5ZM8.875 9.715L8.08 8.92L7.5 9.5L8.875 11L11.25 8.625L10.67 7.92L8.875 9.715Z"
            fill="currentColor" />
    </g>
    <defs>
        <clipPath id="clip0_24237_65798">
            <rect width="12" height="12" fill="white" />
        </clipPath>
    </defs>
</svg>