<svg width="12" height="12" viewBox="0 0 12 12" fill="none" xmlns="http://www.w3.org/2000/svg">
    <path
        d="M9 10V5H3V10H9ZM9 4C9.26522 4 9.51957 4.10536 9.70711 4.29289C9.89464 4.48043 10 4.73478 10 5V10C10 10.2652 9.89464 10.5196 9.70711 10.7071C9.51957 10.8946 9.26522 11 9 11H3C2.445 11 2 10.55 2 10V5C2 4.73478 2.10536 4.48043 2.29289 4.29289C2.48043 4.10536 2.73478 4 3 4H7.5V3C7.5 2.60218 7.34196 2.22064 7.06066 1.93934C6.77936 1.65804 6.39782 1.5 6 1.5C5.60218 1.5 5.22064 1.65804 4.93934 1.93934C4.65804 2.22064 4.5 2.60218 4.5 3H3.5C3.5 2.33696 3.76339 1.70107 4.23223 1.23223C4.70107 0.763392 5.33696 0.5 6 0.5C6.3283 0.5 6.65339 0.564664 6.95671 0.690301C7.26002 0.815938 7.53562 1.00009 7.76777 1.23223C7.99991 1.46438 8.18406 1.73998 8.3097 2.04329C8.43534 2.34661 8.5 2.6717 8.5 3V4H9ZM6 8.5C5.73478 8.5 5.48043 8.39464 5.29289 8.20711C5.10536 8.01957 5 7.76522 5 7.5C5 7.23478 5.10536 6.98043 5.29289 6.79289C5.48043 6.60536 5.73478 6.5 6 6.5C6.26522 6.5 6.51957 6.60536 6.70711 6.79289C6.89464 6.98043 7 7.23478 7 7.5C7 7.76522 6.89464 8.01957 6.70711 8.20711C6.51957 8.39464 6.26522 8.5 6 8.5Z"
        fill="currentColor" />
</svg>