<svg width="12" height="12" viewBox="0 0 12 12" fill="none" xmlns="http://www.w3.org/2000/svg">
    <g clip-path="url(#clip0_24237_65789)">
        <path
            d="M11.75 8.5L9.25 11L7.5 9.25L8.25 8.5L9.25 9.5L11 7.75L11.75 8.5ZM11 6.75V6.9C10.685 6.72 10.335 6.595 9.97 6.535C9.875 6.225 9.59 6 9.25 6H8.5V3.5H6V2.75C6 2.335 5.665 2 5.25 2C4.835 2 4.5 2.335 4.5 2.75V3.5H2V4.56C2.88 4.9 3.5 5.75 3.5 6.75C3.5 7.75 2.875 8.6 2 8.94V10H3.06C3.4 9.125 4.25 8.5 5.25 8.5C5.735 8.5 6.185 8.65 6.56 8.9L6.5 9.5C6.5 10.045 6.645 10.56 6.9 11H6.6V10.85C6.6 10.105 6 9.5 5.25 9.5C4.5 9.5 3.9 10.105 3.9 10.85V11H2C1.45 11 1 10.55 1 10V8.1H1.15C1.895 8.1 2.5 7.5 2.5 6.75C2.5 6 1.895 5.4 1.15 5.4H1V3.5C1 2.95 1.45 2.5 2 2.5H3.52C3.64 1.65 4.37 1 5.25 1C6.13 1 6.86 1.65 6.98 2.5H8.5C9.05 2.5 9.5 2.95 9.5 3.5V5.02C10.35 5.14 11 5.87 11 6.75Z"
            fill="currentColor" />
    </g>
    <defs>
        <clipPath id="clip0_24237_65789">
            <rect width="12" height="12" fill="white" />
        </clipPath>
    </defs>
</svg>