<?xml version="1.0" encoding="UTF-8"?>
<!DOCTYPE svg PUBLIC "-//W3C//DTD SVG 1.1//EN" "http://www.w3.org/Graphics/SVG/1.1/DTD/svg11.dtd">
<!-- Creator: CorelDRAW 2018 (64-Bit) -->
<svg xmlns="http://www.w3.org/2000/svg" xml:space="preserve" width="19.256mm" height="7.0437mm" version="1.1" style="shape-rendering:geometricPrecision; text-rendering:geometricPrecision; image-rendering:optimizeQuality; fill-rule:evenodd; clip-rule:evenodd"
viewBox="0 0 94.32 34.5"
 xmlns:xlink="http://www.w3.org/1999/xlink">
 <defs>
  <style type="text/css">
   <![CDATA[
    .fil1 {fill:#FEFEFE;fill-rule:nonzero}
    .fil0 {fill:#E32124;fill-rule:nonzero}
   ]]>
  </style>
 </defs>
 <g id="Layer_x0020_1">
  <metadata id="CorelCorpID_0Corel-Layer"/>
  <polygon class="fil0" points="-0,34.5 94.32,34.5 94.32,0 -0,0 "/>
  <path class="fil1" d="M82.17 13.8c0.07,0 0.14,-0 0.18,-0.07 0.01,-0.03 0.02,-0.06 0.02,-0.09 0,-0.06 -0.03,-0.11 -0.08,-0.14 -0.05,-0.02 -0.1,-0.02 -0.21,-0.02l-0.05 0 0 0.31 0.14 0zm-0.09 -0.49c0.15,0 0.22,0 0.28,0.03 0.2,0.06 0.22,0.24 0.22,0.3 0,0.01 0,0.05 -0.01,0.09 -0.01,0.04 -0.03,0.12 -0.14,0.19 -0.02,0.01 -0.02,0.01 -0.05,0.02l0.25 0.46 -0.24 0 -0.22 -0.42 -0.14 0 0 0.42 -0.22 0 0 -1.09 0.27 0zm0.09 1.54c0.54,0 0.97,-0.44 0.97,-0.97 0,-0.54 -0.43,-0.97 -0.97,-0.97 -0.53,0 -0.96,0.43 -0.96,0.97 0,0.53 0.43,0.97 0.96,0.97zm-0.76 -0.97c0,-0.42 0.34,-0.77 0.76,-0.77 0.43,0 0.77,0.35 0.77,0.77 0,0.41 -0.35,0.76 -0.77,0.76 -0.41,0 -0.76,-0.35 -0.76,-0.76zm-6.74 6.17c-1.28,0 -2.35,-0.86 -2.68,-2.03l7.08 0 0.98 -1.52 -8.07 0c0.32,-1.17 1.41,-2.04 2.68,-2.04l4.88 0 0.97 -1.52 -5.96 0c-2.39,0 -4.32,1.93 -4.32,4.31 0,2.38 1.93,4.31 4.32,4.31l5.12 0 0.97 -1.52 -5.98 0zm-20.29 1.52c-2.38,0 -4.31,-1.93 -4.31,-4.31 0,-2.38 1.93,-4.31 4.31,-4.31l5.96 0 -0.98 1.52 -4.88 0c-1.54,0 -2.79,1.25 -2.79,2.79 0,1.54 1.25,2.79 2.79,2.79l5.98 0 -0.98 1.52 -5.12 0zm-31.5 -1.52c1.54,0 2.8,-1.25 2.8,-2.79 0,-1.54 -1.25,-2.79 -2.8,-2.79l-4.79 0c-1.54,0 -2.79,1.25 -2.79,2.79 0,1.54 1.25,2.79 2.79,2.79l4.79 0zm-4.9 1.52c-2.39,0 -4.32,-1.93 -4.32,-4.31 0,-2.38 1.93,-4.31 4.32,-4.31l5.01 0c2.38,0 4.31,1.93 4.31,4.31 0,2.38 -1.93,4.31 -4.31,4.31l-5.01 0zm17.46 -2.79c1.62,0 2.92,-1.31 2.92,-2.92 0,-1.61 -1.3,-2.92 -2.92,-2.92l-7.26 0 0 8.63 1.66 0 0 -7.11 5.49 0c0.76,0 1.39,0.63 1.39,1.4 0,0.77 -0.63,1.39 -1.39,1.39l-4.68 -0 4.94 4.32 2.41 0 -3.33 -2.79 0.75 0zm27.44 1.27l0 -7.1 -1.65 0 0 7.8c0,0.22 0.08,0.42 0.24,0.58 0.16,0.15 0.38,0.25 0.61,0.25l7.57 0 0.98 -1.52 -7.74 0zm-20.3 -1.52l4.43 0 -2.34 -3.77 -4.3 6.82 -1.95 0 5.22 -8.18c0.23,-0.33 0.61,-0.53 1.03,-0.53 0.4,0 0.78,0.19 1.01,0.51l5.24 8.2 -1.96 0 -0.92 -1.52 -4.48 0 -0.98 -1.52z"/>
 </g>
</svg>
