<svg width="140" height="50" viewBox="0 0 140 50" fill="none" xmlns="http://www.w3.org/2000/svg">
<path d="M30.6583 29.9282C31.5302 29.9282 32.2373 29.2086 32.2373 28.3224C32.2373 27.4341 31.5302 26.7152 30.6583 26.7153C29.7855 26.7153 29.0784 27.4341 29.0784 28.3224C29.0784 29.2086 29.7854 29.9282 30.6583 29.9282Z" fill="#292B5B"/>
<path d="M17.7428 22.2223H29.8891V23.8286H17.7428V22.2223Z" fill="#292B5B"/>
<path fill-rule="evenodd" clip-rule="evenodd" d="M30.6583 34H13.5809C12.6938 34 12 33.2946 12 32.3938V21.6786C12 18.335 14.0224 16 16.9177 16H33.9956C34.8966 16 35.5749 16.6899 35.5749 17.6061V28.3223C35.5749 31.6648 33.5523 34 30.6583 34ZM16.9177 17.351C14.7384 17.351 13.3298 19.049 13.3298 21.6786V32.3938C13.3298 32.5411 13.4348 32.6487 13.5809 32.6487H30.6583C32.8369 32.6487 34.2461 30.9504 34.2461 28.3224V17.6061C34.2461 17.4398 34.159 17.3509 33.9956 17.3509L16.9177 17.351Z" fill="#292B5B"/>
<path fill-rule="evenodd" clip-rule="evenodd" d="M48.5293 17.5358C48.4856 17.4144 48.3712 17.3318 48.2426 17.3318H47.6874C47.5587 17.3318 47.4446 17.4144 47.4016 17.5358L42.7246 32.2287C42.6918 32.3223 42.7049 32.4285 42.763 32.5094C42.8195 32.5921 42.9118 32.6401 43.0123 32.6401H43.6459C43.7748 32.6401 43.889 32.5576 43.9329 32.4338L45.4614 27.6872H50.4666L51.9569 32.4408C51.9996 32.5652 52.1145 32.6479 52.2442 32.6479H52.9222C53.09 32.6479 53.2263 32.5094 53.2263 32.3405C53.2263 32.2855 53.2132 32.2356 53.1885 32.1919L48.5293 17.5358ZM47.9652 19.7006C48.3411 20.9307 49.1211 23.4706 49.1211 23.4706L50.0909 26.5099H45.845L47.0459 22.6792L47.9652 19.7006Z" fill="#292B5B"/>
<path d="M61.9088 30.4331C61.8557 30.3663 61.7777 30.3262 61.6928 30.3207C61.6099 30.3151 61.5259 30.3452 61.465 30.4033C60.948 30.896 60.1035 31.482 59.0184 31.482C57.0431 31.482 55.7164 29.8173 55.7164 27.3395C55.7164 24.9152 57.1054 23.1554 59.0184 23.1554C59.78 23.1554 60.4697 23.4733 61.1872 24.1553C61.2471 24.2118 61.3283 24.2398 61.4076 24.2379C61.4892 24.2355 61.5664 24.1984 61.6215 24.1377L62.0187 23.6971C62.1294 23.572 62.1218 23.3795 62.0002 23.2648C61.3693 22.666 60.4596 21.9786 59.0185 21.9786C57.7886 21.9786 56.6545 22.4847 55.8273 23.403C54.942 24.384 54.4741 25.7449 54.4741 27.3396C54.4741 30.5217 56.3 32.6604 59.0185 32.6604C60.1602 32.6604 61.2414 32.202 62.2338 31.2985C62.3546 31.1882 62.3677 31.0008 62.2661 30.8738L61.9088 30.4331Z" fill="#292B5B"/>
<path d="M70.8762 30.3207C70.9609 30.3262 71.039 30.3663 71.0922 30.4331L71.4493 30.8738C71.5524 31.0008 71.5379 31.1882 71.4171 31.2985C70.4246 32.202 69.3428 32.6604 68.2027 32.6604C65.4845 32.6604 63.6572 30.5217 63.6572 27.3396C63.6572 25.7449 64.126 24.384 65.0105 23.403C65.8395 22.4847 66.9712 21.9786 68.2027 21.9786C69.6434 21.9786 70.5529 22.666 71.1846 23.2648C71.3055 23.3795 71.3132 23.572 71.2014 23.6971L70.8045 24.1377C70.75 24.1984 70.6734 24.2355 70.5919 24.2379C70.5117 24.2398 70.4313 24.2118 70.3718 24.1553C69.6532 23.4733 68.9637 23.1554 68.2027 23.1554C66.2894 23.1554 64.9011 24.9152 64.9011 27.3395C64.9011 29.8173 66.2264 31.482 68.2027 31.482C69.2878 31.482 70.1317 30.896 70.6482 30.4033C70.7103 30.3452 70.7929 30.3151 70.8762 30.3207Z" fill="#292B5B"/>
<path d="M78.6038 22.2115C78.1984 22.0063 77.8465 21.9785 77.5566 21.9785C76.6324 21.9785 75.7898 22.4702 75.0871 23.4105L75.0479 22.5131C75.0401 22.3487 74.9059 22.219 74.7436 22.219H74.2284C74.0598 22.219 73.924 22.3563 73.924 22.5266V32.3461C73.924 32.5151 74.0598 32.6538 74.2284 32.6538H74.823C74.9904 32.6538 75.1274 32.5151 75.1274 32.3461V25.5147C75.7284 24.0402 76.5827 23.1955 77.4769 23.1955C77.7872 23.1955 77.9109 23.2256 78.2022 23.3371C78.2819 23.3672 78.3698 23.3615 78.4463 23.3238C78.5222 23.2848 78.5789 23.2156 78.6025 23.1332L78.7605 22.5712C78.8007 22.4286 78.7344 22.277 78.6038 22.2115Z" fill="#292B5B"/>
<path fill-rule="evenodd" clip-rule="evenodd" d="M84.2234 21.9784C82.0965 21.9784 79.8371 23.8572 79.8371 27.3394C79.8371 30.4713 81.7382 32.6601 84.4605 32.6601C85.9844 32.6601 86.8512 32.1249 87.5472 31.6953L87.5517 31.6928C87.6899 31.6068 87.7371 31.4273 87.6607 31.2836L87.3834 30.7617C87.3419 30.6839 87.2687 30.6282 87.1832 30.608C87.0985 30.5883 87.0081 30.6071 86.9379 30.6587C86.1693 31.2213 85.3942 31.4819 84.5007 31.4819C82.5408 31.4819 81.1965 29.9542 81.0875 27.6473H87.7492C87.8984 27.6473 88.0253 27.5385 88.0501 27.3893C88.0934 27.124 88.0934 26.907 88.0934 26.6971C88.0934 23.7426 86.6459 21.9784 84.2234 21.9784ZM84.2234 23.1553C85.8665 23.1553 86.8041 24.3292 86.8851 26.47H81.1155C81.3897 24.5017 82.6344 23.1553 84.2234 23.1553Z" fill="#292B5B"/>
<path fill-rule="evenodd" clip-rule="evenodd" d="M97.7336 17.3262H98.3276C98.4945 17.3262 98.631 17.4644 98.631 17.6353V32.3527C98.631 32.5222 98.4945 32.6602 98.3276 32.6602H97.8125C97.6519 32.6602 97.5194 32.5332 97.5092 32.3716L97.4671 31.4577C96.5367 32.2568 95.548 32.6602 94.5232 32.6602C91.8769 32.6602 90.2956 30.6708 90.2956 27.3395C90.2956 24.2331 92.207 21.9785 94.8406 21.9785C95.868 21.9785 96.6258 22.3029 97.4544 22.8759L97.4295 21.692V17.6354C97.4295 17.4644 97.5653 17.3262 97.7336 17.3262ZM97.4295 24.3099C96.4919 23.4917 95.724 23.1553 94.8004 23.1553C92.9718 23.1553 91.5391 24.9933 91.5391 27.3393C91.5391 29.9338 92.6697 31.4819 94.5627 31.4819C95.4913 31.4819 96.3785 31.0172 97.4295 29.9776V24.3099Z" fill="#292B5B"/>
<path d="M101.037 19.3984C101.037 18.8255 101.449 18.4096 102.015 18.4096C102.582 18.4096 102.994 18.8254 102.994 19.3984C102.994 19.9543 102.565 20.3891 102.015 20.3891C101.468 20.3891 101.037 19.9543 101.037 19.3984Z" fill="#292B5B"/>
<path d="M102.312 22.219H101.718C101.55 22.219 101.414 22.3563 101.414 22.5266V32.3527C101.414 32.5222 101.55 32.6603 101.718 32.6603H102.312C102.481 32.6603 102.617 32.5222 102.617 32.3527V22.5266C102.617 22.3563 102.481 22.219 102.312 22.219Z" fill="#292B5B"/>
<path fill-rule="evenodd" clip-rule="evenodd" d="M109.627 21.9784C108.685 21.9784 107.661 22.3898 106.577 23.2033L106.603 21.926V17.6353C106.603 17.4643 106.466 17.3261 106.298 17.3261H105.703C105.536 17.3261 105.399 17.4643 105.399 17.6353V32.1119C105.399 32.2811 105.536 32.4195 105.703 32.4195H106.219C106.377 32.4195 106.508 32.2969 106.523 32.1376L106.559 31.6929C107.461 32.3113 108.414 32.6602 109.23 32.6602C112.187 32.6602 113.734 29.9026 113.734 27.1788C113.735 23.8729 112.237 21.9784 109.627 21.9784ZM109.27 31.4819C108.965 31.4819 107.892 31.3972 106.603 30.3233V24.6702C107.731 23.6649 108.734 23.1553 109.587 23.1553C111.988 23.1553 112.492 25.3433 112.492 27.1786C112.492 29.7133 111.168 31.4819 109.27 31.4819Z" fill="#292B5B"/>
<path d="M118.089 31.6814C118.052 31.5187 117.894 31.4152 117.732 31.4479C117.565 31.4819 117.504 31.4819 117.436 31.4819C117.362 31.4819 117.343 31.2916 117.343 31.1901V17.6353C117.343 17.4643 117.207 17.3261 117.039 17.3261H116.445C116.277 17.3261 116.141 17.4643 116.141 17.6353V31.0687C116.141 32.3838 116.822 32.6601 117.396 32.6601C117.642 32.6601 117.789 32.6222 117.928 32.5843L117.985 32.5712C118.145 32.5296 118.245 32.3671 118.208 32.2033L118.089 31.6814Z" fill="#292B5B"/>
<path fill-rule="evenodd" clip-rule="evenodd" d="M124.129 21.9784C122.004 21.9784 119.745 23.8572 119.745 27.3394C119.745 30.4713 121.646 32.6601 124.368 32.6601C125.891 32.6601 126.76 32.1246 127.457 31.6948L127.459 31.6928C127.597 31.6068 127.645 31.4273 127.569 31.2836L127.291 30.7617C127.249 30.6839 127.175 30.6282 127.091 30.608C127.005 30.5883 126.916 30.6071 126.846 30.6587C126.075 31.2213 125.3 31.4819 124.408 31.4819C122.447 31.4819 121.104 29.9542 120.993 27.6473H127.657C127.805 27.6473 127.933 27.5385 127.957 27.3893C128 27.124 128 26.907 128 26.6971C128 23.7426 126.554 21.9784 124.129 21.9784ZM121.023 26.47C121.298 24.5017 122.541 23.1553 124.129 23.1553C125.773 23.1553 126.712 24.3292 126.793 26.47H121.023Z" fill="#292B5B"/>
</svg>
