<svg width="160" height="58" viewBox="0 0 160 58" fill="none" xmlns="http://www.w3.org/2000/svg">
<path d="M42.8387 23.063H42.6194L36.7969 35.5038H38.216L42.6681 25.771L47.2604 35.5038H48.582L42.8387 23.063Z" fill="#09426A"/>
<path d="M58.2599 24.162C60.1601 24.162 61.8228 25.1942 62.712 26.7242L63.7353 26.1353C62.6451 24.2531 60.5986 22.9841 58.2599 22.9841C54.77 22.9841 51.9379 25.8074 51.9379 29.2865C51.9379 32.7655 54.77 35.5888 58.2599 35.5888C60.5986 35.5888 62.639 34.3199 63.7353 32.4376L62.712 31.8487C61.8228 33.3788 60.1601 34.4109 58.2599 34.4109C55.4217 34.4109 53.1195 32.1159 53.1195 29.2865C53.1195 26.4571 55.4217 24.162 58.2599 24.162Z" fill="#09426A"/>
<path d="M87.6284 23.1298H86.3006V35.4431H87.6284V23.1298Z" fill="#09426A"/>
<path d="M100.504 22.9841C97.0139 22.9841 94.1818 25.8074 94.1818 29.2865C94.1818 32.7655 97.0139 35.5888 100.504 35.5888C103.994 35.5888 106.826 32.7655 106.826 29.2865C106.82 25.8074 103.994 22.9841 100.504 22.9841ZM100.504 34.4109C97.6656 34.4109 95.3633 32.1159 95.3633 29.2865C95.3633 26.4571 97.6656 24.162 100.504 24.162C103.342 24.162 105.644 26.4571 105.644 29.2865C105.644 32.1159 103.342 34.4109 100.504 34.4109Z" fill="#09426A"/>
<path d="M122.874 23.1298L117.673 28.8736L112.472 23.1298H112.149V35.4431H113.385V27.131C113.385 27.04 113.379 26.9428 113.379 26.8457V26.0746L114.122 26.87C114.128 26.876 114.128 26.876 114.134 26.8821L114.987 27.7928L115.127 27.9446L117.679 30.6708L121.224 26.8821C121.571 26.4632 122.076 25.7406 122.076 25.7406C122.076 25.7406 121.967 26.6089 121.967 27.1371V35.4492H123.203V23.1298H122.874Z" fill="#09426A"/>
<path d="M81.0872 35.5888L77.7861 30.4036L76.1904 32.9052L75.5021 33.992L76.5193 35.5888H81.0872Z" fill="#09426A"/>
<path d="M76.5193 22.9841L75.5021 24.5809L76.1904 25.6617L76.9334 26.8335L77.7861 28.1693L81.0872 22.9841H76.5193Z" fill="#09426A"/>
<path d="M70.4957 19.4443H64.7402L71.0073 29.2865L64.7402 39.1286H70.4957L76.7568 29.2865L70.4957 19.4443Z" fill="#00A0DD"/>
</svg>
