<svg width="338" height="78" viewBox="0 0 338 78" fill="none" xmlns="http://www.w3.org/2000/svg">
<path d="M23.634 14.4074H22.7763L0 63.0728H5.55114L22.9669 25.0003L40.9307 63.0728H46.1007L23.634 14.4074Z" fill="#09426A"/>
<path d="M83.958 18.7063C91.3913 18.7063 97.8954 22.7439 101.374 28.7291L105.376 26.4253C101.112 19.0626 93.1067 14.0987 83.958 14.0987C70.3065 14.0987 59.228 25.1428 59.228 38.752C59.228 52.3611 70.3065 63.4053 83.958 63.4053C93.1067 63.4053 101.088 58.4413 105.376 51.0786L101.374 48.7748C97.8954 54.76 91.3913 58.7976 83.958 58.7976C72.8557 58.7976 63.85 49.8198 63.85 38.752C63.85 27.6841 72.8557 18.7063 83.958 18.7063Z" fill="#09426A"/>
<path d="M198.84 14.6687H193.647V62.8352H198.84V14.6687Z" fill="#09426A"/>
<path d="M249.206 14.0987C235.554 14.0987 224.476 25.1428 224.476 38.752C224.476 52.3611 235.554 63.4053 249.206 63.4053C262.857 63.4053 273.936 52.3611 273.936 38.752C273.912 25.1428 262.857 14.0987 249.206 14.0987ZM249.206 58.7976C238.103 58.7976 229.098 49.8198 229.098 38.752C229.098 27.6841 238.103 18.7063 249.206 18.7063C260.308 18.7063 269.314 27.6841 269.314 38.752C269.314 49.8198 260.308 58.7976 249.206 58.7976Z" fill="#09426A"/>
<path d="M336.713 14.6687L316.367 37.1369L296.021 14.6687H294.758V62.8352H299.595V30.3204C299.595 29.9642 299.571 29.5842 299.571 29.2041V26.1878L302.477 29.2991C302.501 29.3229 302.501 29.3229 302.525 29.3466L305.861 32.9093L306.409 33.503L316.391 44.1671L330.257 29.3466C331.615 27.7078 333.592 24.8815 333.592 24.8815C333.592 24.8815 333.164 28.2779 333.164 30.3442V62.859H338V14.6687H336.713Z" fill="#09426A"/>
<path d="M173.253 63.4053L160.34 43.1221L154.098 52.9074L151.406 57.1588L155.384 63.4053H173.253Z" fill="#09426A"/>
<path d="M155.384 14.0987L151.406 20.3451L154.098 24.5727L157.004 29.1566L160.34 34.3818L173.253 14.0987H155.384Z" fill="#09426A"/>
<path d="M131.822 0.251953H109.307L133.823 38.752L109.307 77.252H131.822L156.313 38.752L131.822 0.251953Z" fill="#00A0DD"/>
</svg>
