<svg width="360" height="86" viewBox="0 0 360 86" fill="none" xmlns="http://www.w3.org/2000/svg">
<path d="M20.249 0.223755C20.249 0.223755 0.326782 0.223755 0.326782 20.1441V65.7296C0.326782 65.7296 0.326782 85.6518 20.249 85.6518H65.8345C65.8345 85.6518 85.7568 85.6518 85.7568 65.7296V20.1441C85.7568 20.1441 85.7568 0.223755 65.8345 0.223755H20.249Z" fill="#FF9100"/>
<path d="M71.7092 23.1375C71.7278 22.0335 71.4591 20.9436 70.9294 19.9748C70.3997 19.006 69.6273 18.1916 68.6878 17.6114C67.7484 17.0313 66.6742 16.7053 65.5708 16.6656C64.4673 16.6259 63.3725 16.8738 62.3938 17.3849L13.5011 46.5199C12.4257 47.1695 11.5667 48.123 11.0324 49.2602C10.4981 50.3973 10.3124 51.6672 10.4988 52.9097C10.6852 54.1522 11.2353 55.3117 12.0797 56.2421C12.9241 57.1724 14.0251 57.8319 15.2438 58.1375L57.8571 69.4065C58.1843 69.4956 58.2831 69.5208 58.5174 69.5731C58.9147 69.6582 59.3193 69.7042 59.7256 69.7105C61.2804 69.7377 62.7913 69.1947 63.9731 68.1841C65.155 67.1735 65.9259 65.7652 66.1405 64.2251L71.6724 23.8501C71.6724 23.8501 71.7072 23.3796 71.7111 23.1414" fill="white"/>
<path d="M109.821 37.5976C109.885 35.186 110.593 32.8355 111.871 30.7896C113.05 29.0087 114.621 27.5216 116.464 26.4427C118.41 25.3169 120.531 24.5268 122.739 24.1057C125.049 23.6431 127.398 23.4096 129.753 23.4086C131.92 23.4114 134.085 23.5621 136.231 23.8598C138.308 24.1285 140.329 24.7239 142.22 25.6237C143.975 26.4571 145.497 27.7108 146.65 29.2736C147.877 31.0995 148.481 33.2727 148.372 35.4696V57.543C148.367 59.3798 148.476 61.215 148.699 63.0382C148.803 64.4161 149.194 65.757 149.847 66.9746H138.036C137.817 66.3164 137.639 65.6452 137.503 64.9647C137.365 64.2742 137.27 63.5758 137.217 62.8736C135.412 64.7555 133.151 66.1399 130.655 66.8933C128.156 67.6564 125.557 68.0434 122.945 68.0415C121.033 68.0564 119.129 67.8082 117.285 67.3038C115.615 66.8528 114.053 66.072 112.69 65.0073C111.368 63.957 110.314 62.6079 109.615 61.0709C108.837 59.288 108.459 57.3561 108.508 55.4112C108.43 53.3541 108.867 51.3101 109.78 49.4649C110.563 47.9795 111.687 46.7009 113.06 45.7337C114.459 44.7774 116.013 44.07 117.653 43.6426C119.368 43.18 121.107 42.8103 122.861 42.535C124.612 42.2614 126.334 42.0426 128.029 41.8786C129.549 41.7437 131.057 41.4971 132.541 41.1409C133.673 40.8976 134.737 40.4077 135.658 39.7062C136.046 39.3698 136.347 38.9436 136.533 38.4647C136.719 37.9859 136.785 37.4688 136.725 36.9586C136.774 35.9243 136.562 34.8943 136.109 33.9632C135.726 33.2533 135.16 32.659 134.469 32.2418C133.738 31.8154 132.93 31.5365 132.092 31.4209C131.13 31.2808 130.159 31.2122 129.187 31.2156C127.268 31.1051 125.364 31.6231 123.766 32.6911C123.055 33.3009 122.482 34.0554 122.086 34.9042C121.69 35.753 121.48 36.6765 121.469 37.613L109.821 37.5976ZM136.725 46.2101C136.186 46.6744 135.558 47.0237 134.88 47.2363C134.101 47.4922 133.306 47.6972 132.5 47.8501C131.652 48.014 130.763 48.1509 129.834 48.2606C128.905 48.3703 127.975 48.5065 127.046 48.6691C126.172 48.8334 125.309 49.0526 124.463 49.3255C123.669 49.572 122.921 49.9461 122.248 50.4331C121.616 50.9005 121.098 51.5032 120.73 52.197C120.315 53.0387 120.115 53.9701 120.149 54.9078C120.121 55.817 120.321 56.7187 120.73 57.5314C121.091 58.2203 121.629 58.8009 122.288 59.214C122.993 59.643 123.772 59.9353 124.585 60.0757C125.479 60.2416 126.386 60.3239 127.295 60.3216C129.143 60.4252 130.985 60.0285 132.626 59.1734C133.778 58.5139 134.739 57.5673 135.416 56.4258C135.994 55.429 136.37 54.3284 136.524 53.1864C136.643 52.316 136.712 51.4393 136.729 50.5609L136.725 46.2101Z" fill="black"/>
<path d="M155.671 17.9948V8.39867H167.32V17.9948H155.671ZM167.32 24.5568V66.961H155.671V24.5568H167.32Z" fill="black"/>
<path d="M185.782 24.5568V30.2978H185.947C187.378 28.2008 189.272 26.4606 191.483 25.2113C193.76 23.9792 196.318 23.3575 198.906 23.4067C201.438 23.3725 203.946 23.9016 206.249 24.9557C208.553 26.0955 210.349 28.0554 211.283 30.4508C212.649 28.4869 214.392 26.8139 216.41 25.5288C218.698 24.0717 221.368 23.3301 224.08 23.3989C226.186 23.3808 228.284 23.6564 230.314 24.218C232.131 24.7134 233.813 25.6099 235.236 26.8416C236.664 28.1358 237.76 29.7532 238.433 31.5583C239.252 33.8036 239.642 36.1824 239.583 38.5715V66.9533H227.935V42.93C227.935 41.5101 227.881 40.1702 227.772 38.9103C227.694 37.7677 227.387 36.6523 226.87 35.6303C226.375 34.6986 225.622 33.9295 224.701 33.4152C223.494 32.8131 222.153 32.5311 220.805 32.5962C219.418 32.5335 218.04 32.8601 216.828 33.5391C215.839 34.1442 215.02 34.9911 214.449 36.0001C213.856 37.0673 213.466 38.2353 213.301 39.4448C213.108 40.7344 213.013 42.0366 213.014 43.3405V66.963H201.367V43.1759C201.367 41.9174 201.34 40.6736 201.284 39.4448C201.243 38.2786 201.008 37.1274 200.587 36.0389C200.183 35.0102 199.466 34.1349 198.536 33.5372C197.246 32.8277 195.781 32.5006 194.312 32.5942C193.574 32.625 192.843 32.7493 192.137 32.9641C191.175 33.2425 190.281 33.7172 189.512 34.3582C188.573 35.1651 187.83 36.1748 187.339 37.311C186.678 38.9076 186.37 40.6283 186.437 42.355V66.963H174.784V24.5587L185.782 24.5568Z" fill="black"/>
<path d="M270.016 24.5568V32.3483H261.484V53.3471C261.276 54.0311 261.258 54.7588 261.431 55.4524C261.605 56.146 261.963 56.7794 262.469 57.2849C262.974 57.7905 263.608 58.1491 264.301 58.3225C264.995 58.4958 265.723 58.4774 266.406 58.2691C267.063 58.2691 267.69 58.242 268.292 58.1859C268.87 58.1354 269.445 58.0533 270.014 57.94V66.963C268.928 67.1369 267.833 67.2462 266.734 67.2902C265.529 67.3444 264.353 67.3722 263.206 67.3735C261.49 67.3794 259.776 67.2558 258.079 67.0036C256.581 66.7955 255.136 66.3081 253.819 65.5669C252.585 64.8488 251.578 63.7972 250.914 62.5328C250.139 60.9243 249.773 59.149 249.849 57.3649V32.3503H242.772V24.5587H249.828V11.8452H261.475V24.5587L270.016 24.5568Z" fill="black"/>
<path d="M286.007 56.7879C287.927 58.291 290.26 59.1709 292.694 59.3093C295.128 59.4478 297.546 58.8382 299.623 57.5624C301.057 56.7095 302.157 55.3925 302.741 53.8293H313.003C311.841 58.2378 309.168 62.0985 305.451 64.7382C301.759 67.0097 297.482 68.1506 293.148 68.0202C290.066 68.0662 287.004 67.5234 284.125 66.4208C281.548 65.424 279.223 63.8695 277.317 61.8687C275.416 59.8351 273.95 57.4349 273.009 54.8148C271.97 51.9215 271.457 48.8658 271.493 45.7918C271.464 42.7692 271.989 39.7668 273.042 36.9334C274.012 34.2969 275.514 31.8879 277.454 29.8561C279.395 27.8243 281.732 26.213 284.321 25.1222C287.11 23.9471 290.112 23.3611 293.139 23.4009C296.406 23.3228 299.644 24.0405 302.572 25.492C305.179 26.8251 307.44 28.7477 309.175 31.1072C310.926 33.5208 312.193 36.2509 312.906 39.1466C313.678 42.2276 313.955 45.4119 313.727 48.5801H283.134C283.008 51.5826 284.036 54.5194 286.007 56.7879ZM299.174 34.4763C298.339 33.663 297.34 33.0375 296.244 32.6415C295.147 32.2454 293.979 32.0881 292.817 32.1799C291.22 32.1248 289.632 32.4479 288.184 33.1228C287.043 33.6802 286.035 34.4774 285.231 35.4599C284.523 36.3323 283.993 37.3357 283.672 38.4127C283.396 39.3205 283.217 40.2552 283.14 41.201H302.086C301.755 38.7353 300.747 36.4096 299.174 34.4821V34.4763Z" fill="black"/>
<path d="M338.831 32.1838C337.179 32.1261 335.549 32.5695 334.154 33.4559C332.895 34.3046 331.843 35.4264 331.078 36.7379C330.273 38.1099 329.705 39.6075 329.397 41.168C329.072 42.7468 328.908 44.3543 328.905 45.9661C328.909 47.5369 329.074 49.1031 329.397 50.6402C329.696 52.1526 330.236 53.6071 330.996 54.9484C331.727 56.2252 332.753 57.3077 333.99 58.1046C335.366 58.9578 336.964 59.3855 338.583 59.3341C339.759 59.4105 340.939 59.2423 342.048 58.8401C343.156 58.4378 344.169 57.8103 345.023 56.997C346.609 55.2593 347.6 53.061 347.852 50.7216H359.082C358.653 55.7044 356.299 60.324 352.52 63.5997C348.567 66.6673 343.656 68.2367 338.656 68.0298C335.668 68.0641 332.702 67.521 329.92 66.4305C327.374 65.4347 325.067 63.911 323.153 61.9597C321.258 59.992 319.78 57.6628 318.806 55.1111C317.745 52.3222 317.219 49.3583 317.257 46.3746C317.229 43.2682 317.714 40.1784 318.691 37.2297C319.581 34.5308 321.019 32.0453 322.916 29.9299C324.81 27.854 327.133 26.216 329.724 25.1299C332.638 23.937 335.764 23.3513 338.912 23.4086C341.365 23.3997 343.808 23.7308 346.171 24.3922C348.412 25.008 350.524 26.022 352.406 27.3857C354.336 28.7725 355.921 30.5852 357.037 32.6831C358.154 34.781 358.773 37.1079 358.846 39.4835H347.443C347.38 38.4303 347.104 37.4009 346.632 36.4573C346.16 35.5137 345.501 34.6756 344.697 33.9934C343.892 33.3112 342.957 32.7992 341.949 32.4881C340.941 32.1771 339.88 32.0736 338.831 32.1838Z" fill="black"/>
</svg>
