<svg width="160" height="58" viewBox="0 0 160 58" fill="none" xmlns="http://www.w3.org/2000/svg">
<path d="M40.1439 18.752C40.1439 18.752 35.1643 18.752 35.1643 23.7311V35.1252C35.1643 35.1252 35.1643 40.1048 40.1439 40.1048H51.5381C51.5381 40.1048 56.5177 40.1048 56.5177 35.1252V23.7311C56.5177 23.7311 56.5177 18.752 51.5381 18.752H40.1439Z" fill="#FF9100"/>
<path d="M53.0064 24.4793C53.0111 24.2033 52.9439 23.9309 52.8115 23.6888C52.6791 23.4466 52.4861 23.243 52.2512 23.098C52.0164 22.953 51.7479 22.8716 51.4721 22.8616C51.1963 22.8517 50.9227 22.9136 50.678 23.0414L38.4573 30.3237C38.1885 30.4861 37.9737 30.7244 37.8402 31.0087C37.7066 31.2929 37.6602 31.6103 37.7068 31.9209C37.7534 32.2315 37.8909 32.5213 38.102 32.7538C38.313 32.9864 38.5882 33.1512 38.8928 33.2276L49.5441 36.0443C49.6259 36.0666 49.6506 36.0728 49.7091 36.0859C49.8084 36.1072 49.9096 36.1187 50.0111 36.1203C50.3997 36.1271 50.7774 35.9913 51.0728 35.7387C51.3682 35.4861 51.5609 35.1341 51.6145 34.7492L52.9972 24.6574C52.9972 24.6574 53.006 24.5398 53.0069 24.4803" fill="white"/>
<path d="M62.5325 28.0936C62.5485 27.4908 62.7255 26.9033 63.045 26.3919C63.3396 25.9468 63.7323 25.5751 64.193 25.3054C64.6793 25.024 65.2096 24.8265 65.7615 24.7213C66.3387 24.6057 66.9258 24.5473 67.5145 24.547C68.0562 24.5477 68.5973 24.5854 69.1338 24.6598C69.6529 24.727 70.1581 24.8758 70.6308 25.1007C71.0693 25.309 71.4497 25.6224 71.7381 26.013C72.0447 26.4694 72.1956 27.0126 72.1684 27.5617V33.079C72.1671 33.5381 72.1944 33.9968 72.2501 34.4525C72.2761 34.7969 72.3739 35.1321 72.5371 35.4364H69.5849C69.5301 35.2719 69.4856 35.1041 69.4518 34.9341C69.4173 34.7615 69.3933 34.5869 69.3802 34.4114C68.929 34.8817 68.364 35.2278 67.74 35.4161C67.1154 35.6068 66.4659 35.7036 65.8128 35.7031C65.335 35.7068 64.859 35.6448 64.3982 35.5187C63.9809 35.406 63.5904 35.2108 63.2497 34.9447C62.9193 34.6822 62.6559 34.345 62.4812 33.9608C62.2866 33.5151 62.1921 33.0323 62.2043 32.5461C62.1848 32.032 62.2941 31.5211 62.5223 31.0599C62.7181 30.6886 62.999 30.369 63.3421 30.1272C63.6919 29.8882 64.0802 29.7114 64.4901 29.6046C64.9188 29.4889 65.3534 29.3965 65.792 29.3277C66.2295 29.2593 66.6601 29.2046 67.0837 29.1637C67.4636 29.1299 67.8405 29.0683 68.2114 28.9793C68.4943 28.9184 68.7604 28.796 68.9906 28.6206C69.0876 28.5366 69.1627 28.43 69.2091 28.3103C69.2556 28.1907 69.2721 28.0614 69.2573 27.9339C69.2695 27.6754 69.2166 27.4179 69.1034 27.1852C69.0076 27.0077 68.866 26.8592 68.6934 26.7549C68.5106 26.6483 68.3087 26.5786 68.0991 26.5497C67.8587 26.5147 67.6161 26.4976 67.3732 26.4984C66.8934 26.4708 66.4176 26.6003 66.018 26.8672C65.8403 27.0196 65.6972 27.2082 65.5982 27.4204C65.4993 27.6325 65.4467 27.8634 65.444 28.0975L62.5325 28.0936ZM69.2573 30.2463C69.1226 30.3624 68.9657 30.4497 68.796 30.5028C68.6013 30.5668 68.4026 30.618 68.2012 30.6562C67.9892 30.6972 67.7671 30.7314 67.5348 30.7588C67.3025 30.7863 67.0702 30.8203 66.8379 30.8609C66.6194 30.902 66.4038 30.9568 66.1923 31.025C65.9939 31.0866 65.8069 31.1801 65.6386 31.3018C65.4808 31.4187 65.3512 31.5693 65.2592 31.7427C65.1555 31.9531 65.1056 32.1859 65.114 32.4203C65.1071 32.6476 65.157 32.8729 65.2592 33.0761C65.3495 33.2483 65.484 33.3934 65.6488 33.4967C65.8249 33.6039 66.0196 33.6769 66.2228 33.712C66.4462 33.7535 66.673 33.7741 66.9003 33.7735C67.3622 33.7994 67.8225 33.7002 68.2327 33.4865C68.5206 33.3217 68.7608 33.085 68.9301 32.7997C69.0745 32.5506 69.1686 32.2755 69.2069 31.9901C69.2368 31.7725 69.2539 31.5534 69.2582 31.3338L69.2573 30.2463Z" fill="black"/>
<path d="M73.9929 23.1939V20.7953H76.9045V23.1939H73.9929ZM76.9045 24.834V35.433H73.9929V24.834H76.9045Z" fill="black"/>
<path d="M81.5192 24.834V26.269H81.5603C81.9181 25.7449 82.3915 25.3099 82.944 24.9976C83.5132 24.6897 84.1525 24.5343 84.7995 24.5466C85.4324 24.538 86.0593 24.6703 86.6348 24.9337C87.2108 25.2186 87.6596 25.7085 87.8931 26.3072C88.2346 25.8164 88.6702 25.3982 89.1747 25.077C89.7465 24.7128 90.4139 24.5274 91.0917 24.5446C91.6181 24.5401 92.1426 24.609 92.6501 24.7493C93.104 24.8732 93.5244 25.0973 93.8803 25.4051C94.2371 25.7286 94.5111 26.1329 94.6794 26.5841C94.8839 27.1453 94.9814 27.7399 94.9668 28.337V35.4311H92.0553V29.4264C92.0553 29.0715 92.0417 28.7366 92.0146 28.4217C91.995 28.1361 91.9183 27.8573 91.7891 27.6019C91.6655 27.369 91.4772 27.1767 91.247 27.0482C90.9453 26.8977 90.61 26.8272 90.2733 26.8435C89.9264 26.8278 89.5821 26.9095 89.2792 27.0792C89.0319 27.2304 88.8272 27.4421 88.6844 27.6943C88.5362 27.961 88.4389 28.253 88.3974 28.5553C88.3494 28.8777 88.3254 29.2031 88.3258 29.5291V35.4335H85.4147V29.4879C85.4147 29.1733 85.4077 28.8625 85.3939 28.5553C85.3836 28.2638 85.3247 27.9761 85.2196 27.704C85.1188 27.4469 84.9394 27.2281 84.7071 27.0787C84.3847 26.9014 84.0183 26.8196 83.6511 26.843C83.4667 26.8507 83.2841 26.8818 83.1076 26.9354C82.8671 27.005 82.6437 27.1237 82.4513 27.2839C82.2167 27.4856 82.031 27.738 81.9083 28.022C81.7431 28.421 81.6662 28.8511 81.6828 29.2827V35.4335H78.7702V24.8345L81.5192 24.834Z" fill="black"/>
<path d="M102.573 24.834V26.7815H100.441V32.0302C100.389 32.2012 100.384 32.3831 100.428 32.5564C100.471 32.7298 100.561 32.8881 100.687 33.0145C100.813 33.1408 100.972 33.2305 101.145 33.2738C101.318 33.3171 101.5 33.3125 101.671 33.2605C101.835 33.2605 101.992 33.2537 102.143 33.2397C102.287 33.227 102.431 33.2065 102.573 33.1782V35.4335C102.302 35.477 102.028 35.5043 101.753 35.5153C101.452 35.5289 101.158 35.5358 100.871 35.5361C100.442 35.5376 100.014 35.5067 99.5897 35.4437C99.2155 35.3917 98.8543 35.2698 98.525 35.0846C98.2165 34.9051 97.9649 34.6422 97.799 34.3262C97.6052 33.9241 97.5138 33.4804 97.5329 33.0345V26.782H95.7639V24.8345H97.5275V21.6568H100.439V24.8345L102.573 24.834Z" fill="black"/>
<path d="M106.571 32.8902C107.05 33.2659 107.634 33.4859 108.242 33.5205C108.85 33.5551 109.455 33.4027 109.974 33.0838C110.332 32.8706 110.607 32.5415 110.753 32.1507H113.318C113.028 33.2526 112.36 34.2176 111.431 34.8774C110.508 35.4452 109.439 35.7304 108.355 35.6978C107.585 35.7093 106.82 35.5736 106.1 35.298C105.456 35.0488 104.875 34.6603 104.398 34.1602C103.923 33.6519 103.557 33.0519 103.322 32.3971C103.062 31.6739 102.934 30.9101 102.943 30.1418C102.935 29.3862 103.067 28.6358 103.33 27.9276C103.572 27.2686 103.948 26.6665 104.433 26.1586C104.918 25.6508 105.502 25.248 106.149 24.9754C106.846 24.6816 107.597 24.5352 108.353 24.5451C109.17 24.5256 109.979 24.705 110.711 25.0678C111.363 25.401 111.928 25.8816 112.361 26.4713C112.799 27.0746 113.116 27.757 113.294 28.4808C113.487 29.2509 113.556 30.0468 113.499 30.8387H105.852C105.821 31.5892 106.078 32.3232 106.571 32.8902ZM109.862 27.3134C109.653 27.1102 109.403 26.9538 109.129 26.8548C108.855 26.7558 108.563 26.7165 108.273 26.7394C107.873 26.7257 107.477 26.8064 107.115 26.9751C106.829 27.1144 106.578 27.3137 106.376 27.5593C106.199 27.7773 106.067 28.0281 105.987 28.2973C105.918 28.5242 105.873 28.7579 105.854 28.9943H110.589C110.507 28.378 110.255 27.7967 109.862 27.3149V27.3134Z" fill="black"/>
<path d="M119.774 26.7404C119.361 26.726 118.954 26.8368 118.605 27.0584C118.29 27.2705 118.027 27.5509 117.836 27.8787C117.635 28.2216 117.493 28.596 117.416 28.986C117.335 29.3806 117.294 29.7824 117.293 30.1853C117.294 30.5779 117.335 30.9694 117.416 31.3536C117.491 31.7316 117.626 32.0952 117.816 32.4305C117.998 32.7496 118.255 33.0202 118.564 33.2193C118.908 33.4326 119.307 33.5395 119.712 33.5267C120.006 33.5458 120.301 33.5037 120.578 33.4032C120.855 33.3026 121.108 33.1458 121.322 32.9425C121.718 32.5082 121.966 31.9587 122.029 31.374H124.836C124.728 32.6194 124.14 33.7741 123.195 34.5929C122.207 35.3596 120.98 35.7519 119.73 35.7002C118.983 35.7087 118.242 35.573 117.547 35.3004C116.91 35.0515 116.334 34.6707 115.855 34.1829C115.382 33.6911 115.012 33.1089 114.769 32.4711C114.503 31.774 114.372 31.0332 114.381 30.2874C114.374 29.511 114.496 28.7387 114.74 28.0016C114.962 27.327 115.322 26.7058 115.796 26.1771C116.269 25.6582 116.85 25.2487 117.498 24.9773C118.226 24.6791 119.007 24.5327 119.794 24.547C120.407 24.5448 121.018 24.6276 121.609 24.7929C122.169 24.9468 122.697 25.2003 123.167 25.5411C123.649 25.8878 124.046 26.3408 124.325 26.8652C124.604 27.3896 124.758 27.9712 124.777 28.565H121.927C121.911 28.3017 121.842 28.0444 121.724 27.8086C121.606 27.5727 121.441 27.3632 121.24 27.1927C121.039 27.0222 120.805 26.8942 120.553 26.8165C120.301 26.7387 120.036 26.7129 119.774 26.7404Z" fill="black"/>
</svg>
