<svg width="140" height="50" viewBox="0 0 140 50" fill="none" xmlns="http://www.w3.org/2000/svg">
<path d="M30.1439 14.3232C30.1439 14.3232 25.1643 14.3232 25.1643 19.3024V30.6965C25.1643 30.6965 25.1643 35.6761 30.1439 35.6761H41.5381C41.5381 35.6761 46.5177 35.6761 46.5177 30.6965V19.3024C46.5177 19.3024 46.5177 14.3232 41.5381 14.3232H30.1439Z" fill="#FF9100"/>
<path d="M43.0064 20.0506C43.0111 19.7746 42.9439 19.5022 42.8115 19.2601C42.6791 19.0179 42.4861 18.8143 42.2512 18.6693C42.0164 18.5243 41.7479 18.4428 41.4721 18.4329C41.1963 18.423 40.9227 18.4849 40.678 18.6127L28.4573 25.895C28.1885 26.0574 27.9737 26.2957 27.8402 26.58C27.7066 26.8642 27.6602 27.1816 27.7068 27.4922C27.7534 27.8027 27.8909 28.0926 28.102 28.3251C28.313 28.5576 28.5882 28.7225 28.8928 28.7989L39.5441 31.6156C39.6259 31.6378 39.6506 31.6441 39.7091 31.6572C39.8084 31.6785 39.9096 31.69 40.0111 31.6916C40.3997 31.6984 40.7774 31.5626 41.0728 31.31C41.3682 31.0574 41.5609 30.7054 41.6145 30.3205L42.9972 20.2287C42.9972 20.2287 43.006 20.1111 43.0069 20.0515" fill="white"/>
<path d="M52.5325 23.6649C52.5485 23.0621 52.7255 22.4746 53.045 21.9632C53.3396 21.5181 53.7323 21.1464 54.193 20.8767C54.6793 20.5953 55.2096 20.3978 55.7615 20.2926C56.3387 20.1769 56.9258 20.1186 57.5145 20.1183C58.0562 20.119 58.5973 20.1567 59.1338 20.2311C59.6529 20.2983 60.1581 20.4471 60.6308 20.672C61.0693 20.8803 61.4497 21.1937 61.7381 21.5843C62.0447 22.0407 62.1956 22.5839 62.1684 23.133V28.6503C62.1671 29.1094 62.1944 29.5681 62.2501 30.0238C62.2761 30.3682 62.3739 30.7034 62.5371 31.0077H59.5849C59.5301 30.8432 59.4856 30.6754 59.4518 30.5053C59.4173 30.3327 59.3933 30.1582 59.3802 29.9827C58.929 30.453 58.364 30.7991 57.74 30.9874C57.1154 31.1781 56.4659 31.2749 55.8128 31.2744C55.335 31.2781 54.859 31.2161 54.3982 31.09C53.9809 30.9773 53.5904 30.7821 53.2497 30.516C52.9193 30.2535 52.6559 29.9162 52.4812 29.5321C52.2866 29.0864 52.1921 28.6035 52.2043 28.1174C52.1848 27.6032 52.2941 27.0923 52.5223 26.6311C52.7181 26.2599 52.999 25.9403 53.3421 25.6985C53.6919 25.4595 54.0802 25.2827 54.4901 25.1758C54.9188 25.0602 55.3534 24.9678 55.792 24.899C56.2295 24.8306 56.6601 24.7759 57.0837 24.7349C57.4636 24.7012 57.8405 24.6396 58.2114 24.5505C58.4943 24.4897 58.7604 24.3673 58.9906 24.1919C59.0876 24.1078 59.1627 24.0013 59.2091 23.8816C59.2556 23.7619 59.2721 23.6327 59.2573 23.5052C59.2695 23.2466 59.2166 22.9892 59.1034 22.7565C59.0076 22.579 58.866 22.4305 58.6934 22.3262C58.5106 22.2196 58.3087 22.1499 58.0991 22.121C57.8587 22.086 57.6161 22.0689 57.3732 22.0697C56.8934 22.0421 56.4176 22.1715 56.018 22.4385C55.8403 22.5909 55.6972 22.7795 55.5982 22.9917C55.4993 23.2038 55.4467 23.4347 55.444 23.6688L52.5325 23.6649ZM59.2573 25.8176C59.1226 25.9337 58.9657 26.021 58.796 26.0741C58.6013 26.1381 58.4026 26.1893 58.2012 26.2275C57.9892 26.2685 57.7671 26.3027 57.5348 26.3301C57.3025 26.3575 57.0702 26.3916 56.8379 26.4322C56.6194 26.4733 56.4038 26.5281 56.1923 26.5963C55.9939 26.6579 55.8069 26.7514 55.6386 26.8731C55.4808 26.99 55.3512 27.1406 55.2592 27.314C55.1555 27.5244 55.1056 27.7572 55.114 27.9916C55.1071 28.2189 55.157 28.4442 55.2592 28.6474C55.3495 28.8196 55.484 28.9647 55.6488 29.0679C55.8249 29.1752 56.0196 29.2482 56.2228 29.2833C56.4462 29.3248 56.673 29.3454 56.9003 29.3448C57.3622 29.3707 57.8225 29.2715 58.2327 29.0578C58.5206 28.8929 58.7608 28.6563 58.9301 28.371C59.0745 28.1219 59.1686 27.8468 59.2069 27.5613C59.2368 27.3438 59.2539 27.1246 59.2582 26.9051L59.2573 25.8176Z" fill="black"/>
<path d="M63.9929 18.7651V16.3666H66.9045V18.7651H63.9929ZM66.9045 20.4053V31.0043H63.9929V20.4053H66.9045Z" fill="black"/>
<path d="M71.5192 20.4053V21.8403H71.5603C71.9181 21.3161 72.3915 20.8812 72.944 20.5689C73.5132 20.2609 74.1525 20.1056 74.7995 20.1178C75.4324 20.1093 76.0593 20.2416 76.6348 20.505C77.2108 20.7899 77.6596 21.2798 77.8931 21.8785C78.2346 21.3877 78.6702 20.9695 79.1747 20.6483C79.7465 20.2841 80.4139 20.0987 81.0917 20.1159C81.6181 20.1114 82.1426 20.1803 82.6501 20.3206C83.104 20.4445 83.5244 20.6686 83.8803 20.9764C84.2371 21.2999 84.5111 21.7042 84.6794 22.1554C84.8839 22.7166 84.9814 23.3112 84.9668 23.9083V31.0024H82.0553V24.9977C82.0553 24.6428 82.0417 24.3079 82.0146 23.993C81.995 23.7074 81.9183 23.4286 81.7891 23.1732C81.6655 22.9403 81.4772 22.748 81.247 22.6195C80.9453 22.469 80.61 22.3985 80.2733 22.4148C79.9264 22.3991 79.5821 22.4808 79.2792 22.6505C79.0319 22.8017 78.8272 23.0134 78.6844 23.2656C78.5362 23.5323 78.4389 23.8243 78.3974 24.1266C78.3494 24.4489 78.3254 24.7744 78.3258 25.1003V31.0048H75.4147V25.0592C75.4147 24.7446 75.4077 24.4338 75.3939 24.1266C75.3836 23.8351 75.3247 23.5474 75.2196 23.2753C75.1188 23.0182 74.9394 22.7994 74.7071 22.65C74.3847 22.4726 74.0183 22.3909 73.6511 22.4143C73.4667 22.422 73.2841 22.453 73.1076 22.5067C72.8671 22.5763 72.6437 22.695 72.4513 22.8552C72.2167 23.0569 72.031 23.3093 71.9083 23.5933C71.7431 23.9923 71.6662 24.4224 71.6828 24.854V31.0048H68.7702V20.4058L71.5192 20.4053Z" fill="black"/>
<path d="M92.5734 20.4053V22.3528H90.4411V27.6015C90.389 27.7725 90.3844 27.9543 90.4277 28.1277C90.4711 28.3011 90.5607 28.4594 90.6871 28.5858C90.8134 28.7121 90.9717 28.8018 91.1451 28.8451C91.3185 28.8884 91.5004 28.8838 91.6713 28.8318C91.8354 28.8318 91.9922 28.825 92.1427 28.811C92.2871 28.7983 92.4308 28.7778 92.573 28.7495V31.0048C92.3015 31.0483 92.0278 31.0756 91.7531 31.0866C91.4521 31.1001 91.1581 31.1071 90.8713 31.1074C90.4424 31.1089 90.014 31.078 89.5897 31.015C89.2155 30.9629 88.8543 30.8411 88.525 30.6559C88.2165 30.4764 87.9649 30.2135 87.799 29.8975C87.6052 29.4954 87.5138 29.0517 87.5329 28.6058V22.3533H85.7639V20.4058H87.5275V17.228H90.4386V20.4058L92.5734 20.4053Z" fill="black"/>
<path d="M96.5706 28.4615C97.0503 28.8372 97.6335 29.0572 98.2419 29.0918C98.8502 29.1264 99.4546 28.974 99.9739 28.6551C100.332 28.4419 100.607 28.1127 100.753 27.722H103.318C103.028 28.8239 102.36 29.7889 101.431 30.4487C100.508 31.0165 99.4386 31.3016 98.3555 31.2691C97.5851 31.2806 96.8196 31.1449 96.1001 30.8693C95.456 30.6201 94.8749 30.2316 94.3985 29.7315C93.9233 29.2232 93.5568 28.6232 93.3217 27.9684C93.062 27.2452 92.9336 26.4814 92.9427 25.7131C92.9354 24.9575 93.0667 24.2071 93.3299 23.4989C93.5724 22.8399 93.9478 22.2378 94.4328 21.7299C94.9177 21.222 95.5019 20.8193 96.149 20.5466C96.8462 20.2529 97.5966 20.1065 98.353 20.1164C99.1698 20.0969 99.979 20.2763 100.711 20.6391C101.363 20.9723 101.928 21.4528 102.361 22.0426C102.799 22.6459 103.116 23.3283 103.294 24.0521C103.487 24.8222 103.556 25.6181 103.499 26.41H95.8523C95.8209 27.1605 96.0779 27.8945 96.5706 28.4615ZM99.8616 22.8847C99.6529 22.6814 99.4031 22.5251 99.1291 22.4261C98.8551 22.3271 98.5631 22.2878 98.2727 22.3107C97.8735 22.297 97.4766 22.3777 97.1145 22.5464C96.8293 22.6857 96.5776 22.885 96.3765 23.1306C96.1994 23.3486 96.067 23.5994 95.9869 23.8686C95.9178 24.0955 95.8732 24.3292 95.8538 24.5656H100.589C100.507 23.9493 100.255 23.368 99.8616 22.8862V22.8847Z" fill="black"/>
<path d="M109.774 22.3117C109.361 22.2973 108.954 22.4081 108.605 22.6297C108.29 22.8418 108.027 23.1222 107.836 23.45C107.635 23.7929 107.493 24.1673 107.416 24.5573C107.335 24.9519 107.294 25.3537 107.293 25.7566C107.294 26.1492 107.335 26.5407 107.416 26.9249C107.491 27.3029 107.626 27.6665 107.816 28.0018C107.998 28.3209 108.255 28.5915 108.564 28.7906C108.908 29.0039 109.307 29.1108 109.712 29.098C110.006 29.1171 110.301 29.075 110.578 28.9745C110.855 28.8739 111.108 28.7171 111.322 28.5138C111.718 28.0795 111.966 27.53 112.029 26.9452H114.836C114.728 28.1907 114.14 29.3454 113.195 30.1641C112.207 30.9309 110.98 31.3232 109.73 31.2715C108.983 31.28 108.242 31.1443 107.547 30.8717C106.91 30.6228 106.334 30.242 105.855 29.7542C105.382 29.2624 105.012 28.6802 104.769 28.0424C104.503 27.3453 104.372 26.6045 104.381 25.8587C104.374 25.0823 104.496 24.31 104.74 23.5729C104.962 22.8983 105.322 22.2771 105.796 21.7483C106.269 21.2295 106.85 20.82 107.498 20.5486C108.226 20.2504 109.007 20.104 109.794 20.1183C110.407 20.1161 111.018 20.1989 111.609 20.3642C112.169 20.5181 112.697 20.7716 113.167 21.1124C113.649 21.459 114.046 21.9121 114.325 22.4365C114.604 22.9609 114.758 23.5425 114.777 24.1363H111.927C111.911 23.873 111.842 23.6157 111.724 23.3799C111.606 23.144 111.441 22.9345 111.24 22.764C111.039 22.5935 110.805 22.4655 110.553 22.3878C110.301 22.31 110.036 22.2842 109.774 22.3117Z" fill="black"/>
</svg>
