<svg width="428" height="96" viewBox="0 0 428 96" fill="none" xmlns="http://www.w3.org/2000/svg">
<path d="M20.3401 74.5852C20.3401 74.5852 2.77006 81.6452 5.63323e-05 93.9352V67.1652C-0.0299437 55.7452 11.9301 51.1352 17.8501 48.5452L82.4401 20.6952C82.4401 20.6952 98.5801 13.7052 102.78 2.1552V28.0852C102.78 38.8852 90.7501 43.9152 84.8301 46.5152L20.3401 74.5852Z" fill="#044472"/>
<path d="M136.14 22.4152C136.14 23.9552 135.88 25.2452 135.37 26.2852C134.86 27.3152 134.21 28.1552 133.43 28.8052C132.64 29.4552 131.76 29.9152 130.78 30.1952C129.8 30.4752 128.84 30.6052 127.91 30.6052H119.22V1.3152H127C127.85 1.3152 128.76 1.41519 129.73 1.62519C130.69 1.83519 131.58 2.20519 132.38 2.74519C133.18 3.28519 133.84 4.02519 134.37 4.97519C134.89 5.92519 135.16 7.16519 135.16 8.67519C135.16 10.4952 134.77 11.9252 134 12.9752C133.23 14.0252 132.33 14.7552 131.31 15.1652V15.2452C131.86 15.3852 132.42 15.6152 132.99 15.9452C133.55 16.2752 134.07 16.7352 134.54 17.3352C135.01 17.9252 135.39 18.6452 135.7 19.4852C135.98 20.3352 136.14 21.3152 136.14 22.4152ZM130.68 9.46519C130.68 8.71519 130.56 8.09519 130.33 7.58519C130.1 7.07519 129.79 6.6652 129.42 6.3452C129.05 6.0252 128.61 5.8052 128.12 5.6652C127.62 5.5252 127.11 5.45519 126.59 5.45519H123.86V13.6052H126.67C127.17 13.6052 127.66 13.5252 128.14 13.3752C128.62 13.2252 129.05 12.9852 129.42 12.6552C129.79 12.3252 130.1 11.8952 130.33 11.3752C130.56 10.8452 130.68 10.2152 130.68 9.46519ZM131.38 21.9952C131.38 21.1452 131.24 20.4152 130.97 19.8252C130.69 19.2352 130.34 18.7452 129.89 18.3752C129.45 18.0052 128.97 17.7352 128.44 17.5652C127.92 17.3952 127.39 17.3152 126.87 17.3152H123.85V26.4552H126.99C127.6 26.4552 128.16 26.3652 128.69 26.1852C129.21 26.0052 129.68 25.7352 130.08 25.3552C130.48 24.9852 130.8 24.5252 131.03 23.9652C131.26 23.4352 131.38 22.7752 131.38 21.9952Z" fill="#044472"/>
<path d="M153.38 30.6052L151.93 24.4052H144.21L142.72 30.6052H137.8L145.08 1.3252H151.41L158.57 30.6052H153.38ZM148.21 5.99519H148.04L144.86 20.5152H151.31L148.21 5.99519Z" fill="#044472"/>
<path d="M174.44 30.6052L166.13 9.92519H166.01L166.09 30.6052H161.62V1.3152H167.29L175.52 22.1152H175.64L175.6 1.3152H179.9V30.5952H174.44V30.6052Z" fill="#044472"/>
<path d="M194.57 30.6052C192.97 30.6052 191.53 30.2652 190.25 29.5952C188.97 28.9252 187.87 27.9452 186.96 26.6552C186.05 25.3752 185.35 23.8152 184.87 21.9852C184.39 20.1552 184.15 18.0752 184.15 15.7552C184.15 13.4952 184.4 11.4252 184.89 9.55519C185.39 7.68519 186.1 6.0852 187.02 4.7552C187.94 3.4352 189.06 2.40519 190.37 1.67519C191.68 0.945194 193.13 0.575195 194.73 0.575195C196.33 0.575195 197.78 0.945194 199.07 1.67519C200.37 2.40519 201.47 3.4352 202.38 4.7552C203.29 6.0752 203.99 7.65519 204.49 9.49519C204.99 11.3252 205.23 13.3452 205.23 15.5552C205.23 16.7152 205.13 17.8552 204.92 18.9852C204.71 20.1152 204.42 21.1652 204.05 22.1252C203.68 23.0952 203.25 23.9352 202.77 24.6452C202.29 25.3652 201.78 25.8952 201.26 26.2552V26.4252L206.47 26.3452V30.6052H194.57ZM200.16 15.7552C200.16 14.2952 200.04 12.9252 199.81 11.6652C199.58 10.3952 199.22 9.30519 198.76 8.37519C198.29 7.45519 197.72 6.7252 197.04 6.1852C196.36 5.6452 195.6 5.37519 194.74 5.37519C193.86 5.37519 193.08 5.6452 192.4 6.1852C191.72 6.7252 191.15 7.45519 190.68 8.37519C190.21 9.29519 189.86 10.3952 189.63 11.6652C189.4 12.9352 189.28 14.2952 189.28 15.7552C189.28 17.2152 189.4 18.5852 189.65 19.8552C189.9 21.1252 190.26 22.2152 190.73 23.1452C191.2 24.0652 191.77 24.7952 192.45 25.3352C193.13 25.8752 193.9 26.1452 194.79 26.1452C195.67 26.1452 196.45 25.8652 197.13 25.2952C197.81 24.7352 198.37 23.9752 198.83 23.0252C199.29 22.0752 199.62 20.9752 199.84 19.7152C200.05 18.4452 200.16 17.1352 200.16 15.7552Z" fill="#044472"/>
<path d="M228.12 20.2252C228.12 21.7652 227.95 23.2152 227.62 24.5652C227.29 25.9152 226.75 27.0952 226.01 28.1052C225.27 29.1152 224.31 29.9052 223.14 30.4852C221.97 31.0652 220.54 31.3552 218.86 31.3552C217.18 31.3552 215.76 31.0652 214.6 30.4852C213.44 29.9052 212.5 29.1152 211.77 28.1052C211.04 27.0952 210.51 25.9152 210.2 24.5652C209.88 23.2152 209.72 21.7652 209.72 20.2252V1.3252H214.64V19.7752C214.64 20.6852 214.7 21.5652 214.83 22.4052C214.95 23.2452 215.18 23.9852 215.49 24.6152C215.81 25.2552 216.25 25.7552 216.8 26.1252C217.35 26.4952 218.06 26.6852 218.92 26.6852C219.78 26.6852 220.49 26.4952 221.04 26.1252C221.59 25.7552 222.03 25.2552 222.35 24.6152C222.67 23.9852 222.89 23.2452 223.02 22.4052C223.14 21.5652 223.21 20.6852 223.21 19.7752V1.3152H228.13V20.2252H228.12Z" fill="#044472"/>
<path d="M233.62 30.6052V1.3152H246.73V5.74519H238.37V13.4752H246.11V17.5252H238.37V26.1652H247.14V30.5952H233.62V30.6052Z" fill="#044472"/>
<path d="M265.1 5.74519V13.7652H272.63V18.0252H265.14V30.5952H260.14V1.3152H273.25V5.74519H265.1Z" fill="#044472"/>
<path d="M289.5 30.6052L284.95 18.1152H282.18V30.6052H277.38V1.3152H285.74C286.95 1.3152 288.07 1.47519 289.09 1.79519C290.11 2.11519 290.99 2.61519 291.72 3.30519C292.45 3.99519 293.02 4.8652 293.44 5.9152C293.85 6.9652 294.06 8.21519 294.06 9.67519C294.06 10.8052 293.92 11.8052 293.63 12.6752C293.34 13.5452 292.98 14.2852 292.53 14.8852C292.09 15.4952 291.6 15.9852 291.06 16.3552C290.52 16.7252 289.99 16.9852 289.47 17.1252L294.72 30.6052H289.5ZM289.13 9.92519C289.13 9.04519 289.01 8.3152 288.76 7.7352C288.51 7.1552 288.19 6.70519 287.79 6.37519C287.39 6.04519 286.95 5.81519 286.45 5.67519C285.96 5.53519 285.46 5.46519 284.97 5.46519H282.17V14.4852H284.97C286.18 14.4852 287.17 14.1052 287.95 13.3452C288.74 12.5752 289.13 11.4352 289.13 9.92519Z" fill="#044472"/>
<path d="M311.72 30.6052L310.27 24.4052H302.55L301.05 30.6052H296.13L303.41 1.3252H309.74L316.9 30.6052H311.72ZM306.55 5.99519H306.38L303.2 20.5152H309.65L306.55 5.99519Z" fill="#044472"/>
<path d="M332.56 30.6052L324.25 9.92519H324.13L324.21 30.6052H319.74V1.3152H325.41L333.64 22.1152H333.76L333.72 1.3152H338.02V30.5952H332.56V30.6052Z" fill="#044472"/>
<path d="M359.51 27.4552C358.85 28.4252 358.03 29.2452 357.05 29.9152C356.07 30.5952 354.88 31.0252 353.47 31.2152L352.06 33.4052C352.39 33.3252 352.76 33.2852 353.18 33.2852C353.57 33.2852 353.96 33.3352 354.36 33.4552C354.76 33.5652 355.13 33.7452 355.46 33.9852C355.79 34.2352 356.06 34.5552 356.27 34.9552C356.48 35.3552 356.58 35.8352 356.58 36.4152C356.58 37.1552 356.41 37.7752 356.08 38.2652C355.75 38.7552 355.34 39.1452 354.84 39.4352C354.34 39.7252 353.79 39.9252 353.19 40.0352C352.58 40.1452 352.02 40.1952 351.49 40.1952C350.86 40.1952 350.16 40.1352 349.4 40.0052C348.64 39.8852 347.97 39.6652 347.39 39.3652L348.22 37.2952C348.66 37.5152 349.15 37.6852 349.69 37.7952C350.23 37.9052 350.73 37.9652 351.2 37.9652C351.42 37.9652 351.65 37.9352 351.9 37.8852C352.15 37.8252 352.38 37.7452 352.6 37.6152C352.82 37.4952 353 37.3352 353.14 37.1352C353.28 36.9452 353.35 36.6952 353.35 36.3952C353.35 35.9252 353.16 35.5852 352.79 35.3852C352.42 35.1752 351.98 35.0752 351.49 35.0752C351.21 35.0752 350.92 35.1052 350.6 35.1552C350.28 35.2152 350 35.2952 349.75 35.4052L348.76 34.4952L350.83 31.2652C349.34 31.0952 348 30.5952 346.82 29.7552C345.63 28.9152 344.63 27.8252 343.8 26.4852C342.97 25.1452 342.34 23.5852 341.9 21.7952C341.46 20.0052 341.24 18.0552 341.24 15.9652C341.24 13.7352 341.49 11.6752 342 9.78519C342.51 7.89519 343.23 6.26519 344.17 4.90519C345.11 3.53519 346.24 2.47519 347.58 1.72519C348.92 0.965195 350.4 0.585194 352.03 0.585194C353.71 0.585194 355.19 0.895194 356.46 1.51519C357.73 2.13519 358.76 3.0252 359.56 4.1852L356.71 7.65519C355.58 6.02519 354.12 5.21519 352.33 5.21519C351.34 5.21519 350.47 5.49519 349.72 6.06519C348.98 6.63519 348.36 7.3952 347.86 8.3652C347.36 9.3352 346.99 10.4652 346.74 11.7752C346.49 13.0852 346.37 14.4852 346.37 15.9752C346.37 17.4352 346.49 18.8252 346.74 20.1352C346.99 21.4452 347.36 22.5852 347.86 23.5452C348.36 24.5152 348.98 25.2752 349.74 25.8452C350.5 26.4152 351.39 26.6952 352.41 26.6952C353.37 26.6952 354.21 26.4452 354.91 25.9452C355.61 25.4452 356.2 24.8452 356.67 24.1252L359.51 27.4552Z" fill="#044472"/>
<path d="M376.52 30.6052L375.07 24.4052H367.35L365.85 30.6052H360.93L368.21 1.3252H374.54L381.7 30.6052H376.52ZM371.35 5.99519H371.18L368 20.5152H374.45L371.35 5.99519Z" fill="#044472"/>
<path d="M384.76 30.6052V1.3152H389.68V30.5952H384.76V30.6052Z" fill="#044472"/>
<path d="M407.17 6.94519C406.09 5.64519 404.74 5.0052 403.12 5.0052C402.65 5.0052 402.2 5.0852 401.75 5.2352C401.31 5.3852 400.91 5.63519 400.55 5.96519C400.19 6.29519 399.91 6.7252 399.7 7.2552C399.49 7.7852 399.39 8.40519 399.39 9.12519C399.39 10.3752 399.76 11.3352 400.51 12.0152C401.25 12.6952 402.23 13.3352 403.45 13.9452C404.17 14.3052 404.9 14.7152 405.64 15.1852C406.38 15.6552 407.06 16.2152 407.67 16.8852C408.28 17.5452 408.77 18.3352 409.16 19.2452C409.55 20.1552 409.74 21.2252 409.74 22.4752C409.74 23.9052 409.51 25.1752 409.06 26.2852C408.6 27.3852 408 28.3152 407.24 29.0752C406.48 29.8352 405.59 30.4052 404.57 30.7952C403.55 31.1852 402.47 31.3752 401.34 31.3752C399.71 31.3752 398.21 31.0552 396.83 30.4252C395.45 29.7952 394.35 28.9952 393.52 28.0252L396.21 24.3852C396.84 25.1552 397.61 25.7652 398.51 26.2052C399.41 26.6452 400.32 26.8652 401.26 26.8652C402.31 26.8652 403.18 26.5052 403.87 25.7852C404.56 25.0652 404.9 24.0652 404.9 22.7652C404.9 21.4952 404.49 20.4952 403.66 19.7452C402.83 18.9952 401.78 18.3152 400.52 17.6752C399.72 17.2852 398.97 16.8652 398.27 16.3952C397.57 15.9252 396.95 15.3652 396.41 14.7152C395.87 14.0652 395.44 13.3052 395.13 12.4452C394.81 11.5752 394.65 10.5352 394.65 9.3252C394.65 7.8052 394.89 6.5052 395.37 5.4152C395.85 4.3252 396.49 3.42519 397.27 2.70519C398.05 1.98519 398.94 1.45519 399.94 1.11519C400.93 0.775194 401.94 0.595194 402.96 0.595194C404.45 0.595194 405.78 0.835195 406.95 1.3152C408.12 1.7952 409.11 2.49519 409.91 3.42519L407.17 6.94519Z" fill="#044472"/>
<path d="M414.25 30.6052V1.3152H427.36V5.74519H419V13.4752H426.74V17.5252H419V26.1652H427.77V30.5952H414.25V30.6052Z" fill="#044472"/>
<path d="M139.32 71.9652L139.4 49.4652H139.28L133.41 71.9652H129.52L123.77 49.4652H123.65L123.73 71.9652H119.22V42.6852H125.88L131.51 64.1052H131.68L137.18 42.6852H144.17V71.9652H139.32Z" fill="#044472"/>
<path d="M166.77 61.5852C166.77 63.1252 166.6 64.5752 166.27 65.9252C165.94 67.2752 165.4 68.4552 164.66 69.4652C163.92 70.4752 162.96 71.2652 161.79 71.8452C160.62 72.4252 159.19 72.7152 157.51 72.7152C155.83 72.7152 154.41 72.4252 153.25 71.8452C152.09 71.2652 151.15 70.4752 150.42 69.4652C149.69 68.4552 149.16 67.2752 148.85 65.9252C148.53 64.5752 148.37 63.1252 148.37 61.5852V42.6852H153.29V61.1352C153.29 62.0452 153.35 62.9252 153.48 63.7652C153.6 64.6052 153.83 65.3452 154.15 65.9752C154.47 66.6152 154.9 67.1152 155.46 67.4852C156.01 67.8552 156.72 68.0452 157.58 68.0452C158.44 68.0452 159.15 67.8552 159.7 67.4852C160.25 67.1152 160.69 66.6152 161.01 65.9752C161.33 65.3452 161.55 64.6052 161.67 63.7652C161.79 62.9252 161.86 62.0452 161.86 61.1352V42.6852H166.78V61.5852H166.77Z" fill="#044472"/>
<path d="M179.84 46.8952V71.9652H174.92V46.8952H169.42V42.6752H185.34V46.8952H179.84Z" fill="#044472"/>
<path d="M206.36 61.5852C206.36 63.1252 206.19 64.5752 205.86 65.9252C205.53 67.2752 204.99 68.4552 204.25 69.4652C203.51 70.4752 202.55 71.2652 201.38 71.8452C200.21 72.4252 198.78 72.7152 197.1 72.7152C195.42 72.7152 194 72.4252 192.84 71.8452C191.68 71.2652 190.74 70.4752 190.01 69.4652C189.28 68.4552 188.75 67.2752 188.44 65.9252C188.12 64.5752 187.96 63.1252 187.96 61.5852V42.6852H192.88V61.1352C192.88 62.0452 192.94 62.9252 193.07 63.7652C193.19 64.6052 193.42 65.3452 193.74 65.9752C194.06 66.6152 194.49 67.1152 195.05 67.4852C195.6 67.8552 196.31 68.0452 197.17 68.0452C198.03 68.0452 198.74 67.8552 199.29 67.4852C199.84 67.1152 200.28 66.6152 200.6 65.9752C200.92 65.3452 201.14 64.6052 201.26 63.7652C201.38 62.9252 201.45 62.0452 201.45 61.1352V42.6852H206.37V61.5852H206.36Z" fill="#044472"/>
<path d="M223.89 71.9652L222.44 65.7652H214.72L213.22 71.9652H208.3L215.58 42.6852H221.91L229.07 71.9652H223.89ZM218.72 47.3552H218.55L215.37 61.8752H221.82L218.72 47.3552Z" fill="#044472"/>
<path d="M232.33 71.9652V42.6852H237.33V67.3752H245.4V71.9652H232.33Z" fill="#044472"/>
<path d="M249.05 71.9652V42.6852H253.97V71.9652H249.05Z" fill="#044472"/>
<path d="M271.46 48.3052C270.38 47.0052 269.03 46.3652 267.41 46.3652C266.94 46.3652 266.49 46.4452 266.04 46.5952C265.6 46.7452 265.2 46.9952 264.84 47.3252C264.48 47.6552 264.2 48.0852 263.99 48.6152C263.78 49.1452 263.68 49.7652 263.68 50.4852C263.68 51.7352 264.05 52.6952 264.8 53.3752C265.54 54.0552 266.52 54.6952 267.74 55.3052C268.46 55.6652 269.19 56.0752 269.93 56.5452C270.67 57.0152 271.35 57.5752 271.96 58.2452C272.57 58.9052 273.06 59.6952 273.45 60.6052C273.84 61.5152 274.03 62.5852 274.03 63.8352C274.03 65.2652 273.8 66.5352 273.35 67.6452C272.89 68.7452 272.29 69.6752 271.53 70.4352C270.77 71.1952 269.88 71.7652 268.86 72.1552C267.84 72.5452 266.76 72.7352 265.63 72.7352C264 72.7352 262.5 72.4152 261.12 71.7852C259.74 71.1552 258.64 70.3552 257.81 69.3852L260.5 65.7452C261.13 66.5152 261.9 67.1252 262.8 67.5652C263.7 68.0052 264.61 68.2252 265.55 68.2252C266.6 68.2252 267.47 67.8652 268.16 67.1452C268.85 66.4252 269.19 65.4252 269.19 64.1252C269.19 62.8552 268.78 61.8552 267.95 61.1052C267.12 60.3552 266.07 59.6752 264.81 59.0352C264.01 58.6452 263.26 58.2252 262.56 57.7552C261.86 57.2852 261.24 56.7252 260.7 56.0752C260.16 55.4252 259.73 54.6652 259.42 53.8052C259.1 52.9352 258.94 51.8952 258.94 50.6852C258.94 49.1652 259.18 47.8652 259.66 46.7752C260.14 45.6852 260.78 44.7852 261.56 44.0652C262.34 43.3452 263.23 42.8152 264.23 42.4752C265.22 42.1352 266.23 41.9552 267.25 41.9552C268.74 41.9552 270.07 42.1952 271.24 42.6752C272.41 43.1552 273.4 43.8552 274.2 44.7852L271.46 48.3052Z" fill="#044472"/>
<path d="M286.11 46.8952V71.9652H281.19V46.8952H275.69V42.6752H291.61V46.8952H286.11Z" fill="#044472"/>
<path d="M294.46 71.9652V42.6852H307.57V47.1152H299.21V54.8452H306.95V58.8952H299.21V67.5352H307.98V71.9652H294.46Z" fill="#044472"/>
<path d="M119.22 95.4152V84.0052H121.17V93.6252H124.31V95.4152H119.22Z" fill="#044472"/>
<path d="M130.52 95.4152L129.96 92.9952H126.96L126.38 95.4152H124.45L127.29 84.0052H129.76L132.55 95.4152H130.52ZM128.5 85.8252H128.44L127.2 91.4852H129.71L128.5 85.8252Z" fill="#044472"/>
<path d="M143.17 92.2252C143.17 92.8252 143.07 93.3252 142.87 93.7352C142.67 94.1352 142.42 94.4652 142.11 94.7152C141.8 94.9652 141.46 95.1452 141.08 95.2552C140.7 95.3652 140.32 95.4152 139.96 95.4152H136.58V84.0052H139.61C139.94 84.0052 140.3 84.0452 140.67 84.1252C141.05 84.2052 141.39 84.3552 141.7 84.5652C142.01 84.7752 142.27 85.0652 142.47 85.4352C142.67 85.8052 142.78 86.2852 142.78 86.8752C142.78 87.5852 142.63 88.1452 142.33 88.5552C142.03 88.9652 141.68 89.2452 141.28 89.4052V89.4352C141.49 89.4852 141.71 89.5852 141.93 89.7052C142.15 89.8252 142.35 90.0152 142.53 90.2452C142.71 90.4752 142.86 90.7552 142.98 91.0852C143.11 91.4252 143.17 91.7952 143.17 92.2252ZM141.04 87.1852C141.04 86.8952 140.99 86.6552 140.9 86.4552C140.81 86.2552 140.69 86.0952 140.55 85.9752C140.41 85.8552 140.24 85.7652 140.04 85.7052C139.85 85.6552 139.65 85.6252 139.44 85.6252H138.38V88.7952H139.48C139.67 88.7952 139.86 88.7652 140.05 88.7052C140.24 88.6452 140.4 88.5552 140.55 88.4252C140.7 88.2952 140.81 88.1252 140.9 87.9252C141 87.7252 141.04 87.4752 141.04 87.1852ZM141.32 92.0652C141.32 91.7352 141.27 91.4552 141.16 91.2152C141.05 90.9852 140.91 90.7952 140.74 90.6552C140.57 90.5152 140.38 90.4052 140.18 90.3452C139.98 90.2852 139.77 90.2452 139.57 90.2452H138.39V93.8052H139.61C139.85 93.8052 140.07 93.7752 140.27 93.7052C140.47 93.6352 140.65 93.5252 140.81 93.3852C140.97 93.2352 141.09 93.0652 141.18 92.8452C141.27 92.6252 141.32 92.3652 141.32 92.0652Z" fill="#044472"/>
<path d="M149.89 95.4152L149.33 92.9952H146.33L145.75 95.4152H143.82L146.66 84.0052H149.13L151.92 95.4152H149.89ZM147.88 85.8252H147.82L146.58 91.4852H149.09L147.88 85.8252Z" fill="#044472"/>
<path d="M158.09 95.4152L154.85 87.3552H154.8L154.83 95.4152H153.09V84.0052H155.3L158.51 92.1152H158.56L158.54 84.0052H160.22V95.4152H158.09Z" fill="#044472"/>
<path d="M166.1 95.4152C165.48 95.4152 164.91 95.2852 164.42 95.0152C163.92 94.7552 163.49 94.3752 163.14 93.8752C162.79 93.3752 162.51 92.7652 162.33 92.0552C162.14 91.3452 162.05 90.5352 162.05 89.6252C162.05 88.7452 162.15 87.9352 162.34 87.2052C162.53 86.4752 162.81 85.8552 163.17 85.3352C163.53 84.8152 163.97 84.4152 164.48 84.1352C164.99 83.8552 165.56 83.7052 166.18 83.7052C166.8 83.7052 167.37 83.8452 167.87 84.1352C168.37 84.4252 168.8 84.8252 169.16 85.3352C169.51 85.8552 169.79 86.4652 169.98 87.1852C170.17 87.8952 170.27 88.6852 170.27 89.5452C170.27 89.9952 170.23 90.4452 170.15 90.8852C170.07 91.3252 169.96 91.7352 169.81 92.1152C169.66 92.4952 169.5 92.8152 169.31 93.0952C169.12 93.3752 168.93 93.5852 168.72 93.7252V93.7852L170.75 93.7552V95.4152H166.1ZM168.28 89.6352C168.28 89.0652 168.23 88.5352 168.14 88.0352C168.05 87.5352 167.91 87.1152 167.73 86.7552C167.55 86.3952 167.32 86.1052 167.06 85.9052C166.8 85.6952 166.5 85.5952 166.17 85.5952C165.83 85.5952 165.52 85.6952 165.26 85.9052C165 86.1152 164.77 86.3952 164.59 86.7552C164.41 87.1152 164.27 87.5452 164.18 88.0352C164.09 88.5252 164.04 89.0652 164.04 89.6352C164.04 90.2052 164.09 90.7352 164.19 91.2352C164.29 91.7352 164.43 92.1552 164.61 92.5152C164.79 92.8752 165.02 93.1552 165.28 93.3652C165.54 93.5752 165.85 93.6752 166.19 93.6752C166.53 93.6752 166.84 93.5652 167.1 93.3452C167.36 93.1252 167.58 92.8252 167.76 92.4552C167.94 92.0852 168.07 91.6552 168.16 91.1652C168.24 90.6852 168.28 90.1752 168.28 89.6352Z" fill="#044472"/>
<path d="M178.98 93.0652C178.85 93.5952 178.64 94.0552 178.35 94.4452C178.06 94.8352 177.69 95.1452 177.23 95.3752C176.77 95.6052 176.22 95.7152 175.56 95.7152C174.9 95.7152 174.35 95.6052 173.9 95.3752C173.45 95.1452 173.08 94.8452 172.8 94.4452C172.52 94.0552 172.31 93.5952 172.19 93.0652C172.07 92.5352 172 91.9752 172 91.3752V84.0052H173.93V91.1952C173.93 91.5452 173.95 91.8952 174 92.2152C174.05 92.5352 174.13 92.8352 174.26 93.0752C174.39 93.3152 174.55 93.5152 174.77 93.6652C174.98 93.8152 175.26 93.8852 175.59 93.8852C175.92 93.8852 176.2 93.8152 176.41 93.6652C176.62 93.5152 176.79 93.3252 176.92 93.0752C177.05 92.8252 177.13 92.5452 177.18 92.2152C177.23 91.8852 177.25 91.5452 177.25 91.1952V84.0052H179.17V91.3752C179.18 91.9752 179.11 92.5452 178.98 93.0652Z" fill="#044472"/>
<path d="M181.32 95.4152V84.0052H186.43V85.7152H183.17V88.7452H186.18V90.3252H183.17V93.6952H186.59V95.4152H181.32Z" fill="#044472"/>
<path d="M198.82 89.7352C198.82 91.5452 198.44 92.9352 197.68 93.9352C196.92 94.9252 195.81 95.4252 194.34 95.4252H191.49V84.0152H194.36C195.82 84.0152 196.93 84.5152 197.69 85.5252C198.44 86.5252 198.82 87.9252 198.82 89.7352ZM196.89 89.7352C196.89 89.0552 196.83 88.4652 196.7 87.9652C196.57 87.4652 196.4 87.0452 196.18 86.7052C195.96 86.3652 195.69 86.1252 195.37 85.9552C195.06 85.7852 194.72 85.7052 194.35 85.7052H193.43V93.7352H194.35C194.72 93.7352 195.05 93.6552 195.37 93.4852C195.68 93.3152 195.95 93.0652 196.18 92.7352C196.41 92.4052 196.58 91.9852 196.7 91.4852C196.83 90.9752 196.89 90.3952 196.89 89.7352Z" fill="#044472"/>
<path d="M200.66 95.4152V84.0052H205.77V85.7152H202.51V88.7452H205.52V90.3252H202.51V93.6952H205.93V95.4152H200.66Z" fill="#044472"/>
<path d="M216.3 95.2952C215.83 95.5752 215.24 95.7152 214.54 95.7152C213.89 95.7152 213.31 95.5652 212.79 95.2652C212.27 94.9652 211.83 94.5452 211.47 94.0152C211.11 93.4852 210.83 92.8552 210.63 92.1252C210.43 91.3952 210.33 90.5952 210.33 89.7252C210.33 88.8552 210.43 88.0552 210.63 87.3152C210.83 86.5752 211.11 85.9452 211.48 85.4152C211.85 84.8852 212.29 84.4652 212.81 84.1752C213.33 83.8752 213.91 83.7352 214.54 83.7352C215.2 83.7352 215.77 83.8552 216.26 84.0952C216.75 84.3352 217.16 84.6852 217.47 85.1352L216.36 86.4852C215.92 85.8552 215.35 85.5352 214.65 85.5352C214.26 85.5352 213.92 85.6452 213.63 85.8652C213.34 86.0852 213.1 86.3852 212.9 86.7552C212.71 87.1352 212.56 87.5752 212.46 88.0852C212.36 88.5952 212.31 89.1452 212.31 89.7252C212.31 90.2952 212.36 90.8352 212.46 91.3452C212.56 91.8552 212.7 92.2952 212.9 92.6752C213.09 93.0552 213.34 93.3452 213.63 93.5652C213.93 93.7852 214.27 93.8952 214.67 93.8952C215.05 93.8952 215.37 93.7952 215.65 93.6052C215.93 93.4152 216.15 93.1752 216.34 92.8952L217.45 94.2052C217.15 94.6452 216.77 95.0152 216.3 95.2952Z" fill="#044472"/>
<path d="M224.16 95.4152V90.3552H220.74V95.4152H218.82V84.0052H220.74V88.6352H224.16V84.0052H226.08V95.4152H224.16Z" fill="#044472"/>
<path d="M233.35 95.4152L232.79 92.9952H229.79L229.21 95.4152H227.28L230.12 84.0052H232.59L235.38 95.4152H233.35ZM231.33 85.8252H231.27L230.03 91.4852H232.54L231.33 85.8252Z" fill="#044472"/>
<path d="M240.02 95.4152C239.4 95.4152 238.83 95.2852 238.34 95.0152C237.84 94.7552 237.41 94.3752 237.06 93.8752C236.71 93.3752 236.43 92.7652 236.25 92.0552C236.06 91.3452 235.97 90.5352 235.97 89.6252C235.97 88.7452 236.07 87.9352 236.26 87.2052C236.45 86.4752 236.73 85.8552 237.09 85.3352C237.45 84.8152 237.89 84.4152 238.4 84.1352C238.91 83.8552 239.48 83.7052 240.1 83.7052C240.72 83.7052 241.29 83.8452 241.79 84.1352C242.29 84.4252 242.72 84.8252 243.08 85.3352C243.43 85.8552 243.71 86.4652 243.9 87.1852C244.09 87.8952 244.19 88.6852 244.19 89.5452C244.19 89.9952 244.15 90.4452 244.07 90.8852C243.99 91.3252 243.88 91.7352 243.73 92.1152C243.58 92.4952 243.42 92.8152 243.23 93.0952C243.04 93.3752 242.85 93.5852 242.64 93.7252V93.7852L244.67 93.7552V95.4152H240.02ZM242.19 89.6352C242.19 89.0652 242.14 88.5352 242.05 88.0352C241.96 87.5352 241.82 87.1152 241.64 86.7552C241.46 86.3952 241.23 86.1052 240.97 85.9052C240.71 85.6952 240.41 85.5952 240.08 85.5952C239.74 85.5952 239.43 85.6952 239.17 85.9052C238.91 86.1152 238.68 86.3952 238.5 86.7552C238.32 87.1152 238.18 87.5452 238.09 88.0352C238 88.5252 237.95 89.0652 237.95 89.6352C237.95 90.2052 238 90.7352 238.1 91.2352C238.2 91.7352 238.34 92.1552 238.52 92.5152C238.7 92.8752 238.93 93.1552 239.19 93.3652C239.45 93.5752 239.76 93.6752 240.1 93.6752C240.44 93.6752 240.75 93.5652 241.01 93.3452C241.27 93.1252 241.49 92.8252 241.67 92.4552C241.85 92.0852 241.98 91.6552 242.07 91.1652C242.15 90.6852 242.19 90.1752 242.19 89.6352Z" fill="#044472"/>
<path d="M252.9 93.0652C252.77 93.5952 252.56 94.0552 252.27 94.4452C251.98 94.8352 251.61 95.1452 251.15 95.3752C250.69 95.6052 250.14 95.7152 249.48 95.7152C248.82 95.7152 248.27 95.6052 247.82 95.3752C247.37 95.1452 247 94.8452 246.72 94.4452C246.44 94.0552 246.23 93.5952 246.11 93.0652C245.99 92.5352 245.92 91.9752 245.92 91.3752V84.0052H247.85V91.1952C247.85 91.5452 247.87 91.8952 247.92 92.2152C247.97 92.5352 248.05 92.8352 248.18 93.0752C248.31 93.3152 248.47 93.5152 248.69 93.6652C248.9 93.8152 249.18 93.8852 249.51 93.8852C249.84 93.8852 250.12 93.8152 250.33 93.6652C250.54 93.5152 250.71 93.3252 250.84 93.0752C250.97 92.8252 251.05 92.5452 251.1 92.2152C251.15 91.8852 251.17 91.5452 251.17 91.1952V84.0052H253.09V91.3752C253.09 91.9752 253.03 92.5452 252.9 93.0652Z" fill="#044472"/>
<path d="M255.23 95.4152V84.0052H260.34V85.7152H257.08V88.7452H260.09V90.3252H257.08V93.6952H260.5V95.4152H255.23Z" fill="#044472"/>
<path d="M270.06 95.4152L269.5 92.9952H266.5L265.92 95.4152H263.99L266.83 84.0052H269.3L272.09 95.4152H270.06ZM268.05 85.8252H267.99L266.75 91.4852H269.26L268.05 85.8252Z" fill="#044472"/>
<path d="M278.72 95.4052C278.24 95.5752 277.67 95.6652 277 95.6652C276.32 95.6652 275.72 95.5252 275.18 95.2352C274.64 94.9552 274.19 94.5452 273.82 94.0152C273.45 93.4852 273.16 92.8652 272.97 92.1252C272.77 91.3952 272.67 90.5852 272.67 89.6952C272.67 88.8252 272.77 88.0252 272.96 87.2952C273.15 86.5652 273.43 85.9352 273.8 85.4052C274.17 84.8752 274.61 84.4552 275.12 84.1652C275.64 83.8652 276.22 83.7252 276.86 83.7252C277.54 83.7252 278.12 83.8452 278.62 84.0852C279.11 84.3252 279.52 84.6652 279.83 85.1052L278.72 86.4552C278.29 85.8352 277.71 85.5152 276.98 85.5152C276.58 85.5152 276.24 85.6252 275.94 85.8552C275.64 86.0852 275.4 86.3852 275.21 86.7652C275.02 87.1452 274.87 87.5852 274.77 88.0952C274.67 88.6052 274.62 89.1352 274.62 89.6952C274.62 90.2752 274.67 90.8252 274.77 91.3352C274.87 91.8452 275.01 92.2952 275.21 92.6752C275.41 93.0552 275.65 93.3552 275.94 93.5652C276.24 93.7752 276.59 93.8852 277 93.8852C277.26 93.8852 277.49 93.8552 277.7 93.7952C277.91 93.7352 278.08 93.6552 278.21 93.5652V90.6152H276.82V88.9352H279.96V94.7252C279.61 95.0052 279.2 95.2352 278.72 95.4052Z" fill="#044472"/>
<path d="M282.02 95.4152V84.0052H287.13V85.7152H283.87V88.7452H286.88V90.3252H283.87V93.6952H287.29V95.4152H282.02Z" fill="#044472"/>
<path d="M294.04 95.4152L290.8 87.3552H290.75L290.78 95.4152H289.04V84.0052H291.25L294.46 92.1152H294.51L294.49 84.0052H296.17V95.4152H294.04Z" fill="#044472"/>
<path d="M301.35 85.6552V95.4252H299.45V85.6552H297.31V84.0152H303.5V85.6552H301.35Z" fill="#044472"/>
<path d="M314.71 89.7352C314.71 91.5452 314.33 92.9352 313.57 93.9352C312.81 94.9252 311.7 95.4252 310.23 95.4252H307.38V84.0152H310.25C311.71 84.0152 312.82 84.5152 313.58 85.5252C314.33 86.5252 314.71 87.9252 314.71 89.7352ZM312.77 89.7352C312.77 89.0552 312.71 88.4652 312.58 87.9652C312.45 87.4652 312.28 87.0452 312.06 86.7052C311.84 86.3652 311.57 86.1252 311.25 85.9552C310.94 85.7852 310.6 85.7052 310.23 85.7052H309.31V93.7352H310.23C310.6 93.7352 310.93 93.6552 311.25 93.4852C311.56 93.3152 311.83 93.0652 312.06 92.7352C312.29 92.4052 312.46 91.9852 312.58 91.4852C312.71 90.9752 312.77 90.3952 312.77 89.7352Z" fill="#044472"/>
<path d="M323.35 93.0652C323.22 93.5952 323.01 94.0552 322.72 94.4452C322.43 94.8352 322.06 95.1452 321.6 95.3752C321.14 95.6052 320.59 95.7152 319.93 95.7152C319.27 95.7152 318.72 95.6052 318.27 95.3752C317.82 95.1452 317.45 94.8452 317.17 94.4452C316.89 94.0552 316.68 93.5952 316.56 93.0652C316.44 92.5352 316.37 91.9752 316.37 91.3752V84.0052H318.3V91.1952C318.3 91.5452 318.32 91.8952 318.37 92.2152C318.42 92.5352 318.5 92.8352 318.63 93.0752C318.76 93.3152 318.92 93.5152 319.14 93.6652C319.35 93.8152 319.63 93.8852 319.96 93.8852C320.29 93.8852 320.57 93.8152 320.78 93.6652C320.99 93.5152 321.16 93.3252 321.29 93.0752C321.42 92.8252 321.5 92.5452 321.55 92.2152C321.6 91.8852 321.62 91.5452 321.62 91.1952V84.0052H323.54V91.3752C323.54 91.9752 323.48 92.5452 323.35 93.0652Z" fill="#044472"/>
<path d="M333.31 86.2152C332.89 85.7152 332.36 85.4552 331.73 85.4552C331.55 85.4552 331.37 85.4852 331.2 85.5452C331.03 85.6052 330.87 85.6952 330.73 85.8252C330.59 85.9552 330.48 86.1252 330.4 86.3252C330.32 86.5252 330.28 86.7752 330.28 87.0552C330.28 87.5352 330.43 87.9152 330.72 88.1752C331.01 88.4352 331.39 88.6852 331.86 88.9252C332.14 89.0652 332.42 89.2252 332.71 89.4052C333 89.5852 333.26 89.8052 333.5 90.0652C333.74 90.3252 333.93 90.6252 334.08 90.9852C334.23 91.3352 334.31 91.7552 334.31 92.2452C334.31 92.8052 334.22 93.2952 334.04 93.7252C333.86 94.1552 333.63 94.5152 333.33 94.8152C333.03 95.1152 332.69 95.3352 332.29 95.4852C331.89 95.6352 331.47 95.7152 331.03 95.7152C330.4 95.7152 329.81 95.5952 329.27 95.3452C328.73 95.0952 328.3 94.7852 327.98 94.4052L329.03 92.9852C329.28 93.2852 329.57 93.5252 329.92 93.6952C330.27 93.8652 330.63 93.9552 330.99 93.9552C331.4 93.9552 331.74 93.8152 332.01 93.5352C332.28 93.2552 332.41 92.8652 332.41 92.3552C332.41 91.8652 332.25 91.4652 331.93 91.1752C331.61 90.8852 331.2 90.6152 330.71 90.3652C330.4 90.2152 330.11 90.0452 329.83 89.8652C329.55 89.6852 329.31 89.4652 329.1 89.2152C328.89 88.9652 328.72 88.6652 328.6 88.3252C328.48 87.9852 328.41 87.5852 328.41 87.1052C328.41 86.5152 328.5 86.0052 328.69 85.5852C328.88 85.1652 329.13 84.8052 329.43 84.5252C329.74 84.2452 330.08 84.0352 330.47 83.9052C330.86 83.7752 331.25 83.7052 331.65 83.7052C332.23 83.7052 332.75 83.7952 333.21 83.9852C333.67 84.1752 334.05 84.4452 334.36 84.8152L333.31 86.2152Z" fill="#044472"/>
<path d="M336.06 95.4152V84.0052H341.17V85.7152H337.91V88.7452H340.92V90.3252H337.91V93.6952H341.33V95.4152H336.06Z" fill="#044472"/>
<path d="M348.56 95.2952C348.09 95.5752 347.5 95.7152 346.8 95.7152C346.15 95.7152 345.57 95.5652 345.05 95.2652C344.53 94.9652 344.09 94.5452 343.73 94.0152C343.37 93.4852 343.09 92.8552 342.89 92.1252C342.69 91.3952 342.59 90.5952 342.59 89.7252C342.59 88.8552 342.69 88.0552 342.89 87.3152C343.09 86.5752 343.37 85.9452 343.74 85.4152C344.11 84.8852 344.55 84.4652 345.07 84.1752C345.59 83.8752 346.17 83.7352 346.8 83.7352C347.46 83.7352 348.03 83.8552 348.52 84.0952C349.01 84.3352 349.42 84.6852 349.73 85.1352L348.62 86.4852C348.18 85.8552 347.61 85.5352 346.91 85.5352C346.52 85.5352 346.18 85.6452 345.89 85.8652C345.6 86.0852 345.36 86.3852 345.16 86.7552C344.97 87.1352 344.82 87.5752 344.72 88.0852C344.62 88.5952 344.57 89.1452 344.57 89.7252C344.57 90.2952 344.62 90.8352 344.72 91.3452C344.82 91.8552 344.96 92.2952 345.16 92.6752C345.35 93.0552 345.6 93.3452 345.89 93.5652C346.19 93.7852 346.53 93.8952 346.93 93.8952C347.31 93.8952 347.63 93.7952 347.91 93.6052C348.19 93.4152 348.41 93.1752 348.6 92.8952L349.71 94.2052C349.41 94.6452 349.03 95.0152 348.56 95.2952Z" fill="#044472"/>
<path d="M353.84 85.6552V95.4252H351.94V85.6552H349.8V84.0152H355.99V85.6552H353.84Z" fill="#044472"/>
<path d="M357.11 95.4152V84.0052H362.22V85.7152H358.96V88.7452H361.97V90.3252H358.96V93.6952H362.38V95.4152H357.11Z" fill="#044472"/>
<path d="M370.94 93.0652C370.81 93.5952 370.6 94.0552 370.31 94.4452C370.02 94.8352 369.65 95.1452 369.19 95.3752C368.73 95.6052 368.18 95.7152 367.52 95.7152C366.86 95.7152 366.31 95.6052 365.86 95.3752C365.41 95.1452 365.04 94.8452 364.76 94.4452C364.48 94.0552 364.27 93.5952 364.15 93.0652C364.03 92.5352 363.96 91.9752 363.96 91.3752V84.0052H365.89V91.1952C365.89 91.5452 365.91 91.8952 365.96 92.2152C366.01 92.5352 366.09 92.8352 366.22 93.0752C366.35 93.3152 366.51 93.5152 366.73 93.6652C366.94 93.8152 367.22 93.8852 367.55 93.8852C367.88 93.8852 368.16 93.8152 368.37 93.6652C368.58 93.5152 368.75 93.3252 368.88 93.0752C369.01 92.8252 369.09 92.5452 369.14 92.2152C369.19 91.8852 369.21 91.5452 369.21 91.1952V84.0052H371.13V91.3752C371.13 91.9752 371.07 92.5452 370.94 93.0652Z" fill="#044472"/>
<path d="M378 95.4152L376.23 90.5452H375.15V95.4152H373.28V84.0052H376.54C377.01 84.0052 377.45 84.0652 377.85 84.1952C378.25 84.3252 378.59 84.5152 378.87 84.7852C379.15 85.0552 379.38 85.3952 379.54 85.8052C379.7 86.2152 379.78 86.7052 379.78 87.2752C379.78 87.7152 379.72 88.1052 379.61 88.4452C379.5 88.7852 379.35 89.0752 379.18 89.3052C379.01 89.5352 378.82 89.7352 378.61 89.8752C378.4 90.0152 378.19 90.1152 377.99 90.1752L380.04 95.4252H378V95.4152ZM377.87 87.3652C377.87 87.0252 377.82 86.7352 377.72 86.5152C377.62 86.2952 377.5 86.1152 377.34 85.9852C377.18 85.8552 377.01 85.7652 376.82 85.7152C376.63 85.6652 376.43 85.6352 376.24 85.6352H375.14V89.1452H376.24C376.71 89.1452 377.1 88.9952 377.41 88.7052C377.72 88.3952 377.87 87.9552 377.87 87.3652Z" fill="#044472"/>
<path d="M391.07 87.3752C391.07 87.9552 390.98 88.4652 390.8 88.8952C390.62 89.3352 390.39 89.6952 390.1 89.9852C389.81 90.2752 389.48 90.4952 389.1 90.6252C388.72 90.7652 388.34 90.8352 387.94 90.8352H386.59V95.4152H384.69V84.0052H387.85C388.22 84.0052 388.59 84.0552 388.98 84.1652C389.37 84.2752 389.71 84.4552 390.02 84.7252C390.33 84.9952 390.58 85.3352 390.78 85.7652C390.97 86.1952 391.07 86.7352 391.07 87.3752ZM389.23 87.3952C389.23 86.7852 389.08 86.3352 388.79 86.0552C388.5 85.7752 388.13 85.6352 387.68 85.6352H386.58V89.2652H387.68C388.13 89.2652 388.5 89.1052 388.79 88.7852C389.08 88.4652 389.23 88.0052 389.23 87.3952Z" fill="#044472"/>
<path d="M399.47 93.0652C399.34 93.5952 399.13 94.0552 398.84 94.4452C398.55 94.8352 398.18 95.1452 397.72 95.3752C397.26 95.6052 396.71 95.7152 396.05 95.7152C395.39 95.7152 394.84 95.6052 394.39 95.3752C393.94 95.1452 393.57 94.8452 393.29 94.4452C393.01 94.0552 392.8 93.5952 392.68 93.0652C392.56 92.5352 392.49 91.9752 392.49 91.3752V84.0052H394.42V91.1952C394.42 91.5452 394.44 91.8952 394.49 92.2152C394.54 92.5352 394.62 92.8352 394.75 93.0752C394.88 93.3152 395.04 93.5152 395.26 93.6652C395.47 93.8152 395.75 93.8852 396.08 93.8852C396.41 93.8852 396.69 93.8152 396.9 93.6652C397.11 93.5152 397.28 93.3252 397.41 93.0752C397.54 92.8252 397.62 92.5452 397.67 92.2152C397.72 91.8852 397.74 91.5452 397.74 91.1952V84.0052H399.66V91.3752C399.66 91.9752 399.6 92.5452 399.47 93.0652Z" fill="#044472"/>
<path d="M408.4 92.2252C408.4 92.8252 408.3 93.3252 408.1 93.7352C407.9 94.1352 407.65 94.4652 407.34 94.7152C407.03 94.9652 406.69 95.1452 406.31 95.2552C405.93 95.3652 405.55 95.4152 405.19 95.4152H401.81V84.0052H404.84C405.17 84.0052 405.53 84.0452 405.9 84.1252C406.28 84.2052 406.62 84.3552 406.93 84.5652C407.24 84.7752 407.5 85.0652 407.7 85.4352C407.9 85.8052 408.01 86.2852 408.01 86.8752C408.01 87.5852 407.86 88.1452 407.56 88.5552C407.26 88.9652 406.91 89.2452 406.51 89.4052V89.4352C406.72 89.4852 406.94 89.5852 407.16 89.7052C407.38 89.8252 407.58 90.0152 407.76 90.2452C407.94 90.4752 408.09 90.7552 408.21 91.0852C408.34 91.4252 408.4 91.7952 408.4 92.2252ZM406.27 87.1852C406.27 86.8952 406.22 86.6552 406.13 86.4552C406.04 86.2552 405.92 86.0952 405.78 85.9752C405.64 85.8552 405.47 85.7652 405.27 85.7052C405.08 85.6552 404.88 85.6252 404.67 85.6252H403.61V88.7952H404.71C404.9 88.7952 405.09 88.7652 405.28 88.7052C405.47 88.6452 405.63 88.5552 405.78 88.4252C405.93 88.2952 406.04 88.1252 406.13 87.9252C406.22 87.7252 406.27 87.4752 406.27 87.1852ZM406.54 92.0652C406.54 91.7352 406.49 91.4552 406.38 91.2152C406.27 90.9852 406.13 90.7952 405.96 90.6552C405.79 90.5152 405.6 90.4052 405.4 90.3452C405.2 90.2852 404.99 90.2452 404.79 90.2452H403.61V93.8052H404.83C405.07 93.8052 405.29 93.7752 405.49 93.7052C405.69 93.6352 405.87 93.5252 406.03 93.3852C406.19 93.2352 406.31 93.0652 406.4 92.8452C406.5 92.6252 406.54 92.3652 406.54 92.0652Z" fill="#044472"/>
<path d="M410.17 95.4152V84.0052H412.12V93.6252H415.26V95.4152H410.17Z" fill="#044472"/>
<path d="M416.52 95.4152V84.0052H418.45V95.4152H416.52Z" fill="#044472"/>
<path d="M426.25 95.2952C425.78 95.5752 425.19 95.7152 424.49 95.7152C423.84 95.7152 423.26 95.5652 422.74 95.2652C422.22 94.9652 421.78 94.5452 421.42 94.0152C421.06 93.4852 420.78 92.8552 420.58 92.1252C420.38 91.3952 420.28 90.5952 420.28 89.7252C420.28 88.8552 420.38 88.0552 420.58 87.3152C420.78 86.5752 421.06 85.9452 421.43 85.4152C421.8 84.8852 422.24 84.4652 422.76 84.1752C423.28 83.8752 423.86 83.7352 424.49 83.7352C425.15 83.7352 425.72 83.8552 426.21 84.0952C426.7 84.3352 427.11 84.6852 427.42 85.1352L426.31 86.4852C425.87 85.8552 425.3 85.5352 424.6 85.5352C424.21 85.5352 423.87 85.6452 423.58 85.8652C423.29 86.0852 423.05 86.3852 422.85 86.7552C422.66 87.1352 422.51 87.5752 422.41 88.0852C422.31 88.5952 422.26 89.1452 422.26 89.7252C422.26 90.2952 422.31 90.8352 422.41 91.3452C422.51 91.8552 422.65 92.2952 422.85 92.6752C423.04 93.0552 423.29 93.3452 423.58 93.5652C423.88 93.7852 424.22 93.8952 424.62 93.8952C425 93.8952 425.32 93.7952 425.6 93.6052C425.88 93.4152 426.1 93.1752 426.29 92.8952L427.4 94.2052C427.1 94.6452 426.71 95.0152 426.25 95.2952Z" fill="#044472"/>
</svg>
