<svg width="160" height="58" viewBox="0 0 160 58" fill="none" xmlns="http://www.w3.org/2000/svg">
<path d="M42.5888 30.7843H41.1285V38.3053H42.5888V30.7843Z" fill="#003C4C"/>
<path d="M86.244 33.5392L85.9171 32.9707H84.9799V38.2835H86.353V35.0477C86.353 34.3481 87.094 34.1295 87.9876 34.2388V32.8614C87.2466 32.8833 86.6145 33.2112 86.244 33.5392Z" fill="#003C4C"/>
<path d="M72.8402 30.675C72.4043 30.675 72.0337 31.0248 72.0337 31.4839C72.0337 31.9212 72.3825 32.2929 72.8402 32.2929C73.2978 32.2929 73.6466 31.9431 73.6466 31.4839C73.6466 31.0248 73.2761 30.675 72.8402 30.675Z" fill="#003C4C"/>
<path d="M73.5376 32.9685H72.1645V38.2813H73.5376V32.9685Z" fill="#003C4C"/>
<path d="M77.8094 30.675C77.3735 30.675 77.003 31.0248 77.003 31.4839C77.003 31.9212 77.3517 32.2929 77.8094 32.2929C78.2671 32.2929 78.6158 31.9431 78.6158 31.4839C78.6158 31.0248 78.2453 30.675 77.8094 30.675Z" fill="#003C4C"/>
<path d="M78.5068 32.9685H77.1337V38.2813H78.5068V32.9685Z" fill="#003C4C"/>
<path d="M76.044 30.7843H74.6709V38.3053H76.044V30.7843Z" fill="#003C4C"/>
<path d="M69.0696 32.9055C68.5248 32.9055 67.9581 33.1023 67.6747 33.3647V31.069C67.3696 31.2002 66.9991 31.2658 66.6068 31.2658C66.5196 31.2658 66.4106 31.2658 66.3235 31.2658V38.2839H67.3914L67.5876 37.781C67.8927 38.109 68.4812 38.3495 69.135 38.3495C70.4427 38.3495 71.4453 37.4312 71.4453 35.5947C71.4017 33.7582 70.3773 32.9055 69.0696 32.9055ZM68.7427 37.1251C68.2632 37.1251 67.9145 36.9065 67.653 36.5348V35.5073C67.653 34.5453 68.0017 34.0862 68.7645 34.0862C69.5273 34.0862 69.985 34.6327 69.985 35.6166C70.0068 36.4692 69.6363 37.1251 68.7427 37.1251Z" fill="#003C4C"/>
<path d="M48.1247 35.1364C48.1247 34.5461 48.3862 34.1089 49.0401 34.1089C49.6721 34.1089 49.9119 34.5243 49.9119 35.1802V38.2848H51.285V34.7866C51.285 33.6716 50.6093 32.9064 49.367 32.9064C48.8003 32.9064 48.1247 33.2343 47.7978 33.6497C47.4273 33.125 46.8824 32.9064 46.2068 32.9064C45.6401 32.9064 45.0734 33.2125 44.8337 33.5186L44.5285 32.972H43.5914V38.2848H44.9644V35.1364C44.9644 34.5461 45.2042 34.1089 45.858 34.1089C46.4901 34.1089 46.7734 34.5243 46.7734 35.1802V38.2848H48.1465L48.1247 35.1364Z" fill="#003C4C"/>
<path d="M56.6466 35.1364C56.6466 34.5461 56.9081 34.1089 57.5619 34.1089C58.194 34.1089 58.4337 34.5243 58.4337 35.1802V38.2848H59.8068V34.7866C59.8068 33.6716 59.1312 32.9064 57.8889 32.9064C57.3222 32.9064 56.6466 33.2343 56.3196 33.6497C55.9491 33.125 55.4043 32.9064 54.7286 32.9064C54.1619 32.9064 53.5953 33.2125 53.3555 33.5186L53.0504 32.972H52.1132V38.2848H53.4645V35.1364C53.4645 34.5461 53.7042 34.1089 54.3581 34.1089C54.9901 34.1089 55.2735 34.5243 55.2735 35.1802V38.2848H56.6466V35.1364Z" fill="#003C4C"/>
<path d="M84.0209 37.9354L83.7158 36.8641C83.7158 36.8641 83.062 37.1702 82.1902 37.1702C81.3402 37.1702 80.8389 36.8641 80.6863 36.1863H84.2171C84.2171 36.0552 84.2171 35.6835 84.2171 35.6179C84.2171 34.0656 83.3017 32.885 81.7761 32.885C80.3376 32.885 79.1825 33.8907 79.1825 35.6179C79.1825 37.3451 80.3594 38.3508 82.1684 38.3508C83.2799 38.3508 84.0209 37.9354 84.0209 37.9354ZM81.7543 34.0437C82.3645 34.0437 82.7568 34.4154 82.7786 35.2243H80.6427C80.7517 34.4154 81.1658 34.0437 81.7543 34.0437Z" fill="#003C4C"/>
<path d="M63.0542 32.9064C61.594 32.9064 60.3952 33.9121 60.3952 35.6393C60.3952 37.3665 61.594 38.3722 63.0542 38.3722C64.5145 38.3722 65.7132 37.3665 65.7132 35.6393C65.7132 33.9121 64.5145 32.9064 63.0542 32.9064ZM63.0542 37.2135C62.4004 37.2135 61.7901 36.7106 61.7901 35.6393C61.7901 34.568 62.4004 34.0651 63.0542 34.0651C63.7081 34.0651 64.3183 34.568 64.3183 35.6393C64.2965 36.7106 63.7081 37.2135 63.0542 37.2135Z" fill="#003C4C"/>
<path d="M50.0427 23.3962C48.5824 23.3962 47.3837 24.4019 47.3837 26.1291C47.3837 27.8563 48.5824 28.862 50.0427 28.862C51.5029 28.862 52.7016 27.8563 52.7016 26.1291C52.7016 24.4019 51.5029 23.3962 50.0427 23.3962ZM50.0427 27.7032C49.3888 27.7032 48.7786 27.2004 48.7786 26.1291C48.7786 25.0578 49.3888 24.5549 50.0427 24.5549C50.6965 24.5549 51.3068 25.0578 51.3068 26.1291C51.285 27.2004 50.6965 27.7032 50.0427 27.7032Z" fill="#003C4C"/>
<path d="M62.2478 28.6437L63.8824 23.484H62.444L61.4196 27.0914L60.0465 23.484H58.5427L60.7222 28.8842C60.4606 29.7587 59.4145 29.6713 58.5863 29.2777V30.5239C60.1119 30.9831 61.594 30.7863 62.2478 28.6437Z" fill="#003C4C"/>
<path d="M66.1273 28.8401C66.7593 28.8401 67.217 28.5996 67.544 28.2717C67.4786 29.3211 66.9991 29.6053 66.1927 29.6053C65.2555 29.6053 64.6234 29.2555 64.6234 29.2555V30.5017C64.6234 30.5017 65.4517 30.7859 66.4106 30.7859C68.0017 30.7859 68.9388 29.6928 68.9388 28.2935V23.4836H67.8491L67.7183 23.9428C67.4132 23.6585 66.8683 23.3962 66.3452 23.3962C64.2093 23.3962 63.9042 25.3639 63.9042 26.0854C63.8824 27.9437 64.8196 28.8401 66.1273 28.8401ZM66.4106 24.5549C67.1734 24.5549 67.5222 25.0141 67.5222 25.9979V27.0473C67.3478 27.419 66.9555 27.6376 66.4324 27.6376C65.5606 27.6376 65.2773 26.9817 65.2773 26.1072C65.2773 25.0359 65.7568 24.5549 66.4106 24.5549Z" fill="#003C4C"/>
<path d="M82.0158 24.8615C82.0376 24.6866 82.1466 24.5772 82.6479 24.5772C83.5414 24.5772 84.435 24.9052 84.435 24.9052L84.7838 23.7246C84.7838 23.7246 83.8248 23.3748 82.8658 23.3748C81.4273 23.3748 80.6209 23.8995 80.6209 25.0582C80.6209 25.8453 81.0568 26.2826 82.212 26.6105C83.1491 26.8729 83.4979 26.9603 83.4979 27.2664C83.4979 27.5288 83.2799 27.66 82.7568 27.66C81.7325 27.66 80.8607 27.2446 80.8607 27.2446L80.4684 28.3814C80.4684 28.3814 81.3402 28.8187 82.5825 28.8187C84.0645 28.8187 84.9581 28.2503 84.9581 27.0915C84.9581 26.1733 84.2607 25.7579 83.5632 25.5611C82.3645 25.255 81.994 25.1675 82.0158 24.8615Z" fill="#003C4C"/>
<path d="M79.8581 28.4466L79.553 27.3753C79.553 27.3753 78.8991 27.6814 78.0273 27.6814C77.1773 27.6814 76.6761 27.3753 76.5235 26.6975H80.0543C80.0543 26.5663 80.0543 26.1947 80.0543 26.1291C80.0543 24.5768 79.1389 23.3962 77.6132 23.3962C76.1748 23.3962 75.0196 24.4019 75.0196 26.1291C75.0196 27.8563 76.1966 28.862 78.0055 28.862C79.1171 28.862 79.8581 28.4466 79.8581 28.4466ZM77.5914 24.5331C78.2017 24.5331 78.594 24.9047 78.6158 25.7137H76.4799C76.5889 24.9047 77.003 24.5331 77.5914 24.5331Z" fill="#003C4C"/>
<path d="M46.8606 26.6961C46.8606 25.2968 45.7491 24.9033 45.7491 24.9033C46.0978 24.6847 46.6427 24.2255 46.6427 23.1761C46.6427 22.1485 45.7927 21.274 44.267 21.274H41.1285V28.7949H44.1798C45.8144 28.7949 46.8606 28.0516 46.8606 26.6961ZM44.0491 22.5421C44.7247 22.5421 45.1606 22.8481 45.1606 23.4384C45.1606 24.0288 44.7247 24.3348 44.0491 24.3348C43.6785 24.3348 43.0247 24.3348 42.5888 24.3348V22.5421H44.0491ZM42.5888 27.5706V25.5592H43.9183C44.7901 25.5592 45.3568 25.909 45.3568 26.5649C45.3568 27.2208 44.8555 27.5706 43.9183 27.5706H42.5888Z" fill="#003C4C"/>
<path d="M54.685 26.6104V23.484H53.3119V26.7197C53.3119 28.2502 54.0965 28.8623 55.2953 28.8623C55.9055 28.8623 56.4504 28.6 56.7991 28.272L57.1042 28.7967H58.0414V23.484H56.6683V26.676C56.6683 27.2663 56.4068 27.7036 55.6658 27.7036C54.9465 27.6817 54.685 27.2663 54.685 26.6104Z" fill="#003C4C"/>
<path d="M71.0966 26.6104V23.484H69.7235V26.7197C69.7235 28.2502 70.5081 28.8623 71.7068 28.8623C72.3171 28.8623 72.862 28.6 73.2107 28.272L73.5158 28.7967H74.453V23.484H73.0799V26.676C73.0799 27.2663 72.8184 27.7036 72.0774 27.7036C71.3581 27.6817 71.0966 27.2663 71.0966 26.6104Z" fill="#003C4C"/>
<path d="M99.1902 21.2741H91.0171V38.2836H99.1902V21.2741Z" fill="#003C4C"/>
<path d="M113.836 27.9643C115.602 26.9149 116.997 24.8378 116.975 22.5641C116.931 18.738 113.553 16.0488 107.32 16.0488C102.939 16.0488 99.212 16.8578 99.212 16.8578V21.2523H107.908V38.2837H99.212V42.6127C99.212 42.6127 102.961 43.2904 107.843 43.2904C114.926 43.2904 118.675 39.7049 118.827 35.1354C118.915 31.681 116.757 29.1668 113.836 27.9643Z" fill="#003C4C"/>
<path d="M91.0271 21.2352H99.1971V38.2667H91.0271V21.2352Z" fill="#75BE00"/>
</svg>
