<svg width="140" height="50" viewBox="0 0 140 50" fill="none" xmlns="http://www.w3.org/2000/svg">
<path d="M32.5888 26.213H31.1285V33.734H32.5888V26.213Z" fill="#003C4C"/>
<path d="M76.244 28.9679L75.9171 28.3995H74.9799V33.7122H76.353V30.4765C76.353 29.7768 77.094 29.5582 77.9876 29.6675V28.2901C77.2466 28.312 76.6145 28.6399 76.244 28.9679Z" fill="#003C4C"/>
<path d="M62.8402 26.1037C62.4043 26.1037 62.0337 26.4535 62.0337 26.9126C62.0337 27.3499 62.3825 27.7216 62.8402 27.7216C63.2978 27.7216 63.6466 27.3718 63.6466 26.9126C63.6466 26.4535 63.2761 26.1037 62.8402 26.1037Z" fill="#003C4C"/>
<path d="M63.5376 28.3972H62.1645V33.71H63.5376V28.3972Z" fill="#003C4C"/>
<path d="M67.8094 26.1037C67.3735 26.1037 67.003 26.4535 67.003 26.9126C67.003 27.3499 67.3517 27.7216 67.8094 27.7216C68.2671 27.7216 68.6158 27.3718 68.6158 26.9126C68.6158 26.4535 68.2453 26.1037 67.8094 26.1037Z" fill="#003C4C"/>
<path d="M68.5068 28.3972H67.1337V33.71H68.5068V28.3972Z" fill="#003C4C"/>
<path d="M66.044 26.213H64.6709V33.734H66.044V26.213Z" fill="#003C4C"/>
<path d="M59.0696 28.3342C58.5248 28.3342 57.9581 28.531 57.6747 28.7934V26.4977C57.3696 26.6289 56.9991 26.6945 56.6068 26.6945C56.5196 26.6945 56.4106 26.6945 56.3235 26.6945V33.7126H57.3914L57.5876 33.2097C57.8927 33.5377 58.4812 33.7782 59.135 33.7782C60.4427 33.7782 61.4453 32.8599 61.4453 31.0234C61.4017 29.1869 60.3773 28.3342 59.0696 28.3342ZM58.7427 32.5539C58.2632 32.5539 57.9145 32.3352 57.653 31.9635V30.936C57.653 29.974 58.0017 29.5149 58.7645 29.5149C59.5273 29.5149 59.985 30.0614 59.985 31.0453C60.0068 31.898 59.6363 32.5539 58.7427 32.5539Z" fill="#003C4C"/>
<path d="M38.1247 30.5652C38.1247 29.9748 38.3862 29.5376 39.0401 29.5376C39.6721 29.5376 39.9119 29.953 39.9119 30.6089V33.7135H41.285V30.2153C41.285 29.1003 40.6093 28.3351 39.367 28.3351C38.8003 28.3351 38.1247 28.6631 37.7978 29.0785C37.4273 28.5537 36.8824 28.3351 36.2068 28.3351C35.6401 28.3351 35.0734 28.6412 34.8337 28.9473L34.5285 28.4007H33.5914V33.7135H34.9644V30.5652C34.9644 29.9748 35.2042 29.5376 35.858 29.5376C36.4901 29.5376 36.7734 29.953 36.7734 30.6089V33.7135H38.1465L38.1247 30.5652Z" fill="#003C4C"/>
<path d="M46.6466 30.5652C46.6466 29.9748 46.9081 29.5376 47.5619 29.5376C48.194 29.5376 48.4337 29.953 48.4337 30.6089V33.7135H49.8068V30.2153C49.8068 29.1003 49.1312 28.3351 47.8889 28.3351C47.3222 28.3351 46.6466 28.6631 46.3196 29.0785C45.9491 28.5537 45.4043 28.3351 44.7286 28.3351C44.1619 28.3351 43.5953 28.6412 43.3555 28.9473L43.0504 28.4007H42.1132V33.7135H43.4645V30.5652C43.4645 29.9748 43.7042 29.5376 44.3581 29.5376C44.9901 29.5376 45.2735 29.953 45.2735 30.6089V33.7135H46.6466V30.5652Z" fill="#003C4C"/>
<path d="M74.0209 33.3641L73.7158 32.2928C73.7158 32.2928 73.062 32.5989 72.1902 32.5989C71.3402 32.5989 70.8389 32.2928 70.6863 31.615H74.2171C74.2171 31.4839 74.2171 31.1122 74.2171 31.0466C74.2171 29.4943 73.3017 28.3137 71.7761 28.3137C70.3376 28.3137 69.1825 29.3194 69.1825 31.0466C69.1825 32.7738 70.3594 33.7795 72.1684 33.7795C73.2799 33.7795 74.0209 33.3641 74.0209 33.3641ZM71.7543 29.4724C72.3645 29.4724 72.7568 29.8441 72.7786 30.6531H70.6427C70.7517 29.8441 71.1658 29.4724 71.7543 29.4724Z" fill="#003C4C"/>
<path d="M53.0542 28.3351C51.594 28.3351 50.3952 29.3408 50.3952 31.068C50.3952 32.7952 51.594 33.8009 53.0542 33.8009C54.5145 33.8009 55.7132 32.7952 55.7132 31.068C55.7132 29.3408 54.5145 28.3351 53.0542 28.3351ZM53.0542 32.6422C52.4004 32.6422 51.7901 32.1393 51.7901 31.068C51.7901 29.9967 52.4004 29.4939 53.0542 29.4939C53.7081 29.4939 54.3183 29.9967 54.3183 31.068C54.2965 32.1393 53.7081 32.6422 53.0542 32.6422Z" fill="#003C4C"/>
<path d="M40.0427 18.8249C38.5824 18.8249 37.3837 19.8306 37.3837 21.5578C37.3837 23.285 38.5824 24.2907 40.0427 24.2907C41.5029 24.2907 42.7016 23.285 42.7016 21.5578C42.7016 19.8306 41.5029 18.8249 40.0427 18.8249ZM40.0427 23.1319C39.3888 23.1319 38.7786 22.6291 38.7786 21.5578C38.7786 20.4865 39.3888 19.9836 40.0427 19.9836C40.6965 19.9836 41.3068 20.4865 41.3068 21.5578C41.285 22.6291 40.6965 23.1319 40.0427 23.1319Z" fill="#003C4C"/>
<path d="M52.2478 24.0724L53.8824 18.9127H52.444L51.4196 22.5201L50.0465 18.9127H48.5427L50.7222 24.3129C50.4606 25.1874 49.4145 25.1 48.5863 24.7064V25.9526C50.1119 26.4118 51.594 26.215 52.2478 24.0724Z" fill="#003C4C"/>
<path d="M56.1273 24.2688C56.7593 24.2688 57.217 24.0283 57.544 23.7004C57.4786 24.7498 56.9991 25.034 56.1927 25.034C55.2555 25.034 54.6234 24.6842 54.6234 24.6842V25.9304C54.6234 25.9304 55.4517 26.2147 56.4106 26.2147C58.0017 26.2147 58.9388 25.1215 58.9388 23.7223V18.9123H57.8491L57.7183 19.3715C57.4132 19.0872 56.8683 18.8249 56.3452 18.8249C54.2093 18.8249 53.9042 20.7926 53.9042 21.5141C53.8824 23.3724 54.8196 24.2688 56.1273 24.2688ZM56.4106 19.9836C57.1734 19.9836 57.5222 20.4428 57.5222 21.4266V22.476C57.3478 22.8477 56.9555 23.0664 56.4324 23.0664C55.5606 23.0664 55.2773 22.4105 55.2773 21.5359C55.2773 20.4646 55.7568 19.9836 56.4106 19.9836Z" fill="#003C4C"/>
<path d="M72.0158 20.2902C72.0376 20.1153 72.1466 20.0059 72.6479 20.0059C73.5414 20.0059 74.435 20.3339 74.435 20.3339L74.7838 19.1533C74.7838 19.1533 73.8248 18.8035 72.8658 18.8035C71.4273 18.8035 70.6209 19.3282 70.6209 20.4869C70.6209 21.274 71.0568 21.7113 72.212 22.0392C73.1491 22.3016 73.4979 22.389 73.4979 22.6951C73.4979 22.9575 73.2799 23.0887 72.7568 23.0887C71.7325 23.0887 70.8607 22.6733 70.8607 22.6733L70.4684 23.8102C70.4684 23.8102 71.3402 24.2474 72.5825 24.2474C74.0645 24.2474 74.9581 23.679 74.9581 22.5202C74.9581 21.602 74.2607 21.1866 73.5632 20.9898C72.3645 20.6837 71.994 20.5963 72.0158 20.2902Z" fill="#003C4C"/>
<path d="M69.8581 23.8753L69.553 22.804C69.553 22.804 68.8991 23.1101 68.0273 23.1101C67.1773 23.1101 66.6761 22.804 66.5235 22.1262H70.0543C70.0543 21.9951 70.0543 21.6234 70.0543 21.5578C70.0543 20.0055 69.1389 18.8249 67.6132 18.8249C66.1748 18.8249 65.0196 19.8306 65.0196 21.5578C65.0196 23.285 66.1966 24.2907 68.0055 24.2907C69.1171 24.2907 69.8581 23.8753 69.8581 23.8753ZM67.5914 19.9618C68.2017 19.9618 68.594 20.3334 68.6158 21.1424H66.4799C66.5889 20.3334 67.003 19.9618 67.5914 19.9618Z" fill="#003C4C"/>
<path d="M36.8606 22.1248C36.8606 20.7255 35.7491 20.332 35.7491 20.332C36.0978 20.1134 36.6427 19.6542 36.6427 18.6048C36.6427 17.5772 35.7927 16.7027 34.267 16.7027H31.1285V24.2237H34.1798C35.8144 24.2237 36.8606 23.4803 36.8606 22.1248ZM34.0491 17.9708C34.7247 17.9708 35.1606 18.2769 35.1606 18.8672C35.1606 19.4575 34.7247 19.7636 34.0491 19.7636C33.6785 19.7636 33.0247 19.7636 32.5888 19.7636V17.9708H34.0491ZM32.5888 22.9993V20.9879H33.9183C34.7901 20.9879 35.3568 21.3377 35.3568 21.9936C35.3568 22.6495 34.8555 22.9993 33.9183 22.9993H32.5888Z" fill="#003C4C"/>
<path d="M44.685 22.0391V18.9127H43.3119V22.1484C43.3119 23.6789 44.0965 24.291 45.2953 24.291C45.9055 24.291 46.4504 24.0287 46.7991 23.7007L47.1042 24.2255H48.0414V18.9127H46.6683V22.1047C46.6683 22.695 46.4068 23.1323 45.6658 23.1323C44.9465 23.1104 44.685 22.695 44.685 22.0391Z" fill="#003C4C"/>
<path d="M61.0966 22.0391V18.9127H59.7235V22.1484C59.7235 23.6789 60.5081 24.291 61.7068 24.291C62.3171 24.291 62.862 24.0287 63.2107 23.7007L63.5158 24.2255H64.453V18.9127H63.0799V22.1047C63.0799 22.695 62.8184 23.1323 62.0774 23.1323C61.3581 23.1104 61.0966 22.695 61.0966 22.0391Z" fill="#003C4C"/>
<path d="M89.1902 16.7028H81.0171V33.7124H89.1902V16.7028Z" fill="#003C4C"/>
<path d="M103.836 23.393C105.602 22.3436 106.997 20.2666 106.975 17.9928C106.931 14.1667 103.553 11.4775 97.3197 11.4775C92.9389 11.4775 89.212 12.2865 89.212 12.2865V16.681H97.9081V33.7125H89.212V38.0414C89.212 38.0414 92.9607 38.7191 97.8428 38.7191C104.926 38.7191 108.675 35.1336 108.827 30.5641C108.915 27.1098 106.757 24.5955 103.836 23.393Z" fill="#003C4C"/>
<path d="M81.0271 16.6639H89.1971V33.6954H81.0271V16.6639Z" fill="#75BE00"/>
</svg>
