<svg width="140" height="50" viewBox="0 0 140 50" fill="none" xmlns="http://www.w3.org/2000/svg">
<path d="M38.1591 29.5973C37.6764 29.9197 36.9357 30.1693 36.0976 30.1859C35.2743 30.2074 34.5601 29.9528 34.084 29.5031C33.4459 28.8964 33.1186 27.8499 33.1186 26.4067C33.1186 24.9999 33.5203 22.6259 36.1505 22.4424C36.5076 22.416 37.4648 22.3416 38.1591 22.3234V29.5973ZM38.1591 16.5273V19.4336H36.3009C30.7992 19.4336 29.6519 23.5434 29.6519 26.5043C29.6519 28.6716 30.3131 30.5529 31.5001 31.8027C32.5234 32.869 33.8939 33.4393 35.4694 33.4393C36.5241 33.4393 37.4135 33.2426 38.1591 32.8491L38.1789 33.1467H41.8093V16.5273H38.1591Z" fill="black"/>
<path d="M48.0203 24.3419C48.3906 23.0276 49.2998 22.1845 50.7563 22.1845C52.1119 22.1845 53.0377 23.1351 53.1484 24.3419H48.0203ZM56.7143 24.4031C56.5755 22.8507 56.0051 21.5365 55.076 20.6223C54.0362 19.5956 52.5781 19.0716 50.7563 19.0716C48.6551 19.0716 46.9259 19.8502 45.7488 21.3199C44.7007 22.6243 44.1237 24.4494 44.1237 26.4629C44.1237 29.8238 46.0249 33.4311 51.3531 33.4311C53.3947 33.4311 55.3885 32.7979 56.5325 32.2275V28.8617C55.896 29.2138 53.9469 30.2669 51.2853 30.2189C49.3329 30.1859 48.2815 29.1361 47.9525 27.2862H56.749L56.754 27.1506C56.7738 25.9108 56.749 24.8643 56.7143 24.4031Z" fill="black"/>
<path d="M66.2829 19.1046C65.1025 19.1046 63.7998 19.5477 63.2973 19.7345L63.2807 19.4336H59.6454V33.1467H63.2973V22.8755C64.0858 22.3829 65.3075 22.1762 66.2961 22.4077C67.2748 22.6375 67.7559 23.2574 67.7559 25.0329V33.1467H71.3978V24.494C71.3978 20.8686 69.7281 19.1046 66.2829 19.1046Z" fill="black"/>
<path d="M106.7 19.4303V29.7015C105.923 30.1991 104.693 30.4024 103.704 30.176C102.727 29.9462 102.248 29.3295 102.248 27.5441V19.4303H98.5991V28.0863C98.5991 31.7101 100.274 33.4724 103.714 33.4724C104.896 33.4724 106.204 33.0343 106.7 32.8425L106.721 33.1434H110.348V19.4303H106.7Z" fill="black"/>
<path d="M78.1295 16.5274H74.4826V28.4286C74.4826 30.0652 74.767 31.2125 75.3737 32.0226C76.0879 32.9814 77.255 33.4426 78.9363 33.4426C80.2869 33.4426 81.588 33.1467 82.3484 32.907V29.6238C81.8773 29.7428 80.4324 30.0536 79.5959 30.0536C79.0652 30.0536 78.6916 29.9429 78.4618 29.7131C78.1295 29.3742 78.1295 28.7972 78.1295 28.2418V22.449C79.5595 22.449 81.3499 22.5482 82.3484 22.6557V19.4336H78.1295V16.5274Z" fill="black"/>
<path d="M91.5881 24.5767C90.7317 24.4213 89.7183 24.2411 89.1331 23.9187C88.8487 23.7633 88.6983 23.5434 88.7016 23.3004C88.7115 23.0623 88.8752 22.8326 89.1182 22.7135C89.6489 22.4193 90.6127 22.2771 92.0774 22.5449C93.4842 22.7978 95.0448 23.3401 95.5276 23.5434V20.2338C93.8413 19.3973 92.3402 19.0716 90.6507 19.0964C89.0818 19.1261 87.7262 19.5361 86.7277 20.2784C85.6763 21.0736 85.0845 22.206 85.0249 23.56C84.9175 25.8364 86.3458 27.1986 89.6373 27.8384C90.3217 27.9739 91.3186 28.1773 91.7418 28.3542C92.1683 28.5228 92.4212 28.8038 92.4212 29.1229C92.4246 29.4287 92.208 29.7164 91.8658 29.8619C91.2491 30.1198 90.2457 30.0817 89.6075 30.0139C87.7229 29.8238 85.921 29.1576 85.268 28.8683V32.2672C86.3822 32.8326 88.1395 33.4856 90.2242 33.4559C92.6114 33.4079 95.5739 32.697 96.1078 29.5494C96.3128 28.3806 96.1045 27.3242 95.5061 26.491C94.7754 25.4842 93.6496 24.9635 91.5881 24.5767Z" fill="black"/>
</svg>
