<svg width="160" height="58" viewBox="0 0 160 58" fill="none" xmlns="http://www.w3.org/2000/svg">
<g clip-path="url(#clip0_17011_10043)">
<path d="M49.0468 34.3722C48.2321 34.3711 47.4284 34.1837 46.6973 33.8243C45.9662 33.465 45.3269 32.9432 44.8283 32.2989C44.3297 31.6546 43.9851 30.9049 43.8207 30.1069C43.6563 29.309 43.6766 28.4841 43.8799 27.6952C44.0833 26.9063 44.4643 26.1743 44.9939 25.5553C45.5235 24.9362 46.1877 24.4465 46.9356 24.1235C47.6835 23.8005 48.4953 23.6528 49.3091 23.6916C50.1228 23.7305 50.9169 23.9549 51.6306 24.3478C52.3985 24.769 53.0378 25.3905 53.4806 26.1461L53.5212 26.2161L51.9295 27.1394L51.8901 27.0661C51.6254 26.5757 51.2262 26.1709 50.7395 25.8994C50.223 25.6094 49.6391 25.4605 49.0468 25.4678C48.5717 25.4492 48.0979 25.5289 47.655 25.7018C47.2121 25.8747 46.8097 26.1372 46.4729 26.4728C45.8393 27.1722 45.4884 28.0823 45.4884 29.0261C45.4884 29.9699 45.8393 30.8799 46.4729 31.5794C46.8097 31.915 47.2121 32.1775 47.655 32.3504C48.0979 32.5233 48.5717 32.603 49.0468 32.5844C49.6414 32.5912 50.2274 32.4424 50.7468 32.1528C51.2339 31.8861 51.6313 31.4814 51.889 30.9894L51.9279 30.915L53.5207 31.8228L53.4806 31.8928C53.0457 32.6508 52.4117 33.2753 51.6473 33.6989C50.8543 34.1452 49.9583 34.3762 49.0484 34.3689" fill="black"/>
<path d="M55.8904 23.8467H54.1632V34.1839H55.8904V23.8467Z" fill="black"/>
<path d="M67.123 34.184L64.2341 26.7734H66.1152L68.0891 32.1451L70.048 26.7734H71.933L69.0441 34.184H67.123Z" fill="black"/>
<path d="M80.1295 34.1852V26.7752H81.8567V27.7413C82.0804 27.3781 82.3998 27.0836 82.7798 26.8901C83.1599 26.6967 83.586 26.6117 84.0112 26.6446H84.0918V28.5074L84.0062 28.5018C83.944 28.4978 83.8827 28.4957 83.8223 28.4957C83.3456 28.488 82.8792 28.6348 82.4928 28.914C82.2701 29.0994 82.096 29.3363 81.9855 29.6041C81.875 29.872 81.8316 30.1628 81.859 30.4513V34.1852H80.1295Z" fill="black"/>
<path d="M90.4557 34.3722C89.641 34.3711 88.8374 34.1837 88.1062 33.8243C87.3751 33.465 86.7358 32.9432 86.2372 32.2989C85.7386 31.6546 85.394 30.9049 85.2296 30.1069C85.0653 29.309 85.0855 28.4841 85.2889 27.6952C85.4922 26.9063 85.8733 26.1743 86.4029 25.5553C86.9325 24.9362 87.5966 24.4465 88.3445 24.1235C89.0924 23.8005 89.9043 23.6528 90.718 23.6916C91.5318 23.7305 92.3259 23.9549 93.0396 24.3478C93.8075 24.769 94.4468 25.3905 94.8896 26.1461L94.9301 26.2161L93.3385 27.1394L93.299 27.0661C93.0343 26.5757 92.6352 26.171 92.1485 25.8994C91.6319 25.6094 91.0481 25.4605 90.4557 25.4678C89.9806 25.4492 89.5068 25.5289 89.0639 25.7018C88.6211 25.8748 88.2186 26.1372 87.8818 26.4728C87.2482 27.1722 86.8973 28.0823 86.8973 29.0261C86.8973 29.9699 87.2482 30.8799 87.8818 31.5794C88.2186 31.915 88.621 32.1775 89.0639 32.3504C89.5068 32.5233 89.9806 32.603 90.4557 32.5844C91.0505 32.5913 91.6367 32.4425 92.1562 32.1528C92.6435 31.8861 93.0411 31.4814 93.299 30.9894L93.3374 30.915L94.9301 31.8228L94.8901 31.8928C94.4553 32.6508 93.8213 33.2754 93.0568 33.6989C92.2638 34.1452 91.3678 34.3762 90.4579 34.3689" fill="black"/>
<path d="M99.2776 34.3722C98.7643 34.3808 98.2545 34.2857 97.7789 34.0923C97.3032 33.899 96.8716 33.6115 96.5098 33.2472C95.7794 32.5109 95.3695 31.5157 95.3695 30.4786C95.3695 29.4414 95.7794 28.4463 96.5098 27.71C97.252 26.9885 98.2462 26.585 99.2813 26.585C100.316 26.585 101.31 26.9885 102.053 27.71C102.604 28.2552 102.98 28.9525 103.132 29.7127C103.285 30.473 103.207 31.2614 102.908 31.977C102.61 32.6926 102.105 33.3029 101.458 33.7296C100.81 34.1563 100.05 34.3801 99.2748 34.3722M99.2748 28.2683C98.987 28.2621 98.7009 28.3147 98.434 28.4229C98.1671 28.531 97.9251 28.6924 97.7227 28.8972C97.3188 29.3247 97.0938 29.8905 97.0938 30.4786C97.0938 31.0667 97.3188 31.6325 97.7227 32.06C98.1388 32.4633 98.6956 32.6889 99.2751 32.6889C99.8547 32.6889 100.412 32.4633 100.828 32.06C101.232 31.6325 101.457 31.0667 101.457 30.4786C101.457 29.8905 101.232 29.3247 100.828 28.8972C100.625 28.6923 100.383 28.5309 100.116 28.4228C99.8495 28.3146 99.5633 28.2621 99.2754 28.2683" fill="black"/>
<path d="M109.087 34.184V29.8118C109.102 29.5961 109.073 29.3796 109.002 29.1752C108.931 28.9708 108.821 28.7826 108.676 28.6218C108.525 28.4805 108.347 28.3712 108.152 28.3005C107.958 28.2298 107.751 28.199 107.544 28.2101C107.309 28.2002 107.074 28.2387 106.855 28.323C106.635 28.4074 106.435 28.5359 106.267 28.7007C105.912 29.1227 105.738 29.6677 105.782 30.2174V34.1835H104.055V26.7735H105.782V27.5285C106.043 27.2108 106.375 26.9595 106.752 26.7953C107.128 26.6311 107.539 26.5587 107.949 26.584C108.333 26.5693 108.715 26.6348 109.072 26.7763C109.429 26.9177 109.753 27.1321 110.022 27.4057C110.573 28.0198 110.857 28.8271 110.813 29.6507V34.1824L109.087 34.184Z" fill="black"/>
<path d="M116.894 34.184V29.8118C116.909 29.5961 116.88 29.3796 116.809 29.1752C116.738 28.9708 116.628 28.7826 116.483 28.6218C116.332 28.4805 116.153 28.3712 115.959 28.3004C115.764 28.2297 115.557 28.199 115.351 28.2101C115.116 28.2002 114.881 28.2387 114.661 28.323C114.441 28.4074 114.241 28.5359 114.073 28.7007C113.718 29.1227 113.544 29.6677 113.589 30.2174V34.1835H111.861V26.7735H113.589V27.5285C113.849 27.2108 114.181 26.9595 114.558 26.7953C114.935 26.6311 115.345 26.5587 115.755 26.584C116.139 26.5691 116.522 26.6346 116.88 26.7763C117.237 26.918 117.561 27.1328 117.831 27.4068C118.381 28.0209 118.666 28.8283 118.622 29.6518V34.1835L116.894 34.184Z" fill="black"/>
<path d="M131.444 34.3725C130.929 34.3786 130.418 34.2825 129.94 34.0895C129.462 33.8966 129.027 33.6108 128.661 33.2486C128.294 32.8865 128.003 32.4552 127.805 31.9797C127.606 31.5043 127.504 30.9941 127.504 30.4788C127.504 29.9636 127.606 29.4534 127.805 28.978C128.003 28.5025 128.294 28.0712 128.661 27.7091C129.027 27.3469 129.462 27.0611 129.94 26.8682C130.418 26.6753 130.929 26.5791 131.444 26.5852C132.135 26.5784 132.815 26.7574 133.413 27.1036C133.985 27.4287 134.449 27.914 134.749 28.4997L134.783 28.5675L133.293 29.4325L133.256 29.353C133.102 29.0252 132.853 28.7517 132.541 28.5686C132.203 28.3742 131.819 28.2753 131.43 28.2825C131.143 28.2758 130.858 28.3281 130.592 28.4362C130.326 28.5442 130.085 28.7058 129.885 28.9108C129.485 29.3348 129.263 29.8954 129.263 30.478C129.263 31.0606 129.485 31.6212 129.885 32.0452C130.085 32.2502 130.326 32.4118 130.592 32.5199C130.858 32.628 131.143 32.6803 131.43 32.6736C131.82 32.6783 132.204 32.5769 132.541 32.3802C132.858 32.1974 133.117 31.9275 133.286 31.6025L133.324 31.5275L134.814 32.3764L134.777 32.4458C134.464 33.0345 133.991 33.5228 133.412 33.8547C132.814 34.2008 132.134 34.3799 131.444 34.373" fill="black"/>
<path d="M138.958 34.2474C138.377 34.2833 137.797 34.1481 137.292 33.8585C136.749 33.4913 136.473 32.8129 136.473 31.8418V28.4429H135.14V26.7763H136.473V25.2279L138.201 24.5996V26.7741H139.998V28.4407H138.201V31.8396C138.191 31.9447 138.202 32.0507 138.233 32.1515C138.264 32.2522 138.315 32.3458 138.383 32.4268C138.537 32.5557 138.733 32.6249 138.933 32.6218C139.046 32.6278 139.171 32.6307 139.308 32.6307C139.49 32.6307 139.697 32.6252 139.92 32.6141L140.004 32.6102V34.1724L139.933 34.1807C139.612 34.2213 139.287 34.2426 138.963 34.2446" fill="black"/>
<path d="M62.6391 31.9092C62.5743 31.9878 62.5043 32.0621 62.4296 32.1314C61.953 32.57 61.3244 32.8059 60.6768 32.7892C60.392 32.7938 60.1096 32.7374 59.8483 32.624C59.587 32.5106 59.353 32.3426 59.1619 32.1314C59.0927 32.056 59.0286 31.976 58.9702 31.892L62.8035 30.4964L64.448 29.8981C64.3464 29.0704 63.9719 28.3002 63.3835 27.7092C63.0291 27.3526 62.6077 27.0696 62.1435 26.8765C61.6793 26.6834 61.1815 26.584 60.6788 26.584C60.176 26.584 59.6783 26.6834 59.2141 26.8765C58.7499 27.0696 58.3285 27.3526 57.9741 27.7092C57.2599 28.454 56.8611 29.4459 56.8611 30.4778C56.8611 31.5097 57.2599 32.5017 57.9741 33.2464C58.3231 33.6091 58.743 33.8961 59.2077 34.0896C59.6724 34.2831 60.1719 34.3791 60.6752 34.3714C61.7606 34.3961 62.812 33.9919 63.6013 33.2464C63.7645 33.0924 63.9146 32.9252 64.0502 32.7464L63.9657 32.6842L62.6391 31.9092ZM59.1619 28.8242C59.3558 28.6166 59.5904 28.4511 59.851 28.3379C60.1116 28.2247 60.3927 28.1663 60.6768 28.1663C60.961 28.1663 61.2421 28.2247 61.5027 28.3379C61.7633 28.4511 61.9979 28.6166 62.1919 28.8242C62.2559 28.8944 62.3155 28.9686 62.3702 29.0464L58.5502 30.4353C58.5404 29.8399 58.7591 29.2634 59.1613 28.8242" fill="black"/>
<path d="M77.4704 31.9092C77.4056 31.9878 77.3356 32.062 77.261 32.1314C76.7844 32.57 76.1557 32.8059 75.5082 32.7892C75.2234 32.7938 74.9409 32.7374 74.6796 32.624C74.4184 32.5106 74.1843 32.3426 73.9932 32.1314C73.924 32.056 73.86 31.976 73.8016 31.892L77.6349 30.4964L79.2793 29.8981C79.1779 29.0705 78.8036 28.3003 78.2154 27.7092C77.861 27.3526 77.4396 27.0696 76.9754 26.8765C76.5112 26.6834 76.0135 26.584 75.5107 26.584C75.008 26.584 74.5102 26.6834 74.046 26.8765C73.5818 27.0696 73.1604 27.3526 72.806 27.7092C72.0918 28.454 71.693 29.4459 71.693 30.4778C71.693 31.5097 72.0918 32.5017 72.806 33.2464C73.1551 33.6091 73.575 33.8961 74.0396 34.0896C74.5043 34.2831 75.0038 34.3791 75.5071 34.3714C76.5923 34.396 77.6435 33.9918 78.4327 33.2464C78.5958 33.0924 78.746 32.9252 78.8815 32.7464L78.7971 32.6842L77.4704 31.9092ZM73.9932 28.8242C74.1872 28.6166 74.4218 28.4511 74.6824 28.3379C74.943 28.2247 75.2241 28.1663 75.5082 28.1663C75.7923 28.1663 76.0734 28.2247 76.3341 28.3379C76.5947 28.4511 76.8292 28.6166 77.0232 28.8242C77.0873 28.8944 77.1469 28.9686 77.2015 29.0464L73.3815 30.4353C73.3718 29.8399 73.5905 29.2634 73.9927 28.8242" fill="black"/>
<path d="M125.177 31.9092C125.112 31.9878 125.042 32.0621 124.967 32.1314C124.491 32.57 123.862 32.8059 123.215 32.7892C122.93 32.7938 122.647 32.7374 122.386 32.624C122.125 32.5106 121.891 32.3426 121.7 32.1314C121.63 32.056 121.566 31.976 121.508 31.892L125.341 30.4964L126.986 29.8981C126.884 29.0705 126.51 28.3003 125.922 27.7092C125.567 27.3526 125.146 27.0696 124.682 26.8765C124.218 26.6834 123.72 26.584 123.217 26.584C122.714 26.584 122.216 26.6834 121.752 26.8765C121.288 27.0696 120.867 27.3526 120.512 27.7092C119.798 28.454 119.399 29.4459 119.399 30.4778C119.399 31.5097 119.798 32.5017 120.512 33.2464C120.861 33.6091 121.281 33.8961 121.746 34.0896C122.211 34.2831 122.71 34.3791 123.213 34.3714C124.299 34.396 125.35 33.9918 126.139 33.2464C126.302 33.0924 126.452 32.9252 126.588 32.7464L126.503 32.6842L125.177 31.9092ZM121.7 28.8242C121.894 28.6166 122.128 28.4511 122.389 28.3379C122.649 28.2247 122.93 28.1663 123.215 28.1663C123.499 28.1663 123.78 28.2247 124.04 28.3379C124.301 28.4511 124.536 28.6166 124.73 28.8242C124.794 28.8944 124.853 28.9686 124.908 29.0464L121.088 30.4353C121.078 29.8399 121.297 29.2634 121.699 28.8242" fill="black"/>
<path d="M36.6838 25.4064C36.6838 25.519 36.6504 25.6291 36.5878 25.7227C36.5253 25.8164 36.4363 25.8894 36.3323 25.9325C36.2282 25.9756 36.1137 25.9868 36.0033 25.9649C35.8928 25.9429 35.7913 25.8887 35.7117 25.809C35.6321 25.7294 35.5778 25.6279 35.5559 25.5175C35.5339 25.407 35.5452 25.2925 35.5883 25.1884C35.6314 25.0844 35.7044 24.9955 35.798 24.9329C35.8916 24.8703 36.0017 24.8369 36.1144 24.8369C36.2654 24.8369 36.4102 24.8969 36.517 25.0037C36.6238 25.1105 36.6838 25.2553 36.6838 25.4064Z" fill="#01BA18"/>
<path d="M33.9699 23.126C33.8291 23.126 33.6913 23.1677 33.5742 23.246C33.4571 23.3243 33.3658 23.4355 33.3119 23.5656C33.258 23.6958 33.2439 23.839 33.2714 23.9771C33.2989 24.1153 33.3667 24.2422 33.4663 24.3418C33.5659 24.4414 33.6928 24.5093 33.831 24.5367C33.9691 24.5642 34.1123 24.5501 34.2425 24.4962C34.3726 24.4423 34.4838 24.351 34.5621 24.2339C34.6404 24.1168 34.6821 23.9791 34.6821 23.8382C34.6821 23.6493 34.6071 23.4681 34.4735 23.3346C34.34 23.201 34.1588 23.126 33.9699 23.126Z" fill="#0BBF2F"/>
<path d="M31.2339 22.6104C31.0674 22.6104 30.9047 22.6597 30.7663 22.7522C30.6279 22.8447 30.52 22.9761 30.4563 23.1299C30.3926 23.2837 30.3759 23.453 30.4084 23.6162C30.4409 23.7795 30.521 23.9295 30.6387 24.0472C30.7564 24.1649 30.9064 24.245 31.0697 24.2775C31.2329 24.31 31.4022 24.2933 31.556 24.2296C31.7098 24.1659 31.8412 24.058 31.9337 23.9196C32.0262 23.7812 32.0755 23.6185 32.0755 23.452C32.0755 23.2288 31.9869 23.0147 31.829 22.8569C31.6712 22.699 31.4571 22.6104 31.2339 22.6104Z" fill="#0FC139"/>
<path d="M28.7054 23.3848C28.5069 23.3848 28.3129 23.4436 28.1479 23.5539C27.9829 23.6641 27.8543 23.8208 27.7784 24.0041C27.7025 24.1875 27.6826 24.3892 27.7213 24.5838C27.76 24.7785 27.8556 24.9572 27.9959 25.0976C28.1362 25.2379 28.315 25.3334 28.5096 25.3722C28.7042 25.4109 28.906 25.391 29.0893 25.3151C29.2727 25.2391 29.4294 25.1105 29.5396 24.9455C29.6498 24.7805 29.7087 24.5865 29.7087 24.3881C29.7087 24.122 29.603 23.8668 29.4148 23.6786C29.2267 23.4905 28.9715 23.3848 28.7054 23.3848Z" fill="#18C552"/>
<path d="M26.9338 25.2529C26.7161 25.2529 26.5034 25.3175 26.3224 25.4384C26.1414 25.5593 26.0003 25.7312 25.917 25.9323C25.8337 26.1334 25.8119 26.3547 25.8544 26.5682C25.8969 26.7817 26.0017 26.9778 26.1556 27.1317C26.3095 27.2856 26.5056 27.3904 26.7191 27.4329C26.9326 27.4754 27.1539 27.4536 27.355 27.3703C27.5561 27.287 27.728 27.1459 27.8489 26.9649C27.9698 26.7839 28.0344 26.5712 28.0344 26.3535C28.0344 26.0616 27.9184 25.7817 27.712 25.5753C27.5056 25.3689 27.2257 25.2529 26.9338 25.2529Z" fill="#44D33B"/>
<path d="M26.2657 27.834C26.0349 27.834 25.8094 27.9024 25.6175 28.0306C25.4256 28.1588 25.2761 28.341 25.1878 28.5542C25.0995 28.7674 25.0764 29.0019 25.1214 29.2283C25.1664 29.4546 25.2775 29.6624 25.4407 29.8256C25.6039 29.9888 25.8117 30.0999 26.0381 30.1449C26.2644 30.1899 26.499 30.1668 26.7121 30.0785C26.9253 29.9902 27.1075 29.8407 27.2357 29.6488C27.3639 29.457 27.4323 29.2314 27.4323 29.0007C27.4323 28.6912 27.3094 28.3945 27.0906 28.1757C26.8718 27.9569 26.5751 27.834 26.2657 27.834Z" fill="#66DC22"/>
<path d="M26.9338 30.5439C26.7161 30.5439 26.5034 30.6085 26.3224 30.7294C26.1414 30.8504 26.0003 31.0222 25.917 31.2233C25.8337 31.4244 25.8119 31.6457 25.8544 31.8592C25.8969 32.0727 26.0017 32.2688 26.1556 32.4227C26.3095 32.5766 26.5056 32.6814 26.7191 32.7239C26.9326 32.7664 27.1539 32.7446 27.355 32.6613C27.5561 32.578 27.728 32.4369 27.8489 32.2559C27.9698 32.075 28.0344 31.8622 28.0344 31.6445C28.0344 31.3526 27.9184 31.0727 27.712 30.8663C27.5056 30.6599 27.2257 30.5439 26.9338 30.5439Z" fill="#89E60B"/>
<path d="M28.7054 32.6074C28.5069 32.6074 28.3129 32.6663 28.1479 32.7765C27.9829 32.8868 27.8543 33.0435 27.7784 33.2268C27.7025 33.4101 27.6826 33.6119 27.7213 33.8065C27.76 34.0011 27.8556 34.1799 27.9959 34.3202C28.1362 34.4605 28.315 34.5561 28.5096 34.5948C28.7042 34.6335 28.906 34.6137 29.0893 34.5377C29.2727 34.4618 29.4294 34.3332 29.5396 34.1682C29.6498 34.0032 29.7087 33.8092 29.7087 33.6108C29.7087 33.3447 29.603 33.0895 29.4148 32.9013C29.2267 32.7131 28.9715 32.6074 28.7054 32.6074Z" fill="#66E51F"/>
<path d="M31.2339 33.7061C31.0674 33.7061 30.9047 33.7554 30.7663 33.8479C30.6279 33.9404 30.52 34.0718 30.4563 34.2256C30.3926 34.3794 30.3759 34.5487 30.4084 34.7119C30.4409 34.8752 30.521 35.0252 30.6387 35.1429C30.7564 35.2606 30.9064 35.3407 31.0697 35.3732C31.2329 35.4057 31.4022 35.389 31.556 35.3253C31.7098 35.2616 31.8412 35.1537 31.9337 35.0153C32.0262 34.8769 32.0755 34.7142 32.0755 34.5477C32.0755 34.3245 31.9869 34.1104 31.829 33.9526C31.6712 33.7947 31.4571 33.7061 31.2339 33.7061Z" fill="#11DB62"/>
<path d="M33.9699 33.4492C33.8291 33.4492 33.6913 33.491 33.5742 33.5693C33.4571 33.6475 33.3658 33.7587 33.3119 33.8889C33.258 34.019 33.2439 34.1622 33.2714 34.3004C33.2989 34.4385 33.3667 34.5654 33.4663 34.6651C33.5659 34.7647 33.6928 34.8325 33.831 34.86C33.9691 34.8875 34.1123 34.8734 34.2425 34.8194C34.3726 34.7655 34.4838 34.6743 34.5621 34.5571C34.6404 34.44 34.6821 34.3023 34.6821 34.1614C34.6821 33.9725 34.6071 33.7914 34.4735 33.6578C34.34 33.5243 34.1588 33.4492 33.9699 33.4492Z" fill="#00DEA7"/>
<path d="M36.114 32.0234C36.0014 32.0234 35.8913 32.0568 35.7976 32.1194C35.704 32.182 35.631 32.2709 35.5879 32.375C35.5448 32.479 35.5335 32.5935 35.5555 32.704C35.5775 32.8144 35.6317 32.9159 35.7113 32.9955C35.791 33.0752 35.8924 33.1294 36.0029 33.1514C36.1134 33.1734 36.2279 33.1621 36.3319 33.119C36.436 33.0759 36.5249 33.0029 36.5875 32.9092C36.6501 32.8156 36.6834 32.7055 36.6834 32.5929C36.6834 32.4419 36.6235 32.297 36.5167 32.1902C36.4099 32.0834 36.265 32.0234 36.114 32.0234Z" fill="#00D3C4"/>
<path d="M38.5351 33.4189C38.3942 33.4189 38.2565 33.4607 38.1394 33.539C38.0223 33.6172 37.931 33.7285 37.8771 33.8586C37.8232 33.9888 37.8091 34.132 37.8366 34.2701C37.864 34.4083 37.9319 34.5352 38.0315 34.6348C38.1311 34.7344 38.258 34.8022 38.3962 34.8297C38.5343 34.8572 38.6775 34.8431 38.8077 34.7892C38.9378 34.7353 39.049 34.644 39.1273 34.5269C39.2056 34.4097 39.2473 34.272 39.2473 34.1312C39.2473 33.9423 39.1723 33.7611 39.0387 33.6275C38.9051 33.494 38.724 33.4189 38.5351 33.4189Z" fill="#00D0C4"/>
<path d="M36.5432 35.0625C36.3576 35.0625 36.1762 35.1175 36.0219 35.2206C35.8676 35.3237 35.7474 35.4702 35.6763 35.6416C35.6053 35.813 35.5867 36.0017 35.6228 36.1837C35.659 36.3657 35.7483 36.5329 35.8795 36.6641C36.0107 36.7954 36.1778 36.8848 36.3598 36.9211C36.5418 36.9573 36.7304 36.9388 36.9019 36.8679C37.0734 36.797 37.2199 36.6768 37.3231 36.5225C37.4263 36.3683 37.4814 36.187 37.4815 36.0014C37.4815 35.7525 37.3827 35.5138 37.2067 35.3377C37.0308 35.1616 36.7921 35.0626 36.5432 35.0625Z" fill="#00E0BF"/>
<path d="M34.0235 36.0439C33.8059 36.0439 33.5931 36.1085 33.4121 36.2294C33.2311 36.3503 33.09 36.5222 33.0067 36.7233C32.9235 36.9244 32.9017 37.1457 32.9441 37.3592C32.9866 37.5727 33.0914 37.7688 33.2453 37.9227C33.3992 38.0766 33.5953 38.1814 33.8088 38.2239C34.0223 38.2664 34.2436 38.2446 34.4447 38.1613C34.6458 38.078 34.8177 37.9369 34.9386 37.7559C35.0595 37.5749 35.1241 37.3622 35.1241 37.1445C35.1241 36.8526 35.0081 36.5727 34.8017 36.3663C34.5953 36.1599 34.3154 36.0439 34.0235 36.0439Z" fill="#00DB96"/>
<path d="M31.1557 36.1709C30.9124 36.1709 30.6746 36.243 30.4723 36.3782C30.27 36.5133 30.1124 36.7054 30.0193 36.9302C29.9262 37.155 29.9018 37.4023 29.9493 37.6409C29.9968 37.8795 30.1139 38.0986 30.2859 38.2706C30.4579 38.4427 30.6771 38.5598 30.9157 38.6073C31.1543 38.6547 31.4016 38.6304 31.6264 38.5373C31.8511 38.4442 32.0432 38.2865 32.1784 38.0842C32.3135 37.882 32.3857 37.6442 32.3857 37.4009C32.3857 37.0747 32.2561 36.7618 32.0254 36.5312C31.7947 36.3005 31.4819 36.1709 31.1557 36.1709Z" fill="#0EDA65"/>
<path d="M28.4318 35.543C28.2011 35.543 27.9755 35.6114 27.7836 35.7396C27.5918 35.8678 27.4422 36.05 27.3539 36.2632C27.2656 36.4764 27.2425 36.7109 27.2876 36.9372C27.3326 37.1636 27.4437 37.3714 27.6068 37.5346C27.77 37.6978 27.9779 37.8089 28.2042 37.8539C28.4305 37.8989 28.6651 37.8758 28.8783 37.7875C29.0914 37.6992 29.2737 37.5497 29.4019 37.3578C29.53 37.1659 29.5985 36.9404 29.5985 36.7096C29.5985 36.4002 29.4756 36.1035 29.2568 35.8847C29.038 35.6659 28.7412 35.543 28.4318 35.543Z" fill="#4DE230"/>
<path d="M26.1461 34.0762C25.922 34.0762 25.703 34.1426 25.5167 34.2671C25.3305 34.3915 25.1853 34.5685 25.0995 34.7755C25.0138 34.9824 24.9914 35.2102 25.0351 35.4299C25.0788 35.6497 25.1867 35.8515 25.3451 36.0099C25.5035 36.1684 25.7054 36.2763 25.9251 36.32C26.1448 36.3637 26.3726 36.3412 26.5796 36.2555C26.7866 36.1698 26.9635 36.0246 27.088 35.8383C27.2124 35.652 27.2789 35.433 27.2789 35.209C27.2789 34.9085 27.1595 34.6204 26.9471 34.408C26.7346 34.1955 26.4465 34.0762 26.1461 34.0762Z" fill="#84E90C"/>
<path d="M24.4612 31.9902C24.2487 31.9902 24.0409 32.0532 23.8642 32.1713C23.6875 32.2894 23.5498 32.4572 23.4685 32.6535C23.3872 32.8498 23.3659 33.0659 23.4074 33.2743C23.4488 33.4827 23.5512 33.6742 23.7014 33.8244C23.8517 33.9747 24.0431 34.077 24.2515 34.1185C24.46 34.1599 24.676 34.1387 24.8723 34.0573C25.0687 33.976 25.2365 33.8383 25.3545 33.6616C25.4726 33.4849 25.5356 33.2772 25.5356 33.0647C25.5356 32.7797 25.4224 32.5064 25.2209 32.3049C25.0194 32.1034 24.7461 31.9902 24.4612 31.9902Z" fill="#90E807"/>
<path d="M23.5403 29.4023C23.3356 29.4023 23.1355 29.463 22.9652 29.5767C22.795 29.6904 22.6622 29.852 22.5838 30.0411C22.5054 30.2302 22.4847 30.4383 22.5245 30.6391C22.5643 30.8399 22.6627 31.0244 22.8073 31.1694C22.9519 31.3143 23.1362 31.4131 23.3369 31.4533C23.5377 31.4935 23.7458 31.4733 23.9351 31.3953C24.1243 31.3172 24.2862 31.1848 24.4003 31.0148C24.5143 30.8448 24.5754 30.6448 24.5759 30.4401C24.5762 30.3039 24.5496 30.169 24.4977 30.0431C24.4458 29.9173 24.3695 29.8028 24.2734 29.7064C24.1772 29.61 24.0629 29.5336 23.9371 29.4814C23.8113 29.4292 23.6765 29.4023 23.5403 29.4023Z" fill="#6FDF1D"/>
<path d="M23.5404 26.5234C23.3356 26.5235 23.1354 26.5844 22.9652 26.6982C22.795 26.8121 22.6623 26.9739 22.584 27.1631C22.5057 27.3523 22.4853 27.5605 22.5253 27.7614C22.5654 27.9622 22.664 28.1467 22.8089 28.2914C22.9537 28.4362 23.1382 28.5348 23.3391 28.5747C23.54 28.6146 23.7482 28.5941 23.9373 28.5157C24.1265 28.4373 24.2882 28.3045 24.402 28.1343C24.5158 27.964 24.5765 27.7638 24.5765 27.559C24.5765 27.2843 24.4674 27.0209 24.2732 26.8267C24.079 26.6325 23.8156 26.5234 23.5409 26.5234" fill="#5AD92B"/>
<path d="M24.4611 23.8652C24.2498 23.8651 24.0431 23.9277 23.8674 24.045C23.6916 24.1624 23.5546 24.3292 23.4736 24.5245C23.3927 24.7197 23.3715 24.9346 23.4127 25.1419C23.4539 25.3491 23.5557 25.5396 23.7051 25.689C23.8546 25.8384 24.045 25.9402 24.2523 25.9814C24.4595 26.0226 24.6744 26.0014 24.8696 25.9205C25.0649 25.8395 25.2317 25.7025 25.3491 25.5268C25.4664 25.351 25.529 25.1444 25.5289 24.933C25.5289 24.6498 25.4164 24.3782 25.2161 24.178C25.0159 23.9777 24.7443 23.8652 24.4611 23.8652Z" fill="#3FD13F"/>
<path d="M26.1461 21.6582C25.922 21.6582 25.703 21.7246 25.5167 21.8491C25.3305 21.9736 25.1853 22.1505 25.0995 22.3575C25.0138 22.5645 24.9914 22.7922 25.0351 23.012C25.0788 23.2317 25.1867 23.4336 25.3451 23.592C25.5035 23.7504 25.7054 23.8583 25.9251 23.902C26.1448 23.9457 26.3726 23.9233 26.5796 23.8375C26.7866 23.7518 26.9635 23.6066 27.088 23.4203C27.2124 23.234 27.2789 23.015 27.2789 22.791C27.2789 22.4905 27.1595 22.2024 26.9471 21.99C26.7346 21.7775 26.4465 21.6582 26.1461 21.6582Z" fill="#1DC753"/>
<path d="M28.4318 20.125C28.2011 20.125 27.9755 20.1934 27.7836 20.3216C27.5918 20.4498 27.4422 20.632 27.3539 20.8452C27.2656 21.0584 27.2425 21.293 27.2876 21.5193C27.3326 21.7456 27.4437 21.9535 27.6068 22.1166C27.77 22.2798 27.9779 22.3909 28.2042 22.4359C28.4305 22.4809 28.6651 22.4578 28.8783 22.3695C29.0914 22.2812 29.2737 22.1317 29.4019 21.9398C29.53 21.748 29.5985 21.5224 29.5985 21.2917C29.5985 20.9822 29.4756 20.6855 29.2568 20.4667C29.038 20.2479 28.7412 20.125 28.4318 20.125Z" fill="#11C247"/>
<path d="M31.1553 19.3682C30.912 19.3677 30.6739 19.4395 30.4714 19.5744C30.2688 19.7093 30.1108 19.9012 30.0174 20.1259C29.9239 20.3506 29.8993 20.598 29.9465 20.8368C29.9937 21.0755 30.1106 21.2949 30.2826 21.4671C30.4545 21.6394 30.6737 21.7567 30.9123 21.8044C31.151 21.852 31.3984 21.8278 31.6233 21.7347C31.8482 21.6417 32.0404 21.4841 32.1756 21.2817C32.3109 21.0794 32.3831 20.8415 32.3831 20.5982C32.3831 20.2719 32.2535 19.9591 32.0228 19.7284C31.7922 19.4978 31.4793 19.3682 31.1531 19.3682" fill="#0FC13A"/>
<path d="M34.0235 19.752C33.8059 19.752 33.5931 19.8165 33.4121 19.9374C33.2311 20.0584 33.09 20.2302 33.0067 20.4313C32.9235 20.6324 32.9017 20.8537 32.9441 21.0672C32.9866 21.2807 33.0914 21.4768 33.2453 21.6307C33.3992 21.7846 33.5953 21.8895 33.8088 21.9319C34.0223 21.9744 34.2436 21.9526 34.4447 21.8693C34.6458 21.786 34.8177 21.6449 34.9386 21.4639C35.0595 21.283 35.1241 21.0702 35.1241 20.8525C35.1241 20.5606 35.0081 20.2807 34.8017 20.0743C34.5953 19.8679 34.3154 19.752 34.0235 19.752Z" fill="#0CBF31"/>
<path d="M36.5433 21.0625C36.3576 21.0624 36.176 21.1174 36.0216 21.2205C35.8671 21.3236 35.7467 21.4702 35.6755 21.6417C35.6044 21.8133 35.5857 22.0021 35.6219 22.1842C35.658 22.3664 35.7474 22.5337 35.8787 22.6651C36.01 22.7964 36.1773 22.8859 36.3594 22.9222C36.5415 22.9585 36.7303 22.9399 36.9019 22.8689C37.0735 22.7978 37.2202 22.6775 37.3234 22.5231C37.4266 22.3687 37.4817 22.1871 37.4817 22.0014C37.4817 21.7525 37.3828 21.5138 37.2069 21.3377C37.0309 21.1616 36.7922 21.0626 36.5433 21.0625Z" fill="#07BD24"/>
<path d="M38.5351 23.1562C38.3942 23.1562 38.2565 23.198 38.1394 23.2763C38.0223 23.3545 37.931 23.4658 37.8771 23.5959C37.8232 23.7261 37.8091 23.8693 37.8366 24.0074C37.864 24.1456 37.9319 24.2725 38.0315 24.3721C38.1311 24.4717 38.258 24.5395 38.3962 24.567C38.5343 24.5945 38.6775 24.5804 38.8077 24.5265C38.9378 24.4726 39.049 24.3813 39.1273 24.2642C39.2056 24.147 39.2473 24.0093 39.2473 23.8685C39.2473 23.6796 39.1723 23.4984 39.0387 23.3649C38.9051 23.2313 38.724 23.1562 38.5351 23.1562Z" fill="#00BA15"/>
<path d="M41.0815 34.5596C40.9023 34.5596 40.7271 34.6127 40.5781 34.7123C40.4291 34.8118 40.313 34.9534 40.2444 35.1189C40.1758 35.2845 40.1579 35.4667 40.1928 35.6425C40.2278 35.8182 40.3141 35.9797 40.4408 36.1064C40.5675 36.2331 40.729 36.3194 40.9047 36.3544C41.0805 36.3893 41.2627 36.3714 41.4283 36.3028C41.5938 36.2342 41.7354 36.1181 41.8349 35.9691C41.9345 35.8201 41.9876 35.6449 41.9876 35.4657C41.9876 35.2254 41.8922 34.9949 41.7222 34.825C41.5523 34.655 41.3218 34.5596 41.0815 34.5596Z" fill="#00CFC4"/>
<path d="M39.2043 36.375C38.9735 36.375 38.748 36.4434 38.5561 36.5716C38.3642 36.6998 38.2147 36.882 38.1264 37.0952C38.0381 37.3084 38.015 37.543 38.06 37.7693C38.105 37.9956 38.2161 38.2035 38.3793 38.3666C38.5425 38.5298 38.7503 38.6409 38.9767 38.6859C39.203 38.7309 39.4375 38.7078 39.6507 38.6195C39.8639 38.5312 40.0461 38.3817 40.1743 38.1898C40.3025 37.998 40.3709 37.7724 40.3709 37.5417C40.3709 37.2322 40.248 36.9355 40.0292 36.7167C39.8104 36.4979 39.5137 36.375 39.2043 36.375Z" fill="#00DBC3"/>
<path d="M36.8694 37.8662C36.6261 37.8662 36.3883 37.9383 36.1861 38.0735C35.9838 38.2087 35.8261 38.4008 35.733 38.6255C35.6399 38.8503 35.6156 39.0976 35.663 39.3362C35.7105 39.5748 35.8276 39.7939 35.9997 39.9659C36.1717 40.138 36.3908 40.2551 36.6294 40.3026C36.868 40.35 37.1154 40.3257 37.3401 40.2326C37.5649 40.1395 37.757 39.9818 37.8921 39.7796C38.0273 39.5773 38.0994 39.3395 38.0994 39.0962C38.0994 38.77 37.9698 38.4571 37.7392 38.2265C37.5085 37.9958 37.1956 37.8662 36.8694 37.8662Z" fill="#00E0BC"/>
<path d="M34.1739 38.8701C33.9431 38.8701 33.7176 38.9385 33.5257 39.0667C33.3338 39.1949 33.1843 39.3771 33.096 39.5903C33.0077 39.8035 32.9846 40.0381 33.0296 40.2644C33.0746 40.4907 33.1857 40.6986 33.3489 40.8617C33.5121 41.0249 33.72 41.136 33.9463 41.181C34.1726 41.226 34.4072 41.2029 34.6203 41.1146C34.8335 41.0263 35.0157 40.8768 35.1439 40.6849C35.2721 40.4931 35.3405 40.2675 35.3405 40.0368C35.3405 39.7274 35.2176 39.4306 34.9988 39.2118C34.78 38.993 34.4833 38.8701 34.1739 38.8701Z" fill="#00DB94"/>
<path d="M31.229 39.2246C31.0242 39.2246 30.824 39.2853 30.6537 39.3991C30.4834 39.5129 30.3507 39.6747 30.2723 39.8639C30.1939 40.0531 30.1734 40.2613 30.2134 40.4622C30.2533 40.6631 30.352 40.8476 30.4968 40.9924C30.6416 41.1372 30.8261 41.2359 31.027 41.2758C31.2279 41.3158 31.4361 41.2953 31.6253 41.2169C31.8145 41.1385 31.9763 41.0058 32.0901 40.8355C32.2039 40.6652 32.2646 40.465 32.2646 40.2602C32.2646 39.9855 32.1555 39.7221 31.9613 39.5279C31.7671 39.3337 31.5037 39.2246 31.229 39.2246Z" fill="#01D97B"/>
<path d="M28.3801 38.793C28.1944 38.793 28.0128 38.848 27.8584 38.9512C27.704 39.0544 27.5837 39.201 27.5126 39.3726C27.4416 39.5441 27.423 39.7329 27.4592 39.915C27.4954 40.0972 27.5849 40.2644 27.7162 40.3958C27.8475 40.5271 28.0148 40.6165 28.1969 40.6527C28.379 40.6889 28.5678 40.6703 28.7393 40.5993C28.9109 40.5282 29.0575 40.4079 29.1607 40.2535C29.2639 40.0991 29.3189 39.9175 29.3189 39.7319C29.3189 39.4828 29.22 39.244 29.0439 39.068C28.8679 38.8919 28.6291 38.793 28.3801 38.793Z" fill="#27DD4C"/>
<path d="M25.8289 37.6797C25.6599 37.6797 25.4947 37.7298 25.3542 37.8237C25.2137 37.9176 25.1042 38.051 25.0395 38.2072C24.9749 38.3633 24.9579 38.5351 24.9909 38.7008C25.0239 38.8666 25.1053 39.0188 25.2247 39.1383C25.3442 39.2578 25.4965 39.3392 25.6622 39.3722C25.828 39.4051 25.9998 39.3882 26.1559 39.3235C26.312 39.2589 26.4455 39.1494 26.5394 39.0088C26.6333 38.8683 26.6834 38.7031 26.6834 38.5341C26.6834 38.3075 26.5934 38.0902 26.4331 37.9299C26.2729 37.7697 26.0555 37.6797 25.8289 37.6797Z" fill="#6EE61B"/>
<path d="M23.6751 35.9795C23.5201 35.9795 23.3687 36.0254 23.2399 36.1115C23.111 36.1976 23.0106 36.3199 22.9514 36.4631C22.8921 36.6062 22.8766 36.7637 22.9068 36.9156C22.937 37.0676 23.0116 37.2072 23.1212 37.3167C23.2307 37.4263 23.3703 37.5009 23.5222 37.5311C23.6742 37.5613 23.8317 37.5458 23.9748 37.4865C24.118 37.4272 24.2403 37.3268 24.3264 37.198C24.4124 37.0692 24.4584 36.9178 24.4584 36.7628C24.4584 36.5551 24.3759 36.3558 24.229 36.2089C24.0821 36.062 23.8828 35.9795 23.6751 35.9795Z" fill="#94EB03"/>
<path d="M22.0152 33.8428C21.8813 33.8428 21.7505 33.8825 21.6392 33.9568C21.528 34.0312 21.4412 34.1368 21.39 34.2605C21.3388 34.3841 21.3254 34.5202 21.3515 34.6515C21.3776 34.7827 21.4421 34.9033 21.5367 34.9979C21.6313 35.0925 21.7519 35.157 21.8832 35.1831C22.0144 35.2092 22.1505 35.1958 22.2741 35.1446C22.3978 35.0934 22.5034 35.0067 22.5778 34.8954C22.6521 34.7841 22.6918 34.6533 22.6918 34.5194C22.6918 34.34 22.6205 34.1679 22.4936 34.041C22.3667 33.9141 22.1946 33.8428 22.0152 33.8428Z" fill="#92E905"/>
<path d="M20.9474 31.291C20.8277 31.291 20.7108 31.3265 20.6113 31.393C20.5118 31.4595 20.4343 31.5539 20.3885 31.6645C20.3427 31.775 20.3307 31.8967 20.354 32.014C20.3774 32.1314 20.435 32.2392 20.5196 32.3238C20.6042 32.4084 20.712 32.466 20.8294 32.4894C20.9467 32.5127 21.0684 32.5008 21.1789 32.455C21.2895 32.4092 21.384 32.3316 21.4504 32.2321C21.5169 32.1326 21.5524 32.0157 21.5524 31.896C21.5524 31.7356 21.4887 31.5817 21.3752 31.4682C21.2617 31.3548 21.1079 31.291 20.9474 31.291Z" fill="#74E019"/>
<path d="M20.5694 28.4297C20.4568 28.4297 20.3467 28.4631 20.2531 28.5257C20.1594 28.5882 20.0864 28.6772 20.0433 28.7812C20.0002 28.8853 19.989 28.9998 20.0109 29.1102C20.0329 29.2207 20.0871 29.3222 20.1668 29.4018C20.2464 29.4814 20.3479 29.5357 20.4584 29.5576C20.5688 29.5796 20.6833 29.5683 20.7874 29.5252C20.8914 29.4821 20.9803 29.4091 21.0429 29.3155C21.1055 29.2219 21.1389 29.1118 21.1389 28.9991C21.1389 28.8481 21.0789 28.7033 20.9721 28.5965C20.8653 28.4897 20.7205 28.4297 20.5694 28.4297Z" fill="#5FDA27"/>
<path d="M20.9474 25.4961C20.8277 25.4961 20.7108 25.5316 20.6113 25.5981C20.5118 25.6645 20.4343 25.759 20.3885 25.8696C20.3427 25.9801 20.3307 26.1018 20.354 26.2191C20.3774 26.3365 20.435 26.4443 20.5196 26.5289C20.6042 26.6135 20.712 26.6711 20.8294 26.6945C20.9467 26.7178 21.0684 26.7058 21.1789 26.66C21.2895 26.6142 21.384 26.5367 21.4504 26.4372C21.5169 26.3377 21.5524 26.2207 21.5524 26.1011C21.5524 25.9406 21.4887 25.7868 21.3752 25.6733C21.2617 25.5598 21.1079 25.4961 20.9474 25.4961Z" fill="#50D633"/>
<path d="M22.0152 22.8027C21.8813 22.8027 21.7505 22.8424 21.6392 22.9168C21.528 22.9911 21.4412 23.0968 21.39 23.2205C21.3388 23.3441 21.3254 23.4802 21.3515 23.6114C21.3776 23.7427 21.4421 23.8632 21.5367 23.9579C21.6313 24.0525 21.7519 24.117 21.8832 24.1431C22.0144 24.1692 22.1505 24.1558 22.2741 24.1046C22.3978 24.0533 22.5034 23.9666 22.5778 23.8553C22.6521 23.7441 22.6918 23.6132 22.6918 23.4794C22.6918 23.2999 22.6205 23.1278 22.4936 23.0009C22.3667 22.874 22.1946 22.8027 22.0152 22.8027Z" fill="#37CF45"/>
<path d="M23.6751 20.4541C23.5201 20.4541 23.3687 20.5 23.2399 20.5861C23.111 20.6722 23.0106 20.7945 22.9514 20.9377C22.8921 21.0808 22.8766 21.2383 22.9068 21.3903C22.937 21.5422 23.0116 21.6818 23.1212 21.7913C23.2307 21.9009 23.3703 21.9755 23.5222 22.0057C23.6742 22.0359 23.8317 22.0204 23.9748 21.9611C24.118 21.9019 24.2403 21.8014 24.3264 21.6726C24.4124 21.5438 24.4584 21.3924 24.4584 21.2374C24.4584 21.1346 24.4381 21.0327 24.3988 20.9377C24.3594 20.8426 24.3017 20.7563 24.229 20.6835C24.1562 20.6108 24.0699 20.5531 23.9748 20.5137C23.8798 20.4744 23.7779 20.4541 23.6751 20.4541Z" fill="#20C851"/>
<path d="M25.8289 18.6104C25.6599 18.6104 25.4947 18.6605 25.3542 18.7544C25.2137 18.8482 25.1042 18.9817 25.0395 19.1378C24.9749 19.2939 24.9579 19.4657 24.9909 19.6315C25.0239 19.7972 25.1053 19.9495 25.2247 20.069C25.3442 20.1885 25.4965 20.2699 25.6622 20.3028C25.828 20.3358 25.9998 20.3189 26.1559 20.2542C26.312 20.1895 26.4455 20.08 26.5394 19.9395C26.6333 19.799 26.6834 19.6338 26.6834 19.4648C26.6834 19.2382 26.5934 19.0209 26.4331 18.8606C26.2729 18.7004 26.0555 18.6104 25.8289 18.6104Z" fill="#0FC138"/>
<path d="M28.3801 17.3291C28.1944 17.3291 28.0128 17.3842 27.8584 17.4873C27.704 17.5905 27.5837 17.7371 27.5126 17.9087C27.4416 18.0803 27.423 18.269 27.4592 18.4512C27.4954 18.6333 27.5849 18.8006 27.7162 18.9319C27.8475 19.0632 28.0148 19.1526 28.1969 19.1888C28.379 19.2251 28.5678 19.2065 28.7393 19.1354C28.9109 19.0643 29.0575 18.944 29.1607 18.7896C29.2639 18.6352 29.3189 18.4537 29.3189 18.268C29.3189 18.019 29.22 17.7802 29.0439 17.6041C28.8679 17.428 28.6291 17.3291 28.3801 17.3291Z" fill="#10C143"/>
<path d="M31.229 16.7031C31.0242 16.7031 30.824 16.7639 30.6537 16.8776C30.4834 16.9914 30.3507 17.1532 30.2723 17.3424C30.1939 17.5316 30.1734 17.7398 30.2134 17.9407C30.2533 18.1416 30.352 18.3261 30.4968 18.4709C30.6416 18.6158 30.8261 18.7144 31.027 18.7543C31.2279 18.7943 31.4361 18.7738 31.6253 18.6954C31.8145 18.617 31.9763 18.4843 32.0901 18.314C32.2039 18.1437 32.2646 17.9435 32.2646 17.7387C32.2646 17.464 32.1555 17.2006 31.9613 17.0064C31.7671 16.8122 31.5037 16.7031 31.229 16.7031Z" fill="#0FC139"/>
<path d="M34.1739 16.7988C33.9431 16.7988 33.7176 16.8673 33.5257 16.9954C33.3338 17.1236 33.1843 17.3059 33.096 17.519C33.0077 17.7322 32.9846 17.9668 33.0296 18.1931C33.0746 18.4194 33.1857 18.6273 33.3489 18.7905C33.5121 18.9536 33.72 19.0647 33.9463 19.1097C34.1726 19.1548 34.4072 19.1317 34.6203 19.0434C34.8335 18.9551 35.0157 18.8055 35.1439 18.6137C35.2721 18.4218 35.3405 18.1962 35.3405 17.9655C35.3405 17.6561 35.2176 17.3593 34.9988 17.1405C34.78 16.9217 34.4833 16.7988 34.1739 16.7988Z" fill="#0FC138"/>
<path d="M36.8694 17.6729C36.6261 17.6729 36.3883 17.745 36.1861 17.8801C35.9838 18.0153 35.8261 18.2074 35.733 18.4322C35.6399 18.6569 35.6156 18.9042 35.663 19.1428C35.7105 19.3814 35.8276 19.6006 35.9997 19.7726C36.1717 19.9446 36.3908 20.0618 36.6294 20.1092C36.868 20.1567 37.1154 20.1323 37.3401 20.0392C37.5649 19.9461 37.757 19.7885 37.8921 19.5862C38.0273 19.3839 38.0994 19.1461 38.0994 18.9029C38.0994 18.5766 37.9698 18.2638 37.7392 18.0331C37.5085 17.8024 37.1956 17.6729 36.8694 17.6729Z" fill="#08BE28"/>
<path d="M39.2043 19.2939C38.9735 19.2939 38.748 19.3624 38.5561 19.4906C38.3642 19.6188 38.2147 19.801 38.1264 20.0141C38.0381 20.2273 38.015 20.4619 38.06 20.6882C38.105 20.9145 38.2161 21.1224 38.3793 21.2856C38.5425 21.4487 38.7503 21.5598 38.9767 21.6049C39.203 21.6499 39.4375 21.6268 39.6507 21.5385C39.8639 21.4502 40.0461 21.3006 40.1743 21.1088C40.3025 20.9169 40.3709 20.6914 40.3709 20.4606C40.3709 20.1512 40.248 19.8544 40.0292 19.6357C39.8104 19.4169 39.5137 19.2939 39.2043 19.2939Z" fill="#02BB19"/>
<path d="M41.0815 21.627C40.9023 21.627 40.7271 21.6801 40.5781 21.7797C40.4291 21.8792 40.313 22.0207 40.2444 22.1863C40.1758 22.3519 40.1579 22.5341 40.1928 22.7098C40.2278 22.8856 40.3141 23.0471 40.4408 23.1738C40.5675 23.3005 40.729 23.3868 40.9047 23.4218C41.0805 23.4567 41.2627 23.4388 41.4283 23.3702C41.5938 23.3016 41.7354 23.1855 41.8349 23.0365C41.9345 22.8875 41.9876 22.7123 41.9876 22.5331C41.9876 22.2927 41.8922 22.0623 41.7222 21.8923C41.5523 21.7224 41.3218 21.627 41.0815 21.627Z" fill="#00BA14"/>
</g>
<defs>
<clipPath id="clip0_17011_10043">
<rect width="120" height="24.5928" fill="white" transform="translate(20 16.7031)"/>
</clipPath>
</defs>
</svg>
