<svg width="140" height="50" viewBox="0 0 140 50" fill="none" xmlns="http://www.w3.org/2000/svg">
<path d="M48.8387 23.9046C47.5879 23.9046 46.7438 24.8585 46.7438 26.0621C46.7438 27.2658 47.6036 28.2352 48.8231 28.2352C49.5891 28.2352 50.1987 27.9695 50.6677 27.5005L51.6371 28.9077C51.0431 29.564 49.9642 30.0329 48.7762 30.0329C46.5565 30.0329 44.8367 28.2506 44.8367 26.0775C44.8367 23.8887 46.5565 22.1067 48.745 22.1067C50.0268 22.1067 51.0431 22.5444 51.6997 23.2325L50.6054 24.5925C50.1365 24.1391 49.5734 23.9046 48.8387 23.9046Z" fill="#39396D"/>
<path d="M53.0747 19.0582H54.9821V29.8141H53.0747V19.0582Z" fill="#39396D"/>
<path d="M56.7167 26.0778C56.7167 23.889 58.3425 22.107 60.4999 22.107C62.6418 22.107 64.2675 23.764 64.2675 25.9214C64.2675 26.1559 64.2519 26.4217 64.2206 26.5467H58.6707C58.8583 27.5941 59.6555 28.3447 60.8126 28.3447C61.5629 28.3447 62.2038 28.0164 62.6418 27.5631L63.6266 28.8605C63.0636 29.5171 62.0006 30.0329 60.7344 30.0329C58.4052 30.0329 56.7167 28.2509 56.7167 26.0778ZM58.7023 25.3431H62.3135C62.0947 24.2798 61.4225 23.7327 60.5312 23.7327C59.5776 23.7327 58.9211 24.3892 58.7023 25.3431Z" fill="#39396D"/>
<path d="M72.5842 22.3258L69.8797 29.8143H67.4095L64.6893 22.3258H66.7843L68.6914 28.1102L70.63 22.3258H72.5842Z" fill="#39396D"/>
<path d="M73.1149 26.0778C73.1149 23.889 74.7407 22.107 76.8981 22.107C79.04 22.107 80.6657 23.764 80.6657 25.9214C80.6657 26.1559 80.6501 26.4217 80.6188 26.5467H75.0689C75.2565 27.5941 76.0538 28.3447 77.2108 28.3447C77.9611 28.3447 78.602 28.0164 79.04 27.5631L80.0248 28.8605C79.4618 29.5171 78.3988 30.0329 77.1326 30.0329C74.8032 30.0329 73.1149 28.2509 73.1149 26.0778ZM75.1002 25.3431H78.7115C78.4926 24.2798 77.8204 23.7327 76.9291 23.7327C75.9759 23.7327 75.3193 24.3892 75.1002 25.3431ZM84.2139 29.8141H82.3065V22.3256H84.2139V23.1384C84.636 22.5131 85.2613 22.1064 86.0429 22.1064C86.5431 22.1064 86.9495 22.2471 87.2465 22.4816L86.4493 24.2952C86.1992 24.092 85.824 23.9669 85.4645 23.9669C84.6985 23.9669 84.2139 24.6078 84.2139 25.6242V29.8141ZM95.5158 23.9046C94.265 23.9046 93.4209 24.8585 93.4209 26.0621C93.4209 27.2658 94.2806 28.2352 95.5002 28.2352C96.2662 28.2352 96.8758 27.9695 97.3448 27.5005L98.3142 28.9077C97.7202 29.5645 96.6416 30.0334 95.4533 30.0334C93.2336 30.0334 91.5138 28.2511 91.5138 26.078C91.5138 23.8893 93.2336 22.1072 95.422 22.1072C96.7039 22.1072 97.7202 22.5449 98.3768 23.233L97.2825 24.593C96.8133 24.1391 96.2505 23.9046 95.5158 23.9046Z" fill="#39396D"/>
<path d="M99.7516 19.0582H101.659V29.8141H99.7516V19.0582Z" fill="#39396D"/>
<path d="M103.394 26.0778C103.394 23.889 105.114 22.107 107.286 22.107C109.459 22.107 111.195 23.8893 111.195 26.0778C111.195 28.2509 109.459 30.0332 107.286 30.0332C105.114 30.0332 103.394 28.2509 103.394 26.0778ZM109.272 26.0621C109.272 24.8585 108.443 23.9046 107.302 23.9046C106.145 23.9046 105.301 24.8585 105.301 26.0621C105.301 27.2658 106.145 28.2352 107.302 28.2352C108.443 28.2352 109.272 27.2658 109.272 26.0621ZM114.727 26.3748C114.727 27.469 115.368 28.204 116.321 28.204C117.275 28.204 117.916 27.4693 117.916 26.3748V22.3258H119.824V26.5155C119.824 28.6104 118.432 30.0016 116.322 30.0016C114.211 30.0016 112.82 28.6104 112.82 26.5155V22.3258H114.727V26.3748H114.727ZM129.265 19.0582V29.8141H127.342V29.0012C126.795 29.6421 126.029 30.0332 125.059 30.0332C123.074 30.0332 121.464 28.4072 121.464 26.0778C121.464 23.8109 122.98 22.107 125.059 22.107C126.044 22.107 126.81 22.4665 127.342 23.0762V19.0582H129.265ZM127.342 26.0621C127.342 24.8585 126.514 23.9046 125.372 23.9046C124.215 23.9046 123.371 24.8585 123.371 26.0621C123.371 27.2658 124.215 28.2352 125.372 28.2352C126.513 28.2352 127.342 27.2658 127.342 26.0621Z" fill="#39396D"/>
<path d="M37.2292 17.3509V32.6474L34.3937 28.9895L32.8144 24.9997H32.8133L34.3135 20.9534L37.2292 17.3509Z" fill="#AB2B4A"/>
<path d="M10.7359 17.3509V32.6474L13.2423 29.1006L15.1508 24.9997H15.1518L13.2116 21.1092L10.7359 17.3509Z" fill="#E87A68"/>
<path d="M32.8133 24.9997L24.4635 25.5296L15.1508 24.9997L19.037 17.3509L23.9826 9.70312L29.36 18.0999L32.8133 24.9997Z" fill="#D74D4E"/>
<path d="M37.2292 17.3509L32.8133 24.9997L23.9826 9.70312L37.2292 17.3509Z" fill="#BD3246"/>
<path d="M23.9826 9.70312L15.1508 24.9997L10.7349 17.3509L23.9826 9.70312Z" fill="#F19175"/>
<path d="M32.8133 24.9997L29.7953 31.6043L23.9826 40.2962L18.0008 31.3126L15.1508 24.9997H32.8133Z" fill="#CF3942"/>
<path d="M23.9826 40.2962L10.7349 32.6474L15.1508 24.9997L23.9826 40.2962Z" fill="#E0625B"/>
<path d="M23.9815 40.2962L37.2292 32.6474L32.8133 24.9997L23.9815 40.2962Z" fill="#9A244F"/>
</svg>
