<svg width="160" height="58" viewBox="0 0 160 58" fill="none" xmlns="http://www.w3.org/2000/svg">
<path d="M58.8387 28.7621C57.5879 28.7621 56.7438 29.7159 56.7438 30.9195C56.7438 32.1232 57.6036 33.0927 58.8231 33.0927C59.5891 33.0927 60.1987 32.8269 60.6677 32.358L61.6371 33.7651C61.0431 34.4214 59.9642 34.8903 58.7762 34.8903C56.5565 34.8903 54.8367 33.108 54.8367 30.9349C54.8367 28.7462 56.5565 26.9641 58.745 26.9641C60.0268 26.9641 61.0431 27.4018 61.6997 28.0899L60.6054 29.4499C60.1365 28.9965 59.5734 28.7621 58.8387 28.7621Z" fill="#39396D"/>
<path d="M63.0747 23.9156H64.9821V34.6715H63.0747V23.9156Z" fill="#39396D"/>
<path d="M66.7167 30.9352C66.7167 28.7464 68.3425 26.9644 70.4999 26.9644C72.6418 26.9644 74.2675 28.6214 74.2675 30.7789C74.2675 31.0133 74.2519 31.2791 74.2206 31.4041H68.6707C68.8583 32.4515 69.6555 33.2021 70.8126 33.2021C71.5629 33.2021 72.2038 32.8738 72.6418 32.4205L73.6266 33.7179C73.0636 34.3745 72.0006 34.8903 70.7344 34.8903C68.4052 34.8903 66.7167 33.1083 66.7167 30.9352ZM68.7023 30.2005H72.3135C72.0947 29.1372 71.4225 28.5901 70.5312 28.5901C69.5776 28.5901 68.9211 29.2467 68.7023 30.2005Z" fill="#39396D"/>
<path d="M82.5842 27.1832L79.8797 34.6718H77.4095L74.6893 27.1832H76.7843L78.6914 32.9676L80.63 27.1832H82.5842Z" fill="#39396D"/>
<path d="M83.1149 30.9352C83.1149 28.7464 84.7407 26.9644 86.8981 26.9644C89.04 26.9644 90.6657 28.6214 90.6657 30.7789C90.6657 31.0133 90.6501 31.2791 90.6188 31.4041H85.0689C85.2565 32.4515 86.0538 33.2021 87.2108 33.2021C87.9611 33.2021 88.602 32.8738 89.04 32.4205L90.0248 33.7179C89.4618 34.3745 88.3988 34.8903 87.1326 34.8903C84.8032 34.8903 83.1149 33.1083 83.1149 30.9352ZM85.1002 30.2005H88.7115C88.4926 29.1372 87.8204 28.5901 86.9291 28.5901C85.9759 28.5901 85.3193 29.2467 85.1002 30.2005ZM94.2139 34.6715H92.3065V27.183H94.2139V27.9958C94.636 27.3706 95.2613 26.9639 96.0429 26.9639C96.5431 26.9639 96.9495 27.1045 97.2465 27.339L96.4493 29.1526C96.1992 28.9494 95.824 28.8243 95.4645 28.8243C94.6985 28.8243 94.2139 29.4652 94.2139 30.4816V34.6715ZM105.516 28.7621C104.265 28.7621 103.421 29.7159 103.421 30.9195C103.421 32.1232 104.281 33.0927 105.5 33.0927C106.266 33.0927 106.876 32.8269 107.345 32.358L108.314 33.7651C107.72 34.4219 106.642 34.8909 105.453 34.8909C103.234 34.8909 101.514 33.1086 101.514 30.9354C101.514 28.7467 103.234 26.9647 105.422 26.9647C106.704 26.9647 107.72 27.4024 108.377 28.0904L107.283 29.4504C106.813 28.9965 106.251 28.7621 105.516 28.7621Z" fill="#39396D"/>
<path d="M109.752 23.9156H111.659V34.6715H109.752V23.9156Z" fill="#39396D"/>
<path d="M113.394 30.9352C113.394 28.7464 115.114 26.9644 117.286 26.9644C119.459 26.9644 121.195 28.7467 121.195 30.9352C121.195 33.1083 119.459 34.8906 117.286 34.8906C115.114 34.8906 113.394 33.1083 113.394 30.9352ZM119.272 30.9195C119.272 29.7159 118.443 28.7621 117.302 28.7621C116.145 28.7621 115.301 29.7159 115.301 30.9195C115.301 32.1232 116.145 33.0927 117.302 33.0927C118.443 33.0927 119.272 32.1232 119.272 30.9195ZM124.727 31.2322C124.727 32.3264 125.368 33.0614 126.321 33.0614C127.275 33.0614 127.916 32.3267 127.916 31.2322V27.1832H129.824V31.3729C129.824 33.4678 128.432 34.8591 126.322 34.8591C124.211 34.8591 122.82 33.4678 122.82 31.3729V27.1832H124.727V31.2322H124.727ZM139.265 23.9156V34.6715H137.342V33.8586C136.795 34.4995 136.029 34.8906 135.059 34.8906C133.074 34.8906 131.464 33.2646 131.464 30.9352C131.464 28.6683 132.98 26.9644 135.059 26.9644C136.044 26.9644 136.81 27.3239 137.342 27.9336V23.9156H139.265ZM137.342 30.9195C137.342 29.7159 136.514 28.7621 135.372 28.7621C134.215 28.7621 133.371 29.7159 133.371 30.9195C133.371 32.1232 134.215 33.0927 135.372 33.0927C136.513 33.0927 137.342 32.1232 137.342 30.9195Z" fill="#39396D"/>
<path d="M47.2292 22.2083V37.5048L44.3937 33.847L42.8144 29.8571H42.8133L44.3135 25.8108L47.2292 22.2083Z" fill="#AB2B4A"/>
<path d="M20.7359 22.2083V37.5048L23.2423 33.958L25.1508 29.8571H25.1518L23.2116 25.9666L20.7359 22.2083Z" fill="#E87A68"/>
<path d="M42.8133 29.8571L34.4635 30.387L25.1508 29.8571L29.037 22.2083L33.9826 14.5605L39.36 22.9573L42.8133 29.8571Z" fill="#D74D4E"/>
<path d="M47.2292 22.2083L42.8133 29.8571L33.9826 14.5605L47.2292 22.2083Z" fill="#BD3246"/>
<path d="M33.9826 14.5605L25.1508 29.8571L20.7349 22.2083L33.9826 14.5605Z" fill="#F19175"/>
<path d="M42.8133 29.8571L39.7953 36.4617L33.9826 45.1537L28.0008 36.17L25.1508 29.8571H42.8133Z" fill="#CF3942"/>
<path d="M33.9826 45.1537L20.7349 37.5048L25.1508 29.8571L33.9826 45.1537Z" fill="#E0625B"/>
<path d="M33.9815 45.1537L47.2292 37.5048L42.8133 29.8571L33.9815 45.1537Z" fill="#9A244F"/>
</svg>
