<svg width="140" height="50" viewBox="0 0 140 50" fill="none" xmlns="http://www.w3.org/2000/svg">
<g clip-path="url(#clip0_17011_10043)">
<path d="M39.0468 30.3722C38.2321 30.3711 37.4284 30.1837 36.6973 29.8243C35.9662 29.465 35.3269 28.9432 34.8283 28.2989C34.3297 27.6546 33.9851 26.9049 33.8207 26.1069C33.6563 25.309 33.6766 24.4841 33.8799 23.6952C34.0833 22.9063 34.4643 22.1743 34.9939 21.5553C35.5235 20.9362 36.1877 20.4465 36.9356 20.1235C37.6835 19.8005 38.4953 19.6528 39.3091 19.6916C40.1228 19.7305 40.9169 19.9549 41.6306 20.3478C42.3985 20.769 43.0378 21.3905 43.4806 22.1461L43.5212 22.2161L41.9295 23.1394L41.8901 23.0661C41.6254 22.5757 41.2262 22.1709 40.7395 21.8994C40.223 21.6094 39.6391 21.4605 39.0468 21.4678C38.5717 21.4492 38.0979 21.5289 37.655 21.7018C37.2121 21.8747 36.8097 22.1372 36.4729 22.4728C35.8393 23.1722 35.4884 24.0823 35.4884 25.0261C35.4884 25.9699 35.8393 26.8799 36.4729 27.5794C36.8097 27.915 37.2121 28.1775 37.655 28.3504C38.0979 28.5233 38.5717 28.603 39.0468 28.5844C39.6414 28.5912 40.2274 28.4424 40.7468 28.1528C41.2339 27.8861 41.6313 27.4814 41.889 26.9894L41.9279 26.915L43.5207 27.8228L43.4806 27.8928C43.0457 28.6508 42.4117 29.2753 41.6473 29.6989C40.8543 30.1452 39.9583 30.3762 39.0484 30.3689" fill="black"/>
<path d="M45.8904 19.8467H44.1632V30.1839H45.8904V19.8467Z" fill="black"/>
<path d="M57.123 30.184L54.2341 22.7734H56.1152L58.0891 28.1451L60.048 22.7734H61.933L59.0441 30.184H57.123Z" fill="black"/>
<path d="M70.1295 30.1852V22.7752H71.8567V23.7413C72.0804 23.3781 72.3998 23.0836 72.7798 22.8901C73.1599 22.6967 73.586 22.6117 74.0112 22.6446H74.0918V24.5074L74.0062 24.5018C73.944 24.4978 73.8827 24.4957 73.8223 24.4957C73.3456 24.488 72.8792 24.6348 72.4928 24.914C72.2701 25.0994 72.096 25.3363 71.9855 25.6041C71.875 25.872 71.8316 26.1628 71.859 26.4513V30.1852H70.1295Z" fill="black"/>
<path d="M80.4557 30.3722C79.641 30.3711 78.8374 30.1837 78.1062 29.8243C77.3751 29.465 76.7358 28.9432 76.2372 28.2989C75.7386 27.6546 75.394 26.9049 75.2296 26.1069C75.0653 25.309 75.0855 24.4841 75.2889 23.6952C75.4922 22.9063 75.8733 22.1743 76.4029 21.5553C76.9325 20.9362 77.5966 20.4465 78.3445 20.1235C79.0924 19.8005 79.9043 19.6528 80.718 19.6916C81.5318 19.7305 82.3259 19.9549 83.0396 20.3478C83.8075 20.769 84.4468 21.3905 84.8896 22.1461L84.9301 22.2161L83.3385 23.1394L83.299 23.0661C83.0343 22.5757 82.6352 22.171 82.1485 21.8994C81.6319 21.6094 81.0481 21.4605 80.4557 21.4678C79.9806 21.4492 79.5068 21.5289 79.0639 21.7018C78.6211 21.8748 78.2186 22.1372 77.8818 22.4728C77.2482 23.1722 76.8973 24.0823 76.8973 25.0261C76.8973 25.9699 77.2482 26.8799 77.8818 27.5794C78.2186 27.915 78.621 28.1775 79.0639 28.3504C79.5068 28.5233 79.9806 28.603 80.4557 28.5844C81.0505 28.5913 81.6367 28.4425 82.1562 28.1528C82.6435 27.8861 83.0411 27.4814 83.299 26.9894L83.3374 26.915L84.9301 27.8228L84.8901 27.8928C84.4553 28.6508 83.8213 29.2754 83.0568 29.6989C82.2638 30.1452 81.3678 30.3762 80.4579 30.3689" fill="black"/>
<path d="M89.2776 30.3722C88.7643 30.3808 88.2545 30.2857 87.7789 30.0923C87.3032 29.899 86.8716 29.6115 86.5098 29.2472C85.7794 28.5109 85.3695 27.5157 85.3695 26.4786C85.3695 25.4414 85.7794 24.4463 86.5098 23.71C87.252 22.9885 88.2462 22.585 89.2813 22.585C90.3163 22.585 91.3105 22.9885 92.0526 23.71C92.6039 24.2552 92.9799 24.9525 93.1323 25.7127C93.2848 26.473 93.2068 27.2614 92.9085 27.977C92.6101 28.6926 92.1049 29.3029 91.4575 29.7296C90.8102 30.1563 90.0501 30.3801 89.2748 30.3722M89.2748 24.2683C88.987 24.2621 88.7009 24.3147 88.434 24.4229C88.1671 24.531 87.9251 24.6924 87.7227 24.8972C87.3188 25.3247 87.0938 25.8905 87.0938 26.4786C87.0938 27.0667 87.3188 27.6325 87.7227 28.06C88.1388 28.4633 88.6956 28.6889 89.2751 28.6889C89.8547 28.6889 90.4115 28.4633 90.8276 28.06C91.2315 27.6325 91.4565 27.0667 91.4565 26.4786C91.4565 25.8905 91.2315 25.3247 90.8276 24.8972C90.6253 24.6923 90.3832 24.5309 90.1163 24.4228C89.8495 24.3146 89.5633 24.2621 89.2754 24.2683" fill="black"/>
<path d="M99.0871 30.184V25.8118C99.1016 25.5961 99.0726 25.3796 99.002 25.1752C98.9314 24.9708 98.8206 24.7826 98.676 24.6218C98.5248 24.4805 98.3467 24.3712 98.1522 24.3005C97.9577 24.2298 97.751 24.199 97.5443 24.2101C97.3091 24.2002 97.0744 24.2387 96.8546 24.323C96.6349 24.4074 96.4347 24.5359 96.2666 24.7007C95.9117 25.1227 95.7376 25.6677 95.7821 26.2174V30.1835H94.0549V22.7735H95.7821V23.5285C96.0427 23.2108 96.3751 22.9595 96.7517 22.7953C97.1284 22.6311 97.5387 22.5587 97.9488 22.584C98.3325 22.5693 98.7151 22.6348 99.0721 22.7763C99.4291 22.9177 99.7527 23.1321 100.022 23.4057C100.573 24.0198 100.857 24.8271 100.813 25.6507V30.1824L99.0871 30.184Z" fill="black"/>
<path d="M106.894 30.184V25.8118C106.909 25.5961 106.88 25.3796 106.809 25.1752C106.738 24.9708 106.628 24.7826 106.483 24.6218C106.332 24.4805 106.153 24.3712 105.959 24.3004C105.764 24.2297 105.557 24.199 105.351 24.2101C105.116 24.2002 104.881 24.2387 104.661 24.323C104.441 24.4074 104.241 24.5359 104.073 24.7007C103.718 25.1227 103.544 25.6677 103.589 26.2174V30.1835H101.861V22.7735H103.589V23.5285C103.849 23.2108 104.181 22.9595 104.558 22.7953C104.935 22.6311 105.345 22.5587 105.755 22.584C106.139 22.5691 106.522 22.6346 106.88 22.7763C107.237 22.918 107.561 23.1328 107.831 23.4068C108.381 24.0209 108.666 24.8283 108.622 25.6518V30.1835L106.894 30.184Z" fill="black"/>
<path d="M121.444 30.3725C120.929 30.3786 120.418 30.2825 119.94 30.0895C119.462 29.8966 119.027 29.6108 118.661 29.2486C118.294 28.8865 118.003 28.4552 117.805 27.9797C117.606 27.5043 117.504 26.9941 117.504 26.4788C117.504 25.9636 117.606 25.4534 117.805 24.978C118.003 24.5025 118.294 24.0712 118.661 23.7091C119.027 23.3469 119.462 23.0611 119.94 22.8682C120.418 22.6753 120.929 22.5791 121.444 22.5852C122.135 22.5784 122.815 22.7574 123.413 23.1036C123.985 23.4287 124.449 23.914 124.749 24.4997L124.783 24.5675L123.293 25.4325L123.256 25.353C123.102 25.0252 122.853 24.7517 122.541 24.5686C122.203 24.3742 121.819 24.2753 121.43 24.2825C121.143 24.2758 120.858 24.3281 120.592 24.4362C120.326 24.5442 120.085 24.7058 119.885 24.9108C119.485 25.3348 119.263 25.8954 119.263 26.478C119.263 27.0606 119.485 27.6212 119.885 28.0452C120.085 28.2502 120.326 28.4118 120.592 28.5199C120.858 28.628 121.143 28.6803 121.43 28.6736C121.82 28.6783 122.204 28.5769 122.541 28.3802C122.858 28.1974 123.117 27.9275 123.286 27.6025L123.324 27.5275L124.814 28.3764L124.777 28.4458C124.464 29.0345 123.991 29.5228 123.412 29.8547C122.814 30.2008 122.134 30.3799 121.444 30.373" fill="black"/>
<path d="M128.958 30.2474C128.377 30.2833 127.797 30.1481 127.292 29.8585C126.749 29.4913 126.473 28.8129 126.473 27.8418V24.4429H125.14V22.7763H126.473V21.2279L128.201 20.5996V22.7741H129.998V24.4407H128.201V27.8396C128.191 27.9447 128.202 28.0507 128.233 28.1515C128.264 28.2522 128.315 28.3458 128.383 28.4268C128.537 28.5557 128.733 28.6249 128.933 28.6218C129.046 28.6278 129.171 28.6307 129.308 28.6307C129.49 28.6307 129.697 28.6252 129.92 28.6141L130.004 28.6102V30.1724L129.933 30.1807C129.612 30.2213 129.287 30.2426 128.963 30.2446" fill="black"/>
<path d="M52.6391 27.9092C52.5743 27.9878 52.5043 28.0621 52.4296 28.1314C51.953 28.57 51.3244 28.8059 50.6768 28.7892C50.392 28.7938 50.1096 28.7374 49.8483 28.624C49.587 28.5106 49.353 28.3426 49.1619 28.1314C49.0927 28.056 49.0286 27.976 48.9702 27.892L52.8035 26.4964L54.448 25.8981C54.3464 25.0704 53.9719 24.3002 53.3835 23.7092C53.0291 23.3526 52.6077 23.0696 52.1435 22.8765C51.6793 22.6834 51.1815 22.584 50.6788 22.584C50.176 22.584 49.6783 22.6834 49.2141 22.8765C48.7499 23.0696 48.3285 23.3526 47.9741 23.7092C47.2599 24.454 46.8611 25.4459 46.8611 26.4778C46.8611 27.5097 47.2599 28.5017 47.9741 29.2464C48.3231 29.6091 48.743 29.8961 49.2077 30.0896C49.6724 30.2831 50.1719 30.3791 50.6752 30.3714C51.7606 30.3961 52.812 29.9919 53.6013 29.2464C53.7645 29.0924 53.9146 28.9252 54.0502 28.7464L53.9657 28.6842L52.6391 27.9092ZM49.1619 24.8242C49.3558 24.6166 49.5904 24.4511 49.851 24.3379C50.1116 24.2247 50.3927 24.1663 50.6768 24.1663C50.961 24.1663 51.2421 24.2247 51.5027 24.3379C51.7633 24.4511 51.9979 24.6166 52.1919 24.8242C52.2559 24.8944 52.3155 24.9686 52.3702 25.0464L48.5502 26.4353C48.5404 25.8399 48.7591 25.2634 49.1613 24.8242" fill="black"/>
<path d="M67.4704 27.9092C67.4056 27.9878 67.3356 28.062 67.261 28.1314C66.7844 28.57 66.1557 28.8059 65.5082 28.7892C65.2234 28.7938 64.9409 28.7374 64.6796 28.624C64.4184 28.5106 64.1843 28.3426 63.9932 28.1314C63.924 28.056 63.86 27.976 63.8016 27.892L67.6349 26.4964L69.2793 25.8981C69.1779 25.0705 68.8036 24.3003 68.2154 23.7092C67.861 23.3526 67.4396 23.0696 66.9754 22.8765C66.5112 22.6834 66.0135 22.584 65.5107 22.584C65.008 22.584 64.5102 22.6834 64.046 22.8765C63.5818 23.0696 63.1604 23.3526 62.806 23.7092C62.0918 24.454 61.693 25.4459 61.693 26.4778C61.693 27.5097 62.0918 28.5017 62.806 29.2464C63.1551 29.6091 63.575 29.8961 64.0396 30.0896C64.5043 30.2831 65.0038 30.3791 65.5071 30.3714C66.5923 30.396 67.6435 29.9918 68.4327 29.2464C68.5958 29.0924 68.746 28.9252 68.8815 28.7464L68.7971 28.6842L67.4704 27.9092ZM63.9932 24.8242C64.1872 24.6166 64.4218 24.4511 64.6824 24.3379C64.943 24.2247 65.2241 24.1663 65.5082 24.1663C65.7923 24.1663 66.0734 24.2247 66.3341 24.3379C66.5947 24.4511 66.8292 24.6166 67.0232 24.8242C67.0873 24.8944 67.1469 24.9686 67.2015 25.0464L63.3815 26.4353C63.3718 25.8399 63.5905 25.2634 63.9927 24.8242" fill="black"/>
<path d="M115.177 27.9092C115.112 27.9878 115.042 28.0621 114.967 28.1314C114.491 28.57 113.862 28.8059 113.215 28.7892C112.93 28.7938 112.647 28.7374 112.386 28.624C112.125 28.5106 111.891 28.3426 111.7 28.1314C111.63 28.056 111.566 27.976 111.508 27.892L115.341 26.4964L116.986 25.8981C116.884 25.0705 116.51 24.3003 115.922 23.7092C115.567 23.3526 115.146 23.0696 114.682 22.8765C114.218 22.6834 113.72 22.584 113.217 22.584C112.714 22.584 112.216 22.6834 111.752 22.8765C111.288 23.0696 110.867 23.3526 110.512 23.7092C109.798 24.454 109.399 25.4459 109.399 26.4778C109.399 27.5097 109.798 28.5017 110.512 29.2464C110.861 29.6091 111.281 29.8961 111.746 30.0896C112.211 30.2831 112.71 30.3791 113.213 30.3714C114.299 30.396 115.35 29.9918 116.139 29.2464C116.302 29.0924 116.452 28.9252 116.588 28.7464L116.503 28.6842L115.177 27.9092ZM111.7 24.8242C111.894 24.6166 112.128 24.4511 112.389 24.3379C112.649 24.2247 112.93 24.1663 113.215 24.1663C113.499 24.1663 113.78 24.2247 114.04 24.3379C114.301 24.4511 114.536 24.6166 114.73 24.8242C114.794 24.8944 114.853 24.9686 114.908 25.0464L111.088 26.4353C111.078 25.8399 111.297 25.2634 111.699 24.8242" fill="black"/>
<path d="M26.6838 21.4064C26.6838 21.519 26.6504 21.6291 26.5878 21.7227C26.5253 21.8164 26.4363 21.8894 26.3323 21.9325C26.2282 21.9756 26.1137 21.9868 26.0033 21.9649C25.8928 21.9429 25.7913 21.8887 25.7117 21.809C25.6321 21.7294 25.5778 21.6279 25.5559 21.5175C25.5339 21.407 25.5452 21.2925 25.5883 21.1884C25.6314 21.0844 25.7044 20.9955 25.798 20.9329C25.8916 20.8703 26.0017 20.8369 26.1144 20.8369C26.2654 20.8369 26.4102 20.8969 26.517 21.0037C26.6238 21.1105 26.6838 21.2553 26.6838 21.4064Z" fill="#01BA18"/>
<path d="M23.9699 19.126C23.8291 19.126 23.6913 19.1677 23.5742 19.246C23.4571 19.3243 23.3658 19.4355 23.3119 19.5656C23.258 19.6958 23.2439 19.839 23.2714 19.9771C23.2989 20.1153 23.3667 20.2422 23.4663 20.3418C23.5659 20.4414 23.6928 20.5093 23.831 20.5367C23.9691 20.5642 24.1123 20.5501 24.2425 20.4962C24.3726 20.4423 24.4838 20.351 24.5621 20.2339C24.6404 20.1168 24.6821 19.9791 24.6821 19.8382C24.6821 19.6493 24.6071 19.4681 24.4735 19.3346C24.34 19.201 24.1588 19.126 23.9699 19.126Z" fill="#0BBF2F"/>
<path d="M21.2339 18.6104C21.0674 18.6104 20.9047 18.6597 20.7663 18.7522C20.6279 18.8447 20.52 18.9761 20.4563 19.1299C20.3926 19.2837 20.3759 19.453 20.4084 19.6162C20.4409 19.7795 20.521 19.9295 20.6387 20.0472C20.7564 20.1649 20.9064 20.245 21.0697 20.2775C21.2329 20.31 21.4022 20.2933 21.556 20.2296C21.7098 20.1659 21.8412 20.058 21.9337 19.9196C22.0262 19.7812 22.0755 19.6185 22.0755 19.452C22.0755 19.2288 21.9869 19.0147 21.829 18.8569C21.6712 18.699 21.4571 18.6104 21.2339 18.6104Z" fill="#0FC139"/>
<path d="M18.7054 19.3848C18.5069 19.3848 18.3129 19.4436 18.1479 19.5539C17.9829 19.6641 17.8543 19.8208 17.7784 20.0041C17.7025 20.1875 17.6826 20.3892 17.7213 20.5838C17.76 20.7785 17.8556 20.9572 17.9959 21.0976C18.1362 21.2379 18.315 21.3334 18.5096 21.3722C18.7042 21.4109 18.906 21.391 19.0893 21.3151C19.2727 21.2391 19.4294 21.1105 19.5396 20.9455C19.6498 20.7805 19.7087 20.5865 19.7087 20.3881C19.7087 20.122 19.603 19.8668 19.4148 19.6786C19.2267 19.4905 18.9715 19.3848 18.7054 19.3848Z" fill="#18C552"/>
<path d="M16.9338 21.2529C16.7161 21.2529 16.5034 21.3175 16.3224 21.4384C16.1414 21.5593 16.0003 21.7312 15.917 21.9323C15.8337 22.1334 15.8119 22.3547 15.8544 22.5682C15.8969 22.7817 16.0017 22.9778 16.1556 23.1317C16.3095 23.2856 16.5056 23.3904 16.7191 23.4329C16.9326 23.4754 17.1539 23.4536 17.355 23.3703C17.5561 23.287 17.728 23.1459 17.8489 22.9649C17.9698 22.7839 18.0344 22.5712 18.0344 22.3535C18.0344 22.0616 17.9184 21.7817 17.712 21.5753C17.5056 21.3689 17.2257 21.2529 16.9338 21.2529Z" fill="#44D33B"/>
<path d="M16.2657 23.834C16.0349 23.834 15.8094 23.9024 15.6175 24.0306C15.4256 24.1588 15.2761 24.341 15.1878 24.5542C15.0995 24.7674 15.0764 25.0019 15.1214 25.2283C15.1664 25.4546 15.2775 25.6624 15.4407 25.8256C15.6039 25.9888 15.8117 26.0999 16.0381 26.1449C16.2644 26.1899 16.499 26.1668 16.7121 26.0785C16.9253 25.9902 17.1075 25.8407 17.2357 25.6488C17.3639 25.457 17.4323 25.2314 17.4323 25.0007C17.4323 24.6912 17.3094 24.3945 17.0906 24.1757C16.8718 23.9569 16.5751 23.834 16.2657 23.834Z" fill="#66DC22"/>
<path d="M16.9338 26.5439C16.7161 26.5439 16.5034 26.6085 16.3224 26.7294C16.1414 26.8504 16.0003 27.0222 15.917 27.2233C15.8337 27.4244 15.8119 27.6457 15.8544 27.8592C15.8969 28.0727 16.0017 28.2688 16.1556 28.4227C16.3095 28.5766 16.5056 28.6814 16.7191 28.7239C16.9326 28.7664 17.1539 28.7446 17.355 28.6613C17.5561 28.578 17.728 28.4369 17.8489 28.2559C17.9698 28.075 18.0344 27.8622 18.0344 27.6445C18.0344 27.3526 17.9184 27.0727 17.712 26.8663C17.5056 26.6599 17.2257 26.5439 16.9338 26.5439Z" fill="#89E60B"/>
<path d="M18.7054 28.6074C18.5069 28.6074 18.3129 28.6663 18.1479 28.7765C17.9829 28.8868 17.8543 29.0435 17.7784 29.2268C17.7025 29.4101 17.6826 29.6119 17.7213 29.8065C17.76 30.0011 17.8556 30.1799 17.9959 30.3202C18.1362 30.4605 18.315 30.5561 18.5096 30.5948C18.7042 30.6335 18.906 30.6137 19.0893 30.5377C19.2727 30.4618 19.4294 30.3332 19.5396 30.1682C19.6498 30.0032 19.7087 29.8092 19.7087 29.6108C19.7087 29.3447 19.603 29.0895 19.4148 28.9013C19.2267 28.7131 18.9715 28.6074 18.7054 28.6074Z" fill="#66E51F"/>
<path d="M21.2339 29.7061C21.0674 29.7061 20.9047 29.7554 20.7663 29.8479C20.6279 29.9404 20.52 30.0718 20.4563 30.2256C20.3926 30.3794 20.3759 30.5487 20.4084 30.7119C20.4409 30.8752 20.521 31.0252 20.6387 31.1429C20.7564 31.2606 20.9064 31.3407 21.0697 31.3732C21.2329 31.4057 21.4022 31.389 21.556 31.3253C21.7098 31.2616 21.8412 31.1537 21.9337 31.0153C22.0262 30.8769 22.0755 30.7142 22.0755 30.5477C22.0755 30.3245 21.9869 30.1104 21.829 29.9526C21.6712 29.7947 21.4571 29.7061 21.2339 29.7061Z" fill="#11DB62"/>
<path d="M23.9699 29.4492C23.8291 29.4492 23.6913 29.491 23.5742 29.5693C23.4571 29.6475 23.3658 29.7587 23.3119 29.8889C23.258 30.019 23.2439 30.1622 23.2714 30.3004C23.2989 30.4385 23.3667 30.5654 23.4663 30.6651C23.5659 30.7647 23.6928 30.8325 23.831 30.86C23.9691 30.8875 24.1123 30.8734 24.2425 30.8194C24.3726 30.7655 24.4838 30.6743 24.5621 30.5571C24.6404 30.44 24.6821 30.3023 24.6821 30.1614C24.6821 29.9725 24.6071 29.7914 24.4735 29.6578C24.34 29.5243 24.1588 29.4492 23.9699 29.4492Z" fill="#00DEA7"/>
<path d="M26.114 28.0234C26.0014 28.0234 25.8913 28.0568 25.7976 28.1194C25.704 28.182 25.631 28.2709 25.5879 28.375C25.5448 28.479 25.5335 28.5935 25.5555 28.704C25.5775 28.8144 25.6317 28.9159 25.7113 28.9955C25.791 29.0752 25.8924 29.1294 26.0029 29.1514C26.1134 29.1734 26.2279 29.1621 26.3319 29.119C26.436 29.0759 26.5249 29.0029 26.5875 28.9092C26.6501 28.8156 26.6834 28.7055 26.6834 28.5929C26.6834 28.4419 26.6235 28.297 26.5167 28.1902C26.4099 28.0834 26.265 28.0234 26.114 28.0234Z" fill="#00D3C4"/>
<path d="M28.5351 29.4189C28.3942 29.4189 28.2565 29.4607 28.1394 29.539C28.0223 29.6172 27.931 29.7285 27.8771 29.8586C27.8232 29.9888 27.8091 30.132 27.8366 30.2701C27.864 30.4083 27.9319 30.5352 28.0315 30.6348C28.1311 30.7344 28.258 30.8022 28.3962 30.8297C28.5343 30.8572 28.6775 30.8431 28.8077 30.7892C28.9378 30.7353 29.049 30.644 29.1273 30.5269C29.2056 30.4097 29.2473 30.272 29.2473 30.1312C29.2473 29.9423 29.1723 29.7611 29.0387 29.6275C28.9051 29.494 28.724 29.4189 28.5351 29.4189Z" fill="#00D0C4"/>
<path d="M26.5432 31.0625C26.3576 31.0625 26.1762 31.1175 26.0219 31.2206C25.8676 31.3237 25.7474 31.4702 25.6763 31.6416C25.6053 31.813 25.5867 32.0017 25.6228 32.1837C25.659 32.3657 25.7483 32.5329 25.8795 32.6641C26.0107 32.7954 26.1778 32.8848 26.3598 32.9211C26.5418 32.9573 26.7304 32.9388 26.9019 32.8679C27.0734 32.797 27.2199 32.6768 27.3231 32.5225C27.4263 32.3683 27.4814 32.187 27.4815 32.0014C27.4815 31.7525 27.3827 31.5138 27.2067 31.3377C27.0308 31.1616 26.7921 31.0626 26.5432 31.0625Z" fill="#00E0BF"/>
<path d="M24.0235 32.0439C23.8059 32.0439 23.5931 32.1085 23.4121 32.2294C23.2311 32.3503 23.09 32.5222 23.0067 32.7233C22.9235 32.9244 22.9017 33.1457 22.9441 33.3592C22.9866 33.5727 23.0914 33.7688 23.2453 33.9227C23.3992 34.0766 23.5953 34.1814 23.8088 34.2239C24.0223 34.2664 24.2436 34.2446 24.4447 34.1613C24.6458 34.078 24.8177 33.9369 24.9386 33.7559C25.0595 33.5749 25.1241 33.3622 25.1241 33.1445C25.1241 32.8526 25.0081 32.5727 24.8017 32.3663C24.5953 32.1599 24.3154 32.0439 24.0235 32.0439Z" fill="#00DB96"/>
<path d="M21.1557 32.1709C20.9124 32.1709 20.6746 32.243 20.4723 32.3782C20.27 32.5133 20.1124 32.7054 20.0193 32.9302C19.9262 33.155 19.9018 33.4023 19.9493 33.6409C19.9968 33.8795 20.1139 34.0986 20.2859 34.2706C20.4579 34.4427 20.6771 34.5598 20.9157 34.6073C21.1543 34.6547 21.4016 34.6304 21.6264 34.5373C21.8511 34.4442 22.0432 34.2865 22.1784 34.0842C22.3135 33.882 22.3857 33.6442 22.3857 33.4009C22.3857 33.0747 22.2561 32.7618 22.0254 32.5312C21.7947 32.3005 21.4819 32.1709 21.1557 32.1709Z" fill="#0EDA65"/>
<path d="M18.4318 31.543C18.2011 31.543 17.9755 31.6114 17.7836 31.7396C17.5918 31.8678 17.4422 32.05 17.3539 32.2632C17.2656 32.4764 17.2425 32.7109 17.2876 32.9372C17.3326 33.1636 17.4437 33.3714 17.6068 33.5346C17.77 33.6978 17.9779 33.8089 18.2042 33.8539C18.4305 33.8989 18.6651 33.8758 18.8783 33.7875C19.0914 33.6992 19.2737 33.5497 19.4019 33.3578C19.53 33.1659 19.5985 32.9404 19.5985 32.7096C19.5985 32.4002 19.4756 32.1035 19.2568 31.8847C19.038 31.6659 18.7412 31.543 18.4318 31.543Z" fill="#4DE230"/>
<path d="M16.1461 30.0762C15.922 30.0762 15.703 30.1426 15.5167 30.2671C15.3305 30.3915 15.1853 30.5685 15.0995 30.7755C15.0138 30.9824 14.9914 31.2102 15.0351 31.4299C15.0788 31.6497 15.1867 31.8515 15.3451 32.0099C15.5035 32.1684 15.7054 32.2763 15.9251 32.32C16.1448 32.3637 16.3726 32.3412 16.5796 32.2555C16.7866 32.1698 16.9635 32.0246 17.088 31.8383C17.2124 31.652 17.2789 31.433 17.2789 31.209C17.2789 30.9085 17.1595 30.6204 16.9471 30.408C16.7346 30.1955 16.4465 30.0762 16.1461 30.0762Z" fill="#84E90C"/>
<path d="M14.4612 27.9902C14.2487 27.9902 14.0409 28.0532 13.8642 28.1713C13.6875 28.2894 13.5498 28.4572 13.4685 28.6535C13.3872 28.8498 13.3659 29.0659 13.4074 29.2743C13.4488 29.4827 13.5512 29.6742 13.7014 29.8244C13.8517 29.9747 14.0431 30.077 14.2515 30.1185C14.46 30.1599 14.676 30.1387 14.8723 30.0573C15.0687 29.976 15.2365 29.8383 15.3545 29.6616C15.4726 29.4849 15.5356 29.2772 15.5356 29.0647C15.5356 28.7797 15.4224 28.5064 15.2209 28.3049C15.0194 28.1034 14.7461 27.9902 14.4612 27.9902Z" fill="#90E807"/>
<path d="M13.5403 25.4023C13.3356 25.4023 13.1355 25.463 12.9652 25.5767C12.795 25.6904 12.6622 25.852 12.5838 26.0411C12.5054 26.2302 12.4847 26.4383 12.5245 26.6391C12.5643 26.8399 12.6627 27.0244 12.8073 27.1694C12.9519 27.3143 13.1362 27.4131 13.3369 27.4533C13.5377 27.4935 13.7458 27.4733 13.9351 27.3953C14.1243 27.3172 14.2862 27.1848 14.4003 27.0148C14.5143 26.8448 14.5754 26.6448 14.5759 26.4401C14.5762 26.3039 14.5496 26.169 14.4977 26.0431C14.4458 25.9173 14.3695 25.8028 14.2734 25.7064C14.1772 25.61 14.0629 25.5336 13.9371 25.4814C13.8113 25.4292 13.6765 25.4023 13.5403 25.4023Z" fill="#6FDF1D"/>
<path d="M13.5404 22.5234C13.3356 22.5235 13.1354 22.5844 12.9652 22.6982C12.795 22.8121 12.6623 22.9739 12.584 23.1631C12.5057 23.3523 12.4853 23.5605 12.5253 23.7614C12.5654 23.9622 12.664 24.1467 12.8089 24.2914C12.9537 24.4362 13.1382 24.5348 13.3391 24.5747C13.54 24.6146 13.7482 24.5941 13.9373 24.5157C14.1265 24.4373 14.2882 24.3045 14.402 24.1343C14.5158 23.964 14.5765 23.7638 14.5765 23.559C14.5765 23.2843 14.4674 23.0209 14.2732 22.8267C14.079 22.6325 13.8156 22.5234 13.5409 22.5234" fill="#5AD92B"/>
<path d="M14.4611 19.8652C14.2498 19.8651 14.0431 19.9277 13.8674 20.045C13.6916 20.1624 13.5546 20.3292 13.4736 20.5245C13.3927 20.7197 13.3715 20.9346 13.4127 21.1419C13.4539 21.3491 13.5557 21.5396 13.7051 21.689C13.8546 21.8384 14.045 21.9402 14.2523 21.9814C14.4595 22.0226 14.6744 22.0014 14.8696 21.9205C15.0649 21.8395 15.2317 21.7025 15.3491 21.5268C15.4664 21.351 15.529 21.1444 15.5289 20.933C15.5289 20.6498 15.4164 20.3782 15.2161 20.178C15.0159 19.9777 14.7443 19.8652 14.4611 19.8652Z" fill="#3FD13F"/>
<path d="M16.1461 17.6582C15.922 17.6582 15.703 17.7246 15.5167 17.8491C15.3305 17.9736 15.1853 18.1505 15.0995 18.3575C15.0138 18.5645 14.9914 18.7922 15.0351 19.012C15.0788 19.2317 15.1867 19.4336 15.3451 19.592C15.5035 19.7504 15.7054 19.8583 15.9251 19.902C16.1448 19.9457 16.3726 19.9233 16.5796 19.8375C16.7866 19.7518 16.9635 19.6066 17.088 19.4203C17.2124 19.234 17.2789 19.015 17.2789 18.791C17.2789 18.4905 17.1595 18.2024 16.9471 17.99C16.7346 17.7775 16.4465 17.6582 16.1461 17.6582Z" fill="#1DC753"/>
<path d="M18.4318 16.125C18.2011 16.125 17.9755 16.1934 17.7836 16.3216C17.5918 16.4498 17.4422 16.632 17.3539 16.8452C17.2656 17.0584 17.2425 17.293 17.2876 17.5193C17.3326 17.7456 17.4437 17.9535 17.6068 18.1166C17.77 18.2798 17.9779 18.3909 18.2042 18.4359C18.4305 18.4809 18.6651 18.4578 18.8783 18.3695C19.0914 18.2812 19.2737 18.1317 19.4019 17.9398C19.53 17.748 19.5985 17.5224 19.5985 17.2917C19.5985 16.9822 19.4756 16.6855 19.2568 16.4667C19.038 16.2479 18.7412 16.125 18.4318 16.125Z" fill="#11C247"/>
<path d="M21.1553 15.3682C20.912 15.3677 20.6739 15.4395 20.4714 15.5744C20.2688 15.7093 20.1108 15.9012 20.0174 16.1259C19.9239 16.3506 19.8993 16.598 19.9465 16.8368C19.9937 17.0755 20.1106 17.2949 20.2826 17.4671C20.4545 17.6394 20.6737 17.7567 20.9123 17.8044C21.151 17.852 21.3984 17.8278 21.6233 17.7347C21.8482 17.6417 22.0404 17.4841 22.1756 17.2817C22.3109 17.0794 22.3831 16.8415 22.3831 16.5982C22.3831 16.2719 22.2535 15.9591 22.0228 15.7284C21.7922 15.4978 21.4793 15.3682 21.1531 15.3682" fill="#0FC13A"/>
<path d="M24.0235 15.752C23.8059 15.752 23.5931 15.8165 23.4121 15.9374C23.2311 16.0584 23.09 16.2302 23.0067 16.4313C22.9235 16.6324 22.9017 16.8537 22.9441 17.0672C22.9866 17.2807 23.0914 17.4768 23.2453 17.6307C23.3992 17.7846 23.5953 17.8895 23.8088 17.9319C24.0223 17.9744 24.2436 17.9526 24.4447 17.8693C24.6458 17.786 24.8177 17.6449 24.9386 17.4639C25.0595 17.283 25.1241 17.0702 25.1241 16.8525C25.1241 16.5606 25.0081 16.2807 24.8017 16.0743C24.5953 15.8679 24.3154 15.752 24.0235 15.752Z" fill="#0CBF31"/>
<path d="M26.5433 17.0625C26.3576 17.0624 26.176 17.1174 26.0216 17.2205C25.8671 17.3236 25.7467 17.4702 25.6755 17.6417C25.6044 17.8133 25.5857 18.0021 25.6219 18.1842C25.658 18.3664 25.7474 18.5337 25.8787 18.6651C26.01 18.7964 26.1773 18.8859 26.3594 18.9222C26.5415 18.9585 26.7303 18.9399 26.9019 18.8689C27.0735 18.7978 27.2202 18.6775 27.3234 18.5231C27.4266 18.3687 27.4817 18.1871 27.4817 18.0014C27.4817 17.7525 27.3828 17.5138 27.2069 17.3377C27.0309 17.1616 26.7922 17.0626 26.5433 17.0625Z" fill="#07BD24"/>
<path d="M28.5351 19.1562C28.3942 19.1562 28.2565 19.198 28.1394 19.2763C28.0223 19.3545 27.931 19.4658 27.8771 19.5959C27.8232 19.7261 27.8091 19.8693 27.8366 20.0074C27.864 20.1456 27.9319 20.2725 28.0315 20.3721C28.1311 20.4717 28.258 20.5395 28.3962 20.567C28.5343 20.5945 28.6775 20.5804 28.8077 20.5265C28.9378 20.4726 29.049 20.3813 29.1273 20.2642C29.2056 20.147 29.2473 20.0093 29.2473 19.8685C29.2473 19.6796 29.1723 19.4984 29.0387 19.3649C28.9051 19.2313 28.724 19.1562 28.5351 19.1562Z" fill="#00BA15"/>
<path d="M31.0815 30.5596C30.9023 30.5596 30.7271 30.6127 30.5781 30.7123C30.4291 30.8118 30.313 30.9534 30.2444 31.1189C30.1758 31.2845 30.1579 31.4667 30.1928 31.6425C30.2278 31.8182 30.3141 31.9797 30.4408 32.1064C30.5675 32.2331 30.729 32.3194 30.9047 32.3544C31.0805 32.3893 31.2627 32.3714 31.4283 32.3028C31.5938 32.2342 31.7354 32.1181 31.8349 31.9691C31.9345 31.8201 31.9876 31.6449 31.9876 31.4657C31.9876 31.2254 31.8922 30.9949 31.7222 30.825C31.5523 30.655 31.3218 30.5596 31.0815 30.5596Z" fill="#00CFC4"/>
<path d="M29.2043 32.375C28.9735 32.375 28.748 32.4434 28.5561 32.5716C28.3642 32.6998 28.2147 32.882 28.1264 33.0952C28.0381 33.3084 28.015 33.543 28.06 33.7693C28.105 33.9956 28.2161 34.2035 28.3793 34.3666C28.5425 34.5298 28.7503 34.6409 28.9767 34.6859C29.203 34.7309 29.4375 34.7078 29.6507 34.6195C29.8639 34.5312 30.0461 34.3817 30.1743 34.1898C30.3025 33.998 30.3709 33.7724 30.3709 33.5417C30.3709 33.2322 30.248 32.9355 30.0292 32.7167C29.8104 32.4979 29.5137 32.375 29.2043 32.375Z" fill="#00DBC3"/>
<path d="M26.8694 33.8662C26.6261 33.8662 26.3883 33.9383 26.1861 34.0735C25.9838 34.2087 25.8261 34.4008 25.733 34.6255C25.6399 34.8503 25.6156 35.0976 25.663 35.3362C25.7105 35.5748 25.8276 35.7939 25.9997 35.9659C26.1717 36.138 26.3908 36.2551 26.6294 36.3026C26.868 36.35 27.1154 36.3257 27.3401 36.2326C27.5649 36.1395 27.757 35.9818 27.8921 35.7796C28.0273 35.5773 28.0994 35.3395 28.0994 35.0962C28.0994 34.77 27.9698 34.4571 27.7392 34.2265C27.5085 33.9958 27.1956 33.8662 26.8694 33.8662Z" fill="#00E0BC"/>
<path d="M24.1739 34.8701C23.9431 34.8701 23.7176 34.9385 23.5257 35.0667C23.3338 35.1949 23.1843 35.3771 23.096 35.5903C23.0077 35.8035 22.9846 36.0381 23.0296 36.2644C23.0746 36.4907 23.1857 36.6986 23.3489 36.8617C23.5121 37.0249 23.72 37.136 23.9463 37.181C24.1726 37.226 24.4072 37.2029 24.6203 37.1146C24.8335 37.0263 25.0157 36.8768 25.1439 36.6849C25.2721 36.4931 25.3405 36.2675 25.3405 36.0368C25.3405 35.7274 25.2176 35.4306 24.9988 35.2118C24.78 34.993 24.4833 34.8701 24.1739 34.8701Z" fill="#00DB94"/>
<path d="M21.229 35.2246C21.0242 35.2246 20.824 35.2853 20.6537 35.3991C20.4834 35.5129 20.3507 35.6747 20.2723 35.8639C20.1939 36.0531 20.1734 36.2613 20.2134 36.4622C20.2533 36.6631 20.352 36.8476 20.4968 36.9924C20.6416 37.1372 20.8261 37.2359 21.027 37.2758C21.2279 37.3158 21.4361 37.2953 21.6253 37.2169C21.8145 37.1385 21.9763 37.0058 22.0901 36.8355C22.2039 36.6652 22.2646 36.465 22.2646 36.2602C22.2646 35.9855 22.1555 35.7221 21.9613 35.5279C21.7671 35.3337 21.5037 35.2246 21.229 35.2246Z" fill="#01D97B"/>
<path d="M18.3801 34.793C18.1944 34.793 18.0128 34.848 17.8584 34.9512C17.704 35.0544 17.5837 35.201 17.5126 35.3726C17.4416 35.5441 17.423 35.7329 17.4592 35.915C17.4954 36.0972 17.5849 36.2644 17.7162 36.3958C17.8475 36.5271 18.0148 36.6165 18.1969 36.6527C18.379 36.6889 18.5678 36.6703 18.7393 36.5993C18.9109 36.5282 19.0575 36.4079 19.1607 36.2535C19.2639 36.0991 19.3189 35.9175 19.3189 35.7319C19.3189 35.4828 19.22 35.244 19.0439 35.068C18.8679 34.8919 18.6291 34.793 18.3801 34.793Z" fill="#27DD4C"/>
<path d="M15.8289 33.6797C15.6599 33.6797 15.4947 33.7298 15.3542 33.8237C15.2137 33.9176 15.1042 34.051 15.0395 34.2072C14.9749 34.3633 14.9579 34.5351 14.9909 34.7008C15.0239 34.8666 15.1053 35.0188 15.2247 35.1383C15.3442 35.2578 15.4965 35.3392 15.6622 35.3722C15.828 35.4051 15.9998 35.3882 16.1559 35.3235C16.312 35.2589 16.4455 35.1494 16.5394 35.0088C16.6333 34.8683 16.6834 34.7031 16.6834 34.5341C16.6834 34.3075 16.5934 34.0902 16.4331 33.9299C16.2729 33.7697 16.0555 33.6797 15.8289 33.6797Z" fill="#6EE61B"/>
<path d="M13.6751 31.9795C13.5201 31.9795 13.3687 32.0254 13.2399 32.1115C13.111 32.1976 13.0106 32.3199 12.9514 32.4631C12.8921 32.6062 12.8766 32.7637 12.9068 32.9156C12.937 33.0676 13.0116 33.2072 13.1212 33.3167C13.2307 33.4263 13.3703 33.5009 13.5222 33.5311C13.6742 33.5613 13.8317 33.5458 13.9748 33.4865C14.118 33.4272 14.2403 33.3268 14.3264 33.198C14.4124 33.0692 14.4584 32.9178 14.4584 32.7628C14.4584 32.5551 14.3759 32.3558 14.229 32.2089C14.0821 32.062 13.8828 31.9795 13.6751 31.9795Z" fill="#94EB03"/>
<path d="M12.0152 29.8428C11.8813 29.8428 11.7505 29.8825 11.6392 29.9568C11.528 30.0312 11.4412 30.1368 11.39 30.2605C11.3388 30.3841 11.3254 30.5202 11.3515 30.6515C11.3776 30.7827 11.4421 30.9033 11.5367 30.9979C11.6313 31.0925 11.7519 31.157 11.8832 31.1831C12.0144 31.2092 12.1505 31.1958 12.2741 31.1446C12.3978 31.0934 12.5034 31.0067 12.5778 30.8954C12.6521 30.7841 12.6918 30.6533 12.6918 30.5194C12.6918 30.34 12.6205 30.1679 12.4936 30.041C12.3667 29.9141 12.1946 29.8428 12.0152 29.8428Z" fill="#92E905"/>
<path d="M10.9474 27.291C10.8277 27.291 10.7108 27.3265 10.6113 27.393C10.5118 27.4595 10.4343 27.5539 10.3885 27.6645C10.3427 27.775 10.3307 27.8967 10.354 28.014C10.3774 28.1314 10.435 28.2392 10.5196 28.3238C10.6042 28.4084 10.712 28.466 10.8294 28.4894C10.9467 28.5127 11.0684 28.5008 11.1789 28.455C11.2895 28.4092 11.384 28.3316 11.4504 28.2321C11.5169 28.1326 11.5524 28.0157 11.5524 27.896C11.5524 27.7356 11.4887 27.5817 11.3752 27.4682C11.2617 27.3548 11.1079 27.291 10.9474 27.291Z" fill="#74E019"/>
<path d="M10.5694 24.4297C10.4568 24.4297 10.3467 24.4631 10.2531 24.5257C10.1594 24.5882 10.0864 24.6772 10.0433 24.7812C10.0002 24.8853 9.98897 24.9998 10.0109 25.1102C10.0329 25.2207 10.0871 25.3222 10.1668 25.4018C10.2464 25.4814 10.3479 25.5357 10.4584 25.5576C10.5688 25.5796 10.6833 25.5683 10.7874 25.5252C10.8914 25.4821 10.9803 25.4091 11.0429 25.3155C11.1055 25.2219 11.1389 25.1118 11.1389 24.9991C11.1389 24.8481 11.0789 24.7033 10.9721 24.5965C10.8653 24.4897 10.7205 24.4297 10.5694 24.4297Z" fill="#5FDA27"/>
<path d="M10.9474 21.4961C10.8277 21.4961 10.7108 21.5316 10.6113 21.5981C10.5118 21.6645 10.4343 21.759 10.3885 21.8696C10.3427 21.9801 10.3307 22.1018 10.354 22.2191C10.3774 22.3365 10.435 22.4443 10.5196 22.5289C10.6042 22.6135 10.712 22.6711 10.8294 22.6945C10.9467 22.7178 11.0684 22.7058 11.1789 22.66C11.2895 22.6142 11.384 22.5367 11.4504 22.4372C11.5169 22.3377 11.5524 22.2207 11.5524 22.1011C11.5524 21.9406 11.4887 21.7868 11.3752 21.6733C11.2617 21.5598 11.1079 21.4961 10.9474 21.4961Z" fill="#50D633"/>
<path d="M12.0152 18.8027C11.8813 18.8027 11.7505 18.8424 11.6392 18.9168C11.528 18.9911 11.4412 19.0968 11.39 19.2205C11.3388 19.3441 11.3254 19.4802 11.3515 19.6114C11.3776 19.7427 11.4421 19.8632 11.5367 19.9579C11.6313 20.0525 11.7519 20.117 11.8832 20.1431C12.0144 20.1692 12.1505 20.1558 12.2741 20.1046C12.3978 20.0533 12.5034 19.9666 12.5778 19.8553C12.6521 19.7441 12.6918 19.6132 12.6918 19.4794C12.6918 19.2999 12.6205 19.1278 12.4936 19.0009C12.3667 18.874 12.1946 18.8027 12.0152 18.8027Z" fill="#37CF45"/>
<path d="M13.6751 16.4541C13.5201 16.4541 13.3687 16.5 13.2399 16.5861C13.111 16.6722 13.0106 16.7945 12.9514 16.9377C12.8921 17.0808 12.8766 17.2383 12.9068 17.3903C12.937 17.5422 13.0116 17.6818 13.1212 17.7913C13.2307 17.9009 13.3703 17.9755 13.5222 18.0057C13.6742 18.0359 13.8317 18.0204 13.9748 17.9611C14.118 17.9019 14.2403 17.8014 14.3264 17.6726C14.4124 17.5438 14.4584 17.3924 14.4584 17.2374C14.4584 17.1346 14.4381 17.0327 14.3988 16.9377C14.3594 16.8426 14.3017 16.7563 14.229 16.6835C14.1562 16.6108 14.0699 16.5531 13.9748 16.5137C13.8798 16.4744 13.7779 16.4541 13.6751 16.4541Z" fill="#20C851"/>
<path d="M15.8289 14.6104C15.6599 14.6104 15.4947 14.6605 15.3542 14.7544C15.2137 14.8482 15.1042 14.9817 15.0395 15.1378C14.9749 15.2939 14.9579 15.4657 14.9909 15.6315C15.0239 15.7972 15.1053 15.9495 15.2247 16.069C15.3442 16.1885 15.4965 16.2699 15.6622 16.3028C15.828 16.3358 15.9998 16.3189 16.1559 16.2542C16.312 16.1895 16.4455 16.08 16.5394 15.9395C16.6333 15.799 16.6834 15.6338 16.6834 15.4648C16.6834 15.2382 16.5934 15.0209 16.4331 14.8606C16.2729 14.7004 16.0555 14.6104 15.8289 14.6104Z" fill="#0FC138"/>
<path d="M18.3801 13.3291C18.1944 13.3291 18.0128 13.3842 17.8584 13.4873C17.704 13.5905 17.5837 13.7371 17.5126 13.9087C17.4416 14.0803 17.423 14.269 17.4592 14.4512C17.4954 14.6333 17.5849 14.8006 17.7162 14.9319C17.8475 15.0632 18.0148 15.1526 18.1969 15.1888C18.379 15.2251 18.5678 15.2065 18.7393 15.1354C18.9109 15.0643 19.0575 14.944 19.1607 14.7896C19.2639 14.6352 19.3189 14.4537 19.3189 14.268C19.3189 14.019 19.22 13.7802 19.0439 13.6041C18.8679 13.428 18.6291 13.3291 18.3801 13.3291Z" fill="#10C143"/>
<path d="M21.229 12.7031C21.0242 12.7031 20.824 12.7639 20.6537 12.8776C20.4834 12.9914 20.3507 13.1532 20.2723 13.3424C20.1939 13.5316 20.1734 13.7398 20.2134 13.9407C20.2533 14.1416 20.352 14.3261 20.4968 14.4709C20.6416 14.6158 20.8261 14.7144 21.027 14.7543C21.2279 14.7943 21.4361 14.7738 21.6253 14.6954C21.8145 14.617 21.9763 14.4843 22.0901 14.314C22.2039 14.1437 22.2646 13.9435 22.2646 13.7387C22.2646 13.464 22.1555 13.2006 21.9613 13.0064C21.7671 12.8122 21.5037 12.7031 21.229 12.7031Z" fill="#0FC139"/>
<path d="M24.1739 12.7988C23.9431 12.7988 23.7176 12.8673 23.5257 12.9954C23.3338 13.1236 23.1843 13.3059 23.096 13.519C23.0077 13.7322 22.9846 13.9668 23.0296 14.1931C23.0746 14.4194 23.1857 14.6273 23.3489 14.7905C23.5121 14.9536 23.72 15.0647 23.9463 15.1097C24.1726 15.1548 24.4072 15.1317 24.6203 15.0434C24.8335 14.9551 25.0157 14.8055 25.1439 14.6137C25.2721 14.4218 25.3405 14.1962 25.3405 13.9655C25.3405 13.6561 25.2176 13.3593 24.9988 13.1405C24.78 12.9217 24.4833 12.7988 24.1739 12.7988Z" fill="#0FC138"/>
<path d="M26.8694 13.6729C26.6261 13.6729 26.3883 13.745 26.1861 13.8801C25.9838 14.0153 25.8261 14.2074 25.733 14.4322C25.6399 14.6569 25.6156 14.9042 25.663 15.1428C25.7105 15.3814 25.8276 15.6006 25.9997 15.7726C26.1717 15.9446 26.3908 16.0618 26.6294 16.1092C26.868 16.1567 27.1154 16.1323 27.3401 16.0392C27.5649 15.9461 27.757 15.7885 27.8921 15.5862C28.0273 15.3839 28.0994 15.1461 28.0994 14.9029C28.0994 14.5766 27.9698 14.2638 27.7392 14.0331C27.5085 13.8024 27.1956 13.6729 26.8694 13.6729Z" fill="#08BE28"/>
<path d="M29.2043 15.2939C28.9735 15.2939 28.748 15.3624 28.5561 15.4906C28.3642 15.6188 28.2147 15.801 28.1264 16.0141C28.0381 16.2273 28.015 16.4619 28.06 16.6882C28.105 16.9145 28.2161 17.1224 28.3793 17.2856C28.5425 17.4487 28.7503 17.5598 28.9767 17.6049C29.203 17.6499 29.4375 17.6268 29.6507 17.5385C29.8639 17.4502 30.0461 17.3006 30.1743 17.1088C30.3025 16.9169 30.3709 16.6914 30.3709 16.4606C30.3709 16.1512 30.248 15.8544 30.0292 15.6357C29.8104 15.4169 29.5137 15.2939 29.2043 15.2939Z" fill="#02BB19"/>
<path d="M31.0815 17.627C30.9023 17.627 30.7271 17.6801 30.5781 17.7797C30.4291 17.8792 30.313 18.0207 30.2444 18.1863C30.1758 18.3519 30.1579 18.5341 30.1928 18.7098C30.2278 18.8856 30.3141 19.0471 30.4408 19.1738C30.5675 19.3005 30.729 19.3868 30.9047 19.4218C31.0805 19.4567 31.2627 19.4388 31.4283 19.3702C31.5938 19.3016 31.7354 19.1855 31.8349 19.0365C31.9345 18.8875 31.9876 18.7123 31.9876 18.5331C31.9876 18.2927 31.8922 18.0623 31.7222 17.8923C31.5523 17.7224 31.3218 17.627 31.0815 17.627Z" fill="#00BA14"/>
</g>
<defs>
<clipPath id="clip0_17011_10043">
<rect width="120" height="24.5928" fill="white" transform="translate(10 12.7031)"/>
</clipPath>
</defs>
</svg>
