<svg width="449" height="116" viewBox="0 0 449 116" fill="none" xmlns="http://www.w3.org/2000/svg">
<path d="M144.669 53.601C139.948 53.601 136.762 57.201 136.762 61.744C136.762 66.287 140.007 69.946 144.61 69.946C147.501 69.946 149.802 68.943 151.572 67.173L155.231 72.484C152.989 74.961 148.917 76.731 144.433 76.731C136.055 76.731 129.564 70.004 129.564 61.802C129.564 53.541 136.055 46.815 144.315 46.815C149.153 46.815 152.989 48.467 155.467 51.064L151.337 56.197C149.567 54.486 147.442 53.601 144.669 53.601Z" fill="#39396D"/>
<path d="M160.657 35.309H167.856V75.905H160.657V35.309Z" fill="#39396D"/>
<path d="M174.403 61.803C174.403 53.542 180.539 46.816 188.682 46.816C196.766 46.816 202.902 53.07 202.902 61.213C202.902 62.098 202.843 63.101 202.725 63.573H181.778C182.486 67.526 185.495 70.359 189.862 70.359C192.694 70.359 195.113 69.12 196.766 67.409L200.483 72.306C198.358 74.784 194.346 76.731 189.567 76.731C180.776 76.731 174.403 70.005 174.403 61.803ZM181.897 59.03H195.527C194.701 55.017 192.164 52.952 188.8 52.952C185.201 52.952 182.723 55.43 181.897 59.03Z" fill="#39396D"/>
<path d="M234.292 47.642L224.084 75.906H214.761L204.494 47.642H212.401L219.599 69.474L226.916 47.642H234.292Z" fill="#39396D"/>
<path d="M236.295 61.803C236.295 53.542 242.431 46.816 250.574 46.816C258.658 46.816 264.794 53.07 264.794 61.213C264.794 62.098 264.735 63.101 264.617 63.573H243.67C244.378 67.526 247.387 70.359 251.754 70.359C254.586 70.359 257.005 69.12 258.658 67.409L262.375 72.306C260.25 74.784 256.238 76.731 251.459 76.731C242.667 76.731 236.295 70.005 236.295 61.803ZM243.788 59.03H257.418C256.592 55.017 254.055 52.952 250.691 52.952C247.093 52.952 244.615 55.43 243.788 59.03ZM278.186 75.905H270.987V47.641H278.186V50.709C279.779 48.349 282.139 46.814 285.089 46.814C286.977 46.814 288.511 47.345 289.632 48.23L286.623 55.075C285.679 54.308 284.263 53.836 282.906 53.836C280.015 53.836 278.186 56.255 278.186 60.091V75.905ZM320.843 53.601C316.122 53.601 312.936 57.201 312.936 61.744C312.936 66.287 316.181 69.946 320.784 69.946C323.675 69.946 325.976 68.943 327.746 67.173L331.405 72.484C329.163 74.963 325.092 76.733 320.607 76.733C312.229 76.733 305.738 70.006 305.738 61.804C305.738 53.543 312.229 46.817 320.489 46.817C325.327 46.817 329.163 48.469 331.641 51.066L327.511 56.199C325.74 54.486 323.616 53.601 320.843 53.601Z" fill="#39396D"/>
<path d="M336.83 35.309H344.029V75.905H336.83V35.309Z" fill="#39396D"/>
<path d="M350.577 61.803C350.577 53.542 357.068 46.816 365.269 46.816C373.47 46.816 380.02 53.543 380.02 61.803C380.02 70.005 373.47 76.732 365.269 76.732C357.068 76.732 350.577 70.005 350.577 61.803ZM372.763 61.744C372.763 57.201 369.636 53.601 365.328 53.601C360.961 53.601 357.775 57.201 357.775 61.744C357.775 66.287 360.961 69.946 365.328 69.946C369.635 69.946 372.763 66.287 372.763 61.744ZM393.351 62.924C393.351 67.054 395.77 69.828 399.37 69.828C402.969 69.828 405.389 67.055 405.389 62.924V47.642H412.588V63.455C412.588 71.362 407.337 76.613 399.371 76.613C391.405 76.613 386.154 71.362 386.154 63.455V47.642H393.353V62.924H393.351ZM448.223 35.309V75.905H440.965V72.837C438.9 75.256 436.008 76.732 432.35 76.732C424.856 76.732 418.779 70.595 418.779 61.803C418.779 53.247 424.503 46.816 432.35 46.816C436.067 46.816 438.958 48.173 440.965 50.474V35.309H448.223ZM440.965 61.744C440.965 57.201 437.838 53.601 433.53 53.601C429.163 53.601 425.977 57.201 425.977 61.744C425.977 66.287 429.163 69.946 433.53 69.946C437.837 69.946 440.965 66.287 440.965 61.744Z" fill="#39396D"/>
<path d="M100.851 28.865V86.599L90.1485 72.793L84.1875 57.734H84.1835L89.8455 42.462L100.851 28.865Z" fill="#AB2B4A"/>
<path d="M0.856539 28.865V86.599L10.3165 73.212L17.5195 57.734H17.5235L10.2005 43.05L0.856539 28.865Z" fill="#E87A68"/>
<path d="M84.1835 57.734L52.6685 59.734L17.5195 57.734L32.1875 28.865L50.8535 0L71.1495 31.692L84.1835 57.734Z" fill="#D74D4E"/>
<path d="M100.851 28.865L84.1835 57.734L50.8535 0L100.851 28.865Z" fill="#BD3246"/>
<path d="M50.8535 0L17.5195 57.734L0.852539 28.865L50.8535 0Z" fill="#F19175"/>
<path d="M84.1835 57.734L72.7925 82.662L50.8535 115.468L28.2765 81.561L17.5195 57.734H84.1835Z" fill="#CF3942"/>
<path d="M50.8535 115.468L0.852539 86.599L17.5195 57.734L50.8535 115.468Z" fill="#E0625B"/>
<path d="M50.8495 115.468L100.851 86.599L84.1835 57.734L50.8495 115.468Z" fill="#9A244F"/>
</svg>
