<svg height="34" width="212" viewBox="0 0 212 34" fill="none" xmlns="http://www.w3.org/2000/svg">
<path d="M96.2593 20.0874L87.6005 8.23926H83.7324V25.5567H87.3106V13.8141L95.8902 25.5567H99.8374V8.23926H96.2593V20.0874Z" fill="currentColor"></path>
<path d="M111.85 21.4185L106.776 8.23926H102.98L109.9 25.5567H113.794L120.674 8.23926H116.964L111.85 21.4185Z" fill="currentColor"></path>
<path d="M177.859 8.23926H177.826H177.859V21.57C177.857 22.0947 177.959 22.6145 178.159 23.0997C178.358 23.5849 178.652 24.026 179.022 24.3976C179.393 24.7692 179.833 25.064 180.317 25.2652C180.802 25.4664 181.321 25.5699 181.846 25.5699H191.355V22.1631H182.755C182.411 22.1632 182.081 22.0289 181.835 21.7888C181.589 21.5487 181.446 21.2219 181.437 20.8781V18.4465H190.307V15.0727H181.437V11.6329H191.355V8.23926H177.859Z" fill="currentColor"></path>
<path d="M123.982 8.23926H123.949H123.982V21.57C123.98 22.0947 124.082 22.6145 124.282 23.0997C124.481 23.5849 124.775 24.026 125.145 24.3976C125.516 24.7692 125.956 25.064 126.44 25.2652C126.925 25.4664 127.444 25.5699 127.969 25.5699H137.478V22.1631H128.845C128.507 22.1547 128.185 22.0167 127.946 21.7775C127.707 21.5383 127.569 21.2163 127.56 20.8781V18.4465H136.43V15.0727H127.56V11.6329H137.445V8.23926H123.982Z" fill="currentColor"></path>
<path d="M164.574 8.23926H158.439V11.6329H164.574V25.5567H168.153V11.6329H174.287V8.23926H168.153H164.574Z" fill="currentColor"></path>
<path d="M156.582 14.3681C156.582 10.2825 153.564 8.25293 148.78 8.25293H141.531V25.5704H145.109V20.4766H148.971L152.266 25.5638H156.292L152.76 19.8638C153.918 19.5034 154.922 18.7673 155.614 17.7719C156.306 16.7766 156.647 15.5788 156.582 14.3681ZM148.444 17.0962H145.116V11.6334H148.444C150.592 11.6334 152.819 11.9892 152.819 14.3549C152.819 16.7206 150.592 17.083 148.444 17.083V17.0962Z" fill="currentColor"></path>
<path d="M52.7922 11.5601C53.823 11.5167 54.8373 11.8298 55.6643 12.4467C56.4912 13.0637 57.0803 13.9467 57.3324 14.9471L60.6272 13.7412C60.2816 12.0738 59.3039 10.6049 57.8991 9.64251C56.3907 8.56669 54.5718 8.01362 52.7197 8.0676C51.5599 8.02333 50.4035 8.22139 49.3245 8.64914C48.2455 9.07689 47.2675 9.72493 46.453 10.5519C45.6446 11.4197 45.0177 12.4404 44.6092 13.5539C44.2006 14.6674 44.0188 15.8513 44.0742 17.036C44.0191 18.2238 44.201 19.4106 44.6094 20.5273C45.0179 21.6439 45.6446 22.6681 46.453 23.54C47.2691 24.3632 48.2479 25.007 49.327 25.4302C50.4061 25.8534 51.5616 26.0468 52.7197 25.9979C54.5673 26.0482 56.3824 25.5055 57.8991 24.4493C59.2944 23.459 60.2604 21.9747 60.6009 20.2979L57.3061 19.1184C57.0436 20.1115 56.4512 20.9858 55.6261 21.5977C54.801 22.2096 53.7924 22.5227 52.7659 22.4856C52.0955 22.512 51.4275 22.3918 50.8084 22.1334C50.1892 21.8751 49.6339 21.4848 49.1811 20.9898C48.2596 19.8848 47.789 18.4729 47.8632 17.036C47.7803 15.598 48.252 14.183 49.1811 13.0823C49.6344 12.579 50.1929 12.1817 50.817 11.9186C51.4411 11.6556 52.1155 11.5331 52.7922 11.5601Z" fill="currentColor"></path>
<path d="M71.6216 8.03391C70.4471 7.98543 69.2752 8.18053 68.1797 8.60693C67.0842 9.03334 66.0888 9.68182 65.2561 10.5116C64.4389 11.377 63.8029 12.397 63.3853 13.5116C62.9678 14.6262 62.7771 15.813 62.8245 17.0024C62.7739 18.1928 62.9604 19.3814 63.3734 20.4991C63.7863 21.6168 64.4173 22.6413 65.2297 23.5129C66.0627 24.3411 67.0586 24.9872 68.1544 25.4103C69.2502 25.8334 70.4219 26.0243 71.5953 25.9708C72.773 26.0315 73.9503 25.8435 75.0505 25.4188C76.1507 24.9942 77.1491 24.3425 77.9806 23.5063C78.7921 22.6362 79.4212 21.6125 79.8309 20.4955C80.2405 19.3785 80.4225 18.1908 80.366 17.0024C80.4196 15.8162 80.2362 14.6313 79.8267 13.5169C79.4171 12.4024 78.7895 11.3808 77.9806 10.5116C77.1518 9.67839 76.158 9.02758 75.0629 8.6009C73.9678 8.17422 72.7957 7.9811 71.6216 8.03391ZM75.2327 21.0088C74.7783 21.5097 74.2192 21.9045 73.5952 22.1653C72.9711 22.4261 72.2974 22.5464 71.6216 22.5179C70.9419 22.5476 70.2639 22.4279 69.6354 22.1672C69.0069 21.9065 68.4432 21.5111 67.9842 21.0088C67.0369 19.8952 66.5492 18.4627 66.6201 17.0024C66.5492 15.5421 67.0369 14.1095 67.9842 12.9959C68.4566 12.5137 69.0205 12.1307 69.6428 11.8691C70.2652 11.6076 70.9334 11.4729 71.6085 11.4729C72.2835 11.4729 72.9518 11.6076 73.5741 11.8691C74.1964 12.1307 74.7603 12.5137 75.2327 12.9959C76.1895 14.1056 76.6868 15.5385 76.6232 17.0024C76.6922 18.467 76.1943 19.9019 75.2327 21.0088Z" fill="currentColor"></path>
<path d="M209.253 10.5123C207.521 8.91929 205.254 8.03516 202.901 8.03516C200.547 8.03516 198.28 8.91929 196.548 10.5123C195.736 11.3799 195.105 12.4008 194.692 13.5153C194.279 14.6298 194.092 15.8156 194.143 17.003C194.092 18.1935 194.279 19.3821 194.692 20.4998C195.105 21.6175 195.736 22.642 196.548 23.5136C198.286 25.0953 200.551 25.972 202.901 25.972C205.25 25.972 207.515 25.0953 209.253 23.5136C210.068 22.6437 210.7 21.6195 211.113 20.5014C211.527 19.3833 211.712 18.1938 211.658 17.003C211.708 15.8157 211.521 14.6303 211.108 13.5159C210.695 12.4015 210.064 11.3805 209.253 10.5123ZM206.525 21.0095C206.07 21.5104 205.511 21.9052 204.887 22.166C204.263 22.4268 203.589 22.5471 202.914 22.5185C202.234 22.5483 201.556 22.4286 200.927 22.1679C200.299 21.9072 199.735 21.5117 199.276 21.0095C198.329 19.8959 197.841 18.4634 197.912 17.003C197.841 15.5427 198.329 14.1102 199.276 12.9966C199.749 12.5144 200.313 12.1313 200.935 11.8698C201.557 11.6083 202.226 11.4736 202.901 11.4736C203.576 11.4736 204.244 11.6083 204.866 11.8698C205.489 12.1313 206.052 12.5144 206.525 12.9966C207.482 14.1063 207.979 15.5392 207.915 17.003C207.984 18.4677 207.486 19.9026 206.525 21.0095Z" fill="currentColor"></path>
<path d="M38.7194 0.0615234H32.1298L21.7973 10.2425C20.8162 11.2054 20.0563 12.3701 19.57 13.6559C18.1664 6.61158 12.2424 0.0615234 1.04007 0.0615234H0.414062V8.27216H0.76331C8.3743 8.35783 11.076 13.0496 11.076 17.0034C11.076 20.9571 8.3743 25.6489 0.76331 25.7346H0.414062V33.9387H1.04007C12.2424 33.9387 18.173 27.3886 19.57 20.3443C20.0587 21.6289 20.8183 22.7931 21.7973 23.7577L32.1364 33.9387H38.726V27.4084L28.1497 17.0034L38.693 6.5984L38.7194 0.0615234Z" fill="#2BD6D9"></path>
</svg>
