<svg width="160" height="58" viewBox="0 0 160 58" fill="none" xmlns="http://www.w3.org/2000/svg">
<path fill-rule="evenodd" clip-rule="evenodd" d="M57.1266 35.1239H65.4913V32.4595H60.3173V30.2249H64.9308V27.7324H60.3173V25.4977H65.4913V22.8333H57.1266V35.1239ZM75.8824 29.8381C74.6751 31.7719 73.511 32.5454 71.9588 32.5454C69.9754 32.5454 68.8544 31.1703 68.8544 28.7637C68.8544 26.4861 69.8892 25.3688 71.5276 25.3688C72.6055 25.3688 73.4679 25.8415 73.7697 27.4315H76.9603C76.6154 24.4234 74.6751 22.5325 71.5707 22.5325C67.992 22.5325 65.6206 25.068 65.6206 28.9356C65.6206 32.8463 67.992 35.3817 71.8726 35.3817C74.4164 35.3817 76.1411 34.3074 77.2622 32.8892H81.6169V35.1239H84.7645V22.7904H80.3234L75.8824 29.8381ZM81.6169 30.4397H78.8144L81.6169 25.8845V30.4397ZM50.3142 22.7904H45.6576V35.1239H50.3142C54.0222 35.1239 56.3936 32.7173 56.3936 28.9356C56.3936 25.1539 54.0222 22.7904 50.3142 22.7904ZM50.2711 32.4595H48.8482V25.4547H50.2711C52.1251 25.4547 53.1599 26.744 53.1599 28.9356C53.1599 31.1703 52.1251 32.4595 50.2711 32.4595ZM121.371 22.5325C117.619 22.5325 115.119 25.068 115.119 28.9356C115.119 32.8033 117.619 35.3387 121.371 35.3387C125.122 35.3387 127.623 32.8033 127.623 28.9356C127.623 25.068 125.122 22.5325 121.371 22.5325ZM121.371 32.5454C119.517 32.5454 118.352 31.2992 118.352 28.9786C118.352 26.658 119.517 25.4118 121.371 25.4118C123.225 25.4118 124.389 26.658 124.389 28.9786C124.389 31.2992 123.225 32.5454 121.371 32.5454ZM85.5837 25.4547H88.6881V35.1239H91.8787V25.4547H94.9831V22.7904H85.5406V25.4547H85.5837ZM135.772 22.7904V29.5802L131.676 22.7904H128.356V35.1239H131.417V28.0762L135.685 35.1669H138.833V22.7904H135.772ZM110.591 22.7904H107.401V35.1239H115.377V32.4595H110.591V22.7904ZM103.305 27.5175H98.993V22.7904H95.8455V35.1239H99.0361V30.1819H103.348V35.1669H106.538V22.7904H103.348L103.305 27.5175ZM36.6893 20.1689C29.7906 20.1689 21.1672 27.3026 21.1672 33.233C21.1672 36.2842 23.5387 37.8312 26.6431 37.8312C28.9283 37.8312 31.6877 37.0147 34.361 35.3817V23.5639C33.6711 24.7672 30.308 29.6662 27.6348 32.2446C26.255 33.5768 25.1771 34.1355 24.2716 34.1355C23.2368 34.1355 22.7194 33.4479 22.7194 32.3735C22.7194 27.6034 30.7823 21.3722 36.1288 21.3722C38.3277 21.3722 39.7506 22.3606 39.7506 24.2515C39.7506 25.9704 38.5864 28.1621 36.5599 30.1819V33.8347C40.0955 31.0843 42.1651 27.5175 42.1651 24.6812C42.122 21.716 39.7937 20.1689 36.6893 20.1689Z" fill="#3643BA"/>
</svg>
