<svg width="99" height="25" viewBox="0 0 99 25" fill="none" xmlns="http://www.w3.org/2000/svg">
<g clip-path="url(#clip0_842_7023)">
<path fill-rule="evenodd" clip-rule="evenodd" d="M98.2632 25.765H0.144531V1.23529H98.2632V25.765ZM36.7364 9.45559L36.7069 9.4176C36.4568 9.10304 34.6213 6.94302 31.4426 7.01338C26.2798 7.12872 24.7781 11.4271 24.7781 13.4189C24.7781 17.6142 28.0269 19.7097 30.6813 19.9632C33.3249 20.2195 35.1413 19.1091 36.0091 18.4011L36.1322 18.2981L36.2409 18.2025L36.3352 18.1156L36.4474 18.0065L36.5268 17.9246L36.5935 17.8508L36.5913 17.8494L36.6071 17.8464L36.6972 17.8426L37.0275 17.8405L39.5012 17.8508V19.7195H42.6067V7.26327H39.2324L35.0625 14.283C34.8705 14.6023 34.7332 14.8282 34.6747 14.9198L34.5761 15.069C34.0659 15.8119 33.0698 16.8428 31.6107 16.8248C29.0732 16.7857 28.1194 15.0426 28.1194 13.4782C28.1194 11.6978 29.5453 10.1685 31.4126 10.1337C32.8355 10.1045 34.0132 11.011 34.6276 11.6024L34.7505 11.7238L34.9011 11.8819L34.9778 11.9672L35.0878 12.0976L36.7364 9.45559ZM79.165 8.85263C77.9268 7.65441 76.3188 7.00287 74.6199 7.00287C72.8116 7.00287 71.2387 7.61898 69.9863 8.83671C68.7326 10.052 68.0561 11.6408 68.0561 13.369C68.0561 14.7343 68.3867 15.9358 69.0415 16.9743L66.1429 16.9737V7.26542H62.9353V19.7278H69.9065L69.9063 18.0656C71.1532 19.3418 72.7448 19.9953 74.6016 19.9953C76.3734 19.9953 78.0556 19.3073 79.291 18.0388C80.0141 17.3058 80.5354 16.43 80.835 15.4551L80.8346 19.7278H84.0647V12.7833L88.988 19.7278H91.8271V7.26313H88.5957V14.1854L83.7495 7.26313H80.8346L80.8353 11.5057C80.5203 10.5264 79.9584 9.62248 79.165 8.85263ZM15.4887 8.75224C14.1154 7.52503 12.6518 7.26324 10.5578 7.26324H6.05029V19.7278H10.9996C12.8543 19.7278 14.0966 19.48 15.5034 18.1851C16.49 17.2659 17.1021 16.1134 17.3227 14.7502L17.3217 19.7194H24.4972V16.9863H20.5497V14.7271L23.9679 14.7236V12.0432L20.5497 12.0462V10.0098L24.4972 10.0053V7.26324H17.3217L17.3224 12.2848C17.0987 10.8235 16.475 9.63125 15.4887 8.75224ZM51.5155 10.2381V7.25825H43.2803V10.2381H45.7862V19.7278H49.0119V10.2381H51.5155ZM55.4053 11.9953V7.26198H52.1811V19.7278H55.4053V14.9583H58.725V19.7278H61.9506V7.26198H58.725V11.9953H55.4053ZM9.27695 9.94357H10.5578C12.9271 9.94357 14.2079 11.2086 14.2079 13.453C14.2079 15.9059 13.0411 16.9903 10.5724 16.9903H9.27695V9.94357ZM71.2568 13.4028C71.2568 11.5698 72.7444 10.1044 74.638 10.1044C76.4281 10.1044 77.9142 11.5698 77.9142 13.4028C77.9142 15.4457 76.4281 16.8902 74.6016 16.8902C72.8479 16.8902 71.2568 15.3788 71.2568 13.4028ZM37.9009 15.245L39.5652 12.4241V15.245H37.9009Z" fill="white"/>
</g>
<defs>
<clipPath id="clip0_842_7023">
<rect width="98.1187" height="24.5297" fill="white" transform="translate(0.144531 0.235168)"/>
</clipPath>
</defs>
</svg>
