<svg width="140" height="50" viewBox="0 0 140 50" fill="none" xmlns="http://www.w3.org/2000/svg">
<g clip-path="url(#clip0_17011_10176)">
<path d="M96.4364 24.9665C96.0863 24.688 95.7071 24.4455 95.3051 24.2431L95.1961 24.1904L95.2913 24.1111C95.8639 23.5951 96.3125 22.9634 96.6053 22.2608C96.898 21.5581 97.0278 20.8017 96.9854 20.0451C96.9818 18.066 96.2847 16.5894 94.8944 15.6551C93.7221 14.8519 92.1014 14.4592 89.9367 14.4629L83.7288 14.4737C83.5563 14.4763 83.3915 14.544 83.2697 14.6625C83.1479 14.781 83.0786 14.9409 83.0767 15.1081L83.1132 34.8327C83.1136 35.0006 83.1827 35.1616 83.3055 35.2801C83.4283 35.3987 83.5946 35.4651 83.7679 35.4648L90.8607 35.4525C93.0932 35.4486 94.8894 34.9836 96.1811 34.071C96.922 33.5514 97.5116 32.8548 97.8927 32.0491C98.3145 31.1414 98.522 30.154 98.5 29.1587C98.5052 28.3543 98.3222 27.5591 97.9648 26.833C97.6074 26.107 97.0848 25.4688 96.4364 24.9665ZM85.094 16.4375L89.9405 16.4291C91.6559 16.4261 92.9225 16.7009 93.7403 17.2535C94.2582 17.6088 94.9674 18.2937 94.9707 20.0485C94.9765 23.1884 92.4176 23.4435 91.6416 23.4448L85.107 23.4562L85.094 16.4375ZM90.8571 33.4998L85.1256 33.5098L85.1106 25.4088L91.6453 25.3975C94.4769 25.3925 96.4674 26.9455 96.4715 29.1623C96.4735 30.231 96.4795 33.4901 90.8571 33.4998Z" fill="#007272"/>
<path d="M55.2818 17.6508C54.3686 16.5753 53.1924 15.7382 51.8602 15.2158C50.6448 14.7579 49.351 14.5274 48.0471 14.5364L42.1523 14.5467C41.9776 14.55 41.8112 14.6198 41.6891 14.741C41.5671 14.8623 41.4991 15.0252 41.5 15.1946L41.5366 34.9057C41.5369 35.0736 41.6061 35.2346 41.7289 35.3531C41.8517 35.4717 42.018 35.5381 42.1913 35.5378L48.086 35.5275C49.3905 35.5387 50.6848 35.3034 51.8966 34.8348C53.2288 34.3173 54.4032 33.4797 55.3091 32.4008C57.3875 29.9169 57.6948 26.7894 57.6918 25.1402C57.6891 23.7422 57.4512 20.2193 55.2818 17.6508ZM53.7413 31.1633C53.0459 31.9519 52.1759 32.5782 51.1961 32.9957C50.2164 33.4133 49.152 33.6112 48.0824 33.5749L43.5625 33.5828L43.5309 16.5104L48.0507 16.5025C49.1206 16.4591 50.1867 16.6518 51.1685 17.066C52.1504 17.4802 53.0223 18.1052 53.7186 18.8936C55.5196 21.028 55.6616 24.2205 55.6633 25.1437C55.6659 26.5294 55.4256 29.155 53.7413 31.1633Z" fill="#007272"/>
<path d="M78.1996 6L78.2534 34.9736C78.2561 35.0996 78.2165 35.2231 78.1406 35.3255C78.0647 35.4278 77.9565 35.5036 77.8324 35.5412C77.7723 35.5671 77.7075 35.5808 77.6418 35.5815C77.5433 35.5816 77.4461 35.5589 77.3585 35.5154C77.2708 35.4718 77.1951 35.4087 77.1377 35.3311L63.7792 18.9024L63.8257 43.9965L61.7973 44L61.7434 14.9607C61.7434 14.8334 61.7857 14.7095 61.8639 14.6073C61.9422 14.5051 62.0523 14.43 62.178 14.3931C62.2387 14.3704 62.3038 14.3613 62.3686 14.3664C62.4658 14.3651 62.5619 14.3858 62.6494 14.4268C62.7369 14.4678 62.8134 14.5279 62.8727 14.6025L76.2312 31.0448L76.1847 6.0035L78.1996 6Z" fill="#007272"/>
</g>
<defs>
<clipPath id="clip0_17011_10176">
<rect width="57" height="38" fill="white" transform="translate(41.5 6)"/>
</clipPath>
</defs>
</svg>
