<svg width="298" height="97" viewBox="0 0 298 97" fill="none" xmlns="http://www.w3.org/2000/svg">
<path d="M47.1 22.7H36.2C32.9 22.7 30.3 20.1 30.3 16.8V5.90003C30.3 2.70002 32.9 0 36.2 0H47.1C50.3 0 53 2.60001 53 5.90003V16.8C53 20.1 50.4 22.7 47.1 22.7Z" fill="#406EB3"/>
<path d="M18.8 47.2H6.59999C2.90002 47.2 0 44.2 0 40.6V28.2999C0 24.6999 2.99999 21.7 6.59999 21.7H18.9C22.6 21.7 25.5 24.6999 25.5 28.2999V40.6C25.5 44.3 22.5 47.2 18.8 47.2Z" fill="#632678"/>
<path d="M17.7 72.7H10.2C8 72.7 6.20001 70.9 6.20001 68.7V61.2C6.20001 59 8 57.2 10.2 57.2H17.7C19.9 57.2 21.7 59 21.7 61.2V68.7C21.7 70.9 19.9 72.7 17.7 72.7Z" fill="#982881"/>
<path d="M37.8 96.4H28.9C26.3 96.4 24.1 94.3 24.1 91.6V82.7C24.1 80.1 26.2 77.9 28.9 77.9H37.8C40.4 77.9 42.6 80 42.6 82.7V91.6C42.6 94.3 40.5 96.4 37.8 96.4Z" fill="#BA2F7D"/>
<path d="M70.3 27.2H64.2C62.4 27.2 60.9 25.7 60.9 23.9V17.8C60.9 16 62.4 14.5 64.2 14.5H70.3C72.1 14.5 73.6 16 73.6 17.8V23.9C73.7001 25.7 72.2 27.2 70.3 27.2Z" fill="#BA2F7D"/>
<path d="M204.9 31.3C206.9 31.3 208.4 29.7001 208.4 27.8C208.4 25.8001 206.8 24.3 204.9 24.3C202.9 24.3 201.3 25.9 201.3 27.8C201.3 29.7001 202.9 31.3 204.9 31.3Z" fill="#26478D"/>
<path d="M75.6 69.1C75.1 69.9 74.2 70.3 73.2 70.3C72.7 70.3 72 70.1998 71.6 69.9C70.8 69.4 70.3 68.4 70.3 67.4C70.3 66.9 70.4002 66.4 70.7 66L78.9 53.1L70.7 40.2C70.3999 39.8 70.3 39.2 70.3 38.8C70.3 37.8 70.8 36.8 71.7 36.3C72.2 35.9999 72.7 35.9 73.2 35.9C74.2 35.9 75.1 36.3 75.7 37.1L82.4 47.7L89.2 37.1C89.7 36.3 90.7 35.9 91.7 35.9C92.2 35.9 92.7 36.0001 93.2 36.3C94.1 36.8 94.6 37.8 94.6 38.8C94.6 39.3 94.5 39.8 94.2 40.2L86 53.1L94.2 66C94.5 66.4 94.6 66.9 94.6 67.4C94.6 68.4 94.1 69.5 93.3 69.9C92.8 70.2001 92.2 70.3 91.7 70.3C90.7 70.3 89.9 69.9 89.3 69.1L82.5 58.6L75.6 69.1Z" fill="#26478D"/>
<path d="M104.9 39.7999C108 37 112.2 35.3 116.7 35.3C126.6 35.3 134.4 43.2 134.4 53C134.4 62.7 126.5 70.6 116.7 70.6C112.2 70.6 108 68.9 104.9 66.0999V81.1999C104.9 82.7 103.5 84 102 84C100.6 84 99.1 82.7 99.1 81.1999V38.4C99.1 36.9 100.5 35.5999 102 35.5999C103.6 35.5999 104.9 36.9 104.9 38.4V39.7999ZM116.6 41.2C110 41.2 104.8 46.4 104.8 53C104.8 59.6 110 64.8 116.6 64.8C123.2 64.8 128.4 59.6 128.4 53C128.5 46.4 123.3 41.2 116.6 41.2Z" fill="#26478D"/>
<path d="M184.5 49.8V67.5C184.5 69 183.1 70.3 181.6 70.3C180 70.3 178.7 69 178.7 67.5V38.4C178.7 36.9 180.1 35.6 181.6 35.6C183 35.6 184.4 36.8 184.5 38.3C186.9 36.5 190 35.4 193.3 35.4C195.1 35.4 196.5 36.8 196.5 38.3C196.5 39.9 195.1 41.3 193.3 41.3C188.8 41.4002 184.5 43 184.5 49.8Z" fill="#26478D"/>
<path d="M204.9 35.6C203.3 35.6 202 36.9 202 38.4V67.6C202 69.1 203.4 70.4 204.9 70.4C206.3 70.4 207.8 69.1 207.8 67.6V38.4C207.8 36.9 206.4 35.6 204.9 35.6Z" fill="#26478D"/>
<path d="M242.1 38.4C242.1 36.9 243.5 35.6 245 35.6C246.4 35.6 247.9 36.9 247.9 38.4V67.6C247.9 69.1 246.5 70.4 245 70.4C243.4 70.4 242.1 69.1 242.1 67.6V66.2C238.9 69 234.8 70.7 230.3 70.7C220.4 70.7 212.6 62.8 212.6 53C212.6 43.3 220.5 35.4 230.3 35.4C234.8 35.4 238.9 37.1 242.1 39.9V38.4ZM230.3 64.8C236.9 64.8 242.1 59.6 242.1 53C242.1 46.4 236.9 41.2 230.3 41.2C223.7 41.2 218.5 46.4 218.5 53C218.5 59.6 223.7 64.8 230.3 64.8Z" fill="#26478D"/>
<path d="M277.6 50.2C277.6 45.3 273.4 41.1 268.5 41.1C263.8 41.1 259.4 43 259.4 49.9V67.6C259.4 69.1 258 70.4 256.5 70.4C254.9 70.4 253.6 69.1 253.6 67.6V38.4C253.6 36.9 255 35.6 256.5 35.6C257.9 35.6 259.3 36.8 259.4 38.3C261.9 36.4 265 35.4 268.4 35.4C276.3 35.4 283.4 41.6 283.4 49.4V67.6C283.4 69.1 282 70.4 280.5 70.4C278.9 70.4 277.6 69.1 277.6 67.6V50.2Z" fill="#26478D"/>
<path d="M68.6 52C68.4999 43 60.5 35.4 51 35.4C41.1 35.4 33.3 43.3 33.3 53C33.3 62.9 41.2 70.7 51 70.7C55.7 70.7 60.1 68.9 63.3 65.7C63.9 65.2 64.3 64.3 64.3 63.5C64.3 61.9 62.9 60.6 61.4 60.6C60.5 60.6 59.7 61.1 59.1 61.8C57.1 63.9 54.2 64.9 51.1 64.9C45.2 64.9 40.4 60.9 39.4 55.3H65.8C65.8 55.3 65.8 55.3 65.9002 55.3H66.1001C66.2003 55.3 66.3 55.3 66.4002 55.1998C67.6002 54.6998 68.6 53.5 68.6 52ZM51 41.2C56.3 41.2 60.7 44.6 62.2 49.4H39.7C41.2 44.6 45.6 41.2 51 41.2Z" fill="#26478D"/>
<path d="M173.8 52C173.7 43 165.6 35.4 156.2 35.4C146.3 35.4 138.5 43.3 138.5 53C138.5 62.9 146.4 70.7 156.2 70.7C160.9 70.7 165.3 68.9 168.5 65.7C169.1 65.2 169.5 64.3 169.5 63.5C169.5 61.9 168.1 60.6 166.6 60.6C165.7 60.6 164.9 61.1 164.3 61.8C162.3 63.9 159.4 64.9 156.3 64.9C150.4 64.9 145.6 60.9 144.6 55.3H171C171 55.3 171 55.3 171.1 55.3H171.2C171.3 55.3 171.4 55.3 171.4 55.3H171.5C172.7 54.8 173.8 53.5 173.8 52ZM156.2 41.2C161.5 41.2 165.9 44.6 167.4 49.4H144.9C146.4 44.6 150.8 41.2 156.2 41.2Z" fill="#26478D"/>
<path d="M289.6 70.4C289.3 70.4 289.1 70.2 289.1 69.9V65H288C287.7 65 287.5 64.8001 287.5 64.5C287.5 64.1999 287.7 64 288 64H291.2C291.5 64 291.7 64.2 291.7 64.5C291.7 64.8001 291.5 65 291.2 65H290.1V69.9C290.1 70.2001 289.9 70.4 289.6 70.4Z" fill="#26478D"/>
<path d="M295.3 70.4C295 70.4 294.9 70.2001 294.8 70L293.4 66V69.9C293.4 70.2001 293.2 70.4 292.9 70.4C292.6 70.4 292.4 70.2 292.4 69.9V64.7C292.4 64.3 292.7 64 293.1 64C293.4 64 293.7 64.2 293.8 64.5L295.2 68.6L296.6 64.5C296.7 64.1999 297 64 297.3 64C297.7 64 298 64.3001 298 64.7V69.9C298 70.2001 297.8 70.4 297.5 70.4C297.2 70.4 297 70.2 297 69.9V66C296.8 66.6 296.5 67.6 296.2 68.4C295.7 70 295.6 70 295.6 70C295.7 70.3001 295.5 70.4 295.3 70.4Z" fill="#26478D"/>
</svg>
