<svg width="140" height="50" viewBox="0 0 140 50" fill="none" xmlns="http://www.w3.org/2000/svg">
<path d="M45.4157 18.8477H42.786C41.9898 18.8477 41.3625 18.2204 41.3625 17.4243V14.7945C41.3625 14.0225 41.9898 13.3711 42.786 13.3711H45.4157C46.1877 13.3711 46.8391 13.9984 46.8391 14.7945V17.4243C46.8391 18.2204 46.2118 18.8477 45.4157 18.8477Z" fill="#406EB3"/>
<path d="M38.588 24.7585H35.6447C34.752 24.7585 34.0524 24.0347 34.0524 23.1662V20.1987C34.0524 19.3302 34.7761 18.6064 35.6447 18.6064H38.6122C39.5048 18.6064 40.2045 19.3302 40.2045 20.1987V23.1662C40.2045 24.0589 39.4807 24.7585 38.588 24.7585Z" fill="#632678"/>
<path d="M38.3227 30.9106H36.5132C35.9824 30.9106 35.5482 30.4764 35.5482 29.9456V28.1362C35.5482 27.6054 35.9824 27.1711 36.5132 27.1711H38.3227C38.8534 27.1711 39.2877 27.6054 39.2877 28.1362V29.9456C39.2877 30.4764 38.8534 30.9106 38.3227 30.9106Z" fill="#982881"/>
<path d="M43.172 36.6285H41.0248C40.3975 36.6285 39.8667 36.1218 39.8667 35.4704V33.3232C39.8667 32.696 40.3734 32.1652 41.0248 32.1652H43.172C43.7992 32.1652 44.33 32.6718 44.33 33.3232V35.4704C44.33 36.1218 43.8234 36.6285 43.172 36.6285Z" fill="#BA2F7D"/>
<path d="M51.0129 19.9334H49.5412C49.1069 19.9334 48.7451 19.5715 48.7451 19.1372V17.6655C48.7451 17.2312 49.1069 16.8694 49.5412 16.8694H51.0129C51.4472 16.8694 51.809 17.2312 51.809 17.6655V19.1372C51.8332 19.5715 51.4713 19.9334 51.0129 19.9334Z" fill="#BA2F7D"/>
<path d="M83.4864 20.9225C83.9689 20.9225 84.3308 20.5365 84.3308 20.0781C84.3308 19.5956 83.9448 19.2337 83.4864 19.2337C83.0039 19.2337 82.6179 19.6197 82.6179 20.0781C82.6179 20.5365 83.0039 20.9225 83.4864 20.9225Z" fill="#26478D"/>
<path d="M52.2916 30.0421C52.1709 30.2351 51.9538 30.3316 51.7125 30.3316C51.5919 30.3316 51.423 30.3074 51.3265 30.2351C51.1335 30.1145 51.0129 29.8732 51.0129 29.632C51.0129 29.5113 51.0371 29.3907 51.1094 29.2942L53.0877 26.182L51.1094 23.0697C51.037 22.9732 51.0129 22.8285 51.0129 22.732C51.0129 22.4907 51.1335 22.2494 51.3507 22.1288C51.4713 22.0564 51.5919 22.0323 51.7125 22.0323C51.9538 22.0323 52.1709 22.1288 52.3157 22.3218L53.9321 24.8792L55.5727 22.3218C55.6933 22.1288 55.9346 22.0323 56.1758 22.0323C56.2965 22.0323 56.4171 22.0565 56.5377 22.1288C56.7549 22.2494 56.8755 22.4907 56.8755 22.732C56.8755 22.8526 56.8514 22.9732 56.779 23.0697L54.8007 26.182L56.779 29.2942C56.8514 29.3907 56.8755 29.5113 56.8755 29.632C56.8755 29.8732 56.7549 30.1386 56.5619 30.2351C56.4412 30.3075 56.2965 30.3316 56.1758 30.3316C55.9346 30.3316 55.7416 30.2351 55.5968 30.0421L53.9563 27.5089L52.2916 30.0421Z" fill="#26478D"/>
<path d="M59.3605 22.9732C60.1084 22.2977 61.1217 21.8875 62.2073 21.8875C64.5958 21.8875 66.4776 23.7935 66.4776 26.1578C66.4776 28.498 64.5717 30.404 62.2073 30.404C61.1217 30.404 60.1084 29.9939 59.3605 29.3183V32.9613C59.3605 33.3232 59.0227 33.6369 58.6608 33.6369C58.323 33.6369 57.9612 33.3232 57.9612 32.9613V22.6354C57.9612 22.2736 58.2989 21.9599 58.6608 21.9599C59.0468 21.9599 59.3605 22.2736 59.3605 22.6354V22.9732ZM62.1832 23.311C60.5909 23.311 59.3363 24.5655 59.3363 26.1578C59.3363 27.7501 60.5909 29.0047 62.1832 29.0047C63.7755 29.0047 65.0301 27.7501 65.0301 26.1578C65.0542 24.5655 63.7996 23.311 62.1832 23.311Z" fill="#26478D"/>
<path d="M78.5647 25.3858V29.6561C78.5647 30.018 78.2269 30.3316 77.8651 30.3316C77.479 30.3316 77.1654 30.018 77.1654 29.6561V22.6355C77.1654 22.2736 77.5032 21.9599 77.8651 21.9599C78.2028 21.9599 78.5406 22.2494 78.5647 22.6113C79.1437 22.1771 79.8916 21.9117 80.6878 21.9117C81.1221 21.9117 81.4598 22.2494 81.4598 22.6113C81.4598 22.9973 81.1221 23.3351 80.6878 23.3351C79.6021 23.3593 78.5647 23.7452 78.5647 25.3858Z" fill="#26478D"/>
<path d="M83.4864 21.9599C83.1004 21.9599 82.7867 22.2736 82.7867 22.6355V29.6802C82.7867 30.0421 83.1245 30.3557 83.4864 30.3557C83.8242 30.3557 84.186 30.0421 84.186 29.6802V22.6355C84.186 22.2736 83.8483 21.9599 83.4864 21.9599Z" fill="#26478D"/>
<path d="M92.4612 22.6355C92.4612 22.2736 92.799 21.9599 93.1609 21.9599C93.4987 21.9599 93.8605 22.2736 93.8605 22.6355V29.6802C93.8605 30.0421 93.5228 30.3557 93.1609 30.3557C92.7749 30.3557 92.4612 30.0421 92.4612 29.6802V29.3425C91.6892 30.018 90.7 30.4281 89.6144 30.4281C87.2259 30.4281 85.3441 28.5222 85.3441 26.1578C85.3441 23.8176 87.25 21.9117 89.6144 21.9117C90.7 21.9117 91.6892 22.3218 92.4612 22.9973V22.6355ZM89.6144 29.0047C91.2067 29.0047 92.4612 27.7501 92.4612 26.1578C92.4612 24.5655 91.2067 23.311 89.6144 23.311C88.0221 23.311 86.7675 24.5655 86.7675 26.1578C86.7675 27.7501 88.0221 29.0047 89.6144 29.0047Z" fill="#26478D"/>
<path d="M101.026 25.4823C101.026 24.3001 100.013 23.2868 98.8305 23.2868C97.6966 23.2868 96.635 23.7453 96.635 25.4099V29.6802C96.635 30.0421 96.2973 30.3557 95.9354 30.3557C95.5494 30.3557 95.2357 30.0421 95.2357 29.6802V22.6355C95.2357 22.2736 95.5735 21.9599 95.9354 21.9599C96.2731 21.9599 96.6109 22.2494 96.635 22.6113C97.2382 22.1529 97.9861 21.9117 98.8064 21.9117C100.712 21.9117 102.425 23.4075 102.425 25.2893V29.6802C102.425 30.0421 102.087 30.3557 101.726 30.3557C101.34 30.3557 101.026 30.0421 101.026 29.6802V25.4823Z" fill="#26478D"/>
<path d="M50.6028 25.9166C50.5786 23.7452 48.6486 21.9117 46.3566 21.9117C43.9681 21.9117 42.0863 23.8176 42.0863 26.1578C42.0863 28.5463 43.9923 30.4281 46.3566 30.4281C47.4905 30.4281 48.5521 29.9939 49.3241 29.2218C49.4688 29.1012 49.5653 28.8841 49.5653 28.6911C49.5653 28.305 49.2276 27.9914 48.8657 27.9914C48.6486 27.9914 48.4556 28.112 48.3108 28.2809C47.8283 28.7876 47.1286 29.0288 46.3807 29.0288C44.9573 29.0288 43.7992 28.0638 43.558 26.7127H49.9272C49.9272 26.7127 49.9272 26.7127 49.9514 26.7127H49.9996C50.0238 26.7127 50.0479 26.7127 50.072 26.6886C50.3615 26.5679 50.6028 26.2785 50.6028 25.9166ZM46.3566 23.311C47.6353 23.311 48.6968 24.1313 49.0587 25.2893H43.6304C43.9923 24.1313 45.0538 23.311 46.3566 23.311Z" fill="#26478D"/>
<path d="M75.9832 25.9166C75.9591 23.7452 74.0049 21.9117 71.7371 21.9117C69.3486 21.9117 67.4668 23.8176 67.4668 26.1578C67.4668 28.5463 69.3727 30.4281 71.7371 30.4281C72.871 30.4281 73.9325 29.9939 74.7046 29.2218C74.8493 29.1012 74.9458 28.8841 74.9458 28.6911C74.9458 28.305 74.6081 27.9914 74.2462 27.9914C74.029 27.9914 73.836 28.112 73.6913 28.2809C73.2088 28.7876 72.5091 29.0288 71.7612 29.0288C70.3378 29.0288 69.1797 28.0638 68.9385 26.7127H75.3077C75.3077 26.7127 75.3077 26.7127 75.3318 26.7127H75.356C75.3801 26.7127 75.4042 26.7127 75.4042 26.7127H75.4283C75.7179 26.5921 75.9832 26.2785 75.9832 25.9166ZM71.7371 23.311C73.0157 23.311 74.0773 24.1313 74.4392 25.2893H69.0108C69.3727 24.1313 70.4343 23.311 71.7371 23.311Z" fill="#26478D"/>
<path d="M103.921 30.3557C103.849 30.3557 103.8 30.3075 103.8 30.2351V29.053H103.535C103.463 29.053 103.414 29.0047 103.414 28.9323C103.414 28.8599 103.463 28.8117 103.535 28.8117H104.307C104.379 28.8117 104.428 28.8599 104.428 28.9323C104.428 29.0047 104.379 29.053 104.307 29.053H104.042V30.2351C104.042 30.3075 103.993 30.3557 103.921 30.3557Z" fill="#26478D"/>
<path d="M105.296 30.3557C105.224 30.3557 105.2 30.3075 105.176 30.2593L104.838 29.2942V30.2351C104.838 30.3075 104.79 30.3557 104.717 30.3557C104.645 30.3557 104.597 30.3075 104.597 30.2351V28.9806C104.597 28.8841 104.669 28.8117 104.765 28.8117C104.838 28.8117 104.91 28.8599 104.934 28.9323L105.272 29.9215L105.61 28.9323C105.634 28.8599 105.706 28.8117 105.779 28.8117C105.875 28.8117 105.948 28.8841 105.948 28.9806V30.2351C105.948 30.3075 105.899 30.3557 105.827 30.3557C105.755 30.3557 105.706 30.3075 105.706 30.2351V29.2942C105.658 29.439 105.586 29.6802 105.513 29.8732C105.393 30.2592 105.369 30.2593 105.369 30.2593C105.393 30.3317 105.344 30.3557 105.296 30.3557Z" fill="#26478D"/>
</svg>
