<svg width="140" height="50" viewBox="0 0 140 50" fill="none" xmlns="http://www.w3.org/2000/svg">
<g clip-path="url(#clip0_17011_16072)">
<path d="M57.1657 16.7912C58.4379 16.7912 59.4693 17.8222 59.4693 19.0945C59.4693 20.367 58.4379 21.3981 57.1657 21.3981H46.6314C45.3591 21.3981 44.3278 20.367 44.3278 19.0945C44.3278 17.8222 45.3591 16.7912 46.6314 16.7912H57.1657Z" fill="#CC393C"/>
<path d="M56.1069 22.827C57.3792 22.827 58.4105 23.8582 58.4105 25.1306C58.4105 26.4028 57.3792 27.434 56.1069 27.434H50.111C49.5997 27.4358 49.1811 27.8403 49.1615 28.3465V31.3488C49.1615 32.621 48.1302 33.6522 46.8583 33.6522C45.586 33.6522 44.5547 32.621 44.5547 31.3488V26.2397C44.5547 24.3551 46.0825 22.827 47.9671 22.827H56.1069Z" fill="#3D3D6A"/>
<path d="M60.5153 18.6092C60.5153 17.337 61.5466 16.3057 62.8188 16.3057C64.0912 16.3057 65.1224 17.337 65.1224 18.6092V31.3651C65.1224 32.6374 64.0912 33.6687 62.8188 33.6687C61.5466 33.6687 60.5153 32.6374 60.5153 31.3651V18.6092Z" fill="#3D3D6A"/>
<path d="M88.8663 29.0998L89.7921 29.0974C89.9812 29.0974 90.1347 28.9438 90.1347 28.7547C90.1355 28.7066 90.1276 28.6638 90.1105 28.6234L86.6684 22.8393L81.291 32.1503C80.8757 32.8702 80.1298 33.2809 79.3557 33.3016C79.333 33.3047 79.31 33.3064 79.286 33.3064H70.5349C68.65 33.3064 67.1223 31.7786 67.1223 29.894V18.6092C67.1223 17.337 68.1536 16.3057 69.4259 16.3057C70.6979 16.3057 71.7293 17.337 71.7293 18.6092V27.7497C71.7309 28.2613 72.1353 28.6801 72.6419 28.6993H77.5372C77.6632 28.6605 78.0482 28.5296 78.1655 28.3473L84.3143 17.7032C84.7809 16.9021 85.6488 16.3627 86.6422 16.3627C87.6362 16.3627 88.5043 16.9029 88.9688 17.7057L94.9604 27.7653C95.4064 28.3461 95.6717 29.0728 95.6717 29.8616C95.6717 31.7642 94.1293 33.3064 92.227 33.3064H85.2428C84.0808 33.3064 83.1394 32.3646 83.1394 31.2028C83.1394 30.0414 84.0808 29.0998 85.2428 29.0998H88.8663Z" fill="#3D3D6A"/>
</g>
<defs>
<clipPath id="clip0_17011_16072">
<rect width="51.3443" height="17.3886" fill="white" transform="translate(44.3278 16.3057)"/>
</clipPath>
</defs>
</svg>
