<svg width="160" height="58" viewBox="0 0 160 58" fill="none" xmlns="http://www.w3.org/2000/svg">
<g clip-path="url(#clip0_17011_16072)">
<path d="M67.1657 21.3624C68.4379 21.3624 69.4693 22.3935 69.4693 23.6658C69.4693 24.9383 68.4379 25.9694 67.1657 25.9694H56.6314C55.3591 25.9694 54.3278 24.9383 54.3278 23.6658C54.3278 22.3935 55.3591 21.3624 56.6314 21.3624H67.1657Z" fill="#CC393C"/>
<path d="M66.1069 27.3983C67.3792 27.3983 68.4105 28.4295 68.4105 29.7019C68.4105 30.9741 67.3792 32.0053 66.1069 32.0053H60.111C59.5997 32.0071 59.1811 32.4116 59.1615 32.9178V35.9201C59.1615 37.1923 58.1302 38.2235 56.8583 38.2235C55.586 38.2235 54.5547 37.1923 54.5547 35.9201V30.8109C54.5547 28.9264 56.0825 27.3983 57.9671 27.3983H66.1069Z" fill="#3D3D6A"/>
<path d="M70.5153 23.1804C70.5153 21.9083 71.5466 20.877 72.8188 20.877C74.0912 20.877 75.1224 21.9083 75.1224 23.1804V35.9364C75.1224 37.2086 74.0912 38.2399 72.8188 38.2399C71.5466 38.2399 70.5153 37.2086 70.5153 35.9364V23.1804Z" fill="#3D3D6A"/>
<path d="M98.8663 33.6711L99.7921 33.6687C99.9812 33.6687 100.135 33.5151 100.135 33.326C100.136 33.2779 100.128 33.2351 100.11 33.1947L96.6684 27.4106L91.291 36.7216C90.8757 37.4415 90.1298 37.8522 89.3557 37.8728C89.333 37.876 89.31 37.8777 89.286 37.8777H80.5349C78.65 37.8777 77.1223 36.3498 77.1223 34.4653V23.1804C77.1223 21.9083 78.1536 20.877 79.4259 20.877C80.6979 20.877 81.7293 21.9083 81.7293 23.1804V32.321C81.7309 32.8326 82.1353 33.2514 82.6419 33.2705H87.5372C87.6632 33.2318 88.0482 33.1009 88.1655 32.9186L94.3143 22.2745C94.7809 21.4734 95.6488 20.934 96.6422 20.934C97.6362 20.934 98.5043 21.4742 98.9688 22.277L104.96 32.3366C105.406 32.9174 105.672 33.6441 105.672 34.4329C105.672 36.3355 104.129 37.8777 102.227 37.8777H95.2428C94.0808 37.8777 93.1394 36.9358 93.1394 35.7741C93.1394 34.6127 94.0808 33.6711 95.2428 33.6711H98.8663Z" fill="#3D3D6A"/>
</g>
<defs>
<clipPath id="clip0_17011_16072">
<rect width="51.3443" height="17.3886" fill="white" transform="translate(54.3278 20.877)"/>
</clipPath>
</defs>
</svg>
