<svg width="160" height="58" viewBox="0 0 160 58" fill="none" xmlns="http://www.w3.org/2000/svg">
<path d="M94.1981 35.1224H91.5647V24.3143L100.034 24.3213C100.034 24.3213 101.585 24.2632 102.571 25.2432C102.571 25.2432 103.578 26.0888 103.578 28.1554V35.1207H100.951V27.9753C100.951 27.9753 100.984 27.2465 100.737 26.9908C100.737 26.9908 100.518 26.713 100.103 26.713H94.1916L94.1971 35.1185L94.1981 35.1224ZM105.408 35.1205V24.3224H115.976V26.7243L108.026 26.7236V28.56H113.549V30.8792H108.026V32.7218H116.026V35.1242H105.402L105.408 35.1205ZM86.9757 24.3224H89.598V35.1242H86.9757V24.3224ZM119.751 35.1205V26.7212H117.276V24.3193H127.122V26.7212H122.375V35.1205H119.751ZM78.315 35.1205V26.7212H75.8396V24.3193H85.6855V26.7212H80.9391V35.1205H78.315ZM70.4074 28.5525C71.0482 28.5475 71.4315 28.5531 71.5858 28.4586C71.5858 28.4586 71.8551 28.3089 71.8582 27.9876L71.8588 27.2811C71.8588 26.9583 71.5864 26.8101 71.5864 26.8101C71.382 26.6983 71.0355 26.7193 70.213 26.7185H65.1042V28.5523H70.5247L70.4074 28.5525ZM71.8204 35.1205V31.4342C71.8204 31.1029 71.545 30.964 71.545 30.964C71.4208 30.8864 71.0488 30.8724 70.5011 30.8724H70.6284H65.1042V35.1199H62.4819V24.3218H70.6673C72.0809 24.3261 73.0568 24.5352 73.7291 25.1915C74.3896 25.8682 74.4772 26.7534 74.481 27.6747V28.4439C74.4895 29.2267 74.0805 29.9406 73.5927 30.3565L73.6907 30.4055C73.8898 30.5024 73.9986 30.6398 73.9986 30.6398C74.3697 31.1163 74.3651 31.5263 74.3643 32.0304V35.1226H71.8205L71.8204 35.1205ZM32.1652 24.3187V35.1174H34.7875V30.8737H42.7321V28.5531H34.7875V26.7181H44.0222V24.3162H32.1639L32.1652 24.3187Z" fill="#231F20"/>
<path d="M126.236 33.2103V33.7062H126.695C126.819 33.7062 126.94 33.6721 126.958 33.4866C126.984 33.2406 126.808 33.2103 126.695 33.2103H126.236ZM126.051 33.0474H126.691C126.913 33.0474 127.128 33.0893 127.146 33.4144C127.154 33.6006 127.098 33.6682 126.958 33.7744C127.105 33.8691 127.109 33.8917 127.132 34.1415C127.146 34.3308 127.12 34.3611 127.199 34.486H126.981L126.951 34.3044C126.921 34.1337 127.003 33.8691 126.706 33.8691H126.236V34.4861H126.051L126.051 33.0474ZM126.533 32.6501C125.901 32.6501 125.385 33.1684 125.39 33.8085C125.39 34.4442 125.901 34.9625 126.537 34.9594C127.17 34.9594 127.685 34.4442 127.685 33.8047C127.685 33.1684 127.169 32.6501 126.533 32.6501ZM126.537 35.1097C125.819 35.1097 125.238 34.5269 125.238 33.8047C125.235 33.0852 125.819 32.4986 126.537 32.4986C127.253 32.4986 127.836 33.0852 127.836 33.8047C127.836 34.5273 127.253 35.1072 126.537 35.1097Z" fill="#231F20"/>
<path d="M58.8763 35.2279C59.7281 34.9369 60.3911 33.9503 60.5504 32.71V32.3515H56.183V35.2282H58.8757L58.8763 35.2279ZM60.551 27.0769V26.7525C60.3836 25.4581 59.6714 24.4382 58.7633 24.1986H56.1836V27.0766L60.551 27.0769ZM45.1803 32.3518V32.7072C45.3384 33.9488 46.0013 34.9371 46.8556 35.2282H49.5347V32.3515L45.1803 32.3518ZM46.9674 24.2007C46.0606 24.4405 45.3463 25.4609 45.1803 26.7572V27.0792H49.5347V24.2012L46.9674 24.2007ZM60.5541 28.2769H56.1867V31.1549H60.5541V28.2769ZM50.7267 35.2298H54.999V32.353H50.7267V35.2298ZM54.999 24.1982H50.7267V27.0763H54.999V24.1982ZM45.184 31.1512H49.5384V28.2731H45.184V31.1512Z" fill="#EE2E24"/>
</svg>
