<svg width="592" height="276" viewBox="0 0 592 276" fill="none" xmlns="http://www.w3.org/2000/svg">
<path d="M177.36 54.61H174.39C171.78 46.24 169.53 43.99 163.5 43.99H147.75V67.48H156.75C160.71 67.48 162.6 65.05 162.87 59.38H165.84V79.45H162.87C162.6 73.78 160.71 71.35 156.75 71.35H147.75V90.61C147.75 95.29 150.72 96.73 158.73 97.27V100.24H129.31V97.27C135.16 96.64 137.23 95.11 137.23 90.79V49.85C137.23 44.9 135.16 43.46 129.31 43.1V40.13H176.37L177.36 54.61Z" fill="#FF384A"/>
<path d="M202.74 94.74C206.16 94.74 209.67 93.03 213.54 88.26V65.59C213.54 62.35 212.46 60.55 208.5 60.1L207.42 59.83V57.22L221.28 53.53H223.44V88.89C223.44 92.67 224.61 94.47 228.21 94.47H229.92V97.44L215.7 101.49H213.54V91.59C208.86 98.7 204.09 101.49 198.6 101.49C190.5 101.49 184.92 96.18 184.92 86.37V65.58C184.92 62.34 183.84 60.54 179.88 60.09L178.8 59.82V57.21L192.66 53.52H194.91V85.55C194.91 91.68 197.79 94.74 202.74 94.74ZM194.1 35.62C197.61 35.62 200.13 38.23 200.13 41.47C200.13 44.89 197.61 47.41 194.1 47.41C190.59 47.41 188.07 44.89 188.07 41.47C188.07 38.23 190.59 35.62 194.1 35.62ZM211.56 35.62C214.98 35.62 217.5 38.23 217.5 41.47C217.5 44.89 214.98 47.41 211.56 47.41C207.96 47.41 205.44 44.89 205.44 41.47C205.44 38.23 207.96 35.62 211.56 35.62Z" fill="#FF384A"/>
<path d="M239.99 91.5V65.59C239.99 62.35 238.91 60.55 235.04 60.1L233.96 59.83V57.22L247.82 53.53H249.98V67.12C252.95 57.76 258.08 53.71 263.57 53.35C265.28 53.26 267.44 53.44 268.52 53.89L267.17 64.51C265.46 62.98 262.67 62.08 260.33 62.17C255.83 62.44 252.05 65.59 249.98 70.54V91.5C249.98 95.1 251.96 96.36 258.35 97.26V100.23H233.96V97.26C238.73 96.27 239.99 95.1 239.99 91.5Z" fill="#FF384A"/>
<path d="M270.76 93.12L278.32 86.91C280.75 93.48 285.52 97.8 290.74 97.8C295.51 97.8 299.47 94.83 299.47 90.42C299.38 86.64 296.86 84.3 293.35 83.04L284.35 79.89C278.05 77.64 272.74 74.4 272.74 67.11C272.74 58.74 279.31 53.52 289.48 53.52C299.11 53.52 304.78 57.39 306.85 60.54L299.56 66.12C297.58 60.72 293.62 57.21 288.67 57.21C283.72 57.21 280.66 59.73 280.66 63.6C280.66 67.38 283.81 69.09 287.5 70.53L296.59 73.68C302.8 75.84 307.39 79.8 307.39 86.91C307.39 94.92 300.73 101.49 289.84 101.49C282.01 101.49 274.27 98.25 270.76 93.12Z" fill="#FF384A"/>
<path d="M317.92 54.79V45.88L325.75 41.83H327.91V54.79H339.7V58.66H327.9V87.63C327.9 93.39 330.69 95.91 334.56 95.91C336.9 95.91 338.61 95.01 340.23 93.75L341.31 95.73C338.88 97.89 334.83 101.49 329.7 101.49C322.23 101.49 317.91 96.99 317.91 87.9V58.66H309.9V54.79H317.92Z" fill="#FF384A"/>
<path d="M366.06 97.26V100.23H343.92V97.26C347.79 96.45 349.95 95.55 349.95 91.77V48.4C349.95 45.25 348.87 43.45 345 42.91L343.92 42.73V40.12L357.78 36.43H359.94V91.77C359.94 95.55 362.19 96.45 366.06 97.26Z" fill="#FF384A"/>
<path d="M391.7 97.26V100.23H369.56V97.26C373.43 96.45 375.59 95.55 375.59 91.77V65.59C375.59 62.35 374.51 60.55 370.64 60.1L369.56 59.83V57.22L383.42 53.53H385.58V91.77C385.58 95.55 387.83 96.45 391.7 97.26ZM380.72 34.54C384.5 34.54 387.29 37.33 387.29 41.02C387.29 44.8 384.5 47.5 380.72 47.5C376.76 47.5 373.97 44.8 373.97 41.02C373.97 37.33 376.76 34.54 380.72 34.54Z" fill="#FF384A"/>
<path d="M395.57 77.91C395.57 64.95 403.67 53.53 417.53 53.53C426.8 53.53 432.74 58.66 434.09 64.24L425.18 68.29C424.1 61.9 421.13 57.58 416.36 57.58C409.43 57.58 405.2 64.87 405.2 74.41C405.2 86.47 410.6 94.21 420.59 94.21C425.81 94.21 430.85 90.52 433.46 85.21L435.8 86.2C432.47 96.28 425.27 101.5 417.08 101.5C402.86 101.49 395.57 91.05 395.57 77.91Z" fill="#FF384A"/>
<path d="M459.73 97.26V100.23H437.59V97.26C441.46 96.45 443.62 95.55 443.62 91.77V48.04C443.62 44.98 442.45 43.54 439.03 42.91L437.59 42.73V40.12L451.45 36.43H453.61V63.42C458.29 56.4 463.06 53.52 468.46 53.52C476.65 53.52 482.23 58.92 482.23 68.73V91.77C482.23 95.55 484.48 96.45 488.35 97.26V100.23H466.66V97.26C470.17 96.54 472.24 95.55 472.24 91.77V69.54C472.24 63.42 469.36 60.27 464.41 60.27C460.99 60.27 457.48 62.07 453.61 66.75V91.76C453.61 95.55 455.86 96.45 459.73 97.26Z" fill="#FF384A"/>
<path d="M182.67 166.8L185.37 167.88C181.68 178.95 173.22 188.49 159.99 188.49C142.8 188.49 130.3 175.89 130.03 158.44C129.76 139.9 141.28 125.87 159.9 125.87C172.23 125.87 180.96 132.26 182.85 138.92L172.32 143.78C170.52 135.59 165.93 130.1 158.73 130.1C147.93 130.1 141.18 139.19 141.27 154.12C141.36 169.42 150.54 180.39 163.32 180.39C172.23 180.39 179.34 174.99 182.67 166.8Z" fill="#FF384A"/>
<path d="M226.31 157.98V175.53C226.31 179.58 227.21 181.47 231.89 181.47H232.88V184.44L218.48 188.49H216.32V179.04C213.35 185.61 208.31 188.49 202.01 188.49C194.45 188.49 189.41 183.27 189.41 176.34C189.41 167.07 198.14 163.56 210.74 160.68L216.32 159.51V157.44C216.32 149.34 212.63 144.39 206.6 144.39C201.74 144.39 198.95 147.63 198.95 151.86C198.95 153.48 199.4 155.01 200.3 156.81L191.39 159.87C190.31 157.98 189.77 156.27 189.77 154.38C189.77 146.82 198.14 140.52 208.85 140.52C220.1 140.53 226.31 147.37 226.31 157.98ZM206.61 182.46C210.66 182.46 214.17 180.12 216.33 175.8V163.11L211.74 164.19C203.01 166.44 199.86 169.5 199.86 175.08C199.86 179.31 202.47 182.46 206.61 182.46Z" fill="#FF384A"/>
<path d="M235.04 180.12L242.6 173.91C245.03 180.48 249.8 184.8 255.02 184.8C259.79 184.8 263.75 181.83 263.75 177.42C263.66 173.64 261.14 171.3 257.63 170.04L248.63 166.89C242.33 164.64 237.02 161.4 237.02 154.11C237.02 145.74 243.59 140.52 253.76 140.52C263.39 140.52 269.06 144.39 271.13 147.54L263.84 153.12C261.86 147.72 257.9 144.21 252.95 144.21C248 144.21 244.94 146.73 244.94 150.6C244.94 154.38 248.09 156.09 251.78 157.53L260.87 160.68C267.08 162.84 271.67 166.8 271.67 173.91C271.67 181.92 265.01 188.49 254.12 188.49C246.29 188.49 238.55 185.25 235.04 180.12Z" fill="#FF384A"/>
<path d="M272.38 141.79H280.39V132.88L288.22 128.83H290.38V141.79H302.17V145.66H290.38V174.63C290.38 180.39 293.17 182.91 297.04 182.91C299.38 182.91 301.09 182.01 302.71 180.75L303.79 182.73C301.36 184.89 297.31 188.49 292.18 188.49C284.71 188.49 280.39 183.99 280.39 174.9V145.66H272.38V141.79Z" fill="#FF384A"/>
<path d="M344.64 162.66H314.05C314.59 173.91 320.35 180.84 328.9 180.84C334.75 180.84 339.52 177.51 342.13 173.28L344.47 174.27C342.04 182.01 335.2 188.49 325.21 188.49C311.89 188.49 304.42 177.69 304.42 165.72C304.42 150.06 313.51 140.53 326.56 140.53C338.88 140.53 344.64 150.34 344.64 162.66ZM334.38 158.7C333.93 150.33 331.32 144.57 325.02 144.57C318.45 144.57 314.94 150.06 314.13 158.7H334.38Z" fill="#FF384A"/>
<path d="M371.36 184.26V187.23H349.22V184.26C353.09 183.45 355.25 182.55 355.25 178.77V135.4C355.25 132.25 354.17 130.45 350.3 129.91L349.22 129.73V127.12L363.08 123.43H365.24V178.77C365.25 182.55 367.49 183.45 371.36 184.26Z" fill="#FF384A"/>
<path d="M397.01 184.26V187.23H374.87V184.26C378.74 183.45 380.9 182.55 380.9 178.77V135.4C380.9 132.25 379.82 130.45 375.95 129.91L374.87 129.73V127.12L388.73 123.43H390.89V178.77C390.89 182.55 393.14 183.45 397.01 184.26Z" fill="#FF384A"/>
<path d="M414.28 126.04C414.28 134.95 408.79 141.07 400.51 141.97V139.36C404.65 138.46 408.7 134.86 408.79 130.18C404.02 131.35 400.51 128.2 400.51 124.24C400.51 120.55 403.3 117.67 406.9 117.67C411.31 117.67 414.28 121.09 414.28 126.04Z" fill="#FF384A"/>
<path d="M414.1 180.12L421.66 173.91C424.09 180.48 428.86 184.8 434.08 184.8C438.85 184.8 442.81 181.83 442.81 177.42C442.72 173.64 440.2 171.3 436.69 170.04L427.69 166.89C421.39 164.64 416.08 161.4 416.08 154.11C416.08 145.74 422.65 140.52 432.82 140.52C442.45 140.52 448.12 144.39 450.19 147.54L442.9 153.12C440.92 147.72 436.96 144.21 432.01 144.21C427.06 144.21 424 146.73 424 150.6C424 154.38 427.15 156.09 430.84 157.53L439.93 160.68C446.14 162.84 450.73 166.8 450.73 173.91C450.73 181.92 444.07 188.49 433.18 188.49C425.35 188.49 417.61 185.25 414.1 180.12Z" fill="#FF384A"/>
<path d="M455.67 164.91C455.67 151.95 463.77 140.53 477.63 140.53C486.9 140.53 492.84 145.66 494.19 151.24L485.28 155.29C484.2 148.9 481.23 144.58 476.46 144.58C469.53 144.58 465.3 151.87 465.3 161.41C465.3 173.47 470.7 181.21 480.69 181.21C485.91 181.21 490.95 177.52 493.56 172.21L495.9 173.2C492.57 183.28 485.37 188.5 477.18 188.5C462.96 188.49 455.67 178.05 455.67 164.91Z" fill="#FF384A"/>
<path d="M519.83 184.26V187.23H497.7V184.26C501.57 183.45 503.73 182.55 503.73 178.77V135.04C503.73 131.98 502.56 130.54 499.14 129.91L497.7 129.73V127.12L511.56 123.43H513.72V150.42C518.4 143.4 523.17 140.52 528.57 140.52C536.76 140.52 542.34 145.92 542.34 155.73V178.77C542.34 182.55 544.59 183.45 548.46 184.26V187.23H526.77V184.26C530.28 183.54 532.35 182.55 532.35 178.77V156.54C532.35 150.42 529.47 147.27 524.52 147.27C521.1 147.27 517.59 149.07 513.72 153.75V178.76C513.71 182.55 515.96 183.45 519.83 184.26Z" fill="#FF384A"/>
<path d="M591.46 162.66H560.87C561.41 173.91 567.17 180.84 575.72 180.84C581.57 180.84 586.34 177.51 588.95 173.28L591.29 174.27C588.86 182.01 582.02 188.49 572.03 188.49C558.71 188.49 551.24 177.69 551.24 165.72C551.24 150.06 560.33 140.53 573.38 140.53C585.7 140.53 591.46 150.34 591.46 162.66ZM581.2 158.7C580.75 150.33 578.14 144.57 571.84 144.57C565.27 144.57 561.76 150.06 560.95 158.7H581.2Z" fill="#FF384A"/>
<path d="M177.9 228.61C177.9 236.53 171.51 241.39 164.04 242.29C175.38 243.55 181.86 248.5 181.86 257.77C181.86 267.4 174.03 274.24 159.09 274.24H129.31V271.27C135.25 270.64 137.77 269.11 137.77 264.79V223.85C137.77 218.9 135.16 217.46 129.31 217.1V214.13H155.85C169.98 214.12 177.9 218.53 177.9 228.61ZM154.42 241.12C162.7 241.12 166.66 236.89 166.66 228.61C166.66 222.76 162.43 217.99 153.43 217.99H148.3V241.11H154.42V241.12ZM155.95 270.36H158.11C166.12 270.36 170.53 266.13 170.53 257.76C170.53 250.74 166.03 244.98 156.22 244.98H148.3V265.5C148.3 269.28 150.73 270.36 155.95 270.36Z" fill="#FF384A"/>
<path d="M224.6 244.98V262.53C224.6 266.58 225.5 268.47 230.18 268.47H231.17V271.44L216.77 275.49H214.61V266.04C211.64 272.61 206.6 275.49 200.3 275.49C192.74 275.49 187.7 270.27 187.7 263.34C187.7 254.07 196.43 250.56 209.03 247.68L214.61 246.51V244.44C214.61 236.34 210.92 231.39 204.89 231.39C200.03 231.39 197.24 234.63 197.24 238.86C197.24 240.48 197.69 242.01 198.59 243.81L189.68 246.87C188.6 244.98 188.06 243.27 188.06 241.38C188.06 233.82 196.43 227.52 207.14 227.52C218.39 227.53 224.6 234.37 224.6 244.98ZM204.9 269.46C208.95 269.46 212.46 267.12 214.62 262.8V250.11L210.03 251.19C201.3 253.44 198.15 256.5 198.15 262.08C198.15 266.31 200.76 269.46 204.9 269.46Z" fill="#FF384A"/>
<path d="M257.36 271.26V274.23H235.22V271.26C239.09 270.45 241.25 269.55 241.25 265.77V239.59C241.25 236.35 240.17 234.55 236.3 234.1L235.22 233.83V231.22L249.08 227.53H251.24V237.43C255.92 230.41 260.69 227.53 266.09 227.53C274.28 227.53 279.86 232.93 279.86 242.74V265.78C279.86 269.56 282.11 270.46 285.98 271.27V274.24H264.29V271.27C267.8 270.55 269.87 269.56 269.87 265.78V243.55C269.87 237.43 266.99 234.28 262.04 234.28C258.62 234.28 255.11 236.08 251.24 240.76V265.77C251.24 269.55 253.49 270.45 257.36 271.26Z" fill="#FF384A"/>
<path d="M312.42 271.26V274.23H290.1V271.26C294.06 270.45 296.22 269.37 296.22 265.77V222.4C296.22 219.79 295.68 217.36 291.18 216.91L290.1 216.73V214.12L304.05 210.43H306.21V249.66L321.33 237.15C325.47 233.82 324.57 231.84 319.26 231.84V228.78H337.53V231.84C333.57 232.02 331.59 233.1 327.09 237.06L318.09 244.62L333.12 266.84C335.01 269.63 336.54 270.98 340.68 271.25V274.22H325.56L310.44 251.01L306.21 254.52V265.77C306.22 269.28 308.11 270.36 312.42 271.26Z" fill="#FF384A"/>
<path d="M45.0799 19.36C47.2999 19.36 49.1099 21.17 49.1099 23.39C49.1099 25.61 47.2999 27.42 45.0799 27.42C42.8599 27.42 41.0499 25.61 41.0499 23.39C41.0499 21.17 42.8599 19.36 45.0799 19.36ZM36.2999 23.39C36.2999 28.23 40.2399 32.17 45.0799 32.17C49.9199 32.17 53.8599 28.23 53.8599 23.39C53.8599 19.37 51.1499 15.98 47.4599 14.94L47.4499 10.59H53.3999V5.84003H47.4499L47.4399 0.530029L42.6899 0.540024L42.6999 5.85004H36.7499V10.6H42.6999L42.7099 14.95C39.0199 15.97 36.2999 19.37 36.2999 23.39Z" fill="#FF384A"/>
<path d="M84.6799 129.55C78.6499 128.42 64.2599 126.08 47.4499 125.87V86.49C62.4499 86.88 76.9799 90.78 81.2599 92.02C81.6799 93.75 82.3999 96.7 82.6299 97.91C83.8299 104.02 84.5899 110.38 84.8899 116.82C85.0899 121.26 85.0299 125.5 84.6799 129.55ZM81.2899 146.35C81.3799 142.09 81.3199 138.13 81.1599 133.75C82.3199 133.95 83.3199 134.13 84.1299 134.28C83.5199 138.52 82.5699 142.53 81.2899 146.35ZM75.9799 158.04C75.9699 158.06 75.9599 158.07 75.9499 158.09C74.1799 161.11 72.1599 164.06 69.9299 166.92C70.4499 155.2 70.4699 143.55 69.9999 132.16C72.3199 132.44 74.4699 132.73 76.3899 133.01C76.7099 141.56 76.7099 147.96 75.9599 158.05L75.9799 158.04ZM64.8699 172.83C62.9299 174.91 60.8699 176.92 58.7099 178.86V131.09C60.9699 131.24 63.1499 131.43 65.2299 131.63C65.8099 145.09 65.6999 158.93 64.8699 172.83ZM53.9599 182.85C52.3799 184.09 50.7599 185.3 49.0899 186.46C48.5499 186.83 48.0099 187.21 47.4499 187.59V130.62C49.6599 130.65 51.8399 130.72 53.9599 130.81V182.85ZM42.6999 125.87C40.4999 125.9 38.3099 125.97 36.1699 126.08V87.03C38.3199 86.82 40.5099 86.65 42.6999 86.55V125.87ZM42.6999 187.62C42.1299 187.24 41.5699 186.85 41.0199 186.47C29.7199 178.59 20.4299 168.78 14.1599 158.09C9.9899 150.99 7.2799 143.14 5.9899 134.36C11.5799 133.33 26.6499 130.86 42.6999 130.63V187.62ZM5.22989 116.81C5.52989 110.37 6.2899 104.01 7.4899 97.9C7.7199 96.74 8.38989 93.95 8.80989 92.2C8.16989 106.1 8.19989 116.8 8.89989 129.03C7.53989 129.25 6.37989 129.46 5.43989 129.63C5.08989 125.55 5.01989 121.29 5.22989 116.81ZM13.6299 90.85C15.4799 90.41 17.6899 89.93 20.1699 89.44C19.5599 103.05 19.5599 115.55 20.1799 127.44C17.8099 127.72 15.6099 128.02 13.6199 128.3C12.9199 115.98 12.9299 105.18 13.6299 90.85ZM24.9599 88.55C27.0099 88.2 29.1799 87.87 31.4199 87.57V126.36C29.1799 126.52 26.9899 126.71 24.9099 126.92C24.2899 114.94 24.3099 102.33 24.9599 88.55ZM85.2799 88.5L84.2999 88.01C84.1699 87.95 64.6699 81.71 45.0599 81.71H44.9999C25.9999 82.19 6.4899 87.67 5.8199 88.01L4.83989 88.5L4.57989 89.56C4.51989 89.79 3.19989 95.13 2.83989 96.99C1.59989 103.33 0.809892 109.92 0.499892 116.59C-0.310108 133.78 2.82989 148.14 10.0799 160.48C16.6999 171.75 26.4699 182.08 38.3199 190.35C40.0599 191.56 41.9299 192.84 43.9499 193.92L45.0699 194.52L46.1899 193.92C48.2099 192.84 50.0799 191.56 51.8199 190.35C63.6799 182.08 73.4399 171.75 80.0599 160.48C87.3099 148.13 90.4399 133.77 89.6399 116.59C89.3299 109.92 88.5399 103.32 87.2999 96.99C86.9399 95.13 85.6099 89.79 85.5599 89.56L85.2799 88.5Z" fill="#FF384A"/>
<path d="M9.3799 39.6C10.5099 38.19 12.1999 37.12 14.2499 36.47C12.7099 44.15 12.7799 51.54 14.4599 58.53C13.0799 58.9 12.0599 59.21 11.4299 59.41C9.76989 55.71 8.32989 52.17 7.91989 50.24C6.95989 45.6 7.4499 42.02 9.3799 39.6ZM31.3899 39.53C33.3299 40.56 35.4399 41.68 37.9399 42.48V54.7C35.4299 54.87 33.0499 55.11 30.8199 55.39C30.3999 50.08 30.3799 45.12 30.7699 39.2C30.9699 39.3 31.1799 39.41 31.3899 39.53ZM19.2699 35.73H19.2799C21.5199 35.73 23.7199 36.16 26.1599 37.07C25.6099 44.16 25.5999 49.86 26.1099 56.06C23.4799 56.49 21.1199 56.95 19.0899 57.4C17.4499 50.59 17.5199 43.32 19.2699 35.73ZM45.0799 43.6C45.6899 43.6 46.2999 43.57 46.8999 43.52C47.0899 43.51 47.2799 43.48 47.4699 43.47V59.19L49.7199 59.3C63.0599 59.98 73.3299 62.75 76.6899 63.76C75.7899 65.65 74.9099 67.44 74.1699 68.9C66.7799 67.26 55.7999 65.04 45.0799 65.04C34.3499 65.04 23.3799 67.27 15.9899 68.9C15.2499 67.44 14.3699 65.65 13.4699 63.76C16.8399 62.75 27.0999 59.99 40.4399 59.3L42.6899 59.19V43.47C42.8799 43.49 43.0599 43.51 43.2599 43.52C43.8599 43.57 44.4699 43.6 45.0799 43.6ZM59.3899 39.19C59.7799 45.11 59.7599 50.07 59.3399 55.38C57.0999 55.1 54.7199 54.86 52.2199 54.69V42.47C54.7199 41.67 56.8199 40.55 58.7699 39.52C58.9799 39.41 59.1799 39.3 59.3899 39.19ZM63.9999 37.06C66.4299 36.15 68.6399 35.72 70.8799 35.72H70.8899C72.6499 43.31 72.7099 50.58 71.0799 57.39C69.0499 56.94 66.6899 56.47 64.0599 56.05C64.5599 49.86 64.5399 44.16 63.9999 37.06ZM80.7699 39.6C82.7099 42.03 83.1999 45.61 82.2199 50.24C81.8099 52.17 80.3699 55.71 78.7099 59.41C78.0799 59.21 77.0599 58.9 75.6799 58.53C77.3599 51.54 77.4299 44.14 75.8899 36.47C77.9499 37.12 79.6399 38.18 80.7699 39.6ZM13.4599 74.33C20.6599 72.72 33.0199 69.79 45.0799 69.79C57.1299 69.79 69.4999 72.73 76.6999 74.33C77.5499 72.79 85.6199 57.15 86.8699 51.22C89.9299 36.7 80.4799 31.11 71.1899 30.98C71.0899 30.98 70.9899 30.98 70.8799 30.98C66.6299 30.98 62.8199 32.19 59.0199 34.05C55.0099 36.01 51.7199 38.39 46.5299 38.78C46.0499 38.82 45.5699 38.84 45.0899 38.84C44.6099 38.84 44.1299 38.82 43.6499 38.78C38.4599 38.39 35.1799 36.01 31.1599 34.05C27.3499 32.19 23.5499 30.98 19.2999 30.98C19.1999 30.98 19.0999 30.98 18.9899 30.98C9.6999 31.11 0.23989 36.69 3.30989 51.22C4.53989 57.15 12.6099 72.78 13.4599 74.33Z" fill="#FF384A"/>
</svg>
