<svg width="140" height="50" viewBox="0 0 140 50" fill="none" xmlns="http://www.w3.org/2000/svg">
<path d="M45.5242 34.56H46.6497C46.9074 34.56 47.1379 34.3295 47.1514 34.0718V21.5424C47.1514 20.3085 46.1751 19.305 44.9683 19.305H43.5174C43.2597 19.305 43.0292 19.0745 43.0292 18.8169V17.6778C43.0292 16.4439 42.0529 15.4404 40.846 15.4404H31.5032C30.2964 15.4404 29.3201 16.4303 29.3201 17.6778V30.275C29.3201 31.4954 30.2964 32.4989 31.5032 32.5124H42.3241C42.419 32.5124 42.5139 32.5396 42.5953 32.5938L45.2395 34.4922C45.3208 34.5329 45.4293 34.56 45.5242 34.56ZM42.8936 30.709H31.5303C31.2591 30.709 31.0422 30.492 31.0422 30.2208V17.7049C31.0422 17.4337 31.2591 17.2168 31.5303 17.2168H40.8189C41.0766 17.2168 41.3071 17.4473 41.3071 17.7049V18.8169C41.3071 19.0881 41.0901 19.305 40.8189 19.305H33.9033C33.6457 19.305 33.4152 19.5355 33.4152 19.7932V28.1461C33.4152 28.4173 33.6321 28.6343 33.9033 28.6343H42.541C42.7987 28.6343 43.0292 28.4038 43.0292 28.1461V21.5695C43.0292 21.2983 43.2462 21.0814 43.5174 21.0814H44.9276C45.1852 21.0814 45.4158 21.3119 45.4158 21.5695V31.8073C45.4158 32.065 45.1446 32.2006 44.9547 32.065L43.1919 30.8039C43.0834 30.7361 42.9885 30.709 42.8936 30.709ZM41.0494 26.8444H35.3814C35.2593 26.8444 35.1509 26.7495 35.1509 26.6003V21.2983C35.1509 21.1763 35.2458 21.0543 35.3814 21.0543H41.0494C41.1715 21.0543 41.28 21.1492 41.28 21.2983V26.6003C41.28 26.7359 41.185 26.8444 41.0494 26.8444ZM90.9502 18.1117C91.6688 18.1117 92.2519 17.5151 92.2519 16.7829C92.2519 16.0506 91.6688 15.454 90.9502 15.454C90.2315 15.454 89.6484 16.0506 89.6484 16.7829C89.6484 17.5151 90.2315 18.1117 90.9502 18.1117ZM76.0342 20.0644V19.3186H73.9324V28.5665H76.0342V22.2475L78.4885 21.2034V19.0474H78.4614L76.0342 20.0644ZM67.8711 19.305C66.5015 19.305 65.3896 19.7661 64.5353 20.6881C64.1421 21.1221 63.8438 21.6102 63.6268 22.1933C63.4234 22.7628 63.3149 23.373 63.3149 23.9968C63.3149 25.2985 63.6811 26.3698 64.4133 27.1969C65.2269 28.1054 66.3388 28.5529 67.749 28.5529C69.1322 28.5529 70.2305 28.0919 71.0712 27.1698C71.8577 26.2884 72.251 25.1901 72.251 23.8612C72.251 22.5323 71.8577 21.4475 71.0984 20.6068C70.3119 19.7389 69.2271 19.305 67.8711 19.305ZM69.5254 25.8816C69.1322 26.3833 68.5626 26.641 67.8711 26.641C67.1253 26.641 66.5015 26.3833 66.0405 25.8681C65.8235 25.6375 65.6472 25.3392 65.5388 25.0002C65.4167 24.6612 65.3625 24.3222 65.3625 23.9561C65.3625 23.2103 65.5523 22.6001 65.9591 22.0713C66.393 21.5153 66.9897 21.2305 67.749 21.2305C68.4948 21.2305 69.0915 21.4882 69.5118 22.017C69.9051 22.5052 70.122 23.1561 70.122 23.9561C70.1085 24.7426 69.9186 25.3935 69.5254 25.8816ZM89.8925 19.3186H91.9807V28.58H89.8925V19.3186ZM57.9181 19.305C56.7248 19.305 55.7349 19.6576 54.9755 20.3763C54.2569 21.0543 53.9043 21.9085 53.9043 22.9391C53.9043 23.8476 54.2162 24.607 54.8535 25.2172C54.3111 25.6647 54.0399 26.1935 54.0399 26.8173C54.0399 27.1969 54.0941 27.5359 54.1755 27.8207C54.2569 28.119 54.4331 28.3631 54.6908 28.58C53.7416 29.1089 53.2805 29.9767 53.3212 31.1564C53.3483 32.187 53.7823 33.0006 54.623 33.6108C55.4773 34.2346 56.6027 34.5329 57.9723 34.5329C59.3554 34.5329 60.386 34.2617 61.0775 33.7193C61.7827 33.1769 62.1352 32.3904 62.1352 31.3734C62.1352 30.3564 61.8505 29.5699 61.2945 29.014C60.9962 28.7156 60.6029 28.4851 60.1283 28.2682C59.6402 28.0648 58.9893 27.9021 58.1486 27.7665C57.2943 27.6309 56.6977 27.4817 56.3315 27.2919C56.1553 27.2241 56.0468 27.1291 56.0061 27.0478C55.9519 26.9664 55.9383 26.8444 55.9383 26.6817C55.9383 26.5189 56.0468 26.302 56.2502 26.0172C56.7248 26.1799 57.2401 26.2613 57.796 26.2613C58.9351 26.2613 59.8707 25.9087 60.6029 25.2172C60.9284 24.8917 61.186 24.5121 61.3623 24.0781C61.5386 23.6442 61.6335 23.1696 61.6335 22.6272C61.6335 22.0984 61.5115 21.5831 61.2674 21.1221C61.2674 21.1221 61.2674 21.1085 61.2538 21.1085H62.1352V19.2915H57.9181V19.305ZM56.4536 29.2987L56.8875 29.3665C58.1079 29.5564 58.9757 29.8004 59.4775 30.1259C59.9249 30.4106 60.1419 30.7903 60.1419 31.2649C60.1419 32.2548 59.4503 32.7294 58.0672 32.7294C57.2536 32.7294 56.6027 32.5531 56.0875 32.2277C55.8569 32.0785 55.6807 31.8887 55.5586 31.6853C55.423 31.4819 55.3688 31.2378 55.3688 30.953C55.3688 30.6683 55.4501 30.37 55.6264 30.0581C55.8163 29.7598 56.0875 29.5157 56.4536 29.2987ZM59.0978 24.0103C58.7588 24.3222 58.3655 24.4849 57.9045 24.4849C57.2943 24.4849 56.8197 24.3087 56.44 23.9697C56.2637 23.8205 56.1553 23.6307 56.0468 23.4544C55.9654 23.251 55.9112 23.0611 55.9112 22.8442C55.9112 22.6408 55.9519 22.4238 56.0332 22.2204C56.3044 21.5153 56.8875 21.1763 57.8231 21.1763C58.3791 21.1763 58.8266 21.3255 59.1385 21.6238C59.4503 21.9221 59.6266 22.3153 59.6266 22.8035C59.6266 23.2374 59.4503 23.6578 59.0978 24.0103ZM101.229 21.3255C101.391 21.7458 101.473 22.234 101.473 22.7764V28.5529H99.4116V28.119C98.7878 28.4038 98.2183 28.5529 97.703 28.5529C97.0522 28.5529 96.5098 28.4851 96.0487 28.3631C95.5877 28.241 95.1944 28.0512 94.8826 27.8207C94.2452 27.3325 93.9198 26.6274 93.9198 25.7053C93.9198 24.8917 94.313 24.2002 95.0995 23.6578C95.9538 23.0611 97.1335 22.7628 98.6116 22.7628L98.9506 22.7764C98.9912 22.7764 99.0184 22.7764 99.059 22.7764C99.0997 22.7764 99.1404 22.7764 99.1811 22.7764C99.2218 22.7764 99.2624 22.7899 99.2896 22.7899C99.3302 22.7899 99.3709 22.7899 99.398 22.8035C99.3438 21.895 98.9641 21.339 98.2319 21.2034C98.0014 21.1492 97.7302 21.1356 97.4725 21.1356C97.1878 21.1356 96.9301 21.1627 96.6725 21.2034C96.4013 21.2577 96.1572 21.3255 95.9131 21.4068C95.3843 21.5831 94.9775 21.7865 94.747 22.017L94.7198 22.0035L94.4622 20.1186C95.4385 19.5898 96.5369 19.3321 97.703 19.3321C99.5608 19.305 100.727 19.9695 101.229 21.3255ZM99.4116 26.3562V25.1629V24.3629C99.2489 24.3358 99.0997 24.3222 98.937 24.3222H98.598C97.364 24.3222 96.5776 24.607 96.2386 25.1629C96.1436 25.3257 96.0894 25.5019 96.0894 25.6782C96.0894 25.8681 96.1301 26.0308 96.1843 26.1664C96.2521 26.302 96.3606 26.424 96.5098 26.5189C96.7945 26.6952 97.242 26.7766 97.8115 26.7766C98.381 26.7766 98.9234 26.6274 99.4116 26.3562ZM109.215 23.4001C109.568 23.5764 109.853 23.7798 110.07 24.0239C110.463 24.4714 110.68 25.068 110.68 25.8274C110.68 26.6274 110.368 27.2918 109.731 27.7936C109.08 28.3224 108.158 28.58 106.965 28.58C105.541 28.58 104.415 28.336 103.629 27.8478V25.5697C103.629 25.5562 103.683 25.6104 103.764 25.7053C103.846 25.8003 104.022 25.9087 104.253 26.0579C104.483 26.2071 104.768 26.3291 105.066 26.4376C105.731 26.6681 106.422 26.7901 107.154 26.7901C108.117 26.7901 108.605 26.4511 108.605 25.8003C108.605 25.5969 108.51 25.4341 108.321 25.3257C107.995 25.1494 107.507 25.0138 106.87 24.9324C106.232 24.8375 105.703 24.7155 105.297 24.5392C104.89 24.3629 104.551 24.1595 104.293 23.9154C103.819 23.4544 103.575 22.8713 103.575 22.1391C103.575 21.2441 103.914 20.539 104.578 20.0373C105.242 19.5355 106.164 19.2779 107.344 19.2779C108.51 19.2779 109.5 19.6169 110.327 20.2949C110.287 20.4441 110.26 20.5932 110.205 20.7288C110.07 21.1085 109.975 21.3797 109.921 21.5424L109.731 22.0441C109.717 22.0984 109.704 22.1119 109.704 22.1119C109.69 22.1119 109.649 22.0441 109.568 21.9221C109.215 21.5017 108.659 21.2305 107.927 21.0949C107.697 21.0407 107.466 21.0271 107.222 21.0271C106.205 21.0271 105.69 21.339 105.69 21.9628C105.69 22.1662 105.785 22.3425 106.002 22.4509C106.395 22.6679 106.951 22.8306 107.643 22.9391C108.334 23.0883 108.849 23.2239 109.215 23.4001ZM83.7227 19.305C82.5294 19.305 81.5395 19.6576 80.7802 20.3763C80.0615 21.0543 79.7089 21.9085 79.7089 22.9391C79.7089 23.8476 80.0208 24.607 80.6581 25.2172C80.1157 25.6647 79.8445 26.1935 79.8445 26.8173C79.8445 27.1969 79.8988 27.5359 79.9801 27.8207C80.0615 28.119 80.2378 28.3631 80.4954 28.58C79.5462 29.1089 79.0852 29.9767 79.1259 31.1564C79.153 32.187 79.5869 33.0006 80.4276 33.6108C81.2819 34.2346 82.4074 34.5329 83.7769 34.5329C85.1601 34.5329 86.1906 34.2617 86.8822 33.7193C87.5873 33.1769 87.9399 32.3904 87.9399 31.3734C87.9399 30.3564 87.6551 29.5699 87.0991 29.014C86.8008 28.7156 86.4076 28.4851 85.933 28.2682C85.4448 28.0648 84.7939 27.9021 83.9532 27.7665C83.0989 27.6309 82.5023 27.4817 82.1362 27.2919C81.9599 27.2241 81.8514 27.1291 81.8107 27.0478C81.7565 26.9664 81.7429 26.8444 81.7429 26.6817C81.7429 26.5189 81.8514 26.302 82.0548 26.0172C82.5294 26.1799 83.0447 26.2613 83.6007 26.2613C84.7397 26.2613 85.6753 25.9087 86.4076 25.2172C86.733 24.8917 86.9907 24.5121 87.1669 24.0781C87.3432 23.6442 87.4381 23.1696 87.4381 22.6272C87.4381 22.0984 87.3161 21.5831 87.072 21.1221C87.072 21.1221 87.072 21.1085 87.0585 21.1085H87.9399V19.2915H83.7227V19.305ZM82.2582 29.2987L82.6921 29.3665C83.9125 29.5564 84.7804 29.8004 85.2821 30.1259C85.7296 30.4106 85.9465 30.7903 85.9465 31.2649C85.9465 32.2548 85.255 32.7294 83.8719 32.7294C83.0583 32.7294 82.4074 32.5531 81.8921 32.2277C81.6616 32.0785 81.4853 31.8887 81.3633 31.6853C81.2277 31.4819 81.1734 31.2378 81.1734 30.953C81.1734 30.6683 81.2548 30.37 81.4311 30.0581C81.6209 29.7598 81.8921 29.5157 82.2582 29.2987ZM84.9024 24.0103C84.5634 24.3222 84.1702 24.4849 83.7091 24.4849C83.0989 24.4849 82.6243 24.3087 82.2447 23.9697C82.0819 23.8205 81.9599 23.6307 81.8514 23.4544C81.7701 23.251 81.7158 23.0611 81.7158 22.8442C81.7158 22.6408 81.7565 22.4238 81.8379 22.2204C82.1091 21.5153 82.6921 21.1763 83.6278 21.1763C84.1837 21.1763 84.6312 21.3255 84.9431 21.6238C85.255 21.9221 85.4313 22.3153 85.4313 22.8035C85.4313 23.2374 85.255 23.6578 84.9024 24.0103Z" fill="black"/>
</svg>
