<svg width="140" height="50" viewBox="0 0 140 50" fill="none" xmlns="http://www.w3.org/2000/svg">
<g clip-path="url(#clip0_17011_16096)">
<path d="M69.6532 19.921C73.8012 19.1289 78.083 19.141 82.2719 19.617C84.003 19.831 85.8049 20.0475 87.3307 20.9175C88.2218 21.4089 88.911 22.3016 88.9434 23.3046C86.0877 23.3605 83.232 23.3321 80.3772 23.324C79.5245 22.3762 78.1614 22.0794 76.9065 22.0251C75.2248 21.9716 73.4766 22.0924 71.9363 22.7897C70.6346 23.3767 69.5177 24.464 69.1735 25.8221C69.0057 26.4408 69.4257 27.0805 69.9965 27.3602C71.0997 27.8962 72.3649 27.9586 73.5797 28.0016C75.1694 28.0624 76.8255 27.7794 78.175 26.9402C78.3088 26.8681 78.4255 26.731 78.5959 26.7513C81.483 26.7416 84.3711 26.7456 87.2582 26.7578C86.264 27.8167 84.9419 28.544 83.5651 29.0581C81.8391 29.7035 80.0058 30.0424 78.1741 30.2751C76.1415 30.5054 74.0943 30.6473 72.0471 30.6189C69.2775 30.6043 66.4763 30.4332 63.8047 29.6954C62.5728 29.3297 61.3298 28.7694 60.5265 27.7721C59.8569 26.9816 59.7632 25.8327 60.2019 24.9205C60.771 23.7205 61.8845 22.8529 63.0524 22.1994C65.0928 21.0829 67.3538 20.3702 69.6532 19.921Z" fill="#006CB7"/>
<path d="M33.3202 19.6669C36.3216 19.6206 39.3238 19.6936 42.326 19.6823C41.7739 20.8685 41.2133 22.0523 40.6596 23.2385C43.5808 23.2434 46.5021 23.2288 49.4234 23.2458C49.995 22.0636 50.5275 20.8628 51.1 19.6806C54.1848 19.6774 57.2688 19.6701 60.3536 19.6815C58.6795 23.202 57.0123 26.7242 55.346 30.2479C52.7621 30.3015 50.1773 30.269 47.5934 30.2763C47.1044 30.2812 46.6137 30.2917 46.129 30.2269C46.8122 28.8436 47.4571 27.4434 48.114 26.0496C45.1842 26.0488 42.2535 26.0488 39.3238 26.0488C38.6882 27.4466 38.0322 28.8363 37.4172 30.2415C34.3809 30.3031 31.3446 30.2796 28.3083 30.2634C29.9543 26.7201 31.6641 23.2044 33.3202 19.6669Z" fill="#006CB7"/>
<path d="M93.2712 19.6484C96.3731 19.6484 99.4758 19.6484 102.578 19.6484C101.321 22.3306 100.057 25.0087 98.7874 27.686C103.062 27.6884 107.338 27.6982 111.613 27.6974C111.207 28.5552 110.801 29.413 110.394 30.2701C103.022 30.2757 95.6507 30.2774 88.2798 30.2692C89.9232 26.7203 91.6031 23.1868 93.2712 19.6484Z" fill="#006CB7"/>
</g>
<defs>
<clipPath id="clip0_17011_16096">
<rect width="84" height="12" fill="white" transform="translate(28 19)"/>
</clipPath>
</defs>
</svg>
