<svg width="160" height="58" viewBox="0 0 160 58" fill="none" xmlns="http://www.w3.org/2000/svg">
<g clip-path="url(#clip0_17011_16096)">
<path d="M79.6532 23.921C83.8012 23.1289 88.083 23.141 92.2719 23.617C94.003 23.831 95.8049 24.0475 97.3307 24.9175C98.2218 25.4089 98.911 26.3016 98.9434 27.3046C96.0877 27.3605 93.232 27.3321 90.3772 27.324C89.5245 26.3762 88.1614 26.0794 86.9065 26.0251C85.2248 25.9716 83.4766 26.0924 81.9363 26.7897C80.6346 27.3767 79.5177 28.464 79.1735 29.8221C79.0057 30.4408 79.4257 31.0805 79.9965 31.3602C81.0997 31.8962 82.3649 31.9586 83.5797 32.0016C85.1694 32.0624 86.8255 31.7794 88.175 30.9402C88.3088 30.8681 88.4255 30.731 88.5959 30.7513C91.483 30.7416 94.3711 30.7456 97.2582 30.7578C96.264 31.8167 94.9419 32.544 93.5651 33.0581C91.8391 33.7035 90.0058 34.0424 88.1741 34.2751C86.1415 34.5054 84.0943 34.6473 82.0471 34.6189C79.2775 34.6043 76.4763 34.4332 73.8047 33.6954C72.5728 33.3297 71.3298 32.7694 70.5265 31.7721C69.8569 30.9816 69.7632 29.8327 70.2019 28.9205C70.771 27.7205 71.8845 26.8529 73.0524 26.1994C75.0928 25.0829 77.3538 24.3702 79.6532 23.921Z" fill="#006CB7"/>
<path d="M43.3202 23.6669C46.3216 23.6206 49.3238 23.6936 52.326 23.6823C51.7739 24.8685 51.2133 26.0523 50.6596 27.2385C53.5808 27.2434 56.5021 27.2288 59.4234 27.2458C59.995 26.0636 60.5275 24.8628 61.1 23.6806C64.1848 23.6774 67.2688 23.6701 70.3536 23.6815C68.6795 27.202 67.0123 30.7242 65.346 34.2479C62.7621 34.3015 60.1773 34.269 57.5934 34.2763C57.1044 34.2812 56.6137 34.2917 56.129 34.2269C56.8122 32.8436 57.4571 31.4434 58.114 30.0496C55.1842 30.0488 52.2535 30.0488 49.3238 30.0488C48.6882 31.4466 48.0322 32.8363 47.4172 34.2415C44.3809 34.3031 41.3446 34.2796 38.3083 34.2634C39.9543 30.7201 41.6641 27.2044 43.3202 23.6669Z" fill="#006CB7"/>
<path d="M103.271 23.6484C106.373 23.6484 109.476 23.6484 112.578 23.6484C111.321 26.3306 110.057 29.0087 108.787 31.686C113.062 31.6884 117.338 31.6982 121.613 31.6974C121.207 32.5552 120.801 33.413 120.394 34.2701C113.022 34.2757 105.651 34.2774 98.2798 34.2692C99.9232 30.7203 101.603 27.1868 103.271 23.6484Z" fill="#006CB7"/>
</g>
<defs>
<clipPath id="clip0_17011_16096">
<rect width="84" height="12" fill="white" transform="translate(38 23)"/>
</clipPath>
</defs>
</svg>
