<svg width="221" height="225" viewBox="0 0 221 225" fill="none" xmlns="http://www.w3.org/2000/svg">
<path d="M67.8526 187.5V208.504C67.8526 214.469 64.8922 217.653 59.513 217.653C54.1036 217.653 51.1255 214.378 51.1255 208.249V187.523H43.6834V208.504C43.6834 218.827 49.4174 224.742 59.4149 224.742C69.5071 224.742 75.2947 218.713 75.2947 208.201V187.5H67.8526ZM95.2336 187.5L79.07 224.17H86.6666L89.7866 217.068L90.01 216.536H106.802L110.095 224.17H117.898L101.885 187.717L101.741 187.5L95.2336 187.5ZM139.484 187.5L131.155 212.732L123.047 187.519H115.127L127.911 224.193H134.074L142.42 200.101L150.76 224.193H156.975L169.728 187.519H162.01L153.886 212.732L145.555 187.5H139.484ZM212.313 187.5V224.139H219.657V187.5H212.313ZM1.66639 187.502V224.191H9.11063V209.29H25.9191V224.191H33.3654V187.502H25.9191V202.303H9.11063V187.502H1.66639ZM175.73 187.527V224.166H203.437V217.486H183.074V208.401H196.614V201.719H183.074V194.208H202.727V187.527H175.73ZM98.387 196.785L103.694 209.069H103.676L104.037 209.916H92.7775L93.1342 209.069L98.387 196.785Z" fill="#232527"/>
<path d="M94.3659 0C91.4132 0.261176 83.434 2.07738 83.434 2.07738C65.4491 6.72599 61.195 23.0469 61.195 23.0469C60.3167 25.7913 59.9177 28.6039 59.8004 31.2538V34.8604C60.0391 40.4326 61.2783 44.5934 61.2783 44.5934C67.2859 71.2319 96.824 115.003 103.172 124.198C103.623 124.644 103.983 124.483 103.983 124.483C104.669 124.294 104.615 123.637 104.615 123.637L104.628 123.64C114.406 25.9061 94.3659 0 94.3659 0ZM126.674 0C126.674 0 106.547 25.9198 116.332 123.711H116.345C116.421 124.331 116.862 124.461 116.862 124.461C117.516 124.714 117.852 124.085 117.852 124.085L117.855 124.092C124.367 114.662 153.736 71.1292 159.717 44.5929C159.717 44.5929 162.96 31.7492 159.83 23.0464C159.83 23.0464 155.384 6.47276 137.376 2.09295C137.376 2.09295 132.186 0.77602 126.674 0ZM33.8363 29.3399C33.8363 29.3399 16.7001 45.6045 15.8483 62.8475H15.8551V65.4602C15.8682 65.6569 15.8781 65.856 15.8905 66.0564C16.6287 79.9605 27.0885 88.1896 27.0885 88.1896C43.9416 104.615 84.7492 125.353 94.2318 130.058C94.3646 130.108 94.8546 130.268 95.1423 129.904C95.1423 129.904 95.2919 129.79 95.3603 129.586V129.153C95.3534 129.129 95.3404 129.104 95.328 129.076C69.3595 72.3469 33.8363 29.3399 33.8363 29.3399ZM187.162 29.3399C187.162 29.3399 151.743 72.2124 125.786 128.827L125.796 128.824C125.796 128.824 125.49 129.48 125.986 129.904C125.986 129.904 126.133 130.016 126.338 130.061H126.697C126.762 130.042 126.831 130.018 126.899 129.971C136.639 125.137 177.131 104.542 193.905 88.1923C193.905 88.1923 204.527 79.6621 205.083 65.9662C206.31 46.944 187.162 29.3399 187.162 29.3399ZM219.041 85.6603C219.041 85.6603 161.298 116.648 131.442 136.787L131.452 136.797C131.452 136.797 130.91 137.151 131.099 137.787C131.099 137.787 131.382 138.3 131.795 138.3C142.489 138.319 182.955 138.367 183.97 138.178C183.97 138.178 189.202 137.969 195.668 135.485C195.668 135.485 210.062 130.909 217.538 114.567C217.538 114.567 220.955 107.734 221.004 98.134V97.7271C220.979 94.0249 220.457 89.9265 219.041 85.6603ZM1.94135 85.8048C-3.31245 102.069 3.76048 115.175 3.77191 115.196C11.1428 130.77 25.2126 135.489 25.2126 135.489C31.7085 138.158 38.2059 138.342 38.2059 138.342C39.2204 138.528 78.6089 138.361 89.1628 138.311C89.6095 138.308 89.8553 137.859 89.8553 137.859C89.8863 137.809 89.9136 137.76 89.9259 137.714V137.307C89.8384 137.035 89.6053 136.843 89.6053 136.843L89.6121 136.84C59.7709 116.707 1.94135 85.8048 1.94135 85.8048ZM87.9574 143.311L20.0287 145.693C27.3953 158.825 39.8015 169.031 52.7252 165.897C61.6438 163.667 81.8485 149.574 88.5185 144.812L88.4961 144.793C89.0148 144.327 88.8295 143.953 88.8295 143.953C88.6589 143.343 87.9575 143.344 87.9575 143.344L87.9574 143.311ZM132.948 143.361L132.941 143.386C132.941 143.386 132.345 143.461 132.178 143.908C132.178 143.908 132.034 144.519 132.435 144.822L132.428 144.828C138.932 149.492 158.647 163.275 168.144 165.951C168.144 165.951 169.583 166.441 171.995 166.528H173.444C179.807 166.305 190.893 163.036 200.966 145.729L132.948 143.361Z" fill="#CF0A2C"/>
</svg>
