<svg width="230" height="126" viewBox="0 0 230 126" fill="none" xmlns="http://www.w3.org/2000/svg">
<g clip-path="url(#clip0_102_106)">
<path d="M95.6644 69.2163H102.192V103.531H95.6644V69.2163Z" fill="#1476C6"/>
<path d="M123.347 75.5416V97.206H126.436C129.478 97.206 131.682 96.8648 133.054 96.1774C134.423 95.4922 135.545 94.3402 136.414 92.7181C137.288 91.0989 137.722 89.1056 137.722 86.7374C137.722 83.0912 136.685 80.2628 134.61 78.253C132.74 76.4466 129.738 75.5416 125.607 75.5416H123.347ZM116.819 69.2163H124.642C129.685 69.2163 133.437 69.8363 135.887 71.0721C138.336 72.3083 140.357 74.3182 141.945 77.1009C143.529 79.8853 144.322 83.1352 144.322 86.8517C144.322 89.4966 143.877 91.9267 142.993 94.1416C142.103 96.3595 140.881 98.1989 139.317 99.6598C137.753 101.121 136.059 102.131 134.237 102.692C132.413 103.251 129.256 103.531 124.764 103.531H116.819V69.2163Z" fill="#1476C6"/>
<path d="M157.8 69.2163H176.796V75.5416H164.327V81.7928H176.796V88.1178H164.327V97.206H176.796V103.531H157.8V69.2163Z" fill="#1476C6"/>
<path d="M204.067 78.3403L199.395 90.1538H208.699L204.067 78.3403ZM200.719 69.2163H207.385L220.643 103.531H213.798L211.11 96.4794H196.978L194.189 103.531H187.345L200.719 69.2163Z" fill="#1476C6"/>
<path d="M31.2245 61.7943C29.6696 71.1251 40.72 79.6773 46.859 84.4919C52.8499 89.1846 60.5922 95.0236 57.8305 100.082C56.5243 102.473 58.7406 104.242 59.9951 100.623C62.9512 92.1033 57.6983 87.7175 51.6507 82.9777C45.4508 78.1171 39.7191 73.1323 41.0595 65.072C42.9665 50.794 57.3071 44.8676 69.3154 45.2016C74.4608 45.3498 74.9023 41.1429 71.0686 40.8624C59.1656 39.9991 33.3048 46.2095 31.2245 61.7943Z" fill="#FDDD57"/>
<path d="M51.5771 109.797C52.5333 113.713 58.3599 119.348 65.9393 115.296C67.9982 114.195 66.3827 110.274 63.7089 111.695C61.9968 112.605 57.5002 113.329 55.6431 108.592C54.5066 105.702 50.991 107.395 51.5771 109.797Z" fill="#1476C6"/>
<path d="M52.3924 121.04C53.4218 123.701 58.0309 127.117 62.9796 123.575C64.3219 122.611 62.8258 120.011 61.0781 121.255C59.9612 122.047 56.8748 122.969 55.1339 119.821C54.0706 117.894 51.7596 119.405 52.3924 121.04Z" fill="#1476C6"/>
<path d="M20.8979 66.0942C17.0215 65.1151 9.78327 64.9486 1.64604 71.4381C-1.74967 74.1513 3.54049 78.3171 5.92105 75.4127C9.79219 70.691 13.3863 67.3044 20.6084 67.5043C21.7987 67.54 22.1419 66.4072 20.8979 66.0942Z" fill="#FDDD57"/>
<path d="M32.9795 36.1925C31.2566 31.1899 25.4017 23.9696 13.3755 20.5007C9.67601 19.4337 6.79857 23.6068 11.524 25.1258C17.9991 27.2099 26.2024 28.7503 31.2066 36.8966C32.0323 38.2367 33.53 37.8007 32.9795 36.1925Z" fill="#FDDD57"/>
<path d="M67.1618 25.7604C68.1519 19.8949 68.9814 13.3875 67.5818 2.35875C67.0991 -1.45886 61.2748 -0.517266 62.5527 4.28174C64.381 11.1465 65.4745 16.8528 65.4319 25.7512C65.4246 27.3242 66.8832 27.4349 67.1618 25.7604Z" fill="#FDDD57"/>
<path d="M96.1087 118.207C96.3228 118.256 96.5863 118.273 96.9487 118.273C98.2829 118.273 99.1059 117.598 99.1059 116.478C99.1059 115.457 98.4146 114.847 97.1464 114.847C96.6358 114.847 96.2899 114.881 96.1087 114.93V118.207ZM93.622 113.168C94.3957 113.036 95.4828 112.937 97.0146 112.937C98.5624 112.937 99.6824 113.234 100.424 113.843C101.132 114.386 101.593 115.309 101.593 116.396C101.593 117.499 101.247 118.421 100.588 119.031C99.7318 119.821 98.4471 120.201 96.9652 120.201C96.6357 120.201 96.3393 120.183 96.1087 120.134V124.12H93.622V113.168Z" fill="#1476C6"/>
<path d="M113.011 121.534C113.011 122.588 113.044 123.444 113.077 124.12H110.903L110.788 122.984H110.739C110.426 123.477 109.668 124.3 108.219 124.3C106.572 124.3 105.386 123.28 105.386 120.792V116.066H107.89V120.398C107.89 121.567 108.268 122.275 109.157 122.275C109.849 122.275 110.261 121.798 110.409 121.402C110.475 121.254 110.508 121.073 110.508 120.859V116.066H113.011V121.534Z" fill="#1476C6"/>
<path d="M119.996 120.694C119.996 120.859 120.012 121.007 120.045 121.138C120.209 121.798 120.786 122.324 121.51 122.324C122.581 122.324 123.24 121.501 123.24 120.052C123.24 118.8 122.68 117.812 121.51 117.812C120.835 117.812 120.209 118.323 120.045 119.048C120.012 119.195 119.996 119.344 119.996 119.509V120.694ZM117.492 112.427H119.996V117.022H120.029C120.506 116.33 121.346 115.885 122.465 115.885C124.393 115.885 125.792 117.483 125.776 119.953C125.776 122.851 123.948 124.3 122.104 124.3C121.164 124.3 120.242 123.955 119.682 123H119.65L119.551 124.12H117.426C117.459 123.593 117.492 122.621 117.492 121.715V112.427Z" fill="#1476C6"/>
<path d="M129.812 112.427H132.315V124.12H129.812V112.427Z" fill="#1476C6"/>
<path d="M136.795 124.12V116.066H139.299V124.12H136.795ZM138.031 115.013C137.191 115.013 136.647 114.42 136.647 113.678C136.647 112.921 137.208 112.345 138.064 112.345C138.92 112.345 139.447 112.921 139.464 113.678C139.464 114.42 138.92 115.013 138.048 115.013H138.031Z" fill="#1476C6"/>
<path d="M149.823 123.922C149.379 124.136 148.539 124.3 147.583 124.3C144.981 124.3 143.318 122.703 143.318 120.167C143.318 117.812 144.932 115.885 147.929 115.885C148.588 115.885 149.313 116 149.84 116.197L149.445 118.059C149.148 117.928 148.703 117.812 148.044 117.812C146.727 117.812 145.871 118.751 145.887 120.068C145.887 121.551 146.876 122.341 148.094 122.341C148.687 122.341 149.148 122.242 149.526 122.078L149.823 123.922Z" fill="#1476C6"/>
<path d="M159.641 121.551C160.299 121.897 161.353 122.242 162.424 122.242C163.576 122.242 164.186 121.764 164.186 121.023C164.186 120.348 163.659 119.937 162.325 119.476C160.481 118.817 159.262 117.796 159.262 116.165C159.262 114.271 160.859 112.839 163.461 112.839C164.73 112.839 165.635 113.085 166.294 113.398L165.734 115.408C165.306 115.193 164.499 114.881 163.428 114.881C162.341 114.881 161.814 115.391 161.814 115.951C161.814 116.659 162.424 116.972 163.873 117.532C165.833 118.256 166.739 119.278 166.739 120.859C166.739 122.72 165.322 124.3 162.276 124.3C161.007 124.3 159.756 123.955 159.13 123.609L159.641 121.551Z" fill="#1476C6"/>
<path d="M176.885 123.922C176.44 124.136 175.6 124.3 174.645 124.3C172.043 124.3 170.38 122.703 170.38 120.167C170.38 117.812 171.994 115.885 174.991 115.885C175.649 115.885 176.374 116 176.902 116.197L176.506 118.059C176.21 117.928 175.765 117.812 175.106 117.812C173.789 117.812 172.933 118.751 172.949 120.068C172.949 121.551 173.937 122.341 175.156 122.341C175.749 122.341 176.21 122.242 176.588 122.078L176.885 123.922Z" fill="#1476C6"/>
<path d="M180.739 112.427H183.243V117.038H183.276C183.539 116.676 183.869 116.396 184.264 116.198C184.643 116 185.104 115.885 185.565 115.885C187.163 115.885 188.381 116.989 188.381 119.426V124.12H185.878V119.689C185.878 118.636 185.516 117.911 184.577 117.911C183.918 117.911 183.507 118.339 183.325 118.8C183.259 118.948 183.243 119.163 183.243 119.344V124.12H180.739V112.427Z" fill="#1476C6"/>
<path d="M196.617 122.506C197.605 122.506 198.215 121.534 198.215 120.085C198.215 118.899 197.754 117.68 196.617 117.68C195.432 117.68 194.97 118.899 194.97 120.101C194.97 121.468 195.546 122.506 196.601 122.506H196.617ZM196.568 124.3C194.213 124.3 192.401 122.753 192.401 120.151C192.401 117.549 194.114 115.885 196.716 115.885C199.17 115.885 200.817 117.581 200.817 120.019C200.817 122.95 198.725 124.3 196.584 124.3H196.568Z" fill="#1476C6"/>
<path d="M208.639 122.506C209.628 122.506 210.237 121.534 210.237 120.085C210.237 118.899 209.776 117.68 208.639 117.68C207.454 117.68 206.992 118.899 206.992 120.101C206.992 121.468 207.569 122.506 208.623 122.506H208.639ZM208.59 124.3C206.235 124.3 204.423 122.753 204.423 120.151C204.423 117.549 206.136 115.885 208.738 115.885C211.192 115.885 212.839 117.581 212.839 120.019C212.839 122.95 210.747 124.3 208.607 124.3H208.59Z" fill="#1476C6"/>
<path d="M216.859 112.427H219.362V124.12H216.859V112.427Z" fill="#1476C6"/>
<path d="M223.826 121.946C224.287 122.225 225.242 122.539 225.983 122.539C226.741 122.539 227.054 122.292 227.054 121.88C227.054 121.452 226.807 121.254 225.885 120.941C224.205 120.398 223.563 119.476 223.579 118.536C223.579 117.022 224.864 115.885 226.856 115.885C227.795 115.885 228.619 116.116 229.112 116.363L228.684 118.075C228.322 117.894 227.614 117.631 226.939 117.631C226.329 117.631 225.983 117.878 225.983 118.273C225.983 118.669 226.296 118.866 227.285 119.212C228.816 119.722 229.442 120.513 229.458 121.682C229.458 123.197 228.289 124.3 225.983 124.3C224.929 124.3 223.99 124.054 223.381 123.724L223.826 121.946Z" fill="#1476C6"/>
</g>
<defs>
<clipPath id="clip0_102_106">
<rect width="228.919" height="125.093" fill="white" transform="translate(0.540283)"/>
</clipPath>
</defs>
</svg>
