<svg width="790" height="88" viewBox="0 0 790 88" fill="none" xmlns="http://www.w3.org/2000/svg">
<path d="M21.425 43.9544C33.2325 43.9544 42.8309 34.3751 42.8309 22.5485C42.8309 10.722 33.2325 1.12357 21.425 1.12357C9.57934 1.12357 0 10.722 0 22.5485C0 34.3751 9.57934 43.9544 21.425 43.9544Z" fill="#E00018"/>
<path d="M109.334 41.3073V1.10457C83.0907 1.10457 67.5505 13.0645 59.7232 22.9676C51.7055 33.0611 40.6217 44.4306 22.2629 44.4306V84.6333C42.888 84.6333 58.0092 76.6537 68.9598 64.8652C79.8913 53.0958 87.0329 41.3073 109.334 41.3073Z" fill="#004492"/>
<path d="M137.92 1.02835C132.454 1.23784 129.521 6.07512 129.521 11.1219V74.8064C129.521 80.2531 133.711 84.4619 138.339 84.4619C142.966 84.4619 146.737 81.6243 146.737 74.9206V10.7029C146.737 4.41825 144.223 1.02835 137.92 1.02835Z" fill="#E00018"/>
<path d="M178.903 31.4233V75.2254C178.903 81.9481 175.437 84.4619 170.828 84.4619C166.2 84.4619 161.973 80.2722 161.973 74.8064V11.1219C161.973 6.07517 165.229 1.23789 170.714 1.04744C179.341 1.04744 179.951 5.56097 181.855 8.07483L210.879 51.6294V11.1219C210.879 6.07517 213.792 1.23789 219.277 1.04744C225.581 1.04744 228.419 4.39926 228.419 10.703V75.0921C228.419 81.7957 224.648 84.6333 220.02 84.6333C212.764 84.6333 211.793 80.3293 209.279 76.5585" fill="#E00018"/>
<path d="M274.773 15.864L274.792 75.073C274.792 81.8148 271.002 84.6333 266.393 84.6333C261.765 84.6333 257.556 80.4436 257.556 74.9778L257.614 15.864L242.016 15.7878C235.674 15.7878 232.094 13.7691 231.904 8.32241C231.904 2.41864 234.379 1.21884 241.521 1.21884H291.894C296.921 1.21884 300.673 2.34246 300.673 8.20814C300.673 13.274 297.721 15.7878 290.979 15.7878" fill="#E00018"/>
<path d="M367.5 8.36045C367.5 2.83757 364.339 1.27593 358.492 1.27593H310.881C306.786 1.27593 304.101 4.2659 304.101 10.0935V77.2441C304.101 81.1672 305.815 84.4809 310.557 84.4809H359.92C365.824 84.4809 368.128 82.2146 368.128 78.1582C368.128 73.2638 365.615 70.5976 359.768 70.5976H321.908V47.9157H355.502C358.606 47.9157 362.339 46.4493 362.148 40.6598C361.977 36.2415 359.463 34.2037 354.074 34.2037H321.908V15.1403H358.968C363.653 15.1403 367.5 13.9214 367.5 8.36045Z" fill="#E00018"/>
<path d="M411.492 38.9267H393.686V13.8643H411.34C416.901 13.8643 425.528 16.5686 425.528 26.167C425.528 35.7082 417.91 38.9267 411.492 38.9267ZM440.821 71.645C440.307 68.5789 440.192 64.3891 440.192 62.0276C439.869 49.2107 432.841 45.4018 425.052 44.602C436.783 42.9832 441.754 36.032 441.754 24.872C441.754 3.46606 423.357 1.23786 410.216 1.23786H388.639C382.945 1.23786 375.994 2.49479 375.994 12.6074V73.2257C375.994 81.91 378.374 84.5952 384.83 84.5952C391.305 84.5952 393.819 82.0433 393.819 73.2257V49.325H404.713C413.321 49.4202 423.795 51.3627 423.795 66.7506C423.795 78.2725 424.1 84.8999 434.193 84.8999C436.879 84.8999 440.23 83.643 441.754 80.0246C443.03 77.0155 441.259 74.2732 440.821 71.645Z" fill="#E00018"/>
<path d="M611.23 60.1994C601.879 60.1994 594.3 52.6197 594.3 43.2498C594.3 33.88 601.879 26.3003 611.23 26.3003C620.581 26.3003 628.18 33.88 628.18 43.2498C628.18 52.6197 620.581 60.1994 611.23 60.1994ZM687.008 42.7547H677.638V23.996H684.437C690.112 23.996 695.578 28.0143 695.578 32.8516C695.578 39.022 692.55 42.7547 687.008 42.7547ZM546.251 44.0878H535.967V24.1293H545.432C551.526 24.1293 555.221 28.5476 555.297 33.1754C555.449 40.5646 550.917 44.1068 546.251 44.0878ZM767.394 1.21884H717.746C713.156 1.21884 711.423 3.75175 711.423 8.49381V13.8643C709.061 8.03674 698.187 1.21884 688.398 1.21884H659.546C655.432 1.21884 653.547 2.34247 653.547 7.71299V30.1092C650.557 21.5964 639.53 0 611.44 0C598.07 0 582.245 5.80855 573.903 18.7397C567.447 7.5035 556.858 1.44738 542.537 1.44738H520.122C515.722 1.44738 513.342 1.44738 513.342 6.9893V46.0113C509.343 37.327 499.935 31.1757 490.184 31.1757H477.862C472.187 31.1757 470.473 28.1286 470.473 25.2719C470.473 23.7103 471.463 21.6725 474.377 21.6725H501.058C504.524 21.6725 507.21 20.8536 507.21 16.4353V6.68459C507.21 2.7424 505.305 1.44738 499.63 1.44738H472.187C461.636 1.44738 445.525 7.8463 445.525 27.4239C445.525 46.9635 466.512 52.6197 476.129 52.6197H486.546C490.013 52.6197 490.812 54.9812 490.812 56.4095C490.812 58.4663 489.86 60.5231 487.023 60.5231H455.809C451.371 60.5231 450.419 62.2942 450.419 66.3698V79.3199C450.419 82.6337 451.524 84.5191 455.809 84.5191H490.317C497.725 84.5191 513.342 78.9771 513.342 67.1506V79.4723C513.342 82.4623 514.142 84.6714 517.456 84.6714H532.462C536.367 84.6714 536.519 81.9862 536.367 79.1486V70.3119C536.367 68.0457 537.947 67.0363 540.156 67.0363C549.641 67.0363 568.456 63.7416 568.456 55.7049C572.475 70.1025 588.263 87.0329 611.44 87.0329C634.617 87.0329 653.547 67.6267 653.547 51.7246V77.9107C653.547 80.7292 653.547 84.6714 657.794 84.6714H673.41C676.095 84.6714 677.543 82.9384 677.543 79.3199V55.8192L695.635 81.6624C696.911 82.9384 697.73 84.5191 700.396 84.5191H719.002C721.497 84.5191 721.059 82.4623 719.783 80.4245C718.507 78.3677 704.967 57.5522 704.967 57.5522C714.26 51.877 719.288 45.7256 719.288 32.147C719.288 29.7855 719.136 27.2716 719.002 26.3003H731.61V79.3199C731.61 82.1576 732.714 84.5191 737.114 84.5191H753.073C757.472 84.5191 757.015 82.1576 757.015 79.4723V26.3003H766.785C772.612 26.3003 773.565 25.2148 773.565 20.3204V5.82759C773.565 2.66622 772.136 1.21884 767.394 1.21884Z" fill="#004492"/>
<path d="M785.201 10.0745H785.467C786.534 10.0745 787.296 9.76978 787.296 8.7033C787.296 7.57968 786.496 7.35115 785.467 7.35115H785.201V10.0745ZM790 14.9689H787.638L785.22 11.3314H785.201V14.9689H783.258V5.92282H785.905C787.848 5.92282 789.219 6.72268 789.219 8.64617C789.219 9.76979 788.495 10.9505 787.181 11.141" fill="#004492"/>
</svg>
