<svg width="160" height="58" viewBox="0 0 160 58" fill="none" xmlns="http://www.w3.org/2000/svg">
<path d="M27.435 29.3469C29.0964 29.3469 30.4469 27.999 30.4469 26.3349C30.4469 24.6708 29.0964 23.3202 27.435 23.3202C25.7682 23.3202 24.4203 24.6708 24.4203 26.3349C24.4203 27.999 25.7682 29.3469 27.435 29.3469Z" fill="#E00018"/>
<path d="M39.8045 28.9744V23.3175C36.1118 23.3175 33.9252 25.0004 32.8238 26.3938C31.6957 27.8141 30.1361 29.4139 27.5529 29.4139V35.0707C30.455 35.0707 32.5827 33.9479 34.1235 32.2892C35.6616 30.6331 36.6665 28.9744 39.8045 28.9744Z" fill="#004492"/>
<path d="M43.8267 23.3068C43.0576 23.3363 42.6449 24.0169 42.6449 24.727V33.688C42.6449 34.4544 43.2345 35.0466 43.8856 35.0466C44.5368 35.0466 45.0674 34.6473 45.0674 33.7041V24.6681C45.0674 23.7838 44.7137 23.3068 43.8267 23.3068Z" fill="#E00018"/>
<path d="M49.5934 27.5836V33.7469C49.5934 34.6929 49.1057 35.0466 48.4572 35.0466C47.806 35.0466 47.2111 34.4571 47.2111 33.688V24.7271C47.2111 24.0169 47.6694 23.3363 48.4411 23.3095C49.655 23.3095 49.7408 23.9446 50.0088 24.2983L54.0926 30.4268V24.7271C54.0926 24.0169 54.5026 23.3363 55.2744 23.3095C56.1614 23.3095 56.5606 23.7811 56.5606 24.6681V33.7282C56.5606 34.6714 56.03 35.0707 55.3789 35.0707C54.3579 35.0707 54.2212 34.4651 53.8675 33.9345" fill="#E00018"/>
<path d="M63.083 25.3943L63.0857 33.7255C63.0857 34.6741 62.5524 35.0707 61.904 35.0707C61.2528 35.0707 60.6606 34.4812 60.6606 33.7121L60.6686 25.3943L58.4739 25.3836C57.5816 25.3836 57.0778 25.0995 57.051 24.3331C57.051 23.5024 57.3994 23.3336 58.4043 23.3336H65.4921C66.1995 23.3336 66.7274 23.4917 66.7274 24.3171C66.7274 25.0299 66.3121 25.3836 65.3635 25.3836" fill="#E00018"/>
<path d="M76.1305 24.3385C76.1305 23.5614 75.6857 23.3416 74.863 23.3416H68.1638C67.5876 23.3416 67.2098 23.7624 67.2098 24.5823V34.031C67.2098 34.583 67.451 35.0493 68.1182 35.0493H75.064C75.8947 35.0493 76.2189 34.7304 76.2189 34.1596C76.2189 33.4709 75.8652 33.0958 75.0426 33.0958H69.7153V29.9042H74.4423C74.8791 29.9042 75.4043 29.6979 75.3775 28.8833C75.3534 28.2616 74.9997 27.9748 74.2413 27.9748H69.7153V25.2925H74.93C75.5892 25.2925 76.1305 25.121 76.1305 24.3385Z" fill="#E00018"/>
<path d="M82.3206 28.6394H79.8151V25.1129H82.2992C83.0816 25.1129 84.2956 25.4934 84.2956 26.844C84.2956 28.1865 83.2237 28.6394 82.3206 28.6394ZM86.4474 33.2431C86.375 32.8117 86.3589 32.2222 86.3589 31.8899C86.3134 30.0865 85.3246 29.5505 84.2286 29.438C85.8793 29.2102 86.5787 28.2321 86.5787 26.6618C86.5787 23.6498 83.9901 23.3363 82.1411 23.3363H79.105C78.3037 23.3363 77.3256 23.5131 77.3256 24.9361V33.4656C77.3256 34.6875 77.6606 35.0653 78.569 35.0653C79.4801 35.0653 79.8338 34.7063 79.8338 33.4656V30.1025H81.3666C82.5779 30.1159 84.0517 30.3893 84.0517 32.5545C84.0517 34.1757 84.0946 35.1082 85.5148 35.1082C85.8927 35.1082 86.3643 34.9314 86.5787 34.4222C86.7582 33.9988 86.509 33.6129 86.4474 33.2431Z" fill="#E00018"/>
<path d="M110.425 31.6326C109.11 31.6326 108.043 30.5661 108.043 29.2477C108.043 27.9293 109.11 26.8628 110.425 26.8628C111.741 26.8628 112.81 27.9293 112.81 29.2477C112.81 30.5661 111.741 31.6326 110.425 31.6326ZM121.088 29.178H119.769V26.5385H120.726C121.525 26.5385 122.294 27.104 122.294 27.7846C122.294 28.6528 121.868 29.178 121.088 29.178ZM101.282 29.3656H99.8352V26.5573H101.167C102.024 26.5573 102.544 27.179 102.555 27.8302C102.576 28.8699 101.939 29.3683 101.282 29.3656ZM132.399 23.3336H125.413C124.767 23.3336 124.523 23.69 124.523 24.3573V25.1129C124.191 24.2929 122.661 23.3336 121.283 23.3336H117.224C116.645 23.3336 116.38 23.4917 116.38 24.2474V27.3987C115.959 26.2009 114.407 23.1621 110.455 23.1621C108.574 23.1621 106.347 23.9794 105.173 25.7989C104.265 24.2179 102.775 23.3658 100.76 23.3658H97.6056C96.9866 23.3658 96.6517 23.3658 96.6517 24.1456V29.6363C96.0889 28.4143 94.7652 27.5488 93.3931 27.5488H91.6594C90.8608 27.5488 90.6197 27.12 90.6197 26.7181C90.6197 26.4983 90.759 26.2116 91.169 26.2116H94.9233C95.411 26.2116 95.7888 26.0964 95.7888 25.4747V24.1027C95.7888 23.548 95.5208 23.3658 94.7223 23.3658H90.8608C89.3763 23.3658 87.1092 24.2661 87.1092 27.0209C87.1092 29.7703 90.0623 30.5661 91.4155 30.5661H92.8813C93.369 30.5661 93.4816 30.8984 93.4816 31.0994C93.4816 31.3888 93.3476 31.6782 92.9483 31.6782H88.5563C87.9319 31.6782 87.7979 31.9274 87.7979 32.5009V34.3231C87.7979 34.7893 87.9533 35.0546 88.5563 35.0546H93.4119C94.4543 35.0546 96.6517 34.2748 96.6517 32.6107V34.3445C96.6517 34.7652 96.7642 35.0761 97.2305 35.0761H99.3421C99.8914 35.0761 99.9129 34.6982 99.8914 34.299V33.0556C99.8914 32.7367 100.114 32.5947 100.425 32.5947C101.759 32.5947 104.407 32.1311 104.407 31.0002C104.972 33.0261 107.194 35.4084 110.455 35.4084C113.716 35.4084 116.38 32.6777 116.38 30.4402V34.1248C116.38 34.5214 116.38 35.0761 116.977 35.0761H119.175C119.552 35.0761 119.756 34.8322 119.756 34.3231V31.0163L122.302 34.6527C122.481 34.8322 122.597 35.0546 122.972 35.0546H125.59C125.941 35.0546 125.879 34.7652 125.7 34.4785C125.52 34.1891 123.615 31.2602 123.615 31.2602C124.923 30.4616 125.63 29.5961 125.63 27.6854C125.63 27.3532 125.609 26.9994 125.59 26.8628H127.364V34.3231C127.364 34.7223 127.519 35.0546 128.138 35.0546H130.384C131.003 35.0546 130.938 34.7223 130.938 34.3445V26.8628H132.313C133.133 26.8628 133.267 26.71 133.267 26.0214V23.9821C133.267 23.5373 133.066 23.3336 132.399 23.3336Z" fill="#004492"/>
<path d="M134.904 24.5797H134.942C135.092 24.5797 135.199 24.5368 135.199 24.3867C135.199 24.2286 135.087 24.1965 134.942 24.1965H134.904V24.5797ZM135.58 25.2684H135.247L134.907 24.7565H134.904V25.2684H134.631V23.9955H135.004C135.277 23.9955 135.47 24.108 135.47 24.3787C135.47 24.5368 135.368 24.7029 135.183 24.7297" fill="#004492"/>
</svg>
