<svg width="140" height="50" viewBox="0 0 140 50" fill="none" xmlns="http://www.w3.org/2000/svg">
<path d="M102.139 5.43945L18.5494 5.49345L18.5542 7.20903L103.854 7.1538L102.139 5.43945Z" fill="url(#paint0_linear_17011_16127)"/>
<path d="M20.2642 7.20903L20.2909 44.5594L18.575 44.5608L18.5494 5.49467L20.2642 7.20903Z" fill="url(#paint1_linear_17011_16127)"/>
<path d="M41.5365 30.3396C41.5381 32.1107 41.061 35.0024 36.9601 35.0043C34.6673 35.007 32.4345 33.7544 32.4304 30.75L32.4316 29.5544L35.1655 29.5536L35.1645 30.17C35.1671 31.5009 35.4948 32.4636 36.9198 32.4614C38.5174 32.4602 38.5154 31.1718 38.5149 30.2061L38.5112 20.9198L41.5308 20.9194L41.5365 30.3396Z" fill="#221E1F"/>
<path d="M52.4703 25.5345C52.2779 24.1663 50.9712 23.1269 49.4686 23.1285C46.7511 23.1309 45.7322 25.442 45.7353 27.851C45.7349 30.1427 46.7586 32.4554 49.4726 32.454C51.3207 32.4532 52.3606 31.1796 52.5887 29.3696L55.5187 29.368C55.2117 32.7959 52.843 34.9946 49.4751 34.996C45.2198 35.0006 42.7136 31.8222 42.7129 27.8532C42.7097 23.7695 45.2097 20.587 49.4643 20.5836C52.4866 20.5828 55.0295 22.3522 55.3991 25.5314L52.4703 25.5345Z" fill="#221E1F"/>
<path d="M59.6142 23.4481L61.7678 23.4496C64.7737 23.4459 65.7369 25.2162 65.7386 27.9929C65.7403 31.0369 64.0673 32.1177 62.315 32.1176L59.6207 32.1208L59.6142 23.4481ZM56.5971 34.662L62.5295 34.6597C66.7261 34.6575 68.7626 31.6898 68.7603 27.7027C68.7577 23.135 66.0805 20.9013 62.5203 20.9052L56.5892 20.9082L56.5971 34.662Z" fill="#221E1F"/>
<path d="M72.2276 28.6052C72.2673 27.8335 72.766 26.4854 74.5006 26.4832C75.8258 26.4821 76.4232 27.2143 76.6762 28.6022L72.2276 28.6052ZM79.4101 30.3331C79.6009 27.2707 77.9637 24.4185 74.5738 24.4198C71.551 24.4259 69.4943 26.6994 69.4955 29.6849C69.4975 32.7682 71.4428 34.9253 74.5809 34.9234C76.8344 34.9218 78.4707 33.92 79.2378 31.5671L76.8314 31.5683C76.6575 32.1857 75.7736 32.8622 74.6779 32.861C73.1553 32.8634 72.3076 32.0729 72.2288 30.3384L79.4101 30.3331Z" fill="#221E1F"/>
<path d="M87.207 28.1922C87.0337 27.0718 86.3213 26.4744 85.1862 26.4755C83.4315 26.4791 82.8555 28.2508 82.8573 29.7174C82.8584 31.1414 83.4188 32.8563 85.1315 32.854C86.4009 32.8523 87.1336 32.0451 87.3057 30.8277L89.9425 30.8277C89.5969 33.4678 87.7706 34.9125 85.1508 34.9155C82.1476 34.9181 80.1249 32.7989 80.1237 29.8134C80.1222 26.7108 81.9682 24.4168 85.2034 24.4141C87.5514 24.4114 89.7082 25.6455 89.8828 28.1872L87.207 28.1922Z" fill="#221E1F"/>
<path d="M97.1287 30.785C97.128 31.3835 97.0524 33.0782 94.9165 33.0797C94.03 33.0803 93.2409 32.8295 93.2409 31.8093C93.2403 30.809 94.0109 30.5168 94.8567 30.342C95.7031 30.1887 96.6653 30.1679 97.128 29.7648L97.1287 30.785ZM93.5463 27.7442C93.641 26.6645 94.315 26.2394 95.3538 26.2385C96.3172 26.2399 97.1257 26.4114 97.1258 27.5852C97.1258 28.7045 95.5656 28.6474 93.8924 28.8995C92.1979 29.1316 90.5036 29.671 90.506 31.9264C90.5065 33.9688 92.0092 34.9103 93.8964 34.9098C95.1066 34.9092 96.3795 34.582 97.246 33.6744C97.2648 34.0034 97.3409 34.3298 97.4382 34.6369L100.211 34.6351C99.9609 34.2337 99.8652 33.3262 99.8636 32.4209L99.8613 27.2374C99.8582 24.8489 97.471 24.4077 95.4873 24.409C93.2551 24.4094 90.9635 25.1803 90.8118 27.7443L93.5463 27.7442Z" fill="#221E1F"/>
<path d="M110.697 34.6291L108.097 34.6326L108.098 33.2448L108.037 33.2437C107.346 34.3635 106.152 34.901 104.998 34.9035C102.092 34.9034 101.357 33.2697 101.356 30.8017L101.353 24.6737L104.086 24.6702L104.092 30.2996C104.092 31.9363 104.57 32.7463 105.844 32.7437C107.326 32.7435 107.961 31.9151 107.958 29.8918L107.957 24.6691L110.691 24.6683L110.697 34.6291Z" fill="#221E1F"/>
<path d="M114.689 29.3851L111.415 24.6662L114.533 24.6652L116.287 27.2658L118.018 24.6649L121.039 24.6619L117.772 29.3268L121.451 34.6232L118.333 34.6257L116.253 31.4861L114.174 34.6281L111.114 34.6267L114.689 29.3851Z" fill="#221E1F"/>
<defs>
<linearGradient id="paint0_linear_17011_16127" x1="121.451" y1="24.998" x2="23.8977" y2="47.8389" gradientUnits="userSpaceOnUse">
<stop stop-opacity="0"/>
<stop offset="1" stop-color="#221E1F"/>
</linearGradient>
<linearGradient id="paint1_linear_17011_16127" x1="46.5263" y1="13.4808" x2="46.5331" y2="44.5659" gradientUnits="userSpaceOnUse">
<stop/>
<stop offset="1" stop-opacity="0"/>
</linearGradient>
</defs>
</svg>
