<svg width="160" height="58" viewBox="0 0 160 58" fill="none" xmlns="http://www.w3.org/2000/svg">
<path d="M112.139 9.86719L28.5494 9.92118L28.5542 11.6368L113.854 11.5815L112.139 9.86719Z" fill="url(#paint0_linear_17011_16127)"/>
<path d="M30.2642 11.6368L30.2909 48.9872L28.575 48.9885L28.5494 9.92241L30.2642 11.6368Z" fill="url(#paint1_linear_17011_16127)"/>
<path d="M51.5365 34.7673C51.5381 36.5385 51.061 39.4302 46.9601 39.4321C44.6673 39.4347 42.4345 38.1821 42.4304 35.1778L42.4316 33.9821L45.1655 33.9813L45.1645 34.5977C45.1671 35.9287 45.4948 36.8914 46.9198 36.8891C48.5174 36.8879 48.5154 35.5996 48.5149 34.6339L48.5112 25.3476L51.5308 25.3472L51.5365 34.7673Z" fill="#221E1F"/>
<path d="M62.4703 29.9622C62.2779 28.594 60.9712 27.5547 59.4686 27.5562C56.7511 27.5586 55.7322 29.8697 55.7353 32.2787C55.7349 34.5704 56.7586 36.8831 59.4726 36.8818C61.3207 36.8809 62.3606 35.6073 62.5887 33.7974L65.5187 33.7958C65.2117 37.2236 62.843 39.4224 59.4751 39.4238C55.2198 39.4284 52.7136 36.2499 52.7129 32.2809C52.7097 28.1973 55.2097 25.0147 59.4643 25.0114C62.4866 25.0105 65.0295 26.7799 65.3991 29.9592L62.4703 29.9622Z" fill="#221E1F"/>
<path d="M69.6142 27.8758L71.7678 27.8773C74.7737 27.8736 75.7369 29.6439 75.7386 32.4206C75.7403 35.4647 74.0673 36.5454 72.315 36.5453L69.6207 36.5486L69.6142 27.8758ZM66.5971 39.0897L72.5295 39.0874C76.7261 39.0852 78.7626 36.1176 78.7603 32.1304C78.7577 27.5627 76.0805 25.3291 72.5203 25.3329L66.5892 25.336L66.5971 39.0897Z" fill="#221E1F"/>
<path d="M82.2276 33.0329C82.2673 32.2612 82.766 30.9131 84.5006 30.9109C85.8258 30.9099 86.4232 31.642 86.6762 33.0299L82.2276 33.0329ZM89.4101 34.7609C89.6009 31.6985 87.9637 28.8462 84.5738 28.8476C81.551 28.8537 79.4943 31.1271 79.4955 34.1126C79.4975 37.1959 81.4428 39.353 84.5809 39.3512C86.8344 39.3495 88.4707 38.3477 89.2378 35.9949L86.8314 35.9961C86.6575 36.6134 85.7736 37.29 84.6779 37.2888C83.1553 37.2911 82.3076 36.5007 82.2288 34.7661L89.4101 34.7609Z" fill="#221E1F"/>
<path d="M97.207 32.6199C97.0337 31.4995 96.3213 30.9021 95.1862 30.9032C93.4315 30.9069 92.8555 32.6786 92.8573 34.1452C92.8584 35.5691 93.4188 37.284 95.1315 37.2817C96.4009 37.2801 97.1336 36.4728 97.3057 35.2555L99.9425 35.2554C99.5969 37.8955 97.7706 39.3402 95.1508 39.3432C92.1476 39.3458 90.1249 37.2266 90.1237 34.2411C90.1222 31.1386 91.9682 28.8445 95.2034 28.8419C97.5514 28.8391 99.7082 30.0732 99.8828 32.6149L97.207 32.6199Z" fill="#221E1F"/>
<path d="M107.129 35.2127C107.128 35.8112 107.052 37.5059 104.917 37.5074C104.03 37.508 103.241 37.2572 103.241 36.237C103.24 35.2368 104.011 34.9445 104.857 34.7698C105.703 34.6164 106.665 34.5956 107.128 34.1925L107.129 35.2127ZM103.546 32.1719C103.641 31.0922 104.315 30.6671 105.354 30.6663C106.317 30.6676 107.126 30.8392 107.126 32.013C107.126 33.1322 105.566 33.0751 103.892 33.3272C102.198 33.5594 100.504 34.0988 100.506 36.3541C100.507 38.3965 102.009 39.338 103.896 39.3376C105.107 39.337 106.379 39.0097 107.246 38.1021C107.265 38.4311 107.341 38.7575 107.438 39.0646L110.211 39.0628C109.961 38.6614 109.865 37.7539 109.864 36.8487L109.861 31.6651C109.858 29.2767 107.471 28.8355 105.487 28.8367C103.255 28.8371 100.964 29.608 100.812 32.172L103.546 32.1719Z" fill="#221E1F"/>
<path d="M120.697 39.0568L118.097 39.0604L118.098 37.6725L118.037 37.6714C117.346 38.7912 116.152 39.3287 114.998 39.3313C112.092 39.3311 111.357 37.6975 111.356 35.2294L111.353 29.1014L114.086 29.0979L114.092 34.7274C114.092 36.364 114.57 37.174 115.844 37.1714C117.326 37.1712 117.961 36.3429 117.958 34.3195L117.957 29.0968L120.691 29.096L120.697 39.0568Z" fill="#221E1F"/>
<path d="M124.689 33.8128L121.415 29.094L124.533 29.0929L126.287 31.6935L128.018 29.0926L131.039 29.0896L127.772 33.7545L131.451 39.0509L128.333 39.0534L126.253 35.9139L124.174 39.0558L121.114 39.0544L124.689 33.8128Z" fill="#221E1F"/>
<defs>
<linearGradient id="paint0_linear_17011_16127" x1="131.451" y1="29.4257" x2="33.8977" y2="52.2667" gradientUnits="userSpaceOnUse">
<stop stop-opacity="0"/>
<stop offset="1" stop-color="#221E1F"/>
</linearGradient>
<linearGradient id="paint1_linear_17011_16127" x1="56.5263" y1="17.9085" x2="56.5331" y2="48.9937" gradientUnits="userSpaceOnUse">
<stop/>
<stop offset="1" stop-opacity="0"/>
</linearGradient>
</defs>
</svg>
