<svg width="160" height="58" viewBox="0 0 160 58" fill="none" xmlns="http://www.w3.org/2000/svg">
<g clip-path="url(#clip0_17011_16132)">
<path d="M59.6393 44.9845H100.114L79.984 24.8548L59.6393 44.9845Z" fill="#7BB51C"/>
<path d="M58.866 43.9946L62.0193 40.9184L60.969 39.8412L58.9884 41.7741L55.4993 38.1969L54.3263 39.3413L58.866 43.9946Z" fill="black"/>
<path d="M62.7115 40.2178L65.9425 37.0647L65.0552 36.1558L63.0036 38.1571L62.0184 37.1471L63.6625 35.5431L62.7339 34.5921L61.0899 36.1952L60.2459 35.3301L62.23 33.394L61.3432 32.4853L58.1224 35.6279L62.7115 40.2178Z" fill="black"/>
<path d="M73.287 25.2703C71.9839 23.9345 69.7234 24.0943 68.6348 25.1566C67.5459 26.2189 66.9902 28.3371 68.5279 29.9134C70.2169 31.6445 72.2264 31.0157 73.3153 29.954C74.9208 28.3877 74.3493 26.3592 73.287 25.2703ZM72.3293 29.0392C71.6085 29.7425 70.7273 29.5517 69.7205 28.5195C68.8744 27.6523 68.9252 26.7811 69.5405 26.1807C69.9636 25.7678 70.8229 25.3985 71.8451 26.4465C73.0115 27.6421 73.05 28.336 72.3293 29.0392Z" fill="black"/>
<path d="M76.9212 26.3796L78.1133 25.2162L76.32 23.3782L75.2465 18.9122L73.8801 20.2456L74.5909 22.7793L72.1893 21.8949L70.9009 23.1518L74.9953 24.4665L76.9212 26.3796Z" fill="black"/>
<path d="M70.5655 32.5876C70.5655 32.5876 67.6642 31.5977 67.5263 31.6217C67.4816 31.629 68.1495 29.8517 66.649 29.0641C66.649 29.0641 65.5355 28.4613 64.4212 29.4737L62.0462 31.8142L66.6247 36.4252L67.836 35.2434L65.3585 32.7044L69.3635 33.7603L70.5655 32.5876ZM66.0719 31.9545C65.3988 32.6101 65.3079 32.6618 65.3079 32.6618C65.3079 32.6618 64.2526 31.5802 64.2152 31.5419C64.1778 31.5036 64.9699 30.8246 65.0947 30.7028C65.1475 30.6511 65.6407 30.3294 66.0489 30.7475C66.0489 30.7475 66.7448 31.2977 66.0719 31.9545Z" fill="black"/>
<path d="M76.5513 19.7922L75.492 18.724L80.1169 14.1367L81.6307 15.6627L79.9644 18.942L83.3614 17.4078L84.8179 18.8765L80.1929 23.4638L79.0765 22.3384L81.5179 19.9172L78.1781 21.4324L77.4877 20.7362L79.04 17.3996L76.5513 19.7922Z" fill="black"/>
<path d="M84.5818 27.8887L81.375 24.6559L86.0003 20.0686L89.2162 23.311L88.2818 24.2378L86.267 22.2066L85.5135 22.9537L87.1026 24.5559L86.1297 25.5207L84.5503 23.9281L83.5394 24.9305L85.5352 26.9426L84.5818 27.8887Z" fill="black"/>
<path d="M95.1562 29.2998L96.3479 30.5018L92.8481 33.9727L94.8059 35.946L93.6804 37.063L90.5309 33.8874L95.1562 29.2998Z" fill="black"/>
<path d="M94.5128 37.9024L99.1381 33.3151L100.302 34.4878L95.6762 39.0748L94.5128 37.9024Z" fill="black"/>
<path d="M97.7854 41.2024L96.6973 40.1053L101.323 35.5183L102.903 37.11L101.553 41.8729L104.614 38.8361L105.674 39.9043L101.049 44.4913L99.6675 43.0994L100.857 38.0993L97.7854 41.2024Z" fill="black"/>
<path d="M93.066 27.1924L90.2568 24.3599L85.6219 28.9378L86.8137 30.1392L89.3406 27.633L88.4311 31.7701L89.6512 33.0004C89.6512 33.0004 90.613 30.0411 90.6425 29.9178C90.6425 29.9178 91.6847 30.4919 92.8282 29.5087C92.8282 29.5087 93.925 28.44 93.066 27.1924ZM91.3507 28.5341C91.3507 28.5341 90.7602 28.9305 90.2399 28.4061L89.4271 27.5477C89.4271 27.5477 90.4091 26.5736 90.5329 26.4506C90.5329 26.4506 91.2897 27.2138 91.3843 27.309C91.4787 27.4043 92.0753 27.853 91.3507 28.5341Z" fill="black"/>
</g>
<defs>
<clipPath id="clip0_17011_16132">
<rect width="51.3476" height="30.8685" fill="white" transform="translate(54.3263 14.1367)"/>
</clipPath>
</defs>
</svg>
