<svg width="140" height="50" viewBox="0 0 140 50" fill="none" xmlns="http://www.w3.org/2000/svg">
<g clip-path="url(#clip0_17011_16132)">
<path d="M49.6393 40.4132H90.1139L69.984 20.2835L49.6393 40.4132Z" fill="#7BB51C"/>
<path d="M48.866 39.4233L52.0193 36.3471L50.969 35.2699L48.9884 37.2029L45.4993 33.6256L44.3263 34.77L48.866 39.4233Z" fill="black"/>
<path d="M52.7115 35.6465L55.9425 32.4934L55.0552 31.5845L53.0036 33.5858L52.0184 32.5758L53.6625 30.9718L52.7339 30.0208L51.0899 31.6239L50.2459 30.7588L52.23 28.8227L51.3432 27.914L48.1224 31.0566L52.7115 35.6465Z" fill="black"/>
<path d="M63.287 20.699C61.9839 19.3632 59.7234 19.523 58.6348 20.5853C57.5459 21.6477 56.9902 23.7659 58.5279 25.3421C60.2169 27.0732 62.2264 26.4444 63.3153 25.3827C64.9208 23.8164 64.3493 21.7879 63.287 20.699ZM62.3293 24.4679C61.6085 25.1712 60.7273 24.9804 59.7205 23.9482C58.8744 23.081 58.9252 22.2098 59.5405 21.6094C59.9636 21.1966 60.8229 20.8273 61.8451 21.8753C63.0115 23.0708 63.05 23.7647 62.3293 24.4679Z" fill="black"/>
<path d="M66.9212 21.8083L68.1133 20.6449L66.32 18.8069L65.2465 14.3409L63.8801 15.6743L64.5909 18.208L62.1893 17.3236L60.9009 18.5805L64.9953 19.8952L66.9212 21.8083Z" fill="black"/>
<path d="M60.5655 28.0163C60.5655 28.0163 57.6642 27.0264 57.5263 27.0504C57.4816 27.0577 58.1495 25.2804 56.649 24.4928C56.649 24.4928 55.5355 23.89 54.4212 24.9024L52.0462 27.2429L56.6247 31.8539L57.836 30.6721L55.3585 28.1332L59.3635 29.189L60.5655 28.0163ZM56.0719 27.3832C55.3988 28.0388 55.3079 28.0905 55.3079 28.0905C55.3079 28.0905 54.2526 27.0089 54.2152 26.9706C54.1778 26.9323 54.9699 26.2534 55.0947 26.1315C55.1475 26.0798 55.6407 25.7581 56.0489 26.1762C56.0489 26.1762 56.7448 26.7264 56.0719 27.3832Z" fill="black"/>
<path d="M66.5513 15.2209L65.492 14.1527L70.1169 9.56543L71.6307 11.0914L69.9644 14.3707L73.3614 12.8365L74.8179 14.3052L70.1929 18.8925L69.0765 17.7671L71.5179 15.3459L68.1781 16.8611L67.4877 16.1649L69.04 12.8283L66.5513 15.2209Z" fill="black"/>
<path d="M74.5818 23.3174L71.375 20.0846L76.0003 15.4973L79.2162 18.7397L78.2818 19.6665L76.267 17.6353L75.5135 18.3824L77.1026 19.9846L76.1297 20.9494L74.5503 19.3568L73.5394 20.3592L75.5352 22.3713L74.5818 23.3174Z" fill="black"/>
<path d="M85.1562 24.7285L86.3479 25.9305L82.8481 29.4014L84.8059 31.3747L83.6804 32.4917L80.5309 29.3161L85.1562 24.7285Z" fill="black"/>
<path d="M84.5128 33.3311L89.1381 28.7438L90.3015 29.9165L85.6762 34.5035L84.5128 33.3311Z" fill="black"/>
<path d="M87.7854 36.6311L86.6973 35.534L91.3229 30.947L92.9027 32.5387L91.5529 37.3016L94.6145 34.2648L95.6739 35.333L91.0489 39.92L89.6675 38.5281L90.8569 33.528L87.7854 36.6311Z" fill="black"/>
<path d="M83.066 22.6212L80.2568 19.7886L75.6219 24.3665L76.8137 25.5679L79.3406 23.0617L78.4311 27.1988L79.6512 28.4291C79.6512 28.4291 80.613 25.4698 80.6425 25.3465C80.6425 25.3465 81.6847 25.9206 82.8282 24.9374C82.8282 24.9374 83.925 23.8687 83.066 22.6212ZM81.3507 23.9628C81.3507 23.9628 80.7602 24.3592 80.2399 23.8348L79.4271 22.9764C79.4271 22.9764 80.4091 22.0023 80.5329 21.8793C80.5329 21.8793 81.2897 22.6425 81.3843 22.7377C81.4787 22.833 82.0753 23.2817 81.3507 23.9628Z" fill="black"/>
</g>
<defs>
<clipPath id="clip0_17011_16132">
<rect width="51.3476" height="30.8685" fill="white" transform="translate(44.3263 9.56543)"/>
</clipPath>
</defs>
</svg>
