<svg width="284" height="284" viewBox="0 0 284 284" fill="none" xmlns="http://www.w3.org/2000/svg">
<g clip-path="url(#clip0_145_64)">
<path d="M283.5 0.25H0V283.75H283.5V0.25Z" fill="#FF7900"/>
<path d="M111.2 256.25C107.2 258.85 102.8 260.15 98.2 260.15C90.8 260.15 86.5 255.25 86.5 248.65C86.5 239.85 94.6 235.15 111.3 233.25V231.05C111.3 228.15 109.1 226.55 105.1 226.55C101.1 226.55 97.8 228.15 95.5 231.05L88.5 227.05C92.2 221.95 97.8 219.35 105.3 219.35C115.6 219.35 121.4 223.85 121.4 231.05C121.4 231.05 121.4 259.55 121.4 259.65H112.2L111.2 256.25ZM96.6 247.95C96.6 250.55 98.3 253.05 101.3 253.05C104.6 253.05 107.7 251.65 110.9 248.85V239.55C101.2 240.85 96.6 243.25 96.6 247.95Z" fill="white"/>
<path d="M129.5 221.35L138.1 220.15L139 224.85C143.9 221.35 147.7 219.45 152.6 219.45C160.7 219.45 164.9 223.75 164.9 232.25V259.75H154.5V234.05C154.5 229.25 153.2 227.05 149.5 227.05C146.4 227.05 143.3 228.45 139.8 231.45V259.75H129.5V221.35Z" fill="white"/>
<path d="M233.7 260.45C222.1 260.45 215.1 252.95 215.1 239.95C215.1 226.85 222.1 219.35 233.5 219.35C244.9 219.35 251.7 226.55 251.7 239.45C251.7 240.15 251.6 240.85 251.6 241.45H225.3C225.4 248.95 228.5 252.65 234.6 252.65C238.5 252.65 241.1 251.05 243.5 247.55L251.1 251.75C247.8 257.45 241.8 260.45 233.7 260.45ZM241.5 234.75C241.5 229.45 238.5 226.35 233.6 226.35C228.9 226.35 226 229.35 225.6 234.75H241.5Z" fill="white"/>
<path d="M34.8999 260.85C24.5999 260.85 15.3999 254.35 15.3999 240.05C15.3999 225.75 24.6999 219.25 34.8999 219.25C45.1999 219.25 54.3999 225.75 54.3999 240.05C54.3999 254.35 45.1999 260.85 34.8999 260.85ZM34.8999 227.95C27.1999 227.95 25.6999 234.95 25.6999 239.95C25.6999 245.05 27.0999 251.95 34.8999 251.95C42.6999 251.95 44.0999 244.95 44.0999 239.95C44.0999 234.95 42.5999 227.95 34.8999 227.95Z" fill="white"/>
<path d="M61.5 220.25H71.4V224.85C73.3 222.35 77.9 219.35 82.3 219.35C82.7 219.35 83.2 219.35 83.6 219.45V229.15C83.4 229.15 83.3 229.15 83.1 229.15C78.6 229.15 73.6 229.85 72.1 233.35V259.55H61.5V220.25Z" fill="white"/>
<path d="M190.3 251.25C198.2 251.15 198.8 243.15 198.8 237.95C198.8 231.75 195.8 226.75 190.2 226.75C186.5 226.75 182.3 229.45 182.3 238.35C182.4 243.25 182.7 251.25 190.3 251.25ZM208.9 220.15V257.55C208.9 264.15 208.4 274.95 189.6 275.15C181.8 275.15 174.7 272.05 173.2 265.35L183.4 263.75C183.8 265.65 185 267.65 190.8 267.65C196.2 267.65 198.8 265.05 198.8 258.95V254.35L198.7 254.25C197.1 257.15 194.5 259.95 188.5 259.95C179.3 259.95 172.1 253.55 172.1 240.25C172.1 227.05 179.6 219.65 188 219.65C195.9 219.65 198.8 223.25 199.5 225.15H199.4L200.3 220.45H208.9V220.15Z" fill="white"/>
<path d="M255.7 207.05H251.6V218.35H249.4V207.05H245.3V205.35H255.6V207.05H255.7ZM272.7 218.35H270.5V207.45H270.4L266.1 218.35H264.7L260.4 207.45H260.3V218.35H258.1V205.35H261.4L265.3 215.25L269.1 205.35H272.4V218.35H272.7Z" fill="white"/>
</g>
<defs>
<clipPath id="clip0_145_64">
<rect width="283.5" height="283.5" fill="white" transform="translate(0 0.25)"/>
</clipPath>
</defs>
</svg>
