<svg width="220" height="253" viewBox="0 0 220 253" fill="none" xmlns="http://www.w3.org/2000/svg">
<path d="M109.926 252C92.0363 244.82 57.0363 227.36 30.6963 193.21C-16.0837 132.42 1.39629 59.92 13.3663 18.74C32.1363 10.69 63.8063 0 109.926 0C156.046 0 187.756 10.69 206.486 18.74C218.456 59.92 235.936 132.48 189.156 193.21C162.836 227.4 127.776 244.86 109.926 252.04" fill="#5C2D91"/>
<path d="M109.926 10.21C142.256 10.21 171.036 15.67 197.736 26.85C203.736 47.74 209.596 72.51 209.616 99.49C209.616 133.01 200.156 162.39 181.416 186.79C158.036 217.21 127.256 233.39 109.926 240.65C92.5463 233.43 61.7963 217.21 38.4363 186.8C19.7163 162.48 10.2163 133.02 10.2363 99.5C10.2363 72.42 16.1563 47.74 22.1163 26.86C48.8363 15.67 77.6263 10.21 109.926 10.21ZM109.926 5.3C66.0363 5.42 35.9263 15.55 18.0363 23.21C6.66629 62.56 -9.96371 131.79 34.5363 189.78C59.5363 222.42 92.8963 239.08 109.926 245.96C126.926 239.08 160.276 222.49 185.316 189.78C229.816 131.78 213.186 62.56 201.796 23.24C183.946 15.55 153.796 5.42 109.926 5.42" fill="white"/>
<path d="M125.576 125.85V131.79L123.376 131.39C123.224 132.832 122.586 134.179 121.566 135.21C120.756 135.82 117.956 136.78 116.906 138.21C116.416 137.09 113.816 136.95 113.816 136.95L109.896 141.57L106.176 137.01C106.176 137.01 103.556 137.15 103.086 138.29C101.946 136.85 99.2963 135.93 98.4263 135.29C97.41 134.277 96.7712 132.947 96.6163 131.52L94.3463 131.94V125.85C94.3463 124.97 94.6663 124.33 95.9663 123.5C97.5889 122.573 99.3094 121.828 101.096 121.28C103.993 120.577 106.966 120.241 109.946 120.28C112.93 120.242 115.906 120.578 118.806 121.28C120.603 121.827 122.333 122.572 123.966 123.5C125.266 124.33 125.586 124.96 125.586 125.85M174.036 113.11C169.782 114.349 165.231 114.088 161.146 112.37C162.579 114.241 163.734 116.309 164.576 118.51C166.386 122.82 171.206 127.93 175.246 126.8C177.056 126.31 171.746 131.13 165.376 131.01C161.085 130.885 156.934 129.454 153.476 126.91C154.183 129.004 154.607 131.184 154.736 133.39C155.226 138.05 158.346 144.33 162.516 144.39C164.326 144.39 157.896 147.5 151.826 145.51C147.517 144.032 143.783 141.232 141.156 137.51C141.32 139.987 141.115 142.474 140.546 144.89C139.546 149.49 140.656 156.41 144.626 157.78C146.436 158.38 139.206 159.35 134.106 155.63C130.526 153.032 127.834 149.393 126.396 145.21C125.899 147.439 125.066 149.58 123.926 151.56C121.666 155.68 120.656 162.56 124.056 165.08C125.516 166.15 118.316 165.08 114.456 159.93C112.599 157.612 111.089 155.034 109.976 152.28C108.863 155.034 107.354 157.612 105.496 159.93C101.616 165 94.4163 166.14 95.8963 165.08C99.2863 162.61 98.2763 155.67 96.0263 151.56C94.8717 149.574 94.019 147.427 93.4963 145.19C92.0744 149.365 89.4039 153.003 85.8463 155.61C80.6663 159.33 73.6063 158.35 75.3363 157.76C79.3363 156.39 80.3363 149.47 79.4163 144.87C78.8391 142.455 78.6334 139.967 78.8063 137.49C76.1795 141.212 72.4458 144.012 68.1363 145.49C62.0363 147.51 55.5863 144.46 57.4063 144.41C61.5963 144.3 64.6263 138.02 65.1863 133.41C65.3071 131.202 65.731 129.022 66.4463 126.93C62.9867 129.471 58.8368 130.901 54.5463 131.03C48.1763 131.16 42.9063 126.34 44.6563 126.82C48.6563 127.96 53.5163 122.82 55.3463 118.53C56.1888 116.329 57.344 114.261 58.7763 112.39C54.6916 114.108 50.1407 114.369 45.8863 113.13C39.7563 111.28 36.1263 105.21 37.6563 106.21C41.2663 108.47 47.2763 105.21 50.2963 101.57C51.8395 99.5929 53.6658 97.8542 55.7163 96.41C51.1733 96.6665 46.6663 95.4724 42.8463 93C37.5163 89.5 35.8463 82.55 37.0663 84C39.7563 87.21 46.6163 85.81 50.5663 83.19C52.4778 81.9031 54.5618 80.8931 56.7563 80.19C52.5218 79.0158 48.7447 76.5814 45.9263 73.21C41.8663 68.21 42.3163 61.13 43.0363 62.81C44.6563 66.69 51.6463 67.29 56.1563 66.04C58.4305 65.3767 60.7874 65.04 63.1563 65.04C59.3717 62.6697 56.4211 59.1774 54.7163 55.05C52.3163 49.13 54.8963 42.5 55.0363 44.31C55.4763 48.48 62.0363 51.06 66.7463 51.21C68.7917 51.2047 70.8356 51.3249 72.8663 51.57C70.3602 48.3508 68.8142 44.4893 68.4063 40.43C67.8663 34.06 72.3063 28.5 72.0163 30.28C71.1663 34.38 76.5863 38.84 81.0163 40.35C83.15 40.9781 85.2467 41.7259 87.2963 42.59C85.7749 38.6882 85.4273 34.4268 86.2963 30.33C87.6863 24.1 93.5163 20.13 92.7063 21.72C90.7063 25.33 94.5163 31.25 98.2463 34.05C99.1263 34.7 100.056 35.37 100.896 36.13C106.316 27.63 109.416 18.93 110.086 18.93C110.756 18.93 113.696 27.58 119.086 36.12C119.956 35.38 120.896 34.73 121.706 34.12C125.476 31.32 129.286 25.45 127.246 21.79C126.366 20.2 132.246 24.17 133.656 30.4C134.525 34.4968 134.178 38.7582 132.656 42.66C134.736 41.7623 136.866 40.9876 139.036 40.34C143.476 38.82 148.896 34.34 148.036 30.27C147.656 28.46 152.096 34.04 151.536 40.42C151.132 44.4737 149.594 48.3314 147.096 51.55C149.127 51.3116 151.171 51.1981 153.216 51.21C157.906 51.07 164.476 48.48 164.876 44.31C165.056 42.5 167.636 49.13 165.236 55.05C163.511 59.1794 160.548 62.6728 156.756 65.05C159.129 65.0708 161.486 65.4311 163.756 66.12C168.286 67.37 175.276 66.77 176.896 62.89C177.586 61.15 178.096 68.21 174.036 73.21C171.221 76.5887 167.443 79.0303 163.206 80.21C165.401 80.9131 167.485 81.9231 169.396 83.21C173.396 85.74 180.226 87.21 182.896 84.02C184.066 82.61 182.446 89.56 177.116 93.02C173.302 95.4792 168.807 96.666 164.276 96.41C166.323 97.859 168.149 99.5971 169.696 101.57C172.696 105.18 178.696 108.47 182.336 106.21C183.866 105.21 180.246 111.36 174.106 113.11M75.2463 54.31C76.638 53.8381 78.1113 53.6544 79.5763 53.77C82.8627 53.932 86.0815 54.7623 89.0363 56.21C93.6963 58.29 97.3263 54.01 94.3663 51.95H94.4563C101.276 52.26 106.736 55 109.906 59.35C113.086 55 118.556 52.24 125.416 51.95V52.04C122.566 54.21 126.196 58.37 130.866 56.31C133.833 54.8502 137.064 54.0033 140.366 53.82C141.781 53.7184 143.203 53.8846 144.556 54.31C144.786 54.31 144.806 54.31 144.556 54.09C141.277 52.0486 137.36 51.2901 133.556 51.96C131.746 51.58 126.556 49.61 129.346 44.74C129.361 44.7235 129.369 44.7021 129.369 44.68C129.369 44.6579 129.361 44.6365 129.346 44.62H129.276C125.216 46.43 119.776 46.95 117.816 49.48C113.806 46.21 110.596 37.41 110.036 36.83C109.526 37.52 106.226 46.27 102.236 49.56C100.286 47.05 94.9063 46.45 90.8463 44.74C90.7363 44.74 90.6263 44.74 90.6863 44.85C93.3963 49.8 88.1763 51.76 86.4663 52.07C82.5613 51.3083 78.513 52.0743 75.1563 54.21C74.9963 54.32 75.0663 54.41 75.1563 54.35M115.286 103.35C116.006 102.92 118.206 103.35 118.896 102.9C120.693 101.907 122.052 100.276 122.706 98.33C122.706 98.19 122.706 98.13 122.596 98.2C121.679 98.7892 120.617 99.1144 119.526 99.14C118.349 98.8075 117.138 98.6063 115.916 98.54C113.746 98.54 113.226 99.61 109.916 99.61C106.596 99.61 106.086 98.54 103.916 98.54C102.695 98.6063 101.484 98.8075 100.306 99.14C99.2442 99.1109 98.209 98.8003 97.3063 98.24C97.1763 98.15 97.1063 98.24 97.1463 98.24C97.8321 100.249 99.2642 101.918 101.146 102.9C101.756 103.26 103.966 102.9 104.666 103.35C105.366 103.8 104.666 105.16 105.386 105.62C107.51 106.81 109.122 108.739 109.916 111.04C109.921 111.071 109.937 111.099 109.961 111.119C109.985 111.139 110.015 111.15 110.046 111.15C110.076 111.146 110.104 111.133 110.127 111.114C110.15 111.094 110.167 111.069 110.176 111.04C110.963 108.741 112.568 106.811 114.686 105.62C115.466 105.06 114.686 103.81 115.406 103.35M97.7063 90.52C97.6109 90.8481 97.5374 91.1822 97.4863 91.52C97.4863 91.75 97.4863 91.81 97.6263 91.52C98.4063 89.95 101.096 84.52 102.046 82.82C103.856 79.75 104.606 77.82 104.126 77.12C98.5463 82.91 94.9163 74.18 90.4063 73.51C87.1563 73 86.1063 73.35 83.2763 72.91C83.5432 74.343 84.1236 75.6992 84.9759 76.8817C85.8281 78.0642 86.9313 79.0436 88.2063 79.75C93.6263 82.58 96.4063 81.27 98.7663 82.48C100.336 83.29 98.3663 88.58 97.6963 90.48M131.826 79.69C135.436 77.88 135.926 75.09 136.666 72.85C133.836 73.28 132.876 72.94 129.666 73.45C125.156 74.14 121.526 82.87 115.946 77.06C115.436 77.78 116.286 79.7 118.026 82.76C119.026 84.57 121.796 90.16 122.506 91.57C122.506 91.77 122.636 91.73 122.616 91.57C122.57 91.1845 122.493 90.8033 122.386 90.43C121.696 88.52 119.746 83.21 121.316 82.43C123.676 81.22 126.556 82.54 131.876 79.7M138.016 100.7C140.196 96.02 147.276 93.06 153.286 92.88V92.76C150.584 91.285 147.555 90.5147 144.476 90.52C147.216 85.86 148.476 82.14 147.566 74.4C148.747 72.7311 149.56 70.8304 149.951 68.8238C150.343 66.8172 150.303 64.7503 149.836 62.76C149.836 62.56 149.656 62.54 149.616 62.76C149.172 64.8133 148.311 66.7534 147.086 68.46V68.61C146.931 68.7921 146.734 68.9333 146.511 69.0212C146.289 69.1091 146.048 69.1411 145.811 69.1142C145.573 69.0873 145.346 69.0024 145.148 68.8671C144.951 68.7317 144.79 68.55 144.68 68.3378C144.569 68.1257 144.513 67.8897 144.515 67.6505C144.517 67.4114 144.578 67.1764 144.692 66.9662C144.806 66.7561 144.97 66.5772 145.17 66.4454C145.369 66.3135 145.598 66.2327 145.836 66.21C143.526 61.97 139.486 62.49 138.756 60.58C138.664 60.3265 138.636 60.0543 138.675 59.7875C138.713 59.5206 138.817 59.2673 138.976 59.05C136.626 58.97 134.786 60.43 135.816 62.21C136.446 63.21 138.816 63.56 141.556 65.64C139.496 66.64 141.556 68.69 142.116 70.19C144.052 73.8501 144.609 78.0837 143.686 82.12C142.291 87.8904 138.77 92.9221 133.826 96.21C133.826 97.02 133.936 100.04 128.696 105.6C128.066 106.25 129.486 105.92 131.056 105.09C131.471 106.81 131.732 108.564 131.836 110.33C128.793 110.045 125.73 110.045 122.686 110.33C121.686 110.47 123.496 111.23 124.496 111.33C126.928 111.701 129.338 112.202 131.716 112.83C131.68 113.773 131.473 114.701 131.106 115.57C127.583 114.451 123.954 113.701 120.276 113.33C119.336 113.33 120.636 114.16 121.486 114.4C124.397 115.477 127.251 116.702 130.036 118.07C129.192 119.661 128.04 121.069 126.646 122.21C124.733 121.112 122.725 120.188 120.646 119.45C119.436 119.02 118.096 118.45 116.786 117.93C114.546 116.79 110.786 115.47 110.196 113.99C109.636 115.4 106.196 116.68 103.916 117.78C102.476 118.38 101.006 118.97 99.6963 119.44C97.6238 120.185 95.6169 121.102 93.6963 122.18C92.3102 121.027 91.1679 119.61 90.3363 118.01C93.1263 116.662 95.9834 115.457 98.8963 114.4C99.7463 114.17 101.046 113.28 100.086 113.33C96.4074 113.704 92.7777 114.461 89.2563 115.59C88.9089 114.708 88.703 113.776 88.6463 112.83C91.0224 112.188 93.4329 111.68 95.8663 111.31C96.8663 111.18 98.5963 110.43 97.6763 110.31C94.6263 110.024 91.5563 110.024 88.5063 110.31C88.6055 108.543 88.87 106.788 89.2963 105.07C90.8863 105.92 92.2963 106.24 91.6963 105.59C86.4563 100.03 86.6463 97.01 86.5663 96.2C81.6029 92.9056 78.0781 87.8471 76.7063 82.05C75.7782 78.016 76.3282 73.7829 78.2563 70.12C78.9063 68.62 80.8763 66.51 78.8163 65.57C81.6063 63.51 83.9463 63.21 84.5663 62.21C85.5663 60.4 83.7763 59 81.4263 59.1C81.5851 59.3179 81.6866 59.5722 81.7215 59.8395C81.7565 60.1068 81.7237 60.3786 81.6263 60.63C80.9263 62.56 76.8563 62.02 74.5463 66.28C74.9141 66.3055 75.2581 66.4712 75.5074 66.7428C75.7567 67.0145 75.8923 67.3714 75.8863 67.74C75.8876 67.9334 75.8505 68.1252 75.7771 68.3041C75.7037 68.4831 75.5955 68.6456 75.4587 68.7824C75.3219 68.9192 75.1593 69.0274 74.9804 69.1008C74.8015 69.1742 74.6097 69.2113 74.4163 69.21C74.1498 69.2072 73.889 69.1334 73.6605 68.9963C73.432 68.8592 73.2442 68.6638 73.1163 68.43C71.8883 66.7127 71.0333 64.7575 70.6063 62.69C70.6063 62.55 70.4663 62.69 70.4263 62.78C69.9774 64.7839 69.961 66.8604 70.3783 68.8711C70.7957 70.8818 71.637 72.7803 72.8463 74.44C72.0363 82.11 73.2063 85.83 75.9363 90.49C72.8412 90.5206 69.8039 91.3324 67.1063 92.85C73.1063 92.99 80.2663 95.97 82.4363 100.67C77.5963 99.06 72.7563 102.13 68.4363 105.62C74.0663 103.81 81.4363 104.68 84.9763 108.62C79.8663 108.62 77.0363 112.88 73.9763 117.92V118.06C77.5633 116.249 81.5511 115.379 85.5663 115.53C80.9763 124.03 87.6963 131.78 96.6463 137.95C101.398 140.881 105.858 144.26 109.966 148.04C114.101 144.276 118.686 141.038 123.616 138.4C132.636 132.21 139.336 124.48 134.746 115.94C138.76 115.8 142.746 116.67 146.336 118.47V118.34C143.246 113.34 140.416 109.04 135.336 109.11C138.946 105.19 146.166 104.36 151.836 106.04V105.94C147.536 102.47 142.836 99.44 137.896 101.03" fill="#EBCD7D"/>
<path d="M101.116 212.79V195.82H104.206V212.79H101.116ZM112.236 212.79V198.91H107.376V195.82H119.686L121.096 198.91H115.396V212.79H112.236ZM128.426 212.79V205.68L122.956 195.82H126.476L130.016 202.44L133.556 195.82H137.056L131.586 205.68V212.79H128.426ZM57.1063 191.21C55.3739 191.198 53.6839 190.673 52.2494 189.702C50.8148 188.731 49.7001 187.357 49.0458 185.752C48.3915 184.148 48.227 182.386 48.5729 180.689C48.9189 178.991 49.7598 177.434 50.9897 176.214C52.2195 174.994 53.7832 174.166 55.4834 173.833C57.1836 173.501 58.9442 173.679 60.5431 174.346C62.1419 175.013 63.5074 176.139 64.4672 177.581C65.427 179.023 65.9382 180.718 65.9363 182.45C65.935 183.606 65.7052 184.75 65.2601 185.817C64.8151 186.884 64.1635 187.852 63.3429 188.666C62.5223 189.48 61.5488 190.124 60.4785 190.561C59.4082 190.997 58.2622 191.218 57.1063 191.21ZM57.1063 176.77C55.9711 176.756 54.8574 177.079 53.9059 177.699C52.9544 178.318 52.2079 179.205 51.7607 180.249C51.3136 181.292 51.1859 182.445 51.3938 183.561C51.6017 184.677 52.1359 185.706 52.9287 186.519C53.7216 187.331 54.7376 187.89 55.8482 188.125C56.9589 188.36 58.1142 188.261 59.1683 187.839C60.2223 187.418 61.1277 186.693 61.7699 185.757C62.4121 184.821 62.7624 183.715 62.7763 182.58V182.37C62.7816 180.86 62.1875 179.41 61.1245 178.337C60.0614 177.265 58.6163 176.658 57.1063 176.65M162.786 191.21C161.054 191.198 159.364 190.673 157.929 189.702C156.495 188.731 155.38 187.357 154.726 185.752C154.072 184.148 153.907 182.386 154.253 180.689C154.599 178.991 155.44 177.434 156.67 176.214C157.9 174.994 159.463 174.166 161.163 173.833C162.864 173.501 164.624 173.679 166.223 174.346C167.822 175.013 169.187 176.139 170.147 177.581C171.107 179.023 171.618 180.718 171.616 182.45C171.615 183.606 171.385 184.75 170.94 185.817C170.495 186.884 169.844 187.852 169.023 188.666C168.202 189.48 167.229 190.124 166.159 190.561C165.088 190.997 163.942 191.218 162.786 191.21ZM162.786 176.77C161.651 176.76 160.538 177.087 159.589 177.71C158.64 178.332 157.896 179.222 157.453 180.267C157.009 181.312 156.885 182.465 157.097 183.581C157.309 184.696 157.847 185.723 158.643 186.533C159.438 187.343 160.456 187.898 161.568 188.13C162.679 188.361 163.834 188.257 164.887 187.832C165.939 187.407 166.842 186.679 167.481 185.74C168.12 184.802 168.466 183.695 168.476 182.56V182.36C168.479 181.611 168.334 180.868 168.049 180.175C167.764 179.482 167.346 178.851 166.817 178.32C166.289 177.789 165.661 177.367 164.969 177.079C164.277 176.79 163.536 176.641 162.786 176.64M87.5363 190.84V173.92H90.6463V187.93H99.0063L97.5563 190.84H87.5363ZM133.106 190.93L122.196 180.51V190.89L119.146 184.5V173.36L130.016 183.53V173.92H133.106V190.93ZM141.846 190.9H136.936V173.9H141.936C143.04 173.827 144.147 173.974 145.194 174.331C146.241 174.688 147.207 175.248 148.036 175.98C149.384 177.158 150.326 178.73 150.73 180.473C151.133 182.217 150.978 184.043 150.285 185.693C149.592 187.343 148.398 188.733 146.87 189.666C145.343 190.599 143.561 191.027 141.776 190.89M139.966 187.89H141.876C142.676 187.978 143.486 187.891 144.249 187.636C145.012 187.38 145.711 186.962 146.296 186.41C147.296 185.286 147.848 183.834 147.848 182.33C147.848 180.826 147.296 179.374 146.296 178.25C145.708 177.73 145.016 177.339 144.267 177.103C143.517 176.867 142.727 176.791 141.946 176.88H140.036L139.966 187.89ZM80.4263 190.9L73.3363 182.34H74.6563C75.3855 182.368 76.1156 182.324 76.8363 182.21C77.4217 182.061 77.9351 181.708 78.2849 181.215C78.6347 180.723 78.7982 180.122 78.7463 179.52C78.7398 179.07 78.6057 178.631 78.3597 178.254C78.1136 177.877 77.7657 177.577 77.3563 177.39C76.4867 177.059 75.5533 176.929 74.6263 177.01H72.8263V190.89H69.6463V173.89H74.8063C76.191 173.804 77.5776 174.026 78.8663 174.54C79.8039 174.991 80.592 175.702 81.1364 176.589C81.6807 177.475 81.9584 178.5 81.9363 179.54C81.945 180.539 81.667 181.519 81.1352 182.365C80.6034 183.21 79.8403 183.885 78.9363 184.31L84.3563 190.88L80.4263 190.9ZM118.306 190.84H115.036L112.916 186.22H108.676L110.016 183.31H111.586L110.016 180.02L104.906 190.84H101.656L110.016 173.38L118.306 190.84ZM97.2863 207.29C96.6332 208.35 95.652 209.168 94.4916 209.62C93.3313 210.072 92.0552 210.133 90.8571 209.793C89.659 209.454 88.6044 208.733 87.8535 207.74C87.1025 206.746 86.6961 205.535 86.6961 204.29C86.6961 203.045 87.1025 201.834 87.8535 200.84C88.6044 199.847 89.659 199.126 90.8571 198.787C92.0552 198.447 93.3313 198.508 94.4916 198.96C95.652 199.412 96.6332 200.23 97.2863 201.29V196.98C96.1462 196.221 94.8441 195.739 93.4844 195.574C92.1247 195.409 90.7452 195.564 89.4565 196.028C88.1677 196.492 87.0054 197.251 86.0629 198.245C85.1203 199.239 84.4236 200.439 84.0286 201.751C83.6336 203.062 83.5513 204.448 83.7882 205.797C84.0252 207.146 84.5748 208.421 85.3931 209.519C86.2114 210.618 87.2756 211.509 88.5004 212.122C89.7252 212.735 91.0766 213.053 92.4463 213.05C94.1638 213.05 95.8447 212.554 97.2863 211.62V207.29Z" fill="white"/>
</svg>
