<svg width="140" height="50" viewBox="0 0 140 50" fill="none" xmlns="http://www.w3.org/2000/svg">
<path fill-rule="evenodd" clip-rule="evenodd" d="M36.547 17.3072C34.6904 17.4551 32.966 18.2651 31.7025 19.5828C30.4577 20.8811 29.7904 22.3166 29.5712 24.1676C29.2251 27.0909 30.7415 30.2014 33.2062 31.6233C35.2083 32.7785 37.791 33.0549 39.9998 32.3506C40.2711 32.2641 40.493 32.1614 40.493 32.1224C40.493 32.0834 40.0506 31.6149 39.5098 31.0813L38.5265 30.1112L37.6666 30.1379C36.1446 30.1851 35.0298 29.7776 34.0447 28.814C32.9242 27.7178 32.4652 26.5984 32.4633 24.9565C32.4613 23.401 32.976 22.1776 34.0653 21.1482C35.9885 19.3307 39.0039 19.3845 40.8739 21.2695C42.1222 22.5279 42.6618 24.6046 42.1995 26.3721L42.0368 26.9943L42.6029 27.5701C42.9144 27.8868 43.3541 28.3428 43.5803 28.5832C43.8065 28.8236 44.0461 29.0204 44.1127 29.0204C44.2637 29.0204 44.7558 27.9543 45.015 27.0657C45.1678 26.542 45.2087 26.0733 45.2036 24.9051C45.1978 23.5632 45.1688 23.3306 44.9154 22.5902C44.21 20.5295 42.9379 19.0248 41.1436 18.1282C39.6689 17.3914 38.3805 17.1612 36.547 17.3072ZM104.773 17.3069C103.393 17.4432 102.107 18.0988 101.344 19.0554C100.601 19.9868 100.335 20.9613 100.517 22.0901C100.794 23.8031 101.869 24.7305 104.965 25.9236C105.556 26.1515 106.24 26.4545 106.486 26.5969C107.941 27.4418 108.026 29.0226 106.659 29.8187C106.219 30.0747 106.083 30.1001 105.188 30.0935C103.981 30.0848 103.305 29.8526 102.308 29.105L101.626 28.5935L100.803 29.3985C99.6611 30.5172 99.674 30.472 100.351 30.9979C100.865 31.3975 101.964 31.9997 102.737 32.3057C103.707 32.69 105.483 32.8321 106.559 32.6114C108.035 32.3086 109.522 31.2162 110.132 29.9869C110.391 29.4633 110.437 29.2384 110.467 28.3382C110.498 27.4276 110.471 27.2186 110.253 26.6855C109.928 25.8877 109.534 25.4037 108.771 24.8656C108.06 24.3644 107.747 24.2115 105.834 23.4306C104.361 22.829 103.834 22.5008 103.518 21.9867C103.201 21.4708 103.274 21.0429 103.773 20.497C104.473 19.7319 106.16 19.6097 107.519 20.2256C107.829 20.3665 108.113 20.5279 108.148 20.5843C108.313 20.849 108.605 20.6237 109.212 19.7631C109.569 19.2572 109.861 18.7763 109.861 18.6946C109.861 18.6128 109.604 18.4024 109.29 18.227C107.992 17.501 106.299 17.1562 104.773 17.3069ZM47.9943 22.6674C48.0267 27.2353 48.0521 27.9031 48.2122 28.4031C48.9003 30.5518 50.2125 31.8358 52.3832 32.4841C53.2414 32.7404 55.5388 32.7472 56.4544 32.4961C58.6787 31.8861 60.1469 30.4006 60.7035 28.1974C60.8807 27.4961 60.8984 26.9754 60.8984 22.4873V17.5489L59.4706 17.5203L58.0427 17.4917L58.0391 22.2015C58.0345 28.0236 57.9979 28.2604 56.9526 29.215C56.1669 29.9326 55.6838 30.1007 54.4082 30.1007C53.3524 30.1007 53.2964 30.089 52.6428 29.7325C51.9213 29.339 51.2885 28.642 51.062 27.9916C50.9726 27.7348 50.927 26.1783 50.9033 22.5645L50.87 17.4974H49.4138H47.9576L47.9943 22.6674ZM68.4561 17.6261C68.401 17.6968 68.1335 18.2871 67.8617 18.9378C67.5899 19.5886 67.261 20.3535 67.1307 20.6378C67.0004 20.9219 66.7208 21.5701 66.5092 22.0781C66.2976 22.5861 65.9884 23.2943 65.822 23.652C65.6556 24.0096 65.5195 24.3591 65.5195 24.4287C65.5195 24.4983 65.4797 24.5993 65.4311 24.653C65.3824 24.7068 65.1207 25.2832 64.8494 25.9339C64.578 26.5847 64.2496 27.3494 64.1195 27.6334C63.9894 27.9172 63.6162 28.7943 63.2904 29.5823C62.6565 31.115 62.3409 31.8447 62.188 32.1312C61.9937 32.4954 62.0744 32.5185 63.5338 32.5185C65.1276 32.5185 65.0851 32.5352 65.3658 31.7983C65.4629 31.5437 65.6146 31.1739 65.7032 30.9765C65.7918 30.7791 65.9889 30.3162 66.1413 29.9476L66.4185 29.2777L69.4443 29.2504L72.4702 29.2231L72.625 29.4573C72.7102 29.586 73.0207 30.2696 73.3149 30.9764C73.6091 31.6831 73.8971 32.3192 73.955 32.3899C74.083 32.5464 76.7916 32.5741 76.8878 32.4198C76.9217 32.3655 76.905 32.2382 76.8508 32.1369C76.7966 32.0356 76.6824 31.7906 76.5972 31.5925C76.512 31.3945 76.0922 30.4222 75.6642 29.432C75.2364 28.4417 74.6434 27.0528 74.3465 26.3455C74.0496 25.6381 73.6998 24.8269 73.5694 24.5426C73.439 24.2585 73.1588 23.6103 72.9468 23.1023C72.7348 22.5943 72.4724 21.9844 72.3635 21.7471C72.2546 21.5097 72.1655 21.2911 72.1655 21.2614C72.1655 21.2317 72.053 20.9629 71.9155 20.6642C71.778 20.3654 71.4921 19.7043 71.2803 19.195C71.0683 18.6858 70.8061 18.0955 70.6974 17.8833L70.4998 17.4974H69.5281C68.8735 17.4974 68.5237 17.5394 68.4561 17.6261ZM78.9616 17.6295C78.9335 17.7022 78.9232 21.0703 78.9389 25.1144L78.9673 32.4671H82.2384C85.5545 32.4671 85.8774 32.4387 87.1191 32.0375C88.2534 31.671 89.6334 30.6431 90.3737 29.6135C92.2484 27.0059 92.3896 23.6437 90.7386 20.9318C89.6638 19.1666 88.0145 18.0512 85.8814 17.6467C84.8096 17.4435 79.0392 17.4291 78.9616 17.6295ZM94.6437 17.6261C94.6163 17.6968 94.6062 21.0649 94.6209 25.1109L94.6478 32.4671H96.0497H97.4516L97.4783 24.9823L97.5049 17.4974H96.099C95.07 17.4974 94.6799 17.5319 94.6437 17.6261ZM84.8043 20.0832C86.311 20.3004 87.3866 20.9645 88.1703 22.1614C88.7553 23.0549 88.9296 23.7242 88.9252 25.0594C88.9218 26.0322 88.8828 26.2889 88.6475 26.8866C88.1225 28.2204 87.2849 29.1078 86.0807 29.6063C85.4384 29.872 85.3202 29.8858 83.6403 29.8902L81.875 29.895L81.848 25.0711C81.8285 21.595 81.8538 20.2082 81.9385 20.107C82.0871 19.9297 83.6492 19.9168 84.8043 20.0832ZM69.6757 22.5449C69.7137 22.6264 69.7988 22.7966 69.8649 22.9231C69.9308 23.0497 69.9848 23.197 69.9848 23.2504C69.9848 23.3038 70.1199 23.64 70.2851 23.9977C71.0563 25.6671 71.3606 26.4639 71.264 26.5597C71.2048 26.6183 70.4611 26.6477 69.459 26.6311C67.4915 26.5983 67.5212 26.6171 67.9536 25.6806C68.0998 25.364 68.2194 25.0864 68.2194 25.0638C68.2194 25.0414 68.3755 24.684 68.5664 24.2696C68.7572 23.8552 69.0232 23.2491 69.1575 22.9226C69.3954 22.3443 69.5346 22.2428 69.6757 22.5449ZM36.772 26.9612C36.791 27.017 38.0432 28.2902 39.5546 29.7905L42.3027 32.5185H44.1325C45.1388 32.5185 45.9936 32.4873 46.032 32.4493C46.0704 32.4112 44.8532 31.138 43.327 29.62L40.5522 26.8599H38.6448C37.438 26.8599 36.7501 26.8971 36.772 26.9612Z" fill="black"/>
</svg>
