<svg width="160" height="58" viewBox="0 0 160 58" fill="none" xmlns="http://www.w3.org/2000/svg">
<path fill-rule="evenodd" clip-rule="evenodd" d="M46.547 22.0211C44.6904 22.1689 42.966 22.9789 41.7025 24.2967C40.4577 25.595 39.7904 27.0305 39.5712 28.8815C39.2251 31.8047 40.7415 34.9152 43.2062 36.3372C45.2083 37.4924 47.791 37.7688 49.9998 37.0645C50.2711 36.9779 50.493 36.8753 50.493 36.8363C50.493 36.7973 50.0506 36.3287 49.5098 35.7952L48.5265 34.8251L47.6666 34.8517C46.1446 34.899 45.0298 34.4914 44.0447 33.5278C42.9242 32.4317 42.4652 31.3122 42.4633 29.6704C42.4613 28.1149 42.976 26.8915 44.0653 25.862C45.9885 24.0446 49.0039 24.0984 50.8739 25.9833C52.1222 27.2417 52.6618 29.3184 52.1995 31.086L52.0368 31.7081L52.6029 32.284C52.9144 32.6006 53.3541 33.0566 53.5803 33.2971C53.8065 33.5375 54.0461 33.7343 54.1127 33.7343C54.2637 33.7343 54.7558 32.6681 55.015 31.7795C55.1678 31.2558 55.2087 30.7872 55.2036 29.619C55.1978 28.277 55.1688 28.0444 54.9154 27.3041C54.21 25.2434 52.9379 23.7386 51.1436 22.8421C49.6689 22.1052 48.3805 21.8751 46.547 22.0211ZM114.773 22.0208C113.393 22.1571 112.107 22.8127 111.344 23.7693C110.601 24.7007 110.335 25.6752 110.517 26.8039C110.794 28.517 111.869 29.4444 114.965 30.6375C115.556 30.8654 116.24 31.1684 116.486 31.3108C117.941 32.1557 118.026 33.7365 116.659 34.5326C116.219 34.7886 116.083 34.814 115.188 34.8074C113.981 34.7986 113.305 34.5664 112.308 33.8189L111.626 33.3073L110.803 34.1124C109.661 35.2311 109.674 35.1859 110.351 35.7117C110.865 36.1113 111.964 36.7135 112.737 37.0196C113.707 37.4039 115.483 37.546 116.559 37.3253C118.035 37.0225 119.522 35.9301 120.132 34.7008C120.391 34.1771 120.437 33.9522 120.467 33.0521C120.498 32.1415 120.471 31.9325 120.253 31.3994C119.928 30.6016 119.534 30.1175 118.771 29.5794C118.06 29.0783 117.747 28.9254 115.834 28.1444C114.361 27.5429 113.834 27.2147 113.518 26.7006C113.201 26.1847 113.274 25.7568 113.773 25.2109C114.473 24.4457 116.16 24.3235 117.519 24.9395C117.829 25.0803 118.113 25.2418 118.148 25.2981C118.313 25.5629 118.605 25.3375 119.212 24.4769C119.569 23.971 119.861 23.4902 119.861 23.4085C119.861 23.3267 119.604 23.1163 119.29 22.9409C117.992 22.2149 116.299 21.87 114.773 22.0208ZM57.9943 27.3812C58.0267 31.9492 58.0521 32.617 58.2122 33.117C58.9003 35.2656 60.2125 36.5496 62.3832 37.198C63.2414 37.4543 65.5388 37.4611 66.4544 37.2099C68.6787 36.5999 70.1469 35.1145 70.7035 32.9112C70.8807 32.21 70.8984 31.6893 70.8984 27.2012V22.2628L69.4706 22.2342L68.0427 22.2056L68.0391 26.9154C68.0345 32.7375 67.9979 32.9743 66.9526 33.9289C66.1669 34.6465 65.6838 34.8146 64.4082 34.8146C63.3524 34.8146 63.2964 34.8029 62.6428 34.4464C61.9213 34.0528 61.2885 33.3559 61.062 32.7055C60.9726 32.4487 60.927 30.8921 60.9033 27.2783L60.87 22.2113H59.4138H57.9576L57.9943 27.3812ZM78.4561 22.3399C78.401 22.4107 78.1335 23.0009 77.8617 23.6517C77.5899 24.3024 77.261 25.0674 77.1307 25.3516C77.0004 25.6358 76.7208 26.284 76.5092 26.792C76.2976 27.3 75.9884 28.0082 75.822 28.3658C75.6556 28.7235 75.5195 29.073 75.5195 29.1426C75.5195 29.2122 75.4797 29.3132 75.4311 29.3669C75.3824 29.4207 75.1207 29.9971 74.8494 30.6478C74.578 31.2985 74.2496 32.0633 74.1195 32.3472C73.9894 32.6311 73.6162 33.5082 73.2904 34.2962C72.6565 35.8288 72.3409 36.5586 72.188 36.8451C71.9937 37.2092 72.0744 37.2324 73.5338 37.2324C75.1276 37.2324 75.0851 37.249 75.3658 36.5122C75.4629 36.2575 75.6146 35.8878 75.7032 35.6903C75.7918 35.493 75.9889 35.03 76.1413 34.6615L76.4185 33.9915L79.4443 33.9643L82.4702 33.937L82.625 34.1712C82.7102 34.2999 83.0207 34.9834 83.3149 35.6902C83.6091 36.3969 83.8971 37.0331 83.955 37.1038C84.083 37.2602 86.7916 37.2879 86.8878 37.1337C86.9217 37.0794 86.905 36.9521 86.8508 36.8508C86.7966 36.7494 86.6824 36.5045 86.5972 36.3064C86.512 36.1084 86.0922 35.1361 85.6642 34.1458C85.2364 33.1556 84.6434 31.7667 84.3465 31.0593C84.0496 30.352 83.6998 29.5408 83.5694 29.2565C83.439 28.9723 83.1588 28.3242 82.9468 27.8161C82.7348 27.3082 82.4724 26.6983 82.3635 26.4609C82.2546 26.2236 82.1655 26.005 82.1655 25.9752C82.1655 25.9456 82.053 25.6768 81.9155 25.3781C81.778 25.0793 81.4921 24.4182 81.2803 23.9089C81.0683 23.3996 80.8061 22.8094 80.6974 22.5971L80.4998 22.2113H79.5281C78.8735 22.2113 78.5237 22.2533 78.4561 22.3399ZM88.9616 22.3434C88.9335 22.4161 88.9232 25.7842 88.9389 29.8282L88.9673 37.1809H92.2384C95.5545 37.1809 95.8774 37.1525 97.1191 36.7514C98.2534 36.3849 99.6334 35.357 100.374 34.3273C102.248 31.7197 102.39 28.3576 100.739 25.6457C99.6638 23.8805 98.0145 22.765 95.8814 22.3606C94.8096 22.1574 89.0392 22.143 88.9616 22.3434ZM104.644 22.3399C104.616 22.4107 104.606 25.7788 104.621 29.8247L104.648 37.1809H106.05H107.452L107.478 29.6961L107.505 22.2113H106.099C105.07 22.2113 104.68 22.2458 104.644 22.3399ZM94.8043 24.7971C96.311 25.0143 97.3866 25.6784 98.1703 26.8752C98.7553 27.7688 98.9296 28.4381 98.9252 29.7733C98.9218 30.746 98.8828 31.0027 98.6475 31.6005C98.1225 32.9343 97.2849 33.8217 96.0807 34.3201C95.4384 34.5859 95.3202 34.5997 93.6403 34.6041L91.875 34.6088L91.848 29.785C91.8285 26.3089 91.8538 24.9221 91.9385 24.8209C92.0871 24.6436 93.6492 24.6306 94.8043 24.7971ZM79.6757 27.2588C79.7137 27.3403 79.7988 27.5105 79.8649 27.637C79.9308 27.7635 79.9848 27.9109 79.9848 27.9643C79.9848 28.0177 80.1199 28.3539 80.2851 28.7115C81.0563 30.381 81.3606 31.1778 81.264 31.2735C81.2048 31.3322 80.4611 31.3616 79.459 31.3449C77.4915 31.3121 77.5212 31.3309 77.9536 30.3945C78.0998 30.0778 78.2194 29.8002 78.2194 29.7777C78.2194 29.7553 78.3755 29.3979 78.5664 28.9834C78.7572 28.569 79.0232 27.9629 79.1575 27.6365C79.3954 27.0582 79.5346 26.9566 79.6757 27.2588ZM46.772 31.6751C46.791 31.7309 48.0432 33.004 49.5546 34.5044L52.3027 37.2324H54.1325C55.1388 37.2324 55.9936 37.2012 56.032 37.1631C56.0704 37.1251 54.8532 35.8519 53.327 34.3338L50.5522 31.5738H48.6448C47.438 31.5738 46.7501 31.611 46.772 31.6751Z" fill="black"/>
</svg>
