<svg width="358" height="89" viewBox="0 0 358 89" fill="none" xmlns="http://www.w3.org/2000/svg">
<g clip-path="url(#clip0_145_89)">
<path d="M116.777 38.5283C115.082 37.9622 112.057 37.3958 109.757 37.3958C106.55 37.3958 103.222 37.8362 100.136 38.8427C100.136 38.8427 100.257 39.5976 100.257 39.9749V82.5604H87.429V40.3525C87.429 37.5846 86.4607 32.0492 86.4607 32.0492C94.1457 28.7154 102.375 25.9476 110.786 25.9476C114.114 25.9476 117.745 26.388 120.589 27.1429L116.777 38.5283Z" fill="#101820"/>
<path d="M145.094 82.5604C134.608 82.5604 120.584 78.7451 120.584 66.0688C120.584 44.1621 154.464 51.6694 154.464 42.1929C154.464 37.6393 148.569 37.2087 145.28 37.2087C140.378 37.2087 134.669 38.5009 130.078 40.47L125.61 30.6244C132.064 27.6705 140.068 25.9476 147.142 25.9476C158.869 25.9476 167.618 31.0551 167.618 43.6084V71.4838C167.618 73.7606 168.363 78.3142 168.363 78.3142C160.855 80.591 153.098 82.5604 145.094 82.5604ZM154.526 68.0994V54.7463C150.058 58.9922 135.042 57.2075 135.042 65.0228C135.042 70.6839 140.502 71.6685 145.218 71.6685C148.383 71.6685 151.671 71.1146 154.712 70.13C154.712 70.1915 154.526 68.8993 154.526 68.0994Z" fill="#101820"/>
<path d="M204.456 82.5602C187.609 82.5602 175.202 70.7011 175.202 53.5852C175.202 39.4032 183.595 26.3215 199.773 26.3215C203.848 26.3215 208.105 27.2995 211.754 29.2558V2.359H224.587V71.4347C224.587 73.8187 225.256 78.6479 225.256 78.6479C219.053 80.8485 211.146 82.5602 204.456 82.5602ZM211.754 68.1948V40.0755C209.382 38.2416 206.159 37.5082 202.935 37.5082C193.204 37.5082 189.555 45.2714 189.555 54.1965C189.555 63.8546 194.299 71.3124 204.578 71.3124C207.011 71.3124 209.687 71.1901 211.937 70.3344C211.998 70.3955 211.754 68.9895 211.754 68.1948Z" fill="#101820"/>
<path d="M244.49 15.6656C240.029 15.6656 236.62 12.5704 236.62 7.89595C236.62 3.47422 240.029 0 244.49 0C248.889 0 252.545 3.47422 252.545 7.89595C252.608 12.5704 248.889 15.6656 244.49 15.6656ZM238.169 26.9093H251.306V82.5602H238.232V26.9093H238.169Z" fill="#101820"/>
<path d="M286.205 82.5604C273.726 82.5604 263.916 78.1668 263.916 62.8524V26.0104H276.222V60.7185C276.222 67.4971 280.343 70.8863 286.379 70.8863C289.861 70.8863 293.46 69.7566 296.711 68.4385C296.711 68.4385 296.537 66.8693 296.537 66.1163V25.9476H308.725V69.1916C308.725 71.8276 309.421 76.9116 309.421 76.9116C302.281 79.7986 293.808 82.5604 286.205 82.5604Z" fill="#101820"/>
<path d="M336.053 82.5604C330.03 82.5604 323.824 81.0219 318.523 78.9913L322.258 68.7763C325.992 70.4377 330.993 72.0377 334.97 72.0377C338.886 72.0377 343.043 70.8686 343.043 66.0688C343.043 56.4077 319.909 59.3614 319.909 41.5776C319.909 30.4397 331.174 25.9476 339.548 25.9476C345.15 25.9476 350.813 27.2398 354.851 29.209L351.236 39.3008C347.863 38.0085 343.163 36.7778 339.548 36.7778C336.356 36.7778 332.98 37.7625 332.98 41.6393C332.98 50.7465 357.2 46.6236 357.2 66.2533C357.2 78.3144 345.754 82.5604 336.053 82.5604Z" fill="#101820"/>
<path d="M34.4431 35.3849C26.6869 35.5751 20.4199 42.3544 20.482 50.4007V84.6138C24.7013 86.3879 29.355 87.3381 34.1949 87.2747L33.9466 49.3869L47.7838 45.4589C47.1013 43.1147 45.8602 40.9604 44.1228 39.2499C41.5787 36.6521 38.104 35.3216 34.4431 35.3849Z" fill="#EA0029"/>
<path d="M34.5722 11.7952C15.3921 11.9178 -0.117722 28.4069 0.000673354 48.6963C0.0598712 59.3008 4.3813 68.8019 11.2482 75.4833V49.5544C11.2482 48.8803 11.2482 48.2059 11.3075 47.593C12.1954 34.7205 22.4366 24.3 34.9274 23.9322C41.2615 23.7481 47.2996 26.2001 51.8579 30.7361C54.9362 33.801 57.0672 37.5401 58.1921 41.7085L68.2557 38.8274C64.2894 23.1965 50.674 11.6726 34.5722 11.7952Z" fill="#EA0029"/>
</g>
<defs>
<clipPath id="clip0_145_89">
<rect width="357.2" height="88.1696" fill="white"/>
</clipPath>
</defs>
</svg>
