<svg width="149" height="26" viewBox="0 0 149 26" fill="none" xmlns="http://www.w3.org/2000/svg" aria-label="Riverside.fm">
<path d="M22.14 0H3C1.34 0 0 1.34 0 3V22.14C0 23.8 1.34 25.14 3 25.14H22.14C23.8 25.14 25.14 23.8 25.14 22.14V3C25.14 1.34 23.8 0 22.14 0ZM19 12.79C18.8 13.37 18.46 14.23 17.96 15.04C17.43 15.91 16.84 16.51 16.22 16.81C15.9 16.97 15.57 17.05 15.24 17.05C15.11 17.05 14.98 17.04 14.86 17.01C14.4 16.92 13.96 16.69 13.56 16.3C12.86 15.62 12.26 14.47 11.71 12.77C11.16 11.06 10.66 10.34 10.34 10.03C10.18 9.88 10.08 9.84 10.03 9.83C10 9.83 9.95 9.83 9.85 9.87C9.57 10 9.22 10.38 8.88 10.92C8.55 11.44 8.23 12.1 7.98 12.8C7.8 13.3 7.25 13.56 6.74 13.38C6.49 13.29 6.29 13.12 6.18 12.88C6.07 12.65 6.06 12.39 6.14 12.15C6.35 11.57 6.71 10.71 7.22 9.9C7.77 9.03 8.37 8.44 9 8.14C9.45 7.93 9.91 7.86 10.37 7.94C10.84 8.02 11.28 8.26 11.68 8.64C12.39 9.32 13 10.48 13.55 12.18C14.1 13.89 14.59 14.62 14.91 14.92C15.07 15.08 15.17 15.11 15.2 15.11C15.22 15.11 15.26 15.12 15.35 15.07C15.62 14.94 15.96 14.56 16.28 14.03C16.6 13.51 16.9 12.84 17.14 12.15C17.31 11.65 17.86 11.38 18.37 11.55C18.62 11.63 18.82 11.81 18.94 12.04C19.05 12.27 19.07 12.53 18.99 12.77L19 12.79Z" fill="#FFFFFF"/>
<path d="M45.6202 12.8997C46.0202 12.2597 46.2202 11.4797 46.2202 10.5697C46.2202 9.65969 46.0202 8.88969 45.6302 8.22969C45.2402 7.56969 44.6802 7.05969 43.9602 6.70969C43.2402 6.34969 42.3902 6.17969 41.4002 6.17969H35.9502V19.3597H39.1402V14.8497H40.7702L43.1802 19.3597H46.6602L43.9302 14.3397C44.6602 14.0097 45.2202 13.5197 45.6102 12.8897L45.6202 12.8997ZM39.1502 8.74969H40.7202C41.2002 8.74969 41.6002 8.81969 41.9202 8.95969C42.2502 9.08969 42.4902 9.28969 42.6602 9.55969C42.8302 9.82969 42.9102 10.1597 42.9102 10.5697C42.9102 10.9797 42.8302 11.3097 42.6602 11.5697C42.4902 11.8297 42.2502 12.0197 41.9202 12.1497C41.6002 12.2697 41.2002 12.3397 40.7202 12.3397H39.1502V8.74969Z" fill="#FFFFFF"/>
<path d="M53.5298 6.17969H50.3398V19.3597H53.5298V6.17969Z" fill="#FFFFFF"/>
<path d="M63.9401 15.8297H63.8301L60.8801 6.17969H57.3101L61.7601 19.3597H66.0001L70.4501 6.17969H66.8801L63.9401 15.8297Z" fill="#FFFFFF"/>
<path d="M74.23 19.3597H83.43V16.7697H77.42V14.0597H82.96V11.4697H77.42V8.76969H83.43V6.17969H74.23V19.3597Z" fill="#FFFFFF"/>
<path d="M97.44 12.8997C97.84 12.2597 98.04 11.4797 98.04 10.5697C98.04 9.65969 97.84 8.88969 97.45 8.22969C97.06 7.56969 96.5 7.05969 95.78 6.70969C95.06 6.34969 94.21 6.17969 93.22 6.17969H87.77V19.3597H90.96V14.8497H92.59L95 19.3597H98.48L95.75 14.3397C96.48 14.0097 97.04 13.5197 97.43 12.8897L97.44 12.8997ZM90.97 8.74969H92.54C93.02 8.74969 93.42 8.81969 93.74 8.95969C94.07 9.08969 94.31 9.28969 94.48 9.55969C94.65 9.82969 94.73 10.1597 94.73 10.5697C94.73 10.9797 94.65 11.3097 94.48 11.5697C94.31 11.8297 94.07 12.0197 93.74 12.1497C93.42 12.2697 93.02 12.3397 92.54 12.3397H90.97V8.74969Z" fill="#FFFFFF"/>
<path d="M111.46 12.9802C111.12 12.6502 110.7 12.3702 110.2 12.1402C109.7 11.9002 109.13 11.7202 108.48 11.5702L107.35 11.3102C107.05 11.2502 106.78 11.1702 106.54 11.0802C106.3 10.9902 106.09 10.9002 105.92 10.7802C105.75 10.6602 105.62 10.5302 105.53 10.3802C105.44 10.2302 105.41 10.0602 105.41 9.86023C105.41 9.62023 105.49 9.41023 105.62 9.22023C105.76 9.03023 105.96 8.88023 106.24 8.78023C106.52 8.67023 106.86 8.62023 107.27 8.62023C107.89 8.62023 108.37 8.75024 108.71 9.02024C109.05 9.28024 109.24 9.65023 109.28 10.1202H112.33C112.33 9.30023 112.11 8.58023 111.69 7.96023C111.27 7.34023 110.69 6.86023 109.93 6.51023C109.18 6.16023 108.29 5.99023 107.27 5.99023C106.25 5.99023 105.38 6.16023 104.6 6.50023C103.82 6.84023 103.21 7.32023 102.76 7.94023C102.32 8.55023 102.1 9.27023 102.1 10.0802C102.1 11.0802 102.42 11.8702 103.08 12.4602C103.74 13.0402 104.63 13.4702 105.78 13.7302L107.16 14.0502C107.64 14.1602 108.04 14.2802 108.34 14.4202C108.65 14.5502 108.88 14.7002 109.04 14.8802C109.19 15.0602 109.27 15.2702 109.27 15.5202C109.27 15.7902 109.18 16.0202 109.02 16.2302C108.86 16.4402 108.62 16.6002 108.32 16.7102C108.02 16.8302 107.66 16.8802 107.23 16.8802C106.76 16.8802 106.35 16.8102 105.99 16.6602C105.64 16.5102 105.36 16.3002 105.16 16.0202C104.96 15.7402 104.84 15.3802 104.82 14.9602H101.77C101.78 15.9902 102.02 16.8402 102.47 17.5202C102.93 18.1902 103.56 18.7002 104.38 19.0302C105.2 19.3602 106.16 19.5302 107.26 19.5302C108.36 19.5302 109.3 19.3702 110.07 19.0502C110.85 18.7302 111.45 18.2802 111.87 17.6802C112.29 17.0802 112.5 16.3702 112.5 15.5402C112.5 15.0102 112.41 14.5402 112.23 14.1102C112.05 13.6902 111.8 13.3102 111.45 12.9802H111.46Z" fill="#FFFFFF"/>
<path d="M119.67 6.17969H116.48V19.3597H119.67V6.17969Z" fill="#FFFFFF"/>
<path d="M132.37 6.96969C131.4 6.43969 130.24 6.17969 128.9 6.17969H124.03V19.3597H128.9C130.24 19.3597 131.39 19.0997 132.37 18.5697C133.34 18.0397 134.09 17.2797 134.62 16.2997C135.15 15.3097 135.41 14.1297 135.41 12.7597C135.41 11.3897 135.15 10.2197 134.62 9.22969C134.09 8.23969 133.34 7.48969 132.37 6.95969V6.96969ZM131.82 15.0397C131.56 15.6097 131.17 16.0197 130.66 16.2697C130.15 16.5197 129.52 16.6397 128.79 16.6397H127.23V8.88969H128.75C129.51 8.88969 130.14 9.01969 130.66 9.26969C131.18 9.51969 131.57 9.92969 131.84 10.4897C132.11 11.0497 132.24 11.8097 132.24 12.7597C132.24 13.7097 132.11 14.4697 131.84 15.0397H131.82Z" fill="#FFFFFF"/>
<path d="M139.64 19.3597H148.83V16.7697H142.83V14.0597H148.36V11.4697H142.83V8.76969H148.83V6.17969H139.64V19.3597Z" fill="#FFFFFF"/>
</svg>
