<svg width="98" height="20" viewBox="0 0 98 20" fill="none" xmlns="http://www.w3.org/2000/svg">
<rect x="0.5" y="0.5" width="96.121" height="19" rx="9.5" fill="#130025"/>
<rect x="0.5" y="0.5" width="96.121" height="19" rx="9.5" stroke="url(#paint0_linear_19655_20768)"/>
<path d="M14.4861 8.64486C14.2493 8.41481 13.8659 8.41546 13.6299 8.64633L12.6596 9.59532C12.4236 9.82618 12.4242 10.1998 12.6611 10.4299L13.6346 11.3755C13.8714 11.6056 14.2547 11.6049 14.4908 11.3741L15.461 10.4251C15.6971 10.1942 15.6964 9.82057 15.4596 9.59052L14.4861 8.64486Z" fill="#A950FF"/>
<path d="M10.0098 8.64498C9.77716 8.41904 9.40069 8.41969 9.16887 8.64642L8.18332 9.61037C7.9515 9.8371 7.95213 10.2041 8.18472 10.43L9.17358 11.3906C9.40617 11.6165 9.78264 11.6159 10.0145 11.3891L11 10.4252C11.2318 10.1984 11.2312 9.83148 10.9986 9.60554L10.0098 8.64498Z" fill="#A950FF"/>
<path d="M14.471 4.2817C14.2384 4.05576 13.8619 4.0564 13.6301 4.28314L12.6445 5.24708C12.4127 5.47382 12.4133 5.84078 12.6459 6.06672L13.6348 7.02728C13.8674 7.25322 14.2439 7.25257 14.4757 7.02584L15.4612 6.06189C15.693 5.83516 15.6924 5.4682 15.4598 5.24226L14.471 4.2817Z" fill="#E9C1FF"/>
<path d="M14.89 7.41365C14.654 7.64452 14.6546 8.01816 14.8915 8.24822L15.865 9.19388C16.1018 9.42393 16.4851 9.42327 16.7212 9.19241L17.6914 8.24342C17.9275 8.01256 17.9268 7.63891 17.69 7.40885L16.7165 6.4632C16.4797 6.23314 16.0963 6.2338 15.8603 6.46466L14.89 7.41365Z" fill="#CD88FF"/>
<path d="M17.1206 9.59505C16.8887 9.82178 16.8894 10.1887 17.122 10.4147L18.1108 11.3752C18.3434 11.6012 18.7199 11.6005 18.9517 11.3738L19.9372 10.4099C20.1691 10.1831 20.1684 9.81616 19.9358 9.59022L18.947 8.62966C18.7144 8.40372 18.3379 8.40437 18.1061 8.6311L17.1206 9.59505Z" fill="#A950FF"/>
<path d="M10.4215 7.42131C10.1855 7.65218 10.1861 8.02582 10.423 8.25588L11.3965 9.20154C11.6333 9.43159 12.0166 9.43093 12.2527 9.20007L13.2229 8.25108C13.459 8.02022 13.4583 7.64657 13.2215 7.41651L12.248 6.47086C12.0112 6.2408 11.6278 6.24146 11.3918 6.47232L10.4215 7.42131Z" fill="#CD88FF"/>
<path d="M13.1101 13.6383C12.5828 14.1541 12.5842 14.9888 13.1133 15.5028C13.6424 16.0167 14.4988 16.0153 15.0261 15.4995C15.5534 14.9837 15.552 14.149 15.0229 13.635C14.4938 13.121 13.6374 13.1225 13.1101 13.6383Z" fill="#F62E76"/>
<path d="M28.4591 14.12C27.6791 14.12 27.0131 13.942 26.4611 13.586C25.9131 13.23 25.4931 12.718 25.2011 12.05C24.9131 11.382 24.7691 10.576 24.7691 9.632C24.7691 8.692 24.9131 7.892 25.2011 7.232C25.4891 6.572 25.9071 6.07 26.4551 5.726C27.0071 5.378 27.6751 5.204 28.4591 5.204C29.0711 5.204 29.6131 5.332 30.0851 5.588C30.5571 5.84 30.9371 6.178 31.2251 6.602C31.5131 7.026 31.6831 7.492 31.7351 8H30.5531C30.4891 7.66 30.3671 7.352 30.1871 7.076C30.0071 6.8 29.7711 6.58 29.4791 6.416C29.1871 6.252 28.8371 6.17 28.4291 6.17C27.9051 6.17 27.4611 6.294 27.0971 6.542C26.7371 6.786 26.4631 7.164 26.2751 7.676C26.0911 8.188 25.9991 8.844 25.9991 9.644C25.9991 10.852 26.2051 11.74 26.6171 12.308C27.0331 12.872 27.6371 13.154 28.4291 13.154C28.8371 13.154 29.1871 13.068 29.4791 12.896C29.7711 12.724 30.0071 12.494 30.1871 12.206C30.3671 11.918 30.4891 11.606 30.5531 11.27H31.7351C31.6911 11.638 31.5911 11.994 31.4351 12.338C31.2831 12.678 31.0731 12.982 30.8051 13.25C30.5371 13.518 30.2071 13.73 29.8151 13.886C29.4271 14.042 28.9751 14.12 28.4591 14.12ZM35.9111 14.12C35.3351 14.12 34.8271 13.994 34.3871 13.742C33.9471 13.49 33.6031 13.128 33.3551 12.656C33.1071 12.184 32.9831 11.618 32.9831 10.958C32.9831 10.306 33.0951 9.734 33.3191 9.242C33.5431 8.75 33.8671 8.366 34.2911 8.09C34.7191 7.814 35.2331 7.676 35.8331 7.676C36.4171 7.676 36.9111 7.802 37.3151 8.054C37.7191 8.306 38.0251 8.662 38.2331 9.122C38.4451 9.578 38.5511 10.12 38.5511 10.748V11.156H34.1051C34.1051 11.548 34.1691 11.904 34.2971 12.224C34.4291 12.54 34.6271 12.792 34.8911 12.98C35.1551 13.168 35.4891 13.262 35.8931 13.262C36.2891 13.262 36.6291 13.17 36.9131 12.986C37.2011 12.802 37.3851 12.536 37.4651 12.188H38.5091C38.4371 12.608 38.2691 12.962 38.0051 13.25C37.7451 13.538 37.4311 13.756 37.0631 13.904C36.6991 14.048 36.3151 14.12 35.9111 14.12ZM34.1111 10.406H37.4831C37.4831 10.05 37.4231 9.73 37.3031 9.446C37.1831 9.158 36.9991 8.932 36.7511 8.768C36.5071 8.6 36.1991 8.516 35.8271 8.516C35.4391 8.516 35.1171 8.61 34.8611 8.798C34.6051 8.982 34.4151 9.22 34.2911 9.512C34.1671 9.8 34.1071 10.098 34.1111 10.406ZM40.086 14V7.796H41.142V8.99C41.246 8.694 41.392 8.45 41.58 8.258C41.768 8.062 41.982 7.916 42.222 7.82C42.466 7.724 42.718 7.676 42.978 7.676C43.07 7.676 43.16 7.682 43.248 7.694C43.336 7.706 43.404 7.726 43.452 7.754V8.828C43.392 8.8 43.314 8.782 43.218 8.774C43.126 8.762 43.048 8.756 42.984 8.756C42.736 8.74 42.504 8.756 42.288 8.804C42.072 8.848 41.882 8.926 41.718 9.038C41.554 9.15 41.424 9.298 41.328 9.482C41.236 9.662 41.19 9.882 41.19 10.142V14H40.086ZM46.8717 14.03C46.4437 14.03 46.1117 13.972 45.8757 13.856C45.6397 13.74 45.4737 13.568 45.3777 13.34C45.2857 13.112 45.2397 12.832 45.2397 12.5V8.606H44.2317V7.796H45.2697L45.5397 5.99H46.3557V7.79H47.7537V8.606H46.3557V12.464C46.3557 12.684 46.3777 12.846 46.4217 12.95C46.4697 13.05 46.5477 13.114 46.6557 13.142C46.7637 13.17 46.9157 13.184 47.1117 13.184H47.7897V13.928C47.7137 13.956 47.5977 13.98 47.4417 14C47.2897 14.02 47.0997 14.03 46.8717 14.03ZM49.2918 14V7.796H50.3658V14H49.2918ZM49.2618 6.482V5.33H50.3958V6.482H49.2618ZM53.0546 14V8.606H51.7406V7.796H53.0546V6.836C53.0546 6.344 53.1786 5.97 53.4266 5.714C53.6786 5.454 54.0546 5.324 54.5546 5.324H55.7246L55.7306 6.11H54.8066C54.5506 6.11 54.3766 6.178 54.2846 6.314C54.1926 6.45 54.1466 6.656 54.1466 6.932V7.796H55.6706V8.606H54.1646V14H53.0546ZM57.0086 14V7.796H58.0826V14H57.0086ZM56.9786 6.482V5.33H58.1126V6.482H56.9786ZM62.5713 14.12C61.9953 14.12 61.4873 13.994 61.0473 13.742C60.6073 13.49 60.2633 13.128 60.0153 12.656C59.7673 12.184 59.6433 11.618 59.6433 10.958C59.6433 10.306 59.7553 9.734 59.9793 9.242C60.2033 8.75 60.5273 8.366 60.9513 8.09C61.3793 7.814 61.8933 7.676 62.4933 7.676C63.0773 7.676 63.5713 7.802 63.9753 8.054C64.3793 8.306 64.6853 8.662 64.8933 9.122C65.1053 9.578 65.2113 10.12 65.2113 10.748V11.156H60.7653C60.7653 11.548 60.8293 11.904 60.9573 12.224C61.0893 12.54 61.2873 12.792 61.5513 12.98C61.8153 13.168 62.1493 13.262 62.5533 13.262C62.9493 13.262 63.2893 13.17 63.5733 12.986C63.8613 12.802 64.0453 12.536 64.1253 12.188H65.1693C65.0972 12.608 64.9293 12.962 64.6653 13.25C64.4053 13.538 64.0913 13.756 63.7233 13.904C63.3593 14.048 62.9753 14.12 62.5713 14.12ZM60.7713 10.406H64.1433C64.1433 10.05 64.0833 9.73 63.9633 9.446C63.8433 9.158 63.6593 8.932 63.4113 8.768C63.1673 8.6 62.8593 8.516 62.4873 8.516C62.0993 8.516 61.7773 8.61 61.5213 8.798C61.2653 8.982 61.0753 9.22 60.9513 9.512C60.8273 9.8 60.7673 10.098 60.7713 10.406ZM69.0081 14.12C68.2001 14.12 67.5601 13.844 67.0881 13.292C66.6201 12.74 66.3861 11.934 66.3861 10.874C66.3861 10.23 66.4801 9.668 66.6681 9.188C66.8561 8.708 67.1381 8.336 67.5141 8.072C67.8901 7.808 68.3581 7.676 68.9181 7.676C69.2181 7.676 69.4821 7.714 69.7101 7.79C69.9381 7.866 70.1361 7.962 70.3041 8.078C70.4721 8.194 70.6081 8.314 70.7121 8.438C70.8201 8.562 70.9001 8.676 70.9521 8.78V5.084H72.0741V14H71.2221L71.1021 12.728C71.0621 12.848 70.9981 12.988 70.9101 13.148C70.8221 13.304 70.6981 13.458 70.5381 13.61C70.3821 13.758 70.1781 13.88 69.9261 13.976C69.6741 14.072 69.3681 14.12 69.0081 14.12ZM69.2061 13.268C69.8301 13.268 70.2761 13.078 70.5441 12.698C70.8161 12.314 70.9521 11.688 70.9521 10.82C70.9481 10.336 70.8881 9.924 70.7721 9.584C70.6561 9.244 70.4721 8.986 70.2201 8.81C69.9721 8.63 69.6401 8.54 69.2241 8.54C68.7161 8.54 68.3021 8.722 67.9821 9.086C67.6621 9.45 67.5021 10.028 67.5021 10.82C67.5021 11.596 67.6461 12.198 67.9341 12.626C68.2221 13.054 68.6461 13.268 69.2061 13.268Z" fill="url(#paint1_linear_19655_20768)"/>
<path d="M81.6211 14.2099L78.5161 11.1049L79.9311 9.68994L81.6211 11.3849L86.5611 6.43994L87.9761 7.85494L81.6211 14.2099Z" fill="url(#paint2_linear_19655_20768)"/>
<defs>
<linearGradient id="paint0_linear_19655_20768" x1="2.93307" y1="-4.05841e-07" x2="13.3898" y2="43.6085" gradientUnits="userSpaceOnUse">
<stop stop-color="#F3EDFE"/>
<stop offset="1" stop-color="#A370FC"/>
</linearGradient>
<linearGradient id="paint1_linear_19655_20768" x1="25.6009" y1="-4.05841e-07" x2="43.4799" y2="37.6186" gradientUnits="userSpaceOnUse">
<stop stop-color="#F3EDFE"/>
<stop offset="1" stop-color="#A370FC"/>
</linearGradient>
<linearGradient id="paint2_linear_19655_20768" x1="78.8018" y1="6.43994" x2="87.7509" y2="15.7971" gradientUnits="userSpaceOnUse">
<stop stop-color="#F3EDFE"/>
<stop offset="1" stop-color="#A370FC"/>
</linearGradient>
</defs>
</svg>
