<svg width="768" height="419" viewBox="0 0 768 419" fill="none" xmlns="http://www.w3.org/2000/svg">
<rect width="768" height="419" fill="url(#paint0_linear_20055_18856)"/>
<rect x="157" y="9" width="49.3249" height="49.3249" rx="24.6624" fill="white" fill-opacity="0.1"/>
<rect x="157.331" y="9.33097" width="48.6629" height="48.6629" rx="24.3315" stroke="black" stroke-opacity="0.2" stroke-width="0.661932"/>
<path d="M185.81 21.9341H178.444L186.091 44.5917C186.17 44.8245 186.319 45.0268 186.519 45.1701C186.718 45.3135 186.958 45.3906 187.204 45.3906H192.937C193.123 45.3906 193.306 45.3463 193.472 45.2614C193.638 45.1764 193.781 45.0532 193.889 44.902C193.998 44.7507 194.069 44.5758 194.096 44.3917C194.124 44.2076 194.107 44.0195 194.048 43.8431L186.923 22.733C186.845 22.5001 186.695 22.2977 186.495 22.1543C186.296 22.011 186.056 21.9341 185.81 21.9341Z" fill="url(#paint1_linear_20055_18856)"/>
<path d="M175.106 37.1313H186.787C186.896 37.1312 187.002 37.1638 187.092 37.2248C187.182 37.2859 187.251 37.3725 187.291 37.4736C187.331 37.5746 187.339 37.6853 187.315 37.7912C187.291 37.8971 187.236 37.9934 187.156 38.0674L179.65 45.0735C179.432 45.2773 179.144 45.3907 178.845 45.3906H172.231L175.106 37.1313Z" fill="#0078D4"/>
<path d="M185.81 21.9341C186.059 21.9331 186.301 22.0117 186.502 22.1582C186.702 22.3047 186.851 22.5116 186.926 22.7486L194.039 43.8239C194.103 44.0009 194.123 44.1907 194.097 44.377C194.072 44.5634 194.002 44.741 193.894 44.8947C193.785 45.0484 193.641 45.1737 193.474 45.26C193.307 45.3463 193.122 45.3911 192.933 45.3906H187.053C186.834 45.3515 186.629 45.2549 186.459 45.1108C186.29 44.9666 186.162 44.7801 186.088 44.5702L184.669 40.3896L179.602 45.1156C179.39 45.2913 179.124 45.3884 178.848 45.3906H172.258L175.148 37.1313L183.574 37.1333L178.417 21.9341L185.81 21.9341Z" fill="url(#paint2_linear_20055_18856)"/>
<path d="M176.401 22.7319C176.48 22.4994 176.629 22.2973 176.829 22.1542C177.028 22.011 177.267 21.9341 177.513 21.9341H185.723C185.477 21.9341 185.238 22.0111 185.039 22.1542C184.839 22.2973 184.69 22.4994 184.611 22.7319L177.486 43.8428C177.427 44.0193 177.41 44.2073 177.438 44.3915C177.465 44.5757 177.536 44.7507 177.645 44.902C177.754 45.0532 177.897 45.1765 178.062 45.2615C178.228 45.3465 178.412 45.3909 178.598 45.3909H170.388C170.201 45.3908 170.018 45.3465 169.852 45.2614C169.687 45.1764 169.544 45.0531 169.435 44.9018C169.326 44.7506 169.255 44.5756 169.228 44.3915C169.2 44.2073 169.217 44.0192 169.277 43.8428L176.401 22.7319Z" fill="url(#paint3_linear_20055_18856)"/>
<rect x="555.35" y="9" width="49.3249" height="49.3249" rx="24.6624" fill="white" fill-opacity="0.1"/>
<rect x="555.681" y="9.33097" width="48.6629" height="48.6629" rx="24.3315" stroke="black" stroke-opacity="0.2" stroke-width="0.661932"/>
<path d="M568.891 21.6538C569.173 21.4614 569.488 21.3253 569.821 21.2527C570.163 21.1776 570.515 21.164 570.861 21.2126C571.224 21.2633 571.576 21.3753 571.901 21.5439L573.419 22.3818L574.941 23.2181L576.463 24.0546L577.984 24.8984C578.314 25.0912 578.667 25.241 579.035 25.3441C579.391 25.4473 579.759 25.5013 580.13 25.5046C580.5 25.5091 580.869 25.4636 581.226 25.3693C581.596 25.2716 581.95 25.1258 582.281 24.9356L583.756 24.1333L585.232 23.3311L586.707 22.5319L588.183 21.7297C588.731 21.3805 589.385 21.2396 590.027 21.3329C590.62 21.4251 591.169 21.6986 591.6 22.1158C592.035 22.5277 592.33 23.0645 592.446 23.6519C592.564 24.2888 592.447 24.9472 592.117 25.5046L591.6 26.4524L590.461 28.5322L589.321 30.612L588.803 31.5598C588.61 31.8858 588.46 32.2354 588.357 32.5998C588.259 32.956 588.209 33.3237 588.209 33.6931C588.209 34.0636 588.259 34.4323 588.357 34.7896C588.449 35.1656 588.59 35.5278 588.778 35.8666L589.587 37.3774L590.398 38.8838L591.209 40.3888L592.021 41.8951C592.157 42.142 592.262 42.4051 592.333 42.678C592.4 42.9359 592.429 43.202 592.422 43.4684C592.412 43.73 592.361 43.9885 592.273 44.2349C592.184 44.4932 592.054 44.7359 591.89 44.954C591.689 45.2296 591.44 45.4663 591.154 45.6523C590.87 45.8409 590.556 45.9781 590.225 46.0578C589.885 46.1412 589.533 46.1638 589.185 46.1246C588.822 46.0829 588.469 45.9757 588.145 45.8082L586.565 44.9421L584.988 44.0775L583.41 43.2114L581.832 42.3452C582.307 42.0045 582.746 41.6162 583.141 41.1865C583.538 40.7546 583.902 40.2938 584.23 39.8079C584.561 39.3206 584.864 38.8125 585.145 38.2955C585.396 37.835 585.629 37.3685 585.854 36.905C585.457 37.6478 584.603 38.4367 583.493 39.2285C582.144 40.1574 580.737 41.0008 579.281 41.754C577.751 42.5681 576.181 43.3377 574.825 44.0181C573.468 44.6985 572.319 45.2882 571.637 45.7383C571.086 46.0641 570.432 46.1673 569.808 46.0265C569.229 45.8826 568.71 45.5617 568.322 45.1085C567.916 44.6487 567.653 44.081 567.563 43.4744C567.47 42.8331 567.602 42.1792 567.938 41.6248L568.87 39.9371L570.913 36.2231L572.956 32.5091L573.879 30.8407C574.076 30.508 574.291 30.1858 574.522 29.8752C574.751 29.5704 574.999 29.2801 575.264 29.0061C575.528 28.7332 575.81 28.4786 576.108 28.244C576.412 28.0052 576.732 27.7897 577.068 27.5992C576.547 27.8369 576.016 28.0835 575.496 28.3495C574.972 28.6134 574.463 28.9045 573.969 29.2215C573.476 29.5374 573.009 29.892 572.573 30.2822C572.132 30.6788 571.736 31.1221 571.392 31.6044L570.552 30.0683L569.713 28.5322L568.87 26.993L568.031 25.4569C567.891 25.226 567.786 24.9757 567.719 24.7141C567.652 24.4547 567.622 24.1871 567.63 23.9193C567.64 23.649 567.69 23.3817 567.779 23.1261C567.869 22.8644 567.999 22.6187 568.166 22.3982C568.357 22.1047 568.603 21.8517 568.891 21.6538ZM588.359 43.1712C588.337 43.4852 588.451 43.7936 588.672 44.018C588.893 44.2424 589.199 44.3614 589.513 44.3449C590.156 44.3502 590.681 43.8337 590.686 43.1912C590.691 42.5488 590.174 42.0238 589.532 42.0185C589.218 41.9963 588.91 42.1098 588.686 42.3303C588.461 42.5508 588.342 42.857 588.359 43.1712ZM590.66 24.2017C590.682 23.8877 590.567 23.5794 590.347 23.355C590.126 23.1306 589.82 23.0115 589.505 23.028C589.191 23.0063 588.883 23.1203 588.659 23.341C588.435 23.5617 588.315 23.8681 588.332 24.1824C588.31 24.4964 588.424 24.8046 588.645 25.029C588.865 25.2534 589.172 25.3724 589.486 25.3559C589.8 25.3776 590.109 25.2637 590.333 25.0429C590.557 24.8222 590.676 24.516 590.66 24.2017ZM569.374 43.1356C569.369 43.6069 569.649 44.0347 570.083 44.2192C570.517 44.4038 571.019 44.3087 571.355 43.9784C571.691 43.6481 571.795 43.1477 571.618 42.7107C571.442 42.2738 571.019 41.9865 570.548 41.9828C570.234 41.9607 569.926 42.0742 569.701 42.2947C569.477 42.5152 569.357 42.8214 569.374 43.1356ZM577.248 33.2459C577.591 32.6844 578.157 32.4645 578.836 32.472C579.763 32.503 580.584 33.0824 580.923 33.9461C581.262 34.8098 581.055 35.7924 580.396 36.4459C581.132 36.3522 581.799 35.9676 582.25 35.378C582.7 34.7884 582.895 34.043 582.792 33.3084C582.574 31.8362 581.11 30.6922 579.639 30.8987C578.394 31.1097 577.371 32.0025 577.248 33.2459ZM569.291 24.1036C569.307 24.731 569.818 25.2328 570.445 25.2385C571.073 25.2441 571.592 24.7514 571.619 24.1244C571.603 23.497 571.093 22.9952 570.465 22.9895C569.837 22.9839 569.318 23.4766 569.291 24.1036Z" fill="#FF694B"/>
<rect width="48.6751" height="48.6751" rx="24.3375" transform="matrix(-1 0 0 1 313.675 36)" fill="white" fill-opacity="0.1"/>
<rect x="-0.326606" y="0.326606" width="48.0219" height="48.0219" rx="24.0109" transform="matrix(-1 0 0 1 313.022 36)" stroke="black" stroke-opacity="0.2" stroke-width="0.653212"/>
<path d="M300.043 47.1778V73.3319C300.043 73.9818 299.516 74.5263 298.849 74.5263H291.419C290.769 74.5263 290.225 73.9993 290.225 73.3319V47.1778C290.225 46.5279 290.752 45.9834 291.419 45.9834H298.849C299.499 46.001 300.043 46.5279 300.043 47.1778Z" fill="url(#paint4_linear_20055_18856)"/>
<path d="M294.247 54.3267V74.5439H284.428V54.3267C284.428 53.6768 284.955 53.1323 285.623 53.1323H293.053C293.702 53.1323 294.247 53.6593 294.247 54.3267Z" fill="url(#paint5_linear_20055_18856)"/>
<path d="M278.632 61.458V73.3495C278.632 73.9994 279.159 74.5439 279.826 74.5439H288.451V61.458C288.451 60.8081 287.924 60.2636 287.256 60.2636H279.826C279.176 60.2636 278.632 60.7906 278.632 61.458Z" fill="url(#paint6_linear_20055_18856)"/>
<rect width="48.6751" height="48.6751" rx="24.3375" transform="matrix(-1 0 0 1 496.675 36)" fill="white" fill-opacity="0.1"/>
<rect x="-0.326606" y="0.326606" width="48.0219" height="48.0219" rx="24.0109" transform="matrix(-1 0 0 1 496.022 36)" stroke="black" stroke-opacity="0.2" stroke-width="0.653212"/>
<path d="M472.252 48.4213C472.035 48.4322 471.822 48.4861 471.626 48.5797L463.086 52.6604C462.865 52.766 462.671 52.9196 462.518 53.1098C462.365 53.3 462.257 53.522 462.202 53.7592L460.095 62.9256C460.047 63.1368 460.041 63.3555 460.079 63.5688C460.117 63.7822 460.198 63.9857 460.317 64.1675C460.346 64.212 460.377 64.255 460.41 64.2964L466.321 71.6463C466.474 71.8365 466.668 71.9901 466.89 72.0956C467.111 72.2011 467.353 72.2559 467.598 72.2558L477.078 72.2536C477.323 72.2538 477.565 72.1992 477.786 72.0939C478.007 71.9886 478.202 71.8352 478.355 71.6452L484.264 64.2942C484.417 64.1039 484.525 63.8819 484.58 63.6446C484.634 63.4072 484.634 63.1607 484.58 62.9234L482.469 53.7571C482.415 53.5198 482.307 53.2979 482.154 53.1076C482.001 52.9174 481.807 52.7638 481.586 52.6582L473.044 48.5797C472.798 48.4619 472.525 48.4075 472.252 48.4213Z" fill="#326CE5"/>
<path d="M472.337 51.5407C472.055 51.5408 471.826 51.795 471.826 52.1087C471.826 52.1135 471.827 52.1181 471.827 52.1229C471.826 52.1655 471.824 52.2169 471.826 52.254C471.832 52.4349 471.872 52.5734 471.896 52.74C471.939 53.0968 471.975 53.3925 471.952 53.6674C471.931 53.771 471.854 53.8658 471.786 53.9317L471.774 54.148C471.468 54.1734 471.159 54.2199 470.85 54.29C469.523 54.5913 468.38 55.2751 467.51 56.1982C467.454 56.1597 467.355 56.0888 467.326 56.0671C467.234 56.0794 467.142 56.1076 467.022 56.0376C466.793 55.8836 466.585 55.6711 466.333 55.415C466.217 55.2925 466.133 55.1759 465.996 55.0578C465.965 55.031 465.917 54.9948 465.883 54.9672C465.775 54.8816 465.649 54.837 465.527 54.8328C465.369 54.8275 465.218 54.8889 465.119 55.0131C464.943 55.2338 464.999 55.5712 465.245 55.7667C465.247 55.7687 465.25 55.7703 465.252 55.7722C465.286 55.7995 465.327 55.8345 465.358 55.8574C465.504 55.9649 465.637 56.02 465.782 56.1053C466.088 56.2941 466.341 56.4507 466.542 56.6395C466.621 56.7231 466.635 56.8706 466.645 56.9344L466.809 57.0807C465.932 58.4007 465.526 60.0311 465.766 61.6923L465.552 61.7546C465.495 61.8274 465.416 61.9421 465.332 61.9763C465.069 62.0592 464.773 62.0896 464.416 62.127C464.248 62.141 464.103 62.1327 463.925 62.1664C463.886 62.1738 463.832 62.188 463.789 62.198C463.787 62.1984 463.786 62.1988 463.784 62.1991C463.782 62.1997 463.779 62.2008 463.777 62.2013C463.475 62.2741 463.282 62.5511 463.344 62.8239C463.407 63.0968 463.701 63.2628 464.004 63.1975C464.006 63.197 464.009 63.1969 464.012 63.1964C464.015 63.1956 464.018 63.1939 464.021 63.1931C464.064 63.1838 464.117 63.1735 464.154 63.1636C464.328 63.1168 464.455 63.048 464.612 62.9878C464.951 62.8664 465.231 62.7651 465.504 62.7256C465.618 62.7167 465.738 62.7959 465.797 62.8294L466.02 62.7912C466.533 64.3809 467.608 65.6658 468.968 66.4721L468.875 66.6949C468.909 66.7815 468.946 66.8985 468.921 66.984C468.822 67.2413 468.652 67.5128 468.458 67.8156C468.365 67.9555 468.269 68.064 468.184 68.2241C468.164 68.2624 468.138 68.3213 468.119 68.3618C467.987 68.6429 468.083 68.9666 468.336 69.0881C468.59 69.2104 468.905 69.0814 469.041 68.7998C469.042 68.7994 469.042 68.7991 469.043 68.7987C469.043 68.7983 469.042 68.7979 469.043 68.7976C469.062 68.7576 469.09 68.7051 469.106 68.6676C469.178 68.5017 469.202 68.3595 469.253 68.199C469.389 67.8593 469.463 67.5028 469.649 67.2807C469.7 67.2198 469.783 67.1964 469.869 67.1734L469.985 66.9636C471.171 67.419 472.499 67.5411 473.826 67.24C474.128 67.1713 474.42 67.0824 474.703 66.9757C474.735 67.0334 474.796 67.1443 474.812 67.1723C474.9 67.2008 474.995 67.2155 475.073 67.3306C475.212 67.5686 475.308 67.8502 475.424 68.1903C475.475 68.3507 475.5 68.4929 475.572 68.6589C475.589 68.6967 475.616 68.7499 475.636 68.7899C475.772 69.0725 476.088 69.2019 476.342 69.0794C476.595 68.9578 476.691 68.6341 476.56 68.353C476.54 68.3125 476.513 68.2537 476.493 68.2154C476.408 68.0553 476.313 67.9478 476.219 67.808C476.025 67.5052 475.865 67.2537 475.766 66.9964C475.724 66.8637 475.773 66.7812 475.805 66.6949C475.785 66.6728 475.744 66.5474 475.72 66.4885C477.134 65.6535 478.177 64.3207 478.667 62.7813C478.733 62.7917 478.848 62.8121 478.885 62.8196C478.962 62.7688 479.033 62.7027 479.171 62.7136C479.444 62.7531 479.724 62.8545 480.063 62.9757C480.22 63.036 480.346 63.1059 480.521 63.1527C480.558 63.1626 480.611 63.1718 480.653 63.1811C480.657 63.1819 480.66 63.1836 480.663 63.1844C480.666 63.1849 480.669 63.185 480.671 63.1855C480.974 63.2507 481.268 63.0848 481.331 62.8119C481.393 62.539 481.199 62.262 480.898 62.1893C480.854 62.1793 480.792 62.1624 480.75 62.1544C480.572 62.1207 480.427 62.129 480.259 62.115C479.902 62.0776 479.606 62.0471 479.343 61.9643C479.235 61.9227 479.159 61.7951 479.122 61.7426L478.916 61.6825C479.023 60.9081 478.994 60.1022 478.809 59.2959C478.622 58.482 478.291 57.7376 477.851 57.0818C477.904 57.0337 478.004 56.9451 478.032 56.9191C478.04 56.8274 478.033 56.7312 478.128 56.6296C478.329 56.4409 478.583 56.2843 478.888 56.0955C479.033 56.0101 479.168 55.9551 479.313 55.8476C479.346 55.8232 479.391 55.7847 479.426 55.7569C479.671 55.5613 479.727 55.2239 479.551 55.0032C479.375 54.7825 479.034 54.7618 478.789 54.9574C478.754 54.985 478.707 55.0211 478.675 55.048C478.538 55.1661 478.453 55.2827 478.338 55.4052C478.086 55.6613 477.877 55.8749 477.649 56.0289C477.549 56.0866 477.404 56.0666 477.338 56.0627L477.144 56.2015C476.035 55.0389 474.526 54.2956 472.9 54.1513C472.896 54.0831 472.89 53.96 472.888 53.923C472.822 53.8593 472.742 53.8049 472.721 53.6674C472.699 53.3925 472.736 53.0968 472.779 52.74C472.803 52.5734 472.842 52.4349 472.849 52.254C472.851 52.2129 472.848 52.1532 472.848 52.1087C472.848 51.795 472.619 51.5407 472.337 51.5407ZM471.697 55.5057L471.545 58.1872L471.534 58.1927C471.524 58.4326 471.326 58.6241 471.084 58.6241C470.985 58.6241 470.893 58.5922 470.819 58.5378L470.814 58.54L468.615 56.9813C469.291 56.3169 470.156 55.8258 471.152 55.5996C471.334 55.5583 471.516 55.5276 471.697 55.5057ZM472.978 55.5057C474.141 55.6487 475.217 56.1753 476.041 56.9824L473.856 58.5313L473.849 58.528C473.655 58.6696 473.381 58.6345 473.23 58.445C473.168 58.3674 473.136 58.2761 473.132 58.1839L473.13 58.1828L472.978 55.5057ZM467.818 57.983L469.826 59.7787L469.824 59.7896C470.005 59.9471 470.031 60.2205 469.88 60.41C469.818 60.4876 469.736 60.5397 469.647 60.564L469.644 60.5727L467.071 61.3155C466.94 60.1178 467.222 58.9536 467.818 57.983ZM476.841 57.984C477.14 58.4675 477.366 59.0075 477.5 59.593C477.633 60.1714 477.666 60.7488 477.611 61.3067L475.025 60.5618L475.023 60.5509C474.791 60.4876 474.649 60.252 474.703 60.0157C474.725 59.9189 474.776 59.837 474.846 59.7765L474.845 59.771L476.841 57.984ZM471.925 59.9174H472.748L473.259 60.5564L473.075 61.3537L472.337 61.7087L471.596 61.3526L471.413 60.5553L471.925 59.9174ZM474.562 62.1041C474.597 62.1023 474.632 62.1055 474.666 62.1118L474.67 62.1063L477.332 62.5563C476.942 63.6508 476.197 64.599 475.201 65.2335L474.168 62.7376L474.171 62.7333C474.076 62.5127 474.171 62.2541 474.389 62.1489C474.445 62.122 474.504 62.1071 474.562 62.1041ZM470.091 62.115C470.294 62.1179 470.476 62.2589 470.524 62.4657C470.546 62.5625 470.535 62.6584 470.499 62.7431L470.506 62.7529L469.484 65.2236C468.528 64.6103 467.767 63.6919 467.359 62.5651L469.998 62.1172L470.003 62.1227C470.032 62.1172 470.062 62.1146 470.091 62.115ZM472.32 63.1975C472.391 63.1949 472.463 63.2094 472.531 63.2423C472.621 63.2853 472.69 63.3532 472.733 63.4345H472.743L474.044 65.7851C473.875 65.8417 473.702 65.89 473.524 65.9303C472.529 66.1562 471.538 66.0878 470.639 65.7818L471.937 63.4356H471.939C472.017 63.29 472.165 63.2032 472.32 63.1975Z" fill="white"/>
<path d="M472.252 48.4213C472.035 48.4322 471.822 48.4861 471.626 48.5797L463.086 52.6604C462.865 52.766 462.671 52.9196 462.518 53.1098C462.365 53.3 462.257 53.522 462.202 53.7592L460.095 62.9256C460.047 63.1368 460.041 63.3555 460.079 63.5688C460.117 63.7822 460.198 63.9857 460.317 64.1675C460.346 64.212 460.377 64.255 460.41 64.2964L466.321 71.6463C466.474 71.8365 466.668 71.9901 466.89 72.0956C467.111 72.2011 467.353 72.2559 467.598 72.2558L477.078 72.2536C477.323 72.2538 477.565 72.1992 477.786 72.0939C478.007 71.9886 478.202 71.8352 478.355 71.6452L484.264 64.2942C484.417 64.1039 484.525 63.8819 484.58 63.6446C484.634 63.4072 484.634 63.1607 484.58 62.9234L482.469 53.7571C482.415 53.5198 482.307 53.2979 482.154 53.1076C482.001 52.9174 481.807 52.7638 481.586 52.6582L473.044 48.5797C472.798 48.4619 472.525 48.4075 472.252 48.4213Z" stroke="white" stroke-width="0.227933"/>
<path d="M472.337 51.5407C472.055 51.5408 471.826 51.795 471.826 52.1087C471.826 52.1135 471.827 52.1181 471.827 52.1229C471.826 52.1655 471.824 52.2169 471.826 52.254C471.832 52.4349 471.872 52.5734 471.896 52.74C471.939 53.0968 471.975 53.3925 471.952 53.6674C471.931 53.771 471.854 53.8658 471.786 53.9317L471.774 54.148C471.468 54.1734 471.159 54.2199 470.85 54.29C469.523 54.5913 468.38 55.2751 467.51 56.1982C467.454 56.1597 467.355 56.0888 467.326 56.0671C467.234 56.0794 467.142 56.1076 467.022 56.0376C466.793 55.8836 466.585 55.6711 466.333 55.415C466.217 55.2925 466.133 55.1759 465.996 55.0578C465.965 55.031 465.917 54.9948 465.883 54.9672C465.775 54.8816 465.649 54.837 465.527 54.8328C465.369 54.8275 465.218 54.8889 465.119 55.0131C464.943 55.2338 464.999 55.5712 465.245 55.7667C465.247 55.7687 465.25 55.7703 465.252 55.7722C465.286 55.7995 465.327 55.8345 465.358 55.8574C465.504 55.9649 465.637 56.02 465.782 56.1053C466.088 56.2941 466.341 56.4507 466.542 56.6395C466.621 56.7231 466.635 56.8706 466.645 56.9344L466.809 57.0807C465.932 58.4007 465.526 60.0311 465.766 61.6923L465.552 61.7546C465.495 61.8274 465.416 61.9421 465.332 61.9763C465.069 62.0592 464.773 62.0896 464.416 62.127C464.248 62.141 464.103 62.1327 463.925 62.1664C463.886 62.1738 463.832 62.188 463.789 62.198C463.787 62.1984 463.786 62.1988 463.784 62.1991C463.782 62.1997 463.779 62.2008 463.777 62.2013C463.475 62.2741 463.282 62.5511 463.344 62.8239C463.407 63.0968 463.701 63.2628 464.004 63.1975C464.006 63.197 464.009 63.1969 464.012 63.1964C464.015 63.1956 464.018 63.1939 464.021 63.1931C464.064 63.1838 464.117 63.1735 464.154 63.1636C464.328 63.1168 464.455 63.048 464.612 62.9878C464.951 62.8664 465.231 62.7651 465.504 62.7256C465.618 62.7167 465.738 62.7959 465.797 62.8294L466.02 62.7912C466.533 64.3809 467.608 65.6658 468.968 66.4721L468.875 66.6949C468.909 66.7815 468.946 66.8985 468.921 66.984C468.822 67.2413 468.652 67.5128 468.458 67.8156C468.365 67.9555 468.269 68.064 468.184 68.2241C468.164 68.2624 468.138 68.3213 468.119 68.3618C467.987 68.6429 468.083 68.9666 468.336 69.0881C468.59 69.2104 468.905 69.0814 469.041 68.7998C469.042 68.7994 469.042 68.7991 469.043 68.7987C469.043 68.7983 469.042 68.7979 469.043 68.7976C469.062 68.7576 469.09 68.7051 469.106 68.6676C469.178 68.5017 469.202 68.3595 469.253 68.199C469.389 67.8593 469.463 67.5028 469.649 67.2807C469.7 67.2198 469.783 67.1964 469.869 67.1734L469.985 66.9636C471.171 67.419 472.499 67.5411 473.826 67.24C474.128 67.1713 474.42 67.0824 474.703 66.9757C474.735 67.0334 474.796 67.1443 474.812 67.1723C474.9 67.2008 474.995 67.2155 475.073 67.3306C475.212 67.5686 475.308 67.8502 475.424 68.1903C475.475 68.3507 475.5 68.4929 475.572 68.6589C475.589 68.6967 475.616 68.7499 475.636 68.7899C475.772 69.0725 476.088 69.2019 476.342 69.0794C476.595 68.9578 476.691 68.6341 476.56 68.353C476.54 68.3125 476.513 68.2537 476.493 68.2154C476.408 68.0553 476.313 67.9478 476.219 67.808C476.025 67.5052 475.865 67.2537 475.766 66.9964C475.724 66.8637 475.773 66.7812 475.805 66.6949C475.785 66.6728 475.744 66.5474 475.72 66.4885C477.134 65.6535 478.177 64.3207 478.667 62.7813C478.733 62.7917 478.848 62.8121 478.885 62.8196C478.962 62.7688 479.033 62.7027 479.171 62.7136C479.444 62.7531 479.724 62.8545 480.063 62.9757C480.22 63.036 480.346 63.1059 480.521 63.1527C480.558 63.1626 480.611 63.1718 480.653 63.1811C480.657 63.1819 480.66 63.1836 480.663 63.1844C480.666 63.1849 480.669 63.185 480.671 63.1855C480.974 63.2507 481.268 63.0848 481.331 62.8119C481.393 62.539 481.199 62.262 480.898 62.1893C480.854 62.1793 480.792 62.1624 480.75 62.1544C480.572 62.1207 480.427 62.129 480.259 62.115C479.902 62.0776 479.606 62.0471 479.343 61.9643C479.235 61.9227 479.159 61.7951 479.122 61.7426L478.916 61.6825C479.023 60.9081 478.994 60.1022 478.809 59.2959C478.622 58.482 478.291 57.7376 477.851 57.0818C477.904 57.0337 478.004 56.9451 478.032 56.9191C478.04 56.8274 478.033 56.7312 478.128 56.6296C478.329 56.4409 478.583 56.2843 478.888 56.0955C479.033 56.0101 479.168 55.9551 479.313 55.8476C479.346 55.8232 479.391 55.7847 479.426 55.7569C479.671 55.5613 479.727 55.2239 479.551 55.0032C479.375 54.7825 479.034 54.7618 478.789 54.9574C478.754 54.985 478.707 55.0211 478.675 55.048C478.538 55.1661 478.453 55.2827 478.338 55.4052C478.086 55.6613 477.877 55.8749 477.649 56.0289C477.549 56.0866 477.404 56.0666 477.338 56.0627L477.144 56.2015C476.035 55.0389 474.526 54.2956 472.9 54.1513C472.896 54.0831 472.89 53.96 472.888 53.923C472.822 53.8593 472.742 53.8049 472.721 53.6674C472.699 53.3925 472.736 53.0968 472.779 52.74C472.803 52.5734 472.842 52.4349 472.849 52.254C472.851 52.2129 472.848 52.1532 472.848 52.1087C472.848 51.795 472.619 51.5407 472.337 51.5407ZM471.697 55.5057L471.545 58.1872L471.534 58.1927C471.524 58.4326 471.326 58.6241 471.084 58.6241C470.985 58.6241 470.893 58.5922 470.819 58.5378L470.814 58.54L468.615 56.9813C469.291 56.3169 470.156 55.8258 471.152 55.5996C471.334 55.5583 471.516 55.5276 471.697 55.5057ZM472.978 55.5057C474.141 55.6487 475.217 56.1753 476.041 56.9824L473.856 58.5313L473.849 58.528C473.655 58.6696 473.381 58.6345 473.23 58.445C473.168 58.3674 473.136 58.2761 473.132 58.1839L473.13 58.1828L472.978 55.5057ZM467.818 57.983L469.826 59.7787L469.824 59.7896C470.005 59.9471 470.031 60.2205 469.88 60.41C469.818 60.4876 469.736 60.5397 469.647 60.564L469.644 60.5727L467.071 61.3155C466.94 60.1178 467.222 58.9536 467.818 57.983ZM476.841 57.984C477.14 58.4675 477.366 59.0075 477.5 59.593C477.633 60.1714 477.666 60.7488 477.611 61.3067L475.025 60.5618L475.023 60.5509C474.791 60.4876 474.649 60.252 474.703 60.0157C474.725 59.9189 474.776 59.837 474.846 59.7765L474.845 59.771L476.841 57.984ZM471.925 59.9174H472.748L473.259 60.5564L473.075 61.3537L472.337 61.7087L471.596 61.3526L471.413 60.5553L471.925 59.9174ZM474.562 62.1041C474.597 62.1023 474.632 62.1055 474.666 62.1118L474.67 62.1063L477.332 62.5563C476.942 63.6508 476.197 64.599 475.201 65.2335L474.168 62.7376L474.171 62.7333C474.076 62.5127 474.171 62.2541 474.389 62.1489C474.445 62.122 474.504 62.1071 474.562 62.1041ZM470.091 62.115C470.294 62.1179 470.476 62.2589 470.524 62.4657C470.546 62.5625 470.535 62.6584 470.499 62.7431L470.506 62.7529L469.484 65.2236C468.528 64.6103 467.767 63.6919 467.359 62.5651L469.998 62.1172L470.003 62.1227C470.032 62.1172 470.062 62.1146 470.091 62.115ZM472.32 63.1975C472.391 63.1949 472.463 63.2094 472.531 63.2423C472.621 63.2853 472.69 63.3532 472.733 63.4345H472.743L474.044 65.7851C473.875 65.8417 473.702 65.89 473.524 65.9303C472.529 66.1562 471.538 66.0878 470.639 65.7818L471.937 63.4356H471.939C472.017 63.29 472.165 63.2032 472.32 63.1975Z" stroke="white" stroke-width="0.227933"/>
<rect x="199" y="85" width="73.0981" height="73.0981" rx="36.549" fill="white" fill-opacity="0.1"/>
<rect x="199.503" y="85.503" width="72.0921" height="72.0921" rx="36.046" stroke="black" stroke-opacity="0.2" stroke-width="1.00601"/>
<path d="M229.056 119.114C229.056 119.48 229.095 119.777 229.164 119.995C229.244 120.213 229.343 120.45 229.481 120.708C229.531 120.787 229.55 120.866 229.55 120.935C229.55 121.034 229.491 121.133 229.362 121.232L228.739 121.648C228.65 121.707 228.561 121.737 228.481 121.737C228.382 121.737 228.283 121.688 228.184 121.598C228.046 121.45 227.927 121.292 227.828 121.133C227.729 120.965 227.63 120.777 227.521 120.549C226.749 121.46 225.779 121.915 224.611 121.915C223.78 121.915 223.117 121.678 222.632 121.203C222.147 120.727 221.899 120.094 221.899 119.302C221.899 118.461 222.196 117.778 222.8 117.263C223.404 116.748 224.205 116.491 225.225 116.491C225.561 116.491 225.908 116.521 226.274 116.57C226.64 116.62 227.016 116.699 227.412 116.788V116.065C227.412 115.313 227.254 114.788 226.947 114.482C226.63 114.175 226.096 114.026 225.334 114.026C224.987 114.026 224.631 114.066 224.265 114.155C223.899 114.244 223.542 114.353 223.196 114.491C223.037 114.561 222.919 114.6 222.849 114.62C222.78 114.64 222.731 114.65 222.691 114.65C222.552 114.65 222.483 114.551 222.483 114.343V113.858C222.483 113.7 222.503 113.581 222.552 113.512C222.602 113.442 222.691 113.373 222.829 113.304C223.176 113.126 223.592 112.977 224.077 112.858C224.562 112.73 225.076 112.67 225.621 112.67C226.799 112.67 227.66 112.937 228.214 113.472C228.759 114.006 229.036 114.818 229.036 115.907V119.114H229.056ZM225.037 120.619C225.363 120.619 225.7 120.559 226.056 120.44C226.413 120.322 226.729 120.104 226.997 119.807C227.155 119.619 227.274 119.411 227.333 119.173C227.393 118.936 227.432 118.649 227.432 118.312V117.896C227.145 117.827 226.838 117.768 226.522 117.728C226.205 117.689 225.898 117.669 225.591 117.669C224.928 117.669 224.443 117.798 224.116 118.065C223.79 118.332 223.631 118.708 223.631 119.203C223.631 119.668 223.75 120.015 223.998 120.252C224.235 120.5 224.582 120.619 225.037 120.619ZM232.985 121.688C232.807 121.688 232.688 121.658 232.609 121.589C232.53 121.529 232.461 121.391 232.401 121.203L230.075 113.551C230.016 113.353 229.986 113.224 229.986 113.155C229.986 112.997 230.065 112.908 230.224 112.908H231.194C231.382 112.908 231.51 112.937 231.58 113.007C231.659 113.066 231.718 113.205 231.778 113.393L233.44 119.945L234.985 113.393C235.034 113.195 235.094 113.066 235.173 113.007C235.252 112.947 235.39 112.908 235.569 112.908H236.36C236.549 112.908 236.677 112.937 236.756 113.007C236.836 113.066 236.905 113.205 236.944 113.393L238.508 120.025L240.221 113.393C240.28 113.195 240.35 113.066 240.419 113.007C240.498 112.947 240.627 112.908 240.805 112.908H241.725C241.884 112.908 241.973 112.987 241.973 113.155C241.973 113.205 241.963 113.254 241.953 113.314C241.943 113.373 241.923 113.452 241.884 113.561L239.498 121.212C239.439 121.41 239.37 121.539 239.29 121.598C239.211 121.658 239.083 121.697 238.914 121.697H238.063C237.875 121.697 237.746 121.668 237.667 121.598C237.588 121.529 237.519 121.401 237.479 121.203L235.945 114.818L234.42 121.193C234.371 121.391 234.312 121.519 234.232 121.589C234.153 121.658 234.015 121.688 233.836 121.688H232.985ZM245.705 121.955C245.19 121.955 244.675 121.895 244.18 121.777C243.685 121.658 243.299 121.529 243.042 121.381C242.883 121.292 242.775 121.193 242.735 121.104C242.695 121.014 242.676 120.915 242.676 120.826V120.322C242.676 120.114 242.755 120.015 242.903 120.015C242.963 120.015 243.022 120.025 243.081 120.044C243.141 120.064 243.23 120.104 243.329 120.143C243.665 120.292 244.032 120.411 244.418 120.49C244.814 120.569 245.2 120.609 245.596 120.609C246.219 120.609 246.704 120.5 247.041 120.282C247.377 120.064 247.555 119.747 247.555 119.342C247.555 119.064 247.466 118.837 247.288 118.649C247.11 118.461 246.774 118.292 246.289 118.134L244.853 117.689C244.131 117.461 243.596 117.124 243.27 116.679C242.943 116.243 242.775 115.758 242.775 115.244C242.775 114.828 242.864 114.462 243.042 114.145C243.22 113.828 243.458 113.551 243.755 113.333C244.051 113.106 244.388 112.937 244.784 112.819C245.18 112.7 245.596 112.65 246.031 112.65C246.249 112.65 246.477 112.66 246.694 112.69C246.922 112.72 247.13 112.759 247.338 112.799C247.536 112.848 247.724 112.898 247.902 112.957C248.08 113.017 248.219 113.076 248.318 113.135C248.456 113.215 248.555 113.294 248.615 113.383C248.674 113.462 248.704 113.571 248.704 113.71V114.175C248.704 114.383 248.625 114.491 248.476 114.491C248.397 114.491 248.268 114.452 248.1 114.373C247.536 114.115 246.902 113.987 246.199 113.987C245.635 113.987 245.19 114.076 244.883 114.264C244.576 114.452 244.418 114.739 244.418 115.145C244.418 115.422 244.517 115.659 244.715 115.848C244.913 116.036 245.279 116.224 245.803 116.392L247.209 116.837C247.922 117.065 248.436 117.382 248.743 117.788C249.05 118.193 249.199 118.659 249.199 119.173C249.199 119.599 249.11 119.985 248.941 120.322C248.763 120.658 248.526 120.955 248.219 121.193C247.912 121.44 247.546 121.618 247.12 121.747C246.675 121.886 246.209 121.955 245.705 121.955Z" fill="white"/>
<path fill-rule="evenodd" clip-rule="evenodd" d="M247.575 126.765C244.319 129.171 239.587 130.448 235.519 130.448C229.818 130.448 224.68 128.339 220.8 124.835C220.493 124.558 220.771 124.182 221.137 124.4C225.334 126.835 230.511 128.31 235.866 128.31C239.478 128.31 243.448 127.557 247.1 126.013C247.645 125.766 248.11 126.369 247.575 126.765Z" fill="#FF9900"/>
<path fill-rule="evenodd" clip-rule="evenodd" d="M248.931 125.221C248.516 124.687 246.18 124.964 245.12 125.093C244.804 125.132 244.754 124.855 245.041 124.647C246.902 123.341 249.961 123.717 250.317 124.152C250.673 124.598 250.218 127.656 248.476 129.121C248.209 129.349 247.951 129.23 248.07 128.933C248.466 127.953 249.347 125.746 248.931 125.221Z" fill="#FF9900"/>
<rect x="489.577" y="85" width="73.0981" height="73.0981" rx="36.549" fill="white" fill-opacity="0.1"/>
<rect x="490.08" y="85.503" width="72.0921" height="72.0921" rx="36.046" stroke="black" stroke-opacity="0.2" stroke-width="1.00601"/>
<path fill-rule="evenodd" clip-rule="evenodd" d="M534.532 110.888C536.981 112.573 538.871 114.95 539.959 117.716C541.049 120.48 541.286 123.507 540.641 126.408C539.997 129.308 538.501 131.95 536.344 133.996C536.092 134.24 535.798 134.439 535.476 134.58C535.154 134.722 534.809 134.805 534.458 134.824C534.107 134.845 533.755 134.803 533.419 134.699C533.084 134.597 532.769 134.435 532.488 134.221C531.575 133.541 530.559 133.012 529.478 132.655C528.396 132.297 527.266 132.115 526.127 132.115C524.987 132.115 523.856 132.297 522.775 132.655C521.695 133.012 520.677 133.541 519.763 134.221C519.486 134.434 519.175 134.597 518.842 134.701C518.508 134.805 518.159 134.849 517.81 134.83C517.462 134.813 517.119 134.733 516.798 134.595C516.478 134.456 516.184 134.263 515.93 134.022C513.758 131.969 512.251 129.312 511.606 126.392C510.962 123.473 511.21 120.429 512.319 117.653C513.428 114.876 515.344 112.497 517.822 110.824C520.299 109.15 523.222 108.257 526.214 108.264C529.186 108.289 532.083 109.205 534.532 110.888ZM529 130.11C529.914 129.746 530.744 129.2 531.44 128.506C532.136 127.81 532.682 126.982 533.046 126.068C533.41 125.156 533.584 124.178 533.557 123.196C533.557 121.227 532.775 119.339 531.381 117.945C529.988 116.552 528.098 115.769 526.127 115.769C524.155 115.769 522.265 116.552 520.872 117.945C519.479 119.339 518.696 121.227 518.696 123.196C518.669 124.178 518.844 125.156 519.208 126.068C519.572 126.982 520.117 127.81 520.813 128.506C521.509 129.2 522.339 129.746 523.251 130.11C524.165 130.474 525.143 130.648 526.127 130.621C527.109 130.648 528.087 130.474 529 130.11Z" fill="#62D84E"/>
<rect x="58" y="51" width="73.0981" height="73.0981" rx="36.549" fill="white" fill-opacity="0.1"/>
<rect x="58.503" y="51.503" width="72.0921" height="72.0921" rx="36.046" stroke="black" stroke-opacity="0.2" stroke-width="1.00601"/>
<path fill-rule="evenodd" clip-rule="evenodd" d="M92.0524 79.4001C93.0126 78.4006 94.349 77.7816 95.8254 77.7816C97.7939 77.7816 99.4999 78.8752 100.419 80.5047C101.234 80.1401 102.117 79.9519 103.01 79.9524C106.554 79.9524 109.43 82.8504 109.43 86.4265C109.43 90.0026 106.554 92.9007 103.01 92.9007C102.577 92.9007 102.155 92.8571 101.742 92.7749C100.938 94.2075 99.4015 95.1808 97.6517 95.1808C96.9393 95.1822 96.236 95.0206 95.5957 94.7084C94.781 96.6222 92.8836 97.9673 90.6745 97.9673C88.367 97.9673 86.4094 96.5128 85.6549 94.4678C85.319 94.5387 84.9767 94.5743 84.6334 94.5741C81.8885 94.5741 79.6685 92.3213 79.6685 89.5545C79.6685 87.6953 80.668 86.0768 82.1509 85.2019C81.8363 84.4772 81.6744 83.6954 81.6752 82.9053C81.6752 79.712 84.2671 77.1311 87.4604 77.1311C89.3305 77.1311 91.0037 78.0224 92.0535 79.4058" fill="#00A1E0"/>
<path fill-rule="evenodd" clip-rule="evenodd" d="M84.0035 87.9302C83.9848 87.979 84.0102 87.9892 84.0162 87.9978C84.0721 88.0383 84.1288 88.0676 84.1857 88.1005C84.4897 88.2613 84.7762 88.3083 85.0759 88.3083C85.6861 88.3083 86.0656 87.9835 86.0656 87.4607V87.4505C86.0656 86.9671 85.6369 86.791 85.2367 86.6653L85.1843 86.6483C84.8813 86.5501 84.62 86.4646 84.62 86.2655V86.2554C84.62 86.0848 84.7731 85.959 85.0093 85.959C85.2718 85.959 85.5845 86.0464 85.7847 86.157C85.7847 86.157 85.8439 86.1952 85.8655 86.138C85.8772 86.1071 85.9792 85.834 85.9901 85.8034C86.0017 85.7713 85.9814 85.7472 85.9605 85.7347C85.7309 85.5947 85.4137 85.4996 85.0856 85.4996L85.0247 85.4998C84.4659 85.4998 84.0755 85.8377 84.0755 86.3211V86.3315C84.0755 86.8411 84.5063 87.0073 84.9088 87.1222L84.9735 87.1423C85.2666 87.2324 85.5203 87.3107 85.5203 87.5163V87.5266C85.5203 87.7158 85.3552 87.8569 85.0905 87.8569C84.9876 87.8569 84.6597 87.8551 84.3042 87.6305C84.2613 87.6054 84.2368 87.5874 84.2036 87.5672C84.1861 87.5565 84.1424 87.5374 84.1234 87.5947L84.0031 87.9294M92.9378 87.9294C92.9191 87.9781 92.9445 87.9883 92.9507 87.9969C93.0064 88.0374 93.0634 88.0667 93.1202 88.0996C93.4243 88.2604 93.7108 88.3074 94.0104 88.3074C94.6207 88.3074 95.0001 87.9826 95.0001 87.4599V87.4496C95.0001 86.9662 94.5725 86.7901 94.1712 86.6644L94.1188 86.6474C93.8159 86.5492 93.5545 86.4637 93.5545 86.2647V86.2545C93.5545 86.0839 93.7076 85.9581 93.9438 85.9581C94.2063 85.9581 94.518 86.0455 94.7192 86.1561C94.7192 86.1561 94.7785 86.1944 94.8001 86.1372C94.8117 86.1062 94.9139 85.8331 94.9237 85.8025C94.9354 85.7705 94.9149 85.7463 94.8942 85.7338C94.6645 85.5939 94.3474 85.4987 94.0193 85.4987L93.9583 85.4989C93.3994 85.4989 93.009 85.8369 93.009 86.3202V86.3306C93.009 86.8402 93.4399 87.0065 93.8423 87.1213L93.907 87.1414C94.2012 87.2315 94.4538 87.3098 94.4538 87.5154V87.5257C94.4538 87.7149 94.2886 87.856 94.024 87.856C93.9209 87.856 93.592 87.8542 93.2377 87.6296C93.1947 87.6046 93.1696 87.5873 93.137 87.5663C93.1259 87.5593 93.0744 87.5392 93.0568 87.5938L92.9365 87.9285M99.0388 86.9049C99.0388 87.2001 98.9837 87.4331 98.8759 87.5982C98.7683 87.7612 98.6058 87.841 98.3794 87.841C98.153 87.841 97.9911 87.7618 97.8851 87.5993C97.7782 87.4353 97.7243 87.2012 97.7243 86.906C97.7243 86.6107 97.7786 86.3788 97.8851 86.2159C97.9909 86.054 98.1519 85.9764 98.3794 85.9764C98.6068 85.9764 98.7687 86.0548 98.8759 86.2159C98.9844 86.3788 99.0388 86.6107 99.0388 86.906M99.5484 86.3581C99.4982 86.1886 99.4205 86.0398 99.3166 85.9152C99.2126 85.7905 99.0815 85.6899 98.9251 85.6177C98.7698 85.545 98.5861 85.5083 98.3783 85.5083C98.1705 85.5083 97.9879 85.5452 97.8315 85.6177C97.6762 85.6903 97.5439 85.7905 97.44 85.9152C97.3363 86.0398 97.2584 86.1886 97.2081 86.3581C97.1584 86.5265 97.1331 86.7102 97.1331 86.906C97.1331 87.1017 97.1584 87.2854 97.2081 87.4539C97.2581 87.6234 97.3361 87.7721 97.44 87.8968C97.544 88.0214 97.6762 88.121 97.8315 88.192C97.9879 88.2629 98.1716 88.299 98.3783 88.299C98.585 88.299 98.7687 88.2629 98.924 88.192C99.0793 88.1212 99.2116 88.0214 99.3155 87.8968C99.4193 87.7721 99.497 87.6234 99.5473 87.4539C99.597 87.2854 99.6223 87.1017 99.6223 86.906C99.6223 86.7113 99.597 86.5265 99.5473 86.3581M103.736 87.7579C103.719 87.7083 103.671 87.727 103.671 87.727C103.597 87.7554 103.518 87.7816 103.433 87.7947C103.349 87.8081 103.254 87.8147 103.155 87.8147C102.909 87.8147 102.712 87.7414 102.572 87.596C102.431 87.4506 102.352 87.2165 102.353 86.8994C102.354 86.6107 102.424 86.3942 102.549 86.2279C102.672 86.0639 102.863 85.9786 103.114 85.9786C103.324 85.9786 103.485 86.003 103.653 86.0557C103.653 86.0557 103.693 86.0731 103.712 86.0205C103.757 85.8969 103.79 85.8083 103.838 85.6727C103.852 85.6339 103.818 85.6175 103.806 85.6128C103.74 85.587 103.584 85.5446 103.466 85.5268C103.356 85.51 103.228 85.5012 103.083 85.5012C102.869 85.5012 102.679 85.5379 102.516 85.6105C102.353 85.683 102.215 85.7833 102.106 85.9079C101.996 86.0326 101.913 86.1813 101.857 86.3508C101.802 86.5193 101.774 86.7041 101.774 86.8998C101.774 87.322 101.888 87.6643 102.113 87.9147C102.339 88.1662 102.678 88.2931 103.119 88.2931C103.381 88.2931 103.649 88.2403 103.841 88.164C103.841 88.164 103.878 88.1463 103.862 88.1035L103.736 87.7579M104.628 86.6205C104.652 86.4565 104.697 86.3198 104.768 86.2137C104.873 86.0519 105.034 85.9633 105.261 85.9633C105.487 85.9633 105.637 86.0523 105.744 86.2137C105.815 86.3203 105.846 86.462 105.858 86.6205L104.622 86.6203L104.628 86.6205ZM106.345 86.2596C106.301 86.0967 106.194 85.9316 106.124 85.8561C106.012 85.7369 105.904 85.6527 105.796 85.6068C105.639 85.5403 105.471 85.5062 105.301 85.5065C105.086 85.5065 104.89 85.5429 104.731 85.6169C104.573 85.6915 104.439 85.793 104.334 85.9199C104.23 86.0467 104.151 86.1965 104.1 86.3682C104.05 86.5377 104.025 86.7237 104.025 86.9183C104.025 87.1174 104.051 87.3022 104.103 87.4695C104.155 87.6379 104.24 87.7855 104.353 87.908C104.467 88.0316 104.613 88.1278 104.788 88.1956C104.961 88.2629 105.173 88.2978 105.414 88.297C105.913 88.2954 106.175 88.1844 106.283 88.1242C106.302 88.1135 106.32 88.095 106.297 88.0418L106.185 87.7257C106.167 87.6786 106.12 87.6957 106.12 87.6957C105.996 87.7418 105.821 87.8247 105.411 87.8236C105.143 87.8232 104.945 87.7441 104.82 87.6202C104.694 87.4933 104.63 87.3085 104.62 87.0461L106.348 87.0474C106.348 87.0474 106.394 87.0469 106.398 87.0025C106.4 86.9842 106.458 86.6482 106.347 86.26L106.345 86.2596ZM90.8154 86.6205C90.8397 86.4565 90.8848 86.3198 90.9553 86.2137C91.0612 86.0519 91.2222 85.9633 91.4485 85.9633C91.6749 85.9633 91.8247 86.0523 91.9319 86.2137C92.0029 86.3203 92.034 86.462 92.0457 86.6205L90.8099 86.6203L90.8154 86.6205ZM92.5323 86.2596C92.489 86.0967 92.3814 85.9316 92.3114 85.8561C92.1999 85.7369 92.0916 85.6527 91.9833 85.6068C91.827 85.5403 91.6589 85.5062 91.489 85.5065C91.2736 85.5065 91.0778 85.5429 90.9192 85.6169C90.7607 85.6915 90.6273 85.793 90.5223 85.9199C90.4176 86.0467 90.3385 86.1965 90.2882 86.3682C90.238 86.5377 90.2128 86.7237 90.2128 86.9183C90.2128 87.1174 90.2389 87.3022 90.2911 87.4695C90.3434 87.6379 90.4278 87.7855 90.5404 87.908C90.6542 88.0316 90.7996 88.1278 90.9746 88.1956C91.1485 88.2629 91.3584 88.2978 91.6012 88.297C92.0999 88.2954 92.3624 88.1844 92.4695 88.1242C92.4886 88.1135 92.5067 88.095 92.4841 88.0418L92.3714 87.7257C92.3541 87.6786 92.3064 87.6957 92.3064 87.6957C92.1828 87.7418 92.0078 87.8247 91.5977 87.8236C91.3309 87.8232 91.1318 87.7441 91.0072 87.6202C90.8803 87.4933 90.8169 87.3085 90.807 87.0461L92.5349 87.0474C92.5349 87.0474 92.5804 87.0469 92.5851 87.0025C92.587 86.9842 92.6443 86.6482 92.5335 86.26L92.5323 86.2596ZM87.0862 87.7469C87.0185 87.6929 87.0091 87.6797 86.9866 87.6446C86.9524 87.5918 86.9349 87.5166 86.9349 87.4204C86.9349 87.2695 86.9852 87.1601 87.0891 87.0868C87.088 87.0871 87.2378 86.9578 87.59 86.9622C87.7467 86.965 87.9031 86.9783 88.058 87.0021V87.7862H88.0583C88.0583 87.7862 87.8395 87.8333 87.5924 87.8482C87.2413 87.8693 87.086 87.7472 87.0871 87.7475L87.0862 87.7469ZM87.7729 86.533C87.703 86.5279 87.6122 86.5254 87.5039 86.5254C87.3563 86.5254 87.213 86.5438 87.0796 86.5798C86.9451 86.6162 86.8237 86.6724 86.7198 86.7472C86.6156 86.8215 86.5299 86.9188 86.4694 87.0315C86.4082 87.1452 86.3771 87.2787 86.3771 87.4296C86.3771 87.5827 86.4036 87.715 86.4561 87.8233C86.5076 87.9307 86.585 88.0235 86.6814 88.0934C86.7773 88.1632 86.8958 88.2148 87.0325 88.2454C87.1681 88.2764 87.3212 88.292 87.4896 88.292C87.6668 88.292 87.8428 88.2771 88.0134 88.2484C88.1587 88.2233 88.3035 88.1952 88.4476 88.1639C88.5051 88.1507 88.569 88.1333 88.569 88.1333C88.6116 88.1225 88.6083 88.0769 88.6083 88.0769L88.6074 86.5021C88.6074 86.1565 88.5151 85.8995 88.3329 85.7409C88.1513 85.5824 87.8856 85.5025 87.5411 85.5025C87.4121 85.5025 87.2032 85.52 87.0785 85.5451C87.0785 85.5451 86.7023 85.6181 86.547 85.7397C86.547 85.7397 86.5129 85.7607 86.5315 85.8083L86.654 86.1364C86.6692 86.1789 86.7106 86.1644 86.7106 86.1644C86.7106 86.1644 86.7236 86.1592 86.7389 86.1502C87.0703 85.9697 87.4902 85.9752 87.4902 85.9752C87.6762 85.9752 87.8205 86.0129 87.9168 86.0867C88.0109 86.159 88.0589 86.2683 88.0589 86.4979V86.5709C87.9113 86.5494 87.7746 86.5371 87.7746 86.5371L87.7729 86.533ZM101.662 85.6439C101.664 85.6382 101.666 85.632 101.666 85.6257C101.666 85.6194 101.664 85.6132 101.662 85.6074C101.66 85.6016 101.656 85.5963 101.651 85.5919C101.647 85.5876 101.642 85.5841 101.636 85.5818C101.606 85.5707 101.46 85.5397 101.347 85.5327C101.131 85.5192 101.01 85.5557 100.902 85.6042C100.795 85.6525 100.677 85.73 100.611 85.8197L100.611 85.6097C100.611 85.5808 100.59 85.5575 100.561 85.5575H100.12C100.091 85.5575 100.07 85.5808 100.07 85.6097V88.1797C100.07 88.1936 100.076 88.2069 100.085 88.2167C100.095 88.2265 100.109 88.232 100.122 88.2321H100.575C100.589 88.232 100.602 88.2265 100.612 88.2167C100.622 88.2069 100.628 88.1936 100.628 88.1797V86.8892C100.628 86.7164 100.647 86.5447 100.684 86.4365C100.722 86.3294 100.773 86.244 100.835 86.1828C100.895 86.1236 100.968 86.0797 101.049 86.0548C101.124 86.0332 101.202 86.0222 101.28 86.0222C101.371 86.0222 101.47 86.0454 101.47 86.0454C101.503 86.0491 101.521 86.0288 101.533 85.9988C101.562 85.92 101.646 85.6839 101.663 85.6368" fill="#FFFFFE"/>
<path fill-rule="evenodd" clip-rule="evenodd" d="M97.4331 84.4578C97.3771 84.4409 97.3202 84.4274 97.2626 84.4174C97.1851 84.4044 97.1067 84.3983 97.0281 84.3992C96.7161 84.3992 96.4702 84.4873 96.2975 84.6614C96.126 84.8342 96.0093 85.0975 95.9508 85.4438L95.9297 85.5607H95.5381C95.5381 85.5607 95.4903 85.5588 95.4802 85.6109L95.4159 85.9696C95.4114 86.004 95.4262 86.0254 95.4721 86.0252H95.8534L95.4666 88.1843C95.4363 88.3582 95.4016 88.5012 95.3632 88.6096C95.3254 88.7165 95.2884 88.7967 95.2429 88.8549C95.1988 88.9112 95.1571 88.9526 95.085 88.9768C95.0255 88.9968 94.9571 89.006 94.882 89.006C94.8403 89.006 94.7847 88.999 94.7437 88.9908C94.7027 88.9827 94.6814 88.9735 94.6506 88.9606C94.6506 88.9606 94.6059 88.9436 94.5883 88.9884C94.574 89.025 94.4724 89.3045 94.4603 89.339C94.4481 89.3731 94.4653 89.4 94.4869 89.4078C94.5377 89.426 94.5754 89.4375 94.6445 89.4538C94.7405 89.4765 94.8214 89.4779 94.8972 89.4779C95.056 89.4779 95.2007 89.4556 95.3207 89.4123C95.4414 89.3687 95.5465 89.2926 95.6395 89.1897C95.74 89.0787 95.8032 88.9625 95.8636 88.8039C95.9235 88.6468 95.9744 88.4517 96.0152 88.2243L96.4039 86.0252H96.9721C96.9721 86.0252 97.02 86.0269 97.03 85.975L97.0943 85.6163C97.0988 85.5819 97.0841 85.5605 97.038 85.5607H96.4865C96.4892 85.5483 96.5142 85.3542 96.5776 85.1716C96.6046 85.0936 96.6554 85.0308 96.6985 84.9876C96.7387 84.9464 96.7883 84.9156 96.843 84.8977C96.9029 84.8791 96.9654 84.8701 97.0281 84.871C97.0801 84.871 97.131 84.8772 97.1699 84.8853C97.2233 84.8967 97.2441 84.9027 97.2581 84.9069C97.3143 84.924 97.3219 84.9074 97.3329 84.8802L97.4648 84.518C97.4784 84.479 97.4453 84.4626 97.4331 84.4578ZM89.726 88.1889C89.726 88.2177 89.7055 88.2413 89.6766 88.2413H89.2191C89.1901 88.2413 89.1696 88.2177 89.1696 88.1889V84.5069C89.1696 84.4782 89.1901 84.4549 89.2191 84.4549H89.6766C89.7055 84.4549 89.726 84.4782 89.726 84.5069V88.1889Z" fill="#FFFFFE"/>
<rect x="630.577" y="51" width="73.0981" height="73.0981" rx="36.549" fill="white" fill-opacity="0.1"/>
<rect x="631.08" y="51.503" width="72.0921" height="72.0921" rx="36.046" stroke="black" stroke-opacity="0.2" stroke-width="1.00601"/>
<path d="M666.864 72.4822C665.65 72.4878 664.491 72.5913 663.471 72.7718C660.467 73.3026 659.921 74.4136 659.921 76.4626V79.1685H667.021V80.0705H657.257C655.193 80.0705 653.386 81.3108 652.821 83.6703C652.169 86.3747 652.14 88.0623 652.821 90.8862C653.326 92.9882 654.531 94.4859 656.595 94.4859H659.036V91.2421C659.036 88.8986 661.063 86.8314 663.471 86.8314H670.563C672.537 86.8314 674.113 85.206 674.113 83.2234V76.4626C674.113 74.5384 672.49 73.0929 670.563 72.7718C669.343 72.5688 668.078 72.4765 666.864 72.4822ZM663.024 74.6586C663.758 74.6586 664.357 75.2673 664.357 76.0157C664.357 76.7615 663.758 77.3645 663.024 77.3645C662.288 77.3645 661.692 76.7615 661.692 76.0157C661.692 75.2673 662.288 74.6586 663.024 74.6586Z" fill="url(#paint7_linear_20055_18856)"/>
<path d="M674.999 80.0706V83.2234C674.999 85.6678 672.926 87.7251 670.563 87.7251H663.471C661.529 87.7251 659.921 89.3877 659.921 91.3331V98.094C659.921 100.018 661.594 101.15 663.471 101.702C665.719 102.363 667.874 102.482 670.563 101.702C672.351 101.184 674.113 100.143 674.113 98.094V95.388H667.021V94.486H677.663C679.727 94.486 680.496 93.0466 681.213 90.8862C681.955 88.6622 681.923 86.5234 681.213 83.6703C680.703 81.616 679.729 80.0706 677.663 80.0706H674.999ZM671.01 97.192C671.746 97.192 672.342 97.795 672.342 98.5408C672.342 99.2892 671.746 99.8979 671.01 99.8979C670.277 99.8979 669.678 99.2892 669.678 98.5408C669.678 97.795 670.277 97.192 671.01 97.192Z" fill="url(#paint8_linear_20055_18856)"/>
<defs>
<linearGradient id="paint0_linear_20055_18856" x1="384" y1="0" x2="384" y2="419" gradientUnits="userSpaceOnUse">
<stop stop-color="#0D0D10"/>
<stop offset="1" stop-color="#4742FF"/>
</linearGradient>
<linearGradient id="paint1_linear_20055_18856" x1="176.655" y1="23.6726" x2="181.788" y2="47.7695" gradientUnits="userSpaceOnUse">
<stop stop-color="#114A8B"/>
<stop offset="1" stop-color="#0669BC"/>
</linearGradient>
<linearGradient id="paint2_linear_20055_18856" x1="178.892" y1="34.205" x2="180.847" y2="34.9569" gradientUnits="userSpaceOnUse">
<stop stop-opacity="0.3"/>
<stop offset="0.071" stop-opacity="0.2"/>
<stop offset="0.321" stop-opacity="0.1"/>
<stop offset="0.623" stop-opacity="0.05"/>
<stop offset="1" stop-opacity="0"/>
</linearGradient>
<linearGradient id="paint3_linear_20055_18856" x1="181.709" y1="23.0131" x2="173.311" y2="45.3861" gradientUnits="userSpaceOnUse">
<stop stop-color="#3CCBF4"/>
<stop offset="1" stop-color="#2892DF"/>
</linearGradient>
<linearGradient id="paint4_linear_20055_18856" x1="275.101" y1="45.9895" x2="281.641" y2="77.1456" gradientUnits="userSpaceOnUse">
<stop stop-color="#E6AD10"/>
<stop offset="1" stop-color="#C87E0E"/>
</linearGradient>
<linearGradient id="paint5_linear_20055_18856" x1="277.469" y1="46.3375" x2="287.131" y2="77.9306" gradientUnits="userSpaceOnUse">
<stop stop-color="#F6D751"/>
<stop offset="1" stop-color="#E6AD10"/>
</linearGradient>
<linearGradient id="paint6_linear_20055_18856" x1="280.337" y1="59.5674" x2="286.042" y2="73.51" gradientUnits="userSpaceOnUse">
<stop stop-color="#F9E589"/>
<stop offset="1" stop-color="#F6D751"/>
</linearGradient>
<linearGradient id="paint7_linear_20055_18856" x1="652.321" y1="72.4819" x2="674.461" y2="91.3233" gradientUnits="userSpaceOnUse">
<stop stop-color="#5A9FD4"/>
<stop offset="1" stop-color="#306998"/>
</linearGradient>
<linearGradient id="paint8_linear_20055_18856" x1="670.839" y1="98.3133" x2="664.966" y2="90.0825" gradientUnits="userSpaceOnUse">
<stop stop-color="#FFD43B"/>
<stop offset="1" stop-color="#FFE873"/>
</linearGradient>
</defs>
</svg>
