<svg width="1720" height="644" viewBox="0 0 1720 644" fill="none" xmlns="http://www.w3.org/2000/svg">
<mask id="mask0_22685_111421" style="mask-type:alpha" maskUnits="userSpaceOnUse" x="0" y="-70" width="1362" height="964">
<g opacity="0.22">
<rect x="0.358339" y="0.112001" width="68.0381" height="68.0381" stroke="white" stroke-width="0.71619"/>
<rect x="68.3964" y="0.112001" width="68.0381" height="68.0381" stroke="white" stroke-width="0.71619"/>
<rect x="136.434" y="0.112001" width="68.0381" height="68.0381" stroke="white" stroke-width="0.71619"/>
<rect x="204.472" y="0.112001" width="68.0381" height="68.0381" stroke="white" stroke-width="0.71619"/>
<rect x="272.51" y="0.112001" width="68.0381" height="68.0381" stroke="white" stroke-width="0.71619"/>
<rect x="340.548" y="0.112001" width="68.0381" height="68.0381" stroke="white" stroke-width="0.71619"/>
<rect x="408.586" y="0.112001" width="68.0381" height="68.0381" stroke="white" stroke-width="0.71619"/>
<rect x="476.624" y="0.112001" width="68.0381" height="68.0381" stroke="white" stroke-width="0.71619"/>
<rect x="544.662" y="0.112001" width="68.0381" height="68.0381" stroke="white" stroke-width="0.71619"/>
<rect x="612.7" y="0.112001" width="68.0381" height="68.0381" stroke="white" stroke-width="0.71619"/>
<rect x="680.738" y="0.112001" width="68.0381" height="68.0381" stroke="white" stroke-width="0.71619"/>
<rect x="748.776" y="0.112001" width="68.0381" height="68.0381" stroke="white" stroke-width="0.71619"/>
<rect x="816.814" y="0.112001" width="68.0381" height="68.0381" stroke="white" stroke-width="0.71619"/>
<rect x="884.852" y="0.112001" width="68.0381" height="68.0381" stroke="white" stroke-width="0.71619"/>
<rect x="952.891" y="0.112001" width="68.0381" height="68.0381" stroke="white" stroke-width="0.71619"/>
<rect x="1020.93" y="0.112001" width="68.0381" height="68.0381" stroke="white" stroke-width="0.71619"/>
<rect x="1088.97" y="0.112001" width="68.0381" height="68.0381" stroke="white" stroke-width="0.71619"/>
<rect x="1157" y="0.112001" width="68.0381" height="68.0381" stroke="white" stroke-width="0.71619"/>
<rect x="1225.04" y="0.112001" width="68.0381" height="68.0381" stroke="white" stroke-width="0.71619"/>
<rect x="1293.08" y="0.112001" width="68.0381" height="68.0381" stroke="white" stroke-width="0.71619"/>
<rect x="0.358339" y="68.8662" width="68.0381" height="68.0381" stroke="white" stroke-width="0.71619"/>
<rect x="68.3964" y="68.8662" width="68.0381" height="68.0381" stroke="white" stroke-width="0.71619"/>
<rect x="136.434" y="68.8662" width="68.0381" height="68.0381" stroke="white" stroke-width="0.71619"/>
<rect x="204.472" y="68.8662" width="68.0381" height="68.0381" stroke="white" stroke-width="0.71619"/>
<rect x="272.51" y="68.8662" width="68.0381" height="68.0381" stroke="white" stroke-width="0.71619"/>
<rect x="340.548" y="68.8662" width="68.0381" height="68.0381" stroke="white" stroke-width="0.71619"/>
<rect x="408.586" y="68.8662" width="68.0381" height="68.0381" stroke="white" stroke-width="0.71619"/>
<rect x="476.624" y="68.8662" width="68.0381" height="68.0381" stroke="white" stroke-width="0.71619"/>
<rect x="544.662" y="68.8662" width="68.0381" height="68.0381" stroke="white" stroke-width="0.71619"/>
<rect x="612.7" y="68.8662" width="68.0381" height="68.0381" stroke="white" stroke-width="0.71619"/>
<rect x="680.738" y="68.8662" width="68.0381" height="68.0381" stroke="white" stroke-width="0.71619"/>
<rect x="748.776" y="68.8662" width="68.0381" height="68.0381" stroke="white" stroke-width="0.71619"/>
<rect x="816.814" y="68.8662" width="68.0381" height="68.0381" stroke="white" stroke-width="0.71619"/>
<rect x="884.852" y="68.8662" width="68.0381" height="68.0381" stroke="white" stroke-width="0.71619"/>
<rect x="952.891" y="68.8662" width="68.0381" height="68.0381" stroke="white" stroke-width="0.71619"/>
<rect x="1020.93" y="68.8662" width="68.0381" height="68.0381" stroke="white" stroke-width="0.71619"/>
<rect x="1088.97" y="68.8662" width="68.0381" height="68.0381" stroke="white" stroke-width="0.71619"/>
<rect x="1157" y="68.8662" width="68.0381" height="68.0381" stroke="white" stroke-width="0.71619"/>
<rect x="1225.04" y="68.8662" width="68.0381" height="68.0381" stroke="white" stroke-width="0.71619"/>
<rect x="1293.08" y="68.8662" width="68.0381" height="68.0381" stroke="white" stroke-width="0.71619"/>
<rect x="0.358339" y="137.621" width="68.0381" height="68.0381" stroke="white" stroke-width="0.71619"/>
<rect x="68.3964" y="137.621" width="68.0381" height="68.0381" stroke="white" stroke-width="0.71619"/>
<rect x="136.434" y="137.621" width="68.0381" height="68.0381" stroke="white" stroke-width="0.71619"/>
<rect x="204.472" y="137.621" width="68.0381" height="68.0381" stroke="white" stroke-width="0.71619"/>
<rect x="272.51" y="137.621" width="68.0381" height="68.0381" stroke="white" stroke-width="0.71619"/>
<rect x="340.548" y="137.621" width="68.0381" height="68.0381" stroke="white" stroke-width="0.71619"/>
<rect x="408.586" y="137.621" width="68.0381" height="68.0381" stroke="white" stroke-width="0.71619"/>
<rect x="476.624" y="137.621" width="68.0381" height="68.0381" stroke="white" stroke-width="0.71619"/>
<rect x="544.662" y="137.621" width="68.0381" height="68.0381" stroke="white" stroke-width="0.71619"/>
<rect x="612.7" y="137.621" width="68.0381" height="68.0381" stroke="white" stroke-width="0.71619"/>
<rect x="680.738" y="137.621" width="68.0381" height="68.0381" stroke="white" stroke-width="0.71619"/>
<rect x="748.776" y="137.621" width="68.0381" height="68.0381" stroke="white" stroke-width="0.71619"/>
<rect x="816.814" y="137.621" width="68.0381" height="68.0381" stroke="white" stroke-width="0.71619"/>
<rect x="884.852" y="137.621" width="68.0381" height="68.0381" stroke="white" stroke-width="0.71619"/>
<rect x="952.891" y="137.621" width="68.0381" height="68.0381" stroke="white" stroke-width="0.71619"/>
<rect x="1020.93" y="137.621" width="68.0381" height="68.0381" stroke="white" stroke-width="0.71619"/>
<rect x="1088.97" y="137.621" width="68.0381" height="68.0381" stroke="white" stroke-width="0.71619"/>
<rect x="1157" y="137.621" width="68.0381" height="68.0381" stroke="white" stroke-width="0.71619"/>
<rect x="1225.04" y="137.621" width="68.0381" height="68.0381" stroke="white" stroke-width="0.71619"/>
<rect x="1293.08" y="137.621" width="68.0381" height="68.0381" stroke="white" stroke-width="0.71619"/>
<rect x="0.358339" y="206.375" width="68.0381" height="68.0381" stroke="white" stroke-width="0.71619"/>
<rect x="68.3964" y="206.375" width="68.0381" height="68.0381" stroke="white" stroke-width="0.71619"/>
<rect x="136.434" y="206.375" width="68.0381" height="68.0381" stroke="white" stroke-width="0.71619"/>
<rect x="204.472" y="206.375" width="68.0381" height="68.0381" stroke="white" stroke-width="0.71619"/>
<rect x="272.51" y="206.375" width="68.0381" height="68.0381" stroke="white" stroke-width="0.71619"/>
<rect x="340.19" y="206.017" width="68.7543" height="68.7543" fill="white" fill-opacity="0.38"/>
<rect x="408.586" y="206.375" width="68.0381" height="68.0381" stroke="white" stroke-width="0.71619"/>
<rect x="476.624" y="206.375" width="68.0381" height="68.0381" stroke="white" stroke-width="0.71619"/>
<rect x="544.662" y="206.375" width="68.0381" height="68.0381" stroke="white" stroke-width="0.71619"/>
<rect x="612.7" y="206.375" width="68.0381" height="68.0381" stroke="white" stroke-width="0.71619"/>
<rect x="680.738" y="206.375" width="68.0381" height="68.0381" stroke="white" stroke-width="0.71619"/>
<rect x="748.776" y="206.375" width="68.0381" height="68.0381" stroke="white" stroke-width="0.71619"/>
<rect x="816.456" y="206.017" width="68.7543" height="68.7543" fill="white" fill-opacity="0.13"/>
<rect x="884.852" y="206.375" width="68.0381" height="68.0381" stroke="white" stroke-width="0.71619"/>
<rect x="952.532" y="206.017" width="68.7543" height="68.7543" fill="white" fill-opacity="0.13"/>
<rect x="1020.93" y="206.375" width="68.0381" height="68.0381" stroke="white" stroke-width="0.71619"/>
<rect x="1088.97" y="206.375" width="68.0381" height="68.0381" stroke="white" stroke-width="0.71619"/>
<rect x="1157" y="206.375" width="68.0381" height="68.0381" stroke="white" stroke-width="0.71619"/>
<rect x="1225.04" y="206.375" width="68.0381" height="68.0381" stroke="white" stroke-width="0.71619"/>
<rect x="1293.08" y="206.375" width="68.0381" height="68.0381" stroke="white" stroke-width="0.71619"/>
<rect x="0.358339" y="275.129" width="68.0381" height="68.0381" stroke="white" stroke-width="0.71619"/>
<rect x="68.3964" y="275.129" width="68.0381" height="68.0381" stroke="white" stroke-width="0.71619"/>
<rect x="136.434" y="275.129" width="68.0381" height="68.0381" stroke="white" stroke-width="0.71619"/>
<rect x="204.472" y="275.129" width="68.0381" height="68.0381" stroke="white" stroke-width="0.71619"/>
<rect x="272.152" y="274.771" width="68.7543" height="68.7543" fill="white" fill-opacity="0.13"/>
<rect x="340.548" y="275.129" width="68.0381" height="68.0381" stroke="white" stroke-width="0.71619"/>
<rect x="408.228" y="274.771" width="68.7543" height="68.7543" fill="white" fill-opacity="0.38"/>
<rect x="476.624" y="275.129" width="68.0381" height="68.0381" stroke="white" stroke-width="0.71619"/>
<rect x="544.662" y="275.129" width="68.0381" height="68.0381" stroke="white" stroke-width="0.71619"/>
<rect x="612.7" y="275.129" width="68.0381" height="68.0381" stroke="white" stroke-width="0.71619"/>
<rect x="680.738" y="275.129" width="68.0381" height="68.0381" stroke="white" stroke-width="0.71619"/>
<rect x="748.418" y="274.771" width="68.7543" height="68.7543" fill="white" fill-opacity="0.13"/>
<rect x="816.814" y="275.129" width="68.0381" height="68.0381" stroke="white" stroke-width="0.71619"/>
<rect x="884.494" y="274.771" width="68.7543" height="68.7543" fill="white" fill-opacity="0.23"/>
<rect x="952.891" y="275.129" width="68.0381" height="68.0381" stroke="white" stroke-width="0.71619"/>
<rect x="1020.93" y="275.129" width="68.0381" height="68.0381" stroke="white" stroke-width="0.71619"/>
<rect x="1088.97" y="275.129" width="68.0381" height="68.0381" stroke="white" stroke-width="0.71619"/>
<rect x="1157" y="275.129" width="68.0381" height="68.0381" stroke="white" stroke-width="0.71619"/>
<rect x="1225.04" y="275.129" width="68.0381" height="68.0381" stroke="white" stroke-width="0.71619"/>
<rect x="1293.08" y="275.129" width="68.0381" height="68.0381" stroke="white" stroke-width="0.71619"/>
<rect x="0.358339" y="343.883" width="68.0381" height="68.0381" stroke="white" stroke-width="0.71619"/>
<rect x="68.3964" y="343.883" width="68.0381" height="68.0381" stroke="white" stroke-width="0.71619"/>
<rect x="136.434" y="343.883" width="68.0381" height="68.0381" stroke="white" stroke-width="0.71619"/>
<rect x="204.114" y="343.525" width="68.7543" height="68.7543" fill="white" fill-opacity="0.13"/>
<rect x="272.51" y="343.883" width="68.0381" height="68.0381" stroke="white" stroke-width="0.71619"/>
<rect x="340.19" y="343.525" width="68.7543" height="68.7543" fill="white" fill-opacity="0.38"/>
<rect x="408.586" y="343.883" width="68.0381" height="68.0381" stroke="white" stroke-width="0.71619"/>
<rect x="476.624" y="343.883" width="68.0381" height="68.0381" stroke="white" stroke-width="0.71619"/>
<rect x="544.662" y="343.883" width="68.0381" height="68.0381" stroke="white" stroke-width="0.71619"/>
<rect x="612.7" y="343.883" width="68.0381" height="68.0381" stroke="white" stroke-width="0.71619"/>
<rect x="680.738" y="343.883" width="68.0381" height="68.0381" stroke="white" stroke-width="0.71619"/>
<rect x="748.776" y="343.883" width="68.0381" height="68.0381" stroke="white" stroke-width="0.71619"/>
<rect x="816.456" y="343.525" width="68.7543" height="68.7543" fill="white" fill-opacity="0.13"/>
<rect x="884.852" y="343.883" width="68.0381" height="68.0381" stroke="white" stroke-width="0.71619"/>
<rect x="952.891" y="343.883" width="68.0381" height="68.0381" stroke="white" stroke-width="0.71619"/>
<rect x="1020.93" y="343.883" width="68.0381" height="68.0381" stroke="white" stroke-width="0.71619"/>
<rect x="1088.97" y="343.883" width="68.0381" height="68.0381" stroke="white" stroke-width="0.71619"/>
<rect x="1157" y="343.883" width="68.0381" height="68.0381" stroke="white" stroke-width="0.71619"/>
<rect x="1225.04" y="343.883" width="68.0381" height="68.0381" stroke="white" stroke-width="0.71619"/>
<rect x="1293.08" y="343.883" width="68.0381" height="68.0381" stroke="white" stroke-width="0.71619"/>
<rect x="0.358339" y="412.638" width="68.0381" height="68.0381" stroke="white" stroke-width="0.71619"/>
<rect x="68.3964" y="412.638" width="68.0381" height="68.0381" stroke="white" stroke-width="0.71619"/>
<rect x="136.434" y="412.638" width="68.0381" height="68.0381" stroke="white" stroke-width="0.71619"/>
<rect x="204.472" y="412.638" width="68.0381" height="68.0381" stroke="white" stroke-width="0.71619"/>
<rect x="272.51" y="412.638" width="68.0381" height="68.0381" stroke="white" stroke-width="0.71619"/>
<rect x="340.548" y="412.638" width="68.0381" height="68.0381" stroke="white" stroke-width="0.71619"/>
<rect x="408.586" y="412.638" width="68.0381" height="68.0381" stroke="white" stroke-width="0.71619"/>
<rect x="476.624" y="412.638" width="68.0381" height="68.0381" stroke="white" stroke-width="0.71619"/>
<rect x="544.662" y="412.638" width="68.0381" height="68.0381" stroke="white" stroke-width="0.71619"/>
<rect x="612.7" y="412.638" width="68.0381" height="68.0381" stroke="white" stroke-width="0.71619"/>
<rect x="680.738" y="412.638" width="68.0381" height="68.0381" stroke="white" stroke-width="0.71619"/>
<rect x="748.776" y="412.638" width="68.0381" height="68.0381" stroke="white" stroke-width="0.71619"/>
<rect x="816.814" y="412.638" width="68.0381" height="68.0381" stroke="white" stroke-width="0.71619"/>
<rect x="884.852" y="412.638" width="68.0381" height="68.0381" stroke="white" stroke-width="0.71619"/>
<rect x="952.891" y="412.638" width="68.0381" height="68.0381" stroke="white" stroke-width="0.71619"/>
<rect x="1020.93" y="412.638" width="68.0381" height="68.0381" stroke="white" stroke-width="0.71619"/>
<rect x="1088.97" y="412.638" width="68.0381" height="68.0381" stroke="white" stroke-width="0.71619"/>
<rect x="1157" y="412.638" width="68.0381" height="68.0381" stroke="white" stroke-width="0.71619"/>
<rect x="1225.04" y="412.638" width="68.0381" height="68.0381" stroke="white" stroke-width="0.71619"/>
<rect x="1293.08" y="412.638" width="68.0381" height="68.0381" stroke="white" stroke-width="0.71619"/>
<rect x="0.358339" y="481.392" width="68.0381" height="68.0381" stroke="white" stroke-width="0.71619"/>
<rect x="68.3964" y="481.392" width="68.0381" height="68.0381" stroke="white" stroke-width="0.71619"/>
<rect x="136.434" y="481.392" width="68.0381" height="68.0381" stroke="white" stroke-width="0.71619"/>
<rect x="204.472" y="481.392" width="68.0381" height="68.0381" stroke="white" stroke-width="0.71619"/>
<rect x="272.51" y="481.392" width="68.0381" height="68.0381" stroke="white" stroke-width="0.71619"/>
<rect x="340.548" y="481.392" width="68.0381" height="68.0381" stroke="white" stroke-width="0.71619"/>
<rect x="408.586" y="481.392" width="68.0381" height="68.0381" stroke="white" stroke-width="0.71619"/>
<rect x="476.624" y="481.392" width="68.0381" height="68.0381" stroke="white" stroke-width="0.71619"/>
<rect x="544.662" y="481.392" width="68.0381" height="68.0381" stroke="white" stroke-width="0.71619"/>
<rect x="612.7" y="481.392" width="68.0381" height="68.0381" stroke="white" stroke-width="0.71619"/>
<rect x="680.738" y="481.392" width="68.0381" height="68.0381" stroke="white" stroke-width="0.71619"/>
<rect x="748.418" y="481.034" width="68.7543" height="68.7543" fill="white" fill-opacity="0.13"/>
<rect x="816.814" y="481.392" width="68.0381" height="68.0381" stroke="white" stroke-width="0.71619"/>
<rect x="884.852" y="481.392" width="68.0381" height="68.0381" stroke="white" stroke-width="0.71619"/>
<rect x="952.891" y="481.392" width="68.0381" height="68.0381" stroke="white" stroke-width="0.71619"/>
<rect x="1020.93" y="481.392" width="68.0381" height="68.0381" stroke="white" stroke-width="0.71619"/>
<rect x="1088.97" y="481.392" width="68.0381" height="68.0381" stroke="white" stroke-width="0.71619"/>
<rect x="1157" y="481.392" width="68.0381" height="68.0381" stroke="white" stroke-width="0.71619"/>
<rect x="1225.04" y="481.392" width="68.0381" height="68.0381" stroke="white" stroke-width="0.71619"/>
<rect x="1293.08" y="481.392" width="68.0381" height="68.0381" stroke="white" stroke-width="0.71619"/>
<rect x="0.358339" y="550.146" width="68.0381" height="68.0381" stroke="white" stroke-width="0.71619"/>
<rect x="68.3964" y="550.146" width="68.0381" height="68.0381" stroke="white" stroke-width="0.71619"/>
<rect x="136.434" y="550.146" width="68.0381" height="68.0381" stroke="white" stroke-width="0.71619"/>
<rect x="204.472" y="550.146" width="68.0381" height="68.0381" stroke="white" stroke-width="0.71619"/>
<rect x="272.51" y="550.146" width="68.0381" height="68.0381" stroke="white" stroke-width="0.71619"/>
<rect x="340.548" y="550.146" width="68.0381" height="68.0381" stroke="white" stroke-width="0.71619"/>
<rect x="408.586" y="550.146" width="68.0381" height="68.0381" stroke="white" stroke-width="0.71619"/>
<rect x="476.624" y="550.146" width="68.0381" height="68.0381" stroke="white" stroke-width="0.71619"/>
<rect x="544.662" y="550.146" width="68.0381" height="68.0381" stroke="white" stroke-width="0.71619"/>
<rect x="612.7" y="550.146" width="68.0381" height="68.0381" stroke="white" stroke-width="0.71619"/>
<rect x="680.38" y="549.788" width="68.7543" height="68.7543" fill="white" fill-opacity="0.13"/>
<rect x="748.776" y="550.146" width="68.0381" height="68.0381" stroke="white" stroke-width="0.71619"/>
<rect x="816.456" y="549.788" width="68.7543" height="68.7543" fill="white" fill-opacity="0.13"/>
<rect x="884.852" y="550.146" width="68.0381" height="68.0381" stroke="white" stroke-width="0.71619"/>
<rect x="952.532" y="549.788" width="68.7543" height="68.7543" fill="white" fill-opacity="0.13"/>
<rect x="1020.93" y="550.146" width="68.0381" height="68.0381" stroke="white" stroke-width="0.71619"/>
<rect x="1088.97" y="550.146" width="68.0381" height="68.0381" stroke="white" stroke-width="0.71619"/>
<rect x="1157" y="550.146" width="68.0381" height="68.0381" stroke="white" stroke-width="0.71619"/>
<rect x="1225.04" y="550.146" width="68.0381" height="68.0381" stroke="white" stroke-width="0.71619"/>
<rect x="1293.08" y="550.146" width="68.0381" height="68.0381" stroke="white" stroke-width="0.71619"/>
<rect x="0.358339" y="618.9" width="68.0381" height="68.0381" stroke="white" stroke-width="0.71619"/>
<rect x="68.3964" y="618.9" width="68.0381" height="68.0381" stroke="white" stroke-width="0.71619"/>
<rect x="136.434" y="618.9" width="68.0381" height="68.0381" stroke="white" stroke-width="0.71619"/>
<rect x="204.472" y="618.9" width="68.0381" height="68.0381" stroke="white" stroke-width="0.71619"/>
<rect x="272.51" y="618.9" width="68.0381" height="68.0381" stroke="white" stroke-width="0.71619"/>
<rect x="340.548" y="618.9" width="68.0381" height="68.0381" stroke="white" stroke-width="0.71619"/>
<rect x="408.586" y="618.9" width="68.0381" height="68.0381" stroke="white" stroke-width="0.71619"/>
<rect x="476.624" y="618.9" width="68.0381" height="68.0381" stroke="white" stroke-width="0.71619"/>
<rect x="544.662" y="618.9" width="68.0381" height="68.0381" stroke="white" stroke-width="0.71619"/>
<rect x="612.342" y="618.542" width="68.7543" height="68.7543" fill="white" fill-opacity="0.13"/>
<rect x="680.738" y="618.9" width="68.0381" height="68.0381" stroke="white" stroke-width="0.71619"/>
<rect x="748.418" y="618.542" width="68.7543" height="68.7543" fill="white" fill-opacity="0.13"/>
<rect x="816.814" y="618.9" width="68.0381" height="68.0381" stroke="white" stroke-width="0.71619"/>
<rect x="884.494" y="618.542" width="68.7543" height="68.7543" fill="white" fill-opacity="0.13"/>
<rect x="952.891" y="618.9" width="68.0381" height="68.0381" stroke="white" stroke-width="0.71619"/>
<rect x="1020.93" y="618.9" width="68.0381" height="68.0381" stroke="white" stroke-width="0.71619"/>
<rect x="1088.97" y="618.9" width="68.0381" height="68.0381" stroke="white" stroke-width="0.71619"/>
<rect x="1157" y="618.9" width="68.0381" height="68.0381" stroke="white" stroke-width="0.71619"/>
<rect x="1225.04" y="618.9" width="68.0381" height="68.0381" stroke="white" stroke-width="0.71619"/>
<rect x="1293.08" y="618.9" width="68.0381" height="68.0381" stroke="white" stroke-width="0.71619"/>
</g>
</mask>
<g mask="url(#mask0_22685_111421)">
<g filter="url(#filter0_f_22685_111421)">
<ellipse cx="699.192" cy="-34.6234" rx="353.73" ry="252.816" transform="rotate(-15 699.192 -34.6234)" fill="#B987FF"/>
</g>
<g filter="url(#filter1_f_22685_111421)">
<ellipse cx="993.323" cy="59.4899" rx="312.682" ry="223.479" transform="rotate(-15 993.323 59.4899)" fill="#B987FF"/>
</g>
</g>
<defs>
<filter id="filter0_f_22685_111421" x="267.436" y="-379.3" width="863.512" height="689.352" filterUnits="userSpaceOnUse" color-interpolation-filters="sRGB">
<feFlood flood-opacity="0" result="BackgroundImageFix"/>
<feBlend mode="normal" in="SourceGraphic" in2="BackgroundImageFix" result="shape"/>
<feGaussianBlur stdDeviation="41.903" result="effect1_foregroundBlur_22685_111421"/>
</filter>
<filter id="filter1_f_22685_111421" x="582.034" y="-274.824" width="822.578" height="668.627" filterUnits="userSpaceOnUse" color-interpolation-filters="sRGB">
<feFlood flood-opacity="0" result="BackgroundImageFix"/>
<feBlend mode="normal" in="SourceGraphic" in2="BackgroundImageFix" result="shape"/>
<feGaussianBlur stdDeviation="51.8578" result="effect1_foregroundBlur_22685_111421"/>
</filter>
</defs>
</svg>
