<svg width="135" height="76" viewBox="0 0 135 76" fill="none" xmlns="http://www.w3.org/2000/svg">
<path d="M42.1061 49.4261C42.2719 49.4468 42.4414 49.4665 42.6136 49.488C42.7633 49.5077 42.9139 49.5266 43.0664 49.5445C43.391 49.5813 43.7254 49.618 44.0679 49.6566C44.5943 49.7167 45.143 49.7723 45.707 49.8296C45.8039 49.8395 45.9025 49.8494 46.0002 49.8601C46.4763 49.905 46.9659 49.948 47.4653 49.991C47.6581 50.0081 47.8536 50.0251 48.0482 50.0421C48.1611 50.052 48.2732 50.0619 48.3862 50.0717C48.6265 50.0915 48.8668 50.1094 49.1098 50.1282C49.1833 50.1336 49.256 50.139 49.3295 50.1444C49.6146 50.1641 49.9033 50.1829 50.193 50.2035C50.5516 50.2268 50.9121 50.2484 51.2752 50.2708C51.6518 50.2941 52.032 50.3201 52.4167 50.3416C53.1698 50.3802 53.9392 50.4098 54.713 50.4412C54.9318 50.4492 55.1506 50.4591 55.3702 50.4663C55.5388 50.4734 55.7092 50.4797 55.8804 50.4851C56.0616 50.4887 56.2418 50.4941 56.4229 50.4994C56.63 50.503 56.8381 50.5057 57.047 50.5093C57.1886 50.5129 57.3312 50.5165 57.472 50.5183C57.6074 50.5219 57.2819 50.5227 57.6226 50.5245V48.404C56.8363 48.4022 56.9896 48.4013 56.882 48.3995C56.7609 48.3986 55.9405 48.3968 55.8186 48.3959C55.6984 48.3914 54.8905 48.3869 54.7704 48.3824C54.5301 48.3753 52.8847 48.3663 52.6489 48.3573C52.4131 48.3439 50.8332 48.3322 50.6045 48.3188C50.4898 48.3107 49.7706 48.3071 49.6586 48.2982C49.5465 48.2883 48.8534 48.2793 48.744 48.2704C48.5234 48.2533 47.0448 48.2363 46.8359 48.2192C46.6261 48.1968 45.2452 48.1762 45.0489 48.1547C44.9511 48.1448 44.3405 48.135 44.2464 48.126C44.1522 48.1161 43.5739 48.1018 43.4824 48.091C43.122 48.0408 40.8714 48.0041 40.5826 47.9556C40.4374 47.9323 39.5336 47.9117 39.4071 47.892C39.3444 47.8821 39.0225 47.8749 38.9633 47.8642C38.9059 47.8543 38.6217 47.8436 38.5688 47.8328C38.5616 47.831 38.5508 47.8301 38.5419 47.8292C38.6333 48.2148 38.732 48.594 38.836 48.9662C38.9418 48.9823 39.0485 49.0002 39.1623 49.0182C39.7721 49.1114 40.4867 49.2118 41.2901 49.3176C41.5528 49.3544 41.8254 49.3903 42.1061 49.4261ZM39.9684 39.4285C40.5118 39.4859 41.0839 39.5397 41.681 39.5961C42.2782 39.6544 42.9023 39.7082 43.547 39.7602C44.1917 39.8149 44.8588 39.8678 45.5447 39.918C45.8881 39.9449 46.236 39.97 46.5875 39.9978C46.9408 40.0203 47.2968 40.0427 47.6581 40.066C48.3799 40.1099 49.1179 40.1574 49.8684 40.1969C51.3649 40.2893 52.9349 40.3368 54.5202 40.4013C54.9174 40.4121 55.3155 40.4238 55.7154 40.4363C56.1109 40.4444 56.5081 40.4516 56.9053 40.4596C57.2129 40.4659 56.9994 40.4704 57.6226 40.4749V37.7741H37.9599C37.9026 38.2843 37.8595 38.7004 37.829 39.1971C38.0227 39.2187 38.22 39.2411 38.4244 39.2644C38.9095 39.3209 39.4251 39.3729 39.9684 39.4285ZM79.9403 34.8322C79.9125 34.6933 79.8865 34.5561 79.856 34.4162C79.7672 34.0055 79.683 33.6935 79.5987 33.3034C79.2149 33.2622 78.8132 33.2209 78.3936 33.1779C77.8502 33.1214 77.2781 33.0676 76.6792 33.0111C76.0838 32.952 75.4615 32.8982 74.8159 32.8461C74.1703 32.7906 73.5041 32.7394 72.8182 32.6892C72.4748 32.6623 72.1269 32.6363 71.7745 32.6094C71.423 32.587 71.0661 32.5637 70.7048 32.5413C69.983 32.4973 69.2441 32.4489 68.4945 32.4104C66.9989 32.3171 65.4289 32.2705 63.8427 32.2068C63.4446 32.1943 63.0465 32.1817 62.6475 32.1701C62.2511 32.162 61.8548 32.1548 61.4576 32.1468C60.7008 32.1297 59.9414 32.127 59.1819 32.1163C58.4224 32.127 57.6621 32.1297 56.9053 32.1468C56.5081 32.1548 56.1109 32.162 55.7154 32.1701C55.3155 32.1817 54.9174 32.1943 54.5202 32.2068C52.9349 32.2705 51.3649 32.3171 49.8684 32.4104C49.1179 32.4489 48.3799 32.4973 47.6581 32.5413C47.2968 32.5637 46.9408 32.587 46.5875 32.6094C46.236 32.6363 45.8881 32.6623 45.5447 32.6892C44.8588 32.7394 44.1917 32.7906 43.547 32.8461C42.9023 32.8982 42.2782 32.952 41.681 33.0111C41.0839 33.0676 40.5118 33.1214 39.9684 33.1779C39.5497 33.2209 39.148 33.2622 38.7642 33.3034C38.6808 33.6935 38.5957 34.0055 38.5069 34.4162C38.4773 34.5561 38.4513 34.6933 38.4226 34.8322H79.9403ZM43.4977 53.8188C43.6492 53.8395 43.8034 53.8619 43.9585 53.8834C44.0948 53.9031 44.232 53.9211 44.371 53.939C44.6687 53.9758 44.9709 54.0125 45.2829 54.0493C45.7743 54.1094 46.2836 54.1685 46.809 54.2277C46.8996 54.2385 46.991 54.2492 47.0834 54.26C47.5281 54.3039 47.9818 54.3461 48.4472 54.3918C48.6274 54.4079 48.8103 54.4259 48.9941 54.442C49.0973 54.4528 49.2031 54.4635 49.308 54.4716C49.5303 54.4931 49.7563 54.5111 49.9831 54.5317C50.0513 54.5371 50.1194 54.5424 50.1867 54.5478C50.4539 54.5666 50.7238 54.5855 50.9946 54.6043C51.3263 54.6276 51.6635 54.65 52.0015 54.6734C52.353 54.6967 52.7081 54.72 53.0667 54.7424C53.7697 54.7818 54.4861 54.8096 55.207 54.8392C55.4106 54.8482 55.6123 54.8572 55.8168 54.8643C55.9755 54.8697 56.1342 54.876 56.2929 54.8814C56.4615 54.885 56.63 54.8903 56.7986 54.8939C56.9923 54.8984 57.186 54.9011 57.3805 54.9056C57.4603 54.9056 57.5419 54.9083 57.6226 54.9083V53.1239C57.099 53.123 57.3958 53.1212 57.2837 53.1203C57.0999 53.1186 56.4516 53.1168 56.2696 53.1141C56.0884 53.1078 55.4491 53.1015 55.2698 53.0934C54.9076 53.0818 53.6119 53.0701 53.2577 53.0567C52.9053 53.037 51.6563 53.0181 51.3138 52.9975C51.1416 52.9876 50.5669 52.9796 50.3992 52.967C50.2306 52.9527 49.6765 52.9392 49.5124 52.9258C49.1824 52.8998 48.0168 52.8747 47.703 52.8496C47.3909 52.8155 46.3006 52.785 46.0056 52.7527C45.8585 52.7384 45.3717 52.724 45.2291 52.7097C45.0874 52.6935 44.6256 52.6738 44.4903 52.6559C43.9478 52.5833 42.1679 52.5286 41.7339 52.4532C41.5152 52.4192 40.7987 52.3878 40.6095 52.3582C40.5145 52.3447 40.2482 52.3313 40.1621 52.3161C40.1254 52.3089 40.0617 52.3035 39.9953 52.2963C40.1451 52.655 40.3002 53.0056 40.4589 53.3463C40.5701 53.3669 40.6858 53.3858 40.8068 53.4073C41.3735 53.5041 42.0236 53.6036 42.7445 53.7094C42.9884 53.7453 43.2394 53.7821 43.4977 53.8188ZM57.6226 61.6251C57.1268 61.6215 57.3967 61.6197 57.1716 61.617C56.8676 61.6054 56.5655 61.5946 56.266 61.5838C55.6634 61.5632 55.0654 61.5426 54.4754 61.522C53.8863 61.4879 53.3043 61.4547 52.7314 61.4224C52.4463 61.4054 52.1611 61.3938 51.8814 61.3695C51.5998 61.3471 51.3227 61.3256 51.0493 61.3032C50.4987 61.2602 49.9607 61.2162 49.438 61.175C48.9161 61.1203 48.4086 61.0665 47.9191 61.0136C47.6734 60.9903 47.4322 60.9652 47.1937 60.9418C46.9578 60.9149 46.7274 60.8818 46.5014 60.854C46.089 60.7975 45.6918 60.7482 45.3134 60.6997C45.6433 61.0665 45.9491 61.3875 46.2199 61.6583C46.2414 61.6619 46.2611 61.6672 46.2836 61.6699C46.5113 61.7112 46.7435 61.756 46.9821 61.7937C47.2215 61.8304 47.4636 61.8672 47.711 61.9031C48.2078 61.9739 48.7216 62.0474 49.2479 62.1227C49.7796 62.1846 50.3239 62.2465 50.8807 62.3101C51.1604 62.3406 51.442 62.372 51.7271 62.4034C52.0123 62.433 52.3019 62.4491 52.5924 62.4742C53.1752 62.52 53.767 62.5657 54.3669 62.6114C54.9685 62.6491 55.5774 62.6751 56.1925 62.7011C56.4991 62.7145 56.8076 62.7271 57.116 62.7414C57.359 62.745 57.099 62.7728 57.6226 62.7836V61.6251ZM46.5059 58.1344C46.9614 58.1954 47.4331 58.2564 47.9173 58.3173C48.0033 58.3281 48.0876 58.3389 48.1746 58.3496C48.5862 58.3936 49.0085 58.4384 49.438 58.4823C49.6057 58.5003 49.7751 58.5182 49.9455 58.5352C50.0423 58.546 50.1383 58.555 50.2369 58.5639C50.444 58.5854 50.6529 58.6043 50.8637 58.6267C50.9264 58.6312 50.9901 58.6375 51.0537 58.6428C51.3003 58.6617 51.5505 58.6787 51.8016 58.6975C52.1109 58.7208 52.422 58.7433 52.735 58.7648C53.0622 58.7881 53.3931 58.8123 53.7258 58.8356C54.3776 58.8742 55.0394 58.9002 55.7083 58.9289C55.8948 58.9369 56.0822 58.9441 56.2705 58.9531C56.4184 58.9576 56.5655 58.9638 56.7125 58.971C56.8685 58.9728 57.0263 58.9773 57.1824 58.98C57.3294 58.9827 57.4765 58.9853 57.6226 58.9889V57.5337C57.5025 57.5337 57.5608 57.5346 57.6226 57.5337V57.5319C57.3662 57.5283 56.9501 57.5265 56.7296 57.5247C56.4866 57.5148 56.0158 57.5059 55.7746 57.4987C55.294 57.4808 54.3472 57.4646 53.8746 57.4476C53.4039 57.4216 52.4893 57.3956 52.0302 57.3687C51.8025 57.3543 51.3721 57.3454 51.1488 57.3265C50.9246 57.3086 50.5086 57.2916 50.2889 57.2736C49.8486 57.2378 48.9968 57.2037 48.579 57.1705C48.162 57.1266 47.3631 57.0835 46.9713 57.0423C46.7749 57.0226 46.41 57.0028 46.2199 56.984C46.0307 56.9634 45.6864 56.9365 45.5044 56.9132C44.7817 56.8146 43.4726 56.7428 42.8933 56.6433C42.7131 56.6155 42.4414 56.5877 42.2011 56.5617C42.4172 56.9096 42.6342 57.2441 42.8521 57.5624C43.2708 57.6377 43.7245 57.713 44.206 57.791C44.4311 57.8287 44.6624 57.8645 44.8991 57.9031C45.0345 57.9246 45.1726 57.9452 45.3116 57.9685C45.4344 57.9865 45.5591 58.0062 45.6846 58.025C45.9536 58.0609 46.2262 58.0977 46.5059 58.1344ZM40.7118 44.569C40.8938 44.5905 41.0794 44.6102 41.2695 44.6326C41.43 44.6506 41.5941 44.6694 41.7608 44.6873C42.1132 44.725 42.4791 44.7627 42.8539 44.7994C43.4152 44.8595 44.0007 44.9133 44.605 44.9689C44.7081 44.9779 44.8122 44.9886 44.9171 44.9985C45.4255 45.0424 45.9491 45.0855 46.4826 45.1276C46.6888 45.1446 46.8951 45.1617 47.104 45.1787C47.2241 45.1886 47.3443 45.1984 47.4653 45.2083C47.72 45.2271 47.9782 45.2442 48.2374 45.263C48.3154 45.2684 48.3925 45.272 48.4714 45.2782C48.7763 45.298 49.0829 45.3177 49.3931 45.3374C49.7751 45.3625 50.1616 45.384 50.5498 45.4073C50.9506 45.4316 51.3559 45.4567 51.7648 45.4773C52.5709 45.5167 53.3922 45.5472 54.2207 45.5786C54.4539 45.5885 54.6888 45.5983 54.9237 45.6073C55.1057 45.6136 55.2859 45.6199 55.468 45.6252C55.6607 45.6306 55.8535 45.636 56.0481 45.6414C56.2678 45.6468 56.4893 45.6494 56.7116 45.6539C56.8632 45.6566 57.0156 45.6593 57.1671 45.662C57.394 45.6665 57.125 45.6701 57.6226 45.6728V43.2186C56.6229 43.2177 56.5475 43.2177 56.4812 43.2159C56.4202 43.2159 55.4276 43.215 55.3675 43.215C55.3075 43.2123 54.3319 43.2097 54.2718 43.2079C54.1508 43.2034 52.1584 43.1989 52.0401 43.1962C51.9226 43.1881 50.0083 43.1828 49.8944 43.1756C49.8361 43.172 48.9735 43.1702 48.917 43.1639C48.8614 43.1603 48.0293 43.1559 47.9746 43.1514C47.8644 43.1433 46.0728 43.1343 45.967 43.1263C45.8639 43.1146 44.1917 43.1047 44.093 43.094C44.0428 43.0895 43.3094 43.0841 43.2627 43.0796C43.2152 43.0743 42.523 43.068 42.4773 43.0617C42.2961 43.0375 39.5757 43.0187 39.4304 42.9945C39.3578 42.9837 38.2684 42.972 38.2056 42.9631C38.1805 42.9586 37.9402 42.9559 37.8254 42.9523C37.8514 43.3809 37.8873 43.8041 37.9312 44.2211C38.4917 44.2964 39.1292 44.3771 39.8357 44.4641C40.1173 44.4999 40.4096 44.5349 40.7118 44.569ZM45.5044 14.8656C45.6864 14.8423 46.0307 14.8154 46.2199 14.7947C46.41 14.7768 46.7749 14.7562 46.9713 14.7365C47.3631 14.6952 48.162 14.6522 48.579 14.6082C48.9968 14.5751 49.8486 14.541 50.2889 14.506C50.5086 14.4881 50.9246 14.4702 51.1488 14.4522C51.3721 14.4334 51.8025 14.4244 52.0302 14.4101C52.4893 14.3841 53.4039 14.3572 53.8746 14.3303C54.3472 14.3141 55.294 14.298 55.7746 14.281C56.0158 14.2729 56.4866 14.2639 56.7296 14.255C56.9717 14.2523 57.4487 14.2496 57.6926 14.2469C58.0521 14.2433 58.6798 14.2397 59.1819 14.2361C59.6831 14.2397 60.3108 14.2433 60.6703 14.2469C60.9142 14.2496 61.3913 14.2523 61.6333 14.255C61.8772 14.2639 62.3462 14.2729 62.5874 14.281C63.0689 14.298 64.0149 14.3141 64.4883 14.3303C64.959 14.3572 65.8745 14.3841 66.3318 14.4101C66.5604 14.4244 66.9899 14.4334 67.215 14.4522C67.4383 14.4702 67.8543 14.4881 68.074 14.506C68.5134 14.541 69.3652 14.5751 69.7839 14.6082C70.2009 14.6522 70.9989 14.6952 71.3916 14.7365C71.5889 14.7562 71.9529 14.7768 72.1421 14.7947C72.3322 14.8154 72.6774 14.8423 72.8585 14.8656C73.5821 14.9633 74.8912 15.0359 75.4696 15.1364C75.7036 15.1722 76.0874 15.2063 76.3609 15.2386C76.3196 14.9499 76.2784 14.6549 76.2353 14.3554C76.1295 14.3339 76.0192 14.3115 75.9054 14.2899C75.3808 14.1895 74.7944 14.09 74.1569 13.9878C73.9309 13.951 73.6996 13.9133 73.4629 13.8757C73.3275 13.8551 73.1903 13.8317 73.0513 13.8102C72.9285 13.7905 72.8038 13.7717 72.6774 13.7537C72.4102 13.7179 72.1358 13.682 71.857 13.6443C71.4006 13.5843 70.9298 13.5233 70.4447 13.4614C70.3596 13.4507 70.2753 13.4399 70.1883 13.43C69.7767 13.3852 69.3553 13.3413 68.9249 13.2973C68.7572 13.2794 68.5869 13.2615 68.4165 13.2435C68.3206 13.2346 68.2237 13.2238 68.126 13.2149C67.9189 13.1933 67.71 13.1736 67.4984 13.153C67.4374 13.1476 67.3737 13.1422 67.3101 13.1368C67.0635 13.1162 66.8133 13.101 66.5613 13.0804C66.2529 13.0588 65.9418 13.0355 65.627 13.0131C65.3007 12.9889 64.9698 12.9656 64.638 12.9423C63.9844 12.9055 63.3226 12.8777 62.6546 12.8499L62.0924 12.8257C61.9445 12.8203 61.7974 12.8149 61.6504 12.8087C61.4944 12.8051 61.3366 12.8015 61.1805 12.7988C61.0003 12.7943 60.821 12.7925 60.6408 12.788C60.5179 12.7871 60.3951 12.7845 60.2722 12.7827C59.91 12.7755 59.545 12.7701 59.1819 12.7656C58.8179 12.7701 58.4538 12.7755 58.0925 12.7827C57.9678 12.7845 57.8441 12.7871 57.7221 12.788C57.5419 12.7925 57.3617 12.7943 57.1824 12.7988C57.0263 12.8015 56.8685 12.8051 56.7125 12.8087C56.5655 12.8149 56.4184 12.8203 56.2705 12.8257C56.0822 12.8338 55.8948 12.8418 55.7083 12.8499C55.0394 12.8777 54.3776 12.9055 53.7258 12.9423C53.3931 12.9656 53.0622 12.9889 52.735 13.0131C52.422 13.0355 52.1109 13.0588 51.8016 13.0804C51.5505 13.101 51.3003 13.1162 51.0537 13.1368C50.9901 13.1422 50.9264 13.1476 50.8637 13.153C50.6529 13.1736 50.444 13.1933 50.2369 13.2149C50.1383 13.2238 50.0423 13.2346 49.9455 13.2435C49.7751 13.2615 49.6057 13.2794 49.438 13.2973C49.0085 13.3413 48.5862 13.3852 48.1746 13.43C48.0876 13.4399 48.0033 13.4507 47.9173 13.4614C47.4331 13.5233 46.9614 13.5843 46.5059 13.6443C46.2262 13.682 45.9536 13.7179 45.6846 13.7537C45.5591 13.7717 45.4344 13.7905 45.3116 13.8102C45.1726 13.8317 45.0345 13.8551 44.8991 13.8757C44.6624 13.9133 44.4311 13.951 44.206 13.9878C43.5685 14.09 42.983 14.1895 42.4584 14.2899C42.3437 14.3115 42.2334 14.3339 42.1276 14.3554C42.0845 14.6549 42.0424 14.9499 42.002 15.2386C42.2755 15.2063 42.6593 15.1722 42.8933 15.1364C43.4726 15.0359 44.7817 14.9633 45.5044 14.8656ZM57.6226 58.9934V58.9916C57.5724 58.9916 57.5392 58.9925 57.6226 58.9934ZM57.6226 54.9145V54.9128C57.5903 54.9128 57.5787 54.9145 57.6226 54.9145ZM44.4903 19.1157C44.6256 19.0978 45.0874 19.0781 45.2291 19.0619C45.3717 19.0485 45.8585 19.0332 46.0056 19.0189C46.3006 18.9884 47.3909 18.9552 47.703 18.922C48.0168 18.8978 49.1824 18.8709 49.5124 18.8458C49.6765 18.8324 50.2306 18.8189 50.3992 18.8046C50.5669 18.792 51.1416 18.7849 51.3138 18.7741C51.6563 18.7535 52.9053 18.7337 53.2577 18.714C53.6119 18.7015 54.9076 18.6898 55.2698 18.6773C55.4491 18.671 56.0884 18.6638 56.2696 18.6566C56.4516 18.6539 57.0999 18.6539 57.2837 18.6504C57.602 18.6486 58.6672 18.645 59.1819 18.6414C59.6957 18.645 60.7609 18.6486 61.0792 18.6504C61.263 18.6539 61.9113 18.6539 62.0933 18.6566C62.2745 18.6638 62.9138 18.671 63.0949 18.6773C63.4553 18.6898 64.751 18.7015 65.1052 18.714C65.4585 18.7337 66.7066 18.7535 67.05 18.7741C67.2222 18.7849 67.796 18.792 67.9637 18.8046C68.1314 18.8189 68.6864 18.8324 68.8505 18.8458C69.1805 18.8709 70.3461 18.8978 70.6599 18.922C70.972 18.9552 72.0623 18.9884 72.3573 19.0189C72.5044 19.0332 72.9921 19.0485 73.1338 19.0619C73.2764 19.0781 73.7373 19.0978 73.8735 19.1157C74.4151 19.1883 76.1959 19.2439 76.6299 19.3184C76.7061 19.3291 76.8459 19.3417 77.0038 19.3533C76.9401 18.9767 76.8782 18.6082 76.8199 18.2442C76.4442 18.185 76.0452 18.1258 75.6193 18.0622C75.3745 18.0272 75.1235 17.9895 74.8652 17.9528C74.7137 17.9312 74.5604 17.9097 74.4044 17.8891C74.269 17.8694 74.1309 17.8505 73.991 17.8326C73.6951 17.7967 73.3911 17.76 73.0809 17.7223C72.5877 17.6622 72.0793 17.6022 71.5548 17.5439C71.4633 17.534 71.3728 17.5224 71.2795 17.5125C70.8357 17.4686 70.3802 17.4246 69.9157 17.3807C69.7346 17.3637 69.5526 17.3457 69.3697 17.3287C69.2656 17.3188 69.1607 17.309 69.0558 17.2991C68.8326 17.2794 68.6075 17.2596 68.3798 17.2399C68.3116 17.2345 68.2444 17.2283 68.1771 17.2238C67.909 17.2041 67.64 17.1861 67.3692 17.1673C67.0366 17.144 66.7003 17.1216 66.3614 17.0991C66.0099 17.0749 65.6539 17.0498 65.2953 17.0283C64.5923 16.9907 63.8777 16.9611 63.1559 16.9324C62.9532 16.9234 62.7506 16.9162 62.5461 16.9073C62.3883 16.901 62.2287 16.8956 62.07 16.8902C61.9014 16.8857 61.7329 16.8813 61.5643 16.8786C61.3706 16.8741 61.177 16.8705 60.9833 16.8669C60.8506 16.8651 60.7179 16.8624 60.5843 16.8597C60.118 16.8499 59.65 16.8445 59.1819 16.8382C58.713 16.8445 58.2449 16.8499 57.7777 16.8597C57.645 16.8624 57.5114 16.8651 57.3805 16.8669C57.186 16.8705 56.9923 16.8741 56.7986 16.8786C56.63 16.8813 56.4615 16.8857 56.2929 16.8902C56.1342 16.8956 55.9755 16.901 55.8168 16.9073C55.6123 16.9162 55.4106 16.9234 55.207 16.9324C54.4861 16.9611 53.7697 16.9907 53.0667 17.0283C52.7081 17.0498 52.353 17.0749 52.0015 17.0991C51.6635 17.1216 51.3263 17.144 50.9946 17.1673C50.7238 17.1861 50.4539 17.2041 50.1867 17.2238C50.1194 17.2283 50.0513 17.2345 49.9831 17.2399C49.7563 17.2596 49.5303 17.2794 49.308 17.2991C49.2031 17.309 49.0973 17.3188 48.9941 17.3287C48.8103 17.3457 48.6274 17.3637 48.4472 17.3807C47.9818 17.4246 47.5281 17.4686 47.0834 17.5125C46.991 17.5224 46.8996 17.534 46.809 17.5439C46.2836 17.6022 45.7743 17.6622 45.2829 17.7223C44.9709 17.76 44.6687 17.7967 44.371 17.8326C44.232 17.8505 44.0948 17.8694 43.9585 17.8891C43.8034 17.9097 43.6492 17.9312 43.4977 17.9528C43.2394 17.9895 42.9884 18.0272 42.7445 18.0622C42.3177 18.1258 41.9178 18.185 41.543 18.2442C41.4838 18.6082 41.4237 18.9767 41.3591 19.3533C41.5161 19.3417 41.6559 19.3291 41.7339 19.3184C42.1679 19.2439 43.9478 19.1883 44.4903 19.1157ZM43.2627 29.3367C43.3094 29.3313 44.0428 29.3268 44.093 29.3232C44.1917 29.3115 45.8639 29.2999 45.967 29.29C46.0728 29.282 47.8644 29.273 47.9746 29.2658C48.0293 29.2604 48.8614 29.256 48.917 29.2506C48.9735 29.247 49.8361 29.2434 49.8944 29.2407C50.0083 29.2335 51.9226 29.2273 52.0401 29.221C52.1584 29.2165 54.1508 29.212 54.2718 29.2075C54.3319 29.2057 55.3075 29.2039 55.3675 29.2013C55.4276 29.2013 56.4202 29.2004 56.4812 29.1995C56.604 29.1986 58.6995 29.1968 58.8223 29.1959C58.8519 29.1968 58.9882 29.1968 59.1819 29.1968C59.3738 29.1968 59.5119 29.1968 59.5415 29.1959C59.6634 29.1968 61.7598 29.1986 61.8817 29.1995C61.9427 29.2004 62.9353 29.2013 62.9954 29.2013C63.0554 29.2039 64.031 29.2057 64.0911 29.2075C64.2112 29.212 66.2054 29.2165 66.3219 29.221C66.4403 29.2273 68.3547 29.2335 68.4694 29.2407C68.5259 29.2434 69.3894 29.247 69.4459 29.2506C69.5015 29.256 70.3336 29.2604 70.3883 29.2658C70.4986 29.273 72.2892 29.282 72.395 29.29C72.499 29.2999 74.1721 29.3115 74.2699 29.3232C74.3192 29.3268 75.0526 29.3313 75.1002 29.3367C75.1477 29.3411 75.8399 29.3483 75.8847 29.3537C76.0497 29.3761 78.3191 29.3931 78.8338 29.4147C78.728 28.9063 78.6267 28.4203 78.5299 27.9513H78.5281C78.2456 27.9164 77.9524 27.8805 77.6502 27.8464C77.4682 27.8258 77.2826 27.8052 77.0934 27.7837C76.9329 27.7657 76.7688 27.7478 76.6021 27.729C76.2488 27.6922 75.8847 27.6545 75.5108 27.616C74.9486 27.5568 74.3631 27.503 73.7579 27.4483C73.6548 27.4375 73.5507 27.4277 73.4458 27.4187C72.9365 27.3748 72.4147 27.3317 71.8794 27.2878C71.6741 27.2708 71.4669 27.2546 71.258 27.2376C71.1388 27.2277 71.0186 27.217 70.8976 27.208C70.642 27.1892 70.3856 27.173 70.1255 27.1542C70.0466 27.1488 69.9695 27.1434 69.8915 27.1372C69.5876 27.1183 69.28 27.0986 68.9698 27.078C68.5869 27.0538 68.2013 27.0323 67.8122 27.008C67.4123 26.9838 67.007 26.9596 66.5981 26.939C65.7929 26.8987 64.9707 26.8691 64.1422 26.8368C63.9082 26.8278 63.6741 26.8171 63.4392 26.8081C63.2581 26.8018 63.077 26.7973 62.8949 26.7911C62.7031 26.7848 62.5085 26.7794 62.3157 26.7749C62.0942 26.7704 61.8728 26.766 61.6504 26.7624C61.4997 26.7588 61.3473 26.7561 61.1958 26.7543C60.5269 26.7399 59.8535 26.7346 59.1819 26.7256C58.5094 26.7346 57.8369 26.7399 57.1671 26.7543C57.0156 26.7561 56.8632 26.7588 56.7116 26.7624C56.4893 26.766 56.2678 26.7704 56.0481 26.7749C55.8535 26.7794 55.6607 26.7848 55.468 26.7911C55.2859 26.7973 55.1057 26.8018 54.9237 26.8081C54.6888 26.8171 54.4539 26.8278 54.2207 26.8368C53.3922 26.8691 52.5709 26.8987 51.7648 26.939C51.3559 26.9596 50.9506 26.9838 50.5498 27.008C50.1616 27.0323 49.7751 27.0538 49.3931 27.078C49.0829 27.0986 48.7763 27.1183 48.4714 27.1372C48.3925 27.1434 48.3154 27.1488 48.2374 27.1542C47.9782 27.173 47.72 27.1892 47.4653 27.208C47.3443 27.217 47.2241 27.2277 47.104 27.2376C46.8951 27.2546 46.6888 27.2708 46.4826 27.2878C45.9491 27.3317 45.4255 27.3748 44.9171 27.4187C44.8122 27.4277 44.7081 27.4375 44.605 27.4483C44.0007 27.503 43.4152 27.5568 42.8539 27.616C42.4791 27.6545 42.1132 27.6922 41.7608 27.729C41.5941 27.7478 41.43 27.7657 41.2695 27.7837C41.0794 27.8052 40.8938 27.8258 40.7118 27.8464C40.4096 27.8805 40.1173 27.9164 39.8357 27.9513H39.8339C39.7362 28.4203 39.6358 28.9063 39.5291 29.4147C40.0438 29.3931 42.3132 29.3761 42.4773 29.3537C42.523 29.3483 43.2152 29.3411 43.2627 29.3367ZM40.7539 24.0984C40.7431 24.1011 40.7261 24.1029 40.7073 24.1047C40.796 23.6528 40.8794 23.2197 40.9574 22.8045C41.1224 22.7821 41.2883 22.7597 41.4605 22.7364C41.7232 22.7014 41.9958 22.6647 42.2764 22.6288C42.4432 22.6082 42.6127 22.5876 42.7857 22.566C42.9346 22.5463 43.0843 22.5275 43.2367 22.5104C43.5622 22.4728 43.8967 22.4369 44.2392 22.3984C44.7655 22.3383 45.3134 22.2827 45.8774 22.2244C45.9751 22.2145 46.0728 22.2047 46.1715 22.1939C46.6476 22.15 47.1372 22.1069 47.6366 22.0639C47.8294 22.046 48.024 22.0298 48.2203 22.0128C48.3324 22.0029 48.4436 21.9922 48.5575 21.9832C48.7969 21.9626 49.0381 21.9455 49.282 21.9258C49.3546 21.9204 49.4272 21.916 49.4999 21.9106C49.7859 21.89 50.0737 21.872 50.3651 21.8523C50.7229 21.8281 51.0824 21.8057 51.4474 21.7824C51.824 21.759 52.2024 21.7339 52.5879 21.7124C53.342 21.6739 54.1095 21.6443 54.8842 21.6138C55.103 21.6048 55.3218 21.5959 55.5415 21.5878C55.7101 21.5815 55.8804 21.5752 56.0517 21.5699C56.2328 21.5654 56.413 21.56 56.5942 21.5555C56.8013 21.551 57.0084 21.5474 57.2173 21.5438C57.359 21.5412 57.5007 21.5376 57.6423 21.5367C58.2117 21.5241 58.782 21.5178 59.3514 21.5107C59.9225 21.5178 60.4928 21.5241 61.0613 21.5367C61.2038 21.5376 61.3464 21.5412 61.4872 21.5438C61.6952 21.5474 61.9032 21.551 62.1104 21.5555C62.2924 21.56 62.4735 21.5654 62.6537 21.5699C62.8241 21.5752 62.9945 21.5815 63.1639 21.5878C63.3836 21.5959 63.6015 21.6048 63.8203 21.6138C64.595 21.6443 65.3634 21.6739 66.1175 21.7124C66.5013 21.7339 66.8823 21.759 67.258 21.7824C67.6221 21.8057 67.9825 21.8281 68.3403 21.8523C68.6308 21.872 68.9186 21.89 69.2047 21.9106C69.2782 21.916 69.3499 21.9204 69.4244 21.9258C69.6665 21.9455 69.9077 21.9626 70.1471 21.9832C70.26 21.9922 70.373 22.0029 70.4842 22.0128C70.6806 22.0298 70.8751 22.046 71.0688 22.0639C71.5682 22.1069 72.0569 22.15 72.5339 22.1939C72.6317 22.2047 72.7303 22.2145 72.828 22.2244C73.3911 22.2827 73.9399 22.3383 74.4653 22.3984C74.8087 22.4369 75.1441 22.4728 75.4678 22.5104C75.6202 22.5275 75.7709 22.5463 75.9188 22.566C76.0928 22.5876 76.2622 22.6082 76.4281 22.6288C76.7088 22.6647 76.9813 22.7014 77.2441 22.7364C77.4153 22.7597 77.583 22.7821 77.7471 22.8045C77.826 23.2197 77.9094 23.6528 77.9981 24.1047C77.9784 24.1029 77.9632 24.1011 77.9515 24.0984C77.6619 24.0491 75.4122 24.0132 75.0508 23.963C74.9603 23.9523 74.382 23.9397 74.2878 23.928C74.1937 23.92 73.5821 23.9101 73.4844 23.8994C73.2889 23.8787 71.9072 23.8572 71.6992 23.8357C71.4893 23.8196 70.0099 23.8016 69.7902 23.7846C69.6808 23.7756 68.9877 23.7666 68.8756 23.7568C68.7635 23.7487 68.0444 23.7433 67.9314 23.7362C67.701 23.7236 66.1202 23.7102 65.8844 23.6958C65.6486 23.6877 64.0041 23.6806 63.7638 23.6716C63.6436 23.6671 62.8358 23.6635 62.7147 23.6591C62.5937 23.6564 61.7741 23.6564 61.6504 23.6546C61.4083 23.6519 59.6822 23.651 59.4374 23.6474C59.4177 23.6474 59.3881 23.6474 59.3514 23.6483C59.3173 23.6474 59.2868 23.6474 59.268 23.6474C59.0223 23.651 57.2971 23.6519 57.0541 23.6546C56.9313 23.6564 56.1109 23.6564 55.9898 23.6591C55.8688 23.6635 55.0627 23.6671 54.9416 23.6716C54.7004 23.6806 53.056 23.6877 52.8193 23.6958C52.5843 23.7102 51.0044 23.7236 50.7749 23.7362C50.6601 23.7433 49.9419 23.7487 49.8289 23.7568C49.7177 23.7666 49.0246 23.7756 48.9143 23.7846C48.6938 23.8016 47.2152 23.8196 47.0063 23.8357C46.7982 23.8572 45.4165 23.8787 45.2201 23.8994C45.1224 23.9101 44.5127 23.92 44.4167 23.928C44.3226 23.9397 43.7451 23.9523 43.6537 23.963C43.2932 24.0132 41.0417 24.0491 40.7539 24.0984Z" fill="white"/>
<path fill-rule="evenodd" clip-rule="evenodd" d="M96.1844 37.7746H58.6642V62.7881H96.1844V37.7746ZM77.4178 42.6453L76.6269 43.2236L76.9264 42.2902L76.123 41.7127H77.1156L77.4178 40.7668L77.7209 41.7127H78.7117L77.9083 42.2902L78.2095 43.2236L77.4178 42.6453ZM73.3215 43.7467L72.5289 44.3241L72.8293 43.3898L72.0259 42.8115L73.0176 42.8142L73.3206 41.8655L73.6228 42.8115H74.6136L73.8111 43.3898L74.1115 44.3241L73.3215 43.7467ZM70.3226 44.8701L70.0187 45.817L69.0288 45.8161L69.8322 46.3944L69.53 47.3287L70.3226 46.7513L71.1144 47.3287L70.8131 46.3944L71.6156 45.8161H70.6257L70.3226 44.8701ZM70.0147 51.421L69.2238 50.8427L68.4321 51.421L68.7342 50.4858L67.929 49.9084L68.9207 49.9111L69.2238 48.9615L69.5278 49.9084H70.5177L69.7134 50.4858L70.0147 51.421ZM70.6267 54.013L70.3236 53.0661L70.0197 54.013H69.0298L69.8332 54.5896L69.531 55.5239L70.3236 54.9455L71.1154 55.5239L70.8141 54.5896L71.6166 54.013H70.6267ZM73.3263 56.0715L73.6294 57.0174H74.6202L73.8159 57.5949L74.1181 58.5292L73.3263 57.9509L72.5355 58.5292L72.8359 57.5949L72.0334 57.0174L73.0233 57.0183L73.3263 56.0715ZM77.7206 58.1042L77.4184 57.1582L77.1144 58.1051L76.1236 58.1042L76.9279 58.6834L76.6267 59.6159L77.4184 59.0394L78.2092 59.6159L77.908 58.6834L78.7132 58.1042H77.7206ZM81.5104 56.0715L81.8135 57.0174H82.8052L82 57.5949L82.3021 58.5292L81.5104 57.9509L80.7178 58.5292L81.019 57.5949L80.2174 57.0174L81.2064 57.0183L81.5104 56.0715ZM84.8179 54.013L84.5131 53.0661L84.2091 54.013H83.2201L84.0235 54.5896L83.7222 55.5239L84.5131 54.9455L85.3057 55.5239L85.0035 54.5896L85.8078 54.013H84.8179ZM85.9055 49.8977H86.8963L86.092 50.4742L86.3933 51.4103L85.6016 50.8302L84.8107 51.4103L85.1111 50.4742L84.3077 49.8977H85.2985L85.6016 48.9508L85.9055 49.8977ZM83.7226 47.3165L84.5134 46.7381L85.3051 47.3165L85.0039 46.3822L85.8082 45.8074H84.8183L84.5134 44.8597L84.2103 45.8074H83.2204L84.0238 46.3822L83.7226 47.3165ZM81.2193 42.8143L81.5215 41.8656L81.8246 42.8107H82.8154L82.0119 43.3908L82.3141 44.3252L81.5224 43.7459L80.7306 44.3252L81.0301 43.3908L80.2276 42.8107L81.2193 42.8143Z" fill="white"/>
</svg>
