<svg width="135" height="75" viewBox="0 0 135 75" fill="none" xmlns="http://www.w3.org/2000/svg">
<mask id="mask0_17290_86090" style="mask-type:luminance" maskUnits="userSpaceOnUse" x="9" y="17" width="117" height="41">
<path d="M125.919 17.3881H9.60059V57.6799H125.919V17.3881Z" fill="white"/>
</mask>
<g mask="url(#mask0_17290_86090)">
<path d="M104.017 28.4196C104.518 28.4196 104.789 28.6901 104.789 29.1914V29.7575C104.789 30.2589 104.518 30.5295 104.017 30.5295H91.8636C91.3622 30.5295 91.0918 30.2589 91.0918 29.7575V29.1914C91.0918 28.6901 91.3622 28.4196 91.8636 28.4196H104.017Z" fill="white"/>
<path d="M104.017 23.0026C104.518 23.0026 104.789 23.2731 104.789 23.7746V24.3405C104.789 24.8421 104.518 25.1125 104.017 25.1125H91.8636C91.3622 25.1125 91.0918 24.8421 91.0918 24.3405V23.7746C91.0918 23.2731 91.3622 23.0026 91.8636 23.0026H104.017Z" fill="white"/>
<path d="M104.017 17.5858C104.518 17.5858 104.789 17.8563 104.789 18.3577V18.9238C104.789 19.4251 104.518 19.6956 104.017 19.6956H91.8636C91.3622 19.6956 91.0918 19.4251 91.0918 18.9238V18.3577C91.0918 17.8563 91.3622 17.5858 91.8636 17.5858H104.017Z" fill="white"/>
<path d="M104.017 55.3722C104.518 55.3722 104.789 55.6427 104.789 56.1441V56.7102C104.789 57.2115 104.518 57.4822 104.017 57.4822H91.8636C91.3622 57.4822 91.0918 57.2115 91.0918 56.7102V56.1441C91.0918 55.6427 91.3622 55.3722 91.8636 55.3722H104.017Z" fill="white"/>
<path d="M104.017 49.9553C104.518 49.9553 104.789 50.2259 104.789 50.7273V51.2934C104.789 51.7947 104.518 52.0652 104.017 52.0652H91.8636C91.3622 52.0652 91.0918 51.7947 91.0918 51.2934V50.7273C91.0918 50.2259 91.3622 49.9553 91.8636 49.9553H104.017Z" fill="white"/>
<path d="M116.148 36.963H112.471C111.735 36.963 111.387 37.3119 111.387 38.0471V45.632L108.901 45.6318V38.0045C108.901 35.8805 109.929 34.8531 112.053 34.8531H116.148V36.963Z" fill="white"/>
<path d="M52.3364 43.5218L52.3366 45.6318H48.6767C46.5528 45.6318 45.5254 44.6043 45.5254 42.4802V32.5139L47.9951 32.5135V34.8531H52.0382V36.963H47.9951V42.4377C47.9951 43.1729 48.3441 43.5218 49.0792 43.5218H52.3364Z" fill="white"/>
<path d="M125.719 43.5218V45.6318H122.06C119.936 45.6318 118.908 44.6043 118.908 42.4802V32.5139L121.378 32.5135V34.8531H125.421V36.963H121.378V42.4377C121.378 43.1729 121.727 43.5218 122.462 43.5218H125.719Z" fill="white"/>
<path fill-rule="evenodd" clip-rule="evenodd" d="M90.5244 38.0045C90.5244 35.8805 91.552 34.8531 93.6758 34.8531H102.205C104.329 34.8531 105.357 35.8805 105.357 38.0045V42.4802C105.357 44.6043 104.329 45.6318 102.205 45.6318H93.6758C91.552 45.6318 90.5244 44.6043 90.5244 42.4802V38.0045ZM94.0781 36.963C93.343 36.963 92.9942 37.3119 92.9942 38.0471V42.4377C92.9942 43.1729 93.343 43.5218 94.0781 43.5218H101.803C102.538 43.5218 102.887 43.1729 102.887 42.4377V38.0471C102.887 37.3119 102.538 36.963 101.803 36.963H94.0781Z" fill="white"/>
<path fill-rule="evenodd" clip-rule="evenodd" d="M29.8379 42.4766C29.8379 43.2117 30.1869 43.5607 30.922 43.5607H39.43V40.8271H30.922C30.1869 40.8271 29.8379 41.1763 29.8379 41.9114V42.4766ZM30.5195 45.6318C28.3956 45.6318 27.3682 44.6043 27.3682 42.4802V41.9078C27.3682 39.7837 28.3956 38.7562 30.5195 38.7562H39.43V38.0083C39.43 37.2731 39.081 36.9241 38.3459 36.9241H29.7317L29.7314 34.8531H38.7484C40.8723 34.8531 41.8999 35.8805 41.8999 38.0045V45.6318H30.5195Z" fill="white"/>
<path fill-rule="evenodd" clip-rule="evenodd" d="M56.874 42.4766C56.874 43.2117 57.2232 43.5607 57.9584 43.5607H66.4662V40.8271H57.9584C57.2232 40.8271 56.874 41.1763 56.874 41.9114V42.4766ZM57.5556 45.6318C55.4319 45.6318 54.4043 44.6043 54.4043 42.4802V41.9078C54.4043 39.7837 55.4319 38.7562 57.5556 38.7562H66.4662V38.0083C66.4662 37.2731 66.1174 36.9241 65.3822 36.9241H56.7679V34.8531H65.7845C67.9088 34.8531 68.9359 35.8805 68.9359 38.0045V45.6318H57.5556Z" fill="white"/>
<path fill-rule="evenodd" clip-rule="evenodd" d="M21.8237 34.8531V30.9541L24.2934 30.9543V45.6318H12.9482C10.8243 45.6318 9.79688 44.6041 9.79688 42.4802V38.0045C9.79688 35.8805 10.8243 34.8531 12.9482 34.8531H21.8237ZM21.8237 43.5218V36.963H13.3507C12.6156 36.963 12.2666 37.3119 12.2666 38.0471V42.4377C12.2666 43.1729 12.6156 43.5218 13.3507 43.5218H21.8237Z" fill="white"/>
<path fill-rule="evenodd" clip-rule="evenodd" d="M75.17 45.6318V49.7139L72.7002 49.7136V34.853H84.0453C86.1691 34.853 87.1967 35.8805 87.1967 38.0045V42.4802C87.1967 44.6043 86.1691 45.6318 84.0453 45.6318H75.17ZM75.17 36.963V43.5218H83.643C84.3781 43.5218 84.7269 43.1729 84.7269 42.4377V38.0471C84.7269 37.3119 84.3781 36.963 83.643 36.963H75.17Z" fill="white"/>
</g>
</svg>
