<svg width="232" height="60" viewBox="0 0 232 60" fill="none" xmlns="http://www.w3.org/2000/svg">
<path fill-rule="evenodd" clip-rule="evenodd" d="M57.5347 15.2808C61.664 10.6089 68.5024 9.23841 74.1242 11.9351C81.5931 15.5185 84.3183 24.6465 80.2517 31.6877L71.1032 47.5102C70.5921 48.3941 69.7509 49.0394 68.7644 49.3037C67.7779 49.568 66.7268 49.43 65.8417 48.9204L76.9174 29.7609C79.8677 24.6505 77.8942 18.0264 72.4792 15.4184C68.4157 13.4616 63.4489 14.4391 60.4473 17.8043C58.7915 19.6518 57.8619 22.037 57.8309 24.5176C57.7999 26.9982 58.6694 29.4059 60.2786 31.2943C60.5678 31.6329 60.8788 31.9524 61.21 32.2505L54.7443 43.4557C54.4914 43.8937 54.1548 44.2774 53.7535 44.5856C53.3523 44.8935 52.8943 45.1193 52.4058 45.2503C51.9172 45.3813 51.4077 45.4147 50.9063 45.3487C50.4048 45.2826 49.9213 45.1185 49.4832 44.8659L56.5026 32.7011C55.4943 31.2473 54.7702 29.6161 54.3686 27.8932L50.0672 35.3625C49.5559 36.2468 48.7146 36.8917 47.7281 37.156C46.7416 37.4207 45.6905 37.2827 44.8055 36.7727L55.9289 17.5057C56.3919 16.7145 56.9296 15.9695 57.5347 15.2808ZM70.3732 21.4136C73.0522 22.9607 73.9773 26.4013 72.4271 29.079L61.7608 47.5079C61.2496 48.3918 60.4081 49.0371 59.4215 49.3014C58.435 49.5657 57.384 49.4277 56.4991 48.9181L66.4034 31.7608C65.6085 31.5936 64.8599 31.2559 64.2084 30.7708C63.5569 30.286 63.0186 29.6655 62.6303 28.9522C62.242 28.2389 62.013 27.4499 61.9594 26.6396C61.9057 25.8293 62.0286 25.017 62.3197 24.2588C62.6105 23.5006 63.0625 22.8146 63.6444 22.2481C64.2263 21.6816 64.924 21.2481 65.6898 20.9775C66.4555 20.707 67.271 20.6059 68.0795 20.6812C68.888 20.7565 69.6708 21.0064 70.3732 21.4136ZM66.4936 24.8769C66.3101 25.0176 66.1562 25.1931 66.0408 25.3933C65.8666 25.6948 65.7854 26.0411 65.8083 26.3884C65.8312 26.7358 65.9564 27.0686 66.1683 27.3447C66.3805 27.6208 66.6693 27.8279 66.9989 27.9398C67.3285 28.0516 67.6842 28.0632 68.0204 27.9731C68.3566 27.883 68.6583 27.6952 68.888 27.4335C69.1173 27.1718 69.2643 26.8479 69.3097 26.5028C69.3548 26.1577 69.2969 25.8069 69.143 25.4947C68.9891 25.1825 68.7461 24.923 68.4445 24.7489C68.2447 24.6333 68.0235 24.5583 67.7946 24.5282C67.5652 24.498 67.3324 24.5133 67.1093 24.5731C66.8862 24.633 66.6767 24.7362 66.4936 24.8769Z" fill="#615EFF"/>
<path fill-rule="evenodd" clip-rule="evenodd" d="M89.1176 40.1062L97.1117 19.6082H101.799L109.793 40.1062H105.325L103.603 35.5149H95.3081L93.5862 40.1062H89.1176ZM102.236 31.8249C101.69 30.2215 101.202 28.7868 100.774 27.5205C100.346 26.2541 99.9088 24.9468 99.4622 23.5985C99.016 24.9468 98.574 26.2541 98.1367 27.5205C97.7088 28.7868 97.2213 30.2215 96.6744 31.8249H102.236ZM111.146 21.7947C111.146 21.1387 111.347 20.6104 111.748 20.2095C112.148 19.8086 112.677 19.6082 113.333 19.6082C113.988 19.6082 114.517 19.8086 114.918 20.2095C115.319 20.6104 115.519 21.1387 115.519 21.7947C115.519 22.4506 115.319 22.979 114.918 23.3799C114.517 23.7807 113.988 23.9811 113.333 23.9811C112.677 23.9811 112.148 23.7807 111.748 23.3799C111.347 22.979 111.146 22.4506 111.146 21.7947ZM111.365 40.1062V26.4409H115.3V40.1062H111.365ZM118.635 26.4409V40.1062H122.57V34.0798C122.57 32.6404 122.894 31.5334 123.541 30.7591C124.188 29.9757 125.039 29.5839 126.096 29.5839C126.606 29.5839 127.125 29.6705 127.654 29.8436L128.201 26.4409C127.572 26.2587 126.961 26.1676 126.369 26.1676C124.629 26.1676 123.263 26.9101 122.27 28.395V26.4409H118.635ZM129.704 40.1062V19.6082H133.639V27.7938C134.213 27.2836 134.869 26.8873 135.607 26.6049C136.345 26.3133 137.142 26.1676 137.999 26.1676C139.283 26.1676 140.426 26.4773 141.428 27.0968C142.431 27.7072 143.219 28.5499 143.793 29.6249C144.367 30.6907 144.654 31.9069 144.654 33.2736C144.654 34.6403 144.367 35.8608 143.793 36.936C143.219 38.0018 142.431 38.8445 141.428 39.4641C140.426 40.0744 139.283 40.3795 137.999 40.3795C137.115 40.3795 136.29 40.2291 135.525 39.9286C134.76 39.6188 134.09 39.1862 133.516 38.6303L133.421 40.1062H129.704ZM137.499 36.9632C138.501 36.9632 139.33 36.6126 139.986 35.911C140.642 35.2094 140.97 34.3305 140.97 33.2736C140.97 32.2167 140.642 31.3375 139.986 30.6363C139.33 29.9347 138.501 29.5839 137.499 29.5839C136.497 29.5839 135.668 29.9347 135.012 30.6363C134.356 31.3375 134.028 32.2167 134.028 33.2736C134.028 34.3305 134.356 35.2094 135.012 35.911C135.668 36.6126 136.497 36.9632 137.499 36.9632ZM151.23 33.1232L148.032 26.4409H143.919L150.287 39.4229L147.171 46.9388H151.312L159.811 26.4409H155.657L151.967 35.3508C151.876 34.9042 151.767 34.4941 151.64 34.121C151.512 33.7474 151.375 33.4147 151.23 33.1232ZM160.344 26.4409H162.599V23.0246H166.535V26.4409H169.855V29.8572H166.535V34.886C166.535 35.5328 166.74 36.0431 167.15 36.4167C167.569 36.7809 168.097 36.9632 168.735 36.9632C169.209 36.9632 169.696 36.8586 170.197 36.6487V39.8738C169.331 40.2112 168.48 40.3795 167.642 40.3795C166.02 40.3795 164.772 39.9469 163.897 39.0812C163.032 38.2066 162.599 36.9585 162.599 35.3368V29.8572H160.344V26.4409ZM177.317 36.2934C176.661 35.82 176.21 35.2051 175.964 34.4487H186.623V33.26C186.623 31.8844 186.313 30.6635 185.694 29.5976C185.074 28.5317 184.227 27.6936 183.152 27.0832C182.086 26.4728 180.865 26.1676 179.489 26.1676C178.105 26.1676 176.866 26.4773 175.773 27.0968C174.689 27.7072 173.832 28.5454 173.203 29.6113C172.575 30.6681 172.26 31.8751 172.26 33.2324C172.26 34.608 172.588 35.8383 173.245 36.9224C173.9 37.9971 174.807 38.8445 175.964 39.4641C177.121 40.0744 178.456 40.3795 179.968 40.3795C180.915 40.3795 181.904 40.2248 182.933 39.915C183.972 39.6052 185.02 39.0357 186.076 38.2066L183.698 35.3644C183.188 35.8472 182.619 36.2433 181.99 36.5531C181.371 36.854 180.587 37.0044 179.64 37.0044C178.756 37.0044 177.982 36.7673 177.317 36.2934ZM182.339 31.5548C182.121 31.0708 181.809 30.6596 181.403 30.3218C180.811 29.8299 180.1 29.5839 179.271 29.5839C178.433 29.5839 177.704 29.8344 177.085 30.3354C176.669 30.6767 176.351 31.0829 176.13 31.5548H182.339Z" fill="black"/>
</svg>
