<svg xmlns="http://www.w3.org/2000/svg" viewBox="0 0 1200 448" fill="none">
  <g transform="translate(0 448) scale(0.1 -0.1)" fill="#3142c7">
    <path d="M1181 3085 l1 -275 860 0 859 0 -6 -22 c-15 -48 -71 -144 -105 -178 -58 -58 -84 -76 -146 -101 -55 -22 -76 -24 -301 -27 l-243 -4 0 -162 c0 -90 -5 -188 -11 -217 -6 -30 -11 -61 -12 -69 -1 -8 -5 -17 -8 -20 -3 -3 -21 -33 -39 -68 -40 -76 -129 -161 -211 -202 -103 -52 -157 -60 -441 -60 l-258 0 0 -275 0 -275 238 0 c274 0 379 9 514 45 323 83 587 317 718 636 17 40 28 79 26 85 -6 15 8 21 106 45 114 28 294 115 378 185 181 148 307 330 370 530 41 131 50 216 50 467 l0 237 -1171 0 -1170 0 2 -275z"/>
    <path d="M3760 3120 l0 -240 580 0 580 0 0 240 0 240 -580 0 -580 0 0 -240z"/>
    <path d="M6204 3085 l0 -275 698 0 697 0 -6 -37 c-10 -70 -65 -228 -108 -314 -40 -79 -110 -197 -124 -209 -3 -3 -22 -25 -41 -50 -76 -100 -198 -212 -315 -290 -27 -19 -52 -36 -55 -39 -3 -3 -43 -25 -90 -47 -94 -46 -241 -98 -310 -109 -25 -4 -49 -10 -53 -12 -5 -3 -30 -7 -55 -9 -93 -7 -218 -14 -259 -14 l-43 0 0 -281 0 -282 168 6 c117 4 203 14 288 31 113 23 262 64 309 86 11 5 56 24 101 43 105 45 263 133 343 194 35 26 74 55 87 64 13 9 36 27 52 40 15 14 33 28 39 32 8 5 42 -23 95 -79 97 -101 193 -178 210 -168 6 4 8 3 4 -4 -6 -11 98 -82 120 -82 7 0 14 -5 16 -10 5 -17 188 -91 285 -116 51 -13 126 -26 167 -30 l76 -7 0 285 0 285 -60 6 c-112 10 -232 69 -343 167 -52 46 -124 136 -151 189 l-18 33 57 110 c31 60 54 112 51 115 -3 3 1 11 8 18 19 19 71 185 97 305 19 91 22 147 26 418 l5 312 -984 0 -984 0 0 -275z"/>
    <path d="M8710 2240 l0 -1120 275 0 275 0 0 520 c0 286 2 520 5 520 3 0 44 -11 92 -25 49 -14 144 -38 213 -52 l125 -27 588 -3 587 -4 0 276 0 275 -547 0 c-302 1 -566 3 -588 6 -177 23 -350 66 -431 107 l-45 23 1 312 1 312 -276 0 -275 0 0 -1120z"/>
    <path d="M5467 2928 c-8 -217 -40 -381 -103 -517 -14 -30 -23 -60 -20 -68 3 -8 2 -11 -4 -8 -12 8 -43 -52 -34 -68 4 -7 4 -9 -1 -5 -4 4 -30 -25 -57 -65 -27 -39 -83 -106 -124 -148 -41 -41 -71 -79 -67 -84 4 -4 3 -5 -3 -2 -15 8 -56 -22 -48 -35 4 -7 2 -8 -4 -4 -7 4 -38 -11 -69 -32 -107 -72 -206 -116 -358 -157 -143 -38 -268 -49 -552 -50 l-263 0 0 -283 0 -283 303 1 c331 1 435 9 611 46 105 22 241 63 244 74 2 6 7 8 12 5 9 -5 179 66 211 89 11 7 16 16 11 21 -4 5 -1 5 6 1 30 -18 249 142 383 280 99 103 199 233 199 259 0 10 3 15 7 12 10 -10 55 71 47 85 -4 6 -3 8 3 5 12 -7 106 189 98 203 -3 6 -2 10 3 10 17 0 77 204 102 350 6 36 13 76 16 90 9 50 26 393 20 416 l-6 24 -279 0 -278 0 -6 -162z"/>
    <path d="M3760 2460 l0 -240 580 0 580 0 0 240 0 240 -580 0 -580 0 0 -240z"/>
  </g>
</svg>