<svg width="109" height="34" viewBox="0 0 437 136" fill="none" xmlns="http://www.w3.org/2000/svg">
  <g clip-path="url(#clip0_1_299)">
    <path
      d="M437 55.0912C437 46.1864 429.809 38.9677 420.938 38.9677C412.067 38.9677 404.876 46.1864 404.876 55.0912V119.585C404.876 128.49 412.067 135.709 420.938 135.709C429.809 135.709 437 128.49 437 119.585V55.0912Z"
      fill="#cb3036" />
    <path
      d="M122.463 38.9677C131.329 38.9677 138.525 46.1906 138.525 55.0912V119.585C138.525 128.486 131.329 135.709 122.463 135.709C113.596 135.709 106.4 128.486 106.4 119.585V55.0912C106.4 46.1906 113.596 38.9677 122.463 38.9677Z"
      fill="#cb3036" />
    <path
      d="M420.938 0C429.805 0 437 7.22293 437 16.1235C437 25.0241 429.805 32.247 420.938 32.247C412.071 32.247 404.876 25.0241 404.876 16.1235C404.876 7.22293 412.071 0 420.938 0Z"
      fill="#cb3036" />
    <path
      d="M106.41 16.1235C106.41 7.22293 113.606 0 122.473 0C131.339 0 138.535 7.22293 138.535 16.1235C138.535 25.0241 131.339 32.247 122.473 32.247C113.606 32.247 106.41 25.0241 106.41 16.1235Z"
      fill="#cb3036" />
    <path
      d="M148.232 25.9885C148.232 24.7529 149.073 23.678 150.273 23.3766L175.032 17.2788C176.723 16.8669 178.345 18.1427 178.345 19.8907V39.3092C178.345 40.0526 178.945 40.6554 179.686 40.6554H194.747C196.228 40.6554 197.429 41.8609 197.429 43.3376V64.494C197.429 65.9808 196.228 67.1763 194.747 67.1763H179.686C178.945 67.1763 178.345 67.779 178.345 68.5224V100.267C178.345 105.31 181.857 108.836 186.881 108.997C191.054 109.138 194.767 108.233 198.21 107.048C199.321 106.666 200.531 107.279 200.922 108.394C203.454 115.718 208.027 122.006 210.629 125.11C211.41 126.035 211.31 127.461 210.319 128.144C204.164 132.394 195.378 135.699 184.709 135.699C158.109 135.699 148.232 121.594 148.232 101.945V25.9885Z"
      fill="#cb3036" />
    <path
      d="M326.166 119.826L298.465 44.2618C297.825 42.5037 299.116 40.6453 300.977 40.6453H327.407C329.139 40.6453 330.68 41.7603 331.22 43.4179L347.883 94.4606C348.183 95.3848 349.484 95.3848 349.794 94.4606L366.457 43.4179C366.997 41.7603 368.538 40.6453 370.27 40.6453H396.7C398.561 40.6453 399.852 42.5037 399.212 44.2618L371.511 119.826C368.018 129.36 358.961 135.699 348.843 135.699C338.726 135.699 329.669 129.36 326.176 119.826H326.166Z"
      fill="#cb3036" />
    <path fill-rule="evenodd" clip-rule="evenodd"
      d="M254.452 136C281.142 136 302.789 114.281 302.789 87.4788C302.789 60.6767 281.152 38.9576 254.452 38.9576C227.752 38.9576 206.116 60.6767 206.116 87.4788C206.116 114.281 227.752 136 254.452 136ZM272.726 92.11C272.726 81.1801 265.871 63.5598 253.992 63.5598C242.113 63.5598 235.258 81.1902 235.258 92.11C235.258 102.186 241.783 111.93 253.992 111.93C266.201 111.93 272.726 102.186 272.726 92.11Z"
      fill="#cb3036" />
    <path fill-rule="evenodd" clip-rule="evenodd"
      d="M30.1227 8.00645C30.1227 6.52971 28.9218 5.32422 27.4507 5.32422H2.67202C1.20091 5.32422 0 6.52971 0 8.00645V132.353C0 133.84 1.20091 135.036 2.67202 135.036H27.4507C28.9218 135.036 30.1227 133.83 30.1227 132.353V128.847C30.1227 127.702 31.4738 127.069 32.3945 127.752C39.1396 132.795 47.2957 135.719 56.2325 135.719C81.6717 135.719 98.7446 114.05 98.7446 87.3281C98.7446 60.6062 79.9003 38.9375 56.2325 38.9375C47.4158 38.9375 39.2096 41.9512 32.4045 47.1047C31.4938 47.7978 30.1328 47.165 30.1328 46.0097V8.00645H30.1227ZM30.1227 87.318C30.1227 75.4338 37.1581 65.7999 49.3673 65.7999C61.5765 65.7999 68.6118 75.4338 68.6118 87.318C68.6118 99.2022 61.5765 108.836 49.3673 108.836C37.1581 108.836 30.1227 99.2022 30.1227 87.318Z"
      fill="#cb3036" />
  </g>
  <defs>
    <clipPath id="clip0_1_299">
      <rect width="437" height="136" fill="white" />
    </clipPath>
  </defs>
</svg>