<svg width="232" height="60" viewBox="0 0 232 60" fill="none" xmlns="http://www.w3.org/2000/svg">
<path d="M153.559 7.01851C149.415 4.87768 144.816 3.81042 139.762 3.81042C134.709 3.81042 130.145 4.88084 126.068 7.01851C121.991 9.16243 118.775 12.2221 116.416 16.2007C114.059 20.1824 112.879 24.7766 112.879 29.9961C112.879 35.2156 114.056 39.813 116.416 43.7947C118.772 47.7764 121.991 50.8359 126.068 52.9735C130.145 55.1144 134.709 56.1849 139.762 56.1849C144.816 56.1849 149.415 55.1144 153.559 52.9735C157.703 50.8327 160.95 47.7764 163.31 43.7947C165.666 39.813 166.846 35.2156 166.846 29.9961C166.846 24.7766 165.666 20.1824 163.31 16.2007C160.95 12.219 157.699 9.15927 153.559 7.01851ZM153.104 38.3762C151.755 40.8201 149.92 42.6768 147.596 43.9462C145.271 45.2155 142.66 45.8534 139.762 45.8534C136.865 45.8534 134.372 45.2155 132.082 43.9462C129.792 42.6768 127.954 40.8201 126.574 38.3762C125.193 35.9354 124.5 33.1443 124.5 29.9993C124.5 26.8543 125.19 24.0661 126.574 21.6221C127.954 19.1813 129.789 17.3247 132.082 16.0524C134.372 14.783 136.967 14.1483 139.864 14.1483C142.761 14.1483 145.271 14.7862 147.596 16.0524C149.92 17.3247 151.755 19.1813 153.104 21.6221C154.449 24.0661 155.127 26.8574 155.127 29.9993C155.127 33.1411 154.453 35.9354 153.104 38.3762Z" fill="#131316"/>
<path d="M106.391 34.8257C106.057 36.079 105.418 37.2665 104.807 38.3747C103.459 40.8186 101.624 42.6753 99.2989 43.9447C96.974 45.2138 94.3631 45.8517 91.4657 45.8517C88.5685 45.8517 86.075 45.2138 83.7852 43.9447C81.4953 42.6753 79.6571 40.8186 78.2769 38.3747C76.8966 35.9339 76.2033 33.1426 76.2033 29.9976C76.2033 26.8528 76.8935 24.0646 78.2769 21.6207C79.6571 19.1799 81.4922 17.3232 83.7852 16.0507C86.075 14.7845 88.6701 14.1466 91.5675 14.1466C94.4649 14.1466 96.974 14.7845 99.2989 16.0507C101.624 17.3264 103.459 19.1799 104.807 21.6207C105.548 22.9657 106.038 24.4436 106.369 26.0035C106.823 22.3847 107.911 19.104 109.654 16.1613C110.433 14.8477 111.343 13.6699 112.306 12.5554C110.341 10.3166 108.016 8.44731 105.262 7.02326C101.118 4.88242 96.5192 3.81517 91.4657 3.81517C86.4122 3.81517 81.8483 4.88558 77.7712 7.02326C73.694 9.1673 70.4787 12.227 68.1187 16.2055C65.7622 20.1872 64.5823 24.7815 64.5823 30.0007C64.5823 35.2202 65.759 39.8176 68.1187 43.7993C70.4756 47.781 73.694 50.8376 77.7712 52.9784C81.8483 55.1192 86.4122 56.1895 91.4657 56.1895C96.5192 56.1895 101.118 55.1192 105.262 52.9784C108.035 51.5449 110.373 49.663 112.348 47.4052C111.365 46.278 110.443 45.0877 109.654 43.7551C108.064 41.068 106.906 38.0779 106.391 34.8288V34.8257Z" fill="#131316"/>
</svg>
