<svg width="232" height="60" viewBox="0 0 232 60" fill="none" xmlns="http://www.w3.org/2000/svg">
<path d="M107.402 32.714L100.044 22.2982H96.7567V37.5221H99.7974V27.1991L107.088 37.5221H110.443V22.2982H107.402V32.714Z" fill="black"/>
<path d="M120.651 33.8842L116.339 22.2982H113.113L118.994 37.5221H122.303L128.15 22.2982H124.997L120.651 33.8842Z" fill="black"/>
<path d="M176.746 22.2982V34.0174C176.744 34.4787 176.831 34.9356 177.001 35.3622C177.17 35.7887 177.42 36.1765 177.734 36.5032C178.049 36.8298 178.423 37.089 178.835 37.2659C179.247 37.4428 179.688 37.5337 180.134 37.5337H188.215V34.5388H180.906C180.614 34.5389 180.334 34.4208 180.125 34.2097C179.916 33.9987 179.794 33.7114 179.786 33.4091V31.2715H187.324V28.3056H179.786V25.2816H188.215V22.2982H176.746Z" fill="black"/>
<path d="M130.961 22.2982V34.0174C130.959 34.4787 131.046 34.9356 131.216 35.3622C131.385 35.7887 131.635 36.1765 131.949 36.5032C132.265 36.8298 132.638 37.089 133.05 37.2659C133.462 37.4428 133.903 37.5337 134.349 37.5337H142.43V34.5388H135.094C134.806 34.5314 134.533 34.4101 134.33 34.1998C134.126 33.9895 134.009 33.7065 134.002 33.4091V31.2715H141.539V28.3056H134.002V25.2816H142.402V22.2982H130.961Z" fill="black"/>
<path d="M160.243 22.2982V25.2816H165.456V37.5221H168.498V25.2816H173.71V22.2982H160.243Z" fill="black"/>
<path d="M158.665 27.6862C158.665 24.0945 156.1 22.3103 152.034 22.3103H145.874V37.5342H148.915V33.0562H152.197L154.997 37.5284H158.418L155.417 32.5175C156.401 32.2006 157.254 31.5535 157.842 30.6785C158.43 29.8035 158.72 28.7505 158.665 27.6862ZM151.749 30.0844H148.921V25.2821H151.749C153.574 25.2821 155.467 25.5948 155.467 27.6745C155.467 29.7543 153.574 30.0728 151.749 30.0728V30.0844Z" fill="black"/>
<path d="M70.4635 25.2176C71.3395 25.1795 72.2015 25.4547 72.9043 25.997C73.607 26.5394 74.1076 27.3157 74.3218 28.1952L77.1218 27.135C76.8281 25.6692 75.9972 24.3779 74.8034 23.5318C73.5216 22.5861 71.9759 22.0999 70.4019 22.1473C69.4163 22.1084 68.4336 22.2825 67.5167 22.6586C66.5997 23.0346 65.7686 23.6043 65.0765 24.3313C64.3895 25.0942 63.8567 25.9915 63.5096 26.9704C63.1624 27.9493 63.0079 28.99 63.055 30.0315C63.0081 31.0757 63.1627 32.1191 63.5098 33.1007C63.8569 34.0824 64.3895 34.9827 65.0765 35.7492C65.77 36.4729 66.6018 37.0389 67.5188 37.4109C68.4358 37.783 69.4178 37.953 70.4019 37.91C71.972 37.9542 73.5145 37.4771 74.8034 36.5486C75.9891 35.678 76.8101 34.3732 77.0994 32.8991L74.2995 31.8622C74.0764 32.7352 73.573 33.5038 72.8718 34.0417C72.1706 34.5797 71.3135 34.8549 70.4412 34.8223C69.8715 34.8455 69.3038 34.7398 68.7777 34.5127C68.2515 34.2856 67.7796 33.9425 67.3948 33.5073C66.6117 32.5359 66.2118 31.2947 66.2749 30.0315C66.2044 28.7674 66.6053 27.5234 67.3948 26.5558C67.78 26.1133 68.2547 25.7641 68.785 25.5328C69.3154 25.3016 69.8885 25.1939 70.4635 25.2176Z" fill="black"/>
<path d="M86.4648 22.1177C85.4668 22.0751 84.4709 22.2466 83.5399 22.6215C82.609 22.9963 81.7631 23.5664 81.0554 24.2959C80.361 25.0567 79.8205 25.9533 79.4656 26.9332C79.1108 27.913 78.9488 28.9564 78.989 30.002C78.946 31.0485 79.1045 32.0934 79.4555 33.076C79.8064 34.0585 80.3426 34.9592 81.033 35.7254C81.7409 36.4535 82.5872 37.0215 83.5184 37.3934C84.4496 37.7654 85.4453 37.9332 86.4425 37.8862C87.4433 37.9395 88.4438 37.7743 89.3787 37.4009C90.3137 37.0276 91.1621 36.4547 91.8688 35.7196C92.5584 34.9547 93.093 34.0548 93.4411 33.0728C93.7892 32.0908 93.9439 31.0467 93.8959 30.002C93.9414 28.9592 93.7856 27.9175 93.4376 26.9379C93.0895 25.9581 92.5562 25.06 91.8688 24.2959C91.1644 23.5634 90.3199 22.9913 89.3893 22.6162C88.4587 22.2411 87.4626 22.0713 86.4648 22.1177ZM89.5336 33.524C89.1474 33.9644 88.6723 34.3115 88.142 34.5407C87.6117 34.77 87.0391 34.8758 86.4648 34.8507C85.8872 34.8768 85.3111 34.7716 84.777 34.5424C84.2429 34.3132 83.7638 33.9656 83.3738 33.524C82.5688 32.5451 82.1543 31.2857 82.2146 30.002C82.1543 28.7182 82.5688 27.4588 83.3738 26.4798C83.7752 26.0559 84.2544 25.7192 84.7833 25.4893C85.3122 25.2594 85.88 25.141 86.4537 25.141C87.0273 25.141 87.5953 25.2594 88.1241 25.4893C88.6529 25.7192 89.1321 26.0559 89.5336 26.4798C90.3467 27.4554 90.7693 28.7151 90.7152 30.002C90.7739 31.2895 90.3507 32.551 89.5336 33.524Z" fill="black"/>
<path d="M203.425 24.2965C201.953 22.8961 200.026 22.1188 198.027 22.1188C196.026 22.1188 194.1 22.8961 192.628 24.2965C191.938 25.0592 191.402 25.9567 191.051 26.9364C190.7 27.9162 190.541 28.9587 190.584 30.0025C190.541 31.0491 190.7 32.094 191.051 33.0766C191.402 34.0592 191.938 34.9598 192.628 35.726C194.105 37.1165 196.03 37.8872 198.027 37.8872C200.023 37.8872 201.948 37.1165 203.425 35.726C204.117 34.9613 204.654 34.0609 205.005 33.078C205.357 32.0951 205.514 31.0494 205.468 30.0025C205.511 28.9587 205.352 27.9167 205.001 26.937C204.65 25.9573 204.114 25.0597 203.425 24.2965ZM201.106 33.5247C200.72 33.965 200.245 34.3121 199.714 34.5413C199.184 34.7706 198.611 34.8764 198.038 34.8512C197.46 34.8774 196.884 34.7722 196.349 34.543C195.815 34.3138 195.336 33.9661 194.946 33.5247C194.141 32.5457 193.727 31.2864 193.787 30.0025C193.727 28.7188 194.141 27.4594 194.946 26.4805C195.348 26.0566 195.827 25.7198 196.356 25.4899C196.884 25.26 197.453 25.1416 198.027 25.1416C198.6 25.1416 199.168 25.26 199.696 25.4899C200.226 25.7198 200.704 26.0566 201.106 26.4805C201.92 27.456 202.342 28.7157 202.288 30.0025C202.346 31.2901 201.923 32.5516 201.106 33.5247Z" fill="black"/>
<path d="M58.5044 15.1091H52.9046L44.124 24.0593C43.2902 24.9058 42.6444 25.9297 42.2312 27.0601C41.0384 20.8673 36.0042 15.1091 26.4844 15.1091H25.9524V22.3272H26.2492C32.717 22.4025 35.013 26.527 35.013 30.0029C35.013 33.4786 32.717 37.6032 26.2492 37.6785H25.9524V44.8908H26.4844C36.0042 44.8908 41.044 39.1326 42.2312 32.9399C42.6465 34.0692 43.292 35.0926 44.124 35.9406L52.9102 44.8908H58.51V39.15L49.5222 30.0029L58.482 20.8557L58.5044 15.1091Z" fill="#2BD6D9"/>
</svg>
