<svg width="232" height="60" viewBox="0 0 232 60" fill="none" xmlns="http://www.w3.org/2000/svg">
<path d="M61.7188 26.2881L44.3743 36.1203L25.9472 25.6474L25.0855 26.1114V33.712L44.3964 44.7153L61.7409 34.883V38.9264L44.3964 48.7586L25.9472 38.2857L25.0855 38.7496V40.0312L44.3964 51.0344L63.7737 40.0312V32.4305L62.9119 31.9665L44.3743 42.4395L27.0961 32.6073V28.6302L44.3743 38.3961L63.7516 27.3929V19.9027L62.7573 19.3724L44.3743 29.7791L28.0241 20.4772L44.3743 11.2415L57.8743 18.8421L59.0895 18.2014V17.2734L44.3743 8.9657L25.0634 19.9248V21.0958L44.3743 32.0991L61.7188 22.2668V26.2881Z" fill="#FF3621"/>
<path d="M110.186 35.369V28.6301C110.186 28.4533 110.076 28.3429 109.899 28.3429H107.689V25.7136H109.899C110.076 25.7136 110.186 25.6031 110.186 25.4263V21.2062H113.324V25.4263C113.324 25.6031 113.434 25.7136 113.611 25.7136H116.704V28.3429H113.611C113.434 28.3429 113.324 28.4533 113.324 28.6301V34.5957C113.324 37.4018 114.318 37.6448 115.599 37.6448C116.063 37.6448 116.77 37.5785 117.168 37.5343V40.2741C116.638 40.3404 115.776 40.4509 114.782 40.4509C113.567 40.3846 110.186 40.3846 110.186 35.369ZM195.583 37.0041L198.146 35.6563C198.72 37.0041 199.825 37.8879 201.107 37.8879C202.101 37.8879 203.206 37.468 203.206 36.2528C203.206 35.4353 202.675 34.9713 201.46 34.5515L199.715 33.9771C197.262 33.2258 196.047 31.8117 196.047 29.8232C196.047 27.3044 198.146 25.4263 200.996 25.4263C203.272 25.4263 205.194 26.6636 206.122 28.5859L203.559 30C202.985 28.7627 202.057 28.0777 200.952 28.0777C199.847 28.0777 199.096 28.6522 199.096 29.536C199.096 30.2872 199.67 30.8838 200.842 31.2373L202.587 31.8117C205.15 32.6293 206.365 34.0433 206.365 35.9656C206.365 39.0147 203.758 40.5834 201.129 40.5834C198.499 40.5171 196.4 39.1694 195.583 37.0041ZM185.927 34.3748C185.861 34.441 185.817 34.4852 185.817 34.5515V40.1636H182.613V19.3944H185.817V30.7512C185.817 30.8617 185.883 30.9942 185.994 30.9942C186.104 31.0605 186.237 30.9942 186.281 30.928L191.451 25.6694H195.34L189.308 31.7897C189.197 31.9001 189.197 32.0327 189.308 32.1432L195.87 40.1636H191.981L186.922 33.8445C186.855 33.7782 186.811 33.734 186.745 33.734C186.679 33.734 186.634 33.734 186.568 33.8003L185.927 34.3748ZM181.044 27.6358L179.012 29.5581C177.841 28.6743 176.692 28.2766 175.41 28.2766C172.737 28.2766 170.748 30.2651 170.748 32.9607C170.748 35.6563 172.737 37.6448 175.41 37.6448C176.581 37.6448 177.797 37.225 179.078 36.3633L180.89 38.2856C178.283 40.2078 176.869 40.5613 175.079 40.5613C172.936 40.5613 171.013 39.8101 169.621 38.396C168.274 37.0482 167.522 35.0597 167.522 32.9607C167.522 28.5638 170.726 25.36 175.145 25.36C176.559 25.36 178.724 25.581 181.044 27.6358ZM166.042 21.383C166.042 22.4435 165.18 23.3052 164.12 23.3052C163.081 23.3052 162.197 22.4214 162.197 21.383C162.197 20.3224 163.059 19.4607 164.12 19.4607C165.158 19.4386 166.042 20.3224 166.042 21.383ZM165.733 40.1636H162.529V25.7136H165.733V40.1636ZM155.569 33.8445V40.2299H152.365V25.7798H155.503V27.5253C155.503 27.6358 155.569 27.7684 155.679 27.8126C155.79 27.8789 155.923 27.8126 155.967 27.7021C156.784 26.3543 158.287 25.4705 159.922 25.4705C160.165 25.4705 160.319 25.4705 160.452 25.5368V28.8068C160.275 28.7406 159.988 28.7406 159.701 28.7406C157.138 28.6964 155.569 30.6849 155.569 33.8445ZM138.401 32.9607C138.401 30.3314 140.39 28.2766 142.931 28.2766C145.494 28.2766 147.46 30.3314 147.46 32.9607C147.46 35.59 145.472 37.6448 142.931 37.6448C140.39 37.6448 138.401 35.59 138.401 32.9607ZM138.688 38.4623C138.755 38.4623 138.755 38.4623 138.799 38.4623C138.865 38.4623 138.976 38.5286 139.042 38.5728C140.147 39.8543 141.782 40.5613 143.638 40.5613C147.593 40.5613 150.62 37.225 150.62 32.9607C150.62 30.8617 149.913 28.9836 148.587 27.5253C147.306 26.1113 145.494 25.36 143.594 25.36C141.782 25.36 140.103 26.1113 138.998 27.4591C138.932 27.5253 138.821 27.5695 138.711 27.5253C138.6 27.4591 138.534 27.4149 138.534 27.2823V19.4386H135.33V40.2078H138.534V38.7496C138.512 38.5728 138.578 38.5286 138.688 38.4623ZM125.432 37.6448C122.935 37.6448 120.902 35.59 120.902 32.9607C120.902 30.3314 122.891 28.2766 125.432 28.2766C127.995 28.2766 129.961 30.3314 129.961 32.9607C129.961 35.59 127.928 37.6448 125.432 37.6448ZM132.944 40.1636V25.7136H129.806V27.1718C129.806 27.2823 129.74 27.4149 129.63 27.4149C129.519 27.4811 129.387 27.4149 129.342 27.3486C128.304 26.0671 126.669 25.36 124.747 25.36C120.792 25.36 117.765 28.6964 117.765 32.9607C117.765 37.225 120.858 40.5613 124.747 40.5613C126.558 40.5613 128.238 39.8101 129.342 38.4623C129.409 38.3518 129.519 38.3518 129.63 38.396C129.74 38.4623 129.806 38.5065 129.806 38.6391V40.2299H132.944V40.1636ZM98.4978 37.6448C96.0011 37.6448 93.9684 35.59 93.9684 32.9607C93.9684 30.3314 95.9569 28.2766 98.4978 28.2766C100.995 28.2766 103.027 30.3314 103.027 32.9607C103.027 35.59 100.995 37.6448 98.4978 37.6448ZM106.01 40.1636V25.7136H102.873V27.1718C102.873 27.2823 102.806 27.4149 102.696 27.4149C102.585 27.4811 102.453 27.4149 102.409 27.3486C101.37 26.0671 99.7351 25.36 97.8129 25.36C93.8579 25.36 90.8309 28.6964 90.8309 32.9607C90.8309 37.225 93.9242 40.5613 97.8129 40.5613C99.6247 40.5613 101.304 39.8101 102.409 38.4623C102.475 38.3518 102.585 38.3518 102.696 38.396C102.806 38.4623 102.873 38.5065 102.873 38.6391V40.2299H106.01V40.1636ZM81.5068 37.6448C78.9438 37.6448 76.9774 35.59 76.9774 32.9607C76.9774 30.3314 78.9659 28.2766 81.5068 28.2766C84.0036 28.2766 86.0363 30.3314 86.0363 32.9607C86.0584 35.59 84.0036 37.6448 81.5068 37.6448ZM89.0191 40.1636V19.4386H85.8154V27.216C85.8154 27.3265 85.7491 27.4591 85.6386 27.4591C85.5281 27.5253 85.3955 27.4591 85.3514 27.3928C84.2466 26.1113 82.6116 25.4042 80.7556 25.4042C76.8006 25.4042 73.7736 28.7406 73.7736 33.0049C73.7736 35.1039 74.4807 36.982 75.8064 38.4402C77.0879 39.8543 78.8996 40.6055 80.7998 40.6055C82.6116 40.6055 84.2908 39.8543 85.3955 38.5065C85.4618 38.4402 85.5723 38.396 85.6828 38.4402C85.7933 38.5065 85.8595 38.5507 85.8595 38.6833V40.2078H88.997V40.1636H89.0191Z" fill="black"/>
</svg>
