<svg width="232" height="60" viewBox="0 0 232 60" fill="none" xmlns="http://www.w3.org/2000/svg">
<g clip-path="url(#clip0_25181_3273)">
<path d="M186.885 21.4624C182.137 21.4624 178.276 25.2914 178.276 30C178.276 34.7085 182.137 38.5375 186.885 38.5375C191.632 38.5375 195.493 34.7085 195.493 30C195.493 25.2914 191.632 21.4624 186.885 21.4624ZM186.885 35.5986C183.773 35.5986 181.24 33.0863 181.24 30C181.24 26.9136 183.773 24.4013 186.885 24.4013C189.997 24.4013 192.53 26.9136 192.53 30C192.53 33.0863 189.997 35.5986 186.885 35.5986Z" fill="#130E3A"/>
<path d="M90.4844 29.9895C90.4844 27.2349 89.3426 24.8859 87.2663 23.3743C85.636 22.2051 83.9844 21.7732 81.1646 21.7732H76.656V38.2321H81.1168C84.0322 38.2321 85.4979 37.8476 87.1441 36.6521C89.332 35.1036 90.4844 32.7967 90.4844 29.9895ZM85.4076 34.303C84.3402 35.0931 83.2303 35.388 81.3133 35.388H79.6723V24.6173H81.3133C83.1825 24.6173 84.4092 24.9333 85.4129 25.6812C86.7034 26.624 87.4734 28.2462 87.4734 30.0158C87.4734 31.7749 86.7193 33.3339 85.4076 34.303Z" fill="#130E3A"/>
<path d="M131.805 21.7732H134.816V38.2321H131.805V21.7732Z" fill="#130E3A"/>
<path d="M155.787 29.9895C155.787 27.2349 154.645 24.8859 152.569 23.3743C150.938 22.2051 149.287 21.7732 146.472 21.7732H141.964V38.2321H146.425C149.34 38.2321 150.806 37.8476 152.452 36.6521C154.634 35.1036 155.787 32.7967 155.787 29.9895ZM150.71 34.303C149.637 35.0931 148.527 35.388 146.616 35.388H144.975V24.6173H146.616C148.485 24.6173 149.712 24.9333 150.715 25.6812C152.006 26.624 152.776 28.2462 152.776 30.0158C152.776 31.7749 152.022 33.3339 150.71 34.303Z" fill="#130E3A"/>
<path d="M106.686 38.2321H110.005L102.252 21.5889L94.499 38.2321H97.818L98.827 36.0622H105.672L106.686 38.2321ZM100.218 33.0706L102.252 28.7097L104.286 33.0706H100.218Z" fill="#130E3A"/>
<path d="M114.567 21.7732H111.248L119.001 38.4165L126.755 21.7732H123.436L119.001 31.2904L114.567 21.7732Z" fill="#130E3A"/>
<path d="M172.966 33.1706C172.892 30.8637 171.522 29.3363 168.521 28.2145C166.206 27.3665 166.206 27.3665 165.723 27.0716C165.234 26.7767 164.995 26.4185 164.979 25.9814C164.969 25.5969 165.107 25.2387 165.388 24.9543C165.786 24.5435 166.44 24.3065 167.172 24.3065C168.288 24.3065 168.813 24.6172 169.61 25.7549L169.764 25.9708L172.366 24.5224L172.191 24.2591C170.895 22.3262 169.334 21.4624 167.125 21.4624C165.42 21.4624 163.864 22.0523 162.86 23.0846C162.069 23.8904 161.671 24.8911 161.708 25.9761C161.772 27.8932 163.052 29.2942 165.632 30.2633C168.006 31.1587 168.006 31.1587 168.59 31.4958C169.334 31.9592 169.706 32.5649 169.732 33.355C169.753 33.9817 169.541 34.5347 169.127 34.9666C168.665 35.4354 168.001 35.6987 167.247 35.6987C166.254 35.6987 165.34 35.2616 164.921 34.5821C164.677 34.2293 164.576 33.8922 164.416 32.9652L164.363 32.665L161.119 33.3339L161.172 33.613C161.405 34.8613 161.681 35.5144 162.313 36.3149C163.471 37.7528 165.213 38.5428 167.215 38.5428C168.957 38.5428 170.502 37.9424 171.575 36.8469C172.515 35.8725 173.009 34.5663 172.966 33.1706Z" fill="#130E3A"/>
<path d="M213.198 31.7538L201.536 21.515V38.1793H204.553V28.1512L216.214 38.3953V21.7204H213.198V31.7538Z" fill="#130E3A"/>
<path d="M15.2142 7.5V29.5734C21.0876 29.5734 25.851 34.2978 25.851 40.1229C25.851 45.948 21.0876 50.6724 15.2142 50.6724V52.5053C27.7416 52.5053 37.9004 42.4298 37.9004 30.0053C37.9004 17.5808 27.7416 7.5 15.2142 7.5Z" fill="url(#paint0_linear_25181_3273)"/>
<path d="M62.4027 7.5V29.5734C56.5294 29.5734 51.7659 34.2978 51.7659 40.1229C51.7659 45.948 56.5294 50.6724 62.4027 50.6724V52.5053C49.8754 52.5053 39.7166 42.4298 39.7166 30.0053C39.7166 17.5808 49.8754 7.5 62.4027 7.5Z" fill="url(#paint1_linear_25181_3273)"/>
</g>
<defs>
<linearGradient id="paint0_linear_25181_3273" x1="6.03918" y1="43.7611" x2="53.0051" y2="-3.59339" gradientUnits="userSpaceOnUse">
<stop stop-color="#44277F"/>
<stop offset="0.4966" stop-color="#B51F80"/>
<stop offset="1" stop-color="#F08EB8"/>
</linearGradient>
<linearGradient id="paint1_linear_25181_3273" x1="24.3662" y1="63.0667" x2="71.3322" y2="15.7122" gradientUnits="userSpaceOnUse">
<stop stop-color="#44277F"/>
<stop offset="0.4966" stop-color="#B51F80"/>
<stop offset="1" stop-color="#F08EB8"/>
</linearGradient>
<clipPath id="clip0_25181_3273">
<rect width="201" height="45" fill="white" transform="translate(15.2142 7.5)"/>
</clipPath>
</defs>
</svg>
