<svg width="232" height="60" viewBox="0 0 232 60" fill="none" xmlns="http://www.w3.org/2000/svg">
<g clip-path="url(#clip0_25181_3334)">
<g clip-path="url(#clip1_25181_3334)">
<mask id="mask0_25181_3334" style="mask-type:luminance" maskUnits="userSpaceOnUse" x="47" y="9" width="138" height="41">
<path d="M184.214 9.50012H47.2142V49.5001H184.214V9.50012Z" fill="white"/>
</mask>
<g mask="url(#mask0_25181_3334)">
<path d="M98.5618 43.786H92.8081V49.5002H98.5618V43.786Z" fill="#C6D300"/>
<path d="M92.8083 15.2145V9.50024H87.0544V15.2145V20.9288V26.6431V32.3574V38.0718V43.786H92.8083V38.0718V32.3574V26.6431H98.5621V20.9288H92.8083V15.2145Z" fill="#59C1D5"/>
<path d="M75.765 15.2145V20.9288V26.6431V32.3574V38.0718V43.786V49.5002H81.5187V43.786V38.0718V32.3574V26.6431V20.9288V15.2145V9.50024H75.765V15.2145Z" fill="#59C1D5"/>
<path d="M64.4755 15.2145V20.9288H58.7218H52.968V26.6431H58.7218H64.4755V32.3574V38.0718V43.786H58.7218H52.968V49.5002H58.7218H64.4755H70.2294V43.786V38.0718V32.3574V26.6431V20.9288V15.2145V9.50024H64.4755V15.2145Z" fill="#59C1D5"/>
<path d="M52.968 32.3573V26.6431H47.2142V32.3573V38.0717V43.7859H52.968V38.0717V32.3573Z" fill="#59C1D5"/>
<path d="M121.359 26.6431H109.851V9.50024H104.098V49.5002H109.851V32.3574H121.359V49.5002H127.113V9.50024H121.359V26.6431Z" fill="#C6D300"/>
<path d="M138.402 20.9288H132.648V43.786H138.402V20.9288Z" fill="#C6D300"/>
<path d="M149.91 43.786H138.402V49.5002H155.663V20.9288H149.91V43.786Z" fill="#C6D300"/>
<path d="M166.953 26.6431H178.461V20.9288H166.953V9.50024H161.199V49.5002H178.461V43.786H166.953V26.6431Z" fill="#C6D300"/>
<path d="M184.214 26.6431H178.46V43.7859H184.214V26.6431Z" fill="#C6D300"/>
</g>
</g>
</g>
<defs>
<clipPath id="clip0_25181_3334">
<rect width="137" height="41" fill="white" transform="translate(47.2142 9.5)"/>
</clipPath>
<clipPath id="clip1_25181_3334">
<rect width="137" height="40" fill="white" transform="translate(47.2142 9.5)"/>
</clipPath>
</defs>
</svg>
