<svg width="137" height="41" viewBox="0 0 137 41" fill="none" xmlns="http://www.w3.org/2000/svg">
<path d="M51.3478 34.5571H45.594V40.18H51.3478V34.5571Z" fill="currentColor"/>
<path d="M45.5939 6.44285V0.820007H39.8401V6.44285V12.0658V17.6886V23.3115V28.9344V34.5571H45.5939V28.9344V23.3115V17.6886H51.3478V12.0658H45.5939V6.44285Z" fill="currentColor"/>
<path d="M28.5507 6.44285V12.0658V17.6886V23.3115V28.9344V34.5571V40.18H34.3045V34.5571V28.9344V23.3115V17.6886V12.0658V6.44285V0.820007H28.5507V6.44285Z" fill="currentColor"/>
<path d="M17.2614 6.44285V12.0658H11.5076H5.75378V17.6886H11.5076H17.2614V23.3115V28.9344V34.5571H11.5076H5.75378V40.18H11.5076H17.2614H23.0152V34.5571V28.9344V23.3115V17.6886V12.0658V6.44285V0.820007H17.2614V6.44285Z" fill="currentColor"/>
<path d="M5.7538 23.3115V17.6886H0V23.3115V28.9344V34.5571H5.7538V28.9344V23.3115Z" fill="currentColor"/>
<path d="M74.1447 17.6886H62.637V0.820007H56.8832V40.18H62.637V23.3115H74.1447V40.18H79.8983V0.820007H74.1447V17.6886Z" fill="currentColor"/>
<path d="M91.1879 12.0658H85.4341V34.5573H91.1879V12.0658Z" fill="currentColor"/>
<path d="M102.695 34.5573H91.1879V40.18H108.449V12.0658H102.695V34.5573Z" fill="currentColor"/>
<path d="M119.739 17.6886H131.246V12.0658H119.739V0.820007H113.985V40.18H131.246V34.5571H119.739V17.6886Z" fill="currentColor"/>
<path d="M137 17.6886H131.246V34.5571H137V17.6886Z" fill="currentColor"/>
</svg>
