<svg width="232" height="60" viewBox="0 0 232 60" fill="none" xmlns="http://www.w3.org/2000/svg">
<g clip-path="url(#clip0_25181_3314)">
<path d="M104.54 20.866C106.654 20.7109 108.752 21.3354 110.45 22.625C112.325 24.0411 113.574 26.1524 113.924 28.4992C114.121 29.9137 113.975 31.9119 114.006 33.3848C113.993 34.6931 114.086 36.0204 114.004 37.3251C113.96 38.0393 113.531 38.7791 112.77 38.8307C110.679 38.9727 111.159 36.6662 111.085 35.3605C110.881 31.7698 112.072 27.691 108.868 25.1053C107.621 24.1162 106.041 23.6647 104.469 23.8484C102.712 24.059 101.417 24.9381 100.344 26.3217C99.4682 27.5848 99.0935 29.1367 99.2942 30.6681C99.6161 33.079 101.327 35.0705 103.7 35.6767C104.501 35.8997 105.863 35.6606 106.543 36.1672C107.227 36.6773 107.286 37.6947 106.737 38.3187C106.438 38.659 106.081 38.7928 105.661 38.8138C103.495 38.9218 101.228 38.1922 99.5485 36.7949C97.7288 35.2781 96.5798 33.0865 96.3561 30.7061C96.1302 28.3237 96.8468 25.9478 98.3474 24.1027C99.9425 22.1394 102.072 21.106 104.54 20.866Z" fill="black"/>
<path d="M61.3314 20.8657C62.2368 20.795 63.1475 20.8731 64.0285 21.0971C66.3297 21.68 68.3094 23.1663 69.5336 25.2299C70.0777 26.1481 70.4522 27.1596 70.6385 28.2145C70.8262 29.2851 70.9254 36.8481 70.6978 37.744C70.6035 38.1148 70.4004 38.4883 70.0643 38.6838C69.7159 38.8865 69.3399 38.8814 68.9621 38.7735C68.4002 38.6129 68.1606 38.2811 67.8887 37.795C67.7884 35.0107 67.9945 32.1575 67.8354 29.38C67.6435 26.032 64.6243 23.4677 61.3439 23.8395C59.4934 24.0492 58.2863 24.8535 57.1199 26.293C56.2215 27.5781 55.8432 29.1647 56.0632 30.725C56.3988 33.1097 58.1343 35.0915 60.4806 35.6837C61.2112 35.8955 62.6953 35.6655 63.3075 36.1673C64.4039 37.0659 63.8134 38.7815 62.3829 38.8182C60.125 38.8762 57.9568 38.1892 56.2283 36.7278C54.4327 35.1933 53.3108 32.9969 53.1097 30.622C52.9085 28.2534 53.637 25.9001 55.1362 24.0747C56.7451 22.1155 58.857 21.0958 61.3314 20.8657Z" fill="black"/>
<path d="M75.9062 20.5007C77.6129 20.5496 77.5652 21.8523 77.5407 23.1586C78.6355 22.2145 79.7096 21.5667 81.1068 21.1734C83.3708 20.5331 85.7929 20.837 87.8356 22.0176C89.8759 23.1868 91.3731 25.1343 91.9954 27.4286C92.1609 28.0445 92.2652 28.6756 92.307 29.3126C92.4099 30.8327 92.299 32.6601 92.3348 34.2118C92.3179 35.3512 92.3572 36.5004 92.3022 37.6381C92.2912 38.1258 91.5932 38.7921 91.1389 38.8322C89.0613 39.0158 89.3867 36.771 89.3742 35.427C89.366 34.5441 89.401 33.8704 89.3857 33.0973C89.3523 31.4086 89.5451 29.7177 89.1672 28.0824C88.5943 26.4388 87.564 25.1472 85.999 24.3843C84.5813 23.7002 82.9544 23.6155 81.4753 24.1488C80.6173 24.4594 79.8423 24.9688 79.2118 25.6366C77.405 27.5392 77.5247 29.4755 77.5373 31.911L77.5564 35.5376C77.5607 36.5419 77.741 38.3493 76.5465 38.8081C76.2417 38.9251 75.7455 38.8529 75.4541 38.7054C75.094 38.5195 74.8213 38.1962 74.6955 37.8063C74.4524 37.0578 74.6923 23.8443 74.6166 22.0549C74.6075 21.8406 74.6919 21.5186 74.7913 21.3189C75.0481 20.8026 75.4059 20.6689 75.9062 20.5007Z" fill="black"/>
<path d="M31.7143 13.5H33.4739C33.8568 13.6784 34.4663 14.0504 34.5024 14.451C34.7277 16.9571 34.606 20.7025 34.6055 23.1708C36.6428 21.4875 38.7621 20.6084 41.445 20.8891C43.793 21.1344 45.9483 22.319 47.4351 24.1814C49.8188 27.1706 49.4366 30.2881 49.4111 33.8568C49.4029 35.017 49.7314 37.8193 48.8578 38.5263C48.5581 38.7687 48.1758 38.8796 47.7953 38.8346C47.4125 38.7923 47.0628 38.5946 46.8258 38.2863C46.3633 37.6855 46.4483 36.7394 46.4548 36.0088L46.4927 31.8647C46.504 29.1189 46.5629 26.9997 44.2428 25.1229C43.4434 24.4762 42.304 23.9531 41.2805 23.825C38.1066 23.4277 34.9703 25.8523 34.6709 29.1214C34.4741 31.271 34.6635 33.5933 34.6076 35.762C34.5881 36.7533 34.8883 37.8765 34.0277 38.5455C33.1631 39.2177 32.0045 38.6958 31.7143 37.6994V13.5Z" fill="black"/>
<path d="M174.17 20.861C174.719 20.7917 175.534 20.826 176.083 20.8999C177.407 21.0781 181.338 22.3592 181.033 24.1991C180.962 24.6159 180.73 24.9866 180.389 25.2293C179.407 25.9232 178.33 24.8821 177.435 24.4004C175.599 23.412 173.231 23.6982 171.56 24.8805C170.268 25.7916 169.387 27.1867 169.108 28.7585C168.163 34.2263 174.007 37.8734 178.667 34.505C179.234 34.1278 179.864 34.117 180.414 34.5416C180.721 34.7754 180.924 35.1237 180.978 35.5099C181.057 36.1083 180.702 36.704 180.242 37.0491C177.023 39.4618 172.56 39.3994 169.436 36.887C167.593 35.3998 166.405 33.2321 166.13 30.8576C165.865 28.4896 166.533 26.111 167.988 24.2417C169.584 22.2022 171.647 21.1547 174.17 20.861Z" fill="url(#paint0_linear_25181_3314)"/>
<path d="M160.742 20.5118C160.845 20.5068 160.948 20.5046 161.051 20.5053C161.504 20.5098 162.35 20.8753 162.416 21.3014C162.681 23.0205 162.571 25.4688 162.571 27.1783L162.55 37.7986C162.208 38.4529 162.044 38.6013 161.395 38.853C161.117 38.8593 160.834 38.843 160.571 38.7437C160.151 38.5855 159.893 38.256 159.715 37.8488C159.509 37.3783 159.591 21.829 159.728 21.4745C159.919 20.9819 160.285 20.7203 160.742 20.5118Z" fill="url(#paint1_linear_25181_3314)"/>
<path d="M160.883 15.7911C161.407 15.7087 161.933 15.9196 162.26 16.3428C162.588 16.7661 162.665 17.3358 162.462 17.8331C162.26 18.3304 161.809 18.6779 161.283 18.7421C160.488 18.839 159.763 18.2712 159.654 17.466C159.546 16.6609 160.092 15.9156 160.883 15.7911Z" fill="url(#paint2_linear_25181_3314)"/>
<path d="M139.081 36.5008C137.114 38.1614 134.968 39.0277 132.368 38.7871C130.025 38.5778 127.859 37.4297 126.35 35.5961C123.225 31.7831 124.506 27.024 124.245 22.4463C124.196 21.5839 125.011 20.7269 125.905 20.8244C126.259 20.8639 126.582 21.0459 126.802 21.3297C127.318 21.9859 127.225 23.0166 127.218 23.8154L127.198 27.6265C127.191 30.257 127.083 32.514 129.292 34.4268C130.181 35.1861 131.271 35.6624 132.424 35.7963C134.009 35.9896 135.604 35.5302 136.852 34.5206C139.725 32.2334 139.005 28.7717 139.084 25.5418C139.111 24.4357 139.002 23.3022 139.12 22.2029C139.277 20.7319 140.89 20.3434 141.734 21.4844C141.877 21.6727 141.955 21.9049 141.966 22.1452C141.999 23.7873 141.986 25.4493 141.985 27.0917L141.983 36.5093L141.99 42.4987C141.991 43.3628 141.996 44.2242 141.98 45.0882C141.966 45.8006 141.796 46.0517 141.247 46.5H139.805C139.215 45.9403 139.082 45.7721 139.079 44.9097C139.07 42.1101 139.091 39.2997 139.081 36.5008Z" fill="url(#paint3_linear_25181_3314)"/>
<path d="M199.714 34.1539C199.149 36.9016 197.825 38.2907 195.044 38.9174C191.891 39.6281 188.354 38.7112 185.613 37.0714C185.15 36.7938 184.676 36.3417 184.565 35.7879C184.494 35.4234 184.573 35.0456 184.783 34.7413C185.272 34.0171 186.129 33.8993 186.846 34.3427C189.207 35.7728 191.391 36.4314 194.15 36.0544C196.746 35.7 198.03 33.0988 195.105 31.9913C193.811 31.5013 192.359 31.7018 191.005 31.4118C188.564 30.8888 185.621 29.5433 185.087 26.7769C184.882 25.722 185.174 24.3315 185.749 23.4371C186.676 21.9975 188.329 21.2958 189.946 21.0419C193.035 20.4705 195.853 21.0066 198.5 22.733C198.965 23.0355 199.427 23.5058 199.526 24.0702C199.588 24.4455 199.499 24.8307 199.28 25.1388C198.294 26.521 196.818 25.1936 195.892 24.6602C195.485 24.4302 195.052 24.2483 194.604 24.118C193.342 23.7416 187.429 23.3327 188.004 26.2272C188.481 28.6316 193.069 28.498 194.964 28.8488C197.353 29.291 199.207 30.7623 199.714 33.3801V34.1539Z" fill="url(#paint4_linear_25181_3314)"/>
<path d="M150.126 13.5H150.847C152.321 14.2358 152 15.6894 151.984 17.1407L151.971 20.4992C153.022 20.5156 154.788 20.2273 155.627 21.0047C156.139 21.4973 156.06 22.5975 155.554 23.0492C154.786 23.7338 152.986 23.4967 151.977 23.4886C151.879 26.7308 152.038 30.1998 151.974 33.4553C151.955 34.4071 152.053 36.7692 151.941 37.556C151.893 37.885 151.745 38.1906 151.518 38.4301C150.689 39.3063 149.126 38.7175 149.061 37.5324C148.976 36.0263 149.015 34.4779 149.015 32.9674L149.021 23.4893C147.273 23.4632 145.574 24.0765 144.954 22.0072C145.527 19.9622 147.281 20.4772 149.02 20.504C149.037 18.7539 148.863 16.2771 149.136 14.5797C149.225 14.0296 149.671 13.7423 150.126 13.5Z" fill="url(#paint5_linear_25181_3314)"/>
<path d="M119.11 13.5H119.85C121.032 14.1169 120.959 14.6413 120.967 15.8762C120.976 17.444 120.968 19.0139 120.968 20.5818L120.95 30.9658C120.946 32.9648 121.155 35.9674 120.784 37.9207C120.534 39.2357 118.046 39.1899 118.019 37.4216C117.995 35.7678 118.013 34.0489 118.012 32.3688L118.01 22.4316C118.01 20.1122 117.955 16.8988 118.078 14.5499C118.101 14.0986 118.717 13.7141 119.11 13.5Z" fill="url(#paint6_linear_25181_3314)"/>
</g>
<defs>
<linearGradient id="paint0_linear_25181_3314" x1="117.997" y1="26.1682" x2="197.743" y2="26.1682" gradientUnits="userSpaceOnUse">
<stop stop-color="#C079E0"/>
<stop offset="1" stop-color="#807EE2"/>
</linearGradient>
<linearGradient id="paint1_linear_25181_3314" x1="117.997" y1="26.1682" x2="197.743" y2="26.1682" gradientUnits="userSpaceOnUse">
<stop stop-color="#C079E0"/>
<stop offset="1" stop-color="#807EE2"/>
</linearGradient>
<linearGradient id="paint2_linear_25181_3314" x1="117.997" y1="26.1682" x2="197.743" y2="26.1682" gradientUnits="userSpaceOnUse">
<stop stop-color="#C079E0"/>
<stop offset="1" stop-color="#807EE2"/>
</linearGradient>
<linearGradient id="paint3_linear_25181_3314" x1="117.997" y1="26.1682" x2="197.743" y2="26.1682" gradientUnits="userSpaceOnUse">
<stop stop-color="#C079E0"/>
<stop offset="1" stop-color="#807EE2"/>
</linearGradient>
<linearGradient id="paint4_linear_25181_3314" x1="117.997" y1="26.1682" x2="197.743" y2="26.1682" gradientUnits="userSpaceOnUse">
<stop stop-color="#C079E0"/>
<stop offset="1" stop-color="#807EE2"/>
</linearGradient>
<linearGradient id="paint5_linear_25181_3314" x1="117.997" y1="26.1682" x2="197.743" y2="26.1682" gradientUnits="userSpaceOnUse">
<stop stop-color="#C079E0"/>
<stop offset="1" stop-color="#807EE2"/>
</linearGradient>
<linearGradient id="paint6_linear_25181_3314" x1="117.997" y1="26.1682" x2="197.743" y2="26.1682" gradientUnits="userSpaceOnUse">
<stop stop-color="#C079E0"/>
<stop offset="1" stop-color="#807EE2"/>
</linearGradient>
<clipPath id="clip0_25181_3314">
<rect width="168" height="33" fill="white" transform="translate(31.7143 13.5)"/>
</clipPath>
</defs>
</svg>
