<svg width="232" height="60" viewBox="0 0 232 60" fill="none" xmlns="http://www.w3.org/2000/svg">
<g clip-path="url(#clip0_25181_3382)">
<path d="M111.74 17.9568C114.01 17.8812 116.673 17.9363 118.972 17.9429C118.841 26.4148 118.936 35.2566 118.969 43.7507L118.903 43.8806C117.772 43.9049 114.053 43.9609 113.02 43.8342C112.518 43.4237 109.625 39.8358 109.061 39.1578L104.096 33.191C103.206 32.1168 102.163 30.9166 101.338 29.8078C101.282 31.786 101.318 33.8847 101.318 35.8726C101.306 38.5428 101.313 41.2131 101.338 43.8832C98.9396 43.8714 96.541 43.8781 94.1428 43.9032C94.1096 35.3257 94.2686 26.4981 94.1134 17.9472C95.9471 17.9469 97.8669 17.8951 99.699 17.9533C100.009 17.9631 100.262 18.1468 100.463 18.3715C101.722 19.7821 102.949 21.3219 104.156 22.7766L111.834 32.0403C111.711 31.2333 111.768 28.4005 111.768 27.4691C111.785 24.2983 111.775 21.1274 111.74 17.9568Z" fill="#FE342C"/>
<path d="M162.619 23.6844C166.756 23.6236 169.347 24.5781 172.606 27.0721L168.683 31.3791C166.54 29.5855 164.068 28.0476 161.333 29.9211C159.205 31.3777 158.956 35.3632 160.608 37.2335C163.637 40.6626 166.262 38.7009 169.06 36.5391C169.638 37.0103 170.594 38.0273 171.15 38.5847C171.773 39.1789 172.346 39.813 172.985 40.4071C170.489 42.7763 167.836 44.1903 164.287 44.4219C161.28 44.618 158.218 43.7289 155.949 41.7321C153.841 39.8887 152.583 37.2899 152.46 34.5255C152.146 28.4401 156.45 23.9752 162.619 23.6844Z" fill="#FE342C"/>
<path d="M126.16 18.9698C128.262 19.0463 130.704 18.9933 132.831 18.9792L132.833 24.3264C134.369 24.3081 135.905 24.299 137.441 24.2992L137.431 28.9394C135.912 28.9669 134.342 28.9454 132.819 28.9426C132.86 30.913 132.825 33.0818 132.819 35.0499C132.808 39.1308 132.473 39.6788 137.013 38.959C137.075 40.2492 137.239 41.7443 137.33 43.0627C137.358 43.3169 137.427 43.6252 137.31 43.8412C136.558 44.4439 133.605 44.613 132.579 44.5751C130.774 44.5086 128.797 43.9935 127.545 42.6464C126.93 41.9803 126.508 41.1664 126.321 40.2879C126.084 39.209 126.147 36.5658 126.156 35.3376C126.172 33.2854 126.112 30.982 126.21 28.9479C125.096 28.9395 123.981 28.9462 122.867 28.9679C122.813 27.4497 122.838 25.7999 122.838 24.2783C123.873 24.3435 125.153 24.3111 126.214 24.3273C126.099 22.719 126.158 20.6155 126.16 18.9698Z" fill="#FE342C"/>
<path d="M141.641 24.2782C143.699 24.3841 146.239 24.3168 148.327 24.289C148.269 26.8142 148.307 29.4685 148.306 32.0028L148.324 43.8738C146.453 43.9904 143.654 43.8686 141.652 43.9053L141.641 24.2782Z" fill="#FE342C"/>
<path d="M144.256 15.412C146.231 15.2897 148.271 15.9881 148.732 18.0973C148.907 18.904 148.75 19.7458 148.294 20.4398C147.713 21.3148 146.816 21.7831 145.794 21.9894C144.712 22.1418 143.775 22.0854 142.799 21.5273C142.008 21.0841 141.431 20.3499 141.196 19.4879C140.633 17.3436 142.295 15.8951 144.256 15.412Z" fill="#FE342C"/>
<path d="M45.5385 5.5H73.1112C76.8481 6.13581 79.823 7.65995 82.048 10.7591C83.1398 12.2848 83.8609 14.0345 84.1562 15.8747C84.3423 17.0769 84.2789 19.1694 84.2783 20.4426L84.2731 27.9862L84.2757 38.2483C84.2765 40.1171 84.4155 42.6884 84.0818 44.4816C83.2112 49.1606 79.3402 53.1 74.6028 54.1505C74.176 54.2478 73.3999 54.3712 73.0203 54.5H45.5591C45.1121 54.3726 44.5109 54.2834 44.0461 54.1758C38.3458 52.8549 35.4242 49.0222 34.2142 43.7193V16.5208C34.3899 14.5049 35.4137 12.0555 36.6534 10.4488C38.9867 7.42465 41.8082 6.05879 45.5385 5.5ZM54.3164 37.3483C55.7605 36.9307 57.2011 36.5018 58.6383 36.062C59.4719 35.8121 60.9386 35.5564 61.4363 34.8505C61.6148 34.0718 59.8306 28.9444 59.4028 27.8239C59.3527 27.6929 59.0686 27.5446 58.8919 27.5138C58.7923 27.4973 58.6919 27.4853 58.5911 27.4778C57.4469 27.7523 52.0594 29.1605 51.5624 29.8438C51.3046 30.8587 53.1786 35.728 53.5749 36.9293C53.6456 37.1438 54.0946 37.2951 54.3164 37.3483ZM55.2336 48.134C55.3973 48.0086 55.5334 47.8832 55.6272 47.6982C56.0964 46.7735 56.9757 43.4145 57.1099 42.355C57.1363 42.1472 57.1752 41.7965 57.0413 41.623C56.6906 41.1685 51.7648 39.993 50.9044 39.8279C49.8691 40.5755 49.8518 42.3996 49.4936 43.5573C49.3447 44.0389 49.2057 44.5342 49.0511 45.0153C48.8046 45.7524 48.6146 46.4116 49.6241 46.7019C51.4396 47.2241 53.3749 47.7553 55.2336 48.134ZM67.5294 40.9173C68.2397 40.372 71.3907 37.575 71.7865 36.9307C71.4121 36.266 68.4223 33.0274 67.7949 32.7022L67.4373 32.6793C66.3857 33.4675 65.4506 34.4831 64.4442 35.3224C63.6952 35.947 62.8589 36.6169 63.8525 37.4792C64.5284 38.0658 66.8029 40.9811 67.5294 40.9173ZM76.9814 19.4588C81.6053 18.5573 79.1878 13.2781 76.5731 13.7821C75.6918 13.9053 75.0504 14.1478 74.4909 14.88C74.0586 15.4373 73.8762 16.1427 73.9856 16.8342C74.1165 17.6524 74.5726 18.3868 75.2543 18.8772C75.7227 19.2088 76.3993 19.4589 76.9814 19.4588ZM44.6813 40.3488C46.0516 40.1123 46.9623 38.8281 46.7094 37.489C46.4565 36.1499 45.137 35.2691 43.771 35.5276C42.4207 35.7832 41.5336 37.0565 41.7835 38.3801C42.0335 39.7037 43.327 40.5825 44.6813 40.3488ZM40.8232 42.7563C40.8148 44.2233 41.0253 45.2102 41.0659 46.5007C41.4467 46.462 41.8962 46.4046 42.2723 46.3828C42.6587 46.3615 43.0524 46.3504 43.4365 46.3339C44.2788 46.2977 45.0057 46.332 44.8564 45.2719C44.7316 44.3854 44.6472 43.4665 44.5642 42.5808C44.3227 42.5815 43.7928 42.5707 43.5813 42.6131C42.5624 42.7108 41.852 42.8143 40.8232 42.7563ZM37.7218 39.859C37.0251 40.1278 36.3221 40.3808 35.6134 40.6177C35.8188 41.0213 36.4101 42.7429 36.6227 42.8135C37.3073 42.5629 38.0707 42.2659 38.7617 42.0581C38.5395 41.5338 38.0934 40.3131 37.8628 39.9074L37.7218 39.859ZM80.0165 25.0055C79.7325 24.1781 79.6233 22.3473 79.2401 21.8281C79.0937 21.7899 79.0641 21.7795 78.9081 21.7937C78.2041 21.9315 76.6998 22.1995 76.0362 22.3954C76.3594 23.4511 76.394 24.4666 76.7131 25.5338C76.941 25.6302 76.8785 25.6005 77.1553 25.5588C78.0921 25.385 79.0926 25.2165 80.0165 25.0055ZM63.9419 29.1774C64.1357 29.5219 64.7849 30.7193 65.0575 30.918C65.601 30.5667 66.1864 30.2407 66.749 29.9165C66.6118 29.6779 65.8063 28.2761 65.6502 28.1822L63.9419 29.1774ZM62.2618 48.062L63.8556 47.1374C63.7174 46.9047 63.0113 45.6591 62.8534 45.572L61.2695 46.4742C61.5799 46.911 62.0685 47.8123 62.2618 48.062ZM71.3002 20.4287C70.5936 20.7624 69.4927 21.3175 68.9768 21.8892C69.1914 22.5331 69.9194 24.0557 70.5887 24.2818C71.5506 23.7614 73.4152 23.1687 72.4425 21.8366C72.1096 21.3807 71.8334 20.6689 71.3002 20.4287ZM78.6725 11.0066C78.7958 11.2113 79.1191 11.8738 79.3353 11.8964L80.1544 11.3866C80.0124 11.1362 79.7793 10.6822 79.585 10.4971L79.52 10.4809L78.6725 11.0066ZM59.6391 39.6263C59.5407 40.2616 59.576 41.6533 59.5841 42.348C60.5149 42.3531 61.4711 42.3697 62.3996 42.3457L62.3976 39.6364C61.4736 39.5851 60.5635 39.6105 59.6391 39.6263ZM72.5387 33.1716C74.4128 32.9967 75.7913 31.3739 75.6248 29.5384C75.4583 27.7029 73.8092 26.3432 71.933 26.4943C70.0394 26.6467 68.6346 28.2789 68.8026 30.1313C68.9706 31.9837 70.6473 33.348 72.5387 33.1716Z" fill="#FE342C"/>
<path d="M197.214 34.9384C197.028 36.8481 196.321 38.6739 195.167 40.2251C189.76 47.3541 176.534 45.262 175.021 35.8044C173.472 26.1317 183.491 21.0254 191.777 24.9493C195.105 26.525 196.724 29.5115 197.214 33.0314V34.9384ZM189.857 38.683C190.643 38.1805 190.746 38.1182 190.748 37.1715C190.752 34.9216 190.789 32.655 190.728 30.4073C190.713 29.8679 190.144 29.5032 189.65 29.5001C187.254 29.4851 184.491 29.3552 182.119 29.5228C181.836 29.6781 181.551 29.8143 181.454 30.1438C181.273 30.7596 181.276 37.6716 181.506 38.0696C181.646 38.3114 181.859 38.5139 182.138 38.5845C183.071 38.8209 188.598 38.7454 189.857 38.683Z" fill="#FE342C"/>
</g>
<defs>
<clipPath id="clip0_25181_3382">
<rect width="163" height="49" fill="white" transform="translate(34.2142 5.5)"/>
</clipPath>
</defs>
</svg>
