<svg width="232" height="60" viewBox="0 0 232 60" fill="none" xmlns="http://www.w3.org/2000/svg">
<path d="M98.746 24.5599H93.8606V21.6435H106.943V24.5599H102.058V39.155H98.7473L98.746 24.5599ZM109.958 36.772C111.285 36.7654 112.603 36.5624 113.872 36.1683L114.376 38.5832C112.87 39.1351 111.279 39.4189 109.675 39.4217C105.652 39.4217 104.262 37.5642 104.262 34.4859V31.1343C104.262 28.4276 105.456 26.0924 109.566 26.0924C113.677 26.0924 114.608 28.4807 114.608 31.2378V33.9711H107.483V34.6252C107.483 36.159 108.014 36.7481 109.972 36.7481L109.958 36.772ZM107.443 31.3851H111.517V30.7562C111.517 29.562 111.148 28.7129 109.573 28.7129C107.998 28.7129 107.445 29.5514 107.445 30.7562L107.443 31.3851Z" fill="black"/>
<path d="M123.15 29.0154C121.987 29.5514 120.866 30.1764 119.799 30.8862V39.1325H116.556V26.3352H119.263L119.472 27.7509C120.511 27.048 121.638 26.4846 122.824 26.0751L123.15 29.0154Z" fill="black"/>
<path d="M130.977 29.0154C129.814 29.5514 128.693 30.1764 127.626 30.8862V39.1325H124.383V26.3352H127.09L127.299 27.7509C128.338 27.048 129.465 26.4846 130.651 26.0751L130.977 29.0154Z" fill="black"/>
<path d="M141.689 39.1219H139.066L138.831 38.2833C137.698 39.0189 136.376 39.4119 135.026 39.4151C132.688 39.4151 131.674 37.8149 131.674 35.6097C131.674 33.0118 132.806 32.0273 135.389 32.0273H138.465V30.7005C138.465 29.2847 138.071 28.7819 136.026 28.7819C134.834 28.7947 133.646 28.9267 132.481 29.1759L132.087 26.7372C133.514 26.3424 134.988 26.1394 136.469 26.1335C140.492 26.1335 141.673 27.5492 141.673 30.7602L141.689 39.1219ZM138.487 34.2869H136.125C135.064 34.2869 134.799 34.5722 134.799 35.5434C134.799 36.5146 135.084 36.8344 136.09 36.8344C136.936 36.823 137.767 36.598 138.503 36.1803L138.487 34.2869ZM151.543 23.4069C150.94 23.2775 150.325 23.2073 149.708 23.1972C148.452 23.1972 148.267 23.7505 148.267 24.7231V26.3233H151.518L151.332 28.8376H148.257V39.0781H145.055V28.8854H143.002V26.371H145.046V24.5533C145.046 21.8969 146.277 20.5887 149.119 20.5887C150.051 20.5845 150.978 20.7087 151.876 20.9576L151.543 23.4069ZM157.795 39.3766C153.413 39.3766 152.231 36.9618 152.231 34.3346V31.1277C152.231 28.5046 153.425 26.0857 157.795 26.0857C162.166 26.0857 163.368 28.5006 163.368 31.1277V34.3625C163.36 36.9684 162.178 39.4045 157.795 39.4045V39.3766ZM157.795 28.7925C156.119 28.7925 155.433 29.5554 155.433 30.995V34.4395C155.433 35.8804 156.088 36.642 157.795 36.642C159.503 36.642 160.157 35.8791 160.157 34.4395V31.0083C160.157 29.5581 159.494 28.7965 157.795 28.7965V28.7925ZM171.594 29.0021C170.43 29.5379 169.31 30.1634 168.243 30.873V39.1192H165.005V26.3219H167.712L167.922 27.7377C168.961 27.0348 170.087 26.4714 171.273 26.0619L171.594 29.0021ZM180.404 39.1219V30.1963C180.404 29.5169 180.119 29.1746 179.383 29.1746C178.205 29.3073 177.063 29.6735 176.031 30.256V39.1457H172.847V26.3485H175.286L175.604 27.4298C177.199 26.6309 178.944 26.1744 180.726 26.0897C181.219 26.0438 181.715 26.1502 182.147 26.3945C182.578 26.6388 182.924 27.0094 183.139 27.4564C184.737 26.639 186.492 26.1733 188.284 26.0897C190.413 26.0897 191.177 27.589 191.177 29.8712V39.1404H187.975V30.2148C187.975 29.5355 187.69 29.1932 186.954 29.1932C185.773 29.3151 184.631 29.6835 183.602 30.2746V39.1643L180.404 39.1219Z" fill="black"/>
<path fill-rule="evenodd" clip-rule="evenodd" d="M72.8056 40.4101L57.3746 31.4987V49.3143L72.8056 58.2258V40.4101ZM72.8056 20.6328V38.4557L57.3746 29.5443V11.7213L72.8056 20.6328Z" fill="#5C4EE5"/>
<path fill-rule="evenodd" clip-rule="evenodd" d="M74.4975 38.4557L89.9358 29.5443V11.7213L74.4975 20.6328V38.4557Z" fill="#4040B2"/>
<path fill-rule="evenodd" clip-rule="evenodd" d="M40.2517 19.5972L55.6827 28.5087V10.6858L40.2517 1.77429V19.5972Z" fill="#5C4EE5"/>
</svg>
