<svg width="806" height="601" viewBox="0 0 806 601" fill="none" xmlns="http://www.w3.org/2000/svg">
<g clip-path="url(#clip0_8998_18326)">
<g opacity="0.7" filter="url(#filter0_f_8998_18326)">
<rect width="510.012" height="245.405" transform="matrix(-0.999351 -0.0360302 -0.0360302 0.999351 692.691 139.479)" fill="url(#paint0_linear_8998_18326)"/>
</g>
<g filter="url(#filter1_d_8998_18326)">
<path d="M349.784 309.067L446.962 252.323L348.971 196.76L250.754 253.324L349.784 309.067Z" stroke="#CD88FF" stroke-width="1.83" stroke-linecap="round" stroke-linejoin="round" shape-rendering="crispEdges"/>
</g>
<path d="M347.392 233.582V294.966L248.727 236.805V177.153L347.392 233.582Z" fill="#4A0292"/>
<path d="M347.195 232.782V294.269L446.679 236.859V177.272L347.195 232.782Z" fill="#3C0077"/>
<g filter="url(#filter2_d_8998_18326)">
<path d="M464.208 256.068C463.773 256.324 463.507 256.793 463.512 257.298C463.516 257.804 463.79 258.268 464.23 258.516L537.652 299.976C538.086 300.22 538.616 300.219 539.048 299.972L611.602 258.513C612.038 258.263 612.309 257.801 612.314 257.298C612.318 256.796 612.055 256.329 611.623 256.072L539.07 212.885C538.627 212.622 538.075 212.62 537.631 212.882L464.208 256.068Z" stroke="#B26AF9" stroke-width="2.82626" stroke-linejoin="round" shape-rendering="crispEdges"/>
</g>
<path d="M539.845 248.266L466.422 206.807L539.845 163.621L612.398 206.807L539.845 248.266Z" fill="#9B5FFF"/>
<path d="M539.485 248.064V293.231L466.887 250.436V206.543L539.485 248.064Z" fill="#320282"/>
<path d="M539.344 247.476V289.719L612.545 247.476V206.631L539.344 247.476Z" fill="#1F0152"/>
<g style="mix-blend-mode:color-dodge">
<path d="M518.431 221.27L515.477 222.975C515.36 223.042 515.36 223.151 515.477 223.219L531.657 232.56C531.773 232.628 531.962 232.628 532.079 232.56L535.033 230.855C535.149 230.787 535.149 230.678 535.033 230.611L518.853 221.27C518.736 221.202 518.547 221.202 518.431 221.27Z" fill="#7FD1BA"/>
<path d="M511.517 207.549L508.563 209.254C508.446 209.321 508.446 209.431 508.563 209.498L525.029 219.005C525.145 219.072 525.334 219.072 525.451 219.005L528.405 217.299C528.522 217.232 528.522 217.123 528.405 217.055L511.939 207.549C511.822 207.481 511.633 207.481 511.517 207.549Z" fill="#7FD1BA"/>
<path d="M528.407 217.3L525.453 219.005C525.337 219.072 525.337 219.181 525.453 219.249L533.127 223.679C533.243 223.746 533.432 223.746 533.549 223.679L536.503 221.974C536.62 221.906 536.62 221.797 536.503 221.73L528.829 217.3C528.713 217.232 528.524 217.232 528.407 217.3Z" fill="#FCE07C"/>
<path d="M536.501 221.974L533.547 223.679C533.43 223.746 533.43 223.856 533.547 223.923L540.081 227.695C540.197 227.762 540.386 227.762 540.503 227.695L543.457 225.99C543.573 225.922 543.573 225.813 543.457 225.746L536.923 221.974C536.807 221.906 536.618 221.906 536.501 221.974Z" fill="#EC6149"/>
<path d="M514.978 199.817L512.024 201.522C511.907 201.589 511.907 201.699 512.024 201.766L548.509 222.831C548.626 222.898 548.815 222.898 548.931 222.831L551.885 221.125C552.002 221.058 552.002 220.949 551.885 220.882L515.4 199.817C515.283 199.749 515.094 199.749 514.978 199.817Z" fill="#7FD1BA"/>
<path d="M541.841 205.597L538.887 207.302C538.77 207.37 538.77 207.479 538.887 207.546L551.745 214.969C551.861 215.037 552.05 215.037 552.167 214.969L555.121 213.264C555.237 213.196 555.237 213.087 555.121 213.02L542.263 205.597C542.146 205.529 541.957 205.529 541.841 205.597Z" fill="#7FD1BA"/>
<path d="M555.122 213.264L552.168 214.969C552.052 215.037 552.052 215.146 552.168 215.213L554.228 216.402C554.344 216.469 554.533 216.469 554.65 216.402L557.604 214.697C557.721 214.629 557.721 214.52 557.604 214.453L555.544 213.264C555.428 213.196 555.239 213.196 555.122 213.264Z" fill="#FCE07C"/>
<path d="M557.603 214.697L554.649 216.402C554.532 216.469 554.532 216.578 554.649 216.646L556.933 217.965C557.049 218.032 557.238 218.032 557.355 217.965L560.309 216.259C560.425 216.192 560.425 216.083 560.309 216.015L558.025 214.697C557.908 214.629 557.719 214.629 557.603 214.697Z" fill="#EC6149"/>
<path d="M554.739 203.316L551.785 205.021C551.669 205.089 551.669 205.198 551.785 205.265L565.36 213.102C565.476 213.17 565.665 213.17 565.782 213.102L568.736 211.397C568.853 211.329 568.853 211.22 568.736 211.153L555.161 203.316C555.045 203.248 554.856 203.248 554.739 203.316Z" fill="#7FD1BA"/>
<path d="M570.903 202.919L567.949 204.624C567.833 204.692 567.833 204.801 567.949 204.868L573.786 208.238C573.902 208.305 574.091 208.305 574.208 208.238L577.162 206.532C577.278 206.465 577.278 206.356 577.162 206.288L571.325 202.919C571.209 202.851 571.02 202.851 570.903 202.919Z" fill="#7FD1BA"/>
<path d="M546.896 179.329L543.941 181.034C543.825 181.101 543.825 181.211 543.941 181.278L582.211 203.373C582.328 203.44 582.517 203.44 582.633 203.373L585.587 201.667C585.704 201.6 585.704 201.491 585.587 201.424L547.318 179.329C547.201 179.261 547.012 179.261 546.896 179.329Z" fill="#7FD1BA"/>
</g>
<g filter="url(#filter3_d_8998_18326)">
<path d="M396.05 282.736L422.996 298.156L384.656 320.181L472.541 369.285" stroke="url(#paint1_linear_8998_18326)" stroke-width="2" stroke-linejoin="round" shape-rendering="crispEdges"/>
</g>
<g filter="url(#filter4_d_8998_18326)">
<path d="M445.206 177.501L347.871 233.121L249.371 177.501L347.871 119.564L445.206 177.501Z" fill="#6400CA"/>
<path d="M445.206 177.501L347.871 233.121L249.371 177.501L347.871 119.564L445.206 177.501Z" stroke="white"/>
</g>
<path d="M352.345 170.96C354.755 170.96 356.709 172.088 356.709 173.479V179.199C356.709 180.59 354.755 181.718 352.345 181.718H342.438C340.028 181.718 338.074 180.59 338.074 179.199V173.479C338.074 172.088 340.028 170.96 342.438 170.96H352.345Z" fill="#A950FF"/>
<path d="M375.197 184.109C377.564 184.109 379.483 185.216 379.483 186.583V192.393C379.483 193.759 377.564 194.867 375.197 194.867H365.134C362.767 194.867 360.848 193.759 360.848 192.393V186.583C360.848 185.216 362.767 184.109 365.134 184.109H375.197Z" fill="#A950FF"/>
<path d="M375.196 157.81C377.563 157.81 379.482 158.918 379.482 160.285V166.094C379.482 167.461 377.563 168.569 375.196 168.569H365.133C362.766 168.569 360.848 167.461 360.848 166.094V160.285C360.848 158.918 362.766 157.81 365.133 157.81H375.196Z" fill="#E9C1FF"/>
<path d="M356.709 166.05C356.709 167.441 354.755 168.569 352.345 168.569H342.438C340.028 168.569 338.074 167.441 338.074 166.05V160.33C338.074 158.939 340.028 157.811 342.438 157.811H352.345C354.755 157.811 356.709 158.939 356.709 160.33V166.05Z" fill="#CD88FF"/>
<path d="M333.935 166.094C333.935 167.461 332.017 168.569 329.65 168.569H319.587C317.22 168.569 315.301 167.461 315.301 166.094V160.285C315.301 158.918 317.22 157.81 319.587 157.81H329.65C332.017 157.81 333.935 158.918 333.935 160.285V166.094Z" fill="#A950FF"/>
<path d="M379.482 179.199C379.482 180.59 377.528 181.718 375.118 181.718H365.212C362.801 181.718 360.848 180.59 360.848 179.199V173.479C360.848 172.088 362.801 170.96 365.212 170.96H375.118C377.528 170.96 379.482 172.088 379.482 173.479V179.199Z" fill="#CD88FF"/>
<path d="M333.303 190.101C333.303 193.21 328.939 195.73 323.554 195.73C318.17 195.73 313.805 193.21 313.805 190.101C313.805 186.992 318.17 184.472 323.554 184.472C328.939 184.472 333.303 186.992 333.303 190.101Z" fill="#F62E76"/>
<g filter="url(#filter5_d_8998_18326)">
<path d="M519.786 289.532L474.664 314.834L538.733 352.095L511.599 367.166" stroke="url(#paint2_linear_8998_18326)" stroke-width="3" stroke-linejoin="round" shape-rendering="crispEdges"/>
</g>
<g filter="url(#filter6_d_8998_18326)">
<path d="M606.509 315.146L511.602 367.167" stroke="url(#paint3_linear_8998_18326)" stroke-width="3" stroke-linejoin="round" shape-rendering="crispEdges"/>
</g>
<g filter="url(#filter7_d_8998_18326)">
<path fill-rule="evenodd" clip-rule="evenodd" d="M241.341 295.859L285.443 271.646L286.886 274.276L245.111 297.211L306.887 333.138C307.344 333.404 307.627 333.891 307.632 334.42C307.638 334.949 307.364 335.441 306.912 335.716L272.697 356.532L271.138 353.969L303.199 334.464L241.308 298.471C240.841 298.199 240.556 297.696 240.563 297.155C240.569 296.615 240.867 296.119 241.341 295.859Z" fill="url(#paint4_linear_8998_18326)" fill-opacity="0.81" shape-rendering="crispEdges"/>
</g>
<mask id="mask0_8998_18326" style="mask-type:luminance" maskUnits="userSpaceOnUse" x="443" y="349" width="98" height="57">
<path d="M540.445 377.026L491.934 349.018L443.422 377.026L491.934 405.034L540.445 377.026Z" fill="white"/>
</mask>
<g mask="url(#mask0_8998_18326)">
<path d="M507.095 385.778C507.56 385.51 507.985 385.241 508.409 384.95L515.019 385.475C516.434 385.591 517.788 385.066 518.172 384.261L520.921 378.309C521.305 377.504 520.577 376.664 519.243 376.36L513.058 374.913C512.836 374.178 512.512 373.454 512.068 372.754L516.151 369.72C517.04 369.067 516.939 368.121 515.928 367.538L508.389 363.185C507.358 362.59 505.721 362.531 504.589 363.045L499.333 365.402C498.121 365.145 496.867 364.959 495.594 364.83L493.088 361.259C492.562 360.489 491.107 360.069 489.712 360.291L479.383 361.889C477.988 362.111 477.099 362.881 477.281 363.71L478.19 367.526C477.705 367.759 477.24 368.005 476.776 368.273C476.311 368.541 475.886 368.81 475.462 369.102L468.852 368.576C467.437 368.46 466.083 368.985 465.699 369.79L462.95 375.742C462.566 376.547 463.293 377.387 464.627 377.691L470.813 379.138C471.035 379.873 471.358 380.597 471.803 381.297L467.72 384.331C466.831 384.985 466.932 385.93 467.942 386.513L475.482 390.866C476.493 391.45 478.13 391.508 479.262 390.995L484.517 388.637C485.73 388.894 486.983 389.081 488.257 389.209L490.763 392.78C491.289 393.55 492.744 393.97 494.139 393.749L504.447 392.162C505.842 391.94 506.731 391.17 506.55 390.341L505.64 386.525C506.165 386.292 506.63 386.047 507.095 385.778ZM484.942 381.157C481.04 378.904 481.04 375.24 484.942 372.988C488.843 370.735 495.19 370.735 499.091 372.988C502.992 375.24 502.992 378.904 499.091 381.157C495.19 383.409 488.843 383.409 484.942 381.157Z" fill="#4533CE"/>
</g>
<path d="M507.096 384.455C507.56 384.187 507.985 383.919 508.409 383.627L515.019 384.152C516.434 384.269 517.788 383.743 518.172 382.938L520.921 376.986C521.305 376.181 520.578 375.341 519.244 375.038L513.058 373.59C512.836 372.855 512.513 372.132 512.068 371.432L516.151 368.397C517.04 367.744 516.939 366.799 515.929 366.215L508.389 361.862C507.358 361.267 505.721 361.209 504.589 361.722L499.334 364.079C498.121 363.823 496.868 363.636 495.594 363.508L493.088 359.937C492.562 359.166 491.107 358.746 489.712 358.968L479.383 360.567C477.989 360.788 477.099 361.559 477.281 362.387L478.191 366.203C477.706 366.437 477.241 366.682 476.776 366.95C476.311 367.219 475.886 367.487 475.462 367.779L468.852 367.254C467.437 367.137 466.083 367.662 465.699 368.467L462.95 374.419C462.566 375.224 463.294 376.065 464.628 376.368L470.813 377.815C471.035 378.55 471.359 379.274 471.803 379.974L467.72 383.008C466.831 383.662 466.932 384.607 467.943 385.191L475.482 389.543C476.493 390.127 478.13 390.185 479.262 389.672L484.517 387.315C485.73 387.571 486.983 387.758 488.257 387.886L490.763 391.457C491.289 392.228 492.744 392.648 494.139 392.426L504.448 390.839C505.842 390.617 506.732 389.847 506.55 389.018L505.64 385.202C506.166 384.969 506.631 384.724 507.096 384.455ZM484.942 379.834C481.041 377.582 481.041 373.917 484.942 371.665C488.843 369.413 495.19 369.413 499.091 371.665C502.992 373.917 502.992 377.582 499.091 379.834C495.19 382.086 488.843 382.086 484.942 379.834Z" fill="#4533CE"/>
<path d="M507.096 383.131C507.56 382.863 507.985 382.594 508.409 382.303L515.019 382.828C516.434 382.944 517.788 382.419 518.172 381.614L520.921 375.662C521.305 374.857 520.578 374.017 519.244 373.713L513.058 372.266C512.836 371.531 512.513 370.808 512.068 370.107L516.151 367.073C517.04 366.42 516.939 365.474 515.929 364.891L508.389 360.538C507.358 359.943 505.721 359.884 504.589 360.398L499.334 362.755C498.121 362.498 496.868 362.312 495.594 362.183L493.088 358.612C492.562 357.842 491.107 357.422 489.712 357.644L479.383 359.242C477.989 359.464 477.099 360.234 477.281 361.063L478.191 364.879C477.706 365.113 477.241 365.358 476.776 365.626C476.311 365.894 475.886 366.163 475.462 366.455L468.852 365.929C467.437 365.813 466.083 366.338 465.699 367.143L462.95 373.095C462.566 373.9 463.294 374.74 464.628 375.044L470.813 376.491C471.035 377.226 471.359 377.95 471.803 378.65L467.72 381.684C466.831 382.338 466.932 383.283 467.943 383.866L475.482 388.219C476.493 388.803 478.13 388.861 479.262 388.348L484.517 385.99C485.73 386.247 486.983 386.434 488.257 386.562L490.763 390.133C491.289 390.903 492.744 391.324 494.139 391.102L504.448 389.515C505.842 389.293 506.732 388.523 506.55 387.694L505.64 383.878C506.166 383.645 506.631 383.4 507.096 383.131ZM484.942 378.51C481.041 376.257 481.041 372.593 484.942 370.341C488.843 368.088 495.19 368.088 499.091 370.341C502.992 372.593 502.992 376.257 499.091 378.51C495.19 380.762 488.843 380.762 484.942 378.51Z" fill="#4533CE"/>
<path d="M507.096 381.807C507.56 381.538 507.985 381.27 508.409 380.978L515.019 381.503C516.434 381.62 517.788 381.095 518.172 380.29L520.921 374.338C521.305 373.533 520.578 372.693 519.244 372.389L513.058 370.942C512.836 370.207 512.513 369.483 512.068 368.783L516.151 365.749C517.04 365.095 516.939 364.15 515.929 363.567L508.389 359.214C507.358 358.618 505.721 358.56 504.589 359.074L499.334 361.431C498.121 361.174 496.868 360.987 495.594 360.859L493.088 357.288C492.562 356.518 491.107 356.098 489.712 356.319L479.383 357.918C477.989 358.14 477.099 358.91 477.281 359.739L478.191 363.555C477.706 363.788 477.241 364.033 476.776 364.302C476.311 364.57 475.886 364.839 475.462 365.13L468.852 364.605C467.437 364.489 466.083 365.014 465.699 365.819L462.95 371.771C462.566 372.576 463.294 373.416 464.628 373.72L470.813 375.167C471.035 375.902 471.359 376.625 471.803 377.326L467.72 380.36C466.831 381.013 466.932 381.959 467.943 382.542L475.482 386.895C476.493 387.479 478.13 387.537 479.262 387.023L484.517 384.666C485.73 384.923 486.983 385.11 488.257 385.238L490.763 388.809C491.289 389.579 492.744 389.999 494.139 389.778L504.448 388.19C505.842 387.969 506.732 387.198 506.55 386.37L505.64 382.554C506.166 382.32 506.631 382.075 507.096 381.807ZM484.942 377.186C481.041 374.933 481.041 371.269 484.942 369.016C488.843 366.764 495.19 366.764 499.091 369.016C502.992 371.269 502.992 374.933 499.091 377.186C495.19 379.438 488.843 379.438 484.942 377.186Z" fill="#4533CE"/>
<path d="M507.096 380.483C507.56 380.214 507.985 379.946 508.409 379.654L515.019 380.179C516.434 380.296 517.788 379.771 518.172 378.966L520.921 373.014C521.305 372.209 520.578 371.368 519.244 371.065L513.058 369.618C512.836 368.883 512.513 368.159 512.068 367.459L516.151 364.425C517.04 363.771 516.939 362.826 515.929 362.242L508.389 357.889C507.358 357.294 505.721 357.236 504.589 357.749L499.334 360.107C498.121 359.85 496.868 359.663 495.594 359.535L493.088 355.964C492.562 355.194 491.107 354.774 489.712 354.995L479.383 356.594C477.989 356.816 477.099 357.586 477.281 358.415L478.191 362.231C477.706 362.464 477.241 362.709 476.776 362.978C476.311 363.246 475.886 363.514 475.462 363.806L468.852 363.281C467.437 363.164 466.083 363.689 465.699 364.495L462.95 370.446C462.566 371.252 463.294 372.092 464.628 372.395L470.813 373.842C471.035 374.578 471.359 375.301 471.803 376.001L467.72 379.036C466.831 379.689 466.932 380.634 467.943 381.218L475.482 385.571C476.493 386.154 478.13 386.213 479.262 385.699L484.517 383.342C485.73 383.599 486.983 383.785 488.257 383.914L490.763 387.485C491.289 388.255 492.744 388.675 494.139 388.453L504.448 386.866C505.842 386.644 506.732 385.874 506.55 385.046L505.64 381.23C506.166 380.996 506.631 380.751 507.096 380.483ZM484.942 375.861C481.041 373.609 481.041 369.945 484.942 367.692C488.843 365.44 495.19 365.44 499.091 367.692C502.992 369.945 502.992 373.609 499.091 375.861C495.19 378.114 488.843 378.114 484.942 375.861Z" fill="#4533CE"/>
<mask id="mask1_8998_18326" style="mask-type:luminance" maskUnits="userSpaceOnUse" x="443" y="344" width="98" height="57">
<path d="M540.445 372.035L491.934 344.027L443.422 372.035L491.934 400.043L540.445 372.035Z" fill="white"/>
</mask>
<g mask="url(#mask1_8998_18326)">
<path d="M507.095 380.788C507.56 380.519 507.985 380.251 508.409 379.959L515.019 380.484C516.434 380.601 517.788 380.076 518.172 379.271L520.921 373.319C521.305 372.514 520.577 371.674 519.243 371.37L513.058 369.923C512.836 369.188 512.512 368.464 512.068 367.764L516.151 364.73C517.04 364.076 516.939 363.131 515.928 362.548L508.389 358.195C507.358 357.599 505.721 357.541 504.589 358.055L499.333 360.412C498.121 360.155 496.867 359.968 495.594 359.84L493.088 356.269C492.562 355.499 491.107 355.079 489.712 355.3L479.383 356.899C477.988 357.121 477.099 357.891 477.281 358.72L478.19 362.536C477.705 362.769 477.24 363.014 476.776 363.283C476.311 363.551 475.886 363.82 475.462 364.111L468.852 363.586C467.437 363.469 466.083 363.995 465.699 364.8L462.95 370.752C462.566 371.557 463.293 372.397 464.627 372.7L470.813 374.148C471.035 374.883 471.358 375.606 471.803 376.307L467.72 379.341C466.831 379.994 466.932 380.94 467.942 381.523L475.482 385.876C476.493 386.46 478.13 386.518 479.262 386.004L484.517 383.647C485.73 383.904 486.983 384.09 488.257 384.219L490.763 387.79C491.289 388.56 492.744 388.98 494.139 388.759L504.447 387.171C505.842 386.95 506.731 386.179 506.55 385.351L505.64 381.535C506.165 381.301 506.63 381.056 507.095 380.788ZM484.942 376.167C481.04 373.914 481.04 370.25 484.942 367.997C488.843 365.745 495.19 365.745 499.091 367.997C502.992 370.25 502.992 373.914 499.091 376.167C495.19 378.419 488.843 378.419 484.942 376.167Z" fill="url(#paint5_linear_8998_18326)"/>
</g>
<path d="M685.203 295.836C685.203 302.782 680.272 309.346 671.701 314.252C663.17 319.135 651.29 322.201 638.091 322.201C624.892 322.201 613.012 319.135 604.481 314.252C595.91 309.346 590.98 302.782 590.98 295.836C590.98 288.89 595.91 282.327 604.481 277.421C613.012 272.537 624.892 269.472 638.091 269.472C651.29 269.472 663.17 272.537 671.701 277.421C680.272 282.327 685.203 288.89 685.203 295.836Z" stroke="#5F2FCB" stroke-width="2.82626"/>
<path fill-rule="evenodd" clip-rule="evenodd" d="M638.091 303.026C664.891 303.026 686.616 290.59 686.616 275.248V252.957H667.048C658.966 249.51 648.945 247.471 638.091 247.471C627.238 247.471 617.217 249.51 609.134 252.957H589.566V275.248C589.566 290.59 611.292 303.026 638.091 303.026Z" fill="#5506D7"/>
<path d="M638.091 279.022C664.891 279.022 686.616 266.585 686.616 251.244C686.616 235.903 664.891 223.466 638.091 223.466C611.292 223.466 589.566 235.903 589.566 251.244C589.566 266.585 611.292 279.022 638.091 279.022Z" fill="#3B009B"/>
<path fill-rule="evenodd" clip-rule="evenodd" d="M638.091 271.555C664.891 271.555 686.616 259.119 686.616 243.777V221.486H667.048C658.966 218.039 648.945 216 638.091 216C627.238 216 617.217 218.039 609.134 221.486H589.566V243.777C589.566 259.119 611.292 271.555 638.091 271.555Z" fill="#5506D7"/>
<path d="M638.091 247.55C664.891 247.55 686.616 235.113 686.616 219.772C686.616 204.431 664.891 191.994 638.091 191.994C611.292 191.994 589.566 204.431 589.566 219.772C589.566 235.113 611.292 247.55 638.091 247.55Z" fill="#3B009B"/>
<path fill-rule="evenodd" clip-rule="evenodd" d="M638.091 240.181C664.891 240.181 686.616 227.744 686.616 212.403V190.111H667.048C658.966 186.665 648.945 184.625 638.091 184.625C627.238 184.625 617.217 186.665 609.134 190.111H589.566V212.403C589.566 227.744 611.292 240.181 638.091 240.181Z" fill="#660BFA"/>
<path d="M638.091 216.176C664.891 216.176 686.616 203.739 686.616 188.398C686.616 173.057 664.891 160.62 638.091 160.62C611.292 160.62 589.566 173.057 589.566 188.398C589.566 203.739 611.292 216.176 638.091 216.176Z" fill="#8C49FA"/>
<g filter="url(#filter8_f_8998_18326)">
<rect width="172.112" height="135.582" transform="matrix(-1 0 0 1 677.035 163.19)" fill="url(#paint6_linear_8998_18326)"/>
</g>
<path d="M327.833 429.269C328.274 429.522 328.546 429.992 328.545 430.5C328.543 431.008 328.269 431.477 327.826 431.727L254.404 473.186C253.974 473.429 253.447 473.429 253.016 473.187L120.556 398.666C120.117 398.419 119.842 397.956 119.836 397.452C119.83 396.947 120.093 396.478 120.526 396.22L193.08 353.034C193.518 352.773 194.062 352.768 194.504 353.021L327.833 429.269Z" stroke="#05BC90" stroke-width="2.82626" stroke-linejoin="round"/>
<path d="M253.973 420.053V460.809L326.572 418.014V378.531L253.973 420.053Z" fill="#00A489"/>
<path d="M254.117 419.488V460.843L121.25 385.808L121.25 345.852L254.117 419.488Z" fill="#02C7A9"/>
<path d="M253.616 419.67L327.038 378.211L193.709 301.963L121.156 345.149L253.616 419.67Z" fill="#03DABA" stroke="#81F59A" stroke-width="0.942087"/>
<mask id="mask2_8998_18326" style="mask-type:luminance" maskUnits="userSpaceOnUse" x="175" y="330" width="102" height="59">
<path d="M226.005 330.895L276.098 359.816L226.005 388.737L175.912 359.816L226.005 330.895Z" fill="white"/>
</mask>
<g mask="url(#mask2_8998_18326)">
<path d="M228.088 341.741L230.176 342.946L234.35 340.536L238.524 342.946L234.35 345.356L251.048 354.996L255.222 352.586L259.396 354.996L255.222 357.406L257.309 358.611C259.626 359.949 259.584 362.094 257.288 363.419L228.088 380.302C225.793 381.628 222.056 381.64 219.74 380.302L190.519 363.432C188.223 362.106 188.223 359.937 190.519 358.611L219.74 341.741C222.036 340.415 225.793 340.415 228.088 341.741ZM194.693 361.021L223.914 377.892L244.786 365.842L215.565 348.971L194.693 361.021ZM219.74 346.561L248.96 363.432L253.135 361.021L223.914 344.151L219.74 346.561ZM213.478 354.996L223.914 361.021L213.478 367.047L203.042 361.021L213.478 354.996Z" fill="url(#paint7_linear_8998_18326)"/>
</g>
<g filter="url(#filter9_f_8998_18326)">
<rect width="72.9541" height="57.4699" transform="matrix(-1 0 0 1 713.512 170.96)" fill="url(#paint8_linear_8998_18326)"/>
</g>
<g filter="url(#filter10_f_8998_18326)">
<rect width="72.9541" height="57.4699" transform="matrix(-1 0 0 1 551.574 174.459)" fill="url(#paint9_linear_8998_18326)"/>
</g>
</g>
<defs>
<filter id="filter0_f_8998_18326" x="44.168" y="-8.89697" width="778.523" height="523.621" filterUnits="userSpaceOnUse" color-interpolation-filters="sRGB">
<feFlood flood-opacity="0" result="BackgroundImageFix"/>
<feBlend mode="normal" in="SourceGraphic" in2="BackgroundImageFix" result="shape"/>
<feGaussianBlur stdDeviation="65" result="effect1_foregroundBlur_8998_18326"/>
</filter>
<filter id="filter1_d_8998_18326" x="239.84" y="181.845" width="218.035" height="134.137" filterUnits="userSpaceOnUse" color-interpolation-filters="sRGB">
<feFlood flood-opacity="0" result="BackgroundImageFix"/>
<feColorMatrix in="SourceAlpha" type="matrix" values="0 0 0 0 0 0 0 0 0 0 0 0 0 0 0 0 0 0 127 0" result="hardAlpha"/>
<feOffset dy="-4"/>
<feGaussianBlur stdDeviation="5"/>
<feComposite in2="hardAlpha" operator="out"/>
<feColorMatrix type="matrix" values="0 0 0 0 0.86125 0 0 0 0 0.87883 0 0 0 0 0.975 0 0 0 0.5 0"/>
<feBlend mode="normal" in2="BackgroundImageFix" result="effect1_dropShadow_8998_18326"/>
<feBlend mode="normal" in="SourceGraphic" in2="effect1_dropShadow_8998_18326" result="shape"/>
</filter>
<filter id="filter2_d_8998_18326" x="452.098" y="197.273" width="171.629" height="110.298" filterUnits="userSpaceOnUse" color-interpolation-filters="sRGB">
<feFlood flood-opacity="0" result="BackgroundImageFix"/>
<feColorMatrix in="SourceAlpha" type="matrix" values="0 0 0 0 0 0 0 0 0 0 0 0 0 0 0 0 0 0 127 0" result="hardAlpha"/>
<feOffset dy="-4"/>
<feGaussianBlur stdDeviation="5"/>
<feComposite in2="hardAlpha" operator="out"/>
<feColorMatrix type="matrix" values="0 0 0 0 0.86125 0 0 0 0 0.87883 0 0 0 0 0.975 0 0 0 0.5 0"/>
<feBlend mode="normal" in2="BackgroundImageFix" result="effect1_dropShadow_8998_18326"/>
<feBlend mode="normal" in="SourceGraphic" in2="effect1_dropShadow_8998_18326" result="shape"/>
</filter>
<filter id="filter3_d_8998_18326" x="373.656" y="267.868" width="109.371" height="108.29" filterUnits="userSpaceOnUse" color-interpolation-filters="sRGB">
<feFlood flood-opacity="0" result="BackgroundImageFix"/>
<feColorMatrix in="SourceAlpha" type="matrix" values="0 0 0 0 0 0 0 0 0 0 0 0 0 0 0 0 0 0 127 0" result="hardAlpha"/>
<feOffset dy="-4"/>
<feGaussianBlur stdDeviation="5"/>
<feComposite in2="hardAlpha" operator="out"/>
<feColorMatrix type="matrix" values="0 0 0 0 0.86125 0 0 0 0 0.87883 0 0 0 0 0.975 0 0 0 0.5 0"/>
<feBlend mode="normal" in2="BackgroundImageFix" result="effect1_dropShadow_8998_18326"/>
<feBlend mode="normal" in="SourceGraphic" in2="effect1_dropShadow_8998_18326" result="shape"/>
</filter>
<filter id="filter4_d_8998_18326" x="238.371" y="104.983" width="217.828" height="134.713" filterUnits="userSpaceOnUse" color-interpolation-filters="sRGB">
<feFlood flood-opacity="0" result="BackgroundImageFix"/>
<feColorMatrix in="SourceAlpha" type="matrix" values="0 0 0 0 0 0 0 0 0 0 0 0 0 0 0 0 0 0 127 0" result="hardAlpha"/>
<feOffset dy="-4"/>
<feGaussianBlur stdDeviation="5"/>
<feComposite in2="hardAlpha" operator="out"/>
<feColorMatrix type="matrix" values="0 0 0 0 0.86125 0 0 0 0 0.87883 0 0 0 0 0.975 0 0 0 0.1 0"/>
<feBlend mode="normal" in2="BackgroundImageFix" result="effect1_dropShadow_8998_18326"/>
<feBlend mode="normal" in="SourceGraphic" in2="effect1_dropShadow_8998_18326" result="shape"/>
</filter>
<filter id="filter5_d_8998_18326" x="463.164" y="274.224" width="87.0703" height="100.254" filterUnits="userSpaceOnUse" color-interpolation-filters="sRGB">
<feFlood flood-opacity="0" result="BackgroundImageFix"/>
<feColorMatrix in="SourceAlpha" type="matrix" values="0 0 0 0 0 0 0 0 0 0 0 0 0 0 0 0 0 0 127 0" result="hardAlpha"/>
<feOffset dy="-4"/>
<feGaussianBlur stdDeviation="5"/>
<feComposite in2="hardAlpha" operator="out"/>
<feColorMatrix type="matrix" values="0 0 0 0 0.86125 0 0 0 0 0.87883 0 0 0 0 0.975 0 0 0 0.5 0"/>
<feBlend mode="normal" in2="BackgroundImageFix" result="effect1_dropShadow_8998_18326"/>
<feBlend mode="normal" in="SourceGraphic" in2="effect1_dropShadow_8998_18326" result="shape"/>
</filter>
<filter id="filter6_d_8998_18326" x="500.879" y="299.831" width="116.352" height="74.6519" filterUnits="userSpaceOnUse" color-interpolation-filters="sRGB">
<feFlood flood-opacity="0" result="BackgroundImageFix"/>
<feColorMatrix in="SourceAlpha" type="matrix" values="0 0 0 0 0 0 0 0 0 0 0 0 0 0 0 0 0 0 127 0" result="hardAlpha"/>
<feOffset dy="-4"/>
<feGaussianBlur stdDeviation="5"/>
<feComposite in2="hardAlpha" operator="out"/>
<feColorMatrix type="matrix" values="0 0 0 0 0.86125 0 0 0 0 0.87883 0 0 0 0 0.975 0 0 0 0.5 0"/>
<feBlend mode="normal" in2="BackgroundImageFix" result="effect1_dropShadow_8998_18326"/>
<feBlend mode="normal" in="SourceGraphic" in2="effect1_dropShadow_8998_18326" result="shape"/>
</filter>
<filter id="filter7_d_8998_18326" x="230.562" y="257.646" width="87.0703" height="104.886" filterUnits="userSpaceOnUse" color-interpolation-filters="sRGB">
<feFlood flood-opacity="0" result="BackgroundImageFix"/>
<feColorMatrix in="SourceAlpha" type="matrix" values="0 0 0 0 0 0 0 0 0 0 0 0 0 0 0 0 0 0 127 0" result="hardAlpha"/>
<feOffset dy="-4"/>
<feGaussianBlur stdDeviation="5"/>
<feComposite in2="hardAlpha" operator="out"/>
<feColorMatrix type="matrix" values="0 0 0 0 0.86125 0 0 0 0 0.87883 0 0 0 0 0.975 0 0 0 0.5 0"/>
<feBlend mode="normal" in2="BackgroundImageFix" result="effect1_dropShadow_8998_18326"/>
<feBlend mode="normal" in="SourceGraphic" in2="effect1_dropShadow_8998_18326" result="shape"/>
</filter>
<filter id="filter8_f_8998_18326" x="434.922" y="93.1899" width="312.113" height="275.582" filterUnits="userSpaceOnUse" color-interpolation-filters="sRGB">
<feFlood flood-opacity="0" result="BackgroundImageFix"/>
<feBlend mode="normal" in="SourceGraphic" in2="BackgroundImageFix" result="shape"/>
<feGaussianBlur stdDeviation="35" result="effect1_foregroundBlur_8998_18326"/>
</filter>
<filter id="filter9_f_8998_18326" x="597.559" y="127.96" width="158.953" height="143.47" filterUnits="userSpaceOnUse" color-interpolation-filters="sRGB">
<feFlood flood-opacity="0" result="BackgroundImageFix"/>
<feBlend mode="normal" in="SourceGraphic" in2="BackgroundImageFix" result="shape"/>
<feGaussianBlur stdDeviation="21.5" result="effect1_foregroundBlur_8998_18326"/>
</filter>
<filter id="filter10_f_8998_18326" x="435.621" y="131.459" width="158.953" height="143.47" filterUnits="userSpaceOnUse" color-interpolation-filters="sRGB">
<feFlood flood-opacity="0" result="BackgroundImageFix"/>
<feBlend mode="normal" in="SourceGraphic" in2="BackgroundImageFix" result="shape"/>
<feGaussianBlur stdDeviation="21.5" result="effect1_foregroundBlur_8998_18326"/>
</filter>
<linearGradient id="paint0_linear_8998_18326" x1="255.006" y1="0" x2="255.006" y2="245.405" gradientUnits="userSpaceOnUse">
<stop stop-color="#6218FF" stop-opacity="0"/>
<stop offset="1" stop-color="#6117FF"/>
</linearGradient>
<linearGradient id="paint1_linear_8998_18326" x1="397.105" y1="321.843" x2="429.966" y2="338.498" gradientUnits="userSpaceOnUse">
<stop stop-color="#DDBCFE"/>
<stop offset="1" stop-color="#DFD5FB"/>
</linearGradient>
<linearGradient id="paint2_linear_8998_18326" x1="530.479" y1="344.758" x2="519.631" y2="292.553" gradientUnits="userSpaceOnUse">
<stop stop-color="#B198F8"/>
<stop offset="1" stop-color="#C992FC"/>
</linearGradient>
<linearGradient id="paint3_linear_8998_18326" x1="530.482" y1="344.758" x2="524.151" y2="308.35" gradientUnits="userSpaceOnUse">
<stop stop-color="#A187ED"/>
<stop offset="1" stop-color="#B46AF9"/>
</linearGradient>
<linearGradient id="paint4_linear_8998_18326" x1="297.879" y1="327.098" x2="291.547" y2="290.691" gradientUnits="userSpaceOnUse">
<stop stop-color="#98FFDE"/>
<stop offset="1" stop-color="#B46AF9"/>
</linearGradient>
<linearGradient id="paint5_linear_8998_18326" x1="452.068" y1="372.358" x2="465.255" y2="395.224" gradientUnits="userSpaceOnUse">
<stop offset="0.03125" stop-color="#E151F7"/>
<stop offset="0.96875" stop-color="#5C47F5"/>
</linearGradient>
<linearGradient id="paint6_linear_8998_18326" x1="86.0559" y1="0" x2="86.0559" y2="135.582" gradientUnits="userSpaceOnUse">
<stop stop-color="#6218FF" stop-opacity="0"/>
<stop offset="1" stop-color="#381388"/>
</linearGradient>
<linearGradient id="paint7_linear_8998_18326" x1="223.914" y1="382.712" x2="211.283" y2="360.857" gradientUnits="userSpaceOnUse">
<stop offset="0.03125" stop-color="#A3F9DF"/>
<stop offset="0.96875" stop-color="#A2FFAB"/>
</linearGradient>
<linearGradient id="paint8_linear_8998_18326" x1="24.6667" y1="42.2388" x2="36.4771" y2="57.4699" gradientUnits="userSpaceOnUse">
<stop stop-color="#F225DE" stop-opacity="0"/>
<stop offset="1" stop-color="#FD83FF"/>
</linearGradient>
<linearGradient id="paint9_linear_8998_18326" x1="24.6667" y1="42.2388" x2="36.4771" y2="57.4699" gradientUnits="userSpaceOnUse">
<stop stop-color="#F225DE" stop-opacity="0"/>
<stop offset="1" stop-color="#FD83FF"/>
</linearGradient>
<clipPath id="clip0_8998_18326">
<rect width="806" height="601" fill="white"/>
</clipPath>
</defs>
</svg>
