<svg width="595" height="459" viewBox="0 0 595 459" fill="none" xmlns="http://www.w3.org/2000/svg">
<path d="M372.206 189.068C371.771 189.324 371.505 189.793 371.51 190.298C371.514 190.804 371.788 191.268 372.228 191.516L445.65 232.976C446.084 233.22 446.614 233.219 447.046 232.972L519.6 191.513C520.036 191.263 520.307 190.801 520.312 190.298C520.316 189.796 520.053 189.329 519.621 189.072L447.068 145.885C446.625 145.622 446.073 145.62 445.629 145.882L372.206 189.068Z" stroke="#B26AF9" stroke-width="2.82626" stroke-linejoin="round"/>
<path d="M447.843 181.266L374.42 139.807L447.843 96.6206L520.396 139.807L447.843 181.266Z" fill="#4906B9"/>
<path d="M447.486 181.064V226.231L374.888 183.436V139.543L447.486 181.064Z" fill="#320282"/>
<path d="M447.344 180.476V222.719L520.545 180.476V139.631L447.344 180.476Z" fill="#1F0152"/>
<rect width="3.89844" height="19.1703" rx="0.243653" transform="matrix(0.866025 -0.5 0.866025 0.5 423.265 156.097)" fill="#7FD1BA"/>
<rect width="3.89844" height="19.5009" rx="0.243653" transform="matrix(0.866025 -0.5 0.866025 0.5 416.353 142.376)" fill="#7FD1BA"/>
<rect width="3.89844" height="9.34815" rx="0.243653" transform="matrix(0.866025 -0.5 0.866025 0.5 433.241 152.127)" fill="#FCE07C"/>
<rect width="3.89844" height="8.03194" rx="0.243653" transform="matrix(0.866025 -0.5 0.866025 0.5 441.337 156.801)" fill="#EC6149"/>
<rect width="3.89844" height="42.6172" rx="0.243653" transform="matrix(0.866025 -0.5 0.866025 0.5 419.811 134.644)" fill="#7FD1BA"/>
<rect width="3.89844" height="15.3342" rx="0.243653" transform="matrix(0.866025 -0.5 0.866025 0.5 446.676 140.424)" fill="#7FD1BA"/>
<rect width="3.89844" height="2.86583" rx="0.243653" transform="matrix(0.866025 -0.5 0.866025 0.5 459.956 148.091)" fill="#FCE07C"/>
<rect width="3.89844" height="3.12493" rx="0.243653" transform="matrix(0.866025 -0.5 0.866025 0.5 462.438 149.524)" fill="#EC6149"/>
<rect width="3.89844" height="16.162" rx="0.243653" transform="matrix(0.866025 -0.5 0.866025 0.5 459.573 138.143)" fill="#7FD1BA"/>
<rect width="3.89844" height="7.22666" rx="0.243653" transform="matrix(0.866025 -0.5 0.866025 0.5 475.737 137.746)" fill="#7FD1BA"/>
<rect width="3.89844" height="44.6774" rx="0.243653" transform="matrix(0.866025 -0.5 0.866025 0.5 451.73 114.156)" fill="#7FD1BA"/>
<path d="M257.784 242.067L354.962 185.323L256.971 129.76L158.754 186.324L257.784 242.067Z" stroke="#CD88FF" stroke-width="1.83" stroke-linecap="round" stroke-linejoin="round"/>
<path d="M304.05 215.736L330.996 231.156L292.656 253.181L380.541 302.285" stroke="url(#paint0_linear_107_1424)" stroke-width="2" stroke-linejoin="round"/>
<g filter="url(#filter0_d_107_1424)">
<path d="M205.455 189.355C192.263 181.739 184.851 171.409 184.851 160.639C184.851 149.868 192.263 139.539 205.455 131.923L255.197 103.207L304.939 131.923C318.131 139.539 325.543 149.868 325.543 160.639C325.543 171.409 318.131 181.739 304.939 189.355C291.747 196.971 273.854 201.249 255.197 201.249C236.54 201.249 218.648 196.971 205.455 189.355V189.355Z" fill="#0ACF83"/>
</g>
<path d="M353.208 110.501L255.873 166.121L157.373 110.501L255.873 52.5642L353.208 110.501Z" fill="#6400CA" stroke="url(#paint1_linear_107_1424)" stroke-width="1.28034"/>
<path d="M255.391 166.582L255.391 227.966L156.726 169.805L156.726 110.153L255.391 166.582Z" fill="#4A0292"/>
<path d="M255.197 165.782L255.197 227.269L354.681 169.859L354.681 110.272L255.197 165.782Z" fill="#3C0077"/>
<path d="M260.344 103.96C262.754 103.96 264.708 105.088 264.708 106.479L264.708 112.199C264.708 113.59 262.754 114.718 260.344 114.718L250.437 114.718C248.027 114.718 246.073 113.59 246.073 112.199L246.073 106.479C246.073 105.088 248.027 103.96 250.437 103.96L260.344 103.96Z" fill="#A950FF"/>
<path d="M283.198 117.109C285.565 117.109 287.484 118.216 287.484 119.583L287.484 125.393C287.484 126.759 285.565 127.867 283.198 127.867L273.135 127.867C270.768 127.867 268.849 126.759 268.849 125.393L268.849 119.583C268.849 118.216 270.768 117.109 273.135 117.109L283.198 117.109Z" fill="#A950FF"/>
<path d="M283.197 90.8103C285.564 90.8103 287.483 91.9181 287.483 93.2846L287.483 99.0944C287.483 100.461 285.564 101.569 283.197 101.569L273.134 101.569C270.767 101.569 268.849 100.461 268.849 99.0945L268.849 93.2846C268.849 91.9181 270.767 90.8103 273.134 90.8103L283.197 90.8103Z" fill="#E9C1FF"/>
<path d="M264.709 99.05C264.709 100.441 262.755 101.569 260.345 101.569L250.438 101.569C248.028 101.569 246.074 100.441 246.074 99.05L246.074 93.3304C246.074 91.9389 248.028 90.8109 250.438 90.8109L260.345 90.8109C262.755 90.8109 264.709 91.9389 264.709 93.3304L264.709 99.05Z" fill="#CD88FF"/>
<path d="M241.933 99.0944C241.933 100.461 240.015 101.569 237.648 101.569L227.585 101.569C225.218 101.569 223.299 100.461 223.299 99.0944L223.299 93.2846C223.299 91.9181 225.218 90.8103 227.585 90.8103L237.648 90.8103C240.015 90.8103 241.933 91.9181 241.933 93.2846L241.933 99.0944Z" fill="#A950FF"/>
<path d="M287.483 112.199C287.483 113.59 285.529 114.718 283.119 114.718L273.213 114.718C270.802 114.718 268.849 113.59 268.849 112.199L268.849 106.479C268.849 105.088 270.802 103.96 273.213 103.96L283.119 103.96C285.529 103.96 287.483 105.088 287.483 106.479L287.483 112.199Z" fill="#CD88FF"/>
<path d="M241.303 123.101C241.303 126.21 236.939 128.73 231.554 128.73C226.17 128.73 221.805 126.21 221.805 123.101C221.805 119.992 226.17 117.472 231.554 117.472C236.939 117.472 241.303 119.992 241.303 123.101Z" fill="#F62E76"/>
<path d="M427.787 222.532L382.665 247.834L446.734 285.095L419.6 300.166" stroke="url(#paint2_linear_107_1424)" stroke-width="3" stroke-linejoin="round"/>
<path d="M514.507 248.146L419.6 300.167" stroke="url(#paint3_linear_107_1424)" stroke-width="3" stroke-linejoin="round"/>
<path d="M235.833 362.269C236.274 362.522 236.546 362.992 236.545 363.5C236.543 364.008 236.269 364.477 235.826 364.727L162.404 406.186C161.974 406.429 161.447 406.429 161.016 406.187L28.5566 331.666C28.117 331.419 27.8426 330.956 27.8364 330.452C27.8302 329.947 28.0933 329.478 28.5266 329.22L101.08 286.034C101.518 285.773 102.062 285.768 102.504 286.021L235.833 362.269Z" stroke="#05BC90" stroke-width="2.82626" stroke-linejoin="round"/>
<path d="M161.973 353.053L161.973 393.809L234.572 351.014L234.572 311.531L161.973 353.053Z" fill="#00A489"/>
<path d="M162.116 352.488L162.116 393.843L29.2495 318.808L29.2497 278.852L162.116 352.488Z" fill="#02C7A9"/>
<path d="M161.617 352.67L235.039 311.211L101.71 234.963L29.1569 278.149L161.617 352.67Z" fill="#03DABA" stroke="#81F59A" stroke-width="0.942087"/>
<path d="M194.164 205.961L150.062 230.174L214.132 267.435L186.998 282.507" stroke="url(#paint4_linear_107_1424)" stroke-opacity="0.81" stroke-width="3" stroke-linejoin="round"/>
<g clip-path="url(#clip0_107_1424)">
<path d="M136.091 274.741L138.179 275.946L142.353 273.536L146.527 275.946L142.353 278.356L159.051 287.996L163.225 285.586L167.399 287.996L163.225 290.406L165.312 291.611C167.629 292.949 167.587 295.094 165.291 296.419L136.091 313.302C133.796 314.628 130.059 314.64 127.743 313.302L98.5219 296.432C96.226 295.106 96.226 292.937 98.5219 291.611L127.743 274.741C130.039 273.415 133.796 273.415 136.091 274.741ZM102.696 294.021L131.917 310.892L152.789 298.842L123.568 281.971L102.696 294.021ZM127.743 279.561L156.963 296.432L161.138 294.021L131.917 277.151L127.743 279.561ZM121.481 287.996L131.917 294.021L121.481 300.047L111.045 294.021L121.481 287.996Z" fill="url(#paint5_linear_107_1424)"/>
</g>
<g clip-path="url(#clip1_107_1424)">
<path d="M415.095 318.778C415.56 318.51 415.985 318.241 416.409 317.95L423.019 318.475C424.434 318.591 425.788 318.066 426.172 317.261L428.921 311.309C429.305 310.504 428.577 309.664 427.243 309.36L421.058 307.913C420.836 307.178 420.512 306.454 420.068 305.754L424.151 302.72C425.04 302.067 424.939 301.121 423.928 300.538L416.389 296.185C415.358 295.59 413.721 295.531 412.589 296.045L407.333 298.402C406.121 298.145 404.867 297.959 403.594 297.83L401.088 294.259C400.562 293.489 399.107 293.069 397.712 293.291L387.383 294.889C385.988 295.111 385.099 295.881 385.281 296.71L386.19 300.526C385.705 300.759 385.24 301.005 384.776 301.273C384.311 301.541 383.886 301.81 383.462 302.102L376.852 301.576C375.437 301.46 374.083 301.985 373.699 302.79L370.95 308.742C370.566 309.547 371.293 310.387 372.627 310.691L378.813 312.138C379.035 312.873 379.358 313.597 379.803 314.297L375.72 317.331C374.831 317.985 374.932 318.93 375.942 319.513L383.482 323.866C384.493 324.45 386.13 324.508 387.262 323.995L392.517 321.637C393.73 321.894 394.983 322.081 396.257 322.209L398.763 325.78C399.289 326.55 400.744 326.97 402.139 326.749L412.447 325.162C413.842 324.94 414.731 324.17 414.55 323.341L413.64 319.525C414.165 319.292 414.63 319.047 415.095 318.778ZM392.942 314.157C389.04 311.904 389.04 308.24 392.942 305.988C396.843 303.735 403.19 303.735 407.091 305.988C410.992 308.24 410.992 311.904 407.091 314.157C403.19 316.409 396.843 316.409 392.942 314.157Z" fill="#4533CE"/>
</g>
<path d="M415.096 317.455C415.56 317.187 415.985 316.919 416.409 316.627L423.019 317.152C424.434 317.269 425.788 316.743 426.172 315.938L428.921 309.986C429.305 309.181 428.578 308.341 427.244 308.038L421.058 306.59C420.836 305.855 420.513 305.132 420.068 304.432L424.151 301.397C425.04 300.744 424.939 299.799 423.929 299.215L416.389 294.862C415.358 294.267 413.721 294.209 412.589 294.722L407.334 297.079C406.121 296.823 404.868 296.636 403.594 296.508L401.088 292.937C400.562 292.166 399.107 291.746 397.712 291.968L387.383 293.567C385.989 293.788 385.099 294.559 385.281 295.387L386.191 299.203C385.706 299.437 385.241 299.682 384.776 299.95C384.311 300.219 383.886 300.487 383.462 300.779L376.852 300.254C375.437 300.137 374.083 300.662 373.699 301.467L370.95 307.419C370.566 308.224 371.294 309.065 372.628 309.368L378.813 310.815C379.035 311.55 379.359 312.274 379.803 312.974L375.72 316.008C374.831 316.662 374.932 317.607 375.943 318.191L383.482 322.543C384.493 323.127 386.13 323.185 387.262 322.672L392.517 320.315C393.73 320.571 394.983 320.758 396.257 320.886L398.763 324.457C399.289 325.228 400.744 325.648 402.139 325.426L412.448 323.839C413.842 323.617 414.732 322.847 414.55 322.018L413.64 318.202C414.166 317.969 414.631 317.724 415.096 317.455ZM392.942 312.834C389.041 310.582 389.041 306.917 392.942 304.665C396.843 302.413 403.19 302.413 407.091 304.665C410.992 306.917 410.992 310.582 407.091 312.834C403.19 315.086 396.843 315.086 392.942 312.834Z" fill="#4533CE"/>
<path d="M415.096 316.131C415.56 315.863 415.985 315.594 416.409 315.303L423.019 315.828C424.434 315.944 425.788 315.419 426.172 314.614L428.921 308.662C429.305 307.857 428.578 307.017 427.244 306.713L421.058 305.266C420.836 304.531 420.513 303.808 420.068 303.107L424.151 300.073C425.04 299.42 424.939 298.474 423.929 297.891L416.389 293.538C415.358 292.943 413.721 292.884 412.589 293.398L407.334 295.755C406.121 295.498 404.868 295.312 403.594 295.183L401.088 291.612C400.562 290.842 399.107 290.422 397.712 290.644L387.383 292.242C385.989 292.464 385.099 293.234 385.281 294.063L386.191 297.879C385.706 298.113 385.241 298.358 384.776 298.626C384.311 298.894 383.886 299.163 383.462 299.455L376.852 298.929C375.437 298.813 374.083 299.338 373.699 300.143L370.95 306.095C370.566 306.9 371.294 307.74 372.628 308.044L378.813 309.491C379.035 310.226 379.359 310.95 379.803 311.65L375.72 314.684C374.831 315.338 374.932 316.283 375.943 316.866L383.482 321.219C384.493 321.803 386.13 321.861 387.262 321.348L392.517 318.99C393.73 319.247 394.983 319.434 396.257 319.562L398.763 323.133C399.289 323.903 400.744 324.324 402.139 324.102L412.448 322.515C413.842 322.293 414.732 321.523 414.55 320.694L413.64 316.878C414.166 316.645 414.631 316.4 415.096 316.131ZM392.942 311.51C389.041 309.257 389.041 305.593 392.942 303.341C396.843 301.088 403.19 301.088 407.091 303.341C410.992 305.593 410.992 309.257 407.091 311.51C403.19 313.762 396.843 313.762 392.942 311.51Z" fill="#4533CE"/>
<path d="M415.096 314.807C415.56 314.538 415.985 314.27 416.409 313.978L423.019 314.503C424.434 314.62 425.788 314.095 426.172 313.29L428.921 307.338C429.305 306.533 428.578 305.693 427.244 305.389L421.058 303.942C420.836 303.207 420.513 302.483 420.068 301.783L424.151 298.749C425.04 298.095 424.939 297.15 423.929 296.567L416.389 292.214C415.358 291.618 413.721 291.56 412.589 292.074L407.334 294.431C406.121 294.174 404.868 293.987 403.594 293.859L401.088 290.288C400.562 289.518 399.107 289.098 397.712 289.319L387.383 290.918C385.989 291.14 385.099 291.91 385.281 292.739L386.191 296.555C385.706 296.788 385.241 297.033 384.776 297.302C384.311 297.57 383.886 297.839 383.462 298.13L376.852 297.605C375.437 297.489 374.083 298.014 373.699 298.819L370.95 304.771C370.566 305.576 371.294 306.416 372.628 306.72L378.813 308.167C379.035 308.902 379.359 309.625 379.803 310.326L375.72 313.36C374.831 314.013 374.932 314.959 375.943 315.542L383.482 319.895C384.493 320.479 386.13 320.537 387.262 320.023L392.517 317.666C393.73 317.923 394.983 318.11 396.257 318.238L398.763 321.809C399.289 322.579 400.744 322.999 402.139 322.778L412.448 321.19C413.842 320.969 414.732 320.198 414.55 319.37L413.64 315.554C414.166 315.32 414.631 315.075 415.096 314.807ZM392.942 310.186C389.041 307.933 389.041 304.269 392.942 302.016C396.843 299.764 403.19 299.764 407.091 302.016C410.992 304.269 410.992 307.933 407.091 310.186C403.19 312.438 396.843 312.438 392.942 310.186Z" fill="#4533CE"/>
<path d="M415.096 313.483C415.56 313.214 415.985 312.946 416.409 312.654L423.019 313.179C424.434 313.296 425.788 312.771 426.172 311.966L428.921 306.014C429.305 305.209 428.578 304.368 427.244 304.065L421.058 302.618C420.836 301.883 420.513 301.159 420.068 300.459L424.151 297.425C425.04 296.771 424.939 295.826 423.929 295.242L416.389 290.889C415.358 290.294 413.721 290.236 412.589 290.749L407.334 293.107C406.121 292.85 404.868 292.663 403.594 292.535L401.088 288.964C400.562 288.194 399.107 287.774 397.712 287.995L387.383 289.594C385.989 289.816 385.099 290.586 385.281 291.415L386.191 295.231C385.706 295.464 385.241 295.709 384.776 295.978C384.311 296.246 383.886 296.514 383.462 296.806L376.852 296.281C375.437 296.164 374.083 296.689 373.699 297.495L370.95 303.446C370.566 304.252 371.294 305.092 372.628 305.395L378.813 306.842C379.035 307.578 379.359 308.301 379.803 309.001L375.72 312.036C374.831 312.689 374.932 313.634 375.943 314.218L383.482 318.571C384.493 319.154 386.13 319.213 387.262 318.699L392.517 316.342C393.73 316.599 394.983 316.785 396.257 316.914L398.763 320.485C399.289 321.255 400.744 321.675 402.139 321.453L412.448 319.866C413.842 319.644 414.732 318.874 414.55 318.046L413.64 314.23C414.166 313.996 414.631 313.751 415.096 313.483ZM392.942 308.861C389.041 306.609 389.041 302.945 392.942 300.692C396.843 298.44 403.19 298.44 407.091 300.692C410.992 302.945 410.992 306.609 407.091 308.861C403.19 311.114 396.843 311.114 392.942 308.861Z" fill="#4533CE"/>
<g clip-path="url(#clip2_107_1424)">
<path d="M415.095 313.788C415.56 313.519 415.985 313.251 416.409 312.959L423.019 313.484C424.434 313.601 425.788 313.076 426.172 312.271L428.921 306.319C429.305 305.514 428.577 304.674 427.243 304.37L421.058 302.923C420.836 302.188 420.512 301.464 420.068 300.764L424.151 297.73C425.04 297.076 424.939 296.131 423.928 295.548L416.389 291.195C415.358 290.599 413.721 290.541 412.589 291.055L407.333 293.412C406.121 293.155 404.867 292.968 403.594 292.84L401.088 289.269C400.562 288.499 399.107 288.079 397.712 288.3L387.383 289.899C385.988 290.121 385.099 290.891 385.281 291.72L386.19 295.536C385.705 295.769 385.24 296.014 384.776 296.283C384.311 296.551 383.886 296.82 383.462 297.111L376.852 296.586C375.437 296.469 374.083 296.995 373.699 297.8L370.95 303.752C370.566 304.557 371.293 305.397 372.627 305.7L378.813 307.148C379.035 307.883 379.358 308.606 379.803 309.307L375.72 312.341C374.831 312.994 374.932 313.94 375.942 314.523L383.482 318.876C384.493 319.46 386.13 319.518 387.262 319.004L392.517 316.647C393.73 316.904 394.983 317.09 396.257 317.219L398.763 320.79C399.289 321.56 400.744 321.98 402.139 321.759L412.447 320.171C413.842 319.95 414.731 319.179 414.55 318.351L413.64 314.535C414.165 314.301 414.63 314.056 415.095 313.788ZM392.942 309.167C389.04 306.914 389.04 303.25 392.942 300.997C396.843 298.745 403.19 298.745 407.091 300.997C410.992 303.25 410.992 306.914 407.091 309.167C403.19 311.419 396.843 311.419 392.942 309.167Z" fill="url(#paint6_linear_107_1424)"/>
</g>
<path d="M593.203 228.836C593.203 235.782 588.272 242.346 579.701 247.252C571.17 252.135 559.29 255.201 546.091 255.201C532.892 255.201 521.012 252.135 512.481 247.252C503.91 242.346 498.98 235.782 498.98 228.836C498.98 221.89 503.91 215.327 512.481 210.421C521.012 205.537 532.892 202.472 546.091 202.472C559.29 202.472 571.17 205.537 579.701 210.421C588.272 215.327 593.203 221.89 593.203 228.836Z" stroke="#5F2FCB" stroke-width="2.82626"/>
<path fill-rule="evenodd" clip-rule="evenodd" d="M546.091 236.026C572.891 236.026 594.616 223.59 594.616 208.248L594.616 185.957L575.048 185.957C566.966 182.51 556.945 180.471 546.091 180.471C535.238 180.471 525.217 182.51 517.134 185.957L497.566 185.957L497.566 208.248C497.566 223.59 519.292 236.026 546.091 236.026Z" fill="#5506D7"/>
<ellipse cx="546.091" cy="184.244" rx="48.5249" ry="27.7778" fill="#3B009B"/>
<path fill-rule="evenodd" clip-rule="evenodd" d="M546.091 204.555C572.891 204.555 594.616 192.119 594.616 176.777L594.616 154.486L575.048 154.486C566.966 151.039 556.945 149 546.091 149C535.238 149 525.217 151.039 517.134 154.486L497.566 154.486L497.566 176.777C497.566 192.119 519.292 204.555 546.091 204.555Z" fill="#5506D7"/>
<ellipse cx="546.091" cy="152.772" rx="48.5249" ry="27.7778" fill="#3B009B"/>
<path fill-rule="evenodd" clip-rule="evenodd" d="M546.091 173.181C572.891 173.181 594.616 160.744 594.616 145.403L594.616 123.111L575.048 123.111C566.966 119.665 556.945 117.625 546.091 117.625C535.238 117.625 525.217 119.665 517.134 123.111L497.566 123.111L497.566 145.403C497.566 160.744 519.292 173.181 546.091 173.181Z" fill="#660BFA"/>
<ellipse cx="546.091" cy="121.398" rx="48.5249" ry="27.7778" fill="#8C49FA"/>
<defs>
<filter id="filter0_d_107_1424" x="88.4414" y="14.8151" width="333.511" height="290.862" filterUnits="userSpaceOnUse" color-interpolation-filters="sRGB">
<feFlood flood-opacity="0" result="BackgroundImageFix"/>
<feColorMatrix in="SourceAlpha" type="matrix" values="0 0 0 0 0 0 0 0 0 0 0 0 0 0 0 0 0 0 127 0" result="hardAlpha"/>
<feOffset dy="8.01856"/>
<feGaussianBlur stdDeviation="48.205"/>
<feComposite in2="hardAlpha" operator="out"/>
<feColorMatrix type="matrix" values="0 0 0 0 0.396 0 0 0 0 0 0 0 0 0 0.9 0 0 0 1 0"/>
<feBlend mode="normal" in2="BackgroundImageFix" result="effect1_dropShadow_107_1424"/>
<feBlend mode="normal" in="SourceGraphic" in2="effect1_dropShadow_107_1424" result="shape"/>
</filter>
<linearGradient id="paint0_linear_107_1424" x1="305.105" y1="254.843" x2="337.966" y2="271.498" gradientUnits="userSpaceOnUse">
<stop stop-color="#B773F8"/>
<stop offset="1" stop-color="#3B14AB"/>
</linearGradient>
<linearGradient id="paint1_linear_107_1424" x1="185.981" y1="73.1762" x2="269.172" y2="216.406" gradientUnits="userSpaceOnUse">
<stop offset="0.015625" stop-color="#B010FB"/>
<stop offset="0.130208" stop-color="#DE97FF"/>
<stop offset="0.234375" stop-color="#A227DB"/>
<stop offset="0.505208" stop-color="#A227DB" stop-opacity="0"/>
<stop offset="0.765625" stop-color="#A610EC" stop-opacity="0.84"/>
</linearGradient>
<linearGradient id="paint2_linear_107_1424" x1="438.48" y1="277.758" x2="427.632" y2="225.553" gradientUnits="userSpaceOnUse">
<stop stop-color="#3B14AB"/>
<stop offset="1" stop-color="#C992FC"/>
</linearGradient>
<linearGradient id="paint3_linear_107_1424" x1="438.48" y1="277.758" x2="432.149" y2="241.35" gradientUnits="userSpaceOnUse">
<stop stop-color="#3B14AB"/>
<stop offset="1" stop-color="#B46AF9"/>
</linearGradient>
<linearGradient id="paint4_linear_107_1424" x1="205.878" y1="260.098" x2="199.546" y2="223.691" gradientUnits="userSpaceOnUse">
<stop stop-color="#04AA75"/>
<stop offset="1" stop-color="#B46AF9"/>
</linearGradient>
<linearGradient id="paint5_linear_107_1424" x1="131.917" y1="315.712" x2="119.286" y2="293.857" gradientUnits="userSpaceOnUse">
<stop offset="0.03125" stop-color="#A3F9DF"/>
<stop offset="0.96875" stop-color="#A2FFAB"/>
</linearGradient>
<linearGradient id="paint6_linear_107_1424" x1="360.068" y1="305.358" x2="373.255" y2="328.224" gradientUnits="userSpaceOnUse">
<stop offset="0.03125" stop-color="#E151F7"/>
<stop offset="0.96875" stop-color="#5C47F5"/>
</linearGradient>
<clipPath id="clip0_107_1424">
<rect width="57.8422" height="57.8422" fill="white" transform="matrix(-0.866025 -0.5 -0.866025 0.5 184.097 292.816)"/>
</clipPath>
<clipPath id="clip1_107_1424">
<rect width="56.0164" height="56.0164" fill="white" transform="matrix(0.866025 0.5 -0.866025 0.5 399.935 282.018)"/>
</clipPath>
<clipPath id="clip2_107_1424">
<rect width="56.0164" height="56.0164" fill="white" transform="matrix(0.866025 0.5 -0.866025 0.5 399.935 277.027)"/>
</clipPath>
</defs>
</svg>
