<svg width="19" height="18" viewBox="0 0 19 18" fill="none" xmlns="http://www.w3.org/2000/svg">
    <path d="M13.4772 11.4716H12.6872L12.4072 11.2016C13.6072 9.80156 14.2272 7.89156 13.8872 5.86156C13.4172 3.08156 11.0972 0.861562 8.29719 0.521562C4.06719 0.00156239 0.507188 3.56156 1.02719 7.79156C1.36719 10.5916 3.58719 12.9116 6.36719 13.3816C8.39719 13.7216 10.3072 13.1016 11.7072 11.9016L11.9772 12.1816V12.9716L16.2272 17.2216C16.6372 17.6316 17.3072 17.6316 17.7172 17.2216C18.1272 16.8116 18.1272 16.1416 17.7172 15.7316L13.4772 11.4716ZM7.47719 11.4716C4.98719 11.4716 2.97719 9.46156 2.97719 6.97156C2.97719 4.48156 4.98719 2.47156 7.47719 2.47156C9.96719 2.47156 11.9772 4.48156 11.9772 6.97156C11.9772 9.46156 9.96719 11.4716 7.47719 11.4716Z" fill="#26282D"/>
</svg>