<svg width="25" height="29" viewBox="0 0 25 29" fill="none" xmlns="http://www.w3.org/2000/svg">
<g clip-path="url(#clip0_20980_33138)">
<path d="M23.7423 22.3346C23.3069 23.3359 22.7916 24.2576 22.1944 25.105C21.3805 26.2602 20.7141 27.0598 20.2005 27.5039C19.4044 28.2327 18.5513 28.606 17.6379 28.6272C16.9821 28.6272 16.1913 28.4415 15.2708 28.0647C14.3472 27.6896 13.4985 27.5039 12.7224 27.5039C11.9085 27.5039 11.0356 27.6896 10.1019 28.0647C9.16673 28.4415 8.41341 28.6378 7.83745 28.6573C6.96151 28.6944 6.08841 28.3106 5.21691 27.5039C4.66067 27.0209 3.96493 26.193 3.13146 25.0201C2.23722 23.7676 1.50202 22.3152 0.926057 20.6593C0.309219 18.8708 0 17.1389 0 15.4622C0 13.5415 0.416912 11.8849 1.25198 10.4968C1.90827 9.38172 2.78137 8.50214 3.87412 7.85643C4.96687 7.21072 6.14759 6.88167 7.41912 6.86062C8.11486 6.86062 9.02723 7.07486 10.161 7.49589C11.2916 7.91835 12.0176 8.13258 12.3359 8.13258C12.5738 8.13258 13.3803 7.88208 14.7474 7.38267C16.0403 6.91953 17.1314 6.72776 18.0253 6.8033C20.4475 6.9979 22.2673 7.94842 23.4775 9.66088C21.3112 10.9675 20.2396 12.7976 20.2609 15.1453C20.2805 16.974 20.9469 18.4958 22.2566 19.704C22.8502 20.2648 23.5131 20.6983 24.2506 21.0061C24.0906 21.4678 23.9218 21.9101 23.7423 22.3346ZM18.187 0.573358C18.187 2.00667 17.661 3.34495 16.6125 4.58365C15.3472 6.05623 13.8167 6.90715 12.1571 6.77288C12.1359 6.60092 12.1237 6.41995 12.1237 6.22977C12.1237 4.85379 12.7254 3.38122 13.794 2.17719C14.3275 1.56757 15.006 1.06068 15.8288 0.656327C16.6498 0.258003 17.4264 0.0377223 18.1568 0C18.1782 0.191612 18.187 0.383254 18.187 0.573358Z" fill="white"/>
</g>
<defs>
<clipPath id="clip0_20980_33138">
<rect width="24.2506" height="28.6598" fill="white"/>
</clipPath>
</defs>
</svg>
