<svg width="130" height="15" viewBox="0 0 130 15" fill="none" xmlns="http://www.w3.org/2000/svg">
<path d="M28.7888 2.03329C28.0234 1.88339 28.437 1.44193 28.8326 1.41202C29.2779 1.37716 29.7535 1.58256 29.9421 1.80333C30.0307 1.90721 29.6935 2.17555 28.7888 2.03329ZM31.9188 1.85801C31.076 1.38745 29.8988 0.940914 28.8725 0.948087C28.0905 0.954178 27.7672 1.13048 27.3542 1.27456C27.1066 1.36498 26.9725 1.34725 26.5043 1.29967C26.16 1.26928 25.8104 1.23098 25.5393 1.19842C25.6219 0.933535 25.708 0.637444 25.8032 0.292424C25.8245 0.21446 25.8225 0.125872 25.6832 0.0949436C25.2896 0.00696289 24.2591 -0.105925 23.6894 0.202007C23.6401 0.227657 23.5633 0.248843 23.4846 0.482805C23.418 0.679205 23.3528 0.871409 23.2892 1.06124C21.9386 1.09874 20.7239 1.38109 19.8372 1.98572C19.5338 2.19267 19.0288 2.607 18.9949 3.22557C18.9605 3.86749 19.5985 4.3637 20.2351 4.40938C20.61 4.43767 20.7281 4.32533 20.6893 4.26191C20.5853 4.09218 20.7105 3.79609 21.0014 3.57451C21.7245 3.10449 23.5424 2.83561 25.1735 3.05455C26.9051 3.28851 28.0176 3.72259 29.227 3.72259C30.2335 3.72469 31.3678 3.30489 31.8935 3.01144C32.1776 2.85497 32.2307 2.5919 32.237 2.41797C32.2431 2.24161 32.2473 2.04175 31.9188 1.85801ZM24.8424 8.59165C24.7868 8.78913 24.2058 8.76802 23.7819 8.77249C23.6115 8.7733 23.4156 8.76802 23.1931 8.75475C23.3112 8.36561 23.4125 8.03568 23.4758 7.83082C23.4995 7.7515 23.4959 7.66372 23.3567 7.63334C22.9631 7.54319 21.932 7.43031 21.3642 7.73749C21.313 7.76551 21.2232 7.81891 21.1536 8.05422C21.1187 8.17056 21.0639 8.35031 20.9987 8.57054C19.1358 8.48377 17.5334 8.86791 16.1751 10.7891C15.13 12.2682 14.7121 13.8623 12.707 13.2833C12.5612 13.2418 12.4078 13.1578 12.295 13.1141C12.2177 13.0851 12.1359 13.0951 12.0993 13.1401C12.0574 13.185 12.0597 13.2535 12.1455 13.3476C12.2328 13.4425 12.4364 13.572 12.8149 13.678C14.629 14.0904 15.5921 13.4137 16.782 11.9742C17.1178 11.5658 17.8144 10.4039 20.4331 10.4335C20.2211 11.1288 20.0114 11.8169 19.8716 12.273C19.8476 12.3515 19.8537 12.4387 19.9904 12.4705C20.3849 12.5595 21.4145 12.6708 21.984 12.3647C22.0338 12.3377 22.1244 12.2833 22.1941 12.0482C22.3116 11.6575 22.4616 11.1584 22.6199 10.6371C22.8849 10.6648 23.1351 10.6828 23.434 10.686C24.1573 10.6992 24.7441 10.5228 25.059 10.2149C25.397 9.88307 25.7026 9.23939 25.2589 8.7733C25.029 8.53142 24.8608 8.51761 24.8424 8.59165ZM26.5318 4.82445C26.512 4.91304 26.3865 4.96908 26.2456 4.98809C26.068 5.01219 25.5952 5.0867 24.3338 5.02193C24.4161 4.76368 24.5124 4.46414 24.6335 4.08819C24.6558 4.01151 24.6506 3.92217 24.5113 3.89043C24.1188 3.80191 23.0886 3.68957 22.5185 3.99621C22.4684 4.02342 22.3922 4.04514 22.3132 4.27856C22.2433 4.48342 22.1783 4.67908 22.1164 4.86411C19.9005 4.76814 17.9652 5.20649 16.9617 6.27187C16.7272 6.52221 16.5111 6.95257 16.5882 7.35099C16.7002 7.93125 17.2485 8.28473 17.8485 8.32784C18.2215 8.35295 18.364 8.2287 18.3223 8.16522C18.192 7.96882 18.3343 7.51964 18.9528 7.2492C20.716 6.47544 23.0244 6.85796 24.6558 6.96637C25.6649 7.03507 26.2943 6.81566 26.6802 6.53229C27.1291 6.20236 27.4038 5.46157 26.9695 5.01219C26.7149 4.74777 26.5484 4.75305 26.5318 4.82445Z" fill="white"/>
<path d="M37.7424 11.2221V8.13537H41.8623C43.3648 8.14146 43.7809 8.89227 43.7867 9.63327C43.7804 10.4414 43.3818 11.216 41.7359 11.2221H37.7424ZM41.7645 6.80057H37.7424V4.14558H41.6798C42.8928 4.15431 43.3436 4.63414 43.351 5.49195C43.3463 6.24196 42.8448 6.79583 41.7645 6.80057ZM43.544 7.32669C44.3245 7.02715 44.9422 6.42252 44.9383 5.27782C44.9383 4.51117 44.6956 3.88996 44.1759 3.46352C43.6565 3.03864 42.8701 2.8105 41.7934 2.8105H36.1529V12.5603H42.1443C44.3518 12.5577 45.3708 11.1288 45.3754 9.72762C45.3784 8.36168 44.6559 7.60613 43.544 7.32669Z" fill="white"/>
<path d="M48.6893 7.12447V4.14558H52.8526C54.029 4.15167 54.5715 4.74249 54.5783 5.64057C54.5715 6.30625 54.2503 7.11966 52.8097 7.12447H48.6893ZM55.9411 9.88943C55.8888 8.79495 55.4038 7.99338 54.5635 7.81099C55.6048 7.44431 56.1698 6.57297 56.1679 5.4259C56.1679 4.80198 55.9812 4.14822 55.5368 3.65065C55.0931 3.15106 54.3901 2.8105 53.3744 2.8105H47.0998V12.5603H48.6893V8.46266H52.5413C53.7615 8.47003 54.329 8.95041 54.4364 10.6759C54.5096 11.8373 54.5013 12.2491 54.7578 12.5426L54.7708 12.5603H56.4775L56.4087 12.4831C56.0842 12.1228 56.0248 11.6879 55.9411 9.88943Z" fill="white"/>
<path d="M65.0546 8.4098H61.3842L63.1986 4.29968L65.0546 8.4098ZM62.3792 2.8105L57.7872 12.5603H59.5001L60.7797 9.74616H65.6479L66.9275 12.5603H68.7383L64.1449 2.8105H62.3792Z" fill="white"/>
<path d="M70.521 12.5603H72.1085V2.8105H70.521V12.5603Z" fill="white"/>
<path d="M82.6341 10.442L76.2136 2.8105H74.4098V12.5603H75.9994V4.93023L82.4199 12.5603H84.2237V2.8105H82.6341V10.442Z" fill="white"/>
<path d="M88.0223 2.8105H86.4327V12.5595H94.1356V11.2213H88.0223V2.8105Z" fill="white"/>
<path d="M102.594 8.41055H98.9234L100.739 4.29968L102.594 8.41055ZM99.9177 2.8105L95.3257 12.5603H97.0365L98.3196 9.74616H103.186L104.468 12.5603H106.278L101.683 2.8105H99.9177Z" fill="white"/>
<path d="M109.302 11.189V8.10309H113.423C114.923 8.10789 115.341 8.85918 115.347 9.59944C115.339 10.407 114.941 11.1809 113.295 11.189H109.302ZM113.324 6.76544H109.302V4.11255H113.24C114.45 4.11912 114.903 4.59976 114.911 5.45893C114.906 6.20764 114.404 6.76016 113.324 6.76544ZM115.102 7.2915C115.884 6.99487 116.502 6.38949 116.499 5.2427C116.499 4.47733 116.255 3.85477 115.734 3.42996C115.216 3.00433 114.429 2.77619 113.352 2.77619H107.712V12.5259H113.703C115.911 12.5228 116.931 11.0931 116.933 9.69331C116.936 8.3252 116.214 7.57256 115.102 7.2915Z" fill="white"/>
</svg>
