<svg width="80" height="21" viewBox="0 0 80 21" fill="none" xmlns="http://www.w3.org/2000/svg">
<path fill-rule="evenodd" clip-rule="evenodd" d="M79.1125 15.4944C78.1218 18.3406 75.4592 20.1744 71.0636 20.1744C67.4102 20.1744 63.8187 18.0248 64.7479 13.0281C65.4287 8.79125 69.2059 6.00827 73.54 6.00827C78.3695 6.00827 80.5363 9.36005 79.7313 13.3439L79.5451 14.2298H70.4439C70.4439 14.3559 70.3205 14.7991 70.3205 15.241C70.3205 16.4431 70.9393 16.8854 71.6823 16.8854C72.4873 16.8854 73.2304 16.3803 73.6015 15.4944H79.1125ZM74.4684 11.4477L74.5307 11.1306C74.7161 10.0554 74.2203 9.29681 73.1689 9.29681C72.1781 9.29681 71.3104 9.99255 71.0636 11.4477H74.4684ZM63.8815 6.26083C62.4568 6.26083 61.3427 7.01982 60.5992 8.09507H60.4758L60.7235 6.38733H54.8417L54.4698 8.15831L57.6893 7.77882L57.6274 8.0955L54.3459 8.66475L52.0548 19.7954H58.3704C58.3704 19.7954 58.9892 16.5696 59.4231 14.7354C60.0419 11.6999 61.6519 11.0678 62.7045 11.0678C63.6338 11.0678 64.1907 11.4477 64.3145 11.5738L65.3672 6.64076C65.2433 6.57751 64.7479 6.26083 63.8815 6.26083ZM6.42355 11.9529C3.88518 11.1306 1.9656 9.61305 1.9656 6.70401C1.9656 2.46673 6.11394 0.0632495 11.6865 0C16.3302 0 19.4878 2.02399 18.9305 6.00827H12.2433C12.491 4.93303 11.8718 4.30053 10.6953 4.30053C9.82839 4.30053 9.14725 4.74328 9.02341 5.31252C8.89956 6.07152 9.39494 6.57708 10.5715 6.89376C11.5622 7.21001 12.2433 7.39976 13.2337 7.65276C16.0816 8.53825 17.4439 10.2455 17.7535 12.017L9.39494 12.902L6.42355 11.9529ZM6.67123 16.5696L7.22853 13.8503H0.0464493C-0.448925 18.4039 3.08019 20.3014 7.66198 20.3014C11.9957 20.3014 16.6394 18.7834 17.6305 14.7354L6.67123 16.5696ZM43.8829 7.33607C44.3774 6.95658 45.6162 6.00827 47.4735 6.00827C49.3926 6.00827 50.8792 6.83051 51.5595 8.41131L36.9476 9.99255L38.8672 0.505994H45.1824L43.7586 7.33607H43.8829ZM43.5109 10.4353C43.1398 11.0045 42.7678 11.8264 42.5201 13.0277C41.9628 15.6841 42.5825 16.3803 43.326 16.3803C44.3778 16.3803 45.2451 15.3683 45.6782 13.0909C45.9258 11.6366 45.8643 10.5614 45.4928 10.1191L51.8076 9.10706C52.1172 10.1191 52.1795 11.4477 51.8699 12.902C50.9407 17.7081 48.0923 20.1744 44.9355 20.1744C43.5109 20.1744 41.9013 19.7954 41.2821 18.2141H41.0959L40.6006 19.7954H34.9046L36.5765 11.5738L43.5109 10.4353ZM27.7221 15.0521C27.5363 16.0632 26.8556 16.8854 25.9268 16.8854C24.998 16.8854 24.6264 16.1273 24.7503 15.3051C24.936 14.6089 25.6172 13.9131 26.9175 13.9131H27.9698L27.7221 15.0521ZM26.1126 10.4353C26.2983 9.61305 26.9175 8.98056 27.7225 8.98056C28.4656 8.98056 28.8371 9.6763 28.6514 10.3725L28.5894 10.8776L34.4712 10.2456C34.0377 7.14676 31.2516 5.81852 27.9698 5.81852C23.0784 5.81852 20.7258 8.28482 20.2304 10.4985L20.1685 10.8144H26.0506L26.1126 10.4353ZM18.8686 14.5461C18.6652 15.0914 18.5603 15.6698 18.5589 16.2534C18.5589 18.3406 20.107 20.174 22.7073 20.174C25.0599 20.174 26.4222 19.1629 27.0414 18.4667H27.1033L26.9795 19.7949H32.9235L34.3473 12.7747C34.4092 12.5217 34.4712 12.2054 34.5331 11.9524L18.8686 14.5461Z" fill="white"/>
</svg>
