<svg width="604" height="450" viewBox="0 0 604 450" fill="none" xmlns="http://www.w3.org/2000/svg">
<g clip-path="url(#clip0_23296_50116)">
<g filter="url(#filter0_f_23296_50116)">
<rect width="139.432" height="175.191" transform="matrix(-1 0 0 1 376.902 94.2822)" fill="url(#paint0_linear_23296_50116)"/>
</g>
<path d="M486.48 304.879L570.344 256.131C573.119 254.518 573.11 250.506 570.328 248.905L300.893 93.841C299.605 93.0996 298.02 93.0993 296.731 93.84L212.132 142.474C209.34 144.079 209.341 148.107 212.134 149.711L482.304 304.89C483.598 305.633 485.19 305.629 486.48 304.879Z" stroke="#CD88FF" stroke-width="1.39171" stroke-linecap="round" stroke-linejoin="round" stroke-dasharray="2.78 2.78"/>
<g filter="url(#filter1_d_23296_50116)">
<path d="M263.415 162.258C253.382 156.466 247.745 148.611 247.745 140.42C247.745 132.229 253.382 124.373 263.415 118.581L301.243 96.743L339.072 118.581C349.105 124.373 354.741 132.229 354.741 140.42C354.741 148.611 349.105 156.466 339.072 162.258C329.039 168.05 315.432 171.304 301.243 171.304C287.055 171.304 273.447 168.05 263.415 162.258V162.258Z" fill="#0ACF83"/>
</g>
<path d="M375.781 102.291L301.759 144.589L226.85 102.29L301.76 58.2295L375.781 102.291Z" fill="#6400CA" stroke="url(#paint1_linear_23296_50116)" stroke-width="0.973695"/>
<path d="M301.39 144.94L301.39 191.622L226.355 147.391L226.355 102.025L301.39 144.94Z" fill="#4A0292"/>
<path d="M301.246 144.331L301.246 191.092L376.903 147.432L376.903 102.116L301.246 144.331Z" fill="#3C0077"/>
<g clip-path="url(#clip1_23296_50116)">
<path d="M281.623 95.3211L289.471 95.3211L305.166 86.2593C306.207 85.6585 307.619 85.3209 309.09 85.3209C310.562 85.3209 311.973 85.6585 313.014 86.2593L319.881 90.2238C317.742 90.7336 315.741 91.4811 313.995 92.4893C310.613 94.442 308.713 97.0904 308.713 99.8519C308.713 102.613 310.613 105.262 313.995 107.215C315.741 108.223 317.742 108.97 319.881 109.48L301.243 120.241C299.065 121.498 295.553 121.487 293.395 120.241L269.852 106.648C267.674 105.391 267.674 103.375 269.852 102.117L281.623 95.3211ZM314.976 94.1883L317.919 95.8874C320 94.6858 322.823 94.0107 325.767 94.0107C328.71 94.0107 331.533 94.6858 333.614 95.8874C335.223 96.8163 336.224 97.9603 336.636 99.1497L332.359 99.1497C332.025 98.572 331.456 98.0396 330.671 97.5865C329.371 96.8355 327.606 96.4135 325.767 96.4135C323.927 96.4135 322.163 96.8355 320.862 97.5865L323.805 99.2856L314.976 99.2856L314.976 94.1883ZM336.557 106.648L333.614 104.949C331.533 106.151 328.71 106.826 325.767 106.826C322.823 106.826 320 106.151 317.919 104.949C316.31 104.02 315.31 102.876 314.898 101.687L319.175 101.687C319.508 102.265 320.077 102.797 320.862 103.25C322.163 104.001 323.927 104.423 325.767 104.423C327.606 104.423 329.371 104.001 330.671 103.25L327.729 101.551L336.557 101.551L336.557 106.648Z" fill="white"/>
</g>
<g filter="url(#filter2_f_23296_50116)">
<circle cx="245.313" cy="101.385" r="36.1454" fill="#9F0AFA" style="mix-blend-mode:lighten"/>
</g>
<g filter="url(#filter3_d_23296_50116)">
<path d="M353.856 213.22C343.823 207.428 338.187 199.573 338.187 191.382C338.187 183.191 343.823 175.335 353.856 169.543L391.685 147.705L429.513 169.543C439.546 175.335 445.182 183.191 445.182 191.382C445.182 199.573 439.546 207.428 429.513 213.22C419.48 219.012 405.873 222.266 391.685 222.266C377.496 222.266 363.889 219.012 353.856 213.22V213.22Z" fill="#0ACF83"/>
</g>
<path d="M466.219 153.253L392.196 195.551L317.287 153.252L392.197 109.191L466.219 153.253Z" fill="#6400CA" stroke="url(#paint2_linear_23296_50116)" stroke-width="0.973695"/>
<path d="M391.831 195.902L391.831 242.584L316.797 198.353L316.797 152.987L391.831 195.902Z" fill="#4A0292"/>
<path d="M391.684 195.293L391.684 242.054L467.341 198.394L467.341 153.078L391.684 195.293Z" fill="#3C0077"/>
<path d="M412.874 137.74L370.787 137.74C368.363 137.74 366.398 138.875 366.397 140.275L366.398 145.321L377.484 145.321C378.337 144.326 380.106 143.642 382.16 143.642C384.226 143.642 386.005 144.335 386.852 145.339L397.537 145.339C398.384 144.335 400.163 143.641 402.23 143.642C405.115 143.642 407.452 144.991 407.453 146.658C407.452 148.324 405.115 149.674 402.228 149.674C400.057 149.674 398.194 148.908 397.408 147.819L387.442 147.819L400.554 155.389C401.08 155.287 401.644 155.229 402.229 155.229C405.114 155.229 407.451 156.579 407.453 158.245C407.452 159.91 405.114 161.261 402.23 161.26C399.343 161.259 397.006 159.91 397.006 158.244C397.007 157.833 397.15 157.439 397.41 157.08L384.176 149.44C383.555 149.59 382.876 149.673 382.16 149.673C379.975 149.673 378.108 148.899 377.326 147.801L366.397 147.8L366.395 164.462C366.396 165.862 368.362 166.997 370.786 166.997L412.875 166.996C415.299 166.996 417.264 165.862 417.265 164.461L417.265 140.275C417.265 138.875 415.299 137.74 412.874 137.74Z" fill="#F05133"/>
<g filter="url(#filter4_f_23296_50116)" style="mix-blend-mode:overlay">
<circle cx="335.751" cy="152.347" r="36.1454" fill="white" style="mix-blend-mode:lighten"/>
</g>
<g filter="url(#filter5_d_23296_50116)">
<path d="M445.067 265.261C435.034 259.469 429.398 251.614 429.398 243.423C429.398 235.232 435.034 227.376 445.067 221.584L482.896 199.746L520.724 221.584C530.757 227.376 536.393 235.232 536.393 243.423C536.393 251.614 530.757 259.469 520.724 265.261C510.691 271.053 497.084 274.307 482.896 274.307C468.707 274.307 455.1 271.053 445.067 265.261V265.261Z" fill="#0ACF83"/>
</g>
<path d="M557.43 205.294L483.407 247.592L408.498 205.293L483.408 161.232L557.43 205.294Z" fill="#6400CA" stroke="url(#paint3_linear_23296_50116)" stroke-width="0.973695"/>
<path d="M483.042 247.943L483.042 294.625L408.008 250.394L408.008 205.028L483.042 247.943Z" fill="#4A0292"/>
<path d="M482.895 247.334L482.895 294.095L558.552 250.435L558.552 205.119L482.895 247.334Z" fill="#3C0077"/>
<g clip-path="url(#clip2_23296_50116)">
<path d="M481.691 184.056C480.97 184.134 480.283 184.292 479.666 184.521C479.032 184.755 478.476 185.052 478.023 185.399C477.548 185.762 477.184 186.169 476.945 186.603L475.911 188.672L474.869 190.742L473.825 192.814L472.795 194.89C472.587 195.349 472.277 195.791 471.875 196.204C471.491 196.608 471.013 196.978 470.454 197.307C469.898 197.635 469.268 197.919 468.58 198.151C467.87 198.389 467.109 198.572 466.316 198.696L462.852 199.287L459.389 199.878L455.929 200.472L452.463 201.064C451.1 201.238 449.891 201.688 449.056 202.334C448.294 202.936 447.874 203.659 447.854 204.403C447.819 205.147 448.186 205.877 448.904 206.495C449.692 207.158 450.872 207.634 452.222 207.833L454.449 208.211L459.346 209.037L464.243 209.863L466.473 210.24C467.262 210.357 468.021 210.533 468.732 210.762C469.423 210.989 470.058 211.268 470.621 211.592C471.184 211.917 471.668 212.285 472.063 212.685C472.495 213.096 472.831 213.538 473.061 214L474.128 216.037L475.186 218.073L476.241 220.106L477.298 222.142C477.466 222.478 477.707 222.801 478.014 223.103C478.305 223.388 478.664 223.648 479.081 223.875C479.494 224.096 479.964 224.279 480.473 224.418C481.002 224.566 481.567 224.666 482.15 224.713C482.874 224.779 483.613 224.768 484.33 224.68C485.049 224.596 485.736 224.441 486.361 224.22C487.005 223.995 487.575 223.705 488.045 223.365C488.533 223.01 488.906 222.606 489.145 222.174L490.23 220.027L491.314 217.882L492.397 215.736L493.479 213.59C492.239 213.707 490.981 213.752 489.725 213.722C488.465 213.691 487.211 213.606 485.973 213.467C484.728 213.33 483.494 213.151 482.28 212.943C481.198 212.759 480.134 212.554 479.088 212.344C480.821 212.648 483.32 212.591 486.212 212.312C489.678 211.942 493.101 211.447 496.46 210.831C500.025 210.202 503.584 209.499 506.682 208.905C509.78 208.312 512.425 207.82 514.147 207.617C515.48 207.419 516.632 206.935 517.367 206.264C518.028 205.629 518.33 204.891 518.231 204.153C518.148 203.393 517.686 202.663 516.899 202.051C516.066 201.406 514.87 200.948 513.517 200.756L509.531 200.093L500.775 198.625L492.019 197.158L488.078 196.503C487.271 196.384 486.455 196.29 485.631 196.22C484.819 196.154 484 196.117 483.18 196.109C482.364 196.101 481.548 196.125 480.737 196.181C479.913 196.237 479.097 196.33 478.297 196.457C479.451 196.208 480.633 195.959 481.828 195.736C483.027 195.508 484.245 195.316 485.478 195.161C486.708 195.005 487.958 194.906 489.215 194.866C490.488 194.827 491.765 194.869 493.022 194.99L491.963 192.904L490.903 190.817L489.844 188.726L488.784 186.64C488.645 186.315 488.425 186.002 488.128 185.714C487.835 185.428 487.474 185.166 487.055 184.938C486.628 184.709 486.145 184.519 485.622 184.372C485.088 184.221 484.515 184.12 483.925 184.073C483.19 183.983 482.43 183.977 481.691 184.056ZM484.809 220.046C485.319 220.303 485.615 220.674 485.62 221.065C485.626 221.456 485.341 221.829 484.838 222.091C483.869 222.66 482.285 222.667 481.3 222.108C480.314 221.548 480.302 220.633 481.271 220.065C481.715 219.769 482.356 219.599 483.033 219.595C483.709 219.592 484.356 219.756 484.809 220.046ZM452.456 205.409C451.946 205.153 451.651 204.782 451.645 204.391C451.639 204 451.924 203.626 452.427 203.365C452.872 203.07 453.513 202.9 454.19 202.896C454.867 202.893 455.515 203.057 455.968 203.348C456.479 203.605 456.774 203.975 456.78 204.366C456.785 204.757 456.501 205.131 455.997 205.392C455.553 205.687 454.91 205.858 454.233 205.861C453.556 205.864 452.909 205.7 452.456 205.409ZM513.63 203.344C514.354 203.754 514.579 204.375 514.2 204.918C513.821 205.461 512.913 205.818 511.899 205.824C510.885 205.829 509.966 205.481 509.57 204.942C509.174 204.403 509.38 203.78 510.091 203.362C510.535 203.067 511.176 202.897 511.853 202.893C512.53 202.89 513.177 203.053 513.63 203.344ZM486.612 201.574C485.236 201.382 484.041 201.686 483.019 202.289C481.656 203.13 481.29 204.359 482.088 205.416C482.886 206.472 484.695 207.153 486.691 207.148C485.429 207.712 483.829 207.961 482.247 207.838C480.666 207.716 479.235 207.233 478.274 206.497C476.367 205.013 476.853 202.723 479.404 201.613C481.619 200.705 484.533 200.59 486.612 201.574ZM484.809 186.558C485.739 187.123 485.726 188.012 484.78 188.568C483.834 189.124 482.295 189.147 481.3 188.621C480.37 188.056 480.383 187.167 481.329 186.611C482.275 186.055 483.814 186.031 484.809 186.558Z" fill="#FF694B"/>
</g>
<g filter="url(#filter6_f_23296_50116)" style="mix-blend-mode:overlay">
<circle cx="426.962" cy="204.388" r="36.1454" fill="white" style="mix-blend-mode:lighten"/>
</g>
<path d="M154.264 292.418L64.0742 239.274" stroke="url(#paint4_linear_23296_50116)" stroke-width="1.66945" stroke-linecap="round" stroke-linejoin="round"/>
<g filter="url(#filter7_f_23296_50116)">
<rect width="139.432" height="175.191" transform="matrix(-1 0 0 1 202.496 59.7686)" fill="url(#paint5_linear_23296_50116)"/>
</g>
<path d="M321.248 223.424L217.91 283.752" stroke="#B970F9" stroke-width="1.66945" stroke-linejoin="round"/>
<path d="M328.322 218.676L325.022 225.785L316.008 220.581L328.322 218.676Z" fill="#9C51F6"/>
<path d="M118.312 166.997C118.554 166.896 118.833 166.915 119.062 167.051L187.254 207.641C187.509 207.792 187.664 208.069 187.661 208.365C187.658 208.662 187.499 208.936 187.241 209.083L119.049 248.05C118.794 248.196 118.48 248.197 118.224 248.053L49.2148 209.085C48.955 208.938 48.7927 208.664 48.79 208.365C48.7875 208.067 48.945 207.79 49.2021 207.639L118.211 167.048L118.312 166.997Z" stroke="#AA50FF" stroke-width="1.66945" stroke-linejoin="round"/>
<path d="M120.044 201.463L51.0351 162.496L120.044 121.905L188.237 162.496L120.044 201.463Z" fill="#8C49FA"/>
<path d="M118.373 172.463L49.3633 133.496L118.373 92.9053L186.565 133.496L118.373 172.463Z" fill="#8C49FA"/>
<path d="M96.2829 133.792L92.1996 131.338L83.2782 129.933L85.0578 128.905L91.6143 130.01L89.8304 126.15L91.6235 125.115L93.8444 130.396L97.921 132.846L96.2829 133.792ZM100.747 131.214L94.5981 123.397L96.3778 122.37L109.524 126.147L107.879 127.097L104.588 126.143L100.853 128.299L102.399 130.261L100.747 131.214ZM99.8031 127.208L102.735 125.515L97.0625 123.83L99.8031 127.208ZM111.159 125.203L101.511 119.406L103.857 118.052L113.784 121.007L108.993 115.086L111.326 113.74L120.974 119.537L119.309 120.498L111.742 115.952L116.74 121.981L115.372 122.771L105.304 119.724L112.824 124.242L111.159 125.203ZM123.337 118.172L113.696 112.371L115.355 111.414L123.601 116.369L128.003 113.827L129.404 114.669L123.337 118.172Z" fill="white"/>
<g clip-path="url(#clip3_23296_50116)">
<path d="M107.786 134.293L111.361 134.324L111.32 139.074L119.383 139.144L119.377 141.257L107.727 141.148L107.786 134.293ZM115.203 130.011L126.841 130.113L126.793 136.976L123.206 136.937L123.247 132.188L115.184 132.117L115.203 130.011ZM131.964 124.183L147.099 133.277C148.499 134.118 148.487 135.447 147.073 136.264L126.684 148.035C125.283 148.844 123.013 148.832 121.613 147.991L116.568 144.96L119.117 143.488L124.162 146.52L144.55 134.748L129.415 125.654L125.631 127.839L123.108 126.324L126.893 124.139C128.307 123.322 130.564 123.342 131.964 124.183Z" fill="white"/>
</g>
<path d="M118.04 172.273V239.183L49.8047 198.96V133.248L118.04 172.273Z" fill="#A570FB"/>
<path d="M186.704 199.513L117.902 239.216V171.719L186.704 133.329V199.513Z" fill="#660BFA"/>
<path d="M83.17 227.69L64.0781 239.274" stroke="#AA50FF" stroke-width="1.66945" stroke-linecap="round" stroke-linejoin="round"/>
<path d="M189.149 382.228L270.266 334.863L188.47 288.482L106.486 335.698L189.149 382.228Z" stroke="#CD88FF" stroke-width="0.834723" stroke-linecap="round" stroke-linejoin="round" stroke-dasharray="3.06 3.06"/>
<g filter="url(#filter8_d_23296_50116)">
<path d="M145.47 338.228C134.458 331.87 128.271 323.248 128.271 314.258C128.271 305.267 134.458 296.645 145.47 290.288L186.991 266.318L228.511 290.288C239.523 296.645 245.71 305.267 245.71 314.258C245.71 323.248 239.523 331.871 228.511 338.228C217.499 344.585 202.564 348.156 186.991 348.156C171.417 348.156 156.482 344.585 145.47 338.228V338.228Z" fill="#0ACF83"/>
</g>
<path d="M268.799 272.406L187.552 318.834L105.331 272.406L187.553 224.046L268.799 272.406Z" fill="#6400CA" stroke="url(#paint6_linear_23296_50116)" stroke-width="1.06873"/>
<path d="M187.151 319.219L187.151 370.458L104.793 321.91L104.793 272.116L187.151 319.219Z" fill="#4A0292"/>
<path d="M186.988 318.551L186.988 369.876L270.03 321.955L270.03 272.216L186.988 318.551Z" fill="#3C0077"/>
<path d="M179.212 269.025C179.212 267.864 180.842 266.922 182.854 266.922L191.124 266.922C193.135 266.922 194.766 267.864 194.766 269.025L194.766 273.8C194.766 274.961 193.135 275.903 191.124 275.903L182.854 275.903C180.842 275.903 179.212 274.961 179.212 273.8V269.025Z" fill="#A950FF"/>
<path d="M198.222 258.011C198.222 256.871 199.824 255.946 201.8 255.946L210.2 255.946C212.175 255.946 213.777 256.871 213.777 258.011L213.777 262.861C213.777 264.001 212.175 264.926 210.2 264.926L201.8 264.926C199.824 264.926 198.222 264.001 198.222 262.861V258.011Z" fill="#A950FF"/>
<path d="M160.201 258.012C160.201 256.871 161.802 255.946 163.778 255.946L172.178 255.946C174.154 255.946 175.755 256.871 175.755 258.012L175.755 262.861C175.755 264.002 174.154 264.927 172.178 264.927L163.778 264.927C161.802 264.927 160.201 264.002 160.201 262.861L160.201 258.012Z" fill="#E9C1FF"/>
<path d="M172.114 266.922C174.125 266.922 175.756 267.863 175.756 269.025L175.756 273.799C175.756 274.961 174.125 275.902 172.114 275.902L163.844 275.902C161.832 275.902 160.202 274.961 160.202 273.799L160.202 269.025C160.202 267.863 161.832 266.922 163.844 266.922L172.114 266.922Z" fill="#CD88FF"/>
<path d="M172.178 277.898C174.154 277.898 175.755 278.822 175.755 279.963L175.755 284.813C175.755 285.953 174.154 286.878 172.178 286.878L163.778 286.878C161.802 286.878 160.201 285.953 160.201 284.813L160.201 279.963C160.201 278.822 161.802 277.898 163.778 277.898L172.178 277.898Z" fill="#A950FF"/>
<path d="M191.124 255.946C193.136 255.946 194.767 256.888 194.767 258.049V262.823C194.767 263.985 193.136 264.926 191.124 264.926L182.855 264.926C180.843 264.926 179.212 263.985 179.212 262.823L179.212 258.049C179.212 256.888 180.843 255.946 182.855 255.946L191.124 255.946Z" fill="#CD88FF"/>
<path d="M206.886 278.201C211.38 278.201 215.024 280.305 215.024 282.9C215.024 285.494 211.38 287.598 206.886 287.598C202.392 287.598 198.748 285.494 198.748 282.9C198.748 280.305 202.392 278.201 206.886 278.201Z" fill="#F62E76"/>
</g>
<defs>
<filter id="filter0_f_23296_50116" x="112.262" y="-30.9262" width="389.849" height="425.608" filterUnits="userSpaceOnUse" color-interpolation-filters="sRGB">
<feFlood flood-opacity="0" result="BackgroundImageFix"/>
<feBlend mode="normal" in="SourceGraphic" in2="BackgroundImageFix" result="shape"/>
<feGaussianBlur stdDeviation="62.6042" result="effect1_foregroundBlur_23296_50116"/>
</filter>
<filter id="filter1_d_23296_50116" x="174.426" y="29.5216" width="253.635" height="221.2" filterUnits="userSpaceOnUse" color-interpolation-filters="sRGB">
<feFlood flood-opacity="0" result="BackgroundImageFix"/>
<feColorMatrix in="SourceAlpha" type="matrix" values="0 0 0 0 0 0 0 0 0 0 0 0 0 0 0 0 0 0 127 0" result="hardAlpha"/>
<feOffset dy="6.0981"/>
<feGaussianBlur stdDeviation="36.6598"/>
<feComposite in2="hardAlpha" operator="out"/>
<feColorMatrix type="matrix" values="0 0 0 0 0.396 0 0 0 0 0 0 0 0 0 0.9 0 0 0 1 0"/>
<feBlend mode="normal" in2="BackgroundImageFix" result="effect1_dropShadow_23296_50116"/>
<feBlend mode="normal" in="SourceGraphic" in2="effect1_dropShadow_23296_50116" result="shape"/>
</filter>
<filter id="filter2_f_23296_50116" x="137.681" y="-6.24758" width="215.264" height="215.265" filterUnits="userSpaceOnUse" color-interpolation-filters="sRGB">
<feFlood flood-opacity="0" result="BackgroundImageFix"/>
<feBlend mode="normal" in="SourceGraphic" in2="BackgroundImageFix" result="shape"/>
<feGaussianBlur stdDeviation="35.7434" result="effect1_foregroundBlur_23296_50116"/>
</filter>
<filter id="filter3_d_23296_50116" x="264.867" y="80.4835" width="253.635" height="221.2" filterUnits="userSpaceOnUse" color-interpolation-filters="sRGB">
<feFlood flood-opacity="0" result="BackgroundImageFix"/>
<feColorMatrix in="SourceAlpha" type="matrix" values="0 0 0 0 0 0 0 0 0 0 0 0 0 0 0 0 0 0 127 0" result="hardAlpha"/>
<feOffset dy="6.0981"/>
<feGaussianBlur stdDeviation="36.6598"/>
<feComposite in2="hardAlpha" operator="out"/>
<feColorMatrix type="matrix" values="0 0 0 0 0.396 0 0 0 0 0 0 0 0 0 0.9 0 0 0 1 0"/>
<feBlend mode="normal" in2="BackgroundImageFix" result="effect1_dropShadow_23296_50116"/>
<feBlend mode="normal" in="SourceGraphic" in2="effect1_dropShadow_23296_50116" result="shape"/>
</filter>
<filter id="filter4_f_23296_50116" x="228.119" y="44.7143" width="215.264" height="215.265" filterUnits="userSpaceOnUse" color-interpolation-filters="sRGB">
<feFlood flood-opacity="0" result="BackgroundImageFix"/>
<feBlend mode="normal" in="SourceGraphic" in2="BackgroundImageFix" result="shape"/>
<feGaussianBlur stdDeviation="35.7434" result="effect1_foregroundBlur_23296_50116"/>
</filter>
<filter id="filter5_d_23296_50116" x="356.078" y="132.525" width="253.635" height="221.2" filterUnits="userSpaceOnUse" color-interpolation-filters="sRGB">
<feFlood flood-opacity="0" result="BackgroundImageFix"/>
<feColorMatrix in="SourceAlpha" type="matrix" values="0 0 0 0 0 0 0 0 0 0 0 0 0 0 0 0 0 0 127 0" result="hardAlpha"/>
<feOffset dy="6.0981"/>
<feGaussianBlur stdDeviation="36.6598"/>
<feComposite in2="hardAlpha" operator="out"/>
<feColorMatrix type="matrix" values="0 0 0 0 0.396 0 0 0 0 0 0 0 0 0 0.9 0 0 0 1 0"/>
<feBlend mode="normal" in2="BackgroundImageFix" result="effect1_dropShadow_23296_50116"/>
<feBlend mode="normal" in="SourceGraphic" in2="effect1_dropShadow_23296_50116" result="shape"/>
</filter>
<filter id="filter6_f_23296_50116" x="319.33" y="96.7553" width="215.264" height="215.265" filterUnits="userSpaceOnUse" color-interpolation-filters="sRGB">
<feFlood flood-opacity="0" result="BackgroundImageFix"/>
<feBlend mode="normal" in="SourceGraphic" in2="BackgroundImageFix" result="shape"/>
<feGaussianBlur stdDeviation="35.7434" result="effect1_foregroundBlur_23296_50116"/>
</filter>
<filter id="filter7_f_23296_50116" x="-62.1441" y="-65.4398" width="389.849" height="425.608" filterUnits="userSpaceOnUse" color-interpolation-filters="sRGB">
<feFlood flood-opacity="0" result="BackgroundImageFix"/>
<feBlend mode="normal" in="SourceGraphic" in2="BackgroundImageFix" result="shape"/>
<feGaussianBlur stdDeviation="62.6042" result="effect1_foregroundBlur_23296_50116"/>
</filter>
<filter id="filter8_d_23296_50116" x="47.7959" y="192.536" width="278.389" height="242.79" filterUnits="userSpaceOnUse" color-interpolation-filters="sRGB">
<feFlood flood-opacity="0" result="BackgroundImageFix"/>
<feColorMatrix in="SourceAlpha" type="matrix" values="0 0 0 0 0 0 0 0 0 0 0 0 0 0 0 0 0 0 127 0" result="hardAlpha"/>
<feOffset dy="6.69327"/>
<feGaussianBlur stdDeviation="40.2378"/>
<feComposite in2="hardAlpha" operator="out"/>
<feColorMatrix type="matrix" values="0 0 0 0 0.396 0 0 0 0 0 0 0 0 0 0.9 0 0 0 1 0"/>
<feBlend mode="normal" in2="BackgroundImageFix" result="effect1_dropShadow_23296_50116"/>
<feBlend mode="normal" in="SourceGraphic" in2="effect1_dropShadow_23296_50116" result="shape"/>
</filter>
<linearGradient id="paint0_linear_23296_50116" x1="69.7159" y1="0" x2="69.7159" y2="175.191" gradientUnits="userSpaceOnUse">
<stop stop-color="#6218FF" stop-opacity="0"/>
<stop offset="1" stop-color="#5708FF"/>
</linearGradient>
<linearGradient id="paint1_linear_23296_50116" x1="248.606" y1="73.9052" x2="311.873" y2="182.831" gradientUnits="userSpaceOnUse">
<stop offset="0.015625" stop-color="#B010FB"/>
<stop offset="0.130208" stop-color="#DE97FF"/>
<stop offset="0.234375" stop-color="#A227DB"/>
<stop offset="0.505208" stop-color="#A227DB" stop-opacity="0"/>
<stop offset="0.765625" stop-color="#A610EC" stop-opacity="0.84"/>
</linearGradient>
<linearGradient id="paint2_linear_23296_50116" x1="339.044" y1="124.867" x2="402.311" y2="233.793" gradientUnits="userSpaceOnUse">
<stop offset="0.015625" stop-color="#B010FB"/>
<stop offset="0.130208" stop-color="#DE97FF"/>
<stop offset="0.234375" stop-color="#A227DB"/>
<stop offset="0.505208" stop-color="#A227DB" stop-opacity="0"/>
<stop offset="0.765625" stop-color="#A610EC" stop-opacity="0.84"/>
</linearGradient>
<linearGradient id="paint3_linear_23296_50116" x1="430.255" y1="176.908" x2="493.521" y2="285.834" gradientUnits="userSpaceOnUse">
<stop offset="0.015625" stop-color="#B010FB"/>
<stop offset="0.130208" stop-color="#DE97FF"/>
<stop offset="0.234375" stop-color="#A227DB"/>
<stop offset="0.505208" stop-color="#A227DB" stop-opacity="0"/>
<stop offset="0.765625" stop-color="#A610EC" stop-opacity="0.84"/>
</linearGradient>
<linearGradient id="paint4_linear_23296_50116" x1="81.4591" y1="244.475" x2="141.542" y2="283.327" gradientUnits="userSpaceOnUse">
<stop stop-color="#AA50FF"/>
<stop offset="1" stop-color="white"/>
</linearGradient>
<linearGradient id="paint5_linear_23296_50116" x1="69.7159" y1="0" x2="69.7159" y2="175.191" gradientUnits="userSpaceOnUse">
<stop stop-color="#6218FF" stop-opacity="0"/>
<stop offset="1" stop-color="#6117FF"/>
</linearGradient>
<linearGradient id="paint6_linear_23296_50116" x1="129.212" y1="241.251" x2="198.653" y2="360.808" gradientUnits="userSpaceOnUse">
<stop offset="0.015625" stop-color="#B010FB"/>
<stop offset="0.130208" stop-color="#DE97FF"/>
<stop offset="0.234375" stop-color="#A227DB"/>
<stop offset="0.505208" stop-color="#A227DB" stop-opacity="0"/>
<stop offset="0.765625" stop-color="#A610EC" stop-opacity="0.84"/>
</linearGradient>
<clipPath id="clip0_23296_50116">
<rect width="603.494" height="450" fill="white"/>
</clipPath>
<clipPath id="clip1_23296_50116">
<rect width="54.3705" height="54.3705" fill="white" transform="matrix(0.866025 -0.5 0.866025 0.5 254.156 102.117)"/>
</clipPath>
<clipPath id="clip2_23296_50116">
<rect width="61.3635" height="61.3635" fill="white" transform="matrix(0.866025 -0.5 0.866025 0.5 429.898 204.367)"/>
</clipPath>
<clipPath id="clip3_23296_50116">
<rect width="35.3136" height="35.3136" fill="white" transform="matrix(0.866025 -0.5 0.857167 0.515038 96.3633 135.821)"/>
</clipPath>
</defs>
</svg>
