<svg width="13" height="8" viewBox="0 0 13 8" fill="none" xmlns="http://www.w3.org/2000/svg">
<path d="M3.27214 0.666626H1.9388C1.58518 0.666626 1.24604 0.807102 0.995993 1.05715C0.745944 1.3072 0.605469 1.64634 0.605469 1.99996V7.33329H1.9388V4.66663H3.27214V7.33329H4.60547V1.99996C4.60547 1.64634 4.46499 1.3072 4.21494 1.05715C3.9649 0.807102 3.62576 0.666626 3.27214 0.666626ZM3.27214 3.33329H1.9388V1.99996H3.27214M7.9388 0.666626H5.27214V7.33329H6.60547V4.66663H7.9388C8.29242 4.66663 8.63156 4.52615 8.88161 4.2761C9.13166 4.02605 9.27214 3.68691 9.27214 3.33329V1.99996C9.27214 1.64634 9.13166 1.3072 8.88161 1.05715C8.63156 0.807102 8.29242 0.666626 7.9388 0.666626ZM7.9388 3.33329H6.60547V1.99996H7.9388M11.9388 1.99996V5.99996H12.6055V7.33329H9.9388V5.99996H10.6055V1.99996H9.9388V0.666626H12.6055V1.99996H11.9388Z" fill="url(#paint0_linear_5980_4392)"/>
<defs>
<linearGradient id="paint0_linear_5980_4392" x1="2.41345" y1="1.90425" x2="7.13015" y2="10.3803" gradientUnits="userSpaceOnUse">
<stop offset="0.015625" stop-color="#F2D5FF"/>
<stop offset="1" stop-color="#CB5AFF"/>
</linearGradient>
</defs>
</svg>
