<svg width="58" height="58" viewBox="0 0 58 58" fill="none" xmlns="http://www.w3.org/2000/svg">
    <path fill-rule="evenodd" clip-rule="evenodd" d="M0.605469 0.0576172H57.6055V57.0576H0.605469V0.0576172Z" fill="url(#paint0_linear_7920_13014)"/>
    <path fill-rule="evenodd" clip-rule="evenodd" d="M37.7296 38.5326L37.6555 19.9335L19.1305 20.0076V38.6067L37.7296 38.5326ZM39.0805 20.0076H41.9305V21.4326H39.0805V24.2826H41.9305V25.7076H39.0805V28.5576H41.9305V29.9826H39.0805V32.8326H41.9305V34.2576H39.0805V37.1076H41.9305V38.5326H39.0805V38.6067C39.0797 38.9648 38.9372 39.3079 38.684 39.5611C38.4308 39.8143 38.0876 39.9569 37.7296 39.9576H37.6555V42.8076H36.2305V39.9576H33.3805V42.8076H31.9555V39.9576H29.1055V42.8076H27.6805V39.9576H24.8305V42.8076H23.4055V39.9576H20.5555V42.8076H19.1305V39.9576H19.0564C18.6983 39.9569 18.3552 39.8143 18.102 39.5611C17.8488 39.3079 17.7062 38.9648 17.7055 38.6067V38.5326H14.8555V37.1076H17.7055V34.2576H14.8555V32.8326H17.7055V29.9826H14.8555V28.5576H17.7055V25.7076H14.8555V24.2826H17.7055V21.4326H14.8555V20.0076H17.7055V19.9335C17.7062 19.5755 17.8488 19.2323 18.102 18.9791C18.3552 18.7259 18.6983 18.5834 19.0564 18.5826H19.1305V15.7326H20.5555V18.5826H23.4055V15.7326H24.8305V18.5826H27.6805V15.7326H29.1055V18.5826H31.9555V15.7326H33.3805V18.5826H36.2305V15.7326H37.6555V18.5826H37.7296C38.0876 18.5834 38.4308 18.7259 38.684 18.9791C38.9372 19.2323 39.0797 19.5755 39.0805 19.9335V20.0076ZM30.5305 47.0826H10.5805V27.1326H13.4305V25.7076H10.6688C9.83519 25.7076 9.15547 26.3873 9.15547 27.221V46.9943C9.15547 47.8279 9.83519 48.5076 10.6688 48.5076H30.4435C31.2772 48.5076 31.9555 47.8279 31.9555 46.9943V44.2326H30.5305V47.0826ZM49.0555 10.121V29.8943C49.0555 30.7279 48.3772 31.4076 47.5435 31.4076H43.3555V29.9826H47.6305V10.0326H27.6805V14.3076H26.2555V10.121C26.2555 9.28734 26.9352 8.60762 27.7688 8.60762H47.5435C48.3772 8.60762 49.0555 9.28734 49.0555 10.121Z" fill="white"/>
    <defs>
        <linearGradient id="paint0_linear_7920_13014" x1="0.605469" y1="5700.06" x2="5700.61" y2="0.0576172" gradientUnits="userSpaceOnUse">
            <stop stop-color="#C8511B"/>
            <stop offset="1" stop-color="#FF9900"/>
        </linearGradient>
    </defs>
</svg>
