<svg width="512" height="512" viewBox="0 0 512 512" fill="none" xmlns="http://www.w3.org/2000/svg">
<g clip-path="url(#clip0_401_3)">
<path d="M449.1 105.9L287.5 9.89999C268.2 -1.60001 244.4 -1.60001 225.1 9.89999L63.5 105.9C44.2 117.3 32.3 138.5 32.3 161.4V353.3C32.3 376.2 44.2 397.4 63.5 408.8L225.1 504.7C234.7 510.4 245.5 513.3 256.3 513.3C267.1 513.3 277.8 510.4 287.5 504.7L449.1 408.8C468.4 397.3 480.3 376.2 480.3 353.3V161.4C480.3 138.5 468.4 117.3 449.1 105.9Z" fill="white"/>
<path d="M449.1 105.9L287.5 9.89999C277.9 4.19999 267.1 1.29999 256.3 1.29999C245.5 1.29999 234.8 4.19999 225.1 9.89999L63.5 105.9C44.2 117.3 32.3 138.5 32.3 161.4V353.3C32.3 376.2 44.2 397.4 63.5 408.8L225.1 504.7C234.7 510.4 245.5 513.3 256.3 513.3C267.1 513.3 277.8 510.4 287.5 504.7L449.1 408.8C468.4 397.3 480.3 376.2 480.3 353.3V161.4C480.3 138.5 468.4 117.3 449.1 105.9ZM230.8 494.9L69.2 399C53.4 389.6 43.6 372.1 43.6 353.3V161.4C43.6 142.6 53.4 125.1 69.2 115.7L230.8 19.8C238.6 15.2 247.4 12.8 256.3 12.8C265.2 12.8 274.1 15.2 281.8 19.8L443.4 115.7C456.7 123.6 465.7 137.3 468.2 152.7C462.8 141.3 450.8 138.1 436.7 146.4L283.8 240.9C264.7 252 250.7 264.6 250.7 287.5V475.9C250.7 489.7 256.2 498.6 264.8 501.2C262 501.7 259.2 502 256.3 502C247.4 501.9 238.5 499.5 230.8 494.9Z" fill="#283037"/>
<path d="M406.8 371.8L366.5 395.9C365.4 396.5 364.6 397.2 364.6 398.5V409C364.6 410.3 365.5 410.8 366.5 410.2L407.4 385.4C408.5 384.8 408.6 383.6 408.6 382.3V373C408.7 371.7 407.8 371.2 406.8 371.8Z" fill="#4DA825"/>
<path d="M321.1 283.2C322.4 282.5 323.5 283.4 323.5 285.1L323.6 299C329.4 296.7 334.5 296.1 339.1 297.1C340.1 297.4 340.5 298.7 340.1 300.3L337 312.6C336.8 313.5 336.2 314.5 335.6 315.1C335.3 315.4 335.1 315.6 334.8 315.7C334.4 315.9 334 316 333.6 315.9C331.5 315.4 326.5 314.3 318.7 318.3C310.5 322.5 307.6 329.6 307.7 334.9C307.8 341.2 311 343.2 322.2 343.3C337.1 343.5 343.6 350.1 343.7 365.1C343.9 379.9 336 395.7 323.9 405.5L324.2 419.3C324.2 421 323.1 422.9 321.8 423.5L313.6 428.2C312.3 428.9 311.2 428.1 311.2 426.4L311.1 412.8C304.1 415.7 297 416.4 292.5 414.6C291.6 414.3 291.3 413 291.6 411.6L294.6 399.1C294.8 398.1 295.4 397.1 296.1 396.5C296.4 396.3 296.6 396.1 296.9 395.9C297.4 395.7 297.8 395.6 298.2 395.8C303.1 397.4 309.3 396.7 315.3 393.6C322.9 389.7 328 382 327.9 374.2C327.8 367.2 324 364.3 314.8 364.2C303.1 364.2 292.1 361.9 291.9 344.6C291.8 330.4 299.2 315.6 310.9 306.2L310.8 292.3C310.8 290.6 311.8 288.7 313.2 288L321.1 283.2Z" fill="white"/>
</g>
<defs>
<clipPath id="clip0_401_3">
<rect width="512" height="512" fill="white"/>
</clipPath>
</defs>
</svg>
