<svg xmlns="http://www.w3.org/2000/svg" width="154" height="42" viewBox="0 0 154 42" aria-hidden="true" focusable="false"><g fill="#f0424d" class="logo-ceph__icon"><path d="M35 38c-1.4-.8-2.3-1.7-2.5-2.7s.2-2 1.3-3.3A16.2 16.2 0 0021.6 5.2h-.1A16.2 16.2 0 009.2 32c1.1 1.3 1.5 2.3 1.4 3.2S9.5 37.2 8 38a22.8 22.8 0 01-5.7-7.2A21.3 21.3 0 010 21.4 21.4 21.4 0 0121.5 0h.1A21.4 21.4 0 0143 21.4a21.6 21.6 0 01-.6 4.9 21 21 0 01-1.6 4.5 22.7 22.7 0 01-5.7 7.2"></path><path d="M27.2 42a8 8 0 01-2-2 8.7 8.7 0 01-1.6-5.3 11.8 11.8 0 01.9-4.2 12 12 0 012.3-3.7l.2-.2a10.3 10.3 0 001-1.4 7 7 0 001-2 7.5 7.5 0 00-6.3-9.2 7.3 7.3 0 00-1.1 0h-.1a7.4 7.4 0 00-4 1 7.5 7.5 0 00-2.2 2 7.5 7.5 0 00-1.2 6.2 7.2 7.2 0 00.8 2 9.7 9.7 0 001.1 1.4l.2.3a11.9 11.9 0 012.3 3.6 11.8 11.8 0 011 4.2 8.8 8.8 0 01-1.8 5.4 8 8 0 01-1.9 1.9l-1.2-.4A21.3 21.3 0 0111 40a6 6 0 003.2-5.3 6.4 6.4 0 00-1.7-4.2l-.3-.4-.9-1a12.8 12.8 0 01-.2-15 13 13 0 013.7-3.5 12.8 12.8 0 015-1.8 13.3 13.3 0 011.7-.2h.2a13.4 13.4 0 011.8.2 12.8 12.8 0 014.9 1.8A13 13 0 0132 14a12.7 12.7 0 01-.2 15l-.9 1-.3.4a6.5 6.5 0 00-1.7 4.3 6 6 0 003.1 5.4 21.4 21.4 0 01-3.6 1.5l-1.2.4"></path><path d="M21.5 25.8a4.2 4.2 0 114.2-4.2 4.2 4.2 0 01-4.2 4.2"></path></g><g fill="#3b434a" class="logo-ceph__text"><path d="M75.6 26.4c0 5.5-.5 7-1.8 8.4-.8.8-2 1.3-4.3 1.3h-8.2c-2.6 0-4.2-.4-5.3-1.5-1.7-1.8-2.2-3.8-2.2-11.8s.5-10 2.2-11.8c1-1 2.7-1.5 5.3-1.5h8c2.5 0 3.6.5 4.4 1.3 1.3 1.3 1.8 3 1.8 8h-5c-.1-3.5-.3-4-.6-4.3s-.6-.5-1.8-.5H62c-1.5 0-2 .1-2.3.5-.5.5-.7 1.5-.7 8.3s.2 7.7.7 8.2c.4.4.8.5 2.3.5h6.2c1.1 0 1.6 0 2-.4s.5-1.4.5-4.7h5M84.3 20.4h12.2c0-4.5-.3-5.5-.8-6-.3-.3-.7-.5-2.3-.5h-6c-1.6 0-2 .2-2.4.6s-.6 1.3-.7 5.9zm0 4c0 5.3.4 6.3.8 6.7s.7.5 2.2.5h7c1 0 1.4-.2 1.7-.5s.4-1 .5-3.3h5c0 4.2-.4 5.6-1.8 7-.8.8-2 1.3-4.3 1.3h-8.7c-2.6 0-4.2-.4-5.3-1.5-1.7-1.7-2.2-3.8-2.2-11.8s.5-10 2.2-11.8c1.1-1 2.7-1.5 5.3-1.5H94c2.6 0 4.3.5 5.3 1.4 1.7 1.8 2.2 3.8 2.2 11.6V24c0 .4-.1.6-.6.6H84.3M121.6 31c-.4.4-1 .6-2.7.6H115a10.1 10.1 0 01-4.8-1.5l-.3-.1V15.5a10.7 10.7 0 015-1.5h4c1.6 0 2.2.2 2.7.6.7.8 1 2.2 1 8.2s-.2 7.4-1 8.1zm-1.5-21.6h-3.6c-2.2 0-3.3.5-6.6 3.3V9.4h-5.2V42h5.2v-9c3.3 2.7 4.4 3.2 6.6 3.2h3.6c2.9 0 4.3-.5 5.5-1.6 1.4-1.5 2-3.5 2-11.8s-.6-10.3-2-11.8c-1.2-1.1-2.6-1.6-5.5-1.6M152.4 11c-1-1-2.3-1.6-4.6-1.6h-4.2c-2.2 0-3.3.5-6.7 3.3V2.5a18.8 18.8 0 00-5-2v35.6h5V15.5l1.1-.5a9.1 9.1 0 014-1h3.4c1.7 0 2.2.2 2.8.7a3.4 3.4 0 01.6 2.6V36h5.2V17c0-3.7-.6-5-1.6-6"></path></g></svg>
