<svg width="22" height="22" viewBox="0 0 22 22" fill="none" xmlns="http://www.w3.org/2000/svg">
<path d="M20.4004 6.4998C21.2004 7.2998 21.2004 8.5998 20.4004 9.2998L17.6004 12.0998L9.80039 4.2998L12.6004 1.4998C13.4004 0.699805 14.7004 0.699805 15.4004 1.4998L17.2004 3.2998L20.2004 0.299805L21.6004 1.6998L18.6004 4.6998L20.4004 6.4998ZM14.6004 12.2998L13.2004 10.8998L10.4004 13.6998L8.30039 11.5998L11.1004 8.7998L9.70039 7.3998L6.90039 10.1998L5.40039 8.7998L2.60039 11.5998C1.80039 12.3998 1.80039 13.6998 2.60039 14.3998L4.40039 16.1998L0.400391 20.1998L1.80039 21.5998L5.80039 17.5998L7.60039 19.3998C8.40039 20.1998 9.70039 20.1998 10.4004 19.3998L13.2004 16.5998L11.8004 15.1998L14.6004 12.2998Z" fill="url(#paint0_linear_7971_14223)"/>
<defs>
<linearGradient id="paint0_linear_7971_14223" x1="3.59449" y1="4.25402" x2="21.3275" y2="21.8746" gradientUnits="userSpaceOnUse">
<stop offset="0.015625" stop-color="#F2D5FF"/>
<stop offset="1" stop-color="#CB5AFF"/>
</linearGradient>
</defs>
</svg>
