<svg width="15" height="16" viewBox="0 0 15 16" fill="none" xmlns="http://www.w3.org/2000/svg">
<path d="M7.60482 3.99996C8.66568 3.99996 9.6831 4.42139 10.4332 5.17153C11.1834 5.92168 11.6048 6.93909 11.6048 7.99996C11.6048 9.47996 10.7982 10.7733 9.60482 11.4666V12.6666C9.60482 12.8434 9.53458 13.013 9.40956 13.138C9.28453 13.2631 9.11496 13.3333 8.93815 13.3333H6.27148C6.09467 13.3333 5.9251 13.2631 5.80008 13.138C5.67506 13.013 5.60482 12.8434 5.60482 12.6666V11.4666C4.41148 10.7733 3.60482 9.47996 3.60482 7.99996C3.60482 6.93909 4.02625 5.92168 4.77639 5.17153C5.52654 4.42139 6.54395 3.99996 7.60482 3.99996ZM8.93815 14V14.6666C8.93815 14.8434 8.86791 15.013 8.74289 15.138C8.61786 15.2631 8.4483 15.3333 8.27148 15.3333H6.93815C6.76134 15.3333 6.59177 15.2631 6.46675 15.138C6.34172 15.013 6.27148 14.8434 6.27148 14.6666V14H8.93815ZM12.9382 7.33329H14.9382V8.66663H12.9382V7.33329ZM0.271484 7.33329H2.27148V8.66663H0.271484V7.33329ZM8.27148 0.666626V2.66663H6.93815V0.666626H8.27148ZM2.88482 2.33329L4.30482 3.75996L3.35815 4.69996L1.93815 3.28663L2.88482 2.33329ZM10.9048 3.75329L12.3182 2.33329L13.2715 3.28663L11.8515 4.69996L10.9048 3.75329Z" fill="url(#paint0_linear_5959_36255)"/>
<defs>
<linearGradient id="paint0_linear_5959_36255" x1="2.48124" y1="3.3894" x2="14.692" y2="15.58" gradientUnits="userSpaceOnUse">
<stop offset="0.015625" stop-color="#F2D5FF"/>
<stop offset="1" stop-color="#CB5AFF"/>
</linearGradient>
</defs>
</svg>
