<svg width="80" height="81" viewBox="0 0 80 81" fill="none" xmlns="http://www.w3.org/2000/svg">
<rect width="80" height="80" transform="translate(0 0.057373)" fill="white"/>
<path fill-rule="evenodd" clip-rule="evenodd" d="M40.0033 57.5386V68.552V68.5574C58.6813 68.5574 73.193 50.5366 67.0834 30.9609C64.4347 22.4341 57.6339 15.6512 49.084 12.9704C29.5332 6.86616 11.5 21.3992 11.5 40.0363H22.5223C22.5223 28.3425 34.1234 19.2992 46.4353 23.7558C48.6969 24.5803 50.7509 25.8893 52.4533 27.5912C54.1558 29.293 55.4656 31.3465 56.2909 33.6078C60.7795 45.9203 51.7172 57.4896 40.0318 57.5084V46.5573H29.0452V57.5386H20.579V50.4671H13.5021V57.5386H20.579V65.9995H29.0452V57.5386H40.0033Z" fill="#0080FF"/>
</svg>
