<svg width="58" height="40" viewBox="0 0 58 40" fill="none" xmlns="http://www.w3.org/2000/svg">
    <path d="M32.3639 15.7828H38.2681H32.3639ZM25.335 15.7828H31.2393H25.335ZM18.4467 15.7828H24.351H18.4467ZM11.5585 15.7828H17.3221H11.5585ZM4.52961 15.7828H10.4338H4.52961ZM11.5585 9.31623H17.3221H11.5585ZM18.4467 9.31623H24.351H18.4467ZM25.335 9.31623H31.2393H25.335ZM25.335 2.84968H31.2393H25.335Z" fill="black"/>
    <path fill-rule="evenodd" clip-rule="evenodd" d="M31.2393 5.52064H25.335V0.178711H31.2393V5.52064ZM17.3221 11.9872H11.5585V6.64526H17.3221V11.9872ZM24.351 11.9872H18.4467V6.64526H24.351V11.9872ZM31.2393 11.9872H25.335V6.64526H31.2393V11.9872ZM10.4338 18.4537H4.52961V13.1118H10.4338V18.4537ZM17.3221 18.4537H11.5585V13.1118H17.3221V18.4537ZM24.351 18.4537H18.4467V13.1118H24.351V18.4537ZM31.2393 18.4537H25.335V13.1118H31.2393V18.4537ZM38.2681 18.4537H32.3639V13.1118H38.2681V18.4537Z" fill="#066DA5"/>
    <path d="M57.1055 16.0639C57.1055 16.0639 54.5751 13.6741 49.3737 14.5176C48.8114 10.4408 44.4535 8.05103 44.4535 8.05103C44.4535 8.05103 40.3768 12.9712 43.3289 18.4537C42.4854 18.8755 41.0797 19.4378 38.971 19.4378H0.31229C-0.390595 22.1088 -0.390595 39.8215 19.0091 39.8215C32.9262 39.8215 43.3289 33.3549 48.2491 21.5464C55.5591 22.1088 57.1055 16.0639 57.1055 16.0639Z" fill="#066DA5"/>
</svg>
