<svg width="24" height="24" viewBox="0 0 24 24" fill="none" xmlns="http://www.w3.org/2000/svg">
<path d="M7.33938 6.40977L0.859375 12.8998L7.34937 19.3798L13.8394 12.8998L7.33938 6.40977ZM3.68937 12.8998L7.34937 9.23977L10.9994 12.8998L7.33938 16.5598L3.68937 12.8998ZM19.3594 6.63977C17.6094 4.87977 15.2994 3.99977 12.9994 3.99977V0.759766L8.75938 4.99977L12.9994 9.23977V5.99977C14.7894 5.99977 16.5794 6.67977 17.9494 8.04977C20.6794 10.7798 20.6794 15.2198 17.9494 17.9498C16.5794 19.3198 14.7894 19.9998 12.9994 19.9998C12.0294 19.9998 11.0594 19.7898 10.1594 19.3898L8.66937 20.8798C9.99937 21.6198 11.4994 21.9998 12.9994 21.9998C15.2994 21.9998 17.6094 21.1198 19.3594 19.3598C22.8794 15.8498 22.8794 10.1498 19.3594 6.63977Z" fill="url(#paint0_linear_7971_14228)"/>
<defs>
<linearGradient id="paint0_linear_7971_14228" x1="4.04443" y1="4.70284" x2="21.7275" y2="22.2736" gradientUnits="userSpaceOnUse">
<stop offset="0.015625" stop-color="#F2D5FF"/>
<stop offset="1" stop-color="#CB5AFF"/>
</linearGradient>
</defs>
</svg>
