<svg width="15" height="15" viewBox="0 0 15 15" fill="none" xmlns="http://www.w3.org/2000/svg">
<path d="M11.6061 8.99992H3.60612L0.939453 11.6666V0.999919C0.939453 0.823108 1.00969 0.653538 1.13472 0.528514C1.25974 0.40349 1.42931 0.333252 1.60612 0.333252H11.6061C11.7829 0.333252 11.9525 0.40349 12.0775 0.528514C12.2025 0.653538 12.2728 0.823108 12.2728 0.999919V8.33325C12.2728 8.51006 12.2025 8.67963 12.0775 8.80466C11.9525 8.92968 11.7829 8.99992 11.6061 8.99992ZM14.9395 4.99992V14.3333L12.2728 11.6666H4.93945C4.76264 11.6666 4.59307 11.5963 4.46805 11.4713C4.34302 11.3463 4.27279 11.1767 4.27279 10.9999V10.3333H13.6061V4.33325H14.2728C14.4496 4.33325 14.6192 4.40349 14.7442 4.52851C14.8692 4.65354 14.9395 4.82311 14.9395 4.99992ZM5.06612 1.66659C4.48612 1.66659 4.01945 1.79992 3.65945 2.05992C3.31279 2.33325 3.13945 2.71325 3.14612 3.23992L3.15279 3.25992H4.43945C4.44612 3.05992 4.50612 2.90659 4.62612 2.79992C4.74612 2.69992 4.89279 2.64659 5.06612 2.64659C5.27279 2.64659 5.44612 2.71325 5.56612 2.83325C5.68612 2.95992 5.73945 3.13325 5.73945 3.33325C5.73945 3.54659 5.69279 3.72659 5.58612 3.87992C5.49279 4.03325 5.35279 4.16659 5.17945 4.27325C4.83945 4.49992 4.60612 4.69992 4.47945 4.87992C4.34612 5.05325 4.27279 5.33325 4.27279 5.66659H5.60612C5.60612 5.45992 5.63279 5.29325 5.69279 5.17325C5.75279 5.05325 5.86612 4.93325 6.03279 4.82659C6.33279 4.66659 6.57945 4.47325 6.77279 4.20659C6.96612 3.93992 7.06612 3.66659 7.06612 3.33325C7.06612 2.82659 6.88612 2.41992 6.52612 2.11992C6.17279 1.81992 5.68612 1.66659 5.06612 1.66659ZM4.27279 6.33325V7.66659H5.60612V6.33325H4.27279ZM8.27279 7.66659H9.60612V6.33325H8.27279V7.66659ZM8.27279 1.66659V5.66659H9.60612V1.66659H8.27279Z" fill="url(#paint0_linear_5980_4446)"/>
<defs>
<linearGradient id="paint0_linear_5980_4446" x1="3.04876" y1="2.93227" x2="14.7045" y2="14.5687" gradientUnits="userSpaceOnUse">
<stop offset="0.015625" stop-color="#F2D5FF"/>
<stop offset="1" stop-color="#CB5AFF"/>
</linearGradient>
</defs>
</svg>
