<svg width="58" height="46" viewBox="0 0 58 46" fill="none" xmlns="http://www.w3.org/2000/svg">
    <path d="M38.5131 12.7086L43.4678 7.75385L43.798 5.66756C34.7691 -2.54244 20.4165 -1.61152 12.2772 7.61002C10.0164 10.1712 8.33913 13.3643 7.44472 16.6617L9.21929 16.4116L19.1286 14.7775L19.8937 13.9951C24.3016 9.15414 31.7546 8.50287 36.844 12.6218L38.5131 12.7086Z" fill="#EA4335"/>
    <path d="M50.5261 16.516C49.3872 12.322 47.049 8.55163 43.798 5.66756L36.844 12.6218C39.7804 15.0211 41.4533 18.6356 41.3816 22.4268V23.6612C44.7996 23.6612 47.5707 26.4322 47.5707 29.8502C47.5707 33.2684 44.7996 35.9699 41.3816 35.9699H28.9861L27.769 37.2911V44.7145L28.9861 45.8792H41.3816C50.2722 45.9485 57.5357 38.8669 57.605 29.9762C57.6468 24.5873 54.9899 19.5352 50.5261 16.516Z" fill="#4285F4"/>
    <path d="M16.6078 45.8793L28.9861 45.8792V35.9699L16.6078 35.9698C15.7259 35.9696 14.8718 35.7801 14.0698 35.4136L12.3137 35.9524L7.32419 40.9072L6.88957 42.5936C9.68769 44.7064 13.1017 45.8945 16.6078 45.8793Z" fill="#34A853"/>
    <path d="M16.6078 13.7344C7.71696 13.7874 0.552769 21.038 0.605761 29.9286C0.635374 34.8934 2.95412 39.567 6.88957 42.5936L14.0698 35.4136C10.9546 34.0062 9.57035 30.3401 10.9778 27.2251C12.3849 24.1102 16.0512 22.7259 19.1659 24.1331C20.5386 24.7532 21.6379 25.8527 22.258 27.2251L29.4382 20.0451C26.3831 16.0513 21.6361 13.7163 16.6078 13.7344Z" fill="#FBBC05"/>
</svg>
