<svg width="14" height="15" viewBox="0 0 14 15" fill="none" xmlns="http://www.w3.org/2000/svg">
<path d="M7.93845 10.9999V9.66659L5.27179 11.9999L7.93845 14.3333V12.9999H9.93845V10.9999H7.93845ZM13.2718 9.33325L10.6051 6.99992V8.33325H8.60512V10.3333H10.6051V11.6666L13.2718 9.33325ZM13.0451 4.81992L11.7118 2.51325C11.6318 2.36659 11.4585 2.30659 11.3051 2.36659L9.64512 3.03325C9.30512 2.75992 8.93845 2.53992 8.51845 2.36659L8.27179 0.613252C8.24512 0.453252 8.10512 0.333252 7.93845 0.333252H5.27179C5.10512 0.333252 4.96512 0.453252 4.93845 0.613252L4.69179 2.37992C4.27179 2.55325 3.91179 2.77325 3.56512 3.04659L1.93845 2.36659C1.78512 2.30659 1.60512 2.36659 1.53179 2.51325L0.198452 4.81992C0.111786 4.95992 0.145119 5.14659 0.271786 5.24659L1.65179 6.33325C1.62512 6.55325 1.60512 6.77992 1.60512 6.99992C1.60512 7.21992 1.62512 7.44659 1.65179 7.66659L0.245119 8.75325C0.111786 8.85325 0.0784523 9.03992 0.165119 9.17992L1.49845 11.4866C1.57179 11.6666 1.76512 11.7399 1.93845 11.6666L3.60512 10.9999C3.76512 11.1266 3.93845 11.2466 4.11179 11.3533L6.45179 9.35325C5.16512 9.26659 4.19179 8.15325 4.27179 6.86659C4.37179 5.57992 5.48512 4.60659 6.77179 4.69992C7.73179 4.75992 8.55179 5.41325 8.83845 6.33325H11.5585L12.9651 5.24659C13.0918 5.14659 13.1251 4.95992 13.0451 4.81992Z" fill="url(#paint0_linear_5980_4442)"/>
<defs>
<linearGradient id="paint0_linear_5980_4442" x1="2.09913" y1="2.93227" x2="13.7311" y2="13.8437" gradientUnits="userSpaceOnUse">
<stop offset="0.015625" stop-color="#F2D5FF"/>
<stop offset="1" stop-color="#CB5AFF"/>
</linearGradient>
</defs>
</svg>
