<svg width="81" height="80" viewBox="0 0 81 80" fill="none" xmlns="http://www.w3.org/2000/svg">
<path d="M40.4079 12.3516C39.904 12.3769 39.4103 12.5019 38.9557 12.719L19.1397 22.1873C18.6268 22.4323 18.1762 22.7887 17.8212 23.23C17.4663 23.6714 17.2161 24.1865 17.0894 24.7369L12.2007 46.0051C12.0878 46.4951 12.0751 47.0026 12.1635 47.4975C12.2519 47.9925 12.4395 48.4648 12.7151 48.8866C12.782 48.9897 12.8539 49.0895 12.9306 49.1857L26.6464 66.2392C27.0014 66.6805 27.4521 67.0368 27.965 67.2816C28.4779 67.5264 29.0398 67.6535 29.6091 67.6534L51.6046 67.6483C52.1736 67.6487 52.7354 67.5221 53.2483 67.2777C53.7611 67.0333 54.212 66.6775 54.5672 66.2367L68.278 49.1806C68.6332 48.7391 68.8835 48.2239 69.0103 47.6732C69.1371 47.1226 69.1372 46.5507 69.0104 46L64.1141 24.7318C63.9874 24.1814 63.7372 23.6664 63.3823 23.225C63.0273 22.7836 62.5767 22.4272 62.0638 22.1823L42.2453 12.719C41.6735 12.4459 41.0417 12.3195 40.4079 12.3516Z" fill="#326CE5"/>
<path d="M40.6042 19.5894C39.9492 19.5895 39.4181 20.1795 39.4182 20.9073C39.4182 20.9184 39.4204 20.9291 39.4207 20.9402C39.4197 21.0391 39.4149 21.1582 39.4182 21.2443C39.4338 21.6641 39.5253 21.9854 39.5804 22.3721C39.6801 23.1999 39.7637 23.886 39.7121 24.5238C39.662 24.7642 39.4848 24.9842 39.3269 25.1371L39.299 25.6389C38.5873 25.6978 37.8707 25.8058 37.155 25.9683C34.0753 26.6676 31.4237 28.2539 29.405 30.3958C29.274 30.3065 29.0448 30.1421 28.9767 30.0917C28.7649 30.1203 28.5509 30.1856 28.2721 30.0233C27.7413 29.666 27.2579 29.1728 26.673 28.5787C26.4049 28.2945 26.2108 28.0239 25.8924 27.75C25.8201 27.6878 25.7097 27.6036 25.6288 27.5396C25.3798 27.3411 25.0862 27.2376 24.8026 27.2279C24.438 27.2154 24.087 27.358 23.8573 27.6461C23.449 28.1582 23.5797 28.9411 24.1488 29.3948C24.1545 29.3994 24.1607 29.4029 24.1665 29.4074C24.2447 29.4708 24.3405 29.552 24.4123 29.6051C24.7503 29.8546 25.0589 29.9823 25.3957 30.1804C26.105 30.6185 26.6931 30.9817 27.1596 31.4197C27.3417 31.6139 27.3735 31.956 27.3978 32.104L27.7779 32.4436C25.7429 35.5062 24.801 39.2891 25.3576 43.1436L24.8609 43.288C24.73 43.4571 24.545 43.7231 24.3515 43.8025C23.7412 43.9947 23.0544 44.0653 22.2252 44.1522C21.8359 44.1846 21.5 44.1653 21.0873 44.2435C20.9964 44.2607 20.8699 44.2936 20.7705 44.317C20.767 44.3177 20.7638 44.3187 20.7603 44.3195C20.7549 44.3207 20.7478 44.3234 20.7426 44.3246C20.0435 44.4935 19.5944 45.136 19.739 45.7691C19.8836 46.4024 20.5665 46.7875 21.2697 46.6359C21.2748 46.6347 21.2822 46.6345 21.2875 46.6333C21.2954 46.6315 21.3024 46.6277 21.3103 46.6257C21.4083 46.6042 21.5312 46.5803 21.617 46.5573C22.0227 46.4487 22.3166 46.289 22.6814 46.1493C23.4662 45.8678 24.1162 45.6327 24.7494 45.541C25.0139 45.5203 25.2925 45.7042 25.4311 45.7818L25.9481 45.6931C27.1379 49.3817 29.6312 52.3631 32.7883 54.2338L32.5729 54.7508C32.6505 54.9516 32.7362 55.2232 32.6784 55.4215C32.4481 56.0185 32.0538 56.6486 31.6048 57.3511C31.3874 57.6756 31.1649 57.9275 30.9687 58.2989C30.9217 58.3878 30.8619 58.5243 30.8166 58.6182C30.5118 59.2705 30.7354 60.0217 31.3209 60.3036C31.9102 60.5872 32.6416 60.2881 32.9581 59.6345C32.9586 59.6336 32.9602 59.6329 32.9607 59.632C32.961 59.6312 32.9603 59.6302 32.9607 59.6294C33.0057 59.5368 33.0696 59.415 33.1076 59.3279C33.2757 58.9429 33.3316 58.613 33.4498 58.2406C33.7636 57.4523 33.936 56.6252 34.368 56.1098C34.4863 55.9687 34.6792 55.9144 34.8791 55.8609L35.1478 55.3743C37.9001 56.4307 40.981 56.7142 44.0585 56.0155C44.7606 55.8561 45.4384 55.6498 46.0936 55.4022C46.1691 55.5361 46.3094 55.7935 46.347 55.8583C46.5502 55.9245 46.772 55.9586 46.9527 56.2258C47.276 56.778 47.497 57.4313 47.7663 58.2204C47.8845 58.5927 47.9429 58.9226 48.1109 59.3076C48.1492 59.3953 48.2128 59.5188 48.2579 59.6117C48.5738 60.2674 49.3075 60.5676 49.8976 60.2833C50.4831 60.0013 50.707 59.2501 50.402 58.598C50.3567 58.504 50.2943 58.3675 50.2474 58.2786C50.0512 57.9072 49.8287 57.6579 49.6113 57.3333C49.1622 56.6309 48.7898 56.0473 48.5595 55.4503C48.4632 55.1424 48.5758 54.9509 48.6508 54.7508C48.6058 54.6994 48.5097 54.4086 48.4531 54.2719C51.7341 52.3345 54.1542 49.242 55.2907 45.6703C55.4442 45.6944 55.7109 45.7416 55.7976 45.759C55.976 45.6413 56.14 45.4878 56.4616 45.5132C57.0948 45.6048 57.7448 45.84 58.5296 46.1214C58.8944 46.2612 59.1883 46.4234 59.594 46.532C59.6798 46.5549 59.8027 46.5764 59.9007 46.5979C59.9086 46.5998 59.9156 46.6037 59.9235 46.6055C59.9288 46.6067 59.9362 46.6068 59.9412 46.608C60.6446 46.7594 61.3275 46.3745 61.472 45.7413C61.6164 45.1081 61.1675 44.4654 60.4684 44.2967C60.3667 44.2736 60.2225 44.2343 60.1237 44.2156C59.711 44.1374 59.3751 44.1567 58.9858 44.1243C58.1566 44.0375 57.4698 43.9668 56.8595 43.7746C56.6106 43.6781 56.4336 43.382 56.3475 43.2601L55.8685 43.1207C56.1169 41.324 56.0499 39.4542 55.6202 37.5832C55.1864 35.6948 54.4199 33.9678 53.3976 32.4461C53.5204 32.3344 53.7525 32.1289 53.8183 32.0685C53.8375 31.8557 53.821 31.6325 54.0413 31.3969C54.5077 30.9589 55.0958 30.5957 55.8052 30.1576C56.1419 29.9595 56.4531 29.8318 56.791 29.5823C56.8675 29.5259 56.9718 29.4365 57.0521 29.372C57.621 28.9181 57.752 28.1353 57.3435 27.6233C56.9351 27.1112 56.1435 27.063 55.5746 27.5168C55.4936 27.581 55.3837 27.6646 55.311 27.7272C54.9926 28.0011 54.7959 28.2717 54.5279 28.5559C53.943 29.15 53.4595 29.6457 52.9287 30.003C52.6987 30.1369 52.3618 30.0906 52.209 30.0816L51.7578 30.4034C49.1855 27.706 45.6832 25.9815 41.912 25.6465C41.9014 25.4884 41.8876 25.2028 41.8841 25.1168C41.7297 24.9691 41.5432 24.8429 41.4963 24.5238C41.4447 23.886 41.5309 23.1999 41.6306 22.3721C41.6857 21.9854 41.7772 21.6641 41.7928 21.2443C41.7964 21.1489 41.7907 21.0104 41.7903 20.9073C41.7902 20.1795 41.2593 19.5893 40.6042 19.5894ZM39.1191 28.7891L38.7668 35.0109L38.7415 35.0235C38.7179 35.5801 38.2598 36.0246 37.6973 36.0246C37.467 36.0246 37.2543 35.9506 37.0815 35.8244L37.0714 35.8294L31.9697 32.2129C33.5377 30.6712 35.5432 29.5318 37.8545 29.007C38.2767 28.9111 38.6987 28.84 39.1191 28.7891ZM42.0919 28.7891C44.7903 29.1209 47.2859 30.3428 49.1982 32.2155L44.1295 35.8092L44.1118 35.8016C43.6619 36.1302 43.028 36.0486 42.6773 35.609C42.5337 35.4288 42.4583 35.2171 42.4492 35.0033L42.4442 35.0007L42.0919 28.7891ZM30.1197 34.5369L34.7778 38.7034L34.7727 38.7287C35.1932 39.0942 35.2552 39.7285 34.9045 40.1682C34.7609 40.3484 34.5686 40.4692 34.3622 40.5256L34.3571 40.5459L28.3862 42.2692C28.0823 39.4903 28.7372 36.7891 30.1197 34.5369ZM51.0559 34.5395C51.748 35.6613 52.2721 36.9142 52.5841 38.2725C52.8923 39.6146 52.9697 40.9542 52.8426 42.2489L46.8412 40.5205L46.8362 40.4952C46.2988 40.3483 45.9685 39.8016 46.0936 39.2533C46.1449 39.0287 46.2641 38.8387 46.4256 38.6983L46.4231 38.6856L51.0559 34.5395ZM39.6488 39.0252H41.5571L42.7432 40.5078L42.3174 42.3579L40.6042 43.1816L38.886 42.3554L38.4602 40.5053L39.6488 39.0252ZM45.7667 44.099C45.8478 44.0949 45.9285 44.1022 46.0074 44.1167L46.0176 44.1041L52.1938 45.1482C51.2899 47.6877 49.5603 49.8876 47.2493 51.3599L44.8518 45.5689L44.8594 45.5588C44.6392 45.047 44.8595 44.4469 45.3663 44.2029C45.496 44.1404 45.6315 44.1058 45.7667 44.099ZM35.3936 44.1243C35.865 44.1309 36.2877 44.4581 36.3972 44.9379C36.4485 45.1625 36.4235 45.385 36.3389 45.5816L36.3567 45.6044L33.9845 51.3371C31.7667 49.9139 30.0002 47.783 29.0552 45.1685L35.1782 44.1294L35.1883 44.1421C35.2568 44.1295 35.3263 44.1234 35.3936 44.1243ZM40.5662 46.6359C40.7304 46.6298 40.897 46.6635 41.0553 46.7398C41.2629 46.8397 41.4233 46.9971 41.5242 47.1858H41.547L44.5654 52.6397C44.1737 52.771 43.771 52.8833 43.3591 52.9768C41.0506 53.5009 38.7495 53.3421 36.6659 52.6321L39.6767 47.1884H39.6817C39.8624 46.8506 40.205 46.6491 40.5662 46.6359Z" fill="white"/>
<path d="M40.4079 12.3516C39.904 12.3769 39.4103 12.5019 38.9557 12.719L19.1397 22.1873C18.6268 22.4323 18.1762 22.7887 17.8212 23.23C17.4663 23.6714 17.2161 24.1865 17.0894 24.7369L12.2007 46.0051C12.0878 46.4951 12.0751 47.0026 12.1635 47.4975C12.2519 47.9925 12.4395 48.4648 12.7151 48.8866C12.782 48.9897 12.8539 49.0895 12.9306 49.1857L26.6464 66.2392C27.0014 66.6805 27.4521 67.0368 27.965 67.2816C28.4779 67.5264 29.0398 67.6535 29.6091 67.6534L51.6046 67.6483C52.1736 67.6487 52.7354 67.5221 53.2483 67.2777C53.7611 67.0333 54.212 66.6775 54.5672 66.2367L68.278 49.1806C68.6332 48.7391 68.8835 48.2239 69.0103 47.6732C69.1371 47.1226 69.1372 46.5507 69.0104 46L64.1141 24.7318C63.9874 24.1814 63.7372 23.6664 63.3823 23.225C63.0273 22.7836 62.5767 22.4272 62.0638 22.1823L42.2453 12.719C41.6735 12.4459 41.0417 12.3195 40.4079 12.3516Z" stroke="white" stroke-width="0.25"/>
<path d="M40.6042 19.5894C39.9492 19.5895 39.4181 20.1795 39.4182 20.9073C39.4182 20.9184 39.4204 20.9291 39.4207 20.9402C39.4197 21.0391 39.4149 21.1582 39.4182 21.2443C39.4338 21.6641 39.5253 21.9854 39.5804 22.3721C39.6801 23.1999 39.7637 23.886 39.7121 24.5238C39.662 24.7642 39.4848 24.9842 39.3269 25.1371L39.299 25.6389C38.5873 25.6978 37.8707 25.8058 37.155 25.9683C34.0753 26.6676 31.4237 28.2539 29.405 30.3958C29.274 30.3065 29.0448 30.1421 28.9767 30.0917C28.7649 30.1203 28.5509 30.1856 28.2721 30.0233C27.7413 29.666 27.2579 29.1728 26.673 28.5787C26.4049 28.2945 26.2108 28.0239 25.8924 27.75C25.8201 27.6878 25.7097 27.6036 25.6288 27.5396C25.3798 27.3411 25.0862 27.2376 24.8026 27.2279C24.438 27.2154 24.087 27.358 23.8573 27.6461C23.449 28.1582 23.5797 28.9411 24.1488 29.3948C24.1545 29.3994 24.1607 29.4029 24.1665 29.4074C24.2447 29.4708 24.3405 29.552 24.4123 29.6051C24.7503 29.8546 25.0589 29.9823 25.3957 30.1804C26.105 30.6185 26.6931 30.9817 27.1596 31.4197C27.3417 31.6139 27.3735 31.956 27.3978 32.104L27.7779 32.4436C25.7429 35.5062 24.801 39.2891 25.3576 43.1436L24.8609 43.288C24.73 43.4571 24.545 43.7231 24.3515 43.8025C23.7412 43.9947 23.0544 44.0653 22.2252 44.1522C21.8359 44.1846 21.5 44.1653 21.0873 44.2435C20.9964 44.2607 20.8699 44.2936 20.7705 44.317C20.767 44.3177 20.7638 44.3187 20.7603 44.3195C20.7549 44.3207 20.7478 44.3234 20.7426 44.3246C20.0435 44.4935 19.5944 45.136 19.739 45.7691C19.8836 46.4024 20.5665 46.7875 21.2697 46.6359C21.2748 46.6347 21.2822 46.6345 21.2875 46.6333C21.2954 46.6315 21.3024 46.6277 21.3103 46.6257C21.4083 46.6042 21.5312 46.5803 21.617 46.5573C22.0227 46.4487 22.3166 46.289 22.6814 46.1493C23.4662 45.8678 24.1162 45.6327 24.7494 45.541C25.0139 45.5203 25.2925 45.7042 25.4311 45.7818L25.9481 45.6931C27.1379 49.3817 29.6312 52.3631 32.7883 54.2338L32.5729 54.7508C32.6505 54.9516 32.7362 55.2232 32.6784 55.4215C32.4481 56.0185 32.0538 56.6486 31.6048 57.3511C31.3874 57.6756 31.1649 57.9275 30.9687 58.2989C30.9217 58.3878 30.8619 58.5243 30.8166 58.6182C30.5118 59.2705 30.7354 60.0217 31.3209 60.3036C31.9102 60.5872 32.6416 60.2881 32.9581 59.6345C32.9586 59.6336 32.9602 59.6329 32.9607 59.632C32.961 59.6312 32.9603 59.6302 32.9607 59.6294C33.0057 59.5368 33.0696 59.415 33.1076 59.3279C33.2757 58.9429 33.3316 58.613 33.4498 58.2406C33.7636 57.4523 33.936 56.6252 34.368 56.1098C34.4863 55.9687 34.6792 55.9144 34.8791 55.8609L35.1478 55.3743C37.9001 56.4307 40.981 56.7142 44.0585 56.0155C44.7606 55.8561 45.4384 55.6498 46.0936 55.4022C46.1691 55.5361 46.3094 55.7935 46.347 55.8583C46.5502 55.9245 46.772 55.9586 46.9527 56.2258C47.276 56.778 47.497 57.4313 47.7663 58.2204C47.8845 58.5927 47.9429 58.9226 48.1109 59.3076C48.1492 59.3953 48.2128 59.5188 48.2579 59.6117C48.5738 60.2674 49.3075 60.5676 49.8976 60.2833C50.4831 60.0013 50.707 59.2501 50.402 58.598C50.3567 58.504 50.2943 58.3675 50.2474 58.2786C50.0512 57.9072 49.8287 57.6579 49.6113 57.3333C49.1622 56.6309 48.7898 56.0473 48.5595 55.4503C48.4632 55.1424 48.5758 54.9509 48.6508 54.7508C48.6058 54.6994 48.5097 54.4086 48.4531 54.2719C51.7341 52.3345 54.1542 49.242 55.2907 45.6703C55.4442 45.6944 55.7109 45.7416 55.7976 45.759C55.976 45.6413 56.14 45.4878 56.4616 45.5132C57.0948 45.6048 57.7448 45.84 58.5296 46.1214C58.8944 46.2612 59.1883 46.4234 59.594 46.532C59.6798 46.5549 59.8027 46.5764 59.9007 46.5979C59.9086 46.5998 59.9156 46.6037 59.9235 46.6055C59.9288 46.6067 59.9362 46.6068 59.9412 46.608C60.6446 46.7594 61.3275 46.3745 61.472 45.7413C61.6164 45.1081 61.1675 44.4654 60.4684 44.2967C60.3667 44.2736 60.2225 44.2343 60.1237 44.2156C59.711 44.1374 59.3751 44.1567 58.9858 44.1243C58.1566 44.0375 57.4698 43.9668 56.8595 43.7746C56.6106 43.6781 56.4336 43.382 56.3475 43.2601L55.8685 43.1207C56.1169 41.324 56.0499 39.4542 55.6202 37.5832C55.1864 35.6948 54.4199 33.9678 53.3976 32.4461C53.5204 32.3344 53.7525 32.1289 53.8183 32.0685C53.8375 31.8557 53.821 31.6325 54.0413 31.3969C54.5077 30.9589 55.0958 30.5957 55.8052 30.1576C56.1419 29.9595 56.4531 29.8318 56.791 29.5823C56.8675 29.5259 56.9718 29.4365 57.0521 29.372C57.621 28.9181 57.752 28.1353 57.3435 27.6233C56.9351 27.1112 56.1435 27.063 55.5746 27.5168C55.4936 27.581 55.3837 27.6646 55.311 27.7272C54.9926 28.0011 54.7959 28.2717 54.5279 28.5559C53.943 29.15 53.4595 29.6457 52.9287 30.003C52.6987 30.1369 52.3618 30.0906 52.209 30.0816L51.7578 30.4034C49.1855 27.706 45.6832 25.9815 41.912 25.6465C41.9014 25.4884 41.8876 25.2028 41.8841 25.1168C41.7297 24.9691 41.5432 24.8429 41.4963 24.5238C41.4447 23.886 41.5309 23.1999 41.6306 22.3721C41.6857 21.9854 41.7772 21.6641 41.7928 21.2443C41.7964 21.1489 41.7907 21.0104 41.7903 20.9073C41.7902 20.1795 41.2593 19.5893 40.6042 19.5894ZM39.1191 28.7891L38.7668 35.0109L38.7415 35.0235C38.7179 35.5801 38.2598 36.0246 37.6973 36.0246C37.467 36.0246 37.2543 35.9506 37.0815 35.8244L37.0714 35.8294L31.9697 32.2129C33.5377 30.6712 35.5432 29.5318 37.8545 29.007C38.2767 28.9111 38.6987 28.84 39.1191 28.7891ZM42.0919 28.7891C44.7903 29.1209 47.2859 30.3428 49.1982 32.2155L44.1295 35.8092L44.1118 35.8016C43.6619 36.1302 43.028 36.0486 42.6773 35.609C42.5337 35.4288 42.4583 35.2171 42.4492 35.0033L42.4442 35.0007L42.0919 28.7891ZM30.1197 34.5369L34.7778 38.7034L34.7727 38.7287C35.1932 39.0942 35.2552 39.7285 34.9045 40.1682C34.7609 40.3484 34.5686 40.4692 34.3622 40.5256L34.3571 40.5459L28.3862 42.2692C28.0823 39.4903 28.7372 36.7891 30.1197 34.5369ZM51.0559 34.5395C51.748 35.6613 52.2721 36.9142 52.5841 38.2725C52.8923 39.6146 52.9697 40.9542 52.8426 42.2489L46.8412 40.5205L46.8362 40.4952C46.2988 40.3483 45.9685 39.8016 46.0936 39.2533C46.1449 39.0287 46.2641 38.8387 46.4256 38.6983L46.4231 38.6856L51.0559 34.5395ZM39.6488 39.0252H41.5571L42.7432 40.5078L42.3174 42.3579L40.6042 43.1816L38.886 42.3554L38.4602 40.5053L39.6488 39.0252ZM45.7667 44.099C45.8478 44.0949 45.9285 44.1022 46.0074 44.1167L46.0176 44.1041L52.1938 45.1482C51.2899 47.6877 49.5603 49.8876 47.2493 51.3599L44.8518 45.5689L44.8594 45.5588C44.6392 45.047 44.8595 44.4469 45.3663 44.2029C45.496 44.1404 45.6315 44.1058 45.7667 44.099ZM35.3936 44.1243C35.865 44.1309 36.2877 44.4581 36.3972 44.9379C36.4485 45.1625 36.4235 45.385 36.3389 45.5816L36.3567 45.6044L33.9845 51.3371C31.7667 49.9139 30.0002 47.783 29.0552 45.1685L35.1782 44.1294L35.1883 44.1421C35.2568 44.1295 35.3263 44.1234 35.3936 44.1243ZM40.5662 46.6359C40.7304 46.6298 40.897 46.6635 41.0553 46.7398C41.2629 46.8397 41.4233 46.9971 41.5242 47.1858H41.547L44.5654 52.6397C44.1737 52.771 43.771 52.8833 43.3591 52.9768C41.0506 53.5009 38.7495 53.3421 36.6659 52.6321L39.6767 47.1884H39.6817C39.8624 46.8506 40.205 46.6491 40.5662 46.6359Z" stroke="white" stroke-width="0.25"/>
</svg>
