<svg width="13" height="12" viewBox="0 0 13 12" fill="none" xmlns="http://www.w3.org/2000/svg">
<path d="M5.9388 6.66663H7.27214V2.66663H5.9388M12.6055 0.666626H8.60547V4.66663L10.0988 3.17329C10.8188 3.89996 11.2721 4.89329 11.2721 5.99996C11.2721 7.73996 10.1588 9.21996 8.60547 9.76663V11.16C10.9055 10.5666 12.6055 8.48663 12.6055 5.99996C12.6055 4.52663 11.9988 3.19996 11.0321 2.23996M5.9388 9.33329H7.27214V7.99996H5.9388M0.605469 5.99996C0.605469 7.47329 1.21214 8.79996 2.1788 9.75996L0.605469 11.3333H4.60547V7.33329L3.11214 8.82663C2.39214 8.09996 1.9388 7.10663 1.9388 5.99996C1.9388 4.25996 3.05214 2.77996 4.60547 2.23329V0.839959C2.30547 1.43329 0.605469 3.51329 0.605469 5.99996Z" fill="url(#paint0_linear_5980_4438)"/>
<defs>
<linearGradient id="paint0_linear_5980_4438" x1="2.41345" y1="2.64683" x2="11.2345" y2="12.5541" gradientUnits="userSpaceOnUse">
<stop offset="0.015625" stop-color="#F2D5FF"/>
<stop offset="1" stop-color="#CB5AFF"/>
</linearGradient>
</defs>
</svg>
