<svg width="15" height="13" viewBox="0 0 15 13" fill="none" xmlns="http://www.w3.org/2000/svg">
<path d="M11.2721 2V1.33333C11.2721 0.979711 11.1317 0.640573 10.8816 0.390524C10.6316 0.140476 10.2924 0 9.9388 0H8.60547C8.25185 0 7.91271 0.140476 7.66266 0.390524C7.41261 0.640573 7.27214 0.979711 7.27214 1.33333V2H5.9388V1.33333C5.9388 0.979711 5.79833 0.640573 5.54828 0.390524C5.29823 0.140476 4.95909 0 4.60547 0H3.27214C2.91851 0 2.57937 0.140476 2.32933 0.390524C2.07928 0.640573 1.9388 0.979711 1.9388 1.33333V2H0.605469V11.3333H6.4788C5.6967 10.5147 5.26602 9.42255 5.27892 8.29045C5.29183 7.15836 5.74728 6.07627 6.54785 5.27571C7.34841 4.47515 8.43049 4.01969 9.56259 4.00679C10.6947 3.99389 11.7869 4.42456 12.6055 5.20667V2M12.1455 9.93333C12.5389 9.31001 12.6891 8.56365 12.5674 7.83665C12.4457 7.10965 12.0606 6.4529 11.4856 5.99171C10.9106 5.53051 10.1859 5.29716 9.44984 5.33617C8.71375 5.37519 8.0178 5.68383 7.49475 6.20322C6.9717 6.72261 6.65818 7.41638 6.61401 8.15218C6.56983 8.88797 6.79809 9.61427 7.25524 10.1925C7.71238 10.7708 8.36641 11.1604 9.09254 11.2872C9.81867 11.4141 10.5661 11.2691 11.1921 10.88L13.2721 12.9267L14.1988 12M9.60547 10C9.27583 10 8.9536 9.90225 8.67952 9.71912C8.40544 9.53598 8.19182 9.27568 8.06567 8.97114C7.93952 8.6666 7.90652 8.33148 7.97083 8.00818C8.03514 7.68488 8.19387 7.38791 8.42696 7.15482C8.66005 6.92173 8.95702 6.763 9.28032 6.69869C9.60362 6.63438 9.93873 6.66739 10.2433 6.79353C10.5478 6.91968 10.8081 7.1333 10.9913 7.40738C11.1744 7.68147 11.2721 8.0037 11.2721 8.33333C11.2721 8.77536 11.0965 9.19928 10.784 9.51184C10.4714 9.82441 10.0475 10 9.60547 10Z" fill="url(#paint0_linear_5980_4374)"/>
<defs>
<linearGradient id="paint0_linear_5980_4374" x1="2.65351" y1="2.39976" x2="13.403" y2="13.6849" gradientUnits="userSpaceOnUse">
<stop offset="0.015625" stop-color="#F2D5FF"/>
<stop offset="1" stop-color="#CB5AFF"/>
</linearGradient>
</defs>
</svg>
