<svg width="80" height="80" viewBox="0 0 80 80" fill="none" xmlns="http://www.w3.org/2000/svg">
<path d="M39.4982 11.1426C37.1736 11.1534 34.9536 11.3516 33.0002 11.6973C27.2457 12.7139 26.201 14.8418 26.201 18.7659V23.9485H39.7994V25.6761H21.0976C17.1455 25.6761 13.685 28.0515 12.6026 32.5704C11.354 37.75 11.2986 40.9822 12.6026 46.3906C13.5692 50.4165 15.8776 53.2849 19.8297 53.2849H24.5051V47.0722C24.5051 42.5838 28.3886 38.6247 33.0002 38.6247H46.5827C50.3636 38.6247 53.3819 35.5116 53.3819 31.7145V18.7659C53.3819 15.0807 50.273 12.3123 46.5827 11.6973C44.2467 11.3084 41.8229 11.1318 39.4982 11.1426ZM32.1443 15.3108C33.549 15.3108 34.696 16.4766 34.696 17.9101C34.696 19.3384 33.549 20.4934 32.1443 20.4934C30.7347 20.4934 29.5926 19.3384 29.5926 17.9101C29.5926 16.4766 30.7347 15.3108 32.1443 15.3108Z" fill="url(#paint0_linear_484_2913)"/>
<path d="M55.0777 25.6761V31.7145C55.0777 36.3961 51.1087 40.3364 46.5827 40.3364H33.0001C29.2796 40.3364 26.2009 43.5206 26.2009 47.2465V60.1951C26.2009 63.8804 29.4055 66.048 33.0001 67.1053C37.3046 68.371 41.4324 68.5997 46.5827 67.1053C50.0061 66.1141 53.3819 64.1193 53.3819 60.1951V55.0125H39.7993V53.285H60.1811C64.1332 53.285 65.6059 50.5283 66.9803 46.3907C68.4 42.131 68.3396 38.0347 66.9803 32.5704C66.0036 28.6361 64.1382 25.6761 60.1811 25.6761H55.0777ZM47.4385 58.4676C48.8482 58.4676 49.9902 59.6226 49.9902 61.051C49.9902 62.4844 48.8482 63.6502 47.4385 63.6502C46.0339 63.6502 44.8869 62.4844 44.8869 61.051C44.8869 59.6226 46.0339 58.4676 47.4385 58.4676Z" fill="url(#paint1_linear_484_2913)"/>
<defs>
<linearGradient id="paint0_linear_484_2913" x1="11.6453" y1="11.1421" x2="54.0474" y2="47.2277" gradientUnits="userSpaceOnUse">
<stop stop-color="#5A9FD4"/>
<stop offset="1" stop-color="#306998"/>
</linearGradient>
<linearGradient id="paint1_linear_484_2913" x1="47.1117" y1="60.6152" x2="35.8623" y2="44.8513" gradientUnits="userSpaceOnUse">
<stop stop-color="#FFD43B"/>
<stop offset="1" stop-color="#FFE873"/>
</linearGradient>
</defs>
</svg>
