<svg class="svg-icon" style="width: 250;height: 250;vertical-align: middle;fill: currentColor;overflow: hidden;" viewBox="0 0 1024 1024" version="1.1" xmlns="http://www.w3.org/2000/svg"><path d="M485.347556 186.360889a25.322667 25.322667 0 0 1 50.652444 0 25.322667 25.322667 0 0 1-50.652444 0M183.224889 415.658667a25.322667 25.322667 0 0 1 50.652444 0 25.322667 25.322667 0 0 1-50.652444 0m604.231111 1.180444a25.322667 25.322667 0 0 1 50.652444 0 25.322667 25.322667 0 0 1-50.652444 0m-530.922667 34.702222a23.125333 23.125333 0 0 0 11.740445-30.506666l-11.235556-25.415111h44.188445v199.182222H212.074667a311.800889 311.800889 0 0 1-10.097778-119.025778z m184.846223 4.892445V397.724444h105.230222c5.432889 0 38.378667 6.279111 38.378666 30.912 0 20.458667-25.265778 27.790222-46.044444 27.790223z m-143.665778 316.103111a25.322667 25.322667 0 0 1 50.652444 0 25.322667 25.322667 0 0 1-50.652444 0m375.246222 1.180444a25.322667 25.322667 0 0 1 50.652444 0 25.322667 25.322667 0 0 1-50.652444 0m7.829333-57.429333a23.082667 23.082667 0 0 0-27.420444 17.763556l-12.707556 59.320888a311.800889 311.800889 0 0 1-260.024889-1.244444l-12.707555-59.320889a23.082667 23.082667 0 0 0-27.406222-17.756444l-52.373334 11.242666a311.800889 311.800889 0 0 1-27.079111-31.914666h254.819556c2.887111 0 4.807111-0.526222 4.807111-3.150223V601.088c0-2.624-1.92-3.143111-4.807111-3.143111h-74.524445v-57.137778h80.604445c7.36 0 39.338667 2.104889 49.564444 42.986667 3.2 12.572444 10.24 53.468444 15.047111 66.56 4.792889 14.684444 24.298667 44.017778 45.084445 44.017778h131.562666a311.800889 311.800889 0 0 1-28.871111 33.422222z m141.496889-237.994667a311.800889 311.800889 0 0 1 0.661334 54.129778h-31.992889c-3.2 0-4.487111 2.104889-4.487111 5.240889v14.691556c0 34.581333-19.498667 42.097778-36.586667 44.017777-16.270222 1.834667-34.311111-6.812444-36.536889-16.768-9.6-53.994667-25.6-65.521778-50.858667-85.447111 31.352889-19.911111 63.971556-49.28 63.971556-88.583111 0-42.453333-29.098667-69.184-48.931556-82.289778-27.832889-18.346667-58.638222-22.016-66.951111-22.016H279.722667A311.800889 311.800889 0 0 1 454.165333 202.808889l38.997334 40.910222a23.061333 23.061333 0 0 0 32.64 0.746667l43.640889-41.735111a311.800889 311.800889 0 0 1 213.454222 152.035555l-29.873778 67.463111a23.153778 23.153778 0 0 0 11.747556 30.506667z m74.503111 1.095111l-1.016889-10.432 30.769778-28.700444c6.257778-5.831111 3.911111-17.578667-4.081778-20.558222l-39.338666-14.705778-3.079111-10.154667 24.533333-34.076444c5.006222-6.926222 0.412444-17.991111-8.014222-19.370667l-41.479111-6.748444-4.977778-9.315556 17.422222-38.257778c3.569778-7.786667-3.057778-17.749333-11.633778-17.422222l-42.097777 1.464889-6.648889-8.071111 9.671111-41.002667c1.955556-8.32-6.492444-16.782222-14.819556-14.826666l-40.995555 9.664-8.078223-6.648889 1.472-42.097778c0.327111-8.519111-9.649778-15.182222-17.422222-11.640889l-38.250666 17.436445-9.315556-4.999112-6.755556-41.479111c-1.372444-8.412444-12.444444-13.013333-19.363555-8.021333l-34.104889 24.533333-10.133333-3.072-14.705778-39.338666c-2.986667-8.014222-14.734222-10.325333-20.551111-4.096l-28.700445 30.791111-10.432-1.016889-22.165333-35.811556c-4.48-7.253333-16.483556-7.253333-20.949333 0l-22.165334 35.811556-10.432 1.016889-28.707555-30.791111c-5.824-6.229333-17.564444-3.918222-20.551111 4.096l-14.712889 39.338666-10.140445 3.072-34.097777-24.533333c-6.926222-4.999111-17.991111-0.391111-19.363556 8.021333l-6.762667 41.479111-9.315555 4.999112-38.250667-17.436445c-7.772444-3.555556-17.749333 3.121778-17.422222 11.640889l1.464889 42.097778-8.078222 6.648889-40.995556-9.671111c-8.327111-1.934222-16.782222 6.506667-14.833778 14.833777l9.656889 41.002667-6.634667 8.071111-42.097777-1.464889c-8.483556-0.248889-15.175111 9.635556-11.640889 17.422222l17.443555 38.257778-4.999111 9.315556-41.472 6.748444c-8.426667 1.365333-12.992 12.444444-8.021333 19.370667l24.533333 34.076444-3.079111 10.154667-39.338667 14.705778c-7.985778 2.986667-10.325333 14.72-4.081777 20.558222l30.776889 28.700444-1.016889 10.432-35.804445 22.158223c-7.253333 4.48-7.253333 16.483556 0 20.949333l35.804445 22.165333 1.016889 10.432-30.776889 28.707556c-6.243556 5.816889-3.904 17.550222 4.081777 20.551111l39.338667 14.705778 3.079111 10.154666-24.533333 34.083556c-4.984889 6.940444-0.398222 18.005333 8.028444 19.363556l41.464889 6.741333 4.999111 9.329778-17.443555 38.243555c-3.555556 7.772444 3.157333 17.777778 11.648 17.429334l42.076444-1.472 6.648889 8.078222-9.656889 41.016889c-1.955556 8.305778 6.506667 16.746667 14.833778 14.791111l40.995556-9.649778 8.085333 6.627556-1.472 42.104888c-0.327111 8.526222 9.649778 15.189333 17.422222 11.633778l38.250667-17.422222 9.315555 4.992 6.755556 41.457778c1.372444 8.440889 12.444444 13.006222 19.377778 8.035555l34.076444-24.554666 10.147556 3.093333 14.712889 39.324444c2.986667 7.985778 14.734222 10.339556 20.551111 4.081778l28.707555-30.776889 10.432 1.038223 22.165334 35.804444c4.465778 7.224889 16.469333 7.239111 20.949333 0l22.165333-35.804444 10.432-1.038223 28.700445 30.776889c5.816889 6.257778 17.564444 3.904 20.551111-4.081778l14.705778-39.324444 10.154666-3.093333 34.083556 24.554666c6.926222 4.970667 17.991111 0.391111 19.356444-8.035555l6.769778-41.457778 9.315556-4.999111 38.243555 17.429333c7.772444 3.555556 17.728-3.093333 17.422222-11.633778l-1.464889-42.097777 8.071112-6.634667 40.995555 9.649778c8.327111 1.955556 16.782222-6.485333 14.826667-14.791111l-9.656889-41.016889 6.627555-8.078222 42.097778 1.472c8.490667 0.341333 15.203556-9.656889 11.633778-17.429334l-17.422222-38.243555 4.977778-9.329778 41.479111-6.741333c8.440889-1.351111 13.020444-12.423111 8.014222-19.363556l-24.533333-34.083556 3.079111-10.154666 39.338666-14.705778c8-3.000889 10.339556-14.734222 4.081778-20.551111l-30.769778-28.707556 1.016889-10.432 35.804445-22.165333c7.253333-4.465778 7.260444-16.462222 0.007111-20.949333z" fill="#FF7043" /></svg>