<svg width="80" height="80" viewBox="0 0 80 80" fill="none" xmlns="http://www.w3.org/2000/svg">
<path d="M23.5167 47.3769C23.5167 50.621 20.8413 53.2429 17.531 53.2429C14.2208 53.2429 11.5453 50.621 11.5453 47.3769C11.5453 44.1328 14.2208 41.5109 17.531 41.5109H23.5167V47.3769ZM26.5095 47.3769C26.5095 44.1328 29.185 41.5109 32.4952 41.5109C35.8055 41.5109 38.4809 44.1328 38.4809 47.3769V62.0418C38.4809 65.2859 35.8055 67.9078 32.4952 67.9078C29.185 67.9078 26.5095 65.2859 26.5095 62.0418V47.3769Z" fill="#E01E5A"/>
<path d="M32.4952 23.8242C29.185 23.8242 26.5095 21.2022 26.5095 17.9582C26.5095 14.7141 29.185 12.0922 32.4952 12.0922C35.8055 12.0922 38.4809 14.7141 38.4809 17.9582V23.8242H32.4952ZM32.4952 26.8016C35.8055 26.8016 38.4809 29.4235 38.4809 32.6675C38.4809 35.9116 35.8055 38.5335 32.4952 38.5335H17.4857C14.1754 38.5335 11.5 35.9116 11.5 32.6675C11.5 29.4235 14.1754 26.8016 17.4857 26.8016H32.4952Z" fill="#36C5F0"/>
<path d="M56.4833 32.6675C56.4833 29.4235 59.1587 26.8016 62.469 26.8016C65.7792 26.8016 68.4547 29.4235 68.4547 32.6675C68.4547 35.9116 65.7792 38.5335 62.469 38.5335H56.4833V32.6675ZM53.4905 32.6675C53.4905 35.9116 50.815 38.5335 47.5048 38.5335C44.1945 38.5335 41.5191 35.9116 41.5191 32.6675V17.9582C41.5191 14.7141 44.1945 12.0922 47.5048 12.0922C50.815 12.0922 53.4905 14.7141 53.4905 17.9582V32.6675Z" fill="#2EB67D"/>
<path d="M47.5048 56.1758C50.815 56.1758 53.4905 58.7978 53.4905 62.0418C53.4905 65.2859 50.815 67.9078 47.5048 67.9078C44.1945 67.9078 41.5191 65.2859 41.5191 62.0418V56.1758H47.5048ZM47.5048 53.2429C44.1945 53.2429 41.5191 50.621 41.5191 47.3769C41.5191 44.1328 44.1945 41.5109 47.5048 41.5109H62.5143C65.8246 41.5109 68.5 44.1328 68.5 47.3769C68.5 50.621 65.8246 53.2429 62.5143 53.2429H47.5048Z" fill="#ECB22E"/>
</svg>
