<svg width="37" height="37" viewBox="0 0 37 37" fill="none" xmlns="http://www.w3.org/2000/svg">
<path d="M13.0015 16.2264C13.0015 16.5472 13.0362 16.8072 13.0969 16.9979C13.1662 17.1886 13.2529 17.3967 13.3743 17.6221C13.4176 17.6914 13.435 17.7608 13.435 17.8215C13.435 17.9082 13.383 17.9948 13.2703 18.0815L12.7241 18.4456C12.6461 18.4976 12.5681 18.5236 12.4987 18.5236C12.4121 18.5236 12.3254 18.4803 12.2387 18.4023C12.1173 18.2722 12.0133 18.1335 11.9266 17.9948C11.8399 17.8475 11.7532 17.6828 11.6579 17.4834C10.9817 18.2809 10.1322 18.6797 9.10925 18.6797C8.38107 18.6797 7.80026 18.4716 7.37549 18.0555C6.95071 17.6394 6.73399 17.0846 6.73399 16.3911C6.73399 15.6543 6.99406 15.0561 7.52285 14.6053C8.05165 14.1546 8.75383 13.9292 9.64671 13.9292C9.94145 13.9292 10.2449 13.9552 10.5656 13.9985C10.8864 14.0419 11.2158 14.1112 11.5625 14.1892V13.5564C11.5625 12.8976 11.4238 12.4381 11.1551 12.1694C10.8777 11.9007 10.4096 11.7706 9.74207 11.7706C9.43866 11.7706 9.12658 11.8053 8.80584 11.8833C8.48509 11.9614 8.17302 12.0567 7.86961 12.1781C7.73091 12.2388 7.62688 12.2734 7.5662 12.2908C7.50552 12.3081 7.46217 12.3168 7.4275 12.3168C7.30613 12.3168 7.24545 12.2301 7.24545 12.048V11.6233C7.24545 11.4846 7.26279 11.3805 7.30613 11.3199C7.34948 11.2592 7.4275 11.1985 7.54886 11.1378C7.85227 10.9818 8.21636 10.8517 8.64113 10.7477C9.0659 10.635 9.51668 10.583 9.99346 10.583C11.0251 10.583 11.7792 10.8171 12.2647 11.2852C12.7415 11.7533 12.9842 12.4641 12.9842 13.4177V16.2264H13.0015ZM9.482 17.5441C9.76808 17.5441 10.0628 17.4921 10.3749 17.388C10.687 17.284 10.9644 17.0933 11.1984 16.8332C11.3371 16.6685 11.4412 16.4865 11.4932 16.2784C11.5452 16.0704 11.5799 15.819 11.5799 15.5242V15.1601C11.3285 15.0995 11.0597 15.0474 10.7823 15.0128C10.5049 14.9781 10.2362 14.9608 9.96746 14.9608C9.38665 14.9608 8.96188 15.0735 8.67581 15.3075C8.38974 15.5416 8.25103 15.871 8.25103 16.3044C8.25103 16.7119 8.35506 17.0153 8.57178 17.2233C8.77983 17.44 9.08324 17.5441 9.482 17.5441ZM16.4431 18.4803C16.287 18.4803 16.183 18.4543 16.1136 18.3936C16.0443 18.3416 15.9836 18.2202 15.9316 18.0555L13.8944 11.3545C13.8424 11.1812 13.8164 11.0685 13.8164 11.0078C13.8164 10.8691 13.8858 10.7911 14.0245 10.7911H14.874C15.0387 10.7911 15.1514 10.8171 15.2121 10.8778C15.2814 10.9298 15.3334 11.0511 15.3855 11.2158L16.8418 16.9546L18.1942 11.2158C18.2375 11.0425 18.2895 10.9298 18.3589 10.8778C18.4282 10.8257 18.5496 10.7911 18.7056 10.7911H19.3991C19.5638 10.7911 19.6765 10.8171 19.7459 10.8778C19.8152 10.9298 19.8759 11.0511 19.9106 11.2158L21.2803 17.0239L22.78 11.2158C22.832 11.0425 22.8926 10.9298 22.9533 10.8778C23.0227 10.8257 23.1354 10.7911 23.2914 10.7911H24.0976C24.2363 10.7911 24.3143 10.8604 24.3143 11.0078C24.3143 11.0511 24.3057 11.0945 24.297 11.1465C24.2883 11.1985 24.271 11.2678 24.2363 11.3632L22.1471 18.0642C22.0951 18.2376 22.0344 18.3503 21.9651 18.4023C21.8957 18.4543 21.783 18.489 21.6357 18.489H20.8902C20.7254 18.489 20.6128 18.463 20.5434 18.4023C20.4741 18.3416 20.4134 18.2289 20.3787 18.0555L19.035 12.4641L17.7 18.0469C17.6567 18.2202 17.6047 18.3329 17.5353 18.3936C17.466 18.4543 17.3446 18.4803 17.1886 18.4803H16.4431ZM27.5825 18.7144C27.1317 18.7144 26.6809 18.6623 26.2475 18.5583C25.814 18.4543 25.476 18.3416 25.2506 18.2116C25.1119 18.1335 25.0165 18.0469 24.9818 17.9688C24.9472 17.8908 24.9298 17.8041 24.9298 17.7261V17.284C24.9298 17.102 24.9992 17.0153 25.1292 17.0153C25.1812 17.0153 25.2332 17.0239 25.2852 17.0413C25.3373 17.0586 25.4153 17.0933 25.502 17.128C25.7967 17.258 26.1174 17.362 26.4555 17.4314C26.8023 17.5007 27.1404 17.5354 27.4871 17.5354C28.0333 17.5354 28.458 17.44 28.7528 17.2493C29.0475 17.0586 29.2035 16.7812 29.2035 16.4258C29.2035 16.1831 29.1255 15.9837 28.9695 15.819C28.8134 15.6543 28.5187 15.5069 28.0939 15.3682L26.837 14.9781C26.2041 14.7787 25.736 14.484 25.4499 14.0939C25.1639 13.7125 25.0165 13.2877 25.0165 12.8369C25.0165 12.4728 25.0945 12.1521 25.2506 11.8747C25.4066 11.5973 25.6147 11.3545 25.8747 11.1638C26.1348 10.9644 26.4295 10.8171 26.7763 10.713C27.123 10.609 27.4871 10.5657 27.8685 10.5657C28.0593 10.5657 28.2586 10.5743 28.4494 10.6003C28.6487 10.6264 28.8308 10.661 29.0128 10.6957C29.1862 10.739 29.3509 10.7824 29.5069 10.8344C29.663 10.8864 29.7843 10.9384 29.871 10.9904C29.9924 11.0598 30.0791 11.1291 30.1311 11.2072C30.1831 11.2765 30.2091 11.3719 30.2091 11.4932V11.9007C30.2091 12.0827 30.1398 12.1781 30.0097 12.1781C29.9404 12.1781 29.8277 12.1434 29.6803 12.074C29.1862 11.8487 28.6314 11.736 28.0159 11.736C27.5218 11.736 27.1317 11.814 26.863 11.9787C26.5942 12.1434 26.4555 12.3948 26.4555 12.7502C26.4555 12.9929 26.5422 13.201 26.7156 13.3657C26.889 13.5304 27.2097 13.6951 27.6692 13.8425L28.9001 14.2326C29.5243 14.432 29.9751 14.7094 30.2438 15.0648C30.5125 15.4202 30.6426 15.8276 30.6426 16.2784C30.6426 16.6512 30.5645 16.9893 30.4172 17.284C30.2611 17.5787 30.0531 17.8388 29.7843 18.0469C29.5156 18.2636 29.1949 18.4196 28.8221 18.5323C28.432 18.6537 28.0246 18.7144 27.5825 18.7144Z" fill="white"/>
<path fill-rule="evenodd" clip-rule="evenodd" d="M29.2208 22.9274C26.3688 25.0339 22.2251 26.1522 18.6622 26.1522C13.669 26.1522 9.16989 24.3057 5.77172 21.237C5.50299 20.9942 5.74571 20.6648 6.06646 20.8555C9.74203 22.9881 14.2758 24.2797 18.9656 24.2797C22.1298 24.2797 25.606 23.6209 28.8047 22.2686C29.2815 22.0518 29.689 22.5806 29.2208 22.9274Z" fill="#FF9900"/>
<path fill-rule="evenodd" clip-rule="evenodd" d="M30.4085 21.5751C30.0444 21.1069 27.9985 21.3497 27.071 21.4624C26.7936 21.497 26.7502 21.2543 27.0016 21.0723C28.6314 19.928 31.31 20.2574 31.6221 20.6388C31.9342 21.0289 31.5354 23.7076 30.0097 24.9906C29.7757 25.1899 29.5503 25.0859 29.6543 24.8259C30.001 23.9676 30.7726 22.0345 30.4085 21.5751Z" fill="#FF9900"/>
</svg>
