<svg width="197" height="41" viewBox="0 0 197 41" fill="none" xmlns="http://www.w3.org/2000/svg">
<g clip-path="url(#clip0_24_349)">
<path d="M47.7478 29.6053C46.412 29.6035 45.0944 29.2987 43.8955 28.7142C42.6967 28.1297 41.6485 27.2811 40.831 26.2331C40.0136 25.1852 39.4485 23.9657 39.1789 22.6679C38.9094 21.3701 38.9427 20.0283 39.2761 18.7452C39.6095 17.462 40.2343 16.2715 41.1026 15.2646C41.971 14.2578 43.0599 13.4612 44.2862 12.9358C45.5125 12.4104 46.8437 12.1702 48.1779 12.2334C49.5122 12.2966 50.8142 12.6617 51.9845 13.3006C53.2434 13.9858 54.2917 14.9966 55.0178 16.2256L55.0843 16.3394L52.4745 17.8412L52.4098 17.722C51.9758 16.9243 51.3214 16.266 50.5233 15.8244C49.6764 15.3526 48.7191 15.1105 47.7478 15.1223C46.9688 15.0921 46.192 15.2217 45.4658 15.5029C44.7396 15.7842 44.0798 16.2111 43.5276 16.7569C42.4887 17.8946 41.9133 19.3748 41.9133 20.9099C41.9133 22.4449 42.4887 23.9252 43.5276 25.0629C44.0798 25.6087 44.7396 26.0356 45.4658 26.3168C46.192 26.5981 46.9688 26.7277 47.7478 26.6975C48.7227 26.7085 49.6836 26.4665 50.5352 25.9954C51.3339 25.5616 51.9855 24.9033 52.408 24.1032L52.4718 23.9822L55.0834 25.4586L55.0178 25.5725C54.3047 26.8054 53.2651 27.8212 52.0118 28.5101C50.7116 29.236 49.2425 29.6117 47.7505 29.5999" fill="white"/>
<path d="M58.969 12.4852H56.137V29.2987H58.969V12.4852Z" fill="white"/>
<path d="M77.3863 29.2998L72.6496 17.2466H75.7339L78.9704 25.9836L82.1823 17.2466H85.273L80.5363 29.2998H77.3863Z" fill="white"/>
<path d="M98.7123 29.3004V17.2481H101.544V18.8194C101.911 18.2288 102.435 17.7498 103.058 17.4351C103.681 17.1204 104.38 16.9822 105.077 17.0357H105.209V20.0655L105.069 20.0565C104.967 20.0499 104.866 20.0465 104.767 20.0465C103.986 20.0341 103.221 20.2727 102.587 20.727C102.222 21.0284 101.937 21.4137 101.756 21.8494C101.574 22.2851 101.503 22.758 101.548 23.2272V29.3004H98.7123Z" fill="white"/>
<path d="M115.643 29.6053C114.308 29.6035 112.99 29.2987 111.791 28.7142C110.592 28.1297 109.544 27.2811 108.727 26.2331C107.909 25.1852 107.344 23.9657 107.075 22.6679C106.805 21.3701 106.838 20.0283 107.172 18.7452C107.505 17.462 108.13 16.2715 108.998 15.2646C109.867 14.2578 110.956 13.4612 112.182 12.9358C113.408 12.4104 114.739 12.1702 116.074 12.2334C117.408 12.2966 118.71 12.6617 119.88 13.3006C121.139 13.9857 122.187 14.9965 122.913 16.2256L122.98 16.3394L120.37 17.8412L120.305 17.722C119.871 16.9243 119.217 16.266 118.419 15.8244C117.572 15.3527 116.615 15.1105 115.643 15.1223C114.864 15.0921 114.088 15.2218 113.361 15.503C112.635 15.7843 111.975 16.2111 111.423 16.7569C110.384 17.8946 109.809 19.3748 109.809 20.9099C109.809 22.4449 110.384 23.9252 111.423 25.0629C111.975 25.6087 112.635 26.0356 113.361 26.3168C114.088 26.5981 114.864 26.7277 115.643 26.6975C116.619 26.7086 117.58 26.4666 118.432 25.9954C119.231 25.5616 119.883 24.9033 120.305 24.1032L120.368 23.9822L122.98 25.4586L122.914 25.5725C122.201 26.8055 121.162 27.8213 119.908 28.5101C118.608 29.236 117.139 29.6117 115.647 29.5999" fill="white"/>
<path d="M130.108 29.6054C129.267 29.6195 128.431 29.4647 127.651 29.1502C126.871 28.8358 126.163 28.3682 125.57 27.7756C124.373 26.578 123.701 24.9594 123.701 23.2724C123.701 21.5855 124.373 19.9669 125.57 18.7693C126.787 17.5959 128.417 16.9395 130.114 16.9395C131.811 16.9395 133.442 17.5959 134.658 18.7693C135.562 19.6561 136.179 20.7904 136.429 22.0268C136.679 23.2633 136.551 24.5457 136.062 25.7096C135.573 26.8736 134.744 27.8662 133.683 28.5602C132.621 29.2543 131.375 29.6182 130.104 29.6054M130.104 19.6774C129.632 19.6674 129.163 19.753 128.725 19.9289C128.288 20.1047 127.891 20.3672 127.559 20.7003C126.897 21.3956 126.528 22.3159 126.528 23.2724C126.528 24.229 126.897 25.1493 127.559 25.8446C128.241 26.5007 129.154 26.8676 130.104 26.8676C131.055 26.8676 131.968 26.5007 132.65 25.8446C133.312 25.1493 133.681 24.229 133.681 23.2724C133.681 22.3159 133.312 21.3956 132.65 20.7003C132.318 20.3671 131.921 20.1046 131.484 19.9287C131.046 19.7528 130.577 19.6673 130.105 19.6774" fill="white"/>
<path d="M146.192 29.2998V22.1884C146.216 21.8375 146.169 21.4854 146.053 21.1529C145.937 20.8205 145.755 20.5145 145.518 20.2529C145.27 20.0231 144.978 19.8453 144.659 19.7303C144.341 19.6152 144.002 19.5652 143.663 19.5833C143.277 19.5672 142.892 19.6297 142.532 19.7669C142.172 19.9042 141.843 20.1132 141.568 20.3812C140.986 21.0676 140.7 21.9541 140.773 22.848V29.2989H137.941V17.2466H140.773V18.4746C141.201 17.9579 141.746 17.5492 142.363 17.2821C142.981 17.015 143.654 16.8973 144.326 16.9384C144.955 16.9145 145.582 17.021 146.168 17.2511C146.753 17.4812 147.284 17.8299 147.725 18.2749C148.628 19.2737 149.095 20.5869 149.023 21.9264V29.2971L146.192 29.2998Z" fill="white"/>
<path d="M158.993 29.2998V22.1884C159.017 21.8375 158.969 21.4854 158.854 21.1529C158.738 20.8205 158.556 20.5145 158.319 20.2529C158.071 20.023 157.779 19.8452 157.46 19.7302C157.141 19.6151 156.801 19.5652 156.463 19.5833C156.077 19.5672 155.692 19.6297 155.332 19.7669C154.971 19.9042 154.643 20.1132 154.367 20.3812C153.786 21.0676 153.5 21.9541 153.573 22.848V29.2989H150.741V17.2466H153.573V18.4746C154 17.9579 154.545 17.5492 155.163 17.2821C155.78 17.015 156.453 16.8973 157.126 16.9384C157.756 16.9142 158.384 17.0208 158.97 17.2512C159.556 17.4816 160.087 17.8309 160.529 18.2767C161.432 19.2755 161.898 20.5886 161.826 21.9282V29.2989L158.993 29.2998Z" fill="white"/>
<path d="M182.85 29.6058C182.005 29.6158 181.167 29.4594 180.383 29.1457C179.6 28.8319 178.887 28.367 178.286 27.7779C177.685 27.1889 177.208 26.4874 176.882 25.714C176.557 24.9407 176.389 24.111 176.389 23.2729C176.389 22.4348 176.557 21.6051 176.882 20.8318C177.208 20.0584 177.685 19.3569 178.286 18.7679C178.887 18.1788 179.6 17.7139 180.383 17.4001C181.167 17.0864 182.005 16.93 182.85 16.94C183.983 16.9288 185.098 17.22 186.078 17.783C187.016 18.3118 187.777 19.1011 188.269 20.0538L188.325 20.164L185.882 21.571L185.82 21.4417C185.569 20.9086 185.16 20.4637 184.648 20.1658C184.094 19.8496 183.465 19.6888 182.826 19.7005C182.356 19.6896 181.888 19.7747 181.452 19.9505C181.017 20.1263 180.622 20.389 180.293 20.7225C179.638 21.4122 179.273 22.324 179.273 23.2715C179.273 24.2191 179.638 25.1309 180.293 25.8206C180.622 26.154 181.017 26.4168 181.452 26.5926C181.888 26.7684 182.356 26.8535 182.826 26.8426C183.466 26.8503 184.095 26.6853 184.648 26.3655C185.168 26.0682 185.592 25.6292 185.869 25.1005L185.932 24.9785L188.374 26.3592L188.314 26.4721C187.801 27.4296 187.025 28.2238 186.077 28.7637C185.097 29.3267 183.982 29.6179 182.849 29.6067" fill="white"/>
<path d="M195.171 29.4022C194.217 29.4606 193.267 29.2407 192.438 28.7697C191.548 28.1724 191.096 27.0691 191.096 25.4896V19.9613H188.91V17.2505H191.096V14.7321L193.928 13.7101V17.2469H196.876V19.9577H193.928V25.486C193.912 25.6568 193.93 25.8292 193.981 25.9932C194.032 26.1571 194.116 26.3093 194.227 26.4411C194.48 26.6506 194.8 26.7632 195.13 26.7582C195.315 26.7679 195.52 26.7727 195.744 26.7727C196.042 26.7727 196.382 26.7637 196.746 26.7456L196.885 26.7393V29.2802L196.769 29.2938C196.241 29.3597 195.71 29.3944 195.178 29.3977" fill="white"/>
<path d="M70.0343 25.5987C69.928 25.7266 69.8132 25.8473 69.6908 25.9601C68.9093 26.6735 67.8786 27.0572 66.8169 27.03C66.3499 27.0374 65.8867 26.9458 65.4584 26.7613C65.03 26.5768 64.6462 26.3036 64.3329 25.9601C64.2194 25.8375 64.1144 25.7073 64.0186 25.5707L70.3039 23.3008L73.0002 22.3276C72.8337 20.9814 72.2196 19.7286 71.2549 18.7674C70.6738 18.1874 69.9828 17.7271 69.2217 17.413C68.4606 17.099 67.6444 16.9373 66.8201 16.9373C65.9958 16.9373 65.1796 17.099 64.4185 17.413C63.6574 17.7271 62.9664 18.1874 62.3853 18.7674C61.2143 19.9788 60.5604 21.5922 60.5604 23.2705C60.5604 24.9489 61.2143 26.5623 62.3853 27.7737C62.9577 28.3635 63.6462 28.8303 64.4081 29.1451C65.1699 29.4599 65.989 29.6159 66.8142 29.6035C68.5939 29.6436 70.3178 28.9862 71.6119 27.7737C71.8795 27.5232 72.1257 27.2512 72.348 26.9604L72.2095 26.8592L70.0343 25.5987ZM64.3329 20.5809C64.6509 20.2433 65.0355 19.974 65.4628 19.79C65.8901 19.6059 66.351 19.5109 66.8169 19.5109C67.2828 19.5109 67.7437 19.6059 68.171 19.79C68.5983 19.974 68.9829 20.2433 69.301 20.5809C69.4061 20.6952 69.5037 20.8159 69.5934 20.9424L63.3299 23.2014C63.3139 22.233 63.6725 21.2952 64.3319 20.5809" fill="white"/>
<path d="M94.3525 25.5987C94.2461 25.7265 94.1314 25.8473 94.009 25.9601C93.2275 26.6735 92.1968 27.0572 91.1351 27.03C90.6681 27.0374 90.205 26.9458 89.7766 26.7613C89.3482 26.5768 88.9644 26.3036 88.6511 25.9601C88.5376 25.8375 88.4326 25.7073 88.3368 25.5707L94.6221 23.3008L97.3184 22.3276C97.1521 20.9815 96.5383 19.7288 95.574 18.7674C94.9929 18.1874 94.3019 17.7271 93.5408 17.413C92.7797 17.099 91.9636 16.9373 91.1392 16.9373C90.3149 16.9373 89.4987 17.099 88.7376 17.413C87.9765 17.7271 87.2855 18.1874 86.7045 18.7674C85.5334 19.9788 84.8795 21.5922 84.8795 23.2705C84.8795 24.9489 85.5334 26.5623 86.7045 27.7737C87.2768 28.3635 87.9653 28.8303 88.7272 29.1451C89.4891 29.4599 90.3081 29.6159 91.1333 29.6035C92.9127 29.6435 94.6362 28.986 95.9302 27.7737C96.1977 27.5232 96.4439 27.2512 96.6662 26.9604L96.5277 26.8592L94.3525 25.5987ZM88.6511 20.5809C88.9691 20.2433 89.3537 19.974 89.781 19.79C90.2083 19.6059 90.6692 19.5109 91.1351 19.5109C91.601 19.5109 92.0619 19.6059 92.4892 19.79C92.9165 19.974 93.3011 20.2433 93.6192 20.5809C93.7242 20.6952 93.8219 20.8159 93.9116 20.9424L87.6481 23.2014C87.6321 22.233 87.9907 21.2952 88.6501 20.5809" fill="white"/>
<path d="M172.574 25.5987C172.467 25.7266 172.353 25.8473 172.23 25.9601C171.449 26.6735 170.418 27.0572 169.356 27.03C168.889 27.0374 168.426 26.9458 167.998 26.7613C167.569 26.5768 167.186 26.3036 166.872 25.9601C166.759 25.8375 166.654 25.7074 166.558 25.5707L172.843 23.3008L175.54 22.3276C175.373 20.9815 174.759 19.7288 173.795 18.7674C173.214 18.1874 172.523 17.7271 171.762 17.413C171.001 17.099 170.185 16.9373 169.36 16.9373C168.536 16.9373 167.72 17.099 166.959 17.413C166.198 17.7271 165.507 18.1874 164.926 18.7674C163.755 19.9788 163.101 21.5922 163.101 23.2705C163.101 24.9489 163.755 26.5623 164.926 27.7737C165.498 28.3635 166.186 28.8303 166.948 29.1451C167.71 29.4599 168.529 29.6159 169.354 29.6035C171.134 29.6435 172.857 28.986 174.151 27.7737C174.419 27.5232 174.665 27.2512 174.887 26.9604L174.749 26.8592L172.574 25.5987ZM166.872 20.5809C167.19 20.2433 167.575 19.974 168.002 19.79C168.43 19.6059 168.89 19.5109 169.356 19.5109C169.822 19.5109 170.283 19.6059 170.71 19.79C171.138 19.974 171.522 20.2433 171.84 20.5809C171.945 20.6952 172.043 20.8159 172.133 20.9424L165.869 23.2014C165.853 22.233 166.212 21.2953 166.871 20.5809" fill="white"/>
<path d="M27.4772 15.0208C27.4772 15.204 27.4224 15.3831 27.3198 15.5354C27.2172 15.6877 27.0714 15.8064 26.9008 15.8765C26.7302 15.9466 26.5424 15.9649 26.3613 15.9292C26.1802 15.8935 26.0139 15.8053 25.8833 15.6757C25.7527 15.5462 25.6638 15.3812 25.6277 15.2015C25.5917 15.0218 25.6102 14.8356 25.6809 14.6664C25.7515 14.4971 25.8712 14.3525 26.0248 14.2507C26.1783 14.1489 26.3588 14.0946 26.5435 14.0946C26.7911 14.0946 27.0286 14.1922 27.2037 14.3659C27.3788 14.5396 27.4772 14.7752 27.4772 15.0208Z" fill="#01BA18"/>
<path d="M23.0273 11.3115C22.7963 11.3115 22.5705 11.3795 22.3785 11.5068C22.1865 11.634 22.0368 11.815 21.9484 12.0266C21.86 12.2383 21.8369 12.4712 21.8819 12.6959C21.927 12.9207 22.0382 13.1271 22.2015 13.2891C22.3649 13.4511 22.5729 13.5614 22.7995 13.6061C23.026 13.6508 23.2608 13.6279 23.4742 13.5402C23.6876 13.4525 23.8699 13.304 23.9983 13.1135C24.1266 12.923 24.1951 12.6991 24.1951 12.4699C24.1951 12.1627 24.072 11.8681 23.853 11.6508C23.634 11.4336 23.337 11.3115 23.0273 11.3115Z" fill="#0BBF2F"/>
<path d="M18.5412 10.4734C18.2683 10.4734 18.0015 10.5537 17.7745 10.7041C17.5476 10.8545 17.3707 11.0683 17.2662 11.3185C17.1618 11.5686 17.1345 11.8439 17.1877 12.1094C17.241 12.375 17.3724 12.6189 17.5654 12.8104C17.7584 13.0018 18.0043 13.1322 18.272 13.185C18.5397 13.2378 18.8172 13.2107 19.0693 13.1071C19.3215 13.0035 19.537 12.828 19.6887 12.6029C19.8403 12.3778 19.9213 12.1131 19.9213 11.8424C19.9213 11.4793 19.7759 11.1311 19.517 10.8743C19.2582 10.6176 18.9072 10.4734 18.5412 10.4734Z" fill="#0FC139"/>
<path d="M14.3954 11.7336C14.07 11.7336 13.752 11.8293 13.4814 12.0086C13.2109 12.1879 13 12.4428 12.8755 12.741C12.751 13.0392 12.7184 13.3673 12.7819 13.6839C12.8454 14.0004 13.0021 14.2912 13.2321 14.5194C13.4622 14.7477 13.7554 14.9031 14.0745 14.9661C14.3936 15.029 14.7244 14.9967 15.025 14.8732C15.3256 14.7497 15.5825 14.5405 15.7633 14.2721C15.944 14.0038 16.0405 13.6883 16.0405 13.3655C16.0405 12.9327 15.8672 12.5176 15.5587 12.2116C15.2502 11.9055 14.8317 11.7336 14.3954 11.7336Z" fill="#18C552"/>
<path d="M11.4906 14.7723C11.1337 14.7723 10.7848 14.8773 10.4881 15.074C10.1913 15.2707 9.96004 15.5503 9.82346 15.8774C9.68688 16.2044 9.65114 16.5644 9.72077 16.9116C9.7904 17.2588 9.96226 17.5778 10.2146 17.8281C10.467 18.0785 10.7885 18.249 11.1386 18.318C11.4886 18.3871 11.8514 18.3517 12.1812 18.2162C12.5109 18.0807 12.7927 17.8513 12.991 17.5569C13.1893 17.2625 13.2951 16.9164 13.2951 16.5624C13.2951 16.0876 13.105 15.6323 12.7666 15.2966C12.4282 14.9609 11.9692 14.7723 11.4906 14.7723Z" fill="#44D33B"/>
<path d="M10.3952 18.9691C10.0169 18.9691 9.64703 19.0804 9.33246 19.2889C9.01788 19.4974 8.7727 19.7938 8.62791 20.1405C8.48313 20.4873 8.44525 20.8688 8.51906 21.2369C8.59287 21.605 8.77506 21.9431 9.04258 22.2085C9.31011 22.4739 9.65095 22.6546 10.022 22.7278C10.3931 22.801 10.7777 22.7634 11.1273 22.6198C11.4768 22.4762 11.7755 22.233 11.9857 21.9209C12.1959 21.6089 12.3081 21.242 12.3081 20.8667C12.3081 20.3634 12.1066 19.8808 11.7478 19.5249C11.3891 19.169 10.9026 18.9691 10.3952 18.9691Z" fill="#66DC22"/>
<path d="M11.4906 23.3782C11.1337 23.3782 10.7848 23.4832 10.4881 23.6799C10.1913 23.8765 9.96004 24.1561 9.82346 24.4832C9.68688 24.8103 9.65114 25.1702 9.72077 25.5174C9.7904 25.8647 9.96226 26.1836 10.2146 26.434C10.467 26.6843 10.7885 26.8548 11.1386 26.9239C11.4886 26.9929 11.8514 26.9575 12.1812 26.822C12.5109 26.6865 12.7927 26.4571 12.991 26.1627C13.1893 25.8683 13.2951 25.5223 13.2951 25.1682C13.2951 24.6935 13.105 24.2382 12.7666 23.9025C12.4282 23.5668 11.9692 23.3782 11.4906 23.3782Z" fill="#89E60B"/>
<path d="M14.3954 26.7333C14.07 26.7333 13.752 26.829 13.4814 27.0084C13.2109 27.1877 13 27.4425 12.8755 27.7407C12.751 28.0389 12.7184 28.3671 12.7819 28.6836C12.8454 29.0002 13.0021 29.291 13.2321 29.5192C13.4622 29.7474 13.7554 29.9028 14.0745 29.9658C14.3936 30.0288 14.7244 29.9965 15.025 29.8729C15.3256 29.7494 15.5825 29.5403 15.7633 29.2719C15.944 29.0035 16.0405 28.688 16.0405 28.3653C16.0405 27.9324 15.8672 27.5174 15.5587 27.2113C15.2502 26.9053 14.8317 26.7333 14.3954 26.7333Z" fill="#66E51F"/>
<path d="M18.5412 28.5214C18.2683 28.5214 18.0015 28.6017 17.7745 28.7521C17.5476 28.9025 17.3707 29.1163 17.2662 29.3665C17.1618 29.6166 17.1345 29.8918 17.1877 30.1574C17.241 30.423 17.3724 30.6669 17.5654 30.8583C17.7584 31.0498 18.0043 31.1802 18.272 31.233C18.5397 31.2858 18.8172 31.2587 19.0693 31.1551C19.3215 31.0515 19.537 30.876 19.6887 30.6509C19.8403 30.4258 19.9213 30.1611 19.9213 29.8903C19.9213 29.5273 19.7759 29.1791 19.517 28.9223C19.2582 28.6656 18.9072 28.5214 18.5412 28.5214Z" fill="#11DB62"/>
<path d="M23.0273 28.1036C22.7963 28.1036 22.5705 28.1716 22.3785 28.2989C22.1865 28.4262 22.0368 28.6071 21.9484 28.8187C21.86 29.0304 21.8369 29.2633 21.8819 29.4881C21.927 29.7128 22.0382 29.9192 22.2015 30.0812C22.3649 30.2432 22.5729 30.3535 22.7995 30.3982C23.026 30.4429 23.2608 30.42 23.4742 30.3323C23.6876 30.2446 23.8699 30.0962 23.9983 29.9057C24.1266 29.7152 24.1951 29.4912 24.1951 29.2621C24.1951 28.9548 24.072 28.6602 23.853 28.4429C23.634 28.2257 23.337 28.1036 23.0273 28.1036Z" fill="#00DEA7"/>
<path d="M26.5428 25.7834C26.3582 25.7834 26.1776 25.8377 26.0241 25.9395C25.8705 26.0412 25.7509 26.1859 25.6802 26.3551C25.6095 26.5244 25.591 26.7106 25.6271 26.8903C25.6631 27.0699 25.752 27.235 25.8826 27.3645C26.0132 27.494 26.1795 27.5822 26.3607 27.618C26.5418 27.6537 26.7295 27.6354 26.9001 27.5653C27.0707 27.4952 27.2166 27.3765 27.3192 27.2242C27.4217 27.0718 27.4765 26.8928 27.4765 26.7096C27.4765 26.4639 27.3781 26.2284 27.203 26.0547C27.0279 25.881 26.7904 25.7834 26.5428 25.7834Z" fill="#00D3C4"/>
<path d="M30.5126 28.0542C30.2817 28.0542 30.0559 28.1221 29.8639 28.2494C29.6718 28.3767 29.5221 28.5576 29.4337 28.7693C29.3454 28.981 29.3222 29.2139 29.3673 29.4386C29.4123 29.6633 29.5236 29.8697 29.6869 30.0318C29.8502 30.1938 30.0583 30.3041 30.2848 30.3488C30.5113 30.3935 30.7461 30.3705 30.9595 30.2829C31.1729 30.1952 31.3553 30.0467 31.4836 29.8562C31.6119 29.6657 31.6804 29.4417 31.6804 29.2126C31.6804 28.9054 31.5574 28.6107 31.3384 28.3935C31.1194 28.1762 30.8224 28.0542 30.5126 28.0542Z" fill="#00D0C4"/>
<path d="M27.2467 30.7272C26.9424 30.7272 26.645 30.8167 26.392 30.9844C26.139 31.152 25.9418 31.3903 25.8253 31.6692C25.7089 31.948 25.6783 32.2548 25.7376 32.5508C25.7969 32.8469 25.9434 33.1188 26.1584 33.3323C26.3735 33.5458 26.6476 33.6912 26.9459 33.7502C27.2443 33.8092 27.5537 33.7791 27.8348 33.6637C28.1159 33.5483 28.3563 33.3529 28.5255 33.102C28.6946 32.8511 28.785 32.5561 28.7852 32.2543C28.7852 31.8495 28.6231 31.4612 28.3346 31.1748C28.0461 30.8885 27.6548 30.7275 27.2467 30.7272Z" fill="#00E0BF"/>
<path d="M23.1153 32.3237C22.7584 32.3237 22.4095 32.4287 22.1128 32.6254C21.816 32.8221 21.5847 33.1017 21.4482 33.4288C21.3116 33.7558 21.2758 34.1158 21.3455 34.463C21.4151 34.8102 21.587 35.1292 21.8393 35.3795C22.0917 35.6299 22.4132 35.8004 22.7633 35.8694C23.1133 35.9385 23.4761 35.903 23.8059 35.7676C24.1356 35.6321 24.4174 35.4026 24.6157 35.1083C24.814 34.8139 24.9198 34.4678 24.9198 34.1138C24.9198 33.639 24.7297 33.1837 24.3913 32.848C24.0529 32.5123 23.5939 32.3237 23.1153 32.3237Z" fill="#00DB96"/>
<path d="M18.413 32.53C18.0141 32.53 17.6242 32.6474 17.2925 32.8672C16.9609 33.087 16.7024 33.3995 16.5498 33.765C16.3971 34.1306 16.3572 34.5328 16.435 34.9209C16.5128 35.309 16.7049 35.6655 16.9869 35.9453C17.269 36.225 17.6283 36.4156 18.0195 36.4928C18.4108 36.57 18.8163 36.5303 19.1848 36.3789C19.5533 36.2275 19.8683 35.9711 20.0899 35.6421C20.3115 35.3131 20.4298 34.9263 20.4298 34.5306C20.4298 34 20.2173 33.4912 19.8391 33.116C19.4608 32.7408 18.9479 32.53 18.413 32.53Z" fill="#0EDA65"/>
<path d="M13.9468 31.509C13.5684 31.509 13.1986 31.6203 12.884 31.8288C12.5695 32.0374 12.3243 32.3337 12.1795 32.6804C12.0347 33.0272 11.9968 33.4087 12.0706 33.7768C12.1444 34.1449 12.3266 34.483 12.5942 34.7484C12.8617 35.0138 13.2025 35.1945 13.5736 35.2677C13.9447 35.3409 14.3293 35.3034 14.6788 35.1598C15.0284 35.0161 15.3271 34.7729 15.5373 34.4609C15.7475 34.1488 15.8597 33.7819 15.8597 33.4066C15.8597 32.9033 15.6582 32.4207 15.2994 32.0648C14.9407 31.709 14.4541 31.509 13.9468 31.509Z" fill="#4DE230"/>
<path d="M10.199 29.1229C9.83161 29.1229 9.47252 29.231 9.16708 29.4334C8.86164 29.6359 8.62358 29.9236 8.483 30.2603C8.34242 30.597 8.30564 30.9674 8.3773 31.3248C8.44897 31.6822 8.62587 32.0105 8.88562 32.2682C9.14538 32.5259 9.47632 32.7013 9.83661 32.7724C10.1969 32.8435 10.5704 32.807 10.9097 32.6676C11.2491 32.5281 11.5392 32.292 11.7433 31.989C11.9474 31.686 12.0563 31.3298 12.0563 30.9654C12.0563 30.4767 11.8606 30.0081 11.5123 29.6626C11.164 29.317 10.6916 29.1229 10.199 29.1229Z" fill="#84E90C"/>
<path d="M7.43644 25.7305C7.08801 25.7305 6.74741 25.833 6.4577 26.025C6.16799 26.217 5.94219 26.4899 5.80885 26.8093C5.67551 27.1286 5.64062 27.48 5.7086 27.819C5.77657 28.158 5.94436 28.4694 6.19073 28.7138C6.43711 28.9582 6.75102 29.1246 7.09275 29.192C7.43449 29.2595 7.78871 29.2249 8.11062 29.0926C8.43253 28.9603 8.70767 28.7363 8.90125 28.4489C9.09482 28.1616 9.19815 27.8237 9.19815 27.478C9.19815 27.0146 9.01254 26.5701 8.68216 26.2423C8.35177 25.9146 7.90368 25.7305 7.43644 25.7305Z" fill="#90E807"/>
<path d="M5.92663 21.5208C5.59097 21.5208 5.26284 21.6194 4.98369 21.8044C4.70455 21.9893 4.48692 22.2521 4.3583 22.5597C4.22968 22.8672 4.19584 23.2057 4.26106 23.5323C4.32628 23.859 4.48763 24.1591 4.72473 24.3948C4.96183 24.6305 5.26403 24.7912 5.59315 24.8566C5.92228 24.922 6.26357 24.8892 6.57389 24.7622C6.88421 24.6353 7.14964 24.42 7.33665 24.1435C7.52366 23.867 7.62385 23.5417 7.62457 23.2087C7.62505 22.9872 7.58149 22.7678 7.49637 22.563C7.41126 22.3582 7.28626 22.1721 7.12855 22.0154C6.97083 21.8586 6.78349 21.7342 6.57725 21.6493C6.37101 21.5644 6.14992 21.5208 5.92663 21.5208Z" fill="#6FDF1D"/>
<path d="M5.92664 16.8378C5.59086 16.8379 5.26267 16.9369 4.98357 17.1221C4.70446 17.3072 4.48697 17.5704 4.3586 17.8782C4.23023 18.1859 4.19673 18.5246 4.26235 18.8512C4.32797 19.1779 4.48975 19.4779 4.72725 19.7134C4.96475 19.9489 5.26729 20.1092 5.59664 20.1741C5.92598 20.239 6.26733 20.2056 6.57754 20.0781C6.88774 19.9506 7.15287 19.7347 7.3394 19.4578C7.52593 19.1808 7.62549 18.8552 7.62549 18.5221C7.62549 18.0754 7.4466 17.647 7.12818 17.3311C6.80975 17.0152 6.37787 16.8378 5.92755 16.8378" fill="#5AD92B"/>
<path d="M7.43631 12.5154C7.08978 12.5152 6.75099 12.617 6.46278 12.8078C6.17458 12.9987 5.94992 13.2701 5.81723 13.5876C5.68454 13.9052 5.64977 14.2546 5.71733 14.5918C5.78489 14.9289 5.95174 15.2386 6.19677 15.4817C6.4418 15.7248 6.75401 15.8903 7.09388 15.9573C7.43376 16.0243 7.78604 15.9898 8.10616 15.8582C8.42627 15.7266 8.69984 15.5037 8.89225 15.2178C9.08466 14.9319 9.18726 14.5959 9.18708 14.2521C9.18708 13.7915 9.00262 13.3498 8.67429 13.0241C8.34596 12.6984 7.90064 12.5154 7.43631 12.5154Z" fill="#3FD13F"/>
<path d="M10.199 8.9245C9.83161 8.9245 9.47252 9.03256 9.16708 9.23501C8.86164 9.43746 8.62358 9.72521 8.483 10.0619C8.34242 10.3985 8.30564 10.769 8.3773 11.1264C8.44897 11.4838 8.62587 11.8121 8.88562 12.0698C9.14538 12.3274 9.47632 12.5029 9.83661 12.574C10.1969 12.6451 10.5704 12.6086 10.9097 12.4692C11.2491 12.3297 11.5392 12.0936 11.7433 11.7906C11.9474 11.4876 12.0563 11.1314 12.0563 10.767C12.0563 10.2783 11.8606 9.80967 11.5123 9.46414C11.164 9.11861 10.6916 8.9245 10.199 8.9245Z" fill="#1DC753"/>
<path d="M13.9468 6.43176C13.5684 6.43176 13.1986 6.54305 12.884 6.75156C12.5695 6.96007 12.3243 7.25643 12.1795 7.60317C12.0347 7.94991 11.9968 8.33144 12.0706 8.69954C12.1444 9.06763 12.3266 9.40575 12.5942 9.67113C12.8617 9.93651 13.2025 10.1172 13.5736 10.1905C13.9447 10.2637 14.3293 10.2261 14.6788 10.0825C15.0284 9.93885 15.3271 9.69563 15.5373 9.38358C15.7475 9.07152 15.8597 8.70464 15.8597 8.32934C15.8597 7.82607 15.6582 7.34341 15.2994 6.98755C14.9407 6.63169 14.4541 6.43176 13.9468 6.43176Z" fill="#11C247"/>
<path d="M18.4125 5.20014C18.0135 5.19942 17.6232 5.31615 17.291 5.53554C16.9589 5.75493 16.6999 6.06713 16.5467 6.43262C16.3935 6.79812 16.353 7.20049 16.4304 7.5888C16.5078 7.97711 16.6996 8.33392 16.9815 8.61407C17.2634 8.89422 17.6227 9.08512 18.0141 9.1626C18.4054 9.24009 18.8111 9.20068 19.1798 9.04937C19.5485 8.89806 19.8637 8.64164 20.0855 8.31257C20.3072 7.98349 20.4256 7.59656 20.4256 7.20072C20.4256 6.67014 20.2131 6.16128 19.8349 5.78609C19.4567 5.41091 18.9437 5.20014 18.4088 5.20014" fill="#0FC13A"/>
<path d="M23.1153 5.82507C22.7584 5.82507 22.4095 5.93006 22.1128 6.12675C21.816 6.32344 21.5847 6.60301 21.4482 6.9301C21.3116 7.25719 21.2758 7.61711 21.3455 7.96434C21.4151 8.31158 21.587 8.63053 21.8393 8.88087C22.0917 9.13122 22.4132 9.3017 22.7633 9.37077C23.1133 9.43984 23.4761 9.40439 23.8059 9.26891C24.1356 9.13342 24.4174 8.90399 24.6157 8.60962C24.814 8.31525 24.9198 7.96916 24.9198 7.61512C24.9198 7.14037 24.7297 6.68506 24.3913 6.34937C24.0529 6.01367 23.5939 5.82507 23.1153 5.82507Z" fill="#0CBF31"/>
<path d="M27.2467 7.95551C26.9422 7.95533 26.6445 8.04474 26.3912 8.21243C26.1379 8.38012 25.9405 8.61856 25.8238 8.89758C25.7071 9.17661 25.6765 9.48368 25.7358 9.77997C25.7951 10.0763 25.9417 10.3484 26.1569 10.5621C26.3722 10.7758 26.6465 10.9213 26.9451 10.9803C27.2438 11.0393 27.5534 11.0091 27.8347 10.8935C28.1161 10.778 28.3565 10.5823 28.5257 10.3311C28.6949 10.08 28.7852 9.78467 28.7852 9.4826C28.7852 9.07775 28.6232 8.68946 28.3347 8.4031C28.0462 8.11674 27.6548 7.95575 27.2467 7.95551Z" fill="#07BD24"/>
<path d="M30.5126 11.3618C30.2817 11.3618 30.0559 11.4297 29.8639 11.557C29.6718 11.6843 29.5221 11.8652 29.4337 12.0769C29.3454 12.2885 29.3222 12.5215 29.3673 12.7462C29.4123 12.9709 29.5236 13.1773 29.6869 13.3393C29.8502 13.5013 30.0583 13.6116 30.2848 13.6563C30.5113 13.701 30.7461 13.6781 30.9595 13.5904C31.1729 13.5027 31.3553 13.3543 31.4836 13.1638C31.6119 12.9733 31.6804 12.7493 31.6804 12.5202C31.6804 12.2129 31.5574 11.9183 31.3384 11.701C31.1194 11.4838 30.8224 11.3618 30.5126 11.3618Z" fill="#00BA15"/>
<path d="M34.6878 29.9091C34.394 29.9091 34.1068 29.9955 33.8624 30.1574C33.6181 30.3194 33.4277 30.5496 33.3152 30.8189C33.2028 31.0882 33.1734 31.3845 33.2307 31.6704C33.288 31.9563 33.4295 32.2189 33.6373 32.425C33.8451 32.6311 34.1098 32.7714 34.398 32.8283C34.6862 32.8852 34.9849 32.856 35.2564 32.7444C35.5279 32.6329 35.7599 32.444 35.9231 32.2016C36.0864 31.9593 36.1735 31.6743 36.1735 31.3828C36.1735 30.992 36.017 30.6171 35.7384 30.3407C35.4598 30.0643 35.0819 29.9091 34.6878 29.9091Z" fill="#00CFC4"/>
<path d="M31.6099 32.8611C31.2315 32.8611 30.8617 32.9724 30.5471 33.1809C30.2325 33.3895 29.9873 33.6858 29.8426 34.0325C29.6978 34.3793 29.6599 34.7608 29.7337 35.1289C29.8075 35.497 29.9897 35.8351 30.2572 36.1005C30.5248 36.3659 30.8656 36.5466 31.2367 36.6198C31.6077 36.693 31.9924 36.6555 32.3419 36.5119C32.6915 36.3682 32.9902 36.125 33.2004 35.813C33.4106 35.5009 33.5228 35.134 33.5228 34.7587C33.5228 34.2554 33.3212 33.7728 32.9625 33.4169C32.6038 33.0611 32.1172 32.8611 31.6099 32.8611Z" fill="#00DBC3"/>
<path d="M27.7814 35.2871C27.3825 35.2871 26.9926 35.4044 26.661 35.6243C26.3293 35.8441 26.0708 36.1565 25.9182 36.5221C25.7655 36.8877 25.7256 37.2899 25.8034 37.678C25.8812 38.0661 26.0733 38.4225 26.3553 38.7023C26.6374 38.9821 26.9967 39.1726 27.388 39.2498C27.7792 39.327 28.1847 39.2874 28.5532 39.136C28.9217 38.9846 29.2367 38.7282 29.4583 38.3992C29.6799 38.0702 29.7982 37.6834 29.7982 37.2877C29.7982 36.7571 29.5857 36.2483 29.2075 35.8731C28.8293 35.4979 28.3163 35.2871 27.7814 35.2871Z" fill="#00E0BC"/>
<path d="M23.3618 36.92C22.9834 36.92 22.6136 37.0313 22.299 37.2398C21.9844 37.4484 21.7392 37.7447 21.5945 38.0914C21.4497 38.4382 21.4118 38.8197 21.4856 39.1878C21.5594 39.5559 21.7416 39.894 22.0091 40.1594C22.2767 40.4248 22.6175 40.6055 22.9886 40.6787C23.3596 40.7519 23.7443 40.7144 24.0938 40.5708C24.4433 40.4271 24.7421 40.1839 24.9523 39.8719C25.1625 39.5598 25.2747 39.1929 25.2747 38.8176C25.2747 38.3143 25.0731 37.8317 24.7144 37.4758C24.3557 37.12 23.8691 36.92 23.3618 36.92Z" fill="#00DB94"/>
<path d="M18.5332 37.4965C18.1974 37.4965 17.8691 37.5953 17.5899 37.7803C17.3107 37.9654 17.093 38.2285 16.9645 38.5362C16.836 38.844 16.8024 39.1827 16.8679 39.5094C16.9334 39.8361 17.0951 40.1362 17.3326 40.3718C17.57 40.6073 17.8726 40.7678 18.202 40.8327C18.5313 40.8977 18.8727 40.8644 19.183 40.7369C19.4932 40.6094 19.7584 40.3935 19.945 40.1165C20.1316 39.8396 20.2311 39.5139 20.2311 39.1808C20.2311 38.7341 20.0523 38.3057 19.7338 37.9898C19.4154 37.6739 18.9835 37.4965 18.5332 37.4965Z" fill="#01D97B"/>
<path d="M13.8621 36.7944C13.5576 36.7944 13.26 36.8839 13.0068 37.0517C12.7536 37.2195 12.5563 37.458 12.4398 37.7371C12.3233 38.0161 12.2928 38.3232 12.3522 38.6194C12.4116 38.9156 12.5582 39.1877 12.7735 39.4013C12.9888 39.6149 13.2631 39.7603 13.5617 39.8192C13.8604 39.8781 14.1699 39.8479 14.4512 39.7323C14.7325 39.6167 14.9729 39.421 15.1421 39.1699C15.3112 38.9187 15.4015 38.6235 15.4015 38.3215C15.4015 37.9164 15.2393 37.528 14.9506 37.2416C14.6619 36.9553 14.2704 36.7944 13.8621 36.7944Z" fill="#27DD4C"/>
<path d="M9.67906 34.9838C9.40197 34.9838 9.1311 35.0653 8.90071 35.218C8.67032 35.3707 8.49076 35.5877 8.38472 35.8417C8.27868 36.0956 8.25094 36.3751 8.305 36.6446C8.35905 36.9142 8.49248 37.1619 8.68841 37.3562C8.88435 37.5506 9.13398 37.6829 9.40574 37.7366C9.67751 37.7902 9.95919 37.7627 10.2152 37.6575C10.4712 37.5523 10.69 37.3742 10.8439 37.1456C10.9979 36.9171 11.08 36.6484 11.08 36.3735C11.08 36.0049 10.9324 35.6514 10.6697 35.3908C10.407 35.1302 10.0506 34.9838 9.67906 34.9838Z" fill="#6EE61B"/>
<path d="M6.14742 32.2189C5.89339 32.2189 5.64507 32.2936 5.43386 32.4336C5.22264 32.5736 5.05802 32.7726 4.96081 33.0054C4.86359 33.2382 4.83816 33.4944 4.88772 33.7415C4.93728 33.9887 5.0596 34.2157 5.23922 34.3939C5.41885 34.5721 5.64771 34.6934 5.89685 34.7426C6.146 34.7917 6.40424 34.7665 6.63894 34.6701C6.87363 34.5736 7.07422 34.4103 7.21535 34.2008C7.35648 33.9913 7.43181 33.745 7.43181 33.493C7.43181 33.1551 7.29649 32.831 7.05562 32.592C6.81475 32.3531 6.48806 32.2189 6.14742 32.2189Z" fill="#94EB03"/>
<path d="M3.42584 28.7433C3.2064 28.7433 2.99189 28.8078 2.80944 28.9288C2.62698 29.0497 2.48478 29.2216 2.4008 29.4227C2.31683 29.6238 2.29485 29.8451 2.33766 30.0586C2.38047 30.2721 2.48614 30.4682 2.64131 30.6221C2.79647 30.776 2.99416 30.8809 3.20938 30.9233C3.4246 30.9658 3.64769 30.944 3.85042 30.8607C4.05315 30.7774 4.22643 30.6363 4.34834 30.4553C4.47025 30.2743 4.53532 30.0616 4.53532 29.8439C4.53532 29.552 4.41843 29.272 4.21036 29.0656C4.00229 28.8592 3.72009 28.7433 3.42584 28.7433Z" fill="#92E905"/>
<path d="M1.67509 24.5925C1.47889 24.5925 1.2871 24.6502 1.12397 24.7583C0.960842 24.8664 0.833697 25.0201 0.758616 25.1999C0.683535 25.3797 0.663891 25.5776 0.702167 25.7685C0.740442 25.9594 0.83492 26.1347 0.973651 26.2723C1.11238 26.4099 1.28914 26.5036 1.48156 26.5416C1.67399 26.5796 1.87344 26.5601 2.0547 26.4856C2.23596 26.4111 2.39089 26.285 2.49989 26.1232C2.60889 25.9614 2.66707 25.7711 2.66707 25.5765C2.66707 25.3155 2.56256 25.0652 2.37653 24.8807C2.19049 24.6961 1.93818 24.5925 1.67509 24.5925Z" fill="#74E019"/>
<path d="M1.05539 19.9381C0.870723 19.9381 0.690205 19.9924 0.536661 20.0942C0.383118 20.196 0.263445 20.3406 0.192777 20.5099C0.122109 20.6791 0.103619 20.8653 0.139645 21.045C0.175671 21.2247 0.264596 21.3897 0.395174 21.5192C0.525752 21.6488 0.692119 21.737 0.873236 21.7727C1.05435 21.8084 1.24209 21.7901 1.41269 21.72C1.5833 21.6499 1.72912 21.5312 1.83172 21.3789C1.93431 21.2266 1.98907 21.0475 1.98907 20.8643C1.98907 20.6187 1.8907 20.3831 1.7156 20.2094C1.5405 20.0357 1.30302 19.9381 1.05539 19.9381Z" fill="#5FDA27"/>
<path d="M1.67509 15.1667C1.47889 15.1667 1.2871 15.2245 1.12397 15.3326C0.960842 15.4407 0.833697 15.5944 0.758616 15.7742C0.683535 15.954 0.663891 16.1519 0.702167 16.3428C0.740442 16.5336 0.83492 16.709 0.973651 16.8466C1.11238 16.9842 1.28914 17.0779 1.48156 17.1159C1.67399 17.1539 1.87344 17.1344 2.0547 17.0599C2.23596 16.9854 2.39089 16.8593 2.49989 16.6975C2.60889 16.5357 2.66707 16.3454 2.66707 16.1508C2.66707 15.8898 2.56256 15.6395 2.37653 15.455C2.19049 15.2704 1.93818 15.1667 1.67509 15.1667Z" fill="#50D633"/>
<path d="M3.42584 10.7871C3.2064 10.7871 2.99189 10.8517 2.80944 10.9726C2.62698 11.0935 2.48478 11.2654 2.4008 11.4665C2.31683 11.6676 2.29485 11.8889 2.33766 12.1024C2.38047 12.3159 2.48614 12.512 2.64131 12.6659C2.79647 12.8199 2.99416 12.9247 3.20938 12.9671C3.4246 13.0096 3.64769 12.9878 3.85042 12.9045C4.05315 12.8212 4.22643 12.6802 4.34834 12.4992C4.47025 12.3182 4.53532 12.1054 4.53532 11.8877C4.53532 11.5958 4.41843 11.3159 4.21036 11.1095C4.00229 10.9031 3.72009 10.7871 3.42584 10.7871Z" fill="#37CF45"/>
<path d="M6.14742 6.96655C5.89339 6.96655 5.64507 7.04128 5.43386 7.18128C5.22264 7.32127 5.05802 7.52026 4.96081 7.75307C4.86359 7.98588 4.83816 8.24205 4.88772 8.4892C4.93728 8.73635 5.0596 8.96337 5.23922 9.14155C5.41885 9.31974 5.64771 9.44108 5.89685 9.49025C6.146 9.53941 6.40424 9.51418 6.63894 9.41774C6.87363 9.32131 7.07422 9.15801 7.21535 8.94848C7.35648 8.73896 7.43181 8.49263 7.43181 8.24064C7.43181 8.07332 7.39859 7.90765 7.33404 7.75307C7.26949 7.59849 7.17488 7.45803 7.05562 7.33972C6.93635 7.22141 6.79476 7.12757 6.63894 7.06354C6.48311 6.99951 6.31609 6.96655 6.14742 6.96655Z" fill="#20C851"/>
<path d="M9.67906 3.96765C9.40197 3.96765 9.1311 4.04916 8.90071 4.20187C8.67032 4.35457 8.49076 4.57162 8.38472 4.82557C8.27868 5.07951 8.25094 5.35894 8.305 5.62853C8.35905 5.89811 8.49248 6.14574 8.68841 6.3401C8.88435 6.53446 9.13398 6.66682 9.40574 6.72045C9.67751 6.77407 9.95919 6.74655 10.2152 6.64136C10.4712 6.53617 10.69 6.35805 10.8439 6.1295C10.9979 5.90096 11.08 5.63227 11.08 5.3574C11.08 4.98882 10.9324 4.63533 10.6697 4.3747C10.407 4.11407 10.0506 3.96765 9.67906 3.96765Z" fill="#0FC138"/>
<path d="M13.8621 1.88403C13.5576 1.88403 13.26 1.9736 13.0068 2.1414C12.7536 2.30919 12.5563 2.54769 12.4398 2.82674C12.3233 3.10578 12.2928 3.41282 12.3522 3.70905C12.4116 4.00528 12.5582 4.27738 12.7735 4.49095C12.9888 4.70452 13.2631 4.84996 13.5617 4.90888C13.8604 4.96781 14.1699 4.93757 14.4512 4.82198C14.7325 4.7064 14.9729 4.51067 15.1421 4.25954C15.3112 4.00841 15.4015 3.71316 15.4015 3.41113C15.4015 3.00612 15.2393 2.6177 14.9506 2.33131C14.6619 2.04492 14.2704 1.88403 13.8621 1.88403Z" fill="#10C143"/>
<path d="M18.5332 0.865601C18.1974 0.865601 17.8691 0.964385 17.5899 1.14946C17.3107 1.33454 17.093 1.59759 16.9645 1.90536C16.836 2.21313 16.8024 2.55179 16.8679 2.87852C16.9334 3.20525 17.0951 3.50537 17.3326 3.74092C17.57 3.97648 17.8726 4.1369 18.202 4.20189C18.5313 4.26688 18.8727 4.23352 19.183 4.10604C19.4932 3.97856 19.7584 3.76267 19.945 3.48569C20.1316 3.2087 20.2311 2.88305 20.2311 2.54993C20.2311 2.10321 20.0523 1.6748 19.7338 1.35893C19.4154 1.04306 18.9835 0.865601 18.5332 0.865601Z" fill="#0FC139"/>
<path d="M23.3618 1.02075C22.9834 1.02075 22.6136 1.13204 22.299 1.34055C21.9844 1.54906 21.7392 1.84542 21.5945 2.19216C21.4497 2.53889 21.4118 2.92043 21.4856 3.28853C21.5594 3.65662 21.7416 3.99474 22.0091 4.26012C22.2767 4.5255 22.6175 4.70622 22.9886 4.77944C23.3596 4.85266 23.7443 4.81508 24.0938 4.67146C24.4433 4.52784 24.7421 4.28462 24.9523 3.97257C25.1625 3.66051 25.2747 3.29363 25.2747 2.91833C25.2747 2.41506 25.0731 1.9324 24.7144 1.57654C24.3557 1.22067 23.8691 1.02075 23.3618 1.02075Z" fill="#0FC138"/>
<path d="M27.7814 2.44305C27.3825 2.44305 26.9926 2.56039 26.661 2.78021C26.3293 3.00004 26.0708 3.31249 25.9182 3.67805C25.7655 4.04361 25.7256 4.44586 25.8034 4.83394C25.8812 5.22201 26.0733 5.57848 26.3553 5.85827C26.6374 6.13806 26.9967 6.3286 27.388 6.40579C27.7792 6.48298 28.1847 6.44336 28.5532 6.29194C28.9217 6.14052 29.2367 5.8841 29.4583 5.55511C29.6799 5.22611 29.7982 4.83932 29.7982 4.44364C29.7982 3.91305 29.5857 3.4042 29.2075 3.02901C28.8293 2.65383 28.3163 2.44305 27.7814 2.44305Z" fill="#08BE28"/>
<path d="M31.6099 5.07965C31.2315 5.07965 30.8617 5.19094 30.5471 5.39945C30.2325 5.60796 29.9873 5.90432 29.8426 6.25106C29.6978 6.59779 29.6599 6.97933 29.7337 7.34743C29.8075 7.71552 29.9897 8.05364 30.2572 8.31902C30.5248 8.5844 30.8656 8.76512 31.2367 8.83834C31.6077 8.91156 31.9924 8.87398 32.3419 8.73036C32.6915 8.58674 32.9902 8.34352 33.2004 8.03146C33.4106 7.71941 33.5228 7.35253 33.5228 6.97723C33.5228 6.47396 33.3212 5.9913 32.9625 5.63544C32.6038 5.27957 32.1172 5.07965 31.6099 5.07965Z" fill="#02BB19"/>
<path d="M34.6878 8.87421C34.394 8.87421 34.1068 8.96064 33.8624 9.12259C33.6181 9.28453 33.4277 9.5147 33.3152 9.784C33.2028 10.0533 33.1734 10.3496 33.2307 10.6355C33.288 10.9214 33.4295 11.184 33.6373 11.3901C33.8451 11.5962 34.1098 11.7366 34.398 11.7935C34.6862 11.8503 34.9849 11.8211 35.2564 11.7096C35.5279 11.598 35.7599 11.4091 35.9231 11.1668C36.0864 10.9244 36.1735 10.6395 36.1735 10.348C36.1735 9.95712 36.017 9.58226 35.7384 9.30587C35.4598 9.02948 35.0819 8.87421 34.6878 8.87421Z" fill="#00BA14"/>
</g>
<defs>
<clipPath id="clip0_24_349">
<rect width="196.757" height="40" fill="white" transform="translate(0.121704 0.865601)"/>
</clipPath>
</defs>
</svg>
