<svg width="27" height="22" viewBox="0 0 27 22" fill="none" xmlns="http://www.w3.org/2000/svg">
<path d="M17.6994 6.62664L19.9651 4.36096L20.116 3.40695C15.9874 -0.347264 9.42427 0.0784236 5.70243 4.29519C4.6686 5.46636 3.90163 6.92649 3.49264 8.43427L4.3041 8.31993L8.83537 7.57271L9.18521 7.21493C11.2008 5.00127 14.6089 4.70346 16.9362 6.58694L17.6994 6.62664Z" fill="#EA4335"/>
<path d="M23.1926 8.36764C22.6718 6.44985 21.6026 4.72576 20.116 3.40695L16.9362 6.58694C18.2789 7.68409 19.0438 9.33691 19.0111 11.0705V11.635C20.574 11.635 21.8412 12.9021 21.8412 14.465C21.8412 16.0281 20.574 17.2634 19.0111 17.2634H13.3429L12.7864 17.8676V21.2621L13.3429 21.7947H19.0111C23.0765 21.8263 26.3979 18.5881 26.4296 14.5226C26.4487 12.0584 25.2338 9.74825 23.1926 8.36764Z" fill="#4285F4"/>
<path d="M7.6827 21.7947L13.3429 21.7947V17.2634L7.6827 17.2634C7.27941 17.2633 6.88885 17.1766 6.52211 17.009L5.7191 17.2554L3.43753 19.5211L3.23879 20.2922C4.51829 21.2584 6.07942 21.8016 7.6827 21.7947Z" fill="#34A853"/>
<path d="M7.6827 7.09569C3.61713 7.11993 0.341136 10.4354 0.365368 14.5009C0.378909 16.7712 1.43921 18.9083 3.23879 20.2922L6.52211 17.009C5.09762 16.3654 4.46464 14.689 5.10821 13.2647C5.75168 11.8403 7.42816 11.2073 8.85245 11.8508C9.48014 12.1343 9.9828 12.6371 10.2663 13.2647L13.5497 9.98143C12.1527 8.15518 9.98198 7.08745 7.6827 7.09569Z" fill="#FBBC05"/>
</svg>
