<svg width="49" height="31" viewBox="0 0 49 31" fill="none" xmlns="http://www.w3.org/2000/svg">
<path d="M42.7127 21.0748C45.6732 21.0748 48.0716 18.6764 48.0716 15.7159C48.0716 12.7555 45.6732 10.3196 42.7127 10.3196H35.6675V21.0748H42.7127Z" fill="#FFF100"/>
<path d="M42.7127 21.0748C45.6732 21.0748 48.0716 18.6764 48.0716 15.7159C48.0716 12.7555 45.6732 10.3196 42.7127 10.3196H35.6675V21.0748H42.7127Z" fill="#FFF100"/>
<path d="M0.928711 15.7066C0.928711 23.9884 7.63664 30.6964 15.9185 30.6964C24.2003 30.6964 30.9083 23.9884 30.9083 15.7066C30.9083 7.42472 24.2003 0.716797 15.9185 0.716797C7.63664 0.716797 0.928711 7.42472 0.928711 15.7066Z" fill="#FFF100"/>
<path d="M0.928711 15.7066C0.928711 23.9884 7.63664 30.6964 15.9185 30.6964C24.2003 30.6964 30.9083 23.9884 30.9083 15.7066C30.9083 7.42472 24.2003 0.716797 15.9185 0.716797C7.63664 0.716797 0.928711 7.42472 0.928711 15.7066Z" fill="#FFF100"/>
</svg>
