<svg width="49" height="48" viewBox="0 0 49 48" fill="none" xmlns="http://www.w3.org/2000/svg">
<path d="M45.4882 0.885369C44.9569 0.521978 44.36 0.264714 43.7311 0.127694C43.086 -0.0142347 42.4207 -0.0398675 41.7666 0.0519507C41.0811 0.147654 40.4167 0.3592 39.8021 0.677678L36.9345 2.26057L34.061 3.84033L31.1847 5.42032L28.3113 7.01431C27.6887 7.37859 27.0212 7.6615 26.3265 7.85617C25.6542 8.05115 24.9588 8.15326 24.2588 8.15938C23.5601 8.16793 22.8629 8.08195 22.1872 7.90393C21.49 7.71929 20.8201 7.44379 20.1947 7.0845L17.4081 5.56916L14.6215 4.05381L11.835 2.544L9.04548 1.02865C8.01216 0.369037 6.77638 0.102892 5.56321 0.279181C4.4436 0.453267 3.4054 0.969936 2.59137 1.75811C1.77068 2.53603 1.21248 3.55017 0.99449 4.65975C0.770496 5.86284 0.99111 7.10655 1.61491 8.15938L2.59137 9.94973L4.74403 13.8785L6.89668 17.8073L7.87604 19.5976C8.23994 20.2135 8.5224 20.8738 8.71742 21.5621C8.90227 22.2351 8.99679 22.9296 8.9982 23.6274C8.99693 24.3272 8.9024 25.0237 8.71742 25.6986C8.54406 26.4089 8.27706 27.093 7.92332 27.733L6.39398 30.5869L4.86174 33.4326L3.32951 36.2754L1.79727 39.1208C1.53985 39.5872 1.34164 40.0841 1.20773 40.5997C1.08142 41.0869 1.02522 41.5896 1.03984 42.0927C1.05865 42.5869 1.15345 43.0753 1.32062 43.5407C1.48929 44.0286 1.73325 44.487 2.04428 44.899C2.4231 45.4196 2.8942 45.8667 3.43372 46.218C3.96992 46.5743 4.56389 46.8336 5.1898 46.9841C5.83205 47.1416 6.49718 47.1842 7.15431 47.1103C7.83986 47.0315 8.50555 46.829 9.11881 46.5125L12.1022 44.8766L15.0818 43.2433L18.0623 41.6073L21.0428 39.9711C20.1465 39.3274 19.3174 38.594 18.5698 37.7823C17.8205 36.9665 17.1338 36.096 16.5137 35.1781C15.8879 34.2576 15.315 33.2979 14.7846 32.3213C14.3103 31.4513 13.8701 30.5702 13.4463 29.6946C14.1956 31.0978 15.8088 32.5879 17.905 34.0836C20.4549 35.8382 23.1126 37.4315 25.8615 38.8543C28.7519 40.3921 31.718 41.8458 34.2801 43.1311C36.8422 44.4164 39.0138 45.5303 40.3019 46.3806C41.3418 46.996 42.5774 47.1908 43.7562 46.925C44.8494 46.6532 45.831 46.047 46.563 45.1909C47.3296 44.3223 47.8275 43.25 47.9969 42.104C48.1734 40.8926 47.9233 39.6575 47.2896 38.6101L45.5277 35.4222L41.6692 28.4065L37.8096 21.3908L36.067 18.2393C35.6937 17.6107 35.2884 17.0021 34.8523 16.4154C34.4189 15.8397 33.9505 15.2914 33.4493 14.7737C32.9513 14.2582 32.4187 13.7772 31.8553 13.3341C31.2825 12.8831 30.6764 12.476 30.0423 12.1161C31.0273 12.5651 32.0291 13.031 33.0113 13.5333C34.0009 14.0318 34.9639 14.5817 35.8963 15.1806C36.8275 15.7773 37.7096 16.4472 38.5343 17.1842C39.3662 17.9334 40.1141 18.7709 40.7651 19.6818L42.3504 16.7801L43.9366 13.8785L45.5277 10.9711L47.113 8.06941C47.3774 7.6332 47.5762 7.16036 47.7026 6.66623C47.8286 6.17611 47.8848 5.67073 47.8705 5.16487C47.8515 4.65423 47.7567 4.14932 47.5897 3.6664C47.42 3.17211 47.1729 2.70806 46.8573 2.29145C46.4979 1.73717 46.0328 1.25924 45.4882 0.885369ZM8.71452 41.5313C8.75551 42.1245 8.53997 42.707 8.12305 43.1309C7.70612 43.5548 7.12764 43.7795 6.53389 43.7484C5.32035 43.7585 4.32859 42.7827 4.31851 41.5692C4.30844 40.3557 5.28465 39.3639 6.49819 39.3538C7.09107 39.312 7.67298 39.5264 8.097 39.9429C8.52101 40.3594 8.74576 40.9378 8.71452 41.5313ZM4.36772 5.69821C4.32673 5.10505 4.54227 4.52281 4.9592 4.09891C5.37612 3.67501 5.9546 3.45 6.54836 3.48115C7.14152 3.44016 7.72327 3.65545 8.14717 4.07238C8.57107 4.4893 8.79681 5.06803 8.76566 5.66178C8.80665 6.25494 8.59111 6.83718 8.17419 7.26108C7.75726 7.68498 7.17878 7.90975 6.58503 7.8786C5.99187 7.91959 5.40915 7.7043 4.98525 7.28737C4.56135 6.87045 4.33658 6.29197 4.36772 5.69821ZM44.5764 41.464C44.5854 42.3543 44.0564 43.1625 43.2371 43.511C42.4178 43.8596 41.4697 43.68 40.8345 43.0561C40.1994 42.4322 40.0028 41.4869 40.3367 40.6615C40.6705 39.8361 41.4687 39.2934 42.359 39.2865C42.9519 39.2447 43.5338 39.4591 43.9579 39.8756C44.3819 40.2921 44.6076 40.8705 44.5764 41.464ZM29.7027 22.7827C29.0544 21.7219 27.9853 21.3066 26.7028 21.3206C24.9511 21.3793 23.4017 22.4738 22.7613 24.1053C22.1209 25.7368 22.512 27.5929 23.7561 28.8274C22.3659 28.6504 21.1051 27.9238 20.2545 26.8101C19.4039 25.6964 19.0347 24.2884 19.2298 22.9006C19.6423 20.1196 22.4069 17.9587 25.1851 18.3488C27.5367 18.7473 29.4698 20.4338 29.7027 22.7827ZM44.7336 5.51295C44.7032 6.69804 43.7384 7.64609 42.553 7.65668C41.3676 7.66727 40.3873 6.73663 40.3357 5.55227C40.3661 4.36718 41.3299 3.41913 42.5154 3.40854C43.7008 3.39795 44.6821 4.32859 44.7336 5.51295Z" fill="#FF694B"/>
</svg>
