<svg width="58" height="54" viewBox="0 0 58 54" fill="none" xmlns="http://www.w3.org/2000/svg">
<path d="M28.8381 48.0862C34.8076 48.0862 40.5326 45.7148 44.7537 41.4937C48.9748 37.2726 51.3462 31.5476 51.3462 25.578C51.3462 19.6085 48.9748 13.8835 44.7537 9.66235C40.5326 5.44126 34.8076 3.06987 28.8381 3.06987C22.8685 3.06987 17.1435 5.44126 12.9224 9.66235C8.70131 13.8835 6.32992 19.6085 6.32992 25.578C6.32992 31.5476 8.70131 37.2726 12.9224 41.4937C17.1435 45.7148 22.8685 48.0862 28.8381 48.0862Z" fill="#FFD21E"/>
<path d="M51.3462 25.578C51.3462 19.6085 48.9748 13.8835 44.7537 9.66235C40.5326 5.44126 34.8076 3.06987 28.8381 3.06987C22.8685 3.06987 17.1435 5.44126 12.9224 9.66235C8.70131 13.8835 6.32992 19.6085 6.32992 25.578C6.32992 31.5476 8.70131 37.2726 12.9224 41.4937C17.1435 45.7148 22.8685 48.0862 28.8381 48.0862C34.8076 48.0862 40.5326 45.7148 44.7537 41.4937C48.9748 37.2726 51.3462 31.5476 51.3462 25.578ZM3.73906 25.578C3.73906 22.282 4.38826 19.0182 5.64961 15.973C6.91095 12.9279 8.75973 10.161 11.0904 7.83034C13.421 5.49968 16.1879 3.6509 19.2331 2.38955C22.2782 1.12821 25.542 0.479004 28.8381 0.479004C32.1341 0.479004 35.3979 1.12821 38.443 2.38955C41.4882 3.6509 44.2551 5.49968 46.5858 7.83034C48.9164 10.161 50.7652 12.9279 52.0265 15.973C53.2879 19.0182 53.9371 22.282 53.9371 25.578C53.9371 32.2347 51.2927 38.6187 46.5858 43.3257C41.8788 48.0327 35.4947 50.677 28.8381 50.677C22.1814 50.677 15.7974 48.0327 11.0904 43.3257C6.38341 38.6187 3.73906 32.2347 3.73906 25.578Z" fill="#FF9D0B"/>
<path d="M36.1508 19.4571C36.9799 19.7421 37.3037 21.4391 38.1393 20.9987C38.7051 20.6983 39.1691 20.2369 39.4726 19.6727C39.7761 19.1086 39.9055 18.4672 39.8445 17.8295C39.7834 17.1919 39.5346 16.5866 39.1295 16.0904C38.7245 15.5941 38.1814 15.2291 37.5689 15.0416C36.9563 14.854 36.302 14.8523 35.6885 15.0367C35.075 15.2211 34.53 15.5832 34.1224 16.0774C33.7147 16.5715 33.4628 17.1754 33.3984 17.8128C33.3341 18.4501 33.4601 19.0922 33.7607 19.6579C34.1558 20.4028 35.4124 19.1915 36.1573 19.4506L36.1508 19.4571ZM20.8971 19.4571C20.068 19.7421 19.7377 21.4391 18.9086 20.9987C18.3428 20.6983 17.8788 20.2369 17.5753 19.6727C17.2718 19.1086 17.1423 18.4672 17.2034 17.8295C17.2645 17.1919 17.5133 16.5866 17.9183 16.0904C18.3234 15.5941 18.8665 15.2291 19.479 15.0416C20.0915 14.854 20.7459 14.8523 21.3594 15.0367C21.9728 15.2211 22.5178 15.5832 22.9255 16.0774C23.3331 16.5715 23.585 17.1754 23.6494 17.8128C23.7138 18.4501 23.5877 19.0922 23.2871 19.6579C22.892 20.4028 21.629 19.1915 20.8906 19.4506L20.8971 19.4571Z" fill="#3A3B45"/>
<path d="M28.6761 34.9958C35.0432 34.9958 37.0965 29.3218 37.0965 26.4071C37.0965 24.8914 36.0795 25.3707 34.4473 26.1739C32.9381 26.9188 30.9108 27.9487 28.6826 27.9487C24.0255 27.9487 20.2623 23.4924 20.2623 26.4071C20.2623 29.3218 22.3091 34.9958 28.6826 34.9958H28.6761Z" fill="#FF323D"/>
<path fill-rule="evenodd" clip-rule="evenodd" d="M23.7988 33.5125C24.1406 32.818 24.6218 32.2013 25.2124 31.701C25.8031 31.2006 26.4905 30.8273 27.2317 30.6043C27.4908 30.5266 27.7564 30.9735 28.0349 31.4334C28.294 31.8738 28.566 32.3207 28.8381 32.3207C29.1295 32.3207 29.421 31.8803 29.6995 31.4463C29.991 30.9929 30.276 30.5525 30.5545 30.6367C31.946 31.0784 33.1087 32.0482 33.7931 33.3377C36.2091 31.4334 37.0965 28.3243 37.0965 26.4071C37.0965 24.8914 36.0795 25.3707 34.4473 26.1739L34.3566 26.2193C32.8604 26.9641 30.8654 27.9487 28.6761 27.9487C26.4869 27.9487 24.4984 26.9641 22.9957 26.2193C21.3116 25.3837 20.2558 24.8591 20.2558 26.4071C20.2558 28.3826 21.2015 31.6277 23.7988 33.5125Z" fill="#3A3B45"/>
<path d="M44.0594 22.5014C44.6177 22.5014 45.1531 22.2796 45.5479 21.8848C45.9427 21.49 46.1645 20.9546 46.1645 20.3963C46.1645 19.838 45.9427 19.3025 45.5479 18.9078C45.1531 18.513 44.6177 18.2912 44.0594 18.2912C43.5011 18.2912 42.9657 18.513 42.5709 18.9078C42.1761 19.3025 41.9543 19.838 41.9543 20.3963C41.9543 20.9546 42.1761 21.49 42.5709 21.8848C42.9657 22.2796 43.5011 22.5014 44.0594 22.5014ZM13.9406 22.5014C14.4989 22.5014 15.0343 22.2796 15.4291 21.8848C15.8239 21.49 16.0457 20.9546 16.0457 20.3963C16.0457 19.838 15.8239 19.3025 15.4291 18.9078C15.0343 18.513 14.4989 18.2912 13.9406 18.2912C13.3823 18.2912 12.8469 18.513 12.4521 18.9078C12.0573 19.3025 11.8355 19.838 11.8355 20.3963C11.8355 20.9546 12.0573 21.49 12.4521 21.8848C12.8469 22.2796 13.3823 22.5014 13.9406 22.5014ZM9.60737 29.6262C8.55807 29.6262 7.62536 30.0537 6.97116 30.8375C6.41331 31.5265 6.10918 32.3863 6.1097 33.2729C5.70186 33.1502 5.27896 33.0849 4.85313 33.0786C3.84917 33.0786 2.94237 33.4607 2.30113 34.1538C1.72904 34.7479 1.36835 35.5137 1.2747 36.3331C1.18105 37.1525 1.35966 37.98 1.78295 38.6878C1.20972 39.1558 0.803041 39.7965 0.623541 40.5144C0.468089 41.0973 0.312637 42.328 1.14171 43.5845C0.830915 44.0624 0.645971 44.611 0.604071 45.1795C0.562171 45.748 0.664676 46.3178 0.902059 46.8361C1.56273 48.3388 3.21441 49.5176 6.4206 50.7871C8.40909 51.5774 10.2357 52.0826 10.2486 52.0891C12.556 52.7283 14.9343 53.0765 17.3281 53.1254C21.1238 53.1254 23.8377 51.9595 25.3987 49.6666C27.9118 45.9811 27.5556 42.6065 24.2976 39.3549C22.5034 37.5543 21.3051 34.9051 21.059 34.3222C20.5538 32.5993 19.2195 30.682 17.0108 30.682C16.4232 30.6913 15.8463 30.8407 15.328 31.1179C14.8098 31.395 14.3652 31.7919 14.0313 32.2754C13.3836 31.4593 12.7488 30.818 12.1788 30.4488C11.4182 29.9339 10.5256 29.6484 9.60737 29.6262ZM9.60737 32.2171C9.9377 32.2171 10.3458 32.3596 10.7862 32.6381C12.1723 33.519 14.8344 38.0984 15.8125 39.8796C16.1364 40.4755 16.6999 40.7281 17.1986 40.7281C18.2026 40.7281 18.9798 39.7371 17.2958 38.4741C14.7567 36.5762 15.6441 33.4737 16.8553 33.2858C16.9071 33.2729 16.9654 33.2729 17.0108 33.2729C18.1119 33.2729 18.5977 35.1707 18.5977 35.1707C18.5977 35.1707 20.0226 38.7461 22.471 41.1945C24.9129 43.6364 25.0424 45.5989 23.2612 48.2092C22.0435 49.9905 19.7182 50.5281 17.3281 50.5281C14.8603 50.5281 12.3213 49.9451 10.9028 49.5824C10.8316 49.563 2.19101 47.1211 3.28566 45.0484C3.46702 44.6986 3.77144 44.5561 4.1536 44.5561C5.69516 44.5561 8.4933 46.849 9.70452 46.849C9.97009 46.849 10.1579 46.7389 10.2421 46.4604C10.7538 44.6144 2.43067 43.8371 3.1302 41.1686C3.25975 40.6957 3.59008 40.5079 4.06292 40.5079C6.09675 40.5079 10.6696 44.0898 11.6282 44.0898C11.6995 44.0898 11.7578 44.0703 11.7837 44.025C12.263 43.2477 11.9974 42.7036 8.60988 40.6569C5.23528 38.6101 2.85816 37.3794 4.20541 35.9091C4.36087 35.7407 4.58109 35.663 4.85313 35.663C6.90639 35.663 11.7578 40.0804 11.7578 40.0804C11.7578 40.0804 13.0662 41.4406 13.8629 41.4406C14.0442 41.4406 14.1997 41.3758 14.3033 41.1945C14.8603 40.2488 9.08272 35.8702 8.75886 34.0631C8.53864 32.8324 8.91431 32.2171 9.60737 32.2171Z" fill="#FF9D0B"/>
<path d="M23.2612 48.2092C25.0424 45.5925 24.9129 43.6299 22.471 41.188C20.0226 38.7461 18.5977 35.1642 18.5977 35.1642C18.5977 35.1642 18.0665 33.0915 16.8553 33.2858C15.6441 33.4802 14.7567 36.5762 17.2958 38.4741C19.8283 40.3719 16.7905 41.6608 15.8125 39.8796C14.8409 38.0984 12.1723 33.519 10.7862 32.6381C9.40658 31.7637 8.435 32.2495 8.75886 34.0631C9.08272 35.8702 14.8668 40.2488 14.3033 41.188C13.7398 42.1401 11.7578 40.0804 11.7578 40.0804C11.7578 40.0804 5.55914 34.4388 4.20541 35.9091C2.85816 37.3794 5.23528 38.6101 8.60988 40.6569C11.9974 42.7036 12.263 43.2477 11.7837 44.025C11.2979 44.8022 3.82974 38.5 3.1302 41.175C2.43067 43.8372 10.7538 44.6079 10.2421 46.4539C9.72396 48.2999 4.37382 42.9692 3.28566 45.0419C2.18454 47.1211 10.8316 49.563 10.9028 49.5824C13.688 50.3078 20.7805 51.8429 23.2612 48.2092Z" fill="#FFD21E"/>
<path d="M48.3926 29.6262C49.4419 29.6262 50.3811 30.0537 51.0288 30.8375C51.5867 31.5265 51.8908 32.3863 51.8903 33.2729C52.3002 33.1497 52.7253 33.0843 53.1533 33.0786C54.1573 33.0786 55.0641 33.4607 55.7053 34.1538C56.2774 34.7479 56.6381 35.5137 56.7318 36.3331C56.8254 37.1525 56.6468 37.98 56.2235 38.6878C56.7944 39.1567 57.1987 39.7973 57.3765 40.5144C57.5319 41.0973 57.6874 42.328 56.8583 43.5845C57.1691 44.0624 57.354 44.611 57.3959 45.1795C57.4378 45.748 57.3353 46.3178 57.0979 46.8361C56.4373 48.3388 54.7856 49.5176 51.5859 50.7871C49.5909 51.5774 47.7643 52.0826 47.7514 52.0891C45.444 52.7283 43.0657 53.0765 40.6719 53.1254C36.8762 53.1254 34.1623 51.9595 32.6013 49.6666C30.0882 45.9811 30.4444 42.6065 33.7024 39.3549C35.5031 37.5543 36.7013 34.9051 36.9475 34.3222C37.4527 32.5993 38.7805 30.682 40.9892 30.682C41.5768 30.6913 42.1537 30.8407 42.672 31.1179C43.1902 31.395 43.6348 31.7919 43.9687 32.2754C44.6164 31.4593 45.2512 30.818 45.8277 30.4488C46.5865 29.9351 47.4766 29.6496 48.3926 29.6262ZM48.3926 32.2171C48.0623 32.2171 47.6607 32.3596 47.2138 32.6381C45.8342 33.519 43.1656 38.0984 42.1875 39.8796C42.0555 40.1338 41.8567 40.3471 41.6124 40.4966C41.3682 40.6461 41.0878 40.7262 40.8014 40.7281C39.8039 40.7281 39.0202 39.7371 40.7107 38.4741C43.2433 36.5762 42.3559 33.4737 41.1447 33.2858C41.0933 33.2775 41.0413 33.2731 40.9892 33.2729C39.8881 33.2729 39.4023 35.1707 39.4023 35.1707C39.4023 35.1707 37.9773 38.7461 35.5355 41.1945C33.0871 43.6364 32.9575 45.5989 34.7452 48.2092C35.9565 49.9905 38.2883 50.5281 40.6719 50.5281C43.1461 50.5281 45.6787 49.9451 47.1037 49.5824C47.1684 49.563 55.8155 47.1211 54.7208 45.0484C54.533 44.6986 54.235 44.5561 53.8529 44.5561C52.3113 44.5561 49.5067 46.849 48.302 46.849C48.0299 46.849 47.8421 46.7389 47.7643 46.4604C47.2462 44.6144 55.5693 43.8371 54.8698 41.1686C54.7467 40.6957 54.4164 40.5079 53.9371 40.5079C51.9033 40.5079 47.3304 44.0898 46.3718 44.0898C46.307 44.0898 46.2487 44.0703 46.2228 44.025C45.7435 43.2477 46.0026 42.7036 49.3836 40.6569C52.7712 38.6101 55.1483 37.3794 53.7881 35.9091C53.6391 35.7407 53.4189 35.663 53.1533 35.663C51.0936 35.663 46.2422 40.0804 46.2422 40.0804C46.2422 40.0804 44.9338 41.4406 44.1436 41.4406C44.0546 41.4446 43.9662 41.4237 43.8884 41.3802C43.8106 41.3367 43.7464 41.2724 43.7032 41.1945C43.1397 40.2488 48.9173 35.8702 49.2411 34.0631C49.4614 32.8324 49.0857 32.2171 48.3926 32.2171Z" fill="#FF9D0B"/>
<path d="M34.7452 48.2092C32.964 45.5925 33.0871 43.6299 35.5355 41.188C37.9773 38.7461 39.4023 35.1642 39.4023 35.1642C39.4023 35.1642 39.9335 33.0915 41.1512 33.2858C42.3559 33.4802 43.2433 36.5762 40.7107 38.4741C38.1717 40.3719 41.2159 41.6608 42.1875 39.8796C43.1656 38.0984 45.8342 33.519 47.2138 32.6381C48.5934 31.7637 49.5715 32.2495 49.2411 34.0631C48.9173 35.8702 43.1397 40.2488 43.7032 41.188C44.2602 42.1401 46.2422 40.0804 46.2422 40.0804C46.2422 40.0804 52.4473 34.4388 53.7946 35.9091C55.1418 37.3794 52.7712 38.6101 49.3901 40.6569C46.0026 42.7036 45.7435 43.2477 46.2163 44.025C46.7021 44.8022 54.1703 38.5 54.8698 41.175C55.5693 43.8372 47.2527 44.6079 47.7643 46.4539C48.2825 48.2999 53.6262 42.9692 54.7208 45.0419C55.8155 47.1211 47.1749 49.563 47.1037 49.5824C44.312 50.3078 37.2195 51.8429 34.7452 48.2092Z" fill="#FFD21E"/>
</svg>
