<svg width="44" height="48" viewBox="0 0 44 48" fill="none" xmlns="http://www.w3.org/2000/svg">
<path d="M41.0238 19.4199L21.6359 30.4105L1.03772 18.7036L0.0745042 19.2223V27.7184L21.6606 40.018L41.0485 29.0274V33.5471L21.6606 44.5377L1.03772 32.8309L0.0745042 33.3495V34.782L21.6606 47.0816L43.3207 34.782V26.2859L42.3575 25.7673L21.6359 37.4741L2.32202 26.4835V22.0379L21.6359 32.9544L43.296 20.6548V12.2822L42.1846 11.6894L21.6359 23.3222L3.35934 12.9243L21.6359 2.60054L36.7263 11.0966L38.0847 10.3804V9.34309L21.6359 0.0566406L0.0498047 12.3069V13.6158L21.6359 25.9155L41.0238 14.9248V19.4199Z" fill="#FF3621"/>
</svg>
