<svg width="49" height="48" viewBox="0 0 49 48" fill="none" xmlns="http://www.w3.org/2000/svg">
<path d="M47.1253 21.4745L26.5935 0.943671C25.4113 -0.239036 23.4937 -0.239036 22.3105 0.943671L18.0474 5.20776L23.4553 10.6157C24.7122 10.1909 26.1534 10.4759 27.1549 11.478C28.1626 12.4862 28.4451 13.9396 28.0096 15.2011L33.2225 20.4136C34.484 19.9785 35.9385 20.26 36.9457 21.2687C38.353 22.6761 38.353 24.9566 36.9457 26.365C35.5373 27.7728 33.2568 27.7728 31.8479 26.365C30.7895 25.3056 30.5275 23.7498 31.0644 22.4458L26.2025 17.5845V30.3773C26.5454 30.5472 26.8694 30.7734 27.1549 31.0589C28.5623 32.4663 28.5623 34.7468 27.1549 36.1557C25.7476 37.5625 23.4656 37.5625 22.0592 36.1557C20.6518 34.7463 20.6518 32.4658 22.0592 31.0589C22.4072 30.7114 22.81 30.4484 23.2399 30.2723V17.3603C22.81 17.1843 22.4082 16.9238 22.0592 16.5737C20.9932 15.5082 20.7368 13.9432 21.2834 12.6341L15.9522 7.30193L1.87336 21.3793C0.690651 22.563 0.690651 24.4806 1.87336 25.6633L22.4062 46.1946C23.5884 47.3773 25.5055 47.3773 26.6892 46.1946L47.1253 25.7585C48.308 24.5758 48.308 22.6572 47.1253 21.4745Z" fill="#F05133"/>
</svg>
