<svg width="677" height="504" viewBox="0 0 677 504" fill="none" xmlns="http://www.w3.org/2000/svg">
<g clip-path="url(#clip0_10812_26434)">
<g filter="url(#filter0_b_10812_26434)">
<circle cx="110.93" cy="110.93" r="110.93" transform="matrix(1.12678 -0.277104 0.479958 0.650549 39.5459 174.375)" fill="black" fill-opacity="0.08"/>
<circle cx="110.93" cy="110.93" r="109.951" transform="matrix(1.12678 -0.277104 0.479958 0.650549 39.5459 174.375)" stroke="url(#paint0_linear_10812_26434)" stroke-width="1.95776" stroke-linejoin="round" stroke-dasharray="8.33 10.19"/>
</g>
<g filter="url(#filter1_d_10812_26434)">
<path d="M314.329 191.828C324.899 206.577 324.899 223.257 314.329 238.006L313.221 237.742C308.182 244.774 300.712 251.363 290.808 257.08C280.904 262.798 269.492 267.111 257.312 270.021L257.771 270.66C232.224 276.763 203.334 276.763 177.787 270.66L178.245 270.021C166.065 267.111 154.653 262.798 144.75 257.08C134.846 251.363 127.376 244.774 122.336 237.742L121.229 238.006C110.659 223.257 110.659 206.577 121.229 191.828L122.336 192.092C127.376 185.06 134.846 178.472 144.75 172.754C154.653 167.036 166.065 162.723 178.245 159.813L177.787 159.174C203.334 153.071 232.224 153.071 257.771 159.174L257.312 159.813C269.492 162.723 280.904 167.036 290.808 172.754C300.712 178.472 308.182 185.06 313.221 192.092L314.329 191.828Z" stroke="#5F00E8" stroke-width="1.95776" stroke-linejoin="round" stroke-dasharray="46.99 46.99" shape-rendering="crispEdges"/>
</g>
<g filter="url(#filter2_d_10812_26434)">
<path d="M173.727 233.357C162.087 226.637 155.549 217.524 155.549 208.021C155.549 198.519 162.087 189.406 173.727 182.686L217.613 157.351L261.498 182.686C273.138 189.406 279.676 198.519 279.676 208.021C279.676 217.524 273.138 226.637 261.498 233.357C249.859 240.076 234.073 243.851 217.613 243.851C201.152 243.851 185.366 240.076 173.727 233.357V233.357Z" fill="#0A41CF"/>
</g>
<path d="M218.21 212.858L131.306 163.786L218.21 112.67L304.086 163.786L218.21 212.858Z" fill="#6400CA" stroke="url(#paint1_linear_10812_26434)" stroke-width="1.12961"/>
<path d="M217.786 213.265V267.422L130.737 216.108V163.479L217.786 213.265Z" fill="#4A0292"/>
<path d="M217.613 212.559V266.807L305.385 216.156V163.584L217.613 212.559Z" fill="#3C0077"/>
<path d="M222.155 158.017C224.281 158.017 226.005 159.012 226.005 160.24L226.005 165.286C226.005 166.514 224.281 167.509 222.155 167.509L213.414 167.509C211.288 167.509 209.564 166.514 209.564 165.286L209.564 160.24C209.564 159.012 211.288 158.017 213.414 158.017L222.155 158.017Z" fill="#A950FF"/>
<path d="M242.318 169.618C244.406 169.618 246.099 170.596 246.099 171.801L246.099 176.927C246.099 178.133 244.406 179.11 242.318 179.11L233.44 179.11C231.352 179.11 229.659 178.133 229.659 176.927L229.659 171.801C229.659 170.596 231.352 169.618 233.44 169.618L242.318 169.618Z" fill="#A950FF"/>
<path d="M242.318 146.416C244.406 146.416 246.099 147.393 246.099 148.599L246.099 153.725C246.099 154.93 244.406 155.908 242.318 155.908L233.439 155.908C231.351 155.908 229.658 154.93 229.658 153.725L229.658 148.599C229.658 147.393 231.351 146.416 233.439 146.416L242.318 146.416Z" fill="#E9C1FF"/>
<path d="M226.006 153.686C226.006 154.913 224.282 155.908 222.156 155.908L213.415 155.908C211.289 155.908 209.565 154.913 209.565 153.686L209.565 148.639C209.565 147.412 211.289 146.416 213.415 146.416L222.156 146.416C224.282 146.416 226.006 147.412 226.006 148.639L226.006 153.686Z" fill="#CD88FF"/>
<path d="M205.912 153.725C205.912 154.93 204.219 155.908 202.131 155.908L193.252 155.908C191.164 155.908 189.471 154.93 189.471 153.725L189.471 148.599C189.471 147.393 191.164 146.416 193.252 146.416L202.131 146.416C204.219 146.416 205.912 147.393 205.912 148.599L205.912 153.725Z" fill="#A950FF"/>
<path d="M246.099 165.286C246.099 166.514 244.375 167.509 242.249 167.509L233.508 167.509C231.382 167.509 229.658 166.514 229.658 165.286L229.658 160.24C229.658 159.012 231.382 158.017 233.508 158.017L242.249 158.017C244.375 158.017 246.099 159.012 246.099 160.24L246.099 165.286Z" fill="#CD88FF"/>
<path d="M205.356 174.905C205.356 177.648 201.505 179.871 196.755 179.871C192.004 179.871 188.153 177.648 188.153 174.905C188.153 172.162 192.004 169.939 196.755 169.939C201.505 169.939 205.356 172.162 205.356 174.905Z" fill="#F62E76"/>
<g style="mix-blend-mode:overlay" filter="url(#filter3_f_10812_26434)">
<circle cx="152.726" cy="162.736" r="41.9331" fill="white" style="mix-blend-mode:lighten"/>
</g>
<g opacity="0.7" filter="url(#filter4_f_10812_26434)">
<rect width="286.92" height="205.732" transform="matrix(-0.999351 -0.0360302 -0.0360302 0.999351 543.091 178.453)" fill="url(#paint2_linear_10812_26434)"/>
</g>
<path d="M307.875 272.15L345.807 292.972L311.981 312.403L342.954 329.639" stroke="url(#paint3_linear_10812_26434)" stroke-width="1.76454" stroke-linejoin="round"/>
<path d="M414.937 428.56C415.208 428.713 415.539 428.712 415.809 428.558L502.488 379.027C502.76 378.871 502.93 378.582 502.932 378.268C502.935 377.955 502.771 377.663 502.501 377.502L415.822 325.908C415.546 325.743 415.201 325.742 414.924 325.906L327.206 377.5C326.935 377.66 326.769 377.953 326.772 378.268C326.774 378.584 326.945 378.874 327.22 379.029L414.937 428.56Z" stroke="#9F9DFF" stroke-width="1.76454" stroke-linejoin="round"/>
<g filter="url(#filter5_df_10812_26434)">
<path d="M351.219 391.104C334.494 381.449 325.098 368.354 325.098 354.699C325.098 341.045 334.494 327.949 351.219 318.294L414.28 281.889L477.341 318.294C494.065 327.949 503.461 341.045 503.461 354.699C503.461 368.354 494.065 381.449 477.341 391.104C460.616 400.76 437.932 406.184 414.28 406.184C390.627 406.184 367.943 400.76 351.219 391.104V391.104Z" fill="url(#paint4_radial_10812_26434)"/>
</g>
<path d="M414.451 359.942L414.451 414.1L327.402 362.786L327.402 310.156L414.451 359.942Z" fill="#0F0C16"/>
<path d="M414.278 359.237L414.278 413.485L502.05 362.834L502.05 310.262L414.278 359.237Z" fill="black"/>
<path d="M414.876 359.536L327.972 310.464L414.876 259.348L500.751 310.464L414.876 359.536Z" fill="#211B2C" stroke="url(#paint5_linear_10812_26434)" stroke-width="1.12961"/>
<g clip-path="url(#clip1_10812_26434)">
<path d="M376.802 314.636C382.949 318.185 392.915 318.185 399.061 314.636C405.208 311.087 405.208 305.334 399.061 301.785C392.915 298.236 382.949 298.236 376.802 301.785C370.656 305.334 370.656 311.087 376.802 314.636Z" fill="#D5635C"/>
<path d="M375.951 315.127C373.582 313.759 371.968 312.016 371.314 310.118C370.66 308.22 370.996 306.253 372.278 304.465C373.561 302.678 375.733 301.15 378.519 300.075C381.306 299 384.582 298.426 387.934 298.426C391.285 298.426 394.561 299 397.348 300.075C400.135 301.15 402.307 302.678 403.589 304.465C404.872 306.253 405.207 308.22 404.554 310.118C403.9 312.016 402.286 313.759 399.916 315.127C396.736 316.959 392.426 317.988 387.934 317.988C383.441 317.988 379.132 316.959 375.951 315.127ZM398.209 302.277C396.176 301.104 393.587 300.305 390.769 299.981C387.95 299.658 385.028 299.824 382.373 300.459C379.718 301.094 377.448 302.169 375.852 303.549C374.255 304.928 373.403 306.55 373.403 308.209C373.403 309.869 374.255 311.491 375.852 312.87C377.448 314.25 379.718 315.325 382.373 315.96C385.028 316.595 387.95 316.761 390.769 316.438C393.587 316.114 396.176 315.315 398.209 314.142C400.929 312.567 402.456 310.434 402.456 308.21C402.456 305.986 400.929 303.852 398.209 302.277Z" fill="#CB3C33"/>
<path d="M416.449 308.613C422.595 312.161 432.561 312.161 438.708 308.613C444.854 305.064 444.854 299.31 438.708 295.761C432.561 292.213 422.595 292.213 416.449 295.761C410.302 299.31 410.302 305.064 416.449 308.613Z" fill="#60AD51"/>
<path d="M415.596 309.105C413.226 307.737 411.612 305.994 410.958 304.096C410.305 302.198 410.64 300.231 411.923 298.443C413.205 296.655 415.377 295.127 418.164 294.052C420.951 292.977 424.227 292.404 427.578 292.404C430.93 292.404 434.206 292.977 436.993 294.052C439.779 295.127 441.951 296.655 443.234 298.443C444.516 300.231 444.852 302.198 444.198 304.096C443.544 305.994 441.93 307.737 439.56 309.105C436.38 310.937 432.071 311.966 427.578 311.966C423.086 311.966 418.776 310.937 415.596 309.105ZM437.849 296.257C435.817 295.084 433.228 294.285 430.409 293.961C427.591 293.637 424.669 293.804 422.014 294.439C419.359 295.074 417.089 296.149 415.493 297.528C413.896 298.908 413.044 300.53 413.044 302.189C413.044 303.849 413.896 305.471 415.493 306.85C417.089 308.23 419.359 309.305 422.014 309.94C424.669 310.575 427.591 310.741 430.409 310.417C433.228 310.094 435.817 309.295 437.849 308.121C440.57 306.547 442.099 304.414 442.099 302.189C442.099 299.965 440.57 297.832 437.849 296.257Z" fill="#389826"/>
<path d="M406.016 331.503C412.163 335.052 422.129 335.052 428.275 331.503C434.422 327.954 434.422 322.2 428.275 318.652C422.129 315.103 412.163 315.103 406.016 318.652C399.87 322.2 399.87 327.954 406.016 331.503Z" fill="#AA79C1"/>
<path d="M405.166 331.994C402.796 330.626 401.182 328.882 400.528 326.985C399.874 325.087 400.21 323.12 401.493 321.332C402.775 319.544 404.947 318.016 407.734 316.941C410.521 315.866 413.798 315.293 417.149 315.293C420.501 315.293 423.777 315.867 426.564 316.942C429.35 318.017 431.522 319.545 432.804 321.333C434.086 323.121 434.421 325.088 433.767 326.986C433.113 328.884 431.498 330.627 429.128 331.995C425.948 333.827 421.639 334.855 417.146 334.855C412.654 334.855 408.346 333.826 405.166 331.994ZM427.423 319.144C425.39 317.971 422.801 317.172 419.983 316.848C417.164 316.524 414.242 316.69 411.587 317.325C408.932 317.96 406.663 319.036 405.066 320.415C403.469 321.795 402.617 323.417 402.617 325.076C402.617 326.735 403.469 328.357 405.066 329.737C406.663 331.117 408.932 332.192 411.587 332.827C414.242 333.462 417.164 333.628 419.983 333.304C422.801 332.981 425.39 332.182 427.423 331.008C430.143 329.434 431.67 327.3 431.67 325.076C431.67 322.852 430.143 320.718 427.423 319.144Z" fill="#9558B2"/>
</g>
</g>
<defs>
<filter id="filter0_b_10812_26434" x="43.0658" y="98.5219" width="349.431" height="234.558" filterUnits="userSpaceOnUse" color-interpolation-filters="sRGB">
<feFlood flood-opacity="0" result="BackgroundImageFix"/>
<feGaussianBlur in="BackgroundImageFix" stdDeviation="19.41"/>
<feComposite in2="SourceAlpha" operator="in" result="effect1_backgroundBlur_10812_26434"/>
<feBlend mode="normal" in="SourceGraphic" in2="effect1_backgroundBlur_10812_26434" result="shape"/>
</filter>
<filter id="filter1_d_10812_26434" x="107.428" y="154.598" width="220.702" height="132.385" filterUnits="userSpaceOnUse" color-interpolation-filters="sRGB">
<feFlood flood-opacity="0" result="BackgroundImageFix"/>
<feColorMatrix in="SourceAlpha" type="matrix" values="0 0 0 0 0 0 0 0 0 0 0 0 0 0 0 0 0 0 127 0" result="hardAlpha"/>
<feOffset dy="5.87327"/>
<feGaussianBlur stdDeviation="2.93663"/>
<feComposite in2="hardAlpha" operator="out"/>
<feColorMatrix type="matrix" values="0 0 0 0 0.432266 0 0 0 0 0.00354165 0 0 0 0 0.846458 0 0 0 1 0"/>
<feBlend mode="screen" in2="BackgroundImageFix" result="effect1_dropShadow_10812_26434"/>
<feBlend mode="normal" in="SourceGraphic" in2="effect1_dropShadow_10812_26434" result="shape"/>
</filter>
<filter id="filter2_d_10812_26434" x="70.4888" y="79.3663" width="294.248" height="256.62" filterUnits="userSpaceOnUse" color-interpolation-filters="sRGB">
<feFlood flood-opacity="0" result="BackgroundImageFix"/>
<feColorMatrix in="SourceAlpha" type="matrix" values="0 0 0 0 0 0 0 0 0 0 0 0 0 0 0 0 0 0 127 0" result="hardAlpha"/>
<feOffset dy="7.07455"/>
<feGaussianBlur stdDeviation="42.5299"/>
<feComposite in2="hardAlpha" operator="out"/>
<feColorMatrix type="matrix" values="0 0 0 0 0.506336 0 0 0 0 0.118457 0 0 0 0 1 0 0 0 1 0"/>
<feBlend mode="soft-light" in2="BackgroundImageFix" result="effect1_dropShadow_10812_26434"/>
<feBlend mode="normal" in="SourceGraphic" in2="effect1_dropShadow_10812_26434" result="shape"/>
</filter>
<filter id="filter3_f_10812_26434" x="27.8595" y="37.8692" width="249.733" height="249.732" filterUnits="userSpaceOnUse" color-interpolation-filters="sRGB">
<feFlood flood-opacity="0" result="BackgroundImageFix"/>
<feBlend mode="normal" in="SourceGraphic" in2="BackgroundImageFix" result="shape"/>
<feGaussianBlur stdDeviation="41.4668" result="effect1_foregroundBlur_10812_26434"/>
</filter>
<filter id="filter4_f_10812_26434" x="139.961" y="59.1316" width="512.114" height="433.903" filterUnits="userSpaceOnUse" color-interpolation-filters="sRGB">
<feFlood flood-opacity="0" result="BackgroundImageFix"/>
<feBlend mode="normal" in="SourceGraphic" in2="BackgroundImageFix" result="shape"/>
<feGaussianBlur stdDeviation="54.4918" result="effect1_foregroundBlur_10812_26434"/>
</filter>
<filter id="filter5_df_10812_26434" x="240.038" y="203.903" width="348.483" height="294.415" filterUnits="userSpaceOnUse" color-interpolation-filters="sRGB">
<feFlood flood-opacity="0" result="BackgroundImageFix"/>
<feColorMatrix in="SourceAlpha" type="matrix" values="0 0 0 0 0 0 0 0 0 0 0 0 0 0 0 0 0 0 127 0" result="hardAlpha"/>
<feOffset dy="7.07455"/>
<feGaussianBlur stdDeviation="42.5299"/>
<feComposite in2="hardAlpha" operator="out"/>
<feColorMatrix type="matrix" values="0 0 0 0 0.835294 0 0 0 0 0.388235 0 0 0 0 0.360784 0 0 0 1 0"/>
<feBlend mode="normal" in2="BackgroundImageFix" result="effect1_dropShadow_10812_26434"/>
<feBlend mode="normal" in="SourceGraphic" in2="effect1_dropShadow_10812_26434" result="shape"/>
<feGaussianBlur stdDeviation="18.4434" result="effect2_foregroundBlur_10812_26434"/>
</filter>
<linearGradient id="paint0_linear_10812_26434" x1="33.4265" y1="41.1869" x2="218.137" y2="225.591" gradientUnits="userSpaceOnUse">
<stop offset="0.015625" stop-color="#B010FB"/>
<stop offset="0.130208" stop-color="#DE97FF"/>
<stop offset="0.234375" stop-color="#A227DB"/>
<stop offset="0.505208" stop-color="#A227DB" stop-opacity="0"/>
<stop offset="0.765625" stop-color="#A610EC" stop-opacity="0.84"/>
</linearGradient>
<linearGradient id="paint1_linear_10812_26434" x1="156.546" y1="130.855" x2="229.944" y2="257.223" gradientUnits="userSpaceOnUse">
<stop offset="0.015625" stop-color="#B010FB"/>
<stop offset="0.130208" stop-color="#DE97FF"/>
<stop offset="0.234375" stop-color="#A227DB"/>
<stop offset="0.505208" stop-color="#A227DB" stop-opacity="0"/>
<stop offset="0.765625" stop-color="#A610EC" stop-opacity="0.84"/>
</linearGradient>
<linearGradient id="paint2_linear_10812_26434" x1="143.46" y1="0" x2="143.46" y2="205.732" gradientUnits="userSpaceOnUse">
<stop stop-color="#6218FF" stop-opacity="0"/>
<stop offset="1" stop-color="#6117FF"/>
</linearGradient>
<linearGradient id="paint3_linear_10812_26434" x1="322.964" y1="313.869" x2="351.956" y2="328.564" gradientUnits="userSpaceOnUse">
<stop stop-color="#800CC0"/>
<stop offset="1" stop-color="#D4CCCC"/>
</linearGradient>
<radialGradient id="paint4_radial_10812_26434" cx="0" cy="0" r="1" gradientUnits="userSpaceOnUse" gradientTransform="translate(384.494 427.51) rotate(-10.6426) scale(73.7337 63.8525)">
<stop stop-color="#60AD51"/>
<stop offset="1" stop-color="#AA79C1"/>
</radialGradient>
<linearGradient id="paint5_linear_10812_26434" x1="417.483" y1="258.691" x2="411.624" y2="356.696" gradientUnits="userSpaceOnUse">
<stop stop-color="#60AD51"/>
<stop offset="0.195" stop-color="#AA79C1"/>
<stop offset="0.385" stop-color="#D5635C"/>
<stop offset="0.585" stop-color="#60AD51"/>
<stop offset="0.76" stop-color="#AA79C1"/>
<stop offset="0.99" stop-color="#D5635C"/>
</linearGradient>
<clipPath id="clip0_10812_26434">
<rect width="675.699" height="503.84" fill="white" transform="translate(0.820801)"/>
</clipPath>
<clipPath id="clip1_10812_26434">
<rect width="79.4145" height="79.4145" fill="white" transform="matrix(0.866025 0.5 -0.866025 0.5 414.278 269.732)"/>
</clipPath>
</defs>
</svg>
