<svg width="138" height="42" viewBox="0 0 138 42" fill="none" xmlns="http://www.w3.org/2000/svg">
<path d="M16.3056 7.2472H25.0557L15.9723 34.1605C15.8789 34.4371 15.7012 34.6774 15.4641 34.8476C15.227 35.0179 14.9425 35.1095 14.6506 35.1095H7.84085C7.6197 35.1096 7.40171 35.0569 7.20494 34.956C7.00816 34.8551 6.83825 34.7087 6.70925 34.5291C6.58026 34.3494 6.49589 34.1417 6.46313 33.923C6.43036 33.7043 6.45014 33.4809 6.52084 33.2713L14.9836 8.19621C15.0769 7.91954 15.2547 7.67912 15.4919 7.50881C15.729 7.3385 16.0137 7.24722 16.3056 7.2472Z" fill="url(#paint0_linear_5729_5190)"/>
<path d="M29.0208 25.2989H15.1453C15.0163 25.2987 14.8902 25.3374 14.7835 25.41C14.6768 25.4825 14.5945 25.5854 14.5471 25.7054C14.4998 25.8255 14.4897 25.9569 14.5182 26.0828C14.5466 26.2086 14.6123 26.3229 14.7067 26.4109L23.6228 34.7328C23.8824 34.975 24.2242 35.1096 24.5792 35.1095H32.4361L29.0208 25.2989Z" fill="#0078D4"/>
<path d="M16.3056 7.2472C16.0105 7.24607 15.7227 7.33935 15.4843 7.51341C15.2459 7.68747 15.0694 7.9332 14.9806 8.21469L6.53126 33.2485C6.45581 33.4588 6.43212 33.6842 6.4622 33.9056C6.49228 34.127 6.57524 34.3379 6.70406 34.5204C6.83289 34.703 7.00379 34.8518 7.2023 34.9544C7.40082 35.0569 7.62111 35.1101 7.84454 35.1095H14.83C15.0902 35.0631 15.3334 34.9483 15.5347 34.7771C15.736 34.6059 15.8883 34.3843 15.976 34.135L17.6609 29.1692L23.6796 34.7829C23.9318 34.9915 24.2482 35.1069 24.5755 35.1095H32.4032L28.9701 25.2989L18.9621 25.3012L25.0873 7.2472L16.3056 7.2472Z" fill="url(#paint1_linear_5729_5190)"/>
<path d="M27.4817 8.19487C27.3885 7.91864 27.211 7.67862 26.9742 7.50861C26.7374 7.3386 26.4532 7.24717 26.1617 7.2472H16.4098C16.7013 7.24722 16.9855 7.33867 17.2223 7.50867C17.4591 7.67868 17.6366 7.91867 17.7298 8.19487L26.1929 33.271C26.2637 33.4806 26.2835 33.704 26.2508 33.9228C26.218 34.1416 26.1337 34.3494 26.0047 34.5291C25.8757 34.7088 25.7058 34.8552 25.509 34.9562C25.3122 35.0572 25.0941 35.1099 24.8729 35.1099H34.6251C34.8463 35.1098 35.0643 35.0571 35.2611 34.9561C35.4578 34.8551 35.6277 34.7086 35.7567 34.5289C35.8856 34.3493 35.9699 34.1414 36.0027 33.9227C36.0354 33.704 36.0155 33.4806 35.9448 33.271L27.4817 8.19487Z" fill="url(#paint2_linear_5729_5190)"/>
<path d="M95.3249 33.9769C92.0443 33.7666 90.1364 31.8986 89.6308 28.4021C89.4963 27.472 89.4958 27.4478 89.482 21.4095L89.4687 15.5654H90.9206H92.3724L92.3839 21.2181C92.3942 26.3128 92.4007 26.9102 92.4494 27.2685C92.647 28.7231 93.0406 29.7012 93.7106 30.4033C94.2468 30.9652 94.8745 31.2942 95.7435 31.4687C96.1535 31.5511 97.3197 31.5513 97.6934 31.4691C98.5744 31.2752 99.2804 30.8919 99.9033 30.2692C100.613 29.5596 101.138 28.5527 101.393 27.4142L101.478 27.0304L101.488 21.3298L101.497 15.6292H102.98H104.462V24.5907V33.5522H102.995H101.528V32.1304C101.528 31.1643 101.517 30.7121 101.495 30.7196C101.477 30.7256 101.401 30.8409 101.327 30.9757C100.822 31.8977 99.9795 32.7408 99.0566 33.2488C97.9503 33.8577 96.8408 34.0741 95.3249 33.9769ZM128.623 33.9624C127.465 33.8754 126.245 33.4773 125.249 32.8608C123.148 31.5614 121.905 29.4197 121.541 26.4722C121.415 25.4523 121.4 24.0823 121.505 23.2157C121.74 21.2792 122.501 19.3782 123.585 18.021C123.862 17.6731 124.493 17.0429 124.84 16.7652C125.78 16.0151 126.879 15.4905 128.046 15.2353C128.725 15.0866 129.922 15.0168 130.645 15.0837C132.459 15.2519 134.122 16.1061 135.252 17.4506C136.4 18.8166 137.031 20.7254 137.112 23.0758C137.125 23.4441 137.128 24.09 137.119 24.5109L137.103 25.2763L130.748 25.2844L124.394 25.2924V25.576C124.394 26.4392 124.604 27.4224 124.967 28.2589C125.28 28.9803 125.818 29.768 126.259 30.1492C127.163 30.9308 128.27 31.3987 129.481 31.5113C129.93 31.553 131.074 31.5091 131.586 31.4304C133.045 31.2061 134.433 30.6336 135.554 29.7933C135.686 29.6944 135.812 29.6021 135.834 29.588C135.867 29.5675 135.875 29.8258 135.874 30.9115L135.873 32.2605L135.573 32.4463C134.305 33.2304 132.852 33.7339 131.314 33.9224C130.856 33.9786 129.171 34.0037 128.623 33.9624ZM134.153 22.5849C134.153 21.1389 133.543 19.5326 132.681 18.7055C132.066 18.1152 131.322 17.7545 130.437 17.6175C130.019 17.5527 129.137 17.5776 128.696 17.6668C127.764 17.8552 126.992 18.2651 126.319 18.9299C125.611 19.6295 125.081 20.4793 124.747 21.4475C124.627 21.7956 124.486 22.3672 124.443 22.6851L124.422 22.8366H129.287H134.153V22.5849ZM47.9568 33.5123C47.9642 33.4904 50.122 27.8217 52.7519 20.9153L57.5335 8.3581L59.0698 8.358L60.6062 8.35791L60.7336 8.6848C61.1232 9.68374 70.306 33.5249 70.306 33.5373C70.306 33.5455 69.5705 33.552 68.6716 33.5519L67.0371 33.5516L65.7136 30.0279L64.3901 26.5042L59.0611 26.5041L53.7321 26.5041L53.6858 26.6236C53.6603 26.6894 53.0949 28.275 52.4292 30.1471L51.219 33.551L49.5811 33.5515C48.2847 33.552 47.9461 33.5438 47.9568 33.5123ZM63.4175 23.8151C63.4175 23.8095 62.5268 21.3949 61.4382 18.4494C59.4016 12.9387 59.2877 12.6071 59.1268 11.7224C59.0514 11.3076 59.0132 11.2961 58.9684 11.6746C58.9364 11.9452 58.7976 12.5506 58.6906 12.8865C58.6375 13.0531 57.7204 15.5702 56.6526 18.4801C55.5847 21.3899 54.7111 23.783 54.7111 23.798C54.7111 23.813 56.67 23.8253 59.0643 23.8253C61.4585 23.8253 63.4175 23.8207 63.4175 23.8151ZM71.2947 33.0932V32.6343L76.604 25.3356L81.9133 18.0369L77.1063 18.021L72.2992 18.0051L72.2909 16.7852L72.2825 15.5654H79.2353H86.188V15.9774V16.3894L80.878 23.7279C77.9576 27.764 75.5681 31.0731 75.5681 31.0814C75.5681 31.0897 77.9289 31.0965 80.8143 31.0965H86.0604V32.3243V33.5522H78.6775H71.2947V33.0932ZM110.255 33.5309C110.244 33.5192 110.234 29.4722 110.234 24.5375V15.5654H111.685H113.136V17.4151C113.136 18.4324 113.149 19.2648 113.164 19.2648C113.179 19.2648 113.25 19.0982 113.321 18.8947C113.647 17.962 114.213 17.0906 114.942 16.3979C115.598 15.774 116.349 15.4009 117.234 15.2581C117.483 15.2179 117.694 15.2103 118.191 15.2232C118.816 15.2395 119.143 15.2852 119.523 15.4094L119.642 15.4485V16.9547V18.4609L119.299 18.2893C118.694 17.9861 118.096 17.8661 117.378 17.9035C116.91 17.9278 116.604 17.9878 116.23 18.1281C115.461 18.4167 114.837 18.9261 114.401 19.6215C113.77 20.6281 113.32 21.922 113.187 23.1113C113.164 23.3247 113.15 25.0628 113.144 28.4894L113.136 33.5522H111.706C110.92 33.5522 110.267 33.5426 110.255 33.5309Z" fill="#0089D6"/>
<defs>
<linearGradient id="paint0_linear_5729_5190" x1="27.181" y1="9.31223" x2="21.084" y2="37.9353" gradientUnits="userSpaceOnUse">
<stop stop-color="#114A8B"/>
<stop offset="1" stop-color="#0669BC"/>
</linearGradient>
<linearGradient id="paint1_linear_5729_5190" x1="24.5228" y1="21.8229" x2="22.2013" y2="22.7161" gradientUnits="userSpaceOnUse">
<stop stop-opacity="0.3"/>
<stop offset="0.071" stop-opacity="0.2"/>
<stop offset="0.321" stop-opacity="0.1"/>
<stop offset="0.623" stop-opacity="0.05"/>
<stop offset="1" stop-opacity="0"/>
</linearGradient>
<linearGradient id="paint2_linear_5729_5190" x1="21.1773" y1="8.52889" x2="31.1523" y2="35.1042" gradientUnits="userSpaceOnUse">
<stop stop-color="#3CCBF4"/>
<stop offset="1" stop-color="#2892DF"/>
</linearGradient>
</defs>
</svg>
