<svg width="264" height="42" viewBox="0 0 264 42" fill="none" xmlns="http://www.w3.org/2000/svg">
<path d="M31.3712 11.1351H32.8606L37.1058 6.88979L37.314 5.08673C29.4128 -1.88805 17.3542 -1.13457 10.3794 6.76666C8.44152 8.95965 7.03718 11.5719 6.26904 14.3982C6.74106 14.2047 7.26586 14.1724 7.7584 14.3102L16.2489 12.9088C16.2489 12.9088 16.6799 12.1934 16.9057 12.2374C20.6818 8.0889 27.038 7.60516 31.4005 11.1351H31.3712Z" fill="#EA4335"/>
<path d="M43.1543 14.3981C42.178 10.8037 40.1755 7.57283 37.3903 5.10425L31.4329 11.0617C33.9484 13.1169 35.382 16.2158 35.3205 19.4643V20.5226C38.2493 20.5226 40.6241 22.8974 40.6241 25.8263C40.6241 28.7552 38.2493 31.1299 35.3205 31.1299H24.7132L23.6548 32.203V38.565L24.7132 39.6234H35.3205C42.9373 39.682 49.1615 33.5545 49.2202 25.9377C49.2554 21.3113 46.9773 16.9839 43.1543 14.3981Z" fill="#4285F4"/>
<path d="M14.091 39.556H24.6983V31.0655H14.091C13.3346 31.0655 12.5899 30.9013 11.9009 30.5876L10.4116 31.0508L6.13699 35.2961L5.76465 36.7854C8.15994 38.5973 11.0859 39.5707 14.091 39.556Z" fill="#34A853"/>
<path d="M14.0912 12.0145C6.47145 12.0585 0.335164 18.271 0.379141 25.8908C0.405527 30.1448 2.39036 34.1497 5.76488 36.7414L11.9158 30.5905C9.24787 29.3855 8.06049 26.2426 9.26546 23.5746C10.4704 20.9067 13.6133 19.7193 16.2813 20.9243C17.4569 21.4549 18.3981 22.399 18.9316 23.5746L25.0826 17.4237C22.4674 13.9994 18.3981 11.9969 14.0912 12.0145Z" fill="#FBBC05"/>
<path d="M77.4594 33.6278C73.7683 33.6747 70.2208 32.2176 67.6291 29.5907C64.9523 27.0752 63.4571 23.5512 63.504 19.8776C63.46 16.2041 64.9552 12.683 67.6291 10.1645C70.2091 7.51126 73.7595 6.02483 77.4594 6.05415C80.9835 6.00724 84.3814 7.37639 86.8881 9.85377L84.2378 12.551C82.423 10.7949 79.9837 9.83325 77.4594 9.86843C74.812 9.83618 72.2701 10.918 70.4583 12.8472C68.576 14.7147 67.5382 17.2713 67.5821 19.9216C67.5587 22.5427 68.5966 25.0611 70.4583 26.9081C74.2931 30.7312 80.4763 30.8045 84.4019 27.0723C85.5717 25.794 86.2871 24.1639 86.4425 22.44H77.5034V18.6287H90.1512C90.2744 19.3968 90.3242 20.1737 90.3008 20.9536C90.4591 24.205 89.2805 27.3801 87.0377 29.7432C84.5427 32.3378 81.0597 33.751 77.4594 33.6278ZM106.865 31.0947C103.339 34.4751 97.7739 34.4751 94.247 31.0947C92.5377 29.4383 91.6054 27.1427 91.6699 24.765C91.6054 22.3873 92.5407 20.0917 94.247 18.4352C97.7769 15.0636 103.336 15.0636 106.865 18.4352C108.572 20.0917 109.507 22.3873 109.443 24.765C109.504 27.1456 108.563 29.4412 106.851 31.0947H106.865ZM97.0322 28.6086C98.8528 30.5553 101.908 30.655 103.855 28.8314C103.931 28.7581 104.007 28.6848 104.077 28.6086C105.071 27.5795 105.608 26.1957 105.567 24.765C105.611 23.3313 105.074 21.9387 104.077 20.9067C102.204 18.9541 99.1021 18.8867 97.1465 20.7601C97.0967 20.807 97.0469 20.8569 96.9999 20.9067C96.0031 21.9387 95.4666 23.3313 95.5106 24.765C95.4725 26.1957 96.0149 27.5824 97.0146 28.6086H97.0322ZM126.259 31.0947C122.732 34.4751 117.168 34.4751 113.641 31.0947C111.932 29.4383 110.999 27.1427 111.064 24.765C110.999 22.3873 111.935 20.0917 113.641 18.4352C117.168 15.0548 122.732 15.0548 126.259 18.4352C127.966 20.0917 128.901 22.3873 128.836 24.765C128.904 27.1427 127.969 29.4383 126.259 31.0947ZM116.429 28.6086C118.25 30.5553 121.305 30.655 123.251 28.8314C123.328 28.7581 123.404 28.6848 123.474 28.6086C124.468 27.5795 125.005 26.1957 124.964 24.765C125.008 23.3313 124.471 21.9387 123.474 20.9067C121.601 18.9541 118.499 18.8867 116.546 20.7601C116.496 20.807 116.447 20.8569 116.4 20.9067C115.403 21.9387 114.866 23.3313 114.91 24.765C114.872 26.1957 115.415 27.5824 116.414 28.6086H116.429ZM139.01 41.5818C137.224 41.6375 135.474 41.0805 134.049 40.0016C132.785 39.0507 131.789 37.788 131.158 36.3368L134.554 34.9208C134.923 35.7886 135.5 36.5508 136.236 37.1401C137.022 37.7734 138.01 38.1076 139.022 38.0783C140.317 38.1575 141.584 37.6679 142.493 36.7385C143.39 35.6566 143.833 34.267 143.73 32.8656V31.5844H143.595C142.443 32.9506 140.716 33.6953 138.934 33.5956C136.673 33.6014 134.512 32.6633 132.976 31.0039C131.311 29.3591 130.39 27.1046 130.428 24.762C130.387 22.4078 131.308 20.1386 132.976 18.4762C134.51 16.811 136.67 15.864 138.934 15.8699C139.881 15.8669 140.819 16.078 141.675 16.4797C142.417 16.8022 143.076 17.2859 143.613 17.8957H143.748V16.4797H147.442V32.3437C147.638 34.8797 146.782 37.3864 145.073 39.2716C143.446 40.8284 141.262 41.661 139.01 41.5818ZM139.28 30.1419C140.567 30.1712 141.801 29.623 142.645 28.6525C143.563 27.6 144.05 26.2367 144 24.8383C144.056 23.4163 143.572 22.0296 142.645 20.9507C141.801 19.9773 140.567 19.432 139.28 19.4613C137.957 19.4349 136.688 19.9773 135.794 20.9507C134.809 21.9915 134.272 23.3782 134.304 24.8089C134.275 26.2279 134.809 27.6 135.794 28.6232C136.682 29.6054 137.951 30.1595 139.28 30.1419ZM154.012 7.05389V33.0913H150.124V7.05389H154.012ZM164.678 33.6278C162.324 33.6894 160.051 32.7659 158.407 31.0801C156.739 29.409 155.827 27.1251 155.888 24.765C155.8 22.399 156.677 20.0975 158.316 18.3883C159.864 16.7582 162.028 15.8552 164.273 15.8992C165.297 15.8874 166.308 16.0868 167.252 16.4797C168.102 16.8227 168.876 17.3299 169.53 17.969C170.093 18.5114 170.591 19.1154 171.019 19.7721C171.365 20.3262 171.659 20.9096 171.899 21.5136L172.301 22.528L160.386 27.43C161.125 29.1246 162.828 30.1917 164.675 30.1126C166.46 30.1185 168.117 29.1832 169.04 27.6557L172.019 29.667C171.259 30.7557 170.286 31.6784 169.158 32.3789C167.821 33.2232 166.261 33.6572 164.678 33.6278ZM159.703 24.4952L167.627 21.2028C167.384 20.6223 166.947 20.1444 166.39 19.8483C165.769 19.4965 165.065 19.3177 164.35 19.3265C163.139 19.3587 161.986 19.8659 161.148 20.7425C160.131 21.7159 159.6 23.0909 159.703 24.4952Z" fill="#FDFDFD"/>
<path d="M192.668 33.6278C185.889 33.7451 180.301 28.3447 180.184 21.5664C180.181 21.4022 180.181 21.2351 180.187 21.0709C180.029 14.2925 185.397 8.67226 192.172 8.51394C192.336 8.51101 192.504 8.51101 192.668 8.51101C196.057 8.40546 199.311 9.85378 201.501 12.4426L199.355 14.5271C197.746 12.5012 195.265 11.3666 192.682 11.4721C190.205 11.4164 187.81 12.3751 186.054 14.1225C184.227 15.9607 183.251 18.4762 183.356 21.065C183.248 23.6538 184.227 26.1693 186.054 28.0076C187.81 29.7578 190.205 30.7136 192.682 30.6579C195.567 30.6902 198.309 29.406 200.129 27.172L202.275 29.3181C201.152 30.6608 199.742 31.7339 198.15 32.461C196.432 33.2584 194.559 33.6572 192.668 33.6278Z" fill="#FDFDFD"/>
<path d="M208.039 33.0913H204.955V9.0329H208.039V33.0913Z" fill="#FDFDFD"/>
<path d="M213.076 18.6109C216.439 15.2716 221.869 15.2716 225.231 18.6109C226.826 20.2967 227.685 22.5484 227.615 24.8674C227.685 27.1865 226.826 29.4381 225.231 31.1239C221.869 34.4632 216.439 34.4632 213.076 31.1239C211.481 29.4381 210.622 27.1865 210.692 24.8674C210.622 22.5484 211.478 20.2967 213.076 18.6109ZM215.369 29.1889C217.342 31.2734 220.631 31.3643 222.719 29.3912C222.789 29.3267 222.857 29.2564 222.921 29.1889C224.009 28.0221 224.583 26.4653 224.516 24.8704C224.586 23.2755 224.012 21.7187 222.921 20.5518C220.948 18.4673 217.658 18.3764 215.571 20.3495C215.501 20.414 215.433 20.4844 215.369 20.5518C214.281 21.7187 213.706 23.2755 213.774 24.8704C213.712 26.4623 214.293 28.0133 215.383 29.1743L215.369 29.1889Z" fill="#FDFDFD"/>
<path d="M244.699 33.0914H241.72V30.8134H241.632C241.101 31.6782 240.351 32.3877 239.456 32.8686C238.53 33.4051 237.475 33.6895 236.402 33.6865C234.637 33.8067 232.916 33.1148 231.725 31.8102C230.597 30.3824 230.031 28.591 230.13 26.7763V16.6469H233.215V26.2104C233.215 29.28 234.569 30.8134 237.281 30.8134C238.504 30.8515 239.668 30.2974 240.409 29.324C241.21 28.3125 241.635 27.0548 241.617 25.7648V16.6469H244.701V33.0914H244.699Z" fill="#FDFDFD"/>
<path d="M255.171 33.6279C253.054 33.6337 251.04 32.7161 249.659 31.1094C248.114 29.4031 247.287 27.1691 247.349 24.8676C247.287 22.5661 248.114 20.3321 249.659 18.6258C251.04 17.0221 253.054 16.1015 255.171 16.1074C256.344 16.0898 257.502 16.3654 258.537 16.9107C259.449 17.368 260.22 18.0629 260.771 18.9219H260.906L260.771 16.6439V9.0329H263.855V33.0913H260.876V30.8133H260.741C260.19 31.6723 259.419 32.3672 258.507 32.8245C257.481 33.364 256.335 33.6425 255.171 33.6279ZM255.678 30.8133C257.088 30.8338 258.44 30.2475 259.387 29.2038C260.434 28.0105 260.97 26.4537 260.876 24.8676C260.97 23.2844 260.434 21.7247 259.387 20.5315C257.516 18.4733 254.332 18.3238 252.274 20.1972C252.157 20.3028 252.046 20.4171 251.94 20.5315C250.891 21.7159 250.354 23.2698 250.451 24.85C250.354 26.4303 250.891 27.9841 251.94 29.1686C252.89 30.2358 254.253 30.8338 255.678 30.8133Z" fill="#FDFDFD"/>
</svg>
