<svg width="125" height="49" viewBox="0 0 125 49" fill="none" xmlns="http://www.w3.org/2000/svg">
<g clip-path="url(#clip0_5729_5195)">
<path d="M81.5886 7.68323V40.1573H75.0073V36.8453C74.3191 38.0066 73.3302 38.9529 72.1256 39.5551C70.8354 40.2003 69.3728 40.5444 67.9108 40.5444C66.1041 40.5874 64.2975 40.0712 62.7921 39.0389C61.2439 38.0066 60.0393 36.5873 59.265 34.9098C58.405 32.9742 57.9747 30.9097 58.0176 28.8021C57.9747 26.6945 58.405 24.6299 59.265 22.7374C60.0393 21.103 61.2439 19.6836 62.7493 18.6943C64.2975 17.7051 66.1041 17.2319 67.9108 17.2749C69.33 17.2749 70.7492 17.576 71.9966 18.2211C73.2012 18.8233 74.1902 19.7266 74.8784 20.8449V9.87684L81.5886 7.68323ZM73.6743 33.7485C74.5343 32.6301 75.0073 30.9957 75.0073 28.8881C75.0073 26.7805 74.5776 25.1891 73.6743 24.0708C72.771 22.9525 71.3512 22.3073 69.8892 22.3503C68.4267 22.2643 67.0075 22.9094 66.0608 24.0278C65.158 25.1461 64.6844 26.7376 64.6844 28.8021C64.6844 30.9097 65.158 32.5441 66.0608 33.7055C66.9641 34.8668 68.4267 35.512 69.8892 35.469C71.5236 35.469 72.8138 34.8668 73.6743 33.7485ZM105.116 18.6513C106.664 19.6406 107.869 21.06 108.6 22.6944C109.46 24.587 109.89 26.6515 109.847 28.7591C109.89 30.8667 109.46 32.9743 108.6 34.8668C107.826 36.5443 106.622 37.9637 105.073 38.996C103.568 39.9852 101.761 40.5014 99.9547 40.4584C98.4922 40.5014 97.0296 40.1573 95.7394 39.4691C94.5353 38.8669 93.5458 37.9206 92.9005 36.7593V40.1143H86.277V9.87684L92.9438 7.68323V20.9309C93.5887 19.7696 94.5781 18.8233 95.7822 18.2211C97.073 17.533 98.4922 17.1889 99.9547 17.2319C101.761 17.1889 103.568 17.7051 105.116 18.6513ZM101.847 33.7055C102.75 32.5441 103.181 30.9097 103.181 28.7591C103.181 26.6945 102.75 25.1031 101.847 23.9848C100.944 22.8665 99.6963 22.3073 98.0619 22.3073C96.5999 22.2213 95.1802 22.8665 94.234 24.0278C93.3307 25.1891 92.9005 26.7805 92.9005 28.8451C92.9005 30.9527 93.3307 32.5872 94.234 33.7055C95.1374 34.8668 96.5566 35.512 98.0619 35.426C99.5245 35.512 100.944 34.8668 101.847 33.7055ZM119.052 22.7804V31.4688C119.052 32.7162 119.396 33.6195 119.999 34.1786C120.687 34.7808 121.59 35.0819 122.536 35.0388C123.267 35.0388 124.042 34.9098 124.73 34.7378V39.8992C123.482 40.3293 122.192 40.5444 120.901 40.5014C118.149 40.5014 116.041 39.7271 114.579 38.1787C113.117 36.6303 112.385 34.4367 112.385 31.5979V12.5436L119.052 10.393V17.791H124.73V22.7804H119.052Z" fill="white"/>
<path d="M45.6737 2.30667C46.7919 3.38197 47.5232 4.80137 47.6952 6.34979C47.6952 6.99496 47.5232 7.42511 47.136 8.24233C46.749 9.05955 41.9746 17.3179 40.5553 19.5975C39.738 20.9308 39.3079 22.5223 39.3079 24.0707C39.3079 25.6622 39.738 27.2106 40.5553 28.544C41.9746 30.8236 46.749 39.1249 47.136 39.9421C47.5232 40.7594 47.6952 41.1464 47.6952 41.7916C47.5232 43.34 46.835 44.7595 45.7167 45.7918C44.6414 46.91 43.222 47.6413 41.7166 47.7703C41.0714 47.7703 40.6413 47.5982 39.8671 47.2111C39.0928 46.824 30.6625 42.1787 28.3828 40.7594C28.2108 40.6733 28.0387 40.5443 27.8237 40.4582L16.5546 33.7914C16.8126 35.942 17.7589 38.0066 19.3073 39.512C19.6084 39.8131 19.9095 40.0712 20.2536 40.3292C19.9955 40.4582 19.6944 40.5873 19.4364 40.7594C17.1567 42.1787 8.85545 46.9531 8.03823 47.3401C7.22101 47.7273 6.83389 47.8993 6.14569 47.8993C4.59726 47.7273 3.17787 47.0391 2.14558 45.9208C1.02727 44.8455 0.296071 43.4261 0.124023 41.8777C0.167035 41.2325 0.339083 40.5873 0.683181 40.0281C1.07029 39.2109 5.84462 30.9096 7.26398 28.63C8.08126 27.2966 8.51135 25.7482 8.51135 24.1567C8.51135 22.5653 8.08126 21.0168 7.26398 19.6835C5.84462 17.3179 1.02727 9.01653 0.683181 8.19931C0.339083 7.64013 0.167035 6.99496 0.124023 6.34979C0.296071 4.80137 0.984264 3.38197 2.10257 2.30667C3.17787 1.18837 4.59726 0.500173 6.14569 0.328125C6.79086 0.371137 7.43603 0.543185 8.03823 0.887282C8.72643 1.18837 14.7911 4.71534 18.017 6.60789L18.7482 7.03799C19.0062 7.21004 19.2213 7.33906 19.3934 7.42511L19.7375 7.64013L31.2216 14.4361C30.9636 11.8553 29.6302 9.48965 27.5656 7.89823C27.8237 7.76921 28.1248 7.64013 28.3828 7.46809C30.6625 6.04872 38.9638 1.23138 39.781 0.887282C40.3402 0.543185 40.9854 0.371137 41.6735 0.328125C43.179 0.500173 44.5984 1.18837 45.6737 2.30667ZM24.5118 27.1676L26.9635 24.7159C27.3076 24.3718 27.3076 23.8557 26.9635 23.5116L24.5118 21.0599C24.1677 20.7158 23.6516 20.7158 23.3075 21.0599L20.8558 23.5116C20.5117 23.8557 20.5117 24.3718 20.8558 24.7159L23.3075 27.1676C23.6085 27.4687 24.1677 27.4687 24.5118 27.1676Z" fill="#FF694A"/>
</g>
<defs>
<clipPath id="clip0_5729_5195">
<rect width="124.606" height="47.7007" fill="white" transform="translate(0.124023 0.328125)"/>
</clipPath>
</defs>
</svg>
