<svg width="165" height="43" viewBox="0 0 165 43" fill="none" xmlns="http://www.w3.org/2000/svg">
<g clip-path="url(#clip0_5729_5200)">
<path d="M52.4615 15.3434C52.1481 13.0666 50.8943 11.0898 48.6321 9.30385L47.3238 8.41768L46.4516 9.74012C45.3341 11.4443 44.7754 13.8165 44.9525 16.0932C45.0343 16.884 45.2932 18.3291 46.0973 19.5697C45.2932 20.0196 43.6988 20.6195 41.5728 20.5786H0.961755L0.879988 21.0558C0.498408 23.3325 0.498408 30.4628 5.06375 35.9297C8.53885 40.0879 13.7311 42.2011 20.5178 42.2011C35.2359 42.2011 46.1109 35.3435 51.2214 22.8554C53.2247 22.8963 57.5447 22.869 59.766 18.5745C59.8206 18.4791 59.9568 18.22 60.3384 17.402L60.5565 16.9521L59.3163 16.1069C57.9535 15.2207 54.86 14.8799 52.4615 15.3434ZM33.437 0.11499H27.2636V5.80009H33.437V0.11499ZM33.437 6.94528H27.2636V12.6304H33.437V6.94528ZM26.1324 6.94528H19.959V12.6304H26.1324V6.94528ZM18.8415 6.94528H12.6681V12.6304H18.8415V6.94528ZM11.537 13.7756H5.36356V19.4607H11.537V13.7756ZM18.8415 13.7756H12.6681V19.4607H18.8415V13.7756ZM26.1324 13.7756H19.959V19.4607H26.1324V13.7756ZM33.437 13.7756H27.2636V19.4607H33.437V13.7756ZM40.7415 13.7756H34.5681V19.4607H40.7415V13.7756ZM78.2727 12.494C77.823 12.494 77.4414 12.644 77.1552 12.9439C76.8554 13.2439 76.7055 13.6392 76.7055 14.0891V21.792C75.1792 20.5241 73.4212 19.8969 71.4042 19.8969C69.0739 19.8969 67.0842 20.7422 65.4352 22.4327C63.7863 24.1233 62.9686 26.1546 62.9686 28.5405C62.9686 30.9263 63.7999 32.9577 65.4352 34.6482C67.0842 36.3387 69.0739 37.184 71.4042 37.184C73.7346 37.184 75.7107 36.3387 77.3733 34.6482C79.0222 32.9849 79.8399 30.9399 79.8399 28.5405V14.1028C79.8399 13.6392 79.69 13.2575 79.3766 12.9576C79.0904 12.644 78.7224 12.494 78.2727 12.494ZM76.2967 30.64C76.0241 31.2944 75.6425 31.867 75.1655 32.3578C74.6886 32.8486 74.1298 33.244 73.4893 33.5303C72.8488 33.8166 72.1538 33.9665 71.4179 33.9665C70.682 33.9665 69.9869 33.8302 69.3328 33.5303C68.6923 33.244 68.1336 32.8486 67.6566 32.3578C67.1796 31.867 66.8117 31.2944 66.5391 30.64C66.2665 29.9856 66.1303 29.2767 66.1303 28.5405C66.1303 27.8043 66.2665 27.0953 66.5391 26.4409C66.8117 25.7865 67.1932 25.2139 67.6566 24.7231C68.1336 24.2323 68.6923 23.8506 69.3328 23.5507C69.9733 23.2644 70.6683 23.1144 71.4179 23.1144C72.1674 23.1144 72.8352 23.2507 73.4893 23.5507C74.1298 23.837 74.6886 24.2323 75.1655 24.7231C75.6425 25.2139 76.0241 25.7865 76.2967 26.4409C76.5692 27.0953 76.7055 27.7906 76.7055 28.5268C76.7055 29.2767 76.5692 29.972 76.2967 30.64ZM147.312 22.4327C145.649 20.7422 143.646 19.8969 141.343 19.8969C139.026 19.8969 137.022 20.7422 135.374 22.4327C133.725 24.1233 132.907 26.1546 132.907 28.5405C132.907 30.9263 133.738 32.9577 135.374 34.6482C137.022 36.3387 139.012 37.184 141.343 37.184C143.468 37.184 145.295 36.4887 146.862 35.0845C147.162 34.7709 147.312 34.3755 147.312 33.9256C147.312 33.4757 147.162 33.0804 146.862 32.7804C146.562 32.4805 146.194 32.3305 145.744 32.3305C145.349 32.3442 145.008 32.4669 144.709 32.7395C144.232 33.1485 143.727 33.4621 143.169 33.6666C142.61 33.8711 142.01 33.9802 141.343 33.9802C140.757 33.9802 140.198 33.8847 139.666 33.7075C139.135 33.5166 138.631 33.2576 138.194 32.9304C137.745 32.5896 137.363 32.1942 137.022 31.7307C136.695 31.2671 136.436 30.7491 136.273 30.1765H148.211C148.647 30.1765 149.029 30.0265 149.328 29.7266C149.642 29.4266 149.792 29.0313 149.792 28.5814C149.792 27.3816 149.587 26.2773 149.179 25.2548C148.756 24.2051 148.143 23.278 147.312 22.4327ZM136.246 26.9454C136.409 26.3864 136.655 25.8683 136.982 25.3912C137.309 24.9276 137.704 24.5186 138.154 24.1914C138.603 23.8506 139.108 23.6052 139.653 23.4143C140.198 23.2235 140.757 23.1417 141.329 23.1417C141.901 23.1417 142.46 23.2371 142.991 23.4143C143.537 23.6052 144.027 23.8642 144.463 24.1914C144.913 24.5323 145.308 24.9276 145.635 25.3912C145.976 25.8547 146.221 26.3728 146.398 26.9454H136.246ZM163.842 20.9876C163.556 20.7149 163.202 20.4968 162.779 20.3332C162.357 20.1696 161.88 20.0605 161.375 20.006C160.871 19.9378 160.394 19.9106 159.945 19.9106C158.936 19.9106 157.996 20.0742 157.11 20.4014C156.224 20.7286 155.406 21.2057 154.657 21.8192V21.5193C154.657 21.0694 154.507 20.7013 154.194 20.3877C153.88 20.0742 153.526 19.9106 153.09 19.9106C152.654 19.9106 152.272 20.0742 151.972 20.3877C151.659 20.7013 151.509 21.083 151.509 21.5193V35.5889C151.509 36.0388 151.659 36.4069 151.972 36.7205C152.286 37.034 152.654 37.1976 153.09 37.1976C153.526 37.1976 153.894 37.034 154.194 36.7205C154.507 36.4069 154.657 36.0252 154.657 35.5889V28.5541C154.657 27.8043 154.793 27.0953 155.066 26.4409C155.338 25.7865 155.72 25.2139 156.197 24.7231C156.674 24.2323 157.233 23.8506 157.873 23.5643C158.514 23.278 159.209 23.1417 159.945 23.1417C160.68 23.1417 161.375 23.278 162.016 23.5234C162.261 23.6325 162.493 23.7006 162.684 23.7006C162.902 23.7006 163.106 23.6597 163.297 23.5779C163.488 23.4961 163.651 23.3734 163.801 23.2371C163.938 23.0871 164.06 22.9235 164.142 22.719C164.224 22.5282 164.265 22.31 164.265 22.0919C164.265 21.6284 164.128 21.2603 163.842 20.9876ZM96.0707 22.4327C94.4081 20.7422 92.4048 19.8969 90.1017 19.8969C87.7986 19.8969 85.7817 20.7422 84.1327 22.4327C82.4837 24.1233 81.666 26.1546 81.666 28.5405C81.666 30.9263 82.4973 32.9577 84.1327 34.6482C85.7817 36.3387 87.7713 37.184 90.1017 37.184C92.4321 37.184 94.4081 36.3387 96.0707 34.6482C97.7197 32.9849 98.5374 30.9399 98.5374 28.5405C98.5237 27.3407 98.3193 26.2364 97.9105 25.2276C97.5016 24.2187 96.8884 23.278 96.0707 22.4327ZM94.9805 30.64C94.7079 31.2944 94.3263 31.867 93.8494 32.3578C93.3724 32.8486 92.8136 33.244 92.1731 33.5303C91.5326 33.8166 90.8376 33.9665 90.1017 33.9665C89.3658 33.9665 88.6708 33.8302 88.0166 33.5303C87.3761 33.244 86.8174 32.8486 86.3404 32.3578C85.8634 31.867 85.4955 31.2944 85.2229 30.64C84.9504 29.9856 84.8141 29.2767 84.8141 28.5405C84.8141 27.8043 84.9504 27.0953 85.2229 26.4409C85.4955 25.7865 85.8771 25.2139 86.3404 24.7231C86.8174 24.2323 87.3761 23.8506 88.0166 23.5507C88.6571 23.2644 89.3522 23.1144 90.1017 23.1144C90.8512 23.1144 91.519 23.2507 92.1731 23.5507C92.8136 23.837 93.3724 24.2323 93.8494 24.7231C94.3263 25.2139 94.7079 25.7865 94.9805 26.4409C95.253 27.0953 95.3893 27.7906 95.3893 28.5268C95.3893 29.2767 95.253 29.972 94.9805 30.64ZM131.176 21.5057C131.176 21.2875 131.135 21.083 131.053 20.8922C130.972 20.7013 130.863 20.5241 130.713 20.3741C130.576 20.2241 130.399 20.1014 130.209 20.0333C130.018 19.9515 129.813 19.9106 129.595 19.9106C129.282 19.9106 128.996 19.9924 128.75 20.156L119.729 26.1546V14.1164C119.729 13.6665 119.579 13.2848 119.265 12.9712C118.952 12.6576 118.598 12.494 118.161 12.494C117.725 12.494 117.344 12.6576 117.044 12.9712C116.731 13.2848 116.581 13.6665 116.581 14.1164V35.5616C116.581 36.0115 116.731 36.3933 117.044 36.7068C117.357 37.0204 117.725 37.184 118.161 37.184C118.598 37.184 118.966 37.0204 119.265 36.7068C119.579 36.3933 119.729 36.0115 119.729 35.5616V29.9856L121.568 28.745L128.532 36.7477C128.818 37.0204 129.173 37.1567 129.582 37.1567C129.8 37.1567 130.004 37.1158 130.195 37.034C130.386 36.9522 130.549 36.8295 130.699 36.6932C130.835 36.5432 130.958 36.3796 131.04 36.1751C131.122 35.9843 131.162 35.7661 131.162 35.5616C131.162 35.139 131.013 34.7709 130.726 34.4301L124.267 26.9726L130.59 22.7736C130.985 22.5009 131.176 22.0783 131.176 21.5057ZM104.997 24.7095C105.474 24.2187 106.046 23.837 106.687 23.5507C107.327 23.2644 108.022 23.128 108.758 23.128C109.426 23.128 110.039 23.2371 110.598 23.4689C111.157 23.7006 111.702 24.0278 112.206 24.4641C112.506 24.7095 112.847 24.8322 113.228 24.8322C113.678 24.8322 114.06 24.6822 114.346 24.3687C114.646 24.0551 114.795 23.6734 114.795 23.2098C114.795 22.7463 114.618 22.3237 114.25 21.9965C112.697 20.5922 110.871 19.8969 108.745 19.8969C106.414 19.8969 104.425 20.7422 102.776 22.4327C101.127 24.1233 100.309 26.1546 100.309 28.5405C100.309 30.9263 101.14 32.9577 102.776 34.6482C104.425 36.3387 106.414 37.184 108.745 37.184C110.857 37.184 112.697 36.4887 114.25 35.0845C114.577 34.7436 114.755 34.3483 114.755 33.8984C114.755 33.4485 114.605 33.0531 114.305 32.7532C114.005 32.4532 113.637 32.3033 113.187 32.3033C112.806 32.3169 112.479 32.426 112.192 32.6441C111.688 33.094 111.157 33.4212 110.598 33.6393C110.039 33.8575 109.426 33.9665 108.758 33.9665C108.022 33.9665 107.341 33.8302 106.687 33.5439C106.046 33.2576 105.474 32.8759 104.997 32.3851C104.52 31.9079 104.138 31.3217 103.852 30.6673C103.58 30.0129 103.443 29.3039 103.443 28.5541C103.443 27.8043 103.58 27.0953 103.852 26.4409C104.138 25.7729 104.52 25.2139 104.997 24.7095Z" fill="#1D63ED"/>
</g>
<defs>
<clipPath id="clip0_5729_5200">
<rect width="163.535" height="42.127" fill="white" transform="translate(0.72998 0.11499)"/>
</clipPath>
</defs>
</svg>
