<svg width="165" height="47" viewBox="0 0 165 47" fill="none" xmlns="http://www.w3.org/2000/svg">
<path d="M65.2474 13.5353V17.3504H54.9467V21.5197H64.4299V25.362H54.9467V33.4009H49.9871V13.5353H65.2474ZM69.2805 13.508H73.5588V16.8871H69.2805V13.508ZM69.2805 18.6856H73.5588V33.4009H69.2805V18.6856ZM76.6381 18.7129H81.2162C83.0147 25.253 83.3145 26.5883 83.805 29.3951C84.4045 26.125 84.4863 25.7708 85.3583 22.3099L86.2576 18.7129H90.6994L85.9305 33.4009H81.407L76.6381 18.7129ZM107.104 29.6403C106.614 30.4306 106.014 31.1936 105.333 31.8476C103.807 33.2102 101.845 33.9732 99.7738 33.9187C95.4137 33.9187 92.3344 31.1119 92.3344 26.3158C92.3344 22.7732 94.0785 18.1951 99.8828 18.1951C101.872 18.1406 103.78 18.9036 105.169 20.2934C107.104 22.3372 107.213 25.2258 107.24 26.888H96.749C96.749 28.7138 97.7573 30.5396 100.128 30.5396C102.499 30.5396 103.316 28.9863 103.861 27.9508L107.104 29.6403ZM102.799 24.1902C102.771 23.4272 102.472 22.6915 101.981 22.1192C101.409 21.5742 100.646 21.3017 99.8828 21.3017C99.0381 21.3017 98.2478 21.6559 97.7028 22.2555C97.2395 22.8005 96.9398 23.4817 96.8308 24.1902H102.799ZM111.573 14.4618H115.879V19.0399H118.713V21.6832H115.852V28.3323C115.852 29.2316 115.852 30.0219 116.969 30.0219L118.522 29.9674V33.3464C117.759 33.4827 116.996 33.5644 116.233 33.5644C114.734 33.5644 113.099 33.4827 112.146 32.1201C111.546 31.2481 111.519 30.2126 111.519 28.7956V21.6559H109.393V19.0126H111.546L111.573 14.4618ZM126.507 20.2117C127.678 19.1761 129.177 18.5766 130.758 18.5221V22.3645L129.341 22.5825C127.242 22.9367 126.616 23.2637 126.616 25.1168V33.3737H122.31V18.6584H126.534L126.507 20.2117ZM133.891 22.8822C133.864 21.6014 134.437 20.4024 135.445 19.6121C136.807 18.5494 138.551 18.3314 140.268 18.3314C141.985 18.3314 146.454 18.7401 146.454 22.5552V31.0574C146.454 32.6379 146.536 32.8559 146.863 33.3737H142.639V32.0111C141.522 32.8287 140.295 33.7552 138.143 33.7552C134.791 33.7552 133.319 31.3299 133.319 29.2588C133.319 26.888 135.2 25.5528 136.426 25.035C138.306 24.4355 140.268 23.9722 142.23 23.6725V22.8822C142.176 22.2009 142.121 21.0837 140.541 21.0837C138.633 21.0837 138.361 22.2555 138.252 22.8005L133.891 22.8822ZM139.396 27.3241C138.66 27.5966 137.543 28.0053 137.543 29.1498C137.598 30.0219 138.333 30.6759 139.205 30.6486C139.75 30.6214 140.241 30.4579 140.704 30.1581C142.121 29.2588 142.203 27.9236 142.23 26.3975L139.396 27.3241ZM155.719 20.0209C156.128 19.5304 156.618 19.1489 157.191 18.8764C158.035 18.5221 158.935 18.3314 159.861 18.3041C160.761 18.2769 161.66 18.4949 162.477 18.8764C164.031 19.6939 164.412 21.0292 164.412 23.291V33.3737H160.107V25.0895C160.188 24.3537 160.107 23.618 159.916 22.9095C159.562 22.1737 158.798 21.7104 157.981 21.7922C155.692 21.7922 155.692 23.618 155.692 25.4438V33.3737H151.386V18.7129H155.746L155.719 20.0209ZM23.5541 23.3182H28.1322C28.5137 23.3182 28.8134 23.0185 28.8134 22.637C28.8134 22.5552 28.7862 22.4462 28.7589 22.3645L20.9108 0.97278C20.8018 0.727525 20.5565 0.53677 20.284 0.53677H15.7059C15.3244 0.53677 15.0247 0.836525 15.0247 1.21803C15.0247 1.29978 15.0519 1.38154 15.0519 1.43604L22.9273 22.8822C23.0091 23.1547 23.2543 23.3182 23.5541 23.3182ZM22.7366 46.0452H27.3146C27.6962 46.0452 27.9959 45.7454 27.9959 45.3639C27.9959 45.2822 27.9687 45.2004 27.9687 45.1186L11.7546 0.945528C11.6456 0.673022 11.4003 0.509521 11.1278 0.509521H6.54974C6.16823 0.509521 5.86847 0.809277 5.86847 1.19078C5.86847 1.27254 5.89572 1.35429 5.89572 1.40879L22.1098 45.5819C22.2188 45.8817 22.4641 46.0452 22.7366 46.0452ZM13.7439 46.0452H18.322C18.6762 46.0452 18.976 45.7727 19.0032 45.4184C19.0032 45.3367 18.976 45.2277 18.976 45.1459L11.0733 23.727C10.9643 23.4817 10.7191 23.291 10.4466 23.291H5.84122C5.48697 23.3182 5.18721 23.618 5.18721 23.9722C5.18721 24.054 5.21446 24.1085 5.21446 24.1902L13.0626 45.6092C13.1989 45.8817 13.4441 46.0452 13.7439 46.0452ZM24.0991 1.46329L27.7779 11.4915C27.8869 11.7367 28.1322 11.9275 28.4047 11.9275H32.9555C33.337 11.9275 33.6368 11.6277 33.6368 11.2462C33.6368 11.1645 33.6095 11.0827 33.6095 11.001L29.9307 0.97278C29.8217 0.727525 29.5764 0.53677 29.3039 0.53677H24.7258C24.3443 0.53677 24.0446 0.836525 24.0446 1.21803C24.0446 1.29978 24.0718 1.38154 24.0991 1.46329ZM5.29621 46.0452H9.8743C10.2558 46.0452 10.5556 45.7454 10.5556 45.3639C10.5556 45.2822 10.5283 45.2004 10.5283 45.1186L6.82224 35.0632C6.71324 34.7907 6.46799 34.6272 6.19548 34.6272H1.64464C1.26313 34.6272 0.963379 34.9269 0.963379 35.3085C0.963379 35.3902 0.990627 35.472 0.990627 35.5537L4.66945 45.6092C4.77845 45.8817 5.02371 46.0452 5.29621 46.0452Z" fill="#0073FF"/>
</svg>
