<svg width="155" height="58" viewBox="0 0 155 58" fill="none" xmlns="http://www.w3.org/2000/svg">
<path d="M59.8406 23.3848H54.8438V20.4019H68.2246V23.3848H63.2279V38.3127H59.842L59.8406 23.3848ZM71.3079 35.8754C72.665 35.8686 74.0139 35.6609 75.3113 35.2579L75.827 37.7278C74.2867 38.2923 72.6594 38.5825 71.0189 38.5855C66.9042 38.5855 65.482 36.6855 65.482 33.5371V30.1091C65.482 27.3407 66.7034 24.9522 70.9076 24.9522C75.1118 24.9522 76.0645 27.395 76.0645 30.215V33.0106H68.777V33.6796C68.777 35.2484 69.3198 35.8509 71.3229 35.8509L71.3079 35.8754ZM68.7363 30.3656H72.9025V29.7224C72.9025 28.501 72.5252 27.6325 70.9144 27.6325C69.3035 27.6325 68.7376 28.4901 68.7376 29.7224L68.7363 30.3656Z" fill="white"/>
<path d="M84.8014 27.9419C83.6112 28.4901 82.4645 29.1293 81.3734 29.8554V38.2896H78.0567V25.2006H80.8251L81.0395 26.6486C82.1023 25.9297 83.2548 25.3534 84.4675 24.9346L84.8014 27.9419Z" fill="white"/>
<path d="M92.8068 27.9419C91.6166 28.4901 90.4699 29.1293 89.3788 29.8554V38.2896H86.0621V25.2006H88.8305L89.045 26.6486C90.1077 25.9297 91.2602 25.3534 92.4729 24.9346L92.8068 27.9419Z" fill="white"/>
<path d="M103.762 38.2788H101.08L100.839 37.4211C99.6804 38.1735 98.329 38.5754 96.9472 38.5787C94.5561 38.5787 93.5192 36.942 93.5192 34.6866C93.5192 32.0294 94.6768 31.0224 97.3191 31.0224H100.465V29.6654C100.465 28.2174 100.062 27.703 97.9705 27.703C96.7513 27.7161 95.5366 27.8511 94.3444 28.1061L93.9413 25.6118C95.4014 25.208 96.9088 25.0003 98.4237 24.9943C102.538 24.9943 103.746 26.4423 103.746 29.7264L103.762 38.2788ZM100.488 33.3336H98.0723C96.9866 33.3336 96.7152 33.6253 96.7152 34.6187C96.7152 35.6121 97.0069 35.9391 98.0356 35.9391C98.9017 35.9275 99.7508 35.6974 100.504 35.2701L100.488 33.3336ZM113.842 22.2055C113.224 22.0732 112.596 22.0013 111.965 21.9911C110.68 21.9911 110.491 22.557 110.491 23.5517V25.1884H113.816L113.626 27.76H110.48V38.234H107.205V27.8089H105.106V25.2372H107.196V23.378C107.196 20.6611 108.455 19.3231 111.362 19.3231C112.315 19.3188 113.264 19.4458 114.182 19.7003L113.842 22.2055ZM120.236 38.5393C115.754 38.5393 114.544 36.0694 114.544 33.3824V30.1023C114.544 27.4194 115.766 24.9454 120.236 24.9454C124.706 24.9454 125.936 27.4153 125.936 30.1023V33.4109C125.928 36.0762 124.719 38.5678 120.236 38.5678V38.5393ZM120.236 27.7139C118.522 27.7139 117.82 28.4942 117.82 29.9666V33.4896C117.82 34.9634 118.49 35.7424 120.236 35.7424C121.983 35.7424 122.652 34.9621 122.652 33.4896V29.9802C122.652 28.4969 121.973 27.718 120.236 27.718V27.7139ZM134.35 27.9283C133.159 28.4763 132.013 29.1161 130.922 29.8418V38.276H127.61V25.187H130.379L130.593 26.635C131.656 25.9161 132.809 25.3398 134.021 24.921L134.35 27.9283ZM143.361 38.2788V29.1497C143.361 28.4549 143.069 28.1047 142.316 28.1047C141.111 28.2404 139.944 28.615 138.888 29.2107V38.3032H135.631V25.2141H138.125L138.451 26.3202C140.082 25.503 141.867 25.0361 143.689 24.9495C144.194 24.9026 144.701 25.0114 145.143 25.2613C145.584 25.5111 145.938 25.8901 146.158 26.3473C147.792 25.5113 149.587 25.035 151.42 24.9495C153.597 24.9495 154.379 26.483 154.379 28.8172V38.2978H151.104V29.1687C151.104 28.4739 150.812 28.1237 150.059 28.1237C148.852 28.2484 147.684 28.6252 146.631 29.2297V38.3222L143.361 38.2788Z" fill="white"/>
<path fill-rule="evenodd" clip-rule="evenodd" d="M33.3088 39.5964L17.526 30.4818V48.7036L33.3088 57.8183V39.5964ZM33.3088 19.3682V37.5975L17.526 28.4828V10.2535L33.3088 19.3682Z" fill="#5C4EE5"/>
<path fill-rule="evenodd" clip-rule="evenodd" d="M35.0392 37.5975L50.8295 28.4828V10.2535L35.0392 19.3682V37.5975Z" fill="#4040B2"/>
<path fill-rule="evenodd" clip-rule="evenodd" d="M0.0126953 18.309L15.7955 27.4237V9.19436L0.0126953 0.0797119V18.309Z" fill="#5C4EE5"/>
</svg>
