<svg width="541" height="279" viewBox="0 0 541 279" fill="none" xmlns="http://www.w3.org/2000/svg">
<g filter="url(#filter0_d_4381_28721)">
<rect x="24" y="0.578613" width="492.742" height="229.462" rx="9.85484" fill="#152433"/>
<path d="M24 55.9431H516.742V220.186C516.742 225.629 512.33 230.041 506.887 230.041H33.8549C28.4122 230.041 24 225.629 24 220.186V55.9431Z" fill="#061626"/>
<path d="M259.147 150.234L266.193 130.257H269.757L262.712 150.234H259.147ZM270.453 150.234L277.499 130.257H281.063L274.017 150.234H270.453Z" fill="#C182FF"/>
<path d="M112.721 120.367H106.363V149.228H112.721V143.48L115.099 141.008L120.421 149.228H127.655L119.415 136.54L127.346 128.302H119.495L112.721 135.538V120.367Z" fill="white"/>
<path d="M178.568 121.894H172.285V128.302H168.643V133.47H172.285V144.483C172.285 146.023 172.677 147.222 173.504 148.033C174.33 148.843 175.549 149.228 177.116 149.228H182.62V144.172H178.568V133.47H182.62V128.302H178.568V121.894Z" fill="white"/>
<path fill-rule="evenodd" clip-rule="evenodd" d="M137.358 127.929C134.255 127.929 131.744 128.885 129.849 130.813L129.847 130.815C127.977 132.757 127.055 135.417 127.055 138.765C127.055 142.075 127.964 144.722 129.808 146.676C131.655 148.633 134.207 149.6 137.433 149.6C140.06 149.6 142.277 148.982 144.068 147.732L144.069 147.731L144.07 147.73C145.86 146.442 146.978 144.74 147.413 142.631L147.472 142.346H141.238L141.185 142.51C140.968 143.17 140.529 143.704 139.85 144.112C139.185 144.508 138.37 144.712 137.395 144.712C136.209 144.712 135.274 144.385 134.567 143.749C133.862 143.103 133.506 142.262 133.506 141.205V140.343H147.093L147.118 140.134C147.219 139.281 147.269 138.446 147.269 137.629C147.269 134.636 146.362 132.265 144.525 130.547C142.729 128.795 140.331 127.929 137.358 127.929ZM134.525 133.71C135.207 133.122 136.118 132.818 137.283 132.818C138.41 132.818 139.297 133.116 139.967 133.692L139.968 133.693L139.97 133.694C140.648 134.256 140.986 134.989 140.986 135.915V136.051H133.506V135.989C133.506 135.036 133.846 134.284 134.524 133.712L134.525 133.71Z" fill="white"/>
<path fill-rule="evenodd" clip-rule="evenodd" d="M158.236 127.929C155.576 127.929 153.44 128.52 151.855 129.729L151.854 129.73C150.272 130.946 149.483 132.632 149.483 134.76C149.483 136.422 150.005 137.784 151.062 138.822C152.113 139.854 153.672 140.545 155.71 140.916L155.712 140.917L159.359 141.514L159.362 141.514C159.974 141.598 160.43 141.763 160.749 141.993L160.75 141.994L160.752 141.995C161.043 142.199 161.244 142.58 161.304 143.209C161.301 143.773 161.077 144.199 160.622 144.512L160.62 144.513C160.166 144.834 159.488 145.01 158.554 145.01C157.528 145.01 156.758 144.787 156.216 144.371C155.698 143.964 155.43 143.38 155.43 142.583V142.346H149.165V142.583C149.165 144.717 150.008 146.433 151.687 147.708L151.688 147.708C153.373 148.979 155.658 149.6 158.516 149.6C161.312 149.6 163.547 148.998 165.195 147.765C166.865 146.525 167.699 144.801 167.699 142.621C167.699 140.903 167.206 139.515 166.198 138.483C165.195 137.456 163.706 136.809 161.765 136.519L161.763 136.519L158.234 135.941L158.231 135.941C157.793 135.88 157.494 135.838 157.331 135.813C157.202 135.78 157.032 135.718 156.82 135.624C156.621 135.536 156.423 135.407 156.227 135.235C155.948 134.987 155.803 134.657 155.803 134.22C155.803 133.667 156.004 133.263 156.397 132.977C156.802 132.682 157.393 132.52 158.199 132.52C159.124 132.52 159.781 132.709 160.207 133.05C160.625 133.383 160.857 133.892 160.875 134.617L160.88 134.848H167.128L167.12 134.604C167.055 132.56 166.226 130.928 164.636 129.729C163.05 128.52 160.908 127.929 158.236 127.929ZM165.052 147.575L165.195 147.765L165.194 147.765L165.052 147.575ZM156.07 144.558L156.215 144.37L156.216 144.371L156.217 144.372L156.07 144.558ZM161.542 143.198L161.305 143.22L161.304 143.209L161.304 143.198H161.542Z" fill="white"/>
<path fill-rule="evenodd" clip-rule="evenodd" d="M208.508 127.929C205.735 127.929 203.489 128.552 201.792 129.821C200.1 131.084 199.175 132.889 199.009 135.209L198.99 135.463H205.199L205.216 135.243C205.274 134.463 205.556 133.889 206.044 133.491L206.045 133.49C206.548 133.077 207.272 132.855 208.247 132.855C209.227 132.855 209.919 133.089 210.365 133.516C210.81 133.94 211.053 134.594 211.053 135.524V136.479H205.875C203.533 136.479 201.649 137.06 200.249 138.249C198.857 139.43 198.168 141.053 198.168 143.086C198.168 145.051 198.777 146.644 200.014 147.839L200.016 147.84C201.264 149.021 202.927 149.6 204.979 149.6C206.543 149.6 207.927 149.283 209.125 148.641L209.127 148.64C210.217 148.044 210.99 147.258 211.429 146.28L211.486 146.626L211.486 146.629C211.643 147.517 212.017 148.195 212.629 148.626L212.631 148.627L212.632 148.628C213.239 149.041 214.157 149.228 215.343 149.228H219.876V144.712H217.355V135.636C217.355 133.504 216.642 131.682 215.218 130.184C213.809 128.663 211.552 127.929 208.508 127.929ZM204.544 142.192C204.544 141.594 204.745 141.179 205.124 140.903C205.516 140.616 206.133 140.455 207.014 140.455H211.053V140.944C211.053 142.134 210.692 143.055 209.987 143.735C209.282 144.403 208.313 144.749 207.052 144.749C206.159 144.749 205.533 144.583 205.134 144.288C204.749 144.003 204.544 143.574 204.544 142.956V142.192Z" fill="white"/>
<path d="M190.861 128.302C188.704 128.302 187.203 128.867 186.491 130.097C186.182 130.622 185.967 131.141 185.848 131.652L185.848 131.654L185.848 131.657C185.743 132.15 185.693 132.751 185.693 133.456V149.228H191.976V133.47H198.064V128.302H190.861Z" fill="white"/>
<path d="M224.039 149.245C223.363 149.245 222.801 149.031 222.356 148.602C221.929 148.155 221.715 147.605 221.715 146.953C221.715 146.301 221.929 145.761 222.356 145.332C222.801 144.885 223.363 144.661 224.039 144.661C224.698 144.661 225.242 144.885 225.669 145.332C226.097 145.761 226.31 146.301 226.31 146.953C226.31 147.605 226.097 148.155 225.669 148.602C225.242 149.031 224.698 149.245 224.039 149.245Z" fill="#F62E76"/>
<path d="M79.8699 131.94C80.3852 131.426 81.2206 131.426 81.7359 131.94L83.854 134.053C84.3692 134.567 84.3692 135.4 83.854 135.914L81.7359 138.027C81.2206 138.541 80.3852 138.541 79.8699 138.027L77.7519 135.914C77.2366 135.4 77.2366 134.567 77.7519 134.053L79.8699 131.94Z" fill="#A950FF"/>
<path d="M89.6254 131.924C90.1314 131.419 90.9519 131.419 91.458 131.924L93.6094 134.069C94.1155 134.574 94.1155 135.393 93.6094 135.897L91.458 138.043C90.9519 138.548 90.1314 138.548 89.6254 138.043L87.4739 135.897C86.9679 135.393 86.9679 134.574 87.4739 134.069C87.98 133.565 89.6254 131.924 89.6254 131.924Z" fill="#A950FF"/>
<path d="M79.8866 122.21C80.3927 121.705 81.2132 121.705 81.7192 122.21L83.8706 124.356C84.3767 124.861 84.3767 125.679 83.8706 126.184L81.7192 128.33C81.2132 128.835 80.3927 128.835 79.8866 128.33L77.7352 126.184C77.2291 125.679 77.2291 124.861 77.7352 124.356L79.8866 122.21Z" fill="#E9C1FF"/>
<path d="M78.9851 129.196C79.5003 129.71 79.5003 130.543 78.9851 131.057L76.867 133.17C76.3517 133.684 75.5163 133.684 75.001 133.17L72.883 131.057C72.3677 130.543 72.3677 129.71 72.883 129.196L75.0011 127.084C75.5163 126.57 76.3517 126.57 76.867 127.084L78.9851 129.196Z" fill="#CD88FF"/>
<path d="M74.1322 134.069C74.6382 134.574 74.6382 135.393 74.1322 135.897L71.9807 138.043C71.4747 138.548 70.6542 138.548 70.1482 138.043L67.9967 135.897C67.4907 135.393 67.4907 134.574 67.9967 134.069L70.1482 131.924C70.6542 131.419 71.4747 131.419 71.9807 131.924L74.1322 134.069Z" fill="#A950FF"/>
<path d="M88.7234 129.196C89.2387 129.71 89.2387 130.543 88.7234 131.057L86.6054 133.17C86.0901 133.684 85.2547 133.684 84.7394 133.17L82.6214 131.057C82.1061 130.543 82.1061 129.71 82.6214 129.196L84.7394 127.084C85.2547 126.57 86.0901 126.57 86.6054 127.084L88.7234 129.196Z" fill="#CD88FF"/>
<path d="M82.8874 143.071C84.0386 144.219 84.0386 146.081 82.8874 147.229C81.7363 148.377 79.8699 148.377 78.7187 147.229C77.5676 146.081 77.5676 144.219 78.7187 143.071C79.8699 141.923 81.7363 141.923 82.8874 143.071Z" fill="#F62E76"/>
<path d="M369.789 120.709H372.753V147.217H369.789V144.879H369.716C368.603 146.325 366.825 147.734 363.784 147.734C359.039 147.734 355.258 143.99 355.258 137.762C355.258 131.534 359.039 127.789 363.784 127.789C366.825 127.789 368.603 129.124 369.716 130.756H369.789V120.709ZM369.789 137.762C369.789 133.314 367.603 130.384 364.081 130.384C360.188 130.384 358.223 134.055 358.223 137.762C358.223 141.469 360.188 145.139 364.081 145.139C367.603 145.139 369.789 142.21 369.789 137.762Z" fill="white"/>
<path d="M383.823 130.384C380.227 130.384 379.039 131.422 378.855 134.166H375.889C376.075 130.533 378.335 127.789 383.823 127.789C387.419 127.789 390.643 129.198 390.643 133.753V142.948C390.643 144.431 390.908 145.246 392.793 145.023V147.1C392.236 147.307 391.645 147.407 391.052 147.396C389.272 147.396 388.196 146.915 387.678 144.838H387.599C386.412 146.618 384.3 147.73 381.186 147.73C377.368 147.73 374.957 145.543 374.957 142.354C374.957 138.054 378.144 136.942 383.042 136.016C386.231 135.422 387.681 135.014 387.681 133.124C387.678 131.645 386.862 130.384 383.823 130.384ZM387.678 139.911V136.761C387.122 137.316 385.305 137.836 383.305 138.244C379.633 139.022 377.923 139.948 377.923 142.21C377.923 144.065 379.035 145.139 381.483 145.139C385.009 145.139 387.678 143.544 387.678 139.911Z" fill="white"/>
<path d="M407.745 128.309H410.712V146.177C410.712 151.213 407.524 153.776 402.334 153.776C397.144 153.776 394.066 151.033 393.771 147.812H396.745C397.116 149.739 398.673 151.185 402.195 151.185C405.716 151.185 407.755 149.665 407.755 146.149V143.286H407.681C406.569 144.916 404.79 146.251 401.675 146.251C397.005 146.251 393.223 143.249 393.223 137.021C393.223 130.792 397.005 127.789 401.675 127.789C404.79 127.789 406.569 129.198 407.681 130.644H407.755L407.745 128.309ZM407.745 137.021C407.745 132.571 405.558 130.384 402.037 130.384C398.144 130.384 396.18 133.313 396.18 137.021C396.18 140.728 398.144 143.656 402.037 143.656C405.564 143.656 407.745 141.469 407.745 137.021Z" fill="white"/>
<path d="M428.941 142.025C428.941 145.471 425.79 147.734 421.489 147.734C415.706 147.734 413.037 144.99 412.852 140.913H415.818C416.002 143.026 416.745 145.139 421.489 145.139C424.714 145.139 425.974 143.47 425.974 142.21C425.974 139.467 423.49 139.319 420.786 138.651C417.893 137.947 413.592 137.613 413.592 133.165C413.592 130.199 416.225 127.789 420.674 127.789C425.382 127.789 427.903 130.458 428.198 133.72H425.233C424.936 132.276 424.233 130.384 420.674 130.384C418.005 130.384 416.565 131.459 416.565 132.942C416.565 135.166 419.123 135.352 421.756 135.983C425.122 136.798 428.941 137.353 428.941 142.025Z" fill="white"/>
<path d="M438.964 130.904H435.254V142.284C435.254 144.435 436.446 144.802 438.964 144.621V147.217C438.233 147.37 437.488 147.445 436.741 147.44C434.222 147.44 432.291 146.439 432.291 142.583V130.907H429.508V128.309H432.291V122.006H435.258V128.309H438.968L438.964 130.904Z" fill="white"/>
<path d="M454.725 141.394H457.691C456.727 144.916 454.021 147.734 449.313 147.734C443.566 147.734 440.082 143.693 440.082 137.762C440.082 131.459 443.641 127.789 449.165 127.789C455.096 127.789 457.988 131.83 457.988 138.54H443.048C443.048 141.951 445.087 145.139 449.202 145.139C452.983 145.139 454.391 142.692 454.725 141.394ZM443.048 135.951H455.022C455.022 132.911 452.724 130.384 449.165 130.384C445.607 130.384 443.048 132.903 443.048 135.951Z" fill="white"/>
<path d="M470.221 127.901V130.867H470.146C466.038 130.204 463.178 133.091 463.178 137.132V147.217H460.211V128.309H463.178V132.053H463.251C464.252 129.569 465.77 127.789 468.479 127.789C469.062 127.783 469.644 127.82 470.221 127.901Z" fill="white"/>
<path d="M323.355 152.415C323.356 152.603 323.395 152.789 323.47 152.96C323.546 153.132 323.656 153.287 323.793 153.414C323.931 153.541 324.094 153.639 324.271 153.701C324.448 153.762 324.636 153.787 324.823 153.773C331.932 153.264 338.647 148.232 340.791 140.374C340.903 139.922 341.242 139.695 341.694 139.695C341.926 139.705 342.144 139.805 342.303 139.974C342.461 140.144 342.546 140.369 342.539 140.601C342.539 142.353 340.287 146.932 337.066 149.59C336.902 149.728 336.771 149.901 336.684 150.097C336.596 150.293 336.553 150.506 336.559 150.72C336.562 150.895 336.6 151.067 336.67 151.227C336.74 151.386 336.84 151.531 336.966 151.652C337.092 151.772 337.24 151.867 337.403 151.93C337.565 151.994 337.739 152.024 337.913 152.021C338.195 152.021 338.647 151.851 339.211 151.342C341.464 149.306 345.756 143.596 345.756 137.32C345.756 128.119 338.643 120.191 328.716 120.191C319.857 120.191 312.184 127.427 312.184 135.795C312.184 141.335 316.585 145.518 322.396 145.518C326.854 145.518 330.973 142.353 332.102 137.999C332.215 137.547 332.552 137.32 333.004 137.32C333.236 137.33 333.455 137.43 333.613 137.599C333.772 137.769 333.857 137.994 333.851 138.226C333.851 140.204 330.127 147.106 322.565 147.106C320.76 147.106 318.503 146.597 316.923 145.692C316.711 145.589 316.481 145.531 316.246 145.522C316.066 145.515 315.886 145.546 315.719 145.611C315.551 145.677 315.399 145.777 315.272 145.904C315.145 146.032 315.045 146.184 314.98 146.352C314.914 146.52 314.884 146.699 314.892 146.879C314.899 147.11 314.965 147.335 315.083 147.532C315.202 147.73 315.369 147.895 315.569 148.01C317.657 149.203 320.14 149.819 322.678 149.819C328.998 149.819 334.753 145.522 336.446 139.19C336.559 138.739 336.898 138.512 337.349 138.512C337.58 138.521 337.799 138.621 337.957 138.791C338.116 138.96 338.201 139.185 338.195 139.417C338.195 142.018 333.569 150.385 324.653 151.064C324.309 151.089 323.985 151.241 323.746 151.491C323.506 151.74 323.367 152.07 323.355 152.415Z" fill="#4F43DD"/>
<path d="M332.189 130.763C333.406 130.754 334.6 131.091 335.633 131.734C335.738 131.162 335.795 130.583 335.806 130.001C335.806 127.317 333.76 124.913 331.269 124.913C329.332 124.913 328.121 126.518 328.121 128.501C328.112 129.572 328.488 130.611 329.181 131.428C330.12 130.98 331.149 130.753 332.189 130.763Z" fill="white"/>
<path d="M338.027 140.487C338.373 139.304 338.525 138.484 338.525 137.951C338.515 137.721 338.416 137.504 338.25 137.344C338.084 137.185 337.863 137.096 337.632 137.095C337.418 137.099 337.211 137.175 337.044 137.31C336.878 137.445 336.761 137.632 336.713 137.841C336.619 138.23 336.417 139.282 336.219 139.95C336.301 139.7 336.376 139.446 336.444 139.188C336.557 138.735 336.896 138.509 337.346 138.509C337.578 138.518 337.797 138.618 337.955 138.787C338.113 138.957 338.199 139.181 338.193 139.413C338.182 139.778 338.124 140.139 338.019 140.488L338.027 140.487Z" fill="#352D8E"/>
<path d="M342.824 139.251C342.813 139.022 342.714 138.805 342.548 138.646C342.383 138.486 342.162 138.397 341.932 138.395C341.718 138.4 341.511 138.475 341.345 138.61C341.178 138.746 341.062 138.932 341.014 139.141C340.918 139.539 340.713 140.607 340.512 141.274H340.521C340.619 140.977 340.71 140.676 340.786 140.37C340.899 139.917 341.238 139.691 341.69 139.691C341.921 139.7 342.14 139.8 342.298 139.97C342.456 140.139 342.541 140.364 342.535 140.595C342.528 140.877 342.49 141.157 342.42 141.429C342.7 140.443 342.824 139.73 342.824 139.251Z" fill="#352D8E"/>
<path d="M332.189 130.763C332.794 130.762 333.396 130.843 333.979 131.003C334.285 130.586 334.438 130.075 334.412 129.558C334.386 129.041 334.183 128.548 333.837 128.163C333.491 127.779 333.022 127.525 332.511 127.445C331.999 127.365 331.476 127.463 331.029 127.724L331.956 129.251L330.219 128.5C329.984 128.879 329.866 129.32 329.88 129.767C329.894 130.213 330.04 130.646 330.299 131.01C330.915 130.844 331.551 130.761 332.189 130.763Z" fill="white"/>
<path d="M318.809 140.59C319.541 140.59 320.134 139.997 320.134 139.265C320.134 138.533 319.541 137.939 318.809 137.939C318.078 137.939 317.484 138.533 317.484 139.265C317.484 139.997 318.078 140.59 318.809 140.59Z" fill="#352D8E"/>
<path d="M318.809 135.289C319.541 135.289 320.134 134.695 320.134 133.963C320.134 133.231 319.541 132.638 318.809 132.638C318.078 132.638 317.484 133.231 317.484 133.963C317.484 134.695 318.078 135.289 318.809 135.289Z" fill="#352D8E"/>
<path d="M316.157 137.939C316.889 137.939 317.482 137.346 317.482 136.614C317.482 135.882 316.889 135.288 316.157 135.288C315.425 135.288 314.832 135.882 314.832 136.614C314.832 137.346 315.425 137.939 316.157 137.939Z" fill="#352D8E"/>
<path d="M322.122 145.515H322.387C326.845 145.515 330.964 142.35 332.093 137.996C332.206 137.544 332.543 137.318 332.995 137.318C333.227 137.327 333.446 137.427 333.604 137.597C333.763 137.766 333.848 137.991 333.842 138.223C333.822 138.686 333.717 139.141 333.533 139.566C333.565 139.516 333.593 139.464 333.617 139.41C333.952 138.644 334.125 137.816 334.125 136.98C334.125 135.679 333.222 134.831 331.925 134.831C329.663 134.831 329.21 136.806 328.256 138.917C327.266 141.11 325.449 143.481 320.865 143.481C316.102 143.481 311.207 140.145 312.401 133.361C312.416 133.276 312.428 133.201 312.437 133.131C312.262 134.007 312.173 134.898 312.172 135.792C312.185 141.253 316.45 145.388 322.122 145.515Z" fill="#352D8E"/>
<circle cx="51.5581" cy="26.9785" r="6.29249" fill="#ED6A5E"/>
<circle cx="72.5347" cy="26.9785" r="6.29249" fill="#F4BF4F"/>
<circle cx="93.5073" cy="26.9785" r="6.29249" fill="#61C554"/>
</g>
<defs>
<filter id="filter0_d_4381_28721" x="0" y="0.578613" width="540.742" height="277.462" filterUnits="userSpaceOnUse" color-interpolation-filters="sRGB">
<feFlood flood-opacity="0" result="BackgroundImageFix"/>
<feColorMatrix in="SourceAlpha" type="matrix" values="0 0 0 0 0 0 0 0 0 0 0 0 0 0 0 0 0 0 127 0" result="hardAlpha"/>
<feOffset dy="24"/>
<feGaussianBlur stdDeviation="12"/>
<feComposite in2="hardAlpha" operator="out"/>
<feColorMatrix type="matrix" values="0 0 0 0 0.352941 0 0 0 0 0.184314 0 0 0 0 0.835294 0 0 0 0.22 0"/>
<feBlend mode="normal" in2="BackgroundImageFix" result="effect1_dropShadow_4381_28721"/>
<feBlend mode="normal" in="SourceGraphic" in2="effect1_dropShadow_4381_28721" result="shape"/>
</filter>
</defs>
</svg>
