<svg width="100" height="86" viewBox="0 0 100 86" fill="none" xmlns="http://www.w3.org/2000/svg">
<path d="M60.667 16H34.0003L20.667 32V40H26.0003C26.0003 42.1217 26.8432 44.1566 28.3435 45.6569C29.8438 47.1571 31.8786 48 34.0003 48C36.1221 48 38.1569 47.1571 39.6572 45.6569C41.1575 44.1566 42.0003 42.1217 42.0003 40H58.0003C58.0003 42.1217 58.8432 44.1566 60.3435 45.6569C61.8438 47.1571 63.8786 48 66.0003 48C68.1221 48 70.1569 47.1571 71.6572 45.6569C73.1575 44.1566 74.0003 42.1217 74.0003 40H79.3337V32C79.3337 29.04 76.9603 26.6667 74.0003 26.6667H68.667L60.667 16ZM35.3337 20H46.0003V26.6667H30.0003L35.3337 20ZM50.0003 20H59.3337L64.5603 26.6667H50.0003V20ZM34.0003 36C35.0612 36 36.0786 36.4214 36.8288 37.1716C37.5789 37.9217 38.0003 38.9391 38.0003 40C38.0003 41.0609 37.5789 42.0783 36.8288 42.8284C36.0786 43.5786 35.0612 44 34.0003 44C32.9395 44 31.922 43.5786 31.1719 42.8284C30.4218 42.0783 30.0003 41.0609 30.0003 40C30.0003 38.9391 30.4218 37.9217 31.1719 37.1716C31.922 36.4214 32.9395 36 34.0003 36ZM66.0003 36C67.0612 36 68.0786 36.4214 68.8288 37.1716C69.5789 37.9217 70.0003 38.9391 70.0003 40C70.0003 41.0609 69.5789 42.0783 68.8288 42.8284C68.0786 43.5786 67.0612 44 66.0003 44C64.9395 44 63.922 43.5786 63.1719 42.8284C62.4218 42.0783 62.0003 41.0609 62.0003 40C62.0003 38.9391 62.4218 37.9217 63.1719 37.1716C63.922 36.4214 64.9395 36 66.0003 36Z" fill="url(#paint0_linear_11921_27372)"/>
<line x1="50.5" y1="74" x2="50.5" y2="86" stroke="#E3262F" stroke-dasharray="2 2"/>
<defs>
<linearGradient id="paint0_linear_11921_27372" x1="50.0003" y1="16" x2="50.0003" y2="48" gradientUnits="userSpaceOnUse">
<stop stop-color="#E3262F"/>
<stop offset="1" stop-color="#ED5D63"/>
</linearGradient>
</defs>
</svg>
