<svg width="76" height="76" viewBox="0 0 76 76" fill="none" xmlns="http://www.w3.org/2000/svg">
<rect x="0.535423" y="0.396751" width="75.0762" height="75.0762" rx="5.76914" fill="#0A0113" stroke="url(#paint0_linear_11969_7837)" stroke-width="0.758346"/>
<path d="M36.1032 32.4244C37.0254 31.5021 38.5206 31.5021 39.4428 32.4244L43.2336 36.2152C44.1558 37.1374 44.1558 38.6326 43.2336 39.5548L39.4428 43.3456C38.5206 44.2678 37.0254 44.2678 36.1032 43.3456L32.3124 39.5548C31.3902 38.6326 31.3902 37.1374 32.3124 36.2152L36.1032 32.4244Z" fill="#A950FF"/>
<path d="M53.5631 32.3941C54.4688 31.4884 55.9372 31.4884 56.8429 32.3941L60.6935 36.2447C61.5992 37.1504 61.5992 38.6188 60.6935 39.5245L56.8429 43.3751C55.9372 44.2808 54.4688 44.2808 53.5631 43.3751L49.7125 39.5245C48.8068 38.6188 48.8068 37.1504 49.7125 36.2447L53.5631 32.3941Z" fill="#A950FF"/>
<path d="M36.1331 14.9647C37.0388 14.059 38.5073 14.059 39.413 14.9647L43.2635 18.8152C44.1692 19.7209 44.1692 21.1894 43.2635 22.0951L39.413 25.9456C38.5073 26.8513 37.0388 26.8513 36.1331 25.9456L32.2826 22.0951C31.3769 21.1894 31.3769 19.7209 32.2826 18.8152L36.1331 14.9647Z" fill="#E9C1FF"/>
<path d="M34.5195 27.5003C35.4417 28.4225 35.4417 29.9177 34.5195 30.8399L30.7287 34.6307C29.8065 35.5529 28.3113 35.5529 27.3891 34.6307L23.5983 30.8399C22.6761 29.9177 22.6761 28.4225 23.5983 27.5003L27.3891 23.7095C28.3113 22.7873 29.8065 22.7873 30.7287 23.7095L34.5195 27.5003Z" fill="#CD88FF"/>
<path d="M25.8341 36.2447C26.7398 37.1504 26.7398 38.6188 25.8341 39.5245L21.9835 43.3751C21.0778 44.2808 19.6094 44.2808 18.7037 43.3751L14.8531 39.5245C13.9474 38.6188 13.9474 37.1504 14.8531 36.2447L18.7037 32.3941C19.6094 31.4884 21.0778 31.4884 21.9835 32.3941L25.8341 36.2447Z" fill="#A950FF"/>
<path d="M51.9488 27.5003C52.871 28.4225 52.871 29.9177 51.9488 30.8399L48.158 34.6307C47.2358 35.5529 45.7406 35.5529 44.8184 34.6307L41.0276 30.8399C40.1054 29.9177 40.1054 28.4225 41.0276 27.5003L44.8184 23.7095C45.7406 22.7873 47.2358 22.7873 48.158 23.7095L51.9488 27.5003Z" fill="#CD88FF"/>
<path d="M41.5038 52.3965C43.564 54.4568 43.564 57.7972 41.5038 59.8575C39.4435 61.9177 36.1031 61.9177 34.0428 59.8575C31.9826 57.7972 31.9826 54.4568 34.0428 52.3965C36.1031 50.3363 39.4435 50.3363 41.5038 52.3965Z" fill="#F62E76"/>
<defs>
<linearGradient id="paint0_linear_11969_7837" x1="11.5819" y1="14.0958" x2="74.7182" y2="77.1277" gradientUnits="userSpaceOnUse">
<stop offset="0.015625" stop-color="#E3262F"/>
<stop offset="0.130208" stop-color="#FCD8DF"/>
<stop offset="0.234375" stop-color="#DB2727"/>
<stop offset="0.505208" stop-color="#DB2727" stop-opacity="0"/>
<stop offset="0.765625" stop-color="#FC6C6C" stop-opacity="0.84"/>
</linearGradient>
</defs>
</svg>
