<svg width="107" height="78" viewBox="0 0 107 78" fill="none" xmlns="http://www.w3.org/2000/svg">
<g clip-path="url(#clip0_16542_24526)">
<path d="M11.2681 71.749C11.9235 71.7468 12.5721 71.6155 13.1768 71.3626C13.7815 71.1097 14.3304 70.7402 14.7923 70.2751C15.2542 69.8101 15.62 69.2586 15.8688 68.6521C16.1176 68.0456 16.2445 67.3961 16.2423 66.7406C16.2401 66.0851 16.1088 65.4365 15.856 64.8317C15.6031 64.2269 15.2337 63.6779 14.7687 63.2159C14.3037 62.754 13.7522 62.3881 13.1459 62.1393C12.5395 61.8905 11.8901 61.7635 11.2346 61.7657C9.91096 61.7702 8.64326 62.3003 7.71042 63.2396C6.77758 64.1788 6.25601 65.4502 6.26045 66.7741C6.26489 68.098 6.79497 69.3658 7.73409 70.2988C8.67321 71.2318 9.94444 71.7534 11.2681 71.749ZM10.5652 56.2061C13.5666 56.2061 15.4635 57.1067 16.5681 58.9848V56.9114H22.1694V76.6H16.5681V74.4864C15.6197 76.3656 13.6001 77.2651 10.409 77.2651C4.43948 77.2651 0.333374 72.9598 0.333374 66.7339C0.333374 60.5483 4.56222 56.2017 10.5652 56.2017M28.9311 50.3686H34.8894V76.5933H28.9311V50.3753V50.3686ZM39.0401 56.9081H45.1993L49.0264 69.2002L52.8536 56.9069H59.0239L51.8717 76.6H46.1477L39.0401 56.9081ZM76.553 64.6594C76.3299 63.6501 75.755 62.7532 74.9311 62.1291C74.1072 61.5051 73.0881 61.1947 72.0563 61.2535C71.0271 61.189 70.0092 61.4979 69.1893 62.1236C68.3695 62.7492 67.8028 63.6495 67.5932 64.6594H76.553ZM72.0117 56.2418C73.4152 56.2288 74.8068 56.5006 76.1022 57.0409C77.3976 57.5812 78.57 58.3787 79.5484 59.3852C80.5268 60.3917 81.2908 61.5862 81.7944 62.8965C82.2979 64.2068 82.5304 65.6057 82.4778 67.0084C82.4887 67.5484 82.4363 68.0877 82.3216 68.6154H67.4704C67.592 69.6653 68.108 70.6298 68.9139 71.3135C69.7197 71.9973 70.7553 72.3492 71.8109 72.298C72.4962 72.333 73.1805 72.2104 73.8111 71.9396C74.4417 71.6687 75.0018 71.2569 75.4483 70.7357L75.7273 70.4601H81.8083C79.9561 74.7274 76.3521 77.2673 72.0898 77.2673C69.3022 77.2777 66.6246 76.1801 64.6461 74.216C63.6665 73.2435 62.888 72.0875 62.355 70.814C61.8221 69.5406 61.5451 68.1747 61.54 66.7942C61.5349 65.4137 61.8017 64.0457 62.3251 62.7684C62.8486 61.491 63.6185 60.3293 64.5909 59.3495C66.5547 57.3708 69.2241 56.2522 72.0117 56.2418ZM87.934 56.9125H93.5353V58.9882C94.1128 58.0814 94.9249 57.3478 95.8855 56.8651C96.8461 56.3824 97.9193 56.1685 98.9915 56.2463C100.971 56.1972 102.893 56.9126 104.358 58.2438C105.854 59.6533 106.333 61.181 106.333 64.3146V76.6H100.375V65.8758C100.485 64.8693 100.274 63.8537 99.7725 62.9743C99.4833 62.5814 99.1022 62.2654 98.6626 62.0539C98.223 61.8425 97.7383 61.742 97.2509 61.7613C96.7082 61.7472 96.1702 61.8644 95.6825 62.103C95.1949 62.3416 94.7721 62.6945 94.4502 63.1317C93.9732 63.8596 93.775 64.7354 93.8923 65.5979V76.6011H87.934V56.9125ZM55.8216 13.8818C55.703 13.2292 55.6173 12.5711 55.565 11.9099C54.7951 11.5432 54.0586 11.1972 53.3557 10.8721C52.9104 12.4692 53.0086 14.1689 53.6346 15.7041C54.2818 17.2999 54.081 20.5607 53.1883 23.7556C52.7396 25.1404 52.0647 26.4414 51.1911 27.6056C51.4812 28.0163 51.8382 28.5118 52.2622 29.0787C53.6943 27.1946 54.7719 25.0657 55.4422 22.7959C56.3713 19.9137 56.5024 16.8337 55.8216 13.8829M67.37 17.6235L65.1161 16.5366C64.2793 17.358 63.5317 18.0208 63.0742 18.4181C61.1997 21.083 60.6641 21.2816 60.9765 19.601C61.5103 18.1513 61.9464 16.6675 62.282 15.1595C61.6237 14.8359 60.9654 14.5168 60.3182 14.2032C59.9054 16.3056 59.4702 18.2518 59.2024 19.3477C58.7338 21.3341 60.0393 24.4442 53.657 30.891C53.869 31.1644 54.0921 31.449 54.3376 31.7391C54.4715 31.8674 54.6165 31.9991 54.7616 32.1297C56.8593 29.7494 59.3698 26.8178 61.4898 24.2333C63.342 21.9902 65.5401 19.813 67.37 17.6235ZM68.43 23.7322C69.3673 22.1096 70.2264 20.6411 70.9405 19.3276C70.1818 18.9683 69.3896 18.5911 68.6197 18.2195C67.7116 19.5799 66.9628 21.0402 66.3881 22.5716C66.1315 23.4019 64.3909 26.2141 60.3294 30.0484C59.0127 31.2983 57.6292 32.537 56.3795 33.7311C56.6584 34.0212 56.9374 34.3136 57.2163 34.6082C58.1456 33.8088 59.1178 33.0608 60.1285 32.3674C62.6614 30.3029 66.5332 27.0019 68.43 23.7356M34.4877 21.8719C34.4654 21.9143 34.4319 21.959 34.4096 22.0059C34.7823 23.3082 34.9331 24.6641 34.8559 26.0165C34.577 29.2372 35.2353 32.2803 35.9271 31.5025C36.6132 29.938 37.1438 28.3098 37.5115 26.6415C37.6565 25.0301 36.3064 21.5528 35.9382 18.1759C35.3245 19.7795 34.8447 21.16 34.4877 21.8719ZM67.6713 32.1944L67.9056 31.9322C64.8636 33.2906 61.9633 34.9465 59.2471 36.8758C59.7045 37.4047 60.1397 37.9326 60.5637 38.4526C61.2473 37.901 61.9924 37.4303 62.7841 37.0499C63.5833 36.6164 64.3382 36.1059 65.038 35.5255C65.8574 34.3702 66.7363 33.2583 67.6713 32.1944ZM33.026 26.4919C33.0573 26.016 33.0235 25.5381 32.9256 25.0713C31.9383 26.8091 31.1021 28.6284 30.4262 30.5093C30.6304 31.6986 30.9595 32.8631 31.4081 33.9833C31.5832 34.6603 31.6842 35.3544 31.7094 36.0533C31.9315 36.3719 32.1699 36.6788 32.4235 36.9729C32.9452 37.6374 33.706 38.0716 34.5435 38.1825C34.5881 37.7205 34.6104 37.2362 34.6327 36.7318C34.6439 36.4941 34.6662 36.252 34.6885 36.0098C34.4331 34.5539 34.0714 33.1187 33.6062 31.7157C32.9374 30.061 32.7367 28.2542 33.026 26.4931M47.6429 12.8339C46.7391 15.5825 46.5494 17.2441 46.806 21.5249C47.0626 25.8056 46.2258 27.2753 45.0654 28.4884C44.3661 29.2211 43.793 30.0647 43.3694 30.9847C44.7749 30.0778 46.2399 29.2665 47.7544 28.5564C49.0373 25.228 49.7393 21.704 49.8298 18.138C49.6232 16.4106 49.71 14.6607 50.0864 12.9623C50.3779 11.8937 50.6089 10.8095 50.7782 9.71487C49.7405 9.26849 48.8591 8.91362 48.1561 8.67704C48.2311 10.0825 48.0574 11.4901 47.6429 12.835M72.7927 25.434C73.6519 24.0726 73.7858 22.373 74.4553 20.9535C73.6073 20.5741 73.3841 20.4681 72.4915 20.0608C70.5723 23.0738 68.0618 27.2552 67.8163 28.8254C69.5776 27.8557 71.2437 26.7225 72.7927 25.4407M43.8938 13.1921C45.6233 11.0183 45.322 5.62047 45.7795 2.2972C45.8628 1.71469 45.9934 1.13994 46.17 0.578649L46.1365 0.285156C44.7542 1.38709 43.439 2.57061 42.1978 3.82939L41.506 2.91097L41.2382 3.23905L41.0597 7.17163C41.0597 7.17163 42.1532 5.90392 42.8673 5.17075C42.8709 5.1697 42.8748 5.1697 42.8784 5.17075C45.4559 2.80495 41.5841 8.62124 39.9774 12.4556C39.4266 13.8469 39.1318 15.3262 39.1071 16.8223C39.0676 17.6817 39.105 18.5429 39.2186 19.3957V19.4325C39.3973 20.7106 39.6962 21.969 40.1113 23.191C40.4103 24.0876 40.5297 25.0345 40.4627 25.9773C40.3957 26.9201 40.1436 27.8405 39.7207 28.6859C38.7487 30.2299 38.1526 31.9805 37.9801 33.7969C37.9954 34.7741 37.9507 35.7512 37.8462 36.7229C38.5228 36.0654 39.1252 35.3357 39.6426 34.5468C40.1343 33.8333 40.7031 33.1761 41.3386 32.5872C41.3275 31.4512 41.149 29.7416 42.1643 28.62C43.3247 27.3423 43.0235 23.9186 42.9007 21.3664C42.778 18.8143 42.1643 15.3827 43.8938 13.1921ZM65.7856 44.8425C66.6782 38.8878 71.5431 34.2042 72.6365 32.5381C73.8193 31.2749 78.1597 26.1772 75.2586 21.0439C75.1359 22.8629 75.6826 26.2219 72.1679 30.044C65.2723 36.6481 64.2012 42.9108 64.2012 42.9108L65.6294 45.7006L65.7856 44.8425Z" fill="black"/>
</g>
<defs>
<clipPath id="clip0_16542_24526">
<rect width="106" height="77" fill="white" transform="translate(0.333374 0.269531)"/>
</clipPath>
</defs>
</svg>
