<svg width="105" height="20" viewBox="0 0 105 20" fill="none" xmlns="http://www.w3.org/2000/svg">
<path d="M10.7047 1.29404H8.64878V11.1035C8.64878 14.7877 7.31552 15.8957 3.93544 15.8957C1.10199 15.8869 0 14.8239 0 13.4457C0 13.1303 0.12027 12.1125 1.1574 12.1125C2.18527 12.1125 2.25012 12.7881 2.25012 13.8871C2.25012 14.3464 2.44468 15.2472 3.65767 15.2472C5.58387 15.2472 6.44498 14.3915 6.44498 11.3648V1.29404H4.46336V0.771484H10.7047V1.29404ZM11.1214 13.5537C10.7788 13.5537 10.4825 13.6617 10.2511 13.896C10.0103 14.1301 9.8899 14.4094 9.8899 14.7426C9.8899 15.0759 10.0103 15.3552 10.2511 15.5714C10.4918 15.8056 10.7788 15.9138 11.1214 15.9138C11.464 15.9138 11.7511 15.8058 12.0012 15.5714C12.2419 15.3552 12.3622 15.0759 12.3622 14.7426C12.3622 14.4003 12.2419 14.1301 12.0012 13.896C11.7605 13.6618 11.4731 13.5537 11.1214 13.5537ZM24.5022 13.5537C24.1596 13.5537 23.8726 13.6617 23.6319 13.896C23.3912 14.1303 23.2798 14.4094 23.2798 14.7426C23.2798 15.0759 23.391 15.3552 23.6319 15.5714C23.8818 15.8056 24.1689 15.9138 24.5022 15.9138C24.8449 15.9138 25.1412 15.8058 25.3819 15.5714C25.6226 15.3552 25.743 15.0759 25.743 14.7426C25.743 14.4003 25.6226 14.1301 25.3819 13.896C25.1412 13.6618 24.8449 13.5537 24.5022 13.5537ZM20.6222 0.771484C25.4097 0.771484 26.2246 2.52789 26.2246 5.03216C26.2246 7.50939 24.9003 9.31987 20.1684 9.31987L18.5387 9.32889V13.067C18.5387 13.5265 18.5943 13.7518 18.7054 14.0038C18.8257 14.301 19.0851 14.5263 19.4739 14.6794C19.7517 14.7785 20.1778 14.8326 20.7334 14.8505V15.5172H14.1587V14.8505C14.7142 14.8326 15.131 14.7784 15.4087 14.6614C15.7792 14.5082 16.0291 14.283 16.1405 13.9858C16.2422 13.7246 16.2978 13.6795 16.2978 12.7788V1.29387H14.5013V0.780331L20.6222 0.771484ZM19.7795 8.7526C22.6687 8.7526 24.1038 7.5366 24.1038 5.1585C24.1038 2.78942 23.3074 1.3391 19.659 1.3391L18.5294 1.35695V8.76144H19.7795M45.0225 13.9501C44.9391 13.6889 44.8928 13.3644 44.8928 12.9502V1.29404H46.4762V0.771484H42.6147C42.5682 0.90667 37.9661 12.0404 37.9661 12.0404C37.9559 12.0584 37.9412 12.0736 37.9234 12.0847C37.9056 12.0957 37.8852 12.1022 37.8642 12.1035C37.8086 12.1035 37.7715 12.0765 37.7532 12.0404C37.7532 12.0404 32.8638 0.90667 32.8084 0.771484H28.5209V1.28486H30.299V12.4907C30.299 12.4907 30.262 13.5266 30.262 13.5357C30.2342 13.8059 30.1415 14.0492 30.0025 14.2473C29.8545 14.4546 29.6229 14.6166 29.3173 14.7248C29.1135 14.7879 28.8081 14.8328 28.4377 14.8418V15.5084H32.7991V14.8418C32.4381 14.8239 32.2806 14.7879 32.0676 14.7248C31.7527 14.6257 31.5211 14.4724 31.3638 14.2563C31.2248 14.058 31.1322 13.8149 31.1044 13.5266C31.1044 13.5266 31.058 12.4907 31.058 12.4817V2.83415H31.308C31.308 2.83415 36.827 15.3732 36.8919 15.5174H37.3548L42.5868 2.97834H42.7165V12.95C42.7165 13.3824 42.67 13.7247 42.5868 13.9859C42.4849 14.2922 42.2627 14.5175 41.9386 14.6705C41.6979 14.7785 41.3367 14.8328 40.8553 14.8506V15.5174H46.8188V14.8506C46.3373 14.8238 45.9668 14.7697 45.7169 14.6615C45.3466 14.4906 45.1243 14.2563 45.0225 13.9501ZM53.0416 4.71706C55.9863 4.71706 58.1715 6.67174 58.1715 10.2568C58.1715 14.8598 54.764 15.9496 52.9768 15.9496C52.0694 15.9496 47.8745 15.6073 47.8745 10.3558C47.8654 6.77088 49.8656 4.71706 53.0416 4.71706ZM53.0048 15.3012C55.1439 15.3012 55.8013 14.0041 55.8013 10.2298C55.8013 7.60853 55.7919 5.37447 53.0048 5.37447C50.4304 5.37447 50.2452 7.53643 50.2452 10.4189C50.2452 14.1391 50.6062 15.3012 53.0048 15.3012ZM66.4966 4.87912C64.5983 4.87912 63.9409 5.96911 63.4128 7.08614C63.4128 7.08614 63.2738 7.07713 63.2647 7.07713C63.2555 7.08615 62.8851 4.96924 62.8851 4.96924H59.2735V5.52784H61.2553V12.7881C61.2553 13.5086 61.2183 14.0672 61.0237 14.3735C60.8015 14.7248 60.3477 14.86 59.5884 14.86H59.2643V15.5266H65.4407V14.86H65.1074C64.3019 14.86 63.8851 14.6889 63.6722 14.3464C63.4776 14.0494 63.3852 13.5358 63.3852 12.7881V9.0228C63.3852 7.75273 64.4316 6.29339 65.6168 6.29339C66.8576 6.29339 66.8946 8.02293 68.2282 7.40158C69.1727 6.96899 68.9598 4.87912 66.4966 4.87912ZM91.082 14.4364C91.471 14.4364 91.9433 14.04 92.045 13.2925H92.4155C92.3135 15.004 91.4524 15.6886 90.0171 15.6886C88.7392 15.6886 88.0355 14.8057 87.915 14.0761C87.1651 14.8508 86.0537 15.8238 84.2942 15.8238C82.7108 15.8238 81.4793 14.6347 81.4052 13.2835C81.1923 9.8244 85.8686 9.45523 87.8409 9.28399V7.5184C87.8409 6.87886 87.6928 6.36549 87.4058 5.97812C87.1002 5.57273 86.5538 5.37463 85.7759 5.37463C85.1092 5.37463 84.6185 5.53685 84.3037 5.85195C84.0072 6.15821 83.8777 6.49149 83.7852 7.06812C83.6555 7.85169 83.3129 8.15795 82.7017 8.15795C82.4332 8.15795 82.2201 8.08585 82.0259 7.92379C81.8406 7.77075 81.7482 7.54544 81.7482 7.22117C81.7482 6.52755 82.0259 6.05006 82.7297 5.52784C83.452 4.98743 84.5818 4.71723 86.1096 4.71723C87.7023 4.71723 88.8043 5.00546 89.3691 5.56389C89.9433 6.12232 90.1008 6.77088 90.1008 7.71668V12.1304L90.1379 13.4818C90.2116 14.0852 90.4153 14.4364 91.082 14.4364ZM87.8502 9.93255C86.3315 9.93255 83.5719 10.9144 83.5719 12.8781C83.5719 13.4906 83.7943 14.7156 85.3129 14.7156C85.9054 14.7156 86.711 14.3823 87.7668 13.4457L87.8131 13.4005C87.8502 13.3734 87.8502 13.3554 87.8502 13.3195V9.93255ZM103.694 14.3735C103.426 14.0494 103.37 13.3375 103.37 12.7971V8.0231C103.37 7.32948 103.278 6.74401 103.009 6.25751C102.741 5.78903 102.361 5.42887 101.889 5.19472C101.407 4.96056 100.861 4.8434 100.259 4.8434C98.092 4.8434 97.1475 6.05957 96.7216 6.87919H96.5549L96.1752 4.96957H92.8137V5.519H94.499V12.7885C94.499 13.3471 94.4527 13.7523 94.3693 14.0227C94.2768 14.3468 94.0639 14.5631 93.7489 14.6983C93.5452 14.7792 93.2304 14.8334 92.8231 14.8513V15.518H98.1568V14.8513C97.6198 14.8062 97.2587 14.6712 97.0643 14.401C96.8512 14.1126 96.7587 13.6263 96.7587 12.9056V10.1223C96.7587 8.96022 96.7493 7.83417 97.1567 7.13154C97.6013 6.375 98.4068 5.95159 99.305 5.95159C100.12 5.95159 100.555 6.20393 100.814 6.70829C101.102 7.27574 101.166 8.32968 101.166 9.16733V12.6174C101.166 13.1939 101.148 13.6083 101.111 13.8785C101.046 14.1939 100.972 14.4551 100.713 14.6171C100.528 14.7433 100.241 14.8244 99.8608 14.8513V15.5089H105V14.8418C104.343 14.8147 103.954 14.7068 103.694 14.3735ZM79.5811 4.29365C80.1644 4.11357 80.646 4.24858 80.8033 4.8883C80.8774 5.19455 80.8128 5.56389 80.6275 5.888C80.4516 6.21228 80.1459 6.4466 79.6645 6.59063C79.2477 6.72582 78.8032 6.72582 78.3125 6.61767C78.5441 7.10417 78.7383 7.78877 78.7383 8.59037C78.7383 11.3827 76.5438 12.2205 74.201 12.5718C71.8119 12.932 71.2008 13.2114 71.2008 13.9409C71.2008 14.4364 71.5156 14.7246 73.1732 14.7246C76.5994 14.8868 78.1274 14.6976 79.2016 16.1299C79.5348 16.5892 79.7015 17.2019 79.7015 17.9676C79.7015 18.526 79.5535 19.1115 79.2294 19.6791C78.9238 20.2464 78.3496 20.7419 77.5253 21.1473C76.7011 21.5527 75.553 21.7689 74.1454 21.7689C73.0805 21.7689 72.3119 21.6878 71.1452 21.3455C70.3859 21.1294 69.3858 20.5349 69.3858 19.2829C69.3858 18.9044 69.4506 18.5893 69.6265 18.319C69.8211 18.0307 70.2191 17.8596 70.5525 17.9137C71.1451 18.0128 71.3209 18.5352 71.2192 19.0305C71.0989 19.517 71.2099 20.2016 71.7841 20.5438C72.5619 21.0122 73.4139 21.1202 74.4603 21.1202C75.6827 21.1202 76.6642 20.9131 77.3866 20.5257C78.1644 20.1023 78.5441 19.5347 78.5441 18.8323C78.5441 18.3189 78.3588 17.9225 77.9977 17.6523C77.6551 17.4091 77.1827 17.2469 76.5994 17.175C76.0529 17.1119 75.2104 17.067 74.0344 17.0578C72.6825 17.031 71.6083 16.8777 70.8397 16.5715C70.1451 16.2923 69.6081 15.7968 69.6081 14.878C69.6081 13.3557 71.0711 12.8873 72.7195 12.563C72.8214 12.5451 72.8214 12.4099 72.701 12.3919C70.7657 11.9955 69.8861 10.9146 69.8861 8.69869C69.8861 6.79809 71.2103 4.7174 74.2197 4.7174C76.0811 4.7174 77.146 5.3299 77.7015 5.82542C77.8683 5.95142 78.248 5.94241 78.4702 5.87932C78.6924 5.80723 78.8591 5.56406 78.9423 5.1318C79.0533 4.66299 79.2568 4.39278 79.5811 4.29365ZM74.275 11.9774C75.5899 11.9774 76.5345 11.59 76.5345 8.66247C76.5345 6.61767 76.0251 5.28451 74.275 5.28451C72.7749 5.28451 72.071 6.74384 72.071 8.69852C72.0619 11.4818 72.8674 11.9774 74.275 11.9774Z" fill="white"/>
</svg>
