<svg width="52" height="53" viewBox="0 0 52 53" fill="none" xmlns="http://www.w3.org/2000/svg">
<g clip-path="url(#clip0_16630_22391)">
<path d="M-3.8147e-06 0.970703H52V52.9707H-3.8147e-06V0.970703Z" fill="#12100E"/>
<path d="M39.5909 18.3616C39.5475 17.9328 39.711 17.509 40.0313 17.2203L43.293 13.2911V12.7041H33.1653L25.3371 29.8724L18.4548 12.7041H8.8V13.2911L11.5888 15.9649C11.8292 16.1482 11.9485 16.4494 11.8987 16.7475V36.394C11.9485 36.6921 11.8292 36.9933 11.5888 37.1766L8.86524 39.8505V40.4374H22.5646V39.8505L19.7432 37.1114C19.4659 36.8342 19.4659 36.7527 19.4659 36.3288V20.4486L27.3104 40.3722H28.3705L37.5034 20.4486V33.8017C37.5795 34.3631 37.3931 34.9283 36.9978 35.3342L33.3284 39.7853V40.3722H43.7333V39.7853L40.0639 35.3342C39.6715 34.9276 39.4959 34.3586 39.5909 33.8017V18.3616Z" fill="white"/>
</g>
<defs>
<clipPath id="clip0_16630_22391">
<rect width="52" height="52" fill="white" transform="matrix(-1 0 0 1 52 0.970703)"/>
</clipPath>
</defs>
</svg>
