<svg width="556" height="477" viewBox="0 0 556 477" fill="none" xmlns="http://www.w3.org/2000/svg">
<g id="intro-bg 1" clip-path="url(#clip0_8961_17981)">
<g id="Frame 1030">
<path id="Vector 103" d="M306.346 136.637L278.895 153.53L401.965 221.091L375.1 236.566" stroke="#3B14AB" stroke-opacity="0.81" stroke-width="2.21299" stroke-linejoin="round"/>
<path id="Vector 99" d="M278.334 118.223C277.993 118.423 277.785 118.791 277.788 119.186C277.792 119.582 278.006 119.946 278.35 120.14L335.841 152.603C336.18 152.795 336.596 152.794 336.934 152.6L393.744 120.137C394.086 119.942 394.298 119.58 394.301 119.186C394.305 118.793 394.099 118.427 393.761 118.226L336.951 84.4105C336.604 84.204 336.172 84.2029 335.824 84.4076L278.334 118.223Z" stroke="#3B14AB" stroke-opacity="0.81" stroke-width="2.21299" stroke-linejoin="round"/>
<path id="Vector 99_2" d="M83.9937 197.173C83.6482 197.371 83.4354 197.739 83.4365 198.137C83.4376 198.535 83.6523 198.902 83.9989 199.097L141.489 231.56C141.826 231.751 142.239 231.751 142.576 231.561L246.293 173.21C246.638 173.017 246.852 172.654 246.857 172.26C246.862 171.865 246.656 171.497 246.317 171.295L189.507 137.48C189.164 137.276 188.738 137.272 188.392 137.47L83.9937 197.173Z" stroke="#3B14AB" stroke-opacity="0.81" stroke-width="2.21299" stroke-linejoin="round"/>
<path id="Vector 108" d="M197.677 201.342L211.729 210.284L181.709 227.529L197.677 237.11" stroke="#3B14AB" stroke-opacity="0.81" stroke-width="2.34903" stroke-linejoin="round"/>
<path id="Ellipse 1296" d="M515.989 331.67C515.989 337.109 512.128 342.248 505.417 346.09C498.737 349.914 489.435 352.314 479.1 352.314C468.765 352.314 459.463 349.914 452.783 346.09C446.072 342.248 442.211 337.109 442.211 331.67C442.211 326.231 446.072 321.092 452.783 317.251C459.463 313.427 468.765 311.026 479.1 311.026C489.435 311.026 498.737 313.427 505.417 317.251C512.128 321.092 515.989 326.231 515.989 331.67Z" stroke="#3B14AB" stroke-opacity="0.81" stroke-width="2.21299"/>
<path id="Vector 109" d="M179.294 333.658C179.294 333.658 146.239 351.681 140.945 354.499" stroke="#3B14AB" stroke-opacity="0.81" stroke-width="2.34903" stroke-linejoin="round"/>
<path id="Vector 103_2" d="M373.527 343.33L420.884 367.41L455.019 347.62" stroke="#3B14AB" stroke-opacity="0.81" stroke-width="2.21299" stroke-linejoin="round"/>
<path id="Vector 99_3" d="M197.269 404.304C197.615 404.502 197.827 404.87 197.826 405.268C197.825 405.666 197.61 406.032 197.264 406.228L139.773 438.691C139.436 438.881 139.024 438.882 138.687 438.692L34.9693 380.341C34.6252 380.148 34.4103 379.785 34.4055 379.39C34.4006 378.996 34.6066 378.628 34.9459 378.426L91.7559 344.611C92.0987 344.407 92.5248 344.403 92.8711 344.601L197.269 404.304Z" stroke="#3B14AB" stroke-opacity="0.81" stroke-width="2.21299" stroke-linejoin="round"/>
</g>
<g id="Frame 918">
<g id="Rectangle 30" filter="url(#filter0_f_8961_17981)">
<rect width="99.7516" height="100.444" transform="matrix(-1 -2.51919e-08 4.36336e-08 1 224.609 111.955)" fill="url(#paint0_linear_8961_17981)" fill-opacity="0.6"/>
</g>
<g id="Rectangle 29" opacity="0.6" filter="url(#filter1_f_8961_17981)">
<rect width="72.7148" height="73.2194" transform="matrix(-1 0 0 1 350.009 47.1543)" fill="url(#paint1_linear_8961_17981)"/>
</g>
<g id="Frame 910">
<path id="Vector 96" d="M337.557 113.433L280.066 80.9696L337.557 47.1543L394.367 80.9696L337.557 113.433Z" fill="#8C49FA"/>
<path id="Vector 98" d="M337.278 113.274V137.207L280.433 103.698V80.7627L337.278 113.274Z" fill="#320282"/>
<path id="Vector 97" d="M337.166 112.814V137.235L394.483 104.158V80.832L337.166 112.814Z" fill="#1F0152"/>
<ellipse id="Ellipse 1292" cx="357.56" cy="113.69" rx="2.54797" ry="3.52261" transform="rotate(1.95579 357.56 113.69)" fill="#D9D9D9"/>
<ellipse id="Ellipse 1293" cx="365.798" cy="109.032" rx="2.54797" ry="3.52261" transform="rotate(1.95579 365.798 109.032)" fill="#D9D9D9"/>
<ellipse id="Ellipse 1294" cx="374.09" cy="104.649" rx="2.54797" ry="3.52261" transform="rotate(1.95579 374.09 104.649)" fill="#D9D9D9"/>
</g>
<g id="Frame 912">
<path id="Vector 96_2" d="M337.557 81.624L280.066 49.161L337.557 15.3457L394.367 49.161L337.557 81.624Z" fill="#4906B9"/>
<path id="Vector 98_2" d="M337.278 81.4657V116.832L280.433 83.3229V48.9541L337.278 81.4657Z" fill="#320282"/>
<path id="Vector 97_2" d="M337.166 81.0044V114.081L394.483 81.0044V49.0225L337.166 81.0044Z" fill="#1F0152"/>
<path id="Rectangle 1185" d="M371.998 66.5315L387.24 57.75V59.7685L371.998 68.55V66.5315Z" fill="#D9D9D9"/>
<path id="Rectangle 1186" d="M371.998 70.5686L387.24 61.7871V63.8056L371.998 72.5871V70.5686Z" fill="#D9D9D9"/>
<path id="Rectangle 1187" d="M371.998 74.5061L387.24 65.7246V67.7431L371.998 76.5246V74.5061Z" fill="#D9D9D9"/>
<g id="Dbt" clip-path="url(#clip1_8961_17981)">
<path id="Vector" d="M322.06 84.6489C321.726 84.1924 321.351 83.789 320.955 83.4614C320.55 83.1243 320.132 82.8642 319.721 82.6935C319.29 82.5141 318.872 82.4266 318.486 82.4347L316.683 82.5429L314.877 82.6467L313.069 82.7497L311.263 82.8638C310.872 82.9023 310.452 82.8654 310.015 82.7546C309.593 82.6521 309.156 82.4738 308.716 82.2243C308.277 81.9769 307.838 81.6615 307.414 81.2871C306.975 80.9 306.554 80.457 306.161 79.9692L304.41 77.8582L302.658 75.7471L300.907 73.64L299.153 71.5278C298.504 70.6741 297.727 70.0325 296.964 69.7201C296.261 69.4402 295.608 69.4384 295.096 69.7151C294.581 69.9819 294.23 70.5154 294.093 71.2416C293.952 72.0335 294.091 73.0162 294.483 74.0068L295.096 75.6606L296.45 79.2933L297.803 82.926L298.418 84.5808C298.647 85.1599 298.824 85.7417 298.947 86.312C299.063 86.8675 299.123 87.4059 299.124 87.9129C299.123 88.4203 299.063 88.8916 298.947 89.3142C298.838 89.7669 298.67 90.1666 298.448 90.5027L297.487 92.019L296.523 93.5284L295.56 95.0356L294.597 96.5448C294.435 96.7899 294.311 97.0786 294.227 97.4043C294.147 97.712 294.112 98.0564 294.121 98.4269C294.133 98.7924 294.193 99.1813 294.298 99.5798C294.404 99.9951 294.557 100.416 294.753 100.828C294.991 101.344 295.287 101.839 295.626 102.29C295.963 102.743 296.336 103.147 296.73 103.483C297.133 103.831 297.551 104.103 297.965 104.288C298.395 104.479 298.814 104.574 299.199 104.567L301.075 104.462L302.947 104.358L304.821 104.252L306.694 104.146C306.131 103.354 305.61 102.521 305.14 101.66C304.669 100.796 304.237 99.915 303.847 99.0237C303.454 98.1286 303.094 97.2241 302.761 96.3228C302.463 95.5193 302.186 94.72 301.919 93.9307C302.39 95.221 303.404 96.888 304.722 98.7343C306.325 100.933 307.995 103.054 309.723 105.084C311.54 107.249 313.404 109.381 315.015 111.244C316.625 113.106 317.99 114.703 318.8 115.787C319.454 116.611 320.23 117.201 320.971 117.436C321.658 117.635 322.275 117.552 322.735 117.196C323.217 116.844 323.53 116.246 323.637 115.476C323.748 114.661 323.59 113.674 323.192 112.683L322.085 109.73L319.659 103.238L317.233 96.7453L316.138 93.8255C315.903 93.2338 315.649 92.645 315.374 92.0609C315.102 91.4858 314.808 90.9178 314.493 90.3602C314.18 89.8053 313.845 89.2629 313.491 88.7368C313.131 88.2016 312.75 87.6862 312.351 87.1949C312.97 87.8783 313.6 88.5799 314.217 89.3009C314.839 90.0219 315.445 90.7705 316.031 91.5435C316.616 92.3145 317.17 93.1209 317.689 93.955C318.212 94.8008 318.682 95.68 319.091 96.5774L320.087 95.0467L321.085 93.5163L322.085 91.9835L323.081 90.4528C323.247 90.2321 323.372 89.9611 323.452 89.6483C323.531 89.3383 323.566 88.9919 323.557 88.6195C323.545 88.242 323.486 87.8412 323.381 87.43C323.274 87.0097 323.119 86.5832 322.92 86.1663C322.694 85.6336 322.402 85.1179 322.06 84.6489ZM298.945 100.805C298.971 101.25 298.835 101.595 298.573 101.751C298.311 101.907 297.948 101.861 297.575 101.622C296.812 101.189 296.188 100.121 296.182 99.2368C296.176 98.3524 296.789 97.9868 297.552 98.4199C297.925 98.6047 298.291 98.9715 298.557 99.4277C298.824 99.8838 298.965 100.385 298.945 100.805ZM296.213 73.2194C296.187 72.7741 296.323 72.4297 296.585 72.2733C296.847 72.117 297.21 72.1636 297.584 72.4017C297.956 72.5872 298.322 72.9545 298.589 73.411C298.855 73.8674 298.997 74.3694 298.977 74.789C299.003 75.2344 298.868 75.5788 298.606 75.7351C298.344 75.8915 297.98 75.8447 297.607 75.6066C297.234 75.4211 296.868 75.0534 296.601 74.597C296.335 74.1405 296.193 73.6391 296.213 73.2194ZM321.487 113.77C321.492 114.42 321.16 114.814 320.645 114.77C320.13 114.725 319.534 114.251 319.135 113.568C318.735 112.884 318.612 112.127 318.822 111.649C319.032 111.171 319.533 111.067 320.093 111.385C320.466 111.57 320.831 111.937 321.098 112.393C321.364 112.849 321.506 113.351 321.487 113.77ZM312.138 94.8135C311.73 93.8083 311.058 93.1189 310.252 92.6637C309.151 92.0705 308.177 92.3026 307.774 93.2544C307.372 94.2061 307.618 95.6952 308.4 97.0427C307.526 96.4098 306.733 95.4249 306.199 94.3078C305.664 93.1908 305.432 92.0349 305.555 91.0985C305.814 89.2297 307.552 88.6646 309.298 89.9559C310.776 91.0985 311.991 93.0241 312.138 94.8135ZM321.585 87.7338C321.566 88.5829 320.96 88.9209 320.215 88.4984C319.47 88.0759 318.854 87.0447 318.821 86.1663C318.84 85.3172 319.446 84.9789 320.191 85.4014C320.936 85.8239 321.553 86.8555 321.585 87.7338Z" fill="#FF694B"/>
</g>
</g>
<g id="Frame 911">
<path id="Vector 96_3" d="M142.107 184.513L84.6162 152.05L189.014 92.3467L245.824 126.162L142.107 184.513Z" fill="#8C49FA"/>
<path id="Vector 98_3" d="M141.828 184.353V208.286L84.9824 174.777V151.842L141.828 184.353Z" fill="#A570FB"/>
<path id="Vector 97_3" d="M141.716 183.892V208.312L245.751 149.559V126.233L141.716 183.892Z" fill="#660BFA"/>
<g id="Snowflake" clip-path="url(#clip2_8961_17981)">
<g id="Vector_2">
<path d="M177.67 131.276C178.231 131.202 178.714 131.146 179.198 131.075C180.773 130.833 182.345 130.586 183.916 130.334C185.011 130.156 186.027 130.202 186.989 130.605C188.265 131.137 188.593 132.334 187.604 133.044C187.118 133.409 186.438 133.672 185.668 133.791C181.925 134.361 178.164 134.941 174.421 135.534C173.214 135.724 172.139 135.635 171.198 135.156C170.213 134.656 169.984 134 170.279 133.301C170.802 132.079 171.396 130.868 171.962 129.652L173.274 126.849C173.439 126.49 173.609 126.133 174.066 125.839C174.514 125.547 175.114 125.345 175.775 125.264C176.437 125.183 177.126 125.226 177.741 125.388C179.102 125.753 179.733 126.563 179.416 127.427C179.218 127.995 178.913 128.551 178.654 129.112C178.358 129.737 178.063 130.363 177.776 130.996C177.723 131.061 177.711 131.14 177.67 131.276Z" fill="#32C0F0"/>
<path d="M152.82 145.596C151.75 145.758 150.764 145.908 149.775 146.06C148.619 146.239 147.459 146.413 146.308 146.602C144.782 146.859 143.148 146.37 142.62 145.661C141.824 144.605 142.687 143.472 144.611 143.147C146.083 142.9 147.57 142.685 149.051 142.455C151.339 142.102 153.632 141.756 155.917 141.389C156.933 141.225 157.902 141.209 158.821 141.53C159.33 141.691 159.744 141.936 160.008 142.234C160.273 142.532 160.376 142.869 160.305 143.202C160.207 143.626 160.049 144.044 159.833 144.454C158.955 146.382 158.063 148.307 157.159 150.228C156.847 150.91 156.136 151.41 154.917 151.616C154.468 151.694 153.994 151.711 153.532 151.664C153.07 151.618 152.633 151.509 152.258 151.348C151.882 151.186 151.576 150.976 151.367 150.734C151.157 150.492 151.049 150.225 151.05 149.954C151.091 149.556 151.21 149.161 151.405 148.779C151.835 147.801 152.303 146.828 152.753 145.853C152.784 145.789 152.792 145.723 152.82 145.596Z" fill="#32C0F0"/>
<path d="M148.335 135.945L147.714 135.587C146.293 134.766 144.87 133.945 143.449 133.124C142.897 132.8 142.576 132.369 142.548 131.914C142.521 131.46 142.789 131.016 143.301 130.671C144.25 130.056 146.257 129.739 147.736 130.558C148.838 131.172 149.901 131.808 150.988 132.436C152.799 133.481 154.61 134.527 156.421 135.572C156.923 135.845 157.25 136.209 157.35 136.603C157.45 136.997 157.316 137.399 156.971 137.744C156.751 137.967 156.456 138.161 156.103 138.317C155.75 138.472 155.346 138.585 154.916 138.648C152.431 139.033 149.957 139.419 147.497 139.804L143.544 140.418C142.946 140.525 142.31 140.537 141.702 140.451C141.033 140.356 140.44 140.132 140.019 139.817C139.597 139.503 139.372 139.115 139.38 138.717C139.382 138.319 139.613 137.932 140.038 137.618C140.462 137.303 141.056 137.079 141.724 136.981C142.853 136.798 143.994 136.635 145.124 136.46C146.15 136.292 147.176 136.125 148.335 135.945Z" fill="#32C0F0"/>
<path d="M169.577 148.209L168.65 150.19C168.37 150.79 168.104 151.394 167.812 151.992C167.625 152.419 167.181 152.792 166.559 153.046C165.936 153.3 165.178 153.417 164.42 153.376C163 153.298 161.742 152.581 161.735 151.755C161.745 151.369 161.841 150.986 162.021 150.615C162.938 148.596 163.889 146.581 164.824 144.566C165.094 143.983 165.555 143.491 166.532 143.202C167.111 143.013 167.781 142.94 168.439 142.994C169.098 143.048 169.706 143.226 170.169 143.501C171.297 144.138 172.404 144.791 173.516 145.433C175.276 146.449 177.036 147.465 178.798 148.482C179.372 148.804 179.704 149.243 179.724 149.705C179.744 150.168 179.45 150.616 178.904 150.955C178.623 151.131 178.284 151.274 177.906 151.373C177.528 151.472 177.12 151.526 176.705 151.532C176.29 151.539 175.878 151.496 175.492 151.408C175.106 151.321 174.755 151.189 174.459 151.021C173.03 150.223 171.648 149.398 170.245 148.588L169.577 148.209Z" fill="#32C0F0"/>
<path d="M160.926 128.641L161.627 127.15C161.972 126.417 162.314 125.683 162.652 124.949C162.883 124.449 163.301 124.019 164.108 123.765C165.342 123.373 166.566 123.407 167.677 123.905C168.679 124.356 168.948 124.989 168.713 125.691C168.532 126.25 168.232 126.789 167.978 127.336C167.19 129.032 166.388 130.725 165.617 132.423C165.204 133.322 163.827 133.965 162.224 133.876C161.549 133.85 160.912 133.687 160.425 133.415C157.495 131.724 154.566 130.033 151.639 128.343C151.155 128.06 150.849 127.691 150.771 127.295C150.692 126.9 150.846 126.5 151.207 126.161C151.568 125.822 152.116 125.562 152.763 125.423C153.409 125.285 154.118 125.275 154.774 125.396C155.266 125.501 155.713 125.665 156.086 125.878C157.491 126.658 158.84 127.454 160.212 128.247L160.926 128.641Z" fill="#32C0F0"/>
<path d="M182.277 140.968L187.044 143.721C187.613 144.051 187.934 144.497 187.94 144.963C187.946 145.429 187.636 145.878 187.077 146.214C186.517 146.55 185.752 146.746 184.946 146.76C184.139 146.775 183.355 146.607 182.761 146.292C181.942 145.855 181.169 145.372 180.373 144.913C178.271 143.699 176.169 142.485 174.074 141.276C173.77 141.107 173.531 140.904 173.371 140.679C173.211 140.454 173.134 140.212 173.144 139.968C173.155 139.725 173.253 139.486 173.432 139.265C173.612 139.045 173.868 138.848 174.186 138.688C174.585 138.49 175.052 138.343 175.557 138.258C179.353 137.658 183.144 137.074 186.939 136.485C187.443 136.391 187.978 136.368 188.5 136.417C189.022 136.466 189.517 136.586 189.942 136.767C191.24 137.309 191.532 138.529 190.498 139.24C189.976 139.605 189.262 139.863 188.465 139.973C186.58 140.25 184.723 140.542 182.838 140.837C182.646 140.875 182.459 140.918 182.277 140.968Z" fill="#32C0F0"/>
<path d="M169.317 136.09C169.88 136.313 170.004 136.628 169.995 136.998C169.971 137.965 169.988 138.932 169.984 139.901C169.986 140.066 169.932 140.229 169.824 140.382C169.716 140.534 169.557 140.673 169.355 140.789C169.153 140.906 168.913 140.998 168.649 141.06C168.385 141.123 168.102 141.154 167.816 141.152C166.092 141.157 164.372 141.159 162.655 141.159C162.09 141.159 161.549 141.03 161.147 140.801C160.746 140.572 160.517 140.261 160.511 139.935C160.506 138.927 160.507 137.918 160.513 136.908C160.525 136.59 160.748 136.286 161.137 136.059C161.525 135.833 162.05 135.701 162.601 135.691C164.299 135.686 166.001 135.702 167.704 135.68C168.372 135.676 168.931 135.76 169.317 136.09ZM163.829 137.578C163.734 137.667 163.663 137.764 163.62 137.865C163.585 138.236 163.585 138.607 163.621 138.978C163.658 139.227 163.93 139.359 164.401 139.378C164.948 139.399 165.497 139.4 166.045 139.381C166.161 139.386 166.276 139.376 166.385 139.353C166.493 139.329 166.591 139.293 166.673 139.246C166.755 139.198 166.818 139.142 166.859 139.079C166.899 139.016 166.916 138.95 166.908 138.883C166.942 138.58 166.942 138.276 166.909 137.973C166.872 137.633 166.596 137.483 165.991 137.464C165.491 137.448 164.989 137.45 164.489 137.468C164.262 137.49 164.041 137.527 163.829 137.578Z" fill="#32C0F0"/>
</g>
</g>
</g>
</g>
<g id="Frame 1029">
<path id="Ellipse 1219 (Stroke)" fill-rule="evenodd" clip-rule="evenodd" d="M328.53 361.126C329.045 361.021 329.56 360.913 330.074 360.803C332.068 360.377 334.055 359.921 336.033 359.434C338.011 358.948 339.958 358.437 341.872 357.901C342.365 357.764 342.856 357.624 343.345 357.483C343.836 357.342 344.324 357.199 344.81 357.054L343.396 355.369L340.441 356.195C338.574 356.717 336.676 357.216 334.747 357.69C332.817 358.165 330.879 358.61 328.934 359.025L325.855 359.683L326.98 361.439C327.497 361.337 328.014 361.232 328.53 361.126ZM321.011 362.526L320.188 360.716L317.012 361.197C312.949 361.812 308.868 362.306 304.783 362.682L301.54 362.98L302.05 364.829C302.592 364.787 303.134 364.743 303.676 364.697C304.217 364.652 304.758 364.604 305.299 364.554C309.491 364.169 313.678 363.662 317.845 363.03C318.374 362.95 318.903 362.868 319.431 362.784C319.958 362.7 320.484 362.614 321.011 362.526ZM295.829 365.22L295.638 363.352L292.361 363.463C288.182 363.606 284.012 363.628 279.865 363.533L276.584 363.457L276.455 365.327C277.001 365.348 277.548 365.366 278.095 365.383C278.641 365.4 279.188 365.414 279.735 365.427C283.989 365.525 288.267 365.502 292.554 365.356C293.1 365.337 293.646 365.316 294.192 365.294C294.738 365.271 295.284 365.247 295.829 365.22ZM270.223 365.006L270.67 363.152L267.417 362.891C263.281 362.559 259.183 362.11 255.137 361.548L251.945 361.104L251.186 362.924C251.715 363.005 252.244 363.085 252.775 363.163C253.305 363.241 253.837 363.317 254.369 363.391C258.518 363.967 262.722 364.428 266.965 364.769C267.507 364.812 268.049 364.854 268.593 364.893C269.135 364.933 269.679 364.97 270.223 365.006ZM245.181 361.908L246.244 360.139L243.142 359.518C239.203 358.729 235.333 357.829 231.546 356.823L228.563 356.03L227.207 357.73C227.698 357.869 228.191 358.007 228.685 358.143C229.18 358.278 229.675 358.412 230.172 358.544C234.056 359.577 238.026 360.5 242.066 361.309C242.583 361.412 243.101 361.514 243.62 361.614C244.139 361.714 244.66 361.812 245.181 361.908ZM221.657 356.061L223.294 354.445L220.46 353.488C216.868 352.275 213.374 350.959 209.993 349.544L207.334 348.432L205.432 349.947C205.867 350.139 206.304 350.329 206.743 350.518C207.182 350.707 207.623 350.894 208.066 351.079C211.534 352.531 215.118 353.88 218.802 355.124C219.275 355.284 219.749 355.441 220.225 355.598C220.701 355.754 221.178 355.908 221.657 356.061ZM200.552 347.686L202.703 346.285L200.247 345.027C197.142 343.437 194.162 341.753 191.32 339.979L189.091 338.587L186.711 339.858C187.072 340.096 187.436 340.332 187.802 340.566C188.169 340.801 188.538 341.034 188.909 341.266C191.825 343.087 194.883 344.814 198.068 346.445C198.478 346.655 198.889 346.863 199.303 347.07C199.717 347.277 200.134 347.482 200.552 347.686ZM182.695 337.088L185.281 335.959L183.3 334.447C180.805 332.541 178.455 330.553 176.264 328.484L174.552 326.866L171.786 327.843C172.06 328.117 172.336 328.389 172.616 328.661C172.895 328.933 173.178 329.203 173.463 329.473C175.711 331.595 178.121 333.635 180.681 335.59C181.012 335.842 181.344 336.093 181.68 336.343C182.015 336.592 182.354 336.841 182.695 337.088ZM168.786 324.671L171.705 323.855L170.274 322.149C169.37 321.071 168.506 319.975 167.684 318.861C166.862 317.747 166.092 316.628 165.372 315.505L164.233 313.727L161.192 314.377C161.369 314.675 161.549 314.974 161.733 315.272C161.916 315.569 162.103 315.866 162.293 316.163C163.031 317.315 163.821 318.462 164.664 319.604C165.506 320.746 166.392 321.87 167.319 322.975C167.557 323.26 167.799 323.543 168.043 323.825C168.288 324.108 168.536 324.39 168.786 324.671ZM159.308 310.931L162.444 310.455L161.611 308.622C160.545 306.276 159.689 303.92 159.038 301.561L158.522 299.689L155.32 299.984C155.392 300.297 155.468 300.61 155.548 300.922C155.627 301.235 155.709 301.547 155.796 301.859C156.463 304.28 157.341 306.697 158.435 309.103C158.574 309.408 158.716 309.713 158.862 310.018C159.007 310.323 159.156 310.627 159.308 310.931ZM154.643 296.392L157.879 296.282L157.685 294.389C157.438 291.977 157.4 289.569 157.565 287.175L157.696 285.281L154.456 285.207C154.421 285.522 154.389 285.837 154.36 286.153C154.331 286.468 154.306 286.784 154.284 287.1C154.115 289.556 154.154 292.026 154.407 294.501C154.44 294.816 154.475 295.132 154.515 295.447C154.554 295.762 154.596 296.077 154.643 296.392ZM155.013 281.608L158.224 281.866L158.677 279.988C159.252 277.6 160.03 275.234 161.003 272.898L161.772 271.055L158.62 270.617C158.478 270.923 158.34 271.228 158.205 271.535C158.071 271.841 157.939 272.148 157.811 272.455C156.812 274.85 156.015 277.278 155.424 279.727C155.349 280.04 155.277 280.353 155.208 280.667C155.14 280.98 155.075 281.294 155.013 281.608ZM160.38 267.15L163.443 267.764L164.519 265.973C165.885 263.699 167.444 261.464 169.187 259.278L170.561 257.556L167.615 256.773C167.374 257.057 167.136 257.341 166.901 257.626C166.666 257.912 166.434 258.198 166.205 258.485C164.416 260.727 162.818 263.019 161.417 265.352C161.238 265.65 161.061 265.949 160.889 266.249C160.716 266.549 160.546 266.849 160.38 267.15ZM170.507 253.569L173.306 254.514L174.963 252.878C177.064 250.804 179.343 248.787 181.794 246.834L183.721 245.299L181.096 244.201C180.764 244.452 180.434 244.704 180.107 244.958C179.781 245.211 179.457 245.466 179.136 245.722C176.621 247.724 174.284 249.794 172.129 251.921C171.853 252.193 171.579 252.467 171.309 252.742C171.039 253.017 170.771 253.292 170.507 253.569ZM185.013 241.384L187.438 242.626L189.617 241.208C192.371 239.415 195.288 237.694 198.361 236.054L200.772 234.767L198.571 233.392C198.159 233.601 197.75 233.811 197.344 234.023C196.937 234.234 196.533 234.447 196.132 234.662C192.979 236.345 189.987 238.111 187.161 239.95C186.798 240.186 186.437 240.424 186.079 240.663C185.721 240.902 185.366 241.142 185.013 241.384ZM203.369 231.074L205.324 232.567L207.943 231.423C211.244 229.983 214.688 228.626 218.272 227.361L221.073 226.372L219.382 224.775C218.907 224.934 218.435 225.093 217.965 225.255C217.494 225.416 217.025 225.579 216.559 225.744C212.883 227.041 209.349 228.433 205.963 229.911C205.526 230.102 205.092 230.294 204.66 230.488C204.227 230.682 203.797 230.877 203.369 231.074ZM224.876 223.044L226.289 224.729L229.244 223.903C231.111 223.381 233.009 222.882 234.939 222.407C236.868 221.933 238.806 221.488 240.751 221.073L243.831 220.415L242.705 218.659C242.188 218.761 241.671 218.865 241.155 218.971C240.64 219.077 240.126 219.185 239.612 219.295C237.617 219.721 235.63 220.177 233.652 220.663C231.674 221.15 229.727 221.661 227.813 222.196C227.32 222.334 226.829 222.474 226.34 222.615C225.85 222.756 225.362 222.899 224.876 223.044ZM248.675 217.572L249.498 219.382L252.673 218.901C256.736 218.285 260.817 217.791 264.903 217.416L268.145 217.117L267.635 215.269C267.093 215.311 266.551 215.355 266.009 215.4C265.468 215.446 264.927 215.494 264.386 215.544C260.194 215.929 256.008 216.436 251.84 217.067C251.311 217.147 250.783 217.23 250.255 217.314C249.728 217.398 249.201 217.484 248.675 217.572ZM273.856 214.878L274.047 216.746L277.325 216.634C281.503 216.492 285.673 216.47 289.82 216.565L293.101 216.641L293.23 214.77C292.684 214.75 292.138 214.731 291.591 214.715C291.044 214.698 290.498 214.684 289.951 214.671C285.696 214.573 281.418 214.596 277.131 214.742C276.585 214.761 276.039 214.781 275.493 214.804C274.947 214.827 274.402 214.851 273.856 214.878ZM299.462 215.092L299.016 216.946L302.268 217.207C306.404 217.539 310.503 217.988 314.548 218.55L317.74 218.994L318.499 217.174C317.971 217.092 317.441 217.013 316.91 216.935C316.38 216.857 315.849 216.781 315.317 216.707C311.167 216.131 306.963 215.67 302.72 215.329C302.178 215.286 301.636 215.244 301.093 215.205C300.55 215.165 300.006 215.127 299.462 215.092ZM324.504 218.19L323.442 219.959L326.544 220.58C330.482 221.369 334.353 222.269 338.14 223.275L341.122 224.068L342.478 222.368C341.987 222.228 341.494 222.091 341 221.955C340.506 221.819 340.01 221.685 339.513 221.553C335.629 220.521 331.66 219.598 327.62 218.789C327.103 218.685 326.585 218.584 326.065 218.484C325.546 218.384 325.026 218.286 324.504 218.19ZM348.028 224.037L346.391 225.653L349.225 226.61C352.817 227.823 356.311 229.139 359.692 230.554L362.351 231.666L364.254 230.151C363.819 229.959 363.382 229.769 362.943 229.58C362.504 229.391 362.062 229.204 361.62 229.019C358.151 227.567 354.567 226.218 350.883 224.974C350.41 224.814 349.936 224.656 349.461 224.5C348.985 224.344 348.507 224.19 348.028 224.037ZM369.133 232.412L366.982 233.812L369.438 235.07C372.543 236.661 375.523 238.344 378.365 240.119L380.595 241.51L382.975 240.24C382.613 240.002 382.249 239.766 381.883 239.532C381.516 239.297 381.147 239.063 380.776 238.832C377.86 237.011 374.802 235.284 371.617 233.652C371.208 233.443 370.796 233.234 370.382 233.028C369.968 232.821 369.552 232.616 369.133 232.412ZM386.991 243.01L384.405 244.139L386.385 245.651C388.88 247.556 391.23 249.545 393.421 251.614L395.133 253.231L397.9 252.255C397.626 251.981 397.349 251.708 397.07 251.437C396.79 251.165 396.507 250.895 396.222 250.625C393.975 248.503 391.564 246.463 389.004 244.508C388.674 244.255 388.341 244.005 388.006 243.755C387.67 243.505 387.331 243.257 386.991 243.01ZM400.899 255.427L397.98 256.243L399.412 257.949C400.316 259.027 401.179 260.123 402.001 261.237C402.823 262.351 403.593 263.47 404.313 264.593L405.452 266.371L408.494 265.721C408.317 265.422 408.136 265.124 407.953 264.826C407.769 264.529 407.583 264.232 407.392 263.935C406.654 262.783 405.864 261.636 405.022 260.494C404.179 259.352 403.294 258.228 402.367 257.123C402.128 256.838 401.886 256.555 401.642 256.272C401.397 255.989 401.149 255.708 400.899 255.427ZM410.377 269.167L407.241 269.642L408.074 271.476C409.141 273.822 409.996 276.178 410.647 278.537L411.164 280.409L414.365 280.114C414.293 279.801 414.217 279.488 414.138 279.175C414.059 278.863 413.976 278.551 413.89 278.238C413.222 275.818 412.344 273.401 411.25 270.995C411.112 270.69 410.969 270.384 410.824 270.08C410.678 269.775 410.529 269.471 410.377 269.167ZM415.043 283.706L411.807 283.816L412 285.708C412.247 288.121 412.285 290.528 412.12 292.923L411.989 294.817L415.229 294.891C415.264 294.576 415.297 294.261 415.325 293.945C415.354 293.63 415.379 293.314 415.401 292.998C415.57 290.542 415.531 288.072 415.278 285.597C415.246 285.281 415.21 284.966 415.171 284.651C415.132 284.336 415.089 284.021 415.043 283.706ZM414.672 298.49L411.461 298.232L411.009 300.109C410.433 302.497 409.656 304.864 408.682 307.199L407.914 309.042L411.066 309.48C411.207 309.175 411.345 308.869 411.48 308.563C411.615 308.257 411.746 307.95 411.874 307.643C412.873 305.247 413.671 302.82 414.261 300.37C414.336 300.058 414.408 299.744 414.477 299.431C414.545 299.117 414.611 298.804 414.672 298.49ZM409.306 312.947L406.242 312.334L405.166 314.125C403.8 316.399 402.242 318.634 400.498 320.82L399.125 322.542L402.07 323.325C402.311 323.041 402.549 322.757 402.785 322.471C403.02 322.186 403.252 321.9 403.48 321.613C405.269 319.37 406.867 317.079 408.268 314.746C408.448 314.448 408.624 314.149 408.797 313.849C408.97 313.549 409.139 313.249 409.306 312.947ZM399.178 326.529L396.38 325.584L394.722 327.22C392.621 329.294 390.342 331.311 387.891 333.263L385.964 334.798L388.589 335.897C388.922 335.646 389.251 335.393 389.578 335.14C389.905 334.886 390.229 334.632 390.55 334.376C393.064 332.373 395.402 330.304 397.556 328.177C397.833 327.904 398.106 327.631 398.376 327.356C398.647 327.081 398.914 326.806 399.178 326.529ZM384.672 338.714L382.247 337.472L380.068 338.89C377.314 340.683 374.397 342.403 371.324 344.044L368.914 345.331L371.115 346.705C371.526 346.497 371.935 346.287 372.341 346.075C372.748 345.863 373.152 345.65 373.554 345.436C376.707 343.753 379.699 341.987 382.524 340.148C382.888 339.912 383.248 339.674 383.606 339.435C383.964 339.196 384.32 338.956 384.672 338.714ZM366.316 349.024L364.361 347.531L361.742 348.674C358.442 350.115 354.997 351.472 351.414 352.737L348.612 353.725L350.304 355.322C350.778 355.164 351.25 355.004 351.72 354.843C352.191 354.682 352.66 354.519 353.126 354.354C356.803 353.056 360.336 351.665 363.722 350.187C364.159 349.996 364.594 349.804 365.026 349.61C365.458 349.416 365.889 349.221 366.316 349.024Z" fill="#5506D7"/>
<g id="Ellipse 1220 (Stroke)" filter="url(#filter2_d_8961_17981)">
<path fill-rule="evenodd" clip-rule="evenodd" d="M192.012 312.249C196.914 319.089 204.18 325.498 213.812 331.059C223.443 336.619 234.543 340.815 246.391 343.645L247.273 342.415C235.7 339.651 224.855 335.552 215.442 330.118C206.029 324.683 198.93 318.422 194.142 311.74L192.012 312.249ZM192.012 267.849L194.142 268.358C198.93 261.676 206.029 255.415 215.442 249.98C224.855 244.545 235.7 240.447 247.273 237.683L246.391 236.453C234.543 239.283 223.443 243.478 213.812 249.039C204.18 254.6 196.914 261.008 192.012 267.849ZM323.294 236.453C335.142 239.283 346.243 243.478 355.874 249.039C365.505 254.6 372.772 261.008 377.674 267.849L375.544 268.358C370.756 261.676 363.657 255.415 354.244 249.98C344.831 244.545 333.986 240.447 322.413 237.683L323.294 236.453ZM377.674 312.249L375.544 311.74C370.756 318.422 363.657 324.683 354.244 330.118C344.831 335.552 333.986 339.651 322.413 342.415L323.294 343.645C335.142 340.815 346.243 336.619 355.874 331.059C365.505 325.498 372.772 319.089 377.674 312.249Z" fill="#FFF6FC"/>
</g>
<g id="Frame 917">
<g id="Frame 916">
<path id="Union" fill-rule="evenodd" clip-rule="evenodd" d="M517.095 315.55C517.095 315.55 517.095 315.55 517.095 315.55L517.095 298.096L501.774 298.096C495.445 295.397 487.598 293.8 479.1 293.8C470.601 293.8 462.755 295.397 456.426 298.096L441.104 298.096L441.104 315.55C441.104 315.55 441.104 315.55 441.104 315.55C441.105 327.563 458.116 337.3 479.1 337.3C500.084 337.3 517.095 327.563 517.095 315.55Z" fill="#5506D7"/>
<ellipse id="Ellipse 1295" cx="479.1" cy="296.755" rx="37.9955" ry="21.7503" fill="#3B009B"/>
</g>
<g id="Frame 914">
<path id="Union_2" fill-rule="evenodd" clip-rule="evenodd" d="M517.095 290.908C517.095 290.908 517.095 290.908 517.095 290.908L517.095 273.453L501.774 273.453C495.445 270.754 487.598 269.157 479.1 269.157C470.601 269.157 462.755 270.754 456.426 273.453L441.104 273.453L441.104 290.908C441.104 290.908 441.104 290.908 441.104 290.908C441.105 302.92 458.116 312.658 479.1 312.658C500.084 312.658 517.095 302.92 517.095 290.908Z" fill="#5506D7"/>
<ellipse id="Ellipse 1295_2" cx="479.1" cy="272.113" rx="37.9955" ry="21.7503" fill="#3B009B"/>
</g>
<g id="Frame 915">
<path id="Union_3" fill-rule="evenodd" clip-rule="evenodd" d="M479.1 288.092C500.084 288.092 517.095 278.354 517.095 266.342C517.095 266.334 517.095 266.326 517.095 266.318L517.095 248.887L501.774 248.887C495.445 246.189 487.598 244.592 479.1 244.592C470.602 244.592 462.755 246.189 456.426 248.887L441.104 248.887L441.104 266.342L441.105 266.342C441.105 278.354 458.116 288.092 479.1 288.092Z" fill="#660BFA"/>
<ellipse id="Ellipse 1295_3" cx="479.1" cy="247.546" rx="37.9955" ry="21.7503" fill="#8C49FA"/>
<g id="Airbyte" clip-path="url(#clip3_8961_17981)">
<path id="Vector_3" fill-rule="evenodd" clip-rule="evenodd" d="M486.797 237.209C493.685 236.962 500.108 239.431 502.394 243.189C505.43 248.182 500.414 253.54 491.719 254.887L472.172 257.909C471.08 258.078 469.916 257.989 468.938 257.663C467.959 257.337 467.245 256.8 466.952 256.17L490.619 252.51C496.929 251.532 500.573 247.646 498.379 244.021C496.733 241.301 492.082 239.5 487.099 239.666C484.357 239.753 481.762 240.412 479.795 241.519C477.828 242.627 476.623 244.108 476.403 245.688C476.364 245.972 476.357 246.257 476.383 246.542L462.55 248.687C462.009 248.771 461.445 248.793 460.89 248.751C460.335 248.709 459.8 248.604 459.315 248.443C458.831 248.281 458.406 248.066 458.065 247.81C457.725 247.554 457.475 247.261 457.33 246.949L472.348 244.619C472.697 243.507 473.408 242.442 474.443 241.482L465.229 242.916C464.137 243.085 462.974 242.997 461.995 242.671C461.016 242.345 460.302 241.808 460.009 241.177L483.798 237.49C484.78 237.341 485.784 237.247 486.797 237.209ZM492.037 245.78C492.921 247.69 490.95 249.663 487.641 250.174L464.865 253.688C463.773 253.857 462.61 253.769 461.631 253.443C460.652 253.117 459.938 252.58 459.645 251.95L480.829 248.666C480.338 248.231 480.017 247.74 479.887 247.227C479.757 246.713 479.822 246.189 480.076 245.692C480.331 245.194 480.77 244.734 481.363 244.343C481.955 243.953 482.688 243.641 483.509 243.429C484.33 243.218 485.221 243.112 486.12 243.119C487.019 243.125 487.904 243.245 488.715 243.468C489.526 243.692 490.243 244.014 490.816 244.413C491.39 244.812 491.806 245.279 492.037 245.78ZM486.29 245.594C486.036 245.575 485.778 245.585 485.531 245.623C485.159 245.681 484.825 245.801 484.57 245.968C484.316 246.135 484.154 246.342 484.103 246.563C484.053 246.783 484.117 247.008 484.287 247.207C484.457 247.406 484.726 247.572 485.06 247.683C485.393 247.794 485.776 247.846 486.161 247.831C486.545 247.817 486.914 247.736 487.22 247.601C487.525 247.465 487.755 247.281 487.879 247.07C488.003 246.859 488.016 246.632 487.916 246.417C487.85 246.275 487.736 246.141 487.581 246.024C487.425 245.907 487.231 245.808 487.01 245.735C486.788 245.661 486.544 245.613 486.29 245.594Z" fill="white"/>
</g>
</g>
<g id="Rectangle 29_2" opacity="0.6" filter="url(#filter3_f_8961_17981)">
<rect width="84.8922" height="85.4814" transform="matrix(-1 -2.51919e-08 4.36336e-08 1 503.039 250.362)" fill="url(#paint2_linear_8961_17981)"/>
</g>
</g>
<path id="Vector 99_4" d="M206.237 287.927C205.896 288.128 205.688 288.495 205.691 288.891C205.695 289.286 205.909 289.65 206.254 289.844L284.614 334.092C284.954 334.284 285.369 334.283 285.707 334.089L363.141 289.842C363.482 289.646 363.694 289.284 363.698 288.891C363.701 288.497 363.496 288.131 363.157 287.93L285.724 241.839C285.377 241.633 284.945 241.632 284.597 241.836L206.237 287.927Z" stroke="#6E00D8" stroke-width="2.21299" stroke-linejoin="round"/>
<g id="Frame 912_2">
<g id="Vector_4" filter="url(#filter4_d_8961_17981)">
<path d="M245.746 284.063C235.416 278.1 229.613 270.012 229.613 261.578C229.613 253.145 235.416 245.057 245.746 239.093L284.695 216.608L323.643 239.093C333.973 245.057 339.776 253.145 339.776 261.578C339.776 270.012 333.973 278.1 323.643 284.063C313.313 290.026 299.303 293.377 284.695 293.377C270.086 293.377 256.076 290.026 245.746 284.063V284.063Z" fill="#6117FF"/>
</g>
<path id="Vector 96_4" d="M285.226 266.447L207.094 222.329L285.226 176.372L362.433 222.329L285.226 266.447Z" fill="#6400CA"/>
<g id="Monograme_Kestra">
<g id="Vector_5">
<path d="M277.356 219.748C277.356 218.629 278.926 217.722 280.864 217.722L288.829 217.722C290.767 217.722 292.337 218.629 292.337 219.748L292.337 224.346C292.337 225.465 290.767 226.372 288.829 226.372L280.864 226.372C278.926 226.372 277.356 225.465 277.356 224.346V219.748Z" fill="#A950FF"/>
<path d="M295.666 209.139C295.666 208.041 297.209 207.15 299.112 207.15L307.202 207.15C309.105 207.15 310.648 208.041 310.648 209.139L310.648 213.81C310.648 214.909 309.105 215.8 307.202 215.8L299.112 215.8C297.209 215.8 295.666 214.909 295.666 213.81L295.666 209.139Z" fill="#A950FF"/>
<path d="M259.045 209.14C259.045 208.041 260.587 207.15 262.49 207.15L270.581 207.15C272.484 207.15 274.026 208.041 274.026 209.14L274.026 213.811C274.026 214.909 272.484 215.8 270.581 215.8L262.49 215.8C260.587 215.8 259.045 214.909 259.045 213.811L259.045 209.14Z" fill="#E9C1FF"/>
<path d="M270.519 217.722C272.457 217.722 274.027 218.629 274.027 219.747V224.346C274.027 225.465 272.457 226.372 270.519 226.372L262.554 226.372C260.616 226.372 259.046 225.465 259.046 224.346V219.747C259.046 218.629 260.616 217.722 262.554 217.722L270.519 217.722Z" fill="#CD88FF"/>
<path d="M270.581 228.294C272.484 228.294 274.026 229.184 274.026 230.283L274.026 234.954C274.026 236.053 272.484 236.943 270.581 236.943L262.49 236.943C260.587 236.943 259.045 236.053 259.045 234.954L259.045 230.283C259.045 229.184 260.587 228.294 262.49 228.294L270.581 228.294Z" fill="#A950FF"/>
<path d="M288.829 207.15C290.767 207.15 292.338 208.057 292.338 209.176L292.338 213.774C292.338 214.893 290.767 215.8 288.829 215.8L280.864 215.8C278.927 215.8 277.356 214.893 277.356 213.774L277.356 209.176C277.356 208.057 278.927 207.15 280.864 207.15L288.829 207.15Z" fill="#CD88FF"/>
<path d="M304.011 228.586C308.34 228.586 311.849 230.612 311.849 233.111C311.849 235.611 308.34 237.637 304.011 237.637C299.682 237.637 296.173 235.611 296.173 233.111C296.173 230.612 299.682 228.586 304.011 228.586Z" fill="#F62E76"/>
</g>
</g>
<path id="Vector 98_4" d="M284.846 266.232L284.846 314.296L207.591 268.756L207.591 222.047L284.846 266.232Z" fill="#4A0292"/>
<path id="Vector 97_4" d="M284.695 265.606L284.695 313.751L362.592 268.798L362.592 222.141L284.695 265.606Z" fill="#3C0077"/>
</g>
</g>
<g id="Frame 913">
<g id="Rectangle 29_3" filter="url(#filter5_f_8961_17981)">
<rect width="87.8844" height="88.4943" transform="matrix(-1 -2.51919e-08 4.36336e-08 1 192.097 296.365)" fill="url(#paint3_linear_8961_17981)"/>
</g>
<path id="Vector 101" d="M139.508 401.94L139.508 425.873L196.354 392.364L196.354 369.429L139.508 401.94Z" fill="#060409"/>
<path id="Vector 102" d="M139.619 401.478L139.619 425.899L35.5835 367.146L35.5835 343.82L139.619 401.478Z" fill="#14101D"/>
<path id="Vector 100" d="M139.228 402.098L196.719 369.635L92.3209 309.932L35.5109 343.747L139.228 402.098Z" fill="#1D1925" stroke="#819AF5" stroke-width="0.737664"/>
<g id="Microsoft Azure" clip-path="url(#clip4_8961_17981)">
<g id="Vector_6">
<path d="M87.8978 348.848L98.9804 343.193L121.563 366.457C121.795 366.696 121.874 366.966 121.79 367.23C121.705 367.493 121.461 367.736 121.091 367.925L112.466 372.326C112.186 372.469 111.843 372.575 111.466 372.637C111.089 372.699 110.689 372.715 110.298 372.682C109.907 372.649 109.537 372.569 109.218 372.449C108.9 372.329 108.642 372.172 108.466 371.991L87.4254 350.315C87.1931 350.076 87.1138 349.806 87.1984 349.543C87.2831 349.279 87.528 349.036 87.8978 348.848Z" fill="url(#paint4_linear_8961_17981)"/>
<path d="M126.866 352.297L109.292 361.264C109.128 361.348 109.018 361.454 108.974 361.57C108.931 361.686 108.957 361.805 109.049 361.914C109.141 362.022 109.295 362.113 109.49 362.176C109.686 362.239 109.914 362.271 110.145 362.266L131.978 361.882C132.613 361.871 133.217 361.737 133.666 361.508L143.618 356.43L126.866 352.297Z" fill="#0078D4"/>
<path d="M87.8978 348.848C87.5225 349.038 87.2761 349.284 87.1947 349.551C87.1132 349.817 87.2009 350.09 87.4449 350.329L108.45 371.969C108.621 372.154 108.877 372.315 109.195 372.439C109.514 372.562 109.886 372.645 110.28 372.68C110.675 372.714 111.08 372.7 111.461 372.638C111.842 372.576 112.189 372.468 112.471 372.323L121.318 367.809C121.589 367.61 121.752 367.379 121.79 367.138C121.828 366.898 121.74 366.656 121.535 366.438L117.38 362.14L132.113 361.878C132.697 361.85 133.244 361.72 133.662 361.51L143.576 356.451L126.802 352.329L114.129 358.799L99.0204 343.172L87.8978 348.848Z" fill="url(#paint5_linear_8961_17981)"/>
<path d="M103.253 342.237C102.785 342.119 102.257 342.078 101.741 342.122C101.226 342.165 100.75 342.289 100.381 342.478L88.0297 348.78C88.399 348.592 88.8747 348.467 89.39 348.424C89.9052 348.381 90.434 348.421 90.9019 348.54L133.382 359.277C133.737 359.366 134.045 359.498 134.28 359.66C134.516 359.823 134.672 360.012 134.737 360.211C134.801 360.411 134.771 360.615 134.65 360.808C134.528 361 134.319 361.175 134.039 361.318L146.391 355.015C146.671 354.872 146.88 354.697 147.001 354.505C147.123 354.313 147.152 354.108 147.088 353.909C147.024 353.709 146.867 353.52 146.632 353.358C146.396 353.195 146.088 353.064 145.733 352.974L103.253 342.237Z" fill="url(#paint6_linear_8961_17981)"/>
</g>
</g>
</g>
<g id="Rectangle 29_4" filter="url(#filter6_f_8961_17981)">
<rect width="58.7208" height="59.1283" transform="matrix(-1 0 0 1 347.09 199.765)" fill="url(#paint7_linear_8961_17981)"/>
</g>
<g id="Rectangle 30_2" style="mix-blend-mode:color-dodge" filter="url(#filter7_f_8961_17981)">
<rect width="45.4005" height="45.7156" transform="matrix(-1 0 0 1 340.43 206.471)" fill="url(#paint8_linear_8961_17981)"/>
</g>
</g>
<defs>
<filter id="filter0_f_8961_17981" x="74.8574" y="61.9551" width="199.752" height="200.444" filterUnits="userSpaceOnUse" color-interpolation-filters="sRGB">
<feFlood flood-opacity="0" result="BackgroundImageFix"/>
<feBlend mode="normal" in="SourceGraphic" in2="BackgroundImageFix" result="shape"/>
<feGaussianBlur stdDeviation="25" result="effect1_foregroundBlur_8961_17981"/>
</filter>
<filter id="filter1_f_8961_17981" x="227.294" y="-2.8457" width="172.715" height="173.22" filterUnits="userSpaceOnUse" color-interpolation-filters="sRGB">
<feFlood flood-opacity="0" result="BackgroundImageFix"/>
<feBlend mode="normal" in="SourceGraphic" in2="BackgroundImageFix" result="shape"/>
<feGaussianBlur stdDeviation="25" result="effect1_foregroundBlur_8961_17981"/>
</filter>
<filter id="filter2_d_8961_17981" x="186.365" y="236.453" width="196.956" height="118.485" filterUnits="userSpaceOnUse" color-interpolation-filters="sRGB">
<feFlood flood-opacity="0" result="BackgroundImageFix"/>
<feColorMatrix in="SourceAlpha" type="matrix" values="0 0 0 0 0 0 0 0 0 0 0 0 0 0 0 0 0 0 127 0" result="hardAlpha"/>
<feOffset dy="5.64704"/>
<feGaussianBlur stdDeviation="2.82352"/>
<feComposite in2="hardAlpha" operator="out"/>
<feColorMatrix type="matrix" values="0 0 0 0 0.432266 0 0 0 0 0.00354165 0 0 0 0 0.846458 0 0 0 1 0"/>
<feBlend mode="screen" in2="BackgroundImageFix" result="effect1_dropShadow_8961_17981"/>
<feBlend mode="normal" in="SourceGraphic" in2="effect1_dropShadow_8961_17981" result="shape"/>
</filter>
<filter id="filter3_f_8961_17981" x="368.146" y="200.362" width="184.893" height="185.481" filterUnits="userSpaceOnUse" color-interpolation-filters="sRGB">
<feFlood flood-opacity="0" result="BackgroundImageFix"/>
<feBlend mode="normal" in="SourceGraphic" in2="BackgroundImageFix" result="shape"/>
<feGaussianBlur stdDeviation="25" result="effect1_foregroundBlur_8961_17981"/>
</filter>
<filter id="filter4_d_8961_17981" x="154.123" y="147.397" width="261.143" height="227.749" filterUnits="userSpaceOnUse" color-interpolation-filters="sRGB">
<feFlood flood-opacity="0" result="BackgroundImageFix"/>
<feColorMatrix in="SourceAlpha" type="matrix" values="0 0 0 0 0 0 0 0 0 0 0 0 0 0 0 0 0 0 127 0" result="hardAlpha"/>
<feOffset dy="6.27861"/>
<feGaussianBlur stdDeviation="37.745"/>
<feComposite in2="hardAlpha" operator="out"/>
<feColorMatrix type="matrix" values="0 0 0 0 0.396 0 0 0 0 0 0 0 0 0 0.9 0 0 0 1 0"/>
<feBlend mode="normal" in2="BackgroundImageFix" result="effect1_dropShadow_8961_17981"/>
<feBlend mode="normal" in="SourceGraphic" in2="effect1_dropShadow_8961_17981" result="shape"/>
</filter>
<filter id="filter5_f_8961_17981" x="54.2119" y="246.365" width="187.885" height="188.494" filterUnits="userSpaceOnUse" color-interpolation-filters="sRGB">
<feFlood flood-opacity="0" result="BackgroundImageFix"/>
<feBlend mode="normal" in="SourceGraphic" in2="BackgroundImageFix" result="shape"/>
<feGaussianBlur stdDeviation="25" result="effect1_foregroundBlur_8961_17981"/>
</filter>
<filter id="filter6_f_8961_17981" x="258.369" y="169.765" width="118.721" height="119.128" filterUnits="userSpaceOnUse" color-interpolation-filters="sRGB">
<feFlood flood-opacity="0" result="BackgroundImageFix"/>
<feBlend mode="normal" in="SourceGraphic" in2="BackgroundImageFix" result="shape"/>
<feGaussianBlur stdDeviation="15" result="effect1_foregroundBlur_8961_17981"/>
</filter>
<filter id="filter7_f_8961_17981" x="265.029" y="176.471" width="105.4" height="105.716" filterUnits="userSpaceOnUse" color-interpolation-filters="sRGB">
<feFlood flood-opacity="0" result="BackgroundImageFix"/>
<feBlend mode="normal" in="SourceGraphic" in2="BackgroundImageFix" result="shape"/>
<feGaussianBlur stdDeviation="15" result="effect1_foregroundBlur_8961_17981"/>
</filter>
<linearGradient id="paint0_linear_8961_17981" x1="49.8758" y1="0" x2="49.8758" y2="100.444" gradientUnits="userSpaceOnUse">
<stop stop-color="#6218FF" stop-opacity="0"/>
<stop offset="1" stop-color="#6117FF"/>
</linearGradient>
<linearGradient id="paint1_linear_8961_17981" x1="36.3574" y1="0" x2="36.3574" y2="73.2194" gradientUnits="userSpaceOnUse">
<stop stop-color="#6218FF" stop-opacity="0"/>
<stop offset="1" stop-color="#6117FF"/>
</linearGradient>
<linearGradient id="paint2_linear_8961_17981" x1="42.4461" y1="0" x2="42.4461" y2="85.4814" gradientUnits="userSpaceOnUse">
<stop stop-color="#6218FF" stop-opacity="0"/>
<stop offset="1" stop-color="#6117FF"/>
</linearGradient>
<linearGradient id="paint3_linear_8961_17981" x1="43.9422" y1="0" x2="43.9422" y2="88.4943" gradientUnits="userSpaceOnUse">
<stop stop-color="#6218FF" stop-opacity="0"/>
<stop offset="1" stop-color="#6117FF"/>
</linearGradient>
<linearGradient id="paint4_linear_8961_17981" x1="104.288" y1="343.154" x2="113.801" y2="371.889" gradientUnits="userSpaceOnUse">
<stop stop-color="#114A8B"/>
<stop offset="1" stop-color="#0669BC"/>
</linearGradient>
<linearGradient id="paint5_linear_8961_17981" x1="116.767" y1="352.957" x2="116.23" y2="355.323" gradientUnits="userSpaceOnUse">
<stop stop-opacity="0.3"/>
<stop offset="0.071" stop-opacity="0.2"/>
<stop offset="0.321" stop-opacity="0.1"/>
<stop offset="0.623" stop-opacity="0.05"/>
<stop offset="1" stop-opacity="0"/>
</linearGradient>
<linearGradient id="paint6_linear_8961_17981" x1="95.6915" y1="346.527" x2="126.85" y2="374.26" gradientUnits="userSpaceOnUse">
<stop stop-color="#3CCBF4"/>
<stop offset="1" stop-color="#2892DF"/>
</linearGradient>
<linearGradient id="paint7_linear_8961_17981" x1="29.3604" y1="0" x2="29.3604" y2="59.1283" gradientUnits="userSpaceOnUse">
<stop stop-color="#6218FF" stop-opacity="0"/>
<stop offset="1" stop-color="#6117FF"/>
</linearGradient>
<linearGradient id="paint8_linear_8961_17981" x1="22.7003" y1="0" x2="22.7003" y2="45.7156" gradientUnits="userSpaceOnUse">
<stop stop-color="#6218FF" stop-opacity="0"/>
<stop offset="1" stop-color="#6117FF"/>
</linearGradient>
<clipPath id="clip0_8961_17981">
<rect width="556" height="477" fill="white"/>
</clipPath>
<clipPath id="clip1_8961_17981">
<rect width="47.9029" height="47.9029" fill="white" transform="matrix(0.866025 0.5 -2.20305e-08 1 288.112 57.5625)"/>
</clipPath>
<clipPath id="clip2_8961_17981">
<rect width="59.0131" height="59.0131" fill="white" transform="matrix(0.866025 -0.5 0.866025 0.5 114.113 138.43)"/>
</clipPath>
<clipPath id="clip3_8961_17981">
<rect width="49.3308" height="49.3308" fill="white" transform="matrix(0.866025 0.5 -0.866025 0.5 479.914 221.88)"/>
</clipPath>
<clipPath id="clip4_8961_17981">
<rect width="59.0131" height="59.0131" fill="white" transform="matrix(0.890737 -0.454519 0.890737 0.454519 59.2178 354.667)"/>
</clipPath>
</defs>
</svg>
