<svg width="224" height="192" viewBox="0 0 224 192" fill="none" xmlns="http://www.w3.org/2000/svg">
<path d="M112.299 52.373L101.255 59.1696L150.769 86.3508L139.961 92.5769" stroke="#3B14AB" stroke-opacity="0.81" stroke-width="0.890337" stroke-linejoin="round"/>
<path d="M124.166 58.797C124.302 58.8742 124.47 58.8737 124.606 58.7959L147.462 45.7353C147.599 45.6568 147.685 45.5111 147.686 45.3528C147.687 45.1944 147.605 45.0473 147.468 44.9663L124.613 31.3616C124.473 31.2785 124.299 31.2781 124.159 31.3604L101.029 44.9651C100.892 45.0458 100.809 45.1936 100.81 45.3527C100.811 45.5119 100.898 45.6582 101.036 45.7365L124.166 58.797Z" stroke="#3B14AB" stroke-opacity="0.81" stroke-width="0.890337" stroke-linejoin="round"/>
<path d="M45.9739 90.5619C46.1096 90.6385 46.2754 90.6386 46.4111 90.5622L88.139 67.0864C88.2774 67.0085 88.3639 66.8627 88.3658 66.7039C88.3678 66.545 88.2849 66.3972 88.1484 66.3159L65.2924 52.7112C65.1545 52.6291 64.9831 52.6276 64.8438 52.7073L22.8421 76.7272C22.7031 76.8067 22.6175 76.9547 22.6179 77.1149C22.6184 77.275 22.7048 77.4226 22.8442 77.5013L45.9739 90.5619Z" stroke="#3B14AB" stroke-opacity="0.81" stroke-width="0.890337" stroke-linejoin="round"/>
<path d="M68.5798 78.4062L74.2333 82.0038L62.1554 88.942L68.5798 92.7967" stroke="#3B14AB" stroke-opacity="0.81" stroke-width="0.945068" stroke-linejoin="round"/>
<path d="M196.644 130.839C196.644 133.027 195.09 135.094 192.39 136.64C189.703 138.178 185.96 139.144 181.802 139.144C177.644 139.144 173.902 138.178 171.214 136.64C168.514 135.094 166.961 133.027 166.961 130.839C166.961 128.65 168.514 126.583 171.214 125.037C173.902 123.499 177.644 122.533 181.802 122.533C185.96 122.533 189.703 123.499 192.39 125.037C195.09 126.583 196.644 128.65 196.644 130.839Z" stroke="#3B14AB" stroke-opacity="0.81" stroke-width="0.890337"/>
<path d="M61.1833 131.639C61.1833 131.639 47.8845 138.89 45.7549 140.023" stroke="#3B14AB" stroke-opacity="0.81" stroke-width="0.945068" stroke-linejoin="round"/>
<path d="M139.328 135.531L158.38 145.219L172.114 137.257" stroke="#3B14AB" stroke-opacity="0.81" stroke-width="0.890337" stroke-linejoin="round"/>
<path d="M45.2836 173.896C45.148 173.972 44.9822 173.973 44.8465 173.896L3.11861 150.42C2.98015 150.342 2.89369 150.197 2.89175 150.038C2.88981 149.879 2.97267 149.731 3.10918 149.65L25.9651 136.045C26.1031 135.963 26.2745 135.962 26.4138 136.041L68.4155 160.061C68.5545 160.141 68.6401 160.289 68.6396 160.449C68.6392 160.609 68.5528 160.757 68.4133 160.835L45.2836 173.896Z" stroke="#3B14AB" stroke-opacity="0.81" stroke-width="0.890337" stroke-linejoin="round"/>
<path d="M124.857 43.0383L101.727 29.9777L124.857 16.373L147.713 29.9777L124.857 43.0383Z" fill="#8C49FA"/>
<path d="M124.744 42.9747V52.6032L101.874 39.1217V29.8945L124.744 42.9747Z" fill="#320282"/>
<path d="M124.7 42.7889V52.6139L147.76 39.3064V29.9219L124.7 42.7889Z" fill="#1F0152"/>
<ellipse cx="132.904" cy="43.1408" rx="1.0251" ry="1.41722" transform="rotate(1.95579 132.904 43.1408)" fill="#D9D9D9"/>
<ellipse cx="136.219" cy="41.2678" rx="1.0251" ry="1.41722" transform="rotate(1.95579 136.219 41.2678)" fill="#D9D9D9"/>
<ellipse cx="139.555" cy="39.5022" rx="1.0251" ry="1.41722" transform="rotate(1.95579 139.555 39.5022)" fill="#D9D9D9"/>
<g style="mix-blend-mode:multiply" filter="url(#filter0_f_7347_54168)">
<circle cx="109.772" cy="44.8945" r="14.9726" fill="#9C84FF" style="mix-blend-mode:lighten"/>
</g>
<path d="M124.857 30.2395L101.727 17.1789L124.857 3.57422L147.712 17.1789L124.857 30.2395Z" fill="#4906B9"/>
<path d="M124.744 30.1759V44.4045L101.874 30.923V17.0957L124.744 30.1759Z" fill="#320282"/>
<path d="M124.699 29.9921V43.2996L147.76 29.9921V17.125L124.699 29.9921Z" fill="#1F0152"/>
<path d="M138.713 24.1678L144.845 20.6348V21.4469L138.713 24.9799V24.1678Z" fill="#D9D9D9"/>
<path d="M138.713 25.7908L144.845 22.2578V23.0699L138.713 26.6029V25.7908Z" fill="#D9D9D9"/>
<path d="M138.713 27.3748L144.845 23.8418V24.6539L138.713 28.1869V27.3748Z" fill="#D9D9D9"/>
<g clip-path="url(#clip0_7347_54168)">
<path d="M118.817 32.4807C118.682 32.297 118.531 32.1347 118.372 32.0029C118.209 31.8673 118.041 31.7626 117.876 31.6939C117.702 31.6218 117.534 31.5866 117.379 31.5898L116.654 31.6334L115.927 31.6751L115.2 31.7166L114.473 31.7625C114.315 31.7779 114.147 31.7631 113.971 31.7185C113.801 31.6773 113.625 31.6056 113.448 31.5052C113.271 31.4057 113.095 31.2788 112.924 31.1281C112.748 30.9724 112.579 30.7942 112.42 30.5979L111.716 29.7486L111.011 28.8992L110.306 28.0515L109.601 27.2018C109.34 26.8583 109.027 26.6001 108.72 26.4745C108.437 26.3619 108.175 26.3611 107.969 26.4724C107.761 26.5798 107.62 26.7944 107.565 27.0866C107.508 27.4052 107.564 27.8006 107.722 28.1991L107.969 28.8645L108.513 30.326L109.057 31.7875L109.305 32.4533C109.397 32.6862 109.469 32.9203 109.518 33.1498C109.565 33.3733 109.589 33.5899 109.589 33.7938C109.589 33.998 109.565 34.1876 109.518 34.3576C109.474 34.5398 109.407 34.7005 109.317 34.8358L108.93 35.4458L108.543 36.0531L108.155 36.6595L107.768 37.2667C107.703 37.3653 107.653 37.4814 107.619 37.6124C107.587 37.7363 107.573 37.8748 107.576 38.0239C107.581 38.1709 107.605 38.3274 107.647 38.4877C107.69 38.6548 107.752 38.8243 107.83 38.99C107.926 39.1973 108.045 39.3966 108.182 39.578C108.317 39.7603 108.468 39.9228 108.626 40.0581C108.788 40.1979 108.956 40.3074 109.123 40.3818C109.296 40.4589 109.464 40.4969 109.619 40.4941L110.374 40.4519L111.127 40.41L111.881 40.3675L112.635 40.3249C112.408 40.006 112.199 39.6708 112.009 39.3246C111.82 38.977 111.646 38.6226 111.489 38.264C111.331 37.9038 111.186 37.5399 111.052 37.1773C110.932 36.8541 110.821 36.5325 110.714 36.2149C110.903 36.7341 111.311 37.4047 111.841 38.1476C112.486 39.0322 113.158 39.8855 113.853 40.7023C114.584 41.5734 115.334 42.4309 115.982 43.1803C116.63 43.9297 117.179 44.572 117.505 45.0084C117.768 45.3399 118.081 45.5772 118.379 45.6717C118.655 45.7519 118.903 45.7182 119.089 45.5751C119.282 45.4334 119.408 45.193 119.451 44.8831C119.496 44.5551 119.433 44.1579 119.272 43.7596L118.827 42.5714L117.851 39.9594L116.875 37.3473L116.434 36.1726C116.34 35.9346 116.237 35.6977 116.127 35.4627C116.017 35.2313 115.899 35.0028 115.772 34.7784C115.646 34.5552 115.512 34.337 115.369 34.1253C115.224 33.91 115.071 33.7026 114.911 33.505C115.16 33.7799 115.413 34.0622 115.661 34.3523C115.912 34.6423 116.155 34.9435 116.391 35.2545C116.627 35.5647 116.85 35.8891 117.058 36.2247C117.269 36.565 117.458 36.9187 117.622 37.2798L118.023 36.6639L118.424 36.0482L118.827 35.4315L119.228 34.8157C119.294 34.7269 119.345 34.6179 119.377 34.492C119.409 34.3673 119.423 34.228 119.419 34.0781C119.414 33.9263 119.39 33.765 119.348 33.5996C119.305 33.4305 119.243 33.2589 119.163 33.0912C119.072 32.8768 118.954 32.6694 118.817 32.4807ZM109.517 38.9805C109.528 39.1597 109.473 39.2983 109.368 39.3612C109.262 39.4241 109.116 39.4053 108.966 39.3095C108.659 39.1353 108.408 38.7055 108.406 38.3497C108.403 37.9939 108.65 37.8468 108.957 38.0211C109.107 38.0954 109.254 38.243 109.361 38.4265C109.468 38.61 109.525 38.8117 109.517 38.9805ZM108.418 27.8823C108.408 27.7031 108.462 27.5646 108.568 27.5017C108.673 27.4388 108.819 27.4575 108.969 27.5533C109.119 27.628 109.267 27.7758 109.374 27.9594C109.481 28.143 109.538 28.345 109.53 28.5138C109.54 28.693 109.486 28.8315 109.381 28.8945C109.275 28.9574 109.129 28.9385 108.979 28.8428C108.829 28.7681 108.681 28.6202 108.574 28.4365C108.467 28.2529 108.41 28.0512 108.418 27.8823ZM118.586 44.1968C118.588 44.4581 118.455 44.6168 118.247 44.599C118.04 44.5811 117.8 44.3903 117.64 44.1154C117.479 43.8404 117.43 43.5357 117.514 43.3434C117.598 43.1511 117.8 43.1092 118.025 43.2372C118.175 43.3115 118.322 43.4591 118.43 43.6426C118.537 43.8262 118.594 44.028 118.586 44.1968ZM114.825 36.5701C114.661 36.1657 114.39 35.8883 114.066 35.7052C113.623 35.4666 113.231 35.5599 113.069 35.9428C112.907 36.3258 113.006 36.9248 113.321 37.467C112.969 37.2123 112.651 36.8161 112.435 36.3667C112.22 35.9173 112.127 35.4522 112.176 35.0755C112.281 34.3236 112.98 34.0963 113.682 34.6158C114.277 35.0755 114.766 35.8502 114.825 36.5701ZM118.626 33.7218C118.618 34.0634 118.374 34.1994 118.074 34.0294C117.775 33.8594 117.527 33.4445 117.514 33.0912C117.521 32.7495 117.765 32.6134 118.065 32.7834C118.365 32.9534 118.613 33.3684 118.626 33.7218Z" fill="#FF694B"/>
</g>
<path d="M46.2224 71.6332L23.0927 58.5726L65.0943 34.5527L87.9502 48.1574L46.2224 71.6332Z" fill="#8C49FA"/>
<path d="M46.1101 71.5704V81.1989L23.2399 67.7174V58.4902L46.1101 71.5704Z" fill="#A570FB"/>
<path d="M46.0652 71.3847V81.2097L87.9211 57.572V48.1875L46.0652 71.3847Z" fill="#660BFA"/>
<g clip-path="url(#clip1_7347_54168)">
<path d="M60.2912 50.1648C60.517 50.135 60.7111 50.1125 60.9061 50.0841C61.5395 49.9867 62.1721 49.8873 62.8039 49.7859C63.2445 49.7144 63.6533 49.7326 64.0406 49.8949C64.5539 50.1088 64.6859 50.5905 64.2879 50.876C64.0925 51.0231 63.8187 51.1288 63.5088 51.1768C62.0032 51.4059 60.4897 51.6395 58.9841 51.8778C58.4985 51.9543 58.0658 51.9187 57.6873 51.7258C57.2912 51.5246 57.1987 51.2607 57.3178 50.9798C57.5281 50.488 57.7669 50.0007 57.9947 49.5116L58.5224 48.3839C58.589 48.2394 58.6573 48.0957 58.8413 47.9776C59.0216 47.86 59.2627 47.7789 59.5289 47.7462C59.7951 47.7135 60.0723 47.731 60.3198 47.7962C60.8672 47.9428 61.1213 48.2689 60.9935 48.6162C60.9141 48.8449 60.7911 49.0686 60.6872 49.2942C60.5681 49.5458 60.4491 49.7974 60.334 50.0523C60.3126 50.0783 60.3078 50.1103 60.2912 50.1648Z" fill="#32C0F0"/>
<path d="M50.2934 55.926C49.8631 55.9915 49.4661 56.0515 49.0683 56.1129C48.6031 56.1849 48.1364 56.255 47.6737 56.331C47.0596 56.4341 46.4021 56.2375 46.1899 55.9521C45.8694 55.5273 46.2167 55.0716 46.9909 54.941C47.5829 54.8416 48.1811 54.755 48.777 54.6624C49.6978 54.5204 50.6202 54.3811 51.5394 54.2336C51.9482 54.1676 52.3381 54.1611 52.708 54.2905C52.9127 54.3551 53.0791 54.4537 53.1855 54.5736C53.2919 54.6935 53.3335 54.829 53.3049 54.9628C53.2654 55.1334 53.202 55.3018 53.1151 55.4665C52.7618 56.2424 52.403 57.0168 52.0391 57.7897C51.9137 58.0642 51.6275 58.2651 51.137 58.348C50.9564 58.3795 50.7656 58.3862 50.5798 58.3675C50.394 58.3488 50.2184 58.3052 50.0672 58.2402C49.9159 58.1752 49.7932 58.0906 49.7088 57.9933C49.6244 57.8959 49.5808 57.7885 49.5814 57.6796C49.5977 57.5193 49.6457 57.3606 49.7244 57.2065C49.8974 56.8131 50.0854 56.4219 50.2664 56.0294C50.2791 56.0038 50.2822 55.9772 50.2934 55.926Z" fill="#32C0F0"/>
<path d="M48.4889 52.0433L48.2394 51.8993C47.6676 51.5691 47.095 51.2386 46.5231 50.9084C46.3012 50.7781 46.1719 50.6044 46.1609 50.4217C46.1499 50.239 46.2579 50.0604 46.4636 49.9213C46.8457 49.6742 47.6532 49.5463 48.248 49.876C48.6915 50.1229 49.1192 50.379 49.5563 50.6314C50.285 51.0521 51.0136 51.4727 51.7422 51.8934C51.9441 52.0033 52.0758 52.1493 52.116 52.3079C52.1561 52.4665 52.1023 52.6283 51.9634 52.7671C51.8751 52.8567 51.7563 52.9351 51.6142 52.9976C51.4722 53.0601 51.3098 53.1055 51.1368 53.1309C50.1368 53.2858 49.1417 53.4408 48.1517 53.596L46.5614 53.8429C46.321 53.886 46.065 53.8907 45.8206 53.8564C45.5514 53.8178 45.3128 53.7279 45.1432 53.6013C44.9737 53.4747 44.8831 53.3187 44.8861 53.1585C44.8869 52.9983 44.98 52.8427 45.1508 52.7162C45.3217 52.5898 45.5604 52.4997 45.8295 52.4603C46.2836 52.3865 46.7424 52.321 47.1972 52.2504C47.6101 52.183 48.0229 52.1157 48.4889 52.0433Z" fill="#32C0F0"/>
<path d="M57.0353 56.9774L56.6623 57.7744C56.5496 58.016 56.4425 58.2589 56.325 58.4995C56.25 58.6711 56.0711 58.8214 55.8208 58.9235C55.5705 59.0256 55.2652 59.0727 54.9603 59.0561C54.389 59.0247 53.8829 58.7362 53.88 58.4041C53.884 58.2489 53.9227 58.0947 53.9952 57.9452C54.3643 57.1332 54.7468 56.3225 55.1229 55.5118C55.2316 55.2771 55.4171 55.0794 55.8102 54.9631C56.043 54.887 56.3128 54.8574 56.5775 54.8791C56.8423 54.9008 57.087 54.9726 57.2735 55.0831C57.7274 55.3396 58.1725 55.6021 58.6199 55.8604C59.3279 56.2692 60.0362 56.6782 60.7448 57.0873C60.9758 57.2169 61.1097 57.3935 61.1176 57.5795C61.1257 57.7654 61.0072 57.9459 60.7877 58.0822C60.6747 58.1532 60.5381 58.2103 60.3862 58.2502C60.2342 58.2901 60.0698 58.312 59.903 58.3144C59.7361 58.3169 59.5701 58.3 59.4149 58.2646C59.2596 58.2293 59.1183 58.1763 58.9994 58.1087C58.4244 57.7877 57.8684 57.4558 57.3038 57.1297L57.0353 56.9774Z" fill="#32C0F0"/>
<path d="M53.5548 49.1047L53.8365 48.5049C53.9756 48.21 54.1132 47.9148 54.2492 47.6192C54.342 47.4184 54.5101 47.2454 54.835 47.1429C55.3312 46.9854 55.824 46.999 56.2707 47.1993C56.6738 47.3808 56.7822 47.6355 56.6877 47.9178C56.6147 48.1429 56.4941 48.3597 56.3917 48.5798C56.075 49.2619 55.7521 49.9431 55.4418 50.6262C55.2759 50.9881 54.7219 51.2467 54.077 51.2111C53.8053 51.2004 53.5489 51.1347 53.353 51.0256C52.1745 50.3452 50.996 49.6648 49.8183 48.9849C49.6234 48.8709 49.5005 48.7225 49.469 48.5634C49.4375 48.4042 49.4993 48.2436 49.6446 48.107C49.7899 47.9705 50.0102 47.866 50.2704 47.8102C50.5306 47.7544 50.8155 47.7506 51.0797 47.7993C51.2775 47.8415 51.4574 47.9076 51.6073 47.9931C52.1728 48.3068 52.7153 48.6274 53.2673 48.9461L53.5548 49.1047Z" fill="#32C0F0"/>
<path d="M62.1445 54.0643L64.0627 55.1717C64.2913 55.3047 64.4207 55.484 64.4231 55.6715C64.4256 55.8589 64.3009 56.0395 64.0758 56.1746C63.8506 56.3098 63.5429 56.3887 63.2184 56.3945C62.8939 56.4004 62.5784 56.3327 62.3394 56.206C62.01 56.0304 61.6987 55.836 61.3788 55.6513C60.5329 55.163 59.6871 54.6746 58.8444 54.1881C58.7223 54.1202 58.6259 54.0384 58.5616 53.9478C58.4972 53.8572 58.4661 53.7599 58.4704 53.662C58.4746 53.5641 58.5141 53.4678 58.5862 53.3791C58.6584 53.2904 58.7617 53.2114 58.8895 53.147C59.0498 53.0671 59.2379 53.0081 59.4411 52.9739C60.9681 52.7324 62.4935 52.4974 64.0205 52.2605C64.2231 52.2229 64.4384 52.2136 64.6484 52.2333C64.8584 52.2531 65.0573 52.3014 65.2287 52.3742C65.7506 52.5922 65.8684 53.0831 65.4522 53.3691C65.2422 53.516 64.955 53.6195 64.6342 53.6638C63.876 53.7752 63.1287 53.8929 62.3704 54.0116C62.2933 54.0266 62.2179 54.0442 62.1445 54.0643Z" fill="#32C0F0"/>
<path d="M56.9304 52.1016C57.157 52.1912 57.2068 52.3179 57.2035 52.467C57.1937 52.8559 57.2006 53.2452 57.1988 53.6349C57.1999 53.7012 57.1781 53.7669 57.1346 53.8283C57.0912 53.8897 57.027 53.9454 56.9458 53.9923C56.8646 54.0392 56.7681 54.0762 56.6617 54.1013C56.5554 54.1264 56.4416 54.139 56.3268 54.1383C55.6333 54.14 54.9411 54.1409 54.2501 54.1411C54.023 54.141 53.8052 54.0893 53.6438 53.9971C53.4824 53.9049 53.3903 53.7798 53.3876 53.6486C53.3859 53.243 53.3862 52.8371 53.3886 52.4309C53.3932 52.3027 53.4831 52.1804 53.6394 52.0893C53.7958 51.9982 54.0068 51.9452 54.2288 51.9413C54.9118 51.9393 55.5963 51.9455 56.2817 51.9366C56.5503 51.9352 56.7753 51.969 56.9304 52.1016ZM54.7226 52.7005C54.6843 52.7361 54.656 52.7751 54.6385 52.8158C54.6245 52.965 54.6246 53.1145 54.639 53.2636C54.654 53.3638 54.7633 53.4168 54.9527 53.4246C55.1729 53.433 55.3939 53.4334 55.6143 53.4258C55.6607 53.4277 55.7072 53.4237 55.7509 53.4144C55.7944 53.4049 55.834 53.3902 55.8669 53.3712C55.8999 53.3522 55.9253 53.3294 55.9417 53.3042C55.9579 53.279 55.9647 53.2522 55.9614 53.2253C55.9751 53.1035 55.9752 52.9812 55.9617 52.8594C55.9467 52.7226 55.8359 52.6622 55.5926 52.6545C55.3913 52.6482 55.1894 52.6487 54.9881 52.6561C54.8969 52.6648 54.8078 52.6797 54.7226 52.7005Z" fill="#32C0F0"/>
</g>
<path d="M130.554 140.163C129.462 140.538 128.338 140.893 127.185 141.225L126.899 140.884L126.304 141.05C125.544 141.263 124.77 141.466 123.984 141.66C123.198 141.853 122.409 142.034 121.616 142.203L120.997 142.336L121.225 142.691C120.01 142.941 118.789 143.163 117.564 143.358L117.397 142.992L116.758 143.088C115.103 143.339 113.439 143.541 111.774 143.694L111.122 143.754L111.225 144.128C109.953 144.235 108.681 144.315 107.41 144.368L107.371 143.99L106.712 144.012C105.009 144.07 103.309 144.079 101.619 144.04L100.959 144.025L100.933 144.404C99.6524 144.365 98.3772 144.299 97.1103 144.207L97.2008 143.831L96.5466 143.779C94.8609 143.643 93.1908 143.46 91.5423 143.231L90.9002 143.142L90.7466 143.511C89.5053 143.328 88.2767 143.121 87.0633 142.887L87.2784 142.529L86.6544 142.404C85.0494 142.083 83.4723 141.716 81.9292 141.306L81.3292 141.147L81.0547 141.491C79.8998 141.174 78.7643 140.832 77.6508 140.467L77.9822 140.14L77.412 139.947C75.9484 139.453 74.5246 138.917 73.1467 138.34L72.6119 138.116L72.2267 138.423C71.2023 137.983 70.2038 137.52 69.2336 137.036L69.6692 136.752L69.1751 136.499C67.9098 135.851 66.6951 135.165 65.5369 134.442L65.0884 134.162L64.6066 134.419C63.7533 133.873 62.9314 133.306 62.1433 132.72L62.6668 132.492L62.2684 132.187C61.2515 131.411 60.2939 130.6 59.4011 129.757L59.0566 129.432L58.4966 129.629C57.8472 128.998 57.2333 128.35 56.6571 127.684L57.2478 127.519L56.96 127.176C56.5916 126.737 56.2398 126.29 55.905 125.836C55.5702 125.382 55.2562 124.927 54.963 124.469L54.7338 124.111L54.1182 124.243C53.6859 123.542 53.3012 122.837 52.9631 122.129L53.5979 122.033L53.4303 121.664C52.9958 120.708 52.6471 119.748 52.3818 118.787L52.2779 118.41L51.6298 118.47C51.4436 117.735 51.3054 117.001 51.2141 116.267L51.8693 116.245L51.8304 115.864C51.7297 114.881 51.7142 113.9 51.7815 112.924L51.8078 112.543L51.152 112.528C51.2192 111.788 51.3333 111.052 51.4933 110.32L52.1434 110.373L52.2344 109.995C52.4689 109.022 52.7857 108.058 53.1826 107.106L53.3372 106.735L52.699 106.646C53.0143 105.93 53.3745 105.22 53.7785 104.52L54.3987 104.644L54.6151 104.284C55.1719 103.357 55.8068 102.447 56.5174 101.556L56.7936 101.209L56.1974 101.051C56.7468 100.384 57.3383 99.7284 57.971 99.0855L58.5376 99.2769L58.871 98.9477C59.727 98.1026 60.6557 97.2806 61.6545 96.4851L62.0421 96.1763L61.5107 95.9539C62.2731 95.3625 63.0743 94.786 63.9133 94.2259L64.4043 94.4773L64.8426 94.1921C65.9651 93.4615 67.1537 92.7603 68.4061 92.0916L68.891 91.8327L68.4454 91.5545C69.3919 91.0618 70.3733 90.5873 71.3887 90.1322L71.7845 90.4345L72.3114 90.2045C73.6564 89.6174 75.0601 89.0645 76.5205 88.5491L77.084 88.3501L76.7417 88.0268C77.8346 87.6519 78.9581 87.2975 80.1111 86.9648L80.3972 87.3059L80.9917 87.1397C81.7523 86.927 82.5257 86.7239 83.3117 86.5306C84.0977 86.3373 84.8873 86.156 85.6799 85.9867L86.2994 85.8544L86.0716 85.499C87.286 85.2494 88.507 85.0273 89.7325 84.8321L89.8991 85.1986L90.538 85.1018C92.1936 84.851 93.8567 84.6496 95.5219 84.4965L96.1742 84.4365L96.0709 84.0623C97.3427 83.9548 98.6153 83.875 99.8864 83.8223L99.9252 84.2006L100.585 84.1781C102.287 84.12 103.987 84.1111 105.677 84.1499L106.337 84.1651L106.363 83.7864C107.644 83.8252 108.919 83.8911 110.186 83.9835L110.095 84.3588L110.75 84.4114C112.435 84.5467 114.105 84.7297 115.754 84.9588L116.396 85.048L116.55 84.6796C117.791 84.8616 119.019 85.0696 120.233 85.3029L120.018 85.6609L120.642 85.7859C122.247 86.1073 123.824 86.4739 125.367 86.8841L125.967 87.0436L126.241 86.6994C127.396 87.0166 128.532 87.3581 129.645 87.7234L129.314 88.0505L129.884 88.243C131.348 88.7372 132.772 89.2734 134.15 89.85L134.684 90.0739L135.07 89.767C136.094 90.2072 137.092 90.6698 138.063 91.1542L137.627 91.4376L138.121 91.6907C139.386 92.3388 140.601 93.025 141.759 93.7481L142.208 94.0281L142.69 93.7708C143.543 94.3172 144.365 94.8839 145.153 95.4701L144.629 95.6986L145.028 96.0028C146.045 96.7793 147.002 97.5898 147.895 98.4329L148.24 98.7583L148.8 98.5606C149.449 99.1916 150.063 99.8403 150.639 100.506L150.048 100.671L150.336 101.014C150.705 101.454 151.056 101.9 151.391 102.354C151.726 102.808 152.04 103.264 152.333 103.721L152.562 104.079L153.178 103.947C153.61 104.648 153.995 105.353 154.333 106.061L153.698 106.157L153.866 106.526C154.3 107.482 154.649 108.442 154.914 109.403L155.018 109.78L155.666 109.72C155.853 110.455 155.991 111.189 156.082 111.923L155.427 111.946L155.466 112.326C155.566 113.309 155.582 114.291 155.515 115.266L155.488 115.647L156.144 115.663C156.077 116.402 155.963 117.138 155.803 117.87L155.153 117.817L155.062 118.195C154.827 119.168 154.51 120.133 154.114 121.084L153.959 121.455L154.597 121.544C154.282 122.26 153.922 122.97 153.518 123.67L152.898 123.546L152.681 123.906C152.124 124.833 151.489 125.744 150.779 126.634L150.503 126.981L151.099 127.139C150.549 127.806 149.958 128.462 149.325 129.105L148.759 128.913L148.425 129.242C147.569 130.087 146.641 130.91 145.642 131.705L145.254 132.014L145.785 132.236C145.023 132.828 144.222 133.404 143.383 133.964L142.892 133.713L142.454 133.998C141.331 134.729 140.142 135.43 138.89 136.099L138.405 136.357L138.851 136.636C137.904 137.128 136.923 137.603 135.907 138.058L135.512 137.756L134.985 137.986C133.64 138.573 132.236 139.126 130.776 139.641L130.212 139.84L130.554 140.163Z" stroke="#5506D7" stroke-width="1.07859" stroke-linecap="square" stroke-linejoin="round" stroke-dasharray="4.05 4.05"/>
<g filter="url(#filter1_d_7347_54168)">
<path d="M119.118 135.659C109.236 138.019 98.0605 138.019 88.1783 135.659L88.3556 135.411C83.6441 134.286 79.2296 132.617 75.3986 130.406C71.5676 128.194 68.6779 125.645 66.7286 122.925L66.3001 123.027C62.2114 117.322 62.2114 110.87 66.3001 105.164L66.7286 105.267C68.6779 102.546 71.5676 99.9977 75.3986 97.7858C79.2296 95.574 83.6442 93.9056 88.3556 92.7802L88.1783 92.5328C98.0606 90.1722 109.236 90.1721 119.118 92.5328L118.941 92.7802C123.652 93.9056 128.067 95.574 131.898 97.7858C135.729 99.9977 138.618 102.546 140.568 105.267L140.996 105.164C145.085 110.87 145.085 117.322 140.996 123.027L140.568 122.925C138.618 125.645 135.729 128.194 131.898 130.406C128.067 132.617 123.652 134.286 118.941 135.411L119.118 135.659Z" stroke="#FFF6FC" stroke-width="0.75731" stroke-linejoin="round" stroke-dasharray="18.18 18.18" shape-rendering="crispEdges"/>
</g>
<path fill-rule="evenodd" clip-rule="evenodd" d="M181.802 133.105C190.245 133.105 197.089 129.187 197.089 124.354C197.089 124.348 197.089 124.342 197.089 124.336L197.089 117.332L190.924 117.332C188.378 116.246 185.221 115.604 181.802 115.604C178.383 115.604 175.227 116.246 172.681 117.332L166.516 117.332L166.516 124.354L166.516 124.354C166.516 124.354 166.516 124.354 166.516 124.354C166.516 129.187 173.36 133.105 181.802 133.105Z" fill="#5506D7"/>
<ellipse cx="181.802" cy="116.792" rx="15.2864" ry="8.75063" fill="#3B009B"/>
<path fill-rule="evenodd" clip-rule="evenodd" d="M181.802 123.191C190.245 123.191 197.089 119.273 197.089 114.44C197.089 114.44 197.089 114.44 197.089 114.44L197.089 107.417L190.924 107.417C188.378 106.332 185.221 105.689 181.802 105.689C178.384 105.689 175.227 106.332 172.681 107.417L166.516 107.417L166.516 114.44C166.516 114.44 166.516 114.44 166.516 114.44C166.516 119.273 173.36 123.191 181.802 123.191Z" fill="#5506D7"/>
<ellipse cx="181.802" cy="106.88" rx="15.2864" ry="8.75063" fill="#3B009B"/>
<path fill-rule="evenodd" clip-rule="evenodd" d="M181.802 113.308C190.245 113.308 197.089 109.39 197.089 104.557C197.089 104.557 197.089 104.557 197.089 104.557L197.089 97.5346L190.924 97.5346C188.378 96.4491 185.221 95.8066 181.802 95.8066C178.384 95.8066 175.227 96.4491 172.681 97.5346L166.516 97.5346L166.516 104.557C166.516 104.557 166.516 104.557 166.516 104.557C166.516 109.39 173.36 113.308 181.802 113.308Z" fill="#660BFA"/>
<ellipse cx="181.802" cy="96.9948" rx="15.2864" ry="8.75063" fill="#8C49FA"/>
<g clip-path="url(#clip2_7347_54168)">
<path fill-rule="evenodd" clip-rule="evenodd" d="M185.839 92.7391C188.611 92.6396 191.194 93.6328 192.114 95.1449C193.336 97.1538 191.318 99.3094 187.819 99.8512L179.955 101.067C179.516 101.135 179.048 101.099 178.654 100.968C178.26 100.837 177.973 100.621 177.855 100.367L187.377 98.8949C189.916 98.5014 191.382 96.9379 190.499 95.4796C189.837 94.3853 187.965 93.6606 185.961 93.7273C184.857 93.7625 183.813 94.0275 183.022 94.4731C182.231 94.9187 181.746 95.5147 181.657 96.1505C181.642 96.2647 181.639 96.3793 181.649 96.4937L176.084 97.357C175.867 97.3908 175.64 97.3994 175.416 97.3825C175.193 97.3657 174.978 97.3235 174.783 97.2586C174.588 97.1936 174.417 97.1071 174.28 97.004C174.143 96.9009 174.042 96.7832 173.984 96.6576L180.026 95.7203C180.166 95.2727 180.453 94.8444 180.869 94.458L177.162 95.0351C176.722 95.103 176.254 95.0675 175.861 94.9363C175.467 94.8052 175.18 94.5891 175.062 94.3355L184.633 92.852C185.028 92.7922 185.432 92.7544 185.839 92.7391ZM187.947 96.1875C188.303 96.9556 187.51 97.7496 186.179 97.955L177.016 99.369C176.576 99.437 176.108 99.4014 175.714 99.2703C175.321 99.1391 175.033 98.923 174.915 98.6695L183.438 97.3483C183.241 97.1734 183.111 96.9759 183.059 96.7694C183.007 96.5628 183.033 96.3521 183.135 96.1518C183.238 95.9515 183.414 95.7664 183.653 95.6092C183.891 95.4521 184.186 95.3267 184.516 95.2416C184.847 95.1566 185.205 95.1139 185.567 95.1166C185.928 95.1193 186.285 95.1672 186.611 95.2572C186.937 95.3471 187.225 95.4768 187.456 95.6374C187.687 95.7981 187.855 95.9857 187.947 96.1875ZM185.635 96.1125C185.533 96.1048 185.429 96.1087 185.33 96.1241C185.18 96.1474 185.046 96.1956 184.943 96.2629C184.841 96.3302 184.776 96.4135 184.755 96.5023C184.735 96.591 184.761 96.6812 184.829 96.7614C184.898 96.8417 185.006 96.9084 185.14 96.9531C185.274 96.9978 185.429 97.0185 185.583 97.0126C185.738 97.0067 185.886 96.9744 186.009 96.9199C186.132 96.8654 186.225 96.791 186.274 96.7063C186.324 96.6215 186.33 96.5302 186.29 96.4437C186.263 96.3863 186.217 96.3326 186.154 96.2854C186.092 96.2383 186.014 96.1988 185.925 96.1691C185.836 96.1394 185.737 96.1202 185.635 96.1125Z" fill="white"/>
</g>
<g style="mix-blend-mode:multiply" filter="url(#filter2_f_7347_54168)">
<circle cx="179.155" cy="124.355" r="14.9726" fill="#9C84FF" style="mix-blend-mode:lighten"/>
</g>
<path d="M103.556 131.815C103.693 131.892 103.86 131.892 103.996 131.814L135.149 114.012C135.287 113.933 135.372 113.788 135.373 113.629C135.375 113.471 135.292 113.324 135.156 113.243L104.003 94.6995C103.863 94.6164 103.69 94.616 103.55 94.6983L72.0233 113.242C71.8861 113.322 71.8024 113.47 71.8039 113.629C71.8053 113.789 71.8915 113.935 72.0301 114.013L103.556 131.815Z" stroke="#6E00D8" stroke-width="0.890337" stroke-linejoin="round"/>
<g filter="url(#filter3_d_7347_54168)">
<path d="M87.919 111.685C83.7631 109.286 81.4283 106.032 81.4283 102.639C81.4283 99.2457 83.7631 95.9917 87.919 93.5925L103.589 84.5463L119.259 93.5925C123.415 95.9917 125.749 99.2457 125.749 102.639C125.749 106.032 123.415 109.286 119.259 111.685C115.103 114.084 109.466 115.432 103.589 115.432C97.7115 115.432 92.0749 114.084 87.919 111.685V111.685Z" fill="#0ACF83"/>
</g>
<path d="M103.802 104.597L72.368 86.8468L103.802 68.3574L134.865 86.8468L103.802 104.597Z" fill="#6400CA"/>
<path d="M100.789 86.9149C100.789 86.4648 101.421 86.0999 102.2 86.0999L105.405 86.0999C106.185 86.0999 106.816 86.4648 106.816 86.9149L106.816 88.765C106.816 89.2151 106.185 89.5799 105.405 89.5799L102.2 89.5799C101.421 89.5799 100.789 89.2151 100.789 88.765V86.9149Z" fill="#A950FF"/>
<path d="M108.156 82.6469C108.156 82.2049 108.776 81.8465 109.542 81.8465L112.797 81.8465C113.563 81.8465 114.183 82.2049 114.183 82.6469V84.5261C114.183 84.9682 113.563 85.3265 112.797 85.3265L109.542 85.3265C108.776 85.3265 108.156 84.9682 108.156 84.5261L108.156 82.6469Z" fill="#A950FF"/>
<path d="M93.4221 82.647C93.4221 82.205 94.0427 81.8467 94.8083 81.8467L98.0633 81.8467C98.8289 81.8467 99.4496 82.205 99.4496 82.647L99.4496 84.5263C99.4496 84.9683 98.8289 85.3266 98.0633 85.3266L94.8083 85.3266C94.0427 85.3266 93.4221 84.9683 93.4221 84.5263L93.4221 82.647Z" fill="#E9C1FF"/>
<path d="M98.0384 86.0998C98.818 86.0998 99.4499 86.4646 99.4499 86.9147V88.7648C99.4499 89.2149 98.818 89.5797 98.0384 89.5797L94.834 89.5797C94.0544 89.5797 93.4224 89.2149 93.4224 88.7648L93.4224 86.9147C93.4224 86.4646 94.0544 86.0998 94.834 86.0998L98.0384 86.0998Z" fill="#CD88FF"/>
<path d="M98.0633 90.3531C98.8289 90.3531 99.4496 90.7114 99.4496 91.1534V93.0327C99.4496 93.4747 98.8289 93.833 98.0633 93.833L94.8083 93.833C94.0427 93.833 93.4221 93.4747 93.4221 93.0327L93.4221 91.1534C93.4221 90.7114 94.0427 90.3531 94.8083 90.3531L98.0633 90.3531Z" fill="#A950FF"/>
<path d="M105.405 81.8466C106.185 81.8466 106.817 82.2115 106.817 82.6616L106.817 84.5117C106.817 84.9617 106.185 85.3266 105.405 85.3266L102.201 85.3266C101.421 85.3266 100.789 84.9617 100.789 84.5117L100.789 82.6616C100.789 82.2115 101.421 81.8466 102.201 81.8466L105.405 81.8466Z" fill="#CD88FF"/>
<path d="M111.513 90.4707C113.255 90.4707 114.666 91.2858 114.666 92.2914C114.666 93.2969 113.255 94.112 111.513 94.112C109.771 94.112 108.36 93.2969 108.36 92.2914C108.36 91.2858 109.771 90.4707 111.513 90.4707Z" fill="#F62E76"/>
<path d="M103.65 104.511L103.65 123.848L72.5682 105.526L72.5682 86.7344L103.65 104.511Z" fill="#4A0292"/>
<path d="M103.589 104.26L103.589 123.63L134.928 105.545L134.928 86.7734L103.589 104.26Z" fill="#3C0077"/>
<g style="mix-blend-mode:multiply" filter="url(#filter4_f_7347_54168)">
<circle cx="117.965" cy="94.0351" r="14.9726" fill="#9C84FF" style="mix-blend-mode:lighten"/>
</g>
<path d="M45.1768 159.109L45.1768 168.738L68.047 155.257L68.047 146.029L45.1768 159.109Z" fill="#060409"/>
<path d="M45.2217 158.926L45.2217 168.751L3.36578 145.113L3.36578 135.729L45.2217 158.926Z" fill="#14101D"/>
<path d="M45.0646 159.174L68.1943 146.114L26.1927 122.094L3.33676 135.698L45.0646 159.174Z" fill="#1D1925" stroke="#819AF5" stroke-width="0.296779"/>
<g clip-path="url(#clip3_7347_54168)">
<path d="M14.4553 141.034L18.912 138.754L27.9932 148.131C28.0865 148.228 28.1184 148.336 28.0844 148.443C28.0503 148.549 27.9521 148.647 27.8034 148.723L24.335 150.497C24.2224 150.554 24.0846 150.597 23.9329 150.622C23.7813 150.647 23.6202 150.653 23.463 150.64C23.3058 150.627 23.1571 150.595 23.029 150.546C22.9009 150.498 22.7972 150.435 22.7265 150.362L14.2654 141.625C14.172 141.529 14.1401 141.42 14.1741 141.314C14.2082 141.208 14.3066 141.11 14.4553 141.034Z" fill="url(#paint0_linear_7347_54168)"/>
<path d="M30.1257 142.424L23.0585 146.038C22.9927 146.072 22.9483 146.115 22.9309 146.161C22.9135 146.208 22.924 146.256 22.961 146.3C22.998 146.344 23.0598 146.38 23.1384 146.406C23.217 146.431 23.3087 146.444 23.4015 146.442L32.1813 146.287C32.4369 146.283 32.6796 146.229 32.8603 146.136L36.8621 144.09L30.1257 142.424Z" fill="#0078D4"/>
<path d="M14.4553 141.034C14.3044 141.11 14.2054 141.21 14.1726 141.317C14.1398 141.424 14.1751 141.534 14.2732 141.631L22.7201 150.353C22.7888 150.427 22.8916 150.492 23.0196 150.542C23.1477 150.592 23.2974 150.625 23.456 150.639C23.6146 150.653 23.7774 150.648 23.9308 150.623C24.0841 150.598 24.2234 150.554 24.3369 150.496L27.8948 148.676C28.0037 148.596 28.0691 148.503 28.0844 148.406C28.0998 148.309 28.0644 148.211 27.9821 148.124L26.3111 146.391L32.2358 146.286C32.4705 146.274 32.6904 146.222 32.8585 146.137L36.8453 144.098L30.0999 142.437L25.0038 145.045L18.9281 138.746L14.4553 141.034Z" fill="url(#paint1_linear_7347_54168)"/>
<path d="M20.6303 138.369C20.4421 138.322 20.2295 138.305 20.0223 138.323C19.8151 138.34 19.6238 138.39 19.4753 138.466L14.5084 141.007C14.6569 140.931 14.8482 140.88 15.0554 140.863C15.2626 140.846 15.4752 140.862 15.6634 140.91L32.7458 145.237C32.8886 145.273 33.0125 145.326 33.1073 145.392C33.202 145.457 33.2649 145.533 33.2907 145.614C33.3166 145.694 33.3046 145.777 33.2558 145.854C33.207 145.932 33.1228 146.002 33.0101 146.06L37.9772 143.52C38.0898 143.462 38.174 143.391 38.2227 143.314C38.2715 143.236 38.2834 143.154 38.2576 143.074C38.2318 142.993 38.1689 142.917 38.0741 142.852C37.9794 142.786 37.8555 142.733 37.7127 142.697L20.6303 138.369Z" fill="url(#paint2_linear_7347_54168)"/>
</g>
<g style="mix-blend-mode:multiply" filter="url(#filter5_f_7347_54168)">
<circle cx="56.612" cy="147.15" r="14.9726" fill="#9C84FF" style="mix-blend-mode:lighten"/>
</g>
<defs>
<filter id="filter0_f_7347_54168" x="65.1872" y="0.309731" width="89.1695" height="89.1696" filterUnits="userSpaceOnUse" color-interpolation-filters="sRGB">
<feFlood flood-opacity="0" result="BackgroundImageFix"/>
<feBlend mode="normal" in="SourceGraphic" in2="BackgroundImageFix" result="shape"/>
<feGaussianBlur stdDeviation="14.8061" result="effect1_foregroundBlur_7347_54168"/>
</filter>
<filter id="filter1_d_7347_54168" x="60.9616" y="90.7617" width="85.3732" height="51.2118" filterUnits="userSpaceOnUse" color-interpolation-filters="sRGB">
<feFlood flood-opacity="0" result="BackgroundImageFix"/>
<feColorMatrix in="SourceAlpha" type="matrix" values="0 0 0 0 0 0 0 0 0 0 0 0 0 0 0 0 0 0 127 0" result="hardAlpha"/>
<feOffset dy="2.27193"/>
<feGaussianBlur stdDeviation="1.13597"/>
<feComposite in2="hardAlpha" operator="out"/>
<feColorMatrix type="matrix" values="0 0 0 0 0.432266 0 0 0 0 0.00354165 0 0 0 0 0.846458 0 0 0 1 0"/>
<feBlend mode="screen" in2="BackgroundImageFix" result="effect1_dropShadow_7347_54168"/>
<feBlend mode="normal" in="SourceGraphic" in2="effect1_dropShadow_7347_54168" result="shape"/>
</filter>
<filter id="filter2_f_7347_54168" x="134.57" y="79.7707" width="89.1695" height="89.1696" filterUnits="userSpaceOnUse" color-interpolation-filters="sRGB">
<feFlood flood-opacity="0" result="BackgroundImageFix"/>
<feBlend mode="normal" in="SourceGraphic" in2="BackgroundImageFix" result="shape"/>
<feGaussianBlur stdDeviation="14.8061" result="effect1_foregroundBlur_7347_54168"/>
</filter>
<filter id="filter3_d_7347_54168" x="51.057" y="56.7016" width="105.064" height="91.6275" filterUnits="userSpaceOnUse" color-interpolation-filters="sRGB">
<feFlood flood-opacity="0" result="BackgroundImageFix"/>
<feColorMatrix in="SourceAlpha" type="matrix" values="0 0 0 0 0 0 0 0 0 0 0 0 0 0 0 0 0 0 127 0" result="hardAlpha"/>
<feOffset dy="2.52603"/>
<feGaussianBlur stdDeviation="15.1857"/>
<feComposite in2="hardAlpha" operator="out"/>
<feColorMatrix type="matrix" values="0 0 0 0 0.396 0 0 0 0 0 0 0 0 0 0.9 0 0 0 1 0"/>
<feBlend mode="normal" in2="BackgroundImageFix" result="effect1_dropShadow_7347_54168"/>
<feBlend mode="normal" in="SourceGraphic" in2="effect1_dropShadow_7347_54168" result="shape"/>
</filter>
<filter id="filter4_f_7347_54168" x="73.3802" y="49.4504" width="89.1695" height="89.1696" filterUnits="userSpaceOnUse" color-interpolation-filters="sRGB">
<feFlood flood-opacity="0" result="BackgroundImageFix"/>
<feBlend mode="normal" in="SourceGraphic" in2="BackgroundImageFix" result="shape"/>
<feGaussianBlur stdDeviation="14.8061" result="effect1_foregroundBlur_7347_54168"/>
</filter>
<filter id="filter5_f_7347_54168" x="12.0273" y="102.566" width="89.1695" height="89.1696" filterUnits="userSpaceOnUse" color-interpolation-filters="sRGB">
<feFlood flood-opacity="0" result="BackgroundImageFix"/>
<feBlend mode="normal" in="SourceGraphic" in2="BackgroundImageFix" result="shape"/>
<feGaussianBlur stdDeviation="14.8061" result="effect1_foregroundBlur_7347_54168"/>
</filter>
<linearGradient id="paint0_linear_7347_54168" x1="21.0462" y1="138.739" x2="24.8876" y2="150.315" gradientUnits="userSpaceOnUse">
<stop stop-color="#114A8B"/>
<stop offset="1" stop-color="#0669BC"/>
</linearGradient>
<linearGradient id="paint1_linear_7347_54168" x1="26.0644" y1="142.69" x2="25.8477" y2="143.644" gradientUnits="userSpaceOnUse">
<stop stop-opacity="0.3"/>
<stop offset="0.071" stop-opacity="0.2"/>
<stop offset="0.321" stop-opacity="0.1"/>
<stop offset="0.623" stop-opacity="0.05"/>
<stop offset="1" stop-opacity="0"/>
</linearGradient>
<linearGradient id="paint2_linear_7347_54168" x1="17.5894" y1="140.098" x2="30.1446" y2="151.248" gradientUnits="userSpaceOnUse">
<stop stop-color="#3CCBF4"/>
<stop offset="1" stop-color="#2892DF"/>
</linearGradient>
<clipPath id="clip0_7347_54168">
<rect width="19.2724" height="19.2724" fill="white" transform="matrix(0.866025 0.5 -2.20305e-08 1 105.159 21.582)"/>
</clipPath>
<clipPath id="clip1_7347_54168">
<rect width="23.7423" height="23.7423" fill="white" transform="matrix(0.866025 -0.5 0.866025 0.5 34.7208 53.043)"/>
</clipPath>
<clipPath id="clip2_7347_54168">
<rect width="19.8469" height="19.8469" fill="white" transform="matrix(0.866025 0.5 -0.866025 0.5 183.07 86.5723)"/>
</clipPath>
<clipPath id="clip3_7347_54168">
<rect width="23.7423" height="23.7423" fill="white" transform="matrix(0.890315 -0.455346 0.890314 0.455346 2.92236 143.379)"/>
</clipPath>
</defs>
</svg>
