<svg width="556" height="477" viewBox="0 0 556 477" fill="none" xmlns="http://www.w3.org/2000/svg">
<path d="M278.042 130.137L250.59 147.03L373.661 214.591L346.796 230.066" stroke="#3B14AB" stroke-opacity="0.81" stroke-width="2.21299" stroke-linejoin="round"/>
<path d="M307.537 146.103C307.876 146.295 308.292 146.294 308.63 146.1L365.44 113.637C365.782 113.442 365.994 113.08 365.997 112.686C366.001 112.293 365.795 111.927 365.457 111.726L308.647 77.9105C308.3 77.704 307.868 77.7029 307.52 77.9076L250.03 111.723C249.689 111.923 249.481 112.291 249.484 112.686C249.488 113.082 249.702 113.446 250.046 113.64L307.537 146.103Z" stroke="#3B14AB" stroke-opacity="0.81" stroke-width="2.21299" stroke-linejoin="round"/>
<path d="M113.185 225.06C113.523 225.251 113.935 225.251 114.272 225.061L217.989 166.71C218.334 166.517 218.548 166.154 218.553 165.76C218.558 165.365 218.352 164.997 218.013 164.795L161.203 130.98C160.86 130.776 160.434 130.772 160.088 130.97L55.6897 190.673C55.3442 190.871 55.1314 191.239 55.1325 191.637C55.1336 192.035 55.3484 192.402 55.695 192.597L113.185 225.06Z" stroke="#3B14AB" stroke-opacity="0.81" stroke-width="2.21299" stroke-linejoin="round"/>
<path d="M169.374 194.842L183.426 203.784L153.406 221.029L169.374 230.61" stroke="#3B14AB" stroke-opacity="0.81" stroke-width="2.34903" stroke-linejoin="round"/>
<path d="M487.685 325.17C487.685 330.609 483.824 335.748 477.113 339.59C470.433 343.414 461.131 345.814 450.796 345.814C440.461 345.814 431.159 343.414 424.479 339.59C417.768 335.748 413.907 330.609 413.907 325.17C413.907 319.731 417.768 314.592 424.479 310.751C431.159 306.927 440.461 304.526 450.796 304.526C461.131 304.526 470.433 306.927 477.113 310.751C483.824 314.592 487.685 319.731 487.685 325.17Z" stroke="#3B14AB" stroke-opacity="0.81" stroke-width="2.21299"/>
<path d="M150.989 327.158C150.989 327.158 117.934 345.181 112.641 347.999" stroke="#3B14AB" stroke-opacity="0.81" stroke-width="2.34903" stroke-linejoin="round"/>
<path d="M345.223 336.83L392.579 360.91L426.714 341.12" stroke="#3B14AB" stroke-opacity="0.81" stroke-width="2.21299" stroke-linejoin="round"/>
<path d="M111.469 432.191C111.132 432.381 110.72 432.382 110.383 432.192L6.66538 373.841C6.32121 373.648 6.10632 373.285 6.1015 372.89C6.09668 372.496 6.30264 372.128 6.64197 371.926L63.4519 338.111C63.7947 337.907 64.2209 337.903 64.5672 338.101L168.965 397.804C169.311 398.002 169.523 398.37 169.522 398.768C169.521 399.166 169.306 399.532 168.96 399.728L111.469 432.191Z" stroke="#3B14AB" stroke-opacity="0.81" stroke-width="2.21299" stroke-linejoin="round"/>
<path d="M309.254 106.933L251.763 74.4696L309.254 40.6543L366.064 74.4696L309.254 106.933Z" fill="#8C49FA"/>
<path d="M308.975 106.774V130.707L252.129 97.1975V74.2627L308.975 106.774Z" fill="#320282"/>
<path d="M308.863 106.314V130.735L366.18 97.6579V74.332L308.863 106.314Z" fill="#1F0152"/>
<ellipse cx="329.257" cy="107.19" rx="2.54797" ry="3.52261" transform="rotate(1.95579 329.257 107.19)" fill="#D9D9D9"/>
<ellipse cx="337.495" cy="102.532" rx="2.54797" ry="3.52261" transform="rotate(1.95579 337.495 102.532)" fill="#D9D9D9"/>
<ellipse cx="345.787" cy="98.1485" rx="2.54797" ry="3.52261" transform="rotate(1.95579 345.787 98.1485)" fill="#D9D9D9"/>
<g style="mix-blend-mode:multiply" filter="url(#filter0_f_6500_37761)">
<circle cx="271.759" cy="111.547" r="37.2154" fill="#9C84FF" style="mix-blend-mode:lighten"/>
</g>
<path d="M309.253 75.124L251.763 42.661L309.253 8.8457L366.063 42.661L309.253 75.124Z" fill="#4906B9"/>
<path d="M308.975 74.9657V110.332L252.129 76.8229V42.4541L308.975 74.9657Z" fill="#320282"/>
<path d="M308.863 74.5044V107.581L366.18 74.5044V42.5225L308.863 74.5044Z" fill="#1F0152"/>
<path d="M343.695 60.0315L358.936 51.25V53.2685L343.695 62.05V60.0315Z" fill="#D9D9D9"/>
<path d="M343.695 64.0686L358.936 55.2871V57.3056L343.695 66.0871V64.0686Z" fill="#D9D9D9"/>
<path d="M343.695 68.0061L358.936 59.2246V61.2431L343.695 70.0246V68.0061Z" fill="#D9D9D9"/>
<g clip-path="url(#clip0_6500_37761)">
<path d="M293.756 78.1489C293.422 77.6924 293.047 77.289 292.652 76.9614C292.246 76.6243 291.828 76.3642 291.417 76.1935C290.986 76.0141 290.569 75.9266 290.182 75.9347L288.38 76.0429L286.574 76.1467L284.766 76.2497L282.96 76.3638C282.568 76.4023 282.149 76.3654 281.712 76.2546C281.289 76.1521 280.852 75.9738 280.412 75.7243C279.973 75.4769 279.535 75.1615 279.11 74.7871C278.672 74.4 278.251 73.957 277.858 73.4692L276.106 71.3582L274.355 69.2471L272.603 67.14L270.85 65.0278C270.2 64.1741 269.423 63.5325 268.661 63.2201C267.957 62.9402 267.305 62.9384 266.793 63.2151C266.277 63.4819 265.926 64.0154 265.789 64.7416C265.648 65.5335 265.787 66.5162 266.179 67.5068L266.793 69.1606L268.146 72.7933L269.499 76.426L270.115 78.0808C270.343 78.6599 270.521 79.2417 270.644 79.812C270.76 80.3675 270.819 80.9059 270.82 81.4129C270.819 81.9203 270.76 82.3916 270.644 82.8142C270.535 83.2669 270.367 83.6666 270.144 84.0027L269.183 85.519L268.22 87.0284L267.257 88.5356L266.294 90.0448C266.132 90.2899 266.007 90.5786 265.923 90.9043C265.844 91.212 265.809 91.5564 265.818 91.9269C265.83 92.2924 265.889 92.6813 265.994 93.0798C266.1 93.4951 266.254 93.9164 266.449 94.3283C266.687 94.8436 266.983 95.339 267.322 95.7898C267.659 96.243 268.033 96.6468 268.426 96.9832C268.83 97.3305 269.248 97.6029 269.661 97.7877C270.092 97.9793 270.51 98.0738 270.896 98.0667L272.771 97.962L274.644 97.8579L276.517 97.7521L278.391 97.6462C277.827 96.8537 277.306 96.0205 276.836 95.1601C276.365 94.296 275.934 93.415 275.544 92.5237C275.151 91.6286 274.791 90.7241 274.457 89.8228C274.159 89.0193 273.882 88.22 273.616 87.4307C274.087 88.721 275.101 90.388 276.419 92.2343C278.021 94.4332 279.692 96.5541 281.42 98.5843C283.237 100.749 285.101 102.881 286.711 104.744C288.322 106.606 289.687 108.203 290.496 109.287C291.15 110.111 291.927 110.701 292.668 110.936C293.355 111.135 293.972 111.052 294.432 110.696C294.914 110.344 295.227 109.746 295.333 108.976C295.444 108.161 295.287 107.174 294.889 106.183L293.781 103.23L291.356 96.7379L288.93 90.2453L287.835 87.3255C287.6 86.7338 287.345 86.145 287.071 85.5609C286.799 84.9858 286.504 84.4178 286.189 83.8602C285.876 83.3053 285.541 82.7629 285.187 82.2368C284.827 81.7016 284.446 81.1862 284.048 80.6949C284.667 81.3783 285.296 82.0799 285.914 82.8009C286.536 83.5219 287.141 84.2705 287.727 85.0435C288.312 85.8145 288.867 86.6209 289.385 87.455C289.908 88.3008 290.378 89.18 290.788 90.0774L291.784 88.5467L292.781 87.0163L293.781 85.4835L294.778 83.9528C294.944 83.7321 295.069 83.4611 295.148 83.1483C295.227 82.8383 295.263 82.4919 295.254 82.1195C295.242 81.742 295.182 81.3412 295.077 80.93C294.971 80.5097 294.815 80.0832 294.617 79.6663C294.391 79.1336 294.099 78.6179 293.756 78.1489ZM270.642 94.3046C270.668 94.75 270.532 95.0946 270.27 95.2509C270.008 95.4073 269.644 95.3605 269.271 95.1224C268.508 94.6894 267.885 93.6213 267.879 92.7368C267.872 91.8524 268.486 91.4868 269.249 91.9199C269.621 92.1047 269.987 92.4715 270.254 92.9277C270.52 93.3838 270.661 93.8852 270.642 94.3046ZM267.91 66.7194C267.884 66.2741 268.019 65.9297 268.281 65.7733C268.543 65.617 268.907 65.6636 269.28 65.9017C269.653 66.0872 270.019 66.4545 270.285 66.911C270.552 67.3674 270.693 67.8694 270.674 68.289C270.7 68.7344 270.564 69.0788 270.302 69.2351C270.04 69.3915 269.676 69.3447 269.303 69.1066C268.93 68.9211 268.564 68.5534 268.298 68.097C268.031 67.6405 267.89 67.1391 267.91 66.7194ZM293.183 107.27C293.189 107.92 292.856 108.314 292.341 108.27C291.826 108.225 291.23 107.751 290.831 107.068C290.432 106.384 290.308 105.627 290.518 105.149C290.728 104.671 291.23 104.567 291.789 104.885C292.162 105.07 292.528 105.437 292.794 105.893C293.061 106.349 293.203 106.851 293.183 107.27ZM283.834 88.3135C283.427 87.3083 282.755 86.6189 281.949 86.1637C280.847 85.5705 279.874 85.8026 279.471 86.7544C279.068 87.7061 279.314 89.1952 280.096 90.5427C279.223 89.9098 278.43 88.9249 277.895 87.8078C277.361 86.6908 277.129 85.5349 277.251 84.5985C277.511 82.7297 279.248 82.1646 280.995 83.4559C282.473 84.5985 283.688 86.5241 283.834 88.3135ZM293.282 81.2338C293.263 82.0829 292.656 82.4209 291.911 81.9984C291.166 81.5759 290.55 80.5447 290.518 79.6663C290.537 78.8172 291.143 78.4789 291.888 78.9014C292.633 79.3239 293.25 80.3555 293.282 81.2338Z" fill="#FF694B"/>
</g>
<path d="M113.803 178.013L56.3124 145.55L160.71 85.8467L217.52 119.662L113.803 178.013Z" fill="#8C49FA"/>
<path d="M113.524 177.853V201.786L56.6783 168.277V145.342L113.524 177.853Z" fill="#A570FB"/>
<path d="M113.412 177.392V201.812L217.448 143.059V119.733L113.412 177.392Z" fill="#660BFA"/>
<g clip-path="url(#clip1_6500_37761)">
<path d="M149.366 124.776C149.928 124.702 150.41 124.646 150.895 124.575C152.469 124.333 154.041 124.086 155.612 123.834C156.707 123.656 157.723 123.702 158.686 124.105C159.962 124.637 160.29 125.834 159.3 126.544C158.815 126.909 158.134 127.172 157.364 127.291C153.622 127.861 149.86 128.441 146.117 129.034C144.91 129.224 143.835 129.135 142.894 128.656C141.91 128.156 141.68 127.5 141.976 126.801C142.498 125.579 143.092 124.368 143.658 123.152L144.97 120.349C145.136 119.99 145.305 119.633 145.762 119.339C146.211 119.047 146.81 118.845 147.472 118.764C148.133 118.683 148.822 118.726 149.437 118.888C150.798 119.253 151.43 120.064 151.112 120.927C150.915 121.495 150.609 122.051 150.351 122.612C150.055 123.237 149.759 123.863 149.473 124.496C149.42 124.561 149.408 124.64 149.366 124.776Z" fill="#32C0F0"/>
<path d="M124.516 139.096C123.447 139.258 122.46 139.408 121.471 139.56C120.315 139.739 119.155 139.913 118.005 140.102C116.478 140.359 114.844 139.87 114.317 139.161C113.52 138.105 114.383 136.972 116.308 136.647C117.779 136.4 119.266 136.185 120.747 135.955C123.036 135.602 125.328 135.256 127.613 134.889C128.629 134.725 129.598 134.709 130.518 135.03C131.027 135.191 131.44 135.436 131.705 135.734C131.969 136.032 132.073 136.369 132.001 136.702C131.903 137.126 131.746 137.544 131.53 137.954C130.651 139.882 129.76 141.807 128.855 143.728C128.543 144.41 127.832 144.91 126.613 145.116C126.164 145.194 125.69 145.211 125.228 145.164C124.766 145.118 124.33 145.009 123.954 144.848C123.578 144.686 123.273 144.476 123.063 144.234C122.853 143.992 122.745 143.725 122.746 143.454C122.787 143.056 122.906 142.661 123.102 142.279C123.532 141.301 123.999 140.328 124.449 139.353C124.481 139.289 124.488 139.223 124.516 139.096Z" fill="#32C0F0"/>
<path d="M120.031 129.445L119.411 129.087C117.989 128.266 116.566 127.445 115.145 126.624C114.593 126.3 114.272 125.869 114.245 125.414C114.217 124.96 114.486 124.516 114.997 124.171C115.947 123.556 117.954 123.239 119.432 124.058C120.534 124.672 121.597 125.308 122.684 125.936C124.495 126.981 126.306 128.027 128.117 129.072C128.619 129.345 128.946 129.709 129.046 130.103C129.146 130.497 129.012 130.899 128.667 131.244C128.447 131.467 128.152 131.661 127.799 131.817C127.446 131.972 127.042 132.085 126.612 132.148C124.127 132.533 121.654 132.919 119.193 133.304L115.24 133.918C114.643 134.025 114.006 134.037 113.399 133.951C112.73 133.856 112.137 133.632 111.715 133.317C111.294 133.003 111.069 132.615 111.076 132.217C111.078 131.819 111.309 131.432 111.734 131.118C112.159 130.803 112.752 130.579 113.421 130.481C114.549 130.298 115.69 130.135 116.82 129.96C117.846 129.792 118.873 129.625 120.031 129.445Z" fill="#32C0F0"/>
<path d="M141.274 141.709L140.347 143.69C140.066 144.29 139.8 144.894 139.508 145.492C139.322 145.919 138.877 146.292 138.255 146.546C137.633 146.8 136.874 146.917 136.116 146.876C134.696 146.798 133.438 146.081 133.431 145.255C133.441 144.869 133.537 144.486 133.717 144.115C134.635 142.096 135.585 140.081 136.52 138.066C136.79 137.483 137.251 136.991 138.229 136.702C138.807 136.513 139.478 136.44 140.136 136.494C140.794 136.548 141.402 136.726 141.866 137.001C142.994 137.638 144.1 138.291 145.212 138.933C146.972 139.949 148.733 140.965 150.494 141.982C151.068 142.304 151.401 142.743 151.421 143.205C151.44 143.668 151.146 144.116 150.6 144.455C150.32 144.631 149.98 144.774 149.602 144.873C149.225 144.972 148.816 145.026 148.401 145.032C147.987 145.039 147.574 144.996 147.188 144.908C146.802 144.821 146.451 144.689 146.155 144.521C144.726 143.723 143.344 142.898 141.941 142.088L141.274 141.709Z" fill="#32C0F0"/>
<path d="M132.623 122.141L133.323 120.65C133.669 119.917 134.011 119.183 134.348 118.449C134.579 117.949 134.997 117.519 135.805 117.265C137.038 116.873 138.263 116.907 139.373 117.405C140.375 117.856 140.644 118.489 140.41 119.191C140.228 119.75 139.928 120.289 139.674 120.836C138.887 122.532 138.084 124.225 137.313 125.923C136.9 126.822 135.523 127.465 133.92 127.376C133.245 127.35 132.608 127.187 132.121 126.915C129.192 125.224 126.262 123.533 123.335 121.843C122.851 121.56 122.545 121.191 122.467 120.795C122.389 120.4 122.542 120 122.904 119.661C123.265 119.322 123.812 119.062 124.459 118.923C125.106 118.785 125.814 118.775 126.471 118.896C126.962 119.001 127.409 119.165 127.782 119.378C129.187 120.158 130.536 120.954 131.908 121.747L132.623 122.141Z" fill="#32C0F0"/>
<path d="M153.973 134.468L158.741 137.221C159.309 137.551 159.631 137.997 159.637 138.463C159.643 138.929 159.333 139.378 158.773 139.714C158.213 140.05 157.449 140.246 156.642 140.26C155.836 140.275 155.051 140.107 154.457 139.792C153.638 139.355 152.865 138.872 152.07 138.413C149.967 137.199 147.865 135.985 145.77 134.776C145.467 134.607 145.227 134.404 145.067 134.179C144.907 133.954 144.83 133.712 144.841 133.468C144.851 133.225 144.949 132.986 145.129 132.765C145.308 132.545 145.565 132.348 145.882 132.188C146.281 131.99 146.748 131.843 147.253 131.758C151.049 131.158 154.84 130.574 158.636 129.985C159.139 129.891 159.674 129.868 160.196 129.917C160.719 129.966 161.213 130.086 161.639 130.267C162.936 130.809 163.229 132.029 162.194 132.74C161.672 133.105 160.959 133.363 160.161 133.473C158.277 133.75 156.419 134.042 154.534 134.337C154.343 134.375 154.155 134.418 153.973 134.468Z" fill="#32C0F0"/>
<path d="M141.013 129.59C141.576 129.813 141.7 130.128 141.692 130.498C141.667 131.465 141.684 132.432 141.68 133.401C141.683 133.566 141.628 133.729 141.52 133.882C141.413 134.034 141.253 134.173 141.051 134.289C140.849 134.406 140.609 134.498 140.345 134.56C140.081 134.623 139.798 134.654 139.513 134.652C137.789 134.657 136.068 134.659 134.351 134.659C133.786 134.659 133.245 134.53 132.844 134.301C132.443 134.072 132.214 133.761 132.207 133.435C132.203 132.427 132.203 131.418 132.209 130.408C132.221 130.09 132.444 129.786 132.833 129.559C133.222 129.333 133.746 129.201 134.298 129.191C135.995 129.186 137.697 129.202 139.4 129.18C140.068 129.176 140.627 129.26 141.013 129.59ZM135.525 131.078C135.43 131.167 135.36 131.264 135.316 131.365C135.281 131.736 135.282 132.107 135.318 132.478C135.355 132.727 135.626 132.859 136.097 132.878C136.644 132.899 137.194 132.9 137.741 132.881C137.857 132.886 137.973 132.876 138.081 132.853C138.189 132.829 138.288 132.793 138.369 132.746C138.451 132.698 138.515 132.642 138.555 132.579C138.596 132.516 138.612 132.45 138.604 132.383C138.638 132.08 138.639 131.776 138.605 131.473C138.568 131.133 138.292 130.983 137.688 130.964C137.187 130.948 136.685 130.95 136.185 130.968C135.958 130.99 135.737 131.027 135.525 131.078Z" fill="#32C0F0"/>
</g>
<path d="M323.417 348.343C320.7 349.275 317.908 350.156 315.042 350.983L314.331 350.135L312.853 350.548C310.962 351.077 309.04 351.582 307.086 352.062C305.133 352.543 303.17 352.993 301.2 353.414L299.66 353.743L300.227 354.626C297.208 355.247 294.173 355.799 291.127 356.284L290.713 355.373L289.125 355.614C285.01 356.237 280.876 356.738 276.737 357.118L275.116 357.267L275.372 358.197C272.211 358.464 269.048 358.663 265.889 358.794L265.793 357.854L264.154 357.91C259.921 358.054 255.697 358.076 251.496 357.98L249.856 357.942L249.791 358.883C246.607 358.787 243.438 358.623 240.289 358.393L240.514 357.46L238.888 357.33C234.698 356.993 230.547 356.539 226.449 355.969L224.853 355.747L224.471 356.663C221.386 356.211 218.332 355.694 215.316 355.114L215.851 354.224L214.3 353.913C210.311 353.114 206.391 352.203 202.555 351.184L201.064 350.787L200.382 351.643C197.511 350.854 194.689 350.005 191.921 349.098L192.745 348.284L191.328 347.806C187.69 346.577 184.151 345.245 180.726 343.812L179.396 343.255L178.439 344.018C175.893 342.924 173.411 341.774 170.999 340.57L172.082 339.865L170.854 339.236C167.709 337.626 164.69 335.92 161.811 334.123L160.696 333.427L159.499 334.066C157.378 332.708 155.335 331.3 153.376 329.843L154.677 329.274L153.687 328.518C151.159 326.588 148.779 324.574 146.56 322.478L145.704 321.669L144.312 322.161C142.698 320.592 141.172 318.98 139.74 317.325L141.208 316.915L140.492 316.062C139.577 314.97 138.702 313.86 137.87 312.732C137.038 311.605 136.258 310.471 135.529 309.334L134.959 308.445L133.429 308.772C132.355 307.029 131.398 305.277 130.558 303.518L132.136 303.279L131.719 302.362C130.639 299.987 129.772 297.6 129.113 295.21L128.855 294.274L127.244 294.422C126.781 292.597 126.438 290.771 126.211 288.947L127.839 288.891L127.743 287.945C127.492 285.502 127.454 283.063 127.621 280.637L127.686 279.69L126.056 279.653C126.223 277.815 126.507 275.985 126.905 274.167L128.521 274.297L128.747 273.358C129.33 270.939 130.117 268.542 131.104 266.177L131.488 265.255L129.902 265.035C130.685 263.253 131.581 261.49 132.585 259.749L134.126 260.058L134.664 259.162C136.048 256.859 137.626 254.596 139.392 252.381L140.079 251.52L138.597 251.126C139.963 249.469 141.433 247.84 143.005 246.242L144.414 246.717L145.243 245.899C147.37 243.799 149.678 241.755 152.161 239.778L153.125 239.011L151.804 238.458C153.699 236.988 155.69 235.555 157.775 234.163L158.996 234.788L160.085 234.079C162.875 232.263 165.83 230.52 168.943 228.858L170.148 228.214L169.04 227.523C171.393 226.298 173.832 225.119 176.356 223.988L177.34 224.739L178.649 224.167C181.993 222.708 185.482 221.334 189.112 220.053L190.512 219.558L189.661 218.755C192.378 217.823 195.17 216.942 198.036 216.115L198.747 216.963L200.225 216.549C202.115 216.021 204.038 215.516 205.992 215.035C207.945 214.555 209.908 214.105 211.878 213.684L213.418 213.355L212.851 212.471C215.87 211.851 218.905 211.299 221.951 210.814L222.365 211.725L223.953 211.484C228.068 210.861 232.202 210.36 236.341 209.98L237.962 209.83L237.705 208.9C240.867 208.633 244.03 208.435 247.189 208.304L247.285 209.244L248.924 209.188C253.157 209.044 257.381 209.022 261.582 209.118L263.222 209.156L263.287 208.215C266.471 208.311 269.64 208.475 272.789 208.705L272.564 209.637L274.19 209.768C278.38 210.105 282.531 210.559 286.629 211.129L288.225 211.351L288.607 210.435C291.692 210.887 294.746 211.404 297.762 211.984L297.227 212.874L298.778 213.185C302.767 213.984 306.687 214.895 310.523 215.914L312.014 216.311L312.696 215.455C315.567 216.244 318.389 217.092 321.157 218L320.333 218.813L321.75 219.292C325.388 220.52 328.927 221.853 332.352 223.286L333.682 223.843L334.639 223.08C337.185 224.174 339.667 225.324 342.078 226.528L340.996 227.232L342.224 227.861C345.369 229.472 348.388 231.178 351.267 232.975L352.382 233.671L353.579 233.032C355.7 234.39 357.743 235.798 359.702 237.255L358.401 237.823L359.391 238.579C361.919 240.509 364.299 242.524 366.518 244.62L367.374 245.428L368.766 244.937C370.38 246.505 371.906 248.118 373.338 249.772L371.87 250.183L372.585 251.036C373.501 252.127 374.376 253.237 375.208 254.365C376.04 255.493 376.82 256.626 377.549 257.764L378.119 258.653L379.649 258.326C380.723 260.069 381.68 261.821 382.52 263.58L380.942 263.819L381.359 264.735C382.439 267.111 383.305 269.498 383.965 271.887L384.223 272.823L385.834 272.675C386.297 274.5 386.64 276.327 386.867 278.151L385.239 278.206L385.335 279.153C385.585 281.596 385.624 284.035 385.457 286.46L385.391 287.407L387.022 287.445C386.855 289.283 386.571 291.113 386.173 292.931L384.557 292.801L384.331 293.74C383.748 296.159 382.961 298.555 381.974 300.921L381.59 301.843L383.176 302.063C382.393 303.844 381.497 305.607 380.493 307.349L378.952 307.04L378.414 307.936C377.03 310.239 375.452 312.502 373.686 314.716L372.999 315.577L374.481 315.971C373.115 317.629 371.645 319.258 370.073 320.856L368.664 320.381L367.835 321.199C365.708 323.299 363.4 325.342 360.917 327.32L359.953 328.087L361.274 328.64C359.379 330.11 357.388 331.543 355.302 332.935L354.082 332.31L352.993 333.019C350.203 334.835 347.248 336.578 344.135 338.24L342.93 338.884L344.038 339.575C341.685 340.8 339.246 341.979 336.722 343.11L335.738 342.359L334.428 342.93C331.085 344.39 327.596 345.764 323.966 347.045L322.566 347.54L323.417 348.343Z" stroke="#5506D7" stroke-width="2.68091" stroke-linecap="square" stroke-linejoin="round" stroke-dasharray="10.06 10.06"/>
<g filter="url(#filter1_d_6500_37761)">
<path d="M294.99 337.145C270.427 343.012 242.65 343.012 218.087 337.145L218.528 336.53C206.818 333.733 195.845 329.586 186.323 324.088C176.801 318.59 169.618 312.255 164.773 305.494L163.708 305.749C153.545 291.567 153.545 275.53 163.708 261.349L164.773 261.603C169.618 254.842 176.801 248.507 186.323 243.01C195.845 237.512 206.818 233.365 218.528 230.568L218.087 229.953C242.65 224.085 270.427 224.085 294.99 229.953L294.55 230.568C306.26 233.365 317.233 237.512 326.755 243.01C336.277 248.507 343.46 254.842 348.305 261.603L349.37 261.349C359.533 275.53 359.533 291.567 349.37 305.749L348.305 305.494C343.46 312.255 336.277 318.59 326.755 324.088C317.233 329.586 306.26 333.733 294.55 336.53L294.99 337.145Z" stroke="#FFF6FC" stroke-width="1.88235" stroke-linejoin="round" stroke-dasharray="45.18 45.18" shape-rendering="crispEdges"/>
</g>
<path fill-rule="evenodd" clip-rule="evenodd" d="M450.796 330.8C471.78 330.8 488.791 321.063 488.792 309.05C488.792 309.05 488.792 309.05 488.792 309.05L488.792 291.596L473.471 291.596C467.142 288.897 459.295 287.3 450.796 287.3C442.298 287.3 434.451 288.897 428.122 291.596L412.801 291.596L412.801 309.05M450.796 330.8C429.812 330.8 412.801 321.063 412.801 309.05L450.796 330.8Z" fill="#5506D7"/>
<ellipse cx="450.796" cy="290.255" rx="37.9955" ry="21.7503" fill="#3B009B"/>
<path fill-rule="evenodd" clip-rule="evenodd" d="M450.796 306.158C471.78 306.158 488.791 296.42 488.792 284.408C488.792 284.408 488.792 284.408 488.792 284.408L488.792 266.953L473.471 266.953C467.142 264.254 459.295 262.657 450.796 262.657C442.298 262.657 434.451 264.254 428.122 266.953L412.801 266.953L412.801 284.408M450.796 306.158C429.812 306.158 412.801 296.42 412.801 284.408L450.796 306.158Z" fill="#5506D7"/>
<ellipse cx="450.796" cy="265.613" rx="37.9955" ry="21.7503" fill="#3B009B"/>
<path fill-rule="evenodd" clip-rule="evenodd" d="M450.796 281.592C471.781 281.592 488.792 271.854 488.792 259.842C488.792 259.834 488.792 259.826 488.792 259.818L488.792 242.387L473.47 242.387C467.141 239.689 459.295 238.092 450.796 238.092C442.298 238.092 434.451 239.689 428.122 242.387L412.801 242.387L412.801 259.842L412.801 259.842C412.801 271.854 429.812 281.592 450.796 281.592Z" fill="#660BFA"/>
<ellipse cx="450.796" cy="241.046" rx="37.9955" ry="21.7503" fill="#8C49FA"/>
<g clip-path="url(#clip2_6500_37761)">
<path fill-rule="evenodd" clip-rule="evenodd" d="M458.493 230.709C465.382 230.462 471.804 232.931 474.09 236.689C477.127 241.682 472.111 247.04 463.415 248.387L443.869 251.409C442.777 251.578 441.613 251.489 440.634 251.163C439.656 250.837 438.941 250.3 438.649 249.67L462.316 246.01C468.626 245.032 472.27 241.146 470.076 237.521C468.43 234.801 463.779 233 458.795 233.166C456.054 233.253 453.459 233.912 451.492 235.019C449.525 236.127 448.32 237.608 448.1 239.188C448.061 239.472 448.054 239.757 448.08 240.042L434.247 242.187C433.706 242.271 433.142 242.293 432.587 242.251C432.032 242.209 431.497 242.104 431.012 241.943C430.528 241.781 430.103 241.566 429.762 241.31C429.422 241.054 429.172 240.761 429.027 240.449L444.044 238.119C444.394 237.007 445.105 235.942 446.14 234.982L436.926 236.416C435.834 236.585 434.67 236.497 433.692 236.171C432.713 235.845 431.999 235.308 431.706 234.677L455.495 230.99C456.477 230.841 457.481 230.747 458.493 230.709ZM463.734 239.28C464.618 241.19 462.647 243.163 459.338 243.674L436.562 247.188C435.47 247.357 434.307 247.269 433.328 246.943C432.349 246.617 431.635 246.08 431.342 245.45L452.525 242.166C452.035 241.731 451.713 241.24 451.583 240.727C451.454 240.213 451.518 239.689 451.773 239.192C452.028 238.694 452.467 238.234 453.06 237.843C453.652 237.453 454.384 237.141 455.206 236.929C456.027 236.718 456.918 236.612 457.817 236.619C458.715 236.625 459.601 236.745 460.412 236.968C461.222 237.192 461.939 237.514 462.513 237.913C463.087 238.312 463.503 238.779 463.734 239.28ZM457.987 239.094C457.733 239.075 457.475 239.085 457.228 239.123C456.856 239.181 456.521 239.301 456.267 239.468C456.013 239.635 455.85 239.842 455.8 240.063C455.749 240.283 455.813 240.508 455.984 240.707C456.154 240.906 456.423 241.072 456.756 241.183C457.09 241.294 457.473 241.346 457.858 241.331C458.242 241.317 458.611 241.236 458.916 241.101C459.222 240.965 459.452 240.781 459.576 240.57C459.7 240.359 459.713 240.132 459.613 239.917C459.547 239.775 459.433 239.641 459.278 239.524C459.122 239.407 458.928 239.308 458.706 239.235C458.485 239.161 458.24 239.113 457.987 239.094Z" fill="white"/>
</g>
<g style="mix-blend-mode:multiply" filter="url(#filter2_f_6500_37761)">
<circle cx="444.216" cy="309.049" r="37.2154" fill="#9C84FF" style="mix-blend-mode:lighten"/>
</g>
<path d="M256.311 327.592C256.65 327.784 257.065 327.783 257.404 327.589L334.837 283.342C335.179 283.146 335.391 282.784 335.394 282.391C335.398 281.997 335.192 281.631 334.854 281.43L257.421 235.339C257.074 235.133 256.642 235.132 256.294 235.336L177.933 281.427C177.592 281.628 177.384 281.995 177.388 282.391C177.391 282.786 177.606 283.15 177.95 283.344L256.311 327.592Z" stroke="#6E00D8" stroke-width="2.21299" stroke-linejoin="round"/>
<g filter="url(#filter3_d_6500_37761)">
<path d="M217.443 277.563C207.113 271.6 201.31 263.512 201.31 255.078C201.31 246.645 207.113 238.557 217.443 232.593L256.391 210.108L295.34 232.593C305.669 238.557 311.473 246.645 311.473 255.078C311.473 263.512 305.669 271.6 295.34 277.563C285.01 283.526 271 286.877 256.391 286.877C241.783 286.877 227.773 283.526 217.443 277.563V277.563Z" fill="#0ACF83"/>
</g>
<path d="M256.922 259.947L178.79 215.829L256.922 169.872L334.129 215.829L256.922 259.947Z" fill="#6400CA"/>
<path d="M249.052 213.248C249.052 212.129 250.623 211.222 252.56 211.222L260.525 211.222C262.463 211.222 264.034 212.129 264.034 213.248L264.034 217.846C264.034 218.965 262.463 219.872 260.525 219.872L252.56 219.872C250.623 219.872 249.052 218.965 249.052 217.846V213.248Z" fill="#A950FF"/>
<path d="M267.363 202.639C267.363 201.541 268.905 200.65 270.808 200.65L278.899 200.65C280.802 200.65 282.345 201.541 282.345 202.639L282.345 207.31C282.345 208.409 280.802 209.3 278.899 209.3L270.808 209.3C268.905 209.3 267.363 208.409 267.363 207.31L267.363 202.639Z" fill="#A950FF"/>
<path d="M230.741 202.64C230.741 201.541 232.284 200.65 234.187 200.65L242.277 200.65C244.18 200.65 245.723 201.541 245.723 202.64L245.723 207.311C245.723 208.409 244.18 209.3 242.277 209.3L234.187 209.3C232.284 209.3 230.741 208.409 230.741 207.311L230.741 202.64Z" fill="#E9C1FF"/>
<path d="M242.215 211.222C244.153 211.222 245.724 212.129 245.724 213.247L245.724 217.846C245.724 218.965 244.153 219.872 242.215 219.872L234.25 219.872C232.313 219.872 230.742 218.965 230.742 217.846L230.742 213.247C230.742 212.129 232.313 211.222 234.25 211.222L242.215 211.222Z" fill="#CD88FF"/>
<path d="M242.277 221.794C244.18 221.794 245.723 222.684 245.723 223.783L245.723 228.454C245.723 229.553 244.18 230.443 242.277 230.443L234.187 230.443C232.284 230.443 230.741 229.553 230.741 228.454L230.741 223.783C230.741 222.684 232.284 221.794 234.187 221.794L242.277 221.794Z" fill="#A950FF"/>
<path d="M260.526 200.65C262.463 200.65 264.034 201.557 264.034 202.676V207.274C264.034 208.393 262.463 209.3 260.526 209.3L252.561 209.3C250.623 209.3 249.052 208.393 249.052 207.274L249.052 202.676C249.052 201.557 250.623 200.65 252.561 200.65L260.526 200.65Z" fill="#CD88FF"/>
<path d="M275.707 222.086C280.036 222.086 283.546 224.112 283.546 226.611C283.546 229.111 280.036 231.137 275.707 231.137C271.379 231.137 267.869 229.111 267.869 226.611C267.869 224.112 271.379 222.086 275.707 222.086Z" fill="#F62E76"/>
<path d="M256.543 259.732L256.543 307.796L179.287 262.256L179.287 215.547L256.543 259.732Z" fill="#4A0292"/>
<path d="M256.391 259.106L256.391 307.251L334.288 262.298L334.288 215.641L256.391 259.106Z" fill="#3C0077"/>
<g style="mix-blend-mode:multiply" filter="url(#filter4_f_6500_37761)">
<circle cx="292.124" cy="233.694" r="37.2154" fill="#9C84FF" style="mix-blend-mode:lighten"/>
</g>
<path d="M111.204 395.44L111.204 419.373L168.05 385.864L168.05 362.929L111.204 395.44Z" fill="#060409"/>
<path d="M111.316 394.978L111.316 419.399L7.28014 360.646L7.28014 337.32L111.316 394.978Z" fill="#14101D"/>
<path d="M110.925 395.598L168.416 363.135L64.0178 303.432L7.2078 337.247L110.925 395.598Z" fill="#1D1925" stroke="#819AF5" stroke-width="0.737664"/>
<g clip-path="url(#clip3_6500_37761)">
<path d="M59.5941 342.348L70.6767 336.693L93.2594 359.957C93.4914 360.196 93.5707 360.466 93.486 360.73C93.4013 360.993 93.157 361.236 92.7874 361.425L84.1624 365.826C83.8823 365.969 83.5396 366.075 83.1625 366.137C82.7854 366.199 82.3849 366.215 81.994 366.182C81.6031 366.149 81.2331 366.069 80.9145 365.949C80.596 365.829 80.3382 365.672 80.1623 365.491L59.1216 343.815C58.8894 343.576 58.8101 343.306 58.8947 343.043C58.9794 342.779 59.2243 342.536 59.5941 342.348Z" fill="url(#paint0_linear_6500_37761)"/>
<path d="M98.5624 345.797L80.988 354.764C80.8245 354.848 80.7138 354.954 80.6706 355.07C80.6273 355.186 80.6534 355.305 80.7454 355.414C80.8375 355.522 80.9912 355.613 81.1866 355.676C81.3821 355.739 81.6101 355.771 81.841 355.766L103.674 355.382C104.31 355.371 104.913 355.237 105.363 355.008L115.314 349.93L98.5624 345.797Z" fill="#0078D4"/>
<path d="M59.5941 342.348C59.2188 342.538 58.9724 342.784 58.8909 343.051C58.8095 343.317 58.8972 343.59 59.1412 343.829L80.1466 365.469C80.3174 365.654 80.5728 365.815 80.8914 365.939C81.2099 366.062 81.5821 366.145 81.9764 366.18C82.3708 366.214 82.7758 366.2 83.1571 366.138C83.5384 366.076 83.8848 365.968 84.1671 365.823L93.0147 361.309C93.2853 361.11 93.448 360.879 93.4862 360.638C93.5243 360.398 93.4365 360.156 93.2317 359.938L89.0763 355.64L103.81 355.378C104.393 355.35 104.94 355.22 105.358 355.01L115.272 349.951L98.4981 345.829L85.8253 352.299L70.7167 336.672L59.5941 342.348Z" fill="url(#paint1_linear_6500_37761)"/>
<path d="M74.9496 335.737C74.4817 335.619 73.9529 335.578 73.4376 335.622C72.9224 335.665 72.4466 335.789 72.0774 335.978L59.726 342.28C60.0953 342.092 60.571 341.967 61.0862 341.924C61.6015 341.881 62.1303 341.921 62.5982 342.04L105.078 352.777C105.433 352.866 105.741 352.998 105.977 353.16C106.212 353.323 106.369 353.512 106.433 353.711C106.497 353.911 106.467 354.115 106.346 354.308C106.225 354.5 106.015 354.675 105.735 354.818L118.087 348.515C118.367 348.372 118.576 348.197 118.698 348.005C118.819 347.813 118.849 347.608 118.784 347.409C118.72 347.209 118.564 347.02 118.328 346.858C118.092 346.695 117.784 346.564 117.429 346.474L74.9496 335.737Z" fill="url(#paint2_linear_6500_37761)"/>
</g>
<g style="mix-blend-mode:multiply" filter="url(#filter5_f_6500_37761)">
<circle cx="139.627" cy="365.711" r="37.2154" fill="#9C84FF" style="mix-blend-mode:lighten"/>
</g>
<defs>
<filter id="filter0_f_6500_37761" x="160.941" y="0.729065" width="221.637" height="221.637" filterUnits="userSpaceOnUse" color-interpolation-filters="sRGB">
<feFlood flood-opacity="0" result="BackgroundImageFix"/>
<feBlend mode="normal" in="SourceGraphic" in2="BackgroundImageFix" result="shape"/>
<feGaussianBlur stdDeviation="36.8015" result="effect1_foregroundBlur_6500_37761"/>
</filter>
<filter id="filter1_d_6500_37761" x="150.439" y="225.552" width="212.201" height="127.288" filterUnits="userSpaceOnUse" color-interpolation-filters="sRGB">
<feFlood flood-opacity="0" result="BackgroundImageFix"/>
<feColorMatrix in="SourceAlpha" type="matrix" values="0 0 0 0 0 0 0 0 0 0 0 0 0 0 0 0 0 0 127 0" result="hardAlpha"/>
<feOffset dy="5.64704"/>
<feGaussianBlur stdDeviation="2.82352"/>
<feComposite in2="hardAlpha" operator="out"/>
<feColorMatrix type="matrix" values="0 0 0 0 0.432266 0 0 0 0 0.00354165 0 0 0 0 0.846458 0 0 0 1 0"/>
<feBlend mode="screen" in2="BackgroundImageFix" result="effect1_dropShadow_6500_37761"/>
<feBlend mode="normal" in="SourceGraphic" in2="effect1_dropShadow_6500_37761" result="shape"/>
</filter>
<filter id="filter2_f_6500_37761" x="333.398" y="198.231" width="221.637" height="221.637" filterUnits="userSpaceOnUse" color-interpolation-filters="sRGB">
<feFlood flood-opacity="0" result="BackgroundImageFix"/>
<feBlend mode="normal" in="SourceGraphic" in2="BackgroundImageFix" result="shape"/>
<feGaussianBlur stdDeviation="36.8015" result="effect1_foregroundBlur_6500_37761"/>
</filter>
<filter id="filter3_d_6500_37761" x="125.82" y="140.897" width="261.143" height="227.749" filterUnits="userSpaceOnUse" color-interpolation-filters="sRGB">
<feFlood flood-opacity="0" result="BackgroundImageFix"/>
<feColorMatrix in="SourceAlpha" type="matrix" values="0 0 0 0 0 0 0 0 0 0 0 0 0 0 0 0 0 0 127 0" result="hardAlpha"/>
<feOffset dy="6.27861"/>
<feGaussianBlur stdDeviation="37.745"/>
<feComposite in2="hardAlpha" operator="out"/>
<feColorMatrix type="matrix" values="0 0 0 0 0.396 0 0 0 0 0 0 0 0 0 0.9 0 0 0 1 0"/>
<feBlend mode="normal" in2="BackgroundImageFix" result="effect1_dropShadow_6500_37761"/>
<feBlend mode="normal" in="SourceGraphic" in2="effect1_dropShadow_6500_37761" result="shape"/>
</filter>
<filter id="filter4_f_6500_37761" x="181.305" y="122.876" width="221.637" height="221.637" filterUnits="userSpaceOnUse" color-interpolation-filters="sRGB">
<feFlood flood-opacity="0" result="BackgroundImageFix"/>
<feBlend mode="normal" in="SourceGraphic" in2="BackgroundImageFix" result="shape"/>
<feGaussianBlur stdDeviation="36.8015" result="effect1_foregroundBlur_6500_37761"/>
</filter>
<filter id="filter5_f_6500_37761" x="28.8085" y="254.893" width="221.637" height="221.637" filterUnits="userSpaceOnUse" color-interpolation-filters="sRGB">
<feFlood flood-opacity="0" result="BackgroundImageFix"/>
<feBlend mode="normal" in="SourceGraphic" in2="BackgroundImageFix" result="shape"/>
<feGaussianBlur stdDeviation="36.8015" result="effect1_foregroundBlur_6500_37761"/>
</filter>
<linearGradient id="paint0_linear_6500_37761" x1="75.9839" y1="336.654" x2="85.4971" y2="365.389" gradientUnits="userSpaceOnUse">
<stop stop-color="#114A8B"/>
<stop offset="1" stop-color="#0669BC"/>
</linearGradient>
<linearGradient id="paint1_linear_6500_37761" x1="88.4628" y1="346.457" x2="87.9263" y2="348.823" gradientUnits="userSpaceOnUse">
<stop stop-opacity="0.3"/>
<stop offset="0.071" stop-opacity="0.2"/>
<stop offset="0.321" stop-opacity="0.1"/>
<stop offset="0.623" stop-opacity="0.05"/>
<stop offset="1" stop-opacity="0"/>
</linearGradient>
<linearGradient id="paint2_linear_6500_37761" x1="67.3878" y1="340.027" x2="98.5462" y2="367.76" gradientUnits="userSpaceOnUse">
<stop stop-color="#3CCBF4"/>
<stop offset="1" stop-color="#2892DF"/>
</linearGradient>
<clipPath id="clip0_6500_37761">
<rect width="47.9029" height="47.9029" fill="white" transform="matrix(0.866025 0.5 -2.20305e-08 1 259.809 51.0625)"/>
</clipPath>
<clipPath id="clip1_6500_37761">
<rect width="59.0131" height="59.0131" fill="white" transform="matrix(0.866025 -0.5 0.866025 0.5 85.8094 131.93)"/>
</clipPath>
<clipPath id="clip2_6500_37761">
<rect width="49.3308" height="49.3308" fill="white" transform="matrix(0.866025 0.5 -0.866025 0.5 451.611 215.38)"/>
</clipPath>
<clipPath id="clip3_6500_37761">
<rect width="59.0131" height="59.0131" fill="white" transform="matrix(0.890737 -0.454519 0.890737 0.454519 30.9146 348.167)"/>
</clipPath>
</defs>
</svg>
