<svg width="69" height="69" viewBox="0 0 69 69" fill="none" xmlns="http://www.w3.org/2000/svg">
<g filter="url(#filter0_d_5738_5559)">
<rect x="4.87305" y="2.98633" width="59" height="59" rx="7.5" fill="#111113" stroke="url(#paint0_linear_5738_5559)"/>
<path d="M25.25 23.25H21.75C20.8217 23.25 19.9315 23.6187 19.2751 24.2751C18.6187 24.9315 18.25 25.8217 18.25 26.75V40.75H21.75V33.75H25.25V40.75H28.75V26.75C28.75 25.8217 28.3813 24.9315 27.7249 24.2751C27.0685 23.6187 26.1783 23.25 25.25 23.25ZM25.25 30.25H21.75V26.75H25.25M37.5 23.25H30.5V40.75H34V33.75H37.5C38.4283 33.75 39.3185 33.3813 39.9749 32.7249C40.6313 32.0685 41 31.1783 41 30.25V26.75C41 25.8217 40.6313 24.9315 39.9749 24.2751C39.3185 23.6187 38.4283 23.25 37.5 23.25ZM37.5 30.25H34V26.75H37.5M48 26.75V37.25H49.75V40.75H42.75V37.25H44.5V26.75H42.75V23.25H49.75V26.75H48Z" fill="url(#paint1_linear_5738_5559)"/>
</g>
<defs>
<filter id="filter0_d_5738_5559" x="0.373047" y="0.277344" width="68" height="68.209" filterUnits="userSpaceOnUse" color-interpolation-filters="sRGB">
<feFlood flood-opacity="0" result="BackgroundImageFix"/>
<feColorMatrix in="SourceAlpha" type="matrix" values="0 0 0 0 0 0 0 0 0 0 0 0 0 0 0 0 0 0 127 0" result="hardAlpha"/>
<feOffset dy="2"/>
<feGaussianBlur stdDeviation="2"/>
<feComposite in2="hardAlpha" operator="out"/>
<feColorMatrix type="matrix" values="0 0 0 0 0 0 0 0 0 0 0 0 0 0 0 0 0 0 0.07 0"/>
<feBlend mode="normal" in2="BackgroundImageFix" result="effect1_dropShadow_5738_5559"/>
<feBlend mode="normal" in="SourceGraphic" in2="effect1_dropShadow_5738_5559" result="shape"/>
</filter>
<linearGradient id="paint0_linear_5738_5559" x1="13.4129" y1="13.625" x2="63.3662" y2="63.4955" gradientUnits="userSpaceOnUse">
<stop offset="0.015625" stop-color="#B010FB"/>
<stop offset="0.130208" stop-color="#DE97FF"/>
<stop offset="0.234375" stop-color="#A227DB"/>
<stop offset="0.505208" stop-color="#A227DB" stop-opacity="0"/>
<stop offset="0.765625" stop-color="#A610EC" stop-opacity="0.84"/>
</linearGradient>
<linearGradient id="paint1_linear_5738_5559" x1="22.9959" y1="26.4988" x2="35.3773" y2="48.7483" gradientUnits="userSpaceOnUse">
<stop offset="0.015625" stop-color="#F2D5FF"/>
<stop offset="1" stop-color="#CB5AFF"/>
</linearGradient>
</defs>
</svg>
