<svg width="160" height="58" viewBox="0 0 160 58" fill="none" xmlns="http://www.w3.org/2000/svg">
<path d="M27.5306 19.9348H27.221L19 37.6313H21.0037L27.2898 23.7867L33.7738 37.6313H35.6399L27.5306 19.9348Z" fill="white"/>
<path d="M49.3044 21.498C51.9874 21.498 54.335 22.9663 55.5905 25.1427L57.0352 24.3049C55.496 21.6276 52.6065 19.8225 49.3044 19.8225C44.3769 19.8225 40.3782 23.8386 40.3782 28.7874C40.3782 33.7362 44.3769 37.7522 49.3044 37.7522C52.6065 37.7522 55.4874 35.9471 57.0352 33.2698L55.5905 32.432C54.335 34.6085 51.9874 36.0767 49.3044 36.0767C45.297 36.0767 42.0465 32.812 42.0465 28.7874C42.0465 24.7627 45.297 21.498 49.3044 21.498Z" fill="white"/>
<path d="M90.7708 20.0298H88.8961V37.5449H90.7708V20.0298Z" fill="white"/>
<path d="M108.95 19.8225C104.022 19.8225 100.024 23.8386 100.024 28.7874C100.024 33.7362 104.022 37.7522 108.95 37.7522C113.877 37.7522 117.876 33.7362 117.876 28.7874C117.868 23.8386 113.877 19.8225 108.95 19.8225ZM108.95 36.0767C104.943 36.0767 101.692 32.812 101.692 28.7874C101.692 24.7627 104.943 21.498 108.95 21.498C112.957 21.498 116.208 24.7627 116.208 28.7874C116.208 32.812 112.957 36.0767 108.95 36.0767Z" fill="white"/>
<path d="M140.536 20.0298L133.192 28.2001L125.848 20.0298H125.392V37.5449H127.138V25.7213C127.138 25.5918 127.129 25.4536 127.129 25.3154V24.2186L128.178 25.35C128.187 25.3586 128.187 25.3586 128.195 25.3672L129.399 26.6627L129.597 26.8787L133.2 30.7565L138.205 25.3672C138.695 24.7713 139.409 23.7436 139.409 23.7436C139.409 23.7436 139.254 24.9786 139.254 25.73V37.5536H141V20.0298H140.536Z" fill="white"/>
<path d="M81.535 37.7522L76.8741 30.3765L74.6211 33.9348L73.6493 35.4808L75.0854 37.7522H81.535Z" fill="white"/>
<path d="M75.0854 19.8225L73.6493 22.094L74.6211 23.6313L75.6702 25.2982L76.8741 27.1982L81.535 19.8225H75.0854Z" fill="white"/>
<path d="M66.5806 14.7874H58.4542L67.303 28.7874L58.4542 42.7874H66.5806L75.4208 28.7874L66.5806 14.7874Z" fill="white"/>
</svg>
