<svg width="34" height="40" viewBox="0 0 34 40" fill="none" xmlns="http://www.w3.org/2000/svg">
<g clip-path="url(#clip0_18880_26246)">
<path d="M32.8084 30.5377C32.2159 31.9003 31.5146 33.1545 30.702 34.3076C29.5945 35.8796 28.6876 36.9677 27.9887 37.572C26.9053 38.5638 25.7445 39.0717 24.5015 39.1006C23.6092 39.1006 22.5331 38.8479 21.2804 38.3351C20.0236 37.8247 18.8686 37.572 17.8125 37.572C16.705 37.572 15.5171 37.8247 14.2465 38.3351C12.974 38.8479 11.9489 39.1151 11.1651 39.1416C9.97317 39.1921 8.78507 38.6697 7.59914 37.572C6.84221 36.9148 5.89545 35.7881 4.76127 34.1921C3.54439 32.4877 2.54394 30.5113 1.76017 28.258C0.920783 25.8242 0.5 23.4674 0.5 21.1857C0.5 18.5721 1.06733 16.3179 2.20369 14.4288C3.09676 12.9115 4.28487 11.7146 5.77187 10.8359C7.25888 9.9572 8.86559 9.50943 10.5959 9.48078C11.5426 9.48078 12.7842 9.77231 14.3271 10.3453C15.8656 10.9201 16.8535 11.2117 17.2866 11.2117C17.6104 11.2117 18.7078 10.8708 20.5682 10.1912C22.3275 9.56095 23.8123 9.29999 25.0287 9.40279C28.3249 9.66759 30.8012 10.9611 32.448 13.2914C29.5002 15.0694 28.0419 17.5598 28.0709 20.7546C28.0975 23.243 29.0044 25.3138 30.7867 26.958C31.5944 27.7212 32.4964 28.311 33.5 28.7298C33.2824 29.3581 33.0526 29.96 32.8084 30.5377ZM25.2488 0.92512C25.2488 2.87556 24.533 4.69669 23.1062 6.3823C21.3844 8.38617 19.3017 9.5441 17.0433 9.36138C17.0145 9.12739 16.9978 8.88112 16.9978 8.62233C16.9978 6.7499 17.8167 4.74604 19.2708 3.10761C19.9967 2.27804 20.9201 1.58827 22.0397 1.03802C23.157 0.495987 24.2138 0.19623 25.2077 0.144897C25.2367 0.405642 25.2488 0.666427 25.2488 0.92512Z" fill="white"/>
</g>
<defs>
<clipPath id="clip0_18880_26246">
<rect width="33" height="39" fill="white" transform="translate(0.5 0.144897)"/>
</clipPath>
</defs>
</svg>
