<svg width="131" height="25" viewBox="0 0 131 25" fill="none" xmlns="http://www.w3.org/2000/svg">
<g clip-path="url(#clip0_18880_37930)">
<path d="M0.333496 0.644897H9.85675C11.6707 0.644897 13.0312 1.0949 14.0389 1.8449C15.1475 2.7449 15.7521 4.0449 15.7521 5.6449C15.7521 7.4949 14.9963 8.6449 13.4847 9.3449V9.4449C15.5002 10.0949 16.6591 11.8949 16.6591 14.0449C16.6591 16.0949 15.8529 17.6949 14.5428 18.6949C13.4343 19.4949 12.0234 19.8449 10.1087 19.8449H0.333496V0.644897ZM8.89939 8.1449C9.90714 8.1449 10.663 7.5949 10.663 6.4449C10.663 5.3449 9.90714 4.7949 8.849 4.7949H5.57381V8.0949H8.89939V8.1449ZM9.35288 15.5949C10.5118 15.5949 11.3684 14.8949 11.3684 13.6449C11.3684 12.2949 10.4614 11.6949 9.35288 11.6949H5.62419V15.6449H9.35288V15.5949Z" fill="white"/>
<path d="M17.5156 0.644897H22.504V19.8949H17.5156V0.644897Z" fill="white"/>
<path d="M23.5117 13.0449C23.5117 8.69492 26.3334 5.79492 30.7171 5.79492C35.1009 5.79492 37.8722 8.74492 37.8722 13.0449C37.8722 17.3949 35.1009 20.2949 30.7171 20.2949C26.3334 20.2949 23.5117 17.3949 23.5117 13.0449ZM32.8838 13.0449C32.8838 10.6449 32.128 9.14492 30.6164 9.14492C29.1047 9.14492 28.3993 10.6449 28.3993 13.0449C28.3993 15.4449 29.1047 16.9949 30.6164 16.9949C32.128 16.9449 32.8838 15.4449 32.8838 13.0449Z" fill="white"/>
<path d="M38.4268 13.0449C38.4268 8.69492 41.2485 5.79492 45.6322 5.79492C50.0159 5.79492 52.7368 8.69492 52.7368 13.0449C52.7368 17.3949 49.9655 20.2949 45.5818 20.2949C41.2485 20.2949 38.4268 17.3949 38.4268 13.0449ZM47.7989 13.0449C47.7989 10.6449 47.043 9.14492 45.5314 9.14492C44.0198 9.14492 43.3144 10.6449 43.3144 13.0449C43.3144 15.4449 44.0198 16.9949 45.5314 16.9949C47.043 16.9449 47.7989 15.4449 47.7989 13.0449Z" fill="white"/>
<path d="M53.7441 6.14487H58.3798V8.19487H58.4806C59.3876 6.59487 60.6472 5.74487 62.6627 5.74487C64.4263 5.74487 65.7364 6.59487 66.3914 8.09487H66.4922C67.6007 6.29487 69.062 5.74487 70.7752 5.74487C74 5.74487 75.3604 8.09487 75.3604 11.2449V19.8449H70.5232V12.0949C70.5232 10.6949 70.0697 9.79487 68.8604 9.79487C67.6511 9.79487 67.0465 10.8949 67.0465 12.3949V19.8449H62.2093V12.0949C62.2093 10.6949 61.7558 9.79487 60.5465 9.79487C59.3372 9.79487 58.7325 10.8949 58.7325 12.3949V19.8449H53.7441V6.14487Z" fill="white"/>
<path d="M81.4575 18.0449H81.4071V19.8449H76.7715V0.644897H81.6087V7.5449H81.7095C82.6164 6.3449 83.8761 5.6949 85.6397 5.6949C89.1164 5.6949 91.1319 8.7949 91.1319 12.9449C91.1319 17.5949 88.9653 20.2949 85.3374 20.2949C83.8257 20.2949 82.2637 19.5949 81.4575 18.0449ZM86.1436 12.8949C86.1436 10.6949 85.3374 9.2449 83.8761 9.2449C82.3645 9.2449 81.4575 10.6949 81.4575 12.8949C81.4575 15.0949 82.4149 16.5449 83.8761 16.5449C85.3374 16.5449 86.1436 15.1449 86.1436 12.8949Z" fill="white"/>
<path d="M91.686 12.9949C91.686 8.69487 94.5581 5.74487 98.6899 5.74487C100.756 5.74487 102.318 6.39487 103.527 7.54487C105.14 9.09487 105.845 11.4949 105.795 14.2949H96.5232C96.7248 15.9949 97.531 16.8949 98.9922 16.8949C99.8488 16.8949 100.605 16.4949 100.907 15.5949H105.593C104.787 18.7449 102.318 20.2949 98.8411 20.2949C94.5581 20.2449 91.686 17.3449 91.686 12.9949ZM96.5232 11.5449H100.957C100.857 9.89487 99.9496 9.04487 98.7907 9.04487C97.4302 8.99487 96.6744 9.94487 96.5232 11.5449Z" fill="white"/>
<path d="M111.287 8.49491H111.388C112.396 6.59491 113.706 5.84491 115.368 5.84491C115.772 5.84491 116.023 5.89491 116.175 5.99491V10.1949H116.074C113.202 9.69491 111.539 11.0449 111.539 14.1449V19.8949H106.651V6.14491H111.287V8.49491Z" fill="white"/>
<path d="M116.679 19.8949H121.365C121.566 20.4949 122.171 21.0449 123.33 21.0449C124.892 21.0449 125.446 20.0949 125.446 18.6449V17.6449H125.345C124.59 18.5449 123.531 19.1949 122.02 19.1949C119.047 19.1949 116.427 16.9949 116.427 12.6949C116.427 8.74489 118.543 5.69489 121.768 5.69489C123.632 5.69489 124.741 6.44488 125.497 7.59488H125.597V6.09488H130.233V17.9949C130.233 20.1949 129.477 21.8949 128.318 22.8949C127.109 23.9449 125.396 24.3949 123.431 24.3949C119.702 24.4449 117.132 22.9449 116.679 19.8949ZM125.648 12.4949C125.648 10.7949 124.841 9.39489 123.431 9.39489C122.07 9.39489 121.214 10.5949 121.214 12.4949C121.214 14.3449 122.07 15.6449 123.431 15.6449C124.791 15.6449 125.648 14.2949 125.648 12.4949Z" fill="white"/>
</g>
<defs>
<clipPath id="clip0_18880_37930">
<rect width="130" height="24" fill="white" transform="translate(0.333496 0.644897)"/>
</clipPath>
</defs>
</svg>
