<svg width="105" height="41" viewBox="0 0 105 41" fill="none" xmlns="http://www.w3.org/2000/svg">
<path fill-rule="evenodd" clip-rule="evenodd" d="M0.531738 24.1996L1.95294 23.8591L3.37415 29.9976L0.531738 30.6223L0.531738 38.41L38.6144 38.41L38.6144 21.8125L32.817 23.1763L31.4527 17.0378L37.5343 15.6166L38.6144 20.2202V0.497803L0.531738 0.497803L0.531738 24.1996ZM24.8026 5.44304L29.9178 27.781C30.6568 30.9071 31.3958 31.8161 33.2713 31.8161C34.0103 31.8161 34.5788 31.703 36.1131 31.3613L36.5111 33.0673L21.6191 36.5345L21.278 34.8285C24.802 33.9764 25.5979 33.2947 25.5979 31.3051C25.5979 30.6223 25.5405 30.2249 25.1999 28.8611L20.0842 6.52315C15.7643 7.60327 13.6046 10.5588 13.6046 15.2198C13.6046 16.0157 13.6614 16.641 13.832 17.9485L12.1839 18.0622L10.0243 7.32014L34.1808 1.69273L36.9096 12.3217L35.3747 13.0038C33.6129 7.66067 30.8842 5.15991 26.9054 5.15991C26.2238 5.15824 25.7121 5.21564 24.8026 5.44304ZM14.4579 27.4388L13.0367 21.3003L19.1757 19.8797L20.5969 26.0182L14.4579 27.4388Z" fill="white"/>
<path fill-rule="evenodd" clip-rule="evenodd" d="M48.5598 34.4612C48.1735 36.8689 47.3559 37.7311 45.4978 37.7311C44.9031 37.7311 44.5609 37.5817 44.4572 37.2707C44.3982 37.0924 44.3831 36.9135 44.3831 36.2887L44.3831 30.2834C44.3831 29.4965 44.4277 29.2284 44.606 29.0501C44.7548 28.9163 45.0519 28.8271 45.3941 28.8271H45.6321V28.3512H41.811V28.8271H42.0044C42.346 28.8271 42.6437 28.9163 42.7925 29.0501C42.9708 29.2284 43.0154 29.5104 43.0154 30.2834V36.3333C43.0154 37.1063 42.9708 37.3895 42.7925 37.5678C42.6437 37.7016 42.3466 37.7907 42.0044 37.7907H41.811V38.2667H48.9165L49.0056 34.4752L48.5598 34.4612ZM55.2656 34.8029C55.1915 32.6031 54.1203 31.2203 52.5007 31.2203C50.9402 31.2203 49.8104 32.7212 49.8104 34.8029C49.8104 37.0473 50.9257 38.4746 52.6495 38.4746C53.7647 38.4746 54.5378 37.8944 55.1765 36.6014L54.73 36.364C54.2095 37.4636 53.6895 37.8944 52.8869 37.8944C51.7126 37.8944 51.2071 36.9726 51.1921 34.8029H55.2656ZM51.2077 34.2829C51.2227 32.7218 51.7427 31.7409 52.5754 31.7409C53.408 31.7409 53.899 32.6922 53.8834 34.2829H51.2077ZM58.3906 31.324L56.2198 31.4288V31.8891H56.3831C57.0079 31.8891 57.1416 32.097 57.1416 33.079V36.6014C57.1416 37.5823 57.0079 37.8052 56.3831 37.8052H56.1457V38.2667H59.386V37.8052H59.1475C58.5238 37.8052 58.3901 37.5973 58.3901 36.6014L58.3906 31.324ZM57.6778 28.277C57.2163 28.277 56.8451 28.6343 56.8451 29.0946C56.8451 29.5411 57.2163 29.9123 57.6627 29.9123C58.1231 29.9123 58.4803 29.555 58.4803 29.0946C58.4803 28.6482 58.1231 28.277 57.6778 28.277ZM64.4996 31.4288H64.0531C64.0085 31.6366 63.9194 31.7554 63.8313 31.7554C63.7717 31.7554 63.6976 31.7258 63.6084 31.6812C63.1915 31.4288 62.6865 31.2794 62.2106 31.2794C61.0218 31.2794 60.2042 32.0524 60.2042 33.1526C60.2042 34.119 60.7537 34.7583 61.9425 35.1445C62.9089 35.4711 62.9245 35.4711 63.2511 35.679C63.6374 35.9175 63.8609 36.3038 63.8609 36.7351C63.8609 37.419 63.3559 37.939 62.6709 37.939C62.0623 37.939 61.4978 37.6419 61.1255 37.137C60.888 36.8243 60.7392 36.4531 60.5464 35.7548H60.1295V38.2673H60.5464L60.591 38.1029C60.6495 37.91 60.7392 37.8058 60.8434 37.8058C60.873 37.8058 60.9326 37.8208 61.0067 37.8654C61.7352 38.2962 62.0768 38.415 62.6709 38.415C63.9796 38.415 64.9014 37.5082 64.9014 36.2302C64.9014 35.5608 64.6489 35.0403 64.1133 34.6245C63.7867 34.372 63.3849 34.1937 62.4335 33.881C61.4972 33.584 61.2001 33.3159 61.2001 32.7513C61.2001 32.1572 61.6761 31.7108 62.3148 31.7108C63.2355 31.7108 63.8007 32.3205 64.0531 33.584H64.4996V31.4288ZM67.7132 31.9337H69.7196V31.4288H67.7132V28.8567H67.2974C67.119 30.6112 66.6877 31.2058 65.3946 31.5179V31.9337H66.4647V36.0519C66.4647 37.0924 66.5539 37.5238 66.8805 37.91C67.148 38.2366 67.6089 38.415 68.1735 38.415C69.3478 38.415 69.9425 37.6575 69.9425 36.1996V35.9175H69.4526V36.1254C69.4526 37.1816 69.111 37.7907 68.5458 37.7907C68.2042 37.7907 67.921 37.5678 67.8163 37.2106C67.7421 36.9274 67.7126 36.661 67.7126 36.0513L67.7132 31.9337ZM75.1926 38.3704L77.2447 38.2667V37.8052H77.0803C76.4566 37.8052 76.3229 37.5823 76.3229 36.6014V31.324L74.0935 31.4288V31.8891H74.3153C74.9401 31.8891 75.0739 32.097 75.0739 33.079V34.9221C75.0739 35.7693 74.9691 36.3043 74.6877 36.8098C74.375 37.404 73.8996 37.7317 73.3946 37.7317C73.2359 37.7332 73.0803 37.6872 72.9479 37.5998C72.8154 37.5123 72.7121 37.3872 72.6511 37.2407C72.5174 36.9586 72.4728 36.6616 72.4728 36.0223V31.324L70.302 31.4288V31.8891H70.4664C71.09 31.8891 71.2238 32.097 71.2238 33.079V35.6361C71.2238 36.7508 71.313 37.2111 71.595 37.6871C71.8781 38.163 72.3831 38.4155 73.0374 38.4155C74.0038 38.4155 74.6876 37.895 75.1926 36.7357V38.3704ZM82.6731 38.2667H84.8428V37.8052H84.6796C84.0559 37.8052 83.9221 37.5973 83.9221 36.6014V34.2088C83.9221 32.9146 83.8174 32.4091 83.4462 31.9198C83.1335 31.5179 82.6135 31.28 82.0038 31.28C81.097 31.28 80.4583 31.786 80.0565 32.8266V31.3245L77.9319 31.4293V31.8897H78.0952C78.7189 31.8897 78.8526 32.0976 78.8526 33.0796V36.6019C78.8526 37.5829 78.7189 37.8058 78.0952 37.8058H77.8567V38.2673H81.097V37.8058H80.8596C80.2348 37.8058 80.101 37.5979 80.101 36.6019V34.9667C80.101 33.9557 80.2058 33.361 80.4733 32.8115C80.7554 32.2464 81.2157 31.9198 81.6917 31.9198C82.0043 31.9198 82.2719 32.0831 82.4502 32.3651C82.6286 32.6621 82.6731 32.9748 82.6731 33.837V38.2667ZM90.0183 31.0113C89.9671 31.0909 89.9412 31.1842 89.9441 31.2788C89.9441 31.5759 90.1671 31.7994 90.4937 31.7994C90.8364 31.7994 91.0739 31.5469 91.0739 31.2053C91.0739 30.7895 90.7473 30.4924 90.2858 30.4924C89.7206 30.4924 89.3344 30.8486 89.2157 31.4884C88.9186 31.324 88.4722 31.2209 88.0269 31.2209C86.6882 31.2209 85.5886 32.2308 85.5886 33.4798C85.5886 34.3726 86.1537 35.0854 87.1341 35.4577C86.2719 35.6952 85.9007 36.0519 85.9007 36.617C85.9007 37.2267 86.2719 37.5684 87.1341 37.7612C85.9898 37.9841 85.3205 38.5493 85.3205 39.3067C85.3205 40.2887 86.3471 40.943 87.8775 40.943C89.7206 40.943 91.0889 39.961 91.0889 38.6234C91.0889 38.0443 90.8364 37.5979 90.3454 37.3008C89.9285 37.0484 89.4091 36.9146 88.1902 36.7357C87.1942 36.5875 86.9111 36.4537 86.9111 36.1416C86.9111 35.8445 87.1942 35.7247 87.9673 35.6506C88.6355 35.606 88.9337 35.5168 89.3205 35.3089C90.0489 34.9071 90.4797 34.1943 90.4797 33.3766C90.4797 32.7073 90.2412 32.2469 89.632 31.7264C89.6181 31.2956 89.7658 30.9979 89.9893 31.0124H90.0183V31.0113ZM87.8491 37.8498C88.5915 37.939 88.6807 37.9546 88.859 37.9836C89.632 38.1619 89.9441 38.4595 89.9441 39.0397C89.9441 39.8713 89.1867 40.4515 88.101 40.4515C87.1051 40.4515 86.4357 39.9465 86.4357 39.203C86.4363 38.5783 86.8977 38.1469 87.8491 37.8498ZM88.0124 31.6517C88.8005 31.6517 89.1867 32.2614 89.1867 33.4948C89.1867 34.6541 88.8295 35.2036 88.057 35.2036C87.2985 35.2036 86.8827 34.595 86.8827 33.4948C86.8827 32.3199 87.2985 31.6517 88.0124 31.6517ZM96.9939 34.8029C96.9197 32.6031 95.8497 31.2203 94.2289 31.2203C92.6678 31.2203 91.5381 32.7212 91.5381 34.8029C91.5381 37.0473 92.6539 38.4746 94.3783 38.4746C95.493 38.4746 96.266 37.8944 96.9047 36.6014L96.4594 36.364C95.9388 37.4636 95.4188 37.8944 94.6152 37.8944C93.4409 37.8944 92.9354 36.9726 92.9203 34.8029H96.9939ZM92.9359 34.2829C92.951 32.7218 93.4715 31.7409 94.3031 31.7409C95.1357 31.7409 95.6267 32.6922 95.6117 34.2829H92.9359ZM102.631 38.2667H104.802V37.8052H104.639C104.014 37.8052 103.88 37.5973 103.88 36.6014V34.2088C103.88 32.9146 103.776 32.4091 103.404 31.9198C103.092 31.5179 102.572 31.28 101.962 31.28C101.055 31.28 100.416 31.786 100.015 32.8266V31.3245L97.8901 31.4293V31.8897H98.0534C98.6781 31.8897 98.8108 32.0976 98.8108 33.0796V36.6019C98.8108 37.5829 98.6781 37.8058 98.0534 37.8058H97.8159V38.2673H101.055V37.8058H100.818C100.193 37.8058 100.06 37.5979 100.06 36.6019V34.9667C100.06 33.9557 100.164 33.361 100.432 32.8115C100.714 32.2464 101.175 31.9198 101.651 31.9198C101.963 31.9198 102.23 32.0831 102.408 32.3651C102.587 32.6621 102.631 32.9748 102.631 33.837V38.2667ZM46.0774 14.8765H46.3003C47.7422 14.8765 48.4115 15.6941 48.6935 17.8643L49.1394 17.8348L49.0803 14.4011L41.7514 14.4011L41.6772 17.8348L42.1081 17.8643C42.1822 17.0618 42.2714 16.6159 42.4648 16.1695C42.8064 15.3519 43.5204 14.8765 44.3976 14.8765H44.7097V22.3827C44.7097 23.1707 44.6651 23.4388 44.4868 23.6172C44.338 23.7509 44.0409 23.8401 43.6987 23.8401H43.3571V24.3161H47.4301V23.8401H47.0884C46.7468 23.8401 46.4497 23.7509 46.3003 23.6172C46.122 23.4388 46.0774 23.1707 46.0774 22.3827V14.8765ZM54.4469 20.8522C54.3717 18.6519 53.3016 17.2697 51.6814 17.2697C50.1209 17.2697 48.9906 18.7711 48.9906 20.8522C48.9906 23.0966 50.1053 24.5239 51.8302 24.5239C52.9449 24.5239 53.7174 23.9437 54.3577 22.6507L53.9113 22.4133C53.3908 23.5129 52.8708 23.9438 52.0682 23.9438C50.8939 23.9438 50.3884 23.0219 50.3733 20.8522H54.4469ZM50.3884 20.3317C50.4034 18.7711 50.9234 17.7897 51.7561 17.7897C52.5888 17.7897 53.0792 18.741 53.0636 20.3317H50.3884ZM57.2291 14.2968L55.0583 14.4011V14.862H55.2227C55.8464 14.862 55.9801 15.0704 55.9801 16.0513V22.6507C55.9801 23.6467 55.8464 23.8546 55.2227 23.8546H54.9842V24.3161L58.2245 24.3161V23.8546H57.9871C57.3623 23.8546 57.2286 23.6467 57.2286 22.6507L57.2291 14.2968ZM64.1886 20.8522C64.1133 18.6519 63.0432 17.2697 61.4236 17.2697C59.8625 17.2697 58.7328 18.7711 58.7328 20.8522C58.7328 23.0966 59.8475 24.5239 61.5719 24.5239C62.6866 24.5239 63.4596 23.9437 64.0994 22.6507L63.653 22.4133C63.1324 23.5129 62.6124 23.9438 61.8099 23.9438C60.6356 23.9438 60.1301 23.0219 60.115 20.8522H64.1886ZM60.1306 20.3317C60.1445 18.7711 60.6651 17.7897 61.4978 17.7897C62.3304 17.7897 62.8203 18.741 62.8064 20.3317H60.1306ZM71.5794 24.3161V23.8546H71.4596C70.9836 23.8546 70.7021 23.6316 70.2557 22.9183L68.4572 20.0491L70.0924 18.5928C70.7021 18.0427 70.8944 17.9385 71.3258 17.9385H71.4752V17.4775H68.5469V17.9385H68.7699C69.2152 17.9385 69.4086 18.0427 69.4086 18.2656C69.4086 18.459 69.2453 18.7115 68.9777 18.9495L66.9702 20.6739V14.2968L64.8005 14.4011V14.862H64.9638C65.5875 14.862 65.7212 15.0704 65.7212 16.0513V22.6507C65.7212 23.6316 65.5875 23.8546 64.9638 23.8546H64.7253V24.3161H68.0108V23.8546H67.7288C67.104 23.8546 66.9702 23.6467 66.9702 22.6507V21.3867L67.5655 20.8661L69.7056 24.3155L71.5794 24.3161ZM74.8365 17.2697C72.9934 17.2697 71.7895 18.697 71.7895 20.9113C71.7895 23.0676 72.9934 24.5239 74.7919 24.5239C76.6054 24.5239 77.8093 23.0676 77.8093 20.8968C77.8093 18.741 76.6054 17.2697 74.8365 17.2697ZM74.7768 17.7451C75.3124 17.7451 75.7728 18.0722 76.0264 18.6374C76.2638 19.1574 76.368 19.8707 76.368 20.8968C76.368 23.0074 75.8475 24.048 74.7919 24.048C73.7368 24.048 73.2308 23.0074 73.2308 20.8661C73.2308 19.8707 73.3356 19.1718 73.5724 18.6368C73.811 18.1018 74.2869 17.7451 74.7768 17.7451ZM86.4329 24.3161H88.6037V23.8546H88.4404C87.8157 23.8546 87.6819 23.6316 87.6819 22.6507V19.975C87.6819 19.0386 87.5927 18.5482 87.3107 18.1174C87.0137 17.6269 86.4485 17.3293 85.8098 17.3293C84.9922 17.3293 84.397 17.7607 83.9656 18.682C83.5944 17.7456 83.0588 17.3293 82.2273 17.3293C81.4687 17.3293 80.7698 17.8348 80.4878 18.5933V17.3744L78.4067 17.4787V17.9396H78.57C79.1798 17.9396 79.3286 18.1776 79.3286 19.1289V22.6518C79.3286 23.6183 79.1792 23.8557 78.57 23.8557H78.3326V24.3172H81.544V23.8557H81.335C80.6963 23.8557 80.5776 23.6629 80.5776 22.6518V20.7937C80.5776 19.6339 80.6361 19.2031 80.8746 18.7126C81.1132 18.2372 81.4843 17.9697 81.9001 17.9697C82.2418 17.9697 82.5098 18.148 82.6731 18.4601C82.8515 18.8018 82.8821 19.0994 82.8821 20.3629V24.3177H85.0964V23.8562H84.8886C84.2638 23.8562 84.1311 23.6484 84.1311 22.6524V20.7943C84.1311 19.5609 84.1897 19.1891 84.4427 18.7132C84.6963 18.2378 85.0675 17.9702 85.4832 17.9702C85.8109 17.9702 86.0773 18.1335 86.2418 18.4311C86.3755 18.6987 86.4346 19.1891 86.4346 20.1405V24.3161H86.4329ZM43.0154 8.432C43.0154 9.20503 42.9708 9.48759 42.7925 9.66594C42.6587 9.7997 42.3466 9.88888 42.0044 9.88888H41.811V10.3648H45.3339C46.7757 10.3648 47.8759 9.97805 48.708 9.14539C49.6444 8.23861 50.1499 6.91605 50.1499 5.38449C50.1499 4.04689 49.7486 2.88707 48.9906 1.98029C48.1133 0.924697 46.9691 0.449291 45.3339 0.449291L41.811 0.449291V0.925256H42.0044C42.346 0.925256 42.6582 1.01443 42.7925 1.14819C42.9708 1.32654 43.0154 1.6091 43.0154 2.38213V8.432ZM44.3831 2.24893C44.3831 1.62415 44.4126 1.44581 44.5615 1.26746C44.7398 1.07406 45.082 0.970398 45.6315 0.970398C47.7126 0.970398 48.5598 2.24893 48.5598 5.38505C48.5598 8.61091 47.7422 9.8298 45.6014 9.8298C44.5609 9.8298 44.3825 9.62135 44.3825 8.49219L44.3831 2.24893ZM56.3976 6.901C56.3235 4.7012 55.2534 3.31845 53.6326 3.31845C52.0721 3.31845 50.9424 4.81991 50.9424 6.901C50.9424 9.14539 52.0571 10.5727 53.7814 10.5727C54.8961 10.5727 55.6691 9.9931 56.3079 8.70008L55.8625 8.4621C55.342 9.56228 54.822 9.9931 54.0183 9.9931C52.8446 9.9931 52.3391 9.07127 52.324 6.901L56.3976 6.901ZM52.3402 6.38101C52.3547 4.82047 52.8752 3.839 53.7084 3.839C54.54 3.839 55.031 4.79038 55.0159 6.38101L52.3402 6.38101ZM61.8723 10.4691L63.9233 10.3648V9.90392H63.76C63.1352 9.90392 63.0026 9.68099 63.0026 8.70008V3.42267L60.7721 3.5269V3.98781H60.995C61.6198 3.98781 61.7525 4.19625 61.7525 5.17716V7.02083C61.7525 7.86798 61.6488 8.40302 61.3662 8.90852C61.0547 9.5032 60.5793 9.83035 60.0732 9.83035C59.9147 9.83183 59.7593 9.78594 59.6271 9.69856C59.4948 9.61118 59.3917 9.48629 59.3308 9.3399C59.1971 9.05733 59.1525 8.76027 59.1525 8.12101V3.42379L56.9817 3.52801V3.98893H57.145C57.7697 3.98893 57.9035 4.19737 57.9035 5.17828V7.73478C57.9035 8.84945 57.9927 9.31036 58.2747 9.78633C58.5567 10.2623 59.0628 10.5148 59.7171 10.5148C60.6824 10.5148 61.3662 9.99421 61.8723 8.83496V10.4691ZM66.4385 4.0324H68.4449V3.5269H66.4385V0.95535H66.0216C65.8433 2.70928 65.413 3.30396 64.1189 3.61607V4.0324H65.1901V8.14999C65.1901 9.19053 65.2793 9.62191 65.6059 10.0081C65.8734 10.3353 66.3343 10.5136 66.8989 10.5136C68.0732 10.5136 68.6679 9.75567 68.6679 8.29824V8.01623H68.178V8.22467C68.178 9.28027 67.8352 9.88943 67.2701 9.88943C66.9284 9.88943 66.6464 9.6665 66.5416 9.30925C66.4675 9.02724 66.438 8.75916 66.438 8.14943L66.4385 4.0324ZM73.3378 3.5269H72.8925C72.8479 3.73534 72.7587 3.85405 72.6695 3.85405C72.6099 3.85405 72.5358 3.82451 72.4466 3.77993C72.0249 3.52371 71.5422 3.38515 71.0488 3.37864C69.86 3.37864 69.0424 4.15167 69.0424 5.25129C69.0424 6.21715 69.5919 6.85641 70.7807 7.24321C71.7471 7.57036 71.7628 7.57036 72.0894 7.77825C72.4756 8.01623 72.6991 8.40246 72.6991 8.83384C72.6991 9.51769 72.1941 10.0377 71.5103 10.0377C70.9006 10.0377 70.336 9.74006 69.9637 9.23512C69.7263 8.92301 69.5774 8.55127 69.3846 7.85293H68.9677V10.3654H69.3846L69.4292 10.2015C69.4877 10.0081 69.5774 9.90448 69.6817 9.90448C69.7112 9.90448 69.7708 9.91897 69.845 9.96412C70.5734 10.3949 70.915 10.5142 71.5103 10.5142C72.8178 10.5142 73.7396 9.60742 73.7396 8.32889C73.7396 7.66009 73.4871 7.13954 72.9515 6.72377C72.625 6.47074 72.2231 6.29239 71.2717 5.98084C70.3354 5.68322 70.0384 5.4157 70.0384 4.85112C70.0384 4.257 70.5143 3.81058 71.153 3.81058C72.0749 3.81058 72.6389 4.42031 72.8925 5.68378H73.3378V3.5269ZM79.197 8.432C78.7802 9.50264 78.215 10.0076 77.4727 10.0076C76.3429 10.0076 75.7928 9.01163 75.7928 6.91605C75.7928 4.8645 76.3719 3.839 77.5172 3.839C78.1114 3.839 78.6024 4.13606 78.8247 4.65661C78.7662 4.61203 78.7367 4.61203 78.6765 4.61203C78.2747 4.61203 77.9776 4.95367 77.9776 5.37C77.9776 5.83092 78.3042 6.17257 78.7361 6.17257C79.226 6.17257 79.5833 5.78633 79.5833 5.23569C79.5833 4.1656 78.6169 3.31845 77.3835 3.31845C75.5994 3.31845 74.351 4.80487 74.351 6.91605C74.351 9.08631 75.5253 10.5727 77.2347 10.5727C78.38 10.5727 79.1374 9.96356 79.673 8.6254L79.197 8.432ZM84.6868 10.3648H86.8565V9.90392H86.6932C86.0695 9.90392 85.9358 9.69604 85.9358 8.70008V6.30688C85.9358 5.01386 85.831 4.5379 85.4598 4.01791C85.1628 3.60158 84.6567 3.3792 84.0325 3.3792C83.1703 3.3792 82.5901 3.79553 82.1147 4.76139V0.346741L79.945 0.450963V0.911878H80.1083C80.7319 0.911878 80.8657 1.12032 80.8657 2.10123V8.70119C80.8657 9.6821 80.7319 9.90504 80.1083 9.90504H79.8697V10.366H83.1101V9.90504H82.8727C82.2479 9.90504 82.1141 9.69715 82.1141 8.70119V7.06597C82.1141 6.04048 82.2189 5.46085 82.4864 4.9102C82.7685 4.34562 83.2288 4.01846 83.7198 4.01846C84.0325 4.01846 84.3 4.16727 84.4633 4.46433C84.6417 4.73185 84.6862 5.07406 84.6862 5.93625V10.3648H84.6868ZM92.8345 6.901C92.7604 4.7012 91.6903 3.31845 90.0695 3.31845C88.5084 3.31845 87.3787 4.81991 87.3787 6.901C87.3787 9.14539 88.4934 10.5727 90.2189 10.5727C91.3336 10.5727 92.1066 9.9931 92.7453 8.70008L92.2989 8.4621C91.7794 9.56228 91.2583 9.9931 90.4558 9.9931C89.2815 9.9931 88.776 9.07127 88.7609 6.901L92.8345 6.901ZM88.7765 6.38101C88.7916 4.82047 89.3121 3.839 90.1437 3.839C90.9763 3.839 91.4673 4.79038 91.4523 6.38101L88.7765 6.38101Z" fill="white"/>
</svg>
