<svg width="74" height="26" viewBox="0 0 74 26" fill="none" xmlns="http://www.w3.org/2000/svg">
<g clip-path="url(#clip0_18963_53498)">
<path d="M18.9878 1.55271C20.7732 1.55271 22.2208 2.99975 22.2208 4.78535C22.2208 6.57128 20.7732 8.01835 18.9878 8.01835H4.20322C2.41764 8.01835 0.970215 6.57128 0.970215 4.78535C0.970215 2.99975 2.41764 1.55271 4.20322 1.55271H18.9878Z" fill="white"/>
<path d="M17.5018 10.0238C19.2874 10.0238 20.7348 11.4711 20.7348 13.2568C20.7348 15.0422 19.2874 16.4895 17.5018 16.4895H9.08681C8.36919 16.4921 7.78162 17.0598 7.75416 17.7702V21.9838C7.75416 23.7692 6.30674 25.2165 4.5217 25.2165C2.73611 25.2165 1.2887 23.7692 1.2887 21.9838V14.8133C1.2887 12.1684 3.43292 10.0238 6.07795 10.0238H17.5018Z" fill="white"/>
<path d="M23.6888 4.1042C23.6888 2.3188 25.1362 0.871338 26.9216 0.871338C28.7074 0.871338 30.1546 2.3188 30.1546 4.1042V22.0066C30.1546 23.7922 28.7074 25.2396 26.9216 25.2396C25.1362 25.2396 23.6888 23.7922 23.6888 22.0066V4.1042Z" fill="white"/>
<path d="M63.4783 18.8274L64.7776 18.824C65.0431 18.824 65.2585 18.6084 65.2585 18.3431C65.2596 18.2756 65.2485 18.2156 65.2244 18.1588L60.3936 10.0411L52.8467 23.1087C52.2638 24.1191 51.217 24.6955 50.1306 24.7244C50.0987 24.7289 50.0665 24.7313 50.0327 24.7313H37.7509C35.1056 24.7313 32.9614 22.5869 32.9614 19.942V4.1042C32.9614 2.3188 34.4088 0.871338 36.1944 0.871338C37.9797 0.871338 39.4273 2.3188 39.4273 4.1042V16.9326C39.4295 17.6506 39.997 18.2384 40.708 18.2653H47.5784C47.7552 18.2109 48.2955 18.0272 48.4601 17.7713L57.0898 2.83272C57.7446 1.70844 58.9627 0.951427 60.3569 0.951427C61.7519 0.951427 62.9703 1.70956 63.6222 2.83624L72.0312 16.9544C72.6572 17.7697 73.0294 18.7896 73.0294 19.8966C73.0294 22.5667 70.8647 24.7313 68.1949 24.7313H58.3928C56.762 24.7313 55.4409 23.4094 55.4409 21.7789C55.4409 20.1489 56.762 18.8274 58.3928 18.8274H63.4783Z" fill="white"/>
</g>
<defs>
<clipPath id="clip0_18963_53498">
<rect width="72.0598" height="24.4042" fill="white" transform="translate(0.970215 0.871338)"/>
</clipPath>
</defs>
</svg>
