<svg width="138" height="24" viewBox="0 0 138 24" fill="none" xmlns="http://www.w3.org/2000/svg">
<path d="M1.91455 2.02057V8.45315H28.5784V2.02057H1.91455ZM1.91455 14.8366V21.2692H28.5784V14.8366H1.91455Z" fill="#BBBCBE"/>
<path d="M43.1131 2.02057C41.0341 2.02057 39.6087 2.5175 38.6524 3.24816C37.5277 4.08685 37.0486 5.22017 37.0486 6.34169C37.0486 7.30806 37.3713 8.16835 37.8505 8.84598C38.6223 9.91644 40.8356 11.0812 42.4615 11.8904C44.0052 12.6466 45.4667 13.2575 46.3208 14.2474C46.8801 14.8975 47.1728 15.5614 47.1728 16.6044C47.1728 17.7789 46.6435 18.6765 45.8196 19.3051C44.9916 19.9336 43.8368 20.2871 42.6119 20.2871C39.7891 20.2871 38.3036 19.4701 37.4495 16.2606L36.4973 16.5062C36.8461 17.6532 37.1568 18.7669 37.3994 20.3854C38.9411 20.9333 40.8156 21.2692 42.3613 21.2692C44.733 21.2692 46.5072 20.5896 47.6239 19.5997C48.6363 18.7119 49.1275 17.5197 49.1275 16.1624C49.1275 14.8838 48.5341 13.6955 47.9747 13.0689C46.828 11.7902 45.2923 11.1656 43.2133 10.1227C41.5353 9.28792 40.4948 8.71242 39.8052 8.06032C39.3 7.59089 38.903 6.72863 38.903 5.99797C38.903 5.18874 39.2158 4.50718 39.8553 3.98472C40.6011 3.36208 41.6817 3.00264 43.0128 3.00264C46.1584 3.00264 46.7137 3.94936 47.273 6.63632L48.2253 6.3908C47.9847 5.21427 47.7321 3.82758 47.5738 2.75712C46.2125 2.23859 44.8192 2.02057 43.1131 2.02057ZM81.2042 2.36429V3.14995C83.199 3.14995 83.3594 3.28352 83.3594 5.16321V18.1757C83.3594 20.0279 83.199 20.1398 81.2042 20.1398V20.8764H89.875C92.6456 20.8764 94.1993 20.2459 95.2378 19.256C96.3024 18.2641 96.7414 16.9756 96.7414 15.6714C96.7414 14.2356 95.9976 13.2084 95.0373 12.4797C93.8926 11.6154 92.3609 11.1578 90.6268 11.1048V11.0557C92.3048 10.82 93.4375 10.2858 94.2354 9.58262C95.2218 8.72036 95.5385 7.57723 95.5385 6.5873C95.5385 5.25561 94.8469 4.22246 93.8344 3.54287C92.395 2.60007 90.8212 2.36437 88.3714 2.36437L81.2042 2.36429ZM70.1277 2.80623C68.9529 2.80623 68.0568 3.23834 67.4213 3.83741C66.5411 4.7252 66.1181 5.92922 66.1181 7.52018V9.1406H64.1635V9.97537H66.1181V18.4703C66.1181 20.0652 65.9778 20.238 64.1133 20.238V20.8764H70.0776V20.238C68.0788 20.238 67.9726 20.0869 67.9726 18.5194V9.97537H71.3306V9.1406H67.9726V7.61839C67.9726 5.76423 68.2913 4.80573 68.8246 4.18113C69.1955 3.7883 69.5944 3.59189 70.1277 3.59189C70.9537 3.59189 71.2885 4.14578 71.5812 4.72127C71.8759 5.29677 72.1486 5.85066 72.7841 5.85066C73.2672 5.85066 73.5359 5.58943 73.5359 5.065C73.5359 4.59557 73.155 3.94151 72.3831 3.44458C71.8458 3.10478 71.2183 2.80623 70.1277 2.80623ZM126.964 2.80623C125.979 3.40529 125.061 3.70188 123.756 3.88651V4.42665C125.195 4.42665 125.36 4.63289 125.36 6.14528V18.5194C125.36 20.0318 125.302 20.238 123.756 20.238V20.8764H128.718V20.238C127.252 20.238 127.214 20.0318 127.214 18.5194V15.7696L128.668 14.2965L133.028 20.8764H136.086V20.238C135.288 20.2636 134.668 20.1712 134.081 19.256L130.021 13.2162L132.828 10.5646C133.439 9.98912 133.862 9.80441 134.632 9.77895V9.1406H130.673V9.77895C131.954 9.77895 131.791 10.2071 131.074 10.8592L127.264 14.4929H127.214V2.95354L126.964 2.80623ZM86.116 3.39547H88.6721C90.5386 3.39547 91.7314 3.77652 92.4812 4.37755C93.0646 4.84698 93.4836 5.89583 93.4836 6.78363C93.4836 8.03479 93.0506 8.95598 92.2807 9.58254C91.3184 10.3662 89.8068 10.7119 87.9704 10.7119H85.3141V4.27934C85.3141 3.57421 85.4263 3.39547 86.116 3.39547ZM75.6409 5.85066C75.2961 8.58868 74.1634 9.22899 72.4834 9.38612V9.97537H74.4882V18.5194C74.4882 20.5562 75.7372 21.171 77.0944 21.171C78.185 21.171 79.009 20.8371 79.7006 20.238L79.2997 19.6488C78.7644 20.0416 78.2632 20.2871 77.6457 20.2871C76.7155 20.2871 76.3426 19.6449 76.3426 18.4212V9.97537H79.1493V9.1406H76.3426V5.85066H75.6409ZM56.8961 8.84598C55.19 8.84598 53.925 9.3272 52.8865 10.27C51.8219 11.2855 51.2826 12.9236 51.2826 14.9839C51.2826 17.3606 51.8981 18.9299 52.9366 19.8943C54.0031 20.8076 55.3002 21.171 56.8961 21.171C58.5741 21.171 59.8411 20.7821 60.9057 19.8452C61.9201 18.8789 62.5596 17.335 62.5596 14.9839C62.5596 12.9236 61.9462 11.3385 60.9057 10.3191C59.8672 9.35273 58.6783 8.84598 56.8961 8.84598ZM103.357 8.84598C101.948 8.84598 101.044 9.18971 100.35 9.58254C99.496 10.0775 98.9467 10.7728 98.9467 11.3994C98.9467 11.7942 99.1913 12.185 99.6985 12.185C100.258 12.185 100.518 11.912 100.651 11.5467C100.893 10.9712 101.106 10.5293 101.453 10.27C101.932 9.90073 102.457 9.68075 103.257 9.68075C104.137 9.68075 104.765 9.94394 105.162 10.4664C105.51 10.9103 105.613 11.6842 105.613 12.2832V13.4126L104.059 13.7564C102.353 14.1197 101.008 14.6775 100.099 15.2786C98.9286 16.0328 98.4455 16.9756 98.4455 18.1757C98.4455 19.1676 98.8585 19.8884 99.498 20.3854C100.192 20.9333 101.1 21.171 101.954 21.171C103.712 21.171 104.759 20.5837 105.663 19.747H105.763C106.006 20.6053 106.589 21.0728 107.517 21.0728C108.213 21.0728 108.668 20.9372 109.121 20.7291L108.971 20.0907C108.758 20.2204 108.532 20.2871 108.269 20.2871C107.738 20.2871 107.467 19.7922 107.467 18.6176V12.4797C107.467 11.3326 107.255 10.6353 106.565 9.87716C105.897 9.14846 104.957 8.84598 103.357 8.84598ZM113.181 8.84598C112.301 9.47255 111.392 9.7436 110.224 9.92626V10.5155C111.633 10.4899 111.777 10.6726 111.777 12.185V18.5194C111.777 20.0869 111.659 20.238 110.224 20.238V20.8764H114.885V20.238C113.632 20.238 113.582 20.0869 113.582 18.5194V12.2341C114.648 10.7964 115.871 9.77895 116.99 9.77895C117.708 9.77895 118.195 9.98126 118.544 10.3191C119.049 10.8435 119.145 11.6586 119.145 12.6761V18.5194C119.145 20.0869 119.073 20.238 117.792 20.238V20.8764H122.303V20.238C121.104 20.238 120.999 20.0298 120.999 18.5685V12.5779C120.999 11.1971 120.661 10.2562 120.047 9.68075C119.462 9.13275 118.636 8.84598 117.491 8.84598C116.026 8.84598 114.648 9.67682 113.582 11.0065H113.532L113.431 8.99329L113.181 8.84598ZM56.8459 9.68075C57.9666 9.68075 58.8888 10.0284 59.5023 10.761C60.22 11.6744 60.6049 12.9727 60.6049 14.9839C60.6049 17.0974 60.1178 18.4192 59.4522 19.256C58.8407 19.9336 58.0147 20.3854 56.8961 20.3854C55.7774 20.3854 54.8993 19.9336 54.2898 19.256C53.6242 18.4192 53.1872 17.0974 53.1872 14.9839C53.1872 12.9727 53.5741 11.6744 54.2898 10.761C54.9274 10.0284 55.7814 9.68075 56.8459 9.68075ZM85.3141 11.694H88.622C90.8032 11.694 92.3008 12.0672 93.233 12.7743C94.1873 13.4794 94.6865 14.4733 94.6865 15.6223C94.6865 16.9815 94.2735 17.9675 93.634 18.6176C92.7278 19.5329 91.5169 19.8943 89.6244 19.8943H86.3165C85.4905 19.8943 85.3141 19.7116 85.3141 18.6176V11.694ZM105.613 14.1983V18.814C104.945 19.4642 104.063 20.1889 102.756 20.1889C101.958 20.1889 101.352 19.9198 100.951 19.5506C100.551 19.1617 100.4 18.6117 100.4 17.9302C100.4 16.732 101.118 16.021 102.154 15.475C103.139 14.8759 104.466 14.5106 105.613 14.1983Z" fill="white"/>
</svg>
