<svg width="154" height="26" viewBox="0 0 154 26" fill="none" xmlns="http://www.w3.org/2000/svg">
<path d="M19.0266 23.9324C17.0035 22.6655 15.5138 18.2927 15.5138 13.0978C15.5138 12.9071 15.5146 12.7189 15.5194 12.5315L15.5218 12.5339C9.89572 11.6498 5.83021 9.22692 5.72644 6.3624L5.70955 6.39538C4.33239 8.10637 3.54647 10.0844 3.54647 12.192C3.54647 18.394 10.3542 23.4755 18.9896 23.9252L19.0266 23.9324ZM0.945801 12.6449C0.945801 5.70519 9.582 0.0783081 20.2357 0.0783081C30.8893 0.0783081 39.5255 5.70519 39.5255 12.6449C39.5255 19.5846 30.8893 25.2114 20.2357 25.2114C9.582 25.2114 0.945801 19.5846 0.945801 12.6449ZM20.2357 1.89146C22.2926 1.89146 24.0414 5.01098 24.6897 9.36447L24.6921 9.35804C28.6933 8.73542 31.4951 7.29793 31.4951 5.62636C31.4951 3.38204 26.4538 1.56567 20.2357 1.56567C14.0175 1.56567 8.97627 3.38284 8.97627 5.62636C8.97627 7.29793 11.7772 8.73462 15.7792 9.35804L15.7816 9.36447C16.43 5.01178 18.1796 1.89146 20.2357 1.89146ZM21.4809 23.9252C30.1163 23.4755 36.9249 18.394 36.9249 12.192C36.9249 10.0844 36.1381 8.10637 34.7618 6.39538L34.7449 6.3624C34.6411 9.22692 30.5764 11.6498 24.9495 12.5339L24.952 12.5315C24.956 12.7189 24.9576 12.9071 24.9576 13.0978C24.9576 18.2927 23.4662 22.6655 21.4447 23.9324L21.4809 23.9252ZM20.2357 9.68785C21.1575 9.68785 22.0528 9.64843 22.9095 9.57282L22.9087 9.57362C22.4824 6.7831 21.4463 4.8139 20.2357 4.8139C19.025 4.8139 17.9897 6.7831 17.5626 9.57362L17.5618 9.57282C18.4185 9.64843 19.3138 9.68785 20.2357 9.68785ZM20.2357 20.0214C21.7842 20.0214 23.0471 16.7989 23.1147 12.7575L23.1227 12.7599C21.2021 12.9369 19.2693 12.9369 17.3486 12.7599L17.3575 12.7575C17.4242 16.7997 18.6872 20.0214 20.2357 20.0214ZM99.3756 12.6449C99.3756 7.34056 103.676 3.04097 108.98 3.04097C114.285 3.04097 118.585 7.34137 118.585 12.6449C118.585 17.95 114.285 22.2488 108.98 22.2488C103.676 22.2488 99.3756 17.9492 99.3756 12.6449ZM108.98 18.7271C111.942 18.7271 114.343 16.0033 114.343 12.6441C114.343 9.28564 111.942 6.56109 108.98 6.56109C106.018 6.56109 103.618 9.28483 103.618 12.6441C103.618 16.0033 106.019 18.7271 108.98 18.7271ZM129.483 7.04213V21.8128H125.437V7.04213H125.451H119.792V3.7022H135.129V7.04132L129.483 7.04213ZM140.023 17.7384L140.019 17.7425L138.467 21.8136H133.741L141.212 3.703H146.249L153.721 21.8136H148.994L147.442 17.7425L147.438 17.7384H143.732H140.023ZM143.732 14.6817H146.278L146.276 14.6825L143.749 8.05408H143.713L141.184 14.6825L141.183 14.6817H143.732ZM54.8874 7.04213V21.8128H50.8404V7.04213H50.8541H45.1942V3.7022H60.532V7.04132L54.8874 7.04213ZM61.5681 12.6449C61.5681 7.34056 65.8685 3.04097 71.1736 3.04097C76.4779 3.04097 80.7783 7.34137 80.7783 12.6449C80.7783 17.95 76.4779 22.2488 71.1736 22.2488C65.8685 22.2488 61.5681 17.9492 61.5681 12.6449ZM71.1736 18.7271C74.1347 18.7271 76.5367 16.0033 76.5367 12.6441C76.5367 9.28564 74.1355 6.56109 71.1736 6.56109C68.2118 6.56109 65.8106 9.28483 65.8106 12.6441C65.8106 16.0033 68.2118 18.7271 71.1736 18.7271ZM90.0766 21.8128H92.1286V14.9358L99.1882 3.7022H94.463L90.0766 11.3144L85.6909 3.7022H80.9642L88.0245 14.9358V21.812L90.0766 21.8128Z" fill="white"/>
</svg>
