<?xml version="1.0" encoding="UTF-8"?>
<!-- Generated by Pixelmator Pro 3.7.1 -->
<svg width="311" height="214" viewBox="0 0 311 214" xmlns="http://www.w3.org/2000/svg">
    <filter id="filter1" x="0" y="0" width="311" height="214" filterUnits="userSpaceOnUse" primitiveUnits="userSpaceOnUse" color-interpolation-filters="sRGB">
        <feGaussianBlur stdDeviation="47"/>
    </filter>
    <g id="Group" filter="url(#filter1)">
        <path id="Path" fill="#f17d7d" stroke="none" d="M 185.449707 107 C 185.449707 125.473755 170.473755 140.449707 152 140.449707 C 133.526245 140.449707 118.550293 125.473755 118.550293 107 C 118.550293 88.526245 133.526245 73.550293 152 73.550293 C 170.473755 73.550293 185.449707 88.526245 185.449707 107 Z"/>
    </g>
    <path id="path1" fill="#de3030" stroke="none" d="M 239.052002 107.595993 L 244.052002 104.709 L 244.053009 110.483002 L 239.052002 107.595993 Z M 208.718994 154.100998 L 205.833008 149.100998 L 211.605988 149.100998 L 208.718994 154.100998 Z M 208.718994 140.389008 L 208.218994 140.389008 L 208.218994 139.889008 L 208.718994 139.889008 L 208.718994 140.389008 Z M 243.062988 140.389008 L 243.562988 140.389008 L 243.562988 140.889008 L 243.062988 140.889008 L 243.062988 140.389008 Z M 243.062988 107.595993 L 243.062988 107.095993 L 243.562988 107.095993 L 243.562988 107.595993 L 243.062988 107.595993 Z M 242.059998 107.595993 L 242.059998 107.095993 L 243.062988 107.095993 L 243.062988 107.595993 L 243.062988 108.095993 L 242.059998 108.095993 L 242.059998 107.595993 Z M 243.062988 107.595993 L 243.562988 107.595993 L 243.562988 108.621002 L 243.062988 108.621002 L 242.562988 108.621002 L 242.562988 107.595993 L 243.062988 107.595993 Z M 243.062988 110.671005 L 243.562988 110.671005 L 243.562988 112.720001 L 243.062988 112.720001 L 242.562988 112.720001 L 242.562988 110.671005 L 243.062988 110.671005 Z M 243.062988 114.770004 L 243.562988 114.770004 L 243.562988 116.819 L 243.062988 116.819 L 242.562988 116.819 L 242.562988 114.770004 L 243.062988 114.770004 Z M 243.062988 118.869003 L 243.562988 118.869003 L 243.562988 120.917999 L 243.062988 120.917999 L 242.562988 120.917999 L 242.562988 118.869003 L 243.062988 118.869003 Z M 243.062988 122.968002 L 243.562988 122.968002 L 243.562988 125.018005 L 243.062988 125.018005 L 242.562988 125.018005 L 242.562988 122.968002 L 243.062988 122.968002 Z M 243.062988 127.067001 L 243.562988 127.067001 L 243.562988 129.117004 L 243.062988 129.117004 L 242.562988 129.117004 L 242.562988 127.067001 L 243.062988 127.067001 Z M 243.062988 131.166 L 243.562988 131.166 L 243.562988 133.216003 L 243.062988 133.216003 L 242.562988 133.216003 L 242.562988 131.166 L 243.062988 131.166 Z M 243.062988 135.264999 L 243.562988 135.264999 L 243.562988 137.315002 L 243.062988 137.315002 L 242.562988 137.315002 L 242.562988 135.264999 L 243.062988 135.264999 Z M 243.062988 139.365005 L 243.562988 139.365005 L 243.562988 140.389008 L 243.062988 140.389008 L 242.562988 140.389008 L 242.562988 139.365005 L 243.062988 139.365005 Z M 243.062988 140.389008 L 243.062988 140.889008 L 242.109009 140.889008 L 242.109009 140.389008 L 242.109009 139.889008 L 243.062988 139.889008 L 243.062988 140.389008 Z M 240.200989 140.389008 L 240.200989 140.889008 L 238.292999 140.889008 L 238.292999 140.389008 L 238.292999 139.889008 L 240.200989 139.889008 L 240.200989 140.389008 Z M 236.38501 140.389008 L 236.38501 140.889008 L 234.47699 140.889008 L 234.47699 140.389008 L 234.47699 139.889008 L 236.38501 139.889008 L 236.38501 140.389008 Z M 232.569 140.389008 L 232.569 140.889008 L 230.661011 140.889008 L 230.661011 140.389008 L 230.661011 139.889008 L 232.569 139.889008 L 232.569 140.389008 Z M 228.752991 140.389008 L 228.752991 140.889008 L 226.845001 140.889008 L 226.845001 140.389008 L 226.845001 139.889008 L 228.752991 139.889008 L 228.752991 140.389008 Z M 224.937012 140.389008 L 224.937012 140.889008 L 223.028992 140.889008 L 223.028992 140.389008 L 223.028992 139.889008 L 224.937012 139.889008 L 224.937012 140.389008 Z M 221.121002 140.389008 L 221.121002 140.889008 L 219.213013 140.889008 L 219.213013 140.389008 L 219.213013 139.889008 L 221.121002 139.889008 L 221.121002 140.389008 Z M 217.304993 140.389008 L 217.304993 140.889008 L 215.397003 140.889008 L 215.397003 140.389008 L 215.397003 139.889008 L 217.304993 139.889008 L 217.304993 140.389008 Z M 213.489014 140.389008 L 213.489014 140.889008 L 211.580994 140.889008 L 211.580994 140.389008 L 211.580994 139.889008 L 213.489014 139.889008 L 213.489014 140.389008 Z M 209.673004 140.389008 L 209.673004 140.889008 L 208.718994 140.889008 L 208.718994 140.389008 L 208.718994 139.889008 L 209.673004 139.889008 L 209.673004 140.389008 Z M 208.718994 140.389008 L 209.218994 140.389008 L 209.218994 141.531998 L 208.718994 141.531998 L 208.218994 141.531998 L 208.218994 140.389008 L 208.718994 140.389008 Z M 208.718994 143.817001 L 209.218994 143.817001 L 209.218994 146.102997 L 208.718994 146.102997 L 208.218994 146.102997 L 208.218994 143.817001 L 208.718994 143.817001 Z M 208.718994 148.388 L 209.218994 148.388 L 209.218994 150.673004 L 208.718994 150.673004 L 208.218994 150.673004 L 208.218994 148.388 L 208.718994 148.388 Z"/>
    <g id="g1">
        <path id="path2" fill="#ffffff" stroke="none" d="M 31 17 L 273 17 C 279.627411 17 285 22.372589 285 29 L 285 49 C 285 55.627411 279.627411 61 273 61 L 31 61 C 24.372589 61 19 55.627411 19 49 L 19 29 C 19 22.372589 24.372589 17 31 17 Z"/>
        <path id="path3" fill="none" stroke="#000000" d="M 31 17.5 L 273 17.5 C 279.351288 17.5 284.5 22.648743 284.5 29 L 284.5 49 C 284.5 55.351273 279.351288 60.5 273 60.5 L 31 60.5 C 24.648727 60.5 19.5 55.351273 19.5 49 L 19.5 29 C 19.5 22.648743 24.648727 17.5 31 17.5 Z"/>
        <path id="path4" fill="#131316" stroke="none" d="M 85.613007 44 L 85.613007 32.335999 L 90.205002 32.335999 C 91.304001 32.335999 92.242004 32.580994 93.020996 33.072021 C 93.800003 33.552002 94.397003 34.229004 94.813004 35.104004 C 95.229004 35.979004 95.436996 37.002991 95.436996 38.175995 C 95.436996 39.050995 95.320007 39.845001 95.085007 40.559998 C 94.850006 41.274994 94.503998 41.888 94.044998 42.399994 C 93.597 42.911987 93.048004 43.307007 92.397003 43.583984 C 91.757004 43.860992 91.026001 44 90.205002 44 L 85.613007 44 Z M 86.973007 42.799988 L 90.029007 42.799988 C 90.636993 42.799988 91.186005 42.703979 91.677002 42.511993 C 92.167999 42.309021 92.589005 42.010986 92.940994 41.615997 C 93.292999 41.221008 93.559998 40.735992 93.740997 40.160004 C 93.932999 39.572998 94.029007 38.901001 94.029007 38.143982 C 94.029007 37.119995 93.863998 36.266998 93.533005 35.583984 C 93.201996 34.901001 92.733002 34.389008 92.125 34.048004 C 91.528 33.707001 90.828995 33.536011 90.029007 33.536011 L 86.973007 33.536011 L 86.973007 42.799988 Z M 100.313995 44.143982 C 99.802002 44.143982 99.332993 44.048004 98.906006 43.856018 C 98.490005 43.653015 98.128006 43.371002 97.817993 43.007996 C 97.509003 42.63501 97.268997 42.181 97.098007 41.64801 C 96.938004 41.104004 96.858002 40.484985 96.858002 39.791992 C 96.858002 38.875 97.001999 38.091003 97.289993 37.440002 C 97.589005 36.789001 97.994003 36.299011 98.505997 35.968018 C 99.029007 35.627014 99.632004 35.455994 100.313995 35.455994 C 100.804993 35.455994 101.248001 35.536011 101.641998 35.695984 C 102.048004 35.845001 102.389008 36.063995 102.666 36.35199 C 102.944 36.628998 103.151993 36.960022 103.289993 37.343994 L 103.369995 37.343994 L 103.417999 35.600006 L 104.666 35.600006 L 104.666 44 L 103.369995 44 L 103.369995 42.23999 L 103.289993 42.23999 C 103.076996 42.804993 102.714005 43.264008 102.201996 43.615997 C 101.690002 43.968018 101.061005 44.143982 100.313995 44.143982 Z M 100.746002 43.056 C 101.311996 43.056 101.785995 42.923004 102.169998 42.656006 C 102.554001 42.389008 102.848007 42.048004 103.050003 41.632019 C 103.253006 41.216003 103.354004 40.77301 103.354004 40.304016 L 103.354004 39.279999 C 103.354004 38.811005 103.253006 38.367981 103.050003 37.951996 C 102.848007 37.524994 102.554001 37.184021 102.169998 36.927979 C 101.785995 36.661011 101.311996 36.528015 100.746002 36.528015 C 100.233994 36.528015 99.785995 36.656006 99.401993 36.911987 C 99.018005 37.156982 98.720001 37.52002 98.505997 38 C 98.292999 38.47998 98.186005 39.076996 98.186005 39.791992 C 98.186005 40.496002 98.292999 41.093018 98.505997 41.583984 C 98.720001 42.063995 99.018005 42.432007 99.401993 42.687988 C 99.785995 42.932983 100.233994 43.056 100.746002 43.056 Z M 109.315002 44 C 108.899002 44 108.567993 43.940979 108.322998 43.824005 C 108.087997 43.707001 107.917999 43.531006 107.811005 43.296021 C 107.714996 43.050995 107.667007 42.752014 107.667007 42.399994 L 107.667007 36.671997 L 106.035004 36.671997 L 106.035004 35.600006 L 107.667007 35.600006 L 107.667007 33.088013 L 108.962997 32.911987 L 108.962997 35.600006 L 110.914993 35.600006 L 110.914993 36.671997 L 108.962997 36.671997 L 108.962997 42.175995 C 108.962997 42.475006 109.016006 42.671997 109.123001 42.768005 C 109.229996 42.864014 109.427002 42.911987 109.714996 42.911987 L 110.914993 42.911987 L 110.914993 44 L 109.315002 44 Z M 115.235992 44.143982 C 114.723999 44.143982 114.255005 44.048004 113.828003 43.856018 C 113.412003 43.653015 113.050003 43.371002 112.740005 43.007996 C 112.431 42.63501 112.190994 42.181 112.020004 41.64801 C 111.860001 41.104004 111.779999 40.484985 111.779999 39.791992 C 111.779999 38.875 111.923996 38.091003 112.212006 37.440002 C 112.511002 36.789001 112.916 36.299011 113.427994 35.968018 C 113.951004 35.627014 114.554001 35.455994 115.235992 35.455994 C 115.727005 35.455994 116.169998 35.536011 116.563995 35.695984 C 116.970001 35.845001 117.311005 36.063995 117.587997 36.35199 C 117.865997 36.628998 118.074005 36.960022 118.212006 37.343994 L 118.292007 37.343994 L 118.339996 35.600006 L 119.587997 35.600006 L 119.587997 44 L 118.292007 44 L 118.292007 42.23999 L 118.212006 42.23999 C 117.998993 42.804993 117.636002 43.264008 117.123993 43.615997 C 116.612 43.968018 115.983002 44.143982 115.235992 44.143982 Z M 115.667999 43.056 C 116.233994 43.056 116.707993 42.923004 117.091995 42.656006 C 117.475998 42.389008 117.770004 42.048004 117.972 41.632019 C 118.175003 41.216003 118.276001 40.77301 118.276001 40.304016 L 118.276001 39.279999 C 118.276001 38.811005 118.175003 38.367981 117.972 37.951996 C 117.770004 37.524994 117.475998 37.184021 117.091995 36.927979 C 116.707993 36.661011 116.233994 36.528015 115.667999 36.528015 C 115.156006 36.528015 114.707993 36.656006 114.324005 36.911987 C 113.940002 37.156982 113.641998 37.52002 113.427994 38 C 113.214996 38.47998 113.108002 39.076996 113.108002 39.791992 C 113.108002 40.496002 113.214996 41.093018 113.427994 41.583984 C 113.641998 42.063995 113.940002 42.432007 114.324005 42.687988 C 114.707993 42.932983 115.156006 43.056 115.667999 43.056 Z M 130.820999 44.143982 C 129.968002 44.143982 129.188995 44.005005 128.485001 43.727997 C 127.792007 43.450989 127.188995 43.050995 126.677002 42.528015 C 126.175995 42.005005 125.792007 41.376007 125.524994 40.640015 C 125.257996 39.903992 125.125 39.083008 125.125 38.175995 C 125.125 37.259003 125.257996 36.432007 125.524994 35.695984 C 125.802002 34.960022 126.192001 34.335999 126.692993 33.824005 C 127.194 33.300995 127.792007 32.901001 128.485001 32.623993 C 129.188995 32.346985 129.968002 32.208008 130.820999 32.208008 C 131.684998 32.208008 132.464005 32.346985 133.156998 32.623993 C 133.860992 32.901001 134.464005 33.300995 134.964996 33.824005 C 135.466003 34.346985 135.850006 34.976013 136.117004 35.712006 C 136.393997 36.437012 136.533005 37.259003 136.533005 38.175995 C 136.533005 39.093018 136.393997 39.919983 136.117004 40.656006 C 135.850006 41.391998 135.460999 42.020996 134.949005 42.544006 C 134.447998 43.056 133.845001 43.450989 133.141006 43.727997 C 132.447998 44.005005 131.673996 44.143982 130.820999 44.143982 Z M 130.820999 42.944 C 131.705994 42.944 132.468994 42.752014 133.108994 42.367981 C 133.748993 41.973022 134.244995 41.424011 134.597 40.720001 C 134.949005 40.005005 135.125 39.156982 135.125 38.175995 C 135.125 37.429016 135.024002 36.763 134.820999 36.175995 C 134.617996 35.588989 134.330002 35.093018 133.957001 34.687988 C 133.584 34.272003 133.130005 33.957001 132.597 33.744019 C 132.074005 33.52002 131.481995 33.40802 130.820999 33.40802 C 129.936005 33.40802 129.173004 33.600006 128.533005 33.984009 C 127.904007 34.367981 127.412994 34.916992 127.061005 35.632019 C 126.709 36.335999 126.533005 37.184021 126.533005 38.175995 C 126.533005 38.911987 126.634003 39.578979 126.837006 40.175995 C 127.039993 40.763 127.322006 41.264008 127.684998 41.679993 C 128.057999 42.085022 128.505997 42.399994 129.029007 42.623993 C 129.561996 42.837006 130.160004 42.944 130.820999 42.944 Z M 138.403992 44 L 138.403992 35.600006 L 139.556 35.600006 L 139.635986 37.151978 L 139.700012 37.151978 C 139.881012 36.619019 140.200989 36.208008 140.660004 35.919983 C 141.118011 35.632019 141.630005 35.488007 142.196014 35.488007 C 142.291992 35.488007 142.381989 35.492981 142.467987 35.503998 C 142.553009 35.503998 142.632996 35.509003 142.708008 35.52002 L 142.708008 36.752014 C 142.632996 36.740997 142.553009 36.735992 142.467987 36.735992 C 142.381989 36.725006 142.291992 36.720001 142.196014 36.720001 C 141.704987 36.720001 141.278015 36.811005 140.915985 36.992004 C 140.553009 37.173004 140.265015 37.434998 140.052002 37.776001 C 139.848999 38.106995 139.726013 38.511993 139.68399 38.992004 L 139.68399 44 L 138.403992 44 Z M 147.359009 44.143982 C 146.751007 44.143982 146.196014 44.042999 145.695007 43.839996 C 145.20401 43.627014 144.78299 43.333008 144.431 42.960022 C 144.07901 42.575989 143.807007 42.122986 143.61499 41.600006 C 143.423004 41.067017 143.326996 40.468994 143.326996 39.807983 C 143.326996 38.944 143.492004 38.187012 143.822998 37.536011 C 144.164001 36.88501 144.639008 36.378998 145.247009 36.015991 C 145.865997 35.653015 146.585999 35.471985 147.407013 35.471985 C 148.067993 35.471985 148.660004 35.595001 149.183014 35.839996 C 149.705994 36.085022 150.127014 36.432007 150.446991 36.880005 C 150.766998 37.317017 150.947998 37.828979 150.990997 38.416016 L 149.743011 38.416016 C 149.667999 38.010986 149.519012 37.674988 149.295013 37.40802 C 149.071014 37.140991 148.794006 36.938995 148.463013 36.799988 C 148.131989 36.651001 147.769989 36.575989 147.375 36.575989 C 146.799011 36.575989 146.308014 36.714996 145.903015 36.992004 C 145.497986 37.259003 145.183014 37.636993 144.959015 38.127991 C 144.746002 38.608002 144.639008 39.173004 144.639008 39.824005 C 144.639008 40.496002 144.751007 41.072021 144.975006 41.552002 C 145.209991 42.031982 145.529999 42.399994 145.934998 42.656006 C 146.339996 42.911987 146.815002 43.039978 147.359009 43.039978 C 147.807007 43.039978 148.201996 42.960022 148.542999 42.799988 C 148.894989 42.628998 149.171997 42.39502 149.375 42.096008 C 149.588013 41.796997 149.721985 41.450989 149.774994 41.056 L 151.039001 41.056 C 150.985992 41.674988 150.794006 42.218994 150.463013 42.687988 C 150.143005 43.147003 149.716003 43.503998 149.183014 43.76001 C 148.649994 44.015991 148.041992 44.143982 147.359009 44.143982 Z M 152.825012 44 L 152.825012 32.335999 L 154.105011 32.335999 L 154.105011 37.343994 L 154.200989 37.343994 C 154.457001 36.725006 154.85199 36.260986 155.38501 35.951996 C 155.919006 35.632019 156.5 35.471985 157.128998 35.471985 C 157.566986 35.471985 157.96701 35.536011 158.32901 35.664001 C 158.703003 35.791992 159.02301 36 159.289001 36.287994 C 159.566986 36.575989 159.779999 36.949005 159.928986 37.40802 C 160.07901 37.856018 160.153015 38.404999 160.153015 39.056 L 160.153015 44 L 158.856995 44 L 158.856995 39.312012 C 158.856995 38.682983 158.777008 38.164978 158.617004 37.76001 C 158.467987 37.35498 158.233002 37.056 157.912994 36.864014 C 157.604004 36.661011 157.20401 36.559998 156.713013 36.559998 C 156.19101 36.559998 155.731995 36.687988 155.337006 36.944 C 154.942993 37.200012 154.639008 37.546997 154.424988 37.984009 C 154.212006 38.411011 154.105011 38.901001 154.105011 39.455994 L 154.105011 44 L 152.825012 44 Z M 165.92099 44.143982 C 165.100006 44.143982 164.390015 43.968018 163.792999 43.615997 C 163.196014 43.252991 162.731995 42.747009 162.401001 42.096008 C 162.080994 41.445007 161.92099 40.687988 161.92099 39.824005 C 161.92099 38.949005 162.080994 38.187012 162.401001 37.536011 C 162.721008 36.875 163.174011 36.367981 163.760986 36.015991 C 164.358002 35.653015 165.057007 35.471985 165.856995 35.471985 C 166.764008 35.471985 167.505005 35.674988 168.080994 36.080017 C 168.667999 36.475006 169.088989 37.018982 169.345001 37.712006 C 169.612 38.39502 169.701996 39.167999 169.617004 40.031982 L 163.200989 40.031982 C 163.221985 40.671997 163.345001 41.221008 163.569 41.679993 C 163.792999 42.127991 164.10199 42.475006 164.497009 42.720001 C 164.902008 42.955017 165.377014 43.072021 165.92099 43.072021 C 166.549988 43.072021 167.078003 42.927979 167.505005 42.640015 C 167.941986 42.341003 168.220001 41.947021 168.337006 41.455994 L 169.584991 41.455994 C 169.51001 41.989014 169.302002 42.458984 168.960999 42.864014 C 168.630005 43.268982 168.197998 43.583984 167.665009 43.807983 C 167.141998 44.031982 166.561005 44.143982 165.92099 44.143982 Z M 163.21701 39.264008 L 163.088989 39.023987 L 168.497009 39.023987 L 168.352997 39.296021 C 168.373993 38.64502 168.27301 38.117004 168.049011 37.712006 C 167.835999 37.296021 167.536987 36.997009 167.153015 36.815979 C 166.769012 36.623993 166.332001 36.528015 165.841003 36.528015 C 165.32901 36.528015 164.876007 36.640015 164.480988 36.864014 C 164.096985 37.076996 163.798004 37.391998 163.584991 37.807983 C 163.372009 38.213013 163.248993 38.699005 163.21701 39.264008 Z M 174.520996 44.160004 C 173.401001 44.160004 172.536987 43.903992 171.928986 43.391998 C 171.332001 42.880005 171.03299 42.208008 171.03299 41.376007 L 172.32901 41.376007 C 172.32901 42.005005 172.536987 42.468994 172.953003 42.768005 C 173.368988 43.056 173.903015 43.200012 174.553009 43.200012 C 175.225006 43.200012 175.737 43.076996 176.088989 42.832001 C 176.44101 42.587006 176.617004 42.23999 176.617004 41.791992 C 176.617004 41.440002 176.542999 41.167999 176.393005 40.976013 C 176.243988 40.783997 176.009003 40.640015 175.688995 40.544006 C 175.368988 40.437012 174.953003 40.346985 174.44101 40.272003 C 173.960999 40.197021 173.523987 40.112 173.128998 40.015991 C 172.744995 39.908997 172.415009 39.770996 172.136993 39.600006 C 171.859985 39.419006 171.647003 39.188995 171.497009 38.911987 C 171.347992 38.63501 171.27301 38.292999 171.27301 37.888 C 171.27301 37.376007 171.407013 36.938995 171.673004 36.575989 C 171.950989 36.213013 172.32901 35.936005 172.80899 35.744019 C 173.299988 35.541016 173.871002 35.440002 174.520996 35.440002 C 175.20401 35.440002 175.785004 35.546997 176.265015 35.76001 C 176.744995 35.973022 177.113007 36.276978 177.368988 36.671997 C 177.625 37.056 177.759003 37.52002 177.769012 38.063995 L 176.505005 38.063995 C 176.494995 37.669006 176.403992 37.35498 176.233002 37.119995 C 176.072998 36.875 175.843994 36.692993 175.545013 36.575989 C 175.256989 36.458984 174.911011 36.399994 174.505005 36.399994 C 173.886993 36.399994 173.407013 36.528015 173.065002 36.783997 C 172.734985 37.028992 172.569 37.35498 172.569 37.76001 C 172.569 38.059021 172.648987 38.304016 172.80899 38.496002 C 172.968994 38.687988 173.214996 38.837006 173.545013 38.944 C 173.876007 39.039978 174.291992 39.125 174.792999 39.200012 C 175.240997 39.264008 175.652008 39.343994 176.024994 39.440002 C 176.398987 39.536011 176.729004 39.669006 177.016998 39.839996 C 177.304993 40.010986 177.528992 40.244995 177.688995 40.544006 C 177.859985 40.843018 177.945007 41.221008 177.945007 41.679993 C 177.945007 42.501007 177.635986 43.119995 177.016998 43.536011 C 176.398987 43.951996 175.566986 44.160004 174.520996 44.160004 Z M 182.174011 44 C 181.757996 44 181.428009 43.940979 181.182007 43.824005 C 180.947998 43.707001 180.777008 43.531006 180.670013 43.296021 C 180.574005 43.050995 180.526001 42.752014 180.526001 42.399994 L 180.526001 36.671997 L 178.894012 36.671997 L 178.894012 35.600006 L 180.526001 35.600006 L 180.526001 33.088013 L 181.821991 32.911987 L 181.821991 35.600006 L 183.773987 35.600006 L 183.773987 36.671997 L 181.821991 36.671997 L 181.821991 42.175995 C 181.821991 42.475006 181.876007 42.671997 181.981995 42.768005 C 182.088989 42.864014 182.286011 42.911987 182.574005 42.911987 L 183.773987 42.911987 L 183.773987 44 L 182.174011 44 Z M 185.481995 44 L 185.481995 35.600006 L 186.634003 35.600006 L 186.713989 37.151978 L 186.778015 37.151978 C 186.959015 36.619019 187.278992 36.208008 187.738007 35.919983 C 188.196014 35.632019 188.708008 35.488007 189.273987 35.488007 C 189.369995 35.488007 189.459991 35.492981 189.54599 35.503998 C 189.631012 35.503998 189.710999 35.509003 189.786011 35.52002 L 189.786011 36.752014 C 189.710999 36.740997 189.631012 36.735992 189.54599 36.735992 C 189.459991 36.725006 189.369995 36.720001 189.273987 36.720001 C 188.78299 36.720001 188.355988 36.811005 187.993988 36.992004 C 187.631012 37.173004 187.342987 37.434998 187.130005 37.776001 C 186.927002 38.106995 186.803986 38.511993 186.761993 38.992004 L 186.761993 44 L 185.481995 44 Z M 193.860992 44.143982 C 193.348999 44.143982 192.880005 44.048004 192.453003 43.856018 C 192.036987 43.653015 191.674988 43.371002 191.36499 43.007996 C 191.056 42.63501 190.81601 42.181 190.644989 41.64801 C 190.484985 41.104004 190.404999 40.484985 190.404999 39.791992 C 190.404999 38.875 190.549011 38.091003 190.837006 37.440002 C 191.135986 36.789001 191.540985 36.299011 192.053009 35.968018 C 192.575989 35.627014 193.178986 35.455994 193.860992 35.455994 C 194.35199 35.455994 194.795013 35.536011 195.188995 35.695984 C 195.595001 35.845001 195.936005 36.063995 196.213013 36.35199 C 196.490997 36.628998 196.699005 36.960022 196.837006 37.343994 L 196.916992 37.343994 L 196.964996 35.600006 L 198.213013 35.600006 L 198.213013 44 L 196.916992 44 L 196.916992 42.23999 L 196.837006 42.23999 C 196.623993 42.804993 196.260986 43.264008 195.748993 43.615997 C 195.237 43.968018 194.608002 44.143982 193.860992 44.143982 Z M 194.292999 43.056 C 194.859009 43.056 195.333008 42.923004 195.71701 42.656006 C 196.101013 42.389008 196.394989 42.048004 196.596985 41.632019 C 196.799988 41.216003 196.901001 40.77301 196.901001 40.304016 L 196.901001 39.279999 C 196.901001 38.811005 196.799988 38.367981 196.596985 37.951996 C 196.394989 37.524994 196.101013 37.184021 195.71701 36.927979 C 195.333008 36.661011 194.859009 36.528015 194.292999 36.528015 C 193.781006 36.528015 193.333008 36.656006 192.949005 36.911987 C 192.565002 37.156982 192.266998 37.52002 192.053009 38 C 191.839996 38.47998 191.733002 39.076996 191.733002 39.791992 C 191.733002 40.496002 191.839996 41.093018 192.053009 41.583984 C 192.266998 42.063995 192.565002 42.432007 192.949005 42.687988 C 193.333008 42.932983 193.781006 43.056 194.292999 43.056 Z M 202.862 44 C 202.446014 44 202.11499 43.940979 201.869995 43.824005 C 201.63501 43.707001 201.464996 43.531006 201.358002 43.296021 C 201.261993 43.050995 201.213989 42.752014 201.213989 42.399994 L 201.213989 36.671997 L 199.582001 36.671997 L 199.582001 35.600006 L 201.213989 35.600006 L 201.213989 33.088013 L 202.51001 32.911987 L 202.51001 35.600006 L 204.462006 35.600006 L 204.462006 36.671997 L 202.51001 36.671997 L 202.51001 42.175995 C 202.51001 42.475006 202.562988 42.671997 202.670013 42.768005 C 202.777008 42.864014 202.973999 42.911987 203.261993 42.911987 L 204.462006 42.911987 L 204.462006 44 L 202.862 44 Z M 209.390991 44.143982 C 208.78299 44.143982 208.227997 44.042999 207.72699 43.839996 C 207.235992 43.636993 206.809998 43.343994 206.446991 42.960022 C 206.095001 42.575989 205.817993 42.122986 205.61499 41.600006 C 205.423004 41.067017 205.326996 40.475006 205.326996 39.824005 C 205.326996 38.960022 205.492004 38.203003 205.822998 37.552002 C 206.153992 36.901001 206.622986 36.39502 207.230988 36.031982 C 207.850006 35.658997 208.570007 35.471985 209.390991 35.471985 C 209.998993 35.471985 210.548004 35.572998 211.039001 35.776001 C 211.540009 35.968018 211.96701 36.255981 212.319 36.640015 C 212.67099 37.023987 212.942993 37.483002 213.13501 38.015991 C 213.326996 38.549011 213.423004 39.147003 213.423004 39.807983 C 213.423004 40.661011 213.257996 41.412994 212.927002 42.063995 C 212.606995 42.714996 212.143005 43.22699 211.535004 43.600006 C 210.927002 43.963013 210.212006 44.143982 209.390991 44.143982 Z M 209.390991 43.023987 C 209.934998 43.023987 210.410004 42.901001 210.815002 42.656006 C 211.220001 42.399994 211.535004 42.031982 211.759003 41.552002 C 211.993988 41.061005 212.110992 40.47998 212.110992 39.807983 C 212.110992 39.307007 212.046997 38.859009 211.919006 38.463989 C 211.790985 38.059021 211.609985 37.71698 211.375 37.440002 C 211.140015 37.151978 210.858002 36.932983 210.527008 36.783997 C 210.196014 36.63501 209.817993 36.559998 209.390991 36.559998 C 208.846985 36.559998 208.367004 36.692993 207.950989 36.960022 C 207.54599 37.216003 207.226013 37.583984 206.990997 38.063995 C 206.766998 38.544006 206.654999 39.130981 206.654999 39.824005 C 206.654999 40.315002 206.713989 40.763 206.830994 41.167999 C 206.959015 41.562988 207.140015 41.898987 207.375 42.175995 C 207.619995 42.453003 207.914001 42.666992 208.255005 42.815979 C 208.596008 42.955017 208.975006 43.023987 209.390991 43.023987 Z M 215.263 44 L 215.263 35.600006 L 216.415009 35.600006 L 216.494995 37.151978 L 216.55899 37.151978 C 216.73999 36.619019 217.059998 36.208008 217.519012 35.919983 C 217.977997 35.632019 218.48999 35.488007 219.054993 35.488007 C 219.151001 35.488007 219.242004 35.492981 219.326996 35.503998 C 219.411987 35.503998 219.492004 35.509003 219.566986 35.52002 L 219.566986 36.752014 C 219.492004 36.740997 219.411987 36.735992 219.326996 36.735992 C 219.242004 36.725006 219.151001 36.720001 219.054993 36.720001 C 218.563995 36.720001 218.138 36.811005 217.774994 36.992004 C 217.411987 37.173004 217.123993 37.434998 216.911011 37.776001 C 216.708008 38.106995 216.585999 38.511993 216.542999 38.992004 L 216.542999 44 L 215.263 44 Z"/>
    </g>
    <g id="g2">
        <path id="path5" fill="#ffffff" stroke="none" d="M 31 85 L 273 85 C 279.627411 85 285 90.372589 285 97 L 285 117 C 285 123.627411 279.627411 129 273 129 L 31 129 C 24.372589 129 19 123.627411 19 117 L 19 97 C 19 90.372589 24.372589 85 31 85 Z"/>
        <path id="path6" fill="none" stroke="#000000" d="M 31 85.5 L 273 85.5 C 279.351288 85.5 284.5 90.648727 284.5 97 L 284.5 117 C 284.5 123.351273 279.351288 128.5 273 128.5 L 31 128.5 C 24.648727 128.5 19.5 123.351273 19.5 117 L 19.5 97 C 19.5 90.648727 24.648727 85.5 31 85.5 Z"/>
        <path id="path7" fill="#131316" stroke="none" d="M 119.261002 112 L 119.261002 100.335999 L 120.621002 100.335999 L 120.621002 112 L 119.261002 112 Z M 123.348999 112 L 123.348999 103.600006 L 124.580994 103.600006 L 124.628998 105.343994 L 124.725006 105.343994 C 124.981003 104.725006 125.375 104.261002 125.908997 103.951996 C 126.442001 103.632004 127.022995 103.472 127.653 103.472 C 128.089996 103.472 128.490005 103.535995 128.852997 103.664001 C 129.225998 103.792007 129.546005 104 129.813004 104.287994 C 130.089996 104.576004 130.302994 104.949005 130.453003 105.408005 C 130.602005 105.856003 130.677002 106.404999 130.677002 107.056 L 130.677002 112 L 129.380997 112 L 129.380997 107.311996 C 129.380997 106.682999 129.300995 106.164993 129.141006 105.759995 C 128.990997 105.354996 128.757004 105.056 128.436996 104.863998 C 128.126999 104.660995 127.727005 104.559998 127.237 104.559998 C 126.714005 104.559998 126.255005 104.688004 125.860992 104.944 C 125.466003 105.199997 125.162003 105.546997 124.949005 105.983994 C 124.735001 106.410995 124.628998 106.901001 124.628998 107.455994 L 124.628998 112 L 123.348999 112 Z M 133.630997 112 L 133.630997 104.671997 L 132.031006 104.671997 L 132.031006 103.600006 L 133.630997 103.600006 L 133.630997 102.175995 C 133.630997 101.567993 133.813004 101.108994 134.175003 100.800003 C 134.537994 100.490997 135.022995 100.335999 135.630997 100.335999 L 137.039001 100.335999 L 137.039001 101.343994 L 135.934998 101.343994 C 135.541 101.343994 135.274002 101.440002 135.134995 101.632004 C 134.996994 101.813004 134.927002 102.052994 134.927002 102.352005 L 134.927002 103.600006 L 136.847 103.600006 L 136.847 104.671997 L 134.927002 104.671997 L 134.927002 112 L 133.630997 112 Z M 138.395996 112 L 138.395996 103.600006 L 139.548004 103.600006 L 139.627991 105.151993 L 139.691986 105.151993 C 139.872986 104.619003 140.192993 104.207993 140.652008 103.919998 C 141.109985 103.632004 141.622009 103.488007 142.187988 103.488007 C 142.283997 103.488007 142.373993 103.492996 142.459991 103.503998 C 142.545013 103.503998 142.625 103.509003 142.700012 103.520004 L 142.700012 104.751999 C 142.625 104.740997 142.545013 104.735992 142.459991 104.735992 C 142.373993 104.725006 142.283997 104.720001 142.187988 104.720001 C 141.696991 104.720001 141.269989 104.811005 140.90799 104.992004 C 140.545013 105.173004 140.256989 105.434998 140.044006 105.776001 C 139.841003 106.106995 139.717987 106.511993 139.675995 106.992004 L 139.675995 112 L 138.395996 112 Z M 146.774994 112.143997 C 146.263 112.143997 145.794006 112.048004 145.367004 111.856003 C 144.950989 111.653 144.588989 111.371002 144.278992 111.007996 C 143.970001 110.634995 143.730011 110.181 143.55899 109.647995 C 143.398987 109.104004 143.319 108.485001 143.319 107.792007 C 143.319 106.875 143.463013 106.091003 143.751007 105.440002 C 144.049988 104.789001 144.454987 104.298996 144.96701 103.968002 C 145.48999 103.626999 146.092987 103.455994 146.774994 103.455994 C 147.265991 103.455994 147.709015 103.535995 148.102997 103.695999 C 148.509003 103.845001 148.850006 104.063995 149.127014 104.352005 C 149.404999 104.628998 149.613007 104.960007 149.751007 105.343994 L 149.830994 105.343994 L 149.878998 103.600006 L 151.127014 103.600006 L 151.127014 112 L 149.830994 112 L 149.830994 110.240005 L 149.751007 110.240005 C 149.537994 110.804993 149.174988 111.264008 148.662994 111.615997 C 148.151001 111.968002 147.522003 112.143997 146.774994 112.143997 Z M 147.207001 111.056 C 147.77301 111.056 148.247009 110.923004 148.631012 110.656006 C 149.015015 110.389008 149.30899 110.048004 149.510986 109.632004 C 149.713989 109.216003 149.815002 108.772995 149.815002 108.304001 L 149.815002 107.279999 C 149.815002 106.811005 149.713989 106.367996 149.510986 105.951996 C 149.30899 105.524994 149.015015 105.184006 148.631012 104.927994 C 148.247009 104.660995 147.77301 104.528 147.207001 104.528 C 146.695007 104.528 146.247009 104.656006 145.863007 104.912003 C 145.479004 105.156998 145.181 105.520004 144.96701 106 C 144.753998 106.479996 144.647003 107.076996 144.647003 107.792007 C 144.647003 108.496002 144.753998 109.093002 144.96701 109.584 C 145.181 110.063995 145.479004 110.432007 145.863007 110.688004 C 146.247009 110.932999 146.695007 111.056 147.207001 111.056 Z M 159.911987 112 L 159.911987 101.535995 L 156.135986 101.535995 L 156.135986 100.335999 L 165.079987 100.335999 L 165.079987 101.535995 L 161.287994 101.535995 L 161.287994 112 L 159.911987 112 Z M 168.335999 112.143997 C 167.727997 112.143997 167.174011 112.042999 166.671997 111.839996 C 166.182007 111.636993 165.755005 111.343994 165.391998 110.960007 C 165.040009 110.576004 164.763 110.123001 164.559998 109.600006 C 164.368011 109.067001 164.272003 108.475006 164.272003 107.824005 C 164.272003 106.960007 164.437988 106.203003 164.768005 105.552002 C 165.098999 104.901001 165.567993 104.395004 166.175995 104.031998 C 166.795013 103.658997 167.515015 103.472 168.335999 103.472 C 168.944 103.472 169.493988 103.572998 169.984009 103.776001 C 170.485992 103.968002 170.911987 104.255997 171.264008 104.639999 C 171.615997 105.024002 171.888 105.483002 172.079987 106.016006 C 172.272003 106.548996 172.368011 107.147003 172.368011 107.807999 C 172.368011 108.660995 172.203003 109.412994 171.872009 110.063995 C 171.552002 110.714996 171.088013 111.227005 170.480011 111.600006 C 169.872009 111.962997 169.15799 112.143997 168.335999 112.143997 Z M 168.335999 111.024002 C 168.880005 111.024002 169.355011 110.901001 169.76001 110.656006 C 170.165985 110.399994 170.480011 110.031998 170.70401 109.552002 C 170.938995 109.061005 171.056 108.479996 171.056 107.807999 C 171.056 107.307007 170.992004 106.858994 170.864014 106.464005 C 170.735992 106.059006 170.554993 105.716995 170.320007 105.440002 C 170.085999 105.151993 169.803009 104.932999 169.471985 104.783997 C 169.141998 104.634995 168.763 104.559998 168.335999 104.559998 C 167.791992 104.559998 167.312012 104.692993 166.895996 104.960007 C 166.490997 105.216003 166.17099 105.584 165.936005 106.063995 C 165.712006 106.544006 165.600006 107.130997 165.600006 107.824005 C 165.600006 108.315002 165.658997 108.763 165.776001 109.167999 C 165.903992 109.563004 166.085999 109.899002 166.320007 110.175995 C 166.56601 110.453003 166.859009 110.667007 167.200012 110.815994 C 167.541992 110.955002 167.920013 111.024002 168.335999 111.024002 Z M 177.835999 112.143997 C 177.227997 112.143997 176.674011 112.042999 176.171997 111.839996 C 175.682007 111.636993 175.255005 111.343994 174.891998 110.960007 C 174.540009 110.576004 174.263 110.123001 174.059998 109.600006 C 173.868011 109.067001 173.772003 108.475006 173.772003 107.824005 C 173.772003 106.960007 173.937988 106.203003 174.268005 105.552002 C 174.598999 104.901001 175.067993 104.395004 175.675995 104.031998 C 176.295013 103.658997 177.015015 103.472 177.835999 103.472 C 178.444 103.472 178.993988 103.572998 179.484009 103.776001 C 179.985992 103.968002 180.411987 104.255997 180.764008 104.639999 C 181.115997 105.024002 181.388 105.483002 181.579987 106.016006 C 181.772003 106.548996 181.868011 107.147003 181.868011 107.807999 C 181.868011 108.660995 181.703003 109.412994 181.372009 110.063995 C 181.052002 110.714996 180.588013 111.227005 179.980011 111.600006 C 179.372009 111.962997 178.65799 112.143997 177.835999 112.143997 Z M 177.835999 111.024002 C 178.380005 111.024002 178.855011 110.901001 179.26001 110.656006 C 179.665985 110.399994 179.980011 110.031998 180.20401 109.552002 C 180.438995 109.061005 180.556 108.479996 180.556 107.807999 C 180.556 107.307007 180.492004 106.858994 180.364014 106.464005 C 180.235992 106.059006 180.054993 105.716995 179.820007 105.440002 C 179.585999 105.151993 179.303009 104.932999 178.971985 104.783997 C 178.641998 104.634995 178.263 104.559998 177.835999 104.559998 C 177.291992 104.559998 176.812012 104.692993 176.395996 104.960007 C 175.990997 105.216003 175.67099 105.584 175.436005 106.063995 C 175.212006 106.544006 175.100006 107.130997 175.100006 107.824005 C 175.100006 108.315002 175.158997 108.763 175.276001 109.167999 C 175.403992 109.563004 175.585999 109.899002 175.820007 110.175995 C 176.06601 110.453003 176.359009 110.667007 176.700012 110.815994 C 177.041992 110.955002 177.420013 111.024002 177.835999 111.024002 Z M 183.708008 112 L 183.708008 100.335999 L 185.003998 100.335999 L 185.003998 112 L 183.708008 112 Z"/>
    </g>
    <g id="g3">
        <path id="path8" fill="#ffffff" stroke="none" d="M 31 154.100998 L 273 154.100998 C 279.627411 154.100998 285 159.473572 285 166.101013 L 285 186.101013 C 285 192.728424 279.627411 198.101013 273 198.101013 L 31 198.101013 C 24.372589 198.101013 19 192.728424 19 186.101013 L 19 166.101013 C 19 159.473572 24.372589 154.100998 31 154.100998 Z"/>
        <path id="path9" fill="none" stroke="#000000" d="M 31 154.600998 L 273 154.600998 C 279.351288 154.600998 284.5 159.749725 284.5 166.101013 L 284.5 186.101013 C 284.5 192.452271 279.351288 197.601013 273 197.601013 L 31 197.601013 C 24.648727 197.601013 19.5 192.452271 19.5 186.101013 L 19.5 166.101013 C 19.5 159.749725 24.648727 154.600998 31 154.600998 Z"/>
        <path id="path10" fill="#131316" stroke="none" d="M 116.477997 181.101013 L 120.75 169.437012 L 122.654007 169.437012 L 126.925995 181.101013 L 125.501999 181.101013 L 124.445999 178.221008 L 118.957993 178.221008 L 117.917999 181.101013 L 116.477997 181.101013 Z M 119.309998 177.132996 L 124.093994 177.132996 L 122.654007 173.229004 L 121.757996 170.71701 L 121.677994 170.71701 L 120.766006 173.229004 L 119.309998 177.132996 Z M 128.464996 181.101013 L 128.464996 169.437012 L 129.824997 169.437012 L 129.824997 181.101013 L 128.464996 181.101013 Z M 140.272003 181.244995 C 139.247986 181.244995 138.399994 181.084991 137.727997 180.765015 C 137.066986 180.445007 136.570999 180.002014 136.240005 179.437012 C 135.919998 178.860992 135.75 178.204987 135.727997 177.468994 L 137.152008 177.468994 C 137.162994 178.013 137.279999 178.487 137.503998 178.893005 C 137.739014 179.298004 138.079987 179.606995 138.528015 179.821014 C 138.987 180.033997 139.574005 180.140991 140.287994 180.140991 C 141.195007 180.140991 141.920013 179.975006 142.463989 179.644989 C 143.019012 179.303009 143.29599 178.786011 143.29599 178.092987 C 143.29599 177.709015 143.238007 177.389008 143.119995 177.132996 C 143.002991 176.865997 142.81601 176.647003 142.559998 176.47699 C 142.303986 176.306 141.967987 176.161987 141.552002 176.045013 C 141.135986 175.916992 140.63501 175.804993 140.048004 175.709015 C 139.376007 175.580994 138.790009 175.437012 138.287994 175.277008 C 137.786987 175.117004 137.365997 174.919006 137.023987 174.684998 C 136.694 174.438995 136.442993 174.140991 136.272003 173.789001 C 136.102005 173.437012 136.016006 173.015015 136.016006 172.524994 C 136.016006 171.873993 136.182007 171.30899 136.511993 170.82901 C 136.843002 170.338013 137.317993 169.964996 137.936005 169.709015 C 138.554993 169.441986 139.302002 169.30899 140.175995 169.30899 C 141.062012 169.30899 141.808014 169.453003 142.415985 169.740997 C 143.023987 170.018005 143.493988 170.407013 143.824005 170.908997 C 144.154999 171.410004 144.325989 172.002014 144.335999 172.684998 L 142.944 172.684998 C 142.923004 172.173004 142.795013 171.746002 142.559998 171.404999 C 142.325989 171.062988 142 170.807007 141.584015 170.636993 C 141.167999 170.466003 140.678009 170.381012 140.112 170.381012 C 139.536011 170.381012 139.050995 170.466003 138.656006 170.636993 C 138.261993 170.796997 137.958008 171.020996 137.743988 171.30899 C 137.531006 171.596985 137.424011 171.937988 137.424011 172.333008 C 137.424011 172.802002 137.531006 173.170013 137.743988 173.437012 C 137.967987 173.692993 138.320007 173.894989 138.799988 174.045013 C 139.290985 174.194 139.925995 174.338013 140.70401 174.47699 C 141.238007 174.562012 141.743988 174.674011 142.223999 174.812988 C 142.70401 174.950989 143.131012 175.143005 143.503998 175.389008 C 143.877991 175.634003 144.17099 175.964996 144.384003 176.381012 C 144.608002 176.786011 144.720001 177.313995 144.720001 177.964996 C 144.720001 178.61499 144.549988 179.186005 144.208008 179.677002 C 143.867004 180.166992 143.365997 180.550995 142.70401 180.82901 C 142.042999 181.105988 141.231995 181.244995 140.272003 181.244995 Z M 150.132996 181.244995 C 149.524994 181.244995 148.970001 181.143005 148.468994 180.94101 C 147.977997 180.72699 147.557007 180.43399 147.204987 180.061005 C 146.852997 179.677002 146.580994 179.222992 146.389008 178.700989 C 146.196991 178.166992 146.101013 177.570007 146.101013 176.908997 C 146.101013 176.045013 146.265991 175.286987 146.596985 174.636993 C 146.937988 173.985992 147.412994 173.479004 148.020996 173.117004 C 148.639008 172.753998 149.359009 172.572998 150.181 172.572998 C 150.84201 172.572998 151.43399 172.695007 151.957001 172.94101 C 152.479004 173.186005 152.901001 173.53299 153.221008 173.980988 C 153.540985 174.417999 153.721985 174.929993 153.765015 175.516998 L 152.516998 175.516998 C 152.441986 175.110992 152.292999 174.774994 152.069 174.509003 C 151.845001 174.242004 151.566986 174.039001 151.237 173.901001 C 150.906006 173.751007 150.542999 173.677002 150.148987 173.677002 C 149.572998 173.677002 149.082001 173.815002 148.677002 174.092987 C 148.270996 174.359009 147.957001 174.738007 147.733002 175.229004 C 147.519012 175.709015 147.412994 176.273987 147.412994 176.924988 C 147.412994 177.596985 147.524994 178.173004 147.748993 178.653015 C 147.983002 179.132996 148.303009 179.501007 148.709015 179.756989 C 149.114014 180.013 149.588989 180.140991 150.132996 180.140991 C 150.580994 180.140991 150.975006 180.061005 151.316986 179.901001 C 151.669006 179.730011 151.946014 179.494995 152.148987 179.196991 C 152.362 178.89801 152.494995 178.550995 152.549011 178.157013 L 153.812988 178.157013 C 153.759003 178.774994 153.566986 179.319 153.237 179.789001 C 152.916992 180.247009 152.48999 180.605011 151.957001 180.860992 C 151.423004 181.117004 150.815002 181.244995 150.132996 181.244995 Z M 155.598999 181.101013 L 155.598999 172.700989 L 156.751007 172.700989 L 156.830994 174.252991 L 156.894989 174.252991 C 157.075989 173.718994 157.395996 173.30899 157.855011 173.020996 C 158.312988 172.733002 158.825012 172.588989 159.390991 172.588989 C 159.487 172.588989 159.576996 172.593994 159.662994 172.605011 C 159.747986 172.605011 159.828003 172.609985 159.903015 172.621002 L 159.903015 173.852997 C 159.828003 173.84201 159.747986 173.837006 159.662994 173.837006 C 159.576996 173.825989 159.487 173.821014 159.390991 173.821014 C 158.899994 173.821014 158.472992 173.911011 158.110992 174.092987 C 157.747986 174.273987 157.459991 174.535004 157.247009 174.877014 C 157.044006 175.207001 156.92099 175.613007 156.878998 176.092987 L 156.878998 181.101013 L 155.598999 181.101013 Z M 161.427002 181.101013 L 161.427002 172.700989 L 162.722992 172.700989 L 162.722992 181.101013 L 161.427002 181.101013 Z M 161.427002 171.30899 L 161.427002 169.437012 L 162.722992 169.437012 L 162.722992 171.30899 L 161.427002 171.30899 Z M 165.161011 183.77301 L 165.177002 172.700989 L 166.408997 172.700989 L 166.457001 174.445007 L 166.553009 174.445007 C 166.756012 173.878998 167.113007 173.425995 167.625 173.084991 C 168.14801 172.733002 168.777008 172.557007 169.513 172.557007 C 170.024994 172.557007 170.489014 172.653015 170.904999 172.845001 C 171.332001 173.036987 171.700012 173.319 172.009003 173.692993 C 172.319 174.06601 172.553009 174.524994 172.713013 175.069 C 172.884003 175.60199 172.968994 176.214996 172.968994 176.908997 C 172.968994 177.825989 172.825012 178.609985 172.536987 179.260986 C 172.248993 179.901001 171.843994 180.390991 171.321014 180.733002 C 170.80899 181.074005 170.207001 181.244995 169.513 181.244995 C 169.03299 181.244995 168.591003 181.170013 168.184998 181.020996 C 167.790985 180.860992 167.454987 180.636993 167.177002 180.348999 C 166.899994 180.061005 166.691986 179.730011 166.553009 179.356995 L 166.457001 179.356995 L 166.457001 183.77301 L 165.161011 183.77301 Z M 169.080994 180.157013 C 169.592987 180.157013 170.040985 180.033997 170.424988 179.789001 C 170.80899 179.542999 171.108002 179.181 171.321014 178.700989 C 171.545013 178.209991 171.657013 177.613007 171.657013 176.908997 C 171.657013 176.194 171.545013 175.596985 171.321014 175.117004 C 171.108002 174.636993 170.80899 174.273987 170.424988 174.028992 C 170.040985 173.77301 169.592987 173.644989 169.080994 173.644989 C 168.527008 173.644989 168.052002 173.778015 167.657013 174.045013 C 167.27301 174.300995 166.980011 174.641998 166.777008 175.069 C 166.575012 175.484985 166.472992 175.927002 166.472992 176.397003 L 166.472992 177.404999 C 166.472992 177.756989 166.532013 178.097992 166.648987 178.428986 C 166.766998 178.759003 166.932007 179.058014 167.144989 179.325012 C 167.368988 179.580994 167.640991 179.78299 167.960999 179.933014 C 168.291992 180.082001 168.665009 180.157013 169.080994 180.157013 Z M 177.041992 181.101013 C 176.626007 181.101013 176.295013 181.041992 176.049988 180.924988 C 175.815002 180.807007 175.644012 180.631012 175.537994 180.397003 C 175.441986 180.151001 175.394012 179.852997 175.394012 179.501007 L 175.394012 173.77301 L 173.761993 173.77301 L 173.761993 172.700989 L 175.394012 172.700989 L 175.394012 170.188995 L 176.690002 170.013 L 176.690002 172.700989 L 178.641998 172.700989 L 178.641998 173.77301 L 176.690002 173.77301 L 176.690002 179.277008 C 176.690002 179.575012 176.743011 179.77301 176.850006 179.868988 C 176.955994 179.964996 177.153992 180.013 177.441986 180.013 L 178.641998 180.013 L 178.641998 181.101013 L 177.041992 181.101013 Z M 183.372986 181.260986 C 182.252991 181.260986 181.389008 181.005005 180.781006 180.493011 C 180.183014 179.980988 179.88501 179.30899 179.88501 178.47699 L 181.181 178.47699 C 181.181 179.105988 181.389008 179.570007 181.804993 179.868988 C 182.221008 180.157013 182.753998 180.300995 183.404999 180.300995 C 184.076996 180.300995 184.588989 180.178009 184.94101 179.933014 C 185.292999 179.687012 185.468994 179.341003 185.468994 178.893005 C 185.468994 178.540985 185.394012 178.269012 185.244995 178.076996 C 185.095001 177.88501 184.860992 177.740997 184.540985 177.644989 C 184.221008 177.537994 183.804993 177.446991 183.292999 177.372986 C 182.812988 177.298004 182.375 177.213013 181.980988 177.117004 C 181.596985 177.01001 181.265991 176.871002 180.989014 176.700989 C 180.710999 176.519012 180.497986 176.290009 180.348999 176.013 C 180.199005 175.734985 180.125 175.394012 180.125 174.989014 C 180.125 174.47699 180.257996 174.039001 180.524994 173.677002 C 180.802002 173.313995 181.181 173.036987 181.661011 172.845001 C 182.151001 172.641998 182.721985 172.540985 183.372986 172.540985 C 184.054993 172.540985 184.636993 172.647003 185.117004 172.860992 C 185.596985 173.074005 185.964996 173.377991 186.221008 173.77301 C 186.47699 174.157013 186.609985 174.621002 186.621002 175.165009 L 185.356995 175.165009 C 185.346008 174.769989 185.255005 174.454987 185.084991 174.221008 C 184.924988 173.975006 184.695007 173.794006 184.397003 173.677002 C 184.109009 173.55899 183.761993 173.501007 183.356995 173.501007 C 182.738007 173.501007 182.257996 173.628998 181.916992 173.88501 C 181.585999 174.130005 181.42099 174.454987 181.42099 174.860992 C 181.42099 175.158997 181.501007 175.404999 181.661011 175.596985 C 181.821014 175.789001 182.06601 175.937988 182.397003 176.045013 C 182.72699 176.140991 183.143005 176.226013 183.644989 176.300995 C 184.092987 176.36499 184.502991 176.445007 184.877014 176.540985 C 185.25 176.636993 185.580994 176.769989 185.868988 176.94101 C 186.157013 177.110992 186.381012 177.346008 186.540985 177.644989 C 186.710999 177.942993 186.796997 178.321991 186.796997 178.781006 C 186.796997 179.60199 186.487 180.221008 185.868988 180.636993 C 185.25 181.053009 184.417999 181.260986 183.372986 181.260986 Z"/>
    </g>
    <path id="path11" fill="#de3030" stroke="none" d="M 153.140991 61 L 150.253998 66 L 156.028015 66 L 153.140991 61 Z M 153.140991 86.100998 L 156.028015 81.100998 L 150.253998 81.100998 L 153.140991 86.100998 Z M 153.140991 64.138 L 152.640991 64.138 L 152.640991 66.229004 L 153.140991 66.229004 L 153.640991 66.229004 L 153.640991 64.138 L 153.140991 64.138 Z M 153.140991 68.320999 L 152.640991 68.320999 L 152.640991 70.412994 L 153.140991 70.412994 L 153.640991 70.412994 L 153.640991 68.320999 L 153.140991 68.320999 Z M 153.140991 72.503998 L 152.640991 72.503998 L 152.640991 74.595993 L 153.140991 74.595993 L 153.640991 74.595993 L 153.640991 72.503998 L 153.140991 72.503998 Z M 153.140991 76.688004 L 152.640991 76.688004 L 152.640991 78.779999 L 153.140991 78.779999 L 153.640991 78.779999 L 153.640991 76.688004 L 153.140991 76.688004 Z M 153.140991 80.871002 L 152.640991 80.871002 L 152.640991 82.962997 L 153.140991 82.962997 L 153.640991 82.962997 L 153.640991 80.871002 L 153.140991 80.871002 Z"/>
    <path id="path12" fill="#de3030" stroke="none" d="M 224.929993 61 L 222.042999 66 L 227.81601 66 L 224.929993 61 Z M 224.929993 64.138 L 224.429993 64.138 L 224.429993 66.229004 L 224.929993 66.229004 L 225.429993 66.229004 L 225.429993 64.138 L 224.929993 64.138 Z M 224.929993 68.320999 L 224.429993 68.320999 L 224.429993 70.412994 L 224.929993 70.412994 L 225.429993 70.412994 L 225.429993 68.320999 L 224.929993 68.320999 Z M 224.929993 72.503998 L 224.429993 72.503998 L 224.429993 74.595993 L 224.929993 74.595993 L 225.429993 74.595993 L 225.429993 72.503998 L 224.929993 72.503998 Z M 224.929993 76.688004 L 224.429993 76.688004 L 224.429993 78.779999 L 224.929993 78.779999 L 225.429993 78.779999 L 225.429993 76.688004 L 224.929993 76.688004 Z M 224.929993 80.871002 L 224.429993 80.871002 L 224.429993 82.962997 L 224.929993 82.962997 L 225.429993 82.962997 L 225.429993 80.871002 L 224.929993 80.871002 Z M 224.929993 85.054993 L 224.429993 85.054993 L 224.429993 86.100998 L 224.929993 86.100998 L 225.429993 86.100998 L 225.429993 85.054993 L 224.929993 85.054993 Z"/>
    <path id="path13" fill="#de3030" stroke="none" d="M 19.479004 107.595993 L 14.479004 104.710007 L 14.479004 110.483002 L 19.479004 107.595993 Z M 153.140991 154.100998 L 156.028015 149.100998 L 150.253998 149.100998 L 153.140991 154.100998 Z M 153.140991 140.389008 L 153.640991 140.389008 L 153.640991 139.889008 L 153.140991 139.889008 L 153.140991 140.389008 Z M 1.806999 140.389008 L 1.306999 140.389008 L 1.306999 140.889008 L 1.806999 140.889008 L 1.806999 140.389008 Z M 1.806999 107.595993 L 1.806999 107.095993 L 1.306999 107.095993 L 1.306999 107.595993 L 1.806999 107.595993 Z M 16.166 107.595993 L 16.166 107.095993 L 13.957001 107.095993 L 13.957001 107.595993 L 13.957001 108.095993 L 16.166 108.095993 L 16.166 107.595993 Z M 11.748001 107.595993 L 11.748001 107.095993 L 9.539001 107.095993 L 9.539001 107.595993 L 9.539001 108.095993 L 11.748001 108.095993 L 11.748001 107.595993 Z M 7.330002 107.595993 L 7.330002 107.095993 L 5.121002 107.095993 L 5.121002 107.595993 L 5.121002 108.095993 L 7.330002 108.095993 L 7.330002 107.595993 Z M 2.912003 107.595993 L 2.912003 107.095993 L 1.806999 107.095993 L 1.806999 107.595993 L 1.806999 108.095993 L 2.912003 108.095993 L 2.912003 107.595993 Z M 1.806999 107.595993 L 1.306999 107.595993 L 1.306999 108.621002 L 1.806999 108.621002 L 2.306999 108.621002 L 2.306999 107.595993 L 1.806999 107.595993 Z M 1.806999 110.671005 L 1.306999 110.671005 L 1.306999 112.720001 L 1.806999 112.720001 L 2.306999 112.720001 L 2.306999 110.671005 L 1.806999 110.671005 Z M 1.806999 114.770004 L 1.306999 114.770004 L 1.306999 116.819 L 1.806999 116.819 L 2.306999 116.819 L 2.306999 114.770004 L 1.806999 114.770004 Z M 1.806999 118.869003 L 1.306999 118.869003 L 1.306999 120.917999 L 1.806999 120.917999 L 2.306999 120.917999 L 2.306999 118.869003 L 1.806999 118.869003 Z M 1.806999 122.968002 L 1.306999 122.968002 L 1.306999 125.018005 L 1.806999 125.018005 L 2.306999 125.018005 L 2.306999 122.968002 L 1.806999 122.968002 Z M 1.806999 127.067001 L 1.306999 127.067001 L 1.306999 129.117004 L 1.806999 129.117004 L 2.306999 129.117004 L 2.306999 127.067001 L 1.806999 127.067001 Z M 1.806999 131.166 L 1.306999 131.166 L 1.306999 133.216003 L 1.806999 133.216003 L 2.306999 133.216003 L 2.306999 131.166 L 1.806999 131.166 Z M 1.806999 135.264999 L 1.306999 135.264999 L 1.306999 137.315002 L 1.806999 137.315002 L 2.306999 137.315002 L 2.306999 135.264999 L 1.806999 135.264999 Z M 1.806999 139.365005 L 1.306999 139.365005 L 1.306999 140.389008 L 1.806999 140.389008 L 2.306999 140.389008 L 2.306999 139.365005 L 1.806999 139.365005 Z M 1.806999 140.389008 L 1.806999 140.889008 L 2.803001 140.889008 L 2.803001 140.389008 L 2.803001 139.889008 L 1.806999 139.889008 L 1.806999 140.389008 Z M 4.793999 140.389008 L 4.793999 140.889008 L 6.785004 140.889008 L 6.785004 140.389008 L 6.785004 139.889008 L 4.793999 139.889008 L 4.793999 140.389008 Z M 8.776001 140.389008 L 8.776001 140.889008 L 10.768005 140.889008 L 10.768005 140.389008 L 10.768005 139.889008 L 8.776001 139.889008 L 8.776001 140.389008 Z M 12.759003 140.389008 L 12.759003 140.889008 L 14.75 140.889008 L 14.75 140.389008 L 14.75 139.889008 L 12.759003 139.889008 L 12.759003 140.389008 Z M 16.740997 140.389008 L 16.740997 140.889008 L 18.733002 140.889008 L 18.733002 140.389008 L 18.733002 139.889008 L 16.740997 139.889008 L 16.740997 140.389008 Z M 20.723999 140.389008 L 20.723999 140.889008 L 22.714996 140.889008 L 22.714996 140.389008 L 22.714996 139.889008 L 20.723999 139.889008 L 20.723999 140.389008 Z M 24.705994 140.389008 L 24.705994 140.889008 L 26.697998 140.889008 L 26.697998 140.389008 L 26.697998 139.889008 L 24.705994 139.889008 L 24.705994 140.389008 Z M 28.688995 140.389008 L 28.688995 140.889008 L 30.679993 140.889008 L 30.679993 140.389008 L 30.679993 139.889008 L 28.688995 139.889008 L 28.688995 140.389008 Z M 32.671005 140.389008 L 32.671005 140.889008 L 34.662003 140.889008 L 34.662003 140.389008 L 34.662003 139.889008 L 32.671005 139.889008 L 32.671005 140.389008 Z M 36.654007 140.389008 L 36.654007 140.889008 L 38.645004 140.889008 L 38.645004 140.389008 L 38.645004 139.889008 L 36.654007 139.889008 L 36.654007 140.389008 Z M 40.636002 140.389008 L 40.636002 140.889008 L 42.626999 140.889008 L 42.626999 140.389008 L 42.626999 139.889008 L 40.636002 139.889008 L 40.636002 140.389008 Z M 44.619003 140.389008 L 44.619003 140.889008 L 46.610001 140.889008 L 46.610001 140.389008 L 46.610001 139.889008 L 44.619003 139.889008 L 44.619003 140.389008 Z M 48.600998 140.389008 L 48.600998 140.889008 L 50.591995 140.889008 L 50.591995 140.389008 L 50.591995 139.889008 L 48.600998 139.889008 L 48.600998 140.389008 Z M 52.584 140.389008 L 52.584 140.889008 L 54.574997 140.889008 L 54.574997 140.389008 L 54.574997 139.889008 L 52.584 139.889008 L 52.584 140.389008 Z M 56.565994 140.389008 L 56.565994 140.889008 L 58.557007 140.889008 L 58.557007 140.389008 L 58.557007 139.889008 L 56.565994 139.889008 L 56.565994 140.389008 Z M 60.548996 140.389008 L 60.548996 140.889008 L 62.539993 140.889008 L 62.539993 140.389008 L 62.539993 139.889008 L 60.548996 139.889008 L 60.548996 140.389008 Z M 64.531006 140.389008 L 64.531006 140.889008 L 66.522003 140.889008 L 66.522003 140.389008 L 66.522003 139.889008 L 64.531006 139.889008 L 64.531006 140.389008 Z M 68.514008 140.389008 L 68.514008 140.889008 L 70.505005 140.889008 L 70.505005 140.389008 L 70.505005 139.889008 L 68.514008 139.889008 L 68.514008 140.389008 Z M 72.496002 140.389008 L 72.496002 140.889008 L 74.487 140.889008 L 74.487 140.389008 L 74.487 139.889008 L 72.496002 139.889008 L 72.496002 140.389008 Z M 76.477997 140.389008 L 76.477997 140.889008 L 78.470001 140.889008 L 78.470001 140.389008 L 78.470001 139.889008 L 76.477997 139.889008 L 76.477997 140.389008 Z M 80.460999 140.389008 L 80.460999 140.889008 L 82.451996 140.889008 L 82.451996 140.389008 L 82.451996 139.889008 L 80.460999 139.889008 L 80.460999 140.389008 Z M 84.442993 140.389008 L 84.442993 140.889008 L 86.434998 140.889008 L 86.434998 140.389008 L 86.434998 139.889008 L 84.442993 139.889008 L 84.442993 140.389008 Z M 88.425995 140.389008 L 88.425995 140.889008 L 90.417007 140.889008 L 90.417007 140.389008 L 90.417007 139.889008 L 88.425995 139.889008 L 88.425995 140.389008 Z M 92.408005 140.389008 L 92.408005 140.889008 L 94.399994 140.889008 L 94.399994 140.389008 L 94.399994 139.889008 L 92.408005 139.889008 L 92.408005 140.389008 Z M 96.391006 140.389008 L 96.391006 140.889008 L 98.382004 140.889008 L 98.382004 140.389008 L 98.382004 139.889008 L 96.391006 139.889008 L 96.391006 140.389008 Z M 100.373001 140.389008 L 100.373001 140.889008 L 102.365005 140.889008 L 102.365005 140.389008 L 102.365005 139.889008 L 100.373001 139.889008 L 100.373001 140.389008 Z M 104.356003 140.389008 L 104.356003 140.889008 L 106.347 140.889008 L 106.347 140.389008 L 106.347 139.889008 L 104.356003 139.889008 L 104.356003 140.389008 Z M 108.337997 140.389008 L 108.337997 140.889008 L 110.330002 140.889008 L 110.330002 140.389008 L 110.330002 139.889008 L 108.337997 139.889008 L 108.337997 140.389008 Z M 112.320999 140.389008 L 112.320999 140.889008 L 114.311996 140.889008 L 114.311996 140.389008 L 114.311996 139.889008 L 112.320999 139.889008 L 112.320999 140.389008 Z M 116.302994 140.389008 L 116.302994 140.889008 L 118.294998 140.889008 L 118.294998 140.389008 L 118.294998 139.889008 L 116.302994 139.889008 L 116.302994 140.389008 Z M 120.285995 140.389008 L 120.285995 140.889008 L 122.276993 140.889008 L 122.276993 140.389008 L 122.276993 139.889008 L 120.285995 139.889008 L 120.285995 140.389008 Z M 124.268005 140.389008 L 124.268005 140.889008 L 126.259995 140.889008 L 126.259995 140.389008 L 126.259995 139.889008 L 124.268005 139.889008 L 124.268005 140.389008 Z M 128.251007 140.389008 L 128.251007 140.889008 L 130.242004 140.889008 L 130.242004 140.389008 L 130.242004 139.889008 L 128.251007 139.889008 L 128.251007 140.389008 Z M 132.233002 140.389008 L 132.233002 140.889008 L 134.223999 140.889008 L 134.223999 140.389008 L 134.223999 139.889008 L 132.233002 139.889008 L 132.233002 140.389008 Z M 136.216003 140.389008 L 136.216003 140.889008 L 138.207001 140.889008 L 138.207001 140.389008 L 138.207001 139.889008 L 136.216003 139.889008 L 136.216003 140.389008 Z M 140.197998 140.389008 L 140.197998 140.889008 L 142.188995 140.889008 L 142.188995 140.389008 L 142.188995 139.889008 L 140.197998 139.889008 L 140.197998 140.389008 Z M 144.181 140.389008 L 144.181 140.889008 L 146.171997 140.889008 L 146.171997 140.389008 L 146.171997 139.889008 L 144.181 139.889008 L 144.181 140.389008 Z M 148.162994 140.389008 L 148.162994 140.889008 L 150.153992 140.889008 L 150.153992 140.389008 L 150.153992 139.889008 L 148.162994 139.889008 L 148.162994 140.389008 Z M 152.145996 140.389008 L 152.145996 140.889008 L 153.140991 140.889008 L 153.140991 140.389008 L 153.140991 139.889008 L 152.145996 139.889008 L 152.145996 140.389008 Z M 153.140991 140.389008 L 152.640991 140.389008 L 152.640991 141.531998 L 153.140991 141.531998 L 153.640991 141.531998 L 153.640991 140.389008 L 153.140991 140.389008 Z M 153.140991 143.817001 L 152.640991 143.817001 L 152.640991 146.102997 L 153.140991 146.102997 L 153.640991 146.102997 L 153.640991 143.817001 L 153.140991 143.817001 Z M 153.140991 148.388 L 152.640991 148.388 L 152.640991 150.673004 L 153.140991 150.673004 L 153.640991 150.673004 L 153.640991 148.388 L 153.140991 148.388 Z"/>
    <path id="path14" fill="#de3030" stroke="none" d="M 19.479004 107.595993 L 14.479004 110.483002 L 14.479004 104.709 L 19.479004 107.595993 Z M 153.140991 61 L 156.028015 66 L 150.253998 66 L 153.140991 61 Z M 153.140991 74.738998 L 153.640991 74.738998 L 153.640991 75.238998 L 153.140991 75.238998 L 153.140991 74.738998 Z M 1.806999 74.738998 L 1.306999 74.738998 L 1.306999 74.238998 L 1.806999 74.238998 L 1.806999 74.738998 Z M 1.806999 107.595993 L 1.806999 108.095993 L 1.306999 108.095993 L 1.306999 107.595993 L 1.806999 107.595993 Z M 16.166 107.595993 L 16.166 108.095993 L 13.957001 108.095993 L 13.957001 107.595993 L 13.957001 107.095993 L 16.166 107.095993 L 16.166 107.595993 Z M 11.748001 107.595993 L 11.748001 108.095993 L 9.539001 108.095993 L 9.539001 107.595993 L 9.539001 107.095993 L 11.748001 107.095993 L 11.748001 107.595993 Z M 7.330002 107.595993 L 7.330002 108.095993 L 5.121002 108.095993 L 5.121002 107.595993 L 5.121002 107.095993 L 7.330002 107.095993 L 7.330002 107.595993 Z M 2.912003 107.595993 L 2.912003 108.095993 L 1.806999 108.095993 L 1.806999 107.595993 L 1.806999 107.095993 L 2.912003 107.095993 L 2.912003 107.595993 Z M 1.806999 107.595993 L 1.306999 107.595993 L 1.306999 106.569 L 1.806999 106.569 L 2.306999 106.569 L 2.306999 107.595993 L 1.806999 107.595993 Z M 1.806999 104.516006 L 1.306999 104.516006 L 1.306999 102.462006 L 1.806999 102.462006 L 2.306999 102.462006 L 2.306999 104.516006 L 1.806999 104.516006 Z M 1.806999 100.408997 L 1.306999 100.408997 L 1.306999 98.354996 L 1.806999 98.354996 L 2.306999 98.354996 L 2.306999 100.408997 L 1.806999 100.408997 Z M 1.806999 96.300995 L 1.306999 96.300995 L 1.306999 94.248001 L 1.806999 94.248001 L 2.306999 94.248001 L 2.306999 96.300995 L 1.806999 96.300995 Z M 1.806999 92.194 L 1.306999 92.194 L 1.306999 90.141006 L 1.806999 90.141006 L 2.306999 90.141006 L 2.306999 92.194 L 1.806999 92.194 Z M 1.806999 88.087006 L 1.306999 88.087006 L 1.306999 86.033005 L 1.806999 86.033005 L 2.306999 86.033005 L 2.306999 88.087006 L 1.806999 88.087006 Z M 1.806999 83.979996 L 1.306999 83.979996 L 1.306999 81.925995 L 1.806999 81.925995 L 2.306999 81.925995 L 2.306999 83.979996 L 1.806999 83.979996 Z M 1.806999 79.873001 L 1.306999 79.873001 L 1.306999 77.819 L 1.806999 77.819 L 2.306999 77.819 L 2.306999 79.873001 L 1.806999 79.873001 Z M 1.806999 75.766006 L 1.306999 75.766006 L 1.306999 74.738998 L 1.806999 74.738998 L 2.306999 74.738998 L 2.306999 75.766006 L 1.806999 75.766006 Z M 1.806999 74.738998 L 1.806999 74.238998 L 2.803001 74.238998 L 2.803001 74.738998 L 2.803001 75.238998 L 1.806999 75.238998 L 1.806999 74.738998 Z M 4.793999 74.738998 L 4.793999 74.238998 L 6.785004 74.238998 L 6.785004 74.738998 L 6.785004 75.238998 L 4.793999 75.238998 L 4.793999 74.738998 Z M 8.776001 74.738998 L 8.776001 74.238998 L 10.768005 74.238998 L 10.768005 74.738998 L 10.768005 75.238998 L 8.776001 75.238998 L 8.776001 74.738998 Z M 12.759003 74.738998 L 12.759003 74.238998 L 14.75 74.238998 L 14.75 74.738998 L 14.75 75.238998 L 12.759003 75.238998 L 12.759003 74.738998 Z M 16.740997 74.738998 L 16.740997 74.238998 L 18.733002 74.238998 L 18.733002 74.738998 L 18.733002 75.238998 L 16.740997 75.238998 L 16.740997 74.738998 Z M 20.723999 74.738998 L 20.723999 74.238998 L 22.714996 74.238998 L 22.714996 74.738998 L 22.714996 75.238998 L 20.723999 75.238998 L 20.723999 74.738998 Z M 24.705994 74.738998 L 24.705994 74.238998 L 26.697998 74.238998 L 26.697998 74.738998 L 26.697998 75.238998 L 24.705994 75.238998 L 24.705994 74.738998 Z M 28.688995 74.738998 L 28.688995 74.238998 L 30.679993 74.238998 L 30.679993 74.738998 L 30.679993 75.238998 L 28.688995 75.238998 L 28.688995 74.738998 Z M 32.671005 74.738998 L 32.671005 74.238998 L 34.662003 74.238998 L 34.662003 74.738998 L 34.662003 75.238998 L 32.671005 75.238998 L 32.671005 74.738998 Z M 36.654007 74.738998 L 36.654007 74.238998 L 38.645004 74.238998 L 38.645004 74.738998 L 38.645004 75.238998 L 36.654007 75.238998 L 36.654007 74.738998 Z M 40.636002 74.738998 L 40.636002 74.238998 L 42.626999 74.238998 L 42.626999 74.738998 L 42.626999 75.238998 L 40.636002 75.238998 L 40.636002 74.738998 Z M 44.619003 74.738998 L 44.619003 74.238998 L 46.610001 74.238998 L 46.610001 74.738998 L 46.610001 75.238998 L 44.619003 75.238998 L 44.619003 74.738998 Z M 48.600998 74.738998 L 48.600998 74.238998 L 50.591995 74.238998 L 50.591995 74.738998 L 50.591995 75.238998 L 48.600998 75.238998 L 48.600998 74.738998 Z M 52.584 74.738998 L 52.584 74.238998 L 54.574997 74.238998 L 54.574997 74.738998 L 54.574997 75.238998 L 52.584 75.238998 L 52.584 74.738998 Z M 56.565994 74.738998 L 56.565994 74.238998 L 58.557007 74.238998 L 58.557007 74.738998 L 58.557007 75.238998 L 56.565994 75.238998 L 56.565994 74.738998 Z M 60.548996 74.738998 L 60.548996 74.238998 L 62.539993 74.238998 L 62.539993 74.738998 L 62.539993 75.238998 L 60.548996 75.238998 L 60.548996 74.738998 Z M 64.531006 74.738998 L 64.531006 74.238998 L 66.522003 74.238998 L 66.522003 74.738998 L 66.522003 75.238998 L 64.531006 75.238998 L 64.531006 74.738998 Z M 68.514008 74.738998 L 68.514008 74.238998 L 70.505005 74.238998 L 70.505005 74.738998 L 70.505005 75.238998 L 68.514008 75.238998 L 68.514008 74.738998 Z M 72.496002 74.738998 L 72.496002 74.238998 L 74.487 74.238998 L 74.487 74.738998 L 74.487 75.238998 L 72.496002 75.238998 L 72.496002 74.738998 Z M 76.477997 74.738998 L 76.477997 74.238998 L 78.470001 74.238998 L 78.470001 74.738998 L 78.470001 75.238998 L 76.477997 75.238998 L 76.477997 74.738998 Z M 80.460999 74.738998 L 80.460999 74.238998 L 82.451996 74.238998 L 82.451996 74.738998 L 82.451996 75.238998 L 80.460999 75.238998 L 80.460999 74.738998 Z M 84.442993 74.738998 L 84.442993 74.238998 L 86.434998 74.238998 L 86.434998 74.738998 L 86.434998 75.238998 L 84.442993 75.238998 L 84.442993 74.738998 Z M 88.425995 74.738998 L 88.425995 74.238998 L 90.417007 74.238998 L 90.417007 74.738998 L 90.417007 75.238998 L 88.425995 75.238998 L 88.425995 74.738998 Z M 92.408005 74.738998 L 92.408005 74.238998 L 94.399994 74.238998 L 94.399994 74.738998 L 94.399994 75.238998 L 92.408005 75.238998 L 92.408005 74.738998 Z M 96.391006 74.738998 L 96.391006 74.238998 L 98.382004 74.238998 L 98.382004 74.738998 L 98.382004 75.238998 L 96.391006 75.238998 L 96.391006 74.738998 Z M 100.373001 74.738998 L 100.373001 74.238998 L 102.365005 74.238998 L 102.365005 74.738998 L 102.365005 75.238998 L 100.373001 75.238998 L 100.373001 74.738998 Z M 104.356003 74.738998 L 104.356003 74.238998 L 106.347 74.238998 L 106.347 74.738998 L 106.347 75.238998 L 104.356003 75.238998 L 104.356003 74.738998 Z M 108.337997 74.738998 L 108.337997 74.238998 L 110.330002 74.238998 L 110.330002 74.738998 L 110.330002 75.238998 L 108.337997 75.238998 L 108.337997 74.738998 Z M 112.320999 74.738998 L 112.320999 74.238998 L 114.311996 74.238998 L 114.311996 74.738998 L 114.311996 75.238998 L 112.320999 75.238998 L 112.320999 74.738998 Z M 116.302994 74.738998 L 116.302994 74.238998 L 118.294998 74.238998 L 118.294998 74.738998 L 118.294998 75.238998 L 116.302994 75.238998 L 116.302994 74.738998 Z M 120.285995 74.738998 L 120.285995 74.238998 L 122.276993 74.238998 L 122.276993 74.738998 L 122.276993 75.238998 L 120.285995 75.238998 L 120.285995 74.738998 Z M 124.268005 74.738998 L 124.268005 74.238998 L 126.259995 74.238998 L 126.259995 74.738998 L 126.259995 75.238998 L 124.268005 75.238998 L 124.268005 74.738998 Z M 128.251007 74.738998 L 128.251007 74.238998 L 130.242004 74.238998 L 130.242004 74.738998 L 130.242004 75.238998 L 128.251007 75.238998 L 128.251007 74.738998 Z M 132.233002 74.738998 L 132.233002 74.238998 L 134.223999 74.238998 L 134.223999 74.738998 L 134.223999 75.238998 L 132.233002 75.238998 L 132.233002 74.738998 Z M 136.216003 74.738998 L 136.216003 74.238998 L 138.207001 74.238998 L 138.207001 74.738998 L 138.207001 75.238998 L 136.216003 75.238998 L 136.216003 74.738998 Z M 140.197998 74.738998 L 140.197998 74.238998 L 142.188995 74.238998 L 142.188995 74.738998 L 142.188995 75.238998 L 140.197998 75.238998 L 140.197998 74.738998 Z M 144.181 74.738998 L 144.181 74.238998 L 146.171997 74.238998 L 146.171997 74.738998 L 146.171997 75.238998 L 144.181 75.238998 L 144.181 74.738998 Z M 148.162994 74.738998 L 148.162994 74.238998 L 150.153992 74.238998 L 150.153992 74.738998 L 150.153992 75.238998 L 148.162994 75.238998 L 148.162994 74.738998 Z M 152.145996 74.738998 L 152.145996 74.238998 L 153.140991 74.238998 L 153.140991 74.738998 L 153.140991 75.238998 L 152.145996 75.238998 L 152.145996 74.738998 Z M 153.140991 74.738998 L 152.640991 74.738998 L 152.640991 73.593994 L 153.140991 73.593994 L 153.640991 73.593994 L 153.640991 74.738998 L 153.140991 74.738998 Z M 153.140991 71.304001 L 152.640991 71.304001 L 152.640991 69.014008 L 153.140991 69.014008 L 153.640991 69.014008 L 153.640991 71.304001 L 153.140991 71.304001 Z M 153.140991 66.723999 L 152.640991 66.723999 L 152.640991 64.434998 L 153.140991 64.434998 L 153.640991 64.434998 L 153.640991 66.723999 L 153.140991 66.723999 Z"/>
    <path id="path15" fill="#f24040" stroke="none" d="M 7.554001 61.667007 L 6.221001 61.667007 L 6.221001 57.667007 L 7.554001 57.667007 M 7.554001 64.332993 L 6.221001 64.332993 L 6.221001 63 L 7.554001 63 M 6.888 54.333008 C 6.012001 54.333008 5.144997 54.505981 4.335999 54.841003 C 3.528 55.175995 2.792999 55.667007 2.174004 56.285995 C 0.922997 57.535995 0.221001 59.231995 0.221001 61 C 0.221001 62.768005 0.922997 64.464005 2.174004 65.714005 C 2.792999 66.332993 3.528 66.824005 4.335999 67.158997 C 5.144997 67.494003 6.012001 67.667007 6.888 67.667007 C 8.655998 67.667007 10.350998 66.964005 11.602005 65.714005 C 12.852005 64.464005 13.554001 62.768005 13.554001 61 C 13.554001 60.125 13.382004 59.257996 13.046997 58.449005 C 12.712006 57.639999 12.220993 56.904999 11.602005 56.285995 C 10.983002 55.667007 10.248001 55.175995 9.438995 54.841003 C 8.629997 54.505981 7.763 54.333008 6.888 54.333008 Z"/>
    <path id="path16" fill="#f24040" stroke="none" d="M 180.553986 142.667007 L 179.221008 142.667007 L 179.221008 138.667007 L 180.553986 138.667007 M 180.553986 145.332993 L 179.221008 145.332993 L 179.221008 144 L 180.553986 144 M 179.888 135.332993 C 179.011993 135.332993 178.144989 135.505997 177.335999 135.841003 C 176.528015 136.175995 175.792999 136.667007 175.174011 137.285995 C 173.923004 138.535995 173.221008 140.231995 173.221008 142 C 173.221008 143.768005 173.923004 145.464005 175.174011 146.714005 C 175.792999 147.332993 176.528015 147.824005 177.335999 148.158997 C 178.144989 148.494003 179.011993 148.667007 179.888 148.667007 C 181.656006 148.667007 183.351013 147.964005 184.60199 146.714005 C 185.85199 145.464005 186.553986 143.768005 186.553986 142 C 186.553986 141.125 186.381989 140.257996 186.046997 139.449005 C 185.712006 138.639999 185.221008 137.904999 184.60199 137.285995 C 183.983002 136.667007 183.247986 136.175995 182.438995 135.841003 C 181.630005 135.505997 180.763 135.332993 179.888 135.332993 Z"/>
    <path id="path17" fill="#de3030" stroke="none" d="M 284.783997 38.681 L 289.783997 41.567017 L 289.783997 35.794006 L 284.783997 38.681 Z M 309.643005 38.681 L 310.143005 38.681 L 310.143005 38.181 L 309.643005 38.181 L 309.643005 38.681 Z M 309.643005 177.399994 L 309.643005 177.899994 L 310.143005 177.899994 L 310.143005 177.399994 L 309.643005 177.399994 Z M 287.891998 38.681 L 287.891998 39.181 L 289.963013 39.181 L 289.963013 38.681 L 289.963013 38.181 L 287.891998 38.181 L 287.891998 38.681 Z M 292.035004 38.681 L 292.035004 39.181 L 294.105988 39.181 L 294.105988 38.681 L 294.105988 38.181 L 292.035004 38.181 L 292.035004 38.681 Z M 296.178009 38.681 L 296.178009 39.181 L 298.248993 39.181 L 298.248993 38.681 L 298.248993 38.181 L 296.178009 38.181 L 296.178009 38.681 Z M 300.321014 38.681 L 300.321014 39.181 L 302.393005 39.181 L 302.393005 38.681 L 302.393005 38.181 L 300.321014 38.181 L 300.321014 38.681 Z M 304.463989 38.681 L 304.463989 39.181 L 306.536011 39.181 L 306.536011 38.681 L 306.536011 38.181 L 304.463989 38.181 L 304.463989 38.681 Z M 308.606995 38.681 L 308.606995 39.181 L 309.643005 39.181 L 309.643005 38.681 L 309.643005 38.181 L 308.606995 38.181 L 308.606995 38.681 Z M 309.643005 38.681 L 309.143005 38.681 L 309.143005 39.671997 L 309.643005 39.671997 L 310.143005 39.671997 L 310.143005 38.681 L 309.643005 38.681 Z M 309.643005 41.653015 L 309.143005 41.653015 L 309.143005 43.63501 L 309.643005 43.63501 L 310.143005 43.63501 L 310.143005 41.653015 L 309.643005 41.653015 Z M 309.643005 45.617004 L 309.143005 45.617004 L 309.143005 47.598022 L 309.643005 47.598022 L 310.143005 47.598022 L 310.143005 45.617004 L 309.643005 45.617004 Z M 309.643005 49.580017 L 309.143005 49.580017 L 309.143005 51.562012 L 309.643005 51.562012 L 310.143005 51.562012 L 310.143005 49.580017 L 309.643005 49.580017 Z M 309.643005 53.542999 L 309.143005 53.542999 L 309.143005 55.524994 L 309.643005 55.524994 L 310.143005 55.524994 L 310.143005 53.542999 L 309.643005 53.542999 Z M 309.643005 57.507004 L 309.143005 57.507004 L 309.143005 59.488998 L 309.643005 59.488998 L 310.143005 59.488998 L 310.143005 57.507004 L 309.643005 57.507004 Z M 309.643005 61.470001 L 309.143005 61.470001 L 309.143005 63.451996 L 309.643005 63.451996 L 310.143005 63.451996 L 310.143005 61.470001 L 309.643005 61.470001 Z M 309.643005 65.434006 L 309.143005 65.434006 L 309.143005 67.414993 L 309.643005 67.414993 L 310.143005 67.414993 L 310.143005 65.434006 L 309.643005 65.434006 Z M 309.643005 69.397003 L 309.143005 69.397003 L 309.143005 71.378998 L 309.643005 71.378998 L 310.143005 71.378998 L 310.143005 69.397003 L 309.643005 69.397003 Z M 309.643005 73.360001 L 309.143005 73.360001 L 309.143005 75.341995 L 309.643005 75.341995 L 310.143005 75.341995 L 310.143005 73.360001 L 309.643005 73.360001 Z M 309.643005 77.324005 L 309.143005 77.324005 L 309.143005 79.304993 L 309.643005 79.304993 L 310.143005 79.304993 L 310.143005 77.324005 L 309.643005 77.324005 Z M 309.643005 81.287003 L 309.143005 81.287003 L 309.143005 83.268997 L 309.643005 83.268997 L 310.143005 83.268997 L 310.143005 81.287003 L 309.643005 81.287003 Z M 309.643005 85.251007 L 309.143005 85.251007 L 309.143005 87.231995 L 309.643005 87.231995 L 310.143005 87.231995 L 310.143005 85.251007 L 309.643005 85.251007 Z M 309.643005 89.214005 L 309.143005 89.214005 L 309.143005 91.195999 L 309.643005 91.195999 L 310.143005 91.195999 L 310.143005 89.214005 L 309.643005 89.214005 Z M 309.643005 93.177002 L 309.143005 93.177002 L 309.143005 95.158997 L 309.643005 95.158997 L 310.143005 95.158997 L 310.143005 93.177002 L 309.643005 93.177002 Z M 309.643005 97.141006 L 309.143005 97.141006 L 309.143005 99.121994 L 309.643005 99.121994 L 310.143005 99.121994 L 310.143005 97.141006 L 309.643005 97.141006 Z M 309.643005 101.104004 L 309.143005 101.104004 L 309.143005 103.085999 L 309.643005 103.085999 L 310.143005 103.085999 L 310.143005 101.104004 L 309.643005 101.104004 Z M 309.643005 105.067993 L 309.143005 105.067993 L 309.143005 107.048996 L 309.643005 107.048996 L 310.143005 107.048996 L 310.143005 105.067993 L 309.643005 105.067993 Z M 309.643005 109.031006 L 309.143005 109.031006 L 309.143005 111.013 L 309.643005 111.013 L 310.143005 111.013 L 310.143005 109.031006 L 309.643005 109.031006 Z M 309.643005 112.994003 L 309.143005 112.994003 L 309.143005 114.975998 L 309.643005 114.975998 L 310.143005 114.975998 L 310.143005 112.994003 L 309.643005 112.994003 Z M 309.643005 116.957993 L 309.143005 116.957993 L 309.143005 118.938995 L 309.643005 118.938995 L 310.143005 118.938995 L 310.143005 116.957993 L 309.643005 116.957993 Z M 309.643005 120.921005 L 309.143005 120.921005 L 309.143005 122.903 L 309.643005 122.903 L 310.143005 122.903 L 310.143005 120.921005 L 309.643005 120.921005 Z M 309.643005 124.884995 L 309.143005 124.884995 L 309.143005 126.865997 L 309.643005 126.865997 L 310.143005 126.865997 L 310.143005 124.884995 L 309.643005 124.884995 Z M 309.643005 128.848007 L 309.143005 128.848007 L 309.143005 130.830002 L 309.643005 130.830002 L 310.143005 130.830002 L 310.143005 128.848007 L 309.643005 128.848007 Z M 309.643005 132.811005 L 309.143005 132.811005 L 309.143005 134.792999 L 309.643005 134.792999 L 310.143005 134.792999 L 310.143005 132.811005 L 309.643005 132.811005 Z M 309.643005 136.774994 L 309.143005 136.774994 L 309.143005 138.755997 L 309.643005 138.755997 L 310.143005 138.755997 L 310.143005 136.774994 L 309.643005 136.774994 Z M 309.643005 140.738007 L 309.143005 140.738007 L 309.143005 142.720001 L 309.643005 142.720001 L 310.143005 142.720001 L 310.143005 140.738007 L 309.643005 140.738007 Z M 309.643005 144.701004 L 309.143005 144.701004 L 309.143005 146.682999 L 309.643005 146.682999 L 310.143005 146.682999 L 310.143005 144.701004 L 309.643005 144.701004 Z M 309.643005 148.664993 L 309.143005 148.664993 L 309.143005 150.647003 L 309.643005 150.647003 L 310.143005 150.647003 L 310.143005 148.664993 L 309.643005 148.664993 Z M 309.643005 152.628006 L 309.143005 152.628006 L 309.143005 154.610001 L 309.643005 154.610001 L 310.143005 154.610001 L 310.143005 152.628006 L 309.643005 152.628006 Z M 309.643005 156.591995 L 309.143005 156.591995 L 309.143005 158.572998 L 309.643005 158.572998 L 310.143005 158.572998 L 310.143005 156.591995 L 309.643005 156.591995 Z M 309.643005 160.554993 L 309.143005 160.554993 L 309.143005 162.536987 L 309.643005 162.536987 L 310.143005 162.536987 L 310.143005 160.554993 L 309.643005 160.554993 Z M 309.643005 164.518005 L 309.143005 164.518005 L 309.143005 166.5 L 309.643005 166.5 L 310.143005 166.5 L 310.143005 164.518005 L 309.643005 164.518005 Z M 309.643005 168.481995 L 309.143005 168.481995 L 309.143005 170.463989 L 309.643005 170.463989 L 310.143005 170.463989 L 310.143005 168.481995 L 309.643005 168.481995 Z M 309.643005 172.445007 L 309.143005 172.445007 L 309.143005 174.427002 L 309.643005 174.427002 L 310.143005 174.427002 L 310.143005 172.445007 L 309.643005 172.445007 Z M 309.643005 176.408997 L 309.143005 176.408997 L 309.143005 177.399994 L 309.643005 177.399994 L 310.143005 177.399994 L 310.143005 176.408997 L 309.643005 176.408997 Z M 309.643005 177.399994 L 309.643005 176.899994 L 308.606995 176.899994 L 308.606995 177.399994 L 308.606995 177.899994 L 309.643005 177.899994 L 309.643005 177.399994 Z M 306.536011 177.399994 L 306.536011 176.899994 L 304.463989 176.899994 L 304.463989 177.399994 L 304.463989 177.899994 L 306.536011 177.899994 L 306.536011 177.399994 Z M 302.393005 177.399994 L 302.393005 176.899994 L 300.321014 176.899994 L 300.321014 177.399994 L 300.321014 177.899994 L 302.393005 177.899994 L 302.393005 177.399994 Z M 298.248993 177.399994 L 298.248993 176.899994 L 296.178009 176.899994 L 296.178009 177.399994 L 296.178009 177.899994 L 298.248993 177.899994 L 298.248993 177.399994 Z M 294.105988 177.399994 L 294.105988 176.899994 L 292.035004 176.899994 L 292.035004 177.399994 L 292.035004 177.899994 L 294.105988 177.899994 L 294.105988 177.399994 Z M 289.963013 177.399994 L 289.963013 176.899994 L 287.891998 176.899994 L 287.891998 177.399994 L 287.891998 177.899994 L 289.963013 177.899994 L 289.963013 177.399994 Z M 285.820007 177.399994 L 285.820007 176.899994 L 284.783997 176.899994 L 284.783997 177.399994 L 284.783997 177.899994 L 285.820007 177.899994 L 285.820007 177.399994 Z"/>
    <path id="path18" fill="#de3030" stroke="none" d="M 284.783997 164.101013 L 289.783997 161.213989 L 289.783997 166.987 L 284.783997 164.101013 Z M 296.938995 164.101013 L 297.438995 164.101013 L 297.438995 164.601013 L 296.938995 164.601013 L 296.938995 164.101013 Z M 296.938995 107.595993 L 296.938995 107.095993 L 297.438995 107.095993 L 297.438995 107.595993 L 296.938995 107.595993 Z M 287.822998 164.101013 L 287.822998 163.601013 L 289.848999 163.601013 L 289.848999 164.101013 L 289.848999 164.601013 L 287.822998 164.601013 L 287.822998 164.101013 Z M 291.873993 164.101013 L 291.873993 163.601013 L 293.899994 163.601013 L 293.899994 164.101013 L 293.899994 164.601013 L 291.873993 164.601013 L 291.873993 164.101013 Z M 295.925995 164.101013 L 295.925995 163.601013 L 296.938995 163.601013 L 296.938995 164.101013 L 296.938995 164.601013 L 295.925995 164.601013 L 295.925995 164.101013 Z M 296.938995 164.101013 L 296.438995 164.101013 L 296.438995 163.09201 L 296.938995 163.09201 L 297.438995 163.09201 L 297.438995 164.101013 L 296.938995 164.101013 Z M 296.938995 161.074005 L 296.438995 161.074005 L 296.438995 159.056 L 296.938995 159.056 L 297.438995 159.056 L 297.438995 161.074005 L 296.938995 161.074005 Z M 296.938995 157.037994 L 296.438995 157.037994 L 296.438995 155.020004 L 296.938995 155.020004 L 297.438995 155.020004 L 297.438995 157.037994 L 296.938995 157.037994 Z M 296.938995 153.001999 L 296.438995 153.001999 L 296.438995 150.983002 L 296.938995 150.983002 L 297.438995 150.983002 L 297.438995 153.001999 L 296.938995 153.001999 Z M 296.938995 148.964996 L 296.438995 148.964996 L 296.438995 146.947006 L 296.938995 146.947006 L 297.438995 146.947006 L 297.438995 148.964996 L 296.938995 148.964996 Z M 296.938995 144.929001 L 296.438995 144.929001 L 296.438995 142.910995 L 296.938995 142.910995 L 297.438995 142.910995 L 297.438995 144.929001 L 296.938995 144.929001 Z M 296.938995 140.893005 L 296.438995 140.893005 L 296.438995 138.875 L 296.938995 138.875 L 297.438995 138.875 L 297.438995 140.893005 L 296.938995 140.893005 Z M 296.938995 136.856995 L 296.438995 136.856995 L 296.438995 134.839005 L 296.938995 134.839005 L 297.438995 134.839005 L 297.438995 136.856995 L 296.938995 136.856995 Z M 296.938995 132.820999 L 296.438995 132.820999 L 296.438995 130.802994 L 296.938995 130.802994 L 297.438995 130.802994 L 297.438995 132.820999 L 296.938995 132.820999 Z M 296.938995 128.785004 L 296.438995 128.785004 L 296.438995 126.766998 L 296.938995 126.766998 L 297.438995 126.766998 L 297.438995 128.785004 L 296.938995 128.785004 Z M 296.938995 124.748993 L 296.438995 124.748993 L 296.438995 122.731003 L 296.938995 122.731003 L 297.438995 122.731003 L 297.438995 124.748993 L 296.938995 124.748993 Z M 296.938995 120.712997 L 296.438995 120.712997 L 296.438995 118.695007 L 296.938995 118.695007 L 297.438995 118.695007 L 297.438995 120.712997 L 296.938995 120.712997 Z M 296.938995 116.677002 L 296.438995 116.677002 L 296.438995 114.658997 L 296.938995 114.658997 L 297.438995 114.658997 L 297.438995 116.677002 L 296.938995 116.677002 Z M 296.938995 112.641006 L 296.438995 112.641006 L 296.438995 110.623001 L 296.938995 110.623001 L 297.438995 110.623001 L 297.438995 112.641006 L 296.938995 112.641006 Z M 296.938995 108.604996 L 296.438995 108.604996 L 296.438995 107.595993 L 296.938995 107.595993 L 297.438995 107.595993 L 297.438995 108.604996 L 296.938995 108.604996 Z M 296.938995 107.595993 L 296.938995 108.095993 L 295.925995 108.095993 L 295.925995 107.595993 L 295.925995 107.095993 L 296.938995 107.095993 L 296.938995 107.595993 Z M 293.899994 107.595993 L 293.899994 108.095993 L 291.873993 108.095993 L 291.873993 107.595993 L 291.873993 107.095993 L 293.899994 107.095993 L 293.899994 107.595993 Z M 289.848999 107.595993 L 289.848999 108.095993 L 287.822998 108.095993 L 287.822998 107.595993 L 287.822998 107.095993 L 289.848999 107.095993 L 289.848999 107.595993 Z M 285.796997 107.595993 L 285.796997 108.095993 L 284.783997 108.095993 L 284.783997 107.595993 L 284.783997 107.095993 L 285.796997 107.095993 L 285.796997 107.595993 Z"/>
</svg>
