<svg width="632" height="466" viewBox="0 0 632 466" fill="none" xmlns="http://www.w3.org/2000/svg">
<path d="M545.481 63.4609H85.9993C81.8344 63.4609 78.458 66.8373 78.458 71.0022V394.771C78.458 398.936 81.8344 402.312 85.9993 402.312H545.481C549.646 402.312 553.022 398.936 553.022 394.771V71.0022C553.022 66.8373 549.646 63.4609 545.481 63.4609Z" stroke="url(#paint0_linear_53_162601)" stroke-width="0.917387" stroke-dasharray="1.83 1.83"/>
<g filter="url(#filter0_d_53_162601)">
<path d="M312.733 222.977C314.394 221.305 317.086 221.305 318.747 222.977L325.573 229.851C327.233 231.523 327.233 234.234 325.573 235.906L318.747 242.779C317.086 244.451 314.394 244.451 312.733 242.779L305.907 235.906C304.247 234.234 304.247 231.523 305.907 229.851L312.733 222.977Z" fill="#A950FF"/>
<path d="M344.172 222.923C345.803 221.281 348.447 221.281 350.078 222.923L357.012 229.905C358.643 231.547 358.643 234.21 357.012 235.852L350.078 242.834C348.447 244.476 345.803 244.476 344.172 242.834L337.239 235.852C335.608 234.21 335.608 231.547 337.239 229.905L344.172 222.923Z" fill="#A950FF"/>
<path d="M312.787 191.321C314.418 189.679 317.062 189.679 318.693 191.321L325.626 198.303C327.257 199.945 327.257 202.607 325.626 204.25L318.693 211.231C317.062 212.873 314.418 212.873 312.787 211.231L305.853 204.25C304.223 202.607 304.223 199.945 305.853 198.303L312.787 191.321Z" fill="#E9C1FF"/>
<path d="M309.881 214.049C311.542 215.721 311.542 218.432 309.881 220.104L303.056 226.978C301.395 228.65 298.703 228.65 297.042 226.978L290.216 220.104C288.556 218.432 288.556 215.721 290.216 214.049L297.042 207.176C298.703 205.504 301.395 205.504 303.056 207.176L309.881 214.049Z" fill="#CD88FF"/>
<path d="M294.242 229.905C295.873 231.547 295.873 234.21 294.242 235.852L287.308 242.834C285.678 244.476 283.033 244.476 281.403 242.834L274.469 235.852C272.838 234.21 272.838 231.547 274.469 229.905L281.403 222.923C283.033 221.281 285.678 221.281 287.308 222.923L294.242 229.905Z" fill="#A950FF"/>
<path d="M341.266 214.049C342.926 215.721 342.926 218.432 341.266 220.104L334.44 226.978C332.779 228.65 330.087 228.65 328.426 226.978L321.6 220.104C319.94 218.432 319.94 215.721 321.6 214.049L328.426 207.176C330.087 205.504 332.779 205.504 334.44 207.176L341.266 214.049Z" fill="#CD88FF"/>
<path d="M322.458 259.193C326.168 262.929 326.168 268.985 322.458 272.721C318.748 276.457 312.733 276.457 309.023 272.721C305.313 268.985 305.313 262.929 309.023 259.193C312.733 255.457 318.748 255.457 322.458 259.193Z" fill="#F62E76"/>
</g>
<path d="M315.741 298.078C352.152 298.078 381.669 268.561 381.669 232.15C381.669 195.74 352.152 166.223 315.741 166.223C279.33 166.223 249.813 195.74 249.813 232.15C249.813 268.561 279.33 298.078 315.741 298.078Z" stroke="white" stroke-width="0.85031" stroke-dasharray="1.7 1.7"/>
<path d="M389.527 239.525C389.102 244.315 388.209 249.117 386.823 253.871L386.54 253.787C385.867 256.094 385.078 258.389 384.169 260.665C383.261 262.942 382.253 265.149 381.153 267.282L381.415 267.419C379.149 271.815 376.493 275.902 373.51 279.653L373.279 279.468C370.236 283.295 366.849 286.771 363.185 289.869L363.375 290.096C359.647 293.247 355.634 296.008 351.402 298.349L351.259 298.09C347.023 300.434 342.567 302.356 337.961 303.827L338.051 304.109C333.438 305.581 328.675 306.603 323.829 307.144L323.796 306.85C319.023 307.383 314.17 307.448 309.304 307.017L309.28 307.311C304.503 306.888 299.713 305.988 294.972 304.585L295.054 304.301C292.753 303.62 290.463 302.82 288.192 301.898C285.921 300.976 283.72 299.953 281.593 298.836L281.457 299.098C277.075 296.797 273.003 294.098 269.267 291.066L269.452 290.836C265.647 287.747 262.192 284.309 259.117 280.59L258.891 280.778C255.769 277.002 253.036 272.937 250.721 268.652L250.98 268.511C248.669 264.232 246.776 259.733 245.332 255.083L245.051 255.17C243.608 250.524 242.61 245.729 242.087 240.852L242.38 240.821C241.866 236.027 241.812 231.154 242.246 226.268L241.953 226.24C242.379 221.45 243.272 216.647 244.658 211.894L244.94 211.978C245.613 209.671 246.402 207.376 247.311 205.099C248.22 202.823 249.227 200.616 250.327 198.483L250.065 198.346C252.332 193.95 254.987 189.863 257.971 186.111L258.201 186.297C261.245 182.47 264.631 178.993 268.296 175.896L268.105 175.669C271.833 172.518 275.847 169.757 280.079 167.415L280.222 167.674C284.458 165.331 288.913 163.409 293.519 161.938L293.429 161.656C298.042 160.184 302.806 159.162 307.651 158.621L307.685 158.915C312.457 158.382 317.31 158.317 322.176 158.748L322.201 158.453C326.977 158.877 331.767 159.777 336.509 161.18L336.426 161.464C338.728 162.144 341.017 162.944 343.288 163.867C345.559 164.789 347.76 165.812 349.887 166.929L350.023 166.667C354.405 168.968 358.478 171.666 362.213 174.699L362.029 174.929C365.834 178.018 369.288 181.455 372.363 185.175L372.59 184.987C375.712 188.763 378.445 192.828 380.759 197.113L380.501 197.253C382.812 201.532 384.704 206.032 386.148 210.682L386.43 210.595C387.873 215.241 388.87 220.036 389.393 224.913L389.1 224.944C389.614 229.738 389.668 234.611 389.234 239.497L389.527 239.525Z" stroke="url(#paint1_linear_53_162601)" stroke-width="0.590199" stroke-linejoin="round" stroke-dasharray="14.16 14.16"/>
<g filter="url(#filter1_d_53_162601)">
<path d="M338.761 285.17C334.224 287.076 329.391 288.407 324.35 289.073L324.312 288.78C321.88 289.101 319.399 289.267 316.88 289.267C314.361 289.267 311.881 289.101 309.449 288.78L309.411 289.073C304.37 288.407 299.537 287.076 295 285.17L295.114 284.898C290.502 282.961 286.198 280.426 282.297 277.39L282.115 277.623C278.176 274.557 274.647 270.983 271.623 266.997L271.858 266.819C268.876 262.889 266.389 258.557 264.489 253.918L264.216 254.03C262.354 249.482 261.055 244.641 260.405 239.593L260.697 239.556C260.384 237.123 260.222 234.642 260.222 232.122C260.222 229.603 260.384 227.122 260.697 224.689L260.405 224.651C261.055 219.604 262.354 214.762 264.216 210.214L264.489 210.326C266.389 205.687 268.876 201.355 271.858 197.426L271.623 197.247C274.647 193.262 278.176 189.687 282.115 186.621L282.297 186.854C286.198 183.818 290.502 181.283 295.114 179.346L295 179.074C299.537 177.169 304.37 175.838 309.411 175.172L309.449 175.464C311.881 175.143 314.362 174.977 316.88 174.977C319.399 174.977 321.88 175.143 324.312 175.464L324.35 175.172C329.391 175.838 334.224 177.169 338.761 179.074L338.647 179.346C343.259 181.283 347.563 183.818 351.464 186.854L351.646 186.621C355.584 189.687 359.114 193.262 362.138 197.247L361.903 197.426C364.885 201.355 367.372 205.687 369.272 210.326L369.545 210.214C371.407 214.762 372.706 219.604 373.356 224.651L373.064 224.689C373.377 227.122 373.539 229.603 373.539 232.122C373.539 234.642 373.377 237.123 373.064 239.556L373.356 239.593C372.706 244.641 371.407 249.482 369.545 254.03L369.272 253.918C367.372 258.557 364.885 262.889 361.903 266.819L362.138 266.997C359.114 270.983 355.584 274.557 351.646 277.623L351.464 277.39C347.563 280.426 343.259 282.961 338.647 284.898L338.761 285.17Z" stroke="#5F00E8" stroke-width="0.590199" stroke-linejoin="round" stroke-dasharray="14.16 14.16"/>
</g>
<path d="M396.345 195.108L399.491 190.266L402.111 195.411L396.345 195.108ZM436.451 174.682L433.305 179.523L430.685 174.379L436.451 174.682ZM398.853 193.269L400.676 192.341L401.13 193.232L399.307 194.161L398.853 193.269ZM402.499 191.413L404.322 190.484L404.776 191.375L402.953 192.304L402.499 191.413ZM406.145 189.556L407.968 188.627L408.422 189.518L406.599 190.447L406.145 189.556ZM409.791 187.699L411.614 186.77L412.068 187.661L410.245 188.59L409.791 187.699ZM413.437 185.842L415.26 184.913L415.713 185.805L413.89 186.733L413.437 185.842ZM417.083 183.985L418.906 183.057L419.359 183.948L417.536 184.876L417.083 183.985ZM420.728 182.128L422.551 181.2L423.005 182.091L421.182 183.019L420.728 182.128ZM424.374 180.271L426.197 179.343L426.651 180.234L424.828 181.162L424.374 180.271ZM428.02 178.414L429.843 177.486L430.297 178.377L428.474 179.305L428.02 178.414ZM431.666 176.557L433.489 175.629L433.943 176.52L432.12 177.448L431.666 176.557Z" fill="url(#paint2_linear_53_162601)"/>
<path d="M196.261 290.209L199.407 285.368L202.027 290.512L196.261 290.209ZM236.367 269.783L233.221 274.625L230.601 269.48L236.367 269.783ZM198.769 288.371L200.592 287.443L201.046 288.334L199.223 289.262L198.769 288.371ZM202.415 286.514L204.238 285.586L204.692 286.477L202.869 287.405L202.415 286.514ZM206.061 284.657L207.884 283.729L208.338 284.62L206.515 285.548L206.061 284.657ZM209.707 282.8L211.53 281.872L211.984 282.763L210.161 283.691L209.707 282.8ZM213.353 280.943L215.176 280.015L215.629 280.906L213.806 281.834L213.353 280.943ZM216.999 279.086L218.822 278.158L219.275 279.049L217.452 279.978L216.999 279.086ZM220.644 277.23L222.467 276.301L222.921 277.192L221.098 278.121L220.644 277.23ZM224.29 275.373L226.113 274.444L226.567 275.335L224.744 276.264L224.29 275.373ZM227.936 273.516L229.759 272.587L230.213 273.478L228.39 274.407L227.936 273.516ZM231.582 271.659L233.405 270.73L233.859 271.621L232.036 272.55L231.582 271.659Z" fill="url(#paint3_linear_53_162601)"/>
<path d="M530.74 78.6992H448.74C444.322 78.6992 440.74 82.2809 440.74 86.6992V168.699C440.74 173.118 444.322 176.699 448.74 176.699H530.74C535.158 176.699 538.74 173.118 538.74 168.699V86.6992C538.74 82.2809 535.158 78.6992 530.74 78.6992Z" fill="#111113" fill-opacity="0.7"/>
<path d="M530.74 79.1562H448.74C444.575 79.1562 441.199 82.5326 441.199 86.6976V168.698C441.199 172.862 444.575 176.239 448.74 176.239H530.74C534.905 176.239 538.282 172.862 538.282 168.698V86.6976C538.282 82.5326 534.905 79.1562 530.74 79.1562Z" stroke="#3D3D3F" stroke-width="0.917387" stroke-dasharray="1.83 1.83"/>
<path d="M517.113 98.8289C516.421 98.3659 515.643 98.0388 514.823 97.8638C513.983 97.6838 513.116 97.6509 512.264 97.7679C511.37 97.8899 510.505 98.1588 509.704 98.5638L505.967 100.579L502.223 102.59L498.475 104.6L494.731 106.629C493.92 107.093 493.05 107.453 492.145 107.701C491.269 107.949 490.363 108.079 489.45 108.087C488.54 108.097 487.631 107.988 486.751 107.761C485.843 107.526 484.97 107.176 484.155 106.719L480.524 104.79L476.893 102.861L473.262 100.94L469.627 99.0108C468.281 98.1718 466.67 97.8329 465.09 98.0569C463.631 98.2789 462.278 98.9358 461.217 99.9388C460.148 100.93 459.42 102.22 459.136 103.632C458.844 105.164 459.132 106.747 459.945 108.087L461.217 110.365L464.022 115.365L466.827 120.366L468.103 122.644C468.577 123.428 468.945 124.269 469.2 125.145C469.44 126.001 469.564 126.885 469.565 127.773C469.564 128.664 469.441 129.55 469.2 130.409C468.974 131.313 468.626 132.184 468.165 132.998L466.172 136.631L464.175 140.252L462.179 143.871L460.182 147.492C459.847 148.086 459.589 148.718 459.414 149.374C459.25 149.994 459.176 150.634 459.195 151.274C459.22 151.903 459.343 152.525 459.561 153.117C459.781 153.738 460.099 154.322 460.504 154.846C460.998 155.509 461.612 156.078 462.315 156.525C463.013 156.978 463.787 157.308 464.603 157.5C465.44 157.7 466.306 157.755 467.163 157.66C468.056 157.56 468.923 157.302 469.723 156.9L473.61 154.818L477.492 152.739L481.376 150.657L485.26 148.574C484.092 147.755 483.012 146.822 482.038 145.788C481.061 144.75 480.166 143.642 479.358 142.474C478.543 141.302 477.796 140.081 477.105 138.838C476.487 137.731 475.914 136.609 475.361 135.495C476.338 137.281 478.44 139.177 481.171 141.081C484.494 143.314 487.957 145.342 491.539 147.153C495.305 149.11 499.17 150.96 502.508 152.596C505.847 154.232 508.677 155.65 510.355 156.732C511.71 157.515 513.32 157.763 514.856 157.425C516.281 157.079 517.56 156.307 518.514 155.218C519.512 154.112 520.161 152.747 520.382 151.289C520.612 149.747 520.286 148.175 519.46 146.842L517.164 142.785L512.137 133.856L507.108 124.927L504.837 120.916C504.35 120.116 503.822 119.341 503.254 118.594C502.689 117.862 502.079 117.164 501.426 116.505C500.777 115.849 500.083 115.237 499.349 114.673C498.603 114.099 497.813 113.58 496.987 113.122C498.27 113.694 499.575 114.287 500.855 114.926C502.145 115.561 503.4 116.26 504.614 117.023C505.828 117.782 506.977 118.635 508.052 119.573C509.136 120.526 510.11 121.592 510.959 122.751L513.024 119.058L515.091 115.365L517.164 111.665L519.23 107.972C519.575 107.417 519.834 106.815 519.998 106.186C520.163 105.562 520.236 104.919 520.217 104.275C520.192 103.625 520.069 102.983 519.851 102.368C519.63 101.739 519.308 101.149 518.897 100.618C518.429 99.9128 517.823 99.3049 517.113 98.8289ZM469.196 150.56C469.249 151.315 468.968 152.056 468.425 152.596C467.882 153.135 467.128 153.421 466.354 153.382C464.773 153.394 463.481 152.153 463.468 150.608C463.454 149.064 464.727 147.801 466.308 147.789C467.08 147.735 467.839 148.008 468.391 148.538C468.944 149.068 469.236 149.805 469.196 150.56ZM463.532 104.954C463.478 104.199 463.759 103.458 464.302 102.919C464.846 102.379 465.599 102.093 466.373 102.132C467.146 102.08 467.904 102.354 468.456 102.885C469.009 103.416 469.303 104.152 469.262 104.908C469.316 105.663 469.035 106.404 468.492 106.943C467.948 107.483 467.195 107.769 466.421 107.729C465.648 107.781 464.889 107.507 464.336 106.977C463.784 106.446 463.491 105.71 463.532 104.954ZM515.925 150.474C515.937 151.607 515.247 152.636 514.18 153.08C513.112 153.523 511.877 153.295 511.049 152.501C510.221 151.706 509.965 150.503 510.4 149.453C510.835 148.402 511.875 147.712 513.036 147.703C513.808 147.65 514.566 147.923 515.119 148.453C515.671 148.983 515.966 149.719 515.925 150.474ZM496.544 126.698C495.699 125.348 494.306 124.819 492.635 124.837C490.353 124.912 488.334 126.305 487.499 128.381C486.665 130.458 487.174 132.82 488.795 134.391C486.984 134.166 485.341 133.241 484.233 131.824C483.124 130.406 482.643 128.614 482.898 126.848C483.435 123.309 487.037 120.558 490.657 121.055C493.722 121.562 496.24 123.709 496.544 126.698ZM516.13 104.718C516.09 106.227 514.833 107.433 513.288 107.447C511.744 107.46 510.466 106.276 510.399 104.768C510.439 103.26 511.695 102.054 513.239 102.04C514.784 102.027 516.063 103.211 516.13 104.718Z" fill="#FF694B"/>
<path d="M183.135 78.6992H101.135C96.7167 78.6992 93.135 82.2809 93.135 86.6992V168.699C93.135 173.118 96.7167 176.699 101.135 176.699H183.135C187.553 176.699 191.135 173.118 191.135 168.699V86.6992C191.135 82.2809 187.553 78.6992 183.135 78.6992Z" fill="#111113" fill-opacity="0.7"/>
<path d="M183.134 79.1562H101.134C96.9694 79.1562 93.593 82.5326 93.593 86.6976V168.698C93.593 172.862 96.9694 176.239 101.134 176.239H183.134C187.299 176.239 190.676 172.862 190.676 168.698V86.6976C190.676 82.5326 187.299 79.1562 183.134 79.1562Z" stroke="#3D3D3F" stroke-width="0.917387" stroke-dasharray="1.83 1.83"/>
<path d="M128.766 122.804C128.766 123.54 128.847 124.137 128.99 124.575C129.153 125.013 129.357 125.491 129.642 126.008C129.744 126.168 129.785 126.327 129.785 126.466C129.785 126.665 129.662 126.864 129.398 127.063L128.114 127.899C127.93 128.019 127.747 128.079 127.584 128.079C127.38 128.079 127.176 127.979 126.972 127.8C126.687 127.501 126.443 127.183 126.239 126.864C126.035 126.526 125.831 126.148 125.607 125.69C124.017 127.521 122.02 128.437 119.615 128.437C117.904 128.437 116.538 127.959 115.54 127.004C114.541 126.048 114.031 124.774 114.031 123.182C114.031 121.49 114.643 120.116 115.886 119.081C117.129 118.046 118.78 117.529 120.879 117.529C121.572 117.529 122.285 117.588 123.039 117.688C123.793 117.787 124.568 117.947 125.383 118.126V116.673C125.383 115.16 125.057 114.105 124.425 113.488C123.773 112.871 122.672 112.572 121.103 112.572C120.39 112.572 119.656 112.652 118.902 112.831C118.148 113.01 117.414 113.229 116.701 113.508C116.375 113.647 116.131 113.727 115.988 113.767C115.845 113.806 115.743 113.826 115.662 113.826C115.377 113.826 115.234 113.627 115.234 113.209V112.234C115.234 111.915 115.275 111.677 115.377 111.537C115.478 111.398 115.662 111.258 115.947 111.119C116.66 110.761 117.516 110.462 118.515 110.223C119.514 109.965 120.573 109.845 121.694 109.845C124.119 109.845 125.892 110.383 127.034 111.458C128.154 112.532 128.725 114.165 128.725 116.354V122.804H128.766ZM120.492 125.829C121.164 125.829 121.857 125.71 122.591 125.471C123.324 125.232 123.977 124.794 124.527 124.197C124.853 123.819 125.097 123.401 125.22 122.923C125.342 122.445 125.424 121.868 125.424 121.191V120.355C124.833 120.216 124.201 120.097 123.549 120.017C122.897 119.937 122.265 119.897 121.633 119.897C120.268 119.897 119.269 120.156 118.596 120.694C117.924 121.231 117.598 121.988 117.598 122.983C117.598 123.918 117.842 124.615 118.352 125.093C118.841 125.59 119.554 125.829 120.492 125.829ZM136.856 127.979C136.49 127.979 136.245 127.919 136.082 127.78C135.919 127.661 135.776 127.382 135.654 127.004L130.865 111.617C130.743 111.219 130.681 110.96 130.681 110.821C130.681 110.502 130.844 110.323 131.171 110.323H133.168C133.555 110.323 133.82 110.383 133.963 110.522C134.126 110.641 134.248 110.92 134.37 111.298L137.794 124.476L140.973 111.298C141.075 110.9 141.197 110.641 141.36 110.522C141.523 110.403 141.809 110.323 142.175 110.323H143.806C144.193 110.323 144.458 110.383 144.621 110.522C144.784 110.641 144.927 110.92 145.008 111.298L148.228 124.635L151.754 111.298C151.876 110.9 152.019 110.641 152.161 110.522C152.324 110.403 152.589 110.323 152.956 110.323H154.851C155.178 110.323 155.361 110.482 155.361 110.821C155.361 110.92 155.341 111.02 155.32 111.139C155.3 111.258 155.259 111.418 155.178 111.637L150.266 127.024C150.144 127.422 150.001 127.681 149.838 127.8C149.675 127.919 149.41 127.999 149.064 127.999H147.311C146.924 127.999 146.659 127.939 146.496 127.8C146.333 127.661 146.19 127.402 146.109 127.004L142.95 114.165L139.811 126.984C139.71 127.382 139.587 127.641 139.424 127.78C139.261 127.919 138.976 127.979 138.609 127.979H136.856ZM163.044 128.517C161.984 128.517 160.925 128.397 159.906 128.158C158.887 127.919 158.092 127.661 157.562 127.362C157.236 127.183 157.012 126.984 156.93 126.805C156.849 126.626 156.808 126.426 156.808 126.247V125.232C156.808 124.814 156.971 124.615 157.277 124.615C157.399 124.615 157.521 124.635 157.643 124.675C157.766 124.715 157.949 124.794 158.153 124.874C158.846 125.172 159.6 125.411 160.395 125.571C161.21 125.73 162.005 125.809 162.82 125.809C164.104 125.809 165.102 125.59 165.795 125.153C166.488 124.715 166.855 124.078 166.855 123.261C166.855 122.704 166.672 122.246 166.305 121.868C165.938 121.49 165.245 121.152 164.246 120.833L161.291 119.937C159.804 119.479 158.703 118.803 158.031 117.907C157.358 117.031 157.012 116.056 157.012 115.021C157.012 114.185 157.195 113.448 157.562 112.811C157.929 112.174 158.418 111.617 159.029 111.179C159.641 110.721 160.334 110.383 161.149 110.144C161.964 109.905 162.82 109.805 163.716 109.805C164.165 109.805 164.634 109.825 165.082 109.885C165.551 109.945 165.979 110.024 166.407 110.104C166.814 110.203 167.201 110.303 167.568 110.422C167.935 110.542 168.22 110.661 168.424 110.781C168.709 110.94 168.913 111.099 169.036 111.278C169.158 111.438 169.219 111.657 169.219 111.935V112.871C169.219 113.289 169.056 113.508 168.75 113.508C168.587 113.508 168.322 113.428 167.976 113.269C166.814 112.751 165.51 112.493 164.063 112.493C162.901 112.493 161.984 112.672 161.352 113.05C160.721 113.428 160.395 114.005 160.395 114.822C160.395 115.379 160.598 115.857 161.006 116.235C161.414 116.613 162.168 116.991 163.248 117.33L166.142 118.225C167.609 118.683 168.669 119.32 169.3 120.136C169.932 120.952 170.238 121.888 170.238 122.923C170.238 123.779 170.054 124.555 169.708 125.232C169.341 125.909 168.852 126.506 168.22 126.984C167.589 127.481 166.835 127.84 165.958 128.099C165.041 128.377 164.083 128.517 163.044 128.517Z" fill="white"/>
<path fill-rule="evenodd" clip-rule="evenodd" d="M166.896 138.19C160.191 143.027 150.449 145.594 142.073 145.594C130.335 145.594 119.758 141.355 111.769 134.308C111.138 133.751 111.708 132.994 112.462 133.432C121.103 138.329 131.761 141.295 142.787 141.295C150.225 141.295 158.397 139.782 165.917 136.677C167.038 136.179 167.996 137.393 166.896 138.19Z" fill="#FF9900"/>
<path fill-rule="evenodd" clip-rule="evenodd" d="M169.688 135.084C168.832 134.009 164.022 134.567 161.842 134.826C161.189 134.905 161.087 134.348 161.678 133.93C165.51 131.302 171.807 132.059 172.541 132.935C173.274 133.83 172.337 139.981 168.75 142.927C168.2 143.385 167.67 143.146 167.915 142.549C168.73 140.578 170.544 136.139 169.688 135.084Z" fill="#FF9900"/>
<path d="M530.74 289.562H448.74C444.322 289.562 440.74 293.144 440.74 297.562V379.563C440.74 383.981 444.322 387.563 448.74 387.563H530.74C535.158 387.563 538.74 383.981 538.74 379.563V297.562C538.74 293.144 535.158 289.562 530.74 289.562Z" fill="#111113" fill-opacity="0.7"/>
<path d="M530.74 290.02H448.74C444.575 290.02 441.199 293.396 441.199 297.561V379.561C441.199 383.726 444.575 387.102 448.74 387.102H530.74C534.905 387.102 538.282 383.726 538.282 379.561V297.561C538.282 293.396 534.905 290.02 530.74 290.02Z" stroke="#3D3D3F" stroke-width="0.917387" stroke-dasharray="1.83 1.83"/>
<path d="M479.531 310.367H497.662L478.84 364.839C478.646 365.399 478.278 365.885 477.787 366.23C477.295 366.574 476.706 366.76 476.101 366.76H461.99C461.532 366.76 461.08 366.653 460.672 366.449C460.265 366.245 459.912 365.949 459.645 365.585C459.378 365.221 459.203 364.801 459.135 364.358C459.067 363.916 459.108 363.464 459.255 363.039L476.791 312.287C476.985 311.727 477.353 311.241 477.844 310.896C478.336 310.551 478.926 310.367 479.531 310.367Z" fill="url(#paint4_linear_53_162601)"/>
<path d="M505.879 346.902H477.126C476.859 346.902 476.598 346.98 476.377 347.127C476.155 347.274 475.985 347.482 475.887 347.725C475.789 347.968 475.768 348.234 475.827 348.489C475.886 348.743 476.022 348.975 476.217 349.153L494.693 365.996C495.231 366.487 495.939 366.759 496.675 366.759H512.956L505.879 346.902Z" fill="#0078D4"/>
<path d="M479.531 310.367C478.919 310.364 478.323 310.553 477.829 310.905C477.335 311.258 476.969 311.755 476.785 312.325L459.276 362.993C459.12 363.419 459.071 363.875 459.133 364.323C459.196 364.771 459.367 365.198 459.634 365.568C459.901 365.937 460.255 366.238 460.667 366.446C461.078 366.653 461.535 366.761 461.998 366.76H476.473C477.012 366.666 477.516 366.434 477.933 366.087C478.35 365.741 478.666 365.292 478.848 364.787L482.339 354.737L494.811 366.099C495.334 366.521 495.989 366.754 496.667 366.76H512.888L505.774 346.903L485.035 346.908L497.728 310.367H479.531Z" fill="url(#paint5_linear_53_162601)"/>
<path d="M502.69 312.285C502.496 311.726 502.129 311.24 501.638 310.896C501.147 310.552 500.558 310.367 499.954 310.367H479.747C480.351 310.367 480.939 310.552 481.43 310.896C481.921 311.24 482.289 311.726 482.482 312.285L500.019 363.039C500.166 363.463 500.207 363.915 500.139 364.358C500.071 364.801 499.896 365.221 499.629 365.585C499.362 365.949 499.009 366.245 498.602 366.45C498.194 366.654 497.742 366.761 497.284 366.761H517.492C517.95 366.76 518.402 366.654 518.81 366.449C519.218 366.245 519.57 365.948 519.837 365.585C520.104 365.221 520.279 364.8 520.347 364.358C520.414 363.915 520.373 363.463 520.227 363.039L502.69 312.285Z" fill="url(#paint6_linear_53_162601)"/>
<path d="M183.135 289.562H101.135C96.7167 289.562 93.135 293.144 93.135 297.562V379.563C93.135 383.981 96.7167 387.563 101.135 387.563H183.135C187.553 387.563 191.135 383.981 191.135 379.563V297.562C191.135 293.144 187.553 289.562 183.135 289.562Z" fill="#111113" fill-opacity="0.7"/>
<path d="M183.134 290.02H101.134C96.9694 290.02 93.593 293.396 93.593 297.561V379.561C93.593 383.726 96.9694 387.102 101.134 387.102H183.134C187.299 387.102 190.676 383.726 190.676 379.561V297.561C190.676 293.396 187.299 290.02 183.134 290.02Z" stroke="#3D3D3F" stroke-width="0.917387" stroke-dasharray="1.83 1.83"/>
<path d="M150.542 338.563H156.684C157.164 338.563 157.644 338.187 157.644 337.624C157.644 337.53 157.644 337.343 157.548 337.249L146.99 309.125C146.798 308.844 146.51 308.562 146.126 308.562H139.984C139.504 308.562 139.024 308.938 139.024 309.5C139.024 309.594 139.024 309.687 139.12 309.78L149.774 338.093C149.87 338.374 150.158 338.563 150.542 338.563Z" fill="#0073FF"/>
<path d="M149.486 368.563H155.629C156.109 368.563 156.588 368.187 156.588 367.624C156.588 367.53 156.588 367.437 156.493 367.343L134.609 309.125C134.513 308.844 134.129 308.562 133.745 308.562H127.602C127.122 308.562 126.642 308.938 126.642 309.5C126.642 309.594 126.642 309.687 126.738 309.78L148.622 367.999C148.718 368.374 149.102 368.563 149.486 368.563Z" fill="#0073FF"/>
<path d="M137.296 368.562H143.439C143.919 368.562 144.303 368.187 144.399 367.718C144.399 367.624 144.399 367.437 144.303 367.343L133.649 339.124C133.553 338.749 133.169 338.562 132.785 338.562H126.546C126.066 338.562 125.682 339.03 125.682 339.499C125.682 339.593 125.682 339.687 125.778 339.78L136.336 367.999C136.624 368.374 136.912 368.562 137.296 368.562Z" fill="#0073FF"/>
<path d="M151.309 309.78L156.301 322.999C156.397 323.374 156.78 323.563 157.164 323.563H163.211C163.691 323.563 164.171 323.187 164.171 322.624C164.171 322.53 164.171 322.437 164.075 322.343L159.084 309.125C158.988 308.844 158.7 308.562 158.316 308.562H152.173C151.693 308.562 151.213 308.938 151.213 309.5C151.213 309.594 151.213 309.687 151.309 309.78Z" fill="#0073FF"/>
<path d="M125.97 368.562H132.113C132.593 368.562 133.073 368.187 133.073 367.624C133.073 367.53 133.073 367.437 132.977 367.343L127.986 354.124C127.89 353.749 127.506 353.562 127.122 353.562H120.979C120.499 353.562 120.019 353.937 120.019 354.499C120.019 354.593 120.019 354.687 120.115 354.78L125.106 367.999C125.202 368.374 125.586 368.562 125.97 368.562Z" fill="#0073FF"/>
<path d="M492.407 290.207C492.407 288.734 491.213 287.541 489.74 287.541C488.267 287.541 487.073 288.734 487.073 290.207C487.073 291.68 488.267 292.874 489.74 292.874C491.213 292.874 492.407 291.68 492.407 290.207ZM492.407 176.698C492.407 175.225 491.213 174.031 489.74 174.031C488.267 174.031 487.073 175.225 487.073 176.698C487.073 178.171 488.267 179.365 489.74 179.365C491.213 179.365 492.407 178.171 492.407 176.698ZM489.24 176.698V177.711H490.24V176.698H489.24ZM489.24 179.738V181.765H490.24V179.738H489.24ZM489.24 183.792V185.819H490.24V183.792H489.24ZM489.24 187.846V189.873H490.24V187.846H489.24ZM489.24 191.9V193.927H490.24V191.9H489.24ZM489.24 195.954V197.981H490.24V195.954H489.24ZM489.24 200.008V202.035H490.24V200.008H489.24ZM489.24 204.062V206.089H490.24V204.062H489.24ZM489.24 208.116V210.143H490.24V208.116H489.24ZM489.24 212.17V214.197H490.24V212.17H489.24ZM489.24 216.223V218.25H490.24V216.223H489.24ZM489.24 220.277V222.304H490.24V220.277H489.24ZM489.24 224.331V226.358H490.24V224.331H489.24ZM489.24 228.385V230.412H490.24V228.385H489.24ZM489.24 232.439V234.466H490.24V232.439H489.24ZM489.24 236.493V238.52H490.24V236.493H489.24ZM489.24 240.547V242.574H490.24V240.547H489.24ZM489.24 244.601V246.628H490.24V244.601H489.24ZM489.24 248.655V250.682H490.24V248.655H489.24ZM489.24 252.709V254.736H490.24V252.709H489.24ZM489.24 256.762V258.789H490.24V256.762H489.24ZM489.24 260.816V262.843H490.24V260.816H489.24ZM489.24 264.87V266.897H490.24V264.87H489.24ZM489.24 268.924V270.951H490.24V268.924H489.24ZM489.24 272.978V275.005H490.24V272.978H489.24ZM489.24 277.032V279.059H490.24V277.032H489.24ZM489.24 281.086V283.113H490.24V281.086H489.24ZM489.24 285.14V287.167H490.24V285.14H489.24ZM489.24 289.194V290.207H490.24V289.194H489.24Z" fill="url(#paint7_radial_53_162601)"/>
<path d="M144.893 290.207C144.893 288.734 143.699 287.541 142.226 287.541C140.754 287.541 139.56 288.734 139.56 290.207C139.56 291.68 140.754 292.874 142.226 292.874C143.699 292.874 144.893 291.68 144.893 290.207ZM144.893 176.698C144.893 175.225 143.699 174.031 142.226 174.031C140.754 174.031 139.56 175.225 139.56 176.698C139.56 178.171 140.754 179.365 142.226 179.365C143.699 179.365 144.893 178.171 144.893 176.698ZM141.726 176.698V177.711H142.726V176.698H141.726ZM141.726 179.738V181.765H142.726V179.738H141.726ZM141.726 183.792V185.819H142.726V183.792H141.726ZM141.726 187.846V189.873H142.726V187.846H141.726ZM141.726 191.9V193.927H142.726V191.9H141.726ZM141.726 195.954V197.981H142.726V195.954H141.726ZM141.726 200.008V202.035H142.726V200.008H141.726ZM141.726 204.062V206.089H142.726V204.062H141.726ZM141.726 208.116V210.143H142.726V208.116H141.726ZM141.726 212.17V214.197H142.726V212.17H141.726ZM141.726 216.223V218.25H142.726V216.223H141.726ZM141.726 220.277V222.304H142.726V220.277H141.726ZM141.726 224.331V226.358H142.726V224.331H141.726ZM141.726 228.385V230.412H142.726V228.385H141.726ZM141.726 232.439V234.466H142.726V232.439H141.726ZM141.726 236.493V238.52H142.726V236.493H141.726ZM141.726 240.547V242.574H142.726V240.547H141.726ZM141.726 244.601V246.628H142.726V244.601H141.726ZM141.726 248.655V250.682H142.726V248.655H141.726ZM141.726 252.709V254.736H142.726V252.709H141.726ZM141.726 256.762V258.789H142.726V256.762H141.726ZM141.726 260.816V262.843H142.726V260.816H141.726ZM141.726 264.87V266.897H142.726V264.87H141.726ZM141.726 268.924V270.951H142.726V268.924H141.726ZM141.726 272.978V275.005H142.726V272.978H141.726ZM141.726 277.032V279.059H142.726V277.032H141.726ZM141.726 281.086V283.113H142.726V281.086H141.726ZM141.726 285.14V287.167H142.726V285.14H141.726ZM141.726 289.194V290.207H142.726V289.194H141.726Z" fill="url(#paint8_radial_53_162601)"/>
<path d="M236.365 195.342L233.22 190.5L230.599 195.645L236.365 195.342ZM196.26 174.916L199.405 179.758L202.025 174.613L196.26 174.916ZM233.857 193.504L232.035 192.575L231.581 193.466L233.404 194.395L233.857 193.504ZM230.212 191.647L228.389 190.718L227.935 191.609L229.758 192.538L230.212 191.647ZM226.566 189.79L224.743 188.862L224.289 189.753L226.112 190.681L226.566 189.79ZM222.92 187.933L221.097 187.005L220.643 187.896L222.466 188.824L222.92 187.933ZM219.274 186.076L217.451 185.148L216.997 186.039L218.82 186.967L219.274 186.076ZM215.628 184.219L213.805 183.291L213.351 184.182L215.174 185.11L215.628 184.219ZM211.982 182.362L210.159 181.434L209.705 182.325L211.528 183.253L211.982 182.362ZM208.336 180.505L206.513 179.577L206.059 180.468L207.882 181.397L208.336 180.505ZM204.69 178.649L202.867 177.72L202.413 178.611L204.236 179.54L204.69 178.649ZM201.044 176.792L199.221 175.863L198.767 176.754L200.59 177.683L201.044 176.792Z" fill="url(#paint9_linear_53_162601)"/>
<path d="M436.451 290.209L433.306 285.368L430.685 290.512L436.451 290.209ZM396.346 269.783L399.491 274.625L402.111 269.48L396.346 269.783ZM433.943 288.371L432.12 287.443L431.667 288.334L433.49 289.262L433.943 288.371ZM430.298 286.514L428.475 285.586L428.021 286.477L429.844 287.405L430.298 286.514ZM426.652 284.657L424.829 283.729L424.375 284.62L426.198 285.548L426.652 284.657ZM423.006 282.8L421.183 281.872L420.729 282.763L422.552 283.691L423.006 282.8ZM419.36 280.943L417.537 280.015L417.083 280.906L418.906 281.834L419.36 280.943ZM415.714 279.086L413.891 278.158L413.437 279.049L415.26 279.978L415.714 279.086ZM412.068 277.23L410.245 276.301L409.791 277.192L411.614 278.121L412.068 277.23ZM408.422 275.373L406.599 274.444L406.145 275.335L407.968 276.264L408.422 275.373ZM404.776 273.516L402.953 272.587L402.499 273.478L404.322 274.407L404.776 273.516ZM401.13 271.659L399.307 270.73L398.853 271.621L400.676 272.55L401.13 271.659Z" fill="url(#paint10_linear_53_162601)"/>
<path d="M441.689 335.895C440.216 335.895 439.023 337.089 439.023 338.562C439.023 340.034 440.216 341.228 441.689 341.228C443.162 341.228 444.356 340.034 444.356 338.562C444.356 337.089 443.162 335.895 441.689 335.895ZM191.136 335.895C189.663 335.895 188.469 337.089 188.469 338.562C188.469 340.034 189.663 341.228 191.136 341.228C192.609 341.228 193.802 340.034 193.802 338.562C193.802 337.089 192.609 335.895 191.136 335.895ZM191.136 339.062H192.13V338.062H191.136V339.062ZM194.119 339.062H196.107V338.062H194.119V339.062ZM198.096 339.062H200.084V338.062H198.096V339.062ZM202.073 339.062H204.061V338.062H202.073V339.062ZM206.05 339.062H208.038V338.062H206.05V339.062ZM210.027 339.062H212.015V338.062H210.027V339.062ZM214.004 339.062H215.992V338.062H214.004V339.062ZM217.981 339.062H219.969V338.062H217.981V339.062ZM221.958 339.062H223.946V338.062H221.958V339.062ZM225.935 339.062H227.923V338.062H225.935V339.062ZM229.912 339.062H231.9V338.062H229.912V339.062ZM233.889 339.062H235.878V338.062H233.889V339.062ZM237.866 339.062H239.855V338.062H237.866V339.062ZM241.843 339.062H243.832V338.062H241.843V339.062ZM245.82 339.062H247.809V338.062H245.82V339.062ZM249.797 339.062H251.786V338.062H249.797V339.062ZM253.774 339.062H255.763V338.062H253.774V339.062ZM257.751 339.062H259.74V338.062H257.751V339.062ZM261.728 339.062H263.717V338.062H261.728V339.062ZM265.705 339.062H267.694V338.062H265.705V339.062ZM269.682 339.062H271.671V338.062H269.682V339.062ZM273.659 339.062H275.648V338.062H273.659V339.062ZM277.636 339.062H279.625V338.062H277.636V339.062ZM281.613 339.062H283.602V338.062H281.613V339.062ZM285.59 339.062H287.579V338.062H285.59V339.062ZM289.567 339.062H291.556V338.062H289.567V339.062ZM293.545 339.062H295.533V338.062H293.545V339.062ZM297.522 339.062H299.51V338.062H297.522V339.062ZM301.499 339.062H303.487V338.062H301.499V339.062ZM305.476 339.062H307.464V338.062H305.476V339.062ZM309.453 339.062H311.441V338.062H309.453V339.062ZM313.43 339.062H315.418V338.062H313.43V339.062ZM317.407 339.062H319.395V338.062H317.407V339.062ZM321.384 339.062H323.372V338.062H321.384V339.062ZM325.361 339.062H327.349V338.062H325.361V339.062ZM329.338 339.062H331.326V338.062H329.338V339.062ZM333.315 339.062H335.303V338.062H333.315V339.062ZM337.292 339.062H339.281V338.062H337.292V339.062ZM341.269 339.062H343.258V338.062H341.269V339.062ZM345.246 339.062H347.235V338.062H345.246V339.062ZM349.223 339.062H351.212V338.062H349.223V339.062ZM353.2 339.062H355.189V338.062H353.2V339.062ZM357.177 339.062H359.166V338.062H357.177V339.062ZM361.154 339.062H363.143V338.062H361.154V339.062ZM365.131 339.062H367.12V338.062H365.131V339.062ZM369.108 339.062H371.097V338.062H369.108V339.062ZM373.085 339.062H375.074V338.062H373.085V339.062ZM377.062 339.062H379.051V338.062H377.062V339.062ZM381.04 339.062H383.028V338.062H381.04V339.062ZM385.017 339.062H387.005V338.062H385.017V339.062ZM388.994 339.062H390.982V338.062H388.994V339.062ZM392.971 339.062H394.959V338.062H392.971V339.062ZM396.948 339.062H398.936V338.062H396.948V339.062ZM400.925 339.062H402.913V338.062H400.925V339.062ZM404.902 339.062H406.89V338.062H404.902V339.062ZM408.879 339.062H410.867V338.062H408.879V339.062ZM412.856 339.062H414.844V338.062H412.856V339.062ZM416.833 339.062H418.822V338.062H416.833V339.062ZM420.81 339.062H422.799V338.062H420.81V339.062ZM424.787 339.062H426.776V338.062H424.787V339.062ZM428.764 339.062H430.753V338.062H428.764V339.062ZM432.741 339.062H434.73V338.062H432.741V339.062ZM436.718 339.062H438.707V338.062H436.718V339.062ZM440.695 339.062H441.689V338.062H440.695V339.062Z" fill="url(#paint11_radial_53_162601)"/>
<path d="M441.689 122.109C440.216 122.109 439.023 123.303 439.023 124.776C439.023 126.248 440.216 127.442 441.689 127.442C443.162 127.442 444.356 126.248 444.356 124.776C444.356 123.303 443.162 122.109 441.689 122.109ZM191.136 122.109C189.663 122.109 188.469 123.303 188.469 124.776C188.469 126.248 189.663 127.442 191.136 127.442C192.609 127.442 193.802 126.248 193.802 124.776C193.802 123.303 192.609 122.109 191.136 122.109ZM191.136 125.276H192.13V124.276H191.136V125.276ZM194.119 125.276H196.107V124.276H194.119V125.276ZM198.096 125.276H200.084V124.276H198.096V125.276ZM202.073 125.276H204.061V124.276H202.073V125.276ZM206.05 125.276H208.038V124.276H206.05V125.276ZM210.027 125.276H212.015V124.276H210.027V125.276ZM214.004 125.276H215.992V124.276H214.004V125.276ZM217.981 125.276H219.969V124.276H217.981V125.276ZM221.958 125.276H223.946V124.276H221.958V125.276ZM225.935 125.276H227.923V124.276H225.935V125.276ZM229.912 125.276H231.9V124.276H229.912V125.276ZM233.889 125.276H235.878V124.276H233.889V125.276ZM237.866 125.276H239.855V124.276H237.866V125.276ZM241.843 125.276H243.832V124.276H241.843V125.276ZM245.82 125.276H247.809V124.276H245.82V125.276ZM249.797 125.276H251.786V124.276H249.797V125.276ZM253.774 125.276H255.763V124.276H253.774V125.276ZM257.751 125.276H259.74V124.276H257.751V125.276ZM261.728 125.276H263.717V124.276H261.728V125.276ZM265.705 125.276H267.694V124.276H265.705V125.276ZM269.682 125.276H271.671V124.276H269.682V125.276ZM273.659 125.276H275.648V124.276H273.659V125.276ZM277.636 125.276H279.625V124.276H277.636V125.276ZM281.613 125.276H283.602V124.276H281.613V125.276ZM285.59 125.276H287.579V124.276H285.59V125.276ZM289.567 125.276H291.556V124.276H289.567V125.276ZM293.545 125.276H295.533V124.276H293.545V125.276ZM297.522 125.276H299.51V124.276H297.522V125.276ZM301.499 125.276H303.487V124.276H301.499V125.276ZM305.476 125.276H307.464V124.276H305.476V125.276ZM309.453 125.276H311.441V124.276H309.453V125.276ZM313.43 125.276H315.418V124.276H313.43V125.276ZM317.407 125.276H319.395V124.276H317.407V125.276ZM321.384 125.276H323.372V124.276H321.384V125.276ZM325.361 125.276H327.349V124.276H325.361V125.276ZM329.338 125.276H331.326V124.276H329.338V125.276ZM333.315 125.276H335.303V124.276H333.315V125.276ZM337.292 125.276H339.281V124.276H337.292V125.276ZM341.269 125.276H343.258V124.276H341.269V125.276ZM345.246 125.276H347.235V124.276H345.246V125.276ZM349.223 125.276H351.212V124.276H349.223V125.276ZM353.2 125.276H355.189V124.276H353.2V125.276ZM357.177 125.276H359.166V124.276H357.177V125.276ZM361.154 125.276H363.143V124.276H361.154V125.276ZM365.131 125.276H367.12V124.276H365.131V125.276ZM369.108 125.276H371.097V124.276H369.108V125.276ZM373.085 125.276H375.074V124.276H373.085V125.276ZM377.062 125.276H379.051V124.276H377.062V125.276ZM381.04 125.276H383.028V124.276H381.04V125.276ZM385.017 125.276H387.005V124.276H385.017V125.276ZM388.994 125.276H390.982V124.276H388.994V125.276ZM392.971 125.276H394.959V124.276H392.971V125.276ZM396.948 125.276H398.936V124.276H396.948V125.276ZM400.925 125.276H402.913V124.276H400.925V125.276ZM404.902 125.276H406.89V124.276H404.902V125.276ZM408.879 125.276H410.867V124.276H408.879V125.276ZM412.856 125.276H414.844V124.276H412.856V125.276ZM416.833 125.276H418.822V124.276H416.833V125.276ZM420.81 125.276H422.799V124.276H420.81V125.276ZM424.787 125.276H426.776V124.276H424.787V125.276ZM428.764 125.276H430.753V124.276H428.764V125.276ZM432.741 125.276H434.73V124.276H432.741V125.276ZM436.718 125.276H438.707V124.276H436.718V125.276ZM440.695 125.276H441.689V124.276H440.695V125.276Z" fill="url(#paint12_radial_53_162601)"/>
<defs>
<filter id="filter0_d_53_162601" x="253.688" y="173.934" width="124.104" height="124.548" filterUnits="userSpaceOnUse" color-interpolation-filters="sRGB">
<feFlood flood-opacity="0" result="BackgroundImageFix"/>
<feColorMatrix in="SourceAlpha" type="matrix" values="0 0 0 0 0 0 0 0 0 0 0 0 0 0 0 0 0 0 127 0" result="hardAlpha"/>
<feOffset dy="3.40124"/>
<feGaussianBlur stdDeviation="9.77857"/>
<feComposite in2="hardAlpha" operator="out"/>
<feColorMatrix type="matrix" values="0 0 0 0 0 0 0 0 0 0 0 0 0 0 0 0 0 0 0.95 0"/>
<feBlend mode="normal" in2="BackgroundImageFix" result="effect1_dropShadow_53_162601"/>
<feBlend mode="normal" in="SourceGraphic" in2="effect1_dropShadow_53_162601" result="shape"/>
</filter>
<filter id="filter1_d_53_162601" x="258.156" y="174.68" width="117.448" height="118.424" filterUnits="userSpaceOnUse" color-interpolation-filters="sRGB">
<feFlood flood-opacity="0" result="BackgroundImageFix"/>
<feColorMatrix in="SourceAlpha" type="matrix" values="0 0 0 0 0 0 0 0 0 0 0 0 0 0 0 0 0 0 127 0" result="hardAlpha"/>
<feOffset dy="1.7706"/>
<feGaussianBlur stdDeviation="0.885298"/>
<feComposite in2="hardAlpha" operator="out"/>
<feColorMatrix type="matrix" values="0 0 0 0 0.432266 0 0 0 0 0.00354165 0 0 0 0 0.846458 0 0 0 1 0"/>
<feBlend mode="normal" in2="BackgroundImageFix" result="effect1_dropShadow_53_162601"/>
<feBlend mode="normal" in="SourceGraphic" in2="effect1_dropShadow_53_162601" result="shape"/>
</filter>
<linearGradient id="paint0_linear_53_162601" x1="149.638" y1="126.078" x2="417.402" y2="500.174" gradientUnits="userSpaceOnUse">
<stop offset="0.015625" stop-color="#B010FB"/>
<stop offset="0.130208" stop-color="#DE97FF"/>
<stop offset="0.234375" stop-color="#A227DB"/>
<stop offset="0.505208" stop-color="#A227DB" stop-opacity="0"/>
<stop offset="0.765625" stop-color="#A610EC" stop-opacity="0.84"/>
</linearGradient>
<linearGradient id="paint1_linear_53_162601" x1="285.128" y1="169.83" x2="354.54" y2="331.034" gradientUnits="userSpaceOnUse">
<stop offset="0.015625" stop-color="#B010FB"/>
<stop offset="0.130208" stop-color="#DE97FF"/>
<stop offset="0.234375" stop-color="#A227DB"/>
<stop offset="0.505208" stop-color="#A227DB" stop-opacity="0"/>
<stop offset="0.765625" stop-color="#A610EC" stop-opacity="0.84"/>
</linearGradient>
<linearGradient id="paint2_linear_53_162601" x1="396.345" y1="174.682" x2="423.284" y2="174.651" gradientUnits="userSpaceOnUse">
<stop offset="0.03125" stop-color="#E151F7"/>
<stop offset="0.96875" stop-color="#5C47F5"/>
</linearGradient>
<linearGradient id="paint3_linear_53_162601" x1="196.261" y1="269.783" x2="223.2" y2="269.753" gradientUnits="userSpaceOnUse">
<stop offset="0.03125" stop-color="#E151F7"/>
<stop offset="0.96875" stop-color="#5C47F5"/>
</linearGradient>
<linearGradient id="paint4_linear_53_162601" x1="502.066" y1="314.546" x2="489.989" y2="372.595" gradientUnits="userSpaceOnUse">
<stop stop-color="#114A8B"/>
<stop offset="1" stop-color="#0669BC"/>
</linearGradient>
<linearGradient id="paint5_linear_53_162601" x1="496.558" y1="339.868" x2="491.777" y2="341.751" gradientUnits="userSpaceOnUse">
<stop stop-opacity="0.3"/>
<stop offset="0.071" stop-opacity="0.2"/>
<stop offset="0.321" stop-opacity="0.1"/>
<stop offset="0.623" stop-opacity="0.05"/>
<stop offset="1" stop-opacity="0"/>
</linearGradient>
<linearGradient id="paint6_linear_53_162601" x1="489.626" y1="312.961" x2="509.458" y2="367.056" gradientUnits="userSpaceOnUse">
<stop stop-color="#3CCBF4"/>
<stop offset="1" stop-color="#2892DF"/>
</linearGradient>
<radialGradient id="paint7_radial_53_162601" cx="0" cy="0" r="1" gradientUnits="userSpaceOnUse" gradientTransform="translate(489.74 233.377) rotate(-90) scale(16.0419 2.19558e-05)">
<stop stop-color="#43A2F9"/>
<stop offset="0.625" stop-color="#F539C0"/>
<stop offset="0.90625" stop-color="#DE15FF"/>
</radialGradient>
<radialGradient id="paint8_radial_53_162601" cx="0" cy="0" r="1" gradientUnits="userSpaceOnUse" gradientTransform="translate(142.226 233.377) rotate(-90) scale(16.0419 2.19559e-05)">
<stop stop-color="#43A2F9"/>
<stop offset="0.625" stop-color="#F539C0"/>
<stop offset="0.90625" stop-color="#DE15FF"/>
</radialGradient>
<linearGradient id="paint9_linear_53_162601" x1="236.365" y1="174.916" x2="209.426" y2="174.886" gradientUnits="userSpaceOnUse">
<stop offset="0.03125" stop-color="#E151F7"/>
<stop offset="0.96875" stop-color="#5C47F5"/>
</linearGradient>
<linearGradient id="paint10_linear_53_162601" x1="436.451" y1="269.783" x2="409.512" y2="269.753" gradientUnits="userSpaceOnUse">
<stop offset="0.03125" stop-color="#E151F7"/>
<stop offset="0.96875" stop-color="#5C47F5"/>
</linearGradient>
<radialGradient id="paint11_radial_53_162601" cx="0" cy="0" r="1" gradientUnits="userSpaceOnUse" gradientTransform="translate(316.246 338.562) rotate(180) scale(35.4099 3.14536e-06)">
<stop stop-color="#43A2F9"/>
<stop offset="0.625" stop-color="#F539C0"/>
<stop offset="0.90625" stop-color="#DE15FF"/>
</radialGradient>
<radialGradient id="paint12_radial_53_162601" cx="0" cy="0" r="1" gradientUnits="userSpaceOnUse" gradientTransform="translate(316.246 124.776) rotate(180) scale(35.4099 3.14536e-06)">
<stop stop-color="#43A2F9"/>
<stop offset="0.625" stop-color="#F539C0"/>
<stop offset="0.90625" stop-color="#DE15FF"/>
</radialGradient>
</defs>
</svg>
