<svg width="570" height="418" viewBox="0 0 570 418" fill="none" xmlns="http://www.w3.org/2000/svg">
    <path d="M112.012 49C111.453 49 111 49.4531 111 50.0119V56.848C111 57.4069 111.453 57.86 112.012 57.86H118.848C119.407 57.86 119.86 57.4069 119.86 56.848V50.0119C119.86 49.4531 119.407 49 118.848 49H112.012Z" fill="url(#paint0_linear_2550_14066)"/>
    <path d="M147.453 49C146.894 49 146.441 49.4531 146.441 50.0119V56.848C146.441 57.4069 146.894 57.86 147.453 57.86H154.289C154.848 57.86 155.301 57.4069 155.301 56.848V50.0119C155.301 49.4531 154.848 49 154.289 49H147.453Z" fill="url(#paint1_linear_2550_14066)"/>
    <path d="M181.881 50.0119C181.881 49.4531 182.334 49 182.893 49H189.729C190.288 49 190.741 49.4531 190.741 50.0119V56.848C190.741 57.4069 190.288 57.86 189.729 57.86H182.893C182.334 57.86 181.881 57.4069 181.881 56.848V50.0119Z" fill="url(#paint2_linear_2550_14066)"/>
    <path d="M218.331 49C217.772 49 217.319 49.4531 217.319 50.0119V56.848C217.319 57.4069 217.772 57.86 218.331 57.86H225.167C225.726 57.86 226.179 57.4069 226.179 56.848V50.0119C226.179 49.4531 225.726 49 225.167 49H218.331Z" fill="url(#paint3_linear_2550_14066)"/>
    <path d="M252.759 50.0119C252.759 49.4531 253.212 49 253.771 49H260.607C261.166 49 261.619 49.4531 261.619 50.0119V56.848C261.619 57.4069 261.166 57.86 260.607 57.86H253.771C253.212 57.86 252.759 57.4069 252.759 56.848V50.0119Z" fill="url(#paint4_linear_2550_14066)"/>
    <path d="M289.211 49C288.652 49 288.199 49.4531 288.199 50.0119V56.848C288.199 57.4069 288.652 57.86 289.211 57.86H296.047C296.606 57.86 297.059 57.4069 297.059 56.848V50.0119C297.059 49.4531 296.606 49 296.047 49H289.211Z" fill="url(#paint5_linear_2550_14066)"/>
    <path d="M323.639 50.0119C323.639 49.4531 324.092 49 324.651 49H331.487C332.046 49 332.499 49.4531 332.499 50.0119V56.848C332.499 57.4069 332.046 57.86 331.487 57.86H324.651C324.092 57.86 323.639 57.4069 323.639 56.848V50.0119Z" fill="url(#paint6_linear_2550_14066)"/>
    <path d="M360.092 49C359.533 49 359.08 49.4531 359.08 50.0119V56.848C359.08 57.4069 359.533 57.86 360.092 57.86H366.928C367.487 57.86 367.94 57.4069 367.94 56.848V50.0119C367.94 49.4531 367.487 49 366.928 49H360.092Z" fill="url(#paint7_linear_2550_14066)"/>
    <path d="M394.517 50.0119C394.517 49.4531 394.97 49 395.529 49H402.365C402.924 49 403.377 49.4531 403.377 50.0119V56.848C403.377 57.4069 402.924 57.86 402.365 57.86H395.529C394.97 57.86 394.517 57.4069 394.517 56.848V50.0119Z" fill="url(#paint8_linear_2550_14066)"/>
    <path d="M430.97 49C430.411 49 429.958 49.4531 429.958 50.0119V56.848C429.958 57.4069 430.411 57.86 430.97 57.86H437.806C438.365 57.86 438.818 57.4069 438.818 56.848V50.0119C438.818 49.4531 438.365 49 437.806 49H430.97Z" fill="url(#paint9_linear_2550_14066)"/>
    <path d="M111 85.4518C111 84.8929 111.453 84.4399 112.012 84.4399H118.848C119.407 84.4399 119.86 84.893 119.86 85.4518V92.2879C119.86 92.8468 119.407 93.2998 118.848 93.2998H112.012C111.453 93.2998 111 92.8468 111 92.2879V85.4518Z" fill="url(#paint10_linear_2550_14066)"/>
    <path d="M147.453 84.4399C146.894 84.4399 146.441 84.8929 146.441 85.4518V92.2879C146.441 92.8468 146.894 93.2998 147.453 93.2998H154.289C154.848 93.2998 155.301 92.8468 155.301 92.2879V85.4518C155.301 84.893 154.848 84.4399 154.289 84.4399H147.453Z" fill="url(#paint11_linear_2550_14066)"/>
    <path d="M181.881 85.4518C181.881 84.8929 182.334 84.4399 182.893 84.4399H189.729C190.288 84.4399 190.741 84.893 190.741 85.4518V92.2879C190.741 92.8468 190.288 93.2998 189.729 93.2998H182.893C182.334 93.2998 181.881 92.8468 181.881 92.2879V85.4518Z" fill="url(#paint12_linear_2550_14066)"/>
    <path d="M218.331 84.4399C217.772 84.4399 217.319 84.8929 217.319 85.4518V92.2879C217.319 92.8468 217.772 93.2998 218.331 93.2998H225.167C225.726 93.2998 226.179 92.8468 226.179 92.2879V85.4518C226.179 84.893 225.726 84.4399 225.167 84.4399H218.331Z" fill="url(#paint13_linear_2550_14066)"/>
    <path d="M252.759 85.4518C252.759 84.8929 253.212 84.4399 253.771 84.4399H260.607C261.166 84.4399 261.619 84.893 261.619 85.4518V92.2879C261.619 92.8468 261.166 93.2998 260.607 93.2998H253.771C253.212 93.2998 252.759 92.8468 252.759 92.2879V85.4518Z" fill="url(#paint14_linear_2550_14066)"/>
    <path d="M289.211 84.4399C288.652 84.4399 288.199 84.8929 288.199 85.4518V92.2879C288.199 92.8468 288.652 93.2998 289.211 93.2998H296.047C296.606 93.2998 297.059 92.8468 297.059 92.2879V85.4518C297.059 84.893 296.606 84.4399 296.047 84.4399H289.211Z" fill="url(#paint15_linear_2550_14066)"/>
    <path d="M323.639 85.4518C323.639 84.8929 324.092 84.4399 324.651 84.4399H331.487C332.046 84.4399 332.499 84.893 332.499 85.4518V92.2879C332.499 92.8468 332.046 93.2998 331.487 93.2998H324.651C324.092 93.2998 323.639 92.8468 323.639 92.2879V85.4518Z" fill="url(#paint16_linear_2550_14066)"/>
    <path d="M360.092 84.4399C359.533 84.4399 359.08 84.8929 359.08 85.4518V92.2879C359.08 92.8468 359.533 93.2998 360.092 93.2998H366.928C367.487 93.2998 367.94 92.8468 367.94 92.2879V85.4518C367.94 84.893 367.487 84.4399 366.928 84.4399H360.092Z" fill="url(#paint17_linear_2550_14066)"/>
    <path d="M394.517 85.4518C394.517 84.8929 394.97 84.4399 395.529 84.4399H402.365C402.924 84.4399 403.377 84.893 403.377 85.4518V92.2879C403.377 92.8468 402.924 93.2998 402.365 93.2998H395.529C394.97 93.2998 394.517 92.8468 394.517 92.2879V85.4518Z" fill="url(#paint18_linear_2550_14066)"/>
    <path d="M430.97 84.4399C430.411 84.4399 429.958 84.8929 429.958 85.4518V92.2879C429.958 92.8468 430.411 93.2998 430.97 93.2998H437.806C438.365 93.2998 438.818 92.8468 438.818 92.2879V85.4518C438.818 84.893 438.365 84.4399 437.806 84.4399H430.97Z" fill="url(#paint19_linear_2550_14066)"/>
    <path d="M111 120.891C111 120.333 111.453 119.88 112.012 119.88H118.848C119.407 119.88 119.86 120.333 119.86 120.891V127.728C119.86 128.286 119.407 128.739 118.848 128.739H112.012C111.453 128.739 111 128.286 111 127.728V120.891Z" fill="url(#paint20_linear_2550_14066)"/>
    <path d="M147.453 119.88C146.894 119.88 146.441 120.333 146.441 120.891V127.728C146.441 128.286 146.894 128.739 147.453 128.739H154.289C154.848 128.739 155.301 128.286 155.301 127.728V120.891C155.301 120.333 154.848 119.88 154.289 119.88H147.453Z" fill="url(#paint21_linear_2550_14066)"/>
    <path d="M181.881 120.891C181.881 120.333 182.334 119.88 182.893 119.88H189.729C190.288 119.88 190.741 120.333 190.741 120.891V127.728C190.741 128.286 190.288 128.739 189.729 128.739H182.893C182.334 128.739 181.881 128.286 181.881 127.728V120.891Z" fill="url(#paint22_linear_2550_14066)"/>
    <path d="M218.331 119.88C217.772 119.88 217.319 120.333 217.319 120.891V127.728C217.319 128.286 217.772 128.739 218.331 128.739H225.167C225.726 128.739 226.179 128.286 226.179 127.728V120.891C226.179 120.333 225.726 119.88 225.167 119.88H218.331Z" fill="url(#paint23_linear_2550_14066)"/>
    <path d="M252.759 120.891C252.759 120.333 253.212 119.88 253.771 119.88H260.607C261.166 119.88 261.619 120.333 261.619 120.891V127.728C261.619 128.286 261.166 128.739 260.607 128.739H253.771C253.212 128.739 252.759 128.286 252.759 127.728V120.891Z" fill="url(#paint24_linear_2550_14066)"/>
    <path d="M289.211 119.88C288.652 119.88 288.199 120.333 288.199 120.891V127.728C288.199 128.286 288.652 128.739 289.211 128.739H296.047C296.606 128.739 297.059 128.286 297.059 127.728V120.891C297.059 120.333 296.606 119.88 296.047 119.88H289.211Z" fill="url(#paint25_linear_2550_14066)"/>
    <path d="M323.639 120.891C323.639 120.333 324.092 119.88 324.651 119.88H331.487C332.046 119.88 332.499 120.333 332.499 120.891V127.728C332.499 128.286 332.046 128.739 331.487 128.739H324.651C324.092 128.739 323.639 128.286 323.639 127.728V120.891Z" fill="url(#paint26_linear_2550_14066)"/>
    <path d="M360.092 119.88C359.533 119.88 359.08 120.333 359.08 120.891V127.728C359.08 128.286 359.533 128.739 360.092 128.739H366.928C367.487 128.739 367.94 128.286 367.94 127.728V120.891C367.94 120.333 367.487 119.88 366.928 119.88H360.092Z" fill="url(#paint27_linear_2550_14066)"/>
    <path d="M394.517 120.891C394.517 120.333 394.97 119.88 395.529 119.88H402.365C402.924 119.88 403.377 120.333 403.377 120.891V127.728C403.377 128.286 402.924 128.739 402.365 128.739H395.529C394.97 128.739 394.517 128.286 394.517 127.728V120.891Z" fill="url(#paint28_linear_2550_14066)"/>
    <path d="M430.97 119.88C430.411 119.88 429.958 120.333 429.958 120.891V127.728C429.958 128.286 430.411 128.739 430.97 128.739H437.806C438.365 128.739 438.818 128.286 438.818 127.728V120.891C438.818 120.333 438.365 119.88 437.806 119.88H430.97Z" fill="url(#paint29_linear_2550_14066)"/>
    <path d="M111 156.331C111 155.772 111.453 155.319 112.012 155.319H118.848C119.407 155.319 119.86 155.772 119.86 156.331V163.167C119.86 163.726 119.407 164.179 118.848 164.179H112.012C111.453 164.179 111 163.726 111 163.167V156.331Z" fill="url(#paint30_linear_2550_14066)"/>
    <path d="M147.453 155.319C146.894 155.319 146.441 155.772 146.441 156.331V163.167C146.441 163.726 146.894 164.179 147.453 164.179H154.289C154.848 164.179 155.301 163.726 155.301 163.167V156.331C155.301 155.772 154.848 155.319 154.289 155.319H147.453Z" fill="url(#paint31_linear_2550_14066)"/>
    <path d="M181.881 156.331C181.881 155.772 182.334 155.319 182.893 155.319H189.729C190.288 155.319 190.741 155.772 190.741 156.331V163.167C190.741 163.726 190.288 164.179 189.729 164.179H182.893C182.334 164.179 181.881 163.726 181.881 163.167V156.331Z" fill="url(#paint32_linear_2550_14066)"/>
    <path d="M218.331 155.319C217.772 155.319 217.319 155.772 217.319 156.331V163.167C217.319 163.726 217.772 164.179 218.331 164.179H225.167C225.726 164.179 226.179 163.726 226.179 163.167V156.331C226.179 155.772 225.726 155.319 225.167 155.319H218.331Z" fill="url(#paint33_linear_2550_14066)"/>
    <path d="M252.759 156.331C252.759 155.772 253.212 155.319 253.771 155.319H260.607C261.166 155.319 261.619 155.772 261.619 156.331V163.167C261.619 163.726 261.166 164.179 260.607 164.179H253.771C253.212 164.179 252.759 163.726 252.759 163.167V156.331Z" fill="url(#paint34_linear_2550_14066)"/>
    <path d="M289.211 155.319C288.652 155.319 288.199 155.772 288.199 156.331V163.167C288.199 163.726 288.652 164.179 289.211 164.179H296.047C296.606 164.179 297.059 163.726 297.059 163.167V156.331C297.059 155.772 296.606 155.319 296.047 155.319H289.211Z" fill="url(#paint35_linear_2550_14066)"/>
    <path d="M323.639 156.331C323.639 155.772 324.092 155.319 324.651 155.319H331.487C332.046 155.319 332.499 155.772 332.499 156.331V163.167C332.499 163.726 332.046 164.179 331.487 164.179H324.651C324.092 164.179 323.639 163.726 323.639 163.167V156.331Z" fill="url(#paint36_linear_2550_14066)"/>
    <path d="M360.092 155.319C359.533 155.319 359.08 155.772 359.08 156.331V163.167C359.08 163.726 359.533 164.179 360.092 164.179H366.928C367.487 164.179 367.94 163.726 367.94 163.167V156.331C367.94 155.772 367.487 155.319 366.928 155.319H360.092Z" fill="url(#paint37_linear_2550_14066)"/>
    <path d="M394.517 156.331C394.517 155.772 394.97 155.319 395.529 155.319H402.365C402.924 155.319 403.377 155.772 403.377 156.331V163.167C403.377 163.726 402.924 164.179 402.365 164.179H395.529C394.97 164.179 394.517 163.726 394.517 163.167V156.331Z" fill="url(#paint38_linear_2550_14066)"/>
    <path d="M430.97 155.319C430.411 155.319 429.958 155.772 429.958 156.331V163.167C429.958 163.726 430.411 164.179 430.97 164.179H437.806C438.365 164.179 438.818 163.726 438.818 163.167V156.331C438.818 155.772 438.365 155.319 437.806 155.319H430.97Z" fill="url(#paint39_linear_2550_14066)"/>
    <path d="M111 191.771C111 191.212 111.453 190.759 112.012 190.759H118.848C119.407 190.759 119.86 191.212 119.86 191.771V198.607C119.86 199.166 119.407 199.619 118.848 199.619H112.012C111.453 199.619 111 199.166 111 198.607V191.771Z" fill="url(#paint40_linear_2550_14066)"/>
    <path d="M147.453 190.759C146.894 190.759 146.441 191.212 146.441 191.771V198.607C146.441 199.166 146.894 199.619 147.453 199.619H154.289C154.848 199.619 155.301 199.166 155.301 198.607V191.771C155.301 191.212 154.848 190.759 154.289 190.759H147.453Z" fill="url(#paint41_linear_2550_14066)"/>
    <path d="M181.881 191.771C181.881 191.212 182.334 190.759 182.893 190.759H189.729C190.288 190.759 190.741 191.212 190.741 191.771V198.607C190.741 199.166 190.288 199.619 189.729 199.619H182.893C182.334 199.619 181.881 199.166 181.881 198.607V191.771Z" fill="url(#paint42_linear_2550_14066)"/>
    <path d="M218.331 190.759C217.772 190.759 217.319 191.212 217.319 191.771V198.607C217.319 199.166 217.772 199.619 218.331 199.619H225.167C225.726 199.619 226.179 199.166 226.179 198.607V191.771C226.179 191.212 225.726 190.759 225.167 190.759H218.331Z" fill="url(#paint43_linear_2550_14066)"/>
    <path d="M252.759 191.771C252.759 191.212 253.212 190.759 253.771 190.759H260.607C261.166 190.759 261.619 191.212 261.619 191.771V198.607C261.619 199.166 261.166 199.619 260.607 199.619H253.771C253.212 199.619 252.759 199.166 252.759 198.607V191.771Z" fill="url(#paint44_linear_2550_14066)"/>
    <path d="M289.211 190.759C288.652 190.759 288.199 191.212 288.199 191.771V198.607C288.199 199.166 288.652 199.619 289.211 199.619H296.047C296.606 199.619 297.059 199.166 297.059 198.607V191.771C297.059 191.212 296.606 190.759 296.047 190.759H289.211Z" fill="url(#paint45_linear_2550_14066)"/>
    <path d="M323.639 191.771C323.639 191.212 324.092 190.759 324.651 190.759H331.487C332.046 190.759 332.499 191.212 332.499 191.771V198.607C332.499 199.166 332.046 199.619 331.487 199.619H324.651C324.092 199.619 323.639 199.166 323.639 198.607V191.771Z" fill="url(#paint46_linear_2550_14066)"/>
    <path d="M360.092 190.759C359.533 190.759 359.08 191.212 359.08 191.771V198.607C359.08 199.166 359.533 199.619 360.092 199.619H366.928C367.487 199.619 367.94 199.166 367.94 198.607V191.771C367.94 191.212 367.487 190.759 366.928 190.759H360.092Z" fill="url(#paint47_linear_2550_14066)"/>
    <path d="M394.517 191.771C394.517 191.212 394.97 190.759 395.529 190.759H402.365C402.924 190.759 403.377 191.212 403.377 191.771V198.607C403.377 199.166 402.924 199.619 402.365 199.619H395.529C394.97 199.619 394.517 199.166 394.517 198.607V191.771Z" fill="url(#paint48_linear_2550_14066)"/>
    <path d="M430.97 190.759C430.411 190.759 429.958 191.212 429.958 191.771V198.607C429.958 199.166 430.411 199.619 430.97 199.619H437.806C438.365 199.619 438.818 199.166 438.818 198.607V191.771C438.818 191.212 438.365 190.759 437.806 190.759H430.97Z" fill="url(#paint49_linear_2550_14066)"/>
    <path d="M111 227.211C111 226.652 111.453 226.199 112.012 226.199H118.848C119.407 226.199 119.86 226.652 119.86 227.211V234.047C119.86 234.606 119.407 235.059 118.848 235.059H112.012C111.453 235.059 111 234.606 111 234.047V227.211Z" fill="url(#paint50_linear_2550_14066)"/>
    <path d="M147.453 226.199C146.894 226.199 146.441 226.652 146.441 227.211V234.047C146.441 234.606 146.894 235.059 147.453 235.059H154.289C154.848 235.059 155.301 234.606 155.301 234.047V227.211C155.301 226.652 154.848 226.199 154.289 226.199H147.453Z" fill="url(#paint51_linear_2550_14066)"/>
    <path d="M181.881 227.211C181.881 226.652 182.334 226.199 182.893 226.199H189.729C190.288 226.199 190.741 226.652 190.741 227.211V234.047C190.741 234.606 190.288 235.059 189.729 235.059H182.893C182.334 235.059 181.881 234.606 181.881 234.047V227.211Z" fill="url(#paint52_linear_2550_14066)"/>
    <path d="M218.331 226.199C217.772 226.199 217.319 226.652 217.319 227.211V234.047C217.319 234.606 217.772 235.059 218.331 235.059H225.167C225.726 235.059 226.179 234.606 226.179 234.047V227.211C226.179 226.652 225.726 226.199 225.167 226.199H218.331Z" fill="url(#paint53_linear_2550_14066)"/>
    <path d="M252.759 227.211C252.759 226.652 253.212 226.199 253.771 226.199H260.607C261.166 226.199 261.619 226.652 261.619 227.211V234.047C261.619 234.606 261.166 235.059 260.607 235.059H253.771C253.212 235.059 252.759 234.606 252.759 234.047V227.211Z" fill="url(#paint54_linear_2550_14066)"/>
    <path d="M289.211 226.199C288.652 226.199 288.199 226.652 288.199 227.211V234.047C288.199 234.606 288.652 235.059 289.211 235.059H296.047C296.606 235.059 297.059 234.606 297.059 234.047V227.211C297.059 226.652 296.606 226.199 296.047 226.199H289.211Z" fill="url(#paint55_linear_2550_14066)"/>
    <path d="M323.639 227.211C323.639 226.652 324.092 226.199 324.651 226.199H331.487C332.046 226.199 332.499 226.652 332.499 227.211V234.047C332.499 234.606 332.046 235.059 331.487 235.059H324.651C324.092 235.059 323.639 234.606 323.639 234.047V227.211Z" fill="url(#paint56_linear_2550_14066)"/>
    <path d="M360.092 226.199C359.533 226.199 359.08 226.652 359.08 227.211V234.047C359.08 234.606 359.533 235.059 360.092 235.059H366.928C367.487 235.059 367.94 234.606 367.94 234.047V227.211C367.94 226.652 367.487 226.199 366.928 226.199H360.092Z" fill="url(#paint57_linear_2550_14066)"/>
    <path d="M394.517 227.211C394.517 226.652 394.97 226.199 395.529 226.199H402.365C402.924 226.199 403.377 226.652 403.377 227.211V234.047C403.377 234.606 402.924 235.059 402.365 235.059H395.529C394.97 235.059 394.517 234.606 394.517 234.047V227.211Z" fill="url(#paint58_linear_2550_14066)"/>
    <path d="M430.97 226.199C430.411 226.199 429.958 226.652 429.958 227.211V234.047C429.958 234.606 430.411 235.059 430.97 235.059H437.806C438.365 235.059 438.818 234.606 438.818 234.047V227.211C438.818 226.652 438.365 226.199 437.806 226.199H430.97Z" fill="url(#paint59_linear_2550_14066)"/>
    <path d="M111 262.651C111 262.092 111.453 261.639 112.012 261.639H118.848C119.407 261.639 119.86 262.092 119.86 262.651V269.487C119.86 270.046 119.407 270.499 118.848 270.499H112.012C111.453 270.499 111 270.046 111 269.487V262.651Z" fill="url(#paint60_linear_2550_14066)"/>
    <path d="M112.012 295.819C111.453 295.819 111 296.272 111 296.831V303.667C111 304.226 111.453 304.679 112.012 304.679H118.848C119.407 304.679 119.86 304.226 119.86 303.667V296.831C119.86 296.272 119.407 295.819 118.848 295.819H112.012Z" fill="url(#paint61_linear_2550_14066)"/>
    <path d="M111 331.011C111 330.453 111.453 329.999 112.012 329.999H118.848C119.407 329.999 119.86 330.453 119.86 331.011V337.847C119.86 338.406 119.407 338.859 118.848 338.859H112.012C111.453 338.859 111 338.406 111 337.847V331.011Z" fill="url(#paint62_linear_2550_14066)"/>
    <path d="M112.012 364.18C111.453 364.18 111 364.633 111 365.192V372.028C111 372.587 111.453 373.04 112.012 373.04H118.848C119.407 373.04 119.86 372.587 119.86 372.028V365.192C119.86 364.633 119.407 364.18 118.848 364.18H112.012Z" fill="url(#paint63_linear_2550_14066)"/>
    <path d="M146.441 262.651C146.441 262.092 146.894 261.639 147.453 261.639H154.289C154.848 261.639 155.301 262.092 155.301 262.651V269.487C155.301 270.046 154.848 270.499 154.289 270.499H147.453C146.894 270.499 146.441 270.046 146.441 269.487V262.651Z" fill="url(#paint64_linear_2550_14066)"/>
    <path d="M147.453 295.819C146.894 295.819 146.441 296.272 146.441 296.831V303.667C146.441 304.226 146.894 304.679 147.453 304.679H154.289C154.848 304.679 155.301 304.226 155.301 303.667V296.831C155.301 296.272 154.848 295.819 154.289 295.819H147.453Z" fill="url(#paint65_linear_2550_14066)"/>
    <path d="M146.441 331.011C146.441 330.453 146.894 329.999 147.453 329.999H154.289C154.848 329.999 155.301 330.453 155.301 331.011V337.847C155.301 338.406 154.848 338.859 154.289 338.859H147.453C146.894 338.859 146.441 338.406 146.441 337.847V331.011Z" fill="url(#paint66_linear_2550_14066)"/>
    <path d="M147.453 364.18C146.894 364.18 146.441 364.633 146.441 365.192V372.028C146.441 372.587 146.894 373.04 147.453 373.04H154.289C154.848 373.04 155.301 372.587 155.301 372.028V365.192C155.301 364.633 154.848 364.18 154.289 364.18H147.453Z" fill="url(#paint67_linear_2550_14066)"/>
    <path d="M181.881 262.651C181.881 262.092 182.334 261.639 182.893 261.639H189.729C190.288 261.639 190.741 262.092 190.741 262.651V269.487C190.741 270.046 190.288 270.499 189.729 270.499H182.893C182.334 270.499 181.881 270.046 181.881 269.487V262.651Z" fill="url(#paint68_linear_2550_14066)"/>
    <path d="M182.893 295.819C182.334 295.819 181.881 296.272 181.881 296.831V303.667C181.881 304.226 182.334 304.679 182.893 304.679H189.729C190.288 304.679 190.741 304.226 190.741 303.667V296.831C190.741 296.272 190.288 295.819 189.729 295.819H182.893Z" fill="url(#paint69_linear_2550_14066)"/>
    <path d="M181.881 331.011C181.881 330.453 182.334 329.999 182.893 329.999H189.729C190.288 329.999 190.741 330.453 190.741 331.011V337.847C190.741 338.406 190.288 338.859 189.729 338.859H182.893C182.334 338.859 181.881 338.406 181.881 337.847V331.011Z" fill="url(#paint70_linear_2550_14066)"/>
    <path d="M182.893 364.18C182.334 364.18 181.881 364.633 181.881 365.192V372.028C181.881 372.587 182.334 373.04 182.893 373.04H189.729C190.288 373.04 190.741 372.587 190.741 372.028V365.192C190.741 364.633 190.288 364.18 189.729 364.18H182.893Z" fill="url(#paint71_linear_2550_14066)"/>
    <path d="M217.319 262.651C217.319 262.092 217.772 261.639 218.331 261.639H225.167C225.726 261.639 226.179 262.092 226.179 262.651V269.487C226.179 270.046 225.726 270.499 225.167 270.499H218.331C217.772 270.499 217.319 270.046 217.319 269.487V262.651Z" fill="url(#paint72_linear_2550_14066)"/>
    <path d="M218.331 295.819C217.772 295.819 217.319 296.272 217.319 296.831V303.667C217.319 304.226 217.772 304.679 218.331 304.679H225.167C225.726 304.679 226.179 304.226 226.179 303.667V296.831C226.179 296.272 225.726 295.819 225.167 295.819H218.331Z" fill="url(#paint73_linear_2550_14066)"/>
    <path d="M217.319 331.011C217.319 330.453 217.772 329.999 218.331 329.999H225.167C225.726 329.999 226.179 330.453 226.179 331.011V337.847C226.179 338.406 225.726 338.859 225.167 338.859H218.331C217.772 338.859 217.319 338.406 217.319 337.847V331.011Z" fill="url(#paint74_linear_2550_14066)"/>
    <path d="M218.331 364.18C217.772 364.18 217.319 364.633 217.319 365.192V372.028C217.319 372.587 217.772 373.04 218.331 373.04H225.167C225.726 373.04 226.179 372.587 226.179 372.028V365.192C226.179 364.633 225.726 364.18 225.167 364.18H218.331Z" fill="url(#paint75_linear_2550_14066)"/>
    <path d="M252.759 262.651C252.759 262.092 253.212 261.639 253.771 261.639H260.607C261.166 261.639 261.619 262.092 261.619 262.651V269.487C261.619 270.046 261.166 270.499 260.607 270.499H253.771C253.212 270.499 252.759 270.046 252.759 269.487V262.651Z" fill="url(#paint76_linear_2550_14066)"/>
    <path d="M253.771 295.819C253.212 295.819 252.759 296.272 252.759 296.831V303.667C252.759 304.226 253.212 304.679 253.771 304.679H260.607C261.166 304.679 261.619 304.226 261.619 303.667V296.831C261.619 296.272 261.166 295.819 260.607 295.819H253.771Z" fill="url(#paint77_linear_2550_14066)"/>
    <path d="M252.759 331.011C252.759 330.453 253.212 329.999 253.771 329.999H260.607C261.166 329.999 261.619 330.453 261.619 331.011V337.847C261.619 338.406 261.166 338.859 260.607 338.859H253.771C253.212 338.859 252.759 338.406 252.759 337.847V331.011Z" fill="url(#paint78_linear_2550_14066)"/>
    <path d="M253.771 364.18C253.212 364.18 252.759 364.633 252.759 365.192V372.028C252.759 372.587 253.212 373.04 253.771 373.04H260.607C261.166 373.04 261.619 372.587 261.619 372.028V365.192C261.619 364.633 261.166 364.18 260.607 364.18H253.771Z" fill="url(#paint79_linear_2550_14066)"/>
    <path d="M288.199 262.651C288.199 262.092 288.652 261.639 289.211 261.639H296.047C296.606 261.639 297.059 262.092 297.059 262.651V269.487C297.059 270.046 296.606 270.499 296.047 270.499H289.211C288.652 270.499 288.199 270.046 288.199 269.487V262.651Z" fill="url(#paint80_linear_2550_14066)"/>
    <path d="M289.211 295.819C288.652 295.819 288.199 296.272 288.199 296.831V303.667C288.199 304.226 288.652 304.679 289.211 304.679H296.047C296.606 304.679 297.059 304.226 297.059 303.667V296.831C297.059 296.272 296.606 295.819 296.047 295.819H289.211Z" fill="url(#paint81_linear_2550_14066)"/>
    <path d="M288.199 331.011C288.199 330.453 288.652 329.999 289.211 329.999H296.047C296.606 329.999 297.059 330.453 297.059 331.011V337.847C297.059 338.406 296.606 338.859 296.047 338.859H289.211C288.652 338.859 288.199 338.406 288.199 337.847V331.011Z" fill="url(#paint82_linear_2550_14066)"/>
    <path d="M289.211 364.18C288.652 364.18 288.199 364.633 288.199 365.192V372.028C288.199 372.587 288.652 373.04 289.211 373.04H296.047C296.606 373.04 297.059 372.587 297.059 372.028V365.192C297.059 364.633 296.606 364.18 296.047 364.18H289.211Z" fill="url(#paint83_linear_2550_14066)"/>
    <path d="M323.639 262.651C323.639 262.092 324.092 261.639 324.651 261.639H331.487C332.046 261.639 332.499 262.092 332.499 262.651V269.487C332.499 270.046 332.046 270.499 331.487 270.499H324.651C324.092 270.499 323.639 270.046 323.639 269.487V262.651Z" fill="url(#paint84_linear_2550_14066)"/>
    <path d="M324.651 295.819C324.092 295.819 323.639 296.272 323.639 296.831V303.667C323.639 304.226 324.092 304.679 324.651 304.679H331.487C332.046 304.679 332.499 304.226 332.499 303.667V296.831C332.499 296.272 332.046 295.819 331.487 295.819H324.651Z" fill="url(#paint85_linear_2550_14066)"/>
    <path d="M323.639 331.011C323.639 330.453 324.092 329.999 324.651 329.999H331.487C332.046 329.999 332.499 330.453 332.499 331.011V337.847C332.499 338.406 332.046 338.859 331.487 338.859H324.651C324.092 338.859 323.639 338.406 323.639 337.847V331.011Z" fill="url(#paint86_linear_2550_14066)"/>
    <path d="M324.651 364.18C324.092 364.18 323.639 364.633 323.639 365.192V372.028C323.639 372.587 324.092 373.04 324.651 373.04H331.487C332.046 373.04 332.499 372.587 332.499 372.028V365.192C332.499 364.633 332.046 364.18 331.487 364.18H324.651Z" fill="url(#paint87_linear_2550_14066)"/>
    <path d="M359.08 262.651C359.08 262.092 359.533 261.639 360.092 261.639H366.928C367.487 261.639 367.94 262.092 367.94 262.651V269.487C367.94 270.046 367.487 270.499 366.928 270.499H360.092C359.533 270.499 359.08 270.046 359.08 269.487V262.651Z" fill="url(#paint88_linear_2550_14066)"/>
    <path d="M360.092 295.819C359.533 295.819 359.08 296.272 359.08 296.831V303.667C359.08 304.226 359.533 304.679 360.092 304.679H366.928C367.487 304.679 367.94 304.226 367.94 303.667V296.831C367.94 296.272 367.487 295.819 366.928 295.819H360.092Z" fill="url(#paint89_linear_2550_14066)"/>
    <path d="M359.08 331.011C359.08 330.453 359.533 329.999 360.092 329.999H366.928C367.487 329.999 367.94 330.453 367.94 331.011V337.847C367.94 338.406 367.487 338.859 366.928 338.859H360.092C359.533 338.859 359.08 338.406 359.08 337.847V331.011Z" fill="url(#paint90_linear_2550_14066)"/>
    <path d="M360.092 364.18C359.533 364.18 359.08 364.633 359.08 365.192V372.028C359.08 372.587 359.533 373.04 360.092 373.04H366.928C367.487 373.04 367.94 372.587 367.94 372.028V365.192C367.94 364.633 367.487 364.18 366.928 364.18H360.092Z" fill="url(#paint91_linear_2550_14066)"/>
    <path d="M394.517 262.651C394.517 262.092 394.97 261.639 395.529 261.639H402.365C402.924 261.639 403.377 262.092 403.377 262.651V269.487C403.377 270.046 402.924 270.499 402.365 270.499H395.529C394.97 270.499 394.517 270.046 394.517 269.487V262.651Z" fill="url(#paint92_linear_2550_14066)"/>
    <path d="M395.529 295.819C394.97 295.819 394.517 296.272 394.517 296.831V303.667C394.517 304.226 394.97 304.679 395.529 304.679H402.365C402.924 304.679 403.377 304.226 403.377 303.667V296.831C403.377 296.272 402.924 295.819 402.365 295.819H395.529Z" fill="url(#paint93_linear_2550_14066)"/>
    <path d="M394.517 331.011C394.517 330.453 394.97 329.999 395.529 329.999H402.365C402.924 329.999 403.377 330.453 403.377 331.011V337.847C403.377 338.406 402.924 338.859 402.365 338.859H395.529C394.97 338.859 394.517 338.406 394.517 337.847V331.011Z" fill="url(#paint94_linear_2550_14066)"/>
    <path d="M395.529 364.18C394.97 364.18 394.517 364.633 394.517 365.192V372.028C394.517 372.587 394.97 373.04 395.529 373.04H402.365C402.924 373.04 403.377 372.587 403.377 372.028V365.192C403.377 364.633 402.924 364.18 402.365 364.18H395.529Z" fill="url(#paint95_linear_2550_14066)"/>
    <path d="M429.958 262.651C429.958 262.092 430.411 261.639 430.97 261.639H437.806C438.365 261.639 438.818 262.092 438.818 262.651V269.487C438.818 270.046 438.365 270.499 437.806 270.499H430.97C430.411 270.499 429.958 270.046 429.958 269.487V262.651Z" fill="url(#paint96_linear_2550_14066)"/>
    <path d="M430.97 295.819C430.411 295.819 429.958 296.272 429.958 296.831V303.667C429.958 304.226 430.411 304.679 430.97 304.679H437.806C438.365 304.679 438.818 304.226 438.818 303.667V296.831C438.818 296.272 438.365 295.819 437.806 295.819H430.97Z" fill="url(#paint97_linear_2550_14066)"/>
    <path d="M429.958 331.011C429.958 330.453 430.411 329.999 430.97 329.999H437.806C438.365 329.999 438.818 330.453 438.818 331.011V337.847C438.818 338.406 438.365 338.859 437.806 338.859H430.97C430.411 338.859 429.958 338.406 429.958 337.847V331.011Z" fill="url(#paint98_linear_2550_14066)"/>
    <path d="M430.97 364.18C430.411 364.18 429.958 364.633 429.958 365.192V372.028C429.958 372.587 430.411 373.04 430.97 373.04H437.806C438.365 373.04 438.818 372.587 438.818 372.028V365.192C438.818 364.633 438.365 364.18 437.806 364.18H430.97Z" fill="url(#paint99_linear_2550_14066)"/>
    <ellipse cx="284.5" cy="205" rx="64.5" ry="65" fill="#2C0059"/>
    <path d="M282.067 196.55C283.41 195.208 285.587 195.208 286.929 196.55L292.448 202.069C293.791 203.412 293.791 205.589 292.448 206.931L286.929 212.45C285.587 213.793 283.41 213.793 282.067 212.45L276.548 206.931C275.206 205.589 275.206 203.412 276.548 202.069L282.067 196.55Z" fill="#A950FF"/>
    <path d="M307.487 196.506C308.805 195.188 310.943 195.188 312.262 196.506L317.868 202.112C319.186 203.431 319.186 205.569 317.868 206.887L312.262 212.493C310.943 213.812 308.805 213.812 307.487 212.493L301.881 206.887C300.562 205.569 300.562 203.431 301.881 202.112L307.487 196.506Z" fill="#A950FF"/>
    <path d="M282.111 171.131C283.429 169.812 285.567 169.812 286.886 171.131L292.492 176.737C293.81 178.055 293.81 180.193 292.492 181.512L286.886 187.118C285.567 188.436 283.429 188.436 282.111 187.118L276.505 181.512C275.186 180.193 275.186 178.055 276.505 176.737L282.111 171.131Z" fill="#E9C1FF"/>
    <path d="M279.762 189.381C281.104 190.724 281.104 192.901 279.762 194.243L274.243 199.762C272.9 201.105 270.723 201.105 269.381 199.762L263.862 194.243C262.519 192.901 262.519 190.724 263.862 189.381L269.381 183.862C270.723 182.52 272.9 182.52 274.243 183.862L279.762 189.381Z" fill="#CD88FF"/>
    <path d="M267.117 202.112C268.435 203.431 268.435 205.569 267.117 206.887L261.511 212.493C260.192 213.812 258.054 213.812 256.736 212.493L251.13 206.887C249.811 205.569 249.811 203.431 251.13 202.112L256.736 196.506C258.054 195.188 260.192 195.188 261.511 196.506L267.117 202.112Z" fill="#A950FF"/>
    <path d="M305.137 189.381C306.479 190.724 306.479 192.901 305.137 194.243L299.618 199.762C298.275 201.105 296.098 201.105 294.756 199.762L289.237 194.243C287.894 192.901 287.894 190.724 289.237 189.381L294.756 183.862C296.098 182.52 298.275 182.52 299.618 183.862L305.137 189.381Z" fill="#CD88FF"/>
    <path d="M289.93 225.627C292.929 228.627 292.929 233.49 289.93 236.49C286.93 239.489 282.067 239.489 279.068 236.49C276.068 233.49 276.068 228.627 279.068 225.627C282.067 222.628 286.93 222.628 289.93 225.627Z" fill="#F62E76"/>
    <path d="M434 204L420.654 196.295V211.705L434 204ZM361 205.335H363.281V202.665H361V205.335ZM367.844 205.335H372.406V202.665H367.844V205.335ZM376.969 205.335H381.531V202.665H376.969V205.335ZM386.094 205.335H390.656V202.665H386.094V205.335ZM395.219 205.335H399.781V202.665H395.219V205.335ZM404.344 205.335H408.906V202.665H404.344V205.335ZM413.469 205.335H418.031V202.665H413.469V205.335ZM422.594 205.335H427.156V202.665H422.594V205.335Z" fill="#8200FF"/>
    <path d="M208 204L194.654 196.295V211.705L208 204ZM141 205.335H143.094V202.665H141V205.335ZM147.281 205.335H151.469V202.665H147.281V205.335ZM155.656 205.335H159.844V202.665H155.656V205.335ZM164.031 205.335H168.219V202.665H164.031V205.335ZM172.406 205.335H176.594V202.665H172.406V205.335ZM180.781 205.335H184.969V202.665H180.781V205.335ZM189.156 205.335H193.344V202.665H189.156V205.335ZM197.531 205.335H201.719V202.665H197.531V205.335Z" fill="#856CF3"/>
    <circle cx="484.5" cy="204.5" r="42.5" fill="#B6CCF7"/>
    <path d="M486.5 189C478.493 189 472 191.963 472 195.622H475.238C475.689 194.645 479.588 192.311 486.5 192.311C493.412 192.311 497.311 194.645 497.762 195.622C497.391 196.416 494.749 198.105 490.061 198.718C491.349 199.496 492.429 200.423 493.202 201.482C494.233 201.234 495.2 200.936 496.07 200.588C496.698 200.34 497.261 200.075 497.778 199.777V205.555C497.552 206.051 496.457 206.879 494.556 207.574V211.052C495.087 210.885 495.587 210.721 496.07 210.523C496.698 210.274 497.261 210.009 497.778 209.711V215.487C497.552 215.984 496.457 216.812 494.556 217.507V221C498.438 219.808 501 217.788 501 215.487V195.622C501 191.963 494.507 189 486.5 189Z" fill="black"/>
    <path d="M496.5 179C488.493 179 482 181.963 482 185.622H485.238C485.689 184.645 489.588 182.311 496.5 182.311C503.412 182.311 507.311 184.645 507.762 185.622C507.391 186.416 504.749 188.105 500.061 188.718C501.349 189.496 502.429 190.423 503.202 191.482C504.233 191.234 505.2 190.936 506.07 190.588C506.698 190.34 507.262 190.075 507.778 189.777V195.555C507.552 196.051 506.457 196.879 504.556 197.574V201.051C505.087 200.885 505.587 200.72 506.07 200.521C506.698 200.273 507.261 200.008 507.778 199.71V205.487C507.552 205.984 506.457 206.812 504.556 207.507V211C508.438 209.808 511 207.788 511 205.487V185.622C511 181.963 504.507 179 496.5 179Z" fill="black"/>
    <path d="M476.5 199C468.493 199 462 201.953 462 205.6V225.4C462 229.046 468.493 232 476.5 232C484.507 232 491 229.046 491 225.4V205.6C491 201.953 484.507 199 476.5 199ZM476.5 202.3C483.412 202.3 487.311 204.626 487.762 205.6C487.311 206.573 483.412 208.9 476.5 208.9C469.588 208.9 465.689 206.573 465.238 205.6C465.689 204.626 469.588 202.3 476.5 202.3ZM487.778 225.4C487.327 226.373 483.412 228.7 476.5 228.7C469.588 228.7 465.673 226.373 465.222 225.4V219.642C465.738 219.939 466.302 220.202 466.93 220.45C469.476 221.473 472.843 222.1 476.5 222.1C480.157 222.1 483.524 221.473 486.07 220.45C486.698 220.202 487.262 219.939 487.778 219.642V225.4ZM487.778 215.5C487.327 216.473 483.412 218.8 476.5 218.8C469.588 218.8 465.673 216.473 465.222 215.5V209.742C465.738 210.039 466.302 210.302 466.93 210.55C469.476 211.573 472.843 212.2 476.5 212.2C480.157 212.2 483.524 211.573 486.07 210.55C486.698 210.302 487.262 210.039 487.778 209.742V215.5Z" fill="black"/>
    <circle cx="84.5" cy="204.5" r="42.5" fill="white"/>
    <path d="M84.5 189C76.4928 189 70 191.871 70 195.415H73.2383C73.6894 194.469 77.5883 192.207 84.5 192.207C91.4117 192.207 95.3106 194.469 95.7617 195.415C95.3911 196.185 92.7489 197.82 88.0606 198.414C89.3494 199.168 90.4289 200.066 91.2022 201.092C92.2333 200.852 93.2 200.563 94.07 200.226C94.6983 199.986 95.2606 199.729 95.7778 199.44V205.037C95.5522 205.518 94.4567 206.32 92.5556 206.994V210.363C93.0872 210.201 93.5867 210.042 94.07 209.85C94.6983 209.609 95.2606 209.353 95.7778 209.064V214.66C95.5522 215.141 94.4567 215.943 92.5556 216.616V220C96.4383 218.845 99 216.889 99 214.66V195.415C99 191.871 92.5072 189 84.5 189Z" fill="black"/>
    <path d="M94.5 179C86.4928 179 80 181.871 80 185.415H83.2383C83.6894 184.469 87.5883 182.207 94.5 182.207C101.412 182.207 105.311 184.469 105.762 185.415C105.391 186.185 102.749 187.82 98.0606 188.414C99.3494 189.168 100.429 190.066 101.202 191.092C102.233 190.852 103.2 190.563 104.07 190.226C104.698 189.986 105.262 189.729 105.778 189.44V195.037C105.552 195.518 104.457 196.32 102.556 196.994V200.362C103.087 200.201 103.587 200.041 104.07 199.848C104.698 199.608 105.261 199.351 105.778 199.063V204.66C105.552 205.141 104.457 205.943 102.556 206.616V210C106.438 208.845 109 206.889 109 204.66V185.415C109 181.871 102.507 179 94.5 179Z" fill="black"/>
    <path d="M75.5 198C67.4928 198 61 200.954 61 204.6V224.4C61 228.047 67.4928 231 75.5 231C83.5072 231 90 228.047 90 224.4V204.6C90 200.954 83.5072 198 75.5 198ZM75.5 201.3C82.4117 201.3 86.3106 203.627 86.7617 204.6C86.3106 205.574 82.4117 207.9 75.5 207.9C68.5883 207.9 64.6894 205.574 64.2383 204.6C64.6894 203.627 68.5883 201.3 75.5 201.3ZM86.7778 224.4C86.3267 225.374 82.4117 227.7 75.5 227.7C68.5883 227.7 64.6733 225.374 64.2222 224.4V218.642C64.7378 218.939 65.3017 219.203 65.93 219.45C68.4756 220.473 71.8428 221.1 75.5 221.1C79.1572 221.1 82.5244 220.473 85.07 219.45C85.6983 219.203 86.2622 218.939 86.7778 218.642V224.4ZM86.7778 214.5C86.3267 215.474 82.4117 217.8 75.5 217.8C68.5883 217.8 64.6733 215.474 64.2222 214.5V208.742C64.7378 209.039 65.3017 209.302 65.93 209.55C68.4756 210.573 71.8428 211.2 75.5 211.2C79.1572 211.2 82.5244 210.573 85.07 209.55C85.6983 209.302 86.2622 209.039 86.7778 208.742V214.5Z" fill="black"/>
    <path d="M322.667 223V242H350.433C337.266 264.705 312.648 280 284.501 280C249.006 280 219.14 255.68 210.648 223H190.992C199.866 266.32 238.319 299 284.501 299C315.702 299 343.468 283.99 360.834 260.905V280H379.917V223H322.667Z" fill="#B6CCF7"/>
    <path d="M246.334 185V166H218.568C231.735 143.295 256.353 128 284.501 128C319.996 128 349.861 152.32 358.353 185H378.009C369.135 141.68 330.682 109 284.501 109C253.299 109 225.533 124.01 208.167 147.095V128H189.084V185H246.334Z" fill="white"/>
    <g clip-path="url(#clip0_2550_14066)">
        <path d="M286.564 311.03C287.221 310.967 287.873 310.856 288.515 310.694L297.45 302.172C297.623 301.557 297.744 300.932 297.813 300.302L286.564 311.03Z" fill="#FE9801"/>
        <path d="M283.447 310.956C283.933 311.025 284.422 311.068 284.912 311.083L297.88 298.715C297.868 298.244 297.827 297.775 297.758 297.308L283.447 310.956Z" fill="#FE9801"/>
        <path d="M280.91 310.326C281.309 310.469 281.713 310.592 282.122 310.695L297.494 296.034C297.39 295.641 297.264 295.252 297.118 294.868L280.91 310.326Z" fill="#FE9801"/>
        <path d="M278.768 309.323C279.104 309.52 279.447 309.701 279.797 309.866L296.648 293.794C296.48 293.457 296.294 293.126 296.091 292.802L278.768 309.323Z" fill="#FE9801"/>
        <path d="M276.939 308.017C277.223 308.261 277.516 308.491 277.816 308.706L295.452 291.886C295.23 291.596 294.993 291.314 294.741 291.04L276.939 308.017Z" fill="#FE9801"/>
        <path d="M275.4 306.437C275.63 306.719 275.875 306.994 276.134 307.261L293.959 290.262C293.683 290.011 293.398 289.774 293.106 289.551L275.4 306.437Z" fill="#FE9801"/>
        <path d="M274.158 304.576C274.336 304.905 274.53 305.228 274.742 305.543L292.182 288.911C291.855 288.706 291.52 288.517 291.178 288.344L274.158 304.576Z" fill="#FE9801"/>
        <path d="M273.25 302.394C273.366 302.777 273.502 303.156 273.658 303.529L290.092 287.856C289.704 287.703 289.311 287.57 288.912 287.457L273.25 302.394Z" fill="#FE9801"/>
        <path d="M272.777 299.796C272.808 300.252 272.865 300.706 272.949 301.157L287.626 287.159C287.158 287.075 286.685 287.017 286.211 286.985L272.777 299.796Z" fill="#FE9801"/>
        <path d="M273.025 296.512C272.897 297.094 272.813 297.683 272.775 298.274L284.625 286.973C284.009 287.006 283.395 287.081 282.789 287.2L273.025 296.512Z" fill="#FE9801"/>
        <path d="M280.474 287.884C279.017 288.467 277.651 289.326 276.462 290.46C275.273 291.594 274.37 292.9 273.752 294.295L280.474 287.884Z" fill="#FE9801"/>
        <path d="M296.423 304.676L291.129 309.725C292.223 309.177 293.251 308.463 294.173 307.584C295.094 306.705 295.844 305.723 296.423 304.676Z" fill="#FE9801"/>
    </g>
    <g clip-path="url(#clip1_2550_14066)">
        <path d="M237.822 267.99C238.479 267.927 239.131 267.816 239.773 267.654L248.708 259.132C248.881 258.517 249.001 257.892 249.071 257.262L237.822 267.99Z" fill="#01D0FE"/>
        <path d="M234.705 267.915C235.191 267.985 235.68 268.028 236.169 268.043L249.138 255.675C249.126 255.204 249.085 254.734 249.016 254.268L234.705 267.915Z" fill="#01D0FE"/>
        <path d="M232.168 267.286C232.566 267.429 232.971 267.552 233.379 267.654L248.752 252.994C248.647 252.601 248.522 252.212 248.376 251.828L232.168 267.286Z" fill="#01D0FE"/>
        <path d="M230.025 266.283C230.361 266.48 230.705 266.661 231.055 266.825L247.906 250.754C247.737 250.417 247.552 250.086 247.348 249.762L230.025 266.283Z" fill="#01D0FE"/>
        <path d="M228.197 264.977C228.481 265.221 228.773 265.45 229.073 265.665L246.71 248.845C246.488 248.556 246.251 248.273 245.999 247.999L228.197 264.977Z" fill="#01D0FE"/>
        <path d="M226.658 263.397C226.888 263.679 227.132 263.954 227.392 264.221L245.216 247.222C244.941 246.97 244.656 246.734 244.363 246.511L226.658 263.397Z" fill="#01D0FE"/>
        <path d="M225.416 261.536C225.594 261.865 225.788 262.187 226 262.503L243.44 245.87C243.112 245.665 242.778 245.476 242.436 245.303L225.416 261.536Z" fill="#01D0FE"/>
        <path d="M224.508 259.354C224.624 259.737 224.759 260.116 224.915 260.489L241.349 244.816C240.962 244.663 240.569 244.53 240.17 244.417L224.508 259.354Z" fill="#01D0FE"/>
        <path d="M224.035 256.756C224.066 257.212 224.123 257.666 224.207 258.117L238.884 244.119C238.415 244.035 237.943 243.977 237.468 243.945L224.035 256.756Z" fill="#01D0FE"/>
        <path d="M224.283 253.472C224.154 254.054 224.071 254.643 224.033 255.234L235.883 243.933C235.267 243.965 234.653 244.041 234.047 244.16L224.283 253.472Z" fill="#01D0FE"/>
        <path d="M231.731 244.844C230.275 245.427 228.909 246.286 227.72 247.42C226.531 248.554 225.628 249.86 225.01 251.254L231.731 244.844Z" fill="#01D0FE"/>
        <path d="M247.681 261.636L242.387 266.685C243.481 266.137 244.509 265.423 245.43 264.544C246.352 263.665 247.102 262.683 247.681 261.636Z" fill="#01D0FE"/>
    </g>
    <g clip-path="url(#clip2_2550_14066)">
        <path d="M368.328 171.02C368.985 170.958 369.637 170.846 370.278 170.685L379.214 162.163C379.386 161.548 379.507 160.922 379.577 160.293L368.328 171.02Z" fill="#4301FE"/>
        <path d="M365.211 170.946C365.696 171.016 366.186 171.058 366.675 171.073L379.644 158.705C379.632 158.235 379.591 157.765 379.521 157.298L365.211 170.946Z" fill="#4301FE"/>
        <path d="M362.674 170.316C363.072 170.459 363.476 170.582 363.885 170.685L379.258 156.025C379.153 155.632 379.028 155.242 378.882 154.859L362.674 170.316Z" fill="#4301FE"/>
        <path d="M360.531 169.314C360.867 169.511 361.211 169.692 361.56 169.856L378.412 153.785C378.243 153.448 378.057 153.117 377.854 152.793L360.531 169.314Z" fill="#4301FE"/>
        <path d="M358.703 168.008C358.987 168.252 359.279 168.481 359.579 168.696L377.216 151.876C376.994 151.586 376.757 151.304 376.505 151.03L358.703 168.008Z" fill="#4301FE"/>
        <path d="M357.164 166.427C357.394 166.71 357.638 166.985 357.898 167.251L375.722 150.252C375.447 150.001 375.162 149.764 374.869 149.542L357.164 166.427Z" fill="#4301FE"/>
        <path d="M355.922 164.566C356.1 164.895 356.294 165.218 356.506 165.534L373.946 148.901C373.618 148.696 373.283 148.507 372.942 148.334L355.922 164.566Z" fill="#4301FE"/>
        <path d="M355.014 162.384C355.129 162.768 355.265 163.147 355.421 163.519L371.855 147.846C371.468 147.694 371.074 147.561 370.676 147.447L355.014 162.384Z" fill="#4301FE"/>
        <path d="M354.541 159.787C354.571 160.242 354.629 160.697 354.712 161.147L369.39 147.15C368.921 147.066 368.449 147.008 367.974 146.976L354.541 159.787Z" fill="#4301FE"/>
        <path d="M354.788 156.503C354.66 157.084 354.577 157.673 354.539 158.265L366.389 146.964C365.773 146.996 365.159 147.072 364.552 147.191L354.788 156.503Z" fill="#4301FE"/>
        <path d="M362.237 147.875C360.781 148.458 359.415 149.317 358.226 150.451C357.037 151.585 356.133 152.89 355.516 154.285L362.237 147.875Z" fill="#4301FE"/>
        <path d="M378.186 164.667L372.893 169.715C373.987 169.167 375.015 168.453 375.936 167.575C376.858 166.696 377.608 165.714 378.186 164.667Z" fill="#4301FE"/>
    </g>
    <g clip-path="url(#clip3_2550_14066)">
        <path d="M257.246 128.215C257.903 128.153 258.555 128.041 259.196 127.879L268.132 119.357C268.304 118.743 268.425 118.117 268.495 117.487L257.246 128.215Z" fill="#EE81DE"/>
        <path d="M254.129 128.141C254.614 128.211 255.104 128.253 255.593 128.268L268.562 115.9C268.549 115.43 268.509 114.96 268.439 114.493L254.129 128.141Z" fill="#EE81DE"/>
        <path d="M251.592 127.511C251.99 127.654 252.394 127.777 252.803 127.88L268.175 113.219C268.071 112.826 267.946 112.437 267.8 112.053L251.592 127.511Z" fill="#EE81DE"/>
        <path d="M249.449 126.508C249.785 126.706 250.129 126.886 250.478 127.051L267.33 110.98C267.161 110.642 266.975 110.311 266.772 109.988L249.449 126.508Z" fill="#EE81DE"/>
        <path d="M247.621 125.202C247.905 125.446 248.197 125.676 248.497 125.891L266.134 109.071C265.912 108.781 265.675 108.499 265.423 108.225L247.621 125.202Z" fill="#EE81DE"/>
        <path d="M246.082 123.622C246.312 123.904 246.556 124.179 246.816 124.446L264.64 107.447C264.365 107.196 264.08 106.959 263.787 106.736L246.082 123.622Z" fill="#EE81DE"/>
        <path d="M244.84 121.761C245.018 122.09 245.212 122.413 245.424 122.728L262.863 106.096C262.536 105.891 262.201 105.702 261.86 105.529L244.84 121.761Z" fill="#EE81DE"/>
        <path d="M243.932 119.579C244.047 119.962 244.183 120.341 244.339 120.714L260.773 105.041C260.386 104.888 259.992 104.755 259.594 104.642L243.932 119.579Z" fill="#EE81DE"/>
        <path d="M243.459 116.981C243.489 117.437 243.547 117.891 243.63 118.342L258.308 104.344C257.839 104.26 257.367 104.203 256.892 104.17L243.459 116.981Z" fill="#EE81DE"/>
        <path d="M243.706 113.698C243.578 114.279 243.495 114.868 243.457 115.459L255.307 104.158C254.691 104.191 254.077 104.267 253.47 104.385L243.706 113.698Z" fill="#EE81DE"/>
        <path d="M251.155 105.069C249.699 105.653 248.333 106.511 247.144 107.645C245.955 108.779 245.051 110.085 244.434 111.48L251.155 105.069Z" fill="#EE81DE"/>
        <path d="M267.104 121.861L261.811 126.91C262.905 126.362 263.933 125.648 264.854 124.769C265.776 123.89 266.526 122.908 267.104 121.861Z" fill="#EE81DE"/>
    </g>
    <g clip-path="url(#clip4_2550_14066)">
        <path d="M366.824 248.089C367.481 248.026 368.133 247.914 368.775 247.753L377.71 239.231C377.882 238.616 378.003 237.99 378.073 237.361L366.824 248.089Z" fill="#EE81DE"/>
        <path d="M363.707 248.014C364.193 248.084 364.682 248.126 365.171 248.142L378.14 235.773C378.128 235.303 378.087 234.833 378.017 234.366L363.707 248.014Z" fill="#EE81DE"/>
        <path d="M361.17 247.385C361.568 247.528 361.973 247.65 362.381 247.753L377.754 233.093C377.649 232.7 377.524 232.31 377.378 231.927L361.17 247.385Z" fill="#EE81DE"/>
        <path d="M359.027 246.382C359.363 246.579 359.707 246.76 360.057 246.924L376.908 230.853C376.739 230.516 376.554 230.185 376.35 229.861L359.027 246.382Z" fill="#EE81DE"/>
        <path d="M357.199 245.076C357.483 245.32 357.775 245.549 358.075 245.764L375.712 228.944C375.49 228.655 375.253 228.372 375.001 228.098L357.199 245.076Z" fill="#EE81DE"/>
        <path d="M355.66 243.495C355.89 243.778 356.134 244.053 356.394 244.319L374.218 227.32C373.943 227.069 373.658 226.832 373.365 226.61L355.66 243.495Z" fill="#EE81DE"/>
        <path d="M354.418 241.634C354.596 241.963 354.79 242.286 355.002 242.602L372.442 225.969C372.114 225.764 371.779 225.575 371.438 225.402L354.418 241.634Z" fill="#EE81DE"/>
        <path d="M353.51 239.452C353.626 239.836 353.761 240.215 353.917 240.587L370.351 224.914C369.964 224.762 369.571 224.629 369.172 224.515L353.51 239.452Z" fill="#EE81DE"/>
        <path d="M353.037 236.855C353.068 237.311 353.125 237.765 353.208 238.216L367.886 224.218C367.417 224.134 366.945 224.076 366.47 224.044L353.037 236.855Z" fill="#EE81DE"/>
        <path d="M353.284 233.571C353.156 234.153 353.073 234.741 353.035 235.333L364.885 224.032C364.269 224.064 363.655 224.14 363.048 224.259L353.284 233.571Z" fill="#EE81DE"/>
        <path d="M360.733 224.943C359.277 225.526 357.911 226.385 356.722 227.519C355.533 228.653 354.629 229.958 354.012 231.353L360.733 224.943Z" fill="#EE81DE"/>
        <path d="M376.683 241.735L371.389 246.783C372.483 246.235 373.511 245.522 374.432 244.643C375.354 243.764 376.104 242.782 376.683 241.735Z" fill="#EE81DE"/>
    </g>
    <defs>
        <linearGradient id="paint0_linear_2550_14066" x1="274.909" y1="49" x2="274.909" y2="373.04" gradientUnits="userSpaceOnUse">
            <stop stop-color="#B2F5F5"/>
            <stop offset="1" stop-color="#B2F5F5"/>
        </linearGradient>
        <linearGradient id="paint1_linear_2550_14066" x1="274.909" y1="49" x2="274.909" y2="373.04" gradientUnits="userSpaceOnUse">
            <stop stop-color="#B2F5F5"/>
            <stop offset="1" stop-color="#B2F5F5"/>
        </linearGradient>
        <linearGradient id="paint2_linear_2550_14066" x1="274.909" y1="49" x2="274.909" y2="373.04" gradientUnits="userSpaceOnUse">
            <stop stop-color="#B2F5F5"/>
            <stop offset="1" stop-color="#B2F5F5"/>
        </linearGradient>
        <linearGradient id="paint3_linear_2550_14066" x1="274.909" y1="49" x2="274.909" y2="373.04" gradientUnits="userSpaceOnUse">
            <stop stop-color="#B2F5F5"/>
            <stop offset="1" stop-color="#B2F5F5"/>
        </linearGradient>
        <linearGradient id="paint4_linear_2550_14066" x1="274.909" y1="49" x2="274.909" y2="373.04" gradientUnits="userSpaceOnUse">
            <stop stop-color="#B2F5F5"/>
            <stop offset="1" stop-color="#B2F5F5"/>
        </linearGradient>
        <linearGradient id="paint5_linear_2550_14066" x1="274.909" y1="49" x2="274.909" y2="373.04" gradientUnits="userSpaceOnUse">
            <stop stop-color="#B2F5F5"/>
            <stop offset="1" stop-color="#B2F5F5"/>
        </linearGradient>
        <linearGradient id="paint6_linear_2550_14066" x1="274.909" y1="49" x2="274.909" y2="373.04" gradientUnits="userSpaceOnUse">
            <stop stop-color="#B2F5F5"/>
            <stop offset="1" stop-color="#B2F5F5"/>
        </linearGradient>
        <linearGradient id="paint7_linear_2550_14066" x1="274.909" y1="49" x2="274.909" y2="373.04" gradientUnits="userSpaceOnUse">
            <stop stop-color="#B2F5F5"/>
            <stop offset="1" stop-color="#B2F5F5"/>
        </linearGradient>
        <linearGradient id="paint8_linear_2550_14066" x1="274.909" y1="49" x2="274.909" y2="373.04" gradientUnits="userSpaceOnUse">
            <stop stop-color="#B2F5F5"/>
            <stop offset="1" stop-color="#B2F5F5"/>
        </linearGradient>
        <linearGradient id="paint9_linear_2550_14066" x1="274.909" y1="49" x2="274.909" y2="373.04" gradientUnits="userSpaceOnUse">
            <stop stop-color="#B2F5F5"/>
            <stop offset="1" stop-color="#B2F5F5"/>
        </linearGradient>
        <linearGradient id="paint10_linear_2550_14066" x1="274.909" y1="49" x2="274.909" y2="373.04" gradientUnits="userSpaceOnUse">
            <stop stop-color="#B2F5F5"/>
            <stop offset="1" stop-color="#B2F5F5"/>
        </linearGradient>
        <linearGradient id="paint11_linear_2550_14066" x1="274.909" y1="49" x2="274.909" y2="373.04" gradientUnits="userSpaceOnUse">
            <stop stop-color="#B2F5F5"/>
            <stop offset="1" stop-color="#B2F5F5"/>
        </linearGradient>
        <linearGradient id="paint12_linear_2550_14066" x1="274.909" y1="49" x2="274.909" y2="373.04" gradientUnits="userSpaceOnUse">
            <stop stop-color="#B2F5F5"/>
            <stop offset="1" stop-color="#B2F5F5"/>
        </linearGradient>
        <linearGradient id="paint13_linear_2550_14066" x1="274.909" y1="49" x2="274.909" y2="373.04" gradientUnits="userSpaceOnUse">
            <stop stop-color="#B2F5F5"/>
            <stop offset="1" stop-color="#B2F5F5"/>
        </linearGradient>
        <linearGradient id="paint14_linear_2550_14066" x1="274.909" y1="49" x2="274.909" y2="373.04" gradientUnits="userSpaceOnUse">
            <stop stop-color="#B2F5F5"/>
            <stop offset="1" stop-color="#B2F5F5"/>
        </linearGradient>
        <linearGradient id="paint15_linear_2550_14066" x1="274.909" y1="49" x2="274.909" y2="373.04" gradientUnits="userSpaceOnUse">
            <stop stop-color="#B2F5F5"/>
            <stop offset="1" stop-color="#B2F5F5"/>
        </linearGradient>
        <linearGradient id="paint16_linear_2550_14066" x1="274.909" y1="49" x2="274.909" y2="373.04" gradientUnits="userSpaceOnUse">
            <stop stop-color="#B2F5F5"/>
            <stop offset="1" stop-color="#B2F5F5"/>
        </linearGradient>
        <linearGradient id="paint17_linear_2550_14066" x1="274.909" y1="49" x2="274.909" y2="373.04" gradientUnits="userSpaceOnUse">
            <stop stop-color="#B2F5F5"/>
            <stop offset="1" stop-color="#B2F5F5"/>
        </linearGradient>
        <linearGradient id="paint18_linear_2550_14066" x1="274.909" y1="49" x2="274.909" y2="373.04" gradientUnits="userSpaceOnUse">
            <stop stop-color="#B2F5F5"/>
            <stop offset="1" stop-color="#B2F5F5"/>
        </linearGradient>
        <linearGradient id="paint19_linear_2550_14066" x1="274.909" y1="49" x2="274.909" y2="373.04" gradientUnits="userSpaceOnUse">
            <stop stop-color="#B2F5F5"/>
            <stop offset="1" stop-color="#B2F5F5"/>
        </linearGradient>
        <linearGradient id="paint20_linear_2550_14066" x1="274.909" y1="49" x2="274.909" y2="373.04" gradientUnits="userSpaceOnUse">
            <stop stop-color="#B2F5F5"/>
            <stop offset="1" stop-color="#B2F5F5"/>
        </linearGradient>
        <linearGradient id="paint21_linear_2550_14066" x1="274.909" y1="49" x2="274.909" y2="373.04" gradientUnits="userSpaceOnUse">
            <stop stop-color="#B2F5F5"/>
            <stop offset="1" stop-color="#B2F5F5"/>
        </linearGradient>
        <linearGradient id="paint22_linear_2550_14066" x1="274.909" y1="49" x2="274.909" y2="373.04" gradientUnits="userSpaceOnUse">
            <stop stop-color="#B2F5F5"/>
            <stop offset="1" stop-color="#B2F5F5"/>
        </linearGradient>
        <linearGradient id="paint23_linear_2550_14066" x1="274.909" y1="49" x2="274.909" y2="373.04" gradientUnits="userSpaceOnUse">
            <stop stop-color="#B2F5F5"/>
            <stop offset="1" stop-color="#B2F5F5"/>
        </linearGradient>
        <linearGradient id="paint24_linear_2550_14066" x1="274.909" y1="49" x2="274.909" y2="373.04" gradientUnits="userSpaceOnUse">
            <stop stop-color="#B2F5F5"/>
            <stop offset="1" stop-color="#B2F5F5"/>
        </linearGradient>
        <linearGradient id="paint25_linear_2550_14066" x1="274.909" y1="49" x2="274.909" y2="373.04" gradientUnits="userSpaceOnUse">
            <stop stop-color="#B2F5F5"/>
            <stop offset="1" stop-color="#B2F5F5"/>
        </linearGradient>
        <linearGradient id="paint26_linear_2550_14066" x1="274.909" y1="49" x2="274.909" y2="373.04" gradientUnits="userSpaceOnUse">
            <stop stop-color="#B2F5F5"/>
            <stop offset="1" stop-color="#B2F5F5"/>
        </linearGradient>
        <linearGradient id="paint27_linear_2550_14066" x1="274.909" y1="49" x2="274.909" y2="373.04" gradientUnits="userSpaceOnUse">
            <stop stop-color="#B2F5F5"/>
            <stop offset="1" stop-color="#B2F5F5"/>
        </linearGradient>
        <linearGradient id="paint28_linear_2550_14066" x1="274.909" y1="49" x2="274.909" y2="373.04" gradientUnits="userSpaceOnUse">
            <stop stop-color="#B2F5F5"/>
            <stop offset="1" stop-color="#B2F5F5"/>
        </linearGradient>
        <linearGradient id="paint29_linear_2550_14066" x1="274.909" y1="49" x2="274.909" y2="373.04" gradientUnits="userSpaceOnUse">
            <stop stop-color="#B2F5F5"/>
            <stop offset="1" stop-color="#B2F5F5"/>
        </linearGradient>
        <linearGradient id="paint30_linear_2550_14066" x1="274.909" y1="49" x2="274.909" y2="373.04" gradientUnits="userSpaceOnUse">
            <stop stop-color="#B2F5F5"/>
            <stop offset="1" stop-color="#B2F5F5"/>
        </linearGradient>
        <linearGradient id="paint31_linear_2550_14066" x1="274.909" y1="49" x2="274.909" y2="373.04" gradientUnits="userSpaceOnUse">
            <stop stop-color="#B2F5F5"/>
            <stop offset="1" stop-color="#B2F5F5"/>
        </linearGradient>
        <linearGradient id="paint32_linear_2550_14066" x1="274.909" y1="49" x2="274.909" y2="373.04" gradientUnits="userSpaceOnUse">
            <stop stop-color="#B2F5F5"/>
            <stop offset="1" stop-color="#B2F5F5"/>
        </linearGradient>
        <linearGradient id="paint33_linear_2550_14066" x1="274.909" y1="49" x2="274.909" y2="373.04" gradientUnits="userSpaceOnUse">
            <stop stop-color="#B2F5F5"/>
            <stop offset="1" stop-color="#B2F5F5"/>
        </linearGradient>
        <linearGradient id="paint34_linear_2550_14066" x1="274.909" y1="49" x2="274.909" y2="373.04" gradientUnits="userSpaceOnUse">
            <stop stop-color="#B2F5F5"/>
            <stop offset="1" stop-color="#B2F5F5"/>
        </linearGradient>
        <linearGradient id="paint35_linear_2550_14066" x1="274.909" y1="49" x2="274.909" y2="373.04" gradientUnits="userSpaceOnUse">
            <stop stop-color="#B2F5F5"/>
            <stop offset="1" stop-color="#B2F5F5"/>
        </linearGradient>
        <linearGradient id="paint36_linear_2550_14066" x1="274.909" y1="49" x2="274.909" y2="373.04" gradientUnits="userSpaceOnUse">
            <stop stop-color="#B2F5F5"/>
            <stop offset="1" stop-color="#B2F5F5"/>
        </linearGradient>
        <linearGradient id="paint37_linear_2550_14066" x1="274.909" y1="49" x2="274.909" y2="373.04" gradientUnits="userSpaceOnUse">
            <stop stop-color="#B2F5F5"/>
            <stop offset="1" stop-color="#B2F5F5"/>
        </linearGradient>
        <linearGradient id="paint38_linear_2550_14066" x1="274.909" y1="49" x2="274.909" y2="373.04" gradientUnits="userSpaceOnUse">
            <stop stop-color="#B2F5F5"/>
            <stop offset="1" stop-color="#B2F5F5"/>
        </linearGradient>
        <linearGradient id="paint39_linear_2550_14066" x1="274.909" y1="49" x2="274.909" y2="373.04" gradientUnits="userSpaceOnUse">
            <stop stop-color="#B2F5F5"/>
            <stop offset="1" stop-color="#B2F5F5"/>
        </linearGradient>
        <linearGradient id="paint40_linear_2550_14066" x1="274.909" y1="49" x2="274.909" y2="373.04" gradientUnits="userSpaceOnUse">
            <stop stop-color="#B2F5F5"/>
            <stop offset="1" stop-color="#B2F5F5"/>
        </linearGradient>
        <linearGradient id="paint41_linear_2550_14066" x1="274.909" y1="49" x2="274.909" y2="373.04" gradientUnits="userSpaceOnUse">
            <stop stop-color="#B2F5F5"/>
            <stop offset="1" stop-color="#B2F5F5"/>
        </linearGradient>
        <linearGradient id="paint42_linear_2550_14066" x1="274.909" y1="49" x2="274.909" y2="373.04" gradientUnits="userSpaceOnUse">
            <stop stop-color="#B2F5F5"/>
            <stop offset="1" stop-color="#B2F5F5"/>
        </linearGradient>
        <linearGradient id="paint43_linear_2550_14066" x1="274.909" y1="49" x2="274.909" y2="373.04" gradientUnits="userSpaceOnUse">
            <stop stop-color="#B2F5F5"/>
            <stop offset="1" stop-color="#B2F5F5"/>
        </linearGradient>
        <linearGradient id="paint44_linear_2550_14066" x1="274.909" y1="49" x2="274.909" y2="373.04" gradientUnits="userSpaceOnUse">
            <stop stop-color="#B2F5F5"/>
            <stop offset="1" stop-color="#B2F5F5"/>
        </linearGradient>
        <linearGradient id="paint45_linear_2550_14066" x1="274.909" y1="49" x2="274.909" y2="373.04" gradientUnits="userSpaceOnUse">
            <stop stop-color="#B2F5F5"/>
            <stop offset="1" stop-color="#B2F5F5"/>
        </linearGradient>
        <linearGradient id="paint46_linear_2550_14066" x1="274.909" y1="49" x2="274.909" y2="373.04" gradientUnits="userSpaceOnUse">
            <stop stop-color="#B2F5F5"/>
            <stop offset="1" stop-color="#B2F5F5"/>
        </linearGradient>
        <linearGradient id="paint47_linear_2550_14066" x1="274.909" y1="49" x2="274.909" y2="373.04" gradientUnits="userSpaceOnUse">
            <stop stop-color="#B2F5F5"/>
            <stop offset="1" stop-color="#B2F5F5"/>
        </linearGradient>
        <linearGradient id="paint48_linear_2550_14066" x1="274.909" y1="49" x2="274.909" y2="373.04" gradientUnits="userSpaceOnUse">
            <stop stop-color="#B2F5F5"/>
            <stop offset="1" stop-color="#B2F5F5"/>
        </linearGradient>
        <linearGradient id="paint49_linear_2550_14066" x1="274.909" y1="49" x2="274.909" y2="373.04" gradientUnits="userSpaceOnUse">
            <stop stop-color="#B2F5F5"/>
            <stop offset="1" stop-color="#B2F5F5"/>
        </linearGradient>
        <linearGradient id="paint50_linear_2550_14066" x1="274.909" y1="49" x2="274.909" y2="373.04" gradientUnits="userSpaceOnUse">
            <stop stop-color="#B2F5F5"/>
            <stop offset="1" stop-color="#B2F5F5"/>
        </linearGradient>
        <linearGradient id="paint51_linear_2550_14066" x1="274.909" y1="49" x2="274.909" y2="373.04" gradientUnits="userSpaceOnUse">
            <stop stop-color="#B2F5F5"/>
            <stop offset="1" stop-color="#B2F5F5"/>
        </linearGradient>
        <linearGradient id="paint52_linear_2550_14066" x1="274.909" y1="49" x2="274.909" y2="373.04" gradientUnits="userSpaceOnUse">
            <stop stop-color="#B2F5F5"/>
            <stop offset="1" stop-color="#B2F5F5"/>
        </linearGradient>
        <linearGradient id="paint53_linear_2550_14066" x1="274.909" y1="49" x2="274.909" y2="373.04" gradientUnits="userSpaceOnUse">
            <stop stop-color="#B2F5F5"/>
            <stop offset="1" stop-color="#B2F5F5"/>
        </linearGradient>
        <linearGradient id="paint54_linear_2550_14066" x1="274.909" y1="49" x2="274.909" y2="373.04" gradientUnits="userSpaceOnUse">
            <stop stop-color="#B2F5F5"/>
            <stop offset="1" stop-color="#B2F5F5"/>
        </linearGradient>
        <linearGradient id="paint55_linear_2550_14066" x1="274.909" y1="49" x2="274.909" y2="373.04" gradientUnits="userSpaceOnUse">
            <stop stop-color="#B2F5F5"/>
            <stop offset="1" stop-color="#B2F5F5"/>
        </linearGradient>
        <linearGradient id="paint56_linear_2550_14066" x1="274.909" y1="49" x2="274.909" y2="373.04" gradientUnits="userSpaceOnUse">
            <stop stop-color="#B2F5F5"/>
            <stop offset="1" stop-color="#B2F5F5"/>
        </linearGradient>
        <linearGradient id="paint57_linear_2550_14066" x1="274.909" y1="49" x2="274.909" y2="373.04" gradientUnits="userSpaceOnUse">
            <stop stop-color="#B2F5F5"/>
            <stop offset="1" stop-color="#B2F5F5"/>
        </linearGradient>
        <linearGradient id="paint58_linear_2550_14066" x1="274.909" y1="49" x2="274.909" y2="373.04" gradientUnits="userSpaceOnUse">
            <stop stop-color="#B2F5F5"/>
            <stop offset="1" stop-color="#B2F5F5"/>
        </linearGradient>
        <linearGradient id="paint59_linear_2550_14066" x1="274.909" y1="49" x2="274.909" y2="373.04" gradientUnits="userSpaceOnUse">
            <stop stop-color="#B2F5F5"/>
            <stop offset="1" stop-color="#B2F5F5"/>
        </linearGradient>
        <linearGradient id="paint60_linear_2550_14066" x1="274.909" y1="49" x2="274.909" y2="373.04" gradientUnits="userSpaceOnUse">
            <stop stop-color="#B2F5F5"/>
            <stop offset="1" stop-color="#B2F5F5"/>
        </linearGradient>
        <linearGradient id="paint61_linear_2550_14066" x1="274.909" y1="49" x2="274.909" y2="373.04" gradientUnits="userSpaceOnUse">
            <stop stop-color="#B2F5F5"/>
            <stop offset="1" stop-color="#B2F5F5"/>
        </linearGradient>
        <linearGradient id="paint62_linear_2550_14066" x1="274.909" y1="49" x2="274.909" y2="373.04" gradientUnits="userSpaceOnUse">
            <stop stop-color="#B2F5F5"/>
            <stop offset="1" stop-color="#B2F5F5"/>
        </linearGradient>
        <linearGradient id="paint63_linear_2550_14066" x1="274.909" y1="49" x2="274.909" y2="373.04" gradientUnits="userSpaceOnUse">
            <stop stop-color="#B2F5F5"/>
            <stop offset="1" stop-color="#B2F5F5"/>
        </linearGradient>
        <linearGradient id="paint64_linear_2550_14066" x1="274.909" y1="49" x2="274.909" y2="373.04" gradientUnits="userSpaceOnUse">
            <stop stop-color="#B2F5F5"/>
            <stop offset="1" stop-color="#B2F5F5"/>
        </linearGradient>
        <linearGradient id="paint65_linear_2550_14066" x1="274.909" y1="49" x2="274.909" y2="373.04" gradientUnits="userSpaceOnUse">
            <stop stop-color="#B2F5F5"/>
            <stop offset="1" stop-color="#B2F5F5"/>
        </linearGradient>
        <linearGradient id="paint66_linear_2550_14066" x1="274.909" y1="49" x2="274.909" y2="373.04" gradientUnits="userSpaceOnUse">
            <stop stop-color="#B2F5F5"/>
            <stop offset="1" stop-color="#B2F5F5"/>
        </linearGradient>
        <linearGradient id="paint67_linear_2550_14066" x1="274.909" y1="49" x2="274.909" y2="373.04" gradientUnits="userSpaceOnUse">
            <stop stop-color="#B2F5F5"/>
            <stop offset="1" stop-color="#B2F5F5"/>
        </linearGradient>
        <linearGradient id="paint68_linear_2550_14066" x1="274.909" y1="49" x2="274.909" y2="373.04" gradientUnits="userSpaceOnUse">
            <stop stop-color="#B2F5F5"/>
            <stop offset="1" stop-color="#B2F5F5"/>
        </linearGradient>
        <linearGradient id="paint69_linear_2550_14066" x1="274.909" y1="49" x2="274.909" y2="373.04" gradientUnits="userSpaceOnUse">
            <stop stop-color="#B2F5F5"/>
            <stop offset="1" stop-color="#B2F5F5"/>
        </linearGradient>
        <linearGradient id="paint70_linear_2550_14066" x1="274.909" y1="49" x2="274.909" y2="373.04" gradientUnits="userSpaceOnUse">
            <stop stop-color="#B2F5F5"/>
            <stop offset="1" stop-color="#B2F5F5"/>
        </linearGradient>
        <linearGradient id="paint71_linear_2550_14066" x1="274.909" y1="49" x2="274.909" y2="373.04" gradientUnits="userSpaceOnUse">
            <stop stop-color="#B2F5F5"/>
            <stop offset="1" stop-color="#B2F5F5"/>
        </linearGradient>
        <linearGradient id="paint72_linear_2550_14066" x1="274.909" y1="49" x2="274.909" y2="373.04" gradientUnits="userSpaceOnUse">
            <stop stop-color="#B2F5F5"/>
            <stop offset="1" stop-color="#B2F5F5"/>
        </linearGradient>
        <linearGradient id="paint73_linear_2550_14066" x1="274.909" y1="49" x2="274.909" y2="373.04" gradientUnits="userSpaceOnUse">
            <stop stop-color="#B2F5F5"/>
            <stop offset="1" stop-color="#B2F5F5"/>
        </linearGradient>
        <linearGradient id="paint74_linear_2550_14066" x1="274.909" y1="49" x2="274.909" y2="373.04" gradientUnits="userSpaceOnUse">
            <stop stop-color="#B2F5F5"/>
            <stop offset="1" stop-color="#B2F5F5"/>
        </linearGradient>
        <linearGradient id="paint75_linear_2550_14066" x1="274.909" y1="49" x2="274.909" y2="373.04" gradientUnits="userSpaceOnUse">
            <stop stop-color="#B2F5F5"/>
            <stop offset="1" stop-color="#B2F5F5"/>
        </linearGradient>
        <linearGradient id="paint76_linear_2550_14066" x1="274.909" y1="49" x2="274.909" y2="373.04" gradientUnits="userSpaceOnUse">
            <stop stop-color="#B2F5F5"/>
            <stop offset="1" stop-color="#B2F5F5"/>
        </linearGradient>
        <linearGradient id="paint77_linear_2550_14066" x1="274.909" y1="49" x2="274.909" y2="373.04" gradientUnits="userSpaceOnUse">
            <stop stop-color="#B2F5F5"/>
            <stop offset="1" stop-color="#B2F5F5"/>
        </linearGradient>
        <linearGradient id="paint78_linear_2550_14066" x1="274.909" y1="49" x2="274.909" y2="373.04" gradientUnits="userSpaceOnUse">
            <stop stop-color="#B2F5F5"/>
            <stop offset="1" stop-color="#B2F5F5"/>
        </linearGradient>
        <linearGradient id="paint79_linear_2550_14066" x1="274.909" y1="49" x2="274.909" y2="373.04" gradientUnits="userSpaceOnUse">
            <stop stop-color="#B2F5F5"/>
            <stop offset="1" stop-color="#B2F5F5"/>
        </linearGradient>
        <linearGradient id="paint80_linear_2550_14066" x1="274.909" y1="49" x2="274.909" y2="373.04" gradientUnits="userSpaceOnUse">
            <stop stop-color="#B2F5F5"/>
            <stop offset="1" stop-color="#B2F5F5"/>
        </linearGradient>
        <linearGradient id="paint81_linear_2550_14066" x1="274.909" y1="49" x2="274.909" y2="373.04" gradientUnits="userSpaceOnUse">
            <stop stop-color="#B2F5F5"/>
            <stop offset="1" stop-color="#B2F5F5"/>
        </linearGradient>
        <linearGradient id="paint82_linear_2550_14066" x1="274.909" y1="49" x2="274.909" y2="373.04" gradientUnits="userSpaceOnUse">
            <stop stop-color="#B2F5F5"/>
            <stop offset="1" stop-color="#B2F5F5"/>
        </linearGradient>
        <linearGradient id="paint83_linear_2550_14066" x1="274.909" y1="49" x2="274.909" y2="373.04" gradientUnits="userSpaceOnUse">
            <stop stop-color="#B2F5F5"/>
            <stop offset="1" stop-color="#B2F5F5"/>
        </linearGradient>
        <linearGradient id="paint84_linear_2550_14066" x1="274.909" y1="49" x2="274.909" y2="373.04" gradientUnits="userSpaceOnUse">
            <stop stop-color="#B2F5F5"/>
            <stop offset="1" stop-color="#B2F5F5"/>
        </linearGradient>
        <linearGradient id="paint85_linear_2550_14066" x1="274.909" y1="49" x2="274.909" y2="373.04" gradientUnits="userSpaceOnUse">
            <stop stop-color="#B2F5F5"/>
            <stop offset="1" stop-color="#B2F5F5"/>
        </linearGradient>
        <linearGradient id="paint86_linear_2550_14066" x1="274.909" y1="49" x2="274.909" y2="373.04" gradientUnits="userSpaceOnUse">
            <stop stop-color="#B2F5F5"/>
            <stop offset="1" stop-color="#B2F5F5"/>
        </linearGradient>
        <linearGradient id="paint87_linear_2550_14066" x1="274.909" y1="49" x2="274.909" y2="373.04" gradientUnits="userSpaceOnUse">
            <stop stop-color="#B2F5F5"/>
            <stop offset="1" stop-color="#B2F5F5"/>
        </linearGradient>
        <linearGradient id="paint88_linear_2550_14066" x1="274.909" y1="49" x2="274.909" y2="373.04" gradientUnits="userSpaceOnUse">
            <stop stop-color="#B2F5F5"/>
            <stop offset="1" stop-color="#B2F5F5"/>
        </linearGradient>
        <linearGradient id="paint89_linear_2550_14066" x1="274.909" y1="49" x2="274.909" y2="373.04" gradientUnits="userSpaceOnUse">
            <stop stop-color="#B2F5F5"/>
            <stop offset="1" stop-color="#B2F5F5"/>
        </linearGradient>
        <linearGradient id="paint90_linear_2550_14066" x1="274.909" y1="49" x2="274.909" y2="373.04" gradientUnits="userSpaceOnUse">
            <stop stop-color="#B2F5F5"/>
            <stop offset="1" stop-color="#B2F5F5"/>
        </linearGradient>
        <linearGradient id="paint91_linear_2550_14066" x1="274.909" y1="49" x2="274.909" y2="373.04" gradientUnits="userSpaceOnUse">
            <stop stop-color="#B2F5F5"/>
            <stop offset="1" stop-color="#B2F5F5"/>
        </linearGradient>
        <linearGradient id="paint92_linear_2550_14066" x1="274.909" y1="49" x2="274.909" y2="373.04" gradientUnits="userSpaceOnUse">
            <stop stop-color="#B2F5F5"/>
            <stop offset="1" stop-color="#B2F5F5"/>
        </linearGradient>
        <linearGradient id="paint93_linear_2550_14066" x1="274.909" y1="49" x2="274.909" y2="373.04" gradientUnits="userSpaceOnUse">
            <stop stop-color="#B2F5F5"/>
            <stop offset="1" stop-color="#B2F5F5"/>
        </linearGradient>
        <linearGradient id="paint94_linear_2550_14066" x1="274.909" y1="49" x2="274.909" y2="373.04" gradientUnits="userSpaceOnUse">
            <stop stop-color="#B2F5F5"/>
            <stop offset="1" stop-color="#B2F5F5"/>
        </linearGradient>
        <linearGradient id="paint95_linear_2550_14066" x1="274.909" y1="49" x2="274.909" y2="373.04" gradientUnits="userSpaceOnUse">
            <stop stop-color="#B2F5F5"/>
            <stop offset="1" stop-color="#B2F5F5"/>
        </linearGradient>
        <linearGradient id="paint96_linear_2550_14066" x1="274.909" y1="49" x2="274.909" y2="373.04" gradientUnits="userSpaceOnUse">
            <stop stop-color="#B2F5F5"/>
            <stop offset="1" stop-color="#B2F5F5"/>
        </linearGradient>
        <linearGradient id="paint97_linear_2550_14066" x1="274.909" y1="49" x2="274.909" y2="373.04" gradientUnits="userSpaceOnUse">
            <stop stop-color="#B2F5F5"/>
            <stop offset="1" stop-color="#B2F5F5"/>
        </linearGradient>
        <linearGradient id="paint98_linear_2550_14066" x1="274.909" y1="49" x2="274.909" y2="373.04" gradientUnits="userSpaceOnUse">
            <stop stop-color="#B2F5F5"/>
            <stop offset="1" stop-color="#B2F5F5"/>
        </linearGradient>
        <linearGradient id="paint99_linear_2550_14066" x1="274.909" y1="49" x2="274.909" y2="373.04" gradientUnits="userSpaceOnUse">
            <stop stop-color="#B2F5F5"/>
            <stop offset="1" stop-color="#B2F5F5"/>
        </linearGradient>
        <clipPath id="clip0_2550_14066">
            <rect width="25.3946" height="23.981" fill="white" transform="translate(272.758 287.01)"/>
        </clipPath>
        <clipPath id="clip1_2550_14066">
            <rect width="25.3946" height="23.981" fill="white" transform="translate(224.016 243.969)"/>
        </clipPath>
        <clipPath id="clip2_2550_14066">
            <rect width="25.3946" height="23.981" fill="white" transform="translate(354.521 147)"/>
        </clipPath>
        <clipPath id="clip3_2550_14066">
            <rect width="25.3946" height="23.981" fill="white" transform="translate(243.439 104.195)"/>
        </clipPath>
        <clipPath id="clip4_2550_14066">
            <rect width="25.3946" height="23.981" fill="white" transform="translate(353.018 224.068)"/>
        </clipPath>
    </defs>
</svg>
