<svg width="224" height="192" viewBox="0 0 224 192" fill="none" xmlns="http://www.w3.org/2000/svg">
<g clip-path="url(#clip0_9232_18574)">
<g filter="url(#filter0_f_9232_18574)">
<rect width="79.9684" height="56.1324" transform="matrix(-0.999351 -0.0360302 -0.0360302 0.999351 152.969 69.0339)" fill="url(#paint0_linear_9232_18574)"/>
</g>
<path d="M85.3358 114.678L50.5859 134.434" stroke="url(#paint1_linear_9232_18574)" stroke-width="0.828715" stroke-linejoin="round"/>
<path d="M112.386 125.416L152.652 101.904L112.049 78.8804L71.3518 102.318L112.386 125.416Z" stroke="#CD88FF" stroke-width="0.414357" stroke-linecap="round" stroke-linejoin="round" stroke-dasharray="1.52 1.52"/>
<g filter="url(#filter1_d_9232_18574)">
<path d="M90.7008 103.574C85.2344 100.418 82.1634 96.1379 82.1634 91.6751C82.1634 87.2122 85.2344 82.9321 90.7008 79.7764L111.312 67.8777L131.923 79.7764C137.389 82.9321 140.46 87.2122 140.46 91.6751C140.46 96.1379 137.389 100.418 131.923 103.574C126.456 106.729 119.042 108.502 111.312 108.502C103.581 108.502 96.1671 106.729 90.7008 103.574V103.574Z" fill="#0ACF83"/>
</g>
<path d="M151.923 70.9005L111.592 93.947L70.7772 70.9005L111.592 46.8939L151.923 70.9005Z" fill="#6400CA" stroke="url(#paint2_linear_9232_18574)" stroke-width="0.530518"/>
<path d="M111.394 94.1378L111.394 119.573L70.5117 95.4734L70.5117 70.7559L111.394 94.1378Z" fill="#4A0292"/>
<path d="M111.313 93.8066L111.313 119.284L152.534 95.496L152.534 70.8057L111.313 93.8066Z" fill="#3C0077"/>
<path d="M107.636 69.1828C107.636 68.6062 108.445 68.1388 109.444 68.1388L113.549 68.1388C114.547 68.1388 115.357 68.6062 115.357 69.1828L115.357 71.5528C115.357 72.1293 114.547 72.5967 113.549 72.5967L109.444 72.5967C108.445 72.5967 107.636 72.1293 107.636 71.5528L107.636 69.1828Z" fill="#A950FF"/>
<path d="M117.073 63.7155C117.073 63.1492 117.868 62.6902 118.849 62.6902L123.018 62.6902C123.999 62.6902 124.794 63.1492 124.794 63.7155L124.794 66.1228C124.794 66.689 123.999 67.1481 123.018 67.1481L118.849 67.1481C117.868 67.1481 117.073 66.689 117.073 66.1228L117.073 63.7155Z" fill="#A950FF"/>
<path d="M98.1987 63.7156C98.1987 63.1494 98.9937 62.6904 99.9745 62.6904L104.144 62.6904C105.125 62.6904 105.92 63.1494 105.92 63.7156L105.92 66.123C105.92 66.6892 105.125 67.1482 104.144 67.1482L99.9745 67.1482C98.9937 67.1482 98.1987 66.6892 98.1987 66.123L98.1987 63.7156Z" fill="#E9C1FF"/>
<path d="M104.112 68.1386C105.111 68.1386 105.92 68.606 105.92 69.1826L105.92 71.5526C105.92 72.1291 105.111 72.5965 104.112 72.5965L100.007 72.5965C99.0087 72.5965 98.1991 72.1291 98.1991 71.5526L98.1991 69.1826C98.1991 68.606 99.0087 68.1386 100.007 68.1386L104.112 68.1386Z" fill="#CD88FF"/>
<path d="M104.144 73.5871C105.125 73.5871 105.92 74.0462 105.92 74.6124L105.92 77.0197C105.92 77.586 105.125 78.045 104.144 78.045L99.9745 78.045C98.9937 78.045 98.1987 77.586 98.1987 77.0197L98.1987 74.6124C98.1987 74.0461 98.9937 73.5871 99.9745 73.5871L104.144 73.5871Z" fill="#A950FF"/>
<path d="M113.549 62.6903C114.548 62.6903 115.357 63.1577 115.357 63.7342L115.357 66.1042C115.357 66.6808 114.548 67.1482 113.549 67.1482L109.444 67.1482C108.445 67.1482 107.636 66.6808 107.636 66.1042L107.636 63.7342C107.636 63.1577 108.445 62.6903 109.444 62.6903L113.549 62.6903Z" fill="#CD88FF"/>
<path d="M121.373 73.7378C123.604 73.7378 125.413 74.782 125.413 76.0701C125.413 77.3582 123.604 78.4024 121.373 78.4024C119.142 78.4024 117.334 77.3582 117.334 76.0701C117.334 74.782 119.142 73.7378 121.373 73.7378Z" fill="#F62E76"/>
<g filter="url(#filter2_f_9232_18574)">
<circle cx="80.8344" cy="70.4067" r="19.6938" fill="white" fill-opacity="0.05" style="mix-blend-mode:lighten"/>
</g>
<g filter="url(#filter3_f_9232_18574)">
<circle cx="148.209" cy="74.5583" r="19.6938" fill="white" fill-opacity="0.05" style="mix-blend-mode:lighten"/>
</g>
<path d="M53.9363 143.892C53.9363 146.771 51.8932 149.49 48.3419 151.523C44.8069 153.547 39.8843 154.817 34.4152 154.817C28.9461 154.817 24.0236 153.547 20.4886 151.523C16.9372 149.49 14.8941 146.771 14.8941 143.892C14.8941 141.014 16.9372 138.295 20.4886 136.262C24.0236 134.238 28.9461 132.968 34.4152 132.968C39.8843 132.968 44.8069 134.238 48.3419 136.262C51.8932 138.295 53.9363 141.014 53.9363 143.892Z" stroke="#5F2FCB" stroke-width="1.17108"/>
<path fill-rule="evenodd" clip-rule="evenodd" d="M34.4152 146.872C45.5198 146.872 54.5219 141.718 54.5219 135.362L54.522 135.362L54.522 126.125L46.4139 126.125C43.0647 124.697 38.9124 123.852 34.4152 123.852C29.9181 123.852 25.7658 124.697 22.4166 126.125L14.3087 126.125L14.3087 135.32C14.3086 135.334 14.3086 135.348 14.3086 135.362C14.3086 141.718 23.3106 146.872 34.4152 146.872Z" fill="#5506D7"/>
<ellipse cx="34.4152" cy="125.415" rx="20.1066" ry="11.5099" fill="#3B009B"/>
<path fill-rule="evenodd" clip-rule="evenodd" d="M34.4152 133.831C45.5198 133.831 54.5219 128.678 54.5219 122.321C54.5219 122.321 54.5219 122.321 54.5219 122.321L54.522 122.321L54.522 113.085L46.4137 113.085C43.0646 111.657 38.9123 110.812 34.4152 110.812C29.9181 110.812 25.7659 111.657 22.4167 113.085L14.3087 113.085L14.3087 122.279C14.3086 122.293 14.3086 122.307 14.3086 122.321C14.3086 128.678 23.3106 133.831 34.4152 133.831Z" fill="#5506D7"/>
<ellipse cx="34.4152" cy="112.375" rx="20.1066" ry="11.5099" fill="#3B009B"/>
<path fill-rule="evenodd" clip-rule="evenodd" d="M34.4152 120.831C45.5198 120.831 54.5219 115.678 54.5219 109.321C54.5219 109.321 54.5219 109.321 54.5219 109.321L54.522 109.321L54.522 100.084L46.4137 100.084C43.0646 98.6564 38.9123 97.8113 34.4152 97.8113C29.9181 97.8113 25.7659 98.6564 22.4167 100.084L14.3087 100.084L14.3087 109.279C14.3086 109.293 14.3086 109.307 14.3086 109.321C14.3086 115.678 23.3106 120.831 34.4152 120.831Z" fill="#660BFA"/>
<ellipse cx="34.4152" cy="99.3752" rx="20.1066" ry="11.5099" fill="#8C49FA"/>
<path d="M209.108 145.731C209.108 148.609 207.065 151.329 203.514 153.362C199.979 155.385 195.056 156.655 189.587 156.655C184.118 156.655 179.195 155.385 175.66 153.362C172.109 151.329 170.066 148.609 170.066 145.731C170.066 142.853 172.109 140.133 175.66 138.101C179.195 136.077 184.118 134.807 189.587 134.807C195.056 134.807 199.979 136.077 203.514 138.101C207.065 140.133 209.108 142.853 209.108 145.731Z" stroke="#5F2FCB" stroke-width="1.17108"/>
<path fill-rule="evenodd" clip-rule="evenodd" d="M189.587 148.711C200.692 148.711 209.694 143.558 209.694 137.201C209.694 137.201 209.694 137.201 209.694 137.201L209.694 127.964L201.586 127.964C198.237 126.536 194.084 125.691 189.587 125.691C185.09 125.691 180.938 126.536 177.588 127.964L169.48 127.964L169.48 137.201M189.587 148.711C178.483 148.711 169.481 143.558 169.48 137.201Z" fill="#5506D7"/>
<ellipse cx="189.587" cy="127.254" rx="20.1066" ry="11.5099" fill="#3B009B"/>
<path fill-rule="evenodd" clip-rule="evenodd" d="M189.587 135.67C200.692 135.67 209.694 130.517 209.694 124.16C209.694 124.16 209.694 124.16 209.694 124.16L209.694 114.923L201.586 114.923C198.237 113.495 194.084 112.65 189.587 112.65C185.09 112.65 180.938 113.495 177.588 114.923L169.48 114.923L169.48 124.16M189.587 135.67C178.483 135.67 169.481 130.517 169.48 124.16Z" fill="#5506D7"/>
<ellipse cx="189.587" cy="114.214" rx="20.1066" ry="11.5099" fill="#3B009B"/>
<path d="M169.476 119.187L169.53 120.864C169.563 121.889 170.279 122.712 171.171 122.75L172.671 122.813L171.171 122.876C170.279 122.913 169.563 123.736 169.53 124.762L169.476 126.439L169.422 124.762C169.389 123.736 168.673 122.913 167.782 122.876L166.281 122.813L167.782 122.75C168.673 122.712 169.389 121.889 169.422 120.864L169.476 119.187Z" fill="white"/>
<path fill-rule="evenodd" clip-rule="evenodd" d="M189.587 122.67C200.692 122.67 209.694 117.517 209.694 111.16C209.694 111.16 209.694 111.16 209.694 111.16L209.694 101.923L201.586 101.923C198.237 100.495 194.084 99.6501 189.587 99.6501C185.09 99.6501 180.938 100.495 177.588 101.923L169.48 101.923L169.48 111.16M189.587 122.67C178.483 122.67 169.481 117.517 169.48 111.16Z" fill="#660BFA"/>
<ellipse cx="189.587" cy="101.214" rx="20.1066" ry="11.5099" fill="#8C49FA"/>
<g style="mix-blend-mode:soft-light" clip-path="url(#clip1_9232_18574)">
<path d="M186.099 99.2709L189.585 101.284L194.305 100.587L193.949 99.762L190.038 100.338L187.144 98.6672L186.099 99.2709ZM194.465 96.0508L189.585 93.2331L189.585 95.3584C187.319 95.3544 185.046 95.8535 183.31 96.8558C179.845 98.8564 179.845 102.101 183.31 104.101C186.775 106.102 192.394 106.102 195.859 104.101C199.324 102.101 199.324 98.8564 195.859 96.8558L194.465 97.6609C197.156 99.2146 197.156 101.742 194.465 103.296C191.774 104.85 187.395 104.85 184.704 103.296C182.013 101.742 182.013 99.2146 184.704 97.6609C186.05 96.884 187.821 96.4976 189.585 96.4935L189.585 98.8684L194.465 96.0508Z" fill="white"/>
</g>
<g style="mix-blend-mode:soft-light" clip-path="url(#clip2_9232_18574)">
<path d="M186.099 99.2709L189.585 101.284L194.305 100.587L193.949 99.762L190.038 100.338L187.144 98.6672L186.099 99.2709ZM194.465 96.0508L189.585 93.2331L189.585 95.3584C187.319 95.3544 185.046 95.8535 183.31 96.8558C179.845 98.8564 179.845 102.101 183.31 104.101C186.775 106.102 192.394 106.102 195.859 104.101C199.324 102.101 199.324 98.8564 195.859 96.8558L194.465 97.6609C197.156 99.2146 197.156 101.742 194.465 103.296C191.774 104.85 187.395 104.85 184.704 103.296C182.013 101.742 182.013 99.2146 184.704 97.6609C186.05 96.884 187.821 96.4976 189.585 96.4935L189.585 98.8684L194.465 96.0508Z" fill="white"/>
</g>
<path d="M204.867 105.151L204.921 106.827C204.954 107.853 205.669 108.676 206.561 108.714L208.061 108.777L206.561 108.84C205.669 108.877 204.954 109.7 204.921 110.726L204.867 112.403L204.813 110.726C204.78 109.7 204.064 108.877 203.172 108.84L201.672 108.777L203.172 108.714C204.064 108.676 204.78 107.853 204.813 106.827L204.867 105.151Z" fill="white"/>
<g opacity="0.4" filter="url(#filter4_b_9232_18574)">
<path fill-rule="evenodd" clip-rule="evenodd" d="M87.6487 70.9733L93.5427 74.3762L75.7831 84.6297L58.101 74.421L64.0209 71.0031L69.9444 74.4231C68.1703 67.1783 72.1274 59.517 81.8064 53.9289C96.1325 45.6577 118.199 44.6238 134.39 50.7931L128.292 54.3135C115.52 49.9814 98.7114 50.9746 87.7004 57.3318C78.9686 62.3731 76.0766 69.5215 79.0353 75.9462L87.6487 70.9733ZM134.904 70.9135L129.01 67.5105L146.769 57.257L164.451 67.4658L158.531 70.8836L152.608 67.4637C154.382 74.7085 150.425 82.3697 140.746 87.9579C126.42 96.2291 104.354 97.263 88.1626 91.0936L94.2601 87.5733C107.032 91.9053 123.841 90.9121 134.852 84.555C143.584 79.5137 146.476 72.3653 143.517 65.9405L134.904 70.9135Z" fill="#AAE0B9"/>
<g style="mix-blend-mode:overlay" filter="url(#filter5_bii_9232_18574)">
<path fill-rule="evenodd" clip-rule="evenodd" d="M87.7268 70.9259L93.6208 74.3288L75.8612 84.5824L58.1792 74.3736L64.099 70.9558L70.0225 74.3757C68.2484 67.1309 72.2055 59.4697 81.8845 53.8815C96.2106 45.6103 118.277 44.5764 134.468 50.7458L128.37 54.2661C115.598 49.9341 98.7895 50.9272 87.7785 57.2844C79.0467 62.3257 76.1548 69.4741 79.1134 75.8989L87.7268 70.9259ZM134.982 70.8661L129.088 67.4632L146.847 57.2097L164.529 67.4184L158.61 70.8362L152.686 67.4163C154.46 74.6611 150.503 82.3224 140.824 87.9105C126.498 96.1817 104.432 97.2156 88.2407 91.0463L94.3382 87.5259C107.11 91.858 123.919 90.8648 134.93 84.5076C143.662 79.4663 146.554 72.3179 143.595 65.8931L134.982 70.8661Z" fill="white" fill-opacity="0.155"/>
</g>
</g>
<g filter="url(#filter6_d_9232_18574)">
<path fill-rule="evenodd" clip-rule="evenodd" d="M87.4729 68.63L93.3669 72.0329L75.6073 82.2865L57.9253 72.0777L63.8451 68.6599L69.7686 72.0798C67.9945 64.835 71.9516 57.1738 81.6306 51.5856C95.9567 43.3144 118.023 42.2805 134.214 48.4499L128.117 51.9702C115.345 47.6382 98.5356 48.6313 87.5246 54.9885C78.7928 60.0298 75.9009 67.1782 78.8595 73.603L87.4729 68.63ZM134.728 68.5702L128.834 65.1673L146.594 54.9138L164.276 65.1225L158.356 68.5404L152.432 65.1204C154.206 72.3652 150.249 80.0265 140.57 85.6146C126.244 93.8858 104.178 94.9197 87.9868 88.7504L94.0843 85.23C106.856 89.5621 123.665 88.5689 134.676 82.2117C143.408 77.1704 146.3 70.022 143.341 63.5972L134.728 68.5702Z" fill="#AAE0B9"/>
<g style="mix-blend-mode:overlay" filter="url(#filter7_bii_9232_18574)">
<path fill-rule="evenodd" clip-rule="evenodd" d="M87.5549 68.5824L93.449 71.9853L75.6894 82.2389L58.0073 72.0301L63.9272 68.6123L69.8507 72.0322C68.0765 64.7874 72.0336 57.1262 81.7126 51.538C96.0387 43.2668 118.105 42.2329 134.296 48.4023L128.199 51.9226C115.427 47.5906 98.6176 48.5837 87.6066 54.9409C78.8748 59.9822 75.9829 67.1306 78.9415 73.5554L87.5549 68.5824ZM134.81 68.5226L128.916 65.1197L146.676 54.8662L164.358 65.0749L158.438 68.4927L152.514 65.0728C154.288 72.3176 150.331 79.9788 140.652 85.567C126.326 93.8382 104.26 94.8721 88.0688 88.7028L94.1663 85.1824C106.938 89.5145 123.747 88.5213 134.758 82.1641C143.49 77.1228 146.382 69.9744 143.423 63.5496L134.81 68.5226Z" fill="white" fill-opacity="0.155"/>
</g>
</g>
<path d="M88.3687 112.873L86.7308 116.403L82.256 113.819L88.3687 112.873Z" fill="#5F2FB6"/>
<path d="M163.959 131.031L136.395 113.728" stroke="url(#paint3_linear_9232_18574)" stroke-width="0.828715" stroke-linecap="round" stroke-linejoin="round"/>
<path d="M166.545 132.34L160.433 131.394L164.907 128.811L166.545 132.34Z" fill="#A55FF9"/>
</g>
<defs>
<filter id="filter0_f_9232_18574" x="-18.9688" y="-23.8474" width="261.938" height="238.977" filterUnits="userSpaceOnUse" color-interpolation-filters="sRGB">
<feFlood flood-opacity="0" result="BackgroundImageFix"/>
<feBlend mode="normal" in="SourceGraphic" in2="BackgroundImageFix" result="shape"/>
<feGaussianBlur stdDeviation="45" result="effect1_foregroundBlur_9232_18574"/>
</filter>
<filter id="filter1_d_9232_18574" x="42.2159" y="31.252" width="138.193" height="120.521" filterUnits="userSpaceOnUse" color-interpolation-filters="sRGB">
<feFlood flood-opacity="0" result="BackgroundImageFix"/>
<feColorMatrix in="SourceAlpha" type="matrix" values="0 0 0 0 0 0 0 0 0 0 0 0 0 0 0 0 0 0 127 0" result="hardAlpha"/>
<feOffset dy="3.32255"/>
<feGaussianBlur stdDeviation="19.9741"/>
<feComposite in2="hardAlpha" operator="out"/>
<feColorMatrix type="matrix" values="0 0 0 0 0.396 0 0 0 0 0 0 0 0 0 0.9 0 0 0 1 0"/>
<feBlend mode="normal" in2="BackgroundImageFix" result="effect1_dropShadow_9232_18574"/>
<feBlend mode="normal" in="SourceGraphic" in2="effect1_dropShadow_9232_18574" result="shape"/>
</filter>
<filter id="filter2_f_9232_18574" x="22.191" y="11.7633" width="117.286" height="117.287" filterUnits="userSpaceOnUse" color-interpolation-filters="sRGB">
<feFlood flood-opacity="0" result="BackgroundImageFix"/>
<feBlend mode="normal" in="SourceGraphic" in2="BackgroundImageFix" result="shape"/>
<feGaussianBlur stdDeviation="19.4748" result="effect1_foregroundBlur_9232_18574"/>
</filter>
<filter id="filter3_f_9232_18574" x="89.566" y="15.9149" width="117.286" height="117.287" filterUnits="userSpaceOnUse" color-interpolation-filters="sRGB">
<feFlood flood-opacity="0" result="BackgroundImageFix"/>
<feBlend mode="normal" in="SourceGraphic" in2="BackgroundImageFix" result="shape"/>
<feGaussianBlur stdDeviation="19.4748" result="effect1_foregroundBlur_9232_18574"/>
</filter>
<filter id="filter4_b_9232_18574" x="29.4096" y="14.0026" width="163.802" height="113.834" filterUnits="userSpaceOnUse" color-interpolation-filters="sRGB">
<feFlood flood-opacity="0" result="BackgroundImageFix"/>
<feGaussianBlur in="BackgroundImageFix" stdDeviation="11.3948"/>
<feComposite in2="SourceAlpha" operator="in" result="effect1_backgroundBlur_9232_18574"/>
<feBlend mode="normal" in="SourceGraphic" in2="effect1_backgroundBlur_9232_18574" result="shape"/>
</filter>
<filter id="filter5_bii_9232_18574" x="38.7176" y="27.3235" width="145.276" height="87.1452" filterUnits="userSpaceOnUse" color-interpolation-filters="sRGB">
<feFlood flood-opacity="0" result="BackgroundImageFix"/>
<feGaussianBlur in="BackgroundImageFix" stdDeviation="9.73106"/>
<feComposite in2="SourceAlpha" operator="in" result="effect1_backgroundBlur_9232_18574"/>
<feBlend mode="normal" in="SourceGraphic" in2="effect1_backgroundBlur_9232_18574" result="shape"/>
<feColorMatrix in="SourceAlpha" type="matrix" values="0 0 0 0 0 0 0 0 0 0 0 0 0 0 0 0 0 0 127 0" result="hardAlpha"/>
<feOffset dx="-5.26003" dy="5.26003"/>
<feGaussianBlur stdDeviation="2.63002"/>
<feComposite in2="hardAlpha" operator="arithmetic" k2="-1" k3="1"/>
<feColorMatrix type="matrix" values="0 0 0 0 1 0 0 0 0 1 0 0 0 0 1 0 0 0 0.155 0"/>
<feBlend mode="normal" in2="shape" result="effect2_innerShadow_9232_18574"/>
<feColorMatrix in="SourceAlpha" type="matrix" values="0 0 0 0 0 0 0 0 0 0 0 0 0 0 0 0 0 0 127 0" result="hardAlpha"/>
<feOffset dx="5.26003" dy="-5.26003"/>
<feGaussianBlur stdDeviation="2.63002"/>
<feComposite in2="hardAlpha" operator="arithmetic" k2="-1" k3="1"/>
<feColorMatrix type="matrix" values="0 0 0 0 0.76 0 0 0 0 0.76 0 0 0 0 0.76 0 0 0 0.155 0"/>
<feBlend mode="normal" in2="effect2_innerShadow_9232_18574" result="effect3_innerShadow_9232_18574"/>
</filter>
<filter id="filter6_d_9232_18574" x="50.3777" y="34.4487" width="121.538" height="71.5697" filterUnits="userSpaceOnUse" color-interpolation-filters="sRGB">
<feFlood flood-opacity="0" result="BackgroundImageFix"/>
<feColorMatrix in="SourceAlpha" type="matrix" values="0 0 0 0 0 0 0 0 0 0 0 0 0 0 0 0 0 0 127 0" result="hardAlpha"/>
<feOffset dy="1.65743"/>
<feGaussianBlur stdDeviation="0.828715"/>
<feComposite in2="hardAlpha" operator="out"/>
<feColorMatrix type="matrix" values="0 0 0 0 0.671272 0 0 0 0 0.914945 0 0 0 0 0.991895 0 0 0 0.85 0"/>
<feBlend mode="normal" in2="BackgroundImageFix" result="effect1_dropShadow_9232_18574"/>
<feBlend mode="normal" in="SourceGraphic" in2="effect1_dropShadow_9232_18574" result="shape"/>
</filter>
<filter id="filter7_bii_9232_18574" x="38.5457" y="24.98" width="145.276" height="87.1452" filterUnits="userSpaceOnUse" color-interpolation-filters="sRGB">
<feFlood flood-opacity="0" result="BackgroundImageFix"/>
<feGaussianBlur in="BackgroundImageFix" stdDeviation="9.73106"/>
<feComposite in2="SourceAlpha" operator="in" result="effect1_backgroundBlur_9232_18574"/>
<feBlend mode="normal" in="SourceGraphic" in2="effect1_backgroundBlur_9232_18574" result="shape"/>
<feColorMatrix in="SourceAlpha" type="matrix" values="0 0 0 0 0 0 0 0 0 0 0 0 0 0 0 0 0 0 127 0" result="hardAlpha"/>
<feOffset dx="-5.26003" dy="5.26003"/>
<feGaussianBlur stdDeviation="2.63002"/>
<feComposite in2="hardAlpha" operator="arithmetic" k2="-1" k3="1"/>
<feColorMatrix type="matrix" values="0 0 0 0 1 0 0 0 0 1 0 0 0 0 1 0 0 0 0.155 0"/>
<feBlend mode="normal" in2="shape" result="effect2_innerShadow_9232_18574"/>
<feColorMatrix in="SourceAlpha" type="matrix" values="0 0 0 0 0 0 0 0 0 0 0 0 0 0 0 0 0 0 127 0" result="hardAlpha"/>
<feOffset dx="5.26003" dy="-5.26003"/>
<feGaussianBlur stdDeviation="2.63002"/>
<feComposite in2="hardAlpha" operator="arithmetic" k2="-1" k3="1"/>
<feColorMatrix type="matrix" values="0 0 0 0 0.76 0 0 0 0 0.76 0 0 0 0 0.76 0 0 0 0.155 0"/>
<feBlend mode="normal" in2="effect2_innerShadow_9232_18574" result="effect3_innerShadow_9232_18574"/>
</filter>
<linearGradient id="paint0_linear_9232_18574" x1="39.9842" y1="0" x2="39.9842" y2="56.1324" gradientUnits="userSpaceOnUse">
<stop stop-color="#6218FF" stop-opacity="0"/>
<stop offset="1" stop-color="#6117FF"/>
</linearGradient>
<linearGradient id="paint1_linear_9232_18574" x1="58.4091" y1="125.149" x2="55.7855" y2="110.063" gradientUnits="userSpaceOnUse">
<stop stop-color="#3B14AB"/>
<stop offset="1" stop-color="#B46AF9"/>
</linearGradient>
<linearGradient id="paint2_linear_9232_18574" x1="82.6312" y1="55.4347" x2="117.102" y2="114.783" gradientUnits="userSpaceOnUse">
<stop offset="0.015625" stop-color="#B010FB"/>
<stop offset="0.130208" stop-color="#DE97FF"/>
<stop offset="0.234375" stop-color="#A227DB"/>
<stop offset="0.505208" stop-color="#A227DB" stop-opacity="0"/>
<stop offset="0.765625" stop-color="#A610EC" stop-opacity="0.84"/>
</linearGradient>
<linearGradient id="paint3_linear_9232_18574" x1="143.279" y1="164.9" x2="140.656" y2="149.814" gradientUnits="userSpaceOnUse">
<stop stop-color="#3B14AB"/>
<stop offset="1" stop-color="#B46AF9"/>
</linearGradient>
<clipPath id="clip0_9232_18574">
<rect width="224" height="192" fill="white"/>
</clipPath>
<clipPath id="clip1_9232_18574">
<rect width="19.3211" height="19.3211" fill="white" transform="matrix(0.866025 -0.5 0.866025 0.5 172.852 100.479)"/>
</clipPath>
<clipPath id="clip2_9232_18574">
<rect width="19.3211" height="19.3211" fill="white" transform="matrix(0.866025 -0.5 0.866025 0.5 172.852 100.479)"/>
</clipPath>
</defs>
</svg>
