<svg width="314" height="231" viewBox="0 0 314 231" fill="none" xmlns="http://www.w3.org/2000/svg">
<g filter="url(#filter0_f_7347_54248)">
<rect width="74.1499" height="93.1667" transform="matrix(-1 0 0 1 141.116 67.5098)" fill="url(#paint0_linear_7347_54248)"/>
</g>
<path d="M143.056 141.709L105.828 162.874" stroke="url(#paint1_linear_7347_54248)" stroke-width="0.887811" stroke-linejoin="round"/>
<path d="M227.292 159.229L197.761 140.691" stroke="url(#paint2_linear_7347_54248)" stroke-width="0.887811" stroke-linecap="round" stroke-linejoin="round"/>
<path d="M172.036 153.213L215.174 128.024L171.675 103.359L128.075 128.468L172.036 153.213Z" stroke="#CD88FF" stroke-width="0.443906" stroke-linecap="round" stroke-linejoin="round" stroke-dasharray="1.62 1.62"/>
<g filter="url(#filter1_d_7347_54248)">
<path d="M148.806 129.814C142.95 126.433 139.66 121.848 139.66 117.066C139.66 112.285 142.95 107.7 148.806 104.319L170.887 91.572L192.968 104.319C198.824 107.7 202.114 112.285 202.114 117.066C202.114 121.848 198.824 126.433 192.968 129.814C187.112 133.194 179.169 135.094 170.887 135.094C162.605 135.094 154.663 133.194 148.806 129.814V129.814Z" fill="#0ACF83"/>
</g>
<path d="M171.187 119.5L127.462 94.8105L171.187 69.0919L214.395 94.8105L171.187 119.5Z" fill="#6400CA" stroke="url(#paint3_linear_7347_54248)" stroke-width="0.568349"/>
<path d="M170.973 119.706L170.973 146.954L127.175 121.136L127.175 94.6562L170.973 119.706Z" fill="#4A0292"/>
<path d="M170.887 119.35L170.887 146.645L215.048 121.16L215.048 94.709L170.887 119.35Z" fill="#3C0077"/>
<path d="M166.952 92.9709C166.952 92.3532 167.82 91.8525 168.889 91.8525L173.287 91.8525C174.357 91.8525 175.224 92.3532 175.224 92.9709V95.5098C175.224 96.1275 174.357 96.6282 173.287 96.6282L168.889 96.6282C167.82 96.6282 166.952 96.1275 166.952 95.5098V92.9709Z" fill="#A950FF"/>
<path d="M177.062 87.1136C177.062 86.507 177.914 86.0153 178.965 86.0153L183.432 86.0153C184.482 86.0153 185.334 86.507 185.334 87.1136V89.6926C185.334 90.2993 184.482 90.791 183.432 90.791L178.965 90.791C177.914 90.791 177.062 90.2993 177.062 89.6926V87.1136Z" fill="#A950FF"/>
<path d="M156.842 87.1138C156.842 86.5072 157.694 86.0154 158.745 86.0154L163.212 86.0154C164.262 86.0154 165.114 86.5072 165.114 87.1138L165.114 89.6928C165.114 90.2994 164.262 90.7912 163.212 90.7912L158.745 90.7912C157.694 90.7912 156.842 90.2994 156.842 89.6928L156.842 87.1138Z" fill="#E9C1FF"/>
<path d="M163.178 91.8522C164.247 91.8522 165.115 92.3529 165.115 92.9706V95.5096C165.115 96.1273 164.247 96.628 163.178 96.628L158.78 96.628C157.71 96.628 156.843 96.1273 156.843 95.5096L156.843 92.9706C156.843 92.3529 157.71 91.8522 158.78 91.8522L163.178 91.8522Z" fill="#CD88FF"/>
<path d="M163.212 97.6893C164.262 97.6893 165.114 98.181 165.114 98.7876L165.114 101.367C165.114 101.973 164.262 102.465 163.212 102.465L158.745 102.465C157.694 102.465 156.842 101.973 156.842 101.367L156.842 98.7876C156.842 98.181 157.694 97.6893 158.745 97.6893L163.212 97.6893Z" fill="#A950FF"/>
<path d="M173.287 86.0154C174.357 86.0154 175.224 86.5161 175.224 87.1338L175.224 89.6728C175.224 90.2904 174.357 90.7911 173.287 90.7911L168.89 90.7911C167.82 90.7911 166.953 90.2904 166.953 89.6728L166.953 87.1338C166.953 86.5161 167.82 86.0154 168.89 86.0154L173.287 86.0154Z" fill="#CD88FF"/>
<path d="M181.67 97.8507C184.06 97.8507 185.997 98.9694 185.997 100.349C185.997 101.729 184.06 102.848 181.67 102.848C179.279 102.848 177.342 101.729 177.342 100.349C177.342 98.9694 179.279 97.8507 181.67 97.8507Z" fill="#F62E76"/>
<g filter="url(#filter2_f_7347_54248)">
<circle cx="138.24" cy="94.2818" r="21.0982" fill="white" fill-opacity="0.05" style="mix-blend-mode:lighten"/>
</g>
<g filter="url(#filter3_f_7347_54248)">
<circle cx="210.416" cy="98.7291" r="21.0982" fill="white" fill-opacity="0.05" style="mix-blend-mode:lighten"/>
</g>
<path d="M109.42 173.008C109.42 176.092 107.231 179.005 103.426 181.183C99.6392 183.351 94.3656 184.712 88.5065 184.712C82.6474 184.712 77.3738 183.351 73.5868 181.183C69.7822 179.005 67.5934 176.092 67.5934 173.008C67.5934 169.925 69.7822 167.012 73.5868 164.834C77.3738 162.666 82.6474 161.305 88.5065 161.305C94.3656 161.305 99.6392 162.666 103.426 164.834C107.231 167.012 109.42 169.925 109.42 173.008Z" stroke="#5F2FCB" stroke-width="1.25459"/>
<path fill-rule="evenodd" clip-rule="evenodd" d="M88.5065 176.2C100.403 176.2 110.047 170.68 110.047 163.87C110.047 163.87 110.047 163.87 110.047 163.87L110.047 153.974L101.361 153.974C97.773 152.445 93.3245 151.539 88.5065 151.539C83.6885 151.539 79.24 152.445 75.6519 153.974L66.9661 153.974L66.9661 163.87M88.5065 176.2C76.6101 176.2 66.9662 170.68 66.9661 163.87L88.5065 176.2Z" fill="#5506D7"/>
<ellipse cx="88.5065" cy="153.214" rx="21.5405" ry="12.3307" fill="#3B009B"/>
<path fill-rule="evenodd" clip-rule="evenodd" d="M88.5065 162.23C100.403 162.23 110.047 156.709 110.047 149.899C110.047 149.899 110.047 149.899 110.047 149.899L110.047 140.004L101.361 140.004C97.773 138.474 93.3245 137.568 88.5065 137.568C83.6885 137.568 79.24 138.474 75.6519 140.004L66.9661 140.004L66.9661 149.899M88.5065 162.23C76.6101 162.23 66.9662 156.709 66.9661 149.899L88.5065 162.23Z" fill="#5506D7"/>
<ellipse cx="88.5065" cy="139.243" rx="21.5405" ry="12.3307" fill="#3B009B"/>
<path fill-rule="evenodd" clip-rule="evenodd" d="M88.5065 148.302C100.403 148.302 110.047 142.781 110.047 135.971C110.047 135.968 110.047 135.964 110.047 135.961L110.047 126.076L101.361 126.076C97.7727 124.546 93.3243 123.641 88.5065 123.641C83.6887 123.641 79.2404 124.546 75.6524 126.076L66.9661 126.076L66.9661 135.971C66.9661 135.971 66.9661 135.971 66.9661 135.971C66.9661 142.781 76.6101 148.302 88.5065 148.302Z" fill="#660BFA"/>
<ellipse cx="88.5065" cy="125.315" rx="21.5405" ry="12.3307" fill="#8C49FA"/>
<g style="mix-blend-mode:multiply" filter="url(#filter4_f_7347_54248)">
<circle cx="84.7762" cy="163.868" r="21.0982" fill="#9C84FF" style="mix-blend-mode:lighten"/>
</g>
<path d="M275.656 174.977C275.656 178.061 273.467 180.974 269.662 183.152C265.875 185.32 260.601 186.681 254.742 186.681C248.883 186.681 243.61 185.32 239.823 183.152C236.018 180.974 233.829 178.061 233.829 174.977C233.829 171.894 236.018 168.98 239.823 166.802C243.61 164.635 248.883 163.274 254.742 163.274C260.601 163.274 265.875 164.635 269.662 166.802C273.467 168.98 275.656 171.894 275.656 174.977Z" stroke="#5F2FCB" stroke-width="1.25459"/>
<path fill-rule="evenodd" clip-rule="evenodd" d="M254.742 178.169C266.639 178.169 276.283 172.649 276.283 165.839L276.283 155.943L267.597 155.943C264.009 154.413 259.56 153.508 254.742 153.508C249.924 153.508 245.476 154.413 241.888 155.943L233.202 155.943L233.202 165.829C233.202 165.832 233.202 165.835 233.202 165.839C233.202 172.649 242.846 178.169 254.742 178.169Z" fill="#5506D7"/>
<ellipse cx="254.742" cy="155.182" rx="21.5405" ry="12.3307" fill="#3B009B"/>
<path fill-rule="evenodd" clip-rule="evenodd" d="M254.742 164.199C266.639 164.199 276.283 158.678 276.283 151.868L276.283 141.972L267.597 141.972C264.009 140.443 259.56 139.537 254.742 139.537C249.925 139.537 245.476 140.443 241.888 141.972L233.202 141.972L233.202 151.858C233.202 151.861 233.202 151.865 233.202 151.868C233.202 158.678 242.846 164.199 254.742 164.199Z" fill="#5506D7"/>
<ellipse cx="254.742" cy="141.212" rx="21.5405" ry="12.3307" fill="#3B009B"/>
<path d="M233.202 146.539L233.26 148.335C233.295 149.435 234.062 150.316 235.017 150.356L236.624 150.424L235.017 150.491C234.062 150.531 233.295 151.413 233.26 152.512L233.202 154.308L233.144 152.512C233.109 151.413 232.342 150.531 231.387 150.491L229.779 150.424L231.387 150.356C232.342 150.316 233.109 149.435 233.144 148.335L233.202 146.539Z" fill="white"/>
<path fill-rule="evenodd" clip-rule="evenodd" d="M254.742 150.273C266.639 150.273 276.283 144.752 276.283 137.942C276.283 137.942 276.283 137.942 276.283 137.942L276.283 128.047L267.597 128.047C264.009 126.517 259.56 125.611 254.742 125.611C249.924 125.611 245.476 126.517 241.888 128.047L233.202 128.047L233.202 137.942M254.742 150.273C242.846 150.273 233.202 144.752 233.202 137.942L254.742 150.273Z" fill="#660BFA"/>
<ellipse cx="254.742" cy="127.286" rx="21.5405" ry="12.3307" fill="#8C49FA"/>
<g style="mix-blend-mode:soft-light" clip-path="url(#clip0_7347_54248)">
<path d="M251.008 125.204L254.742 127.361L259.799 126.614L259.418 125.73L255.228 126.347L252.128 124.558L251.008 125.204ZM259.971 121.755L254.742 118.736V121.013C252.315 121.009 249.88 121.543 248.02 122.617C244.308 124.76 244.308 128.236 248.02 130.379C251.732 132.522 257.752 132.522 261.464 130.379C265.176 128.236 265.176 124.76 261.464 122.617L259.971 123.479C262.854 125.144 262.854 127.852 259.971 129.517C257.087 131.181 252.397 131.181 249.514 129.517C246.631 127.852 246.631 125.144 249.514 123.479C250.955 122.647 252.852 122.233 254.742 122.229L254.742 124.773L259.971 121.755Z" fill="white"/>
</g>
<g style="mix-blend-mode:soft-light" clip-path="url(#clip1_7347_54248)">
<path d="M251.008 125.204L254.742 127.361L259.799 126.614L259.418 125.73L255.228 126.347L252.128 124.558L251.008 125.204ZM259.971 121.755L254.742 118.736V121.013C252.315 121.009 249.88 121.543 248.02 122.617C244.308 124.76 244.308 128.236 248.02 130.379C251.732 132.522 257.752 132.522 261.464 130.379C265.176 128.236 265.176 124.76 261.464 122.617L259.971 123.479C262.854 125.144 262.854 127.852 259.971 129.517C257.087 131.181 252.397 131.181 249.514 129.517C246.631 127.852 246.631 125.144 249.514 123.479C250.955 122.647 252.852 122.233 254.742 122.229L254.742 124.773L259.971 121.755Z" fill="white"/>
</g>
<path d="M271.112 131.504L271.17 133.3C271.205 134.399 271.972 135.281 272.927 135.321L274.535 135.389L272.927 135.456C271.972 135.496 271.205 136.378 271.17 137.477L271.112 139.273L271.054 137.477C271.019 136.378 270.252 135.496 269.297 135.456L267.689 135.389L269.297 135.321C270.252 135.281 271.019 134.399 271.054 133.3L271.112 131.504Z" fill="white"/>
<g style="mix-blend-mode:multiply" filter="url(#filter5_f_7347_54248)">
<circle cx="251.012" cy="165.838" r="21.0982" fill="#9C84FF" style="mix-blend-mode:lighten"/>
</g>
<g opacity="0.4" filter="url(#filter6_b_7347_54248)">
<path fill-rule="evenodd" clip-rule="evenodd" d="M145.53 94.8876L151.845 98.5332L132.819 109.518L113.876 98.5811L120.218 94.9196L126.564 98.5834C124.663 90.822 128.902 82.6144 139.271 76.6277C154.619 67.7667 178.259 66.659 195.605 73.2683L189.072 77.0398C175.389 72.3988 157.382 73.4628 145.586 80.2733C136.231 85.6741 133.133 93.3322 136.303 100.215L145.53 94.8876ZM196.156 94.8241L189.841 91.1785L208.867 80.1938L227.81 91.1305L221.468 94.7921L215.123 91.1283C217.023 98.8897 212.784 107.097 202.415 113.084C187.067 121.945 163.427 123.053 146.081 116.443L152.614 112.672C166.297 117.313 184.304 116.249 196.1 109.438C205.455 104.038 208.553 96.3794 205.383 89.4965L196.156 94.8241Z" fill="#AAE0B9"/>
<g style="mix-blend-mode:overlay" filter="url(#filter7_bii_7347_54248)">
<path fill-rule="evenodd" clip-rule="evenodd" d="M145.618 94.8388L151.933 98.4843L132.907 109.469L113.964 98.5323L120.306 94.8707L126.652 98.5345C124.751 90.7731 128.99 82.5655 139.36 76.5789C154.707 67.7179 178.347 66.6102 195.693 73.2195L189.16 76.9909C175.478 72.3499 157.47 73.4139 145.674 80.2245C136.319 85.6253 133.221 93.2834 136.391 100.166L145.618 94.8388ZM196.244 94.7752L189.93 91.1296L208.956 80.1449L227.899 91.0817L221.557 94.7433L215.211 91.0794C217.111 98.8408 212.872 107.048 202.503 113.035C187.155 121.896 163.515 123.004 146.17 116.394L152.702 112.623C166.385 117.264 184.392 116.2 196.188 109.39C205.543 103.989 208.641 96.3306 205.471 89.4476L196.244 94.7752Z" fill="white" fill-opacity="0.155"/>
</g>
</g>
<g filter="url(#filter8_d_7347_54248)">
<path fill-rule="evenodd" clip-rule="evenodd" d="M145.348 92.3778L151.662 96.0234L132.636 107.008L113.693 96.0714L120.035 92.4098L126.381 96.0736C124.48 88.3122 128.72 80.1046 139.089 74.1179C154.436 65.2569 178.076 64.1493 195.422 70.7586L188.89 74.53C175.207 69.889 157.199 70.953 145.403 77.7635C136.049 83.1643 132.95 90.8224 136.12 97.7054L145.348 92.3778ZM195.973 92.3142L189.659 88.6686L208.685 77.6839L227.628 88.6207L221.286 92.2822L214.94 88.6184C216.841 96.3798 212.601 104.587 202.232 110.574C186.884 119.435 163.244 120.543 145.899 113.933L152.431 110.162C166.114 114.803 184.121 113.739 195.918 106.929C205.272 101.528 208.37 93.8696 205.201 86.9866L195.973 92.3142Z" fill="#AAE0B9"/>
<g style="mix-blend-mode:overlay" filter="url(#filter9_bii_7347_54248)">
<path fill-rule="evenodd" clip-rule="evenodd" d="M145.436 92.327L151.75 95.9726L132.724 106.957L113.781 96.0206L120.123 92.359L126.469 96.0228C124.568 88.2614 128.808 80.0538 139.177 74.0672C154.525 65.2062 178.164 64.0985 195.51 70.7078L188.978 74.4792C175.295 69.8382 157.287 70.9022 145.491 77.7127C136.137 83.1136 133.039 90.7717 136.208 97.6546L145.436 92.327ZM196.061 92.2635L189.747 88.6179L208.773 77.6332L227.716 88.57L221.374 92.2315L215.028 88.5677C216.929 96.3291 212.689 104.537 202.32 110.523C186.972 119.384 163.333 120.492 145.987 113.883L152.519 110.111C166.202 114.752 184.21 113.688 196.006 106.878C205.36 101.477 208.459 93.8189 205.289 86.9359L196.061 92.2635Z" fill="white" fill-opacity="0.155"/>
</g>
</g>
<path d="M146.306 139.778L144.552 143.559L139.758 140.791L146.306 139.778Z" fill="#5F2FB6"/>
<path d="M230.059 160.631L223.511 159.618L228.305 156.85L230.059 160.631Z" fill="#A55FF9"/>
<defs>
<filter id="filter0_f_7347_54248" x="0.380211" y="0.923912" width="207.322" height="226.338" filterUnits="userSpaceOnUse" color-interpolation-filters="sRGB">
<feFlood flood-opacity="0" result="BackgroundImageFix"/>
<feBlend mode="normal" in="SourceGraphic" in2="BackgroundImageFix" result="shape"/>
<feGaussianBlur stdDeviation="33.2929" result="effect1_foregroundBlur_7347_54248"/>
</filter>
<filter id="filter1_d_7347_54248" x="96.8633" y="52.3348" width="148.048" height="129.115" filterUnits="userSpaceOnUse" color-interpolation-filters="sRGB">
<feFlood flood-opacity="0" result="BackgroundImageFix"/>
<feColorMatrix in="SourceAlpha" type="matrix" values="0 0 0 0 0 0 0 0 0 0 0 0 0 0 0 0 0 0 127 0" result="hardAlpha"/>
<feOffset dy="3.55948"/>
<feGaussianBlur stdDeviation="21.3985"/>
<feComposite in2="hardAlpha" operator="out"/>
<feColorMatrix type="matrix" values="0 0 0 0 0.396 0 0 0 0 0 0 0 0 0 0.9 0 0 0 1 0"/>
<feBlend mode="normal" in2="BackgroundImageFix" result="effect1_dropShadow_7347_54248"/>
<feBlend mode="normal" in="SourceGraphic" in2="effect1_dropShadow_7347_54248" result="shape"/>
</filter>
<filter id="filter2_f_7347_54248" x="75.4143" y="31.4565" width="125.651" height="125.652" filterUnits="userSpaceOnUse" color-interpolation-filters="sRGB">
<feFlood flood-opacity="0" result="BackgroundImageFix"/>
<feBlend mode="normal" in="SourceGraphic" in2="BackgroundImageFix" result="shape"/>
<feGaussianBlur stdDeviation="20.8636" result="effect1_foregroundBlur_7347_54248"/>
</filter>
<filter id="filter3_f_7347_54248" x="147.591" y="35.9037" width="125.651" height="125.652" filterUnits="userSpaceOnUse" color-interpolation-filters="sRGB">
<feFlood flood-opacity="0" result="BackgroundImageFix"/>
<feBlend mode="normal" in="SourceGraphic" in2="BackgroundImageFix" result="shape"/>
<feGaussianBlur stdDeviation="20.8636" result="effect1_foregroundBlur_7347_54248"/>
</filter>
<filter id="filter4_f_7347_54248" x="21.9508" y="101.042" width="125.651" height="125.652" filterUnits="userSpaceOnUse" color-interpolation-filters="sRGB">
<feFlood flood-opacity="0" result="BackgroundImageFix"/>
<feBlend mode="normal" in="SourceGraphic" in2="BackgroundImageFix" result="shape"/>
<feGaussianBlur stdDeviation="20.8636" result="effect1_foregroundBlur_7347_54248"/>
</filter>
<filter id="filter5_f_7347_54248" x="188.187" y="103.013" width="125.651" height="125.652" filterUnits="userSpaceOnUse" color-interpolation-filters="sRGB">
<feFlood flood-opacity="0" result="BackgroundImageFix"/>
<feBlend mode="normal" in="SourceGraphic" in2="BackgroundImageFix" result="shape"/>
<feGaussianBlur stdDeviation="20.8636" result="effect1_foregroundBlur_7347_54248"/>
</filter>
<filter id="filter6_b_7347_54248" x="83.1463" y="33.8567" width="175.481" height="121.951" filterUnits="userSpaceOnUse" color-interpolation-filters="sRGB">
<feFlood flood-opacity="0" result="BackgroundImageFix"/>
<feGaussianBlur in="BackgroundImageFix" stdDeviation="12.2074"/>
<feComposite in2="SourceAlpha" operator="in" result="effect1_backgroundBlur_7347_54248"/>
<feBlend mode="normal" in="SourceGraphic" in2="effect1_backgroundBlur_7347_54248" result="shape"/>
</filter>
<filter id="filter7_bii_7347_54248" x="93.1137" y="48.1266" width="155.635" height="93.3602" filterUnits="userSpaceOnUse" color-interpolation-filters="sRGB">
<feFlood flood-opacity="0" result="BackgroundImageFix"/>
<feGaussianBlur in="BackgroundImageFix" stdDeviation="10.425"/>
<feComposite in2="SourceAlpha" operator="in" result="effect1_backgroundBlur_7347_54248"/>
<feBlend mode="normal" in="SourceGraphic" in2="effect1_backgroundBlur_7347_54248" result="shape"/>
<feColorMatrix in="SourceAlpha" type="matrix" values="0 0 0 0 0 0 0 0 0 0 0 0 0 0 0 0 0 0 127 0" result="hardAlpha"/>
<feOffset dx="-5.63513" dy="5.63513"/>
<feGaussianBlur stdDeviation="2.81757"/>
<feComposite in2="hardAlpha" operator="arithmetic" k2="-1" k3="1"/>
<feColorMatrix type="matrix" values="0 0 0 0 1 0 0 0 0 1 0 0 0 0 1 0 0 0 0.155 0"/>
<feBlend mode="normal" in2="shape" result="effect2_innerShadow_7347_54248"/>
<feColorMatrix in="SourceAlpha" type="matrix" values="0 0 0 0 0 0 0 0 0 0 0 0 0 0 0 0 0 0 127 0" result="hardAlpha"/>
<feOffset dx="5.63513" dy="-5.63513"/>
<feGaussianBlur stdDeviation="2.81757"/>
<feComposite in2="hardAlpha" operator="arithmetic" k2="-1" k3="1"/>
<feColorMatrix type="matrix" values="0 0 0 0 0.76 0 0 0 0 0.76 0 0 0 0 0.76 0 0 0 0.155 0"/>
<feBlend mode="normal" in2="effect2_innerShadow_7347_54248" result="effect3_innerShadow_7347_54248"/>
</filter>
<filter id="filter8_d_7347_54248" x="105.603" y="55.7598" width="130.203" height="76.6723" filterUnits="userSpaceOnUse" color-interpolation-filters="sRGB">
<feFlood flood-opacity="0" result="BackgroundImageFix"/>
<feColorMatrix in="SourceAlpha" type="matrix" values="0 0 0 0 0 0 0 0 0 0 0 0 0 0 0 0 0 0 127 0" result="hardAlpha"/>
<feOffset dy="1.77562"/>
<feGaussianBlur stdDeviation="0.887811"/>
<feComposite in2="hardAlpha" operator="out"/>
<feColorMatrix type="matrix" values="0 0 0 0 0.671272 0 0 0 0 0.914945 0 0 0 0 0.991895 0 0 0 0.85 0"/>
<feBlend mode="normal" in2="BackgroundImageFix" result="effect1_dropShadow_7347_54248"/>
<feBlend mode="normal" in="SourceGraphic" in2="effect1_dropShadow_7347_54248" result="shape"/>
</filter>
<filter id="filter9_bii_7347_54248" x="92.9311" y="45.6148" width="155.635" height="93.3602" filterUnits="userSpaceOnUse" color-interpolation-filters="sRGB">
<feFlood flood-opacity="0" result="BackgroundImageFix"/>
<feGaussianBlur in="BackgroundImageFix" stdDeviation="10.425"/>
<feComposite in2="SourceAlpha" operator="in" result="effect1_backgroundBlur_7347_54248"/>
<feBlend mode="normal" in="SourceGraphic" in2="effect1_backgroundBlur_7347_54248" result="shape"/>
<feColorMatrix in="SourceAlpha" type="matrix" values="0 0 0 0 0 0 0 0 0 0 0 0 0 0 0 0 0 0 127 0" result="hardAlpha"/>
<feOffset dx="-5.63513" dy="5.63513"/>
<feGaussianBlur stdDeviation="2.81757"/>
<feComposite in2="hardAlpha" operator="arithmetic" k2="-1" k3="1"/>
<feColorMatrix type="matrix" values="0 0 0 0 1 0 0 0 0 1 0 0 0 0 1 0 0 0 0.155 0"/>
<feBlend mode="normal" in2="shape" result="effect2_innerShadow_7347_54248"/>
<feColorMatrix in="SourceAlpha" type="matrix" values="0 0 0 0 0 0 0 0 0 0 0 0 0 0 0 0 0 0 127 0" result="hardAlpha"/>
<feOffset dx="5.63513" dy="-5.63513"/>
<feGaussianBlur stdDeviation="2.81757"/>
<feComposite in2="hardAlpha" operator="arithmetic" k2="-1" k3="1"/>
<feColorMatrix type="matrix" values="0 0 0 0 0.76 0 0 0 0 0.76 0 0 0 0 0.76 0 0 0 0.155 0"/>
<feBlend mode="normal" in2="effect2_innerShadow_7347_54248" result="effect3_innerShadow_7347_54248"/>
</filter>
<linearGradient id="paint0_linear_7347_54248" x1="37.0749" y1="0" x2="37.0749" y2="93.1667" gradientUnits="userSpaceOnUse">
<stop stop-color="#6218FF" stop-opacity="0"/>
<stop offset="1" stop-color="#6117FF"/>
</linearGradient>
<linearGradient id="paint1_linear_7347_54248" x1="114.21" y1="152.927" x2="111.399" y2="136.765" gradientUnits="userSpaceOnUse">
<stop stop-color="#3B14AB"/>
<stop offset="1" stop-color="#B46AF9"/>
</linearGradient>
<linearGradient id="paint2_linear_7347_54248" x1="205.137" y1="195.513" x2="202.326" y2="179.351" gradientUnits="userSpaceOnUse">
<stop stop-color="#3B14AB"/>
<stop offset="1" stop-color="#B46AF9"/>
</linearGradient>
<linearGradient id="paint3_linear_7347_54248" x1="140.162" y1="78.2417" x2="177.091" y2="141.822" gradientUnits="userSpaceOnUse">
<stop offset="0.015625" stop-color="#B010FB"/>
<stop offset="0.130208" stop-color="#DE97FF"/>
<stop offset="0.234375" stop-color="#A227DB"/>
<stop offset="0.505208" stop-color="#A227DB" stop-opacity="0"/>
<stop offset="0.765625" stop-color="#A610EC" stop-opacity="0.84"/>
</linearGradient>
<clipPath id="clip0_7347_54248">
<rect width="20.6989" height="20.6989" fill="white" transform="matrix(0.866025 -0.5 0.866025 0.5 236.816 126.498)"/>
</clipPath>
<clipPath id="clip1_7347_54248">
<rect width="20.6989" height="20.6989" fill="white" transform="matrix(0.866025 -0.5 0.866025 0.5 236.816 126.498)"/>
</clipPath>
</defs>
</svg>
