<svg width="707" height="517" viewBox="0 0 707 517" fill="none" xmlns="http://www.w3.org/2000/svg">
<g filter="url(#filter0_f_6498_37370)">
<rect width="167.04" height="209.88" transform="matrix(-1 0 0 1 317.04 150.274)" fill="url(#paint0_linear_6498_37370)"/>
</g>
<path d="M321.411 317.426L237.547 365.105" stroke="url(#paint1_linear_6498_37370)" stroke-width="2" stroke-linejoin="round"/>
<path d="M511.17 356.893L444.646 315.133" stroke="url(#paint2_linear_6498_37370)" stroke-width="2" stroke-linecap="round" stroke-linejoin="round"/>
<path d="M386.693 343.341L483.872 286.597L385.881 231.033L287.663 287.597L386.693 343.341Z" stroke="#CD88FF" stroke-linecap="round" stroke-linejoin="round" stroke-dasharray="3.66 3.66"/>
<g filter="url(#filter1_d_6498_37370)">
<path d="M334.364 290.628C321.172 283.012 313.761 272.683 313.761 261.912C313.761 251.142 321.172 240.812 334.364 233.196L384.106 204.48L433.848 233.196C447.041 240.812 454.452 251.142 454.452 261.912C454.452 272.683 447.041 283.012 433.848 290.628C420.656 298.244 402.763 302.523 384.106 302.523C365.449 302.523 347.557 298.244 334.364 290.628V290.628Z" fill="#0ACF83"/>
</g>
<path d="M384.782 267.395L286.282 211.775L384.782 153.838L482.117 211.775L384.782 267.395Z" fill="#6400CA" stroke="url(#paint3_linear_6498_37370)" stroke-width="1.28034"/>
<path d="M384.3 267.855L384.3 329.239L285.635 271.078L285.635 211.426L384.3 267.855Z" fill="#4A0292"/>
<path d="M384.106 267.056L384.106 328.543L483.59 271.133L483.59 211.546L384.106 267.056Z" fill="#3C0077"/>
<path d="M375.242 207.63C375.242 206.238 377.196 205.11 379.606 205.11L389.513 205.11C391.923 205.11 393.876 206.238 393.876 207.63V213.349C393.876 214.741 391.923 215.869 389.513 215.869L379.606 215.869C377.196 215.869 375.242 214.741 375.242 213.349L375.242 207.63Z" fill="#A950FF"/>
<path d="M398.017 194.435C398.017 193.068 399.936 191.961 402.303 191.961L412.366 191.961C414.733 191.961 416.651 193.068 416.651 194.435V200.245C416.651 201.611 414.733 202.719 412.366 202.719L402.303 202.719C399.936 202.719 398.017 201.611 398.017 200.245L398.017 194.435Z" fill="#A950FF"/>
<path d="M352.467 194.435C352.467 193.069 354.386 191.961 356.753 191.961L366.816 191.961C369.182 191.961 371.101 193.069 371.101 194.435V200.245C371.101 201.612 369.182 202.72 366.816 202.72L356.753 202.72C354.386 202.72 352.467 201.612 352.467 200.245L352.467 194.435Z" fill="#E9C1FF"/>
<path d="M366.739 205.11C369.149 205.11 371.102 206.238 371.102 207.629V213.349C371.102 214.74 369.149 215.868 366.739 215.868L356.832 215.868C354.422 215.868 352.468 214.74 352.468 213.349V207.629C352.468 206.238 354.422 205.11 356.832 205.11L366.739 205.11Z" fill="#CD88FF"/>
<path d="M366.815 218.259C369.182 218.259 371.101 219.367 371.101 220.733V226.543C371.101 227.91 369.182 229.018 366.815 229.018L356.753 229.018C354.386 229.018 352.467 227.91 352.467 226.543L352.467 220.733C352.467 219.367 354.386 218.259 356.753 218.259L366.815 218.259Z" fill="#A950FF"/>
<path d="M389.513 191.961C391.923 191.961 393.877 193.089 393.877 194.48L393.877 200.2C393.877 201.591 391.923 202.719 389.513 202.719L379.606 202.719C377.196 202.719 375.243 201.591 375.243 200.2L375.243 194.48C375.243 193.089 377.196 191.961 379.606 191.961L389.513 191.961Z" fill="#CD88FF"/>
<path d="M408.396 218.623C413.78 218.623 418.145 221.143 418.145 224.251C418.145 227.36 413.78 229.88 408.396 229.88C403.012 229.88 398.647 227.36 398.647 224.251C398.647 221.143 403.012 218.623 408.396 218.623Z" fill="#F62E76"/>
<g filter="url(#filter2_f_6498_37370)">
<circle cx="310.56" cy="210.583" r="47.5286" fill="white" fill-opacity="0.05" style="mix-blend-mode:lighten"/>
</g>
<g filter="url(#filter3_f_6498_37370)">
<circle cx="473.154" cy="220.602" r="47.5286" fill="white" fill-opacity="0.05" style="mix-blend-mode:lighten"/>
</g>
<path d="M245.637 387.932C245.637 394.878 240.706 401.441 232.135 406.348C223.604 411.231 211.724 414.297 198.525 414.297C185.326 414.297 173.446 411.231 164.915 406.348C156.344 401.441 151.413 394.878 151.413 387.932C151.413 380.986 156.344 374.423 164.915 369.517C173.446 364.633 185.326 361.567 198.525 361.567C211.724 361.567 223.604 364.633 232.135 369.517C240.706 374.423 245.637 380.986 245.637 387.932Z" stroke="#5F2FCB" stroke-width="2.82626"/>
<path fill-rule="evenodd" clip-rule="evenodd" d="M198.525 395.122C225.324 395.122 247.05 382.685 247.05 367.344L247.05 345.052L227.482 345.052C219.399 341.606 209.378 339.566 198.525 339.566C187.672 339.566 177.651 341.606 169.568 345.052L150 345.052L150 367.344C150 382.685 171.725 395.122 198.525 395.122Z" fill="#5506D7"/>
<ellipse cx="198.525" cy="343.34" rx="48.5249" ry="27.7778" fill="#3B009B"/>
<path fill-rule="evenodd" clip-rule="evenodd" d="M198.525 363.65C225.324 363.65 247.05 351.214 247.05 335.873L247.05 313.581L227.482 313.581C219.399 310.134 209.378 308.095 198.525 308.095C187.672 308.095 177.651 310.134 169.568 313.581L150 313.581L150 335.873C150 351.214 171.725 363.65 198.525 363.65Z" fill="#5506D7"/>
<ellipse cx="198.525" cy="311.869" rx="48.5249" ry="27.7778" fill="#3B009B"/>
<path fill-rule="evenodd" clip-rule="evenodd" d="M198.525 332.276C225.324 332.276 247.05 319.84 247.05 304.498L247.05 282.207L227.482 282.207C219.399 278.76 209.378 276.721 198.525 276.721C187.672 276.721 177.651 278.76 169.568 282.207L150 282.207L150 304.498C150 319.84 171.725 332.276 198.525 332.276Z" fill="#660BFA"/>
<ellipse cx="198.525" cy="280.495" rx="48.5249" ry="27.7778" fill="#8C49FA"/>
<g style="mix-blend-mode:multiply" filter="url(#filter4_f_6498_37370)">
<circle cx="190.121" cy="367.343" r="47.5286" fill="#9C84FF" style="mix-blend-mode:lighten"/>
</g>
<path d="M620.121 392.37C620.121 399.316 615.19 405.879 606.62 410.785C598.088 415.669 586.208 418.734 573.009 418.734C559.81 418.734 547.93 415.669 539.399 410.785C530.829 405.879 525.898 399.316 525.898 392.37C525.898 385.424 530.829 378.86 539.399 373.954C547.93 369.07 559.81 366.005 573.009 366.005C586.208 366.005 598.088 369.07 606.62 373.954C615.19 378.86 620.121 385.424 620.121 392.37Z" stroke="#5F2FCB" stroke-width="2.82626"/>
<path fill-rule="evenodd" clip-rule="evenodd" d="M573.009 399.559C599.809 399.559 621.534 387.123 621.534 371.782L621.534 349.49L601.967 349.49C593.884 346.044 583.863 344.004 573.009 344.004C562.156 344.004 552.135 346.044 544.052 349.49L524.485 349.49L524.485 371.782C524.485 387.123 546.21 399.559 573.009 399.559Z" fill="#5506D7"/>
<ellipse cx="573.009" cy="347.778" rx="48.5249" ry="27.7778" fill="#3B009B"/>
<path fill-rule="evenodd" clip-rule="evenodd" d="M573.009 368.088C599.809 368.088 621.534 355.651 621.534 340.31L621.534 318.018L601.967 318.018C593.884 314.572 583.863 312.532 573.009 312.532C562.156 312.532 552.135 314.572 544.052 318.018L524.485 318.018L524.485 340.31C524.485 355.651 546.21 368.088 573.009 368.088Z" fill="#5506D7"/>
<ellipse cx="573.009" cy="316.306" rx="48.5249" ry="27.7778" fill="#3B009B"/>
<path d="M524.485 328.309L524.615 332.355C524.695 334.831 526.422 336.817 528.574 336.907L532.195 337.06L528.574 337.212C526.422 337.302 524.695 339.288 524.615 341.764L524.485 345.811L524.354 341.764C524.274 339.288 522.547 337.302 520.395 337.212L516.774 337.06L520.395 336.907C522.547 336.817 524.274 334.831 524.354 332.355L524.485 328.309Z" fill="white"/>
<path fill-rule="evenodd" clip-rule="evenodd" d="M573.009 336.714C599.809 336.714 621.534 324.277 621.534 308.936L621.534 286.644L601.967 286.644C593.884 283.198 583.863 281.158 573.009 281.158C562.156 281.158 552.135 283.198 544.052 286.644L524.485 286.644L524.485 308.936C524.485 324.277 546.21 336.714 573.009 336.714Z" fill="#660BFA"/>
<ellipse cx="573.009" cy="284.932" rx="48.5249" ry="27.7778" fill="#8C49FA"/>
<g style="mix-blend-mode:soft-light" clip-path="url(#clip0_6498_37370)">
<path d="M564.596 280.244L573.009 285.101L584.4 283.42L583.542 281.429L574.103 282.818L567.12 278.787L564.596 280.244ZM584.787 272.472L573.009 265.672L573.009 270.802C567.541 270.792 562.055 271.996 557.866 274.415C549.503 279.243 549.503 287.073 557.866 291.901C566.228 296.729 579.79 296.729 588.152 291.901C596.515 287.073 596.515 279.243 588.152 274.415L584.787 276.358C591.282 280.108 591.282 286.209 584.787 289.958C578.292 293.708 567.726 293.708 561.231 289.958C554.736 286.209 554.736 280.108 561.231 276.358C564.478 274.483 568.752 273.551 573.009 273.541L573.009 279.272L584.787 272.472Z" fill="white"/>
</g>
<g style="mix-blend-mode:soft-light" clip-path="url(#clip1_6498_37370)">
<path d="M564.596 280.244L573.009 285.101L584.4 283.42L583.542 281.429L574.103 282.818L567.12 278.787L564.596 280.244ZM584.787 272.472L573.009 265.672L573.009 270.802C567.541 270.792 562.055 271.996 557.866 274.415C549.503 279.243 549.503 287.073 557.866 291.901C566.228 296.729 579.79 296.729 588.152 291.901C596.515 287.073 596.515 279.243 588.152 274.415L584.787 276.358C591.282 280.108 591.282 286.209 584.787 289.958C578.292 293.708 567.726 293.708 561.231 289.958C554.736 286.209 554.736 280.108 561.231 276.358C564.478 274.483 568.752 273.551 573.009 273.541L573.009 279.272L584.787 272.472Z" fill="white"/>
</g>
<path d="M609.886 294.434L610.016 298.48C610.096 300.956 611.823 302.942 613.975 303.032L617.596 303.185L613.975 303.337C611.823 303.427 610.096 305.413 610.016 307.889L609.886 311.936L609.756 307.889C609.676 305.413 607.949 303.427 605.797 303.337L602.176 303.185L605.797 303.032C607.949 302.942 609.676 300.956 609.756 298.48L609.886 294.434Z" fill="white"/>
<g style="mix-blend-mode:multiply" filter="url(#filter5_f_6498_37370)">
<circle cx="564.606" cy="371.781" r="47.5286" fill="#9C84FF" style="mix-blend-mode:lighten"/>
</g>
<g opacity="0.4" filter="url(#filter6_b_6498_37370)">
<path fill-rule="evenodd" clip-rule="evenodd" d="M326.984 211.951L341.208 220.163L298.348 244.909L255.674 220.271L269.961 212.023L284.257 220.276C279.975 202.792 289.525 184.302 312.884 170.816C347.459 150.855 400.713 148.359 439.788 163.248L425.072 171.744C394.249 161.289 353.682 163.686 327.109 179.028C306.036 191.195 299.056 208.447 306.197 223.952L326.984 211.951ZM441.029 211.807L426.805 203.594L469.665 178.848L512.339 203.486L498.052 211.734L483.756 203.481C488.038 220.965 478.488 239.455 455.129 252.941C420.555 272.903 367.301 275.398 328.225 260.509L342.941 252.013C373.765 262.468 414.331 260.071 440.905 244.729C461.978 232.562 468.957 215.31 461.817 199.805L441.029 211.807Z" fill="#AAE0B9"/>
<g style="mix-blend-mode:overlay" filter="url(#filter7_bii_6498_37370)">
<path fill-rule="evenodd" clip-rule="evenodd" d="M327.183 211.835L341.407 220.048L298.547 244.793L255.873 220.156L270.16 211.907L284.456 220.161C280.174 202.677 289.724 184.187 313.083 170.701C347.657 150.739 400.912 148.244 439.987 163.133L425.271 171.629C394.448 161.174 353.881 163.571 327.308 178.913C306.235 191.08 299.255 208.331 306.396 223.837L327.183 211.835ZM441.228 211.691L427.004 203.479L469.864 178.733L512.538 203.371L498.251 211.619L483.955 203.366C488.237 220.85 478.687 239.34 455.328 252.826C420.754 272.787 367.5 275.283 328.424 260.394L343.14 251.898C373.964 262.353 414.53 259.956 441.104 244.613C462.177 232.447 469.156 215.195 462.016 199.69L441.228 211.691Z" fill="white" fill-opacity="0.155"/>
</g>
</g>
<g filter="url(#filter8_d_6498_37370)">
<path fill-rule="evenodd" clip-rule="evenodd" d="M326.573 206.295L340.797 214.508L297.937 239.253L255.263 214.616L269.55 206.367L283.846 214.621C279.564 197.137 289.114 178.647 312.473 165.161C347.047 145.199 400.301 142.704 439.377 157.593L424.661 166.089C393.837 155.634 353.271 158.031 326.697 173.373C305.624 185.54 298.645 202.791 305.785 218.297L326.573 206.295ZM440.618 206.151L426.393 197.939L469.254 173.193L511.927 197.831L497.641 206.079L483.345 197.826C487.627 215.31 478.077 233.799 454.718 247.286C420.143 267.247 366.889 269.743 327.814 254.854L342.53 246.358C373.353 256.813 413.92 254.416 440.493 239.073C461.566 226.907 468.546 209.655 461.405 194.15L440.618 206.151Z" fill="#AAE0B9"/>
<g style="mix-blend-mode:overlay" filter="url(#filter9_bii_6498_37370)">
<path fill-rule="evenodd" clip-rule="evenodd" d="M326.772 206.18L340.996 214.393L298.135 239.138L255.462 214.501L269.749 206.252L284.045 214.506C279.763 197.021 289.313 178.532 312.672 165.045C347.246 145.084 400.5 142.589 439.575 157.478L424.86 165.974C394.036 155.519 353.47 157.916 326.896 173.258C305.823 185.425 298.844 202.676 305.984 218.182L326.772 206.18ZM440.817 206.036L426.592 197.824L469.453 173.078L512.126 197.715L497.84 205.964L483.544 197.71C487.826 215.195 478.276 233.684 454.917 247.171C420.342 267.132 367.088 269.627 328.013 254.738L342.729 246.242C373.552 256.697 414.119 254.3 440.692 238.958C461.765 226.792 468.745 209.54 461.604 194.034L440.817 206.036Z" fill="white" fill-opacity="0.155"/>
</g>
</g>
<path d="M328.733 313.072L324.78 321.589L313.98 315.354L328.733 313.072Z" fill="#5F2FB6"/>
<path d="M517.406 360.051L502.653 357.769L513.453 351.534L517.406 360.051Z" fill="#A55FF9"/>
<defs>
<filter id="filter0_f_6498_37370" x="0" y="0.274414" width="467.04" height="509.88" filterUnits="userSpaceOnUse" color-interpolation-filters="sRGB">
<feFlood flood-opacity="0" result="BackgroundImageFix"/>
<feBlend mode="normal" in="SourceGraphic" in2="BackgroundImageFix" result="shape"/>
<feGaussianBlur stdDeviation="75" result="effect1_foregroundBlur_6498_37370"/>
</filter>
<filter id="filter1_d_6498_37370" x="217.351" y="116.089" width="333.511" height="290.862" filterUnits="userSpaceOnUse" color-interpolation-filters="sRGB">
<feFlood flood-opacity="0" result="BackgroundImageFix"/>
<feColorMatrix in="SourceAlpha" type="matrix" values="0 0 0 0 0 0 0 0 0 0 0 0 0 0 0 0 0 0 127 0" result="hardAlpha"/>
<feOffset dy="8.01856"/>
<feGaussianBlur stdDeviation="48.205"/>
<feComposite in2="hardAlpha" operator="out"/>
<feColorMatrix type="matrix" values="0 0 0 0 0.396 0 0 0 0 0 0 0 0 0 0.9 0 0 0 1 0"/>
<feBlend mode="normal" in2="BackgroundImageFix" result="effect1_dropShadow_6498_37370"/>
<feBlend mode="normal" in="SourceGraphic" in2="effect1_dropShadow_6498_37370" result="shape"/>
</filter>
<filter id="filter2_f_6498_37370" x="169.032" y="69.0547" width="283.057" height="283.057" filterUnits="userSpaceOnUse" color-interpolation-filters="sRGB">
<feFlood flood-opacity="0" result="BackgroundImageFix"/>
<feBlend mode="normal" in="SourceGraphic" in2="BackgroundImageFix" result="shape"/>
<feGaussianBlur stdDeviation="47" result="effect1_foregroundBlur_6498_37370"/>
</filter>
<filter id="filter3_f_6498_37370" x="331.626" y="79.0732" width="283.057" height="283.057" filterUnits="userSpaceOnUse" color-interpolation-filters="sRGB">
<feFlood flood-opacity="0" result="BackgroundImageFix"/>
<feBlend mode="normal" in="SourceGraphic" in2="BackgroundImageFix" result="shape"/>
<feGaussianBlur stdDeviation="47" result="effect1_foregroundBlur_6498_37370"/>
</filter>
<filter id="filter4_f_6498_37370" x="48.5928" y="225.814" width="283.057" height="283.057" filterUnits="userSpaceOnUse" color-interpolation-filters="sRGB">
<feFlood flood-opacity="0" result="BackgroundImageFix"/>
<feBlend mode="normal" in="SourceGraphic" in2="BackgroundImageFix" result="shape"/>
<feGaussianBlur stdDeviation="47" result="effect1_foregroundBlur_6498_37370"/>
</filter>
<filter id="filter5_f_6498_37370" x="423.077" y="230.252" width="283.057" height="283.057" filterUnits="userSpaceOnUse" color-interpolation-filters="sRGB">
<feFlood flood-opacity="0" result="BackgroundImageFix"/>
<feBlend mode="normal" in="SourceGraphic" in2="BackgroundImageFix" result="shape"/>
<feGaussianBlur stdDeviation="47" result="effect1_foregroundBlur_6498_37370"/>
</filter>
<filter id="filter6_b_6498_37370" x="186.45" y="74.459" width="395.312" height="274.725" filterUnits="userSpaceOnUse" color-interpolation-filters="sRGB">
<feFlood flood-opacity="0" result="BackgroundImageFix"/>
<feGaussianBlur in="BackgroundImageFix" stdDeviation="27.5"/>
<feComposite in2="SourceAlpha" operator="in" result="effect1_backgroundBlur_6498_37370"/>
<feBlend mode="normal" in="SourceGraphic" in2="effect1_backgroundBlur_6498_37370" result="shape"/>
</filter>
<filter id="filter7_bii_6498_37370" x="208.904" y="106.606" width="350.603" height="210.315" filterUnits="userSpaceOnUse" color-interpolation-filters="sRGB">
<feFlood flood-opacity="0" result="BackgroundImageFix"/>
<feGaussianBlur in="BackgroundImageFix" stdDeviation="23.4847"/>
<feComposite in2="SourceAlpha" operator="in" result="effect1_backgroundBlur_6498_37370"/>
<feBlend mode="normal" in="SourceGraphic" in2="effect1_backgroundBlur_6498_37370" result="shape"/>
<feColorMatrix in="SourceAlpha" type="matrix" values="0 0 0 0 0 0 0 0 0 0 0 0 0 0 0 0 0 0 127 0" result="hardAlpha"/>
<feOffset dx="-12.6944" dy="12.6944"/>
<feGaussianBlur stdDeviation="6.34722"/>
<feComposite in2="hardAlpha" operator="arithmetic" k2="-1" k3="1"/>
<feColorMatrix type="matrix" values="0 0 0 0 1 0 0 0 0 1 0 0 0 0 1 0 0 0 0.155 0"/>
<feBlend mode="normal" in2="shape" result="effect2_innerShadow_6498_37370"/>
<feColorMatrix in="SourceAlpha" type="matrix" values="0 0 0 0 0 0 0 0 0 0 0 0 0 0 0 0 0 0 127 0" result="hardAlpha"/>
<feOffset dx="12.6944" dy="-12.6944"/>
<feGaussianBlur stdDeviation="6.34722"/>
<feComposite in2="hardAlpha" operator="arithmetic" k2="-1" k3="1"/>
<feColorMatrix type="matrix" values="0 0 0 0 0.76 0 0 0 0 0.76 0 0 0 0 0.76 0 0 0 0.155 0"/>
<feBlend mode="normal" in2="effect2_innerShadow_6498_37370" result="effect3_innerShadow_6498_37370"/>
</filter>
<filter id="filter8_d_6498_37370" x="237.039" y="123.804" width="293.312" height="172.725" filterUnits="userSpaceOnUse" color-interpolation-filters="sRGB">
<feFlood flood-opacity="0" result="BackgroundImageFix"/>
<feColorMatrix in="SourceAlpha" type="matrix" values="0 0 0 0 0 0 0 0 0 0 0 0 0 0 0 0 0 0 127 0" result="hardAlpha"/>
<feOffset dy="4"/>
<feGaussianBlur stdDeviation="2"/>
<feComposite in2="hardAlpha" operator="out"/>
<feColorMatrix type="matrix" values="0 0 0 0 0.671272 0 0 0 0 0.914945 0 0 0 0 0.991895 0 0 0 0.85 0"/>
<feBlend mode="normal" in2="BackgroundImageFix" result="effect1_dropShadow_6498_37370"/>
<feBlend mode="normal" in="SourceGraphic" in2="effect1_dropShadow_6498_37370" result="shape"/>
</filter>
<filter id="filter9_bii_6498_37370" x="208.492" y="100.95" width="350.603" height="210.315" filterUnits="userSpaceOnUse" color-interpolation-filters="sRGB">
<feFlood flood-opacity="0" result="BackgroundImageFix"/>
<feGaussianBlur in="BackgroundImageFix" stdDeviation="23.4847"/>
<feComposite in2="SourceAlpha" operator="in" result="effect1_backgroundBlur_6498_37370"/>
<feBlend mode="normal" in="SourceGraphic" in2="effect1_backgroundBlur_6498_37370" result="shape"/>
<feColorMatrix in="SourceAlpha" type="matrix" values="0 0 0 0 0 0 0 0 0 0 0 0 0 0 0 0 0 0 127 0" result="hardAlpha"/>
<feOffset dx="-12.6944" dy="12.6944"/>
<feGaussianBlur stdDeviation="6.34722"/>
<feComposite in2="hardAlpha" operator="arithmetic" k2="-1" k3="1"/>
<feColorMatrix type="matrix" values="0 0 0 0 1 0 0 0 0 1 0 0 0 0 1 0 0 0 0.155 0"/>
<feBlend mode="normal" in2="shape" result="effect2_innerShadow_6498_37370"/>
<feColorMatrix in="SourceAlpha" type="matrix" values="0 0 0 0 0 0 0 0 0 0 0 0 0 0 0 0 0 0 127 0" result="hardAlpha"/>
<feOffset dx="12.6944" dy="-12.6944"/>
<feGaussianBlur stdDeviation="6.34722"/>
<feComposite in2="hardAlpha" operator="arithmetic" k2="-1" k3="1"/>
<feColorMatrix type="matrix" values="0 0 0 0 0.76 0 0 0 0 0.76 0 0 0 0 0.76 0 0 0 0.155 0"/>
<feBlend mode="normal" in2="effect2_innerShadow_6498_37370" result="effect3_innerShadow_6498_37370"/>
</filter>
<linearGradient id="paint0_linear_6498_37370" x1="83.5198" y1="0" x2="83.5198" y2="209.88" gradientUnits="userSpaceOnUse">
<stop stop-color="#6218FF" stop-opacity="0"/>
<stop offset="1" stop-color="#6117FF"/>
</linearGradient>
<linearGradient id="paint1_linear_6498_37370" x1="256.427" y1="342.696" x2="250.095" y2="306.288" gradientUnits="userSpaceOnUse">
<stop stop-color="#3B14AB"/>
<stop offset="1" stop-color="#B46AF9"/>
</linearGradient>
<linearGradient id="paint2_linear_6498_37370" x1="461.262" y1="438.631" x2="454.93" y2="402.223" gradientUnits="userSpaceOnUse">
<stop stop-color="#3B14AB"/>
<stop offset="1" stop-color="#B46AF9"/>
</linearGradient>
<linearGradient id="paint3_linear_6498_37370" x1="314.89" y1="174.45" x2="398.081" y2="317.68" gradientUnits="userSpaceOnUse">
<stop offset="0.015625" stop-color="#B010FB"/>
<stop offset="0.130208" stop-color="#DE97FF"/>
<stop offset="0.234375" stop-color="#A227DB"/>
<stop offset="0.505208" stop-color="#A227DB" stop-opacity="0"/>
<stop offset="0.765625" stop-color="#A610EC" stop-opacity="0.84"/>
</linearGradient>
<clipPath id="clip0_6498_37370">
<rect width="46.629" height="46.629" fill="white" transform="matrix(0.866025 -0.5 0.866025 0.5 532.627 283.158)"/>
</clipPath>
<clipPath id="clip1_6498_37370">
<rect width="46.629" height="46.629" fill="white" transform="matrix(0.866025 -0.5 0.866025 0.5 532.627 283.158)"/>
</clipPath>
</defs>
</svg>
