<?xml version="1.0" encoding="UTF-8" standalone="no"?>
<!-- Created with Inkscape (http://www.inkscape.org/) -->

<svg
   width="224mm"
   height="224mm"
   viewBox="0 0 224 224"
   version="1.1"
   id="svg5"
   sodipodi:docname="mysql.svg"
   inkscape:version="1.1.2 (1:1.1+202202050950+0a00cf5339)"
   xmlns:inkscape="http://www.inkscape.org/namespaces/inkscape"
   xmlns:sodipodi="http://sodipodi.sourceforge.net/DTD/sodipodi-0.dtd"
   xmlns:xlink="http://www.w3.org/1999/xlink"
   xmlns="http://www.w3.org/2000/svg"
   xmlns:svg="http://www.w3.org/2000/svg">
  <sodipodi:namedview
     id="namedview7"
     pagecolor="#505050"
     bordercolor="#eeeeee"
     borderopacity="1"
     inkscape:pageshadow="0"
     inkscape:pageopacity="0"
     inkscape:pagecheckerboard="0"
     inkscape:document-units="mm"
     showgrid="false"
     inkscape:zoom="0.60845258"
     inkscape:cx="396.08674"
     inkscape:cy="560.43809"
     inkscape:window-width="1920"
     inkscape:window-height="1022"
     inkscape:window-x="2560"
     inkscape:window-y="0"
     inkscape:window-maximized="1"
     inkscape:current-layer="layer1" />
  <defs
     id="defs2">
    <style
       id="style9">.cls-1{fill:url(#linear-gradient);}.cls-2{fill:url(#linear-gradient-2);}.cls-3{fill:url(#linear-gradient-3);}.cls-4{fill:url(#linear-gradient-4);}.cls-5{fill:url(#linear-gradient-5);}</style>
    <linearGradient
       id="linear-gradient"
       x1="19.299999"
       y1="19.280001"
       x2="111.47"
       y2="111.45"
       gradientUnits="userSpaceOnUse">
      <stop
         offset="0"
         stop-color="#91d443"
         id="stop11" />
      <stop
         offset="1"
         stop-color="#48bfe0"
         id="stop13" />
    </linearGradient>
    <linearGradient
       id="linear-gradient-2"
       x1="42.220001"
       y1="-3.6400001"
       x2="134.39"
       y2="88.529999"
       xlink:href="#linear-gradient" />
    <linearGradient
       id="linear-gradient-3"
       x1="65.059998"
       y1="-26.49"
       x2="157.23"
       y2="65.68"
       xlink:href="#linear-gradient" />
    <linearGradient
       id="linear-gradient-4"
       x1="-3.6300001"
       y1="42.209999"
       x2="88.540001"
       y2="134.38"
       xlink:href="#linear-gradient" />
    <linearGradient
       id="linear-gradient-5"
       x1="-26.48"
       y1="65.050003"
       x2="65.690002"
       y2="157.22"
       xlink:href="#linear-gradient" />
    <linearGradient
       inkscape:collect="always"
       xlink:href="#linear-gradient"
       id="linearGradient52"
       gradientUnits="userSpaceOnUse"
       x1="19.299999"
       y1="19.280001"
       x2="111.47"
       y2="111.45" />
  </defs>
  <g
     inkscape:label="Layer 1"
     inkscape:groupmode="layer"
     id="layer1">
    <g
       id="g50"
       transform="matrix(1.6262316,0,0,1.6836394,8.4527287,4.918117)">
      <path
         class="cls-1"
         d="M 91.68,111.72 A 16.27,16.27 0 0 0 107.94,128 H 128 V 107.91 A 16.27,16.27 0 0 0 111.74,91.65 h -3.82 A 25.8,25.8 0 0 1 82.16,65.88 v -3.8 A 16.27,16.27 0 0 0 65.9,45.83 H 62.09 A 25.8,25.8 0 0 1 36.32,20.06 v 0 -3.8 A 16.27,16.27 0 0 0 20.07,0 H 0 v 20.06 a 16.27,16.27 0 0 0 16.26,16.25 h 3.82 a 25.8,25.8 0 0 1 25.76,25.77 v 3.8 A 16.27,16.27 0 0 0 62.1,82.14 h 3.81 a 25.8,25.8 0 0 1 25.77,25.77 v 0 z"
         id="path24"
         style="fill:url(#linearGradient52)" />
      <path
         class="cls-2"
         d="M 128,62.07 A 16.27,16.27 0 0 0 111.74,45.81 h -3.82 A 25.8,25.8 0 0 1 82.16,20 V 16.2 A 16.27,16.27 0 0 0 65.9,0 H 45.85 v 20.28 a 16.27,16.27 0 0 0 16.24,16 h 3.82 a 25.8,25.8 0 0 1 25.77,25.79 v 0 3.8 a 16.27,16.27 0 0 0 16.2,16.25 H 128 Z"
         id="path26"
         style="fill:url(#linear-gradient-2)" />
      <path
         class="cls-3"
         d="M 128,16.12 A 16.26,16.26 0 0 0 112.4,0 h -21 V 20.23 A 16.27,16.27 0 0 0 107.62,36.3 H 128 Z"
         id="path28"
         style="fill:url(#linear-gradient-3)" />
      <path
         class="cls-4"
         d="m 0,65.92 a 16.27,16.27 0 0 0 16.27,16.25 h 3.82 a 25.8,25.8 0 0 1 25.77,25.77 v 3.8 A 16.27,16.27 0 0 0 62.11,128 h 20.05 v -20.29 a 16.27,16.27 0 0 0 -16.24,-16 H 62.1 A 25.8,25.8 0 0 1 36.33,65.92 v 0 -3.8 A 16.27,16.27 0 0 0 20.13,45.87 H 0 Z"
         id="path30"
         style="fill:url(#linear-gradient-4)" />
      <path
         class="cls-5"
         d="M 0,111.87 A 16.26,16.26 0 0 0 15.61,128 h 21 V 107.76 A 16.27,16.27 0 0 0 20.39,91.68 H 0 Z"
         id="path32"
         style="fill:url(#linear-gradient-5)" />
    </g>
    <path
       d="m 191.56305,160.25942 c -9.92169,-0.27687 -17.61879,0.74011 -24.07012,3.45438 -1.85753,0.74657 -4.83848,0.74657 -5.08319,3.084 0.99274,0.98143 1.1123,2.58672 1.98268,3.94628 1.4877,2.46789 4.09603,5.79235 6.45131,7.51679 l 7.93903,5.67351 c 4.83849,2.95689 10.29709,4.68413 15.01044,7.64381 2.73069,1.72724 5.4586,3.94628 8.18929,5.79784 1.39037,0.98682 2.23294,2.59221 3.9709,3.20563 v -0.37275 c -0.86755,-1.10542 -1.11785,-2.70823 -1.98267,-3.94627 l -3.72619,-3.57321 c -3.5955,-4.80844 -8.06416,-9.00347 -12.90265,-12.45235 -3.97089,-2.71374 -12.65239,-6.41137 -14.26521,-10.97106 l -0.24465,-0.27579 c 2.72512,-0.27687 5.95078,-1.23536 8.55912,-1.976 4.22118,-1.10531 8.06417,-0.86184 12.40212,-1.97028 l 5.95912,-1.72724 v -1.10543 c -2.23293,-2.21904 -3.84575,-5.17882 -6.20104,-7.27353 -6.3262,-5.42477 -13.27805,-10.72792 -20.47461,-15.16609 -3.84577,-2.46508 -8.8094,-4.0707 -12.90265,-6.16261 -1.49327,-0.74011 -3.9709,-1.11092 -4.83849,-2.34346 -2.2385,-2.70825 -3.47593,-6.28694 -5.08876,-9.49538 L 140.07482,100.31708 C 137.84188,95.508527 136.47375,90.700084 133.74863,86.261909 120.96834,65.300675 107.07019,52.60237 85.73076,40.147321 81.142539,37.557911 75.683942,36.444193 69.880531,35.09002 L 60.57617,34.592306 c -1.988232,-0.861845 -3.970905,-3.20563 -5.708867,-4.316547 -7.071431,-4.438282 -25.310316,-14.055277 -30.524215,-1.381752 -3.350795,8.014073 4.963631,15.903934 7.786084,19.974531 2.113361,2.83536 4.83849,6.041097 6.331754,9.246726 0.834264,2.094713 1.112295,4.316547 1.982661,6.535687 1.982672,5.424771 3.845775,11.46856 6.451324,16.525755 1.390369,2.58941 2.850259,5.305942 4.588232,7.646604 0.992736,1.381752 2.730688,1.973192 3.100527,4.192226 -1.737973,2.467782 -1.857543,6.162616 -2.85027,9.249524 -4.46865,13.93355 -2.730688,31.19435 3.595507,41.45256 1.988231,3.0813 6.673777,9.86564 13.030556,7.27353 5.583737,-2.21914 4.337963,-9.24673 5.950796,-15.41203 0.375441,-1.4785 0.125075,-2.4651 0.867554,-3.45438 v 0.27579 l 5.088759,10.23321 c 3.845764,6.04099 10.547356,12.33073 16.128303,16.52575 2.975388,2.21915 5.333455,6.04379 9.054095,7.39785 v -0.37274 h -0.24466 c -0.74528,-1.10531 -1.86308,-1.60282 -2.85582,-2.46498 -2.23294,-2.21914 -4.713355,-4.93288 -6.451319,-7.39786 -5.208329,-6.90326 -9.79656,-14.54986 -13.892593,-22.43972 -1.988232,-3.82196 -3.726194,-8.01419 -5.333459,-11.83603 -0.750773,-1.4813 -0.750773,-3.70313 -1.98823,-4.43817 -1.863103,2.70812 -4.588233,5.05719 -5.959135,8.38444 -2.358071,5.30034 -2.602781,11.83603 -3.470367,18.61767 -0.500516,0.12388 -0.278053,0 -0.500516,0.27687 -3.965334,-0.98358 -5.333458,-5.05719 -6.821162,-8.50597 -3.720625,-8.75483 -4.343512,-22.81 -1.117856,-32.9217 0.867555,-2.58941 4.593791,-10.727916 3.106086,-13.193006 -0.750773,-2.343354 -3.225656,-3.697526 -4.59378,-5.549091 -1.612833,-2.343462 -3.345237,-5.300341 -4.463091,-7.889752 -2.975399,-6.908758 -4.463093,-14.549868 -7.69154,-21.455933 -1.493252,-3.20563 -4.096032,-6.535688 -6.206613,-9.492567 -2.35807,-3.330058 -4.95806,-5.67352 -6.821163,-9.616996 -0.620096,-1.381752 -1.487694,-3.576007 -0.494914,-5.057193 0.244656,-0.986812 0.74528,-1.381752 1.732404,-1.602923 1.612823,-1.381751 6.206614,0.370593 7.819448,1.105423 4.588221,1.851565 8.433985,3.576007 12.279748,6.162617 1.737974,1.232545 3.601066,3.576007 5.834007,4.195027 h 2.608328 c 3.970904,0.861843 8.433996,0.276867 12.151852,1.38175 6.576452,2.100315 12.530029,5.178822 17.869045,8.511574 16.25066,10.233321 29.65385,24.783082 38.70794,42.171111 1.48771,2.835359 2.10781,5.424771 3.47593,8.384449 2.60834,6.04379 5.834,12.20641 8.43399,18.12858 2.60834,5.79514 5.08877,11.71731 8.8094,16.52575 1.8631,2.58941 9.30437,3.94358 12.65237,5.30045 2.48321,1.10542 6.32619,2.10031 8.56469,3.45438 4.2156,2.58941 8.43399,5.54909 12.40211,8.38445 1.98268,1.47569 8.18929,4.5598 8.55913,7.01929 z M 65.039261,53.112798 a 19.715465,19.59325 0 0 0 -5.083199,0.616219 v 0.275789 h 0.244656 c 0.992737,1.973192 2.730688,3.330059 3.970903,5.057302 l 2.855818,5.91936 0.244656,-0.275789 c 1.737952,-1.232545 2.608328,-3.20563 2.608328,-6.162617 -0.745279,-0.861844 -0.867553,-1.727243 -1.487694,-2.589411 -0.745279,-1.232545 -2.35807,-1.851564 -3.353575,-2.835359 z"
       fill-rule="evenodd"
       fill="#00678c"
       id="path366"
       style="stroke-width:2.77211" />
  </g>
</svg>
