<?xml version="1.0" encoding="UTF-8" standalone="no"?>
<!-- Creator: CorelDRAW 2018 (64-Bit) -->

<svg
   xml:space="preserve"
   width="250"
   height="250"
   version="1.1"
   style="clip-rule:evenodd;fill-rule:evenodd;image-rendering:optimizeQuality;shape-rendering:geometricPrecision;text-rendering:geometricPrecision"
   viewBox="0 0 323.99642 323.98189"
   id="svg12"
   sodipodi:docname="oracle.svg"
   inkscape:version="1.1.1 (1:1.1+202109281949+c3084ef5ed)"
   xmlns:inkscape="http://www.inkscape.org/namespaces/inkscape"
   xmlns:sodipodi="http://sodipodi.sourceforge.net/DTD/sodipodi-0.dtd"
   xmlns="http://www.w3.org/2000/svg"
   xmlns:svg="http://www.w3.org/2000/svg"><sodipodi:namedview
   id="namedview14"
   pagecolor="#505050"
   bordercolor="#eeeeee"
   borderopacity="1"
   inkscape:pageshadow="0"
   inkscape:pageopacity="0"
   inkscape:pagecheckerboard="0"
   inkscape:document-units="px"
   showgrid="false"
   inkscape:lockguides="true"
   units="px"
   width="250px"
   inkscape:zoom="2.0370003"
   inkscape:cx="163.96659"
   inkscape:cy="77.074116"
   inkscape:window-width="1920"
   inkscape:window-height="1022"
   inkscape:window-x="2560"
   inkscape:window-y="0"
   inkscape:window-maximized="1"
   inkscape:current-layer="Layer_x0020_1" />
 <defs
   id="defs4">
  <style
   type="text/css"
   id="style2">
   <![CDATA[
    .fil1 {fill:#FEFEFE;fill-rule:nonzero}
    .fil0 {fill:#E32124;fill-rule:nonzero}
   ]]>
  </style>
 </defs>
 <g
   id="Layer_x0020_1"
   inkscape:label="Layer 1"
   inkscape:groupmode="layer">
  <metadata
   id="CorelCorpID_0Corel-Layer" />
  <polygon
   class="fil0"
   points="0,34.5 94.32,34.5 94.32,0 0,0 "
   id="polygon7"
   transform="matrix(3.1271113,0,0,4.6297954,13.758468,76.451697)" />
  <path
   class="fil1"
   d="m 270.71321,140.34287 c 0.21889,0 0.43779,0 0.56288,-0.32408 0.0313,-0.1389 0.0625,-0.27779 0.0625,-0.41668 0,-0.27779 -0.0938,-0.50928 -0.25017,-0.64818 -0.15636,-0.0926 -0.31271,-0.0926 -0.65669,-0.0926 h -0.15636 v 1.43524 h 0.4378 z m -0.28144,-2.2686 c 0.46906,0 0.68796,0 0.87559,0.1389 0.62542,0.27779 0.68796,1.11115 0.68796,1.38894 0,0.0463 0,0.23149 -0.0313,0.41668 -0.0313,0.18519 -0.0938,0.55557 -0.43779,0.87966 -0.0625,0.0463 -0.0625,0.0463 -0.15636,0.0926 l 0.78178,2.12971 h -0.75051 l -0.68796,-1.94451 h -0.4378 v 1.94451 h -0.68796 v -5.04648 z m 0.28144,7.12989 c 1.68864,0 3.03329,-2.03711 3.03329,-4.4909 0,-2.50009 -1.34465,-4.4909 -3.03329,-4.4909 -1.65737,0 -3.00203,1.99081 -3.00203,4.4909 0,2.45379 1.34466,4.4909 3.00203,4.4909 z m -2.37661,-4.4909 c 0,-1.94452 1.06322,-3.56495 2.37661,-3.56495 1.34465,0 2.40787,1.62043 2.40787,3.56495 0,1.89821 -1.09449,3.51864 -2.40787,3.51864 -1.28212,0 -2.37661,-1.62043 -2.37661,-3.51864 z m -21.07673,28.56583 c -4.0027,0 -7.34871,-3.98162 -8.38066,-9.39848 h 22.13995 l 3.06457,-7.03729 h -25.23579 c 1.00068,-5.41686 4.40923,-9.44478 8.38066,-9.44478 h 15.2603 l 3.0333,-7.03729 h -18.63758 c -7.4738,0 -13.50912,8.9355 -13.50912,19.95442 0,11.01891 6.03532,19.95442 13.50912,19.95442 h 16.01081 l 3.0333,-7.03729 H 247.2286 Z m -63.44909,7.03729 c -7.44252,0 -13.47785,-8.9355 -13.47785,-19.95441 0,-11.01892 6.03533,-19.95442 13.47785,-19.95442 h 18.63759 l -3.06457,7.03729 h -15.26031 c -4.81575,0 -8.72464,5.78724 -8.72464,12.91713 0,7.12988 3.90889,12.91712 8.72464,12.91712 h 18.70013 l -3.06457,7.03729 h -16.01081 z m -98.504004,-7.03729 c 4.815751,0 8.755911,-5.78724 8.755911,-12.91712 0,-7.12989 -3.908889,-12.91713 -8.755911,-12.91713 H 70.327913 c -4.815752,0 -8.724641,5.78724 -8.724641,12.91713 0,7.12988 3.908889,12.91712 8.724641,12.91712 z m -15.322846,7.03729 c -7.473796,0 -13.50912,-8.9355 -13.50912,-19.95441 0,-11.01892 6.035324,-19.95442 13.50912,-19.95442 h 15.666828 c 7.442525,0 13.47785,8.9355 13.47785,19.95442 0,11.01891 -6.035325,19.95441 -13.47785,19.95441 z m 54.59936,-12.91713 c 5.06592,0 9.13117,-6.06503 9.13117,-13.519 0,-7.45397 -4.06525,-13.519 -9.13117,-13.519 h -22.70282 v 39.95513 h 5.191 v -32.91784 h 17.16784 c 2.37661,0 4.34669,2.91677 4.34669,6.48171 0,3.56494 -1.97008,6.43542 -4.34669,6.43542 h -14.63488 l 15.44793,20.00071 h 7.53634 l -10.41328,-12.91713 h 2.34533 z m 85.80794,5.87984 v -32.87154 h -5.15974 v 36.1124 c 0,1.01856 0.25017,1.94452 0.75051,2.68528 0.50034,0.69447 1.1883,1.15745 1.90754,1.15745 h 23.67223 l 3.06457,-7.03729 H 210.4225 Z m -63.48036,-7.03728 h 13.8531 l -7.31744,-17.45433 -13.44658,31.5752 h -6.09786 l 16.32352,-37.87172 c 0.71923,-1.52784 1.90753,-2.4538 3.22092,-2.4538 1.25085,0 2.43915,0.87966 3.15838,2.3612 l 16.38607,37.96432 h -6.12914 l -2.87694,-7.03729 h -14.00946 l -3.06457,-7.03729 z"
   id="path9"
   style="stroke-width:3.80498" />
 </g>
</svg>
