<svg width="257" height="53" viewBox="0 0 257 53" fill="none" xmlns="http://www.w3.org/2000/svg">
<g clip-path="url(#clip0_21182_25490)">
<path d="M62.2091 38.0802C60.4643 38.0778 58.7432 37.6739 57.1773 36.8995C55.6114 36.1251 54.2423 35.0006 53.1745 33.6121C52.1067 32.2235 51.3686 30.6077 51.0166 28.8881C50.6646 27.1685 50.708 25.3906 51.1435 23.6905C51.5789 21.9904 52.395 20.4129 53.5292 19.0788C54.6635 17.7447 56.0858 16.6892 57.6876 15.9931C59.2894 15.297 61.0281 14.9787 62.7709 15.0624C64.5137 15.1462 66.2144 15.6299 67.7429 16.4765C69.3873 17.3843 70.7566 18.7237 71.705 20.3521L71.7918 20.5029L68.383 22.4928L68.2985 22.3348C67.7316 21.2778 66.8768 20.4056 65.8344 19.8205C64.7281 19.1954 63.4777 18.8746 62.2091 18.8902C61.1916 18.8502 60.1769 19.0219 59.2284 19.3946C58.2798 19.7672 57.418 20.3329 56.6967 21.0561C55.3397 22.5635 54.5882 24.5248 54.5882 26.5588C54.5882 28.5927 55.3397 30.554 56.6967 32.0615C57.418 32.7847 58.2798 33.3503 59.2284 33.723C60.1769 34.0956 61.1916 34.2673 62.2091 34.2273C63.4825 34.2419 64.7376 33.9212 65.8499 33.2971C66.8931 32.7223 67.7442 31.8501 68.2962 30.79L68.3794 30.6295L71.7907 32.5859L71.705 32.7367C70.7735 34.3703 69.4157 35.7163 67.7786 36.6291C66.0803 37.5909 64.1614 38.0887 62.2126 38.073" fill="black"/>
<path d="M76.8651 15.3962H73.166V37.674H76.8651V15.3962Z" fill="black"/>
<path d="M100.921 37.6754L94.7344 21.7048H98.7631L102.99 33.2813L107.186 21.7048H111.223L105.036 37.6754H100.921Z" fill="black"/>
<path d="M128.777 37.6762V21.7069H132.476V23.789C132.955 23.0063 133.639 22.3716 134.453 21.9547C135.267 21.5377 136.18 21.3547 137.091 21.4255H137.263V25.44L137.08 25.428C136.947 25.4193 136.815 25.4149 136.686 25.4149C135.665 25.3983 134.666 25.7146 133.839 26.3164C133.362 26.7159 132.989 27.2264 132.752 27.8037C132.516 28.381 132.423 29.0076 132.481 29.6293V37.6762H128.777Z" fill="black"/>
<path d="M150.893 38.0802C149.148 38.0778 147.427 37.6739 145.861 36.8995C144.295 36.1251 142.926 35.0006 141.858 33.6121C140.79 32.2235 140.052 30.6077 139.7 28.8881C139.348 27.1685 139.392 25.3906 139.827 23.6905C140.263 21.9904 141.079 20.4129 142.213 19.0788C143.347 17.7447 144.769 16.6892 146.371 15.9931C147.973 15.297 149.712 14.9787 151.455 15.0624C153.197 15.1462 154.898 15.6299 156.427 16.4765C158.071 17.3842 159.44 18.7236 160.389 20.3521L160.475 20.5029L157.067 22.4928L156.982 22.3348C156.415 21.2779 155.56 20.4056 154.518 19.8205C153.412 19.1955 152.161 18.8746 150.893 18.8902C149.875 18.8502 148.86 19.022 147.912 19.3947C146.964 19.7673 146.102 20.3329 145.38 21.0561C144.023 22.5635 143.272 24.5248 143.272 26.5588C143.272 28.5927 144.023 30.554 145.38 32.0615C146.102 32.7847 146.963 33.3503 147.912 33.723C148.86 34.0956 149.875 34.2673 150.893 34.2273C152.167 34.2421 153.422 33.9214 154.535 33.2971C155.578 32.7223 156.43 31.8501 156.982 30.79L157.064 30.6295L160.475 32.5859L160.39 32.7367C159.458 34.3704 158.101 35.7165 156.463 36.6291C154.765 37.5909 152.846 38.0887 150.897 38.073" fill="black"/>
<path d="M169.788 38.0804C168.688 38.0991 167.597 37.8939 166.578 37.4773C165.559 37.0606 164.635 36.4411 163.86 35.6559C162.296 34.0691 161.418 31.9244 161.418 29.6892C161.418 27.454 162.296 25.3094 163.86 23.7226C165.45 22.1679 167.579 21.2981 169.796 21.2981C172.012 21.2981 174.142 22.1679 175.731 23.7226C176.912 24.8976 177.717 26.4005 178.043 28.0388C178.37 29.6771 178.203 31.3762 177.564 32.9185C176.925 34.4607 175.843 35.7759 174.456 36.6955C173.07 37.6152 171.442 38.0974 169.782 38.0804M169.782 24.9258C169.165 24.9126 168.553 25.026 167.981 25.259C167.409 25.492 166.891 25.8398 166.458 26.2812C165.593 27.2025 165.111 28.4218 165.111 29.6892C165.111 30.9566 165.593 32.176 166.458 33.0973C167.349 33.9666 168.541 34.4528 169.783 34.4528C171.024 34.4528 172.216 33.9666 173.107 33.0973C173.972 32.176 174.454 30.9566 174.454 29.6892C174.454 28.4218 173.972 27.2025 173.107 26.2812C172.674 25.8397 172.156 25.4918 171.584 25.2588C171.013 25.0257 170.4 24.9125 169.783 24.9258" fill="black"/>
<path d="M190.795 37.6753V28.2527C190.826 27.7877 190.764 27.3212 190.613 26.8807C190.461 26.4403 190.224 26.0347 189.914 25.6881C189.591 25.3837 189.209 25.1481 188.793 24.9957C188.376 24.8432 187.933 24.777 187.491 24.801C186.987 24.7796 186.484 24.8624 186.014 25.0442C185.543 25.2261 185.114 25.5031 184.754 25.8582C183.994 26.7677 183.621 27.9422 183.717 29.1267V37.6741H180.018V21.7048H183.717V23.3319C184.275 22.6472 184.987 22.1057 185.793 21.7519C186.6 21.398 187.479 21.242 188.357 21.2965C189.179 21.2648 189.998 21.4059 190.763 21.7108C191.527 22.0157 192.22 22.4777 192.797 23.0673C193.976 24.3908 194.586 26.1307 194.492 27.9055V37.6717L190.795 37.6753Z" fill="black"/>
<path d="M207.515 37.6753V28.2527C207.546 27.7877 207.484 27.3212 207.333 26.8807C207.181 26.4403 206.944 26.0347 206.634 25.6881C206.31 25.3836 205.929 25.148 205.512 24.9956C205.095 24.8431 204.652 24.7769 204.21 24.801C203.706 24.7796 203.203 24.8624 202.732 25.0442C202.262 25.2261 201.833 25.5031 201.473 25.8582C200.713 26.7677 200.34 27.9422 200.435 29.1267V37.6741H196.736V21.7048H200.435V23.3319C200.994 22.6472 201.705 22.1057 202.512 21.7519C203.319 21.398 204.197 21.242 205.076 21.2965C205.898 21.2644 206.719 21.4056 207.484 21.7109C208.25 22.0163 208.943 22.4791 209.521 23.0697C210.7 24.3931 211.309 26.133 211.215 27.9079V37.6741L207.515 37.6753Z" fill="black"/>
<path d="M238.677 38.081C237.574 38.0942 236.479 37.887 235.455 37.4712C234.432 37.0555 233.501 36.4395 232.716 35.659C231.931 34.8785 231.308 33.949 230.883 32.9243C230.457 31.8997 230.238 30.8003 230.238 29.6898C230.238 28.5794 230.457 27.48 230.883 26.4553C231.308 25.4307 231.931 24.5012 232.716 23.7206C233.501 22.9401 234.432 22.3242 235.455 21.9084C236.479 21.4927 237.574 21.2854 238.677 21.2987C240.157 21.284 241.613 21.6698 242.894 22.4158C244.119 23.1164 245.114 24.1623 245.755 25.4245L245.829 25.5706L242.638 27.4348L242.557 27.2635C242.229 26.5571 241.695 25.9676 241.026 25.573C240.303 25.154 239.48 24.9409 238.646 24.9564C238.032 24.9419 237.421 25.0547 236.852 25.2876C236.283 25.5206 235.767 25.8687 235.337 26.3105C234.482 27.2244 234.005 28.4325 234.005 29.688C234.005 30.9436 234.482 32.1517 235.337 33.0656C235.767 33.5074 236.283 33.8555 236.852 34.0885C237.421 34.3214 238.032 34.4341 238.646 34.4197C239.482 34.4298 240.304 34.2113 241.026 33.7875C241.706 33.3936 242.26 32.8119 242.622 32.1113L242.704 31.9497L245.894 33.7791L245.815 33.9288C245.144 35.1974 244.131 36.2498 242.893 36.9651C241.612 37.7111 240.156 38.0969 238.676 38.0822" fill="black"/>
<path d="M254.769 37.811C253.524 37.8884 252.283 37.597 251.2 36.9729C250.037 36.1815 249.447 34.7196 249.447 32.6268V25.3018H246.592V21.71H249.447V18.3732L253.147 17.019V21.7052H256.997V25.297H253.147V32.622C253.125 32.8484 253.149 33.0768 253.216 33.2941C253.283 33.5113 253.392 33.713 253.537 33.8875C253.867 34.1652 254.285 34.3143 254.716 34.3078C254.958 34.3205 255.225 34.3269 255.519 34.3269C255.908 34.3269 256.352 34.315 256.828 34.291L257.009 34.2826V37.6494L256.858 37.6673C256.168 37.7547 255.474 37.8007 254.779 37.805" fill="black"/>
<path d="M91.3199 32.7713C91.181 32.9407 91.0311 33.1007 90.8713 33.2502C89.8505 34.1955 88.5042 34.7039 87.1174 34.6678C86.5075 34.6776 85.9025 34.5563 85.3429 34.3118C84.7833 34.0673 84.2821 33.7054 83.8728 33.2502C83.7246 33.0877 83.5875 32.9153 83.4623 32.7342L91.672 29.7266L95.1939 28.4372C94.9764 26.6534 94.1743 24.9935 92.9142 23.7199C92.1552 22.9514 91.2527 22.3415 90.2585 21.9253C89.2644 21.5092 88.1983 21.2949 87.1216 21.2949C86.0449 21.2949 84.9788 21.5092 83.9846 21.9253C82.9905 22.3415 82.088 22.9514 81.329 23.7199C79.7993 25.3249 78.9453 27.4627 78.9453 29.6865C78.9453 31.9103 79.7993 34.0481 81.329 35.6532C82.0766 36.4347 82.9759 37.0533 83.971 37.4703C84.9662 37.8874 86.036 38.0941 87.1139 38.0777C89.4384 38.1309 91.6902 37.2597 93.3806 35.6532C93.7301 35.3213 94.0517 34.9609 94.342 34.5756L94.1611 34.4415L91.3199 32.7713ZM83.8728 26.1228C84.2882 25.6754 84.7906 25.3186 85.3487 25.0748C85.9069 24.8309 86.5089 24.705 87.1174 24.705C87.7259 24.705 88.3279 24.8309 88.8861 25.0748C89.4442 25.3186 89.9466 25.6754 90.3621 26.1228C90.4993 26.2742 90.6268 26.4341 90.744 26.6017L82.5628 29.5949C82.5419 28.3117 83.0102 27.0692 83.8716 26.1228" fill="black"/>
<path d="M123.082 32.7713C122.943 32.9407 122.794 33.1007 122.634 33.2502C121.613 34.1955 120.267 34.7039 118.88 34.6678C118.27 34.6776 117.665 34.5563 117.105 34.3118C116.546 34.0673 116.045 33.7054 115.635 33.2502C115.487 33.0877 115.35 32.9153 115.225 32.7342L123.435 29.7266L126.956 28.4372C126.739 26.6536 125.937 24.9937 124.678 23.7199C123.919 22.9514 123.016 22.3415 122.022 21.9253C121.028 21.5092 119.962 21.2949 118.885 21.2949C117.809 21.2949 116.742 21.5092 115.748 21.9253C114.754 22.3415 113.852 22.9514 113.093 23.7199C111.563 25.3249 110.709 27.4627 110.709 29.6865C110.709 31.9103 111.563 34.0481 113.093 35.6532C113.84 36.4347 114.74 37.0533 115.735 37.4703C116.73 37.8874 117.8 38.0941 118.878 38.0777C121.202 38.1307 123.453 37.2595 125.143 35.6532C125.493 35.3213 125.814 34.9609 126.104 34.5756L125.924 34.4415L123.082 32.7713ZM115.635 26.1228C116.051 25.6754 116.553 25.3186 117.111 25.0748C117.669 24.8309 118.271 24.705 118.88 24.705C119.488 24.705 120.09 24.8309 120.649 25.0748C121.207 25.3186 121.709 25.6754 122.125 26.1228C122.262 26.2742 122.389 26.4341 122.506 26.6017L114.325 29.5949C114.304 28.3117 114.773 27.0692 115.634 26.1228" fill="black"/>
<path d="M225.254 32.7713C225.115 32.9408 224.966 33.1007 224.806 33.2502C223.785 34.1955 222.439 34.7039 221.052 34.6678C220.442 34.6776 219.837 34.5563 219.277 34.3118C218.718 34.0673 218.217 33.7054 217.807 33.2502C217.659 33.0878 217.522 32.9154 217.397 32.7342L225.606 29.7266L229.128 28.4372C228.911 26.6536 228.109 24.9937 226.85 23.7199C226.091 22.9514 225.188 22.3415 224.194 21.9253C223.2 21.5092 222.134 21.2949 221.057 21.2949C219.98 21.2949 218.914 21.5092 217.92 21.9253C216.926 22.3415 216.024 22.9514 215.265 23.7199C213.735 25.3249 212.881 27.4627 212.881 29.6865C212.881 31.9103 213.735 34.0481 215.265 35.6532C216.012 36.4347 216.911 37.0533 217.907 37.4703C218.902 37.8874 219.972 38.0941 221.049 38.0777C223.374 38.1307 225.625 37.2595 227.315 35.6532C227.664 35.3213 227.986 34.9609 228.276 34.5756L228.096 34.4415L225.254 32.7713ZM217.807 26.1228C218.223 25.6754 218.725 25.3186 219.283 25.0748C219.841 24.8309 220.443 24.705 221.052 24.705C221.66 24.705 222.262 24.8309 222.821 25.0748C223.379 25.3186 223.881 25.6754 224.296 26.1228C224.434 26.2742 224.561 26.4341 224.678 26.6017L216.497 29.5949C216.476 28.3118 216.945 27.0693 217.806 26.1228" fill="black"/>
<path d="M35.7321 18.7555C35.7321 18.9983 35.6606 19.2355 35.5266 19.4373C35.3926 19.6391 35.2021 19.7964 34.9792 19.8893C34.7564 19.9822 34.5112 20.0065 34.2746 19.9592C34.038 19.9118 33.8207 19.7949 33.6502 19.6233C33.4796 19.4517 33.3635 19.233 33.3164 18.995C33.2693 18.7569 33.2935 18.5101 33.3858 18.2859C33.4781 18.0617 33.6344 17.87 33.835 17.7351C34.0355 17.6003 34.2713 17.5283 34.5125 17.5283C34.836 17.5283 35.1462 17.6576 35.3749 17.8878C35.6036 18.1179 35.7321 18.4301 35.7321 18.7555Z" fill="#01BA18"/>
<path d="M29.9179 13.8408C29.6162 13.8408 29.3213 13.9308 29.0705 14.0995C28.8196 14.2682 28.6241 14.5079 28.5087 14.7883C28.3932 15.0688 28.363 15.3774 28.4219 15.6752C28.4807 15.9729 28.626 16.2464 28.8393 16.4611C29.0527 16.6757 29.3245 16.8219 29.6203 16.8812C29.9162 16.9404 30.2229 16.91 30.5016 16.7938C30.7804 16.6776 31.0186 16.4809 31.1862 16.2285C31.3538 15.9761 31.4433 15.6793 31.4433 15.3757C31.4433 14.9686 31.2826 14.5782 30.9965 14.2904C30.7104 14.0025 30.3225 13.8408 29.9179 13.8408Z" fill="#0BBF2F"/>
<path d="M24.0584 12.7302C23.7019 12.7302 23.3534 12.8366 23.057 13.0359C22.7605 13.2352 22.5295 13.5185 22.3931 13.85C22.2566 14.1814 22.2209 14.5461 22.2905 14.898C22.36 15.2498 22.5317 15.573 22.7838 15.8267C23.0359 16.0804 23.3571 16.2531 23.7068 16.3231C24.0564 16.3931 24.4189 16.3572 24.7482 16.2199C25.0776 16.0826 25.3591 15.8501 25.5572 15.5518C25.7553 15.2536 25.861 14.9029 25.861 14.5441C25.861 14.063 25.6711 13.6017 25.333 13.2615C24.995 12.9213 24.5365 12.7302 24.0584 12.7302Z" fill="#0FC139"/>
<path d="M18.6449 14.4001C18.2199 14.4001 17.8045 14.527 17.4511 14.7646C17.0977 15.0022 16.8223 15.3399 16.6597 15.735C16.497 16.1301 16.4545 16.5648 16.5374 16.9843C16.6203 17.4037 16.825 17.789 17.1255 18.0914C17.426 18.3938 17.8089 18.5997 18.2257 18.6832C18.6425 18.7666 19.0746 18.7238 19.4672 18.5601C19.8599 18.3965 20.1955 18.1193 20.4316 17.7637C20.6677 17.4082 20.7937 16.9901 20.7937 16.5624C20.7937 15.989 20.5673 15.439 20.1643 15.0335C19.7614 14.628 19.2148 14.4001 18.6449 14.4001Z" fill="#18C552"/>
<path d="M14.8492 18.4265C14.383 18.4265 13.9273 18.5656 13.5397 18.8262C13.1521 19.0868 12.85 19.4573 12.6716 19.8907C12.4932 20.3241 12.4465 20.801 12.5375 21.261C12.6284 21.7211 12.8529 22.1437 13.1825 22.4754C13.5122 22.8071 13.9322 23.033 14.3894 23.1246C14.8466 23.2161 15.3205 23.1691 15.7512 22.9896C16.1819 22.8101 16.55 22.5061 16.809 22.116C17.068 21.726 17.2062 21.2674 17.2062 20.7983C17.2062 20.1693 16.9579 19.566 16.5159 19.1212C16.0738 18.6764 15.4743 18.4265 14.8492 18.4265Z" fill="#44D33B"/>
<path d="M13.4185 23.9871C12.9244 23.9871 12.4413 24.1345 12.0304 24.4108C11.6195 24.6871 11.2992 25.0797 11.1101 25.5392C10.921 25.9986 10.8715 26.5041 10.9679 26.9919C11.0643 27.4796 11.3023 27.9276 11.6518 28.2792C12.0012 28.6308 12.4464 28.8703 12.9311 28.9673C13.4158 29.0643 13.9182 29.0145 14.3747 28.8242C14.8313 28.6339 15.2215 28.3117 15.4961 27.8982C15.7706 27.4847 15.9171 26.9986 15.9171 26.5013C15.9171 25.8345 15.6539 25.195 15.1853 24.7235C14.7167 24.252 14.0812 23.9871 13.4185 23.9871Z" fill="#66DC22"/>
<path d="M14.8492 29.8291C14.383 29.8291 13.9273 29.9682 13.5397 30.2288C13.1521 30.4894 12.85 30.8599 12.6716 31.2933C12.4932 31.7267 12.4465 32.2035 12.5375 32.6636C12.6284 33.1237 12.8529 33.5463 13.1825 33.878C13.5122 34.2097 13.9322 34.4356 14.3894 34.5272C14.8466 34.6187 15.3205 34.5717 15.7512 34.3922C16.1819 34.2127 16.55 33.9087 16.809 33.5186C17.068 33.1286 17.2062 32.67 17.2062 32.2009C17.2062 31.5719 16.9579 30.9686 16.5159 30.5238C16.0738 30.079 15.4743 29.8291 14.8492 29.8291Z" fill="#89E60B"/>
<path d="M18.6449 34.2747C18.2199 34.2747 17.8045 34.4015 17.4511 34.6391C17.0977 34.8767 16.8223 35.2144 16.6597 35.6095C16.497 36.0046 16.4545 36.4393 16.5374 36.8588C16.6203 37.2782 16.825 37.6635 17.1255 37.9659C17.426 38.2683 17.8089 38.4742 18.2257 38.5577C18.6425 38.6411 19.0746 38.5983 19.4672 38.4346C19.8599 38.271 20.1955 37.9938 20.4316 37.6382C20.6677 37.2827 20.7937 36.8646 20.7937 36.4369C20.7937 35.8635 20.5673 35.3135 20.1643 34.908C19.7614 34.5025 19.2148 34.2747 18.6449 34.2747Z" fill="#66E51F"/>
<path d="M24.0584 36.6438C23.7019 36.6438 23.3534 36.7502 23.057 36.9495C22.7605 37.1488 22.5295 37.4321 22.3931 37.7635C22.2566 38.095 22.2209 38.4597 22.2905 38.8115C22.36 39.1634 22.5317 39.4866 22.7838 39.7403C23.0359 39.994 23.3571 40.1667 23.7068 40.2367C24.0564 40.3067 24.4189 40.2708 24.7482 40.1335C25.0776 39.9962 25.3591 39.7637 25.5572 39.4654C25.7553 39.1671 25.861 38.8164 25.861 38.4577C25.861 37.9766 25.6711 37.5152 25.333 37.1751C24.995 36.8349 24.5365 36.6438 24.0584 36.6438Z" fill="#11DB62"/>
<path d="M29.9179 36.0903C29.6162 36.0903 29.3213 36.1804 29.0705 36.349C28.8196 36.5177 28.6241 36.7574 28.5087 37.0379C28.3932 37.3183 28.363 37.6269 28.4219 37.9247C28.4807 38.2224 28.626 38.4959 28.8393 38.7106C29.0527 38.9252 29.3245 39.0714 29.6203 39.1307C29.9162 39.1899 30.2229 39.1595 30.5016 39.0433C30.7804 38.9271 31.0186 38.7304 31.1862 38.478C31.3538 38.2256 31.4433 37.9288 31.4433 37.6252C31.4433 37.2182 31.2826 36.8277 30.9965 36.5399C30.7104 36.252 30.3225 36.0903 29.9179 36.0903Z" fill="#00DEA7"/>
<path d="M34.5106 33.0161C34.2694 33.0161 34.0336 33.0881 33.833 33.2229C33.6325 33.3578 33.4762 33.5494 33.3838 33.7737C33.2915 33.9979 33.2674 34.2447 33.3145 34.4827C33.3615 34.7208 33.4777 34.9395 33.6482 35.1111C33.8188 35.2827 34.0361 35.3996 34.2727 35.447C34.5092 35.4943 34.7544 35.47 34.9773 35.3771C35.2001 35.2842 35.3906 35.1269 35.5246 34.9251C35.6586 34.7233 35.7301 34.486 35.7301 34.2433C35.7301 33.9178 35.6017 33.6057 35.3729 33.3755C35.1442 33.1454 34.834 33.0161 34.5106 33.0161Z" fill="#00D3C4"/>
<path d="M39.6953 36.0249C39.3936 36.0249 39.0987 36.1149 38.8478 36.2836C38.597 36.4522 38.4015 36.692 38.286 36.9724C38.1706 37.2529 38.1404 37.5615 38.1992 37.8593C38.2581 38.157 38.4034 38.4305 38.6167 38.6452C38.83 38.8598 39.1018 39.006 39.3977 39.0652C39.6936 39.1245 40.0003 39.0941 40.279 38.9779C40.5577 38.8617 40.7959 38.665 40.9636 38.4126C41.1312 38.1601 41.2206 37.8634 41.2206 37.5598C41.2206 37.1527 41.0599 36.7623 40.7738 36.4745C40.4878 36.1866 40.0998 36.0249 39.6953 36.0249Z" fill="#00D0C4"/>
<path d="M35.4295 39.5667C35.0321 39.5667 34.6436 39.6852 34.3132 39.9074C33.9827 40.1295 33.7251 40.4453 33.573 40.8147C33.4209 41.1842 33.381 41.5907 33.4584 41.9829C33.5359 42.3752 33.7272 42.7355 34.0081 43.0183C34.289 43.3012 34.647 43.4939 35.0367 43.5721C35.4265 43.6502 35.8305 43.6103 36.1977 43.4575C36.565 43.3046 36.8789 43.0456 37.0999 42.7132C37.3208 42.3808 37.4389 41.99 37.4391 41.5901C37.4391 41.0536 37.2274 40.5391 36.8506 40.1597C36.4738 39.7803 35.9626 39.567 35.4295 39.5667Z" fill="#00E0BF"/>
<path d="M30.0348 41.6821C29.5686 41.6821 29.1129 41.8212 28.7253 42.0818C28.3377 42.3425 28.0356 42.7129 27.8572 43.1463C27.6788 43.5797 27.6321 44.0566 27.723 44.5166C27.814 44.9767 28.0385 45.3994 28.3681 45.7311C28.6977 46.0628 29.1177 46.2887 29.5749 46.3802C30.0321 46.4717 30.5061 46.4247 30.9368 46.2452C31.3674 46.0657 31.7356 45.7617 31.9946 45.3716C32.2535 44.9816 32.3918 44.523 32.3918 44.0539C32.3918 43.4249 32.1434 42.8216 31.7014 42.3768C31.2594 41.932 30.6599 41.6821 30.0348 41.6821Z" fill="#00DB96"/>
<path d="M23.8921 41.9553C23.3711 41.9553 22.8617 42.1108 22.4285 42.4021C21.9953 42.6933 21.6577 43.1073 21.4583 43.5917C21.2589 44.0761 21.2068 44.609 21.3084 45.1232C21.4101 45.6374 21.661 46.1098 22.0294 46.4805C22.3978 46.8512 22.8671 47.1037 23.3781 47.206C23.8891 47.3082 24.4188 47.2557 24.9001 47.0551C25.3815 46.8545 25.7929 46.5147 26.0824 46.0788C26.3718 45.6429 26.5263 45.1304 26.5263 44.6061C26.5263 43.9031 26.2488 43.2288 25.7548 42.7317C25.2607 42.2346 24.5907 41.9553 23.8921 41.9553Z" fill="#0EDA65"/>
<path d="M18.0572 40.6025C17.563 40.6025 17.0799 40.75 16.6691 41.0263C16.2582 41.3026 15.9379 41.6952 15.7488 42.1547C15.5597 42.6141 15.5102 43.1196 15.6066 43.6073C15.703 44.0951 15.941 44.5431 16.2904 44.8947C16.6399 45.2463 17.0851 45.4858 17.5698 45.5828C18.0544 45.6798 18.5568 45.63 19.0134 45.4397C19.4699 45.2494 19.8602 44.9272 20.1347 44.5137C20.4093 44.1002 20.5558 43.6141 20.5558 43.1168C20.5558 42.45 20.2926 41.8105 19.824 41.339C19.3554 40.8674 18.7199 40.6025 18.0572 40.6025Z" fill="#4DE230"/>
<path d="M13.1624 37.4409C12.6825 37.4409 12.2135 37.5841 11.8145 37.8523C11.4156 38.1206 11.1046 38.5019 10.921 38.9479C10.7374 39.394 10.6893 39.8849 10.7829 40.3584C10.8766 40.832 11.1076 41.267 11.4469 41.6084C11.7862 41.9498 12.2185 42.1823 12.6891 42.2765C13.1597 42.3707 13.6475 42.3224 14.0908 42.1376C14.5341 41.9528 14.913 41.6399 15.1795 41.2385C15.4461 40.837 15.5884 40.365 15.5884 39.8822C15.5884 39.2347 15.3328 38.6138 14.8778 38.156C14.4229 37.6981 13.8058 37.4409 13.1624 37.4409Z" fill="#84E90C"/>
<path d="M9.55501 32.946C9.09989 32.946 8.655 33.0818 8.27658 33.3363C7.89817 33.5907 7.60323 33.9524 7.42907 34.3755C7.2549 34.7986 7.20933 35.2642 7.29812 35.7133C7.38691 36.1625 7.60607 36.5751 7.92788 36.8989C8.2497 37.2228 8.65972 37.4433 9.10609 37.5326C9.55246 37.622 10.0151 37.5761 10.4356 37.4009C10.8561 37.2256 11.2155 36.9288 11.4683 36.548C11.7212 36.1672 11.8561 35.7196 11.8561 35.2616C11.8561 34.6475 11.6137 34.0585 11.1821 33.6242C10.7506 33.19 10.1653 32.946 9.55501 32.946Z" fill="#90E807"/>
<path d="M7.58305 27.3682C7.14461 27.3682 6.716 27.4989 6.35139 27.7439C5.98678 27.989 5.70251 28.3372 5.53451 28.7447C5.36651 29.1523 5.32231 29.6007 5.4075 30.0335C5.49269 30.4663 5.70345 30.864 6.01314 31.1763C6.32283 31.4886 6.71756 31.7015 7.14746 31.7882C7.57736 31.8748 8.02314 31.8313 8.42847 31.6631C8.83381 31.4949 9.18051 31.2096 9.42478 30.8433C9.66905 30.4769 9.79992 30.0459 9.80086 29.6047C9.80149 29.3112 9.74458 29.0205 9.63341 28.7492C9.52223 28.4778 9.35897 28.2313 9.15296 28.0235C8.94696 27.8158 8.70226 27.651 8.43287 27.5385C8.16348 27.4261 7.87469 27.3682 7.58305 27.3682Z" fill="#6FDF1D"/>
<path d="M7.58186 21.1631C7.14327 21.1633 6.71459 21.2944 6.35003 21.5398C5.98547 21.7851 5.70139 22.1338 5.53372 22.5416C5.36604 22.9494 5.32229 23.3981 5.408 23.8309C5.4937 24.2638 5.70502 24.6613 6.01524 24.9733C6.32545 25.2853 6.72063 25.4977 7.15081 25.5837C7.58099 25.6698 8.02686 25.6255 8.43205 25.4565C8.83723 25.2876 9.18353 25.0016 9.42718 24.6346C9.67082 24.2676 9.80087 23.8362 9.80087 23.3948C9.80087 22.8029 9.5672 22.2353 9.15128 21.8167C8.73536 21.3982 8.17125 21.1631 7.58305 21.1631" fill="#5AD92B"/>
<path d="M9.55483 15.436C9.1022 15.4358 8.65967 15.5707 8.28323 15.8236C7.90679 16.0765 7.61334 16.436 7.44002 16.8568C7.2667 17.2775 7.22129 17.7406 7.30953 18.1873C7.39778 18.634 7.61571 19.0444 7.93577 19.3664C8.25583 19.6885 8.66362 19.9078 9.10756 19.9966C9.5515 20.0854 10.0116 20.0397 10.4298 19.8653C10.8479 19.6909 11.2052 19.3956 11.4565 19.0168C11.7079 18.638 11.8419 18.1927 11.8417 17.7372C11.8417 17.1269 11.6007 16.5416 11.1719 16.11C10.743 15.6785 10.1613 15.436 9.55483 15.436Z" fill="#3FD13F"/>
<path d="M13.1624 10.678C12.6825 10.678 12.2135 10.8212 11.8145 11.0894C11.4156 11.3577 11.1046 11.7389 10.921 12.185C10.7374 12.6311 10.6893 13.1219 10.7829 13.5955C10.8766 14.0691 11.1076 14.504 11.4469 14.8455C11.7862 15.1869 12.2185 15.4194 12.6891 15.5136C13.1597 15.6078 13.6475 15.5594 14.0908 15.3747C14.5341 15.1899 14.913 14.877 15.1795 14.4755C15.4461 14.0741 15.5884 13.6021 15.5884 13.1192C15.5884 12.4718 15.3328 11.8508 14.8778 11.393C14.4229 10.9352 13.8058 10.678 13.1624 10.678Z" fill="#1DC753"/>
<path d="M18.0572 7.37524C17.563 7.37524 17.0799 7.52271 16.6691 7.79898C16.2582 8.07525 15.9379 8.46793 15.7488 8.92736C15.5597 9.38678 15.5102 9.89232 15.6066 10.38C15.703 10.8678 15.941 11.3158 16.2904 11.6674C16.6399 12.019 17.0851 12.2585 17.5698 12.3555C18.0544 12.4525 18.5568 12.4027 19.0134 12.2124C19.4699 12.0221 19.8602 11.6999 20.1347 11.2864C20.4093 10.8729 20.5558 10.3868 20.5558 9.88953C20.5558 9.2227 20.2926 8.58318 19.824 8.11166C19.3554 7.64014 18.7199 7.37524 18.0572 7.37524Z" fill="#11C247"/>
<path d="M23.891 5.74317C23.3698 5.74222 22.86 5.89688 22.4262 6.18757C21.9923 6.47827 21.654 6.89193 21.4538 7.37621C21.2537 7.8605 21.2009 8.39363 21.302 8.90815C21.4031 9.42266 21.6536 9.89543 22.0218 10.2666C22.39 10.6378 22.8594 10.8908 23.3705 10.9934C23.8817 11.0961 24.4116 11.0439 24.8932 10.8434C25.3748 10.6429 25.7865 10.3032 26.0762 9.86714C26.3658 9.43111 26.5204 8.91842 26.5204 8.39395C26.5204 7.69092 26.2429 7.01668 25.7489 6.51956C25.2549 6.02244 24.5848 5.74317 23.8862 5.74317" fill="#0FC13A"/>
<path d="M30.0348 6.57129C29.5686 6.57129 29.1129 6.71039 28.7253 6.97101C28.3377 7.23163 28.0356 7.60206 27.8572 8.03545C27.6788 8.46884 27.6321 8.94573 27.723 9.40582C27.814 9.8659 28.0385 10.2885 28.3681 10.6202C28.6977 10.9519 29.1177 11.1778 29.5749 11.2693C30.0321 11.3609 30.5061 11.3139 30.9368 11.1344C31.3674 10.9549 31.7356 10.6509 31.9946 10.2608C32.2535 9.87077 32.3918 9.4122 32.3918 8.9431C32.3918 8.31406 32.1434 7.71078 31.7014 7.26598C31.2594 6.82118 30.6599 6.57129 30.0348 6.57129Z" fill="#0CBF31"/>
<path d="M35.4299 9.39404C35.0322 9.39381 34.6433 9.51227 34.3125 9.73446C33.9817 9.95665 33.7237 10.2726 33.5714 10.6423C33.419 11.012 33.379 11.4189 33.4565 11.8115C33.5339 12.204 33.7253 12.5647 34.0065 12.8478C34.2877 13.1309 34.6459 13.3237 35.036 13.4019C35.4261 13.4801 35.8305 13.4401 36.198 13.2869C36.5655 13.1338 36.8796 12.8745 37.1006 12.5417C37.3216 12.2089 37.4395 11.8177 37.4395 11.4174C37.4395 10.881 37.2279 10.3665 36.851 9.98711C36.4742 9.60768 35.963 9.39436 35.4299 9.39404Z" fill="#07BD24"/>
<path d="M39.6953 13.9075C39.3936 13.9075 39.0987 13.9975 38.8478 14.1661C38.597 14.3348 38.4015 14.5745 38.286 14.855C38.1706 15.1355 38.1404 15.4441 38.1992 15.7418C38.2581 16.0396 38.4034 16.3131 38.6167 16.5277C38.83 16.7424 39.1018 16.8886 39.3977 16.9478C39.6936 17.007 40.0003 16.9766 40.279 16.8605C40.5577 16.7443 40.7959 16.5475 40.9636 16.2951C41.1312 16.0427 41.2206 15.746 41.2206 15.4424C41.2206 15.0353 41.0599 14.6449 40.7738 14.357C40.4878 14.0692 40.0998 13.9075 39.6953 13.9075Z" fill="#00BA15"/>
<path d="M45.1496 38.4824C44.7658 38.4824 44.3906 38.5969 44.0714 38.8115C43.7523 39.0261 43.5036 39.3311 43.3567 39.6879C43.2098 40.0447 43.1714 40.4374 43.2463 40.8162C43.3211 41.195 43.506 41.5429 43.7774 41.816C44.0488 42.0891 44.3945 42.2751 44.771 42.3504C45.1474 42.4258 45.5376 42.3871 45.8922 42.2393C46.2468 42.0915 46.5499 41.8412 46.7631 41.5201C46.9763 41.199 47.0902 40.8214 47.0902 40.4352C47.0902 39.9173 46.8857 39.4206 46.5218 39.0544C46.1578 38.6882 45.6642 38.4824 45.1496 38.4824Z" fill="#00CFC4"/>
<path d="M41.1295 42.394C40.6353 42.394 40.1522 42.5415 39.7413 42.8178C39.3304 43.094 39.0102 43.4867 38.821 43.9461C38.6319 44.4056 38.5825 44.9111 38.6789 45.3988C38.7753 45.8866 39.0132 46.3346 39.3627 46.6862C39.7121 47.0378 40.1573 47.2773 40.642 47.3743C41.1267 47.4713 41.6291 47.4215 42.0856 47.2312C42.5422 47.0409 42.9324 46.7187 43.207 46.3052C43.4815 45.8917 43.6281 45.4056 43.6281 44.9083C43.6281 44.2415 43.3648 43.602 42.8963 43.1304C42.4277 42.6589 41.7921 42.394 41.1295 42.394Z" fill="#00DBC3"/>
<path d="M36.1284 45.6084C35.6074 45.6084 35.0981 45.7639 34.6649 46.0551C34.2317 46.3464 33.894 46.7604 33.6947 47.2448C33.4953 47.7291 33.4431 48.2621 33.5448 48.7763C33.6464 49.2905 33.8973 49.7628 34.2657 50.1336C34.6341 50.5043 35.1035 50.7567 35.6145 50.859C36.1255 50.9613 36.6551 50.9088 37.1365 50.7082C37.6178 50.5075 38.0292 50.1678 38.3187 49.7319C38.6081 49.296 38.7626 48.7834 38.7626 48.2592C38.7626 47.5561 38.4851 46.8819 37.9911 46.3848C37.4971 45.8877 36.827 45.6084 36.1284 45.6084Z" fill="#00E0BC"/>
<path d="M30.356 47.7722C29.8619 47.7722 29.3788 47.9197 28.9679 48.1959C28.557 48.4722 28.2367 48.8649 28.0476 49.3243C27.8585 49.7837 27.809 50.2893 27.9054 50.777C28.0018 51.2647 28.2398 51.7127 28.5892 52.0644C28.9387 52.416 29.3839 52.6555 29.8686 52.7525C30.3533 52.8495 30.8556 52.7997 31.3122 52.6094C31.7688 52.4191 32.159 52.0968 32.4336 51.6834C32.7081 51.2699 32.8546 50.7838 32.8546 50.2865C32.8546 49.6197 32.5914 48.9801 32.1228 48.5086C31.6542 48.0371 31.0187 47.7722 30.356 47.7722Z" fill="#00DB94"/>
<path d="M24.0479 48.5359C23.6093 48.5359 23.1805 48.6668 22.8157 48.912C22.451 49.1572 22.1668 49.5058 21.9989 49.9136C21.831 50.3214 21.7871 50.7701 21.8727 51.203C21.9583 51.6359 22.1695 52.0336 22.4797 52.3457C22.7898 52.6578 23.185 52.8704 23.6152 52.9565C24.0454 53.0426 24.4914 52.9984 24.8966 52.8295C25.3019 52.6606 25.6482 52.3745 25.8919 52.0075C26.1356 51.6405 26.2657 51.209 26.2657 50.7676C26.2657 50.1757 26.032 49.6081 25.6161 49.1896C25.2002 48.771 24.6361 48.5359 24.0479 48.5359Z" fill="#01D97B"/>
<path d="M17.9483 47.6057C17.5506 47.6057 17.1618 47.7244 16.8312 47.9467C16.5005 48.169 16.2428 48.4851 16.0906 48.8548C15.9384 49.2245 15.8986 49.6314 15.9761 50.0239C16.0537 50.4164 16.2452 50.7769 16.5264 51.0599C16.8077 51.3429 17.1659 51.5356 17.556 51.6136C17.9461 51.6917 18.3504 51.6516 18.7178 51.4985C19.0852 51.3453 19.3992 51.086 19.6202 50.7533C19.8411 50.4205 19.9591 50.0293 19.9591 49.6291C19.9591 49.0925 19.7472 48.5778 19.3701 48.1983C18.993 47.8189 18.4816 47.6057 17.9483 47.6057Z" fill="#27DD4C"/>
<path d="M12.4842 45.2065C12.1223 45.2065 11.7685 45.3145 11.4676 45.5169C11.1666 45.7192 10.9321 46.0068 10.7936 46.3433C10.6551 46.6798 10.6189 47.05 10.6895 47.4072C10.7601 47.7644 10.9344 48.0925 11.1903 48.35C11.4462 48.6076 11.7723 48.7829 12.1272 48.854C12.4822 48.925 12.8501 48.8886 13.1845 48.7492C13.5189 48.6098 13.8047 48.3738 14.0058 48.071C14.2068 47.7682 14.3142 47.4122 14.3142 47.048C14.3142 46.5596 14.1214 46.0912 13.7782 45.7459C13.435 45.4005 12.9696 45.2065 12.4842 45.2065Z" fill="#6EE61B"/>
<path d="M7.871 41.5432C7.53919 41.5432 7.21484 41.6422 6.93895 41.8277C6.66307 42.0132 6.44804 42.2769 6.32106 42.5854C6.19409 42.8938 6.16086 43.2332 6.2256 43.5607C6.29033 43.8882 6.45011 44.189 6.68473 44.4251C6.91935 44.6612 7.21828 44.822 7.54371 44.8871C7.86914 44.9522 8.20646 44.9188 8.513 44.791C8.81955 44.6633 9.08156 44.4469 9.2659 44.1693C9.45025 43.8917 9.54864 43.5653 9.54864 43.2314C9.54864 42.7837 9.37189 42.3543 9.05727 42.0377C8.74265 41.7211 8.31594 41.5432 7.871 41.5432Z" fill="#94EB03"/>
<path d="M4.31638 36.938C4.02976 36.938 3.74957 37.0235 3.51125 37.1838C3.27293 37.344 3.08719 37.5717 2.9775 37.8382C2.86782 38.1047 2.83912 38.3979 2.89503 38.6808C2.95095 38.9637 3.08897 39.2235 3.29165 39.4274C3.49432 39.6314 3.75254 39.7703 4.03366 39.8265C4.31477 39.8828 4.60616 39.8539 4.87097 39.7436C5.13577 39.6332 5.3621 39.4463 5.52134 39.2065C5.68058 38.9666 5.76558 38.6847 5.76558 38.3963C5.76558 38.0095 5.61289 37.6386 5.34112 37.3651C5.06934 37.0916 4.70073 36.938 4.31638 36.938Z" fill="#92E905"/>
<path d="M2.02813 31.438C1.77186 31.438 1.52135 31.5145 1.30827 31.6577C1.0952 31.801 0.929122 32.0046 0.831052 32.2429C0.732983 32.4811 0.707324 32.7433 0.757319 32.9962C0.807314 33.2491 0.930719 33.4814 1.11193 33.6638C1.29313 33.8461 1.52401 33.9703 1.77535 34.0206C2.02669 34.0709 2.28722 34.0451 2.52398 33.9464C2.76074 33.8477 2.9631 33.6806 3.10547 33.4662C3.24785 33.2518 3.32384 32.9997 3.32384 32.7418C3.32384 32.396 3.18733 32.0644 2.94434 31.8199C2.70134 31.5754 2.37177 31.438 2.02813 31.438Z" fill="#74E019"/>
<path d="M1.21956 25.271C0.978355 25.271 0.742565 25.343 0.542009 25.4778C0.341454 25.6127 0.18514 25.8043 0.092834 26.0286C0.000528414 26.2528 -0.0236229 26.4996 0.0234341 26.7376C0.0704911 26.9757 0.186643 27.1944 0.357201 27.366C0.52776 27.5376 0.745065 27.6545 0.981636 27.7018C1.21821 27.7492 1.46342 27.7249 1.68627 27.632C1.90911 27.5391 2.09958 27.3818 2.23359 27.18C2.3676 26.9782 2.43912 26.7409 2.43912 26.4982C2.43912 26.1727 2.31063 25.8606 2.08192 25.6304C1.85321 25.4003 1.54301 25.271 1.21956 25.271Z" fill="#5FDA27"/>
<path d="M2.02813 18.949C1.77186 18.949 1.52135 19.0254 1.30827 19.1687C1.0952 19.312 0.929122 19.5156 0.831052 19.7539C0.732983 19.9921 0.707324 20.2543 0.757319 20.5072C0.807314 20.7601 0.930719 20.9924 1.11193 21.1748C1.29313 21.3571 1.52401 21.4813 1.77535 21.5316C2.02669 21.5819 2.28722 21.5561 2.52398 21.4574C2.76074 21.3587 2.9631 21.1916 3.10547 20.9772C3.24785 20.7628 3.32384 20.5107 3.32384 20.2528C3.32384 19.907 3.18733 19.5754 2.94434 19.3309C2.70134 19.0863 2.37177 18.949 2.02813 18.949Z" fill="#50D633"/>
<path d="M4.31638 13.146C4.02976 13.146 3.74957 13.2315 3.51125 13.3918C3.27293 13.552 3.08719 13.7797 2.9775 14.0462C2.86782 14.3127 2.83912 14.6059 2.89503 14.8888C2.95095 15.1717 3.08897 15.4315 3.29165 15.6354C3.49432 15.8394 3.75254 15.9783 4.03366 16.0345C4.31477 16.0908 4.60616 16.0619 4.87097 15.9516C5.13577 15.8412 5.3621 15.6543 5.52134 15.4145C5.68058 15.1746 5.76558 14.8927 5.76558 14.6043C5.76558 14.2175 5.61289 13.8466 5.34112 13.5731C5.06934 13.2996 4.70073 13.146 4.31638 13.146Z" fill="#37CF45"/>
<path d="M7.871 8.08374C7.53919 8.08374 7.21484 8.18275 6.93895 8.36825C6.66307 8.55375 6.44804 8.8174 6.32106 9.12587C6.19409 9.43434 6.16086 9.77378 6.2256 10.1013C6.29033 10.4287 6.45011 10.7295 6.68473 10.9656C6.91935 11.2017 7.21828 11.3625 7.54371 11.4276C7.86914 11.4928 8.20646 11.4593 8.513 11.3316C8.81955 11.2038 9.08156 10.9874 9.2659 10.7098C9.45025 10.4322 9.54864 10.1058 9.54864 9.77191C9.54864 9.55021 9.50525 9.33069 9.42094 9.12587C9.33663 8.92106 9.21305 8.73495 9.05727 8.57819C8.90148 8.42143 8.71654 8.29708 8.513 8.21224C8.30946 8.12741 8.09131 8.08374 7.871 8.08374Z" fill="#20C851"/>
<path d="M12.4842 4.11011C12.1223 4.11011 11.7685 4.2181 11.4676 4.42044C11.1666 4.62278 10.9321 4.91037 10.7936 5.24684C10.6551 5.58332 10.6189 5.95357 10.6895 6.31077C10.7601 6.66797 10.9344 6.99608 11.1903 7.2536C11.4462 7.51113 11.7723 7.68651 12.1272 7.75756C12.4822 7.82861 12.8501 7.79215 13.1845 7.65277C13.5189 7.5134 13.8047 7.27738 14.0058 6.97456C14.2068 6.67174 14.3142 6.31572 14.3142 5.95152C14.3142 5.46315 14.1214 4.99478 13.7782 4.64945C13.435 4.30411 12.9696 4.11011 12.4842 4.11011Z" fill="#0FC138"/>
<path d="M17.9483 1.34937C17.5506 1.34937 17.1618 1.46804 16.8312 1.69037C16.5005 1.9127 16.2428 2.22872 16.0906 2.59845C15.9384 2.96817 15.8986 3.37501 15.9761 3.76752C16.0537 4.16002 16.2452 4.52055 16.5264 4.80353C16.8077 5.08651 17.1659 5.27922 17.556 5.35729C17.9461 5.43537 18.3504 5.3953 18.7178 5.24215C19.0852 5.089 19.3992 4.82966 19.6202 4.49691C19.8411 4.16416 19.9591 3.77296 19.9591 3.37277C19.9591 2.83613 19.7472 2.32147 19.3701 1.94201C18.993 1.56254 18.4816 1.34937 17.9483 1.34937Z" fill="#10C143"/>
<path d="M24.0479 0C23.6093 0 23.1805 0.130889 22.8157 0.376114C22.451 0.62134 22.1668 0.969889 21.9989 1.37768C21.831 1.78548 21.7871 2.23421 21.8727 2.66712C21.9583 3.10003 22.1695 3.49769 22.4797 3.8098C22.7898 4.12192 23.185 4.33447 23.6152 4.42058C24.0454 4.50669 24.4914 4.4625 24.8966 4.29358C25.3019 4.12467 25.6482 3.83862 25.8919 3.47161C26.1356 3.10461 26.2657 2.67313 26.2657 2.23173C26.2657 1.63984 26.032 1.07219 25.6161 0.653659C25.2002 0.235128 24.6361 0 24.0479 0Z" fill="#0FC139"/>
<path d="M30.356 0.205566C29.8619 0.205566 29.3788 0.353027 28.9679 0.6293C28.557 0.905574 28.2367 1.29825 28.0476 1.75768C27.8585 2.2171 27.809 2.72264 27.9054 3.21037C28.0018 3.69809 28.2398 4.1461 28.5892 4.49773C28.9387 4.84935 29.3839 5.08882 29.8686 5.18583C30.3533 5.28285 30.8556 5.23305 31.3122 5.04275C31.7688 4.85245 32.159 4.53019 32.4336 4.11672C32.7081 3.70325 32.8546 3.21713 32.8546 2.71985C32.8546 2.05302 32.5914 1.4135 32.1228 0.941984C31.6542 0.470464 31.0187 0.205566 30.356 0.205566Z" fill="#0FC138"/>
<path d="M36.1284 2.09009C35.6074 2.09009 35.0981 2.24555 34.6649 2.53682C34.2317 2.8281 33.894 3.24209 33.6947 3.72646C33.4953 4.21082 33.4431 4.74381 33.5448 5.25801C33.6464 5.77221 33.8973 6.24453 34.2657 6.61525C34.6341 6.98597 35.1035 7.23843 35.6145 7.34071C36.1255 7.44299 36.6551 7.3905 37.1365 7.18987C37.6178 6.98924 38.0292 6.64948 38.3187 6.21356C38.6081 5.77764 38.7626 5.26514 38.7626 4.74087C38.7626 4.03784 38.4851 3.3636 37.9911 2.86648C37.4971 2.36937 36.827 2.09009 36.1284 2.09009Z" fill="#08BE28"/>
<path d="M41.1295 5.58374C40.6353 5.58374 40.1522 5.7312 39.7413 6.00747C39.3304 6.28375 39.0102 6.67643 38.821 7.13585C38.6319 7.59528 38.5825 8.10082 38.6789 8.58854C38.7753 9.07627 39.0132 9.52427 39.3627 9.8759C39.7121 10.2275 40.1573 10.467 40.642 10.564C41.1267 10.661 41.6291 10.6112 42.0856 10.4209C42.5422 10.2306 42.9324 9.90836 43.207 9.49489C43.4815 9.08142 43.6281 8.59531 43.6281 8.09803C43.6281 7.4312 43.3648 6.79168 42.8963 6.32016C42.4277 5.84864 41.7921 5.58374 41.1295 5.58374Z" fill="#02BB19"/>
<path d="M45.1496 10.6113C44.7658 10.6113 44.3906 10.7259 44.0714 10.9404C43.7523 11.155 43.5036 11.46 43.3567 11.8168C43.2098 12.1736 43.1714 12.5663 43.2463 12.9451C43.3211 13.3239 43.506 13.6718 43.7774 13.9449C44.0488 14.218 44.3945 14.404 44.771 14.4793C45.1474 14.5547 45.5376 14.516 45.8922 14.3682C46.2468 14.2204 46.5499 13.9701 46.7631 13.649C46.9763 13.3279 47.0902 12.9503 47.0902 12.5641C47.0902 12.0462 46.8857 11.5495 46.5218 11.1833C46.1578 10.8171 45.6642 10.6113 45.1496 10.6113Z" fill="#00BA14"/>
</g>
<defs>
<clipPath id="clip0_21182_25490">
<rect width="257" height="53" fill="white"/>
</clipPath>
</defs>
</svg>
