<svg width="171" height="31" viewBox="0 0 171 31" fill="none" xmlns="http://www.w3.org/2000/svg">
<g clip-path="url(#clip0_18667_40806)">
<path d="M15.3718 0C6.92753 0.000128757 0.0821123 6.84557 0.0820313 15.2899C0.0820305 23.7344 6.92737 30.5798 15.3718 30.5798H22.3498V23.0917H32.0906L24.7638 14.5389H14.9747L22.2944 23.0835H15.3718C11.0676 23.0835 7.57847 19.5943 7.5784 15.29C7.5784 10.9858 11.0676 7.4965 15.3718 7.49636C17.5107 7.49644 19.4472 8.35698 20.8563 9.7527L21.4741 10.3648L26.7081 4.99402L26.0962 4.39184C23.3374 1.67671 19.5494 6.49466e-05 15.3718 0Z" fill="#ECE7E3"/>
<path d="M15.3718 0C6.92753 0.000128757 0.0821123 6.84557 0.0820313 15.2899C0.0820305 23.7344 6.92737 30.5798 15.3718 30.5798H22.3498V23.0917H32.0906L24.7638 14.5389H14.9747L22.2944 23.0835H15.3718C11.0676 23.0835 7.57847 19.5943 7.5784 15.29C7.5784 10.9858 11.0676 7.4965 15.3718 7.49636C17.5107 7.49644 19.4472 8.35698 20.8563 9.7527L21.4741 10.3648L26.7081 4.99402L26.0962 4.39184C23.3374 1.67671 19.5494 6.49466e-05 15.3718 0Z" fill="url(#paint0_linear_18667_40806)"/>
<path d="M155.701 7.34717H170.436V9.20564H159.213C158.422 9.20564 157.781 9.84659 157.781 10.6372V12.6636C157.781 13.4543 158.422 14.0952 159.213 14.0952H169.175V15.9537H159.213C158.422 15.9537 157.781 16.5947 157.781 17.3853V19.9426C157.781 20.7334 158.422 21.3742 159.213 21.3742H170.436V23.2329H155.701V7.34717Z" fill="#111113"/>
<path d="M137.84 7.34717H152.575V9.20564H141.351C140.561 9.20564 139.92 9.84659 139.92 10.6372V12.6636C139.92 13.4543 140.561 14.0952 141.351 14.0952H151.314V15.9537H141.351C140.561 15.9537 139.92 16.5947 139.92 17.3853V19.9426C139.92 20.7334 140.561 21.3742 141.351 21.3742H152.575V23.2329H137.84V7.34717Z" fill="#111113"/>
<path d="M135.234 9.20564H129.165C128.375 9.20564 127.734 9.84659 127.734 10.6372V23.2329H125.61V10.6372C125.61 9.84659 124.969 9.20564 124.178 9.20564H118.109V7.34717H135.234V9.20564Z" fill="#111113"/>
<path d="M115.495 7.34717V23.2329H113.371V7.34717H115.495Z" fill="#111113"/>
<path d="M102.829 23.2329H100.396L92.0547 7.34717H94.3336L100.79 19.6338C101.148 20.3144 102.122 20.3144 102.48 19.6338L108.936 7.34717H111.193L102.829 23.2329Z" fill="#111113"/>
<path d="M84.3222 7.34717H86.6451L94.9862 23.2329H92.7296L90.4285 18.8299H80.5388L78.2156 23.2329H75.959L84.3222 7.34717ZM86.3373 11.0322C85.9804 10.352 85.0069 10.3509 84.6484 11.0303L82.2512 15.5715C81.9156 16.2071 82.3765 16.9715 83.0952 16.9715H87.8762C88.594 16.9715 89.0548 16.209 88.7211 15.5735L86.3373 11.0322Z" fill="#111113"/>
<path d="M61.4267 16.5732V23.2329H59.3027V7.34717H69.2369C72.5555 7.34717 74.8565 8.91803 74.8565 11.9491C74.8565 14.4935 73.175 16.0643 70.6086 16.4626L75.1884 23.2329H72.7547L68.2854 16.5732H61.4267ZM61.4267 13.7824C61.4267 14.3096 61.8541 14.7368 62.381 14.7368H69.1261C71.3829 14.7368 72.7768 13.7412 72.7768 11.9491C72.7768 10.157 71.3829 9.18351 69.1261 9.18351H62.381C61.8541 9.18351 61.4267 9.61081 61.4267 10.1379V13.7824Z" fill="#111113"/>
<path d="M47.383 7.104C51.498 7.104 54.5292 9.1395 55.6575 12.237L53.8654 13.1883C52.914 10.5997 50.6573 9.00674 47.383 9.00674C43.2014 9.00674 40.2365 11.529 40.2365 15.2681C40.2365 19.0293 43.1791 21.5737 47.2943 21.5737C50.2112 21.5737 52.7424 20.2829 53.6122 18.2726C53.9331 17.5308 53.2627 16.8389 52.4543 16.8389H46.1439V14.9805H53.4265C54.7442 14.9805 55.8125 16.0487 55.8125 17.3664V23.2331H53.8212V20.4675C52.8476 22.1488 50.4139 23.4542 47.2943 23.4763C41.9623 23.4763 38.0684 20.0469 38.0684 15.2681C38.0684 10.4891 42.0286 7.104 47.383 7.104Z" fill="#111113"/>
</g>
<defs>
<linearGradient id="paint0_linear_18667_40806" x1="29.0027" y1="1.65927" x2="3.53273" y2="30.5798" gradientUnits="userSpaceOnUse">
<stop stop-color="#FF7200"/>
<stop offset="1" stop-color="#F01114"/>
</linearGradient>
<clipPath id="clip0_18667_40806">
<rect width="170.441" height="30.7225" fill="white"/>
</clipPath>
</defs>
</svg>
