<svg width="526" height="400" viewBox="0 0 526 400" fill="none" xmlns="http://www.w3.org/2000/svg">
<g clip-path="url(#clip0_22943_113364)">
<rect width="526" height="400" rx="9" fill="url(#paint0_linear_22943_113364)"/>
<g filter="url(#filter0_f_22943_113364)">
<path d="M421.711 -47.6963C395.122 -47.5729 369.731 -45.3078 347.389 -41.3587C281.573 -29.7439 269.623 -5.43298 269.623 39.4005V98.6118H425.155V118.349H211.253C166.051 118.349 126.471 145.488 114.091 197.116C99.8108 256.294 99.1774 293.222 114.091 355.013C125.147 401.008 151.55 433.78 196.751 433.78H250.227V362.799C250.227 311.52 294.644 266.287 347.389 266.287H502.739C545.983 266.287 580.505 230.72 580.505 187.338V39.4005C580.505 -2.70348 544.947 -34.3318 502.739 -41.3587C476.021 -45.8014 448.299 -47.8197 421.711 -47.6963ZM337.6 -0.0737686C353.666 -0.0737686 366.785 13.2455 366.785 29.6224C366.785 45.9414 353.666 59.1376 337.6 59.1376C321.477 59.1376 308.415 45.9414 308.415 29.6224C308.415 13.2455 321.477 -0.0737686 337.6 -0.0737686Z" fill="url(#paint1_linear_22943_113364)"/>
<path d="M599.901 118.349V187.339C599.901 240.825 554.505 285.843 502.739 285.843H347.388C304.835 285.843 269.622 322.223 269.622 364.791V512.729C269.622 554.833 306.275 579.598 347.388 591.678C396.621 606.138 443.833 608.752 502.739 591.678C541.895 580.353 580.505 557.563 580.505 512.729V453.518H425.154V433.781H658.271C703.473 433.781 720.317 402.286 736.037 355.013C752.275 306.347 751.584 259.547 736.037 197.117C724.866 152.167 703.53 118.349 658.271 118.349H599.901ZM512.528 492.992C528.651 492.992 541.713 506.188 541.713 522.507C541.712 538.884 528.651 552.203 512.528 552.203C496.462 552.203 483.343 538.884 483.343 522.507C483.343 506.188 496.462 492.992 512.528 492.992Z" fill="url(#paint2_linear_22943_113364)"/>
</g>
<g filter="url(#filter1_ddi_22943_113364)">
<mask id="path-3-inside-1_22943_113364" fill="white">
<path d="M62.5 137C62.5 132.582 66.0817 129 70.5 129H463.5C467.918 129 471.5 132.582 471.5 137V162H62.5V137Z"/>
</mask>
<path d="M62.5 137C62.5 132.582 66.0817 129 70.5 129H463.5C467.918 129 471.5 132.582 471.5 137V162H62.5V137Z" fill="#F9F9FA"/>
<path d="M62.5 129H471.5H62.5M471.5 163H62.5V161H471.5V163ZM471.5 161M62.5 162V129V162M62.5 162M471.5 129V162V129" fill="#DDDDDD" mask="url(#path-3-inside-1_22943_113364)"/>
<circle cx="83" cy="145.5" r="4.5" fill="#ECEBEF"/>
<circle cx="98" cy="145.5" r="4.5" fill="#ECEBEF"/>
<circle cx="113" cy="145.5" r="4.5" fill="#ECEBEF"/>
<path d="M62.5 162H471.5V274C471.5 278.418 467.918 282 463.5 282H70.5C66.0817 282 62.5 278.418 62.5 274V162Z" fill="white"/>
<path d="M95.76 217V215.852H98.532V207.872L95.76 209.944V208.502L98.07 206.78H99.792V215.852H102.06V217H95.76ZM95.704 237V235.838L99.106 232.198C99.6007 231.675 99.9507 231.209 100.156 230.798C100.361 230.387 100.464 229.986 100.464 229.594C100.464 229.034 100.301 228.591 99.974 228.264C99.6567 227.928 99.2227 227.76 98.672 227.76C98.1027 227.76 97.65 227.933 97.314 228.278C96.9873 228.614 96.824 229.071 96.824 229.65H95.564C95.592 228.726 95.886 227.993 96.446 227.452C97.006 226.911 97.748 226.64 98.672 226.64C99.6147 226.64 100.361 226.906 100.912 227.438C101.472 227.97 101.752 228.693 101.752 229.608C101.752 230.093 101.617 230.607 101.346 231.148C101.085 231.689 100.632 232.296 99.988 232.968L97.23 235.852H101.878V237H95.704Z" fill="#969696"/>
<path d="M112.479 217V215.852H115.209V210.448H112.759V209.3H116.469V215.852H119.059V217H112.479ZM115.699 207.914C115.391 207.914 115.148 207.835 114.971 207.676C114.794 207.517 114.705 207.303 114.705 207.032C114.705 206.752 114.794 206.533 114.971 206.374C115.148 206.206 115.391 206.122 115.699 206.122C116.007 206.122 116.25 206.206 116.427 206.374C116.604 206.533 116.693 206.752 116.693 207.032C116.693 207.303 116.604 207.517 116.427 207.676C116.25 207.835 116.007 207.914 115.699 207.914ZM120.524 217V209.3H121.616V210.322H121.644C121.69 209.977 121.826 209.697 122.05 209.482C122.283 209.267 122.577 209.16 122.932 209.16C123.268 209.16 123.552 209.258 123.786 209.454C124.019 209.65 124.187 209.916 124.29 210.252H124.304C124.369 209.916 124.514 209.65 124.738 209.454C124.971 209.258 125.265 209.16 125.62 209.16C126.114 209.16 126.506 209.347 126.796 209.72C127.094 210.084 127.244 210.56 127.244 211.148V217H126.068V211.134C126.068 210.826 125.993 210.583 125.844 210.406C125.694 210.219 125.489 210.126 125.228 210.126C124.976 210.126 124.775 210.215 124.626 210.392C124.476 210.569 124.402 210.812 124.402 211.12V217H123.366V211.134C123.366 210.826 123.291 210.583 123.142 210.406C122.992 210.219 122.792 210.126 122.54 210.126C122.278 210.126 122.073 210.215 121.924 210.392C121.774 210.569 121.7 210.812 121.7 211.12V217H120.524ZM129.366 219.52V209.3H130.626V210.77H130.64C130.705 210.266 130.925 209.874 131.298 209.594C131.671 209.305 132.147 209.16 132.726 209.16C133.501 209.16 134.117 209.417 134.574 209.93C135.031 210.434 135.26 211.129 135.26 212.016V214.27C135.26 215.157 135.031 215.857 134.574 216.37C134.117 216.883 133.501 217.14 132.726 217.14C132.147 217.14 131.671 216.995 131.298 216.706C130.925 216.417 130.705 216.025 130.64 215.53H130.598L130.626 217.28V219.52H129.366ZM132.306 216.048C132.838 216.048 133.253 215.908 133.552 215.628C133.851 215.348 134 214.895 134 214.27V212.03C134 211.395 133.851 210.943 133.552 210.672C133.253 210.392 132.838 210.252 132.306 210.252C131.793 210.252 131.382 210.415 131.074 210.742C130.775 211.069 130.626 211.521 130.626 212.1V214.2C130.626 214.779 130.775 215.231 131.074 215.558C131.382 215.885 131.793 216.048 132.306 216.048ZM140.673 217.112C139.749 217.112 139.011 216.841 138.461 216.3C137.919 215.759 137.649 215.003 137.649 214.032V212.268C137.649 211.288 137.919 210.532 138.461 210C139.002 209.459 139.739 209.188 140.673 209.188C141.606 209.188 142.343 209.459 142.885 210C143.426 210.532 143.697 211.288 143.697 212.268V214.032C143.697 215.003 143.421 215.759 142.871 216.3C142.329 216.841 141.597 217.112 140.673 217.112ZM140.673 215.992C141.223 215.992 141.653 215.838 141.961 215.53C142.278 215.222 142.437 214.769 142.437 214.172V212.128C142.437 211.531 142.278 211.078 141.961 210.77C141.653 210.462 141.223 210.308 140.673 210.308C140.131 210.308 139.702 210.462 139.385 210.77C139.067 211.078 138.909 211.531 138.909 212.128V214.172C138.909 214.769 139.067 215.222 139.385 215.53C139.702 215.838 140.131 215.992 140.673 215.992ZM146.435 217V209.3H147.695V210.77H147.723C147.789 210.275 147.999 209.883 148.353 209.594C148.708 209.305 149.184 209.16 149.781 209.16C150.584 209.16 151.2 209.403 151.629 209.888C152.068 210.364 152.287 211.045 152.287 211.932V212.59H151.027V211.932C151.027 210.812 150.481 210.252 149.389 210.252C148.839 210.252 148.419 210.411 148.129 210.728C147.84 211.045 147.695 211.503 147.695 212.1V217H146.435ZM158.232 217C157.597 217 157.088 216.818 156.706 216.454C156.323 216.081 156.132 215.586 156.132 214.97V210.448H153.92V209.3H156.132V207.13H157.392V209.3H160.542V210.448H157.392V214.97C157.392 215.231 157.466 215.446 157.616 215.614C157.774 215.773 157.98 215.852 158.232 215.852H160.472V217H158.232Z" fill="#395DEB"/>
<path d="M171.339 219.52V209.3H172.599V210.77H172.613C172.678 210.266 172.897 209.874 173.271 209.594C173.644 209.305 174.12 209.16 174.699 209.16C175.473 209.16 176.089 209.417 176.547 209.93C177.004 210.434 177.233 211.129 177.233 212.016V214.27C177.233 215.157 177.004 215.857 176.547 216.37C176.089 216.883 175.473 217.14 174.699 217.14C174.12 217.14 173.644 216.995 173.271 216.706C172.897 216.417 172.678 216.025 172.613 215.53H172.571L172.599 217.28V219.52H171.339ZM174.279 216.048C174.811 216.048 175.226 215.908 175.525 215.628C175.823 215.348 175.973 214.895 175.973 214.27V212.03C175.973 211.395 175.823 210.943 175.525 210.672C175.226 210.392 174.811 210.252 174.279 210.252C173.765 210.252 173.355 210.415 173.047 210.742C172.748 211.069 172.599 211.521 172.599 212.1V214.2C172.599 214.779 172.748 215.231 173.047 215.558C173.355 215.885 173.765 216.048 174.279 216.048ZM181.973 217.14C181.18 217.14 180.55 216.921 180.083 216.482C179.617 216.034 179.383 215.451 179.383 214.732C179.383 214.256 179.491 213.841 179.705 213.486C179.92 213.131 180.219 212.856 180.601 212.66C180.984 212.455 181.423 212.352 181.917 212.352H184.297V211.75C184.297 210.751 183.751 210.252 182.659 210.252C182.174 210.252 181.782 210.341 181.483 210.518C181.185 210.695 181.026 210.943 181.007 211.26H179.747C179.794 210.653 180.074 210.154 180.587 209.762C181.11 209.361 181.801 209.16 182.659 209.16C183.593 209.16 184.307 209.384 184.801 209.832C185.305 210.28 185.557 210.905 185.557 211.708V217H184.311V215.6H184.283C184.209 216.076 183.971 216.454 183.569 216.734C183.168 217.005 182.636 217.14 181.973 217.14ZM182.281 216.076C182.897 216.076 183.387 215.927 183.751 215.628C184.115 215.329 184.297 214.923 184.297 214.41V213.332H182.057C181.647 213.332 181.311 213.458 181.049 213.71C180.797 213.953 180.671 214.279 180.671 214.69C180.671 215.119 180.811 215.46 181.091 215.712C181.381 215.955 181.777 216.076 182.281 216.076ZM188.128 217V209.3H189.388V210.77H189.402C189.467 210.257 189.677 209.86 190.032 209.58C190.387 209.3 190.858 209.16 191.446 209.16C192.221 209.16 192.837 209.398 193.294 209.874C193.751 210.35 193.98 210.999 193.98 211.82V217H192.72V212.044C192.72 211.456 192.571 211.008 192.272 210.7C191.983 210.383 191.586 210.224 191.082 210.224C190.559 210.224 190.144 210.387 189.836 210.714C189.537 211.041 189.388 211.503 189.388 212.1V217H188.128ZM198.986 217.14C198.221 217.14 197.605 216.883 197.138 216.37C196.681 215.857 196.452 215.161 196.452 214.284V212.03C196.452 211.143 196.681 210.443 197.138 209.93C197.596 209.417 198.212 209.16 198.986 209.16C199.565 209.16 200.041 209.305 200.414 209.594C200.797 209.883 201.026 210.275 201.1 210.77H201.114L201.086 209.02V206.78H202.346V217H201.086V215.53H201.072C201.007 216.034 200.788 216.431 200.414 216.72C200.041 217 199.565 217.14 198.986 217.14ZM199.406 216.048C199.929 216.048 200.34 215.885 200.638 215.558C200.937 215.231 201.086 214.779 201.086 214.2V212.1C201.086 211.521 200.937 211.069 200.638 210.742C200.34 210.415 199.929 210.252 199.406 210.252C198.874 210.252 198.459 210.392 198.16 210.672C197.862 210.943 197.712 211.395 197.712 212.03V214.27C197.712 214.895 197.862 215.348 198.16 215.628C198.459 215.908 198.874 216.048 199.406 216.048ZM207.157 217.14C206.364 217.14 205.734 216.921 205.267 216.482C204.8 216.034 204.567 215.451 204.567 214.732C204.567 214.256 204.674 213.841 204.889 213.486C205.104 213.131 205.402 212.856 205.785 212.66C206.168 212.455 206.606 212.352 207.101 212.352H209.481V211.75C209.481 210.751 208.935 210.252 207.843 210.252C207.358 210.252 206.966 210.341 206.667 210.518C206.368 210.695 206.21 210.943 206.191 211.26H204.931C204.978 210.653 205.258 210.154 205.771 209.762C206.294 209.361 206.984 209.16 207.843 209.16C208.776 209.16 209.49 209.384 209.985 209.832C210.489 210.28 210.741 210.905 210.741 211.708V217H209.495V215.6H209.467C209.392 216.076 209.154 216.454 208.753 216.734C208.352 217.005 207.82 217.14 207.157 217.14ZM207.465 216.076C208.081 216.076 208.571 215.927 208.935 215.628C209.299 215.329 209.481 214.923 209.481 214.41V213.332H207.241C206.83 213.332 206.494 213.458 206.233 213.71C205.981 213.953 205.855 214.279 205.855 214.69C205.855 215.119 205.995 215.46 206.275 215.712C206.564 215.955 206.961 216.076 207.465 216.076ZM215.915 217.112C215.057 217.112 214.389 216.921 213.913 216.538C213.447 216.146 213.213 215.595 213.213 214.886H214.473C214.473 215.241 214.599 215.521 214.851 215.726C215.103 215.922 215.458 216.02 215.915 216.02H216.531C216.998 216.02 217.357 215.917 217.609 215.712C217.871 215.507 218.001 215.217 218.001 214.844C218.001 214.181 217.698 213.808 217.091 213.724L214.963 213.416C214.441 213.341 214.035 213.127 213.745 212.772C213.456 212.408 213.311 211.932 213.311 211.344C213.311 210.672 213.54 210.145 213.997 209.762C214.464 209.379 215.103 209.188 215.915 209.188H216.531C217.278 209.188 217.885 209.375 218.351 209.748C218.827 210.112 219.084 210.593 219.121 211.19H217.847C217.829 210.919 217.698 210.695 217.455 210.518C217.222 210.341 216.914 210.252 216.531 210.252H215.915C215.486 210.252 215.15 210.35 214.907 210.546C214.665 210.742 214.543 211.008 214.543 211.344C214.543 211.885 214.791 212.193 215.285 212.268L217.273 212.548C218.58 212.735 219.233 213.5 219.233 214.844C219.233 215.563 218.995 216.123 218.519 216.524C218.053 216.916 217.39 217.112 216.531 217.112H215.915ZM255.284 219.52V209.3H256.544V210.77H256.558C256.623 210.266 256.843 209.874 257.216 209.594C257.589 209.305 258.065 209.16 258.644 209.16C259.419 209.16 260.035 209.417 260.492 209.93C260.949 210.434 261.178 211.129 261.178 212.016V214.27C261.178 215.157 260.949 215.857 260.492 216.37C260.035 216.883 259.419 217.14 258.644 217.14C258.065 217.14 257.589 216.995 257.216 216.706C256.843 216.417 256.623 216.025 256.558 215.53H256.516L256.544 217.28V219.52H255.284ZM258.224 216.048C258.756 216.048 259.171 215.908 259.47 215.628C259.769 215.348 259.918 214.895 259.918 214.27V212.03C259.918 211.395 259.769 210.943 259.47 210.672C259.171 210.392 258.756 210.252 258.224 210.252C257.711 210.252 257.3 210.415 256.992 210.742C256.693 211.069 256.544 211.521 256.544 212.1V214.2C256.544 214.779 256.693 215.231 256.992 215.558C257.3 215.885 257.711 216.048 258.224 216.048ZM266.143 217.14C265.377 217.14 264.761 216.883 264.295 216.37C263.837 215.857 263.609 215.161 263.609 214.284V212.03C263.609 211.143 263.837 210.443 264.295 209.93C264.752 209.417 265.368 209.16 266.143 209.16C266.721 209.16 267.197 209.305 267.571 209.594C267.953 209.883 268.182 210.275 268.257 210.77H268.271L268.243 209.02V206.78H269.503V217H268.243V215.53H268.229C268.163 216.034 267.944 216.431 267.571 216.72C267.197 217 266.721 217.14 266.143 217.14ZM266.563 216.048C267.085 216.048 267.496 215.885 267.795 215.558C268.093 215.231 268.243 214.779 268.243 214.2V212.1C268.243 211.521 268.093 211.069 267.795 210.742C267.496 210.415 267.085 210.252 266.563 210.252C266.031 210.252 265.615 210.392 265.317 210.672C265.018 210.943 264.869 211.395 264.869 212.03V214.27C264.869 214.895 265.018 215.348 265.317 215.628C265.615 215.908 266.031 216.048 266.563 216.048ZM115.041 237.14C114.276 237.14 113.66 236.883 113.193 236.37C112.736 235.857 112.507 235.161 112.507 234.284V232.03C112.507 231.143 112.736 230.443 113.193 229.93C113.65 229.417 114.266 229.16 115.041 229.16C115.62 229.16 116.096 229.305 116.469 229.594C116.852 229.883 117.08 230.275 117.155 230.77H117.169L117.141 229.02V226.78H118.401V237H117.141V235.53H117.127C117.062 236.034 116.842 236.431 116.469 236.72C116.096 237 115.62 237.14 115.041 237.14ZM115.461 236.048C115.984 236.048 116.394 235.885 116.693 235.558C116.992 235.231 117.141 234.779 117.141 234.2V232.1C117.141 231.521 116.992 231.069 116.693 230.742C116.394 230.415 115.984 230.252 115.461 230.252C114.929 230.252 114.514 230.392 114.215 230.672C113.916 230.943 113.767 231.395 113.767 232.03V234.27C113.767 234.895 113.916 235.348 114.215 235.628C114.514 235.908 114.929 236.048 115.461 236.048ZM123.212 237.14C122.418 237.14 121.788 236.921 121.322 236.482C120.855 236.034 120.622 235.451 120.622 234.732C120.622 234.256 120.729 233.841 120.944 233.486C121.158 233.131 121.457 232.856 121.84 232.66C122.222 232.455 122.661 232.352 123.156 232.352H125.536V231.75C125.536 230.751 124.99 230.252 123.898 230.252C123.412 230.252 123.02 230.341 122.722 230.518C122.423 230.695 122.264 230.943 122.246 231.26H120.986C121.032 230.653 121.312 230.154 121.826 229.762C122.348 229.361 123.039 229.16 123.898 229.16C124.831 229.16 125.545 229.384 126.04 229.832C126.544 230.28 126.796 230.905 126.796 231.708V237H125.55V235.6H125.522C125.447 236.076 125.209 236.454 124.808 236.734C124.406 237.005 123.874 237.14 123.212 237.14ZM123.52 236.076C124.136 236.076 124.626 235.927 124.99 235.628C125.354 235.329 125.536 234.923 125.536 234.41V233.332H123.296C122.885 233.332 122.549 233.458 122.288 233.71C122.036 233.953 121.91 234.279 121.91 234.69C121.91 235.119 122.05 235.46 122.33 235.712C122.619 235.955 123.016 236.076 123.52 236.076ZM133.048 237C132.413 237 131.905 236.818 131.522 236.454C131.139 236.081 130.948 235.586 130.948 234.97V230.448H128.736V229.3H130.948V227.13H132.208V229.3H135.358V230.448H132.208V234.97C132.208 235.231 132.283 235.446 132.432 235.614C132.591 235.773 132.796 235.852 133.048 235.852H135.288V237H133.048ZM140.001 237.14C139.207 237.14 138.577 236.921 138.111 236.482C137.644 236.034 137.411 235.451 137.411 234.732C137.411 234.256 137.518 233.841 137.733 233.486C137.947 233.131 138.246 232.856 138.629 232.66C139.011 232.455 139.45 232.352 139.945 232.352H142.325V231.75C142.325 230.751 141.779 230.252 140.687 230.252C140.201 230.252 139.809 230.341 139.511 230.518C139.212 230.695 139.053 230.943 139.035 231.26H137.775C137.821 230.653 138.101 230.154 138.615 229.762C139.137 229.361 139.828 229.16 140.687 229.16C141.62 229.16 142.334 229.384 142.829 229.832C143.333 230.28 143.585 230.905 143.585 231.708V237H142.339V235.6H142.311C142.236 236.076 141.998 236.454 141.597 236.734C141.195 237.005 140.663 237.14 140.001 237.14ZM140.309 236.076C140.925 236.076 141.415 235.927 141.779 235.628C142.143 235.329 142.325 234.923 142.325 234.41V233.332H140.085C139.674 233.332 139.338 233.458 139.077 233.71C138.825 233.953 138.699 234.279 138.699 234.69C138.699 235.119 138.839 235.46 139.119 235.712C139.408 235.955 139.805 236.076 140.309 236.076ZM154.452 231.26V230.14H160.472V231.26H154.452ZM154.452 234.62V233.5H160.472V234.62H154.452ZM171.339 239.52V229.3H172.599V230.77H172.613C172.678 230.266 172.897 229.874 173.271 229.594C173.644 229.305 174.12 229.16 174.699 229.16C175.473 229.16 176.089 229.417 176.547 229.93C177.004 230.434 177.233 231.129 177.233 232.016V234.27C177.233 235.157 177.004 235.857 176.547 236.37C176.089 236.883 175.473 237.14 174.699 237.14C174.12 237.14 173.644 236.995 173.271 236.706C172.897 236.417 172.678 236.025 172.613 235.53H172.571L172.599 237.28V239.52H171.339ZM174.279 236.048C174.811 236.048 175.226 235.908 175.525 235.628C175.823 235.348 175.973 234.895 175.973 234.27V232.03C175.973 231.395 175.823 230.943 175.525 230.672C175.226 230.392 174.811 230.252 174.279 230.252C173.765 230.252 173.355 230.415 173.047 230.742C172.748 231.069 172.599 231.521 172.599 232.1V234.2C172.599 234.779 172.748 235.231 173.047 235.558C173.355 235.885 173.765 236.048 174.279 236.048ZM182.197 237.14C181.432 237.14 180.816 236.883 180.349 236.37C179.892 235.857 179.663 235.161 179.663 234.284V232.03C179.663 231.143 179.892 230.443 180.349 229.93C180.807 229.417 181.423 229.16 182.197 229.16C182.776 229.16 183.252 229.305 183.625 229.594C184.008 229.883 184.237 230.275 184.311 230.77H184.325L184.297 229.02V226.78H185.557V237H184.297V235.53H184.283C184.218 236.034 183.999 236.431 183.625 236.72C183.252 237 182.776 237.14 182.197 237.14ZM182.617 236.048C183.14 236.048 183.551 235.885 183.849 235.558C184.148 235.231 184.297 234.779 184.297 234.2V232.1C184.297 231.521 184.148 231.069 183.849 230.742C183.551 230.415 183.14 230.252 182.617 230.252C182.085 230.252 181.67 230.392 181.371 230.672C181.073 230.943 180.923 231.395 180.923 232.03V234.27C180.923 234.895 181.073 235.348 181.371 235.628C181.67 235.908 182.085 236.048 182.617 236.048ZM191.04 237.14C190.695 237.14 190.415 237.037 190.2 236.832C189.995 236.627 189.892 236.361 189.892 236.034C189.892 235.689 189.995 235.409 190.2 235.194C190.415 234.979 190.695 234.872 191.04 234.872C191.385 234.872 191.661 234.979 191.866 235.194C192.081 235.409 192.188 235.689 192.188 236.034C192.188 236.361 192.081 236.627 191.866 236.832C191.661 237.037 191.385 237.14 191.04 237.14ZM269.181 238.68C267.846 238.381 266.81 237.756 266.073 236.804C265.345 235.852 264.981 234.657 264.981 233.22V230.7C264.981 229.263 265.345 228.068 266.073 227.116C266.81 226.164 267.846 225.539 269.181 225.24V226.458C268.583 226.598 268.061 226.864 267.613 227.256C267.174 227.648 266.833 228.138 266.591 228.726C266.357 229.305 266.241 229.963 266.241 230.7V233.22C266.241 233.948 266.357 234.606 266.591 235.194C266.833 235.782 267.174 236.272 267.613 236.664C268.061 237.056 268.583 237.322 269.181 237.462V238.68ZM356.34 238.68V237.462C356.947 237.322 357.47 237.056 357.908 236.664C358.347 236.272 358.683 235.782 358.916 235.194C359.159 234.606 359.28 233.948 359.28 233.22V230.7C359.28 229.963 359.159 229.305 358.916 228.726C358.683 228.138 358.347 227.648 357.908 227.256C357.47 226.864 356.947 226.598 356.34 226.458V225.24C357.675 225.539 358.706 226.164 359.434 227.116C360.172 228.068 360.54 229.263 360.54 230.7V233.22C360.54 234.657 360.172 235.852 359.434 236.804C358.706 237.756 357.675 238.381 356.34 238.68Z" fill="black"/>
<path d="M232.341 217.14C231.547 217.14 230.917 216.921 230.451 216.482C229.984 216.034 229.751 215.451 229.751 214.732C229.751 214.256 229.858 213.841 230.073 213.486C230.287 213.131 230.586 212.856 230.969 212.66C231.351 212.455 231.79 212.352 232.285 212.352H234.665V211.75C234.665 210.751 234.119 210.252 233.027 210.252C232.541 210.252 232.149 210.341 231.851 210.518C231.552 210.695 231.393 210.943 231.375 211.26H230.115C230.161 210.653 230.441 210.154 230.955 209.762C231.477 209.361 232.168 209.16 233.027 209.16C233.96 209.16 234.674 209.384 235.169 209.832C235.673 210.28 235.925 210.905 235.925 211.708V217H234.679V215.6H234.651C234.576 216.076 234.338 216.454 233.937 216.734C233.535 217.005 233.003 217.14 232.341 217.14ZM232.649 216.076C233.265 216.076 233.755 215.927 234.119 215.628C234.483 215.329 234.665 214.923 234.665 214.41V213.332H232.425C232.014 213.332 231.678 213.458 231.417 213.71C231.165 213.953 231.039 214.279 231.039 214.69C231.039 215.119 231.179 215.46 231.459 215.712C231.748 215.955 232.145 216.076 232.649 216.076ZM241.099 217.112C240.24 217.112 239.573 216.921 239.097 216.538C238.63 216.146 238.397 215.595 238.397 214.886H239.657C239.657 215.241 239.783 215.521 240.035 215.726C240.287 215.922 240.642 216.02 241.099 216.02H241.715C242.182 216.02 242.541 215.917 242.793 215.712C243.054 215.507 243.185 215.217 243.185 214.844C243.185 214.181 242.882 213.808 242.275 213.724L240.147 213.416C239.624 213.341 239.218 213.127 238.929 212.772C238.64 212.408 238.495 211.932 238.495 211.344C238.495 210.672 238.724 210.145 239.181 209.762C239.648 209.379 240.287 209.188 241.099 209.188H241.715C242.462 209.188 243.068 209.375 243.535 209.748C244.011 210.112 244.268 210.593 244.305 211.19H243.031C243.012 210.919 242.882 210.695 242.639 210.518C242.406 210.341 242.098 210.252 241.715 210.252H241.099C240.67 210.252 240.334 210.35 240.091 210.546C239.848 210.742 239.727 211.008 239.727 211.344C239.727 211.885 239.974 212.193 240.469 212.268L242.457 212.548C243.764 212.735 244.417 213.5 244.417 214.844C244.417 215.563 244.179 216.123 243.703 216.524C243.236 216.916 242.574 217.112 241.715 217.112H241.099Z" fill="#395DEB"/>
<path d="M196.802 237V229.3H198.062V230.77H198.09C198.156 230.275 198.366 229.883 198.72 229.594C199.075 229.305 199.551 229.16 200.148 229.16C200.951 229.16 201.567 229.403 201.996 229.888C202.435 230.364 202.654 231.045 202.654 231.932V232.59H201.394V231.932C201.394 230.812 200.848 230.252 199.756 230.252C199.206 230.252 198.786 230.411 198.496 230.728C198.207 231.045 198.062 231.503 198.062 232.1V237H196.802ZM207.829 237.14C206.924 237.14 206.191 236.869 205.631 236.328C205.08 235.777 204.805 235.021 204.805 234.06V232.24C204.805 231.279 205.08 230.527 205.631 229.986C206.191 229.435 206.924 229.16 207.829 229.16C208.436 229.16 208.963 229.281 209.411 229.524C209.868 229.767 210.223 230.107 210.475 230.546C210.727 230.985 210.853 231.503 210.853 232.1V233.472H206.037V234.2C206.037 234.769 206.2 235.222 206.527 235.558C206.854 235.885 207.288 236.048 207.829 236.048C208.296 236.048 208.678 235.959 208.977 235.782C209.285 235.595 209.472 235.348 209.537 235.04H210.797C210.713 235.684 210.4 236.197 209.859 236.58C209.318 236.953 208.641 237.14 207.829 237.14ZM206.037 232.492H209.621V232.1C209.621 231.493 209.462 231.027 209.145 230.7C208.837 230.364 208.398 230.196 207.829 230.196C207.26 230.196 206.816 230.364 206.499 230.7C206.191 231.027 206.037 231.493 206.037 232.1V232.492ZM215.551 237.14C214.758 237.14 214.128 236.921 213.661 236.482C213.195 236.034 212.961 235.451 212.961 234.732C212.961 234.256 213.069 233.841 213.283 233.486C213.498 233.131 213.797 232.856 214.179 232.66C214.562 232.455 215.001 232.352 215.495 232.352H217.875V231.75C217.875 230.751 217.329 230.252 216.237 230.252C215.752 230.252 215.36 230.341 215.061 230.518C214.763 230.695 214.604 230.943 214.585 231.26H213.325C213.372 230.653 213.652 230.154 214.165 229.762C214.688 229.361 215.379 229.16 216.237 229.16C217.171 229.16 217.885 229.384 218.379 229.832C218.883 230.28 219.135 230.905 219.135 231.708V237H217.889V235.6H217.861C217.787 236.076 217.549 236.454 217.147 236.734C216.746 237.005 216.214 237.14 215.551 237.14ZM215.859 236.076C216.475 236.076 216.965 235.927 217.329 235.628C217.693 235.329 217.875 234.923 217.875 234.41V233.332H215.635C215.225 233.332 214.889 233.458 214.627 233.71C214.375 233.953 214.249 234.279 214.249 234.69C214.249 235.119 214.389 235.46 214.669 235.712C214.959 235.955 215.355 236.076 215.859 236.076ZM224.17 237.14C223.405 237.14 222.789 236.883 222.322 236.37C221.865 235.857 221.636 235.161 221.636 234.284V232.03C221.636 231.143 221.865 230.443 222.322 229.93C222.779 229.417 223.395 229.16 224.17 229.16C224.749 229.16 225.225 229.305 225.598 229.594C225.981 229.883 226.209 230.275 226.284 230.77H226.298L226.27 229.02V226.78H227.53V237H226.27V235.53H226.256C226.191 236.034 225.971 236.431 225.598 236.72C225.225 237 224.749 237.14 224.17 237.14ZM224.59 236.048C225.113 236.048 225.523 235.885 225.822 235.558C226.121 235.231 226.27 234.779 226.27 234.2V232.1C226.27 231.521 226.121 231.069 225.822 230.742C225.523 230.415 225.113 230.252 224.59 230.252C224.058 230.252 223.643 230.392 223.344 230.672C223.045 230.943 222.896 231.395 222.896 232.03V234.27C222.896 234.895 223.045 235.348 223.344 235.628C223.643 235.908 224.058 236.048 224.59 236.048ZM229.653 238.4V237.35H236.373V238.4H229.653ZM241.519 237.14C240.586 237.14 239.839 236.879 239.279 236.356C238.719 235.833 238.439 235.115 238.439 234.2V232.1C238.439 231.185 238.719 230.467 239.279 229.944C239.839 229.421 240.586 229.16 241.519 229.16C242.406 229.16 243.12 229.398 243.661 229.874C244.212 230.35 244.501 230.999 244.529 231.82H243.269C243.241 231.325 243.073 230.947 242.765 230.686C242.457 230.415 242.042 230.28 241.519 230.28C240.968 230.28 240.525 230.439 240.189 230.756C239.862 231.064 239.699 231.507 239.699 232.086V234.2C239.699 234.779 239.862 235.227 240.189 235.544C240.525 235.861 240.968 236.02 241.519 236.02C242.042 236.02 242.457 235.885 242.765 235.614C243.073 235.343 243.241 234.965 243.269 234.48H244.529C244.501 235.301 244.212 235.95 243.661 236.426C243.12 236.902 242.406 237.14 241.519 237.14ZM249.494 237.112C248.635 237.112 247.968 236.921 247.492 236.538C247.025 236.146 246.792 235.595 246.792 234.886H248.052C248.052 235.241 248.178 235.521 248.43 235.726C248.682 235.922 249.036 236.02 249.494 236.02H250.11C250.576 236.02 250.936 235.917 251.188 235.712C251.449 235.507 251.58 235.217 251.58 234.844C251.58 234.181 251.276 233.808 250.67 233.724L248.542 233.416C248.019 233.341 247.613 233.127 247.324 232.772C247.034 232.408 246.89 231.932 246.89 231.344C246.89 230.672 247.118 230.145 247.576 229.762C248.042 229.379 248.682 229.188 249.494 229.188H250.11C250.856 229.188 251.463 229.375 251.93 229.748C252.406 230.112 252.662 230.593 252.7 231.19H251.426C251.407 230.919 251.276 230.695 251.034 230.518C250.8 230.341 250.492 230.252 250.11 230.252H249.494C249.064 230.252 248.728 230.35 248.486 230.546C248.243 230.742 248.122 231.008 248.122 231.344C248.122 231.885 248.369 232.193 248.864 232.268L250.852 232.548C252.158 232.735 252.812 233.5 252.812 234.844C252.812 235.563 252.574 236.123 252.098 236.524C251.631 236.916 250.968 237.112 250.11 237.112H249.494ZM257.37 237L254.752 229.3H256.11L257.79 234.48C257.893 234.788 257.981 235.087 258.056 235.376C258.131 235.656 258.187 235.875 258.224 236.034C258.271 235.875 258.327 235.656 258.392 235.376C258.457 235.087 258.537 234.788 258.63 234.48L260.31 229.3H261.64L259.022 237H257.37Z" fill="#0B9F77"/>
<path d="M272.899 230.98L272.787 226.78H274.215L274.117 230.98H272.899ZM275.867 230.98L275.755 226.78H277.183L277.085 230.98H275.867ZM282.932 237.14C282.166 237.14 281.55 236.883 281.084 236.37C280.626 235.857 280.398 235.161 280.398 234.284V232.03C280.398 231.143 280.626 230.443 281.084 229.93C281.541 229.417 282.157 229.16 282.932 229.16C283.51 229.16 283.986 229.305 284.36 229.594C284.742 229.883 284.971 230.275 285.046 230.77H285.06L285.032 229.02V226.78H286.292V237H285.032V235.53H285.018C284.952 236.034 284.733 236.431 284.36 236.72C283.986 237 283.51 237.14 282.932 237.14ZM283.352 236.048C283.874 236.048 284.285 235.885 284.584 235.558C284.882 235.231 285.032 234.779 285.032 234.2V232.1C285.032 231.521 284.882 231.069 284.584 230.742C284.285 230.415 283.874 230.252 283.352 230.252C282.82 230.252 282.404 230.392 282.106 230.672C281.807 230.943 281.658 231.395 281.658 232.03V234.27C281.658 234.895 281.807 235.348 282.106 235.628C282.404 235.908 282.82 236.048 283.352 236.048ZM291.102 237.14C290.309 237.14 289.679 236.921 289.212 236.482C288.746 236.034 288.512 235.451 288.512 234.732C288.512 234.256 288.62 233.841 288.834 233.486C289.049 233.131 289.348 232.856 289.73 232.66C290.113 232.455 290.552 232.352 291.046 232.352H293.426V231.75C293.426 230.751 292.88 230.252 291.788 230.252C291.303 230.252 290.911 230.341 290.612 230.518C290.314 230.695 290.155 230.943 290.136 231.26H288.876C288.923 230.653 289.203 230.154 289.716 229.762C290.239 229.361 290.93 229.16 291.788 229.16C292.722 229.16 293.436 229.384 293.93 229.832C294.434 230.28 294.686 230.905 294.686 231.708V237H293.44V235.6H293.412C293.338 236.076 293.1 236.454 292.698 236.734C292.297 237.005 291.765 237.14 291.102 237.14ZM291.41 236.076C292.026 236.076 292.516 235.927 292.88 235.628C293.244 235.329 293.426 234.923 293.426 234.41V233.332H291.186C290.776 233.332 290.44 233.458 290.178 233.71C289.926 233.953 289.8 234.279 289.8 234.69C289.8 235.119 289.94 235.46 290.22 235.712C290.51 235.955 290.906 236.076 291.41 236.076ZM300.939 237C300.304 237 299.795 236.818 299.413 236.454C299.03 236.081 298.839 235.586 298.839 234.97V230.448H296.627V229.3H298.839V227.13H300.099V229.3H303.249V230.448H300.099V234.97C300.099 235.231 300.173 235.446 300.323 235.614C300.481 235.773 300.687 235.852 300.939 235.852H303.179V237H300.939ZM307.891 237.14C307.098 237.14 306.468 236.921 306.001 236.482C305.535 236.034 305.301 235.451 305.301 234.732C305.301 234.256 305.409 233.841 305.623 233.486C305.838 233.131 306.137 232.856 306.519 232.66C306.902 232.455 307.341 232.352 307.835 232.352H310.215V231.75C310.215 230.751 309.669 230.252 308.577 230.252C308.092 230.252 307.7 230.341 307.401 230.518C307.103 230.695 306.944 230.943 306.925 231.26H305.665C305.712 230.653 305.992 230.154 306.505 229.762C307.028 229.361 307.719 229.16 308.577 229.16C309.511 229.16 310.225 229.384 310.719 229.832C311.223 230.28 311.475 230.905 311.475 231.708V237H310.229V235.6H310.201C310.127 236.076 309.889 236.454 309.487 236.734C309.086 237.005 308.554 237.14 307.891 237.14ZM308.199 236.076C308.815 236.076 309.305 235.927 309.669 235.628C310.033 235.329 310.215 234.923 310.215 234.41V233.332H307.975C307.565 233.332 307.229 233.458 306.967 233.71C306.715 233.953 306.589 234.279 306.589 234.69C306.589 235.119 306.729 235.46 307.009 235.712C307.299 235.955 307.695 236.076 308.199 236.076ZM316.958 237.14C316.612 237.14 316.332 237.037 316.118 236.832C315.912 236.627 315.81 236.361 315.81 236.034C315.81 235.689 315.912 235.409 316.118 235.194C316.332 234.979 316.612 234.872 316.958 234.872C317.303 234.872 317.578 234.979 317.784 235.194C317.998 235.409 318.106 235.689 318.106 236.034C318.106 236.361 317.998 236.627 317.784 236.832C317.578 237.037 317.303 237.14 316.958 237.14ZM325.464 237.14C324.531 237.14 323.784 236.879 323.224 236.356C322.664 235.833 322.384 235.115 322.384 234.2V232.1C322.384 231.185 322.664 230.467 323.224 229.944C323.784 229.421 324.531 229.16 325.464 229.16C326.351 229.16 327.065 229.398 327.606 229.874C328.157 230.35 328.446 230.999 328.474 231.82H327.214C327.186 231.325 327.018 230.947 326.71 230.686C326.402 230.415 325.987 230.28 325.464 230.28C324.914 230.28 324.47 230.439 324.134 230.756C323.808 231.064 323.644 231.507 323.644 232.086V234.2C323.644 234.779 323.808 235.227 324.134 235.544C324.47 235.861 324.914 236.02 325.464 236.02C325.987 236.02 326.402 235.885 326.71 235.614C327.018 235.343 327.186 234.965 327.214 234.48H328.474C328.446 235.301 328.157 235.95 327.606 236.426C327.065 236.902 326.351 237.14 325.464 237.14ZM333.439 237.112C332.58 237.112 331.913 236.921 331.437 236.538C330.97 236.146 330.737 235.595 330.737 234.886H331.997C331.997 235.241 332.123 235.521 332.375 235.726C332.627 235.922 332.982 236.02 333.439 236.02H334.055C334.522 236.02 334.881 235.917 335.133 235.712C335.394 235.507 335.525 235.217 335.525 234.844C335.525 234.181 335.222 233.808 334.615 233.724L332.487 233.416C331.964 233.341 331.558 233.127 331.269 232.772C330.98 232.408 330.835 231.932 330.835 231.344C330.835 230.672 331.064 230.145 331.521 229.762C331.988 229.379 332.627 229.188 333.439 229.188H334.055C334.802 229.188 335.408 229.375 335.875 229.748C336.351 230.112 336.608 230.593 336.645 231.19H335.371C335.352 230.919 335.222 230.695 334.979 230.518C334.746 230.341 334.438 230.252 334.055 230.252H333.439C333.01 230.252 332.674 230.35 332.431 230.546C332.188 230.742 332.067 231.008 332.067 231.344C332.067 231.885 332.314 232.193 332.809 232.268L334.797 232.548C336.104 232.735 336.757 233.5 336.757 234.844C336.757 235.563 336.519 236.123 336.043 236.524C335.576 236.916 334.914 237.112 334.055 237.112H333.439ZM341.315 237L338.697 229.3H340.055L341.735 234.48C341.838 234.788 341.927 235.087 342.001 235.376C342.076 235.656 342.132 235.875 342.169 236.034C342.216 235.875 342.272 235.656 342.337 235.376C342.403 235.087 342.482 234.788 342.575 234.48L344.255 229.3H345.585L342.967 237H341.315ZM348.45 230.98L348.338 226.78H349.766L349.668 230.98H348.45ZM351.418 230.98L351.306 226.78H352.734L352.636 230.98H351.418Z" fill="#EB1826"/>
</g>
<path d="M439.287 176.236C438.299 176.24 437.355 176.324 436.525 176.471C434.079 176.903 433.635 177.808 433.635 179.475V181.678H439.415V182.412H431.466C429.787 182.412 428.316 183.422 427.856 185.342C427.325 187.544 427.302 188.917 427.856 191.216C428.267 192.927 429.248 194.146 430.928 194.146H432.915V191.506C432.915 189.598 434.565 187.915 436.525 187.915H442.298C443.905 187.915 445.187 186.592 445.187 184.979V179.475C445.187 177.909 443.866 176.733 442.298 176.471C441.305 176.306 440.275 176.231 439.287 176.236ZM436.161 178.007C436.758 178.007 437.246 178.503 437.246 179.112C437.246 179.719 436.758 180.21 436.161 180.21C435.562 180.21 435.077 179.719 435.077 179.112C435.077 178.503 435.562 178.007 436.161 178.007Z" fill="url(#paint3_linear_22943_113364)"/>
<path d="M445.908 182.412V184.979C445.908 186.968 444.221 188.643 442.298 188.643H436.525C434.944 188.643 433.635 189.996 433.635 191.58V197.083C433.635 198.649 434.997 199.57 436.525 200.02C438.354 200.558 440.109 200.655 442.298 200.02C443.753 199.598 445.187 198.751 445.187 197.083V194.88H439.415V194.146H448.077C449.757 194.146 450.382 192.974 450.967 191.216C451.57 189.406 451.544 187.665 450.967 185.342C450.552 183.67 449.759 182.412 448.077 182.412H445.908ZM442.661 196.349C443.26 196.349 443.746 196.84 443.746 197.447C443.746 198.056 443.26 198.551 442.661 198.551C442.064 198.551 441.577 198.056 441.577 197.447C441.577 196.84 442.064 196.349 442.661 196.349Z" fill="url(#paint4_linear_22943_113364)"/>
</g>
<defs>
<filter id="filter0_f_22943_113364" x="-114.051" y="-259" width="1083" height="1082" filterUnits="userSpaceOnUse" color-interpolation-filters="sRGB">
<feFlood flood-opacity="0" result="BackgroundImageFix"/>
<feBlend mode="normal" in="SourceGraphic" in2="BackgroundImageFix" result="shape"/>
<feGaussianBlur stdDeviation="42" result="effect1_foregroundBlur_22943_113364"/>
</filter>
<filter id="filter1_ddi_22943_113364" x="52.5" y="118" width="429" height="173" filterUnits="userSpaceOnUse" color-interpolation-filters="sRGB">
<feFlood flood-opacity="0" result="BackgroundImageFix"/>
<feColorMatrix in="SourceAlpha" type="matrix" values="0 0 0 0 0 0 0 0 0 0 0 0 0 0 0 0 0 0 127 0" result="hardAlpha"/>
<feOffset dy="-1"/>
<feGaussianBlur stdDeviation="5"/>
<feComposite in2="hardAlpha" operator="out"/>
<feColorMatrix type="matrix" values="0 0 0 0 0.563191 0 0 0 0 0.548128 0 0 0 0 1 0 0 0 0.81 0"/>
<feBlend mode="normal" in2="BackgroundImageFix" result="effect1_dropShadow_22943_113364"/>
<feColorMatrix in="SourceAlpha" type="matrix" values="0 0 0 0 0 0 0 0 0 0 0 0 0 0 0 0 0 0 127 0" result="hardAlpha"/>
<feOffset dy="4"/>
<feGaussianBlur stdDeviation="2"/>
<feComposite in2="hardAlpha" operator="out"/>
<feColorMatrix type="matrix" values="0 0 0 0 0 0 0 0 0 0 0 0 0 0 0 0 0 0 0.25 0"/>
<feBlend mode="normal" in2="effect1_dropShadow_22943_113364" result="effect2_dropShadow_22943_113364"/>
<feBlend mode="normal" in="SourceGraphic" in2="effect2_dropShadow_22943_113364" result="shape"/>
<feColorMatrix in="SourceAlpha" type="matrix" values="0 0 0 0 0 0 0 0 0 0 0 0 0 0 0 0 0 0 127 0" result="hardAlpha"/>
<feOffset dy="4"/>
<feGaussianBlur stdDeviation="2"/>
<feComposite in2="hardAlpha" operator="arithmetic" k2="-1" k3="1"/>
<feColorMatrix type="matrix" values="0 0 0 0 1 0 0 0 0 1 0 0 0 0 1 0 0 0 0.52 0"/>
<feBlend mode="normal" in2="shape" result="effect3_innerShadow_22943_113364"/>
</filter>
<linearGradient id="paint0_linear_22943_113364" x1="448.221" y1="-1.49047e-05" x2="156.277" y2="285.305" gradientUnits="userSpaceOnUse">
<stop stop-color="#5757BE"/>
<stop offset="1"/>
</linearGradient>
<linearGradient id="paint1_linear_22943_113364" x1="103.142" y1="-47.7017" x2="587.671" y2="365.099" gradientUnits="userSpaceOnUse">
<stop stop-color="#5A9FD4"/>
<stop offset="1" stop-color="#306998"/>
</linearGradient>
<linearGradient id="paint2_linear_22943_113364" x1="508.79" y1="517.529" x2="380.31" y2="337.294" gradientUnits="userSpaceOnUse">
<stop stop-color="#FFD43B"/>
<stop offset="1" stop-color="#FFE873"/>
</linearGradient>
<linearGradient id="paint3_linear_22943_113364" x1="427.449" y1="176.235" x2="445.47" y2="191.572" gradientUnits="userSpaceOnUse">
<stop stop-color="#5A9FD4"/>
<stop offset="1" stop-color="#306998"/>
</linearGradient>
<linearGradient id="paint4_linear_22943_113364" x1="442.522" y1="197.261" x2="437.741" y2="190.562" gradientUnits="userSpaceOnUse">
<stop stop-color="#FFD43B"/>
<stop offset="1" stop-color="#FFE873"/>
</linearGradient>
<clipPath id="clip0_22943_113364">
<rect width="526" height="400" rx="9" fill="white"/>
</clipPath>
</defs>
</svg>
