<svg width="543" height="279" viewBox="0 0 543 279" fill="none" xmlns="http://www.w3.org/2000/svg">
<g filter="url(#filter0_d_17197_78860)">
<rect x="24.8696" y="0.740662" width="493.261" height="229.981" rx="10.1142" fill="#161617" stroke="#252526" stroke-width="0.518676"/>
<path d="M25.1289 56.3643H517.871V220.607C517.871 226.05 513.459 230.462 508.016 230.462H34.9838C29.5411 230.462 25.1289 226.05 25.1289 220.607V56.3643Z" fill="#111113"/>
<path d="M254.165 150.655L261.211 130.679H264.775L257.729 150.655H254.165ZM265.471 150.655L272.516 130.679H276.081L269.035 150.655H265.471Z" fill="#C182FF"/>
<path d="M108.85 120.788H102.492V149.649H108.85V143.901L111.227 141.429L116.55 149.649H123.783L115.543 136.961L123.474 128.723H115.624L108.85 135.959V120.788Z" fill="white"/>
<path d="M174.696 122.316H168.414V128.723H164.772V133.891H168.414V144.905C168.414 146.445 168.806 147.643 169.633 148.454C170.459 149.265 171.678 149.649 173.245 149.649H178.749V144.593H174.696V133.891H178.749V128.723H174.696V122.316Z" fill="white"/>
<path fill-rule="evenodd" clip-rule="evenodd" d="M133.487 128.351C130.384 128.351 127.872 129.307 125.978 131.234L125.976 131.236C124.106 133.179 123.184 135.839 123.184 139.186C123.184 142.497 124.093 145.143 125.937 147.097C127.784 149.055 130.336 150.022 133.562 150.022C136.189 150.022 138.406 149.404 140.196 148.153L140.198 148.153L140.199 148.152C141.989 146.864 143.107 145.161 143.542 143.053L143.601 142.768H137.367L137.313 142.931C137.097 143.591 136.658 144.125 135.979 144.534C135.314 144.93 134.499 145.133 133.524 145.133C132.338 145.133 131.403 144.806 130.696 144.171C129.991 143.524 129.635 142.684 129.635 141.626V140.764H143.222L143.247 140.555C143.347 139.702 143.398 138.867 143.398 138.05C143.398 135.057 142.491 132.686 140.654 130.968C138.858 129.217 136.46 128.351 133.487 128.351ZM130.654 134.131C131.336 133.544 132.247 133.239 133.412 133.239C134.539 133.239 135.426 133.537 136.096 134.113L136.097 134.114L136.099 134.116C136.776 134.677 137.115 135.41 137.115 136.336V136.472H129.635V136.411C129.635 135.457 129.975 134.706 130.652 134.133L130.654 134.131Z" fill="white"/>
<path fill-rule="evenodd" clip-rule="evenodd" d="M154.365 128.351C151.705 128.351 149.569 128.942 147.983 130.15L147.983 130.151C146.4 131.367 145.612 133.053 145.612 135.182C145.612 136.843 146.133 138.205 147.191 139.243C148.242 140.276 149.801 140.967 151.839 141.338L151.841 141.338L155.487 141.935L155.491 141.936C156.103 142.019 156.559 142.184 156.877 142.414L156.879 142.415L156.881 142.416C157.172 142.62 157.373 143.002 157.433 143.63C157.43 144.194 157.205 144.62 156.751 144.933L156.749 144.935C156.295 145.255 155.617 145.431 154.682 145.431C153.657 145.431 152.887 145.209 152.345 144.792C151.827 144.385 151.559 143.801 151.559 143.005V142.768H145.294V143.005C145.294 145.139 146.137 146.854 147.816 148.129L147.816 148.13C149.502 149.4 151.787 150.022 154.645 150.022C157.441 150.022 159.676 149.419 161.324 148.186C162.993 146.947 163.828 145.223 163.828 143.042C163.828 141.325 163.335 139.936 162.327 138.904C161.323 137.877 159.835 137.231 157.894 136.94L157.892 136.94L154.363 136.363L154.36 136.362C153.922 136.302 153.623 136.259 153.46 136.234C153.331 136.201 153.161 136.139 152.949 136.045C152.75 135.957 152.552 135.829 152.356 135.656C152.077 135.408 151.932 135.078 151.932 134.641C151.932 134.088 152.132 133.685 152.526 133.398C152.931 133.104 153.522 132.941 154.328 132.941C155.253 132.941 155.91 133.131 156.336 133.471C156.754 133.805 156.986 134.313 157.003 135.038L157.009 135.269H163.257L163.249 135.025C163.184 132.982 162.355 131.35 160.765 130.15C159.179 128.942 157.037 128.351 154.365 128.351ZM161.181 147.997L161.324 148.186L161.323 148.187L161.181 147.997ZM152.199 144.979L152.344 144.791L152.345 144.792L152.346 144.793L152.199 144.979ZM157.67 143.619L157.434 143.641L157.433 143.63L157.433 143.619H157.67Z" fill="white"/>
<path fill-rule="evenodd" clip-rule="evenodd" d="M204.637 128.351C201.864 128.351 199.618 128.973 197.921 130.242C196.228 131.505 195.304 133.311 195.138 135.63L195.119 135.884H201.328L201.344 135.665C201.403 134.885 201.685 134.31 202.173 133.912L202.173 133.912C202.677 133.498 203.401 133.276 204.376 133.276C205.356 133.276 206.048 133.511 206.494 133.937C206.939 134.362 207.182 135.016 207.182 135.945V136.9H202.004C199.662 136.9 197.777 137.482 196.378 138.671C194.986 139.852 194.297 141.474 194.297 143.508C194.297 145.473 194.906 147.066 196.143 148.26L196.145 148.262C197.393 149.442 199.056 150.022 201.108 150.022C202.672 150.022 204.056 149.704 205.254 149.062L205.255 149.061C206.345 148.465 207.119 147.679 207.558 146.701L207.615 147.047L207.615 147.051C207.772 147.938 208.146 148.617 208.758 149.047L208.76 149.048L208.761 149.049C209.368 149.462 210.286 149.649 211.472 149.649H216.005V145.133H213.484V136.057C213.484 133.925 212.771 132.103 211.347 130.605C209.938 129.084 207.681 128.351 204.637 128.351ZM200.673 142.614C200.673 142.016 200.874 141.6 201.252 141.324C201.645 141.038 202.262 140.876 203.143 140.876H207.182V141.366C207.182 142.555 206.82 143.476 206.116 144.156C205.411 144.824 204.442 145.171 203.18 145.171C202.288 145.171 201.662 145.004 201.263 144.71C200.878 144.425 200.673 143.995 200.673 143.377V142.614Z" fill="white"/>
<path d="M186.99 128.723C184.833 128.723 183.332 129.289 182.619 130.518C182.311 131.044 182.096 131.562 181.977 132.073L181.977 132.076L181.976 132.078C181.872 132.571 181.822 133.172 181.822 133.878V149.649H188.105V133.891H194.193V128.723H186.99Z" fill="white"/>
<path d="M220.167 149.666C219.49 149.666 218.929 149.452 218.484 149.024C218.057 148.576 217.843 148.027 217.843 147.374C217.843 146.722 218.057 146.182 218.484 145.753C218.929 145.306 219.49 145.083 220.167 145.083C220.826 145.083 221.37 145.306 221.797 145.753C222.225 146.182 222.438 146.722 222.438 147.374C222.438 148.027 222.225 148.576 221.797 149.024C221.37 149.452 220.826 149.666 220.167 149.666Z" fill="#F62E76"/>
<path d="M75.9979 132.362C76.5131 131.848 77.3486 131.848 77.8638 132.362L79.9819 134.474C80.4972 134.988 80.4972 135.822 79.9819 136.336L77.8638 138.448C77.3486 138.962 76.5131 138.962 75.9979 138.448L73.8798 136.336C73.3645 135.822 73.3645 134.988 73.8798 134.474L75.9979 132.362Z" fill="#A950FF"/>
<path d="M85.7533 132.345C86.2594 131.84 87.0798 131.84 87.5859 132.345L89.7373 134.491C90.2434 134.996 90.2434 135.814 89.7373 136.319L87.5859 138.465C87.0798 138.969 86.2594 138.969 85.7533 138.465L83.6019 136.319C83.0958 135.814 83.0958 134.996 83.6019 134.491C84.1079 133.986 85.7533 132.345 85.7533 132.345Z" fill="#A950FF"/>
<path d="M76.0146 122.631C76.5206 122.127 77.3411 122.127 77.8471 122.631L79.9986 124.777C80.5046 125.282 80.5046 126.101 79.9986 126.605L77.8471 128.751C77.3411 129.256 76.5206 129.256 76.0146 128.751L73.8631 126.605C73.3571 126.101 73.3571 125.282 73.8631 124.777L76.0146 122.631Z" fill="#E9C1FF"/>
<path d="M75.113 129.618C75.6283 130.132 75.6283 130.965 75.113 131.479L72.9949 133.591C72.4797 134.105 71.6442 134.105 71.129 133.591L69.0109 131.479C68.4957 130.965 68.4956 130.132 69.0109 129.618L71.129 127.505C71.6442 126.991 72.4797 126.991 72.9949 127.505L75.113 129.618Z" fill="#CD88FF"/>
<path d="M70.2601 134.491C70.7662 134.996 70.7662 135.814 70.2601 136.319L68.1087 138.465C67.6026 138.969 66.7821 138.969 66.2761 138.465L64.1247 136.319C63.6186 135.814 63.6186 134.996 64.1247 134.491L66.2761 132.345C66.7821 131.84 67.6026 131.84 68.1087 132.345L70.2601 134.491Z" fill="#A950FF"/>
<path d="M84.8514 129.618C85.3666 130.132 85.3666 130.965 84.8514 131.479L82.7333 133.591C82.218 134.105 81.3826 134.105 80.8673 133.591L78.7493 131.479C78.234 130.965 78.234 130.132 78.7493 129.618L80.8673 127.505C81.3826 126.991 82.218 126.991 82.7333 127.505L84.8514 129.618Z" fill="#CD88FF"/>
<path d="M79.0153 143.492C80.1665 144.64 80.1665 146.502 79.0153 147.65C77.8642 148.798 75.9978 148.798 74.8466 147.65C73.6955 146.502 73.6955 144.64 74.8466 143.492C75.9978 142.344 77.8642 142.344 79.0153 143.492Z" fill="#F62E76"/>
<path d="M374.901 129.973H378.46C380.026 129.904 381.566 130.394 382.804 131.356C383.889 132.207 384.511 133.521 384.484 134.9C384.502 136.011 384.114 137.089 383.394 137.935C382.515 138.9 381.344 139.552 380.059 139.79L384.859 147.147H382.239L377.664 140.086H377.16V147.164H374.901V129.973ZM377.156 132.052V138.052C380.466 138.126 382.139 137.124 382.139 135.045C382.167 134.397 381.96 133.763 381.556 133.252C381.152 132.78 380.609 132.45 380.004 132.309C379.068 132.112 378.112 132.026 377.156 132.052ZM387.732 129.984H389.987V140.603C389.903 141.904 390.286 143.191 391.067 144.235C391.836 145.11 392.966 145.582 394.128 145.514C394.694 145.545 395.259 145.456 395.787 145.252C396.315 145.048 396.794 144.734 397.191 144.331C397.97 143.404 398.362 142.212 398.286 141.003V129.998H400.534V140.81C400.626 142.652 400.007 144.458 398.806 145.857C398.222 146.485 397.508 146.979 396.714 147.305C395.921 147.631 395.066 147.782 394.208 147.746C393.332 147.783 392.459 147.631 391.647 147.299C390.836 146.968 390.105 146.466 389.505 145.826C388.328 144.546 387.737 142.661 387.737 140.172L387.732 129.984ZM403.702 129.286L415.891 142.363V129.974H418.146V147.969L405.957 134.957V147.169H403.702V129.286ZM421.298 129.973H425.245C428.372 129.973 430.698 130.833 432.224 132.555C433.703 134.165 434.521 136.274 434.513 138.46C434.523 140.667 433.685 142.791 432.145 144.382C430.566 146.098 428.274 146.956 425.268 146.956H421.321L421.298 129.973ZM423.525 132.239V144.658H423.663C424.912 144.685 426.162 144.606 427.398 144.421C428.251 144.255 429.059 143.908 429.766 143.402C430.527 142.866 431.145 142.149 431.559 141.333C432.056 140.323 432.281 139.202 432.211 138.079C432.142 136.956 431.781 135.87 431.164 134.929C430.571 133.964 429.682 133.219 428.629 132.797C427.354 132.392 426.019 132.207 424.682 132.252L423.525 132.239ZM436.897 129.973H445.898V132.294H439.077V136.518H445.898V138.808H439.077V144.641H445.898V146.931H436.897V129.973ZM461.692 130.557V133.186C460.208 132.36 458.55 131.898 456.853 131.836C455.969 131.816 455.09 131.975 454.269 132.303C453.448 132.632 452.702 133.123 452.077 133.747C449.486 136.343 449.491 140.547 452.088 143.126L452.125 143.163C452.788 143.792 453.569 144.282 454.423 144.608C455.277 144.933 456.186 145.086 457.099 145.058C458.733 144.996 460.32 144.497 461.695 143.613V146.266C460.229 147.08 458.579 147.502 456.902 147.489C451.875 147.489 447.793 143.428 447.767 138.387C447.771 133.422 451.794 129.395 456.759 129.387C458.465 129.421 460.146 129.811 461.693 130.531L461.692 130.557ZM464.351 129.973H466.577V136.874L473.473 129.973H476.576L468.68 137.868L476.576 146.971H473.742L466.518 138.689V146.947H464.292L464.351 129.973Z" fill="white"/>
<path d="M309.432 111.954L316.182 122.595H349.952L343.259 111.954H309.432ZM322.971 133.23L326.24 138.335L322.72 143.945H356.801L360.185 138.607L356.801 133.366H323.048L322.971 133.23ZM316.029 154.641L309.414 165.086V165.299H343.263L349.973 154.659L316.029 154.641Z" fill="#F91629"/>
<circle cx="52.6909" cy="27.3999" r="6.29249" fill="#ED6A5E"/>
<circle cx="73.6636" cy="27.3999" r="6.29249" fill="#F4BF4F"/>
<circle cx="94.6382" cy="27.3999" r="6.29249" fill="#61C554"/>
</g>
<defs>
<filter id="filter0_d_17197_78860" x="0.610352" y="0.481445" width="541.779" height="278.5" filterUnits="userSpaceOnUse" color-interpolation-filters="sRGB">
<feFlood flood-opacity="0" result="BackgroundImageFix"/>
<feColorMatrix in="SourceAlpha" type="matrix" values="0 0 0 0 0 0 0 0 0 0 0 0 0 0 0 0 0 0 127 0" result="hardAlpha"/>
<feOffset dy="24"/>
<feGaussianBlur stdDeviation="12"/>
<feComposite in2="hardAlpha" operator="out"/>
<feColorMatrix type="matrix" values="0 0 0 0 0.352941 0 0 0 0 0.184314 0 0 0 0 0.835294 0 0 0 0.22 0"/>
<feBlend mode="normal" in2="BackgroundImageFix" result="effect1_dropShadow_17197_78860"/>
<feBlend mode="normal" in="SourceGraphic" in2="effect1_dropShadow_17197_78860" result="shape"/>
</filter>
</defs>
</svg>
