<svg width="21" height="21" viewBox="0 0 21 21" fill="none" xmlns="http://www.w3.org/2000/svg">
<path d="M10.5 0.111328C4.97 0.111328 0.5 4.58133 0.5 10.1113C0.5 15.6413 4.97 20.1113 10.5 20.1113C13.1522 20.1113 15.6957 19.0578 17.5711 17.1824C19.4464 15.307 20.5 12.7635 20.5 10.1113C20.5 4.58133 16 0.111328 10.5 0.111328ZM10.5 18.1113C8.37827 18.1113 6.34344 17.2685 4.84315 15.7682C3.34285 14.2679 2.5 12.2331 2.5 10.1113C2.5 7.9896 3.34285 5.95476 4.84315 4.45447C6.34344 2.95418 8.37827 2.11133 10.5 2.11133C12.6217 2.11133 14.6566 2.95418 16.1569 4.45447C17.6571 5.95476 18.5 7.9896 18.5 10.1113C18.5 12.2331 17.6571 14.2679 16.1569 15.7682C14.6566 17.2685 12.6217 18.1113 10.5 18.1113ZM14.68 5.87133L13.62 6.93133L12.56 5.87133L11.5 6.93133L12.56 7.99133L11.5 9.05133L12.56 10.1113L13.62 9.05133L14.68 10.1113L15.74 9.05133L14.68 7.99133L15.74 6.93133L14.68 5.87133ZM6.32 10.1113L7.38 9.05133L8.44 10.1113L9.5 9.05133L8.44 7.99133L9.5 6.93133L8.44 5.87133L7.38 6.93133L6.32 5.87133L5.26 6.93133L6.32 7.99133L5.26 9.05133L6.32 10.1113ZM10.5 12.1113C8.17 12.1113 6.19 13.5713 5.39 15.6113H15.61C14.81 13.5713 12.83 12.1113 10.5 12.1113Z" fill="url(#paint0_linear_8477_18691)"/>
<defs>
<linearGradient id="paint0_linear_8477_18691" x1="3.5133" y1="3.8242" x2="20.1644" y2="20.4477" gradientUnits="userSpaceOnUse">
<stop offset="0.015625" stop-color="#F2D5FF"/>
<stop offset="1" stop-color="#CB5AFF"/>
</linearGradient>
</defs>
</svg>
