<svg width="135" height="75" viewBox="0 0 135 75" fill="none" xmlns="http://www.w3.org/2000/svg">
<path d="M19.1204 29.2948H18.8311L11.1484 45.1899H13.0208L18.8954 32.7546L24.9548 45.1899H26.6987L19.1204 29.2948Z" fill="white"/>
<path d="M39.4685 30.6989C41.9759 30.6989 44.1698 32.0177 45.3431 33.9726L46.6932 33.2201C45.2547 30.8153 42.5545 29.194 39.4685 29.194C34.8637 29.194 31.1268 32.8012 31.1268 37.2462C31.1268 41.6913 34.8637 45.2985 39.4685 45.2985C42.5545 45.2985 45.2467 43.6772 46.6932 41.2723L45.3431 40.5199C44.1698 42.4748 41.9759 43.7935 39.4685 43.7935C35.7236 43.7935 32.6858 40.8612 32.6858 37.2462C32.6858 33.6312 35.7236 30.6989 39.4685 30.6989Z" fill="white"/>
<path d="M78.2199 29.3802H76.468V45.1123H78.2199V29.3802Z" fill="white"/>
<path d="M95.2088 29.194C90.604 29.194 86.8671 32.8012 86.8671 37.2462C86.8671 41.6913 90.604 45.2985 95.2088 45.2985C99.8139 45.2985 103.551 41.6913 103.551 37.2462C103.543 32.8012 99.8139 29.194 95.2088 29.194ZM95.2088 43.7935C91.4639 43.7935 88.4261 40.8612 88.4261 37.2462C88.4261 33.6312 91.4639 30.6989 95.2088 30.6989C98.9538 30.6989 101.992 33.6312 101.992 37.2462C101.992 40.8612 98.9538 43.7935 95.2088 43.7935Z" fill="white"/>
<path d="M124.726 29.3802L117.863 36.7187L111 29.3802H110.574V45.1123H112.206V34.4923C112.206 34.376 112.198 34.2518 112.198 34.1277V33.1425L113.178 34.1588C113.186 34.1665 113.186 34.1665 113.194 34.1743L114.319 35.3379L114.504 35.5318L117.871 39.0149L122.549 34.1743C123.007 33.639 123.674 32.7159 123.674 32.7159C123.674 32.7159 123.529 33.8252 123.529 34.5001V45.1201H125.16V29.3802H124.726Z" fill="white"/>
<path d="M69.5889 45.2985L65.2331 38.6736L63.1276 41.8697L62.2195 43.2583L63.5616 45.2985H69.5889Z" fill="white"/>
<path d="M63.5616 29.194L62.2195 31.2342L63.1276 32.615L64.108 34.1122L65.2331 35.8188L69.5889 29.194H63.5616Z" fill="white"/>
<path d="M55.6136 24.6714H48.0192L56.2887 37.2462L48.0192 49.8211H55.6136L63.875 37.2462L55.6136 24.6714Z" fill="white"/>
</svg>
