<svg width="135" height="75" viewBox="0 0 135 75" fill="none" xmlns="http://www.w3.org/2000/svg">
<path fill-rule="evenodd" clip-rule="evenodd" d="M31.1103 41.7465L31.4121 40.9156C32.0326 39.2373 31.7643 37.9246 29.8526 37.4427C32.0829 37.0107 33.3741 35.4985 33.9443 33.9531L34.1623 33.3716C35.051 30.9621 34.3635 29.1675 31.06 29.1675H23.0946L16.957 45.9173H24.9727C28.2763 45.9173 30.2215 44.1393 31.1103 41.7465ZM26.4987 39.8522L26.0292 41.1317C25.7944 41.7631 25.3752 42.0456 24.7379 42.0456H23.8995L25.0398 38.9548H25.8783C26.4987 38.9548 26.7335 39.2207 26.4987 39.8522ZM28.662 33.9698L28.1756 35.2825C27.9576 35.8807 27.5216 36.1632 26.9012 36.1632H26.0627L27.1863 33.0891H28.0247C28.662 33.0891 28.8967 33.3383 28.662 33.9698ZM39.9309 29.1509L29.7184 45.9173H34.6486L36.0907 43.4248H38.8241L38.3714 45.9173H43.9052L46.0014 29.1509H39.9309ZM39.4781 40.1513H37.9857L40.4843 35.5982L39.4781 40.1513ZM79.4393 41.4141L77.7791 45.9173H67.1139L71.608 33.6707H67.5331L63.039 45.9173H57.5051L61.9993 33.6707H55.7275L51.2334 45.9173H45.6995L50.1937 33.6707H46.5212L48.1646 29.1675H83.9334L82.3739 33.4214H77.2257L76.4711 35.4653H81.6193L80.2107 39.3204H75.0625L74.2911 41.4308H79.4393V41.4141ZM110.865 33.4048L110.127 35.4487H115.275L113.867 39.3038H108.702L107.93 41.4141H113.078L111.418 45.9173H90.4064L96.5439 29.1509H102.044L97.5501 41.4141H102.38L106.874 29.1509H117.556L115.996 33.4048H110.865ZM91.0772 41.4141L89.4338 45.9173H78.9362L85.0738 29.1509H90.5741L86.0799 41.4141H91.0772Z" fill="white"/>
</svg>
