<svg width="135" height="75" viewBox="0 0 135 75" fill="none" xmlns="http://www.w3.org/2000/svg">
<mask id="mask0_22685_135316" style="mask-type:luminance" maskUnits="userSpaceOnUse" x="36" y="25" width="65" height="26">
<path d="M100.094 25.0342H36.0938V50.0342H100.094V25.0342Z" fill="white"/>
</mask>
<g mask="url(#mask0_22685_135316)">
<path d="M100.094 32.883C100.094 37.2435 96.6804 40.7319 92.4137 40.7319H87.1515V49.8888H81.1071V25.0342H92.3426C96.6804 25.0342 100.094 28.5952 100.094 32.883ZM91.4181 30.1941H87.2227V35.3539H91.4181C92.7693 35.3539 93.8359 34.1185 93.8359 32.8103C93.8359 31.4295 92.7693 30.1941 91.4181 30.1941ZM71.5782 25.0342V35.1359H63.187V25.0342H57.1427V49.9615H63.187V40.8045H71.5782V49.9615H77.6226V25.0342H71.5782ZM54.7959 43.2028C54.7959 47.3452 51.1693 49.9615 47.3293 49.9615H36.0938V25.0342H46.9738C50.956 25.0342 54.2271 28.0138 54.2271 31.7202C54.2271 34.6272 52.8759 36.226 51.0271 37.3888C53.1604 38.3336 54.7959 39.7144 54.7959 43.2028ZM46.1204 39.9324H42.1381V44.7289H46.1204C47.6848 44.7289 48.5382 43.6388 48.5382 42.3307C48.5382 41.0226 47.4004 39.9324 46.1204 39.9324ZM45.5515 30.1941H42.1381V35.3539H45.5515C47.1159 35.3539 47.9693 34.1185 47.9693 32.8103C47.9693 31.4295 47.1159 30.1941 45.5515 30.1941Z" fill="white"/>
</g>
</svg>
