<svg width="135" height="75" viewBox="0 0 135 75" fill="none" xmlns="http://www.w3.org/2000/svg">
<path fill-rule="evenodd" clip-rule="evenodd" d="M104.588 15.1255V59.2543H30.1016V15.1255H104.588ZM76.1208 32.0275C77.0796 30.7274 77.9646 27.6682 76.4896 25.4502C75.5309 23.9971 73.9822 23.2323 72.4334 22.8499C68.156 21.8557 63.7311 23.2323 59.9699 25.3738C56.725 27.1328 53.4801 29.5802 51.3414 32.7923C50.6039 33.863 50.014 35.0867 49.6452 36.6163C49.2765 38.0694 49.1289 39.6755 49.3502 41.2051C50.4564 49.312 58.8638 52.2947 65.5011 51.9887C69.9998 51.8358 74.6459 50.5356 78.6284 48.1648C82.1683 46.0998 85.6344 43.1171 87.8468 39.3696C87.9206 39.2166 88.7319 37.7635 89.0268 37.9929C89.3218 38.2224 88.5107 39.599 88.3631 39.752C86.0769 43.6524 82.9795 47.0176 79.4395 49.6179C75.6784 52.3712 71.2535 54.1302 66.7548 54.8185C62.8462 55.3539 58.79 55.2009 55.1026 53.6713C52.0051 52.3712 49.3502 50.0768 48.0227 46.7116C46.8427 43.6524 47.1377 40.2109 48.2439 37.1517C51.2676 29.1213 58.1262 22.8499 65.7224 20.3261C69.1885 19.1789 74.0559 18.4906 77.1534 21.0909C80.9883 24.1501 79.3659 29.5037 76.1208 32.0275ZM76.1208 32.0275H77.3744L76.4157 32.7923L76.7845 34.016L75.752 33.2512L74.7932 34.016L75.1621 32.7923L74.1295 32.0275H75.3833L75.752 30.8038L76.1208 32.0275ZM67.4921 27.4387L68.5247 26.6739H67.2709L66.9022 25.4502L66.5334 26.6739H65.2797L66.2385 27.4387L65.8697 28.6624L66.9022 27.8976L67.8609 28.6624L67.4921 27.4387ZM73.6133 28.127L72.6545 28.8153L73.0233 30.039L71.9908 29.3507L71.0321 30.039L71.4009 28.8153L70.3684 28.127H71.6221L71.9908 26.9033L72.4333 28.127H73.6133ZM78.7757 37.3811L77.7432 38.1459L78.1857 39.3696L77.1532 38.6048L76.1207 39.3696L76.5633 38.1459L75.5308 37.3811H76.7107L77.1532 36.1574L77.522 37.3811H78.7757ZM76.4157 43.4995L77.3744 42.7347H76.1207L75.752 41.511L75.3833 42.7347H74.1295L75.1621 43.4995L74.7932 44.7231L75.752 43.9584L76.7845 44.7231L76.4157 43.4995ZM73.6133 46.6351L72.6545 47.3235L73.0233 48.6236L71.9908 47.8588L71.0321 48.6236L71.4009 47.3235L70.3684 46.6351H71.6221L71.9908 45.4115L72.4333 46.6351H73.6133ZM67.4921 48.8531L68.5247 48.0883H67.2709L66.9022 46.8646L66.5334 48.0883H65.2797L66.2385 48.8531L65.8697 50.0767L66.9022 49.3119L67.8609 50.0767L67.4921 48.8531ZM63.3623 46.6351L62.4035 47.3235L62.7722 48.6236L61.8135 47.8588L60.7811 48.6236L61.1498 47.3235L60.191 46.6351H61.371L61.8135 45.4115L62.1085 46.6351H63.3623ZM58.6424 43.4995L59.6749 42.7347H58.4211L58.0523 41.511L57.6836 42.7347H56.4299L57.4624 43.4995L57.0199 44.7231L58.0523 43.9584L59.0848 44.7231L58.6424 43.4995ZM58.2737 37.3811L57.3149 38.1459L57.6836 39.3696L56.6511 38.6048L55.6925 39.3696L56.0612 38.1459L55.1024 37.3811H56.2824L56.6511 36.1574L57.0199 37.3811H58.2737ZM58.6424 32.7923L59.6749 32.0275H58.4211L58.0523 30.8038L57.6836 32.0275H56.4299L57.4624 32.7923L57.0199 34.016L58.0523 33.2512L59.0848 34.016L58.6424 32.7923ZM63.3623 28.127L62.4035 28.8153L62.7722 30.039L61.8135 29.3507L60.7811 30.039L61.1498 28.8153L60.191 28.127H61.371L61.8135 26.9033L62.1085 28.127H63.3623Z" fill="white"/>
<path d="M75.1626 32.792C73.7614 34.5511 71.4014 36.1571 68.599 37.1514C66.7553 37.8397 64.9853 38.1456 63.2891 38.1456L64.5428 35.5453C68.5252 35.6218 73.6139 34.0922 75.1626 32.792Z" fill="white"/>
<path d="M32.3138 67.1318C31.5763 67.1318 30.9864 66.9024 30.6176 66.4435C30.2489 65.9846 30.0276 65.3728 30.0276 64.5315C30.0276 63.6902 30.2489 63.0784 30.6914 62.6195C31.0601 62.1606 31.6501 61.9312 32.4613 61.9312C32.9039 61.9312 33.42 62.0076 34.0101 62.1606V62.8489C33.3463 62.6195 32.8301 62.4665 32.4613 62.4665C31.9451 62.4665 31.5026 62.696 31.2076 63.0019C30.9126 63.3843 30.7651 63.8432 30.7651 64.5315C30.7651 65.1433 30.9126 65.6787 31.2076 65.9846C31.5026 66.367 31.9451 66.5199 32.4613 66.5199C32.9039 66.5199 33.42 66.367 33.9363 66.1375V66.7494C33.42 66.9788 32.8301 67.1318 32.3138 67.1318Z" fill="white"/>
<path d="M36.6656 67.1318C36.0019 67.1318 35.4119 66.9024 35.0432 66.4435C34.6744 65.9846 34.4531 65.2963 34.4531 64.5315C34.4531 63.7667 34.6744 63.0784 35.0432 62.6195C35.4119 62.1606 36.0019 61.9312 36.6656 61.9312C37.3293 61.9312 37.9193 62.1606 38.2881 62.6195C38.6568 63.0784 38.9518 63.7667 38.9518 64.5315C38.9518 65.3728 38.7305 65.9846 38.2881 66.4435C37.9193 66.9024 37.4031 67.1318 36.6656 67.1318ZM36.6656 66.6729C37.1819 66.6729 37.5506 66.4435 37.7718 66.1375C37.993 65.7551 38.1406 65.2963 38.1406 64.6079C38.1406 63.9196 37.993 63.4608 37.7718 63.0784C37.4768 62.696 37.1081 62.543 36.6656 62.543C36.1494 62.543 35.8543 62.7724 35.5594 63.0784C35.3381 63.4608 35.1906 63.9196 35.1906 64.6079C35.1906 65.2963 35.3381 65.7551 35.5594 66.1375C35.8543 66.4435 36.2231 66.6729 36.6656 66.6729Z" fill="white"/>
<path d="M40.2773 66.9787V62.084H40.9411L43.3748 65.908V62.084H43.9648V67.0552H43.3011L40.8673 63.2312V67.0552L40.2773 66.9787Z" fill="white"/>
<path d="M46.2538 67.1316C45.885 67.1316 45.5163 67.0551 45 66.9021V66.2138C45.5163 66.4433 45.9588 66.5962 46.3275 66.5962C46.5487 66.5962 46.8437 66.5198 46.9912 66.3668C47.1388 66.2138 47.2125 65.9844 47.2125 65.8314C47.2125 65.602 47.1388 65.449 47.065 65.2961C46.9912 65.1431 46.77 64.9902 46.475 64.8372L46.1062 64.6078C45.7375 64.3783 45.4425 64.1489 45.2213 63.9194C45.0738 63.69 45 63.4606 45 63.1546C45 62.7722 45.1475 62.4663 45.3687 62.2369C45.59 62.0074 45.9588 61.8545 46.4013 61.8545C46.77 61.8545 47.2125 61.931 47.5812 62.0839V62.7722C47.065 62.5428 46.6963 62.4663 46.475 62.4663C46.2538 62.4663 46.0326 62.5428 45.885 62.6958C45.7375 62.8487 45.6638 63.0017 45.6638 63.2311C45.6638 63.3841 45.7375 63.537 45.8113 63.69C45.885 63.7665 46.1062 63.9194 46.475 64.1489L46.8437 64.3783C47.2125 64.6078 47.5075 64.8372 47.7287 65.0666C47.8763 65.2961 47.9499 65.5255 47.9499 65.8314C47.9499 66.2138 47.8025 66.5962 47.5075 66.8257C47.2125 66.9786 46.77 67.1316 46.2538 67.1316Z" fill="white"/>
<path d="M49.2773 66.9787V62.084H52.006V62.6194H50.0148V64.2254H51.711V64.7608H50.0148V66.5198H52.1535V67.0552C52.1535 66.9787 49.2773 66.9787 49.2773 66.9787Z" fill="white"/>
<path d="M53.1836 66.9787V62.084H53.8473V67.0552L53.1836 66.9787Z" fill="white"/>
<path d="M55.543 66.9787V62.084H56.2067V66.5198H58.3454V67.0552L55.543 66.9787Z" fill="white"/>
<path d="M61.7383 66.9787V62.084H63.3607C63.877 62.084 64.2457 62.1605 64.5407 62.237C64.8357 62.3135 65.057 62.5429 65.3519 62.7723C65.7207 63.1547 65.8681 63.7666 65.8681 64.3784C65.8681 65.2197 65.6469 65.8315 65.2044 66.2904C64.7619 66.7493 64.1719 66.9787 63.4345 66.9787H61.7383ZM62.402 66.5198H63.2869C63.9507 66.5198 64.3932 66.3669 64.6145 65.9845C64.9094 65.6021 65.057 65.1432 65.057 64.5314C65.057 63.996 64.9094 63.5371 64.6882 63.1547C64.5407 62.9253 64.3195 62.7723 64.0982 62.7723C63.877 62.6959 63.5082 62.6959 63.0657 62.6959H62.5494V66.5963L62.402 66.5198Z" fill="white"/>
<path d="M66.8281 66.9787V62.084H69.5569V62.6194H67.5656V64.2254H69.2618V64.7608H67.5656V66.5198H69.7043V67.0552C69.6305 66.9787 66.8281 66.9787 66.8281 66.9787Z" fill="white"/>
<path d="M73.0234 66.9787V62.084H73.6873V66.5198H75.8259V67.0552L73.0234 66.9787Z" fill="white"/>
<path d="M77.0039 63.6137V63.3843C77.0777 63.3078 77.2252 63.3078 77.2252 63.1548C77.2989 63.0784 77.2989 62.8489 77.2989 62.6195V62.543H77.0039V61.7017H77.8152V62.39C77.8152 62.7724 77.7414 63.0784 77.594 63.2313C77.4464 63.4608 77.2989 63.6137 77.0039 63.6137Z" fill="white"/>
<path d="M79.2891 66.9787V62.084H82.0178V62.6194H79.9529V64.2254H81.6491V64.7608H79.9529V66.5198H82.0916V67.0552C82.1653 66.9787 79.2891 66.9787 79.2891 66.9787Z" fill="white"/>
<path d="M83.1988 62.084H83.8625V65.2197C83.8625 65.755 83.9363 66.061 84.0837 66.2904C84.305 66.5199 84.5262 66.6728 84.8949 66.6728C85.2637 66.6728 85.5587 66.5963 85.7062 66.3669C85.8536 66.1374 85.9274 65.8315 85.9274 65.2962V62.1605H86.5175V65.2962C86.5175 65.9845 86.3699 66.4434 86.1487 66.7493C85.8536 67.0552 85.4849 67.2082 84.8949 67.2082C84.305 67.2082 83.8625 67.0552 83.5675 66.7493C83.2724 66.4434 83.125 65.908 83.125 65.2962L83.1988 62.084Z" fill="white"/>
<path d="M87.7734 66.9787V62.084H89.2484C89.6909 62.084 90.0597 62.1605 90.3546 62.3899C90.5759 62.6194 90.7234 62.9253 90.7234 63.3077C90.7234 63.996 90.3546 64.4549 89.7647 64.7608L91.3872 67.0552H90.5759L89.1747 64.9902H88.5109V67.0552L87.7734 66.9787ZM88.3635 64.3784H88.5847C89.3959 64.3784 89.8385 63.996 89.8385 63.3842C89.8385 62.8488 89.4697 62.6194 88.7322 62.6194H88.2897L88.3635 64.3784Z" fill="white"/>
<path d="M94.1148 67.1318C93.4511 67.1318 92.8611 66.9024 92.4924 66.4435C92.1236 65.9846 91.9023 65.2963 91.9023 64.5315C91.9023 63.7667 92.1236 63.0784 92.4924 62.6195C92.8611 62.1606 93.4511 61.9312 94.1148 61.9312C94.7786 61.9312 95.3686 62.1606 95.7373 62.6195C96.106 63.0784 96.401 63.7667 96.401 64.5315C96.401 65.3728 96.1798 65.9846 95.7373 66.4435C95.3686 66.9024 94.8523 67.1318 94.1148 67.1318ZM94.1886 66.6729C94.7048 66.6729 95.0736 66.4435 95.2948 66.1375C95.5161 65.8316 95.6635 65.2963 95.6635 64.6079C95.6635 63.9196 95.5161 63.4608 95.2948 63.0784C94.9998 62.696 94.6311 62.543 94.1886 62.543C93.6724 62.543 93.3773 62.7724 93.0823 63.0784C92.8611 63.4608 92.7136 63.9196 92.7136 64.6079C92.7136 65.2963 92.8611 65.7551 93.0823 66.1375C93.3036 66.4435 93.6724 66.6729 94.1886 66.6729Z" fill="white"/>
<path d="M97.7266 66.9787V62.084H99.0534C99.6436 62.084 100.013 62.1605 100.307 62.3899C100.529 62.6194 100.676 62.9253 100.676 63.3842C100.676 63.9195 100.455 64.3019 100.159 64.6078C99.7911 64.9138 99.3485 65.0667 98.7583 65.0667H98.4633V67.0552L97.7266 66.9787ZM98.4633 64.5314H98.7583C99.1277 64.5314 99.496 64.4549 99.7178 64.2254C99.9386 63.996 100.086 63.7666 100.086 63.3842C100.086 63.0783 100.013 62.8488 99.8654 62.7723C99.6436 62.6959 99.4227 62.5429 98.9801 62.5429H98.5375C98.4633 62.6194 98.4633 64.5314 98.4633 64.5314Z" fill="white"/>
<path d="M101.711 66.9787V62.084H104.439V62.6194H102.448V64.2254H104.144V64.7608H102.448V66.5198H104.586V67.0552C104.586 66.9787 101.711 66.9787 101.711 66.9787Z" fill="white"/>
<path d="M32.3138 12.6781C31.5763 12.6781 30.9864 12.4487 30.6176 11.9898C30.2489 11.5309 30.0276 10.9191 30.0276 10.0778C30.0276 9.23658 30.2489 8.62474 30.6914 8.16586C31.0601 7.70698 31.6501 7.47754 32.4613 7.47754C32.9039 7.47754 33.42 7.55402 34.0101 7.70698V8.3953C33.3463 8.16586 32.8301 8.0129 32.4613 8.0129C31.9451 8.0129 31.5026 8.24234 31.2076 8.54826C30.9126 8.93066 30.7651 9.38954 30.7651 10.0778C30.7651 10.6896 30.9126 11.225 31.2076 11.5309C31.5026 11.9133 31.9451 12.0663 32.4613 12.0663C32.9039 12.0663 33.42 11.9133 33.9363 11.6839V12.2957C33.42 12.5252 32.8301 12.6781 32.3138 12.6781Z" fill="white"/>
<path d="M36.9586 12.6781C36.2948 12.6781 35.7048 12.4487 35.336 11.9898C34.9673 11.5309 34.7461 10.8426 34.7461 10.0778C34.7461 9.31306 34.9673 8.62474 35.336 8.16586C35.7048 7.70698 36.2948 7.47754 36.9586 7.47754C37.6223 7.47754 38.2122 7.70698 38.581 8.16586C38.9497 8.62474 39.2448 9.31306 39.2448 10.0778C39.2448 10.9191 39.0235 11.5309 38.581 11.9898C38.1385 12.4487 37.6223 12.6781 36.9586 12.6781ZM36.9586 12.1428C37.4747 12.1428 37.8435 11.9133 38.0648 11.6074C38.286 11.225 38.4335 10.7661 38.4335 10.0778C38.4335 9.38954 38.286 8.93066 38.0648 8.54826C37.7698 8.16586 37.4011 8.0129 36.9586 8.0129C36.4423 8.0129 36.1473 8.24234 35.8523 8.54826C35.631 8.93066 35.4836 9.38954 35.4836 10.0778C35.4836 10.7661 35.631 11.225 35.8523 11.6074C36.0735 11.9898 36.4423 12.1428 36.9586 12.1428Z" fill="white"/>
<path d="M40.7964 7.63037H41.4601V10.766C41.4601 11.3014 41.5339 11.6073 41.6814 11.8367C41.9027 12.0662 42.1239 12.2191 42.4926 12.2191C42.8613 12.2191 43.1563 12.1427 43.3039 11.9132C43.4513 11.6838 43.5251 11.3779 43.5251 10.8425V7.70685H44.1151V10.8425C44.1151 11.5308 43.9676 11.9897 43.7464 12.2956C43.5251 12.678 43.0826 12.831 42.4926 12.831C41.9027 12.831 41.4601 12.678 41.1652 12.3721C40.8701 12.0662 40.7227 11.5308 40.7227 10.919L40.7964 7.63037Z" fill="white"/>
<path d="M45.5898 12.5249V7.55371H46.2536L48.6872 11.3777V7.55371H49.2773V12.5249H48.6135L46.1798 8.70091V12.5249H45.5898Z" fill="white"/>
<path d="M52.962 12.6781C52.2245 12.6781 51.6345 12.4487 51.2657 11.9898C50.897 11.5309 50.6758 10.9191 50.6758 10.0778C50.6758 9.23658 50.897 8.62474 51.3395 8.16586C51.7082 7.70698 52.2983 7.47754 53.1094 7.47754C53.552 7.47754 54.0682 7.55402 54.6582 7.70698V8.3953C53.9207 8.16586 53.4045 8.0129 53.0358 8.0129C52.5195 8.0129 52.077 8.24234 51.782 8.54826C51.487 8.93066 51.3395 9.38954 51.3395 10.0778C51.3395 10.6896 51.487 11.225 51.782 11.5309C52.077 11.9133 52.5195 12.0663 53.0358 12.0663C53.4782 12.0663 53.9945 11.9133 54.5107 11.6839V12.2957C54.0682 12.5252 53.4782 12.6781 52.962 12.6781Z" fill="white"/>
<path d="M55.6172 12.5249V7.55371H56.2809V12.5249H55.6172Z" fill="white"/>
<path d="M58.1992 12.5249V7.55371H58.8629V11.9895H61.0016V12.5249C61.0754 12.5249 58.1992 12.5249 58.1992 12.5249Z" fill="white"/>
<path d="M66.9 12.6781C66.2361 12.6781 65.6462 12.4487 65.2775 11.9898C64.9087 11.5309 64.6875 10.8426 64.6875 10.0778C64.6875 9.31306 64.9087 8.62474 65.2775 8.16586C65.6462 7.70698 66.2361 7.47754 66.9 7.47754C67.5637 7.47754 68.1536 7.70698 68.5224 8.16586C68.8911 8.62474 69.1861 9.31306 69.1861 10.0778C69.1861 10.9191 68.9649 11.5309 68.5224 11.9898C68.1536 12.4487 67.6374 12.6781 66.9 12.6781ZM66.9736 12.1428C67.4899 12.1428 67.8586 11.9133 68.0799 11.6074C68.3012 11.225 68.4486 10.7661 68.4486 10.0778C68.4486 9.38954 68.3012 8.93066 68.0799 8.54826C67.7849 8.16586 67.4161 8.0129 66.9736 8.0129C66.4575 8.0129 66.1625 8.24234 65.8674 8.54826C65.6462 8.93066 65.4987 9.38954 65.4987 10.0778C65.4987 10.7661 65.6462 11.225 65.8674 11.6074C66.0887 11.9898 66.4575 12.1428 66.9736 12.1428Z" fill="white"/>
<path d="M70.8086 12.5249V7.55371H73.5373V8.08907H71.5461V9.69515H73.2423V10.2305H71.5461V12.4484L70.8086 12.5249Z" fill="white"/>
<path d="M77.5938 12.5249V7.55371H80.3224V8.08907H78.3311V9.69515H80.0274V10.2305H78.3311V11.9895H80.4699V12.5249H77.5938Z" fill="white"/>
<path d="M81.8002 7.63037H82.464V10.766C82.464 11.3014 82.5377 11.6073 82.6853 11.8367C82.9065 12.0662 83.1278 12.2191 83.4965 12.2191C83.8653 12.2191 84.1602 12.1427 84.3077 11.9132C84.4552 11.6838 84.529 11.3779 84.529 10.8425V7.70685H85.1189V10.8425C85.1189 11.5308 84.9715 11.9897 84.7502 12.2956C84.4552 12.6015 84.0865 12.7545 83.4965 12.7545C82.9065 12.7545 82.464 12.6015 82.169 12.2956C81.874 11.9897 81.7266 11.4543 81.7266 10.8425L81.8002 7.63037Z" fill="white"/>
<path d="M86.5938 12.5249V7.55371H88.0687C88.5112 7.55371 88.88 7.63019 89.175 7.85963C89.3962 8.08907 89.5437 8.39499 89.5437 8.77739C89.5437 9.46571 89.175 9.92459 88.585 10.2305L90.2074 12.5249H89.3962L87.995 10.4599H87.3312V12.5249H86.5938ZM87.2575 9.92459H87.4788C88.2899 9.92459 88.7324 9.54219 88.7324 8.93035C88.7324 8.39499 88.3637 8.16555 87.6262 8.16555H87.1837L87.2575 9.92459Z" fill="white"/>
<path d="M93.232 12.6781C92.5682 12.6781 91.9782 12.4487 91.6095 11.9898C91.2407 11.5309 91.0195 10.8426 91.0195 10.0778C91.0195 9.31306 91.2407 8.62474 91.6095 8.16586C91.9782 7.70698 92.5682 7.47754 93.232 7.47754C93.8957 7.47754 94.4857 7.70698 94.8544 8.16586C95.2231 8.62474 95.5181 9.31306 95.5181 10.0778C95.5181 10.9191 95.2969 11.5309 94.8544 11.9898C94.4857 12.4487 93.9695 12.6781 93.232 12.6781ZM93.3057 12.1428C93.8219 12.1428 94.1907 11.9133 94.4119 11.6074C94.6332 11.225 94.7806 10.7661 94.7806 10.0778C94.7806 9.38954 94.6332 8.93066 94.4119 8.54826C94.1169 8.16586 93.7482 8.0129 93.3057 8.0129C92.7895 8.0129 92.4945 8.24234 92.1994 8.54826C91.9782 8.93066 91.8307 9.38954 91.8307 10.0778C91.8307 10.7661 91.9782 11.225 92.1994 11.6074C92.4207 11.9898 92.7895 12.1428 93.3057 12.1428Z" fill="white"/>
<path d="M97.1367 12.5249V7.55371H98.4645C99.0547 7.55371 99.423 7.63019 99.7181 7.85963C99.9399 8.08907 100.087 8.39499 100.087 8.85387C100.087 9.38923 99.8656 9.77163 99.5706 10.0775C99.2022 10.3834 98.7596 10.5364 98.1695 10.5364H97.8744V12.5249H97.1367ZM97.8744 10.0775H98.1695C98.5378 10.0775 98.9071 10.001 99.128 9.77163C99.3498 9.54219 99.4973 9.31275 99.4973 8.93035C99.4973 8.62443 99.423 8.39499 99.2755 8.31851C99.0547 8.24203 98.8329 8.08907 98.3903 8.08907H97.9487C97.8744 8.08907 97.8744 10.0775 97.8744 10.0775Z" fill="white"/>
<path d="M101.344 12.5249V7.55371H104.072V8.08907H102.081V9.69515H103.778V10.2305H102.081V11.9895H104.219V12.5249H101.344Z" fill="white"/>
</svg>
