<svg width="135" height="75" viewBox="0 0 135 75" fill="none" xmlns="http://www.w3.org/2000/svg">
<mask id="mask0_22685_135384" style="mask-type:luminance" maskUnits="userSpaceOnUse" x="9" y="17" width="117" height="41">
<path d="M125.92 17.3882H9.60156V57.68H125.92V17.3882Z" fill="white"/>
</mask>
<g mask="url(#mask0_22685_135384)">
<path d="M104.015 28.4199C104.516 28.4199 104.787 28.6904 104.787 29.1917V29.7578C104.787 30.2592 104.516 30.5298 104.015 30.5298H91.8616C91.3602 30.5298 91.0898 30.2592 91.0898 29.7578V29.1917C91.0898 28.6904 91.3602 28.4199 91.8616 28.4199H104.015Z" fill="white"/>
<path d="M104.015 23.0029C104.516 23.0029 104.787 23.2734 104.787 23.7749V24.3408C104.787 24.8424 104.516 25.1128 104.015 25.1128H91.8616C91.3602 25.1128 91.0898 24.8424 91.0898 24.3408V23.7749C91.0898 23.2734 91.3602 23.0029 91.8616 23.0029H104.015Z" fill="white"/>
<path d="M104.015 17.5859C104.516 17.5859 104.787 17.8564 104.787 18.3578V18.9239C104.787 19.4252 104.516 19.6957 104.015 19.6957H91.8616C91.3602 19.6957 91.0898 19.4252 91.0898 18.9239V18.3578C91.0898 17.8564 91.3602 17.5859 91.8616 17.5859H104.015Z" fill="white"/>
<path d="M104.015 55.3721C104.516 55.3721 104.787 55.6426 104.787 56.144V56.7101C104.787 57.2114 104.516 57.4821 104.015 57.4821H91.8616C91.3602 57.4821 91.0898 57.2114 91.0898 56.7101V56.144C91.0898 55.6426 91.3602 55.3721 91.8616 55.3721H104.015Z" fill="white"/>
<path d="M104.015 49.9556C104.516 49.9556 104.787 50.2262 104.787 50.7276V51.2937C104.787 51.795 104.516 52.0655 104.015 52.0655H91.8616C91.3602 52.0655 91.0898 51.795 91.0898 51.2937V50.7276C91.0898 50.2262 91.3602 49.9556 91.8616 49.9556H104.015Z" fill="white"/>
<path d="M116.149 36.9629H112.472C111.736 36.9629 111.388 37.3118 111.388 38.047V45.6319L108.902 45.6317V38.0044C108.902 35.8804 109.93 34.853 112.054 34.853H116.149V36.9629Z" fill="white"/>
<path d="M52.3383 43.522L52.3385 45.632H48.6786C46.5547 45.632 45.5273 44.6045 45.5273 42.4804V32.5141L47.997 32.5137V34.8533H52.0401V36.9632H47.997V42.4379C47.997 43.1731 48.346 43.522 49.0811 43.522H52.3383Z" fill="white"/>
<path d="M125.717 43.522V45.632H122.058C119.934 45.632 118.906 44.6045 118.906 42.4804V32.5141L121.376 32.5137V34.8533H125.419V36.9632H121.376V42.4379C121.376 43.1731 121.725 43.522 122.46 43.522H125.717Z" fill="white"/>
<path fill-rule="evenodd" clip-rule="evenodd" d="M90.5234 38.0044C90.5234 35.8804 91.551 34.853 93.6748 34.853H102.204C104.328 34.853 105.356 35.8804 105.356 38.0044V42.4801C105.356 44.6042 104.328 45.6317 102.204 45.6317H93.6748C91.551 45.6317 90.5234 44.6042 90.5234 42.4801V38.0044ZM94.0771 36.9629C93.342 36.9629 92.9932 37.3118 92.9932 38.047V42.4376C92.9932 43.1728 93.342 43.5217 94.0771 43.5217H101.802C102.537 43.5217 102.886 43.1728 102.886 42.4376V38.047C102.886 37.3118 102.537 36.9629 101.802 36.9629H94.0771Z" fill="white"/>
<path fill-rule="evenodd" clip-rule="evenodd" d="M29.8369 42.4765C29.8369 43.2116 30.1859 43.5606 30.921 43.5606H39.429V40.827H30.921C30.1859 40.827 29.8369 41.1762 29.8369 41.9113V42.4765ZM30.5185 45.6317C28.3946 45.6317 27.3672 44.6042 27.3672 42.4801V41.9077C27.3672 39.7836 28.3946 38.7561 30.5185 38.7561H39.429V38.0082C39.429 37.273 39.08 36.924 38.3449 36.924H29.7307L29.7304 34.853H38.7474C40.8713 34.853 41.8989 35.8804 41.8989 38.0044V45.6317H30.5185Z" fill="white"/>
<path fill-rule="evenodd" clip-rule="evenodd" d="M56.872 42.4765C56.872 43.2116 57.2212 43.5606 57.9564 43.5606H66.4642V40.827H57.9564C57.2212 40.827 56.872 41.1762 56.872 41.9113V42.4765ZM57.5536 45.6317C55.4299 45.6317 54.4023 44.6042 54.4023 42.4801V41.9077C54.4023 39.7836 55.4299 38.7561 57.5536 38.7561H66.4642V38.0082C66.4642 37.273 66.1154 36.924 65.3802 36.924H56.7659V34.853H65.7825C67.9068 34.853 68.9339 35.8804 68.9339 38.0044V45.6317H57.5536Z" fill="white"/>
<path fill-rule="evenodd" clip-rule="evenodd" d="M21.8237 34.8531V30.9541L24.2934 30.9543V45.6318H12.9482C10.8243 45.6318 9.79688 44.6041 9.79688 42.4802V38.0045C9.79688 35.8805 10.8243 34.8531 12.9482 34.8531H21.8237ZM21.8237 43.5218V36.963H13.3507C12.6156 36.963 12.2666 37.3119 12.2666 38.0471V42.4377C12.2666 43.1729 12.6156 43.5218 13.3507 43.5218H21.8237Z" fill="white"/>
<path fill-rule="evenodd" clip-rule="evenodd" d="M75.169 45.6318V49.7139L72.6992 49.7136V34.853H84.0443C86.1681 34.853 87.1957 35.8805 87.1957 38.0045V42.4802C87.1957 44.6043 86.1681 45.6318 84.0443 45.6318H75.169ZM75.169 36.963V43.5218H83.642C84.3771 43.5218 84.7259 43.1729 84.7259 42.4377V38.0471C84.7259 37.3119 84.3771 36.963 83.642 36.963H75.169Z" fill="white"/>
</g>
</svg>
