<svg width="135" height="75" viewBox="0 0 135 75" fill="none" xmlns="http://www.w3.org/2000/svg">
<mask id="mask0_22685_135324" style="mask-type:luminance" maskUnits="userSpaceOnUse" x="0" y="0" width="135" height="75">
<path d="M134.989 0.137207H0.835938V74.9306H134.989V0.137207Z" fill="white"/>
</mask>
<g mask="url(#mask0_22685_135324)">
<path d="M60.0022 13.5203H59.2834V12.9294H61.5779V13.5203H60.859V19.1039H61.5976V19.7243H59.2637V19.1039H60.0022V13.5203ZM65.123 19.7243V16.6814C65.123 16.2809 65.0558 15.9937 64.9212 15.8197C64.7866 15.6457 64.5814 15.5588 64.3057 15.5588C64.0693 15.5588 63.8724 15.6178 63.7148 15.736C63.5573 15.8542 63.4325 15.969 63.3406 16.0807V19.7243H62.5429V14.9974H63.2717V15.5292H63.2914C63.3111 15.4898 63.3538 15.4324 63.4194 15.3568C63.485 15.2814 63.5704 15.2091 63.6754 15.1402C63.7804 15.0713 63.9052 15.0106 64.0496 14.958C64.194 14.9055 64.3582 14.8793 64.542 14.8793C64.7521 14.8793 64.9425 14.9105 65.1132 14.9728C65.2839 15.0352 65.4283 15.1353 65.5465 15.2732C65.6647 15.411 65.7566 15.59 65.8222 15.8098C65.8879 16.0298 65.9207 16.3006 65.9207 16.6223V19.7243H65.123ZM69.1015 15.6474H68.1364V19.7243H67.3388V15.6474H66.7676V15.1156L67.3388 15.0073V14.0619C67.3388 13.8059 67.3749 13.5859 67.4471 13.4021C67.5193 13.2183 67.6145 13.0673 67.7327 12.9491C67.8509 12.8309 67.9887 12.7456 68.1463 12.6931C68.3039 12.6405 68.4713 12.6143 68.6485 12.6143C68.8192 12.6143 68.9636 12.6373 69.0818 12.6832C69.2 12.7292 69.2788 12.7653 69.3182 12.7915L69.1508 13.4513C69.1114 13.4251 69.0556 13.3971 68.9833 13.3676C68.9111 13.3381 68.8225 13.3233 68.7174 13.3233C68.527 13.3233 68.3826 13.3824 68.2842 13.5006C68.1857 13.6188 68.1364 13.8354 68.1364 14.1505V14.9974H69.2L69.1015 15.6474ZM69.584 17.3609C69.584 16.9276 69.6349 16.5534 69.7367 16.2382C69.8384 15.9231 69.9763 15.6654 70.1503 15.4652C70.3243 15.265 70.5245 15.1173 70.751 15.022C70.9775 14.9268 71.2188 14.8793 71.4748 14.8793C71.7374 14.8793 71.9803 14.9268 72.2035 15.022C72.4267 15.1173 72.6205 15.265 72.7846 15.4652C72.9487 15.6654 73.0783 15.9231 73.1736 16.2382C73.2687 16.5534 73.3163 16.9276 73.3163 17.3609C73.3163 17.8007 73.2671 18.1782 73.1686 18.4934C73.0701 18.8085 72.9339 19.0662 72.76 19.2664C72.5859 19.4666 72.3841 19.6127 72.1543 19.7046C71.9245 19.7966 71.6816 19.8425 71.4256 19.8425C71.163 19.8425 70.92 19.7966 70.6968 19.7046C70.4737 19.6127 70.2799 19.4666 70.1158 19.2664C69.9517 19.0662 69.822 18.8102 69.7269 18.4983C69.6316 18.1864 69.584 17.8073 69.584 17.3609ZM72.4891 17.3609C72.4891 16.7306 72.3972 16.2727 72.2134 15.9872C72.0296 15.7015 71.7735 15.5588 71.4453 15.5588C71.117 15.5588 70.8626 15.7015 70.6821 15.9872C70.5015 16.2727 70.4113 16.7306 70.4113 17.3609C70.4113 17.9911 70.5032 18.4441 70.687 18.7199C70.8708 18.9956 71.1268 19.1335 71.4551 19.1335C71.7834 19.1335 72.0378 18.9956 72.2184 18.7199C72.3988 18.4441 72.4891 17.9911 72.4891 17.3609ZM76.3987 15.6966C76.379 15.6835 76.3363 15.6671 76.2706 15.6474C76.205 15.6277 76.1164 15.6178 76.0048 15.6178C75.7553 15.6178 75.56 15.6851 75.4189 15.8197C75.2777 15.9543 75.1775 16.1004 75.1185 16.2579V19.7243H74.3208V14.9974H75.0495V15.6375H75.0692C75.1021 15.5456 75.1447 15.4553 75.1972 15.3667C75.2498 15.2781 75.3154 15.1993 75.3942 15.1303C75.473 15.0614 75.5665 15.0073 75.6748 14.9679C75.7832 14.9285 75.9128 14.9088 76.0638 14.9088C76.1755 14.9088 76.2658 14.9187 76.3347 14.9383C76.4036 14.958 76.4577 14.9744 76.4971 14.9876L76.3987 15.6966ZM79.6681 19.7243V16.6814C79.6681 16.294 79.6123 16.0151 79.5007 15.8443C79.389 15.6736 79.2086 15.5883 78.9591 15.5883C78.8277 15.5883 78.7112 15.6047 78.6095 15.6375C78.5077 15.6704 78.4174 15.7113 78.3387 15.7606C78.2599 15.8098 78.1909 15.864 78.1319 15.9231C78.0728 15.9822 78.0235 16.0348 77.9841 16.0807V19.7243H77.1865V14.9974H77.9152V15.5292H77.9349C77.9678 15.4767 78.017 15.4127 78.0826 15.3372C78.1482 15.2617 78.2303 15.1894 78.3288 15.1205C78.4273 15.0516 78.5422 14.9941 78.6735 14.9482C78.8048 14.9023 78.9525 14.8793 79.1166 14.8793C79.6549 14.8793 80.0358 15.0894 80.259 15.5095C80.3049 15.4439 80.3673 15.3733 80.4461 15.2977C80.5248 15.2223 80.6168 15.1533 80.7218 15.0909C80.8268 15.0286 80.945 14.9777 81.0763 14.9383C81.2076 14.899 81.3521 14.8793 81.5096 14.8793C82.4682 14.8793 82.9474 15.4373 82.9474 16.5534V19.7243H82.1497V16.6814C82.1497 16.294 82.0808 16.0151 81.9429 15.8443C81.805 15.6736 81.6016 15.5883 81.3324 15.5883C81.1092 15.5883 80.9237 15.6425 80.776 15.7507C80.6283 15.8592 80.5117 15.9625 80.4264 16.061C80.4395 16.1332 80.4494 16.2104 80.4559 16.2924C80.4625 16.3745 80.4658 16.4614 80.4658 16.5534V19.7243H79.6681ZM83.8632 18.5229C83.8632 18.2472 83.9158 18.0174 84.0208 17.8336C84.1258 17.6498 84.267 17.5004 84.4442 17.3855C84.6215 17.2706 84.8299 17.1885 85.0696 17.1393C85.3092 17.09 85.5636 17.0655 85.8328 17.0655H86.079V16.6125C86.079 16.212 86.0084 15.9363 85.8673 15.7852C85.7261 15.6342 85.5275 15.5588 85.2714 15.5588C85.0351 15.5588 84.8381 15.6096 84.6806 15.7114C84.523 15.8131 84.3983 15.9034 84.3064 15.9822L83.9715 15.4504C84.0241 15.3979 84.0914 15.3388 84.1735 15.2732C84.2555 15.2075 84.3556 15.1452 84.4738 15.0861C84.5919 15.027 84.7265 14.9777 84.8775 14.9383C85.0286 14.899 85.1992 14.8793 85.3896 14.8793C85.8755 14.8793 86.243 15.0138 86.4926 15.283C86.7421 15.5522 86.8668 15.9855 86.8668 16.5829V18.7396C86.8668 18.9431 86.8733 19.1417 86.8865 19.3353C86.8996 19.529 86.9127 19.6587 86.9259 19.7243H86.1676L86.138 19.2024H86.1183C86.0921 19.2615 86.0527 19.3288 86.0002 19.4042C85.9476 19.4798 85.882 19.5487 85.8032 19.6111C85.7244 19.6734 85.6293 19.7276 85.5176 19.7736C85.406 19.8195 85.2747 19.8425 85.1237 19.8425C84.9465 19.8425 84.7807 19.8097 84.6265 19.744C84.4721 19.6784 84.3376 19.5865 84.2227 19.4683C84.1078 19.3501 84.0191 19.2106 83.9568 19.0497C83.8944 18.8889 83.8632 18.7133 83.8632 18.5229ZM85.2911 19.163C85.4028 19.163 85.5012 19.1466 85.5866 19.1138C85.6719 19.0809 85.7458 19.0415 85.8082 18.9956C85.8705 18.9497 85.923 18.8988 85.9657 18.8429C86.0084 18.7871 86.0461 18.7396 86.079 18.7002V17.6563L85.8229 17.6662C85.4422 17.6793 85.1533 17.7449 84.9563 17.8631C84.7594 17.9813 84.6609 18.1717 84.6609 18.4343C84.6609 18.6772 84.7167 18.8594 84.8283 18.9808C84.9399 19.1023 85.0942 19.163 85.2911 19.163ZM90.087 15.6474H89.053V18.2669C89.053 18.6017 89.0957 18.8298 89.181 18.9512C89.2663 19.0727 89.4108 19.1335 89.6143 19.1335C89.7324 19.1335 89.8342 19.1171 89.9196 19.0842C90.0049 19.0514 90.0673 19.0218 90.1067 18.9956L90.215 19.6357C90.1821 19.6619 90.1033 19.703 89.9786 19.7588C89.8539 19.8146 89.6865 19.8425 89.4764 19.8425C89.0693 19.8425 88.7641 19.7293 88.5606 19.5027C88.3571 19.2763 88.2553 18.9004 88.2553 18.3752V15.6474H87.6841V15.1156L88.2553 14.9974L88.3439 13.6778H89.053V14.9974H90.1854L90.087 15.6474ZM91.7906 19.7243H90.993V14.9974H91.7906V19.7243ZM91.3967 13.8551C91.2326 13.8551 91.1013 13.8026 91.0028 13.6975C90.9043 13.5925 90.8551 13.4547 90.8551 13.2839C90.8551 13.1198 90.9043 12.9852 91.0028 12.8802C91.1013 12.7752 91.2326 12.7226 91.3967 12.7226C91.5543 12.7226 91.6823 12.7752 91.7808 12.8802C91.8792 12.9852 91.9285 13.1198 91.9285 13.2839C91.9285 13.4547 91.8792 13.5925 91.7808 13.6975C91.6823 13.8026 91.5543 13.8551 91.3967 13.8551ZM92.7951 17.3609C92.7951 16.9276 92.846 16.5534 92.9478 16.2382C93.0495 15.9231 93.1873 15.6654 93.3614 15.4652C93.5353 15.265 93.7356 15.1173 93.9621 15.022C94.1886 14.9268 94.4298 14.8793 94.6858 14.8793C94.9484 14.8793 95.1914 14.9268 95.4146 15.022C95.6378 15.1173 95.8315 15.265 95.9956 15.4652C96.1597 15.6654 96.2894 15.9231 96.3846 16.2382C96.4798 16.5534 96.5274 16.9276 96.5274 17.3609C96.5274 17.8007 96.4781 18.1782 96.3796 18.4934C96.2812 18.8085 96.145 19.0662 95.971 19.2664C95.797 19.4666 95.5951 19.6127 95.3653 19.7046C95.1355 19.7966 94.8926 19.8425 94.6366 19.8425C94.374 19.8425 94.1311 19.7966 93.9079 19.7046C93.6847 19.6127 93.491 19.4666 93.3269 19.2664C93.1628 19.0662 93.0331 18.8102 92.9379 18.4983C92.8427 18.1864 92.7951 17.8073 92.7951 17.3609ZM95.7002 17.3609C95.7002 16.7306 95.6082 16.2727 95.4244 15.9872C95.2406 15.7015 94.9846 15.5588 94.6563 15.5588C94.328 15.5588 94.0736 15.7015 93.8931 15.9872C93.7126 16.2727 93.6223 16.7306 93.6223 17.3609C93.6223 17.9911 93.7142 18.4441 93.898 18.7199C94.0818 18.9956 94.3379 19.1335 94.6661 19.1335C94.9944 19.1335 95.2488 18.9956 95.4294 18.7199C95.6099 18.4441 95.7002 17.9911 95.7002 17.3609ZM100.112 19.7243V16.6814C100.112 16.2809 100.045 15.9937 99.9101 15.8197C99.7755 15.6457 99.5703 15.5588 99.2946 15.5588C99.0582 15.5588 98.8613 15.6178 98.7037 15.736C98.5461 15.8542 98.4214 15.969 98.3295 16.0807V19.7243H97.5318V14.9974H98.2606V15.5292H98.2803C98.2999 15.4898 98.3426 15.4324 98.4083 15.3568C98.4739 15.2814 98.5593 15.2091 98.6643 15.1402C98.7693 15.0713 98.8941 15.0106 99.0385 14.958C99.1829 14.9055 99.3471 14.8793 99.5309 14.8793C99.741 14.8793 99.9314 14.9105 100.102 14.9728C100.273 15.0352 100.417 15.1353 100.535 15.2732C100.654 15.411 100.746 15.59 100.811 15.8098C100.877 16.0298 100.91 16.3006 100.91 16.6223V19.7243H100.112ZM104.14 15.9527C104.087 15.8936 103.992 15.8131 103.854 15.7114C103.716 15.6096 103.536 15.5588 103.313 15.5588C103.102 15.5588 102.942 15.608 102.83 15.7065C102.718 15.8049 102.663 15.9231 102.663 16.061C102.663 16.2382 102.713 16.3843 102.815 16.4992C102.917 16.6141 103.073 16.7372 103.283 16.8685L103.578 17.0458C103.9 17.2362 104.153 17.4413 104.337 17.6612C104.52 17.8812 104.612 18.1651 104.612 18.5131C104.612 18.8873 104.483 19.2024 104.223 19.4584C103.964 19.7145 103.592 19.8425 103.106 19.8425C102.915 19.8425 102.748 19.8228 102.603 19.7834C102.459 19.744 102.333 19.6981 102.224 19.6455C102.116 19.593 102.026 19.5356 101.954 19.4733C101.881 19.4109 101.822 19.3534 101.776 19.3009L102.16 18.6706C102.2 18.71 102.247 18.7559 102.303 18.8085C102.359 18.861 102.426 18.9119 102.505 18.9611C102.584 19.0103 102.672 19.0514 102.771 19.0842C102.869 19.1171 102.984 19.1335 103.116 19.1335C103.352 19.1335 103.532 19.0809 103.657 18.9759C103.782 18.8709 103.844 18.7429 103.844 18.5918C103.844 18.4802 103.83 18.3834 103.8 18.3013C103.77 18.2193 103.726 18.1454 103.667 18.0798C103.608 18.0141 103.536 17.9517 103.45 17.8927C103.365 17.8336 103.267 17.7679 103.155 17.6957L102.86 17.5086C102.564 17.3182 102.333 17.118 102.165 16.9079C101.998 16.6978 101.914 16.4287 101.914 16.1004C101.914 15.9231 101.949 15.7606 102.018 15.6129C102.087 15.4652 102.183 15.3372 102.308 15.2288C102.433 15.1205 102.579 15.0352 102.746 14.9728C102.914 14.9105 103.093 14.8793 103.283 14.8793C103.467 14.8793 103.624 14.8973 103.756 14.9334C103.887 14.9695 104 15.0155 104.095 15.0712C104.191 15.1271 104.269 15.1829 104.332 15.2387C104.394 15.2945 104.445 15.3421 104.484 15.3815L104.14 15.9527ZM63.4885 23.5394H61.6765V29.6548H60.8198V23.5394H59.0078V22.8599H63.5476L63.4885 23.5394ZM66.5413 26.5232C66.5413 26.7267 66.5347 26.9023 66.5216 27.05C66.5084 27.1977 66.4953 27.3274 66.4822 27.4391H64.0695C64.0957 27.9971 64.2156 28.4074 64.429 28.67C64.6423 28.9326 64.9493 29.0639 65.3497 29.0639C65.4876 29.0639 65.6123 29.0475 65.7239 29.0147C65.8356 28.9818 65.9324 28.9424 66.0145 28.8965C66.0965 28.8506 66.1654 28.8046 66.2213 28.7586C66.277 28.7127 66.3181 28.6766 66.3443 28.6503L66.6398 29.2116C66.6069 29.2445 66.5577 29.2921 66.492 29.3544C66.4264 29.4168 66.3378 29.4792 66.2261 29.5416C66.1145 29.6039 65.9766 29.6581 65.8125 29.704C65.6484 29.75 65.4547 29.773 65.2315 29.773C64.9361 29.773 64.6686 29.7237 64.429 29.6252C64.1893 29.5268 63.9858 29.3741 63.8184 29.1673C63.651 28.9605 63.5213 28.6979 63.4294 28.3795C63.3375 28.0611 63.2915 27.6787 63.2915 27.2323C63.2915 26.8121 63.3391 26.4493 63.4344 26.144C63.5295 25.8388 63.6592 25.5877 63.8233 25.3907C63.9874 25.1938 64.1778 25.0477 64.3945 24.9525C64.6111 24.8573 64.8442 24.8097 65.0937 24.8097C65.5467 24.8097 65.9012 24.9525 66.1572 25.2381C66.4133 25.5236 66.5413 25.952 66.5413 26.5232ZM65.0444 25.4597C64.7621 25.4597 64.5357 25.5778 64.3649 25.8142C64.1942 26.0505 64.0957 26.3919 64.0695 26.8383H65.7929C65.7994 26.8055 65.8044 26.7579 65.8077 26.6955C65.8109 26.6332 65.8125 26.5659 65.8125 26.4937C65.8125 26.1654 65.7469 25.911 65.6156 25.7304C65.4843 25.5499 65.2939 25.4597 65.0444 25.4597ZM70.2342 25.8437C70.2145 25.824 70.1833 25.7945 70.1407 25.7551C70.098 25.7157 70.0437 25.6763 69.9781 25.6369C69.9125 25.5975 69.8337 25.563 69.7418 25.5335C69.6498 25.5039 69.5448 25.4892 69.4267 25.4892C69.2559 25.4892 69.0968 25.5204 68.9491 25.5827C68.8014 25.6451 68.6733 25.7452 68.565 25.8831C68.4567 26.021 68.3713 26.1999 68.309 26.4198C68.2466 26.6397 68.2154 26.9073 68.2154 27.2224C68.2154 27.5704 68.2433 27.8625 68.2991 28.0989C68.3549 28.3352 68.432 28.524 68.5305 28.6651C68.629 28.8062 68.7488 28.908 68.89 28.9703C69.0311 29.0327 69.187 29.0639 69.3577 29.0639C69.6006 29.0639 69.7861 29.0212 69.9142 28.9359C70.0422 28.8506 70.1324 28.7817 70.1849 28.7291L70.5099 29.2806C70.477 29.32 70.4295 29.3675 70.3672 29.4233C70.3048 29.4792 70.2243 29.5333 70.1258 29.5859C70.0274 29.6384 69.9075 29.6827 69.7664 29.7188C69.6253 29.7549 69.4627 29.773 69.2789 29.773C69.0164 29.773 68.7702 29.7303 68.5404 29.6449C68.3106 29.5596 68.1104 29.4184 67.9396 29.2215C67.7689 29.0245 67.6344 28.7685 67.5359 28.4534C67.4374 28.1382 67.3882 27.7476 67.3882 27.2815C67.3882 26.8285 67.4473 26.4444 67.5654 26.1293C67.6836 25.8142 67.8379 25.5598 68.0283 25.3661C68.2187 25.1724 68.4304 25.0313 68.6635 24.9426C68.8965 24.854 69.1312 24.8097 69.3676 24.8097C69.5448 24.8097 69.7007 24.8261 69.8354 24.859C69.9699 24.8918 70.0848 24.9328 70.18 24.982C70.2752 25.0313 70.354 25.0838 70.4164 25.1396C70.4787 25.1954 70.5296 25.243 70.569 25.2824L70.2342 25.8437ZM73.9861 29.6548V26.6118C73.9861 26.2114 73.9189 25.9242 73.7843 25.7501C73.6497 25.5762 73.4445 25.4892 73.1688 25.4892C72.9324 25.4892 72.7355 25.5483 72.5779 25.6665C72.4204 25.7846 72.2956 25.8995 72.2037 26.0111V29.6548H71.406V22.6925L72.2037 22.6038V25.4104H72.2234C72.2496 25.371 72.2907 25.3185 72.3465 25.2529C72.4023 25.1872 72.4794 25.1215 72.5779 25.0559C72.6764 24.9903 72.7962 24.9328 72.9374 24.8835C73.0785 24.8343 73.2442 24.8097 73.4347 24.8097C73.8483 24.8097 74.1766 24.9443 74.4194 25.2135C74.6623 25.4827 74.7838 25.929 74.7838 26.5528V29.6548H73.9861ZM78.5555 29.6548V26.6118C78.5555 26.2114 78.4882 25.9242 78.3536 25.7501C78.219 25.5762 78.0138 25.4892 77.7381 25.4892C77.5018 25.4892 77.3048 25.5483 77.1473 25.6665C76.9897 25.7846 76.865 25.8995 76.773 26.0111V29.6548H75.9754V24.9279H76.7041V25.4597H76.7238C76.7435 25.4203 76.7862 25.3628 76.8518 25.2873C76.9174 25.2118 77.0028 25.1396 77.1079 25.0706C77.2129 25.0017 77.3377 24.941 77.4821 24.8885C77.6265 24.836 77.7907 24.8097 77.9745 24.8097C78.1846 24.8097 78.3749 24.8409 78.5456 24.9032C78.7163 24.9656 78.8607 25.0658 78.9789 25.2036C79.0971 25.3415 79.189 25.5204 79.2547 25.7403C79.3203 25.9602 79.3531 26.2311 79.3531 26.5528V29.6548H78.5555ZM81.3424 29.6548H80.5447V24.9279H81.3424V29.6548ZM80.9485 23.7856C80.7844 23.7856 80.653 23.733 80.5546 23.628C80.4561 23.523 80.4068 23.3851 80.4068 23.2144C80.4068 23.0503 80.4561 22.9156 80.5546 22.8106C80.653 22.7056 80.7844 22.6531 80.9485 22.6531C81.106 22.6531 81.234 22.7056 81.3325 22.8106C81.431 22.9156 81.4802 23.0503 81.4802 23.2144C81.4802 23.3851 81.431 23.523 81.3325 23.628C81.234 23.733 81.106 23.7856 80.9485 23.7856ZM84.3459 27.0944L85.9708 29.6548H85.0156L83.6861 27.4489H83.3612V29.6548H82.5635V22.6925L83.3612 22.6038V26.7694H83.696L84.9663 24.9279H85.9117L84.3459 27.0944ZM63.1436 33.3221L60.2582 38.8565V38.8762H63.3898L63.3307 39.5852H59.1552V39.0535L62.1293 33.4895V33.4698H59.3128V32.7903H63.1436V33.3221ZM67.1811 36.4537C67.1811 36.6572 67.1746 36.8328 67.1614 36.9805C67.1483 37.1282 67.1352 37.2579 67.122 37.3695H64.7094C64.7356 37.9275 64.8554 38.3379 65.0688 38.6005C65.2822 38.8631 65.5891 38.9944 65.9896 38.9944C66.1274 38.9944 66.2521 38.978 66.3638 38.9451C66.4754 38.9123 66.5722 38.8729 66.6543 38.827C66.7363 38.781 66.8053 38.735 66.8611 38.6891C66.9169 38.6432 66.9579 38.607 66.9842 38.5808L67.2796 39.1421C67.2468 39.175 67.1975 39.2225 67.1319 39.2848C67.0663 39.3472 66.9776 39.4096 66.866 39.472C66.7544 39.5344 66.6165 39.5886 66.4524 39.6345C66.2883 39.6804 66.0946 39.7034 65.8714 39.7034C65.576 39.7034 65.3084 39.6542 65.0688 39.5557C64.8292 39.4572 64.6257 39.3045 64.4583 39.0977C64.2909 38.8909 64.1612 38.6284 64.0693 38.3099C63.9773 37.9916 63.9314 37.6092 63.9314 37.1627C63.9314 36.7426 63.979 36.3798 64.0742 36.0745C64.1694 35.7692 64.2991 35.5181 64.4632 35.3212C64.6273 35.1242 64.8177 34.9782 65.0343 34.8829C65.251 34.7878 65.484 34.7402 65.7335 34.7402C66.1865 34.7402 66.541 34.8829 66.7971 35.1685C67.0531 35.4541 67.1811 35.8825 67.1811 36.4537ZM65.6843 35.3901C65.402 35.3901 65.1755 35.5083 65.0048 35.7446C64.8341 35.981 64.7356 36.3223 64.7094 36.7688H66.4327C66.4392 36.7359 66.4442 36.6884 66.4475 36.626C66.4507 36.5637 66.4524 36.4964 66.4524 36.4241C66.4524 36.0958 66.3868 35.8415 66.2554 35.6609C66.1241 35.4804 65.9338 35.3901 65.6843 35.3901ZM70.8248 39.5852V36.5423C70.8248 36.1419 70.7575 35.8546 70.6229 35.6806C70.4883 35.5066 70.2832 35.4197 70.0074 35.4197C69.7711 35.4197 69.5741 35.4788 69.4166 35.5969C69.259 35.7151 69.1343 35.83 69.0423 35.9416V39.5852H68.2447V34.8583H68.9734V35.3901H68.9931C69.0128 35.3507 69.0555 35.2933 69.1211 35.2177C69.1867 35.1423 69.2721 35.07 69.3772 35.0011C69.4822 34.9322 69.607 34.8715 69.7514 34.819C69.8958 34.7664 70.06 34.7402 70.2438 34.7402C70.4539 34.7402 70.6442 34.7714 70.8149 34.8337C70.9857 34.8961 71.1301 34.9962 71.2482 35.1341C71.3664 35.2719 71.4583 35.4509 71.524 35.6707C71.5896 35.8907 71.6224 36.1616 71.6224 36.4832V39.5852H70.8248ZM74.8328 35.5083H73.7988V38.1278C73.7988 38.4626 73.8415 38.6908 73.9268 38.8122C74.0121 38.9336 74.1566 38.9944 74.3601 38.9944C74.4783 38.9944 74.5801 38.978 74.6654 38.9451C74.7507 38.9123 74.8131 38.8827 74.8525 38.8565L74.9608 39.4966C74.928 39.5228 74.8492 39.5639 74.7245 39.6198C74.5998 39.6755 74.4323 39.7034 74.2222 39.7034C73.8152 39.7034 73.5099 39.5902 73.3064 39.3636C73.1029 39.1372 73.0011 38.7613 73.0011 38.2361V35.5083H72.43V34.9765L73.0011 34.8583L73.0897 33.5388H73.7988V34.8583H74.9313L74.8328 35.5083ZM77.8166 35.5575C77.797 35.5444 77.7543 35.528 77.6886 35.5083C77.623 35.4886 77.5344 35.4788 77.4227 35.4788C77.1732 35.4788 76.9779 35.546 76.8368 35.6806C76.6957 35.8152 76.5955 35.9613 76.5364 36.1189V39.5852H75.7388V34.8583H76.4675V35.4984H76.4872C76.5201 35.4065 76.5627 35.3162 76.6152 35.2276C76.6678 35.139 76.7334 35.0602 76.8122 34.9912C76.891 34.9223 76.9845 34.8682 77.0928 34.8288C77.2012 34.7894 77.3308 34.7697 77.4818 34.7697C77.5935 34.7697 77.6837 34.7796 77.7527 34.7993C77.8216 34.819 77.8757 34.8353 77.9151 34.8485L77.8166 35.5575ZM81.9133 39.5852H81.1846V39.0535H81.1649C81.1452 39.0929 81.1025 39.1503 81.0368 39.2258C80.9712 39.3013 80.8875 39.3735 80.7858 39.4424C80.684 39.5113 80.5608 39.5721 80.4164 39.6246C80.272 39.6772 80.1112 39.7034 79.9339 39.7034C79.7238 39.7034 79.5351 39.6722 79.3677 39.6099C79.2003 39.5475 79.0575 39.4474 78.9393 39.3095C78.8211 39.1716 78.7308 38.9927 78.6685 38.7728C78.6061 38.5529 78.5749 38.282 78.5749 37.9604V34.8583H79.3726V37.9013C79.3726 38.2952 79.4366 38.5758 79.5647 38.7433C79.6927 38.9106 79.8912 38.9944 80.1604 38.9944C80.3902 38.9944 80.5838 38.937 80.7414 38.822C80.899 38.7071 81.0237 38.5939 81.1156 38.4823V34.8583H81.9133V39.5852ZM85.616 39.5852V36.5423C85.616 36.1549 85.5602 35.876 85.4486 35.7052C85.337 35.5345 85.1565 35.4492 84.907 35.4492C84.7757 35.4492 84.6591 35.4656 84.5574 35.4984C84.4557 35.5313 84.3654 35.5723 84.2866 35.6215C84.2078 35.6707 84.1389 35.7249 84.0798 35.784C84.0207 35.8431 83.9715 35.8957 83.9321 35.9416V39.5852H83.1344V34.8583H83.8631V35.3901H83.8828C83.9157 35.3376 83.9649 35.2736 84.0305 35.1981C84.0962 35.1226 84.1783 35.0503 84.2767 34.9814C84.3752 34.9125 84.4901 34.855 84.6214 34.8091C84.7527 34.7632 84.9005 34.7402 85.0646 34.7402C85.6029 34.7402 85.9837 34.9503 86.2069 35.3704C86.2528 35.3048 86.3152 35.2342 86.394 35.1587C86.4728 35.0832 86.5647 35.0143 86.6697 34.9519C86.7747 34.8895 86.8929 34.8386 87.0242 34.7993C87.1556 34.7599 87.3 34.7402 87.4575 34.7402C88.4161 34.7402 88.8953 35.2982 88.8953 36.4143V39.5852H88.0976V36.5423C88.0976 36.1549 88.0287 35.876 87.8908 35.7052C87.753 35.5345 87.5495 35.4492 87.2803 35.4492C87.0571 35.4492 86.8716 35.5034 86.7239 35.6117C86.5762 35.7201 86.4596 35.8234 86.3743 35.9219C86.3875 35.9941 86.3973 36.0713 86.4038 36.1534C86.4104 36.2354 86.4137 36.3223 86.4137 36.4143V39.5852H85.616ZM95.9073 34.5235C95.9073 34.7599 95.8777 34.9667 95.8187 35.1439C95.7596 35.3212 95.6791 35.4738 95.5774 35.6018C95.4756 35.7298 95.3575 35.8333 95.2229 35.912C95.0883 35.9908 94.9488 36.0499 94.8043 36.0893V36.109C94.9816 36.1419 95.1474 36.2042 95.3016 36.2961C95.456 36.388 95.5905 36.5029 95.7055 36.6408C95.8203 36.7786 95.9123 36.9411 95.9812 37.1282C96.0501 37.3154 96.0845 37.5205 96.0845 37.7437C96.0845 38.0129 96.0386 38.2591 95.9467 38.4823C95.8547 38.7055 95.712 38.8992 95.5183 39.0633C95.3246 39.2274 95.0801 39.3554 94.7846 39.4474C94.4892 39.5393 94.138 39.5852 93.7309 39.5852H92.3424V32.7903H93.6522C94.0526 32.7903 94.3957 32.8314 94.6813 32.9134C94.9669 32.9955 95.2016 33.112 95.3854 33.263C95.5692 33.414 95.7021 33.5962 95.7842 33.8095C95.8662 34.0229 95.9073 34.2609 95.9073 34.5235ZM95.0407 34.5531C95.0407 34.2379 94.9291 33.9786 94.7059 33.7751C94.4827 33.5716 94.1314 33.4698 93.6522 33.4698H93.1992V35.8136H93.6423C94.1018 35.8136 94.4498 35.7019 94.6862 35.4788C94.9225 35.2556 95.0407 34.947 95.0407 34.5531ZM95.1687 37.6846C95.1687 37.317 95.0489 37.0265 94.8093 36.8131C94.5697 36.5997 94.2266 36.4931 93.7802 36.4931H93.1992V38.8762H93.7309C94.2365 38.8762 94.6025 38.7761 94.829 38.5758C95.0555 38.3756 95.1687 38.0785 95.1687 37.6846ZM100.447 39.5852H99.7183V39.0535H99.6987C99.679 39.0929 99.6363 39.1503 99.5706 39.2258C99.505 39.3013 99.4213 39.3735 99.3196 39.4424C99.2178 39.5113 99.0946 39.5721 98.9502 39.6246C98.8058 39.6772 98.6449 39.7034 98.4677 39.7034C98.2576 39.7034 98.0689 39.6722 97.9015 39.6099C97.7341 39.5475 97.5912 39.4474 97.4731 39.3095C97.3549 39.1716 97.2646 38.9927 97.2023 38.7728C97.1399 38.5529 97.1087 38.282 97.1087 37.9604V34.8583H97.9064V37.9013C97.9064 38.2952 97.9704 38.5758 98.0984 38.7433C98.2265 38.9106 98.425 38.9944 98.6942 38.9944C98.924 38.9944 99.1176 38.937 99.2752 38.822C99.4328 38.7071 99.5575 38.5939 99.6494 38.4823V34.8583H100.447V39.5852ZM104.248 39.5852V36.5423C104.248 36.1419 104.181 35.8546 104.047 35.6806C103.912 35.5066 103.707 35.4197 103.431 35.4197C103.195 35.4197 102.998 35.4788 102.84 35.5969C102.683 35.7151 102.558 35.83 102.466 35.9416V39.5852H101.668V34.8583H102.397V35.3901H102.417C102.436 35.3507 102.479 35.2933 102.545 35.2177C102.61 35.1423 102.696 35.07 102.801 35.0011C102.906 34.9322 103.031 34.8715 103.175 34.819C103.319 34.7664 103.484 34.7402 103.667 34.7402C103.877 34.7402 104.068 34.7714 104.239 34.8337C104.409 34.8961 104.554 34.9962 104.672 35.1341C104.79 35.2719 104.882 35.4509 104.948 35.6707C105.013 35.8907 105.046 36.1616 105.046 36.4832V39.5852H104.248ZM106.021 37.2907C106.021 36.8115 106.083 36.411 106.208 36.0893C106.333 35.7676 106.494 35.5083 106.691 35.3113C106.888 35.1144 107.111 34.9749 107.36 34.8928C107.61 34.8108 107.859 34.7697 108.109 34.7697C108.26 34.7697 108.391 34.7812 108.503 34.8042C108.614 34.8271 108.706 34.855 108.778 34.8879V32.6229L109.576 32.5343V39.5852H108.847V39.083H108.828C108.808 39.1224 108.772 39.1765 108.719 39.2455C108.667 39.3144 108.595 39.3833 108.503 39.4523C108.411 39.5212 108.296 39.5803 108.158 39.6296C108.02 39.6788 107.859 39.7034 107.675 39.7034C107.452 39.7034 107.24 39.6591 107.04 39.5704C106.84 39.4818 106.664 39.3407 106.513 39.147C106.362 38.9533 106.243 38.7038 106.154 38.3986C106.065 38.0933 106.021 37.724 106.021 37.2907ZM107.892 38.9944C108.017 38.9944 108.128 38.978 108.227 38.9451C108.325 38.9123 108.411 38.8712 108.483 38.822C108.555 38.7728 108.616 38.722 108.665 38.6694C108.714 38.6169 108.752 38.5709 108.778 38.5315V35.6166C108.706 35.5707 108.622 35.5313 108.527 35.4984C108.432 35.4656 108.312 35.4492 108.168 35.4492C107.984 35.4492 107.812 35.4804 107.651 35.5427C107.49 35.6051 107.35 35.7086 107.232 35.853C107.114 35.9974 107.021 36.1845 106.952 36.4143C106.883 36.6441 106.848 36.9264 106.848 37.2612C106.848 37.5895 106.876 37.8635 106.932 38.0834C106.988 38.3034 107.065 38.4806 107.163 38.6152C107.262 38.7498 107.373 38.8467 107.498 38.9058C107.623 38.9648 107.754 38.9944 107.892 38.9944Z" fill="white"/>
<path d="M37.9183 19.1779C37.9407 18.9925 37.9539 18.8014 37.9539 18.6061C37.9539 18.4993 37.9547 18.3752 37.9415 18.2345C39.5908 18.2113 41.0373 17.023 41.0373 15.6567C41.0373 14.9616 40.5838 14.4369 40.3281 14.1233C40.3852 14.1109 40.4431 14.0976 40.5019 14.0836C40.7435 14.2938 41.4287 15.0402 41.4287 15.9828C41.4287 17.6221 39.7902 19.144 37.9183 19.1779ZM36.2566 13.4687C36.226 13.2858 36.1565 13.1203 36.0506 12.978C36.0563 12.8108 36.125 12.6511 36.394 12.7827C36.2483 12.9316 36.3609 13.1956 36.3609 13.1956C36.3609 13.1956 36.6588 13.0574 36.5967 12.8605C37.0386 12.9664 36.7209 13.5597 36.2566 13.4687ZM35.8735 14.3103C35.8147 14.0654 35.6889 13.8138 35.5292 13.6243C35.3836 13.4522 35.1427 13.2478 34.8184 13.2478C34.6702 13.2478 34.422 13.3173 34.2639 13.3843C34.2051 13.2767 34.0901 13.0177 34.0901 12.901C34.0901 12.781 34.2929 12.6594 34.681 12.6594C35.535 12.6594 36.0448 13.045 36.0448 13.6921C36.0448 13.9197 35.9546 14.1266 35.8735 14.3103ZM38.0664 25.3166C38.1657 25.3166 38.2137 25.3323 38.2717 25.3538C38.5174 26.0225 39.465 27.2845 39.5047 27.3383L39.513 27.3498L39.527 27.3465C39.7596 27.3093 40.3529 27.2199 40.8494 27.2199H40.861C40.9148 27.2199 40.9761 27.2199 41.015 27.258C41.0472 27.2903 41.063 27.3465 41.063 27.4268C41.063 27.5501 41.0108 27.7611 40.9479 27.8513C40.7741 27.6618 40.492 27.5766 40.0401 27.5766C39.9044 27.5766 39.7439 27.6171 39.657 27.6403L39.6214 27.6478L39.5808 27.6585L39.8415 27.9192C40.2437 28.3214 40.5913 28.6681 40.5913 28.899C40.5913 29.038 40.4555 29.2192 40.3314 29.2995C40.3041 28.8766 39.8771 28.3106 39.4608 27.9937L39.4253 27.9672L39.4186 28.1161C39.4128 28.2171 39.4037 28.3685 39.4037 28.5307C39.4037 29.3359 39.3218 29.4584 39.0429 29.4584C38.9999 29.4584 38.9345 29.446 38.894 29.4311C39.0512 29.2366 39.1133 28.9801 39.1133 28.5299L39.1108 28.3222L39.1083 28.155C39.1083 27.9705 39.1273 27.8339 39.1422 27.7239L39.1505 27.6618L39.1067 27.656C38.9759 27.6378 38.7334 27.6047 38.5481 27.6047C38.15 27.6047 37.8802 27.6411 37.6849 27.8248C37.5558 27.7206 37.4234 27.541 37.4234 27.4276C37.4234 27.2596 37.5277 27.2464 37.6651 27.2464C37.7346 27.2464 37.7991 27.2563 37.8885 27.2671C38.0598 27.2927 38.3172 27.3308 38.8476 27.3308H38.8807L38.87 27.2985C38.7359 26.9137 38.3668 26.3543 37.7751 25.6352C37.8281 25.4424 37.8802 25.3166 38.0664 25.3166ZM32.9572 27.2985L32.9465 27.3308H32.9796C33.5092 27.3308 33.7674 27.2927 33.9387 27.2671C34.0281 27.2563 34.0926 27.2464 34.1621 27.2464C34.2987 27.2464 34.4038 27.2596 34.4038 27.4276C34.4038 27.541 34.2713 27.7206 34.1431 27.8248C33.947 27.6411 33.6772 27.6047 33.28 27.6047C33.0938 27.6047 32.8505 27.6378 32.7205 27.656L32.6999 27.6585L32.6767 27.6618L32.6841 27.7239C32.6999 27.8339 32.7189 27.9705 32.7189 28.155L32.7164 28.3222L32.7139 28.5299C32.7139 28.9801 32.776 29.2366 32.934 29.4311C32.8927 29.446 32.8273 29.4584 32.7843 29.4584C32.5046 29.4584 32.4235 29.3359 32.4235 28.5307C32.4235 28.3685 32.4152 28.2171 32.4094 28.1161L32.4011 27.9664L32.3664 27.9937C31.9509 28.3106 31.5223 28.8766 31.4966 29.2995C31.3717 29.2192 31.2359 29.038 31.2359 28.899C31.2359 28.6681 31.5835 28.3214 31.9857 27.9192L32.2464 27.6585L32.1702 27.6403C32.0833 27.6171 31.9228 27.5766 31.7863 27.5766C31.3352 27.5766 31.0539 27.6618 30.8793 27.8513C30.8164 27.7611 30.7642 27.5501 30.7642 27.4268C30.7642 27.3465 30.78 27.2903 30.8122 27.258C30.8511 27.2199 30.9124 27.2199 30.9662 27.2199H30.9777C31.4743 27.2199 32.0684 27.3093 32.3002 27.3465L32.3142 27.3498L32.3225 27.3383C32.363 27.2845 33.3098 26.0225 33.5564 25.3538C33.6126 25.3323 33.6615 25.3166 33.7608 25.3166C33.947 25.3166 33.9991 25.4424 34.0529 25.6352C33.4604 26.3543 33.0913 26.9137 32.9572 27.2985ZM30.3985 15.9828C30.3985 15.0402 31.0845 14.2938 31.3261 14.0836C31.3841 14.0976 31.442 14.1109 31.4999 14.1233C31.2434 14.4369 30.7899 14.9616 30.7899 15.6567C30.7899 17.0371 32.2646 18.2353 33.9345 18.2353C33.9238 18.3537 33.918 18.4778 33.918 18.6061C33.918 18.8096 33.9296 18.9992 33.9494 19.1779C32.061 19.1663 30.3985 17.6337 30.3985 15.9828ZM43.0648 18.8899C43.9122 20.2297 44.575 20.2074 45.5763 20.2074C44.748 19.5726 44.2002 18.7592 43.9387 18.3437L42.3912 15.8677C42.2405 15.1031 41.845 14.3881 41.2525 13.856C41.4519 13.7807 41.6174 13.7013 41.7167 13.6259C40.7063 13.6259 39.705 13.1129 39.1538 13.1129C38.7996 13.1129 38.5721 13.3247 38.5721 13.6044C38.5944 13.9164 38.9155 14.2334 39.5088 14.2334C39.6429 14.2334 39.815 14.216 40.0037 14.1845C40.3248 14.6322 40.5838 15.0369 40.5838 15.6145C40.5838 16.6986 39.2879 17.5435 37.9795 17.5435C37.9051 17.5435 37.8347 17.5402 37.7611 17.5352C37.6427 17.2663 37.248 16.8153 37.248 16.3022C37.248 15.4407 37.8099 14.7373 37.8099 13.8841C37.8099 13.3537 37.5517 13.0252 37.4524 12.8886C37.6129 12.7397 37.7884 12.5568 37.8298 12.431C37.7363 12.4715 37.6254 12.4765 37.464 12.4765C36.8367 12.4765 36.3253 12.3135 35.8271 12.3135C35.5424 12.3135 35.4663 12.4012 35.4663 12.4848C35.4663 12.5154 35.4705 12.5468 35.4787 12.5617C35.3728 12.5204 35.2735 12.493 35.1552 12.4715C35.0079 12.4434 34.8498 12.4293 34.681 12.4293C34.0752 12.4293 33.8601 12.6834 33.8601 12.901C33.8601 13.0847 34.0049 13.4207 34.1696 13.6773C34.4054 13.5581 34.6893 13.4778 34.8184 13.4778C35.1403 13.4778 35.4258 13.784 35.5772 14.1465C35.3612 14.173 35.3198 14.1821 35.1014 14.1821C34.5113 14.1821 34.11 13.971 34.0272 13.971C34.0198 13.971 34.0041 13.9752 34.0041 13.9884C34.0041 14.0712 34.1712 14.2896 34.5006 14.4096C34.935 14.5685 35.5855 14.6347 35.6939 14.6529C35.6939 14.672 35.5838 14.8772 35.4605 14.9169C35.4349 14.9252 35.4142 14.926 35.3836 14.9194C34.9301 14.83 34.8035 14.7919 34.2283 14.5735C34.2109 14.5669 34.2002 14.5776 34.2002 14.5958C34.2002 14.8234 34.7894 15.3257 35.3174 15.5185C34.8763 16.0813 34.326 16.6572 34.0661 17.5352C33.9925 17.5402 33.9213 17.5435 33.8477 17.5435C32.5393 17.5435 31.2434 16.6986 31.2434 15.6145C31.2434 15.0369 31.5024 14.6322 31.8235 14.1845C32.0122 14.216 32.1835 14.2334 32.3184 14.2334C32.9117 14.2334 33.2328 13.9164 33.256 13.6044C33.256 13.3247 33.0284 13.1129 32.6734 13.1129C32.1222 13.1129 31.1217 13.6259 30.1097 13.6259C30.2098 13.7013 30.3753 13.7807 30.5739 13.856C29.9822 14.3881 29.5867 15.1031 29.436 15.8677L27.8885 18.3437C27.6279 18.7592 27.0784 19.5726 26.25 20.2074C27.2513 20.2074 27.915 20.2297 28.7624 18.8899L29.556 17.6205C29.6148 17.7852 29.6868 17.9457 29.772 18.1029L28.1939 20.6277C27.9316 21.0465 27.3871 21.8525 26.5554 22.4914C27.5567 22.4914 28.2204 22.5145 29.0678 21.1756L30.4258 19.0008C30.5276 19.1092 30.6343 19.2151 30.7469 19.3161L28.8303 22.3846C28.5671 22.8042 28.0259 23.6085 27.1926 24.2466C28.1939 24.2466 28.8576 24.2706 29.7042 22.9308L31.5727 19.9392C31.6961 20.017 31.8218 20.0923 31.9526 20.1635L29.6711 23.8138C29.4079 24.2333 28.8667 25.0352 28.0334 25.6757C29.0347 25.6757 29.6984 25.6989 30.5458 24.3599L32.8943 20.6004C33.0334 20.6534 33.174 20.7047 33.3172 20.7502L30.6633 24.998C30.4043 25.4117 29.8506 26.2285 29.0264 26.8599C30.0269 26.8599 30.6914 26.8831 31.538 25.5442L34.3665 21.0175C34.3955 21.0225 34.4236 21.0266 34.4518 21.0324C34.5287 21.2774 34.5825 21.5058 34.5825 21.7333C34.5825 23.1559 33.649 24.4121 32.5286 25.382C32.6006 25.4134 32.7255 25.4242 32.8405 25.4242C33.0722 25.4242 33.2212 25.4117 33.3263 25.3935C33.0665 25.9836 32.5087 26.7457 32.2273 27.1396C31.8607 27.0734 31.327 27.0221 30.9777 27.0221C30.612 27.0221 30.5706 27.2356 30.5706 27.4268C30.5706 27.7586 30.7262 28.0226 30.9066 28.1699C30.9744 28.0003 31.111 27.7735 31.7863 27.7735C31.7995 27.7735 31.8227 27.7752 31.8541 27.7777C31.6572 27.997 31.039 28.4968 31.039 28.899C31.039 29.1655 31.3311 29.5652 31.7159 29.5652C31.6936 29.4791 31.6961 29.4005 31.6961 29.3409C31.6961 29.0148 31.9849 28.6334 32.229 28.3669C32.2215 28.4463 32.2257 28.438 32.2257 28.5307C32.2257 29.3012 32.2952 29.6554 32.7843 29.6554C33.0242 29.6554 33.1898 29.5238 33.2469 29.4841C32.9291 29.1919 32.9125 28.9619 32.9125 28.5299C32.9134 28.4174 32.9142 28.3073 32.9158 28.1559C32.9167 28.0566 32.915 27.9258 32.8993 27.8315C33.0739 27.8075 33.1451 27.8075 33.28 27.8075C33.28 27.8075 33.9743 27.752 34.1423 28.1137C34.3309 27.9407 34.6048 27.6966 34.6048 27.4276C34.6048 27.2497 34.5204 27.0486 34.1621 27.0486C34.0264 27.0486 33.6002 27.1314 33.2435 27.1314C33.3395 26.9187 33.7657 26.2947 34.1356 25.8421C34.1919 26.0175 34.2788 26.207 34.4724 26.3626C34.4997 26.0713 34.6702 25.1502 35.1254 24.6115C35.1783 24.9756 35.2495 25.3489 35.2495 26.1358C35.2495 28.0508 34.7894 29.465 33.8121 29.7348C33.9395 29.9558 34.2085 30.1552 34.4873 30.1552C34.8448 30.1552 35.0393 29.7505 35.2379 29.369C35.3414 29.6504 35.6269 30.3406 35.9132 30.3406C36.1995 30.3406 36.4858 29.6504 36.5893 29.369C36.7871 29.7505 36.9824 30.1552 37.3399 30.1552C37.6187 30.1552 37.8877 29.9558 38.0151 29.7348C37.0378 29.465 36.5769 28.0508 36.5769 26.1358C36.5769 25.3489 36.648 24.9756 36.701 24.6115C37.157 25.1502 37.3283 26.0713 37.3539 26.3626C37.5484 26.207 37.6361 26.0175 37.6916 25.8421C38.0606 26.2947 38.4877 26.9187 38.5837 27.1314C38.227 27.1314 37.8 27.0486 37.6651 27.0486C37.3076 27.0486 37.2232 27.2497 37.2232 27.4276C37.2232 27.6966 37.4971 27.9407 37.6858 28.1137C37.8521 27.752 38.5481 27.8075 38.5481 27.8075C38.6821 27.8075 38.7533 27.8075 38.9287 27.8315C38.9122 27.9258 38.9114 28.0566 38.9122 28.1559C38.9138 28.3073 38.9138 28.4174 38.9147 28.5299C38.9147 28.9619 38.8981 29.1919 38.5803 29.4841C38.6374 29.5238 38.8029 29.6554 39.0429 29.6554C39.532 29.6554 39.6023 29.3012 39.6023 28.5307C39.6023 28.438 39.6048 28.4463 39.5982 28.3669C39.8423 28.6334 40.1311 29.0148 40.1311 29.3409C40.1311 29.4005 40.1345 29.4791 40.1105 29.5652C40.4961 29.5652 40.789 29.1655 40.789 28.899C40.789 28.4968 40.1709 27.997 39.9723 27.7777C40.0045 27.7752 40.0277 27.7735 40.0401 27.7735C40.7162 27.7735 40.8528 28.0003 40.9206 28.1699C41.101 28.0226 41.2566 27.7586 41.2566 27.4268C41.2566 27.2356 41.2152 27.0221 40.8494 27.0221C40.5002 27.0221 39.9673 27.0734 39.5999 27.1396C39.3177 26.7457 38.7616 25.9836 38.5009 25.3935C38.606 25.4117 38.7558 25.4242 38.9867 25.4242C39.1025 25.4242 39.2266 25.4134 39.2986 25.382C38.1782 24.4121 37.2447 23.1559 37.2447 21.7333C37.2447 21.5058 37.2985 21.2774 37.3754 21.0324C37.4028 21.0266 37.4325 21.0225 37.4607 21.0175L40.2892 25.5442C41.1358 26.8831 41.8003 26.8599 42.8008 26.8599C41.9766 26.2285 41.4229 25.4117 41.1639 24.998L38.5092 20.7502C38.6532 20.7047 38.7947 20.6534 38.9337 20.6004L41.2814 24.3599C42.1288 25.6989 42.7925 25.6757 43.7938 25.6757C42.9605 25.0352 42.4193 24.2333 42.1561 23.8138L39.8754 20.1635C40.0045 20.0923 40.1311 20.017 40.2536 19.9392L42.123 22.9308C42.9704 24.2706 43.6333 24.2466 44.6346 24.2466C43.8013 23.6085 43.2609 22.8042 42.9969 22.3846L41.0803 19.3161C41.1929 19.2151 41.3005 19.1092 41.4006 19.0008L42.7602 21.1756C43.6068 22.5145 44.2705 22.4914 45.2718 22.4914C44.4393 21.8525 43.8964 21.0465 43.6333 20.6277L42.056 18.1029C42.1404 17.9457 42.2124 17.7852 42.272 17.6205L43.0648 18.8899Z" fill="white"/>
<path d="M53.498 29.6553H50.6016V13.1045H53.498V29.6553Z" fill="white"/>
<path d="M53.498 46.2061H50.6016V29.6553H53.498V46.2061Z" fill="#CECECE"/>
<path d="M53.498 62.7568H50.6016V46.2061H53.498V62.7568Z" fill="#9D9D9D"/>
</g>
</svg>
