<svg width="135" height="75" viewBox="0 0 135 75" fill="none" xmlns="http://www.w3.org/2000/svg">
<mask id="mask0_22685_135334" style="mask-type:luminance" maskUnits="userSpaceOnUse" x="9" y="26" width="116" height="24">
<path d="M124.762 26.0342H9.76172V49.0342H124.762V26.0342Z" fill="white"/>
</mask>
<g mask="url(#mask0_22685_135334)">
<path d="M14.0199 39.7314H9.76172V35.5808H14.0199V39.7314ZM9.76172 26.0342V33.0907H11.0394V32.8835C11.0394 29.5632 12.9556 27.4875 16.5753 27.4875H16.7879V42.4301C16.7879 44.5058 15.9361 45.3353 13.8074 45.3353H13.1689V46.7879H24.2408V45.3353H23.6023C21.4728 45.3353 20.6218 44.5051 20.6218 42.4301V27.4868H20.8343C24.4541 27.4868 26.3703 29.5625 26.3703 32.8828V33.09H27.648V26.0342H9.76172ZM23.389 39.7314H27.6473V35.5808H23.389V39.7314Z" fill="white"/>
<path d="M35.832 40.0126H39.2745C39.5547 41.4045 40.4989 41.9514 41.7736 41.9514C43.2271 41.9514 43.9669 41.1563 43.9669 40.0873C43.9669 39.0184 43.2526 38.4715 41.9268 38.1237L39.9633 37.5768C37.2607 36.8563 36.164 34.9425 36.164 32.9041C36.164 29.7478 38.5865 27.7095 41.7488 27.7095C45.1913 27.7095 47.0527 29.6731 47.3839 32.7299H44.018C43.8137 31.4874 43.0746 30.8658 41.7488 30.8658C40.5755 30.8658 39.6832 31.5621 39.6832 32.6801C39.6832 33.7981 40.4734 34.2213 41.4168 34.4695L43.3803 34.9915C45.9305 35.638 47.4861 37.4772 47.4861 39.8882C47.4861 43.2188 44.9615 45.1077 41.7743 45.1077C38.2552 45.1077 36.1384 43.2934 35.832 40.0126Z" fill="white"/>
<path d="M56.9971 32.73H60.5162L55.7224 46.0025C55.0592 47.8168 53.7845 49.0351 51.6933 49.0351C51.0555 49.0351 50.3419 48.9604 49.7042 48.7122V46.1519C50.0866 46.2515 50.571 46.3012 51.0555 46.3012C51.8713 46.3012 52.3558 46.0033 52.7389 44.9841L53.019 44.2637L48.582 32.7307H52.1011L54.498 39.9886H54.6513L56.9971 32.73Z" fill="white"/>
<path d="M61.2539 41.3046H64.3141C64.4929 42.1744 65.0788 42.5471 65.9463 42.5471C66.8139 42.5471 67.3743 42.1246 67.3743 41.4283C67.3743 40.7321 66.8132 40.3843 65.9974 40.161L64.3141 39.7385C62.5294 39.2663 61.4072 38.1724 61.4072 36.0851C61.4072 33.9977 63.1408 32.3569 65.9463 32.3569C68.5476 32.3569 70.2812 33.7985 70.5366 36.2095H67.3743C67.2466 35.3397 66.7621 34.9173 65.9463 34.9173C65.1306 34.9173 64.6206 35.4144 64.6206 36.036C64.6206 36.6576 65.0029 37.0054 65.7172 37.1547L67.375 37.5772C69.4662 38.0992 70.5621 39.3168 70.5621 41.1809C70.5621 43.567 68.7774 45.1082 65.9463 45.1082C63.1153 45.1082 61.4582 43.6914 61.2547 41.3053L61.2539 41.3046Z" fill="white"/>
<path d="M74.3217 41.1802V35.4636H72.2305V32.7297H74.3217V30.7909L76.9988 28.3799H77.611V32.7297H80.7478V35.4636H77.611V40.7827C77.611 41.6774 78.1465 42.1496 79.09 42.1496C79.5745 42.1496 80.059 42.0749 80.4924 41.9754V44.4859C79.8036 44.7839 79.0644 44.9084 78.1465 44.9084C75.8773 44.9084 74.3217 43.6161 74.3217 41.1802Z" fill="white"/>
<path d="M93.1344 39.4905H85.4337C85.6124 41.7522 86.5559 42.3986 87.805 42.3986C88.7996 42.3986 89.4628 42.026 89.7685 41.2799H93.0834C92.5989 43.6411 90.5077 45.1076 87.805 45.1076C84.5158 45.1076 82.2969 42.7962 82.2969 38.7196C82.2969 34.6429 84.4392 32.3315 87.8817 32.3315C91.0943 32.3315 93.1855 34.7176 93.1855 38.3711C93.1855 38.7935 93.1855 39.2167 93.1344 39.4905ZM85.5358 37.1791H90.075C89.8452 35.5632 88.9783 35.0412 87.8817 35.0412C86.6828 35.0412 85.8415 35.5632 85.5358 37.1791Z" fill="white"/>
<path d="M113.035 36.7813V44.7099H109.746V37.1789C109.746 36.0104 109.313 35.265 108.139 35.265C106.865 35.265 106.023 36.1846 106.023 37.676V44.7099H102.733V37.1789C102.733 36.0104 102.3 35.265 101.127 35.265C99.8774 35.265 99.0354 36.2095 99.0354 37.676V44.7099H95.7461V32.7296H98.8318V34.1961H98.985C99.6228 33.0276 100.795 32.332 102.274 32.332C103.932 32.332 105.028 32.9785 105.564 34.2459H105.717C106.406 33.0034 107.706 32.332 109.287 32.332C111.786 32.332 113.035 33.8483 113.035 36.7813Z" fill="white"/>
<path d="M115.453 41.3046H118.513C118.692 42.1744 119.278 42.5471 120.146 42.5471C121.013 42.5471 121.574 42.1246 121.574 41.4283C121.574 40.7321 121.012 40.3843 120.197 40.161L118.513 39.7385C116.729 39.2663 115.606 38.1724 115.606 36.0851C115.606 33.9977 117.34 32.3569 120.146 32.3569C122.747 32.3569 124.481 33.7985 124.736 36.2095H121.574C121.446 35.3397 120.961 34.9173 120.146 34.9173C119.33 34.9173 118.82 35.4144 118.82 36.036C118.82 36.6576 119.202 37.0054 119.917 37.1547L121.574 37.5772C123.666 38.0992 124.761 39.3168 124.761 41.1809C124.761 43.567 122.977 45.1082 120.146 45.1082C117.315 45.1082 115.658 43.6914 115.454 41.3053L115.453 41.3046Z" fill="white"/>
</g>
</svg>
