<svg xmlns="http://www.w3.org/2000/svg" width="43" height="42" viewBox="0 0 43 42" fill="none">
    <path d="M24.7603 21L21.2603 24.5L17.7603 21L21.2603 17.5L24.7603 21ZM21.2603 10.5L24.9703 14.21L29.3453 9.835L21.2603 1.75L13.1753 9.835L17.5503 14.21L21.2603 10.5ZM10.7603 21L14.4703 17.29L10.0953 12.915L2.01025 21L10.0953 29.085L14.4703 24.71L10.7603 21ZM31.7603 21L28.0503 24.71L32.4253 29.085L40.5103 21L32.4253 12.915L28.0503 17.29L31.7603 21ZM21.2603 31.5L17.5503 27.79L13.1753 32.165L21.2603 40.25L29.3453 32.165L24.9703 27.79L21.2603 31.5Z" fill="url(#paint0_linear_6530_36363)"/>
    <defs>
        <linearGradient id="paint0_linear_6530_36363" x1="7.81086" y1="8.89729" x2="39.8642" y2="40.8976" gradientUnits="userSpaceOnUse">
            <stop offset="0.015625" stop-color="#F2D5FF"/>
            <stop offset="1" stop-color="#CB5AFF"/>
        </linearGradient>
    </defs>
</svg>