<svg xmlns="http://www.w3.org/2000/svg" width="43" height="42" viewBox="0 0 43 42" fill="none">
    <path d="M33.7563 5.24902H9.25635C7.33135 5.24902 5.75635 6.82402 5.75635 8.74902V33.249C5.75635 35.174 7.33135 36.749 9.25635 36.749H33.7563C35.6813 36.749 37.2563 35.174 37.2563 33.249V8.74902C37.2563 6.82402 35.6813 5.24902 33.7563 5.24902ZM18.0063 30.274L15.2063 31.499C12.5813 28.874 11.0063 25.024 11.0063 20.999C11.0063 16.974 12.5813 13.124 15.2063 10.499L18.0063 11.724C15.7313 13.824 14.5063 17.324 14.5063 20.999C14.5063 24.674 15.7313 28.174 18.0063 30.274ZM27.8063 31.499L25.0063 30.274C27.2813 27.999 28.5063 24.674 28.5063 20.999C28.5063 17.324 27.2813 13.824 25.0063 11.724L27.8063 10.499C30.4313 13.124 32.0063 16.974 32.0063 20.999C32.0063 25.024 30.4313 28.874 27.8063 31.499Z" fill="url(#paint0_linear_6530_36361)"/>
    <defs>
        <linearGradient id="paint0_linear_6530_36361" x1="10.5023" y1="11.0968" x2="36.7277" y2="37.2788" gradientUnits="userSpaceOnUse">
            <stop offset="0.015625" stop-color="#F2D5FF"/>
            <stop offset="1" stop-color="#CB5AFF"/>
        </linearGradient>
    </defs>
</svg>