<svg xmlns="http://www.w3.org/2000/svg" width="43" height="43" viewBox="0 0 43 43" fill="none">
    <g clip-path="url(#clip0_6530_36349)">
        <path d="M10.6938 26.7188H6.40197C6.17456 26.3178 5.84421 25.9847 5.44505 25.7539C5.04589 25.5232 4.59238 25.4032 4.13135 25.4063C3.43515 25.4063 2.76748 25.6829 2.27519 26.1752C1.78291 26.6674 1.50635 27.3351 1.50635 28.0313C1.50635 28.7275 1.78291 29.3952 2.27519 29.8875C2.76748 30.3797 3.43515 30.6563 4.13135 30.6563C4.59238 30.6594 5.04589 30.5394 5.44505 30.3087C5.84421 30.078 6.17456 29.7449 6.40197 29.3438H10.6938V26.7188Z" fill="url(#paint0_linear_6530_36349)"/>
        <path d="M38.2559 12.2813C37.7948 12.2782 37.3413 12.3982 36.9422 12.6289C36.543 12.8597 36.2127 13.1928 35.9852 13.5938H31.6934V16.2188H35.9852C36.2158 16.6174 36.5472 16.9484 36.9462 17.1784C37.3452 17.4083 37.7977 17.5292 38.2582 17.5289C38.7187 17.5286 39.171 17.4072 39.5697 17.1767C39.9684 16.9462 40.2994 16.6148 40.5295 16.2159C40.7595 15.8169 40.8805 15.3645 40.8803 14.904C40.8801 14.4434 40.7587 13.9911 40.5283 13.5924C40.2979 13.1936 39.9666 12.8626 39.5677 12.6324C39.1688 12.4023 38.7164 12.2812 38.2559 12.2813Z" fill="url(#paint1_linear_6530_36349)"/>
        <path d="M33.5499 7.03081L27.7564 1.2373L21.9629 7.03081L26.4439 11.5118V24.0933H29.0689V11.5118L33.5499 7.03081ZM27.7564 4.94932L29.8379 7.03081L27.7564 9.1123L25.6749 7.03081L27.7564 4.94932Z" fill="url(#paint2_linear_6530_36349)"/>
        <path d="M15.9444 31.4262V18.8447H13.3194V31.4262L8.83838 35.9072L14.6319 41.7007L20.4254 35.9072L15.9444 31.4262ZM12.5504 35.9072L14.6319 33.8257L16.7134 35.9072L14.6319 37.9887L12.5504 35.9072Z" fill="url(#paint3_linear_6530_36349)"/>
        <path d="M23.8184 13.5943H11.2369L6.75591 9.11328L0.962402 14.9068L6.75591 20.7003L11.2369 16.2193H23.8184V13.5943ZM6.75591 16.9883L4.67441 14.9068L6.75591 12.8253L8.8374 14.9068L6.75591 16.9883Z" fill="url(#paint4_linear_6530_36349)"/>
        <path d="M17.2564 4.40625C17.2564 3.71006 16.9798 3.04238 16.4876 2.55009C15.9953 2.05781 15.3276 1.78125 14.6314 1.78125C13.9352 1.78125 13.2675 2.05781 12.7753 2.55009C12.283 3.04238 12.0064 3.71006 12.0064 4.40625C12.0033 4.86729 12.1233 5.32081 12.354 5.71998C12.5847 6.11914 12.9178 6.44948 13.3189 6.67688V10.9688H15.9439V6.67688C16.345 6.44948 16.6781 6.11914 16.9088 5.71998C17.1395 5.32081 17.2595 4.86729 17.2564 4.40625Z" fill="url(#paint5_linear_6530_36349)"/>
        <path d="M29.0688 36.2623V31.9697H26.4438V36.2616C25.9434 36.5505 25.5523 36.9965 25.3312 37.5304C25.11 38.0642 25.0712 38.6562 25.2208 39.2143C25.3704 39.7725 25.6999 40.2657 26.1583 40.6175C26.6168 40.9692 27.1785 41.1599 27.7563 41.1599C28.3342 41.1599 28.8959 40.9692 29.3543 40.6175C29.8128 40.2657 30.1423 39.7725 30.2919 39.2143C30.4415 38.6562 30.4027 38.0642 30.1815 37.5304C29.9604 36.9965 29.5693 36.5512 29.0688 36.2623Z" fill="url(#paint6_linear_6530_36349)"/>
        <path d="M41.4249 28.0318L35.6313 22.2383L31.1503 26.7193H18.5688V29.3443H31.1503L35.6313 33.8253L41.4249 28.0318ZM35.6313 25.9503L37.7128 28.0318L35.6313 30.1133L33.5499 28.0318L35.6313 25.9503Z" fill="url(#paint7_linear_6530_36349)"/>
    </g>
    <defs>
        <linearGradient id="paint0_linear_6530_36349" x1="2.89058" y1="26.3809" x2="6.65958" y2="32.9656" gradientUnits="userSpaceOnUse">
            <stop offset="0.015625" stop-color="#F2D5FF"/>
            <stop offset="1" stop-color="#CB5AFF"/>
        </linearGradient>
        <linearGradient id="paint1_linear_6530_36349" x1="33.0775" y1="13.2555" x2="36.844" y2="19.8384" gradientUnits="userSpaceOnUse">
            <stop offset="0.015625" stop-color="#F2D5FF"/>
            <stop offset="1" stop-color="#CB5AFF"/>
        </linearGradient>
        <linearGradient id="paint2_linear_6530_36349" x1="23.7086" y1="5.48038" x2="39.0425" y2="13.2411" gradientUnits="userSpaceOnUse">
            <stop offset="0.015625" stop-color="#F2D5FF"/>
            <stop offset="1" stop-color="#CB5AFF"/>
        </linearGradient>
        <linearGradient id="paint3_linear_6530_36349" x1="10.5841" y1="23.0878" x2="25.918" y2="30.8485" gradientUnits="userSpaceOnUse">
            <stop offset="0.015625" stop-color="#F2D5FF"/>
            <stop offset="1" stop-color="#CB5AFF"/>
        </linearGradient>
        <linearGradient id="paint4_linear_6530_36349" x1="4.406" y1="11.2643" x2="12.1948" y2="26.6028" gradientUnits="userSpaceOnUse">
            <stop offset="0.015625" stop-color="#F2D5FF"/>
            <stop offset="1" stop-color="#CB5AFF"/>
        </linearGradient>
        <linearGradient id="paint5_linear_6530_36349" x1="12.7974" y1="3.48685" x2="19.3819" y2="7.24329" gradientUnits="userSpaceOnUse">
            <stop offset="0.015625" stop-color="#F2D5FF"/>
            <stop offset="1" stop-color="#CB5AFF"/>
        </linearGradient>
        <linearGradient id="paint6_linear_6530_36349" x1="25.9223" y1="33.6758" x2="32.5077" y2="37.4316" gradientUnits="userSpaceOnUse">
            <stop offset="0.015625" stop-color="#F2D5FF"/>
            <stop offset="1" stop-color="#CB5AFF"/>
        </linearGradient>
        <linearGradient id="paint7_linear_6530_36349" x1="22.0124" y1="24.3893" x2="29.8013" y2="39.7278" gradientUnits="userSpaceOnUse">
            <stop offset="0.015625" stop-color="#F2D5FF"/>
            <stop offset="1" stop-color="#CB5AFF"/>
        </linearGradient>
        <clipPath id="clip0_6530_36349">
            <rect width="42" height="42" fill="white" transform="translate(0.193848 0.46875)"/>
        </clipPath>
    </defs>
</svg>