<svg width="99" height="99" viewBox="0 0 99 99" fill="none" xmlns="http://www.w3.org/2000/svg">
<g filter="url(#filter0_d_5002_4931)">
<rect x="25.1934" y="23.4082" width="49" height="49" rx="7.5" fill="#0D0317" stroke="url(#paint0_linear_5002_4931)"/>
<g clip-path="url(#clip0_5002_4931)">
<path d="M42.3789 52.5938H39.1089C38.9356 52.2882 38.6839 52.0344 38.3798 51.8587C38.0757 51.6829 37.7302 51.5914 37.3789 51.5938C36.8485 51.5938 36.3398 51.8045 35.9647 52.1796C35.5896 52.5547 35.3789 53.0634 35.3789 53.5938C35.3789 54.1242 35.5896 54.6329 35.9647 55.008C36.3398 55.3831 36.8485 55.5938 37.3789 55.5938C37.7302 55.5962 38.0757 55.5047 38.3798 55.3289C38.6839 55.1531 38.9356 54.8994 39.1089 54.5938H42.3789V52.5938Z" fill="white"/>
<path d="M63.3789 41.5938C63.0276 41.5914 62.6821 41.6829 62.378 41.8587C62.0739 42.0344 61.8222 42.2882 61.6489 42.5938H58.3789V44.5938H61.6489C61.8246 44.8975 62.0771 45.1497 62.3811 45.3249C62.6851 45.5001 63.0298 45.5922 63.3807 45.592C63.7316 45.5918 64.0762 45.4992 64.38 45.3236C64.6837 45.148 64.9359 44.8955 65.1112 44.5916C65.2865 44.2876 65.3787 43.9429 65.3785 43.592C65.3783 43.2411 65.2858 42.8965 65.1103 42.5927C64.9347 42.2889 64.6823 42.0367 64.3784 41.8613C64.0745 41.686 63.7298 41.5937 63.3789 41.5938Z" fill="white"/>
<path d="M59.793 37.5938L55.3789 33.1797L50.9648 37.5938L54.3789 41.0079V50.5938H56.3789V41.0079L59.793 37.5938ZM55.3789 36.0079L56.9648 37.5938L55.3789 39.1797L53.793 37.5938L55.3789 36.0079Z" fill="white"/>
<path d="M46.3789 56.1796V46.5938H44.3789V56.1796L40.9648 59.5938L45.3789 64.0079L49.793 59.5938L46.3789 56.1796ZM43.793 59.5938L45.3789 58.0079L46.9648 59.5938L45.3789 61.1796L43.793 59.5938Z" fill="white"/>
<path d="M52.3789 42.5938H42.793L39.3789 39.1797L34.9648 43.5938L39.3789 48.0079L42.793 44.5938H52.3789V42.5938ZM39.3789 45.1797L37.793 43.5938L39.3789 42.0079L40.9648 43.5938L39.3789 45.1797Z" fill="white"/>
<path d="M47.379 35.5938C47.379 35.0633 47.1682 34.5546 46.7932 34.1795C46.4181 33.8045 45.9094 33.5938 45.379 33.5938C44.8485 33.5938 44.3398 33.8045 43.9647 34.1795C43.5897 34.5546 43.379 35.0633 43.379 35.5938C43.3766 35.945 43.468 36.2906 43.6438 36.5947C43.8196 36.8988 44.0734 37.1505 44.379 37.3238V40.5938H46.379V37.3238C46.6845 37.1505 46.9383 36.8988 47.1141 36.5947C47.2899 36.2906 47.3813 35.945 47.379 35.5938Z" fill="white"/>
<path d="M56.3789 59.8643V56.5938H54.3789V59.8638C53.9976 60.0839 53.6996 60.4237 53.5311 60.8304C53.3627 61.2372 53.3331 61.6882 53.4471 62.1134C53.561 62.5387 53.8121 62.9145 54.1614 63.1825C54.5107 63.4505 54.9386 63.5958 55.3789 63.5958C55.8192 63.5958 56.2471 63.4505 56.5964 63.1825C56.9457 62.9145 57.1968 62.5387 57.3108 62.1134C57.4247 61.6882 57.3952 61.2372 57.2267 60.8304C57.0582 60.4237 56.7602 60.0844 56.3789 59.8643Z" fill="white"/>
<path d="M65.793 53.5938L61.3789 49.1797L57.9648 52.5938H48.3789V54.5938H57.9648L61.3789 58.0079L65.793 53.5938ZM61.3789 52.0079L62.9648 53.5938L61.3789 55.1797L59.793 53.5938L61.3789 52.0079Z" fill="white"/>
</g>
</g>
<defs>
<filter id="filter0_d_5002_4931" x="0.693359" y="0.59375" width="98.1855" height="98.3145" filterUnits="userSpaceOnUse" color-interpolation-filters="sRGB">
<feFlood flood-opacity="0" result="BackgroundImageFix"/>
<feColorMatrix in="SourceAlpha" type="matrix" values="0 0 0 0 0 0 0 0 0 0 0 0 0 0 0 0 0 0 127 0" result="hardAlpha"/>
<feOffset dy="2"/>
<feGaussianBlur stdDeviation="12"/>
<feComposite in2="hardAlpha" operator="out"/>
<feColorMatrix type="matrix" values="0 0 0 0 0.541653 0 0 0 0 0.0725521 0 0 0 0 0.829167 0 0 0 0.3 0"/>
<feBlend mode="normal" in2="BackgroundImageFix" result="effect1_dropShadow_5002_4931"/>
<feBlend mode="normal" in="SourceGraphic" in2="effect1_dropShadow_5002_4931" result="shape"/>
</filter>
<linearGradient id="paint0_linear_5002_4931" x1="32.2266" y1="32.1904" x2="73.8543" y2="73.7492" gradientUnits="userSpaceOnUse">
<stop offset="0.015625" stop-color="#B010FB"/>
<stop offset="0.130208" stop-color="#DE97FF"/>
<stop offset="0.234375" stop-color="#A227DB"/>
<stop offset="0.505208" stop-color="#A227DB" stop-opacity="0"/>
<stop offset="0.765625" stop-color="#A610EC" stop-opacity="0.84"/>
</linearGradient>
<clipPath id="clip0_5002_4931">
<rect width="32" height="32" fill="white" transform="translate(34.3789 32.5938)"/>
</clipPath>
</defs>
</svg>
