<svg xmlns="http://www.w3.org/2000/svg" width="43" height="42" viewBox="0 0 43 42" fill="none">
    <g clip-path="url(#clip0_6530_36359)">
        <path d="M37.5029 12.249C34.5979 12.249 32.2529 14.594 32.2529 17.499C32.2529 17.6215 32.2529 17.744 32.2704 17.8665L28.7179 19.0565C27.5979 16.939 25.5329 15.399 23.0829 14.9965V11.2165C25.3229 10.6215 27.0029 8.57402 27.0029 6.12402C27.0029 3.21902 24.6579 0.874023 21.7529 0.874023C18.8479 0.874023 16.5029 3.21902 16.5029 6.12402C16.5029 8.57402 18.1829 10.6215 20.4404 11.2165V14.9965C17.9904 15.399 15.9254 16.939 14.8054 19.0565L11.2354 17.8665C11.2529 17.744 11.2529 17.6215 11.2529 17.499C11.2529 14.594 8.90793 12.249 6.00293 12.249C3.09793 12.249 0.75293 14.594 0.75293 17.499C0.75293 20.404 3.09793 22.749 6.00293 22.749C7.85793 22.749 9.46793 21.7865 10.4129 20.3515L13.9654 21.5415C13.6154 23.799 14.2629 26.1965 15.8729 27.999L13.4054 31.0965C12.7404 30.7815 12.0229 30.624 11.2529 30.624C8.34793 30.624 6.00293 32.969 6.00293 35.874C6.00293 38.779 8.34793 41.124 11.2529 41.124C14.1579 41.124 16.5029 38.779 16.5029 35.874C16.5029 34.684 16.1179 33.599 15.4529 32.724L17.9204 29.6265C20.3004 30.9565 23.2054 30.939 25.5679 29.6265L28.0354 32.724C27.3879 33.599 27.0029 34.684 27.0029 35.874C27.0029 38.779 29.3479 41.124 32.2529 41.124C35.1579 41.124 37.5029 38.779 37.5029 35.874C37.5029 32.969 35.1579 30.624 32.2529 30.624C31.4829 30.624 30.7654 30.7815 30.1004 31.079L27.6329 27.9815C29.2604 26.1615 29.8904 23.7815 29.5404 21.524L33.0929 20.334C34.0204 21.769 35.6479 22.7315 37.5029 22.7315C40.4079 22.7315 42.7529 20.3865 42.7529 17.4815C42.7529 14.5765 40.4079 12.249 37.5029 12.249ZM6.00293 19.249C5.04043 19.249 4.25293 18.4615 4.25293 17.499C4.25293 16.5365 5.04043 15.749 6.00293 15.749C6.96543 15.749 7.75293 16.5365 7.75293 17.499C7.75293 18.4615 6.96543 19.249 6.00293 19.249ZM11.2529 37.624C10.2904 37.624 9.50293 36.8365 9.50293 35.874C9.50293 34.9115 10.2904 34.124 11.2529 34.124C12.2154 34.124 13.0029 34.9115 13.0029 35.874C13.0029 36.8365 12.2154 37.624 11.2529 37.624ZM20.0029 6.12402C20.0029 5.16152 20.7904 4.37402 21.7529 4.37402C22.7154 4.37402 23.5029 5.16152 23.5029 6.12402C23.5029 7.08652 22.7154 7.87402 21.7529 7.87402C20.7904 7.87402 20.0029 7.08652 20.0029 6.12402ZM21.7529 27.124C19.3379 27.124 17.3779 25.164 17.3779 22.749C17.3779 20.334 19.3379 18.374 21.7529 18.374C24.1679 18.374 26.1279 20.334 26.1279 22.749C26.1279 25.164 24.1679 27.124 21.7529 27.124ZM32.2529 34.124C33.2154 34.124 34.0029 34.9115 34.0029 35.874C34.0029 36.8365 33.2154 37.624 32.2529 37.624C31.2904 37.624 30.5029 36.8365 30.5029 35.874C30.5029 34.9115 31.2904 34.124 32.2529 34.124ZM37.5029 19.249C36.5404 19.249 35.7529 18.4615 35.7529 17.499C35.7529 16.5365 36.5404 15.749 37.5029 15.749C38.4654 15.749 39.2529 16.5365 39.2529 17.499C39.2529 18.4615 38.4654 19.249 37.5029 19.249Z" fill="url(#paint0_linear_6530_36359)"/>
    </g>
    <defs>
        <linearGradient id="paint0_linear_6530_36359" x1="7.08086" y1="8.34619" x2="40.5632" y2="43.2264" gradientUnits="userSpaceOnUse">
            <stop offset="0.015625" stop-color="#F2D5FF"/>
            <stop offset="1" stop-color="#CB5AFF"/>
        </linearGradient>
        <clipPath id="clip0_6530_36359">
            <rect width="42" height="42" fill="white" transform="translate(0.75293)"/>
        </clipPath>
    </defs>
</svg>