<svg width="371" height="230" viewBox="0 0 371 230" fill="none" xmlns="http://www.w3.org/2000/svg">
<g id="continuous-integration">
<rect x="1.03711" y="0.5" width="369" height="229" rx="7.5" fill="#161617"/>
<rect x="1.03711" y="0.5" width="369" height="229" rx="7.5" stroke="#252526"/>
<g id="Frame 15416">
<path id="Vector 140" d="M138.906 152.73L96.6561 129.953" stroke="url(#paint0_linear_92_329)" stroke-width="0.793144" stroke-linecap="round" stroke-linejoin="round"/>
<g id="Glow" filter="url(#filter0_f_92_329)">
<rect width="66.2433" height="83.2324" transform="matrix(-1 0 0 1 152.021 37.207)" fill="url(#paint1_linear_92_329)"/>
</g>
<path id="Vector 140_2" d="M220.626 142.453L187.368 161.361" stroke="url(#paint2_linear_92_329)" stroke-width="0.793144" stroke-linejoin="round"/>
<path id="Vector 141" d="M123.845 113.191L96.6377 129.957" stroke="#AA50FF" stroke-width="0.793144" stroke-linejoin="round"/>
<g id="Vector 99" filter="url(#filter1_dddd_92_329)">
<path d="M216.309 186.255C216.433 186.326 216.509 186.457 216.509 186.6C216.508 186.743 216.432 186.874 216.307 186.944L180.124 207.376C180.003 207.444 179.856 207.444 179.735 207.376L114.458 170.652C114.334 170.582 114.257 170.452 114.256 170.311C114.254 170.169 114.328 170.038 114.449 169.965L150.204 148.683C150.327 148.61 150.48 148.608 150.604 148.679L216.309 186.255Z" stroke="white" stroke-opacity="0.81" stroke-width="0.793144" stroke-linejoin="round"/>
</g>
<g id="Frame 913">
<path id="Vector 101" d="M180.104 180.446L180.104 203.44L215.881 182.35L215.881 159.984L180.104 180.446Z" fill="#060409"/>
<path id="Vector 102" d="M180.174 180.152L180.174 203.453L114.697 166.475L114.697 143.863L180.174 180.152Z" fill="#14101D"/>
<path id="Vector 100" d="M179.928 180.542L216.111 160.111L150.406 122.535L114.651 143.818L179.928 180.542Z" fill="#1D1925"/>
<g id="Github" clip-path="url(#clip0_92_329)">
<path id="Vector" fill-rule="evenodd" clip-rule="evenodd" d="M152.334 142.254C145.811 145.583 145.85 150.984 152.421 154.337C157.674 157.018 165.499 157.563 171.76 155.974C172.464 155.735 172.305 155.435 171.99 155.274C171.715 155.134 170.751 154.662 169.767 154.16C167.194 156.196 164.386 155.46 164.386 155.46C162.482 155.026 161.346 155.244 161.346 155.244C159.544 155.421 160.697 154.833 160.697 154.833C161.967 154.265 163.733 154.528 163.733 154.528C166.597 154.914 167.785 153.786 168.153 153.277C167.484 152.835 167.265 152.405 167.302 152.085C164.41 153.28 160.633 154.163 156.069 151.833C154.77 151.171 154.176 150.39 154.092 149.589C153.68 149.499 152.05 149.085 151.061 147.923C151.061 147.923 151.743 147.254 155.523 146.891C156.224 146.268 157.083 145.695 158.078 145.186C159.074 144.678 160.227 144.23 161.421 143.882C162.132 141.953 163.443 141.605 163.443 141.605C165.72 142.11 166.53 142.942 166.708 143.152C168.296 143.185 169.807 143.498 171.106 144.16C175.67 146.489 173.92 148.406 171.579 149.902C172.382 149.874 173.461 150.046 174.583 150.618C176.176 151.431 177.436 152.094 177.829 152.295C178.144 152.455 178.733 152.536 179.201 152.177C182.314 148.982 181.246 144.99 175.993 142.309C169.441 138.946 158.837 138.936 152.334 142.254Z" fill="white"/>
</g>
<g id="Ellipse 1266" style="mix-blend-mode:multiply" filter="url(#filter2_f_92_329)">
<circle cx="197.993" cy="169.665" r="23.4224" fill="#9C84FF" style="mix-blend-mode:lighten"/>
</g>
</g>
<path id="Vector 133" d="M246.515 152.729L285.054 130.226L246.193 108.191L207.243 130.623L246.515 152.729Z" stroke="#CD88FF" stroke-width="0.396572" stroke-linecap="round" stroke-linejoin="round" stroke-dasharray="1.45 1.45"/>
<g id="Frame 912">
<g id="Vector_2" filter="url(#filter3_d_92_329)">
<path d="M225.764 131.825C220.532 128.805 217.593 124.709 217.593 120.438C217.593 116.166 220.532 112.07 225.764 109.05L245.49 97.6616L265.216 109.05C270.448 112.07 273.387 116.166 273.387 120.438C273.387 124.709 270.448 128.805 265.216 131.825C259.984 134.846 252.889 136.543 245.49 136.543C238.091 136.543 230.995 134.846 225.764 131.825V131.825Z" fill="#0ACF83"/>
</g>
<path id="Vector 96" d="M284.358 100.556L245.758 122.614L206.695 100.556L245.758 77.5801L284.358 100.556Z" fill="#6400CA" stroke="url(#paint3_linear_92_329)" stroke-width="0.507746"/>
<path id="Vector 98" d="M245.566 122.796L245.566 147.139L206.439 124.075L206.439 100.418L245.566 122.796Z" fill="#4A0292"/>
<path id="Vector 97" d="M245.49 122.479L245.49 146.863L284.942 124.095L284.942 100.465L245.49 122.479Z" fill="#3C0077"/>
<g id="Monograme_Kestra">
<g id="Vector_3">
<path d="M241.795 98.948C241.795 98.3962 242.57 97.9489 243.526 97.9489L247.455 97.9489C248.41 97.9489 249.185 98.3962 249.185 98.948L249.185 101.216C249.185 101.768 248.41 102.215 247.455 102.215L243.526 102.215C242.57 102.215 241.795 101.768 241.795 101.216V98.948Z" fill="#A950FF"/>
<path d="M250.827 93.7153C250.827 93.1734 251.588 92.7341 252.527 92.7341L256.517 92.7341C257.456 92.7341 258.217 93.1734 258.217 93.7153L258.217 96.0194C258.217 96.5613 257.456 97.0006 256.517 97.0006L252.527 97.0006C251.588 97.0006 250.827 96.5613 250.827 96.0194L250.827 93.7153Z" fill="#A950FF"/>
<path d="M232.763 93.7155C232.763 93.1736 233.524 92.7342 234.463 92.7342L238.454 92.7342C239.392 92.7342 240.153 93.1736 240.153 93.7155L240.153 96.0195C240.153 96.5614 239.392 97.0008 238.454 97.0008L234.463 97.0008C233.524 97.0008 232.763 96.5614 232.763 96.0195L232.763 93.7155Z" fill="#E9C1FF"/>
<path d="M238.423 97.9487C239.379 97.9487 240.154 98.396 240.154 98.9478V101.216C240.154 101.768 239.379 102.215 238.423 102.215L234.494 102.215C233.539 102.215 232.764 101.768 232.764 101.216V98.9478C232.764 98.396 233.539 97.9487 234.494 97.9487L238.423 97.9487Z" fill="#CD88FF"/>
<path d="M238.454 103.163C239.392 103.163 240.153 103.603 240.153 104.145L240.153 106.449C240.153 106.991 239.392 107.43 238.454 107.43L234.463 107.43C233.524 107.43 232.763 106.99 232.763 106.449L232.763 104.145C232.763 103.603 233.524 103.163 234.463 103.163L238.454 103.163Z" fill="#A950FF"/>
<path d="M247.455 92.7342C248.411 92.7342 249.185 93.1815 249.185 93.7333L249.185 96.0016C249.185 96.5534 248.411 97.0007 247.455 97.0007L243.526 97.0007C242.57 97.0007 241.795 96.5534 241.795 96.0016L241.795 93.7333C241.795 93.1815 242.57 92.7342 243.526 92.7342L247.455 92.7342Z" fill="#CD88FF"/>
<path d="M254.943 103.308C257.078 103.308 258.809 104.307 258.809 105.54C258.809 106.772 257.078 107.772 254.943 107.772C252.808 107.772 251.077 106.772 251.077 105.54C251.077 104.307 252.808 103.308 254.943 103.308Z" fill="#F62E76"/>
</g>
</g>
<g id="Ellipse 1303" filter="url(#filter4_f_92_329)">
<circle cx="216.323" cy="100.083" r="18.8485" fill="white" fill-opacity="0.05" style="mix-blend-mode:lighten"/>
</g>
<g id="Ellipse 1302" filter="url(#filter5_f_92_329)">
<circle cx="280.804" cy="104.056" r="18.8485" fill="white" fill-opacity="0.05" style="mix-blend-mode:lighten"/>
</g>
</g>
<path id="Polygon 12" d="M223.53 140.728L221.963 144.106L217.68 141.633L223.53 140.728Z" fill="#9C51F6"/>
<g id="Frame 15509">
<path id="Vector 141_2" d="M108.449 104.052C108.327 104.124 108.253 104.255 108.254 104.397C108.255 104.539 108.332 104.669 108.455 104.739L141.241 123.252C141.363 123.321 141.512 123.321 141.633 123.251L174.031 104.738C174.153 104.668 174.229 104.538 174.231 104.397C174.232 104.256 174.158 104.125 174.037 104.053L141.639 84.7686C141.515 84.6946 141.36 84.6942 141.235 84.7675L108.449 104.052Z" stroke="#AA50FF" stroke-width="0.793144" stroke-linejoin="round"/>
<g id="Frame 910">
<path id="Vector 96_2" d="M142.105 101.118L109.319 82.6047L142.105 63.3203L174.503 82.6047L142.105 101.118Z" fill="#8C49FA"/>
</g>
<g id="Frame 914">
<path id="Vector 96_3" d="M142.105 82.9772L109.319 64.464L142.105 45.1797L174.503 64.464L142.105 82.9772Z" fill="#8C49FA"/>
<path id="Vector 97_2" d="M142.073 79.823L114.761 64.4007L142.073 48.3359L169.062 64.4007L142.073 79.823Z" fill="#1C1B1D" fill-opacity="0.5"/>
<g id="Frame 15510">
<path id="&#60;/&#62;" d="M142.334 67.9201L136.52 68.6626L135.469 68.0561L136.755 64.6992L138.15 65.5044L137.244 67.6169L137.28 67.6378L140.939 67.1149L142.334 67.9201ZM145.428 68.0581L140.537 61.7836L141.823 61.0411L146.714 67.3156L145.428 68.0581ZM149.463 63.8039L148.069 62.9987L148.974 60.8862L148.938 60.8653L145.279 61.3882L143.885 60.583L149.699 59.8405L150.749 60.447L149.463 63.8039Z" fill="white"/>
</g>
<path id="Union" fill-rule="evenodd" clip-rule="evenodd" d="M141.946 101.029V82.8885L109.528 64.3477V82.4877V83.9476V95.5671L141.946 114.677V103.057V101.029Z" fill="#A570FB"/>
<path id="Union_2" fill-rule="evenodd" clip-rule="evenodd" d="M141.882 100.762V82.6216L174.569 64.3828V82.6216L174.569 82.6217V95.8261L141.882 114.689V100.763L141.882 100.762Z" fill="#660BFA"/>
</g>
</g>
<g id="Glow_2" filter="url(#filter6_f_92_329)">
<rect width="46.0003" height="52.1572" transform="matrix(-1 0 0 1 215.881 118.934)" fill="url(#paint4_linear_92_329)"/>
</g>
</g>
</g>
<defs>
<filter id="filter0_f_92_329" x="26.2923" y="-22.2788" width="185.215" height="202.202" filterUnits="userSpaceOnUse" color-interpolation-filters="sRGB">
<feFlood flood-opacity="0" result="BackgroundImageFix"/>
<feBlend mode="normal" in="SourceGraphic" in2="BackgroundImageFix" result="shape"/>
<feGaussianBlur stdDeviation="29.7429" result="effect1_foregroundBlur_92_329"/>
</filter>
<filter id="filter1_dddd_92_329" x="111.48" y="144.265" width="142.704" height="90.1298" filterUnits="userSpaceOnUse" color-interpolation-filters="sRGB">
<feFlood flood-opacity="0" result="BackgroundImageFix"/>
<feColorMatrix in="SourceAlpha" type="matrix" values="0 0 0 0 0 0 0 0 0 0 0 0 0 0 0 0 0 0 127 0" result="hardAlpha"/>
<feOffset dx="1.58629" dy="0.793144"/>
<feGaussianBlur stdDeviation="1.98286"/>
<feColorMatrix type="matrix" values="0 0 0 0 1 0 0 0 0 1 0 0 0 0 1 0 0 0 0.1 0"/>
<feBlend mode="normal" in2="BackgroundImageFix" result="effect1_dropShadow_92_329"/>
<feColorMatrix in="SourceAlpha" type="matrix" values="0 0 0 0 0 0 0 0 0 0 0 0 0 0 0 0 0 0 127 0" result="hardAlpha"/>
<feOffset dx="6.34515" dy="3.56915"/>
<feGaussianBlur stdDeviation="3.76743"/>
<feColorMatrix type="matrix" values="0 0 0 0 1 0 0 0 0 1 0 0 0 0 1 0 0 0 0.09 0"/>
<feBlend mode="normal" in2="effect1_dropShadow_92_329" result="effect2_dropShadow_92_329"/>
<feColorMatrix in="SourceAlpha" type="matrix" values="0 0 0 0 0 0 0 0 0 0 0 0 0 0 0 0 0 0 127 0" result="hardAlpha"/>
<feOffset dx="14.2766" dy="8.32801"/>
<feGaussianBlur stdDeviation="4.95715"/>
<feColorMatrix type="matrix" values="0 0 0 0 1 0 0 0 0 1 0 0 0 0 1 0 0 0 0.05 0"/>
<feBlend mode="normal" in2="effect2_dropShadow_92_329" result="effect3_dropShadow_92_329"/>
<feColorMatrix in="SourceAlpha" type="matrix" values="0 0 0 0 0 0 0 0 0 0 0 0 0 0 0 0 0 0 127 0" result="hardAlpha"/>
<feOffset dx="25.3806" dy="14.6732"/>
<feGaussianBlur stdDeviation="5.94858"/>
<feColorMatrix type="matrix" values="0 0 0 0 1 0 0 0 0 1 0 0 0 0 1 0 0 0 0.01 0"/>
<feBlend mode="normal" in2="effect3_dropShadow_92_329" result="effect4_dropShadow_92_329"/>
<feBlend mode="normal" in="SourceGraphic" in2="effect4_dropShadow_92_329" result="shape"/>
</filter>
<filter id="filter2_f_92_329" x="128.246" y="99.9183" width="139.493" height="139.491" filterUnits="userSpaceOnUse" color-interpolation-filters="sRGB">
<feFlood flood-opacity="0" result="BackgroundImageFix"/>
<feBlend mode="normal" in="SourceGraphic" in2="BackgroundImageFix" result="shape"/>
<feGaussianBlur stdDeviation="23.1619" result="effect1_foregroundBlur_92_329"/>
</filter>
<filter id="filter3_d_92_329" x="179.359" y="62.6066" width="132.261" height="115.35" filterUnits="userSpaceOnUse" color-interpolation-filters="sRGB">
<feFlood flood-opacity="0" result="BackgroundImageFix"/>
<feColorMatrix in="SourceAlpha" type="matrix" values="0 0 0 0 0 0 0 0 0 0 0 0 0 0 0 0 0 0 127 0" result="hardAlpha"/>
<feOffset dy="3.17994"/>
<feGaussianBlur stdDeviation="19.1168"/>
<feComposite in2="hardAlpha" operator="out"/>
<feColorMatrix type="matrix" values="0 0 0 0 0.396 0 0 0 0 0 0 0 0 0 0.9 0 0 0 1 0"/>
<feBlend mode="normal" in2="BackgroundImageFix" result="effect1_dropShadow_92_329"/>
<feBlend mode="normal" in="SourceGraphic" in2="effect1_dropShadow_92_329" result="shape"/>
</filter>
<filter id="filter4_f_92_329" x="160.197" y="43.9566" width="112.253" height="112.251" filterUnits="userSpaceOnUse" color-interpolation-filters="sRGB">
<feFlood flood-opacity="0" result="BackgroundImageFix"/>
<feBlend mode="normal" in="SourceGraphic" in2="BackgroundImageFix" result="shape"/>
<feGaussianBlur stdDeviation="18.6389" result="effect1_foregroundBlur_92_329"/>
</filter>
<filter id="filter5_f_92_329" x="224.678" y="47.9293" width="112.253" height="112.251" filterUnits="userSpaceOnUse" color-interpolation-filters="sRGB">
<feFlood flood-opacity="0" result="BackgroundImageFix"/>
<feBlend mode="normal" in="SourceGraphic" in2="BackgroundImageFix" result="shape"/>
<feGaussianBlur stdDeviation="18.6389" result="effect1_foregroundBlur_92_329"/>
</filter>
<filter id="filter6_f_92_329" x="110.395" y="59.4478" width="164.972" height="171.128" filterUnits="userSpaceOnUse" color-interpolation-filters="sRGB">
<feFlood flood-opacity="0" result="BackgroundImageFix"/>
<feBlend mode="normal" in="SourceGraphic" in2="BackgroundImageFix" result="shape"/>
<feGaussianBlur stdDeviation="29.7429" result="effect1_foregroundBlur_92_329"/>
</filter>
<linearGradient id="paint0_linear_92_329" x1="104.317" y1="129.953" x2="132.862" y2="148.411" gradientUnits="userSpaceOnUse">
<stop stop-color="#AA50FF"/>
<stop offset="1" stop-color="white"/>
</linearGradient>
<linearGradient id="paint1_linear_92_329" x1="33.1216" y1="0" x2="33.1216" y2="83.2324" gradientUnits="userSpaceOnUse">
<stop stop-color="#6218FF" stop-opacity="0"/>
<stop offset="1" stop-color="#6117FF"/>
</linearGradient>
<linearGradient id="paint2_linear_92_329" x1="194.856" y1="152.475" x2="217.135" y2="140.453" gradientUnits="userSpaceOnUse">
<stop stop-color="white"/>
<stop offset="1" stop-color="#B46AF9"/>
</linearGradient>
<linearGradient id="paint3_linear_92_329" x1="218.04" y1="85.7543" x2="251.032" y2="142.555" gradientUnits="userSpaceOnUse">
<stop offset="0.015625" stop-color="#B010FB"/>
<stop offset="0.130208" stop-color="#DE97FF"/>
<stop offset="0.234375" stop-color="#A227DB"/>
<stop offset="0.505208" stop-color="#A227DB" stop-opacity="0"/>
<stop offset="0.765625" stop-color="#A610EC" stop-opacity="0.84"/>
</linearGradient>
<linearGradient id="paint4_linear_92_329" x1="23.0001" y1="0" x2="23.0001" y2="52.1572" gradientUnits="userSpaceOnUse">
<stop stop-color="#6218FF" stop-opacity="0"/>
<stop offset="1" stop-color="#6117FF"/>
</linearGradient>
<clipPath id="clip0_92_329">
<rect width="37.1414" height="37.1414" fill="white" transform="matrix(0.890737 -0.454519 0.890737 0.454519 130.83 148.172)"/>
</clipPath>
</defs>
</svg>
