<svg width="806" height="601" viewBox="0 0 806 601" fill="none" xmlns="http://www.w3.org/2000/svg">
<g clip-path="url(#clip0_11122_23987)">
<g opacity="0.7" filter="url(#filter0_f_11122_23987)">
<rect width="325.784" height="233.599" transform="matrix(-0.999351 -0.0360302 -0.0360302 0.999351 580.366 187.195)" fill="url(#paint0_linear_11122_23987)"/>
</g>
<g filter="url(#filter1_b_11122_23987)">
<ellipse cx="235.029" cy="235.03" rx="235.029" ry="235.03" transform="matrix(1.12678 -0.277104 0.479958 0.650549 27.6475 206.076)" fill="black" fill-opacity="0.08"/>
<path d="M658.719 215.028C661.06 217.544 663.301 220.108 665.437 222.717L664.913 222.86C666.526 224.831 668.08 226.828 669.572 228.851C671.065 230.874 672.482 232.904 673.825 234.941L674.368 234.822C676.147 237.519 677.795 240.228 679.316 242.946L678.764 243.049C681.108 247.24 683.147 251.452 684.887 255.678L685.451 255.6C686.606 258.405 687.629 261.215 688.522 264.028L687.951 264.088C689.323 268.41 690.388 272.738 691.152 277.064L691.73 277.03C692.236 279.895 692.611 282.759 692.855 285.619L692.276 285.636C692.651 290.019 692.721 294.394 692.493 298.751L693.074 298.761C692.923 301.636 692.643 304.503 692.235 307.359L691.657 307.332C691.034 311.699 690.111 316.041 688.897 320.348L689.47 320.401C688.67 323.238 687.743 326.06 686.692 328.864L686.125 328.793C684.521 333.07 682.628 337.306 680.451 341.489L681.006 341.585C679.575 344.336 678.021 347.065 676.347 349.767L675.8 349.655C673.25 353.772 670.421 357.83 667.318 361.819L667.848 361.956C665.811 364.575 663.658 367.164 661.389 369.72L660.872 369.567C657.422 373.455 653.705 377.266 649.728 380.992L650.222 381.168C647.615 383.61 644.897 386.015 642.069 388.381L641.592 388.191C637.299 391.782 632.754 395.282 627.963 398.68L628.413 398.892C625.279 401.114 622.04 403.294 618.698 405.427L618.268 405.202C613.204 408.435 607.903 411.562 602.372 414.572L602.77 414.816C599.161 416.781 595.454 418.696 591.651 420.559L591.275 420.304C585.533 423.118 579.571 425.813 573.396 428.38L573.735 428.652C569.715 430.323 565.605 431.94 561.407 433.5L561.092 433.219C554.768 435.569 548.242 437.791 541.522 439.875L541.797 440.171C537.439 441.522 532.999 442.816 528.479 444.05L528.231 443.747C524.818 444.678 521.36 445.575 517.856 446.437C514.352 447.298 510.835 448.117 507.307 448.892L507.513 449.206C502.841 450.232 498.149 451.184 493.442 452.062L493.263 451.743C486.005 453.097 478.709 454.274 471.39 455.279L471.525 455.605C466.667 456.271 461.8 456.862 456.927 457.378L456.822 457.048C449.338 457.84 441.841 458.455 434.348 458.896L434.407 459.229C429.445 459.522 424.484 459.738 419.53 459.879L419.501 459.545C411.909 459.761 404.331 459.802 396.785 459.67L396.768 460.005C391.788 459.918 386.822 459.757 381.875 459.521L381.922 459.187C374.359 458.827 366.838 458.295 359.379 457.594L359.285 457.924C354.372 457.463 349.485 456.928 344.629 456.321L344.751 455.993C337.342 455.068 330.006 453.974 322.761 452.717L322.594 453.038C317.829 452.212 313.103 451.315 308.422 450.348L308.617 450.033C301.486 448.56 294.457 446.926 287.548 445.135L287.31 445.441C282.774 444.265 278.29 443.022 273.863 441.712L274.127 441.414C267.394 439.422 260.792 437.276 254.339 434.979L254.034 435.265C249.805 433.76 245.639 432.19 241.541 430.558L241.871 430.282C235.651 427.804 229.589 425.18 223.703 422.413L223.336 422.673C219.486 420.864 215.711 418.994 212.016 417.065L212.406 416.816C206.807 413.892 201.391 410.832 196.177 407.639L195.754 407.869C192.352 405.785 189.034 403.645 185.807 401.449L186.25 401.232C181.376 397.916 176.708 394.474 172.262 390.909L171.791 391.105C168.896 388.784 166.095 386.411 163.392 383.987L163.88 383.806C159.808 380.154 155.96 376.387 152.35 372.507L151.839 372.666C149.498 370.149 147.257 367.586 145.121 364.977L145.645 364.834C144.032 362.863 142.478 360.866 140.986 358.843C139.493 356.82 138.076 354.79 136.733 352.753L136.19 352.872C134.411 350.175 132.763 347.466 131.242 344.748L131.794 344.645C129.45 340.454 127.411 336.242 125.671 332.016L125.107 332.094C123.952 329.289 122.929 326.479 122.036 323.666L122.607 323.605C121.235 319.284 120.17 314.956 119.406 310.63L118.828 310.664C118.322 307.799 117.947 304.935 117.703 302.075L118.282 302.058C117.907 297.675 117.837 293.3 118.064 288.943L117.484 288.933C117.635 286.058 117.915 283.191 118.323 280.334L118.901 280.362C119.524 275.995 120.447 271.653 121.661 267.346L121.088 267.293C121.888 264.456 122.815 261.634 123.866 258.83L124.433 258.901C126.037 254.624 127.93 250.388 130.107 246.205L129.552 246.109C130.983 243.358 132.537 240.629 134.211 237.926L134.758 238.039C137.308 233.922 140.138 229.864 143.24 225.875L142.71 225.738C144.747 223.119 146.9 220.53 149.169 217.974L149.686 218.127C153.136 214.239 156.853 210.428 160.83 206.702L160.336 206.526C162.943 204.084 165.661 201.679 168.489 199.313L168.966 199.503C173.259 195.912 177.804 192.412 182.595 189.014L182.145 188.802C185.279 186.58 188.518 184.4 191.86 182.267L192.29 182.492C197.354 179.259 202.655 176.132 208.186 173.122L207.788 172.878C211.397 170.913 215.104 168.998 218.907 167.135L219.283 167.39C225.025 164.576 230.987 161.881 237.162 159.314L236.823 159.042C240.843 157.371 244.953 155.754 249.151 154.193L249.466 154.475C255.79 152.124 262.316 149.903 269.036 147.819L268.761 147.523C273.119 146.172 277.559 144.878 282.079 143.644L282.327 143.947C285.74 143.016 289.198 142.119 292.702 141.257C296.206 140.396 299.723 139.577 303.251 138.802L303.044 138.488C307.717 137.461 312.408 136.51 317.116 135.632L317.295 135.951C324.553 134.597 331.849 133.42 339.168 132.415L339.033 132.089C343.891 131.423 348.758 130.832 353.631 130.316L353.736 130.646C361.22 129.854 368.717 129.239 376.21 128.798L376.151 128.465C381.113 128.172 386.074 127.956 391.028 127.815L391.057 128.149C398.649 127.933 406.227 127.892 413.773 128.024L413.79 127.689C418.77 127.775 423.736 127.937 428.683 128.173L428.636 128.507C436.199 128.866 443.72 129.399 451.179 130.1L451.273 129.769C456.186 130.231 461.073 130.766 465.929 131.373L465.807 131.701C473.216 132.626 480.552 133.72 487.797 134.977L487.964 134.656C492.729 135.482 497.455 136.379 502.136 137.346L501.941 137.661C509.072 139.134 516.101 140.767 523.01 142.558L523.248 142.253C527.784 143.429 532.268 144.672 536.695 145.982L536.431 146.28C543.164 148.272 549.766 150.418 556.219 152.715L556.524 152.429C560.753 153.934 564.919 155.504 569.017 157.136L568.687 157.412C574.907 159.89 580.969 162.514 586.855 165.281L587.222 165.021C591.072 166.83 594.847 168.7 598.541 170.629L598.152 170.878C603.751 173.801 609.167 176.862 614.381 180.055L614.804 179.825C618.206 181.909 621.524 184.049 624.751 186.245L624.308 186.462C629.182 189.778 633.85 193.22 638.296 196.785L638.767 196.589C641.662 198.91 644.463 201.283 647.166 203.707L646.678 203.888C650.75 207.54 654.598 211.307 658.208 215.187L658.719 215.028Z" stroke="#9178D6" stroke-width="0.947924" stroke-linejoin="round" stroke-dasharray="18.37 12.04"/>
</g>
<g filter="url(#filter2_b_11122_23987)">
<ellipse cx="172.631" cy="172.631" rx="172.631" ry="172.631" transform="matrix(1.12678 -0.277104 0.479958 0.650549 125.297 226.77)" fill="black" fill-opacity="0.08"/>
<path d="M584.25 228.677C587.68 232.006 590.865 235.456 593.784 239.024L593.259 239.167C594.434 240.603 595.566 242.058 596.653 243.532C597.741 245.006 598.774 246.485 599.753 247.97L600.296 247.85C602.729 251.538 604.833 255.254 606.613 258.989L606.053 259.078C607.526 262.168 608.778 265.271 609.813 268.379L610.383 268.316C611.668 272.179 612.619 276.05 613.245 279.918L612.667 279.949C613.182 283.134 613.475 286.316 613.552 289.49L614.133 289.485C614.228 293.408 613.992 297.316 613.436 301.198L612.858 301.17C612.402 304.352 611.73 307.515 610.847 310.653L611.42 310.707C610.332 314.571 608.925 318.397 607.207 322.172L606.646 322.087C605.243 325.17 603.633 328.218 601.82 331.225L602.368 331.335C600.142 335.027 597.612 338.655 594.787 342.207L594.259 342.068C591.958 344.961 589.461 347.803 586.773 350.588L587.28 350.751C583.989 354.159 580.412 357.481 576.559 360.703L576.082 360.512C572.953 363.128 569.641 365.678 566.152 368.155L566.602 368.366C562.345 371.388 557.824 374.3 553.048 377.091L552.635 376.855C548.771 379.112 544.74 381.29 540.547 383.38L540.927 383.634C535.834 386.173 530.502 388.584 524.94 390.855L524.605 390.581C520.129 392.409 515.503 394.146 510.731 395.785L511.028 396.073C505.263 398.053 499.286 399.892 493.106 401.578L492.858 401.274C490.371 401.953 487.851 402.606 485.298 403.234C482.745 403.862 480.183 404.458 477.612 405.024L477.819 405.337C471.432 406.742 464.995 407.956 458.527 408.984L458.373 408.661C453.02 409.512 447.646 410.234 442.261 410.832L442.371 411.161C435.681 411.903 428.976 412.452 422.276 412.813L422.222 412.479C416.706 412.777 411.194 412.946 405.697 412.991L405.706 413.326C398.911 413.381 392.141 413.245 385.418 412.924L385.466 412.59C379.955 412.327 374.476 411.939 369.041 411.429L368.948 411.759C362.255 411.131 355.628 410.319 349.091 409.327L349.238 409.003C343.898 408.193 338.618 407.264 333.41 406.217L333.219 406.533C326.825 405.248 320.54 403.788 314.388 402.156L314.63 401.852C309.619 400.523 304.695 399.082 299.873 397.53L299.59 397.822C293.686 395.922 287.933 393.857 282.353 391.633L282.683 391.357C278.152 389.55 273.735 387.638 269.446 385.624L269.079 385.884C263.846 383.426 258.802 380.816 253.968 378.058L254.376 377.82C250.466 375.589 246.695 373.262 243.074 370.841L242.635 371.06C238.237 368.12 234.061 365.042 230.128 361.83L230.602 361.637C227.436 359.052 224.428 356.382 221.589 353.627L221.09 353.798C217.66 350.47 214.475 347.019 211.556 343.451L212.08 343.308C210.906 341.872 209.774 340.417 208.686 338.943C207.599 337.469 206.566 335.99 205.586 334.506L205.044 334.625C202.61 330.938 200.507 327.221 198.727 323.486L199.287 323.398C197.813 320.307 196.562 317.204 195.527 314.096L194.957 314.159C193.672 310.297 192.72 306.425 192.095 302.557L192.673 302.526C192.158 299.341 191.865 296.159 191.788 292.986L191.207 292.99C191.112 289.068 191.347 285.159 191.903 281.277L192.482 281.305C192.938 278.123 193.61 274.96 194.493 271.822L193.92 271.768C195.008 267.904 196.415 264.078 198.132 260.304L198.694 260.389C200.097 257.306 201.707 254.257 203.52 251.25L202.972 251.14C205.198 247.449 207.728 243.82 210.553 240.268L211.08 240.408C213.381 237.514 215.879 234.672 218.567 231.888L218.06 231.725C221.351 228.316 224.928 224.994 228.781 221.773L229.258 221.963C232.387 219.347 235.699 216.797 239.188 214.321L238.738 214.109C242.995 211.088 247.516 208.175 252.292 205.385L252.705 205.62C256.569 203.363 260.599 201.185 264.793 199.095L264.413 198.841C269.506 196.302 274.838 193.891 280.4 191.62L280.735 191.894C285.211 190.066 289.837 188.33 294.608 186.691L294.312 186.403C300.077 184.422 306.054 182.583 312.234 180.898L312.482 181.201C314.969 180.522 317.489 179.869 320.042 179.241C322.595 178.613 325.157 178.017 327.727 177.451L327.521 177.138C333.908 175.733 340.345 174.519 346.813 173.491L346.967 173.814C352.32 172.964 357.694 172.241 363.078 171.644L362.969 171.315C369.659 170.572 376.364 170.023 383.064 169.662L383.118 169.996C388.634 169.699 394.146 169.529 399.642 169.485L399.634 169.15C406.428 169.095 413.198 169.23 419.922 169.552L419.874 169.886C425.384 170.149 430.864 170.537 436.299 171.047L436.392 170.716C443.085 171.344 449.712 172.156 456.249 173.148L456.102 173.472C461.442 174.282 466.722 175.212 471.93 176.258L472.121 175.942C478.515 177.227 484.799 178.688 490.952 180.319L490.71 180.623C495.721 181.952 500.644 183.394 505.467 184.946L505.75 184.653C511.653 186.553 517.407 188.618 522.987 190.843L522.657 191.118C527.188 192.925 531.605 194.837 535.894 196.851L536.26 196.591C541.494 199.049 546.538 201.66 551.371 204.417L550.963 204.655C554.873 206.886 558.645 209.213 562.266 211.634L562.705 211.415C567.103 214.355 571.279 217.434 575.212 220.645L574.738 220.838C577.904 223.423 580.912 226.094 583.751 228.848L584.25 228.677Z" stroke="url(#paint1_linear_11122_23987)" stroke-width="0.947924" stroke-linejoin="round" stroke-dasharray="12.96 15.86"/>
</g>
<g filter="url(#filter3_d_11122_23987)">
<path d="M552.917 253.931C569.366 276.884 569.366 302.841 552.917 325.795L551.844 325.538C543.967 336.53 532.29 346.829 516.811 355.766C501.332 364.702 483.494 371.444 464.456 375.992L464.9 376.611C425.143 386.108 380.184 386.108 340.427 376.611L340.871 375.992C321.833 371.444 303.995 364.702 288.516 355.766C273.037 346.829 261.36 336.53 253.483 325.538L252.41 325.795C235.961 302.841 235.961 276.884 252.41 253.931L253.483 254.187C261.36 243.195 273.037 232.896 288.516 223.959C303.995 215.023 321.833 208.281 340.871 203.733L340.427 203.114C380.184 193.617 425.143 193.617 464.9 203.114L464.456 203.733C483.494 208.281 501.332 215.023 516.811 223.959C532.29 232.896 543.967 243.195 551.844 254.187L552.917 253.931Z" stroke="#5F00E8" stroke-width="1.89585" stroke-linejoin="round" stroke-dasharray="73.12 73.12" shape-rendering="crispEdges"/>
</g>
<g filter="url(#filter4_d_11122_23987)">
<path d="M272.315 168.559C272.315 176.143 266.932 183.308 257.575 188.665C248.26 193.997 235.29 197.344 220.88 197.344C206.469 197.344 193.499 193.997 184.184 188.665C174.827 183.308 169.444 176.143 169.444 168.559C169.444 160.976 174.827 153.81 184.184 148.454C193.499 143.122 206.469 139.775 220.88 139.775C235.29 139.775 248.26 143.122 257.575 148.454C266.932 153.81 272.315 160.976 272.315 168.559Z" stroke="#AD90FF" stroke-opacity="0.81" stroke-width="3.08567" shape-rendering="crispEdges"/>
</g>
<path fill-rule="evenodd" clip-rule="evenodd" d="M220.88 192.686C250.139 192.686 273.858 179.108 273.858 162.359C273.858 162.359 273.858 162.359 273.858 162.358L273.858 162.358V138.021L252.493 138.021C243.669 134.258 232.728 132.032 220.88 132.032C209.031 132.032 198.09 134.258 189.266 138.021L167.901 138.021V162.297C167.901 162.318 167.901 162.338 167.901 162.359C167.901 179.108 191.62 192.686 220.88 192.686Z" fill="#660BFA"/>
<ellipse cx="220.88" cy="136.154" rx="52.9787" ry="30.3273" fill="white"/>
<g clip-path="url(#clip1_11122_23987)">
<path d="M216.141 134.835L234.671 133.568L210.873 127.756L216.141 134.835ZM193.838 118.428C179.185 126.889 179.185 140.597 193.838 149.057C208.492 157.517 232.235 157.517 246.889 149.057C261.543 140.597 261.543 126.889 246.889 118.428C232.235 109.968 208.492 109.968 193.838 118.428ZM244.903 133.115C245.921 133.733 245.879 134.705 244.807 135.293C244.288 135.593 243.693 135.707 242.691 135.766L217.953 137.286L224.861 146.579L220.889 148.872L204.623 126.09C204.2 125.527 204.415 124.883 205.193 124.465C205.883 124.036 206.998 123.901 207.957 124.165L243.912 132.74C244.256 132.83 244.603 132.94 244.853 133.084C244.87 133.094 244.868 133.095 244.903 133.115Z" fill="black"/>
</g>
<g opacity="0.4" filter="url(#filter5_f_11122_23987)">
<ellipse cx="396.852" cy="143.399" rx="54.284" ry="30.7388" fill="black"/>
</g>
<g filter="url(#filter6_d_11122_23987)">
<path d="M334.111 335.417C315.998 324.96 305.822 310.778 305.822 295.99C305.822 281.202 315.998 267.02 334.111 256.563L402.407 217.136L470.703 256.563C488.816 267.02 498.992 281.202 498.992 295.99C498.992 310.778 488.816 324.96 470.703 335.417C452.589 345.874 428.023 351.748 402.407 351.748C376.791 351.748 352.224 345.874 334.111 335.417V335.417Z" fill="#0A41CF"/>
</g>
<path d="M403.336 303.518L268.095 227.151L403.336 147.603L536.977 227.151L403.336 303.518Z" fill="#6400CA" stroke="url(#paint2_linear_11122_23987)" stroke-width="1.75791"/>
<path d="M402.678 304.15V388.43L267.211 308.576V226.672L402.678 304.15Z" fill="#4A0292"/>
<path d="M402.409 303.051V387.474L539.001 308.649V226.836L402.409 303.051Z" fill="#3C0077"/>
<path d="M390.395 224.273C390.412 222.334 393.094 220.785 396.386 220.814L409.919 220.932C413.211 220.961 415.866 222.556 415.849 224.495L415.779 232.467C415.762 234.406 413.08 235.954 409.788 235.926L396.255 235.808C392.963 235.779 390.308 234.184 390.325 232.244L390.395 224.273Z" fill="#A950FF"/>
<path d="M421.665 206.156C421.682 204.251 424.316 202.73 427.55 202.758L441.295 202.878C444.529 202.907 447.136 204.473 447.12 206.378L447.049 214.475C447.032 216.379 444.398 217.9 441.165 217.872L427.419 217.752C424.186 217.724 421.578 216.157 421.595 214.253L421.665 206.156Z" fill="#A950FF"/>
<path d="M359.445 205.613C359.461 203.709 362.096 202.188 365.329 202.216L379.075 202.336C382.308 202.364 384.915 203.931 384.899 205.835L384.828 213.932C384.811 215.837 382.177 217.358 378.944 217.33L365.198 217.21C361.965 217.181 359.357 215.615 359.374 213.71L359.445 205.613Z" fill="#E9C1FF"/>
<path d="M378.81 220.66C382.102 220.689 384.757 222.284 384.74 224.223L384.67 232.194C384.653 234.133 381.971 235.682 378.679 235.654L365.146 235.535C361.854 235.507 359.199 233.911 359.216 231.972L359.286 224.001C359.303 222.062 361.985 220.513 365.277 220.542L378.81 220.66Z" fill="#CD88FF"/>
<path d="M378.755 238.986C381.988 239.014 384.595 240.581 384.579 242.486L384.508 250.583C384.492 252.487 381.857 254.008 378.624 253.98L364.878 253.86C361.645 253.832 359.037 252.265 359.054 250.36L359.125 242.264C359.141 240.359 361.776 238.838 365.009 238.866L378.755 238.986Z" fill="#A950FF"/>
<path d="M410.079 202.606C413.371 202.635 416.026 204.23 416.009 206.17L415.94 214.141C415.923 216.08 413.24 217.629 409.948 217.6L396.416 217.482C393.124 217.453 390.469 215.858 390.486 213.919L390.555 205.947C390.572 204.008 393.255 202.46 396.547 202.488L410.079 202.606Z" fill="#CD88FF"/>
<path d="M435.549 239.989C442.904 240.053 448.835 243.617 448.797 247.949C448.76 252.282 442.767 255.742 435.412 255.678C428.057 255.613 422.125 252.049 422.163 247.717C422.201 243.385 428.194 239.925 435.549 239.989Z" fill="#F62E76"/>
<mask id="mask0_11122_23987" style="mask-type:alpha" maskUnits="userSpaceOnUse" x="266" y="146" width="273" height="159">
<path d="M536.977 227.151L403.336 303.518L268.095 227.151L403.336 147.603L536.977 227.151Z" fill="#6400CA" stroke="url(#paint3_linear_11122_23987)" stroke-width="1.75791"/>
</mask>
<g mask="url(#mask0_11122_23987)">
<g style="mix-blend-mode:overlay" filter="url(#filter7_f_11122_23987)">
<circle cx="301.427" cy="225.515" r="65.257" fill="white" style="mix-blend-mode:lighten"/>
</g>
</g>
<g filter="url(#filter8_d_11122_23987)">
<path d="M464.096 457.481C464.096 466.738 457.531 475.353 446.406 481.722C435.315 488.071 419.912 492.036 402.833 492.036C385.755 492.036 370.352 488.071 359.261 481.722C348.136 475.353 341.571 466.738 341.571 457.481C341.571 448.224 348.136 439.61 359.261 433.241C370.352 426.892 385.755 422.927 402.833 422.927C419.912 422.927 435.315 426.892 446.406 433.241C457.531 439.61 464.096 448.224 464.096 457.481Z" stroke="#AD90FF" stroke-opacity="0.81" stroke-width="2.40839" shape-rendering="crispEdges"/>
</g>
<path fill-rule="evenodd" clip-rule="evenodd" d="M402.833 485.93C437.333 485.93 465.3 469.92 465.3 450.171C465.3 450.171 465.3 450.171 465.3 450.17L465.3 450.17V421.474L440.107 421.474C429.703 417.038 416.804 414.413 402.833 414.413C388.863 414.413 375.964 417.038 365.559 421.474L340.367 421.474V450.12C340.366 450.137 340.366 450.154 340.366 450.171C340.366 469.92 368.334 485.93 402.833 485.93Z" fill="#660BFA"/>
<ellipse cx="402.833" cy="419.272" rx="62.4669" ry="35.7588" fill="#FAFAFA"/>
<g clip-path="url(#clip2_11122_23987)">
<path d="M363.228 406.295L380.285 396.448L415.041 436.959C415.398 437.376 415.52 437.846 415.389 438.305C415.259 438.763 414.883 439.186 414.314 439.515L401.04 447.179C400.609 447.428 400.081 447.614 399.501 447.722C398.921 447.83 398.304 447.856 397.703 447.799C397.101 447.742 396.532 447.603 396.041 447.394C395.551 447.185 395.154 446.911 394.884 446.596L362.501 408.851C362.144 408.435 362.022 407.964 362.152 407.506C362.282 407.047 362.659 406.624 363.228 406.295Z" fill="url(#paint4_linear_11122_23987)"/>
<path d="M423.202 412.301L396.154 427.917C395.903 428.062 395.732 428.248 395.666 428.449C395.599 428.651 395.639 428.859 395.781 429.048C395.923 429.236 396.159 429.395 396.46 429.505C396.761 429.615 397.112 429.669 397.467 429.662L431.069 428.993C432.047 428.974 432.976 428.741 433.668 428.341L448.983 419.499L423.202 412.301Z" fill="#0078D4"/>
<path d="M363.228 406.295C362.651 406.626 362.272 407.055 362.146 407.519C362.021 407.983 362.156 408.459 362.531 408.875L394.859 446.558C395.122 446.88 395.515 447.16 396.006 447.375C396.496 447.591 397.069 447.735 397.676 447.795C398.283 447.856 398.906 447.831 399.493 447.723C400.08 447.615 400.613 447.427 401.047 447.175L414.664 439.313C415.08 438.968 415.331 438.565 415.39 438.146C415.448 437.727 415.313 437.306 414.998 436.927L408.603 429.442L431.278 428.986C432.176 428.937 433.018 428.711 433.661 428.345L448.919 419.536L423.103 412.358L403.599 423.624L380.347 396.412L363.228 406.295Z" fill="url(#paint5_linear_11122_23987)"/>
<path d="M386.861 394.784C386.141 394.578 385.327 394.508 384.534 394.583C383.741 394.658 383.009 394.875 382.441 395.203L363.431 406.178C364 405.85 364.732 405.633 365.525 405.558C366.318 405.483 367.132 405.553 367.852 405.759L433.23 424.456C433.776 424.612 434.25 424.841 434.613 425.124C434.976 425.407 435.216 425.736 435.315 426.084C435.414 426.431 435.368 426.787 435.181 427.122C434.995 427.457 434.672 427.762 434.241 428.011L453.251 417.035C453.682 416.786 454.004 416.482 454.191 416.147C454.378 415.812 454.423 415.456 454.324 415.108C454.225 414.761 453.985 414.432 453.622 414.149C453.26 413.866 452.785 413.637 452.239 413.481L386.861 394.784Z" fill="url(#paint6_linear_11122_23987)"/>
</g>
<g filter="url(#filter9_d_11122_23987)">
<path d="M186.119 358.332C186.119 366.671 180.204 374.455 170.13 380.222C160.089 385.97 146.137 389.563 130.662 389.563C115.186 389.563 101.235 385.97 91.1941 380.222C81.1198 374.455 75.2042 366.671 75.2042 358.332C75.2042 349.992 81.1198 342.208 91.1941 336.441C101.235 330.694 115.186 327.1 130.662 327.1C146.137 327.1 160.089 330.694 170.13 336.441C180.204 342.208 186.119 349.992 186.119 358.332Z" stroke="#AD90FF" stroke-opacity="0.81" stroke-width="2.40839" shape-rendering="crispEdges"/>
</g>
<path fill-rule="evenodd" clip-rule="evenodd" d="M130.662 384.136C161.955 384.136 187.324 369.614 187.324 351.701C187.324 351.7 187.324 351.7 187.324 351.7L187.324 325.67L164.473 325.67C155.035 321.646 143.334 319.265 130.662 319.265C117.99 319.265 106.289 321.646 96.851 325.67L74 325.67L74 351.665C74 351.677 74 351.689 74 351.701C74 369.614 99.3684 384.136 130.662 384.136Z" fill="#660BFA"/>
<ellipse cx="130.662" cy="323.673" rx="56.6618" ry="32.4357" fill="#F0E7FF"/>
<g clip-path="url(#clip3_11122_23987)">
<path d="M127.643 309.452L127.643 303.757L125.895 302.369C108.735 302.839 95.3748 311.623 96.4522 321.6C96.7512 324.371 98.2601 327.17 100.652 329.579L102.17 328.416L110.407 321.782L110.39 320.892C109.958 315.577 116.729 310.92 125.895 310.362L127.643 309.452Z" fill="#EA4335"/>
<path d="M143.391 304.737C138.082 302.981 132.002 302.158 125.895 302.369L125.895 310.362C131.206 310.053 136.47 311.169 140.172 313.389L141.401 314.098C144.803 312.134 150.32 312.134 153.722 314.098C157.125 316.063 157.055 319.208 153.653 321.172L141.314 328.296L141.418 329.755L148.807 334.021L151.178 333.991L163.517 326.867C172.436 321.797 172.617 313.553 163.836 308.404C158.513 305.283 150.84 303.906 143.391 304.737Z" fill="#4285F4"/>
<path d="M138.857 341.105L151.178 333.991L141.314 328.296L128.993 335.41C128.115 335.916 127.076 336.298 125.913 336.549L124.701 337.868L124.666 343.583L125.912 344.802C130.801 344.408 135.382 343.129 138.857 341.105Z" fill="#34A853"/>
<path d="M106.859 322.631C98.0619 327.771 98.1479 336.055 107.051 341.134C112.022 343.971 118.982 345.324 125.912 344.802L125.913 336.549C121.411 337.53 116.384 336.219 114.684 333.62C112.984 331.021 115.255 328.118 119.757 327.137C121.74 326.705 123.929 326.705 125.912 327.137L125.913 318.884C118.896 318.345 111.846 319.731 106.859 322.631Z" fill="#FBBC05"/>
</g>
<g filter="url(#filter10_d_11122_23987)">
<path d="M733.708 347.717C733.708 356.419 727.535 364.532 717.046 370.536C706.59 376.522 692.065 380.262 675.956 380.262C659.847 380.262 645.322 376.522 634.866 370.536C624.377 364.532 618.204 356.419 618.204 347.717C618.204 339.015 624.377 330.903 634.866 324.898C645.322 318.913 659.847 315.173 675.956 315.173C692.065 315.173 706.59 318.913 717.046 324.898C727.535 330.903 733.708 339.015 733.708 347.717Z" stroke="#AD90FF" stroke-opacity="0.81" stroke-width="2.40839" shape-rendering="crispEdges"/>
</g>
<path fill-rule="evenodd" clip-rule="evenodd" d="M675.956 374.567C708.516 374.567 734.912 359.457 734.912 340.818C734.912 340.818 734.912 340.817 734.912 340.817L734.912 340.817L734.912 313.733L711.135 313.733C701.315 309.547 689.141 307.069 675.956 307.069C662.771 307.069 650.596 309.547 640.776 313.733L617 313.733L617 340.769C617 340.786 617 340.802 617 340.818C617 359.457 643.395 374.567 675.956 374.567Z" fill="#660BFA"/>
<ellipse cx="675.956" cy="311.656" rx="58.9558" ry="33.7489" fill="#F9F6FF"/>
<g clip-path="url(#clip4_11122_23987)">
<path d="M682.266 301.217L700.892 311.971L707.722 297.281L689.076 286.516L682.266 301.217Z" fill="#4040B2"/>
<path d="M655.032 306.171L680.496 302.239L699.122 312.993L673.666 316.929L655.032 306.171ZM626.725 310.505L645.361 321.265L670.817 317.328L652.179 306.567L626.725 310.505ZM694.349 328.871L719.805 324.934L701.168 314.174L675.713 318.111L694.349 328.871Z" fill="#5C4EE5"/>
</g>
<g filter="url(#filter11_d_11122_23987)">
<path d="M608.42 147.732C608.42 155.779 602.711 163.298 592.972 168.873C583.266 174.43 569.777 177.904 554.812 177.904C539.847 177.904 526.358 174.43 516.653 168.873C506.913 163.298 501.204 155.779 501.204 147.732C501.204 139.685 506.913 132.165 516.653 126.59C526.358 121.034 539.847 117.559 554.812 117.559C569.777 117.559 583.266 121.034 592.972 126.59C602.711 132.165 608.42 139.685 608.42 147.732Z" stroke="#AD90FF" stroke-opacity="0.81" stroke-width="2.40839" shape-rendering="crispEdges"/>
</g>
<path fill-rule="evenodd" clip-rule="evenodd" d="M554.812 172.694C585.084 172.694 609.624 158.646 609.624 141.317C609.624 141.317 609.624 141.316 609.624 141.316L609.624 116.136L587.519 116.136C578.389 112.244 567.071 109.94 554.812 109.94C542.554 109.94 531.235 112.244 522.106 116.136L500 116.136L500 141.276C500 141.29 500 141.304 500 141.317C500 158.646 524.54 172.694 554.812 172.694Z" fill="#660BFA"/>
<ellipse cx="554.812" cy="114.204" rx="54.8119" ry="31.3768" fill="white"/>
<g clip-path="url(#clip5_11122_23987)">
<path d="M540.841 120.19C541.517 120.58 542.137 120.854 542.667 121.012C543.214 121.159 543.835 121.307 544.565 121.433C544.803 121.465 544.985 121.528 545.113 121.602C545.295 121.707 545.369 121.876 545.314 122.118L544.93 123.225C544.876 123.383 544.766 123.51 544.62 123.594C544.438 123.699 544.164 123.752 543.817 123.763C543.287 123.752 542.776 123.71 542.302 123.647C541.809 123.573 541.279 123.478 540.659 123.352C540.914 125.143 539.965 126.661 537.811 127.905C536.278 128.79 534.617 129.243 532.846 129.254C531.075 129.264 529.45 128.853 527.99 128.01C526.438 127.114 525.727 126.071 525.891 124.88C526.055 123.689 527.059 122.561 528.939 121.476C529.56 121.117 530.254 120.78 531.02 120.443C531.787 120.105 532.627 119.789 533.521 119.463L532.189 118.693C530.801 117.892 529.542 117.502 528.41 117.502C527.26 117.513 526 117.924 524.595 118.735C523.956 119.104 523.372 119.526 522.861 120.011C522.349 120.495 521.893 120.991 521.51 121.507C521.345 121.75 521.199 121.918 521.108 122.013C521.017 122.108 520.944 122.171 520.871 122.213C520.615 122.361 520.305 122.329 519.922 122.108L519.027 121.592C518.735 121.423 518.552 121.275 518.516 121.149C518.479 121.022 518.516 120.854 518.644 120.632C518.954 120.074 519.447 119.473 520.122 118.83C520.78 118.177 521.619 117.566 522.623 116.986C524.796 115.732 526.877 115.099 528.885 115.078C530.874 115.068 532.882 115.637 534.89 116.796L540.805 120.211L540.841 120.19ZM536.205 126.071C536.807 125.723 537.318 125.301 537.756 124.795C538.194 124.29 538.377 123.72 538.322 123.12C538.267 122.751 538.103 122.403 537.775 122.087C537.446 121.771 536.99 121.423 536.369 121.065L535.602 120.622C534.945 120.854 534.27 121.117 533.613 121.412C532.955 121.707 532.353 122.013 531.787 122.34C530.564 123.046 529.907 123.699 529.797 124.332C529.688 124.964 530.089 125.533 531.002 126.06C531.86 126.556 532.718 126.798 533.613 126.787C534.507 126.798 535.365 126.556 536.205 126.071ZM552.835 118.746C552.506 118.936 552.232 119.03 551.958 119.041C551.703 119.062 551.32 118.988 550.863 118.851L532.463 113.181C531.988 113.034 531.696 112.928 531.568 112.854C531.276 112.686 531.258 112.507 531.55 112.338L533.339 111.305C533.686 111.105 533.978 111 534.233 111C534.489 110.978 534.854 111.063 535.31 111.2L550.462 116.406L541.225 107.785C540.951 107.522 540.823 107.321 540.86 107.174C540.896 107.026 541.079 106.837 541.407 106.647L542.868 105.804C543.214 105.603 543.507 105.498 543.78 105.487C544.036 105.466 544.419 105.54 544.839 105.698L559.954 111.094L550.881 102.21C550.626 101.936 550.516 101.725 550.535 101.588C550.571 101.44 550.735 101.261 551.064 101.072L552.762 100.091C553.054 99.9227 553.364 99.9122 553.674 100.091C553.766 100.144 553.839 100.207 553.93 100.281C554.021 100.355 554.131 100.46 554.259 100.618L563.97 111.305C564.226 111.579 564.335 111.79 564.299 111.938C564.262 112.085 564.098 112.264 563.787 112.443L562.218 113.35C561.871 113.55 561.579 113.655 561.305 113.666C561.031 113.677 560.666 113.613 560.228 113.445L545.624 108.28L554.569 116.691C554.843 116.954 554.97 117.154 554.952 117.313C554.934 117.471 554.733 117.65 554.405 117.84L552.835 118.746ZM576.785 105.487C575.835 106.036 574.777 106.52 573.645 106.921C572.513 107.321 571.564 107.595 570.815 107.711C570.359 107.785 569.976 107.796 569.738 107.743C569.501 107.69 569.282 107.606 569.118 107.511L568.187 106.974C567.803 106.752 567.767 106.562 568.041 106.404C568.15 106.341 568.278 106.288 568.424 106.246C568.57 106.204 568.807 106.151 569.063 106.088C569.957 105.888 570.852 105.624 571.71 105.298C572.586 104.961 573.371 104.592 574.101 104.17C575.251 103.506 575.945 102.874 576.164 102.284C576.383 101.693 576.128 101.166 575.379 100.734C574.868 100.439 574.284 100.292 573.608 100.281C572.933 100.271 572.002 100.45 570.815 100.797L567.347 101.851C565.595 102.378 563.988 102.589 562.564 102.463C561.159 102.347 559.954 102.01 559.005 101.461C558.238 101.019 557.727 100.534 557.471 100.007C557.216 99.4801 557.143 98.932 557.289 98.384C557.417 97.8254 557.727 97.2879 558.238 96.7399C558.749 96.1918 559.425 95.6965 560.228 95.2327C560.629 95.0009 561.067 94.769 561.524 94.5688C561.998 94.358 562.455 94.1788 562.911 93.9996C563.368 93.8415 563.806 93.694 564.244 93.5675C564.682 93.4411 565.047 93.3567 565.339 93.3146C565.741 93.2513 566.069 93.2303 566.343 93.2619C566.599 93.283 566.854 93.3673 567.11 93.5148L567.968 94.0102C568.351 94.2315 568.406 94.4318 568.132 94.5898C567.986 94.6742 567.676 94.769 567.219 94.8639C565.704 95.1906 564.299 95.7281 563.002 96.4764C561.962 97.0771 561.305 97.6462 561.086 98.1732C560.867 98.7002 561.104 99.1744 561.852 99.6065C562.364 99.9016 562.984 100.049 563.696 100.039C564.408 100.028 565.43 99.8384 566.708 99.459L570.122 98.4367C571.856 97.9203 573.389 97.7095 574.704 97.8149C576.018 97.9203 577.15 98.2575 578.099 98.8056C578.884 99.2588 579.432 99.7646 579.742 100.302C580.034 100.85 580.144 101.419 580.016 101.999C579.906 102.589 579.559 103.169 579.012 103.759C578.446 104.381 577.716 104.95 576.785 105.487Z" fill="#252F3E"/>
<path fill-rule="evenodd" clip-rule="evenodd" d="M589.107 108.618C587.537 114.646 581.166 121.043 573.663 125.375C563.148 131.446 549.786 134.671 536.168 135.071C535.091 135.103 534.909 134.407 535.986 134.249C548.216 132.373 560.483 128.432 570.359 122.73C577.022 118.883 582.955 113.856 586.843 108.323C587.391 107.479 589.362 107.627 589.107 108.618Z" fill="#FF9900"/>
<path fill-rule="evenodd" clip-rule="evenodd" d="M588.76 105.53C587.007 105.403 583.21 108.186 581.494 109.45C580.983 109.83 580.381 109.587 580.527 109.06C581.549 105.688 587.883 102.832 589.344 102.916C590.822 103.011 595.623 106.752 595.112 110.167C595.039 110.694 594.346 110.841 594.017 110.399C592.94 108.934 590.494 105.646 588.76 105.53Z" fill="#FF9900"/>
</g>
</g>
<defs>
<filter id="filter0_f_11122_23987" x="76.7747" y="5.85504" width="673.194" height="584.39" filterUnits="userSpaceOnUse" color-interpolation-filters="sRGB">
<feFlood flood-opacity="0" result="BackgroundImageFix"/>
<feBlend mode="normal" in="SourceGraphic" in2="BackgroundImageFix" result="shape"/>
<feGaussianBlur stdDeviation="84.8011" result="effect1_foregroundBlur_11122_23987"/>
</filter>
<filter id="filter1_b_11122_23987" x="31.7163" y="41.9758" width="747.126" height="503.742" filterUnits="userSpaceOnUse" color-interpolation-filters="sRGB">
<feFlood flood-opacity="0" result="BackgroundImageFix"/>
<feGaussianBlur in="BackgroundImageFix" stdDeviation="42.8187"/>
<feComposite in2="SourceAlpha" operator="in" result="effect1_backgroundBlur_11122_23987"/>
<feBlend mode="normal" in="SourceGraphic" in2="effect1_backgroundBlur_11122_23987" result="shape"/>
</filter>
<filter id="filter2_b_11122_23987" x="130.775" y="108.725" width="543.791" height="365.024" filterUnits="userSpaceOnUse" color-interpolation-filters="sRGB">
<feFlood flood-opacity="0" result="BackgroundImageFix"/>
<feGaussianBlur in="BackgroundImageFix" stdDeviation="30.2061"/>
<feComposite in2="SourceAlpha" operator="in" result="effect1_backgroundBlur_11122_23987"/>
<feBlend mode="normal" in="SourceGraphic" in2="effect1_backgroundBlur_11122_23987" result="shape"/>
</filter>
<filter id="filter3_d_11122_23987" x="230.933" y="195.991" width="343.46" height="206.023" filterUnits="userSpaceOnUse" color-interpolation-filters="sRGB">
<feFlood flood-opacity="0" result="BackgroundImageFix"/>
<feColorMatrix in="SourceAlpha" type="matrix" values="0 0 0 0 0 0 0 0 0 0 0 0 0 0 0 0 0 0 127 0" result="hardAlpha"/>
<feOffset dy="9.14008"/>
<feGaussianBlur stdDeviation="4.57004"/>
<feComposite in2="hardAlpha" operator="out"/>
<feColorMatrix type="matrix" values="0 0 0 0 0.432266 0 0 0 0 0.00354165 0 0 0 0 0.846458 0 0 0 1 0"/>
<feBlend mode="screen" in2="BackgroundImageFix" result="effect1_dropShadow_11122_23987"/>
<feBlend mode="normal" in="SourceGraphic" in2="effect1_dropShadow_11122_23987" result="shape"/>
</filter>
<filter id="filter4_d_11122_23987" x="153.386" y="127.346" width="134.987" height="89.6848" filterUnits="userSpaceOnUse" color-interpolation-filters="sRGB">
<feFlood flood-opacity="0" result="BackgroundImageFix"/>
<feColorMatrix in="SourceAlpha" type="matrix" values="0 0 0 0 0 0 0 0 0 0 0 0 0 0 0 0 0 0 127 0" result="hardAlpha"/>
<feOffset dy="3.62875"/>
<feGaussianBlur stdDeviation="7.2575"/>
<feComposite in2="hardAlpha" operator="out"/>
<feColorMatrix type="matrix" values="0 0 0 0 0.86125 0 0 0 0 0.87883 0 0 0 0 0.975 0 0 0 0.5 0"/>
<feBlend mode="normal" in2="BackgroundImageFix" result="effect1_dropShadow_11122_23987"/>
<feBlend mode="normal" in="SourceGraphic" in2="effect1_dropShadow_11122_23987" result="shape"/>
</filter>
<filter id="filter5_f_11122_23987" x="298.21" y="68.3027" width="197.283" height="150.193" filterUnits="userSpaceOnUse" color-interpolation-filters="sRGB">
<feFlood flood-opacity="0" result="BackgroundImageFix"/>
<feBlend mode="normal" in="SourceGraphic" in2="BackgroundImageFix" result="shape"/>
<feGaussianBlur stdDeviation="22.1787" result="effect1_foregroundBlur_11122_23987"/>
</filter>
<filter id="filter6_d_11122_23987" x="173.45" y="95.7735" width="457.913" height="399.356" filterUnits="userSpaceOnUse" color-interpolation-filters="sRGB">
<feFlood flood-opacity="0" result="BackgroundImageFix"/>
<feColorMatrix in="SourceAlpha" type="matrix" values="0 0 0 0 0 0 0 0 0 0 0 0 0 0 0 0 0 0 127 0" result="hardAlpha"/>
<feOffset dy="11.0095"/>
<feGaussianBlur stdDeviation="66.1857"/>
<feComposite in2="hardAlpha" operator="out"/>
<feColorMatrix type="matrix" values="0 0 0 0 0.506336 0 0 0 0 0.118457 0 0 0 0 1 0 0 0 1 0"/>
<feBlend mode="soft-light" in2="BackgroundImageFix" result="effect1_dropShadow_11122_23987"/>
<feBlend mode="normal" in="SourceGraphic" in2="effect1_dropShadow_11122_23987" result="shape"/>
</filter>
<filter id="filter7_f_11122_23987" x="107.108" y="31.1958" width="388.639" height="388.639" filterUnits="userSpaceOnUse" color-interpolation-filters="sRGB">
<feFlood flood-opacity="0" result="BackgroundImageFix"/>
<feBlend mode="normal" in="SourceGraphic" in2="BackgroundImageFix" result="shape"/>
<feGaussianBlur stdDeviation="64.5313" result="effect1_foregroundBlur_11122_23987"/>
</filter>
<filter id="filter8_d_11122_23987" x="323.252" y="408.887" width="159.163" height="105.747" filterUnits="userSpaceOnUse" color-interpolation-filters="sRGB">
<feFlood flood-opacity="0" result="BackgroundImageFix"/>
<feColorMatrix in="SourceAlpha" type="matrix" values="0 0 0 0 0 0 0 0 0 0 0 0 0 0 0 0 0 0 127 0" result="hardAlpha"/>
<feOffset dy="4.27864"/>
<feGaussianBlur stdDeviation="8.55728"/>
<feComposite in2="hardAlpha" operator="out"/>
<feColorMatrix type="matrix" values="0 0 0 0 0.86125 0 0 0 0 0.87883 0 0 0 0 0.975 0 0 0 0.5 0"/>
<feBlend mode="normal" in2="BackgroundImageFix" result="effect1_dropShadow_11122_23987"/>
<feBlend mode="normal" in="SourceGraphic" in2="effect1_dropShadow_11122_23987" result="shape"/>
</filter>
<filter id="filter9_d_11122_23987" x="58.4759" y="314.253" width="144.372" height="95.9198" filterUnits="userSpaceOnUse" color-interpolation-filters="sRGB">
<feFlood flood-opacity="0" result="BackgroundImageFix"/>
<feColorMatrix in="SourceAlpha" type="matrix" values="0 0 0 0 0 0 0 0 0 0 0 0 0 0 0 0 0 0 127 0" result="hardAlpha"/>
<feOffset dy="3.88102"/>
<feGaussianBlur stdDeviation="7.76205"/>
<feComposite in2="hardAlpha" operator="out"/>
<feColorMatrix type="matrix" values="0 0 0 0 0.86125 0 0 0 0 0.87883 0 0 0 0 0.975 0 0 0 0.5 0"/>
<feBlend mode="normal" in2="BackgroundImageFix" result="effect1_dropShadow_11122_23987"/>
<feBlend mode="normal" in="SourceGraphic" in2="effect1_dropShadow_11122_23987" result="shape"/>
</filter>
<filter id="filter10_d_11122_23987" x="600.847" y="301.854" width="150.217" height="99.803" filterUnits="userSpaceOnUse" color-interpolation-filters="sRGB">
<feFlood flood-opacity="0" result="BackgroundImageFix"/>
<feColorMatrix in="SourceAlpha" type="matrix" values="0 0 0 0 0 0 0 0 0 0 0 0 0 0 0 0 0 0 127 0" result="hardAlpha"/>
<feOffset dy="4.03815"/>
<feGaussianBlur stdDeviation="8.07631"/>
<feComposite in2="hardAlpha" operator="out"/>
<feColorMatrix type="matrix" values="0 0 0 0 0.86125 0 0 0 0 0.87883 0 0 0 0 0.975 0 0 0 0.5 0"/>
<feBlend mode="normal" in2="BackgroundImageFix" result="effect1_dropShadow_11122_23987"/>
<feBlend mode="normal" in="SourceGraphic" in2="effect1_dropShadow_11122_23987" result="shape"/>
</filter>
<filter id="filter11_d_11122_23987" x="484.983" y="105.092" width="139.658" height="92.7882" filterUnits="userSpaceOnUse" color-interpolation-filters="sRGB">
<feFlood flood-opacity="0" result="BackgroundImageFix"/>
<feColorMatrix in="SourceAlpha" type="matrix" values="0 0 0 0 0 0 0 0 0 0 0 0 0 0 0 0 0 0 127 0" result="hardAlpha"/>
<feOffset dy="3.75432"/>
<feGaussianBlur stdDeviation="7.50864"/>
<feComposite in2="hardAlpha" operator="out"/>
<feColorMatrix type="matrix" values="0 0 0 0 0.86125 0 0 0 0 0.87883 0 0 0 0 0.975 0 0 0 0.5 0"/>
<feBlend mode="normal" in2="BackgroundImageFix" result="effect1_dropShadow_11122_23987"/>
<feBlend mode="normal" in="SourceGraphic" in2="effect1_dropShadow_11122_23987" result="shape"/>
</filter>
<linearGradient id="paint0_linear_11122_23987" x1="162.892" y1="0" x2="162.892" y2="233.599" gradientUnits="userSpaceOnUse">
<stop stop-color="#6218FF" stop-opacity="0"/>
<stop offset="1" stop-color="#6117FF"/>
</linearGradient>
<linearGradient id="paint1_linear_11122_23987" x1="214.674" y1="254.052" x2="575.949" y2="505.356" gradientUnits="userSpaceOnUse">
<stop offset="0.015625" stop-color="#B010FB"/>
<stop offset="0.130208" stop-color="#DE97FF"/>
<stop offset="0.234375" stop-color="#A227DB"/>
<stop offset="0.505208" stop-color="#A227DB" stop-opacity="0"/>
<stop offset="0.765625" stop-color="#A610EC" stop-opacity="0.84"/>
</linearGradient>
<linearGradient id="paint2_linear_11122_23987" x1="307.374" y1="175.904" x2="421.596" y2="372.559" gradientUnits="userSpaceOnUse">
<stop offset="0.015625" stop-color="#B010FB"/>
<stop offset="0.130208" stop-color="#DE97FF"/>
<stop offset="0.234375" stop-color="#A227DB"/>
<stop offset="0.505208" stop-color="#A227DB" stop-opacity="0"/>
<stop offset="0.765625" stop-color="#A610EC" stop-opacity="0.84"/>
</linearGradient>
<linearGradient id="paint3_linear_11122_23987" x1="307.374" y1="175.904" x2="421.596" y2="372.559" gradientUnits="userSpaceOnUse">
<stop offset="0.015625" stop-color="#B010FB"/>
<stop offset="0.130208" stop-color="#DE97FF"/>
<stop offset="0.234375" stop-color="#A227DB"/>
<stop offset="0.505208" stop-color="#A227DB" stop-opacity="0"/>
<stop offset="0.765625" stop-color="#A610EC" stop-opacity="0.84"/>
</linearGradient>
<linearGradient id="paint4_linear_11122_23987" x1="388.453" y1="396.38" x2="406.692" y2="445.071" gradientUnits="userSpaceOnUse">
<stop stop-color="#114A8B"/>
<stop offset="1" stop-color="#0669BC"/>
</linearGradient>
<linearGradient id="paint5_linear_11122_23987" x1="407.658" y1="413.451" x2="406.616" y2="417.516" gradientUnits="userSpaceOnUse">
<stop stop-opacity="0.3"/>
<stop offset="0.071" stop-opacity="0.2"/>
<stop offset="0.321" stop-opacity="0.1"/>
<stop offset="0.623" stop-opacity="0.05"/>
<stop offset="1" stop-opacity="0"/>
</linearGradient>
<linearGradient id="paint6_linear_11122_23987" x1="375.223" y1="402.255" x2="428.313" y2="444.019" gradientUnits="userSpaceOnUse">
<stop stop-color="#3CCBF4"/>
<stop offset="1" stop-color="#2892DF"/>
</linearGradient>
<clipPath id="clip0_11122_23987">
<rect width="806" height="601" fill="white"/>
</clipPath>
<clipPath id="clip1_11122_23987">
<rect width="85.9754" height="85.9754" fill="white" transform="matrix(0.866025 -0.5 0.866025 0.5 145.907 133.743)"/>
</clipPath>
<clipPath id="clip2_11122_23987">
<rect width="93.4151" height="93.4151" fill="white" transform="matrix(0.866025 -0.5 0.866025 0.5 319.09 416.429)"/>
</clipPath>
<clipPath id="clip3_11122_23987">
<rect width="91.9526" height="91.9526" fill="white" transform="matrix(0.866025 -0.5 0.866025 0.5 48.449 321.094)"/>
</clipPath>
<clipPath id="clip4_11122_23987">
<rect width="95.6754" height="95.6754" fill="white" transform="matrix(0.866025 -0.5 0.866025 0.5 599.361 312.55)"/>
</clipPath>
<clipPath id="clip5_11122_23987">
<rect width="88.9505" height="88.9505" fill="white" transform="matrix(0.866025 -0.5 0.866025 0.5 480.274 115.869)"/>
</clipPath>
</defs>
</svg>
