<svg xmlns="http://www.w3.org/2000/svg" width='1315px' height="298px" viewBox="0 0 1315 298"><title>micronaut_mini_copy_tm</title><path d="M202.731,152.918a5.866,5.866,0,1,0-4.141-7.187A5.866,5.866,0,0,0,202.731,152.918Z" style="fill:#231f20"/><path d="M197.582,125.537A5.866,5.866,0,1,0,190.4,121.4,5.865,5.865,0,0,0,197.582,125.537Z" style="fill:#231f20"/><path d="M171.075,96.164a5.867,5.867,0,1,0,4.153-1.723A5.865,5.865,0,0,0,171.075,96.164Z" style="fill:#231f20"/><path d="M149,88.1a5.866,5.866,0,1,0,4.142,7.187A5.867,5.867,0,0,0,149,88.1Z" style="fill:#231f20"/><path d="M121.53,107.716a5.865,5.865,0,1,0-7.187-4.141A5.865,5.865,0,0,0,121.53,107.716Z" style="fill:#231f20"/><path d="M96.3,118.754a5.841,5.841,0,1,0,4.152-1.733A5.864,5.864,0,0,0,96.3,118.754Z" style="fill:#231f20"/><path d="M95.448,145.06a5.865,5.865,0,1,0,4.142,7.186A5.867,5.867,0,0,0,95.448,145.06Z" style="fill:#231f20"/><path d="M100.664,172.44a5.844,5.844,0,1,0,4.456.575A5.867,5.867,0,0,0,100.664,172.44Z" style="fill:#231f20"/><path d="M127.172,201.813a5.821,5.821,0,1,0-4.142,1.731A5.865,5.865,0,0,0,127.172,201.813Z" style="fill:#231f20"/><path d="M149.358,209.873a5.866,5.866,0,1,0-4.164-7.142A5.865,5.865,0,0,0,149.358,209.873Z" style="fill:#231f20"/><path d="M176.716,190.261A5.866,5.866,0,1,0,183.9,194.4,5.867,5.867,0,0,0,176.716,190.261Z" style="fill:#231f20"/><path d="M201.97,179.246a5.865,5.865,0,1,0-8.306,0A5.864,5.864,0,0,0,201.97,179.246Z" style="fill:#231f20"/><path d="M233.918,142.552a6.873,6.873,0,1,0,4.858,8.418A6.875,6.875,0,0,0,233.918,142.552Z" style="fill:#231f20"/><path d="M222.881,114.3a6.873,6.873,0,1,0-8.418-4.859A6.875,6.875,0,0,0,222.881,114.3Z" style="fill:#231f20"/><path d="M185.94,82.06a6.873,6.873,0,1,0,0-9.717A6.876,6.876,0,0,0,185.94,82.06Z" style="fill:#231f20"/><path d="M147.545,72.612a6.873,6.873,0,1,0-4.858-8.418A6.873,6.873,0,0,0,147.545,72.612Z" style="fill:#231f20"/><path d="M106.015,70.351a6.873,6.873,0,1,0,8.418,4.858A6.872,6.872,0,0,0,106.015,70.351Z" style="fill:#231f20"/><path d="M72.478,112.172a6.873,6.873,0,1,0,0-9.717A6.875,6.875,0,0,0,72.478,112.172Z" style="fill:#231f20"/><path d="M64.328,155.425a6.873,6.873,0,1,0-4.858-8.418A6.873,6.873,0,0,0,64.328,155.425Z" style="fill:#231f20"/><path d="M75.366,183.679a6.873,6.873,0,1,0,8.418,4.858A6.871,6.871,0,0,0,75.366,183.679Z" style="fill:#231f20"/><path d="M112.306,215.918a6.875,6.875,0,1,0,2.022,4.869A6.873,6.873,0,0,0,112.306,215.918Z" style="fill:#231f20"/><path d="M150.7,225.366a6.873,6.873,0,1,0,4.859,8.418A6.871,6.871,0,0,0,150.7,225.366Z" style="fill:#231f20"/><path d="M192.254,227.627a6.873,6.873,0,1,0-8.441-4.858A6.873,6.873,0,0,0,192.254,227.627Z" style="fill:#231f20"/><path d="M225.791,185.806a6.873,6.873,0,1,0,0,9.716A6.872,6.872,0,0,0,225.791,185.806Z" style="fill:#231f20"/><path d="M258.254,170.358a8.955,8.955,0,1,0-6.269-10.858A8.955,8.955,0,0,0,258.254,170.358Z" style="fill:#231f20"/><path d="M260.582,101.985a8.955,8.955,0,1,0-6.246,10.858A8.954,8.954,0,0,0,260.582,101.985Z" style="fill:#231f20"/><path d="M222.209,52.731a8.956,8.956,0,1,0,0,12.538A8.957,8.957,0,0,0,222.209,52.731Z" style="fill:#231f20"/><path d="M159.634,46.127a8.955,8.955,0,1,0-6.156-10.858A8.955,8.955,0,0,0,159.634,46.127Z" style="fill:#231f20"/><path d="M106.8,54.634A8.955,8.955,0,1,0,95.94,48.388,8.844,8.844,0,0,0,106.8,54.634Z" style="fill:#231f20"/><path d="M65.291,75.925a8.955,8.955,0,1,0,0,12.515,8.82,8.82,0,0,0,0-12.515Z" style="fill:#231f20"/><path d="M39.993,127.619a8.956,8.956,0,1,0,6.268,10.859A8.958,8.958,0,0,0,39.993,127.619Z" style="fill:#231f20"/><path d="M43.933,185.045a8.955,8.955,0,1,0,10.858,6.268A8.954,8.954,0,0,0,43.933,185.045Z" style="fill:#231f20"/><path d="M88.552,232.821a8.955,8.955,0,1,0,0,12.537A8.955,8.955,0,0,0,88.552,232.821Z" style="fill:#231f20"/><path d="M138.612,251.851a8.955,8.955,0,1,0,6.269,10.858A8.954,8.954,0,0,0,138.612,251.851Z" style="fill:#231f20"/><path d="M191.537,243.343A8.955,8.955,0,1,0,202.4,249.59,8.957,8.957,0,0,0,191.537,243.343Z" style="fill:#231f20"/><path d="M245.493,222.075a8.956,8.956,0,1,0-12.538,0A8.955,8.955,0,0,0,245.493,222.075Z" style="fill:#231f20"/><path d="M289.888,176.022a10.322,10.322,0,1,0,6.285,4.806A10.321,10.321,0,0,0,289.888,176.022Z" style="fill:#231f20"/><path d="M289.888,121.978a10.32,10.32,0,1,0-7.844-1.036A10.344,10.344,0,0,0,289.888,121.978Z" style="fill:#231f20"/><path d="M243.03,55.216A10.32,10.32,0,1,0,240,47.907,10.321,10.321,0,0,0,243.03,55.216Z" style="fill:#231f20"/><path d="M183.455,20.873a10.32,10.32,0,1,0-6.271-4.812A10.321,10.321,0,0,0,183.455,20.873Z" style="fill:#231f20"/><path d="M114.813,20.873a10.321,10.321,0,1,0-7.851-1.018A10.321,10.321,0,0,0,114.813,20.873Z" style="fill:#231f20"/><path d="M40.731,55.216a10.343,10.343,0,1,0,0-14.619A10.344,10.344,0,0,0,40.731,55.216Z" style="fill:#231f20"/><path d="M13.709,101.985a10.322,10.322,0,1,0,6.285,4.806A10.344,10.344,0,0,0,13.709,101.985Z" style="fill:#231f20"/><path d="M8.358,176.022a10.3,10.3,0,1,0,7.842,1.02A10.321,10.321,0,0,0,8.358,176.022Z" style="fill:#231f20"/><path d="M55.351,242.784a10.322,10.322,0,1,0,3.023,7.3A10.321,10.321,0,0,0,55.351,242.784Z" style="fill:#231f20"/><path d="M114.791,277.1a10.322,10.322,0,1,0,6.285,4.806A10.321,10.321,0,0,0,114.791,277.1Z" style="fill:#231f20"/><path d="M183.455,277.1a10.321,10.321,0,1,0,7.838,1.028A10.321,10.321,0,0,0,183.455,277.1Z" style="fill:#231f20"/><path d="M257.515,242.761a10.3,10.3,0,1,0,3.044,7.31A10.32,10.32,0,0,0,257.515,242.761Z" style="fill:#231f20"/><path d="M179.94,155.157c-2.418,2.418-4.656,4.791-7.074,7.007a57.3,57.3,0,0,1-5.776,4.612,10.32,10.32,0,0,1-9.694,1.03,6.716,6.716,0,0,1-4.59-5.552c-3.493,2.821-6.716,6.112-11.552,6.313-.4,1.858-.806,3.784-1.209,5.709a19.291,19.291,0,0,0-.515,2.53c0,1.231-.672,1.724-1.881,1.97-2.977.6-9.4,2.239-9.85,2.239,3.559-16.814,7.1-33.582,10.656-50.172h10.791c-.559,2.709-5.574,26.6-5.619,26.866-.291,2.843,1.522,4.478,4.3,3.694a21.4,21.4,0,0,0,4.478-2.4c.224-.134.291-.559.358-.873,1.9-8.955,3.761-17.8,5.642-26.686a3.9,3.9,0,0,1,.224-.672h10.746c-.582,2.754-4.231,20.328-5.507,26.463a7.921,7.921,0,0,0,0,1.477,2.508,2.508,0,0,0,2.127,2.665,4.481,4.481,0,0,0,3.582-.4,30.767,30.767,0,0,0,3.358-2.239,28.132,28.132,0,0,0,3.268-2.821A3.9,3.9,0,0,1,179.94,155.157Z" style="fill:#231f20;fill-rule:evenodd"/><polygon points="417.483 116.208 398.467 171.547 398.22 171.733 378.287 116.018 360.825 116.301 361.103 186.532 372.173 186.253 372.02 128.444 392.558 186.532 403.35 186.346 423.735 128.352 424.017 186.532 435.995 186.532 435.713 116.018 417.483 116.208" style="fill:#1d1d1b"/><polygon points="494.345 116.301 494.628 186.532 506.614 186.532 506.332 116.018 494.345 116.301" style="fill:#1d1d1b"/><path d="M581.668,131.374A18.986,18.986,0,0,1,588,125.321a17.836,17.836,0,0,1,9.085-2.24,21.159,21.159,0,0,1,7.958,1.509,23.018,23.018,0,0,1,6.914,4.654l7.313-6.425a23.025,23.025,0,0,0-9.743-6.4,38.416,38.416,0,0,0-12.955-2.095,32.632,32.632,0,0,0-13.722,2.793,30.027,30.027,0,0,0-10.363,7.725,35.013,35.013,0,0,0-6.563,11.7,46.036,46.036,0,0,0-2.28,14.719,46.556,46.556,0,0,0,2.228,14.658,34.968,34.968,0,0,0,6.413,11.7,29.1,29.1,0,0,0,10.368,7.781,33.468,33.468,0,0,0,13.9,2.793,31.98,31.98,0,0,0,13.375-2.543,22.407,22.407,0,0,0,9.032-7.143l-7.426-5.784a17.765,17.765,0,0,1-14.21,6.7,18.223,18.223,0,0,1-9.149-2.232,19.229,19.229,0,0,1-6.458-6.086,29.029,29.029,0,0,1-3.862-8.947,44.556,44.556,0,0,1-1.283-10.9,45.2,45.2,0,0,1,1.283-10.953A29.033,29.033,0,0,1,581.668,131.374Z" style="fill:#1d1d1b"/><path d="M710.987,151.921a19.012,19.012,0,0,0,5.134-3.556,17.911,17.911,0,0,0,3.814-5.472,18.17,18.17,0,0,0,1.465-7.527,18.653,18.653,0,0,0-1.99-8.919,16.5,16.5,0,0,0-5.44-6.03A23.59,23.59,0,0,0,706,117.072a42.625,42.625,0,0,0-9.637-1.054l-24.139.283.283,70.223,11.728-.279-.279-30.942,10.4-.154L710.2,186.524h13.076l-17.709-32.9A19.871,19.871,0,0,0,710.987,151.921Zm-16.256-4.093-10.493.283V124h10.247a27.709,27.709,0,0,1,5.4.537,13.143,13.143,0,0,1,4.71,1.888A10.658,10.658,0,0,1,707.888,130a11.417,11.417,0,0,1,1.259,5.715,10.818,10.818,0,0,1-3.923,8.951,16.339,16.339,0,0,1-10.477,3.164Z" style="fill:#1d1d1b"/><path d="M828.684,124.469a28.534,28.534,0,0,0-9.969-7.486,32.171,32.171,0,0,0-13.318-2.64,33.41,33.41,0,0,0-13.573,2.64,27.529,27.529,0,0,0-10.037,7.486,33.027,33.027,0,0,0-6.166,11.656,51.2,51.2,0,0,0-2.087,15.045,49.939,49.939,0,0,0,2.159,15.058,33.713,33.713,0,0,0,6.284,11.7,28.651,28.651,0,0,0,10.041,7.58,32.184,32.184,0,0,0,13.379,2.7,31.609,31.609,0,0,0,13.318-2.7,28.694,28.694,0,0,0,9.969-7.576,33.73,33.73,0,0,0,6.3-11.7,53.433,53.433,0,0,0,0-30.1A33.231,33.231,0,0,0,828.684,124.469ZM823,162.273a29.974,29.974,0,0,1-3.6,9.007,18.454,18.454,0,0,1-5.892,5.986,15.066,15.066,0,0,1-8.1,2.179,15.746,15.746,0,0,1-8.306-2.179,18.271,18.271,0,0,1-5.953-5.986,28.749,28.749,0,0,1-3.535-9,53.594,53.594,0,0,1,0-22.2,28.645,28.645,0,0,1,3.535-8.992A18.331,18.331,0,0,1,797.1,125.1a15.741,15.741,0,0,1,8.306-2.184,15.125,15.125,0,0,1,8.1,2.184,18.464,18.464,0,0,1,5.892,5.989,30.112,30.112,0,0,1,3.6,9,50.477,50.477,0,0,1,0,22.2Z" style="fill:#1d1d1b"/><polygon points="938.47 116.301 938.47 179.812 900.993 116.018 894.923 116.301 895.202 186.568 899.75 186.286 899.75 122.677 937.356 186.568 943.292 186.568 943.01 116.018 938.47 116.301" style="fill:#1d1d1b"/><path d="M1017.652,116.208l-24,70.36,4.617-.19,6.748-19.371,31.076-.19,6.9,19.775h4.742l-23.868-70.55Zm-11.244,47.275,14.469-42.715L1035.26,163.1Z" style="fill:#1d1d1b"/><path d="M1140.082,116.289v43.146a62.035,62.035,0,0,1-.7,9.283,20.7,20.7,0,0,1-2.865,7.874,16.048,16.048,0,0,1-5.993,5.529,26.107,26.107,0,0,1-20.631-.045,15.667,15.667,0,0,1-5.937-5.61,21.862,21.862,0,0,1-2.8-7.934,58.807,58.807,0,0,1-.706-9.105l-.283-43.417-4.548.283V160.5a49.587,49.587,0,0,0,1.122,10.727,23,23,0,0,0,4.011,8.842,19.406,19.406,0,0,0,7.668,5.929,29.3,29.3,0,0,0,11.846,2.115,29,29,0,0,0,11.7-2.115,19.424,19.424,0,0,0,7.668-5.929,23.07,23.07,0,0,0,4.064-8.834,45.909,45.909,0,0,0,1.211-10.735l-.282-44.483Z" style="fill:#1d1d1b"/><polygon points="1234.121 116.018 1193.181 116.301 1193.46 119.901 1211.371 119.622 1211.653 186.568 1216.21 186.568 1215.931 119.901 1234.403 119.622 1234.121 116.018" style="fill:#1d1d1b"/><path d="M1304.009,108.621a19.565,19.565,0,0,0-4.129-6.716,18.6,18.6,0,0,0-6.312-4.3,22.265,22.265,0,0,0-16.18,0,18.7,18.7,0,0,0-6.311,4.3,19.271,19.271,0,0,0-4.121,6.72,27.257,27.257,0,0,0,0,17.608,19.731,19.731,0,0,0,4.116,6.756,17.859,17.859,0,0,0,6.321,4.31,22.928,22.928,0,0,0,16.171,0,17.855,17.855,0,0,0,6.32-4.31,19.927,19.927,0,0,0,4.125-6.756A27.416,27.416,0,0,0,1304.009,108.621Zm-18.529,26.551a15.681,15.681,0,0,1-6.578-1.316,13.981,13.981,0,0,1-4.916-3.68,17.121,17.121,0,0,1-3.168-5.606,23.289,23.289,0,0,1,0-14.283,17.042,17.042,0,0,1,3.168-5.605A14.094,14.094,0,0,1,1278.9,101a17.107,17.107,0,0,1,13.157,0,14.328,14.328,0,0,1,4.911,3.681,17.053,17.053,0,0,1,3.172,5.609,23.438,23.438,0,0,1,0,14.283,17.085,17.085,0,0,1-3.172,5.606,14.16,14.16,0,0,1-4.911,3.68,15.726,15.726,0,0,1-6.579,1.3Z" style="fill:#1d1d1b"/><path d="M1292.143,117.031a6.342,6.342,0,0,0,2.143-5.145,6.1,6.1,0,0,0-2.486-5.332,10.259,10.259,0,0,0-5.985-1.614l-8.14.278.283,24.4,3.922-.283L1281.6,119.3l2.7-.129,6.941,10.449h4.94l-7.74-10.784A8.623,8.623,0,0,0,1292.143,117.031Zm-10.263-8.5h3.6a7.733,7.733,0,0,1,3.37.754c.836.4,1.239,1.26,1.239,2.648a2.912,2.912,0,0,1-1.38,2.89,9.386,9.386,0,0,1-4.343.875l-2.486.283Z" style="fill:#1d1d1b"/></svg>