<svg width="59" height="59" viewBox="0 0 59 59" fill="none" xmlns="http://www.w3.org/2000/svg">
<g filter="url(#filter0_d_8319_14347)">
<rect x="5.14844" y="2.81494" width="49" height="49" rx="7.5" fill="#111113" stroke="url(#paint0_linear_8319_14347)"/>
<path d="M39.7392 16.7134C37.5126 14.86 34.7526 13.6467 31.6992 13.3667V16.0467C34.0059 16.3 36.1126 17.22 37.8459 18.6067L39.7392 16.7134Z" fill="url(#paint1_linear_8319_14347)"/>
<path d="M29.0325 16.0467V13.3667C25.9792 13.6334 23.2192 14.86 20.9926 16.7134L22.8859 18.6067C24.6192 17.22 26.7259 16.3 29.0325 16.0467Z" fill="url(#paint2_linear_8319_14347)"/>
<path d="M21.0059 20.4867L19.1126 18.5934C17.2592 20.82 16.0459 23.58 15.7659 26.6334H18.4459C18.6992 24.3267 19.6192 22.22 21.0059 20.4867Z" fill="url(#paint3_linear_8319_14347)"/>
<path d="M42.2859 26.6334H44.9659C44.6859 23.58 43.4725 20.82 41.6192 18.5934L39.7259 20.4867C41.1125 22.22 42.0325 24.3267 42.2859 26.6334Z" fill="url(#paint4_linear_8319_14347)"/>
<path d="M23.6992 27.9667L28.2859 30.0467L30.3659 34.6334L32.4459 30.0467L37.0325 27.9667L32.4459 25.8867L30.3659 21.3L28.2859 25.8867L23.6992 27.9667Z" fill="url(#paint5_linear_8319_14347)"/>
<path d="M30.3659 39.9667C26.2192 39.9667 22.5659 37.8467 20.4192 34.6334H23.6992V31.9667H15.6992V39.9667H18.3659V36.3667C21.0192 40.1534 25.3926 42.6334 30.3659 42.6334C36.8592 42.6334 42.3659 38.4067 44.2859 32.5534L41.6725 31.9534C40.0325 36.6067 35.5925 39.9667 30.3659 39.9667Z" fill="url(#paint6_linear_8319_14347)"/>
</g>
<defs>
<filter id="filter0_d_8319_14347" x="0.648438" y="0" width="58.1846" height="58.3149" filterUnits="userSpaceOnUse" color-interpolation-filters="sRGB">
<feFlood flood-opacity="0" result="BackgroundImageFix"/>
<feColorMatrix in="SourceAlpha" type="matrix" values="0 0 0 0 0 0 0 0 0 0 0 0 0 0 0 0 0 0 127 0" result="hardAlpha"/>
<feOffset dy="2"/>
<feGaussianBlur stdDeviation="2"/>
<feComposite in2="hardAlpha" operator="out"/>
<feColorMatrix type="matrix" values="0 0 0 0 0 0 0 0 0 0 0 0 0 0 0 0 0 0 0.07 0"/>
<feBlend mode="normal" in2="BackgroundImageFix" result="effect1_dropShadow_8319_14347"/>
<feBlend mode="normal" in="SourceGraphic" in2="effect1_dropShadow_8319_14347" result="shape"/>
</filter>
<linearGradient id="paint0_linear_8319_14347" x1="12.1817" y1="11.5971" x2="53.8094" y2="53.1559" gradientUnits="userSpaceOnUse">
<stop offset="0.015625" stop-color="#B010FB"/>
<stop offset="0.130208" stop-color="#DE97FF"/>
<stop offset="0.234375" stop-color="#A227DB"/>
<stop offset="0.505208" stop-color="#A227DB" stop-opacity="0"/>
<stop offset="0.765625" stop-color="#A610EC" stop-opacity="0.84"/>
</linearGradient>
<linearGradient id="paint1_linear_8319_14347" x1="20.1087" y1="18.7999" x2="44.4748" y2="43.1256" gradientUnits="userSpaceOnUse">
<stop offset="0.015625" stop-color="#F2D5FF"/>
<stop offset="1" stop-color="#CB5AFF"/>
</linearGradient>
<linearGradient id="paint2_linear_8319_14347" x1="20.1087" y1="18.7999" x2="44.4748" y2="43.1256" gradientUnits="userSpaceOnUse">
<stop offset="0.015625" stop-color="#F2D5FF"/>
<stop offset="1" stop-color="#CB5AFF"/>
</linearGradient>
<linearGradient id="paint3_linear_8319_14347" x1="20.1087" y1="18.7999" x2="44.4748" y2="43.1256" gradientUnits="userSpaceOnUse">
<stop offset="0.015625" stop-color="#F2D5FF"/>
<stop offset="1" stop-color="#CB5AFF"/>
</linearGradient>
<linearGradient id="paint4_linear_8319_14347" x1="20.1087" y1="18.7999" x2="44.4748" y2="43.1256" gradientUnits="userSpaceOnUse">
<stop offset="0.015625" stop-color="#F2D5FF"/>
<stop offset="1" stop-color="#CB5AFF"/>
</linearGradient>
<linearGradient id="paint5_linear_8319_14347" x1="20.1087" y1="18.7999" x2="44.4748" y2="43.1256" gradientUnits="userSpaceOnUse">
<stop offset="0.015625" stop-color="#F2D5FF"/>
<stop offset="1" stop-color="#CB5AFF"/>
</linearGradient>
<linearGradient id="paint6_linear_8319_14347" x1="20.1087" y1="18.7999" x2="44.4748" y2="43.1256" gradientUnits="userSpaceOnUse">
<stop offset="0.015625" stop-color="#F2D5FF"/>
<stop offset="1" stop-color="#CB5AFF"/>
</linearGradient>
</defs>
</svg>
