<svg width="426" height="280" viewBox="0 0 426 280" fill="none" xmlns="http://www.w3.org/2000/svg">
<g filter="url(#filter0_d_57_46432)">
<path d="M86.3529 101H32C27.5817 101 24 104.582 24 109V148.477C24 152.895 27.5817 156.477 32 156.477H86.3529C90.7712 156.477 94.3529 152.895 94.3529 148.477V109C94.3529 104.582 90.7712 101 86.3529 101Z" fill="white" fill-opacity="0.1"/>
<path d="M86.3529 101.5H32C27.8579 101.5 24.5 104.858 24.5 109V148.477C24.5 152.619 27.8579 155.977 32 155.977H86.3529C90.495 155.977 93.8529 152.619 93.8529 148.477V109C93.8529 104.858 90.495 101.5 86.3529 101.5Z" stroke="#B8B6D9" stroke-opacity="0.2"/>
</g>
<g filter="url(#filter1_d_57_46432)">
<path d="M393.999 101H339.646C335.228 101 331.646 104.582 331.646 109V148.477C331.646 152.895 335.228 156.477 339.646 156.477H393.999C398.418 156.477 401.999 152.895 401.999 148.477V109C401.999 104.582 398.418 101 393.999 101Z" fill="white" fill-opacity="0.1"/>
<path d="M393.999 101.5H339.646C335.504 101.5 332.146 104.858 332.146 109V148.477C332.146 152.619 335.504 155.977 339.646 155.977H393.999C398.142 155.977 401.499 152.619 401.499 148.477V109C401.499 104.858 398.142 101.5 393.999 101.5Z" stroke="#B8B6D9" stroke-opacity="0.2"/>
</g>
<g filter="url(#filter2_d_57_46432)">
<path d="M156.705 32H102.353C97.9343 32 94.3525 35.5817 94.3525 40V79.4766C94.3525 83.8949 97.9343 87.4766 102.353 87.4766H156.705C161.124 87.4766 164.705 83.8949 164.705 79.4766V40C164.705 35.5817 161.124 32 156.705 32Z" fill="white" fill-opacity="0.1"/>
<path d="M156.705 32.5H102.353C98.2104 32.5 94.8525 35.8579 94.8525 40V79.4766C94.8525 83.6187 98.2104 86.9766 102.353 86.9766H156.705C160.848 86.9766 164.205 83.6187 164.205 79.4766V40C164.205 35.8579 160.848 32.5 156.705 32.5Z" stroke="#B8B6D9" stroke-opacity="0.2"/>
</g>
<g filter="url(#filter3_d_57_46432)">
<path d="M244.176 0H189.823C185.405 0 181.823 3.58172 181.823 8V47.4766C181.823 51.8949 185.405 55.4766 189.823 55.4766H244.176C248.594 55.4766 252.176 51.8949 252.176 47.4766V8C252.176 3.58172 248.594 0 244.176 0Z" fill="white" fill-opacity="0.1"/>
<path d="M244.176 0.5H189.823C185.681 0.5 182.323 3.85786 182.323 8V47.4766C182.323 51.6187 185.681 54.9766 189.823 54.9766H244.176C248.318 54.9766 251.676 51.6187 251.676 47.4766V8C251.676 3.85786 248.318 0.5 244.176 0.5Z" stroke="#B8B6D9" stroke-opacity="0.2"/>
</g>
<g filter="url(#filter4_d_57_46432)">
<path d="M331.647 32H277.294C272.876 32 269.294 35.5817 269.294 40V79.4766C269.294 83.8949 272.876 87.4766 277.294 87.4766H331.647C336.065 87.4766 339.647 83.8949 339.647 79.4766V40C339.647 35.5817 336.065 32 331.647 32Z" fill="white" fill-opacity="0.1"/>
<path d="M331.647 32.5H277.294C273.152 32.5 269.794 35.8579 269.794 40V79.4766C269.794 83.6187 273.152 86.9766 277.294 86.9766H331.647C335.789 86.9766 339.147 83.6187 339.147 79.4766V40C339.147 35.8579 335.789 32.5 331.647 32.5Z" stroke="#B8B6D9" stroke-opacity="0.2"/>
</g>
<path d="M63.0859 112.555H53.8359V115.638H63.0859V112.555ZM56.9189 132.596H60.0029V123.346H56.9189V132.596ZM69.2989 122.406L71.4879 120.217C70.8249 119.431 70.1009 118.691 69.3139 118.043L67.1249 120.232C64.7359 118.321 61.7289 117.18 58.4609 117.18C50.7989 117.18 44.5859 123.393 44.5859 131.055C44.5859 138.717 50.7829 144.93 58.4609 144.93C66.1379 144.93 72.3359 138.717 72.3359 131.055C72.3359 127.786 71.1949 124.78 69.2989 122.406ZM58.4609 141.846C52.4949 141.846 47.6689 137.021 47.6689 131.055C47.6689 125.089 52.4949 120.263 58.4609 120.263C64.4269 120.263 69.2529 125.089 69.2529 131.055C69.2529 137.021 64.4269 141.846 58.4609 141.846Z" fill="white"/>
<path d="M378.441 134.13C376.514 134.13 374.664 133.822 372.937 133.251C372.783 133.205 372.613 133.174 372.459 133.174C372.058 133.174 371.673 133.328 371.365 133.621L367.973 137.013C363.61 134.793 360.033 131.232 357.813 126.869L361.205 123.462C361.637 123.046 361.76 122.444 361.59 121.905C361.02 120.178 360.712 118.328 360.712 116.401C360.712 115.553 360.018 114.859 359.17 114.859H353.774C352.926 114.859 352.232 115.553 352.232 116.401C352.232 130.877 363.965 142.609 378.441 142.609C379.289 142.609 379.982 141.916 379.982 141.068V135.672C379.982 134.824 379.289 134.13 378.441 134.13ZM355.362 117.943H357.675C357.782 119.299 358.014 120.641 358.384 121.936L356.534 123.801C355.902 121.936 355.501 119.978 355.362 117.943ZM376.899 139.48C374.864 139.341 372.891 138.94 371.041 138.308L372.891 136.458C374.201 136.828 375.542 137.059 376.899 137.152V139.48ZM366.107 114.859V130.276L370.732 125.651H379.982V114.859H366.107ZM376.899 122.568H369.191V117.943H376.899V122.568Z" fill="white"/>
<path d="M131.897 59.7393L128.814 62.8233L125.73 59.7393L128.814 56.6562L131.897 59.7393ZM128.814 50.4893L132.082 53.7583L135.936 49.9043L128.814 42.7812L121.691 49.9043L125.545 53.7583L128.814 50.4893ZM119.564 59.7393L122.832 56.4713L118.978 52.6172L111.855 59.7393L118.978 66.8622L122.832 63.0082L119.564 59.7393ZM138.064 59.7393L134.795 63.0082L138.65 66.8622L145.772 59.7393L138.65 52.6172L134.795 56.4713L138.064 59.7393ZM128.814 68.9893L125.545 65.7213L121.691 69.5753L128.814 76.6982L135.936 69.5753L132.082 65.7213L128.814 68.9893Z" fill="white"/>
<path d="M217.826 12.3594V17.0304C223.052 17.7864 227.076 22.2574 227.076 27.6994C227.076 29.0864 226.798 30.3974 226.336 31.6154L230.344 33.9734C231.207 32.0624 231.701 29.9344 231.701 27.6994C231.701 19.7134 225.611 13.1304 217.826 12.3594ZM216.284 38.4904C210.318 38.4904 205.492 33.6654 205.492 27.6994C205.492 22.2574 209.516 17.7864 214.742 17.0304V12.3594C206.941 13.1304 200.867 19.6974 200.867 27.6994C200.867 36.2094 207.758 43.1154 216.268 43.1154C221.371 43.1154 225.888 40.6334 228.694 36.8104L224.686 34.4514C222.713 36.9184 219.691 38.4904 216.284 38.4904Z" fill="white"/>
<path d="M319.171 46.4933L311.016 54.6493L316.088 59.7363H303.755V47.4033L308.827 52.4753L316.997 44.3203L319.171 46.4933ZM290.512 75.1533L298.667 66.9973L303.755 72.0703V59.7363H291.421L296.493 64.8083L288.338 72.9793L290.512 75.1533Z" fill="white"/>
<path d="M281.787 209.408C281.842 215.355 281.134 221.376 279.605 227.332L279.269 227.244C278.532 230.115 277.603 232.972 276.475 235.797C275.347 238.623 274.055 241.332 272.614 243.918L272.916 244.089C269.927 249.452 266.302 254.288 262.177 258.538L261.928 258.295C257.722 262.629 252.993 266.35 247.891 269.395L248.069 269.694C242.898 272.78 237.344 275.176 231.56 276.815L231.465 276.481C225.739 278.103 219.787 278.982 213.756 279.051L213.762 279.399C207.834 279.468 201.832 278.759 195.894 277.213L195.98 276.877C193.115 276.131 190.265 275.189 187.447 274.045C184.628 272.901 181.926 271.588 179.348 270.124L179.179 270.427C173.835 267.392 169.02 263.709 164.793 259.517L165.036 259.27C160.736 255.006 157.047 250.214 154.033 245.042L153.734 245.217C150.69 239.993 148.331 234.385 146.722 228.547L147.056 228.455C145.469 222.694 144.616 216.706 144.56 210.642L144.214 210.644C144.159 204.697 144.867 198.676 146.396 192.72L146.731 192.808C147.469 189.937 148.398 187.081 149.526 184.255C150.654 181.429 151.946 178.72 153.387 176.134L153.085 175.964C156.073 170.6 159.699 165.764 163.824 161.514L164.073 161.758C168.279 157.424 173.007 153.702 178.11 150.657L177.932 150.358C183.103 147.272 188.657 144.876 194.441 143.237L194.536 143.572C200.262 141.949 206.214 141.071 212.244 141.001L212.239 140.653C218.166 140.585 224.169 141.293 230.107 142.839L230.021 143.175C232.886 143.921 235.735 144.863 238.554 146.007C241.373 147.152 244.074 148.464 246.652 149.928L246.822 149.625C252.165 152.66 256.98 156.343 261.207 160.535L260.965 160.782C265.265 165.046 268.954 169.839 271.968 175.01L272.266 174.835C275.311 180.059 277.67 185.667 279.278 191.506L278.944 191.597C280.532 197.359 281.385 203.346 281.441 209.41L281.787 209.408Z" stroke="url(#paint0_linear_57_46432)" stroke-width="0.694098" stroke-linejoin="round" stroke-dasharray="16.66 16.66"/>
<path d="M321.205 128.196C321.296 127.936 321.158 127.651 320.898 127.559L316.65 126.075C316.389 125.984 316.104 126.121 316.013 126.382C315.922 126.642 316.059 126.928 316.32 127.019L320.096 128.338L318.776 132.114C318.685 132.375 318.822 132.66 319.083 132.751C319.344 132.843 319.629 132.705 319.72 132.444L321.205 128.196ZM214.816 176.13C213.533 176.854 213.08 178.48 213.804 179.763C214.527 181.046 216.154 181.499 217.436 180.775C218.719 180.052 219.172 178.425 218.449 177.142C217.725 175.86 216.099 175.406 214.816 176.13ZM216.343 178.903L217.245 178.468L216.811 177.568L215.909 178.002L216.343 178.903ZM219.049 177.599L220.852 176.73L220.418 175.829L218.614 176.698L219.049 177.599ZM222.656 175.86L224.459 174.991L224.025 174.09L222.222 174.96L222.656 175.86ZM226.263 174.122L228.066 173.252L227.632 172.352L225.829 173.221L226.263 174.122ZM229.87 172.383L231.674 171.514L231.239 170.613L229.436 171.482L229.87 172.383ZM233.477 170.644L235.281 169.775L234.846 168.874L233.043 169.744L233.477 170.644ZM237.084 168.906L238.888 168.036L238.454 167.136L236.65 168.005L237.084 168.906ZM240.691 167.167L242.495 166.298L242.061 165.397L240.257 166.266L240.691 167.167ZM244.298 165.428L246.102 164.559L245.668 163.658L243.864 164.528L244.298 165.428ZM247.906 163.69L249.709 162.82L249.275 161.92L247.471 162.789L247.906 163.69ZM251.513 161.951L253.316 161.082L252.882 160.181L251.079 161.05L251.513 161.951ZM255.12 160.212L256.923 159.343L256.489 158.442L254.686 159.312L255.12 160.212ZM258.727 158.474L260.531 157.604L260.096 156.704L258.293 157.573L258.727 158.474ZM262.334 156.735L264.138 155.866L263.703 154.965L261.9 155.834L262.334 156.735ZM265.941 154.996L267.745 154.127L267.311 153.226L265.507 154.096L265.941 154.996ZM269.548 153.258L271.352 152.388L270.918 151.488L269.114 152.357L269.548 153.258ZM273.155 151.519L274.959 150.65L274.525 149.749L272.721 150.618L273.155 151.519ZM276.763 149.78L278.566 148.911L278.132 148.01L276.328 148.88L276.763 149.78ZM280.37 148.042L282.173 147.172L281.739 146.272L279.936 147.141L280.37 148.042ZM283.977 146.303L285.78 145.434L285.346 144.533L283.543 145.402L283.977 146.303ZM287.584 144.564L289.388 143.695L288.953 142.794L287.15 143.664L287.584 144.564ZM291.191 142.826L292.995 141.956L292.56 141.056L290.757 141.925L291.191 142.826ZM294.798 141.087L296.602 140.218L296.168 139.317L294.364 140.186L294.798 141.087ZM298.405 139.348L300.209 138.479L299.775 137.578L297.971 138.448L298.405 139.348ZM302.013 137.61L303.816 136.74L303.382 135.84L301.578 136.709L302.013 137.61ZM305.62 135.871L307.423 135.002L306.989 134.101L305.185 134.97L305.62 135.871ZM309.227 134.132L311.03 133.263L310.596 132.362L308.793 133.232L309.227 134.132ZM312.834 132.394L314.637 131.524L314.203 130.624L312.4 131.493L312.834 132.394ZM316.441 130.655L318.245 129.786L317.81 128.885L316.007 129.754L316.441 130.655ZM320.048 128.916L320.95 128.482L320.516 127.581L319.614 128.016L320.048 128.916Z" fill="#9F9DFF"/>
<path d="M109.842 128.196C109.751 127.936 109.888 127.651 110.149 127.559L114.397 126.075C114.658 125.984 114.943 126.121 115.034 126.382C115.125 126.642 114.988 126.928 114.727 127.019L110.951 128.338L112.271 132.114C112.362 132.375 112.225 132.66 111.964 132.751C111.703 132.843 111.418 132.705 111.327 132.444L109.842 128.196ZM216.231 176.13C217.514 176.854 217.967 178.48 217.243 179.763C216.52 181.046 214.893 181.499 213.61 180.775C212.328 180.052 211.875 178.425 212.598 177.142C213.322 175.86 214.948 175.406 216.231 176.13ZM214.704 178.903L213.802 178.468L214.236 177.568L215.138 178.002L214.704 178.903ZM211.998 177.599L210.195 176.73L210.629 175.829L212.432 176.698L211.998 177.599ZM208.391 175.86L206.588 174.991L207.022 174.09L208.825 174.96L208.391 175.86ZM204.784 174.122L202.98 173.252L203.415 172.352L205.218 173.221L204.784 174.122ZM201.177 172.383L199.373 171.514L199.808 170.613L201.611 171.482L201.177 172.383ZM197.57 170.644L195.766 169.775L196.2 168.874L198.004 169.744L197.57 170.644ZM193.963 168.906L192.159 168.036L192.593 167.136L194.397 168.005L193.963 168.906ZM190.356 167.167L188.552 166.298L188.986 165.397L190.79 166.266L190.356 167.167ZM186.748 165.428L184.945 164.559L185.379 163.658L187.183 164.528L186.748 165.428ZM183.141 163.69L181.338 162.82L181.772 161.92L183.575 162.789L183.141 163.69ZM179.534 161.951L177.731 161.082L178.165 160.181L179.968 161.05L179.534 161.951ZM175.927 160.212L174.123 159.343L174.558 158.442L176.361 159.312L175.927 160.212ZM172.32 158.474L170.516 157.604L170.951 156.704L172.754 157.573L172.32 158.474ZM168.713 156.735L166.909 155.866L167.343 154.965L169.147 155.834L168.713 156.735ZM165.106 154.996L163.302 154.127L163.736 153.226L165.54 154.096L165.106 154.996ZM161.499 153.258L159.695 152.388L160.129 151.488L161.933 152.357L161.499 153.258ZM157.891 151.519L156.088 150.65L156.522 149.749L158.326 150.618L157.891 151.519ZM154.284 149.78L152.481 148.911L152.915 148.01L154.718 148.88L154.284 149.78ZM150.677 148.042L148.874 147.172L149.308 146.272L151.111 147.141L150.677 148.042ZM147.07 146.303L145.266 145.434L145.701 144.533L147.504 145.402L147.07 146.303ZM143.463 144.564L141.659 143.695L142.094 142.794L143.897 143.664L143.463 144.564ZM139.856 142.826L138.052 141.956L138.486 141.056L140.29 141.925L139.856 142.826ZM136.249 141.087L134.445 140.218L134.879 139.317L136.683 140.186L136.249 141.087ZM132.641 139.348L130.838 138.479L131.272 137.578L133.076 138.448L132.641 139.348ZM129.034 137.61L127.231 136.74L127.665 135.84L129.469 136.709L129.034 137.61ZM125.427 135.871L123.624 135.002L124.058 134.101L125.861 134.97L125.427 135.871ZM121.82 134.132L120.017 133.263L120.451 132.362L122.254 133.232L121.82 134.132ZM118.213 132.394L116.409 131.524L116.844 130.624L118.647 131.493L118.213 132.394ZM114.606 130.655L112.802 129.786L113.236 128.885L115.04 129.754L114.606 130.655ZM110.999 128.916L110.097 128.482L110.531 127.581L111.433 128.016L110.999 128.916Z" fill="#9F9DFF"/>
<path d="M296.73 88.4172C296.714 88.1412 296.477 87.9302 296.202 87.9462L291.709 88.2082C291.433 88.2242 291.223 88.4602 291.239 88.7362C291.255 89.0122 291.492 89.2222 291.767 89.2062L295.76 88.9742L295.993 92.9672C296.009 93.2432 296.245 93.4532 296.521 93.4372C296.797 93.4212 297.007 93.1851 296.991 92.9091L296.73 88.4172ZM214.816 176.125C213.533 176.849 213.08 178.475 213.804 179.758C214.527 181.041 216.154 181.494 217.437 180.77C218.719 180.047 219.173 178.42 218.449 177.138C217.725 175.855 216.099 175.402 214.816 176.125ZM295.857 88.1132L295.19 88.8632L295.937 89.5282L296.604 88.7782L295.857 88.1132ZM293.855 90.3632L292.519 91.8632L293.266 92.5282L294.601 91.0282L293.855 90.3632ZM291.184 93.3632L289.849 94.8632L290.596 95.5282L291.931 94.0282L291.184 93.3632ZM288.514 96.3632L287.179 97.8632L287.926 98.5282L289.261 97.0282L288.514 96.3632ZM285.844 99.3632L284.509 100.863L285.256 101.528L286.591 100.028L285.844 99.3632ZM283.174 102.364L281.839 103.864L282.586 104.528L283.921 103.028L283.174 102.364ZM280.504 105.364L279.169 106.864L279.916 107.528L281.251 106.028L280.504 105.364ZM277.834 108.364L276.499 109.864L277.246 110.529L278.581 109.029L277.834 108.364ZM275.164 111.364L273.828 112.864L274.575 113.529L275.91 112.029L275.164 111.364ZM272.493 114.364L271.158 115.864L271.905 116.529L273.24 115.029L272.493 114.364ZM269.823 117.364L268.488 118.864L269.235 119.529L270.57 118.029L269.823 117.364ZM267.153 120.364L265.818 121.864L266.565 122.529L267.9 121.029L267.153 120.364ZM264.483 123.364L263.148 124.864L263.895 125.529L265.23 124.029L264.483 123.364ZM261.813 126.364L260.478 127.864L261.225 128.529L262.56 127.029L261.813 126.364ZM259.143 129.364L257.808 130.864L258.555 131.529L259.89 130.029L259.143 129.364ZM256.473 132.364L255.137 133.864L255.884 134.529L257.22 133.029L256.473 132.364ZM253.802 135.364L252.467 136.864L253.214 137.529L254.549 136.029L253.802 135.364ZM251.132 138.364L249.797 139.864L250.544 140.529L251.879 139.029L251.132 138.364ZM248.462 141.364L247.127 142.865L247.874 143.529L249.209 142.029L248.462 141.364ZM245.792 144.365L244.457 145.865L245.204 146.529L246.539 145.029L245.792 144.365ZM243.122 147.365L241.787 148.865L242.534 149.53L243.869 148.03L243.122 147.365ZM240.452 150.365L239.117 151.865L239.864 152.53L241.199 151.03L240.452 150.365ZM237.782 153.365L236.446 154.865L237.193 155.53L238.529 154.03L237.782 153.365ZM235.111 156.365L233.776 157.865L234.523 158.53L235.858 157.03L235.111 156.365ZM232.441 159.365L231.106 160.865L231.853 161.53L233.188 160.03L232.441 159.365ZM229.771 162.365L228.436 163.865L229.183 164.53L230.518 163.03L229.771 162.365ZM227.101 165.365L225.766 166.865L226.513 167.53L227.848 166.03L227.101 165.365ZM224.431 168.365L223.096 169.865L223.843 170.53L225.178 169.03L224.431 168.365ZM221.761 171.365L220.426 172.865L221.173 173.53L222.508 172.03L221.761 171.365ZM219.091 174.365L217.755 175.865L218.502 176.53L219.837 175.03L219.091 174.365ZM216.42 177.365L215.753 178.115L216.5 178.78L217.167 178.03L216.42 177.365Z" fill="#9F9DFF"/>
<path d="M134.317 88.4172C134.333 88.1412 134.57 87.9302 134.845 87.9462L139.338 88.2082C139.613 88.2242 139.824 88.4602 139.808 88.7362C139.792 89.0122 139.555 89.2222 139.28 89.2062L135.286 88.9742L135.054 92.9672C135.038 93.2432 134.802 93.4532 134.526 93.4372C134.25 93.4212 134.04 93.1851 134.056 92.9091L134.317 88.4172ZM216.231 176.125C217.513 176.849 217.967 178.475 217.243 179.758C216.519 181.041 214.893 181.494 213.61 180.77C212.328 180.047 211.874 178.42 212.598 177.138C213.322 175.855 214.948 175.402 216.231 176.125ZM135.19 88.1132L135.857 88.8632L135.11 89.5282L134.443 88.7782L135.19 88.1132ZM137.192 90.3632L138.527 91.8632L137.78 92.5282L136.445 91.0282L137.192 90.3632ZM139.863 93.3632L141.198 94.8632L140.451 95.5282L139.116 94.0282L139.863 93.3632ZM142.533 96.3632L143.868 97.8632L143.121 98.5282L141.786 97.0282L142.533 96.3632ZM145.203 99.3632L146.538 100.863L145.791 101.528L144.456 100.028L145.203 99.3632ZM147.873 102.364L149.208 103.864L148.461 104.528L147.126 103.028L147.873 102.364ZM150.543 105.364L151.878 106.864L151.131 107.528L149.796 106.028L150.543 105.364ZM153.213 108.364L154.548 109.864L153.801 110.529L152.466 109.029L153.213 108.364ZM155.883 111.364L157.218 112.864L156.471 113.529L155.136 112.029L155.883 111.364ZM158.554 114.364L159.889 115.864L159.142 116.529L157.807 115.029L158.554 114.364ZM161.224 117.364L162.559 118.864L161.812 119.529L160.477 118.029L161.224 117.364ZM163.894 120.364L165.229 121.864L164.482 122.529L163.147 121.029L163.894 120.364ZM166.564 123.364L167.899 124.864L167.152 125.529L165.817 124.029L166.564 123.364ZM169.234 126.364L170.569 127.864L169.822 128.529L168.487 127.029L169.234 126.364ZM171.904 129.364L173.239 130.864L172.492 131.529L171.157 130.029L171.904 129.364ZM174.574 132.364L175.909 133.864L175.162 134.529L173.827 133.029L174.574 132.364ZM177.244 135.364L178.58 136.864L177.833 137.529L176.497 136.029L177.244 135.364ZM179.915 138.364L181.25 139.864L180.503 140.529L179.168 139.029L179.915 138.364ZM182.585 141.364L183.92 142.865L183.173 143.529L181.838 142.029L182.585 141.364ZM185.255 144.365L186.59 145.865L185.843 146.529L184.508 145.029L185.255 144.365ZM187.925 147.365L189.26 148.865L188.513 149.53L187.178 148.03L187.925 147.365ZM190.595 150.365L191.93 151.865L191.183 152.53L189.848 151.03L190.595 150.365ZM193.265 153.365L194.6 154.865L193.853 155.53L192.518 154.03L193.265 153.365ZM195.936 156.365L197.271 157.865L196.524 158.53L195.189 157.03L195.936 156.365ZM198.606 159.365L199.941 160.865L199.194 161.53L197.859 160.03L198.606 159.365ZM201.276 162.365L202.611 163.865L201.864 164.53L200.529 163.03L201.276 162.365ZM203.946 165.365L205.281 166.865L204.534 167.53L203.199 166.03L203.946 165.365ZM206.616 168.365L207.951 169.865L207.204 170.53L205.869 169.03L206.616 168.365ZM209.286 171.365L210.621 172.865L209.874 173.53L208.539 172.03L209.286 171.365ZM211.956 174.365L213.291 175.865L212.544 176.53L211.209 175.03L211.956 174.365ZM214.627 177.365L215.294 178.115L214.547 178.78L213.88 178.03L214.627 177.365Z" fill="#9F9DFF"/>
<path d="M216.481 57.9353C216.285 57.7403 215.969 57.7403 215.773 57.9353L212.591 61.1173C212.396 61.3123 212.396 61.6293 212.591 61.8243C212.787 62.0193 213.103 62.0193 213.299 61.8243L216.127 58.9963L218.955 61.8243C219.151 62.0193 219.467 62.0193 219.662 61.8243C219.858 61.6293 219.858 61.3123 219.662 61.1173L216.481 57.9353ZM214.817 176.125C213.534 176.849 213.081 178.475 213.804 179.758C214.528 181.041 216.154 181.494 217.437 180.77C218.72 180.047 219.173 178.42 218.449 177.137C217.726 175.855 216.099 175.401 214.817 176.125ZM215.627 58.2893V59.2903H216.627V58.2893H215.627ZM215.627 61.2923V63.2953H216.627V61.2923H215.627ZM215.627 65.2983V67.3003H216.627V65.2983H215.627ZM215.627 69.3033V71.3063H216.627V69.3033H215.627ZM215.627 73.3083V75.3113H216.627V73.3083H215.627ZM215.627 77.3143V79.3163H216.627V77.3143H215.627ZM215.627 81.3193V83.3223H216.627V81.3193H215.627ZM215.627 85.3243V87.3273H216.627V85.3243H215.627ZM215.627 89.3303V91.3323H216.627V89.3303H215.627ZM215.627 93.3353V95.3383H216.627V93.3353H215.627ZM215.627 97.3403V99.3433H216.627V97.3403H215.627ZM215.627 101.346V103.348H216.627V101.346H215.627ZM215.627 105.351V107.353H216.627V105.351H215.627ZM215.627 109.356V111.359H216.627V109.356H215.627ZM215.627 113.361V115.364H216.627V113.361H215.627ZM215.627 117.367V119.369H216.627V117.367H215.627ZM215.627 121.372V123.375H216.627V121.372H215.627ZM215.627 125.377V127.38H216.627V125.377H215.627ZM215.627 129.383V131.385H216.627V129.383H215.627ZM215.627 133.388V135.391H216.627V133.388H215.627ZM215.627 137.393V139.396H216.627V137.393H215.627ZM215.627 141.399V143.401H216.627V141.399H215.627ZM215.627 145.404V147.407H216.627V145.404H215.627ZM215.627 149.409V151.412H216.627V149.409H215.627ZM215.627 153.415V155.417H216.627V153.415H215.627ZM215.627 157.42V159.422H216.627V157.42H215.627ZM215.627 161.425V163.428H216.627V161.425H215.627ZM215.627 165.43V167.433H216.627V165.43H215.627ZM215.627 169.436V171.438H216.627V169.436H215.627ZM215.627 173.441V175.444H216.627V173.441H215.627ZM215.627 177.446V178.448H216.627V177.446H215.627Z" fill="#9F9DFF"/>
<path d="M287 178.953H139C134.858 178.953 131.5 182.311 131.5 186.453V226.453C131.5 230.595 134.858 233.953 139 233.953H287C291.142 233.953 294.5 230.595 294.5 226.453V186.453C294.5 182.311 291.142 178.953 287 178.953Z" fill="white" fill-opacity="0.2"/>
<path d="M287 178.953H139C134.858 178.953 131.5 182.311 131.5 186.453V226.453C131.5 230.595 134.858 233.953 139 233.953H287C291.142 233.953 294.5 230.595 294.5 226.453V186.453C294.5 182.311 291.142 178.953 287 178.953Z" stroke="#B8B6D9"/>
<path d="M157.995 215.453H156.995L157.995 208.453H154.495C153.615 208.453 154.165 207.703 154.185 207.673C155.475 205.393 157.415 201.993 160.005 197.453H161.005L160.005 204.453H163.515C163.915 204.453 164.135 204.643 163.915 205.113C159.965 212.003 157.995 215.453 157.995 215.453Z" fill="white"/>
<path d="M180.656 212.452V200.716H188.432V202.948H183.32V205.306H187.658V207.52H183.32V210.22H188.612V212.452H180.656ZM190.117 212.452L193.537 206.422L190.315 200.716H193.285L194.419 202.93C194.551 203.194 194.689 203.482 194.833 203.794C194.977 204.106 195.139 204.448 195.319 204.82H195.391C195.523 204.448 195.655 204.106 195.787 203.794C195.919 203.482 196.051 203.194 196.183 202.93L197.227 200.716H200.071L196.849 206.548L200.269 212.452H197.317L196.039 210.058C195.883 209.746 195.727 209.44 195.571 209.14C195.427 208.828 195.271 208.492 195.103 208.132H195.031C194.887 208.492 194.743 208.828 194.599 209.14C194.455 209.44 194.311 209.746 194.167 210.058L192.943 212.452H190.117ZM202.242 212.452V200.716H210.018V202.948H204.906V205.306H209.244V207.52H204.906V210.22H210.198V212.452H202.242ZM217.787 212.668C217.055 212.668 216.359 212.542 215.699 212.29C215.051 212.038 214.475 211.66 213.971 211.156C213.467 210.64 213.071 210.01 212.783 209.266C212.495 208.51 212.351 207.64 212.351 206.656C212.351 205.36 212.597 204.256 213.089 203.344C213.593 202.42 214.265 201.718 215.105 201.238C215.957 200.746 216.905 200.5 217.949 200.5C218.693 200.5 219.365 200.656 219.965 200.968C220.565 201.268 221.063 201.61 221.459 201.994L220.001 203.632C219.725 203.368 219.419 203.164 219.083 203.02C218.759 202.864 218.381 202.786 217.949 202.786C217.397 202.786 216.905 202.942 216.473 203.254C216.041 203.554 215.699 203.986 215.447 204.55C215.195 205.114 215.069 205.786 215.069 206.566C215.069 207.37 215.195 208.06 215.447 208.636C215.699 209.2 216.047 209.632 216.491 209.932C216.947 210.232 217.469 210.382 218.057 210.382C218.489 210.382 218.879 210.286 219.227 210.094C219.575 209.902 219.893 209.65 220.181 209.338L221.639 210.94C221.159 211.504 220.595 211.936 219.947 212.236C219.299 212.524 218.579 212.668 217.787 212.668ZM227.608 212.668C226.888 212.668 226.258 212.566 225.718 212.362C225.19 212.146 224.746 211.84 224.386 211.444C224.038 211.036 223.774 210.544 223.594 209.968C223.414 209.38 223.324 208.702 223.324 207.934V200.716H225.97V208.204C225.97 208.672 226.03 209.068 226.15 209.392C226.27 209.716 226.45 209.962 226.69 210.13C226.93 210.298 227.236 210.382 227.608 210.382C227.98 210.382 228.286 210.298 228.526 210.13C228.778 209.962 228.964 209.716 229.084 209.392C229.204 209.068 229.264 208.672 229.264 208.204V200.716H231.82V207.934C231.82 208.702 231.736 209.38 231.568 209.968C231.4 210.544 231.136 211.036 230.776 211.444C230.428 211.84 229.99 212.146 229.462 212.362C228.934 212.566 228.316 212.668 227.608 212.668ZM237.033 212.452V202.948H233.523V200.716H243.207V202.948H239.697V212.452H237.033ZM245.414 212.452V200.716H253.19V202.948H248.078V205.306H252.416V207.52H248.078V210.22H253.37V212.452H245.414Z" fill="white"/>
<path fill-rule="evenodd" clip-rule="evenodd" d="M256.95 217.008C254.886 217.008 253.212 218.681 253.212 220.745V229.591C250.369 230.169 248.229 232.682 248.229 235.696V239.53C248.229 241.348 248.796 243.12 249.853 244.599L253.572 249.806C254.508 251.116 256.018 251.893 257.627 251.893H267.24C269.028 251.893 270.678 250.935 271.566 249.382L274.489 244.267C275.242 242.95 275.638 241.458 275.638 239.941V235.696C275.638 232.357 273.01 229.631 269.709 229.474C269.025 228.705 268.027 228.221 266.917 228.221C266.251 228.221 265.625 228.395 265.084 228.701C264.42 227.663 263.257 226.975 261.933 226.975C261.497 226.975 261.077 227.05 260.687 227.188V220.745C260.687 218.681 259.014 217.008 256.95 217.008Z" fill="white"/>
<path fill-rule="evenodd" clip-rule="evenodd" d="M256.95 217.008C254.886 217.008 253.212 218.681 253.212 220.745V229.591C250.369 230.169 248.229 232.682 248.229 235.696V239.53C248.229 241.348 248.796 243.12 249.853 244.599L253.572 249.806C254.508 251.116 256.018 251.893 257.627 251.893H267.24C269.028 251.893 270.678 250.935 271.566 249.382L274.489 244.267C275.242 242.95 275.638 241.458 275.638 239.941V235.696C275.638 232.357 273.01 229.631 269.709 229.474C269.025 228.705 268.027 228.221 266.917 228.221C266.251 228.221 265.625 228.395 265.084 228.701C264.42 227.663 263.257 226.975 261.933 226.975C261.497 226.975 261.077 227.05 260.687 227.188V220.745C260.687 218.681 259.014 217.008 256.95 217.008ZM260.687 230.713C260.687 231.401 260.129 231.959 259.441 231.959C258.752 231.959 258.196 231.401 258.196 230.713V220.745C258.196 220.057 257.638 219.5 256.95 219.5C256.262 219.5 255.704 220.057 255.704 220.745V236.942C255.704 237.63 255.146 238.188 254.458 238.188C253.77 238.188 253.212 237.63 253.212 236.942V232.171C251.76 232.684 250.72 234.069 250.72 235.696V239.53C250.72 240.828 251.126 242.094 251.881 243.151L255.6 248.358C256.067 249.012 256.823 249.401 257.627 249.401H267.24C268.134 249.401 268.96 248.922 269.403 248.146L272.326 243.031C272.864 242.09 273.146 241.025 273.146 239.941V235.696C273.146 234.069 272.106 232.684 270.655 232.171V233.204C270.655 233.893 270.097 234.45 269.409 234.45C268.721 234.45 268.163 233.893 268.163 233.204V231.959C268.163 231.27 267.605 230.713 266.917 230.713C266.229 230.713 265.671 231.27 265.671 231.959C265.671 232.647 265.112 233.204 264.424 233.204C263.736 233.204 263.178 232.647 263.178 231.959V230.713C263.178 230.025 262.621 229.467 261.933 229.467C261.245 229.467 260.687 230.025 260.687 230.713Z" fill="#12131A"/>
<defs>
<filter id="filter0_d_57_46432" x="0" y="101" width="118.353" height="103.477" filterUnits="userSpaceOnUse" color-interpolation-filters="sRGB">
<feFlood flood-opacity="0" result="BackgroundImageFix"/>
<feColorMatrix in="SourceAlpha" type="matrix" values="0 0 0 0 0 0 0 0 0 0 0 0 0 0 0 0 0 0 127 0" result="hardAlpha"/>
<feOffset dy="24"/>
<feGaussianBlur stdDeviation="12"/>
<feComposite in2="hardAlpha" operator="out"/>
<feColorMatrix type="matrix" values="0 0 0 0 0.352941 0 0 0 0 0.184314 0 0 0 0 0.835294 0 0 0 0.22 0"/>
<feBlend mode="normal" in2="BackgroundImageFix" result="effect1_dropShadow_57_46432"/>
<feBlend mode="normal" in="SourceGraphic" in2="effect1_dropShadow_57_46432" result="shape"/>
</filter>
<filter id="filter1_d_57_46432" x="307.646" y="101" width="118.353" height="103.477" filterUnits="userSpaceOnUse" color-interpolation-filters="sRGB">
<feFlood flood-opacity="0" result="BackgroundImageFix"/>
<feColorMatrix in="SourceAlpha" type="matrix" values="0 0 0 0 0 0 0 0 0 0 0 0 0 0 0 0 0 0 127 0" result="hardAlpha"/>
<feOffset dy="24"/>
<feGaussianBlur stdDeviation="12"/>
<feComposite in2="hardAlpha" operator="out"/>
<feColorMatrix type="matrix" values="0 0 0 0 0.352941 0 0 0 0 0.184314 0 0 0 0 0.835294 0 0 0 0.22 0"/>
<feBlend mode="normal" in2="BackgroundImageFix" result="effect1_dropShadow_57_46432"/>
<feBlend mode="normal" in="SourceGraphic" in2="effect1_dropShadow_57_46432" result="shape"/>
</filter>
<filter id="filter2_d_57_46432" x="70.3525" y="32" width="118.353" height="103.477" filterUnits="userSpaceOnUse" color-interpolation-filters="sRGB">
<feFlood flood-opacity="0" result="BackgroundImageFix"/>
<feColorMatrix in="SourceAlpha" type="matrix" values="0 0 0 0 0 0 0 0 0 0 0 0 0 0 0 0 0 0 127 0" result="hardAlpha"/>
<feOffset dy="24"/>
<feGaussianBlur stdDeviation="12"/>
<feComposite in2="hardAlpha" operator="out"/>
<feColorMatrix type="matrix" values="0 0 0 0 0.352941 0 0 0 0 0.184314 0 0 0 0 0.835294 0 0 0 0.22 0"/>
<feBlend mode="normal" in2="BackgroundImageFix" result="effect1_dropShadow_57_46432"/>
<feBlend mode="normal" in="SourceGraphic" in2="effect1_dropShadow_57_46432" result="shape"/>
</filter>
<filter id="filter3_d_57_46432" x="157.823" y="0" width="118.353" height="103.477" filterUnits="userSpaceOnUse" color-interpolation-filters="sRGB">
<feFlood flood-opacity="0" result="BackgroundImageFix"/>
<feColorMatrix in="SourceAlpha" type="matrix" values="0 0 0 0 0 0 0 0 0 0 0 0 0 0 0 0 0 0 127 0" result="hardAlpha"/>
<feOffset dy="24"/>
<feGaussianBlur stdDeviation="12"/>
<feComposite in2="hardAlpha" operator="out"/>
<feColorMatrix type="matrix" values="0 0 0 0 0.352941 0 0 0 0 0.184314 0 0 0 0 0.835294 0 0 0 0.22 0"/>
<feBlend mode="normal" in2="BackgroundImageFix" result="effect1_dropShadow_57_46432"/>
<feBlend mode="normal" in="SourceGraphic" in2="effect1_dropShadow_57_46432" result="shape"/>
</filter>
<filter id="filter4_d_57_46432" x="245.294" y="32" width="118.353" height="103.477" filterUnits="userSpaceOnUse" color-interpolation-filters="sRGB">
<feFlood flood-opacity="0" result="BackgroundImageFix"/>
<feColorMatrix in="SourceAlpha" type="matrix" values="0 0 0 0 0 0 0 0 0 0 0 0 0 0 0 0 0 0 127 0" result="hardAlpha"/>
<feOffset dy="24"/>
<feGaussianBlur stdDeviation="12"/>
<feComposite in2="hardAlpha" operator="out"/>
<feColorMatrix type="matrix" values="0 0 0 0 0.352941 0 0 0 0 0.184314 0 0 0 0 0.835294 0 0 0 0.22 0"/>
<feBlend mode="normal" in2="BackgroundImageFix" result="effect1_dropShadow_57_46432"/>
<feBlend mode="normal" in="SourceGraphic" in2="effect1_dropShadow_57_46432" result="shape"/>
</filter>
<linearGradient id="paint0_linear_57_46432" x1="184.575" y1="151.477" x2="249.029" y2="301.168" gradientUnits="userSpaceOnUse">
<stop offset="0.015625" stop-color="#B010FB"/>
<stop offset="0.130208" stop-color="#DE97FF"/>
<stop offset="0.234375" stop-color="#A227DB"/>
<stop offset="0.505208" stop-color="#A227DB" stop-opacity="0"/>
<stop offset="0.765625" stop-color="#A610EC" stop-opacity="0.84"/>
</linearGradient>
</defs>
</svg>
