<svg width="77" height="77" viewBox="0 0 77 77" fill="none" xmlns="http://www.w3.org/2000/svg">
<rect x="1.03542" y="0.937767" width="75.0762" height="75.0762" rx="5.76914" fill="#0A0113" stroke="url(#paint0_linear_8293_7699)" stroke-width="0.758346"/>
<path d="M36.6032 32.9651C37.5254 32.0429 39.0206 32.0429 39.9428 32.9651L43.7336 36.7559C44.6558 37.6781 44.6558 39.1733 43.7336 40.0955L39.9428 43.8863C39.0206 44.8085 37.5254 44.8085 36.6032 43.8863L32.8124 40.0955C31.8902 39.1733 31.8902 37.6781 32.8124 36.7559L36.6032 32.9651Z" fill="#A950FF"/>
<path d="M54.0631 32.9349C54.9688 32.0292 56.4372 32.0292 57.3429 32.9349L61.1935 36.7855C62.0992 37.6912 62.0992 39.1596 61.1935 40.0653L57.3429 43.9159C56.4372 44.8216 54.9688 44.8216 54.0631 43.9159L50.2125 40.0653C49.3068 39.1596 49.3068 37.6912 50.2125 36.7855L54.0631 32.9349Z" fill="#A950FF"/>
<path d="M36.6331 15.5055C37.5388 14.5997 39.0073 14.5997 39.913 15.5054L43.7635 19.356C44.6692 20.2617 44.6692 21.7301 43.7635 22.6359L39.913 26.4864C39.0073 27.3921 37.5388 27.3921 36.6331 26.4864L32.7826 22.6359C31.8769 21.7301 31.8769 20.2617 32.7826 19.356L36.6331 15.5055Z" fill="#E9C1FF"/>
<path d="M35.0195 28.0411C35.9417 28.9633 35.9417 30.4585 35.0195 31.3807L31.2287 35.1715C30.3065 36.0937 28.8113 36.0937 27.8891 35.1715L24.0983 31.3807C23.1761 30.4585 23.1761 28.9633 24.0983 28.0411L27.8891 24.2503C28.8113 23.3281 30.3065 23.3281 31.2287 24.2503L35.0195 28.0411Z" fill="#CD88FF"/>
<path d="M26.3341 36.7855C27.2398 37.6912 27.2398 39.1596 26.3341 40.0653L22.4835 43.9159C21.5778 44.8216 20.1094 44.8216 19.2037 43.9159L15.3531 40.0653C14.4474 39.1596 14.4474 37.6912 15.3531 36.7855L19.2037 32.9349C20.1094 32.0292 21.5778 32.0292 22.4835 32.9349L26.3341 36.7855Z" fill="#A950FF"/>
<path d="M52.4488 28.0411C53.371 28.9633 53.371 30.4585 52.4488 31.3807L48.658 35.1715C47.7358 36.0937 46.2406 36.0937 45.3184 35.1715L41.5276 31.3807C40.6054 30.4585 40.6054 28.9633 41.5276 28.0411L45.3184 24.2503C46.2406 23.3281 47.7358 23.3281 48.658 24.2503L52.4488 28.0411Z" fill="#CD88FF"/>
<path d="M42.0038 52.9373C44.064 54.9976 44.064 58.338 42.0038 60.3982C39.9435 62.4585 36.6031 62.4585 34.5428 60.3982C32.4826 58.338 32.4826 54.9976 34.5428 52.9373C36.6031 50.877 39.9435 50.877 42.0038 52.9373Z" fill="#F62E76"/>
<defs>
<linearGradient id="paint0_linear_8293_7699" x1="12.0819" y1="14.6368" x2="75.2182" y2="77.6687" gradientUnits="userSpaceOnUse">
<stop offset="0.015625" stop-color="#B010FB"/>
<stop offset="0.130208" stop-color="#DE97FF"/>
<stop offset="0.234375" stop-color="#A227DB"/>
<stop offset="0.505208" stop-color="#A227DB" stop-opacity="0"/>
<stop offset="0.765625" stop-color="#A610EC" stop-opacity="0.84"/>
</linearGradient>
</defs>
</svg>
