<svg width="69" height="69" viewBox="0 0 69 69" fill="none" xmlns="http://www.w3.org/2000/svg">
<g filter="url(#filter0_d_8095_14877)">
<rect x="5.48145" y="3.25" width="59" height="59" rx="7.5" fill="#111113" stroke="url(#paint0_linear_8095_14877)"/>
<path d="M25.5889 21.6375L29.6139 25.645L27.1289 28.13L23.1214 24.105L19.1139 28.13L16.6289 25.645L20.6539 21.6375L16.6289 17.63L19.1139 15.145L23.1214 19.17L27.1289 15.145L29.6139 17.63M52.3639 40.38L49.8789 37.895L45.8714 41.92L41.8639 37.895L39.3789 40.38L43.4039 44.3875L39.3789 48.395L41.8639 50.88L45.8714 46.855L49.8789 50.88L52.3639 48.395L48.3389 44.3875M49.1964 23.965L43.5614 31.2625L40.7964 29.04L42.8439 26.415C40.2323 26.9455 37.7961 28.1243 35.7594 29.843C33.7228 31.5616 32.1511 33.7649 31.1889 36.25C32.7121 37.3484 33.7926 38.955 34.2356 40.78C34.6785 42.6049 34.4547 44.5281 33.6046 46.2025C32.7544 47.877 31.3338 49.1925 29.5991 49.9118C27.8644 50.6311 25.9298 50.7069 24.1442 50.1253C22.3585 49.5438 20.8395 48.3433 19.8611 46.7404C18.8826 45.1375 18.5092 43.2378 18.8082 41.3838C19.1071 39.5298 20.0588 37.8437 21.4914 36.6296C22.9241 35.4155 24.7435 34.7533 26.6214 34.7625C27.0799 34.7644 27.5371 34.8113 27.9864 34.9025C29.1988 31.8936 31.1347 29.2302 33.6226 27.1484C36.1104 25.0665 39.0734 23.6305 42.2489 22.9675L39.7464 21.0775L41.9689 18.3125M30.9964 42.6375C30.9964 41.7722 30.7398 40.9264 30.2591 40.2069C29.7784 39.4874 29.0951 38.9267 28.2956 38.5955C27.4962 38.2644 26.6166 38.1778 25.7679 38.3466C24.9192 38.5154 24.1397 38.9321 23.5278 39.5439C22.916 40.1558 22.4993 40.9353 22.3305 41.784C22.1617 42.6327 22.2483 43.5123 22.5794 44.3118C22.9106 45.1112 23.4713 45.7945 24.1908 46.2752C24.9103 46.7559 25.7561 47.0125 26.6214 47.0125C27.7817 47.0125 28.8945 46.5516 29.715 45.7311C30.5355 44.9106 30.9964 43.7978 30.9964 42.6375Z" fill="url(#paint1_linear_8095_14877)"/>
</g>
<defs>
<filter id="filter0_d_8095_14877" x="0.981445" y="0.541016" width="68" height="68.209" filterUnits="userSpaceOnUse" color-interpolation-filters="sRGB">
<feFlood flood-opacity="0" result="BackgroundImageFix"/>
<feColorMatrix in="SourceAlpha" type="matrix" values="0 0 0 0 0 0 0 0 0 0 0 0 0 0 0 0 0 0 127 0" result="hardAlpha"/>
<feOffset dy="2"/>
<feGaussianBlur stdDeviation="2"/>
<feComposite in2="hardAlpha" operator="out"/>
<feColorMatrix type="matrix" values="0 0 0 0 0 0 0 0 0 0 0 0 0 0 0 0 0 0 0.07 0"/>
<feBlend mode="normal" in2="BackgroundImageFix" result="effect1_dropShadow_8095_14877"/>
<feBlend mode="normal" in="SourceGraphic" in2="effect1_dropShadow_8095_14877" result="shape"/>
</filter>
<linearGradient id="paint0_linear_8095_14877" x1="14.0213" y1="13.8886" x2="63.9746" y2="63.7592" gradientUnits="userSpaceOnUse">
<stop offset="0.015625" stop-color="#B010FB"/>
<stop offset="0.130208" stop-color="#DE97FF"/>
<stop offset="0.234375" stop-color="#A227DB"/>
<stop offset="0.505208" stop-color="#A227DB" stop-opacity="0"/>
<stop offset="0.765625" stop-color="#A610EC" stop-opacity="0.84"/>
</linearGradient>
<linearGradient id="paint1_linear_8095_14877" x1="22.0129" y1="21.779" x2="51.7642" y2="51.4811" gradientUnits="userSpaceOnUse">
<stop offset="0.015625" stop-color="#F2D5FF"/>
<stop offset="1" stop-color="#CB5AFF"/>
</linearGradient>
</defs>
</svg>
