<svg width="746" height="650" viewBox="0 0 746 650" fill="none" xmlns="http://www.w3.org/2000/svg">
    <circle cx="452.705" cy="435.703" r="3.2877" fill="#856CF3"/>
    <circle cx="452.705" cy="454.49" r="3.2877" fill="#856CF3"/>
    <circle cx="452.705" cy="473.277" r="3.2877" fill="#856CF3"/>
    <circle cx="433.919" cy="492.064" r="3.2877" fill="#856CF3"/>
    <circle cx="509.066" cy="510.85" r="3.2877" fill="#856CF3"/>
    <circle cx="471.492" cy="529.637" r="3.2877" fill="#856CF3"/>
    <circle cx="433.919" cy="529.637" r="3.2877" fill="#856CF3"/>
    <circle cx="546.64" cy="454.49" r="3.2877" fill="#856CF3"/>
    <circle cx="546.64" cy="473.277" r="3.2877" fill="#856CF3"/>
    <circle cx="527.853" cy="492.064" r="3.2877" fill="#856CF3"/>
    <circle cx="603.001" cy="510.85" r="3.2877" fill="#856CF3"/>
    <circle cx="565.427" cy="529.637" r="3.2877" fill="#856CF3"/>
    <circle cx="490.279" cy="435.703" r="3.2877" fill="#856CF3"/>
    <circle cx="490.279" cy="454.49" r="3.2877" fill="#856CF3"/>
    <circle cx="490.279" cy="473.277" r="3.2877" fill="#856CF3"/>
    <circle cx="471.492" cy="492.064" r="3.2877" fill="#856CF3"/>
    <circle cx="546.64" cy="510.85" r="3.2877" fill="#856CF3"/>
    <circle cx="509.066" cy="529.637" r="3.2877" fill="#856CF3"/>
    <circle cx="584.214" cy="454.49" r="3.2877" fill="#856CF3"/>
    <circle cx="584.214" cy="473.277" r="3.2877" fill="#856CF3"/>
    <circle cx="565.427" cy="492.064" r="3.2877" fill="#856CF3"/>
    <circle cx="584.214" cy="492.064" r="3.2877" fill="#856CF3"/>
    <circle cx="603.001" cy="529.637" r="3.2877" fill="#856CF3"/>
    <circle cx="471.492" cy="435.703" r="3.2877" fill="#856CF3"/>
    <circle cx="471.492" cy="454.49" r="3.2877" fill="#856CF3"/>
    <circle cx="471.492" cy="473.277" r="3.2877" fill="#856CF3"/>
    <circle cx="452.705" cy="492.064" r="3.2877" fill="#856CF3"/>
    <circle cx="527.853" cy="510.85" r="3.2877" fill="#856CF3"/>
    <circle cx="490.279" cy="529.637" r="3.2877" fill="#856CF3"/>
    <circle cx="452.705" cy="529.637" r="3.2877" fill="#856CF3"/>
    <circle cx="565.427" cy="454.49" r="3.2877" fill="#856CF3"/>
    <circle cx="565.427" cy="473.277" r="3.2877" fill="#856CF3"/>
    <circle cx="546.64" cy="492.064" r="3.2877" fill="#856CF3"/>
    <circle cx="621.787" cy="510.85" r="3.2877" fill="#856CF3"/>
    <circle cx="584.214" cy="529.637" r="3.2877" fill="#856CF3"/>
    <circle cx="509.066" cy="435.703" r="3.2877" fill="#856CF3"/>
    <circle cx="509.066" cy="454.49" r="3.2877" fill="#856CF3"/>
    <circle cx="509.066" cy="473.277" r="3.2877" fill="#856CF3"/>
    <circle cx="490.279" cy="492.064" r="3.2877" fill="#856CF3"/>
    <circle cx="565.427" cy="510.85" r="3.2877" fill="#856CF3"/>
    <circle cx="527.853" cy="529.637" r="3.2877" fill="#856CF3"/>
    <circle cx="603.001" cy="454.49" r="3.2877" fill="#856CF3"/>
    <circle cx="527.853" cy="435.703" r="3.2877" fill="#856CF3"/>
    <circle cx="527.853" cy="454.49" r="3.2877" fill="#856CF3"/>
    <circle cx="527.853" cy="473.277" r="3.2877" fill="#856CF3"/>
    <circle cx="509.066" cy="492.064" r="3.2877" fill="#856CF3"/>
    <circle cx="584.214" cy="510.85" r="3.2877" fill="#856CF3"/>
    <circle cx="546.64" cy="529.637" r="3.2877" fill="#856CF3"/>
    <circle cx="311.622" cy="20.5831" r="3.2877" fill="#856CF3"/>
    <circle cx="311.622" cy="39.37" r="3.2877" fill="#856CF3"/>
    <circle cx="311.622" cy="58.1568" r="3.2877" fill="#856CF3"/>
    <circle cx="292.835" cy="76.9437" r="3.2877" fill="#856CF3"/>
    <circle cx="367.983" cy="95.7306" r="3.2877" fill="#856CF3"/>
    <circle cx="330.409" cy="114.517" r="3.2877" fill="#856CF3"/>
    <circle cx="292.835" cy="114.517" r="3.2877" fill="#856CF3"/>
    <circle cx="405.556" cy="39.37" r="3.2877" fill="#856CF3"/>
    <circle cx="405.556" cy="58.1568" r="3.2877" fill="#856CF3"/>
    <circle cx="386.77" cy="76.9437" r="3.2877" fill="#856CF3"/>
    <circle cx="461.917" cy="95.7306" r="3.2877" fill="#856CF3"/>
    <circle cx="424.343" cy="114.517" r="3.2877" fill="#856CF3"/>
    <circle cx="349.196" cy="20.5831" r="3.2877" fill="#856CF3"/>
    <circle cx="349.196" cy="39.37" r="3.2877" fill="#856CF3"/>
    <circle cx="349.196" cy="58.1568" r="3.2877" fill="#856CF3"/>
    <circle cx="330.409" cy="76.9437" r="3.2877" fill="#856CF3"/>
    <circle cx="405.556" cy="95.7306" r="3.2877" fill="#856CF3"/>
    <circle cx="367.983" cy="114.517" r="3.2877" fill="#856CF3"/>
    <circle cx="443.13" cy="39.37" r="3.2877" fill="#856CF3"/>
    <circle cx="443.13" cy="58.1568" r="3.2877" fill="#856CF3"/>
    <circle cx="424.343" cy="76.9437" r="3.2877" fill="#856CF3"/>
    <circle cx="443.13" cy="76.9437" r="3.2877" fill="#856CF3"/>
    <circle cx="461.917" cy="114.517" r="3.2877" fill="#856CF3"/>
    <circle cx="330.409" cy="20.5831" r="3.2877" fill="#856CF3"/>
    <circle cx="330.409" cy="39.37" r="3.2877" fill="#856CF3"/>
    <circle cx="330.409" cy="58.1568" r="3.2877" fill="#856CF3"/>
    <circle cx="311.622" cy="76.9437" r="3.2877" fill="#856CF3"/>
    <circle cx="386.77" cy="95.7306" r="3.2877" fill="#856CF3"/>
    <circle cx="349.196" cy="114.517" r="3.2877" fill="#856CF3"/>
    <circle cx="311.622" cy="114.517" r="3.2877" fill="#856CF3"/>
    <circle cx="424.343" cy="39.37" r="3.2877" fill="#856CF3"/>
    <circle cx="424.343" cy="58.1568" r="3.2877" fill="#856CF3"/>
    <circle cx="405.556" cy="76.9437" r="3.2877" fill="#856CF3"/>
    <circle cx="480.704" cy="95.7306" r="3.2877" fill="#856CF3"/>
    <circle cx="443.13" cy="114.517" r="3.2877" fill="#856CF3"/>
    <circle cx="367.983" cy="20.5831" r="3.2877" fill="#856CF3"/>
    <circle cx="367.983" cy="39.37" r="3.2877" fill="#856CF3"/>
    <circle cx="367.983" cy="58.1568" r="3.2877" fill="#856CF3"/>
    <circle cx="349.196" cy="76.9437" r="3.2877" fill="#856CF3"/>
    <circle cx="424.343" cy="95.7306" r="3.2877" fill="#856CF3"/>
    <circle cx="386.77" cy="114.517" r="3.2877" fill="#856CF3"/>
    <circle cx="461.917" cy="39.37" r="3.2877" fill="#856CF3"/>
    <circle cx="386.77" cy="20.5831" r="3.2877" fill="#856CF3"/>
    <circle cx="386.77" cy="39.37" r="3.2877" fill="#856CF3"/>
    <circle cx="386.77" cy="58.1568" r="3.2877" fill="#856CF3"/>
    <circle cx="367.983" cy="76.9437" r="3.2877" fill="#856CF3"/>
    <circle cx="443.13" cy="95.7306" r="3.2877" fill="#856CF3"/>
    <circle cx="405.556" cy="114.517" r="3.2877" fill="#856CF3"/>
    <g filter="url(#filter0_d_982_10473)">
        <rect x="207.095" y="229.257" width="104.527" height="104.527" rx="18.5826" fill="white"/>
    </g>
    <g filter="url(#filter1_d_982_10473)">
        <rect x="334.515" y="40.603" width="134.737" height="134.737" rx="23.9533" fill="white"/>
    </g>
    <g filter="url(#filter2_d_982_10473)">
        <rect x="98.8159" y="374.875" width="144.065" height="144.065" rx="39.5271" fill="white"/>
    </g>
    <g filter="url(#filter3_d_982_10473)">
        <rect x="284.178" y="370.543" width="66.6377" height="66.6377" rx="11.8467" fill="white"/>
    </g>
    <g filter="url(#filter4_d_982_10473)">
        <rect x="464.939" y="414.47" width="147.632" height="147.632" rx="19.5825" fill="white"/>
    </g>
    <g filter="url(#filter5_d_982_10473)">
        <rect x="63.5537" y="155.599" width="112.041" height="112.041" rx="19.9184" fill="white"/>
    </g>
    <path d="M146.632 178.359V244.461C146.632 246.104 145.301 247.48 143.614 247.48H124.835C123.193 247.48 121.816 246.148 121.816 244.461V178.359C121.816 176.717 123.148 175.34 124.835 175.34H143.614C145.256 175.385 146.632 176.717 146.632 178.359Z" fill="url(#paint0_linear_982_10473)"/>
    <path d="M131.982 196.427V247.524H107.166V196.427C107.166 194.785 108.498 193.409 110.185 193.409H128.964C130.606 193.409 131.982 194.74 131.982 196.427Z" fill="url(#paint1_linear_982_10473)"/>
    <path d="M92.5166 214.451V244.506C92.5166 246.148 93.8484 247.524 95.5354 247.524H117.333V214.451C117.333 212.809 116.001 211.432 114.314 211.432H95.5354C93.8928 211.432 92.5166 212.764 92.5166 214.451Z" fill="url(#paint2_linear_982_10473)"/>
    <path d="M281.433 279.772C282.03 280.15 282.531 280.488 283.056 280.805C284.781 281.816 286.512 282.817 288.249 283.809C289.463 284.498 290.274 285.456 290.503 286.909C290.81 288.832 289.299 290.933 287.38 291.143C286.412 291.272 285.429 291.075 284.584 290.582C280.492 288.17 276.367 285.759 272.241 283.382C270.911 282.614 270.113 281.539 270.018 279.989C269.916 278.369 270.7 277.174 272.002 276.375C274.287 274.979 276.616 273.663 278.927 272.317L284.263 269.216C284.945 268.817 285.627 268.424 286.462 268.379C287.289 268.328 288.109 268.547 288.804 269.003C289.498 269.458 290.029 270.127 290.319 270.911C290.949 272.654 290.281 274.435 288.713 275.465C287.69 276.154 286.592 276.73 285.528 277.353C284.335 278.042 283.142 278.731 281.945 279.441C281.801 279.493 281.672 279.603 281.433 279.772Z" fill="#32C0F0"/>
    <path d="M238.469 279.73C237.3 279.041 236.223 278.404 235.138 277.77C233.87 277.029 232.605 276.278 231.326 275.558C229.622 274.611 228.94 272.44 229.547 270.904C230.44 268.606 232.885 267.645 235.036 268.837C236.679 269.75 238.289 270.725 239.915 271.672C242.425 273.14 244.927 274.621 247.454 276.065C248.579 276.705 249.441 277.529 249.755 278.821C249.955 279.509 249.945 280.242 249.727 280.926C249.51 281.608 249.094 282.21 248.534 282.651C247.814 283.208 247.05 283.705 246.25 284.136C242.6 286.29 238.943 288.427 235.281 290.547C233.989 291.309 232.625 291.443 231.262 290.688C230.756 290.415 230.32 290.025 229.99 289.55C229.66 289.076 229.445 288.529 229.362 287.956C229.279 287.382 229.33 286.796 229.511 286.246C229.692 285.696 229.999 285.196 230.406 284.787C231.038 284.219 231.732 283.725 232.475 283.316C234.313 282.21 236.175 281.146 238.026 280.061C238.149 279.992 238.254 279.899 238.469 279.73Z" fill="#32C0F0"/>
    <path d="M249.052 261.179V260.094C249.052 257.607 249.052 255.116 249.052 252.629C249.06 251.655 249.429 250.72 250.086 250.008C250.743 249.295 251.641 248.857 252.601 248.781C254.343 248.681 256.556 249.956 256.607 252.491C256.642 254.386 256.607 256.281 256.607 258.182C256.607 261.352 256.607 264.521 256.607 267.69C256.632 268.543 256.372 269.38 255.867 270.064C255.363 270.749 254.645 271.242 253.829 271.463C253.305 271.608 252.757 271.645 252.219 271.571C251.681 271.498 251.162 271.316 250.695 271.035C247.968 269.444 245.25 267.864 242.543 266.295L238.203 263.766C237.525 263.406 236.957 262.867 236.559 262.206C236.124 261.475 235.946 260.618 236.053 259.772C236.16 258.926 236.546 258.141 237.149 257.545C237.748 256.943 238.528 256.559 239.366 256.454C240.204 256.35 241.053 256.53 241.779 256.966C243.031 257.676 244.261 258.427 245.503 259.15C246.641 259.794 247.78 260.438 249.052 261.179Z" fill="#32C0F0"/>
    <path d="M249.053 298.354L245.282 300.545C244.139 301.21 243.004 301.892 241.855 302.543C241.055 303.026 240.11 303.203 239.191 303.043C238.272 302.884 237.441 302.397 236.846 301.671C235.735 300.311 235.721 298.123 236.952 296.865C237.539 296.29 238.196 295.793 238.909 295.388C242.728 293.131 246.57 290.909 250.399 288.673C251.507 288.026 252.643 287.685 253.921 288.101C254.706 288.321 255.396 288.796 255.885 289.454C256.373 290.111 256.632 290.914 256.622 291.736C256.642 293.689 256.622 295.646 256.622 297.592C256.622 300.672 256.622 303.753 256.622 306.835C256.636 307.826 256.265 308.782 255.59 309.5C254.914 310.218 253.987 310.64 253.008 310.676C252.5 310.698 251.993 310.616 251.518 310.436C251.042 310.256 250.608 309.981 250.24 309.627C249.871 309.274 249.577 308.849 249.375 308.378C249.173 307.907 249.067 307.4 249.063 306.887C249.022 304.427 249.063 301.968 249.063 299.511L249.053 298.354Z" fill="#32C0F0"/>
    <path d="M270.894 261.127L273.734 259.481C275.132 258.672 276.528 257.859 277.921 257.042C278.869 256.487 279.875 256.201 280.956 256.521C282.609 257.007 283.619 258.13 283.833 259.856C284.024 261.417 283.308 262.612 282.054 263.47C281.058 264.159 279.991 264.714 278.951 265.32C275.729 267.201 272.497 269.064 269.285 270.963C267.58 271.965 265.425 271.734 264.171 270.198C263.626 269.567 263.319 268.762 263.305 267.924C263.305 262.798 263.305 257.672 263.305 252.549C263.31 251.696 263.598 250.87 264.123 250.202C264.648 249.534 265.38 249.063 266.201 248.865C267.022 248.666 267.885 248.752 268.653 249.108C269.42 249.463 270.047 250.069 270.434 250.827C270.702 251.416 270.843 252.056 270.847 252.704C270.894 255.116 270.867 257.503 270.867 259.904L270.894 261.127Z" fill="#32C0F0"/>
    <path d="M270.893 298.492V306.835C270.89 307.833 270.5 308.791 269.807 309.502C269.114 310.213 268.173 310.622 267.185 310.642C266.198 310.661 265.242 310.289 264.522 309.605C263.802 308.922 263.376 307.981 263.334 306.984C263.28 305.606 263.334 304.197 263.334 302.805C263.334 299.126 263.334 295.446 263.334 291.781C263.325 291.26 263.422 290.742 263.621 290.26C263.82 289.779 264.116 289.345 264.49 288.986C264.863 288.626 265.307 288.349 265.793 288.172C266.278 287.995 266.795 287.922 267.31 287.957C267.952 288.005 268.576 288.192 269.141 288.505C273.324 290.916 277.48 293.349 281.647 295.777C282.223 296.076 282.721 296.509 283.099 297.04C283.477 297.572 283.725 298.186 283.822 298.833C284.133 300.789 282.557 302.894 280.597 303.067C279.598 303.163 278.595 302.929 277.74 302.398C275.694 301.168 273.648 299.987 271.575 298.785C271.354 298.674 271.126 298.576 270.893 298.492Z" fill="#32C0F0"/>
    <path d="M266.99 279.758C267.144 280.589 266.779 281.174 266.216 281.729C264.747 283.172 263.311 284.654 261.856 286.118C261.611 286.37 261.319 286.57 260.997 286.707C260.675 286.844 260.33 286.914 259.98 286.914C259.631 286.914 259.285 286.844 258.963 286.707C258.641 286.57 258.35 286.37 258.105 286.118C256.607 284.616 255.115 283.114 253.628 281.612C253.14 281.117 252.864 280.449 252.861 279.751C252.857 279.052 253.125 278.381 253.608 277.881C255.115 276.349 256.628 274.821 258.146 273.296C258.634 272.823 259.282 272.558 259.958 272.554C260.634 272.551 261.285 272.81 261.777 273.278C263.253 274.756 264.702 276.269 266.21 277.726C266.793 278.305 267.151 278.921 266.99 279.758ZM260.011 277.213C259.796 277.264 259.59 277.349 259.401 277.464C258.815 277.995 258.258 278.559 257.733 279.152C257.393 279.562 257.43 280 257.808 280.441C258.251 280.951 258.725 281.433 259.227 281.884C259.32 281.992 259.434 282.079 259.563 282.138C259.692 282.197 259.832 282.228 259.973 282.228C260.115 282.228 260.255 282.197 260.384 282.138C260.513 282.079 260.627 281.992 260.72 281.884C261.204 281.454 261.659 280.994 262.084 280.506C262.561 279.958 262.548 279.49 262.053 278.932C261.644 278.47 261.208 278.033 260.747 277.623C260.519 277.457 260.272 277.32 260.011 277.213Z" fill="#32C0F0"/>
    <path d="M306.159 404.128C306.159 404.755 306.227 405.262 306.345 405.635C306.481 406.007 306.65 406.413 306.887 406.853C306.972 406.989 307.006 407.124 307.006 407.242C307.006 407.412 306.904 407.581 306.684 407.75L305.618 408.461C305.465 408.563 305.313 408.613 305.178 408.613C305.008 408.613 304.839 408.529 304.67 408.376C304.433 408.123 304.23 407.852 304.061 407.581C303.891 407.293 303.722 406.972 303.536 406.582C302.216 408.139 300.557 408.918 298.56 408.918C297.139 408.918 296.005 408.512 295.175 407.699C294.346 406.887 293.923 405.804 293.923 404.45C293.923 403.011 294.431 401.844 295.463 400.963C296.495 400.083 297.866 399.643 299.61 399.643C300.185 399.643 300.777 399.694 301.404 399.779C302.03 399.863 302.673 399.999 303.35 400.151V398.916C303.35 397.629 303.079 396.732 302.554 396.208C302.013 395.683 301.099 395.429 299.796 395.429C299.203 395.429 298.594 395.497 297.968 395.649C297.342 395.802 296.732 395.988 296.14 396.225C295.869 396.343 295.666 396.411 295.548 396.445C295.429 396.478 295.345 396.495 295.277 396.495C295.04 396.495 294.921 396.326 294.921 395.971V395.141C294.921 394.871 294.955 394.668 295.04 394.549C295.125 394.431 295.277 394.312 295.514 394.194C296.106 393.889 296.817 393.635 297.646 393.432C298.476 393.212 299.356 393.111 300.287 393.111C302.301 393.111 303.773 393.567 304.721 394.481C305.652 395.395 306.125 396.783 306.125 398.645V404.128H306.159ZM299.288 406.701C299.846 406.701 300.422 406.599 301.031 406.396C301.64 406.193 302.182 405.821 302.639 405.313C302.91 404.991 303.113 404.636 303.214 404.23C303.316 403.824 303.384 403.333 303.384 402.757V402.047C302.893 401.928 302.368 401.827 301.827 401.759C301.285 401.691 300.76 401.657 300.236 401.657C299.102 401.657 298.272 401.877 297.714 402.334C297.155 402.791 296.885 403.434 296.885 404.281C296.885 405.076 297.088 405.668 297.511 406.075C297.917 406.498 298.509 406.701 299.288 406.701ZM312.878 408.529C312.574 408.529 312.371 408.478 312.235 408.359C312.1 408.258 311.981 408.021 311.88 407.699L307.903 394.617C307.801 394.278 307.75 394.058 307.75 393.94C307.75 393.669 307.886 393.517 308.156 393.517H309.815C310.137 393.517 310.357 393.567 310.475 393.686C310.61 393.787 310.712 394.024 310.814 394.346L313.657 405.55L316.297 394.346C316.382 394.008 316.483 393.787 316.619 393.686C316.754 393.584 316.991 393.517 317.296 393.517H318.65C318.971 393.517 319.191 393.567 319.327 393.686C319.462 393.787 319.58 394.024 319.648 394.346L322.322 405.685L325.25 394.346C325.352 394.008 325.47 393.787 325.589 393.686C325.724 393.584 325.944 393.517 326.249 393.517H327.823C328.093 393.517 328.246 393.652 328.246 393.94C328.246 394.024 328.229 394.109 328.212 394.211C328.195 394.312 328.161 394.448 328.093 394.634L324.015 407.716C323.913 408.055 323.795 408.275 323.659 408.376C323.524 408.478 323.304 408.546 323.016 408.546H321.561C321.239 408.546 321.019 408.495 320.884 408.376C320.748 408.258 320.63 408.038 320.562 407.699L317.939 396.783L315.332 407.682C315.248 408.021 315.146 408.241 315.011 408.359C314.875 408.478 314.638 408.529 314.334 408.529H312.878ZM334.626 408.986C333.746 408.986 332.866 408.884 332.02 408.681C331.174 408.478 330.514 408.258 330.074 408.004C329.803 407.852 329.617 407.682 329.549 407.53C329.481 407.378 329.447 407.209 329.447 407.056V406.193C329.447 405.838 329.583 405.668 329.837 405.668C329.938 405.668 330.04 405.685 330.141 405.719C330.243 405.753 330.395 405.821 330.564 405.888C331.14 406.142 331.766 406.345 332.426 406.481C333.103 406.616 333.763 406.684 334.44 406.684C335.506 406.684 336.336 406.498 336.911 406.125C337.486 405.753 337.791 405.212 337.791 404.518C337.791 404.044 337.639 403.654 337.334 403.333C337.03 403.011 336.454 402.724 335.625 402.453L333.171 401.691C331.935 401.302 331.021 400.727 330.463 399.965C329.904 399.22 329.617 398.391 329.617 397.511C329.617 396.8 329.769 396.174 330.074 395.632C330.378 395.091 330.784 394.617 331.292 394.244C331.8 393.855 332.375 393.567 333.052 393.364C333.729 393.161 334.44 393.077 335.185 393.077C335.557 393.077 335.946 393.094 336.319 393.144C336.708 393.195 337.063 393.263 337.419 393.331C337.757 393.415 338.079 393.5 338.383 393.601C338.688 393.703 338.925 393.804 339.094 393.906C339.331 394.041 339.501 394.177 339.602 394.329C339.704 394.464 339.754 394.651 339.754 394.888V395.683C339.754 396.038 339.619 396.225 339.365 396.225C339.23 396.225 339.01 396.157 338.722 396.022C337.757 395.581 336.674 395.361 335.472 395.361C334.508 395.361 333.746 395.514 333.222 395.835C332.697 396.157 332.426 396.648 332.426 397.342C332.426 397.816 332.595 398.222 332.934 398.543C333.272 398.865 333.899 399.186 334.796 399.474L337.199 400.236C338.417 400.625 339.297 401.167 339.822 401.86C340.347 402.554 340.601 403.35 340.601 404.23C340.601 404.958 340.448 405.618 340.161 406.193C339.856 406.769 339.45 407.276 338.925 407.682C338.4 408.106 337.774 408.41 337.046 408.63C336.285 408.867 335.489 408.986 334.626 408.986Z" fill="#252F3E"/>
    <path fill-rule="evenodd" clip-rule="evenodd" d="M337.825 417.211C332.257 421.324 324.167 423.507 317.211 423.507C307.462 423.507 298.679 419.902 292.044 413.911C291.52 413.437 291.994 412.794 292.62 413.166C299.796 417.329 308.647 419.851 317.803 419.851C323.981 419.851 330.767 418.565 337.013 415.925C337.943 415.502 338.739 416.534 337.825 417.211Z" fill="#FF9900"/>
    <path fill-rule="evenodd" clip-rule="evenodd" d="M340.144 414.571C339.433 413.657 335.439 414.131 333.628 414.351C333.086 414.418 333.002 413.945 333.492 413.589C336.674 411.355 341.904 411.998 342.513 412.743C343.122 413.505 342.344 418.734 339.365 421.239C338.908 421.628 338.468 421.425 338.671 420.917C339.348 419.242 340.854 415.468 340.144 414.571Z" fill="#FF9900"/>
    <path d="M430.123 99.9516C434.004 99.9516 437.15 96.8052 437.15 92.9239C437.15 89.0425 434.004 85.8961 430.123 85.8961C426.241 85.8961 423.095 89.0425 423.095 92.9239C423.095 96.8052 426.241 99.9516 430.123 99.9516Z" fill="#669DF6"/>
    <path d="M373.165 99.9516C377.046 99.9516 380.193 96.8052 380.193 92.9239C380.193 89.0425 377.046 85.8961 373.165 85.8961C369.284 85.8961 366.137 89.0425 366.137 92.9239C366.137 96.8052 369.284 99.9516 373.165 99.9516Z" fill="#669DF6"/>
    <path d="M401.644 149.269C405.525 149.269 408.672 146.122 408.672 142.241C408.672 138.36 405.525 135.213 401.644 135.213C397.762 135.213 394.616 138.36 394.616 142.241C394.616 146.122 397.762 149.269 401.644 149.269Z" fill="#669DF6"/>
    <path d="M403.447 106.27L400.199 111.922L428.779 128.348L432.028 122.696L403.447 106.27Z" fill="#4285F4"/>
    <path d="M399.994 106.583L371.545 123.009L374.793 128.635L403.243 112.209L399.994 106.583Z" fill="#4285F4"/>
    <path d="M404.872 76.4985H398.375V109.349H404.872V76.4985Z" fill="#4285F4"/>
    <path d="M401.644 120.708C407.917 120.708 413.003 115.623 413.003 109.349C413.003 103.076 407.917 97.9904 401.644 97.9904C395.371 97.9904 390.285 103.076 390.285 109.349C390.285 115.623 395.371 120.708 401.644 120.708Z" fill="#AECBFA"/>
    <path d="M373.165 134.723C378.107 134.723 382.113 130.717 382.113 125.775C382.113 120.833 378.107 116.826 373.165 116.826C368.223 116.826 364.217 120.833 364.217 125.775C364.217 130.717 368.223 134.723 373.165 134.723Z" fill="#AECBFA"/>
    <path d="M430.123 134.723C435.065 134.723 439.071 130.717 439.071 125.775C439.071 120.833 435.065 116.826 430.123 116.826C425.181 116.826 421.175 120.833 421.175 125.775C421.175 130.717 425.181 134.723 430.123 134.723Z" fill="#AECBFA"/>
    <path d="M401.644 85.4466C406.586 85.4466 410.592 81.4404 410.592 76.4985C410.592 71.5565 406.586 67.5503 401.644 67.5503C396.702 67.5503 392.696 71.5565 392.696 76.4985C392.696 81.4404 396.702 85.4466 401.644 85.4466Z" fill="#AECBFA"/>
    <path d="M181.362 447.471H189.649C190.296 447.471 190.944 446.953 190.944 446.176C190.944 446.047 190.944 445.788 190.814 445.658L176.572 406.815C176.313 406.427 175.924 406.038 175.406 406.038H167.12C166.472 406.038 165.825 406.556 165.825 407.333C165.825 407.462 165.825 407.592 165.955 407.721L180.327 446.824C180.456 447.212 180.845 447.471 181.362 447.471Z" fill="#0073FF"/>
    <path d="M179.938 488.904H188.225C188.872 488.904 189.52 488.386 189.52 487.609C189.52 487.48 189.52 487.35 189.39 487.221L159.869 406.815C159.74 406.427 159.222 406.038 158.704 406.038H150.417C149.77 406.038 149.122 406.556 149.122 407.333C149.122 407.462 149.122 407.592 149.252 407.721L178.773 488.127C178.902 488.645 179.42 488.904 179.938 488.904Z" fill="#0073FF"/>
    <path d="M163.494 488.904H171.781C172.428 488.904 172.946 488.386 173.076 487.739C173.076 487.609 173.076 487.35 172.946 487.221L158.574 448.248C158.445 447.73 157.927 447.471 157.409 447.471H148.993C148.346 447.471 147.828 448.118 147.828 448.766C147.828 448.895 147.828 449.025 147.957 449.154L162.2 488.127C162.588 488.645 162.977 488.904 163.494 488.904Z" fill="#0073FF"/>
    <path d="M182.398 407.721L189.131 425.978C189.261 426.496 189.779 426.755 190.296 426.755H198.454C199.101 426.755 199.748 426.237 199.748 425.46C199.748 425.33 199.748 425.201 199.619 425.071L192.886 406.815C192.757 406.427 192.368 406.038 191.85 406.038H183.564C182.916 406.038 182.269 406.556 182.269 407.333C182.269 407.462 182.269 407.592 182.398 407.721Z" fill="#0073FF"/>
    <path d="M148.216 488.904H156.503C157.15 488.904 157.797 488.386 157.797 487.609C157.797 487.48 157.797 487.35 157.668 487.221L150.935 468.964C150.806 468.446 150.288 468.187 149.77 468.187H141.483C140.836 468.187 140.188 468.705 140.188 469.482C140.188 469.612 140.188 469.741 140.318 469.871L147.051 488.127C147.18 488.645 147.698 488.904 148.216 488.904Z" fill="#0073FF"/>
    <path d="M569.217 453.7C568.405 453.139 567.492 452.743 566.531 452.532C565.545 452.313 564.528 452.273 563.528 452.415C562.48 452.562 561.464 452.889 560.525 453.379L556.141 455.819L551.749 458.255L547.352 460.69L542.959 463.147C542.007 463.709 540.987 464.145 539.925 464.445C538.897 464.746 537.834 464.903 536.764 464.912C535.696 464.926 534.63 464.793 533.598 464.519C532.532 464.234 531.508 463.809 530.552 463.256L526.292 460.92L522.032 458.584L517.773 456.256L513.508 453.92C511.929 452.904 510.04 452.493 508.185 452.765C506.474 453.034 504.887 453.83 503.642 455.045C502.388 456.244 501.534 457.807 501.201 459.518C500.859 461.372 501.196 463.29 502.15 464.912L503.642 467.672L506.933 473.729L510.224 479.785L511.721 482.545C512.277 483.494 512.709 484.512 513.007 485.573C513.289 486.61 513.434 487.681 513.436 488.757C513.434 489.835 513.29 490.909 513.007 491.949C512.742 493.044 512.334 494.099 511.793 495.085L509.455 499.485L507.113 503.871L504.771 508.253L502.428 512.64C502.035 513.359 501.732 514.124 501.527 514.919C501.334 515.67 501.248 516.445 501.271 517.221C501.299 517.982 501.444 518.735 501.7 519.453C501.958 520.205 502.331 520.912 502.806 521.547C503.385 522.349 504.105 523.038 504.93 523.58C505.75 524.129 506.658 524.529 507.614 524.761C508.596 525.004 509.613 525.069 510.617 524.955C511.665 524.834 512.683 524.522 513.62 524.034L518.181 521.512L522.736 518.994L527.292 516.473L531.848 513.95C530.478 512.958 529.211 511.828 528.068 510.576C526.922 509.319 525.873 507.977 524.925 506.562C523.968 505.143 523.092 503.663 522.282 502.158C521.557 500.817 520.884 499.459 520.236 498.109C521.381 500.272 523.847 502.569 527.052 504.875C530.949 507.579 535.012 510.036 539.214 512.229C543.633 514.599 548.167 516.84 552.083 518.821C556 520.803 559.32 522.52 561.289 523.831C562.878 524.779 564.767 525.08 566.569 524.67C568.24 524.251 569.741 523.316 570.86 521.997C572.032 520.658 572.793 519.005 573.052 517.238C573.321 515.371 572.939 513.467 571.97 511.852L569.277 506.938L563.379 496.123L557.479 485.309L554.815 480.451C554.244 479.482 553.625 478.544 552.958 477.639C552.296 476.752 551.58 475.906 550.813 475.108C550.052 474.314 549.238 473.572 548.377 472.889C547.501 472.194 546.575 471.566 545.605 471.012C547.111 471.704 548.642 472.422 550.144 473.196C551.657 473.965 553.129 474.813 554.554 475.736C555.977 476.655 557.326 477.688 558.587 478.824C559.858 479.979 561.002 481.27 561.997 482.674L564.42 478.201L566.845 473.729L569.277 469.247L571.701 464.774C572.105 464.101 572.409 463.373 572.602 462.611C572.794 461.855 572.88 461.076 572.858 460.296C572.829 459.509 572.685 458.731 572.429 457.987C572.17 457.225 571.792 456.509 571.31 455.867C570.76 455.013 570.049 454.276 569.217 453.7ZM513.002 516.355C513.065 517.27 512.736 518.168 512.098 518.821C511.461 519.475 510.577 519.821 509.669 519.773C507.814 519.789 506.298 518.284 506.282 516.414C506.267 514.543 507.759 513.014 509.614 512.999C510.521 512.934 511.41 513.265 512.058 513.907C512.707 514.549 513.05 515.44 513.002 516.355ZM506.358 461.119C506.295 460.204 506.625 459.307 507.262 458.653C507.899 458 508.784 457.653 509.691 457.701C510.598 457.638 511.487 457.97 512.135 458.612C512.783 459.255 513.128 460.147 513.081 461.062C513.143 461.977 512.814 462.874 512.176 463.528C511.539 464.181 510.655 464.528 509.747 464.48C508.84 464.543 507.95 464.211 507.302 463.568C506.654 462.926 506.31 462.034 506.358 461.119ZM567.823 516.252C567.837 517.624 567.028 518.87 565.776 519.407C564.523 519.944 563.074 519.668 562.103 518.706C561.132 517.744 560.831 516.287 561.342 515.015C561.852 513.742 563.072 512.906 564.433 512.895C565.34 512.831 566.229 513.161 566.877 513.803C567.526 514.445 567.871 515.337 567.823 516.252ZM545.086 487.454C544.095 485.819 542.461 485.179 540.5 485.201C537.823 485.291 535.454 486.978 534.475 489.493C533.496 492.008 534.094 494.869 535.996 496.772C533.871 496.499 531.943 495.379 530.643 493.663C529.343 491.946 528.778 489.775 529.077 487.636C529.707 483.349 533.933 480.018 538.18 480.619C541.775 481.234 544.73 483.834 545.086 487.454ZM568.063 460.833C568.017 462.66 566.542 464.121 564.73 464.138C562.918 464.154 561.419 462.719 561.34 460.894C561.387 459.067 562.86 457.605 564.672 457.589C566.484 457.573 567.984 459.007 568.063 460.833Z" fill="#FF694B"/>
    <g filter="url(#filter6_d_982_10473)">
        <rect x="588.593" y="256.862" width="109.045" height="109.045" rx="19.3859" fill="white"/>
    </g>
    <g filter="url(#filter7_d_982_10473)">
        <rect x="534.807" y="107.732" width="121.525" height="121.525" rx="21.6044" fill="white"/>
    </g>
    <path d="M504.064 187.079C504.064 184.134 501.676 181.746 498.731 181.746C495.785 181.746 493.398 184.134 493.398 187.079C493.398 190.025 495.785 192.412 498.731 192.412C501.676 192.412 504.064 190.025 504.064 187.079ZM498.731 113.291H499.731V112.291H498.731V113.291ZM474.586 113.291C474.586 110.345 472.198 107.957 469.252 107.957C466.307 107.957 463.919 110.345 463.919 113.291C463.919 116.236 466.307 118.624 469.252 118.624C472.198 118.624 474.586 116.236 474.586 113.291ZM499.731 187.079V113.291H497.731V187.079H499.731ZM498.731 112.291H469.252V114.291H498.731V112.291Z" fill="#A38EFD"/>
    <path d="M353.516 281.756C353.516 278.811 351.128 276.423 348.183 276.423C345.237 276.423 342.849 278.811 342.849 281.756C342.849 284.702 345.237 287.089 348.183 287.089C351.128 287.089 353.516 284.702 353.516 281.756ZM348.183 207.968H349.183V206.968H348.183V207.968ZM180.928 207.968C180.928 205.022 178.54 202.634 175.595 202.634C172.649 202.634 170.261 205.022 170.261 207.968C170.261 210.913 172.649 213.301 175.595 213.301C178.54 213.301 180.928 210.913 180.928 207.968ZM349.183 281.756V207.968H347.183V281.756H349.183ZM348.183 206.968H175.595V208.968H348.183V206.968Z" fill="#A38EFD"/>
    <g style="mix-blend-mode:overlay" opacity="0.4" filter="url(#filter8_f_982_10473)">
        <circle cx="350.978" cy="146.48" r="40.5986" fill="white"/>
    </g>
    <path fill-rule="evenodd" clip-rule="evenodd" d="M632.336 286.905C638.791 279.649 649.479 277.52 658.267 281.708C669.942 287.274 674.202 301.451 667.845 312.387L653.545 336.961C652.746 338.334 651.431 339.336 649.889 339.747C648.347 340.157 646.704 339.943 645.321 339.151L662.633 309.394C667.245 301.457 664.16 291.169 655.696 287.118C649.345 284.079 641.58 285.597 636.888 290.824C634.3 293.693 632.847 297.398 632.799 301.251C632.75 305.104 634.11 308.843 636.625 311.776C637.077 312.302 637.563 312.798 638.081 313.261L627.974 330.664C627.579 331.344 627.052 331.941 626.425 332.419C625.798 332.897 625.082 333.248 624.319 333.451C623.555 333.655 622.759 333.707 621.975 333.604C621.191 333.502 620.435 333.247 619.75 332.854L630.722 313.96C629.146 311.703 628.015 309.169 627.387 306.493L620.663 318.094C619.864 319.467 618.549 320.469 617.007 320.88C615.465 321.291 613.822 321.077 612.438 320.285L629.826 290.36C630.549 289.131 631.39 287.974 632.336 286.905ZM652.404 296.43C656.591 298.833 658.038 304.176 655.615 308.335L638.942 336.958C638.142 338.331 636.827 339.333 635.285 339.743C633.743 340.154 632.1 339.94 630.717 339.148L646.199 312.5C644.956 312.241 643.786 311.716 642.767 310.963C641.749 310.21 640.908 309.246 640.301 308.138C639.694 307.03 639.336 305.805 639.252 304.546C639.168 303.288 639.36 302.026 639.815 300.849C640.27 299.671 640.976 298.606 641.886 297.726C642.796 296.846 643.886 296.173 645.083 295.753C646.28 295.332 647.555 295.175 648.819 295.292C650.083 295.409 651.306 295.797 652.404 296.43ZM646.339 301.809C646.053 302.027 645.812 302.3 645.632 302.611C645.36 303.079 645.233 303.617 645.268 304.156C645.304 304.696 645.5 305.213 645.831 305.642C646.163 306.07 646.614 306.392 647.13 306.566C647.645 306.74 648.2 306.758 648.726 306.618C649.252 306.478 649.724 306.186 650.082 305.78C650.441 305.373 650.67 304.87 650.741 304.334C650.812 303.798 650.722 303.253 650.481 302.768C650.241 302.283 649.861 301.88 649.39 301.61C649.077 301.43 648.731 301.314 648.373 301.267C648.015 301.22 647.651 301.244 647.302 301.337C646.953 301.43 646.626 301.59 646.339 301.809Z" fill="#615EFF"/>
    <path d="M611.753 136.96H579.386C578.049 136.96 576.816 137.666 576.149 138.815L559.965 166.637C559.298 167.785 559.298 169.199 559.965 170.347L576.149 198.17C576.816 199.318 578.051 200.024 579.386 200.024H611.753C613.089 200.024 614.323 199.318 614.99 198.17L631.174 170.347C631.841 169.199 631.841 167.785 631.174 166.637L614.99 138.815C614.323 137.666 613.089 136.96 611.753 136.96Z" fill="#2979FF"/>
    <path d="M610.52 188.895H580.619C579.588 188.895 578.75 188.064 578.75 187.04V149.944C578.75 148.92 579.588 148.089 580.619 148.089H604.913L612.388 155.508V187.04C612.388 188.064 611.551 188.895 610.52 188.895Z" fill="white"/>
    <path d="M604.913 148.089V153.653C604.913 154.677 605.751 155.508 606.782 155.508H612.388L604.913 148.089Z" fill="#B1CFFF"/>
    <path d="M592.327 168.179H589.832V160.294L587.38 161.004V159.129L592.097 157.51H592.325L592.327 168.179ZM604.356 163.818C604.356 164.589 604.265 165.257 604.084 165.823C603.902 166.385 603.646 166.854 603.316 167.225C602.987 167.596 602.592 167.873 602.134 168.052C601.677 168.232 601.172 168.323 600.621 168.323C600.064 168.323 599.556 168.232 599.096 168.052C598.636 167.873 598.242 167.596 597.913 167.225C597.584 166.854 597.324 166.385 597.141 165.823C596.956 165.257 596.866 164.589 596.866 163.818V161.868C596.866 161.102 596.958 160.435 597.139 159.869C597.32 159.303 597.576 158.834 597.907 158.463C598.236 158.092 598.63 157.816 599.088 157.636C599.542 157.454 600.049 157.363 600.606 157.363C601.157 157.363 601.662 157.454 602.121 157.634C602.581 157.814 602.977 158.09 603.308 158.461C603.637 158.832 603.893 159.301 604.078 159.867C604.263 160.433 604.356 161.101 604.356 161.867V163.818ZM601.867 161.555C601.867 161.13 601.837 160.774 601.779 160.481C601.72 160.193 601.637 159.956 601.529 159.774C601.421 159.594 601.288 159.465 601.133 159.387C600.978 159.309 600.804 159.27 600.606 159.27C600.41 159.27 600.232 159.309 600.077 159.387C599.922 159.465 599.791 159.594 599.686 159.774C599.58 159.954 599.499 160.192 599.443 160.481C599.387 160.774 599.359 161.13 599.359 161.555V164.12C599.359 164.554 599.385 164.92 599.443 165.213C599.499 165.506 599.584 165.743 599.692 165.919C599.8 166.099 599.933 166.227 600.09 166.305C600.247 166.383 600.425 166.422 600.621 166.422C600.813 166.422 600.985 166.383 601.14 166.305C601.295 166.227 601.428 166.099 601.536 165.919C601.645 165.743 601.725 165.506 601.783 165.213C601.839 164.92 601.869 164.556 601.869 164.12L601.867 161.555ZM594.276 178.825C594.276 179.597 594.185 180.265 594.003 180.83C593.822 181.392 593.566 181.862 593.235 182.233C592.906 182.604 592.512 182.88 592.054 183.06C591.596 183.24 591.092 183.331 590.54 183.331C589.984 183.331 589.475 183.24 589.016 183.06C588.556 182.88 588.162 182.604 587.833 182.233C587.504 181.862 587.244 181.392 587.061 180.83C586.876 180.265 586.786 179.597 586.786 178.825V176.876C586.786 176.11 586.878 175.442 587.059 174.876C587.24 174.311 587.496 173.841 587.827 173.47C588.156 173.099 588.55 172.823 589.008 172.643C589.466 172.463 589.972 172.372 590.529 172.372C591.081 172.372 591.585 172.463 592.045 172.643C592.505 172.823 592.901 173.099 593.232 173.47C593.56 173.841 593.816 174.311 594.001 174.876C594.186 175.442 594.28 176.11 594.28 176.876V178.825H594.276ZM591.789 176.561C591.789 176.136 591.759 175.78 591.701 175.487C591.641 175.199 591.559 174.962 591.451 174.78C591.342 174.6 591.21 174.47 591.054 174.392C590.899 174.314 590.725 174.275 590.527 174.275C590.329 174.275 590.154 174.314 589.999 174.392C589.843 174.47 589.713 174.6 589.608 174.78C589.501 174.96 589.421 175.197 589.365 175.487C589.309 175.78 589.281 176.136 589.281 176.561V179.126C589.281 179.56 589.307 179.925 589.365 180.218C589.421 180.511 589.505 180.749 589.614 180.925C589.722 181.105 589.855 181.233 590.012 181.311C590.169 181.389 590.346 181.428 590.542 181.428C590.735 181.428 590.907 181.389 591.062 181.311C591.217 181.233 591.35 181.105 591.458 180.925C591.566 180.749 591.647 180.511 591.705 180.218C591.761 179.925 591.791 179.562 591.791 179.126V176.561H591.789ZM602.407 183.184H599.912V175.299L597.461 176.01V174.134L602.177 172.515H602.405L602.407 183.184Z" fill="#03A9F4"/>
    <path d="M416.893 249.949C416.893 247.003 419.281 244.616 422.227 244.616C425.172 244.616 427.56 247.003 427.56 249.949C427.56 252.894 425.172 255.282 422.227 255.282C419.281 255.282 416.893 252.894 416.893 249.949ZM422.227 187.079H421.227V186.079H422.227V187.079ZM529.474 187.079C529.474 184.134 531.862 181.746 534.807 181.746C537.753 181.746 540.14 184.134 540.14 187.079C540.14 190.025 537.753 192.412 534.807 192.412C531.862 192.412 529.474 190.025 529.474 187.079ZM421.227 249.949V248.74H423.227V249.949H421.227ZM421.227 246.322V243.904H423.227V246.322H421.227ZM421.227 241.486V239.068H423.227V241.486H421.227ZM421.227 236.65V234.232H423.227V236.65H421.227ZM421.227 231.813V229.395H423.227V231.813H421.227ZM421.227 226.977V224.559H423.227V226.977H421.227ZM421.227 222.141V219.723H423.227V222.141H421.227ZM421.227 217.305V214.887H423.227V217.305H421.227ZM421.227 212.469V210.051H423.227V212.469H421.227ZM421.227 207.633V205.215H423.227V207.633H421.227ZM421.227 202.797V200.379H423.227V202.797H421.227ZM421.227 197.96V195.542H423.227V197.96H421.227ZM421.227 193.124V190.706H423.227V193.124H421.227ZM421.227 188.288V187.079H423.227V188.288H421.227ZM422.227 186.079H423.45V188.079H422.227V186.079ZM425.898 186.079H428.345V188.079H425.898V186.079ZM430.792 186.079H433.24V188.079H430.792V186.079ZM435.687 186.079H438.135V188.079H435.687V186.079ZM440.582 186.079H443.029V188.079H440.582V186.079ZM445.477 186.079H447.924V188.079H445.477V186.079ZM450.372 186.079H452.819V188.079H450.372V186.079ZM455.267 186.079H457.714V188.079H455.267V186.079ZM460.161 186.079H462.609V188.079H460.161V186.079ZM465.056 186.079H467.504V188.079H465.056V186.079ZM469.951 186.079H472.398V188.079H469.951V186.079ZM474.846 186.079H477.293V188.079H474.846V186.079ZM479.741 186.079H482.188V188.079H479.741V186.079ZM484.635 186.079H487.083V188.079H484.635V186.079ZM489.53 186.079H491.978V188.079H489.53V186.079ZM494.425 186.079H496.872V188.079H494.425V186.079ZM499.32 186.079H501.767V188.079H499.32V186.079ZM504.215 186.079H506.662V188.079H504.215V186.079ZM509.109 186.079H511.557V188.079H509.109V186.079ZM514.004 186.079H516.452V188.079H514.004V186.079ZM518.899 186.079H521.346V188.079H518.899V186.079ZM523.794 186.079H526.241V188.079H523.794V186.079ZM528.689 186.079H531.136V188.079H528.689V186.079ZM533.583 186.079H534.807V188.079H533.583V186.079Z" fill="#A38EFD"/>
    <path d="M474.233 324.401C477.179 324.401 479.567 326.788 479.567 329.734C479.567 332.679 477.179 335.067 474.233 335.067C471.288 335.067 468.9 332.679 468.9 329.734C468.9 326.788 471.288 324.401 474.233 324.401ZM537.103 329.734L537.103 328.734L538.103 328.734L538.103 329.734L537.103 329.734ZM537.103 407.175C540.049 407.175 542.437 409.563 542.437 412.508C542.437 415.454 540.049 417.842 537.103 417.842C534.158 417.842 531.77 415.454 531.77 412.508C531.77 409.563 534.158 407.175 537.103 407.175ZM474.233 328.734L475.442 328.734L475.442 330.734L474.233 330.734L474.233 328.734ZM477.861 328.734L480.279 328.734L480.279 330.734L477.861 330.734L477.861 328.734ZM482.697 328.734L485.115 328.734L485.115 330.734L482.697 330.734L482.697 328.734ZM487.533 328.734L489.951 328.734L489.951 330.734L487.533 330.734L487.533 328.734ZM492.369 328.734L494.787 328.734L494.787 330.734L492.369 330.734L492.369 328.734ZM497.205 328.734L499.623 328.734L499.623 330.734L497.205 330.734L497.205 328.734ZM502.041 328.734L504.459 328.734L504.459 330.734L502.041 330.734L502.041 328.734ZM506.877 328.734L509.295 328.734L509.295 330.734L506.877 330.734L506.877 328.734ZM511.714 328.734L514.132 328.734L514.132 330.734L511.714 330.734L511.714 328.734ZM516.55 328.734L518.968 328.734L518.968 330.734L516.55 330.734L516.55 328.734ZM521.386 328.734L523.804 328.734L523.804 330.734L521.386 330.734L521.386 328.734ZM526.222 328.734L528.64 328.734L528.64 330.734L526.222 330.734L526.222 328.734ZM531.058 328.734L533.476 328.734L533.476 330.734L531.058 330.734L531.058 328.734ZM535.894 328.734L537.103 328.734L537.103 330.734L535.894 330.734L535.894 328.734ZM538.103 329.734L538.103 330.951L536.103 330.951L536.103 329.734L538.103 329.734ZM538.103 333.386L538.103 335.82L536.103 335.82L536.103 333.386L538.103 333.386ZM538.103 338.255L538.103 340.689L536.103 340.689L536.103 338.255L538.103 338.255ZM538.103 343.124L538.103 345.558L536.103 345.558L536.103 343.124L538.103 343.124ZM538.103 347.993L538.103 350.427L536.103 350.427L536.103 347.993L538.103 347.993ZM538.103 352.862L538.103 355.297L536.103 355.297L536.103 352.862L538.103 352.862ZM538.103 357.731L538.103 360.166L536.103 360.166L536.103 357.731L538.103 357.731ZM538.103 362.6L538.103 365.035L536.103 365.035L536.103 362.6L538.103 362.6ZM538.103 367.469L538.103 369.904L536.103 369.904L536.103 367.469L538.103 367.469ZM538.103 372.338L538.103 374.773L536.103 374.773L536.103 372.338L538.103 372.338ZM538.103 377.207L538.103 379.642L536.103 379.642L536.103 377.207L538.103 377.207ZM538.103 382.077L538.103 384.511L536.103 384.511L536.103 382.077L538.103 382.077ZM538.103 386.946L538.103 389.38L536.103 389.38L536.103 386.946L538.103 386.946ZM538.103 391.815L538.103 394.249L536.103 394.249L536.103 391.815L538.103 391.815ZM538.103 396.684L538.103 399.118L536.103 399.118L536.103 396.684L538.103 396.684ZM538.103 401.553L538.103 403.987L536.103 403.987L536.103 401.553L538.103 401.553ZM538.103 406.422L538.103 408.856L536.103 408.856L536.103 406.422L538.103 406.422ZM538.103 411.291L538.103 412.508L536.103 412.508L536.103 411.291L538.103 411.291Z" fill="#A38EFD"/>
    <path d="M372.743 324.401C369.797 324.401 367.409 326.788 367.409 329.734C367.409 332.679 369.797 335.067 372.743 335.067C375.688 335.067 378.076 332.679 378.076 329.734C378.076 326.788 375.688 324.401 372.743 324.401ZM322.228 329.734L322.228 328.734L321.228 328.734L321.228 329.734L322.228 329.734ZM322.228 365.21C319.282 365.21 316.894 367.597 316.894 370.543C316.894 373.488 319.282 375.876 322.228 375.876C325.173 375.876 327.561 373.488 327.561 370.543C327.561 367.597 325.173 365.21 322.228 365.21ZM372.743 328.734L371.48 328.734L371.48 330.734L372.743 330.734L372.743 328.734ZM368.954 328.734L366.428 328.734L366.428 330.734L368.954 330.734L368.954 328.734ZM363.903 328.734L361.377 328.734L361.377 330.734L363.903 330.734L363.903 328.734ZM358.851 328.734L356.325 328.734L356.325 330.734L358.851 330.734L358.851 328.734ZM353.8 328.734L351.274 328.734L351.274 330.734L353.8 330.734L353.8 328.734ZM348.748 328.734L346.222 328.734L346.222 330.734L348.748 330.734L348.748 328.734ZM343.697 328.734L341.171 328.734L341.171 330.734L343.697 330.734L343.697 328.734ZM338.645 328.734L336.119 328.734L336.119 330.734L338.645 330.734L338.645 328.734ZM333.594 328.734L331.068 328.734L331.068 330.734L333.594 330.734L333.594 328.734ZM328.542 328.734L326.016 328.734L326.016 330.734L328.542 330.734L328.542 328.734ZM323.491 328.734L322.228 328.734L322.228 330.734L323.491 330.734L323.491 328.734ZM321.228 329.734L321.228 331.009L323.228 331.009L323.228 329.734L321.228 329.734ZM321.228 333.56L321.228 336.11L323.228 336.11L323.228 333.56L321.228 333.56ZM321.228 338.661L321.228 341.211L323.228 341.211L323.228 338.661L321.228 338.661ZM321.228 343.762L321.228 346.313L323.228 346.313L323.228 343.762L321.228 343.762ZM321.228 348.863L321.228 351.414L323.228 351.414L323.228 348.863L321.228 348.863ZM321.228 353.964L321.228 356.515L323.228 356.515L323.228 353.964L321.228 353.964ZM321.228 359.065L321.228 361.616L323.228 361.616L323.228 359.065L321.228 359.065ZM321.228 364.167L321.228 366.717L323.228 366.717L323.228 364.167L321.228 364.167ZM321.228 369.268L321.228 370.543L323.228 370.543L323.228 369.268L321.228 369.268Z" fill="#A38EFD"/>
    <path d="M468.9 309.827C468.9 312.772 471.288 315.16 474.233 315.16C477.179 315.16 479.567 312.772 479.567 309.827C479.567 306.881 477.179 304.494 474.233 304.494C471.288 304.494 468.9 306.881 468.9 309.827ZM582.215 309.827C582.215 312.772 584.603 315.16 587.549 315.16C590.494 315.16 592.882 312.772 592.882 309.827C592.882 306.881 590.494 304.494 587.549 304.494C584.603 304.494 582.216 306.881 582.215 309.827ZM474.233 310.827L475.414 310.827L475.414 308.827L474.233 308.827L474.233 310.827ZM477.775 310.827L480.135 310.827L480.135 308.827L477.775 308.827L477.775 310.827ZM482.496 310.827L484.857 310.827L484.857 308.827L482.496 308.827L482.496 310.827ZM487.217 310.827L489.578 310.827L489.578 308.827L487.217 308.827L487.217 310.827ZM491.939 310.827L494.3 310.827L494.3 308.827L491.939 308.827L491.939 310.827ZM496.66 310.827L499.021 310.827L499.021 308.827L496.66 308.827L496.66 310.827ZM501.382 310.827L503.743 310.827L503.743 308.827L501.382 308.827L501.382 310.827ZM506.103 310.827L508.464 310.827L508.464 308.827L506.103 308.827L506.103 310.827ZM510.825 310.827L513.186 310.827L513.186 308.827L510.825 308.827L510.825 310.827ZM515.546 310.827L517.907 310.827L517.907 308.827L515.546 308.827L515.546 310.827ZM520.268 310.827L522.629 310.827L522.629 308.827L520.268 308.827L520.268 310.827ZM524.989 310.827L527.35 310.827L527.35 308.827L524.989 308.827L524.989 310.827ZM529.711 310.827L532.071 310.827L532.071 308.827L529.711 308.827L529.711 310.827ZM534.432 310.827L536.793 310.827L536.793 308.827L534.432 308.827L534.432 310.827ZM539.154 310.827L541.514 310.827L541.514 308.827L539.154 308.827L539.154 310.827ZM543.875 310.827L546.236 310.827L546.236 308.827L543.875 308.827L543.875 310.827ZM548.597 310.827L550.957 310.827L550.957 308.827L548.597 308.827L548.597 310.827ZM553.318 310.827L555.679 310.827L555.679 308.827L553.318 308.827L553.318 310.827ZM558.04 310.827L560.4 310.827L560.4 308.827L558.04 308.827L558.04 310.827ZM562.761 310.827L565.122 310.827L565.122 308.827L562.761 308.827L562.761 310.827ZM567.483 310.827L569.843 310.827L569.843 308.827L567.483 308.827L567.483 310.827ZM572.204 310.827L574.565 310.827L574.565 308.827L572.204 308.827L572.204 310.827ZM576.926 310.827L579.286 310.827L579.286 308.827L576.926 308.827L576.926 310.827ZM581.647 310.827L584.008 310.827L584.008 308.827L581.647 308.827L581.647 310.827ZM586.368 310.827L587.549 310.827L587.549 308.827L586.368 308.827L586.368 310.827Z" fill="#A38EFD"/>
    <path d="M378.076 282.58C378.076 279.635 375.688 277.247 372.743 277.247C369.797 277.247 367.409 279.635 367.409 282.58C367.409 285.526 369.797 287.913 372.743 287.913C375.688 287.913 378.076 285.526 378.076 282.58ZM315.713 282.58C315.713 279.635 313.325 277.247 310.38 277.247C307.434 277.247 305.047 279.635 305.047 282.58C305.047 285.526 307.434 287.913 310.38 287.913C313.325 287.913 315.713 285.526 315.713 282.58ZM372.743 281.58H371.543V283.58H372.743V281.58ZM369.145 281.58H366.746V283.58H369.145V281.58ZM364.348 281.58H361.949V283.58H364.348V281.58ZM359.551 281.58H357.152V283.58H359.551V281.58ZM354.753 281.58H352.355V283.58H354.753V281.58ZM349.956 281.58H347.558V283.58H349.956V281.58ZM345.159 281.58H342.761V283.58H345.159V281.58ZM340.362 281.58H337.963V283.58H340.362V281.58ZM335.565 281.58H333.166V283.58H335.565V281.58ZM330.768 281.58H328.369V283.58H330.768V281.58ZM325.971 281.58H323.572V283.58H325.971V281.58ZM321.173 281.58H318.775V283.58H321.173V281.58ZM316.376 281.58H313.978V283.58H316.376V281.58ZM311.579 281.58H310.38V283.58H311.579V281.58Z" fill="#A38EFD"/>
    <path d="M414.573 353.051C414.573 355.997 412.185 358.385 409.24 358.385C406.294 358.385 403.906 355.997 403.906 353.051C403.906 350.106 406.294 347.718 409.24 347.718C412.185 347.718 414.573 350.106 414.573 353.051ZM409.24 464.389H410.24V465.389H409.24V464.389ZM248.856 464.389C248.856 467.335 246.468 469.722 243.522 469.722C240.577 469.722 238.189 467.335 238.189 464.389C238.189 461.444 240.577 459.056 243.522 459.056C246.468 459.056 248.856 461.444 248.856 464.389ZM410.24 353.051V464.389H408.24V353.051H410.24ZM409.24 465.389H243.522V463.389H409.24V465.389Z" fill="#A38EFD"/>
    <rect x="372.743" y="251.051" width="102" height="102" rx="18.222" fill="#2C0059"/>
    <path d="M421.237 293.861C422.621 292.477 424.863 292.477 426.247 293.861L431.933 299.547C433.316 300.93 433.316 303.173 431.933 304.556L426.247 310.242C424.863 311.626 422.621 311.626 421.237 310.242L415.551 304.556C414.168 303.173 414.168 300.93 415.551 299.547L421.237 293.861Z" fill="#A950FF"/>
    <path d="M447.427 293.815C448.786 292.457 450.988 292.457 452.347 293.815L458.123 299.591C459.481 300.95 459.481 303.152 458.123 304.511L452.347 310.287C450.988 311.645 448.786 311.645 447.427 310.287L441.651 304.511C440.293 303.152 440.293 300.95 441.651 299.591L447.427 293.815Z" fill="#A950FF"/>
    <path d="M421.282 267.671C422.641 266.312 424.843 266.312 426.202 267.671L431.978 273.447C433.336 274.805 433.336 277.008 431.978 278.367L426.202 284.142C424.843 285.501 422.641 285.501 421.282 284.142L415.506 278.367C414.148 277.008 414.148 274.805 415.506 273.447L421.282 267.671Z" fill="#E9C1FF"/>
    <path d="M418.862 286.475C420.245 287.858 420.245 290.101 418.862 291.484L413.176 297.17C411.792 298.553 409.55 298.553 408.166 297.17L402.48 291.484C401.097 290.101 401.097 287.858 402.48 286.475L408.166 280.788C409.55 279.405 411.792 279.405 413.176 280.788L418.862 286.475Z" fill="#CD88FF"/>
    <path d="M405.834 299.591C407.192 300.95 407.192 303.152 405.834 304.511L400.058 310.287C398.699 311.645 396.497 311.645 395.138 310.287L389.362 304.511C388.004 303.152 388.004 300.95 389.362 299.591L395.138 293.815C396.497 292.457 398.699 292.457 400.058 293.815L405.834 299.591Z" fill="#A950FF"/>
    <path d="M445.006 286.475C446.389 287.858 446.389 290.101 445.006 291.484L439.32 297.17C437.936 298.553 435.693 298.553 434.31 297.17L428.624 291.484C427.241 290.101 427.241 287.858 428.624 286.475L434.31 280.788C435.693 279.405 437.936 279.405 439.32 280.788L445.006 286.475Z" fill="#CD88FF"/>
    <path d="M429.338 323.819C432.429 326.909 432.429 331.92 429.338 335.01C426.248 338.101 421.237 338.101 418.147 335.01C415.056 331.92 415.056 326.909 418.147 323.819C421.237 320.728 426.248 320.728 429.338 323.819Z" fill="#F62E76"/>
    <defs>
        <filter id="filter0_d_982_10473" x="160.956" y="198.184" width="196.805" height="196.805" filterUnits="userSpaceOnUse" color-interpolation-filters="sRGB">
            <feFlood flood-opacity="0" result="BackgroundImageFix"/>
            <feColorMatrix in="SourceAlpha" type="matrix" values="0 0 0 0 0 0 0 0 0 0 0 0 0 0 0 0 0 0 127 0" result="hardAlpha"/>
            <feOffset dy="15.0659"/>
            <feGaussianBlur stdDeviation="23.0696"/>
            <feComposite in2="hardAlpha" operator="out"/>
            <feColorMatrix type="matrix" values="0 0 0 0 0.134626 0 0 0 0 0.0583333 0 0 0 0 0.208333 0 0 0 0.08 0"/>
            <feBlend mode="normal" in2="BackgroundImageFix" result="effect1_dropShadow_982_10473"/>
            <feBlend mode="normal" in="SourceGraphic" in2="effect1_dropShadow_982_10473" result="shape"/>
        </filter>
        <filter id="filter1_d_982_10473" x="275.041" y="0.548843" width="253.686" height="253.686" filterUnits="userSpaceOnUse" color-interpolation-filters="sRGB">
            <feFlood flood-opacity="0" result="BackgroundImageFix"/>
            <feColorMatrix in="SourceAlpha" type="matrix" values="0 0 0 0 0 0 0 0 0 0 0 0 0 0 0 0 0 0 127 0" result="hardAlpha"/>
            <feOffset dy="19.4202"/>
            <feGaussianBlur stdDeviation="29.7372"/>
            <feComposite in2="hardAlpha" operator="out"/>
            <feColorMatrix type="matrix" values="0 0 0 0 0.134626 0 0 0 0 0.0583333 0 0 0 0 0.208333 0 0 0 0.08 0"/>
            <feBlend mode="normal" in2="BackgroundImageFix" result="effect1_dropShadow_982_10473"/>
            <feBlend mode="normal" in="SourceGraphic" in2="effect1_dropShadow_982_10473" result="shape"/>
        </filter>
        <filter id="filter2_d_982_10473" x="0.672791" y="308.778" width="340.352" height="340.352" filterUnits="userSpaceOnUse" color-interpolation-filters="sRGB">
            <feFlood flood-opacity="0" result="BackgroundImageFix"/>
            <feColorMatrix in="SourceAlpha" type="matrix" values="0 0 0 0 0 0 0 0 0 0 0 0 0 0 0 0 0 0 127 0" result="hardAlpha"/>
            <feOffset dy="32.0467"/>
            <feGaussianBlur stdDeviation="49.0716"/>
            <feComposite in2="hardAlpha" operator="out"/>
            <feColorMatrix type="matrix" values="0 0 0 0 0.134626 0 0 0 0 0.0583333 0 0 0 0 0.208333 0 0 0 0.08 0"/>
            <feBlend mode="normal" in2="BackgroundImageFix" result="effect1_dropShadow_982_10473"/>
            <feBlend mode="normal" in="SourceGraphic" in2="effect1_dropShadow_982_10473" result="shape"/>
        </filter>
        <filter id="filter3_d_982_10473" x="243.196" y="342.943" width="148.602" height="148.602" filterUnits="userSpaceOnUse" color-interpolation-filters="sRGB">
            <feFlood flood-opacity="0" result="BackgroundImageFix"/>
            <feColorMatrix in="SourceAlpha" type="matrix" values="0 0 0 0 0 0 0 0 0 0 0 0 0 0 0 0 0 0 127 0" result="hardAlpha"/>
            <feOffset dy="13.3819"/>
            <feGaussianBlur stdDeviation="20.491"/>
            <feComposite in2="hardAlpha" operator="out"/>
            <feColorMatrix type="matrix" values="0 0 0 0 0.134626 0 0 0 0 0.0583333 0 0 0 0 0.208333 0 0 0 0.08 0"/>
            <feBlend mode="normal" in2="BackgroundImageFix" result="effect1_dropShadow_982_10473"/>
            <feBlend mode="normal" in="SourceGraphic" in2="effect1_dropShadow_982_10473" result="shape"/>
        </filter>
        <filter id="filter4_d_982_10473" x="416.317" y="381.725" width="244.876" height="244.876" filterUnits="userSpaceOnUse" color-interpolation-filters="sRGB">
            <feFlood flood-opacity="0" result="BackgroundImageFix"/>
            <feColorMatrix in="SourceAlpha" type="matrix" values="0 0 0 0 0 0 0 0 0 0 0 0 0 0 0 0 0 0 127 0" result="hardAlpha"/>
            <feOffset dy="15.8766"/>
            <feGaussianBlur stdDeviation="24.3111"/>
            <feComposite in2="hardAlpha" operator="out"/>
            <feColorMatrix type="matrix" values="0 0 0 0 0.134626 0 0 0 0 0.0583333 0 0 0 0 0.208333 0 0 0 0.08 0"/>
            <feBlend mode="normal" in2="BackgroundImageFix" result="effect1_dropShadow_982_10473"/>
            <feBlend mode="normal" in="SourceGraphic" in2="effect1_dropShadow_982_10473" result="shape"/>
        </filter>
        <filter id="filter5_d_982_10473" x="28.2425" y="131.818" width="182.663" height="182.663" filterUnits="userSpaceOnUse" color-interpolation-filters="sRGB">
            <feFlood flood-opacity="0" result="BackgroundImageFix"/>
            <feColorMatrix in="SourceAlpha" type="matrix" values="0 0 0 0 0 0 0 0 0 0 0 0 0 0 0 0 0 0 127 0" result="hardAlpha"/>
            <feOffset dy="11.5302"/>
            <feGaussianBlur stdDeviation="17.6556"/>
            <feComposite in2="hardAlpha" operator="out"/>
            <feColorMatrix type="matrix" values="0 0 0 0 0.134626 0 0 0 0 0.0583333 0 0 0 0 0.208333 0 0 0 0.08 0"/>
            <feBlend mode="normal" in2="BackgroundImageFix" result="effect1_dropShadow_982_10473"/>
            <feBlend mode="normal" in="SourceGraphic" in2="effect1_dropShadow_982_10473" result="shape"/>
        </filter>
        <filter id="filter6_d_982_10473" x="540.459" y="224.445" width="205.313" height="205.313" filterUnits="userSpaceOnUse" color-interpolation-filters="sRGB">
            <feFlood flood-opacity="0" result="BackgroundImageFix"/>
            <feColorMatrix in="SourceAlpha" type="matrix" values="0 0 0 0 0 0 0 0 0 0 0 0 0 0 0 0 0 0 127 0" result="hardAlpha"/>
            <feOffset dy="15.7171"/>
            <feGaussianBlur stdDeviation="24.0669"/>
            <feComposite in2="hardAlpha" operator="out"/>
            <feColorMatrix type="matrix" values="0 0 0 0 0.134626 0 0 0 0 0.0583333 0 0 0 0 0.208333 0 0 0 0.08 0"/>
            <feBlend mode="normal" in2="BackgroundImageFix" result="effect1_dropShadow_982_10473"/>
            <feBlend mode="normal" in="SourceGraphic" in2="effect1_dropShadow_982_10473" result="shape"/>
        </filter>
        <filter id="filter7_d_982_10473" x="502.248" y="85.805" width="186.642" height="186.642" filterUnits="userSpaceOnUse" color-interpolation-filters="sRGB">
            <feFlood flood-opacity="0" result="BackgroundImageFix"/>
            <feColorMatrix in="SourceAlpha" type="matrix" values="0 0 0 0 0 0 0 0 0 0 0 0 0 0 0 0 0 0 127 0" result="hardAlpha"/>
            <feOffset dy="10.6313"/>
            <feGaussianBlur stdDeviation="16.2792"/>
            <feComposite in2="hardAlpha" operator="out"/>
            <feColorMatrix type="matrix" values="0 0 0 0 0.134626 0 0 0 0 0.0583333 0 0 0 0 0.208333 0 0 0 0.08 0"/>
            <feBlend mode="normal" in2="BackgroundImageFix" result="effect1_dropShadow_982_10473"/>
            <feBlend mode="normal" in="SourceGraphic" in2="effect1_dropShadow_982_10473" result="shape"/>
        </filter>
        <filter id="filter8_f_982_10473" x="250.231" y="45.7332" width="201.495" height="201.495" filterUnits="userSpaceOnUse" color-interpolation-filters="sRGB">
            <feFlood flood-opacity="0" result="BackgroundImageFix"/>
            <feBlend mode="normal" in="SourceGraphic" in2="BackgroundImageFix" result="shape"/>
            <feGaussianBlur stdDeviation="30.0743" result="effect1_foregroundBlur_982_10473"/>
        </filter>
        <linearGradient id="paint0_linear_982_10473" x1="83.592" y1="175.356" x2="100.122" y2="254.1" gradientUnits="userSpaceOnUse">
            <stop stop-color="#E6AD10"/>
            <stop offset="1" stop-color="#C87E0E"/>
        </linearGradient>
        <linearGradient id="paint1_linear_982_10473" x1="89.5768" y1="176.235" x2="113.998" y2="256.084" gradientUnits="userSpaceOnUse">
            <stop stop-color="#F6D751"/>
            <stop offset="1" stop-color="#E6AD10"/>
        </linearGradient>
        <linearGradient id="paint2_linear_982_10473" x1="96.8272" y1="209.673" x2="111.245" y2="244.911" gradientUnits="userSpaceOnUse">
            <stop stop-color="#F9E589"/>
            <stop offset="1" stop-color="#F6D751"/>
        </linearGradient>
    </defs>
</svg>
