<svg width="87" height="104" viewBox="0 0 87 104" fill="none" xmlns="http://www.w3.org/2000/svg">
<path d="M11.7051 19.2259V29.878C11.7741 32.3762 13.8456 34.3424 16.3313 34.273C18.7249 34.2036 20.6468 32.2722 20.7043 29.878V19.2259C20.7043 16.7624 18.7134 14.7615 16.2622 14.7615H16.2507C13.788 14.7152 11.7511 16.693 11.7051 19.1681V19.2259ZM14.9273 29.878V19.2259C14.9158 18.5551 15.4567 17.9883 16.1241 17.9883C16.1702 17.9883 16.2047 17.9883 16.2507 17.9883C16.9067 17.9768 17.4591 18.4972 17.4706 19.1681C17.4706 19.1912 17.4706 19.2143 17.4706 19.2259V29.878C17.4591 30.5604 16.9182 31.104 16.2392 31.1156C15.5372 31.1503 14.9388 30.5951 14.9043 29.8896" fill="#DB5B0C"/>
<path d="M46.677 14.9465H37.5742V18.185H40.5203V34.0649H43.7425V18.185H46.677V14.9465Z" fill="#DB5B0C"/>
<path d="M56.1594 14.9465V29.878C56.1824 30.572 55.6415 31.1387 54.9511 31.1618C54.2606 31.185 53.6967 30.6414 53.6737 29.9474C53.6737 29.9243 53.6737 29.9012 53.6737 29.8665V14.9465H50.3594V29.878C50.4745 32.3994 52.6034 34.354 55.1122 34.2383C57.4598 34.1343 59.3471 32.2375 59.4507 29.878V14.9465H56.1594Z" fill="#DB5B0C"/>
<path d="M85.6315 18.185V14.9465H77.668V34.0649H85.6315V30.838H80.8902V25.8878H83.9168V22.6494H80.8902V18.185H85.6315Z" fill="#DB5B0C"/>
<path d="M34.5472 34.0648H31.1409L28.7702 25.0319C28.7702 25.0319 30.8532 24.6503 30.8532 22.4643V19.515C30.8762 18.7979 30.3008 18.1965 29.5873 18.185H28.2984V34.0648H25.0762V14.9465H29.5413C31.981 14.9234 33.9949 16.8665 34.0869 19.3184V22.3602C34.0869 24.257 33.4195 25.5871 32.2917 26.5471L34.5472 34.0648Z" fill="#DB5B0C"/>
<path d="M70.4645 14.9465V25.4136L67.1502 14.9465H63.8359V34.0649H67.1502V24.7428L70.1768 34.0649H73.7788V14.9465H70.4645Z" fill="#DB5B0C"/>
<path d="M4.213 15.2357H1.09434H0.806641V34.354H4.213V26.1654H7.34317V22.9385H4.213V18.4741H9.14992V15.2357H4.213Z" fill="#DB5B0C"/>
<path d="M76.9891 78.0382C76.9661 79.0097 76.1836 79.773 75.2169 79.7615H69.9117C68.9451 79.773 68.1625 79.0097 68.1395 78.0382V49.1236C68.1855 48.1521 68.9796 47.3887 69.9463 47.4003H75.2629C76.2066 47.3887 76.9776 48.1405 76.9891 49.0889C76.9891 49.1004 76.9891 49.112 76.9891 49.1236V78.0382ZM76.4943 38.8647H68.6919C63.6514 38.8647 59.5661 42.8318 59.5661 47.7357V79.1254C59.5661 84.0177 63.6514 87.9964 68.7034 87.9964H76.5058C81.5463 87.9964 85.6431 84.0293 85.6431 79.1254V47.7357C85.6316 42.8318 81.5348 38.8647 76.4943 38.8647ZM47.6668 78.0382C47.6438 79.0097 46.8498 79.773 45.8946 79.7615H40.6009C39.6343 79.773 38.8517 79.0097 38.8287 78.0382V49.1236C38.8747 48.1521 39.6803 47.3771 40.647 47.4003H45.9406C46.8843 47.3887 47.6553 48.1521 47.6668 49.1005V49.1236V78.0382ZM47.1605 38.8647H39.3581C34.3176 38.8647 30.2438 42.8318 30.2438 47.7357V79.1254C30.2438 84.0177 34.3406 87.9964 39.3811 87.9964H47.1835C52.224 87.9964 56.3208 84.0293 56.3208 79.1254V47.7357C56.3208 42.8433 52.2355 38.8647 47.1835 38.8647H47.1605ZM26.9755 65.5124C26.9755 60.6085 22.8096 56.6529 17.6656 56.6529H9.7941V47.3771H26.918V38.8647H0.898438V65.5355H16.3536C17.3318 65.5008 18.1489 66.2757 18.1834 67.2588V78.0382C18.1489 79.0097 17.3433 79.7846 16.3652 79.7615H11.6008C10.6342 79.7846 9.81711 79.0097 9.7941 78.0382V71.2722H1.04804V79.1138C1.04804 84.0061 5.22543 87.9848 10.358 87.9848H17.6771C22.8096 87.9848 26.987 84.0177 26.987 79.1138L26.9755 65.5124Z" fill="white"/>
</svg>
