<svg width="29" height="29" viewBox="0 0 29 29" fill="none" xmlns="http://www.w3.org/2000/svg">
<g filter="url(#filter0_d_25647_47994)">
<path fill-rule="evenodd" clip-rule="evenodd" d="M11.6714 23.7612C11.5266 24.1492 11.0945 24.3464 10.7065 24.2015C8.19279 23.2633 6.17364 21.3157 5.14232 18.8513C4.98241 18.4692 5.16254 18.0298 5.54465 17.8699C5.92675 17.71 6.36613 17.8901 6.52604 18.2722C7.39771 20.3551 9.10632 22.0032 11.231 22.7962C11.6191 22.9411 11.8162 23.3731 11.6714 23.7612Z" fill="#CE75FF"/>
<path fill-rule="evenodd" clip-rule="evenodd" d="M22.7636 12.6829C22.3757 12.828 21.9435 12.6312 21.7984 12.2432C20.9991 10.1069 19.3318 8.39117 17.2253 7.52599C16.8422 7.36862 16.6591 6.93044 16.8165 6.54728C16.9739 6.16413 17.4121 5.98109 17.7952 6.13847C20.2864 7.16168 22.2572 9.18888 23.2033 11.7176C23.3484 12.1056 23.1516 12.5377 22.7636 12.6829Z" fill="#CE75FF"/>
<path fill-rule="evenodd" clip-rule="evenodd" d="M14.1667 10.5691L13.6232 12.8105C13.4059 13.7064 12.7064 14.4059 11.8105 14.6232L9.5691 15.1667L11.8105 15.7102C12.7064 15.9274 13.4059 16.6269 13.6232 17.5229L14.1667 19.7642L14.7102 17.5229C14.9274 16.6269 15.6269 15.9274 16.5229 15.7102L18.7642 15.1667L16.5229 14.6232C15.6269 14.4059 14.9274 13.7064 14.7102 12.8105L14.1667 10.5691ZM15.2544 9.35547C14.9778 8.21484 13.3556 8.21484 13.079 9.35547L12.3179 12.494C12.2192 12.9012 11.9012 13.2192 11.494 13.3179L8.35547 14.079C7.21484 14.3556 7.21484 15.9778 8.35547 16.2544L11.494 17.0154C11.9012 17.1142 12.2192 17.4321 12.3179 17.8394L13.079 20.9779C13.3556 22.1185 14.9778 22.1185 15.2544 20.9779L16.0154 17.8394C16.1142 17.4321 16.4321 17.1142 16.8394 17.0154L19.9779 16.2544C21.1185 15.9778 21.1185 14.3556 19.9779 14.079L16.8394 13.3179C16.4321 13.2192 16.1142 12.9012 16.0154 12.494L15.2544 9.35547Z" fill="#9300FF"/>
<path d="M23.3333 20.1654C23.3333 20.6256 22.9602 20.9987 22.5 20.9987C22.0398 20.9987 21.6667 20.6256 21.6667 20.1654C21.6667 19.7051 22.0398 19.332 22.5 19.332C22.9602 19.332 23.3333 19.7051 23.3333 20.1654Z" fill="#F62E76"/>
<path d="M6.66667 10.1654C6.66667 10.6256 6.29357 10.9987 5.83333 10.9987C5.3731 10.9987 5 10.6256 5 10.1654C5 9.70513 5.3731 9.33203 5.83333 9.33203C6.29357 9.33203 6.66667 9.70513 6.66667 10.1654Z" fill="#F62E76"/>
<path d="M19.9987 23.5013C19.9987 23.9615 19.6256 24.3346 19.1654 24.3346C18.7051 24.3346 18.332 23.9615 18.332 23.5013C18.332 23.0411 18.7051 22.668 19.1654 22.668C19.6256 22.668 19.9987 23.0411 19.9987 23.5013Z" fill="#CD88FF"/>
<path d="M9.9987 6.83333C9.9987 7.29357 9.6256 7.66667 9.16536 7.66667C8.70513 7.66667 8.33203 7.29357 8.33203 6.83333C8.33203 6.3731 8.70513 6 9.16536 6C9.6256 6 9.9987 6.3731 9.9987 6.83333Z" fill="#CD88FF"/>
</g>
<defs>
<filter id="filter0_d_25647_47994" x="-0.832031" y="-0.835938" width="30" height="30" filterUnits="userSpaceOnUse" color-interpolation-filters="sRGB">
<feFlood flood-opacity="0" result="BackgroundImageFix"/>
<feColorMatrix in="SourceAlpha" type="matrix" values="0 0 0 0 0 0 0 0 0 0 0 0 0 0 0 0 0 0 127 0" result="hardAlpha"/>
<feOffset dy="-1"/>
<feGaussianBlur stdDeviation="2.5"/>
<feComposite in2="hardAlpha" operator="out"/>
<feColorMatrix type="matrix" values="0 0 0 0 1 0 0 0 0 1 0 0 0 0 1 0 0 0 0.3 0"/>
<feBlend mode="normal" in2="BackgroundImageFix" result="effect1_dropShadow_25647_47994"/>
<feBlend mode="normal" in="SourceGraphic" in2="effect1_dropShadow_25647_47994" result="shape"/>
</filter>
</defs>
</svg>
