<svg width="23" height="24" viewBox="0 0 23 24" fill="none" xmlns="http://www.w3.org/2000/svg">
    <g filter="url(#filter0_d_18896_39493)">
        <path fill-rule="evenodd" clip-rule="evenodd"
            d="M9.2128 19.187C9.10148 19.4853 8.76945 19.6368 8.4712 19.5255C6.53924 18.8044 4.98738 17.3075 4.19474 15.4134C4.07184 15.1198 4.21028 14.7821 4.50395 14.6592C4.79763 14.5363 5.13533 14.6747 5.25823 14.9684C5.92817 16.5693 7.24136 17.836 8.87433 18.4454C9.17258 18.5568 9.32412 18.8888 9.2128 19.187Z"
            fill="#CE75FF" />
        <path fill-rule="evenodd" clip-rule="evenodd"
            d="M17.738 10.6726C17.4398 10.7841 17.1077 10.6329 16.9961 10.3347C16.3818 8.69273 15.1003 7.3741 13.4814 6.70915C13.1869 6.5882 13.0462 6.25143 13.1672 5.95694C13.2881 5.66246 13.6249 5.52179 13.9194 5.64274C15.8341 6.42915 17.3488 7.9872 18.0759 9.93072C18.1875 10.2289 18.0362 10.561 17.738 10.6726Z"
            fill="#CE75FF" />
        <path fill-rule="evenodd" clip-rule="evenodd"
            d="M11.1302 9.04801L10.7124 10.7707C10.5455 11.4593 10.0078 11.9969 9.31926 12.1639L7.5966 12.5816L9.31926 12.9993C10.0078 13.1663 10.5455 13.7039 10.7124 14.3925L11.1302 16.1151L11.5479 14.3925C11.7149 13.7039 12.2525 13.1663 12.9411 12.9993L14.6637 12.5816L12.9411 12.1639C12.2525 11.9969 11.7149 11.4593 11.5479 10.7707L11.1302 9.04801ZM11.9661 8.11525C11.7536 7.2386 10.5068 7.2386 10.2942 8.11525L9.70927 10.5274C9.63337 10.8404 9.389 11.0848 9.07601 11.1607L6.66384 11.7456C5.78718 11.9582 5.78718 13.205 6.66384 13.4176L9.07601 14.0025C9.389 14.0784 9.63337 14.3227 9.70927 14.6357L10.2942 17.0479C10.5068 17.9246 11.7536 17.9246 11.9661 17.0479L12.5511 14.6357C12.6269 14.3227 12.8713 14.0784 13.1843 14.0025L15.5965 13.4176C16.4731 13.205 16.4731 11.9582 15.5965 11.7456L13.1843 11.1607C12.8713 11.0848 12.6269 10.8404 12.5511 10.5274L11.9661 8.11525Z"
            fill="#EFD9FF" />
        <path
            d="M18.1755 16.4234C18.1755 16.7771 17.8887 17.0638 17.535 17.0638C17.1812 17.0638 16.8945 16.7771 16.8945 16.4234C16.8945 16.0696 17.1812 15.7829 17.535 15.7829C17.8887 15.7829 18.1755 16.0696 18.1755 16.4234Z"
            fill="#F62E76" />
        <path
            d="M5.36591 8.73764C5.36591 9.09137 5.07916 9.37812 4.72544 9.37812C4.37171 9.37812 4.08496 9.09137 4.08496 8.73764C4.08496 8.38392 4.37171 8.09717 4.72544 8.09717C5.07916 8.09717 5.36591 8.38392 5.36591 8.73764Z"
            fill="#F62E76" />
        <path
            d="M15.6125 18.9872C15.6125 19.3409 15.3257 19.6276 14.972 19.6276C14.6183 19.6276 14.3315 19.3409 14.3315 18.9872C14.3315 18.6334 14.6183 18.3467 14.972 18.3467C15.3257 18.3467 15.6125 18.6334 15.6125 18.9872Z"
            fill="#CD88FF" />
        <path
            d="M7.92695 6.17661C7.92695 6.53034 7.6402 6.81709 7.28647 6.81709C6.93275 6.81709 6.646 6.53034 6.646 6.17661C6.646 5.82288 6.93275 5.53613 7.28647 5.53613C7.6402 5.53613 7.92695 5.82288 7.92695 6.17661Z"
            fill="#CD88FF" />
    </g>
    <defs>
        <filter id="filter0_d_18896_39493" x="-0.39706" y="0.261858" width="23.0573"
            height="23.0571" filterUnits="userSpaceOnUse" color-interpolation-filters="sRGB">
            <feFlood flood-opacity="0" result="BackgroundImageFix" />
            <feColorMatrix in="SourceAlpha" type="matrix"
                values="0 0 0 0 0 0 0 0 0 0 0 0 0 0 0 0 0 0 127 0" result="hardAlpha" />
            <feOffset dy="-0.768572" />
            <feGaussianBlur stdDeviation="1.92143" />
            <feComposite in2="hardAlpha" operator="out" />
            <feColorMatrix type="matrix" values="0 0 0 0 1 0 0 0 0 1 0 0 0 0 1 0 0 0 0.3 0" />
            <feBlend mode="normal" in2="BackgroundImageFix" result="effect1_dropShadow_18896_39493" />
            <feBlend mode="normal" in="SourceGraphic" in2="effect1_dropShadow_18896_39493"
                result="shape" />
        </filter>
    </defs>
</svg>