<svg width="431" height="347" viewBox="0 0 431 347" fill="none" xmlns="http://www.w3.org/2000/svg">
<g filter="url(#filter0_b_106_1502)">
<rect x="0.5" y="9.42969" width="429.974" height="327.982" rx="8" fill="#D9D9D9" fill-opacity="0.16"/>
<rect x="0.958693" y="9.88838" width="429.056" height="327.065" rx="7.54131" stroke="#FFF4F4" stroke-opacity="0.9" stroke-width="0.917387" stroke-dasharray="1.83 1.83"/>
</g>
<g filter="url(#filter1_b_106_1502)">
<rect x="14.3608" y="60.9209" width="401.87" height="125.051" rx="8" fill="black" fill-opacity="0.53"/>
<rect x="15.0449" y="61.6049" width="400.502" height="123.683" rx="7.31598" stroke="#FFF4F4" stroke-opacity="0.3" stroke-width="1.36805"/>
</g>
<path d="M165.39 35.9175C166.083 35.9175 166.65 36.4843 166.65 37.1771C166.65 37.87 166.083 38.4368 165.39 38.4368C164.697 38.4368 164.13 37.87 164.13 37.1771C164.13 36.4843 164.697 35.9175 165.39 35.9175ZM165.39 33.3981C163.299 33.3981 161.611 35.0861 161.611 37.1771C161.611 39.2682 163.299 40.9562 165.39 40.9562C167.481 40.9562 169.169 39.2682 169.169 37.1771C169.169 35.0861 167.481 33.3981 165.39 33.3981ZM176.097 30.8788L177.47 27.8429L180.506 26.4699L177.47 25.0969L176.097 22.061L174.724 25.0969L171.688 26.4699L174.724 27.8429L176.097 30.8788ZM179.599 35.5648L178.617 33.3981L177.634 35.5648L175.467 36.5473L177.634 37.5299L178.617 39.6965L179.599 37.5299L181.766 36.5473L179.599 35.5648ZM173.263 37.1771C173.263 37.026 173.263 36.8622 173.25 36.7111L175.694 34.8593L172.545 29.4049L169.723 30.589C169.471 30.4253 169.194 30.2615 168.917 30.123L168.539 27.0997H162.241L161.863 30.1356C161.586 30.2741 161.321 30.4379 161.057 30.6016L158.235 29.4049L155.086 34.8593L157.53 36.7111C157.517 36.8622 157.517 37.026 157.517 37.1771C157.517 37.3283 157.517 37.4921 157.53 37.6432L155.086 39.4949L158.235 44.9493L161.057 43.7652C161.309 43.929 161.586 44.0928 161.863 44.2313L162.241 47.2545H168.539L168.917 44.2187C169.194 44.0802 169.459 43.929 169.723 43.7526L172.545 44.9367L175.694 39.4823L173.25 37.6306C173.263 37.4921 173.263 37.3283 173.263 37.1771ZM171.474 41.7624L169.295 40.8428C168.59 41.5986 167.658 42.1529 166.612 42.3922L166.31 44.7352H164.471L164.181 42.3922C163.135 42.1529 162.203 41.5986 161.498 40.8428L159.318 41.7624L158.399 40.1626L160.276 38.7391C160.125 38.2479 160.049 37.7314 160.049 37.1897C160.049 36.6481 160.125 36.1316 160.276 35.6403L158.399 34.2169L159.318 32.6171L161.498 33.5367C162.203 32.7809 163.135 32.2266 164.181 31.9873L164.471 29.6191H166.322L166.612 31.9621C167.658 32.2014 168.59 32.7557 169.295 33.5115L171.474 32.5919L172.394 34.1917L170.517 35.6151C170.668 36.1064 170.744 36.6229 170.744 37.1645C170.744 37.7062 170.668 38.2227 170.517 38.7139L172.394 40.1374L171.474 41.7624Z" fill="white"/>
<path d="M193.002 39.1577L196.788 28.7304H198.108L201.886 39.1577H200.725L199.651 36.1867H195.238L194.156 39.1577H193.002ZM195.555 35.1195H199.326L197.437 29.8409L195.555 35.1195ZM206.317 39.3019C205.918 39.2971 205.546 39.2418 205.2 39.1361C204.854 39.0255 204.548 38.8645 204.284 38.6529C204.024 38.4366 203.82 38.1698 203.671 37.8525C203.527 37.5304 203.455 37.1578 203.455 36.7348V31.7014H204.58V36.6338C204.58 37.1578 204.738 37.5833 205.055 37.9102C205.373 38.2323 205.861 38.3933 206.519 38.3933C207.106 38.3933 207.577 38.2419 207.933 37.939C208.288 37.6314 208.466 37.1674 208.466 36.5473V31.7014H209.584V39.1577H208.675L208.56 37.7443C208.474 38.1001 208.322 38.3933 208.106 38.6241C207.894 38.8548 207.635 39.0279 207.327 39.1433C207.024 39.2539 206.688 39.3067 206.317 39.3019ZM214.49 39.1866C214.014 39.1866 213.644 39.1193 213.38 38.9846C213.12 38.85 212.937 38.6505 212.832 38.3861C212.726 38.1217 212.673 37.79 212.673 37.391V32.5451H211.461V31.7014H212.702L212.969 29.5524H213.805V31.6942H215.493V32.5451H213.805V37.3549C213.805 37.6434 213.832 37.8549 213.884 37.9895C213.942 38.1193 214.041 38.2034 214.18 38.2419C214.324 38.2755 214.524 38.2924 214.779 38.2924H215.543V39.0712C215.452 39.1048 215.315 39.1337 215.132 39.1577C214.954 39.1769 214.74 39.1866 214.49 39.1866ZM220.131 39.3019C219.453 39.3019 218.862 39.1577 218.357 38.8693C217.853 38.576 217.461 38.1433 217.182 37.5713C216.903 36.9992 216.764 36.2949 216.764 35.4584C216.764 34.6796 216.891 33.9969 217.146 33.4104C217.401 32.8239 217.778 32.3696 218.278 32.0475C218.783 31.7206 219.401 31.5571 220.131 31.5571C220.804 31.5571 221.391 31.7062 221.891 32.0042C222.391 32.2975 222.778 32.735 223.052 33.3167C223.331 33.8936 223.47 34.6075 223.47 35.4584C223.47 36.218 223.343 36.8862 223.088 37.4631C222.838 38.04 222.465 38.4919 221.97 38.8188C221.48 39.1409 220.867 39.3019 220.131 39.3019ZM220.131 38.3933C220.598 38.3933 220.997 38.278 221.328 38.0472C221.66 37.8164 221.912 37.4799 222.086 37.0376C222.259 36.5953 222.345 36.0593 222.345 35.4295C222.345 34.8623 222.268 34.3551 222.114 33.908C221.965 33.4609 221.727 33.1099 221.4 32.8552C221.074 32.5956 220.651 32.4658 220.131 32.4658C219.66 32.4658 219.256 32.5811 218.92 32.8119C218.583 33.0378 218.326 33.372 218.148 33.8142C217.975 34.2565 217.889 34.795 217.889 35.4295C217.889 35.9968 217.966 36.504 218.119 36.9511C218.273 37.3934 218.516 37.7443 218.848 38.0039C219.179 38.2635 219.607 38.3933 220.131 38.3933ZM225.323 39.1577V31.7014H226.405V32.7903C226.602 32.4585 226.876 32.1701 227.227 31.9249C227.583 31.6797 228.049 31.5571 228.626 31.5571C228.905 31.5571 229.186 31.6028 229.47 31.6942C229.753 31.7855 230.013 31.9225 230.249 32.1052C230.484 32.2879 230.664 32.5138 230.789 32.783C231.02 32.4081 231.333 32.11 231.727 31.8889C232.121 31.6677 232.568 31.5571 233.068 31.5571C233.328 31.5571 233.597 31.5956 233.876 31.6725C234.159 31.7494 234.424 31.8865 234.669 32.0836C234.914 32.2759 235.111 32.5523 235.26 32.9128C235.414 33.2686 235.491 33.7277 235.491 34.2902V39.1577H234.366V34.3911C234.366 33.896 234.289 33.5162 234.135 33.2518C233.982 32.9826 233.782 32.7951 233.537 32.6893C233.292 32.5835 233.03 32.5307 232.751 32.5307C232.501 32.5307 232.236 32.5787 231.958 32.6749C231.684 32.7662 231.448 32.9273 231.251 33.158C231.059 33.3888 230.962 33.7085 230.962 34.1171V39.1577H229.838V33.944C229.838 33.6316 229.753 33.372 229.585 33.1652C229.422 32.9537 229.217 32.7951 228.972 32.6893C228.727 32.5835 228.482 32.5307 228.237 32.5307C227.967 32.5307 227.693 32.5835 227.415 32.6893C227.141 32.7951 226.91 32.9657 226.722 33.2013C226.54 33.4369 226.448 33.7421 226.448 34.1171V39.1577H225.323ZM239.724 39.3019C239.238 39.3019 238.81 39.2178 238.44 39.0495C238.075 38.8765 237.789 38.6313 237.582 38.314C237.38 37.9967 237.279 37.6145 237.279 37.1674C237.279 36.3406 237.563 35.7276 238.13 35.3286C238.697 34.9296 239.613 34.7132 240.877 34.6796L242.312 34.6363V34.0162C242.312 33.5306 242.166 33.1436 241.873 32.8552C241.579 32.5619 241.125 32.4177 240.51 32.4225C240.048 32.4225 239.647 32.5307 239.305 32.747C238.969 32.9585 238.755 33.2998 238.664 33.771H237.64C237.668 33.3047 237.798 32.908 238.029 32.5811C238.265 32.2494 238.596 31.997 239.024 31.824C239.452 31.6461 239.964 31.5571 240.56 31.5571C241.18 31.5571 241.699 31.6485 242.118 31.8312C242.541 32.009 242.86 32.2783 243.077 32.6388C243.293 32.9946 243.401 33.4369 243.401 33.9657V39.1577H242.435L242.356 37.7227C242.058 38.314 241.678 38.725 241.216 38.9558C240.76 39.1866 240.262 39.3019 239.724 39.3019ZM240.041 38.4582C240.305 38.4582 240.572 38.4102 240.841 38.314C241.111 38.2179 241.356 38.0857 241.577 37.9174C241.798 37.7491 241.976 37.5616 242.111 37.3549C242.245 37.1482 242.312 36.9367 242.312 36.7203V35.3935L241.115 35.4151C240.486 35.4247 239.969 35.4872 239.565 35.6026C239.161 35.718 238.863 35.8959 238.671 36.1362C238.478 36.3718 238.382 36.6819 238.382 37.0665C238.382 37.504 238.536 37.8453 238.844 38.0905C239.152 38.3356 239.551 38.4582 240.041 38.4582ZM247.87 39.1866C247.394 39.1866 247.024 39.1193 246.759 38.9846C246.5 38.85 246.317 38.6505 246.211 38.3861C246.106 38.1217 246.053 37.79 246.053 37.391V32.5451H244.841V31.7014H246.082L246.348 29.5524H247.185V31.6942H248.872V32.5451H247.185V37.3549C247.185 37.6434 247.211 37.8549 247.264 37.9895C247.322 38.1193 247.42 38.2034 247.56 38.2419C247.704 38.2755 247.904 38.2924 248.158 38.2924H248.923V39.0712C248.831 39.1048 248.694 39.1337 248.512 39.1577C248.334 39.1769 248.12 39.1866 247.87 39.1866ZM253.677 39.3019C252.994 39.3019 252.391 39.1529 251.867 38.8548C251.348 38.552 250.942 38.1169 250.648 37.5496C250.355 36.9823 250.208 36.2997 250.208 35.5017C250.208 34.7084 250.341 34.0162 250.605 33.4248C250.869 32.8287 251.254 32.3696 251.759 32.0475C252.264 31.7206 252.872 31.5571 253.583 31.5571C254.271 31.5571 254.852 31.7062 255.328 32.0042C255.804 32.2975 256.167 32.7181 256.417 33.2662C256.667 33.8142 256.792 34.4681 256.792 35.2276V35.6891H251.362C251.357 36.1891 251.437 36.6434 251.6 37.0521C251.768 37.4607 252.023 37.7876 252.365 38.0328C252.706 38.278 253.136 38.4005 253.655 38.4005C254.165 38.4005 254.602 38.2828 254.968 38.0472C255.333 37.8068 255.562 37.4679 255.653 37.0304H256.735C256.643 37.5304 256.444 37.9486 256.136 38.2852C255.828 38.6217 255.458 38.8765 255.025 39.0495C254.598 39.2178 254.148 39.3019 253.677 39.3019ZM251.369 34.8887H255.696C255.696 34.4272 255.619 34.0113 255.465 33.6412C255.312 33.271 255.076 32.9777 254.759 32.7614C254.446 32.5451 254.05 32.4369 253.569 32.4369C253.064 32.4369 252.648 32.5595 252.321 32.8047C251.994 33.045 251.752 33.3527 251.593 33.7277C251.439 34.1027 251.365 34.4897 251.369 34.8887Z" fill="white"/>
<path d="M38.3607 0L38.5063 4.51846C38.5954 7.28284 40.5236 9.49981 42.9268 9.60085L46.9695 9.77083L42.9268 9.9408C40.5236 10.0418 38.5954 12.2588 38.5063 15.0232L38.3607 19.5417L38.2151 15.0232C38.1261 12.2588 36.1978 10.0418 33.7946 9.9408L29.752 9.77083L33.7946 9.60085C36.1978 9.49981 38.1261 7.28284 38.2151 4.51846L38.3607 0Z" fill="white"/>
<path d="M417.134 326.595L417.28 331.114C417.369 333.878 419.297 336.095 421.7 336.196L425.743 336.366L421.7 336.536C419.297 336.637 417.369 338.854 417.28 341.618L417.134 346.137L416.989 341.618C416.9 338.854 414.971 336.637 412.568 336.536L408.525 336.366L412.568 336.196C414.971 336.095 416.9 333.878 416.989 331.114L417.134 326.595Z" fill="white"/>
<rect x="44.7617" y="233" width="96.0625" height="87.8286" rx="10.9786" fill="black"/>
<rect x="45.4479" y="233.686" width="94.6902" height="86.4563" rx="10.2924" stroke="#ACAAFF" stroke-opacity="0.5" stroke-width="1.37232"/>
<rect x="169.359" y="233" width="96.0625" height="87.8286" rx="10.9786" fill="black"/>
<rect x="170.046" y="233.686" width="94.6902" height="86.4563" rx="10.2924" stroke="#ACAAFF" stroke-opacity="0.5" stroke-width="1.37232"/>
<rect x="293.957" y="233" width="96.0625" height="87.8286" rx="10.9786" fill="black"/>
<rect x="294.643" y="233.686" width="94.6902" height="86.4563" rx="10.2924" stroke="#ACAAFF" stroke-opacity="0.5" stroke-width="1.37232"/>
<path d="M75.8034 302.496L62.2864 279.084C61.564 277.833 61.564 276.291 62.2864 275.041L75.8034 251.629C76.5248 250.38 77.8569 249.61 79.2987 249.608H106.345C107.782 249.615 109.108 250.385 109.826 251.629L123.341 275.041C124.063 276.291 124.063 277.833 123.341 279.084L109.824 302.496C109.103 303.746 107.771 304.516 106.329 304.518H79.289C77.8491 304.513 76.5219 303.743 75.8005 302.496H75.8034Z" fill="#4386FA"/>
<path d="M101.258 269.523C101.258 269.523 105.015 278.536 99.8926 283.645C94.7701 288.754 85.4426 285.484 85.4426 285.484L104.416 304.51H106.342C107.785 304.508 109.117 303.737 109.838 302.488L118.786 286.995L101.258 269.523Z" fill="#3C79E1"/>
<path d="M105.695 287.966L101.552 283.813C101.507 283.767 101.455 283.728 101.398 283.697C103.161 281.427 103.991 278.57 103.721 275.709C103.45 272.849 102.099 270.198 99.9431 268.299C97.7868 266.4 94.9874 265.394 92.1153 265.486C89.2432 265.579 86.5145 266.763 84.485 268.797C82.4556 270.832 81.2781 273.564 81.1926 276.436C81.107 279.308 82.1198 282.105 84.0246 284.257C85.9293 286.408 88.5828 287.753 91.4443 288.016C94.3058 288.28 97.1601 287.442 99.4256 285.674C99.4552 285.728 99.4921 285.777 99.5353 285.82L103.688 289.972C103.81 290.094 103.975 290.163 104.148 290.163C104.32 290.163 104.485 290.094 104.607 289.972L105.695 288.885C105.817 288.763 105.885 288.598 105.885 288.425C105.885 288.253 105.817 288.088 105.695 287.966ZM92.4642 285.28C90.7839 285.28 89.1412 284.782 87.744 283.849C86.3468 282.915 85.2578 281.589 84.6146 280.036C83.9715 278.484 83.8032 276.776 84.131 275.127C84.4587 273.479 85.2679 271.966 86.456 270.777C87.6442 269.589 89.158 268.78 90.8061 268.452C92.4541 268.125 94.1624 268.293 95.7147 268.936C97.2671 269.579 98.5939 270.668 99.5273 272.065C100.461 273.463 100.959 275.105 100.959 276.786C100.958 279.038 100.063 281.199 98.4704 282.792C96.8774 284.385 94.717 285.28 92.4642 285.28ZM87.0339 276.332V279.843C87.5747 280.797 88.3572 281.594 89.3039 282.149V276.311L87.0339 276.332ZM91.2816 273.421V282.909C92.032 283.047 92.8013 283.047 93.5516 282.909V273.421H91.2816ZM97.8489 279.835V277.756H95.5808V282.125C96.5261 281.571 97.309 280.778 97.8508 279.826L97.8489 279.835Z" fill="white"/>
<path fill-rule="evenodd" clip-rule="evenodd" d="M212.769 261.909C214.554 260.05 217.039 258.899 219.785 258.899C223.445 258.899 226.618 260.933 228.326 263.963C229.842 263.285 231.485 262.935 233.145 262.936C239.734 262.936 245.083 268.325 245.083 274.974C245.083 281.624 239.734 287.013 233.145 287.013C232.34 287.013 231.555 286.932 230.786 286.779C229.292 289.443 226.435 291.253 223.181 291.253C221.856 291.256 220.548 290.955 219.358 290.375C217.843 293.934 214.314 296.435 210.207 296.435C205.916 296.435 202.276 293.73 200.873 289.927C200.248 290.059 199.611 290.125 198.973 290.125C193.869 290.125 189.741 285.936 189.741 280.791C189.741 277.334 191.599 274.324 194.357 272.697C193.772 271.35 193.471 269.896 193.472 268.427C193.472 262.489 198.292 257.689 204.23 257.689C207.707 257.689 210.819 259.347 212.771 261.919" fill="#00A1E0"/>
<path fill-rule="evenodd" clip-rule="evenodd" d="M197.802 277.771C197.767 277.861 197.814 277.88 197.825 277.896C197.929 277.972 198.035 278.026 198.141 278.087C198.706 278.386 199.239 278.474 199.796 278.474C200.931 278.474 201.636 277.87 201.636 276.898V276.879C201.636 275.98 200.839 275.652 200.095 275.418L199.997 275.387C199.434 275.204 198.948 275.045 198.948 274.675V274.656C198.948 274.339 199.233 274.105 199.672 274.105C200.16 274.105 200.742 274.268 201.114 274.473C201.114 274.473 201.224 274.544 201.264 274.438C201.286 274.38 201.476 273.873 201.496 273.816C201.518 273.756 201.48 273.711 201.441 273.688C201.014 273.428 200.424 273.251 199.814 273.251L199.701 273.251C198.662 273.251 197.936 273.88 197.936 274.778V274.798C197.936 275.745 198.737 276.054 199.485 276.268L199.606 276.305C200.151 276.473 200.622 276.619 200.622 277.001V277.02C200.622 277.372 200.315 277.634 199.823 277.634C199.632 277.634 199.022 277.631 198.361 277.213C198.281 277.167 198.236 277.133 198.174 277.095C198.141 277.076 198.06 277.04 198.025 277.147L197.801 277.769M214.415 277.769C214.381 277.86 214.428 277.879 214.439 277.895C214.543 277.97 214.649 278.024 214.755 278.086C215.32 278.385 215.853 278.472 216.41 278.472C217.545 278.472 218.25 277.868 218.25 276.896V276.877C218.25 275.978 217.455 275.651 216.709 275.417L216.611 275.385C216.048 275.203 215.562 275.044 215.562 274.673V274.655C215.562 274.337 215.847 274.103 216.286 274.103C216.774 274.103 217.354 274.266 217.728 274.472C217.728 274.472 217.838 274.543 217.878 274.436C217.9 274.379 218.09 273.871 218.108 273.814C218.13 273.755 218.092 273.71 218.053 273.686C217.626 273.426 217.036 273.249 216.426 273.249L216.313 273.25C215.274 273.25 214.548 273.878 214.548 274.777V274.796C214.548 275.744 215.349 276.053 216.097 276.266L216.218 276.304C216.765 276.471 217.234 276.617 217.234 276.999V277.018C217.234 277.37 216.927 277.633 216.435 277.633C216.243 277.633 215.632 277.629 214.973 277.212C214.893 277.165 214.846 277.133 214.786 277.094C214.765 277.081 214.669 277.043 214.637 277.145L214.413 277.767M225.76 275.864C225.76 276.413 225.658 276.846 225.457 277.153C225.257 277.456 224.955 277.605 224.534 277.605C224.113 277.605 223.812 277.457 223.615 277.155C223.416 276.85 223.316 276.415 223.316 275.866C223.316 275.317 223.417 274.886 223.615 274.583C223.812 274.282 224.111 274.137 224.534 274.137C224.957 274.137 225.258 274.283 225.457 274.583C225.659 274.886 225.76 275.317 225.76 275.866M226.708 274.847C226.615 274.532 226.47 274.255 226.277 274.024C226.083 273.792 225.84 273.605 225.549 273.47C225.26 273.335 224.918 273.267 224.532 273.267C224.146 273.267 223.806 273.336 223.515 273.47C223.226 273.605 222.98 273.792 222.787 274.024C222.594 274.255 222.45 274.532 222.356 274.847C222.264 275.16 222.217 275.502 222.217 275.866C222.217 276.23 222.264 276.572 222.356 276.885C222.449 277.2 222.594 277.477 222.787 277.708C222.981 277.94 223.226 278.125 223.515 278.257C223.806 278.389 224.148 278.456 224.532 278.456C224.916 278.456 225.258 278.389 225.547 278.257C225.836 278.126 226.082 277.94 226.275 277.708C226.468 277.477 226.612 277.2 226.706 276.885C226.798 276.572 226.845 276.23 226.845 275.866C226.845 275.504 226.798 275.16 226.706 274.847M234.495 277.45C234.463 277.358 234.374 277.393 234.374 277.393C234.236 277.445 234.089 277.494 233.932 277.519C233.774 277.543 233.599 277.556 233.414 277.556C232.956 277.556 232.59 277.419 232.33 277.149C232.067 276.879 231.921 276.444 231.923 275.854C231.924 275.317 232.054 274.914 232.287 274.605C232.517 274.3 232.871 274.142 233.338 274.142C233.729 274.142 234.028 274.187 234.341 274.285C234.341 274.285 234.415 274.317 234.451 274.219C234.534 273.99 234.595 273.825 234.685 273.573C234.71 273.501 234.648 273.47 234.625 273.461C234.503 273.413 234.213 273.335 233.993 273.301C233.788 273.27 233.55 273.254 233.281 273.254C232.883 273.254 232.529 273.322 232.226 273.457C231.923 273.592 231.667 273.778 231.463 274.01C231.26 274.242 231.105 274.519 231.002 274.834C230.899 275.147 230.847 275.491 230.847 275.855C230.847 276.64 231.059 277.276 231.477 277.742C231.896 278.209 232.527 278.445 233.348 278.445C233.834 278.445 234.333 278.347 234.691 278.205C234.691 278.205 234.759 278.172 234.729 278.093L234.495 277.45M236.153 275.335C236.198 275.03 236.282 274.776 236.413 274.579C236.61 274.278 236.909 274.113 237.33 274.113C237.751 274.113 238.03 274.279 238.229 274.579C238.361 274.777 238.419 275.04 238.44 275.335L236.143 275.335L236.153 275.335ZM239.345 274.664C239.265 274.361 239.065 274.054 238.935 273.914C238.727 273.692 238.526 273.536 238.325 273.45C238.034 273.327 237.721 273.263 237.405 273.264C237.005 273.264 236.641 273.331 236.346 273.469C236.051 273.608 235.803 273.796 235.608 274.032C235.413 274.268 235.266 274.547 235.173 274.866C235.079 275.181 235.032 275.527 235.032 275.889C235.032 276.259 235.081 276.603 235.177 276.914C235.275 277.227 235.431 277.502 235.643 277.729C235.854 277.959 236.125 278.138 236.45 278.264C236.774 278.389 237.166 278.454 237.615 278.453C238.543 278.45 239.031 278.243 239.23 278.131C239.266 278.111 239.299 278.077 239.257 277.978L239.048 277.39C239.016 277.303 238.927 277.334 238.927 277.334C238.697 277.42 238.372 277.574 237.609 277.572C237.111 277.572 236.743 277.425 236.511 277.194C236.275 276.958 236.157 276.615 236.139 276.126L239.352 276.129C239.352 276.129 239.437 276.128 239.445 276.046C239.449 276.011 239.555 275.387 239.35 274.665L239.345 274.664ZM210.469 275.335C210.514 275.03 210.598 274.776 210.729 274.579C210.926 274.278 211.225 274.113 211.646 274.113C212.067 274.113 212.346 274.279 212.545 274.579C212.677 274.777 212.735 275.04 212.756 275.335L210.458 275.335L210.469 275.335ZM213.661 274.664C213.581 274.361 213.381 274.054 213.251 273.914C213.043 273.692 212.842 273.536 212.64 273.45C212.35 273.327 212.037 273.263 211.721 273.264C211.321 273.264 210.957 273.331 210.662 273.469C210.367 273.608 210.119 273.796 209.924 274.032C209.729 274.268 209.582 274.547 209.488 274.866C209.395 275.181 209.348 275.527 209.348 275.889C209.348 276.259 209.397 276.603 209.494 276.914C209.591 277.227 209.748 277.502 209.957 277.729C210.169 277.959 210.439 278.138 210.765 278.264C211.088 278.389 211.478 278.454 211.93 278.453C212.857 278.45 213.345 278.243 213.545 278.131C213.58 278.111 213.614 278.077 213.572 277.978L213.362 277.39C213.33 277.303 213.241 277.334 213.241 277.334C213.011 277.42 212.686 277.574 211.923 277.572C211.427 277.572 211.057 277.425 210.825 277.194C210.589 276.958 210.471 276.615 210.453 276.126L213.666 276.129C213.666 276.129 213.751 276.128 213.76 276.046C213.763 276.011 213.87 275.387 213.664 274.665L213.661 274.664ZM203.534 277.43C203.408 277.329 203.391 277.305 203.349 277.239C203.285 277.141 203.253 277.002 203.253 276.823C203.253 276.542 203.346 276.339 203.54 276.202C203.538 276.203 203.816 275.962 204.471 275.971C204.762 275.976 205.053 276.001 205.341 276.045V277.503H205.342C205.342 277.503 204.935 277.59 204.475 277.618C203.823 277.657 203.534 277.43 203.536 277.431L203.534 277.43ZM204.811 275.173C204.681 275.163 204.512 275.158 204.311 275.158C204.036 275.158 203.77 275.192 203.522 275.26C203.272 275.327 203.046 275.432 202.853 275.571C202.659 275.709 202.5 275.89 202.387 276.099C202.273 276.311 202.216 276.559 202.216 276.84C202.216 277.124 202.265 277.37 202.363 277.572C202.458 277.771 202.602 277.944 202.781 278.074C202.96 278.204 203.18 278.3 203.434 278.357C203.686 278.414 203.971 278.443 204.284 278.443C204.614 278.443 204.941 278.416 205.258 278.362C205.529 278.316 205.798 278.263 206.066 278.205C206.173 278.181 206.291 278.148 206.291 278.148C206.371 278.128 206.365 278.043 206.365 278.043L206.363 275.115C206.363 274.472 206.191 273.994 205.852 273.7C205.515 273.405 205.021 273.256 204.38 273.256C204.14 273.256 203.752 273.289 203.52 273.335C203.52 273.335 202.82 273.471 202.532 273.697C202.532 273.697 202.468 273.736 202.503 273.825L202.73 274.435C202.759 274.514 202.836 274.487 202.836 274.487C202.836 274.487 202.86 274.477 202.888 274.461C203.505 274.125 204.285 274.135 204.285 274.135C204.631 274.135 204.9 274.205 205.079 274.343C205.254 274.477 205.343 274.68 205.343 275.107V275.243C205.068 275.203 204.814 275.18 204.814 275.18L204.811 275.173ZM230.638 273.519C230.642 273.509 230.645 273.497 230.645 273.485C230.645 273.474 230.643 273.462 230.638 273.451C230.634 273.44 230.627 273.431 230.619 273.423C230.61 273.414 230.6 273.408 230.589 273.404C230.535 273.383 230.262 273.325 230.053 273.312C229.65 273.287 229.426 273.355 229.225 273.445C229.026 273.535 228.806 273.679 228.684 273.846L228.684 273.456C228.684 273.402 228.646 273.359 228.591 273.359H227.77C227.717 273.359 227.678 273.402 227.678 273.456V278.234C227.678 278.26 227.688 278.285 227.707 278.303C227.725 278.322 227.75 278.332 227.775 278.332H228.617C228.643 278.332 228.668 278.322 228.686 278.303C228.704 278.285 228.714 278.26 228.714 278.234V275.835C228.714 275.514 228.75 275.194 228.82 274.993C228.89 274.794 228.985 274.635 229.101 274.521C229.212 274.411 229.348 274.33 229.498 274.283C229.638 274.243 229.783 274.223 229.929 274.223C230.096 274.223 230.281 274.266 230.281 274.266C230.342 274.273 230.377 274.235 230.398 274.179C230.453 274.033 230.609 273.593 230.64 273.506" fill="#FFFFFE"/>
<path fill-rule="evenodd" clip-rule="evenodd" d="M222.774 271.314C222.67 271.282 222.564 271.257 222.457 271.238C222.313 271.214 222.167 271.203 222.021 271.205C221.441 271.205 220.984 271.369 220.663 271.692C220.344 272.014 220.127 272.503 220.018 273.147L219.979 273.364H219.251C219.251 273.364 219.162 273.361 219.143 273.458L219.023 274.125C219.015 274.189 219.043 274.229 219.128 274.228H219.837L219.118 278.243C219.061 278.566 218.997 278.832 218.925 279.034C218.855 279.233 218.786 279.382 218.702 279.49C218.62 279.595 218.542 279.672 218.408 279.717C218.297 279.754 218.17 279.771 218.031 279.771C217.953 279.771 217.85 279.758 217.773 279.743C217.697 279.728 217.657 279.711 217.6 279.687C217.6 279.687 217.517 279.655 217.484 279.738C217.458 279.806 217.269 280.326 217.247 280.39C217.224 280.454 217.256 280.504 217.296 280.518C217.39 280.552 217.46 280.574 217.589 280.604C217.768 280.646 217.918 280.649 218.059 280.649C218.354 280.649 218.623 280.607 218.846 280.527C219.071 280.445 219.266 280.304 219.439 280.113C219.626 279.906 219.744 279.69 219.856 279.395C219.967 279.103 220.062 278.74 220.138 278.317L220.861 274.228H221.917C221.917 274.228 222.006 274.231 222.025 274.135L222.144 273.468C222.153 273.404 222.125 273.364 222.04 273.364H221.014C221.019 273.341 221.066 272.981 221.184 272.641C221.234 272.496 221.328 272.379 221.408 272.299C221.483 272.222 221.575 272.165 221.677 272.132C221.789 272.097 221.905 272.08 222.021 272.082C222.118 272.082 222.213 272.093 222.285 272.109C222.384 272.13 222.423 272.141 222.449 272.149C222.554 272.181 222.568 272.15 222.588 272.099L222.833 271.425C222.859 271.353 222.797 271.323 222.774 271.314ZM208.443 278.252C208.443 278.305 208.405 278.349 208.351 278.349H207.5C207.446 278.349 207.408 278.305 207.408 278.252V271.405C207.408 271.351 207.446 271.308 207.5 271.308H208.351C208.405 271.308 208.443 271.351 208.443 271.405V278.252Z" fill="#FFFFFE"/>
<path d="M366.127 247.416V306.335C366.127 307.799 364.94 309.025 363.436 309.025H346.698C345.234 309.025 344.008 307.838 344.008 306.335V247.416C344.008 245.952 345.195 244.726 346.698 244.726H363.436C364.9 244.765 366.127 245.952 366.127 247.416Z" fill="url(#paint0_linear_106_1502)"/>
<path d="M353.069 263.521V309.065H330.95V263.521C330.95 262.057 332.137 260.83 333.641 260.83H350.378C351.842 260.83 353.069 262.017 353.069 263.521Z" fill="url(#paint1_linear_106_1502)"/>
<path d="M317.892 279.586V306.374C317.892 307.838 319.079 309.065 320.583 309.065H340.011V279.586C340.011 278.122 338.824 276.895 337.321 276.895H320.583C319.119 276.895 317.892 278.082 317.892 279.586Z" fill="url(#paint2_linear_106_1502)"/>
<path d="M215.06 114.854C216.522 113.392 218.892 113.392 220.354 114.854L226.364 120.864C227.826 122.326 227.826 124.696 226.364 126.159L220.354 132.169C218.892 133.631 216.522 133.631 215.06 132.169L209.05 126.159C207.588 124.696 207.588 122.326 209.05 120.864L215.06 114.854Z" fill="#A950FF"/>
<path d="M242.741 114.806C244.177 113.37 246.505 113.37 247.941 114.806L254.045 120.911C255.481 122.347 255.481 124.675 254.045 126.111L247.941 132.215C246.505 133.651 244.177 133.651 242.741 132.215L236.636 126.111C235.2 124.675 235.2 122.347 236.636 120.911C238.072 119.475 242.741 114.806 242.741 114.806Z" fill="#A950FF"/>
<path d="M215.107 87.1731C216.543 85.7372 218.871 85.7372 220.307 87.1731L226.412 93.2778C227.848 94.7138 227.848 97.0418 226.412 98.4777L220.307 104.582C218.871 106.018 216.543 106.018 215.107 104.582L209.002 98.4778C207.566 97.0418 207.566 94.7138 209.002 93.2778L215.107 87.1731Z" fill="#E9C1FF"/>
<path d="M212.549 107.047C214.011 108.509 214.011 110.88 212.549 112.342L206.539 118.352C205.077 119.814 202.706 119.814 201.244 118.352L195.234 112.342C193.772 110.88 193.772 108.509 195.234 107.047L201.244 101.037C202.706 99.5753 205.077 99.5753 206.539 101.037L212.549 107.047Z" fill="#CD88FF"/>
<path d="M198.779 120.911C200.215 122.347 200.215 124.675 198.779 126.111L192.674 132.215C191.238 133.651 188.91 133.651 187.474 132.215L181.369 126.111C179.934 124.675 179.934 122.347 181.369 120.911L187.474 114.806C188.91 113.37 191.238 113.37 192.674 114.806L198.779 120.911Z" fill="#A950FF"/>
<path d="M240.181 107.047C241.643 108.509 241.643 110.88 240.181 112.342L234.171 118.352C232.709 119.814 230.339 119.814 228.877 118.352L222.867 112.342C221.405 110.88 221.405 108.509 222.867 107.047L228.877 101.037C230.339 99.5753 232.709 99.5753 234.171 101.037L240.181 107.047Z" fill="#CD88FF"/>
<path d="M223.622 146.518C226.888 149.784 226.888 155.08 223.622 158.347C220.355 161.613 215.059 161.613 211.793 158.347C208.527 155.08 208.527 149.784 211.793 146.518C215.059 143.252 220.355 143.252 223.622 146.518Z" fill="#F62E76"/>
<path d="M200.062 157.854L194.31 158.353L197.617 163.085L200.062 157.854ZM106.403 223.315L112.155 222.817L108.847 218.084L106.403 223.315ZM197.353 159.138L195.739 160.266L196.311 161.086L197.926 159.957L197.353 159.138ZM194.124 161.395L192.509 162.523L193.082 163.343L194.697 162.215L194.124 161.395ZM190.894 163.652L189.279 164.781L189.852 165.6L191.467 164.472L190.894 163.652ZM187.664 165.909L186.05 167.038L186.622 167.858L188.237 166.729L187.664 165.909ZM184.435 168.167L182.82 169.295L183.393 170.115L185.008 168.986L184.435 168.167ZM181.205 170.424L179.59 171.552L180.163 172.372L181.778 171.244L181.205 170.424ZM177.976 172.681L176.361 173.81L176.934 174.629L178.548 173.501L177.976 172.681ZM174.746 174.938L173.131 176.067L173.704 176.887L175.319 175.758L174.746 174.938ZM171.516 177.196L169.901 178.324L170.474 179.144L172.089 178.015L171.516 177.196ZM168.287 179.453L166.672 180.582L167.245 181.401L168.86 180.273L168.287 179.453ZM165.057 181.71L163.442 182.839L164.015 183.658L165.63 182.53L165.057 181.71ZM161.827 183.967L160.213 185.096L160.785 185.916L162.4 184.787L161.827 183.967ZM158.598 186.225L156.983 187.353L157.556 188.173L159.171 187.044L158.598 186.225ZM155.368 188.482L153.753 189.611L154.326 190.43L155.941 189.302L155.368 188.482ZM152.138 190.739L150.524 191.868L151.097 192.687L152.711 191.559L152.138 190.739ZM148.909 192.996L147.294 194.125L147.867 194.945L149.482 193.816L148.909 192.996ZM145.679 195.254L144.064 196.382L144.637 197.202L146.252 196.073L145.679 195.254ZM142.45 197.511L140.835 198.64L141.408 199.459L143.022 198.331L142.45 197.511ZM139.22 199.768L137.605 200.897L138.178 201.716L139.793 200.588L139.22 199.768ZM135.99 202.025L134.375 203.154L134.948 203.974L136.563 202.845L135.99 202.025ZM132.761 204.283L131.146 205.411L131.719 206.231L133.333 205.102L132.761 204.283ZM129.531 206.54L127.916 207.669L128.489 208.488L130.104 207.36L129.531 206.54ZM126.301 208.797L124.687 209.926L125.259 210.745L126.874 209.617L126.301 208.797ZM123.072 211.054L121.457 212.183L122.03 213.003L123.645 211.874L123.072 211.054ZM119.842 213.312L118.227 214.44L118.8 215.26L120.415 214.131L119.842 213.312ZM116.612 215.569L114.998 216.698L115.57 217.517L117.185 216.389L116.612 215.569ZM113.383 217.826L111.768 218.955L112.341 219.774L113.956 218.646L113.383 217.826ZM110.153 220.083L108.538 221.212L109.111 222.032L110.726 220.903L110.153 220.083ZM200.062 157.854L188.558 158.851L195.173 168.315L200.062 157.854ZM106.403 223.315L117.907 222.318L111.292 212.854L106.403 223.315ZM197.067 158.728L195.452 159.856L196.598 161.496L198.213 160.367L197.067 158.728ZM193.837 160.985L192.222 162.114L193.368 163.753L194.983 162.624L193.837 160.985ZM190.608 163.242L188.993 164.371L190.139 166.01L191.753 164.882L190.608 163.242ZM187.378 165.5L185.763 166.628L186.909 168.267L188.524 167.139L187.378 165.5ZM184.148 167.757L182.534 168.885L183.679 170.525L185.294 169.396L184.148 167.757ZM180.919 170.014L179.304 171.143L180.45 172.782L182.064 171.653L180.919 170.014ZM177.689 172.271L176.074 173.4L177.22 175.039L178.835 173.911L177.689 172.271ZM174.459 174.529L172.845 175.657L173.99 177.296L175.605 176.168L174.459 174.529ZM171.23 176.786L169.615 177.914L170.761 179.554L172.376 178.425L171.23 176.786ZM168 179.043L166.385 180.172L167.531 181.811L169.146 180.682L168 179.043ZM164.771 181.3L163.156 182.429L164.301 184.068L165.916 182.94L164.771 181.3ZM161.541 183.558L159.926 184.686L161.072 186.325L162.687 185.197L161.541 183.558ZM158.311 185.815L156.696 186.943L157.842 188.583L159.457 187.454L158.311 185.815ZM155.082 188.072L153.467 189.201L154.613 190.84L156.227 189.711L155.082 188.072ZM151.852 190.329L150.237 191.458L151.383 193.097L152.998 191.969L151.852 190.329ZM148.622 192.587L147.008 193.715L148.153 195.354L149.768 194.226L148.622 192.587ZM145.393 194.844L143.778 195.972L144.924 197.612L146.538 196.483L145.393 194.844ZM142.163 197.101L140.548 198.23L141.694 199.869L143.309 198.74L142.163 197.101ZM138.933 199.358L137.319 200.487L138.464 202.126L140.079 200.998L138.933 199.358ZM135.704 201.616L134.089 202.744L135.235 204.384L136.85 203.255L135.704 201.616ZM132.474 203.873L130.859 205.001L132.005 206.641L133.62 205.512L132.474 203.873ZM129.245 206.13L127.63 207.259L128.775 208.898L130.39 207.769L129.245 206.13ZM126.015 208.387L124.4 209.516L125.546 211.155L127.161 210.027L126.015 208.387ZM122.785 210.645L121.17 211.773L122.316 213.413L123.931 212.284L122.785 210.645ZM119.556 212.902L117.941 214.03L119.087 215.67L120.701 214.541L119.556 212.902ZM116.326 215.159L114.711 216.288L115.857 217.927L117.472 216.798L116.326 215.159ZM113.096 217.416L111.482 218.545L112.627 220.184L114.242 219.056L113.096 217.416ZM109.867 219.674L108.252 220.802L109.398 222.442L111.012 221.313L109.867 219.674Z" fill="url(#paint3_linear_106_1502)"/>
<path d="M233.096 157.854L235.478 163.114L238.842 158.421L233.096 157.854ZM324.415 223.315L322.033 218.056L318.669 222.748L324.415 223.315ZM235.251 160.014L236.882 161.183L237.464 160.37L235.834 159.202L235.251 160.014ZM238.512 162.352L240.143 163.521L240.726 162.708L239.095 161.539L238.512 162.352ZM241.774 164.69L243.404 165.859L243.987 165.046L242.356 163.877L241.774 164.69ZM245.035 167.028L246.666 168.197L247.248 167.384L245.618 166.215L245.035 167.028ZM248.296 169.366L249.927 170.535L250.51 169.722L248.879 168.553L248.296 169.366ZM251.558 171.704L253.188 172.873L253.771 172.06L252.14 170.891L251.558 171.704ZM254.819 174.041L256.45 175.21L257.032 174.398L255.402 173.229L254.819 174.041ZM258.081 176.379L259.711 177.548L260.294 176.736L258.663 175.567L258.081 176.379ZM261.342 178.717L262.973 179.886L263.555 179.073L261.925 177.904L261.342 178.717ZM264.603 181.055L266.234 182.224L266.817 181.411L265.186 180.242L264.603 181.055ZM267.865 183.393L269.495 184.562L270.078 183.749L268.447 182.58L267.865 183.393ZM271.126 185.731L272.757 186.9L273.339 186.087L271.709 184.918L271.126 185.731ZM274.387 188.069L276.018 189.238L276.601 188.425L274.97 187.256L274.387 188.069ZM277.649 190.407L279.279 191.576L279.862 190.763L278.231 189.594L277.649 190.407ZM280.91 192.744L282.541 193.913L283.123 193.101L281.493 191.932L280.91 192.744ZM284.172 195.082L285.802 196.251L286.385 195.438L284.754 194.27L284.172 195.082ZM287.433 197.42L289.064 198.589L289.646 197.776L288.016 196.607L287.433 197.42ZM290.694 199.758L292.325 200.927L292.908 200.114L291.277 198.945L290.694 199.758ZM293.956 202.096L295.586 203.265L296.169 202.452L294.538 201.283L293.956 202.096ZM297.217 204.434L298.848 205.603L299.43 204.79L297.8 203.621L297.217 204.434ZM300.478 206.772L302.109 207.941L302.692 207.128L301.061 205.959L300.478 206.772ZM303.74 209.11L305.37 210.278L305.953 209.466L304.322 208.297L303.74 209.11ZM307.001 211.447L308.632 212.616L309.214 211.804L307.584 210.635L307.001 211.447ZM310.263 213.785L311.893 214.954L312.476 214.141L310.845 212.973L310.263 213.785ZM313.524 216.123L315.155 217.292L315.737 216.479L314.107 215.31L313.524 216.123ZM316.785 218.461L318.416 219.63L318.999 218.817L317.368 217.648L316.785 218.461ZM320.047 220.799L321.677 221.968L322.26 221.155L320.629 219.986L320.047 220.799ZM233.096 157.854L237.86 168.373L244.587 158.988L233.096 157.854ZM324.415 223.315L319.651 212.796L312.923 222.181L324.415 223.315ZM234.96 160.421L236.59 161.59L237.756 159.964L236.125 158.795L234.96 160.421ZM238.221 162.759L239.852 163.927L241.017 162.302L239.386 161.133L238.221 162.759ZM241.482 165.096L243.113 166.265L244.278 164.64L242.648 163.471L241.482 165.096ZM244.744 167.434L246.374 168.603L247.54 166.978L245.909 165.809L244.744 167.434ZM248.005 169.772L249.636 170.941L250.801 169.316L249.17 168.147L248.005 169.772ZM251.266 172.11L252.897 173.279L254.062 171.653L252.432 170.484L251.266 172.11ZM254.528 174.448L256.159 175.617L257.324 173.991L255.693 172.822L254.528 174.448ZM257.789 176.786L259.42 177.955L260.585 176.329L258.954 175.16L257.789 176.786ZM261.051 179.124L262.681 180.293L263.847 178.667L262.216 177.498L261.051 179.124ZM264.312 181.461L265.943 182.63L267.108 181.005L265.477 179.836L264.312 181.461ZM267.573 183.799L269.204 184.968L270.369 183.343L268.739 182.174L267.573 183.799ZM270.835 186.137L272.465 187.306L273.631 185.681L272 184.512L270.835 186.137ZM274.096 188.475L275.727 189.644L276.892 188.019L275.261 186.85L274.096 188.475ZM277.357 190.813L278.988 191.982L280.153 190.356L278.523 189.187L277.357 190.813ZM280.619 193.151L282.25 194.32L283.415 192.694L281.784 191.525L280.619 193.151ZM283.88 195.489L285.511 196.658L286.676 195.032L285.045 193.863L283.88 195.489ZM287.142 197.827L288.772 198.995L289.938 197.37L288.307 196.201L287.142 197.827ZM290.403 200.164L292.034 201.333L293.199 199.708L291.568 198.539L290.403 200.164ZM293.664 202.502L295.295 203.671L296.46 202.046L294.83 200.877L293.664 202.502ZM296.926 204.84L298.556 206.009L299.722 204.384L298.091 203.215L296.926 204.84ZM300.187 207.178L301.818 208.347L302.983 206.721L301.352 205.553L300.187 207.178ZM303.448 209.516L305.079 210.685L306.244 209.059L304.614 207.89L303.448 209.516ZM306.71 211.854L308.341 213.023L309.506 211.397L307.875 210.228L306.71 211.854ZM309.971 214.192L311.602 215.361L312.767 213.735L311.136 212.566L309.971 214.192ZM313.233 216.53L314.863 217.698L316.029 216.073L314.398 214.904L313.233 216.53ZM316.494 218.867L318.125 220.036L319.29 218.411L317.659 217.242L316.494 218.867ZM319.755 221.205L321.386 222.374L322.551 220.749L320.921 219.58L319.755 221.205Z" fill="url(#paint4_linear_106_1502)"/>
<path d="M217.707 167.94L220.594 172.94L214.821 172.94L217.707 167.94ZM217.707 223.314L214.821 218.314L220.594 218.314L217.707 223.314ZM218.207 170.907L218.207 172.884L217.207 172.884L217.207 170.907L218.207 170.907ZM218.207 174.862L218.207 176.84L217.207 176.84L217.207 174.862L218.207 174.862ZM218.207 178.817L218.207 180.795L217.207 180.795L217.207 178.817L218.207 178.817ZM218.207 182.773L218.207 184.75L217.207 184.75L217.207 182.773L218.207 182.773ZM218.207 186.728L218.207 188.706L217.207 188.706L217.207 186.728L218.207 186.728ZM218.207 190.683L218.207 192.661L217.207 192.661L217.207 190.683L218.207 190.683ZM218.207 194.639L218.207 196.616L217.207 196.616L217.207 194.639L218.207 194.639ZM218.207 198.594L218.207 200.571L217.207 200.571L217.207 198.594L218.207 198.594ZM218.207 202.549L218.207 204.527L217.207 204.527L217.207 202.549L218.207 202.549ZM218.207 206.504L218.207 208.482L217.207 208.482L217.207 206.504L218.207 206.504ZM218.207 210.46L218.207 212.437L217.207 212.437L217.207 210.46L218.207 210.46ZM218.207 214.415L218.207 216.393L217.207 216.393L217.207 214.415L218.207 214.415ZM218.207 218.37L218.207 220.348L217.207 220.348L217.207 218.37L218.207 218.37ZM217.707 167.94L223.481 177.94L211.934 177.94L217.707 167.94ZM217.707 223.314L211.934 213.314L223.481 213.314L217.707 223.314ZM218.707 170.907L218.707 172.884L216.707 172.884L216.707 170.907L218.707 170.907ZM218.707 174.862L218.707 176.84L216.707 176.84L216.707 174.862L218.707 174.862ZM218.707 178.817L218.707 180.795L216.707 180.795L216.707 178.817L218.707 178.817ZM218.707 182.773L218.707 184.75L216.707 184.75L216.707 182.773L218.707 182.773ZM218.707 186.728L218.707 188.706L216.707 188.706L216.707 186.728L218.707 186.728ZM218.707 190.683L218.707 192.661L216.707 192.661L216.707 190.683L218.707 190.683ZM218.707 194.639L218.707 196.616L216.707 196.616L216.707 194.639L218.707 194.639ZM218.707 198.594L218.707 200.571L216.707 200.571L216.707 198.594L218.707 198.594ZM218.707 202.549L218.707 204.527L216.707 204.527L216.707 202.549L218.707 202.549ZM218.707 206.504L218.707 208.482L216.707 208.482L216.707 206.504L218.707 206.504ZM218.707 210.46L218.707 212.437L216.707 212.437L216.707 210.46L218.707 210.46ZM218.707 214.415L218.707 216.393L216.707 216.393L216.707 214.415L218.707 214.415ZM218.707 218.37L218.707 220.348L216.707 220.348L216.707 218.37L218.707 218.37Z" fill="url(#paint5_linear_106_1502)"/>
<defs>
<filter id="filter0_b_106_1502" x="-5.92171" y="3.00798" width="442.817" height="340.826" filterUnits="userSpaceOnUse" color-interpolation-filters="sRGB">
<feFlood flood-opacity="0" result="BackgroundImageFix"/>
<feGaussianBlur in="BackgroundImageFix" stdDeviation="3.21085"/>
<feComposite in2="SourceAlpha" operator="in" result="effect1_backgroundBlur_106_1502"/>
<feBlend mode="normal" in="SourceGraphic" in2="effect1_backgroundBlur_106_1502" result="shape"/>
</filter>
<filter id="filter1_b_106_1502" x="4.78451" y="51.3446" width="421.023" height="144.204" filterUnits="userSpaceOnUse" color-interpolation-filters="sRGB">
<feFlood flood-opacity="0" result="BackgroundImageFix"/>
<feGaussianBlur in="BackgroundImageFix" stdDeviation="4.78816"/>
<feComposite in2="SourceAlpha" operator="in" result="effect1_backgroundBlur_106_1502"/>
<feBlend mode="normal" in="SourceGraphic" in2="effect1_backgroundBlur_106_1502" result="shape"/>
</filter>
<linearGradient id="paint0_linear_106_1502" x1="309.937" y1="244.739" x2="324.671" y2="314.926" gradientUnits="userSpaceOnUse">
<stop stop-color="#E6AD10"/>
<stop offset="1" stop-color="#C87E0E"/>
</linearGradient>
<linearGradient id="paint1_linear_106_1502" x1="315.272" y1="245.523" x2="337.039" y2="316.695" gradientUnits="userSpaceOnUse">
<stop stop-color="#F6D751"/>
<stop offset="1" stop-color="#E6AD10"/>
</linearGradient>
<linearGradient id="paint2_linear_106_1502" x1="321.734" y1="275.327" x2="334.586" y2="306.736" gradientUnits="userSpaceOnUse">
<stop stop-color="#F9E589"/>
<stop offset="1" stop-color="#F6D751"/>
</linearGradient>
<linearGradient id="paint3_linear_106_1502" x1="199.489" y1="157.035" x2="133.968" y2="196.694" gradientUnits="userSpaceOnUse">
<stop offset="0.03125" stop-color="#E151F7"/>
<stop offset="0.96875" stop-color="#5C47F5"/>
</linearGradient>
<linearGradient id="paint4_linear_106_1502" x1="232.514" y1="158.667" x2="290.764" y2="206.406" gradientUnits="userSpaceOnUse">
<stop offset="0.03125" stop-color="#E151F7"/>
<stop offset="0.96875" stop-color="#5C47F5"/>
</linearGradient>
<linearGradient id="paint5_linear_106_1502" x1="217.707" y1="167.94" x2="233.971" y2="177.506" gradientUnits="userSpaceOnUse">
<stop offset="0.03125" stop-color="#E151F7"/>
<stop offset="0.96875" stop-color="#5C47F5"/>
</linearGradient>
</defs>
</svg>
