<svg width="431" height="347" viewBox="0 0 431 347" fill="none" xmlns="http://www.w3.org/2000/svg">
<g filter="url(#filter0_b_6653_3894)">
<rect x="0.5" y="10.3018" width="429.974" height="327.982" rx="8" fill="#D9D9D9" fill-opacity="0.16"/>
<rect x="0.958693" y="10.7605" width="429.056" height="327.065" rx="7.54131" stroke="#FFF4F4" stroke-opacity="0.9" stroke-width="0.917387" stroke-dasharray="1.83 1.83"/>
</g>
<path d="M417.134 327.467L417.28 331.986C417.369 334.75 419.297 336.967 421.7 337.068L425.743 337.238L421.7 337.408C419.297 337.509 417.369 339.726 417.28 342.49L417.134 347.009L416.989 342.49C416.9 339.726 414.972 337.509 412.568 337.408L408.526 337.238L412.568 337.068C414.971 336.967 416.9 334.75 416.989 331.986L417.134 327.467Z" fill="white"/>
<rect x="44.7618" y="233.872" width="96.0625" height="87.8286" rx="10.9786" fill="black"/>
<rect x="45.448" y="234.558" width="94.6902" height="86.4563" rx="10.2924" stroke="#ACAAFF" stroke-opacity="0.5" stroke-width="1.37232"/>
<rect x="169.359" y="233.872" width="96.0625" height="87.8286" rx="10.9786" fill="black"/>
<rect x="170.046" y="234.558" width="94.6902" height="86.4563" rx="10.2924" stroke="#ACAAFF" stroke-opacity="0.5" stroke-width="1.37232"/>
<rect x="293.957" y="233.872" width="96.0625" height="87.8286" rx="10.9786" fill="black"/>
<rect x="294.643" y="234.558" width="94.6902" height="86.4563" rx="10.2924" stroke="#ACAAFF" stroke-opacity="0.5" stroke-width="1.37232"/>
<g filter="url(#filter1_b_6653_3894)">
<rect x="14.361" y="61.7927" width="401.87" height="125.051" rx="8" fill="black" fill-opacity="0.53"/>
<rect x="15.045" y="62.4767" width="400.502" height="123.683" rx="7.31598" stroke="#FFF4F4" stroke-opacity="0.3" stroke-width="1.36805"/>
</g>
<path d="M165.39 36.7888C166.083 36.7888 166.65 37.3557 166.65 38.0485C166.65 38.7413 166.083 39.3082 165.39 39.3082C164.697 39.3082 164.13 38.7413 164.13 38.0485C164.13 37.3557 164.697 36.7888 165.39 36.7888ZM165.39 34.2695C163.299 34.2695 161.611 35.9574 161.611 38.0485C161.611 40.1395 163.299 41.8275 165.39 41.8275C167.481 41.8275 169.169 40.1395 169.169 38.0485C169.169 35.9574 167.481 34.2695 165.39 34.2695ZM176.097 31.7501L177.47 28.7143L180.506 27.3412L177.47 25.9682L176.097 22.9324L174.724 25.9682L171.688 27.3412L174.724 28.7143L176.097 31.7501ZM179.599 36.4361L178.616 34.2695L177.634 36.4361L175.467 37.4186L177.634 38.4012L178.616 40.5678L179.599 38.4012L181.766 37.4186L179.599 36.4361ZM173.263 38.0485C173.263 37.8973 173.263 37.7336 173.25 37.5824L175.694 35.7307L172.545 30.2763L169.723 31.4604C169.471 31.2966 169.194 31.1329 168.917 30.9943L168.539 27.9711H162.241L161.863 31.0069C161.586 31.1455 161.321 31.3092 161.057 31.473L158.235 30.2763L155.086 35.7307L157.529 37.5824C157.517 37.7336 157.517 37.8973 157.517 38.0485C157.517 38.1996 157.517 38.3634 157.529 38.5146L155.086 40.3663L158.235 45.8207L161.057 44.6366C161.308 44.8003 161.586 44.9641 161.863 45.1027L162.241 48.1259H168.539L168.917 45.0901C169.194 44.9515 169.459 44.8003 169.723 44.624L172.545 45.8081L175.694 40.3537L173.25 38.502C173.263 38.3634 173.263 38.1996 173.263 38.0485ZM171.474 42.6337L169.295 41.7141C168.589 42.4699 167.657 43.0242 166.612 43.2635L166.309 45.6065H164.47L164.181 43.2635C163.135 43.0242 162.203 42.4699 161.497 41.7141L159.318 42.6337L158.399 41.0339L160.276 39.6105C160.124 39.1192 160.049 38.6027 160.049 38.0611C160.049 37.5194 160.124 37.0029 160.276 36.5117L158.399 35.0882L159.318 33.4885L161.497 34.408C162.203 33.6522 163.135 33.098 164.181 32.8586L164.47 30.4904H166.322L166.612 32.8334C167.657 33.0728 168.589 33.627 169.295 34.3828L171.474 33.4633L172.394 35.063L170.517 36.4865C170.668 36.9778 170.743 37.4942 170.743 38.0359C170.743 38.5775 170.668 39.094 170.517 39.5853L172.394 41.0087L171.474 42.6337Z" fill="white"/>
<path d="M193.002 40.0298L196.788 29.6024H198.108L201.886 40.0298H200.725L199.651 37.0588H195.238L194.156 40.0298H193.002ZM195.555 35.9915H199.326L197.437 30.713L195.555 35.9915ZM206.317 40.174C205.918 40.1692 205.546 40.1139 205.2 40.0082C204.854 39.8976 204.548 39.7365 204.284 39.525C204.024 39.3087 203.82 39.0419 203.671 38.7246C203.527 38.4025 203.455 38.0299 203.455 37.6068V32.5734H204.58V37.5059C204.58 38.0299 204.738 38.4553 205.055 38.7823C205.373 39.1044 205.861 39.2654 206.519 39.2654C207.106 39.2654 207.577 39.114 207.933 38.8111C208.288 38.5034 208.466 38.0395 208.466 37.4193V32.5734H209.584V40.0298H208.675L208.56 38.6164C208.474 38.9721 208.322 39.2654 208.106 39.4962C207.894 39.7269 207.635 39.9 207.327 40.0154C207.024 40.1259 206.688 40.1788 206.317 40.174ZM214.49 40.0586C214.014 40.0586 213.644 39.9913 213.38 39.8567C213.12 39.7221 212.937 39.5226 212.832 39.2582C212.726 38.9938 212.673 38.6621 212.673 38.263V33.4171H211.461V32.5734H212.702L212.969 30.4245H213.805V32.5662H215.493V33.4171H213.805V38.227C213.805 38.5154 213.832 38.727 213.884 38.8616C213.942 38.9914 214.041 39.0755 214.18 39.114C214.324 39.1476 214.524 39.1644 214.779 39.1644H215.543V39.9433C215.452 39.9769 215.315 40.0057 215.132 40.0298C214.954 40.049 214.74 40.0586 214.49 40.0586ZM220.131 40.174C219.453 40.174 218.862 40.0298 218.357 39.7413C217.853 39.4481 217.461 39.0154 217.182 38.4433C216.903 37.8712 216.764 37.167 216.764 36.3305C216.764 35.5517 216.891 34.869 217.146 34.2825C217.401 33.696 217.778 33.2417 218.278 32.9196C218.783 32.5927 219.401 32.4292 220.131 32.4292C220.804 32.4292 221.391 32.5782 221.891 32.8763C222.391 33.1696 222.778 33.607 223.052 34.1887C223.331 34.7656 223.47 35.4795 223.47 36.3305C223.47 37.09 223.343 37.7583 223.088 38.3352C222.838 38.9121 222.465 39.364 221.97 39.6909C221.48 40.013 220.867 40.174 220.131 40.174ZM220.131 39.2654C220.598 39.2654 220.997 39.15 221.328 38.9193C221.66 38.6885 221.912 38.352 222.086 37.9097C222.259 37.4674 222.345 36.9314 222.345 36.3016C222.345 35.7343 222.268 35.2271 222.114 34.7801C221.965 34.333 221.727 33.982 221.4 33.7272C221.074 33.4676 220.651 33.3378 220.131 33.3378C219.66 33.3378 219.256 33.4532 218.92 33.684C218.583 33.9099 218.326 34.244 218.148 34.6863C217.975 35.1286 217.889 35.667 217.889 36.3016C217.889 36.8689 217.966 37.3761 218.119 37.8232C218.273 38.2655 218.516 38.6164 218.848 38.876C219.179 39.1356 219.607 39.2654 220.131 39.2654ZM225.323 40.0298V32.5734H226.405V33.6623C226.602 33.3306 226.876 33.0422 227.227 32.797C227.583 32.5518 228.049 32.4292 228.626 32.4292C228.905 32.4292 229.186 32.4749 229.47 32.5662C229.753 32.6576 230.013 32.7946 230.249 32.9773C230.484 33.1599 230.664 33.3859 230.789 33.6551C231.02 33.2801 231.333 32.9821 231.727 32.7609C232.121 32.5398 232.568 32.4292 233.068 32.4292C233.328 32.4292 233.597 32.4677 233.876 32.5446C234.159 32.6215 234.424 32.7585 234.669 32.9556C234.914 33.1479 235.111 33.4244 235.26 33.7849C235.414 34.1407 235.491 34.5998 235.491 35.1622V40.0298H234.366V35.2632C234.366 34.768 234.289 34.3882 234.135 34.1238C233.982 33.8546 233.782 33.6671 233.537 33.5614C233.292 33.4556 233.03 33.4027 232.751 33.4027C232.501 33.4027 232.236 33.4508 231.958 33.5469C231.684 33.6383 231.448 33.7993 231.251 34.0301C231.059 34.2609 230.962 34.5805 230.962 34.9892V40.0298H229.838V34.8161C229.838 34.5036 229.753 34.244 229.585 34.0373C229.422 33.8258 229.217 33.6671 228.972 33.5614C228.727 33.4556 228.482 33.4027 228.237 33.4027C227.967 33.4027 227.693 33.4556 227.415 33.5614C227.141 33.6671 226.91 33.8378 226.722 34.0734C226.54 34.3089 226.448 34.6142 226.448 34.9892V40.0298H225.323ZM239.724 40.174C239.238 40.174 238.81 40.0899 238.44 39.9216C238.075 39.7485 237.789 39.5034 237.582 39.1861C237.38 38.8688 237.279 38.4866 237.279 38.0395C237.279 37.2126 237.563 36.5997 238.13 36.2007C238.697 35.8016 239.613 35.5853 240.877 35.5516L242.312 35.5084V34.8882C242.312 34.4027 242.166 34.0157 241.873 33.7272C241.579 33.434 241.125 33.2897 240.51 33.2946C240.048 33.2946 239.647 33.4027 239.305 33.6191C238.969 33.8306 238.755 34.1719 238.664 34.643H237.64C237.668 34.1767 237.798 33.7801 238.029 33.4532C238.265 33.1215 238.596 32.8691 239.024 32.696C239.452 32.5182 239.964 32.4292 240.56 32.4292C241.18 32.4292 241.699 32.5206 242.118 32.7032C242.541 32.8811 242.86 33.1503 243.077 33.5109C243.293 33.8666 243.401 34.3089 243.401 34.8377V40.0298H242.435L242.356 38.5948C242.058 39.1861 241.678 39.5971 241.216 39.8279C240.76 40.0586 240.262 40.174 239.724 40.174ZM240.041 39.3303C240.305 39.3303 240.572 39.2822 240.841 39.1861C241.111 39.0899 241.356 38.9577 241.577 38.7895C241.798 38.6212 241.976 38.4337 242.111 38.227C242.245 38.0203 242.312 37.8087 242.312 37.5924V36.2656L241.115 36.2872C240.486 36.2968 239.969 36.3593 239.565 36.4747C239.161 36.5901 238.863 36.7679 238.671 37.0083C238.478 37.2439 238.382 37.554 238.382 37.9385C238.382 38.376 238.536 38.7174 238.844 38.9625C239.152 39.2077 239.551 39.3303 240.041 39.3303ZM247.87 40.0586C247.394 40.0586 247.024 39.9913 246.759 39.8567C246.5 39.7221 246.317 39.5226 246.211 39.2582C246.106 38.9938 246.053 38.6621 246.053 38.263V33.4171H244.841V32.5734H246.082L246.348 30.4245H247.185V32.5662H248.872V33.4171H247.185V38.227C247.185 38.5154 247.211 38.727 247.264 38.8616C247.322 38.9914 247.42 39.0755 247.56 39.114C247.704 39.1476 247.904 39.1644 248.158 39.1644H248.923V39.9433C248.831 39.9769 248.694 40.0057 248.512 40.0298C248.334 40.049 248.12 40.0586 247.87 40.0586ZM253.677 40.174C252.994 40.174 252.391 40.025 251.867 39.7269C251.348 39.424 250.942 38.989 250.648 38.4217C250.355 37.8544 250.208 37.1718 250.208 36.3737C250.208 35.5805 250.341 34.8882 250.605 34.2969C250.869 33.7008 251.254 33.2417 251.759 32.9196C252.264 32.5927 252.872 32.4292 253.583 32.4292C254.271 32.4292 254.852 32.5782 255.328 32.8763C255.804 33.1696 256.167 33.5902 256.417 34.1383C256.667 34.6863 256.792 35.3401 256.792 36.0997V36.5612H251.362C251.357 37.0612 251.437 37.5155 251.6 37.9241C251.768 38.3328 252.023 38.6597 252.365 38.9048C252.706 39.15 253.136 39.2726 253.655 39.2726C254.165 39.2726 254.602 39.1548 254.968 38.9193C255.333 38.6789 255.562 38.34 255.653 37.9025H256.735C256.643 38.4025 256.444 38.8207 256.136 39.1572C255.828 39.4938 255.458 39.7485 255.025 39.9216C254.598 40.0899 254.148 40.174 253.677 40.174ZM251.369 35.7608H255.696C255.696 35.2993 255.619 34.8834 255.465 34.5132C255.312 34.1431 255.076 33.8498 254.759 33.6335C254.446 33.4171 254.05 33.309 253.569 33.309C253.064 33.309 252.648 33.4316 252.321 33.6767C251.994 33.9171 251.752 34.2248 251.593 34.5998C251.439 34.9748 251.365 35.3618 251.369 35.7608Z" fill="white"/>
<path d="M38.3606 0.87207L38.5062 5.39053C38.5952 8.15491 40.5235 10.3719 42.9267 10.4729L46.9693 10.6429L42.9267 10.8129C40.5235 10.9139 38.5952 13.1309 38.5062 15.8953L38.3606 20.4137L38.215 15.8953C38.1259 13.1309 36.1977 10.9139 33.7945 10.8129L29.7518 10.6429L33.7945 10.4729C36.1977 10.3719 38.1259 8.15491 38.215 5.39053L38.3606 0.87207Z" fill="white"/>
<path d="M75.8035 303.368L62.2865 279.956C61.5642 278.705 61.5642 277.163 62.2865 275.913L75.8035 252.501C76.5249 251.252 77.857 250.482 79.2988 250.48H106.345C107.782 250.487 109.108 251.256 109.826 252.501L123.341 275.913C124.064 277.163 124.064 278.705 123.341 279.956L109.824 303.368C109.103 304.618 107.771 305.388 106.329 305.389H79.2891C77.8492 305.385 76.522 304.615 75.8006 303.368H75.8035Z" fill="#4386FA"/>
<path d="M101.258 270.395C101.258 270.395 105.015 279.408 99.8927 284.517C94.7702 289.626 85.4427 286.356 85.4427 286.356L104.416 305.382H106.342C107.785 305.38 109.117 304.609 109.838 303.36L118.786 287.867L101.258 270.395Z" fill="#3C79E1"/>
<path d="M105.695 288.837L101.552 284.685C101.507 284.639 101.455 284.599 101.399 284.568C103.161 282.298 103.991 279.442 103.721 276.581C103.451 273.72 102.1 271.07 99.9432 269.171C97.7869 267.271 94.9876 266.265 92.1154 266.358C89.2433 266.451 86.5146 267.635 84.4851 269.669C82.4557 271.704 81.2782 274.435 81.1927 277.308C81.1071 280.18 82.1199 282.977 84.0247 285.129C85.9295 287.28 88.5829 288.625 91.4444 288.888C94.3059 289.151 97.1602 288.314 99.4257 286.546C99.4553 286.6 99.4922 286.649 99.5354 286.692L103.688 290.844C103.81 290.966 103.975 291.035 104.148 291.035C104.32 291.035 104.485 290.966 104.607 290.844L105.695 289.757C105.817 289.635 105.885 289.47 105.885 289.297C105.885 289.125 105.817 288.959 105.695 288.837ZM92.4643 286.152C90.784 286.152 89.1413 285.654 87.7441 284.721C86.3469 283.787 85.2579 282.46 84.6148 280.908C83.9716 279.356 83.8033 277.647 84.1311 275.999C84.4588 274.351 85.268 272.837 86.4562 271.649C87.6443 270.461 89.1582 269.652 90.8062 269.324C92.4542 268.996 94.1625 269.165 95.7149 269.808C97.2672 270.451 98.594 271.54 99.5275 272.937C100.461 274.334 100.959 275.977 100.959 277.657C100.959 279.91 100.064 282.071 98.4705 283.664C96.8776 285.257 94.7171 286.152 92.4643 286.152ZM87.034 277.204V280.715C87.5748 281.669 88.3574 282.465 89.304 283.021V277.183L87.034 277.204ZM91.2817 274.293V283.781C92.0321 283.919 92.8014 283.919 93.5517 283.781V274.293H91.2817ZM97.849 280.707V278.627H95.5809V282.996C96.5262 282.443 97.3091 281.65 97.8509 280.697L97.849 280.707Z" fill="white"/>
<path fill-rule="evenodd" clip-rule="evenodd" d="M212.769 262.781C214.554 260.922 217.039 259.771 219.785 259.771C223.445 259.771 226.618 261.804 228.326 264.834C229.842 264.157 231.485 263.807 233.145 263.808C239.734 263.808 245.083 269.196 245.083 275.846C245.083 282.496 239.734 287.885 233.145 287.885C232.34 287.885 231.555 287.804 230.786 287.651C229.292 290.315 226.435 292.125 223.181 292.125C221.856 292.128 220.548 291.827 219.358 291.247C217.843 294.805 214.314 297.307 210.207 297.307C205.916 297.307 202.276 294.602 200.873 290.799C200.248 290.931 199.611 290.997 198.973 290.997C193.869 290.997 189.741 286.808 189.741 281.663C189.741 278.206 191.599 275.196 194.357 273.569C193.772 272.221 193.471 270.768 193.472 269.299C193.472 263.361 198.292 258.561 204.23 258.561C207.707 258.561 210.819 260.219 212.771 262.791" fill="#00A1E0"/>
<path fill-rule="evenodd" clip-rule="evenodd" d="M197.802 278.642C197.767 278.733 197.814 278.752 197.825 278.768C197.929 278.843 198.035 278.898 198.141 278.959C198.706 279.258 199.239 279.345 199.796 279.345C200.931 279.345 201.636 278.741 201.636 277.769V277.75C201.636 276.851 200.839 276.524 200.095 276.29L199.997 276.259C199.434 276.076 198.948 275.917 198.948 275.547V275.528C198.948 275.211 199.233 274.977 199.672 274.977C200.16 274.977 200.742 275.139 201.114 275.345C201.114 275.345 201.224 275.416 201.264 275.31C201.286 275.252 201.476 274.744 201.496 274.688C201.518 274.628 201.48 274.583 201.441 274.56C201.014 274.3 200.424 274.123 199.814 274.123L199.701 274.123C198.662 274.123 197.936 274.751 197.936 275.65V275.67C197.936 276.617 198.737 276.926 199.485 277.14L199.606 277.177C200.151 277.345 200.622 277.49 200.622 277.873V277.892C200.622 278.244 200.315 278.506 199.823 278.506C199.632 278.506 199.022 278.503 198.361 278.085C198.281 278.038 198.236 278.005 198.174 277.967C198.141 277.948 198.06 277.912 198.025 278.019L197.801 278.641M214.415 278.641C214.381 278.732 214.428 278.75 214.439 278.767C214.543 278.842 214.649 278.896 214.755 278.957C215.32 279.256 215.853 279.344 216.41 279.344C217.545 279.344 218.25 278.74 218.25 277.768V277.749C218.25 276.85 217.455 276.522 216.709 276.289L216.611 276.257C216.048 276.074 215.562 275.915 215.562 275.545V275.526C215.562 275.209 215.847 274.975 216.286 274.975C216.774 274.975 217.354 275.138 217.728 275.343C217.728 275.343 217.838 275.415 217.878 275.308C217.9 275.251 218.09 274.743 218.108 274.686C218.13 274.626 218.092 274.581 218.053 274.558C217.626 274.298 217.036 274.121 216.426 274.121L216.313 274.121C215.274 274.121 214.548 274.75 214.548 275.649V275.668C214.548 276.616 215.349 276.925 216.097 277.138L216.218 277.176C216.765 277.343 217.234 277.489 217.234 277.871V277.89C217.234 278.242 216.927 278.504 216.435 278.504C216.243 278.504 215.632 278.501 214.973 278.083C214.893 278.037 214.846 278.005 214.786 277.966C214.765 277.953 214.669 277.915 214.637 278.017L214.413 278.639M225.76 276.736C225.76 277.285 225.658 277.718 225.457 278.025C225.257 278.328 224.955 278.477 224.534 278.477C224.113 278.477 223.812 278.329 223.615 278.027C223.416 277.722 223.316 277.287 223.316 276.738C223.316 276.189 223.417 275.758 223.615 275.455C223.812 275.154 224.111 275.009 224.534 275.009C224.957 275.009 225.258 275.155 225.457 275.455C225.659 275.758 225.76 276.189 225.76 276.738M226.708 275.719C226.615 275.404 226.47 275.127 226.277 274.895C226.083 274.664 225.84 274.476 225.549 274.342C225.26 274.207 224.918 274.139 224.532 274.139C224.146 274.139 223.806 274.207 223.515 274.342C223.226 274.477 222.98 274.664 222.787 274.895C222.594 275.127 222.45 275.404 222.356 275.719C222.264 276.032 222.217 276.374 222.217 276.738C222.217 277.102 222.264 277.443 222.356 277.757C222.449 278.072 222.594 278.348 222.787 278.58C222.981 278.812 223.226 278.997 223.515 279.129C223.806 279.261 224.148 279.328 224.532 279.328C224.916 279.328 225.258 279.261 225.547 279.129C225.836 278.998 226.082 278.812 226.275 278.58C226.468 278.348 226.612 278.072 226.706 277.757C226.798 277.443 226.845 277.102 226.845 276.738C226.845 276.376 226.798 276.032 226.706 275.719M234.495 278.322C234.463 278.23 234.374 278.265 234.374 278.265C234.236 278.317 234.089 278.366 233.932 278.391C233.774 278.415 233.599 278.428 233.414 278.428C232.956 278.428 232.59 278.291 232.33 278.021C232.067 277.751 231.921 277.315 231.923 276.726C231.924 276.189 232.054 275.786 232.287 275.477C232.517 275.172 232.871 275.013 233.338 275.013C233.729 275.013 234.028 275.059 234.341 275.157C234.341 275.157 234.415 275.189 234.451 275.091C234.534 274.861 234.595 274.697 234.685 274.445C234.71 274.372 234.648 274.342 234.625 274.333C234.503 274.285 234.213 274.206 233.993 274.173C233.788 274.142 233.55 274.126 233.281 274.126C232.883 274.126 232.529 274.194 232.226 274.329C231.923 274.464 231.667 274.65 231.463 274.882C231.26 275.114 231.105 275.39 231.002 275.706C230.899 276.019 230.847 276.362 230.847 276.726C230.847 277.511 231.059 278.148 231.477 278.614C231.896 279.081 232.527 279.317 233.348 279.317C233.834 279.317 234.333 279.219 234.691 279.077C234.691 279.077 234.759 279.044 234.729 278.965L234.495 278.322M236.153 276.207C236.198 275.902 236.282 275.648 236.413 275.451C236.61 275.15 236.909 274.985 237.33 274.985C237.751 274.985 238.03 275.15 238.229 275.451C238.361 275.649 238.419 275.912 238.44 276.207L236.143 276.207L236.153 276.207ZM239.345 275.536C239.265 275.233 239.065 274.926 238.935 274.786C238.727 274.564 238.526 274.407 238.325 274.322C238.034 274.198 237.721 274.135 237.405 274.135C237.005 274.135 236.641 274.203 236.346 274.341C236.051 274.48 235.803 274.668 235.608 274.904C235.413 275.14 235.266 275.419 235.173 275.738C235.079 276.053 235.032 276.399 235.032 276.761C235.032 277.131 235.081 277.475 235.177 277.786C235.275 278.099 235.431 278.373 235.643 278.601C235.854 278.831 236.125 279.01 236.45 279.136C236.774 279.261 237.166 279.326 237.615 279.325C238.543 279.321 239.031 279.115 239.23 279.003C239.266 278.983 239.299 278.949 239.257 278.85L239.048 278.262C239.016 278.175 238.927 278.206 238.927 278.206C238.697 278.292 238.372 278.446 237.609 278.444C237.111 278.443 236.743 278.296 236.511 278.066C236.275 277.83 236.157 277.486 236.139 276.998L239.352 277.001C239.352 277.001 239.437 277 239.445 276.917C239.449 276.883 239.555 276.258 239.35 275.537L239.345 275.536ZM210.469 276.207C210.514 275.902 210.598 275.648 210.729 275.451C210.926 275.15 211.225 274.985 211.646 274.985C212.067 274.985 212.346 275.15 212.545 275.451C212.677 275.649 212.735 275.912 212.756 276.207L210.458 276.207L210.469 276.207ZM213.661 275.536C213.581 275.233 213.381 274.926 213.251 274.786C213.043 274.564 212.842 274.407 212.64 274.322C212.35 274.198 212.037 274.135 211.721 274.135C211.321 274.135 210.957 274.203 210.662 274.341C210.367 274.48 210.119 274.668 209.924 274.904C209.729 275.14 209.582 275.419 209.488 275.738C209.395 276.053 209.348 276.399 209.348 276.761C209.348 277.131 209.397 277.475 209.494 277.786C209.591 278.099 209.748 278.373 209.957 278.601C210.169 278.831 210.439 279.01 210.765 279.136C211.088 279.261 211.478 279.326 211.93 279.325C212.857 279.321 213.345 279.115 213.545 279.003C213.58 278.983 213.614 278.949 213.572 278.85L213.362 278.262C213.33 278.175 213.241 278.206 213.241 278.206C213.011 278.292 212.686 278.446 211.923 278.444C211.427 278.443 211.057 278.296 210.825 278.066C210.589 277.83 210.471 277.486 210.453 276.998L213.666 277.001C213.666 277.001 213.751 277 213.76 276.917C213.763 276.883 213.87 276.258 213.664 275.537L213.661 275.536ZM203.534 278.302C203.408 278.201 203.391 278.177 203.349 278.111C203.285 278.013 203.253 277.873 203.253 277.694C203.253 277.414 203.346 277.21 203.54 277.074C203.538 277.075 203.816 276.834 204.471 276.842C204.762 276.848 205.053 276.872 205.341 276.917V278.375H205.342C205.342 278.375 204.935 278.462 204.475 278.49C203.823 278.529 203.534 278.302 203.536 278.303L203.534 278.302ZM204.811 276.044C204.681 276.035 204.512 276.03 204.311 276.03C204.036 276.03 203.77 276.064 203.522 276.131C203.272 276.199 203.046 276.303 202.853 276.443C202.659 276.581 202.5 276.762 202.387 276.971C202.273 277.183 202.216 277.431 202.216 277.711C202.216 277.996 202.265 278.242 202.363 278.444C202.458 278.643 202.602 278.816 202.781 278.946C202.96 279.076 203.18 279.172 203.434 279.229C203.686 279.286 203.971 279.315 204.284 279.315C204.614 279.315 204.941 279.288 205.258 279.234C205.529 279.187 205.798 279.135 206.066 279.077C206.173 279.052 206.291 279.02 206.291 279.02C206.371 279 206.365 278.915 206.365 278.915L206.363 275.987C206.363 275.344 206.191 274.866 205.852 274.571C205.515 274.277 205.021 274.128 204.38 274.128C204.14 274.128 203.752 274.161 203.52 274.207C203.52 274.207 202.82 274.343 202.532 274.569C202.532 274.569 202.468 274.608 202.503 274.697L202.73 275.307C202.759 275.386 202.836 275.359 202.836 275.359C202.836 275.359 202.86 275.349 202.888 275.332C203.505 274.997 204.285 275.007 204.285 275.007C204.631 275.007 204.9 275.077 205.079 275.214C205.254 275.349 205.343 275.552 205.343 275.979V276.115C205.068 276.075 204.814 276.052 204.814 276.052L204.811 276.044ZM230.638 274.391C230.642 274.38 230.645 274.369 230.645 274.357C230.645 274.345 230.643 274.334 230.638 274.323C230.634 274.312 230.627 274.303 230.619 274.294C230.61 274.286 230.6 274.28 230.589 274.276C230.535 274.255 230.262 274.197 230.053 274.184C229.65 274.159 229.426 274.227 229.225 274.317C229.026 274.407 228.806 274.551 228.684 274.718L228.684 274.327C228.684 274.274 228.646 274.23 228.591 274.23H227.77C227.717 274.23 227.678 274.274 227.678 274.327V279.106C227.678 279.132 227.688 279.157 227.707 279.175C227.725 279.193 227.75 279.204 227.775 279.204H228.617C228.643 279.204 228.668 279.193 228.686 279.175C228.704 279.157 228.714 279.132 228.714 279.106V276.707C228.714 276.385 228.75 276.066 228.82 275.865C228.89 275.666 228.985 275.507 229.101 275.393C229.212 275.283 229.348 275.201 229.498 275.155C229.638 275.115 229.783 275.094 229.929 275.094C230.096 275.094 230.281 275.138 230.281 275.138C230.342 275.145 230.377 275.107 230.398 275.051C230.453 274.904 230.609 274.465 230.64 274.378" fill="#FFFFFE"/>
<path fill-rule="evenodd" clip-rule="evenodd" d="M222.774 272.185C222.67 272.154 222.564 272.129 222.457 272.11C222.313 272.086 222.167 272.075 222.021 272.076C221.441 272.076 220.984 272.24 220.663 272.564C220.344 272.885 220.127 273.375 220.018 274.019L219.979 274.236H219.251C219.251 274.236 219.162 274.233 219.143 274.33L219.023 274.997C219.015 275.061 219.043 275.1 219.128 275.1H219.837L219.118 279.115C219.061 279.438 218.997 279.704 218.925 279.906C218.855 280.105 218.786 280.254 218.702 280.362C218.62 280.467 218.542 280.544 218.408 280.589C218.297 280.626 218.17 280.643 218.031 280.643C217.953 280.643 217.85 280.63 217.773 280.615C217.697 280.6 217.657 280.582 217.6 280.559C217.6 280.559 217.517 280.527 217.484 280.61C217.458 280.678 217.269 281.198 217.247 281.262C217.224 281.326 217.256 281.376 217.296 281.39C217.39 281.424 217.46 281.445 217.589 281.476C217.768 281.518 217.918 281.52 218.059 281.52C218.354 281.52 218.623 281.479 218.846 281.398C219.071 281.317 219.266 281.176 219.439 280.985C219.626 280.778 219.744 280.562 219.856 280.267C219.967 279.975 220.062 279.612 220.138 279.189L220.861 275.1H221.917C221.917 275.1 222.006 275.103 222.025 275.007L222.144 274.34C222.153 274.276 222.125 274.236 222.04 274.236H221.014C221.019 274.213 221.066 273.852 221.184 273.513C221.234 273.368 221.328 273.251 221.408 273.171C221.483 273.094 221.575 273.037 221.677 273.003C221.789 272.969 221.905 272.952 222.021 272.954C222.118 272.954 222.213 272.965 222.285 272.98C222.384 273.002 222.423 273.013 222.449 273.02C222.554 273.052 222.568 273.021 222.588 272.971L222.833 272.297C222.859 272.225 222.797 272.194 222.774 272.185ZM208.443 279.123C208.443 279.177 208.405 279.221 208.351 279.221H207.5C207.446 279.221 207.408 279.177 207.408 279.123V272.277C207.408 272.223 207.446 272.18 207.5 272.18H208.351C208.405 272.18 208.443 272.223 208.443 272.277V279.123Z" fill="#FFFFFE"/>
<path d="M366.127 248.289V307.207C366.127 308.671 364.939 309.898 363.436 309.898H346.698C345.234 309.898 344.007 308.711 344.007 307.207V248.289C344.007 246.825 345.195 245.598 346.698 245.598H363.436C364.9 245.637 366.127 246.825 366.127 248.289Z" fill="url(#paint0_linear_6653_3894)"/>
<path d="M353.069 264.393V309.937H330.95V264.393C330.95 262.929 332.137 261.703 333.64 261.703H350.378C351.842 261.703 353.069 262.89 353.069 264.393Z" fill="url(#paint1_linear_6653_3894)"/>
<path d="M317.892 280.458V307.247C317.892 308.711 319.079 309.937 320.583 309.937H340.011V280.458C340.011 278.994 338.824 277.768 337.32 277.768H320.583C319.118 277.768 317.892 278.955 317.892 280.458Z" fill="url(#paint2_linear_6653_3894)"/>
<path d="M215.06 115.726C216.522 114.264 218.892 114.264 220.354 115.726L226.364 121.736C227.826 123.198 227.826 125.569 226.364 127.031L220.354 133.041C218.892 134.503 216.522 134.503 215.06 133.041L209.05 127.031C207.588 125.569 207.588 123.198 209.05 121.736L215.06 115.726Z" fill="#A950FF"/>
<path d="M242.741 115.678C244.177 114.242 246.505 114.242 247.941 115.678L254.045 121.783C255.481 123.219 255.481 125.547 254.045 126.983L247.941 133.087C246.505 134.523 244.177 134.523 242.741 133.087L236.636 126.983C235.2 125.547 235.2 123.219 236.636 121.783C238.072 120.347 242.741 115.678 242.741 115.678Z" fill="#A950FF"/>
<path d="M215.107 88.0452C216.543 86.6093 218.871 86.6093 220.307 88.0452L226.412 94.1499C227.848 95.5858 227.848 97.9139 226.412 99.3498L220.307 105.455C218.871 106.89 216.543 106.89 215.107 105.455L209.002 99.3498C207.566 97.9139 207.566 95.5858 209.002 94.1499L215.107 88.0452Z" fill="#E9C1FF"/>
<path d="M212.549 107.919C214.011 109.381 214.011 111.752 212.549 113.214L206.539 119.224C205.077 120.686 202.706 120.686 201.244 119.224L195.234 113.214C193.772 111.752 193.772 109.381 195.234 107.919L201.244 101.909C202.706 100.447 205.077 100.447 206.539 101.909L212.549 107.919Z" fill="#CD88FF"/>
<path d="M198.779 121.783C200.215 123.219 200.215 125.547 198.779 126.983L192.674 133.087C191.238 134.523 188.91 134.523 187.474 133.087L181.37 126.983C179.934 125.547 179.934 123.219 181.37 121.783L187.474 115.678C188.91 114.242 191.238 114.242 192.674 115.678L198.779 121.783Z" fill="#A950FF"/>
<path d="M240.181 107.919C241.644 109.381 241.644 111.752 240.181 113.214L234.171 119.224C232.709 120.686 230.339 120.686 228.877 119.224L222.867 113.214C221.405 111.752 221.405 109.381 222.867 107.919L228.877 101.909C230.339 100.447 232.709 100.447 234.171 101.909L240.181 107.919Z" fill="#CD88FF"/>
<path d="M223.622 147.39C226.888 150.656 226.888 155.952 223.622 159.219C220.355 162.485 215.06 162.485 211.793 159.219C208.527 155.952 208.527 150.656 211.793 147.39C215.06 144.124 220.355 144.124 223.622 147.39Z" fill="#F62E76"/>
<path d="M200.062 158.727L194.31 159.225L197.617 163.957L200.062 158.727ZM106.403 224.187L112.155 223.689L108.847 218.956L106.403 224.187ZM197.353 160.01L195.739 161.138L196.311 161.958L197.926 160.829L197.353 160.01ZM194.124 162.267L192.509 163.396L193.082 164.215L194.697 163.087L194.124 162.267ZM190.894 164.524L189.279 165.653L189.852 166.472L191.467 165.344L190.894 164.524ZM187.664 166.781L186.05 167.91L186.622 168.73L188.237 167.601L187.664 166.781ZM184.435 169.039L182.82 170.167L183.393 170.987L185.008 169.858L184.435 169.039ZM181.205 171.296L179.59 172.425L180.163 173.244L181.778 172.116L181.205 171.296ZM177.976 173.553L176.361 174.682L176.934 175.501L178.548 174.373L177.976 173.553ZM174.746 175.81L173.131 176.939L173.704 177.759L175.319 176.63L174.746 175.81ZM171.516 178.068L169.901 179.196L170.474 180.016L172.089 178.887L171.516 178.068ZM168.287 180.325L166.672 181.454L167.245 182.273L168.86 181.145L168.287 180.325ZM165.057 182.582L163.442 183.711L164.015 184.53L165.63 183.402L165.057 182.582ZM161.827 184.839L160.213 185.968L160.785 186.788L162.4 185.659L161.827 184.839ZM158.598 187.097L156.983 188.225L157.556 189.045L159.171 187.916L158.598 187.097ZM155.368 189.354L153.753 190.483L154.326 191.302L155.941 190.174L155.368 189.354ZM152.138 191.611L150.524 192.74L151.097 193.559L152.711 192.431L152.138 191.611ZM148.909 193.868L147.294 194.997L147.867 195.817L149.482 194.688L148.909 193.868ZM145.679 196.126L144.064 197.254L144.637 198.074L146.252 196.945L145.679 196.126ZM142.45 198.383L140.835 199.512L141.408 200.331L143.022 199.203L142.45 198.383ZM139.22 200.64L137.605 201.769L138.178 202.589L139.793 201.46L139.22 200.64ZM135.99 202.897L134.375 204.026L134.948 204.846L136.563 203.717L135.99 202.897ZM132.761 205.155L131.146 206.283L131.719 207.103L133.333 205.974L132.761 205.155ZM129.531 207.412L127.916 208.541L128.489 209.36L130.104 208.232L129.531 207.412ZM126.301 209.669L124.687 210.798L125.259 211.618L126.874 210.489L126.301 209.669ZM123.072 211.927L121.457 213.055L122.03 213.875L123.645 212.746L123.072 211.927ZM119.842 214.184L118.227 215.312L118.8 216.132L120.415 215.003L119.842 214.184ZM116.612 216.441L114.998 217.57L115.57 218.389L117.185 217.261L116.612 216.441ZM113.383 218.698L111.768 219.827L112.341 220.647L113.956 219.518L113.383 218.698ZM110.153 220.956L108.538 222.084L109.111 222.904L110.726 221.775L110.153 220.956ZM200.062 158.727L188.558 159.723L195.173 169.187L200.062 158.727ZM106.403 224.187L117.907 223.19L111.292 213.726L106.403 224.187ZM197.067 159.6L195.452 160.728L196.598 162.368L198.213 161.239L197.067 159.6ZM193.837 161.857L192.222 162.986L193.368 164.625L194.983 163.496L193.837 161.857ZM190.608 164.114L188.993 165.243L190.139 166.882L191.753 165.754L190.608 164.114ZM187.378 166.372L185.763 167.5L186.909 169.14L188.524 168.011L187.378 166.372ZM184.148 168.629L182.534 169.757L183.679 171.397L185.294 170.268L184.148 168.629ZM180.919 170.886L179.304 172.015L180.45 173.654L182.064 172.525L180.919 170.886ZM177.689 173.143L176.074 174.272L177.22 175.911L178.835 174.783L177.689 173.143ZM174.459 175.401L172.845 176.529L173.99 178.169L175.605 177.04L174.459 175.401ZM171.23 177.658L169.615 178.786L170.761 180.426L172.376 179.297L171.23 177.658ZM168 179.915L166.385 181.044L167.531 182.683L169.146 181.554L168 179.915ZM164.771 182.172L163.156 183.301L164.301 184.94L165.916 183.812L164.771 182.172ZM161.541 184.43L159.926 185.558L161.072 187.198L162.687 186.069L161.541 184.43ZM158.311 186.687L156.696 187.816L157.842 189.455L159.457 188.326L158.311 186.687ZM155.082 188.944L153.467 190.073L154.613 191.712L156.227 190.583L155.082 188.944ZM151.852 191.201L150.237 192.33L151.383 193.969L152.998 192.841L151.852 191.201ZM148.622 193.459L147.008 194.587L148.153 196.227L149.768 195.098L148.622 193.459ZM145.393 195.716L143.778 196.845L144.924 198.484L146.538 197.355L145.393 195.716ZM142.163 197.973L140.548 199.102L141.694 200.741L143.309 199.612L142.163 197.973ZM138.933 200.23L137.319 201.359L138.464 202.998L140.079 201.87L138.933 200.23ZM135.704 202.488L134.089 203.616L135.235 205.256L136.85 204.127L135.704 202.488ZM132.474 204.745L130.859 205.874L132.005 207.513L133.62 206.384L132.474 204.745ZM129.245 207.002L127.63 208.131L128.775 209.77L130.39 208.641L129.245 207.002ZM126.015 209.259L124.4 210.388L125.546 212.027L127.161 210.899L126.015 209.259ZM122.785 211.517L121.17 212.645L122.316 214.285L123.931 213.156L122.785 211.517ZM119.556 213.774L117.941 214.903L119.087 216.542L120.701 215.413L119.556 213.774ZM116.326 216.031L114.711 217.16L115.857 218.799L117.472 217.67L116.326 216.031ZM113.096 218.288L111.482 219.417L112.627 221.056L114.242 219.928L113.096 218.288ZM109.867 220.546L108.252 221.674L109.398 223.314L111.012 222.185L109.867 220.546Z" fill="url(#paint3_linear_6653_3894)"/>
<path d="M233.096 158.727L235.478 163.986L238.842 159.293L233.096 158.727ZM324.415 224.187L322.033 218.928L318.669 223.62L324.415 224.187ZM235.251 160.886L236.882 162.055L237.464 161.243L235.834 160.074L235.251 160.886ZM238.512 163.224L240.143 164.393L240.726 163.58L239.095 162.411L238.512 163.224ZM241.774 165.562L243.404 166.731L243.987 165.918L242.356 164.749L241.774 165.562ZM245.035 167.9L246.666 169.069L247.248 168.256L245.618 167.087L245.035 167.9ZM248.296 170.238L249.927 171.407L250.51 170.594L248.879 169.425L248.296 170.238ZM251.558 172.576L253.188 173.745L253.771 172.932L252.14 171.763L251.558 172.576ZM254.819 174.914L256.45 176.082L257.032 175.27L255.402 174.101L254.819 174.914ZM258.081 177.251L259.711 178.42L260.294 177.608L258.663 176.439L258.081 177.251ZM261.342 179.589L262.973 180.758L263.555 179.945L261.925 178.777L261.342 179.589ZM264.603 181.927L266.234 183.096L266.817 182.283L265.186 181.114L264.603 181.927ZM267.865 184.265L269.495 185.434L270.078 184.621L268.447 183.452L267.865 184.265ZM271.126 186.603L272.757 187.772L273.339 186.959L271.709 185.79L271.126 186.603ZM274.387 188.941L276.018 190.11L276.601 189.297L274.97 188.128L274.387 188.941ZM277.649 191.279L279.279 192.448L279.862 191.635L278.231 190.466L277.649 191.279ZM280.91 193.617L282.541 194.785L283.123 193.973L281.493 192.804L280.91 193.617ZM284.172 195.954L285.802 197.123L286.385 196.311L284.754 195.142L284.172 195.954ZM287.433 198.292L289.064 199.461L289.646 198.648L288.016 197.479L287.433 198.292ZM290.694 200.63L292.325 201.799L292.908 200.986L291.277 199.817L290.694 200.63ZM293.956 202.968L295.586 204.137L296.169 203.324L294.538 202.155L293.956 202.968ZM297.217 205.306L298.848 206.475L299.43 205.662L297.8 204.493L297.217 205.306ZM300.478 207.644L302.109 208.813L302.692 208L301.061 206.831L300.478 207.644ZM303.74 209.982L305.37 211.151L305.953 210.338L304.322 209.169L303.74 209.982ZM307.001 212.319L308.632 213.488L309.214 212.676L307.584 211.507L307.001 212.319ZM310.263 214.657L311.893 215.826L312.476 215.014L310.845 213.845L310.263 214.657ZM313.524 216.995L315.155 218.164L315.737 217.351L314.107 216.182L313.524 216.995ZM316.785 219.333L318.416 220.502L318.999 219.689L317.368 218.52L316.785 219.333ZM320.047 221.671L321.677 222.84L322.26 222.027L320.629 220.858L320.047 221.671ZM233.096 158.727L237.86 169.245L244.587 159.86L233.096 158.727ZM324.415 224.187L319.651 213.668L312.923 223.053L324.415 224.187ZM234.96 161.293L236.59 162.462L237.756 160.836L236.125 159.667L234.96 161.293ZM238.221 163.631L239.852 164.8L241.017 163.174L239.386 162.005L238.221 163.631ZM241.482 165.968L243.113 167.137L244.278 165.512L242.648 164.343L241.482 165.968ZM244.744 168.306L246.374 169.475L247.54 167.85L245.909 166.681L244.744 168.306ZM248.005 170.644L249.636 171.813L250.801 170.188L249.17 169.019L248.005 170.644ZM251.266 172.982L252.897 174.151L254.062 172.525L252.432 171.357L251.266 172.982ZM254.528 175.32L256.159 176.489L257.324 174.863L255.693 173.694L254.528 175.32ZM257.789 177.658L259.42 178.827L260.585 177.201L258.954 176.032L257.789 177.658ZM261.051 179.996L262.681 181.165L263.847 179.539L262.216 178.37L261.051 179.996ZM264.312 182.334L265.943 183.502L267.108 181.877L265.477 180.708L264.312 182.334ZM267.573 184.671L269.204 185.84L270.369 184.215L268.739 183.046L267.573 184.671ZM270.835 187.009L272.465 188.178L273.631 186.553L272 185.384L270.835 187.009ZM274.096 189.347L275.727 190.516L276.892 188.891L275.261 187.722L274.096 189.347ZM277.357 191.685L278.988 192.854L280.153 191.228L278.523 190.06L277.357 191.685ZM280.619 194.023L282.25 195.192L283.415 193.566L281.784 192.397L280.619 194.023ZM283.88 196.361L285.511 197.53L286.676 195.904L285.045 194.735L283.88 196.361ZM287.142 198.699L288.772 199.868L289.938 198.242L288.307 197.073L287.142 198.699ZM290.403 201.036L292.034 202.205L293.199 200.58L291.568 199.411L290.403 201.036ZM293.664 203.374L295.295 204.543L296.46 202.918L294.83 201.749L293.664 203.374ZM296.926 205.712L298.556 206.881L299.722 205.256L298.091 204.087L296.926 205.712ZM300.187 208.05L301.818 209.219L302.983 207.594L301.352 206.425L300.187 208.05ZM303.448 210.388L305.079 211.557L306.244 209.931L304.614 208.762L303.448 210.388ZM306.71 212.726L308.341 213.895L309.506 212.269L307.875 211.1L306.71 212.726ZM309.971 215.064L311.602 216.233L312.767 214.607L311.136 213.438L309.971 215.064ZM313.233 217.402L314.863 218.571L316.029 216.945L314.398 215.776L313.233 217.402ZM316.494 219.739L318.125 220.908L319.29 219.283L317.659 218.114L316.494 219.739ZM319.755 222.077L321.386 223.246L322.551 221.621L320.921 220.452L319.755 222.077Z" fill="url(#paint4_linear_6653_3894)"/>
<path d="M217.708 168.813L220.594 173.813L214.821 173.813L217.708 168.813ZM217.708 224.187L214.821 219.187L220.594 219.187L217.708 224.187ZM218.208 171.779L218.208 173.757L217.208 173.757L217.208 171.779L218.208 171.779ZM218.208 175.734L218.208 177.712L217.208 177.712L217.208 175.734L218.208 175.734ZM218.208 179.69L218.208 181.667L217.208 181.667L217.208 179.69L218.208 179.69ZM218.208 183.645L218.208 185.623L217.208 185.623L217.208 183.645L218.208 183.645ZM218.208 187.6L218.208 189.578L217.208 189.578L217.208 187.6L218.208 187.6ZM218.208 191.556L218.208 193.533L217.208 193.533L217.208 191.556L218.208 191.556ZM218.208 195.511L218.208 197.488L217.208 197.488L217.208 195.511L218.208 195.511ZM218.208 199.466L218.208 201.444L217.208 201.444L217.208 199.466L218.208 199.466ZM218.208 203.421L218.208 205.399L217.208 205.399L217.208 203.421L218.208 203.421ZM218.208 207.377L218.208 209.354L217.208 209.354L217.208 207.377L218.208 207.377ZM218.208 211.332L218.208 213.31L217.208 213.31L217.208 211.332L218.208 211.332ZM218.208 215.287L218.208 217.265L217.208 217.265L217.208 215.287L218.208 215.287ZM218.208 219.243L218.208 221.22L217.208 221.22L217.208 219.243L218.208 219.243ZM217.708 168.813L223.481 178.813L211.934 178.813L217.708 168.813ZM217.708 224.187L211.934 214.187L223.481 214.187L217.708 224.187ZM218.708 171.779L218.708 173.757L216.708 173.757L216.708 171.779L218.708 171.779ZM218.708 175.734L218.708 177.712L216.708 177.712L216.708 175.734L218.708 175.734ZM218.708 179.69L218.708 181.667L216.708 181.667L216.708 179.69L218.708 179.69ZM218.708 183.645L218.708 185.623L216.708 185.623L216.708 183.645L218.708 183.645ZM218.708 187.6L218.708 189.578L216.708 189.578L216.708 187.6L218.708 187.6ZM218.708 191.556L218.708 193.533L216.708 193.533L216.708 191.556L218.708 191.556ZM218.708 195.511L218.708 197.488L216.708 197.488L216.708 195.511L218.708 195.511ZM218.708 199.466L218.708 201.444L216.708 201.444L216.708 199.466L218.708 199.466ZM218.708 203.421L218.708 205.399L216.708 205.399L216.708 203.421L218.708 203.421ZM218.708 207.377L218.708 209.354L216.708 209.354L216.708 207.377L218.708 207.377ZM218.708 211.332L218.708 213.31L216.708 213.31L216.708 211.332L218.708 211.332ZM218.708 215.287L218.708 217.265L216.708 217.265L216.708 215.287L218.708 215.287ZM218.708 219.243L218.708 221.22L216.708 221.22L216.708 219.243L218.708 219.243Z" fill="url(#paint5_linear_6653_3894)"/>
<defs>
<filter id="filter0_b_6653_3894" x="-5.92171" y="3.88005" width="442.817" height="340.826" filterUnits="userSpaceOnUse" color-interpolation-filters="sRGB">
<feFlood flood-opacity="0" result="BackgroundImageFix"/>
<feGaussianBlur in="BackgroundImageFix" stdDeviation="3.21085"/>
<feComposite in2="SourceAlpha" operator="in" result="effect1_backgroundBlur_6653_3894"/>
<feBlend mode="normal" in="SourceGraphic" in2="effect1_backgroundBlur_6653_3894" result="shape"/>
</filter>
<filter id="filter1_b_6653_3894" x="4.78463" y="52.2164" width="421.023" height="144.204" filterUnits="userSpaceOnUse" color-interpolation-filters="sRGB">
<feFlood flood-opacity="0" result="BackgroundImageFix"/>
<feGaussianBlur in="BackgroundImageFix" stdDeviation="4.78816"/>
<feComposite in2="SourceAlpha" operator="in" result="effect1_backgroundBlur_6653_3894"/>
<feBlend mode="normal" in="SourceGraphic" in2="effect1_backgroundBlur_6653_3894" result="shape"/>
</filter>
<linearGradient id="paint0_linear_6653_3894" x1="309.937" y1="245.612" x2="324.67" y2="315.798" gradientUnits="userSpaceOnUse">
<stop stop-color="#E6AD10"/>
<stop offset="1" stop-color="#C87E0E"/>
</linearGradient>
<linearGradient id="paint1_linear_6653_3894" x1="315.272" y1="246.396" x2="337.039" y2="317.567" gradientUnits="userSpaceOnUse">
<stop stop-color="#F6D751"/>
<stop offset="1" stop-color="#E6AD10"/>
</linearGradient>
<linearGradient id="paint2_linear_6653_3894" x1="321.734" y1="276.199" x2="334.585" y2="307.608" gradientUnits="userSpaceOnUse">
<stop stop-color="#F9E589"/>
<stop offset="1" stop-color="#F6D751"/>
</linearGradient>
<linearGradient id="paint3_linear_6653_3894" x1="199.489" y1="157.907" x2="133.968" y2="197.566" gradientUnits="userSpaceOnUse">
<stop offset="0.03125" stop-color="#E151F7"/>
<stop offset="0.96875" stop-color="#5C47F5"/>
</linearGradient>
<linearGradient id="paint4_linear_6653_3894" x1="232.514" y1="159.539" x2="290.764" y2="207.279" gradientUnits="userSpaceOnUse">
<stop offset="0.03125" stop-color="#E151F7"/>
<stop offset="0.96875" stop-color="#5C47F5"/>
</linearGradient>
<linearGradient id="paint5_linear_6653_3894" x1="217.708" y1="168.812" x2="233.971" y2="178.378" gradientUnits="userSpaceOnUse">
<stop offset="0.03125" stop-color="#E151F7"/>
<stop offset="0.96875" stop-color="#5C47F5"/>
</linearGradient>
</defs>
</svg>
