<svg width="42" height="43" viewBox="0 0 42 43" fill="none" xmlns="http://www.w3.org/2000/svg">
<path d="M19.25 10.9997H24.5L30.2575 5.22468C30.4202 5.06065 30.6138 4.93046 30.827 4.84162C31.0403 4.75277 31.269 4.70703 31.5 4.70703C31.7311 4.70703 31.9598 4.75277 32.173 4.84162C32.3863 4.93046 32.5798 5.06065 32.7425 5.22468L37.2575 9.75718C37.5835 10.0851 37.7664 10.5286 37.7664 10.9909C37.7664 11.4533 37.5835 11.8968 37.2575 12.2247L33.25 16.2497H19.25V19.7497C19.25 20.2138 19.0657 20.6589 18.7375 20.9871C18.4093 21.3153 17.9642 21.4997 17.5 21.4997C17.0359 21.4997 16.5908 21.3153 16.2626 20.9871C15.9344 20.6589 15.75 20.2138 15.75 19.7497V14.4997C15.75 13.5714 16.1188 12.6812 16.7752 12.0248C17.4315 11.3684 18.3218 10.9997 19.25 10.9997ZM8.75003 19.7497V26.7497L4.74253 30.7572C4.41659 31.0851 4.23364 31.5286 4.23364 31.9909C4.23364 32.4533 4.41659 32.8968 4.74253 33.2247L9.25753 37.7572C9.42021 37.9212 9.61377 38.0514 9.82702 38.1402C10.0403 38.2291 10.269 38.2748 10.5 38.2748C10.7311 38.2748 10.9598 38.2291 11.173 38.1402C11.3863 38.0514 11.5798 37.9212 11.7425 37.7572L19.25 30.2497H26.25C26.7142 30.2497 27.1593 30.0653 27.4875 29.7371C27.8157 29.4089 28 28.9638 28 28.4997V26.7497H29.75C30.2142 26.7497 30.6593 26.5653 30.9875 26.2371C31.3157 25.9089 31.5 25.4638 31.5 24.9997V23.2497H33.25C33.7142 23.2497 34.1593 23.0653 34.4875 22.7371C34.8157 22.4089 35 21.9638 35 21.4997V19.7497H22.75V21.4997C22.75 22.4279 22.3813 23.3182 21.7249 23.9746C21.0685 24.6309 20.1783 24.9997 19.25 24.9997H15.75C14.8218 24.9997 13.9315 24.6309 13.2752 23.9746C12.6188 23.3182 12.25 22.4279 12.25 21.4997V16.2497L8.75003 19.7497Z" fill="url(#paint0_linear_110_37)"/>
<defs>
<linearGradient id="paint0_linear_110_37" x1="9.28586" y1="10.9387" x2="37.2328" y2="38.8102" gradientUnits="userSpaceOnUse">
<stop offset="0.015625" stop-color="#F2D5FF"/>
<stop offset="1" stop-color="#CB5AFF"/>
</linearGradient>
</defs>
</svg>
