<?xml version="1.0" encoding="UTF-8" standalone="no"?>
<svg
   id="screenshot"
   viewBox="5693.5008 1497.9997 100 99.999998"
   width="100"
   height="100"
   version="1.1"
   style="-webkit-print-color-adjust:exact"
   sodipodi:docname="logo_2.svg"
   inkscape:version="1.1.2 (0a00cf5339, 2022-02-04)"
   xmlns:inkscape="http://www.inkscape.org/namespaces/inkscape"
   xmlns:sodipodi="http://sodipodi.sourceforge.net/DTD/sodipodi-0.dtd"
   xmlns="http://www.w3.org/2000/svg"
   xmlns:svg="http://www.w3.org/2000/svg">
  <defs
     id="defs8" />
  <sodipodi:namedview
     id="namedview6"
     pagecolor="#ffffff"
     bordercolor="#666666"
     borderopacity="1.0"
     inkscape:pageshadow="2"
     inkscape:pageopacity="0.0"
     inkscape:pagecheckerboard="0"
     showgrid="false"
     inkscape:zoom="5.2605368"
     inkscape:cx="-12.641296"
     inkscape:cy="14.447195"
     inkscape:window-width="2560"
     inkscape:window-height="1517"
     inkscape:window-x="3840"
     inkscape:window-y="0"
     inkscape:window-maximized="1"
     inkscape:current-layer="screenshot" />
  <g
     id="shape-2ebe5ec0-9679-11ec-a64b-eb96f55da477"
     transform="matrix(3.2512818,0,0,3.2512818,-12808.402,-3359.7324)">
    <path
       fill-rule="nonzero"
       d="m 5716.06,1498.4488 c -0.2689,-0.1839 -0.5707,-0.3141 -0.889,-0.3835 -0.3264,-0.072 -0.6631,-0.085 -0.9941,-0.038 -0.3469,0.048 -0.6831,0.1555 -0.9941,0.3167 l -1.4513,0.8009 -1.4542,0.7995 -1.4556,0.7996 -1.4542,0.8066 c -0.3151,0.1843 -0.6526,0.3275 -1.0041,0.426 -0.3402,0.099 -0.6924,0.1503 -1.0466,0.1534 -0.3536,0 -0.7061,-0.039 -1.048,-0.1292 -0.3529,-0.094 -0.6919,-0.2329 -1.0083,-0.4147 l -1.4102,-0.7669 -1.4102,-0.7668 -1.4102,-0.7641 -1.4116,-0.7668 c -0.5229,-0.3338 -1.1484,-0.4684 -1.7623,-0.3792 -0.5666,0.088 -1.092,0.3496 -1.5039,0.7484 -0.4153,0.3937 -0.6978,0.9069 -0.8081,1.4684 -0.1133,0.6088 0,1.2381 0.3139,1.7709 l 0.4942,0.906 1.0892,1.9882 1.0892,1.9882 0.4957,0.906 c 0.1841,0.3117 0.3273,0.6458 0.426,0.9941 0.093,0.3405 0.1413,0.692 0.142,1.0452 -6e-4,0.3541 -0.048,0.7065 -0.142,1.048 -0.088,0.3595 -0.2229,0.7058 -0.4019,1.0296 l -0.774,1.4443 -0.7754,1.44 -0.7753,1.4386 -0.7754,1.44 c -0.1303,0.236 -0.2305,0.4874 -0.2982,0.7484 -0.064,0.2465 -0.093,0.5009 -0.085,0.7555 0.01,0.2501 0.057,0.4972 0.1421,0.7328 0.085,0.2469 0.209,0.4788 0.3663,0.6873 0.1917,0.2634 0.43,0.4896 0.703,0.6674 0.2714,0.1803 0.5723,0.3116 0.889,0.3877 0.325,0.08 0.6615,0.1014 0.9941,0.064 0.3469,-0.04 0.6837,-0.1423 0.9941,-0.3024 l 1.5096,-0.828 1.5081,-0.8265 1.5082,-0.8279 1.5081,-0.8279 c -0.4536,-0.3258 -0.8728,-0.6969 -1.2511,-1.1077 -0.3792,-0.4129 -0.7271,-0.8534 -1.0409,-1.3179 -0.3167,-0.4658 -0.6064,-0.9515 -0.8748,-1.4457 -0.24,-0.4402 -0.463,-0.8861 -0.6774,-1.3292 0.3792,0.7101 1.1957,1.4641 2.2566,2.2211 1.2903,0.8879 2.6349,1.6942 4.026,2.4142 1.4627,0.7782 2.9638,1.5138 4.2603,2.1642 1.2966,0.6504 2.3958,1.2142 3.0476,1.6445 0.5263,0.3115 1.1517,0.41 1.7482,0.2755 0.5532,-0.1376 1.0496,-0.4444 1.4201,-0.8776 0.3879,-0.4396 0.64,-0.9822 0.7257,-1.5621 0.089,-0.6131 -0.037,-1.2381 -0.3579,-1.7681 l -0.8918,-1.6132 -1.9527,-3.5503 -1.9526,-3.5503 -0.8819,-1.5948 c -0.189,-0.3181 -0.3942,-0.6262 -0.6149,-0.9231 -0.2193,-0.2913 -0.4565,-0.5688 -0.7101,-0.8308 -0.2521,-0.2608 -0.5216,-0.5042 -0.8066,-0.7285 -0.2899,-0.2282 -0.5966,-0.4342 -0.9174,-0.6163 0.4984,0.2272 1.0054,0.4629 1.5025,0.7171 0.5007,0.2523 0.988,0.5306 1.4598,0.8336 0.4713,0.302 0.9177,0.641 1.3349,1.014 0.4211,0.3792 0.7996,0.8029 1.129,1.2639 l 0.8024,-1.4684 0.8024,-1.4684 0.8052,-1.4712 0.8023,-1.4684 c 0.1338,-0.2208 0.2343,-0.46 0.2983,-0.7101 0.064,-0.248 0.092,-0.5038 0.085,-0.7598 -0.01,-0.2584 -0.057,-0.5139 -0.142,-0.7583 -0.086,-0.2501 -0.211,-0.485 -0.3707,-0.6959 -0.1819,-0.2805 -0.4174,-0.5222 -0.693,-0.7114 z m -18.6092,20.569 c 0.021,0.3001 -0.088,0.5948 -0.2992,0.8093 -0.211,0.2145 -0.5038,0.3283 -0.8043,0.3125 -0.6141,0.01 -1.116,-0.4886 -1.1211,-1.1027 -0.01,-0.6141 0.4886,-1.1161 1.1027,-1.1212 0.3,-0.021 0.5947,0.087 0.8093,0.2982 0.2145,0.2108 0.3284,0.5035 0.3126,0.8039 z m -2.1998,-18.1335 c -0.021,-0.3002 0.088,-0.5949 0.2992,-0.8094 0.211,-0.2145 0.5038,-0.3283 0.8042,-0.3125 0.3002,-0.021 0.5949,0.088 0.8094,0.2991 0.2145,0.211 0.3283,0.5038 0.3125,0.8043 0.021,0.3002 -0.088,0.5948 -0.2991,0.8093 -0.211,0.2146 -0.5038,0.3284 -0.8043,0.3126 -0.3002,0.021 -0.5948,-0.088 -0.8093,-0.2992 -0.2146,-0.211 -0.3284,-0.5038 -0.3126,-0.8042 z m 0,0 z m 20.3475,18.0994 c 0,0.4505 -0.2629,0.8594 -0.6775,1.0358 -0.4146,0.1764 -0.8946,0.085 -1.2161,-0.2302 -0.3214,-0.3158 -0.4208,-0.7941 -0.2519,-1.2118 0.169,-0.4177 0.573,-0.6924 1.0236,-0.6958 0.3,-0.021 0.5947,0.087 0.8093,0.2981 0.2145,0.2108 0.3284,0.5035 0.3126,0.8039 z m -7.5267,-9.4538 c -0.328,-0.5368 -0.8691,-0.7469 -1.5181,-0.7398 -0.8864,0.03 -1.6704,0.5835 -1.9944,1.4091 -0.3241,0.8257 -0.1263,1.7649 0.5033,2.3897 -0.7035,-0.09 -1.3418,-0.4573 -1.7722,-1.0209 -0.4305,-0.5636 -0.6172,-1.2761 -0.5184,-1.9784 0.2087,-1.4074 1.6075,-2.5008 3.0134,-2.3034 1.1901,0.2016 2.1686,1.0551 2.2864,2.2437 z m 0,0 z m 7.6062,-8.7394 c -0.015,0.5998 -0.5032,1.0794 -1.1031,1.0848 -0.5999,0.01 -1.0961,-0.4655 -1.1222,-1.0649 0.015,-0.5997 0.5031,-1.0794 1.103,-1.0848 0.5999,-0.01 1.0962,0.4656 1.1223,1.0649 z"
       style="fill:#ff694b"
       id="path2" />
  </g>
</svg>
