<?xml version="1.0" encoding="UTF-8" standalone="no"?>
<svg
   width="100"
   height="100"
   viewBox="0 0 100 100"
   fill="none"
   version="1.1"
   id="svg4"
   sodipodi:docname="logo_1.svg"
   inkscape:version="1.1.2 (0a00cf5339, 2022-02-04)"
   xmlns:inkscape="http://www.inkscape.org/namespaces/inkscape"
   xmlns:sodipodi="http://sodipodi.sourceforge.net/DTD/sodipodi-0.dtd"
   xmlns="http://www.w3.org/2000/svg"
   xmlns:svg="http://www.w3.org/2000/svg">
  <defs
     id="defs8" />
  <sodipodi:namedview
     id="namedview6"
     pagecolor="#ffffff"
     bordercolor="#666666"
     borderopacity="1.0"
     inkscape:pageshadow="2"
     inkscape:pageopacity="0.0"
     inkscape:pagecheckerboard="0"
     showgrid="false"
     inkscape:zoom="3.5860415"
     inkscape:cx="70.69076"
     inkscape:cy="22.029862"
     inkscape:window-width="2560"
     inkscape:window-height="1517"
     inkscape:window-x="3840"
     inkscape:window-y="0"
     inkscape:window-maximized="1"
     inkscape:current-layer="svg4" />
  <path
     fill-rule="evenodd"
     clip-rule="evenodd"
     d="M 36.820089,17.707936 C 45.623921,7.816552 60.202843,4.9149157 72.188724,10.62438 88.11331,18.211026 93.922964,37.537039 85.252923,52.444677 L 65.748679,85.943773 c -1.090074,1.87189 -2.883665,3.237775 -4.986926,3.797626 -2.10326,0.559615 -4.344308,0.267816 -6.231012,-0.811913 L 78.144161,48.365127 C 84.434661,37.545504 80.2272,23.520953 68.681722,17.999077 60.01897,13.856136 49.429071,15.925772 43.029469,23.050735 39.499424,26.962141 37.517492,32.01213 37.45142,37.26405 c -0.06607,5.252155 1.788182,10.349594 5.218531,14.347552 0.616517,0.717389 1.280061,1.39363 1.986164,2.024491 L 30.870671,77.359555 c -0.539088,0.927362 -1.25683,1.740451 -2.112289,2.392238 -0.855436,0.652023 -1.831824,1.130282 -2.87339,1.407503 -1.041567,0.277222 -2.127926,0.347997 -3.19705,0.208328 -1.069124,-0.139669 -2.100063,-0.48696 -3.033986,-1.022356 L 34.619483,54.589791 C 32.469761,51.512376 30.926045,48.058514 30.069645,44.410903 L 20.89903,60.224977 c -1.090122,1.87189 -2.883713,3.237775 -4.986973,3.797625 -2.103261,0.559616 -4.344276,0.267816 -6.2309653,-0.811912 L 33.396324,22.418534 c 0.987086,-1.675178 2.133593,-3.252588 3.423765,-4.710598 z m 27.372013,12.984277 c 5.711369,3.275514 7.683896,10.560155 4.379108,16.229436 L 45.829897,85.93907 c -1.090074,1.871891 -2.883665,3.23754 -4.986926,3.797391 -2.10326,0.55985 -4.344308,0.267816 -6.231012,-0.811678 L 55.728036,52.599394 c -1.694365,-0.35411 -3.290915,-1.069148 -4.679843,-2.095737 -1.388928,-1.026823 -2.536845,-2.340509 -3.364511,-3.85053 -0.827902,-1.510256 -1.315802,-3.180638 -1.430076,-4.8964 -0.114275,-1.715527 0.147663,-3.435286 0.767943,-5.040536 0.620279,-1.60525 1.583852,-3.057898 2.824412,-4.257309 1.240559,-1.199411 2.728478,-2.117063 4.361003,-2.689775 1.632525,-0.572736 3.370625,-0.786801 5.094616,-0.627428 1.723992,0.159373 3.392492,0.688374 4.890522,1.550534 z m -8.271963,7.332726 c -0.39079,0.297913 -0.7188,0.669422 -0.964984,1.093131 h -0.0012 c -0.371039,0.638385 -0.542921,1.371528 -0.494484,2.107023 0.04867,0.735259 0.315783,1.439951 0.767708,2.024491 0.451925,0.584539 1.067972,1.023061 1.770783,1.25984 0.702811,0.237013 1.460408,0.261467 2.177327,0.07077 0.716919,-0.190928 1.360712,-0.588302 1.849788,-1.142509 0.489311,-0.554208 0.802272,-1.239854 0.899147,-1.970411 0.09687,-0.730792 -0.02657,-1.473575 -0.354815,-2.134533 -0.328245,-0.660957 -0.846478,-1.210462 -1.489095,-1.578915 -0.426765,-0.244773 -0.897736,-0.403487 -1.386341,-0.467443 -0.488606,-0.06372 -0.98497,-0.03151 -1.460879,0.09523 -0.475908,0.126737 -0.921954,0.345175 -1.31298,0.643323 z"
     fill="#615eff"
     id="path2"
     style="stroke-width:2.35133" />
</svg>
