<?xml version="1.0" standalone="no"?>
<!DOCTYPE svg PUBLIC "-//W3C//DTD SVG 20010904//EN"
 "http://www.w3.org/TR/2001/REC-SVG-20010904/DTD/svg10.dtd">
<svg version="1.0" xmlns="http://www.w3.org/2000/svg"
 width="700.000000pt" height="700.000000pt" viewBox="0 0 700.000000 700.000000"
 preserveAspectRatio="xMidYMid meet">
<metadata>
Created by potrace 1.14, written by Peter Selinger 2001-2017
</metadata>
<g transform="translate(0.000000,700.000000) scale(0.100000,-0.100000)"
fill="#000000" stroke="none">
<path d="M1732 6952 c-20 -20 -20 -37 -20 -2879 l-1 -2858 88 -85 c75 -72 215
-204 361 -340 62 -58 272 -254 310 -290 50 -48 298 -280 325 -305 12 -11 35
-32 51 -48 37 -33 66 -40 91 -22 17 13 18 54 18 1014 0 551 2 1001 4 1001 5 0
88 -68 111 -90 9 -8 81 -71 160 -140 80 -68 147 -127 150 -130 3 -3 73 -64
155 -135 83 -71 155 -134 161 -140 6 -5 33 -28 58 -50 26 -22 65 -56 86 -75
21 -19 60 -53 86 -75 49 -41 281 -243 344 -299 19 -17 66 -58 105 -91 73 -63
130 -113 149 -130 6 -6 45 -39 86 -74 41 -35 77 -67 80 -70 3 -3 55 -49 115
-100 61 -52 117 -102 126 -110 9 -9 29 -27 45 -40 16 -13 75 -64 132 -114 108
-93 142 -108 168 -72 20 27 19 1521 0 1550 -8 12 -67 66 -132 120 -66 55 -136
115 -156 134 -21 19 -48 41 -60 49 -13 9 -27 21 -33 27 -5 7 -53 47 -105 91
-52 43 -97 81 -100 84 -3 3 -32 28 -65 56 -74 63 -386 327 -689 584 -126 107
-277 235 -335 284 -58 48 -128 108 -156 131 -27 23 -88 75 -135 115 -47 40
-96 82 -110 93 -14 12 -43 37 -65 56 -80 67 -150 126 -165 141 -13 13 -15 135
-14 1080 l1 1065 -71 70 c-39 39 -107 104 -151 145 -176 165 -521 488 -570
535 -18 17 -85 80 -150 140 -66 61 -141 131 -168 158 -60 57 -88 66 -115 39z"/>
<path d="M5183 6795 c-18 -8 -112 -76 -210 -152 -98 -76 -216 -168 -263 -203
-46 -36 -94 -72 -105 -82 -17 -14 -159 -124 -575 -445 -432 -332 -536 -416
-547 -436 -10 -17 -12 -181 -12 -714 l0 -691 35 -31 c40 -35 65 -38 114 -13
19 10 145 103 279 207 375 292 570 443 620 480 30 22 327 252 351 272 8 7 107
84 220 171 113 87 210 169 217 182 14 29 18 1367 3 1405 -10 26 -45 53 -77 59
-10 2 -33 -2 -50 -9z"/>
</g>
</svg>
