<svg width="314" height="257" viewBox="0 0 314 257" fill="none" xmlns="http://www.w3.org/2000/svg">
<circle cx="141.52" cy="69.1699" r="3.2877" fill="#E0CEF1"/>
<circle cx="141.52" cy="87.9567" r="3.2877" fill="#E0CEF1"/>
<circle cx="141.52" cy="106.744" r="3.2877" fill="#E0CEF1"/>
<circle cx="122.733" cy="125.53" r="3.2877" fill="#E0CEF1"/>
<circle cx="197.881" cy="144.317" r="3.2877" fill="#E0CEF1"/>
<circle cx="160.307" cy="163.104" r="3.2877" fill="#E0CEF1"/>
<circle cx="122.733" cy="163.104" r="3.2877" fill="#E0CEF1"/>
<circle cx="235.454" cy="87.9567" r="3.2877" fill="#E0CEF1"/>
<circle cx="235.454" cy="106.744" r="3.2877" fill="#E0CEF1"/>
<circle cx="216.667" cy="125.53" r="3.2877" fill="#E0CEF1"/>
<circle cx="291.815" cy="144.317" r="3.2877" fill="#E0CEF1"/>
<circle cx="254.241" cy="163.104" r="3.2877" fill="#E0CEF1"/>
<circle cx="179.094" cy="69.1699" r="3.2877" fill="#E0CEF1"/>
<circle cx="179.094" cy="87.9567" r="3.2877" fill="#E0CEF1"/>
<circle cx="179.094" cy="106.744" r="3.2877" fill="#E0CEF1"/>
<circle cx="160.307" cy="125.53" r="3.2877" fill="#E0CEF1"/>
<circle cx="235.454" cy="144.317" r="3.2877" fill="#E0CEF1"/>
<circle cx="197.881" cy="163.104" r="3.2877" fill="#E0CEF1"/>
<circle cx="273.028" cy="87.9567" r="3.2877" fill="#E0CEF1"/>
<circle cx="273.028" cy="106.744" r="3.2877" fill="#E0CEF1"/>
<circle cx="254.241" cy="125.53" r="3.2877" fill="#E0CEF1"/>
<circle cx="273.028" cy="125.53" r="3.2877" fill="#E0CEF1"/>
<circle cx="291.815" cy="163.104" r="3.2877" fill="#E0CEF1"/>
<circle cx="160.307" cy="69.1699" r="3.2877" fill="#E0CEF1"/>
<circle cx="160.307" cy="87.9567" r="3.2877" fill="#E0CEF1"/>
<circle cx="160.307" cy="106.744" r="3.2877" fill="#E0CEF1"/>
<circle cx="141.52" cy="125.53" r="3.2877" fill="#E0CEF1"/>
<circle cx="216.667" cy="144.317" r="3.2877" fill="#E0CEF1"/>
<circle cx="179.094" cy="163.104" r="3.2877" fill="#E0CEF1"/>
<circle cx="141.52" cy="163.104" r="3.2877" fill="#E0CEF1"/>
<circle cx="254.241" cy="87.9567" r="3.2877" fill="#E0CEF1"/>
<circle cx="254.241" cy="106.744" r="3.2877" fill="#E0CEF1"/>
<circle cx="235.454" cy="125.53" r="3.2877" fill="#E0CEF1"/>
<circle cx="310.602" cy="144.317" r="3.2877" fill="#E0CEF1"/>
<circle cx="273.028" cy="163.104" r="3.2877" fill="#E0CEF1"/>
<circle cx="197.881" cy="69.1699" r="3.2877" fill="#E0CEF1"/>
<circle cx="197.881" cy="87.9567" r="3.2877" fill="#E0CEF1"/>
<circle cx="197.881" cy="106.744" r="3.2877" fill="#E0CEF1"/>
<circle cx="179.094" cy="125.53" r="3.2877" fill="#E0CEF1"/>
<circle cx="254.241" cy="144.317" r="3.2877" fill="#E0CEF1"/>
<circle cx="216.667" cy="163.104" r="3.2877" fill="#E0CEF1"/>
<circle cx="291.815" cy="87.9567" r="3.2877" fill="#E0CEF1"/>
<circle cx="216.667" cy="69.1699" r="3.2877" fill="#E0CEF1"/>
<circle cx="216.667" cy="87.9567" r="3.2877" fill="#E0CEF1"/>
<circle cx="216.667" cy="106.744" r="3.2877" fill="#E0CEF1"/>
<circle cx="197.881" cy="125.53" r="3.2877" fill="#E0CEF1"/>
<circle cx="273.028" cy="144.317" r="3.2877" fill="#E0CEF1"/>
<circle cx="235.454" cy="163.104" r="3.2877" fill="#E0CEF1"/>
<path d="M198.998 72.4576L201.672 84.164L213.379 86.8384L201.672 89.5128L198.998 101.219L196.324 89.5128L184.617 86.8384L196.324 84.164L198.998 72.4576Z" fill="#AA50FF"/>
<path d="M193.143 106.65H154.476C151.818 106.65 149.643 108.825 149.643 111.483V154.983L159.309 145.316H193.143C195.801 145.316 197.976 143.141 197.976 140.483V111.483C197.976 108.825 195.801 106.65 193.143 106.65ZM193.143 140.483H157.303L154.476 143.311V111.483H193.143V140.483ZM161.726 123.566H166.559V128.4H161.726V123.566ZM181.059 123.566H185.893V128.4H181.059V123.566ZM171.393 123.566H176.226V128.4H171.393V123.566Z" fill="#AA50FF"/>
<path d="M235.81 146.762C237.967 146.762 239.716 145.054 239.716 142.947C239.716 140.84 237.967 139.132 235.81 139.132C233.653 139.132 231.904 140.84 231.904 142.947C231.904 145.054 233.653 146.762 235.81 146.762Z" fill="#F78181"/>
<path d="M231.904 119.532V124.485C244.5 124.485 254.712 134.46 254.712 146.762H259.783C259.783 131.73 247.295 119.532 231.904 119.532ZM231.904 129.437V134.39C238.892 134.39 244.571 139.937 244.571 146.762H249.642C249.642 137.19 241.705 129.437 231.904 129.437Z" fill="#F78181"/>
<g clip-path="url(#clip0_1341_9474)">
<path d="M268.961 100.589C269.917 100.498 270.868 100.335 271.803 100.099L284.822 87.6616C285.073 86.7643 285.249 85.8512 285.35 84.9321L268.961 100.589Z" fill="#4301FE"/>
<path d="M264.418 100.481C265.125 100.583 265.838 100.645 266.551 100.667L285.447 82.6154C285.429 81.9289 285.369 81.2431 285.268 80.562L264.418 100.481Z" fill="#4301FE"/>
<path d="M260.723 99.562C261.303 99.7706 261.892 99.9499 262.488 100.1L284.885 78.7032C284.733 78.1294 284.551 77.5613 284.338 77.0017L260.723 99.562Z" fill="#4301FE"/>
<path d="M257.598 98.0984C258.087 98.3862 258.588 98.6501 259.097 98.89L283.65 75.4343C283.404 74.9422 283.133 74.459 282.837 73.9865L257.598 98.0984Z" fill="#4301FE"/>
<path d="M254.938 96.1923C255.351 96.5483 255.777 96.8832 256.214 97.197L281.911 72.6483C281.587 72.2257 281.242 71.8134 280.875 71.4135L254.938 96.1923Z" fill="#4301FE"/>
<path d="M252.695 93.8857C253.03 94.2979 253.386 94.6994 253.765 95.0883L279.735 70.2782C279.333 69.9118 278.918 69.5662 278.492 69.2414L252.695 93.8857Z" fill="#4301FE"/>
<path d="M250.883 91.1695C251.142 91.6495 251.425 92.1207 251.733 92.5812L277.143 68.3062C276.667 68.007 276.179 67.7311 275.681 67.4786L250.883 91.1695Z" fill="#4301FE"/>
<path d="M249.559 87.9848C249.727 88.5444 249.925 89.0974 250.153 89.6415L274.097 66.7669C273.533 66.5444 272.959 66.3503 272.379 66.1843L249.559 87.9848Z" fill="#4301FE"/>
<path d="M248.871 84.1938C248.915 84.8589 248.999 85.522 249.121 86.1798L270.506 65.75C269.823 65.6278 269.134 65.5432 268.443 65.4962L248.871 84.1938Z" fill="#4301FE"/>
<path d="M249.232 79.4011C249.046 80.2498 248.925 81.1092 248.869 81.9722L266.134 65.4785C265.237 65.5259 264.342 65.6367 263.459 65.8103L249.232 79.4011Z" fill="#4301FE"/>
<path d="M260.087 66.808C257.964 67.6595 255.974 68.9129 254.242 70.5677C252.509 72.2228 251.193 74.1282 250.293 76.164L260.087 66.808Z" fill="#4301FE"/>
<path d="M283.323 91.3159L275.609 98.6845C277.203 97.8844 278.701 96.8428 280.044 95.5601C281.387 94.2771 282.48 92.8439 283.323 91.3159Z" fill="#4301FE"/>
</g>
<defs>
<clipPath id="clip0_1341_9474">
<rect width="37" height="35" fill="white" transform="translate(248.844 65.5317)"/>
</clipPath>
</defs>
</svg>
