<svg width="360" height="360" viewBox="0 0 360 360" fill="none" xmlns="http://www.w3.org/2000/svg">
<g filter="url(#filter0_d_7575_41555)">
<circle cx="238.402" cy="117.074" r="116.29" stroke="#8641F7" stroke-width="1.56927"/>
<circle cx="121.328" cy="117.074" r="116.29" stroke="#8641F7" stroke-width="1.56927"/>
<circle cx="121.328" cy="234.148" r="116.29" stroke="#8641F7" stroke-width="1.56927"/>
<circle cx="238.402" cy="234.148" r="116.29" stroke="#8641F7" stroke-width="1.56927"/>
<path d="M117.67 54.8789L109.824 50.3488V59.409L117.67 54.8789ZM58.6132 55.6635H110.609V54.0943H58.6132V55.6635ZM56.2592 234.149V58.0175H54.69V234.149H56.2592ZM58.6132 54.0943C56.4464 54.0943 54.69 55.8507 54.69 58.0175H56.2592C56.2592 56.7174 57.3131 55.6635 58.6132 55.6635V54.0943Z" fill="#8641F7"/>
<path d="M55.4746 241.466L50.9445 249.313H60.0047L55.4746 241.466ZM56.2592 300.524V248.528H54.69V300.524H56.2592ZM234.745 302.877H58.6132V304.447H234.745V302.877ZM54.69 300.524C54.69 302.69 56.4464 304.447 58.6132 304.447V302.877C57.3131 302.877 56.2592 301.824 56.2592 300.524H54.69Z" fill="#8641F7"/>
<path d="M304.256 117.075L308.786 109.228H299.726L304.256 117.075ZM303.471 58.0175V110.013H305.04V58.0175H303.471ZM124.986 55.6635L301.117 55.6635V54.0943L124.986 54.0943V55.6635ZM305.04 58.0175C305.04 55.8507 303.284 54.0943 301.117 54.0943V55.6635C302.417 55.6635 303.471 56.7174 303.471 58.0175H305.04Z" fill="#8641F7"/>
<path d="M242.06 303.662L249.907 308.192V299.132L242.06 303.662ZM301.117 302.877H249.122V304.447H301.117V302.877ZM303.471 124.392V300.524H305.04V124.392H303.471ZM301.117 304.447C303.284 304.447 305.04 302.69 305.04 300.524H303.471C303.471 301.824 302.417 302.877 301.117 302.877V304.447Z" fill="#8641F7"/>
</g>
<defs>
<filter id="filter0_d_7575_41555" x="0.253906" y="0" width="359.223" height="359.223" filterUnits="userSpaceOnUse" color-interpolation-filters="sRGB">
<feFlood flood-opacity="0" result="BackgroundImageFix"/>
<feColorMatrix in="SourceAlpha" type="matrix" values="0 0 0 0 0 0 0 0 0 0 0 0 0 0 0 0 0 0 127 0" result="hardAlpha"/>
<feOffset dy="4"/>
<feGaussianBlur stdDeviation="2"/>
<feComposite in2="hardAlpha" operator="out"/>
<feColorMatrix type="matrix" values="0 0 0 0 0.765568 0 0 0 0 0.0983398 0 0 0 0 1 0 0 0 0.75 0"/>
<feBlend mode="normal" in2="BackgroundImageFix" result="effect1_dropShadow_7575_41555"/>
<feBlend mode="normal" in="SourceGraphic" in2="effect1_dropShadow_7575_41555" result="shape"/>
</filter>
</defs>
</svg>
