<svg width="162" height="162" viewBox="0 0 162 162" fill="none" xmlns="http://www.w3.org/2000/svg">
<circle cx="108.098" cy="54.0205" r="52.8755" stroke="white" stroke-width="1.56927"/>
<circle cx="54.4375" cy="54.0205" r="52.8755" stroke="white" stroke-width="1.56927"/>
<circle cx="54.4375" cy="107.681" r="52.8755" stroke="white" stroke-width="1.56927"/>
<circle cx="108.098" cy="107.681" r="52.8755" stroke="white" stroke-width="1.56927"/>
<path d="M52.7609 25.5134L44.9145 20.9833V30.0435L52.7609 25.5134ZM27.3925 26.2981H45.6991V24.7288H27.3925V26.2981ZM25.0385 107.681V28.652H23.4693V107.681H25.0385ZM27.3925 24.7288C25.2257 24.7288 23.4693 26.4853 23.4693 28.652H25.0385C25.0385 27.3519 26.0924 26.2981 27.3925 26.2981V24.7288Z" fill="white"/>
<path d="M24.2539 111.034L19.7238 118.881H28.784L24.2539 111.034ZM25.0385 136.403V118.096H23.4693V136.403H25.0385ZM106.421 138.757H27.3925V140.326H106.421V138.757ZM23.4693 136.403C23.4693 138.57 25.2257 140.326 27.3925 140.326V138.757C26.0924 138.757 25.0385 137.703 25.0385 136.403H23.4693Z" fill="white"/>
<path d="M138.281 54.0204L142.811 46.174H133.751L138.281 54.0204ZM137.497 28.652V46.9587H139.066V28.652H137.497ZM56.1141 26.2981L135.143 26.2981V24.7288L56.1141 24.7288V26.2981ZM139.066 28.652C139.066 26.4853 137.309 24.7288 135.143 24.7288V26.2981C136.443 26.2981 137.497 27.3519 137.497 28.652H139.066Z" fill="white"/>
<path d="M109.774 139.541L117.621 144.071V135.011L109.774 139.541ZM135.143 138.757H116.836V140.326H135.143V138.757ZM137.497 57.3742V136.403H139.066V57.3742H137.497ZM135.143 140.326C137.309 140.326 139.066 138.57 139.066 136.403H137.497C137.497 137.703 136.443 138.757 135.143 138.757V140.326Z" fill="white"/>
</svg>
