<svg width="1720" height="639" viewBox="0 0 1720 639" fill="none" xmlns="http://www.w3.org/2000/svg">
<g clip-path="url(#clip0_1127_10496)">
<rect width="1735" height="639" transform="translate(-15.1602)" fill="#27055E"/>
<g filter="url(#filter0_f_1127_10496)">
<path fill-rule="evenodd" clip-rule="evenodd" d="M865.64 529.153C930.652 547.306 950.284 630.248 1003.33 671.99C1049.05 707.969 1137.22 699.045 1152.77 755.108C1169.16 814.217 1077.95 854.816 1070.92 915.751C1063.54 979.795 1140.52 1042.25 1112.94 1100.52C1086.97 1155.36 1010.22 1170.05 949.57 1172.08C894.522 1173.92 853.906 1120.44 799.642 1111C734.383 1099.65 650.663 1160.06 604.951 1112.12C560.114 1065.1 606.563 985.429 619.113 921.681C627.981 876.641 660.824 841.09 667.26 795.639C677.626 722.42 623.575 637.603 667.733 578.286C709.16 522.636 798.819 510.496 865.64 529.153Z" fill="#8C49FA"/>
</g>
<g filter="url(#filter1_f_1127_10496)">
<path fill-rule="evenodd" clip-rule="evenodd" d="M1382.67 563.648C1442.74 546.201 1508.15 571.908 1562.18 603.443C1617.6 635.791 1664.63 683.489 1689.4 742.686C1713.78 800.946 1722.22 869.774 1698.03 928.111C1675.33 982.858 1612.51 1005.07 1565.58 1041.27C1528.59 1069.8 1491.62 1093.71 1451.76 1118.08C1396.4 1151.93 1343.69 1241.78 1285.92 1212.25C1222.49 1179.83 1272.54 1070.57 1237.5 1008.56C1213.04 965.279 1142.13 965.378 1120.97 920.394C1098.31 872.217 1094.83 809.457 1122.4 763.909C1149.75 718.723 1217.77 723.524 1259.63 691.315C1307.44 654.528 1324.74 580.473 1382.67 563.648Z" fill="#D9C1FF"/>
</g>
<g filter="url(#filter2_f_1127_10496)">
<path fill-rule="evenodd" clip-rule="evenodd" d="M332 465.039C419.822 466.663 498.985 517.931 554.967 585.617C606.029 647.355 611.845 728.581 616.141 808.584C620.802 895.384 633.859 988.414 580.272 1056.86C521.855 1131.47 426.393 1179.83 332 1171.49C242.48 1163.59 186.117 1081.53 124.022 1016.56C64.1406 953.913 -10.2719 895.125 -14.8795 808.584C-19.6437 719.1 36.9611 640.273 100.631 577.215C163.938 514.516 242.914 463.391 332 465.039Z" fill="#8C49FA"/>
</g>
<g filter="url(#filter3_f_1127_10496)">
<path fill-rule="evenodd" clip-rule="evenodd" d="M413.301 7.49935C500.929 0.0783191 601.29 -15.8495 664.209 45.5903C727.41 107.305 716.229 208.438 709.258 296.498C702.989 375.677 683.538 454.409 627.395 510.591C571.233 566.793 492.718 590.264 413.301 592.664C331.007 595.151 247.492 578.529 185.865 523.934C120.685 466.19 75.8798 383.521 78.9924 296.498C82.0229 211.775 137.438 140.213 201.573 84.7701C260.658 33.6932 335.478 14.0901 413.301 7.49935Z" fill="#8C49FA"/>
</g>
<g filter="url(#filter4_f_1127_10496)">
<path fill-rule="evenodd" clip-rule="evenodd" d="M938.009 70.7593C993.544 77.5039 1048.31 89.933 1094.34 121.72C1139.43 152.854 1169.58 199.047 1194.48 247.853C1220.34 298.511 1245.43 351.826 1240.69 408.501C1235.83 466.788 1212.61 526.426 1168.06 564.318C1125.38 600.607 1064.67 608.397 1008.71 605.782C962.232 603.61 928.946 560.478 883.385 551.014C831.45 540.226 767.885 581.785 727.521 547.371C688.534 514.132 703.444 449.768 704.557 398.547C705.519 354.255 726.544 315.342 733.512 271.591C743.801 206.985 708.529 126.371 755.205 80.5325C799.642 36.8916 876.18 63.2503 938.009 70.7593Z" fill="#D9C1FF"/>
</g>
<g filter="url(#filter5_f_1127_10496)">
<path fill-rule="evenodd" clip-rule="evenodd" d="M1349.39 119.078C1379.37 136.687 1391.3 174.647 1419.26 195.312C1439.52 210.287 1466.59 211.146 1489.14 222.375C1515.91 235.704 1546.53 244.933 1565.45 268.096C1584.58 291.531 1598.24 322.708 1595.69 352.857C1593.1 383.57 1550.81 402.369 1551.5 433.185C1552.55 480.524 1609.81 518.844 1600.43 565.256C1592.81 602.938 1538.75 609.819 1510.51 635.903C1476.77 667.064 1462.34 731.242 1416.57 735.077C1368.24 739.127 1343.73 668.142 1297.41 653.76C1257.6 641.401 1212.21 675.263 1173.57 659.628C1135.8 644.34 1092.95 611.155 1091.5 570.429C1089.58 516.54 1159.38 481.639 1165.34 428.046C1168.65 398.239 1131.27 379.567 1115.57 354.013C1088.39 309.775 1036.82 272.466 1037.86 220.555C1038.7 177.966 1084.51 147.563 1120.13 124.199C1154.8 101.458 1196.89 89.9721 1238.35 89.0461C1277.01 88.1825 1316.04 99.4916 1349.39 119.078Z" fill="#8C49FA"/>
</g>
</g>
<defs>
<filter id="filter0_f_1127_10496" x="85.8398" y="21" width="1568.9" height="1651.12" filterUnits="userSpaceOnUse" color-interpolation-filters="sRGB">
<feFlood flood-opacity="0" result="BackgroundImageFix"/>
<feBlend mode="normal" in="SourceGraphic" in2="BackgroundImageFix" result="shape"/>
<feGaussianBlur stdDeviation="250" result="effect1_foregroundBlur_1127_10496"/>
</filter>
<filter id="filter1_f_1127_10496" x="602.84" y="58" width="1609.64" height="1660.12" filterUnits="userSpaceOnUse" color-interpolation-filters="sRGB">
<feFlood flood-opacity="0" result="BackgroundImageFix"/>
<feBlend mode="normal" in="SourceGraphic" in2="BackgroundImageFix" result="shape"/>
<feGaussianBlur stdDeviation="250" result="effect1_foregroundBlur_1127_10496"/>
</filter>
<filter id="filter2_f_1127_10496" x="-515.16" y="-35" width="1636.14" height="1707.43" filterUnits="userSpaceOnUse" color-interpolation-filters="sRGB">
<feFlood flood-opacity="0" result="BackgroundImageFix"/>
<feBlend mode="normal" in="SourceGraphic" in2="BackgroundImageFix" result="shape"/>
<feGaussianBlur stdDeviation="250" result="effect1_foregroundBlur_1127_10496"/>
</filter>
<filter id="filter3_f_1127_10496" x="-421.16" y="-500" width="1635.92" height="1592.9" filterUnits="userSpaceOnUse" color-interpolation-filters="sRGB">
<feFlood flood-opacity="0" result="BackgroundImageFix"/>
<feBlend mode="normal" in="SourceGraphic" in2="BackgroundImageFix" result="shape"/>
<feGaussianBlur stdDeviation="250" result="effect1_foregroundBlur_1127_10496"/>
</filter>
<filter id="filter4_f_1127_10496" x="200.84" y="-444" width="1540.43" height="1550.24" filterUnits="userSpaceOnUse" color-interpolation-filters="sRGB">
<feFlood flood-opacity="0" result="BackgroundImageFix"/>
<feBlend mode="normal" in="SourceGraphic" in2="BackgroundImageFix" result="shape"/>
<feGaussianBlur stdDeviation="250" result="effect1_foregroundBlur_1127_10496"/>
</filter>
<filter id="filter5_f_1127_10496" x="537.84" y="-411" width="1563.62" height="1646.24" filterUnits="userSpaceOnUse" color-interpolation-filters="sRGB">
<feFlood flood-opacity="0" result="BackgroundImageFix"/>
<feBlend mode="normal" in="SourceGraphic" in2="BackgroundImageFix" result="shape"/>
<feGaussianBlur stdDeviation="250" result="effect1_foregroundBlur_1127_10496"/>
</filter>
<clipPath id="clip0_1127_10496">
<rect width="1735" height="639" fill="white" transform="translate(-15.1602)"/>
</clipPath>
</defs>
</svg>
