<svg width="1720" height="639" viewBox="0 0 1720 639" fill="none" xmlns="http://www.w3.org/2000/svg">
    <g clip-path="url(#clip0_1700_9209)">
        <rect width="1735" height="639" transform="translate(-15.1602)" fill="#27055E"/>
        <g filter="url(#filter0_f_1700_9209)">
            <path fill-rule="evenodd" clip-rule="evenodd" d="M865.64 529.153C930.652 547.306 950.284 630.248 1003.33 671.99C1049.05 707.969 1137.22 699.045 1152.77 755.108C1169.16 814.217 1077.95 854.816 1070.92 915.751C1063.54 979.795 1140.52 1042.25 1112.94 1100.52C1086.97 1155.36 1010.22 1170.05 949.57 1172.08C894.522 1173.92 853.906 1120.44 799.642 1111C734.383 1099.65 650.663 1160.06 604.951 1112.12C560.114 1065.1 606.563 985.429 619.113 921.681C627.981 876.641 660.824 841.09 667.26 795.639C677.626 722.42 623.575 637.603 667.733 578.286C709.16 522.636 798.819 510.496 865.64 529.153Z" fill="#8C49FA"/>
        </g>
        <g filter="url(#filter1_f_1700_9209)">
            <path fill-rule="evenodd" clip-rule="evenodd" d="M1382.67 563.648C1442.74 546.201 1508.15 571.908 1562.18 603.443C1617.6 635.791 1664.63 683.489 1689.4 742.686C1713.78 800.946 1722.22 869.774 1698.03 928.111C1675.33 982.858 1612.51 1005.07 1565.58 1041.27C1528.59 1069.8 1491.62 1093.71 1451.76 1118.08C1396.4 1151.93 1343.69 1241.78 1285.92 1212.25C1222.49 1179.83 1272.54 1070.57 1237.5 1008.56C1213.04 965.279 1142.13 965.378 1120.97 920.394C1098.31 872.217 1094.83 809.457 1122.4 763.909C1149.75 718.723 1217.77 723.524 1259.63 691.315C1307.44 654.528 1324.74 580.473 1382.67 563.648Z" fill="#D9C1FF"/>
        </g>
        <g filter="url(#filter2_f_1700_9209)">
            <path fill-rule="evenodd" clip-rule="evenodd" d="M332 465.039C419.822 466.663 498.985 517.931 554.967 585.617C606.029 647.355 611.845 728.581 616.141 808.584C620.802 895.384 633.859 988.414 580.272 1056.86C521.855 1131.47 426.393 1179.83 332 1171.49C242.48 1163.59 186.117 1081.53 124.022 1016.56C64.1406 953.913 -10.2719 895.125 -14.8795 808.584C-19.6437 719.1 36.9611 640.273 100.631 577.215C163.938 514.516 242.914 463.391 332 465.039Z" fill="#8C49FA"/>
        </g>
        <g filter="url(#filter3_f_1700_9209)">
            <path fill-rule="evenodd" clip-rule="evenodd" d="M413.301 7.49935C500.929 0.0783191 601.29 -15.8495 664.209 45.5903C727.41 107.305 716.229 208.438 709.258 296.498C702.989 375.677 683.538 454.409 627.395 510.591C571.233 566.793 492.718 590.264 413.301 592.664C331.007 595.151 247.492 578.529 185.865 523.934C120.685 466.19 75.8798 383.521 78.9924 296.498C82.0229 211.775 137.438 140.213 201.573 84.7701C260.658 33.6932 335.478 14.0901 413.301 7.49935Z" fill="#8C49FA"/>
        </g>
        <g filter="url(#filter4_f_1700_9209)">
            <path fill-rule="evenodd" clip-rule="evenodd" d="M938.009 70.7593C993.544 77.5039 1048.31 89.933 1094.34 121.72C1139.43 152.854 1169.58 199.047 1194.48 247.853C1220.34 298.511 1245.43 351.826 1240.69 408.501C1235.83 466.788 1212.61 526.426 1168.06 564.318C1125.38 600.607 1064.67 608.397 1008.71 605.782C962.232 603.61 928.946 560.478 883.385 551.014C831.45 540.226 767.885 581.785 727.521 547.371C688.534 514.132 703.444 449.768 704.557 398.547C705.519 354.255 726.544 315.342 733.512 271.591C743.801 206.985 708.529 126.371 755.205 80.5325C799.642 36.8916 876.18 63.2503 938.009 70.7593Z" fill="#D9C1FF"/>
        </g>
        <g filter="url(#filter5_f_1700_9209)">
            <path fill-rule="evenodd" clip-rule="evenodd" d="M1349.39 119.078C1379.37 136.687 1391.3 174.647 1419.26 195.312C1439.52 210.287 1466.59 211.146 1489.14 222.375C1515.91 235.704 1546.53 244.933 1565.45 268.096C1584.58 291.531 1598.24 322.708 1595.69 352.857C1593.1 383.57 1550.81 402.369 1551.5 433.185C1552.55 480.524 1609.81 518.844 1600.43 565.256C1592.81 602.938 1538.75 609.819 1510.51 635.903C1476.78 667.064 1462.34 731.242 1416.57 735.077C1368.24 739.127 1343.73 668.142 1297.41 653.76C1257.6 641.401 1212.21 675.263 1173.57 659.628C1135.8 644.34 1092.95 611.155 1091.5 570.429C1089.58 516.54 1159.38 481.639 1165.34 428.046C1168.65 398.239 1131.27 379.567 1115.57 354.013C1088.39 309.775 1036.82 272.466 1037.86 220.555C1038.7 177.966 1084.51 147.563 1120.13 124.199C1154.8 101.458 1196.89 89.9721 1238.35 89.0461C1277.01 88.1825 1316.04 99.4916 1349.39 119.078Z" fill="#8C49FA"/>
        </g>
    </g>
    <path d="M777.007 64.2643C776.694 64.2643 776.441 64.4989 776.441 64.7883V68.3284C776.441 68.6178 776.694 68.8524 777.007 68.8524H780.825C781.137 68.8524 781.39 68.6178 781.39 68.3284V64.7883C781.39 64.4989 781.137 64.2643 780.825 64.2643H777.007Z" fill="#825DBE"/>
    <path d="M796.801 64.2643C796.489 64.2643 796.236 64.4989 796.236 64.7883V68.3284C796.236 68.6178 796.489 68.8524 796.801 68.8524H800.619C800.931 68.8524 801.184 68.6178 801.184 68.3284V64.7883C801.184 64.4989 800.931 64.2643 800.619 64.2643H796.801Z" fill="#825DBE"/>
    <path d="M816.03 64.7883C816.03 64.4989 816.283 64.2643 816.595 64.2643H820.413C820.725 64.2643 820.978 64.4989 820.978 64.7883V68.3284C820.978 68.6178 820.725 68.8524 820.413 68.8524H816.595C816.283 68.8524 816.03 68.6178 816.03 68.3284V64.7883Z" fill="#825DBE"/>
    <path d="M836.387 64.2643C836.075 64.2643 835.822 64.4989 835.822 64.7883V68.3284C835.822 68.6178 836.075 68.8524 836.387 68.8524H840.205C840.518 68.8524 840.771 68.6178 840.771 68.3284V64.7883C840.771 64.4989 840.518 64.2643 840.205 64.2643H836.387Z" fill="#825DBE"/>
    <path d="M855.616 64.7883C855.616 64.4989 855.869 64.2643 856.181 64.2643H859.999C860.312 64.2643 860.565 64.4989 860.565 64.7883V68.3284C860.565 68.6178 860.312 68.8524 859.999 68.8524H856.181C855.869 68.8524 855.616 68.6178 855.616 68.3284V64.7883Z" fill="#825DBE"/>
    <path d="M875.976 64.2643C875.663 64.2643 875.41 64.4989 875.41 64.7883V68.3284C875.41 68.6178 875.663 68.8524 875.976 68.8524H879.794C880.106 68.8524 880.359 68.6178 880.359 68.3284V64.7883C880.359 64.4989 880.106 64.2643 879.794 64.2643H875.976Z" fill="#825DBE"/>
    <path d="M895.204 64.7883C895.204 64.4989 895.457 64.2643 895.769 64.2643H899.588C899.9 64.2643 900.153 64.4989 900.153 64.7883V68.3284C900.153 68.6178 899.9 68.8524 899.588 68.8524H895.769C895.457 68.8524 895.204 68.6178 895.204 68.3284V64.7883Z" fill="#825DBE"/>
    <path d="M915.564 64.2643C915.252 64.2643 914.999 64.4989 914.999 64.7883V68.3284C914.999 68.6178 915.252 68.8524 915.564 68.8524H919.382C919.694 68.8524 919.947 68.6178 919.947 68.3284V64.7883C919.947 64.4989 919.694 64.2643 919.382 64.2643H915.564Z" fill="#825DBE"/>
    <path d="M934.791 64.7883C934.791 64.4989 935.044 64.2643 935.356 64.2643H939.174C939.486 64.2643 939.739 64.4989 939.739 64.7883V68.3284C939.739 68.6178 939.486 68.8524 939.174 68.8524H935.356C935.044 68.8524 934.791 68.6178 934.791 68.3284V64.7883Z" fill="#825DBE"/>
    <path d="M955.15 64.2643C954.838 64.2643 954.585 64.4989 954.585 64.7883V68.3284C954.585 68.6178 954.838 68.8524 955.15 68.8524H958.968C959.28 68.8524 959.534 68.6178 959.534 68.3284V64.7883C959.534 64.4989 959.28 64.2643 958.968 64.2643H955.15Z" fill="#825DBE"/>
    <path d="M776.441 83.1408C776.441 82.8514 776.694 82.6167 777.007 82.6167H780.825C781.137 82.6167 781.39 82.8514 781.39 83.1408V86.6808C781.39 86.9702 781.137 87.2048 780.825 87.2048H777.007C776.694 87.2048 776.441 86.9702 776.441 86.6808V83.1408Z" fill="#825DBE"/>
    <path d="M796.801 82.6167C796.489 82.6167 796.236 82.8514 796.236 83.1408V86.6808C796.236 86.9702 796.489 87.2048 796.801 87.2048H800.619C800.931 87.2048 801.184 86.9702 801.184 86.6808V83.1408C801.184 82.8514 800.931 82.6167 800.619 82.6167H796.801Z" fill="#825DBE"/>
    <path d="M816.03 83.1408C816.03 82.8514 816.283 82.6167 816.595 82.6167H820.413C820.725 82.6167 820.978 82.8514 820.978 83.1408V86.6808C820.978 86.9702 820.725 87.2048 820.413 87.2048H816.595C816.283 87.2048 816.03 86.9702 816.03 86.6808V83.1408Z" fill="#825DBE"/>
    <path d="M836.387 82.6167C836.075 82.6167 835.822 82.8514 835.822 83.1408V86.6808C835.822 86.9702 836.075 87.2048 836.387 87.2048H840.205C840.518 87.2048 840.771 86.9702 840.771 86.6808V83.1408C840.771 82.8514 840.518 82.6167 840.205 82.6167H836.387Z" fill="#825DBE"/>
    <path d="M855.616 83.1408C855.616 82.8514 855.869 82.6167 856.181 82.6167H859.999C860.312 82.6167 860.565 82.8514 860.565 83.1408V86.6808C860.565 86.9702 860.312 87.2048 859.999 87.2048H856.181C855.869 87.2048 855.616 86.9702 855.616 86.6808V83.1408Z" fill="#825DBE"/>
    <path d="M875.976 82.6167C875.663 82.6167 875.41 82.8514 875.41 83.1408V86.6808C875.41 86.9702 875.663 87.2048 875.976 87.2048H879.794C880.106 87.2048 880.359 86.9702 880.359 86.6808V83.1408C880.359 82.8514 880.106 82.6167 879.794 82.6167H875.976Z" fill="#825DBE"/>
    <path d="M895.204 83.1408C895.204 82.8514 895.457 82.6167 895.769 82.6167H899.588C899.9 82.6167 900.153 82.8514 900.153 83.1408V86.6808C900.153 86.9702 899.9 87.2048 899.588 87.2048H895.769C895.457 87.2048 895.204 86.9702 895.204 86.6808V83.1408Z" fill="#825DBE"/>
    <path d="M915.564 82.6167C915.252 82.6167 914.999 82.8514 914.999 83.1408V86.6808C914.999 86.9702 915.252 87.2048 915.564 87.2048H919.382C919.694 87.2048 919.947 86.9702 919.947 86.6808V83.1408C919.947 82.8514 919.694 82.6167 919.382 82.6167H915.564Z" fill="#825DBE"/>
    <path d="M934.791 83.1408C934.791 82.8514 935.044 82.6167 935.356 82.6167H939.174C939.486 82.6167 939.739 82.8514 939.739 83.1408V86.6808C939.739 86.9702 939.486 87.2048 939.174 87.2048H935.356C935.044 87.2048 934.791 86.9702 934.791 86.6808V83.1408Z" fill="#825DBE"/>
    <path d="M955.15 82.6167C954.838 82.6167 954.585 82.8514 954.585 83.1408V86.6808C954.585 86.9702 954.838 87.2048 955.15 87.2048H958.968C959.28 87.2048 959.534 86.9702 959.534 86.6808V83.1408C959.534 82.8514 959.28 82.6167 958.968 82.6167H955.15Z" fill="#825DBE"/>
    <path d="M776.441 101.493C776.441 101.204 776.694 100.969 777.007 100.969H780.825C781.137 100.969 781.39 101.204 781.39 101.493V105.033C781.39 105.323 781.137 105.557 780.825 105.557H777.007C776.694 105.557 776.441 105.323 776.441 105.033V101.493Z" fill="#825DBE"/>
    <path d="M796.801 100.969C796.489 100.969 796.236 101.204 796.236 101.493V105.033C796.236 105.323 796.489 105.557 796.801 105.557H800.619C800.931 105.557 801.184 105.323 801.184 105.033V101.493C801.184 101.204 800.931 100.969 800.619 100.969H796.801Z" fill="#825DBE"/>
    <path d="M816.03 101.493C816.03 101.204 816.283 100.969 816.595 100.969H820.413C820.725 100.969 820.978 101.204 820.978 101.493V105.033C820.978 105.323 820.725 105.557 820.413 105.557H816.595C816.283 105.557 816.03 105.323 816.03 105.033V101.493Z" fill="#825DBE"/>
    <path d="M836.387 100.969C836.075 100.969 835.822 101.204 835.822 101.493V105.033C835.822 105.323 836.075 105.557 836.387 105.557H840.205C840.518 105.557 840.771 105.323 840.771 105.033V101.493C840.771 101.204 840.518 100.969 840.205 100.969H836.387Z" fill="#825DBE"/>
    <path d="M855.616 101.493C855.616 101.204 855.869 100.969 856.181 100.969H859.999C860.312 100.969 860.565 101.204 860.565 101.493V105.033C860.565 105.323 860.312 105.557 859.999 105.557H856.181C855.869 105.557 855.616 105.323 855.616 105.033V101.493Z" fill="#825DBE"/>
    <path d="M875.976 100.969C875.663 100.969 875.41 101.204 875.41 101.493V105.033C875.41 105.323 875.663 105.557 875.976 105.557H879.794C880.106 105.557 880.359 105.323 880.359 105.033V101.493C880.359 101.204 880.106 100.969 879.794 100.969H875.976Z" fill="#825DBE"/>
    <path d="M895.204 101.493C895.204 101.204 895.457 100.969 895.769 100.969H899.588C899.9 100.969 900.153 101.204 900.153 101.493V105.033C900.153 105.323 899.9 105.557 899.588 105.557H895.769C895.457 105.557 895.204 105.323 895.204 105.033V101.493Z" fill="#825DBE"/>
    <path d="M915.564 100.969C915.252 100.969 914.999 101.204 914.999 101.493V105.033C914.999 105.323 915.252 105.557 915.564 105.557H919.382C919.694 105.557 919.947 105.323 919.947 105.033V101.493C919.947 101.204 919.694 100.969 919.382 100.969H915.564Z" fill="#825DBE"/>
    <path d="M934.791 101.493C934.791 101.204 935.044 100.969 935.356 100.969H939.174C939.486 100.969 939.739 101.204 939.739 101.493V105.033C939.739 105.323 939.486 105.557 939.174 105.557H935.356C935.044 105.557 934.791 105.323 934.791 105.033V101.493Z" fill="#825DBE"/>
    <path d="M955.15 100.969C954.838 100.969 954.585 101.204 954.585 101.493V105.033C954.585 105.323 954.838 105.557 955.15 105.557H958.968C959.28 105.557 959.534 105.323 959.534 105.033V101.493C959.534 101.204 959.28 100.969 958.968 100.969H955.15Z" fill="#825DBE"/>
    <path d="M776.441 119.846C776.441 119.556 776.694 119.322 777.007 119.322H780.825C781.137 119.322 781.39 119.556 781.39 119.846V123.386C781.39 123.675 781.137 123.91 780.825 123.91H777.007C776.694 123.91 776.441 123.675 776.441 123.386V119.846Z" fill="#825DBE"/>
    <path d="M796.801 119.322C796.489 119.322 796.236 119.556 796.236 119.846V123.386C796.236 123.675 796.489 123.91 796.801 123.91H800.619C800.931 123.91 801.184 123.675 801.184 123.386V119.846C801.184 119.556 800.931 119.322 800.619 119.322H796.801Z" fill="#825DBE"/>
    <path d="M816.03 119.846C816.03 119.556 816.283 119.322 816.595 119.322H820.413C820.725 119.322 820.978 119.556 820.978 119.846V123.386C820.978 123.675 820.725 123.91 820.413 123.91H816.595C816.283 123.91 816.03 123.675 816.03 123.386V119.846Z" fill="#825DBE"/>
    <path d="M836.387 119.322C836.075 119.322 835.822 119.556 835.822 119.846V123.386C835.822 123.675 836.075 123.91 836.387 123.91H840.205C840.518 123.91 840.771 123.675 840.771 123.386V119.846C840.771 119.556 840.518 119.322 840.205 119.322H836.387Z" fill="#825DBE"/>
    <path d="M855.616 119.846C855.616 119.556 855.869 119.322 856.181 119.322H859.999C860.312 119.322 860.565 119.556 860.565 119.846V123.386C860.565 123.675 860.312 123.91 859.999 123.91H856.181C855.869 123.91 855.616 123.675 855.616 123.386V119.846Z" fill="#825DBE"/>
    <path d="M875.976 119.322C875.663 119.322 875.41 119.556 875.41 119.846V123.386C875.41 123.675 875.663 123.91 875.976 123.91H879.794C880.106 123.91 880.359 123.675 880.359 123.386V119.846C880.359 119.556 880.106 119.322 879.794 119.322H875.976Z" fill="#825DBE"/>
    <path d="M895.204 119.846C895.204 119.556 895.457 119.322 895.769 119.322H899.588C899.9 119.322 900.153 119.556 900.153 119.846V123.386C900.153 123.675 899.9 123.91 899.588 123.91H895.769C895.457 123.91 895.204 123.675 895.204 123.386V119.846Z" fill="#825DBE"/>
    <path d="M915.564 119.322C915.252 119.322 914.999 119.556 914.999 119.846V123.386C914.999 123.675 915.252 123.91 915.564 123.91H919.382C919.694 123.91 919.947 123.675 919.947 123.386V119.846C919.947 119.556 919.694 119.322 919.382 119.322H915.564Z" fill="#825DBE"/>
    <path d="M934.791 119.846C934.791 119.556 935.044 119.322 935.356 119.322H939.174C939.486 119.322 939.739 119.556 939.739 119.846V123.386C939.739 123.675 939.486 123.91 939.174 123.91H935.356C935.044 123.91 934.791 123.675 934.791 123.386V119.846Z" fill="#825DBE"/>
    <path d="M955.15 119.322C954.838 119.322 954.585 119.556 954.585 119.846V123.386C954.585 123.675 954.838 123.91 955.15 123.91H958.968C959.28 123.91 959.534 123.675 959.534 123.386V119.846C959.534 119.556 959.28 119.322 958.968 119.322H955.15Z" fill="#825DBE"/>
    <path d="M776.441 138.198C776.441 137.909 776.694 137.674 777.007 137.674H780.825C781.137 137.674 781.39 137.909 781.39 138.198V141.738C781.39 142.027 781.137 142.262 780.825 142.262H777.007C776.694 142.262 776.441 142.027 776.441 141.738V138.198Z" fill="#825DBE"/>
    <path d="M796.801 137.674C796.489 137.674 796.236 137.909 796.236 138.198V141.738C796.236 142.027 796.489 142.262 796.801 142.262H800.619C800.931 142.262 801.184 142.027 801.184 141.738V138.198C801.184 137.909 800.931 137.674 800.619 137.674H796.801Z" fill="#825DBE"/>
    <path d="M816.03 138.198C816.03 137.909 816.283 137.674 816.595 137.674H820.413C820.725 137.674 820.978 137.909 820.978 138.198V141.738C820.978 142.027 820.725 142.262 820.413 142.262H816.595C816.283 142.262 816.03 142.027 816.03 141.738V138.198Z" fill="#825DBE"/>
    <path d="M836.387 137.674C836.075 137.674 835.822 137.909 835.822 138.198V141.738C835.822 142.027 836.075 142.262 836.387 142.262H840.205C840.518 142.262 840.771 142.027 840.771 141.738V138.198C840.771 137.909 840.518 137.674 840.205 137.674H836.387Z" fill="#825DBE"/>
    <path d="M855.616 138.198C855.616 137.909 855.869 137.674 856.181 137.674H859.999C860.312 137.674 860.565 137.909 860.565 138.198V141.738C860.565 142.027 860.312 142.262 859.999 142.262H856.181C855.869 142.262 855.616 142.027 855.616 141.738V138.198Z" fill="#825DBE"/>
    <path d="M875.976 137.674C875.663 137.674 875.41 137.909 875.41 138.198V141.738C875.41 142.027 875.663 142.262 875.976 142.262H879.794C880.106 142.262 880.359 142.027 880.359 141.738V138.198C880.359 137.909 880.106 137.674 879.794 137.674H875.976Z" fill="#825DBE"/>
    <path d="M895.204 138.198C895.204 137.909 895.457 137.674 895.769 137.674H899.588C899.9 137.674 900.153 137.909 900.153 138.198V141.738C900.153 142.027 899.9 142.262 899.588 142.262H895.769C895.457 142.262 895.204 142.027 895.204 141.738V138.198Z" fill="#825DBE"/>
    <path d="M915.564 137.674C915.252 137.674 914.999 137.909 914.999 138.198V141.738C914.999 142.027 915.252 142.262 915.564 142.262H919.382C919.694 142.262 919.947 142.027 919.947 141.738V138.198C919.947 137.909 919.694 137.674 919.382 137.674H915.564Z" fill="#825DBE"/>
    <path d="M934.791 138.198C934.791 137.909 935.044 137.674 935.356 137.674H939.174C939.486 137.674 939.739 137.909 939.739 138.198V141.738C939.739 142.027 939.486 142.262 939.174 142.262H935.356C935.044 142.262 934.791 142.027 934.791 141.738V138.198Z" fill="#825DBE"/>
    <path d="M955.15 137.674C954.838 137.674 954.585 137.909 954.585 138.198V141.738C954.585 142.027 954.838 142.262 955.15 142.262H958.968C959.28 142.262 959.534 142.027 959.534 141.738V138.198C959.534 137.909 959.28 137.674 958.968 137.674H955.15Z" fill="#825DBE"/>
    <path d="M776.441 156.55C776.441 156.261 776.694 156.026 777.007 156.026H780.825C781.137 156.026 781.39 156.261 781.39 156.55V160.09C781.39 160.38 781.137 160.614 780.825 160.614H777.007C776.694 160.614 776.441 160.38 776.441 160.09V156.55Z" fill="#825DBE"/>
    <path d="M796.801 156.026C796.489 156.026 796.236 156.261 796.236 156.55V160.09C796.236 160.38 796.489 160.614 796.801 160.614H800.619C800.931 160.614 801.184 160.38 801.184 160.09V156.55C801.184 156.261 800.931 156.026 800.619 156.026H796.801Z" fill="#825DBE"/>
    <path d="M816.03 156.55C816.03 156.261 816.283 156.026 816.595 156.026H820.413C820.725 156.026 820.978 156.261 820.978 156.55V160.09C820.978 160.38 820.725 160.614 820.413 160.614H816.595C816.283 160.614 816.03 160.38 816.03 160.09V156.55Z" fill="#825DBE"/>
    <path d="M836.387 156.026C836.075 156.026 835.822 156.261 835.822 156.55V160.09C835.822 160.38 836.075 160.614 836.387 160.614H840.205C840.518 160.614 840.771 160.38 840.771 160.09V156.55C840.771 156.261 840.518 156.026 840.205 156.026H836.387Z" fill="#825DBE"/>
    <path d="M855.616 156.55C855.616 156.261 855.869 156.026 856.181 156.026H859.999C860.312 156.026 860.565 156.261 860.565 156.55V160.09C860.565 160.38 860.312 160.614 859.999 160.614H856.181C855.869 160.614 855.616 160.38 855.616 160.09V156.55Z" fill="#825DBE"/>
    <path d="M875.976 156.026C875.663 156.026 875.41 156.261 875.41 156.55V160.09C875.41 160.38 875.663 160.614 875.976 160.614H879.794C880.106 160.614 880.359 160.38 880.359 160.09V156.55C880.359 156.261 880.106 156.026 879.794 156.026H875.976Z" fill="#825DBE"/>
    <path d="M895.204 156.55C895.204 156.261 895.457 156.026 895.769 156.026H899.588C899.9 156.026 900.153 156.261 900.153 156.55V160.09C900.153 160.38 899.9 160.614 899.588 160.614H895.769C895.457 160.614 895.204 160.38 895.204 160.09V156.55Z" fill="#825DBE"/>
    <path d="M915.564 156.026C915.252 156.026 914.999 156.261 914.999 156.55V160.09C914.999 160.38 915.252 160.614 915.564 160.614H919.382C919.694 160.614 919.947 160.38 919.947 160.09V156.55C919.947 156.261 919.694 156.026 919.382 156.026H915.564Z" fill="#825DBE"/>
    <path d="M934.791 156.55C934.791 156.261 935.044 156.026 935.356 156.026H939.174C939.486 156.026 939.739 156.261 939.739 156.55V160.09C939.739 160.38 939.486 160.614 939.174 160.614H935.356C935.044 160.614 934.791 160.38 934.791 160.09V156.55Z" fill="#825DBE"/>
    <path d="M955.15 156.026C954.838 156.026 954.585 156.261 954.585 156.55V160.09C954.585 160.38 954.838 160.614 955.15 160.614H958.968C959.28 160.614 959.534 160.38 959.534 160.09V156.55C959.534 156.261 959.28 156.026 958.968 156.026H955.15Z" fill="#825DBE"/>
    <path d="M776.441 174.903C776.441 174.613 776.694 174.379 777.007 174.379H780.825C781.137 174.379 781.39 174.613 781.39 174.903V178.443C781.39 178.732 781.137 178.967 780.825 178.967H777.007C776.694 178.967 776.441 178.732 776.441 178.443V174.903Z" fill="#825DBE"/>
    <path d="M777.007 192.079C776.694 192.079 776.441 192.314 776.441 192.603V196.143C776.441 196.432 776.694 196.667 777.007 196.667H780.825C781.137 196.667 781.39 196.432 781.39 196.143V192.603C781.39 192.314 781.137 192.079 780.825 192.079H777.007Z" fill="#825DBE"/>
    <path d="M776.441 210.303C776.441 210.014 776.694 209.779 777.007 209.779H780.825C781.137 209.779 781.39 210.014 781.39 210.303V213.843C781.39 214.133 781.137 214.367 780.825 214.367H777.007C776.694 214.367 776.441 214.133 776.441 213.843V210.303Z" fill="#825DBE"/>
    <path d="M777.007 227.479C776.694 227.479 776.441 227.714 776.441 228.003V231.544C776.441 231.833 776.694 232.068 777.007 232.068H780.825C781.137 232.068 781.39 231.833 781.39 231.544V228.003C781.39 227.714 781.137 227.479 780.825 227.479H777.007Z" fill="#825DBE"/>
    <path d="M796.236 174.903C796.236 174.613 796.489 174.379 796.801 174.379H800.619C800.931 174.379 801.184 174.613 801.184 174.903V178.443C801.184 178.732 800.931 178.967 800.619 178.967H796.801C796.489 178.967 796.236 178.732 796.236 178.443V174.903Z" fill="#825DBE"/>
    <path d="M796.801 192.079C796.489 192.079 796.236 192.314 796.236 192.603V196.143C796.236 196.432 796.489 196.667 796.801 196.667H800.619C800.931 196.667 801.184 196.432 801.184 196.143V192.603C801.184 192.314 800.931 192.079 800.619 192.079H796.801Z" fill="#825DBE"/>
    <path d="M796.236 210.303C796.236 210.014 796.489 209.779 796.801 209.779H800.619C800.931 209.779 801.184 210.014 801.184 210.303V213.843C801.184 214.133 800.931 214.367 800.619 214.367H796.801C796.489 214.367 796.236 214.133 796.236 213.843V210.303Z" fill="#825DBE"/>
    <path d="M796.801 227.479C796.489 227.479 796.236 227.714 796.236 228.003V231.544C796.236 231.833 796.489 232.068 796.801 232.068H800.619C800.931 232.068 801.184 231.833 801.184 231.544V228.003C801.184 227.714 800.931 227.479 800.619 227.479H796.801Z" fill="#825DBE"/>
    <path d="M816.03 174.903C816.03 174.613 816.283 174.379 816.595 174.379H820.413C820.725 174.379 820.978 174.613 820.978 174.903V178.443C820.978 178.732 820.725 178.967 820.413 178.967H816.595C816.283 178.967 816.03 178.732 816.03 178.443V174.903Z" fill="#825DBE"/>
    <path d="M816.595 192.079C816.283 192.079 816.03 192.314 816.03 192.603V196.143C816.03 196.432 816.283 196.667 816.595 196.667H820.413C820.725 196.667 820.978 196.432 820.978 196.143V192.603C820.978 192.314 820.725 192.079 820.413 192.079H816.595Z" fill="#825DBE"/>
    <path d="M816.03 210.303C816.03 210.014 816.283 209.779 816.595 209.779H820.413C820.725 209.779 820.978 210.014 820.978 210.303V213.843C820.978 214.133 820.725 214.367 820.413 214.367H816.595C816.283 214.367 816.03 214.133 816.03 213.843V210.303Z" fill="#825DBE"/>
    <path d="M816.595 227.479C816.283 227.479 816.03 227.714 816.03 228.003V231.544C816.03 231.833 816.283 232.068 816.595 232.068H820.413C820.725 232.068 820.978 231.833 820.978 231.544V228.003C820.978 227.714 820.725 227.479 820.413 227.479H816.595Z" fill="#825DBE"/>
    <path d="M835.822 174.903C835.822 174.613 836.075 174.379 836.387 174.379H840.205C840.518 174.379 840.771 174.613 840.771 174.903V178.443C840.771 178.732 840.518 178.967 840.205 178.967H836.387C836.075 178.967 835.822 178.732 835.822 178.443V174.903Z" fill="#825DBE"/>
    <path d="M836.387 192.079C836.075 192.079 835.822 192.314 835.822 192.603V196.143C835.822 196.432 836.075 196.667 836.387 196.667H840.205C840.518 196.667 840.771 196.432 840.771 196.143V192.603C840.771 192.314 840.518 192.079 840.205 192.079H836.387Z" fill="#825DBE"/>
    <path d="M835.822 210.303C835.822 210.014 836.075 209.779 836.387 209.779H840.205C840.518 209.779 840.771 210.014 840.771 210.303V213.843C840.771 214.133 840.518 214.367 840.205 214.367H836.387C836.075 214.367 835.822 214.133 835.822 213.843V210.303Z" fill="#825DBE"/>
    <path d="M836.387 227.479C836.075 227.479 835.822 227.714 835.822 228.003V231.544C835.822 231.833 836.075 232.068 836.387 232.068H840.205C840.518 232.068 840.771 231.833 840.771 231.544V228.003C840.771 227.714 840.518 227.479 840.205 227.479H836.387Z" fill="#825DBE"/>
    <path d="M855.616 174.903C855.616 174.613 855.869 174.379 856.181 174.379H859.999C860.312 174.379 860.565 174.613 860.565 174.903V178.443C860.565 178.732 860.312 178.967 859.999 178.967H856.181C855.869 178.967 855.616 178.732 855.616 178.443V174.903Z" fill="#825DBE"/>
    <path d="M856.181 192.079C855.869 192.079 855.616 192.314 855.616 192.603V196.143C855.616 196.432 855.869 196.667 856.181 196.667H859.999C860.312 196.667 860.565 196.432 860.565 196.143V192.603C860.565 192.314 860.312 192.079 859.999 192.079H856.181Z" fill="#825DBE"/>
    <path d="M855.616 210.303C855.616 210.014 855.869 209.779 856.181 209.779H859.999C860.312 209.779 860.565 210.014 860.565 210.303V213.843C860.565 214.133 860.312 214.367 859.999 214.367H856.181C855.869 214.367 855.616 214.133 855.616 213.843V210.303Z" fill="#825DBE"/>
    <path d="M856.181 227.479C855.869 227.479 855.616 227.714 855.616 228.003V231.544C855.616 231.833 855.869 232.068 856.181 232.068H859.999C860.312 232.068 860.565 231.833 860.565 231.544V228.003C860.565 227.714 860.312 227.479 859.999 227.479H856.181Z" fill="#825DBE"/>
    <path d="M875.41 174.903C875.41 174.613 875.663 174.379 875.976 174.379H879.794C880.106 174.379 880.359 174.613 880.359 174.903V178.443C880.359 178.732 880.106 178.967 879.794 178.967H875.976C875.663 178.967 875.41 178.732 875.41 178.443V174.903Z" fill="#825DBE"/>
    <path d="M875.976 192.079C875.663 192.079 875.41 192.314 875.41 192.603V196.143C875.41 196.432 875.663 196.667 875.976 196.667H879.794C880.106 196.667 880.359 196.432 880.359 196.143V192.603C880.359 192.314 880.106 192.079 879.794 192.079H875.976Z" fill="#825DBE"/>
    <path d="M875.41 210.303C875.41 210.014 875.663 209.779 875.976 209.779H879.794C880.106 209.779 880.359 210.014 880.359 210.303V213.843C880.359 214.133 880.106 214.367 879.794 214.367H875.976C875.663 214.367 875.41 214.133 875.41 213.843V210.303Z" fill="#825DBE"/>
    <path d="M875.976 227.479C875.663 227.479 875.41 227.714 875.41 228.003V231.544C875.41 231.833 875.663 232.068 875.976 232.068H879.794C880.106 232.068 880.359 231.833 880.359 231.544V228.003C880.359 227.714 880.106 227.479 879.794 227.479H875.976Z" fill="#825DBE"/>
    <path d="M895.204 174.903C895.204 174.613 895.457 174.379 895.769 174.379H899.588C899.9 174.379 900.153 174.613 900.153 174.903V178.443C900.153 178.732 899.9 178.967 899.588 178.967H895.769C895.457 178.967 895.204 178.732 895.204 178.443V174.903Z" fill="#825DBE"/>
    <path d="M895.769 192.079C895.457 192.079 895.204 192.314 895.204 192.603V196.143C895.204 196.432 895.457 196.667 895.769 196.667H899.588C899.9 196.667 900.153 196.432 900.153 196.143V192.603C900.153 192.314 899.9 192.079 899.588 192.079H895.769Z" fill="#825DBE"/>
    <path d="M895.204 210.303C895.204 210.014 895.457 209.779 895.769 209.779H899.588C899.9 209.779 900.153 210.014 900.153 210.303V213.843C900.153 214.133 899.9 214.367 899.588 214.367H895.769C895.457 214.367 895.204 214.133 895.204 213.843V210.303Z" fill="#825DBE"/>
    <path d="M895.769 227.479C895.457 227.479 895.204 227.714 895.204 228.003V231.544C895.204 231.833 895.457 232.068 895.769 232.068H899.588C899.9 232.068 900.153 231.833 900.153 231.544V228.003C900.153 227.714 899.9 227.479 899.588 227.479H895.769Z" fill="#825DBE"/>
    <path d="M914.999 174.903C914.999 174.613 915.252 174.379 915.564 174.379H919.382C919.694 174.379 919.947 174.613 919.947 174.903V178.443C919.947 178.732 919.694 178.967 919.382 178.967H915.564C915.252 178.967 914.999 178.732 914.999 178.443V174.903Z" fill="#825DBE"/>
    <path d="M915.564 192.079C915.252 192.079 914.999 192.314 914.999 192.603V196.143C914.999 196.432 915.252 196.667 915.564 196.667H919.382C919.694 196.667 919.947 196.432 919.947 196.143V192.603C919.947 192.314 919.694 192.079 919.382 192.079H915.564Z" fill="#825DBE"/>
    <path d="M914.999 210.303C914.999 210.014 915.252 209.779 915.564 209.779H919.382C919.694 209.779 919.947 210.014 919.947 210.303V213.843C919.947 214.133 919.694 214.367 919.382 214.367H915.564C915.252 214.367 914.999 214.133 914.999 213.843V210.303Z" fill="#825DBE"/>
    <path d="M915.564 227.479C915.252 227.479 914.999 227.714 914.999 228.003V231.544C914.999 231.833 915.252 232.068 915.564 232.068H919.382C919.694 232.068 919.947 231.833 919.947 231.544V228.003C919.947 227.714 919.694 227.479 919.382 227.479H915.564Z" fill="#825DBE"/>
    <path d="M934.791 174.903C934.791 174.613 935.044 174.379 935.356 174.379H939.174C939.486 174.379 939.739 174.613 939.739 174.903V178.443C939.739 178.732 939.486 178.967 939.174 178.967H935.356C935.044 178.967 934.791 178.732 934.791 178.443V174.903Z" fill="#825DBE"/>
    <path d="M935.356 192.079C935.044 192.079 934.791 192.314 934.791 192.603V196.143C934.791 196.432 935.044 196.667 935.356 196.667H939.174C939.486 196.667 939.739 196.432 939.739 196.143V192.603C939.739 192.314 939.486 192.079 939.174 192.079H935.356Z" fill="#825DBE"/>
    <path d="M934.791 210.303C934.791 210.014 935.044 209.779 935.356 209.779H939.174C939.486 209.779 939.739 210.014 939.739 210.303V213.843C939.739 214.133 939.486 214.367 939.174 214.367H935.356C935.044 214.367 934.791 214.133 934.791 213.843V210.303Z" fill="#825DBE"/>
    <path d="M935.356 227.479C935.044 227.479 934.791 227.714 934.791 228.003V231.544C934.791 231.833 935.044 232.068 935.356 232.068H939.174C939.486 232.068 939.739 231.833 939.739 231.544V228.003C939.739 227.714 939.486 227.479 939.174 227.479H935.356Z" fill="#825DBE"/>
    <path d="M954.585 174.903C954.585 174.613 954.838 174.379 955.15 174.379H958.968C959.28 174.379 959.534 174.613 959.534 174.903V178.443C959.534 178.732 959.28 178.967 958.968 178.967H955.15C954.838 178.967 954.585 178.732 954.585 178.443V174.903Z" fill="#825DBE"/>
    <path d="M955.15 192.079C954.838 192.079 954.585 192.314 954.585 192.603V196.143C954.585 196.432 954.838 196.667 955.15 196.667H958.968C959.28 196.667 959.534 196.432 959.534 196.143V192.603C959.534 192.314 959.28 192.079 958.968 192.079H955.15Z" fill="#825DBE"/>
    <path d="M954.585 210.303C954.585 210.014 954.838 209.779 955.15 209.779H958.968C959.28 209.779 959.534 210.014 959.534 210.303V213.843C959.534 214.133 959.28 214.367 958.968 214.367H955.15C954.838 214.367 954.585 214.133 954.585 213.843V210.303Z" fill="#825DBE"/>
    <path d="M955.15 227.479C954.838 227.479 954.585 227.714 954.585 228.003V231.544C954.585 231.833 954.838 232.068 955.15 232.068H958.968C959.28 232.068 959.534 231.833 959.534 231.544V228.003C959.534 227.714 959.28 227.479 958.968 227.479H955.15Z" fill="#825DBE"/>
    <defs>
        <filter id="filter0_f_1700_9209" x="85.8398" y="21" width="1568.9" height="1651.12" filterUnits="userSpaceOnUse" color-interpolation-filters="sRGB">
            <feFlood flood-opacity="0" result="BackgroundImageFix"/>
            <feBlend mode="normal" in="SourceGraphic" in2="BackgroundImageFix" result="shape"/>
            <feGaussianBlur stdDeviation="250" result="effect1_foregroundBlur_1700_9209"/>
        </filter>
        <filter id="filter1_f_1700_9209" x="602.84" y="58" width="1609.64" height="1660.12" filterUnits="userSpaceOnUse" color-interpolation-filters="sRGB">
            <feFlood flood-opacity="0" result="BackgroundImageFix"/>
            <feBlend mode="normal" in="SourceGraphic" in2="BackgroundImageFix" result="shape"/>
            <feGaussianBlur stdDeviation="250" result="effect1_foregroundBlur_1700_9209"/>
        </filter>
        <filter id="filter2_f_1700_9209" x="-515.16" y="-35" width="1636.14" height="1707.43" filterUnits="userSpaceOnUse" color-interpolation-filters="sRGB">
            <feFlood flood-opacity="0" result="BackgroundImageFix"/>
            <feBlend mode="normal" in="SourceGraphic" in2="BackgroundImageFix" result="shape"/>
            <feGaussianBlur stdDeviation="250" result="effect1_foregroundBlur_1700_9209"/>
        </filter>
        <filter id="filter3_f_1700_9209" x="-421.16" y="-500" width="1635.92" height="1592.9" filterUnits="userSpaceOnUse" color-interpolation-filters="sRGB">
            <feFlood flood-opacity="0" result="BackgroundImageFix"/>
            <feBlend mode="normal" in="SourceGraphic" in2="BackgroundImageFix" result="shape"/>
            <feGaussianBlur stdDeviation="250" result="effect1_foregroundBlur_1700_9209"/>
        </filter>
        <filter id="filter4_f_1700_9209" x="200.84" y="-444" width="1540.43" height="1550.24" filterUnits="userSpaceOnUse" color-interpolation-filters="sRGB">
            <feFlood flood-opacity="0" result="BackgroundImageFix"/>
            <feBlend mode="normal" in="SourceGraphic" in2="BackgroundImageFix" result="shape"/>
            <feGaussianBlur stdDeviation="250" result="effect1_foregroundBlur_1700_9209"/>
        </filter>
        <filter id="filter5_f_1700_9209" x="537.84" y="-411" width="1563.63" height="1646.24" filterUnits="userSpaceOnUse" color-interpolation-filters="sRGB">
            <feFlood flood-opacity="0" result="BackgroundImageFix"/>
            <feBlend mode="normal" in="SourceGraphic" in2="BackgroundImageFix" result="shape"/>
            <feGaussianBlur stdDeviation="250" result="effect1_foregroundBlur_1700_9209"/>
        </filter>
        <clipPath id="clip0_1700_9209">
            <rect width="1735" height="639" fill="white" transform="translate(-15.1602)"/>
        </clipPath>
    </defs>
</svg>
