<svg width="1720" height="639" viewBox="0 0 1720 639" fill="none" xmlns="http://www.w3.org/2000/svg">
    <g clip-path="url(#clip0_1700_9209)">
        <rect width="1719.25" height="639" fill="#27055E"/>
        <g filter="url(#filter0_f_1700_9209)">
            <path fill-rule="evenodd" clip-rule="evenodd" d="M880.8 529.153C945.812 547.306 965.444 630.248 1018.49 671.99C1064.21 707.969 1152.38 699.045 1167.93 755.108C1184.32 814.217 1093.11 854.816 1086.08 915.751C1078.7 979.795 1155.68 1042.25 1128.1 1100.52C1102.13 1155.36 1025.38 1170.05 964.73 1172.08C909.682 1173.92 869.066 1120.44 814.802 1111C749.543 1099.65 665.823 1160.06 620.111 1112.12C575.274 1065.1 621.723 985.429 634.273 921.681C643.141 876.641 675.985 841.09 682.42 795.639C692.786 722.42 638.735 637.603 682.893 578.286C724.32 522.636 813.979 510.496 880.8 529.153Z" fill="#8C49FA"/>
        </g>
        <g filter="url(#filter1_f_1700_9209)">
            <path fill-rule="evenodd" clip-rule="evenodd" d="M1397.83 563.648C1457.9 546.201 1523.31 571.908 1577.34 603.443C1632.76 635.791 1679.79 683.489 1704.56 742.686C1728.94 800.946 1737.38 869.774 1713.19 928.111C1690.49 982.858 1627.67 1005.07 1580.74 1041.27C1543.75 1069.8 1506.78 1093.71 1466.92 1118.08C1411.56 1151.93 1358.86 1241.78 1301.08 1212.25C1237.65 1179.83 1287.7 1070.57 1252.66 1008.56C1228.2 965.279 1157.29 965.378 1136.13 920.394C1113.47 872.217 1109.99 809.457 1137.56 763.909C1164.91 718.723 1232.93 723.524 1274.79 691.315C1322.6 654.528 1339.9 580.473 1397.83 563.648Z" fill="#D9C1FF"/>
        </g>
        <g filter="url(#filter2_f_1700_9209)">
            <path fill-rule="evenodd" clip-rule="evenodd" d="M347.16 465.039C434.982 466.663 514.145 517.931 570.127 585.617C621.19 647.355 627.005 728.581 631.301 808.584C635.962 895.384 649.019 988.414 595.432 1056.86C537.015 1131.47 441.553 1179.83 347.16 1171.49C257.64 1163.59 201.277 1081.53 139.182 1016.56C79.3008 953.913 4.88822 895.125 0.280655 808.584C-4.48358 719.1 52.1212 640.273 115.791 577.215C179.098 514.516 258.074 463.391 347.16 465.039Z" fill="#8C49FA"/>
        </g>
        <g filter="url(#filter3_f_1700_9209)">
            <path fill-rule="evenodd" clip-rule="evenodd" d="M428.461 7.49935C516.089 0.0783191 616.45 -15.8495 679.369 45.5903C742.57 107.305 731.39 208.438 724.418 296.498C718.149 375.677 698.698 454.409 642.555 510.591C586.393 566.793 507.878 590.264 428.461 592.664C346.167 595.151 262.652 578.529 201.026 523.934C135.845 466.19 91.0399 383.521 94.1526 296.498C97.183 211.775 152.598 140.213 216.734 84.7701C275.819 33.6932 350.638 14.0901 428.461 7.49935Z" fill="#8C49FA"/>
        </g>
        <g filter="url(#filter4_f_1700_9209)">
            <path fill-rule="evenodd" clip-rule="evenodd" d="M953.169 70.7593C1008.7 77.5039 1063.47 89.933 1109.5 121.72C1154.59 152.854 1184.74 199.047 1209.64 247.853C1235.5 298.511 1260.59 351.826 1255.85 408.501C1250.99 466.788 1227.77 526.426 1183.22 564.318C1140.54 600.607 1079.83 608.397 1023.87 605.782C977.392 603.61 944.106 560.478 898.545 551.014C846.611 540.226 783.045 581.785 742.681 547.371C703.694 514.132 718.604 449.768 719.717 398.547C720.679 354.255 741.704 315.342 748.672 271.591C758.962 206.985 723.689 126.371 770.365 80.5325C814.802 36.8916 891.34 63.2503 953.169 70.7593Z" fill="#D9C1FF"/>
        </g>
        <g filter="url(#filter5_f_1700_9209)">
            <path fill-rule="evenodd" clip-rule="evenodd" d="M1364.55 119.078C1394.53 136.687 1406.46 174.647 1434.42 195.312C1454.68 210.287 1481.75 211.146 1504.3 222.375C1531.07 235.704 1561.69 244.933 1580.61 268.096C1599.74 291.531 1613.4 322.708 1610.85 352.857C1608.26 383.57 1565.97 402.369 1566.66 433.185C1567.71 480.524 1624.97 518.844 1615.59 565.256C1607.97 602.938 1553.91 609.819 1525.67 635.903C1491.94 667.064 1477.5 731.242 1431.73 735.077C1383.4 739.127 1358.89 668.142 1312.57 653.76C1272.76 641.401 1227.37 675.263 1188.73 659.628C1150.96 644.34 1108.11 611.155 1106.66 570.429C1104.74 516.54 1174.54 481.639 1180.5 428.046C1183.82 398.239 1146.43 379.567 1130.73 354.013C1103.55 309.775 1051.98 272.466 1053.02 220.555C1053.86 177.966 1099.67 147.563 1135.29 124.199C1169.96 101.458 1212.05 89.9721 1253.51 89.0461C1292.17 88.1825 1331.2 99.4916 1364.55 119.078Z" fill="#8C49FA"/>
        </g>
    </g>
    <path d="M768.976 64.2643C768.667 64.2643 768.416 64.4989 768.416 64.7883V68.3284C768.416 68.6178 768.667 68.8524 768.976 68.8524H772.759C773.069 68.8524 773.32 68.6178 773.32 68.3284V64.7883C773.32 64.4989 773.069 64.2643 772.759 64.2643H768.976Z" fill="#825DBE"/>
    <path d="M788.591 64.2643C788.281 64.2643 788.031 64.4989 788.031 64.7883V68.3284C788.031 68.6178 788.281 68.8524 788.591 68.8524H792.374C792.683 68.8524 792.934 68.6178 792.934 68.3284V64.7883C792.934 64.4989 792.683 64.2643 792.374 64.2643H788.591Z" fill="#825DBE"/>
    <path d="M807.645 64.7883C807.645 64.4989 807.896 64.2643 808.205 64.2643H811.988C812.298 64.2643 812.548 64.4989 812.548 64.7883V68.3284C812.548 68.6178 812.298 68.8524 811.988 68.8524H808.205C807.896 68.8524 807.645 68.6178 807.645 68.3284V64.7883Z" fill="#825DBE"/>
    <path d="M827.818 64.2643C827.509 64.2643 827.258 64.4989 827.258 64.7883V68.3284C827.258 68.6178 827.509 68.8524 827.818 68.8524H831.601C831.911 68.8524 832.161 68.6178 832.161 68.3284V64.7883C832.161 64.4989 831.911 64.2643 831.601 64.2643H827.818Z" fill="#825DBE"/>
    <path d="M846.872 64.7883C846.872 64.4989 847.123 64.2643 847.432 64.2643H851.216C851.525 64.2643 851.776 64.4989 851.776 64.7883V68.3284C851.776 68.6178 851.525 68.8524 851.216 68.8524H847.432C847.123 68.8524 846.872 68.6178 846.872 68.3284V64.7883Z" fill="#825DBE"/>
    <path d="M867.047 64.2643C866.738 64.2643 866.487 64.4989 866.487 64.7883V68.3284C866.487 68.6178 866.738 68.8524 867.047 68.8524H870.83C871.14 68.8524 871.39 68.6178 871.39 68.3284V64.7883C871.39 64.4989 871.14 64.2643 870.83 64.2643H867.047Z" fill="#825DBE"/>
    <path d="M886.101 64.7883C886.101 64.4989 886.352 64.2643 886.661 64.2643H890.445C890.754 64.2643 891.005 64.4989 891.005 64.7883V68.3284C891.005 68.6178 890.754 68.8524 890.445 68.8524H886.661C886.352 68.8524 886.101 68.6178 886.101 68.3284V64.7883Z" fill="#825DBE"/>
    <path d="M906.276 64.2643C905.966 64.2643 905.716 64.4989 905.716 64.7883V68.3284C905.716 68.6178 905.966 68.8524 906.276 68.8524H910.059C910.368 68.8524 910.619 68.6178 910.619 68.3284V64.7883C910.619 64.4989 910.368 64.2643 910.059 64.2643H906.276Z" fill="#825DBE"/>
    <path d="M925.328 64.7883C925.328 64.4989 925.579 64.2643 925.888 64.2643H929.672C929.981 64.2643 930.232 64.4989 930.232 64.7883V68.3284C930.232 68.6178 929.981 68.8524 929.672 68.8524H925.888C925.579 68.8524 925.328 68.6178 925.328 68.3284V64.7883Z" fill="#825DBE"/>
    <path d="M945.503 64.2643C945.194 64.2643 944.943 64.4989 944.943 64.7883V68.3284C944.943 68.6178 945.194 68.8524 945.503 68.8524H949.286C949.596 68.8524 949.846 68.6178 949.846 68.3284V64.7883C949.846 64.4989 949.596 64.2643 949.286 64.2643H945.503Z" fill="#825DBE"/>
    <path d="M768.416 83.1408C768.416 82.8514 768.667 82.6167 768.976 82.6167H772.759C773.069 82.6167 773.32 82.8514 773.32 83.1408V86.6808C773.32 86.9702 773.069 87.2048 772.759 87.2048H768.976C768.667 87.2048 768.416 86.9702 768.416 86.6808V83.1408Z" fill="#825DBE"/>
    <path d="M788.591 82.6167C788.281 82.6167 788.031 82.8514 788.031 83.1408V86.6808C788.031 86.9702 788.281 87.2048 788.591 87.2048H792.374C792.683 87.2048 792.934 86.9702 792.934 86.6808V83.1408C792.934 82.8514 792.683 82.6167 792.374 82.6167H788.591Z" fill="#825DBE"/>
    <path d="M807.645 83.1408C807.645 82.8514 807.896 82.6167 808.205 82.6167H811.988C812.298 82.6167 812.548 82.8514 812.548 83.1408V86.6808C812.548 86.9702 812.298 87.2048 811.988 87.2048H808.205C807.896 87.2048 807.645 86.9702 807.645 86.6808V83.1408Z" fill="#825DBE"/>
    <path d="M827.818 82.6167C827.509 82.6167 827.258 82.8514 827.258 83.1408V86.6808C827.258 86.9702 827.509 87.2048 827.818 87.2048H831.601C831.911 87.2048 832.161 86.9702 832.161 86.6808V83.1408C832.161 82.8514 831.911 82.6167 831.601 82.6167H827.818Z" fill="#825DBE"/>
    <path d="M846.872 83.1408C846.872 82.8514 847.123 82.6167 847.432 82.6167H851.216C851.525 82.6167 851.776 82.8514 851.776 83.1408V86.6808C851.776 86.9702 851.525 87.2048 851.216 87.2048H847.432C847.123 87.2048 846.872 86.9702 846.872 86.6808V83.1408Z" fill="#825DBE"/>
    <path d="M867.047 82.6167C866.738 82.6167 866.487 82.8514 866.487 83.1408V86.6808C866.487 86.9702 866.738 87.2048 867.047 87.2048H870.83C871.14 87.2048 871.39 86.9702 871.39 86.6808V83.1408C871.39 82.8514 871.14 82.6167 870.83 82.6167H867.047Z" fill="#825DBE"/>
    <path d="M886.101 83.1408C886.101 82.8514 886.352 82.6167 886.661 82.6167H890.445C890.754 82.6167 891.005 82.8514 891.005 83.1408V86.6808C891.005 86.9702 890.754 87.2048 890.445 87.2048H886.661C886.352 87.2048 886.101 86.9702 886.101 86.6808V83.1408Z" fill="#825DBE"/>
    <path d="M906.276 82.6167C905.966 82.6167 905.716 82.8514 905.716 83.1408V86.6808C905.716 86.9702 905.966 87.2048 906.276 87.2048H910.059C910.368 87.2048 910.619 86.9702 910.619 86.6808V83.1408C910.619 82.8514 910.368 82.6167 910.059 82.6167H906.276Z" fill="#825DBE"/>
    <path d="M925.328 83.1408C925.328 82.8514 925.579 82.6167 925.888 82.6167H929.672C929.981 82.6167 930.232 82.8514 930.232 83.1408V86.6808C930.232 86.9702 929.981 87.2048 929.672 87.2048H925.888C925.579 87.2048 925.328 86.9702 925.328 86.6808V83.1408Z" fill="#825DBE"/>
    <path d="M945.503 82.6167C945.194 82.6167 944.943 82.8514 944.943 83.1408V86.6808C944.943 86.9702 945.194 87.2048 945.503 87.2048H949.286C949.596 87.2048 949.846 86.9702 949.846 86.6808V83.1408C949.846 82.8514 949.596 82.6167 949.286 82.6167H945.503Z" fill="#825DBE"/>
    <path d="M768.416 101.493C768.416 101.204 768.667 100.969 768.976 100.969H772.759C773.069 100.969 773.32 101.204 773.32 101.493V105.033C773.32 105.323 773.069 105.557 772.759 105.557H768.976C768.667 105.557 768.416 105.323 768.416 105.033V101.493Z" fill="#825DBE"/>
    <path d="M788.591 100.969C788.281 100.969 788.031 101.204 788.031 101.493V105.033C788.031 105.323 788.281 105.557 788.591 105.557H792.374C792.683 105.557 792.934 105.323 792.934 105.033V101.493C792.934 101.204 792.683 100.969 792.374 100.969H788.591Z" fill="#825DBE"/>
    <path d="M807.645 101.493C807.645 101.204 807.896 100.969 808.205 100.969H811.988C812.298 100.969 812.548 101.204 812.548 101.493V105.033C812.548 105.323 812.298 105.557 811.988 105.557H808.205C807.896 105.557 807.645 105.323 807.645 105.033V101.493Z" fill="#825DBE"/>
    <path d="M827.818 100.969C827.509 100.969 827.258 101.204 827.258 101.493V105.033C827.258 105.323 827.509 105.557 827.818 105.557H831.601C831.911 105.557 832.161 105.323 832.161 105.033V101.493C832.161 101.204 831.911 100.969 831.601 100.969H827.818Z" fill="#825DBE"/>
    <path d="M846.872 101.493C846.872 101.204 847.123 100.969 847.432 100.969H851.216C851.525 100.969 851.776 101.204 851.776 101.493V105.033C851.776 105.323 851.525 105.557 851.216 105.557H847.432C847.123 105.557 846.872 105.323 846.872 105.033V101.493Z" fill="#825DBE"/>
    <path d="M867.047 100.969C866.738 100.969 866.487 101.204 866.487 101.493V105.033C866.487 105.323 866.738 105.557 867.047 105.557H870.83C871.14 105.557 871.39 105.323 871.39 105.033V101.493C871.39 101.204 871.14 100.969 870.83 100.969H867.047Z" fill="#825DBE"/>
    <path d="M886.101 101.493C886.101 101.204 886.352 100.969 886.661 100.969H890.445C890.754 100.969 891.005 101.204 891.005 101.493V105.033C891.005 105.323 890.754 105.557 890.445 105.557H886.661C886.352 105.557 886.101 105.323 886.101 105.033V101.493Z" fill="#825DBE"/>
    <path d="M906.276 100.969C905.966 100.969 905.716 101.204 905.716 101.493V105.033C905.716 105.323 905.966 105.557 906.276 105.557H910.059C910.368 105.557 910.619 105.323 910.619 105.033V101.493C910.619 101.204 910.368 100.969 910.059 100.969H906.276Z" fill="#825DBE"/>
    <path d="M925.328 101.493C925.328 101.204 925.579 100.969 925.888 100.969H929.672C929.981 100.969 930.232 101.204 930.232 101.493V105.033C930.232 105.323 929.981 105.557 929.672 105.557H925.888C925.579 105.557 925.328 105.323 925.328 105.033V101.493Z" fill="#825DBE"/>
    <path d="M945.503 100.969C945.194 100.969 944.943 101.204 944.943 101.493V105.033C944.943 105.323 945.194 105.557 945.503 105.557H949.286C949.596 105.557 949.846 105.323 949.846 105.033V101.493C949.846 101.204 949.596 100.969 949.286 100.969H945.503Z" fill="#825DBE"/>
    <path d="M768.416 119.846C768.416 119.556 768.667 119.322 768.976 119.322H772.759C773.069 119.322 773.32 119.556 773.32 119.846V123.386C773.32 123.675 773.069 123.91 772.759 123.91H768.976C768.667 123.91 768.416 123.675 768.416 123.386V119.846Z" fill="#825DBE"/>
    <path d="M788.591 119.322C788.281 119.322 788.031 119.556 788.031 119.846V123.386C788.031 123.675 788.281 123.91 788.591 123.91H792.374C792.683 123.91 792.934 123.675 792.934 123.386V119.846C792.934 119.556 792.683 119.322 792.374 119.322H788.591Z" fill="#825DBE"/>
    <path d="M807.645 119.846C807.645 119.556 807.896 119.322 808.205 119.322H811.988C812.298 119.322 812.548 119.556 812.548 119.846V123.386C812.548 123.675 812.298 123.91 811.988 123.91H808.205C807.896 123.91 807.645 123.675 807.645 123.386V119.846Z" fill="#825DBE"/>
    <path d="M827.818 119.322C827.509 119.322 827.258 119.556 827.258 119.846V123.386C827.258 123.675 827.509 123.91 827.818 123.91H831.601C831.911 123.91 832.161 123.675 832.161 123.386V119.846C832.161 119.556 831.911 119.322 831.601 119.322H827.818Z" fill="#825DBE"/>
    <path d="M846.872 119.846C846.872 119.556 847.123 119.322 847.432 119.322H851.216C851.525 119.322 851.776 119.556 851.776 119.846V123.386C851.776 123.675 851.525 123.91 851.216 123.91H847.432C847.123 123.91 846.872 123.675 846.872 123.386V119.846Z" fill="#825DBE"/>
    <path d="M867.047 119.322C866.738 119.322 866.487 119.556 866.487 119.846V123.386C866.487 123.675 866.738 123.91 867.047 123.91H870.83C871.14 123.91 871.39 123.675 871.39 123.386V119.846C871.39 119.556 871.14 119.322 870.83 119.322H867.047Z" fill="#825DBE"/>
    <path d="M886.101 119.846C886.101 119.556 886.352 119.322 886.661 119.322H890.445C890.754 119.322 891.005 119.556 891.005 119.846V123.386C891.005 123.675 890.754 123.91 890.445 123.91H886.661C886.352 123.91 886.101 123.675 886.101 123.386V119.846Z" fill="#825DBE"/>
    <path d="M906.276 119.322C905.966 119.322 905.716 119.556 905.716 119.846V123.386C905.716 123.675 905.966 123.91 906.276 123.91H910.059C910.368 123.91 910.619 123.675 910.619 123.386V119.846C910.619 119.556 910.368 119.322 910.059 119.322H906.276Z" fill="#825DBE"/>
    <path d="M925.328 119.846C925.328 119.556 925.579 119.322 925.888 119.322H929.672C929.981 119.322 930.232 119.556 930.232 119.846V123.386C930.232 123.675 929.981 123.91 929.672 123.91H925.888C925.579 123.91 925.328 123.675 925.328 123.386V119.846Z" fill="#825DBE"/>
    <path d="M945.503 119.322C945.194 119.322 944.943 119.556 944.943 119.846V123.386C944.943 123.675 945.194 123.91 945.503 123.91H949.286C949.596 123.91 949.846 123.675 949.846 123.386V119.846C949.846 119.556 949.596 119.322 949.286 119.322H945.503Z" fill="#825DBE"/>
    <path d="M768.416 138.198C768.416 137.909 768.667 137.674 768.976 137.674H772.759C773.069 137.674 773.32 137.909 773.32 138.198V141.738C773.32 142.027 773.069 142.262 772.759 142.262H768.976C768.667 142.262 768.416 142.027 768.416 141.738V138.198Z" fill="#825DBE"/>
    <path d="M788.591 137.674C788.281 137.674 788.031 137.909 788.031 138.198V141.738C788.031 142.027 788.281 142.262 788.591 142.262H792.374C792.683 142.262 792.934 142.027 792.934 141.738V138.198C792.934 137.909 792.683 137.674 792.374 137.674H788.591Z" fill="#825DBE"/>
    <path d="M807.645 138.198C807.645 137.909 807.896 137.674 808.205 137.674H811.988C812.298 137.674 812.548 137.909 812.548 138.198V141.738C812.548 142.027 812.298 142.262 811.988 142.262H808.205C807.896 142.262 807.645 142.027 807.645 141.738V138.198Z" fill="#825DBE"/>
    <path d="M827.818 137.674C827.509 137.674 827.258 137.909 827.258 138.198V141.738C827.258 142.027 827.509 142.262 827.818 142.262H831.601C831.911 142.262 832.161 142.027 832.161 141.738V138.198C832.161 137.909 831.911 137.674 831.601 137.674H827.818Z" fill="#825DBE"/>
    <path d="M846.872 138.198C846.872 137.909 847.123 137.674 847.432 137.674H851.216C851.525 137.674 851.776 137.909 851.776 138.198V141.738C851.776 142.027 851.525 142.262 851.216 142.262H847.432C847.123 142.262 846.872 142.027 846.872 141.738V138.198Z" fill="#825DBE"/>
    <path d="M867.047 137.674C866.738 137.674 866.487 137.909 866.487 138.198V141.738C866.487 142.027 866.738 142.262 867.047 142.262H870.83C871.14 142.262 871.39 142.027 871.39 141.738V138.198C871.39 137.909 871.14 137.674 870.83 137.674H867.047Z" fill="#825DBE"/>
    <path d="M886.101 138.198C886.101 137.909 886.352 137.674 886.661 137.674H890.445C890.754 137.674 891.005 137.909 891.005 138.198V141.738C891.005 142.027 890.754 142.262 890.445 142.262H886.661C886.352 142.262 886.101 142.027 886.101 141.738V138.198Z" fill="#825DBE"/>
    <path d="M906.276 137.674C905.966 137.674 905.716 137.909 905.716 138.198V141.738C905.716 142.027 905.966 142.262 906.276 142.262H910.059C910.368 142.262 910.619 142.027 910.619 141.738V138.198C910.619 137.909 910.368 137.674 910.059 137.674H906.276Z" fill="#825DBE"/>
    <path d="M925.328 138.198C925.328 137.909 925.579 137.674 925.888 137.674H929.672C929.981 137.674 930.232 137.909 930.232 138.198V141.738C930.232 142.027 929.981 142.262 929.672 142.262H925.888C925.579 142.262 925.328 142.027 925.328 141.738V138.198Z" fill="#825DBE"/>
    <path d="M945.503 137.674C945.194 137.674 944.943 137.909 944.943 138.198V141.738C944.943 142.027 945.194 142.262 945.503 142.262H949.286C949.596 142.262 949.846 142.027 949.846 141.738V138.198C949.846 137.909 949.596 137.674 949.286 137.674H945.503Z" fill="#825DBE"/>
    <path d="M768.416 156.55C768.416 156.261 768.667 156.026 768.976 156.026H772.759C773.069 156.026 773.32 156.261 773.32 156.55V160.09C773.32 160.38 773.069 160.614 772.759 160.614H768.976C768.667 160.614 768.416 160.38 768.416 160.09V156.55Z" fill="#825DBE"/>
    <path d="M788.591 156.026C788.281 156.026 788.031 156.261 788.031 156.55V160.09C788.031 160.38 788.281 160.614 788.591 160.614H792.374C792.683 160.614 792.934 160.38 792.934 160.09V156.55C792.934 156.261 792.683 156.026 792.374 156.026H788.591Z" fill="#825DBE"/>
    <path d="M807.645 156.55C807.645 156.261 807.896 156.026 808.205 156.026H811.988C812.298 156.026 812.548 156.261 812.548 156.55V160.09C812.548 160.38 812.298 160.614 811.988 160.614H808.205C807.896 160.614 807.645 160.38 807.645 160.09V156.55Z" fill="#825DBE"/>
    <path d="M827.818 156.026C827.509 156.026 827.258 156.261 827.258 156.55V160.09C827.258 160.38 827.509 160.614 827.818 160.614H831.601C831.911 160.614 832.161 160.38 832.161 160.09V156.55C832.161 156.261 831.911 156.026 831.601 156.026H827.818Z" fill="#825DBE"/>
    <path d="M846.872 156.55C846.872 156.261 847.123 156.026 847.432 156.026H851.216C851.525 156.026 851.776 156.261 851.776 156.55V160.09C851.776 160.38 851.525 160.614 851.216 160.614H847.432C847.123 160.614 846.872 160.38 846.872 160.09V156.55Z" fill="#825DBE"/>
    <path d="M867.047 156.026C866.738 156.026 866.487 156.261 866.487 156.55V160.09C866.487 160.38 866.738 160.614 867.047 160.614H870.83C871.14 160.614 871.39 160.38 871.39 160.09V156.55C871.39 156.261 871.14 156.026 870.83 156.026H867.047Z" fill="#825DBE"/>
    <path d="M886.101 156.55C886.101 156.261 886.352 156.026 886.661 156.026H890.445C890.754 156.026 891.005 156.261 891.005 156.55V160.09C891.005 160.38 890.754 160.614 890.445 160.614H886.661C886.352 160.614 886.101 160.38 886.101 160.09V156.55Z" fill="#825DBE"/>
    <path d="M906.276 156.026C905.966 156.026 905.716 156.261 905.716 156.55V160.09C905.716 160.38 905.966 160.614 906.276 160.614H910.059C910.368 160.614 910.619 160.38 910.619 160.09V156.55C910.619 156.261 910.368 156.026 910.059 156.026H906.276Z" fill="#825DBE"/>
    <path d="M925.328 156.55C925.328 156.261 925.579 156.026 925.888 156.026H929.672C929.981 156.026 930.232 156.261 930.232 156.55V160.09C930.232 160.38 929.981 160.614 929.672 160.614H925.888C925.579 160.614 925.328 160.38 925.328 160.09V156.55Z" fill="#825DBE"/>
    <path d="M945.503 156.026C945.194 156.026 944.943 156.261 944.943 156.55V160.09C944.943 160.38 945.194 160.614 945.503 160.614H949.286C949.596 160.614 949.846 160.38 949.846 160.09V156.55C949.846 156.261 949.596 156.026 949.286 156.026H945.503Z" fill="#825DBE"/>
    <path d="M768.416 174.903C768.416 174.613 768.667 174.379 768.976 174.379H772.759C773.069 174.379 773.32 174.613 773.32 174.903V178.443C773.32 178.732 773.069 178.967 772.759 178.967H768.976C768.667 178.967 768.416 178.732 768.416 178.443V174.903Z" fill="#825DBE"/>
    <path d="M768.976 192.079C768.667 192.079 768.416 192.314 768.416 192.603V196.143C768.416 196.432 768.667 196.667 768.976 196.667H772.759C773.069 196.667 773.32 196.432 773.32 196.143V192.603C773.32 192.314 773.069 192.079 772.759 192.079H768.976Z" fill="#825DBE"/>
    <path d="M768.416 210.303C768.416 210.014 768.667 209.779 768.976 209.779H772.759C773.069 209.779 773.32 210.014 773.32 210.303V213.843C773.32 214.133 773.069 214.367 772.759 214.367H768.976C768.667 214.367 768.416 214.133 768.416 213.843V210.303Z" fill="#825DBE"/>
    <path d="M768.976 227.479C768.667 227.479 768.416 227.714 768.416 228.003V231.544C768.416 231.833 768.667 232.068 768.976 232.068H772.759C773.069 232.068 773.32 231.833 773.32 231.544V228.003C773.32 227.714 773.069 227.479 772.759 227.479H768.976Z" fill="#825DBE"/>
    <path d="M788.031 174.903C788.031 174.613 788.281 174.379 788.591 174.379H792.374C792.683 174.379 792.934 174.613 792.934 174.903V178.443C792.934 178.732 792.683 178.967 792.374 178.967H788.591C788.281 178.967 788.031 178.732 788.031 178.443V174.903Z" fill="#825DBE"/>
    <path d="M788.591 192.079C788.281 192.079 788.031 192.314 788.031 192.603V196.143C788.031 196.432 788.281 196.667 788.591 196.667H792.374C792.683 196.667 792.934 196.432 792.934 196.143V192.603C792.934 192.314 792.683 192.079 792.374 192.079H788.591Z" fill="#825DBE"/>
    <path d="M788.031 210.303C788.031 210.014 788.281 209.779 788.591 209.779H792.374C792.683 209.779 792.934 210.014 792.934 210.303V213.843C792.934 214.133 792.683 214.367 792.374 214.367H788.591C788.281 214.367 788.031 214.133 788.031 213.843V210.303Z" fill="#825DBE"/>
    <path d="M788.591 227.479C788.281 227.479 788.031 227.714 788.031 228.003V231.544C788.031 231.833 788.281 232.068 788.591 232.068H792.374C792.683 232.068 792.934 231.833 792.934 231.544V228.003C792.934 227.714 792.683 227.479 792.374 227.479H788.591Z" fill="#825DBE"/>
    <path d="M807.645 174.903C807.645 174.613 807.896 174.379 808.205 174.379H811.988C812.298 174.379 812.548 174.613 812.548 174.903V178.443C812.548 178.732 812.298 178.967 811.988 178.967H808.205C807.896 178.967 807.645 178.732 807.645 178.443V174.903Z" fill="#825DBE"/>
    <path d="M808.205 192.079C807.896 192.079 807.645 192.314 807.645 192.603V196.143C807.645 196.432 807.896 196.667 808.205 196.667H811.988C812.298 196.667 812.548 196.432 812.548 196.143V192.603C812.548 192.314 812.298 192.079 811.988 192.079H808.205Z" fill="#825DBE"/>
    <path d="M807.645 210.303C807.645 210.014 807.896 209.779 808.205 209.779H811.988C812.298 209.779 812.548 210.014 812.548 210.303V213.843C812.548 214.133 812.298 214.367 811.988 214.367H808.205C807.896 214.367 807.645 214.133 807.645 213.843V210.303Z" fill="#825DBE"/>
    <path d="M808.205 227.479C807.896 227.479 807.645 227.714 807.645 228.003V231.544C807.645 231.833 807.896 232.068 808.205 232.068H811.988C812.298 232.068 812.548 231.833 812.548 231.544V228.003C812.548 227.714 812.298 227.479 811.988 227.479H808.205Z" fill="#825DBE"/>
    <path d="M827.258 174.903C827.258 174.613 827.509 174.379 827.818 174.379H831.601C831.911 174.379 832.161 174.613 832.161 174.903V178.443C832.161 178.732 831.911 178.967 831.601 178.967H827.818C827.509 178.967 827.258 178.732 827.258 178.443V174.903Z" fill="#825DBE"/>
    <path d="M827.818 192.079C827.509 192.079 827.258 192.314 827.258 192.603V196.143C827.258 196.432 827.509 196.667 827.818 196.667H831.601C831.911 196.667 832.161 196.432 832.161 196.143V192.603C832.161 192.314 831.911 192.079 831.601 192.079H827.818Z" fill="#825DBE"/>
    <path d="M827.258 210.303C827.258 210.014 827.509 209.779 827.818 209.779H831.601C831.911 209.779 832.161 210.014 832.161 210.303V213.843C832.161 214.133 831.911 214.367 831.601 214.367H827.818C827.509 214.367 827.258 214.133 827.258 213.843V210.303Z" fill="#825DBE"/>
    <path d="M827.818 227.479C827.509 227.479 827.258 227.714 827.258 228.003V231.544C827.258 231.833 827.509 232.068 827.818 232.068H831.601C831.911 232.068 832.161 231.833 832.161 231.544V228.003C832.161 227.714 831.911 227.479 831.601 227.479H827.818Z" fill="#825DBE"/>
    <path d="M846.872 174.903C846.872 174.613 847.123 174.379 847.432 174.379H851.216C851.525 174.379 851.776 174.613 851.776 174.903V178.443C851.776 178.732 851.525 178.967 851.216 178.967H847.432C847.123 178.967 846.872 178.732 846.872 178.443V174.903Z" fill="#825DBE"/>
    <path d="M847.432 192.079C847.123 192.079 846.872 192.314 846.872 192.603V196.143C846.872 196.432 847.123 196.667 847.432 196.667H851.216C851.525 196.667 851.776 196.432 851.776 196.143V192.603C851.776 192.314 851.525 192.079 851.216 192.079H847.432Z" fill="#825DBE"/>
    <path d="M846.872 210.303C846.872 210.014 847.123 209.779 847.432 209.779H851.216C851.525 209.779 851.776 210.014 851.776 210.303V213.843C851.776 214.133 851.525 214.367 851.216 214.367H847.432C847.123 214.367 846.872 214.133 846.872 213.843V210.303Z" fill="#825DBE"/>
    <path d="M847.432 227.479C847.123 227.479 846.872 227.714 846.872 228.003V231.544C846.872 231.833 847.123 232.068 847.432 232.068H851.216C851.525 232.068 851.776 231.833 851.776 231.544V228.003C851.776 227.714 851.525 227.479 851.216 227.479H847.432Z" fill="#825DBE"/>
    <path d="M866.487 174.903C866.487 174.613 866.738 174.379 867.047 174.379H870.83C871.14 174.379 871.39 174.613 871.39 174.903V178.443C871.39 178.732 871.14 178.967 870.83 178.967H867.047C866.738 178.967 866.487 178.732 866.487 178.443V174.903Z" fill="#825DBE"/>
    <path d="M867.047 192.079C866.738 192.079 866.487 192.314 866.487 192.603V196.143C866.487 196.432 866.738 196.667 867.047 196.667H870.83C871.14 196.667 871.39 196.432 871.39 196.143V192.603C871.39 192.314 871.14 192.079 870.83 192.079H867.047Z" fill="#825DBE"/>
    <path d="M866.487 210.303C866.487 210.014 866.738 209.779 867.047 209.779H870.83C871.14 209.779 871.39 210.014 871.39 210.303V213.843C871.39 214.133 871.14 214.367 870.83 214.367H867.047C866.738 214.367 866.487 214.133 866.487 213.843V210.303Z" fill="#825DBE"/>
    <path d="M867.047 227.479C866.738 227.479 866.487 227.714 866.487 228.003V231.544C866.487 231.833 866.738 232.068 867.047 232.068H870.83C871.14 232.068 871.39 231.833 871.39 231.544V228.003C871.39 227.714 871.14 227.479 870.83 227.479H867.047Z" fill="#825DBE"/>
    <path d="M886.101 174.903C886.101 174.613 886.352 174.379 886.661 174.379H890.445C890.754 174.379 891.005 174.613 891.005 174.903V178.443C891.005 178.732 890.754 178.967 890.445 178.967H886.661C886.352 178.967 886.101 178.732 886.101 178.443V174.903Z" fill="#825DBE"/>
    <path d="M886.661 192.079C886.352 192.079 886.101 192.314 886.101 192.603V196.143C886.101 196.432 886.352 196.667 886.661 196.667H890.445C890.754 196.667 891.005 196.432 891.005 196.143V192.603C891.005 192.314 890.754 192.079 890.445 192.079H886.661Z" fill="#825DBE"/>
    <path d="M886.101 210.303C886.101 210.014 886.352 209.779 886.661 209.779H890.445C890.754 209.779 891.005 210.014 891.005 210.303V213.843C891.005 214.133 890.754 214.367 890.445 214.367H886.661C886.352 214.367 886.101 214.133 886.101 213.843V210.303Z" fill="#825DBE"/>
    <path d="M886.661 227.479C886.352 227.479 886.101 227.714 886.101 228.003V231.544C886.101 231.833 886.352 232.068 886.661 232.068H890.445C890.754 232.068 891.005 231.833 891.005 231.544V228.003C891.005 227.714 890.754 227.479 890.445 227.479H886.661Z" fill="#825DBE"/>
    <path d="M905.716 174.903C905.716 174.613 905.966 174.379 906.276 174.379H910.059C910.368 174.379 910.619 174.613 910.619 174.903V178.443C910.619 178.732 910.368 178.967 910.059 178.967H906.276C905.966 178.967 905.716 178.732 905.716 178.443V174.903Z" fill="#825DBE"/>
    <path d="M906.276 192.079C905.966 192.079 905.716 192.314 905.716 192.603V196.143C905.716 196.432 905.966 196.667 906.276 196.667H910.059C910.368 196.667 910.619 196.432 910.619 196.143V192.603C910.619 192.314 910.368 192.079 910.059 192.079H906.276Z" fill="#825DBE"/>
    <path d="M905.716 210.303C905.716 210.014 905.966 209.779 906.276 209.779H910.059C910.368 209.779 910.619 210.014 910.619 210.303V213.843C910.619 214.133 910.368 214.367 910.059 214.367H906.276C905.966 214.367 905.716 214.133 905.716 213.843V210.303Z" fill="#825DBE"/>
    <path d="M906.276 227.479C905.966 227.479 905.716 227.714 905.716 228.003V231.544C905.716 231.833 905.966 232.068 906.276 232.068H910.059C910.368 232.068 910.619 231.833 910.619 231.544V228.003C910.619 227.714 910.368 227.479 910.059 227.479H906.276Z" fill="#825DBE"/>
    <path d="M925.328 174.903C925.328 174.613 925.579 174.379 925.888 174.379H929.672C929.981 174.379 930.232 174.613 930.232 174.903V178.443C930.232 178.732 929.981 178.967 929.672 178.967H925.888C925.579 178.967 925.328 178.732 925.328 178.443V174.903Z" fill="#825DBE"/>
    <path d="M925.888 192.079C925.579 192.079 925.328 192.314 925.328 192.603V196.143C925.328 196.432 925.579 196.667 925.888 196.667H929.672C929.981 196.667 930.232 196.432 930.232 196.143V192.603C930.232 192.314 929.981 192.079 929.672 192.079H925.888Z" fill="#825DBE"/>
    <path d="M925.328 210.303C925.328 210.014 925.579 209.779 925.888 209.779H929.672C929.981 209.779 930.232 210.014 930.232 210.303V213.843C930.232 214.133 929.981 214.367 929.672 214.367H925.888C925.579 214.367 925.328 214.133 925.328 213.843V210.303Z" fill="#825DBE"/>
    <path d="M925.888 227.479C925.579 227.479 925.328 227.714 925.328 228.003V231.544C925.328 231.833 925.579 232.068 925.888 232.068H929.672C929.981 232.068 930.232 231.833 930.232 231.544V228.003C930.232 227.714 929.981 227.479 929.672 227.479H925.888Z" fill="#825DBE"/>
    <path d="M944.943 174.903C944.943 174.613 945.194 174.379 945.503 174.379H949.286C949.596 174.379 949.846 174.613 949.846 174.903V178.443C949.846 178.732 949.596 178.967 949.286 178.967H945.503C945.194 178.967 944.943 178.732 944.943 178.443V174.903Z" fill="#825DBE"/>
    <path d="M945.503 192.079C945.194 192.079 944.943 192.314 944.943 192.603V196.143C944.943 196.432 945.194 196.667 945.503 196.667H949.286C949.596 196.667 949.846 196.432 949.846 196.143V192.603C949.846 192.314 949.596 192.079 949.286 192.079H945.503Z" fill="#825DBE"/>
    <path d="M944.943 210.303C944.943 210.014 945.194 209.779 945.503 209.779H949.286C949.596 209.779 949.846 210.014 949.846 210.303V213.843C949.846 214.133 949.596 214.367 949.286 214.367H945.503C945.194 214.367 944.943 214.133 944.943 213.843V210.303Z" fill="#825DBE"/>
    <path d="M945.503 227.479C945.194 227.479 944.943 227.714 944.943 228.003V231.544C944.943 231.833 945.194 232.068 945.503 232.068H949.286C949.596 232.068 949.846 231.833 949.846 231.544V228.003C949.846 227.714 949.596 227.479 949.286 227.479H945.503Z" fill="#825DBE"/>
    <defs>
        <filter id="filter0_f_1700_9209" x="101" y="21" width="1568.9" height="1651.12" filterUnits="userSpaceOnUse" color-interpolation-filters="sRGB">
            <feFlood flood-opacity="0" result="BackgroundImageFix"/>
            <feBlend mode="normal" in="SourceGraphic" in2="BackgroundImageFix" result="shape"/>
            <feGaussianBlur stdDeviation="250" result="effect1_foregroundBlur_1700_9209"/>
        </filter>
        <filter id="filter1_f_1700_9209" x="618" y="58" width="1609.64" height="1660.12" filterUnits="userSpaceOnUse" color-interpolation-filters="sRGB">
            <feFlood flood-opacity="0" result="BackgroundImageFix"/>
            <feBlend mode="normal" in="SourceGraphic" in2="BackgroundImageFix" result="shape"/>
            <feGaussianBlur stdDeviation="250" result="effect1_foregroundBlur_1700_9209"/>
        </filter>
        <filter id="filter2_f_1700_9209" x="-500" y="-35" width="1636.14" height="1707.43" filterUnits="userSpaceOnUse" color-interpolation-filters="sRGB">
            <feFlood flood-opacity="0" result="BackgroundImageFix"/>
            <feBlend mode="normal" in="SourceGraphic" in2="BackgroundImageFix" result="shape"/>
            <feGaussianBlur stdDeviation="250" result="effect1_foregroundBlur_1700_9209"/>
        </filter>
        <filter id="filter3_f_1700_9209" x="-406" y="-500" width="1635.92" height="1592.9" filterUnits="userSpaceOnUse" color-interpolation-filters="sRGB">
            <feFlood flood-opacity="0" result="BackgroundImageFix"/>
            <feBlend mode="normal" in="SourceGraphic" in2="BackgroundImageFix" result="shape"/>
            <feGaussianBlur stdDeviation="250" result="effect1_foregroundBlur_1700_9209"/>
        </filter>
        <filter id="filter4_f_1700_9209" x="216" y="-444" width="1540.43" height="1550.24" filterUnits="userSpaceOnUse" color-interpolation-filters="sRGB">
            <feFlood flood-opacity="0" result="BackgroundImageFix"/>
            <feBlend mode="normal" in="SourceGraphic" in2="BackgroundImageFix" result="shape"/>
            <feGaussianBlur stdDeviation="250" result="effect1_foregroundBlur_1700_9209"/>
        </filter>
        <filter id="filter5_f_1700_9209" x="553" y="-411" width="1563.62" height="1646.24" filterUnits="userSpaceOnUse" color-interpolation-filters="sRGB">
            <feFlood flood-opacity="0" result="BackgroundImageFix"/>
            <feBlend mode="normal" in="SourceGraphic" in2="BackgroundImageFix" result="shape"/>
            <feGaussianBlur stdDeviation="250" result="effect1_foregroundBlur_1700_9209"/>
        </filter>
        <clipPath id="clip0_1700_9209">
            <rect width="1719.25" height="639" fill="white"/>
        </clipPath>
    </defs>
</svg>
