<svg width="1720" height="546" viewBox="0 0 1720 546" fill="none" xmlns="http://www.w3.org/2000/svg">
<g clip-path="url(#clip0_13_94)">
<g filter="url(#filter0_f_13_94)">
<rect width="332.478" height="337.129" transform="matrix(-1 0 0 1 1280.76 55.7898)" fill="url(#paint0_linear_13_94)"/>
</g>
<path d="M1100.62 278.973C1103.4 276.198 1107.9 276.197 1110.67 278.973L1122.08 290.381C1124.85 293.156 1124.85 297.656 1122.08 300.431L1110.67 311.84C1107.9 314.615 1103.4 314.615 1100.62 311.84L1089.21 300.431C1086.44 297.656 1086.44 293.156 1089.21 290.381L1100.62 278.973Z" fill="#A950FF"/>
<path d="M1153.17 278.882C1155.89 276.156 1160.31 276.156 1163.04 278.882L1174.62 290.47C1177.35 293.196 1177.35 297.615 1174.62 300.34L1163.04 311.929C1160.31 314.654 1155.89 314.654 1153.17 311.929L1141.58 300.34C1138.85 297.615 1138.85 293.196 1141.58 290.47L1153.17 278.882Z" fill="#A950FF"/>
<path d="M1100.71 226.429C1103.44 223.703 1107.86 223.703 1110.58 226.429L1122.17 238.017C1124.89 240.743 1124.89 245.162 1122.17 247.887L1110.58 259.475C1107.86 262.201 1103.44 262.201 1100.71 259.475L1089.12 247.887C1086.4 245.162 1086.4 240.743 1089.12 238.017L1100.71 226.429Z" fill="#E9C1FF"/>
<path d="M1095.85 264.154C1098.63 266.93 1098.63 271.429 1095.85 274.205L1084.45 285.613C1081.67 288.388 1077.17 288.388 1074.4 285.613L1062.99 274.205C1060.21 271.429 1060.21 266.93 1062.99 264.154L1074.4 252.746C1077.17 249.971 1081.67 249.971 1084.45 252.746L1095.85 264.154Z" fill="#CD88FF"/>
<path d="M1069.72 290.47C1072.44 293.196 1072.44 297.615 1069.72 300.34L1058.13 311.929C1055.4 314.654 1050.98 314.654 1048.26 311.929L1036.67 300.34C1033.94 297.615 1033.94 293.196 1036.67 290.47L1048.26 278.882C1050.98 276.156 1055.4 276.156 1058.13 278.882L1069.72 290.47Z" fill="#A950FF"/>
<path d="M1148.31 264.154C1151.08 266.93 1151.08 271.429 1148.31 274.205L1136.9 285.613C1134.12 288.388 1129.62 288.388 1126.85 285.613L1115.44 274.205C1112.66 271.429 1112.66 266.93 1115.44 264.154L1126.85 252.746C1129.62 249.971 1134.12 249.971 1136.9 252.746L1148.31 264.154Z" fill="#CD88FF"/>
<path d="M1116.87 339.078C1123.07 345.278 1123.07 355.331 1116.87 361.531C1110.67 367.732 1100.62 367.732 1094.42 361.531C1088.22 355.331 1088.22 345.278 1094.42 339.078C1100.62 332.878 1110.67 332.878 1116.87 339.078Z" fill="#F62E76"/>
<rect x="1003.14" y="-8.00102" width="31.7001" height="639.699" stroke="#646465" stroke-width="0.362635" stroke-dasharray="2.54 2.54"/>
<rect x="1176.7" y="-8.00102" width="31.4543" height="639.699" stroke="#646465" stroke-width="0.362635" stroke-dasharray="2.54 2.54"/>
<rect x="1086.82" y="-9.88615" width="37.3804" height="643.47" stroke="#646465" stroke-width="0.364772" stroke-dasharray="2.55 2.55"/>
<rect x="2692.35" y="193.628" width="30.9372" height="3155.65" transform="rotate(90 2692.35 193.628)" stroke="#646465" stroke-width="0.362635" stroke-dasharray="2.54 2.54"/>
<rect x="2692.35" y="366.362" width="31.2638" height="3155.65" transform="rotate(90 2692.35 366.362)" stroke="#646465" stroke-width="0.362635" stroke-dasharray="2.54 2.54"/>
<rect x="2692.35" y="333.937" width="32.4255" height="3155.65" transform="rotate(90 2692.35 333.937)" stroke="#646465" stroke-width="0.362635" stroke-dasharray="2.54 2.54"/>
<rect x="1611.92" y="725.578" width="31.2406" height="1168.98" transform="rotate(134.904 1611.92 725.578)" stroke="#646465" stroke-width="0.366541" stroke-dasharray="2.57 2.57"/>
<rect x="-0.256422" y="-2.81208e-05" width="30.375" height="1122.38" transform="matrix(0.707029 0.707184 0.707184 -0.707029 636.784 690.329)" stroke="#646465" stroke-width="0.362635" stroke-dasharray="2.54 2.54"/>
<path d="M1004.73 381.722C1004.3 380.309 1004.01 378.838 1003.86 377.324L1004.36 377.276C1004.29 376.555 1004.25 375.823 1004.25 375.082V372.596H1003.75V367.622H1004.25V362.648H1003.75V357.674H1004.25V352.7H1003.75V347.726H1004.25V342.752H1003.75V337.778H1004.25V332.804H1003.75V327.83H1004.25V322.856H1003.75V317.882H1004.25V312.908H1003.75V307.935H1004.25V302.961H1003.75V297.987H1004.25V293.013H1003.75V288.039H1004.25V283.065H1003.75V278.091H1004.25V273.117H1003.75V268.143H1004.25V263.169H1003.75V258.195H1004.25V253.221H1003.75V248.248H1004.25V243.274H1003.75V238.3H1004.25V233.326H1003.75V228.352H1004.25V223.378H1003.75V218.404H1004.25V215.917C1004.25 215.177 1004.29 214.445 1004.36 213.723L1003.86 213.675C1004.01 212.161 1004.3 210.69 1004.73 209.277L1005.2 209.421C1005.63 208.006 1006.19 206.649 1006.87 205.367L1006.43 205.132C1007.14 203.805 1007.97 202.555 1008.91 201.399L1009.3 201.715C1010.23 200.58 1011.26 199.537 1012.39 198.604L1012.07 198.219C1013.22 197.267 1014.46 196.426 1015.79 195.713L1016.02 196.153C1017.3 195.463 1018.66 194.895 1020.07 194.464L1019.92 193.985C1021.33 193.554 1022.8 193.257 1024.32 193.109L1024.37 193.607C1025.09 193.536 1025.82 193.5 1026.56 193.5H1029.03V193H1033.98V193.5H1038.93V193H1043.88V193.5H1048.83V193H1053.78V193.5H1058.73V193H1063.68V193.5H1068.63V193H1073.58V193.5H1078.53V193H1083.48V193.5H1088.43V193H1093.38V193.5H1098.33V193H1103.28V193.5H1108.23V193H1113.18V193.5H1118.13V193H1123.08V193.5H1128.03V193H1132.98V193.5H1137.93V193H1142.88V193.5H1147.83V193H1152.78V193.5H1157.73V193H1162.67V193.5H1167.62V193H1172.57V193.5H1177.52V193H1182.47V193.5H1184.95C1185.69 193.5 1186.42 193.536 1187.14 193.607L1187.19 193.109C1188.7 193.257 1190.17 193.554 1191.59 193.985L1191.44 194.464C1192.85 194.895 1194.21 195.463 1195.48 196.153L1195.72 195.713C1197.04 196.426 1198.29 197.267 1199.44 198.219L1199.12 198.604C1200.25 199.537 1201.28 200.58 1202.21 201.715L1202.6 201.399C1203.54 202.555 1204.37 203.805 1205.08 205.132L1204.63 205.367C1205.32 206.649 1205.88 208.006 1206.3 209.421L1206.78 209.277C1207.21 210.69 1207.5 212.161 1207.65 213.675L1207.15 213.723C1207.22 214.445 1207.25 215.177 1207.25 215.917V218.404H1207.75V223.378H1207.25V228.352H1207.75V233.326H1207.25V238.3H1207.75V243.274H1207.25V248.247H1207.75V253.221H1207.25V258.195H1207.75V263.169H1207.25V268.143H1207.75V273.117H1207.25V278.091H1207.75V283.065H1207.25V288.039H1207.75V293.013H1207.25V297.987H1207.75V302.961H1207.25V307.935H1207.75V312.908H1207.25V317.882H1207.75V322.856H1207.25V327.83H1207.75V332.804H1207.25V337.778H1207.75V342.752H1207.25V347.726H1207.75V352.7H1207.25V357.674H1207.75V362.648H1207.25V367.622H1207.75V372.596H1207.25V375.082C1207.25 375.823 1207.22 376.555 1207.15 377.276L1207.65 377.324C1207.5 378.838 1207.21 380.309 1206.78 381.722L1206.3 381.578C1205.88 382.994 1205.32 384.35 1204.63 385.632L1205.08 385.867C1204.37 387.195 1203.54 388.445 1202.6 389.6L1202.21 389.284C1201.28 390.42 1200.25 391.462 1199.12 392.396L1199.44 392.781C1198.29 393.733 1197.04 394.573 1195.72 395.287L1195.48 394.847C1194.21 395.537 1192.85 396.105 1191.44 396.536L1191.59 397.014C1190.17 397.445 1188.7 397.742 1187.19 397.89L1187.14 397.393C1186.42 397.464 1185.69 397.5 1184.95 397.5H1182.47V398H1177.52V397.5H1172.57V398H1167.62V397.5H1162.67V398H1157.73V397.5H1152.78V398H1147.83V397.5H1142.88V398H1137.93V397.5H1132.98V398H1128.03V397.5H1123.08V398H1118.13V397.5H1113.18V398H1108.23V397.5H1103.28V398H1098.33V397.5H1093.38V398H1088.43V397.5H1083.48V398H1078.53V397.5H1073.58V398H1068.63V397.5H1063.68V398H1058.73V397.5H1053.78V398H1048.83V397.5H1043.88V398H1038.93V397.5H1033.98V398H1029.03V397.5H1026.56C1025.82 397.5 1025.09 397.464 1024.37 397.393L1024.32 397.89C1022.8 397.742 1021.33 397.445 1019.92 397.014L1020.07 396.536C1018.66 396.105 1017.3 395.537 1016.02 394.847L1015.79 395.287C1014.46 394.573 1013.22 393.733 1012.07 392.781L1012.39 392.396C1011.26 391.462 1010.23 390.42 1009.3 389.284L1008.91 389.6C1007.97 388.445 1007.14 387.195 1006.43 385.867L1006.87 385.632C1006.19 384.35 1005.63 382.994 1005.2 381.578L1004.73 381.722Z" stroke="#736BCD" stroke-dasharray="5 5"/>
<path d="M1100.74 279.038C1103.51 276.258 1108 276.258 1110.76 279.038L1122.14 290.466C1124.9 293.246 1124.9 297.754 1122.14 300.534L1110.76 311.962C1108 314.742 1103.51 314.742 1100.74 311.962L1089.37 300.534C1086.6 297.754 1086.6 293.246 1089.37 290.466L1100.74 279.038Z" fill="#A950FF"/>
<path d="M1153.12 278.947C1155.84 276.216 1160.25 276.216 1162.96 278.947L1174.51 290.555C1177.23 293.286 1177.23 297.712 1174.51 300.443L1162.96 312.051C1160.25 314.782 1155.84 314.782 1153.12 312.051L1141.57 300.443C1138.85 297.712 1138.85 293.286 1141.57 290.555L1153.12 278.947Z" fill="#A950FF"/>
<path d="M1100.83 226.402C1103.55 223.672 1107.96 223.672 1110.67 226.402L1122.22 238.01C1124.94 240.741 1124.94 245.168 1122.22 247.898L1110.67 259.506C1107.96 262.237 1103.55 262.237 1100.83 259.506L1089.28 247.898C1086.56 245.168 1086.56 240.741 1089.28 238.01L1100.83 226.402Z" fill="#E9C1FF"/>
<path d="M1095.99 264.193C1098.76 266.974 1098.76 271.481 1095.99 274.261L1084.62 285.69C1081.85 288.47 1077.37 288.47 1074.6 285.69L1063.23 274.261C1060.46 271.481 1060.46 266.974 1063.23 264.193L1074.6 252.765C1077.37 249.985 1081.85 249.985 1084.62 252.765L1095.99 264.193Z" fill="#CD88FF"/>
<path d="M1069.94 290.555C1072.65 293.286 1072.65 297.712 1069.94 300.443L1058.38 312.051C1055.67 314.782 1051.26 314.782 1048.55 312.051L1036.99 300.443C1034.28 297.712 1034.28 293.286 1036.99 290.555L1048.55 278.947C1051.26 276.216 1055.67 276.216 1058.38 278.947L1069.94 290.555Z" fill="#A950FF"/>
<path d="M1148.28 264.193C1151.05 266.974 1151.05 271.481 1148.28 274.261L1136.91 285.69C1134.14 288.47 1129.66 288.47 1126.89 285.69L1115.52 274.261C1112.75 271.481 1112.75 266.974 1115.52 264.193L1126.89 252.765C1129.66 249.985 1134.14 249.985 1136.91 252.765L1148.28 264.193Z" fill="#CD88FF"/>
<path d="M1116.95 339.248C1123.13 345.459 1123.13 355.53 1116.95 361.741C1110.76 367.952 1100.74 367.952 1094.56 361.741C1088.38 355.53 1088.38 345.459 1094.56 339.248C1100.74 333.037 1110.76 333.037 1116.95 339.248Z" fill="#F62E76"/>
</g>
<defs>
<filter id="filter0_f_13_94" x="748.284" y="-144.21" width="732.478" height="737.129" filterUnits="userSpaceOnUse" color-interpolation-filters="sRGB">
<feFlood flood-opacity="0" result="BackgroundImageFix"/>
<feBlend mode="normal" in="SourceGraphic" in2="BackgroundImageFix" result="shape"/>
<feGaussianBlur stdDeviation="100" result="effect1_foregroundBlur_13_94"/>
</filter>
<linearGradient id="paint0_linear_13_94" x1="166.239" y1="0" x2="166.239" y2="337.129" gradientUnits="userSpaceOnUse">
<stop stop-color="#6218FF" stop-opacity="0"/>
<stop offset="1" stop-color="#6117FF"/>
</linearGradient>
<clipPath id="clip0_13_94">
<rect width="1720" height="546" fill="white"/>
</clipPath>
</defs>
</svg>
