<svg width="1721" height="546" viewBox="0 0 1721 546" fill="none" xmlns="http://www.w3.org/2000/svg">
<path d="M1101.34 278.973C1104.11 276.198 1108.61 276.198 1111.39 278.973L1122.79 290.381C1125.57 293.157 1125.57 297.656 1122.79 300.432L1111.39 311.84C1108.61 314.615 1104.11 314.615 1101.34 311.84L1089.93 300.432C1087.15 297.656 1087.15 293.157 1089.93 290.381L1101.34 278.973Z" fill="#A950FF"/>
<path d="M1153.88 278.882C1156.61 276.156 1161.02 276.156 1163.75 278.882L1175.34 290.47C1178.06 293.196 1178.06 297.615 1175.34 300.341L1163.75 311.929C1161.02 314.654 1156.61 314.654 1153.88 311.929L1142.29 300.341C1139.57 297.615 1139.57 293.196 1142.29 290.47L1153.88 278.882Z" fill="#A950FF"/>
<path d="M1101.43 226.429C1104.15 223.703 1108.57 223.703 1111.3 226.429L1122.88 238.017C1125.61 240.743 1125.61 245.162 1122.88 247.888L1111.3 259.476C1108.57 262.201 1104.15 262.201 1101.43 259.476L1089.84 247.888C1087.11 245.162 1087.11 240.743 1089.84 238.017L1101.43 226.429Z" fill="#E9C1FF"/>
<path d="M1096.57 264.155C1099.34 266.93 1099.34 271.43 1096.57 274.205L1085.16 285.613C1082.39 288.388 1077.89 288.388 1075.11 285.613L1063.7 274.205C1060.93 271.43 1060.93 266.93 1063.7 264.155L1075.11 252.746C1077.89 249.971 1082.39 249.971 1085.16 252.746L1096.57 264.155Z" fill="#CD88FF"/>
<path d="M1070.43 290.47C1073.16 293.196 1073.16 297.615 1070.43 300.341L1058.84 311.929C1056.12 314.654 1051.7 314.654 1048.97 311.929L1037.38 300.341C1034.66 297.615 1034.66 293.196 1037.38 290.47L1048.97 278.882C1051.7 276.156 1056.12 276.156 1058.84 278.882L1070.43 290.47Z" fill="#A950FF"/>
<path d="M1149.02 264.155C1151.8 266.93 1151.8 271.43 1149.02 274.205L1137.61 285.613C1134.84 288.388 1130.34 288.388 1127.56 285.613L1116.15 274.205C1113.38 271.43 1113.38 266.93 1116.15 264.155L1127.56 252.746C1130.34 249.971 1134.84 249.971 1137.61 252.746L1149.02 264.155Z" fill="#CD88FF"/>
<path d="M1117.59 339.078C1123.79 345.279 1123.79 355.331 1117.59 361.532C1111.39 367.732 1101.33 367.732 1095.13 361.532C1088.93 355.331 1088.93 345.279 1095.13 339.078C1101.33 332.878 1111.39 332.878 1117.59 339.078Z" fill="#F62E76"/>
<path d="M1005.44 381.723C1005.02 380.309 1004.72 378.839 1004.58 377.324L1005.07 377.276C1005 376.555 1004.97 375.823 1004.97 375.083V372.596H1004.47V367.622H1004.97V362.648H1004.47V357.674H1004.97V352.7H1004.47V347.726H1004.97V342.752H1004.47V337.778H1004.97V332.804H1004.47V327.831H1004.97V322.857H1004.47V317.883H1004.97V312.909H1004.47V307.935H1004.97V302.961H1004.47V297.987H1004.97V293.013H1004.47V288.039H1004.97V283.065H1004.47V278.091H1004.97V273.117H1004.47V268.143H1004.97V263.17H1004.47V258.196H1004.97V253.222H1004.47V248.248H1004.97V243.274H1004.47V238.3H1004.97V233.326H1004.47V228.352H1004.97V223.378H1004.47V218.404H1004.97V215.917C1004.97 215.177 1005 214.445 1005.07 213.724L1004.58 213.676C1004.72 212.162 1005.02 210.691 1005.44 209.277L1005.92 209.421C1006.35 208.006 1006.91 206.65 1007.59 205.367L1007.15 205.133C1007.85 203.805 1008.68 202.555 1009.63 201.4L1010.01 201.716C1010.94 200.58 1011.98 199.537 1013.1 198.604L1012.79 198.219C1013.94 197.267 1015.18 196.426 1016.5 195.713L1016.74 196.153C1018.02 195.463 1019.37 194.895 1020.78 194.464L1020.64 193.986C1022.05 193.555 1023.52 193.258 1025.03 193.109L1025.08 193.607C1025.8 193.536 1026.53 193.5 1027.27 193.5H1029.75V193H1034.7V193.5H1039.65V193H1044.6V193.5H1049.55V193H1054.5V193.5H1059.45V193H1064.4V193.5H1069.35V193H1074.3V193.5H1079.25V193H1084.2V193.5H1089.14V193H1094.09V193.5H1099.04V193H1103.99V193.5H1108.94V193H1113.89V193.5H1118.84V193H1123.79V193.5H1128.74V193H1133.69V193.5H1138.64V193H1143.59V193.5H1148.54V193H1153.49V193.5H1158.44V193H1163.39V193.5H1168.34V193H1173.29V193.5H1178.24V193H1183.19V193.5H1185.66C1186.4 193.5 1187.13 193.536 1187.86 193.607L1187.9 193.109C1189.42 193.258 1190.89 193.555 1192.3 193.986L1192.15 194.464C1193.57 194.895 1194.92 195.463 1196.2 196.153L1196.44 195.713C1197.76 196.426 1199 197.267 1200.15 198.219L1199.83 198.604C1200.96 199.537 1202 200.58 1202.92 201.716L1203.31 201.4C1204.25 202.555 1205.08 203.805 1205.79 205.133L1205.35 205.367C1206.03 206.65 1206.59 208.006 1207.02 209.421L1207.5 209.277C1207.92 210.691 1208.21 212.162 1208.36 213.676L1207.86 213.724C1207.93 214.445 1207.97 215.177 1207.97 215.917V218.404H1208.47V223.378H1207.97V228.352H1208.47V233.326H1207.97V238.3H1208.47V243.274H1207.97V248.248H1208.47V253.222H1207.97V258.196H1208.47V263.17H1207.97V268.143H1208.47V273.117H1207.97V278.091H1208.47V283.065H1207.97V288.039H1208.47V293.013H1207.97V297.987H1208.47V302.961H1207.97V307.935H1208.47V312.909H1207.97V317.883H1208.47V322.857H1207.97V327.83H1208.47V332.804H1207.97V337.778H1208.47V342.752H1207.97V347.726H1208.47V352.7H1207.97V357.674H1208.47V362.648H1207.97V367.622H1208.47V372.596H1207.97V375.083C1207.97 375.823 1207.93 376.555 1207.86 377.276L1208.36 377.324C1208.21 378.839 1207.92 380.309 1207.5 381.723L1207.02 381.579C1206.59 382.994 1206.03 384.35 1205.35 385.633L1205.79 385.867C1205.08 387.195 1204.25 388.445 1203.31 389.6L1202.92 389.284C1202 390.42 1200.96 391.463 1199.83 392.396L1200.15 392.781C1199 393.733 1197.76 394.574 1196.44 395.287L1196.2 394.847C1194.92 395.537 1193.57 396.105 1192.15 396.536L1192.3 397.014C1190.89 397.445 1189.42 397.742 1187.9 397.891L1187.86 397.393C1187.13 397.464 1186.4 397.5 1185.66 397.5H1183.19V398H1178.24V397.5H1173.29V398H1168.34V397.5H1163.39V398H1158.44V397.5H1153.49V398H1148.54V397.5H1143.59V398H1138.64V397.5H1133.69V398H1128.74V397.5H1123.79V398H1118.84V397.5H1113.89V398H1108.94V397.5H1103.99V398H1099.04V397.5H1094.09V398H1089.14V397.5H1084.2V398H1079.25V397.5H1074.3V398H1069.35V397.5H1064.4V398H1059.45V397.5H1054.5V398H1049.55V397.5H1044.6V398H1039.65V397.5H1034.7V398H1029.75V397.5H1027.27C1026.53 397.5 1025.8 397.464 1025.08 397.393L1025.03 397.891C1023.52 397.742 1022.05 397.445 1020.64 397.014L1020.78 396.536C1019.37 396.105 1018.02 395.537 1016.74 394.847L1016.5 395.287C1015.18 394.574 1013.94 393.733 1012.79 392.781L1013.1 392.396C1011.98 391.463 1010.94 390.42 1010.01 389.284L1009.63 389.6C1008.68 388.445 1007.85 387.195 1007.15 385.867L1007.59 385.633C1006.91 384.35 1006.35 382.994 1005.92 381.579L1005.44 381.723Z" stroke="#FB9292" stroke-dasharray="5 5"/>
<path d="M1101.46 279.038C1104.22 276.258 1108.71 276.258 1111.48 279.038L1122.85 290.466C1125.62 293.246 1125.62 297.754 1122.85 300.534L1111.48 311.962C1108.71 314.743 1104.22 314.743 1101.46 311.962L1090.09 300.534C1087.32 297.754 1087.32 293.246 1090.09 290.466L1101.46 279.038Z" fill="#A950FF"/>
<path d="M1153.84 278.947C1156.55 276.217 1160.96 276.217 1163.68 278.947L1175.23 290.555C1177.95 293.286 1177.95 297.713 1175.23 300.443L1163.68 312.051C1160.96 314.782 1156.55 314.782 1153.84 312.051L1142.29 300.443C1139.57 297.713 1139.57 293.286 1142.29 290.555L1153.84 278.947Z" fill="#A950FF"/>
<path d="M1101.55 226.402C1104.26 223.672 1108.67 223.672 1111.39 226.402L1122.94 238.011C1125.66 240.741 1125.66 245.168 1122.94 247.898L1111.39 259.507C1108.67 262.237 1104.26 262.237 1101.55 259.507L1090 247.898C1087.28 245.168 1087.28 240.741 1090 238.011L1101.55 226.402Z" fill="#E9C1FF"/>
<path d="M1096.71 264.194C1099.47 266.974 1099.47 271.481 1096.71 274.262L1085.33 285.69C1082.57 288.47 1078.08 288.47 1075.32 285.69L1063.94 274.262C1061.18 271.481 1061.18 266.974 1063.94 264.194L1075.32 252.765C1078.08 249.985 1082.57 249.985 1085.33 252.765L1096.71 264.194Z" fill="#CD88FF"/>
<path d="M1070.65 290.555C1073.37 293.286 1073.37 297.713 1070.65 300.443L1059.1 312.051C1056.38 314.782 1051.98 314.782 1049.26 312.051L1037.71 300.443C1034.99 297.713 1034.99 293.286 1037.71 290.555L1049.26 278.947C1051.98 276.217 1056.38 276.217 1059.1 278.947L1070.65 290.555Z" fill="#A950FF"/>
<path d="M1148.99 264.194C1151.76 266.974 1151.76 271.481 1148.99 274.262L1137.62 285.69C1134.86 288.47 1130.37 288.47 1127.6 285.69L1116.23 274.262C1113.46 271.481 1113.46 266.974 1116.23 264.194L1127.6 252.765C1130.37 249.985 1134.86 249.985 1137.62 252.765L1148.99 264.194Z" fill="#CD88FF"/>
<path d="M1117.66 339.248C1123.84 345.459 1123.84 355.53 1117.66 361.741C1111.48 367.952 1101.46 367.952 1095.28 361.741C1089.1 355.53 1089.1 345.459 1095.28 339.248C1101.46 333.037 1111.48 333.037 1117.66 339.248Z" fill="#F62E76"/>
<rect x="1003.86" y="-8.00065" width="31.7001" height="639.699" stroke="#5D90F4" stroke-width="0.362635" stroke-dasharray="2.54 2.54"/>
<rect x="1177.41" y="-8.00065" width="31.4543" height="639.699" stroke="#5D90F4" stroke-width="0.362635" stroke-dasharray="2.54 2.54"/>
<rect x="1087.54" y="-9.886" width="37.3804" height="643.47" stroke="#5D90F4" stroke-width="0.364772" stroke-dasharray="2.55 2.55"/>
<rect x="2693.06" y="193.629" width="30.9372" height="3155.65" transform="rotate(90 2693.06 193.629)" stroke="#5D90F4" stroke-width="0.362635" stroke-dasharray="2.54 2.54"/>
<rect x="2693.06" y="366.362" width="31.2638" height="3155.65" transform="rotate(90 2693.06 366.362)" stroke="#5D90F4" stroke-width="0.362635" stroke-dasharray="2.54 2.54"/>
<rect x="2693.06" y="333.937" width="32.4255" height="3155.65" transform="rotate(90 2693.06 333.937)" stroke="#5D90F4" stroke-width="0.362635" stroke-dasharray="2.54 2.54"/>
<rect x="1612.63" y="725.579" width="31.2406" height="1168.98" transform="rotate(134.904 1612.63 725.579)" stroke="#5D90F4" stroke-width="0.366541" stroke-dasharray="2.57 2.57"/>
<rect x="-0.256422" y="-2.81208e-05" width="30.375" height="1122.38" transform="matrix(0.707029 0.707184 0.707184 -0.707029 637.499 690.33)" stroke="#5D90F4" stroke-width="0.362635" stroke-dasharray="2.54 2.54"/>
</svg>
