<svg width="72" height="71" viewBox="0 0 72 71" fill="none" xmlns="http://www.w3.org/2000/svg">
<path d="M25.1643 31.1966C25.1643 31.8104 25.2316 32.308 25.3494 32.673C25.484 33.0379 25.6522 33.436 25.8878 33.8673C25.9719 34 26.0056 34.1327 26.0056 34.2488C26.0056 34.4147 25.9046 34.5806 25.6859 34.7465L24.6259 35.4431C24.4745 35.5427 24.3231 35.5924 24.1885 35.5924C24.0202 35.5924 23.852 35.5095 23.6837 35.3602C23.4482 35.1114 23.2463 34.846 23.078 34.5806C22.9098 34.2986 22.7415 33.9834 22.5565 33.6019C21.2441 35.128 19.5953 35.891 17.61 35.891C16.1967 35.891 15.0694 35.4929 14.245 34.6967C13.4206 33.9005 12.9999 32.8388 12.9999 31.5118C12.9999 30.1018 13.5047 28.9573 14.531 28.0947C15.5573 27.2321 16.9201 26.8009 18.6531 26.8009C19.2251 26.8009 19.814 26.8506 20.4365 26.9336C21.0591 27.0165 21.6984 27.1492 22.3714 27.2985V26.0876C22.3714 24.8269 22.1022 23.9477 21.5806 23.4335C21.0422 22.9193 20.1337 22.6705 18.8382 22.6705C18.2493 22.6705 17.6436 22.7368 17.0211 22.8861C16.3986 23.0354 15.7929 23.2179 15.204 23.4501C14.9348 23.5662 14.7329 23.6326 14.6151 23.6657C14.4974 23.6989 14.4132 23.7155 14.3459 23.7155C14.1104 23.7155 13.9926 23.5496 13.9926 23.2013V22.3885C13.9926 22.1231 14.0263 21.924 14.1104 21.8079C14.1945 21.6918 14.3459 21.5757 14.5815 21.4595C15.1704 21.161 15.877 20.9121 16.7014 20.7131C17.5258 20.4974 18.4007 20.3979 19.3261 20.3979C21.3283 20.3979 22.792 20.8458 23.7342 21.7415C24.6596 22.6373 25.1307 23.9975 25.1307 25.8222V31.1966H25.1643ZM18.3334 33.718C18.8886 33.718 19.4607 33.6185 20.0664 33.4194C20.6721 33.2204 21.2105 32.8554 21.6648 32.3578C21.9339 32.0426 22.1358 31.6943 22.2368 31.2962C22.3377 30.8981 22.405 30.417 22.405 29.853V29.1563C21.9171 29.0402 21.3956 28.9407 20.8572 28.8743C20.3188 28.808 19.7972 28.7748 19.2756 28.7748C18.1484 28.7748 17.3239 28.9905 16.7687 29.4383C16.2135 29.8862 15.9443 30.5165 15.9443 31.3459C15.9443 32.1256 16.1462 32.7061 16.5668 33.1043C16.9706 33.519 17.5595 33.718 18.3334 33.718ZM31.8438 35.5095C31.5409 35.5095 31.3391 35.4597 31.2045 35.3436C31.0699 35.2441 30.9521 35.0119 30.8511 34.6967L26.8973 21.8742C26.7963 21.5425 26.7459 21.3268 26.7459 21.2107C26.7459 20.9453 26.8805 20.796 27.1497 20.796H28.7985C29.1182 20.796 29.3369 20.8458 29.4547 20.9619C29.5893 21.0614 29.6902 21.2937 29.7912 21.6088L32.6177 32.59L35.2424 21.6088C35.3265 21.2771 35.4275 21.0614 35.5621 20.9619C35.6967 20.8624 35.9322 20.796 36.2351 20.796H37.5811C37.9007 20.796 38.1195 20.8458 38.2541 20.9619C38.3887 21.0614 38.5064 21.2937 38.5737 21.6088L41.2321 32.7227L44.1428 21.6088C44.2437 21.2771 44.3615 21.0614 44.4793 20.9619C44.6139 20.8624 44.8326 20.796 45.1354 20.796H46.7002C46.9694 20.796 47.1208 20.9287 47.1208 21.2107C47.1208 21.2937 47.104 21.3766 47.0871 21.4761C47.0703 21.5757 47.0367 21.7084 46.9694 21.8908L42.9146 34.7133C42.8136 35.045 42.6958 35.2607 42.5612 35.3602C42.4266 35.4597 42.2079 35.5261 41.9219 35.5261H40.475C40.1553 35.5261 39.9366 35.4763 39.802 35.3602C39.6674 35.2441 39.5496 35.0284 39.4823 34.6967L36.8744 23.9975L34.2834 34.6801C34.1993 35.0119 34.0983 35.2275 33.9637 35.3436C33.8291 35.4597 33.5936 35.5095 33.2907 35.5095H31.8438ZM53.4638 35.9574C52.5889 35.9574 51.714 35.8578 50.8727 35.6588C50.0315 35.4597 49.3753 35.2441 48.9379 34.9953C48.6687 34.846 48.4836 34.6801 48.4163 34.5308C48.349 34.3815 48.3153 34.2156 48.3153 34.0664V33.2204C48.3153 32.872 48.4499 32.7061 48.7023 32.7061C48.8033 32.7061 48.9042 32.7227 49.0052 32.7559C49.1061 32.7891 49.2575 32.8554 49.4258 32.9218C49.9978 33.1706 50.6204 33.3697 51.2765 33.5024C51.9495 33.6351 52.6057 33.7014 53.2787 33.7014C54.3386 33.7014 55.1631 33.5189 55.7351 33.154C56.3072 32.7891 56.61 32.2583 56.61 31.5782C56.61 31.1137 56.4586 30.7322 56.1557 30.417C55.8529 30.1018 55.2808 29.8198 54.4564 29.5544L52.0168 28.808C50.7886 28.4265 49.8801 27.8625 49.3248 27.116C48.7696 26.3862 48.4836 25.5733 48.4836 24.7108C48.4836 24.0141 48.635 23.4003 48.9379 22.8695C49.2407 22.3387 49.6445 21.8742 50.1493 21.5093C50.654 21.1278 51.226 20.8458 51.899 20.6467C52.572 20.4477 53.2787 20.3647 54.019 20.3647C54.3891 20.3647 54.7761 20.3813 55.1462 20.4311C55.5332 20.4809 55.8865 20.5472 56.2399 20.6136C56.5764 20.6965 56.896 20.7794 57.1989 20.879C57.5017 20.9785 57.7373 21.078 57.9055 21.1776C58.1411 21.3103 58.3093 21.443 58.4103 21.5923C58.5112 21.725 58.5617 21.9074 58.5617 22.1397V22.9193C58.5617 23.2676 58.4271 23.4501 58.1747 23.4501C58.0401 23.4501 57.8214 23.3837 57.5354 23.251C56.5764 22.8198 55.4996 22.6041 54.305 22.6041C53.346 22.6041 52.5889 22.7534 52.0673 23.0686C51.5457 23.3837 51.2765 23.8648 51.2765 24.5449C51.2765 25.0094 51.4448 25.4075 51.7813 25.7226C52.1178 26.0378 52.7403 26.353 53.632 26.635L56.0211 27.3814C57.2325 27.7629 58.1074 28.2938 58.629 28.9739C59.1506 29.654 59.4029 30.4336 59.4029 31.2962C59.4029 32.0095 59.2515 32.6564 58.9655 33.2204C58.6626 33.7844 58.2588 34.282 57.7373 34.6801C57.2157 35.0948 56.5932 35.3934 55.8697 35.609C55.1126 35.8413 54.3218 35.9574 53.4638 35.9574Z" fill="white"/>
<path fill-rule="evenodd" clip-rule="evenodd" d="M56.6436 44.0191C51.1082 48.0499 43.0659 50.1898 36.1509 50.1898C26.4598 50.1898 17.7277 46.6566 11.1323 40.7844C10.6107 40.32 11.0818 39.6896 11.7044 40.0546C18.8381 44.1352 27.6375 46.6068 36.7398 46.6068C42.8808 46.6068 49.6276 45.3461 55.836 42.7584C56.7614 42.3437 57.5521 43.3556 56.6436 44.0191Z" fill="#FF9900"/>
<path fill-rule="evenodd" clip-rule="evenodd" d="M58.9486 41.4314C58.242 40.5356 54.2713 41.0001 52.471 41.2157C51.9326 41.2821 51.8485 40.8176 52.3364 40.4693C55.4995 38.2797 60.6984 38.91 61.3041 39.6399C61.9098 40.3863 61.1358 45.512 58.1747 47.967C57.7204 48.3485 57.2829 48.1495 57.4848 47.6518C58.1578 46.0096 59.6552 42.3105 58.9486 41.4314Z" fill="#FF9900"/>
</svg>
