<svg width="162" height="40" viewBox="0 0 162 40" fill="none" xmlns="http://www.w3.org/2000/svg">
<path d="M99.4838 30.726H99.4302C99.457 30.726 99.457 30.7528 99.4838 30.7528H99.5106L99.4838 30.726ZM99.4838 30.7528C99.2693 30.7528 98.7064 30.8601 98.1166 30.8601C96.2668 30.8601 95.6234 30.0022 95.6234 28.8762V21.4234H99.4034C99.6178 21.4234 99.7787 21.2358 99.7787 20.9677V16.9196C99.7787 16.7051 99.591 16.5175 99.4034 16.5175H95.6234V11.4775C95.6234 11.2898 95.4893 11.1826 95.2749 11.1826H90.1276C89.9131 11.1826 89.8059 11.3166 89.8059 11.4775V16.6515C89.8059 16.6515 87.2055 17.2949 87.0446 17.3217C86.857 17.3753 86.7497 17.5362 86.7497 17.7239V20.9677C86.7497 21.2358 86.9374 21.4234 87.1519 21.4234H89.7791V29.2515C89.7791 35.069 93.8272 35.6588 96.5885 35.6588C97.8485 35.6588 99.3766 35.2567 99.6179 35.1226C99.7519 35.069 99.8323 34.9082 99.8323 34.7473V31.1818C99.8323 30.9673 99.6983 30.8064 99.4838 30.7528ZM155.943 25.5252C155.943 21.209 154.2 20.646 152.377 20.8337C150.956 20.9141 149.804 21.6379 149.804 21.6379V30.029C149.804 30.029 150.956 30.8333 152.699 30.8869C155.138 30.9405 155.943 30.0558 155.943 25.5252ZM161.733 25.1498C161.733 33.3265 159.079 35.6588 154.468 35.6588C150.554 35.6588 148.463 33.675 148.463 33.675C148.463 33.675 148.383 34.7741 148.249 34.9082C148.168 35.0422 148.061 35.0958 147.9 35.0958H144.388C144.147 35.0958 143.932 34.9082 143.932 34.6937L143.986 8.23362C143.986 8.01915 144.174 7.83149 144.388 7.83149H149.455C149.669 7.83149 149.857 8.01915 149.857 8.23362V17.2145C149.857 17.2145 151.814 15.9545 154.683 15.9545L154.656 15.9009C157.498 15.9009 161.733 16.9732 161.733 25.1498ZM140.957 16.5443H135.943C135.675 16.5443 135.541 16.7319 135.541 17V29.9486C135.541 29.9486 134.228 30.8601 132.432 30.8601C130.662 30.8601 130.126 30.0558 130.126 28.2596V16.9464C130.126 16.7319 129.938 16.5443 129.724 16.5443H124.63C124.416 16.5443 124.228 16.7319 124.228 16.9464V29.1443C124.228 34.372 127.15 35.6856 131.172 35.6856C134.496 35.6856 137.177 33.8626 137.177 33.8626C137.177 33.8626 137.311 34.8009 137.364 34.935C137.418 35.0422 137.579 35.1494 137.74 35.1494H140.93C141.198 35.1494 141.332 34.9618 141.332 34.7473L141.386 16.9464C141.412 16.7319 141.198 16.5443 140.957 16.5443ZM84.4978 16.5175H79.431C79.2165 16.5175 79.0289 16.7319 79.0289 17V34.4792C79.0289 34.9618 79.3506 35.1226 79.7527 35.1226H84.337C84.8195 35.1226 84.9267 34.9082 84.9267 34.4792V16.9196C84.8999 16.7051 84.7123 16.5175 84.4978 16.5175ZM81.9778 8.44809C80.1548 8.44809 78.6804 9.89576 78.6804 11.7455C78.6804 13.5685 80.128 15.043 81.9778 15.043C83.774 15.043 85.2216 13.5953 85.2216 11.7455C85.2216 9.92256 83.774 8.44809 81.9778 8.44809ZM121.279 7.8583H116.239C116.025 7.8583 115.837 8.04596 115.837 8.26043V17.9919H107.955V8.26043C107.955 8.04596 107.768 7.8583 107.553 7.8583H102.486C102.272 7.8583 102.084 8.04596 102.084 8.26043V34.7205C102.084 34.935 102.299 35.1226 102.486 35.1226H107.553C107.768 35.1226 107.955 34.935 107.955 34.7205V23.4073H115.837L115.783 34.7205C115.783 34.935 115.971 35.1226 116.186 35.1226H121.252C121.467 35.1226 121.654 34.935 121.654 34.7205V8.26043C121.681 8.04596 121.494 7.8583 121.279 7.8583ZM76.3212 19.5736V33.246C76.3212 33.3264 76.2944 33.5141 76.1872 33.5409C76.1872 33.5409 73.2114 35.6588 68.3054 35.6588C62.3807 35.6588 55.3301 33.809 55.3301 21.5575C55.3301 9.30597 61.4692 6.78596 67.4744 6.81277C72.6752 6.81277 74.7663 7.99234 75.088 8.20681C75.1684 8.34086 75.222 8.42128 75.222 8.52852L74.2569 12.7911C74.2569 13.0055 74.0425 13.2736 73.7744 13.1932C72.9165 12.9251 71.6297 12.4158 68.6003 12.4158C65.0884 12.4158 61.3352 13.4077 61.3352 21.3162C61.3352 29.1979 64.9007 30.1362 67.4744 30.1362C69.6727 30.1362 70.4501 29.8681 70.4501 29.8681V24.3992H66.9382C66.6701 24.3992 66.4824 24.2115 66.4824 23.9971V19.6005C66.4824 19.386 66.6701 19.1983 66.9382 19.1983H75.8654C76.1335 19.1715 76.3212 19.3592 76.3212 19.5736Z" fill="white"/>
<path fill-rule="evenodd" clip-rule="evenodd" d="M21.2831 0.0301514C9.99671 0.0301514 0.85498 9.17188 0.85498 20.4583C0.85498 29.4928 6.69925 37.1332 14.8223 39.8409C15.841 40.0017 16.2431 39.4119 16.2431 38.8758C16.2431 38.3932 16.2163 36.7847 16.2163 35.069C11.0959 36.0073 9.75543 33.809 9.3533 32.683C9.11202 32.0932 8.1201 30.2702 7.26223 29.7877C6.5384 29.4124 5.51967 28.4472 7.23542 28.4204C8.84394 28.3936 9.99671 29.8949 10.372 30.5115C12.2218 33.5945 15.144 32.7366 16.3235 32.2004C16.5112 30.8868 17.0474 29.9753 17.6372 29.466C13.1065 28.9566 8.33457 27.1872 8.33457 19.3859C8.33457 17.1608 9.13883 15.311 10.4256 13.8902C10.2112 13.3808 9.51415 11.2898 10.6401 8.47485C10.6401 8.47485 12.3559 7.93869 16.2699 10.5659C17.9052 10.1102 19.6478 9.8689 21.3635 9.8689C23.1061 9.8689 24.8218 10.1102 26.4572 10.5659C30.3712 7.91188 32.0602 8.47485 32.0602 8.47485C33.1861 11.2898 32.4623 13.3808 32.2746 13.8902C33.5883 15.311 34.3657 17.134 34.3657 19.3859C34.3657 27.2141 29.5938 28.9566 25.0363 29.466C25.787 30.1094 26.4304 31.3158 26.4304 33.246C26.4304 35.9805 26.4036 38.1788 26.4036 38.849C26.4036 39.3851 26.7789 40.0285 27.7976 39.8141C36.1083 36.9992 41.7113 29.1979 41.7113 20.4315C41.7113 9.17188 32.5695 0.0301514 21.2831 0.0301514Z" fill="white"/>
</svg>
