<svg xmlns="http://www.w3.org/2000/svg" viewBox="0 0 400 75" fill="none"><path id="path3703" d="m26.884 9.1777c-2.605 0-4.173 1.6773-5.219 3.8543l-19.273 44.596c-0.5198 0.548-0.4748 1.11-0.4748 2.194 0 2.159 2.0756 4.329 4.1512 4.329 2.0851 0 3.6317-1.077 4.1516-3.262l4.151-10.318h12.987c2.076 0 4.21-1.62 4.21-3.796 0-2.177-2.134-4.388-4.21-4.388h-9.31l8.836-21.764 9.31 21.764 3.143 8.184 4.151 10.318c1.037 1.64 2.61 3.262 4.685 3.262 2.085 0 4.151-2.159 4.151-4.863 0-0.538-0.014-1.112-0.533-1.66l-19.214-44.596c-1.037-2.177-2.626-3.8543-5.219-3.8543h-0.474zm103.96 0c-15.6 0-26.51 12.529-26.51 27.753s10.91 27.754 26.51 27.754c15.59 0 27.04-12.53 27.04-27.754s-10.94-27.753-27.04-27.753zm127.92 0.593c-2.62 0-4.69 2.1683-4.69 4.8633v44.654c0 2.704 2.07 4.863 4.69 4.863 2.06 0 4.15-2.159 4.15-4.863v-10.911l8.3-8.718 16.66 22.298c1.04 1.093 2.06 2.194 3.62 2.194 2.59 0 4.69-2.159 4.69-4.863 0-1.084-0.54-2.227-1.07-3.321l-17.67-22.297 16.13-15.775c1.02-1.093 1.54-2.185 1.54-3.795 0-2.178-1.54-4.3293-4.15-4.3293-1.56 0-2.57 0.5073-3.62 1.6013l-24.43 25.559v-22.297c0-2.695-2.09-4.8633-4.15-4.8633zm-195.52 0.5333c-2.076 0-4.151 2.157-4.151 4.863v44.121c0 2.704 2.075 4.863 4.151 4.863 2.602 0 4.685-2.159 4.685-4.863v-13.106h10.437c11.434 0 20.222-5.937 20.222-17.909 0-10.888-7.261-17.969-19.214-17.969h-16.13zm98.794 0c-2.08 0-4.15 2.171-4.15 4.33 0 2.187 2.07 4.388 4.15 4.388h12.46v40.266c0 2.704 2.14 4.863 4.74 4.863 2.58 0 4.63-2.159 4.63-4.863v-40.266h12.51c2.09 0 4.15-2.201 4.15-4.388 0-2.159-2.06-4.33-4.15-4.33h-34.34zm48.87 0c-2.61 0-4.69 2.157-4.69 4.863v43.588c0 2.697 2.08 4.862 4.69 4.862h30.18c2.09 0 4.16-1.625 4.16-4.329 0-2.177-2.07-3.854-4.16-3.854h-25.5v-14.648h21.83c2.08 0 4.15-1.677 4.15-3.855 0-2.725-2.07-4.329-4.15-4.329h-21.83v-14.173h24.97c2.61 0 4.15-1.608 4.15-3.795 0-2.695-1.54-4.33-4.15-4.33h-29.65zm-80.06 7.591c10.39 0 17.67 8.694 17.67 19.036 0 10.34-7.28 19.036-17.67 19.036-9.88 0-17.14-8.696-17.14-19.036 0-10.342 7.26-19.036 17.14-19.036zm-62.919 1.127h10.437c6.756 0 11.386 3.273 11.386 9.251 0 5.975-4.63 9.785-11.386 9.785h-10.437v-19.036z" fill-rule="evenodd" fill="currentColor"/><path id="path4018" d="m398.08 22.276c0-5.458-2.08-10.888-6.23-15.253-4.15-4.3454-9.37-6.523-14.56-6.523h-0.53c-4.67 0-10.38 2.1776-14.03 6.5233l-12.48 12.52c-1.56 2.187-1.56 4.882 0 6.523 1.57 2.188 4.67 2.188 6.24 0l12.47-12.5c2.61-2.724 5.22-3.8172 8.33-3.8172 2.6 0 5.19 1.0932 8.32 3.8172 2.59 2.706 3.63 5.977 3.63 8.71 0 3.243-1.04 5.978-3.63 8.701l-31.71 33.181-32.25-33.181c-2.59-2.723-3.63-6.004-3.63-8.701 0-3.281 1.04-6.004 3.63-8.71 2.6-2.724 5.22-3.8172 8.32-3.8172 2.61 0 5.72 1.0932 8.33 3.8172l0.52 1.065c2.08 1.641 4.67 1.641 6.75 0 1.57-2.159 1.57-4.8822 0-6.5237l-1.03-1.084c-4.16-4.3457-9.37-6.5233-14.57-6.5233-5.19 0-10.39 2.1776-14.56 6.5233-4.15 4.3647-6.23 9.7947-6.23 15.253 0 5.43 2.08 10.859 6.23 15.224l33.79 34.813c1.05 1.639 2.62 2.187 4.18 2.187h0.52c1.54 0 3.11-0.548 4.15-2.187l33.8-34.813c4.15-4.365 6.23-9.794 6.23-15.224z" fill-rule="evenodd" fill="currentColor"/></svg>
