<?xml version="1.0" standalone="no"?>
<!DOCTYPE svg PUBLIC "-//W3C//DTD SVG 20010904//EN"
 "http://www.w3.org/TR/2001/REC-SVG-20010904/DTD/svg10.dtd">
<svg version="1.0" xmlns="http://www.w3.org/2000/svg"
 width="300.000000pt" height="300.000000pt" viewBox="0 0 300.000000 300.000000"
 preserveAspectRatio="xMidYMid meet">
<metadata>
</metadata>
<g transform="translate(0.000000,300.000000) scale(0.100000,-0.100000)"
fill="#5e904e" stroke="none">
<path d="M1434 2831 c-48 -29 -64 -59 -64 -117 0 -37 6 -59 21 -78 44 -56 118
-72 176 -36 45 27 65 62 65 115 0 53 -20 88 -65 115 -41 25 -93 25 -133 1z
m141 -46 c19 -18 25 -35 25 -67 0 -55 -20 -84 -69 -99 -80 -24 -152 46 -130
126 13 45 43 65 101 65 39 0 54 -5 73 -25z"/>
<path d="M1429 2423 c-57 -35 -77 -124 -43 -183 49 -83 179 -83 228 0 35 60
11 155 -46 186 -32 18 -108 17 -139 -3z m147 -44 c19 -18 24 -33 24 -70 0 -40
-4 -51 -31 -73 -21 -18 -42 -26 -69 -26 -27 0 -48 8 -69 26 -27 22 -31 33 -31
73 0 48 20 78 60 94 29 12 92 -1 116 -24z"/>
<path d="M1433 2020 c-18 -10 -39 -30 -48 -44 -24 -36 -21 -109 5 -146 78
-109 242 -58 242 76 0 52 -20 87 -65 114 -41 25 -93 25 -134 0z m103 -20 c8 0
26 -11 39 -25 29 -28 34 -97 10 -132 -38 -54 -139 -49 -174 8 -21 35 -14 98
14 129 17 19 57 30 83 23 8 -1 20 -3 28 -3z"/>
<path d="M161 1894 c0 -11 3 -14 6 -6 3 7 2 16 -1 19 -3 4 -6 -2 -5 -13z"/>
<path d="M1429 1613 c-80 -49 -79 -179 1 -227 60 -35 150 -13 184 44 35 60 13
150 -44 184 -36 20 -107 20 -141 -1z m140 -39 c27 -22 31 -32 31 -74 0 -42 -4
-52 -31 -74 -21 -18 -42 -26 -69 -26 -27 0 -48 8 -69 26 -27 22 -31 32 -31 74
0 42 4 52 31 74 42 35 96 35 138 0z"/>
<path d="M625 1211 c-45 -27 -67 -66 -67 -117 0 -52 20 -87 65 -114 60 -37
143 -17 182 44 9 14 17 45 17 70 0 104 -111 170 -197 117z m97 -21 c47 -14 68
-43 68 -98 0 -32 -6 -49 -24 -67 -67 -67 -176 -27 -176 65 0 51 12 75 48 94
33 18 37 19 84 6z"/>
<path d="M1435 1211 c-46 -27 -65 -63 -65 -119 0 -104 109 -166 197 -112 45
27 65 62 65 114 0 104 -111 170 -197 117z m101 -21 c31 0 64 -47 64 -90 0 -52
-13 -76 -52 -96 -39 -20 -92 -11 -124 21 -29 29 -33 98 -9 133 16 22 70 43 93
36 8 -2 20 -4 28 -4z"/>
<path d="M2243 1210 c-45 -27 -65 -62 -65 -115 0 -53 20 -88 65 -115 60 -37
143 -17 182 44 9 14 17 45 17 70 0 105 -111 170 -199 116z m103 -20 c8 0 26
-11 39 -25 53 -52 23 -152 -49 -171 -88 -22 -162 78 -115 155 18 30 70 54 97
45 8 -2 20 -4 28 -4z"/>
<path d="M1062 819 c-113 -24 -137 -179 -38 -244 36 -24 109 -21 146 5 123 87
40 271 -108 239z m81 -40 c54 -28 71 -83 42 -139 -19 -37 -43 -50 -95 -50
-102 0 -141 136 -52 184 33 18 75 20 105 5z"/>
<path d="M1880 822 c-14 -2 -37 -13 -53 -24 -106 -76 -53 -240 79 -240 52 0
87 20 114 65 59 97 -25 216 -140 199z m73 -43 c54 -28 71 -83 42 -139 -19 -37
-43 -50 -95 -50 -102 0 -141 136 -52 184 33 18 75 20 105 5z"/>
<path d="M1429 803 c-57 -35 -77 -124 -43 -183 36 -59 121 -81 181 -45 84 49
85 180 3 229 -36 20 -107 20 -141 -1z m140 -39 c27 -22 31 -32 31 -74 0 -42
-4 -52 -31 -74 -21 -18 -42 -26 -69 -26 -27 0 -48 8 -69 26 -27 22 -31 32 -31
74 0 42 4 52 31 74 42 35 96 35 138 0z"/>
<path d="M1433 400 c-45 -27 -65 -62 -65 -115 0 -53 20 -88 65 -115 41 -25 93
-25 134 0 45 27 65 62 65 115 0 53 -20 88 -65 115 -41 25 -93 25 -134 0z m142
-45 c19 -18 25 -35 25 -65 0 -52 -13 -76 -50 -95 -45 -23 -84 -19 -119 14 -26
24 -31 36 -31 75 0 67 31 96 100 96 41 0 56 -5 75 -25z"/>
</g>
</svg>
