<?xml version="1.0" encoding="UTF-8"?>
<!-- Generated by Pixelmator Pro 3.7 -->
<svg width="1083" height="691" viewBox="0 0 1083 691" xmlns="http://www.w3.org/2000/svg">
    <g id="Group">
        <path id="Path" fill="#ccffcc" stroke="#99ff33" d="M 45.16 213.640015 L 213.5 213.640015 C 214.052292 213.640015 214.5 214.087708 214.5 214.640015 L 214.5 310.380005 C 214.5 310.932281 214.052292 311.380005 213.5 311.380005 L 45.16 311.380005 C 44.607716 311.380005 44.16 310.932281 44.16 310.380005 L 44.16 214.640015 C 44.16 214.087708 44.607716 213.640015 45.16 213.640015 Z"/>
        <path id="path1" fill="none" stroke="#ffffff" stroke-dasharray="3 3" stroke-dashoffset="0" d="M 44.16 311.380005 L 214.5 213.640015"/>
        <g id="g1">
            <g id="g2">
                <text id="OR" xml:space="preserve" x="120.5" y="267" font-family="Helvetica" font-size="10" fill="#808080">OR</text>
            </g>
        </g>
        <path id="path2" fill="#000000" stroke="#000000" opacity="0.25" d="M 274.5 3.5 L 792.5 3.5 C 793.052307 3.5 793.5 3.947693 793.5 4.5 L 793.5 602.5 C 793.5 603.052307 793.052307 603.5 792.5 603.5 L 274.5 603.5 C 273.947723 603.5 273.5 603.052307 273.5 602.5 L 273.5 4.5 C 273.5 3.947693 273.947723 3.5 274.5 3.5 Z"/>
        <path id="path3" fill="#ffffff" stroke="#000000" d="M 272.5 0.5 L 790.5 0.5 C 791.052307 0.5 791.5 0.947693 791.5 1.5 L 791.5 599.5 C 791.5 600.052307 791.052307 600.5 790.5 600.5 L 272.5 600.5 C 271.947723 600.5 271.5 600.052307 271.5 599.5 L 271.5 1.5 C 271.5 0.947693 271.947723 0.5 272.5 0.5 Z"/>
        <path id="path4" fill="#5184f3" stroke="none" d="M 289.950012 51.830017 C 289.070007 51.830017 288.369995 51.22998 287.720001 50.390015 L 277.209991 37.359985 C 276.5 36.419983 276.51001 35.179993 276.929993 33.679993 L 280.519989 18.140015 C 280.839996 16.840027 281.609985 16.27002 282.779999 15.809998 L 297.26001 8.869995 C 298.579987 8.169983 299.540009 8.25 300.549988 8.799988 L 315.660004 15.98999 C 316.600006 16.460022 317.279999 17.150024 317.480011 18.02002 L 321.209991 34.150024 C 321.5 35.219971 321.480011 36.359985 321.100006 36.919983 L 310.390015 50.330017 C 309.75 51.119995 308.980011 51.830017 307.980011 51.830017 Z"/>
        <path id="path5" fill="#ffffff" stroke="none" d="M 299.029999 32.530029 L 300.290009 31.929993 L 300.619995 30.559998 L 299.720001 29.460022 L 298.269989 29.47998 L 297.399994 30.580017 L 297.769989 31.929993 Z M 290.040009 34.299988 C 290.779999 36.179993 292.059998 37.72998 293.730011 38.969971 L 295.380005 34.929993 C 295.549988 34.599976 295.709991 34.090027 295.459991 33.72998 C 295.209991 33.400024 294.790009 33.460022 294.279999 33.570007 Z M 290.76001 25.940002 C 289.820007 27.609985 289.299988 29.640015 289.399994 31.830017 L 293.640015 30.619995 C 294.079987 30.5 294.549988 30.25 294.609985 29.919983 C 294.679993 29.619995 294.410004 29.26001 294.059998 28.950012 Z M 297.73999 21.349976 C 295.320007 21.840027 293.609985 22.789978 292.359985 24.059998 L 295.950012 26.539978 C 296.23999 26.76001 296.690002 27.02002 297 26.890015 C 297.390015 26.690002 297.529999 26.369995 297.540009 25.890015 Z M 305.640015 24.02002 C 304.119995 22.619995 302.220001 21.669983 300.26001 21.380005 L 300.48999 25.700012 C 300.48999 26.159973 300.630005 26.619995 300.920013 26.830017 C 301.309998 27.039978 301.820007 26.72998 302.23999 26.419983 Z M 308.670013 31.880005 C 308.76001 29.419983 308.059998 27.429993 307.220001 25.960022 L 303.910004 28.919983 C 303.670013 29.109985 303.350006 29.440002 303.390015 29.840027 C 303.459991 30.26001 303.73999 30.400024 304.179993 30.539978 Z M 304.309998 38.97998 C 305.829987 37.929993 307.160004 36.369995 308.029999 34.309998 L 303.600006 33.549988 C 303.089996 33.460022 302.799988 33.450012 302.570007 33.710022 C 302.309998 34.01001 302.390015 34.289978 302.540009 34.700012 Z M 296.019989 40.049988 C 297.850006 40.650024 299.98999 40.650024 302.040009 40.070007 L 299.829987 36.119995 C 299.619995 35.73999 299.380005 35.460022 299.019989 35.460022 C 298.609985 35.460022 298.399994 35.789978 298.220001 36.169983 Z M 294.700012 42.330017 L 294.609985 42.700012 C 294.26001 42.77002 293.98999 43.01001 293.779999 43.51001 C 293.309998 44.72998 293.410004 45.099976 292.950012 45.859985 C 292.709991 46.27002 292.040009 46.419983 291.589996 46.190002 C 291.119995 45.940002 290.890015 45.289978 291.23999 44.650024 L 292.350006 42.969971 C 292.609985 42.580017 292.75 42.179993 292.559998 41.780029 L 292.779999 41.440002 C 290.070007 39.75 288.140015 37.309998 287.440002 34.659973 L 287.019989 34.789978 C 286.820007 34.580017 286.579987 34.52002 286.119995 34.630005 C 284.970001 34.890015 284.619995 35.359985 283.480011 35.48999 C 283 35.52002 282.540009 35.119995 282.48999 34.659973 C 282.440002 34.23999 282.549988 33.700012 283.220001 33.460022 C 283.959991 33.25 284.309998 33.390015 285.48999 33.320007 C 286.059998 33.27002 286.410004 33 286.48999 32.640015 L 286.929993 32.539978 C 286.660004 29.5 287 26.630005 288.859985 24.210022 L 288.5 23.900024 C 288.440002 23.559998 288.309998 23.340027 287.970001 23.099976 C 287.190002 22.539978 286.730011 22.47998 285.940002 21.820007 C 285.519989 21.450012 285.399994 20.849976 285.679993 20.359985 C 286.019989 19.869995 286.859985 19.880005 287.209991 20.169983 C 288.160004 20.909973 288.440002 21.5 289.079987 22.01001 C 289.429993 22.309998 289.589996 22.219971 289.799988 22.190002 L 290.170013 22.440002 C 292.429993 20.059998 295.079987 18.98999 297.959991 18.76001 L 297.959991 18.369995 C 298.140015 18.26001 298.309998 18.039978 298.309998 17.630005 C 298.309998 16.630005 298.019989 16.049988 297.940002 15.070007 C 297.890015 14.52002 298.420013 13.950012 298.980011 13.950012 C 299.450012 13.950012 300.01001 14.429993 300.01001 14.97998 C 300.070007 15.909973 299.769989 16.369995 299.709991 17.609985 C 299.679993 17.960022 299.850006 18.23999 300.070007 18.340027 L 300.079987 18.76001 C 303.170013 19 305.920013 20.429993 307.809998 22.48999 L 308.230011 22.210022 C 308.519989 22.25 308.709991 22.210022 308.959991 22 C 309.799988 21.349976 309.809998 20.940002 310.820007 20.150024 C 311.179993 19.900024 311.839996 19.840027 312.279999 20.340027 C 312.619995 20.75 312.470001 21.409973 312.190002 21.659973 C 311.339996 22.450012 310.839996 22.369995 309.799988 23.26001 C 309.540009 23.469971 309.48999 23.640015 309.570007 23.880005 L 309.170013 24.219971 C 311.100006 26.950012 311.48999 30.030029 311.100006 32.47998 L 311.450012 32.539978 C 311.48999 32.780029 311.670013 32.969971 311.970001 33.070007 C 312.980011 33.320007 314.170013 33.200012 314.859985 33.429993 C 315.309998 33.599976 315.700012 34.070007 315.540009 34.72998 C 315.390015 35.289978 314.910004 35.5 314.440002 35.47998 C 313.899994 35.450012 312.519989 34.75 311.790009 34.580017 C 311.470001 34.48999 311.290009 34.51001 311.100006 34.700012 L 310.660004 34.640015 C 309.779999 36.97998 308.470001 39.5 305.269989 41.390015 L 305.429993 41.72998 C 305.309998 42.030029 305.339996 42.25 305.589996 42.799988 C 306.040009 43.73999 306.670013 44.219971 306.880005 44.75 C 307.109985 45.409973 306.859985 46 306.369995 46.219971 C 305.869995 46.419983 305.230011 46.26001 304.910004 45.599976 C 304.570007 44.909973 304.589996 44.359985 304.170013 43.450012 C 303.980011 43 303.809998 42.780029 303.51001 42.700012 L 303.339996 42.320007 C 300.799988 43.450012 297.109985 43.359985 294.700012 42.330017 Z"/>
        <g id="g3">
            <g id="g4">
                <text id="Kubernet" xml:space="preserve" x="327" y="35" font-family="Helvetica" font-size="12" fill="#999999">Kubernet...</text>
            </g>
        </g>
        <path id="path6" fill="#000000" stroke="#000000" opacity="0.25" d="M 454.5 43.5 L 632.5 43.5 C 633.052307 43.5 633.5 43.947693 633.5 44.5 L 633.5 92.5 C 633.5 93.052307 633.052307 93.5 632.5 93.5 L 454.5 93.5 C 453.947723 93.5 453.5 93.052307 453.5 92.5 L 453.5 44.5 C 453.5 43.947693 453.947723 43.5 454.5 43.5 Z"/>
        <path id="path7" fill="#ffffff" stroke="#dddddd" d="M 452.5 40.5 L 630.5 40.5 C 631.052307 40.5 631.5 40.947693 631.5 41.5 L 631.5 89.5 C 631.5 90.052307 631.052307 90.5 630.5 90.5 L 452.5 90.5 C 451.947723 90.5 451.5 90.052307 451.5 89.5 L 451.5 41.5 C 451.5 40.947693 451.947723 40.5 452.5 40.5 Z"/>
        <path id="path8" fill="#5184f3" stroke="none" d="M 469.690002 85 C 468.200012 85 466.779999 84.200012 466.029999 82.710022 L 457.290009 67.410034 C 456.5 66.070007 456.630005 64.52002 457.290009 63.409973 L 466.109985 48.109985 C 466.859985 46.710022 468.190002 46 469.549988 46 L 487.25 46 C 488.570007 46 489.869995 46.650024 490.649994 47.950012 L 499.440002 63.23999 C 500.5 64.849976 500.140015 66.570007 499.540009 67.530029 L 490.799988 82.72998 C 490.209991 83.960022 488.890015 85 487.190002 85 Z"/>
        <path id="path9" fill="#000000" fill-opacity="0.07" stroke="none" d="M 483.790009 85 L 469.600006 70.75 L 470.630005 60.780029 L 478.48999 56.609985 L 487.23999 60.169983 L 497.690002 70.72998 L 490.799988 82.72998 C 490.220001 83.960022 488.890015 85 487.190002 85 Z"/>
        <path id="path10" fill="#ffffff" stroke="none" d="M 478.399994 73.98999 L 485.230011 70.01001 L 482.649994 68.47998 L 478.790009 70.679993 L 478.790009 65.72998 L 483.100006 63.169983 L 483.100006 67.599976 L 485.769989 69.119995 L 485.769989 61.320007 L 478.970001 57.330017 L 478.970001 60.409973 L 482.779999 62.549988 L 478.420013 65.119995 L 474.089996 62.559998 L 477.899994 60.390015 L 477.899994 57.320007 L 471.100006 61.320007 L 471.100006 69.109985 L 473.709991 67.539978 L 473.709991 63.140015 L 478.070007 65.72998 L 478.070007 70.710022 L 474.26001 68.47998 L 471.619995 70.039978 Z M 478.980011 75.630005 C 478.540009 75.869995 478.100006 75.789978 477.619995 75.52002 L 469.899994 70.98999 C 469.459991 70.700012 469.380005 70.5 469.380005 70.039978 L 469.380005 60.880005 C 469.380005 60.469971 469.519989 60.179993 469.920013 59.950012 L 477.679993 55.429993 C 478.230011 55.140015 478.700012 55.140015 479.209991 55.47998 L 487.019989 60.02002 C 487.399994 60.22998 487.470001 60.530029 487.470001 60.929993 L 487.470001 70.02002 C 487.470001 70.450012 487.290009 70.839966 486.950012 71.02002 Z"/>
        <g id="g5">
            <g id="g6">
                <text id="Schedule" xml:space="preserve" x="506" y="59" font-family="Helvetica" font-size="12" fill="#999999">Schedule...</text>
            </g>
        </g>
        <path id="path11" fill="#000000" stroke="#000000" opacity="0.25" d="M 462.5 219.5 L 630.5 219.5 C 631.052307 219.5 631.5 219.947693 631.5 220.5 L 631.5 269.619995 C 631.5 270.172272 631.052307 270.619995 630.5 270.619995 L 462.5 270.619995 C 461.947723 270.619995 461.5 270.172272 461.5 269.619995 L 461.5 220.5 C 461.5 219.947693 461.947723 219.5 462.5 219.5 Z"/>
        <path id="path12" fill="#ffffff" stroke="#dddddd" d="M 460.5 216.5 L 628.5 216.5 C 629.052307 216.5 629.5 216.947693 629.5 217.5 L 629.5 266.619995 C 629.5 267.172272 629.052307 267.619995 628.5 267.619995 L 460.5 267.619995 C 459.947723 267.619995 459.5 267.172272 459.5 266.619995 L 459.5 217.5 C 459.5 216.947693 459.947723 216.5 460.5 216.5 Z"/>
        <path id="path13" fill="#000000" stroke="#000000" opacity="0.25" d="M 454.5 211.5 L 622.5 211.5 C 623.052307 211.5 623.5 211.947693 623.5 212.5 L 623.5 261.619995 C 623.5 262.172272 623.052307 262.619995 622.5 262.619995 L 454.5 262.619995 C 453.947723 262.619995 453.5 262.172272 453.5 261.619995 L 453.5 212.5 C 453.5 211.947693 453.947723 211.5 454.5 211.5 Z"/>
        <path id="path14" fill="#ffffff" stroke="#dddddd" d="M 452.5 208.5 L 620.5 208.5 C 621.052307 208.5 621.5 208.947693 621.5 209.5 L 621.5 258.619995 C 621.5 259.172272 621.052307 259.619995 620.5 259.619995 L 452.5 259.619995 C 451.947723 259.619995 451.5 259.172272 451.5 258.619995 L 451.5 209.5 C 451.5 208.947693 451.947723 208.5 452.5 208.5 Z"/>
        <path id="path15" fill="#5184f3" stroke="none" d="M 469.690002 254.5 C 468.200012 254.5 466.779999 253.700012 466.029999 252.210022 L 457.290009 236.910004 C 456.5 235.570007 456.630005 234.02002 457.290009 232.910004 L 466.109985 217.609985 C 466.859985 216.210022 468.190002 215.5 469.549988 215.5 L 487.25 215.5 C 488.570007 215.5 489.869995 216.149994 490.649994 217.450012 L 499.440002 232.73999 C 500.5 234.350006 500.140015 236.070007 499.540009 237.029999 L 490.799988 252.22998 C 490.209991 253.460022 488.890015 254.5 487.190002 254.5 Z"/>
        <path id="path16" fill="#000000" fill-opacity="0.07" stroke="none" d="M 483.790009 254.5 L 469.600006 240.25 L 470.630005 230.279999 L 478.48999 226.109985 L 487.23999 229.669983 L 497.690002 240.22998 L 490.799988 252.22998 C 490.220001 253.460022 488.890015 254.5 487.190002 254.5 Z"/>
        <path id="path17" fill="#ffffff" stroke="none" d="M 478.399994 243.48999 L 485.230011 239.51001 L 482.649994 237.97998 L 478.790009 240.179993 L 478.790009 235.22998 L 483.100006 232.669983 L 483.100006 237.100006 L 485.769989 238.619995 L 485.769989 230.820007 L 478.970001 226.830017 L 478.970001 229.910004 L 482.779999 232.049988 L 478.420013 234.619995 L 474.089996 232.059998 L 477.899994 229.890015 L 477.899994 226.820007 L 471.100006 230.820007 L 471.100006 238.609985 L 473.709991 237.039978 L 473.709991 232.640015 L 478.070007 235.22998 L 478.070007 240.210022 L 474.26001 237.97998 L 471.619995 239.539978 Z M 478.980011 245.130005 C 478.540009 245.369995 478.100006 245.289978 477.619995 245.02002 L 469.899994 240.48999 C 469.459991 240.200012 469.380005 240 469.380005 239.539978 L 469.380005 230.380005 C 469.380005 229.970001 469.519989 229.679993 469.920013 229.450012 L 477.679993 224.929993 C 478.230011 224.640015 478.700012 224.640015 479.209991 224.97998 L 487.019989 229.52002 C 487.399994 229.72998 487.470001 230.029999 487.470001 230.429993 L 487.470001 239.52002 C 487.470001 239.950012 487.290009 240.339996 486.950012 240.52002 Z"/>
        <g id="g7">
            <g id="g8">
                <text id="Executor" xml:space="preserve" x="506" y="228" font-family="Helvetica" font-size="12" fill="#999999">Executor...</text>
            </g>
        </g>
        <path id="path18" fill="none" stroke="#ff00ff" d="M 630.5 379.940002 L 630.5 390.5 L 839.130005 390.5"/>
        <path id="path19" fill="#ff00ff" stroke="#ff00ff" d="M 844.380005 390.5 L 837.380005 394 L 839.130005 390.5 L 837.380005 387 Z"/>
        <path id="path20" fill="none" stroke="#00cc00" d="M 446.130005 395.220001 L 171.899994 395.200012 L 171.910004 317.75"/>
        <path id="path21" fill="#00cc00" stroke="#00cc00" d="M 451.380005 395.220001 L 444.380005 398.720001 L 446.130005 395.220001 L 444.380005 391.720001 Z"/>
        <path id="path22" fill="#00cc00" stroke="#00cc00" d="M 171.910004 312.5 L 175.410004 319.5 L 171.910004 317.75 L 168.410004 319.5 Z"/>
        <path id="path23" fill="#000000" stroke="#000000" opacity="0.25" d="M 463.5 360.380005 L 631.5 360.380005 C 632.052307 360.380005 632.5 360.827728 632.5 361.380005 L 632.5 412.5 C 632.5 413.052277 632.052307 413.5 631.5 413.5 L 463.5 413.5 C 462.947723 413.5 462.5 413.052277 462.5 412.5 L 462.5 361.380005 C 462.5 360.827728 462.947723 360.380005 463.5 360.380005 Z"/>
        <path id="path24" fill="#ffffff" stroke="#dddddd" d="M 461.5 357.380005 L 629.5 357.380005 C 630.052307 357.380005 630.5 357.827728 630.5 358.380005 L 630.5 409.5 C 630.5 410.052277 630.052307 410.5 629.5 410.5 L 461.5 410.5 C 460.947723 410.5 460.5 410.052277 460.5 409.5 L 460.5 358.380005 C 460.5 357.827728 460.947723 357.380005 461.5 357.380005 Z"/>
        <path id="path25" fill="#000000" stroke="#000000" opacity="0.25" d="M 455.5 352.380005 L 623.5 352.380005 C 624.052307 352.380005 624.5 352.827728 624.5 353.380005 L 624.5 404.5 C 624.5 405.052277 624.052307 405.5 623.5 405.5 L 455.5 405.5 C 454.947723 405.5 454.5 405.052277 454.5 404.5 L 454.5 353.380005 C 454.5 352.827728 454.947723 352.380005 455.5 352.380005 Z"/>
        <path id="path26" fill="#ffffff" stroke="#dddddd" d="M 453.5 349.380005 L 621.5 349.380005 C 622.052307 349.380005 622.5 349.827728 622.5 350.380005 L 622.5 401.5 C 622.5 402.052277 622.052307 402.5 621.5 402.5 L 453.5 402.5 C 452.947723 402.5 452.5 402.052277 452.5 401.5 L 452.5 350.380005 C 452.5 349.827728 452.947723 349.380005 453.5 349.380005 Z"/>
        <path id="path27" fill="#5184f3" stroke="none" d="M 470.690002 395.380005 C 469.200012 395.380005 467.779999 394.579987 467.029999 393.089996 L 458.290009 377.790009 C 457.5 376.450012 457.630005 374.899994 458.290009 373.790009 L 467.109985 358.48999 C 467.859985 357.089996 469.190002 356.380005 470.549988 356.380005 L 488.25 356.380005 C 489.570007 356.380005 490.869995 357.029999 491.649994 358.329987 L 500.440002 373.619995 C 501.5 375.230011 501.140015 376.950012 500.540009 377.910004 L 491.799988 393.109985 C 491.209991 394.339996 489.890015 395.380005 488.190002 395.380005 Z"/>
        <path id="path28" fill="#000000" fill-opacity="0.07" stroke="none" d="M 484.790009 395.380005 L 470.600006 381.130005 L 471.630005 371.160004 L 479.48999 366.98999 L 488.23999 370.549988 L 498.690002 381.109985 L 491.799988 393.109985 C 491.220001 394.339996 489.890015 395.380005 488.190002 395.380005 Z"/>
        <path id="path29" fill="#ffffff" stroke="none" d="M 479.399994 384.369995 L 486.230011 380.390015 L 483.649994 378.859985 L 479.790009 381.059998 L 479.790009 376.109985 L 484.100006 373.549988 L 484.100006 377.980011 L 486.769989 379.5 L 486.769989 371.700012 L 479.970001 367.709991 L 479.970001 370.790009 L 483.779999 372.929993 L 479.420013 375.5 L 475.089996 372.940002 L 478.899994 370.769989 L 478.899994 367.700012 L 472.100006 371.700012 L 472.100006 379.48999 L 474.709991 377.920013 L 474.709991 373.519989 L 479.070007 376.109985 L 479.070007 381.089996 L 475.26001 378.859985 L 472.619995 380.420013 Z M 479.980011 386.01001 C 479.540009 386.25 479.100006 386.170013 478.619995 385.899994 L 470.899994 381.369995 C 470.459991 381.079987 470.380005 380.880005 470.380005 380.420013 L 470.380005 371.26001 C 470.380005 370.850006 470.519989 370.559998 470.920013 370.329987 L 478.679993 365.809998 C 479.230011 365.519989 479.700012 365.519989 480.209991 365.859985 L 488.019989 370.399994 C 488.399994 370.609985 488.470001 370.910004 488.470001 371.309998 L 488.470001 380.399994 C 488.470001 380.829987 488.290009 381.220001 487.950012 381.399994 Z"/>
        <g id="g9">
            <g id="g10">
                <text id="Worker" xml:space="preserve" x="507" y="369" font-family="Helvetica" font-size="12" fill="#999999">Worker...</text>
            </g>
        </g>
        <path id="path30" fill="none" stroke="#00cc00" d="M 451.130005 530.5 L 129.300003 530.5 L 129.330002 317.75"/>
        <path id="path31" fill="#00cc00" stroke="#00cc00" d="M 456.380005 530.5 L 449.380005 534 L 451.130005 530.5 L 449.380005 527 Z"/>
        <path id="path32" fill="#00cc00" stroke="#00cc00" d="M 129.330002 312.5 L 132.830002 319.5 L 129.330002 317.75 L 125.830002 319.5 Z"/>
        <path id="path33" fill="#000000" stroke="#000000" opacity="0.25" d="M 468.5 511.5 L 636.5 511.5 C 637.052307 511.5 637.5 511.947723 637.5 512.5 L 637.5 562.5 C 637.5 563.052307 637.052307 563.5 636.5 563.5 L 468.5 563.5 C 467.947723 563.5 467.5 563.052307 467.5 562.5 L 467.5 512.5 C 467.5 511.947723 467.947723 511.5 468.5 511.5 Z"/>
        <path id="path34" fill="#ffffff" stroke="#dddddd" d="M 466.5 508.5 L 634.5 508.5 C 635.052307 508.5 635.5 508.947723 635.5 509.5 L 635.5 559.5 C 635.5 560.052307 635.052307 560.5 634.5 560.5 L 466.5 560.5 C 465.947723 560.5 465.5 560.052307 465.5 559.5 L 465.5 509.5 C 465.5 508.947723 465.947723 508.5 466.5 508.5 Z"/>
        <path id="path35" fill="#000000" stroke="#000000" opacity="0.25" d="M 460.5 503.5 L 628.5 503.5 C 629.052307 503.5 629.5 503.947723 629.5 504.5 L 629.5 554.5 C 629.5 555.052307 629.052307 555.5 628.5 555.5 L 460.5 555.5 C 459.947723 555.5 459.5 555.052307 459.5 554.5 L 459.5 504.5 C 459.5 503.947723 459.947723 503.5 460.5 503.5 Z"/>
        <path id="path36" fill="#ffffff" stroke="#dddddd" d="M 458.5 500.5 L 626.5 500.5 C 627.052307 500.5 627.5 500.947723 627.5 501.5 L 627.5 551.5 C 627.5 552.052307 627.052307 552.5 626.5 552.5 L 458.5 552.5 C 457.947723 552.5 457.5 552.052307 457.5 551.5 L 457.5 501.5 C 457.5 500.947723 457.947723 500.5 458.5 500.5 Z"/>
        <path id="path37" fill="#5184f3" stroke="none" d="M 475.690002 546.5 C 474.200012 546.5 472.779999 545.700012 472.029999 544.210022 L 463.290009 528.909973 C 462.5 527.570007 462.630005 526.02002 463.290009 524.909973 L 472.109985 509.609985 C 472.859985 508.209991 474.190002 507.5 475.549988 507.5 L 493.25 507.5 C 494.570007 507.5 495.869995 508.149994 496.649994 509.450012 L 505.440002 524.73999 C 506.5 526.349976 506.140015 528.070007 505.540009 529.030029 L 496.799988 544.22998 C 496.209991 545.460022 494.890015 546.5 493.190002 546.5 Z"/>
        <path id="path38" fill="#000000" fill-opacity="0.07" stroke="none" d="M 489.790009 546.5 L 475.600006 532.25 L 476.630005 522.280029 L 484.48999 518.109985 L 493.23999 521.669983 L 503.690002 532.22998 L 496.799988 544.22998 C 496.220001 545.460022 494.890015 546.5 493.190002 546.5 Z"/>
        <path id="path39" fill="#ffffff" stroke="none" d="M 484.399994 535.48999 L 491.230011 531.51001 L 488.649994 529.97998 L 484.790009 532.179993 L 484.790009 527.22998 L 489.100006 524.669983 L 489.100006 529.099976 L 491.769989 530.619995 L 491.769989 522.820007 L 484.970001 518.830017 L 484.970001 521.909973 L 488.779999 524.049988 L 484.420013 526.619995 L 480.089996 524.059998 L 483.899994 521.890015 L 483.899994 518.820007 L 477.100006 522.820007 L 477.100006 530.609985 L 479.709991 529.039978 L 479.709991 524.640015 L 484.070007 527.22998 L 484.070007 532.210022 L 480.26001 529.97998 L 477.619995 531.539978 Z M 484.980011 537.130005 C 484.540009 537.369995 484.100006 537.289978 483.619995 537.02002 L 475.899994 532.48999 C 475.459991 532.200012 475.380005 532 475.380005 531.539978 L 475.380005 522.380005 C 475.380005 521.969971 475.519989 521.679993 475.920013 521.450012 L 483.679993 516.929993 C 484.230011 516.640015 484.700012 516.640015 485.209991 516.97998 L 493.019989 521.52002 C 493.399994 521.72998 493.470001 522.030029 493.470001 522.429993 L 493.470001 531.52002 C 493.470001 531.950012 493.290009 532.340027 492.950012 532.52002 Z"/>
        <g id="g11">
            <g id="g12">
                <text id="WebServe" xml:space="preserve" x="512" y="520" font-family="Helvetica" font-size="12" fill="#999999">WebServe...</text>
            </g>
        </g>
        <path id="path40" fill="none" stroke="#000000" d="M 546.5 643.5 L 546.5 566.869995"/>
        <path id="path41" fill="#000000" stroke="#000000" d="M 546.5 561.619995 L 550 568.619995 L 546.5 566.869995 L 543 568.619995 Z"/>
        <path id="path42" fill="#000000" stroke="#000000" opacity="0.25" d="M 484.5 646.5 L 612.5 646.5 C 613.052307 646.5 613.5 646.947693 613.5 647.5 L 613.5 689.5 C 613.5 690.052307 613.052307 690.5 612.5 690.5 L 484.5 690.5 C 483.947723 690.5 483.5 690.052307 483.5 689.5 L 483.5 647.5 C 483.5 646.947693 483.947723 646.5 484.5 646.5 Z"/>
        <path id="path43" fill="#ffffff" stroke="#dddddd" d="M 482.5 643.5 L 610.5 643.5 C 611.052307 643.5 611.5 643.947693 611.5 644.5 L 611.5 686.5 C 611.5 687.052307 611.052307 687.5 610.5 687.5 L 482.5 687.5 C 481.947723 687.5 481.5 687.052307 481.5 686.5 L 481.5 644.5 C 481.5 643.947693 481.947723 643.5 482.5 643.5 Z"/>
        <path id="path44" fill="#757575" stroke="none" d="M 502.540009 681.5 C 493.859985 681.5 486.5 674.72998 486.5 665.390015 C 486.5 656.340027 494.040009 649.5 502.51001 649.5 C 511.299988 649.5 518.5 657.169983 518.5 665.419983 C 518.5 674.130005 511.410004 681.5 502.540009 681.5 Z"/>
        <path id="path45" fill="#ffffff" stroke="none" d="M 493.320007 673.76001 L 493.320007 668.450012 L 496.279999 668.450012 L 496.279999 665.530029 C 496.279999 664.869995 496.769989 664.429993 497.540009 664.429993 L 501.359985 664.429993 L 501.359985 662.690002 L 498.320007 662.690002 L 498.320007 657.409973 L 506.670013 657.409973 L 506.670013 662.690002 L 503.660004 662.690002 L 503.660004 664.429993 L 507.230011 664.429993 C 508.149994 664.429993 508.679993 665.030029 508.679993 665.880005 L 508.679993 668.450012 L 511.619995 668.450012 L 511.619995 673.76001 L 504.339996 673.76001 L 504.339996 668.450012 L 506.390015 668.450012 L 506.390015 666.75 L 498.579987 666.75 L 498.579987 668.450012 L 500.630005 668.450012 L 500.630005 673.76001 Z"/>
        <g id="g13">
            <g id="g14">
                <text id="HTTPS" xml:space="preserve" x="524" y="671" font-family="Helvetica" font-size="12" fill="#000000">HTTPS...</text>
            </g>
        </g>
        <path id="path46" fill="none" stroke="#ff00ff" d="M 633.5 67.27002 L 841.5 67.299988 L 845.130005 67.369995"/>
        <path id="path47" fill="#ff00ff" stroke="#ff00ff" d="M 850.380005 67.47998 L 843.309998 70.839966 L 845.130005 67.369995 L 843.450012 63.840027 Z"/>
        <path id="path48" fill="none" stroke="#00cc00" d="M 129.330002 207.27002 L 129.300003 65.5 L 445.130005 65.5"/>
        <path id="path49" fill="#00cc00" stroke="#00cc00" d="M 129.330002 212.52002 L 127 205.52002 L 129.330002 207.27002 L 131.660004 205.52002 Z"/>
        <path id="path50" fill="#00cc00" stroke="#00cc00" d="M 450.380005 65.5 L 443.380005 69 L 445.130005 65.5 L 443.380005 62 Z"/>
        <path id="path51" fill="none" stroke="#00cc00" d="M 220.869995 238.070007 L 445.130005 238.059998"/>
        <path id="path52" fill="#00cc00" stroke="#00cc00" d="M 215.619995 238.070007 L 222.619995 234.570007 L 220.869995 238.070007 L 222.619995 241.570007 Z"/>
        <path id="path53" fill="#00cc00" stroke="#00cc00" d="M 450.380005 238.059998 L 443.380005 241.559998 L 445.130005 238.059998 L 443.380005 234.559998 Z"/>
        <path id="path54" fill="none" stroke="#000000" stroke-width="2" stroke-dasharray="2 6" stroke-dashoffset="0" d="M 1.5 460.5 L 1081.5 460.5"/>
        <path id="path55" fill="#dae8fc" stroke="#6c8ebf" d="M 821.5 191.76001 L 989.840027 191.76001 C 990.392273 191.76001 990.840027 192.207703 990.840027 192.76001 L 990.840027 288.5 C 990.840027 289.052277 990.392273 289.5 989.840027 289.5 L 821.5 289.5 C 820.947693 289.5 820.5 289.052277 820.5 288.5 L 820.5 192.76001 C 820.5 192.207703 820.947693 191.76001 821.5 191.76001 Z"/>
        <path id="path56" fill="#5184f3" stroke="none" d="M 895.23999 257.059998 C 893.289978 257.059998 891.409973 255.97998 890.429993 253.950012 L 878.929993 233.220001 C 877.890015 231.410004 878.059998 229.299988 878.929993 227.789978 L 890.530029 207.059998 C 891.51001 205.169983 893.27002 204.200012 895.059998 204.200012 L 918.349976 204.200012 C 920.080017 204.200012 921.799988 205.080017 922.820007 206.850006 L 934.380005 227.570007 C 935.780029 229.75 935.299988 232.080017 934.51001 233.380005 L 923.01001 253.97998 C 922.25 255.649994 920.51001 257.059998 918.27002 257.059998 Z"/>
        <path id="path57" fill="#000000" fill-opacity="0.07" stroke="none" d="M 916.559998 257.059998 L 897.02002 236.919983 L 900.130005 232.140015 L 897.02002 229.359985 L 916.47998 224.369995 L 931.119995 239.460022 L 923.01001 253.97998 C 922.25 255.649994 920.51001 257.059998 918.27002 257.059998 Z"/>
        <path id="path58" fill="#ffffff" stroke="none" d="M 913.200012 227.839996 C 913.719971 227.839996 914.099976 227.380005 914.099976 226.839996 C 914.099976 226.049988 913.640015 225.779999 913.219971 225.779999 C 912.5 225.779999 912.150024 226.23999 912.150024 226.779999 C 912.150024 227.410004 912.590027 227.839996 913.200012 227.839996 Z M 897.390015 229.539978 C 897.140015 229.539978 896.830017 229.27002 896.830017 229 L 896.830017 224.839996 C 896.830017 224.359985 897.119995 224.190002 897.650024 224.190002 L 915.929993 224.190002 C 916.369995 224.190002 916.650024 224.289978 916.650024 224.919983 L 916.650024 228.76001 C 916.650024 229.179993 916.429993 229.539978 915.919983 229.539978 Z M 913.150024 235.48999 C 913.690002 235.48999 914.140015 234.960022 914.140015 234.440002 C 914.140015 233.850006 913.799988 233.410004 913.159973 233.410004 C 912.559998 233.410004 912.140015 233.77002 912.140015 234.450012 C 912.140015 234.929993 912.549988 235.48999 913.150024 235.48999 Z M 897.580017 237.089996 C 897.099976 237.089996 896.830017 236.839996 896.830017 236.460022 L 896.830017 232.399994 C 896.830017 232.01001 897.080017 231.75 897.570007 231.75 L 915.76001 231.75 C 916.409973 231.75 916.650024 231.929993 916.650024 232.559998 L 916.650024 236.089996 C 916.650024 236.72998 916.409973 237.089996 915.820007 237.089996 Z"/>
        <g id="g15">
            <g id="g16">
                <text id="Internal-Storage" xml:space="preserve" x="862.129639" y="283" font-family="Helvetica" font-size="11" font-weight="700" fill="#999999">Internal Storage</text>
            </g>
        </g>
        <path id="path59" fill="none" stroke="#4284f3" d="M 635.5 515.5 L 741.5 515.5 L 741.5 265.100006 L 814.380005 265.070007"/>
        <path id="path60" fill="#4284f3" stroke="#4284f3" d="M 819.380005 265.070007 L 814.380005 266.730011 L 814.380005 263.399994 Z"/>
        <path id="path61" fill="none" stroke="#4284f3" d="M 630.5 379.940002 L 725.5 379.899994 L 725.5 240.600006 L 814.380005 240.630005"/>
        <path id="path62" fill="#4284f3" stroke="#4284f3" d="M 819.380005 240.630005 L 814.380005 242.289978 L 814.380005 238.960022 Z"/>
        <path id="path63" fill="none" stroke="#4284f3" d="M 633.5 83.890015 L 727 83.900024 L 727 216.200012 L 814.380005 216.200012"/>
        <path id="path64" fill="#4284f3" stroke="#4284f3" d="M 819.380005 216.200012 L 814.380005 217.859985 L 814.380005 214.529999 Z"/>
    </g>
    <g id="g17">
        <g id="g18">
            <text id="Text-is-not-SVG" xml:space="preserve" x="475.523926" y="688" font-family="Times New Roman" font-size="10" fill="#000000">Text is not SVG - cannot display</text>
        </g>
    </g>
</svg>
