<svg width="604" height="450" viewBox="0 0 604 450" fill="none" xmlns="http://www.w3.org/2000/svg">
<g clip-path="url(#clip0_22995_118855)">
<circle data-figma-bg-blur-radius="46.306" cx="132.321" cy="132.321" r="131.154" transform="matrix(1.12678 -0.277104 0.479958 0.650549 -12.3125 110.001)" fill="black" fill-opacity="0.08" stroke="url(#paint0_linear_22995_118855)" stroke-width="2.33529" stroke-linejoin="round" stroke-dasharray="9.93 12.16"/>
<g filter="url(#filter1_d_22995_118855)">
<path d="M287.401 108.068C299.214 114.888 308.126 122.748 314.137 131.136L315.456 130.82C328.064 148.414 328.064 168.309 315.456 185.902L314.137 185.588C308.126 193.976 299.215 201.836 287.402 208.656C275.588 215.477 261.974 220.621 247.446 224.092L247.991 224.853C217.518 232.132 183.06 232.132 152.587 224.853L153.132 224.092C138.604 220.621 124.99 215.477 113.177 208.656C101.363 201.836 92.4524 193.976 86.4414 185.588L85.122 185.902C72.5144 168.309 72.5139 148.414 85.1221 130.82L86.4414 131.136C92.2646 123.01 100.809 115.38 112.078 108.71L113.177 108.068C124.991 101.247 138.604 96.1023 153.132 92.6318L152.587 91.8696C183.06 84.5906 217.519 84.5906 247.991 91.8696L247.446 92.6318C261.974 96.1023 275.587 101.247 287.401 108.068Z" stroke="#5F00E8" stroke-width="2.33529" stroke-linejoin="round" stroke-dasharray="56.05 56.05" shape-rendering="crispEdges"/>
</g>
<g filter="url(#filter2_d_22995_118855)">
<path d="M147.743 180.358C133.86 172.343 126.06 161.472 126.06 150.137C126.06 138.802 133.86 127.931 147.743 119.916L200.092 89.6949L252.441 119.916C266.325 127.931 274.124 138.802 274.124 150.137C274.124 161.472 266.325 172.343 252.441 180.358C238.557 188.373 219.727 192.876 200.092 192.876C180.457 192.876 161.627 188.373 147.743 180.358V180.358Z" fill="#0A41CF"/>
</g>
<path d="M303.239 97.3711L200.804 155.906L97.1416 97.3711L200.805 36.3975L303.239 97.3711Z" fill="#6400CA" stroke="url(#paint1_linear_22995_118855)" stroke-width="1.34744"/>
<path d="M200.301 156.391V220.992L96.4648 159.783V97.0044L200.301 156.391Z" fill="#4A0292"/>
<path d="M200.094 155.549V220.259L304.791 159.84V97.1299L200.094 155.549Z" fill="#3C0077"/>
<path d="M205.509 90.4871C208.046 90.4871 210.102 91.6742 210.102 93.1386L210.102 99.158C210.102 100.622 208.046 101.809 205.509 101.809L195.083 101.809C192.547 101.809 190.491 100.622 190.491 99.158L190.491 93.1386C190.491 91.6742 192.547 90.4871 195.083 90.4871L205.509 90.4871Z" fill="#A950FF"/>
<path d="M229.561 104.325C232.052 104.325 234.071 105.491 234.071 106.929L234.071 113.044C234.071 114.482 232.052 115.648 229.561 115.648L218.971 115.648C216.48 115.648 214.46 114.482 214.46 113.044L214.46 106.929C214.46 105.491 216.48 104.325 218.971 104.325L229.561 104.325Z" fill="#A950FF"/>
<path d="M229.56 76.6487C232.051 76.6487 234.071 77.8146 234.071 79.2527L234.071 85.367C234.071 86.8052 232.051 87.9711 229.56 87.9711L218.97 87.9711C216.479 87.9711 214.46 86.8052 214.46 85.367L214.46 79.2527C214.46 77.8146 216.479 76.6487 218.97 76.6487L229.56 76.6487Z" fill="#E9C1FF"/>
<path d="M210.103 85.3203C210.103 86.7847 208.047 87.9718 205.51 87.9718L195.084 87.9718C192.548 87.9718 190.492 86.7846 190.492 85.3203L190.492 79.3009C190.492 77.8365 192.548 76.6494 195.084 76.6494L205.51 76.6494C208.047 76.6494 210.103 77.8365 210.103 79.3009L210.103 85.3203Z" fill="#CD88FF"/>
<path d="M186.134 85.367C186.134 86.8052 184.115 87.9711 181.624 87.9711L171.033 87.9711C168.542 87.9711 166.523 86.8052 166.523 85.367L166.523 79.2527C166.523 77.8146 168.542 76.6487 171.033 76.6487L181.624 76.6487C184.115 76.6487 186.134 77.8146 186.134 79.2527L186.134 85.367Z" fill="#A950FF"/>
<path d="M234.071 99.1583C234.071 100.623 232.015 101.81 229.478 101.81L219.052 101.81C216.516 101.81 214.46 100.623 214.46 99.1583L214.46 93.1388C214.46 91.6745 216.516 90.4874 219.052 90.4874L229.478 90.4874C232.015 90.4874 234.071 91.6745 234.071 93.1388L234.071 99.1583Z" fill="#CD88FF"/>
<path d="M185.471 110.632C185.471 113.903 180.877 116.555 175.211 116.555C169.545 116.555 164.951 113.903 164.951 110.632C164.951 107.36 169.545 104.708 175.211 104.708C180.877 104.708 185.471 107.36 185.471 110.632Z" fill="#F62E76"/>

<path d="M307.758 226.634L353.005 251.47L312.656 274.649L349.603 295.209" stroke="url(#paint2_linear_22995_118855)" stroke-width="2.10482" stroke-linejoin="round"/>
<path d="M435.578 290.69C435.883 290.563 436.234 290.585 436.522 290.757L539.917 352.301C540.238 352.492 540.434 352.841 540.431 353.215C540.427 353.589 540.225 353.933 539.9 354.119L436.506 413.201C436.184 413.385 435.79 413.386 435.467 413.204L330.834 354.121C330.506 353.936 330.302 353.59 330.299 353.214C330.296 352.838 330.494 352.489 330.818 352.298L435.45 290.754L435.578 290.69Z" stroke="#919191" stroke-opacity="0.07" stroke-width="2.10482" stroke-linejoin="round"/>
<path d="M434.886 331.355L434.886 395.956L331.051 334.747L331.051 271.968L434.886 331.355Z" fill="#0F0C16"/>
<path d="M434.68 330.513L434.68 395.223L539.377 334.804L539.377 272.094L434.68 330.513Z" fill="black"/>
<path d="M537.829 272.335L435.394 330.87L331.731 272.335L435.395 211.361L537.829 272.335Z" fill="#211B2C" stroke="#2369BC" stroke-width="1.34744"/>
<g clip-path="url(#clip2_22995_118855)">
<path fill-rule="evenodd" clip-rule="evenodd" d="M450.581 282.465C433.202 292.499 409.676 295.186 398.037 288.465C386.397 281.745 391.05 268.163 408.43 258.129C425.81 248.094 449.335 245.408 460.975 252.128C472.614 258.848 467.961 272.431 450.581 282.465ZM421.487 260.105C408.277 267.732 404.018 277.639 411.976 282.233C419.933 286.828 437.093 284.369 450.303 276.742C463.513 269.115 468.852 260.941 458.854 255.168C448.859 249.398 434.697 252.478 421.487 260.105Z" fill="url(#paint3_linear_22995_118855)"/>
<path fill-rule="evenodd" clip-rule="evenodd" d="M457.53 267.474C457.53 267.474 460.009 266.706 461.676 266.391C462.254 266.281 463.306 266.121 464.294 266.139C465.262 266.155 465.996 266.315 465.996 266.315L486.158 269.288L474.031 276.296L457.704 273.42C457.704 273.42 454.547 272.939 453.253 273.017C452.174 273.083 451.748 273.13 451.158 273.471C450.748 273.708 448.276 275.135 448.276 275.135L462.153 283.145L451.422 289.345L415.978 268.882L437.537 256.435C437.537 256.435 447.533 250.868 456.875 256.262C466.217 261.655 457.53 267.474 457.53 267.474ZM440.992 263.318L434.489 267.068L440.512 270.549L447.013 266.794C447.013 266.794 450.014 265.05 446.958 263.285C443.84 261.485 440.992 263.318 440.992 263.318Z" fill="url(#paint4_linear_22995_118855)"/>
</g>
</g>
<defs>
<clipPath id="bgblur_1_22995_118855_clip_path" transform="translate(8.11455 -19.5207)"><circle cx="132.321" cy="132.321" r="131.154" transform="matrix(1.12678 -0.277104 0.479958 0.650549 -12.3125 110.001)"/>
</clipPath><filter id="filter1_d_22995_118855" x="68.6582" y="86.4097" width="263.262" height="157.917" filterUnits="userSpaceOnUse" color-interpolation-filters="sRGB">
<feFlood flood-opacity="0" result="BackgroundImageFix"/>
<feColorMatrix in="SourceAlpha" type="matrix" values="0 0 0 0 0 0 0 0 0 0 0 0 0 0 0 0 0 0 127 0" result="hardAlpha"/>
<feOffset dy="7.00587"/>
<feGaussianBlur stdDeviation="3.50293"/>
<feComposite in2="hardAlpha" operator="out"/>
<feColorMatrix type="matrix" values="0 0 0 0 0.432266 0 0 0 0 0.00354165 0 0 0 0 0.846458 0 0 0 1 0"/>
<feBlend mode="screen" in2="BackgroundImageFix" result="effect1_dropShadow_22995_118855"/>
<feBlend mode="normal" in="SourceGraphic" in2="effect1_dropShadow_22995_118855" result="shape"/>
</filter>
<filter id="filter2_d_22995_118855" x="24.5959" y="-3.32905" width="350.992" height="306.106" filterUnits="userSpaceOnUse" color-interpolation-filters="sRGB">
<feFlood flood-opacity="0" result="BackgroundImageFix"/>
<feColorMatrix in="SourceAlpha" type="matrix" values="0 0 0 0 0 0 0 0 0 0 0 0 0 0 0 0 0 0 127 0" result="hardAlpha"/>
<feOffset dy="8.4388"/>
<feGaussianBlur stdDeviation="50.7313"/>
<feComposite in2="hardAlpha" operator="out"/>
<feColorMatrix type="matrix" values="0 0 0 0 0.506336 0 0 0 0 0.118457 0 0 0 0 1 0 0 0 1 0"/>
<feBlend mode="soft-light" in2="BackgroundImageFix" result="effect1_dropShadow_22995_118855"/>
<feBlend mode="normal" in="SourceGraphic" in2="effect1_dropShadow_22995_118855" result="shape"/>
</filter>
<filter id="filter3_f_22995_118855" x="-26.2545" y="-52.8282" width="297.892" height="297.892" filterUnits="userSpaceOnUse" color-interpolation-filters="sRGB">
<feFlood flood-opacity="0" result="BackgroundImageFix"/>
<feBlend mode="normal" in="SourceGraphic" in2="BackgroundImageFix" result="shape"/>
<feGaussianBlur stdDeviation="49.4632" result="effect1_foregroundBlur_22995_118855"/>
</filter>
<linearGradient id="paint0_linear_22995_118855" x1="39.8724" y1="49.1293" x2="260.202" y2="269.094" gradientUnits="userSpaceOnUse">
<stop offset="0.015625" stop-color="#B010FB"/>
<stop offset="0.130208" stop-color="#DE97FF"/>
<stop offset="0.234375" stop-color="#A227DB"/>
<stop offset="0.505208" stop-color="#A227DB" stop-opacity="0"/>
<stop offset="0.765625" stop-color="#A610EC" stop-opacity="0.84"/>
</linearGradient>
<linearGradient id="paint1_linear_22995_118855" x1="127.249" y1="58.0904" x2="214.801" y2="208.827" gradientUnits="userSpaceOnUse">
<stop offset="0.015625" stop-color="#B010FB"/>
<stop offset="0.130208" stop-color="#DE97FF"/>
<stop offset="0.234375" stop-color="#A227DB"/>
<stop offset="0.505208" stop-color="#A227DB" stop-opacity="0"/>
<stop offset="0.765625" stop-color="#A610EC" stop-opacity="0.84"/>
</linearGradient>
<linearGradient id="paint2_linear_22995_118855" x1="325.757" y1="276.398" x2="360.34" y2="293.926" gradientUnits="userSpaceOnUse">
<stop stop-color="#800CC0"/>
<stop offset="1" stop-color="#D4CCCC"/>
</linearGradient>
<linearGradient id="paint3_linear_22995_118855" x1="376.961" y1="276.297" x2="481.343" y2="299.659" gradientUnits="userSpaceOnUse">
<stop stop-color="#CBCED0"/>
<stop offset="1" stop-color="#84838B"/>
</linearGradient>
<linearGradient id="paint4_linear_22995_118855" x1="415.978" y1="268.882" x2="486.135" y2="267.654" gradientUnits="userSpaceOnUse">
<stop stop-color="#276DC3"/>
<stop offset="1" stop-color="#165CAA"/>
</linearGradient>
<clipPath id="clip0_22995_118855">
<rect width="603.494" height="450" fill="white"/>
</clipPath>
<clipPath id="clip2_22995_118855">
<rect width="101.999" height="101.999" fill="white" transform="matrix(0.866025 -0.5 0.866025 0.5 344.492 272.094)"/>
</clipPath>
</defs>
</svg>
