<svg width="367" height="236" viewBox="0 0 367 236" fill="none" xmlns="http://www.w3.org/2000/svg">
<rect x="-0.545442" y="-0.545442" width="367.628" height="236.889" rx="8.54544" fill="#161617" stroke="#252526" stroke-width="1.09088"/>
<g filter="url(#filter0_f_88_548)">
<rect width="74.1499" height="93.1667" transform="matrix(-1 0 0 1 153.116 50.5117)" fill="url(#paint0_linear_88_548)"/>
</g>
<path d="M155.056 124.711L117.828 145.876" stroke="url(#paint1_linear_88_548)" stroke-width="0.887811" stroke-linejoin="round"/>
<path d="M239.291 142.233L209.761 123.695" stroke="url(#paint2_linear_88_548)" stroke-width="0.887811" stroke-linecap="round" stroke-linejoin="round"/>
<path d="M184.036 136.213L227.174 111.024L183.675 86.3594L140.076 111.468L184.036 136.213Z" stroke="#CD88FF" stroke-width="0.443906" stroke-linecap="round" stroke-linejoin="round" stroke-dasharray="1.62 1.62"/>
<g filter="url(#filter1_d_88_548)">
<path d="M160.806 112.818C154.95 109.437 151.66 104.851 151.66 100.07C151.66 95.2892 154.95 90.7039 160.806 87.3231L182.887 74.5759L204.967 87.3231C210.824 90.7039 214.114 95.2892 214.114 100.07C214.114 104.851 210.824 109.437 204.967 112.818C199.111 116.198 191.169 118.098 182.887 118.098C174.605 118.098 166.662 116.198 160.806 112.818V112.818Z" fill="#0ACF83"/>
</g>
<path d="M226.395 77.8144L183.187 102.504L139.462 77.8144L183.187 52.0958L226.395 77.8144Z" fill="#6400CA" stroke="url(#paint3_linear_88_548)" stroke-width="0.568349"/>
<path d="M182.973 102.709L182.973 129.958L139.175 104.14L139.175 77.6602L182.973 102.709Z" fill="#4A0292"/>
<path d="M182.887 102.352L182.887 129.647L227.049 104.162L227.049 77.7109L182.887 102.352Z" fill="#3C0077"/>
<path d="M178.952 75.9767C178.952 75.359 179.82 74.8583 180.889 74.8583L185.287 74.8583C186.357 74.8583 187.224 75.359 187.224 75.9767L187.224 78.5157C187.224 79.1334 186.357 79.6341 185.287 79.6341L180.889 79.6341C179.82 79.6341 178.952 79.1334 178.952 78.5157L178.952 75.9767Z" fill="#A950FF"/>
<path d="M189.062 70.1195C189.062 69.5129 189.914 69.0211 190.965 69.0211L195.432 69.0211C196.482 69.0211 197.334 69.5129 197.334 70.1195L197.334 72.6985C197.334 73.3051 196.482 73.7969 195.432 73.7969L190.965 73.7969C189.914 73.7969 189.062 73.3051 189.062 72.6985L189.062 70.1195Z" fill="#A950FF"/>
<path d="M168.842 70.1197C168.842 69.5131 169.694 69.0213 170.745 69.0213L175.212 69.0213C176.262 69.0213 177.114 69.5131 177.114 70.1197L177.114 72.6987C177.114 73.3053 176.262 73.7971 175.212 73.7971L170.745 73.7971C169.694 73.7971 168.842 73.3053 168.842 72.6987L168.842 70.1197Z" fill="#E9C1FF"/>
<path d="M175.178 74.8581C176.247 74.8581 177.115 75.3588 177.115 75.9765L177.115 78.5155C177.115 79.1331 176.247 79.6339 175.178 79.6339L170.78 79.6339C169.71 79.6339 168.843 79.1331 168.843 78.5155L168.843 75.9765C168.843 75.3588 169.71 74.8581 170.78 74.8581L175.178 74.8581Z" fill="#CD88FF"/>
<path d="M175.212 80.6951C176.262 80.6951 177.114 81.1869 177.114 81.7935L177.114 84.3725C177.114 84.9791 176.262 85.4709 175.212 85.4709L170.745 85.4709C169.694 85.4709 168.842 84.9791 168.842 84.3725L168.842 81.7935C168.842 81.1869 169.694 80.6951 170.745 80.6951L175.212 80.6951Z" fill="#A950FF"/>
<path d="M185.287 69.0212C186.357 69.0212 187.224 69.522 187.224 70.1396L187.224 72.6786C187.224 73.2963 186.357 73.797 185.287 73.797L180.89 73.797C179.82 73.797 178.953 73.2963 178.953 72.6786L178.953 70.1396C178.953 69.522 179.82 69.0212 180.89 69.0212L185.287 69.0212Z" fill="#CD88FF"/>
<path d="M193.67 80.8566C196.06 80.8566 197.997 81.9752 197.997 83.3552C197.997 84.7351 196.06 85.8537 193.67 85.8537C191.279 85.8537 189.342 84.7351 189.342 83.3552C189.342 81.9752 191.279 80.8566 193.67 80.8566Z" fill="#F62E76"/>
<g filter="url(#filter2_f_88_548)">
<circle cx="150.24" cy="77.2857" r="21.0982" fill="white" fill-opacity="0.05" style="mix-blend-mode:lighten"/>
</g>
<g filter="url(#filter3_f_88_548)">
<circle cx="222.416" cy="81.7349" r="21.0982" fill="white" fill-opacity="0.05" style="mix-blend-mode:lighten"/>
</g>
<path d="M121.42 156.01C121.42 159.094 119.231 162.007 115.426 164.185C111.639 166.353 106.366 167.714 100.507 167.714C94.6474 167.714 89.3738 166.353 85.5868 164.185C81.7822 162.007 79.5934 159.094 79.5934 156.01C79.5934 152.927 81.7822 150.014 85.5868 147.836C89.3738 145.668 94.6474 144.307 100.507 144.307C106.366 144.307 111.639 145.668 115.426 147.836C119.231 150.014 121.42 152.927 121.42 156.01Z" stroke="#5F2FCB" stroke-width="1.25459"/>
<path fill-rule="evenodd" clip-rule="evenodd" d="M100.507 159.204C112.403 159.204 122.047 153.684 122.047 146.874C122.047 146.873 122.047 146.873 122.047 146.872L122.047 136.977L113.357 136.977C109.77 135.448 105.323 134.543 100.507 134.543C95.6904 134.543 91.2435 135.448 87.6562 136.977L78.9661 136.977L78.9661 146.872C78.9661 146.873 78.9661 146.873 78.9661 146.874C78.9661 153.684 88.6101 159.204 100.507 159.204Z" fill="#5506D7"/>
<ellipse cx="100.507" cy="136.217" rx="21.5405" ry="12.3307" fill="#3B009B"/>
<path fill-rule="evenodd" clip-rule="evenodd" d="M100.507 145.232C112.403 145.232 122.047 139.711 122.047 132.901C122.047 132.9 122.047 132.9 122.047 132.899L122.047 123.004L113.357 123.004C109.77 121.475 105.323 120.57 100.507 120.57C95.6904 120.57 91.2435 121.475 87.6562 123.004L78.9661 123.004L78.9661 132.899C78.9661 132.9 78.9661 132.9 78.9661 132.901C78.9661 139.711 88.6101 145.232 100.507 145.232Z" fill="#5506D7"/>
<ellipse cx="100.507" cy="122.245" rx="21.5405" ry="12.3307" fill="#3B009B"/>
<path fill-rule="evenodd" clip-rule="evenodd" d="M100.507 131.306C112.403 131.306 122.047 125.785 122.047 118.975C122.047 118.975 122.047 118.974 122.047 118.974L122.047 109.078L113.357 109.078C109.77 107.549 105.323 106.645 100.507 106.645C95.6904 106.645 91.2435 107.549 87.6562 109.078L78.9661 109.078L78.9661 118.974C78.9661 118.974 78.9661 118.975 78.9661 118.975C78.9661 125.785 88.6101 131.306 100.507 131.306Z" fill="#660BFA"/>
<ellipse cx="100.507" cy="108.319" rx="21.5405" ry="12.3307" fill="#8C49FA"/>
<g style="mix-blend-mode:multiply" filter="url(#filter4_f_88_548)">
<circle cx="96.7762" cy="146.872" r="21.0982" fill="#9C84FF" style="mix-blend-mode:lighten"/>
</g>
<path d="M287.656 157.979C287.656 161.062 285.467 163.976 281.662 166.154C277.875 168.322 272.602 169.683 266.743 169.683C260.884 169.683 255.61 168.322 251.823 166.154C248.018 163.976 245.829 161.062 245.829 157.979C245.829 154.896 248.018 151.982 251.823 149.804C255.61 147.637 260.883 146.276 266.743 146.276C272.602 146.276 277.875 147.637 281.662 149.804C285.467 151.982 287.656 154.896 287.656 157.979Z" stroke="#5F2FCB" stroke-width="1.25459"/>
<path fill-rule="evenodd" clip-rule="evenodd" d="M266.743 161.173C278.639 161.173 288.283 155.652 288.283 148.842C288.283 148.842 288.283 148.841 288.283 148.841L288.283 138.945L279.593 138.945C276.006 137.416 271.559 136.512 266.743 136.512C261.927 136.512 257.48 137.416 253.892 138.945L245.202 138.945L245.202 148.841C245.202 148.841 245.202 148.842 245.202 148.842C245.202 155.652 254.846 161.173 266.743 161.173Z" fill="#5506D7"/>
<ellipse cx="266.743" cy="138.186" rx="21.5405" ry="12.3307" fill="#3B009B"/>
<path fill-rule="evenodd" clip-rule="evenodd" d="M266.743 147.2C278.639 147.2 288.283 141.68 288.283 134.87C288.283 134.869 288.283 134.869 288.283 134.868L288.283 124.973L279.593 124.973C276.006 123.444 271.559 122.539 266.743 122.539C261.927 122.539 257.48 123.444 253.892 124.973L245.202 124.973L245.202 134.868C245.202 134.869 245.202 134.869 245.202 134.87C245.202 141.68 254.846 147.2 266.743 147.2Z" fill="#5506D7"/>
<ellipse cx="266.743" cy="124.214" rx="21.5405" ry="12.3307" fill="#3B009B"/>
<path d="M245.202 129.543L245.26 131.339C245.295 132.438 246.062 133.32 247.017 133.36L248.624 133.428L247.017 133.495C246.062 133.535 245.295 134.417 245.26 135.516L245.202 137.312L245.144 135.516C245.109 134.417 244.342 133.535 243.387 133.495L241.779 133.428L243.387 133.36C244.342 133.32 245.109 132.438 245.144 131.339L245.202 129.543Z" fill="white"/>
<path fill-rule="evenodd" clip-rule="evenodd" d="M266.743 133.275C278.639 133.275 288.283 127.754 288.283 120.944C288.283 120.943 288.283 120.943 288.283 120.942L288.283 111.047L279.593 111.047C276.006 109.518 271.559 108.613 266.743 108.613C261.927 108.613 257.48 109.518 253.892 111.047L245.202 111.047L245.202 120.942C245.202 120.943 245.202 120.943 245.202 120.944C245.202 127.754 254.846 133.275 266.743 133.275Z" fill="#660BFA"/>
<ellipse cx="266.743" cy="110.288" rx="21.5405" ry="12.3307" fill="#8C49FA"/>
<g style="mix-blend-mode:soft-light" clip-path="url(#clip0_88_548)">
<path d="M263.008 108.206L266.742 110.362L271.799 109.616L271.418 108.732L267.228 109.349L264.128 107.559L263.008 108.206ZM271.971 104.757L266.742 101.738L266.742 104.015C264.315 104.01 261.88 104.545 260.02 105.619C256.308 107.762 256.308 111.238 260.02 113.381C263.732 115.524 269.752 115.524 273.464 113.381C277.176 111.238 277.176 107.762 273.464 105.619L271.971 106.481C274.854 108.146 274.854 110.854 271.971 112.519C269.087 114.183 264.397 114.183 261.514 112.519C258.631 110.854 258.631 108.146 261.514 106.481C262.955 105.649 264.852 105.235 266.742 105.231L266.742 107.775L271.971 104.757Z" fill="white"/>
</g>
<g style="mix-blend-mode:soft-light" clip-path="url(#clip1_88_548)">
<path d="M263.008 108.206L266.742 110.362L271.799 109.616L271.418 108.732L267.228 109.349L264.128 107.559L263.008 108.206ZM271.971 104.757L266.742 101.738L266.742 104.015C264.315 104.01 261.88 104.545 260.02 105.619C256.308 107.762 256.308 111.238 260.02 113.381C263.732 115.524 269.752 115.524 273.464 113.381C277.176 111.238 277.176 107.762 273.464 105.619L271.971 106.481C274.854 108.146 274.854 110.854 271.971 112.519C269.087 114.183 264.397 114.183 261.514 112.519C258.631 110.854 258.631 108.146 261.514 106.481C262.955 105.649 264.852 105.235 266.742 105.231L266.742 107.775L271.971 104.757Z" fill="white"/>
</g>
<path d="M283.112 114.504L283.17 116.3C283.205 117.399 283.972 118.281 284.927 118.321L286.535 118.389L284.927 118.456C283.972 118.496 283.205 119.378 283.17 120.477L283.112 122.273L283.054 120.477C283.019 119.378 282.252 118.496 281.297 118.456L279.689 118.389L281.297 118.321C282.252 118.281 283.019 117.399 283.054 116.3L283.112 114.504Z" fill="white"/>
<g style="mix-blend-mode:multiply" filter="url(#filter5_f_88_548)">
<circle cx="263.012" cy="148.84" r="21.0982" fill="#9C84FF" style="mix-blend-mode:lighten"/>
</g>
<g opacity="0.4" filter="url(#filter6_b_88_548)">
<path fill-rule="evenodd" clip-rule="evenodd" d="M157.531 77.8895L163.845 81.5351L144.819 92.5198L125.876 81.5831L132.218 77.9215L138.564 81.5853C136.663 73.8239 140.902 65.6163 151.272 59.6297C166.619 50.7687 190.259 49.661 207.605 56.2703L201.073 60.0417C187.39 55.4007 169.382 56.4647 157.586 63.2752C148.231 68.6761 145.133 76.3342 148.303 83.2171L157.531 77.8895ZM208.156 77.8261L201.842 74.1805L220.868 63.1958L239.811 74.1325L233.469 77.7941L227.123 74.1303C229.024 81.8917 224.784 90.0993 214.415 96.0859C199.068 104.947 175.428 106.055 158.082 99.4453L164.614 95.6739C178.297 100.315 196.305 99.2509 208.101 92.4404C217.455 87.0396 220.554 79.3814 217.384 72.4985L208.156 77.8261Z" fill="#AAE0B9"/>
<g style="mix-blend-mode:overlay" filter="url(#filter7_bii_88_548)">
<path fill-rule="evenodd" clip-rule="evenodd" d="M157.618 77.8388L163.933 81.4843L144.907 92.469L125.964 81.5323L132.306 77.8707L138.652 81.5345C136.751 73.7731 140.99 65.5655 151.36 59.5789C166.707 50.7179 190.347 49.6102 207.693 56.2195L201.16 59.9909C187.478 55.3499 169.47 56.4139 157.674 63.2245C148.319 68.6253 145.221 76.2834 148.391 83.1663L157.618 77.8388ZM208.244 77.7753L201.93 74.1297L220.956 63.145L239.899 74.0817L233.557 77.7433L227.211 74.0795C229.112 81.8409 224.872 90.0485 214.503 96.0352C199.155 104.896 175.516 106.004 158.17 99.3945L164.702 95.6231C178.385 100.264 196.393 99.2001 208.189 92.3896C217.543 86.9888 220.641 79.3307 217.472 72.4477L208.244 77.7753Z" fill="white" fill-opacity="0.155"/>
</g>
</g>
<g filter="url(#filter8_d_88_548)">
<path fill-rule="evenodd" clip-rule="evenodd" d="M157.348 75.3817L163.662 79.0273L144.636 90.012L125.693 79.0753L132.035 75.4137L138.381 79.0775C136.48 71.3161 140.72 63.1085 151.089 57.1218C166.437 48.2608 190.077 47.1532 207.422 53.7625L200.89 57.5339C187.207 52.8929 169.2 53.9569 157.403 60.7674C148.049 66.1682 144.951 73.8264 148.12 80.7093L157.348 75.3817ZM207.974 75.3183L201.659 71.6727L220.685 60.688L239.628 71.6247L233.286 75.2863L226.941 71.6225C228.841 79.3839 224.602 87.5915 214.233 93.5781C198.885 102.439 175.245 103.547 157.899 96.9375L164.432 93.1661C178.115 97.8071 196.122 96.7431 207.918 89.9326C217.273 84.5317 220.371 76.8736 217.201 69.9907L207.974 75.3183Z" fill="#AAE0B9"/>
<g style="mix-blend-mode:overlay" filter="url(#filter9_bii_88_548)">
<path fill-rule="evenodd" clip-rule="evenodd" d="M157.436 75.3309L163.75 78.9765L144.724 89.9612L125.781 79.0245L132.123 75.3629L138.469 79.0267C136.568 71.2653 140.808 63.0577 151.177 57.0711C166.525 48.2101 190.164 47.1024 207.51 53.7117L200.978 57.4831C187.295 52.8421 169.287 53.9061 157.491 60.7166C148.137 66.1175 145.039 73.7756 148.208 80.6585L157.436 75.3309ZM208.062 75.2675L201.747 71.6219L220.773 60.6372L239.716 71.5739L233.374 75.2355L227.028 71.5717C228.929 79.3331 224.69 87.5407 214.321 93.5274C198.973 102.388 175.333 103.496 157.987 96.8867L164.52 93.1153C178.202 97.7563 196.21 96.6923 208.006 89.8818C217.361 84.481 220.459 76.8228 217.289 69.9399L208.062 75.2675Z" fill="white" fill-opacity="0.155"/>
</g>
</g>
<path d="M158.307 122.778L156.552 126.559L151.758 123.791L158.307 122.778Z" fill="#5F2FB6"/>
<path d="M242.059 143.633L235.511 142.62L240.305 139.852L242.059 143.633Z" fill="#A55FF9"/>
<defs>
<filter id="filter0_f_88_548" x="12.3805" y="-16.0741" width="207.322" height="226.34" filterUnits="userSpaceOnUse" color-interpolation-filters="sRGB">
<feFlood flood-opacity="0" result="BackgroundImageFix"/>
<feBlend mode="normal" in="SourceGraphic" in2="BackgroundImageFix" result="shape"/>
<feGaussianBlur stdDeviation="33.2929" result="effect1_foregroundBlur_88_548"/>
</filter>
<filter id="filter1_d_88_548" x="108.863" y="35.3368" width="148.048" height="129.117" filterUnits="userSpaceOnUse" color-interpolation-filters="sRGB">
<feFlood flood-opacity="0" result="BackgroundImageFix"/>
<feColorMatrix in="SourceAlpha" type="matrix" values="0 0 0 0 0 0 0 0 0 0 0 0 0 0 0 0 0 0 127 0" result="hardAlpha"/>
<feOffset dy="3.55948"/>
<feGaussianBlur stdDeviation="21.3985"/>
<feComposite in2="hardAlpha" operator="out"/>
<feColorMatrix type="matrix" values="0 0 0 0 0.396 0 0 0 0 0 0 0 0 0 0.9 0 0 0 1 0"/>
<feBlend mode="normal" in2="BackgroundImageFix" result="effect1_dropShadow_88_548"/>
<feBlend mode="normal" in="SourceGraphic" in2="effect1_dropShadow_88_548" result="shape"/>
</filter>
<filter id="filter2_f_88_548" x="87.4142" y="14.4604" width="125.651" height="125.65" filterUnits="userSpaceOnUse" color-interpolation-filters="sRGB">
<feFlood flood-opacity="0" result="BackgroundImageFix"/>
<feBlend mode="normal" in="SourceGraphic" in2="BackgroundImageFix" result="shape"/>
<feGaussianBlur stdDeviation="20.8636" result="effect1_foregroundBlur_88_548"/>
</filter>
<filter id="filter3_f_88_548" x="159.591" y="18.9096" width="125.651" height="125.65" filterUnits="userSpaceOnUse" color-interpolation-filters="sRGB">
<feFlood flood-opacity="0" result="BackgroundImageFix"/>
<feBlend mode="normal" in="SourceGraphic" in2="BackgroundImageFix" result="shape"/>
<feGaussianBlur stdDeviation="20.8636" result="effect1_foregroundBlur_88_548"/>
</filter>
<filter id="filter4_f_88_548" x="33.9508" y="84.0463" width="125.651" height="125.65" filterUnits="userSpaceOnUse" color-interpolation-filters="sRGB">
<feFlood flood-opacity="0" result="BackgroundImageFix"/>
<feBlend mode="normal" in="SourceGraphic" in2="BackgroundImageFix" result="shape"/>
<feGaussianBlur stdDeviation="20.8636" result="effect1_foregroundBlur_88_548"/>
</filter>
<filter id="filter5_f_88_548" x="200.187" y="86.0151" width="125.651" height="125.65" filterUnits="userSpaceOnUse" color-interpolation-filters="sRGB">
<feFlood flood-opacity="0" result="BackgroundImageFix"/>
<feBlend mode="normal" in="SourceGraphic" in2="BackgroundImageFix" result="shape"/>
<feGaussianBlur stdDeviation="20.8636" result="effect1_foregroundBlur_88_548"/>
</filter>
<filter id="filter6_b_88_548" x="95.1467" y="16.8547" width="175.481" height="121.955" filterUnits="userSpaceOnUse" color-interpolation-filters="sRGB">
<feFlood flood-opacity="0" result="BackgroundImageFix"/>
<feGaussianBlur in="BackgroundImageFix" stdDeviation="12.2074"/>
<feComposite in2="SourceAlpha" operator="in" result="effect1_backgroundBlur_88_548"/>
<feBlend mode="normal" in="SourceGraphic" in2="effect1_backgroundBlur_88_548" result="shape"/>
</filter>
<filter id="filter7_bii_88_548" x="105.114" y="31.1266" width="155.635" height="93.3602" filterUnits="userSpaceOnUse" color-interpolation-filters="sRGB">
<feFlood flood-opacity="0" result="BackgroundImageFix"/>
<feGaussianBlur in="BackgroundImageFix" stdDeviation="10.425"/>
<feComposite in2="SourceAlpha" operator="in" result="effect1_backgroundBlur_88_548"/>
<feBlend mode="normal" in="SourceGraphic" in2="effect1_backgroundBlur_88_548" result="shape"/>
<feColorMatrix in="SourceAlpha" type="matrix" values="0 0 0 0 0 0 0 0 0 0 0 0 0 0 0 0 0 0 127 0" result="hardAlpha"/>
<feOffset dx="-5.63513" dy="5.63513"/>
<feGaussianBlur stdDeviation="2.81757"/>
<feComposite in2="hardAlpha" operator="arithmetic" k2="-1" k3="1"/>
<feColorMatrix type="matrix" values="0 0 0 0 1 0 0 0 0 1 0 0 0 0 1 0 0 0 0.155 0"/>
<feBlend mode="normal" in2="shape" result="effect2_innerShadow_88_548"/>
<feColorMatrix in="SourceAlpha" type="matrix" values="0 0 0 0 0 0 0 0 0 0 0 0 0 0 0 0 0 0 127 0" result="hardAlpha"/>
<feOffset dx="5.63513" dy="-5.63513"/>
<feGaussianBlur stdDeviation="2.81757"/>
<feComposite in2="hardAlpha" operator="arithmetic" k2="-1" k3="1"/>
<feColorMatrix type="matrix" values="0 0 0 0 0.76 0 0 0 0 0.76 0 0 0 0 0.76 0 0 0 0.155 0"/>
<feBlend mode="normal" in2="effect2_innerShadow_88_548" result="effect3_innerShadow_88_548"/>
</filter>
<filter id="filter8_d_88_548" x="117.603" y="38.7617" width="130.203" height="76.6762" filterUnits="userSpaceOnUse" color-interpolation-filters="sRGB">
<feFlood flood-opacity="0" result="BackgroundImageFix"/>
<feColorMatrix in="SourceAlpha" type="matrix" values="0 0 0 0 0 0 0 0 0 0 0 0 0 0 0 0 0 0 127 0" result="hardAlpha"/>
<feOffset dy="1.77562"/>
<feGaussianBlur stdDeviation="0.887811"/>
<feComposite in2="hardAlpha" operator="out"/>
<feColorMatrix type="matrix" values="0 0 0 0 0.671272 0 0 0 0 0.914945 0 0 0 0 0.991895 0 0 0 0.85 0"/>
<feBlend mode="normal" in2="BackgroundImageFix" result="effect1_dropShadow_88_548"/>
<feBlend mode="normal" in="SourceGraphic" in2="effect1_dropShadow_88_548" result="shape"/>
</filter>
<filter id="filter9_bii_88_548" x="104.931" y="28.6188" width="155.635" height="93.3602" filterUnits="userSpaceOnUse" color-interpolation-filters="sRGB">
<feFlood flood-opacity="0" result="BackgroundImageFix"/>
<feGaussianBlur in="BackgroundImageFix" stdDeviation="10.425"/>
<feComposite in2="SourceAlpha" operator="in" result="effect1_backgroundBlur_88_548"/>
<feBlend mode="normal" in="SourceGraphic" in2="effect1_backgroundBlur_88_548" result="shape"/>
<feColorMatrix in="SourceAlpha" type="matrix" values="0 0 0 0 0 0 0 0 0 0 0 0 0 0 0 0 0 0 127 0" result="hardAlpha"/>
<feOffset dx="-5.63513" dy="5.63513"/>
<feGaussianBlur stdDeviation="2.81757"/>
<feComposite in2="hardAlpha" operator="arithmetic" k2="-1" k3="1"/>
<feColorMatrix type="matrix" values="0 0 0 0 1 0 0 0 0 1 0 0 0 0 1 0 0 0 0.155 0"/>
<feBlend mode="normal" in2="shape" result="effect2_innerShadow_88_548"/>
<feColorMatrix in="SourceAlpha" type="matrix" values="0 0 0 0 0 0 0 0 0 0 0 0 0 0 0 0 0 0 127 0" result="hardAlpha"/>
<feOffset dx="5.63513" dy="-5.63513"/>
<feGaussianBlur stdDeviation="2.81757"/>
<feComposite in2="hardAlpha" operator="arithmetic" k2="-1" k3="1"/>
<feColorMatrix type="matrix" values="0 0 0 0 0.76 0 0 0 0 0.76 0 0 0 0 0.76 0 0 0 0.155 0"/>
<feBlend mode="normal" in2="effect2_innerShadow_88_548" result="effect3_innerShadow_88_548"/>
</filter>
<linearGradient id="paint0_linear_88_548" x1="37.0749" y1="0" x2="37.0749" y2="93.1667" gradientUnits="userSpaceOnUse">
<stop stop-color="#6218FF" stop-opacity="0"/>
<stop offset="1" stop-color="#6117FF"/>
</linearGradient>
<linearGradient id="paint1_linear_88_548" x1="126.209" y1="135.929" x2="123.398" y2="119.767" gradientUnits="userSpaceOnUse">
<stop stop-color="#3B14AB"/>
<stop offset="1" stop-color="#B46AF9"/>
</linearGradient>
<linearGradient id="paint2_linear_88_548" x1="217.136" y1="178.517" x2="214.326" y2="162.355" gradientUnits="userSpaceOnUse">
<stop stop-color="#3B14AB"/>
<stop offset="1" stop-color="#B46AF9"/>
</linearGradient>
<linearGradient id="paint3_linear_88_548" x1="152.162" y1="61.2456" x2="189.091" y2="124.826" gradientUnits="userSpaceOnUse">
<stop offset="0.015625" stop-color="#B010FB"/>
<stop offset="0.130208" stop-color="#DE97FF"/>
<stop offset="0.234375" stop-color="#A227DB"/>
<stop offset="0.505208" stop-color="#A227DB" stop-opacity="0"/>
<stop offset="0.765625" stop-color="#A610EC" stop-opacity="0.84"/>
</linearGradient>
<clipPath id="clip0_88_548">
<rect width="20.6989" height="20.6989" fill="white" transform="matrix(0.866025 -0.5 0.866025 0.5 248.816 109.5)"/>
</clipPath>
<clipPath id="clip1_88_548">
<rect width="20.6989" height="20.6989" fill="white" transform="matrix(0.866025 -0.5 0.866025 0.5 248.816 109.5)"/>
</clipPath>
</defs>
</svg>
