<svg width="368" height="236" viewBox="0 0 368 236" fill="none" xmlns="http://www.w3.org/2000/svg">
<rect x="1.08255" y="0.545442" width="365.446" height="234.707" rx="7.45456" fill="#161617" stroke="#252526" stroke-width="1.09088"/>
<path d="M198.299 76.375L187.255 83.1715L236.769 110.353L225.961 116.579" stroke="#3B14AB" stroke-opacity="0.81" stroke-width="0.890337" stroke-linejoin="round"/>
<path d="M187.029 68.9671C186.892 69.0477 186.809 69.1955 186.81 69.3547C186.811 69.5139 186.898 69.6601 187.036 69.7384L210.166 82.799C210.302 82.8761 210.47 82.8757 210.606 82.7979L233.462 69.7373C233.599 69.6587 233.685 69.5131 233.686 69.3547C233.687 69.1964 233.605 69.0492 233.468 68.9682L210.613 55.3636C210.473 55.2805 210.299 55.28 210.159 55.3624L187.029 68.9671Z" stroke="#3B14AB" stroke-opacity="0.81" stroke-width="0.890337" stroke-linejoin="round"/>
<path d="M108.842 100.727C108.703 100.807 108.618 100.955 108.618 101.115C108.619 101.275 108.705 101.423 108.845 101.501L131.974 114.562C132.11 114.638 132.276 114.639 132.411 114.562L174.139 91.0864C174.278 91.0085 174.364 90.8627 174.366 90.7039C174.368 90.545 174.285 90.3972 174.149 90.3159L151.293 76.7112C151.155 76.6291 150.983 76.6276 150.844 76.7073L108.842 100.727Z" stroke="#3B14AB" stroke-opacity="0.81" stroke-width="0.890337" stroke-linejoin="round"/>
<path d="M154.58 102.406L160.233 106.004L148.155 112.942L154.58 116.797" stroke="#3B14AB" stroke-opacity="0.81" stroke-width="0.945068" stroke-linejoin="round"/>
<path d="M282.643 154.84C282.643 157.029 281.09 159.096 278.39 160.642C275.703 162.18 271.96 163.146 267.802 163.146C263.644 163.146 259.902 162.18 257.214 160.642C254.514 159.096 252.961 157.029 252.961 154.84C252.961 152.652 254.514 150.585 257.214 149.039C259.902 147.501 263.644 146.535 267.802 146.535C271.96 146.535 275.703 147.501 278.39 149.039C281.09 150.585 282.643 152.652 282.643 154.84Z" stroke="#3B14AB" stroke-opacity="0.81" stroke-width="0.890337"/>
<path d="M147.183 155.641C147.183 155.641 133.885 162.892 131.755 164.025" stroke="#3B14AB" stroke-opacity="0.81" stroke-width="0.945068" stroke-linejoin="round"/>
<path d="M225.328 159.531L244.38 169.219L258.114 161.257" stroke="#3B14AB" stroke-opacity="0.81" stroke-width="0.890337" stroke-linejoin="round"/>
<path d="M154.415 184.063C154.554 184.143 154.64 184.291 154.64 184.451C154.639 184.611 154.553 184.758 154.413 184.837L131.284 197.898C131.148 197.974 130.982 197.975 130.846 197.898L89.1185 174.422C88.98 174.344 88.8936 174.199 88.8916 174.04C88.8897 173.881 88.9726 173.733 89.1091 173.652L111.965 160.047C112.103 159.965 112.274 159.964 112.414 160.043L154.415 184.063Z" stroke="#3B14AB" stroke-opacity="0.81" stroke-width="0.890337" stroke-linejoin="round"/>
<path d="M210.857 67.0403L187.727 53.9797L210.857 40.375L233.713 53.9797L210.857 67.0403Z" fill="#8C49FA"/>
<path d="M210.745 66.9747V76.6032L187.875 63.1217V53.8945L210.745 66.9747Z" fill="#320282"/>
<path d="M210.7 66.7929V76.6179L233.76 63.3103V53.9258L210.7 66.7929Z" fill="#1F0152"/>
<ellipse cx="218.905" cy="67.1428" rx="1.0251" ry="1.41722" transform="rotate(1.95579 218.905 67.1428)" fill="#D9D9D9"/>
<ellipse cx="222.219" cy="65.2717" rx="1.0251" ry="1.41722" transform="rotate(1.95579 222.219 65.2717)" fill="#D9D9D9"/>
<ellipse cx="225.555" cy="63.5061" rx="1.0251" ry="1.41722" transform="rotate(1.95579 225.555 63.5061)" fill="#D9D9D9"/>
<g style="mix-blend-mode:multiply" filter="url(#filter0_f_88_330)">
<circle cx="195.772" cy="68.8984" r="14.9726" fill="#9C84FF" style="mix-blend-mode:lighten"/>
</g>
<path d="M210.857 54.2434L187.728 41.1828L210.857 27.5781L233.713 41.1828L210.857 54.2434Z" fill="#4906B9"/>
<path d="M210.745 54.1817V68.4104L187.875 54.9289V41.1016L210.745 54.1817Z" fill="#320282"/>
<path d="M210.7 53.996V67.3035L233.76 53.996V41.1289L210.7 53.996Z" fill="#1F0152"/>
<path d="M224.714 48.1736L230.846 44.6406V45.4527L224.714 48.9857V48.1736Z" fill="#D9D9D9"/>
<path d="M224.714 49.7947L230.846 46.2617V47.0738L224.714 50.6068V49.7947Z" fill="#D9D9D9"/>
<path d="M224.714 51.3807L230.846 47.8477V48.6597L224.714 52.1927V51.3807Z" fill="#D9D9D9"/>
<g clip-path="url(#clip0_88_330)">
<path d="M204.818 56.4826C204.683 56.2989 204.533 56.1367 204.373 56.0048C204.21 55.8692 204.042 55.7646 203.877 55.6959C203.703 55.6238 203.535 55.5885 203.38 55.5918L202.655 55.6353L201.928 55.6771L201.201 55.7185L200.474 55.7644C200.317 55.7799 200.148 55.7651 199.972 55.7205C199.802 55.6793 199.626 55.6075 199.449 55.5071C199.273 55.4076 199.096 55.2807 198.925 55.1301C198.749 54.9744 198.58 54.7961 198.421 54.5999L197.717 53.7505L197.012 52.9012L196.307 52.0535L195.602 51.2037C195.341 50.8602 195.028 50.6021 194.721 50.4764C194.438 50.3638 194.176 50.3631 193.97 50.4744C193.762 50.5817 193.621 50.7964 193.566 51.0885C193.509 51.4072 193.565 51.8025 193.723 52.201L193.97 52.8664L194.514 54.3279L195.059 55.7894L195.306 56.4552C195.398 56.6882 195.47 56.9223 195.519 57.1517C195.566 57.3752 195.59 57.5918 195.59 57.7958C195.59 57.9999 195.566 58.1895 195.519 58.3596C195.475 58.5417 195.408 58.7025 195.318 58.8377L194.931 59.4478L194.544 60.055L194.156 60.6614L193.769 61.2686C193.704 61.3672 193.654 61.4834 193.62 61.6144C193.588 61.7382 193.574 61.8768 193.577 62.0258C193.582 62.1729 193.606 62.3293 193.648 62.4897C193.691 62.6567 193.753 62.8262 193.831 62.9919C193.927 63.1993 194.046 63.3986 194.183 63.58C194.318 63.7623 194.469 63.9247 194.627 64.0601C194.789 64.1998 194.958 64.3094 195.124 64.3837C195.297 64.4608 195.465 64.4989 195.621 64.496L196.375 64.4539L197.128 64.412L197.882 64.3694L198.636 64.3268C198.409 64.008 198.2 63.6728 198.011 63.3266C197.821 62.979 197.647 62.6245 197.491 62.2659C197.332 61.9058 197.187 61.5419 197.053 61.1793C196.933 60.856 196.822 60.5344 196.715 60.2169C196.904 60.736 197.312 61.4067 197.842 62.1495C198.487 63.0341 199.159 63.8874 199.854 64.7042C200.585 65.5753 201.336 66.4329 201.983 67.1822C202.631 67.9316 203.181 68.574 203.506 69.0103C203.769 69.3419 204.082 69.5791 204.38 69.6736C204.656 69.7539 204.904 69.7202 205.09 69.5771C205.283 69.4353 205.409 69.1949 205.452 68.885C205.497 68.5571 205.434 68.1599 205.273 67.7615L204.828 66.5734L203.852 63.9614L202.876 61.3493L202.435 60.1746C202.341 59.9365 202.238 59.6996 202.128 59.4646C202.019 59.2332 201.9 59.0047 201.773 58.7804C201.647 58.5571 201.513 58.3389 201.37 58.1273C201.225 57.912 201.072 57.7046 200.912 57.5069C201.161 57.7819 201.414 58.0642 201.663 58.3542C201.913 58.6443 202.156 58.9455 202.392 59.2565C202.628 59.5667 202.851 59.8911 203.059 60.2267C203.27 60.5669 203.459 60.9207 203.623 61.2817L204.024 60.6659L204.425 60.0502L204.828 59.4335L205.229 58.8176C205.296 58.7289 205.346 58.6198 205.378 58.494C205.41 58.3693 205.424 58.2299 205.42 58.0801C205.415 57.9282 205.391 57.7669 205.349 57.6015C205.306 57.4324 205.244 57.2608 205.164 57.0931C205.073 56.8788 204.956 56.6713 204.818 56.4826ZM195.518 62.9824C195.529 63.1616 195.474 63.3002 195.369 63.3632C195.263 63.4261 195.117 63.4072 194.967 63.3115C194.66 63.1372 194.409 62.7075 194.407 62.3517C194.404 61.9958 194.651 61.8488 194.958 62.023C195.108 62.0973 195.255 62.2449 195.362 62.4284C195.469 62.612 195.526 62.8137 195.518 62.9824ZM194.419 51.8843C194.409 51.7051 194.463 51.5665 194.569 51.5036C194.674 51.4407 194.82 51.4595 194.97 51.5553C195.12 51.6299 195.268 51.7777 195.375 51.9613C195.482 52.145 195.539 52.3469 195.531 52.5158C195.542 52.695 195.487 52.8335 195.382 52.8964C195.276 52.9593 195.13 52.9405 194.98 52.8447C194.83 52.7701 194.682 52.6221 194.575 52.4385C194.468 52.2549 194.411 52.0531 194.419 51.8843ZM204.587 68.1987C204.59 68.46 204.456 68.6188 204.249 68.6009C204.041 68.5831 203.802 68.3922 203.641 68.1173C203.48 67.8424 203.431 67.5376 203.515 67.3454C203.599 67.1531 203.801 67.1112 204.026 67.2392C204.176 67.3135 204.324 67.4611 204.431 67.6446C204.538 67.8281 204.595 68.03 204.587 68.1987ZM200.826 60.572C200.662 60.1677 200.392 59.8903 200.067 59.7071C199.624 59.4685 199.232 59.5619 199.071 59.9448C198.909 60.3277 199.007 60.9268 199.322 61.4689C198.971 61.2143 198.652 60.818 198.437 60.3686C198.221 59.9192 198.128 59.4542 198.177 59.0774C198.282 58.3256 198.981 58.0982 199.683 58.6177C200.278 59.0775 200.767 59.8522 200.826 60.572ZM204.627 57.7237C204.619 58.0654 204.375 58.2013 204.076 58.0313C203.776 57.8614 203.528 57.4465 203.515 57.0931C203.522 56.7515 203.766 56.6154 204.066 56.7854C204.366 56.9554 204.614 57.3704 204.627 57.7237Z" fill="#FF694B"/>
</g>
<path d="M132.222 95.6391L109.093 82.5785L151.094 58.5586L173.95 72.1633L132.222 95.6391Z" fill="#8C49FA"/>
<path d="M132.11 95.5763V105.205L109.24 91.7233V82.4961L132.11 95.5763Z" fill="#A570FB"/>
<path d="M132.065 95.3886V105.214L173.921 81.5759V72.1914L132.065 95.3886Z" fill="#660BFA"/>
<g clip-path="url(#clip1_88_330)">
<path d="M146.291 74.1687C146.517 74.1389 146.711 74.1164 146.906 74.088C147.539 73.9906 148.172 73.8912 148.804 73.7898C149.244 73.7183 149.653 73.7365 150.04 73.8988C150.554 74.1127 150.686 74.5944 150.288 74.88C150.092 75.027 149.819 75.1327 149.509 75.1807C148.003 75.4098 146.49 75.6434 144.984 75.8817C144.498 75.9582 144.066 75.9226 143.687 75.7297C143.291 75.5285 143.199 75.2646 143.318 74.9837C143.528 74.4919 143.767 74.0046 143.995 73.5155L144.522 72.3878C144.589 72.2433 144.657 72.0996 144.841 71.9815C145.022 71.8639 145.263 71.7828 145.529 71.7501C145.795 71.7174 146.072 71.7349 146.32 71.8001C146.867 71.9467 147.121 72.2728 146.993 72.6201C146.914 72.8488 146.791 73.0725 146.687 73.2981C146.568 73.5497 146.449 73.8013 146.334 74.0562C146.312 74.0823 146.308 74.1142 146.291 74.1687Z" fill="#32C0F0"/>
<path d="M136.293 79.9299C135.863 79.9954 135.466 80.0554 135.068 80.1168C134.603 80.1888 134.136 80.2589 133.674 80.3349C133.059 80.438 132.402 80.2414 132.19 79.956C131.869 79.5312 132.217 79.0755 132.991 78.9449C133.583 78.8455 134.181 78.7589 134.777 78.6663C135.698 78.5243 136.62 78.385 137.539 78.2375C137.948 78.1715 138.338 78.165 138.708 78.2944C138.913 78.359 139.079 78.4576 139.185 78.5775C139.292 78.6974 139.333 78.833 139.305 78.9667C139.265 79.1373 139.202 79.3057 139.115 79.4704C138.762 80.2463 138.403 81.0207 138.039 81.7936C137.914 82.0681 137.627 82.269 137.137 82.3519C136.956 82.3835 136.765 82.3901 136.58 82.3714C136.394 82.3527 136.218 82.3091 136.067 82.2441C135.916 82.1791 135.793 82.0946 135.709 81.9972C135.624 81.8998 135.581 81.7924 135.581 81.6835C135.598 81.5232 135.646 81.3645 135.724 81.2104C135.897 80.817 136.085 80.4258 136.266 80.0333C136.279 80.0077 136.282 79.9812 136.293 79.9299Z" fill="#32C0F0"/>
<path d="M134.489 76.0472L134.239 75.9032C133.667 75.573 133.095 75.2425 132.523 74.9123C132.301 74.782 132.172 74.6083 132.161 74.4256C132.15 74.2429 132.258 74.0643 132.464 73.9252C132.846 73.6781 133.653 73.5502 134.248 73.8799C134.691 74.1268 135.119 74.3829 135.556 74.6353C136.285 75.056 137.013 75.4767 137.742 75.8973C137.944 76.0072 138.076 76.1532 138.116 76.3118C138.156 76.4704 138.102 76.6322 137.963 76.771C137.875 76.8606 137.756 76.939 137.614 77.0015C137.472 77.064 137.31 77.1094 137.137 77.1348C136.137 77.2897 135.142 77.4447 134.152 77.5999L132.561 77.8468C132.321 77.8899 132.065 77.8946 131.82 77.8603C131.551 77.8217 131.313 77.7318 131.143 77.6052C130.974 77.4786 130.883 77.3226 130.886 77.1624C130.887 77.0022 130.98 76.8466 131.151 76.7201C131.322 76.5937 131.56 76.5037 131.829 76.4642C132.283 76.3904 132.742 76.3249 133.197 76.2543C133.61 76.1869 134.023 76.1196 134.489 76.0472Z" fill="#32C0F0"/>
<path d="M143.035 80.9813L142.662 81.7783C142.549 82.0199 142.442 82.2628 142.325 82.5034C142.25 82.675 142.071 82.8254 141.821 82.9274C141.57 83.0295 141.265 83.0766 140.96 83.06C140.389 83.0286 139.883 82.7401 139.88 82.408C139.884 82.2528 139.923 82.0986 139.995 81.9491C140.364 81.1371 140.747 80.3264 141.123 79.5157C141.231 79.281 141.417 79.0833 141.81 78.967C142.043 78.8909 142.313 78.8613 142.577 78.883C142.842 78.9047 143.087 78.9765 143.273 79.087C143.727 79.3435 144.172 79.606 144.62 79.8643C145.328 80.2731 146.036 80.6821 146.745 81.0912C146.976 81.2208 147.11 81.3974 147.118 81.5834C147.126 81.7694 147.007 81.9498 146.788 82.0861C146.675 82.1571 146.538 82.2142 146.386 82.2541C146.234 82.2941 146.07 82.3159 145.903 82.3184C145.736 82.3209 145.57 82.3039 145.415 82.2685C145.259 82.2332 145.118 82.1802 144.999 82.1126C144.424 81.7916 143.868 81.4597 143.304 81.1336L143.035 80.9813Z" fill="#32C0F0"/>
<path d="M139.555 73.1086L139.836 72.5088C139.976 72.2139 140.113 71.9187 140.249 71.6231C140.342 71.4223 140.51 71.2493 140.835 71.1468C141.331 70.9893 141.824 71.0029 142.271 71.2032C142.674 71.3847 142.782 71.6394 142.688 71.9217C142.615 72.1468 142.494 72.3636 142.392 72.5837C142.075 73.2658 141.752 73.947 141.442 74.6301C141.276 74.992 140.722 75.2506 140.077 75.215C139.805 75.2043 139.549 75.1386 139.353 75.0295C138.174 74.3491 136.996 73.6687 135.818 72.9888C135.623 72.8748 135.5 72.7264 135.469 72.5673C135.437 72.4082 135.499 72.2475 135.644 72.1109C135.79 71.9744 136.01 71.8699 136.27 71.8141C136.53 71.7583 136.815 71.7545 137.08 71.8032C137.277 71.8454 137.457 71.9115 137.607 71.997C138.173 72.3107 138.715 72.6313 139.267 72.95L139.555 73.1086Z" fill="#32C0F0"/>
<path d="M148.144 78.0682L150.063 79.1756C150.291 79.3086 150.421 79.4879 150.423 79.6754C150.426 79.8628 150.301 80.0434 150.076 80.1785C149.85 80.3137 149.543 80.3926 149.218 80.3984C148.894 80.4043 148.578 80.3366 148.339 80.2099C148.01 80.0343 147.699 79.84 147.379 79.6552C146.533 79.1669 145.687 78.6785 144.844 78.192C144.722 78.1241 144.626 78.0423 144.561 77.9517C144.497 77.8611 144.466 77.7638 144.47 77.6659C144.475 77.568 144.514 77.4717 144.586 77.383C144.658 77.2943 144.762 77.2153 144.889 77.1509C145.05 77.071 145.238 77.012 145.441 76.9778C146.968 76.7363 148.493 76.5014 150.02 76.2645C150.223 76.2268 150.438 76.2175 150.648 76.2372C150.858 76.257 151.057 76.3053 151.229 76.3781C151.75 76.5961 151.868 77.087 151.452 77.373C151.242 77.5199 150.955 77.6234 150.634 77.6677C149.876 77.7791 149.129 77.8968 148.37 78.0155C148.293 78.0305 148.218 78.0481 148.144 78.0682Z" fill="#32C0F0"/>
<path d="M142.93 76.1055C143.157 76.1951 143.207 76.3218 143.203 76.471C143.194 76.8598 143.2 77.2491 143.199 77.6388C143.2 77.7051 143.178 77.7708 143.134 77.8322C143.091 77.8936 143.027 77.9493 142.946 77.9962C142.864 78.0431 142.768 78.0802 142.662 78.1052C142.555 78.1303 142.441 78.1429 142.327 78.1422C141.633 78.1439 140.941 78.1448 140.25 78.145C140.023 78.1449 139.805 78.0932 139.644 78.001C139.482 77.9089 139.39 77.7837 139.388 77.6526C139.386 77.2469 139.386 76.8411 139.388 76.4348C139.393 76.3066 139.483 76.1843 139.639 76.0932C139.796 76.0021 140.007 75.9491 140.229 75.9452C140.912 75.9432 141.596 75.9494 142.282 75.9405C142.55 75.9391 142.775 75.9729 142.93 76.1055ZM140.723 76.7044C140.684 76.7401 140.656 76.779 140.638 76.8197C140.624 76.9689 140.624 77.1184 140.639 77.2675C140.654 77.3677 140.763 77.4208 140.953 77.4285C141.173 77.4369 141.394 77.4373 141.614 77.4297C141.661 77.4316 141.707 77.4277 141.751 77.4183C141.794 77.4088 141.834 77.3941 141.867 77.3751C141.9 77.3561 141.925 77.3333 141.942 77.3081C141.958 77.2829 141.965 77.2561 141.961 77.2292C141.975 77.1074 141.975 76.9851 141.962 76.8633C141.947 76.7265 141.836 76.6661 141.593 76.6585C141.391 76.6521 141.189 76.6526 140.988 76.66C140.897 76.6687 140.808 76.6836 140.723 76.7044Z" fill="#32C0F0"/>
</g>
<path d="M216.555 164.167C215.462 164.542 214.339 164.897 213.186 165.229L212.9 164.888L212.305 165.054C211.545 165.267 210.771 165.47 209.985 165.663C209.199 165.857 208.409 166.038 207.617 166.207L206.997 166.34L207.225 166.695C206.011 166.945 204.79 167.167 203.564 167.362L203.398 166.995L202.759 167.092C201.103 167.343 199.44 167.544 197.775 167.698L197.123 167.758L197.226 168.132C195.954 168.239 194.681 168.319 193.41 168.372L193.372 167.993L192.712 168.016C191.009 168.074 189.31 168.083 187.62 168.044L186.96 168.029L186.934 168.408C185.653 168.369 184.378 168.303 183.111 168.211L183.201 167.835L182.547 167.783C180.862 167.647 179.191 167.464 177.543 167.235L176.901 167.146L176.747 167.514C175.506 167.332 174.277 167.124 173.064 166.891L173.279 166.533L172.655 166.408C171.05 166.087 169.473 165.72 167.93 165.31L167.33 165.15L167.055 165.495C165.9 165.177 164.765 164.836 163.651 164.471L163.983 164.144L163.413 163.951C161.949 163.457 160.525 162.921 159.147 162.344L158.612 162.12L158.227 162.427C157.203 161.987 156.204 161.524 155.234 161.04L155.67 160.756L155.176 160.503C153.91 159.855 152.696 159.169 151.538 158.446L151.089 158.166L150.607 158.423C149.754 157.877 148.932 157.31 148.144 156.724L148.667 156.495L148.269 156.191C147.252 155.415 146.294 154.604 145.402 153.761L145.057 153.436L144.497 153.633C143.848 153.002 143.234 152.354 142.658 151.688L143.248 151.523L142.961 151.18C142.592 150.741 142.24 150.294 141.906 149.84C141.571 149.386 141.257 148.931 140.964 148.473L140.734 148.115L140.119 148.247C139.687 147.546 139.302 146.841 138.964 146.133L139.599 146.037L139.431 145.668C138.996 144.712 138.648 143.752 138.382 142.791L138.279 142.414L137.63 142.474C137.444 141.739 137.306 141.005 137.215 140.271L137.87 140.248L137.831 139.868C137.73 138.885 137.715 137.903 137.782 136.928L137.808 136.547L137.153 136.532C137.22 135.792 137.334 135.056 137.494 134.324L138.144 134.377L138.235 133.999C138.469 133.026 138.786 132.061 139.183 131.11L139.338 130.739L138.7 130.65C139.015 129.934 139.375 129.224 139.779 128.524L140.399 128.648L140.616 128.288C141.173 127.361 141.807 126.45 142.518 125.56L142.794 125.213L142.198 125.055C142.747 124.388 143.339 123.732 143.972 123.089L144.538 123.281L144.872 122.952C145.728 122.107 146.656 121.285 147.655 120.489L148.043 120.18L147.511 119.958C148.274 119.366 149.075 118.79 149.914 118.23L150.405 118.481L150.843 118.196C151.966 117.465 153.154 116.764 154.407 116.095L154.892 115.837L154.446 115.558C155.393 115.066 156.374 114.591 157.389 114.136L157.785 114.438L158.312 114.208C159.657 113.621 161.061 113.068 162.521 112.553L163.085 112.354L162.742 112.031C163.835 111.656 164.959 111.301 166.112 110.969L166.398 111.31L166.992 111.144C167.753 110.931 168.526 110.728 169.312 110.534C170.098 110.341 170.888 110.16 171.681 109.991L172.3 109.858L172.072 109.503C173.287 109.253 174.508 109.031 175.733 108.836L175.9 109.203L176.539 109.106C178.194 108.855 179.857 108.654 181.523 108.5L182.175 108.44L182.072 108.066C183.343 107.959 184.616 107.879 185.887 107.826L185.926 108.204L186.585 108.182C188.288 108.124 189.987 108.115 191.677 108.154L192.337 108.169L192.364 107.79C193.644 107.829 194.92 107.895 196.186 107.987L196.096 108.363L196.75 108.415C198.436 108.551 200.106 108.734 201.754 108.963L202.397 109.052L202.55 108.684C203.791 108.866 205.02 109.073 206.234 109.307L206.018 109.665L206.642 109.79C208.247 110.111 209.824 110.478 211.368 110.888L211.968 111.048L212.242 110.703C213.397 111.02 214.532 111.362 215.646 111.727L215.315 112.054L215.885 112.247C217.348 112.741 218.772 113.277 220.15 113.854L220.685 114.078L221.07 113.771C222.095 114.211 223.093 114.674 224.063 115.158L223.628 115.442L224.122 115.695C225.387 116.343 226.602 117.029 227.76 117.752L228.208 118.032L228.69 117.775C229.544 118.321 230.365 118.888 231.154 119.474L230.63 119.703L231.028 120.007C232.045 120.783 233.003 121.594 233.896 122.437L234.24 122.762L234.8 122.565C235.45 123.196 236.064 123.844 236.64 124.51L236.049 124.675L236.337 125.018C236.705 125.457 237.057 125.904 237.392 126.358C237.727 126.812 238.041 127.267 238.334 127.725L238.563 128.083L239.179 127.951C239.611 128.652 239.996 129.357 240.334 130.065L239.699 130.161L239.867 130.53C240.301 131.486 240.65 132.446 240.915 133.407L241.019 133.784L241.667 133.724C241.853 134.459 241.991 135.193 242.083 135.927L241.427 135.95L241.466 136.33C241.567 137.313 241.583 138.295 241.515 139.27L241.489 139.651L242.145 139.666C242.078 140.406 241.964 141.142 241.803 141.874L241.153 141.821L241.062 142.199C240.828 143.172 240.511 144.136 240.114 145.088L239.96 145.459L240.598 145.548C240.282 146.264 239.922 146.974 239.518 147.674L238.898 147.55L238.682 147.91C238.125 148.837 237.49 149.747 236.779 150.638L236.503 150.985L237.099 151.143C236.55 151.81 235.958 152.466 235.326 153.108L234.759 152.917L234.426 153.246C233.57 154.091 232.641 154.913 231.642 155.709L231.255 156.018L231.786 156.24C231.024 156.832 230.222 157.408 229.383 157.968L228.893 157.717L228.454 158.002C227.332 158.733 226.143 159.434 224.891 160.102L224.406 160.361L224.851 160.64C223.905 161.132 222.923 161.607 221.908 162.062L221.512 161.76L220.985 161.99C219.64 162.577 218.237 163.13 216.776 163.645L216.213 163.844L216.555 164.167Z" stroke="#5506D7" stroke-width="1.07859" stroke-linecap="square" stroke-linejoin="round" stroke-dasharray="4.05 4.05"/>
<g filter="url(#filter1_d_88_330)">
<path d="M205.119 159.661C195.236 162.021 184.061 162.021 174.179 159.661L174.356 159.413C169.645 158.288 165.23 156.619 161.399 154.408C157.568 152.196 154.679 149.647 152.729 146.927L152.301 147.029C148.212 141.324 148.212 134.872 152.301 129.166L152.729 129.268C154.679 126.548 157.568 124 161.399 121.788C165.23 119.576 169.645 117.908 174.356 116.782L174.179 116.535C184.061 114.174 195.236 114.174 205.119 116.535L204.941 116.782C209.653 117.908 214.067 119.576 217.898 121.788C221.729 124 224.619 126.548 226.568 129.268L226.997 129.166C231.086 134.872 231.086 141.324 226.997 147.029L226.568 146.927C224.619 149.647 221.729 152.196 217.898 154.408C214.067 156.619 209.653 158.288 204.941 159.413L205.119 159.661Z" stroke="#FFF6FC" stroke-width="0.75731" stroke-linejoin="round" stroke-dasharray="18.18 18.18" shape-rendering="crispEdges"/>
</g>
<path fill-rule="evenodd" clip-rule="evenodd" d="M267.802 157.111C276.245 157.111 283.089 153.193 283.089 148.36C283.089 148.354 283.089 148.348 283.088 148.342L283.088 141.337L276.924 141.337C274.378 140.252 271.221 139.609 267.802 139.609C264.383 139.609 261.227 140.252 258.68 141.337L252.516 141.337L252.516 148.36L252.516 148.36C252.516 148.36 252.516 148.36 252.516 148.36C252.516 153.193 259.36 157.111 267.802 157.111Z" fill="#5506D7"/>
<ellipse cx="267.802" cy="140.798" rx="15.2864" ry="8.75063" fill="#3B009B"/>
<path fill-rule="evenodd" clip-rule="evenodd" d="M267.802 147.197C276.245 147.197 283.088 143.279 283.088 138.446C283.088 138.446 283.088 138.446 283.088 138.446L283.088 131.423L276.924 131.423C274.378 130.338 271.221 129.695 267.802 129.695C264.383 129.695 261.227 130.338 258.68 131.423L252.516 131.423L252.516 138.446C252.516 138.446 252.516 138.446 252.516 138.446C252.516 143.279 259.36 147.197 267.802 147.197Z" fill="#5506D7"/>
<ellipse cx="267.802" cy="130.883" rx="15.2864" ry="8.75063" fill="#3B009B"/>
<path fill-rule="evenodd" clip-rule="evenodd" d="M267.802 137.314C276.245 137.314 283.088 133.396 283.088 128.563C283.088 128.563 283.088 128.563 283.088 128.563L283.088 121.541L276.924 121.541C274.378 120.455 271.221 119.813 267.802 119.813C264.383 119.813 261.227 120.455 258.68 121.541L252.516 121.541L252.516 128.563C252.516 128.563 252.516 128.563 252.516 128.563C252.516 133.396 259.36 137.314 267.802 137.314Z" fill="#660BFA"/>
<ellipse cx="267.802" cy="121.001" rx="15.2864" ry="8.75063" fill="#8C49FA"/>
<g clip-path="url(#clip2_88_330)">
<path fill-rule="evenodd" clip-rule="evenodd" d="M271.838 116.745C274.61 116.645 277.194 117.639 278.113 119.151C279.335 121.16 277.317 123.315 273.819 123.857L265.955 125.073C265.515 125.141 265.047 125.105 264.653 124.974C264.26 124.843 263.972 124.627 263.854 124.373L273.376 122.901C275.915 122.507 277.381 120.944 276.498 119.485C275.836 118.391 273.965 117.666 271.96 117.733C270.857 117.768 269.813 118.033 269.021 118.479C268.23 118.925 267.745 119.521 267.657 120.156C267.641 120.271 267.638 120.385 267.649 120.5L262.084 121.363C261.866 121.397 261.639 121.405 261.416 121.388C261.192 121.372 260.977 121.329 260.782 121.264C260.587 121.199 260.416 121.113 260.279 121.01C260.142 120.907 260.042 120.789 259.983 120.663L266.025 119.726C266.166 119.279 266.452 118.85 266.868 118.464L263.161 119.041C262.722 119.109 262.254 119.073 261.86 118.942C261.466 118.811 261.179 118.595 261.061 118.341L270.632 116.858C271.027 116.798 271.431 116.76 271.838 116.745ZM273.947 120.193C274.302 120.961 273.51 121.755 272.178 121.961L263.015 123.375C262.576 123.443 262.108 123.407 261.714 123.276C261.32 123.145 261.033 122.929 260.915 122.675L269.437 121.354C269.24 121.179 269.111 120.982 269.058 120.775C269.006 120.569 269.032 120.358 269.135 120.158C269.237 119.957 269.414 119.772 269.652 119.615C269.891 119.458 270.185 119.333 270.516 119.247C270.846 119.162 271.205 119.12 271.566 119.122C271.928 119.125 272.284 119.173 272.61 119.263C272.936 119.353 273.225 119.483 273.456 119.643C273.686 119.804 273.854 119.992 273.947 120.193ZM271.635 120.118C271.533 120.111 271.429 120.115 271.329 120.13C271.18 120.153 271.045 120.201 270.943 120.269C270.84 120.336 270.775 120.419 270.755 120.508C270.734 120.597 270.76 120.687 270.829 120.767C270.897 120.848 271.005 120.914 271.14 120.959C271.274 121.004 271.428 121.024 271.583 121.018C271.737 121.013 271.886 120.98 272.009 120.926C272.132 120.871 272.224 120.797 272.274 120.712C272.324 120.627 272.329 120.536 272.289 120.45C272.262 120.392 272.216 120.338 272.154 120.291C272.091 120.244 272.013 120.205 271.924 120.175C271.835 120.145 271.737 120.126 271.635 120.118Z" fill="white"/>
</g>
<g style="mix-blend-mode:multiply" filter="url(#filter2_f_88_330)">
<circle cx="265.155" cy="148.359" r="14.9726" fill="#9C84FF" style="mix-blend-mode:lighten"/>
</g>
<path d="M158.023 137.246C157.886 137.326 157.802 137.474 157.804 137.633C157.805 137.792 157.892 137.939 158.03 138.017L189.556 155.819C189.693 155.896 189.86 155.896 189.996 155.818L221.149 138.016C221.287 137.937 221.372 137.792 221.373 137.633C221.375 137.475 221.292 137.328 221.156 137.247L190.003 118.703C189.863 118.62 189.69 118.62 189.55 118.702L158.023 137.246Z" stroke="#6E00D8" stroke-width="0.890337" stroke-linejoin="round"/>
<g filter="url(#filter3_d_88_330)">
<path d="M173.919 135.691C169.763 133.292 167.428 130.038 167.428 126.645C167.428 123.252 169.763 119.998 173.919 117.598L189.589 108.552L205.259 117.598C209.415 119.998 211.749 123.252 211.749 126.645C211.749 130.038 209.415 133.292 205.259 135.691C201.103 138.09 195.466 139.438 189.589 139.438C183.712 139.438 178.075 138.09 173.919 135.691V135.691Z" fill="#0ACF83"/>
</g>
<path d="M189.802 128.603L158.368 110.853L189.802 92.3633L220.865 110.853L189.802 128.603Z" fill="#6400CA"/>
<path d="M186.789 110.923C186.789 110.473 187.421 110.108 188.2 110.108L191.405 110.108C192.184 110.108 192.816 110.473 192.816 110.923L192.816 112.773C192.816 113.223 192.184 113.588 191.405 113.588L188.2 113.588C187.421 113.588 186.789 113.223 186.789 112.773V110.923Z" fill="#A950FF"/>
<path d="M194.155 106.655C194.155 106.213 194.776 105.854 195.542 105.854L198.797 105.854C199.562 105.854 200.183 106.213 200.183 106.655L200.183 108.534C200.183 108.976 199.562 109.334 198.797 109.334L195.542 109.334C194.776 109.334 194.155 108.976 194.155 108.534L194.155 106.655Z" fill="#A950FF"/>
<path d="M179.422 106.655C179.422 106.213 180.042 105.854 180.808 105.854L184.063 105.854C184.829 105.854 185.449 106.213 185.449 106.655L185.449 108.534C185.449 108.976 184.829 109.334 184.063 109.334L180.808 109.334C180.042 109.334 179.422 108.976 179.422 108.534L179.422 106.655Z" fill="#E9C1FF"/>
<path d="M184.038 110.108C184.818 110.108 185.45 110.472 185.45 110.923V112.773C185.45 113.223 184.818 113.588 184.038 113.588L180.834 113.588C180.054 113.588 179.422 113.223 179.422 112.773V110.923C179.422 110.472 180.054 110.108 180.834 110.108L184.038 110.108Z" fill="#CD88FF"/>
<path d="M184.063 114.361C184.829 114.361 185.449 114.719 185.449 115.161L185.449 117.04C185.449 117.483 184.829 117.841 184.063 117.841L180.808 117.841C180.042 117.841 179.422 117.483 179.422 117.04L179.422 115.161C179.422 114.719 180.042 114.361 180.808 114.361L184.063 114.361Z" fill="#A950FF"/>
<path d="M191.405 105.854C192.184 105.854 192.816 106.219 192.816 106.669L192.816 108.519C192.816 108.97 192.184 109.334 191.405 109.334L188.2 109.334C187.421 109.334 186.789 108.97 186.789 108.519L186.789 106.669C186.789 106.219 187.421 105.854 188.2 105.854L191.405 105.854Z" fill="#CD88FF"/>
<path d="M197.513 114.479C199.254 114.479 200.666 115.294 200.666 116.299C200.666 117.305 199.254 118.12 197.513 118.12C195.771 118.12 194.359 117.305 194.359 116.299C194.359 115.294 195.771 114.479 197.513 114.479Z" fill="#F62E76"/>
<path d="M189.65 128.515L189.65 147.852L158.568 129.53L158.568 110.738L189.65 128.515Z" fill="#4A0292"/>
<path d="M189.589 128.264L189.589 147.634L220.929 129.549L220.929 110.777L189.589 128.264Z" fill="#3C0077"/>
<g style="mix-blend-mode:multiply" filter="url(#filter4_f_88_330)">
<circle cx="203.966" cy="118.039" r="14.9726" fill="#9C84FF" style="mix-blend-mode:lighten"/>
</g>
<path d="M131.177 183.111L131.177 192.74L154.047 179.258L154.047 170.031L131.177 183.111Z" fill="#060409"/>
<path d="M131.222 182.928L131.222 192.753L89.3665 169.115L89.3665 159.73L131.222 182.928Z" fill="#14101D"/>
<path d="M131.065 183.174L154.195 170.114L112.193 146.094L89.3375 159.698L131.065 183.174Z" fill="#1D1925" stroke="#819AF5" stroke-width="0.296779"/>
<g clip-path="url(#clip3_88_330)">
<path d="M110.87 160.467L115.326 158.188L124.408 167.565C124.501 167.661 124.533 167.77 124.499 167.876C124.465 167.982 124.366 168.08 124.218 168.156L120.749 169.93C120.637 169.988 120.499 170.031 120.347 170.056C120.196 170.081 120.035 170.087 119.877 170.074C119.72 170.061 119.571 170.028 119.443 169.98C119.315 169.932 119.212 169.868 119.141 169.795L110.68 161.059C110.586 160.962 110.554 160.854 110.589 160.747C110.623 160.641 110.721 160.543 110.87 160.467Z" fill="url(#paint0_linear_88_330)"/>
<path d="M126.54 161.857L119.473 165.472C119.407 165.505 119.363 165.548 119.345 165.595C119.328 165.642 119.338 165.69 119.375 165.734C119.412 165.777 119.474 165.814 119.553 165.839C119.631 165.865 119.723 165.877 119.816 165.876L128.596 165.721C128.851 165.716 129.094 165.662 129.275 165.57L133.276 163.523L126.54 161.857Z" fill="#0078D4"/>
<path d="M110.87 160.467C110.719 160.544 110.62 160.643 110.587 160.751C110.554 160.858 110.59 160.968 110.688 161.064L119.135 169.787C119.203 169.861 119.306 169.926 119.434 169.976C119.562 170.026 119.712 170.059 119.87 170.073C120.029 170.087 120.192 170.081 120.345 170.056C120.499 170.031 120.638 169.988 120.751 169.929L124.309 168.11C124.418 168.03 124.484 167.936 124.499 167.839C124.514 167.742 124.479 167.645 124.397 167.557L122.726 165.825L128.65 165.719C128.885 165.708 129.105 165.656 129.273 165.571L133.26 163.532L126.514 161.871L121.418 164.478L115.343 158.18L110.87 160.467Z" fill="url(#paint1_linear_88_330)"/>
<path d="M117.045 157.803C116.857 157.755 116.644 157.739 116.437 157.756C116.229 157.774 116.038 157.824 115.89 157.9L110.923 160.44C111.071 160.364 111.263 160.314 111.47 160.297C111.677 160.279 111.89 160.295 112.078 160.343L129.16 164.671C129.303 164.707 129.427 164.76 129.522 164.825C129.616 164.891 129.679 164.967 129.705 165.047C129.731 165.128 129.719 165.21 129.67 165.288C129.621 165.365 129.537 165.436 129.425 165.494L134.392 162.953C134.504 162.896 134.588 162.825 134.637 162.747C134.686 162.67 134.698 162.588 134.672 162.507C134.646 162.427 134.583 162.351 134.489 162.285C134.394 162.22 134.27 162.167 134.127 162.13L117.045 157.803Z" fill="url(#paint2_linear_88_330)"/>
</g>
<g style="mix-blend-mode:multiply" filter="url(#filter5_f_88_330)">
<circle cx="142.612" cy="171.152" r="14.9726" fill="#9C84FF" style="mix-blend-mode:lighten"/>
</g>
<defs>
<filter id="filter0_f_88_330" x="151.187" y="24.3136" width="89.1694" height="89.1696" filterUnits="userSpaceOnUse" color-interpolation-filters="sRGB">
<feFlood flood-opacity="0" result="BackgroundImageFix"/>
<feBlend mode="normal" in="SourceGraphic" in2="BackgroundImageFix" result="shape"/>
<feGaussianBlur stdDeviation="14.8061" result="effect1_foregroundBlur_88_330"/>
</filter>
<filter id="filter1_d_88_330" x="146.962" y="114.766" width="85.3732" height="51.2079" filterUnits="userSpaceOnUse" color-interpolation-filters="sRGB">
<feFlood flood-opacity="0" result="BackgroundImageFix"/>
<feColorMatrix in="SourceAlpha" type="matrix" values="0 0 0 0 0 0 0 0 0 0 0 0 0 0 0 0 0 0 127 0" result="hardAlpha"/>
<feOffset dy="2.27193"/>
<feGaussianBlur stdDeviation="1.13597"/>
<feComposite in2="hardAlpha" operator="out"/>
<feColorMatrix type="matrix" values="0 0 0 0 0.432266 0 0 0 0 0.00354165 0 0 0 0 0.846458 0 0 0 1 0"/>
<feBlend mode="screen" in2="BackgroundImageFix" result="effect1_dropShadow_88_330"/>
<feBlend mode="normal" in="SourceGraphic" in2="effect1_dropShadow_88_330" result="shape"/>
</filter>
<filter id="filter2_f_88_330" x="220.57" y="103.775" width="89.1694" height="89.1696" filterUnits="userSpaceOnUse" color-interpolation-filters="sRGB">
<feFlood flood-opacity="0" result="BackgroundImageFix"/>
<feBlend mode="normal" in="SourceGraphic" in2="BackgroundImageFix" result="shape"/>
<feGaussianBlur stdDeviation="14.8061" result="effect1_foregroundBlur_88_330"/>
</filter>
<filter id="filter3_d_88_330" x="137.057" y="80.7055" width="105.064" height="91.6294" filterUnits="userSpaceOnUse" color-interpolation-filters="sRGB">
<feFlood flood-opacity="0" result="BackgroundImageFix"/>
<feColorMatrix in="SourceAlpha" type="matrix" values="0 0 0 0 0 0 0 0 0 0 0 0 0 0 0 0 0 0 127 0" result="hardAlpha"/>
<feOffset dy="2.52603"/>
<feGaussianBlur stdDeviation="15.1857"/>
<feComposite in2="hardAlpha" operator="out"/>
<feColorMatrix type="matrix" values="0 0 0 0 0.396 0 0 0 0 0 0 0 0 0 0.9 0 0 0 1 0"/>
<feBlend mode="normal" in2="BackgroundImageFix" result="effect1_dropShadow_88_330"/>
<feBlend mode="normal" in="SourceGraphic" in2="effect1_dropShadow_88_330" result="shape"/>
</filter>
<filter id="filter4_f_88_330" x="159.381" y="73.4543" width="89.1694" height="89.1696" filterUnits="userSpaceOnUse" color-interpolation-filters="sRGB">
<feFlood flood-opacity="0" result="BackgroundImageFix"/>
<feBlend mode="normal" in="SourceGraphic" in2="BackgroundImageFix" result="shape"/>
<feGaussianBlur stdDeviation="14.8061" result="effect1_foregroundBlur_88_330"/>
</filter>
<filter id="filter5_f_88_330" x="98.0273" y="126.568" width="89.1694" height="89.1696" filterUnits="userSpaceOnUse" color-interpolation-filters="sRGB">
<feFlood flood-opacity="0" result="BackgroundImageFix"/>
<feBlend mode="normal" in="SourceGraphic" in2="BackgroundImageFix" result="shape"/>
<feGaussianBlur stdDeviation="14.8061" result="effect1_foregroundBlur_88_330"/>
</filter>
<linearGradient id="paint0_linear_88_330" x1="117.461" y1="158.172" x2="121.302" y2="169.749" gradientUnits="userSpaceOnUse">
<stop stop-color="#114A8B"/>
<stop offset="1" stop-color="#0669BC"/>
</linearGradient>
<linearGradient id="paint1_linear_88_330" x1="122.479" y1="162.124" x2="122.262" y2="163.077" gradientUnits="userSpaceOnUse">
<stop stop-opacity="0.3"/>
<stop offset="0.071" stop-opacity="0.2"/>
<stop offset="0.321" stop-opacity="0.1"/>
<stop offset="0.623" stop-opacity="0.05"/>
<stop offset="1" stop-opacity="0"/>
</linearGradient>
<linearGradient id="paint2_linear_88_330" x1="114.004" y1="159.532" x2="126.559" y2="170.681" gradientUnits="userSpaceOnUse">
<stop stop-color="#3CCBF4"/>
<stop offset="1" stop-color="#2892DF"/>
</linearGradient>
<clipPath id="clip0_88_330">
<rect width="19.2724" height="19.2724" fill="white" transform="matrix(0.866025 0.5 -2.20305e-08 1 191.16 45.5859)"/>
</clipPath>
<clipPath id="clip1_88_330">
<rect width="23.7423" height="23.7423" fill="white" transform="matrix(0.866025 -0.5 0.866025 0.5 120.721 77.0469)"/>
</clipPath>
<clipPath id="clip2_88_330">
<rect width="19.8469" height="19.8469" fill="white" transform="matrix(0.866025 0.5 -0.866025 0.5 269.069 110.578)"/>
</clipPath>
<clipPath id="clip3_88_330">
<rect width="23.7423" height="23.7423" fill="white" transform="matrix(0.890315 -0.455346 0.890314 0.455346 99.3369 162.812)"/>
</clipPath>
</defs>
</svg>
