<svg width="806" height="601" viewBox="0 0 806 601" fill="none" xmlns="http://www.w3.org/2000/svg">
<g opacity="0.7" filter="url(#filter0_f_11122_10237)">
<rect width="303.043" height="217.292" transform="matrix(-0.999351 -0.0360302 -0.0360302 0.999351 601.646 207.732)" fill="url(#paint0_linear_11122_10237)"/>
</g>
<g filter="url(#filter1_b_11122_10237)">
<ellipse cx="198.056" cy="198.056" rx="198.056" ry="198.056" transform="matrix(1.12678 -0.277104 0.479958 0.650549 75.853 211.841)" fill="black" fill-opacity="0.08"/>
<path d="M607.648 219.384C609.621 221.505 611.509 223.665 613.31 225.864L612.701 226.03C614.06 227.689 615.368 229.371 616.625 231.074C617.882 232.777 619.075 234.487 620.206 236.202L620.835 236.064C622.334 238.337 623.724 240.62 625.005 242.91L624.364 243.03C626.339 246.559 628.056 250.106 629.52 253.664L630.175 253.574C631.148 255.937 632.011 258.305 632.763 260.676L632.101 260.746C633.256 264.384 634.153 268.029 634.796 271.672L635.466 271.632C635.893 274.047 636.208 276.46 636.415 278.87L635.742 278.89C636.058 282.581 636.118 286.264 635.926 289.933L636.599 289.945C636.472 292.368 636.236 294.784 635.892 297.191L635.221 297.159C634.696 300.836 633.92 304.492 632.897 308.118L633.561 308.181C632.887 310.571 632.107 312.949 631.221 315.312L630.563 315.23C629.213 318.831 627.618 322.398 625.785 325.921L626.43 326.032C625.223 328.35 623.914 330.65 622.503 332.927L621.869 332.796C619.722 336.263 617.339 339.681 614.727 343.04L615.341 343.199C613.625 345.405 611.81 347.587 609.898 349.741L609.299 349.564C606.394 352.837 603.264 356.047 599.915 359.184L600.488 359.388C598.291 361.446 596.001 363.473 593.618 365.466L593.064 365.246C589.449 368.27 585.622 371.217 581.588 374.078L582.11 374.324C579.469 376.197 576.74 378.033 573.924 379.831L573.424 379.57C569.16 382.292 564.697 384.925 560.039 387.46L560.501 387.743C557.46 389.398 554.336 391.012 551.131 392.583L550.695 392.286C545.86 394.656 540.839 396.925 535.64 399.086L536.033 399.402C532.646 400.81 529.182 402.173 525.644 403.488L525.28 403.161C519.954 405.141 514.46 407.012 508.801 408.766L509.12 409.109C505.447 410.248 501.706 411.338 497.897 412.377L497.61 412.026C494.736 412.81 491.823 413.566 488.873 414.291C485.922 415.017 482.961 415.706 479.99 416.359L480.23 416.722C476.293 417.588 472.339 418.39 468.372 419.13L468.165 418.76C462.053 419.9 455.909 420.891 449.747 421.737L449.902 422.115C445.809 422.677 441.707 423.174 437.601 423.609L437.48 423.227C431.178 423.893 424.865 424.411 418.555 424.783L418.624 425.169C414.442 425.416 410.262 425.598 406.087 425.717L406.054 425.329C399.661 425.511 393.28 425.546 386.926 425.435L386.906 425.823C382.709 425.75 378.525 425.614 374.355 425.415L374.411 425.028C368.042 424.725 361.709 424.277 355.428 423.686L355.32 424.07C351.179 423.681 347.061 423.23 342.969 422.718L343.111 422.339C336.872 421.559 330.695 420.638 324.594 419.58L324.4 419.952C320.385 419.256 316.403 418.5 312.458 417.685L312.685 417.319C306.68 416.079 300.761 414.704 294.943 413.196L294.667 413.55C290.845 412.559 287.066 411.512 283.335 410.408L283.642 410.062C277.973 408.384 272.413 406.577 266.979 404.644L266.626 404.975C263.062 403.706 259.551 402.384 256.099 401.008L256.481 400.688C251.243 398.602 246.139 396.392 241.182 394.063L240.757 394.364C237.513 392.839 234.332 391.264 231.218 389.638L231.67 389.35C226.955 386.888 222.395 384.311 218.004 381.622L217.514 381.888C214.647 380.132 211.852 378.329 209.132 376.479L209.645 376.227C205.541 373.435 201.611 370.537 197.867 367.535L197.32 367.762C194.881 365.806 192.521 363.806 190.243 361.764L190.809 361.553C187.381 358.479 184.14 355.306 181.101 352.039L180.508 352.223C178.535 350.103 176.647 347.943 174.846 345.744L175.455 345.578C174.096 343.919 172.788 342.237 171.531 340.534C170.274 338.83 169.081 337.121 167.95 335.405L167.32 335.544C165.822 333.27 164.432 330.988 163.151 328.697L163.791 328.578C161.817 325.049 160.1 321.502 158.635 317.944L157.98 318.034C157.007 315.671 156.145 313.303 155.393 310.932L156.055 310.862C154.9 307.223 154.003 303.579 153.36 299.936L152.69 299.975C152.263 297.561 151.948 295.148 151.741 292.737L152.414 292.718C152.097 289.027 152.038 285.343 152.23 281.675L151.557 281.663C151.684 279.24 151.92 276.824 152.264 274.417L152.935 274.449C153.46 270.772 154.236 267.116 155.259 263.489L154.594 263.427C155.269 261.036 156.049 258.658 156.935 256.296L157.593 256.378C158.943 252.776 160.538 249.21 162.371 245.687L161.726 245.575C162.933 243.257 164.242 240.958 165.653 238.68L166.287 238.811C168.434 235.344 170.817 231.927 173.429 228.568L172.815 228.409C174.531 226.202 176.346 224.021 178.258 221.867L178.857 222.044C181.762 218.77 184.892 215.561 188.241 212.424L187.668 212.22C189.865 210.162 192.155 208.135 194.538 206.141L195.092 206.362C198.707 203.338 202.534 200.391 206.568 197.53L206.046 197.284C208.687 195.411 211.416 193.574 214.232 191.777L214.732 192.038C218.996 189.315 223.459 186.683 228.117 184.148L227.655 183.865C230.696 182.209 233.82 180.595 237.025 179.025L237.46 179.322C242.296 176.952 247.316 174.683 252.516 172.521L252.122 172.206C255.51 170.797 258.974 169.435 262.511 168.12L262.876 168.447C268.202 166.467 273.696 164.596 279.355 162.841L279.036 162.499C282.709 161.36 286.45 160.27 290.259 159.23L290.546 159.582C293.42 158.797 296.333 158.042 299.283 157.316C302.234 156.591 305.195 155.902 308.166 155.249L307.926 154.885C311.863 154.02 315.817 153.218 319.784 152.478L319.991 152.848C326.103 151.708 332.247 150.717 338.409 149.871L338.253 149.493C342.347 148.931 346.449 148.433 350.555 147.999L350.676 148.381C356.978 147.714 363.291 147.197 369.601 146.825L369.532 146.438C373.714 146.192 377.894 146.01 382.069 145.891L382.102 146.279C388.495 146.096 394.876 146.062 401.23 146.173L401.25 145.784C405.446 145.858 409.631 145.994 413.8 146.192L413.745 146.58C420.114 146.883 426.447 147.331 432.728 147.922L432.836 147.538C436.977 147.927 441.095 148.378 445.187 148.889L445.045 149.269C451.283 150.049 457.461 150.969 463.562 152.028L463.756 151.656C467.771 152.352 471.753 153.108 475.698 153.923L475.471 154.289C481.476 155.528 487.395 156.904 493.213 158.412L493.489 158.057C497.311 159.048 501.09 160.096 504.821 161.2L504.514 161.546C510.183 163.223 515.742 165.03 521.176 166.964L521.53 166.633C525.094 167.901 528.605 169.224 532.057 170.599L531.675 170.919C536.913 173.006 542.017 175.216 546.973 177.545L547.398 177.244C550.643 178.768 553.824 180.344 556.938 181.97L556.486 182.258C561.201 184.72 565.761 187.297 570.152 189.986L570.641 189.719C573.509 191.475 576.304 193.279 579.024 195.129L578.511 195.381C582.615 198.173 586.545 201.071 590.289 204.073L590.835 203.846C593.275 205.802 595.635 207.801 597.913 209.844L597.347 210.054C600.775 213.129 604.016 216.301 607.055 219.568L607.648 219.384Z" stroke="#9178D6" stroke-width="1.0994" stroke-linejoin="round" stroke-dasharray="15.48 10.15"/>
</g>
<g filter="url(#filter2_d_11122_10237)">
<path d="M437.125 141.04C437.125 147.697 432.399 153.987 424.186 158.689C416.01 163.369 404.624 166.307 391.975 166.307C379.326 166.307 367.94 163.369 359.764 158.689C351.551 153.987 346.825 147.697 346.825 141.04C346.825 134.384 351.551 128.094 359.764 123.392C367.94 118.712 379.326 115.774 391.975 115.774C404.624 115.774 416.01 118.712 424.186 123.392C432.399 128.094 437.125 134.384 437.125 141.04Z" stroke="#AD90FF" stroke-opacity="0.81" stroke-width="2.70856" shape-rendering="crispEdges"/>
</g>
<path fill-rule="evenodd" clip-rule="evenodd" d="M391.975 162.219C417.659 162.219 438.479 150.301 438.479 135.599C438.479 135.586 438.479 135.573 438.479 135.561V114.234L419.725 114.234C411.979 110.932 402.376 108.978 391.975 108.978C381.575 108.978 371.971 110.932 364.225 114.234L345.471 114.234V135.598L345.471 135.598C345.471 135.598 345.471 135.598 345.471 135.599C345.471 150.301 366.292 162.219 391.975 162.219Z" fill="#660BFA"/>
<ellipse cx="391.975" cy="112.595" rx="46.504" ry="26.621" fill="#8C49FA"/>
<g opacity="0.4" filter="url(#filter3_f_11122_10237)">
<ellipse cx="386.976" cy="159.024" rx="45.7444" ry="25.9032" fill="black"/>
</g>
<g filter="url(#filter4_b_11122_10237)">
<circle cx="145.474" cy="145.474" r="145.474" transform="matrix(1.12678 -0.277104 0.479958 0.650549 158.141 229.279)" fill="black" fill-opacity="0.08"/>
<circle cx="145.474" cy="145.474" r="144.924" transform="matrix(1.12678 -0.277104 0.479958 0.650549 158.141 229.279)" stroke="url(#paint1_linear_11122_10237)" stroke-width="1.0994" stroke-linejoin="round" stroke-dasharray="10.92 13.36"/>
</g>
<g filter="url(#filter5_d_11122_10237)">
<path d="M518.49 252.167C532.352 271.51 532.352 293.384 518.49 312.726L517.868 312.578C511.215 321.861 501.353 330.559 488.28 338.107C475.207 345.655 460.142 351.348 444.062 355.19L444.319 355.549C410.817 363.552 372.931 363.552 339.428 355.549L339.686 355.19C323.606 351.348 308.54 345.655 295.468 338.107C282.395 330.559 272.533 321.861 265.88 312.578L265.258 312.726C251.396 293.384 251.396 271.51 265.258 252.167L265.88 252.316C272.533 243.032 282.395 234.334 295.468 226.787C308.54 219.239 323.606 213.545 339.686 209.704L339.429 209.345C372.931 201.342 410.817 201.342 444.319 209.345L444.062 209.704C460.142 213.545 475.208 219.239 488.28 226.787C501.353 234.334 511.215 243.032 517.868 252.316L518.49 252.167Z" stroke="#5F00E8" stroke-width="1.0994" stroke-linejoin="round" stroke-dasharray="61.62 61.62" shape-rendering="crispEdges"/>
</g>
<g filter="url(#filter6_d_11122_10237)">
<path d="M334.105 306.629C318.841 297.817 310.266 285.866 310.266 273.404C310.266 260.942 318.841 248.991 334.105 240.179L391.657 206.954L449.209 240.179C464.473 248.991 473.048 260.942 473.048 273.404C473.048 285.866 464.473 297.817 449.209 306.629C433.946 315.44 413.243 320.391 391.657 320.391C370.071 320.391 349.369 315.44 334.105 306.629V306.629Z" fill="#0A41CF"/>
</g>
<path d="M392.441 279.747L278.475 215.393L392.441 148.36L505.058 215.394L392.441 279.747Z" fill="#6400CA" stroke="url(#paint2_linear_11122_10237)" stroke-width="1.48137"/>
<path d="M391.886 280.279V351.301L277.73 284.009V214.99L391.886 280.279Z" fill="#4A0292"/>
<path d="M391.659 279.354V350.495L506.763 284.071V215.128L391.659 279.354Z" fill="#3C0077"/>
<path d="M381.535 212.968C381.55 211.334 383.81 210.029 386.584 210.053L397.988 210.153C400.762 210.177 402.999 211.521 402.985 213.156L402.927 219.873C402.912 221.507 400.652 222.812 397.878 222.788L386.474 222.688C383.7 222.664 381.462 221.32 381.477 219.686L381.535 212.968Z" fill="#A950FF"/>
<path d="M407.887 197.701C407.901 196.096 410.121 194.814 412.845 194.838L424.429 194.939C427.153 194.963 429.351 196.283 429.337 197.888L429.277 204.711C429.263 206.316 427.043 207.598 424.318 207.574L412.735 207.473C410.01 207.449 407.813 206.129 407.827 204.524L407.887 197.701Z" fill="#A950FF"/>
<path d="M355.454 197.244C355.468 195.639 357.688 194.357 360.413 194.381L371.996 194.482C374.721 194.506 376.918 195.826 376.904 197.431L376.844 204.254C376.83 205.859 374.61 207.141 371.886 207.117L360.302 207.016C357.578 206.992 355.381 205.672 355.395 204.067L355.454 197.244Z" fill="#E9C1FF"/>
<path d="M371.773 209.924C374.547 209.948 376.784 211.292 376.77 212.926L376.711 219.643C376.697 221.278 374.437 222.583 371.662 222.558L360.259 222.459C357.485 222.435 355.247 221.09 355.262 219.456L355.32 212.739C355.334 211.105 357.595 209.8 360.369 209.824L371.773 209.924Z" fill="#CD88FF"/>
<path d="M371.727 225.367C374.451 225.391 376.648 226.711 376.634 228.316L376.575 235.139C376.561 236.744 374.341 238.026 371.616 238.002L360.033 237.901C357.308 237.877 355.111 236.557 355.125 234.952L355.185 228.129C355.199 226.524 357.419 225.242 360.143 225.266L371.727 225.367Z" fill="#A950FF"/>
<path d="M398.123 194.71C400.897 194.734 403.135 196.079 403.12 197.713L403.062 204.43C403.048 206.064 400.787 207.369 398.013 207.345L386.609 207.246C383.835 207.221 381.598 205.877 381.612 204.243L381.671 197.526C381.685 195.891 383.945 194.586 386.72 194.611L398.123 194.71Z" fill="#CD88FF"/>
<path d="M419.586 226.212C425.784 226.266 430.782 229.269 430.751 232.92C430.719 236.571 425.669 239.487 419.471 239.432C413.273 239.378 408.274 236.375 408.306 232.724C408.338 229.073 413.388 226.158 419.586 226.212Z" fill="#F62E76"/>
<mask id="mask0_11122_10237" style="mask-type:alpha" maskUnits="userSpaceOnUse" x="276" y="147" width="231" height="134">
<path d="M505.058 215.394L392.441 279.747L278.475 215.393L392.441 148.36L505.058 215.394Z" fill="#6400CA" stroke="url(#paint3_linear_11122_10237)" stroke-width="1.48137"/>
</mask>
<g mask="url(#mask0_11122_10237)">
<g style="mix-blend-mode:overlay" filter="url(#filter7_f_11122_10237)">
<circle cx="306.563" cy="214.015" r="54.9912" fill="white" style="mix-blend-mode:lighten"/>
</g>
</g>
<g filter="url(#filter8_d_11122_10237)">
<path d="M681.308 281.451C681.308 288.802 676.09 295.748 667.019 300.94C657.991 306.109 645.418 309.353 631.449 309.353C617.48 309.353 604.907 306.109 595.879 300.94C586.808 295.748 581.59 288.802 581.59 281.451C581.59 274.1 586.808 267.154 595.879 261.961C604.907 256.793 617.48 253.548 631.449 253.548C645.418 253.548 657.991 256.793 667.019 261.961C676.09 267.154 681.308 274.1 681.308 281.451Z" stroke="#AD90FF" stroke-opacity="0.81" stroke-width="2.9911" shape-rendering="crispEdges"/>
</g>
<path fill-rule="evenodd" clip-rule="evenodd" d="M631.449 304.839C659.812 304.839 682.804 291.677 682.804 275.441C682.804 275.42 682.804 275.399 682.804 275.379V251.848L662.093 251.848C653.539 248.202 642.934 246.043 631.449 246.043C619.964 246.043 609.359 248.202 600.805 251.848L580.094 251.848V275.44L580.094 275.44C580.094 275.441 580.094 275.441 580.094 275.441C580.094 291.677 603.087 304.839 631.449 304.839Z" fill="#660BFA"/>
<ellipse cx="631.449" cy="250.038" rx="51.355" ry="29.3979" fill="#8C49FA"/>
<g clip-path="url(#clip0_11122_10237)">
<path d="M639.258 231.721L663.053 245.46L651.155 252.329L635.292 252.329L635.292 261.488L623.394 268.357L599.598 254.619L611.496 247.749L627.36 247.749L627.36 238.59M630.334 259.771V250.612L614.47 250.612L607.53 254.619L623.394 263.778M632.317 249.467L648.181 249.467L655.121 245.46L639.258 236.301L632.317 240.308M643.224 243.17L647.19 245.46L645.603 246.376L637.671 246.376M624.98 253.703V258.282L623.394 259.198L619.428 256.908L624.98 253.703Z" fill="white"/>
</g>
<g filter="url(#filter9_d_11122_10237)">
<path d="M424.985 425.888C424.985 433.423 419.636 440.543 410.339 445.865C401.084 451.163 388.197 454.488 373.878 454.488C359.56 454.488 346.672 451.163 337.418 445.865C328.12 440.543 322.771 433.423 322.771 425.888C322.771 418.353 328.12 411.233 337.418 405.911C346.672 400.613 359.56 397.287 373.878 397.287C388.197 397.287 401.084 400.613 410.339 405.911C419.636 411.233 424.985 418.353 424.985 425.888Z" stroke="#AD90FF" stroke-opacity="0.81" stroke-width="3.06594" shape-rendering="crispEdges"/>
</g>
<path fill-rule="evenodd" clip-rule="evenodd" d="M373.878 449.861C402.951 449.861 426.518 436.37 426.518 419.728C426.518 419.727 426.518 419.727 426.518 419.727L426.518 419.727V395.545L405.289 395.545C396.521 391.807 385.651 389.594 373.878 389.594C362.105 389.594 351.235 391.807 342.467 395.545L321.238 395.545V419.682C321.238 419.697 321.238 419.713 321.238 419.728C321.238 436.37 344.806 449.861 373.878 449.861Z" fill="#660BFA"/>
<ellipse cx="373.878" cy="393.689" rx="52.64" ry="30.1335" fill="#8C49FA"/>
<path d="M346.728 378.551C344.588 379.798 342.719 381.089 341.232 382.316C336.851 385.931 337.852 387.625 341.481 389.72L346.274 392.487L358.849 385.227L360.447 386.149L343.152 396.135C339.497 398.245 338.494 401.36 341.672 404.351C345.307 407.783 348.245 409.538 354.452 411.73C359.069 413.363 363.856 413.662 367.511 411.552L371.835 409.056L366.089 405.739C361.939 403.342 361.869 399.155 366.133 396.693L378.694 389.441C382.191 387.422 382.103 384.149 378.591 382.122L366.617 375.208C363.209 373.241 357.774 373.422 353.793 375.064C351.273 376.104 348.868 377.304 346.728 378.551ZM343.782 384.702C345.081 383.953 347.22 383.963 348.546 384.728C349.867 385.49 349.874 386.72 348.575 387.47C347.271 388.222 345.147 388.215 343.826 387.453C342.501 386.687 342.479 385.455 343.782 384.702Z" fill="url(#paint4_linear_11122_10237)"/>
<path d="M374.576 377.992L380.16 381.216C384.489 383.716 384.462 387.939 380.277 390.355L367.716 397.607C364.276 399.593 364.373 402.937 367.819 404.927L379.793 411.84C383.201 413.808 388.169 413.254 392.471 411.899C397.622 410.277 401.651 408.195 405.032 404.647C407.281 402.29 408.558 399.423 404.929 397.328L400.137 394.561L387.576 401.813L385.978 400.89L404.827 390.008C408.481 387.898 407.294 385.64 404.739 382.697C402.112 379.665 398.268 377.51 391.958 375.318C387.417 373.739 382.954 373.155 379.295 375.267L374.576 377.992ZM397.835 399.579C399.139 398.826 401.263 398.833 402.584 399.595C403.91 400.361 403.932 401.593 402.628 402.346C401.329 403.096 399.19 403.086 397.865 402.32C396.544 401.558 396.537 400.329 397.835 399.579Z" fill="url(#paint5_linear_11122_10237)"/>
<g clip-path="url(#clip1_11122_10237)">
<path d="M395.806 94.2873L379.213 103.867L370.917 103.867L358.472 111.052C356.19 112.37 356.19 114.525 358.472 115.842L383.361 130.212C385.643 131.53 389.376 131.53 391.658 130.212L424.844 111.052C427.125 109.735 427.125 107.58 424.844 106.262L404.103 94.2873C401.821 92.97 398.088 92.97 395.806 94.2873ZM420.696 108.657L412.399 113.447L408.251 111.052L404.103 113.447L408.251 115.842L387.51 127.817L366.768 115.842L387.51 103.867L391.658 106.262L395.806 103.867L391.658 101.472L399.954 96.6823L420.696 108.657ZM399.954 106.262L395.806 103.867L399.954 101.472L404.103 103.867L399.954 106.262ZM395.806 108.657L399.954 106.262L404.103 108.657L399.954 111.052L395.806 108.657ZM412.399 108.657L408.251 111.052L404.103 108.657L408.251 106.262L412.399 108.657Z" fill="white"/>
</g>
<g filter="url(#filter10_d_11122_10237)">
<path d="M197.342 288.376C197.342 295.48 192.298 302.194 183.532 307.212C174.806 312.207 162.655 315.343 149.154 315.343C135.654 315.343 123.502 312.207 114.776 307.212C106.01 302.194 100.967 295.48 100.967 288.376C100.967 281.271 106.01 274.558 114.776 269.54C123.502 264.545 135.654 261.409 149.154 261.409C162.655 261.409 174.806 264.545 183.532 269.54C192.298 274.558 197.342 281.271 197.342 288.376Z" stroke="#AD90FF" stroke-opacity="0.81" stroke-width="2.8908" shape-rendering="crispEdges"/>
</g>
<path fill-rule="evenodd" clip-rule="evenodd" d="M149.154 310.98C176.566 310.98 198.787 298.26 198.787 282.568C198.787 282.568 198.787 282.568 198.787 282.567L198.787 282.567V259.766L178.77 259.766C170.503 256.242 160.254 254.156 149.154 254.156C138.054 254.156 127.806 256.242 119.539 259.766L99.5213 259.766V282.52C99.5213 282.536 99.5212 282.552 99.5212 282.568C99.5212 298.26 121.743 310.98 149.154 310.98Z" fill="#660BFA"/>
<ellipse cx="149.154" cy="258.017" rx="49.6329" ry="28.4121" fill="#8C49FA"/>
<g clip-path="url(#clip2_11122_10237)">
<path d="M114.603 255.721V258.311L130.793 258.301L125.123 261.575L128.282 263.399L139.338 257.016L128.282 250.632L125.123 252.456L130.793 255.73M139.338 253.368L142.497 255.192L158.292 246.072L167.769 251.544L170.928 249.72L161.451 244.249C160.613 243.765 159.477 243.493 158.292 243.493C157.107 243.493 155.971 243.765 155.133 244.249M139.338 260.663L155.133 269.783C155.971 270.266 157.107 270.538 158.292 270.538C159.477 270.538 160.613 270.266 161.451 269.783L170.928 264.311L167.769 262.487L158.292 267.959L142.497 258.839M158.829 255.721V258.311L175.035 258.292L170.928 260.663L174.087 262.487L183.564 257.016L174.087 251.544L170.928 253.368L175.019 255.73" fill="white"/>
</g>
<path d="M654.66 515.547C655.015 515.747 655.449 515.746 655.803 515.544L769.474 450.589C769.831 450.384 770.053 450.006 770.057 449.594C770.061 449.183 769.846 448.8 769.492 448.59L655.821 380.929C655.458 380.713 655.006 380.712 654.642 380.926L539.61 448.587C539.253 448.796 539.036 449.181 539.039 449.594C539.043 450.008 539.267 450.388 539.627 450.591L654.66 515.547Z" stroke="#4341AE" stroke-width="2.31403" stroke-linejoin="round"/>
<path d="M652.108 431.661L652.108 502.683L537.952 435.39L537.952 366.372L652.108 431.661Z" fill="#0F0C16"/>
<path d="M651.881 430.736L651.881 501.877L766.985 435.453L766.985 366.51L651.881 430.736Z" fill="black"/>
<path d="M652.669 431.98L537.217 366.788L652.669 298.881L766.754 366.788L652.669 431.98Z" fill="#211B2C"/>
<path d="M682.552 340.436C672.817 336.025 660.604 333.844 648.256 334.31C635.907 334.775 624.29 337.856 615.631 342.96C606.972 348.065 601.879 354.834 601.33 361.972C600.781 369.11 604.812 376.114 612.653 381.642L616.541 379.803C609.484 374.828 605.856 368.525 606.35 362.101C606.845 355.677 611.428 349.584 619.221 344.99C627.014 340.396 637.469 337.624 648.583 337.205C659.697 336.785 670.688 338.749 679.45 342.718L682.552 340.436Z" fill="#2D243D"/>
<path d="M608.934 383.334C602.304 378.645 598.135 372.959 596.917 366.947C595.7 360.935 597.484 354.848 602.061 349.402L615.383 353.134C612.039 357.113 610.734 361.561 611.624 365.954C612.514 370.348 615.56 374.502 620.405 377.929L608.934 383.334Z" fill="#3AFEDB"/>
<line y1="-0.240512" x2="30.6432" y2="-0.240512" transform="matrix(1.10108 0.309638 -0.536309 0.635707 591.423 346.596)" stroke="#3AFE94" stroke-width="0.481024"/>
<path d="M651.798 415.252L652.564 414.81L655.348 415.483L655.382 415.463L654.217 413.856L654.983 413.413L657.922 415.11L657.319 415.458L655.406 414.353L655.382 414.368L656.52 415.903L656.109 416.139L653.444 415.478L653.419 415.492L655.339 416.601L654.736 416.949L651.798 415.252Z" fill="#767676"/>
<path d="M666.483 407.365L665.97 407.069L668.384 405.676L668.896 405.972L667.996 406.491L670.423 407.892L669.809 408.246L667.382 406.846L666.483 407.365Z" fill="#767676"/>
<path d="M682.755 400.773L678.976 399.562L679.654 399.17L682.182 400.068L682.207 400.054L680.702 398.565L681.283 398.23L683.864 399.102L683.89 399.087L682.33 397.625L683.009 397.233L685.106 399.415L684.501 399.765L682.02 398.979L681.997 398.992L683.36 400.423L682.755 400.773Z" fill="#767676"/>
<path d="M694.244 391.337L693.731 391.041L696.145 389.648L696.657 389.944L695.757 390.463L698.184 391.864L697.569 392.219L695.143 390.818L694.244 391.337Z" fill="#767676"/>
<path d="M710.864 384.543L707.926 382.846L709.871 381.723L710.384 382.019L709.059 382.784L709.76 383.188L710.955 382.498L711.467 382.793L710.272 383.483L711.486 384.184L710.864 384.543Z" fill="#767676"/>
<path d="M724.245 374.4C724.118 374.34 723.979 374.317 723.828 374.33C723.677 374.343 723.527 374.393 723.377 374.479C723.276 374.538 723.205 374.595 723.164 374.652C723.121 374.709 723.107 374.762 723.119 374.812C723.132 374.862 723.171 374.905 723.234 374.941C723.285 374.973 723.341 374.993 723.405 375.002C723.469 375.01 723.537 375.01 723.608 375.002C723.679 374.993 723.753 374.978 723.831 374.958C723.907 374.937 723.985 374.912 724.063 374.883L724.39 374.767C724.547 374.71 724.703 374.664 724.858 374.63C725.013 374.596 725.165 374.576 725.313 374.571C725.461 374.566 725.604 374.579 725.742 374.608C725.881 374.638 726.012 374.687 726.135 374.757C726.314 374.862 726.424 374.978 726.465 375.107C726.506 375.235 726.478 375.368 726.38 375.509C726.283 375.648 726.114 375.787 725.875 375.925C725.638 376.062 725.395 376.16 725.146 376.219C724.899 376.279 724.654 376.295 724.413 376.27C724.172 376.244 723.944 376.171 723.727 376.051L724.329 375.704C724.434 375.757 724.544 375.788 724.66 375.798C724.776 375.806 724.892 375.796 725.01 375.766C725.128 375.736 725.24 375.69 725.347 375.628C725.453 375.567 725.529 375.506 725.575 375.443C725.623 375.38 725.641 375.321 725.63 375.264C725.618 375.208 725.577 375.159 725.507 375.119C725.441 375.08 725.365 375.06 725.281 375.056C725.198 375.053 725.103 375.063 724.997 375.088C724.892 375.112 724.773 375.148 724.64 375.195L724.24 375.333C723.932 375.441 723.642 375.5 723.37 375.509C723.099 375.518 722.855 375.459 722.638 375.333C722.46 375.231 722.351 375.114 722.314 374.982C722.278 374.849 722.307 374.713 722.4 374.573C722.494 374.432 722.648 374.3 722.862 374.177C723.08 374.051 723.308 373.962 723.545 373.912C723.783 373.86 724.014 373.847 724.238 373.871C724.462 373.895 724.663 373.957 724.841 374.057L724.245 374.4Z" fill="#767676"/>
<path d="M731.643 369.745L731.131 369.45L733.544 368.056L734.056 368.352L733.157 368.871L735.583 370.272L734.969 370.627L732.542 369.226L731.643 369.745ZM737.587 369.165C737.365 369.293 737.125 369.377 736.867 369.416C736.61 369.454 736.352 369.45 736.094 369.402C735.835 369.354 735.592 369.265 735.366 369.135C735.139 369.003 734.984 368.863 734.902 368.714C734.818 368.564 734.81 368.415 734.877 368.267C734.944 368.118 735.089 367.979 735.312 367.851C735.535 367.722 735.775 367.639 736.032 367.601C736.289 367.561 736.548 367.566 736.807 367.614C737.065 367.661 737.308 367.751 737.536 367.882C737.762 368.013 737.916 368.153 737.999 368.302C738.082 368.451 738.089 368.6 738.022 368.749C737.955 368.897 737.81 369.036 737.587 369.165ZM737.117 368.889C737.218 368.831 737.274 368.766 737.285 368.693C737.294 368.62 737.266 368.545 737.2 368.467C737.135 368.389 737.038 368.312 736.91 368.238C736.782 368.164 736.65 368.109 736.514 368.071C736.379 368.033 736.249 368.017 736.123 368.022C735.996 368.028 735.882 368.06 735.781 368.118C735.679 368.177 735.622 368.244 735.61 368.318C735.6 368.391 735.627 368.467 735.692 368.546C735.758 368.624 735.855 368.7 735.983 368.774C736.112 368.848 736.243 368.904 736.378 368.942C736.514 368.979 736.645 368.995 736.773 368.989C736.9 368.982 737.015 368.949 737.117 368.889ZM739.875 367.836C739.707 367.932 739.512 367.995 739.291 368.024C739.069 368.051 738.834 368.04 738.586 367.988C738.338 367.936 738.092 367.839 737.846 367.697C737.593 367.551 737.424 367.406 737.338 367.263C737.251 367.118 737.233 366.983 737.285 366.858C737.336 366.73 737.443 366.62 737.605 366.527C737.728 366.456 737.852 366.409 737.976 366.385C738.101 366.361 738.219 366.352 738.332 366.359C738.445 366.364 738.544 366.377 738.631 366.395L738.649 366.385L737.544 365.747L738.154 365.395L741.093 367.091L740.49 367.439L740.137 367.235L740.111 367.25C740.144 367.302 740.164 367.361 740.172 367.426C740.179 367.49 740.161 367.557 740.117 367.628C740.074 367.698 739.993 367.767 739.875 367.836ZM739.582 367.443C739.68 367.386 739.737 367.323 739.751 367.253C739.765 367.181 739.742 367.107 739.681 367.03C739.621 366.952 739.525 366.875 739.394 366.8C739.263 366.724 739.131 366.669 738.998 366.634C738.865 366.599 738.738 366.586 738.616 366.596C738.495 366.605 738.385 366.638 738.286 366.695C738.186 366.753 738.128 366.818 738.114 366.889C738.1 366.96 738.123 367.034 738.184 367.11C738.246 367.186 738.34 367.261 738.467 367.335C738.595 367.409 738.726 367.464 738.86 367.5C738.994 367.536 739.123 367.55 739.246 367.543C739.369 367.534 739.481 367.501 739.582 367.443ZM742.265 366.462C742.125 366.543 741.975 366.602 741.816 366.637C741.656 366.672 741.496 366.68 741.335 366.661C741.175 366.641 741.022 366.589 740.876 366.505C740.754 366.435 740.674 366.362 740.635 366.288C740.597 366.214 740.591 366.14 740.618 366.066C740.645 365.992 740.695 365.919 740.767 365.848C740.841 365.775 740.927 365.704 741.026 365.635C741.14 365.554 741.231 365.487 741.298 365.435C741.364 365.383 741.403 365.339 741.414 365.305C741.426 365.271 741.408 365.24 741.361 365.213L741.353 365.208C741.262 365.156 741.163 365.132 741.056 365.136C740.95 365.14 740.844 365.172 740.74 365.232C740.63 365.296 740.567 365.36 740.551 365.426C740.533 365.491 740.551 365.551 740.602 365.605L739.991 365.905C739.886 365.811 739.827 365.711 739.813 365.606C739.799 365.501 739.832 365.395 739.912 365.288C739.993 365.179 740.121 365.074 740.297 364.973C740.419 364.902 740.551 364.843 740.691 364.795C740.833 364.746 740.977 364.714 741.125 364.699C741.273 364.683 741.42 364.687 741.565 364.713C741.709 364.738 741.847 364.788 741.978 364.863L743.465 365.722L742.885 366.056L742.579 365.88L742.562 365.89C742.596 365.95 742.609 366.012 742.602 366.077C742.595 366.141 742.564 366.206 742.511 366.271C742.456 366.335 742.374 366.399 742.265 366.462ZM742.018 366.118C742.108 366.066 742.17 366.01 742.204 365.949C742.236 365.889 742.241 365.829 742.219 365.771C742.197 365.713 742.148 365.662 742.07 365.617L741.836 365.482C741.83 365.5 741.815 365.522 741.792 365.548C741.769 365.572 741.741 365.598 741.709 365.627C741.675 365.655 741.641 365.683 741.607 365.711C741.571 365.738 741.539 365.762 741.511 365.785C741.449 365.832 741.403 365.878 741.373 365.922C741.342 365.966 741.332 366.008 741.341 366.048C741.35 366.087 741.383 366.123 741.44 366.157C741.523 366.205 741.617 366.224 741.721 366.214C741.826 366.204 741.925 366.172 742.018 366.118ZM745.064 365.753C744.986 365.797 744.907 365.836 744.827 365.868C744.749 365.9 744.678 365.923 744.616 365.938L744.298 365.595C744.391 365.567 744.468 365.536 744.527 365.504C744.587 365.472 744.624 365.435 744.638 365.394C744.652 365.353 744.638 365.304 744.596 365.249L744.539 365.174L741.481 364.322L742.124 363.951L744.199 364.622L744.222 364.609L743.064 363.408L743.711 363.035L745.296 364.939C745.374 365.031 745.421 365.123 745.438 365.215C745.457 365.307 745.437 365.397 745.378 365.487C745.32 365.577 745.215 365.665 745.064 365.753Z" fill="#767676"/>
<rect width="12.1299" height="20.4041" rx="2.33268" transform="matrix(0.866025 -0.5 0.866025 0.5 625.35 403.777)" fill="#3AFEDB"/>
<rect width="12.1299" height="39.4243" rx="2.33268" transform="matrix(0.866025 -0.5 0.866025 0.5 622.759 386.253)" fill="#3AFEDB"/>
<rect width="12.1299" height="14.2591" rx="2.33268" transform="matrix(0.866025 -0.5 0.866025 0.5 658.433 390.822)" fill="#FF7A2F"/>
<rect width="12.1299" height="45.5765" rx="2.33268" transform="matrix(0.866025 -0.5 0.866025 0.5 645.192 367.149)" fill="#3AFEDB"/>
<rect width="12.1299" height="35.9129" rx="2.33268" transform="matrix(0.866025 -0.5 0.866025 0.5 667.441 363.967)" fill="#3AFEDB"/>
<rect width="12.1299" height="16.3776" rx="2.33268" transform="matrix(0.866025 -0.5 0.866025 0.5 698.24 365.72)" fill="#FF7A2F"/>
<rect width="12.1299" height="23.2847" rx="2.33268" transform="matrix(0.866025 -0.5 0.866025 0.5 706.139 354.253)" fill="#3AFEDB"/>
<defs>
<filter id="filter0_f_11122_10237" x="148.049" y="53.892" width="596.518" height="513.913" filterUnits="userSpaceOnUse" color-interpolation-filters="sRGB">
<feFlood flood-opacity="0" result="BackgroundImageFix"/>
<feBlend mode="normal" in="SourceGraphic" in2="BackgroundImageFix" result="shape"/>
<feGaussianBlur stdDeviation="71.4607" result="effect1_foregroundBlur_11122_10237"/>
</filter>
<filter id="filter1_b_11122_10237" x="79.2817" y="73.5557" width="629.593" height="424.497" filterUnits="userSpaceOnUse" color-interpolation-filters="sRGB">
<feFlood flood-opacity="0" result="BackgroundImageFix"/>
<feGaussianBlur in="BackgroundImageFix" stdDeviation="36.0828"/>
<feComposite in2="SourceAlpha" operator="in" result="effect1_backgroundBlur_11122_10237"/>
<feBlend mode="normal" in="SourceGraphic" in2="effect1_backgroundBlur_11122_10237" result="shape"/>
</filter>
<filter id="filter2_d_11122_10237" x="332.73" y="104.864" width="118.49" height="78.7244" filterUnits="userSpaceOnUse" color-interpolation-filters="sRGB">
<feFlood flood-opacity="0" result="BackgroundImageFix"/>
<feColorMatrix in="SourceAlpha" type="matrix" values="0 0 0 0 0 0 0 0 0 0 0 0 0 0 0 0 0 0 127 0" result="hardAlpha"/>
<feOffset dy="3.18527"/>
<feGaussianBlur stdDeviation="6.37054"/>
<feComposite in2="hardAlpha" operator="out"/>
<feColorMatrix type="matrix" values="0 0 0 0 0.86125 0 0 0 0 0.87883 0 0 0 0 0.975 0 0 0 0.5 0"/>
<feBlend mode="normal" in2="BackgroundImageFix" result="effect1_dropShadow_11122_10237"/>
<feBlend mode="normal" in="SourceGraphic" in2="effect1_dropShadow_11122_10237" result="shape"/>
</filter>
<filter id="filter3_f_11122_10237" x="303.852" y="95.7411" width="166.248" height="126.565" filterUnits="userSpaceOnUse" color-interpolation-filters="sRGB">
<feFlood flood-opacity="0" result="BackgroundImageFix"/>
<feBlend mode="normal" in="SourceGraphic" in2="BackgroundImageFix" result="shape"/>
<feGaussianBlur stdDeviation="18.6897" result="effect1_foregroundBlur_11122_10237"/>
</filter>
<filter id="filter4_b_11122_10237" x="162.757" y="129.805" width="458.245" height="307.601" filterUnits="userSpaceOnUse" color-interpolation-filters="sRGB">
<feFlood flood-opacity="0" result="BackgroundImageFix"/>
<feGaussianBlur in="BackgroundImageFix" stdDeviation="25.4543"/>
<feComposite in2="SourceAlpha" operator="in" result="effect1_backgroundBlur_11122_10237"/>
<feBlend mode="normal" in="SourceGraphic" in2="effect1_backgroundBlur_11122_10237" result="shape"/>
</filter>
<filter id="filter5_d_11122_10237" x="247.159" y="203.343" width="289.429" height="173.612" filterUnits="userSpaceOnUse" color-interpolation-filters="sRGB">
<feFlood flood-opacity="0" result="BackgroundImageFix"/>
<feColorMatrix in="SourceAlpha" type="matrix" values="0 0 0 0 0 0 0 0 0 0 0 0 0 0 0 0 0 0 127 0" result="hardAlpha"/>
<feOffset dy="7.70222"/>
<feGaussianBlur stdDeviation="3.85111"/>
<feComposite in2="hardAlpha" operator="out"/>
<feColorMatrix type="matrix" values="0 0 0 0 0.432266 0 0 0 0 0.00354165 0 0 0 0 0.846458 0 0 0 1 0"/>
<feBlend mode="screen" in2="BackgroundImageFix" result="effect1_dropShadow_11122_10237"/>
<feBlend mode="normal" in="SourceGraphic" in2="effect1_dropShadow_11122_10237" result="shape"/>
</filter>
<filter id="filter6_d_11122_10237" x="198.719" y="104.684" width="385.877" height="336.532" filterUnits="userSpaceOnUse" color-interpolation-filters="sRGB">
<feFlood flood-opacity="0" result="BackgroundImageFix"/>
<feColorMatrix in="SourceAlpha" type="matrix" values="0 0 0 0 0 0 0 0 0 0 0 0 0 0 0 0 0 0 127 0" result="hardAlpha"/>
<feOffset dy="9.27758"/>
<feGaussianBlur stdDeviation="55.7738"/>
<feComposite in2="hardAlpha" operator="out"/>
<feColorMatrix type="matrix" values="0 0 0 0 0.506336 0 0 0 0 0.118457 0 0 0 0 1 0 0 0 1 0"/>
<feBlend mode="soft-light" in2="BackgroundImageFix" result="effect1_dropShadow_11122_10237"/>
<feBlend mode="normal" in="SourceGraphic" in2="effect1_dropShadow_11122_10237" result="shape"/>
</filter>
<filter id="filter7_f_11122_10237" x="142.813" y="50.2647" width="327.501" height="327.501" filterUnits="userSpaceOnUse" color-interpolation-filters="sRGB">
<feFlood flood-opacity="0" result="BackgroundImageFix"/>
<feBlend mode="normal" in="SourceGraphic" in2="BackgroundImageFix" result="shape"/>
<feGaussianBlur stdDeviation="54.3796" result="effect1_foregroundBlur_11122_10237"/>
</filter>
<filter id="filter8_d_11122_10237" x="566.024" y="241.5" width="130.85" height="86.9362" filterUnits="userSpaceOnUse" color-interpolation-filters="sRGB">
<feFlood flood-opacity="0" result="BackgroundImageFix"/>
<feColorMatrix in="SourceAlpha" type="matrix" values="0 0 0 0 0 0 0 0 0 0 0 0 0 0 0 0 0 0 127 0" result="hardAlpha"/>
<feOffset dy="3.51753"/>
<feGaussianBlur stdDeviation="7.03507"/>
<feComposite in2="hardAlpha" operator="out"/>
<feColorMatrix type="matrix" values="0 0 0 0 0.86125 0 0 0 0 0.87883 0 0 0 0 0.975 0 0 0 0.5 0"/>
<feBlend mode="normal" in2="BackgroundImageFix" result="effect1_dropShadow_11122_10237"/>
<feBlend mode="normal" in="SourceGraphic" in2="effect1_dropShadow_11122_10237" result="shape"/>
</filter>
<filter id="filter9_d_11122_10237" x="306.816" y="384.938" width="134.124" height="89.1115" filterUnits="userSpaceOnUse" color-interpolation-filters="sRGB">
<feFlood flood-opacity="0" result="BackgroundImageFix"/>
<feColorMatrix in="SourceAlpha" type="matrix" values="0 0 0 0 0 0 0 0 0 0 0 0 0 0 0 0 0 0 127 0" result="hardAlpha"/>
<feOffset dy="3.60555"/>
<feGaussianBlur stdDeviation="7.2111"/>
<feComposite in2="hardAlpha" operator="out"/>
<feColorMatrix type="matrix" values="0 0 0 0 0.86125 0 0 0 0 0.87883 0 0 0 0 0.975 0 0 0 0.5 0"/>
<feBlend mode="normal" in2="BackgroundImageFix" result="effect1_dropShadow_11122_10237"/>
<feBlend mode="normal" in="SourceGraphic" in2="effect1_dropShadow_11122_10237" result="shape"/>
</filter>
<filter id="filter10_d_11122_10237" x="85.9229" y="249.765" width="126.463" height="84.0209" filterUnits="userSpaceOnUse" color-interpolation-filters="sRGB">
<feFlood flood-opacity="0" result="BackgroundImageFix"/>
<feColorMatrix in="SourceAlpha" type="matrix" values="0 0 0 0 0 0 0 0 0 0 0 0 0 0 0 0 0 0 127 0" result="hardAlpha"/>
<feOffset dy="3.39958"/>
<feGaussianBlur stdDeviation="6.79917"/>
<feComposite in2="hardAlpha" operator="out"/>
<feColorMatrix type="matrix" values="0 0 0 0 0.86125 0 0 0 0 0.87883 0 0 0 0 0.975 0 0 0 0.5 0"/>
<feBlend mode="normal" in2="BackgroundImageFix" result="effect1_dropShadow_11122_10237"/>
<feBlend mode="normal" in="SourceGraphic" in2="effect1_dropShadow_11122_10237" result="shape"/>
</filter>
<linearGradient id="paint0_linear_11122_10237" x1="151.521" y1="0" x2="151.521" y2="217.292" gradientUnits="userSpaceOnUse">
<stop stop-color="#6218FF" stop-opacity="0"/>
<stop offset="1" stop-color="#6117FF"/>
</linearGradient>
<linearGradient id="paint1_linear_11122_10237" x1="43.8356" y1="54.0126" x2="286.065" y2="295.841" gradientUnits="userSpaceOnUse">
<stop offset="0.015625" stop-color="#B010FB"/>
<stop offset="0.130208" stop-color="#DE97FF"/>
<stop offset="0.234375" stop-color="#A227DB"/>
<stop offset="0.505208" stop-color="#A227DB" stop-opacity="0"/>
<stop offset="0.765625" stop-color="#A610EC" stop-opacity="0.84"/>
</linearGradient>
<linearGradient id="paint2_linear_11122_10237" x1="311.575" y1="172.208" x2="407.828" y2="337.927" gradientUnits="userSpaceOnUse">
<stop offset="0.015625" stop-color="#B010FB"/>
<stop offset="0.130208" stop-color="#DE97FF"/>
<stop offset="0.234375" stop-color="#A227DB"/>
<stop offset="0.505208" stop-color="#A227DB" stop-opacity="0"/>
<stop offset="0.765625" stop-color="#A610EC" stop-opacity="0.84"/>
</linearGradient>
<linearGradient id="paint3_linear_11122_10237" x1="311.575" y1="172.208" x2="407.828" y2="337.927" gradientUnits="userSpaceOnUse">
<stop offset="0.015625" stop-color="#B010FB"/>
<stop offset="0.130208" stop-color="#DE97FF"/>
<stop offset="0.234375" stop-color="#A227DB"/>
<stop offset="0.505208" stop-color="#A227DB" stop-opacity="0"/>
<stop offset="0.765625" stop-color="#A610EC" stop-opacity="0.84"/>
</linearGradient>
<linearGradient id="paint4_linear_11122_10237" x1="320.97" y1="393.421" x2="392.631" y2="383.432" gradientUnits="userSpaceOnUse">
<stop stop-color="#5A9FD4"/>
<stop offset="1" stop-color="#306998"/>
</linearGradient>
<linearGradient id="paint5_linear_11122_10237" x1="399.519" y1="400.9" x2="375.826" y2="394.041" gradientUnits="userSpaceOnUse">
<stop stop-color="#FFD43B"/>
<stop offset="1" stop-color="#FFE873"/>
</linearGradient>
<clipPath id="clip0_11122_10237">
<rect width="54.9541" height="54.9541" fill="white" transform="matrix(0.866025 -0.5 0.866025 0.5 583.734 250.039)"/>
</clipPath>
<clipPath id="clip1_11122_10237">
<rect width="57.48" height="57.48" fill="white" transform="matrix(0.866025 -0.5 0.866025 0.5 341.878 111.052)"/>
</clipPath>
<clipPath id="clip2_11122_10237">
<rect width="43.7726" height="43.7726" fill="white" transform="matrix(0.866025 -0.5 0.866025 0.5 110.907 257.016)"/>
</clipPath>
</defs>
</svg>
