<svg width="177" height="33" viewBox="0 0 177 33" fill="none" xmlns="http://www.w3.org/2000/svg">
<g clip-path="url(#clip0_19348_25253)">
<path d="M8.35221 14.744V15.1581C7.40315 15.1581 7.19153 15.3651 7.19153 15.9392V18.6966H6.76831C6.59517 18.4174 6.47012 18.11 6.31943 18.11C6.06934 18.11 5.46976 18.8409 4.08785 18.8409C1.76971 18.844 0.160156 16.6356 0.160156 14.6969C0.160156 12.087 1.95567 10.1577 4.07503 10.1577C5.54671 10.1577 5.82245 10.7694 6.29378 10.7694C6.49256 10.7694 6.59196 10.6 6.68174 10.4275H7.07931V13.2571H6.72983C6.50539 11.8768 5.71985 10.5718 4.14877 10.5718C2.05507 10.5718 1.60619 12.4885 1.60619 14.7189C1.60619 17.3916 2.77969 18.4268 4.12633 18.4268C5.54671 18.4268 5.97315 17.6959 5.97315 16.3878C5.97315 15.4247 5.63649 15.1549 4.51429 15.1549V14.7408H8.35542L8.35221 14.744Z" fill="white"/>
<path d="M14.1073 18.699H9.53516V18.4073C10.1732 18.4073 10.3207 18.2536 10.3207 17.8426V13.6767C10.3207 13.2658 10.1732 13.1121 9.55119 13.1121V12.8203H12.0489V13.1121C11.3595 13.1121 11.212 13.2658 11.212 13.6767V17.8426C11.212 18.2536 11.4044 18.4073 11.8501 18.4073C12.6004 18.4073 13.5077 18.15 13.8925 16.5031H14.1618L14.1105 18.699H14.1073Z" fill="white"/>
<path d="M20.7602 15.7595C20.7602 17.3405 19.5899 18.7992 17.9162 18.7992C16.2426 18.7992 15.0723 17.3405 15.0723 15.7595C15.0723 14.1784 16.2426 12.7197 17.9162 12.7197C19.5899 12.7197 20.7602 14.1784 20.7602 15.7595ZM16.079 15.7595C16.079 17.6134 16.6562 18.5106 17.913 18.5106C19.1699 18.5106 19.747 17.6134 19.747 15.7595C19.747 13.9055 19.1699 13.0083 17.913 13.0083C16.6562 13.0083 16.079 13.9055 16.079 15.7595Z" fill="white"/>
<path d="M22.6114 13.6767C22.6114 13.2658 22.4639 13.1121 21.8098 13.1121V12.8203H24.6282C26.2858 12.8203 26.8277 13.5732 26.8277 14.2727C26.8277 15.0256 26.0421 15.562 25.1155 15.562V15.5777C26.4077 15.6216 27.1227 16.1832 27.1227 17.0897C27.1227 17.6356 26.6064 18.6959 25.1316 18.6959H21.8066V18.4041C22.4607 18.4041 22.6082 18.2504 22.6082 17.8395V13.6736L22.6114 13.6767ZM24.3653 15.4711C25.5355 15.4711 25.8145 15.0099 25.8145 14.3449C25.8145 13.4571 25.3592 13.1152 24.2947 13.1152C23.5797 13.1152 23.4996 13.3034 23.4996 13.5418V15.4711H24.3653ZM23.4996 15.7597V17.8175C23.4996 18.263 23.6663 18.4073 24.3973 18.4073C25.7247 18.4073 26.1095 17.9367 26.1095 17.0929C26.1095 16.249 25.744 15.7597 24.8879 15.7597H23.4996Z" fill="white"/>
<path d="M27.8281 18.6991V18.4074C28.5367 18.4074 28.7195 18.0247 28.9118 17.5039L30.6753 12.7891H30.9895L32.9005 17.5981C33.1634 18.2568 33.3622 18.4105 33.8688 18.4105V18.7023H31.4416V18.4105C32.0957 18.4105 32.131 18.3415 32.131 18.0937C32.131 17.9149 31.8777 17.231 31.6436 16.7354H29.5852C29.4377 17.2122 29.1844 17.7267 29.1844 17.9651C29.1844 18.2882 29.3575 18.4105 30.111 18.4105V18.7023H27.8345L27.8281 18.6991ZM31.5025 16.3746L30.5759 14.1286L29.7038 16.3746H31.5025Z" fill="white"/>
<path d="M39.0018 18.699H34.4297V18.4073C35.0677 18.4073 35.2152 18.2536 35.2152 17.8426V13.6767C35.2152 13.2658 35.0677 13.1121 34.4457 13.1121V12.8203H36.9434V13.1121C36.2541 13.1121 36.1066 13.2658 36.1066 13.6767V17.8426C36.1066 18.2536 36.299 18.4073 36.7446 18.4073C37.4949 18.4073 38.4023 18.15 38.787 16.5031H39.0564L39.0051 18.699H39.0018Z" fill="white"/>
<path d="M50.7402 13.2566C50.3779 11.5469 49.6052 10.7188 47.7584 10.7188C46.5368 10.7188 46.2867 10.9384 46.2867 11.525V14.0879C47.6333 14.0628 48.1207 13.9404 48.5439 12.5257H48.8934V16.0767H48.5439C48.1207 14.6494 47.6333 14.5271 46.2867 14.502V17.479C46.2867 18.0656 46.5239 18.2852 47.659 18.2852V18.6993H43.8691V18.2852C44.8054 18.2852 45.017 18.0656 45.017 17.479V11.525C45.017 10.9384 44.8054 10.7188 43.8691 10.7188V10.3047H51.0512L51.125 13.2566H50.737H50.7402Z" fill="white"/>
<path d="M52.0879 18.6994V18.2853C52.8125 18.2853 53.037 18.1629 53.037 17.774V13.8935C53.037 13.5014 52.8125 13.3822 52.0879 13.3822V12.9681L54.2072 12.8959V17.7771C54.2072 18.1692 54.4317 18.2884 55.1563 18.2884V18.7025H52.0879V18.6994ZM54.1816 11.0608C54.1816 11.4498 53.8578 11.7447 53.4826 11.7447C53.1075 11.7447 52.7837 11.4529 52.7837 11.0608C52.7837 10.6687 53.1075 10.377 53.4826 10.377C53.8578 10.377 54.1816 10.6687 54.1816 11.0608Z" fill="white"/>
<path d="M58.2071 12.8895V14.0377H58.2327C58.6816 13.2817 59.2812 12.8174 60.1405 12.8174C60.9998 12.8174 62.0001 13.2691 62.0001 15.0509V17.7707C62.0001 18.1628 62.2246 18.282 62.8851 18.282V18.6961H60.8266V14.6211C60.8266 13.5608 60.2912 13.3036 59.8295 13.3036C58.9061 13.3036 58.3065 14.4392 58.3065 15.3646V17.7675C58.3065 18.1597 58.5309 18.2789 59.278 18.2789V18.6929H56.248V18.2789C56.9085 18.2789 57.133 18.1565 57.133 17.7675V13.8871C57.133 13.495 56.9085 13.3758 56.248 13.3758V12.9617L58.2071 12.8895Z" fill="white"/>
<path d="M70.191 17.2815C70.191 18.0752 69.7934 18.7716 68.9053 18.7716C68.171 18.7716 67.9947 18.3073 67.8953 17.6736H67.8696C67.5202 18.5771 66.7859 18.8437 65.8625 18.8437C64.9391 18.8437 64.1055 18.392 64.1055 17.4415C64.1055 16.0393 66.7378 15.4778 67.7959 15.1233V13.9877C67.7959 13.3791 66.9847 13.2317 66.5102 13.2317C66.0741 13.2317 65.7118 13.3038 65.3367 13.536C65.6733 13.5956 65.8721 13.8402 65.8721 14.1822C65.8721 14.5492 65.5739 14.8911 65.1475 14.8911C64.7211 14.8911 64.4229 14.5492 64.4229 14.1822C64.4229 13.4387 65.4072 12.8145 66.5422 12.8145C68.1646 12.8145 68.963 13.2034 68.963 14.499V17.4509C68.963 18.0595 69.1137 18.1348 69.3509 18.1348C69.7485 18.1348 69.8383 17.5733 69.8383 17.2815H70.1878H70.191ZM67.7959 15.5154C66.9238 15.7224 65.4521 16.3341 65.4521 17.3944C65.4521 17.9434 65.7375 18.3355 66.3242 18.3355C67.1098 18.3355 67.7959 17.6172 67.7959 16.5788V15.5185V15.5154Z" fill="white"/>
<path d="M72.8672 12.8895V14.0377H72.8929C73.3418 13.2817 73.9413 12.8174 74.8006 12.8174C75.6599 12.8174 76.6603 13.2691 76.6603 15.0509V17.7707C76.6603 18.1628 76.8847 18.282 77.5452 18.282V18.6961H75.4868V14.6211C75.4868 13.5608 74.9513 13.3036 74.4896 13.3036C73.5662 13.3036 72.9666 14.4392 72.9666 15.3646V17.7675C72.9666 18.1597 73.1911 18.2789 73.9381 18.2789V18.6929H70.9082V18.2789C71.5687 18.2789 71.7931 18.1565 71.7931 17.7675V13.8871C71.7931 13.495 71.5687 13.3758 70.9082 13.3758V12.9617L72.8672 12.8895Z" fill="white"/>
<path d="M84.3431 17.454C83.8333 18.3073 83.0574 18.8437 81.8999 18.8437C80.191 18.8437 78.8828 17.5764 78.8828 15.8291C78.8828 14.0818 80.4667 12.8145 82.1372 12.8145C83.16 12.8145 84.2084 13.3038 84.2084 14.1822C84.2084 14.5963 83.9103 14.9633 83.4357 14.9633C82.9612 14.9633 82.663 14.6715 82.663 14.3045C82.663 13.9375 82.8875 13.7179 83.2979 13.7179C83.3844 13.7179 83.471 13.7305 83.5608 13.743C83.3748 13.3885 82.8746 13.2317 82.1885 13.2317C80.9797 13.2317 80.2295 14.0724 80.2295 15.6973C80.2295 17.2219 80.8034 18.4297 82.1372 18.4297C83.035 18.4297 83.596 17.9403 84.0321 17.3066L84.3431 17.454Z" fill="white"/>
<path d="M85.623 18.6994V18.2853C86.3477 18.2853 86.5721 18.1629 86.5721 17.774V13.8935C86.5721 13.5014 86.3477 13.3822 85.623 13.3822V12.9681L87.7424 12.8959V17.7771C87.7424 18.1692 87.9668 18.2884 88.6915 18.2884V18.7025H85.623V18.6994ZM87.72 11.0608C87.72 11.4498 87.3961 11.7447 87.021 11.7447C86.6459 11.7447 86.322 11.4529 86.322 11.0608C86.322 10.6687 86.6459 10.377 87.021 10.377C87.3961 10.377 87.72 10.6687 87.72 11.0608Z" fill="white"/>
<path d="M96.0523 17.2815C96.0523 18.0752 95.6547 18.7716 94.7666 18.7716C94.0324 18.7716 93.856 18.3073 93.7566 17.6736H93.731C93.3815 18.5771 92.6473 18.8437 91.7238 18.8437C90.8004 18.8437 89.9668 18.392 89.9668 17.4415C89.9668 16.0393 92.5992 15.4778 93.6572 15.1233V13.9877C93.6572 13.3791 92.846 13.2317 92.3715 13.2317C91.9355 13.2317 91.5731 13.3038 91.198 13.536C91.5347 13.5956 91.7335 13.8402 91.7335 14.1822C91.7335 14.5492 91.4353 14.8911 91.0088 14.8911C90.5824 14.8911 90.2842 14.5492 90.2842 14.1822C90.2842 13.4387 91.2685 12.8145 92.4036 12.8145C94.026 12.8145 94.8243 13.2034 94.8243 14.499V17.4509C94.8243 18.0595 94.975 18.1348 95.2123 18.1348C95.6099 18.1348 95.6996 17.5733 95.6996 17.2815H96.0491H96.0523ZM93.6572 15.5154C92.7851 15.7224 91.3134 16.3341 91.3134 17.3944C91.3134 17.9434 91.5988 18.3355 92.1855 18.3355C92.9711 18.3355 93.6572 17.6172 93.6572 16.5788V15.5185V15.5154Z" fill="white"/>
<path d="M96.8242 18.699V18.285C97.5488 18.285 97.7733 18.1626 97.7733 17.7736V11.3052C97.7733 10.9162 97.5488 10.7938 96.8242 10.7938V10.3798L98.9436 10.3076V17.7736C98.9436 18.1658 99.168 18.285 99.8926 18.285V18.699H96.8242Z" fill="white"/>
<path d="M108.607 10.3047V10.7188C107.623 10.7188 107.411 10.9384 107.411 11.525V17.479C107.411 18.0656 107.623 18.2852 108.607 18.2852V18.6993H104.939V18.2852C105.924 18.2852 106.135 18.0656 106.135 17.479V11.525C106.135 10.9384 105.924 10.7188 104.939 10.7188V10.3047H108.607Z" fill="white"/>
<path d="M111.711 12.8895V14.0377H111.737C112.186 13.2817 112.785 12.8174 113.644 12.8174C114.504 12.8174 115.504 13.2691 115.504 15.0509V17.7707C115.504 18.1628 115.728 18.282 116.389 18.282V18.6961H114.331V14.6211C114.331 13.5608 113.795 13.3036 113.333 13.3036C112.41 13.3036 111.81 14.4392 111.81 15.3646V17.7675C111.81 18.1597 112.035 18.2789 112.782 18.2789V18.6929H109.752V18.2789C110.412 18.2789 110.637 18.1565 110.637 17.7675V13.8871C110.637 13.495 110.412 13.3758 109.752 13.3758V12.9617L111.711 12.8895Z" fill="white"/>
<path d="M117.619 18.7716V16.6729H117.969C118.232 17.7113 119.04 18.4297 120.152 18.4297C120.739 18.4297 121.486 18.0752 121.486 17.4164C121.486 15.7193 117.658 16.698 117.658 14.5116C117.658 13.4387 118.642 12.8145 119.777 12.8145C120.838 12.8145 121.188 13.2285 121.399 13.2285C121.598 13.2285 121.662 13.034 121.685 12.9117H122.108V14.6935H121.685C121.31 13.7775 120.861 13.2285 119.79 13.2285C119.242 13.2285 118.655 13.4481 118.655 14.0567C118.655 15.5468 122.483 14.6057 122.483 16.8643C122.483 18.1693 121.387 18.8406 120.165 18.8406C119.03 18.8406 118.693 18.3763 118.305 18.3763C118.081 18.3763 118.02 18.621 117.969 18.7684H117.619V18.7716Z" fill="white"/>
<path d="M125.675 11.0608V12.9649H127.409V13.379H125.675V17.7959C125.675 18.3072 125.998 18.4295 126.361 18.4295C126.848 18.4295 127.271 18.0876 127.271 17.112V16.8548H127.621V17.0618C127.621 18.1597 127.284 18.8436 126.05 18.8436C125.178 18.8436 124.504 18.5644 124.504 17.3535V13.3758H123.594V12.9618C124.754 12.8645 124.902 12.5477 125.229 11.0576H125.678L125.675 11.0608Z" fill="white"/>
<path d="M128.666 18.6994V18.2853C129.391 18.2853 129.615 18.1629 129.615 17.774V13.8935C129.615 13.5014 129.391 13.3822 128.666 13.3822V12.9681L130.785 12.8959V17.7771C130.785 18.1692 131.01 18.2884 131.734 18.2884V18.7025H128.666V18.6994ZM130.763 11.0608C130.763 11.4498 130.439 11.7447 130.064 11.7447C129.689 11.7447 129.365 11.4529 129.365 11.0608C129.365 10.6687 129.689 10.377 130.064 10.377C130.439 10.377 130.763 10.6687 130.763 11.0608Z" fill="white"/>
<path d="M134.79 11.0608V12.9649H136.524V13.379H134.79V17.7959C134.79 18.3072 135.114 18.4295 135.476 18.4295C135.963 18.4295 136.387 18.0876 136.387 17.112V16.8548H136.736V17.0618C136.736 18.1597 136.399 18.8436 135.165 18.8436C134.293 18.8436 133.62 18.5644 133.62 17.3535V13.3758H132.709V12.9618C133.87 12.8645 134.017 12.5477 134.344 11.0576H134.793L134.79 11.0608Z" fill="white"/>
<path d="M142.406 18.7714V17.6233H142.381C141.932 18.3793 141.332 18.8435 140.473 18.8435C139.351 18.8435 138.613 18.0875 138.613 16.6477V13.8903C138.613 13.4981 138.389 13.3789 137.729 13.3789V12.9648H139.787V17.1872C139.787 17.8711 140.063 18.3573 140.723 18.3573C141.746 18.3573 142.195 17.4288 142.307 16.6257V13.8934C142.307 13.5013 142.083 13.3821 141.336 13.3821V12.968H143.481V17.7738C143.481 18.166 143.705 18.2852 144.353 18.2852V18.6992L142.406 18.7714Z" fill="white"/>
<path d="M147.368 11.0608V12.9649H149.103V13.379H147.368V17.7959C147.368 18.3072 147.692 18.4295 148.054 18.4295C148.541 18.4295 148.965 18.0876 148.965 17.112V16.8548H149.314V17.0618C149.314 18.1597 148.978 18.8436 147.743 18.8436C146.871 18.8436 146.198 18.5644 146.198 17.3535V13.3758H145.287V12.9618C146.448 12.8645 146.595 12.5477 146.922 11.0576H147.371L147.368 11.0608Z" fill="white"/>
<path d="M150.363 18.6994V18.2853C151.088 18.2853 151.312 18.1629 151.312 17.774V13.8935C151.312 13.5014 151.088 13.3822 150.363 13.3822V12.9681L152.483 12.8959V17.7771C152.483 18.1692 152.707 18.2884 153.432 18.2884V18.7025H150.363V18.6994ZM152.457 11.0608C152.457 11.4498 152.133 11.7447 151.758 11.7447C151.383 11.7447 151.059 11.4529 151.059 11.0608C151.059 10.6687 151.383 10.377 151.758 10.377C152.133 10.377 152.457 10.6687 152.457 11.0608Z" fill="white"/>
<path d="M160.872 15.832C160.872 17.6013 159.526 18.8467 157.842 18.8467C156.159 18.8467 154.812 17.6013 154.812 15.832C154.812 14.0628 156.159 12.8174 157.842 12.8174C159.526 12.8174 160.872 14.0628 160.872 15.832ZM159.526 15.832C159.526 13.8306 158.852 13.2346 157.842 13.2346C156.832 13.2346 156.159 13.8338 156.159 15.832C156.159 17.8303 156.832 18.4326 157.842 18.4326C158.852 18.4326 159.526 17.8334 159.526 15.832Z" fill="white"/>
<path d="M164.162 12.8895V14.0377H164.188C164.637 13.2817 165.236 12.8174 166.096 12.8174C166.955 12.8174 167.955 13.2691 167.955 15.0509V17.7707C167.955 18.1628 168.18 18.282 168.84 18.282V18.6961H166.782V14.6211C166.782 13.5608 166.246 13.3036 165.785 13.3036C164.861 13.3036 164.262 14.4392 164.262 15.3646V17.7675C164.262 18.1597 164.486 18.2789 165.233 18.2789V18.6929H162.203V18.2789C162.864 18.2789 163.088 18.1565 163.088 17.7675V13.8871C163.088 13.495 162.864 13.3758 162.203 13.3758V12.9617L164.162 12.8895Z" fill="white"/>
</g>
<defs>
<clipPath id="clip0_19348_25253">
<rect width="169" height="9" fill="white" transform="translate(0 10)"/>
</clipPath>
</defs>
</svg>
