<svg width="173" height="175" viewBox="0 0 173 175" fill="none" xmlns="http://www.w3.org/2000/svg">
    <path
        d="M95.2646 164.341C95.013 164.678 95.0821 165.155 95.4189 165.407L100.908 169.507C101.244 169.758 101.722 169.689 101.973 169.353C102.225 169.016 102.156 168.539 101.819 168.287L96.9399 164.643L100.585 159.764C100.836 159.427 100.767 158.95 100.43 158.698C100.093 158.447 99.6164 158.516 99.3648 158.852L95.2646 164.341ZM138.86 144.081L138.339 143.526L138.339 143.526L138.86 144.081ZM166.26 102.609C166.341 100.368 164.59 98.4859 162.349 98.4051C160.108 98.3243 158.226 100.075 158.145 102.316C158.064 104.557 159.815 106.439 162.056 106.52C164.297 106.6 166.179 104.849 166.26 102.609ZM95.9836 165.55C112.252 163.194 127.403 155.893 139.382 144.635L138.339 143.526C126.588 154.569 111.725 161.732 95.7654 164.043L95.9836 165.55ZM139.382 144.635C151.36 133.378 159.587 118.709 162.948 102.618L161.457 102.307C158.161 118.092 150.09 132.482 138.339 143.526L139.382 144.635Z"
        fill="#FCE07C" />
    <circle cx="162.537" cy="102.308" r="9.48536" transform="rotate(-47.3294 162.537 102.308)"
        stroke="url(#paint12_linear_16255_15708)" style="mix-blend-mode:luminosity" opacity="0.3" stroke-width="0.761238" />
    <defs>
        <linearGradient id="paint12_linear_16255_15708" x1="172.403" y1="93.6396" x2="160.588"
            y2="107.18" gradientUnits="userSpaceOnUse">
            <stop stop-color="#683FA5" />
            <stop offset="1" stop-color="#683FA5" stop-opacity="0" />
        </linearGradient>
    </defs>
</svg>