<svg width="100" height="86" viewBox="0 0 100 86" fill="none" xmlns="http://www.w3.org/2000/svg">
<path d="M37.9997 10.6667C34.1098 10.6667 30.3793 12.212 27.6288 14.9625C24.8782 17.713 23.333 21.4436 23.333 25.3334C23.333 26.6667 23.573 28.0001 23.9197 29.3334H34.7997L38.1863 20.3467C38.9863 18.2134 42.133 18.0001 43.1463 20.3467L48.6663 34.6667L50.2397 30.8801C50.5863 30.0001 51.5197 29.3334 52.6663 29.3334H76.0797C76.4263 28.0001 76.6663 26.6667 76.6663 25.3334C76.6663 21.4436 75.1211 17.713 72.3706 14.9625C69.62 12.212 65.8895 10.6667 61.9997 10.6667C57.0397 10.6667 52.6663 13.1467 49.9997 16.9067C47.333 13.1467 42.9597 10.6667 37.9997 10.6667ZM25.9997 33.3334C25.2924 33.3334 24.6142 33.6144 24.1141 34.1145C23.614 34.6146 23.333 35.2928 23.333 36.0001C23.333 36.7073 23.614 37.3856 24.1141 37.8857C24.6142 38.3858 25.2924 38.6667 25.9997 38.6667H32.5063L47.333 53.3334C49.9997 55.7334 49.9997 55.7334 52.6663 53.3334L67.493 38.6667H73.9997C74.7069 38.6667 75.3852 38.3858 75.8853 37.8857C76.3854 37.3856 76.6663 36.7073 76.6663 36.0001C76.6663 35.2928 76.3854 34.6146 75.8853 34.1145C75.3852 33.6144 74.7069 33.3334 73.9997 33.3334H53.733L51.253 39.4667C50.1863 42.1601 47.1197 41.7867 46.133 39.5467L40.6663 25.3334L38.1063 31.5467C37.7063 32.5601 36.7997 33.3334 35.5997 33.3334H25.9997Z" fill="url(#paint0_linear_11912_25998)"/>
<line x1="50.5" y1="74" x2="50.5" y2="86" stroke="#3991FF" stroke-dasharray="2 2"/>
<defs>
<linearGradient id="paint0_linear_11912_25998" x1="52.6739" y1="41.3147" x2="76.1985" y2="43.6291" gradientUnits="userSpaceOnUse">
<stop offset="0.03125" stop-color="#51CFF7"/>
<stop offset="0.96875" stop-color="#4782F5"/>
</linearGradient>
</defs>
</svg>
