<svg width="176" height="106" viewBox="0 0 176 106" fill="none" xmlns="http://www.w3.org/2000/svg">
<g clip-path="url(#clip0_1_312)">
<path d="M18.185 105.583H156.718L87.819 36.685L18.185 105.583Z" fill="#7BB51C"/>
<path d="M15.538 102.195L26.331 91.666L22.736 87.979L15.957 94.595L4.015 82.351L0 86.268L15.538 102.195Z" fill="black"/>
<path d="M28.7 89.268L39.759 78.476L36.722 75.365L29.7 82.215L26.328 78.758L31.955 73.268L28.777 70.013L23.15 75.5L20.261 72.539L27.052 65.912L24.017 62.802L12.993 73.558L28.7 89.268Z" fill="black"/>
<path d="M64.897 38.107C60.437 33.535 52.7 34.082 48.974 37.718C45.247 41.354 43.345 48.604 48.608 53.999C54.389 59.924 61.267 57.772 64.994 54.138C70.489 48.777 68.533 41.834 64.897 38.107ZM61.619 51.007C59.152 53.414 56.136 52.761 52.69 49.228C49.794 46.26 49.968 43.278 52.074 41.223C53.522 39.81 56.463 38.546 59.962 42.133C63.954 46.225 64.086 48.6 61.619 51.007Z" fill="black"/>
<path d="M77.336 41.904L81.416 37.922L75.278 31.631L71.604 16.345L66.927 20.909L69.36 29.581L61.14 26.554L56.73 30.856L70.744 35.356L77.336 41.904Z" fill="black"/>
<path d="M55.582 63.152C55.582 63.152 45.652 59.764 45.18 59.846C45.027 59.871 47.313 53.788 42.177 51.092C42.177 51.092 38.366 49.029 34.552 52.494L26.423 60.505L42.094 76.287L46.24 72.242L37.76 63.552L51.468 67.166L55.582 63.152ZM40.202 60.985C37.898 63.229 37.587 63.406 37.587 63.406C37.587 63.406 33.975 59.704 33.847 59.573C33.719 59.442 36.43 57.118 36.857 56.701C37.038 56.524 38.726 55.423 40.123 56.854C40.123 56.854 42.505 58.737 40.202 60.985Z" fill="black"/>
<path d="M76.07 19.357L72.444 15.701L88.274 0L93.455 5.223L87.752 16.447L99.379 11.196L104.364 16.223L88.534 31.924L84.713 28.072L93.069 19.785L81.638 24.971L79.275 22.588L84.588 11.168L76.07 19.357Z" fill="black"/>
<path d="M103.556 47.069L92.58 36.004L108.411 20.303L119.418 31.401L116.22 34.573L109.324 27.621L106.745 30.178L112.184 35.662L108.854 38.964L103.448 33.513L99.988 36.944L106.819 43.831L103.556 47.069Z" fill="black"/>
<path d="M139.749 51.899L143.828 56.013L131.849 67.893L138.55 74.647L134.698 78.47L123.918 67.601L139.749 51.899Z" fill="black"/>
<path d="M137.547 81.343L153.378 65.642L157.36 69.656L141.529 85.356L137.547 81.343Z" fill="black"/>
<path d="M148.748 92.638L145.024 88.883L160.856 73.183L166.263 78.631L161.643 94.933L172.122 84.539L175.748 88.195L159.918 103.895L155.19 99.131L159.261 82.017L148.748 92.638Z" fill="black"/>
<path d="M132.595 44.686L122.98 34.991L107.116 50.66L111.195 54.772L119.844 46.194L116.731 60.354L120.907 64.565C120.907 64.565 124.199 54.436 124.3 54.014C124.3 54.014 127.867 55.979 131.781 52.614C131.781 52.614 135.535 48.956 132.595 44.686ZM126.724 49.278C126.724 49.278 124.703 50.635 122.922 48.84L120.14 45.902C120.14 45.902 123.501 42.568 123.925 42.147C123.925 42.147 126.515 44.759 126.839 45.085C127.162 45.411 129.204 46.947 126.724 49.278Z" fill="black"/>
</g>
<defs>
<clipPath id="clip0_1_312">
<rect width="175.748" height="105.654" fill="white"/>
</clipPath>
</defs>
</svg>
