<svg width="223" height="33" viewBox="0 0 223 33" fill="none" xmlns="http://www.w3.org/2000/svg">
    <path
        d="M32.1269 0.00436923C32.6723 -0.0321169 33.0595 0.161209 33.4345 0.535619L49.7138 16.8149L59.498 26.6001L62.6151 29.7192C63.1172 30.2201 63.6471 30.7033 64.1298 31.2221C64.3071 31.4127 64.5418 31.7011 64.537 31.977C64.535 32.0746 64.495 32.1577 64.4218 32.2221C64.0705 32.5314 59.8549 32.396 59.1757 32.395L54.3671 32.3969C53.7007 32.3978 52.7862 32.361 52.1425 32.3989C49.5951 32.5489 48.9136 31.935 47.1903 30.2085L44.7802 27.7944L36.2499 19.268L33.8251 16.8344C33.2461 16.251 32.3775 15.1452 31.5175 15.1518C30.4897 15.1599 29.7977 16.344 29.0761 16.9497C26.9608 18.725 28.4402 19.6828 29.8241 21.0649L32.745 23.9809C33.7692 25.0054 40.1762 31.2718 40.3544 31.7143C40.4071 31.8469 40.4181 32.0014 40.3476 32.1303C40.2871 32.2411 40.1436 32.3106 40.0253 32.3442C39.5048 32.4922 38.4074 32.3983 37.8202 32.3979L33.5009 32.394L29.5761 32.3979C26.5237 32.4032 26.2594 32.5078 24.0858 30.3257L21.995 28.2251C20.2876 26.51 19.9216 26.4078 18.1659 28.1684L16.0624 30.2827C15.6056 30.7412 15.075 31.319 14.5526 31.688C13.9775 32.0941 13.0926 32.3905 12.3905 32.3911C8.49982 32.394 4.60443 32.4082 0.713771 32.3852C0.545014 32.3842 0.333554 32.3525 0.188381 32.2632C0.0977309 32.2083 0.0330148 32.1192 0.00869306 32.0161C-0.02108 31.8854 0.0283683 31.6867 0.115138 31.5854C0.921662 30.6471 1.88478 29.7396 2.75674 28.8677L9.246 22.3823L23.7646 7.86277L28.4901 3.13328C29.3494 2.27282 30.208 1.40344 31.08 0.556127C31.4548 0.191858 31.6206 0.11329 32.1269 0.00436923ZM107.318 16.7348C107.407 19.8703 107.192 23.1437 107.379 26.2759C107.575 27.9526 108.36 28.748 110.009 28.8286C113.311 28.9896 112.72 25.1337 112.717 22.8296L112.711 16.7368L117.725 16.7358L117.734 20.2065C117.765 26.5927 118.739 32.2334 110.292 32.4233C102.291 32.6031 102.032 27.7913 102.302 21.4106C102.363 19.9561 102.307 18.1966 102.309 16.7358L107.318 16.7348ZM91.7343 16.4409C94.1687 16.2758 96.296 16.5265 98.3954 17.9751C101.95 20.4196 102.563 25.8701 100.038 29.2514C98.4839 31.3324 96.3878 32.04 93.956 32.3755C91.434 32.4715 89.2565 32.3309 87.1288 30.7661C82.7538 27.5493 83.167 20.0615 88.0478 17.5132C89.3239 16.8471 90.3177 16.6156 91.7343 16.4409ZM195.514 16.4399C197.761 16.1515 200.459 16.698 202.296 18.0678C203.912 19.2806 204.976 21.0912 205.249 23.0942C206.022 28.3979 202.736 31.6917 197.697 32.3794C195.16 32.4676 192.948 32.3139 190.826 30.7085C186.489 27.4281 186.985 19.9301 191.925 17.4565C193.177 16.8296 194.129 16.6079 195.514 16.4399ZM141.142 16.7241C144.311 16.7185 147.354 16.5215 149.935 18.8012C151.36 20.059 152.082 21.9351 152.14 23.8081C152.214 26.2113 151.586 27.9825 149.955 29.7495C147.418 32.2341 144.461 32.0889 141.229 32.0844L136.078 32.0708C136.016 27.017 136.074 21.8039 136.073 16.7387L141.142 16.7241ZM134.679 26.605C134.681 28.0477 134.755 30.6194 134.629 31.979C134.383 32.1211 133.917 32.0748 133.605 32.0737L129.169 32.0747C127.345 28.5775 125.14 25.0909 123.273 21.4927C123.517 24.7741 123.425 28.7434 123.418 32.0737L118.896 32.0747L118.892 16.7368L124.737 16.7387C126.702 19.945 128.492 22.853 130.267 26.1675C130.171 23.025 130.141 19.8805 130.178 16.7368L134.663 16.7358L134.679 26.605ZM162.769 16.7358C164.876 21.7089 166.924 27.0389 168.952 32.0698L163.553 32.0718L162.661 29.5571L162.547 29.3257C162.098 29.1107 157.326 29.2182 156.465 29.2241L155.499 32.0766L150.471 32.0649C152.449 27.0842 154.368 21.7676 156.265 16.7368L162.769 16.7358ZM71.0849 16.7397C75.4535 16.663 80.0454 16.7367 84.4325 16.7368L84.4315 20.2944C81.6384 20.2819 78.8447 20.2913 76.0517 20.3227L76.0526 23.0034C77.0968 23.0207 81.6235 22.8945 82.2675 23.1108L82.3241 23.435L82.3153 26.5991C80.2234 26.6326 78.1583 26.5674 76.0507 26.6401V32.0757L71.0878 32.0698L71.0849 16.7397ZM222.05 16.7368L222.06 26.1645C222.066 27.976 222.129 30.1622 222.025 31.9477C221.818 32.1251 221.647 32.066 221.315 32.0737L216.546 32.0747C214.722 28.5962 212.545 25.0931 210.668 21.5385C210.854 25.0492 210.808 28.5585 210.803 32.0737L206.279 32.0688L206.283 16.7378H212.097C214.076 19.8272 215.938 22.9925 217.673 26.226C217.476 23.1629 217.542 19.822 217.546 16.7348L222.05 16.7368ZM186.831 16.7358C186.893 21.7909 186.834 27.0089 186.835 32.0747L181.815 32.0718L181.818 16.7368L186.831 16.7358ZM180.555 20.2993C178.887 20.2855 177.219 20.2952 175.553 20.3296L175.554 27.0493C175.56 28.7241 175.555 30.3998 175.537 32.0737L170.555 32.0727C170.494 28.2115 170.55 24.1986 170.55 20.3247C168.998 20.2509 167.082 20.2974 165.504 20.2944C165.464 19.1645 165.494 17.8791 165.494 16.7378L180.555 16.7358V20.2993ZM95.6874 27.2759C97.0293 24.4795 96.4677 19.4206 92.3573 19.8413C89.5273 20.374 89.031 23.2753 89.4901 25.7622C89.9127 28.0499 91.2582 28.9691 93.5233 28.9087C94.4701 28.6328 95.2437 28.2003 95.6874 27.2759ZM198.942 27.9868C201.03 25.2431 200.552 19.4926 196.09 19.8413C193.247 20.4027 192.778 23.4297 193.29 25.9067C193.753 28.1428 195.137 28.9921 197.343 28.8999C197.938 28.7119 198.557 28.4934 198.942 27.9868ZM145.377 20.7671C144.319 20.0325 142.322 20.1519 141.056 20.2114L141.054 28.5639C142.899 28.6148 144.493 28.8835 145.9 27.5503L145.966 27.4887C147.252 25.6639 147.377 22.1571 145.377 20.7671ZM159.358 19.9741C158.812 21.884 158.21 23.7786 157.557 25.6548L159.484 25.6567H161.347C161.145 25.0613 159.585 20.3262 159.358 19.9741Z"
        fill="currentColor" />
</svg>