<svg width="267.608" height="35.968" xmlns="http://www.w3.org/2000/svg"><path d="M174.312 11.168h-8.106l3.188 4.575h4.109l-3.455 19.674h7.199l3.461-19.674h8.979L175.51 4.339z" style="fill:#005bac;fill-opacity:1;fill-rule:nonzero;stroke:none;stroke-width:1.33333"/><path d="M33.601 0H.895L0 5.152h12.7L7.379 35.416h7.2L19.9 5.152h12.808z" style="fill:#005bac;fill-opacity:1;fill-rule:nonzero;stroke:none;stroke-width:1.33333"/><path d="M38.927 10.624c-9.152 0-15.01 5.758-16.172 12.45-1.29 7.431 3.276 12.868 12.51 12.868 4.128 0 7.988-.776 11.124-2.518l.974-5.543c-3.064 2.196-6.963 3.423-10.267 3.423-4.604 0-8.264-1.918-7.688-6.315h19.024c.23-.52.504-1.436.703-2.576.922-5.31-.96-11.79-10.208-11.79m3.73 10.091h-12.52c.752-2.48 3.184-5.908 7.612-5.908 4.82 0 5.33 3.664 4.908 5.908" style="fill:#005bac;fill-opacity:1;fill-rule:nonzero;stroke:none;stroke-width:1.33333"/><path d="M70.721 10.625c-4.493 0-7.859 1.861-9.445 3.745h-.168l-6.338-3.745c-.233 2.1-.545 4.955-1.032 7.755l-2.957 17.037h7.197l2.503-14.267c.121-.7.359-1.442.67-1.946 1.074-1.874 3.33-3.598 6.191-3.598 3.93 0 5 2.652 4.396 6.128L69.33 35.417h7.2l2.535-14.401c1.332-7.668-3.384-10.39-8.344-10.39" style="fill:#005bac;fill-opacity:1;fill-rule:nonzero;stroke:none;stroke-width:1.33333"/><path d="M157.086 10.625c-4.496 0-7.859 1.861-9.446 3.745h-.168l-6.337-3.745c-.233 2.1-.545 4.955-1.033 7.755l-2.958 17.037h7.196l2.506-14.267c.12-.7.358-1.442.665-1.946 1.079-1.874 3.333-3.598 6.193-3.598 3.934 0 5 2.652 4.398 6.128l-2.406 13.683h7.198l2.533-14.401c1.332-7.668-3.381-10.39-8.341-10.39" style="fill:#005bac;fill-opacity:1;fill-rule:nonzero;stroke:none;stroke-width:1.33333"/><path d="M125.289 10.624c-9.15 0-15.007 5.758-16.17 12.45-1.29 7.431 3.275 12.868 12.51 12.868 4.126 0 7.99-.776 11.125-2.518l.973-5.543c-3.064 2.196-6.962 3.423-10.268 3.423-4.6 0-8.258-1.918-7.686-6.315h19.026c.227-.52.503-1.436.703-2.576.919-5.31-.965-11.79-10.213-11.79m3.733 10.091h-12.521c.753-2.48 3.185-5.908 7.612-5.908 4.82 0 5.33 3.664 4.91 5.908" style="fill:#005bac;fill-opacity:1;fill-rule:nonzero;stroke:none;stroke-width:1.33333"/><path d="M82.086 22.967C80.78 30.494 86.05 35.94 94.97 35.94c3.545 0 7.781-1.017 9.384-1.613l1.165-6.481c-2.503 2.69-5.893 3.248-8.297 3.248-4.902 0-8.612-2.852-7.748-7.823.75-4.445 4.96-7.863 10.446-7.863 2.236 0 5.267.75 7.18 3.266l1.115-6.592c-1.548-.595-4.027-1.443-7.695-1.443-10.008 0-17.173 5.07-18.434 12.33" style="fill:#005bac;fill-opacity:1;fill-rule:nonzero;stroke:none;stroke-width:1.33333"/><path d="M209.345 3.255c-1.964 10.786-3.728 21.45-5.732 32.194h-4.05c.803-4.051 1.724-8.339 2.406-12.31h-2.886c-.882 4.17-1.805 8.34-2.686 12.31h-4.05c3.407-10.866 5.091-22.052 7.015-34.398h7.577c1.966 0 2.766.32 2.406 2.204m-5.572 10.304h-2.767a581.78 581.78 0 0 1-1.283 6.414h2.887zm.841-9.181h-2.004c-.321 1.924-.641 3.928-1.041 6.013h2.725l1.003-5.252c.12-.601-.12-.761-.683-.761m15.996 26.34h-13.59l-.56-3.088h14.833v.04zm4.49-11.947-.92 4.168h1.963c1.324 0 2.286.282 2.044 1.924-.44 2.967-1.242 7.096-1.884 10.586H215.64l-.88-3.167h7.856c.362-1.685.803-3.73 1.042-5.413.081-.562-.16-.763-.722-.763h-13.309l1.201-6.455c-.96.442-2.404.923-3.808 1.203l.844-3.888c2.486-.6 5.008-1.805 6.572-3.527h-5.932l.682-3.048h7.337c.4-.56.723-1.282.883-1.804h-7.939l.601-3.166h2.847L211.871.729h4.05l.961 4.692h1.403c.441-1.564.762-3.648.802-5.374h4.128c-.078 1.726-.318 3.768-.72 5.374h1.643c.643-1.443 1.283-3.167 1.804-4.692h4.13a89.387 89.387 0 0 1-1.965 4.692h2.887l-.761 3.166h-8.62c-.16.522-.482 1.283-.76 1.804h10.582l-.722 3.048h-6.174c1.323 1.963 4.492 3.448 6.936 3.967l-1.364 3.448c-1.682-.359-3.526-1.163-5.012-2.083m-4.168.56h-8.78l2.647 1.203-.481 2.405h5.813zm1.483-3.006c-.681-.763-1.403-2.006-1.843-2.886h-1.484c-.802 1.002-2.005 2.123-3.046 2.886z" style="fill:#005bac;fill-opacity:1;fill-rule:nonzero;stroke:none;stroke-width:1.33333"/><path d="M234.539 10.35h8.42a444.528 444.528 0 0 1-2.888 17c1.605-1.202 3.288-2.488 4.812-3.81L244 28.713c-2.847 2.405-6.775 5.212-10.383 7.256 1.564-7.256 3.007-14.954 4.05-22.048h-3.768zm9.902-1.884c-.6-2.806-1.362-5.733-2.005-8.458h-4.53c.602 2.764 1.245 5.733 1.766 8.458zm20.567-7.376h-18.721l.8 3.567h13.992c.922 0 1.364.12 1.162 1.164a538.566 538.566 0 0 1-1.644 8.659h-6.093l1.043-6.094-4.25-2.485-1.562 8.579h-4.532l-.602 3.568h4.452c-.924 5.774-2.046 11.665-3.209 17.44h4.85c1.123-5.814 2.246-11.627 3.209-17.44h6.054a712.249 712.249 0 0 1-3.249 17.44h8.58l1.483-3.61h-4.57c1.806-9.178 3.69-18.762 5.292-28.021.36-2.005-.038-2.767-2.485-2.767" style="fill:#005bac;fill-opacity:1;fill-rule:nonzero;stroke:none;stroke-width:1.33333"/></svg>