<?xml version="1.0" encoding="UTF-8"?>
<!-- Generated by Pixelmator Pro 3.6.17 -->
<svg width="72" height="36" viewBox="0 0 72 36" xmlns="http://www.w3.org/2000/svg">
    <clipPath id="clipPath1">
        <path d="M -0.029999 5.746101 L 72.0298 5.746101 L 72.0298 30.150299 L -0.029999 30.150299 Z"/>
    </clipPath>
    <g id="Group" clip-path="url(#clipPath1)">
        <path id="Path" fill="#cc393c" stroke="none" d="M 17.987598 6.427498 C 19.772999 6.427498 21.220497 7.8745 21.220497 9.660103 C 21.220497 11.445999 19.772999 12.893101 17.987598 12.893101 L 3.202999 12.893101 C 1.4174 12.893101 -0.029999 11.445999 -0.029999 9.660103 C -0.029999 7.8745 1.4174 6.427498 3.202999 6.427498 L 17.987598 6.427498 Z"/>
        <path id="path1" fill="#ffffff" stroke="none" d="M 16.501499 14.898598 C 18.287102 14.898598 19.734501 16.3458 19.734501 18.131599 C 19.734501 19.917 18.287102 21.364201 16.501499 21.364201 L 8.086601 21.364201 C 7.3689 21.366798 6.781399 21.934502 6.753899 22.645 L 6.753899 26.858601 C 6.753899 28.644001 5.306499 30.091202 3.5215 30.091202 C 1.735901 30.091202 0.288502 28.644001 0.288502 26.858601 L 0.288502 19.688101 C 0.288502 17.0431 2.432701 14.898598 5.077702 14.898598 L 16.501499 14.898598 Z"/>
        <path id="path2" fill="#ffffff" stroke="none" d="M 22.688599 8.979 C 22.688599 7.1936 24.136002 5.746101 25.921402 5.746101 C 27.7071 5.746101 29.154404 7.1936 29.154404 8.979 L 29.154404 26.881401 C 29.154404 28.667 27.7071 30.114399 25.921402 30.114399 C 24.136002 30.114399 22.688599 28.667 22.688599 26.881401 L 22.688599 8.979 Z"/>
        <path id="path3" fill="#ffffff" stroke="none" d="M 62.477997 23.702099 L 63.777 23.698799 C 64.042999 23.698799 64.258003 23.4832 64.258003 23.217899 C 64.259003 23.150398 64.248001 23.090302 64.223999 23.0336 L 59.392998 14.915802 L 51.846497 27.983398 C 51.263603 28.993801 50.216797 29.570202 49.130402 29.599201 C 49.098503 29.6036 49.066299 29.605999 49.032501 29.605999 L 36.750603 29.605999 C 34.105301 29.605999 31.961098 27.4617 31.961098 24.816799 L 31.961098 8.979 C 31.961098 7.1936 33.4086 5.746101 35.194199 5.746101 C 36.979401 5.746101 38.427002 7.1936 38.427002 8.979 L 38.427002 21.8074 C 38.429199 22.525398 38.996696 23.113098 39.707703 23.139999 L 46.578102 23.139999 C 46.754997 23.085701 47.295303 22.902 47.4599 22.646099 L 56.089996 7.7075 C 56.744003 6.583199 57.961998 5.826202 59.357002 5.826202 C 60.751999 5.826202 61.970001 6.584297 62.622002 7.710999 L 71.030998 21.829201 C 71.656998 22.644402 72.028999 23.664299 72.028999 24.771301 C 72.028999 27.441502 69.863998 29.605999 67.195 29.605999 L 57.392998 29.605999 C 55.761803 29.605999 54.440598 28.2841 54.440598 26.653702 C 54.440598 25.023701 55.761803 23.702099 57.392998 23.702099 L 62.477997 23.702099 Z"/>
    </g>
</svg>
