<?xml version="1.0" encoding="UTF-8"?>
<!-- Generated by Pixelmator Pro 3.6.17 -->
<svg width="86" height="40" viewBox="0 0 86 40" xmlns="http://www.w3.org/2000/svg">
    <path id="Path" fill="#cc393c" stroke="none" d="M 21.8946 6.27853 C 24.000601 6.27853 25.7082 8.057369 25.7082 10.25239 C 25.7082 12.44783 24.000601 14.2267 21.8946 14.2267 L 4.45505 14.2267 C 2.34882 14.2267 0.641479 12.44783 0.641479 10.25239 C 0.641479 8.057369 2.34882 6.27853 4.45505 6.27853 L 21.8946 6.27853 Z"/>
    <path id="path1" fill="#3d3d6a" stroke="none" d="M 20.141701 16.692001 C 22.247999 16.692001 23.955299 18.4711 23.955299 20.6663 C 23.955299 22.861099 22.247999 24.6402 20.141701 24.6402 L 10.2156 24.6402 C 9.36913 24.6434 8.67606 25.341299 8.64366 26.214701 L 8.64366 31.3944 C 8.64366 33.589199 6.93632 35.368301 4.83073 35.368301 C 2.72449 35.368301 1.01716 33.589199 1.01716 31.3944 L 1.01716 22.5797 C 1.01716 19.3283 3.54643 16.692001 6.66645 16.692001 L 20.141701 16.692001 Z"/>
    <path id="path2" fill="#3d3d6a" stroke="none" d="M 27.4398 9.41506 C 27.4398 7.22028 29.1471 5.440918 31.253099 5.440918 C 33.3596 5.440918 35.0667 7.22028 35.0667 9.41506 L 35.0667 31.4224 C 35.0667 33.617401 33.3596 35.396698 31.253099 35.396698 C 29.1471 35.396698 27.4398 33.617401 27.4398 31.4224 L 27.4398 9.41506 Z"/>
    <path id="path3" fill="#3d3d6a" stroke="none" d="M 74.374603 27.5142 L 75.907204 27.510099 C 76.220299 27.510099 76.474503 27.245001 76.474503 26.9189 C 76.4758 26.835899 76.4627 26.7621 76.434303 26.692301 L 70.735901 16.7132 L 61.833801 32.7771 C 61.146198 34.019199 59.9114 34.727798 58.629902 34.763397 C 58.5923 34.768799 58.554298 34.771797 58.5145 34.771797 L 44.0271 34.771797 C 40.906799 34.771797 38.377499 32.135799 38.377499 28.884399 L 38.377499 9.41506 C 38.377499 7.220272 40.0849 5.440918 42.191101 5.440918 C 44.297001 5.440918 46.004501 7.220272 46.004501 9.41506 L 46.004501 25.1849 C 46.007099 26.0676 46.676498 26.7901 47.515202 26.8232 L 55.6194 26.8232 C 55.827999 26.756399 56.465302 26.5305 56.6595 26.216 L 66.838799 7.852039 C 67.611198 6.469971 69.047997 5.539371 70.692596 5.539371 C 72.338203 5.539371 73.775299 6.47134 74.544296 7.856361 L 84.463303 25.2118 C 85.201698 26.2139 85.6408 27.467699 85.6408 28.828501 C 85.6408 32.111 83.087402 34.771797 79.938202 34.771797 L 68.375801 34.771797 C 66.452202 34.771797 64.893799 33.146797 64.893799 31.1425 C 64.893799 29.1387 66.452202 27.5142 68.375801 27.5142 L 74.374603 27.5142 Z"/>
</svg>
