<svg width="76" height="77" viewBox="0 0 76 77" fill="none" xmlns="http://www.w3.org/2000/svg">
<rect x="0.535179" y="0.414329" width="75.0762" height="75.0762" rx="5.76914" fill="#0A0113" stroke="url(#paint0_linear_7347_54326)" stroke-width="0.758346"/>
<path d="M36.1031 32.4417C37.0253 31.5195 38.5205 31.5195 39.4427 32.4417L43.2335 36.2325C44.1557 37.1547 44.1557 38.6499 43.2335 39.5721L39.4427 43.3629C38.5205 44.2851 37.0253 44.2851 36.1031 43.3629L32.3123 39.5721C31.3901 38.6499 31.3901 37.1547 32.3123 36.2325L36.1031 32.4417Z" fill="#A950FF"/>
<path d="M53.563 32.4115C54.4687 31.5058 55.9371 31.5058 56.8428 32.4115L60.6934 36.262C61.5991 37.1677 61.5991 38.6362 60.6934 39.5419L56.8428 43.3924C55.9371 44.2981 54.4687 44.2981 53.563 43.3924L49.7124 39.5419C48.8067 38.6362 48.8067 37.1677 49.7124 36.262L53.563 32.4115Z" fill="#A950FF"/>
<path d="M36.133 14.982C37.0387 14.0763 38.5071 14.0763 39.4128 14.982L43.2634 18.8326C44.1691 19.7383 44.1691 21.2067 43.2634 22.1124L39.4128 25.963C38.5071 26.8687 37.0387 26.8687 36.133 25.963L32.2824 22.1124C31.3767 21.2067 31.3767 19.7383 32.2824 18.8326L36.133 14.982Z" fill="#E9C1FF"/>
<path d="M34.5194 27.5177C35.4416 28.4399 35.4416 29.9351 34.5194 30.8573L30.7286 34.6481C29.8064 35.5703 28.3112 35.5703 27.389 34.6481L23.5982 30.8573C22.676 29.9351 22.676 28.4399 23.5982 27.5177L27.389 23.7269C28.3112 22.8047 29.8064 22.8047 30.7286 23.7269L34.5194 27.5177Z" fill="#CD88FF"/>
<path d="M25.8339 36.262C26.7396 37.1677 26.7396 38.6362 25.8339 39.5419L21.9834 43.3924C21.0777 44.2981 19.6092 44.2981 18.7035 43.3924L14.853 39.5419C13.9473 38.6362 13.9473 37.1677 14.853 36.262L18.7035 32.4115C19.6092 31.5058 21.0777 31.5058 21.9834 32.4115L25.8339 36.262Z" fill="#A950FF"/>
<path d="M51.9487 27.5177C52.8709 28.4399 52.8709 29.9351 51.9487 30.8573L48.1579 34.6481C47.2357 35.5703 45.7405 35.5703 44.8183 34.6481L41.0275 30.8573C40.1053 29.9351 40.1053 28.4399 41.0275 27.5177L44.8183 23.7269C45.7405 22.8047 47.2357 22.8047 48.1579 23.7269L51.9487 27.5177Z" fill="#CD88FF"/>
<path d="M41.5036 52.4139C43.5639 54.4741 43.5639 57.8145 41.5036 59.8748C39.4434 61.9351 36.103 61.9351 34.0427 59.8748C31.9824 57.8145 31.9824 54.4741 34.0427 52.4139C36.103 50.3536 39.4434 50.3536 41.5036 52.4139Z" fill="#F62E76"/>
<defs>
<linearGradient id="paint0_linear_7347_54326" x1="11.5816" y1="14.1134" x2="74.718" y2="77.1452" gradientUnits="userSpaceOnUse">
<stop offset="0.015625" stop-color="#B010FB"/>
<stop offset="0.130208" stop-color="#DE97FF"/>
<stop offset="0.234375" stop-color="#A227DB"/>
<stop offset="0.505208" stop-color="#A227DB" stop-opacity="0"/>
<stop offset="0.765625" stop-color="#A610EC" stop-opacity="0.84"/>
</linearGradient>
</defs>
</svg>
