<svg width="251" height="107" viewBox="0 0 251 107" fill="none" xmlns="http://www.w3.org/2000/svg">
<path fill-rule="evenodd" clip-rule="evenodd" d="M35.3427 32.8559C41.2523 26.1696 51.0393 24.2081 59.085 28.0676C69.7743 33.1959 73.6746 46.2598 67.8545 56.3369L54.7615 78.9817C54.0299 80.2467 52.8261 81.1701 51.4142 81.5484C50.0023 81.9267 48.4981 81.7292 47.2314 80.9999L63.0826 53.5793C67.3049 46.2655 64.4806 36.7853 56.7308 33.0527C50.9152 30.2522 43.8068 31.6512 39.5111 36.4674C37.1412 39.1115 35.8109 42.5251 35.7666 46.0753C35.7222 49.6255 36.9665 53.0713 39.2696 55.7739C39.6835 56.2585 40.1286 56.7157 40.6025 57.1424L31.349 73.1789C30.9872 73.8058 30.5054 74.3549 29.9311 74.7961C29.3569 75.2366 28.7014 75.5598 28.0023 75.7473C27.3031 75.9348 26.5739 75.9826 25.8562 75.8881C25.1385 75.7935 24.4465 75.5587 23.8195 75.1971L33.8655 57.7872C32.4225 55.7066 31.3862 53.372 30.8113 50.9064L24.6553 61.5962C23.9235 62.8617 22.7195 63.7847 21.3077 64.1629C19.8958 64.5418 18.3915 64.3443 17.125 63.6144L33.0445 36.0401C33.7071 34.9077 34.4767 33.8414 35.3427 32.8559ZM53.7167 41.6328C57.5508 43.8471 58.8748 48.7712 56.6562 52.6035L41.3908 78.9783C40.6593 80.2433 39.4549 81.1668 38.043 81.5451C36.6311 81.9234 35.127 81.7259 33.8605 80.9966L48.0353 56.4415C46.8976 56.2023 45.8262 55.7189 44.8938 55.0246C43.9615 54.3309 43.191 53.4428 42.6352 52.4219C42.0795 51.4011 41.7518 50.2719 41.6751 49.1122C41.5983 47.9525 41.7741 46.79 42.1908 45.7048C42.6069 44.6197 43.2539 43.6379 44.0866 42.8272C44.9194 42.0164 45.918 41.396 47.0139 41.0088C48.1098 40.6217 49.2769 40.477 50.434 40.5847C51.5911 40.6925 52.7115 41.0501 53.7167 41.6328ZM48.1643 46.5895C47.9017 46.7909 47.6814 47.0421 47.5162 47.3286C47.267 47.76 47.1507 48.2556 47.1836 48.7528C47.2164 49.2498 47.3955 49.7261 47.6987 50.1213C48.0024 50.5164 48.4158 50.8128 48.8875 50.9729C49.3592 51.1331 49.8683 51.1497 50.3495 51.0207C50.8307 50.8917 51.2623 50.623 51.5911 50.2484C51.9193 49.8739 52.1296 49.4104 52.1947 48.9164C52.2592 48.4225 52.1763 47.9204 51.9561 47.4737C51.7358 47.0268 51.3881 46.6554 50.9564 46.4063C50.6704 46.2409 50.3539 46.1335 50.0262 46.0904C49.698 46.0472 49.3648 46.0691 49.0455 46.1547C48.7262 46.2404 48.4263 46.3881 48.1643 46.5895Z" fill="#615EFF"/>
<path fill-rule="evenodd" clip-rule="evenodd" d="M80.5432 68.3853L91.9841 39.0491H98.6925L110.133 68.3853H103.738L101.274 61.8142H89.4028L86.9384 68.3853H80.5432ZM99.3183 56.5333C98.5362 54.2385 97.8386 52.1852 97.2255 50.3729C96.613 48.5606 95.9872 46.6895 95.348 44.7599C94.7094 46.6895 94.0769 48.5606 93.451 50.3729C92.8385 52.1852 92.1409 54.2385 91.3582 56.5333H99.3183ZM112.07 42.1783C112.07 41.2395 112.357 40.4834 112.93 39.9096C113.504 39.3359 114.26 39.0491 115.199 39.0491C116.137 39.0491 116.894 39.3359 117.468 39.9096C118.041 40.4834 118.328 41.2395 118.328 42.1783C118.328 43.1171 118.041 43.8733 117.468 44.447C116.894 45.0207 116.137 45.3075 115.199 45.3075C114.26 45.3075 113.504 45.0207 112.93 44.447C112.357 43.8733 112.07 43.1171 112.07 42.1783ZM112.382 68.3853V48.8279H118.015V68.3853H112.382ZM122.787 48.8279V68.3853H128.419V59.7604C128.419 57.7004 128.883 56.1161 129.809 55.0079C130.734 53.8867 131.953 53.326 133.466 53.326C134.196 53.326 134.939 53.4499 135.695 53.6977L136.477 48.8279C135.578 48.5671 134.704 48.4367 133.857 48.4367C131.366 48.4367 129.411 49.4993 127.989 51.6245V48.8279H122.787ZM138.629 68.3853V39.0491H144.261V50.764C145.083 50.0339 146.021 49.4667 147.078 49.0625C148.134 48.6453 149.275 48.4367 150.5 48.4367C152.339 48.4367 153.975 48.88 155.409 49.7666C156.843 50.6402 157.971 51.8462 158.792 53.3847C159.614 54.91 160.025 56.6507 160.025 58.6066C160.025 60.5626 159.614 62.3093 158.792 63.8481C157.971 65.3734 156.843 66.5795 155.409 67.4662C153.975 68.3396 152.339 68.7763 150.5 68.7763C149.235 68.7763 148.055 68.561 146.96 68.131C145.865 67.6877 144.907 67.0685 144.085 66.273L143.949 68.3853H138.629ZM149.785 63.887C151.219 63.887 152.406 63.3852 153.344 62.3811C154.284 61.377 154.752 60.1192 154.752 58.6066C154.752 57.094 154.284 55.8357 153.344 54.8321C152.406 53.828 151.219 53.326 149.785 53.326C148.351 53.326 147.165 53.828 146.226 54.8321C145.287 55.8357 144.818 57.094 144.818 58.6066C144.818 60.1192 145.287 61.377 146.226 62.3811C147.165 63.3852 148.351 63.887 149.785 63.887ZM169.436 58.3913L164.859 48.8279H158.973L168.086 67.4073L163.628 78.1639H169.553L181.718 48.8279H175.773L170.492 61.5795C170.362 60.9403 170.205 60.3534 170.023 59.8193C169.84 59.2847 169.645 58.8085 169.436 58.3913ZM182.481 48.8279H185.708V43.9385H191.34V48.8279H196.093V53.7172H191.34V60.9141C191.34 61.8398 191.633 62.5703 192.22 63.1049C192.82 63.6261 193.577 63.887 194.489 63.887C195.167 63.887 195.865 63.7374 196.582 63.437V68.0526C195.343 68.5355 194.124 68.7763 192.925 68.7763C190.604 68.7763 188.818 68.1572 187.566 66.9183C186.327 65.6666 185.708 63.8803 185.708 61.5595V53.7172H182.481V48.8279ZM206.771 62.9285C205.833 62.2509 205.187 61.3709 204.835 60.2883H220.09V58.5871C220.09 56.6184 219.647 54.8711 218.76 53.3456C217.873 51.8201 216.661 50.6206 215.122 49.747C213.597 48.8735 211.849 48.4367 209.881 48.4367C207.899 48.4367 206.126 48.88 204.561 49.7666C203.01 50.6402 201.784 51.8397 200.884 53.3652C199.985 54.8777 199.535 56.605 199.535 58.5476C199.535 60.5164 200.004 62.2771 200.943 63.8286C201.882 65.3668 203.179 66.5795 204.835 67.4662C206.491 68.3396 208.401 68.7763 210.565 68.7763C211.921 68.7763 213.336 68.5549 214.809 68.1116C216.295 67.6682 217.795 66.8532 219.307 65.6666L215.904 61.5989C215.174 62.2899 214.359 62.8567 213.46 63.3001C212.573 63.7307 211.452 63.946 210.096 63.946C208.831 63.946 207.723 63.6066 206.771 62.9285ZM213.959 56.1467C213.647 55.4541 213.201 54.8655 212.619 54.3821C211.772 53.6781 210.754 53.326 209.568 53.326C208.368 53.326 207.325 53.6846 206.439 54.4015C205.844 54.89 205.389 55.4713 205.072 56.1467H213.959Z" fill="#1A194D"/>
</svg>
