<svg width="141" height="46" viewBox="0 0 141 46" fill="none" xmlns="http://www.w3.org/2000/svg">
<path d="M45.1857 9.12053C43.4846 8.23983 41.5967 7.80078 39.5222 7.80078C37.4477 7.80078 35.5742 8.24113 33.9005 9.12053C32.2267 10.0025 30.9068 11.2612 29.9381 12.8979C28.9707 14.5359 28.4863 16.4259 28.4863 18.5731C28.4863 20.7203 28.9694 22.6116 29.9381 24.2496C30.9055 25.8876 32.2267 27.1462 33.9005 28.0256C35.5742 28.9063 37.4477 29.3467 39.5222 29.3467C41.5967 29.3467 43.4846 28.9063 45.1857 28.0256C46.8868 27.1449 48.2198 25.8876 49.1885 24.2496C50.1559 22.6116 50.6403 20.7203 50.6403 18.5731C50.6403 16.4259 50.1559 14.5359 49.1885 12.8979C48.2198 11.2599 46.8855 10.0012 45.1857 9.12053ZM44.999 22.0205C44.4454 23.0259 43.6921 23.7897 42.7378 24.3119C41.7834 24.8341 40.7116 25.0965 39.5222 25.0965C38.3328 25.0965 37.3093 24.8341 36.3693 24.3119C35.4293 23.7897 34.6747 23.0259 34.1081 22.0205C33.5414 21.0164 33.2568 19.8682 33.2568 18.5744C33.2568 17.2806 33.5401 16.1336 34.1081 15.1282C34.6747 14.1241 35.428 13.3603 36.3693 12.8369C37.3093 12.3147 38.3746 12.0536 39.564 12.0536C40.7533 12.0536 41.7834 12.316 42.7378 12.8369C43.6921 13.3603 44.4454 14.1241 44.999 15.1282C45.5512 16.1336 45.8293 17.2819 45.8293 18.5744C45.8293 19.8669 45.5526 21.0164 44.999 22.0205Z" fill="#E0DE2A"/>
<path d="M69.9111 9.1517C68.3261 8.25022 66.5245 7.80078 64.3311 7.80078C62.1378 7.80078 60.3361 8.25022 58.7512 9.1517C57.1662 10.0545 56.0604 11.334 55.0982 12.9966C54.136 14.658 53.6543 16.587 53.6543 18.7848V29.348H58.4117V18.7848C58.4117 17.4053 58.6807 16.2155 59.2186 15.214C59.7565 14.2151 60.5072 13.4539 61.4694 12.933C62.3415 12.4615 63.2971 12.1705 64.3311 12.1705C65.3651 12.1705 66.3221 12.4615 67.1929 12.933C68.1551 13.4539 68.9058 14.2151 69.4437 15.214C69.9816 16.2142 70.2505 17.4053 70.2505 18.7848V29.348H75.008V18.7848C75.008 16.587 74.5262 14.658 73.564 12.9966C72.6005 11.334 71.496 10.0545 69.9111 9.1517Z" fill="#E0DE2A"/>
<path d="M94.7111 9.12053C93.0099 8.23983 91.1221 7.80078 89.0476 7.80078C86.9731 7.80078 85.0996 8.24113 83.4259 9.12053C81.7521 10.0025 80.4322 11.2612 79.4635 12.8979C78.4961 14.5359 78.0117 16.4259 78.0117 18.5731C78.0117 20.7203 78.4948 22.6116 79.4635 24.2496C80.4309 25.8876 81.7521 27.1462 83.4259 28.0256C85.0996 28.9063 86.7629 29.3467 88.8361 29.3467C92.5517 29.3467 94.7907 27.4567 95.3534 26.9852V29.3467H100.166V18.5731C100.166 16.4259 99.6813 14.5359 98.7139 12.8979C97.7452 11.2599 96.4109 10.0012 94.7111 9.12053ZM94.5244 22.0205C93.9708 23.0259 93.2175 23.7897 92.2632 24.3119C91.3088 24.8341 90.2369 25.0965 89.0476 25.0965C87.8582 25.0965 86.8347 24.8341 85.8947 24.3119C84.9534 23.7897 84.2001 23.0259 83.6334 22.0205C83.0668 21.0164 82.7822 19.8682 82.7822 18.5744C82.7822 17.2806 83.0655 16.1336 83.6334 15.1282C84.2001 14.1241 84.9534 13.3603 85.8947 12.8369C86.8347 12.3147 87.9 12.0536 89.0894 12.0536C90.2787 12.0536 91.3088 12.316 92.2632 12.8369C93.2175 13.3603 93.9708 14.1241 94.5244 15.1282C95.0766 16.1336 95.3547 17.2819 95.3547 18.5744C95.3547 19.8669 95.0779 21.0164 94.5244 22.0205Z" fill="#E0DE2A"/>
<path d="M119.543 9.12053C117.869 8.23983 115.996 7.80078 113.921 7.80078C111.847 7.80078 109.966 8.24113 108.279 9.12053C106.591 10.0025 105.263 11.2612 104.296 12.8979C103.328 14.5359 102.844 16.4259 102.844 18.5731V38.0562H107.656V27.6451C107.864 27.7723 108.059 27.91 108.279 28.0243C109.966 28.905 111.847 29.3454 113.921 29.3454C115.996 29.3454 117.869 28.905 119.543 28.0243C121.217 27.1437 122.537 25.8863 123.505 24.2483C124.473 22.6103 124.957 20.719 124.957 18.5718C124.957 16.4246 124.473 14.5346 123.505 12.8966C122.537 11.2586 121.217 9.99993 119.543 9.11923V9.12053ZM119.398 22.0205C118.845 23.0259 118.084 23.7897 117.116 24.3119C116.147 24.8341 115.069 25.0965 113.88 25.0965C112.69 25.0965 111.66 24.8341 110.706 24.3119C109.751 23.7897 108.998 23.0259 108.445 22.0205C107.891 21.0164 107.614 19.8682 107.614 18.5744C107.614 17.2806 107.891 16.1336 108.445 15.1282C108.998 14.1241 109.751 13.3603 110.706 12.8369C111.66 12.3147 112.732 12.0536 113.921 12.0536C115.111 12.0536 116.183 12.316 117.137 12.8369C118.091 13.3603 118.845 14.1241 119.398 15.1282C119.95 16.1336 120.227 17.2819 120.227 18.5744C120.227 19.8669 119.95 21.0164 119.398 22.0205Z" fill="#E0DE2A"/>
<path d="M132.34 7.80078H127.65V29.348H132.34V7.80078Z" fill="#E0DE2A"/>
<path d="M25.823 20.5599C25.6859 21.0755 25.4235 21.564 25.1728 22.0199C24.6193 23.0253 23.866 23.7891 22.9116 24.3113C21.9572 24.8334 20.8854 25.0958 19.696 25.0958C18.5067 25.0958 17.4831 24.8334 16.5431 24.3113C15.6031 23.7891 14.8485 23.0253 14.2819 22.0199C13.7153 21.0158 13.4307 19.8675 13.4307 18.5737C13.4307 17.28 13.714 16.133 14.2819 15.1276C14.8485 14.1235 15.6018 13.3597 16.5431 12.8362C17.4831 12.3153 18.5484 12.0529 19.7378 12.0529C20.9272 12.0529 21.9572 12.3153 22.9116 12.8362C23.866 13.361 24.6193 14.1235 25.1728 15.1276C25.477 15.6809 25.6781 16.2889 25.8139 16.9306C26.0005 15.4419 26.447 14.0923 27.1625 12.8817C27.4824 12.3413 27.8557 11.8568 28.2513 11.3983C27.4445 10.4773 26.4901 9.70831 25.3595 9.12248C23.6584 8.24178 21.7705 7.80273 19.696 7.80273C17.6215 7.80273 15.748 8.24308 14.0743 9.12248C12.4006 10.0045 11.0807 11.2632 10.1119 12.8999C9.14452 14.5379 8.66016 16.4279 8.66016 18.575C8.66016 20.7222 9.14321 22.6135 10.1119 24.2515C11.0794 25.8895 12.4006 27.1469 14.0743 28.0276C15.748 28.9083 17.6215 29.3486 19.696 29.3486C21.7705 29.3486 23.6584 28.9083 25.3595 28.0276C26.498 27.4379 27.4575 26.6637 28.2683 25.7349C27.8649 25.2712 27.4863 24.7815 27.1625 24.2333C26.5097 23.1279 26.0345 21.8978 25.823 20.5612V20.5599Z" fill="#E0DE2A"/>
</svg>
