<svg width="252" height="107" viewBox="0 0 252 107" fill="none" xmlns="http://www.w3.org/2000/svg">
<path d="M80.9362 20.6654C77.9079 18.5713 74.5473 17.5273 70.8544 17.5273C67.1614 17.5273 63.8264 18.5744 60.8469 20.6654C57.8675 22.7626 55.5178 25.7555 53.7934 29.6472C52.0712 33.542 51.209 38.036 51.209 43.1415C51.209 48.247 52.0689 52.7441 53.7934 56.6389C55.5155 60.5337 57.8675 63.5266 60.8469 65.6176C63.8264 67.7117 67.1614 68.7587 70.8544 68.7587C74.5473 68.7587 77.9079 67.7117 80.9362 65.6176C83.9645 63.5235 86.3374 60.5337 88.0618 56.6389C89.784 52.7441 90.6462 48.247 90.6462 43.1415C90.6462 38.036 89.784 33.542 88.0618 29.6472C86.3374 25.7524 83.9622 22.7595 80.9362 20.6654ZM80.6039 51.3388C79.6185 53.7294 78.2775 55.5455 76.5786 56.7871C74.8797 58.0288 72.9716 58.6527 70.8544 58.6527C68.7372 58.6527 66.9151 58.0288 65.2417 56.7871C63.5684 55.5455 62.2251 53.7294 61.2164 51.3388C60.2078 48.9512 59.7011 46.2209 59.7011 43.1446C59.7011 40.0683 60.2055 37.341 61.2164 34.9504C62.2251 32.5629 63.5661 30.7468 65.2417 29.502C66.9151 28.2604 68.8115 27.6396 70.9288 27.6396C73.046 27.6396 74.8797 28.2635 76.5786 29.502C78.2775 30.7468 79.6185 32.5629 80.6039 34.9504C81.587 37.341 82.082 40.0714 82.082 43.1446C82.082 46.2178 81.5893 48.9512 80.6039 51.3388Z" fill="#E0DE2A"/>
<path d="M124.949 20.7395C122.128 18.596 118.92 17.5273 115.016 17.5273C111.112 17.5273 107.904 18.596 105.083 20.7395C102.262 22.8861 100.293 25.9285 98.5802 29.8819C96.8673 33.8323 96.0098 38.419 96.0098 43.6449V68.7618H104.479V43.6449C104.479 40.3648 104.957 37.5356 105.915 35.1543C106.872 32.7791 108.209 30.9691 109.922 29.7306C111.474 28.6094 113.175 27.9176 115.016 27.9176C116.857 27.9176 118.56 28.6094 120.11 29.7306C121.823 30.9691 123.16 32.7791 124.117 35.1543C125.075 37.5325 125.553 40.3648 125.553 43.6449V68.7618H134.022V43.6449C134.022 38.419 133.165 33.8323 131.452 29.8819C129.737 25.9285 127.771 22.8861 124.949 20.7395Z" fill="#E0DE2A"/>
<path d="M169.1 20.6654C166.072 18.5713 162.711 17.5273 159.018 17.5273C155.325 17.5273 151.99 18.5744 149.011 20.6654C146.032 22.7626 143.682 25.7555 141.957 29.6472C140.235 33.542 139.373 38.036 139.373 43.1415C139.373 48.247 140.233 52.7441 141.957 56.6389C143.68 60.5337 146.032 63.5266 149.011 65.6176C151.99 67.7117 154.951 68.7587 158.642 68.7587C165.256 68.7587 169.242 64.2648 170.244 63.1436V68.7587H178.81V43.1415C178.81 38.036 177.948 33.542 176.226 29.6472C174.501 25.7524 172.126 22.7595 169.1 20.6654ZM168.768 51.3388C167.783 53.7294 166.442 55.5455 164.743 56.7871C163.044 58.0288 161.136 58.6527 159.018 58.6527C156.901 58.6527 155.079 58.0288 153.406 56.7871C151.73 55.5455 150.389 53.7294 149.381 51.3388C148.372 48.9512 147.865 46.2209 147.865 43.1446C147.865 40.0683 148.37 37.341 149.381 34.9504C150.389 32.5629 151.73 30.7468 153.406 29.502C155.079 28.2604 156.976 27.6396 159.093 27.6396C161.21 27.6396 163.044 28.2635 164.743 29.502C166.442 30.7468 167.783 32.5629 168.768 34.9504C169.751 37.341 170.246 40.0714 170.246 43.1446C170.246 46.2178 169.753 48.9512 168.768 51.3388Z" fill="#E0DE2A"/>
<path d="M213.301 20.6654C210.322 18.5713 206.987 17.5273 203.294 17.5273C199.601 17.5273 196.252 18.5744 193.249 20.6654C190.244 22.7626 187.881 25.7555 186.159 29.6472C184.436 33.542 183.574 38.036 183.574 43.1415V89.4681H192.141V64.7126C192.51 65.0153 192.859 65.3427 193.249 65.6145C196.252 67.7086 199.601 68.7556 203.294 68.7556C206.987 68.7556 210.322 67.7086 213.301 65.6145C216.281 63.5204 218.631 60.5306 220.355 56.6358C222.077 52.741 222.939 48.2439 222.939 43.1384C222.939 38.0329 222.077 33.5389 220.355 29.6441C218.631 25.7493 216.281 22.7564 213.301 20.6623V20.6654ZM213.043 51.3388C212.058 53.7294 210.703 55.5455 208.981 56.7871C207.257 58.0288 205.337 58.6527 203.22 58.6527C201.102 58.6527 199.269 58.0288 197.57 56.7871C195.871 55.5455 194.53 53.7294 193.545 51.3388C192.559 48.9512 192.066 46.2209 192.066 43.1446C192.066 40.0683 192.559 37.341 193.545 34.9504C194.53 32.5629 195.871 30.7468 197.57 29.502C199.269 28.2604 201.177 27.6396 203.294 27.6396C205.411 27.6396 207.319 28.2635 209.018 29.502C210.717 30.7468 212.058 32.5629 213.043 34.9504C214.027 37.341 214.519 40.0714 214.519 43.1446C214.519 46.2178 214.027 48.9512 213.043 51.3388Z" fill="#E0DE2A"/>
<path d="M236.082 17.5273H227.734V68.7618H236.082V17.5273Z" fill="#E0DE2A"/>
<path d="M46.4683 47.8668C46.2243 49.093 45.7571 50.2543 45.3109 51.3384C44.3255 53.7291 42.9845 55.5452 41.2856 56.7868C39.5867 58.0285 37.6786 58.6524 35.5614 58.6524C33.4442 58.6524 31.6221 58.0285 29.9488 56.7868C28.2754 55.5452 26.9321 53.7291 25.9235 51.3384C24.9148 48.9509 24.4082 46.2206 24.4082 43.1443C24.4082 40.068 24.9125 37.3407 25.9235 34.9501C26.9321 32.5626 28.2731 30.7464 29.9488 29.5017C31.6221 28.2632 33.5186 27.6393 35.6358 27.6393C37.753 27.6393 39.5867 28.2632 41.2856 29.5017C42.9845 30.7495 44.3255 32.5626 45.3109 34.9501C45.8524 36.2658 46.2103 37.7113 46.452 39.2371C46.7844 35.6975 47.5792 32.4884 48.8528 29.6098C49.4222 28.3249 50.0869 27.1729 50.7911 26.0826C49.3548 23.8927 47.6559 22.0642 45.6432 20.6713C42.615 18.5772 39.2544 17.5332 35.5614 17.5332C31.8685 17.5332 28.5334 18.5803 25.554 20.6713C22.5745 22.7685 20.2248 25.7614 18.5004 29.6531C16.7782 33.5478 15.916 38.0418 15.916 43.1474C15.916 48.2529 16.7759 52.75 18.5004 56.6447C20.2225 60.5395 22.5745 63.5293 25.554 65.6234C28.5334 67.7175 31.8685 68.7646 35.5614 68.7646C39.2544 68.7646 42.615 67.7175 45.6432 65.6234C47.6698 64.2212 49.378 62.3804 50.8213 60.172C50.1031 59.0693 49.4292 57.9049 48.8528 56.6015C47.6908 53.9731 46.8448 51.0481 46.4683 47.8699V47.8668Z" fill="#E0DE2A"/>
</svg>
