<svg width="251" height="107" viewBox="0 0 251 107" fill="none" xmlns="http://www.w3.org/2000/svg">
<path d="M115.955 56.7986L107.278 44.2951H103.402V62.5704H106.988V50.1783L115.585 62.5704H119.541V44.2951H115.955V56.7986Z" fill="white"/>
<path d="M131.579 58.2033L126.494 44.2951H122.69L129.625 62.5704H133.527L140.422 44.2951H136.704L131.579 58.2033Z" fill="white"/>
<path d="M197.729 44.2951V58.3632C197.727 58.9169 197.829 59.4655 198.029 59.9775C198.229 60.4895 198.523 60.955 198.894 61.3472C199.266 61.7393 199.707 62.0504 200.192 62.2628C200.678 62.4751 201.198 62.5843 201.724 62.5843H211.253V58.9891H202.635C202.29 58.9892 201.96 58.8475 201.713 58.5941C201.467 58.3407 201.323 57.9958 201.314 57.633V55.0669H210.203V51.5065H201.314V47.8764H211.253V44.2951H197.729Z" fill="white"/>
<path d="M143.737 44.2951V58.3632C143.735 58.9169 143.837 59.4655 144.038 59.9775C144.237 60.4895 144.532 60.955 144.903 61.3472C145.274 61.7393 145.715 62.0504 146.2 62.2628C146.686 62.4751 147.206 62.5843 147.733 62.5843H157.262V58.9891H148.61C148.272 58.9802 147.949 58.8346 147.709 58.5822C147.47 58.3297 147.332 57.9899 147.323 57.633V55.0669H156.212V51.5065H147.323V47.8764H157.229V44.2951H143.737Z" fill="white"/>
<path d="M178.267 44.2951V47.8764H184.415V62.5704H188.002V47.8764H194.149V44.2951H178.267Z" fill="white"/>
<path d="M176.406 50.7629C176.406 46.4514 173.382 44.3095 168.588 44.3095H161.323V62.5848H164.909V57.2093H168.779L172.081 62.5779H176.116L172.576 56.5626C173.737 56.1823 174.743 55.4055 175.436 54.355C176.13 53.3047 176.472 52.0406 176.406 50.7629ZM168.251 53.6419H164.916V47.877H168.251C170.404 47.877 172.635 48.2525 172.635 50.749C172.635 53.2456 170.404 53.628 168.251 53.628V53.6419Z" fill="white"/>
<path d="M72.3958 47.7996C73.4288 47.7538 74.4453 48.0842 75.274 48.7353C76.1027 49.3864 76.693 50.3182 76.9457 51.374L80.2475 50.1014C79.9011 48.3417 78.9214 46.7916 77.5136 45.776C76.002 44.6406 74.1792 44.057 72.3232 44.1139C71.1609 44.0672 70.002 44.2762 68.9207 44.7276C67.8394 45.1791 66.8594 45.8629 66.0431 46.7357C65.233 47.6515 64.6048 48.7286 64.1954 49.9037C63.7859 51.0788 63.6037 52.3282 63.6593 53.5784C63.604 54.8319 63.7863 56.0843 64.1956 57.2628C64.605 58.4412 65.233 59.522 66.0431 60.4421C66.861 61.3109 67.8418 61.9903 68.9232 62.4369C70.0046 62.8835 71.1626 63.0876 72.3232 63.036C74.1747 63.0891 75.9936 62.5164 77.5136 61.4017C78.9118 60.3567 79.8799 58.7903 80.2211 57.0207L76.9193 55.776C76.6563 56.824 76.0626 57.7467 75.2357 58.3924C74.4089 59.0382 73.3981 59.3686 72.3695 59.3294C71.6976 59.3573 71.0282 59.2304 70.4078 58.9577C69.7873 58.6852 69.2308 58.2733 68.777 57.7509C67.8536 56.5848 67.382 55.0948 67.4563 53.5784C67.3732 52.0609 67.846 50.5676 68.777 49.406C69.2313 48.8749 69.791 48.4556 70.4164 48.1779C71.0418 47.9004 71.7177 47.7711 72.3958 47.7996Z" fill="white"/>
<path d="M91.2653 44.0784C90.0883 44.0272 88.9139 44.2331 87.816 44.6831C86.7182 45.1331 85.7207 45.8174 84.8862 46.6931C84.0673 47.6064 83.4299 48.6828 83.0114 49.8591C82.5931 51.0353 82.402 52.2878 82.4495 53.5429C82.3988 54.7992 82.5856 56.0535 82.9995 57.233C83.4133 58.4126 84.0456 59.4937 84.8598 60.4135C85.6945 61.2876 86.6926 61.9694 87.7907 62.4159C88.8888 62.8624 90.063 63.0639 91.2389 63.0074C92.4191 63.0715 93.5989 62.8731 94.7015 62.4249C95.804 61.9768 96.8045 61.289 97.6378 60.4066C98.451 59.4884 99.0815 58.408 99.492 57.2292C99.9025 56.0505 100.085 54.7971 100.028 53.5429C100.082 52.2911 99.8982 51.0407 99.4878 49.8647C99.0773 48.6885 98.4484 47.6104 97.6378 46.6931C96.8072 45.8138 95.8113 45.127 94.7139 44.6767C93.6165 44.2265 92.4419 44.0227 91.2653 44.0784ZM94.884 57.7709C94.4287 58.2995 93.8684 58.7162 93.2431 58.9914C92.6176 59.2666 91.9425 59.3936 91.2653 59.3635C90.5841 59.3949 89.9047 59.2685 89.2748 58.9934C88.645 58.7183 88.0801 58.301 87.6201 57.7709C86.6708 56.5957 86.1821 55.084 86.2531 53.5429C86.1821 52.0019 86.6708 50.49 87.6201 49.3148C88.0935 48.806 88.6586 48.4018 89.2823 48.1257C89.906 47.8497 90.5756 47.7076 91.2521 47.7076C91.9286 47.7076 92.5983 47.8497 93.2219 48.1257C93.8455 48.4018 94.4106 48.806 94.884 49.3148C95.8429 50.4859 96.3412 51.9981 96.2775 53.5429C96.3466 55.0885 95.8477 56.6028 94.884 57.7709Z" fill="white"/>
<path d="M229.189 46.6939C227.454 45.0127 225.182 44.0797 222.824 44.0797C220.465 44.0797 218.193 45.0127 216.457 46.6939C215.644 47.6095 215.011 48.6868 214.597 49.863C214.184 51.0391 213.996 52.2905 214.047 53.5436C213.996 54.7999 214.184 56.0543 214.597 57.2338C215.011 58.4133 215.644 59.4945 216.457 60.4143C218.199 62.0835 220.469 63.0087 222.824 63.0087C225.178 63.0087 227.448 62.0835 229.189 60.4143C230.006 59.4963 230.64 58.4154 231.053 57.2355C231.468 56.0555 231.654 54.8002 231.6 53.5436C231.65 52.2906 231.462 51.0396 231.048 49.8636C230.635 48.6876 230.002 47.6101 229.189 46.6939ZM226.456 57.7717C226 58.3003 225.439 58.7169 224.814 58.9921C224.189 59.2674 223.513 59.3943 222.837 59.3641C222.156 59.3956 221.476 59.2693 220.846 58.9942C220.216 58.719 219.651 58.3017 219.191 57.7717C218.242 56.5965 217.753 55.0848 217.824 53.5436C217.753 52.0025 218.242 50.4908 219.191 49.3156C219.665 48.8067 220.23 48.4024 220.854 48.1264C221.477 47.8505 222.148 47.7083 222.824 47.7083C223.5 47.7083 224.17 47.8505 224.793 48.1264C225.417 48.4024 225.982 48.8067 226.456 49.3156C227.415 50.4867 227.913 51.9988 227.849 53.5436C227.918 55.0893 227.419 56.6036 226.456 57.7717Z" fill="white"/>
<path d="M58.2931 35.665H51.6895L41.335 46.4091C40.3518 47.4253 39.5903 48.6544 39.1029 50.0113C37.6964 42.5774 31.7598 35.665 20.5336 35.665H19.9062V44.3298H20.2562C27.8834 44.4202 30.5909 49.3715 30.5909 53.544C30.5909 57.7164 27.8834 62.6677 20.2562 62.7581H19.9062V71.416H20.5336C31.7598 71.416 37.703 64.5036 39.1029 57.0697C39.5927 58.4253 40.3539 59.6539 41.335 60.6719L51.6961 71.416H58.2997V64.5245L47.7009 53.544L58.2666 42.5635L58.2931 35.665Z" fill="#2BD6D9"/>
</svg>
