<svg width="251" height="107" viewBox="0 0 251 107" fill="none" xmlns="http://www.w3.org/2000/svg">
<path d="M90.6374 90.199V82.2522C90.6374 82.0438 90.5071 81.9135 90.2987 81.9135H87.6932V78.813H90.2987C90.5071 78.813 90.6374 78.6827 90.6374 78.4743V73.4978H94.3373V78.4743C94.3373 78.6827 94.4676 78.813 94.676 78.813H98.3237V81.9135H94.676C94.4676 81.9135 94.3373 82.0438 94.3373 82.2522V89.287C94.3373 92.596 95.5098 92.8826 97.021 92.8826C97.5681 92.8826 98.4019 92.8044 98.8709 92.7523V95.9831C98.2456 96.0613 97.2294 96.1916 96.0569 96.1916C94.6239 96.1134 90.6374 96.1134 90.6374 90.199ZM191.341 92.127L194.364 90.5377C195.041 92.127 196.344 93.1692 197.855 93.1692C199.028 93.1692 200.33 92.6742 200.33 91.2411C200.33 90.2771 199.705 89.73 198.272 89.2349L196.214 88.5575C193.321 87.6716 191.888 86.0041 191.888 83.6592C191.888 80.6889 194.364 78.4743 197.725 78.4743C200.409 78.4743 202.675 79.9334 203.77 82.2001L200.747 83.8676C200.07 82.4086 198.975 81.6009 197.673 81.6009C196.37 81.6009 195.484 82.2783 195.484 83.3205C195.484 84.2063 196.161 84.9098 197.542 85.3267L199.601 86.0041C202.623 86.9682 204.056 88.6357 204.056 90.9024C204.056 94.498 200.982 96.3479 197.881 96.3479C194.781 96.2697 192.305 94.6804 191.341 92.127ZM179.955 89.0265C179.877 89.1047 179.825 89.1568 179.825 89.2349V95.8529H176.047V71.3613H179.825V84.7535C179.825 84.8838 179.903 85.0401 180.033 85.0401C180.164 85.1183 180.32 85.0401 180.372 84.9619L186.469 78.7609H191.055L183.942 85.9781C183.811 86.1084 183.811 86.2647 183.942 86.3949L191.68 95.8529H187.094L181.128 88.4012C181.049 88.323 180.997 88.2709 180.919 88.2709C180.841 88.2709 180.789 88.2709 180.711 88.3491L179.955 89.0265ZM174.197 81.0798L171.8 83.3465C170.419 82.3043 169.064 81.8354 167.553 81.8354C164.4 81.8354 162.055 84.1803 162.055 87.359C162.055 90.5377 164.4 92.8826 167.553 92.8826C168.934 92.8826 170.367 92.3876 171.878 91.3714L174.014 93.6382C170.94 95.905 169.272 96.3218 167.162 96.3218C164.635 96.3218 162.368 95.436 160.726 93.7685C159.137 92.1791 158.251 89.8342 158.251 87.359C158.251 82.1741 162.029 78.3961 167.24 78.3961C168.908 78.3961 171.461 78.6567 174.197 81.0798ZM156.505 73.7063C156.505 74.9569 155.489 75.973 154.238 75.973C153.014 75.973 151.972 74.9308 151.972 73.7063C151.972 72.4556 152.988 71.4395 154.238 71.4395C155.463 71.4134 156.505 72.4556 156.505 73.7063ZM156.141 95.8529H152.362V78.813H156.141V95.8529ZM144.155 88.4012V95.931H140.377V78.8912H144.077V80.9495C144.077 81.0798 144.155 81.2361 144.285 81.2882C144.416 81.3664 144.572 81.2882 144.624 81.1579C145.588 79.5686 147.36 78.5264 149.288 78.5264C149.575 78.5264 149.757 78.5264 149.913 78.6046V82.4607C149.705 82.3825 149.366 82.3825 149.027 82.3825C146.005 82.3304 144.155 84.6753 144.155 88.4012ZM123.91 87.359C123.91 84.2585 126.255 81.8354 129.251 81.8354C132.274 81.8354 134.593 84.2585 134.593 87.359C134.593 90.4595 132.248 92.8826 129.251 92.8826C126.255 92.8826 123.91 90.4595 123.91 87.359ZM124.249 93.8466C124.327 93.8466 124.327 93.8466 124.379 93.8466C124.457 93.8466 124.588 93.9248 124.666 93.9769C125.968 95.4881 127.897 96.3218 130.085 96.3218C134.749 96.3218 138.319 92.3876 138.319 87.359C138.319 84.8838 137.485 82.6691 135.922 80.9495C134.41 79.282 132.274 78.3961 130.033 78.3961C127.897 78.3961 125.916 79.282 124.614 80.8713C124.535 80.9495 124.405 81.0016 124.275 80.9495C124.145 80.8713 124.066 80.8192 124.066 80.6629V71.4134H120.288V95.905H124.066V94.1853C124.04 93.9769 124.119 93.9248 124.249 93.8466ZM108.616 92.8826C105.671 92.8826 103.274 90.4595 103.274 87.359C103.274 84.2585 105.619 81.8354 108.616 81.8354C111.638 81.8354 113.957 84.2585 113.957 87.359C113.957 90.4595 111.56 92.8826 108.616 92.8826ZM117.474 95.8529V78.813H113.775V80.5326C113.775 80.6629 113.696 80.8192 113.566 80.8192C113.436 80.8974 113.28 80.8192 113.227 80.7411C112.003 79.2299 110.075 78.3961 107.808 78.3961C103.144 78.3961 99.5744 82.3304 99.5744 87.359C99.5744 92.3876 103.222 96.3218 107.808 96.3218C109.944 96.3218 111.925 95.436 113.227 93.8466C113.306 93.7164 113.436 93.7164 113.566 93.7685C113.696 93.8466 113.775 93.8987 113.775 94.0551V95.931H117.474V95.8529ZM76.8542 92.8826C73.9099 92.8826 71.5128 90.4595 71.5128 87.359C71.5128 84.2585 73.8578 81.8354 76.8542 81.8354C79.7984 81.8354 82.1955 84.2585 82.1955 87.359C82.1955 90.4595 79.7984 92.8826 76.8542 92.8826ZM85.713 95.8529V78.813H82.0131V80.5326C82.0131 80.6629 81.9349 80.8192 81.8047 80.8192C81.6744 80.8974 81.5181 80.8192 81.4659 80.7411C80.2413 79.2299 78.3132 78.3961 76.0464 78.3961C71.3825 78.3961 67.813 82.3304 67.813 87.359C67.813 92.3876 71.4607 96.3218 76.0464 96.3218C78.183 96.3218 80.1632 95.436 81.4659 93.8466C81.5441 93.7164 81.6744 93.7164 81.8047 93.7685C81.9349 93.8466 82.0131 93.8987 82.0131 94.0551V95.931H85.713V95.8529ZM56.8176 92.8826C53.7952 92.8826 51.4763 90.4595 51.4763 87.359C51.4763 84.2585 53.8212 81.8354 56.8176 81.8354C59.7619 81.8354 62.1589 84.2585 62.1589 87.359C62.185 90.4595 59.7619 92.8826 56.8176 92.8826ZM65.6764 95.8529V71.4134H61.8984V80.5847C61.8984 80.715 61.8202 80.8713 61.69 80.8713C61.5597 80.9495 61.4033 80.8713 61.3512 80.7932C60.0485 79.282 58.1204 78.4482 55.9317 78.4482C51.2678 78.4482 47.6982 82.3825 47.6982 87.4111C47.6982 89.8863 48.532 92.101 50.0953 93.8206C51.6065 95.4881 53.7431 96.3739 55.9838 96.3739C58.1204 96.3739 60.1006 95.4881 61.4033 93.8987C61.4815 93.8206 61.6118 93.7685 61.7421 93.8206C61.8723 93.8987 61.9505 93.9508 61.9505 94.1072V95.905H65.6504V95.8529H65.6764Z" fill="white"/>
<path d="M144.832 29.0988L124.379 40.6932L102.649 28.3433L101.633 28.8904V37.8533L124.405 50.8286L144.858 39.2342V44.0022L124.405 55.5966L102.649 43.2466L101.633 43.7938V45.3049L124.405 58.2802L147.255 45.3049V36.3421L146.239 35.7949L124.379 48.1449L104.004 36.5505V31.8607L124.379 43.3769L147.229 30.4016V21.569L146.057 20.9437L124.379 33.2155L105.098 22.2464L124.379 11.3555L140.299 20.3184L141.732 19.5628V18.4685L124.379 8.67188L101.606 21.5951V22.976L124.379 35.9513L144.832 24.3569V29.0988Z" fill="#FF3621"/>
</svg>
