<svg width="251" height="107" viewBox="0 0 251 107" fill="none" xmlns="http://www.w3.org/2000/svg">
<g clip-path="url(#clip0_3827_11306)">
<mask id="mask0_3827_11306" style="mask-type:luminance" maskUnits="userSpaceOnUse" x="47" y="26" width="156" height="47">
<path d="M202.767 26.7988H47.9883V72.2778H202.767V26.7988Z" fill="white"/>
</mask>
<g mask="url(#mask0_3827_11306)">
<path d="M105.999 65.7812H99.499V72.2782H105.999V65.7812Z" fill="#C6D300"/>
<path d="M99.4985 33.2958V26.7988H92.998V33.2958V39.7928V46.2898V52.7868V59.2839V65.7809H99.4985V59.2839V52.7868V46.2898H105.999V39.7928H99.4985V33.2958Z" fill="#59C1D5"/>
<path d="M80.2441 33.2958V39.7928V46.2898V52.7868V59.2839V65.7809V72.2778H86.7444V65.7809V59.2839V52.7868V46.2898V39.7928V33.2958V26.7988H80.2441V33.2958Z" fill="#59C1D5"/>
<path d="M67.4891 33.2958V39.7928H60.9887H54.4883V46.2898H60.9887H67.4891V52.7868V59.2839V65.7809H60.9887H54.4883V72.2778H60.9887H67.4891H73.9896V65.7809V59.2839V52.7868V46.2898V39.7928V33.2958V26.7988H67.4891V33.2958Z" fill="#59C1D5"/>
<path d="M54.4887 52.787V46.29H47.9883V52.787V59.2841V65.7811H54.4887V59.2841V52.787Z" fill="#59C1D5"/>
<path d="M131.754 46.2898H118.753V26.7988H112.253V72.2778H118.753V52.7868H131.754V72.2778H138.255V26.7988H131.754V46.2898Z" fill="#C6D300"/>
<path d="M151.009 39.793H144.509V65.781H151.009V39.793Z" fill="#C6D300"/>
<path d="M164.011 65.781H151.01V72.2779H170.511V39.793H164.011V65.781Z" fill="#C6D300"/>
<path d="M183.265 46.2898H196.266V39.7928H183.265V26.7988H176.765V72.2778H196.266V65.7809H183.265V46.2898Z" fill="#C6D300"/>
<path d="M202.767 46.29H196.267V65.7811H202.767V46.29Z" fill="#C6D300"/>
</g>
</g>
<defs>
<clipPath id="clip0_3827_11306">
<rect width="154.778" height="45.479" fill="white" transform="translate(47.9883 26.7988)"/>
</clipPath>
</defs>
</svg>
