<svg width="250" height="107" viewBox="0 0 250 107" fill="none" xmlns="http://www.w3.org/2000/svg">
<path fill-rule="evenodd" clip-rule="evenodd" d="M189.612 43.6751C189.612 44.7697 189.252 45.6819 188.532 46.2292C187.811 46.9589 186.911 47.1414 186.011 47.1414C184.93 47.1414 184.21 46.7765 183.49 46.2292C182.77 45.6819 182.41 44.7697 182.41 43.6751C182.41 42.5805 182.77 41.6683 183.49 41.121C184.21 40.5737 185.111 40.2088 186.011 40.2088C187.091 40.2088 187.811 40.5737 188.532 41.121C189.252 41.6683 189.612 42.5805 189.612 43.6751Z" fill="white"/>
<path fill-rule="evenodd" clip-rule="evenodd" d="M182.95 50.2428H189.072V71.4053H182.95V50.2428Z" fill="white"/>
<path fill-rule="evenodd" clip-rule="evenodd" d="M120.47 55.1688C119.93 54.9863 119.21 54.8039 118.489 54.8039C117.769 54.6214 116.869 54.6215 115.969 54.6215C115.609 54.6215 115.068 54.6214 114.528 54.8039C113.988 54.8039 113.628 54.9863 113.268 54.9863V71.5879H106.966V50.9728C108.046 50.6079 109.487 50.243 110.927 49.8781C112.548 49.5133 114.168 49.3308 116.149 49.3308C116.509 49.3308 116.869 49.3308 117.409 49.3308C117.949 49.3308 118.309 49.5133 118.85 49.5133C119.39 49.5133 119.75 49.6957 120.29 49.6957C120.83 49.8782 121.19 49.8782 121.55 50.0606L120.47 55.1688Z" fill="white"/>
<path fill-rule="evenodd" clip-rule="evenodd" d="M208.518 60.459C208.518 58.6346 208.158 56.9927 207.438 55.8981C206.717 54.8035 205.457 54.2562 204.017 54.2562C202.576 54.2562 201.496 54.8035 200.595 55.8981C199.875 56.9927 199.335 58.4522 199.335 60.459C199.335 62.2833 199.695 63.9252 200.595 65.0198C201.316 66.1144 202.576 66.6617 204.017 66.6617C205.457 66.6617 206.537 66.1144 207.438 65.0198C208.158 63.9252 208.518 62.2833 208.518 60.459ZM215 60.459C215 62.1009 214.82 63.7428 214.28 65.2023C213.74 66.6617 213.019 67.7564 212.119 68.851C211.219 69.7631 209.958 70.6753 208.698 71.2226C207.258 71.7699 205.817 72.1348 204.197 72.1348C202.576 72.1348 201.136 71.7699 199.695 71.2226C198.255 70.6753 197.174 69.9456 196.274 68.851C195.374 67.7564 194.474 66.6617 193.933 65.2023C193.393 63.7428 193.213 62.2833 193.213 60.459C193.213 58.817 193.573 57.1751 194.113 55.7156C194.654 54.2562 195.374 53.1616 196.454 52.0669C197.354 51.1548 198.615 50.2426 199.875 49.6953C201.316 49.148 202.756 48.7831 204.377 48.7831C205.997 48.7831 207.438 48.9656 208.878 49.6953C210.139 50.2426 211.399 50.9723 212.299 52.0669C213.199 52.9791 214.1 54.2562 214.64 55.7156C214.82 57.1751 215 58.817 215 60.459Z" fill="white"/>
<path fill-rule="evenodd" clip-rule="evenodd" d="M137.755 58.2699C137.755 57.7226 137.575 57.1752 137.395 56.8104C137.215 56.2631 137.035 55.8982 136.675 55.5333C136.315 55.1685 135.955 54.8036 135.415 54.6212C134.874 54.4387 134.334 54.2563 133.614 54.2563C132.894 54.2563 132.354 54.4387 131.813 54.6212C131.273 54.8036 130.913 55.1685 130.553 55.5333C130.193 55.8982 130.013 56.4455 129.833 56.8104C129.653 57.3577 129.473 57.905 129.473 58.2699H137.755ZM122.811 60.6415C122.811 58.6347 123.171 56.9928 123.711 55.5333C124.251 54.0739 125.151 52.7968 126.052 51.8846C127.132 50.9725 128.212 50.2427 129.473 49.6954C130.733 49.1481 132.174 48.9657 133.434 48.9657C136.675 48.9657 139.196 49.8779 140.996 51.7022C142.797 53.5265 143.697 56.2631 143.697 60.0942C143.697 60.4591 143.697 60.8239 143.697 61.1888C143.697 61.5537 143.697 61.9186 143.517 62.2834H129.113C129.293 63.5605 129.833 64.4726 130.913 65.3848C131.993 66.1145 133.434 66.4794 135.234 66.4794C136.315 66.4794 137.575 66.297 138.656 66.1146C139.736 65.9321 140.636 65.5672 141.356 65.3848L142.257 70.3105C141.897 70.493 141.536 70.6754 140.816 70.8578C140.276 71.0403 139.556 71.2227 138.836 71.2227C138.115 71.4051 137.395 71.4052 136.675 71.5876C135.955 71.5876 135.054 71.77 134.334 71.77C132.354 71.77 130.553 71.4052 129.113 70.8578C127.672 70.3105 126.412 69.5808 125.331 68.4862C124.431 67.574 123.711 66.297 123.171 64.8375C122.991 63.7429 122.811 62.2834 122.811 60.6415Z" fill="white"/>
<path fill-rule="evenodd" clip-rule="evenodd" d="M159.722 59.9119C159.722 57.9051 159.542 56.4456 159.002 55.7159C158.462 54.8037 157.562 54.4388 156.301 54.4388C155.941 54.4388 155.581 54.4388 155.041 54.4388C154.681 54.4388 154.141 54.6213 153.781 54.6213V71.4053H147.479V50.4253C148.019 50.2428 148.739 50.0604 149.459 50.0604C150.179 49.878 150.9 49.6956 151.8 49.6956C152.52 49.5131 153.42 49.5131 154.321 49.3307C155.221 49.3307 155.941 49.1482 156.841 49.1482C158.462 49.1482 159.722 49.3307 160.803 49.6956C161.883 50.0604 162.603 50.6077 163.324 51.155C164.224 50.4253 165.304 50.0604 166.385 49.6956C167.645 49.3307 168.725 49.1482 169.626 49.1482C171.426 49.1482 172.867 49.3307 174.127 49.878C175.207 50.4253 176.108 50.9726 176.828 51.8848C177.548 52.7969 177.908 53.8915 178.268 54.9862C178.448 56.2632 178.628 57.5402 178.628 58.9997V71.2228H172.326V59.7295C172.326 57.7227 172.146 56.2632 171.606 55.5335C171.066 54.6213 170.166 54.2564 168.905 54.2564C168.545 54.2564 168.185 54.2564 167.465 54.4388C166.925 54.6213 166.385 54.8037 166.024 54.9862C166.204 55.7159 166.385 56.2632 166.385 56.9929C166.385 57.7227 166.385 58.4524 166.385 59.1822V71.0404H160.083V59.9119H159.722Z" fill="white"/>
<path fill-rule="evenodd" clip-rule="evenodd" d="M95.9821 66.4796C95.622 66.4796 95.2619 66.662 94.7217 66.662C94.1815 66.662 93.6414 66.662 93.1012 66.662C91.3006 66.662 90.0402 66.1147 89.1399 65.0201C88.2396 63.9255 87.8795 62.2836 87.8795 60.4592C87.8795 56.4457 89.32 54.4389 92.3809 54.4389C93.1012 54.4389 93.6414 54.4389 94.3616 54.6213C95.0818 54.8038 95.4419 54.9862 95.9821 55.1687V66.4796ZM95.9821 41.8509V50.2429C95.2619 49.878 94.5416 49.6956 93.8214 49.5132C93.1012 49.3307 92.3809 49.3307 91.4807 49.3307C89.8601 49.3307 88.4197 49.5132 87.1593 50.0605C85.8989 50.6078 84.8185 51.3375 84.0983 52.2497C83.198 53.1619 82.6579 54.4389 82.1177 55.8984C81.5775 57.3579 81.3975 58.8173 81.3975 60.6417C81.3975 62.2836 81.7576 63.9255 82.1177 65.385C82.6579 66.8445 83.3781 67.9391 84.4584 69.0337C85.5388 69.9458 86.6191 70.858 88.0596 71.2229C89.5 71.7702 91.1205 71.9526 92.9211 71.9526C93.6413 71.9526 94.5416 71.9526 95.2619 71.7702C96.1622 71.7702 96.8824 71.5878 97.7827 71.4053C98.5029 71.2229 99.4032 71.2229 100.123 71.0405C100.844 70.858 101.564 70.6756 102.104 70.4932V39.8441L95.9821 41.8509Z" fill="white"/>
<path fill-rule="evenodd" clip-rule="evenodd" d="M41.6049 64.2903C39.8043 65.2025 36.2032 67.0268 36.3832 69.216C36.9234 70.4931 38.3639 69.216 38.904 68.6687C40.1644 67.3917 41.0647 65.7498 41.6049 64.2903ZM52.7684 59.547C51.508 62.8308 47.9069 64.2903 47.0066 63.743C46.4664 63.3781 47.0066 62.4659 47.0066 61.7362C46.2864 62.1011 45.026 62.6484 44.3057 62.8308C46.1063 64.1078 47.0066 66.4795 47.0066 68.6687C47.0066 70.8579 46.1063 72.8647 44.4858 74.3242C47.5468 78.8851 45.9263 82.7162 41.7849 85.8176L41.6049 86V85.6351C41.0647 83.4459 40.1644 81.6216 38.724 79.9796C38.0037 79.0675 37.1035 78.3377 36.3832 77.608C35.3029 76.5134 34.2225 75.6012 33.3222 74.5066C29.1809 70.1282 27.5604 62.4659 28.1006 56.628C28.4607 53.5266 29.361 50.6077 30.6214 48.0536C31.7017 45.8644 33.1422 43.8576 34.7627 42.2157C38.3639 38.3845 43.2254 35.2832 48.267 33.6412C52.7684 32.3642 57.81 31.9993 62.1314 34.1886C62.8516 34.5534 63.932 35.1007 64.4721 35.648C64.8323 36.0129 65.1924 36.3778 65.5525 36.7426C65.5525 36.7426 65.5525 36.7426 65.7326 36.9251L85.5388 26.7087C87.1594 25.7966 88.4198 25.7965 88.9599 26.5263C89.5001 27.256 88.7799 28.7155 87.5195 29.4452L70.414 42.0332C70.7742 42.9454 70.234 44.4049 69.5138 45.3171C71.8545 46.0468 69.8739 49.5131 68.7935 50.6077C65.9126 54.0739 60.6909 56.628 56.0095 58.6348C54.569 58.9997 53.8488 59.1821 52.7684 59.547Z" fill="#393C42"/>
<path fill-rule="evenodd" clip-rule="evenodd" d="M68.4333 47.8715C69.6937 46.2296 68.7934 45.3174 67.8932 46.2296C66.0926 48.0539 63.5718 48.6013 61.051 48.2364C57.6299 47.6891 57.4498 47.1418 57.99 46.5945C62.1313 48.0539 66.9929 46.0472 68.9735 42.7633C69.8738 41.4863 66.9929 40.5741 65.1923 38.2025C57.0897 27.074 31.5216 36.743 29.1809 56.2635C28.4606 62.1014 30.0811 68.6691 34.0424 73.2299C37.1034 76.6962 40.1643 78.1557 42.145 83.4463C45.7461 80.3449 45.2059 76.8786 42.5051 73.7772C47.0065 71.4056 46.2863 65.3852 43.2253 63.5609C41.7849 69.0339 36.5632 73.0475 35.3028 69.2164C34.5826 65.2028 40.8846 62.6487 51.1478 58.8176C59.6105 55.3513 65.1923 52.6148 68.4333 47.8715Z" fill="#55BFCE"/>
<path fill-rule="evenodd" clip-rule="evenodd" d="M68.4333 47.8711C69.6937 46.2292 68.7934 45.317 67.8931 46.2292C66.4527 47.8711 64.1119 48.4184 62.1313 48.4184C58.5301 48.2359 55.8293 47.5062 53.3085 47.6887C48.2669 48.236 43.2253 51.5198 40.7045 54.2563C36.203 58.8172 31.3415 68.4862 36.203 70.3105C35.8429 70.1281 35.4828 69.5808 35.3028 69.0335C34.5825 65.0199 40.8845 62.4659 51.1478 58.6347C59.6105 55.3509 65.1923 52.6144 68.4333 47.8711Z" fill="white"/>
<path fill-rule="evenodd" clip-rule="evenodd" d="M46.4663 55.3511C49.1672 56.6281 48.627 61.189 48.2669 62.4661C53.3085 61.0066 51.688 53.5268 54.0287 51.3375C51.1478 51.1551 45.7461 54.0741 46.4663 55.3511Z" fill="#55BFCE"/>
<path fill-rule="evenodd" clip-rule="evenodd" d="M54.9292 41.8511C55.6494 41.4863 56.5497 41.6687 56.9098 42.3984C57.2699 43.1282 57.0898 44.0403 56.3696 44.4052C55.6494 44.7701 54.7491 44.5876 54.389 43.8579C53.8488 43.1282 54.2089 42.216 54.9292 41.8511Z" fill="#393C42"/>
<path fill-rule="evenodd" clip-rule="evenodd" d="M66.9927 42.398L86.979 28.3505C87.5192 27.9856 88.2394 27.0735 88.0594 26.7086C87.6993 26.3437 86.799 26.5262 86.0787 26.8911L64.4719 38.7493C63.7516 40.2088 65.1921 43.3102 66.9927 42.398Z" fill="#55BFCE"/>
<path fill-rule="evenodd" clip-rule="evenodd" d="M65.1923 39.6616L86.0789 27.2561C86.9792 26.7088 87.3393 26.7088 87.8795 26.7088C87.5193 26.3439 86.6191 26.5263 86.0789 26.8912L64.472 38.7495C63.9319 39.8441 64.6521 41.8508 65.7324 42.5806C65.3723 41.486 65.1923 40.5738 65.1923 39.6616Z" fill="white"/>
<path fill-rule="evenodd" clip-rule="evenodd" d="M34.4027 45.317C35.123 45.1346 35.6631 45.6819 35.6631 46.4117C35.6631 47.1414 35.123 47.8711 34.4027 47.8711C33.6825 48.0536 33.1423 47.5063 33.1423 46.7765C33.1423 46.0468 33.6825 45.317 34.4027 45.317Z" fill="#25ABAD"/>
<path fill-rule="evenodd" clip-rule="evenodd" d="M38.544 40.7564C39.0841 40.574 39.6243 41.1213 39.6243 41.6686C39.6243 42.2159 39.0841 42.9457 38.544 42.9457C38.0038 43.1281 37.4636 42.5808 37.4636 42.0335C37.4636 41.4862 37.8237 40.7564 38.544 40.7564Z" fill="#25ABAD"/>
<path fill-rule="evenodd" clip-rule="evenodd" d="M50.7879 34.7361C51.328 34.7361 51.6882 35.2834 51.6882 35.8307C51.5081 36.378 50.9679 36.9253 50.2477 36.9253C49.7075 36.9253 49.3474 36.378 49.3474 35.8307C49.5275 35.1009 50.2477 34.7361 50.7879 34.7361Z" fill="#25ABAD"/>
<path fill-rule="evenodd" clip-rule="evenodd" d="M54.5686 34.006C55.1088 34.1884 55.2889 34.5533 55.1088 35.1006C54.9288 35.6479 54.3886 35.8303 53.8484 35.8303C53.3082 35.6479 53.1282 35.283 53.3082 34.7357C53.4883 34.1884 54.0285 34.006 54.5686 34.006Z" fill="#25ABAD"/>
<path fill-rule="evenodd" clip-rule="evenodd" d="M38.5441 43.4928C38.9042 43.4928 39.2643 43.6753 39.2643 44.2226C39.2643 44.7699 38.9042 45.1348 38.364 45.1348C38.0039 45.1348 37.6438 44.9523 37.6438 44.405C37.8239 44.0401 38.184 43.6753 38.5441 43.4928Z" fill="#25ABAD"/>
<path fill-rule="evenodd" clip-rule="evenodd" d="M32.2423 48.7836C32.7825 48.7836 33.1426 48.966 33.1426 49.5133C33.1426 50.0606 32.7825 50.4255 32.2423 50.6079C31.7022 50.6079 31.342 50.4255 31.342 49.8782C31.342 49.3309 31.7022 48.966 32.2423 48.7836Z" fill="#25ABAD"/>
<path fill-rule="evenodd" clip-rule="evenodd" d="M69.6937 35.8307L68.7935 36.378C68.7935 37.8375 70.0539 39.4794 70.7741 39.6619C70.0539 38.7497 69.5137 36.9253 69.6937 35.8307ZM74.7353 33.0942L73.8351 33.4591C74.0151 34.7361 74.9154 36.1956 75.4556 36.1956C75.0955 35.6483 74.5553 34.0064 74.7353 33.0942ZM79.5969 30.3577L79.0567 30.7225C79.0567 31.4523 79.5969 32.7293 80.3171 32.9118C79.957 32.3645 79.4168 31.4523 79.5969 30.3577ZM84.2784 27.8036L83.7382 28.1685C83.7382 28.7158 84.4584 29.6279 84.8185 29.8104C84.6385 29.4455 84.2784 28.5333 84.2784 27.8036Z" fill="#25ABAD"/>
</svg>
