<svg width="212" height="90" viewBox="0 0 212 90" fill="none" xmlns="http://www.w3.org/2000/svg">
<g clip-path="url(#clip0_4343_24622)">
<path d="M15.4612 51.3859C15.4612 51.3859 28.0835 60.2513 28.8523 60.6946C29.5936 61.1361 30.6786 61.2404 31.6308 60.8765C32.5838 60.5126 33.2986 59.6805 33.5102 58.8484C33.7485 58.0162 36.6333 43.0387 36.6333 43.0387C36.6598 42.8309 36.7387 42.2333 36.4207 41.6607C35.9708 40.8812 34.9655 40.4656 34.0656 40.7242C33.5706 40.869 33.1464 41.1935 32.8752 41.6348C32.7158 41.9202 32.4252 42.3894 31.8956 42.805C31.4988 43.1172 31.102 43.2991 30.9169 43.3767C29.3022 44.0278 27.5024 43.4811 26.4706 42.1816C25.8355 41.3753 24.6974 41.0631 23.6912 41.4529C23.2156 41.6398 22.8122 41.9757 22.5406 42.4111C22.269 42.8464 22.1436 43.3582 22.1829 43.8708C22.3689 45.4834 21.4424 47.095 19.8012 47.7452C18.9618 48.0687 18.0383 48.0964 17.1812 47.8237C16.9952 47.7711 16.3345 47.6159 15.6729 47.9798C14.8527 48.3954 14.4293 49.3836 14.641 50.2675C14.7995 50.865 15.2761 51.2557 15.4612 51.3859Z" fill="#FF9538"/>
<path d="M116.08 41.6091C115.445 41.2452 114.677 41.0365 113.804 41.0365C112.852 41.0365 112.057 41.2452 111.422 41.6608C110.787 42.0773 110.337 42.649 110.047 43.3768H109.887V37.1104H106.5V53.5444H109.967V46.4181C109.967 45.8982 110.072 45.4299 110.284 45.066C110.475 44.7014 110.77 44.4026 111.132 44.208C111.502 44.0002 111.925 43.9226 112.402 43.9226C113.116 43.9226 113.672 44.1304 114.042 44.5469C114.44 44.9626 114.625 45.5601 114.625 46.3147V53.5435H118.091V45.6904C118.091 44.728 117.906 43.8968 117.562 43.2198C117.245 42.5179 116.742 41.9988 116.08 41.6091ZM93.0293 41.8695C92.1028 41.3228 91.0187 41.0632 89.7477 41.0632C88.4776 41.0632 87.3917 41.3228 86.4661 41.8686C85.5397 42.3886 84.8249 43.1431 84.3227 44.1055C83.8196 45.0669 83.5814 46.1595 83.5814 47.4331C83.5814 48.7076 83.8196 49.7993 84.3227 50.7616C84.8249 51.724 85.5397 52.4518 86.4661 52.9976C87.3926 53.5176 88.4767 53.8039 89.7477 53.8039C91.0178 53.8039 92.1037 53.5444 93.0293 52.9976C93.9557 52.4518 94.6705 51.724 95.1727 50.7616C95.6758 49.7993 95.9141 48.7076 95.9141 47.4331C95.9141 46.1595 95.6749 45.0411 95.1727 44.1055C94.6705 43.1431 93.9557 42.3895 93.0293 41.8695ZM92.1028 49.3319C91.9177 49.9037 91.6263 50.346 91.2295 50.6573C90.8327 50.9695 90.3562 51.1514 89.7743 51.1514C89.1915 51.1514 88.6893 50.9962 88.2916 50.6582C87.8948 50.3193 87.6043 49.8778 87.3926 49.3319C87.1934 48.7103 87.0948 48.0604 87.1003 47.4072C87.1003 46.6795 87.2066 46.0551 87.3926 45.4834C87.6043 44.9108 87.8948 44.4694 88.2916 44.1572C88.6893 43.8192 89.1915 43.6631 89.7743 43.6631C90.3562 43.6631 90.8327 43.8192 91.2295 44.1572C91.6263 44.4952 91.9177 44.9376 92.1028 45.4834C92.3154 46.0551 92.3942 46.6786 92.3942 47.4072C92.3942 48.1359 92.2879 48.7594 92.1028 49.3319ZM139.899 41.0374C139.184 41.0374 138.575 41.2452 138.046 41.6349C137.516 42.0247 137.119 42.5973 136.908 43.3768H136.776V41.2184H133.414V53.5444H136.881V46.5751C136.881 46.081 136.987 45.6386 137.226 45.2498C137.464 44.8591 137.781 44.5728 138.178 44.34C138.602 44.1152 139.075 43.9988 139.554 44.0011C139.792 44.0011 140.057 44.0279 140.349 44.0528C140.639 44.0796 140.851 44.1313 141.036 44.1831V41.1667C140.877 41.1408 140.719 41.0891 140.507 41.0891C140.242 41.0623 140.057 41.0374 139.899 41.0374ZM129.974 42.6231C129.438 42.1018 128.797 41.7027 128.095 41.453C127.356 41.1888 126.577 41.0569 125.793 41.0632C124.575 41.0632 123.49 41.3228 122.564 41.8686C121.664 42.4153 120.95 43.1431 120.447 44.1055C119.944 45.0669 119.706 46.1854 119.706 47.4331C119.706 48.7335 119.944 49.8519 120.447 50.8134C120.95 51.7499 121.664 52.5035 122.59 53.0244C123.516 53.5444 124.628 53.8039 125.925 53.8039C126.957 53.8039 127.883 53.6478 128.651 53.3357C129.445 53.0235 130.08 52.582 130.583 52.0103C131.086 51.4377 131.429 50.5797 131.589 49.7993H128.36C128.228 50.1115 128.069 50.3719 127.831 50.5797C127.587 50.7897 127.309 50.9568 127.01 51.0738C126.667 51.1823 126.31 51.235 125.951 51.2299C125.369 51.2299 124.866 51.0997 124.443 50.866C124.024 50.6327 123.684 50.2798 123.464 49.8519C123.226 49.4095 123.12 48.8896 123.12 48.2652H131.668V47.3038C131.668 46.2638 131.509 45.3532 131.218 44.5478C130.945 43.824 130.521 43.1676 129.974 42.6231ZM123.146 46.1336C123.173 45.6912 123.278 45.2756 123.49 44.9117C123.724 44.5167 124.051 44.1858 124.443 43.9485C124.87 43.7036 125.354 43.5783 125.846 43.5855C126.348 43.5855 126.798 43.6889 127.169 43.9235C127.566 44.1313 127.857 44.4435 128.069 44.8065C128.281 45.1971 128.386 45.6136 128.386 46.1078H123.146V46.1336Z" fill="white"/>
<path d="M72.8899 48.1618H72.7039L68.1 37.1112H63.7334V53.5443H67.1744V42.8051H67.3064L71.6198 53.4659H73.9758L78.2892 42.8568H78.4221V53.5443H81.8622V37.1104H77.4956L72.8899 48.1618ZM194.151 53.5443H198.226L193.331 46.5492L197.989 41.2193H193.993L189.97 45.8991H189.785V37.1104H186.318V53.5443H189.785V49.6174L190.738 48.5774L194.151 53.5443ZM167.713 48.2911C167.713 48.8378 167.607 49.3052 167.369 49.67C167.157 50.0339 166.839 50.3202 166.496 50.528C166.125 50.7099 165.728 50.8134 165.331 50.8134C164.669 50.8134 164.14 50.6056 163.743 50.1891C163.346 49.7734 163.161 49.2017 163.134 48.4739V41.2184H159.668V49.0706C159.668 50.033 159.853 50.8651 160.197 51.5412C160.568 52.2431 161.044 52.7631 161.679 53.1269C162.314 53.4908 163.055 53.6995 163.902 53.6995C164.855 53.6995 165.649 53.4908 166.284 53.0485C166.946 52.607 167.421 52.0353 167.686 51.3066H167.819V53.5435H171.154V41.2184H167.713V48.2911ZM177.584 44.1572C177.981 43.8718 178.457 43.7148 178.987 43.7148C179.622 43.7148 180.125 43.8968 180.522 44.2874C180.919 44.6513 181.157 45.1454 181.263 45.7697H184.545C184.492 44.8065 184.227 44.0011 183.75 43.2724C183.274 42.5446 182.612 42.0247 181.792 41.6349C180.972 41.2452 180.019 41.0374 178.907 41.0374C177.637 41.0374 176.552 41.2969 175.626 41.8427C174.699 42.3886 173.985 43.1172 173.482 44.0796C172.979 45.0411 172.741 46.1336 172.741 47.4072C172.741 48.6559 172.979 49.7476 173.482 50.7099C173.985 51.6714 174.673 52.4259 175.599 52.9459C176.526 53.4917 177.637 53.7522 178.907 53.7522C180.019 53.7522 180.998 53.5444 181.819 53.1546C182.597 52.7922 183.258 52.2148 183.724 51.4894C184.2 50.7616 184.465 49.9554 184.518 48.9939H181.237C181.184 49.4354 181.025 49.7993 180.813 50.1115C180.602 50.4236 180.337 50.6573 180.019 50.8134C179.689 50.9734 179.327 51.0537 178.96 51.0479C178.458 51.0535 177.967 50.8986 177.557 50.6056C177.161 50.3202 176.844 49.9036 176.632 49.3569C176.42 48.8111 176.314 48.135 176.314 47.3555C176.314 46.5751 176.42 45.9258 176.658 45.3791C176.87 44.8591 177.187 44.4426 177.584 44.1572ZM154.057 38.0986C152.84 37.4484 151.384 37.1104 149.717 37.1104H143.736V53.5443H149.664C151.358 53.5443 152.813 53.2054 154.03 52.5561C155.232 51.9229 156.211 50.9336 156.836 49.7217C157.498 48.4998 157.815 47.0175 157.815 45.3015C157.815 43.5855 157.498 42.129 156.836 40.9071C156.22 39.7042 155.249 38.723 154.057 38.0986ZM153.766 48.3179C153.395 49.0974 152.866 49.67 152.152 50.0339C151.437 50.3978 150.564 50.5797 149.505 50.5797H147.255V40.1009H149.505C150.537 40.1009 151.437 40.2828 152.152 40.6467C152.866 41.0106 153.395 41.5832 153.766 42.3368C154.136 43.1172 154.322 44.1055 154.322 45.3015C154.322 46.5234 154.136 47.5375 153.766 48.3179ZM103.589 50.7358H103.112C102.53 50.7358 102.054 50.2675 102.054 49.6958V43.7933H104.409V41.2184H102.054V38.2796H98.5871V41.2443H96.8671V43.8183H98.5871V50.3451C98.5871 52.1129 100.042 53.5435 101.842 53.5435H104.594V50.709L103.589 50.7358Z" fill="white"/>
<path d="M36.5011 31.9628C36.5011 31.9628 41.0005 46.5756 41.3176 47.356C41.6356 48.1622 42.4292 48.89 43.4079 49.1754C44.3875 49.4617 45.4725 49.228 46.1607 48.7081C46.8489 48.1881 58.4668 38.0731 58.4668 38.0731C58.8273 37.7563 59.07 37.3254 59.155 36.8513C59.2879 35.9674 58.7316 35.0309 57.8849 34.6929C57.398 34.513 56.8635 34.513 56.3765 34.6929C56.0851 34.8231 55.5555 35.005 54.8938 35.0309C54.3651 35.0577 53.9683 34.9533 53.7566 34.9007C52.0888 34.4324 50.9772 32.9251 50.9772 31.2867C50.961 30.7752 50.7828 30.2822 50.4685 29.88C50.1543 29.4777 49.7205 29.1871 49.2306 29.0508C48.1722 28.7645 47.0872 29.2069 46.5318 30.0649C45.6576 31.4687 43.9376 32.1706 42.2441 31.7024C41.3442 31.4428 40.6028 30.897 40.1272 30.1951C39.9944 30.0381 39.571 29.5181 38.8305 29.3888C37.9306 29.2327 36.951 29.7527 36.5808 30.559C36.2894 31.1833 36.448 31.7541 36.5011 31.9628Z" fill="#FF9538"/>
</g>
<defs>
<clipPath id="clip0_4343_24622">
<rect width="186" height="33" fill="white" transform="translate(13 28.5)"/>
</clipPath>
</defs>
</svg>
