<?xml version="1.0" encoding="utf-8" ?>
<svg baseProfile="tiny" height="89" version="1.2" width="237" xmlns="http://www.w3.org/2000/svg" xmlns:ev="http://www.w3.org/2001/xml-events" xmlns:xlink="http://www.w3.org/1999/xlink"><defs /><path d="M 62.0,14.5 L 61.0,14.5 L 60.0,14.5 L 59.0,14.5 L 58.0,14.5 L 57.0,14.5 L 56.0,14.5 L 55.0,14.5 L 54.0,14.5 L 53.0,14.5 L 52.0,14.5 L 51.0,14.5 L 50.0,14.5 L 49.0,14.5 L 48.0,14.5 L 47.5,14.0 L 48.0,13.5 L 49.0,13.5 L 50.0,13.5 L 51.0,13.5 L 52.0,13.5 L 53.0,13.5 L 54.0,13.5 L 55.0,13.5 L 56.0,13.5 L 57.0,13.5 L 58.0,13.5 L 59.0,13.5 L 60.0,13.5 L 61.0,13.5 L 62.0,13.5 L 62.5,14.0 L 62.0,14.5 Z" fill="none" stroke="cyan" stroke-width="2" /><path d="M 47.0,15.5 L 46.0,15.5 L 45.0,15.5 L 44.5,15.0 L 45.0,14.5 L 46.0,14.5 L 47.0,14.5 L 47.5,15.0 L 47.0,15.5 Z" fill="none" stroke="cyan" stroke-width="2" /><path d="M 65.0,15.5 L 64.0,15.5 L 63.0,15.5 L 62.5,15.0 L 63.0,14.5 L 64.0,14.5 L 65.0,14.5 L 65.5,15.0 L 65.0,15.5 Z" fill="none" stroke="cyan" stroke-width="2" /><path d="M 27.0,33.5 L 26.5,33.0 L 26.5,32.0 L 26.5,31.0 L 27.0,30.5 L 27.5,30.0 L 27.5,29.0 L 28.0,28.5 L 28.5,28.0 L 28.5,27.0 L 29.0,26.5 L 29.5,26.0 L 30.0,25.5 L 30.5,25.0 L 31.0,24.5 L 31.5,24.0 L 32.0,23.5 L 32.5,23.0 L 32.5,22.0 L 33.0,21.5 L 33.5,21.0 L 34.0,20.5 L 35.0,20.5 L 35.5,20.0 L 36.0,19.5 L 36.5,19.0 L 37.0,18.5 L 37.5,18.0 L 38.0,17.5 L 39.0,17.5 L 39.5,17.0 L 40.0,16.5 L 41.0,16.5 L 41.5,16.0 L 42.0,15.5 L 43.0,15.5 L 44.0,15.5 L 44.5,16.0 L 44.0,16.5 L 43.0,16.5 L 42.5,17.0 L 42.0,17.5 L 41.0,17.5 L 40.5,18.0 L 40.0,18.5 L 39.0,18.5 L 38.5,19.0 L 38.0,19.5 L 37.5,20.0 L 37.0,20.5 L 36.5,21.0 L 36.0,21.5 L 35.0,21.5 L 34.5,22.0 L 34.0,22.5 L 33.5,23.0 L 33.5,24.0 L 33.0,24.5 L 32.5,25.0 L 32.0,25.5 L 31.5,26.0 L 31.0,26.5 L 30.5,27.0 L 30.0,27.5 L 29.5,28.0 L 29.5,29.0 L 29.0,29.5 L 28.5,30.0 L 28.5,31.0 L 28.0,31.5 L 27.5,32.0 L 27.5,33.0 L 27.0,33.5 Z" fill="none" stroke="cyan" stroke-width="2" /><path d="M 83.0,34.5 L 82.5,34.0 L 82.5,33.0 L 82.5,32.0 L 82.0,31.5 L 81.5,31.0 L 81.5,30.0 L 81.0,29.5 L 80.5,29.0 L 80.0,28.5 L 79.5,28.0 L 79.5,27.0 L 79.0,26.5 L 78.5,26.0 L 78.0,25.5 L 77.5,25.0 L 77.0,24.5 L 76.5,24.0 L 76.0,23.5 L 75.5,23.0 L 75.0,22.5 L 74.5,22.0 L 74.0,21.5 L 73.5,21.0 L 73.0,20.5 L 72.5,20.0 L 72.0,19.5 L 71.5,19.0 L 71.0,18.5 L 70.0,18.5 L 69.5,18.0 L 69.0,17.5 L 68.0,17.5 L 67.5,17.0 L 67.0,16.5 L 66.0,16.5 L 65.5,16.0 L 66.0,15.5 L 67.0,15.5 L 68.0,15.5 L 68.5,16.0 L 69.0,16.5 L 70.0,16.5 L 70.5,17.0 L 71.0,17.5 L 72.0,17.5 L 72.5,18.0 L 73.0,18.5 L 73.5,19.0 L 74.0,19.5 L 74.5,20.0 L 75.0,20.5 L 75.5,21.0 L 76.0,21.5 L 76.5,22.0 L 77.0,22.5 L 77.5,23.0 L 78.0,23.5 L 78.5,24.0 L 79.0,24.5 L 79.5,25.0 L 80.0,25.5 L 80.5,26.0 L 80.5,27.0 L 81.0,27.5 L 81.5,28.0 L 82.0,28.5 L 82.5,29.0 L 82.5,30.0 L 83.0,30.5 L 83.5,31.0 L 83.5,32.0 L 83.5,33.0 L 83.5,34.0 L 83.0,34.5 Z" fill="none" stroke="cyan" stroke-width="2" /><path d="M 58.0,20.5 L 57.0,20.5 L 56.0,20.5 L 55.0,20.5 L 54.0,20.5 L 53.0,20.5 L 52.0,20.5 L 51.0,20.5 L 50.5,20.0 L 51.0,19.5 L 52.0,19.5 L 53.0,19.5 L 54.0,19.5 L 55.0,19.5 L 56.0,19.5 L 57.0,19.5 L 58.0,19.5 L 58.5,20.0 L 58.0,20.5 Z" fill="none" stroke="cyan" stroke-width="2" /><path d="M 50.0,21.5 L 49.0,21.5 L 48.0,21.5 L 47.5,21.0 L 48.0,20.5 L 49.0,20.5 L 50.0,20.5 L 50.5,21.0 L 50.0,21.5 Z" fill="none" stroke="cyan" stroke-width="2" /><path d="M 62.0,21.5 L 61.0,21.5 L 60.0,21.5 L 59.0,21.5 L 58.5,21.0 L 59.0,20.5 L 60.0,20.5 L 61.0,20.5 L 62.0,20.5 L 62.5,21.0 L 62.0,21.5 Z" fill="none" stroke="cyan" stroke-width="2" /><path d="M 33.0,36.5 L 32.5,36.0 L 32.5,35.0 L 32.5,34.0 L 33.0,33.5 L 33.5,33.0 L 33.5,32.0 L 34.0,31.5 L 34.5,31.0 L 34.5,30.0 L 35.0,29.5 L 35.5,29.0 L 36.0,28.5 L 36.5,28.0 L 37.0,27.5 L 37.5,27.0 L 38.0,26.5 L 38.5,26.0 L 39.0,25.5 L 39.5,25.0 L 40.0,24.5 L 40.5,24.0 L 41.0,23.5 L 42.0,23.5 L 42.5,23.0 L 43.0,22.5 L 44.0,22.5 L 44.5,22.0 L 45.0,21.5 L 46.0,21.5 L 47.0,21.5 L 47.5,22.0 L 47.0,22.5 L 46.0,22.5 L 45.5,23.0 L 45.0,23.5 L 44.0,23.5 L 43.5,24.0 L 43.0,24.5 L 42.0,24.5 L 41.5,25.0 L 41.0,25.5 L 40.5,26.0 L 40.0,26.5 L 39.5,27.0 L 39.0,27.5 L 38.5,28.0 L 38.0,28.5 L 37.5,29.0 L 37.0,29.5 L 36.5,30.0 L 36.0,30.5 L 35.5,31.0 L 35.5,32.0 L 35.0,32.5 L 34.5,33.0 L 34.5,34.0 L 34.0,34.5 L 33.5,35.0 L 33.5,36.0 L 33.0,36.5 Z" fill="none" stroke="cyan" stroke-width="2" /><path d="M 77.0,36.5 L 76.5,36.0 L 76.5,35.0 L 76.0,34.5 L 75.5,34.0 L 75.5,33.0 L 75.0,32.5 L 74.5,32.0 L 74.0,31.5 L 73.5,31.0 L 73.5,30.0 L 73.0,29.5 L 72.5,29.0 L 72.0,28.5 L 71.5,28.0 L 71.0,27.5 L 70.5,27.0 L 70.0,26.5 L 69.5,26.0 L 69.0,25.5 L 68.5,25.0 L 68.0,24.5 L 67.0,24.5 L 66.5,24.0 L 66.0,23.5 L 65.0,23.5 L 64.5,23.0 L 64.0,22.5 L 63.0,22.5 L 62.5,22.0 L 63.0,21.5 L 64.0,21.5 L 65.0,21.5 L 65.5,22.0 L 66.0,22.5 L 67.0,22.5 L 67.5,23.0 L 68.0,23.5 L 69.0,23.5 L 69.5,24.0 L 70.0,24.5 L 70.5,25.0 L 71.0,25.5 L 71.5,26.0 L 72.0,26.5 L 72.5,27.0 L 73.0,27.5 L 73.5,28.0 L 74.0,28.5 L 74.5,29.0 L 74.5,30.0 L 75.0,30.5 L 75.5,31.0 L 76.0,31.5 L 76.5,32.0 L 76.5,33.0 L 77.0,33.5 L 77.5,34.0 L 77.5,35.0 L 77.5,36.0 L 77.0,36.5 Z" fill="none" stroke="cyan" stroke-width="2" /><path d="M 60.0,28.5 L 59.0,28.5 L 58.0,28.5 L 57.0,28.5 L 56.0,28.5 L 55.0,28.5 L 54.0,28.5 L 53.0,28.5 L 52.0,28.5 L 51.0,28.5 L 50.0,28.5 L 49.5,28.0 L 50.0,27.5 L 51.0,27.5 L 52.0,27.5 L 53.0,27.5 L 54.0,27.5 L 55.0,27.5 L 56.0,27.5 L 57.0,27.5 L 58.0,27.5 L 59.0,27.5 L 60.0,27.5 L 60.5,28.0 L 60.0,28.5 Z" fill="none" stroke="cyan" stroke-width="2" /><path d="M 98.0,44.5 L 97.0,44.5 L 96.0,44.5 L 95.0,44.5 L 94.5,44.0 L 94.5,43.0 L 94.5,42.0 L 94.5,41.0 L 94.5,40.0 L 94.5,39.0 L 94.5,38.0 L 94.5,37.0 L 94.5,36.0 L 94.5,35.0 L 94.5,34.0 L 94.5,33.0 L 94.5,32.0 L 94.5,31.0 L 94.5,30.0 L 94.5,29.0 L 95.0,28.5 L 95.5,28.0 L 96.0,27.5 L 97.0,27.5 L 98.0,27.5 L 99.0,27.5 L 100.0,27.5 L 101.0,27.5 L 102.0,27.5 L 103.0,27.5 L 104.0,27.5 L 105.0,27.5 L 105.5,28.0 L 106.0,28.5 L 106.5,29.0 L 107.0,29.5 L 107.5,30.0 L 107.5,31.0 L 107.5,32.0 L 107.5,33.0 L 107.5,34.0 L 107.5,35.0 L 107.5,36.0 L 107.0,36.5 L 106.5,37.0 L 106.0,37.5 L 105.0,37.5 L 104.5,37.0 L 105.0,36.5 L 105.5,36.0 L 106.0,35.5 L 106.5,35.0 L 106.5,34.0 L 106.5,33.0 L 106.5,32.0 L 106.5,31.0 L 106.0,30.5 L 105.5,30.0 L 105.0,29.5 L 104.5,29.0 L 104.0,28.5 L 103.0,28.5 L 102.0,28.5 L 101.0,28.5 L 100.0,28.5 L 99.0,28.5 L 98.0,28.5 L 97.0,28.5 L 96.5,29.0 L 96.0,29.5 L 95.5,30.0 L 95.5,31.0 L 95.5,32.0 L 95.5,33.0 L 95.5,34.0 L 95.5,35.0 L 95.5,36.0 L 95.5,37.0 L 95.5,38.0 L 95.5,39.0 L 95.5,40.0 L 95.5,41.0 L 95.5,42.0 L 95.5,43.0 L 96.0,43.5 L 97.0,43.5 L 97.5,43.0 L 97.5,42.0 L 97.5,41.0 L 97.5,40.0 L 98.0,39.5 L 98.5,40.0 L 98.5,41.0 L 98.5,42.0 L 98.5,43.0 L 98.5,44.0 L 98.0,44.5 Z" fill="none" stroke="cyan" stroke-width="2" /><path d="M 120.0,31.5 L 119.5,31.0 L 119.5,30.0 L 119.0,29.5 L 118.5,29.0 L 118.0,28.5 L 117.0,28.5 L 116.5,29.0 L 116.0,29.5 L 115.5,30.0 L 115.5,31.0 L 115.0,31.5 L 114.5,31.0 L 114.5,30.0 L 114.5,29.0 L 115.0,28.5 L 115.5,28.0 L 116.0,27.5 L 117.0,27.5 L 118.0,27.5 L 119.0,27.5 L 119.5,28.0 L 120.0,28.5 L 120.5,29.0 L 120.5,30.0 L 120.5,31.0 L 120.0,31.5 Z" fill="none" stroke="cyan" stroke-width="2" /><path d="M 134.0,44.5 L 133.0,44.5 L 132.0,44.5 L 131.0,44.5 L 130.5,44.0 L 130.5,43.0 L 130.5,42.0 L 130.5,41.0 L 130.5,40.0 L 130.5,39.0 L 130.5,38.0 L 130.5,37.0 L 130.5,36.0 L 130.5,35.0 L 130.5,34.0 L 130.5,33.0 L 130.5,32.0 L 130.5,31.0 L 130.5,30.0 L 130.5,29.0 L 131.0,28.5 L 131.5,28.0 L 132.0,27.5 L 133.0,27.5 L 134.0,27.5 L 134.5,28.0 L 135.0,28.5 L 135.5,29.0 L 135.5,30.0 L 136.0,30.5 L 136.5,31.0 L 137.0,31.5 L 137.5,32.0 L 137.5,33.0 L 138.0,33.5 L 138.5,34.0 L 139.0,34.5 L 139.5,35.0 L 139.5,36.0 L 140.0,36.5 L 140.5,37.0 L 140.5,38.0 L 140.0,38.5 L 139.5,38.0 L 139.0,37.5 L 138.5,37.0 L 138.5,36.0 L 138.0,35.5 L 137.5,35.0 L 137.0,34.5 L 136.5,34.0 L 136.5,33.0 L 136.0,32.5 L 135.5,32.0 L 135.0,31.5 L 134.5,31.0 L 134.5,30.0 L 134.0,29.5 L 133.5,29.0 L 133.0,28.5 L 132.5,29.0 L 132.0,29.5 L 131.5,30.0 L 131.5,31.0 L 131.5,32.0 L 131.5,33.0 L 131.5,34.0 L 131.5,35.0 L 131.5,36.0 L 131.5,37.0 L 131.5,38.0 L 131.5,39.0 L 131.5,40.0 L 131.5,41.0 L 131.5,42.0 L 131.5,43.0 L 132.0,43.5 L 133.0,43.5 L 133.5,43.0 L 133.5,42.0 L 133.5,41.0 L 133.5,40.0 L 133.5,39.0 L 133.5,38.0 L 133.5,37.0 L 134.0,36.5 L 134.5,37.0 L 134.5,38.0 L 134.5,39.0 L 134.5,40.0 L 134.5,41.0 L 134.5,42.0 L 134.5,43.0 L 134.5,44.0 L 134.0,44.5 Z" fill="none" stroke="cyan" stroke-width="2" /><path d="M 144.0,44.5 L 143.0,44.5 L 142.0,44.5 L 141.0,44.5 L 140.0,44.5 L 139.5,44.0 L 139.5,43.0 L 139.0,42.5 L 138.5,42.0 L 138.0,41.5 L 137.5,41.0 L 137.5,40.0 L 137.0,39.5 L 136.5,39.0 L 136.5,38.0 L 137.0,37.5 L 137.5,38.0 L 138.0,38.5 L 138.5,39.0 L 138.5,40.0 L 139.0,40.5 L 139.5,41.0 L 140.0,41.5 L 140.5,42.0 L 140.5,43.0 L 141.0,43.5 L 142.0,43.5 L 143.0,43.5 L 143.5,43.0 L 143.5,42.0 L 143.5,41.0 L 143.5,40.0 L 143.5,39.0 L 143.5,38.0 L 143.5,37.0 L 143.5,36.0 L 143.5,35.0 L 143.5,34.0 L 143.5,33.0 L 143.5,32.0 L 143.5,31.0 L 143.5,30.0 L 143.5,29.0 L 143.0,28.5 L 142.5,29.0 L 142.0,29.5 L 141.5,29.0 L 141.5,28.0 L 142.0,27.5 L 143.0,27.5 L 144.0,27.5 L 144.5,28.0 L 144.5,29.0 L 144.5,30.0 L 144.5,31.0 L 144.5,32.0 L 144.5,33.0 L 144.5,34.0 L 144.5,35.0 L 144.5,36.0 L 144.5,37.0 L 144.5,38.0 L 144.5,39.0 L 144.5,40.0 L 144.5,41.0 L 144.5,42.0 L 144.5,43.0 L 144.5,44.0 L 144.0,44.5 Z" fill="none" stroke="cyan" stroke-width="2" /><path d="M 162.0,44.5 L 161.0,44.5 L 160.0,44.5 L 159.0,44.5 L 158.0,44.5 L 157.0,44.5 L 156.0,44.5 L 155.0,44.5 L 154.0,44.5 L 153.0,44.5 L 152.0,44.5 L 151.0,44.5 L 150.5,44.0 L 150.5,43.0 L 150.5,42.0 L 150.5,41.0 L 150.5,40.0 L 150.5,39.0 L 150.5,38.0 L 150.5,37.0 L 150.5,36.0 L 150.5,35.0 L 150.5,34.0 L 150.5,33.0 L 150.5,32.0 L 150.5,31.0 L 150.5,30.0 L 150.5,29.0 L 151.0,28.5 L 151.5,28.0 L 152.0,27.5 L 153.0,27.5 L 154.0,27.5 L 155.0,27.5 L 156.0,27.5 L 157.0,27.5 L 158.0,27.5 L 159.0,27.5 L 160.0,27.5 L 161.0,27.5 L 161.5,28.0 L 161.0,28.5 L 160.0,28.5 L 159.0,28.5 L 158.0,28.5 L 157.0,28.5 L 156.0,28.5 L 155.0,28.5 L 154.0,28.5 L 153.0,28.5 L 152.5,29.0 L 152.0,29.5 L 151.5,30.0 L 151.5,31.0 L 151.5,32.0 L 151.5,33.0 L 151.5,34.0 L 151.5,35.0 L 151.5,36.0 L 151.5,37.0 L 151.5,38.0 L 151.5,39.0 L 151.5,40.0 L 151.5,41.0 L 151.5,42.0 L 151.5,43.0 L 152.0,43.5 L 153.0,43.5 L 154.0,43.5 L 155.0,43.5 L 156.0,43.5 L 157.0,43.5 L 158.0,43.5 L 159.0,43.5 L 160.0,43.5 L 161.0,43.5 L 161.5,43.0 L 162.0,42.5 L 162.5,42.0 L 163.0,41.5 L 163.5,41.0 L 164.0,40.5 L 164.5,40.0 L 164.5,39.0 L 164.5,38.0 L 164.5,37.0 L 164.5,36.0 L 164.5,35.0 L 164.5,34.0 L 164.5,33.0 L 164.0,32.5 L 163.5,32.0 L 163.5,31.0 L 163.0,30.5 L 162.5,30.0 L 162.0,29.5 L 161.5,29.0 L 162.0,28.5 L 163.0,28.5 L 163.5,29.0 L 164.0,29.5 L 164.5,30.0 L 164.5,31.0 L 165.0,31.5 L 165.5,32.0 L 165.5,33.0 L 165.5,34.0 L 165.5,35.0 L 165.5,36.0 L 165.5,37.0 L 165.5,38.0 L 165.5,39.0 L 165.5,40.0 L 165.5,41.0 L 165.0,41.5 L 164.5,42.0 L 164.0,42.5 L 163.5,43.0 L 163.0,43.5 L 162.5,44.0 L 162.0,44.5 Z" fill="none" stroke="cyan" stroke-width="2" /><path d="M 179.0,31.5 L 178.5,31.0 L 178.5,30.0 L 178.0,29.5 L 177.5,29.0 L 177.0,28.5 L 176.0,28.5 L 175.5,29.0 L 175.0,29.5 L 174.5,30.0 L 174.5,31.0 L 174.0,31.5 L 173.5,31.0 L 173.5,30.0 L 173.5,29.0 L 174.0,28.5 L 174.5,28.0 L 175.0,27.5 L 176.0,27.5 L 177.0,27.5 L 178.0,27.5 L 178.5,28.0 L 179.0,28.5 L 179.5,29.0 L 179.5,30.0 L 179.5,31.0 L 179.0,31.5 Z" fill="none" stroke="cyan" stroke-width="2" /><path d="M 191.0,32.5 L 190.5,32.0 L 190.0,31.5 L 189.0,31.5 L 188.0,31.5 L 187.0,31.5 L 186.5,31.0 L 186.5,30.0 L 186.5,29.0 L 186.5,28.0 L 187.0,27.5 L 188.0,27.5 L 189.0,27.5 L 190.0,27.5 L 191.0,27.5 L 192.0,27.5 L 193.0,27.5 L 194.0,27.5 L 195.0,27.5 L 196.0,27.5 L 197.0,27.5 L 198.0,27.5 L 199.0,27.5 L 200.0,27.5 L 200.5,28.0 L 200.5,29.0 L 200.5,30.0 L 200.0,30.5 L 199.0,30.5 L 198.5,30.0 L 199.0,29.5 L 199.5,29.0 L 199.0,28.5 L 198.0,28.5 L 197.0,28.5 L 196.0,28.5 L 195.0,28.5 L 194.0,28.5 L 193.0,28.5 L 192.0,28.5 L 191.0,28.5 L 190.0,28.5 L 189.0,28.5 L 188.0,28.5 L 187.5,29.0 L 187.5,30.0 L 188.0,30.5 L 189.0,30.5 L 190.0,30.5 L 191.0,30.5 L 191.5,31.0 L 191.5,32.0 L 191.0,32.5 Z" fill="none" stroke="cyan" stroke-width="2" /><path d="M 213.0,31.5 L 212.5,31.0 L 212.5,30.0 L 212.0,29.5 L 211.5,29.0 L 211.0,28.5 L 210.0,28.5 L 209.5,29.0 L 209.0,29.5 L 208.5,30.0 L 208.0,30.5 L 207.5,30.0 L 207.5,29.0 L 208.0,28.5 L 208.5,28.0 L 209.0,27.5 L 210.0,27.5 L 211.0,27.5 L 212.0,27.5 L 212.5,28.0 L 213.0,28.5 L 213.5,29.0 L 213.5,30.0 L 213.5,31.0 L 213.0,31.5 Z" fill="none" stroke="cyan" stroke-width="2" /><path d="M 39.0,40.5 L 38.5,40.0 L 38.5,39.0 L 38.5,38.0 L 38.5,37.0 L 39.0,36.5 L 39.5,36.0 L 39.5,35.0 L 40.0,34.5 L 40.5,34.0 L 41.0,33.5 L 41.5,33.0 L 42.0,32.5 L 42.5,32.0 L 43.0,31.5 L 43.5,31.0 L 44.0,30.5 L 44.5,30.0 L 45.0,29.5 L 46.0,29.5 L 46.5,29.0 L 47.0,28.5 L 48.0,28.5 L 49.0,28.5 L 49.5,29.0 L 49.0,29.5 L 48.0,29.5 L 47.5,30.0 L 47.0,30.5 L 46.0,30.5 L 45.5,31.0 L 45.0,31.5 L 44.5,32.0 L 44.0,32.5 L 43.5,33.0 L 43.0,33.5 L 42.5,34.0 L 42.0,34.5 L 41.5,35.0 L 41.0,35.5 L 40.5,36.0 L 40.5,37.0 L 40.0,37.5 L 39.5,38.0 L 39.5,39.0 L 39.5,40.0 L 39.0,40.5 Z" fill="none" stroke="cyan" stroke-width="2" /><path d="M 70.0,38.5 L 69.5,38.0 L 69.5,37.0 L 69.0,36.5 L 68.5,36.0 L 68.0,35.5 L 67.5,35.0 L 67.0,34.5 L 66.5,34.0 L 66.0,33.5 L 65.5,33.0 L 65.0,32.5 L 64.5,32.0 L 64.0,31.5 L 63.5,31.0 L 63.0,30.5 L 62.5,30.0 L 62.0,29.5 L 61.0,29.5 L 60.5,29.0 L 61.0,28.5 L 62.0,28.5 L 63.0,28.5 L 63.5,29.0 L 64.0,29.5 L 64.5,30.0 L 65.0,30.5 L 65.5,31.0 L 66.0,31.5 L 66.5,32.0 L 67.0,32.5 L 67.5,33.0 L 68.0,33.5 L 68.5,34.0 L 69.0,34.5 L 69.5,35.0 L 70.0,35.5 L 70.5,36.0 L 70.5,37.0 L 70.5,38.0 L 70.0,38.5 Z" fill="none" stroke="cyan" stroke-width="2" /><path d="M 141.0,36.5 L 140.5,36.0 L 140.5,35.0 L 140.5,34.0 L 140.5,33.0 L 140.5,32.0 L 140.5,31.0 L 140.5,30.0 L 141.0,29.5 L 141.5,30.0 L 141.5,31.0 L 141.5,32.0 L 141.5,33.0 L 141.5,34.0 L 141.5,35.0 L 141.5,36.0 L 141.0,36.5 Z" fill="none" stroke="cyan" stroke-width="2" /><path d="M 103.0,35.5 L 102.0,35.5 L 101.0,35.5 L 100.0,35.5 L 99.0,35.5 L 98.0,35.5 L 97.5,35.0 L 97.5,34.0 L 97.5,33.0 L 97.5,32.0 L 97.5,31.0 L 98.0,30.5 L 99.0,30.5 L 100.0,30.5 L 101.0,30.5 L 102.0,30.5 L 103.0,30.5 L 103.5,31.0 L 103.5,32.0 L 103.0,32.5 L 102.5,32.0 L 102.0,31.5 L 101.0,31.5 L 100.0,31.5 L 99.0,31.5 L 98.5,32.0 L 98.5,33.0 L 98.5,34.0 L 99.0,34.5 L 100.0,34.5 L 101.0,34.5 L 102.0,34.5 L 102.5,34.0 L 103.0,33.5 L 103.5,34.0 L 103.5,35.0 L 103.0,35.5 Z" fill="none" stroke="cyan" stroke-width="2" /><path d="M 160.0,42.5 L 159.0,42.5 L 158.0,42.5 L 157.0,42.5 L 156.0,42.5 L 155.0,42.5 L 154.5,42.0 L 154.5,41.0 L 154.5,40.0 L 154.5,39.0 L 154.5,38.0 L 154.5,37.0 L 154.5,36.0 L 154.5,35.0 L 154.5,34.0 L 154.5,33.0 L 154.5,32.0 L 154.5,31.0 L 155.0,30.5 L 156.0,30.5 L 157.0,30.5 L 158.0,30.5 L 159.0,30.5 L 160.0,30.5 L 160.5,31.0 L 161.0,31.5 L 161.5,32.0 L 161.5,33.0 L 161.0,33.5 L 160.5,33.0 L 160.0,32.5 L 159.5,32.0 L 159.0,31.5 L 158.0,31.5 L 157.0,31.5 L 156.0,31.5 L 155.5,32.0 L 155.5,33.0 L 155.5,34.0 L 155.5,35.0 L 155.5,36.0 L 155.5,37.0 L 155.5,38.0 L 155.5,39.0 L 155.5,40.0 L 155.5,41.0 L 156.0,41.5 L 157.0,41.5 L 158.0,41.5 L 159.0,41.5 L 159.5,41.0 L 160.0,40.5 L 160.5,40.0 L 161.0,39.5 L 161.5,40.0 L 161.5,41.0 L 161.0,41.5 L 160.5,42.0 L 160.0,42.5 Z" fill="none" stroke="cyan" stroke-width="2" /><path d="M 195.0,44.5 L 194.0,44.5 L 193.0,44.5 L 192.0,44.5 L 191.5,44.0 L 191.5,43.0 L 191.5,42.0 L 191.5,41.0 L 191.5,40.0 L 191.5,39.0 L 191.5,38.0 L 191.5,37.0 L 191.5,36.0 L 191.5,35.0 L 191.5,34.0 L 191.5,33.0 L 192.0,32.5 L 192.5,33.0 L 192.5,34.0 L 192.5,35.0 L 192.5,36.0 L 192.5,37.0 L 192.5,38.0 L 192.5,39.0 L 192.5,40.0 L 192.5,41.0 L 192.5,42.0 L 192.5,43.0 L 193.0,43.5 L 194.0,43.5 L 194.5,43.0 L 194.5,42.0 L 194.5,41.0 L 194.5,40.0 L 194.5,39.0 L 194.5,38.0 L 194.5,37.0 L 194.5,36.0 L 194.5,35.0 L 194.5,34.0 L 194.5,33.0 L 194.5,32.0 L 194.5,31.0 L 195.0,30.5 L 196.0,30.5 L 197.0,30.5 L 198.0,30.5 L 198.5,31.0 L 198.0,31.5 L 197.0,31.5 L 196.0,31.5 L 195.5,32.0 L 195.5,33.0 L 195.5,34.0 L 195.5,35.0 L 195.5,36.0 L 195.5,37.0 L 195.5,38.0 L 195.5,39.0 L 195.5,40.0 L 195.5,41.0 L 195.5,42.0 L 195.5,43.0 L 195.5,44.0 L 195.0,44.5 Z" fill="none" stroke="cyan" stroke-width="2" /><path d="M 207.0,33.5 L 206.5,33.0 L 206.5,32.0 L 206.5,31.0 L 207.0,30.5 L 207.5,31.0 L 207.5,32.0 L 207.5,33.0 L 207.0,33.5 Z" fill="none" stroke="cyan" stroke-width="2" /><path d="M 114.0,34.5 L 113.5,34.0 L 113.5,33.0 L 113.5,32.0 L 114.0,31.5 L 114.5,32.0 L 114.5,33.0 L 114.5,34.0 L 114.0,34.5 Z" fill="none" stroke="cyan" stroke-width="2" /><path d="M 121.0,33.5 L 120.5,33.0 L 120.5,32.0 L 121.0,31.5 L 121.5,32.0 L 121.5,33.0 L 121.0,33.5 Z" fill="none" stroke="cyan" stroke-width="2" /><path d="M 173.0,33.5 L 172.5,33.0 L 172.5,32.0 L 173.0,31.5 L 173.5,32.0 L 173.5,33.0 L 173.0,33.5 Z" fill="none" stroke="cyan" stroke-width="2" /><path d="M 180.0,33.5 L 179.5,33.0 L 179.5,32.0 L 180.0,31.5 L 180.5,32.0 L 180.5,33.0 L 180.0,33.5 Z" fill="none" stroke="cyan" stroke-width="2" /><path d="M 214.0,34.5 L 213.5,34.0 L 213.5,33.0 L 213.5,32.0 L 214.0,31.5 L 214.5,32.0 L 214.5,33.0 L 214.5,34.0 L 214.0,34.5 Z" fill="none" stroke="cyan" stroke-width="2" /><path d="M 104.0,33.5 L 103.5,33.0 L 104.0,32.5 L 104.5,33.0 L 104.0,33.5 Z" fill="none" stroke="cyan" stroke-width="2" /><path d="M 119.0,36.5 L 118.5,36.0 L 118.5,35.0 L 118.0,34.5 L 117.0,34.5 L 116.5,34.0 L 116.5,33.0 L 117.0,32.5 L 117.5,33.0 L 118.0,33.5 L 119.0,33.5 L 119.5,34.0 L 119.5,35.0 L 119.5,36.0 L 119.0,36.5 Z" fill="none" stroke="cyan" stroke-width="2" /><path d="M 209.0,36.5 L 208.5,36.0 L 208.5,35.0 L 208.5,34.0 L 208.5,33.0 L 209.0,32.5 L 209.5,33.0 L 209.5,34.0 L 209.5,35.0 L 209.5,36.0 L 209.0,36.5 Z" fill="none" stroke="cyan" stroke-width="2" /><path d="M 211.0,34.5 L 210.5,34.0 L 210.5,33.0 L 211.0,32.5 L 211.5,33.0 L 211.5,34.0 L 211.0,34.5 Z" fill="none" stroke="cyan" stroke-width="2" /><path d="M 26.0,36.5 L 25.5,36.0 L 25.5,35.0 L 25.5,34.0 L 26.0,33.5 L 26.5,34.0 L 26.5,35.0 L 26.5,36.0 L 26.0,36.5 Z" fill="none" stroke="cyan" stroke-width="2" /><path d="M 56.0,34.5 L 55.0,34.5 L 54.0,34.5 L 53.0,34.5 L 52.5,34.0 L 53.0,33.5 L 54.0,33.5 L 55.0,33.5 L 56.0,33.5 L 56.5,34.0 L 56.0,34.5 Z" fill="none" stroke="cyan" stroke-width="2" /><path d="M 122.0,36.5 L 121.5,36.0 L 121.5,35.0 L 121.5,34.0 L 122.0,33.5 L 122.5,34.0 L 122.5,35.0 L 122.5,36.0 L 122.0,36.5 Z" fill="none" stroke="cyan" stroke-width="2" /><path d="M 162.0,39.5 L 161.5,39.0 L 161.5,38.0 L 161.5,37.0 L 161.5,36.0 L 161.5,35.0 L 161.5,34.0 L 162.0,33.5 L 162.5,34.0 L 162.5,35.0 L 162.5,36.0 L 162.5,37.0 L 162.5,38.0 L 162.5,39.0 L 162.0,39.5 Z" fill="none" stroke="cyan" stroke-width="2" /><path d="M 172.0,36.5 L 171.5,36.0 L 171.5,35.0 L 171.5,34.0 L 172.0,33.5 L 172.5,34.0 L 172.5,35.0 L 172.5,36.0 L 172.0,36.5 Z" fill="none" stroke="cyan" stroke-width="2" /><path d="M 179.0,38.5 L 178.0,38.5 L 177.0,38.5 L 176.0,38.5 L 175.0,38.5 L 174.5,38.0 L 174.5,37.0 L 174.5,36.0 L 174.5,35.0 L 175.0,34.5 L 175.5,34.0 L 176.0,33.5 L 176.5,34.0 L 176.5,35.0 L 176.0,35.5 L 175.5,36.0 L 175.5,37.0 L 176.0,37.5 L 177.0,37.5 L 178.0,37.5 L 178.5,37.0 L 179.0,36.5 L 179.5,37.0 L 179.5,38.0 L 179.0,38.5 Z" fill="none" stroke="cyan" stroke-width="2" /><path d="M 178.0,36.5 L 177.5,36.0 L 177.5,35.0 L 177.5,34.0 L 178.0,33.5 L 178.5,34.0 L 178.5,35.0 L 178.5,36.0 L 178.0,36.5 Z" fill="none" stroke="cyan" stroke-width="2" /><path d="M 181.0,35.5 L 180.5,35.0 L 180.5,34.0 L 181.0,33.5 L 181.5,34.0 L 181.5,35.0 L 181.0,35.5 Z" fill="none" stroke="cyan" stroke-width="2" /><path d="M 206.0,35.5 L 205.5,35.0 L 205.5,34.0 L 206.0,33.5 L 206.5,34.0 L 206.5,35.0 L 206.0,35.5 Z" fill="none" stroke="cyan" stroke-width="2" /><path d="M 45.0,43.5 L 44.5,43.0 L 44.5,42.0 L 44.5,41.0 L 44.5,40.0 L 45.0,39.5 L 45.5,39.0 L 45.5,38.0 L 46.0,37.5 L 46.5,37.0 L 47.0,36.5 L 47.5,36.0 L 48.0,35.5 L 49.0,35.5 L 49.5,35.0 L 50.0,34.5 L 51.0,34.5 L 52.0,34.5 L 52.5,35.0 L 52.0,35.5 L 51.0,35.5 L 50.5,36.0 L 50.0,36.5 L 49.0,36.5 L 48.5,37.0 L 48.0,37.5 L 47.5,38.0 L 47.0,38.5 L 46.5,39.0 L 46.5,40.0 L 46.0,40.5 L 45.5,41.0 L 45.5,42.0 L 45.5,43.0 L 45.0,43.5 Z" fill="none" stroke="cyan" stroke-width="2" /><path d="M 64.0,41.5 L 63.5,41.0 L 63.5,40.0 L 63.0,39.5 L 62.5,39.0 L 62.0,38.5 L 61.5,38.0 L 61.0,37.5 L 60.5,37.0 L 60.0,36.5 L 59.5,36.0 L 59.0,35.5 L 58.0,35.5 L 57.0,35.5 L 56.5,35.0 L 57.0,34.5 L 58.0,34.5 L 59.0,34.5 L 60.0,34.5 L 60.5,35.0 L 61.0,35.5 L 61.5,36.0 L 62.0,36.5 L 62.5,37.0 L 63.0,37.5 L 63.5,38.0 L 64.0,38.5 L 64.5,39.0 L 64.5,40.0 L 64.5,41.0 L 64.0,41.5 Z" fill="none" stroke="cyan" stroke-width="2" /><path d="M 84.0,37.5 L 83.5,37.0 L 83.5,36.0 L 83.5,35.0 L 84.0,34.5 L 84.5,35.0 L 84.5,36.0 L 84.5,37.0 L 84.0,37.5 Z" fill="none" stroke="cyan" stroke-width="2" /><path d="M 113.0,36.5 L 112.5,36.0 L 112.5,35.0 L 113.0,34.5 L 113.5,35.0 L 113.5,36.0 L 113.0,36.5 Z" fill="none" stroke="cyan" stroke-width="2" /><path d="M 120.0,38.5 L 119.0,38.5 L 118.0,38.5 L 117.0,38.5 L 116.0,38.5 L 115.5,38.0 L 115.5,37.0 L 115.5,36.0 L 115.5,35.0 L 116.0,34.5 L 116.5,35.0 L 116.5,36.0 L 116.5,37.0 L 117.0,37.5 L 118.0,37.5 L 119.0,37.5 L 119.5,37.0 L 120.0,36.5 L 120.5,37.0 L 120.5,38.0 L 120.0,38.5 Z" fill="none" stroke="cyan" stroke-width="2" /><path d="M 135.0,35.5 L 134.5,35.0 L 135.0,34.5 L 135.5,35.0 L 135.0,35.5 Z" fill="none" stroke="cyan" stroke-width="2" /><path d="M 212.0,38.5 L 211.0,38.5 L 210.0,38.5 L 209.0,38.5 L 208.0,38.5 L 207.5,38.0 L 207.5,37.0 L 208.0,36.5 L 208.5,37.0 L 209.0,37.5 L 210.0,37.5 L 211.0,37.5 L 211.5,37.0 L 211.5,36.0 L 211.5,35.0 L 212.0,34.5 L 212.5,35.0 L 212.5,36.0 L 212.5,37.0 L 212.5,38.0 L 212.0,38.5 Z" fill="none" stroke="cyan" stroke-width="2" /><path d="M 215.0,36.5 L 214.5,36.0 L 214.5,35.0 L 215.0,34.5 L 215.5,35.0 L 215.5,36.0 L 215.0,36.5 Z" fill="none" stroke="cyan" stroke-width="2" /><path d="M 136.0,37.5 L 135.5,37.0 L 135.5,36.0 L 136.0,35.5 L 136.5,36.0 L 136.5,37.0 L 136.0,37.5 Z" fill="none" stroke="cyan" stroke-width="2" /><path d="M 182.0,38.5 L 181.5,38.0 L 181.5,37.0 L 181.5,36.0 L 182.0,35.5 L 182.5,36.0 L 182.5,37.0 L 182.5,38.0 L 182.0,38.5 Z" fill="none" stroke="cyan" stroke-width="2" /><path d="M 205.0,38.5 L 204.5,38.0 L 204.5,37.0 L 204.5,36.0 L 205.0,35.5 L 205.5,36.0 L 205.5,37.0 L 205.5,38.0 L 205.0,38.5 Z" fill="none" stroke="cyan" stroke-width="2" /><path d="M 44.0,75.5 L 43.0,75.5 L 42.0,75.5 L 41.0,75.5 L 40.0,75.5 L 39.0,75.5 L 38.0,75.5 L 37.0,75.5 L 36.0,75.5 L 35.0,75.5 L 34.0,75.5 L 33.0,75.5 L 32.0,75.5 L 31.0,75.5 L 30.0,75.5 L 29.0,75.5 L 28.0,75.5 L 27.0,75.5 L 26.0,75.5 L 25.5,75.0 L 25.0,74.5 L 24.5,74.0 L 24.5,73.0 L 24.5,72.0 L 24.5,71.0 L 24.5,70.0 L 24.5,69.0 L 24.5,68.0 L 24.5,67.0 L 24.5,66.0 L 24.5,65.0 L 24.5,64.0 L 24.5,63.0 L 24.5,62.0 L 24.5,61.0 L 24.5,60.0 L 24.5,59.0 L 24.5,58.0 L 24.5,57.0 L 24.5,56.0 L 24.5,55.0 L 24.5,54.0 L 24.5,53.0 L 24.5,52.0 L 24.5,51.0 L 24.5,50.0 L 24.5,49.0 L 24.5,48.0 L 24.5,47.0 L 24.5,46.0 L 24.5,45.0 L 24.5,44.0 L 24.5,43.0 L 24.5,42.0 L 24.5,41.0 L 24.5,40.0 L 24.5,39.0 L 24.5,38.0 L 24.5,37.0 L 25.0,36.5 L 25.5,37.0 L 25.5,38.0 L 25.5,39.0 L 25.5,40.0 L 25.5,41.0 L 25.5,42.0 L 25.5,43.0 L 25.5,44.0 L 25.5,45.0 L 25.5,46.0 L 25.5,47.0 L 25.5,48.0 L 25.5,49.0 L 25.5,50.0 L 25.5,51.0 L 25.5,52.0 L 25.5,53.0 L 25.5,54.0 L 25.5,55.0 L 25.5,56.0 L 25.5,57.0 L 25.5,58.0 L 25.5,59.0 L 25.5,60.0 L 25.5,61.0 L 25.5,62.0 L 25.5,63.0 L 25.5,64.0 L 25.5,65.0 L 25.5,66.0 L 25.5,67.0 L 25.5,68.0 L 25.5,69.0 L 25.5,70.0 L 25.5,71.0 L 25.5,72.0 L 25.5,73.0 L 26.0,73.5 L 26.5,74.0 L 27.0,74.5 L 28.0,74.5 L 29.0,74.5 L 30.0,74.5 L 31.0,74.5 L 32.0,74.5 L 33.0,74.5 L 34.0,74.5 L 35.0,74.5 L 36.0,74.5 L 37.0,74.5 L 38.0,74.5 L 39.0,74.5 L 40.0,74.5 L 41.0,74.5 L 42.0,74.5 L 43.0,74.5 L 43.5,74.0 L 43.5,73.0 L 43.5,72.0 L 43.5,71.0 L 43.5,70.0 L 43.5,69.0 L 43.5,68.0 L 43.5,67.0 L 43.5,66.0 L 43.5,65.0 L 43.5,64.0 L 43.5,63.0 L 43.5,62.0 L 43.5,61.0 L 43.5,60.0 L 43.5,59.0 L 43.5,58.0 L 43.5,57.0 L 43.5,56.0 L 43.5,55.0 L 43.5,54.0 L 43.5,53.0 L 43.5,52.0 L 43.5,51.0 L 43.5,50.0 L 43.5,49.0 L 43.5,48.0 L 43.5,47.0 L 43.5,46.0 L 43.5,45.0 L 43.5,44.0 L 44.0,43.5 L 44.5,44.0 L 44.5,45.0 L 44.5,46.0 L 44.5,47.0 L 44.5,48.0 L 44.5,49.0 L 44.5,50.0 L 44.5,51.0 L 44.5,52.0 L 44.5,53.0 L 44.5,54.0 L 44.5,55.0 L 44.5,56.0 L 44.5,57.0 L 44.5,58.0 L 44.5,59.0 L 44.5,60.0 L 44.5,61.0 L 44.5,62.0 L 44.5,63.0 L 44.5,64.0 L 44.5,65.0 L 44.5,66.0 L 44.5,67.0 L 44.5,68.0 L 44.5,69.0 L 44.5,70.0 L 44.5,71.0 L 44.5,72.0 L 44.5,73.0 L 44.5,74.0 L 44.5,75.0 L 44.0,75.5 Z" fill="none" stroke="cyan" stroke-width="2" /><path d="M 32.0,39.5 L 31.5,39.0 L 31.5,38.0 L 31.5,37.0 L 32.0,36.5 L 32.5,37.0 L 32.5,38.0 L 32.5,39.0 L 32.0,39.5 Z" fill="none" stroke="cyan" stroke-width="2" /><path d="M 78.0,41.5 L 77.5,41.0 L 77.5,40.0 L 77.5,39.0 L 77.5,38.0 L 77.5,37.0 L 78.0,36.5 L 78.5,37.0 L 78.5,38.0 L 78.5,39.0 L 78.5,40.0 L 78.5,41.0 L 78.0,41.5 Z" fill="none" stroke="cyan" stroke-width="2" /><path d="M 112.0,39.5 L 111.5,39.0 L 111.5,38.0 L 111.5,37.0 L 112.0,36.5 L 112.5,37.0 L 112.5,38.0 L 112.5,39.0 L 112.0,39.5 Z" fill="none" stroke="cyan" stroke-width="2" /><path d="M 123.0,38.5 L 122.5,38.0 L 122.5,37.0 L 123.0,36.5 L 123.5,37.0 L 123.5,38.0 L 123.0,38.5 Z" fill="none" stroke="cyan" stroke-width="2" /><path d="M 171.0,39.5 L 170.5,39.0 L 170.5,38.0 L 170.5,37.0 L 171.0,36.5 L 171.5,37.0 L 171.5,38.0 L 171.5,39.0 L 171.0,39.5 Z" fill="none" stroke="cyan" stroke-width="2" /><path d="M 216.0,39.5 L 215.5,39.0 L 215.5,38.0 L 215.5,37.0 L 216.0,36.5 L 216.5,37.0 L 216.5,38.0 L 216.5,39.0 L 216.0,39.5 Z" fill="none" stroke="cyan" stroke-width="2" /><path d="M 85.0,51.5 L 84.5,51.0 L 84.5,50.0 L 84.5,49.0 L 84.5,48.0 L 84.5,47.0 L 84.5,46.0 L 84.5,45.0 L 84.5,44.0 L 84.5,43.0 L 84.5,42.0 L 84.5,41.0 L 84.5,40.0 L 84.5,39.0 L 84.5,38.0 L 85.0,37.5 L 85.5,38.0 L 85.5,39.0 L 85.5,40.0 L 85.5,41.0 L 85.5,42.0 L 85.5,43.0 L 85.5,44.0 L 85.5,45.0 L 85.5,46.0 L 85.5,47.0 L 85.5,48.0 L 85.5,49.0 L 85.5,50.0 L 85.5,51.0 L 85.0,51.5 Z" fill="none" stroke="cyan" stroke-width="2" /><path d="M 104.0,38.5 L 103.0,38.5 L 102.0,38.5 L 101.0,38.5 L 100.0,38.5 L 99.5,38.0 L 100.0,37.5 L 101.0,37.5 L 102.0,37.5 L 103.0,37.5 L 104.0,37.5 L 104.5,38.0 L 104.0,38.5 Z" fill="none" stroke="cyan" stroke-width="2" /><path d="M 71.0,43.5 L 70.5,43.0 L 70.5,42.0 L 70.5,41.0 L 70.5,40.0 L 70.5,39.0 L 71.0,38.5 L 71.5,39.0 L 71.5,40.0 L 71.5,41.0 L 71.5,42.0 L 71.5,43.0 L 71.0,43.5 Z" fill="none" stroke="cyan" stroke-width="2" /><path d="M 99.0,39.5 L 98.5,39.0 L 99.0,38.5 L 99.5,39.0 L 99.0,39.5 Z" fill="none" stroke="cyan" stroke-width="2" /><path d="M 124.0,40.5 L 123.5,40.0 L 123.5,39.0 L 124.0,38.5 L 124.5,39.0 L 124.5,40.0 L 124.0,40.5 Z" fill="none" stroke="cyan" stroke-width="2" /><path d="M 183.0,40.5 L 182.5,40.0 L 182.5,39.0 L 183.0,38.5 L 183.5,39.0 L 183.5,40.0 L 183.0,40.5 Z" fill="none" stroke="cyan" stroke-width="2" /><path d="M 204.0,40.5 L 203.5,40.0 L 203.5,39.0 L 204.0,38.5 L 204.5,39.0 L 204.5,40.0 L 204.0,40.5 Z" fill="none" stroke="cyan" stroke-width="2" /><path d="M 32.0,68.5 L 31.0,68.5 L 30.5,68.0 L 30.5,67.0 L 30.5,66.0 L 30.5,65.0 L 30.5,64.0 L 30.5,63.0 L 30.5,62.0 L 30.5,61.0 L 30.5,60.0 L 30.5,59.0 L 30.5,58.0 L 30.5,57.0 L 30.5,56.0 L 30.5,55.0 L 30.5,54.0 L 30.5,53.0 L 30.5,52.0 L 30.5,51.0 L 30.5,50.0 L 30.5,49.0 L 30.5,48.0 L 30.5,47.0 L 30.5,46.0 L 30.5,45.0 L 30.5,44.0 L 30.5,43.0 L 30.5,42.0 L 30.5,41.0 L 30.5,40.0 L 31.0,39.5 L 31.5,40.0 L 31.5,41.0 L 31.5,42.0 L 31.5,43.0 L 31.5,44.0 L 31.5,45.0 L 31.5,46.0 L 31.5,47.0 L 31.5,48.0 L 31.5,49.0 L 31.5,50.0 L 31.5,51.0 L 31.5,52.0 L 31.5,53.0 L 31.5,54.0 L 31.5,55.0 L 31.5,56.0 L 31.5,57.0 L 31.5,58.0 L 31.5,59.0 L 31.5,60.0 L 31.5,61.0 L 31.5,62.0 L 31.5,63.0 L 31.5,64.0 L 31.5,65.0 L 31.5,66.0 L 31.5,67.0 L 32.0,67.5 L 32.5,68.0 L 32.0,68.5 Z" fill="none" stroke="cyan" stroke-width="2" /><path d="M 111.0,41.5 L 110.5,41.0 L 110.5,40.0 L 111.0,39.5 L 111.5,40.0 L 111.5,41.0 L 111.0,41.5 Z" fill="none" stroke="cyan" stroke-width="2" /><path d="M 170.0,41.5 L 169.5,41.0 L 169.5,40.0 L 170.0,39.5 L 170.5,40.0 L 170.5,41.0 L 170.0,41.5 Z" fill="none" stroke="cyan" stroke-width="2" /><path d="M 217.0,41.5 L 216.5,41.0 L 216.5,40.0 L 217.0,39.5 L 217.5,40.0 L 217.5,41.0 L 217.0,41.5 Z" fill="none" stroke="cyan" stroke-width="2" /><path d="M 38.0,68.5 L 37.0,68.5 L 36.5,68.0 L 37.0,67.5 L 37.5,67.0 L 37.5,66.0 L 37.5,65.0 L 37.5,64.0 L 37.5,63.0 L 37.5,62.0 L 37.5,61.0 L 37.5,60.0 L 37.5,59.0 L 37.5,58.0 L 37.5,57.0 L 37.5,56.0 L 37.5,55.0 L 37.5,54.0 L 37.5,53.0 L 37.5,52.0 L 37.5,51.0 L 37.5,50.0 L 37.5,49.0 L 37.5,48.0 L 37.5,47.0 L 37.5,46.0 L 37.5,45.0 L 37.5,44.0 L 37.5,43.0 L 37.5,42.0 L 37.5,41.0 L 38.0,40.5 L 38.5,41.0 L 38.5,42.0 L 38.5,43.0 L 38.5,44.0 L 38.5,45.0 L 38.5,46.0 L 38.5,47.0 L 38.5,48.0 L 38.5,49.0 L 38.5,50.0 L 38.5,51.0 L 38.5,52.0 L 38.5,53.0 L 38.5,54.0 L 38.5,55.0 L 38.5,56.0 L 38.5,57.0 L 38.5,58.0 L 38.5,59.0 L 38.5,60.0 L 38.5,61.0 L 38.5,62.0 L 38.5,63.0 L 38.5,64.0 L 38.5,65.0 L 38.5,66.0 L 38.5,67.0 L 38.5,68.0 L 38.0,68.5 Z" fill="none" stroke="cyan" stroke-width="2" /><path d="M 125.0,44.5 L 124.0,44.5 L 123.0,44.5 L 122.0,44.5 L 121.5,44.0 L 121.0,43.5 L 120.5,43.0 L 120.5,42.0 L 120.0,41.5 L 119.0,41.5 L 118.0,41.5 L 117.0,41.5 L 116.0,41.5 L 115.0,41.5 L 114.5,42.0 L 114.0,42.5 L 113.5,42.0 L 113.5,41.0 L 114.0,40.5 L 115.0,40.5 L 116.0,40.5 L 117.0,40.5 L 118.0,40.5 L 119.0,40.5 L 120.0,40.5 L 121.0,40.5 L 121.5,41.0 L 121.5,42.0 L 122.0,42.5 L 122.5,43.0 L 123.0,43.5 L 124.0,43.5 L 124.5,43.0 L 124.5,42.0 L 124.5,41.0 L 125.0,40.5 L 125.5,41.0 L 125.5,42.0 L 125.5,43.0 L 125.5,44.0 L 125.0,44.5 Z" fill="none" stroke="cyan" stroke-width="2" /><path d="M 184.0,44.5 L 183.0,44.5 L 182.0,44.5 L 181.0,44.5 L 180.5,44.0 L 180.5,43.0 L 180.0,42.5 L 179.5,42.0 L 179.0,41.5 L 178.0,41.5 L 177.0,41.5 L 176.0,41.5 L 175.0,41.5 L 174.0,41.5 L 173.5,42.0 L 173.0,42.5 L 172.5,42.0 L 172.5,41.0 L 173.0,40.5 L 174.0,40.5 L 175.0,40.5 L 176.0,40.5 L 177.0,40.5 L 178.0,40.5 L 179.0,40.5 L 180.0,40.5 L 180.5,41.0 L 181.0,41.5 L 181.5,42.0 L 181.5,43.0 L 182.0,43.5 L 183.0,43.5 L 183.5,43.0 L 183.5,42.0 L 183.5,41.0 L 184.0,40.5 L 184.5,41.0 L 184.5,42.0 L 184.5,43.0 L 184.5,44.0 L 184.0,44.5 Z" fill="none" stroke="cyan" stroke-width="2" /><path d="M 218.0,44.5 L 217.0,44.5 L 216.0,44.5 L 215.0,44.5 L 214.5,44.0 L 214.0,43.5 L 213.5,43.0 L 213.5,42.0 L 213.0,41.5 L 212.0,41.5 L 211.0,41.5 L 210.0,41.5 L 209.0,41.5 L 208.0,41.5 L 207.5,42.0 L 207.0,42.5 L 206.5,43.0 L 206.5,44.0 L 206.0,44.5 L 205.0,44.5 L 204.0,44.5 L 203.0,44.5 L 202.5,44.0 L 202.5,43.0 L 202.5,42.0 L 202.5,41.0 L 203.0,40.5 L 203.5,41.0 L 203.5,42.0 L 203.5,43.0 L 204.0,43.5 L 205.0,43.5 L 205.5,43.0 L 205.5,42.0 L 206.0,41.5 L 206.5,41.0 L 207.0,40.5 L 208.0,40.5 L 209.0,40.5 L 210.0,40.5 L 211.0,40.5 L 212.0,40.5 L 213.0,40.5 L 214.0,40.5 L 214.5,41.0 L 214.5,42.0 L 215.0,42.5 L 215.5,43.0 L 216.0,43.5 L 217.0,43.5 L 217.5,43.0 L 217.5,42.0 L 218.0,41.5 L 218.5,42.0 L 218.5,43.0 L 218.5,44.0 L 218.0,44.5 Z" fill="none" stroke="cyan" stroke-width="2" /><path d="M 65.0,47.5 L 64.5,47.0 L 64.5,46.0 L 64.5,45.0 L 64.5,44.0 L 64.5,43.0 L 64.5,42.0 L 65.0,41.5 L 65.5,42.0 L 65.5,43.0 L 65.5,44.0 L 65.5,45.0 L 65.5,46.0 L 65.5,47.0 L 65.0,47.5 Z" fill="none" stroke="cyan" stroke-width="2" /><path d="M 79.0,47.5 L 78.5,47.0 L 78.5,46.0 L 78.5,45.0 L 78.5,44.0 L 78.5,43.0 L 78.5,42.0 L 79.0,41.5 L 79.5,42.0 L 79.5,43.0 L 79.5,44.0 L 79.5,45.0 L 79.5,46.0 L 79.5,47.0 L 79.0,47.5 Z" fill="none" stroke="cyan" stroke-width="2" /><path d="M 113.0,44.5 L 112.0,44.5 L 111.0,44.5 L 110.0,44.5 L 109.5,44.0 L 109.5,43.0 L 109.5,42.0 L 110.0,41.5 L 110.5,42.0 L 110.5,43.0 L 111.0,43.5 L 112.0,43.5 L 112.5,43.0 L 113.0,42.5 L 113.5,43.0 L 113.5,44.0 L 113.0,44.5 Z" fill="none" stroke="cyan" stroke-width="2" /><path d="M 172.0,44.5 L 171.0,44.5 L 170.0,44.5 L 169.0,44.5 L 168.5,44.0 L 168.5,43.0 L 168.5,42.0 L 169.0,41.5 L 169.5,42.0 L 169.5,43.0 L 170.0,43.5 L 171.0,43.5 L 171.5,43.0 L 172.0,42.5 L 172.5,43.0 L 172.5,44.0 L 172.0,44.5 Z" fill="none" stroke="cyan" stroke-width="2" /><path d="M 72.0,45.5 L 71.5,45.0 L 71.5,44.0 L 72.0,43.5 L 72.5,44.0 L 72.5,45.0 L 72.0,45.5 Z" fill="none" stroke="cyan" stroke-width="2" /><path d="M 71.0,50.5 L 70.5,50.0 L 70.5,49.0 L 70.5,48.0 L 70.5,47.0 L 70.5,46.0 L 71.0,45.5 L 71.5,46.0 L 71.5,47.0 L 71.5,48.0 L 71.5,49.0 L 71.5,50.0 L 71.0,50.5 Z" fill="none" stroke="cyan" stroke-width="2" /><path d="M 60.0,54.5 L 59.0,54.5 L 58.5,54.0 L 59.0,53.5 L 59.5,53.0 L 60.0,52.5 L 61.0,52.5 L 61.5,52.0 L 62.0,51.5 L 62.5,51.0 L 62.5,50.0 L 63.0,49.5 L 63.5,49.0 L 63.5,48.0 L 64.0,47.5 L 64.5,48.0 L 64.5,49.0 L 64.5,50.0 L 64.0,50.5 L 63.5,51.0 L 63.5,52.0 L 63.0,52.5 L 62.5,53.0 L 62.0,53.5 L 61.0,53.5 L 60.5,54.0 L 60.0,54.5 Z" fill="none" stroke="cyan" stroke-width="2" /><path d="M 78.0,52.5 L 77.5,52.0 L 77.5,51.0 L 77.5,50.0 L 77.5,49.0 L 77.5,48.0 L 78.0,47.5 L 78.5,48.0 L 78.5,49.0 L 78.5,50.0 L 78.5,51.0 L 78.5,52.0 L 78.0,52.5 Z" fill="none" stroke="cyan" stroke-width="2" /><path d="M 129.0,50.5 L 128.0,50.5 L 127.0,50.5 L 126.5,50.0 L 127.0,49.5 L 128.0,49.5 L 129.0,49.5 L 129.5,50.0 L 129.0,50.5 Z" fill="none" stroke="cyan" stroke-width="2" /><path d="M 144.0,50.5 L 143.0,50.5 L 142.0,50.5 L 141.0,50.5 L 140.5,50.0 L 141.0,49.5 L 142.0,49.5 L 143.0,49.5 L 144.0,49.5 L 144.5,50.0 L 144.0,50.5 Z" fill="none" stroke="cyan" stroke-width="2" /><path d="M 159.0,50.5 L 158.0,50.5 L 157.0,50.5 L 156.5,50.0 L 157.0,49.5 L 158.0,49.5 L 159.0,49.5 L 159.5,50.0 L 159.0,50.5 Z" fill="none" stroke="cyan" stroke-width="2" /><path d="M 189.0,50.5 L 188.0,50.5 L 187.0,50.5 L 186.0,50.5 L 185.5,50.0 L 186.0,49.5 L 187.0,49.5 L 188.0,49.5 L 189.0,49.5 L 189.5,50.0 L 189.0,50.5 Z" fill="none" stroke="cyan" stroke-width="2" /><path d="M 63.0,60.5 L 62.0,60.5 L 61.5,60.0 L 62.0,59.5 L 62.5,59.0 L 63.0,58.5 L 64.0,58.5 L 64.5,58.0 L 65.0,57.5 L 65.5,57.0 L 66.0,56.5 L 66.5,56.0 L 67.0,55.5 L 67.5,55.0 L 68.0,54.5 L 68.5,54.0 L 68.5,53.0 L 69.0,52.5 L 69.5,52.0 L 69.5,51.0 L 70.0,50.5 L 70.5,51.0 L 70.5,52.0 L 70.5,53.0 L 70.0,53.5 L 69.5,54.0 L 69.5,55.0 L 69.0,55.5 L 68.5,56.0 L 68.0,56.5 L 67.5,57.0 L 67.0,57.5 L 66.5,58.0 L 66.0,58.5 L 65.5,59.0 L 65.0,59.5 L 64.0,59.5 L 63.5,60.0 L 63.0,60.5 Z" fill="none" stroke="cyan" stroke-width="2" /><path d="M 124.0,57.5 L 123.5,57.0 L 123.5,56.0 L 123.5,55.0 L 123.5,54.0 L 123.5,53.0 L 123.5,52.0 L 124.0,51.5 L 124.5,51.0 L 125.0,50.5 L 126.0,50.5 L 126.5,51.0 L 126.0,51.5 L 125.5,52.0 L 125.0,52.5 L 124.5,53.0 L 124.5,54.0 L 124.5,55.0 L 124.5,56.0 L 124.5,57.0 L 124.0,57.5 Z" fill="none" stroke="cyan" stroke-width="2" /><path d="M 131.0,59.5 L 130.0,59.5 L 129.0,59.5 L 128.0,59.5 L 127.0,59.5 L 126.0,59.5 L 125.5,59.0 L 126.0,58.5 L 127.0,58.5 L 128.0,58.5 L 129.0,58.5 L 130.0,58.5 L 130.5,58.0 L 131.0,57.5 L 131.5,57.0 L 131.5,56.0 L 131.0,55.5 L 130.5,55.0 L 130.5,54.0 L 130.5,53.0 L 130.5,52.0 L 130.5,51.0 L 131.0,50.5 L 131.5,51.0 L 131.5,52.0 L 131.5,53.0 L 131.5,54.0 L 132.0,54.5 L 132.5,55.0 L 132.5,56.0 L 132.5,57.0 L 132.5,58.0 L 132.0,58.5 L 131.5,59.0 L 131.0,59.5 Z" fill="none" stroke="cyan" stroke-width="2" /><path d="M 139.0,57.5 L 138.5,57.0 L 138.5,56.0 L 138.5,55.0 L 138.5,54.0 L 138.5,53.0 L 138.5,52.0 L 138.5,51.0 L 139.0,50.5 L 140.0,50.5 L 140.5,51.0 L 140.0,51.5 L 139.5,52.0 L 139.5,53.0 L 139.5,54.0 L 139.5,55.0 L 139.5,56.0 L 139.5,57.0 L 139.0,57.5 Z" fill="none" stroke="cyan" stroke-width="2" /><path d="M 146.0,54.5 L 145.5,54.0 L 145.5,53.0 L 145.5,52.0 L 145.0,51.5 L 144.5,51.0 L 145.0,50.5 L 146.0,50.5 L 146.5,51.0 L 146.5,52.0 L 146.5,53.0 L 146.5,54.0 L 146.0,54.5 Z" fill="none" stroke="cyan" stroke-width="2" /><path d="M 156.0,51.5 L 155.0,51.5 L 154.5,51.0 L 155.0,50.5 L 156.0,50.5 L 156.5,51.0 L 156.0,51.5 Z" fill="none" stroke="cyan" stroke-width="2" /><path d="M 161.0,53.5 L 160.5,53.0 L 160.5,52.0 L 160.0,51.5 L 159.5,51.0 L 160.0,50.5 L 161.0,50.5 L 161.5,51.0 L 161.5,52.0 L 161.5,53.0 L 161.0,53.5 Z" fill="none" stroke="cyan" stroke-width="2" /><path d="M 176.0,58.5 L 175.5,58.0 L 175.5,57.0 L 175.5,56.0 L 175.5,55.0 L 175.5,54.0 L 175.5,53.0 L 175.5,52.0 L 175.0,51.5 L 174.5,52.0 L 174.5,53.0 L 174.5,54.0 L 174.5,55.0 L 174.5,56.0 L 174.5,57.0 L 174.0,57.5 L 173.0,57.5 L 172.0,57.5 L 171.5,57.0 L 171.0,56.5 L 170.5,56.0 L 170.5,55.0 L 170.5,54.0 L 170.5,53.0 L 170.5,52.0 L 170.0,51.5 L 169.5,52.0 L 169.5,53.0 L 169.5,54.0 L 169.5,55.0 L 169.5,56.0 L 169.5,57.0 L 169.0,57.5 L 168.5,57.0 L 168.5,56.0 L 168.5,55.0 L 168.5,54.0 L 168.5,53.0 L 168.5,52.0 L 168.5,51.0 L 169.0,50.5 L 170.0,50.5 L 171.0,50.5 L 171.5,51.0 L 171.5,52.0 L 171.5,53.0 L 171.5,54.0 L 171.5,55.0 L 172.0,55.5 L 172.5,56.0 L 173.0,56.5 L 173.5,56.0 L 173.5,55.0 L 173.5,54.0 L 173.5,53.0 L 173.5,52.0 L 173.5,51.0 L 174.0,50.5 L 175.0,50.5 L 176.0,50.5 L 176.5,51.0 L 176.5,52.0 L 176.5,53.0 L 176.5,54.0 L 176.5,55.0 L 176.5,56.0 L 176.5,57.0 L 176.5,58.0 L 176.0,58.5 Z" fill="none" stroke="cyan" stroke-width="2" /><path d="M 184.0,58.5 L 183.5,58.0 L 183.5,57.0 L 183.5,56.0 L 183.5,55.0 L 183.5,54.0 L 183.5,53.0 L 183.5,52.0 L 183.5,51.0 L 184.0,50.5 L 185.0,50.5 L 185.5,51.0 L 185.0,51.5 L 184.5,52.0 L 184.5,53.0 L 184.5,54.0 L 184.5,55.0 L 184.5,56.0 L 184.5,57.0 L 184.5,58.0 L 184.0,58.5 Z" fill="none" stroke="cyan" stroke-width="2" /><path d="M 190.0,51.5 L 189.5,51.0 L 190.0,50.5 L 190.5,51.0 L 190.0,51.5 Z" fill="none" stroke="cyan" stroke-width="2" /><path d="M 84.0,54.5 L 83.5,54.0 L 83.5,53.0 L 83.5,52.0 L 84.0,51.5 L 84.5,52.0 L 84.5,53.0 L 84.5,54.0 L 84.0,54.5 Z" fill="none" stroke="cyan" stroke-width="2" /><path d="M 129.0,52.5 L 128.0,52.5 L 127.5,52.0 L 128.0,51.5 L 129.0,51.5 L 129.5,52.0 L 129.0,52.5 Z" fill="none" stroke="cyan" stroke-width="2" /><path d="M 143.0,52.5 L 142.0,52.5 L 141.5,52.0 L 142.0,51.5 L 143.0,51.5 L 143.5,52.0 L 143.0,52.5 Z" fill="none" stroke="cyan" stroke-width="2" /><path d="M 160.0,59.5 L 159.0,59.5 L 158.0,59.5 L 157.0,59.5 L 156.0,59.5 L 155.0,59.5 L 154.5,59.0 L 154.0,58.5 L 153.5,58.0 L 153.5,57.0 L 153.5,56.0 L 153.5,55.0 L 153.5,54.0 L 153.5,53.0 L 153.5,52.0 L 154.0,51.5 L 154.5,52.0 L 154.5,53.0 L 154.5,54.0 L 154.5,55.0 L 154.5,56.0 L 154.5,57.0 L 155.0,57.5 L 155.5,58.0 L 156.0,58.5 L 157.0,58.5 L 158.0,58.5 L 159.0,58.5 L 159.5,58.0 L 160.0,57.5 L 160.5,57.0 L 160.5,56.0 L 161.0,55.5 L 161.5,56.0 L 161.5,57.0 L 161.5,58.0 L 161.0,58.5 L 160.5,59.0 L 160.0,59.5 Z" fill="none" stroke="cyan" stroke-width="2" /><path d="M 156.0,56.5 L 155.5,56.0 L 155.5,55.0 L 155.5,54.0 L 155.5,53.0 L 156.0,52.5 L 156.5,52.0 L 157.0,51.5 L 158.0,51.5 L 158.5,52.0 L 158.0,52.5 L 157.5,53.0 L 157.0,53.5 L 156.5,54.0 L 156.5,55.0 L 156.5,56.0 L 156.0,56.5 Z" fill="none" stroke="cyan" stroke-width="2" /><path d="M 186.0,59.5 L 185.5,59.0 L 185.5,58.0 L 185.5,57.0 L 185.5,56.0 L 186.0,55.5 L 186.5,55.0 L 186.0,54.5 L 185.5,54.0 L 185.5,53.0 L 186.0,52.5 L 186.5,53.0 L 187.0,53.5 L 187.5,53.0 L 187.0,52.5 L 186.5,52.0 L 187.0,51.5 L 188.0,51.5 L 188.5,52.0 L 188.5,53.0 L 188.5,54.0 L 188.0,54.5 L 187.5,55.0 L 188.0,55.5 L 189.0,55.5 L 189.5,56.0 L 189.0,56.5 L 188.0,56.5 L 187.0,56.5 L 186.5,57.0 L 186.5,58.0 L 186.5,59.0 L 186.0,59.5 Z" fill="none" stroke="cyan" stroke-width="2" /><path d="M 190.0,55.5 L 189.5,55.0 L 189.5,54.0 L 190.0,53.5 L 190.5,53.0 L 190.5,52.0 L 191.0,51.5 L 191.5,52.0 L 191.5,53.0 L 191.5,54.0 L 191.0,54.5 L 190.5,55.0 L 190.0,55.5 Z" fill="none" stroke="cyan" stroke-width="2" /><path d="M 77.0,54.5 L 76.5,54.0 L 76.5,53.0 L 77.0,52.5 L 77.5,53.0 L 77.5,54.0 L 77.0,54.5 Z" fill="none" stroke="cyan" stroke-width="2" /><path d="M 127.0,53.5 L 126.5,53.0 L 127.0,52.5 L 127.5,53.0 L 127.0,53.5 Z" fill="none" stroke="cyan" stroke-width="2" /><path d="M 144.0,53.5 L 143.5,53.0 L 144.0,52.5 L 144.5,53.0 L 144.0,53.5 Z" fill="none" stroke="cyan" stroke-width="2" /><path d="M 159.0,54.5 L 158.5,54.0 L 158.5,53.0 L 159.0,52.5 L 159.5,53.0 L 159.5,54.0 L 159.0,54.5 Z" fill="none" stroke="cyan" stroke-width="2" /><path d="M 129.0,57.5 L 128.0,57.5 L 127.0,57.5 L 126.5,57.0 L 126.0,56.5 L 125.5,56.0 L 125.5,55.0 L 125.5,54.0 L 126.0,53.5 L 126.5,54.0 L 126.5,55.0 L 127.0,55.5 L 127.5,56.0 L 128.0,56.5 L 128.5,56.0 L 129.0,55.5 L 129.5,56.0 L 129.5,57.0 L 129.0,57.5 Z" fill="none" stroke="cyan" stroke-width="2" /><path d="M 129.0,54.5 L 128.5,54.0 L 129.0,53.5 L 129.5,54.0 L 129.0,54.5 Z" fill="none" stroke="cyan" stroke-width="2" /><path d="M 144.0,58.5 L 143.5,58.0 L 143.0,57.5 L 142.5,57.0 L 142.5,56.0 L 142.5,55.0 L 142.0,54.5 L 141.5,54.0 L 142.0,53.5 L 143.0,53.5 L 143.5,54.0 L 143.5,55.0 L 143.5,56.0 L 144.0,56.5 L 144.5,57.0 L 144.5,58.0 L 144.0,58.5 Z" fill="none" stroke="cyan" stroke-width="2" /><path d="M 162.0,55.5 L 161.5,55.0 L 161.5,54.0 L 162.0,53.5 L 162.5,54.0 L 162.5,55.0 L 162.0,55.5 Z" fill="none" stroke="cyan" stroke-width="2" /><path d="M 62.0,75.5 L 61.0,75.5 L 60.0,75.5 L 59.0,75.5 L 58.0,75.5 L 57.0,75.5 L 56.0,75.5 L 55.0,75.5 L 54.0,75.5 L 53.0,75.5 L 52.0,75.5 L 51.5,75.0 L 51.5,74.0 L 51.5,73.0 L 51.5,72.0 L 51.5,71.0 L 51.5,70.0 L 51.5,69.0 L 51.5,68.0 L 51.5,67.0 L 51.5,66.0 L 51.5,65.0 L 51.5,64.0 L 51.5,63.0 L 51.5,62.0 L 51.5,61.0 L 51.5,60.0 L 51.5,59.0 L 51.5,58.0 L 51.5,57.0 L 51.5,56.0 L 51.5,55.0 L 52.0,54.5 L 53.0,54.5 L 54.0,54.5 L 55.0,54.5 L 56.0,54.5 L 57.0,54.5 L 58.0,54.5 L 58.5,55.0 L 58.0,55.5 L 57.0,55.5 L 56.0,55.5 L 55.0,55.5 L 54.0,55.5 L 53.0,55.5 L 52.5,56.0 L 52.5,57.0 L 52.5,58.0 L 52.5,59.0 L 52.5,60.0 L 52.5,61.0 L 52.5,62.0 L 52.5,63.0 L 52.5,64.0 L 52.5,65.0 L 52.5,66.0 L 52.5,67.0 L 52.5,68.0 L 52.5,69.0 L 52.5,70.0 L 52.5,71.0 L 52.5,72.0 L 52.5,73.0 L 52.5,74.0 L 53.0,74.5 L 54.0,74.5 L 55.0,74.5 L 56.0,74.5 L 57.0,74.5 L 58.0,74.5 L 59.0,74.5 L 60.0,74.5 L 61.0,74.5 L 62.0,74.5 L 62.5,75.0 L 62.0,75.5 Z" fill="none" stroke="cyan" stroke-width="2" /><path d="M 65.0,67.5 L 64.0,67.5 L 63.0,67.5 L 62.5,67.0 L 63.0,66.5 L 64.0,66.5 L 64.5,66.0 L 65.0,65.5 L 66.0,65.5 L 66.5,65.0 L 67.0,64.5 L 68.0,64.5 L 68.5,64.0 L 69.0,63.5 L 69.5,63.0 L 70.0,62.5 L 70.5,62.0 L 71.0,61.5 L 71.5,61.0 L 72.0,60.5 L 72.5,60.0 L 73.0,59.5 L 73.5,59.0 L 73.5,58.0 L 74.0,57.5 L 74.5,57.0 L 75.0,56.5 L 75.5,56.0 L 75.5,55.0 L 76.0,54.5 L 76.5,55.0 L 76.5,56.0 L 76.5,57.0 L 76.0,57.5 L 75.5,58.0 L 75.0,58.5 L 74.5,59.0 L 74.5,60.0 L 74.0,60.5 L 73.5,61.0 L 73.0,61.5 L 72.5,62.0 L 72.0,62.5 L 71.5,63.0 L 71.0,63.5 L 70.5,64.0 L 70.0,64.5 L 69.5,65.0 L 69.0,65.5 L 68.0,65.5 L 67.5,66.0 L 67.0,66.5 L 66.0,66.5 L 65.5,67.0 L 65.0,67.5 Z" fill="none" stroke="cyan" stroke-width="2" /><path d="M 68.0,73.5 L 67.0,73.5 L 66.0,73.5 L 65.5,73.0 L 66.0,72.5 L 67.0,72.5 L 67.5,72.0 L 68.0,71.5 L 69.0,71.5 L 69.5,71.0 L 70.0,70.5 L 71.0,70.5 L 71.5,70.0 L 72.0,69.5 L 72.5,69.0 L 73.0,68.5 L 73.5,68.0 L 74.0,67.5 L 74.5,67.0 L 75.0,66.5 L 75.5,66.0 L 76.0,65.5 L 76.5,65.0 L 77.0,64.5 L 77.5,64.0 L 78.0,63.5 L 78.5,63.0 L 79.0,62.5 L 79.5,62.0 L 79.5,61.0 L 80.0,60.5 L 80.5,60.0 L 81.0,59.5 L 81.5,59.0 L 81.5,58.0 L 82.0,57.5 L 82.5,57.0 L 82.5,56.0 L 82.5,55.0 L 83.0,54.5 L 83.5,55.0 L 83.5,56.0 L 83.5,57.0 L 83.5,58.0 L 83.0,58.5 L 82.5,59.0 L 82.5,60.0 L 82.0,60.5 L 81.5,61.0 L 81.0,61.5 L 80.5,62.0 L 80.5,63.0 L 80.0,63.5 L 79.5,64.0 L 79.0,64.5 L 78.5,65.0 L 78.0,65.5 L 77.5,66.0 L 77.0,66.5 L 76.5,67.0 L 76.0,67.5 L 75.5,68.0 L 75.0,68.5 L 74.5,69.0 L 74.0,69.5 L 73.5,70.0 L 73.0,70.5 L 72.5,71.0 L 72.0,71.5 L 71.0,71.5 L 70.5,72.0 L 70.0,72.5 L 69.0,72.5 L 68.5,73.0 L 68.0,73.5 Z" fill="none" stroke="cyan" stroke-width="2" /><path d="M 128.0,55.5 L 127.5,55.0 L 128.0,54.5 L 128.5,55.0 L 128.0,55.5 Z" fill="none" stroke="cyan" stroke-width="2" /><path d="M 145.0,55.5 L 144.5,55.0 L 145.0,54.5 L 145.5,55.0 L 145.0,55.5 Z" fill="none" stroke="cyan" stroke-width="2" /><path d="M 160.0,55.5 L 159.5,55.0 L 160.0,54.5 L 160.5,55.0 L 160.0,55.5 Z" fill="none" stroke="cyan" stroke-width="2" /><path d="M 141.0,58.5 L 140.0,58.5 L 139.5,58.0 L 140.0,57.5 L 140.5,57.0 L 140.5,56.0 L 141.0,55.5 L 141.5,56.0 L 141.5,57.0 L 141.5,58.0 L 141.0,58.5 Z" fill="none" stroke="cyan" stroke-width="2" /><path d="M 146.0,59.5 L 145.0,59.5 L 144.5,59.0 L 145.0,58.5 L 145.5,58.0 L 145.5,57.0 L 145.5,56.0 L 146.0,55.5 L 146.5,56.0 L 146.5,57.0 L 146.5,58.0 L 146.5,59.0 L 146.0,59.5 Z" fill="none" stroke="cyan" stroke-width="2" /><path d="M 159.0,56.5 L 158.5,56.0 L 159.0,55.5 L 159.5,56.0 L 159.0,56.5 Z" fill="none" stroke="cyan" stroke-width="2" /><path d="M 158.0,57.5 L 157.0,57.5 L 156.5,57.0 L 157.0,56.5 L 158.0,56.5 L 158.5,57.0 L 158.0,57.5 Z" fill="none" stroke="cyan" stroke-width="2" /><path d="M 125.0,58.5 L 124.5,58.0 L 125.0,57.5 L 125.5,58.0 L 125.0,58.5 Z" fill="none" stroke="cyan" stroke-width="2" /><path d="M 175.0,59.5 L 174.0,59.5 L 173.0,59.5 L 172.0,59.5 L 171.0,59.5 L 170.0,59.5 L 169.5,59.0 L 169.5,58.0 L 170.0,57.5 L 170.5,58.0 L 171.0,58.5 L 172.0,58.5 L 173.0,58.5 L 174.0,58.5 L 175.0,58.5 L 175.5,59.0 L 175.0,59.5 Z" fill="none" stroke="cyan" stroke-width="2" /><path d="M 62.0,68.5 L 61.0,68.5 L 60.0,68.5 L 59.0,68.5 L 58.0,68.5 L 57.5,68.0 L 57.5,67.0 L 57.5,66.0 L 57.5,65.0 L 57.5,64.0 L 57.5,63.0 L 57.5,62.0 L 58.0,61.5 L 58.5,61.0 L 59.0,60.5 L 60.0,60.5 L 61.0,60.5 L 61.5,61.0 L 61.0,61.5 L 60.0,61.5 L 59.5,62.0 L 59.0,62.5 L 58.5,63.0 L 58.5,64.0 L 58.5,65.0 L 58.5,66.0 L 58.5,67.0 L 59.0,67.5 L 60.0,67.5 L 61.0,67.5 L 62.0,67.5 L 62.5,68.0 L 62.0,68.5 Z" fill="none" stroke="cyan" stroke-width="2" /><path d="M 36.0,69.5 L 35.0,69.5 L 34.0,69.5 L 33.0,69.5 L 32.5,69.0 L 33.0,68.5 L 34.0,68.5 L 35.0,68.5 L 36.0,68.5 L 36.5,69.0 L 36.0,69.5 Z" fill="none" stroke="cyan" stroke-width="2" /><path d="M 65.0,74.5 L 64.0,74.5 L 63.0,74.5 L 62.5,74.0 L 63.0,73.5 L 64.0,73.5 L 65.0,73.5 L 65.5,74.0 L 65.0,74.5 Z" fill="none" stroke="cyan" stroke-width="2" /></svg>