<svg width="212" height="90" viewBox="0 0 212 90" fill="none" xmlns="http://www.w3.org/2000/svg">
<path d="M108.468 7.91713C96.9253 7.96671 87.5709 17.3972 87.6152 28.9388L87.6996 49.6896L101.383 49.6344L101.299 28.8816C101.293 26.4547 102.611 24.2329 104.743 23.0716C105.853 22.3261 107.158 21.9278 108.524 21.9188C110.372 21.9155 112.114 22.6325 113.43 23.9376C114.745 25.2419 115.475 26.9765 115.487 28.8258C115.494 32.6419 112.397 35.765 108.581 35.7872L106.491 35.7959L106.496 37.1437L106.461 38.0684L106.503 48.5248L106.544 48.5244L106.549 49.7979L108.638 49.7893C120.18 49.7399 129.535 40.3096 129.49 28.7681C129.466 23.1873 127.264 17.9427 123.29 14.0008L123.288 13.9991C119.332 10.0754 114.101 7.91727 108.552 7.91699C108.523 7.91699 108.496 7.91713 108.468 7.91713ZM92.1946 28.9179C92.1753 19.9141 99.4826 12.5471 108.486 12.4955C112.842 12.4855 116.951 14.1755 120.056 17.2552C123.16 20.3344 124.885 24.4287 124.91 28.7873C124.927 36.5274 119.44 43.2899 111.862 44.8671L110.748 45.0993L110.728 40.1706L111.424 39.9879C112.575 39.6862 113.66 39.2179 114.616 38.6175C117.842 36.3948 119.759 32.7274 119.745 28.8084C119.731 25.6544 118.489 22.6927 116.247 20.4697C115.553 19.7814 114.776 19.18 113.971 18.7006C112.305 17.8035 110.415 17.3331 108.505 17.34C102.159 17.3684 97.0161 22.5546 97.0409 28.9004L97.1074 45.2575L92.2612 45.2772L92.1946 28.9179Z" fill="url(#paint0_linear_16207_42033)"/>
<path d="M65.8305 66.609H68.9513C71.615 66.609 71.5993 62.7002 68.9513 62.7002H65.8305V66.609ZM68.9513 68.5163H65.8305V71.7631H63.75V60.73C65.4838 60.73 67.2175 60.7142 68.9513 60.7142C74.3418 60.7142 74.3575 68.5163 68.9513 68.5163Z" fill="white"/>
<path d="M80.9309 63.0469L78.8819 67.7439H82.9798L80.9309 63.0469ZM83.8153 69.6826H78.0464L77.1007 71.7631H74.8468L79.796 60.73H82.0657L87.0148 71.7631H84.7452L83.8153 69.6826Z" fill="white"/>
<path d="M96.7875 60.7142H98.868V71.7631H97.5755V71.7789L91.7751 64.3235V71.7631H89.6946V60.7299H91.3811L96.7875 67.5705V60.7142Z" fill="white"/>
<path d="M104.275 69.7614H106.545C109.051 69.7614 110.044 67.9331 109.996 66.1362C109.949 64.418 108.94 62.7002 106.545 62.7002H104.275V69.7614ZM112.061 66.1519C112.108 68.9417 110.406 71.7631 106.545 71.7631H102.21V60.7299H106.545C110.328 60.7299 112.014 63.4252 112.061 66.1519Z" fill="white"/>
<path d="M119.958 63.0469L117.909 67.7439H122.007L119.958 63.0469ZM122.843 69.6826H117.074L116.128 71.7631H113.874L118.823 60.73H121.093L126.042 71.7631H123.773L122.843 69.6826Z" fill="white"/>
<path d="M129.605 62.6213H126.106V60.73H135.185V62.6213H131.686V71.7632H129.605V62.6213Z" fill="white"/>
<path d="M142.972 63.0469L140.923 67.7439H145.021L142.972 63.0469ZM145.856 69.6826H140.087L139.142 71.7631H136.888L141.837 60.73H144.107L149.056 71.7631H146.786L145.856 69.6826Z" fill="white"/>
<path d="M85.6474 79.9939H86.8072V80.7972C86.4508 81.0823 86.1398 81.16 85.7834 81.16C84.6561 81.16 84.222 80.389 84.222 79.6439C84.222 78.711 84.8116 77.9723 85.7834 77.9723C86.1787 77.9723 86.6323 78.1342 86.9367 78.4258L87.4681 77.8816C87.0016 77.4215 86.3925 77.1884 85.7834 77.1884C84.1832 77.1884 83.3862 78.3676 83.3862 79.6439C83.3862 80.8361 84.0794 81.957 85.7834 81.957C86.5804 81.957 87.144 81.6526 87.5911 81.1407V79.2292H85.6474V79.9939Z" fill="white"/>
<path d="M95.0053 79.5662V78.1148H96.3076C96.8453 78.1148 97.0851 78.4776 97.0851 78.8405C97.0851 79.2033 96.8519 79.5662 96.3076 79.5662H95.0053ZM97.9403 78.821C97.9403 78.0372 97.3766 77.3245 96.3076 77.318C95.5884 77.318 94.8693 77.3115 94.15 77.3115V81.8534H95.0053V80.3371H95.8282L97.1498 81.8534H98.1671V81.795L96.7935 80.2465C97.6554 80.0715 97.9403 79.4431 97.9403 78.821Z" fill="white"/>
<path d="M106.29 81.173C105.221 81.173 104.819 80.3761 104.8 79.6309C104.78 78.8666 105.221 78.0048 106.29 78.0048C107.359 78.0048 107.786 78.8599 107.774 79.6244C107.76 80.3696 107.359 81.173 106.29 81.173ZM106.29 77.2272C104.722 77.2272 103.957 78.4258 103.957 79.6179C103.957 80.8102 104.696 81.957 106.29 81.957C107.884 81.957 108.603 80.7844 108.616 79.6114C108.629 78.4258 107.851 77.2272 106.29 77.2272Z" fill="white"/>
<path d="M118.153 79.9225C118.153 80.7 117.751 81.1731 117.045 81.1731C116.339 81.1731 115.872 80.7388 115.872 79.9225V77.3243H115.024V79.9225C115.024 81.2896 115.95 81.9506 117.039 81.9506C118.179 81.9506 119.002 81.2638 119.002 79.9225V77.3243H118.153V79.9225Z" fill="white"/>
<path d="M127.755 79.7346H126.472V78.1279H127.755C128.844 78.1279 128.85 79.7346 127.755 79.7346ZM127.755 77.3114C127.042 77.3114 126.33 77.3179 125.617 77.3179V81.8534H126.472V80.5186H127.755C129.977 80.5186 129.971 77.3114 127.755 77.3114Z" fill="white"/>
<defs>
<linearGradient id="paint0_linear_16207_42033" x1="44.9557" y1="-27.8898" x2="125.788" y2="99.3321" gradientUnits="userSpaceOnUse">
<stop stop-color="#00A8DC"/>
<stop offset="1" stop-color="#00FFDC"/>
</linearGradient>
</defs>
</svg>
