<?xml version="1.0" encoding="UTF-8"?>
<!-- Generator: visioncortex VTracer 0.6.4 -->
<svg version="1.1" xmlns="http://www.w3.org/2000/svg" width="2000" height="2000">
<path d="M0 0 C660 0 1320 0 2000 0 C2000 660 2000 1320 2000 2000 C1340 2000 680 2000 0 2000 C0 1340 0 680 0 0 Z " fill="#141E26" transform="translate(0,0)"/>
<path d="M0 0 C17.451305 13.995033 31.642516 29.942206 42.818115 49.358398 C43.150532 49.92752 43.482949 50.496641 43.825439 51.083008 C52.948044 66.821574 58.552908 83.50406 61.818115 101.358398 C62.043701 102.505664 62.269287 103.65293 62.501709 104.834961 C68.45529 140.556446 61.331982 177.875981 43.818115 209.358398 C43.243193 210.420586 42.668271 211.482773 42.075928 212.577148 C35.225186 224.8264 26.461391 235.262451 16.818115 245.358398 C15.598018 246.657773 15.598018 246.657773 14.353271 247.983398 C0.347586 262.511176 -16.881106 273.063497 -35.181885 281.358398 C-36.054258 281.755188 -36.926631 282.151978 -37.825439 282.560791 C-45.107183 285.743718 -52.303806 287.851363 -60.056885 289.545898 C-61.125518 289.792754 -62.19415 290.039609 -63.295166 290.293945 C-81.384283 294.365625 -97.26196 294.358398 -116.181885 294.358398 C-116.181885 258.058398 -116.181885 221.758398 -116.181885 184.358398 C-108.261885 184.028398 -100.341885 183.698398 -92.181885 183.358398 C-78.061427 180.897034 -66.521648 174.388239 -57.400635 163.166992 C-47.768667 149.43161 -45.982063 135.736971 -47.181885 119.358398 C-49.359575 107.30239 -56.667273 95.999165 -66.181885 88.358398 C-80.536673 78.730423 -96.363494 74.68491 -113.533447 78.006836 C-130.079503 83.114721 -143.334104 93.669352 -151.514903 108.828503 C-155.757205 117.792574 -155.896404 126.106902 -155.841309 135.785156 C-155.849777 137.511054 -155.860428 139.236942 -155.873077 140.962814 C-155.901055 145.612917 -155.898782 150.262556 -155.890784 154.912717 C-155.887644 159.785446 -155.912734 164.658032 -155.934738 169.530701 C-155.972092 178.742021 -155.984321 187.953193 -155.987363 197.164581 C-155.992943 209.623037 -156.037661 222.08135 -156.080104 234.539724 C-156.145873 254.145985 -156.159632 273.751928 -156.181885 293.358398 C-191.491885 293.358398 -226.801885 293.358398 -263.181885 293.358398 C-263.343097 247.771189 -263.343097 247.771189 -263.377197 228.573242 C-263.400872 215.351336 -263.428606 202.129533 -263.483643 188.907715 C-263.523717 179.275564 -263.549366 169.643497 -263.558239 160.011265 C-263.563419 154.91882 -263.575451 149.826613 -263.604805 144.734245 C-263.632302 139.924349 -263.640262 135.114786 -263.634315 130.304819 C-263.635401 128.555514 -263.643148 126.806196 -263.658707 125.056959 C-264.018511 82.453705 -244.657212 45.024136 -216.181885 14.358398 C-215.643057 13.76543 -215.104229 13.172461 -214.549072 12.561523 C-190.271727 -13.057785 -156.227428 -26.676175 -122.181885 -32.641602 C-120.546064 -32.935508 -120.546064 -32.935508 -118.877197 -33.235352 C-76.762791 -37.865265 -33.453326 -25.978643 0 0 Z " fill="#00DBDB" transform="translate(1122.181884765625,743.6416015625)"/>
<path d="M0 0 C25.483956 21.027302 44.283525 50.767863 47.997803 84.099365 C50.838688 119.115014 42.565458 153.615704 20.039062 181.148438 C-2.286973 207.368364 -29.043632 221.555181 -62.8125 227.4375 C-62.8125 214.5675 -62.8125 201.6975 -62.8125 188.4375 C-59.1825 187.4475 -55.5525 186.4575 -51.8125 185.4375 C-28.322584 177.02887 -11.980839 161.642532 -1.125 139.25 C2.463353 131.588516 4.455124 123.68957 6.1875 115.4375 C6.477539 114.261875 6.477539 114.261875 6.773438 113.0625 C10.591193 88.859373 3.263771 64.9748 -10.8125 45.4375 C-11.500859 44.470703 -12.189219 43.503906 -12.898438 42.507812 C-26.135943 25.136662 -44.721929 16.379997 -65.644531 11.820312 C-90.496503 8.817238 -114.405867 13.829808 -134.335938 29.394531 C-135.153203 30.068711 -135.970469 30.742891 -136.8125 31.4375 C-137.650391 32.101367 -138.488281 32.765234 -139.351562 33.449219 C-155.46071 46.940007 -166.873833 68.492045 -168.8125 89.4375 C-168.955644 93.98636 -168.938768 98.532975 -168.926025 103.08374 C-168.925743 104.464066 -168.925902 105.844391 -168.926468 107.224716 C-168.926754 110.955601 -168.92089 114.686453 -168.913894 118.417331 C-168.907626 122.322413 -168.907054 126.227497 -168.905869 130.132584 C-168.902765 137.520128 -168.894565 144.907658 -168.884519 152.295197 C-168.873327 160.70874 -168.86784 169.122284 -168.862824 177.535832 C-168.852382 194.836398 -168.834049 212.136944 -168.8125 229.4375 C-181.6825 229.4375 -194.5525 229.4375 -207.8125 229.4375 C-207.880522 211.659559 -207.935658 193.881731 -207.967937 176.103695 C-207.98333 167.846914 -208.004273 159.590221 -208.038818 151.333496 C-208.068954 144.12728 -208.088129 136.921128 -208.094765 129.714851 C-208.098637 125.907932 -208.107575 122.101194 -208.12969 118.294334 C-208.37021 75.14035 -199.761442 40.530015 -169.1875 8.4375 C-151.665218 -8.625092 -129.526049 -20.004637 -105.8125 -25.5625 C-104.966875 -25.771328 -104.12125 -25.980156 -103.25 -26.195312 C-66.939807 -33.527178 -28.959115 -22.106553 0 0 Z " fill="#131F27" transform="translate(1101.8125,773.5625)"/>
<path d="M0 0 C53.392247 0 53.392247 0 65.8125 11 C75.610462 21.712759 77.746508 34.787975 77.183594 48.717285 C76.294125 59.77651 71.095293 69.724346 63.160156 77.328125 C53.965578 84.444363 45.125383 86.159851 33.886719 86.097656 C33.026793 86.096649 32.166868 86.095642 31.280884 86.094604 C28.083076 86.089391 24.885286 86.07543 21.6875 86.0625 C14.530625 86.041875 7.37375 86.02125 0 86 C0 57.62 0 29.24 0 0 Z " fill="#FCFCFC" transform="translate(967,1130)"/>
<path d="M0 0 C7.87875 -0.0825 15.7575 -0.165 23.875 -0.25 C26.342104 -0.286416 28.809209 -0.322832 31.351074 -0.360352 C33.335603 -0.372049 35.320142 -0.382238 37.304688 -0.390625 C38.814945 -0.421321 38.814945 -0.421321 40.355713 -0.452637 C49.540821 -0.457105 57.621579 1.864729 64.464844 8.222656 C71.872099 16.798486 72.834561 26.134667 72.230957 37.04248 C71.421449 43.903617 67.242708 49.732679 62 54 C52.081053 61.45556 41.953488 61.278975 29.9375 61.125 C28.581387 61.114946 27.225266 61.105825 25.869141 61.097656 C22.579349 61.074241 19.289651 61.038376 16 61 C16 69.25 16 77.5 16 86 C10.72 86 5.44 86 0 86 C0 57.62 0 29.24 0 0 Z " fill="#FCFCFC" transform="translate(666,1130)"/>
<path d="M0 0 C6.27 0 12.54 0 19 0 C21.541293 5.615146 24.082449 11.230353 26.623291 16.845703 C27.483243 18.746127 28.343266 20.646519 29.203369 22.546875 C46.927163 61.707229 46.927163 61.707229 52.5625 74.6875 C52.998848 75.685879 53.435195 76.684258 53.884766 77.712891 C54.295332 78.657129 54.705898 79.601367 55.128906 80.574219 C55.6714 81.820782 55.6714 81.820782 56.224854 83.092529 C57 85 57 85 57 86 C51.06 86 45.12 86 39 86 C36.69 81.05 34.38 76.1 32 71 C17.15 71 2.3 71 -13 71 C-15.31 75.95 -17.62 80.9 -20 86 C-25.94 86 -31.88 86 -38 86 C-31.453601 70.522079 -24.634226 55.172972 -17.733398 39.850586 C-15.060011 33.91373 -12.394847 27.973185 -9.730591 22.032227 C-8.896198 20.172252 -8.060949 18.312664 -7.225586 16.453125 C-6.715439 15.316172 -6.205293 14.179219 -5.679688 13.007812 C-5.233511 12.014106 -4.787334 11.0204 -4.327637 9.996582 C-2.856797 6.67678 -1.430337 3.337453 0 0 Z " fill="#FBFCFC" transform="translate(791,1130)"/>
<path d="M0 0 C5.94 0 11.88 0 18 0 C23.196734 10.099313 27.960055 20.297501 32.49585 30.709229 C36.384868 39.630468 40.362431 48.508867 44.375 57.375 C44.669732 58.026631 44.964464 58.678262 45.268127 59.34964 C45.844508 60.623838 46.421093 61.897944 46.997894 63.171951 C47.816788 64.98113 48.634483 66.790852 49.452148 68.600586 C50.464063 70.822967 51.487694 73.040059 52.524414 75.250977 C53.21229 76.723892 53.21229 76.723892 53.914062 78.226562 C54.318345 79.080728 54.722627 79.934893 55.13916 80.814941 C56 83 56 83 56 86 C50.39 86 44.78 86 39 86 C37.845 83.73125 36.69 81.4625 35.5 79.125 C35.134551 78.41231 34.769102 77.699619 34.392578 76.965332 C32 72.222222 32 72.222222 32 70 C16.82 70 1.64 70 -14 70 C-14.99 72.97 -15.98 75.94 -17 79 C-17.99 81.31 -18.98 83.62 -20 86 C-25.94 86 -31.88 86 -38 86 C-35.456711 77.571874 -31.805835 69.722776 -28.125 61.75 C-27.114485 59.547665 -26.105703 57.344542 -25.097107 55.141327 C-24.410948 53.642508 -23.7243 52.143913 -23.03717 50.645538 C-19.924696 43.853384 -16.866568 37.037561 -13.82132 30.215057 C-9.305647 20.098294 -4.733227 10.016828 0 0 Z " fill="#FBFCFC" transform="translate(1277,1130)"/>
<path d="M0 0 C0.748865 0.005237 1.497729 0.010474 2.269287 0.015869 C3.078174 0.019092 3.887061 0.022314 4.720459 0.025635 C5.570596 0.034014 6.420732 0.042393 7.296631 0.051025 C8.150635 0.055537 9.004639 0.060049 9.884521 0.064697 C12.001087 0.076522 14.117618 0.094458 16.234131 0.113525 C21.030203 9.263712 25.271296 18.608983 29.391357 28.07959 C32.497891 35.205084 35.664168 42.300012 38.874756 49.37915 C39.279295 50.27236 39.683834 51.165569 40.100632 52.085846 C41.736645 55.697585 43.372757 59.309241 45.018219 62.916687 C46.17908 65.462162 47.334012 68.010258 48.488037 70.558838 C48.836547 71.318358 49.185057 72.077877 49.544128 72.860413 C49.869234 73.580898 50.19434 74.301383 50.529297 75.043701 C50.811445 75.663347 51.093594 76.282994 51.384293 76.921417 C52.54385 79.912427 53.352849 83.029039 54.234131 86.113525 C48.294131 86.113525 42.354131 86.113525 36.234131 86.113525 C35.244131 83.844775 34.254131 81.576025 33.234131 79.238525 C32.920889 78.525835 32.607646 77.813145 32.284912 77.078857 C30.234131 72.335748 30.234131 72.335748 30.234131 70.113525 C15.054131 70.113525 -0.125869 70.113525 -15.765869 70.113525 C-16.755869 73.083525 -17.745869 76.053525 -18.765869 79.113525 C-20.085869 81.423525 -21.405869 83.733525 -22.765869 86.113525 C-28.375869 86.113525 -33.985869 86.113525 -39.765869 86.113525 C-37.518423 78.749553 -34.504674 71.829882 -31.298859 64.84256 C-30.37032 62.818738 -29.447156 60.79254 -28.525391 58.765625 C-27.566006 56.656179 -26.606296 54.546889 -25.644943 52.438339 C-22.34361 45.197273 -19.08214 37.93856 -15.828369 30.676025 C-15.020852 28.87585 -15.020852 28.87585 -14.197021 27.039307 C-10.721357 19.280488 -7.294758 11.502524 -3.937744 3.69165 C-2.327743 0.149648 -2.327743 0.149648 0 0 Z " fill="#FCFCFC" transform="translate(1098.765869140625,1129.886474609375)"/>
<path d="M0 0 C14 0 14 0 17.605469 2.789062 C18.511907 4.035686 19.371786 5.317212 20.1875 6.625 C21.168796 8.012055 22.150578 9.398766 23.132812 10.785156 C23.608799 11.491724 24.084785 12.198291 24.575195 12.92627 C26.752101 16.094645 29.15736 19.066234 31.5625 22.0625 C32.466419 23.212305 33.368763 24.36335 34.269531 25.515625 C36.139567 27.902905 38.011997 30.288273 39.886719 32.671875 C40.366169 33.281521 40.84562 33.891167 41.3396 34.519287 C42.237436 35.660815 43.135374 36.802263 44.033447 37.943604 C47.70637 42.615845 51.35112 47.308583 55 52 C55.33 34.84 55.66 17.68 56 0 C61.28 0 66.56 0 72 0 C72 28.38 72 56.76 72 86 C61 86 61 86 57.652344 83.175781 C56.711807 81.91378 55.80792 80.623846 54.9375 79.3125 C54.439116 78.628411 53.940732 77.944321 53.427246 77.239502 C52.408497 75.839249 51.403433 74.428932 50.412598 73.008789 C48.408445 70.158778 46.270221 67.433102 44.125 64.6875 C43.32707 63.644648 42.529141 62.601797 41.707031 61.527344 C38.431866 57.250363 35.121541 53.00079 31.8125 48.75 C31.242251 48.01741 30.672002 47.284819 30.084473 46.530029 C29.526792 45.813713 28.969111 45.097397 28.394531 44.359375 C27.844907 43.651035 27.295283 42.942695 26.729004 42.212891 C25.501273 40.641561 24.262826 39.078578 23.01709 37.521484 C22.375942 36.715176 21.734795 35.908867 21.074219 35.078125 C20.486003 34.344971 19.897788 33.611816 19.291748 32.856445 C18 31 18 31 18 29 C17.34 29 16.68 29 16 29 C16 47.81 16 66.62 16 86 C10.72 86 5.44 86 0 86 C0 57.62 0 29.24 0 0 Z " fill="#FCFCFC" transform="translate(869,1130)"/>
<path d="M0 0 C29.592557 0 29.592557 0 38.53125 8.285156 C45.194133 16.064427 45.73757 25.158702 45 35 C43.334191 42.445967 39.887175 47.252278 34 52 C24 56 24 56 0 56 C0 37.52 0 19.04 0 0 Z " fill="#182129" transform="translate(983,1145)"/>
<path d="M0 0 C23.43 0 46.86 0 71 0 C71 4.95 71 9.9 71 15 C62.09 15 53.18 15 44 15 C44 38.43 44 61.86 44 86 C38.72 86 33.44 86 28 86 C28 62.57 28 39.14 28 15 C18.76 15 9.52 15 0 15 C0 10.05 0 5.1 0 0 Z " fill="#FBFBFB" transform="translate(1154,1130)"/>
<path d="M0 0 C4.62 -0.103125 9.24 -0.20625 14 -0.3125 C15.441172 -0.35802 16.882344 -0.40354 18.367188 -0.450439 C25.867913 -0.531356 31.313224 -0.19917 37 5 C40.466976 8.792004 40.453829 12.630881 40.285156 17.566406 C39.722197 22.370843 37.97853 25.116936 34.4375 28.3125 C30.412795 31.098834 28.152228 31.118287 23.242188 31.097656 C22.029019 31.095159 20.81585 31.092661 19.565918 31.090088 C18.017915 31.080984 16.469912 31.07188 14.875 31.0625 C9.96625 31.041875 5.0575 31.02125 0 31 C0 20.77 0 10.54 0 0 Z " fill="#19232B" transform="translate(682,1145)"/>
<path d="M0 0 C4.825168 2.375467 7.926836 6.440313 9.777344 11.375 C10.769767 17.95335 10.204812 23.662552 6.777344 29.375 C3.358282 32.966451 -0.571119 35.993037 -5.554688 36.710938 C-11.737572 36.808306 -15.230547 36.094611 -20.222656 32.375 C-25.850597 26.644733 -26.636251 22.61607 -26.566406 14.714844 C-25.92561 8.488929 -23.014626 5.16697 -18.722656 0.875 C-12.800213 -1.66319 -6.217685 -1.748382 0 0 Z " fill="#F2F2F3" transform="translate(1007.22265625,1253.625)"/>
<path d="M0 0 C2.97 -0.0825 5.94 -0.165 9 -0.25 C10.378652 -0.304624 10.378652 -0.304624 11.785156 -0.360352 C17.609341 -0.437774 22.219328 0.522881 27 4 C29.829212 8.243819 29.651687 12.016979 29 17 C27.239574 20.080746 26.294919 21.624284 22.859375 22.621094 C22.245781 22.746133 21.632187 22.871172 21 23 C22.102811 24.27201 23.207308 25.542559 24.3125 26.8125 C25.234824 27.874043 25.234824 27.874043 26.175781 28.957031 C27.932767 30.98244 27.932767 30.98244 29.730469 32.636719 C31 34 31 34 31 36 C27.697228 36.672787 26.171668 36.953038 23 36 C20.236342 33.343794 17.922896 30.543473 15.589844 27.503906 C12.410201 24.429772 10.34 24.207173 6 24 C6 27.96 6 31.92 6 36 C4.02 36 2.04 36 0 36 C0 24.12 0 12.24 0 0 Z " fill="#F3F3F4" transform="translate(913,1253)"/>
<path d="M0 0 C3.34125 -0.0825 6.6825 -0.165 10.125 -0.25 C11.166724 -0.286416 12.208447 -0.322832 13.281738 -0.360352 C19.030943 -0.428913 22.516203 0.017586 27 4 C29.978617 8.467925 29.733095 12.763606 29 18 C27.376189 21.408662 25.118183 23.438994 21.71875 25.144531 C18.569909 26.13533 15.981392 26.197393 12.6875 26.125 C11.618867 26.106953 10.550234 26.088906 9.449219 26.070312 C8.640977 26.047109 7.832734 26.023906 7 26 C7 29.3 7 32.6 7 36 C4.69 36 2.38 36 0 36 C0 24.12 0 12.24 0 0 Z " fill="#F0F1F1" transform="translate(1131,1253)"/>
<path d="M0 0 C1.340501 0.652135 2.676614 1.3138 4 2 C4 3.32 4 4.64 4 6 C2.02 6.99 2.02 6.99 0 8 C-0.99 7.34 -1.98 6.68 -3 6 C-7.885161 5.287926 -11.810073 5.271474 -16.0625 7.875 C-19.334717 11.463884 -19.216655 13.990507 -19.15625 18.671875 C-18.950443 21.738398 -18.318303 24.224626 -17 27 C-13.899365 28.033545 -11.685559 28.13365 -8.4375 28.125 C-6.981504 28.128867 -6.981504 28.128867 -5.496094 28.132812 C-3.00047 28.16651 -3.00047 28.16651 -1 27 C-0.592708 24.678434 -0.255613 22.343121 0 20 C-2.97 20 -5.94 20 -9 20 C-9 18.02 -9 16.04 -9 14 C-4.05 14 0.9 14 6 14 C6.135266 16.585087 6.234177 19.163088 6.3125 21.75 C6.354395 22.479609 6.396289 23.209219 6.439453 23.960938 C6.526778 27.803245 6.422196 29.555277 3.730469 32.390625 C2.829414 32.921719 1.928359 33.452812 1 34 C0.334844 34.404766 -0.330312 34.809531 -1.015625 35.226562 C-5.543743 36.991459 -10.699784 36.726177 -15.289062 35.277344 C-21.018785 32.627079 -24.514461 28.820566 -27 23 C-27.995313 16.347121 -27.309761 10.660944 -23.679688 4.949219 C-17.082569 -2.706507 -8.89312 -3.876844 0 0 Z " fill="#F1F1F2" transform="translate(866,1254)"/>
<path d="M0 0 C0.66 0 1.32 0 2 0 C3.979557 4.482275 5.954943 8.966355 7.926514 13.452148 C8.597575 14.97739 9.269765 16.502135 9.943115 18.026367 C10.911681 20.219401 11.876148 22.414198 12.839844 24.609375 C13.140915 25.288691 13.441987 25.968007 13.752182 26.667908 C15.117769 29.788618 16.170106 32.680423 17 36 C6.44 36 -4.12 36 -15 36 C-13.496235 31.488705 -11.863081 27.191519 -9.960938 22.851562 C-9.675219 22.194171 -9.3895 21.536779 -9.095123 20.859467 C-8.190803 18.780262 -7.282963 16.702616 -6.375 14.625 C-5.757578 13.207133 -5.140389 11.789165 -4.523438 10.371094 C-3.018302 6.91289 -1.510011 3.456078 0 0 Z " fill="#1A242B" transform="translate(1105,1149)"/>
<path d="M0 0 C0.66 0 1.32 0 2 0 C4.140929 4.803426 6.277049 9.60895 8.408691 14.416504 C9.134903 16.052511 9.862438 17.68793 10.591309 19.322754 C11.637256 21.669376 12.678465 24.01805 13.71875 26.367188 C14.046857 27.100573 14.374963 27.833959 14.713013 28.589569 C17 33.772257 17 33.772257 17 36 C6.77 36 -3.46 36 -14 36 C-13.180076 31.080456 -12.048055 27.306833 -10.058594 22.851562 C-9.77146 22.194171 -9.484326 21.536779 -9.188492 20.859467 C-8.27783 18.778462 -7.357845 16.701737 -6.4375 14.625 C-5.815133 13.207304 -5.193381 11.789338 -4.572266 10.371094 C-3.055286 6.910891 -1.529937 3.454492 0 0 Z " fill="#19232B" transform="translate(1285,1149)"/>
<path d="M0 0 C3.182907 1.591454 3.903782 4.855977 5.257812 7.992188 C5.565727 8.693931 5.873642 9.395674 6.190887 10.118683 C6.841223 11.605237 7.488281 13.093229 8.132324 14.58252 C9.119567 16.862452 10.119501 19.136497 11.121094 21.410156 C11.75077 22.853831 12.379701 24.297831 13.007812 25.742188 C13.307771 26.423528 13.60773 27.104868 13.916779 27.806854 C15.165352 30.712264 16 32.801973 16 36 C5.77 36 -4.46 36 -15 36 C-13.22254 30.667621 -11.586291 25.787398 -9.335938 20.722656 C-8.853828 19.632754 -8.371719 18.542852 -7.875 17.419922 C-7.38 16.311973 -6.885 15.204023 -6.375 14.0625 C-5.872266 12.92748 -5.369531 11.792461 -4.851562 10.623047 C-1.230283 2.460565 -1.230283 2.460565 0 0 Z " fill="#19232B" transform="translate(800,1149)"/>
<path d="M0 0 C2.31 0 4.62 0 7 0 C7.1168 4.187263 7.187453 8.374103 7.25 12.5625 C7.300273 14.334639 7.300273 14.334639 7.351562 16.142578 C7.428211 22.983488 7.305607 27.542188 3 33 C-0.929903 36.294184 -5.883408 37.740767 -10.980469 37.449219 C-15.993147 36.334213 -19.734624 33.74852 -22.71875 29.625 C-24.652652 24.153473 -24.314126 18.878358 -24.1875 13.125 C-24.173965 11.959687 -24.16043 10.794375 -24.146484 9.59375 C-24.111258 6.728689 -24.061997 3.864586 -24 1 C-22.02 1 -20.04 1 -18 1 C-17.980181 1.640261 -17.960361 2.280522 -17.939941 2.940186 C-17.844364 5.856353 -17.734818 8.771836 -17.625 11.6875 C-17.594063 12.694902 -17.563125 13.702305 -17.53125 14.740234 C-17.492578 15.716699 -17.453906 16.693164 -17.414062 17.699219 C-17.382642 18.594714 -17.351221 19.49021 -17.318848 20.412842 C-16.969076 23.250918 -16.262108 25.437938 -15 28 C-12.697904 29.151048 -11.125945 29.265559 -8.5625 29.375 C-7.388809 29.448477 -7.388809 29.448477 -6.191406 29.523438 C-3.78496 29.197469 -3.78496 29.197469 -2.39502 26.825928 C-0.8653 23.727135 -0.580102 21.695823 -0.488281 18.261719 C-0.452832 17.19502 -0.417383 16.12832 -0.380859 15.029297 C-0.358301 13.926504 -0.335742 12.823711 -0.3125 11.6875 C-0.27834 10.565371 -0.24418 9.443242 -0.208984 8.287109 C-0.126704 5.524839 -0.057487 2.762879 0 0 Z " fill="#F3F3F3" transform="translate(1082,1253)"/>
<path d="M0 0 C4.062194 0.045207 6.525891 0.612092 9.75 3.25 C12.85577 7.908655 12.368534 12.793648 11.75 18.25 C9.941966 21.323658 8.889605 22.680197 5.75 24.25 C0.830031 24.781183 -3.023276 25.001056 -7.3125 22.375 C-11.024945 18.303286 -10.632473 14.514877 -10.613281 9.179688 C-10.242759 6.191602 -9.9257 5.12089 -7.8125 3.0625 C-6.966875 2.464375 -6.12125 1.86625 -5.25 1.25 C-3.689664 -0.310336 -2.160529 0.042924 0 0 Z " fill="#162028" transform="translate(998.25,1258.75)"/>
<path d="M0 0 C44.55 0 89.1 0 135 0 C135 0.99 135 1.98 135 3 C90.45 3 45.9 3 0 3 C0 2.01 0 1.02 0 0 Z " fill="#DADCDD" transform="translate(1199,1268)"/>
<path d="M0 0 C44.55 0 89.1 0 135 0 C135 0.99 135 1.98 135 3 C90.45 3 45.9 3 0 3 C0 2.01 0 1.02 0 0 Z " fill="#DBDCDD" transform="translate(666,1268)"/>
<path d="M0 0 C2.103535 -0.081021 4.20796 -0.139199 6.3125 -0.1875 C7.484258 -0.222305 8.656016 -0.257109 9.863281 -0.292969 C13 0 13 0 14.894531 1.324219 C16.620641 3.94083 16.380865 5.953076 16 9 C14.894531 10.675781 14.894531 10.675781 13 12 C9.863281 12.292969 9.863281 12.292969 6.3125 12.1875 C4.543262 12.146895 4.543262 12.146895 2.738281 12.105469 C1.834648 12.070664 0.931016 12.035859 0 12 C0 8.04 0 4.08 0 0 Z " fill="#151F27" transform="translate(1138,1260)"/>
<path d="M0 0 C2.124726 -0.053866 4.249837 -0.092731 6.375 -0.125 C7.558359 -0.148203 8.741719 -0.171406 9.960938 -0.195312 C13 0 13 0 15 2 C15.3125 5.5 15.3125 5.5 15 9 C11.473209 11.351194 9.971205 11.214435 5.8125 11.125 C4.72582 11.106953 3.639141 11.088906 2.519531 11.070312 C1.272363 11.035508 1.272363 11.035508 0 11 C0 7.37 0 3.74 0 0 Z " fill="#151F27" transform="translate(920,1260)"/>
</svg>
