<svg width="596" height="554" viewBox="0 0 596 554" fill="none" xmlns="http://www.w3.org/2000/svg">
<g filter="url(#filter0_b_6564_8844)">
<path d="M394.474 216.648C404.094 210.962 419.784 210.691 429.973 216.037L516.092 261.215C526.822 266.844 527.312 276.491 517.171 282.474L183.519 479.302C173.546 485.185 157.166 485.225 147.108 479.389L65.4142 431.995C55.5493 426.272 55.4744 417.035 65.2461 411.259L394.474 216.648Z" fill="#D9D9D9" fill-opacity="0.16"/>
<path d="M391.137 218.62L393.361 217.306L394.373 217.876L395.486 217.219C395.849 217.004 396.221 216.798 396.601 216.6L395.654 215.993C396.473 215.567 397.329 215.176 398.215 214.821L399.021 215.492C399.875 215.15 400.759 214.844 401.667 214.572L401.017 213.847C401.991 213.556 402.991 213.303 404.011 213.089L404.494 213.857C405.466 213.653 406.456 213.486 407.458 213.356L407.148 212.559C408.214 212.421 409.293 212.322 410.377 212.264L410.509 213.077C411.536 213.021 412.567 213.004 413.598 213.024L413.645 212.207C414.734 212.229 415.821 212.29 416.899 212.391L416.672 213.197C417.686 213.292 418.692 213.425 419.683 213.595L420.086 212.813C421.126 212.991 422.151 213.209 423.153 213.466L422.579 214.212C423.513 214.452 424.427 214.728 425.314 215.039L426.05 214.342C426.972 214.665 427.866 215.026 428.728 215.424L427.844 216.062C428.245 216.246 428.637 216.44 429.022 216.641L430.218 217.269L431.169 216.664L433.562 217.919L432.61 218.524L435.002 219.779L435.954 219.174L438.346 220.429L437.395 221.034L439.787 222.289L440.738 221.684L443.13 222.939L442.179 223.544L444.571 224.798L445.522 224.194L447.915 225.449L446.963 226.053L449.356 227.308L450.307 226.704L452.699 227.959L451.748 228.563L454.14 229.818L455.091 229.214L457.483 230.469L456.532 231.073L458.924 232.328L459.876 231.724L462.268 232.979L461.316 233.583L463.709 234.838L464.66 234.234L467.052 235.488L466.101 236.093L468.493 237.348L469.444 236.743L471.836 237.998L470.885 238.603L473.277 239.858L474.229 239.253L476.621 240.508L475.669 241.113L478.062 242.368L479.013 241.763L481.405 243.018L480.454 243.623L482.846 244.877L483.797 244.273L486.19 245.528L485.238 246.132L487.63 247.387L488.582 246.783L490.974 248.038L490.023 248.642L492.415 249.897L493.366 249.293L495.758 250.548L494.807 251.152L497.199 252.407L498.15 251.803L500.543 253.058L499.591 253.662L501.983 254.917L502.935 254.312L505.327 255.567L504.376 256.172L506.768 257.427L507.719 256.822L510.111 258.077L509.16 258.682L511.552 259.937L512.503 259.332L514.896 260.587L513.944 261.192L515.14 261.819C515.544 262.031 515.932 262.248 516.304 262.471L517.322 261.904C518.126 262.385 518.861 262.89 519.53 263.416L518.39 263.899C519.034 264.406 519.613 264.933 520.124 265.475L521.367 265.085C521.916 265.668 522.393 266.269 522.797 266.882L521.475 267.172C521.86 267.757 522.175 268.354 522.419 268.959L523.797 268.773C524.057 269.417 524.242 270.069 524.351 270.724L522.943 270.803C523.046 271.423 523.078 272.047 523.038 272.671L524.451 272.701C524.409 273.359 524.29 274.016 524.096 274.668L522.702 274.529C522.519 275.141 522.265 275.748 521.94 276.345L523.29 276.59C522.949 277.215 522.533 277.831 522.044 278.431L520.764 278.084C520.309 278.643 519.785 279.188 519.193 279.716L520.38 280.16C519.766 280.707 519.083 281.236 518.33 281.744L517.256 281.212C516.906 281.447 516.541 281.678 516.16 281.902L515.048 282.559L516.059 283.13L513.834 284.442L512.823 283.871L510.599 285.183L511.61 285.754L509.386 287.066L508.375 286.495L506.15 287.807L507.161 288.379L504.937 289.691L503.926 289.119L501.702 290.432L502.713 291.003L500.488 292.315L499.477 291.744L497.253 293.056L498.264 293.627L496.04 294.939L495.029 294.368L492.804 295.68L493.815 296.252L491.591 297.564L490.58 296.993L488.356 298.305L489.367 298.876L487.142 300.188L486.131 299.617L483.907 300.929L484.918 301.5L482.694 302.813L481.683 302.241L479.458 303.553L480.469 304.125L478.245 305.437L477.234 304.866L475.01 306.178L476.021 306.749L473.796 308.061L472.785 307.49L470.561 308.802L471.572 309.373L469.348 310.686L468.337 310.114L466.112 311.427L467.123 311.998L464.899 313.31L463.888 312.739L461.664 314.051L462.675 314.622L460.45 315.934L459.439 315.363L457.215 316.675L458.226 317.247L456.002 318.559L454.991 317.988L452.766 319.3L453.777 319.871L451.553 321.183L450.542 320.612L448.318 321.924L449.328 322.495L447.104 323.807L446.093 323.236L443.869 324.548L444.88 325.12L442.655 326.432L441.644 325.861L439.42 327.173L440.431 327.744L438.207 329.056L437.196 328.485L434.971 329.797L435.982 330.368L433.758 331.681L432.747 331.109L430.523 332.422L431.534 332.993L429.309 334.305L428.298 333.734L426.074 335.046L427.085 335.617L424.861 336.929L423.85 336.358L421.625 337.67L422.636 338.242L420.412 339.554L419.401 338.982L417.177 340.295L418.188 340.866L415.963 342.178L414.952 341.607L412.728 342.919L413.739 343.49L411.515 344.802L410.504 344.231L408.279 345.543L409.29 346.115L407.066 347.427L406.055 346.856L403.831 348.168L404.842 348.739L402.617 350.051L401.606 349.48L399.382 350.792L400.393 351.363L398.169 352.676L397.158 352.104L394.933 353.416L395.944 353.988L393.72 355.3L392.709 354.729L390.485 356.041L391.496 356.612L389.271 357.924L388.26 357.353L386.036 358.665L387.047 359.236L384.822 360.549L383.812 359.977L381.587 361.29L382.598 361.861L380.374 363.173L379.363 362.602L377.138 363.914L378.149 364.485L375.925 365.797L374.914 365.226L372.69 366.538L373.701 367.11L371.476 368.422L370.465 367.851L368.241 369.163L369.252 369.734L367.028 371.046L366.017 370.475L363.792 371.787L364.803 372.358L362.579 373.671L361.568 373.099L359.344 374.412L360.355 374.983L358.13 376.295L357.119 375.724L354.895 377.036L355.906 377.607L353.682 378.919L352.671 378.348L350.446 379.66L351.457 380.232L349.233 381.544L348.222 380.972L345.997 382.285L347.008 382.856L344.784 384.168L343.773 383.597L341.549 384.909L342.56 385.48L340.335 386.792L339.324 386.221L337.1 387.533L338.111 388.105L335.887 389.417L334.876 388.846L332.651 390.158L333.662 390.729L331.438 392.041L330.427 391.47L328.203 392.782L329.214 393.353L326.989 394.666L325.978 394.094L323.754 395.407L324.765 395.978L322.541 397.29L321.53 396.719L319.305 398.031L320.316 398.602L318.092 399.914L317.081 399.343L314.857 400.655L315.867 401.227L313.643 402.539L312.632 401.968L310.408 403.28L311.419 403.851L309.194 405.163L308.183 404.592L305.959 405.904L306.97 406.475L304.746 407.788L303.735 407.216L301.51 408.528L302.521 409.1L300.297 410.412L299.286 409.841L297.062 411.153L298.073 411.724L295.848 413.036L294.837 412.465L292.613 413.777L293.624 414.348L291.4 415.661L290.389 415.089L288.164 416.402L289.175 416.973L286.951 418.285L285.94 417.714L283.716 419.026L284.727 419.597L282.502 420.909L281.491 420.338L279.267 421.65L280.278 422.222L278.054 423.534L277.043 422.963L274.818 424.275L275.829 424.846L273.605 426.158L272.594 425.587L270.37 426.899L271.38 427.47L269.156 428.783L268.145 428.211L265.921 429.523L266.932 430.095L264.707 431.407L263.696 430.836L261.472 432.148L262.483 432.719L260.259 434.031L259.248 433.46L257.023 434.772L258.034 435.343L255.81 436.656L254.799 436.084L252.575 437.397L253.586 437.968L251.361 439.28L250.35 438.709L248.126 440.021L249.137 440.592L246.913 441.904L245.902 441.333L243.677 442.645L244.688 443.217L242.464 444.529L241.453 443.958L239.229 445.27L240.24 445.841L238.015 447.153L237.004 446.582L234.78 447.894L235.791 448.465L233.567 449.778L232.556 449.206L230.331 450.518L231.342 451.09L229.118 452.402L228.107 451.831L225.883 453.143L226.893 453.714L224.669 455.026L223.658 454.455L221.434 455.767L222.445 456.338L220.22 457.651L219.209 457.079L216.985 458.392L217.996 458.963L215.772 460.275L214.761 459.704L212.536 461.016L213.547 461.587L211.323 462.899L210.312 462.328L208.088 463.64L209.099 464.212L206.874 465.524L205.863 464.953L203.639 466.265L204.65 466.836L202.426 468.148L201.415 467.577L199.19 468.889L200.201 469.46L197.977 470.773L196.966 470.201L194.742 471.513L195.753 472.085L193.528 473.397L192.517 472.826L190.293 474.138L191.304 474.709L189.08 476.021L188.069 475.45L185.844 476.762L186.855 477.333L184.631 478.646L183.62 478.074L182.508 478.73C182.132 478.952 181.747 479.165 181.354 479.368L182.298 479.976C181.45 480.416 180.563 480.816 179.644 481.179L178.847 480.504C177.961 480.854 177.043 481.165 176.102 481.439L176.738 482.168C175.726 482.462 174.688 482.715 173.63 482.926L173.167 482.155C172.158 482.356 171.131 482.518 170.093 482.641L170.375 483.441C169.27 483.571 168.153 483.659 167.032 483.704L166.933 482.889C165.872 482.932 164.807 482.935 163.745 482.897L163.658 483.712C162.536 483.672 161.417 483.59 160.311 483.465L160.582 482.664C159.541 482.546 158.512 482.389 157.501 482.193L157.049 482.966C155.988 482.76 154.946 482.512 153.93 482.223L154.556 481.491C153.61 481.222 152.688 480.915 151.797 480.57L151.009 481.248C150.085 480.89 149.192 480.493 148.338 480.058L149.274 479.446C148.877 479.244 148.489 479.033 148.111 478.813L146.976 478.155L145.973 478.731L143.704 477.415L144.707 476.839L142.437 475.522L141.435 476.098L139.165 474.782L140.168 474.206L137.899 472.889L136.896 473.465L134.627 472.149L135.63 471.573L133.36 470.256L132.358 470.832L130.088 469.516L131.091 468.939L128.822 467.623L127.819 468.199L125.55 466.883L126.553 466.306L124.283 464.99L123.281 465.566L121.011 464.249L122.014 463.673L119.745 462.357L118.742 462.933L116.473 461.616L117.475 461.04L115.206 459.724L114.203 460.3L111.934 458.983L112.937 458.407L110.668 457.091L109.665 457.667L107.396 456.35L108.398 455.774L106.129 454.458L105.126 455.034L102.857 453.717L103.86 453.141L101.591 451.825L100.588 452.401L98.3186 451.084L99.3213 450.508L97.052 449.192L96.0493 449.768L93.78 448.451L94.7827 447.875L92.5134 446.559L91.5108 447.135L89.2415 445.818L90.2442 445.242L87.9749 443.926L86.9722 444.502L84.703 443.185L85.7057 442.609L83.4364 441.292L82.4337 441.869L80.1644 440.552L81.1671 439.976L78.8979 438.659L77.8952 439.236L75.6259 437.919L76.6286 437.343L74.3593 436.026L73.3567 436.603L71.0874 435.286L72.0901 434.71L69.8208 433.393L68.8181 433.969L66.5488 432.653L67.5515 432.077L66.4169 431.419C66.045 431.203 65.6879 430.982 65.3457 430.756L64.2813 431.294C63.5442 430.808 62.8716 430.3 62.2634 429.775L63.4393 429.321C62.8535 428.816 62.3311 428.292 61.8722 427.756L60.6038 428.118C60.1111 427.542 59.6874 426.951 59.3327 426.35L60.6717 426.086C60.3337 425.513 60.062 424.93 59.8567 424.34L58.4698 424.501C58.2514 423.874 58.104 423.24 58.0277 422.604L59.4389 422.547C59.3666 421.945 59.3617 421.341 59.4242 420.738L58.0122 420.689C58.0782 420.053 58.2153 419.418 58.4235 418.79L59.8129 418.943C60.0087 418.352 60.2709 417.768 60.5997 417.193L59.2564 416.937C59.6014 416.333 60.0155 415.74 60.4988 415.162L61.773 415.517C62.2232 414.978 62.7371 414.452 63.3147 413.943L62.1315 413.495C62.7311 412.967 63.3954 412.456 64.1246 411.966L65.1977 412.498C65.5363 412.27 65.8897 412.047 66.2581 411.83L67.3709 411.172L66.3589 410.601L68.5834 409.286L69.5954 409.857L71.8199 408.542L70.8079 407.971L73.0324 406.656L74.0444 407.227L76.2689 405.912L75.2569 405.341L77.4814 404.027L78.4934 404.597L80.7179 403.282L79.7059 402.712L81.9304 401.397L82.9424 401.967L85.1669 400.652L84.1549 400.082L86.3794 398.767L87.3914 399.337L89.6159 398.023L88.6039 397.452L90.8284 396.137L91.8404 396.708L94.0649 395.393L93.0529 394.822L95.2774 393.507L96.2894 394.078L98.5138 392.763L97.5019 392.192L99.7264 390.877L100.738 391.448L102.963 390.133L101.951 389.562L104.175 388.247L105.187 388.818L107.412 387.503L106.4 386.932L108.624 385.618L109.636 386.188L111.861 384.873L110.849 384.303L113.073 382.988L114.085 383.558L116.31 382.243L115.298 381.673L117.522 380.358L118.534 380.928L120.759 379.614L119.747 379.043L121.971 377.728L122.983 378.299L125.208 376.984L124.196 376.413L126.42 375.098L127.432 375.669L129.657 374.354L128.645 373.783L130.869 372.468L131.881 373.039L134.106 371.724L133.094 371.153L135.318 369.838L136.33 370.409L138.555 369.094L137.543 368.523L139.767 367.208L140.779 367.779L143.004 366.464L141.992 365.894L144.216 364.579L145.228 365.149L147.453 363.834L146.441 363.264L148.665 361.949L149.677 362.519L151.902 361.204L150.89 360.634L153.114 359.319L154.126 359.89L156.351 358.575L155.339 358.004L157.563 356.689L158.575 357.26L160.8 355.945L159.788 355.374L162.012 354.059L163.024 354.63L165.249 353.315L164.237 352.744L166.461 351.429L167.473 352L169.698 350.685L168.686 350.114L170.91 348.799L171.922 349.37L174.147 348.055L173.135 347.484L175.359 346.17L176.371 346.74L178.596 345.425L177.584 344.855L179.808 343.54L180.82 344.11L183.045 342.795L182.033 342.225L184.257 340.91L185.269 341.48L187.494 340.166L186.482 339.595L188.706 338.28L189.718 338.851L191.943 337.536L190.931 336.965L193.155 335.65L194.167 336.221L196.392 334.906L195.38 334.335L197.604 333.02L198.616 333.591L200.841 332.276L199.829 331.705L202.053 330.39L203.065 330.961L205.29 329.646L204.278 329.075L206.502 327.76L207.514 328.331L209.739 327.016L208.727 326.445L210.951 325.131L211.963 325.701L214.188 324.386L213.176 323.816L215.401 322.501L216.412 323.071L218.637 321.756L217.625 321.186L219.85 319.871L220.861 320.441L223.086 319.126L222.074 318.556L224.299 317.241L225.311 317.812L227.535 316.497L226.523 315.926L228.748 314.611L229.76 315.182L231.984 313.867L230.972 313.296L233.197 311.981L234.209 312.552L236.433 311.237L235.421 310.666L237.646 309.351L238.658 309.922L240.882 308.607L239.87 308.036L242.095 306.721L243.107 307.292L245.331 305.977L244.319 305.406L246.544 304.092L247.556 304.662L249.78 303.347L248.768 302.777L250.993 301.462L252.005 302.032L254.229 300.717L253.217 300.147L255.442 298.832L256.454 299.402L258.678 298.087L257.666 297.517L259.891 296.202L260.903 296.773L263.127 295.458L262.115 294.887L264.34 293.572L265.352 294.143L267.576 292.828L266.564 292.257L268.789 290.942L269.801 291.513L272.025 290.198L271.013 289.627L273.238 288.312L274.25 288.883L276.474 287.568L275.462 286.997L277.687 285.682L278.699 286.253L280.923 284.938L279.911 284.367L282.136 283.052L283.148 283.623L285.372 282.308L284.36 281.738L286.585 280.423L287.597 280.993L289.821 279.678L288.809 279.108L291.034 277.793L292.046 278.363L294.27 277.048L293.258 276.478L295.483 275.163L296.495 275.734L298.719 274.419L297.707 273.848L299.932 272.533L300.944 273.104L303.168 271.789L302.156 271.218L304.381 269.903L305.393 270.474L307.617 269.159L306.605 268.588L308.83 267.273L309.842 267.844L312.066 266.529L311.054 265.958L313.279 264.643L314.291 265.214L316.515 263.899L315.503 263.328L317.728 262.013L318.74 262.584L320.964 261.269L319.953 260.699L322.177 259.384L323.189 259.954L325.413 258.639L324.402 258.069L326.626 256.754L327.638 257.324L329.863 256.009L328.851 255.439L331.075 254.124L332.087 254.694L334.312 253.38L333.3 252.809L335.524 251.494L336.536 252.065L338.761 250.75L337.749 250.179L339.973 248.864L340.985 249.435L343.21 248.12L342.198 247.549L344.422 246.234L345.434 246.805L347.659 245.49L346.647 244.919L348.871 243.604L349.883 244.175L352.108 242.86L351.096 242.289L353.32 240.974L354.332 241.545L356.557 240.23L355.545 239.659L357.769 238.345L358.781 238.915L361.006 237.6L359.994 237.03L362.218 235.715L363.23 236.285L365.455 234.97L364.443 234.4L366.667 233.085L367.679 233.655L369.904 232.341L368.892 231.77L371.116 230.455L372.128 231.026L374.353 229.711L373.341 229.14L375.565 227.825L376.577 228.396L378.802 227.081L377.79 226.51L380.014 225.195L381.026 225.766L383.251 224.451L382.239 223.88L384.463 222.565L385.475 223.136L387.7 221.821L386.688 221.25L388.912 219.935L389.924 220.506L392.149 219.191L391.137 218.62Z" stroke="#B674F8" stroke-width="2.31" stroke-dasharray="2.61 2.61"/>
</g>
<path d="M422.798 311.186C423.026 311.315 423.305 311.314 423.533 311.184L496.579 269.443C496.809 269.312 496.952 269.069 496.954 268.804C496.956 268.54 496.818 268.294 496.591 268.159L423.544 224.679C423.311 224.54 423.021 224.539 422.787 224.677L348.865 268.157C348.636 268.291 348.496 268.538 348.499 268.804C348.501 269.07 348.645 269.314 348.877 269.445L422.798 311.186Z" stroke="#9F9DFF" stroke-width="1.48703" stroke-linejoin="round"/>
<g filter="url(#filter1_d_6564_8844)">
<path d="M385.261 269.451C375.452 263.789 369.942 256.109 369.942 248.101C369.942 240.093 375.452 232.413 385.261 226.75L422.245 205.399L459.229 226.75C469.037 232.413 474.548 240.093 474.548 248.101C474.548 256.109 469.037 263.789 459.229 269.451C449.42 275.114 436.116 278.295 422.245 278.295C408.373 278.295 395.07 275.114 385.261 269.451V269.451Z" fill="#A8A6A6"/>
</g>
<path d="M422.388 252.519L422.388 298.159L349.029 254.916L349.029 210.563L422.388 252.519Z" fill="#1E1926"/>
<path d="M422.244 251.924L422.244 297.641L496.212 254.956L496.212 210.652L422.244 251.924Z" fill="#130F18"/>
<path d="M422.748 252.177L349.512 210.823L422.748 167.746L495.117 210.823L422.748 252.177Z" fill="#231D2C" stroke="url(#paint0_linear_6564_8844)" stroke-width="0.951948"/>
<g clip-path="url(#clip0_6564_8844)">
<path d="M401.71 205.217C403.889 203.959 406.843 203.252 409.924 203.252C413.005 203.252 415.959 203.959 418.137 205.217C420.316 206.474 421.54 208.18 421.54 209.959C421.54 211.737 420.316 213.443 418.137 214.701C415.959 215.958 413.005 216.665 409.924 216.665C406.843 216.665 403.889 215.958 401.71 214.701C399.532 213.443 398.308 211.737 398.308 209.959C398.308 208.18 399.532 206.474 401.71 205.217ZM422.244 217.072C427.727 213.906 441.423 209.176 446.885 212.33L450.992 214.701L418.137 233.669L414.031 231.298C408.569 228.145 416.762 220.237 422.244 217.072ZM418.384 196.444C427.049 196.657 433.312 200.273 433.312 205.062L426.392 205.051C425.694 202.656 422.552 200.842 418.404 200.439L418.384 196.444ZM418.281 188.536C434.667 188.678 447.049 195.898 447.029 205.134L440.335 205.134C439.493 198.08 430.17 192.697 418.281 192.401L418.281 188.536Z" fill="white"/>
</g>
<path d="M211.533 250.593L137.766 208.939C135.082 207.424 135.048 203.57 137.705 202.008L211.471 158.619C212.729 157.879 214.291 157.883 215.545 158.63L288.439 202.019C291.071 203.586 291.037 207.409 288.378 208.929L215.484 250.583C214.261 251.282 212.76 251.286 211.533 250.593Z" fill="#DAC8F7" fill-opacity="0.39"/>
<path d="M336.286 361.216C336.515 361.345 336.794 361.344 337.021 361.214L410.068 319.473C410.297 319.342 410.44 319.099 410.442 318.834C410.445 318.57 410.306 318.324 410.079 318.189L337.032 274.709C336.799 274.57 336.509 274.569 336.275 274.707L262.353 318.187C262.124 318.322 261.985 318.569 261.987 318.834C261.989 319.1 262.133 319.344 262.365 319.475L336.286 361.216Z" stroke="#9F9DFF" stroke-width="1.48703" stroke-linejoin="round"/>
<g filter="url(#filter2_d_6564_8844)">
<path d="M298.749 319.482C288.941 313.819 283.43 306.139 283.43 298.131C283.43 290.123 288.941 282.443 298.749 276.78L335.733 255.43L372.717 276.78C382.525 282.443 388.036 290.123 388.036 298.131C388.036 306.139 382.525 313.819 372.717 319.482C362.908 325.144 349.605 328.325 335.733 328.325C321.861 328.325 308.558 325.144 298.749 319.482V319.482Z" fill="#A8A6A6"/>
</g>
<path d="M335.876 302.55L335.876 348.189L262.518 304.946L262.518 260.594L335.876 302.55Z" fill="#1E1926"/>
<path d="M335.732 301.955L335.732 347.671L409.7 304.986L409.7 260.682L335.732 301.955Z" fill="#130F18"/>
<path d="M336.236 302.207L263 260.853L336.236 217.776L408.606 260.853L336.236 302.207Z" fill="#231D2C" stroke="url(#paint1_linear_6564_8844)" stroke-width="0.951948"/>
<g clip-path="url(#clip1_6564_8844)">
<path d="M325.227 247.945L347.201 247.945L368.061 259.989L336.214 278.376L304.367 259.989L325.227 247.945ZM320.677 245.319L299.817 257.362C297.315 258.807 297.315 261.171 299.817 262.616L331.665 281.003C334.167 282.447 338.261 282.447 340.764 281.003L372.611 262.616C375.113 261.171 375.113 258.807 372.611 257.362L351.751 245.319C350.545 244.623 348.908 244.229 347.201 244.242L325.227 244.242C323.521 244.229 321.883 244.623 320.677 245.319ZM331.665 270.496L354.413 257.362L358.962 259.989L336.214 273.123L331.665 270.496ZM322.565 265.242L345.313 252.109L349.863 254.735L327.115 267.869L322.565 265.242ZM313.466 259.989L329.39 250.795L333.939 253.422L318.016 262.616L313.466 259.989Z" fill="white"/>
</g>
<path d="M200.561 280.614L134.93 246.961" stroke="white" stroke-width="2" stroke-linecap="round" stroke-linejoin="round"/>
<path d="M209.726 286.594L194.974 284.312L205.773 278.077L209.726 286.594Z" fill="white"/>
<g filter="url(#filter3_f_6564_8844)">
<rect width="167.04" height="209.88" transform="matrix(-1 0 0 1 330.141 193.781)" fill="url(#paint2_linear_6564_8844)"/>
</g>
<path d="M168.037 225.824L134.547 246.871" stroke="white" stroke-width="2" stroke-linejoin="round"/>
<path d="M213.848 91.8601L179.145 72.2642L213.848 51.8519L248.141 72.2642L213.848 91.8601Z" fill="#8C49FA"/>
<path d="M213.679 91.7646V179.843L179.365 159.615V72.1393L213.679 91.7646Z" fill="#A570FB"/>
<path d="M213.611 91.4859V179.812L248.21 159.846V72.1803L213.611 91.4859Z" fill="#660BFA"/>
<path d="M213.478 202.961V179.649L179.377 159.805L213.478 202.961Z" fill="#884CE9"/>
<path d="M213.544 202.961V179.649L248.211 159.805L213.544 202.961Z" fill="#5105CD"/>
<g style="mix-blend-mode:overlay">
<path d="M213.76 203.186L205.215 192.614H222.305L213.76 203.186Z" fill="#D9D9D9"/>
</g>
<path d="M211.782 203.367C210.606 202.814 196.41 200.238 198.959 205.619C200.688 209.27 204.464 211.887 207.278 214.627C208.358 215.678 209.374 217.07 210.656 217.879C210.817 217.981 211.66 218.567 211.407 218.567C206.479 218.567 201.898 218.093 197.27 216.441C194.714 215.528 191.49 213.969 189.389 212.25C188.305 211.363 192.812 216.064 193.517 216.91C193.743 217.181 198.659 222.016 196.113 221.288C191.645 220.012 187.258 217.375 182.602 216.91C179.805 216.63 171.658 223.869 168.103 225.782" stroke="white" stroke-width="2" stroke-linecap="round" stroke-linejoin="round"/>
<path d="M249.685 412.092C249.913 412.221 250.192 412.22 250.419 412.09L323.466 370.349C323.696 370.218 323.838 369.974 323.841 369.71C323.843 369.446 323.705 369.2 323.477 369.064L250.431 325.584C250.198 325.446 249.907 325.445 249.674 325.583L175.752 369.063C175.523 369.197 175.383 369.444 175.385 369.71C175.388 369.976 175.532 370.22 175.763 370.351L249.685 412.092Z" stroke="#9F9DFF" stroke-width="1.48703" stroke-linejoin="round"/>
<g filter="url(#filter4_d_6564_8844)">
<path d="M212.148 370.357C202.339 364.695 196.829 357.015 196.829 349.007C196.829 340.999 202.339 333.318 212.148 327.656L249.132 306.305L286.115 327.656C295.924 333.318 301.434 340.999 301.434 349.007C301.434 357.015 295.924 364.695 286.115 370.357C276.307 376.02 263.003 379.201 249.132 379.201C235.26 379.201 221.956 376.02 212.148 370.357V370.357Z" fill="#A8A6A6"/>
</g>
<path d="M249.275 353.425L249.275 399.065L175.916 355.822L175.916 311.469L249.275 353.425Z" fill="#1E1926"/>
<path d="M249.131 352.83L249.131 398.547L323.098 355.862L323.098 311.558L249.131 352.83Z" fill="#130F18"/>
<path d="M249.635 353.083L176.398 311.729L249.635 268.652L322.004 311.729L249.635 353.083Z" fill="#231D2C" stroke="url(#paint3_linear_6564_8844)" stroke-width="0.951948"/>
<g clip-path="url(#clip2_6564_8844)">
<path d="M230.441 299.795C219.857 305.905 219.857 315.824 230.441 321.934C241.024 328.044 258.203 328.044 268.787 321.934C279.37 315.824 279.37 305.905 268.787 299.795C258.203 293.685 241.024 293.685 230.441 299.795ZM264.952 319.72C256.497 324.602 242.731 324.602 234.275 319.72C225.82 314.838 225.82 306.891 234.275 302.009C242.731 297.127 256.497 297.127 264.952 302.009C273.407 306.891 273.407 314.838 264.952 319.72ZM253.448 318.613L258.242 305.883L236.193 308.651L253.448 318.613Z" fill="white"/>
</g>
<path d="M163.173 462.122C163.401 462.251 163.68 462.25 163.908 462.12L236.954 420.379C237.184 420.248 237.327 420.005 237.329 419.74C237.331 419.476 237.193 419.23 236.966 419.095L163.919 375.615C163.686 375.476 163.396 375.475 163.162 375.613L89.2402 419.093C89.0111 419.228 88.8713 419.474 88.8737 419.74C88.876 420.006 89.0201 420.25 89.2516 420.381L163.173 462.122Z" stroke="#9F9DFF" stroke-width="1.48703" stroke-linejoin="round"/>
<g filter="url(#filter5_d_6564_8844)">
<path d="M125.636 420.388C115.827 414.725 110.317 407.045 110.317 399.037C110.317 391.029 115.827 383.349 125.636 377.686L162.62 356.335L199.604 377.686C209.412 383.349 214.923 391.029 214.923 399.037C214.923 407.045 209.412 414.725 199.604 420.388C189.795 426.05 176.491 429.231 162.62 429.231C148.748 429.231 135.445 426.05 125.636 420.388V420.388Z" fill="#A8A6A6"/>
</g>
<path d="M162.763 403.456L162.763 449.095L89.4043 405.852L89.4043 361.5L162.763 403.456Z" fill="#1E1926"/>
<path d="M162.619 402.861L162.619 448.577L236.587 405.892L236.587 361.588L162.619 402.861Z" fill="#130F18"/>
<path d="M163.123 403.113L89.8867 361.759L163.123 318.682L235.492 361.759L163.123 403.113Z" fill="#231D2C" stroke="url(#paint4_linear_6564_8844)" stroke-width="0.951948"/>
<path d="M155.291 359.213C155.291 358.394 156.44 357.731 157.857 357.731L163.685 357.731C165.102 357.731 166.251 358.394 166.251 359.213L166.251 362.577C166.251 363.396 165.102 364.059 163.685 364.059L157.857 364.059C156.44 364.059 155.291 363.396 155.291 362.577L155.291 359.213Z" fill="#A950FF"/>
<path d="M168.687 351.452C168.687 350.648 169.816 349.996 171.208 349.996L177.127 349.996C178.519 349.996 179.648 350.648 179.648 351.452L179.648 354.869C179.648 355.673 178.519 356.324 177.127 356.324L171.208 356.324C169.816 356.324 168.687 355.673 168.687 354.869C168.687 354.065 168.687 351.452 168.687 351.452Z" fill="#A950FF"/>
<path d="M141.894 351.452C141.894 350.648 143.023 349.996 144.415 349.996L150.334 349.996C151.726 349.996 152.855 350.648 152.855 351.452L152.855 354.869C152.855 355.673 151.726 356.325 150.334 356.325L144.415 356.325C143.023 356.325 141.894 355.673 141.894 354.869L141.894 351.452Z" fill="#E9C1FF"/>
<path d="M150.289 357.731C151.706 357.731 152.856 358.394 152.856 359.212L152.856 362.577C152.856 363.395 151.706 364.059 150.289 364.059L144.462 364.059C143.044 364.059 141.895 363.395 141.895 362.577V359.212C141.895 358.394 143.044 357.731 144.462 357.731L150.289 357.731Z" fill="#CD88FF"/>
<path d="M150.334 365.465C151.726 365.465 152.855 366.117 152.855 366.92L152.855 370.338C152.855 371.142 151.726 371.793 150.334 371.793L144.415 371.793C143.023 371.793 141.894 371.142 141.894 370.338L141.894 366.92C141.894 366.117 143.023 365.465 144.415 365.465L150.334 365.465Z" fill="#A950FF"/>
<path d="M163.685 349.996C165.102 349.996 166.252 350.66 166.252 351.478L166.252 354.843C166.252 355.661 165.102 356.324 163.685 356.324L157.858 356.324C156.44 356.324 155.291 355.661 155.291 354.843L155.291 351.478C155.291 350.66 156.44 349.996 157.858 349.996L163.685 349.996Z" fill="#CD88FF"/>
<path d="M174.792 365.679C177.959 365.679 180.526 367.161 180.526 368.99C180.526 370.818 177.959 372.301 174.792 372.301C171.625 372.301 169.058 370.818 169.058 368.99C169.058 367.161 171.625 365.679 174.792 365.679Z" fill="#F62E76"/>
<defs>
<filter id="filter0_b_6564_8844" x="48.8297" y="203.062" width="484.776" height="289.815" filterUnits="userSpaceOnUse" color-interpolation-filters="sRGB">
<feFlood flood-opacity="0" result="BackgroundImageFix"/>
<feGaussianBlur in="BackgroundImageFix" stdDeviation="4.56854"/>
<feComposite in2="SourceAlpha" operator="in" result="effect1_backgroundBlur_6564_8844"/>
<feBlend mode="normal" in="SourceGraphic" in2="effect1_backgroundBlur_6564_8844" result="shape"/>
</filter>
<filter id="filter1_d_6564_8844" x="298.259" y="139.679" width="247.97" height="216.26" filterUnits="userSpaceOnUse" color-interpolation-filters="sRGB">
<feFlood flood-opacity="0" result="BackgroundImageFix"/>
<feColorMatrix in="SourceAlpha" type="matrix" values="0 0 0 0 0 0 0 0 0 0 0 0 0 0 0 0 0 0 127 0" result="hardAlpha"/>
<feOffset dy="5.9619"/>
<feGaussianBlur stdDeviation="35.841"/>
<feComposite in2="hardAlpha" operator="out"/>
<feColorMatrix type="matrix" values="0 0 0 0 0.610758 0 0 0 0 0.563693 0 0 0 0 0.554812 0 0 0 1 0"/>
<feBlend mode="normal" in2="BackgroundImageFix" result="effect1_dropShadow_6564_8844"/>
<feBlend mode="normal" in="SourceGraphic" in2="effect1_dropShadow_6564_8844" result="shape"/>
</filter>
<filter id="filter2_d_6564_8844" x="211.748" y="189.709" width="247.97" height="216.26" filterUnits="userSpaceOnUse" color-interpolation-filters="sRGB">
<feFlood flood-opacity="0" result="BackgroundImageFix"/>
<feColorMatrix in="SourceAlpha" type="matrix" values="0 0 0 0 0 0 0 0 0 0 0 0 0 0 0 0 0 0 127 0" result="hardAlpha"/>
<feOffset dy="5.9619"/>
<feGaussianBlur stdDeviation="35.841"/>
<feComposite in2="hardAlpha" operator="out"/>
<feColorMatrix type="matrix" values="0 0 0 0 0.610758 0 0 0 0 0.563693 0 0 0 0 0.554812 0 0 0 1 0"/>
<feBlend mode="normal" in2="BackgroundImageFix" result="effect1_dropShadow_6564_8844"/>
<feBlend mode="normal" in="SourceGraphic" in2="effect1_dropShadow_6564_8844" result="shape"/>
</filter>
<filter id="filter3_f_6564_8844" x="13.1016" y="43.781" width="467.039" height="509.88" filterUnits="userSpaceOnUse" color-interpolation-filters="sRGB">
<feFlood flood-opacity="0" result="BackgroundImageFix"/>
<feBlend mode="normal" in="SourceGraphic" in2="BackgroundImageFix" result="shape"/>
<feGaussianBlur stdDeviation="75" result="effect1_foregroundBlur_6564_8844"/>
</filter>
<filter id="filter4_d_6564_8844" x="125.146" y="240.585" width="247.97" height="216.26" filterUnits="userSpaceOnUse" color-interpolation-filters="sRGB">
<feFlood flood-opacity="0" result="BackgroundImageFix"/>
<feColorMatrix in="SourceAlpha" type="matrix" values="0 0 0 0 0 0 0 0 0 0 0 0 0 0 0 0 0 0 127 0" result="hardAlpha"/>
<feOffset dy="5.9619"/>
<feGaussianBlur stdDeviation="35.841"/>
<feComposite in2="hardAlpha" operator="out"/>
<feColorMatrix type="matrix" values="0 0 0 0 0.610758 0 0 0 0 0.563693 0 0 0 0 0.554812 0 0 0 1 0"/>
<feBlend mode="normal" in2="BackgroundImageFix" result="effect1_dropShadow_6564_8844"/>
<feBlend mode="normal" in="SourceGraphic" in2="effect1_dropShadow_6564_8844" result="shape"/>
</filter>
<filter id="filter5_d_6564_8844" x="38.6343" y="290.615" width="247.97" height="216.26" filterUnits="userSpaceOnUse" color-interpolation-filters="sRGB">
<feFlood flood-opacity="0" result="BackgroundImageFix"/>
<feColorMatrix in="SourceAlpha" type="matrix" values="0 0 0 0 0 0 0 0 0 0 0 0 0 0 0 0 0 0 127 0" result="hardAlpha"/>
<feOffset dy="5.9619"/>
<feGaussianBlur stdDeviation="35.841"/>
<feComposite in2="hardAlpha" operator="out"/>
<feColorMatrix type="matrix" values="0 0 0 0 0.610758 0 0 0 0 0.563693 0 0 0 0 0.554812 0 0 0 1 0"/>
<feBlend mode="normal" in2="BackgroundImageFix" result="effect1_dropShadow_6564_8844"/>
<feBlend mode="normal" in="SourceGraphic" in2="effect1_dropShadow_6564_8844" result="shape"/>
</filter>
<linearGradient id="paint0_linear_6564_8844" x1="218.583" y1="179.129" x2="430.943" y2="379.206" gradientUnits="userSpaceOnUse">
<stop offset="0.015625" stop-color="#F3F2F2"/>
<stop offset="0.130108" stop-color="#ECECEC"/>
<stop offset="0.130208" stop-color="#F7F7F7"/>
<stop offset="0.234375" stop-color="#444444"/>
<stop offset="0.505208" stop-color="#B0B0B0"/>
<stop offset="0.765625" stop-color="#685C5A"/>
</linearGradient>
<linearGradient id="paint1_linear_6564_8844" x1="132.071" y1="229.159" x2="344.431" y2="429.236" gradientUnits="userSpaceOnUse">
<stop offset="0.015625" stop-color="#F3F2F2"/>
<stop offset="0.130108" stop-color="#ECECEC"/>
<stop offset="0.130208" stop-color="#F7F7F7"/>
<stop offset="0.234375" stop-color="#444444"/>
<stop offset="0.505208" stop-color="#B0B0B0"/>
<stop offset="0.765625" stop-color="#685C5A"/>
</linearGradient>
<linearGradient id="paint2_linear_6564_8844" x1="83.5198" y1="0" x2="83.5198" y2="209.88" gradientUnits="userSpaceOnUse">
<stop stop-color="#6218FF" stop-opacity="0"/>
<stop offset="1" stop-color="#6117FF"/>
</linearGradient>
<linearGradient id="paint3_linear_6564_8844" x1="45.4693" y1="280.035" x2="257.829" y2="480.112" gradientUnits="userSpaceOnUse">
<stop offset="0.015625" stop-color="#F3F2F2"/>
<stop offset="0.130108" stop-color="#ECECEC"/>
<stop offset="0.130208" stop-color="#F7F7F7"/>
<stop offset="0.234375" stop-color="#444444"/>
<stop offset="0.505208" stop-color="#B0B0B0"/>
<stop offset="0.765625" stop-color="#685C5A"/>
</linearGradient>
<linearGradient id="paint4_linear_6564_8844" x1="-41.0424" y1="330.065" x2="171.318" y2="530.142" gradientUnits="userSpaceOnUse">
<stop offset="0.015625" stop-color="#F3F2F2"/>
<stop offset="0.130108" stop-color="#ECECEC"/>
<stop offset="0.130208" stop-color="#F7F7F7"/>
<stop offset="0.234375" stop-color="#444444"/>
<stop offset="0.505208" stop-color="#B0B0B0"/>
<stop offset="0.765625" stop-color="#685C5A"/>
</linearGradient>
<clipPath id="clip0_6564_8844">
<rect width="56.9052" height="56.9052" fill="white" transform="matrix(0.866025 -0.5 0.866025 0.5 372.963 209.959)"/>
</clipPath>
<clipPath id="clip1_6564_8844">
<rect width="63.0414" height="63.0414" fill="white" transform="matrix(0.866025 -0.5 0.866025 0.5 281.619 259.989)"/>
</clipPath>
<clipPath id="clip2_6564_8844">
<rect width="53.1339" height="53.1339" fill="white" transform="matrix(0.866025 -0.5 0.866025 0.5 203.598 310.865)"/>
</clipPath>
</defs>
</svg>
