<svg width="806" height="602" viewBox="0 0 806 602" fill="none" xmlns="http://www.w3.org/2000/svg">
<g clip-path="url(#clip0_11425_44849)">
<g filter="url(#filter0_b_11425_44849)">
<path d="M670.106 214.151C732.406 298.595 664.343 396.208 518.083 432.177C371.823 468.146 202.752 428.85 140.452 344.406C78.1516 259.963 146.215 162.35 292.475 126.381C438.735 90.4118 607.806 129.708 670.106 214.151Z" fill="black" fill-opacity="0.08"/>
</g>
<g filter="url(#filter1_b_11425_44849)">
<path fill-rule="evenodd" clip-rule="evenodd" d="M674.368 220.254L673.283 220.492C671.942 218.459 670.528 216.433 669.038 214.414C667.549 212.395 665.998 210.402 664.388 208.436L665.437 208.149C667.054 210.124 668.611 212.124 670.106 214.151C671.602 216.178 673.022 218.213 674.368 220.254ZM658.719 200.46L657.696 200.777C654.094 196.905 650.253 193.146 646.19 189.501L647.166 189.139C651.246 192.798 655.102 196.573 658.719 200.46ZM638.767 182.021L637.825 182.412C633.388 178.855 628.729 175.42 623.866 172.111L624.751 171.677C629.635 174.999 634.312 178.449 638.767 182.021ZM614.804 165.257L613.959 165.717C608.755 162.53 603.351 159.476 597.763 156.558L598.541 156.061C604.152 158.991 609.578 162.057 614.804 165.257ZM587.222 150.453L586.489 150.972C580.615 148.212 574.565 145.593 568.357 143.12L569.017 142.568C575.25 145.051 581.324 147.681 587.222 150.453ZM556.523 137.861L555.914 138.432C549.474 136.14 542.885 133.998 536.166 132.01L536.695 131.414C543.442 133.41 550.057 135.56 556.523 137.861ZM523.248 127.685L522.772 128.296C515.877 126.509 508.862 124.878 501.745 123.409L502.136 122.778C509.282 124.253 516.325 125.89 523.248 127.685ZM487.964 120.088L487.63 120.729C480.399 119.475 473.078 118.384 465.684 117.46L465.929 116.805C473.353 117.732 480.704 118.828 487.964 120.088ZM451.273 115.201L451.086 115.863C443.641 115.163 436.136 114.632 428.588 114.272L428.683 113.604C436.262 113.965 443.798 114.499 451.273 115.201ZM413.79 113.12L413.755 113.79C406.224 113.659 398.662 113.7 391.085 113.916L391.028 113.246C398.636 113.029 406.229 112.989 413.79 113.12ZM376.151 113.896L376.269 114.563C368.791 115.004 361.309 115.617 353.84 116.408L353.631 115.748C361.131 114.955 368.643 114.339 376.151 113.896ZM339.033 117.521L339.302 118.173C331.998 119.176 324.717 120.35 317.473 121.701L317.116 121.064C324.389 119.707 331.7 118.528 339.033 117.521ZM303.044 123.92L303.458 124.547C299.936 125.321 296.426 126.137 292.93 126.997C289.433 127.857 285.981 128.753 282.575 129.682L282.079 129.076C285.498 128.143 288.964 127.244 292.475 126.381C295.985 125.517 299.509 124.697 303.044 123.92ZM268.761 132.955L269.31 133.546C262.604 135.626 256.092 137.843 249.78 140.189L249.151 139.625C255.489 137.27 262.028 135.043 268.761 132.955ZM236.823 144.474C230.636 147.046 224.661 149.747 218.907 152.567L219.658 153.078C225.389 150.27 231.339 147.58 237.501 145.018L236.823 144.474ZM207.788 158.31L208.584 158.797C203.064 161.802 197.774 164.922 192.721 168.148L191.86 167.699C196.934 164.459 202.245 161.326 207.788 158.31ZM182.145 174.234L183.046 174.657C178.264 178.049 173.728 181.541 169.444 185.126L168.489 184.745C172.79 181.146 177.344 177.639 182.145 174.234ZM160.336 191.958L161.325 192.309C157.355 196.028 153.646 199.832 150.202 203.711L149.169 203.406C152.626 199.51 156.351 195.691 160.336 191.958ZM142.71 211.169L143.769 211.444C140.673 215.425 137.849 219.475 135.304 223.584L134.211 223.358C136.766 219.233 139.602 215.166 142.71 211.169ZM129.551 231.54L130.663 231.733C128.491 235.908 126.601 240.135 125 244.404L123.866 244.262C125.472 239.976 127.37 235.732 129.551 231.54ZM121.088 252.724L122.234 252.832C121.022 257.13 120.102 261.463 119.48 265.821L118.322 265.766C118.947 261.391 119.871 257.04 121.088 252.724ZM117.484 274.365L118.645 274.385C118.417 278.733 118.487 283.099 118.862 287.474L117.702 287.507C117.326 283.114 117.256 278.731 117.484 274.365ZM118.828 296.096L119.983 296.028C120.746 300.345 121.809 304.665 123.178 308.977L122.036 309.098C120.661 304.768 119.594 300.431 118.828 296.096ZM125.106 317.526L126.236 317.371C127.972 321.587 130.007 325.791 132.347 329.974L131.242 330.18C128.893 325.98 126.85 321.76 125.106 317.526ZM136.19 338.304C137.536 340.345 138.956 342.38 140.452 344.406C141.947 346.433 143.504 348.434 145.121 350.409L146.17 350.122C144.56 348.156 143.009 346.163 141.52 344.144C140.03 342.125 138.616 340.098 137.275 338.065L136.19 338.304ZM151.839 358.098L152.862 357.78C156.464 361.652 160.305 365.412 164.368 369.056L163.392 369.419C159.312 365.76 155.456 361.985 151.839 358.098ZM171.79 376.537L172.733 376.145C177.17 379.703 181.828 383.138 186.692 386.447L185.807 386.881C180.923 383.558 176.246 380.109 171.79 376.537ZM195.754 393.3L196.599 392.841C201.803 396.028 207.207 399.082 212.795 401.999L212.016 402.497C206.406 399.567 200.979 396.5 195.754 393.3ZM223.336 408.105L224.069 407.585C229.943 410.346 235.993 412.965 242.201 415.438L241.541 415.99C235.308 413.506 229.234 410.877 223.336 408.105ZM254.034 420.697C260.501 422.997 267.116 425.148 273.863 427.144L274.392 426.547C267.672 424.559 261.084 422.418 254.643 420.126L254.034 420.697ZM287.31 430.873L287.786 430.262C294.681 432.049 301.696 433.679 308.813 435.149L308.422 435.78C301.276 434.305 294.233 432.668 287.31 430.873ZM322.594 438.47L322.928 437.828C330.159 439.083 337.48 440.174 344.874 441.098L344.628 441.753C337.205 440.825 329.854 439.73 322.594 438.47ZM359.285 443.356L359.472 442.695C366.916 443.395 374.422 443.926 381.97 444.285L381.875 444.953C374.296 444.593 366.76 444.059 359.285 443.356ZM396.768 445.437L396.803 444.767C404.334 444.899 411.896 444.858 419.473 444.642L419.53 445.311C411.922 445.528 404.329 445.569 396.768 445.437ZM434.407 444.661L434.289 443.994C441.767 443.554 449.248 442.941 456.718 442.15L456.927 442.809C449.427 443.603 441.915 444.219 434.407 444.661ZM471.525 441.037L471.256 440.384C478.559 439.382 485.841 438.207 493.085 436.856L493.442 437.494C486.168 438.851 478.858 440.03 471.525 441.037ZM507.513 434.637L507.1 434.011C510.621 433.237 514.131 432.42 517.628 431.56C521.125 430.7 524.577 429.805 527.983 428.875L528.479 429.481C525.06 430.415 521.594 431.314 518.083 432.177C514.572 433.04 511.049 433.86 507.513 434.637ZM541.797 425.602L541.248 425.012C547.954 422.932 554.466 420.715 560.778 418.369L561.406 418.932C555.069 421.288 548.53 423.514 541.797 425.602ZM573.735 414.084L573.057 413.54C579.219 410.978 585.169 408.288 590.9 405.48L591.651 405.991C585.896 408.811 579.922 411.511 573.735 414.084ZM602.77 400.248L601.974 399.76C607.494 396.756 612.784 393.636 617.837 390.409L618.698 390.859C613.624 394.098 608.312 397.231 602.77 400.248ZM628.413 384.323L627.512 383.9C632.294 380.509 636.83 377.016 641.114 373.432L642.069 373.813C637.768 377.411 633.213 380.918 628.413 384.323ZM650.222 366.6L649.233 366.248C653.202 362.53 656.912 358.726 660.356 354.846L661.389 355.152C657.931 359.047 654.207 362.867 650.222 366.6ZM667.848 347.388C670.956 343.391 673.792 339.325 676.347 335.199L675.254 334.974C672.709 339.083 669.885 343.133 666.789 347.114L667.848 347.388ZM681.006 327.017L679.895 326.824C682.067 322.649 683.957 318.423 685.557 314.154L686.692 314.295C685.085 318.582 683.188 322.826 681.006 327.017ZM689.469 305.833L688.324 305.726C689.536 301.427 690.456 297.094 691.078 292.736L692.235 292.791C691.611 297.167 690.686 301.518 689.469 305.833ZM693.074 284.193L691.913 284.173C692.141 279.825 692.07 275.459 691.696 271.084L692.855 271.051C693.232 275.443 693.302 279.827 693.074 284.193ZM691.73 262.462L690.575 262.53C689.812 258.213 688.749 253.893 687.38 249.581L688.522 249.46C689.897 253.79 690.964 258.127 691.73 262.462ZM685.451 241.032L684.322 241.187C682.586 236.97 680.551 232.766 678.211 228.584L679.316 228.378C681.665 232.577 683.708 236.798 685.451 241.032Z" fill="#9178D6"/>
</g>
<g filter="url(#filter2_b_11425_44849)">
<path d="M597.187 228.833C642.947 290.857 592.954 362.555 485.525 388.974C378.096 415.393 253.912 386.53 208.152 324.506C162.392 262.482 212.385 190.784 319.814 164.365C427.243 137.945 551.427 166.808 597.187 228.833Z" fill="black" fill-opacity="0.08"/>
</g>
<g filter="url(#filter3_b_11425_44849)">
<path fill-rule="evenodd" clip-rule="evenodd" d="M600.296 233.282L599.211 233.521C598.234 232.04 597.204 230.565 596.119 229.095C595.035 227.625 593.906 226.174 592.734 224.742L593.784 224.456C594.962 225.896 596.097 227.355 597.187 228.833C598.278 230.31 599.314 231.794 600.296 233.282ZM584.249 214.109L583.252 214.451C580.42 211.704 577.421 209.041 574.264 206.464L575.212 206.077C578.386 208.668 581.403 211.346 584.249 214.109ZM562.705 196.847L561.826 197.285C558.215 194.871 554.455 192.55 550.555 190.325L551.371 189.849C555.292 192.085 559.074 194.419 562.705 196.847ZM536.26 182.023L535.528 182.543C531.25 180.534 526.846 178.627 522.327 176.826L522.987 176.274C527.53 178.086 531.959 180.003 536.26 182.023ZM505.749 170.085L505.184 170.67C500.375 169.122 495.465 167.684 490.468 166.36L490.952 165.75C495.977 167.083 500.914 168.528 505.749 170.085ZM472.12 161.373L471.739 162.007C466.545 160.963 461.28 160.036 455.954 159.228L456.249 158.579C461.604 159.392 466.898 160.324 472.12 161.373ZM436.392 156.147L436.206 156.809C430.785 156.301 425.321 155.914 419.826 155.651L419.921 154.983C425.447 155.247 430.942 155.636 436.392 156.147ZM399.634 154.581L399.65 155.251C394.169 155.296 388.672 155.465 383.172 155.761L383.064 155.094C388.595 154.796 394.123 154.626 399.634 154.581ZM362.969 156.746L363.188 157.404C357.819 158 352.459 158.721 347.121 159.569L346.813 158.923C352.181 158.07 357.57 157.345 362.969 156.746ZM327.521 162.57L327.934 163.196C325.37 163.76 322.815 164.355 320.269 164.981C317.723 165.607 315.21 166.259 312.729 166.935L312.234 166.329C314.727 165.649 317.255 164.994 319.814 164.365C322.374 163.735 324.943 163.137 327.521 162.57ZM294.311 171.834L294.905 172.41C290.147 174.045 285.534 175.777 281.07 177.599L280.4 177.052C284.888 175.219 289.527 173.478 294.311 171.834ZM264.413 184.273L265.172 184.78C260.99 186.865 256.971 189.036 253.118 191.287L252.292 190.816C256.166 188.553 260.208 186.369 264.413 184.273ZM238.738 199.541L239.638 199.964C236.159 202.433 232.856 204.976 229.736 207.585L228.78 207.204C231.918 204.581 235.239 202.024 238.738 199.541ZM218.06 217.156L219.074 217.483C216.393 220.259 213.902 223.094 211.608 225.979L210.553 225.699C212.86 222.798 215.364 219.948 218.06 217.156ZM202.972 236.572L204.068 236.792C202.26 239.791 200.654 242.831 199.255 245.906L198.132 245.735C199.539 242.644 201.154 239.587 202.972 236.572ZM193.92 257.2L195.066 257.307C194.185 260.437 193.515 263.591 193.06 266.764L191.903 266.709C192.36 263.519 193.034 260.347 193.92 257.2ZM191.207 278.422L192.368 278.413C192.445 281.577 192.737 284.751 193.251 287.927L192.095 287.989C191.579 284.795 191.284 281.604 191.207 278.422ZM194.957 299.591L196.097 299.464C197.129 302.564 198.377 305.658 199.846 308.74L198.727 308.918C197.249 305.819 195.994 302.708 194.957 299.591ZM205.044 320.057C206.026 321.545 207.062 323.028 208.152 324.506C209.243 325.984 210.377 327.443 211.555 328.883L212.605 328.596C211.434 327.164 210.305 325.713 209.22 324.243C208.136 322.773 207.106 321.298 206.129 319.818L205.044 320.057ZM221.09 339.23L222.088 338.887C224.919 341.634 227.919 344.298 231.075 346.875L230.128 347.262C226.953 344.67 223.937 341.992 221.09 339.23ZM242.635 356.492L243.513 356.054C247.124 358.468 250.885 360.789 254.784 363.013L253.968 363.49C250.047 361.253 246.266 358.919 242.635 356.492ZM269.079 371.315L269.812 370.796C274.089 372.805 278.494 374.711 283.013 376.513L282.353 377.064C277.809 375.253 273.38 373.336 269.079 371.315ZM299.59 383.254L300.155 382.669C304.965 384.216 309.874 385.654 314.872 386.979L314.387 387.588C309.363 386.256 304.426 384.81 299.59 383.254ZM333.219 391.965L333.601 391.332C338.794 392.376 344.06 393.303 349.385 394.111L349.09 394.759C343.736 393.947 338.441 393.015 333.219 391.965ZM368.948 397.191L369.134 396.529C374.554 397.038 380.018 397.425 385.514 397.687L385.418 398.355C379.892 398.092 374.398 397.702 368.948 397.191ZM405.705 398.757L405.689 398.087C411.17 398.043 416.667 397.874 422.168 397.577L422.276 398.245C416.744 398.543 411.217 398.713 405.705 398.757ZM442.371 396.592L442.152 395.934C447.521 395.338 452.88 394.618 458.218 393.77L458.526 394.416C453.159 395.269 447.77 395.993 442.371 396.592ZM477.819 390.769L477.406 390.142C479.969 389.578 482.524 388.983 485.07 388.357C487.616 387.731 490.13 387.08 492.61 386.403L493.106 387.009C490.612 387.689 488.085 388.345 485.525 388.974C482.966 389.604 480.396 390.202 477.819 390.769ZM511.028 381.504L510.434 380.928C515.192 379.294 519.806 377.562 524.27 375.739L524.94 376.287C520.451 378.119 515.812 379.861 511.028 381.504ZM540.927 369.066L540.168 368.558C544.349 366.474 548.369 364.302 552.222 362.051L553.048 362.522C549.173 364.786 545.131 366.969 540.927 369.066ZM566.602 353.798L565.701 353.375C569.181 350.905 572.483 348.362 575.604 345.753L576.559 346.134C573.422 348.758 570.101 351.315 566.602 353.798ZM587.28 336.182L586.266 335.856C588.947 333.079 591.437 330.245 593.732 327.359L594.787 327.639C592.48 330.54 589.976 333.39 587.28 336.182ZM602.368 316.767L601.272 316.546C603.079 313.548 604.685 310.508 606.084 307.433L607.207 307.603C605.801 310.695 604.186 313.752 602.368 316.767ZM611.42 296.139L610.274 296.031C611.155 292.902 611.825 289.747 612.279 286.574L613.436 286.63C612.979 289.82 612.305 292.992 611.42 296.139ZM614.132 274.917L612.972 274.926C612.895 271.762 612.602 268.588 612.089 265.412L613.245 265.35C613.761 268.543 614.055 271.735 614.132 274.917ZM610.383 253.748L609.242 253.874C608.211 250.774 606.963 247.68 605.493 244.598L606.613 244.42C608.09 247.519 609.345 250.631 610.383 253.748Z" fill="url(#paint0_linear_11425_44849)"/>
</g>
<g opacity="0.7" filter="url(#filter4_f_11425_44849)">
<rect width="325.784" height="233.599" transform="matrix(-0.999351 -0.0360302 -0.0360302 0.999351 580.366 167.627)" fill="url(#paint1_linear_11425_44849)"/>
</g>
<g filter="url(#filter5_f_11425_44849)">
<rect width="248.808" height="188.234" transform="matrix(-1 4.61043e-09 4.36336e-08 1 596.035 263.615)" fill="url(#paint2_linear_11425_44849)"/>
</g>
<g filter="url(#filter6_d_11425_44849)">
<path fill-rule="evenodd" clip-rule="evenodd" d="M464.9 357.043L464.012 355.804C482.912 351.289 500.621 344.597 515.99 335.723C531.359 326.85 542.951 316.626 550.771 305.714L552.917 306.226C544.982 317.298 533.221 327.671 517.632 336.671C502.043 345.671 484.077 352.462 464.9 357.043ZM552.917 234.362L550.771 234.875C542.951 223.963 531.359 213.738 515.99 204.865C500.621 195.992 482.912 189.299 464.012 184.784L464.9 183.545C484.077 188.126 502.043 194.917 517.632 203.917C533.221 212.917 544.982 223.29 552.917 234.362ZM340.427 183.546C321.251 188.126 303.284 194.917 287.695 203.917C272.106 212.917 260.345 223.29 252.41 234.362L254.556 234.875C262.376 223.963 273.968 213.738 289.337 204.865C304.706 195.992 322.415 189.299 341.315 184.784L340.427 183.546ZM252.41 306.226L254.556 305.714C262.376 316.626 273.968 326.85 289.337 335.723C304.706 344.597 322.415 351.289 341.315 355.804L340.427 357.043C321.25 352.462 303.284 345.671 287.695 336.671C272.106 327.671 260.345 317.298 252.41 306.226Z" fill="#E3262F"/>
</g>
<g opacity="0.4" filter="url(#filter7_f_11425_44849)">
<ellipse cx="396.852" cy="123.83" rx="54.284" ry="30.7388" fill="black"/>
</g>
<g filter="url(#filter8_d_11425_44849)">
<path d="M334.111 315.849C315.998 305.392 305.822 291.209 305.822 276.421C305.822 261.633 315.998 247.451 334.111 236.994L402.407 197.567L470.703 236.994C488.816 247.451 498.992 261.633 498.992 276.421C498.992 291.209 488.816 305.392 470.703 315.849C452.589 326.305 428.023 332.18 402.407 332.18C376.791 332.18 352.224 326.305 334.111 315.849V315.849Z" fill="#0A41CF"/>
</g>
<path d="M403.336 283.949L268.095 207.582L403.336 128.034L536.977 207.582L403.336 283.949Z" fill="#6400CA" stroke="url(#paint3_linear_11425_44849)" stroke-width="1.75791"/>
<path d="M402.678 284.581V368.862L267.211 289.007V207.104L402.678 284.581Z" fill="#4A0292"/>
<path d="M402.409 283.483V367.905L539.001 289.081V207.267L402.409 283.483Z" fill="#3C0077"/>
<path d="M390.395 204.705C390.412 202.766 393.094 201.217 396.386 201.246L409.919 201.364C413.211 201.392 415.866 202.988 415.849 204.927L415.779 212.898C415.762 214.837 413.08 216.386 409.788 216.357L396.255 216.239C392.963 216.211 390.308 214.615 390.325 212.676L390.395 204.705Z" fill="#A950FF"/>
<path d="M421.665 186.587C421.682 184.683 424.316 183.162 427.55 183.19L441.295 183.31C444.529 183.338 447.136 184.905 447.12 186.81L447.049 194.906C447.032 196.811 444.398 198.332 441.165 198.304L427.419 198.184C424.186 198.156 421.578 196.589 421.595 194.684L421.665 186.587Z" fill="#A950FF"/>
<path d="M359.445 186.045C359.461 184.14 362.096 182.619 365.329 182.648L379.075 182.768C382.308 182.796 384.915 184.363 384.899 186.267L384.828 194.364C384.811 196.268 382.177 197.789 378.944 197.761L365.198 197.641C361.965 197.613 359.357 196.046 359.374 194.142L359.445 186.045Z" fill="#E9C1FF"/>
<path d="M378.81 201.091C382.102 201.12 384.757 202.716 384.74 204.655L384.67 212.626C384.653 214.565 381.971 216.114 378.679 216.085L365.146 215.967C361.854 215.938 359.199 214.343 359.216 212.404L359.286 204.433C359.303 202.493 361.985 200.945 365.277 200.973L378.81 201.091Z" fill="#CD88FF"/>
<path d="M378.755 219.418C381.988 219.446 384.595 221.013 384.579 222.917L384.508 231.014C384.492 232.919 381.857 234.44 378.624 234.412L364.878 234.292C361.645 234.263 359.037 232.697 359.054 230.792L359.125 222.695C359.141 220.791 361.776 219.27 365.009 219.298L378.755 219.418Z" fill="#A950FF"/>
<path d="M410.079 183.038C413.371 183.067 416.026 184.662 416.009 186.601L415.94 194.572C415.923 196.512 413.24 198.06 409.948 198.032L396.416 197.914C393.124 197.885 390.469 196.29 390.486 194.35L390.555 186.379C390.572 184.44 393.255 182.891 396.547 182.92L410.079 183.038Z" fill="#CD88FF"/>
<path d="M435.549 220.421C442.904 220.485 448.835 224.049 448.797 228.381C448.76 232.713 442.767 236.173 435.412 236.109C428.057 236.045 422.125 232.481 422.163 228.149C422.201 223.816 428.194 220.356 435.549 220.421Z" fill="#F62E76"/>
<mask id="mask0_11425_44849" style="mask-type:alpha" maskUnits="userSpaceOnUse" x="266" y="127" width="273" height="158">
<path d="M403.336 283.949L268.095 207.582L403.336 128.034L536.977 207.582L403.336 283.949Z" fill="#6400CA" stroke="url(#paint4_linear_11425_44849)" stroke-width="1.75791"/>
</mask>
<g mask="url(#mask0_11425_44849)">
<g style="mix-blend-mode:overlay" filter="url(#filter9_f_11425_44849)">
<circle cx="301.427" cy="205.946" r="65.257" fill="white" style="mix-blend-mode:lighten"/>
</g>
</g>
<path fill-rule="evenodd" clip-rule="evenodd" d="M556.243 392.318L555.056 392.981C554.675 392.754 554.29 392.528 553.902 392.304C553.513 392.079 553.122 391.857 552.729 391.637L553.878 390.952C554.278 391.175 554.675 391.401 555.07 391.629C555.465 391.857 555.856 392.087 556.243 392.318ZM551.451 389.638L550.34 390.344C549.527 389.918 548.705 389.501 547.874 389.093L548.944 388.366C549.788 388.781 550.624 389.205 551.451 389.638ZM546.372 387.145L545.343 387.891C544.486 387.498 543.62 387.113 542.746 386.738L543.732 385.973C544.621 386.354 545.501 386.745 546.372 387.145ZM541.024 384.849L540.082 385.633C539.183 385.273 538.275 384.922 537.36 384.581L538.257 383.78C539.187 384.127 540.109 384.483 541.024 384.849ZM535.429 382.762L534.579 383.58C533.64 383.255 532.693 382.939 531.74 382.633L532.543 381.799C533.512 382.11 534.474 382.432 535.429 382.762ZM529.606 380.892L528.851 381.74C527.878 381.452 526.898 381.173 525.912 380.903L526.618 380.041C527.62 380.315 528.617 380.599 529.606 380.892ZM523.582 379.247L522.925 380.122C521.921 379.871 520.912 379.63 519.897 379.399L520.504 378.512C521.535 378.747 522.561 378.992 523.582 379.247ZM517.385 377.836L516.829 378.734C515.799 378.521 514.764 378.319 513.724 378.127L514.228 377.218C515.285 377.414 516.337 377.62 517.385 377.836ZM511.039 376.662L510.587 377.579C509.535 377.406 508.48 377.243 507.42 377.091L507.82 376.165C508.897 376.321 509.97 376.486 511.039 376.662ZM504.574 375.73L504.227 376.663C503.158 376.53 502.086 376.408 501.011 376.295L501.306 375.357C502.398 375.471 503.487 375.595 504.574 375.73ZM498.018 375.045L497.777 375.989C496.695 375.896 495.611 375.814 494.526 375.743L494.714 374.795C495.817 374.868 496.918 374.951 498.018 375.045ZM491.398 374.608L491.263 375.558C490.174 375.507 489.083 375.466 487.992 375.435L488.073 374.483C489.182 374.514 490.29 374.556 491.398 374.608ZM484.742 374.42L484.715 375.374C483.623 375.363 482.53 375.363 481.437 375.374L481.41 374.42C482.521 374.41 483.632 374.41 484.742 374.42ZM478.08 374.483L478.16 375.435C477.069 375.466 475.979 375.507 474.889 375.558L474.755 374.608C475.862 374.556 476.971 374.514 478.08 374.483ZM471.439 374.795L471.627 375.743C470.541 375.814 469.457 375.896 468.376 375.989L468.135 375.045C469.234 374.951 470.336 374.868 471.439 374.795ZM464.847 375.357L465.141 376.295C464.067 376.408 462.995 376.53 461.926 376.663L461.579 375.73C462.665 375.595 463.755 375.471 464.847 375.357ZM458.332 376.165L458.732 377.091C457.673 377.243 456.617 377.406 455.566 377.579L455.113 376.662C456.183 376.486 457.256 376.321 458.332 376.165ZM451.925 377.218L452.429 378.127C451.389 378.319 450.354 378.521 449.323 378.734L448.768 377.836C449.815 377.62 450.868 377.414 451.925 377.218ZM445.649 378.512L446.255 379.399C445.241 379.63 444.231 379.871 443.228 380.122L442.571 379.247C443.591 378.992 444.617 378.747 445.649 378.512ZM439.534 380.041L440.241 380.903C439.255 381.173 438.275 381.452 437.301 381.74L436.546 380.892C437.536 380.598 438.532 380.315 439.534 380.041ZM433.61 381.799L434.413 382.633C433.46 382.939 432.513 383.255 431.574 383.58L430.723 382.762C431.678 382.432 432.641 382.11 433.61 381.799ZM427.896 383.78L428.792 384.581C427.877 384.922 426.97 385.273 426.071 385.633L425.129 384.849C426.043 384.483 426.966 384.127 427.896 383.78ZM422.42 385.973L423.406 386.738C422.532 387.113 421.667 387.498 420.809 387.891L419.781 387.145C420.652 386.745 421.532 386.354 422.42 385.973ZM417.209 388.366L418.279 389.093C417.448 389.501 416.626 389.918 415.812 390.344L414.702 389.638C415.528 389.205 416.364 388.781 417.209 388.366ZM412.275 390.952L413.424 391.637C413.031 391.857 412.64 392.079 412.251 392.304C411.862 392.528 411.477 392.754 411.096 392.981L409.909 392.318C410.297 392.087 410.688 391.857 411.083 391.629C411.478 391.401 411.875 391.175 412.275 390.952ZM407.634 393.719L408.857 394.36C408.119 394.829 407.396 395.304 406.69 395.784L405.431 395.166C406.149 394.679 406.884 394.196 407.634 393.719ZM403.316 396.651L404.608 397.245C403.926 397.74 403.261 398.24 402.611 398.744L401.285 398.175C401.946 397.662 402.622 397.154 403.316 396.651ZM399.339 399.739L400.697 400.283C400.073 400.802 399.465 401.326 398.874 401.854L397.487 401.336C398.087 400.799 398.705 400.267 399.339 399.739ZM395.725 402.969L397.141 403.46C396.577 404.002 396.03 404.549 395.5 405.099L394.056 404.635C394.595 404.076 395.152 403.52 395.725 402.969ZM392.485 406.331L393.955 406.767C393.454 407.329 392.971 407.894 392.505 408.464L391.011 408.056C391.485 407.477 391.977 406.902 392.485 406.331ZM389.636 409.809L391.152 410.188C390.718 410.768 390.3 411.35 389.9 411.936L388.363 411.586C388.77 410.991 389.194 410.398 389.636 409.809ZM387.191 413.387L388.747 413.707C388.379 414.302 388.029 414.9 387.695 415.5L386.122 415.209C386.461 414.599 386.817 413.992 387.191 413.387ZM385.158 417.05L386.747 417.311C386.447 417.919 386.166 418.528 385.901 419.14L384.299 418.909C384.567 418.287 384.854 417.668 385.158 417.05ZM383.545 420.783L385.16 420.984C384.93 421.601 384.718 422.22 384.523 422.84L382.898 422.67C383.096 422.04 383.311 421.41 383.545 420.783ZM382.358 424.568L383.992 424.707C383.833 425.332 383.691 425.958 383.566 426.584L381.925 426.476C382.051 425.839 382.196 425.203 382.358 424.568ZM381.6 428.391C381.51 429.03 381.438 429.67 381.384 430.31L383.034 430.357C383.087 429.727 383.158 429.097 383.247 428.468L381.6 428.391ZM381.275 432.233L382.927 432.248C382.909 432.879 382.909 433.51 382.927 434.141L381.275 434.157C381.257 433.515 381.257 432.874 381.275 432.233ZM381.384 436.08L383.034 436.033C383.087 436.663 383.158 437.293 383.247 437.922L381.6 437.999C381.51 437.36 381.438 436.72 381.384 436.08ZM381.925 439.914L383.566 439.805C383.691 440.432 383.832 441.058 383.992 441.682L382.358 441.821C382.196 441.187 382.051 440.551 381.925 439.914ZM382.898 443.719L384.523 443.55C384.718 444.17 384.93 444.789 385.16 445.406L383.545 445.606C383.311 444.979 383.096 444.35 382.898 443.719ZM384.299 447.481L385.901 447.25C386.166 447.861 386.447 448.471 386.747 449.078L385.158 449.339C384.854 448.722 384.567 448.102 384.299 447.481ZM386.122 451.18L387.695 450.889C388.029 451.489 388.379 452.087 388.747 452.682L387.191 453.003C386.817 452.398 386.461 451.79 386.122 451.18ZM388.363 454.804L389.9 454.454C390.3 455.039 390.718 455.622 391.152 456.202L389.636 456.581C389.194 455.992 388.77 455.399 388.363 454.804ZM391.011 458.334L392.505 457.926C392.971 458.495 393.454 459.061 393.955 459.623L392.485 460.059C391.977 459.488 391.485 458.912 391.011 458.334ZM394.056 461.754L395.5 461.291C396.03 461.841 396.577 462.388 397.141 462.93L395.725 463.421C395.152 462.869 394.595 462.314 394.056 461.754ZM397.487 465.053L398.874 464.536C399.465 465.064 400.073 465.588 400.697 466.107L399.339 466.651C398.705 466.123 398.087 465.59 397.487 465.053ZM401.285 468.215L402.611 467.645C403.261 468.15 403.926 468.65 404.608 469.145L403.316 469.738C402.622 469.235 401.946 468.727 401.285 468.215ZM405.431 471.223L406.69 470.606C407.396 471.085 408.119 471.56 408.857 472.03L407.634 472.671C406.884 472.194 406.149 471.711 405.431 471.223ZM409.909 474.072C410.297 474.303 410.688 474.532 411.083 474.76C411.478 474.988 411.875 475.214 412.275 475.438L413.424 474.752C413.031 474.533 412.639 474.31 412.251 474.086C411.862 473.862 411.477 473.636 411.096 473.409L409.909 474.072ZM414.702 476.752C415.528 477.185 416.364 477.609 417.209 478.023L418.279 477.297C417.448 476.889 416.625 476.472 415.812 476.045L414.702 476.752ZM419.781 479.245L420.809 478.498C421.666 478.892 422.532 479.276 423.406 479.652L422.42 480.417C421.532 480.036 420.652 479.645 419.781 479.245ZM425.129 481.54L426.071 480.757C426.97 481.117 427.877 481.468 428.792 481.809L427.896 482.61C426.966 482.263 426.043 481.907 425.129 481.54ZM430.723 483.627L431.574 482.809C432.513 483.135 433.46 483.451 434.413 483.757L433.61 484.591C432.641 484.279 431.678 483.958 430.723 483.627ZM436.546 485.498C437.536 485.791 438.532 486.075 439.534 486.348L440.241 485.486C439.255 485.217 438.275 484.938 437.301 484.649L436.546 485.498ZM442.571 487.142L443.228 486.267C444.231 486.518 445.241 486.759 446.255 486.99L445.649 487.878C444.617 487.643 443.591 487.398 442.571 487.142ZM448.768 488.554L449.323 487.656C450.354 487.868 451.389 488.071 452.429 488.263L451.925 489.171C450.868 488.976 449.815 488.77 448.768 488.554ZM455.113 489.728L455.566 488.811C456.617 488.983 457.673 489.146 458.732 489.299L458.332 490.224C457.256 490.069 456.182 489.904 455.113 489.728ZM461.579 490.659L461.926 489.727C462.995 489.86 464.067 489.982 465.141 490.094L464.847 491.033C463.755 490.919 462.665 490.794 461.579 490.659ZM468.135 491.345L468.376 490.401C469.457 490.493 470.541 490.575 471.627 490.647L471.439 491.594C470.336 491.522 469.234 491.438 468.135 491.345ZM474.755 491.782L474.889 490.831C475.979 490.883 477.069 490.924 478.16 490.954L478.08 491.907C476.971 491.876 475.862 491.834 474.755 491.782ZM481.41 491.97L481.437 491.016C482.53 491.026 483.623 491.026 484.715 491.016L484.742 491.97C483.632 491.98 482.521 491.98 481.41 491.97ZM488.073 491.907L487.992 490.954C489.083 490.924 490.174 490.883 491.263 490.831L491.398 491.782C490.29 491.834 489.182 491.876 488.073 491.907ZM494.714 491.594L494.526 490.647C495.611 490.575 496.695 490.493 497.777 490.401L498.018 491.345C496.918 491.438 495.817 491.522 494.714 491.594ZM501.306 491.033C502.398 490.919 503.487 490.794 504.574 490.659L504.227 489.727C503.158 489.86 502.086 489.982 501.011 490.094L501.306 491.033ZM507.82 490.224L507.42 489.299C508.48 489.146 509.535 488.983 510.587 488.811L511.039 489.728C509.97 489.904 508.897 490.069 507.82 490.224ZM514.228 489.171L513.724 488.263C514.764 488.071 515.799 487.868 516.829 487.656L517.385 488.554C516.337 488.77 515.285 488.976 514.228 489.171ZM520.504 487.878L519.897 486.99C520.912 486.759 521.921 486.518 522.925 486.267L523.582 487.142C522.561 487.398 521.535 487.643 520.504 487.878ZM526.618 486.348L525.912 485.486C526.898 485.217 527.878 484.938 528.851 484.649L529.606 485.498C528.617 485.791 527.62 486.075 526.618 486.348ZM532.543 484.591L531.74 483.757C532.693 483.451 533.639 483.135 534.579 482.809L535.429 483.627C534.474 483.958 533.512 484.279 532.543 484.591ZM538.257 482.61L537.36 481.809C538.275 481.468 539.182 481.117 540.082 480.757L541.024 481.54C540.109 481.907 539.187 482.263 538.257 482.61ZM543.732 480.417L542.746 479.652C543.62 479.276 544.486 478.892 545.343 478.498L546.372 479.245C545.5 479.645 544.62 480.036 543.732 480.417ZM548.944 478.023L547.874 477.297C548.705 476.889 549.527 476.472 550.34 476.045L551.451 476.752C550.624 477.185 549.788 477.609 548.944 478.023ZM553.878 475.438L552.729 474.753C553.122 474.533 553.513 474.31 553.902 474.086C554.29 473.862 554.675 473.636 555.056 473.409L556.243 474.072C555.856 474.303 555.465 474.532 555.07 474.76C554.675 474.988 554.278 475.214 553.878 475.438ZM558.519 472.671L557.296 472.03C558.034 471.56 558.756 471.085 559.463 470.606L560.721 471.223C560.003 471.711 559.269 472.194 558.519 472.671ZM562.837 469.738L561.544 469.145C562.226 468.65 562.892 468.15 563.542 467.645L564.867 468.215C564.207 468.727 563.53 469.235 562.837 469.738ZM566.813 466.651L565.456 466.107C566.08 465.588 566.687 465.064 567.278 464.536L568.666 465.053C568.065 465.59 567.447 466.123 566.813 466.651ZM570.428 463.421L569.011 462.93C569.575 462.388 570.122 461.841 570.653 461.291L572.096 461.754C571.557 462.314 571.001 462.869 570.428 463.421ZM573.667 460.059L572.198 459.623C572.698 459.061 573.181 458.495 573.648 457.926L575.141 458.334C574.667 458.912 574.176 459.488 573.667 460.059ZM576.516 456.581L575 456.202C575.435 455.622 575.853 455.039 576.253 454.454L577.79 454.804C577.383 455.399 576.958 455.992 576.516 456.581ZM578.961 453.003L577.406 452.682C577.774 452.087 578.124 451.489 578.457 450.889L580.03 451.18C579.692 451.79 579.335 452.398 578.961 453.003ZM580.995 449.339C581.299 448.722 581.585 448.102 581.854 447.481L580.251 447.25C579.987 447.861 579.705 448.471 579.406 449.078L580.995 449.339ZM582.608 445.606L580.993 445.406C581.222 444.789 581.435 444.17 581.629 443.55L583.255 443.72C583.057 444.35 582.841 444.979 582.608 445.606ZM583.795 441.821L582.16 441.682C582.32 441.058 582.462 440.432 582.586 439.805L584.227 439.914C584.101 440.551 583.957 441.187 583.795 441.821ZM584.552 437.999L582.906 437.922C582.994 437.293 583.065 436.663 583.119 436.033L584.769 436.08C584.715 436.72 584.642 437.36 584.552 437.999ZM584.877 434.157L583.225 434.141C583.243 433.51 583.243 432.879 583.225 432.248L584.877 432.233C584.895 432.874 584.895 433.515 584.877 434.157ZM584.769 430.31L583.119 430.357C583.065 429.727 582.994 429.097 582.906 428.468L584.552 428.391C584.642 429.03 584.715 429.67 584.769 430.31ZM584.227 426.476L582.586 426.584C582.462 425.958 582.32 425.332 582.16 424.707L583.795 424.568C583.957 425.203 584.101 425.839 584.227 426.476ZM583.255 422.67L581.629 422.84C581.435 422.22 581.222 421.601 580.993 420.984L582.608 420.783C582.841 421.411 583.057 422.04 583.255 422.67ZM581.854 418.909L580.251 419.14C579.987 418.528 579.705 417.919 579.406 417.312L580.995 417.05C581.299 417.668 581.585 418.287 581.854 418.909ZM580.03 415.209L578.457 415.5C578.124 414.9 577.774 414.302 577.406 413.707L578.961 413.387C579.335 413.992 579.692 414.599 580.03 415.209ZM577.79 411.586L576.253 411.936C575.853 411.35 575.435 410.768 575 410.188L576.516 409.809C576.958 410.398 577.383 410.991 577.79 411.586ZM575.141 408.056L573.648 408.464C573.181 407.894 572.698 407.329 572.198 406.767L573.667 406.331C574.176 406.902 574.667 407.477 575.141 408.056ZM572.096 404.635L570.653 405.099C570.122 404.549 569.575 404.002 569.011 403.46L570.428 402.969C571.001 403.52 571.557 404.076 572.096 404.635ZM568.666 401.336L567.278 401.854C566.687 401.326 566.08 400.802 565.456 400.283L566.813 399.739C567.447 400.267 568.065 400.799 568.666 401.336ZM564.867 398.175L563.542 398.744C562.892 398.24 562.226 397.74 561.544 397.245L562.837 396.651C563.53 397.154 564.207 397.662 564.867 398.175ZM560.721 395.166L559.463 395.784C558.756 395.304 558.034 394.829 557.296 394.36L558.519 393.719C559.269 394.196 560.003 394.679 560.721 395.166Z" fill="white"/>
<path fill-rule="evenodd" clip-rule="evenodd" d="M588.312 408.054L587.253 408.309C585.354 405.722 583.145 403.174 580.618 400.681C578.091 398.188 575.323 395.826 572.343 393.6L573.253 393.198C576.264 395.447 579.059 397.833 581.611 400.35C584.163 402.868 586.394 405.441 588.312 408.054ZM552.099 381.05L551.4 381.574C543.476 378.079 534.847 375.227 525.769 373.056L526.209 372.446C535.378 374.639 544.094 377.521 552.099 381.05ZM497.354 367.955L497.203 368.609C487.451 367.851 477.508 367.819 467.633 368.553L467.482 367.898C477.458 367.157 487.503 367.189 497.354 367.955ZM438.654 372.334L439.098 372.944C434.596 374.021 430.165 375.279 425.833 376.723C421.501 378.167 417.401 379.752 413.541 381.463L412.837 380.94C416.737 379.212 420.878 377.61 425.254 376.152C429.629 374.693 434.105 373.422 438.654 372.334ZM391.849 393.11L392.766 393.509C386.767 398.066 381.894 403.036 378.217 408.271L377.15 408.022C380.865 402.735 385.787 397.714 391.849 393.11ZM369.677 424.624L370.818 424.706C369.615 430.304 369.667 436.016 371.041 441.694L369.902 441.783C368.514 436.047 368.462 430.278 369.677 424.624ZM377.84 458.336C379.759 460.949 381.99 463.522 384.542 466.04C387.094 468.557 389.889 470.943 392.899 473.192L393.81 472.79C390.829 470.563 388.062 468.202 385.535 465.709C383.008 463.216 380.799 460.668 378.899 458.081L377.84 458.336ZM414.054 485.34L414.753 484.816C422.676 488.311 431.305 491.163 440.383 493.334L439.944 493.944C430.775 491.751 422.058 488.869 414.054 485.34ZM468.799 498.435L468.949 497.781C478.702 498.539 488.645 498.571 498.52 497.837L498.671 498.491C488.694 499.233 478.65 499.201 468.799 498.435ZM527.499 494.056L527.054 493.446C531.557 492.369 535.988 491.111 540.32 489.667C544.652 488.223 548.751 486.638 552.612 484.927L553.316 485.45C549.416 487.178 545.274 488.78 540.899 490.238C536.524 491.697 532.048 492.968 527.499 494.056ZM574.304 473.28L573.386 472.881C579.386 468.324 584.259 463.354 587.936 458.119L589.002 458.367C585.288 463.655 580.365 468.676 574.304 473.28ZM596.476 441.766L595.335 441.684C596.538 436.086 596.486 430.374 595.112 424.696L596.251 424.607C597.638 430.343 597.691 436.112 596.476 441.766Z" fill="#AB0009"/>
<g filter="url(#filter10_d_11425_44849)">
<path d="M565.61 452.005C562.756 456.041 558.956 459.902 554.209 463.477L553.754 463.276C551.467 464.998 548.959 466.653 546.23 468.229C543.5 469.805 540.633 471.253 537.65 472.573L537.999 472.836C531.807 475.576 525.119 477.77 518.13 479.418L517.913 479.112C510.816 480.785 503.406 481.892 495.89 482.433L495.961 482.762C488.36 483.309 480.652 483.281 473.047 482.679L473.125 482.351C465.636 481.757 458.247 480.604 451.163 478.89L450.941 479.195C443.987 477.513 437.323 475.294 431.141 472.539L431.492 472.277C428.516 470.951 425.653 469.5 422.923 467.924C420.193 466.348 417.68 464.695 415.383 462.977L414.929 463.179C410.158 459.61 406.315 455.763 403.401 451.748L403.929 451.62C400.961 447.53 398.963 443.264 397.935 438.94L397.367 438.985C396.324 434.594 396.275 430.144 397.223 425.756L397.792 425.797C398.729 421.457 400.646 417.179 403.545 413.081L403.014 412.956C405.869 408.921 409.669 405.06 414.416 401.485L414.871 401.686C417.157 399.964 419.665 398.308 422.395 396.733C425.124 395.157 427.991 393.709 430.974 392.389L430.625 392.126C436.817 389.386 443.505 387.191 450.495 385.543L450.712 385.85C457.808 384.176 465.218 383.069 472.735 382.528L472.664 382.2C480.264 381.653 487.972 381.681 495.578 382.283L495.5 382.611C502.989 383.204 510.377 384.358 517.462 386.072L517.683 385.767C524.638 387.449 531.301 389.668 537.483 392.422L537.133 392.685C540.108 394.01 542.972 395.462 545.702 397.038C548.432 398.614 550.945 400.267 553.241 401.985L553.695 401.783C558.466 405.352 562.31 409.199 565.224 413.214L564.695 413.342C567.663 417.432 569.662 421.698 570.689 426.022L571.257 425.977C572.301 430.368 572.349 434.818 571.402 439.206L570.833 439.165C569.896 443.505 567.978 447.783 565.08 451.88L565.61 452.005Z" stroke="#AB0009" stroke-width="0.936248" stroke-linejoin="round" stroke-dasharray="22.47 22.47" shape-rendering="crispEdges"/>
</g>
<path d="M481.742 437.999V509.021L367.586 441.728V372.709L481.742 437.999Z" fill="#870007"/>
<path d="M481.515 437.073V508.215L596.619 441.791V372.848L481.515 437.073Z" fill="#5A0005"/>
<path d="M482.3 437.168L368.854 373.109L482.3 306.381L594.404 373.109L482.3 437.168Z" fill="#E3262F" stroke="url(#paint5_linear_11425_44849)" stroke-width="2"/>
<mask id="mask1_11425_44849" style="mask-type:alpha" maskUnits="userSpaceOnUse" x="366" y="305" width="231" height="134">
<path d="M482.302 437.743L367.853 373.117L482.302 305.8L595.396 373.117L482.302 437.743Z" fill="#E3262F" stroke="white"/>
</mask>
<g mask="url(#mask1_11425_44849)">
<g style="mix-blend-mode:lighten" filter="url(#filter11_f_11425_44849)">
<circle cx="416.258" cy="349.237" r="65.4842" fill="#FF9797" style="mix-blend-mode:lighten"/>
</g>
</g>
<g filter="url(#filter12_d_11425_44849)">
<path d="M488.061 373L481.962 376.522L463.662 365.957L469.762 362.435M500.261 380.043L494.161 383.565L488.061 380.043L494.161 376.522M451.463 355.392C447.458 357.704 444.281 360.449 442.113 363.47C439.946 366.492 438.83 369.73 438.83 373C438.83 379.604 443.374 385.938 451.463 390.608C459.552 395.278 470.522 397.902 481.962 397.902C487.626 397.902 493.234 397.258 498.467 396.006C503.7 394.755 508.455 392.921 512.46 390.608C520.549 385.938 525.093 379.604 525.093 373C525.093 366.396 520.549 360.062 512.46 355.392C508.455 353.079 503.7 351.245 498.467 349.994C493.234 348.742 487.626 348.098 481.962 348.098C476.297 348.098 470.689 348.742 465.456 349.994C460.223 351.245 455.468 353.079 451.463 355.392Z" fill="#FEECED"/>
</g>
<path fill-rule="evenodd" clip-rule="evenodd" d="M190.139 401.894C190.454 401.338 191.16 401.143 191.716 401.458L193.732 402.602C194.288 402.917 194.483 403.624 194.168 404.179C193.852 404.735 193.146 404.93 192.591 404.615L190.575 403.471C190.019 403.156 189.824 402.45 190.139 401.894ZM196.187 405.325C196.502 404.769 197.209 404.574 197.764 404.89L201.796 407.177C202.352 407.492 202.547 408.198 202.232 408.754C201.917 409.31 201.21 409.505 200.655 409.19L196.623 406.902C196.067 406.587 195.872 405.881 196.187 405.325ZM204.251 409.9C204.567 409.344 205.273 409.149 205.829 409.464L209.861 411.752C210.416 412.067 210.611 412.773 210.296 413.329C209.981 413.885 209.275 414.08 208.719 413.764L204.687 411.477C204.131 411.162 203.936 410.456 204.251 409.9ZM212.316 414.475C212.631 413.919 213.337 413.724 213.893 414.039L217.925 416.327C218.481 416.642 218.676 417.348 218.36 417.904C218.045 418.46 217.339 418.654 216.783 418.339L212.751 416.052C212.195 415.737 212 415.03 212.316 414.475ZM220.38 419.049C220.695 418.494 221.401 418.299 221.957 418.614L225.989 420.901C226.545 421.217 226.74 421.923 226.424 422.479C226.109 423.034 225.403 423.229 224.847 422.914L220.815 420.627C220.259 420.311 220.064 419.605 220.38 419.049ZM228.444 423.624C228.759 423.068 229.465 422.874 230.021 423.189L234.053 425.476C234.609 425.791 234.804 426.498 234.489 427.053C234.173 427.609 233.467 427.804 232.911 427.489L228.879 425.201C228.324 424.886 228.129 424.18 228.444 423.624ZM236.508 428.199C236.823 427.643 237.529 427.448 238.085 427.764L242.117 430.051C242.673 430.366 242.868 431.072 242.553 431.628C242.237 432.184 241.531 432.379 240.976 432.064L236.943 429.776C236.388 429.461 236.193 428.755 236.508 428.199ZM244.572 432.774C244.888 432.218 245.594 432.023 246.149 432.338L250.181 434.626C250.737 434.941 250.932 435.647 250.617 436.203C250.302 436.759 249.595 436.954 249.04 436.638L245.008 434.351C244.452 434.036 244.257 433.33 244.572 432.774ZM252.636 437.349C252.952 436.793 253.658 436.598 254.214 436.913L258.246 439.201C258.801 439.516 258.996 440.222 258.681 440.778C258.366 441.334 257.66 441.529 257.104 441.213L253.072 438.926C252.516 438.611 252.321 437.904 252.636 437.349ZM260.701 441.923C261.016 441.368 261.722 441.173 262.278 441.488L266.31 443.775C266.866 444.091 267.061 444.797 266.745 445.353C266.43 445.908 265.724 446.103 265.168 445.788L261.136 443.501C260.58 443.185 260.385 442.479 260.701 441.923ZM268.765 446.498C269.08 445.942 269.786 445.748 270.342 446.063L274.374 448.35C274.93 448.666 275.125 449.372 274.809 449.927C274.494 450.483 273.788 450.678 273.232 450.363L269.2 448.075C268.644 447.76 268.449 447.054 268.765 446.498ZM276.829 451.073C277.144 450.517 277.85 450.322 278.406 450.638L282.438 452.925C282.994 453.24 283.189 453.946 282.874 454.502C282.558 455.058 281.852 455.253 281.296 454.938L277.264 452.65C276.709 452.335 276.514 451.629 276.829 451.073ZM284.893 455.648C285.208 455.092 285.914 454.897 286.47 455.212L290.502 457.5C291.058 457.815 291.253 458.521 290.938 459.077C290.622 459.633 289.916 459.828 289.361 459.512L285.328 457.225C284.773 456.91 284.578 456.204 284.893 455.648ZM292.957 460.223C293.272 459.667 293.979 459.472 294.534 459.787L298.566 462.075C299.122 462.39 299.317 463.096 299.002 463.652C298.687 464.208 297.98 464.403 297.425 464.087L293.393 461.8C292.837 461.485 292.642 460.778 292.957 460.223ZM301.021 464.797C301.337 464.242 302.043 464.047 302.599 464.362L306.631 466.649C307.186 466.965 307.381 467.671 307.066 468.227C306.751 468.782 306.045 468.977 305.489 468.662L301.457 466.375C300.901 466.059 300.706 465.353 301.021 464.797ZM309.086 469.372C309.401 468.817 310.107 468.622 310.663 468.937L314.695 471.224C315.251 471.54 315.446 472.246 315.13 472.801C314.815 473.357 314.109 473.552 313.553 473.237L309.521 470.949C308.965 470.634 308.77 469.928 309.086 469.372ZM317.15 473.947C317.465 473.391 318.171 473.196 318.727 473.512L322.759 475.799C323.315 476.114 323.51 476.821 323.194 477.376C322.879 477.932 322.173 478.127 321.617 477.812L317.585 475.524C317.029 475.209 316.834 474.503 317.15 473.947ZM325.214 478.522C325.529 477.966 326.235 477.771 326.791 478.086L330.823 480.374C331.379 480.689 331.574 481.395 331.259 481.951C330.943 482.507 330.237 482.702 329.681 482.387L325.649 480.099C325.094 479.784 324.899 479.078 325.214 478.522ZM333.278 483.097C333.593 482.541 334.299 482.346 334.855 482.661L338.887 484.949C339.443 485.264 339.638 485.97 339.323 486.526C339.007 487.082 338.301 487.277 337.746 486.961L333.714 484.674C333.158 484.359 332.963 483.652 333.278 483.097ZM341.342 487.672C341.658 487.116 342.364 486.921 342.919 487.236L346.952 489.524C347.507 489.839 347.702 490.545 347.387 491.101C347.072 491.656 346.366 491.851 345.81 491.536L341.778 489.249C341.222 488.933 341.027 488.227 341.342 487.672ZM349.406 492.246C349.722 491.691 350.428 491.496 350.984 491.811L355.016 494.098C355.571 494.414 355.766 495.12 355.451 495.676C355.136 496.231 354.43 496.426 353.874 496.111L349.842 493.824C349.286 493.508 349.091 492.802 349.406 492.246ZM357.471 496.821C357.786 496.265 358.492 496.07 359.048 496.386L363.08 498.673C363.636 498.988 363.831 499.695 363.515 500.25C363.2 500.806 362.494 501.001 361.938 500.686L357.906 498.398C357.35 498.083 357.155 497.377 357.471 496.821ZM365.535 501.396C365.85 500.84 366.556 500.645 367.112 500.961L371.144 503.248C371.7 503.563 371.895 504.269 371.579 504.825C371.264 505.381 370.558 505.576 370.002 505.261L365.97 502.973C365.414 502.658 365.219 501.952 365.535 501.396ZM373.599 505.971C373.914 505.415 374.62 505.22 375.176 505.535L379.208 507.823C379.764 508.138 379.959 508.844 379.644 509.4C379.328 509.956 378.622 510.151 378.066 509.835L374.034 507.548C373.479 507.233 373.284 506.527 373.599 505.971ZM381.663 510.546C381.978 509.99 382.685 509.795 383.24 510.11L385.256 511.254C385.812 511.569 386.007 512.275 385.692 512.831C385.376 513.387 384.67 513.582 384.115 513.266L382.099 512.123C381.543 511.807 381.348 511.101 381.663 510.546Z" fill="#E3262F"/>
<path fill-rule="evenodd" clip-rule="evenodd" d="M423.28 491.642L421.45 492.791L420.219 490.832L422.049 489.683L423.28 491.642ZM417.792 495.09L414.133 497.389L412.902 495.43L416.561 493.131L417.792 495.09ZM410.475 499.688L406.816 501.987L405.585 500.028L409.243 497.729L410.475 499.688ZM403.157 504.286L399.499 506.585L398.268 504.626L401.926 502.327L403.157 504.286ZM395.84 508.884L392.181 511.183L390.95 509.224L394.609 506.925L395.84 508.884ZM388.523 513.482L386.693 514.631L385.462 512.672L387.292 511.523L388.523 513.482Z" fill="#E3262F"/>
<path fill-rule="evenodd" clip-rule="evenodd" d="M292.434 338.438C292.775 338.979 292.613 339.693 292.073 340.034L290.152 341.246C289.612 341.587 288.898 341.425 288.557 340.885C288.216 340.344 288.377 339.63 288.918 339.289L290.838 338.077C291.378 337.736 292.093 337.898 292.434 338.438ZM286.673 342.073C287.014 342.614 286.852 343.328 286.312 343.669L282.471 346.092C281.931 346.433 281.216 346.272 280.875 345.731C280.534 345.191 280.696 344.477 281.236 344.136L285.077 341.712C285.617 341.371 286.332 341.533 286.673 342.073ZM278.991 346.92C279.332 347.46 279.171 348.175 278.63 348.516L274.79 350.939C274.249 351.28 273.535 351.119 273.194 350.578C272.853 350.038 273.014 349.323 273.555 348.982L277.395 346.559C277.936 346.218 278.65 346.38 278.991 346.92ZM271.31 351.767C271.651 352.307 271.489 353.022 270.949 353.363L267.108 355.786C266.568 356.127 265.853 355.965 265.512 355.425C265.171 354.885 265.333 354.17 265.873 353.829L269.714 351.406C270.254 351.065 270.969 351.226 271.31 351.767ZM263.628 356.614C263.969 357.154 263.808 357.869 263.267 358.209L259.427 360.633C258.886 360.974 258.172 360.812 257.831 360.272C257.49 359.731 257.651 359.017 258.192 358.676L262.033 356.253C262.573 355.912 263.287 356.073 263.628 356.614ZM255.947 361.46C256.288 362.001 256.126 362.715 255.586 363.056L251.745 365.48C251.205 365.821 250.49 365.659 250.149 365.119C249.808 364.578 249.97 363.864 250.51 363.523L254.351 361.099C254.891 360.758 255.606 360.92 255.947 361.46ZM248.265 366.307C248.606 366.848 248.445 367.562 247.904 367.903L244.064 370.326C243.523 370.667 242.809 370.506 242.468 369.965C242.127 369.425 242.288 368.711 242.829 368.37L246.67 365.946C247.21 365.605 247.924 365.767 248.265 366.307ZM240.584 371.154C240.925 371.694 240.763 372.409 240.223 372.75L236.382 375.173C235.842 375.514 235.127 375.353 234.786 374.812C234.445 374.272 234.607 373.557 235.147 373.216L238.988 370.793C239.528 370.452 240.243 370.614 240.584 371.154ZM232.902 376.001C233.243 376.541 233.082 377.256 232.541 377.597L228.701 380.02C228.16 380.361 227.446 380.199 227.105 379.659C226.764 379.119 226.926 378.404 227.466 378.063L231.307 375.64C231.847 375.299 232.562 375.46 232.902 376.001ZM225.221 380.848C225.562 381.388 225.4 382.103 224.86 382.443L221.019 384.867C220.479 385.208 219.764 385.046 219.423 384.506C219.082 383.965 219.244 383.251 219.784 382.91L223.625 380.487C224.166 380.146 224.88 380.307 225.221 380.848ZM217.54 385.694C217.88 386.235 217.719 386.949 217.178 387.29L213.338 389.714C212.797 390.055 212.083 389.893 211.742 389.353C211.401 388.812 211.563 388.098 212.103 387.757L215.944 385.333C216.484 384.992 217.199 385.154 217.54 385.694ZM209.858 390.541C210.199 391.082 210.037 391.796 209.497 392.137L205.656 394.56C205.116 394.901 204.401 394.74 204.06 394.199C203.719 393.659 203.881 392.945 204.421 392.604L208.262 390.18C208.803 389.839 209.517 390.001 209.858 390.541ZM202.177 395.388C202.518 395.928 202.356 396.643 201.815 396.984L197.975 399.407C197.434 399.748 196.72 399.587 196.379 399.046C196.038 398.506 196.2 397.791 196.74 397.45L200.581 395.027C201.121 394.686 201.836 394.848 202.177 395.388ZM194.495 400.235C194.836 400.775 194.674 401.49 194.134 401.831L192.214 403.042C191.673 403.383 190.959 403.222 190.618 402.681C190.277 402.141 190.438 401.426 190.979 401.085L192.899 399.874C193.44 399.533 194.154 399.694 194.495 400.235Z" fill="#E3262F"/>
</g>
<defs>
<filter id="filter0_b_11425_44849" x="31.7162" y="27.4074" width="747.125" height="503.743" filterUnits="userSpaceOnUse" color-interpolation-filters="sRGB">
<feFlood flood-opacity="0" result="BackgroundImageFix"/>
<feGaussianBlur in="BackgroundImageFix" stdDeviation="42.8187"/>
<feComposite in2="SourceAlpha" operator="in" result="effect1_backgroundBlur_11425_44849"/>
<feBlend mode="normal" in="SourceGraphic" in2="effect1_backgroundBlur_11425_44849" result="shape"/>
</filter>
<filter id="filter1_b_11425_44849" x="31.7162" y="27.4074" width="747.125" height="503.743" filterUnits="userSpaceOnUse" color-interpolation-filters="sRGB">
<feFlood flood-opacity="0" result="BackgroundImageFix"/>
<feGaussianBlur in="BackgroundImageFix" stdDeviation="42.8187"/>
<feComposite in2="SourceAlpha" operator="in" result="effect1_backgroundBlur_11425_44849"/>
<feBlend mode="normal" in="SourceGraphic" in2="effect1_backgroundBlur_11425_44849" result="shape"/>
</filter>
<filter id="filter2_b_11425_44849" x="130.774" y="94.1571" width="543.791" height="365.024" filterUnits="userSpaceOnUse" color-interpolation-filters="sRGB">
<feFlood flood-opacity="0" result="BackgroundImageFix"/>
<feGaussianBlur in="BackgroundImageFix" stdDeviation="30.2061"/>
<feComposite in2="SourceAlpha" operator="in" result="effect1_backgroundBlur_11425_44849"/>
<feBlend mode="normal" in="SourceGraphic" in2="effect1_backgroundBlur_11425_44849" result="shape"/>
</filter>
<filter id="filter3_b_11425_44849" x="130.795" y="94.1688" width="543.75" height="365.001" filterUnits="userSpaceOnUse" color-interpolation-filters="sRGB">
<feFlood flood-opacity="0" result="BackgroundImageFix"/>
<feGaussianBlur in="BackgroundImageFix" stdDeviation="30.2061"/>
<feComposite in2="SourceAlpha" operator="in" result="effect1_backgroundBlur_11425_44849"/>
<feBlend mode="normal" in="SourceGraphic" in2="effect1_backgroundBlur_11425_44849" result="shape"/>
</filter>
<filter id="filter4_f_11425_44849" x="76.7746" y="-13.7136" width="673.194" height="584.39" filterUnits="userSpaceOnUse" color-interpolation-filters="sRGB">
<feFlood flood-opacity="0" result="BackgroundImageFix"/>
<feBlend mode="normal" in="SourceGraphic" in2="BackgroundImageFix" result="shape"/>
<feGaussianBlur stdDeviation="84.8011" result="effect1_foregroundBlur_11425_44849"/>
</filter>
<filter id="filter5_f_11425_44849" x="187.227" y="103.615" width="568.808" height="508.234" filterUnits="userSpaceOnUse" color-interpolation-filters="sRGB">
<feFlood flood-opacity="0" result="BackgroundImageFix"/>
<feBlend mode="normal" in="SourceGraphic" in2="BackgroundImageFix" result="shape"/>
<feGaussianBlur stdDeviation="80" result="effect1_foregroundBlur_11425_44849"/>
</filter>
<filter id="filter6_d_11425_44849" x="243.27" y="183.545" width="318.786" height="191.778" filterUnits="userSpaceOnUse" color-interpolation-filters="sRGB">
<feFlood flood-opacity="0" result="BackgroundImageFix"/>
<feColorMatrix in="SourceAlpha" type="matrix" values="0 0 0 0 0 0 0 0 0 0 0 0 0 0 0 0 0 0 127 0" result="hardAlpha"/>
<feOffset dy="9.14008"/>
<feGaussianBlur stdDeviation="4.57004"/>
<feComposite in2="hardAlpha" operator="out"/>
<feColorMatrix type="matrix" values="0 0 0 0 0.432266 0 0 0 0 0.00354165 0 0 0 0 0.846458 0 0 0 1 0"/>
<feBlend mode="screen" in2="BackgroundImageFix" result="effect1_dropShadow_11425_44849"/>
<feBlend mode="normal" in="SourceGraphic" in2="effect1_dropShadow_11425_44849" result="shape"/>
</filter>
<filter id="filter7_f_11425_44849" x="298.21" y="48.7338" width="197.283" height="150.193" filterUnits="userSpaceOnUse" color-interpolation-filters="sRGB">
<feFlood flood-opacity="0" result="BackgroundImageFix"/>
<feBlend mode="normal" in="SourceGraphic" in2="BackgroundImageFix" result="shape"/>
<feGaussianBlur stdDeviation="22.1787" result="effect1_foregroundBlur_11425_44849"/>
</filter>
<filter id="filter8_d_11425_44849" x="173.45" y="76.2049" width="457.913" height="399.356" filterUnits="userSpaceOnUse" color-interpolation-filters="sRGB">
<feFlood flood-opacity="0" result="BackgroundImageFix"/>
<feColorMatrix in="SourceAlpha" type="matrix" values="0 0 0 0 0 0 0 0 0 0 0 0 0 0 0 0 0 0 127 0" result="hardAlpha"/>
<feOffset dy="11.0095"/>
<feGaussianBlur stdDeviation="66.1857"/>
<feComposite in2="hardAlpha" operator="out"/>
<feColorMatrix type="matrix" values="0 0 0 0 0.506336 0 0 0 0 0.118457 0 0 0 0 1 0 0 0 1 0"/>
<feBlend mode="soft-light" in2="BackgroundImageFix" result="effect1_dropShadow_11425_44849"/>
<feBlend mode="normal" in="SourceGraphic" in2="effect1_dropShadow_11425_44849" result="shape"/>
</filter>
<filter id="filter9_f_11425_44849" x="107.108" y="11.6269" width="388.639" height="388.639" filterUnits="userSpaceOnUse" color-interpolation-filters="sRGB">
<feFlood flood-opacity="0" result="BackgroundImageFix"/>
<feBlend mode="normal" in="SourceGraphic" in2="BackgroundImageFix" result="shape"/>
<feGaussianBlur stdDeviation="64.5313" result="effect1_foregroundBlur_11425_44849"/>
</filter>
<filter id="filter10_d_11425_44849" x="393.738" y="381.81" width="181.148" height="106.96" filterUnits="userSpaceOnUse" color-interpolation-filters="sRGB">
<feFlood flood-opacity="0" result="BackgroundImageFix"/>
<feColorMatrix in="SourceAlpha" type="matrix" values="0 0 0 0 0 0 0 0 0 0 0 0 0 0 0 0 0 0 127 0" result="hardAlpha"/>
<feOffset dy="2.80874"/>
<feGaussianBlur stdDeviation="1.40437"/>
<feComposite in2="hardAlpha" operator="out"/>
<feColorMatrix type="matrix" values="0 0 0 0 0.432266 0 0 0 0 0.00354165 0 0 0 0 0.846458 0 0 0 1 0"/>
<feBlend mode="screen" in2="BackgroundImageFix" result="effect1_dropShadow_11425_44849"/>
<feBlend mode="normal" in="SourceGraphic" in2="effect1_dropShadow_11425_44849" result="shape"/>
</filter>
<filter id="filter11_f_11425_44849" x="221.712" y="154.69" width="389.093" height="389.093" filterUnits="userSpaceOnUse" color-interpolation-filters="sRGB">
<feFlood flood-opacity="0" result="BackgroundImageFix"/>
<feBlend mode="normal" in="SourceGraphic" in2="BackgroundImageFix" result="shape"/>
<feGaussianBlur stdDeviation="64.5313" result="effect1_foregroundBlur_11425_44849"/>
</filter>
<filter id="filter12_d_11425_44849" x="398.765" y="316.74" width="166.393" height="104.521" filterUnits="userSpaceOnUse" color-interpolation-filters="sRGB">
<feFlood flood-opacity="0" result="BackgroundImageFix"/>
<feColorMatrix in="SourceAlpha" type="matrix" values="0 0 0 0 0 0 0 0 0 0 0 0 0 0 0 0 0 0 127 0" result="hardAlpha"/>
<feOffset dy="-4"/>
<feGaussianBlur stdDeviation="5"/>
<feComposite in2="hardAlpha" operator="out"/>
<feColorMatrix type="matrix" values="0 0 0 0 0.86125 0 0 0 0 0.87883 0 0 0 0 0.975 0 0 0 0.5 0"/>
<feBlend mode="normal" in2="BackgroundImageFix" result="effect1_dropShadow_11425_44849"/>
<feBlend mode="normal" in="SourceGraphic" in2="effect1_dropShadow_11425_44849" result="shape"/>
</filter>
<linearGradient id="paint0_linear_11425_44849" x1="214.674" y1="239.484" x2="575.948" y2="490.788" gradientUnits="userSpaceOnUse">
<stop offset="0.015625" stop-color="#B010FB"/>
<stop offset="0.130208" stop-color="#DE97FF"/>
<stop offset="0.234375" stop-color="#A227DB"/>
<stop offset="0.505208" stop-color="#A227DB" stop-opacity="0"/>
<stop offset="0.765625" stop-color="#A610EC" stop-opacity="0.84"/>
</linearGradient>
<linearGradient id="paint1_linear_11425_44849" x1="162.892" y1="0" x2="162.892" y2="233.599" gradientUnits="userSpaceOnUse">
<stop stop-color="#6218FF" stop-opacity="0"/>
<stop offset="1" stop-color="#6117FF"/>
</linearGradient>
<linearGradient id="paint2_linear_11425_44849" x1="124.404" y1="59.8551" x2="129.935" y2="128.138" gradientUnits="userSpaceOnUse">
<stop stop-color="#FF1818" stop-opacity="0"/>
<stop offset="1" stop-color="#F30E0E"/>
</linearGradient>
<linearGradient id="paint3_linear_11425_44849" x1="307.374" y1="156.335" x2="421.596" y2="352.991" gradientUnits="userSpaceOnUse">
<stop offset="0.015625" stop-color="#B010FB"/>
<stop offset="0.130208" stop-color="#DE97FF"/>
<stop offset="0.234375" stop-color="#A227DB"/>
<stop offset="0.505208" stop-color="#A227DB" stop-opacity="0"/>
<stop offset="0.765625" stop-color="#A610EC" stop-opacity="0.84"/>
</linearGradient>
<linearGradient id="paint4_linear_11425_44849" x1="307.374" y1="156.335" x2="421.596" y2="352.991" gradientUnits="userSpaceOnUse">
<stop offset="0.015625" stop-color="#B010FB"/>
<stop offset="0.130208" stop-color="#DE97FF"/>
<stop offset="0.234375" stop-color="#A227DB"/>
<stop offset="0.505208" stop-color="#A227DB" stop-opacity="0"/>
<stop offset="0.765625" stop-color="#A610EC" stop-opacity="0.84"/>
</linearGradient>
<linearGradient id="paint5_linear_11425_44849" x1="416.496" y1="368.541" x2="545.479" y2="407.591" gradientUnits="userSpaceOnUse">
<stop stop-color="#FFCACA"/>
<stop offset="0.453161" stop-color="#FD4949"/>
<stop offset="0.645" stop-color="#E06363"/>
</linearGradient>
<clipPath id="clip0_11425_44849">
<rect width="806" height="601" fill="white" transform="translate(0 0.431641)"/>
</clipPath>
</defs>
</svg>
