<svg width="167" height="27" viewBox="0 0 167 27" fill="none" xmlns="http://www.w3.org/2000/svg">
<g clip-path="url(#clip0_71_34)">
<path d="M26.8615 20.6184C28.1168 20.6184 29.1348 19.5789 29.1348 18.2988C29.1348 17.0158 28.1168 15.9773 26.8615 15.9775C25.605 15.9775 24.5871 17.0158 24.5871 18.2988C24.5871 19.5789 25.6048 20.6184 26.8615 20.6184Z" fill="currentColor"/>
<path d="M8.2677 9.48779H25.7541V11.8079H8.2677V9.48779Z" fill="currentColor"/>
<path fill-rule="evenodd" clip-rule="evenodd" d="M26.8615 26.5H2.27589C0.998826 26.5 0 25.481 0 24.1799V8.70239C0 3.87283 2.91152 0.5 7.07973 0.5H31.6661C32.9632 0.5 33.9397 1.49649 33.9397 2.81991V18.2988C33.9397 23.1269 31.0278 26.5 26.8615 26.5ZM7.07973 2.45141C3.9423 2.45141 1.91452 4.90412 1.91452 8.70239V24.1799C1.91452 24.3927 2.06555 24.5482 2.27589 24.5482H26.8615C29.9979 24.5482 32.0267 22.095 32.0267 18.299V2.81991C32.0267 2.57966 31.9014 2.45125 31.6661 2.45125L7.07973 2.45141Z" fill="currentColor"/>
<path fill-rule="evenodd" clip-rule="evenodd" d="M52.5896 2.71848C52.5267 2.5431 52.3621 2.42383 52.1769 2.42383H51.3776C51.1922 2.42383 51.028 2.5431 50.9661 2.71848L44.2329 23.9416C44.1856 24.0769 44.2045 24.2302 44.2882 24.347C44.3695 24.4666 44.5023 24.5358 44.647 24.5358H45.5591C45.7449 24.5358 45.9092 24.4167 45.9723 24.2378L48.1729 17.3817H55.3786L57.5241 24.248C57.5856 24.4277 57.7511 24.5472 57.9378 24.5472H58.9139C59.1554 24.5472 59.3517 24.347 59.3517 24.103C59.3517 24.0237 59.3328 23.9516 59.2972 23.8884L52.5896 2.71848ZM51.7775 5.84548C52.3186 7.6222 53.4416 11.2911 53.4416 11.2911L54.8378 15.6812H48.7252L50.454 10.1479L51.7775 5.84548Z" fill="currentColor"/>
<path d="M71.8515 21.3479C71.775 21.2513 71.6627 21.1933 71.5405 21.1854C71.4212 21.1774 71.3003 21.2208 71.2126 21.3047C70.4683 22.0164 69.2525 22.863 67.6903 22.863C64.8466 22.863 62.9366 20.4583 62.9366 16.8792C62.9366 13.3775 64.9362 10.8355 67.6903 10.8355C68.7868 10.8355 69.7796 11.2948 70.8125 12.2799C70.8989 12.3616 71.0158 12.402 71.13 12.3993C71.2473 12.3958 71.3586 12.3422 71.4378 12.2545L72.0097 11.6181C72.169 11.4374 72.1581 11.1593 71.9831 10.9936C71.0748 10.1287 69.7652 9.13574 67.6905 9.13574C65.9198 9.13574 64.2871 9.86672 63.0962 11.1933C61.8217 12.6103 61.148 14.5759 61.148 16.8795C61.148 21.4757 63.7768 24.565 67.6905 24.565C69.3341 24.565 70.8906 23.903 72.3193 22.5979C72.4933 22.4386 72.5122 22.1679 72.3658 21.9844L71.8515 21.3479Z" fill="currentColor"/>
<path d="M84.7612 21.1854C84.8836 21.1933 84.9962 21.2513 85.0725 21.3479L85.5864 21.9844C85.7352 22.1679 85.7141 22.4386 85.5403 22.5979C84.1113 23.903 82.5539 24.565 80.9126 24.565C76.9991 24.565 74.3685 21.4757 74.3685 16.8795C74.3685 14.5759 75.0435 12.6103 76.3167 11.1933C77.5099 9.86672 79.1399 9.13574 80.9126 9.13574C82.9869 9.13574 84.2957 10.1287 85.2055 10.9936C85.3793 11.1593 85.3907 11.4374 85.2297 11.6181L84.6584 12.2545C84.5798 12.3422 84.4695 12.3958 84.3524 12.3993C84.2368 12.402 84.1211 12.3616 84.035 12.2799C83.0005 11.2948 82.0083 10.8355 80.9126 10.8355C78.1583 10.8355 76.1596 13.3775 76.1596 16.8792C76.1596 20.4583 78.0676 22.863 80.9126 22.863C82.4746 22.863 83.6897 22.0164 84.4332 21.3047C84.5224 21.2208 84.6418 21.1774 84.7612 21.1854Z" fill="currentColor"/>
<path d="M95.8867 9.47229C95.3026 9.17597 94.7963 9.13574 94.3792 9.13574C93.0485 9.13574 91.8357 9.846 90.8238 11.2043L90.7672 9.90787C90.7558 9.6705 90.5631 9.48307 90.3289 9.48307H89.5876C89.345 9.48307 89.1493 9.68144 89.1493 9.92744V24.1111C89.1493 24.3553 89.345 24.5556 89.5876 24.5556H90.4437C90.6848 24.5556 90.882 24.3553 90.882 24.1111V14.2436C91.7472 12.1137 92.9767 10.8936 94.2643 10.8936C94.7109 10.8936 94.8893 10.9371 95.3086 11.0981C95.4227 11.1416 95.5497 11.1334 95.66 11.079C95.7688 11.0227 95.8505 10.9226 95.8845 10.8036L96.1119 9.99183C96.1701 9.7859 96.0749 9.56688 95.8867 9.47229Z" fill="currentColor"/>
<path fill-rule="evenodd" clip-rule="evenodd" d="M103.977 9.13525C100.915 9.13525 97.6617 11.8491 97.6617 16.8789C97.6617 21.4028 100.399 24.5645 104.318 24.5645C106.512 24.5645 107.76 23.7914 108.762 23.1708L108.768 23.1672C108.967 23.043 109.035 22.7836 108.926 22.5761L108.526 21.8223C108.466 21.7099 108.361 21.6294 108.238 21.6003C108.116 21.5718 107.986 21.599 107.885 21.6735C106.778 22.4861 105.663 22.8626 104.376 22.8626C101.554 22.8626 99.6189 20.6559 99.4625 17.3236H109.053C109.268 17.3236 109.45 17.1665 109.486 16.9511C109.548 16.5678 109.548 16.2544 109.548 15.9512C109.548 11.6836 107.464 9.13525 103.977 9.13525ZM103.977 10.8353C106.342 10.8353 107.692 12.5309 107.809 15.6231H99.5025C99.897 12.7801 101.689 10.8353 103.977 10.8353Z" fill="currentColor"/>
<path fill-rule="evenodd" clip-rule="evenodd" d="M123.427 2.41553H124.282C124.522 2.41553 124.719 2.61523 124.719 2.86208V24.1204C124.719 24.3653 124.522 24.5648 124.282 24.5648H123.541C123.309 24.5648 123.118 24.3813 123.104 24.1478L123.043 22.8277C121.704 23.9821 120.28 24.5648 118.805 24.5648C114.995 24.5648 112.719 21.6911 112.719 16.8792C112.719 12.3923 115.47 9.13554 119.262 9.13554C120.741 9.13554 121.832 9.60423 123.025 10.4317L122.989 8.72176V2.86225C122.989 2.61523 123.185 2.41553 123.427 2.41553ZM122.989 12.5032C121.639 11.3212 120.534 10.8354 119.204 10.8354C116.571 10.8354 114.509 13.4903 114.509 16.879C114.509 20.6265 116.137 22.8627 118.862 22.8627C120.198 22.8627 121.476 22.1915 122.989 20.6898V12.5032Z" fill="currentColor"/>
<path d="M128.183 5.40864C128.183 4.58112 128.775 3.98047 129.591 3.98047C130.407 3.98047 131 4.58094 131 5.40864C131 6.21168 130.382 6.83968 129.591 6.83968C128.803 6.83968 128.183 6.21168 128.183 5.40864Z" fill="currentColor"/>
<path d="M130.019 9.48291H129.163C128.921 9.48291 128.726 9.68128 128.726 9.92728V24.1205C128.726 24.3654 128.921 24.5648 129.163 24.5648H130.019C130.261 24.5648 130.457 24.3654 130.457 24.1205V9.92728C130.457 9.68128 130.261 9.48291 130.019 9.48291Z" fill="currentColor"/>
<path fill-rule="evenodd" clip-rule="evenodd" d="M140.55 9.13547C139.193 9.13547 137.719 9.72988 136.158 10.9049L136.196 9.05984V2.86225C136.196 2.61523 135.998 2.41553 135.757 2.41553H134.901C134.659 2.41553 134.462 2.61523 134.462 2.86225V23.7729C134.462 24.0173 134.659 24.2172 134.901 24.2172H135.643C135.871 24.2172 136.059 24.0401 136.08 23.8099L136.132 23.1677C137.431 24.0608 138.803 24.5649 139.977 24.5649C144.235 24.5649 146.463 20.5817 146.463 16.6473C146.464 11.872 144.307 9.13547 140.55 9.13547ZM140.036 22.8629C139.596 22.8629 138.052 22.7405 136.196 21.1894V13.0237C137.819 11.5717 139.264 10.8356 140.491 10.8356C143.949 10.8356 144.674 13.9959 144.674 16.647C144.674 20.3081 142.768 22.8629 140.036 22.8629Z" fill="currentColor"/>
<path d="M152.732 23.151C152.678 22.9161 152.451 22.7665 152.218 22.8137C151.977 22.8629 151.889 22.8629 151.791 22.8629C151.686 22.8629 151.658 22.5879 151.658 22.4413V2.86225C151.658 2.61523 151.461 2.41553 151.22 2.41553H150.364C150.123 2.41553 149.927 2.61523 149.927 2.86225V22.2661C149.927 24.1655 150.908 24.5647 151.734 24.5647C152.089 24.5647 152.299 24.51 152.5 24.4551L152.582 24.4362C152.813 24.3761 152.956 24.1415 152.902 23.9048L152.732 23.151Z" fill="currentColor"/>
<path fill-rule="evenodd" clip-rule="evenodd" d="M161.428 9.13525C158.368 9.13525 155.116 11.8491 155.116 16.8789C155.116 21.4028 157.853 24.5645 161.771 24.5645C163.964 24.5645 165.214 23.7909 166.218 23.17L166.221 23.1672C166.42 23.043 166.489 22.7836 166.379 22.5761L165.979 21.8223C165.919 21.7099 165.813 21.6294 165.691 21.6003C165.567 21.5718 165.439 21.599 165.338 21.6735C164.229 22.4861 163.114 22.8626 161.828 22.8626C159.006 22.8626 157.071 20.6559 156.913 17.3236H166.506C166.719 17.3236 166.904 17.1665 166.938 16.9511C167 16.5678 167 16.2544 167 15.9512C167 11.6836 164.919 9.13525 161.428 9.13525ZM156.956 15.6231C157.352 12.7801 159.141 10.8353 161.428 10.8353C163.793 10.8353 165.146 12.5309 165.262 15.6231H156.956Z" fill="currentColor"/>
</g>
<defs>
<clipPath id="clip0_71_34">
<rect width="167" height="26" fill="white" transform="translate(0 0.5)"/>
</clipPath>
</defs>
</svg>
