<svg width="130" height="29" viewBox="0 0 130 29" fill="none" xmlns="http://www.w3.org/2000/svg">
<g clip-path="url(#clip0_71_49)">
<path d="M9.07875 5.33105H8.74925L0 23.6596H2.13241L8.8225 9.32054L15.7231 23.6596H17.709L9.07875 5.33105Z" fill="currentColor"/>
<path d="M32.2515 6.9502C35.1069 6.9502 37.6053 8.47084 38.9416 10.7251L40.4791 9.85737C38.8409 7.08437 35.7658 5.21484 32.2515 5.21484C27.0074 5.21484 22.7517 9.37431 22.7517 14.4999C22.7517 19.6254 27.0074 23.7848 32.2515 23.7848C35.7658 23.7848 38.8317 21.9153 40.4791 19.1423L38.9416 18.2747C37.6053 20.5289 35.1069 22.0496 32.2515 22.0496C27.9867 22.0496 24.5272 18.6682 24.5272 14.4999C24.5272 10.3315 27.9867 6.9502 32.2515 6.9502Z" fill="currentColor"/>
<path d="M76.3822 5.42969H74.3871V23.5704H76.3822V5.42969Z" fill="currentColor"/>
<path d="M95.7291 5.21484C90.485 5.21484 86.23 9.37431 86.23 14.4999C86.23 19.6254 90.485 23.7848 95.7291 23.7848C100.973 23.7848 105.229 19.6254 105.229 14.4999C105.22 9.37431 100.973 5.21484 95.7291 5.21484ZM95.7291 22.0496C91.465 22.0496 88.005 18.6682 88.005 14.4999C88.005 10.3315 91.465 6.9502 95.7291 6.9502C99.9941 6.9502 103.453 10.3315 103.453 14.4999C103.453 18.6682 99.9941 22.0496 95.7291 22.0496Z" fill="currentColor"/>
<path d="M129.344 5.42969L121.528 13.8918L113.713 5.42969H113.228V23.5703H115.086V11.3245C115.086 11.1904 115.077 11.0472 115.077 10.9041V9.76805L116.193 10.9399C116.203 10.9488 116.203 10.9488 116.212 10.9578L117.493 12.2995L117.703 12.5231L121.538 16.5395L126.864 10.9578C127.386 10.3406 128.146 9.27612 128.146 9.27612C128.146 9.27612 127.981 10.5553 127.981 11.3335V23.5793H129.838V5.42969H129.344Z" fill="currentColor"/>
<path d="M66.553 23.7851L61.5926 16.146L59.1948 19.8314L58.1606 21.4326L59.689 23.7851H66.553Z" fill="currentColor"/>
<path d="M59.689 5.21484L58.1606 7.56741L59.1948 9.15963L60.3113 10.886L61.5926 12.854L66.553 5.21484H59.689Z" fill="currentColor"/>
<path d="M50.6377 0H41.9891L51.4065 14.5L41.9891 29H50.6377L60.0459 14.5L50.6377 0Z" fill="currentColor"/>
</g>
<defs>
<clipPath id="clip0_71_49">
<rect width="130" height="29" fill="white"/>
</clipPath>
</defs>
</svg>
