<svg width="160" height="58" viewBox="0 0 160 58" fill="none" xmlns="http://www.w3.org/2000/svg">
<g clip-path="url(#clip0_17042_11446)">
<path d="M42.3084 40.3928C41.7159 41.7554 41.0146 43.0096 40.202 44.1627C39.0945 45.7347 38.1876 46.8228 37.4887 47.4271C36.4053 48.4189 35.2445 48.9268 34.0015 48.9557C33.1092 48.9557 32.0331 48.703 30.7804 48.1902C29.5236 47.6798 28.3686 47.4271 27.3125 47.4271C26.205 47.4271 25.0171 47.6798 23.7465 48.1902C22.474 48.703 21.4489 48.9702 20.6651 48.9967C19.4732 49.0472 18.2851 48.5248 17.0991 47.4271C16.3422 46.7699 15.3955 45.6432 14.2613 44.0472C13.0444 42.3428 12.0439 40.3664 11.2602 38.1131C10.4208 35.6793 10 33.3225 10 31.0408C10 28.4272 10.5673 26.173 11.7037 24.2839C12.5968 22.7666 13.7849 21.5697 15.2719 20.691C16.7589 19.8123 18.3656 19.3645 20.0959 19.3359C21.0426 19.3359 22.2842 19.6274 23.8271 20.2004C25.3656 20.7752 26.3535 21.0668 26.7866 21.0668C27.1104 21.0668 28.2078 20.7259 30.0682 20.0463C31.8275 19.4161 33.3123 19.1551 34.5287 19.2579C37.8249 19.5227 40.3012 20.8162 41.948 23.1465C39.0002 24.9245 37.5419 27.4149 37.5709 30.6097C37.5975 33.0981 38.5044 35.1689 40.2867 36.8131C41.0944 37.5763 41.9964 38.1661 43 38.5849C42.7824 39.2132 42.5526 39.8151 42.3084 40.3928ZM34.7488 10.7802C34.7488 12.7307 34.033 14.5518 32.6062 16.2374C30.8844 18.2413 28.8017 19.3992 26.5433 19.2165C26.5145 18.9825 26.4978 18.7362 26.4978 18.4774C26.4978 16.605 27.3167 14.6011 28.7708 12.9627C29.4967 12.1331 30.4201 11.4434 31.5397 10.8931C32.657 10.3511 33.7138 10.0513 34.7077 10C34.7367 10.2607 34.7488 10.5215 34.7488 10.7802Z" fill="black"/>
</g>
<defs>
<clipPath id="clip0_17042_11446">
<rect width="33" height="39" fill="white" transform="translate(10 10)"/>
</clipPath>
</defs>
</svg>
