<svg width="63" height="45" viewBox="0 0 63 45" fill="none" xmlns="http://www.w3.org/2000/svg">
<g clip-path="url(#clip0_71_77)">
<path d="M41.302 21.0001L37.4635 11.0202L32.4567 22.0384C30.7651 25.5055 25.2311 26.5131 21.3585 27.0686L22.0602 25.5936L33.2647 3.88672H41.9999L48.2583 17.0503L51.0006 23.295L56.6521 35.8226L52.7568 35.8149L49.7186 35.7958C48.4403 35.8149 47.1925 35.7192 46.6614 34.3361L45.5842 31.662L43.7788 27.1337L41.302 21.0001Z" fill="currentColor"/>
<path d="M43.8243 27.1797C37.8731 30.279 31.8233 33.3439 24.8974 34.9529C18.4455 36.4509 11.345 36.6463 6.3914 33.7423C1.93086 31.1372 0.474361 26.0303 0.557806 22.2797C0.614701 19.824 1.79811 16.3875 4.1232 13.5257C8.45099 8.19284 16.6135 3.57638 23.1147 3.36567C25.4322 3.28905 26.9038 4.06676 27.7838 9.84787C25.3761 9.81263 22.9828 10.2283 20.7251 11.0738C17.8189 12.1904 15.0677 13.6815 12.5398 15.5102C7.9579 18.7704 5.34454 22.0307 5.07144 25.1224C4.83249 27.8386 7.33206 29.4477 11.4778 29.7963C21.294 30.643 32.6388 25.9116 41.3475 21.0423L48.3 17.0924L62.5161 9.29236L62.4706 16.6059L51.0461 23.3371L43.8243 27.1797Z" fill="currentColor"/>
<path d="M0.516113 39.4121H58.1959V44.4998H0.516113V39.4121Z" fill="currentColor"/>
<path d="M60.1303 1.76426L51.9261 6.18916C51.9261 6.18916 49.1041 7.75224 47.2987 8.14301L48.5731 11.1274C48.9524 12.3764 50.3444 12.7939 51.4292 12.2346L62.4478 6.15851V0.5L60.1303 1.76426Z" fill="currentColor"/>
<path d="M21.0854 5.83278C23.2664 5.94771 26.9418 4.39612 27.7838 10.024C26.7635 9.706 24.776 9.97801 23.6419 10.2155" fill="currentColor"/>
</g>
<defs>
<clipPath id="clip0_71_77">
<rect width="62" height="44" fill="white" transform="translate(0.516113 0.5)"/>
</clipPath>
</defs>
</svg>
