<svg width="136" height="29" viewBox="0 0 136 29" fill="none" xmlns="http://www.w3.org/2000/svg">
<path d="M33.5994 20.471C32.6942 20.4698 31.8012 20.2616 30.9888 19.8623C30.1764 19.463 29.4661 18.8833 28.9121 18.1673C28.3581 17.4514 27.9751 16.6183 27.7925 15.7317C27.6099 14.8451 27.6324 13.9285 27.8583 13.0519C28.0843 12.1753 28.5076 11.362 29.0961 10.6742C29.6846 9.98638 30.4225 9.4422 31.2536 9.08329C32.0846 8.72438 32.9867 8.56025 33.8909 8.60344C34.7951 8.64663 35.6774 8.89601 36.4705 9.33249C37.3236 9.80058 38.034 10.4911 38.5261 11.3307L38.5711 11.4084L36.8026 12.4344L36.7587 12.3529C36.4646 11.808 36.0211 11.3583 35.4803 11.0566C34.9063 10.7343 34.2576 10.5689 33.5994 10.5769C33.0715 10.5563 32.545 10.6448 32.0529 10.837C31.5608 11.0291 31.1137 11.3208 30.7394 11.6936C30.0354 12.4709 29.6455 13.4821 29.6455 14.5307C29.6455 15.5794 30.0354 16.5906 30.7394 17.3679C31.1137 17.7407 31.5608 18.0324 32.0529 18.2245C32.545 18.4167 33.0715 18.5052 33.5994 18.4846C34.2601 18.4921 34.9113 18.3267 35.4883 18.0049C36.0296 17.7086 36.4712 17.2589 36.7575 16.7123L36.8007 16.6296L38.5705 17.6382L38.5261 17.716C38.0428 18.5583 37.3383 19.2523 36.489 19.7229C35.6079 20.2188 34.6123 20.4754 33.6012 20.4673" fill="currentColor"/>
<path d="M41.2036 8.77539H39.2844V20.2615H41.2036V8.77539Z" fill="currentColor"/>
<path d="M53.6846 20.2615L50.4746 12.0273H52.5648L54.758 17.996L56.9347 12.0273H59.0292L55.8192 20.2615H53.6846Z" fill="currentColor"/>
<path d="M68.1367 20.2614V12.0278H70.0559V13.1013C70.3044 12.6977 70.6593 12.3705 71.0816 12.1555C71.5039 11.9406 71.9773 11.8462 72.4498 11.8827H72.5393V13.9525L72.4442 13.9464C72.3751 13.9418 72.307 13.9396 72.2399 13.9396C71.7102 13.931 71.192 14.0941 70.7627 14.4044C70.5152 14.6103 70.3217 14.8735 70.199 15.1712C70.0762 15.4688 70.028 15.7919 70.0584 16.1125V20.2614H68.1367Z" fill="currentColor"/>
<path d="M79.6106 20.471C78.7054 20.4698 77.8124 20.2616 77 19.8623C76.1876 19.463 75.4773 18.8833 74.9233 18.1673C74.3693 17.4514 73.9864 16.6183 73.8037 15.7317C73.6211 14.8451 73.6436 13.9285 73.8695 13.0519C74.0955 12.1753 74.5189 11.362 75.1074 10.6742C75.6958 9.98638 76.4338 9.4422 77.2648 9.08329C78.0958 8.72438 78.9979 8.56025 79.9021 8.60344C80.8063 8.64663 81.6887 8.89601 82.4817 9.33249C83.3349 9.80053 84.0453 10.491 84.5373 11.3307L84.5824 11.4084L82.8138 12.4344L82.77 12.3529C82.4758 11.808 82.0323 11.3583 81.4915 11.0566C80.9176 10.7343 80.2688 10.5689 79.6106 10.5769C79.0827 10.5563 78.5563 10.6449 78.0642 10.837C77.5721 11.0292 77.1249 11.3208 76.7507 11.6936C76.0466 12.4709 75.6567 13.4821 75.6567 14.5307C75.6567 15.5794 76.0466 16.5906 76.7507 17.3679C77.1249 17.7407 77.5721 18.0324 78.0642 18.2245C78.5563 18.4167 79.0827 18.5052 79.6106 18.4846C80.2715 18.4922 80.9229 18.3268 81.5002 18.0049C82.0416 17.7086 82.4833 17.2589 82.77 16.7123L82.8126 16.6296L84.5824 17.6382L84.5379 17.716C84.0547 18.5583 83.3502 19.2523 82.5008 19.7229C81.6197 20.2188 80.6241 20.4754 79.6131 20.4673" fill="currentColor"/>
<path d="M89.4131 20.4706C88.8427 20.4803 88.2763 20.3745 87.7478 20.1597C87.2193 19.9449 86.7397 19.6254 86.3377 19.2206C85.5261 18.4025 85.0706 17.2967 85.0706 16.1443C85.0706 14.9918 85.5261 13.8861 86.3377 13.0679C87.1624 12.2664 88.2671 11.8179 89.4171 11.8179C90.5672 11.8179 91.6719 12.2664 92.4965 13.0679C93.1091 13.6738 93.5268 14.4486 93.6962 15.2933C93.8657 16.138 93.779 17.0141 93.4475 17.8092C93.116 18.6044 92.5546 19.2825 91.8353 19.7566C91.116 20.2308 90.2715 20.4794 89.41 20.4706M89.41 13.6883C89.0901 13.6815 88.7723 13.7399 88.4757 13.8601C88.1792 13.9802 87.9102 14.1596 87.6853 14.3871C87.2366 14.8621 86.9866 15.4908 86.9866 16.1443C86.9866 16.7977 87.2366 17.4264 87.6853 17.9014C88.1477 18.3496 88.7664 18.6003 89.4104 18.6003C90.0543 18.6003 90.673 18.3496 91.1354 17.9014C91.5842 17.4264 91.8342 16.7977 91.8342 16.1443C91.8342 15.4908 91.5842 14.8621 91.1354 14.3871C90.9105 14.1595 90.6416 13.9801 90.3451 13.86C90.0485 13.7398 89.7299 13.6814 89.41 13.6883Z" fill="currentColor"/>
<path d="M100.313 20.2617V15.4035C100.329 15.1638 100.297 14.9232 100.218 14.6961C100.14 14.469 100.016 14.2599 99.8559 14.0812C99.6879 13.9243 99.4899 13.8028 99.2738 13.7242C99.0577 13.6456 98.828 13.6115 98.5984 13.6238C98.3371 13.6128 98.0763 13.6555 97.8321 13.7493C97.5879 13.843 97.3655 13.9858 97.1786 14.1689C96.7843 14.6379 96.5909 15.2434 96.6403 15.8541V20.261H94.7212V12.0275H96.6403V12.8664C96.9299 12.5134 97.2992 12.2342 97.7177 12.0518C98.1363 11.8693 98.5921 11.7888 99.0478 11.817C99.4742 11.8006 99.8993 11.8734 100.296 12.0306C100.693 12.1878 101.052 12.426 101.351 12.73C101.963 13.4123 102.279 14.3094 102.231 15.2245V20.2598L100.313 20.2617Z" fill="currentColor"/>
<path d="M108.987 20.2617V15.4035C109.003 15.1638 108.971 14.9232 108.893 14.6961C108.814 14.469 108.691 14.2599 108.53 14.0812C108.362 13.9242 108.164 13.8028 107.948 13.7242C107.732 13.6456 107.502 13.6114 107.272 13.6238C107.011 13.6128 106.75 13.6555 106.506 13.7493C106.262 13.843 106.039 13.9858 105.853 14.1689C105.458 14.6379 105.265 15.2434 105.314 15.8541V20.261H103.395V12.0275H105.314V12.8664C105.604 12.5134 105.973 12.2342 106.392 12.0518C106.81 11.8693 107.266 11.7888 107.722 11.817C108.149 11.8004 108.574 11.8732 108.971 12.0306C109.369 12.1881 109.728 12.4267 110.028 12.7312C110.64 13.4135 110.956 14.3106 110.907 15.2257V20.261L108.987 20.2617Z" fill="currentColor"/>
<path d="M125.154 20.4709C124.582 20.4778 124.014 20.3709 123.483 20.1566C122.952 19.9422 122.469 19.6246 122.062 19.2222C121.654 18.8198 121.331 18.3405 121.11 17.8122C120.89 17.284 120.776 16.7171 120.776 16.1446C120.776 15.572 120.89 15.0052 121.11 14.4769C121.331 13.9486 121.654 13.4694 122.062 13.0669C122.469 12.6645 122.952 12.3469 123.483 12.1326C124.014 11.9182 124.582 11.8114 125.154 11.8182C125.922 11.8106 126.678 12.0095 127.342 12.3942C127.978 12.7554 128.494 13.2946 128.827 13.9454L128.865 14.0208L127.209 14.9819L127.167 14.8936C126.997 14.5294 126.72 14.2254 126.373 14.022C125.998 13.806 125.571 13.6961 125.138 13.7041C124.82 13.6966 124.503 13.7548 124.207 13.8749C123.912 13.995 123.645 14.1745 123.422 14.4022C122.978 14.8734 122.731 15.4963 122.731 16.1437C122.731 16.791 122.978 17.4139 123.422 17.8851C123.645 18.1128 123.912 18.2923 124.207 18.4124C124.503 18.5326 124.82 18.5907 125.138 18.5832C125.572 18.5885 125.999 18.4758 126.373 18.2573C126.726 18.0542 127.013 17.7543 127.201 17.3931L127.243 17.3097L128.898 18.253L128.858 18.3301C128.51 18.9842 127.984 19.5268 127.341 19.8956C126.677 20.2802 125.921 20.4785 125.154 20.4709Z" fill="currentColor"/>
<path d="M133.504 20.3318C132.858 20.3717 132.214 20.2215 131.652 19.8997C131.049 19.4917 130.743 18.738 130.743 17.6589V13.8823H129.261V12.0304H130.743V10.3099L132.662 9.61182V12.0279H134.659V13.8798H132.662V17.6565C132.651 17.7732 132.663 17.891 132.698 18.003C132.733 18.1149 132.789 18.2189 132.864 18.3089C133.036 18.4521 133.253 18.529 133.476 18.5256C133.602 18.5322 133.74 18.5355 133.893 18.5355C134.095 18.5355 134.325 18.5293 134.572 18.517L134.666 18.5126V20.2485L134.587 20.2578C134.229 20.3028 133.869 20.3265 133.509 20.3287" fill="currentColor"/>
<path d="M48.7024 17.7344C48.6304 17.8218 48.5526 17.9043 48.4697 17.9814C47.94 18.4687 47.2416 18.7308 46.5221 18.7122C46.2056 18.7173 45.8917 18.6547 45.6014 18.5287C45.3111 18.4026 45.0511 18.216 44.8387 17.9814C44.7618 17.8976 44.6907 17.8087 44.6257 17.7153L48.8851 16.1646L50.7123 15.4998C50.5995 14.5801 50.1833 13.7243 49.5296 13.0676C49.1358 12.6714 48.6675 12.357 48.1518 12.1424C47.636 11.9278 47.0829 11.8174 46.5242 11.8174C45.9656 11.8174 45.4125 11.9278 44.8967 12.1424C44.3809 12.357 43.9127 12.6714 43.5189 13.0676C42.7253 13.8952 42.2822 14.9974 42.2822 16.144C42.2822 17.2905 42.7253 18.3927 43.5189 19.2203C43.9068 19.6232 44.3733 19.9421 44.8897 20.1572C45.406 20.3722 45.961 20.4788 46.5202 20.4703C47.7263 20.4977 48.8945 20.0486 49.7716 19.2203C49.9529 19.0492 50.1197 18.8634 50.2703 18.6647L50.1765 18.5956L48.7024 17.7344ZM44.8387 14.3066C45.0542 14.0759 45.3149 13.8919 45.6044 13.7662C45.894 13.6404 46.2064 13.5755 46.5221 13.5755C46.8378 13.5755 47.1501 13.6404 47.4397 13.7662C47.7293 13.8919 47.9899 14.0759 48.2055 14.3066C48.2767 14.3846 48.3428 14.4671 48.4036 14.5535L44.159 16.0967C44.1482 15.4351 44.3918 14.7945 44.8387 14.3066Z" fill="currentColor"/>
<path d="M65.1823 17.7344C65.1102 17.8218 65.0324 17.9042 64.9495 17.9814C64.4199 18.4687 63.7214 18.7308 63.0019 18.7122C62.6855 18.7173 62.3716 18.6547 62.0813 18.5287C61.791 18.4026 61.5309 18.216 61.3186 17.9814C61.2417 17.8976 61.1705 17.8087 61.1056 17.7153L65.365 16.1646L67.1922 15.4998C67.0795 14.5802 66.6635 13.7244 66.0101 13.0676C65.6163 12.6714 65.148 12.357 64.6322 12.1424C64.1165 11.9278 63.5634 11.8174 63.0047 11.8174C62.4461 11.8174 61.893 11.9278 61.3772 12.1424C60.8614 12.357 60.3932 12.6714 59.9994 13.0676C59.2058 13.8952 58.7627 14.9974 58.7627 16.144C58.7627 17.2905 59.2058 18.3927 59.9994 19.2203C60.3873 19.6232 60.8538 19.9421 61.3701 20.1572C61.8865 20.3722 62.4415 20.4788 63.0007 20.4703C64.2066 20.4976 65.3746 20.0485 66.2514 19.2203C66.4327 19.0492 66.5996 18.8634 66.7502 18.6647L66.6564 18.5956L65.1823 17.7344ZM61.3186 14.3066C61.5341 14.0759 61.7947 13.8919 62.0843 13.7662C62.3739 13.6404 62.6862 13.5755 63.0019 13.5755C63.3176 13.5755 63.63 13.6404 63.9196 13.7662C64.2091 13.8919 64.4698 14.0759 64.6853 14.3066C64.7565 14.3846 64.8227 14.4671 64.8835 14.5535L60.6389 16.0967C60.6281 15.4351 60.8717 14.7945 61.3186 14.3066Z" fill="currentColor"/>
<path d="M118.19 17.7344C118.118 17.8218 118.041 17.9043 117.958 17.9814C117.428 18.4687 116.73 18.7308 116.01 18.7122C115.694 18.7173 115.38 18.6547 115.089 18.5287C114.799 18.4026 114.539 18.216 114.327 17.9814C114.25 17.8976 114.179 17.8087 114.114 17.7153L118.373 16.1646L120.2 15.4998C120.088 14.5802 119.672 13.7244 119.018 13.0676C118.624 12.6714 118.156 12.357 117.64 12.1424C117.125 11.9278 116.572 11.8174 116.013 11.8174C115.454 11.8174 114.901 11.9278 114.385 12.1424C113.87 12.357 113.401 12.6714 113.008 13.0676C112.214 13.8952 111.771 14.9974 111.771 16.144C111.771 17.2905 112.214 18.3927 113.008 19.2203C113.395 19.6232 113.862 19.9421 114.378 20.1572C114.895 20.3722 115.45 20.4788 116.009 20.4703C117.215 20.4976 118.383 20.0485 119.26 19.2203C119.441 19.0492 119.608 18.8634 119.758 18.6647L119.665 18.5956L118.19 17.7344ZM114.327 14.3066C114.542 14.0759 114.803 13.8919 115.093 13.7662C115.382 13.6404 115.694 13.5755 116.01 13.5755C116.326 13.5755 116.638 13.6404 116.928 13.7662C117.217 13.8919 117.478 14.0759 117.694 14.3066C117.765 14.3846 117.831 14.4671 117.892 14.5535L113.647 16.0967C113.636 15.4351 113.88 14.7946 114.327 14.3066Z" fill="currentColor"/>
<path d="M19.8617 10.5068C19.8617 10.6319 19.8246 10.7542 19.7551 10.8582C19.6856 10.9622 19.5868 11.0432 19.4713 11.0911C19.3557 11.1389 19.2286 11.1515 19.1059 11.1271C18.9832 11.1027 18.8706 11.0424 18.7821 10.954C18.6937 10.8656 18.6335 10.7529 18.6091 10.6302C18.5847 10.5075 18.5972 10.3804 18.645 10.2648C18.6929 10.1493 18.774 10.0505 18.878 9.98108C18.9819 9.9116 19.1042 9.87451 19.2293 9.87451C19.397 9.87451 19.5578 9.94113 19.6764 10.0597C19.795 10.1783 19.8617 10.3391 19.8617 10.5068Z" fill="currentColor"/>
<path d="M16.8463 7.97314C16.6899 7.97314 16.537 8.01953 16.4069 8.10643C16.2769 8.19334 16.1755 8.31687 16.1156 8.46139C16.0557 8.60591 16.0401 8.76494 16.0706 8.91837C16.1011 9.07179 16.1765 9.21272 16.2871 9.32334C16.3977 9.43395 16.5386 9.50928 16.692 9.53979C16.8455 9.57031 17.0045 9.55465 17.149 9.49479C17.2935 9.43492 17.4171 9.33356 17.504 9.20349C17.5909 9.07342 17.6373 8.9205 17.6373 8.76407C17.6373 8.5543 17.5539 8.35313 17.4056 8.2048C17.2573 8.05647 17.0561 7.97314 16.8463 7.97314Z" fill="currentColor"/>
<path d="M13.8068 7.40088C13.6218 7.40088 13.441 7.45572 13.2872 7.55849C13.1334 7.66125 13.0135 7.80731 12.9428 7.9782C12.872 8.14908 12.8535 8.33713 12.8895 8.51854C12.9256 8.69995 13.0147 8.86659 13.1455 8.99738C13.2763 9.12817 13.4429 9.21724 13.6243 9.25333C13.8057 9.28941 13.9938 9.27089 14.1647 9.20011C14.3356 9.12933 14.4816 9.00946 14.5844 8.85566C14.6871 8.70187 14.742 8.52105 14.742 8.33609C14.742 8.08805 14.6435 7.85018 14.4681 7.67479C14.2927 7.49941 14.0548 7.40088 13.8068 7.40088Z" fill="currentColor"/>
<path d="M10.9974 8.26172C10.7769 8.26172 10.5614 8.32711 10.378 8.44961C10.1947 8.57211 10.0518 8.74622 9.96743 8.94993C9.88305 9.15365 9.86097 9.3778 9.90399 9.59406C9.947 9.81032 10.0532 10.0089 10.2091 10.1649C10.365 10.3208 10.5636 10.427 10.7799 10.47C10.9962 10.513 11.2203 10.4909 11.424 10.4065C11.6277 10.3222 11.8019 10.1793 11.9244 9.99594C12.0469 9.81261 12.1123 9.59706 12.1123 9.37657C12.1123 9.08089 11.9948 8.79733 11.7857 8.58825C11.5766 8.37918 11.2931 8.26172 10.9974 8.26172Z" fill="currentColor"/>
<path d="M9.02902 10.3374C8.78716 10.3374 8.55073 10.4091 8.34963 10.5435C8.14853 10.6779 7.99179 10.8689 7.89923 11.0923C7.80668 11.3158 7.78246 11.5616 7.82965 11.7989C7.87683 12.0361 7.9933 12.254 8.16432 12.425C8.33534 12.596 8.55324 12.7125 8.79045 12.7597C9.02767 12.8069 9.27355 12.7826 9.497 12.6901C9.72045 12.5975 9.91144 12.4408 10.0458 12.2397C10.1802 12.0386 10.2519 11.8022 10.2519 11.5603C10.2519 11.236 10.1231 10.9249 9.89373 10.6956C9.66439 10.4663 9.35335 10.3374 9.02902 10.3374Z" fill="currentColor"/>
<path d="M8.28657 13.2051C8.03017 13.2051 7.77954 13.2811 7.56636 13.4236C7.35318 13.566 7.18703 13.7685 7.08891 14.0053C6.99079 14.2422 6.96512 14.5029 7.01514 14.7543C7.06516 15.0058 7.18862 15.2368 7.36992 15.4181C7.55121 15.5994 7.7822 15.7228 8.03366 15.7729C8.28513 15.8229 8.54578 15.7972 8.78265 15.6991C9.01952 15.601 9.22198 15.4348 9.36443 15.2216C9.50687 15.0085 9.5829 14.7578 9.5829 14.5014C9.5829 14.1576 9.44632 13.8279 9.20321 13.5848C8.9601 13.3417 8.63037 13.2051 8.28657 13.2051Z" fill="currentColor"/>
<path d="M9.02902 16.2168C8.78716 16.2168 8.55073 16.2886 8.34963 16.4229C8.14853 16.5573 7.99179 16.7483 7.89923 16.9717C7.80668 17.1952 7.78246 17.4411 7.82965 17.6783C7.87683 17.9155 7.9933 18.1334 8.16432 18.3044C8.33534 18.4754 8.55324 18.5919 8.79045 18.6391C9.02767 18.6863 9.27355 18.6621 9.497 18.5695C9.72045 18.477 9.91144 18.3202 10.0458 18.1191C10.1802 17.918 10.2519 17.6816 10.2519 17.4397C10.2519 17.1154 10.1231 16.8043 9.89373 16.575C9.66439 16.3457 9.35335 16.2168 9.02902 16.2168Z" fill="currentColor"/>
<path d="M10.9974 18.5083C10.7769 18.5083 10.5614 18.5737 10.378 18.6962C10.1947 18.8187 10.0518 18.9928 9.96743 19.1965C9.88305 19.4002 9.86097 19.6244 9.90399 19.8406C9.947 20.0569 10.0532 20.2555 10.2091 20.4114C10.365 20.5674 10.5636 20.6735 10.7799 20.7166C10.9962 20.7596 11.2203 20.7375 11.424 20.6531C11.6277 20.5687 11.8019 20.4258 11.9244 20.2425C12.0469 20.0592 12.1123 19.8436 12.1123 19.6231C12.1123 19.3275 11.9948 19.0439 11.7857 18.8348C11.5766 18.6257 11.2931 18.5083 10.9974 18.5083Z" fill="currentColor"/>
<path d="M13.8068 19.7295C13.6218 19.7295 13.441 19.7844 13.2872 19.8871C13.1334 19.9899 13.0135 20.136 12.9428 20.3069C12.872 20.4777 12.8535 20.6658 12.8895 20.8472C12.9256 21.0286 13.0147 21.1952 13.1455 21.326C13.2763 21.4568 13.4429 21.5459 13.6243 21.582C13.8057 21.6181 13.9938 21.5996 14.1647 21.5288C14.3356 21.458 14.4816 21.3381 14.5844 21.1843C14.6871 21.0305 14.742 20.8497 14.742 20.6647C14.742 20.4167 14.6435 20.1788 14.4681 20.0035C14.2927 19.8281 14.0548 19.7295 13.8068 19.7295Z" fill="currentColor"/>
<path d="M16.8463 19.4443C16.6899 19.4443 16.537 19.4907 16.4069 19.5776C16.2769 19.6645 16.1755 19.788 16.1156 19.9325C16.0557 20.077 16.0401 20.2361 16.0706 20.3895C16.1011 20.5429 16.1765 20.6839 16.2871 20.7945C16.3977 20.9051 16.5386 20.9804 16.692 21.0109C16.8455 21.0414 17.0045 21.0258 17.149 20.9659C17.2935 20.9061 17.4171 20.8047 17.504 20.6746C17.5909 20.5446 17.6373 20.3916 17.6373 20.2352C17.6373 20.0254 17.5539 19.8243 17.4056 19.6759C17.2573 19.5276 17.0561 19.4443 16.8463 19.4443Z" fill="currentColor"/>
<path d="M19.2288 17.8604C19.1037 17.8604 18.9815 17.8975 18.8775 17.967C18.7735 18.0364 18.6924 18.1352 18.6446 18.2508C18.5967 18.3663 18.5842 18.4935 18.6086 18.6161C18.633 18.7388 18.6932 18.8515 18.7816 18.9399C18.8701 19.0283 18.9828 19.0886 19.1054 19.113C19.2281 19.1374 19.3552 19.1249 19.4708 19.077C19.5863 19.0291 19.6851 18.9481 19.7546 18.8441C19.8241 18.7401 19.8612 18.6178 19.8612 18.4928C19.8612 18.325 19.7945 18.1642 19.676 18.0456C19.5574 17.927 19.3965 17.8604 19.2288 17.8604Z" fill="currentColor"/>
<path d="M21.9191 19.4111C21.7627 19.4111 21.6097 19.4575 21.4797 19.5444C21.3496 19.6314 21.2482 19.7549 21.1884 19.8994C21.1285 20.0439 21.1128 20.203 21.1434 20.3564C21.1739 20.5098 21.2492 20.6507 21.3598 20.7613C21.4704 20.872 21.6114 20.9473 21.7648 20.9778C21.9182 21.0083 22.0772 20.9927 22.2218 20.9328C22.3663 20.8729 22.4898 20.7716 22.5767 20.6415C22.6636 20.5114 22.71 20.3585 22.71 20.2021C22.71 19.9923 22.6267 19.7911 22.4784 19.6428C22.33 19.4945 22.1289 19.4111 21.9191 19.4111Z" fill="currentColor"/>
<path d="M19.7062 21.2368C19.5 21.2368 19.2984 21.298 19.127 21.4125C18.9556 21.527 18.8219 21.6898 18.743 21.8803C18.6641 22.0708 18.6434 22.2804 18.6835 22.4826C18.7237 22.6849 18.823 22.8706 18.9687 23.0165C19.1145 23.1623 19.3002 23.2617 19.5024 23.302C19.7046 23.3423 19.9142 23.3217 20.1047 23.2429C20.2953 23.1641 20.4582 23.0305 20.5728 22.8592C20.6874 22.6878 20.7487 22.4863 20.7488 22.2801C20.7488 22.0035 20.639 21.7382 20.4435 21.5426C20.248 21.347 19.9828 21.237 19.7062 21.2368Z" fill="currentColor"/>
<path d="M16.9065 22.3281C16.6646 22.3281 16.4282 22.3998 16.2271 22.5342C16.026 22.6686 15.8692 22.8596 15.7767 23.083C15.6841 23.3065 15.6599 23.5523 15.7071 23.7895C15.7543 24.0268 15.8707 24.2447 16.0418 24.4157C16.2128 24.5867 16.4307 24.7032 16.6679 24.7504C16.9051 24.7975 17.151 24.7733 17.3744 24.6808C17.5979 24.5882 17.7889 24.4315 17.9232 24.2304C18.0576 24.0293 18.1293 23.7928 18.1293 23.551C18.1293 23.2267 18.0005 22.9156 17.7712 22.6863C17.5418 22.4569 17.2308 22.3281 16.9065 22.3281Z" fill="currentColor"/>
<path d="M13.7197 22.4683C13.4494 22.4683 13.1852 22.5485 12.9604 22.6987C12.7357 22.8488 12.5605 23.0623 12.457 23.312C12.3536 23.5618 12.3265 23.8366 12.3793 24.1017C12.432 24.3668 12.5622 24.6103 12.7533 24.8015C12.9444 24.9926 13.188 25.1228 13.4531 25.1755C13.7182 25.2282 13.993 25.2012 14.2427 25.0977C14.4925 24.9943 14.7059 24.8191 14.8561 24.5943C15.0063 24.3696 15.0864 24.1054 15.0864 23.8351C15.0864 23.4726 14.9424 23.125 14.6861 22.8686C14.4298 22.6123 14.0822 22.4683 13.7197 22.4683Z" fill="currentColor"/>
<path d="M10.693 21.771C10.4367 21.771 10.186 21.847 9.97285 21.9895C9.75967 22.1319 9.59352 22.3344 9.4954 22.5712C9.39729 22.8081 9.37162 23.0687 9.42163 23.3202C9.47165 23.5717 9.59512 23.8027 9.77641 23.984C9.95771 24.1653 10.1887 24.2887 10.4402 24.3387C10.6916 24.3888 10.9523 24.3631 11.1891 24.265C11.426 24.1669 11.6285 24.0007 11.7709 23.7875C11.9134 23.5743 11.9894 23.3237 11.9894 23.0673C11.9894 22.7235 11.8528 22.3938 11.6097 22.1507C11.3666 21.9076 11.0369 21.771 10.693 21.771Z" fill="currentColor"/>
<path d="M8.15345 20.1406C7.90451 20.1406 7.66116 20.2144 7.45417 20.3527C7.24718 20.4911 7.08585 20.6876 6.99058 20.9176C6.89532 21.1476 6.87039 21.4007 6.91896 21.6449C6.96752 21.889 7.0874 22.1133 7.26343 22.2893C7.43946 22.4654 7.66373 22.5852 7.90789 22.6338C8.15205 22.6824 8.40513 22.6574 8.63513 22.5622C8.86512 22.4669 9.0617 22.3056 9.2 22.0986C9.33831 21.8916 9.41213 21.6482 9.41213 21.3993C9.41213 21.0655 9.27952 20.7453 9.04347 20.5093C8.80742 20.2732 8.48727 20.1406 8.15345 20.1406Z" fill="currentColor"/>
<path d="M6.2815 17.8232C6.04538 17.8232 5.81456 17.8933 5.61823 18.0244C5.4219 18.1556 5.26888 18.3421 5.17852 18.5602C5.08816 18.7784 5.06452 19.0184 5.11058 19.25C5.15665 19.4816 5.27035 19.6943 5.43732 19.8613C5.60428 20.0283 5.81701 20.142 6.04859 20.188C6.28018 20.2341 6.52023 20.2104 6.73838 20.1201C6.95652 20.0297 7.14298 19.8767 7.27416 19.6804C7.40535 19.484 7.47536 19.2532 7.47536 19.0171C7.47536 18.7005 7.34958 18.3968 7.12569 18.1729C6.9018 17.949 6.59814 17.8232 6.2815 17.8232Z" fill="currentColor"/>
<path d="M5.25831 14.9487C5.03084 14.9487 4.80847 15.0161 4.6193 15.1424C4.43013 15.2688 4.28265 15.4483 4.19549 15.6584C4.10833 15.8685 4.08539 16.0998 4.12959 16.3229C4.17379 16.546 4.28314 16.7511 4.44381 16.9121C4.60448 17.0731 4.80928 17.1829 5.03232 17.2276C5.25536 17.2723 5.48664 17.2498 5.69694 17.1631C5.90723 17.0764 6.08711 16.9293 6.21384 16.7404C6.34057 16.5515 6.40847 16.3293 6.40896 16.1018C6.40929 15.9505 6.37976 15.8006 6.32208 15.6607C6.2644 15.5208 6.1797 15.3937 6.07282 15.2866C5.96594 15.1795 5.83898 15.0945 5.69922 15.0365C5.55945 14.9785 5.40962 14.9487 5.25831 14.9487Z" fill="currentColor"/>
<path d="M5.25818 11.7476C5.03063 11.7477 4.80823 11.8153 4.61909 11.9418C4.42994 12.0683 4.28256 12.2481 4.19556 12.4583C4.10857 12.6686 4.08587 12.8999 4.13034 13.1231C4.1748 13.3463 4.28444 13.5512 4.44539 13.7121C4.60633 13.873 4.81136 13.9825 5.03455 14.0268C5.25773 14.0712 5.48906 14.0484 5.69928 13.9613C5.9095 13.8741 6.08917 13.7267 6.21558 13.5375C6.34198 13.3482 6.40945 13.1258 6.40945 12.8983C6.40945 12.5931 6.28822 12.3004 6.07243 12.0846C5.85665 11.8688 5.56335 11.7476 5.25818 11.7476Z" fill="currentColor"/>
<path d="M6.28119 8.7959C6.04636 8.79578 5.81677 8.86531 5.62146 8.9957C5.42615 9.12609 5.27391 9.31148 5.18398 9.52841C5.09406 9.74534 5.0705 9.98408 5.11628 10.2144C5.16207 10.4448 5.27514 10.6563 5.44119 10.8224C5.60724 10.9884 5.81881 11.1015 6.04914 11.1473C6.27947 11.1931 6.5182 11.1695 6.73513 11.0796C6.95207 10.9897 7.13745 10.8374 7.26784 10.6421C7.39823 10.4468 7.46777 10.2172 7.46764 9.98235C7.46764 9.66768 7.34264 9.36591 7.12014 9.1434C6.89764 8.9209 6.59586 8.7959 6.28119 8.7959Z" fill="currentColor"/>
<path d="M8.15345 6.3418C7.90451 6.3418 7.66116 6.41562 7.45417 6.55393C7.24718 6.69223 7.08585 6.88881 6.99058 7.1188C6.89532 7.34879 6.87039 7.60187 6.91896 7.84603C6.96752 8.09019 7.0874 8.31447 7.26343 8.4905C7.43946 8.66653 7.66373 8.7864 7.90789 8.83497C8.15205 8.88354 8.40513 8.85861 8.63513 8.76335C8.86512 8.66808 9.0617 8.50675 9.2 8.29976C9.33831 8.09277 9.41213 7.84942 9.41213 7.60048C9.41213 7.26666 9.27952 6.94651 9.04347 6.71046C8.80742 6.47441 8.48727 6.3418 8.15345 6.3418Z" fill="currentColor"/>
<path d="M10.693 4.63965C10.4367 4.63965 10.186 4.71568 9.97285 4.85812C9.75967 5.00056 9.59352 5.20302 9.4954 5.43989C9.39729 5.67677 9.37162 5.93742 9.42163 6.18888C9.47165 6.44035 9.59512 6.67133 9.77641 6.85263C9.95771 7.03392 10.1887 7.15738 10.4402 7.2074C10.6916 7.25742 10.9523 7.23175 11.1891 7.13364C11.426 7.03552 11.6285 6.86937 11.7709 6.65618C11.9134 6.443 11.9894 6.19237 11.9894 5.93598C11.9894 5.59217 11.8528 5.26244 11.6097 5.01933C11.3666 4.77622 11.0369 4.63965 10.693 4.63965Z" fill="currentColor"/>
<path d="M13.7195 3.79834C13.4491 3.79785 13.1846 3.87759 12.9595 4.02747C12.7345 4.17735 12.5589 4.39063 12.4551 4.64031C12.3513 4.89 12.3238 5.16488 12.3763 5.43016C12.4287 5.69544 12.5587 5.93919 12.7498 6.13057C12.9408 6.32196 13.1843 6.45237 13.4495 6.50531C13.7147 6.55824 13.9896 6.53132 14.2395 6.42795C14.4894 6.32458 14.7029 6.14941 14.8532 5.9246C15.0035 5.69979 15.0837 5.43546 15.0837 5.16504C15.0837 4.80257 14.9397 4.45494 14.6834 4.19864C14.4271 3.94233 14.0795 3.79834 13.717 3.79834" fill="currentColor"/>
<path d="M16.9065 4.22461C16.6646 4.22461 16.4282 4.29633 16.2271 4.4307C16.026 4.56507 15.8692 4.75606 15.7767 4.97951C15.6841 5.20296 15.6599 5.44884 15.7071 5.68606C15.7543 5.92327 15.8707 6.14117 16.0418 6.31219C16.2128 6.48321 16.4307 6.59968 16.6679 6.64686C16.9051 6.69405 17.151 6.66983 17.3744 6.57727C17.5979 6.48472 17.7889 6.32798 17.9232 6.12688C18.0576 5.92578 18.1293 5.68935 18.1293 5.44749C18.1293 5.12316 18.0005 4.81212 17.7712 4.58278C17.5418 4.35345 17.2308 4.22461 16.9065 4.22461Z" fill="currentColor"/>
<path d="M19.7064 5.68018C19.5001 5.68006 19.2983 5.74114 19.1267 5.85569C18.955 5.97025 18.8212 6.13314 18.7422 6.32376C18.6631 6.51438 18.6424 6.72416 18.6826 6.92656C18.7227 7.12897 18.822 7.31492 18.9679 7.46088C19.1138 7.60684 19.2997 7.70626 19.5021 7.74657C19.7045 7.78687 19.9142 7.76625 20.1049 7.6873C20.2956 7.60836 20.4585 7.47465 20.5732 7.30307C20.6879 7.1315 20.7491 6.92978 20.7491 6.72342C20.7491 6.44684 20.6392 6.18158 20.4437 5.98595C20.2482 5.79033 19.983 5.68034 19.7064 5.68018Z" fill="currentColor"/>
<path d="M21.9191 8.00684C21.7627 8.00684 21.6097 8.05322 21.4797 8.14013C21.3496 8.22704 21.2482 8.35056 21.1884 8.49509C21.1285 8.63961 21.1128 8.79864 21.1434 8.95206C21.1739 9.10549 21.2492 9.24642 21.3598 9.35703C21.4704 9.46765 21.6114 9.54297 21.7648 9.57349C21.9182 9.60401 22.0772 9.58835 22.2218 9.52848C22.3663 9.46862 22.4898 9.36724 22.5767 9.23718C22.6636 9.10711 22.71 8.95419 22.71 8.79776C22.71 8.58799 22.6267 8.38682 22.4784 8.23849C22.33 8.09017 22.1289 8.00684 21.9191 8.00684Z" fill="currentColor"/>
<path d="M24.7492 20.6782C24.5501 20.6782 24.3554 20.7372 24.1899 20.8479C24.0243 20.9585 23.8953 21.1157 23.8191 21.2997C23.7429 21.4837 23.7229 21.6861 23.7618 21.8814C23.8006 22.0767 23.8965 22.2561 24.0373 22.3969C24.1781 22.5377 24.3575 22.6336 24.5528 22.6725C24.7481 22.7113 24.9506 22.6914 25.1345 22.6152C25.3185 22.539 25.4757 22.4099 25.5864 22.2444C25.697 22.0788 25.7561 21.8841 25.7561 21.685C25.7561 21.418 25.65 21.1619 25.4612 20.9731C25.2723 20.7843 25.0163 20.6782 24.7492 20.6782Z" fill="currentColor"/>
<path d="M22.663 22.6943C22.4066 22.6943 22.156 22.7703 21.9428 22.9128C21.7296 23.0552 21.5635 23.2577 21.4654 23.4945C21.3672 23.7314 21.3416 23.9921 21.3916 24.2435C21.4416 24.495 21.5651 24.726 21.7464 24.9073C21.9277 25.0886 22.1586 25.212 22.4101 25.262C22.6616 25.3121 22.9222 25.2864 23.1591 25.1883C23.396 25.0902 23.5984 24.924 23.7409 24.7108C23.8833 24.4977 23.9593 24.247 23.9593 23.9906C23.9593 23.6468 23.8228 23.3171 23.5797 23.074C23.3366 22.8309 23.0068 22.6943 22.663 22.6943Z" fill="currentColor"/>
<path d="M20.0686 24.3516C19.7983 24.3516 19.5341 24.4318 19.3093 24.5819C19.0845 24.7321 18.9094 24.9456 18.8059 25.1953C18.7025 25.445 18.6754 25.7198 18.7282 25.9849C18.7809 26.2501 18.9111 26.4936 19.1022 26.6847C19.2933 26.8759 19.5369 27.006 19.802 27.0588C20.0671 27.1115 20.3419 27.0844 20.5916 26.981C20.8413 26.8775 21.0548 26.7024 21.205 26.4776C21.3551 26.2529 21.4353 25.9886 21.4353 25.7183C21.4353 25.3558 21.2913 25.0082 21.035 24.7519C20.7787 24.4956 20.4311 24.3516 20.0686 24.3516Z" fill="currentColor"/>
<path d="M17.0737 25.4678C16.8173 25.4678 16.5666 25.5438 16.3535 25.6863C16.1403 25.8287 15.9741 26.0312 15.876 26.268C15.7779 26.5049 15.7522 26.7656 15.8022 27.017C15.8523 27.2685 15.9757 27.4995 16.157 27.6808C16.3383 27.8621 16.5693 27.9855 16.8208 28.0355C17.0722 28.0856 17.3329 28.0599 17.5697 27.9618C17.8066 27.8637 18.0091 27.6975 18.1515 27.4843C18.294 27.2711 18.37 27.0205 18.37 26.7641C18.37 26.4203 18.2334 26.0906 17.9903 25.8475C17.7472 25.6044 17.4175 25.4678 17.0737 25.4678Z" fill="currentColor"/>
<path d="M13.8013 25.8618C13.5737 25.8618 13.3512 25.9292 13.162 26.0557C12.9728 26.1821 12.8253 26.3618 12.7382 26.5721C12.6511 26.7823 12.6283 27.0137 12.6727 27.2369C12.7171 27.4601 12.8267 27.6651 12.9876 27.826C13.1486 27.987 13.3536 28.0965 13.5768 28.1409C13.8 28.1853 14.0314 28.1626 14.2416 28.0755C14.4519 27.9884 14.6316 27.8409 14.758 27.6517C14.8844 27.4624 14.9519 27.24 14.9519 27.0124C14.9519 26.7072 14.8307 26.4146 14.6149 26.1988C14.3991 25.983 14.1064 25.8618 13.8013 25.8618Z" fill="currentColor"/>
<path d="M10.6358 25.3823C10.4294 25.3823 10.2277 25.4435 10.0562 25.5581C9.88461 25.6727 9.7509 25.8357 9.67194 26.0263C9.59298 26.2169 9.57232 26.4267 9.61257 26.629C9.65283 26.8314 9.75219 27.0173 9.89808 27.1632C10.044 27.3091 10.2299 27.4085 10.4322 27.4487C10.6346 27.489 10.8444 27.4683 11.035 27.3893C11.2256 27.3104 11.3885 27.1767 11.5032 27.0051C11.6178 26.8335 11.679 26.6318 11.679 26.4255C11.679 26.1488 11.5691 25.8835 11.3734 25.6878C11.1778 25.4922 10.9124 25.3823 10.6358 25.3823Z" fill="currentColor"/>
<path d="M7.80121 24.1445C7.61344 24.1445 7.42988 24.2002 7.27375 24.3045C7.11762 24.4088 6.99593 24.5571 6.92407 24.7306C6.85221 24.9041 6.83341 25.095 6.87005 25.2791C6.90668 25.4633 6.9971 25.6325 7.12988 25.7653C7.26266 25.898 7.43184 25.9885 7.616 26.0251C7.80017 26.0617 7.99106 26.0429 8.16454 25.9711C8.33802 25.8992 8.4863 25.7775 8.59062 25.6214C8.69494 25.4653 8.75063 25.2817 8.75063 25.0939C8.75063 24.8421 8.6506 24.6006 8.47255 24.4226C8.2945 24.2445 8.05301 24.1445 7.80121 24.1445Z" fill="currentColor"/>
<path d="M5.40725 22.2559C5.2352 22.2559 5.06701 22.3069 4.92396 22.4025C4.7809 22.4981 4.66941 22.634 4.60357 22.7929C4.53773 22.9519 4.5205 23.1268 4.55407 23.2955C4.58763 23.4642 4.67048 23.6192 4.79214 23.7409C4.91379 23.8626 5.06879 23.9454 5.23754 23.979C5.40628 24.0125 5.58119 23.9953 5.74014 23.9295C5.89909 23.8636 6.03495 23.7521 6.13054 23.6091C6.22612 23.466 6.27714 23.2978 6.27714 23.1258C6.27714 22.8951 6.18549 22.6738 6.02235 22.5107C5.85922 22.3476 5.63796 22.2559 5.40725 22.2559Z" fill="currentColor"/>
<path d="M3.56296 19.8813C3.41434 19.8813 3.26906 19.9254 3.14548 20.008C3.02191 20.0906 2.9256 20.2079 2.86872 20.3452C2.81185 20.4825 2.79696 20.6336 2.82596 20.7794C2.85495 20.9252 2.92652 21.059 3.03161 21.1641C3.1367 21.2692 3.2706 21.3408 3.41636 21.3698C3.56213 21.3988 3.71322 21.3839 3.85053 21.327C3.98783 21.2702 4.10519 21.1738 4.18776 21.0503C4.27033 20.9267 4.3144 20.7814 4.3144 20.6328C4.3144 20.4335 4.23523 20.2424 4.09431 20.1014C3.95339 19.9605 3.76226 19.8813 3.56296 19.8813Z" fill="currentColor"/>
<path d="M2.37669 17.0459C2.24381 17.0459 2.11391 17.0853 2.00342 17.1591C1.89294 17.2329 1.80682 17.3379 1.75597 17.4606C1.70512 17.5834 1.69182 17.7185 1.71774 17.8488C1.74366 17.9791 1.80765 18.0988 1.90161 18.1928C1.99557 18.2868 2.11529 18.3508 2.24561 18.3767C2.37594 18.4026 2.51103 18.3893 2.63379 18.3385C2.75656 18.2876 2.86149 18.2015 2.93531 18.091C3.00914 17.9805 3.04854 17.8506 3.04854 17.7177C3.04854 17.5395 2.97776 17.3687 2.85176 17.2427C2.72576 17.1167 2.55487 17.0459 2.37669 17.0459Z" fill="currentColor"/>
<path d="M1.95683 13.8667C1.83176 13.8667 1.7095 13.9038 1.6055 13.9733C1.50151 14.0428 1.42046 14.1416 1.3726 14.2571C1.32474 14.3727 1.31221 14.4998 1.33661 14.6225C1.36101 14.7452 1.42124 14.8578 1.50968 14.9463C1.59812 15.0347 1.71079 15.0949 1.83346 15.1193C1.95613 15.1437 2.08328 15.1312 2.19883 15.0833C2.31438 15.0355 2.41314 14.9544 2.48263 14.8504C2.55211 14.7464 2.5892 14.6242 2.5892 14.4991C2.5892 14.3314 2.52258 14.1706 2.40398 14.052C2.28539 13.9334 2.12455 13.8667 1.95683 13.8667Z" fill="currentColor"/>
<path d="M2.37669 10.6064C2.24381 10.6064 2.11391 10.6458 2.00342 10.7196C1.89294 10.7934 1.80682 10.8984 1.75597 11.0211C1.70512 11.1439 1.69182 11.279 1.71774 11.4093C1.74366 11.5396 1.80765 11.6594 1.90161 11.7533C1.99557 11.8473 2.11529 11.9113 2.24561 11.9372C2.37594 11.9631 2.51103 11.9498 2.63379 11.899C2.75656 11.8481 2.86149 11.762 2.93531 11.6515C3.00914 11.541 3.04854 11.4111 3.04854 11.2782C3.04854 11.1001 2.97776 10.9292 2.85176 10.8032C2.72576 10.6772 2.55487 10.6064 2.37669 10.6064Z" fill="currentColor"/>
<path d="M3.56296 7.61572C3.41434 7.61572 3.26906 7.65979 3.14548 7.74236C3.02191 7.82493 2.9256 7.94229 2.86872 8.07959C2.81185 8.2169 2.79696 8.36799 2.82596 8.51376C2.85495 8.65953 2.92652 8.79342 3.03161 8.89851C3.1367 9.0036 3.2706 9.07517 3.41636 9.10416C3.56213 9.13316 3.71322 9.11828 3.85053 9.0614C3.98783 9.00453 4.10519 8.90821 4.18776 8.78464C4.27033 8.66106 4.3144 8.51578 4.3144 8.36716C4.3144 8.16787 4.23523 7.97673 4.09431 7.83581C3.95339 7.69489 3.76226 7.61572 3.56296 7.61572Z" fill="currentColor"/>
<path d="M5.40725 5.00439C5.2352 5.00439 5.06701 5.05541 4.92396 5.151C4.7809 5.24658 4.66941 5.38244 4.60357 5.5414C4.53773 5.70035 4.5205 5.87525 4.55407 6.044C4.58763 6.21274 4.67048 6.36774 4.79214 6.4894C4.91379 6.61106 5.06879 6.69391 5.23754 6.72747C5.40628 6.76104 5.58119 6.74381 5.74014 6.67797C5.89909 6.61213 6.03495 6.50063 6.13054 6.35758C6.22612 6.21452 6.27714 6.04634 6.27714 5.87429C6.27714 5.76005 6.25464 5.64694 6.21092 5.5414C6.16721 5.43585 6.10313 5.33996 6.02235 5.25918C5.94158 5.1784 5.84568 5.11433 5.74014 5.07061C5.6346 5.0269 5.52148 5.00439 5.40725 5.00439Z" fill="currentColor"/>
<path d="M7.80121 2.95703C7.61344 2.95703 7.42988 3.01271 7.27375 3.11703C7.11762 3.22135 6.99593 3.36963 6.92407 3.54311C6.85221 3.7166 6.83341 3.90749 6.87005 4.09166C6.90668 4.27582 6.9971 4.44499 7.12988 4.57777C7.26266 4.71055 7.43184 4.80097 7.616 4.8376C7.80017 4.87424 7.99106 4.85544 8.16454 4.78358C8.33802 4.71172 8.4863 4.59003 8.59062 4.4339C8.69494 4.27777 8.75063 4.09421 8.75063 3.90644C8.75063 3.65464 8.6506 3.41315 8.47255 3.2351C8.2945 3.05705 8.05301 2.95703 7.80121 2.95703Z" fill="currentColor"/>
<path d="M10.6358 1.53223C10.4294 1.53223 10.2277 1.59342 10.0562 1.70805C9.88461 1.82268 9.7509 1.98562 9.67194 2.17624C9.59298 2.36687 9.57232 2.57663 9.61257 2.779C9.65283 2.98137 9.75219 3.16726 9.89808 3.31315C10.044 3.45905 10.2299 3.55841 10.4322 3.59867C10.6346 3.63892 10.8444 3.61826 11.035 3.5393C11.2256 3.46034 11.3885 3.32663 11.5032 3.15507C11.6178 2.98351 11.679 2.78181 11.679 2.57547C11.679 2.29879 11.5691 2.03344 11.3734 1.83779C11.1778 1.64215 10.9124 1.53223 10.6358 1.53223Z" fill="currentColor"/>
<path d="M13.8013 0.836914C13.5737 0.836914 13.3512 0.904399 13.162 1.03083C12.9728 1.15727 12.8253 1.33698 12.7382 1.54723C12.6511 1.75748 12.6283 1.98884 12.6727 2.21205C12.7171 2.43525 12.8267 2.64028 12.9876 2.8012C13.1486 2.96212 13.3536 3.07171 13.5768 3.11611C13.8 3.1605 14.0314 3.13772 14.2416 3.05063C14.4519 2.96354 14.6316 2.81606 14.758 2.62683C14.8844 2.43761 14.9519 2.21514 14.9519 1.98757C14.9519 1.68239 14.8307 1.38972 14.6149 1.17393C14.3991 0.958143 14.1064 0.836914 13.8013 0.836914Z" fill="currentColor"/>
<path d="M17.0737 0.942383C16.8173 0.942383 16.5666 1.01841 16.3535 1.16086C16.1403 1.3033 15.9741 1.50576 15.876 1.74263C15.7779 1.97951 15.7522 2.24016 15.8022 2.49162C15.8523 2.74308 15.9757 2.97407 16.157 3.15536C16.3383 3.33666 16.5693 3.46012 16.8208 3.51014C17.0722 3.56016 17.3329 3.53449 17.5697 3.43637C17.8066 3.33826 18.0091 3.1721 18.1515 2.95892C18.294 2.74574 18.37 2.49511 18.37 2.23872C18.37 1.89491 18.2334 1.56518 17.9903 1.32207C17.7472 1.07896 17.4175 0.942383 17.0737 0.942383Z" fill="currentColor"/>
<path d="M20.0686 1.91455C19.7983 1.91455 19.5341 1.99471 19.3093 2.14489C19.0845 2.29506 18.9094 2.50851 18.8059 2.75824C18.7025 3.00798 18.6754 3.28278 18.7282 3.54789C18.7809 3.81301 18.9111 4.05653 19.1022 4.24767C19.2933 4.4388 19.5369 4.56897 19.802 4.6217C20.0671 4.67444 20.3419 4.64737 20.5916 4.54393C20.8413 4.44049 21.0548 4.26531 21.205 4.04056C21.3551 3.81581 21.4353 3.55157 21.4353 3.28126C21.4353 2.91879 21.2913 2.57116 21.035 2.31485C20.7787 2.05855 20.4311 1.91455 20.0686 1.91455Z" fill="currentColor"/>
<path d="M22.663 3.71582C22.4066 3.71582 22.156 3.79185 21.9428 3.9343C21.7296 4.07674 21.5635 4.2792 21.4654 4.51607C21.3672 4.75295 21.3416 5.0136 21.3916 5.26506C21.4416 5.51652 21.5651 5.74751 21.7464 5.9288C21.9277 6.1101 22.1586 6.23356 22.4101 6.28358C22.6616 6.3336 22.9222 6.30793 23.1591 6.20981C23.396 6.1117 23.5984 5.94554 23.7409 5.73236C23.8833 5.51918 23.9593 5.26855 23.9593 5.01216C23.9593 4.66835 23.8228 4.33862 23.5797 4.09551C23.3366 3.8524 23.0068 3.71582 22.663 3.71582Z" fill="currentColor"/>
<path d="M24.7492 6.30811C24.5501 6.30811 24.3554 6.36716 24.1899 6.47779C24.0243 6.58842 23.8953 6.74566 23.8191 6.92963C23.7429 7.1136 23.7229 7.31604 23.7618 7.51134C23.8006 7.70665 23.8965 7.88604 24.0373 8.02684C24.1781 8.16765 24.3575 8.26354 24.5528 8.30239C24.7481 8.34124 24.9506 8.32131 25.1345 8.2451C25.3185 8.1689 25.4757 8.03985 25.5864 7.87428C25.697 7.70871 25.7561 7.51405 25.7561 7.31492C25.7561 7.0479 25.65 6.79181 25.4612 6.603C25.2723 6.41418 25.0163 6.30811 24.7492 6.30811Z" fill="currentColor"/>
</svg>
