<svg width="83" height="19" viewBox="0 0 83 19" fill="none" xmlns="http://www.w3.org/2000/svg">
<path d="M8.90417 14.1695C8.41388 14.4969 7.66165 14.7505 6.81037 14.7673C5.97419 14.7891 5.24883 14.5305 4.76526 14.0738C4.11714 13.4576 3.78468 12.3947 3.78468 10.9289C3.78468 9.50001 4.1927 7.08886 6.8641 6.90249C7.22678 6.87562 8.19896 6.80006 8.90417 6.78159V14.1695ZM8.90417 0.894775V3.84658H7.01689C1.42895 3.84658 0.263672 8.02075 0.263672 11.028C0.263672 13.2292 0.9353 15.14 2.14087 16.4094C3.18022 17.4924 4.57217 18.0717 6.17232 18.0717C7.24357 18.0717 8.14691 17.8719 8.90417 17.4722L8.92432 17.7745H12.6116V0.894775H8.90417Z" fill="white"/>
<path d="M18.9198 8.83174C19.2959 7.49688 20.2194 6.64055 21.6987 6.64055C23.0755 6.64055 24.0158 7.60602 24.1283 8.83174H18.9198ZM27.75 8.89387C27.609 7.31722 27.0297 5.98236 26.0861 5.05383C25.03 4.01113 23.549 3.47886 21.6987 3.47886C19.5646 3.47886 17.8083 4.26971 16.6128 5.7624C15.5482 7.08719 14.9623 8.94088 14.9623 10.986C14.9623 14.3995 16.8932 18.0633 22.3048 18.0633C24.3785 18.0633 26.4034 17.4202 27.5654 16.8409V13.4223C26.9189 13.78 24.9393 14.8495 22.236 14.8008C20.253 14.7673 19.1851 13.701 18.851 11.8222H27.7853L27.7903 11.6845C27.8105 10.4252 27.7853 9.36233 27.75 8.89387Z" fill="white"/>
<path d="M37.4685 3.51245C36.2697 3.51245 34.9465 3.96244 34.4361 4.15217L34.4193 3.84658H30.727V17.7745H34.4361V7.3424C35.237 6.84204 36.4779 6.63216 37.4819 6.86723C38.476 7.10062 38.9646 7.73027 38.9646 9.53359V17.7745H42.6636V8.98621C42.6636 5.30401 40.9677 3.51245 37.4685 3.51245Z" fill="white"/>
<path d="M78.5184 3.84323V14.2753C77.7292 14.7807 76.48 14.9872 75.4759 14.7572C74.4836 14.5238 73.9967 13.8975 73.9967 12.0841V3.84323H70.291V12.6348C70.291 16.3154 71.9919 18.1053 75.486 18.1053C76.6865 18.1053 78.0147 17.6603 78.5184 17.4655L78.5402 17.7711H82.2241V3.84323H78.5184Z" fill="white"/>
<path d="M49.5007 0.89479H45.7967V12.9824C45.7967 14.6447 46.0855 15.81 46.7017 16.6327C47.4271 17.6066 48.6125 18.075 50.3201 18.075C51.6919 18.075 53.0133 17.7745 53.7857 17.531V14.1964C53.3072 14.3173 51.8397 14.6329 50.9901 14.6329C50.4511 14.6329 50.0716 14.5204 49.8382 14.2871C49.5007 13.9428 49.5007 13.3568 49.5007 12.7927V6.90922C50.9531 6.90922 52.7716 7.00996 53.7857 7.1191V3.8466H49.5007V0.89479Z" fill="white"/>
<path d="M63.17 9.07017C62.3003 8.91234 61.271 8.72932 60.6766 8.4019C60.3878 8.24407 60.235 8.02075 60.2384 7.77393C60.2485 7.53214 60.4147 7.29875 60.6615 7.17786C61.2005 6.87899 62.1794 6.73459 63.667 7.0066C65.0959 7.26349 66.681 7.81423 67.1713 8.02075V4.65926C65.4586 3.80965 63.934 3.47887 62.218 3.50406C60.6246 3.53428 59.2477 3.95069 58.2336 4.70459C57.1657 5.51222 56.5646 6.66239 56.5041 8.03754C56.395 10.3496 57.8457 11.7332 61.1887 12.383C61.8839 12.5207 62.8964 12.7272 63.3262 12.9068C63.7594 13.0781 64.0163 13.3636 64.0163 13.6876C64.0196 13.9982 63.7997 14.2904 63.4521 14.4382C62.8258 14.7001 61.8066 14.6615 61.1585 14.5926C59.2444 14.3995 57.4142 13.7229 56.751 13.429V16.8812C57.8826 17.4554 59.6675 18.1187 61.7848 18.0885C64.2094 18.0398 67.2183 17.3178 67.7606 14.1208C67.9688 12.9337 67.7573 11.8608 67.1494 11.0145C66.4073 9.99198 65.2638 9.46308 63.17 9.07017Z" fill="white"/>
</svg>
