<svg width="116" height="37" viewBox="0 0 116 37" fill="none" xmlns="http://www.w3.org/2000/svg">
<g clip-path="url(#clip0_71_180)">
<path fill-rule="evenodd" clip-rule="evenodd" d="M14.4103 8.71266H18.5939C19.8605 8.71266 20.8584 7.71474 20.8584 6.44815V2.26454C20.8584 0.997931 19.8221 0 18.5939 0H14.4103C13.1437 0 12.1458 1.03632 12.1458 2.26454V6.44815C12.1458 7.71474 13.1437 8.71266 14.4103 8.71266ZM3.0493 18.1162H7.73188C9.15201 18.1162 10.3035 17.0031 10.3035 15.583V10.862C10.3035 9.48027 9.19039 8.32882 7.77026 8.32882H3.0493C1.66756 8.32882 0.516113 9.48027 0.516113 10.862V15.583C0.516113 16.9647 1.62919 18.1162 3.0493 18.1162ZM7.30969 27.9035H4.43104C3.58665 27.9035 2.89578 27.2127 2.89578 26.3683V23.4896C2.89578 22.6452 3.58665 21.9544 4.43104 21.9544H7.30969C8.15408 21.9544 8.84495 22.6452 8.84495 23.4896V26.3683C8.84495 27.2127 8.15408 27.9035 7.30969 27.9035ZM11.6084 37H15.0244C16.0607 37 16.8667 36.194 16.8667 35.1577V31.7417C16.8667 30.7054 16.0223 29.8994 15.0244 29.8994H11.6084C10.5721 29.8994 9.7661 30.7438 9.7661 31.7417V35.1577C9.7661 36.194 10.6105 37 11.6084 37ZM27.4985 10.4398H25.1572C24.4663 10.4398 23.8906 9.86412 23.8906 9.17325V6.83195C23.8906 6.14108 24.4663 5.56535 25.1572 5.56535H27.4985C28.1893 5.56535 28.7651 6.14108 28.7651 6.83195V9.17325C28.8035 9.86412 28.2277 10.4398 27.4985 10.4398ZM80.5037 10.6701C80.5037 11.3994 79.928 12.0135 79.1603 12.0135C78.3927 12.0135 77.7786 11.3994 77.7786 10.6701C77.7786 9.94089 78.3927 9.32679 79.1603 9.32679C79.8896 9.32679 80.5037 9.90252 80.5037 10.6701ZM29.5327 26.5218C29.3408 26.8288 28.9954 26.9824 28.6115 26.9824C28.4196 26.9824 28.151 26.9439 27.9974 26.8288C27.6904 26.6369 27.4985 26.2531 27.4985 25.8693C27.4985 25.6774 27.5369 25.4855 27.652 25.332L30.7993 20.3807L27.652 15.4295C27.5368 15.2759 27.4985 15.0456 27.4985 14.8921C27.4985 14.5083 27.6904 14.1245 28.0358 13.9326C28.2277 13.8174 28.4196 13.7791 28.6115 13.7791C28.9954 13.7791 29.3408 13.9326 29.5711 14.2396L32.1427 18.3081L34.7526 14.2396C34.9445 13.9326 35.3284 13.7791 35.7122 13.7791C35.9041 13.7791 36.096 13.8175 36.2879 13.9326C36.6333 14.1245 36.8252 14.5083 36.8252 14.8921C36.8252 15.084 36.7869 15.2759 36.6717 15.4295L33.5244 20.3807L36.6717 25.332C36.7869 25.4855 36.8252 25.6774 36.8252 25.8693C36.8252 26.2531 36.6333 26.6753 36.3263 26.8288C36.1344 26.944 35.9041 26.9824 35.7122 26.9824C35.3284 26.9824 35.0213 26.8288 34.791 26.5218L32.181 22.4917L29.5327 26.5218ZM45.3076 13.5488C43.5804 13.5488 41.9684 14.2012 40.7786 15.2759V14.7386C40.7786 14.1629 40.2796 13.6639 39.6655 13.6639C39.0898 13.6639 38.5524 14.1629 38.5524 14.7386V31.166C38.5524 31.7417 39.1281 32.2407 39.6655 32.2407C40.2412 32.2407 40.7786 31.7417 40.7786 31.166V25.3703C41.9684 26.445 43.5804 27.0975 45.3076 27.0975C49.069 27.0975 52.1012 24.0654 52.1012 20.3423C52.1012 16.5809 49.1074 13.5488 45.3076 13.5488ZM40.7402 20.3423C40.7402 17.8091 42.736 15.8133 45.2692 15.8133C47.8408 15.8133 49.8367 17.8091 49.7983 20.3423C49.7983 22.8755 47.8024 24.8714 45.2692 24.8714C42.736 24.8714 40.7402 22.8755 40.7402 20.3423ZM71.3304 19.1141V25.9077C71.3304 26.4834 70.7931 26.9824 70.2174 26.9824C69.6033 26.9824 69.1043 26.4834 69.1043 25.9077V14.7386C69.1043 14.1629 69.6416 13.6639 70.2174 13.6639C70.7547 13.6639 71.2921 14.1245 71.3304 14.7002C72.2516 14.0093 73.4414 13.5872 74.708 13.5872C75.3989 13.5872 75.9363 14.1245 75.9363 14.7002C75.9363 15.3143 75.3989 15.8517 74.708 15.8517C72.9809 15.8901 71.3304 16.5042 71.3304 19.1141ZM78.0473 14.7386C78.0473 14.1629 78.5462 13.6639 79.1603 13.6639C79.7361 13.6639 80.2734 14.1629 80.2734 14.7386V25.9461C80.2734 26.5218 79.6977 27.0208 79.1603 27.0208C78.5846 27.0208 78.0473 26.5218 78.0473 25.9461V14.7386ZM93.4383 14.7386C93.4383 14.1629 93.9757 13.6639 94.5514 13.6639C95.0887 13.6639 95.6645 14.1629 95.6645 14.7386V25.9461C95.6645 26.5218 95.1271 27.0208 94.5514 27.0208C93.9373 27.0208 93.4383 26.5218 93.4383 25.9461V25.4087C92.2101 26.4834 90.6365 27.1359 88.9093 27.1359C85.1095 27.1359 82.1157 24.1038 82.1157 20.3423C82.1157 16.6193 85.1479 13.5872 88.9093 13.5872C90.6365 13.5872 92.2101 14.2396 93.4383 15.3143V14.7386ZM88.9093 24.8714C91.4425 24.8714 93.4383 22.8755 93.4383 20.3423C93.4383 17.8091 91.4425 15.8133 88.9093 15.8133C86.3761 15.8133 84.3802 17.8091 84.3802 20.3423C84.3802 22.8755 86.3761 24.8714 88.9093 24.8714ZM103.571 15.7749C105.452 15.7749 107.064 17.3869 107.064 19.2677V25.9461C107.064 26.5218 107.563 27.0208 108.177 27.0208C108.753 27.0208 109.29 26.5218 109.29 25.9461V18.9606C109.29 15.9668 106.565 13.5872 103.533 13.5872C102.228 13.5872 101.038 13.971 100.078 14.7002C100.04 14.1245 99.5027 13.6639 98.9653 13.6639C98.3896 13.6639 97.8522 14.1629 97.8522 14.7386V25.9461C97.8522 26.5218 98.3512 27.0208 98.9653 27.0208C99.541 27.0208 100.078 26.5218 100.078 25.9461V19.1525C100.078 16.5042 101.767 15.7749 103.571 15.7749ZM26.846 19.9585C26.8076 16.5042 23.7371 13.5872 20.0908 13.5872C16.291 13.5872 13.2972 16.6193 13.2972 20.3423C13.2972 24.1421 16.3294 27.1359 20.0908 27.1359C21.8948 27.1359 23.5835 26.445 24.8118 25.2168C25.0421 25.0249 25.1956 24.6795 25.1956 24.3724C25.1956 23.7583 24.6582 23.2593 24.0825 23.2593C23.7371 23.2593 23.43 23.4513 23.1997 23.7199C22.4321 24.5259 21.319 24.9098 20.1292 24.9098C17.8647 24.9098 16.0223 23.3745 15.6385 21.2251H25.7713H25.8097H25.848H25.8865C25.9249 21.2251 25.9632 21.2251 26.0017 21.1867C26.4622 20.9947 26.846 20.5342 26.846 19.9585ZM20.0908 15.8133C22.125 15.8133 23.8138 17.1183 24.3896 18.9606H15.7537C16.3294 17.1183 18.0182 15.8133 20.0908 15.8133ZM60.4684 13.5872C64.0763 13.5872 67.1852 16.5042 67.2236 19.9585C67.2236 20.5342 66.8014 21.0332 66.3408 21.2251H66.3024H66.2257H66.1873H66.1489H56.0161C56.3999 23.3745 58.2423 24.9098 60.5068 24.9098C61.6966 24.9098 62.8097 24.5259 63.5773 23.7199C63.8076 23.4513 64.1147 23.2593 64.4601 23.2593C65.0358 23.2593 65.5732 23.7583 65.5732 24.3724C65.5732 24.6795 65.4196 25.0249 65.1894 25.2168C63.9611 26.445 62.2724 27.1359 60.4684 27.1359C56.707 27.1359 53.6748 24.1421 53.6748 20.3423C53.6748 16.6193 56.6686 13.5872 60.4684 13.5872ZM64.7672 18.9606C64.1914 17.1183 62.5026 15.8133 60.4684 15.8133C58.3958 15.8133 56.707 17.1183 56.1313 18.9606H64.7672ZM111.67 27.0208C111.554 27.0208 111.478 26.944 111.478 26.8288V24.9481H111.055C110.94 24.9481 110.864 24.8714 110.864 24.7562C110.864 24.6411 110.94 24.5643 111.055 24.5643H112.284C112.399 24.5643 112.476 24.6411 112.476 24.7562C112.476 24.8714 112.399 24.9481 112.284 24.9481H111.861V26.8288C111.861 26.944 111.785 27.0208 111.67 27.0208ZM113.665 26.8672C113.704 26.944 113.742 27.0208 113.857 27.0208C113.934 27.0208 114.011 26.9824 113.972 26.8672C113.972 26.8672 114.011 26.8672 114.203 26.2531C114.283 26.0391 114.363 25.7878 114.431 25.5772C114.46 25.4856 114.487 25.4018 114.51 25.332V26.8288C114.51 26.944 114.587 27.0208 114.702 27.0208C114.817 27.0208 114.894 26.944 114.894 26.8288V24.833C114.894 24.6795 114.778 24.5643 114.625 24.5643C114.51 24.5643 114.395 24.6411 114.356 24.7562L113.819 26.3299L113.282 24.7562C113.243 24.6411 113.128 24.5643 113.013 24.5643C112.859 24.5643 112.744 24.6795 112.744 24.833V26.8288C112.744 26.944 112.821 27.0208 112.936 27.0208C113.051 27.0208 113.128 26.944 113.128 26.8288V25.332L113.665 26.8672Z" fill="white"/>
</g>
<defs>
<clipPath id="clip0_71_180">
<rect width="115" height="37" fill="white" transform="translate(0.516113)"/>
</clipPath>
</defs>
</svg>
