<svg width="83" height="29" viewBox="0 0 83 29" fill="none" xmlns="http://www.w3.org/2000/svg">
<g clip-path="url(#clip0_118_35)">
<path d="M20.6463 1.28177C22.678 1.28177 24.3253 2.94202 24.3253 4.9907C24.3253 7.03979 22.678 8.70006 20.6463 8.70006H3.82229C1.7904 8.70006 0.143311 7.03979 0.143311 4.9907C0.143311 2.94202 1.7904 1.28177 3.82229 1.28177H20.6463Z" fill="white"/>
<path d="M18.9553 11.001C20.9872 11.001 22.6343 12.6615 22.6343 14.7104C22.6343 16.7589 20.9872 18.4193 18.9553 18.4193H9.37954C8.56293 18.4223 7.89431 19.0737 7.86306 19.8888V24.7233C7.86306 26.7717 6.21598 28.4322 4.18471 28.4322C2.1528 28.4322 0.505731 26.7717 0.505731 24.7233V16.4962C0.505731 13.4616 2.94574 11.001 5.95563 11.001H18.9553Z" fill="white"/>
<path d="M25.9958 4.2092C25.9958 2.16073 27.6429 0.5 29.6746 0.5C31.7067 0.5 33.3535 2.16073 33.3535 4.2092V24.7494C33.3535 26.7981 31.7067 28.4588 29.6746 28.4588C27.6429 28.4588 25.9958 26.7981 25.9958 24.7494V4.2092Z" fill="white"/>
<path d="M71.2741 21.1017L72.7526 21.0979C73.0547 21.0979 73.2998 20.8505 73.2998 20.5461C73.3011 20.4687 73.2884 20.3997 73.2611 20.3347L67.7639 11.0208L59.1759 26.0138C58.5126 27.1731 57.3214 27.8344 56.0851 27.8676C56.0488 27.8727 56.0121 27.8755 55.9737 27.8755H41.9977C38.9875 27.8755 36.5475 25.4152 36.5475 22.3806V4.2092C36.5475 2.16073 38.1946 0.5 40.2265 0.5C42.258 0.5 43.9053 2.16073 43.9053 4.2092V18.9277C43.9078 19.7516 44.5536 20.4259 45.3627 20.4568H53.1808C53.3821 20.3944 53.9969 20.1836 54.1842 19.8901L64.0043 2.75038C64.7494 1.46045 66.1355 0.59189 67.7221 0.59189C69.3095 0.59189 70.696 1.46173 71.4378 2.75441L81.0068 18.9528C81.7191 19.8882 82.1427 21.0583 82.1427 22.3285C82.1427 25.392 79.6794 27.8755 76.6413 27.8755H65.487C63.6313 27.8755 62.1279 26.3588 62.1279 24.4882C62.1279 22.618 63.6313 21.1017 65.487 21.1017H71.2741Z" fill="white"/>
</g>
<defs>
<clipPath id="clip0_118_35">
<rect width="82" height="28" fill="white" transform="translate(0.143311 0.5)"/>
</clipPath>
</defs>
</svg>
