<svg width="105" height="13" viewBox="0 0 105 13" fill="none" xmlns="http://www.w3.org/2000/svg">
<mask id="mask0_71_201" style="mask-type:luminance" maskUnits="userSpaceOnUse" x="1" y="0" width="104" height="13">
<path d="M104.129 0.258789H1.05005V12.741H104.129V0.258789Z" fill="white"/>
</mask>
<g mask="url(#mask0_71_201)">
<path d="M67.8088 12.2602H64.99V0.756348L74.0557 0.763814C74.0557 0.763814 75.7155 0.701901 76.7714 1.74504C76.7714 1.74504 77.8491 2.645 77.8491 4.84468V12.2585H75.0376V4.65306C75.0376 4.65306 75.0723 3.87733 74.808 3.60509C74.808 3.60509 74.5742 3.3094 74.13 3.3094H67.8019L67.8078 12.2561L67.8088 12.2602ZM79.8083 12.2583V1.48781V0.764938H91.1206V3.32143L82.6099 3.32077V5.2753H88.5224V7.74392H82.6099V9.70506H91.1734V12.2622H79.8017L79.8083 12.2583ZM60.0779 12.2583V1.48781V0.764938H62.8848V12.2622H60.0779V12.2583ZM95.1611 12.2583V3.31812H92.5115V0.761634H103.051V3.31812H97.97V12.2583H95.1631H95.1611ZM50.8074 12.2583V3.31812H48.1577V0.761634H58.6969V3.31812H53.6163V12.2583H50.8094H50.8074ZM42.343 5.26737C43.0289 5.26209 43.4392 5.26804 43.6044 5.16747C43.6044 5.16747 43.8926 5.00809 43.8959 4.66608L43.8966 3.91413C43.8966 3.57053 43.6051 3.41274 43.6051 3.41274C43.3862 3.29381 43.0153 3.31614 42.1349 3.31528H36.6664V5.26718H42.4685L42.343 5.26737ZM43.8555 12.2583V8.33465C43.8555 7.98193 43.5607 7.83412 43.5607 7.83412C43.4277 7.75153 43.0295 7.73665 42.4433 7.73665H42.5796H36.6664V12.2576H33.8595V1.48715V0.764277H42.6212C44.1343 0.768902 45.179 0.991448 45.8986 1.69C46.6056 2.41023 46.6994 3.35248 46.7034 4.33306V5.15174C46.7125 5.98496 46.2747 6.74484 45.7525 7.18755L45.8575 7.23962C46.0706 7.34283 46.1871 7.48906 46.1871 7.48906C46.5843 7.9962 46.5794 8.43263 46.5786 8.96917V12.2604H43.8556L43.8555 12.2583ZM1.40806 0.760973V1.4845V12.255H4.21498V7.73797H12.719V5.26804H4.21498V3.31482H14.1V0.75833H1.40674L1.40806 0.760973Z" fill="currentColor"/>
<path d="M102.102 10.2249V10.7527H102.594C102.727 10.7527 102.856 10.7164 102.876 10.5189C102.904 10.2571 102.714 10.2249 102.594 10.2249H102.102ZM101.905 10.0514H102.59C102.827 10.0514 103.057 10.0961 103.077 10.4421C103.085 10.6403 103.025 10.7122 102.875 10.8253C103.033 10.9261 103.037 10.9501 103.061 11.216C103.077 11.4175 103.049 11.4498 103.134 11.5827H102.9L102.868 11.3894C102.836 11.2077 102.924 10.9261 102.606 10.9261H102.102V11.5828H101.905V10.0514ZM102.42 9.62852C101.744 9.62852 101.192 10.1803 101.197 10.8615C101.197 11.5382 101.744 12.0899 102.425 12.0866C103.102 12.0866 103.654 11.5382 103.654 10.8576C103.654 10.1803 103.102 9.62852 102.42 9.62852ZM102.425 12.2465C101.656 12.2465 101.035 11.6262 101.035 10.8576C101.032 10.0918 101.656 9.46729 102.425 9.46729C103.191 9.46729 103.815 10.0918 103.815 10.8576C103.815 11.6267 103.191 12.2439 102.425 12.2465Z" fill="currentColor"/>
<path d="M30.0002 12.3726C30.912 12.0628 31.6217 11.0127 31.7922 9.69253V9.31094H27.1173V12.3729L30.0002 12.3726ZM31.7928 3.69677V3.35152C31.6136 1.97383 30.8513 0.888198 29.8793 0.633143H27.1179V3.69644L31.7928 3.69677ZM15.3398 9.31127V9.68956C15.5091 11.0111 16.2186 12.063 17.1331 12.3729H20.0009V9.31094L15.3398 9.31127ZM17.2527 0.635456C16.2821 0.890643 15.5176 1.9768 15.3398 3.35647V3.69928H20.0009V0.635984L17.2527 0.635456ZM31.7961 4.97402H27.1212V8.03732H31.7961V4.97402ZM21.2768 12.3746H25.8499V9.3126H21.2768V12.3746ZM25.8499 0.632812H21.2768V3.69611H25.8499V0.632812ZM15.3438 8.03336H20.0048V4.97006H15.3438V8.03336Z" fill="currentColor"/>
</g>
</svg>
