<svg width="118" height="29" viewBox="0 0 118 29" fill="none" xmlns="http://www.w3.org/2000/svg">
<g clip-path="url(#clip0_71_213)">
<path d="M23.804 28.231H25.4089C25.7866 28.2153 26.1013 27.916 26.117 27.5221V9.51325C26.1327 7.76433 24.7323 6.33057 22.9858 6.29905C22.9858 6.29905 22.9858 6.29905 22.97 6.29905H20.893C20.5154 6.28329 20.2007 5.98393 20.2007 5.59005V3.96721C20.2164 2.21833 18.816 0.784533 17.0694 0.768773C17.0694 0.768773 17.0694 0.768773 17.0537 0.768773H3.64752C1.90092 0.784533 0.500524 2.21833 0.516244 3.96721C0.516244 3.96721 0.516244 3.96721 0.516244 3.98297V22.0706C0.516244 23.8195 1.90092 25.2532 3.64752 25.2847H19.1779C19.3195 25.2847 19.4611 25.332 19.5713 25.4108L23.3634 28.1365C23.5207 28.1838 23.6624 28.231 23.804 28.231ZM20.0276 22.7008H3.72616C3.34852 22.7008 3.03384 22.4015 3.03384 22.0233C3.03384 22.0075 3.03384 22.0075 3.03384 21.9918V3.99873C3.03384 3.62057 3.34852 3.30545 3.72616 3.30545H17.0537C17.4313 3.32121 17.746 3.62057 17.746 4.01449V5.60581C17.746 5.98393 17.4313 6.29905 17.0537 6.31481H7.12492C6.74728 6.33057 6.4326 6.64569 6.4326 7.02381V19.0297C6.4326 19.4079 6.74728 19.723 7.12492 19.7387H19.5241C19.9017 19.723 20.2164 19.4079 20.2164 19.0297V9.57625C20.2164 9.19813 20.5154 8.88301 20.9087 8.86725H22.9386C23.3162 8.88301 23.6309 9.19813 23.6309 9.57625V24.2921C23.6309 24.5285 23.4578 24.7175 23.2218 24.7333C23.1274 24.7333 23.033 24.7018 22.97 24.6545L20.4367 22.8426C20.3108 22.7481 20.1692 22.7008 20.0276 22.7008ZM17.3841 17.1548H9.24916C9.06032 17.1548 8.91872 16.9972 8.91872 16.8239V9.19813C8.91872 9.00905 9.06032 8.85149 9.24916 8.85149H17.3841C17.5729 8.85149 17.7146 9.00905 17.7146 9.18237V16.8081C17.7303 16.9972 17.5729 17.1548 17.3841 17.1548ZM88.9937 4.59745C90.0481 4.61321 90.9293 3.77813 90.9449 2.72249C90.9605 1.66685 90.1269 0.784533 89.0725 0.768773C88.0181 0.753053 87.1369 1.58809 87.1213 2.64373C87.1213 2.65949 87.1213 2.67525 87.1213 2.69101C87.1057 3.71513 87.9553 4.58169 88.9937 4.59745ZM67.5941 7.40197V6.33057H64.5573V19.6127H67.5785V10.5374L71.1033 9.04057V5.93669H71.0717L67.5941 7.40197ZM55.8873 6.31481C53.9205 6.31481 52.3313 6.97657 51.1041 8.30005C50.5377 8.93025 50.0969 9.67081 49.7981 10.4743C49.4993 11.3094 49.3417 12.176 49.3417 13.0741C49.3417 14.9332 49.8609 16.4773 50.9153 17.6747C52.0797 18.9825 53.6845 19.6284 55.7145 19.6284C57.6969 19.6284 59.2705 18.9667 60.4821 17.6432C61.6149 16.3827 62.1813 14.8072 62.1813 12.885C62.1813 10.9628 61.6309 9.41869 60.5293 8.22125C59.3649 6.94505 57.8229 6.31481 55.8873 6.31481ZM58.2477 15.7683C57.6813 16.4931 56.8789 16.8712 55.8717 16.8712C54.8017 16.8712 53.9049 16.493 53.2441 15.7525C52.9137 15.3901 52.6777 14.9647 52.5201 14.5078C52.3473 14.0194 52.2529 13.5152 52.2529 12.9953C52.2529 11.9239 52.5361 11.0415 53.1025 10.301C53.7317 9.49749 54.5813 9.08781 55.6829 9.08781C56.7845 9.08781 57.6185 9.46597 58.2161 10.2223C58.7829 10.9313 59.0817 11.8609 59.0817 13.011C59.0973 14.1297 58.8141 15.0593 58.2477 15.7683ZM87.4677 6.33057H90.4729V19.6284H87.4677V6.33057ZM41.6001 6.31481C39.8849 6.31481 38.4689 6.83477 37.3833 7.85889C36.3605 8.80421 35.8097 10.1435 35.8413 11.53C35.8097 12.7589 36.2973 13.9564 37.1945 14.8072C36.4077 15.4532 36.0301 16.2094 36.0301 17.1075C36.0301 17.5959 36.0929 18.0844 36.2189 18.5413C36.3445 18.9825 36.6121 19.3606 36.9741 19.6442C35.6209 20.4162 34.9601 21.6452 35.0073 23.3468C35.0385 24.8278 35.6681 25.9938 36.8797 26.8761C38.0913 27.7584 39.7121 28.2153 41.6945 28.2153C43.6773 28.2153 45.1561 27.8214 46.1633 27.0494C47.1705 26.2774 47.6737 25.1429 47.6737 23.6777C47.6737 22.2124 47.2805 21.078 46.4781 20.2902C45.9901 19.8333 45.4237 19.4709 44.8101 19.2188C43.8973 18.8721 42.9377 18.6201 41.9621 18.494C40.7505 18.3049 39.8849 18.0844 39.3501 17.8165C39.1613 17.7535 38.9881 17.6275 38.8781 17.4699C38.7993 17.2966 38.7677 17.1233 38.7677 16.9342C38.7677 16.6979 38.9253 16.3827 39.2241 15.9731C39.9481 16.2094 40.6877 16.3355 41.4429 16.3355C43.0793 16.3355 44.4169 15.8313 45.4709 14.8229C45.9429 14.3503 46.3205 13.7988 46.5725 13.1843C46.8401 12.5226 46.9657 11.8136 46.9501 11.1046C46.9501 10.3483 46.7769 9.60777 46.4309 8.94601C46.4309 8.94601 46.4309 8.93025 46.4149 8.93025H47.6897V6.33057L41.6001 6.31481ZM39.4917 20.6841L40.1209 20.7944C41.8833 21.0622 43.1265 21.4246 43.8345 21.8973C44.4797 22.3069 44.7945 22.8584 44.7945 23.5359C44.7945 24.9539 43.8029 25.6471 41.8205 25.6471C40.6561 25.6471 39.7121 25.3951 38.9881 24.9224C38.6733 24.7175 38.4061 24.4497 38.2173 24.1346C38.0285 23.8195 37.9341 23.4571 37.9341 23.0947C37.9497 22.6378 38.0757 22.2124 38.2957 21.8185C38.6105 21.3301 39.0037 20.9362 39.4917 20.6841ZM43.2837 13.0583C42.8273 13.4995 42.2137 13.7358 41.5845 13.7358C40.7189 13.7358 40.0265 13.4837 39.4761 12.9953C39.2401 12.7904 39.0513 12.5383 38.9253 12.2547C38.7993 11.9869 38.7365 11.6875 38.7365 11.3882C38.7365 11.0731 38.7993 10.7737 38.9093 10.4901C39.2873 9.48173 40.1369 8.97753 41.4901 8.97753C42.2925 8.97753 42.9377 9.19813 43.3781 9.62353C43.8345 10.0647 44.0861 10.6792 44.0705 11.3094C44.0549 11.9554 43.7717 12.6014 43.2837 13.0583ZM103.753 9.21389C103.989 9.87561 104.115 10.5846 104.099 11.2937V19.5812H101.141V18.9509C100.26 19.3606 99.4417 19.5812 98.6865 19.5812C97.8841 19.5969 97.0817 19.5024 96.3105 19.3133C95.7125 19.1558 95.1461 18.8879 94.6425 18.5255C93.7301 17.8165 93.2581 16.8081 93.2581 15.4847C93.2581 14.3187 93.8085 13.3104 94.9573 12.5383C96.1845 11.6875 97.8685 11.2621 99.9925 11.2621L100.481 11.2779C100.528 11.2779 100.575 11.2779 100.638 11.2779C100.701 11.2779 100.748 11.2937 100.811 11.2937C100.858 11.3094 100.921 11.3094 100.968 11.3094C101.031 11.3094 101.078 11.3251 101.125 11.3251C101.063 10.0174 100.496 9.22961 99.4577 9.02481C99.0957 8.94601 98.7337 8.91453 98.3561 8.91453C97.9785 8.91453 97.5849 8.94601 97.2073 9.02481C96.8297 9.10357 96.4677 9.19813 96.1061 9.30841C95.3349 9.56049 94.7685 9.85985 94.4381 10.175L94.4065 10.1592L94.0449 7.44925C95.4765 6.67721 97.0817 6.29905 98.7021 6.31481C101.346 6.31481 103.014 7.27593 103.753 9.21389ZM101.141 16.4458V13.594C100.921 13.5625 100.685 13.5467 100.465 13.5467H99.9769C98.1989 13.5467 97.0817 13.9564 96.5937 14.7599C96.4521 14.9805 96.3893 15.2483 96.3893 15.5004C96.3893 15.7368 96.4365 15.9731 96.5309 16.1937C96.6409 16.3985 96.7985 16.5718 97.0029 16.6979C97.4277 16.9499 98.0413 17.076 98.8597 17.076C99.6465 17.0445 100.433 16.8239 101.141 16.4458ZM115.208 12.1917C115.68 12.4123 116.089 12.7117 116.436 13.1055C117.002 13.7358 117.301 14.6023 117.301 15.7053C117.317 16.8081 116.813 17.8638 115.948 18.5255C115.004 19.2818 113.682 19.6599 111.983 19.6599C109.937 19.6599 108.332 19.3133 107.199 18.6201V15.3586C107.199 15.3429 107.262 15.4059 107.388 15.5477C107.593 15.7525 107.829 15.9258 108.08 16.0676C108.442 16.2882 108.836 16.4773 109.245 16.6191C110.205 16.9499 111.212 17.1233 112.235 17.1075C113.619 17.1075 114.311 16.6349 114.311 15.6895C114.327 15.4059 114.17 15.1381 113.918 15.012C113.446 14.7599 112.754 14.5708 111.841 14.4448C111.07 14.3503 110.315 14.1454 109.575 13.8776C109.04 13.6728 108.553 13.3734 108.127 12.9953C107.451 12.3335 107.105 11.4827 107.105 10.4428C107.105 9.16661 107.593 8.15825 108.553 7.41773C109.512 6.67721 110.834 6.33057 112.518 6.33057C114.201 6.33057 115.617 6.80325 116.797 7.78009C116.75 8.00069 116.687 8.20549 116.625 8.39457C116.436 8.94601 116.294 9.33993 116.2 9.56049L115.916 10.2853C115.901 10.3168 115.901 10.3641 115.885 10.3956C115.806 10.3168 115.743 10.2223 115.696 10.1277C115.193 9.52897 114.39 9.13509 113.336 8.94601C113.005 8.86725 112.675 8.83573 112.329 8.83573C110.865 8.83573 110.142 9.27689 110.142 10.1907C110.142 10.4901 110.315 10.7737 110.598 10.8997C111.165 11.2149 111.951 11.4512 112.943 11.593C113.934 11.7506 114.673 11.9396 115.208 12.1917ZM78.6245 6.31481C76.9093 6.31481 75.4933 6.83477 74.4077 7.85889C73.3849 8.80421 72.8341 10.1435 72.8653 11.53C72.8341 12.7589 73.3217 13.9564 74.2185 14.7914C73.4321 15.4374 73.0545 16.1937 73.0545 17.0917C73.0545 17.5802 73.1173 18.0686 73.2433 18.5255C73.3689 18.9667 73.6365 19.3448 73.9985 19.6284C72.6453 20.4005 71.9845 21.6294 72.0317 23.331C72.0629 24.8121 72.6925 25.978 73.9041 26.8603C75.1157 27.7427 76.7361 28.1996 78.7189 28.1996C80.7013 28.1996 82.1805 27.8057 83.1877 27.0337C84.1945 26.2616 84.6981 25.1272 84.6981 23.6619C84.6981 22.1966 84.3049 21.0622 83.5025 20.2744C83.0145 19.8175 82.4481 19.4551 81.8345 19.203C80.9217 18.8564 79.9621 18.6043 78.9865 18.4783C77.7749 18.2892 76.9093 18.0686 76.3745 17.8008C76.1857 17.7377 76.0125 17.6117 75.9025 17.4541C75.8237 17.2808 75.7921 17.1075 75.7921 16.9185C75.7921 16.6821 75.9497 16.367 76.2485 15.9573C76.9725 16.1937 77.7117 16.3197 78.4673 16.3197C80.1037 16.3197 81.4409 15.8155 82.4953 14.8072C82.9673 14.3345 83.3449 13.7831 83.5969 13.1686C83.8641 12.5068 83.9901 11.7978 83.9745 11.0888C83.9745 10.3325 83.8013 9.59201 83.4553 8.93025C83.4553 8.93025 83.4553 8.91453 83.4393 8.91453H84.7137V6.31481H78.6245ZM76.5161 20.6841L77.1453 20.7944C78.9077 21.0622 80.1509 21.4246 80.8589 21.8973C81.5041 22.3069 81.8185 22.8584 81.8185 23.5359C81.8185 24.9539 80.8273 25.6471 78.8449 25.6471C77.6805 25.6471 76.7361 25.3951 76.0125 24.9224C75.6977 24.7175 75.4301 24.4497 75.2413 24.1346C75.0525 23.8195 74.9425 23.4571 74.9581 23.0947C74.9741 22.6378 75.0997 22.2124 75.3201 21.8185C75.6193 21.3301 76.0281 20.9362 76.5161 20.6841ZM80.3081 13.0583C79.8517 13.4995 79.2381 13.7358 78.6089 13.7358C77.7433 13.7358 77.0509 13.4837 76.5001 12.9953C76.2641 12.7904 76.0753 12.5383 75.9497 12.2547C75.8237 11.9869 75.7609 11.6875 75.7609 11.3882C75.7609 11.0731 75.8237 10.7737 75.9337 10.4901C76.3113 9.48173 77.1613 8.97753 78.4985 8.97753C79.3009 8.97753 79.9461 9.19813 80.3869 9.62353C80.8433 10.0647 81.0949 10.6792 81.0793 11.3094C81.0793 11.9554 80.7961 12.6014 80.3081 13.0583Z" fill="currentColor"/>
</g>
<defs>
<clipPath id="clip0_71_213">
<rect width="116.785" height="27.4625" fill="white" transform="translate(0.516113 0.768555)"/>
</clipPath>
</defs>
</svg>
