<svg width="77" height="11" viewBox="0 0 77 11" fill="none" xmlns="http://www.w3.org/2000/svg">
<g clip-path="url(#clip0_71_209)">
<path fill-rule="evenodd" clip-rule="evenodd" d="M0.527344 10.6834H8.69767L10.435 6.61709H18.5046L16.7799 10.6834H25.0635L29.6208 0.586914H21.2364L19.7132 4.02374H11.6939L13.1542 0.586914H4.98388L0.527344 10.6834Z" fill="currentColor"/>
<path fill-rule="evenodd" clip-rule="evenodd" d="M47.6483 3.94787C55.441 3.94787 55.441 3.94787 55.441 3.94787C55.3151 2.22317 53.7037 1.11533 50.4935 0.62435C44.0604 -0.357599 37.1238 0.00748134 32.1763 2.71414C28.2108 4.92982 27.9716 8.12745 31.8112 9.71368C35.1599 11.0607 41.958 11.1866 46.9056 10.3306C50.1284 9.83957 52.4699 8.73173 53.8422 7.2588C45.9236 7.2588 45.9236 7.2588 45.9236 7.2588C44.9417 8.00156 43.5695 8.36665 41.9706 8.49254C37.5141 8.49254 36.8972 7.1455 37.7659 5.54668C38.6345 3.82198 40.611 2.71414 43.582 2.71414C45.911 2.58825 47.0315 3.07922 47.6483 3.94787Z" fill="currentColor"/>
<path fill-rule="evenodd" clip-rule="evenodd" d="M67.9295 0.586914L64.4297 8.17814H76.062L75.1179 10.6834H54.9375L59.4948 0.586914H67.9295Z" fill="currentColor"/>
</g>
<defs>
<clipPath id="clip0_71_209">
<rect width="76" height="11" fill="white" transform="translate(0.30127)"/>
</clipPath>
</defs>
</svg>
