<svg width="68" height="37" viewBox="0 0 68 37" fill="none" xmlns="http://www.w3.org/2000/svg">
<path fill-rule="evenodd" clip-rule="evenodd" d="M42.5032 0.598145H6.56909V36.4017H42.5032V0.598145ZM23.0605 31.3854C23.9482 32.0083 24.9069 32.5243 25.9164 32.9227L25.2569 34.457C23.9528 33.9697 22.7341 33.2803 21.6459 32.4142C20.3763 33.1048 18.95 33.4591 17.5037 33.443C16.0438 33.4625 14.6063 33.0841 13.3465 32.3488C12.112 31.6284 11.1161 30.5637 10.4816 29.2861C9.79561 27.9002 9.45183 26.371 9.47884 24.8259C9.46096 23.2808 9.80749 21.7531 10.4906 20.3657C11.114 19.07 12.1212 17.9959 13.3764 17.2882C14.6527 16.5794 16.0933 16.2165 17.5544 16.2356C19.0276 16.2151 20.4789 16.5932 21.7533 17.3298C22.9881 18.0468 23.9827 19.1112 24.6123 20.3895C25.2866 21.7705 25.625 23.2904 25.6001 24.8259C25.619 26.0872 25.4046 27.3411 24.9674 28.5249C24.5515 29.6063 23.9014 30.583 23.0634 31.3854H23.0605ZM18.1513 28.5666C19.312 28.863 20.3957 29.4033 21.3296 30.1514C22.6466 28.9799 23.3052 27.2057 23.3052 24.8289C23.3328 23.6196 23.0945 22.419 22.6068 21.3113C22.1748 20.3459 21.4656 19.5296 20.5686 18.9652C19.4535 18.2939 18.1454 18.0127 16.8517 18.1662C15.558 18.3197 14.3527 18.8992 13.4271 19.8127C12.3309 20.9386 11.7828 22.6157 11.7828 24.8438C11.7828 27.0104 12.3259 28.6716 13.4122 29.8273C13.9386 30.394 14.5805 30.8418 15.295 31.1408C16.0094 31.4398 16.7798 31.583 17.5544 31.5608C18.3317 31.5664 19.102 31.4157 19.8195 31.1178C19.1397 30.6801 18.3913 30.3585 17.6051 30.1663L18.1513 28.5666ZM31.7896 18.4865V33.1605H34.0189V18.4865H39.5936V16.521H26.2358V18.4865H31.7896Z" fill="currentColor"/>
<path d="M3.65644 16.5239H1.01831V33.1604H3.65644V16.5239Z" fill="currentColor"/>
<path d="M48.0509 16.5239H45.4128V33.1604H48.0509V16.5239Z" fill="currentColor"/>
<path d="M59.3558 33.5559C57.7732 33.5748 56.2099 33.2084 54.8017 32.4885C53.4662 31.8105 52.3768 30.7334 51.6861 29.4079C50.9768 28.0181 50.6173 26.4771 50.6386 24.918C50.6302 23.3328 50.9855 21.7665 51.6772 20.3389C52.3104 18.9834 53.3667 17.8683 54.6883 17.1602C56.0873 16.4475 57.6416 16.091 59.2125 16.1225C60.3505 16.108 61.4809 16.3099 62.543 16.7172C63.4639 17.0576 64.2796 17.6316 64.9096 18.3823C65.5351 19.2044 65.9795 20.1487 66.2137 21.1536L66.2406 21.2607L64.0203 21.8553L63.9874 21.7513C63.797 21.0485 63.4828 20.385 63.0593 19.7918C62.6465 19.2863 62.1086 18.8968 61.4985 18.6618C60.7725 18.37 59.9953 18.2255 59.2125 18.2366C58.3258 18.2169 57.4437 18.3704 56.6162 18.6886C55.9481 18.9485 55.3473 19.355 54.8584 19.878C54.423 20.3533 54.0691 20.8968 53.8109 21.4866C53.3838 22.5397 53.1689 23.6663 53.1783 24.8021C53.137 26.0663 53.3989 27.3222 53.9423 28.4654C54.4235 29.412 55.2007 30.1769 56.1566 30.6449C57.1168 31.1184 58.174 31.3636 59.2454 31.3615C60.9875 31.3294 62.6743 30.7463 64.062 29.6964V26.7645H59.0842V24.579L66.4525 24.5642V30.9095L66.4107 30.9423C65.3832 31.7741 64.2299 32.4385 62.9937 32.9107C61.8297 33.3416 60.5974 33.5601 59.3558 33.5559Z" fill="currentColor"/>
</svg>
