<svg width="140" height="53" viewBox="0 0 140 53" fill="none" xmlns="http://www.w3.org/2000/svg">
<g clip-path="url(#clip0_71_244)">
<path d="M113.038 0.13916L0.30127 0.21191L0.30777 2.52391L115.351 2.44951L113.038 0.13916Z" fill="url(#paint0_linear_71_244)"/>
<path d="M2.61392 2.52368L2.64992 52.8585L0.33567 52.8605L0.30127 0.213379L2.61392 2.52368Z" fill="url(#paint1_linear_71_244)"/>
<path d="M31.3038 33.6954C31.3059 36.0823 30.6626 39.9793 25.1317 39.9818C22.0393 39.9854 19.028 38.2974 19.0225 34.2486L19.0241 32.6373L22.7114 32.6362L22.7099 33.4668C22.7134 35.2605 23.1555 36.5579 25.0773 36.5549C27.232 36.5532 27.2293 34.817 27.2286 33.5156L27.2236 21.001L31.2961 21.0005L31.3038 33.6954Z" fill="currentColor"/>
<path d="M46.0503 27.2203C45.7908 25.3764 44.0283 23.9757 42.0018 23.9778C38.3367 23.9811 36.9625 27.0956 36.9667 30.3421C36.9661 33.4305 38.3467 36.5472 42.0073 36.5453C44.4998 36.5442 45.9023 34.8278 46.2098 32.3887L50.1613 32.3865C49.7473 37.006 46.5528 39.9692 42.0103 39.971C36.2714 39.9773 32.8913 35.6938 32.8904 30.345C32.8861 24.8417 36.2578 20.5528 41.9958 20.5483C46.0723 20.5472 49.5018 22.9317 50.0003 27.2162L46.0503 27.2203Z" fill="currentColor"/>
<path d="M55.6847 24.408L58.5892 24.41C62.6437 24.405 63.9427 26.7907 63.9447 30.5327C63.9472 34.6349 61.6907 36.0914 59.3272 36.0913L55.6937 36.0957L55.6847 24.408ZM51.6157 39.5202L59.6167 39.5171C65.2767 39.5142 68.0232 35.5148 68.0202 30.1416C68.0167 23.986 64.4062 20.9758 59.6042 20.981L51.6052 20.9851L51.6157 39.5202Z" fill="currentColor"/>
<path d="M72.6967 31.3586C72.7502 30.3187 73.4227 28.5019 75.7622 28.4989C77.5492 28.4975 78.3552 29.4842 78.6962 31.3546L72.6967 31.3586ZM82.3837 33.6873C82.6407 29.5603 80.4327 25.7165 75.8607 25.7183C71.7842 25.7265 69.0102 28.7903 69.0117 32.8137C69.0142 36.9688 71.6382 39.8759 75.8702 39.8734C78.9097 39.8711 81.1167 38.5211 82.1512 35.3503L78.9057 35.3519C78.6712 36.1838 77.4792 37.0956 76.0012 37.094C73.9477 37.0971 72.8042 36.0319 72.6982 33.6944L82.3837 33.6873Z" fill="currentColor"/>
<path d="M92.8992 30.8019C92.6652 29.2921 91.7047 28.487 90.1737 28.4884C87.8072 28.4933 87.0302 30.881 87.0327 32.8574C87.0342 34.7764 87.7902 37.0875 90.0997 37.0844C91.8117 37.0821 92.8002 35.9943 93.0322 34.3537L96.5887 34.3536C96.1222 37.9115 93.6592 39.8585 90.1262 39.8625C86.0757 39.866 83.3477 37.0101 83.3457 32.9867C83.3442 28.8056 85.8337 25.714 90.1967 25.7105C93.3637 25.7068 96.2722 27.3699 96.5082 30.7951L92.8992 30.8019Z" fill="currentColor"/>
<path d="M106.281 34.2962C106.28 35.1027 106.178 37.3865 103.297 37.3886C102.101 37.3894 101.037 37.0514 101.037 35.6765C101.036 34.3285 102.076 33.9347 103.216 33.6992C104.358 33.4925 105.656 33.4646 106.28 32.9213L106.281 34.2962ZM101.449 30.1982C101.577 28.7432 102.486 28.1704 103.887 28.1692C105.186 28.171 106.276 28.4022 106.277 29.984C106.277 31.4924 104.172 31.4154 101.916 31.7552C99.6304 32.068 97.3454 32.795 97.3489 35.8344C97.3494 38.5868 99.3759 39.8555 101.921 39.855C103.553 39.8541 105.27 39.4132 106.439 38.19C106.464 38.6334 106.567 39.0732 106.698 39.4872L110.437 39.4847C110.1 38.9438 109.971 37.7208 109.969 36.5008L109.966 29.5153C109.962 26.2965 106.742 25.7019 104.067 25.7036C101.056 25.7042 97.9659 26.7431 97.7609 30.1984L101.449 30.1982Z" fill="currentColor"/>
<path d="M124.58 39.4758L121.073 39.4806L121.074 37.6103L120.992 37.6088C120.061 39.1179 118.451 39.8422 116.894 39.8457C112.974 39.8455 111.983 37.6439 111.982 34.3179L111.977 26.0595L115.664 26.0548L115.672 33.6413C115.672 35.8469 116.317 36.9385 118.034 36.935C120.033 36.9347 120.89 35.8184 120.886 33.0916L120.885 26.0533L124.572 26.0522L124.58 39.4758Z" fill="currentColor"/>
<path d="M129.964 32.4096L125.548 26.0503L129.754 26.0489L132.12 29.5535L134.454 26.0484L138.528 26.0444L134.122 32.331L139.083 39.4687L134.879 39.472L132.073 35.241L129.27 39.4753L125.143 39.4734L129.964 32.4096Z" fill="currentColor"/>
</g>
<defs>
<linearGradient id="paint0_linear_71_244" x1="115.351" y1="1.33141" x2="109.433" y2="26.7436" gradientUnits="userSpaceOnUse">
<stop stop-color="white" stop-opacity="0"/>
<stop offset="1" stop-color="white"/>
</linearGradient>
<linearGradient id="paint1_linear_71_244" x1="0.93982" y1="11.0349" x2="1.47557" y2="52.8605" gradientUnits="userSpaceOnUse">
<stop stop-color="white"/>
<stop offset="1" stop-color="white" stop-opacity="0"/>
</linearGradient>
<clipPath id="clip0_71_244">
<rect width="138.782" height="52.7214" fill="white" transform="translate(0.30127 0.13916)"/>
</clipPath>
</defs>
</svg>
