<svg width="63" height="39" viewBox="0 0 63 39" fill="none" xmlns="http://www.w3.org/2000/svg">
<g clip-path="url(#clip0_71_227)">
<mask id="mask0_71_227" style="mask-type:luminance" maskUnits="userSpaceOnUse" x="0" y="0" width="62" height="39">
<path d="M61.4199 0.980957H0.307129V38.0191H61.4199V0.980957Z" fill="white"/>
</mask>
<g mask="url(#mask0_71_227)">
<path d="M6.63013 37.9942H54.8022L30.8439 13.8413L6.63013 37.9942Z" fill="white"/>
<path d="M5.70991 36.8066L9.46296 33.1156L8.21287 31.8231L5.85561 34.1424L1.70302 29.8501L0.306885 31.2233L5.70991 36.8066Z" fill="white"/>
<path d="M10.2864 32.2746L14.132 28.4913L13.0759 27.4007L10.6342 29.8021L9.46168 28.5902L11.4183 26.6656L10.3132 25.5245L8.3566 27.448L7.35201 26.41L9.71344 24.0869L8.65808 22.9966L4.82471 26.7673L10.2864 32.2746Z" fill="white"/>
<path d="M22.8733 14.3397C21.3224 12.7369 18.632 12.9286 17.3364 14.2033C16.0404 15.4779 15.379 18.0195 17.2091 19.9108C19.2193 21.9878 21.611 21.2334 22.907 19.9595C24.8178 18.0801 24.1376 15.6462 22.8733 14.3397ZM21.7334 18.8619C20.8756 19.7057 19.8268 19.4768 18.6285 18.2382C17.6215 17.1978 17.682 16.1524 18.4143 15.432C18.9178 14.9367 19.9405 14.4935 21.1572 15.751C22.5454 17.1855 22.5912 18.0181 21.7334 18.8619Z" fill="white"/>
<path d="M27.1991 15.6709L28.6178 14.275L26.4834 12.0696L25.2059 6.71094L23.5795 8.31089L24.4256 11.351L21.5672 10.2898L20.0337 11.798L24.9068 13.3755L27.1991 15.6709Z" fill="white"/>
<path d="M19.6344 23.1196C19.6344 23.1196 16.1814 21.9319 16.0173 21.9607C15.9641 21.9694 16.759 19.837 14.9731 18.8919C14.9731 18.8919 13.6479 18.1687 12.3216 19.3833L9.49487 22.1917L14.9442 27.7242L16.3859 26.3062L13.4371 23.2598L18.2038 24.5268L19.6344 23.1196ZM14.2863 22.36C13.4851 23.1466 13.377 23.2087 13.377 23.2087C13.377 23.2087 12.121 21.9109 12.0765 21.865C12.032 21.819 12.9747 21.0043 13.1231 20.8582C13.1861 20.7961 13.773 20.4101 14.2588 20.9118C14.2588 20.9118 15.0871 21.5719 14.2863 22.36Z" fill="white"/>
<path d="M26.7586 7.76675L25.4978 6.4851L31.0023 0.980957L32.8039 2.81193L30.8208 6.74662L34.8639 4.90583L36.5973 6.66809L31.0927 12.1722L29.7641 10.8219L32.6697 7.91679L28.6948 9.7348L27.8731 8.89941L29.7206 4.89601L26.7586 7.76675Z" fill="white"/>
<path d="M36.3161 17.4817L32.4995 13.6027L38.0044 8.09863L41.8318 11.9891L40.7198 13.1011L38.3219 10.664L37.4251 11.5604L39.3164 13.4828L38.1584 14.6404L36.2786 12.7295L35.0754 13.9323L37.4508 16.3466L36.3161 17.4817Z" fill="white"/>
<path d="M48.9016 19.1748L50.32 20.617L46.1545 24.7816L48.4847 27.1493L47.1452 28.4895L43.3967 24.6793L48.9016 19.1748Z" fill="white"/>
<path d="M48.1357 29.4964L53.6406 23.9922L55.0253 25.3994L49.5204 30.9032L48.1357 29.4964Z" fill="white"/>
<path d="M52.0307 33.4563L50.7358 32.14L56.241 26.6362L58.1212 28.546L56.5147 34.2609L60.1586 30.6171L61.4194 31.8988L55.9149 37.4026L54.2708 35.7325L55.6864 29.733L52.0307 33.4563Z" fill="white"/>
<path d="M46.4141 16.6463L43.0706 13.2476L37.5542 18.7405L38.9726 20.182L41.9802 17.1749L40.8977 22.1388L42.3498 23.615C42.3498 23.615 43.4945 20.0642 43.5296 19.9163C43.5296 19.9163 44.77 20.6051 46.131 19.4255C46.131 19.4255 47.4364 18.1431 46.4141 16.6463ZM44.3725 18.256C44.3725 18.256 43.6698 18.7317 43.0505 18.1025L42.0831 17.0725C42.0831 17.0725 43.2518 15.9038 43.3992 15.7562C43.3992 15.7562 44.2999 16.6718 44.4125 16.7861C44.5248 16.9004 45.2349 17.4389 44.3725 18.256Z" fill="white"/>
</g>
</g>
<defs>
<clipPath id="clip0_71_227">
<rect width="62" height="39" fill="white" transform="translate(0.083252)"/>
</clipPath>
</defs>
</svg>
