<svg width="127" height="76" viewBox="0 0 127 76" fill="none" xmlns="http://www.w3.org/2000/svg">
<g clip-path="url(#clip0_5729_5163)">
<path d="M13.377 75.2268H112.44L63.1712 26.1377L13.377 75.2268Z" fill="currentColor"/>
<path d="M11.484 72.8127L19.202 65.3109L16.6312 62.684L11.7837 67.3978L3.24412 58.6741L0.373047 61.4649L11.484 72.8127Z" fill="currentColor"/>
<path d="M20.8959 63.6028L28.804 55.9137L26.6323 53.6971L21.611 58.5776L19.1997 56.1146L23.2235 52.203L20.951 49.8839L16.9272 53.7933L14.8613 51.6836L19.7175 46.9619L17.5472 44.7461L9.66406 52.4096L20.8959 63.6028Z" fill="currentColor"/>
<path d="M46.7798 27.1502C43.5905 23.8927 38.0579 24.2824 35.3935 26.873C32.7284 29.4636 31.3683 34.6292 35.1318 38.4731C39.2657 42.6946 44.184 41.1613 46.8492 38.5721C50.7786 34.7524 49.3799 29.8056 46.7798 27.1502ZM44.4358 36.3413C42.6716 38.0563 40.5149 37.591 38.0508 35.0738C35.9799 32.9591 36.1043 30.8345 37.6103 29.3703C38.6457 28.3636 40.7488 27.463 43.2509 30.0187C46.1055 32.9342 46.1999 34.6263 44.4358 36.3413Z" fill="currentColor"/>
<path d="M55.675 29.856L58.5925 27.0189L54.2033 22.5366L51.5761 11.6455L48.2317 14.8973L49.9715 21.076L44.0935 18.9193L40.9399 21.9844L50.9612 25.1906L55.675 29.856Z" fill="currentColor"/>
<path d="M40.1188 44.9956C40.1188 44.9956 33.018 42.5817 32.6804 42.6401C32.571 42.6579 34.2057 38.3239 30.533 36.403C30.533 36.403 27.8078 34.9331 25.0805 37.4019L19.2676 43.1097L30.4737 54.3542L33.4384 51.4721L27.3745 45.2806L37.1769 47.8555L40.1188 44.9956ZM29.1207 43.4517C27.4732 45.0505 27.2508 45.1766 27.2508 45.1766C27.2508 45.1766 24.6679 42.539 24.5764 42.4456C24.4848 42.3523 26.4234 40.6965 26.7288 40.3993C26.8582 40.2732 28.0653 39.4888 29.0643 40.5084C29.0643 40.5084 30.7676 41.85 29.1207 43.4517Z" fill="currentColor"/>
<path d="M54.7697 13.7917L52.1768 11.1868L63.4966 0L67.2014 3.72133L63.1233 11.7183L71.4376 7.97703L75.0023 11.5587L63.6825 22.7455L60.9501 20.001L66.9254 14.0966L58.7513 17.7916L57.0615 16.0937L60.8608 7.95708L54.7697 13.7917Z" fill="currentColor"/>
<path d="M74.4245 33.5353L66.5757 25.6516L77.8962 14.4648L85.7672 22.372L83.4803 24.6321L78.5491 19.6788L76.7049 21.5007L80.5942 25.408L78.213 27.7606L74.3472 23.8768L71.873 26.3214L76.7578 31.2283L74.4245 33.5353Z" fill="currentColor"/>
<path d="M100.306 36.9778L103.223 39.909L94.6567 48.3733L99.4485 53.1855L96.694 55.9093L88.9854 48.1653L100.306 36.9778Z" fill="currentColor"/>
<path d="M98.731 57.9563L110.051 46.7695L112.899 49.6295L101.578 60.8155L98.731 57.9563Z" fill="currentColor"/>
<path d="M106.74 66.0031L104.077 63.3277L115.398 52.1416L119.265 56.0232L115.961 67.6382L123.455 60.2326L126.047 62.8375L114.728 74.0236L111.347 70.6293L114.258 58.4357L106.74 66.0031Z" fill="currentColor"/>
<path d="M95.1899 31.8385L88.3143 24.9309L76.9702 36.0949L79.887 39.0247L86.0718 32.9129L83.8458 43.0018L86.832 46.0021C86.832 46.0021 89.186 38.7853 89.2582 38.4846C89.2582 38.4846 91.809 39.8846 94.6078 37.4871C94.6078 37.4871 97.2922 34.8808 95.1899 31.8385ZM90.9916 35.1102C90.9916 35.1102 89.5464 36.0771 88.2729 34.7982L86.2835 32.7049C86.2835 32.7049 88.6869 30.3294 88.9901 30.0295C88.9901 30.0295 90.8422 31.8905 91.0739 32.1228C91.3048 32.355 92.765 33.4494 90.9916 35.1102Z" fill="currentColor"/>
</g>
<defs>
<clipPath id="clip0_5729_5163">
<rect width="125.675" height="75.2773" fill="currentColor" transform="translate(0.373047)"/>
</clipPath>
</defs>
</svg>
