<svg width="140" height="19" viewBox="0 0 140 19" fill="none" xmlns="http://www.w3.org/2000/svg">
<g clip-path="url(#clip0_71_255)">
<path d="M0.083252 8.58789L9.62792 18.4759V8.58789H0.083252Z" fill="currentColor"/>
<path d="M31.7754 18.5H28.0919V7.796L22.555 13.532L17.0182 7.796V18.5H13.3115V0.5H15.2575L22.5782 8.084L29.8062 0.5H31.7754V18.5ZM53.5057 18.452H36.6404V0.5H52.7875V4.196H40.347V7.148H48.5249V10.748H40.347V14.852H53.5057V18.452ZM76.3017 18.452H72.178L67.6142 11.132H61.5909V18.452H57.9305V0.595999H69.5139C71.2282 0.595999 72.5487 1.028 73.5912 1.868C74.7264 2.804 75.3055 4.124 75.3055 5.852C75.3055 7.028 74.9812 8.06 74.3557 8.996C73.6839 9.932 72.8267 10.556 71.7379 10.964L76.3017 18.452ZM71.5525 5.852C71.5525 5.372 71.4135 4.964 71.0892 4.676C70.7649 4.436 70.1857 4.292 69.4675 4.292H61.5909V7.58H69.4675C70.232 7.58 70.7417 7.436 71.0892 7.148C71.4135 6.668 71.5525 6.284 71.5525 5.852ZM98.3564 18.452H94.0242L87.607 9.524L84.9892 11.828V18.452H81.2825V0.595999H84.9892V7.268L92.6342 0.595999H97.7772L90.2712 7.172L98.3564 18.452ZM118.21 18.452H102.642V0.5H106.349V14.852H118.21V18.452ZM139.083 18.452H122.218V0.5H138.365V4.196H125.878V7.148H134.056V10.748H125.878V14.852H139.083V18.452Z" fill="currentColor"/>
</g>
<defs>
<clipPath id="clip0_71_255">
<rect width="139" height="18" fill="white" transform="translate(0.083252 0.5)"/>
</clipPath>
</defs>
</svg>
