<svg width="40" height="45" viewBox="0 0 40 45" fill="none" xmlns="http://www.w3.org/2000/svg">
<g clip-path="url(#clip0_71_309)">
<path fill-rule="evenodd" clip-rule="evenodd" d="M4.84714 33.5143C8.16429 38.4213 13.209 42.2852 19.8425 44.9997C26.4758 42.2852 31.5206 38.4213 34.8379 33.5143C37.5015 29.5742 39.0656 24.9533 39.4873 19.7801C40.1671 11.4349 37.6131 4.29915 37.3062 3.4791C36.5274 3.1063 29.7344 0 19.8425 0C9.95059 0 3.15759 3.1063 2.37869 3.4791C2.07184 4.29915 -0.482061 11.4349 0.197889 19.7802C0.619439 24.9534 2.18359 29.5742 4.84714 33.5143ZM5.64459 32.9752C8.79239 37.6319 13.568 41.3257 19.8425 43.9582C26.1169 41.3257 30.8926 37.6319 34.0406 32.9752C36.6102 29.1739 38.12 24.7083 38.5279 19.702C39.1303 12.3066 37.1279 5.88455 36.5374 4.185C34.9058 3.4612 28.6359 0.9625 19.8425 0.9625C11.0489 0.9625 4.77909 3.4612 3.14769 4.185C2.55714 5.8846 0.554589 12.3067 1.15714 19.702C1.56504 24.7083 3.07474 29.1739 5.64459 32.9752ZM6.44189 32.4363C9.42019 36.842 13.9273 40.3651 19.8425 42.9122C25.7576 40.3652 30.2647 36.842 33.2431 32.4362C35.719 28.7738 37.1742 24.4631 37.5687 19.6237C38.1144 12.9241 36.4722 7.0553 35.7626 4.8991C33.6763 4.0225 27.8418 1.92495 19.8425 1.92495C11.843 1.92495 6.00864 4.0226 3.92244 4.8992C3.21284 7.0554 1.57059 12.924 2.11644 19.6238C2.51084 24.4631 3.96604 28.7738 6.44189 32.4363ZM11.4493 31.5975C11.3056 31.457 11.1358 31.3455 10.9447 31.2657C10.7529 31.1855 10.5445 31.145 10.3257 31.145C10.1068 31.145 9.89859 31.1855 9.70659 31.2657C9.51559 31.3455 9.34579 31.457 9.20219 31.5975C9.05844 31.7378 8.94414 31.9037 8.86264 32.0903C8.78069 32.2776 8.73909 32.4812 8.73909 32.6954C8.73909 32.9095 8.78069 33.1129 8.86264 33.3002C8.94414 33.4868 9.05834 33.6526 9.20219 33.7933C9.34579 33.9336 9.51549 34.0452 9.70659 34.125C9.89834 34.2051 10.1067 34.2457 10.3257 34.2457C10.5447 34.2457 10.753 34.2051 10.9447 34.125C11.1358 34.0452 11.3056 33.9336 11.4493 33.7933C11.5929 33.653 11.707 33.4871 11.7888 33.3002C11.8709 33.1128 11.9124 32.9092 11.9124 32.6954C11.9124 32.4815 11.8709 32.278 11.7888 32.0903C11.7069 31.9035 11.5927 31.7375 11.4493 31.5975ZM11.3911 32.6954C11.3911 32.8443 11.3635 32.9852 11.3091 33.1135C11.2547 33.2421 11.1782 33.3548 11.082 33.4483C10.9855 33.5425 10.8708 33.6178 10.7411 33.6721C10.4837 33.7804 10.1675 33.7804 9.91019 33.6721C9.78044 33.6177 9.66584 33.5424 9.56924 33.4483C9.47314 33.3548 9.39679 33.2421 9.34239 33.1135C9.28804 32.9853 9.26034 32.8445 9.26034 32.6954C9.26034 32.5461 9.28794 32.4053 9.34239 32.2771C9.39679 32.1487 9.47304 32.036 9.56939 31.9422C9.66604 31.8482 9.78059 31.7729 9.91029 31.7186C10.039 31.6645 10.179 31.637 10.3258 31.637C10.4725 31.637 10.6124 31.6645 10.7413 31.7186C10.8707 31.7728 10.9853 31.848 11.0821 31.9422C11.1783 32.036 11.2548 32.1487 11.3092 32.2769C11.3635 32.4055 11.3911 32.5462 11.3911 32.6954ZM14.8303 32.2049C14.8303 32.5585 14.6719 32.8707 14.3485 33.0535L15.2758 34.2113H14.5744L13.3455 32.7258H13.6485H13.7452C14.0328 32.7258 14.2659 32.4925 14.2659 32.2049C14.2659 31.9172 14.0328 31.6841 13.7452 31.6841H13.6485H13.1953V34.2113H12.6742V31.1794H13.7744C14.4612 31.1794 14.8303 31.6385 14.8303 32.2049ZM17.9793 33.7406H16.4359V31.1794H15.9147V34.2113H17.7259L17.9793 33.7406ZM18.4479 34.2113L19.99 30.9716L21.5321 34.2113H20.9578L20.526 33.2858H19.7718L19.99 32.8152H20.3031L19.99 32.1517L19.0223 34.2113H18.4479ZM22.1077 32.3585L24.1123 34.2992V31.289H23.5383V33.0216L21.6179 31.0808V33.1661L22.1077 34.0912V32.3585ZM26.3446 31.2954C26.5347 31.3724 26.7016 31.4797 26.841 31.6144C26.9803 31.749 27.0915 31.9106 27.172 32.0948C27.2525 32.2793 27.2934 32.4813 27.2934 32.6954C27.2934 32.9094 27.2525 33.1116 27.172 33.296C27.0915 33.4801 26.9803 33.6417 26.841 33.7764C26.7016 33.911 26.5346 34.0183 26.3446 34.0953C26.1548 34.1722 25.9474 34.2114 25.7287 34.2114H24.7016V31.1795H25.7287C25.9474 31.1795 26.1547 31.2185 26.3446 31.2954ZM25.6773 31.6499H25.2229V33.7405H25.6773C25.8275 33.7405 25.9704 33.7136 26.1022 33.6606C26.2344 33.6071 26.352 33.5328 26.4514 33.4396C26.5504 33.3465 26.6296 33.2356 26.6866 33.1091C26.7433 32.9836 26.7721 32.8444 26.7721 32.6953C26.7721 32.5489 26.7432 32.4103 26.6865 32.2833C26.6293 32.1555 26.5502 32.0438 26.4514 31.9511C26.352 31.8577 26.2345 31.7833 26.1022 31.73C25.9702 31.6768 25.8273 31.6499 25.6773 31.6499ZM30.8222 32.0903C30.7403 31.9035 30.626 31.7375 30.4828 31.5975C30.339 31.457 30.1693 31.3455 29.9781 31.2657C29.7862 31.1855 29.578 31.145 29.3591 31.145C29.1401 31.145 28.9319 31.1855 28.74 31.2657C28.5489 31.3455 28.3792 31.457 28.2355 31.5975C28.0918 31.7378 27.9776 31.9037 27.896 32.0903C27.814 32.2776 27.7724 32.4812 27.7724 32.6954C27.7724 32.9095 27.8141 33.1129 27.896 33.3002C27.9776 33.4868 28.0918 33.6526 28.2355 33.7933C28.3792 33.9336 28.5489 34.0452 28.7399 34.125C28.9318 34.2051 29.14 34.2457 29.359 34.2457C29.5781 34.2457 29.7865 34.2051 29.9781 34.125C30.1693 34.0452 30.3389 33.9336 30.4827 33.7933C30.6262 33.653 30.7404 33.4871 30.8223 33.3002C30.9041 33.1128 30.9457 32.9092 30.9457 32.6954C30.9458 32.4815 30.9042 32.278 30.8222 32.0903ZM30.4245 32.6954C30.4245 32.8443 30.397 32.9852 30.3425 33.1135C30.288 33.2421 30.2117 33.3548 30.1154 33.4483C30.0187 33.5425 29.9042 33.6178 29.7746 33.6721C29.517 33.7804 29.2008 33.7804 28.9435 33.6721C28.8136 33.6177 28.6991 33.5424 28.6026 33.4483C28.5065 33.3548 28.43 33.2421 28.3756 33.1135C28.3212 32.9853 28.2935 32.8445 28.2935 32.6954C28.2935 32.5461 28.3212 32.4053 28.3756 32.2771C28.43 32.1487 28.5064 32.036 28.6027 31.9422C28.6992 31.8482 28.8138 31.7729 28.9435 31.7186C29.0724 31.6645 29.2123 31.637 29.359 31.637C29.5058 31.637 29.6456 31.6645 29.7746 31.7186C29.904 31.7728 30.0186 31.848 30.1154 31.9422C30.2117 32.036 30.288 32.1487 30.3425 32.2769C30.397 32.4055 30.4245 32.5462 30.4245 32.6954ZM17.5155 37.419C17.5669 37.369 17.6122 37.3134 17.6519 37.2531L17.6518 37.9499C17.5664 38.0064 17.4751 38.0553 17.3782 38.0957C17.1864 38.1759 16.9782 38.2164 16.7592 38.2164C16.5402 38.2164 16.3317 38.1759 16.1401 38.0957C15.949 38.0159 15.7793 37.9043 15.6357 37.7639C15.4919 37.6234 15.3777 37.4575 15.2961 37.271C15.2142 37.0837 15.1726 36.88 15.1726 36.666C15.1726 36.4519 15.2141 36.2483 15.2961 36.061C15.3777 35.8744 15.492 35.7085 15.6357 35.5682C15.7793 35.4278 15.949 35.3163 16.1402 35.2364C16.3321 35.1562 16.5404 35.1157 16.7592 35.1157C16.9781 35.1157 17.1864 35.1562 17.3783 35.2364C17.4752 35.2769 17.5665 35.3257 17.6519 35.3821V36.0791C17.6121 36.0187 17.5668 35.9629 17.5155 35.9129C17.4187 35.8188 17.3042 35.7436 17.1747 35.6892C17.0458 35.6351 16.9059 35.6078 16.7592 35.6078C16.6123 35.6078 16.4725 35.6351 16.3437 35.6892C16.214 35.7437 16.0994 35.8189 16.0028 35.9129C15.9066 36.0067 15.8302 36.1195 15.7758 36.2477C15.7214 36.3761 15.6938 36.5169 15.6938 36.666C15.6938 36.8151 15.7214 36.9559 15.7758 37.0842C15.8302 37.2128 15.9066 37.3255 16.0028 37.419C16.0992 37.5129 16.2139 37.5883 16.3437 37.6427C16.601 37.7509 16.9172 37.7509 17.1747 37.6427C17.3043 37.5883 17.4189 37.513 17.5155 37.419ZM18.9265 35.1155H18.4053V38.1474H18.9265V35.1155ZM19.5809 35.1155H21.6072L21.9186 35.586H20.9435V38.1474H20.4224V35.586H19.5809V35.1155ZM24.3472 35.1155L23.5371 36.2705L22.7269 35.1155H22.111C22.1278 35.1499 23.2764 36.816 23.2764 36.816V38.1474H23.7977V36.816L24.9736 35.1155H24.3472ZM29.6707 17.4952C33.0216 17.3142 32.9112 15.3441 32.9112 15.3441C31.5377 15.9457 30.8013 15.4091 30.2078 14.9766C29.953 14.791 29.7245 14.6245 29.4832 14.5754C32.2522 13.6239 31.8412 11.5376 31.8412 11.5376C31.0991 12.4968 30.0962 12.2097 29.2851 11.9776C28.9189 11.8728 28.5918 11.7791 28.3455 11.8165C30.5734 10.3358 29.7168 8.2454 29.7168 8.2454C29.2991 9.81385 26.5581 9.34895 26.5581 9.34895C28.0747 7.1108 26.7239 5.58955 26.7239 5.58955C26.8373 7.2409 23.9584 7.6672 23.9584 7.6672C24.7053 4.7419 23.0305 4.00385 23.0305 4.00385C23.3621 5.39515 21.4253 6.49615 21.4253 6.49615L19.8425 3.40935L18.2596 6.49615C18.2596 6.49615 16.3229 5.39505 16.6543 4.00385C16.6543 4.00385 14.9797 4.7419 15.7267 7.6672C15.7267 7.6672 12.8476 7.2409 12.9611 5.58955C12.9611 5.58955 11.6102 7.1109 13.1268 9.34895C13.1268 9.34895 10.3859 9.8138 9.96814 8.2454C9.96814 8.2454 9.11154 10.3358 11.3394 11.8165C11.0932 11.7791 10.7661 11.8728 10.3999 11.9776C9.58884 12.2097 8.58584 12.4968 7.84379 11.5376C7.84379 11.5376 7.43269 13.6239 10.2018 14.5754C9.96044 14.6245 9.73194 14.791 9.47714 14.9767C8.88359 15.4091 8.14729 15.9457 6.77379 15.3441C6.77379 15.3441 6.66344 17.3142 10.0143 17.4952C9.59504 17.7416 9.35364 18.071 9.12319 18.3853C8.69379 18.9711 8.30264 19.5047 6.86989 19.3522C6.86989 19.3522 7.59174 21.1586 10.5597 20.38C10.2476 20.7082 10.0979 21.0699 9.95329 21.4191C9.67604 22.0888 9.41774 22.7127 8.06914 22.9675C8.06914 22.9675 9.40724 24.5981 11.9785 22.9307C11.8237 23.22 11.789 23.5567 11.7525 23.9102C11.6758 24.653 11.5915 25.47 10.3702 26.0765C10.3702 26.0765 12.2351 27.164 14.1961 24.8366C14.1693 25.2685 14.2321 25.6673 14.2919 26.0476C14.4264 26.9029 14.5462 27.6644 13.5991 28.497C13.5991 28.497 15.66 29.0585 16.8683 26.1715C16.9362 26.5593 17.1014 26.8743 17.2647 27.1857C17.6135 27.8506 17.9538 28.4994 17.3202 29.8079C17.3202 29.8079 18.8606 29.9265 19.8425 27.4098C20.8244 29.9265 22.3647 29.8079 22.3647 29.8079C21.7312 28.4994 22.0715 27.8506 22.4202 27.1856C22.5835 26.8743 22.7487 26.5593 22.8167 26.1715C24.025 29.0585 26.0859 28.497 26.0859 28.497C25.1386 27.6643 25.2584 26.9028 25.3931 26.0473C25.4529 25.6671 25.5156 25.2684 25.4889 24.8366C27.45 27.164 29.3148 26.0765 29.3148 26.0765C28.0936 25.47 28.0093 24.6531 27.9326 23.9103C27.8961 23.5568 27.8613 23.22 27.7065 22.9307C30.2779 24.5981 31.6158 22.9675 31.6158 22.9675C30.2673 22.7128 30.009 22.0888 29.7318 21.4191C29.5872 21.0699 29.4375 20.7083 29.1253 20.38C32.0933 21.1587 32.8151 19.3522 32.8151 19.3522C31.3823 19.5047 30.9911 18.971 30.5617 18.3853C30.3313 18.0709 30.0899 17.7416 29.6707 17.4952ZM15.3291 9.3571C16.666 9.3571 16.5509 8.32305 16.4071 8.08225C16.4071 8.08225 17.5212 8.1318 18.4554 8.81895C18.4554 8.81895 19.5695 7.5441 19.8425 6.5241C20.1156 7.5441 21.2295 8.81895 21.2295 8.81895C22.1637 8.1319 23.2777 8.08225 23.2777 8.08225C23.134 8.32315 23.019 9.3571 24.3558 9.3571C25.6925 9.3571 25.9727 9.79625 25.9727 9.79625C25.5848 9.71845 25.0386 9.64045 23.594 10.1292C22.1494 10.6179 22.4657 9.3571 22.4657 9.3571C20.4173 9.50585 19.8425 10.6493 19.8425 10.6493C19.8425 10.6493 19.2676 9.50585 17.2193 9.3571C17.2193 9.3571 17.5355 10.6178 16.091 10.1292C14.6465 9.64045 14.1002 9.71845 13.7121 9.79625C13.7121 9.79615 13.9924 9.3571 15.3291 9.3571ZM20.6977 18.9451C20.1371 19.2852 19.8425 19.7686 19.8425 19.7686C19.8425 19.7686 19.5478 19.2853 18.9873 18.9452C18.9873 18.9452 19.052 18.5468 18.9117 18.5204C18.7717 18.4939 18.3619 18.5098 18.3619 18.5098C18.3619 18.5098 17.7097 18.2441 17.5966 17.7129C17.5966 17.7129 17.9522 17.8138 18.4266 17.6652C18.8275 17.5394 19.0281 17.6414 19.1718 17.7145C19.198 17.7279 19.2225 17.7403 19.2458 17.7501C19.3968 17.8139 19.5549 17.8352 19.8424 17.8352C20.1299 17.8352 20.288 17.8138 20.439 17.7501C20.4623 17.7403 20.4866 17.7279 20.5129 17.7146C20.6565 17.6415 20.8572 17.5393 21.2581 17.6652C21.7326 17.8138 22.0882 17.7129 22.0882 17.7129C21.9749 18.2441 21.3228 18.5098 21.3228 18.5098C21.3228 18.5098 20.9131 18.4939 20.7731 18.5204C20.6329 18.5467 20.6977 18.9451 20.6977 18.9451ZM17.6432 14.7683C16.9462 14.7541 15.171 14.6267 15.1063 13.2667V13.2313C15.1063 13.2313 16.0897 13.0758 16.4647 13.2313C16.6606 13.3127 16.8488 13.4774 17.0438 13.648C17.5282 14.072 18.0543 14.5323 18.8435 13.8404C18.8435 13.8404 18.1033 15.4766 17.6432 16.2911C17.6432 16.2911 18.3404 14.7824 17.6432 14.7683ZM22.0415 14.7683C21.3445 14.7824 22.0415 16.2911 22.0415 16.2911C21.5817 15.4766 20.8414 13.8404 20.8414 13.8404C21.6305 14.5323 22.1566 14.072 22.6411 13.648C22.8361 13.4774 23.0244 13.3127 23.2203 13.2313C23.5952 13.0758 24.5786 13.2313 24.5786 13.2313V13.2667C24.5137 14.6267 22.7387 14.754 22.0415 14.7683ZM27.3167 19.0674C25.3115 18.6744 24.5137 19.5881 24.5137 19.5881C25.8183 19.7686 26.377 21.3038 26.377 21.3038C25.4212 20.7195 24.3629 20.8524 24.3629 20.8524C25.2468 23.0772 23.5162 24.134 21.8505 25.1512C21.0782 25.6229 20.3199 26.086 19.8424 26.653C19.3649 26.086 18.6066 25.6229 17.8344 25.1513C16.1686 24.134 14.4381 23.0772 15.322 20.8524C15.322 20.8524 14.2636 20.7196 13.3078 21.3038C13.3078 21.3038 13.8666 19.7687 15.171 19.5881C15.171 19.5881 14.3733 18.6744 12.3682 19.0674C12.3682 19.0674 13.4139 17.8351 14.7183 18.0687C14.7183 18.0687 14.0498 16.9108 12.1202 16.7939C12.1202 16.7939 12.4328 16.3796 13.5756 16.2947C13.5756 16.2947 12.7061 15.3065 13.1012 13.4933C13.1012 13.4933 12.4257 12.9624 12.6701 11.3758C12.6701 11.3758 12.925 12.6623 13.4678 12.502C13.8451 12.3905 13.6725 11.9194 13.3762 11.9549C13.3762 11.9549 13.4624 11.6044 14.0175 11.3759C14.0606 11.3581 14.1012 11.3416 14.1395 11.3261C14.5943 11.1416 14.7166 11.092 14.6966 10.6853C14.6966 10.6853 15.0901 10.5207 15.2303 10.8978C15.3705 11.2749 14.9878 11.4556 14.7937 11.4927C14.5997 11.53 14.3301 11.6096 14.2116 11.8328C14.2116 11.8328 14.6212 11.9709 14.2977 12.3321C13.9744 12.6932 12.7993 15.4023 15.5591 17.2828C15.5591 17.2828 15.4944 18.1539 16.4753 18.972C16.4753 18.972 16.0549 18.933 15.9813 18.9507C15.9077 18.9684 15.8825 19.7617 15.9813 19.7901C16.0801 19.8184 17.6181 19.7901 17.6181 19.7901C17.6181 19.7901 16.0692 20.2576 16.0087 20.3124C15.9482 20.3671 16.0263 20.7816 16.0765 20.7886C16.0909 20.7906 16.2031 20.7613 16.3713 20.7173C16.7927 20.607 17.5654 20.4047 18.0278 20.3744C18.0278 20.3744 16.5616 21.0435 16.3136 21.2455C16.3136 21.2455 16.5507 21.7661 16.8742 21.9467C16.8742 21.9467 18.9943 21.1817 19.8423 20.4911C20.6903 21.1817 22.8105 21.9467 22.8105 21.9467C23.1338 21.7661 23.371 21.2455 23.371 21.2455C23.1229 21.0436 21.6569 20.3744 21.6569 20.3744C22.1192 20.4047 22.8917 20.6069 23.3132 20.7172C23.4815 20.7612 23.5938 20.7906 23.6082 20.7886C23.6585 20.7816 23.7366 20.3671 23.6759 20.3124C23.6153 20.2576 22.0667 19.7901 22.0667 19.7901C22.0667 19.7901 23.6046 19.8184 23.7034 19.7901C23.8022 19.7617 23.7771 18.9684 23.7034 18.9507C23.6296 18.933 23.2093 18.972 23.2093 18.972C24.1902 18.1539 24.1256 17.2828 24.1256 17.2828C26.8853 15.4023 25.7102 12.6932 25.3869 12.3321C25.0635 11.9708 25.4731 11.8328 25.4731 11.8328C25.3545 11.6096 25.085 11.53 24.891 11.4927C24.6969 11.4556 24.3143 11.2749 24.4544 10.8978C24.5946 10.5206 24.988 10.6853 24.988 10.6853C24.9681 11.0921 25.0904 11.1417 25.5454 11.3262C25.5836 11.3417 25.6241 11.3582 25.6671 11.3759C26.2224 11.6044 26.3086 11.9549 26.3086 11.9549C26.0121 11.9194 25.8397 12.3905 26.2169 12.502C26.7597 12.6624 27.0146 11.3758 27.0146 11.3758C27.259 12.9625 26.5835 13.4933 26.5835 13.4933C26.9788 15.3065 26.1091 16.2947 26.1091 16.2947C27.2518 16.3796 27.5645 16.7939 27.5645 16.7939C25.6348 16.9108 24.9665 18.0687 24.9665 18.0687C26.2711 17.835 27.3167 19.0674 27.3167 19.0674ZM19.8425 21.6269C19.8425 21.6269 17.4537 21.7231 17.1115 22.4989C17.0488 22.6411 17.1115 23.6569 17.1115 23.6569C17.1115 23.6569 17.3127 23.6995 17.4708 23.5897C17.4708 23.5897 17.4457 24.0393 17.7727 24.266C18.0996 24.4926 18.6135 24.8113 18.6244 24.8113C18.6266 24.8113 18.6418 24.8012 18.6659 24.7853C18.7565 24.7253 18.9733 24.5817 19.1094 24.5705C19.2214 24.5614 19.4182 24.8328 19.5937 25.0747C19.6884 25.2054 19.777 25.3275 19.8425 25.3921C19.908 25.3275 19.9964 25.2055 20.0911 25.0748C20.2666 24.8329 20.4634 24.5614 20.5754 24.5705C20.7117 24.5818 20.9285 24.7253 21.0191 24.7853C21.0432 24.8012 21.0583 24.8113 21.0606 24.8113C21.0714 24.8113 21.5853 24.4926 21.9122 24.266C22.2393 24.0393 22.2141 23.5897 22.2141 23.5897C22.3722 23.6995 22.5734 23.6569 22.5734 23.6569C22.5734 23.6569 22.6362 22.6411 22.5734 22.4989C22.2312 21.7231 19.8425 21.6269 19.8425 21.6269Z" fill="currentColor"/>
</g>
<defs>
<clipPath id="clip0_71_309">
<rect width="39.5186" height="44.9997" fill="white" transform="translate(0.083252)"/>
</clipPath>
</defs>
</svg>
