<svg width="135" height="33" viewBox="0 0 135 33" fill="none" xmlns="http://www.w3.org/2000/svg">
<g clip-path="url(#clip0_86_45)">
<path d="M14.7484 0L5.82375 16.4398L11.5098 27.0279L12.7938 24.637L8.39169 16.4398L15.9844 2.30152L23.577 16.4398L14.7483 32.8797H17.1912L26.0198 16.4398L17.1912 0H14.7484Z" fill="white"/>
<path d="M12.1325 32.8797L21.0572 16.4398L15.3711 5.85177L14.0871 8.24269L18.4892 16.4398L10.8965 30.5782L3.30393 16.4398L12.1326 0H9.68976L0.861084 16.4398L9.68976 32.8797H12.1325Z" fill="white"/>
<path fill-rule="evenodd" clip-rule="evenodd" d="M49.0984 10.1147V22.5289H59.9129V20.0259H52.3133V17.5121H58.9706V15.0422H52.3133V12.5846H59.7558V10.1147H49.0984Z" fill="white"/>
<path fill-rule="evenodd" clip-rule="evenodd" d="M33.1409 10.1147V22.5289H36.3558V18.6409H40.2259L42.4706 22.5289H46.1783L43.4861 17.9622C44.7934 17.2406 45.7347 15.9261 45.7347 14.3088C45.7347 10.9882 43.2177 10.1147 41.1725 10.1147H33.1409ZM36.3558 12.5846H40.9152C41.5039 12.5846 42.1591 13.0422 42.1591 14.4571C42.1591 14.9369 42.0191 16.171 40.9152 16.171H36.3558V12.5846Z" fill="white"/>
<path d="M62.8333 10.1147V22.5289H66.0482V14.5325L73.1555 22.5289H76.3704V10.1147H73.1555V18.0459L66.0482 10.1147H62.8333Z" fill="white"/>
<path d="M83.6724 10.1147L78.2019 22.5289H81.8883L82.7224 20.4153H88.9752L89.8093 22.5289H93.4957L88.0252 10.1147H83.6724ZM85.8488 12.4929L88.0005 17.9454H83.6971L85.8488 12.4929Z" fill="white"/>
<path d="M111.281 10.1147V22.5289H121.58V20.0259H114.496V10.1147H111.281Z" fill="white"/>
<path d="M120.004 10.1147V12.5846H124.836V22.5289H128.051V12.5846H132.882V10.1147H120.004Z" fill="white"/>
<path d="M95.0054 10.1147V18.5044C95.0054 22.02 98.5714 22.7651 101.399 22.7651C104.227 22.7651 107.794 22.02 107.794 18.5044V10.1147H104.579V18.3474C104.579 19.6256 102.646 20.0548 101.399 20.0548C100.153 20.0548 98.2203 19.6256 98.2203 18.3474V10.1147H95.0054Z" fill="white"/>
</g>
<defs>
<clipPath id="clip0_86_45">
<rect width="133.456" height="33" fill="white" transform="translate(0.868896)"/>
</clipPath>
</defs>
</svg>
