<svg width="129" height="37" viewBox="0 0 129 37" fill="none" xmlns="http://www.w3.org/2000/svg">
<g clip-path="url(#clip0_71_276)">
<path d="M34.8076 0H2.91312C1.47156 0 0.270264 1.2013 0.270264 2.64286V34.3571C0.270264 35.7987 1.47156 37 2.91312 37H34.8076C36.2492 37 37.4505 35.7987 37.4505 34.3571V2.64286C37.4505 1.14123 36.2492 0 34.8076 0ZM23.5755 27.8101C20.3319 31.0536 15.1664 31.1737 11.7427 28.2305L11.6826 28.1705C11.5024 27.9903 11.4423 27.6299 11.6826 27.3896L23.2151 15.9172C23.4553 15.737 23.7556 15.737 23.9959 15.9172C26.9992 19.401 26.879 24.5666 23.5755 27.8101ZM25.9781 9.49026L14.4456 20.9627C14.2053 21.1429 13.905 21.1429 13.6647 20.9627C10.6615 17.539 10.7816 12.3734 14.0251 9.12987C17.2686 5.88636 22.4342 5.76623 25.8579 8.70942C25.8579 8.70942 25.918 8.70942 25.918 8.76948C26.2183 8.94968 26.2183 9.31007 25.9781 9.49026Z" fill="currentColor"/>
<path fill-rule="evenodd" clip-rule="evenodd" d="M53.668 16.698C52.0462 16.0372 51.0251 15.6168 51.0251 14.6557C51.0251 13.8749 51.6258 13.1541 53.0073 13.1541C53.8482 13.1541 54.569 13.5145 55.1096 14.2353C55.4699 14.6557 55.8303 14.896 56.2508 14.896C57.0917 14.896 57.7524 14.2353 57.7524 13.4544C57.7524 13.1541 57.6923 12.8538 57.5121 12.6736C56.6112 11.2921 54.7492 10.3311 53.0073 10.3311C50.6047 10.3311 48.142 11.8327 48.142 14.7158C48.142 17.659 50.5446 18.62 52.5268 19.3408C54.0884 19.9415 55.4699 20.482 55.4699 21.7434C55.4699 22.7044 54.569 23.6655 52.8871 23.6655C52.3466 23.6655 51.3855 23.5454 50.7248 22.7645C50.3644 22.3441 49.944 22.1639 49.5836 22.1639C48.8027 22.1639 48.082 22.8246 48.082 23.6054C48.082 23.9057 48.2021 24.2061 48.3823 24.4463C49.2832 25.8278 51.3255 26.4885 52.8871 26.4885C55.53 26.4885 58.4131 24.8067 58.4131 21.7434C58.3531 18.4999 55.7703 17.4788 53.668 16.698ZM113.253 10.271H113.192C110.309 10.271 108.027 12.5535 108.027 15.3765V33.1557C108.027 33.9366 108.688 34.5973 109.468 34.5973C110.249 34.5973 110.91 33.9366 110.91 33.1557V25.7678C111.451 26.2483 112.352 26.4885 113.192 26.4885H113.253C116.136 26.4885 118.298 24.0259 118.298 21.2028V15.2564C118.298 12.4333 116.136 10.271 113.253 10.271ZM115.535 21.323C115.535 22.8846 114.514 23.5454 113.313 23.5454H113.253C111.991 23.5454 111.03 22.8846 111.03 21.323V15.3765C111.03 14.1752 112.051 13.1541 113.253 13.1541H113.313C114.574 13.1541 115.535 14.1152 115.535 15.3765V21.323ZM86.6436 10.271H86.5836C85.142 10.271 83.8807 10.8717 82.9797 11.7726C82.0787 10.8717 80.7573 10.271 79.3758 10.271H79.3157C76.5527 10.271 74.2703 12.4934 74.2703 15.3165V25.107C74.3303 25.8879 74.931 26.4885 75.7118 26.4885C76.4927 26.4885 77.0933 25.8879 77.1534 25.107V15.3165C77.1534 14.1152 78.1144 13.1541 79.3157 13.1541H79.3758C80.5771 13.1541 81.4781 14.0551 81.5381 15.2564V25.107C81.6108 25.817 82.1105 26.4885 82.9196 26.4885C83.7005 26.4885 84.3011 25.8879 84.3612 25.107V15.1963C84.4212 14.0551 85.3823 13.0941 86.5235 13.0941H86.5836C87.7849 13.0941 88.7459 14.0551 88.7459 15.2564V25.107C88.806 25.8879 89.4066 26.4885 90.1875 26.4885C90.9683 26.4885 91.569 25.8879 91.629 25.107V15.3165C91.6891 12.5535 89.4066 10.271 86.6436 10.271ZM69.5852 10.271C68.8044 10.271 68.2037 10.8717 68.1436 11.6525V21.4431C68.1436 22.6444 67.1826 23.6054 65.9212 23.6054H65.8612C64.6599 23.6054 63.6388 22.6444 63.6388 21.4431V11.5924C63.5787 10.8116 62.9781 10.2109 62.1972 10.2109C61.4164 10.2109 60.8157 10.8116 60.7557 11.5924V21.383C60.7557 24.146 63.0381 26.4285 65.8612 26.4285H65.9212C68.7443 26.4285 71.0268 24.146 71.0268 21.383V11.6525C71.0268 10.8717 70.366 10.271 69.5852 10.271ZM103.702 10.271C102.921 10.271 102.321 10.8717 102.261 11.6525V21.4431C102.261 22.6444 101.3 23.6054 100.038 23.6054H99.9781C98.7768 23.6054 97.7557 22.6444 97.7557 21.4431V11.5924C97.6956 10.8116 97.0949 10.2109 96.3141 10.2109C95.5332 10.2109 94.9326 10.8116 94.8725 11.5924V21.383C94.8725 24.146 97.155 26.4285 99.9781 26.4285H100.038C102.861 26.4285 105.144 24.146 105.144 21.383V11.6525C105.084 10.8717 104.483 10.271 103.702 10.271Z" fill="currentColor"/>
<path d="M125.326 13.2743C125.686 13.2142 125.926 12.9139 125.926 12.5535C125.926 12.073 125.566 11.7726 125.025 11.7726H124.304C124.124 11.7726 124.004 11.8928 124.004 12.073V14.0551C124.004 14.2353 124.124 14.3554 124.304 14.3554C124.485 14.3554 124.605 14.2353 124.605 14.0551V13.3343L125.326 14.2353C125.386 14.3554 125.446 14.3554 125.626 14.3554C125.866 14.3554 125.926 14.1752 125.926 14.0551C125.926 13.935 125.866 13.8749 125.806 13.8148L125.326 13.2743ZM125.085 12.8538H124.725V12.2531H125.085C125.266 12.2531 125.386 12.3733 125.386 12.5535C125.386 12.6736 125.266 12.8538 125.085 12.8538ZM125.025 10.271C123.464 10.271 122.142 11.5324 122.142 13.1541C122.142 14.7158 123.403 16.0372 125.025 16.0372C126.587 16.0372 127.908 14.7759 127.908 13.1541C127.908 11.5924 126.647 10.271 125.025 10.271ZM125.025 15.3165C123.824 15.3165 122.863 14.3554 122.863 13.1541C122.863 11.9528 123.824 10.9918 125.025 10.9918C126.227 10.9918 127.188 11.9528 127.188 13.1541C127.188 14.3554 126.227 15.3165 125.025 15.3165Z" fill="currentColor"/>
</g>
<defs>
<clipPath id="clip0_71_276">
<rect width="128" height="37" fill="white" transform="translate(0.201904)"/>
</clipPath>
</defs>
</svg>
