<svg width="189" height="25" viewBox="0 0 189 25" fill="none" xmlns="http://www.w3.org/2000/svg">
<g clip-path="url(#clip0_71_260)">
<mask id="mask0_71_260" style="mask-type:luminance" maskUnits="userSpaceOnUse" x="0" y="0" width="188" height="25">
<path d="M187.459 0H0.459229V25H187.459V0Z" fill="white"/>
</mask>
<g mask="url(#mask0_71_260)">
<path d="M122.265 7.76269H116.601L118.828 10.9426H121.7L119.285 24.6172H124.316L126.734 10.9426H133.009L123.102 3.01611L122.265 7.76269Z" fill="white"/>
<path d="M23.939 0H1.08464L0.459229 3.58096H9.33377L5.61555 24.6163H10.6468L14.365 3.58096H23.315L23.939 0Z" fill="white"/>
<path d="M27.6603 7.38428C21.265 7.38428 17.1715 11.3864 16.3595 16.0378C15.4581 21.2028 18.6487 24.9818 25.1013 24.9818C27.9859 24.9818 30.6832 24.4425 32.8746 23.2317L33.5552 19.379C31.4141 20.9053 28.6896 21.7582 26.3808 21.7582C23.1636 21.7582 20.606 20.425 21.0085 17.3688H34.3022C34.4629 17.0074 34.6544 16.3707 34.7934 15.5784C35.4377 11.8876 34.1226 7.38428 27.6603 7.38428ZM30.2667 14.3974H21.5179C22.0434 12.6737 23.7429 10.291 26.8371 10.291C30.2052 10.291 30.5616 12.8377 30.2667 14.3974Z" fill="white"/>
<path d="M49.8769 7.38525C46.7372 7.38525 44.3851 8.67876 43.2768 9.98826H43.1594L38.7306 7.38525C38.5677 8.84488 38.3497 10.8293 38.0094 12.7755L35.9431 24.6173H40.9723L42.7213 14.7008C42.8059 14.2143 42.9722 13.6985 43.1895 13.3482C43.94 12.0457 45.5164 10.8474 47.5157 10.8474C50.2619 10.8474 51.0096 12.6907 50.5875 15.1067L48.9048 24.6173H53.9361L55.7075 14.6077C56.6383 9.27791 53.3428 7.38525 49.8769 7.38525Z" fill="white"/>
<path d="M110.227 7.38525C107.086 7.38525 104.736 8.67876 103.627 9.98826H103.509L99.0811 7.38525C98.9183 8.84488 98.7002 10.8293 98.3592 12.7755L96.2922 24.6173H101.321L103.072 14.7008C103.156 14.2143 103.322 13.6985 103.537 13.3482C104.291 12.0457 105.866 10.8474 107.864 10.8474C110.613 10.8474 111.358 12.6907 110.937 15.1067L109.256 24.6173H114.286L116.056 14.6077C116.987 9.27791 113.693 7.38525 110.227 7.38525Z" fill="white"/>
<path d="M88.0085 7.38428C81.6146 7.38428 77.5218 11.3864 76.7092 16.0378C75.8077 21.2028 78.9977 24.9818 85.4509 24.9818C88.3341 24.9818 91.0342 24.4425 93.2249 23.2317L93.9048 19.379C91.7637 20.9053 89.0399 21.7582 86.7297 21.7582C83.5153 21.7582 80.9592 20.425 81.3589 17.3688H94.6539C94.8125 17.0074 95.0054 16.3707 95.1452 15.5784C95.7873 11.8876 94.4708 7.38428 88.0085 7.38428ZM90.617 14.3974H81.8676C82.3938 12.6737 84.0932 10.291 87.1867 10.291C90.5548 10.291 90.9105 12.8377 90.617 14.3974Z" fill="white"/>
<path d="M57.8194 15.9637C56.9068 21.1954 60.5894 24.9807 66.8225 24.9807C69.2997 24.9807 72.2598 24.2739 73.3799 23.8596L74.194 19.3549C72.4449 21.2246 70.0761 21.6125 68.3962 21.6125C64.9707 21.6125 62.3783 19.6302 62.982 16.175C63.5061 13.0855 66.448 10.7097 70.2815 10.7097C71.844 10.7097 73.962 11.231 75.2988 12.9798L76.0779 8.39799C74.9962 7.98443 73.2639 7.39502 70.7008 7.39502C63.7073 7.39502 58.7006 10.9189 57.8194 15.9651" fill="white"/>
<path d="M146.745 2.26247C145.373 9.75942 144.14 17.1716 142.74 24.6393H139.91C140.471 21.8236 141.115 18.8432 141.591 16.0831H139.575C138.958 18.9815 138.313 21.8799 137.698 24.6393H134.868C137.248 17.0868 138.425 9.3118 139.769 0.730557H145.064C146.438 0.730557 146.997 0.952977 146.745 2.26247ZM142.852 9.4244H140.918C140.628 10.9121 140.329 12.3982 140.022 13.8825H142.039L142.852 9.4244ZM143.44 3.04303H142.039C141.815 4.38033 141.591 5.77323 141.312 7.22244H143.216L143.917 3.57197C144.001 3.15424 143.833 3.04303 143.44 3.04303ZM154.617 21.351H145.121L144.729 19.2046H155.095V19.2324L154.617 21.351ZM157.755 13.0471L157.112 15.9441H158.484C159.409 15.9441 160.081 16.1401 159.912 17.2814C159.604 19.3436 159.044 22.2135 158.595 24.6393H151.144L150.529 22.438H156.019C156.272 21.2669 156.58 19.8455 156.747 18.6757C156.804 18.285 156.635 18.1453 156.243 18.1453H146.943L147.782 13.6587C147.111 13.9659 146.102 14.3003 145.121 14.4949L145.711 11.7925C147.448 11.3754 149.21 10.5379 150.303 9.34099H146.158L146.634 7.22244H151.761C152.041 6.8332 152.267 6.33137 152.378 5.96855H146.831L147.251 3.76798H149.24L148.511 0.506747H151.341L152.012 3.76798H152.993C153.301 2.6809 153.525 1.23239 153.553 0.0327148H156.438C156.383 1.23239 156.215 2.65171 155.934 3.76798H157.083C157.532 2.765 157.979 1.56672 158.343 0.506747H161.229C160.803 1.60656 160.345 2.69408 159.856 3.76798H161.873L161.342 5.96855H155.318C155.206 6.33137 154.981 6.86031 154.787 7.22244H162.182L161.677 9.34099H157.363C158.287 10.7054 160.502 11.7376 162.21 12.0983L161.256 14.4949C160.081 14.2453 158.793 13.6865 157.755 13.0471ZM154.842 13.4363H148.706L150.556 14.2725L150.22 15.9441H154.282L154.842 13.4363ZM155.878 11.3469C155.402 10.8166 154.897 9.95264 154.59 9.34099H153.553C152.993 10.0374 152.152 10.8166 151.424 11.3469H155.878Z" fill="white"/>
<path d="M164.351 7.19371H170.235C169.639 11.145 168.966 15.0844 168.217 19.0097C169.338 18.1743 170.514 17.2804 171.579 16.3616L170.962 19.9571C168.973 21.6287 166.228 23.5798 163.707 25.0005C164.8 19.9571 165.808 14.6065 166.537 9.67578H163.904L164.351 7.19371ZM171.27 5.88421C170.851 3.93387 170.319 1.89942 169.869 0.00537109H166.704C167.124 1.92653 167.574 3.99017 167.938 5.88421H171.27ZM185.642 0.757429H172.56L173.119 3.23672H182.897C183.541 3.23672 183.85 3.32013 183.709 4.04577C183.342 6.05504 182.959 8.06128 182.56 10.0643H178.302L179.031 5.82861L176.061 4.10138L174.97 10.0643H171.803L171.382 12.5443H174.493C173.847 16.5576 173.063 20.6522 172.251 24.6662H175.64C176.424 20.6251 177.209 16.5847 177.882 12.5443H182.113C181.406 16.5941 180.65 20.6351 179.842 24.6662H185.838L186.874 22.157H183.681C184.943 15.7777 186.259 9.11625 187.379 2.68067C187.63 1.28707 187.352 0.757429 185.642 0.757429Z" fill="white"/>
</g>
</g>
<defs>
<clipPath id="clip0_71_260">
<rect width="188" height="25" fill="white" transform="translate(0.201904)"/>
</clipPath>
</defs>
</svg>
