<svg width="464" height="114" viewBox="0 0 464 114" fill="none" xmlns="http://www.w3.org/2000/svg">
<g clip-path="url(#clip0_102_48)">
<path fill-rule="evenodd" clip-rule="evenodd" d="M21.7494 0.64209H90.8763C102.874 0.64209 112.634 10.4019 112.634 22.3997V91.5266C112.634 103.524 102.874 113.284 90.8763 113.284H21.7494C9.75165 113.284 -0.00817871 103.524 -0.00817871 91.5266V22.3997C-0.00817871 10.4019 9.75165 0.64209 21.7494 0.64209ZM69.4918 101.659C74.2983 101.659 78.1948 97.7629 78.1948 92.9564C78.1948 88.1498 74.2983 84.2534 69.4918 84.2534C64.6852 84.2534 60.7887 88.1498 60.7887 92.9564C60.7887 97.7629 64.6852 101.659 69.4918 101.659ZM55.6912 12.5156V34.7705H78.0083C78.0083 47.0791 67.9998 57.0876 55.6912 57.0876V102.095C43.507 102.095 33.685 92.2727 33.685 80.0884V34.5219C33.685 22.3998 43.5692 12.5156 55.6912 12.5156Z" fill="white"/>
<path d="M137.873 34.9569C137.873 28.1188 143.405 22.524 150.306 22.524H191.769C191.769 29.3621 186.237 34.9569 179.336 34.9569H171.877V94.4483C164.106 94.4483 157.765 88.1075 157.765 80.337V34.9569H137.873Z" fill="white"/>
<path d="M219.743 53.4198L216.324 58.8281C215.081 57.4605 213.651 56.2172 212.159 55.1604C210.605 54.1036 209.051 53.6063 207.497 53.6063C206.627 53.6063 205.756 53.7928 204.762 54.1657C203.767 54.5387 202.835 55.2225 201.964 56.0928C201.094 56.9632 200.348 58.1443 199.789 59.6362C199.229 61.1282 198.856 62.9309 198.856 65.1067V94.4483C191.707 94.4483 185.926 88.6671 185.926 81.5181V55.409C185.926 48.2601 191.707 42.4788 198.856 42.4788V48.0736C200.41 45.8357 202.151 44.1573 204.016 42.9761C205.881 41.795 207.994 41.1734 210.356 41.1734C212.719 41.1734 214.895 41.795 217.07 43.0383C217.07 43.0383 217.132 43.0383 217.132 43.1005C220.862 45.0276 222.043 49.8142 219.743 53.4198Z" fill="white"/>
<path d="M279.421 66.9717C279.421 67.7798 279.359 68.7123 279.297 69.5826L278.986 72.38H237.398C237.895 73.872 238.579 75.3017 239.45 76.6694C240.32 78.037 241.377 79.2181 242.62 80.1506C243.863 81.1452 245.293 81.8912 246.909 82.5128C248.526 83.0723 250.266 83.3831 252.193 83.3831C254.555 83.3831 256.856 83.0101 259.218 82.202H259.28C263.321 80.7722 267.859 81.7668 270.905 84.8129L273.205 87.113C269.599 89.7861 266.056 91.7132 262.637 92.8321C259.218 93.9511 255.55 94.5106 251.696 94.5106C247.842 94.5106 244.174 93.7646 240.755 92.3348C237.336 90.905 234.414 88.9779 231.928 86.4914C229.441 84.0048 227.452 81.1452 226.022 77.7883C224.592 74.4936 223.846 70.8881 223.846 67.096C223.846 63.304 224.592 59.7606 226.022 56.4037C227.452 53.109 229.441 50.1873 231.928 47.7007C234.414 45.2141 237.398 43.287 240.755 41.8572C244.112 40.4275 247.717 39.6815 251.572 39.6815C255.426 39.6815 258.721 40.3653 262.077 41.7329C265.434 43.1005 268.418 44.9655 270.967 47.3277C273.516 49.7521 275.567 52.6117 277.059 55.9064C278.551 59.2011 279.421 62.931 279.421 66.9717ZM265.807 61.9364C264.813 58.6416 262.948 55.9686 260.337 53.9793C257.726 51.99 254.742 50.9954 251.509 50.9954C248.277 50.9954 245.355 51.99 242.806 53.9793C240.258 55.9686 238.455 58.6416 237.398 61.9364H265.807Z" fill="white"/>
<path d="M294.216 36.3867C290.487 36.3867 287.44 33.3406 287.44 29.6729C287.44 25.943 290.487 22.9591 294.216 22.9591C297.946 22.9591 300.992 26.0052 300.992 29.6729C300.992 33.3406 297.946 36.3867 294.216 36.3867ZM300.806 94.4483C293.533 94.4483 287.689 88.5427 287.689 81.3316V42.3545C294.962 42.3545 300.806 48.2601 300.806 55.4712V94.4483Z" fill="white"/>
<path d="M359.986 94.4483C352.838 94.4483 347.056 88.667 347.056 81.5181V63.4282C347.056 61.5633 346.745 59.947 346.186 58.5172C345.627 57.0874 344.818 55.9063 343.886 55.036C342.953 54.1035 341.834 53.4197 340.591 52.9846C339.348 52.5494 338.105 52.3008 336.737 52.3008C334.748 52.3008 332.821 52.6738 330.831 53.3576C328.904 54.0414 327.164 55.1603 325.61 56.6523V94.5105C318.461 94.5105 312.679 88.7292 312.679 81.5803V42.4166H321.755C323.931 42.4166 325.672 44.1572 325.734 46.2708C326.48 45.5248 327.474 44.7789 328.593 44.0951C329.712 43.4113 330.893 42.9139 332.137 42.4166C333.38 41.9815 334.623 41.6085 335.929 41.3598C337.234 41.1112 338.478 40.9868 339.659 40.9868C342.27 40.9868 344.818 41.422 347.243 42.2301C349.667 43.0383 351.843 44.3437 353.708 46.0843C355.573 47.8249 357.127 50.0629 358.246 52.7981C359.365 55.5333 359.986 58.828 359.986 62.6201V94.4483Z" fill="white"/>
<path d="M448.136 93.0807H438.003C436.449 93.0807 435.206 91.8374 435.206 90.2833C432.905 91.8374 430.543 92.8942 427.932 93.5158C425.384 94.1375 422.773 94.3862 420.037 94.3862C417.551 94.3862 415.251 94.0132 413.199 93.2672C411.148 92.5212 409.407 91.4644 407.915 90.0346C406.423 88.6049 405.242 86.9886 404.434 85.0615C403.626 83.1344 403.191 81.0208 403.191 78.6585C403.191 75.7368 403.812 73.188 405.118 70.9501C406.423 68.7744 408.164 66.9094 410.402 65.4797C412.64 63.9877 415.189 62.9309 418.172 62.1849C421.156 61.439 424.327 61.1281 427.746 61.1281H435.206C435.206 58.0821 434.211 55.6577 432.222 53.8549C430.232 52.0521 427.373 51.1818 423.643 51.1818C421.84 51.1818 419.975 51.4926 418.048 52.1764H417.986C413.821 53.6062 409.221 52.6738 406.113 49.5034L404.621 48.0114C407.356 45.4005 410.588 43.3491 414.194 41.9193C417.799 40.4895 421.529 39.7435 425.384 39.7435C428.989 39.7435 432.159 40.303 435.019 41.4841C437.879 42.6653 440.117 44.0951 441.857 45.8978C444.095 48.1979 445.711 50.7467 446.644 53.5441C447.576 56.3415 448.011 59.947 448.011 64.3607L448.136 93.0807ZM435.206 80.0883V70.4528H429.3C427.497 70.4528 425.819 70.5771 424.202 70.8258C422.586 71.0745 421.219 71.4474 420.037 72.0069C418.856 72.5664 417.924 73.3124 417.24 74.2449C416.556 75.1152 416.183 76.2341 416.183 77.4774C416.183 79.2802 416.867 80.7721 418.297 81.8911C419.727 83.01 421.529 83.6317 423.767 83.6317C425.694 83.6317 427.621 83.3209 429.486 82.7614C431.351 82.1397 433.278 81.2694 435.206 80.0883Z" fill="white"/>
<path d="M369.808 42.7897L369.746 34.8326C369.684 29.8595 373.725 25.8188 378.698 25.8188H382.925V41.0491H396.042V45.2763C396.042 49.3791 392.685 52.736 388.582 52.736H382.925V76.4207C382.925 77.7261 383.112 78.8451 383.422 79.6532C383.733 80.4614 384.168 81.1452 384.728 81.6425C385.287 82.1398 385.909 82.4506 386.593 82.6371C387.277 82.8236 388.023 82.8858 388.769 82.8858C389.763 82.8858 391.007 82.6993 392.436 82.3263C393.866 81.9533 395.109 81.3938 396.104 80.5235V90.905C396.104 91.5888 395.731 92.2105 395.109 92.5213C394.053 93.0808 392.809 93.5159 391.504 93.8267C389.763 94.2619 388.023 94.4484 386.282 94.4484C383.236 94.4484 380.625 94.0754 378.512 93.3294C376.398 92.5835 374.719 91.4023 373.476 89.8482C372.233 88.2941 371.3 86.3048 370.741 83.8804C370.181 81.456 369.871 78.6586 369.871 75.426V59.3254L369.808 52.6117V42.7897Z" fill="white"/>
<path d="M455.223 38.6868C454.104 38.6868 453.047 38.5003 452.052 38.0651C451.058 37.63 450.249 37.0705 449.503 36.3867C448.757 35.6407 448.198 34.8326 447.825 33.8379C447.39 32.8433 447.203 31.7865 447.203 30.6675C447.203 29.5486 447.39 28.4918 447.825 27.4971C448.26 26.5025 448.82 25.6944 449.503 24.9484C450.187 24.2024 451.058 23.6429 452.052 23.27C453.047 22.897 454.104 22.6483 455.223 22.6483C456.341 22.6483 457.398 22.8348 458.393 23.27C459.388 23.7051 460.196 24.2646 460.942 24.9484C461.688 25.6944 462.247 26.5025 462.62 27.4971C463.055 28.4918 463.242 29.5486 463.242 30.6675C463.242 31.7865 463.055 32.8433 462.62 33.8379C462.185 34.8326 461.625 35.6407 460.942 36.3867C460.196 37.1326 459.388 37.6921 458.393 38.0651C457.46 38.4381 456.404 38.6868 455.223 38.6868ZM455.223 37.5056C456.528 37.5056 457.709 37.1948 458.704 36.5732C459.698 35.9515 460.507 35.1434 461.128 34.0866C461.75 33.0298 461.998 31.9108 461.998 30.6054C461.998 29.2999 461.688 28.1188 461.128 27.1242C460.569 26.1295 459.761 25.2592 458.704 24.6997C457.647 24.1403 456.528 23.8294 455.223 23.8294C453.917 23.8294 452.736 24.1403 451.741 24.6997C450.685 25.3214 449.876 26.1295 449.317 27.1242C448.757 28.1188 448.447 29.2999 448.447 30.6054C448.447 31.9108 448.757 33.0919 449.317 34.0866C449.876 35.0812 450.685 35.9515 451.741 36.5732C452.798 37.1948 453.979 37.5056 455.223 37.5056ZM451.803 35.3299V26.0052H455.844C456.901 26.0052 457.709 26.2538 458.269 26.7512C458.828 27.2485 459.077 27.9323 459.077 28.7404C459.077 29.4242 458.89 29.9216 458.579 30.3567C458.269 30.7919 457.771 31.0405 457.15 31.227C457.398 31.2892 457.647 31.4757 457.833 31.7243C458.02 31.973 458.206 32.346 458.331 32.7811L459.139 35.3299H456.963L456.093 32.5325C455.969 32.2216 455.844 31.973 455.596 31.9108C455.347 31.7865 455.098 31.7243 454.85 31.7243H453.855V35.3299H451.803ZM453.917 30.108H455.596C456.59 30.108 457.087 29.6729 457.087 28.8026C457.087 27.9323 456.59 27.4971 455.596 27.4971H453.917V30.108Z" fill="white"/>
<path d="M137.873 34.9569C137.873 28.1188 143.405 22.524 150.306 22.524H191.769C191.769 29.3621 186.237 34.9569 179.336 34.9569H171.877V94.4483C164.106 94.4483 157.765 88.1075 157.765 80.337V34.9569H137.873Z" fill="white"/>
<path d="M219.743 53.4198L216.324 58.8281C215.081 57.4605 213.651 56.2172 212.159 55.1604C210.605 54.1036 209.051 53.6063 207.497 53.6063C206.627 53.6063 205.756 53.7928 204.762 54.1657C203.767 54.5387 202.835 55.2225 201.964 56.0928C201.094 56.9632 200.348 58.1443 199.789 59.6362C199.229 61.1282 198.856 62.9309 198.856 65.1067V94.4483C191.707 94.4483 185.926 88.6671 185.926 81.5181V55.409C185.926 48.2601 191.707 42.4788 198.856 42.4788V48.0736C200.41 45.8357 202.151 44.1573 204.016 42.9761C205.881 41.795 207.994 41.1734 210.356 41.1734C212.719 41.1734 214.895 41.795 217.07 43.0383C217.07 43.0383 217.132 43.0383 217.132 43.1005C220.862 45.0276 222.043 49.8142 219.743 53.4198Z" fill="white"/>
<path d="M279.421 66.9717C279.421 67.7798 279.359 68.7123 279.297 69.5826L278.986 72.38H237.398C237.895 73.872 238.579 75.3017 239.45 76.6694C240.32 78.037 241.377 79.2181 242.62 80.1506C243.863 81.1452 245.293 81.8912 246.909 82.5128C248.526 83.0723 250.266 83.3831 252.193 83.3831C254.555 83.3831 256.856 83.0101 259.218 82.202H259.28C263.321 80.7722 267.859 81.7668 270.905 84.8129L273.205 87.113C269.599 89.7861 266.056 91.7132 262.637 92.8321C259.218 93.9511 255.55 94.5106 251.696 94.5106C247.842 94.5106 244.174 93.7646 240.755 92.3348C237.336 90.905 234.414 88.9779 231.928 86.4914C229.441 84.0048 227.452 81.1452 226.022 77.7883C224.592 74.4936 223.846 70.8881 223.846 67.096C223.846 63.304 224.592 59.7606 226.022 56.4037C227.452 53.109 229.441 50.1873 231.928 47.7007C234.414 45.2141 237.398 43.287 240.755 41.8572C244.112 40.4275 247.717 39.6815 251.572 39.6815C255.426 39.6815 258.721 40.3653 262.077 41.7329C265.434 43.1005 268.418 44.9655 270.967 47.3277C273.516 49.7521 275.567 52.6117 277.059 55.9064C278.551 59.2011 279.421 62.931 279.421 66.9717ZM265.807 61.9364C264.813 58.6416 262.948 55.9686 260.337 53.9793C257.726 51.99 254.742 50.9954 251.509 50.9954C248.277 50.9954 245.355 51.99 242.806 53.9793C240.258 55.9686 238.455 58.6416 237.398 61.9364H265.807Z" fill="white"/>
<path d="M294.216 36.3867C290.487 36.3867 287.44 33.3406 287.44 29.6729C287.44 25.943 290.487 22.9591 294.216 22.9591C297.946 22.9591 300.992 26.0052 300.992 29.6729C300.992 33.3406 297.946 36.3867 294.216 36.3867ZM300.806 94.4483C293.533 94.4483 287.689 88.5427 287.689 81.3316V42.3545C294.962 42.3545 300.806 48.2601 300.806 55.4712V94.4483Z" fill="white"/>
<path d="M359.986 94.4483C352.838 94.4483 347.056 88.667 347.056 81.5181V63.4282C347.056 61.5633 346.745 59.947 346.186 58.5172C345.627 57.0874 344.818 55.9063 343.886 55.036C342.953 54.1035 341.834 53.4197 340.591 52.9846C339.348 52.5494 338.105 52.3008 336.737 52.3008C334.748 52.3008 332.821 52.6738 330.831 53.3576C328.904 54.0414 327.164 55.1603 325.61 56.6523V94.5105C318.461 94.5105 312.679 88.7292 312.679 81.5803V42.4166H321.755C323.931 42.4166 325.672 44.1572 325.734 46.2708C326.48 45.5248 327.474 44.7789 328.593 44.0951C329.712 43.4113 330.893 42.9139 332.137 42.4166C333.38 41.9815 334.623 41.6085 335.929 41.3598C337.234 41.1112 338.478 40.9868 339.659 40.9868C342.27 40.9868 344.818 41.422 347.243 42.2301C349.667 43.0383 351.843 44.3437 353.708 46.0843C355.573 47.8249 357.127 50.0629 358.246 52.7981C359.365 55.5333 359.986 58.828 359.986 62.6201V94.4483Z" fill="white"/>
<path d="M448.136 93.0807H438.003C436.449 93.0807 435.206 91.8374 435.206 90.2833C432.905 91.8374 430.543 92.8942 427.932 93.5158C425.384 94.1375 422.773 94.3862 420.037 94.3862C417.551 94.3862 415.251 94.0132 413.199 93.2672C411.148 92.5212 409.407 91.4644 407.915 90.0346C406.423 88.6049 405.242 86.9886 404.434 85.0615C403.626 83.1344 403.191 81.0208 403.191 78.6585C403.191 75.7368 403.812 73.188 405.118 70.9501C406.423 68.7744 408.164 66.9094 410.402 65.4797C412.64 63.9877 415.189 62.9309 418.172 62.1849C421.156 61.439 424.327 61.1281 427.746 61.1281H435.206C435.206 58.0821 434.211 55.6577 432.222 53.8549C430.232 52.0521 427.373 51.1818 423.643 51.1818C421.84 51.1818 419.975 51.4926 418.048 52.1764H417.986C413.821 53.6062 409.221 52.6738 406.113 49.5034L404.621 48.0114C407.356 45.4005 410.588 43.3491 414.194 41.9193C417.799 40.4895 421.529 39.7435 425.384 39.7435C428.989 39.7435 432.159 40.303 435.019 41.4841C437.879 42.6653 440.117 44.0951 441.857 45.8978C444.095 48.1979 445.711 50.7467 446.644 53.5441C447.576 56.3415 448.011 59.947 448.011 64.3607L448.136 93.0807ZM435.206 80.0883V70.4528H429.3C427.497 70.4528 425.819 70.5771 424.202 70.8258C422.586 71.0745 421.219 71.4474 420.037 72.0069C418.856 72.5664 417.924 73.3124 417.24 74.2449C416.556 75.1152 416.183 76.2341 416.183 77.4774C416.183 79.2802 416.867 80.7721 418.297 81.8911C419.727 83.01 421.529 83.6317 423.767 83.6317C425.694 83.6317 427.621 83.3209 429.486 82.7614C431.351 82.1397 433.278 81.2694 435.206 80.0883Z" fill="white"/>
<path d="M369.808 42.7897L369.746 34.8326C369.684 29.8595 373.725 25.8188 378.698 25.8188H382.925V41.0491H396.042V45.2763C396.042 49.3791 392.685 52.736 388.582 52.736H382.925V76.4207C382.925 77.7261 383.112 78.8451 383.422 79.6532C383.733 80.4614 384.168 81.1452 384.728 81.6425C385.287 82.1398 385.909 82.4506 386.593 82.6371C387.277 82.8236 388.023 82.8858 388.769 82.8858C389.763 82.8858 391.007 82.6993 392.436 82.3263C393.866 81.9533 395.109 81.3938 396.104 80.5235V90.905C396.104 91.5888 395.731 92.2105 395.109 92.5213C394.053 93.0808 392.809 93.5159 391.504 93.8267C389.763 94.2619 388.023 94.4484 386.282 94.4484C383.236 94.4484 380.625 94.0754 378.512 93.3294C376.398 92.5835 374.719 91.4023 373.476 89.8482C372.233 88.2941 371.3 86.3048 370.741 83.8804C370.181 81.456 369.871 78.6586 369.871 75.426V59.3254L369.808 52.6117V42.7897Z" fill="white"/>
<path d="M455.223 38.6868C454.104 38.6868 453.047 38.5003 452.052 38.0651C451.058 37.63 450.249 37.0705 449.503 36.3867C448.757 35.6407 448.198 34.8326 447.825 33.8379C447.39 32.8433 447.203 31.7865 447.203 30.6675C447.203 29.5486 447.39 28.4918 447.825 27.4971C448.26 26.5025 448.82 25.6944 449.503 24.9484C450.187 24.2024 451.058 23.6429 452.052 23.27C453.047 22.897 454.104 22.6483 455.223 22.6483C456.341 22.6483 457.398 22.8348 458.393 23.27C459.388 23.7051 460.196 24.2646 460.942 24.9484C461.688 25.6944 462.247 26.5025 462.62 27.4971C463.055 28.4918 463.242 29.5486 463.242 30.6675C463.242 31.7865 463.055 32.8433 462.62 33.8379C462.185 34.8326 461.625 35.6407 460.942 36.3867C460.196 37.1326 459.388 37.6921 458.393 38.0651C457.46 38.4381 456.404 38.6868 455.223 38.6868ZM455.223 37.5056C456.528 37.5056 457.709 37.1948 458.704 36.5732C459.698 35.9515 460.507 35.1434 461.128 34.0866C461.75 33.0298 461.998 31.9108 461.998 30.6054C461.998 29.2999 461.688 28.1188 461.128 27.1242C460.569 26.1295 459.761 25.2592 458.704 24.6997C457.647 24.1403 456.528 23.8294 455.223 23.8294C453.917 23.8294 452.736 24.1403 451.741 24.6997C450.685 25.3214 449.876 26.1295 449.317 27.1242C448.757 28.1188 448.447 29.2999 448.447 30.6054C448.447 31.9108 448.757 33.0919 449.317 34.0866C449.876 35.0812 450.685 35.9515 451.741 36.5732C452.798 37.1948 453.979 37.5056 455.223 37.5056ZM451.803 35.3299V26.0052H455.844C456.901 26.0052 457.709 26.2538 458.269 26.7512C458.828 27.2485 459.077 27.9323 459.077 28.7404C459.077 29.4242 458.89 29.9216 458.579 30.3567C458.269 30.7919 457.771 31.0405 457.15 31.227C457.398 31.2892 457.647 31.4757 457.833 31.7243C458.02 31.973 458.206 32.346 458.331 32.7811L459.139 35.3299H456.963L456.093 32.5325C455.969 32.2216 455.844 31.973 455.596 31.9108C455.347 31.7865 455.098 31.7243 454.85 31.7243H453.855V35.3299H451.803ZM453.917 30.108H455.596C456.59 30.108 457.087 29.6729 457.087 28.8026C457.087 27.9323 456.59 27.4971 455.596 27.4971H453.917V30.108Z" fill="white"/>
</g>
<defs>
<clipPath id="clip0_102_48">
<rect width="463.25" height="112.642" fill="white" transform="translate(-0.00817871 0.64209)"/>
</clipPath>
</defs>
</svg>
