<svg width="114" height="37" viewBox="0 0 114 37" fill="none" xmlns="http://www.w3.org/2000/svg">
<g clip-path="url(#clip0_71_280)">
<path d="M15.9846 17.805H11.792C11.7381 17.8048 11.6846 17.8152 11.6347 17.8357C11.5848 17.8561 11.5394 17.8862 11.5011 17.9242C11.4628 17.9622 11.4324 18.0073 11.4115 18.0571C11.3907 18.1068 11.3798 18.1602 11.3796 18.2141V18.7837C11.3798 18.8376 11.3907 18.891 11.4115 18.9407C11.4324 18.9905 11.4628 19.0356 11.5011 19.0736C11.5394 19.1116 11.5848 19.1417 11.6347 19.1621C11.6846 19.1825 11.7381 19.193 11.792 19.1927H16.2858C16.369 19.1923 16.4514 19.2083 16.5284 19.2397C16.6053 19.2711 16.6754 19.3174 16.7344 19.3758C16.7935 19.4343 16.8405 19.5039 16.8727 19.5805C16.905 19.6571 16.9218 19.7394 16.9222 19.8225C16.9222 19.8335 16.9222 19.845 16.9222 19.8554C16.9019 20.2154 16.8526 20.5733 16.7749 20.9254C16.7508 21.035 16.723 21.1445 16.6916 21.254C16.6537 21.3861 16.5738 21.5023 16.4641 21.5849C16.3543 21.6676 16.2206 21.7124 16.0832 21.7124H14.3735C14.3196 21.7122 14.2661 21.7226 14.2162 21.743C14.1663 21.7635 14.1209 21.7935 14.0826 21.8315C14.0443 21.8695 14.0139 21.9147 13.993 21.9644C13.9722 22.0142 13.9614 22.0675 13.9612 22.1215V22.691C13.9614 22.7449 13.9722 22.7983 13.993 22.848C14.0139 22.8978 14.0443 22.943 14.0826 22.9809C14.1209 23.0189 14.1663 23.049 14.2162 23.0694C14.2661 23.0899 14.3196 23.1003 14.3735 23.1001H15.3362C15.3829 23.0997 15.4287 23.1121 15.4687 23.136C15.5087 23.1598 15.5414 23.1943 15.5632 23.2355C15.585 23.2767 15.595 23.3231 15.5921 23.3697C15.5893 23.4162 15.5737 23.461 15.5471 23.4993C12.4256 27.8639 5.20073 31.3096 8.72582 37C10.412 33.0237 20.6225 27.7286 20.6225 21.4194C20.6225 15.3484 13.7629 11.7965 12.1003 9.84033C11.5456 10.9208 12.5171 12.0002 14.0082 13.4361C14.0337 13.4605 14.0541 13.4897 14.0683 13.522C14.0824 13.5544 14.09 13.5892 14.0906 13.6244C14.0912 13.6597 14.0848 13.6948 14.0718 13.7276C14.0588 13.7604 14.0394 13.7903 14.0148 13.8156C13.9894 13.8413 13.9592 13.8618 13.9258 13.8758C13.8924 13.8898 13.8566 13.8971 13.8204 13.8972H9.20773C9.15379 13.897 9.10034 13.9074 9.05043 13.9278C9.00051 13.9482 8.95512 13.9783 8.91682 14.0163C8.87853 14.0543 8.8481 14.0994 8.82726 14.1492C8.80642 14.1989 8.79558 14.2523 8.79537 14.3062V14.8758C8.79558 14.9297 8.80642 14.9831 8.82726 15.0328C8.8481 15.0826 8.87853 15.1277 8.91682 15.1657C8.95512 15.2037 9.00051 15.2338 9.05043 15.2542C9.10034 15.2747 9.15379 15.2851 9.20773 15.2849H15.1134C15.2264 15.2846 15.3376 15.3129 15.4368 15.3671C15.536 15.4212 15.6199 15.4996 15.6807 15.5948C15.9883 16.0758 16.2496 16.5848 16.4611 17.115C16.4856 17.177 16.4976 17.2432 16.4965 17.3098C16.4953 17.3765 16.481 17.4422 16.4543 17.5033C16.4276 17.5644 16.3892 17.6196 16.3411 17.6657C16.293 17.7119 16.2362 17.7481 16.1741 17.7722C16.1137 17.7956 16.0495 17.8077 15.9846 17.8078" fill="currentColor"/>
<path d="M5.55993 19.1955H9.75312C9.80706 19.1957 9.86051 19.1853 9.91042 19.1649C9.96034 19.1444 10.0057 19.1143 10.044 19.0764C10.0823 19.0384 10.1128 18.9932 10.1336 18.9435C10.1544 18.8937 10.1653 18.8403 10.1655 18.7864V18.2169C10.1653 18.1629 10.1544 18.1096 10.1336 18.0598C10.1128 18.0101 10.0823 17.9649 10.044 17.9269C10.0057 17.8889 9.96034 17.8589 9.91042 17.8384C9.86051 17.818 9.80706 17.8076 9.75312 17.8078H5.25928C5.17617 17.8082 5.09379 17.7923 5.01685 17.7609C4.93991 17.7294 4.86991 17.6832 4.81087 17.6247C4.75182 17.5662 4.70488 17.4966 4.67273 17.42C4.64057 17.3434 4.62384 17.2611 4.62348 17.178C4.62348 17.1671 4.62348 17.1556 4.62348 17.1452C4.64379 16.7851 4.69305 16.4273 4.77079 16.0751C4.79489 15.9656 4.82556 15.856 4.85403 15.7465C4.89206 15.6144 4.97203 15.4982 5.08189 15.4155C5.19174 15.3329 5.3255 15.2881 5.463 15.2882H7.17105C7.22499 15.2884 7.27844 15.278 7.32835 15.2575C7.37827 15.2371 7.42367 15.207 7.46196 15.169C7.50025 15.131 7.53068 15.0859 7.55152 15.0361C7.57236 14.9864 7.5832 14.933 7.58342 14.8791V14.3095C7.5832 14.2556 7.57236 14.2022 7.55152 14.1525C7.53068 14.1027 7.50025 14.0576 7.46196 14.0196C7.42367 13.9816 7.37827 13.9515 7.32835 13.9311C7.27844 13.9107 7.22499 13.9002 7.17105 13.9005H6.20887C6.16218 13.9011 6.11623 13.8888 6.07608 13.8649C6.03593 13.8411 6.00315 13.8066 5.98134 13.7653C5.95953 13.7241 5.94955 13.6775 5.9525 13.6309C5.95544 13.5843 5.9712 13.5395 5.99803 13.5012C9.11952 9.13664 16.3444 5.69096 12.8193 0C11.1331 3.97743 0.922607 9.273 0.922607 15.5844C0.922607 21.6554 7.78221 25.2074 9.44481 27.1624C9.99956 26.0819 9.02806 25.0025 7.53687 23.5667C7.51134 23.5423 7.4909 23.5131 7.47672 23.4808C7.46253 23.4485 7.45489 23.4137 7.45423 23.3784C7.45357 23.3431 7.4599 23.308 7.47286 23.2752C7.48582 23.2424 7.50516 23.2125 7.52975 23.1872C7.55517 23.1612 7.5855 23.1406 7.61897 23.1265C7.65244 23.1124 7.68839 23.1051 7.7247 23.105H12.3379C12.3919 23.1052 12.4453 23.0948 12.4952 23.0744C12.5451 23.0539 12.5905 23.0239 12.6288 22.9859C12.6671 22.9479 12.6976 22.9027 12.7184 22.853C12.7392 22.8032 12.7501 22.7499 12.7503 22.6959V22.1242C12.7501 22.0703 12.7392 22.0169 12.7184 21.9672C12.6976 21.9174 12.6671 21.8723 12.6288 21.8343C12.5905 21.7963 12.5451 21.7662 12.4952 21.7458C12.4453 21.7253 12.3919 21.7149 12.3379 21.7151H6.43175C6.31874 21.7154 6.20749 21.6871 6.10832 21.6329C6.00914 21.5788 5.92525 21.5004 5.86441 21.4052C5.557 20.924 5.2959 20.4148 5.08458 19.8844C5.06022 19.8221 5.04848 19.7555 5.05004 19.6886C5.05161 19.6217 5.06645 19.5557 5.09371 19.4946C5.12097 19.4335 5.16009 19.3783 5.20882 19.3324C5.25755 19.2866 5.31491 19.2508 5.37757 19.2273C5.43615 19.2049 5.49832 19.1934 5.56102 19.1933" fill="currentColor"/>
<path d="M38.3624 21.2712C37.9257 21.5309 37.4493 21.7168 36.9522 21.8216C36.3707 21.9523 35.7762 22.0166 35.1801 22.0133C33.4766 22.0133 32.167 21.5983 31.2514 20.7685C30.3358 19.9387 29.8774 18.7023 29.8763 17.0594V12.7036H27.9722V9.30832H29.8769V5.93164H34.4589V9.30558H37.4484V12.7036H34.4589V17.0112C34.4356 17.4092 34.5698 17.8005 34.8324 18.1005C34.9619 18.2332 35.1181 18.337 35.2906 18.405C35.4632 18.4731 35.6481 18.5038 35.8334 18.4953C36.33 18.5054 36.8179 18.3634 37.2315 18.0884L38.3624 21.2712Z" fill="currentColor"/>
<path d="M61.6477 8.83117L56.9929 21.8017H52.5571L50.101 14.7412L47.5457 21.8006H43.1099L38.4551 8.83008H42.7939L45.4697 16.6798L48.2418 8.83008H52.1469L54.8467 16.7526L57.6188 8.83008L61.6477 8.83117Z" fill="currentColor"/>
<path d="M65.4811 21.1759C64.3964 20.6383 63.4825 19.8097 62.8415 18.7827C62.3585 18.0113 62.0424 17.1472 61.9136 16.2461C61.7849 15.3451 61.8463 14.4271 62.0939 13.5512C62.3416 12.6753 62.7699 11.861 63.3514 11.1608C63.9329 10.4606 64.6547 9.88988 65.4702 9.48558C66.6598 8.92592 67.9582 8.63574 69.2729 8.63574C70.5876 8.63574 71.886 8.92592 73.0756 9.48558C74.1666 10.0119 75.0832 10.8411 75.7158 11.8741C76.3484 12.9071 76.6704 14.1003 76.6435 15.3113C76.6687 16.5268 76.3464 17.7243 75.7144 18.7629C75.0823 19.8016 74.1669 20.6381 73.0756 21.1742C71.8903 21.7412 70.5929 22.0355 69.2789 22.0355C67.9649 22.0355 66.6676 21.7412 65.4822 21.1742M71.2433 17.5965C71.7871 16.9635 72.0637 16.1439 72.0149 15.3107C72.0625 14.4889 71.7854 13.6812 71.2433 13.0616C70.7174 12.5405 70.007 12.2481 69.2666 12.2481C68.5262 12.2481 67.8158 12.5405 67.2899 13.0616C66.7475 13.681 66.4704 14.4888 66.5183 15.3107C66.4688 16.144 66.7451 16.9638 67.2888 17.5971C67.5474 17.8586 67.8552 18.0661 68.1945 18.2078C68.5338 18.3495 68.8978 18.4224 69.2655 18.4224C69.6332 18.4224 69.9972 18.3495 70.3365 18.2078C70.6758 18.0661 70.9837 17.8586 71.2422 17.5971" fill="currentColor"/>
<path d="M80.3053 21.6418C79.4071 21.4577 78.5444 21.1304 77.75 20.6725L79.124 17.5614C79.7837 17.9565 80.4983 18.2518 81.2445 18.4377C82.0388 18.6496 82.8571 18.7582 83.6792 18.7608C84.2155 18.7938 84.7529 18.7165 85.258 18.5335C85.3939 18.4846 85.5117 18.3956 85.5959 18.2783C85.68 18.1609 85.7264 18.0207 85.729 17.8763C85.729 17.5894 85.5401 17.386 85.1622 17.2663C84.5734 17.1042 83.9728 16.9881 83.366 16.9191C82.4666 16.8195 81.5761 16.6514 80.7023 16.4164C79.978 16.2135 79.3234 15.8157 78.8097 15.2663C78.2475 14.6192 77.9619 13.7771 78.0145 12.9214C78.005 12.1201 78.2686 11.3394 78.7621 10.7079C79.3353 10.007 80.0897 9.47664 80.9433 9.17453C82.0439 8.77447 83.2095 8.58336 84.3802 8.61102C85.3276 8.61094 86.2725 8.70709 87.2005 8.89798C88.017 9.04866 88.8057 9.32308 89.5394 9.71176L88.1649 12.7987C87.0136 12.1624 85.718 11.8331 84.4026 11.8426C83.8613 11.8113 83.3197 11.897 82.8145 12.0939C82.6748 12.1415 82.5522 12.2292 82.4621 12.3461C82.372 12.463 82.3184 12.6039 82.308 12.7511C82.308 13.0541 82.4929 13.2655 82.8627 13.3852C83.4635 13.5532 84.0757 13.6771 84.6945 13.756C85.5977 13.8785 86.4916 14.0615 87.3702 14.3036C88.0757 14.5103 88.7126 14.903 89.2141 15.4405C89.7677 16.0779 90.0491 16.9071 89.9978 17.7498C90.0048 18.5437 89.7414 19.3162 89.2508 19.9403C88.6721 20.6433 87.9079 21.17 87.0449 21.4606C85.9191 21.8524 84.7319 22.0388 83.5401 22.0109C82.4524 22.0113 81.3683 21.8866 80.3091 21.6391" fill="currentColor"/>
<path d="M96.5525 8.82666H91.9727V21.7961H96.5525V8.82666Z" fill="currentColor"/>
<path d="M107.81 21.7968L105.472 18.3987L102.965 21.7968H97.9995L102.965 15.3112L98.1457 8.82617H103.304L105.619 12.1048L108.028 8.82617H112.874L108.055 15.1436L113.044 21.7968H107.81Z" fill="currentColor"/>
<path d="M31.4017 27.3679H29.749V26.5273H34.0106V27.3679H32.3579V30.9888H31.4017V27.3679Z" fill="currentColor"/>
<path d="M38.2731 29.077V30.1619H40.8053V30.9893H37.3164V26.5273H40.6832V27.3613H38.2737V28.347H40.3979V29.0792L38.2731 29.077Z" fill="currentColor"/>
<path d="M43.922 28.7985C43.9198 28.4915 43.978 28.187 44.0934 27.9026C44.2089 27.6181 44.3792 27.3591 44.5947 27.1404C44.8102 26.9218 45.0667 26.7477 45.3495 26.6281C45.6323 26.5086 45.9358 26.4459 46.2428 26.4437C46.2888 26.4437 46.3348 26.4437 46.3808 26.4437C47.0092 26.4168 47.6251 26.6247 48.1086 27.0269L47.7329 27.7794C47.3708 27.46 46.9042 27.2846 46.4214 27.2865C46.0414 27.2697 45.6703 27.4045 45.3896 27.6612C45.109 27.9179 44.9417 28.2756 44.9247 28.6556C44.9223 28.701 44.9223 28.7465 44.9247 28.7919C44.9185 28.9909 44.9549 29.189 45.0313 29.3728C45.1077 29.5567 45.2225 29.7221 45.3679 29.8581C45.5133 29.9941 45.6861 30.0975 45.8746 30.1615C46.0632 30.2254 46.2632 30.2484 46.4613 30.2289C46.9946 30.2176 47.5031 30.0019 47.8819 29.6265L48.2581 30.3182C48.0157 30.565 47.725 30.7593 47.4042 30.8888C47.0834 31.0184 46.7393 31.0804 46.3934 31.0712C44.7062 31.0712 43.9209 30.0203 43.9209 28.8001" fill="currentColor"/>
<path d="M52.6184 26.5273V28.2698H54.7153V26.5273H55.6715V30.9888H54.7153V29.111H52.6184V30.9888H51.6606V26.5273H52.6184Z" fill="currentColor"/>
<path d="M62.7604 26.5273H63.7161V30.9888H62.8218L60.3624 28.0053H60.3509C60.3509 28.0053 60.4122 28.6904 60.4122 29.0283V30.9872H59.4561V26.5273H60.3646L62.8086 29.4971H62.8223C62.8223 29.4971 62.761 28.8054 62.761 28.548L62.7604 26.5273Z" fill="currentColor"/>
<path d="M72.0697 28.7311C72.04 29.3593 71.7695 29.952 71.3144 30.386C70.8593 30.8201 70.2546 31.0622 69.6257 31.0622C68.9968 31.0622 68.392 30.8201 67.9369 30.386C67.4818 29.952 67.2113 29.3593 67.1816 28.7311C67.2231 28.1112 67.4987 27.5302 67.9524 27.1058C68.4062 26.6814 69.0043 26.4453 69.6257 26.4453C70.247 26.4453 70.8451 26.6814 71.2989 27.1058C71.7527 27.5302 72.0282 28.1112 72.0697 28.7311ZM68.1903 28.7377C68.1817 29.1098 68.3175 29.4708 68.5692 29.7449C68.821 30.019 69.1691 30.185 69.5406 30.2081C69.9121 30.2311 70.278 30.1093 70.5617 29.8684C70.8454 29.6274 71.0247 29.286 71.0621 28.9157C71.0652 28.8564 71.0643 28.7969 71.0594 28.7377C71.0664 28.5568 71.0377 28.3762 70.9749 28.2064C70.9121 28.0366 70.8165 27.8808 70.6935 27.7479C70.5704 27.6151 70.4224 27.5078 70.2579 27.4322C70.0934 27.3566 69.9156 27.3141 69.7346 27.3073C69.6979 27.3073 69.6618 27.3073 69.6251 27.3073C69.259 27.2934 68.9022 27.4254 68.6333 27.6743C68.3644 27.9232 68.2053 28.2686 68.1909 28.6348C68.1909 28.6693 68.1903 28.7032 68.1903 28.7377Z" fill="currentColor"/>
<path d="M76.4894 26.5273V30.1482H78.8524V30.9888H75.5332V26.5273H76.4894Z" fill="currentColor"/>
<path d="M86.7344 28.7311C86.7046 29.3593 86.4341 29.952 85.9791 30.386C85.524 30.8201 84.9192 31.0622 84.2903 31.0622C83.6614 31.0622 83.0567 30.8201 82.6016 30.386C82.1465 29.952 81.876 29.3593 81.8462 28.7311C81.8878 28.1112 82.1633 27.5302 82.6171 27.1058C83.0709 26.6814 83.669 26.4453 84.2903 26.4453C84.9116 26.4453 85.5097 26.6814 85.9635 27.1058C86.4173 27.5302 86.6929 28.1112 86.7344 28.7311ZM82.855 28.7377C82.8481 29.1087 82.9847 29.468 83.2363 29.7407C83.4879 30.0134 83.835 30.1784 84.2054 30.2014C84.5757 30.2244 84.9406 30.1035 85.2239 29.8639C85.5073 29.6244 85.6872 29.2847 85.7262 28.9157C85.7293 28.8564 85.7284 28.7969 85.7235 28.7377C85.7305 28.5568 85.7018 28.3762 85.639 28.2064C85.5762 28.0366 85.4806 27.8808 85.3576 27.7479C85.2345 27.6151 85.0865 27.5078 84.922 27.4322C84.7575 27.3566 84.5797 27.3141 84.3987 27.3073C84.3626 27.3073 84.3259 27.3073 84.2892 27.3073C83.923 27.2931 83.5662 27.4249 83.2971 27.6737C83.028 27.9225 82.8688 28.268 82.8544 28.6342C82.8544 28.6693 82.855 28.7032 82.855 28.7377Z" fill="currentColor"/>
<path d="M90.87 28.8055C90.8552 28.9874 90.8781 29.1705 90.9372 29.3432C90.9962 29.5159 91.0902 29.6746 91.2132 29.8095C91.3362 29.9443 91.4857 30.0524 91.6523 30.127C91.8189 30.2016 91.999 30.2411 92.1816 30.243C92.5808 30.2552 92.9718 30.1282 93.2878 29.8838V29.3208H92.2905V28.6062H94.2434V30.9927H93.6016L93.4104 30.5179H93.3694C93.2251 30.7104 93.0338 30.8626 92.8138 30.9598C92.5938 31.0571 92.3525 31.0961 92.1131 31.0732C91.8136 31.0878 91.5143 31.0388 91.235 30.9296C90.9557 30.8204 90.7026 30.6534 90.4924 30.4395C90.2821 30.2257 90.1195 29.9698 90.015 29.6887C89.9106 29.4075 89.8668 29.1075 89.8864 28.8082C89.8768 28.4896 89.9337 28.1724 90.0534 27.877C90.1732 27.5816 90.3532 27.3143 90.5819 27.0923C90.8107 26.8703 91.0832 26.6984 91.3821 26.5875C91.681 26.4767 91.9997 26.4293 92.3179 26.4485C92.9604 26.4161 93.5931 26.616 94.1005 27.0115L93.7861 27.7716C93.3801 27.4612 92.8837 27.2922 92.3727 27.2902C91.9972 27.2668 91.6278 27.3935 91.3456 27.6425C91.0635 27.8914 90.8919 28.2422 90.8683 28.6177C90.8639 28.6809 90.8639 28.7444 90.8683 28.8077" fill="currentColor"/>
<path d="M98.9142 26.5273H97.958V30.9888H98.9142V26.5273Z" fill="currentColor"/>
<path d="M103.648 29.077V30.1619H106.18V30.9893H102.69V26.5273H106.057V27.3613H103.648V28.347H105.772V29.0792L103.648 29.077Z" fill="currentColor"/>
<path d="M109.351 30.7112L109.557 29.9314C110.023 30.1452 110.527 30.2629 111.039 30.2775C111.736 30.2775 112.036 29.9927 112.036 29.6346C112.038 29.5539 112.017 29.4744 111.974 29.4057C111.932 29.3371 111.87 29.2823 111.797 29.248C111.511 29.1461 111.212 29.0845 110.909 29.0651C110.541 29.0435 110.182 28.9489 109.851 28.7869C109.676 28.6905 109.531 28.5471 109.433 28.3729C109.336 28.1987 109.289 28.0007 109.298 27.8011C109.298 27.0147 110.029 26.4447 111.115 26.4447C111.661 26.4371 112.202 26.5457 112.703 26.7634L112.484 27.5158C112.055 27.3453 111.6 27.2526 111.139 27.242C110.461 27.242 110.251 27.5268 110.251 27.7973C110.249 27.8771 110.271 27.9557 110.315 28.0224C110.359 28.0891 110.422 28.1407 110.496 28.1702C110.776 28.2592 111.065 28.3162 111.357 28.34C111.717 28.3697 112.07 28.4624 112.398 28.6138C112.58 28.7101 112.73 28.8563 112.832 29.0353C112.934 29.2143 112.982 29.4186 112.972 29.6242C112.972 30.438 112.343 31.0683 111.113 31.0683C110.506 31.0838 109.904 30.9607 109.351 30.7085" fill="currentColor"/>
</g>
<defs>
<clipPath id="clip0_71_280">
<rect width="113" height="37" fill="white" transform="translate(0.201904)"/>
</clipPath>
</defs>
</svg>
