<svg width="58" height="58" viewBox="0 0 58 58" fill="none" xmlns="http://www.w3.org/2000/svg">
    <path fill-rule="evenodd" clip-rule="evenodd" d="M0.105469 0.5H57.1055V57.5H0.105469V0.5Z" fill="url(#paint0_linear_7920_10148)"/>
    <path fill-rule="evenodd" clip-rule="evenodd" d="M27.7547 23.5038V28.2234L31.8445 23.5038H33.9008L29.2681 29.2123L34.1373 35.2272H32.1095L27.7547 29.8051V35.2073H25.9222V23.5038H27.7547ZM45.7055 35.0562L40.0055 31.6989V23.052C40.0046 22.9186 39.9656 22.7882 39.8932 22.6761C39.8207 22.564 39.7178 22.475 39.5965 22.4193L31.4555 18.6488V12.3061L45.7055 19.2843V35.0562ZM46.7343 18.227L31.0593 10.5505C30.9508 10.4971 30.8306 10.472 30.7097 10.4775C30.5889 10.483 30.4714 10.5189 30.3682 10.5819C30.2657 10.6437 30.1808 10.7308 30.1217 10.8348C30.0625 10.9389 30.0311 11.0564 30.0305 11.1761V19.0948C30.0305 19.3656 30.1886 19.6121 30.4394 19.7275L38.5805 23.4938V32.0937C38.5805 32.3388 38.7101 32.5668 38.9267 32.6922L46.0517 36.8916C46.159 36.9555 46.2812 36.99 46.406 36.9919C46.5308 36.9938 46.6539 36.9629 46.7631 36.9023C46.8722 36.8418 46.9636 36.7537 47.028 36.6468C47.0925 36.5399 47.1278 36.4179 47.1305 36.2931V18.8512C47.13 18.72 47.0926 18.5916 47.0225 18.4807C46.9525 18.3698 46.8526 18.2809 46.7343 18.2241V18.227ZM28.5983 47.4566L12.9305 39.4267V19.2658L25.7555 12.356V18.6859L18.9924 22.4421C18.8831 22.5019 18.7919 22.5898 18.7282 22.6969C18.6645 22.8039 18.6308 22.9261 18.6305 23.0506V35.6505C18.6309 35.7763 18.6653 35.8996 18.73 36.0074C18.7947 36.1153 18.8873 36.2037 18.9981 36.2632L28.2606 41.2721C28.366 41.3292 28.484 41.3592 28.6039 41.3595C28.7237 41.3597 28.8418 41.3302 28.9475 41.2735L37.8537 36.4698L42.9068 39.7901L28.5983 47.4566ZM38.2869 35.0691C38.1778 34.9981 38.0515 34.9577 37.9214 34.9522C37.7913 34.9467 37.6621 34.9762 37.5473 35.0377L28.6055 39.8613L20.0555 35.2372V23.4596L26.8185 19.7019C26.9277 19.642 27.0189 19.554 27.0825 19.447C27.1462 19.34 27.18 19.2179 27.1805 19.0934V11.1732C27.18 11.0512 27.1475 10.9314 27.0863 10.8259C27.025 10.7204 26.9371 10.6328 26.8313 10.5719C26.7244 10.5098 26.6034 10.4759 26.4798 10.4735C26.3561 10.471 26.2339 10.4999 26.1245 10.5576L11.8745 18.2355C11.7635 18.2949 11.6706 18.3832 11.6056 18.4911C11.5406 18.5989 11.506 18.7224 11.5055 18.8483V39.8485C11.5055 40.1107 11.6522 40.3473 11.8874 40.4698L28.2749 48.8702C28.3794 48.9219 28.4947 48.9482 28.6113 48.947C28.7279 48.9457 28.8426 48.917 28.946 48.8631L44.621 40.4627C44.7284 40.4067 44.8192 40.3235 44.8844 40.2214C44.9496 40.1193 44.9868 40.0019 44.9924 39.8809C44.9981 39.7599 44.9719 39.6395 44.9164 39.5319C44.861 39.4242 44.7783 39.3329 44.6766 39.2671L38.2869 35.0676V35.0691Z" fill="white"/>
    <defs>
        <linearGradient id="paint0_linear_7920_10148" x1="0.105469" y1="5700.5" x2="5700.11" y2="0.5" gradientUnits="userSpaceOnUse">
            <stop stop-color="#C8511B"/>
            <stop offset="1" stop-color="#FF9900"/>
        </linearGradient>
    </defs>
</svg>
