<svg width="171" height="31" viewBox="0 0 171 31" fill="none" xmlns="http://www.w3.org/2000/svg">
<g clip-path="url(#clip0_18667_40806)">
<path d="M15.3718 0.209961C6.92753 0.21009 0.0821123 7.05553 0.0820313 15.4998C0.0820305 23.9443 6.92737 30.7898 15.3718 30.7898H22.3498V23.3017H32.0906L24.7638 14.7489H14.9747L22.2944 23.2935H15.3718C11.0676 23.2935 7.57847 19.8042 7.5784 15.5C7.5784 11.1958 11.0676 7.70646 15.3718 7.70632C17.5107 7.7064 19.4472 8.56694 20.8563 9.96266L21.4741 10.5747L26.7081 5.20398L26.0962 4.6018C23.3374 1.88667 19.5494 0.210026 15.3718 0.209961Z" fill="#ECE7E3"/>
<path d="M15.3718 0.209961C6.92753 0.21009 0.0821123 7.05553 0.0820313 15.4998C0.0820305 23.9443 6.92737 30.7898 15.3718 30.7898H22.3498V23.3017H32.0906L24.7638 14.7489H14.9747L22.2944 23.2935H15.3718C11.0676 23.2935 7.57847 19.8042 7.5784 15.5C7.5784 11.1958 11.0676 7.70646 15.3718 7.70632C17.5107 7.7064 19.4472 8.56694 20.8563 9.96266L21.4741 10.5747L26.7081 5.20398L26.0962 4.6018C23.3374 1.88667 19.5494 0.210026 15.3718 0.209961Z" fill="url(#paint0_linear_18667_40806)"/>
<path d="M155.701 7.55713H170.436V9.41561H159.213C158.422 9.41561 157.781 10.0566 157.781 10.8472V12.8736C157.781 13.6642 158.422 14.3052 159.213 14.3052H169.175V16.1637H159.213C158.422 16.1637 157.781 16.8046 157.781 17.5953V20.1526C157.781 20.9433 158.422 21.5842 159.213 21.5842H170.436V23.4428H155.701V7.55713Z" fill="#F7F1ED"/>
<path d="M137.84 7.55713H152.575V9.41561H141.351C140.561 9.41561 139.92 10.0566 139.92 10.8472V12.8736C139.92 13.6642 140.561 14.3052 141.351 14.3052H151.314V16.1637H141.351C140.561 16.1637 139.92 16.8046 139.92 17.5953V20.1526C139.92 20.9433 140.561 21.5842 141.351 21.5842H152.575V23.4428H137.84V7.55713Z" fill="#F7F1ED"/>
<path d="M135.234 9.41561H129.165C128.375 9.41561 127.734 10.0566 127.734 10.8472V23.4428H125.61V10.8472C125.61 10.0566 124.969 9.41561 124.178 9.41561H118.109V7.55713H135.234V9.41561Z" fill="#F7F1ED"/>
<path d="M115.495 7.55713V23.4428H113.371V7.55713H115.495Z" fill="#F7F1ED"/>
<path d="M102.829 23.4428H100.396L92.0547 7.55713H94.3336L100.79 19.8438C101.148 20.5244 102.122 20.5244 102.48 19.8438L108.936 7.55713H111.193L102.829 23.4428Z" fill="#F7F1ED"/>
<path d="M84.3222 7.55713H86.6451L94.9862 23.4428H92.7296L90.4285 19.0399H80.5388L78.2156 23.4428H75.959L84.3222 7.55713ZM86.3373 11.2422C85.9804 10.562 85.0069 10.5609 84.6484 11.2403L82.2512 15.7815C81.9156 16.4171 82.3765 17.1814 83.0952 17.1814H87.8762C88.594 17.1814 89.0548 16.4189 88.7211 15.7834L86.3373 11.2422Z" fill="#F7F1ED"/>
<path d="M61.4267 16.7832V23.4428H59.3027V7.55713H69.2369C72.5555 7.55713 74.8565 9.12799 74.8565 12.1591C74.8565 14.7034 73.175 16.2743 70.6086 16.6725L75.1884 23.4428H72.7547L68.2854 16.7832H61.4267ZM61.4267 13.9924C61.4267 14.5195 61.8541 14.9468 62.381 14.9468H69.1261C71.3829 14.9468 72.7768 13.9512 72.7768 12.1591C72.7768 10.367 71.3829 9.39347 69.1261 9.39347H62.381C61.8541 9.39347 61.4267 9.82077 61.4267 10.3479V13.9924Z" fill="#F7F1ED"/>
<path d="M47.383 7.31396C51.498 7.31396 54.5292 9.34946 55.6575 12.4469L53.8654 13.3983C52.914 10.8097 50.6573 9.21671 47.383 9.21671C43.2014 9.21671 40.2365 11.7389 40.2365 15.478C40.2365 19.2392 43.1791 21.7836 47.2943 21.7836C50.2112 21.7836 52.7424 20.4929 53.6122 18.4826C53.9331 17.7407 53.2627 17.0489 52.4543 17.0489H46.1439V15.1904H53.4265C54.7442 15.1904 55.8125 16.2587 55.8125 17.5764V23.443H53.8212V20.6774C52.8476 22.3588 50.4139 23.6642 47.2943 23.6863C41.9623 23.6863 38.0684 20.2569 38.0684 15.478C38.0684 10.6991 42.0286 7.31396 47.383 7.31396Z" fill="#F7F1ED"/>
</g>
<defs>
<linearGradient id="paint0_linear_18667_40806" x1="29.0027" y1="1.86923" x2="3.53273" y2="30.7898" gradientUnits="userSpaceOnUse">
<stop stop-color="#FF7200"/>
<stop offset="1" stop-color="#F01114"/>
</linearGradient>
<clipPath id="clip0_18667_40806">
<rect width="170.441" height="30.7225" fill="white" transform="translate(0 0.209961)"/>
</clipPath>
</defs>
</svg>
