<svg id="screenshot" viewBox="5693.500832969354 1497.999708550978 23.856678456791997 23.85905751740688" width="23.856678456791997" height="23.85905751740688" version="1.1" xmlns="http://www.w3.org/2000/svg" xmlns:xlink="http://www.w3.org/1999/xlink" style="-webkit-print-color-adjust: exact;"><g id="shape-2ebe5ec0-9679-11ec-a64b-eb96f55da477"><path fill-rule="nonzero" d="M5716.06,1498.448757396C5715.791141,1498.264862634,5715.489274,1498.134664414,5715.1710059,1498.0653254438C5714.8445654,1497.99350211195,5714.5079262,1497.9805174567,5714.1769231,1498.0269822485C5713.8300022,1498.0754129884,5713.4938469,1498.182502461,5713.1828402,1498.343668639L5711.7314793,1499.14461538L5710.2772781,1499.94414201L5708.8216568,1500.74366864L5707.3674556,1501.55029586C5707.052367,1501.73463914,5706.7149409,1501.87781851,5706.363432,1501.97633136C5706.0231945,1502.07499884,5705.6710465,1502.12660261,5705.3168047,1502.12970414C5704.9632295,1502.13403046,5704.6106909,1502.09056025,5704.2687574,1502.00047337C5703.915941,1501.90703678,5703.5769412,1501.76761712,5703.26047337,1501.58579882L5701.85029586,1500.81893491L5700.44011834,1500.05207101L5699.02994083,1499.28804734L5697.6183432,1498.521183432C5697.0954303,1498.187383077,5696.46989974,1498.0528007573,5695.85597633,1498.142011834C5695.28939168,1498.23010826,5694.76400983,1498.491558907,5694.352071006,1498.890414201C5693.936758958,1499.28408448,5693.654336874,1499.79730844,5693.5440236686,1500.35881657C5693.4306711109,1500.9676411,5693.5421942615,1501.59691426,5693.857869822,1502.12970414L5694.352071006,1503.03573964L5695.44130178,1505.02390533L5696.53053254,1507.01207101L5697.02615385,1507.91810651C5697.21030815,1508.2297756,5697.35350089,1508.563892,5697.45218935,1508.9121893C5697.54573238,1509.2527393,5697.59348974,1509.6042335,5697.59420118,1509.9573964C5697.59355639,1510.3114979,5697.54580009,1510.6639394,5697.45218935,1511.0054438C5697.36445886,1511.3649376,5697.22930969,1511.7111678,5697.05029586,1512.0350296L5696.27633136,1513.4792899L5695.50094675,1514.9192899L5694.72556213,1516.3578698L5693.950177515,1517.7978698C5693.819905851,1518.0339045,5693.719717449,1518.2853297,5693.651952663,1518.5462722C5693.5880344943,1518.7928227,5693.559347411,1519.0471815,5693.5667455621,1519.3017751C5693.5762621476,1519.5518685,5693.624158517,1519.7990137,5693.708757396,1520.0345562C5693.794110593,1520.2814547,5693.917750283,1520.5133989,5694.075147929,1520.7218935C5694.266848587,1520.9853458,5694.50508154,1521.2115468,5694.77810651,1521.3893491C5695.04945243,1521.5696344,5695.35035527,1521.7008588,5695.66710059,1521.7770414C5695.99210946,1521.8567385,5696.32864522,1521.8783729,5696.66118343,1521.8409467C5697.00811112,1521.8010683,5697.34492598,1521.6985803,5697.65526627,1521.5384615L5699.16485207,1520.7105325L5700.67301775,1519.8840237L5702.18118343,1519.0560947L5703.6893491,1518.2281657C5703.23574931,1517.9024104,5702.81654069,1517.5312609,5702.43822485,1517.1204734C5702.05901408,1516.7076286,5701.71106995,1516.2671209,5701.39727811,1515.8026036C5701.08059172,1515.3368047,5700.79088757,1514.8511243,5700.52248521,1514.3569231C5700.28248521,1513.9166864,5700.05952663,1513.4707692,5699.84508876,1513.0276923C5700.22426036,1513.7377515,5701.0408284,1514.4918343,5702.1016568,1515.2487574C5703.39200426,1516.1366711,5704.736643,1516.9429801,5706.1276923,1517.6629586C5707.5904142,1518.4411834,5709.0914793,1519.1768047,5710.3880473,1519.8272189C5711.6846154,1520.4776331,5712.783787,1521.0414201,5713.4356213,1521.471716C5713.9618732,1521.7831643,5714.5872553,1521.8817217,5715.183787,1521.7472189C5715.7369784,1521.6096401,5716.233435,1521.3028299,5716.6039053,1520.8695858C5716.9917995,1520.4300254,5717.2438763,1519.8873945,5717.3295858,1519.3074556C5717.4189199,1518.694439,5717.2924123,1518.0694308,5716.971716,1517.5394083L5716.0798817,1515.9261538L5714.1272189,1512.375858L5712.1745562,1508.8255621L5711.2926627,1507.23076923C5711.1037271,1506.91269175,5710.8984831,1506.60458872,5710.6777515,1506.30769231C5710.4584678,1506.01635599,5710.2213262,1505.73890031,5709.9676923,1505.47692308C5709.7156473,1505.21607297,5709.4461495,1504.97267084,5709.1610651,1504.74840237C5708.871195,1504.52018837,5708.5645265,1504.31416034,5708.2436686,1504.13207101C5708.7421302,1504.35928994,5709.2491124,1504.59502959,5709.7461538,1504.84923077C5710.2469491,1505.10151918,5710.7342388,1505.37976729,5711.2060355,1505.68284024C5711.6772686,1505.98478217,5712.1236558,1506.32384647,5712.5409467,1506.69680473C5712.9619658,1507.07595096,5713.3405209,1507.49974216,5713.6699408,1507.96071006L5714.4723077,1506.49230769L5715.2746746,1505.02390533L5716.0798817,1503.55266272L5716.8822485,1502.08426036C5717.0160151,1501.86351779,5717.116504,1501.62425856,5717.1804734,1501.37420118C5717.244268,1501.12617795,5717.2729499,1500.87043091,5717.2656805,1500.61443787C5717.2560653,1500.35602939,5717.2082082,1500.10047237,5717.1236686,1499.85609467C5717.037799,1499.60595511,5716.9126854,1499.37106749,5716.7530178,1499.16023669C5716.5711291,1498.87974555,5716.3356133,1498.63795583,5716.06,1498.448757396ZZM5697.45076923,1519.0177515C5697.47151235,1519.3179209,5697.36259633,1519.6125839,5697.15161064,1519.8270996C5696.94062495,1520.0416153,5696.64780951,1520.1554051,5696.34733728,1520.139645C5695.73322278,1520.144743,5695.23125186,1519.6510376,5695.22615385,1519.0369231C5695.22105583,1518.4228086,5695.71476124,1517.9208377,5696.32887574,1517.9157396C5696.62890588,1517.8945669,5696.92359995,1518.0031426,5697.13817368,1518.2139138C5697.35274742,1518.424685,5697.46657454,1518.7173908,5697.45076923,1519.0177515ZZM5695.25100592,1500.88426036C5695.2302628,1500.58409096,5695.33917882,1500.28942793,5695.55016451,1500.07491223C5695.7611502,1499.86039653,5696.05396564,1499.74660673,5696.35443787,1499.76236686C5696.65460727,1499.74162374,5696.9492703,1499.85053976,5697.16378599,1500.06152545C5697.37830169,1500.27251114,5697.49209149,1500.56532658,5697.47633136,1500.86579882C5697.49707448,1501.16596822,5697.38815846,1501.46063125,5697.17717277,1501.67514694C5696.96618708,1501.88966264,5696.67337164,1502.00345244,5696.37289941,1501.98769231C5696.07273001,1502.00843543,5695.77806698,1501.89951941,5695.56355128,1501.68853372C5695.34903559,1501.47754803,5695.23524578,1501.18473259,5695.25100592,1500.88426036ZL5695.25100592,1500.88426036ZZM5715.5984615,1518.9836686C5715.6030458,1519.4342128,5715.33563,1519.8431048,5714.9210268,1520.0194999C5714.5064236,1520.1958951,5714.0263771,1520.1050149,5713.7049423,1519.7892764C5713.3835076,1519.473538,5713.2840594,1518.995193,5713.4530138,1518.5775024C5713.6219683,1518.1598118,5714.0260139,1517.8851283,5714.476568,1517.8816568C5714.7765982,1517.860484,5715.0712923,1517.9690598,5715.285866,1518.179831C5715.5004397,1518.3906021,5715.6142668,1518.6833079,5715.5984615,1518.9836686ZZM5708.0718343,1509.5299408C5707.743787,1508.9931361,5707.2027219,1508.7829586,5706.5537278,1508.7900592C5705.6672753,1508.8197291,5704.8833336,1509.373619,5704.5592574,1510.1992418C5704.2351812,1511.0248645,5704.4330252,1511.9641283,5705.0626036,1512.5888757C5704.3591043,1512.4993019,5703.7208115,1512.1316287,5703.29036747,1511.5680219C5702.85992344,1511.0044151,5702.67320993,1510.2918568,5702.77195266,1509.5895858C5702.98071006,1508.1822485,5704.3795266,1507.0887574,5705.7854438,1507.28615385C5706.975503,1507.48781065,5707.9539645,1508.3413018,5708.0718343,1509.5299408ZL5708.0718343,1509.5299408ZZM5715.6779882,1500.79053254C5715.6626037,1501.39025145,5715.1748206,1501.86994954,5714.5749283,1501.87530914C5713.9750361,1501.88066874,5713.47876,1501.4097625,5713.4526627,1500.8104142C5713.4680472,1500.21069529,5713.9558303,1499.7309972,5714.5557226,1499.7256376C5715.1556148,1499.720278,5715.6518909,1500.19118424,5715.6779882,1500.79053254ZZ" style="fill: rgb(255, 105, 75);"/></g></svg>