<?xml version="1.0" encoding="UTF-8" standalone="no"?>
<svg
   viewBox="0 0 249.99999 250"
   version="1.1"
   id="svg14"
   sodipodi:docname="drive.svg"
   width="250"
   height="250"
   inkscape:version="1.1.1 (1:1.1+202109281949+c3084ef5ed)"
   xmlns:inkscape="http://www.inkscape.org/namespaces/inkscape"
   xmlns:sodipodi="http://sodipodi.sourceforge.net/DTD/sodipodi-0.dtd"
   xmlns="http://www.w3.org/2000/svg"
   xmlns:svg="http://www.w3.org/2000/svg">
  <defs
     id="defs18" />
  <sodipodi:namedview
     id="namedview16"
     pagecolor="#505050"
     bordercolor="#eeeeee"
     borderopacity="1"
     inkscape:pageshadow="0"
     inkscape:pageopacity="0"
     inkscape:pagecheckerboard="0"
     showgrid="false"
     width="250px"
     inkscape:zoom="2.1891026"
     inkscape:cx="50.248902"
     inkscape:cy="104.60908"
     inkscape:window-width="1920"
     inkscape:window-height="1022"
     inkscape:window-x="2560"
     inkscape:window-y="0"
     inkscape:window-maximized="1"
     inkscape:current-layer="svg14" />
  <path
     d="m 29.027227,198.53504 10.133364,17.85467 c 2.105635,3.75888 5.132483,6.71227 8.68574,8.86021 L 84.036918,161.34901 H 11.655747 c 0,4.16161 1.052817,8.32322 3.158451,12.0821 z"
     fill="#0066da"
     id="path2"
     style="stroke-width:2.65834" />
  <path
     d="M 126.54441,86.171471 90.35382,22.270565 c -3.553258,2.147929 -6.580106,5.101333 -8.685741,8.860209 L 14.814198,149.2669 a 23.846306,24.325303 0 0 0 -3.158451,12.08211 h 72.381171 z"
     fill="#00ac47"
     id="path4"
     style="stroke-width:2.65834" />
  <path
     d="m 205.24248,225.24992 c 3.55326,-2.14794 6.58011,-5.10133 8.68575,-8.86021 l 4.21126,-7.38351 20.13513,-35.57509 c 2.10563,-3.75888 3.15845,-7.92049 3.15845,-12.0821 h -72.38644 l 15.40272,30.87649 z"
     fill="#ea4335"
     id="path6"
     style="stroke-width:2.65834" />
  <path
     d="m 126.54441,86.171471 36.19058,-63.900906 c -3.55326,-2.14793 -7.63292,-3.221895 -11.84419,-3.221895 h -48.69279 c -4.211266,0 -8.290933,1.20821 -11.84419,3.221895 z"
     fill="#00832d"
     id="path8"
     style="stroke-width:2.65834" />
  <path
     d="M 169.0519,161.34901 H 84.036918 l -36.190587,63.90091 c 3.553258,2.14793 7.632924,3.22189 11.844193,3.22189 H 193.3983 c 4.21126,0 8.29093,-1.2082 11.84418,-3.22189 z"
     fill="#2684fc"
     id="path10"
     style="stroke-width:2.65834" />
  <path
     d="M 204.84767,90.198838 171.42074,31.130774 c -2.10564,-3.758876 -5.13249,-6.71228 -8.68575,-8.860209 l -36.19058,63.900906 42.50749,75.177539 h 72.24956 c 0,-4.16162 -1.05281,-8.32323 -3.15844,-12.08211 z"
     fill="#ffba00"
     id="path12"
     style="stroke-width:2.65834" />
</svg>
