<?xml version="1.0" encoding="UTF-8" standalone="no"?>
<svg
        viewBox="0 0 100.64 64"
        width="100.64"
        height="64"
        preserveAspectRatio="xMidYMid"
        version="1.1"
        id="svg33"
        sodipodi:docname="bla.svg"
        inkscape:version="1.2 (1:1.2.1+202207142221+cd75a1ee6d)"
        xmlns:inkscape="http://www.inkscape.org/namespaces/inkscape"
        xmlns:sodipodi="http://sodipodi.sourceforge.net/DTD/sodipodi-0.dtd"
        xmlns="http://www.w3.org/2000/svg"
        xmlns:svg="http://www.w3.org/2000/svg">
    <sodipodi:namedview
            id="namedview35"
            pagecolor="#505050"
            bordercolor="#eeeeee"
            borderopacity="1"
            inkscape:showpageshadow="0"
            inkscape:pageopacity="0"
            inkscape:pagecheckerboard="0"
            inkscape:deskcolor="#505050"
            showgrid="false"
            inkscape:zoom="3.0731707"
            inkscape:cx="200.28175"
            inkscape:cy="32.376984"
            inkscape:window-width="2560"
            inkscape:window-height="1382"
            inkscape:window-x="0"
            inkscape:window-y="0"
            inkscape:window-maximized="1"
            inkscape:current-layer="g31" />
    <defs
            id="defs5">
        <clipPath
                id="__lottie_element_3">
            <rect
                    width="410"
                    height="70"
                    x="0"
                    y="0"
                    id="rect2" />
        </clipPath>
    </defs>
    <g
            clip-path="url(#__lottie_element_3)"
            id="g31"
            transform="translate(-5.0399978,-2.9399998)">
        <g
                transform="matrix(0.065,0,0,0.065,31,9)"
                opacity="1"
                style="display:block"
                id="g13">
            <g
                    opacity="1"
                    transform="translate(400,400)"
                    id="g11" />
        </g>
        <g
                transform="matrix(0.08,0,0,0.08,205.03999,34.959999)"
                opacity="1"
                style="display:block"
                id="g21">
            <g
                    opacity="1"
                    id="g19">
                <path
                        fill="#fff100"
                        fill-opacity="1"
                        d="m -1385,143 c 79,0 143,-64 143,-143 0,-79 -64,-144 -143,-144 0,0 -188,0 -188,0 0,0 0,287 0,287 0,0 188,0 188,0 z"
                        id="path15" />
                <path
                        fill="#fff100"
                        fill-opacity="1"
                        d="m -1385,143 c 79,0 143,-64 143,-143 0,-79 -64,-144 -143,-144 0,0 -188,0 -188,0 0,0 0,287 0,287 0,0 188,0 188,0 z"
                        id="path17" />
            </g>
        </g>
        <g
                transform="matrix(0.08,0,0,0.08,205.03999,34.959999)"
                opacity="1"
                style="display:block"
                id="g29">
            <g
                    opacity="1"
                    id="g27">
                <path
                        fill="#fff100"
                        fill-opacity="1"
                        d="m -2500,-0.25 c 0,221 179,400 400,400 221,0 400,-179 400,-400 0,-221 -179,-400 -400,-400 -221,0 -400,179 -400,400 z"
                        id="path23" />
                <path
                        fill="#fff100"
                        fill-opacity="1"
                        d="m -2500,-0.25 c 0,221 179,400 400,400 221,0 400,-179 400,-400 0,-221 -179,-400 -400,-400 -221,0 -400,179 -400,400 z"
                        id="path25" />
            </g>
        </g>
    </g>
</svg>
