<?xml version="1.0" encoding="UTF-8" standalone="no"?>
<svg
   width="114.65099"
   height="107.57619"
   viewBox="0 0 114.65099 107.57619"
   fill="none"
   version="1.1"
   id="svg18"
   sodipodi:docname="logo-section-1.svg"
   inkscape:version="1.1.2 (0a00cf5339, 2022-02-04)"
   xmlns:inkscape="http://www.inkscape.org/namespaces/inkscape"
   xmlns:sodipodi="http://sodipodi.sourceforge.net/DTD/sodipodi-0.dtd"
   xmlns="http://www.w3.org/2000/svg"
   xmlns:svg="http://www.w3.org/2000/svg">
  <defs
     id="defs22" />
  <sodipodi:namedview
     id="namedview20"
     pagecolor="#ffffff"
     bordercolor="#666666"
     borderopacity="1.0"
     inkscape:pageshadow="2"
     inkscape:pageopacity="0.0"
     inkscape:pagecheckerboard="0"
     showgrid="false"
     inkscape:zoom="1.8684211"
     inkscape:cx="206.85915"
     inkscape:cy="39.070423"
     inkscape:window-width="2560"
     inkscape:window-height="1517"
     inkscape:window-x="3840"
     inkscape:window-y="0"
     inkscape:window-maximized="1"
     inkscape:current-layer="svg18" />
  <path
     d="m 77.016893,0 c -22.547,0 -37.678,13.128 -37.678,38.594 v 18.157 c 2.289,-1.126 4.802,-1.723 7.353,-1.748 2.555,10e-4 5.077,0.584 7.373,1.705 V 38.509 c 0,-16.516 9.121,-24.998 23.015,-24.998 13.895,0 22.888,8.482 22.888,24.998 v 39.68 H 114.65089 V 38.509 C 114.69389,12.893 99.562893,0 77.016893,0 Z"
     fill="#000000"
     id="path4" />
  <path
     d="m 46.051893,59.67 c -2.727,0.003 -5.377,0.901 -7.544,2.557 l -13.809,-9.44 c 0.307,-1.104 0.465,-2.243 0.469,-3.389 0.029,-2.487 -0.681,-4.928 -2.041,-7.011 -1.36,-2.083 -3.309,-3.715 -5.599,-4.689 -2.289,-0.973 -4.816,-1.245 -7.26,-0.779 -2.444,0.466 -4.695,1.647 -6.466,3.394 -1.771,1.747 -2.98299997,3.982 -3.48199997,6.419 -0.499,2.437 -0.262,4.968 0.68,7.271 0.94199997,2.302 2.54699997,4.273 4.61199997,5.662 2.064,1.388 4.495,2.132 6.983,2.136 2.727,0.002 5.379,-0.897 7.544,-2.557 l 13.766,9.504 c -0.625,2.223 -0.625,4.576 0,6.798 l -13.809,9.441 c -2.153,-1.651 -4.788,-2.55 -7.501,-2.557 -2.489,-0.004 -4.923,0.73 -6.994,2.11 -2.071,1.38 -3.686,3.343 -4.63999997,5.642 -0.954,2.298 -1.205,4.828 -0.72,7.269 0.484,2.441 1.68199997,4.683 3.44199997,6.443 1.759,1.759 4.002,2.957 6.443,3.442 2.441,0.484 4.97,0.233 7.269,-0.721 2.298,-0.954 4.261,-2.569 5.641,-4.64 1.38,-2.071 2.115,-4.505 2.111,-6.993 -10e-4,-1.13 -0.152,-2.255 -0.448,-3.346 l 13.809,-9.441 c 2.167,1.656 4.817,2.555 7.544,2.558 3.172,-0.227 6.14,-1.647 8.306,-3.974 2.167,-2.327 3.372,-5.388 3.372,-8.568 0,-3.179 -1.205,-6.241 -3.372,-8.568 -2.166,-2.327 -5.134,-3.746 -8.306,-3.973 z"
     fill="#018bff"
     id="path16" />
</svg>
