<?xml version="1.0" encoding="UTF-8" standalone="no"?>
<svg
        viewBox="0 0 69.999999 69.999997"
        version="1.1"
        id="svg10"
        sodipodi:docname="logo.svg"
        width="70"
        height="70"
        inkscape:version="1.2 (1:1.2.1+202207142221+cd75a1ee6d)"
        xmlns:inkscape="http://www.inkscape.org/namespaces/inkscape"
        xmlns:sodipodi="http://sodipodi.sourceforge.net/DTD/sodipodi-0.dtd"
        xmlns="http://www.w3.org/2000/svg"
        xmlns:svg="http://www.w3.org/2000/svg">
    <defs
            id="defs14" />
    <sodipodi:namedview
            id="namedview12"
            pagecolor="#505050"
            bordercolor="#eeeeee"
            borderopacity="1"
            inkscape:showpageshadow="0"
            inkscape:pageopacity="0"
            inkscape:pagecheckerboard="0"
            inkscape:deskcolor="#505050"
            showgrid="false"
            inkscape:zoom="5.6390977"
            inkscape:cx="111.80867"
            inkscape:cy="21.546"
            inkscape:window-width="1920"
            inkscape:window-height="1022"
            inkscape:window-x="2560"
            inkscape:window-y="0"
            inkscape:window-maximized="1"
            inkscape:current-layer="g6" />
    <g
            data-name="Layer 2"
            id="g8">
        <g
                data-name="Layer 1"
                id="g6">
            <path
                    d="m 65.085551,27.922663 h -14.91 c -4.03,-7.73 -8.29,-13.73 -14.09,-13.73 -7.55,0 -11.1,6.59 -14.53,13 l -0.3,0.56 H 4.0855505 v 3.81 H 14.085551 c 3.53,0 4.25,1.19 4.25,1.19 -2.77,4.3 -6.1,8.55 -11.6500005,8.55 h -2.6 v 4 h 2.62 c 10.7600005,0 15.4600005,-8.73 19.2300005,-15.74 3.46,-6.46 5.87,-10.37 10.15,-10.37 4.44,0 9.11,9.66 13.22,18.19 0.6,1.24 1.21,2.51 1.83,3.77 -15.76,0.5 -23.27,4.19 -29.38,7.2 -4.47,2.2 -8,4.93 -13.8100005,4.93 h -3.86 v 4 h 3.83 c 7.0000005,0 11.3600005,-2.16 16.0000005,-4.45 6.43,-3.16 13.72,-6.74 30.9,-6.74 h 9.93 v -4 h -5.61 a 3,3 0 0 1 -2.47,-1 c -0.98,-1.9 -1.94,-3.9 -2.88,-5.9 l -1.3,-2.66 c 0,0 0.93,-1 3.51,-1 h 9.09 z"
                    fill="#188fff"
                    id="path2" />
        </g>
    </g>
</svg>
