<svg xmlns="http://www.w3.org/2000/svg" xmlns:xlink="http://www.w3.org/1999/xlink" viewBox="0 0 64 65" fill="#fff" fill-rule="evenodd" stroke="#000" stroke-linecap="round" stroke-linejoin="round"><use xlink:href="#A" x=".5" y=".5"/><symbol id="A" overflow="visible"><g stroke="none" fill="#e25a1c"><path d="M48.104 44.333l-.291-.62-6.367-12.071c-.215-.404-.188-.644.096-.988l10.073-11.83c.117-.139.224-.287.269-.533l-2.941.769-12.215 3.246c-.379.102-.551-.01-.741-.323L29.05 10.427a1.67 1.67 0 0 0-.505-.563l-.56 3.084-1.936 10.897-.2 1.177c-.033.385-.225.514-.564.62l-14.38 4.544a1.59 1.59 0 0 0-.642.358l11.83 4.697-.346.272-7.361 4.758a.78.78 0 0 1-.853.069l-8.797-3.92c-1.316-.577-2.501-1.369-3.422-2.496-2.084-2.549-1.673-5.451 1.104-7.214.909-.58 1.941-1.015 2.97-1.35l14.125-4.487c.385-.123.577-.3.651-.728L22.09 9.25c.35-1.941.537-3.943 1.481-5.711.363-.673.798-1.354 1.315-1.927 1.871-2.077 4.482-2.156 6.46-.179.668.668 1.25 1.455 1.738 2.263l6.446 10.711c.252.423.481.51.947.385l15.789-4.194c1.085-.287 2.183-.392 3.296-.192 2.424.454 3.485 2.308 2.664 4.642-.373 1.058-1.018 1.969-1.731 2.82L49.474 30.819c-.301.352-.308.606-.099 1l6.562 12.44c.523.993.923 2.023.933 3.162.026 2.593-1.87 4.715-4.446 5.092-1.443.212-2.784-.096-4.136-.514l-9.907-3.013c-.306-.091-.423-.212-.477-.541l-1.195-6.964c-.011-.063.008-.133.017-.275l11.369 3.136"/><g fill-rule="nonzero"><path d="M22.085 35.243l2.097.914-2.331 18.563L34.59 40.6l2.148.603 2.645 8.041-3.438-1.212-8.895 9.603s-3.978 4.118-6.134 3.424-3.976-2.616-4.178-6.052-1.112-13.244-1.112-13.244l-4.347-3.134z"/><path d="M15.625 41.765s-1.92 21.23 1.82 21.937-.404-.101-.404-.101 2.123 2.427 10.513-6.571l8.391-8.997-16.782 9.907c.404-.506 2.123-17.692 2.123-17.692z"/></g></g></symbol></svg>