<svg width="193" height="38" viewBox="0 0 193 38" fill="none" xmlns="http://www.w3.org/2000/svg">
<path fill-rule="evenodd" clip-rule="evenodd" d="M16.7678 1.05113C12.3647 1.40476 8.27492 3.34217 5.27838 6.494C2.32616 9.59932 0.743536 13.0329 0.223628 17.4602C-0.597239 24.4522 2.99926 31.892 8.84458 35.2931C13.593 38.0561 19.7183 38.7173 24.9568 37.0327C25.6003 36.8257 26.1266 36.5801 26.1266 36.4869C26.1266 36.3936 25.0772 35.2729 23.7948 33.9967L21.4627 31.6764L19.4233 31.7401C15.8135 31.8531 13.1696 30.8784 10.8333 28.5736C8.17592 25.9518 7.08734 23.2742 7.08266 19.3472C7.07798 15.6266 8.29857 12.7005 10.8821 10.2382C15.4433 5.8911 22.5949 6.01979 27.03 10.5283C29.9906 13.5381 31.2703 18.5053 30.1738 22.733L29.7879 24.2211L31.1306 25.5984C31.8693 26.3559 32.9123 27.4465 33.4487 28.0216C33.9851 28.5967 34.5533 29.0674 34.7114 29.0674C35.0695 29.0674 36.2366 26.5173 36.8513 24.3919C37.2136 23.1393 37.3107 22.0184 37.2986 19.2241C37.2848 16.0145 37.2161 15.4581 36.6152 13.6873C34.9422 8.75845 31.9252 5.15925 27.6696 3.01488C24.1721 1.25243 21.1165 0.701942 16.7678 1.05113ZM178.577 1.0504C175.304 1.37646 172.255 2.9445 170.445 5.23258C168.682 7.46037 168.053 9.79127 168.485 12.491C169.14 16.5883 171.691 18.8065 179.033 21.6603C180.434 22.2054 182.057 22.9301 182.639 23.2707C186.091 25.2915 186.292 29.0726 183.05 30.9768C182.008 31.5891 181.686 31.6498 179.562 31.6341C176.7 31.6132 175.096 31.0578 172.731 29.2697L171.113 28.0462L169.163 29.9718C166.454 32.6475 166.485 32.5394 168.09 33.7972C169.309 34.7529 171.915 36.1933 173.748 36.9254C176.051 37.8445 180.262 38.1843 182.813 37.6565C186.315 36.9323 189.842 34.3193 191.287 31.3791C191.902 30.1266 192.011 29.5886 192.083 27.4357C192.155 25.2576 192.091 24.7578 191.576 23.4826C190.804 21.5745 189.869 20.4166 188.059 19.1296C186.373 17.931 185.631 17.5653 181.095 15.6973C177.601 14.2584 176.352 13.4734 175.602 12.2437C174.848 11.0099 175.022 9.98641 176.206 8.68069C177.866 6.85057 181.866 6.55823 185.09 8.03152C185.827 8.36841 186.498 8.75451 186.582 8.88937C186.973 9.52254 187.666 8.98362 189.106 6.92513C189.952 5.71514 190.645 4.56495 190.645 4.36956C190.645 4.17392 190.036 3.67069 189.292 3.25112C186.213 1.51476 182.196 0.689887 178.577 1.0504ZM43.9173 13.8718C43.9941 24.7977 44.0542 26.395 44.434 27.5909C46.0658 32.7301 49.1781 35.8013 54.3262 37.3521C56.3615 37.9651 61.8103 37.9813 63.9818 37.3806C69.257 35.9216 72.7392 32.3686 74.0593 27.0988C74.4795 25.4215 74.5216 24.176 74.5216 13.4412V1.62918L71.1352 1.56077L67.7488 1.49236L67.7401 12.7575C67.7293 26.6831 67.6424 27.2496 65.1633 29.5328C63.2999 31.2492 62.1542 31.6513 59.1288 31.6513C56.6248 31.6513 56.4921 31.6233 54.9419 30.7706C53.2308 29.8293 51.7299 28.1623 51.1928 26.6066C50.9807 25.9924 50.8726 22.2694 50.8164 13.6257L50.7374 1.50614H47.2837H43.8301L43.9173 13.8718ZM92.446 1.81375C92.3152 1.98305 91.6807 3.39483 91.0362 4.9513C90.3917 6.50778 89.6115 8.33741 89.3026 9.01734C88.9935 9.69702 88.3303 11.2473 87.8286 12.4625C87.3267 13.6774 86.5932 15.3714 86.1987 16.2268C85.8041 17.0822 85.4813 17.9182 85.4813 18.0848C85.4813 18.2511 85.3869 18.4928 85.2717 18.6212C85.1562 18.7499 84.5355 20.1285 83.892 21.6849C83.2485 23.2414 82.4695 25.0706 82.1609 25.7498C81.8523 26.4287 80.9674 28.5265 80.1945 30.4113C78.6912 34.0772 77.9427 35.8227 77.58 36.508C77.1192 37.3789 77.3105 37.4343 80.7718 37.4343C84.5518 37.4343 84.4511 37.4741 85.1168 35.7117C85.347 35.1026 85.7069 34.2182 85.9169 33.746C86.127 33.274 86.5945 32.1666 86.956 31.2851L87.6134 29.6826L94.7896 29.6174L101.966 29.5522L102.333 30.1123C102.535 30.4202 103.272 32.0551 103.969 33.7457C104.667 35.4361 105.35 36.9576 105.487 37.1267C105.791 37.501 112.215 37.5672 112.443 37.1983C112.524 37.0683 112.484 36.7639 112.355 36.5215C112.227 36.2792 111.956 35.6932 111.754 35.2195C111.552 34.7458 110.556 32.4203 109.541 30.0518C108.527 27.6832 107.12 24.3611 106.416 22.6693C105.712 20.9775 104.882 19.0371 104.573 18.3572C104.264 17.6775 103.599 16.1272 103.097 14.912C102.594 13.6971 101.971 12.2383 101.713 11.6706C101.455 11.1029 101.243 10.58 101.243 10.5088C101.243 10.438 100.977 9.79496 100.65 9.08058C100.324 8.36595 99.6463 6.78462 99.1439 5.56651C98.6413 4.3484 98.0194 2.93662 97.7615 2.42895L97.2928 1.50614H94.9883C93.4358 1.50614 92.6063 1.60654 92.446 1.81375ZM117.362 1.82211C117.295 1.99585 117.27 10.0519 117.308 19.7247L117.375 37.3112H125.133C132.998 37.3112 133.764 37.2433 136.708 36.2838C139.399 35.4073 142.672 32.9487 144.427 30.4859C148.873 24.2489 149.208 16.2071 145.293 9.72064C142.744 5.4986 138.832 2.83056 133.773 1.86321C131.231 1.37719 117.546 1.34274 117.362 1.82211ZM154.554 1.81375C154.49 1.98305 154.465 10.0391 154.5 19.7163L154.564 37.3112H157.889H161.214L161.277 19.4087L161.34 1.50614H158.006C155.566 1.50614 154.64 1.58858 154.554 1.81375ZM131.219 7.69095C134.792 8.21043 137.343 9.79889 139.202 12.6616C140.589 14.7988 141.002 16.3996 140.992 19.5932C140.984 21.92 140.891 22.5339 140.333 23.9637C139.088 27.1539 137.102 29.2764 134.246 30.4686C132.722 31.1043 132.442 31.1372 128.458 31.1478L124.271 31.1591L124.207 19.6213C124.161 11.3069 124.221 7.98994 124.422 7.74779C124.774 7.32379 128.479 7.29278 131.219 7.69095ZM95.3383 13.579C95.4285 13.7739 95.6304 14.1809 95.7871 14.4836C95.9434 14.7863 96.0715 15.1386 96.0715 15.2664C96.0715 15.3941 96.3919 16.1983 96.7838 17.0537C98.6127 21.0469 99.3345 22.9525 99.1052 23.1816C98.9649 23.3219 97.2012 23.3923 94.8246 23.3524C90.1582 23.2739 90.2287 23.3189 91.2542 21.0791C91.601 20.3216 91.8847 19.6577 91.8847 19.6038C91.8847 19.5502 92.2548 18.6953 92.7075 17.7041C93.1599 16.7128 93.7909 15.2632 94.1094 14.4823C94.6736 13.0991 95.0039 12.8562 95.3383 13.579ZM17.3015 24.1421C17.3466 24.2755 20.3165 27.3207 23.901 30.9094L30.4186 37.4343H34.7582C37.1449 37.4343 39.1721 37.3597 39.2632 37.2687C39.3543 37.1776 36.4676 34.1323 32.848 30.5014L26.267 23.8997H21.7433C18.8812 23.8997 17.2495 23.9888 17.3015 24.1421Z" fill="white"/>
</svg>
