<svg width="160" height="58" viewBox="0 0 160 58" fill="none" xmlns="http://www.w3.org/2000/svg">
<path fill-rule="evenodd" clip-rule="evenodd" d="M34.0573 18.435C31.5077 18.6381 29.1394 19.7505 27.4042 21.5602C25.6947 23.3432 24.7783 25.3147 24.4772 27.8568C24.0019 31.8714 26.0845 36.1432 29.4693 38.096C32.2189 39.6825 35.7658 40.0621 38.7992 39.0948C39.1719 38.976 39.4767 38.835 39.4767 38.7815C39.4767 38.7279 38.869 38.0844 38.1264 37.3517L36.776 36.0194L35.595 36.056C33.5047 36.1209 31.9737 35.5612 30.6209 34.2378C29.0821 32.7324 28.4517 31.195 28.449 28.9402C28.4463 26.804 29.1531 25.1238 30.6491 23.71C33.2903 21.214 37.4316 21.2879 39.9998 23.8766C41.7141 25.6048 42.4552 28.4568 41.8202 30.8843L41.5968 31.7387L42.3743 32.5295C42.802 32.9645 43.406 33.5907 43.7166 33.9209C44.0272 34.2511 44.3562 34.5214 44.4478 34.5214C44.6551 34.5214 45.331 33.0571 45.6869 31.8368C45.8967 31.1176 45.9529 30.474 45.9459 28.8696C45.9379 27.0267 45.8982 26.7072 45.5502 25.6904C44.5814 22.8604 42.8344 20.7938 40.3701 19.5626C38.3449 18.5506 36.5755 18.2345 34.0573 18.435ZM127.755 18.4346C125.86 18.6218 124.094 19.5222 123.046 20.8359C122.025 22.1151 121.661 23.4534 121.911 25.0036C122.29 27.3562 123.768 28.6298 128.019 30.2684C128.83 30.5814 129.77 30.9975 130.107 31.193C132.106 32.3534 132.223 34.5244 130.345 35.6177C129.742 35.9692 129.555 36.0041 128.325 35.9951C126.668 35.9831 125.739 35.6642 124.37 34.6375L123.433 33.935L122.304 35.0406C120.735 36.577 120.753 36.5149 121.682 37.2371C122.388 37.7859 123.897 38.6129 124.959 39.0332C126.292 39.561 128.73 39.7561 130.208 39.453C132.236 39.0372 134.278 37.5369 135.115 35.8487C135.471 35.1295 135.534 34.8207 135.576 33.5845C135.618 32.3339 135.58 32.0469 135.282 31.3147C134.835 30.2191 134.294 29.5543 133.246 28.8153C132.269 28.1271 131.84 27.9171 129.213 26.8445C127.19 26.0184 126.467 25.5676 126.032 24.8616C125.596 24.1531 125.697 23.5655 126.382 22.8158C127.343 21.765 129.66 21.5971 131.526 22.443C131.953 22.6365 132.342 22.8582 132.39 22.9356C132.617 23.2991 133.018 22.9897 133.852 21.8078C134.342 21.113 134.743 20.4526 134.743 20.3404C134.743 20.2281 134.39 19.9391 133.959 19.6982C132.177 18.7012 129.851 18.2276 127.755 18.4346ZM49.7785 25.7964C49.823 32.0698 49.8578 32.9869 50.0777 33.6736C51.0227 36.6244 52.8249 38.3878 55.806 39.2782C56.9846 39.6302 60.1398 39.6395 61.3972 39.2946C64.4518 38.4569 66.4683 36.4169 67.2327 33.391C67.476 32.428 67.5004 31.7129 67.5004 25.5491V18.7669L65.5394 18.7277L63.5785 18.6884L63.5735 25.1566C63.5672 33.1524 63.5169 33.4776 62.0813 34.7886C61.0023 35.7741 60.3388 36.005 58.587 36.005C57.137 36.005 57.0601 35.9889 56.1625 35.4993C55.1716 34.9588 54.3026 34.0017 53.9915 33.1084C53.8687 32.7558 53.8061 30.6181 53.7736 25.6551L53.7278 18.6963H51.7279H49.7281L49.7785 25.7964ZM77.8797 18.8729C77.804 18.9701 77.4366 19.7807 77.0634 20.6744C76.6901 21.5681 76.2383 22.6187 76.0595 23.0091C75.8805 23.3993 75.4965 24.2895 75.206 24.9872C74.9153 25.6848 74.4906 26.6575 74.2621 27.1486C74.0337 27.6397 73.8467 28.1197 73.8467 28.2154C73.8467 28.3109 73.7921 28.4496 73.7253 28.5234C73.6584 28.5973 73.2991 29.3888 72.9264 30.2825C72.5538 31.1762 72.1027 32.2265 71.924 32.6164C71.7453 33.0063 71.2329 34.2108 70.7853 35.293C69.9148 37.3979 69.4814 38.4001 69.2713 38.7936C69.0045 39.2936 69.1153 39.3254 71.1196 39.3254C73.3085 39.3254 73.2501 39.3483 73.6356 38.3364C73.769 37.9867 73.9773 37.4788 74.099 37.2077C74.2206 36.9367 74.4913 36.3009 74.7007 35.7947L75.0813 34.8746L79.2368 34.8372L83.3924 34.7997L83.6051 35.1213C83.722 35.2981 84.1484 36.2369 84.5525 37.2076C84.9565 38.1781 85.3521 39.0517 85.4315 39.1488C85.6074 39.3637 89.3272 39.4017 89.4594 39.1899C89.5059 39.1153 89.4829 38.9405 89.4085 38.8014C89.334 38.6622 89.1773 38.3258 89.0602 38.0538C88.9433 37.7818 88.3667 36.4465 87.779 35.0866C87.1914 33.7266 86.3769 31.8191 85.9692 30.8477C85.5615 29.8763 85.0811 28.7622 84.902 28.3718C84.7229 27.9815 84.3381 27.0914 84.047 26.3937C83.7558 25.6961 83.3954 24.8585 83.2458 24.5325C83.0964 24.2065 82.974 23.9063 82.974 23.8655C82.974 23.8248 82.8194 23.4556 82.6306 23.0454C82.4418 22.6351 82.0492 21.7271 81.7582 21.0277C81.4671 20.3283 81.107 19.5177 80.9577 19.2262L80.6863 18.6963H79.3519C78.4529 18.6963 77.9725 18.7539 77.8797 18.8729ZM92.3074 18.8777C92.2688 18.9775 92.2546 23.6031 92.2762 29.157L92.3152 39.2548H96.8076C101.362 39.2548 101.805 39.2158 103.51 38.6649C105.068 38.1616 106.963 36.7499 107.98 35.3358C110.555 31.7547 110.749 27.1373 108.481 23.4129C107.005 20.9887 104.74 19.4568 101.811 18.9013C100.339 18.6223 92.4139 18.6025 92.3074 18.8777ZM113.844 18.8729C113.807 18.9701 113.793 23.5957 113.813 29.1522L113.85 39.2548H115.775H117.701L117.737 28.9755L117.774 18.6963H115.843C114.43 18.6963 113.894 18.7436 113.844 18.8729ZM100.331 22.2475C102.401 22.5458 103.878 23.4578 104.954 25.1015C105.757 26.3287 105.997 27.2478 105.991 29.0815C105.986 30.4175 105.933 30.77 105.609 31.5909C104.889 33.4227 103.738 34.6413 102.084 35.3259C101.202 35.6909 101.04 35.7098 98.7329 35.7159L96.3084 35.7224L96.2714 29.0976C96.2447 24.3237 96.2794 22.4192 96.3957 22.2801C96.5998 22.0367 98.7451 22.0189 100.331 22.2475ZM79.5546 25.6283C79.6067 25.7402 79.7237 25.9739 79.8144 26.1477C79.9049 26.3214 79.9791 26.5238 79.9791 26.5971C79.9791 26.6704 80.1646 27.1322 80.3915 27.6233C81.4506 29.9161 81.8686 31.0103 81.7358 31.1419C81.6545 31.2224 80.6333 31.2628 79.2571 31.2399C76.5549 31.1949 76.5957 31.2207 77.1896 29.9347C77.3904 29.4997 77.5547 29.1185 77.5547 29.0876C77.5547 29.0568 77.769 28.5659 78.0311 27.9968C78.2931 27.4277 78.6585 26.5953 78.8429 26.1469C79.1696 25.3527 79.3609 25.2133 79.5546 25.6283ZM34.3664 31.6934C34.3925 31.7699 36.1122 33.5185 38.1879 35.579L41.962 39.3254H44.4749C45.8569 39.3254 47.0308 39.2826 47.0836 39.2303C47.1363 39.1781 45.4647 37.4295 43.3687 35.3447L39.5579 31.5542H36.9384C35.2811 31.5542 34.3363 31.6053 34.3664 31.6934Z" fill="black"/>
</svg>
