<svg width="160" height="58" viewBox="0 0 160 58" fill="none" xmlns="http://www.w3.org/2000/svg">
<path d="M42.1015 28.5001L38.1392 18.5202L32.971 29.5384C31.2248 33.0055 25.5123 34.0131 21.5147 34.5686L22.2391 33.0936L33.805 11.3867H42.822L49.2823 24.5503L52.113 30.795L57.9469 43.3226L53.9258 43.3149L50.7897 43.2958C49.4702 43.3149 48.1821 43.2192 47.6339 41.8361L46.5219 39.162L44.6583 34.6337L42.1015 28.5001Z" fill="#006F4E"/>
<path d="M44.7052 34.6797C38.5621 37.779 32.3171 40.8439 25.1677 42.4529C18.5078 43.9509 11.1783 44.1463 6.06485 41.2423C1.46042 38.6372 -0.0430683 33.5303 0.043069 29.7797C0.101799 27.324 1.32338 23.8875 3.72348 21.0257C8.19087 15.6928 16.6167 11.0764 23.3275 10.8657C25.7198 10.789 27.239 11.5667 28.1473 17.3478C25.662 17.3126 23.1915 17.7283 20.8609 18.5738C17.8609 19.6904 15.021 21.1815 12.4116 23.0102C7.68188 26.2704 4.98422 29.5307 4.70231 32.6224C4.45565 35.3386 7.03585 36.9477 11.3153 37.2963C21.4482 38.143 33.1589 33.4116 42.1485 28.5423L49.3253 24.5924L64 16.7923L63.953 24.1059L52.16 30.8371L44.7052 34.6797Z" fill="#009B9D"/>
<path d="M0 46.9123H59.5404V52H0V46.9123Z" fill="#006F4E"/>
<path d="M61.5372 9.26426L53.0684 13.6892C53.0684 13.6892 50.1554 15.2522 48.2917 15.643L49.6072 18.6274C49.9988 19.8764 51.4357 20.2939 52.5555 19.7346L63.9295 13.6585V8L61.5372 9.26426Z" fill="#ED1C24"/>
<path d="M21.2328 13.3329C23.4842 13.4478 27.2781 11.8962 28.1473 17.5241C27.0941 17.2061 25.0425 17.4781 23.8718 17.7156" fill="#009B9D"/>
</svg>
