<svg width="121" height="23" viewBox="0 0 121 23" fill="none" xmlns="http://www.w3.org/2000/svg">
    <g clip-path="url(#clip0_22689_41272)">
        <path fill-rule="evenodd" clip-rule="evenodd"
            d="M8.13295 2.81567C7.34494 2.81567 6.87062 3.33005 6.55421 3.99766L0.724124 17.6738C0.566884 17.8418 0.580497 18.0142 0.580497 18.3466C0.580497 19.0087 1.20837 19.6742 1.83623 19.6742C2.46698 19.6742 2.93482 19.3439 3.09209 18.6738L4.34777 15.5096H8.27634C8.90433 15.5096 9.54986 15.0128 9.54986 14.3455C9.54986 13.6779 8.90433 12.9999 8.27634 12.9999H5.46006L8.13295 6.32557L10.9492 12.9999L11.9 15.5096L13.1557 18.6738C13.4694 19.1767 13.9452 19.6742 14.5729 19.6742C15.2036 19.6742 15.8286 19.0121 15.8286 18.1828C15.8286 18.0178 15.8243 17.8418 15.6673 17.6738L9.85509 3.99766C9.54139 3.33005 9.06072 2.81567 8.27634 2.81567H8.13295ZM39.5809 2.81567C34.8619 2.81567 31.5616 6.6579 31.5616 11.3266C31.5616 15.9953 34.8619 19.8378 39.5809 19.8378C44.2968 19.8378 47.7605 15.9953 47.7605 11.3266C47.7605 6.6579 44.4511 2.81567 39.5809 2.81567ZM78.2767 2.99753C77.4841 2.99753 76.8579 3.66247 76.8579 4.48894V18.1828C76.8579 19.0121 77.4841 19.6742 78.2767 19.6742C78.8998 19.6742 79.532 19.0121 79.532 18.1828V14.8368L82.0428 12.1633L87.0824 19.0013C87.397 19.3365 87.7056 19.6742 88.1775 19.6742C88.961 19.6742 89.5962 19.0121 89.5962 18.1828C89.5962 17.8504 89.4329 17.4999 89.2725 17.1644L83.9274 10.3266L88.8067 5.48898C89.1152 5.15379 89.2725 4.81891 89.2725 4.32518C89.2725 3.65726 88.8067 2.99753 88.0172 2.99753C87.5452 2.99753 87.2397 3.1531 86.9221 3.48859L79.532 11.3267V4.48894C79.532 3.66247 78.8998 2.99753 78.2767 2.99753ZM19.1319 3.16107C18.5039 3.16107 17.8762 3.82255 17.8762 4.65239V18.1828C17.8762 19.0121 18.5039 19.6742 19.1319 19.6742C19.919 19.6742 20.5491 19.0121 20.5491 18.1828V14.1637H23.7063C27.165 14.1637 29.8234 12.343 29.8234 8.67157C29.8234 5.33258 27.627 3.16107 24.0112 3.16107H19.1319ZM49.017 3.16107C48.3878 3.16107 47.7617 3.82685 47.7617 4.48894C47.7617 5.15962 48.3878 5.83459 49.017 5.83459H52.7862V18.1828C52.7862 19.0121 53.4335 19.6742 54.22 19.6742C55.0005 19.6742 55.6206 19.0121 55.6206 18.1828V5.83459H59.4049C60.0371 5.83459 60.6603 5.15962 60.6603 4.48894C60.6603 3.82685 60.0371 3.16107 59.4049 3.16107H49.017ZM63.8002 3.16107C63.0107 3.16107 62.3815 3.82255 62.3815 4.65239V18.0194C62.3815 18.8465 63.0107 19.5104 63.8002 19.5104H72.9297C73.5619 19.5104 74.1881 19.0121 74.1881 18.1828C74.1881 17.5152 73.5619 17.0009 72.9297 17.0009H65.2159V12.5089H71.8195C72.4487 12.5089 73.0749 11.9946 73.0749 11.3267C73.0749 10.491 72.4487 9.99913 71.8195 9.99913H65.2159V5.65274H72.7693C73.5589 5.65274 74.0247 5.15962 74.0247 4.48894C74.0247 3.66247 73.5589 3.16107 72.7693 3.16107H63.8002ZM39.5821 5.48898C42.725 5.48898 44.9272 8.15514 44.9272 11.3267C44.9272 14.4976 42.725 17.1644 39.5821 17.1644C36.5934 17.1644 34.3972 14.4976 34.3972 11.3267C34.3972 8.15514 36.5934 5.48898 39.5821 5.48898ZM20.5491 5.83459H23.7063C25.7499 5.83459 27.1505 6.83831 27.1505 8.67157C27.1505 10.5039 25.7499 11.6723 23.7063 11.6723H20.5491V5.83459Z"
            fill="#55B75B" />
        <path fill-rule="evenodd" clip-rule="evenodd"
            d="M120.424 6.83276C120.424 5.15897 119.795 3.49377 118.539 2.15517C117.284 0.822582 115.705 0.154785 114.135 0.154785H113.974C112.562 0.154785 110.835 0.822583 109.73 2.15526L105.955 5.99473C105.483 6.66541 105.483 7.49188 105.955 7.99512C106.43 8.6661 107.368 8.6661 107.843 7.99512L111.615 4.16178C112.404 3.32642 113.194 2.99118 114.135 2.99118C114.921 2.99118 115.705 3.32642 116.652 4.16178C117.435 4.99162 117.75 5.99473 117.75 6.83285C117.75 7.82737 117.435 8.6661 116.652 9.50116L107.059 19.6767L97.3037 9.50116C96.5202 8.6661 96.2056 7.65993 96.2056 6.83285C96.2056 5.82668 96.5202 4.99162 97.3037 4.16178C98.0902 3.32642 98.8828 2.99118 99.8205 2.99118C100.61 2.99118 101.551 3.32642 102.34 4.16178L102.498 4.48838C103.127 4.99162 103.91 4.99162 104.54 4.48838C105.014 3.82629 105.014 2.99118 104.54 2.48778L104.228 2.15536C102.97 0.822675 101.394 0.154877 99.8205 0.154877C98.2505 0.154877 96.6775 0.822675 95.4161 2.15536C94.1607 3.49386 93.5315 5.15906 93.5315 6.83294C93.5315 8.49814 94.1607 10.163 95.4161 11.5016L105.638 22.1776C105.955 22.6802 106.43 22.8483 106.902 22.8483H107.059C107.525 22.8483 108 22.6802 108.315 22.1776L118.539 11.5016C119.795 10.163 120.424 8.49796 120.424 6.83276Z"
            fill="#55B75B" />
    </g>
    <defs>
        <clipPath id="clip0_22689_41272">
            <rect width="121" height="23" fill="white" />
        </clipPath>
    </defs>
</svg>