<svg width="129" height="24" viewBox="0 0 129 24" fill="none" xmlns="http://www.w3.org/2000/svg">
    <g clip-path="url(#clip0_22689_41252)">
        <mask id="mask0_22689_41252" style="mask-type:luminance" maskUnits="userSpaceOnUse" x="0"
            y="0" width="129" height="24">
            <path d="M128.344 0.619141H0.3284V23.6591H128.344V0.619141Z" fill="white" />
        </mask>
        <g mask="url(#mask0_22689_41252)">
            <path
                d="M0.3284 0.619141H9.70626C11.4925 0.619141 12.8322 1.05114 13.8246 1.77114C14.9162 2.63514 15.5116 3.88314 15.5116 5.41914C15.5116 7.19514 14.7673 8.29914 13.2788 8.97114V9.06714C15.2636 9.69114 16.4048 11.4191 16.4048 13.4831C16.4048 15.4511 15.6109 16.9871 14.3208 17.9471C13.2292 18.7151 11.8398 19.0511 9.95436 19.0511H0.3284V0.619141ZM8.76352 7.81914C9.75588 7.81914 10.5002 7.29114 10.5002 6.18714C10.5002 5.13114 9.75588 4.60314 8.7139 4.60314H5.48871V7.77114H8.76352V7.81914ZM9.21008 14.9711C10.3513 14.9711 11.1948 14.2991 11.1948 13.0991C11.1948 11.8031 10.3017 11.2271 9.21008 11.2271H5.53832V15.0191H9.21008V14.9711Z"
                fill="black" />
            <path d="M17.2482 0.619141H22.1604V19.0991H17.2482V0.619141Z" fill="black" />
            <path
                d="M23.1527 12.5232C23.1527 8.34723 25.9314 5.56323 30.2481 5.56323C34.565 5.56323 37.294 8.39523 37.294 12.5232C37.294 16.6992 34.565 19.4832 30.2481 19.4832C25.9314 19.4832 23.1527 16.6992 23.1527 12.5232ZM32.3818 12.5232C32.3818 10.2192 31.6375 8.77923 30.149 8.77923C28.6604 8.77923 27.9657 10.2192 27.9657 12.5232C27.9657 14.8272 28.6604 16.3152 30.149 16.3152C31.6375 16.2672 32.3818 14.8272 32.3818 12.5232Z"
                fill="black" />
            <path
                d="M37.8401 12.5232C37.8401 8.34723 40.6188 5.56323 44.9355 5.56323C49.2523 5.56323 51.9317 8.34723 51.9317 12.5232C51.9317 16.6992 49.2027 19.4832 44.8859 19.4832C40.6188 19.4832 37.8401 16.6992 37.8401 12.5232ZM47.0691 12.5232C47.0691 10.2192 46.3248 8.77923 44.8363 8.77923C43.3477 8.77923 42.6531 10.2192 42.6531 12.5232C42.6531 14.8272 43.3477 16.3152 44.8363 16.3152C46.3248 16.2672 47.0691 14.8272 47.0691 12.5232Z"
                fill="black" />
            <path
                d="M52.9236 5.89914H57.4885V7.86714H57.5878C58.4809 6.33114 59.7213 5.51514 61.706 5.51514C63.4427 5.51514 64.7328 6.33114 65.3778 7.77114H65.477C66.5686 6.04314 68.0076 5.51514 69.6947 5.51514C72.8702 5.51514 74.2098 7.77114 74.2098 10.7952V19.0512H69.4465V11.6112C69.4465 10.2672 68.9999 9.40314 67.8091 9.40314C66.6182 9.40314 66.0229 10.4592 66.0229 11.8992V19.0512H61.2595V11.6112C61.2595 10.2672 60.813 9.40314 59.6221 9.40314C58.4313 9.40314 57.8358 10.4592 57.8358 11.8992V19.0512H52.9236V5.89914Z"
                fill="black" />
            <path
                d="M80.2139 17.3231H80.1642V19.0511H75.5994V0.619141H80.3628V7.24314H80.462C81.3551 6.09114 82.5955 5.46714 84.3322 5.46714C87.7558 5.46714 89.7406 8.44314 89.7406 12.4271C89.7406 16.8911 87.607 19.4831 84.0345 19.4831C82.5459 19.4831 81.0078 18.8111 80.2139 17.3231ZM84.8284 12.3791C84.8284 10.2671 84.0345 8.87514 82.5955 8.87514C81.107 8.87514 80.2139 10.2671 80.2139 12.3791C80.2139 14.4911 81.1567 15.8831 82.5955 15.8831C84.0345 15.8831 84.8284 14.5391 84.8284 12.3791Z"
                fill="black" />
            <path
                d="M90.2862 12.4752C90.2862 8.34714 93.1145 5.51514 97.1832 5.51514C99.2177 5.51514 100.756 6.13914 101.946 7.24314C103.535 8.73114 104.229 11.0352 104.18 13.7232H95.0496C95.2481 15.3552 96.042 16.2192 97.4809 16.2192C98.3244 16.2192 99.069 15.8352 99.3664 14.9712H103.981C103.187 17.9952 100.756 19.4832 97.3321 19.4832C93.1145 19.4352 90.2862 16.6512 90.2862 12.4752ZM95.0496 11.0832H99.4157C99.3172 9.49914 98.4237 8.68314 97.2824 8.68314C95.9427 8.63514 95.1985 9.54714 95.0496 11.0832Z"
                fill="black" />
            <path
                d="M109.588 8.15508H109.687C110.68 6.33108 111.97 5.61108 113.607 5.61108C114.004 5.61108 114.252 5.65908 114.401 5.75508V9.78707H114.302C111.474 9.30708 109.836 10.6031 109.836 13.5791V19.0991H105.023V5.89908H109.588V8.15508Z"
                fill="black" />
            <path
                d="M114.898 19.099H119.512C119.71 19.675 120.306 20.2031 121.447 20.2031C122.985 20.2031 123.531 19.291 123.531 17.899V16.939H123.431C122.688 17.8031 121.645 18.4271 120.157 18.4271C117.229 18.4271 114.649 16.3151 114.649 12.187C114.649 8.39504 116.733 5.46704 119.909 5.46704C121.744 5.46704 122.837 6.18703 123.581 7.29103H123.679V5.85103H128.245V17.2751C128.245 19.387 127.5 21.019 126.359 21.979C125.168 22.987 123.482 23.419 121.547 23.419C117.874 23.467 115.344 22.0271 114.898 19.099ZM123.73 11.9951C123.73 10.363 122.935 9.01904 121.547 9.01904C120.206 9.01904 119.363 10.1711 119.363 11.9951C119.363 13.7711 120.206 15.0191 121.547 15.0191C122.886 15.0191 123.73 13.7231 123.73 11.9951Z"
                fill="black" />
        </g>
    </g>
    <defs>
        <clipPath id="clip0_22689_41252">
            <rect width="129" height="24" fill="white" />
        </clipPath>
    </defs>
</svg>