<svg width="150" height="22" xmlns="http://www.w3.org/2000/svg" fill="none">
    <path id="svg_1" fill="#ED1474"
        d="m25.75083,4.2907c-1.0556,-0.2067 -0.4851,-0.8155 0.0604,-0.8567c0.6141,-0.0481 1.2699,0.2351 1.5299,0.5396c0.1223,0.1432 -0.3428,0.5133 -1.5903,0.3171zm4.3162,-0.2417c-1.1622,-0.6489 -2.7855,-1.2647 -4.2008,-1.2548c-1.0784,0.0084 -1.5243,0.2515 -2.0937,0.4502c-0.3415,0.1247 -0.5264,0.1002 -1.172,0.0346c-0.4748,-0.0419 -0.9568,-0.0947 -1.3307,-0.1396c0.1138,-0.3653 0.2327,-0.77356 0.3639,-1.24934c0.0293,-0.10751 0.0267,-0.22967 -0.1654,-0.27232c-0.5428,-0.12132 -1.9638,-0.27699 -2.7495,0.14764c-0.0679,0.03537 -0.1738,0.06459 -0.2824,0.38721c-0.0918,0.27083 -0.1818,0.53591 -0.2694,0.79761c-1.8625,0.0517 -3.5375,0.4411 -4.7603,1.2749c-0.4183,0.2854 -1.1148,0.8567 -1.1615,1.7097c-0.0474,0.8852 0.8324,1.5695 1.7103,1.6325c0.5169,0.039 0.6797,-0.116 0.6262,-0.2034c-0.1434,-0.2341 0.0293,-0.6424 0.4304,-0.9479c0.9972,-0.6482 3.504,-1.0189 5.7533,-0.717c2.3877,0.3226 3.9219,0.9212 5.5896,0.9212c1.388,0.0029 2.9522,-0.576 3.6771,-0.9807c0.3917,-0.2158 0.4649,-0.5785 0.4737,-0.8184c0.0083,-0.2432 0.0141,-0.5188 -0.4388,-0.7721zm-9.7582,9.2855c-0.0767,0.2723 -0.8779,0.2432 -1.4624,0.2494c-0.235,0.0011 -0.5052,-0.0062 -0.8119,-0.0245c0.1628,-0.5366 0.3025,-0.9916 0.3898,-1.2741c0.0326,-0.1093 0.0277,-0.2304 -0.1643,-0.2723c-0.5428,-0.1243 -1.9646,-0.28 -2.7476,0.1436c-0.0706,0.0387 -0.1944,0.1123 -0.2904,0.4368c-0.0482,0.1604 -0.1237,0.4083 -0.2136,0.712c-2.5689,-0.1197 -4.7786,0.4101 -6.6517,3.0593c-1.4411,2.0396 -2.0173,4.2379 -4.7823,3.4395c-0.2012,-0.0572 -0.4126,-0.1731 -0.5683,-0.2333c-0.1065,-0.04 -0.2193,-0.0262 -0.2698,0.0357c-0.0577,0.062 -0.0546,0.1564 0.0638,0.2863c0.1203,0.1308 0.4012,0.3094 0.923,0.4556c2.5016,0.5687 3.8297,-0.3646 5.4705,-2.3495c0.4631,-0.5632 1.4238,-2.1654 5.0348,-2.1246c-0.2923,0.9588 -0.5815,1.9076 -0.7743,2.5365c-0.033,0.1083 -0.0247,0.2286 0.1639,0.2724c0.544,0.1228 1.9638,0.2763 2.7491,-0.1459c0.0687,-0.0371 0.1936,-0.1123 0.2897,-0.4364c0.162,-0.5388 0.3689,-1.227 0.5871,-1.9459c0.3655,0.0382 0.7105,0.0631 1.1227,0.0674c0.9975,0.0182 1.8067,-0.225 2.2409,-0.6496c0.4661,-0.4576 0.8874,-1.3452 0.2756,-1.9879c-0.317,-0.3336 -0.5489,-0.3526 -0.5743,-0.2505zm2.3296,-5.1949c-0.0273,0.1222 -0.2003,0.1995 -0.3946,0.2257c-0.2449,0.0332 -0.897,0.136 -2.6364,0.0466c0.1135,-0.3561 0.2463,-0.7691 0.4133,-1.2876c0.0307,-0.1057 0.0235,-0.2289 -0.1686,-0.2727c-0.5412,-0.122 -1.9618,-0.277 -2.7479,0.1459c-0.0691,0.0375 -0.1742,0.0675 -0.2831,0.3894c-0.0964,0.2824 -0.186,0.5523 -0.2714,0.8074c-3.0558,-0.1323 -5.7244,0.4721 -7.1082,1.9413c-0.3234,0.3452 -0.6214,0.9386 -0.5151,1.488c0.1545,0.8002 0.9105,1.2877 1.738,1.3471c0.5143,0.0346 0.7109,-0.1367 0.6532,-0.2242c-0.1795,-0.2709 0.0167,-0.8903 0.8696,-1.2632c2.4313,-1.067 5.6147,-0.5395 7.8642,-0.39c1.3915,0.0947 2.2595,-0.2079 2.7917,-0.5986c0.619,-0.455 0.9978,-1.4765 0.3988,-2.0962c-0.351,-0.3646 -0.5806,-0.3573 -0.6035,-0.2589z" />
    <path id="svg_2" fill="#ED1474"
        d="m38.09723,16.9618l0,-4.2565l5.682,0c2.071,0.0084 2.645,1.0437 2.653,2.0656c-0.008,1.1144 -0.558,2.1826 -2.828,2.1909l-5.507,0zm5.547,-6.0972l-5.547,0l0,-3.6611l5.43,0c1.673,0.012 2.294,0.6737 2.304,1.8566c-0.006,1.0342 -0.697,1.798 -2.187,1.8045zm2.454,0.7255c1.076,-0.413 1.928,-1.2468 1.922,-2.8253c0,-1.0572 -0.334,-1.9138 -1.051,-2.5019c-0.716,-0.5859 -1.801,-0.9005 -3.285,-0.9005l-7.779,0l0,13.4448l8.262,0c3.045,-0.0036 4.45,-1.974 4.456,-3.9062c0.004,-1.8836 -0.992,-2.9255 -2.525,-3.3109z" />
    <path id="svg_3" fill="#ED1474"
        d="m53.19323,11.3113l0,-4.1078l5.741,0c1.622,0.0084 2.37,0.8231 2.38,2.0615c-0.01,0.918 -0.453,2.0397 -2.439,2.0463l-5.682,0zm10,3.8128c-0.072,-1.5093 -0.741,-2.6146 -1.9,-2.8661c1.436,-0.5057 2.215,-1.7072 2.213,-3.289c0,-0.8604 -0.258,-1.7619 -0.871,-2.448c-0.611,-0.689 -1.581,-1.1586 -2.981,-1.1586l-8.653,0l0,13.4448l2.192,0l0,-5.6506l5.312,0c1.682,0.0102 2.465,0.6726 2.613,3.052c0.101,1.6015 0.09,2.1695 0.443,2.5742l0.018,0.0244l2.354,0l-0.095,-0.1065c-0.448,-0.4968 -0.53,-1.0966 -0.645,-3.5766z" />
    <path id="svg_4" fill="#ED1474"
        d="m75.76023,13.0837l-5.061,0l2.502,-5.6677l2.559,5.6677zm-3.689,-7.7213l-6.332,13.4448l2.362,0l1.764,-3.8807l6.713,0l1.765,3.8807l2.497,0l-6.334,-13.4448l-2.435,0z" />
    <path id="svg_5" fill="#ED1474" d="m83.29823,18.8072l2.189,0l0,-13.4448l-2.189,0l0,13.4448z" />
    <path id="svg_6" fill="#ED1474"
        d="m100.00223,15.886l-8.854,-10.5236l-2.487,0l0,13.4448l2.192,0l0,-10.5217l8.854,10.5217l2.487,0l0,-13.4448l-2.192,0l0,10.5236z" />
    <path id="svg_7" fill="#ED1474"
        d="m107.43223,5.3624l-2.192,0l0,13.4437l10.622,0l0,-1.8453l-8.43,0l0,-11.5984z" />
    <path id="svg_8" fill="#ED1474"
        d="m127.52623,13.0848l-5.061,0l2.503,-5.6688l2.558,5.6688zm-3.69,-7.7224l-6.333,13.4448l2.359,0l1.77,-3.8807l6.71,0l1.768,3.8807l2.497,0l-6.337,-13.4448l-2.434,0z" />
    <path id="svg_9" fill="#ED1474"
        d="m136.77723,16.9162l0,-4.2554l5.682,0c2.069,0.0066 2.645,1.0426 2.654,2.0634c-0.012,1.1137 -0.561,2.1807 -2.831,2.192l-5.505,0zm5.546,-6.1l-5.546,0l0,-3.6583l5.43,0c1.669,0.0091 2.293,0.6719 2.303,1.8566c-0.006,1.0325 -0.698,1.7944 -2.187,1.8017zm2.452,0.7254c1.078,-0.409 1.929,-1.2438 1.925,-2.8252c0.001,-1.0554 -0.336,-1.914 -1.054,-2.4998c-0.715,-0.5869 -1.799,-0.9015 -3.285,-0.9015l-7.777,0l0,13.4447l8.261,0c3.045,-0.0044 4.451,-1.9759 4.455,-3.9061c0.004,-1.8866 -0.992,-2.9245 -2.525,-3.3121z" />
</svg>