<svg width="142" height="24" viewBox="0 0 142 24" fill="none" xmlns="http://www.w3.org/2000/svg">
    <path
        d="M16.7571 22.1076C14.8821 20.9334 13.5014 16.8808 13.5014 12.0662C13.5014 11.8895 13.5021 11.7151 13.5066 11.5414L13.5088 11.5436C8.29469 10.7243 4.52684 8.47878 4.43067 5.82399L4.41501 5.85455C3.13869 7.44027 2.41032 9.2735 2.41032 11.2268C2.41032 16.9747 8.71964 21.6841 16.7228 22.1009L16.7571 22.1076ZM5.59688e-05 11.6465C5.59688e-05 5.2149 8.00394 0 17.8776 0C27.7512 0 35.7551 5.2149 35.7551 11.6465C35.7551 18.0781 27.7512 23.293 17.8776 23.293C8.00394 23.293 5.59688e-05 18.0781 5.59688e-05 11.6465ZM17.8776 1.6804C19.7839 1.6804 21.4046 4.57152 22.0055 8.60626L22.0078 8.6003C25.716 8.02327 28.3126 6.69103 28.3126 5.14184C28.3126 3.06184 23.6404 1.37846 17.8776 1.37846C12.1147 1.37846 7.44256 3.06259 7.44256 5.14184C7.44256 6.69103 10.0385 8.02252 13.7474 8.6003L13.7496 8.60626C14.3505 4.57226 15.972 1.6804 17.8776 1.6804ZM19.0316 22.1009C27.0348 21.6841 33.3448 16.9747 33.3448 11.2268C33.3448 9.2735 32.6157 7.44027 31.3401 5.85455L31.3245 5.82399C31.2283 8.47878 27.4612 10.7243 22.2463 11.5436L22.2486 11.5414C22.2523 11.7151 22.2538 11.8895 22.2538 12.0662C22.2538 16.8808 20.8716 20.9334 18.9981 22.1076L19.0316 22.1009ZM17.8776 8.90596C18.7319 8.90596 19.5617 8.86943 20.3557 8.79935L20.3549 8.8001C19.9598 6.21389 18.9996 4.38887 17.8776 4.38887C16.7556 4.38887 15.7961 6.21389 15.4002 8.8001L15.3995 8.79935C16.1935 8.86943 17.0232 8.90596 17.8776 8.90596ZM17.8776 18.4829C19.3127 18.4829 20.4832 15.4963 20.5458 11.7509L20.5532 11.7531C18.7732 11.9171 16.9819 11.9171 15.2019 11.7531L15.2101 11.7509C15.272 15.4971 16.4425 18.4829 17.8776 18.4829ZM91.2231 11.6465C91.2231 6.73054 95.2087 2.74574 100.124 2.74574C105.041 2.74574 109.026 6.73128 109.026 11.6465C109.026 16.5632 105.041 20.5472 100.124 20.5472C95.2087 20.5472 91.2231 16.5624 91.2231 11.6465ZM100.124 17.2833C102.87 17.2833 105.095 14.759 105.095 11.6457C105.095 8.5332 102.87 6.00813 100.124 6.00813C97.3796 6.00813 95.155 8.53246 95.155 11.6457C95.155 14.759 97.3804 17.2833 100.124 17.2833ZM119.126 6.45395V20.1432H115.376V6.45395H115.389H110.144V3.35856H124.358V6.45321L119.126 6.45395ZM128.895 16.3671L128.891 16.3708L127.452 20.1439H123.072L129.997 3.3593H134.664L141.59 20.1439H137.209L135.77 16.3708L135.766 16.3671H132.332H128.895ZM132.332 13.5341H134.691L134.69 13.5349L132.347 7.39181H132.315L129.971 13.5349L129.97 13.5341H132.332ZM49.9923 6.45395V20.1432H46.2416V6.45395H46.2542H41.0088V3.35856H55.2236V6.45321L49.9923 6.45395ZM56.1838 11.6465C56.1838 6.73054 60.1693 2.74574 65.086 2.74574C70.002 2.74574 73.9875 6.73128 73.9875 11.6465C73.9875 16.5632 70.002 20.5472 65.086 20.5472C60.1693 20.5472 56.1838 16.5624 56.1838 11.6465ZM65.086 17.2833C67.8303 17.2833 70.0564 14.759 70.0564 11.6457C70.0564 8.5332 67.831 6.00813 65.086 6.00813C62.341 6.00813 60.1157 8.53246 60.1157 11.6457C60.1157 14.759 62.341 17.2833 65.086 17.2833ZM82.605 20.1432H84.5068V13.7697L91.0494 3.35856H86.6703L82.605 10.4134L78.5404 3.35856H74.1597L80.7031 13.7697V20.1424L82.605 20.1432Z"
        fill="#FF0000" />
</svg>