<svg width="135" height="75" viewBox="0 0 135 75" fill="none" xmlns="http://www.w3.org/2000/svg">
<mask id="mask0_17290_86030" style="mask-type:luminance" maskUnits="userSpaceOnUse" x="0" y="0" width="135" height="75">
<path d="M134.988 0.137268H0.834961V74.9307H134.988V0.137268Z" fill="white"/>
</mask>
<g mask="url(#mask0_17290_86030)">
<path d="M59.9993 13.5203H59.2805V12.9294H61.575V13.5203H60.8561V19.1039H61.5947V19.7243H59.2608V19.1039H59.9993V13.5203ZM65.1201 19.7243V16.6814C65.1201 16.2809 65.0529 15.9937 64.9183 15.8197C64.7837 15.6457 64.5785 15.5588 64.3028 15.5588C64.0664 15.5588 63.8695 15.6178 63.7119 15.736C63.5544 15.8542 63.4296 15.969 63.3377 16.0807V19.7243H62.54V14.9974H63.2688V15.5292H63.2885C63.3082 15.4898 63.3509 15.4324 63.4165 15.3568C63.4821 15.2814 63.5675 15.2091 63.6725 15.1402C63.7775 15.0713 63.9023 15.0106 64.0467 14.958C64.1911 14.9055 64.3553 14.8793 64.5391 14.8793C64.7492 14.8793 64.9396 14.9105 65.1103 14.9728C65.281 15.0352 65.4254 15.1353 65.5436 15.2732C65.6618 15.411 65.7537 15.59 65.8193 15.8098C65.885 16.0298 65.9178 16.3006 65.9178 16.6223V19.7243H65.1201ZM69.0986 15.6474H68.1335V19.7243H67.3359V15.6474H66.7647V15.1156L67.3359 15.0073V14.0619C67.3359 13.8059 67.372 13.5859 67.4442 13.4021C67.5164 13.2183 67.6116 13.0673 67.7298 12.9491C67.848 12.8309 67.9858 12.7456 68.1434 12.6931C68.301 12.6405 68.4684 12.6143 68.6456 12.6143C68.8163 12.6143 68.9607 12.6373 69.0789 12.6832C69.1971 12.7292 69.2759 12.7653 69.3153 12.7915L69.1479 13.4513C69.1085 13.4251 69.0527 13.3971 68.9804 13.3676C68.9082 13.3381 68.8196 13.3233 68.7145 13.3233C68.5241 13.3233 68.3797 13.3824 68.2813 13.5006C68.1828 13.6188 68.1335 13.8354 68.1335 14.1505V14.9974H69.1971L69.0986 15.6474ZM69.5811 17.3609C69.5811 16.9276 69.632 16.5534 69.7338 16.2382C69.8355 15.9231 69.9734 15.6654 70.1474 15.4652C70.3214 15.265 70.5216 15.1173 70.7481 15.022C70.9746 14.9268 71.2159 14.8793 71.4719 14.8793C71.7345 14.8793 71.9774 14.9268 72.2006 15.022C72.4238 15.1173 72.6176 15.265 72.7817 15.4652C72.9458 15.6654 73.0754 15.9231 73.1707 16.2382C73.2658 16.5534 73.3134 16.9276 73.3134 17.3609C73.3134 17.8007 73.2642 18.1782 73.1657 18.4934C73.0672 18.8085 72.931 19.0662 72.7571 19.2664C72.583 19.4666 72.3812 19.6127 72.1514 19.7046C71.9216 19.7966 71.6787 19.8425 71.4227 19.8425C71.1601 19.8425 70.9171 19.7966 70.6939 19.7046C70.4708 19.6127 70.277 19.4666 70.1129 19.2664C69.9488 19.0662 69.8191 18.8102 69.724 18.4983C69.6287 18.1864 69.5811 17.8073 69.5811 17.3609ZM72.4862 17.3609C72.4862 16.7306 72.3943 16.2727 72.2105 15.9872C72.0267 15.7015 71.7706 15.5588 71.4424 15.5588C71.1141 15.5588 70.8597 15.7015 70.6792 15.9872C70.4986 16.2727 70.4084 16.7306 70.4084 17.3609C70.4084 17.9911 70.5003 18.4441 70.6841 18.7199C70.8679 18.9956 71.1239 19.1335 71.4522 19.1335C71.7805 19.1335 72.0349 18.9956 72.2155 18.7199C72.3959 18.4441 72.4862 17.9911 72.4862 17.3609ZM76.3958 15.6966C76.3761 15.6835 76.3334 15.6671 76.2677 15.6474C76.2021 15.6277 76.1135 15.6178 76.0019 15.6178C75.7524 15.6178 75.5571 15.6851 75.416 15.8197C75.2748 15.9543 75.1746 16.1004 75.1156 16.2579V19.7243H74.3179V14.9974H75.0466V15.6375H75.0663C75.0992 15.5456 75.1418 15.4553 75.1943 15.3667C75.2469 15.2781 75.3125 15.1993 75.3913 15.1303C75.4701 15.0614 75.5636 15.0073 75.6719 14.9679C75.7803 14.9285 75.9099 14.9088 76.0609 14.9088C76.1726 14.9088 76.2629 14.9187 76.3318 14.9383C76.4007 14.958 76.4548 14.9744 76.4942 14.9876L76.3958 15.6966ZM79.6652 19.7243V16.6814C79.6652 16.294 79.6094 16.0151 79.4978 15.8443C79.3861 15.6736 79.2057 15.5883 78.9562 15.5883C78.8248 15.5883 78.7083 15.6047 78.6066 15.6375C78.5048 15.6704 78.4145 15.7113 78.3358 15.7606C78.257 15.8098 78.188 15.864 78.129 15.9231C78.0699 15.9822 78.0206 16.0348 77.9812 16.0807V19.7243H77.1836V14.9974H77.9123V15.5292H77.932C77.9649 15.4767 78.0141 15.4127 78.0797 15.3372C78.1453 15.2617 78.2274 15.1894 78.3259 15.1205C78.4244 15.0516 78.5393 14.9941 78.6706 14.9482C78.8019 14.9023 78.9496 14.8793 79.1137 14.8793C79.652 14.8793 80.0329 15.0894 80.2561 15.5095C80.302 15.4439 80.3644 15.3733 80.4432 15.2977C80.5219 15.2223 80.6139 15.1533 80.7189 15.0909C80.8239 15.0286 80.9421 14.9777 81.0734 14.9383C81.2047 14.899 81.3492 14.8793 81.5067 14.8793C82.4653 14.8793 82.9445 15.4373 82.9445 16.5534V19.7243H82.1468V16.6814C82.1468 16.294 82.0779 16.0151 81.94 15.8443C81.8021 15.6736 81.5987 15.5883 81.3295 15.5883C81.1063 15.5883 80.9208 15.6425 80.7731 15.7507C80.6254 15.8592 80.5088 15.9625 80.4235 16.061C80.4366 16.1332 80.4465 16.2104 80.453 16.2924C80.4596 16.3745 80.4629 16.4614 80.4629 16.5534V19.7243H79.6652ZM83.8603 18.5229C83.8603 18.2472 83.9129 18.0174 84.0179 17.8336C84.1229 17.6498 84.2641 17.5004 84.4413 17.3855C84.6186 17.2706 84.827 17.1885 85.0667 17.1393C85.3063 17.09 85.5607 17.0655 85.8299 17.0655H86.0761V16.6125C86.0761 16.212 86.0055 15.9363 85.8644 15.7852C85.7232 15.6342 85.5246 15.5588 85.2685 15.5588C85.0322 15.5588 84.8352 15.6096 84.6777 15.7114C84.5201 15.8131 84.3954 15.9034 84.3035 15.9822L83.9686 15.4504C84.0212 15.3979 84.0885 15.3388 84.1706 15.2732C84.2526 15.2075 84.3527 15.1452 84.4709 15.0861C84.589 15.027 84.7236 14.9777 84.8746 14.9383C85.0257 14.899 85.1963 14.8793 85.3867 14.8793C85.8726 14.8793 86.2401 15.0138 86.4897 15.283C86.7392 15.5522 86.8639 15.9855 86.8639 16.5829V18.7396C86.8639 18.9431 86.8704 19.1417 86.8836 19.3353C86.8967 19.529 86.9098 19.6587 86.923 19.7243H86.1647L86.1351 19.2024H86.1154C86.0892 19.2615 86.0498 19.3288 85.9973 19.4042C85.9447 19.4798 85.8791 19.5487 85.8003 19.6111C85.7215 19.6734 85.6264 19.7276 85.5147 19.7736C85.4031 19.8195 85.2718 19.8425 85.1208 19.8425C84.9436 19.8425 84.7778 19.8097 84.6236 19.744C84.4692 19.6784 84.3347 19.5865 84.2198 19.4683C84.1049 19.3501 84.0162 19.2106 83.9539 19.0497C83.8915 18.8889 83.8603 18.7133 83.8603 18.5229ZM85.2882 19.163C85.3999 19.163 85.4983 19.1466 85.5837 19.1138C85.669 19.0809 85.7429 19.0415 85.8053 18.9956C85.8676 18.9497 85.9201 18.8988 85.9628 18.8429C86.0055 18.7871 86.0432 18.7396 86.0761 18.7002V17.6563L85.82 17.6662C85.4393 17.6793 85.1504 17.7449 84.9534 17.8631C84.7565 17.9813 84.658 18.1717 84.658 18.4343C84.658 18.6772 84.7138 18.8594 84.8254 18.9808C84.937 19.1023 85.0913 19.163 85.2882 19.163ZM90.0841 15.6474H89.0501V18.2669C89.0501 18.6017 89.0928 18.8298 89.1781 18.9512C89.2634 19.0727 89.4079 19.1335 89.6114 19.1335C89.7295 19.1335 89.8313 19.1171 89.9167 19.0842C90.002 19.0514 90.0644 19.0218 90.1038 18.9956L90.2121 19.6357C90.1792 19.6619 90.1004 19.703 89.9757 19.7588C89.851 19.8146 89.6836 19.8425 89.4735 19.8425C89.0664 19.8425 88.7612 19.7293 88.5577 19.5027C88.3542 19.2763 88.2524 18.9004 88.2524 18.3752V15.6474H87.6812V15.1156L88.2524 14.9974L88.341 13.6778H89.0501V14.9974H90.1825L90.0841 15.6474ZM91.7877 19.7243H90.9901V14.9974H91.7877V19.7243ZM91.3938 13.8551C91.2297 13.8551 91.0984 13.8026 90.9999 13.6975C90.9014 13.5925 90.8522 13.4547 90.8522 13.2839C90.8522 13.1198 90.9014 12.9852 90.9999 12.8802C91.0984 12.7752 91.2297 12.7226 91.3938 12.7226C91.5514 12.7226 91.6794 12.7752 91.7779 12.8802C91.8763 12.9852 91.9256 13.1198 91.9256 13.2839C91.9256 13.4547 91.8763 13.5925 91.7779 13.6975C91.6794 13.8026 91.5514 13.8551 91.3938 13.8551ZM92.7922 17.3609C92.7922 16.9276 92.8431 16.5534 92.9449 16.2382C93.0466 15.9231 93.1844 15.6654 93.3585 15.4652C93.5324 15.265 93.7327 15.1173 93.9592 15.022C94.1857 14.9268 94.4269 14.8793 94.6829 14.8793C94.9455 14.8793 95.1885 14.9268 95.4117 15.022C95.6349 15.1173 95.8286 15.265 95.9927 15.4652C96.1568 15.6654 96.2865 15.9231 96.3817 16.2382C96.4769 16.5534 96.5245 16.9276 96.5245 17.3609C96.5245 17.8007 96.4752 18.1782 96.3767 18.4934C96.2783 18.8085 96.1421 19.0662 95.9681 19.2664C95.7941 19.4666 95.5922 19.6127 95.3624 19.7046C95.1326 19.7966 94.8897 19.8425 94.6337 19.8425C94.3711 19.8425 94.1282 19.7966 93.905 19.7046C93.6818 19.6127 93.4881 19.4666 93.324 19.2664C93.1599 19.0662 93.0302 18.8102 92.935 18.4983C92.8398 18.1864 92.7922 17.8073 92.7922 17.3609ZM95.6973 17.3609C95.6973 16.7306 95.6053 16.2727 95.4215 15.9872C95.2377 15.7015 94.9817 15.5588 94.6534 15.5588C94.3251 15.5588 94.0707 15.7015 93.8902 15.9872C93.7097 16.2727 93.6194 16.7306 93.6194 17.3609C93.6194 17.9911 93.7113 18.4441 93.8951 18.7199C94.0789 18.9956 94.335 19.1335 94.6632 19.1335C94.9915 19.1335 95.2459 18.9956 95.4265 18.7199C95.607 18.4441 95.6973 17.9911 95.6973 17.3609ZM100.109 19.7243V16.6814C100.109 16.2809 100.042 15.9937 99.9072 15.8197C99.7726 15.6457 99.5674 15.5588 99.2917 15.5588C99.0553 15.5588 98.8584 15.6178 98.7008 15.736C98.5432 15.8542 98.4185 15.969 98.3266 16.0807V19.7243H97.5289V14.9974H98.2577V15.5292H98.2774C98.297 15.4898 98.3397 15.4324 98.4054 15.3568C98.471 15.2814 98.5564 15.2091 98.6614 15.1402C98.7664 15.0713 98.8912 15.0106 99.0356 14.958C99.18 14.9055 99.3442 14.8793 99.528 14.8793C99.7381 14.8793 99.9285 14.9105 100.099 14.9728C100.27 15.0352 100.414 15.1353 100.532 15.2732C100.651 15.411 100.743 15.59 100.808 15.8098C100.874 16.0298 100.907 16.3006 100.907 16.6223V19.7243H100.109ZM104.137 15.9527C104.084 15.8936 103.989 15.8131 103.851 15.7114C103.713 15.6096 103.533 15.5588 103.31 15.5588C103.099 15.5588 102.939 15.608 102.827 15.7065C102.715 15.8049 102.66 15.9231 102.66 16.061C102.66 16.2382 102.71 16.3843 102.812 16.4992C102.914 16.6141 103.07 16.7372 103.28 16.8685L103.575 17.0458C103.897 17.2362 104.15 17.4413 104.334 17.6612C104.517 17.8812 104.609 18.1651 104.609 18.5131C104.609 18.8873 104.48 19.2024 104.22 19.4584C103.961 19.7145 103.589 19.8425 103.103 19.8425C102.912 19.8425 102.745 19.8228 102.6 19.7834C102.456 19.744 102.33 19.6981 102.221 19.6455C102.113 19.593 102.023 19.5356 101.951 19.4733C101.878 19.4109 101.819 19.3534 101.773 19.3009L102.157 18.6706C102.197 18.71 102.244 18.7559 102.3 18.8085C102.356 18.861 102.423 18.9119 102.502 18.9611C102.581 19.0103 102.669 19.0514 102.768 19.0842C102.866 19.1171 102.981 19.1335 103.113 19.1335C103.349 19.1335 103.529 19.0809 103.654 18.9759C103.779 18.8709 103.841 18.7429 103.841 18.5918C103.841 18.4802 103.827 18.3834 103.797 18.3013C103.767 18.2193 103.723 18.1454 103.664 18.0798C103.605 18.0141 103.533 17.9517 103.447 17.8927C103.362 17.8336 103.264 17.7679 103.152 17.6957L102.857 17.5086C102.561 17.3182 102.33 17.118 102.162 16.9079C101.995 16.6978 101.911 16.4287 101.911 16.1004C101.911 15.9231 101.946 15.7606 102.015 15.6129C102.084 15.4652 102.18 15.3372 102.305 15.2288C102.43 15.1205 102.576 15.0352 102.743 14.9728C102.911 14.9105 103.09 14.8793 103.28 14.8793C103.464 14.8793 103.621 14.8973 103.753 14.9334C103.884 14.9695 103.997 15.0155 104.092 15.0712C104.188 15.1271 104.266 15.1829 104.329 15.2387C104.391 15.2945 104.442 15.3421 104.481 15.3815L104.137 15.9527ZM63.4856 23.5394H61.6736V29.6548H60.8169V23.5394H59.0049V22.8599H63.5447L63.4856 23.5394ZM66.5384 26.5232C66.5384 26.7267 66.5318 26.9023 66.5187 27.05C66.5055 27.1977 66.4924 27.3274 66.4793 27.4391H64.0666C64.0928 27.9971 64.2127 28.4074 64.4261 28.67C64.6394 28.9326 64.9464 29.0639 65.3468 29.0639C65.4847 29.0639 65.6094 29.0475 65.721 29.0147C65.8327 28.9818 65.9295 28.9424 66.0116 28.8965C66.0936 28.8506 66.1625 28.8046 66.2184 28.7586C66.2741 28.7127 66.3152 28.6766 66.3414 28.6503L66.6369 29.2116C66.604 29.2445 66.5548 29.2921 66.4891 29.3544C66.4235 29.4168 66.3349 29.4792 66.2232 29.5416C66.1116 29.6039 65.9737 29.6581 65.8096 29.704C65.6455 29.75 65.4518 29.773 65.2286 29.773C64.9332 29.773 64.6657 29.7237 64.4261 29.6252C64.1864 29.5268 63.9829 29.3741 63.8155 29.1673C63.6481 28.9605 63.5184 28.6979 63.4265 28.3795C63.3346 28.0611 63.2886 27.6787 63.2886 27.2323C63.2886 26.8121 63.3362 26.4493 63.4315 26.144C63.5266 25.8388 63.6563 25.5877 63.8204 25.3907C63.9845 25.1938 64.1749 25.0477 64.3916 24.9525C64.6082 24.8573 64.8413 24.8097 65.0908 24.8097C65.5438 24.8097 65.8983 24.9525 66.1543 25.2381C66.4104 25.5236 66.5384 25.952 66.5384 26.5232ZM65.0415 25.4597C64.7592 25.4597 64.5328 25.5778 64.362 25.8142C64.1913 26.0505 64.0928 26.3919 64.0666 26.8383H65.79C65.7965 26.8055 65.8015 26.7579 65.8048 26.6955C65.808 26.6332 65.8096 26.5659 65.8096 26.4937C65.8096 26.1654 65.744 25.911 65.6127 25.7304C65.4814 25.5499 65.291 25.4597 65.0415 25.4597ZM70.2313 25.8437C70.2116 25.824 70.1804 25.7945 70.1378 25.7551C70.0951 25.7157 70.0408 25.6763 69.9752 25.6369C69.9096 25.5975 69.8308 25.563 69.7389 25.5335C69.6469 25.5039 69.5419 25.4892 69.4238 25.4892C69.253 25.4892 69.0939 25.5204 68.9462 25.5827C68.7985 25.6451 68.6704 25.7452 68.5621 25.8831C68.4538 26.021 68.3684 26.1999 68.3061 26.4198C68.2437 26.6397 68.2125 26.9073 68.2125 27.2224C68.2125 27.5704 68.2404 27.8625 68.2962 28.0989C68.352 28.3352 68.4291 28.524 68.5276 28.6651C68.6261 28.8062 68.7459 28.908 68.8871 28.9703C69.0282 29.0327 69.1841 29.0639 69.3548 29.0639C69.5977 29.0639 69.7832 29.0212 69.9113 28.9359C70.0393 28.8506 70.1295 28.7817 70.182 28.7291L70.507 29.2806C70.4741 29.32 70.4266 29.3675 70.3643 29.4233C70.3019 29.4792 70.2214 29.5333 70.1229 29.5859C70.0245 29.6384 69.9046 29.6827 69.7635 29.7188C69.6224 29.7549 69.4598 29.773 69.276 29.773C69.0135 29.773 68.7673 29.7303 68.5375 29.6449C68.3077 29.5596 68.1075 29.4184 67.9367 29.2215C67.766 29.0245 67.6315 28.7685 67.533 28.4534C67.4345 28.1382 67.3853 27.7476 67.3853 27.2815C67.3853 26.8285 67.4444 26.4444 67.5625 26.1293C67.6807 25.8142 67.835 25.5598 68.0254 25.3661C68.2158 25.1724 68.4275 25.0313 68.6606 24.9426C68.8936 24.854 69.1283 24.8097 69.3647 24.8097C69.5419 24.8097 69.6978 24.8261 69.8325 24.859C69.967 24.8918 70.0819 24.9328 70.1771 24.982C70.2723 25.0313 70.3511 25.0838 70.4135 25.1396C70.4758 25.1954 70.5267 25.243 70.5661 25.2824L70.2313 25.8437ZM73.9832 29.6548V26.6118C73.9832 26.2114 73.916 25.9242 73.7814 25.7501C73.6468 25.5762 73.4416 25.4892 73.1659 25.4892C72.9295 25.4892 72.7326 25.5483 72.575 25.6665C72.4175 25.7846 72.2927 25.8995 72.2008 26.0111V29.6548H71.4031V22.6925L72.2008 22.6038V25.4104H72.2205C72.2467 25.371 72.2878 25.3185 72.3436 25.2529C72.3994 25.1872 72.4765 25.1215 72.575 25.0559C72.6735 24.9903 72.7933 24.9328 72.9345 24.8835C73.0756 24.8343 73.2413 24.8097 73.4318 24.8097C73.8454 24.8097 74.1737 24.9443 74.4165 25.2135C74.6594 25.4827 74.7809 25.929 74.7809 26.5528V29.6548H73.9832ZM78.5526 29.6548V26.6118C78.5526 26.2114 78.4853 25.9242 78.3507 25.7501C78.2161 25.5762 78.0109 25.4892 77.7352 25.4892C77.4989 25.4892 77.3019 25.5483 77.1444 25.6665C76.9868 25.7846 76.8621 25.8995 76.7701 26.0111V29.6548H75.9725V24.9279H76.7012V25.4597H76.7209C76.7406 25.4203 76.7833 25.3628 76.8489 25.2873C76.9145 25.2118 76.9999 25.1396 77.105 25.0706C77.21 25.0017 77.3348 24.941 77.4792 24.8885C77.6236 24.836 77.7878 24.8097 77.9716 24.8097C78.1817 24.8097 78.372 24.8409 78.5427 24.9032C78.7134 24.9656 78.8578 25.0658 78.976 25.2036C79.0942 25.3415 79.1861 25.5204 79.2518 25.7403C79.3174 25.9602 79.3502 26.2311 79.3502 26.5528V29.6548H78.5526ZM81.3395 29.6548H80.5418V24.9279H81.3395V29.6548ZM80.9456 23.7856C80.7815 23.7856 80.6501 23.733 80.5517 23.628C80.4532 23.523 80.4039 23.3851 80.4039 23.2144C80.4039 23.0503 80.4532 22.9156 80.5517 22.8106C80.6501 22.7056 80.7815 22.6531 80.9456 22.6531C81.1031 22.6531 81.2311 22.7056 81.3296 22.8106C81.4281 22.9156 81.4773 23.0503 81.4773 23.2144C81.4773 23.3851 81.4281 23.523 81.3296 23.628C81.2311 23.733 81.1031 23.7856 80.9456 23.7856ZM84.343 27.0944L85.9679 29.6548H85.0127L83.6832 27.4489H83.3583V29.6548H82.5606V22.6925L83.3583 22.6038V26.7694H83.6931L84.9634 24.9279H85.9088L84.343 27.0944ZM63.1407 33.3221L60.2553 38.8565V38.8762H63.3869L63.3278 39.5852H59.1523V39.0535L62.1264 33.4895V33.4698H59.3099V32.7903H63.1407V33.3221ZM67.1782 36.4537C67.1782 36.6572 67.1717 36.8328 67.1585 36.9805C67.1454 37.1282 67.1323 37.2579 67.1191 37.3695H64.7065C64.7327 37.9275 64.8525 38.3379 65.0659 38.6005C65.2793 38.8631 65.5862 38.9944 65.9867 38.9944C66.1245 38.9944 66.2492 38.978 66.3609 38.9451C66.4725 38.9123 66.5693 38.8729 66.6514 38.827C66.7334 38.781 66.8024 38.735 66.8582 38.6891C66.914 38.6432 66.955 38.607 66.9813 38.5808L67.2767 39.1421C67.2439 39.175 67.1946 39.2225 67.129 39.2848C67.0634 39.3472 66.9747 39.4096 66.8631 39.472C66.7515 39.5344 66.6136 39.5886 66.4495 39.6345C66.2854 39.6804 66.0917 39.7034 65.8685 39.7034C65.5731 39.7034 65.3055 39.6542 65.0659 39.5557C64.8263 39.4572 64.6228 39.3045 64.4554 39.0977C64.288 38.8909 64.1583 38.6284 64.0664 38.3099C63.9744 37.9916 63.9285 37.6092 63.9285 37.1627C63.9285 36.7426 63.9761 36.3798 64.0713 36.0745C64.1665 35.7692 64.2962 35.5181 64.4603 35.3212C64.6244 35.1242 64.8148 34.9782 65.0314 34.8829C65.2481 34.7878 65.4811 34.7402 65.7306 34.7402C66.1836 34.7402 66.5381 34.8829 66.7942 35.1685C67.0502 35.4541 67.1782 35.8825 67.1782 36.4537ZM65.6814 35.3901C65.3991 35.3901 65.1726 35.5083 65.0019 35.7446C64.8312 35.981 64.7327 36.3223 64.7065 36.7688H66.4298C66.4363 36.7359 66.4413 36.6884 66.4446 36.626C66.4478 36.5637 66.4495 36.4964 66.4495 36.4241C66.4495 36.0958 66.3839 35.8415 66.2525 35.6609C66.1212 35.4804 65.9309 35.3901 65.6814 35.3901ZM70.8219 39.5852V36.5423C70.8219 36.1419 70.7546 35.8546 70.62 35.6806C70.4854 35.5066 70.2803 35.4197 70.0045 35.4197C69.7682 35.4197 69.5712 35.4788 69.4137 35.5969C69.2561 35.7151 69.1314 35.83 69.0394 35.9416V39.5852H68.2418V34.8583H68.9705V35.3901H68.9902C69.0099 35.3507 69.0526 35.2933 69.1182 35.2177C69.1838 35.1423 69.2692 35.07 69.3743 35.0011C69.4793 34.9322 69.6041 34.8715 69.7485 34.819C69.8929 34.7664 70.0571 34.7402 70.2409 34.7402C70.451 34.7402 70.6413 34.7714 70.812 34.8337C70.9828 34.8961 71.1272 34.9962 71.2453 35.1341C71.3635 35.2719 71.4554 35.4509 71.5211 35.6707C71.5867 35.8907 71.6195 36.1616 71.6195 36.4832V39.5852H70.8219ZM74.8299 35.5083H73.7959V38.1278C73.7959 38.4626 73.8386 38.6908 73.9239 38.8122C74.0092 38.9336 74.1537 38.9944 74.3572 38.9944C74.4754 38.9944 74.5772 38.978 74.6625 38.9451C74.7478 38.9123 74.8102 38.8827 74.8496 38.8565L74.9579 39.4966C74.9251 39.5228 74.8463 39.5639 74.7216 39.6198C74.5969 39.6755 74.4294 39.7034 74.2193 39.7034C73.8123 39.7034 73.507 39.5902 73.3035 39.3636C73.1 39.1372 72.9982 38.7613 72.9982 38.2361V35.5083H72.4271V34.9765L72.9982 34.8583L73.0868 33.5388H73.7959V34.8583H74.9284L74.8299 35.5083ZM77.8137 35.5575C77.7941 35.5444 77.7514 35.528 77.6857 35.5083C77.6201 35.4886 77.5315 35.4788 77.4198 35.4788C77.1703 35.4788 76.975 35.546 76.8339 35.6806C76.6928 35.8152 76.5926 35.9613 76.5335 36.1189V39.5852H75.7359V34.8583H76.4646V35.4984H76.4843C76.5172 35.4065 76.5598 35.3162 76.6123 35.2276C76.6649 35.139 76.7305 35.0602 76.8093 34.9912C76.8881 34.9223 76.9816 34.8682 77.0899 34.8288C77.1983 34.7894 77.3279 34.7697 77.4789 34.7697C77.5906 34.7697 77.6808 34.7796 77.7498 34.7993C77.8187 34.819 77.8728 34.8353 77.9122 34.8485L77.8137 35.5575ZM81.9104 39.5852H81.1817V39.0535H81.162C81.1423 39.0929 81.0996 39.1503 81.0339 39.2258C80.9683 39.3013 80.8846 39.3735 80.7829 39.4424C80.6811 39.5113 80.5579 39.5721 80.4135 39.6246C80.2691 39.6772 80.1083 39.7034 79.931 39.7034C79.7209 39.7034 79.5322 39.6722 79.3648 39.6099C79.1974 39.5475 79.0546 39.4474 78.9364 39.3095C78.8182 39.1716 78.7279 38.9927 78.6656 38.7728C78.6032 38.5529 78.572 38.282 78.572 37.9604V34.8583H79.3697V37.9013C79.3697 38.2952 79.4337 38.5758 79.5618 38.7433C79.6898 38.9106 79.8883 38.9944 80.1575 38.9944C80.3873 38.9944 80.5809 38.937 80.7385 38.822C80.8961 38.7071 81.0208 38.5939 81.1127 38.4823V34.8583H81.9104V39.5852ZM85.6131 39.5852V36.5423C85.6131 36.1549 85.5573 35.876 85.4457 35.7052C85.3341 35.5345 85.1536 35.4492 84.9041 35.4492C84.7728 35.4492 84.6562 35.4656 84.5545 35.4984C84.4528 35.5313 84.3625 35.5723 84.2837 35.6215C84.2049 35.6707 84.136 35.7249 84.0769 35.784C84.0178 35.8431 83.9686 35.8957 83.9292 35.9416V39.5852H83.1315V34.8583H83.8602V35.3901H83.8799C83.9128 35.3376 83.962 35.2736 84.0276 35.1981C84.0933 35.1226 84.1754 35.0503 84.2738 34.9814C84.3723 34.9125 84.4872 34.855 84.6185 34.8091C84.7498 34.7632 84.8976 34.7402 85.0617 34.7402C85.6 34.7402 85.9808 34.9503 86.204 35.3704C86.2499 35.3048 86.3123 35.2342 86.3911 35.1587C86.4699 35.0832 86.5618 35.0143 86.6668 34.9519C86.7718 34.8895 86.89 34.8386 87.0213 34.7993C87.1527 34.7599 87.2971 34.7402 87.4546 34.7402C88.4132 34.7402 88.8924 35.2982 88.8924 36.4143V39.5852H88.0947V36.5423C88.0947 36.1549 88.0258 35.876 87.8879 35.7052C87.7501 35.5345 87.5466 35.4492 87.2774 35.4492C87.0542 35.4492 86.8687 35.5034 86.721 35.6117C86.5733 35.7201 86.4567 35.8234 86.3714 35.9219C86.3846 35.9941 86.3944 36.0713 86.4009 36.1534C86.4075 36.2354 86.4108 36.3223 86.4108 36.4143V39.5852H85.6131ZM95.9044 34.5235C95.9044 34.7599 95.8748 34.9667 95.8158 35.1439C95.7567 35.3212 95.6762 35.4738 95.5745 35.6018C95.4727 35.7298 95.3546 35.8333 95.22 35.912C95.0854 35.9908 94.9459 36.0499 94.8014 36.0893V36.109C94.9787 36.1419 95.1445 36.2042 95.2987 36.2961C95.4531 36.388 95.5876 36.5029 95.7026 36.6408C95.8174 36.7786 95.9094 36.9411 95.9783 37.1282C96.0472 37.3154 96.0816 37.5205 96.0816 37.7437C96.0816 38.0129 96.0357 38.2591 95.9438 38.4823C95.8518 38.7055 95.7091 38.8992 95.5154 39.0633C95.3217 39.2274 95.0772 39.3554 94.7817 39.4474C94.4863 39.5393 94.1351 39.5852 93.728 39.5852H92.3395V32.7903H93.6493C94.0497 32.7903 94.3928 32.8314 94.6784 32.9134C94.964 32.9955 95.1987 33.112 95.3825 33.263C95.5663 33.414 95.6992 33.5962 95.7813 33.8095C95.8633 34.0229 95.9044 34.2609 95.9044 34.5235ZM95.0378 34.5531C95.0378 34.2379 94.9262 33.9786 94.703 33.7751C94.4798 33.5716 94.1285 33.4698 93.6493 33.4698H93.1963V35.8136H93.6394C94.0989 35.8136 94.4469 35.7019 94.6833 35.4788C94.9196 35.2556 95.0378 34.947 95.0378 34.5531ZM95.1658 37.6846C95.1658 37.317 95.046 37.0265 94.8064 36.8131C94.5668 36.5997 94.2237 36.4931 93.7773 36.4931H93.1963V38.8762H93.728C94.2336 38.8762 94.5996 38.7761 94.8261 38.5758C95.0526 38.3756 95.1658 38.0785 95.1658 37.6846ZM100.444 39.5852H99.7154V39.0535H99.6958C99.6761 39.0929 99.6334 39.1503 99.5677 39.2258C99.5021 39.3013 99.4184 39.3735 99.3167 39.4424C99.2149 39.5113 99.0917 39.5721 98.9473 39.6246C98.8029 39.6772 98.642 39.7034 98.4648 39.7034C98.2547 39.7034 98.066 39.6722 97.8986 39.6099C97.7312 39.5475 97.5883 39.4474 97.4702 39.3095C97.352 39.1716 97.2617 38.9927 97.1994 38.7728C97.137 38.5529 97.1058 38.282 97.1058 37.9604V34.8583H97.9035V37.9013C97.9035 38.2952 97.9675 38.5758 98.0955 38.7433C98.2236 38.9106 98.4221 38.9944 98.6913 38.9944C98.9211 38.9944 99.1147 38.937 99.2723 38.822C99.4299 38.7071 99.5546 38.5939 99.6465 38.4823V34.8583H100.444V39.5852ZM104.245 39.5852V36.5423C104.245 36.1419 104.178 35.8546 104.044 35.6806C103.909 35.5066 103.704 35.4197 103.428 35.4197C103.192 35.4197 102.995 35.4788 102.837 35.5969C102.68 35.7151 102.555 35.83 102.463 35.9416V39.5852H101.665V34.8583H102.394V35.3901H102.414C102.433 35.3507 102.476 35.2933 102.542 35.2177C102.607 35.1423 102.693 35.07 102.798 35.0011C102.903 34.9322 103.028 34.8715 103.172 34.819C103.316 34.7664 103.481 34.7402 103.664 34.7402C103.874 34.7402 104.065 34.7714 104.236 34.8337C104.406 34.8961 104.551 34.9962 104.669 35.1341C104.787 35.2719 104.879 35.4509 104.945 35.6707C105.01 35.8907 105.043 36.1616 105.043 36.4832V39.5852H104.245ZM106.018 37.2907C106.018 36.8115 106.08 36.411 106.205 36.0893C106.33 35.7676 106.491 35.5083 106.688 35.3113C106.885 35.1144 107.108 34.9749 107.357 34.8928C107.607 34.8108 107.856 34.7697 108.106 34.7697C108.257 34.7697 108.388 34.7812 108.5 34.8042C108.611 34.8271 108.703 34.855 108.775 34.8879V32.6229L109.573 32.5343V39.5852H108.844V39.083H108.825C108.805 39.1224 108.769 39.1765 108.716 39.2455C108.664 39.3144 108.592 39.3833 108.5 39.4523C108.408 39.5212 108.293 39.5803 108.155 39.6296C108.017 39.6788 107.856 39.7034 107.672 39.7034C107.449 39.7034 107.237 39.6591 107.037 39.5704C106.837 39.4818 106.661 39.3407 106.51 39.147C106.359 38.9533 106.24 38.7038 106.151 38.3986C106.062 38.0933 106.018 37.724 106.018 37.2907ZM107.889 38.9944C108.014 38.9944 108.125 38.978 108.224 38.9451C108.322 38.9123 108.408 38.8712 108.48 38.822C108.552 38.7728 108.613 38.722 108.662 38.6694C108.711 38.6169 108.749 38.5709 108.775 38.5315V35.6166C108.703 35.5707 108.619 35.5313 108.524 35.4984C108.429 35.4656 108.309 35.4492 108.165 35.4492C107.981 35.4492 107.809 35.4804 107.648 35.5427C107.487 35.6051 107.347 35.7086 107.229 35.853C107.111 35.9974 107.018 36.1845 106.949 36.4143C106.88 36.6441 106.845 36.9264 106.845 37.2612C106.845 37.5895 106.873 37.8635 106.929 38.0834C106.985 38.3034 107.062 38.4806 107.16 38.6152C107.259 38.7498 107.37 38.8467 107.495 38.9058C107.62 38.9648 107.751 38.9944 107.889 38.9944Z" fill="white"/>
<path d="M37.9173 19.1779C37.9397 18.9925 37.9529 18.8014 37.9529 18.6061C37.9529 18.4993 37.9537 18.3752 37.9405 18.2345C39.5898 18.2113 41.0363 17.023 41.0363 15.6567C41.0363 14.9616 40.5828 14.4369 40.3271 14.1233C40.3842 14.1109 40.4421 14.0976 40.5009 14.0836C40.7425 14.2938 41.4277 15.0402 41.4277 15.9828C41.4277 17.6221 39.7892 19.144 37.9173 19.1779ZM36.2556 13.4687C36.225 13.2858 36.1555 13.1203 36.0496 12.978C36.0553 12.8108 36.124 12.6511 36.393 12.7827C36.2473 12.9316 36.3599 13.1956 36.3599 13.1956C36.3599 13.1956 36.6578 13.0574 36.5957 12.8605C37.0376 12.9664 36.7199 13.5597 36.2556 13.4687ZM35.8725 14.3103C35.8137 14.0654 35.6879 13.8138 35.5282 13.6243C35.3826 13.4522 35.1417 13.2478 34.8174 13.2478C34.6692 13.2478 34.421 13.3173 34.2629 13.3843C34.2041 13.2767 34.0891 13.0177 34.0891 12.901C34.0891 12.781 34.2919 12.6594 34.68 12.6594C35.534 12.6594 36.0438 13.045 36.0438 13.6921C36.0438 13.9197 35.9536 14.1266 35.8725 14.3103ZM38.0654 25.3166C38.1647 25.3166 38.2127 25.3323 38.2707 25.3538C38.5164 26.0225 39.464 27.2845 39.5037 27.3383L39.512 27.3498L39.526 27.3465C39.7586 27.3093 40.3519 27.2199 40.8484 27.2199H40.86C40.9138 27.2199 40.9751 27.2199 41.014 27.258C41.0462 27.2903 41.062 27.3465 41.062 27.4268C41.062 27.5501 41.0098 27.7611 40.9469 27.8513C40.7731 27.6618 40.491 27.5766 40.0391 27.5766C39.9034 27.5766 39.7429 27.6171 39.656 27.6403L39.6204 27.6478L39.5798 27.6585L39.8405 27.9192C40.2427 28.3214 40.5903 28.6681 40.5903 28.899C40.5903 29.038 40.4545 29.2192 40.3304 29.2995C40.3031 28.8766 39.8761 28.3106 39.4598 27.9937L39.4243 27.9672L39.4176 28.1161C39.4118 28.2171 39.4027 28.3685 39.4027 28.5307C39.4027 29.3359 39.3208 29.4584 39.0419 29.4584C38.9989 29.4584 38.9335 29.446 38.893 29.4311C39.0502 29.2366 39.1123 28.9801 39.1123 28.5299L39.1098 28.3222L39.1073 28.155C39.1073 27.9705 39.1263 27.8339 39.1412 27.7239L39.1495 27.6618L39.1057 27.656C38.9749 27.6378 38.7324 27.6047 38.5471 27.6047C38.149 27.6047 37.8792 27.6411 37.6839 27.8248C37.5548 27.7206 37.4224 27.541 37.4224 27.4276C37.4224 27.2596 37.5267 27.2464 37.6641 27.2464C37.7336 27.2464 37.7981 27.2563 37.8875 27.2671C38.0588 27.2927 38.3162 27.3308 38.8466 27.3308H38.8797L38.869 27.2985C38.7349 26.9137 38.3658 26.3543 37.7741 25.6352C37.8271 25.4424 37.8792 25.3166 38.0654 25.3166ZM32.9562 27.2985L32.9455 27.3308H32.9786C33.5082 27.3308 33.7664 27.2927 33.9377 27.2671C34.0271 27.2563 34.0916 27.2464 34.1611 27.2464C34.2977 27.2464 34.4028 27.2596 34.4028 27.4276C34.4028 27.541 34.2703 27.7206 34.1421 27.8248C33.946 27.6411 33.6762 27.6047 33.279 27.6047C33.0928 27.6047 32.8495 27.6378 32.7195 27.656L32.6989 27.6585L32.6757 27.6618L32.6831 27.7239C32.6989 27.8339 32.7179 27.9705 32.7179 28.155L32.7154 28.3222L32.7129 28.5299C32.7129 28.9801 32.775 29.2366 32.933 29.4311C32.8917 29.446 32.8263 29.4584 32.7833 29.4584C32.5036 29.4584 32.4225 29.3359 32.4225 28.5307C32.4225 28.3685 32.4142 28.2171 32.4084 28.1161L32.4001 27.9664L32.3654 27.9937C31.9499 28.3106 31.5213 28.8766 31.4956 29.2995C31.3707 29.2192 31.2349 29.038 31.2349 28.899C31.2349 28.6681 31.5825 28.3214 31.9847 27.9192L32.2454 27.6585L32.1692 27.6403C32.0823 27.6171 31.9218 27.5766 31.7853 27.5766C31.3342 27.5766 31.0529 27.6618 30.8783 27.8513C30.8154 27.7611 30.7632 27.5501 30.7632 27.4268C30.7632 27.3465 30.779 27.2903 30.8112 27.258C30.8501 27.2199 30.9114 27.2199 30.9652 27.2199H30.9767C31.4733 27.2199 32.0674 27.3093 32.2992 27.3465L32.3132 27.3498L32.3215 27.3383C32.362 27.2845 33.3088 26.0225 33.5554 25.3538C33.6116 25.3323 33.6605 25.3166 33.7598 25.3166C33.946 25.3166 33.9981 25.4424 34.0519 25.6352C33.4594 26.3543 33.0903 26.9137 32.9562 27.2985ZM30.3975 15.9828C30.3975 15.0402 31.0835 14.2938 31.3251 14.0836C31.3831 14.0976 31.441 14.1109 31.4989 14.1233C31.2424 14.4369 30.7889 14.9616 30.7889 15.6567C30.7889 17.0371 32.2636 18.2353 33.9335 18.2353C33.9228 18.3537 33.917 18.4778 33.917 18.6061C33.917 18.8096 33.9286 18.9992 33.9484 19.1779C32.06 19.1663 30.3975 17.6337 30.3975 15.9828ZM43.0638 18.8899C43.9112 20.2297 44.574 20.2074 45.5753 20.2074C44.747 19.5726 44.1992 18.7592 43.9377 18.3437L42.3902 15.8677C42.2395 15.1031 41.844 14.3881 41.2515 13.856C41.4509 13.7807 41.6164 13.7013 41.7157 13.6259C40.7053 13.6259 39.704 13.1129 39.1528 13.1129C38.7986 13.1129 38.5711 13.3247 38.5711 13.6044C38.5934 13.9164 38.9145 14.2334 39.5078 14.2334C39.6419 14.2334 39.814 14.216 40.0027 14.1845C40.3238 14.6322 40.5828 15.0369 40.5828 15.6145C40.5828 16.6986 39.2869 17.5435 37.9785 17.5435C37.9041 17.5435 37.8337 17.5402 37.7601 17.5352C37.6417 17.2663 37.247 16.8153 37.247 16.3022C37.247 15.4407 37.8089 14.7373 37.8089 13.8841C37.8089 13.3537 37.5507 13.0252 37.4514 12.8886C37.6119 12.7397 37.7874 12.5568 37.8288 12.431C37.7353 12.4715 37.6244 12.4765 37.463 12.4765C36.8357 12.4765 36.3243 12.3135 35.8261 12.3135C35.5414 12.3135 35.4653 12.4012 35.4653 12.4848C35.4653 12.5154 35.4695 12.5468 35.4777 12.5617C35.3718 12.5204 35.2725 12.493 35.1542 12.4715C35.0069 12.4434 34.8488 12.4293 34.68 12.4293C34.0742 12.4293 33.8591 12.6834 33.8591 12.901C33.8591 13.0847 34.0039 13.4207 34.1686 13.6773C34.4044 13.5581 34.6883 13.4778 34.8174 13.4778C35.1393 13.4778 35.4248 13.784 35.5762 14.1465C35.3602 14.173 35.3188 14.1821 35.1004 14.1821C34.5103 14.1821 34.109 13.971 34.0262 13.971C34.0188 13.971 34.0031 13.9752 34.0031 13.9884C34.0031 14.0712 34.1702 14.2896 34.4996 14.4096C34.934 14.5685 35.5845 14.6347 35.6929 14.6529C35.6929 14.672 35.5828 14.8772 35.4595 14.9169C35.4339 14.9252 35.4132 14.926 35.3826 14.9194C34.9291 14.83 34.8025 14.7919 34.2273 14.5735C34.2099 14.5669 34.1992 14.5776 34.1992 14.5958C34.1992 14.8234 34.7884 15.3257 35.3164 15.5185C34.8753 16.0813 34.325 16.6572 34.0651 17.5352C33.9915 17.5402 33.9203 17.5435 33.8467 17.5435C32.5383 17.5435 31.2424 16.6986 31.2424 15.6145C31.2424 15.0369 31.5014 14.6322 31.8225 14.1845C32.0112 14.216 32.1825 14.2334 32.3174 14.2334C32.9107 14.2334 33.2318 13.9164 33.255 13.6044C33.255 13.3247 33.0274 13.1129 32.6724 13.1129C32.1212 13.1129 31.1207 13.6259 30.1087 13.6259C30.2088 13.7013 30.3743 13.7807 30.5729 13.856C29.9812 14.3881 29.5857 15.1031 29.435 15.8677L27.8875 18.3437C27.6269 18.7592 27.0774 19.5726 26.249 20.2074C27.2503 20.2074 27.914 20.2297 28.7614 18.8899L29.555 17.6205C29.6138 17.7852 29.6858 17.9457 29.771 18.1029L28.1929 20.6277C27.9306 21.0465 27.3861 21.8525 26.5544 22.4914C27.5557 22.4914 28.2194 22.5145 29.0668 21.1756L30.4248 19.0008C30.5266 19.1092 30.6333 19.2151 30.7459 19.3161L28.8293 22.3846C28.5661 22.8042 28.0249 23.6085 27.1916 24.2466C28.1929 24.2466 28.8566 24.2706 29.7032 22.9308L31.5717 19.9392C31.6951 20.017 31.8208 20.0923 31.9516 20.1635L29.6701 23.8138C29.4069 24.2333 28.8657 25.0352 28.0324 25.6757C29.0337 25.6757 29.6974 25.6989 30.5448 24.3599L32.8933 20.6004C33.0324 20.6534 33.173 20.7047 33.3162 20.7502L30.6623 24.998C30.4033 25.4117 29.8496 26.2285 29.0254 26.8599C30.0259 26.8599 30.6904 26.8831 31.537 25.5442L34.3655 21.0175C34.3945 21.0225 34.4226 21.0266 34.4508 21.0324C34.5277 21.2774 34.5815 21.5058 34.5815 21.7333C34.5815 23.1559 33.648 24.4121 32.5276 25.382C32.5996 25.4134 32.7245 25.4242 32.8395 25.4242C33.0712 25.4242 33.2202 25.4117 33.3253 25.3935C33.0655 25.9836 32.5077 26.7457 32.2263 27.1396C31.8597 27.0734 31.326 27.0221 30.9767 27.0221C30.611 27.0221 30.5696 27.2356 30.5696 27.4268C30.5696 27.7586 30.7252 28.0226 30.9056 28.1699C30.9734 28.0003 31.11 27.7735 31.7853 27.7735C31.7985 27.7735 31.8217 27.7752 31.8531 27.7777C31.6562 27.997 31.038 28.4968 31.038 28.899C31.038 29.1655 31.3301 29.5652 31.7149 29.5652C31.6926 29.4791 31.6951 29.4005 31.6951 29.3409C31.6951 29.0148 31.9839 28.6334 32.228 28.3669C32.2205 28.4463 32.2247 28.438 32.2247 28.5307C32.2247 29.3012 32.2942 29.6554 32.7833 29.6554C33.0232 29.6554 33.1888 29.5238 33.2459 29.4841C32.9281 29.1919 32.9115 28.9619 32.9115 28.5299C32.9124 28.4174 32.9132 28.3073 32.9148 28.1559C32.9157 28.0566 32.914 27.9258 32.8983 27.8315C33.0729 27.8075 33.1441 27.8075 33.279 27.8075C33.279 27.8075 33.9733 27.752 34.1413 28.1137C34.3299 27.9407 34.6038 27.6966 34.6038 27.4276C34.6038 27.2497 34.5194 27.0486 34.1611 27.0486C34.0254 27.0486 33.5992 27.1314 33.2425 27.1314C33.3385 26.9187 33.7647 26.2947 34.1346 25.8421C34.1909 26.0175 34.2778 26.207 34.4714 26.3626C34.4987 26.0713 34.6692 25.1502 35.1244 24.6115C35.1773 24.9756 35.2485 25.3489 35.2485 26.1358C35.2485 28.0508 34.7884 29.465 33.8111 29.7348C33.9385 29.9558 34.2075 30.1552 34.4863 30.1552C34.8438 30.1552 35.0383 29.7505 35.2369 29.369C35.3404 29.6504 35.6259 30.3406 35.9122 30.3406C36.1985 30.3406 36.4848 29.6504 36.5883 29.369C36.7861 29.7505 36.9814 30.1552 37.3389 30.1552C37.6177 30.1552 37.8867 29.9558 38.0141 29.7348C37.0368 29.465 36.5759 28.0508 36.5759 26.1358C36.5759 25.3489 36.647 24.9756 36.7 24.6115C37.156 25.1502 37.3273 26.0713 37.3529 26.3626C37.5474 26.207 37.6351 26.0175 37.6906 25.8421C38.0596 26.2947 38.4867 26.9187 38.5827 27.1314C38.226 27.1314 37.799 27.0486 37.6641 27.0486C37.3066 27.0486 37.2222 27.2497 37.2222 27.4276C37.2222 27.6966 37.4961 27.9407 37.6848 28.1137C37.8511 27.752 38.5471 27.8075 38.5471 27.8075C38.6811 27.8075 38.7523 27.8075 38.9277 27.8315C38.9112 27.9258 38.9104 28.0566 38.9112 28.1559C38.9128 28.3073 38.9128 28.4174 38.9137 28.5299C38.9137 28.9619 38.8971 29.1919 38.5793 29.4841C38.6364 29.5238 38.8019 29.6554 39.0419 29.6554C39.531 29.6554 39.6013 29.3012 39.6013 28.5307C39.6013 28.438 39.6038 28.4463 39.5972 28.3669C39.8413 28.6334 40.1301 29.0148 40.1301 29.3409C40.1301 29.4005 40.1335 29.4791 40.1095 29.5652C40.4951 29.5652 40.788 29.1655 40.788 28.899C40.788 28.4968 40.1699 27.997 39.9713 27.7777C40.0035 27.7752 40.0267 27.7735 40.0391 27.7735C40.7152 27.7735 40.8518 28.0003 40.9196 28.1699C41.1 28.0226 41.2556 27.7586 41.2556 27.4268C41.2556 27.2356 41.2142 27.0221 40.8484 27.0221C40.4992 27.0221 39.9663 27.0734 39.5989 27.1396C39.3167 26.7457 38.7606 25.9836 38.4999 25.3935C38.605 25.4117 38.7548 25.4242 38.9857 25.4242C39.1015 25.4242 39.2256 25.4134 39.2976 25.382C38.1772 24.4121 37.2437 23.1559 37.2437 21.7333C37.2437 21.5058 37.2975 21.2774 37.3744 21.0324C37.4018 21.0266 37.4315 21.0225 37.4597 21.0175L40.2882 25.5442C41.1348 26.8831 41.7993 26.8599 42.7998 26.8599C41.9756 26.2285 41.4219 25.4117 41.1629 24.998L38.5082 20.7502C38.6522 20.7047 38.7937 20.6534 38.9327 20.6004L41.2804 24.3599C42.1278 25.6989 42.7915 25.6757 43.7928 25.6757C42.9595 25.0352 42.4183 24.2333 42.1551 23.8138L39.8744 20.1635C40.0035 20.0923 40.1301 20.017 40.2526 19.9392L42.122 22.9308C42.9694 24.2706 43.6323 24.2466 44.6336 24.2466C43.8003 23.6085 43.2599 22.8042 42.9959 22.3846L41.0793 19.3161C41.1919 19.2151 41.2995 19.1092 41.3996 19.0008L42.7592 21.1756C43.6058 22.5145 44.2695 22.4914 45.2708 22.4914C44.4383 21.8525 43.8954 21.0465 43.6323 20.6277L42.055 18.1029C42.1394 17.9457 42.2114 17.7852 42.271 17.6205L43.0638 18.8899Z" fill="white"/>
<path d="M53.497 29.6554H50.6006V13.1046H53.497V29.6554Z" fill="white"/>
<path d="M53.497 46.2062H50.6006V29.6554H53.497V46.2062Z" fill="#CECECE"/>
<path d="M53.497 62.7569H50.6006V46.2062H53.497V62.7569Z" fill="#9D9D9D"/>
</g>
</svg>
