<svg width="135" height="75" viewBox="0 0 135 75" fill="none" xmlns="http://www.w3.org/2000/svg">
<mask id="mask0_17290_85998" style="mask-type:luminance" maskUnits="userSpaceOnUse" x="27" y="13" width="82" height="50">
<path d="M108.831 13.034H27.8311V62.034H108.831V13.034Z" fill="white"/>
</mask>
<g mask="url(#mask0_17290_85998)">
<path d="M36.2119 62.0011H100.06L68.3053 30.0477L36.2119 62.0011Z" fill="white"/>
<path d="M34.9923 60.4298L39.9667 55.5467L38.3098 53.8367L35.1854 56.9051L29.6815 51.2266L27.8311 53.0432L34.9923 60.4298Z" fill="white"/>
<path d="M41.0584 54.4345L46.1554 49.4294L44.7557 47.9866L41.5193 51.1635L39.9652 49.5602L42.5586 47.0141L41.0939 45.5045L38.5005 48.0492L37.169 46.676L40.2989 43.6025L38.9001 42.1602L33.8193 47.1486L41.0584 54.4345Z" fill="white"/>
<path d="M57.7412 30.7072C55.6856 28.5868 52.1197 28.8405 50.4024 30.5268C48.6847 32.2131 47.8081 35.5755 50.2338 38.0775C52.8981 40.8254 56.0681 39.8274 57.7859 38.142C60.3184 35.6557 59.4169 32.4357 57.7412 30.7072ZM56.2304 36.6899C55.0934 37.8062 53.7033 37.5034 52.1151 35.8649C50.7804 34.4884 50.8606 33.1054 51.8312 32.1523C52.4986 31.497 53.854 30.9108 55.4667 32.5744C57.3065 34.4721 57.3674 35.5736 56.2304 36.6899Z" fill="white"/>
<path d="M63.4745 32.4681L65.3549 30.6214L62.526 27.7038L60.8327 20.6144L58.6772 22.7311L59.7985 26.753L56.01 25.3492L53.9775 27.3443L60.4364 29.4313L63.4745 32.4681Z" fill="white"/>
<path d="M53.4478 42.3225C53.4478 42.3225 48.8712 40.7512 48.6536 40.7893C48.5831 40.8008 49.6367 37.9797 47.2696 36.7293C47.2696 36.7293 45.5132 35.7726 43.7553 37.3796L40.0088 41.0949L47.2313 48.4142L49.1422 46.5382L45.2339 42.508L51.5517 44.1841L53.4478 42.3225ZM46.3593 41.3175C45.2975 42.3582 45.1541 42.4403 45.1541 42.4403C45.1541 42.4403 43.4894 40.7234 43.4304 40.6626C43.3714 40.6019 44.6209 39.5241 44.8177 39.3307C44.9011 39.2486 45.6791 38.738 46.3229 39.4016C46.3229 39.4016 47.4208 40.2749 46.3593 41.3175Z" fill="white"/>
<path d="M62.8908 22.0113L61.2197 20.3158L68.5155 13.034L70.9034 15.4563L68.2749 20.6618L73.6337 18.2265L75.9312 20.5579L68.6353 27.8396L66.8743 26.0532L70.7255 22.2098L65.4571 24.615L64.368 23.5098L66.8167 18.2135L62.8908 22.0113Z" fill="white"/>
<path d="M75.5587 34.8636L70.5 29.7319L77.7963 22.4501L82.8693 27.5971L81.3954 29.0682L78.2171 25.844L77.0285 27.0299L79.5352 29.5732L78.0005 31.1046L75.5089 28.5766L73.9142 30.1678L77.0626 33.3619L75.5587 34.8636Z" fill="white"/>
<path d="M92.2397 37.1036L94.1196 39.0116L88.5987 44.5213L91.6871 47.6536L89.9117 49.4267L84.9434 44.3859L92.2397 37.1036Z" fill="white"/>
<path d="M91.2246 50.7591L98.5209 43.4773L100.356 45.3389L93.0599 52.6202L91.2246 50.7591Z" fill="white"/>
<path d="M96.3872 55.9975L94.6709 54.256L101.968 46.9747L104.46 49.5013L102.33 57.0618L107.16 52.2413L108.831 53.9369L101.535 61.2182L99.3562 59.0088L101.232 51.0717L96.3872 55.9975Z" fill="white"/>
<path d="M88.9422 33.7584L84.5108 29.2621L77.1992 36.529L79.0792 38.436L83.0654 34.4578L81.6307 41.0249L83.5553 42.9778C83.5553 42.9778 85.0726 38.2802 85.1191 38.0845C85.1191 38.0845 86.7631 38.9958 88.567 37.4352C88.567 37.4352 90.2972 35.7387 88.9422 33.7584ZM86.2363 35.888C86.2363 35.888 85.3049 36.5174 84.484 35.6849L83.2018 34.3223C83.2018 34.3223 84.7509 32.7761 84.9463 32.5808C84.9463 32.5808 86.14 33.7922 86.2893 33.9434C86.4382 34.0946 87.3793 34.807 86.2363 35.888Z" fill="white"/>
</g>
</svg>
