<svg width="160" height="58" viewBox="0 0 160 58" fill="none" xmlns="http://www.w3.org/2000/svg">
<path d="M53.9765 37.8286C55.631 37.8286 57.5381 37.5255 58.7884 37.2224V31.5643C57.4371 31.3622 55.4795 31.1601 53.926 31.1601C50.175 31.1601 48.6721 32.4104 48.6721 34.4691C48.6721 36.8308 50.9202 37.8286 53.9765 37.8286ZM54.1786 15.7393C60.3924 15.7393 64.5981 18.8462 64.5981 25.9062V40.5313C64.5981 40.9355 64.396 41.2386 64.0424 41.3775C61.4407 42.1732 57.677 42.8805 53.9765 42.8805C48.1669 42.8805 42.8119 40.7713 42.8119 34.5196C42.8119 29.0636 47.3712 26.5124 53.7745 26.5124C55.4289 26.5124 57.2855 26.7145 58.7884 26.9165V25.9693C58.7884 22.4077 57.4876 20.9174 53.7745 20.9174C51.2738 20.9174 48.9625 21.5742 47.3586 22.5214C47.0049 22.774 46.6134 22.7235 46.3608 22.3193L44.3527 19.2629C44.1001 18.8588 44.1001 18.6062 44.3527 18.4168C46.765 16.7496 50.1245 15.7393 54.1786 15.7393Z" fill="#48FF9B"/>
<path d="M72.6939 12.834C70.8373 12.834 69.3849 11.3816 69.3849 9.52506C69.3849 7.61798 70.8373 6.2666 72.6939 6.2666C74.601 6.2666 75.9523 7.61798 75.9523 9.52506C75.9523 11.3816 74.601 12.834 72.6939 12.834Z" fill="#48FF9B"/>
<path d="M70.4961 42.2861C70.0415 42.2861 69.751 42.0335 69.751 41.541V17.052C69.751 16.5973 70.0541 16.3447 70.4961 16.3447H74.8534C75.308 16.3447 75.5606 16.5973 75.5606 17.052V41.541C75.5606 42.0461 75.308 42.2861 74.8534 42.2861H70.4961Z" fill="#48FF9B"/>
<path d="M89.2008 42.8919C83.7953 42.8919 80.84 39.2798 80.84 33.1796V7.22562C80.84 6.72043 81.0926 6.48047 81.5851 6.48047H85.8918C86.397 6.48047 86.637 6.73306 86.637 7.22562V32.9649C86.637 36.2739 87.6853 37.5748 89.946 37.5748C90.5522 37.5748 91.1963 37.5242 91.8531 37.4737C92.3582 37.4737 92.5982 37.7263 92.5982 38.2189V41.9194C92.5982 42.3235 92.4466 42.6645 92.0425 42.7151C91.2089 42.8413 90.2112 42.8919 89.2008 42.8919Z" fill="#479E9A"/>
<path d="M111.391 17.0403C111.391 16.5856 111.644 16.333 112.136 16.333H116.443C116.948 16.333 117.188 16.5856 117.188 17.0403V40.6325C117.188 48.3493 113.677 52.3024 106.024 52.3024C101.767 52.3024 98.812 51.3046 96.2103 49.1449C95.8062 48.8418 95.8062 48.5387 96.0588 48.1472L98.2058 45.0908C98.4584 44.6867 98.812 44.5856 99.153 44.8382C101.06 46.1391 103.258 47.1368 105.96 47.1368C109.421 47.1368 111.619 45.6339 111.416 40.6199C109.812 41.1251 107.905 41.5166 106.061 41.5166C100.858 41.5166 95.3389 38.2076 95.3389 31.2992V17.0403C95.3389 16.5856 95.642 16.333 96.084 16.333H100.441C100.896 16.333 101.149 16.5856 101.149 17.0403V31.0592C101.149 34.9113 103.851 36.2627 106.857 36.2627C108.562 36.3132 110.267 35.8585 111.366 35.2649V17.0403H111.391Z" fill="#479E9A"/>
</svg>
