<svg width="160" height="58" viewBox="0 0 160 58" fill="none" xmlns="http://www.w3.org/2000/svg">
<path fill-rule="evenodd" clip-rule="evenodd" d="M30.3855 34.1771L30.7998 33.0712C31.6515 30.8373 31.2832 29.0901 28.6592 28.4487C31.7205 27.8736 33.4929 25.8609 34.2755 23.804L34.5747 23.0299C35.7946 19.8229 34.8509 17.4342 30.3164 17.4342H19.3831L10.9586 39.7285H21.961C26.4955 39.7285 29.1656 37.362 30.3855 34.1771ZM24.0556 31.6557L23.4112 33.3587C23.0889 34.1992 22.5135 34.5752 21.6388 34.5752H20.4879L22.0531 30.4613H23.204C24.0556 30.4613 24.3779 30.8152 24.0556 31.6557ZM27.0249 23.8261L26.3574 25.5734C26.0582 26.3696 25.4597 26.7456 24.6081 26.7456H23.4572L24.9994 22.6539H26.1503C27.0249 22.6539 27.3472 22.9857 27.0249 23.8261ZM42.4928 17.4121L28.475 39.7285H35.2422L37.2217 36.4109H40.9736L40.3521 39.7285H47.9479L50.8252 17.4121H42.4928ZM41.8713 32.0538H39.8227L43.2524 25.9936L41.8713 32.0538ZM96.7223 33.7347L94.4436 39.7285H79.8043L85.9731 23.428H80.3798L74.2111 39.7285H66.6152L72.784 23.428H64.1754L58.0067 39.7285H50.4108L56.5796 23.428H51.5387L53.7944 17.4342H102.891L100.75 23.0963H93.684L92.6482 25.8167H99.7146L97.7811 30.9479H90.7147L89.6559 33.7568H96.7223V33.7347ZM139.857 23.0741L138.845 25.7946H145.911L143.977 30.9258H136.888L135.829 33.7347H142.896L140.617 39.7285H111.776L120.2 17.4121H127.75L121.581 33.7347H128.21L134.379 17.4121H149.041L146.901 23.0741H139.857ZM112.697 33.7347L110.441 39.7285H96.0318L104.456 17.4121H112.006L105.837 33.7347H112.697Z" fill="#00295A"/>
</svg>
