<svg width="160" height="58" viewBox="0 0 160 58" fill="none" xmlns="http://www.w3.org/2000/svg">
<g clip-path="url(#clip0_17040_10096)">
<path d="M125 22.5988C125 28.5988 120.2 33.3988 114.2 33.3988H106.8V45.9988H98.3V11.7988H114.1C120.2 11.7988 125 16.6988 125 22.5988ZM112.8 18.8988H106.9V25.9988H112.8C114.7 25.9988 116.2 24.2988 116.2 22.4988C116.2 20.5988 114.7 18.8988 112.8 18.8988ZM84.9 11.7988V25.6988H73.1V11.7988H64.6V46.0988H73.1V33.4988H84.9V46.0988H93.4V11.7988H84.9ZM61.3 36.7988C61.3 42.4988 56.2 46.0988 50.8 46.0988H35V11.7988H50.3C55.9 11.7988 60.5 15.8988 60.5 20.9988C60.5 24.9988 58.6 27.1988 56 28.7988C59 30.0988 61.3 31.9988 61.3 36.7988ZM49.1 32.2988H43.5V38.8988H49.1C51.3 38.8988 52.5 37.3988 52.5 35.5988C52.5 33.7988 50.9 32.2988 49.1 32.2988ZM48.3 18.8988H43.5V25.9988H48.3C50.5 25.9988 51.7 24.2988 51.7 22.4988C51.7 20.5988 50.5 18.8988 48.3 18.8988Z" fill="#E35302"/>
</g>
<defs>
<clipPath id="clip0_17040_10096">
<rect width="90" height="34.4" fill="white" transform="translate(35 11.7988)"/>
</clipPath>
</defs>
</svg>
