<svg width="160" height="58" viewBox="0 0 160 58" fill="none" xmlns="http://www.w3.org/2000/svg">
<path d="M31.5745 31.0562H29.6843V40.7021H31.5745V31.0562Z" fill="#003C4C"/>
<path d="M88.0823 34.5894L87.6591 33.8603H86.446V40.6742H88.2234V36.5242C88.2234 35.6269 89.1825 35.3465 90.3392 35.4867V33.7201C89.38 33.7482 88.5619 34.1688 88.0823 34.5894Z" fill="#003C4C"/>
<path d="M70.7322 30.9159C70.1679 30.9159 69.6884 31.3646 69.6884 31.9534C69.6884 32.5143 70.1397 32.9909 70.7322 32.9909C71.3246 32.9909 71.776 32.5423 71.776 31.9534C71.776 31.3646 71.2964 30.9159 70.7322 30.9159Z" fill="#003C4C"/>
<path d="M71.6349 33.8575H69.8576V40.6713H71.6349V33.8575Z" fill="#003C4C"/>
<path d="M77.1644 30.9159C76.6001 30.9159 76.1205 31.3646 76.1205 31.9534C76.1205 32.5143 76.5719 32.9909 77.1644 32.9909C77.7568 32.9909 78.2082 32.5423 78.2082 31.9534C78.2082 31.3646 77.7286 30.9159 77.1644 30.9159Z" fill="#003C4C"/>
<path d="M78.0671 33.8575H76.2898V40.6713H78.0671V33.8575Z" fill="#003C4C"/>
<path d="M74.8792 31.0562H73.1019V40.7021H74.8792V31.0562Z" fill="#003C4C"/>
<path d="M65.8516 33.7767C65.1463 33.7767 64.4128 34.0291 64.046 34.3656V31.4213C63.6511 31.5895 63.1715 31.6737 62.6637 31.6737C62.5508 31.6737 62.4097 31.6737 62.2969 31.6737V40.6747H63.6793L63.9332 40.0298C64.3281 40.4504 65.0898 40.7588 65.9362 40.7588C67.6289 40.7588 68.9266 39.5811 68.9266 37.2257C68.8702 34.8703 67.5443 33.7767 65.8516 33.7767ZM65.4284 39.1885C64.8077 39.1885 64.3563 38.9081 64.0178 38.4314V37.1135C64.0178 35.8798 64.4692 35.2909 65.4566 35.2909C66.444 35.2909 67.0364 35.9919 67.0364 37.2537C67.0647 38.3473 66.5851 39.1885 65.4284 39.1885Z" fill="#003C4C"/>
<path d="M38.7402 36.638C38.7402 35.8809 39.0788 35.32 39.9251 35.32C40.7433 35.32 41.0536 35.8528 41.0536 36.694V40.6758H42.8309V36.1893C42.8309 34.7592 41.9564 33.7778 40.3483 33.7778C39.6148 33.7778 38.7402 34.1984 38.3171 34.7312C37.8375 34.0582 37.1322 33.7778 36.2576 33.7778C35.5241 33.7778 34.7906 34.1704 34.4803 34.563L34.0853 33.8619H32.8722V40.6758H34.6496V36.638C34.6496 35.8809 34.9599 35.32 35.8062 35.32C36.6244 35.32 36.9911 35.8528 36.9911 36.694V40.6758H38.7684L38.7402 36.638Z" fill="#003C4C"/>
<path d="M49.771 36.638C49.771 35.8809 50.1096 35.32 50.9559 35.32C51.774 35.32 52.0844 35.8528 52.0844 36.694V40.6758H53.8617V36.1893C53.8617 34.7592 52.9871 33.7778 51.3791 33.7778C50.6456 33.7778 49.771 34.1984 49.3478 34.7312C48.8682 34.0582 48.163 33.7778 47.2884 33.7778C46.5549 33.7778 45.8214 34.1704 45.5111 34.563L45.1161 33.8619H43.903V40.6758H45.6521V36.638C45.6521 35.8809 45.9625 35.32 46.8088 35.32C47.6269 35.32 47.9937 35.8528 47.9937 36.694V40.6758H49.771V36.638Z" fill="#003C4C"/>
<path d="M85.2047 40.2277L84.8097 38.8537C84.8097 38.8537 83.9634 39.2463 82.8349 39.2463C81.7347 39.2463 81.0858 38.8537 80.8883 37.9845H85.4586C85.4586 37.8162 85.4586 37.3395 85.4586 37.2554C85.4586 35.2645 84.2737 33.7503 82.2989 33.7503C80.4369 33.7503 78.9417 35.0402 78.9417 37.2554C78.9417 39.4706 80.4652 40.7605 82.8067 40.7605C84.2455 40.7605 85.2047 40.2277 85.2047 40.2277ZM82.2707 35.2365C83.0606 35.2365 83.5684 35.7132 83.5966 36.7507H80.8319C80.973 35.7132 81.509 35.2365 82.2707 35.2365Z" fill="#003C4C"/>
<path d="M58.0652 33.7778C56.175 33.7778 54.6234 35.0677 54.6234 37.2829C54.6234 39.4981 56.175 40.788 58.0652 40.788C59.9553 40.788 61.507 39.4981 61.507 37.2829C61.507 35.0677 59.9553 33.7778 58.0652 33.7778ZM58.0652 39.3018C57.2188 39.3018 56.4289 38.6569 56.4289 37.2829C56.4289 35.9089 57.2188 35.264 58.0652 35.264C58.9115 35.264 59.7014 35.9089 59.7014 37.2829C59.6732 38.6569 58.9115 39.3018 58.0652 39.3018Z" fill="#003C4C"/>
<path d="M41.2229 21.5805C39.3327 21.5805 37.781 22.8704 37.781 25.0856C37.781 27.3008 39.3327 28.5907 41.2229 28.5907C43.113 28.5907 44.6647 27.3008 44.6647 25.0856C44.6647 22.8704 43.113 21.5805 41.2229 21.5805ZM41.2229 27.1045C40.3765 27.1045 39.5866 26.4596 39.5866 25.0856C39.5866 23.7116 40.3765 23.0667 41.2229 23.0667C42.0692 23.0667 42.8591 23.7116 42.8591 25.0856C42.8309 26.4596 42.0692 27.1045 41.2229 27.1045Z" fill="#003C4C"/>
<path d="M57.0213 28.3107L59.1372 21.6931H57.2752L55.9493 26.3198L54.172 21.6931H52.2254L55.0465 28.6192C54.708 29.7408 53.3538 29.6286 52.2818 29.1239V30.7222C54.2566 31.3111 56.175 31.0587 57.0213 28.3107Z" fill="#003C4C"/>
<path d="M62.043 28.5626C62.8611 28.5626 63.4536 28.2542 63.8767 27.8336C63.7921 29.1795 63.1714 29.5441 62.1276 29.5441C60.9145 29.5441 60.0964 29.0954 60.0964 29.0954V30.6937C60.0964 30.6937 61.1684 31.0582 62.4097 31.0582C64.4692 31.0582 65.6823 29.6562 65.6823 27.8616V21.6927H64.2717L64.1024 22.2815C63.7075 21.917 63.0022 21.5805 62.3251 21.5805C59.5604 21.5805 59.1654 24.1042 59.1654 25.0295C59.1372 27.413 60.3503 28.5626 62.043 28.5626ZM62.4097 23.0667C63.3971 23.0667 63.8485 23.6555 63.8485 24.9174V26.2633C63.6228 26.74 63.115 27.0204 62.4379 27.0204C61.3095 27.0204 60.9427 26.1792 60.9427 25.0576C60.9427 23.6836 61.5634 23.0667 62.4097 23.0667Z" fill="#003C4C"/>
<path d="M82.6092 23.4598C82.6374 23.2355 82.7785 23.0953 83.4274 23.0953C84.584 23.0953 85.7407 23.5159 85.7407 23.5159L86.1921 22.0017C86.1921 22.0017 84.9508 21.5531 83.7095 21.5531C81.8475 21.5531 80.8037 22.226 80.8037 23.7122C80.8037 24.7216 81.3679 25.2825 82.8631 25.7031C84.0762 26.0396 84.5276 26.1517 84.5276 26.5443C84.5276 26.8808 84.2455 27.049 83.5684 27.049C82.2425 27.049 81.114 26.5162 81.114 26.5162L80.6062 27.9744C80.6062 27.9744 81.7347 28.5352 83.3427 28.5352C85.2611 28.5352 86.4178 27.8061 86.4178 26.32C86.4178 25.1423 85.515 24.6095 84.6123 24.3571C83.0606 23.9646 82.581 23.8524 82.6092 23.4598Z" fill="#003C4C"/>
<path d="M79.8163 28.0579L79.4213 26.6839C79.4213 26.6839 78.575 27.0765 77.4465 27.0765C76.3463 27.0765 75.6974 26.6839 75.4999 25.8147H80.0702C80.0702 25.6464 80.0702 25.1697 80.0702 25.0856C80.0702 23.0947 78.8853 21.5805 76.9105 21.5805C75.0485 21.5805 73.5533 22.8704 73.5533 25.0856C73.5533 27.3008 75.0767 28.5907 77.4183 28.5907C78.8571 28.5907 79.8163 28.0579 79.8163 28.0579ZM76.8823 23.0386C77.6722 23.0386 78.18 23.5153 78.2082 24.5528H75.4435C75.5846 23.5153 76.1206 23.0386 76.8823 23.0386Z" fill="#003C4C"/>
<path d="M37.104 25.8128C37.104 24.0182 35.6652 23.5135 35.6652 23.5135C36.1166 23.2331 36.8219 22.6442 36.8219 21.2983C36.8219 19.9804 35.7216 18.8587 33.7468 18.8587H29.6843V28.5047H33.6339C35.7498 28.5047 37.104 27.5513 37.104 25.8128ZM33.4647 20.4851C34.3392 20.4851 34.9035 20.8777 34.9035 21.6347C34.9035 22.3918 34.3392 22.7844 33.4647 22.7844C32.9851 22.7844 32.1387 22.7844 31.5745 22.7844V20.4851H33.4647ZM31.5745 26.9344V24.3547H33.2954C34.4239 24.3547 35.1574 24.8033 35.1574 25.6446C35.1574 26.4858 34.5085 26.9344 33.2954 26.9344H31.5745Z" fill="#003C4C"/>
<path d="M47.232 25.7029V21.6931H45.4546V25.8431C45.4546 27.806 46.4702 28.5911 48.0219 28.5911C48.8118 28.5911 49.5171 28.2546 49.9685 27.834L50.3634 28.507H51.5765V21.6931H49.7992V25.7871C49.7992 26.5442 49.4607 27.105 48.5015 27.105C47.5705 27.0769 47.232 26.5442 47.232 25.7029Z" fill="#003C4C"/>
<path d="M68.4753 25.7029V21.6931H66.698V25.8431C66.698 27.806 67.7136 28.5911 69.2652 28.5911C70.0551 28.5911 70.7604 28.2546 71.2118 27.834L71.6068 28.507H72.8199V21.6931H71.0425V25.7871C71.0425 26.5442 70.704 27.105 69.7448 27.105C68.8138 27.0769 68.4753 26.5442 68.4753 25.7029Z" fill="#003C4C"/>
<path d="M104.84 18.8588H94.2606V40.6744H104.84V18.8588Z" fill="#003C4C"/>
<path d="M123.798 27.4393C126.083 26.0934 127.889 23.4295 127.861 20.5133C127.804 15.6062 123.431 12.1572 115.363 12.1572C109.692 12.1572 104.868 13.1947 104.868 13.1947V18.8309H116.125V40.6745H104.868V46.2265C104.868 46.2265 109.721 47.0958 116.04 47.0958C125.209 47.0958 130.061 42.4971 130.259 36.6367C130.371 32.2062 127.578 28.9816 123.798 27.4393Z" fill="#003C4C"/>
<path d="M94.2735 18.809H104.849V40.6527H94.2735V18.809Z" fill="#75BE00"/>
</svg>
