<svg width="160" height="58" viewBox="0 0 160 58" fill="none" xmlns="http://www.w3.org/2000/svg">
<g clip-path="url(#clip0_17040_10123)">
<mask id="mask0_17040_10123" style="mask-type:luminance" maskUnits="userSpaceOnUse" x="44" y="18" width="105" height="23">
<path d="M44.7551 18.4727H148.055V40.7272H44.7551V18.4727Z" fill="white"/>
</mask>
<g mask="url(#mask0_17040_10123)">
<mask id="mask1_17040_10123" style="mask-type:luminance" maskUnits="userSpaceOnUse" x="44" y="18" width="105" height="23">
<path d="M44.7551 18.4727H148.055V40.7272H44.7551V18.4727Z" fill="white"/>
</mask>
<g mask="url(#mask1_17040_10123)">
<path d="M99.808 22.8363H101.855V34.8908H99.808V22.8363ZM92.3385 22.5636C91.0106 22.5636 89.7934 22.9999 88.7974 23.8181V22.8363H86.7502V34.8908H88.7974V28.0727C88.7974 26.109 90.402 24.5817 92.3385 24.5817C94.275 24.5817 95.8796 26.1636 95.8796 28.0727V34.8908H97.9268V28.0727C97.9268 25.0181 95.437 22.5636 92.3385 22.5636ZM82.6558 22.7817H84.703V34.3999C84.6477 37.8363 81.8259 40.6181 78.3401 40.6727C75.5737 40.7272 73.0285 38.9272 72.2539 36.309H74.4671C75.1864 37.7817 76.6803 38.709 78.3401 38.6545C80.7193 38.5999 82.6005 36.6908 82.7112 34.3454V33.3636C80.1107 35.709 76.0716 35.5999 73.6925 33.0363C71.3133 30.4727 71.4239 26.4908 74.0244 24.1454C76.4589 21.909 80.2767 21.909 82.7112 24.1454L82.6558 22.7817ZM82.6558 28.8363C82.6558 26.4908 80.7193 24.5272 78.3401 24.5272C75.961 24.5272 73.9691 26.4363 73.9691 28.7817C73.9691 31.1272 75.9056 33.0908 78.3401 33.0908C80.7193 33.0908 82.6558 31.1817 82.6558 28.8363ZM51.118 24.5272C52.7779 24.5272 54.3271 25.509 55.0464 26.9817H57.2043C56.2083 23.6545 52.6119 21.7454 49.2368 22.7817C45.8617 23.7636 43.9252 27.309 44.9764 30.6363C46.0277 33.9636 49.5688 35.8727 52.9439 34.8363C54.9911 34.2363 56.5956 32.6545 57.2043 30.6363H55.0464C54.0505 32.7636 51.45 33.6908 49.2921 32.709C47.1343 31.7272 46.1937 29.1636 47.1896 27.0363C47.9089 25.509 49.4028 24.5272 51.118 24.5272ZM70.9813 28.8363C70.9813 32.3272 68.1042 35.109 64.6184 35.109C61.0773 35.109 58.2555 32.2727 58.2555 28.8363C58.2555 25.3999 61.022 22.5636 64.5631 22.5636C68.1042 22.5636 70.9813 25.3454 70.9813 28.8363ZM68.9341 28.8363C68.9341 26.4908 66.9976 24.5272 64.6184 24.5272C62.2392 24.5272 60.2474 26.4363 60.2474 28.7817C60.2474 31.1272 62.1839 33.0908 64.5631 33.0908C66.9976 33.0908 68.9341 31.1817 68.9341 28.8363ZM135.606 22.5636C134.278 22.5636 133.061 22.9999 132.065 23.8181V22.8363H130.018V34.8908H132.065V28.0727C132.065 26.109 133.67 24.5272 135.606 24.5272C137.598 24.5272 139.203 26.109 139.203 28.0181V34.8363H141.25V28.0727C141.194 25.0181 138.705 22.5636 135.606 22.5636ZM125.924 22.8363H127.971V34.8908H125.924V33.4727C123.323 35.8181 119.284 35.709 116.905 33.1454C114.526 30.5817 114.636 26.5999 117.237 24.2545C118.399 23.1636 119.948 22.5636 121.553 22.5636C123.157 22.5636 124.706 23.1636 125.924 24.2545V22.8363ZM125.924 28.8363C125.924 26.4908 123.987 24.5817 121.553 24.5817C119.173 24.5817 117.237 26.4908 117.237 28.8908C117.237 31.2363 119.173 33.1454 121.553 33.1454C123.987 33.0908 125.924 31.1817 125.924 28.8363ZM148 24.7999V22.7817H144.957V19.509H142.91V30.8545C142.91 33.0908 144.736 34.8908 147.004 34.8908H148V32.8727H147.004C145.897 32.8727 144.957 31.9454 144.957 30.8545V24.7999H148ZM100.804 18.4727C100.029 18.4727 99.476 19.0727 99.476 19.7817C99.476 20.5454 100.085 21.0908 100.804 21.0908C101.579 21.0908 102.132 20.4908 102.132 19.7817C102.187 19.0727 101.579 18.4727 100.804 18.4727C100.859 18.4727 100.859 18.4727 100.804 18.4727ZM114.083 22.8363H103.902V24.8545H111.427L103.902 32.8727V34.8908H114.083V32.8727H106.503L114.028 24.8545L114.083 22.8363Z" fill="#000048"/>
</g>
</g>
<mask id="mask2_17040_10123" style="mask-type:luminance" maskUnits="userSpaceOnUse" x="12" y="17" width="29" height="24">
<path d="M12 17H40.8267V41H12V17Z" fill="white"/>
</mask>
<g mask="url(#mask2_17040_10123)">
<mask id="mask3_17040_10123" style="mask-type:luminance" maskUnits="userSpaceOnUse" x="12" y="29" width="18" height="12">
<path d="M12 29L20.4654 41L29.2075 35.8182L24.2832 29H12Z" fill="white"/>
</mask>
<g mask="url(#mask3_17040_10123)">
<path d="M12 29H29.2075V41H12V29Z" fill="url(#paint0_linear_17040_10123)"/>
</g>
<mask id="mask4_17040_10123" style="mask-type:luminance" maskUnits="userSpaceOnUse" x="20" y="29" width="21" height="12">
<path d="M20.4655 41H32.5273L40.8267 29L20.4655 41Z" fill="white"/>
</mask>
<g mask="url(#mask4_17040_10123)">
<path d="M20.4655 29H40.8267V41H20.4655V29Z" fill="url(#paint1_linear_17040_10123)"/>
</g>
<mask id="mask5_17040_10123" style="mask-type:luminance" maskUnits="userSpaceOnUse" x="12" y="17" width="18" height="12">
<path d="M20.4654 17L12 29H24.2832L29.2075 22.1818L20.4654 17Z" fill="white"/>
</mask>
<g mask="url(#mask5_17040_10123)">
<path d="M12 17H29.2075V29H12V17Z" fill="url(#paint2_linear_17040_10123)"/>
</g>
<mask id="mask6_17040_10123" style="mask-type:luminance" maskUnits="userSpaceOnUse" x="20" y="17" width="21" height="12">
<path d="M20.4655 17L40.8267 29L32.5273 17H20.4655Z" fill="white"/>
</mask>
<g mask="url(#mask6_17040_10123)">
<path d="M20.4655 17H40.8267V29H20.4655V17Z" fill="url(#paint3_linear_17040_10123)"/>
</g>
</g>
</g>
<defs>
<linearGradient id="paint0_linear_17040_10123" x1="12.0041" y1="34.9865" x2="29.2151" y2="34.9865" gradientUnits="userSpaceOnUse">
<stop stop-color="#3D54CE"/>
<stop offset="1" stop-color="#35CACF"/>
</linearGradient>
<linearGradient id="paint1_linear_17040_10123" x1="20.4614" y1="34.9865" x2="40.849" y2="34.9865" gradientUnits="userSpaceOnUse">
<stop stop-color="#13457D"/>
<stop offset="1" stop-color="#279698"/>
</linearGradient>
<linearGradient id="paint2_linear_17040_10123" x1="11.9972" y1="22.991" x2="29.2222" y2="22.991" gradientUnits="userSpaceOnUse">
<stop stop-color="#090086"/>
<stop offset="1" stop-color="#2F96A9"/>
</linearGradient>
<linearGradient id="paint3_linear_17040_10123" x1="20.4614" y1="22.991" x2="40.849" y2="22.991" gradientUnits="userSpaceOnUse">
<stop stop-color="#3B62CA"/>
<stop offset="1" stop-color="#93DFE3"/>
</linearGradient>
<clipPath id="clip0_17040_10123">
<rect width="136" height="24" fill="white" transform="translate(12 17)"/>
</clipPath>
</defs>
</svg>
