<svg width="160" height="58" viewBox="0 0 160 58" fill="none" xmlns="http://www.w3.org/2000/svg">
<path d="M112.316 10.5209H47.4932V47.7627H112.316V10.5209Z" fill="#1F458A"/>
<path d="M112.124 10.7749V47.5074H47.7482V10.7749H112.124ZM112.571 10.3292H47.302V47.953H112.571V10.3292Z" fill="white"/>
<path d="M87.5212 24.8445C88.3498 23.7622 89.1146 21.2158 87.8399 19.3696C87.0113 18.1601 85.6727 17.5234 84.3342 17.2051C80.6374 16.3775 76.813 17.5234 73.5624 19.306C70.7578 20.7702 67.9533 22.8073 66.1049 25.4811C65.4675 26.3723 64.9576 27.3909 64.6389 28.6641C64.3202 29.8737 64.1927 31.2106 64.384 32.4838C65.34 39.2319 72.6063 41.7147 78.3428 41.46C82.2308 41.3327 86.2464 40.2505 89.6883 38.277C92.7478 36.5581 95.7435 34.0753 97.6557 30.9559C97.7194 30.8286 98.4205 29.6191 98.6755 29.8101C98.9304 30.001 98.2293 31.1469 98.1018 31.2743C96.1259 34.521 93.4489 37.3221 90.3894 39.4865C87.1387 41.7783 83.3144 43.2426 79.4263 43.8155C76.0482 44.2611 72.5425 44.1338 69.3556 42.8606C66.6786 41.7784 64.384 39.8685 63.2367 37.0674C62.2168 34.521 62.4718 31.6562 63.4279 29.1098C66.0412 22.4254 71.9689 17.2051 78.534 15.1043C81.5297 14.1494 85.7365 13.5765 88.4135 15.7409C91.7279 18.2874 90.3257 22.7437 87.5212 24.8445Z" fill="white"/>
<path d="M80.0637 21.0242L80.956 20.3876H79.8725L79.5538 19.369L79.2351 20.3876H78.1515L78.9801 21.0242L78.6614 22.0428L79.5538 21.4062L80.3824 22.0428L80.0637 21.0242Z" fill="#FDCB0E"/>
<path d="M84.5255 22.1708L85.3541 21.5978H84.3343L83.9518 20.5793L83.6331 21.5978H82.5496L83.4419 22.1708L83.1232 23.1894L83.9518 22.6164L84.8442 23.1894L84.5255 22.1708Z" fill="#FDCB0E"/>
<path d="M87.7762 25.4812L88.6048 24.8446L87.5212 24.8445L87.2025 23.826L86.8838 24.8446H85.8003L86.6926 25.4812L86.3739 26.4997L87.2025 25.8631L88.0949 26.4997L87.7762 25.4812Z" fill="#FDCB0E"/>
<path d="M88.9236 29.9371L89.8159 29.3005H88.7323L88.4136 28.2819L88.0312 29.3005H87.0114L87.9037 29.9371L87.5213 30.9557L88.4136 30.319L89.306 30.9557L88.9236 29.9371Z" fill="#FDCB0E"/>
<path d="M87.7762 34.394L88.6048 33.7574H87.5212L87.2025 32.7388L86.8838 33.7574H85.8003L86.6926 34.394L86.3739 35.4126L87.2025 34.776L88.0949 35.4126L87.7762 34.394Z" fill="#FDCB0E"/>
<path d="M84.5255 37.576L85.3541 37.0031H84.3343L83.9518 35.9845L83.6331 37.0031H82.5496L83.4419 37.576L83.1232 38.6583L83.9518 38.0217L84.8442 38.6583L84.5255 37.576Z" fill="#FDCB0E"/>
<path d="M80.0637 38.8499L80.956 38.2133H79.8725L79.5538 37.1947L79.2351 38.2133H78.1515L78.9801 38.8499L78.6614 39.8685L79.5538 39.2319L80.3824 39.8685L80.0637 38.8499Z" fill="#FDCB0E"/>
<path d="M75.6658 37.576L76.4944 37.0031H75.4108L75.1559 35.9845L74.7734 37.0031H73.7536L74.5822 37.576L74.2635 38.6583L75.1559 38.0217L75.9845 38.6583L75.6658 37.576Z" fill="#FDCB0E"/>
<path d="M72.4151 34.394L73.3074 33.7574H72.2239L71.9052 32.7388L71.5865 33.7574H70.5029L71.3953 34.394L71.0128 35.4126L71.9052 34.776L72.7975 35.4126L72.4151 34.394Z" fill="#FDCB0E"/>
<path d="M71.2678 29.9371L72.0964 29.3005H71.0129L70.6942 28.2819L70.3755 29.3005H69.3557L70.1843 29.9371L69.8656 30.9557L70.6942 30.319L71.5865 30.9557L71.2678 29.9371Z" fill="#FDCB0E"/>
<path d="M72.4151 25.4812L73.3074 24.8446H72.2239L71.9052 23.826L71.5865 24.8446H70.5029L71.3953 25.4812L71.0128 26.4997L71.9052 25.8631L72.7975 26.4997L72.4151 25.4812Z" fill="#FDCB0E"/>
<path d="M75.6658 22.1708L76.4944 21.5978H75.4108L75.1559 20.5793L74.7734 21.5978H73.7536L74.5822 22.1708L74.2635 23.1894L75.1559 22.6164L75.9845 23.1894L75.6658 22.1708Z" fill="#FDCB0E"/>
<path d="M86.6926 25.4812C85.4816 26.9454 83.4419 28.2827 81.0198 29.1103C79.4264 29.6832 77.8966 29.9379 76.4306 29.9379L77.5142 27.7734C80.9561 27.837 85.3541 26.5634 86.6926 25.4812Z" fill="white"/>
<path d="M49.6601 54.0661C49.0228 54.0661 48.5129 53.8752 48.1942 53.4932C47.8755 53.1112 47.6842 52.6019 47.6842 51.9017C47.6842 51.2014 47.8755 50.6921 48.2579 50.3101C48.5766 49.9282 49.0865 49.7372 49.7876 49.7372C50.1701 49.7372 50.6162 49.8008 51.1261 49.9282V50.5011C50.5525 50.3101 50.1063 50.1828 49.7876 50.1828C49.3415 50.1828 48.959 50.3738 48.7041 50.6284C48.4491 50.9467 48.3216 51.3287 48.3216 51.9017C48.3216 52.4109 48.4491 52.8566 48.7041 53.1112C48.959 53.4295 49.3415 53.5568 49.7876 53.5568C50.1701 53.5568 50.6162 53.4295 51.0624 53.2385V53.7478C50.6162 53.9388 50.1063 54.0661 49.6601 54.0661Z" fill="black"/>
<path d="M53.4207 54.0661C52.8471 54.0661 52.3372 53.8752 52.0185 53.4932C51.6998 53.1112 51.5086 52.5383 51.5086 51.9017C51.5086 51.265 51.6998 50.6921 52.0185 50.3101C52.3372 49.9282 52.8471 49.7372 53.4207 49.7372C53.9944 49.7372 54.5043 49.9282 54.823 50.3101C55.1417 50.6921 55.3966 51.265 55.3966 51.9017C55.3966 52.6019 55.2054 53.1112 54.823 53.4932C54.5043 53.8752 54.0581 54.0661 53.4207 54.0661ZM53.4207 53.6842C53.8669 53.6842 54.1856 53.4932 54.3768 53.2385C54.568 52.9202 54.6955 52.5383 54.6955 51.9653C54.6955 51.3924 54.568 51.0104 54.3768 50.6921C54.1218 50.3738 53.8032 50.2465 53.4207 50.2465C52.9745 50.2465 52.7196 50.4374 52.4646 50.6921C52.2734 51.0104 52.1459 51.3924 52.1459 51.9653C52.1459 52.5383 52.2734 52.9202 52.4646 53.2385C52.7196 53.4932 53.0383 53.6842 53.4207 53.6842Z" fill="black"/>
<path d="M56.544 53.9384V49.8641H57.1176L59.221 53.0472V49.8641H59.7309V54.0021H59.1573L57.0539 50.819V54.0021L56.544 53.9384Z" fill="black"/>
<path d="M61.7068 54.0653C61.3881 54.0653 61.0694 54.0016 60.6232 53.8743V53.3013C61.0694 53.4923 61.4518 53.6197 61.7705 53.6197C61.9617 53.6197 62.2167 53.556 62.3442 53.4287C62.4717 53.3014 62.5354 53.1104 62.5354 52.983C62.5354 52.7921 62.4717 52.6647 62.4079 52.5374C62.3442 52.4101 62.153 52.2828 61.898 52.1554L61.5793 51.9645C61.2606 51.7735 61.0057 51.5825 60.8144 51.3915C60.687 51.2005 60.6232 51.0096 60.6232 50.7549C60.6232 50.4366 60.7507 50.182 60.9419 49.991C61.1331 49.8 61.4518 49.6727 61.8343 49.6727C62.153 49.6727 62.5354 49.7363 62.8541 49.8637V50.4366C62.4079 50.2456 62.0892 50.182 61.898 50.182C61.7068 50.182 61.5156 50.2456 61.3881 50.3729C61.2606 50.5003 61.1969 50.6276 61.1969 50.8186C61.1969 50.9459 61.2606 51.0732 61.3244 51.2005C61.3881 51.2642 61.5793 51.3915 61.898 51.5825L62.2167 51.7735C62.5354 51.9645 62.7904 52.1554 62.9816 52.3464C63.109 52.5374 63.1728 52.7284 63.1728 52.983C63.1728 53.3013 63.0453 53.6197 62.7904 53.8106C62.5354 53.938 62.153 54.0653 61.7068 54.0653Z" fill="black"/>
<path d="M64.3201 53.9384V49.8641H66.6784V50.3098H64.9575V51.6466H66.4234V52.0923H64.9575V53.5565H66.8059V54.0021C66.8059 53.9384 64.3201 53.9384 64.3201 53.9384Z" fill="black"/>
<path d="M67.6982 53.9384V49.8641H68.2719V54.0021L67.6982 53.9384Z" fill="black"/>
<path d="M69.7379 53.9384V49.8641H70.3116V53.5565H72.16V54.0021L69.7379 53.9384Z" fill="black"/>
<path d="M75.0919 53.9384V49.8641H76.4941C76.9403 49.8641 77.259 49.9278 77.514 49.9915C77.7689 50.0551 77.9601 50.2461 78.2151 50.4371C78.5338 50.7554 78.6613 51.2647 78.6613 51.774C78.6613 52.4742 78.47 52.9835 78.0876 53.3655C77.7052 53.7475 77.1953 53.9384 76.5579 53.9384H75.0919ZM75.6655 53.5565H76.4304C77.004 53.5565 77.3865 53.4291 77.5777 53.1108C77.8327 52.7925 77.9601 52.4106 77.9601 51.9013C77.9601 51.4557 77.8327 51.0737 77.6414 50.7554C77.514 50.5644 77.3227 50.4371 77.1315 50.4371C76.9403 50.3734 76.6216 50.3734 76.2392 50.3734H75.793V53.6201L75.6655 53.5565Z" fill="black"/>
<path d="M79.4899 53.9384V49.8641H81.8483V50.3098H80.1273V51.6466H81.5933V52.0923H80.1273V53.5565H81.9758V54.0021C81.912 53.9384 79.4899 53.9384 79.4899 53.9384Z" fill="black"/>
<path d="M84.8441 53.9384V49.8641H85.4177V53.5565H87.2661V54.0021L84.8441 53.9384Z" fill="black"/>
<path d="M88.2859 51.1372V50.9463C88.3497 50.8826 88.4772 50.8826 88.4772 50.7553C88.5409 50.6916 88.5409 50.5006 88.5409 50.3096V50.246H88.2859V49.5457H88.9871V50.1187C88.9871 50.437 88.9233 50.6916 88.7959 50.8189C88.6684 51.0099 88.5409 51.1372 88.2859 51.1372Z" fill="black"/>
<path d="M90.2618 53.9384V49.8641H92.6201V50.3098H90.8354V51.6466H92.3014V52.0923H90.8354V53.5565H92.6838V54.0021C92.7476 53.9384 90.2618 53.9384 90.2618 53.9384Z" fill="black"/>
<path d="M93.64 49.8641H94.2137V52.4742C94.2137 52.9199 94.2774 53.1745 94.4049 53.3655C94.5961 53.5565 94.7873 53.6838 95.106 53.6838C95.4247 53.6838 95.6797 53.6201 95.8072 53.4291C95.9346 53.2382 95.9984 52.9835 95.9984 52.5379V49.9278H96.5083V52.5379C96.5083 53.1108 96.3808 53.4928 96.1896 53.7475C95.9346 54.0021 95.6159 54.1294 95.106 54.1294C94.5961 54.1294 94.2137 54.0021 93.9587 53.7475C93.7038 53.4928 93.5763 53.0472 93.5763 52.5379L93.64 49.8641Z" fill="black"/>
<path d="M97.5918 53.9384V49.8641H98.8666C99.249 49.8641 99.5677 49.9278 99.8227 50.1188C100.014 50.3098 100.141 50.5644 100.141 50.8827C100.141 51.4557 99.8227 51.8376 99.3128 52.0923L100.715 54.0021H100.014L98.8029 52.2832H98.2292V54.0021L97.5918 53.9384ZM98.1017 51.774H98.2929C98.9941 51.774 99.3765 51.4557 99.3765 50.9464C99.3765 50.5007 99.0578 50.3098 98.4204 50.3098H98.038L98.1017 51.774Z" fill="black"/>
<path d="M103.073 54.0661C102.5 54.0661 101.99 53.8752 101.671 53.4932C101.352 53.1112 101.161 52.5383 101.161 51.9017C101.161 51.265 101.352 50.6921 101.671 50.3101C101.99 49.9282 102.5 49.7372 103.073 49.7372C103.647 49.7372 104.157 49.9282 104.476 50.3101C104.794 50.6921 105.049 51.265 105.049 51.9017C105.049 52.6019 104.858 53.1112 104.476 53.4932C104.157 53.8752 103.711 54.0661 103.073 54.0661ZM103.137 53.6842C103.583 53.6842 103.902 53.4932 104.093 53.2385C104.284 52.9839 104.412 52.5383 104.412 51.9653C104.412 51.3924 104.284 51.0104 104.093 50.6921C103.838 50.3738 103.52 50.2465 103.137 50.2465C102.691 50.2465 102.436 50.4374 102.181 50.6921C101.99 51.0104 101.862 51.3924 101.862 51.9653C101.862 52.5383 101.99 52.9202 102.181 53.2385C102.372 53.4932 102.691 53.6842 103.137 53.6842Z" fill="black"/>
<path d="M106.196 53.9384V49.8641H107.344C107.854 49.8641 108.172 49.9278 108.427 50.1188C108.619 50.3098 108.746 50.5644 108.746 50.9464C108.746 51.392 108.555 51.7103 108.3 51.9649C107.981 52.2196 107.599 52.3469 107.089 52.3469H106.834V54.0021L106.196 53.9384ZM106.834 51.9013H107.089C107.408 51.9013 107.726 51.8376 107.917 51.6466C108.109 51.4557 108.236 51.2647 108.236 50.9464C108.236 50.6917 108.172 50.5007 108.045 50.4371C107.854 50.3734 107.662 50.2461 107.28 50.2461H106.898C106.834 50.3098 106.834 51.9013 106.834 51.9013Z" fill="black"/>
<path d="M109.638 53.9384V49.8641H111.997V50.3098H110.276V51.6466H111.742V52.0923H110.276V53.5565H112.124V54.0021C112.124 53.9384 109.638 53.9384 109.638 53.9384Z" fill="black"/>
<path d="M49.6603 8.73814C49.0229 8.73814 48.513 8.54716 48.1943 8.16519C47.8756 7.78322 47.6844 7.27393 47.6844 6.57366C47.6844 5.87339 47.8756 5.3641 48.2581 4.98213C48.5768 4.60016 49.0867 4.40918 49.7878 4.40918C50.1702 4.40918 50.6164 4.47284 51.1263 4.60017V5.17312C50.5527 4.98213 50.1065 4.85481 49.7878 4.85481C49.3416 4.85481 48.9592 5.04579 48.7042 5.30044C48.4493 5.61874 48.3218 6.00071 48.3218 6.57366C48.3218 7.08295 48.4493 7.52858 48.7042 7.78322C48.9592 8.10153 49.3416 8.22885 49.7878 8.22885C50.1702 8.22885 50.6164 8.10153 51.0626 7.91054V8.41984C50.6164 8.61082 50.1065 8.73814 49.6603 8.73814Z" fill="black"/>
<path d="M53.6758 8.73824C53.1021 8.73824 52.5922 8.54726 52.2735 8.16529C51.9548 7.78332 51.7636 7.21037 51.7636 6.57376C51.7636 5.93715 51.9548 5.3642 52.2735 4.98223C52.5922 4.60027 53.1021 4.40928 53.6758 4.40928C54.2494 4.40928 54.7594 4.60027 55.0781 4.98223C55.3967 5.3642 55.6517 5.93715 55.6517 6.57376C55.6517 7.27404 55.4605 7.78332 55.0781 8.16529C54.6956 8.54726 54.2494 8.73824 53.6758 8.73824ZM53.6758 8.29262C54.122 8.29262 54.4407 8.10163 54.6319 7.84699C54.8231 7.52868 54.9506 7.14671 54.9506 6.57376C54.9506 6.00081 54.8231 5.61884 54.6319 5.30054C54.3769 4.98223 54.0582 4.85491 53.6758 4.85491C53.2296 4.85491 52.9747 5.04589 52.7197 5.30054C52.5285 5.61884 52.401 6.00081 52.401 6.57376C52.401 7.14671 52.5285 7.52868 52.7197 7.84699C52.9109 8.16529 53.2296 8.29262 53.6758 8.29262Z" fill="black"/>
<path d="M56.9903 4.53624H57.5639V7.14635C57.5639 7.59198 57.6277 7.84662 57.7551 8.03761C57.9464 8.22859 58.1376 8.35591 58.4563 8.35591C58.775 8.35591 59.0299 8.29225 59.1574 8.10127C59.2849 7.91028 59.3486 7.65564 59.3486 7.21001V4.5999H59.8585V7.21001C59.8585 7.78296 59.731 8.16493 59.5398 8.41957C59.3486 8.73788 58.9662 8.8652 58.4563 8.8652C57.9463 8.8652 57.5639 8.73788 57.309 8.48323C57.054 8.22859 56.9265 7.78296 56.9265 7.27367L56.9903 4.53624Z" fill="black"/>
<path d="M61.1333 8.61074V4.47276H61.7069L63.8103 7.65582V4.47276H64.3202V8.61074H63.7465L61.6432 5.42768V8.61074H61.1333Z" fill="black"/>
<path d="M67.5071 8.73824C66.8697 8.73824 66.3598 8.54726 66.0411 8.16529C65.7224 7.78332 65.5312 7.27404 65.5312 6.57376C65.5312 5.87349 65.7224 5.3642 66.1048 4.98223C66.4235 4.60027 66.9334 4.40928 67.6346 4.40928C68.017 4.40928 68.4632 4.47294 68.9731 4.60027V5.17322C68.3357 4.98224 67.8895 4.85491 67.5708 4.85491C67.1247 4.85491 66.7422 5.04589 66.4873 5.30054C66.2323 5.61884 66.1048 6.00081 66.1048 6.57376C66.1048 7.08305 66.2323 7.52868 66.4873 7.78333C66.7422 8.10163 67.1247 8.22895 67.5708 8.22895C67.9533 8.22895 68.3994 8.10163 68.8456 7.91065V8.41994C68.4632 8.61092 67.9533 8.73824 67.5071 8.73824Z" fill="black"/>
<path d="M69.8018 8.61074V4.47276H70.3754V8.61074H69.8018Z" fill="black"/>
<path d="M72.0327 8.61074V4.47276H72.6063V8.16511H74.4548V8.61074C74.5185 8.61074 72.0327 8.61074 72.0327 8.61074Z" fill="black"/>
<path d="M79.5538 8.73824C78.9801 8.73824 78.4702 8.54726 78.1515 8.16529C77.8328 7.78332 77.6416 7.21037 77.6416 6.57376C77.6416 5.93715 77.8328 5.3642 78.1515 4.98223C78.4702 4.60027 78.9801 4.40928 79.5538 4.40928C80.1274 4.40928 80.6373 4.60027 80.956 4.98223C81.2747 5.3642 81.5297 5.93715 81.5297 6.57376C81.5297 7.27404 81.3385 7.78332 80.956 8.16529C80.6373 8.54726 80.1912 8.73824 79.5538 8.73824ZM79.6175 8.29262C80.0637 8.29262 80.3824 8.10163 80.5736 7.84699C80.7648 7.52868 80.8923 7.14671 80.8923 6.57376C80.8923 6.00081 80.7648 5.61884 80.5736 5.30054C80.3186 4.98223 79.9999 4.85491 79.6175 4.85491C79.1713 4.85491 78.9164 5.04589 78.6614 5.30054C78.4702 5.61884 78.3427 6.00081 78.3427 6.57376C78.3427 7.14671 78.4702 7.52868 78.6614 7.84699C78.8526 8.16529 79.1713 8.29262 79.6175 8.29262Z" fill="black"/>
<path d="M82.932 8.61074V4.47276H85.2903V4.91839H83.5694V6.25527H85.0354V6.7009H83.5694V8.54707L82.932 8.61074Z" fill="black"/>
<path d="M88.7958 8.61074V4.47276H91.1542V4.91839H89.4332V6.25527H90.8992V6.7009H89.4332V8.16511H91.2817V8.61074H88.7958Z" fill="black"/>
<path d="M92.4291 4.53624H93.0027V7.14635C93.0027 7.59198 93.0664 7.84662 93.1939 8.03761C93.3851 8.22859 93.5764 8.35591 93.8951 8.35591C94.2138 8.35591 94.4687 8.29225 94.5962 8.10127C94.7237 7.91028 94.7874 7.65564 94.7874 7.21001V4.5999H95.2973V7.21001C95.2973 7.78296 95.1698 8.16493 94.9786 8.41957C94.7237 8.67422 94.405 8.80154 93.8951 8.80154C93.3851 8.80154 93.0027 8.67422 92.7478 8.41957C92.4928 8.16493 92.3653 7.7193 92.3653 7.21001L92.4291 4.53624Z" fill="black"/>
<path d="M96.5721 8.61074V4.47276H97.8468C98.2293 4.47276 98.548 4.53642 98.8029 4.7274C98.9941 4.91839 99.1216 5.17303 99.1216 5.49134C99.1216 6.06429 98.8029 6.44626 98.293 6.7009L99.6953 8.61074H98.9941L97.7831 6.89188H97.2094V8.61074H96.5721ZM97.1457 6.44626H97.3369C98.038 6.44626 98.4205 6.12795 98.4205 5.61866C98.4205 5.17303 98.1018 4.98205 97.4644 4.98205H97.082L97.1457 6.44626Z" fill="black"/>
<path d="M102.309 8.73824C101.735 8.73824 101.225 8.54726 100.906 8.16529C100.588 7.78332 100.396 7.21037 100.396 6.57376C100.396 5.93715 100.588 5.3642 100.906 4.98223C101.225 4.60027 101.735 4.40928 102.309 4.40928C102.882 4.40928 103.392 4.60027 103.711 4.98223C104.03 5.3642 104.285 5.93715 104.285 6.57376C104.285 7.27404 104.093 7.78332 103.711 8.16529C103.392 8.54726 102.946 8.73824 102.309 8.73824ZM102.372 8.29262C102.819 8.29262 103.137 8.10163 103.328 7.84699C103.52 7.52868 103.647 7.14671 103.647 6.57376C103.647 6.00081 103.52 5.61884 103.328 5.30054C103.074 4.98223 102.755 4.85491 102.372 4.85491C101.926 4.85491 101.671 5.04589 101.416 5.30054C101.225 5.61884 101.098 6.00081 101.098 6.57376C101.098 7.14671 101.225 7.52868 101.416 7.84699C101.608 8.16529 101.926 8.29262 102.372 8.29262Z" fill="black"/>
<path d="M105.687 8.61074V4.47276H106.834C107.344 4.47276 107.663 4.53642 107.918 4.7274C108.109 4.91839 108.236 5.17303 108.236 5.555C108.236 6.00063 108.045 6.31893 107.79 6.57358C107.471 6.82822 107.089 6.95554 106.579 6.95554H106.324V8.61074H105.687ZM106.324 6.57358H106.579C106.898 6.57358 107.216 6.50992 107.408 6.31893C107.599 6.12795 107.726 5.93697 107.726 5.61866C107.726 5.36402 107.663 5.17303 107.535 5.10937C107.344 5.04571 107.153 4.91839 106.77 4.91839H106.388C106.324 4.91839 106.324 6.57358 106.324 6.57358Z" fill="black"/>
<path d="M109.32 8.61074V4.47276H111.678V4.91839H109.957V6.25527H111.423V6.7009H109.957V8.16511H111.806V8.61074H109.32Z" fill="black"/>
</svg>
