<svg width="160" height="58" viewBox="0 0 160 58" fill="none" xmlns="http://www.w3.org/2000/svg">
<g clip-path="url(#clip0_17040_10626)">
<mask id="mask0_17040_10626" style="mask-type:luminance" maskUnits="userSpaceOnUse" x="-2" y="-50" width="478" height="618">
<path d="M-1.98364 567.892H475.13V-49.5488H-1.98364V567.892Z" fill="white"/>
</mask>
<g mask="url(#mask0_17040_10626)">
<mask id="mask1_17040_10626" style="mask-type:luminance" maskUnits="userSpaceOnUse" x="36" y="11" width="88" height="36">
<path d="M36.2775 46.6884H123.781V11.5273H36.2775V46.6884Z" fill="white"/>
</mask>
<g mask="url(#mask1_17040_10626)">
<path d="M109.873 32.729C109.846 32.5645 109.846 32.4214 110.665 32.1656C111.481 31.9128 113.467 31.2398 114.673 30.5729C115.879 29.8999 116.08 29.8055 116.363 29.9943C116.646 30.18 116.564 30.6368 116.564 30.9596V34.2303C117.005 33.5055 118.455 31.0936 119.606 30.3841C120.51 29.8237 120.83 29.7781 121.391 29.7659C122.064 29.7537 123.653 30.1679 123.723 31.8458C123.778 33.1583 122.81 33.6852 122.195 33.603C121.701 33.5329 121.348 33.0792 121.056 32.6224C120.76 32.1595 120.291 31.8854 119.822 32.0438C119.353 32.2052 116.725 33.9105 116.576 36.3346C116.469 38.1191 116.576 43.6829 116.576 43.6829C116.576 44.5265 116.899 44.8523 117.276 45.0777C117.651 45.3061 119.03 45.3182 119.417 45.373C119.81 45.4279 119.795 45.5192 119.795 45.641C119.795 45.7598 119.795 45.8177 119.448 45.8177H110.208C109.913 45.8177 109.794 45.7598 109.794 45.5862C109.794 45.3456 110.181 45.3883 110.476 45.3456C110.772 45.3061 112.334 45.434 112.782 44.6483C113.11 44.1336 113.071 43.3053 113.071 43.3053L113.025 33.5329C113.025 32.7442 112.791 32.6285 112.574 32.5036C112.355 32.3788 111.993 32.3118 111.228 32.5706C110.507 32.8081 110.01 33.0304 109.873 32.729Z" fill="#211E1E"/>
<path d="M77.5595 32.7315C77.4347 32.4909 77.6661 32.3356 78.3513 32.156C79.1157 31.9519 80.7906 31.4434 82.1183 30.6912C83.4461 29.942 83.6745 29.8629 83.9547 29.9542C84.2379 30.0486 84.2105 30.545 84.2105 30.947V43.5911C84.2105 44.3006 84.3049 44.596 84.6246 44.8914C84.9474 45.1868 85.7514 45.3604 86.7959 45.3604C87.2679 45.3604 87.4141 45.4152 87.4141 45.6162C87.4141 45.8172 87.2679 45.8172 87.0791 45.8172H77.9097C77.6265 45.8172 77.5595 45.6954 77.5595 45.5766C77.5595 45.4274 77.6844 45.333 78.1107 45.333C78.4701 45.333 80.1298 45.4578 80.5074 44.596C80.6536 44.2671 80.7236 43.8073 80.7236 43.3779V33.3467C80.7236 32.5854 80.1328 32.2473 79.4507 32.4118C78.6528 32.5945 77.724 33.0452 77.5595 32.7315Z" fill="#211E1E"/>
<path d="M82.2341 23.9856C83.4796 23.9856 84.4907 22.9745 84.4907 21.732C84.4907 20.4865 83.4796 19.4785 82.2341 19.4785C80.9916 19.4785 79.9836 20.4865 79.9836 21.732C79.9836 22.9745 80.9916 23.9856 82.2341 23.9856Z" fill="#211E1E"/>
<path d="M93.255 38.3254C93.7088 42.4274 96.1511 45.6189 99.1781 45.083C102.211 44.547 103.731 41.6509 103.365 37.0129C102.991 32.2957 100.658 29.9417 97.5185 30.2249C94.2722 30.5203 92.7982 34.2204 93.255 38.3254ZM96.2577 29.5032C100.165 28.7723 105.722 29.6341 106.986 35.7491C108.247 41.8641 104.038 45.1195 100.387 45.9143C96.818 46.6878 90.7579 46.1366 89.6616 39.5588C88.6749 33.6539 92.9596 30.1183 96.2577 29.5032Z" fill="#211E1E"/>
<path d="M49.9996 44.8277H52.2653C60.6947 44.8277 62.9573 44.0451 65.9235 40.1044C68.8896 36.1638 69.2428 30.5057 69.2428 28.5932C69.2428 26.6808 68.7343 21.8814 65.7681 17.822C62.799 13.7626 57.8443 12.7089 53.5108 12.7089H49.9813C49.1439 12.7089 49.1012 13.0804 49.1012 13.6651V44.0846C49.1012 44.7485 49.3357 44.8277 49.9996 44.8277ZM36.2744 45.5403C36.2744 45.2327 36.6733 45.181 37.0449 45.1688C41.3357 45.047 42.1366 44.8977 42.6269 44.3892C42.8949 44.109 43.2877 43.8806 43.2877 41.892V14.5331C43.2877 12.0755 40.3033 12.4653 38.196 12.2491C37.456 12.176 37.3951 12.0755 37.3951 11.8593C37.3951 11.6461 37.5352 11.5426 37.9219 11.5273H55.2101C74.2189 11.5273 75.1903 25.423 75.1903 29.1292C75.1903 37.0926 69.925 45.8509 58.9193 45.8509H36.8287C36.5576 45.8509 36.2744 45.8144 36.2744 45.5403Z" fill="#211E1E"/>
</g>
</g>
</g>
<defs>
<clipPath id="clip0_17040_10626">
<rect width="93.1021" height="40.3442" fill="white" transform="translate(33.449 8.68359)"/>
</clipPath>
</defs>
</svg>
