<svg width="160" height="58" viewBox="0 0 160 58" fill="none" xmlns="http://www.w3.org/2000/svg">
<g clip-path="url(#clip0_17040_10274)">
<path d="M135.873 16.3652L133.488 25.3028C132.991 27.1664 134.109 29.1019 135.974 29.5987L144.888 31.9829C145.136 31.0135 144.688 29.9961 143.795 29.5507L138.976 27.1664C137.71 26.5703 136.963 25.2549 137.086 23.888L137.459 18.6022C137.534 17.5608 136.862 16.6153 135.87 16.3687" fill="#FABD00"/>
<path d="M138.408 25.3027C138.731 25.8749 139.252 26.2962 139.825 26.4949C139.972 26.5463 140.148 26.5463 140.296 26.4435L142.755 25.0287C143.699 24.4841 144.023 23.2405 143.427 22.2984C142.855 21.4043 141.665 21.1577 140.769 21.7024L138.359 23.0932C138.211 23.1686 138.111 23.3159 138.087 23.4906C137.963 24.0867 138.063 24.7307 138.411 25.3027" fill="#FABD00"/>
<path d="M119.234 25.0769L128.176 27.4612C130.038 27.9579 131.975 26.8412 132.472 24.9776L134.857 16.0674C133.888 15.8207 132.872 16.2661 132.424 17.1602L130.038 21.9767C129.442 23.2442 128.125 23.9876 126.759 23.8642L121.468 23.4908C120.424 23.4394 119.482 24.0869 119.234 25.0803" fill="#40C1EF"/>
<path d="M128.176 22.569C128.748 22.247 129.169 21.7263 129.368 21.1542C129.416 21.0069 129.416 20.8322 129.32 20.6814L127.904 18.2252C127.358 17.2831 126.114 16.9611 125.173 17.5538C124.28 18.1259 124.032 19.3146 124.577 20.2087L125.969 22.6169C126.045 22.7677 126.193 22.867 126.366 22.891C126.962 22.9903 127.607 22.891 128.179 22.569" fill="#40C1EF"/>
<path d="M127.976 41.6362L130.361 32.6986C130.858 30.8351 129.74 28.8995 127.875 28.4028L118.961 26.0186C118.713 26.9879 119.161 28.0054 120.054 28.4508L124.873 30.8351C126.138 31.4311 126.886 32.7465 126.762 34.1134L126.39 39.3992C126.314 40.4407 126.986 41.3861 127.979 41.6328" fill="#8FC745"/>
<path d="M125.442 32.6995C125.118 32.1274 124.597 31.7061 124.025 31.5074C123.877 31.456 123.701 31.456 123.553 31.5588L121.095 32.9736C120.15 33.5183 119.827 34.7618 120.423 35.7039C120.995 36.598 122.188 36.8447 123.081 36.3L125.49 34.9091C125.638 34.8337 125.739 34.6864 125.762 34.5117C125.887 33.9157 125.787 33.2716 125.439 32.6995" fill="#8FC745"/>
<path d="M144.616 32.9223L135.673 30.538C133.812 30.0412 131.875 31.158 131.378 33.0216L128.993 41.9318C129.962 42.1819 130.978 41.7331 131.427 40.839L133.812 36.0225C134.409 34.755 135.725 34.0116 137.09 34.1349L142.382 34.5084C143.426 34.5597 144.367 33.9123 144.619 32.9189" fill="#FF564D"/>
<path d="M135.673 35.4297C135.101 35.7517 134.681 36.2724 134.481 36.8445C134.432 36.9918 134.432 37.1665 134.53 37.3172L135.946 39.7769C136.491 40.7189 137.736 41.0444 138.677 40.4483C139.569 39.8763 139.817 38.6875 139.273 37.7934L137.88 35.3852C137.804 35.2345 137.656 35.1351 137.484 35.1111C136.887 35.0117 136.243 35.1111 135.67 35.4331" fill="#FF564D"/>
<path d="M46.8869 23.4877C48.0555 24.6045 48.6519 26.2934 48.6519 28.503V36.9678C48.6519 37.1425 48.5037 37.2898 48.3278 37.2898H45.3735C45.2012 37.2898 45.0495 37.1425 45.0495 36.9678V28.9757C45.0495 27.6363 44.7255 26.6188 44.105 25.9474C43.4845 25.2759 42.564 24.93 41.3989 24.93C40.082 24.93 39.0375 25.3273 38.2688 26.1221C37.5001 26.9169 37.1277 28.0576 37.1277 29.5477V36.9712C37.1277 37.1459 36.9795 37.2932 36.8037 37.2932H33.8736C33.6978 37.2932 33.5496 37.1459 33.5496 36.9712V22.9944C33.5496 22.1517 34.5665 21.703 35.1904 22.275L36.9795 23.9365C37.5759 23.2171 38.3206 22.6964 39.2134 22.323C40.1062 21.9496 41.1266 21.7783 42.2676 21.7783C44.1567 21.8023 45.7183 22.3504 46.8869 23.4912" fill="#252428"/>
<path d="M55.5295 36.4706C54.2644 35.7991 53.2681 34.8571 52.5752 33.6649C51.8547 32.4728 51.5066 31.1094 51.5066 29.5953C51.5066 28.0811 51.8547 26.7416 52.5752 25.5495C53.2957 24.3574 54.2644 23.4393 55.5054 22.7679C56.7463 22.0964 58.1873 21.7744 59.8006 21.7744C61.3139 21.7744 62.6308 22.0724 63.7752 22.6925C64.8197 23.2646 65.6368 24.0319 66.209 25.0493C66.2848 25.1966 66.2331 25.3954 66.0849 25.4707L63.8477 26.7622C63.6994 26.8376 63.5236 26.8136 63.4271 26.6629C63.0031 26.0668 62.5067 25.6214 61.9379 25.3234C61.2657 24.9774 60.5486 24.8027 59.7765 24.8027C58.4355 24.8027 57.3186 25.2481 56.4499 26.1182C55.5812 26.9883 55.1331 28.153 55.1331 29.5953C55.1331 31.0375 55.5812 32.2022 56.4499 33.0723C57.3186 33.9424 58.4355 34.3878 59.804 34.3878C60.6004 34.3878 61.3174 34.213 61.9655 33.8671C62.5377 33.5451 63.0341 33.0963 63.4547 32.5276C63.5547 32.4043 63.727 32.3529 63.8787 32.4283L66.0883 33.7198C66.2366 33.8191 66.2883 33.9938 66.2125 34.1685C65.6161 35.1859 64.8233 35.9807 63.7546 36.5528C62.6136 37.1728 61.2967 37.4949 59.804 37.4949C58.2149 37.4949 56.7981 37.1488 55.5329 36.4775" fill="#252428"/>
<path d="M79.4462 33.0963C80.3149 32.2262 80.7389 31.0614 80.7389 29.6192C80.7389 28.177 80.3149 27.0362 79.4462 26.1422C78.5775 25.272 77.4847 24.8267 76.1679 24.8267C74.8511 24.8267 73.7583 25.2755 72.9137 26.1422C72.0691 27.0123 71.6486 28.177 71.6486 29.6192C71.6486 31.0614 72.0691 32.2022 72.9137 33.0963C73.7583 33.9664 74.8511 34.4118 76.1679 34.4118C77.4847 34.4118 78.6017 33.9664 79.4462 33.0963ZM71.9968 36.4706C70.7557 35.7991 69.7871 34.8571 69.0907 33.6649C68.3944 32.4728 68.0497 31.1094 68.0497 29.5953C68.0497 28.0811 68.3978 26.7416 69.0907 25.5495C69.7871 24.3574 70.7557 23.4393 71.9968 22.7679C73.2378 22.0964 74.6305 21.7744 76.1955 21.7744C77.7605 21.7744 79.1774 22.0964 80.4183 22.7679C81.6593 23.4393 82.628 24.3574 83.3244 25.5495C84.0207 26.7416 84.3689 28.0811 84.3689 29.5953C84.3689 31.1094 84.0207 32.4489 83.3244 33.6649C82.628 34.8571 81.6593 35.7991 80.4183 36.4706C79.1774 37.142 77.7605 37.464 76.1955 37.464C74.6305 37.488 73.2412 37.142 71.9968 36.4706Z" fill="#252428"/>
<path d="M90.4979 37.2927C90.6702 37.2927 90.8219 37.1454 90.8219 36.9707V28.1084C90.8219 27.0396 91.146 26.2962 91.7906 25.7242C92.4352 25.1521 93.2316 24.8541 94.4967 24.8541C94.4967 24.8541 95.093 24.8541 95.7377 24.9294C95.9376 24.9533 96.0859 24.8061 96.0859 24.6074V22.2985C96.0859 22.1512 95.9617 22.0005 95.8135 21.9765C95.2171 21.8771 94.4967 21.8018 93.8521 21.8018C91.6665 21.8018 90.2014 22.3464 89.0087 23.4153C87.816 24.508 87.2196 26.1216 87.2196 28.3071V36.9707C87.2196 37.1454 87.3678 37.2927 87.5436 37.2927H90.4979Z" fill="#252428"/>
<path d="M20.0123 25.6733C20.8051 25.0018 21.7738 24.6558 22.9183 24.6558C24.0628 24.6558 25.0555 25.0018 25.8485 25.6973C26.5447 26.2933 26.9894 27.0641 27.1894 27.9822H18.623C18.8471 27.0401 19.2952 26.2693 20.0157 25.6733M29.6783 25.5739C29.0061 24.3818 28.0891 23.4397 26.9205 22.7923C25.7519 22.1208 24.4109 21.7988 22.9217 21.7988C21.4325 21.7988 20.0398 22.1208 18.8471 22.7923C17.6302 23.4637 16.7098 24.4058 16.0169 25.5979C15.3482 26.7901 15 28.1295 15 29.6197C15 31.1098 15.3482 32.4733 16.0445 33.6928C16.7408 34.8849 17.7336 35.827 19.0264 36.4984C20.3191 37.1698 21.7841 37.4918 23.4733 37.4918C24.7901 37.4918 25.9829 37.2932 27.0239 36.8718C27.9926 36.4984 28.7889 35.9297 29.4576 35.2103C29.5576 35.087 29.5576 34.9123 29.4576 34.789L27.9409 33.0522C27.8168 32.9288 27.6169 32.9049 27.4928 33.0282C26.4483 33.9977 25.1314 34.467 23.5698 34.467C22.253 34.467 21.1361 34.145 20.2674 33.4735C19.3745 32.8021 18.8264 31.908 18.6265 30.7912H30.1712C30.4436 30.7912 30.6676 30.5926 30.6676 30.3185C30.6917 30.0718 30.6917 29.8972 30.6917 29.7224C30.6676 28.1329 30.3436 26.7695 29.6749 25.5773" fill="#252428"/>
<path d="M107.41 33.0964C106.737 34.1378 104.876 34.8846 103.535 34.8846C102.614 34.8846 101.898 34.6859 101.374 34.3125C100.85 33.9391 100.605 33.4184 100.605 32.7744C100.605 31.411 101.649 30.7395 103.711 30.7395H107.413V33.0964H107.41ZM108.006 37.2929H110.664C110.839 37.2929 110.988 37.1456 110.988 36.9708V28.3073C110.988 26.1217 110.391 24.4842 109.198 23.4154C108.006 22.3226 105.972 21.7266 103.711 21.7266C102.27 21.7266 101.353 21.8259 100.357 21.9732C100.209 21.9972 100.085 22.1479 100.085 22.2952V24.5802C100.085 24.7788 100.257 24.9262 100.457 24.9022C101.846 24.7034 104.952 24.3301 106.441 25.6216C107.086 26.1937 107.41 27.0124 107.41 28.0778V28.3005H103.435C101.225 28.3005 99.6087 28.7218 98.5916 29.5405C97.5745 30.3832 97.0504 31.476 97.0504 32.8669C97.0504 33.737 97.2753 34.5284 97.747 35.2238C98.2196 35.9192 98.8884 36.4638 99.733 36.8612C100.601 37.2586 101.594 37.4573 102.739 37.4573C104.18 37.4573 106.265 36.9126 107.63 35.5218V36.9366C107.682 37.1353 107.831 37.2826 108.002 37.2826" fill="#252428"/>
</g>
<defs>
<clipPath id="clip0_17040_10274">
<rect width="130" height="26" fill="white" transform="translate(15 16)"/>
</clipPath>
</defs>
</svg>
