<svg width="160" height="58" viewBox="0 0 160 58" fill="none" xmlns="http://www.w3.org/2000/svg">
<g clip-path="url(#clip0_17077_16624)">
<mask id="mask0_17077_16624" style="mask-type:luminance" maskUnits="userSpaceOnUse" x="13" y="14" width="134" height="31">
<path d="M13.3506 14.0332H146.419V44.506H13.3506V14.0332Z" fill="white"/>
</mask>
<g mask="url(#mask0_17077_16624)">
<path fill-rule="evenodd" clip-rule="evenodd" d="M123.514 23.0896H127.293V19.3096H123.514V23.0896ZM103.427 29.3845C104.15 27.4692 105.999 26.1055 108.167 26.1055C110.335 26.1055 112.184 27.4692 112.906 29.3845H103.427ZM108.167 22.5911C103.43 22.5911 99.5885 26.4327 99.5885 31.1717C99.5885 35.9108 103.43 39.7518 108.167 39.7518C111.418 39.7518 114.245 37.944 115.701 35.2792L112.531 33.7411C111.651 35.2347 110.026 36.2373 108.167 36.2373C105.818 36.2373 103.843 34.6378 103.27 32.4684H113.063C113.063 32.47 113.062 32.4722 113.062 32.4741H116.649C116.713 32.0493 116.747 31.6143 116.747 31.1717C116.747 26.4327 112.906 22.5911 108.167 22.5911ZM117.743 39.2944H121.522V35.5144H117.743V39.2944ZM123.514 39.2944H127.293V24.7513H123.514V39.2944ZM137.841 36.2373C135.044 36.2373 132.776 33.9693 132.776 31.1717C132.776 28.3736 135.044 26.1055 137.841 26.1055C140.638 26.1055 142.906 28.3736 142.906 31.1717C142.906 33.9693 140.638 36.2373 137.841 36.2373ZM137.84 22.5911C133.103 22.5911 129.261 26.4327 129.261 31.1717C129.261 35.9108 133.103 39.7518 137.84 39.7518C142.578 39.7518 146.419 35.9108 146.419 31.1717C146.419 26.4327 142.578 22.5911 137.84 22.5911ZM58.8273 28.0088V31.9171H64.1114C63.8355 33.0339 63.29 34.0347 62.5078 34.8341C61.3281 36.0401 59.6923 36.7045 57.9014 36.7045C54.1851 36.7045 51.1613 33.6804 51.1613 29.963C51.1613 26.2456 54.1851 23.2211 57.9014 23.2211C59.892 23.2211 61.7219 24.0733 62.9904 25.5432L66.0158 23.0706C64.0099 20.7194 61.0339 19.3124 57.9014 19.3124C52.0304 19.3124 47.2539 24.0904 47.2539 29.963C47.2539 35.8356 52.0304 40.6132 57.9014 40.6132C60.752 40.6132 63.3798 39.5858 65.3009 37.6222C66.913 35.974 67.9815 33.675 68.1869 31.3718C68.2871 30.2484 68.2963 29.1326 68.2372 28.0088H58.8273ZM78.0762 36.2383C75.279 36.2383 73.0112 33.9696 73.0112 31.1717C73.0112 28.3733 75.279 26.1052 78.0762 26.1052C80.8737 26.1052 83.1416 28.3733 83.1416 31.1717C83.1416 33.9696 80.8737 36.2383 78.0762 36.2383ZM83.1422 24.2633C81.7223 23.222 79.9715 22.6056 78.0762 22.6056C73.3392 22.6056 69.4991 26.4469 69.4991 31.185C69.4991 35.9238 73.3392 39.7644 78.0762 39.7644C79.9715 39.7644 81.7223 39.1484 83.1422 38.1071V39.2944H86.6537V23.076H83.1422V24.2633ZM94.1917 19.3099H90.6799V23.0896H88.5751V26.4046H90.6799V35.0798C90.6799 35.9756 90.7924 36.7292 91.0155 37.3206C91.2355 37.9057 91.5718 38.3638 91.9715 38.7216C92.3767 39.0848 92.852 39.3677 93.4155 39.5283C93.9881 39.6895 94.6199 39.7518 95.2877 39.7518C95.9788 39.7518 96.5951 39.68 97.121 39.5381C97.6092 39.4069 98.0773 39.2214 98.5128 38.9856V36.3145C97.82 36.6141 97.1725 36.7226 96.4336 36.757C95.6536 36.7937 95.1922 36.5708 94.8082 36.2048C94.4059 35.8213 94.1917 35.3216 94.1917 34.4833V26.4046H98.5128V23.0896H94.1917V19.3099Z" fill="black"/>
</g>
<mask id="mask1_17077_16624" style="mask-type:luminance" maskUnits="userSpaceOnUse" x="13" y="14" width="134" height="31">
<path d="M13.3506 14.0332H146.419V44.506H13.3506V14.0332Z" fill="white"/>
</mask>
<g mask="url(#mask1_17077_16624)">
<path fill-rule="evenodd" clip-rule="evenodd" d="M28.5837 37.6498C23.9566 37.6498 20.2056 33.8982 20.2056 29.2698C20.2056 24.6417 23.9566 20.8895 28.5837 20.8895V14.0332C20.1706 14.0332 13.3506 20.8548 13.3506 29.2698C13.3506 37.6845 20.1706 44.5061 28.5837 44.5061C36.9964 44.5061 43.8167 37.6845 43.8167 29.2698H36.9617C36.9617 33.8982 33.2107 37.6498 28.5837 37.6498Z" fill="#2354E6"/>
</g>
<mask id="mask2_17077_16624" style="mask-type:luminance" maskUnits="userSpaceOnUse" x="13" y="14" width="134" height="31">
<path d="M13.3506 14.0332H146.419V44.506H13.3506V14.0332Z" fill="white"/>
</mask>
<g mask="url(#mask2_17077_16624)">
<path fill-rule="evenodd" clip-rule="evenodd" d="M28.5835 29.2696H36.9615V20.8896H28.5835V29.2696Z" fill="#17E6A1"/>
</g>
</g>
<defs>
<clipPath id="clip0_17077_16624">
<rect width="133.069" height="30.4728" fill="white" transform="translate(13.3506 14.0332)"/>
</clipPath>
</defs>
</svg>
