<svg width="160" height="58" viewBox="0 0 160 58" fill="none" xmlns="http://www.w3.org/2000/svg">
<g clip-path="url(#clip0_17040_10555)">
<path d="M71.6236 23.3223C69.7533 23.3223 67.6264 24.1892 66.3268 25.9249L66.3277 25.9214L66.3268 25.9223L66.3277 23.5948H61.8671V39.8387H66.3268V30.5957C66.3268 28.9321 67.6167 27.1638 70.0048 27.1638C71.8504 27.1638 73.7602 28.4476 73.7602 30.5957V39.8387H78.2208V29.7692C78.2208 26.0331 75.5478 23.3223 71.6236 23.3223Z" fill="#E60012"/>
<path d="M109.923 23.5967L105.891 34.6616L101.858 23.5967H96.7629L103.446 39.8352H108.334L115.018 23.5967H109.923Z" fill="#E60012"/>
<path d="M48.5507 28.4898C49.3104 27.4698 50.5203 26.871 51.9816 26.871C53.589 26.871 54.8085 27.789 55.439 29.144L47.6459 32.3771C47.4331 30.7179 47.8578 29.4201 48.5507 28.4898ZM57.1202 34.8452C55.2429 36.2345 54.1702 36.566 52.4582 36.566C50.9177 36.566 49.7113 36.0877 48.8611 35.2488L60.2645 30.5183C60.0156 28.7553 59.3465 27.1806 58.3169 25.983C56.8186 24.2429 54.601 23.3223 51.9007 23.3223C46.9961 23.3223 43.2979 26.9405 43.2979 31.7194C43.2979 36.6223 47.0049 40.1157 52.3923 40.1157C55.4108 40.1157 58.4971 38.6851 59.9409 37.0136L57.1202 34.8452Z" fill="#E60012"/>
<path d="M42.8728 35.7435H32.7346V18.7373H28.2134V39.8392H42.8728V35.7435Z" fill="#E60012"/>
<path d="M123.027 27.1445C120.536 27.1445 118.727 29.0323 118.727 31.7176C118.727 34.2816 120.643 36.2908 123.087 36.2908C125.579 36.2908 127.387 34.3511 127.387 31.7176C127.387 29.1537 125.472 27.1445 123.027 27.1445ZM123.027 40.113C118.149 40.113 114.327 36.479 114.327 31.7176C114.327 27.01 118.175 23.3223 123.087 23.3223C127.965 23.3223 131.787 26.9563 131.787 31.7176C131.787 36.4244 127.939 40.113 123.027 40.113Z" fill="#E60012"/>
<path d="M88.6851 27.1445C86.1941 27.1445 84.3863 29.0323 84.3863 31.7176C84.3863 34.2816 86.3014 36.2908 88.7458 36.2908C91.2368 36.2908 93.0446 34.3511 93.0446 31.7176C93.0446 29.1537 91.1295 27.1445 88.6851 27.1445ZM88.6851 40.113C83.8068 40.113 79.9855 36.479 79.9855 31.7176C79.9855 27.01 83.8332 23.3223 88.7458 23.3223C93.6231 23.3223 97.4454 26.9563 97.4454 31.7176C97.4454 36.4244 93.5967 40.113 88.6851 40.113Z" fill="#E60012"/>
</g>
<defs>
<clipPath id="clip0_17040_10555">
<rect width="104.619" height="21.9701" fill="white" transform="translate(27.6903 18.4414)"/>
</clipPath>
</defs>
</svg>
