<svg width="160" height="58" viewBox="0 0 160 58" fill="none" xmlns="http://www.w3.org/2000/svg">
<g clip-path="url(#clip0_17011_16132)">
<path d="M51.4915 51.1521H108.163L79.9776 22.9671L51.4915 51.1521Z" fill="#7BB51C"/>
<path d="M50.4087 49.7661L54.8239 45.4589L53.3533 43.9506L50.5801 46.6571L45.6948 41.6483L44.0524 43.2507L50.4087 49.7661Z" fill="black"/>
<path d="M55.793 44.4779L60.3171 40.0631L59.0747 38.7904L56.2021 41.5926L54.8227 40.1784L57.1246 37.9326L55.8245 36.601L53.5226 38.8457L52.3408 37.6344L55.1189 34.9234L53.8773 33.6511L49.3676 38.0512L55.793 44.4779Z" fill="black"/>
<path d="M70.6006 23.5489C68.7761 21.6785 65.611 21.9023 64.0868 23.3897C62.5621 24.8771 61.784 27.843 63.937 30.05C66.3019 32.4738 69.1156 31.5935 70.6403 30.1068C72.8882 27.9138 72.088 25.0735 70.6006 23.5489ZM69.2596 28.826C68.2504 29.8107 67.0166 29.5435 65.6069 28.0983C64.4222 26.8841 64.4934 25.6642 65.3549 24.8236C65.9473 24.2455 67.1504 23.7284 68.5818 25.1958C70.2148 26.8698 70.2688 27.8413 69.2596 28.826Z" fill="black"/>
<path d="M75.6891 25.1021L77.3582 23.4732L74.8473 20.8996L73.3443 14.6464L71.431 16.5135L72.4263 20.061L69.0636 18.8227L67.2596 20.5826L72.9925 22.4235L75.6891 25.1021Z" fill="black"/>
<path d="M66.79 33.7943C66.79 33.7943 62.7278 32.4083 62.5347 32.4419C62.4721 32.4521 63.4073 29.9637 61.3062 28.8608C61.3062 28.8608 59.7472 28.0168 58.187 29.4343L54.8615 32.7115L61.2723 39.1676L62.9683 37.5129L59.4993 33.9579L65.107 35.4364L66.79 33.7943ZM60.4983 32.9078C59.5558 33.8258 59.4285 33.8982 59.4285 33.8982C59.4285 33.8982 57.9509 32.3838 57.8986 32.3302C57.8462 32.2766 58.9552 31.3259 59.1299 31.1553C59.204 31.0829 59.8945 30.6325 60.466 31.2179C60.466 31.2179 61.4404 31.9882 60.4983 32.9078Z" fill="black"/>
<path d="M75.1712 15.8786L73.6879 14.383L80.1637 7.95996L82.2831 10.0966L79.9501 14.6881L84.7065 12.54L86.7458 14.5965L80.27 21.0195L78.7069 19.4437L82.1252 16.0536L77.449 18.1751L76.4824 17.2003L78.6558 12.5286L75.1712 15.8786Z" fill="black"/>
<path d="M86.4153 27.215L81.9252 22.6886L88.4014 16.2656L92.9041 20.8055L91.5959 22.1032L88.7749 19.2592L87.7198 20.3052L89.9448 22.5486L88.5826 23.8994L86.3711 21.6695L84.9557 23.0731L87.7501 25.8904L86.4153 27.215Z" fill="black"/>
<path d="M101.221 29.1909L102.89 30.8739L97.9894 35.7338L100.731 38.4967L99.1549 40.0606L94.745 35.6143L101.221 29.1909Z" fill="black"/>
<path d="M100.32 41.2359L106.797 34.8129L108.426 36.455L101.949 42.8776L100.32 41.2359Z" fill="black"/>
<path d="M104.903 45.8565L103.379 44.3204L109.856 37.8978L112.068 40.1265L110.178 46.7953L114.464 42.5434L115.948 44.039L109.472 50.4615L107.538 48.5127L109.203 41.5116L104.903 45.8565Z" fill="black"/>
<path d="M98.2946 26.2402L94.3613 22.2742L87.8716 28.6841L89.5403 30.3662L93.0784 26.8571L91.8049 32.6497L93.5133 34.3723C93.5133 34.3723 94.86 30.2288 94.9013 30.0561C94.9013 30.0561 96.3605 30.86 97.9616 29.4834C97.9616 29.4834 99.4973 27.987 98.2946 26.2402ZM95.8929 28.1187C95.8929 28.1187 95.0661 28.6738 94.3376 27.9395L93.1995 26.7376C93.1995 26.7376 94.5744 25.3738 94.7479 25.2015C94.7479 25.2015 95.8074 26.2701 95.9399 26.4034C96.0721 26.5368 96.9074 27.1651 95.8929 28.1187Z" fill="black"/>
</g>
<defs>
<clipPath id="clip0_17011_16132">
<rect width="71.8954" height="43.2212" fill="white" transform="translate(44.0524 7.95996)"/>
</clipPath>
</defs>
</svg>
