<svg width="160" height="58" viewBox="0 0 160 58" fill="none" xmlns="http://www.w3.org/2000/svg">
<g clip-path="url(#clip0_17040_10195)">
<path d="M5.84589 20.9558L5.85735 20.9825L5.93755 21.1734C6.25153 21.9476 6.6085 22.7036 7.00681 23.438C7.22938 23.8493 7.49226 24.2376 7.79157 24.597C7.50377 25.0105 7.2941 25.4732 7.17292 25.9622C7.03228 26.7097 7.09829 27.4815 7.36386 28.1943C7.47211 28.5143 7.61354 28.8221 7.78584 29.1127C7.77776 29.1376 7.772 29.1631 7.76865 29.1891C7.67495 29.9597 7.78955 30.7413 8.10052 31.4525C8.41148 32.1638 8.90744 32.7787 9.53675 33.2332C9.74241 33.3873 9.96015 33.5245 10.1879 33.6437C10.4053 34.2717 10.804 34.8212 11.3335 35.2227C11.7222 35.5271 12.1574 35.767 12.6223 35.933V35.9464C13.1593 36.6839 13.9375 37.2102 14.8219 37.4338C15.0574 37.4997 15.2974 37.5484 15.5399 37.5789C15.5509 37.5938 15.5631 37.6078 15.5762 37.6209C16.0656 38.0808 16.6602 38.4138 17.308 38.5909C17.2025 39.2962 17.268 40.0165 17.4989 40.6912H43.022C43.0283 39.8352 42.7948 38.9945 42.3479 38.2644C42.3361 38.2455 42.3226 38.2276 42.3078 38.2109C42.6502 35.669 40.9556 33.2994 38.4394 32.8016C38.3115 32.7768 38.1778 32.7558 38.0461 32.7405H37.9926C37.0774 31.8498 36.0087 31.1318 34.8381 30.6211C34.8534 30.5524 34.8668 30.4855 34.882 30.4302L34.9336 30.413C36.3141 29.7963 37.1294 28.7843 37.3203 27.4534C37.4472 26.3844 37.1753 25.3061 36.5566 24.4251C36.5573 24.4111 36.5573 24.3971 36.5566 24.3831C36.6979 22.9625 36.484 21.7214 35.9207 20.698C35.4808 19.8821 34.7946 19.2259 33.9598 18.823H33.9483C33.723 18.0592 32.7492 17.4864 31.7086 17.5055C30.8876 17.5284 29.9902 17.9122 29.656 18.5423C28.4073 18.9929 26.4692 20.1557 25.8831 23.0981C25.4359 23.4258 25.0634 23.8448 24.7905 24.3274C24.5175 24.8099 24.3502 25.345 24.2996 25.8971C24.2491 26.4492 24.3164 27.0057 24.4972 27.5298C24.6781 28.0539 24.9682 28.5336 25.3484 28.937C24.1398 28.9475 22.935 29.0754 21.7511 29.3189L21.7053 29.3304C21.1324 28.9195 20.4778 28.6367 19.786 28.5009C19.0942 28.3652 18.3813 28.3798 17.6956 28.5437C17.643 28.5574 17.5937 28.5814 17.5505 28.6143C17.1486 28.4956 16.7372 28.4119 16.3208 28.3642C16.2935 28.3614 16.266 28.3614 16.2387 28.3642C16.0487 27.7375 15.7085 27.1666 15.2477 26.7011C15.2248 26.6782 15.1714 26.6362 15.1714 26.6324C15.11 26.2457 15.0252 25.8631 14.9174 25.4868C14.752 24.8962 14.4293 24.3616 13.9837 23.9401C13.6759 23.6345 13.3165 23.3856 12.9221 23.205C12.9659 23.0893 13.0016 22.9706 13.029 22.8499C13.0358 22.8203 13.0409 22.7903 13.0443 22.7601C13.0443 22.7468 13.1932 21.3243 13.3632 20.4803V20.4498C13.8348 17.5494 13.8348 17.5074 13.8443 17.4749V17.4578C13.854 17.3279 13.8364 17.1975 13.7927 17.0748C13.749 16.9521 13.68 16.84 13.5904 16.7456C13.47 16.6214 13.3252 16.5234 13.1652 16.4577C13.0053 16.392 12.8334 16.36 12.6605 16.3637C12.4045 16.3648 12.1532 16.4322 11.931 16.5594C11.7088 16.6865 11.5233 16.8691 11.3927 17.0892C11.231 17.3625 11.1028 17.6542 11.0108 17.958C10.5296 17.0262 9.89954 15.7985 9.44701 14.903L9.42219 14.8572C9.31503 14.6832 9.1654 14.5394 8.98738 14.4392C8.80935 14.339 8.60877 14.2857 8.40448 14.2843C8.25182 14.2846 8.10047 14.3124 7.95768 14.3665C7.73992 14.1793 7.46197 14.0769 7.17483 14.0781C7.02664 14.0792 6.87961 14.1043 6.73949 14.1526C6.4966 14.2334 6.28668 14.3912 6.14161 14.6021C5.99654 14.813 5.92422 15.0654 5.93564 15.3212C5.74566 15.3879 5.57662 15.5035 5.44555 15.6563C5.31448 15.8092 5.22601 15.9939 5.18906 16.1918C5.15388 16.4029 5.1643 16.619 5.21961 16.8258C5.21961 16.8429 5.22916 16.8697 5.24253 16.9098L5.20625 16.9632C4.92175 17.41 4.77473 18.233 5.84589 20.95" fill="black"/>
<path d="M42.2026 40.6802H41.1925C41.5205 40.2901 41.7859 39.8515 41.9792 39.3799C42.1298 39.7967 42.2049 40.237 42.2007 40.6802" fill="white"/>
<path d="M25.5795 29.7584C25.7818 29.7725 25.9818 29.8103 26.1753 29.8711C26.5571 30.0143 27.298 30.7303 27.7028 30.7933C27.7734 30.7933 27.9586 30.757 27.7581 30.6138C27.7028 30.5737 27.235 30.1575 27.4087 29.9417C27.4329 29.9049 27.468 29.8766 27.5091 29.8609C27.5502 29.8451 27.5953 29.8427 27.6378 29.8539C28.224 29.999 28.7128 30.083 28.8809 30.1078C28.984 30.1231 29.0584 30.125 29.1004 30.0888C29.1424 30.0525 29.1119 30.0277 28.9973 29.9952C28.0923 29.7527 27.0879 29.3632 26.3967 28.8381C25.9385 28.4983 25.5778 28.0436 25.3512 27.52C25.1246 26.9964 25.04 26.4223 25.106 25.8556C25.1603 25.4445 25.2959 25.0483 25.5047 24.6901C25.7135 24.3318 25.9914 24.0186 26.3223 23.7687C26.579 23.6064 26.8556 23.4781 27.1452 23.3868C27.4736 23.2684 26.9352 23.1825 26.897 23.1748C26.7595 23.1519 26.7519 23.0106 26.8645 22.5791C27.0801 21.8131 27.4816 21.1122 28.0332 20.5386C28.5848 19.965 29.2695 19.5365 30.0265 19.2911C30.2625 19.2161 30.5029 19.1555 30.7463 19.1097C31.0633 19.062 30.9373 18.9188 30.5821 18.8768C30.5821 18.8768 30.4599 18.8768 30.5191 18.7909C30.572 18.7299 30.633 18.6766 30.7005 18.6324C31.015 18.4426 31.3738 18.3385 31.7411 18.3307C32.4801 18.3116 33.1178 18.7241 33.1923 19.104C33.1923 19.104 33.219 19.1804 33.1293 19.1842C32.988 19.1842 32.8734 19.2491 33.0682 19.3465C33.114 19.3694 33.3106 19.4286 33.5875 19.5565L33.6276 19.5775C34.1852 19.8372 35.9189 20.8912 35.7929 23.8737C35.7929 23.9634 35.7814 24.0532 35.7757 24.141C35.77 24.2288 35.7585 24.3052 35.749 24.3873C35.5867 24.3682 35.5141 24.437 35.6306 24.5553C35.7852 24.7194 35.924 24.8978 36.0449 25.0881C36.4533 25.778 36.6224 26.5834 36.5261 27.3793C36.4659 27.8195 36.3026 28.2392 36.0495 28.6042C35.7963 28.9692 35.4604 29.2692 35.0692 29.4797C34.4952 29.7967 33.8794 30.0313 33.24 30.1766C33.0663 30.2167 33.1484 30.442 33.9541 30.4305C34.0229 30.4305 34.1699 30.4458 34.2119 30.526C34.3054 30.6998 34.1451 31.0396 33.7937 31.2458C33.492 31.4234 33.7326 31.4616 34.1527 31.3356C34.3211 31.3501 34.4858 31.3934 34.6396 31.4635C36.0945 32.1174 37.3632 33.1242 38.3304 34.3925C39.224 35.6756 39.5486 36.6838 39.268 37.3196C38.9873 37.9555 38.1892 38.049 38.1834 38.049H38.1701C35.0501 38.534 29.637 37.6786 25.9041 36.5788C25.0515 36.323 24.2149 36.0163 23.399 35.6604C23.8028 34.7483 23.9375 33.7398 23.7873 32.7537C23.6371 31.7676 23.2082 30.845 22.5512 30.0945L22.4958 30.0353C23.5119 29.8618 24.5412 29.7775 25.5719 29.7833" fill="white"/>
<path d="M21.9439 30.6135C23.1908 32.0188 23.4008 34.1573 22.4423 35.7001C21.3692 37.43 19.4445 38.2854 17.6535 37.829C17.4012 37.7653 17.1562 37.6757 16.9222 37.5617C17.0921 37.5364 17.2604 37.5013 17.4263 37.4567C19.1887 36.9794 20.5043 35.3564 20.7009 33.4107C20.8303 32.2062 20.4882 30.9983 19.7462 30.0406C19.4935 29.722 19.1942 29.4432 18.8584 29.2139C19.4413 29.2204 20.0166 29.3482 20.5475 29.5892C21.0784 29.8301 21.5533 30.1789 21.942 30.6135" fill="white"/>
<path d="M40.8508 35.3144C41.9874 37.0098 41.6775 39.2869 40.129 40.6168C40.1481 39.8779 40.0183 39.0168 39.4741 38.3256C39.7124 38.1397 39.9018 37.8985 40.0259 37.6229C40.4383 36.6988 40.0965 35.4405 39.0101 33.8805V33.8709L38.9395 33.7793C39.7229 34.0755 40.394 34.6097 40.8584 35.3068" fill="white"/>
<path d="M19.1066 30.5596C19.7146 31.3499 19.9931 32.3448 19.8837 33.3359C19.7214 34.9417 18.6464 36.2821 17.2106 36.6716C16.6786 36.8183 16.1217 36.8511 15.5761 36.7679C15.0306 36.6846 14.5088 36.4872 14.0448 36.1885C14.9369 36.1556 15.7975 35.8503 16.511 35.3137C17.2244 34.7771 17.7564 34.0349 18.0354 33.1869C18.3179 32.3086 18.299 31.3611 17.982 30.4947C17.8368 30.1032 17.6306 29.7372 17.371 29.4102C18.0474 29.6075 18.6471 30.0073 19.0894 30.5558" fill="white"/>
<path d="M16.3666 30.6022C16.4287 30.2744 16.4568 29.941 16.4506 29.6074C16.8847 30.0305 17.1917 30.5666 17.3369 31.1551C17.482 31.7436 17.4594 32.361 17.2717 32.9374C16.737 34.6005 14.9651 35.6564 13.323 35.2898C12.5416 35.1146 11.8408 34.6839 11.3315 34.0659C11.6276 34.1302 11.9298 34.1628 12.2328 34.1632C12.8117 34.1633 13.3844 34.0437 13.915 33.8119C14.5556 33.5179 15.1148 33.0718 15.5437 32.5124C15.9726 31.953 16.2584 31.2972 16.3762 30.6022" fill="white"/>
<path d="M15.1388 27.8643C15.5888 28.6455 15.7362 29.5648 15.5532 30.4477C15.4648 31.0447 15.2197 31.6075 14.8427 32.0788C14.4657 32.55 13.9704 32.9128 13.4074 33.13C12.8443 33.3473 12.2337 33.4112 11.6379 33.3154C11.0421 33.2195 10.4824 32.9672 10.0159 32.5843C9.61108 32.2908 9.27189 31.9161 9.02005 31.484C8.76821 31.052 8.60926 30.5723 8.55334 30.0753C8.63736 30.1498 8.72519 30.2185 8.81493 30.2835C9.48442 30.7564 10.2866 31.0051 11.1062 30.9938C11.4728 30.9963 11.8382 30.9501 12.1926 30.8563C13.6934 30.4324 14.4285 29.5312 14.7818 28.8495C14.9417 28.54 15.0599 28.2106 15.1331 27.87" fill="white"/>
<path d="M18.1156 38.7441C18.2849 38.7627 18.4551 38.7722 18.6254 38.7727C20.3095 38.7727 21.9516 37.8848 22.996 36.3535C23.8666 36.7388 24.7607 37.0685 25.673 37.3407C27.8397 37.9682 30.0516 38.4278 32.289 38.7154C33.5443 38.8836 34.8089 38.9729 36.0753 38.9827C36.817 38.9892 37.558 38.9394 38.2922 38.8338C38.4382 38.8117 38.582 38.7766 38.7218 38.7288C39.2278 39.2615 39.327 40.0329 39.2946 40.6859H18.3886C18.1071 40.0794 18.0127 39.4026 18.1175 38.7422" fill="white"/>
<path d="M5.90696 17.3854L5.93942 17.3624C5.96802 17.3364 6.00189 17.3169 6.03871 17.3052H6.18382C6.20987 17.3089 6.23547 17.3153 6.2602 17.3243C6.49696 17.4102 6.67072 17.7061 6.72609 18.1281C6.81843 18.8503 7.07301 19.5422 7.47075 20.1521C7.49835 20.1906 7.54011 20.2165 7.58684 20.2242C7.63357 20.2319 7.68144 20.2207 7.71993 20.1931C7.75842 20.1655 7.78436 20.1238 7.79206 20.077C7.79976 20.0303 7.78858 19.9824 7.76098 19.9439C7.39931 19.3807 7.16714 18.7442 7.08124 18.0804C7.00677 17.5209 6.75282 17.1257 6.38431 16.9882C6.29822 16.9564 6.20682 16.9415 6.11509 16.9443C6.07131 16.8486 6.03493 16.7496 6.00625 16.6483C5.96997 16.4956 5.90123 16.192 6.24111 16.0755L6.30603 16.0564H6.34039C6.58671 16.0259 6.91321 16.1385 7.23208 17.2899C7.46952 18.0424 7.80666 18.7597 8.23451 19.4227C8.26164 19.4579 8.30098 19.4816 8.34475 19.4892C8.38853 19.4968 8.43356 19.4877 8.47097 19.4637C8.50837 19.4398 8.53543 19.4026 8.5468 19.3597C8.55817 19.3167 8.55302 19.2711 8.53238 19.2317C8.12685 18.5984 7.8059 17.9148 7.57768 17.1982C7.4383 16.7018 7.24163 16.1614 6.90748 15.8846C6.85975 15.7624 6.80629 15.6268 6.79292 15.5829C6.73564 15.413 6.67645 15.0349 7.00104 14.928C7.05875 14.9076 7.11935 14.8967 7.18053 14.8955C7.28597 14.9052 7.38589 14.947 7.46681 15.0153C7.54773 15.0836 7.60576 15.1751 7.63305 15.2774C7.63305 15.3003 7.65406 15.3251 7.66551 15.3519L9.13002 18.8499C9.1388 18.8749 9.15473 18.8968 9.17584 18.9129C9.20387 18.9387 9.23999 18.9539 9.27802 18.956C9.31605 18.9581 9.35362 18.9469 9.3843 18.9243C9.41499 18.9018 9.43687 18.8692 9.44622 18.8323C9.45556 18.7954 9.45178 18.7564 9.43552 18.7219L8.0092 15.3308C8.0396 15.256 8.09775 15.1958 8.1715 15.1628C8.2426 15.1218 8.32245 15.0982 8.40445 15.0941C8.46878 15.0955 8.5318 15.1125 8.58804 15.1438C8.64427 15.1751 8.69202 15.2196 8.72714 15.2736C8.72714 15.2736 10.6193 18.9931 10.9707 19.6346C10.8635 19.8061 10.7709 19.9862 10.6938 20.1731C10.669 20.2685 10.732 20.3545 10.7778 20.2647C10.8958 20.0941 11.0233 19.9303 11.1597 19.774C11.1657 19.7682 11.1703 19.761 11.1731 19.753C11.2628 19.5945 11.5397 18.8556 11.6504 18.6226C11.732 18.2395 11.8704 17.8708 12.0609 17.5286C12.1198 17.4251 12.2047 17.3387 12.3071 17.2781C12.4096 17.2175 12.5262 17.1847 12.6452 17.183C12.8591 17.183 13.0271 17.2918 13.0271 17.4025C13.0271 17.4522 12.5631 20.322 12.5631 20.322C12.4428 20.9216 12.3359 21.7808 12.2767 22.2791C12.2724 22.4003 12.259 22.5209 12.2366 22.64V22.6782C12.2366 22.6782 12.2366 22.7049 12.2194 22.7488C12.1582 23.0123 12.0686 23.2684 11.9521 23.5126L12.101 24.1962C12.1602 24.4845 12.2251 24.7938 12.25 24.8874C12.3588 25.2692 12.2194 25.5022 12.2901 25.5805C12.3894 25.6893 12.6299 25.1719 12.6929 24.9045C12.7141 24.5829 12.6799 24.2599 12.5917 23.9498C12.8908 24.0898 13.1634 24.2803 13.3975 24.5131C13.7471 24.8375 13.9996 25.2526 14.1269 25.7122C14.2654 26.1595 14.3594 26.6193 14.4076 27.0851C14.4171 27.4536 14.2911 29.4107 11.9769 30.0618C11.6965 30.1353 11.4076 30.1712 11.1177 30.1687C10.4686 30.1785 9.83321 29.9812 9.30377 29.6055C8.18487 28.8093 7.74762 27.0698 7.9672 26.1495C8.05641 25.7904 8.20552 25.4489 8.40827 25.1394C8.51137 25.2028 8.62174 25.254 8.73668 25.2922L8.80351 25.6091C8.80351 25.6473 8.99445 26.5313 9.33432 26.8006C9.5224 26.9179 9.74094 26.977 9.96251 26.9705C10.0637 26.9705 10.3062 26.9591 10.3444 26.854C10.3515 26.8356 10.3528 26.8155 10.348 26.7963C10.3432 26.7772 10.3326 26.76 10.3177 26.7471C10.2851 26.7202 10.2492 26.6977 10.2107 26.6803C10.0465 26.5905 9.73911 26.4263 9.67419 26.1246C9.63792 25.9547 9.49662 25.3609 9.41452 25.0077C9.75821 24.7346 9.79639 24.4348 9.34578 24.5284C9.21734 24.5463 9.08652 24.5356 8.96272 24.497C8.83892 24.4583 8.72521 24.3928 8.62976 24.305C7.7247 23.5164 6.78528 21.0896 6.59625 20.66C5.8325 18.7124 5.66829 17.6679 5.90696 17.3758" fill="white"/>
<path d="M29.2685 25.8246C29.2494 25.7539 29.1596 25.7539 29.1291 25.7539C29.0401 25.757 28.9523 25.7751 28.8694 25.8074C28.7702 25.847 28.6836 25.9129 28.619 25.998C28.5545 26.0831 28.5143 26.1842 28.5028 26.2904C28.5029 26.3127 28.5118 26.334 28.5276 26.3496C28.5375 26.3598 28.5494 26.3678 28.5626 26.373C28.5757 26.3783 28.5898 26.3807 28.604 26.3802C28.6219 26.3797 28.6389 26.3722 28.6514 26.3594C28.6639 26.3466 28.6708 26.3294 28.6708 26.3114C28.6793 26.2486 28.7082 26.1902 28.7529 26.1453C28.8671 26.039 29.0123 25.9721 29.1673 25.9544C29.215 25.9429 29.2818 25.9067 29.2627 25.836" fill="black"/>
<path d="M33.986 22.1456C33.9295 22.1421 33.8728 22.1431 33.8165 22.1484C33.7576 22.1548 33.6995 22.167 33.643 22.1847C33.0893 22.3603 32.8678 22.8508 32.7036 23.521C32.5241 24.2619 32.7761 25.1365 33.2477 25.2855C33.3501 25.3137 33.4541 25.336 33.559 25.3523C33.6771 25.3765 33.798 25.3836 33.918 25.3734C34.0561 25.3605 34.188 25.3102 34.2997 25.228C34.5244 25.0438 34.6964 24.8034 34.7981 24.5312C34.9026 24.274 34.9621 24.0007 34.9739 23.7234C34.9943 23.4524 34.9717 23.1799 34.9071 22.9159C34.8476 22.6584 34.6899 22.4343 34.4676 22.2913C34.3206 22.206 34.1557 22.1561 33.986 22.1456ZM33.8829 22.5558C33.9343 22.5565 33.9887 22.5611 34.0458 22.5702C34.8458 22.7001 34.7617 23.7465 34.7063 24.073L34.7043 24.0671C34.6786 24.1979 34.6403 24.3258 34.5899 24.4491C34.5048 24.6818 34.3599 24.8879 34.1699 25.0468C34.1009 25.0966 34.0209 25.1293 33.9367 25.1421C34.0897 25.0295 34.2152 24.8838 34.3038 24.7158C34.3924 24.5478 34.4419 24.362 34.4484 24.1722C34.5038 23.5574 34.2196 23.0265 33.8129 22.9941C33.7107 22.991 33.6092 23.0127 33.5171 23.0572C33.425 23.1018 33.3451 23.1679 33.284 23.2499C33.3645 23.2617 33.4375 23.3035 33.4885 23.3669C33.5395 23.4303 33.5647 23.5106 33.559 23.5917C33.5748 23.6762 33.5569 23.7635 33.5091 23.835C33.4612 23.9064 33.3873 23.9562 33.3031 23.9737C33.238 23.9709 33.1757 23.9459 33.1267 23.9028C33.0777 23.8598 33.0449 23.8013 33.0336 23.737C33.0037 23.8404 32.9839 23.9466 32.9746 24.0538C32.9504 24.2299 32.9627 24.4091 33.0107 24.5803C33.0587 24.7514 33.1413 24.9109 33.2535 25.0487C33.0983 24.9291 32.9901 24.7588 32.9477 24.5675C32.9168 24.4641 32.8957 24.358 32.8848 24.2507C32.8433 23.9332 32.8815 23.6104 32.9957 23.3112L33.0129 23.2577C33.1461 22.9117 33.3857 22.5484 33.8829 22.5558Z" fill="black"/>
<path d="M30.597 21.6701C30.4806 21.6649 30.3642 21.6776 30.2517 21.7076C29.9939 21.7864 29.7773 21.9633 29.6485 22.2001C29.5122 22.4419 29.4161 22.7044 29.3642 22.9771C29.3032 23.2509 29.2909 23.5334 29.3278 23.8115C29.3585 24.1041 29.4672 24.3831 29.6427 24.6193C29.733 24.7286 29.8511 24.8117 29.9845 24.8599C30.102 24.9015 30.2248 24.9265 30.3493 24.9341C30.4585 24.9452 30.5681 24.9504 30.6778 24.9497C31.1895 24.9287 31.6723 24.1419 31.6876 23.3724C31.7029 22.6717 31.6096 22.1332 31.1036 21.8181C31.051 21.7859 30.9952 21.759 30.9372 21.738C30.8279 21.6982 30.7132 21.6753 30.597 21.6701ZM30.5251 22.0865C30.5499 22.0869 30.5752 22.0885 30.6013 22.0911C31.2352 22.1542 31.4051 22.622 31.4528 23.0306V23.0861C31.4881 23.4069 31.4415 23.7315 31.3173 24.0294C31.2773 24.131 31.2281 24.2286 31.1704 24.3212C31.1214 24.4217 31.0505 24.51 30.9629 24.5794C30.8753 24.6488 30.7732 24.6977 30.6642 24.7224H30.6165C30.779 24.6138 30.9132 24.4679 31.0079 24.2968C31.1025 24.1258 31.1549 23.9346 31.1606 23.7392C31.216 23.1244 30.9241 22.5935 30.5059 22.5591C30.4024 22.5555 30.2996 22.5767 30.2059 22.6209C30.1122 22.665 30.0304 22.7309 29.9673 22.813C30.0458 22.8329 30.1158 22.8778 30.1665 22.9409C30.2172 23.0041 30.2459 23.0821 30.2483 23.1631C30.2507 23.244 30.2266 23.3236 30.1797 23.3896C30.1328 23.4557 30.0656 23.5046 29.9884 23.529C29.9224 23.5259 29.8594 23.5007 29.8095 23.4574C29.7596 23.4141 29.7257 23.3553 29.7134 23.2904C29.6828 23.3937 29.6624 23.4998 29.6524 23.6072C29.6121 23.9376 29.6965 24.2712 29.8892 24.5427C29.8643 24.5219 29.8412 24.4989 29.8204 24.474C29.6721 24.2707 29.5811 24.0314 29.5567 23.781C29.5389 23.6475 29.5345 23.5126 29.5434 23.3783L29.5455 23.3818C29.575 23.0599 29.7569 22.0715 30.5251 22.0865Z" fill="black"/>
<path d="M29.0692 26.0765C29.028 26.0815 28.9898 26.1008 28.9613 26.1311C28.9328 26.1613 28.9159 26.2006 28.9134 26.2421C28.9111 26.2835 28.9223 26.3245 28.9453 26.359C28.9683 26.3934 29.002 26.4195 29.0411 26.4331C29.2622 26.5424 29.4906 26.6361 29.7247 26.7136C29.917 26.8225 30.0868 26.967 30.2251 27.1394C30.4062 27.3342 30.6139 27.5027 30.8419 27.6398C31.2948 27.8881 31.817 27.98 32.3275 27.9011C32.5843 27.861 32.8303 27.7695 33.0509 27.632C33.2086 27.5281 33.3598 27.4146 33.5036 27.2921C33.5904 27.2217 33.6824 27.1579 33.7786 27.1011C33.8359 27.0686 34.2366 26.9104 34.4485 26.7862C34.4485 26.8607 34.4487 26.9255 34.4946 26.9351C34.5405 26.9446 34.5994 26.8417 34.6185 26.7558C34.6341 26.6809 34.6269 26.6031 34.5978 26.5323C34.5771 26.4948 34.5484 26.4623 34.5137 26.4372C34.479 26.4121 34.4391 26.3949 34.397 26.387L34.3935 26.3698C34.3056 26.3603 34.2825 26.435 34.3169 26.4636C34.3297 26.4745 34.3412 26.4866 34.3513 26.4999L34.2653 26.5495C34.0661 26.641 33.8575 26.7102 33.6431 26.7558C33.1164 26.8648 32.5764 26.8938 32.0411 26.8417C31.1584 26.7739 30.2918 26.5683 29.4728 26.2323L29.2571 26.137C29.2209 26.1218 29.1864 26.0988 29.1501 26.0855C29.1242 26.0763 29.0965 26.0732 29.0692 26.0765ZM30.5153 26.9448C31.3724 27.1701 32.2617 27.2469 33.1446 27.1718C32.9632 27.323 32.7554 27.4395 32.5317 27.5155C32.3008 27.5828 32.059 27.6048 31.8196 27.5804C31.5827 27.5634 31.3506 27.5045 31.1341 27.4066C30.9024 27.2901 30.6929 27.1338 30.5153 26.9448Z" fill="black"/>
<path d="M131.971 40.6855H11.3735L10.4036 43.3472H130.993L131.971 40.6855Z" fill="#FCE500"/>
<path d="M125.674 24.7178H120.66L116.738 35.3588H126.806L128.108 31.8226H123.052L125.674 24.7178Z" fill="#27509B"/>
<path d="M110.895 27.5055H116.774L117.809 24.7178H107.061L103.145 35.3588H114.011L115.067 32.4947H109.068L109.507 31.3109H115.105L116.06 28.6912H110.467L110.895 27.5055Z" fill="#27509B"/>
<path d="M132.687 24.7352L128.78 35.3667H133.936L137.85 24.7275L132.687 24.7352Z" fill="#27509B"/>
<path d="M150.69 24.7352L148.004 32.031C148.04 31.2959 148.195 28.3917 148.277 26.7171C148.313 26.0278 148.164 25.5028 147.836 25.1533C147.588 24.8993 147.253 24.7474 146.898 24.7275H140.911L136.991 35.3686H141.344L144.12 27.8322L143.792 35.3686H151.082L155 24.7275L150.69 24.7352Z" fill="#27509B"/>
<path d="M59.7594 24.7354L55.9941 30.4502C55.9941 30.4502 56.2328 27.4601 56.2939 26.7402C56.3378 26.1922 56.271 24.7354 54.9363 24.7354H48.9676L45.0514 35.3745H49.7218L52.5591 27.6777L51.9615 35.3745H56.1087L61.1991 27.8133L58.421 35.3745H63.1238L67.04 24.7354H59.7594Z" fill="#27509B"/>
<path d="M70.0091 24.7354L66.0891 35.3745H71.2445L75.1587 24.7354H70.0091Z" fill="#27509B"/>
<path d="M99.2514 24.7352L97.8308 28.5673H95.2378L96.6489 24.7352H91.7379L87.8313 35.3762H92.7308L94.0674 31.7732H96.6661L95.3295 35.3762H100.235L104.149 24.7275L99.2514 24.7352Z" fill="#27509B"/>
<path d="M82.3342 24.8327C79.2123 25.4724 74.983 27.7655 75.027 31.9509C75.0537 34.3644 77.9693 35.7048 81.3127 35.6112C82.6173 35.5612 83.9166 35.4163 85.2002 35.1778L86.4413 31.9547C84.7992 32.2144 83.2221 32.6078 81.9848 32.1132C79.7546 31.2215 81.1275 28.9016 82.7046 28.1818C83.5727 27.7746 84.5222 27.5708 85.4809 27.5861C85.9525 27.5861 87.1039 27.6147 87.5507 28.6324L89.1106 24.8938C86.426 24.2255 83.7319 24.5406 82.3342 24.8327Z" fill="#27509B"/>
</g>
<defs>
<clipPath id="clip0_17040_10195">
<rect width="150" height="29.2691" fill="white" transform="translate(5 14.0781)"/>
</clipPath>
</defs>
</svg>
