<svg width="160" height="58" viewBox="0 0 160 58" fill="none" xmlns="http://www.w3.org/2000/svg">
<g clip-path="url(#clip0_17011_16144)">
<path d="M27.3231 13.4102L18.4274 29.7966L24.095 40.3504L25.3748 37.9672L20.987 29.7966L28.5551 15.7042L36.123 29.7966L27.323 46.1831H29.7579L38.5579 29.7966L29.7579 13.4102H27.3231Z" fill="black"/>
<path d="M24.7157 46.1831L33.6114 29.7967L27.9438 19.2429L26.664 21.6261L31.0518 29.7967L23.4837 43.8891L15.9158 29.7967L24.7158 13.4102H22.2809L13.4808 29.7967L22.2809 46.1831H24.7157Z" fill="black"/>
<path fill-rule="evenodd" clip-rule="evenodd" d="M61.5616 23.4922V35.866H72.341V33.3712H64.7661V30.8655H71.4018V28.4036H64.7661V25.954H72.1845V23.4922H61.5616Z" fill="black"/>
<path fill-rule="evenodd" clip-rule="evenodd" d="M45.656 23.4922V35.866H48.8605V31.9907H52.718L54.9555 35.866H58.6512L55.9677 31.3142C57.2707 30.5949 58.209 29.2847 58.209 27.6727C58.209 24.3628 55.7001 23.4922 53.6616 23.4922H45.656ZM48.8605 25.954H53.4051C53.9919 25.954 54.645 26.4102 54.645 27.8205C54.645 28.2987 54.5054 29.5288 53.4051 29.5288H48.8605V25.954Z" fill="black"/>
<path d="M75.2521 23.4922V35.866H78.4566V27.8956L85.5408 35.866H88.7453V23.4922H85.5408V31.3977L78.4566 23.4922H75.2521Z" fill="black"/>
<path d="M96.0235 23.4922L90.5708 35.866H94.2452L95.0766 33.7593H101.309L102.141 35.866H105.815L100.362 23.4922H96.0235ZM98.1929 25.8626L100.338 31.2975H96.0482L98.1929 25.8626Z" fill="black"/>
<path d="M123.542 23.4922V35.866H133.808V33.3712H126.747V23.4922H123.542Z" fill="black"/>
<path d="M132.238 23.4922V25.954H137.054V35.866H140.258V25.954H145.074V23.4922H132.238Z" fill="black"/>
<path d="M107.32 23.4922V31.8546C107.32 35.3588 110.874 36.1015 113.693 36.1015C116.512 36.1015 120.067 35.3588 120.067 31.8546V23.4922H116.862V31.6982C116.862 32.9722 114.936 33.4 113.693 33.4C112.451 33.4 110.524 32.9722 110.524 31.6982V23.4922H107.32Z" fill="black"/>
</g>
<defs>
<clipPath id="clip0_17011_16144">
<rect width="133.023" height="32.8929" fill="white" transform="translate(13.4886 13.4102)"/>
</clipPath>
</defs>
</svg>
