<svg width="458" height="260" viewBox="0 0 458 260" fill="none" xmlns="http://www.w3.org/2000/svg">
  <rect width="458" height="260" rx="8" fill="#1A1D2E"/>
  <rect x="0" y="0" width="458" height="38" rx="8" fill="#111320"/>
  <rect x="0" y="24" width="458" height="14" fill="#111320"/>
  <!-- Top bar -->
  <rect x="16" y="10" width="56" height="18" rx="3" fill="#EE0000" opacity="0.9"/>
  <text x="21" y="23" font-family="monospace" font-size="9" fill="white">Ansible</text>
  <!-- Sidebar nav -->
  <rect x="0" y="38" width="70" height="222" fill="#0D0F1C"/>
  <rect x="12" y="52" width="46" height="10" rx="2" fill="#EE0000" opacity="0.7"/>
  <rect x="12" y="70" width="46" height="10" rx="2" fill="#2D3250"/>
  <rect x="12" y="88" width="46" height="10" rx="2" fill="#2D3250"/>
  <rect x="12" y="106" width="46" height="10" rx="2" fill="#2D3250"/>
  <!-- Job Templates panel -->
  <rect x="82" y="48" width="130" height="14" rx="3" fill="#2D3250"/>
  <!-- Template cards -->
  <rect x="82" y="72" width="172" height="74" rx="4" fill="#161829" stroke="#2D3250" stroke-width="1"/>
  <rect x="92" y="82" width="100" height="10" rx="2" fill="#EE0000" opacity="0.7"/>
  <rect x="92" y="98" width="140" height="8" rx="2" fill="#3D4466"/>
  <rect x="92" y="112" width="110" height="8" rx="2" fill="#3D4466"/>
  <rect x="92" y="128" width="70" height="14" rx="3" fill="#EE0000" opacity="0.5"/>

  <rect x="266" y="72" width="172" height="74" rx="4" fill="#161829" stroke="#2D3250" stroke-width="1"/>
  <rect x="276" y="82" width="120" height="10" rx="2" fill="#EE0000" opacity="0.7"/>
  <rect x="276" y="98" width="140" height="8" rx="2" fill="#3D4466"/>
  <rect x="276" y="112" width="90" height="8" rx="2" fill="#3D4466"/>
  <rect x="276" y="128" width="70" height="14" rx="3" fill="#EE0000" opacity="0.5"/>

  <rect x="82" y="158" width="172" height="74" rx="4" fill="#161829" stroke="#2D3250" stroke-width="1"/>
  <rect x="92" y="168" width="80" height="10" rx="2" fill="#EE0000" opacity="0.7"/>
  <rect x="92" y="184" width="140" height="8" rx="2" fill="#3D4466"/>
  <rect x="92" y="198" width="120" height="8" rx="2" fill="#3D4466"/>
  <rect x="92" y="214" width="70" height="14" rx="3" fill="#2D3250"/>

  <rect x="266" y="158" width="172" height="74" rx="4" fill="#161829" stroke="#2D3250" stroke-width="1"/>
  <rect x="276" y="168" width="110" height="10" rx="2" fill="#EE0000" opacity="0.7"/>
  <rect x="276" y="184" width="140" height="8" rx="2" fill="#3D4466"/>
  <rect x="276" y="198" width="100" height="8" rx="2" fill="#3D4466"/>
  <rect x="276" y="214" width="70" height="14" rx="3" fill="#2D3250"/>
</svg>
