<svg width="458" height="260" viewBox="0 0 458 260" fill="none" xmlns="http://www.w3.org/2000/svg">
<rect width="458" height="260" rx="6" fill="#E6F6FA"/>
<!-- Card 1: Ingest -->
<g filter="url(#filter0_d_nifi)">
<rect x="25" y="98" width="84" height="64" rx="10" fill="white" shape-rendering="crispEdges"/>
<rect x="25.5" y="98.5" width="83" height="63" rx="9.5" stroke="#1A9FB9" shape-rendering="crispEdges"/>
<!-- Download arrow into inbox -->
<path d="M67 109V118" stroke="black" stroke-width="1.5" stroke-linecap="round"/>
<path d="M63 114L67 118L71 114" stroke="black" stroke-width="1.5" stroke-linecap="round" stroke-linejoin="round"/>
<rect x="55" y="119" width="24" height="13" rx="2" stroke="black" stroke-width="1.5" fill="none"/>
<path d="M55 124H79" stroke="black" stroke-width="1" stroke-linecap="round"/>
<text x="67" y="152" text-anchor="middle" font-family="-apple-system,BlinkMacSystemFont,sans-serif" font-size="9.5" font-weight="700" fill="currentColor">Ingest</text>
</g>
<!-- Card 2: Route -->
<g filter="url(#filter1_d_nifi)">
<rect x="132.334" y="98" width="84" height="64" rx="10" fill="white" shape-rendering="crispEdges"/>
<rect x="132.834" y="98.5" width="83" height="63" rx="9.5" stroke="#1A9FB9" shape-rendering="crispEdges"/>
<!-- Y-fork: single input splits to two branches -->
<path d="M164 121L174 121" stroke="black" stroke-width="1.5" stroke-linecap="round"/>
<circle cx="174" cy="121" r="2" fill="black"/>
<path d="M174 121L185 114" stroke="black" stroke-width="1.5" stroke-linecap="round"/>
<path d="M182 111L185 114L182 117" stroke="black" stroke-width="1.5" fill="none" stroke-linecap="round" stroke-linejoin="round"/>
<path d="M174 121L185 128" stroke="black" stroke-width="1.5" stroke-linecap="round"/>
<path d="M182 125L185 128L182 131" stroke="black" stroke-width="1.5" fill="none" stroke-linecap="round" stroke-linejoin="round"/>
<text x="174.334" y="152" text-anchor="middle" font-family="-apple-system,BlinkMacSystemFont,sans-serif" font-size="9.5" font-weight="700" fill="currentColor">Route</text>
</g>
<!-- Card 3: Transform -->
<g filter="url(#filter2_d_nifi)">
<rect x="239.666" y="98" width="85" height="64" rx="10" fill="white" shape-rendering="crispEdges"/>
<rect x="240.166" y="98.5" width="84" height="63" rx="9.5" stroke="#1A9FB9" shape-rendering="crispEdges"/>
<!-- Gear icon -->
<circle cx="282" cy="121" r="9" stroke="black" stroke-width="1.5" fill="none"/>
<circle cx="282" cy="121" r="3.5" stroke="black" stroke-width="1.5" fill="none"/>
<path d="M282 110V113" stroke="black" stroke-width="2.5" stroke-linecap="round"/>
<path d="M282 129V132" stroke="black" stroke-width="2.5" stroke-linecap="round"/>
<path d="M271 121H274" stroke="black" stroke-width="2.5" stroke-linecap="round"/>
<path d="M290 121H293" stroke="black" stroke-width="2.5" stroke-linecap="round"/>
<path d="M274.4 113.4L276.5 115.5" stroke="black" stroke-width="2.5" stroke-linecap="round"/>
<path d="M287.5 126.5L289.6 128.6" stroke="black" stroke-width="2.5" stroke-linecap="round"/>
<path d="M274.4 128.6L276.5 126.5" stroke="black" stroke-width="2.5" stroke-linecap="round"/>
<path d="M287.5 115.5L289.6 113.4" stroke="black" stroke-width="2.5" stroke-linecap="round"/>
<text x="282.166" y="152" text-anchor="middle" font-family="-apple-system,BlinkMacSystemFont,sans-serif" font-size="9.5" font-weight="700" fill="currentColor">Transform</text>
</g>
<!-- Card 4: Mediate -->
<g filter="url(#filter3_d_nifi)">
<rect x="348" y="98" width="85" height="64" rx="10" fill="white" shape-rendering="crispEdges"/>
<rect x="348.5" y="98.5" width="84" height="63" rx="9.5" stroke="#1A9FB9" shape-rendering="crispEdges"/>
<!-- Two system boxes with bidirectional arrows between them (system mediation) -->
<rect x="371" y="115" width="10" height="12" rx="1.5" stroke="black" stroke-width="1.5" fill="none"/>
<path d="M373 118H379" stroke="black" stroke-width="1" stroke-linecap="round"/>
<path d="M373 121H379" stroke="black" stroke-width="1" stroke-linecap="round"/>
<path d="M382 119H400" stroke="black" stroke-width="1.2" stroke-linecap="round"/>
<path d="M397 116.5L400 119L397 121.5" stroke="black" stroke-width="1.2" fill="none" stroke-linecap="round" stroke-linejoin="round"/>
<path d="M401 123H383" stroke="black" stroke-width="1.2" stroke-linecap="round"/>
<path d="M386 120.5L383 123L386 125.5" stroke="black" stroke-width="1.2" fill="none" stroke-linecap="round" stroke-linejoin="round"/>
<rect x="401" y="115" width="10" height="12" rx="1.5" stroke="black" stroke-width="1.5" fill="none"/>
<path d="M403 118H409" stroke="black" stroke-width="1" stroke-linecap="round"/>
<path d="M403 121H409" stroke="black" stroke-width="1" stroke-linecap="round"/>
<text x="390.5" y="152" text-anchor="middle" font-family="-apple-system,BlinkMacSystemFont,sans-serif" font-size="9.5" font-weight="700" fill="currentColor">Mediate</text>
</g>
<!-- Arrows between cards -->
<path d="M129.209 130L119.209 124.226V135.774L129.209 130ZM111.041 130V131H120.209V130V129H111.041V130Z" fill="currentColor"/>
<path d="M237.084 130L227.084 124.226V135.774L237.084 130ZM218.916 130V131H228.084V130V129H218.916V130Z" fill="currentColor"/>
<path d="M345.416 130L335.416 124.226V135.774L345.416 130ZM327.248 130V131H336.416V130V129H327.248V130Z" fill="currentColor"/>
<defs>
<filter id="filter0_d_nifi" x="25" y="98" width="84" height="67" filterUnits="userSpaceOnUse" color-interpolation-filters="sRGB">
<feFlood flood-opacity="0" result="BackgroundImageFix"/>
<feColorMatrix in="SourceAlpha" type="matrix" values="0 0 0 0 0 0 0 0 0 0 0 0 0 0 0 0 0 0 127 0" result="hardAlpha"/>
<feOffset dy="3"/>
<feComposite in2="hardAlpha" operator="out"/>
<feColorMatrix type="matrix" values="0 0 0 0 0.102  0 0 0 0 0.624  0 0 0 0 0.725  0 0 0 1 0"/>
<feBlend mode="normal" in2="BackgroundImageFix" result="effect1_dropShadow_nifi"/>
<feBlend mode="normal" in="SourceGraphic" in2="effect1_dropShadow_nifi" result="shape"/>
</filter>
<filter id="filter1_d_nifi" x="132.334" y="98" width="84" height="67" filterUnits="userSpaceOnUse" color-interpolation-filters="sRGB">
<feFlood flood-opacity="0" result="BackgroundImageFix"/>
<feColorMatrix in="SourceAlpha" type="matrix" values="0 0 0 0 0 0 0 0 0 0 0 0 0 0 0 0 0 0 127 0" result="hardAlpha"/>
<feOffset dy="3"/>
<feComposite in2="hardAlpha" operator="out"/>
<feColorMatrix type="matrix" values="0 0 0 0 0.102  0 0 0 0 0.624  0 0 0 0 0.725  0 0 0 1 0"/>
<feBlend mode="normal" in2="BackgroundImageFix" result="effect1_dropShadow_nifi"/>
<feBlend mode="normal" in="SourceGraphic" in2="effect1_dropShadow_nifi" result="shape"/>
</filter>
<filter id="filter2_d_nifi" x="239.666" y="98" width="85" height="67" filterUnits="userSpaceOnUse" color-interpolation-filters="sRGB">
<feFlood flood-opacity="0" result="BackgroundImageFix"/>
<feColorMatrix in="SourceAlpha" type="matrix" values="0 0 0 0 0 0 0 0 0 0 0 0 0 0 0 0 0 0 127 0" result="hardAlpha"/>
<feOffset dy="3"/>
<feComposite in2="hardAlpha" operator="out"/>
<feColorMatrix type="matrix" values="0 0 0 0 0.102  0 0 0 0 0.624  0 0 0 0 0.725  0 0 0 1 0"/>
<feBlend mode="normal" in2="BackgroundImageFix" result="effect1_dropShadow_nifi"/>
<feBlend mode="normal" in="SourceGraphic" in2="effect1_dropShadow_nifi" result="shape"/>
</filter>
<filter id="filter3_d_nifi" x="348" y="98" width="85" height="67" filterUnits="userSpaceOnUse" color-interpolation-filters="sRGB">
<feFlood flood-opacity="0" result="BackgroundImageFix"/>
<feColorMatrix in="SourceAlpha" type="matrix" values="0 0 0 0 0 0 0 0 0 0 0 0 0 0 0 0 0 0 127 0" result="hardAlpha"/>
<feOffset dy="3"/>
<feComposite in2="hardAlpha" operator="out"/>
<feColorMatrix type="matrix" values="0 0 0 0 0.102  0 0 0 0 0.624  0 0 0 0 0.725  0 0 0 1 0"/>
<feBlend mode="normal" in2="BackgroundImageFix" result="effect1_dropShadow_nifi"/>
<feBlend mode="normal" in="SourceGraphic" in2="effect1_dropShadow_nifi" result="shape"/>
</filter>
</defs>
</svg>
