<svg width="458" height="260" viewBox="0 0 458 260" fill="none" xmlns="http://www.w3.org/2000/svg">
<rect width="458" height="260" rx="6" fill="#EBF3FF"/>
<!-- Card 1: Ingest -->
<g filter="url(#filter0_d_adf)">
<rect x="25" y="98" width="84" height="64" rx="10" fill="white" shape-rendering="crispEdges"/>
<rect x="25.5" y="98.5" width="83" height="63" rx="9.5" stroke="#0078D4" shape-rendering="crispEdges"/>
<!-- Download arrow into storage box -->
<rect x="56" y="118" width="22" height="13" rx="2" stroke="black" stroke-width="1.5" fill="none"/>
<path d="M67 109V117" stroke="black" stroke-width="1.5" stroke-linecap="round"/>
<path d="M63 113.5L67 117.5L71 113.5" stroke="black" stroke-width="1.5" stroke-linecap="round" stroke-linejoin="round"/>
<text x="67" y="152" text-anchor="middle" font-family="-apple-system,BlinkMacSystemFont,sans-serif" font-size="9.5" font-weight="700" fill="currentColor">Ingest</text>
</g>
<!-- Card 2: Transform -->
<g filter="url(#filter1_d_adf)">
<rect x="132.334" y="98" width="84" height="64" rx="10" fill="white" shape-rendering="crispEdges"/>
<rect x="132.834" y="98.5" width="83" height="63" rx="9.5" stroke="#0078D4" shape-rendering="crispEdges"/>
<!-- Gear icon -->
<circle cx="174" cy="121" r="9" stroke="black" stroke-width="1.5" fill="none"/>
<circle cx="174" cy="121" r="3.5" stroke="black" stroke-width="1.5" fill="none"/>
<path d="M174 110V113" stroke="black" stroke-width="2.5" stroke-linecap="round"/>
<path d="M174 129V132" stroke="black" stroke-width="2.5" stroke-linecap="round"/>
<path d="M163 121H166" stroke="black" stroke-width="2.5" stroke-linecap="round"/>
<path d="M182 121H185" stroke="black" stroke-width="2.5" stroke-linecap="round"/>
<path d="M166.4 113.4L168.5 115.5" stroke="black" stroke-width="2.5" stroke-linecap="round"/>
<path d="M179.5 126.5L181.6 128.6" stroke="black" stroke-width="2.5" stroke-linecap="round"/>
<path d="M166.4 128.6L168.5 126.5" stroke="black" stroke-width="2.5" stroke-linecap="round"/>
<path d="M179.5 115.5L181.6 113.4" stroke="black" stroke-width="2.5" stroke-linecap="round"/>
<text x="174.334" y="152" text-anchor="middle" font-family="-apple-system,BlinkMacSystemFont,sans-serif" font-size="9.5" font-weight="700" fill="currentColor">Transform</text>
</g>
<!-- Card 3: Publish -->
<g filter="url(#filter2_d_adf)">
<rect x="239.666" y="98" width="85" height="64" rx="10" fill="white" shape-rendering="crispEdges"/>
<rect x="240.166" y="98.5" width="84" height="63" rx="9.5" stroke="#0078D4" shape-rendering="crispEdges"/>
<!-- Upload arrow into destination table (data warehouse / sink) -->
<rect x="270" y="109" width="24" height="8" rx="1" stroke="black" stroke-width="1.5" fill="none"/>
<path d="M277 109V117M284 109V117" stroke="black" stroke-width="1" stroke-linecap="round"/>
<path d="M282 118V128" stroke="black" stroke-width="1.5" stroke-linecap="round"/>
<path d="M278.5 122L282 118L285.5 122" stroke="black" stroke-width="1.5" stroke-linecap="round" stroke-linejoin="round"/>
<text x="282.166" y="152" text-anchor="middle" font-family="-apple-system,BlinkMacSystemFont,sans-serif" font-size="9.5" font-weight="700" fill="currentColor">Publish</text>
</g>
<!-- Card 4: Monitor -->
<g filter="url(#filter3_d_adf)">
<rect x="348" y="98" width="85" height="64" rx="10" fill="white" shape-rendering="crispEdges"/>
<rect x="348.5" y="98.5" width="84" height="63" rx="9.5" stroke="#0078D4" shape-rendering="crispEdges"/>
<!-- Dashboard with bar chart and trend line -->
<rect x="377" y="109" width="28" height="24" rx="3" stroke="black" stroke-width="1.5" fill="none"/>
<rect x="382" y="123" width="4" height="6" rx="0.5" fill="black"/>
<rect x="389" y="118" width="4" height="11" rx="0.5" fill="black"/>
<rect x="396" y="115" width="4" height="14" rx="0.5" fill="black"/>
<path d="M384 117L391 114L398 112" stroke="black" stroke-width="1.2" stroke-linecap="round"/>
<circle cx="384" cy="117" r="1.5" fill="black"/>
<circle cx="391" cy="114" r="1.5" fill="black"/>
<circle cx="398" cy="112" r="1.5" fill="black"/>
<text x="390.5" y="152" text-anchor="middle" font-family="-apple-system,BlinkMacSystemFont,sans-serif" font-size="9.5" font-weight="700" fill="currentColor">Monitor</text>
</g>
<!-- Arrows between cards -->
<path d="M129.209 130L119.209 124.226V135.774L129.209 130ZM111.041 130V131H120.209V130V129H111.041V130Z" fill="currentColor"/>
<path d="M237.084 130L227.084 124.226V135.774L237.084 130ZM218.916 130V131H228.084V130V129H218.916V130Z" fill="currentColor"/>
<path d="M345.416 130L335.416 124.226V135.774L345.416 130ZM327.248 130V131H336.416V130V129H327.248V130Z" fill="currentColor"/>
<defs>
<filter id="filter0_d_adf" x="25" y="98" width="84" height="67" filterUnits="userSpaceOnUse" color-interpolation-filters="sRGB">
<feFlood flood-opacity="0" result="BackgroundImageFix"/>
<feColorMatrix in="SourceAlpha" type="matrix" values="0 0 0 0 0 0 0 0 0 0 0 0 0 0 0 0 0 0 127 0" result="hardAlpha"/>
<feOffset dy="3"/>
<feComposite in2="hardAlpha" operator="out"/>
<feColorMatrix type="matrix" values="0 0 0 0 0  0 0 0 0 0.471  0 0 0 0 0.831  0 0 0 1 0"/>
<feBlend mode="normal" in2="BackgroundImageFix" result="effect1_dropShadow_adf"/>
<feBlend mode="normal" in="SourceGraphic" in2="effect1_dropShadow_adf" result="shape"/>
</filter>
<filter id="filter1_d_adf" x="132.334" y="98" width="84" height="67" filterUnits="userSpaceOnUse" color-interpolation-filters="sRGB">
<feFlood flood-opacity="0" result="BackgroundImageFix"/>
<feColorMatrix in="SourceAlpha" type="matrix" values="0 0 0 0 0 0 0 0 0 0 0 0 0 0 0 0 0 0 127 0" result="hardAlpha"/>
<feOffset dy="3"/>
<feComposite in2="hardAlpha" operator="out"/>
<feColorMatrix type="matrix" values="0 0 0 0 0  0 0 0 0 0.471  0 0 0 0 0.831  0 0 0 1 0"/>
<feBlend mode="normal" in2="BackgroundImageFix" result="effect1_dropShadow_adf"/>
<feBlend mode="normal" in="SourceGraphic" in2="effect1_dropShadow_adf" result="shape"/>
</filter>
<filter id="filter2_d_adf" x="239.666" y="98" width="85" height="67" filterUnits="userSpaceOnUse" color-interpolation-filters="sRGB">
<feFlood flood-opacity="0" result="BackgroundImageFix"/>
<feColorMatrix in="SourceAlpha" type="matrix" values="0 0 0 0 0 0 0 0 0 0 0 0 0 0 0 0 0 0 127 0" result="hardAlpha"/>
<feOffset dy="3"/>
<feComposite in2="hardAlpha" operator="out"/>
<feColorMatrix type="matrix" values="0 0 0 0 0  0 0 0 0 0.471  0 0 0 0 0.831  0 0 0 1 0"/>
<feBlend mode="normal" in2="BackgroundImageFix" result="effect1_dropShadow_adf"/>
<feBlend mode="normal" in="SourceGraphic" in2="effect1_dropShadow_adf" result="shape"/>
</filter>
<filter id="filter3_d_adf" x="348" y="98" width="85" height="67" filterUnits="userSpaceOnUse" color-interpolation-filters="sRGB">
<feFlood flood-opacity="0" result="BackgroundImageFix"/>
<feColorMatrix in="SourceAlpha" type="matrix" values="0 0 0 0 0 0 0 0 0 0 0 0 0 0 0 0 0 0 127 0" result="hardAlpha"/>
<feOffset dy="3"/>
<feComposite in2="hardAlpha" operator="out"/>
<feColorMatrix type="matrix" values="0 0 0 0 0  0 0 0 0 0.471  0 0 0 0 0.831  0 0 0 1 0"/>
<feBlend mode="normal" in2="BackgroundImageFix" result="effect1_dropShadow_adf"/>
<feBlend mode="normal" in="SourceGraphic" in2="effect1_dropShadow_adf" result="shape"/>
</filter>
</defs>
</svg>
