<svg width="458" height="260" viewBox="0 0 458 260" fill="none" xmlns="http://www.w3.org/2000/svg">
<rect width="458" height="260" rx="6" fill="#FFF0F0"/>
<!-- Card 1: Schedule -->
<g filter="url(#filter0_d_broadcom)">
<rect x="25" y="98" width="84" height="64" rx="10" fill="white" shape-rendering="crispEdges"/>
<rect x="25.5" y="98.5" width="83" height="63" rx="9.5" stroke="#CC0000" shape-rendering="crispEdges"/>
<!-- Clock icon -->
<circle cx="67" cy="121" r="11" stroke="currentColor" stroke-width="1.5" fill="none"/>
<path d="M67 121V113" stroke="currentColor" stroke-width="1.5" stroke-linecap="round"/>
<path d="M67 121L73 121" stroke="currentColor" stroke-width="1.5" stroke-linecap="round"/>
<circle cx="67" cy="121" r="1.5" fill="currentColor"/>
<text x="67" y="152" text-anchor="middle" font-family="-apple-system,BlinkMacSystemFont,sans-serif" font-size="9.5" font-weight="700" fill="currentColor">Schedule</text>
</g>
<!-- Card 2: Dispatch -->
<g filter="url(#filter1_d_broadcom)">
<rect x="132.334" y="98" width="84" height="64" rx="10" fill="white" shape-rendering="crispEdges"/>
<rect x="132.834" y="98.5" width="83" height="63" rx="9.5" stroke="#CC0000" shape-rendering="crispEdges"/>
<!-- Server dispatching to agent nodes -->
<rect x="150" y="112" width="12" height="18" rx="2" stroke="currentColor" stroke-width="1.5" fill="none"/>
<rect x="153" y="116" width="6" height="1.5" rx="0.5" fill="currentColor"/>
<rect x="153" y="119" width="6" height="1.5" rx="0.5" fill="currentColor"/>
<circle cx="156" cy="125" r="1.5" fill="currentColor"/>
<path d="M162 117L171 111" stroke="currentColor" stroke-width="1.2" stroke-linecap="round"/>
<path d="M162 121L171 121" stroke="currentColor" stroke-width="1.2" stroke-linecap="round"/>
<path d="M162 125L171 131" stroke="currentColor" stroke-width="1.2" stroke-linecap="round"/>
<rect x="171" y="107" width="8" height="8" rx="2" stroke="currentColor" stroke-width="1.2" fill="none"/>
<rect x="171" y="117" width="8" height="8" rx="2" stroke="currentColor" stroke-width="1.2" fill="none"/>
<rect x="171" y="127" width="8" height="8" rx="2" stroke="currentColor" stroke-width="1.2" fill="none"/>
<text x="174.334" y="152" text-anchor="middle" font-family="-apple-system,BlinkMacSystemFont,sans-serif" font-size="9.5" font-weight="700" fill="currentColor">Dispatch</text>
</g>
<!-- Card 3: Execute -->
<g filter="url(#filter2_d_broadcom)">
<rect x="239.666" y="98" width="85" height="64" rx="10" fill="white" shape-rendering="crispEdges"/>
<rect x="240.166" y="98.5" width="84" height="63" rx="9.5" stroke="#CC0000" shape-rendering="crispEdges"/>
<!-- Terminal/command prompt icon -->
<rect x="271" y="109" width="22" height="22" rx="3" stroke="currentColor" stroke-width="1.5" fill="none"/>
<path d="M275 118L279 122L275 126" stroke="currentColor" stroke-width="1.5" stroke-linecap="round" stroke-linejoin="round" fill="none"/>
<path d="M282 126H289" stroke="currentColor" stroke-width="1.5" stroke-linecap="round"/>
<text x="282.166" y="152" text-anchor="middle" font-family="-apple-system,BlinkMacSystemFont,sans-serif" font-size="9.5" font-weight="700" fill="currentColor">Execute</text>
</g>
<!-- Card 4: Monitor -->
<g filter="url(#filter3_d_broadcom)">
<rect x="348" y="98" width="85" height="64" rx="10" fill="white" shape-rendering="crispEdges"/>
<rect x="348.5" y="98.5" width="84" height="63" rx="9.5" stroke="#CC0000" shape-rendering="crispEdges"/>
<!-- Dashboard with bar chart and trend line -->
<rect x="376" y="109" width="30" height="22" rx="2" stroke="currentColor" stroke-width="1.5" fill="none"/>
<rect x="380" y="123" width="3" height="6" rx="0.5" fill="currentColor"/>
<rect x="385" y="118" width="3" height="11" rx="0.5" fill="currentColor"/>
<rect x="390" y="115" width="3" height="14" rx="0.5" fill="currentColor"/>
<rect x="395" y="119" width="3" height="10" rx="0.5" fill="currentColor"/>
<path d="M381.5 119L386.5 115L391.5 112L396.5 116" stroke="currentColor" stroke-width="1.2" stroke-linecap="round" stroke-linejoin="round"/>
<circle cx="381.5" cy="119" r="1.5" fill="currentColor"/>
<circle cx="386.5" cy="115" r="1.5" fill="currentColor"/>
<circle cx="391.5" cy="112" r="1.5" fill="currentColor"/>
<circle cx="396.5" cy="116" r="1.5" fill="currentColor"/>
<text x="390.5" y="152" text-anchor="middle" font-family="-apple-system,BlinkMacSystemFont,sans-serif" font-size="9.5" font-weight="700" fill="currentColor">Monitor</text>
</g>
<!-- Arrows between cards -->
<path d="M129.209 130L119.209 124.226V135.774L129.209 130ZM111.041 130V131H120.209V130V129H111.041V130Z" fill="currentColor"/>
<path d="M237.084 130L227.084 124.226V135.774L237.084 130ZM218.916 130V131H228.084V130V129H218.916V130Z" fill="currentColor"/>
<path d="M345.416 130L335.416 124.226V135.774L345.416 130ZM327.248 130V131H336.416V130V129H327.248V130Z" fill="currentColor"/>
<defs>
<filter id="filter0_d_broadcom" x="25" y="98" width="84" height="67" filterUnits="userSpaceOnUse" color-interpolation-filters="sRGB">
<feFlood flood-opacity="0" result="BackgroundImageFix"/>
<feColorMatrix in="SourceAlpha" type="matrix" values="0 0 0 0 0 0 0 0 0 0 0 0 0 0 0 0 0 0 127 0" result="hardAlpha"/>
<feOffset dy="3"/>
<feComposite in2="hardAlpha" operator="out"/>
<feColorMatrix type="matrix" values="0 0 0 0 0.800 0 0 0 0 0 0 0 0 0 0 0 0 0 1 0"/>
<feBlend mode="normal" in2="BackgroundImageFix" result="effect1_dropShadow_broadcom"/>
<feBlend mode="normal" in="SourceGraphic" in2="effect1_dropShadow_broadcom" result="shape"/>
</filter>
<filter id="filter1_d_broadcom" x="132.334" y="98" width="84" height="67" filterUnits="userSpaceOnUse" color-interpolation-filters="sRGB">
<feFlood flood-opacity="0" result="BackgroundImageFix"/>
<feColorMatrix in="SourceAlpha" type="matrix" values="0 0 0 0 0 0 0 0 0 0 0 0 0 0 0 0 0 0 127 0" result="hardAlpha"/>
<feOffset dy="3"/>
<feComposite in2="hardAlpha" operator="out"/>
<feColorMatrix type="matrix" values="0 0 0 0 0.800 0 0 0 0 0 0 0 0 0 0 0 0 0 1 0"/>
<feBlend mode="normal" in2="BackgroundImageFix" result="effect1_dropShadow_broadcom"/>
<feBlend mode="normal" in="SourceGraphic" in2="effect1_dropShadow_broadcom" result="shape"/>
</filter>
<filter id="filter2_d_broadcom" x="239.666" y="98" width="85" height="67" filterUnits="userSpaceOnUse" color-interpolation-filters="sRGB">
<feFlood flood-opacity="0" result="BackgroundImageFix"/>
<feColorMatrix in="SourceAlpha" type="matrix" values="0 0 0 0 0 0 0 0 0 0 0 0 0 0 0 0 0 0 127 0" result="hardAlpha"/>
<feOffset dy="3"/>
<feComposite in2="hardAlpha" operator="out"/>
<feColorMatrix type="matrix" values="0 0 0 0 0.800 0 0 0 0 0 0 0 0 0 0 0 0 0 1 0"/>
<feBlend mode="normal" in2="BackgroundImageFix" result="effect1_dropShadow_broadcom"/>
<feBlend mode="normal" in="SourceGraphic" in2="effect1_dropShadow_broadcom" result="shape"/>
</filter>
<filter id="filter3_d_broadcom" x="348" y="98" width="85" height="67" filterUnits="userSpaceOnUse" color-interpolation-filters="sRGB">
<feFlood flood-opacity="0" result="BackgroundImageFix"/>
<feColorMatrix in="SourceAlpha" type="matrix" values="0 0 0 0 0 0 0 0 0 0 0 0 0 0 0 0 0 0 127 0" result="hardAlpha"/>
<feOffset dy="3"/>
<feComposite in2="hardAlpha" operator="out"/>
<feColorMatrix type="matrix" values="0 0 0 0 0.800 0 0 0 0 0 0 0 0 0 0 0 0 0 1 0"/>
<feBlend mode="normal" in2="BackgroundImageFix" result="effect1_dropShadow_broadcom"/>
<feBlend mode="normal" in="SourceGraphic" in2="effect1_dropShadow_broadcom" result="shape"/>
</filter>
</defs>
</svg>
