<svg xmlns="http://www.w3.org/2000/svg" viewBox="0 0 363.806 60.294" width="185" height="31">
  <path fill="#4b4e52" d="M360.113 25.952a3.734 3.734 0 1 1 3.693-3.733 3.662 3.662 0 0 1-3.693 3.733Zm0-6.834a3.102 3.102 0 1 0 3.02 3.1 2.994 2.994 0 0 0-3.02-3.1Zm-.429 3.795v1.244h-1.101V20.24h1.836a1.308 1.308 0 0 1 1.449 1.367 1.147 1.147 0 0 1-.755 1.183l.897 1.367h-1.224l-.755-1.244Zm.613-1.755h-.613v.877h.613c.326 0 .51-.163.51-.428a.447.447 0 0 0-.51-.449Z" />
  <path fill="#5ce500" d="M48.251 40.442a1.985 1.985 0 0 1-.898 1.554l-12.507 7.222V21.361L10.723 7.433 23.23.214a1.991 1.991 0 0 1 1.798 0l23.223 13.41ZM29.48 24.455l-16.52-9.543a2 2 0 0 0-1.796 0L0 21.36l17.423 10.06.003 20.122 11.156-6.446a1.992 1.992 0 0 0 .898-1.556ZM0 41.48l12.054 6.963v-13.93Z" />
  <path fill="currentColor" d="M74.82 13.614H61.676v35.6h5.833V35.244h7.36c7.966 0 12.353-3.891 12.353-10.96 0-3.207-1.21-10.67-12.4-10.67m6.469 10.769c0 4.015-2.083 5.652-7.191 5.652h-6.591V18.87h7.36c4.324 0 6.422 1.804 6.422 5.51m23.294-1.104.44.213-.99 5.262-.68-.21a5.72 5.72 0 0 0-1.685-.26c-5.45 0-5.894 4.34-5.894 9.59v11.343h-5.402V23.072h5.065v3.154a6.984 6.984 0 0 1 5.24-3.485 7.35 7.35 0 0 1 3.906.536m13.278-.732c-4.252 0-7.656 1.619-9.85 4.68a15.714 15.714 0 0 0-2.642 8.965c0 8.262 4.9 13.599 12.492 13.599 9.223 0 12.495-7.43 12.495-13.791a14.623 14.623 0 0 0-3.05-9.353 11.804 11.804 0 0 0-9.445-4.1m0 22.419c-4.227 0-6.853-3.363-6.853-8.774 0-5.47 2.626-8.868 6.853-8.868 4.194 0 6.902 3.44 6.902 8.773 0 5.469-2.646 8.869-6.902 8.869m57.889-21.687.44.213-.992 5.262-.682-.21a5.688 5.688 0 0 0-1.684-.26c-5.448 0-5.89 4.34-5.89 9.59v11.343h-5.402V23.072h5.066v3.154a6.982 6.982 0 0 1 5.24-3.485 7.345 7.345 0 0 1 3.904.536m19.399 17.557-.1.287a5.741 5.741 0 0 1-5.887 3.888c-4.087 0-6.718-2.713-6.974-7.12h18.484l.068-.513a15.793 15.793 0 0 0 .059-2.08c-.001-.17-.006-.323-.006-.472-.27-7.318-5.04-12.234-11.871-12.234a11.272 11.272 0 0 0-9.46 4.536 15.585 15.585 0 0 0-2.798 9.112c0 8.078 5.024 13.507 12.498 13.507 5.782 0 9.764-2.94 11.216-8.273l.174-.638ZM182.368 33.2c.454-3.622 2.935-5.924 6.459-5.924a6.143 6.143 0 0 1 6.327 5.924Zm-30.664-7.934a9.237 9.237 0 0 0-6.95-2.721c-7.925 0-11.533 6.974-11.533 13.453 0 6.649 3.566 13.359 11.533 13.359a9.26 9.26 0 0 0 6.744-2.737 71.174 71.174 0 0 1-.081 2.717c-.294 4.313-2.366 6.32-6.52 6.32-2.26 0-4.853-.801-5.354-3.053l-.11-.497h-5.323l.086.714c.557 4.609 4.604 7.473 10.558 7.473 5.225 0 8.943-1.97 10.75-5.69a18.337 18.337 0 0 0 1.313-7.765V23.072h-5.113Zm-6.612 19.267c-1.89 0-6.277-.856-6.277-8.774 0-5.204 2.46-8.437 6.419-8.437 3.059 0 6.327 2.216 6.327 8.437 0 5.492-2.42 8.774-6.47 8.774m80.658-3.188c0 4.157-3.451 8.352-11.161 8.352-6.818 0-10.876-2.953-11.421-8.312l-.058-.551h5.316l.08.4c.653 3.222 3.722 3.898 6.184 3.898 2.696 0 5.577-.87 5.577-3.306 0-1.235-.804-2.111-2.387-2.605-.94-.28-2.094-.604-3.315-.945-2.103-.588-4.28-1.201-5.618-1.662-3.316-1.188-5.22-3.501-5.22-6.346 0-5.271 5.133-7.631 10.216-7.631 6.799 0 10.317 2.56 10.759 7.827l.045.543-5.24-.004-.072-.415c-.527-3.032-3.541-3.485-5.293-3.485-1.511 0-5.027.27-5.027 2.776 0 1.139.973 1.976 2.976 2.557.597.168 1.487.396 2.514.662 2.133.552 4.79 1.24 6.127 1.703 3.33 1.17 5.018 3.372 5.018 6.544m24.949 0c0 4.157-3.451 8.352-11.158 8.352-6.82 0-10.878-2.953-11.423-8.312l-.057-.551h5.317l.079.4c.65 3.222 3.722 3.898 6.184 3.898 2.696 0 5.575-.87 5.575-3.306 0-1.235-.804-2.111-2.385-2.605-.942-.28-2.096-.604-3.318-.945-2.1-.588-4.276-1.201-5.614-1.662-3.317-1.188-5.22-3.501-5.22-6.346 0-5.271 5.13-7.631 10.215-7.631 6.799 0 10.316 2.56 10.757 7.827l.046.543-5.238-.004-.073-.415c-.528-3.032-3.54-3.485-5.294-3.485-1.51 0-5.026.27-5.026 2.776 0 1.139.974 1.976 2.975 2.557.598.168 1.485.396 2.516.662 2.132.552 4.788 1.24 6.127 1.703 3.326 1.17 5.015 3.372 5.015 6.544M254.972 25.876a3.724 3.724 0 1 1 3.683-3.724 3.653 3.653 0 0 1-3.683 3.724m0-6.816a3.094 3.094 0 1 0 3.011 3.092 2.986 2.986 0 0 0-3.011-3.092m-.427 3.784v1.241h-1.099V20.18h1.831a1.305 1.305 0 0 1 1.445 1.363 1.144 1.144 0 0 1-.753 1.18l.895 1.363h-1.22l-.753-1.24Zm.61-1.75h-.61v.875h.61c.326 0 .509-.163.509-.427a.446.446 0 0 0-.51-.448M279.299 13.7a14.576 14.576 0 0 1 9.576 3.022v3.192a13.607 13.607 0 0 0-9.52-3.477c-7.467 0-12.94 5.815-12.94 15.278s5.473 15.277 12.94 15.277a13.658 13.658 0 0 0 9.52-3.534v3.25a14.571 14.571 0 0 1-9.576 3.02c-8.836 0-15.848-6.897-15.848-18.013S270.463 13.7 279.299 13.7ZM292.747 12.161h2.851v15.791a9.861 9.861 0 0 1 8.095-4.56c5.758 0 8.78 3.706 8.78 9.064v16.76h-2.794V32.855c0-3.933-1.995-6.841-6.499-6.841a8.473 8.473 0 0 0-7.582 5.472v17.73h-2.85ZM328.613 47.22a10.13 10.13 0 0 0 7.125-2.508v2.794a11.31 11.31 0 0 1-7.354 2.223c-7.068 0-11.8-5.017-11.8-12.94 0-7.81 4.219-13.397 10.945-13.397 6.613 0 10.033 5.016 10.033 12.37v1.026h-18.185c0 6.841 3.99 10.433 9.236 10.433Zm-9.121-12.769h15.334c-.171-4.446-2.28-8.55-7.297-8.55-4.161 0-7.354 3.078-8.037 8.55ZM352.654 14.783a5.346 5.346 0 0 0-2.565-.627c-2.68 0-4.618 1.939-4.618 5.473v4.275h5.929v2.452h-5.929v22.86h-2.793v-22.86h-4.105v-2.452h4.105v-4.56c0-4.617 3.021-7.695 7.126-7.695a7.481 7.481 0 0 1 2.85.512Z" />
</svg>
