<svg xmlns="http://www.w3.org/2000/svg" viewBox="0 0 363.95 60.47"><defs><style>.cls-1{fill:#4b4e52;}.cls-2{fill:#5ce500;}</style></defs><g id="Logos"><path class="cls-1" d="M360.2,26a3.73,3.73,0,1,1,3.69-3.73A3.66,3.66,0,0,1,360.2,26Zm0-6.83a3.1,3.1,0,1,0,3,3.1A3,3,0,0,0,360.2,19.16ZM359.77,23V24.2h-1.1V20.28h1.84A1.31,1.31,0,0,1,362,21.65a1.14,1.14,0,0,1-.76,1.18l.9,1.37h-1.23L360.12,23Zm.62-1.75h-.62v.88h.62c.32,0,.51-.17.51-.43A.45.45,0,0,0,360.39,21.2Z"/><path class="cls-2" d="M48.34,40.48a2,2,0,0,1-.9,1.56L34.93,49.26V21.4L10.81,7.47,23.32.26a2,2,0,0,1,1.8,0l23.22,13.4Zm-18.77-16L13.05,15a2,2,0,0,0-1.8,0L.09,21.4,17.51,31.46V51.58l11.16-6.44a2,2,0,0,0,.9-1.56ZM.09,41.52l12.05,7V34.55Z"/><path class="cls-1" d="M74.91,13.65H61.76V49.26H67.6v-14H75c8,0,12.35-3.89,12.35-11,0-3.2-1.21-10.67-12.4-10.67m6.47,10.77c0,4-2.08,5.65-7.19,5.65H67.6V18.91H75c4.32,0,6.42,1.81,6.42,5.51m23.29-1.1.44.21-1,5.26-.68-.21a5.76,5.76,0,0,0-1.68-.26c-5.45,0-5.9,4.34-5.9,9.59V49.26h-5.4V23.11h5.07v3.16a7,7,0,0,1,5.24-3.49,7.35,7.35,0,0,1,3.9.54M118,22.59c-4.25,0-7.66,1.61-9.85,4.68a15.69,15.69,0,0,0-2.64,9c0,8.26,4.9,13.6,12.49,13.6,9.22,0,12.5-7.43,12.5-13.79a14.64,14.64,0,0,0-3-9.35,11.8,11.8,0,0,0-9.45-4.1M118,45c-4.23,0-6.85-3.36-6.85-8.77s2.62-8.87,6.85-8.87,6.9,3.44,6.9,8.78S122.21,45,118,45m57.89-21.68.44.21-1,5.26-.68-.21a5.83,5.83,0,0,0-1.69-.26c-5.45,0-5.89,4.34-5.89,9.59V49.26h-5.4V23.11h5.07v3.16a7,7,0,0,1,5.24-3.49,7.36,7.36,0,0,1,3.9.54m19.4,17.55-.1.29a5.74,5.74,0,0,1-5.89,3.89c-4.09,0-6.72-2.71-7-7.12h18.48l.07-.51a16,16,0,0,0,.06-2.08c0-.17,0-.33,0-.48-.27-7.31-5-12.23-11.87-12.23a11.27,11.27,0,0,0-9.46,4.54,15.55,15.55,0,0,0-2.8,9.11c0,8.08,5,13.51,12.5,13.51,5.78,0,9.77-2.94,11.22-8.28l.17-.64Zm-12.78-7.63c.45-3.62,2.93-5.92,6.46-5.92a6.13,6.13,0,0,1,6.32,5.92Zm-30.67-7.93a9.22,9.22,0,0,0-6.95-2.72c-7.92,0-11.53,7-11.53,13.45,0,6.65,3.57,13.36,11.53,13.36a9.27,9.27,0,0,0,6.75-2.74c0,1.15-.05,2.25-.08,2.72-.3,4.31-2.37,6.32-6.52,6.32-2.26,0-4.86-.8-5.36-3.06l-.11-.49H134.2l.08.71c.56,4.61,4.61,7.47,10.56,7.47,5.23,0,8.95-2,10.75-5.69a18.31,18.31,0,0,0,1.32-7.76V23.11h-5.12Zm-6.61,19.26c-1.89,0-6.28-.85-6.28-8.77,0-5.2,2.46-8.44,6.42-8.44,3.06,0,6.33,2.22,6.33,8.44,0,5.49-2.42,8.77-6.47,8.77m80.66-3.18c0,4.15-3.45,8.35-11.16,8.35-6.82,0-10.88-3-11.42-8.31l-.06-.56h5.31l.08.4c.66,3.23,3.73,3.9,6.19,3.9,2.69,0,5.57-.87,5.57-3.3,0-1.24-.8-2.11-2.38-2.61-.94-.28-2.1-.6-3.32-.94-2.1-.59-4.28-1.2-5.62-1.67-3.31-1.18-5.21-3.5-5.21-6.34,0-5.27,5.13-7.63,10.21-7.63,6.8,0,10.32,2.56,10.76,7.82l0,.55H219.6l-.08-.41c-.52-3-3.54-3.49-5.29-3.49-1.51,0-5,.27-5,2.78,0,1.14,1,2,3,2.56l2.51.66c2.14.55,4.79,1.24,6.13,1.7,3.33,1.17,5,3.37,5,6.55m24.95,0c0,4.15-3.45,8.35-11.16,8.35-6.82,0-10.88-3-11.42-8.31l-.06-.56h5.32l.07.4c.66,3.23,3.73,3.9,6.19,3.9,2.69,0,5.57-.87,5.57-3.3,0-1.24-.8-2.11-2.38-2.61-.94-.28-2.1-.6-3.32-.94-2.1-.59-4.28-1.2-5.61-1.67-3.32-1.18-5.22-3.5-5.22-6.34,0-5.27,5.13-7.63,10.21-7.63,6.8,0,10.32,2.56,10.76,7.82l0,.55h-5.23l-.08-.41c-.52-3-3.54-3.49-5.29-3.49-1.51,0-5,.27-5,2.78,0,1.14,1,2,3,2.56l2.51.66c2.14.55,4.79,1.24,6.13,1.7,3.33,1.17,5,3.37,5,6.55"/><path class="cls-1" d="M255.06,25.92a3.73,3.73,0,1,1,3.68-3.73,3.66,3.66,0,0,1-3.68,3.73m0-6.82a3.1,3.1,0,1,0,3,3.09,3,3,0,0,0-3-3.09m-.43,3.78v1.25h-1.09V20.22h1.83a1.3,1.3,0,0,1,1.44,1.36,1.14,1.14,0,0,1-.75,1.18l.89,1.37h-1.22L255,22.88Zm.61-1.75h-.61V22h.61c.33,0,.51-.16.51-.43a.45.45,0,0,0-.51-.45"/><path class="cls-1" d="M279.39,13.74a14.54,14.54,0,0,1,9.57,3V20a13.62,13.62,0,0,0-9.52-3.47c-7.46,0-12.94,5.81-12.94,15.28S272,47,279.44,47A13.63,13.63,0,0,0,289,43.5v3.25a14.54,14.54,0,0,1-9.57,3c-8.84,0-15.85-6.9-15.85-18S270.55,13.74,279.39,13.74Z"/><path class="cls-1" d="M292.84,12.2h2.85V28a9.87,9.87,0,0,1,8.09-4.56c5.76,0,8.78,3.71,8.78,9.07V49.26h-2.79V32.9c0-3.94-2-6.85-6.5-6.85a8.47,8.47,0,0,0-7.58,5.48V49.26h-2.85Z"/><path class="cls-1" d="M328.7,47.26a10.12,10.12,0,0,0,7.13-2.51v2.8a11.31,11.31,0,0,1-7.36,2.22c-7.07,0-11.8-5-11.8-12.94s4.22-13.4,10.95-13.4,10,5,10,12.37v1H319.47C319.47,43.67,323.46,47.26,328.7,47.26Zm-9.12-12.77h15.33c-.17-4.44-2.28-8.55-7.29-8.55C323.46,25.94,320.26,29,319.58,34.49Z"/><path class="cls-1" d="M352.74,14.82a5.41,5.41,0,0,0-2.56-.62c-2.68,0-4.62,1.94-4.62,5.47V24h5.93V26.4h-5.93V49.26h-2.79V26.4h-4.11V24h4.11V19.38c0-4.61,3-7.69,7.12-7.69a7.47,7.47,0,0,1,2.85.51Z"/></g></svg>