<svg xmlns="http://www.w3.org/2000/svg" width="458" height="260" fill="none" viewBox="0 0 458 260"><rect width="458" height="260" fill="#fff8f0" rx="6"/><g filter="url(#filter0_d_ctm)"><rect width="84" height="64" x="25" y="98" fill="#fff" rx="10" shape-rendering="crispEdges"/><rect width="83" height="63" x="25.5" y="98.5" stroke="#ff9800" rx="9.5" shape-rendering="crispEdges"/><rect width="28" height="24" x="53" y="109" stroke="#000" stroke-width="1.5" rx="3"/><path stroke="#000" stroke-width="1.5" d="M53 116h28"/><path stroke="#000" stroke-linecap="round" stroke-width="1.5" d="M60 106v6m14-6v6"/><rect width="4" height="4" x="58" y="120" fill="#000" rx=".5"/><rect width="4" height="4" x="65" y="120" fill="#000" rx=".5"/><rect width="4" height="4" x="72" y="120" fill="#000" rx=".5"/><rect width="4" height="4" x="58" y="126" fill="#000" rx=".5"/><rect width="4" height="4" x="65" y="126" fill="#000" rx=".5"/><text x="67" y="152" fill="currentColor" font-family="-apple-system,BlinkMacSystemFont,sans-serif" font-size="9.5" font-weight="700" text-anchor="middle">Schedule</text></g><g filter="url(#filter1_d_ctm)"><rect width="84" height="64" x="132.334" y="98" fill="#fff" rx="10" shape-rendering="crispEdges"/><rect width="83" height="63" x="132.834" y="98.5" stroke="#ff9800" rx="9.5" shape-rendering="crispEdges"/><rect width="12" height="18" x="157" y="112" stroke="#000" stroke-width="1.5" rx="2"/><rect width="6" height="1.5" x="160" y="116" fill="#000" rx=".5"/><rect width="6" height="1.5" x="160" y="119" fill="#000" rx=".5"/><circle cx="163" cy="125" r="1.5" fill="#000"/><path stroke="#000" stroke-linecap="round" stroke-width="1.2" d="m169 117 9-6m-9 10h9m-9 4 9 6"/><rect width="8" height="8" x="178" y="107" stroke="#000" stroke-width="1.2" rx="2"/><rect width="8" height="8" x="178" y="117" stroke="#000" stroke-width="1.2" rx="2"/><rect width="8" height="8" x="178" y="127" stroke="#000" stroke-width="1.2" rx="2"/><text x="174.334" y="152" fill="currentColor" font-family="-apple-system,BlinkMacSystemFont,sans-serif" font-size="9.5" font-weight="700" text-anchor="middle">Dispatch</text></g><g filter="url(#filter2_d_ctm)"><rect width="85" height="64" x="239.666" y="98" fill="#fff" rx="10" shape-rendering="crispEdges"/><rect width="84" height="63" x="240.166" y="98.5" stroke="#ff9800" rx="9.5" shape-rendering="crispEdges"/><rect width="28" height="24" x="268" y="109" stroke="#000" stroke-width="1.5" rx="3"/><path stroke="#000" stroke-linecap="round" stroke-linejoin="round" stroke-width="1.5" d="m273 118 6 4-6 4"/><path stroke="#000" stroke-linecap="round" stroke-width="1.5" d="M281 127h10"/><text x="282.166" y="152" fill="currentColor" font-family="-apple-system,BlinkMacSystemFont,sans-serif" font-size="9.5" font-weight="700" text-anchor="middle">Execute</text></g><g filter="url(#filter3_d_ctm)"><rect width="85" height="64" x="348" y="98" fill="#fff" rx="10" shape-rendering="crispEdges"/><rect width="84" height="63" x="348.5" y="98.5" stroke="#ff9800" rx="9.5" shape-rendering="crispEdges"/><rect width="28" height="24" x="377" y="109" stroke="#000" stroke-width="1.5" rx="3"/><rect width="4" height="6" x="382" y="123" fill="#000" rx=".5"/><rect width="4" height="11" x="389" y="118" fill="#000" rx=".5"/><rect width="4" height="14" x="396" y="115" fill="#000" rx=".5"/><path stroke="#000" stroke-linecap="round" stroke-width="1.2" d="m384 117 7-3 7-2"/><circle cx="384" cy="117" r="1.5" fill="#000"/><circle cx="391" cy="114" r="1.5" fill="#000"/><circle cx="398" cy="112" r="1.5" fill="#000"/><text x="390.5" y="152" fill="currentColor" font-family="-apple-system,BlinkMacSystemFont,sans-serif" font-size="9.5" font-weight="700" text-anchor="middle">Report</text></g><path fill="currentColor" d="m129.209 130-10-5.774v11.548zm-18.168 0v1h9.168v-2h-9.168zm126.043 0-10-5.774v11.548zm-18.168 0v1h9.168v-2h-9.168zm126.5 0-10-5.774v11.548zm-18.168 0v1h9.168v-2h-9.168z"/><defs><filter id="filter0_d_ctm" width="84" height="67" x="25" y="98" color-interpolation-filters="sRGB" filterUnits="userSpaceOnUse"><feFlood flood-opacity="0" result="BackgroundImageFix"/><feColorMatrix in="SourceAlpha" result="hardAlpha" values="0 0 0 0 0 0 0 0 0 0 0 0 0 0 0 0 0 0 127 0"/><feOffset dy="3"/><feComposite in2="hardAlpha" operator="out"/><feColorMatrix values="0 0 0 0 1 0 0 0 0 0.596 0 0 0 0 0 0 0 0 1 0"/><feBlend in2="BackgroundImageFix" result="effect1_dropShadow_ctm"/><feBlend in="SourceGraphic" in2="effect1_dropShadow_ctm" result="shape"/></filter><filter id="filter1_d_ctm" width="84" height="67" x="132.334" y="98" color-interpolation-filters="sRGB" filterUnits="userSpaceOnUse"><feFlood flood-opacity="0" result="BackgroundImageFix"/><feColorMatrix in="SourceAlpha" result="hardAlpha" values="0 0 0 0 0 0 0 0 0 0 0 0 0 0 0 0 0 0 127 0"/><feOffset dy="3"/><feComposite in2="hardAlpha" operator="out"/><feColorMatrix values="0 0 0 0 1 0 0 0 0 0.596 0 0 0 0 0 0 0 0 1 0"/><feBlend in2="BackgroundImageFix" result="effect1_dropShadow_ctm"/><feBlend in="SourceGraphic" in2="effect1_dropShadow_ctm" result="shape"/></filter><filter id="filter2_d_ctm" width="85" height="67" x="239.666" y="98" color-interpolation-filters="sRGB" filterUnits="userSpaceOnUse"><feFlood flood-opacity="0" result="BackgroundImageFix"/><feColorMatrix in="SourceAlpha" result="hardAlpha" values="0 0 0 0 0 0 0 0 0 0 0 0 0 0 0 0 0 0 127 0"/><feOffset dy="3"/><feComposite in2="hardAlpha" operator="out"/><feColorMatrix values="0 0 0 0 1 0 0 0 0 0.596 0 0 0 0 0 0 0 0 1 0"/><feBlend in2="BackgroundImageFix" result="effect1_dropShadow_ctm"/><feBlend in="SourceGraphic" in2="effect1_dropShadow_ctm" result="shape"/></filter><filter id="filter3_d_ctm" width="85" height="67" x="348" y="98" color-interpolation-filters="sRGB" filterUnits="userSpaceOnUse"><feFlood flood-opacity="0" result="BackgroundImageFix"/><feColorMatrix in="SourceAlpha" result="hardAlpha" values="0 0 0 0 0 0 0 0 0 0 0 0 0 0 0 0 0 0 127 0"/><feOffset dy="3"/><feComposite in2="hardAlpha" operator="out"/><feColorMatrix values="0 0 0 0 1 0 0 0 0 0.596 0 0 0 0 0 0 0 0 1 0"/><feBlend in2="BackgroundImageFix" result="effect1_dropShadow_ctm"/><feBlend in="SourceGraphic" in2="effect1_dropShadow_ctm" result="shape"/></filter></defs></svg>