<svg xmlns="http://www.w3.org/2000/svg" viewBox="0 0 60.6 96" width="31" height="31">
  <path fill="#FE5000" d="M7.8,96C4,96,0,93,0,87.2V73.6C0,68.2,3.4,62,8.2,59.4l19-11.2L8.2,37C3.6,34,0,28,0,22.6V8.8C0,3,4,0,8,0c1.6,0,3.4,0.4,5,1.4l42.8,25.4c3,1.8,4.6,4.6,4.6,7.4c0,3-1.8,5.8-4.6,7.4l-10.2,6l10.2,6c3,1.8,4.8,4.6,4.8,7.4c0,3-1.8,5.8-4.8,7.4L13,94.6C11.2,95.6,9.6,96,7.8,96z M36.4,53.6L13,67.4c-1.8,1-3.6,4.2-3.6,6.2v12.2l40.6-24L36.4,53.6z M9.4,10.4v12.2c0,2,1.8,5.2,3.6,6.2l23.4,13.8l13.8-8.2L9.4,10.4z"/>
</svg>
