<svg width="185" height="50" viewBox="0 0 76 32" fill="none" xmlns="http://www.w3.org/2000/svg">
    <g id="BMC Logo">
        <path id="Vector" d="M35.9523 19.0458C35.9523 21.3062 34.6897 22.9682 32.6283 22.9682C31.4987 22.9682 30.501 22.3698 30.0357 21.3734V16.7208C30.4351 15.7903 31.4987 15.126 32.6283 15.126C34.6883 15.126 35.9523 16.7881 35.9523 19.0471M39.8075 19.1143C39.8075 15.126 37.5471 11.802 33.4929 11.802C32.0299 11.802 30.6341 12.5335 30.0371 13.265V5.81818H26.1819V26.026H30.0371V24.8965C30.6355 25.628 32.0312 26.3595 33.4929 26.3595C37.5471 26.3595 39.8075 23.1027 39.8075 19.1143ZM57.4886 26.0273H61.3438V16.9198C61.3438 13.7961 59.6159 11.802 56.7571 11.802C54.763 11.802 53.4331 12.5994 52.5026 13.5971C51.7052 12.5335 50.4425 11.802 48.7805 11.802C47.2516 11.802 45.9217 12.4004 45.2575 13.265V12.1355H41.5354V26.0287H45.3906V17.053C45.6568 15.8562 46.5874 15.2578 47.5838 15.2578C48.9136 15.2578 49.512 16.2542 49.512 17.7172V26.026H53.3672V17.053C53.5662 15.8562 54.4967 15.2578 55.4945 15.2578C56.8244 15.2578 57.4886 16.2542 57.4886 17.7172V26.026V26.0273ZM71.8471 16.7881H75.6364C75.237 13.8634 73.0439 11.8033 69.5208 11.8033C65.5984 11.8033 62.8741 14.728 62.8068 18.9826C62.8068 23.2371 65.5984 26.2277 69.5208 26.2277C73.0439 26.2277 75.237 24.2335 75.6364 21.243H71.8471C71.5809 22.3066 70.7835 22.9709 69.5208 22.9709C67.7257 22.9709 66.662 21.3761 66.662 19.0485C66.662 16.7208 67.7257 15.0601 69.5208 15.0601C70.7835 15.0601 71.6481 15.7244 71.8471 16.7881Z" fill="white"/>
        <path id="Vector_2" d="M3.13284 3.46729V7.53338C3.13284 8.19959 3.73297 9.26635 4.33311 9.59946L12.1335 14.1996L16.7336 11.4659L3.13284 3.46729ZM12.1335 17.8678L4.33311 22.468C3.73297 22.8011 3.13284 23.8678 3.13284 24.5354V28.6015L16.6662 20.6015L12.1335 17.8678ZM2.60013 32C1.33378 32 0 31.0007 0 29.0667V24.534C0 22.7336 1.13284 20.6676 2.73365 19.8004L9.06675 16.0674L2.73365 12.3345C1.20027 11.3338 0 9.33378 0 7.53338V2.93324C0 0.999325 1.33378 0 2.66622 0C3.19892 0 3.79905 0.133513 4.33311 0.466622L18.6001 8.93324C19.5994 9.53337 20.1335 10.4666 20.1335 11.3999C20.1335 12.3992 19.5334 13.3338 18.6001 13.8665L15.2003 15.8665L18.6001 17.8665C19.5994 18.4666 20.1996 19.3999 20.1996 20.3331C20.1996 21.3338 19.5994 22.267 18.6001 22.7997L4.33311 31.5334C3.73297 31.8665 3.20027 32 2.60013 32Z" fill="white"/>
    </g>
</svg>
