<svg width="36" height="36" viewBox="0 0 36 36" fill="none" xmlns="http://www.w3.org/2000/svg">
<path d="M14.1354 28.6336C14.1358 28.7627 14.1628 28.8908 14.2148 29.009C14.2667 29.1273 14.3426 29.2338 14.4375 29.3215C14.5324 29.4094 14.6444 29.4765 14.7665 29.519C14.8885 29.5616 15.018 29.5786 15.1469 29.5686C20.0457 29.2181 24.6725 25.751 26.1497 20.3362C26.2271 20.0248 26.4608 19.8686 26.7722 19.8686C26.9319 19.875 27.0823 19.9441 27.1914 20.0609C27.3004 20.1776 27.359 20.3327 27.3547 20.4924C27.3547 21.6998 25.8028 24.8552 23.5833 26.6863C23.4702 26.7814 23.38 26.901 23.3195 27.036C23.259 27.1707 23.2296 27.3176 23.2337 27.4654C23.2359 27.5855 23.2619 27.704 23.31 27.8144C23.3582 27.9244 23.4276 28.0239 23.5143 28.1072C23.6009 28.1903 23.7032 28.2556 23.8151 28.2993C23.9271 28.343 24.0466 28.3639 24.1667 28.3613C24.3612 28.3613 24.6725 28.2446 25.0614 27.8938C26.6133 26.4908 29.5712 22.5564 29.5712 18.232C29.5712 11.8919 24.6697 6.42856 17.8291 6.42856C11.7252 6.42856 6.4375 11.4152 6.4375 17.1808C6.4375 20.9984 9.47027 23.8807 13.4744 23.8807C16.5464 23.8807 19.3847 21.6998 20.1626 18.6996C20.2402 18.3881 20.473 18.232 20.7843 18.232C20.9439 18.2384 21.0947 18.3075 21.2038 18.4242C21.313 18.5409 21.3718 18.696 21.3677 18.8558C21.3677 20.2193 18.8014 24.9748 13.5913 24.9748C12.3469 24.9748 10.7922 24.6241 9.70306 24.0004C9.55726 23.9297 9.39845 23.8899 9.23655 23.8834C9.11261 23.8787 8.989 23.8996 8.87352 23.945C8.75806 23.9903 8.6532 24.0591 8.56556 24.1469C8.47795 24.2347 8.40943 24.3398 8.36432 24.4554C8.31925 24.571 8.29855 24.6947 8.30353 24.8187C8.30857 24.9775 8.35406 25.1324 8.43571 25.2688C8.51735 25.4051 8.63242 25.5183 8.77004 25.5977C10.2088 26.4196 11.9197 26.8444 13.6689 26.8444C18.0236 26.8444 21.9893 23.8834 23.1561 19.5207C23.2337 19.2092 23.4674 19.053 23.7778 19.053C23.9375 19.0595 24.0882 19.1285 24.1974 19.2453C24.3065 19.362 24.3654 19.517 24.3612 19.6768C24.3612 21.4687 21.1732 27.2342 15.0301 27.702C14.7924 27.7195 14.5696 27.8244 14.4045 27.9964C14.2393 28.1682 14.1435 28.3952 14.1354 28.6336Z" fill="#DEDEFC"/>
<path d="M20.2228 13.7139C21.0613 13.7077 21.8843 13.9395 22.5964 14.3824C22.6683 13.9885 22.708 13.5892 22.7151 13.1888C22.7151 11.3393 21.3055 9.68265 19.5892 9.68265C18.2545 9.68265 17.42 10.7886 17.42 12.1549C17.4137 12.893 17.6729 13.6088 18.1504 14.1715C18.7973 13.8629 19.5061 13.7064 20.2228 13.7139Z" fill="white"/>
<path d="M24.2442 20.4139C24.4825 19.5992 24.5875 19.0339 24.5875 18.6667C24.5802 18.5082 24.5123 18.3585 24.3977 18.2487C24.2832 18.1388 24.1308 18.0773 23.9722 18.0768C23.8243 18.0795 23.6817 18.1316 23.5669 18.2248C23.4521 18.3179 23.3717 18.4468 23.3386 18.5909C23.2738 18.8585 23.135 19.5837 22.998 20.044C23.0546 19.8717 23.1064 19.6966 23.1532 19.5188C23.2308 19.2065 23.4646 19.0512 23.775 19.0512C23.9345 19.0574 24.0852 19.1263 24.1945 19.2428C24.3036 19.3594 24.3625 19.5144 24.3583 19.6741C24.351 19.9251 24.3108 20.1742 24.2387 20.4148L24.2442 20.4139Z" fill="#C9C6FA"/>
<path d="M27.55 19.5626C27.5426 19.4043 27.4747 19.2549 27.3605 19.1451C27.2461 19.0354 27.0941 18.9737 26.9357 18.9727C26.7881 18.9756 26.6457 19.0278 26.531 19.121C26.4163 19.2141 26.3361 19.3429 26.3029 19.4868C26.2373 19.7608 26.0959 20.4969 25.957 20.9563H25.9635C26.0308 20.7518 26.0938 20.5444 26.146 20.3335C26.2237 20.0211 26.4572 19.8659 26.7686 19.8659C26.928 19.8721 27.0787 19.9409 27.1877 20.0575C27.2967 20.1742 27.3556 20.3291 27.351 20.4887C27.3466 20.6826 27.3199 20.8754 27.2715 21.0632C27.4652 20.3837 27.55 19.8924 27.55 19.5626Z" fill="#C9C6FA"/>
<path d="M20.2228 13.7139C20.6395 13.7131 21.0544 13.7687 21.4562 13.8792C21.6671 13.5915 21.7725 13.2398 21.7547 12.8834C21.7368 12.527 21.5968 12.1876 21.3581 11.9224C21.1195 11.6572 20.7968 11.4823 20.4443 11.4271C20.0919 11.372 19.7313 11.4401 19.4231 11.6197L20.0622 12.6719L18.8653 12.154C18.7032 12.4157 18.6219 12.7195 18.6316 13.0272C18.6414 13.3349 18.7417 13.6329 18.9201 13.8838C19.3448 13.7693 19.783 13.7122 20.2228 13.7139Z" fill="#163B36"/>
<path d="M11.0028 20.4851C11.507 20.4851 11.9157 20.0762 11.9157 19.5718C11.9157 19.0674 11.507 18.6585 11.0028 18.6585C10.4986 18.6585 10.0898 19.0674 10.0898 19.5718C10.0898 20.0762 10.4986 20.4851 11.0028 20.4851Z" fill="#C9C6FA"/>
<path d="M11.0028 16.8319C11.507 16.8319 11.9157 16.423 11.9157 15.9186C11.9157 15.4142 11.507 15.0053 11.0028 15.0053C10.4986 15.0053 10.0898 15.4142 10.0898 15.9186C10.0898 16.423 10.4986 16.8319 11.0028 16.8319Z" fill="#C9C6FA"/>
<path d="M9.17661 18.6585C9.68081 18.6585 10.0895 18.2496 10.0895 17.7452C10.0895 17.2408 9.68081 16.8319 9.17661 16.8319C8.6724 16.8319 8.26367 17.2408 8.26367 17.7452C8.26367 18.2496 8.6724 18.6585 9.17661 18.6585Z" fill="#C9C6FA"/>
<path d="M13.2839 23.8789H13.4665C16.5385 23.8789 19.3768 21.698 20.1546 18.6978C20.2322 18.3864 20.465 18.2302 20.7763 18.2302C20.936 18.2366 21.0867 18.3057 21.1959 18.4224C21.305 18.5391 21.3639 18.6942 21.3597 18.854C21.3458 19.1728 21.2737 19.4863 21.147 19.7791C21.169 19.7451 21.1882 19.7094 21.2045 19.6723C21.4355 19.1441 21.5548 18.5738 21.5551 17.9973C21.5551 17.1014 20.9324 16.5168 20.0387 16.5168C18.4803 16.5168 18.1681 17.8777 17.5108 19.3325C16.8288 20.8431 15.5763 22.477 12.4175 22.477C9.1355 22.477 5.76312 20.1782 6.58567 15.504C6.59573 15.4456 6.60393 15.3935 6.61033 15.3451C6.48978 15.949 6.42863 16.5632 6.42773 17.179C6.43686 20.9418 9.37559 23.7912 13.2839 23.8789Z" fill="#C9C6FA"/>
</svg>
