<svg width="458" height="260" viewBox="0 0 458 260" fill="none" xmlns="http://www.w3.org/2000/svg">
<rect width="458" height="260" rx="6" fill="#ECF3FF"/>
<g filter="url(#filter0_d_21626_26986)">
<rect x="25" y="98" width="84" height="64" rx="10" fill="white" shape-rendering="crispEdges"/>
<rect x="25.5" y="98.5" width="83" height="63" rx="9.5" stroke="#67A1FF" shape-rendering="crispEdges"/>
<path d="M77 129.5H57V117H77M77 114.5H67L64.5 112H57C56.337 112 55.7011 112.263 55.2322 112.732C54.7634 113.201 54.5 113.837 54.5 114.5V129.5C54.5 130.163 54.7634 130.799 55.2322 131.268C55.7011 131.737 56.337 132 57 132H77C77.663 132 78.2989 131.737 78.7678 131.268C79.2366 130.799 79.5 130.163 79.5 129.5V117C79.5 116.337 79.2366 115.701 78.7678 115.232C78.2989 114.763 77.663 114.5 77 114.5ZM70.75 127H59.5V124.5H70.75V127ZM74.5 122H59.5V119.5H74.5V122Z" fill="black"/>
<path d="M49.2643 153.099C48.553 153.099 47.9626 152.989 47.4933 152.769C47.024 152.549 46.672 152.245 46.4373 151.856C46.2026 151.46 46.0816 151.005 46.0743 150.492L47.3063 150.492C47.3136 150.829 47.387 151.126 47.5263 151.383C47.673 151.632 47.8893 151.823 48.1753 151.955C48.4613 152.087 48.8316 152.153 49.2863 152.153C49.851 152.153 50.302 152.05 50.6393 151.845C50.984 151.64 51.1563 151.324 51.1563 150.899C51.1563 150.657 51.1196 150.455 51.0463 150.294C50.973 150.133 50.852 150.001 50.6833 149.898C50.522 149.788 50.3056 149.696 50.0343 149.623C49.763 149.55 49.433 149.48 49.0443 149.414C48.5823 149.333 48.1753 149.238 47.8233 149.128C47.4786 149.011 47.189 148.868 46.9543 148.699C46.727 148.523 46.5546 148.31 46.4373 148.061C46.32 147.812 46.2613 147.518 46.2613 147.181C46.2613 146.712 46.3786 146.305 46.6133 145.96C46.848 145.615 47.1853 145.351 47.6253 145.168C48.0653 144.985 48.5933 144.893 49.2093 144.893C49.8253 144.893 50.3496 144.992 50.7823 145.19C51.215 145.381 51.5486 145.652 51.7833 146.004C52.018 146.349 52.139 146.759 52.1463 147.236L50.9253 147.236C50.918 146.913 50.8373 146.649 50.6833 146.444C50.5366 146.231 50.3313 146.074 50.0673 145.971C49.8106 145.868 49.51 145.817 49.1653 145.817C48.8133 145.817 48.5126 145.868 48.2633 145.971C48.0213 146.066 47.8343 146.206 47.7023 146.389C47.5703 146.565 47.5043 146.774 47.5043 147.016C47.5043 147.309 47.574 147.537 47.7133 147.698C47.86 147.859 48.091 147.988 48.4063 148.083C48.7216 148.171 49.136 148.263 49.6493 148.358C50.0086 148.409 50.3496 148.483 50.6723 148.578C51.0023 148.673 51.2956 148.805 51.5523 148.974C51.8163 149.143 52.0216 149.374 52.1683 149.667C52.3223 149.953 52.3993 150.327 52.3993 150.789C52.3993 151.244 52.2783 151.647 52.0363 151.999C51.8016 152.344 51.4496 152.615 50.9803 152.813C50.5183 153.004 49.9463 153.099 49.2643 153.099ZM56.1298 153.099C55.7044 153.099 55.3158 153.029 54.9638 152.89C54.6191 152.751 54.3221 152.549 54.0728 152.285C53.8234 152.021 53.6291 151.706 53.4898 151.339C53.3504 150.972 53.2808 150.562 53.2808 150.107C53.2808 149.506 53.3944 148.981 53.6218 148.534C53.8564 148.079 54.1864 147.727 54.6118 147.478C55.0444 147.221 55.5504 147.093 56.1298 147.093C56.5551 147.093 56.9401 147.163 57.2848 147.302C57.6368 147.434 57.9374 147.632 58.1868 147.896C58.4361 148.16 58.6268 148.479 58.7588 148.853C58.8981 149.22 58.9678 149.634 58.9678 150.096C58.9678 150.69 58.8541 151.214 58.6268 151.669C58.3994 152.116 58.0731 152.468 57.6478 152.725C57.2224 152.974 56.7164 153.099 56.1298 153.099ZM56.1298 152.153C56.4671 152.153 56.7604 152.076 57.0098 151.922C57.2664 151.761 57.4644 151.526 57.6038 151.218C57.7431 150.91 57.8128 150.536 57.8128 150.096C57.8128 149.766 57.7724 149.476 57.6918 149.227C57.6184 148.97 57.5084 148.754 57.3618 148.578C57.2151 148.395 57.0391 148.259 56.8338 148.171C56.6284 148.076 56.3938 148.028 56.1298 148.028C55.7924 148.028 55.4954 148.109 55.2388 148.27C54.9894 148.431 54.7914 148.666 54.6448 148.974C54.5054 149.275 54.4358 149.652 54.4358 150.107C54.4358 150.43 54.4724 150.719 54.5458 150.976C54.6264 151.225 54.7401 151.438 54.8868 151.614C55.0408 151.79 55.2204 151.926 55.4258 152.021C55.6384 152.109 55.8731 152.153 56.1298 152.153ZM62.1893 153.099C61.7566 153.099 61.3826 153.015 61.0673 152.846C60.752 152.67 60.51 152.41 60.3413 152.065C60.18 151.713 60.0993 151.28 60.0993 150.767L60.0993 147.181L61.2323 147.181L61.2323 150.481C61.2323 150.84 61.2763 151.145 61.3643 151.394C61.4596 151.643 61.61 151.834 61.8153 151.966C62.0206 152.091 62.2846 152.153 62.6073 152.153C62.93 152.153 63.2086 152.076 63.4433 151.922C63.6853 151.768 63.8723 151.552 64.0043 151.273C64.1363 150.994 64.2023 150.679 64.2023 150.327L64.2023 147.181L65.3353 147.181L65.3353 153L64.2573 153L64.2023 151.823L64.1363 151.823C63.9896 152.219 63.7403 152.531 63.3883 152.758C63.0363 152.985 62.6366 153.099 62.1893 153.099ZM66.8682 153L66.8682 147.181L67.8802 147.181L67.9352 148.215L67.9902 148.215C68.1148 147.841 68.3312 147.562 68.6392 147.379C68.9472 147.196 69.2918 147.104 69.6732 147.104C69.7392 147.104 69.7978 147.108 69.8492 147.115C69.9078 147.115 69.9628 147.119 70.0142 147.126L70.0142 148.193C69.9702 148.186 69.9152 148.182 69.8492 148.182C69.7905 148.182 69.7282 148.182 69.6622 148.182C69.3175 148.182 69.0242 148.241 68.7822 148.358C68.5402 148.475 68.3532 148.648 68.2212 148.875C68.0892 149.095 68.0122 149.363 67.9902 149.678L67.9902 153L66.8682 153ZM73.2523 153.099C72.827 153.099 72.4383 153.029 72.0863 152.89C71.7416 152.743 71.4446 152.538 71.1953 152.274C70.9533 152.01 70.7626 151.695 70.6233 151.328C70.4913 150.961 70.4253 150.551 70.4253 150.096C70.4253 149.495 70.5426 148.97 70.7773 148.523C71.012 148.068 71.3456 147.716 71.7783 147.467C72.211 147.218 72.717 147.093 73.2963 147.093C73.7656 147.093 74.1836 147.181 74.5503 147.357C74.9243 147.533 75.2213 147.779 75.4413 148.094C75.6686 148.409 75.797 148.776 75.8263 149.194L74.7263 149.194C74.6823 148.937 74.5906 148.725 74.4513 148.556C74.312 148.387 74.1396 148.259 73.9343 148.171C73.7363 148.083 73.5126 148.039 73.2633 148.039C72.904 148.039 72.5996 148.127 72.3503 148.303C72.101 148.472 71.9103 148.71 71.7783 149.018C71.6463 149.326 71.5803 149.689 71.5803 150.107C71.5803 150.54 71.65 150.91 71.7893 151.218C71.9286 151.519 72.123 151.75 72.3723 151.911C72.6216 152.072 72.915 152.153 73.2523 152.153C73.5383 152.153 73.7876 152.102 74.0003 151.999C74.213 151.896 74.3816 151.753 74.5063 151.57C74.6383 151.379 74.719 151.163 74.7483 150.921L75.8483 150.921C75.819 151.361 75.6906 151.746 75.4633 152.076C75.236 152.399 74.9316 152.652 74.5503 152.835C74.169 153.011 73.7363 153.099 73.2523 153.099ZM79.4181 153.099C78.8387 153.099 78.3364 152.978 77.9111 152.736C77.4931 152.487 77.1704 152.138 76.9431 151.691C76.7157 151.236 76.6021 150.712 76.6021 150.118C76.6021 149.502 76.7157 148.967 76.9431 148.512C77.1704 148.057 77.4894 147.709 77.9001 147.467C78.3181 147.218 78.8094 147.093 79.3741 147.093C80.0121 147.093 80.5364 147.236 80.9471 147.522C81.3651 147.801 81.6657 148.186 81.8491 148.677C82.0324 149.161 82.0947 149.707 82.0361 150.316L77.7241 150.316C77.7314 150.712 77.8047 151.053 77.9441 151.339C78.0834 151.618 78.2777 151.83 78.5271 151.977C78.7837 152.124 79.0807 152.197 79.4181 152.197C79.8067 152.197 80.1367 152.109 80.4081 151.933C80.6794 151.75 80.8517 151.508 80.9251 151.207L82.0031 151.207C81.9517 151.588 81.8087 151.922 81.5741 152.208C81.3394 152.487 81.0351 152.707 80.6611 152.868C80.2944 153.022 79.8801 153.099 79.4181 153.099ZM77.7351 149.678L77.6251 149.513L81.0351 149.513L80.9251 149.7C80.9397 149.297 80.8774 148.97 80.7381 148.721C80.6061 148.464 80.4191 148.277 80.1771 148.16C79.9424 148.043 79.6711 147.984 79.3631 147.984C79.0404 147.984 78.7581 148.054 78.5161 148.193C78.2741 148.325 78.0871 148.519 77.9551 148.776C77.8231 149.033 77.7497 149.333 77.7351 149.678ZM85.4278 153.11C84.6284 153.11 84.0124 152.934 83.5797 152.582C83.1544 152.223 82.9417 151.753 82.9417 151.174L84.0638 151.174C84.0638 151.57 84.1958 151.86 84.4598 152.043C84.7238 152.219 85.0574 152.307 85.4608 152.307C85.8788 152.307 86.1941 152.234 86.4068 152.087C86.6268 151.933 86.7368 151.72 86.7368 151.449C86.7368 151.229 86.6891 151.06 86.5938 150.943C86.4984 150.826 86.3481 150.738 86.1428 150.679C85.9374 150.613 85.6698 150.554 85.3398 150.503C85.0098 150.459 84.7091 150.404 84.4377 150.338C84.1664 150.265 83.9281 150.166 83.7228 150.041C83.5248 149.916 83.3707 149.755 83.2607 149.557C83.1581 149.359 83.1067 149.113 83.1067 148.82C83.1067 148.446 83.2021 148.131 83.3928 147.874C83.5908 147.617 83.8658 147.419 84.2178 147.28C84.5698 147.141 84.9804 147.071 85.4498 147.071C85.9338 147.071 86.3444 147.144 86.6818 147.291C87.0264 147.438 87.2904 147.647 87.4738 147.918C87.6644 148.189 87.7634 148.516 87.7708 148.897L86.6598 148.897C86.6598 148.662 86.6084 148.472 86.5058 148.325C86.4031 148.171 86.2601 148.057 86.0768 147.984C85.8934 147.911 85.6771 147.874 85.4278 147.874C85.0464 147.874 84.7531 147.951 84.5478 148.105C84.3424 148.259 84.2398 148.461 84.2398 148.71C84.2398 148.893 84.2911 149.044 84.3938 149.161C84.4964 149.278 84.6541 149.37 84.8668 149.436C85.0794 149.495 85.3471 149.546 85.6698 149.59C85.9778 149.634 86.2638 149.689 86.5278 149.755C86.7918 149.821 87.0264 149.916 87.2318 150.041C87.4371 150.158 87.5984 150.323 87.7158 150.536C87.8331 150.749 87.8918 151.02 87.8918 151.35C87.8918 151.944 87.6718 152.388 87.2318 152.681C86.7918 152.967 86.1904 153.11 85.4278 153.11Z" fill="black"/>
</g>
<g filter="url(#filter1_d_21626_26986)">
<rect x="132.334" y="98" width="84" height="64" rx="10" fill="white" shape-rendering="crispEdges"/>
<rect x="132.834" y="98.5" width="83" height="63" rx="9.5" stroke="#67A1FF" shape-rendering="crispEdges"/>
<path d="M186.471 132.363L184.696 134.137C184.461 134.37 184.145 134.501 183.814 134.501C183.484 134.501 183.167 134.37 182.933 134.137L168.083 119.312C167.677 119.43 167.256 119.493 166.833 119.5C166.037 119.499 165.253 119.309 164.546 118.944C163.838 118.58 163.228 118.051 162.766 117.403C162.304 116.755 162.003 116.006 161.889 115.219C161.774 114.431 161.849 113.628 162.108 112.875L165.283 116.05L165.946 115.387L167.721 113.613L168.383 112.95L165.208 109.775C165.961 109.516 166.764 109.441 167.552 109.556C168.339 109.67 169.088 109.971 169.736 110.433C170.384 110.895 170.913 111.505 171.277 112.212C171.642 112.92 171.832 113.704 171.833 114.5C171.826 114.923 171.763 115.344 171.646 115.75L186.471 130.6C186.703 130.834 186.834 131.151 186.834 131.481C186.834 131.811 186.703 132.128 186.471 132.363ZM162.196 130.6C161.963 130.834 161.832 131.151 161.832 131.481C161.832 131.811 161.963 132.128 162.196 132.363L163.971 134.137C164.205 134.37 164.522 134.501 164.852 134.501C165.182 134.501 165.499 134.37 165.733 134.137L172.571 127.312L169.033 123.775M184.333 109.5L179.333 112L179.333 114.5L176.621 117.213L179.121 119.712L181.833 117L184.333 117L186.833 112L184.333 109.5Z" fill="black"/>
<path d="M156.675 153L159.524 144.981L161.207 144.981L164.056 153L162.802 153L162.142 151.13L158.589 151.13L157.929 153L156.675 153ZM158.875 150.195L161.845 150.195L160.965 147.72L160.404 146.081L160.338 146.081L159.777 147.72L158.875 150.195ZM166.959 153.11C166.16 153.11 165.544 152.934 165.111 152.582C164.686 152.223 164.473 151.753 164.473 151.174L165.595 151.174C165.595 151.57 165.727 151.86 165.991 152.043C166.255 152.219 166.589 152.307 166.992 152.307C167.41 152.307 167.725 152.234 167.938 152.087C168.158 151.933 168.268 151.72 168.268 151.449C168.268 151.229 168.22 151.06 168.125 150.943C168.03 150.826 167.879 150.738 167.674 150.679C167.469 150.613 167.201 150.554 166.871 150.503C166.541 150.459 166.24 150.404 165.969 150.338C165.698 150.265 165.459 150.166 165.254 150.041C165.056 149.916 164.902 149.755 164.792 149.557C164.689 149.359 164.638 149.113 164.638 148.82C164.638 148.446 164.733 148.131 164.924 147.874C165.122 147.617 165.397 147.419 165.749 147.28C166.101 147.141 166.512 147.071 166.981 147.071C167.465 147.071 167.876 147.144 168.213 147.291C168.558 147.438 168.822 147.647 169.005 147.918C169.196 148.189 169.295 148.516 169.302 148.897L168.191 148.897C168.191 148.662 168.14 148.472 168.037 148.325C167.934 148.171 167.791 148.057 167.608 147.984C167.425 147.911 167.208 147.874 166.959 147.874C166.578 147.874 166.284 147.951 166.079 148.105C165.874 148.259 165.771 148.461 165.771 148.71C165.771 148.893 165.822 149.044 165.925 149.161C166.028 149.278 166.185 149.37 166.398 149.436C166.611 149.495 166.878 149.546 167.201 149.59C167.509 149.634 167.795 149.689 168.059 149.755C168.323 149.821 168.558 149.916 168.763 150.041C168.968 150.158 169.13 150.323 169.247 150.536C169.364 150.749 169.423 151.02 169.423 151.35C169.423 151.944 169.203 152.388 168.763 152.681C168.323 152.967 167.722 153.11 166.959 153.11ZM172.878 153.11C172.079 153.11 171.463 152.934 171.03 152.582C170.605 152.223 170.392 151.753 170.392 151.174L171.514 151.174C171.514 151.57 171.646 151.86 171.91 152.043C172.174 152.219 172.508 152.307 172.911 152.307C173.329 152.307 173.644 152.234 173.857 152.087C174.077 151.933 174.187 151.72 174.187 151.449C174.187 151.229 174.139 151.06 174.044 150.943C173.949 150.826 173.798 150.738 173.593 150.679C173.388 150.613 173.12 150.554 172.79 150.503C172.46 150.459 172.159 150.404 171.888 150.338C171.617 150.265 171.378 150.166 171.173 150.041C170.975 149.916 170.821 149.755 170.711 149.557C170.608 149.359 170.557 149.113 170.557 148.82C170.557 148.446 170.652 148.131 170.843 147.874C171.041 147.617 171.316 147.419 171.668 147.28C172.02 147.141 172.431 147.071 172.9 147.071C173.384 147.071 173.795 147.144 174.132 147.291C174.477 147.438 174.741 147.647 174.924 147.918C175.115 148.189 175.214 148.516 175.221 148.897L174.11 148.897C174.11 148.662 174.059 148.472 173.956 148.325C173.853 148.171 173.71 148.057 173.527 147.984C173.344 147.911 173.127 147.874 172.878 147.874C172.497 147.874 172.203 147.951 171.998 148.105C171.793 148.259 171.69 148.461 171.69 148.71C171.69 148.893 171.741 149.044 171.844 149.161C171.947 149.278 172.104 149.37 172.317 149.436C172.53 149.495 172.797 149.546 173.12 149.59C173.428 149.634 173.714 149.689 173.978 149.755C174.242 149.821 174.477 149.916 174.682 150.041C174.887 150.158 175.049 150.323 175.166 150.536C175.283 150.749 175.342 151.02 175.342 151.35C175.342 151.944 175.122 152.388 174.682 152.681C174.242 152.967 173.641 153.11 172.878 153.11ZM179.104 153.099C178.524 153.099 178.022 152.978 177.597 152.736C177.179 152.487 176.856 152.138 176.629 151.691C176.401 151.236 176.288 150.712 176.288 150.118C176.288 149.502 176.401 148.967 176.629 148.512C176.856 148.057 177.175 147.709 177.586 147.467C178.004 147.218 178.495 147.093 179.06 147.093C179.698 147.093 180.222 147.236 180.633 147.522C181.051 147.801 181.351 148.186 181.535 148.677C181.718 149.161 181.78 149.707 181.722 150.316L177.41 150.316C177.417 150.712 177.49 151.053 177.63 151.339C177.769 151.618 177.963 151.83 178.213 151.977C178.469 152.124 178.766 152.197 179.104 152.197C179.492 152.197 179.822 152.109 180.094 151.933C180.365 151.75 180.537 151.508 180.611 151.207L181.689 151.207C181.637 151.588 181.494 151.922 181.26 152.208C181.025 152.487 180.721 152.707 180.347 152.868C179.98 153.022 179.566 153.099 179.104 153.099ZM177.421 149.678L177.311 149.513L180.721 149.513L180.611 149.7C180.625 149.297 180.563 148.97 180.424 148.721C180.292 148.464 180.105 148.277 179.863 148.16C179.628 148.043 179.357 147.984 179.049 147.984C178.726 147.984 178.444 148.054 178.202 148.193C177.96 148.325 177.773 148.519 177.641 148.776C177.509 149.033 177.435 149.333 177.421 149.678ZM184.607 153C184.285 153 184.032 152.956 183.848 152.868C183.665 152.773 183.537 152.633 183.463 152.45C183.39 152.267 183.353 152.047 183.353 151.79L183.353 148.105L182.253 148.105L182.253 147.181L183.353 147.181L183.353 145.498L184.486 145.366L184.486 147.181L185.773 147.181L185.773 148.105L184.486 148.105L184.486 151.581C184.486 151.779 184.523 151.911 184.596 151.977C184.67 152.036 184.798 152.065 184.981 152.065L185.773 152.065L185.773 153L184.607 153ZM189.066 153.11C188.267 153.11 187.651 152.934 187.218 152.582C186.793 152.223 186.58 151.753 186.58 151.174L187.702 151.174C187.702 151.57 187.834 151.86 188.098 152.043C188.362 152.219 188.696 152.307 189.099 152.307C189.517 152.307 189.833 152.234 190.045 152.087C190.265 151.933 190.375 151.72 190.375 151.449C190.375 151.229 190.328 151.06 190.232 150.943C190.137 150.826 189.987 150.738 189.781 150.679C189.576 150.613 189.308 150.554 188.978 150.503C188.648 150.459 188.348 150.404 188.076 150.338C187.805 150.265 187.567 150.166 187.361 150.041C187.163 149.916 187.009 149.755 186.899 149.557C186.797 149.359 186.745 149.113 186.745 148.82C186.745 148.446 186.841 148.131 187.031 147.874C187.229 147.617 187.504 147.419 187.856 147.28C188.208 147.141 188.619 147.071 189.088 147.071C189.572 147.071 189.983 147.144 190.32 147.291C190.665 147.438 190.929 147.647 191.112 147.918C191.303 148.189 191.402 148.516 191.409 148.897L190.298 148.897C190.298 148.662 190.247 148.472 190.144 148.325C190.042 148.171 189.899 148.057 189.715 147.984C189.532 147.911 189.316 147.874 189.066 147.874C188.685 147.874 188.392 147.951 188.186 148.105C187.981 148.259 187.878 148.461 187.878 148.71C187.878 148.893 187.93 149.044 188.032 149.161C188.135 149.278 188.293 149.37 188.505 149.436C188.718 149.495 188.986 149.546 189.308 149.59C189.616 149.634 189.902 149.689 190.166 149.755C190.43 149.821 190.665 149.916 190.87 150.041C191.076 150.158 191.237 150.323 191.354 150.536C191.472 150.749 191.53 151.02 191.53 151.35C191.53 151.944 191.31 152.388 190.87 152.681C190.43 152.967 189.829 153.11 189.066 153.11Z" fill="black"/>
</g>
<g filter="url(#filter2_d_21626_26986)">
<rect x="239.666" y="98" width="85" height="64" rx="10" fill="white" shape-rendering="crispEdges"/>
<rect x="240.166" y="98.5" width="84" height="63" rx="9.5" stroke="#67A1FF" shape-rendering="crispEdges"/>
<path d="M274.666 130.75H277.166V133.25H274.666V130.75ZM282.166 110.75L269.666 117V133.25H272.166V123.25H292.166V133.25H294.666V117L282.166 110.75ZM277.166 120.75H272.166V118.25H277.166V120.75ZM284.666 120.75H279.666V118.25H284.666V120.75ZM292.166 120.75H287.166V118.25H292.166V120.75ZM274.666 125.75H277.166V128.25H274.666V125.75ZM279.666 125.75H282.166V128.25H279.666V125.75ZM279.666 130.75H282.166V133.25H279.666V130.75ZM284.666 130.75H287.166V133.25H284.666V130.75Z" fill="black"/>
<path d="M254.366 153L252.584 144.981L253.893 144.981L254.806 149.414L255.246 151.691L255.323 151.691L256.995 144.981L258.513 144.981L260.207 151.702L260.284 151.702L260.702 149.425L261.604 144.981L262.913 144.981L261.131 153L259.481 153L257.787 146.532L257.721 146.532L256.016 153L254.366 153ZM265.462 153.099C265.11 153.099 264.788 153.033 264.494 152.901C264.208 152.769 263.959 152.578 263.746 152.329C263.534 152.072 263.369 151.757 263.251 151.383C263.141 151.009 263.086 150.576 263.086 150.085C263.086 149.44 263.185 148.893 263.383 148.446C263.589 147.999 263.867 147.661 264.219 147.434C264.579 147.199 264.993 147.082 265.462 147.082C265.785 147.082 266.078 147.133 266.342 147.236C266.614 147.339 266.841 147.485 267.024 147.676C267.215 147.859 267.354 148.076 267.442 148.325L267.508 148.325L267.552 147.181L268.641 147.181L268.641 153L267.508 153L267.508 151.845L267.442 151.845C267.303 152.219 267.061 152.523 266.716 152.758C266.372 152.985 265.954 153.099 265.462 153.099ZM265.858 152.164C266.218 152.164 266.518 152.08 266.76 151.911C267.002 151.742 267.186 151.526 267.31 151.262C267.435 150.998 267.497 150.716 267.497 150.415L267.497 149.755C267.497 149.454 267.435 149.172 267.31 148.908C267.186 148.644 267.002 148.428 266.76 148.259C266.518 148.09 266.218 148.006 265.858 148.006C265.536 148.006 265.253 148.087 265.011 148.248C264.769 148.402 264.582 148.633 264.45 148.941C264.318 149.242 264.252 149.623 264.252 150.085C264.252 150.54 264.318 150.921 264.45 151.229C264.582 151.537 264.769 151.772 265.011 151.933C265.253 152.087 265.536 152.164 265.858 152.164ZM270.229 153L270.229 147.181L271.241 147.181L271.296 148.215L271.351 148.215C271.475 147.841 271.692 147.562 272 147.379C272.308 147.196 272.652 147.104 273.034 147.104C273.1 147.104 273.158 147.108 273.21 147.115C273.268 147.115 273.323 147.119 273.375 147.126L273.375 148.193C273.331 148.186 273.276 148.182 273.21 148.182C273.151 148.182 273.089 148.182 273.023 148.182C272.678 148.182 272.385 148.241 272.143 148.358C271.901 148.475 271.714 148.648 271.582 148.875C271.45 149.095 271.373 149.363 271.351 149.678L271.351 153L270.229 153ZM276.602 153.099C276.022 153.099 275.52 152.978 275.095 152.736C274.677 152.487 274.354 152.138 274.127 151.691C273.899 151.236 273.786 150.712 273.786 150.118C273.786 149.502 273.899 148.967 274.127 148.512C274.354 148.057 274.673 147.709 275.084 147.467C275.502 147.218 275.993 147.093 276.558 147.093C277.196 147.093 277.72 147.236 278.131 147.522C278.549 147.801 278.849 148.186 279.033 148.677C279.216 149.161 279.278 149.707 279.22 150.316L274.908 150.316C274.915 150.712 274.988 151.053 275.128 151.339C275.267 151.618 275.461 151.83 275.711 151.977C275.967 152.124 276.264 152.197 276.602 152.197C276.99 152.197 277.32 152.109 277.592 151.933C277.863 151.75 278.035 151.508 278.109 151.207L279.187 151.207C279.135 151.588 278.992 151.922 278.758 152.208C278.523 152.487 278.219 152.707 277.845 152.868C277.478 153.022 277.064 153.099 276.602 153.099ZM274.919 149.678L274.809 149.513L278.219 149.513L278.109 149.7C278.123 149.297 278.061 148.97 277.922 148.721C277.79 148.464 277.603 148.277 277.361 148.16C277.126 148.043 276.855 147.984 276.547 147.984C276.224 147.984 275.942 148.054 275.7 148.193C275.458 148.325 275.271 148.519 275.139 148.776C275.007 149.033 274.933 149.333 274.919 149.678ZM280.444 153L280.444 144.981L281.566 144.981L281.566 148.336L281.632 148.336C281.801 147.925 282.065 147.617 282.424 147.412C282.784 147.199 283.176 147.093 283.601 147.093C283.902 147.093 284.177 147.137 284.426 147.225C284.683 147.313 284.903 147.456 285.086 147.654C285.277 147.845 285.424 148.098 285.526 148.413C285.629 148.721 285.68 149.099 285.68 149.546L285.68 153L284.547 153L284.547 149.777C284.547 149.381 284.5 149.055 284.404 148.798C284.309 148.534 284.162 148.34 283.964 148.215C283.766 148.09 283.51 148.028 283.194 148.028C282.864 148.028 282.575 148.109 282.325 148.27C282.083 148.431 281.896 148.648 281.764 148.919C281.632 149.183 281.566 149.484 281.566 149.821L281.566 153L280.444 153ZM289.665 153.099C289.24 153.099 288.851 153.029 288.499 152.89C288.154 152.751 287.857 152.549 287.608 152.285C287.359 152.021 287.164 151.706 287.025 151.339C286.886 150.972 286.816 150.562 286.816 150.107C286.816 149.506 286.93 148.981 287.157 148.534C287.392 148.079 287.722 147.727 288.147 147.478C288.58 147.221 289.086 147.093 289.665 147.093C290.09 147.093 290.475 147.163 290.82 147.302C291.172 147.434 291.473 147.632 291.722 147.896C291.971 148.16 292.162 148.479 292.294 148.853C292.433 149.22 292.503 149.634 292.503 150.096C292.503 150.69 292.389 151.214 292.162 151.669C291.935 152.116 291.608 152.468 291.183 152.725C290.758 152.974 290.252 153.099 289.665 153.099ZM289.665 152.153C290.002 152.153 290.296 152.076 290.545 151.922C290.802 151.761 291 151.526 291.139 151.218C291.278 150.91 291.348 150.536 291.348 150.096C291.348 149.766 291.308 149.476 291.227 149.227C291.154 148.97 291.044 148.754 290.897 148.578C290.75 148.395 290.574 148.259 290.369 148.171C290.164 148.076 289.929 148.028 289.665 148.028C289.328 148.028 289.031 148.109 288.774 148.27C288.525 148.431 288.327 148.666 288.18 148.974C288.041 149.275 287.971 149.652 287.971 150.107C287.971 150.43 288.008 150.719 288.081 150.976C288.162 151.225 288.275 151.438 288.422 151.614C288.576 151.79 288.756 151.926 288.961 152.021C289.174 152.109 289.408 152.153 289.665 152.153ZM295.724 153.099C295.292 153.099 294.918 153.015 294.602 152.846C294.287 152.67 294.045 152.41 293.876 152.065C293.715 151.713 293.634 151.28 293.634 150.767L293.634 147.181L294.767 147.181L294.767 150.481C294.767 150.84 294.811 151.145 294.899 151.394C294.995 151.643 295.145 151.834 295.35 151.966C295.556 152.091 295.82 152.153 296.142 152.153C296.465 152.153 296.744 152.076 296.978 151.922C297.22 151.768 297.407 151.552 297.539 151.273C297.671 150.994 297.737 150.679 297.737 150.327L297.737 147.181L298.87 147.181L298.87 153L297.792 153L297.737 151.823L297.671 151.823C297.525 152.219 297.275 152.531 296.923 152.758C296.571 152.985 296.172 153.099 295.724 153.099ZM302.57 153.11C301.771 153.11 301.155 152.934 300.722 152.582C300.297 152.223 300.084 151.753 300.084 151.174L301.206 151.174C301.206 151.57 301.338 151.86 301.602 152.043C301.866 152.219 302.2 152.307 302.603 152.307C303.021 152.307 303.337 152.234 303.549 152.087C303.769 151.933 303.879 151.72 303.879 151.449C303.879 151.229 303.832 151.06 303.736 150.943C303.641 150.826 303.491 150.738 303.285 150.679C303.08 150.613 302.812 150.554 302.482 150.503C302.152 150.459 301.852 150.404 301.58 150.338C301.309 150.265 301.071 150.166 300.865 150.041C300.667 149.916 300.513 149.755 300.403 149.557C300.301 149.359 300.249 149.113 300.249 148.82C300.249 148.446 300.345 148.131 300.535 147.874C300.733 147.617 301.008 147.419 301.36 147.28C301.712 147.141 302.123 147.071 302.592 147.071C303.076 147.071 303.487 147.144 303.824 147.291C304.169 147.438 304.433 147.647 304.616 147.918C304.807 148.189 304.906 148.516 304.913 148.897L303.802 148.897C303.802 148.662 303.751 148.472 303.648 148.325C303.546 148.171 303.403 148.057 303.219 147.984C303.036 147.911 302.82 147.874 302.57 147.874C302.189 147.874 301.896 147.951 301.69 148.105C301.485 148.259 301.382 148.461 301.382 148.71C301.382 148.893 301.434 149.044 301.536 149.161C301.639 149.278 301.797 149.37 302.009 149.436C302.222 149.495 302.49 149.546 302.812 149.59C303.12 149.634 303.406 149.689 303.67 149.755C303.934 149.821 304.169 149.916 304.374 150.041C304.58 150.158 304.741 150.323 304.858 150.536C304.976 150.749 305.034 151.02 305.034 151.35C305.034 151.944 304.814 152.388 304.374 152.681C303.934 152.967 303.333 153.11 302.57 153.11ZM308.796 153.099C308.217 153.099 307.714 152.978 307.289 152.736C306.871 152.487 306.548 152.138 306.321 151.691C306.094 151.236 305.98 150.712 305.98 150.118C305.98 149.502 306.094 148.967 306.321 148.512C306.548 148.057 306.867 147.709 307.278 147.467C307.696 147.218 308.187 147.093 308.752 147.093C309.39 147.093 309.914 147.236 310.325 147.522C310.743 147.801 311.044 148.186 311.227 148.677C311.41 149.161 311.473 149.707 311.414 150.316L307.102 150.316C307.109 150.712 307.183 151.053 307.322 151.339C307.461 151.618 307.656 151.83 307.905 151.977C308.162 152.124 308.459 152.197 308.796 152.197C309.185 152.197 309.515 152.109 309.786 151.933C310.057 151.75 310.23 151.508 310.303 151.207L311.381 151.207C311.33 151.588 311.187 151.922 310.952 152.208C310.717 152.487 310.413 152.707 310.039 152.868C309.672 153.022 309.258 153.099 308.796 153.099ZM307.113 149.678L307.003 149.513L310.413 149.513L310.303 149.7C310.318 149.297 310.255 148.97 310.116 148.721C309.984 148.464 309.797 148.277 309.555 148.16C309.32 148.043 309.049 147.984 308.741 147.984C308.418 147.984 308.136 148.054 307.894 148.193C307.652 148.325 307.465 148.519 307.333 148.776C307.201 149.033 307.128 149.333 307.113 149.678Z" fill="black"/>
</g>
<g filter="url(#filter3_d_21626_26986)">
<rect x="348" y="98" width="85" height="64" rx="10" fill="white" shape-rendering="crispEdges"/>
<rect x="348.5" y="98.5" width="84" height="63" rx="9.5" stroke="#67A1FF" shape-rendering="crispEdges"/>
<path d="M403 133.25L378 133.25L378 110.75L380.5 110.75L380.5 130.75L383 130.75L383 119.5L388 119.5L388 130.75L390.5 130.75L390.5 114.5L395.5 114.5L395.5 130.75L398 130.75L398 124.5L403 124.5L403 133.25Z" fill="black"/>
<path d="M367.54 153L367.54 144.981L371.258 144.981C371.778 144.981 372.218 145.069 372.578 145.245C372.937 145.414 373.208 145.652 373.392 145.96C373.575 146.261 373.667 146.62 373.667 147.038C373.667 147.324 373.619 147.588 373.524 147.83C373.428 148.065 373.285 148.27 373.095 148.446C372.904 148.622 372.666 148.747 372.38 148.82L372.38 148.875C372.71 148.941 372.985 149.062 373.205 149.238C373.425 149.414 373.59 149.634 373.7 149.898C373.817 150.155 373.876 150.437 373.876 150.745C373.876 151.229 373.766 151.64 373.546 151.977C373.326 152.307 373.01 152.56 372.6 152.736C372.189 152.912 371.694 153 371.115 153L367.54 153ZM368.717 152.054L371.005 152.054C371.562 152.054 371.976 151.926 372.248 151.669C372.519 151.412 372.655 151.082 372.655 150.679C372.655 150.246 372.519 149.916 372.248 149.689C371.976 149.462 371.602 149.348 371.126 149.348L368.717 149.348L368.717 152.054ZM368.717 148.435L371.071 148.435C371.386 148.435 371.646 148.384 371.852 148.281C372.057 148.178 372.211 148.035 372.314 147.852C372.416 147.661 372.468 147.445 372.468 147.203C372.468 146.785 372.328 146.47 372.05 146.257C371.778 146.037 371.419 145.927 370.972 145.927L368.717 145.927L368.717 148.435ZM377.047 153.099C376.615 153.099 376.241 153.015 375.925 152.846C375.61 152.67 375.368 152.41 375.199 152.065C375.038 151.713 374.957 151.28 374.957 150.767L374.957 147.181L376.09 147.181L376.09 150.481C376.09 150.84 376.134 151.145 376.222 151.394C376.318 151.643 376.468 151.834 376.673 151.966C376.879 152.091 377.143 152.153 377.465 152.153C377.788 152.153 378.067 152.076 378.301 151.922C378.543 151.768 378.73 151.552 378.862 151.273C378.994 150.994 379.06 150.679 379.06 150.327L379.06 147.181L380.193 147.181L380.193 153L379.115 153L379.06 151.823L378.994 151.823C378.848 152.219 378.598 152.531 378.246 152.758C377.894 152.985 377.495 153.099 377.047 153.099ZM383.893 153.11C383.094 153.11 382.478 152.934 382.045 152.582C381.62 152.223 381.407 151.753 381.407 151.174L382.529 151.174C382.529 151.57 382.661 151.86 382.925 152.043C383.189 152.219 383.523 152.307 383.926 152.307C384.344 152.307 384.659 152.234 384.872 152.087C385.092 151.933 385.202 151.72 385.202 151.449C385.202 151.229 385.154 151.06 385.059 150.943C384.964 150.826 384.813 150.738 384.608 150.679C384.403 150.613 384.135 150.554 383.805 150.503C383.475 150.459 383.174 150.404 382.903 150.338C382.632 150.265 382.393 150.166 382.188 150.041C381.99 149.916 381.836 149.755 381.726 149.557C381.623 149.359 381.572 149.113 381.572 148.82C381.572 148.446 381.667 148.131 381.858 147.874C382.056 147.617 382.331 147.419 382.683 147.28C383.035 147.141 383.446 147.071 383.915 147.071C384.399 147.071 384.81 147.144 385.147 147.291C385.492 147.438 385.756 147.647 385.939 147.918C386.13 148.189 386.229 148.516 386.236 148.897L385.125 148.897C385.125 148.662 385.074 148.472 384.971 148.325C384.868 148.171 384.725 148.057 384.542 147.984C384.359 147.911 384.142 147.874 383.893 147.874C383.512 147.874 383.218 147.951 383.013 148.105C382.808 148.259 382.705 148.461 382.705 148.71C382.705 148.893 382.756 149.044 382.859 149.161C382.962 149.278 383.119 149.37 383.332 149.436C383.545 149.495 383.812 149.546 384.135 149.59C384.443 149.634 384.729 149.689 384.993 149.755C385.257 149.821 385.492 149.916 385.697 150.041C385.902 150.158 386.064 150.323 386.181 150.536C386.298 150.749 386.357 151.02 386.357 151.35C386.357 151.944 386.137 152.388 385.697 152.681C385.257 152.967 384.656 153.11 383.893 153.11ZM387.645 153L387.645 147.181L388.778 147.181L388.778 153L387.645 153ZM387.645 146.29L387.645 144.981L388.778 144.981L388.778 146.29L387.645 146.29ZM390.352 153L390.352 147.181L391.43 147.181L391.474 148.336L391.54 148.336C391.709 147.925 391.973 147.617 392.332 147.412C392.691 147.199 393.084 147.093 393.509 147.093C393.81 147.093 394.085 147.137 394.334 147.225C394.591 147.313 394.811 147.456 394.994 147.654C395.185 147.845 395.331 148.098 395.434 148.413C395.537 148.721 395.588 149.099 395.588 149.546L395.588 153L394.455 153L394.455 149.777C394.455 149.381 394.407 149.055 394.312 148.798C394.217 148.534 394.07 148.34 393.872 148.215C393.674 148.09 393.417 148.028 393.102 148.028C392.772 148.028 392.482 148.109 392.233 148.27C391.991 148.431 391.804 148.648 391.672 148.919C391.54 149.183 391.474 149.484 391.474 149.821L391.474 153L390.352 153ZM399.54 153.099C398.96 153.099 398.458 152.978 398.033 152.736C397.615 152.487 397.292 152.138 397.065 151.691C396.837 151.236 396.724 150.712 396.724 150.118C396.724 149.502 396.837 148.967 397.065 148.512C397.292 148.057 397.611 147.709 398.022 147.467C398.44 147.218 398.931 147.093 399.496 147.093C400.134 147.093 400.658 147.236 401.069 147.522C401.487 147.801 401.787 148.186 401.971 148.677C402.154 149.161 402.216 149.707 402.158 150.316L397.846 150.316C397.853 150.712 397.926 151.053 398.066 151.339C398.205 151.618 398.399 151.83 398.649 151.977C398.905 152.124 399.202 152.197 399.54 152.197C399.928 152.197 400.258 152.109 400.53 151.933C400.801 151.75 400.973 151.508 401.047 151.207L402.125 151.207C402.073 151.588 401.93 151.922 401.696 152.208C401.461 152.487 401.157 152.707 400.783 152.868C400.416 153.022 400.002 153.099 399.54 153.099ZM397.857 149.678L397.747 149.513L401.157 149.513L401.047 149.7C401.061 149.297 400.999 148.97 400.86 148.721C400.728 148.464 400.541 148.277 400.299 148.16C400.064 148.043 399.793 147.984 399.485 147.984C399.162 147.984 398.88 148.054 398.638 148.193C398.396 148.325 398.209 148.519 398.077 148.776C397.945 149.033 397.871 149.333 397.857 149.678ZM405.549 153.11C404.75 153.11 404.134 152.934 403.701 152.582C403.276 152.223 403.063 151.753 403.063 151.174L404.185 151.174C404.185 151.57 404.317 151.86 404.581 152.043C404.845 152.219 405.179 152.307 405.582 152.307C406 152.307 406.316 152.234 406.528 152.087C406.748 151.933 406.858 151.72 406.858 151.449C406.858 151.229 406.811 151.06 406.715 150.943C406.62 150.826 406.47 150.738 406.264 150.679C406.059 150.613 405.791 150.554 405.461 150.503C405.131 150.459 404.831 150.404 404.559 150.338C404.288 150.265 404.05 150.166 403.844 150.041C403.646 149.916 403.492 149.755 403.382 149.557C403.28 149.359 403.228 149.113 403.228 148.82C403.228 148.446 403.324 148.131 403.514 147.874C403.712 147.617 403.987 147.419 404.339 147.28C404.691 147.141 405.102 147.071 405.571 147.071C406.055 147.071 406.466 147.144 406.803 147.291C407.148 147.438 407.412 147.647 407.595 147.918C407.786 148.189 407.885 148.516 407.892 148.897L406.781 148.897C406.781 148.662 406.73 148.472 406.627 148.325C406.525 148.171 406.382 148.057 406.198 147.984C406.015 147.911 405.799 147.874 405.549 147.874C405.168 147.874 404.875 147.951 404.669 148.105C404.464 148.259 404.361 148.461 404.361 148.71C404.361 148.893 404.413 149.044 404.515 149.161C404.618 149.278 404.776 149.37 404.988 149.436C405.201 149.495 405.469 149.546 405.791 149.59C406.099 149.634 406.385 149.689 406.649 149.755C406.913 149.821 407.148 149.916 407.353 150.041C407.559 150.158 407.72 150.323 407.837 150.536C407.955 150.749 408.013 151.02 408.013 151.35C408.013 151.944 407.793 152.388 407.353 152.681C406.913 152.967 406.312 153.11 405.549 153.11ZM411.468 153.11C410.669 153.11 410.053 152.934 409.62 152.582C409.195 152.223 408.982 151.753 408.982 151.174L410.104 151.174C410.104 151.57 410.236 151.86 410.5 152.043C410.764 152.219 411.098 152.307 411.501 152.307C411.919 152.307 412.235 152.234 412.447 152.087C412.667 151.933 412.777 151.72 412.777 151.449C412.777 151.229 412.73 151.06 412.634 150.943C412.539 150.826 412.389 150.738 412.183 150.679C411.978 150.613 411.71 150.554 411.38 150.503C411.05 150.459 410.75 150.404 410.478 150.338C410.207 150.265 409.969 150.166 409.763 150.041C409.565 149.916 409.411 149.755 409.301 149.557C409.199 149.359 409.147 149.113 409.147 148.82C409.147 148.446 409.243 148.131 409.433 147.874C409.631 147.617 409.906 147.419 410.258 147.28C410.61 147.141 411.021 147.071 411.49 147.071C411.974 147.071 412.385 147.144 412.722 147.291C413.067 147.438 413.331 147.647 413.514 147.918C413.705 148.189 413.804 148.516 413.811 148.897L412.7 148.897C412.7 148.662 412.649 148.472 412.546 148.325C412.444 148.171 412.301 148.057 412.117 147.984C411.934 147.911 411.718 147.874 411.468 147.874C411.087 147.874 410.794 147.951 410.588 148.105C410.383 148.259 410.28 148.461 410.28 148.71C410.28 148.893 410.332 149.044 410.434 149.161C410.537 149.278 410.695 149.37 410.907 149.436C411.12 149.495 411.388 149.546 411.71 149.59C412.018 149.634 412.304 149.689 412.568 149.755C412.832 149.821 413.067 149.916 413.272 150.041C413.478 150.158 413.639 150.323 413.756 150.536C413.874 150.749 413.932 151.02 413.932 151.35C413.932 151.944 413.712 152.388 413.272 152.681C412.832 152.967 412.231 153.11 411.468 153.11Z" fill="black"/>
</g>
<path d="M129.209 130L119.209 124.226V135.774L129.209 130ZM111.041 130V131H120.209V130V129H111.041V130Z" fill="black"/>
<path d="M237.084 130L227.084 124.226V135.774L237.084 130ZM218.916 130V131H228.084V130V129H218.916V130Z" fill="black"/>
<path d="M345.416 130L335.416 124.226V135.774L345.416 130ZM327.248 130V131H336.416V130V129H327.248V130Z" fill="black"/>
<defs>
<filter id="filter0_d_21626_26986" x="25" y="98" width="84" height="67" filterUnits="userSpaceOnUse" color-interpolation-filters="sRGB">
<feFlood flood-opacity="0" result="BackgroundImageFix"/>
<feColorMatrix in="SourceAlpha" type="matrix" values="0 0 0 0 0 0 0 0 0 0 0 0 0 0 0 0 0 0 127 0" result="hardAlpha"/>
<feOffset dy="3"/>
<feComposite in2="hardAlpha" operator="out"/>
<feColorMatrix type="matrix" values="0 0 0 0 0.403922 0 0 0 0 0.631373 0 0 0 0 1 0 0 0 1 0"/>
<feBlend mode="normal" in2="BackgroundImageFix" result="effect1_dropShadow_21626_26986"/>
<feBlend mode="normal" in="SourceGraphic" in2="effect1_dropShadow_21626_26986" result="shape"/>
</filter>
<filter id="filter1_d_21626_26986" x="132.334" y="98" width="84" height="67" filterUnits="userSpaceOnUse" color-interpolation-filters="sRGB">
<feFlood flood-opacity="0" result="BackgroundImageFix"/>
<feColorMatrix in="SourceAlpha" type="matrix" values="0 0 0 0 0 0 0 0 0 0 0 0 0 0 0 0 0 0 127 0" result="hardAlpha"/>
<feOffset dy="3"/>
<feComposite in2="hardAlpha" operator="out"/>
<feColorMatrix type="matrix" values="0 0 0 0 0.403922 0 0 0 0 0.631373 0 0 0 0 1 0 0 0 1 0"/>
<feBlend mode="normal" in2="BackgroundImageFix" result="effect1_dropShadow_21626_26986"/>
<feBlend mode="normal" in="SourceGraphic" in2="effect1_dropShadow_21626_26986" result="shape"/>
</filter>
<filter id="filter2_d_21626_26986" x="239.666" y="98" width="85" height="67" filterUnits="userSpaceOnUse" color-interpolation-filters="sRGB">
<feFlood flood-opacity="0" result="BackgroundImageFix"/>
<feColorMatrix in="SourceAlpha" type="matrix" values="0 0 0 0 0 0 0 0 0 0 0 0 0 0 0 0 0 0 127 0" result="hardAlpha"/>
<feOffset dy="3"/>
<feComposite in2="hardAlpha" operator="out"/>
<feColorMatrix type="matrix" values="0 0 0 0 0.403922 0 0 0 0 0.631373 0 0 0 0 1 0 0 0 1 0"/>
<feBlend mode="normal" in2="BackgroundImageFix" result="effect1_dropShadow_21626_26986"/>
<feBlend mode="normal" in="SourceGraphic" in2="effect1_dropShadow_21626_26986" result="shape"/>
</filter>
<filter id="filter3_d_21626_26986" x="348" y="98" width="85" height="67" filterUnits="userSpaceOnUse" color-interpolation-filters="sRGB">
<feFlood flood-opacity="0" result="BackgroundImageFix"/>
<feColorMatrix in="SourceAlpha" type="matrix" values="0 0 0 0 0 0 0 0 0 0 0 0 0 0 0 0 0 0 127 0" result="hardAlpha"/>
<feOffset dy="3"/>
<feComposite in2="hardAlpha" operator="out"/>
<feColorMatrix type="matrix" values="0 0 0 0 0.403922 0 0 0 0 0.631373 0 0 0 0 1 0 0 0 1 0"/>
<feBlend mode="normal" in2="BackgroundImageFix" result="effect1_dropShadow_21626_26986"/>
<feBlend mode="normal" in="SourceGraphic" in2="effect1_dropShadow_21626_26986" result="shape"/>
</filter>
</defs>
</svg>
