<svg width="100%" height="100%" viewBox="0 0 94 94" fill="none" xmlns="http://www.w3.org/2000/svg">
<g id="Frame 1261159223">
<path id="Vector" d="M31.3018 90.1904C31.3033 90.7156 31.4131 91.2348 31.6242 91.7157C31.8354 92.1966 32.1434 92.6288 32.5288 92.9852C32.9144 93.3417 33.3693 93.6147 33.8651 93.7876C34.3609 93.9603 34.8869 94.0288 35.4104 93.989C55.3086 92.5646 74.1018 78.4831 80.1017 56.4891C80.4168 55.2242 81.3661 54.5898 82.6307 54.5898C83.2789 54.6159 83.8906 54.8965 84.3336 55.3707C84.7763 55.8449 85.0146 56.4747 84.9963 57.1235C84.9963 62.0275 78.6926 74.8441 69.6779 82.2818C69.2185 82.6683 68.8521 83.1535 68.6062 83.7013C68.3604 84.2493 68.2411 84.8455 68.2577 85.446C68.2667 85.9341 68.3722 86.4157 68.5677 86.8628C68.7633 87.3101 69.0453 87.7145 69.3973 88.0525C69.7494 88.3906 70.1648 88.6558 70.6195 88.8331C71.0742 89.0102 71.5595 89.0957 72.0474 89.085C72.8372 89.085 74.1018 88.6103 75.6814 87.1857C81.9854 81.4877 94 65.5071 94 47.9422C94 22.1905 74.0906 0 46.3051 0C21.512 0 0.0342596 20.2541 0.0342596 43.6727C0.0342596 59.1786 12.3528 70.8858 28.6171 70.8858C41.0951 70.8858 52.6238 62.0275 55.7832 49.8415C56.0986 48.5766 57.0441 47.9422 58.3085 47.9422C58.9571 47.9684 59.5692 48.2489 60.0127 48.723C60.4562 49.1972 60.6952 49.8268 60.6781 50.4759C60.6781 56.0143 50.2543 75.3299 29.0917 75.3299C24.0374 75.3299 17.7223 73.9056 13.2986 71.3718C12.7062 71.0849 12.0612 70.9232 11.4036 70.897C10.9001 70.8777 10.398 70.9628 9.92907 71.147C9.45999 71.3311 9.03404 71.6103 8.67812 71.9672C8.32221 72.3238 8.04389 72.7505 7.86068 73.2199C7.67747 73.6895 7.59342 74.192 7.61388 74.6957C7.63434 75.3408 7.81903 75.97 8.15061 76.5239C8.4822 77.0776 8.94962 77.5374 9.50865 77.86C15.3528 81.1986 22.302 82.9233 29.4068 82.9233C47.0949 82.9233 63.2034 70.8971 67.9425 53.1765C68.2577 51.9116 69.2069 51.2771 70.4677 51.2771C71.1163 51.3033 71.7286 51.5837 72.1718 52.0579C72.6153 52.5319 72.8544 53.1617 72.8372 53.8109C72.8372 61.0889 59.8883 84.5075 34.9358 86.4066C33.9703 86.4783 33.0653 86.9043 32.3946 87.6026C31.7241 88.301 31.3348 89.2225 31.3018 90.1904Z" fill="#4F43DD"/>
<path id="Vector_2" d="M56.0362 29.5897C59.4422 29.5642 62.7853 30.5059 65.6776 32.3051C65.9699 30.7048 66.131 29.0832 66.1596 27.4566C66.1596 19.9449 60.4342 13.2157 53.4628 13.2157C48.0415 13.2157 44.6521 17.7081 44.6521 23.2575C44.6263 26.2553 45.6793 29.1626 47.6187 31.4483C50.2463 30.1949 53.1255 29.5593 56.0362 29.5897Z" fill="white"/>
<path id="Vector_3" d="M72.3704 56.8031C73.3382 53.4941 73.7647 51.198 73.7647 49.7067C73.7352 49.0627 73.4593 48.4547 72.9941 48.0087C72.5287 47.5626 71.9098 47.3125 71.2654 47.3103C70.6651 47.3216 70.0856 47.5331 69.6195 47.9115C69.1531 48.2899 68.8267 48.8136 68.692 49.3989C68.4286 50.4858 67.865 53.4311 67.3087 55.3007C67.5387 54.6009 67.7488 53.8898 67.9392 53.1677C68.2544 51.8991 69.2036 51.2684 70.4644 51.2684C71.1126 51.2936 71.7249 51.5732 72.1684 52.0467C72.6118 52.5204 72.8511 53.1497 72.8339 53.7984C72.8042 54.8182 72.6409 55.8295 72.3483 56.8067L72.3704 56.8031Z" fill="#352D8E"/>
<path id="Vector_4" d="M85.7932 53.3467C85.7629 52.7036 85.4872 52.0967 85.0229 51.651C84.5586 51.2052 83.9412 50.9543 83.2977 50.9505C82.6979 50.9624 82.1194 51.1744 81.6538 51.5528C81.1884 51.931 80.8623 52.4541 80.7278 53.0389C80.4609 54.1518 79.886 57.1416 79.3224 59.0076H79.3484C79.6228 58.1765 79.8787 57.3346 80.0901 56.4776C80.4052 55.209 81.3545 54.5783 82.6191 54.5783C83.2669 54.6035 83.8787 54.8833 84.3218 55.357C84.7647 55.8306 85.003 56.4599 84.9849 57.1083C84.9667 57.8958 84.8585 58.6786 84.6622 59.4415C85.4483 56.6816 85.7932 54.6859 85.7932 53.3467Z" fill="#352D8E"/>
<path id="Vector_5" d="M56.0284 29.5892C57.721 29.5857 59.4064 29.8117 61.0383 30.2607C61.895 29.0918 62.3232 27.6634 62.2508 26.2158C62.1781 24.7682 61.6093 23.3898 60.64 22.3125C59.6707 21.2352 58.3599 20.5248 56.9285 20.3009C55.4969 20.0771 54.0319 20.3532 52.7802 21.0833L55.376 25.3567L50.5144 23.2534C49.8559 24.3163 49.5258 25.5501 49.5654 26.7999C49.605 28.0497 50.0126 29.2601 50.7369 30.2793C52.4621 29.8141 54.2419 29.5821 56.0284 29.5892Z" fill="#131316"/>
<path id="Vector_6" d="M18.5767 57.0938C20.6249 57.0938 22.285 55.4329 22.285 53.3841C22.285 51.3355 20.6249 49.6747 18.5767 49.6747C16.5288 49.6747 14.8687 51.3355 14.8687 53.3841C14.8687 55.4329 16.5288 57.0938 18.5767 57.0938Z" fill="#352D8E"/>
<path id="Vector_7" d="M18.5767 42.2538C20.6249 42.2538 22.285 40.593 22.285 38.5442C22.285 36.4956 20.6249 34.8348 18.5767 34.8348C16.5288 34.8348 14.8687 36.4956 14.8687 38.5442C14.8687 40.593 16.5288 42.2538 18.5767 42.2538Z" fill="#352D8E"/>
<path id="Vector_8" d="M11.1654 49.6754C13.2134 49.6754 14.8735 48.0146 14.8735 45.9658C14.8735 43.917 13.2134 42.2562 11.1654 42.2562C9.11731 42.2562 7.45717 43.917 7.45717 45.9658C7.45717 48.0146 9.11731 49.6754 11.1654 49.6754Z" fill="#352D8E"/>
<path id="Vector_9" d="M27.8485 70.8765H28.5902C41.0684 70.8765 52.5971 62.0179 55.7565 49.832C56.0717 48.5671 57.0172 47.9327 58.2816 47.9327C58.9302 47.9589 59.5425 48.2394 59.9858 48.7135C60.4293 49.1877 60.6683 49.8173 60.6512 50.4664C60.5946 51.7612 60.3019 53.0348 59.7873 54.2242C59.8767 54.0861 59.9548 53.9409 60.0208 53.7901C60.9592 51.6447 61.4439 49.3285 61.4449 46.9868C61.4449 43.3478 58.9159 40.9737 55.2856 40.9737C48.9556 40.9737 47.6873 46.501 45.0175 52.4102C42.2474 58.5459 37.1598 65.1822 24.3295 65.1822C10.9985 65.1822 -2.69949 55.8454 0.641605 36.8597C0.682339 36.6223 0.715697 36.4109 0.741686 36.2142C0.252143 38.667 0.00368632 41.1619 0 43.6631C0.0370475 58.9464 11.9737 70.5202 27.8485 70.8765Z" fill="#352D8E"/>
</g>
</svg>
