<svg width="177" height="50" viewBox="0 0 177 50" fill="none" xmlns="http://www.w3.org/2000/svg">
<path d="M67.7735 9.55396H70.6112V34.7123H67.7735V32.4933H67.7028C66.638 33.8656 64.9351 35.2028 62.0243 35.2028C57.4816 35.2028 53.8613 31.6492 53.8613 25.7383C53.8613 19.8273 57.4816 16.2737 62.0243 16.2737C64.9351 16.2737 66.638 17.5405 67.7028 19.089H67.7735V9.55396ZM67.7735 25.7383C67.7735 21.5167 65.6803 18.7367 62.3085 18.7367C58.5817 18.7367 56.6999 22.2199 56.6999 25.7383C56.6999 29.2566 58.5817 32.7398 62.3085 32.7398C65.6803 32.7398 67.7735 29.9598 67.7735 25.7383Z" fill="currentColor"/>
<path d="M81.2087 18.7369C77.7657 18.7369 76.629 19.7219 76.4524 22.3258H73.6128C73.7906 18.8779 75.955 16.2739 81.2087 16.2739C84.651 16.2739 87.7384 17.6111 87.7384 21.9346V30.6607C87.7384 32.0683 87.9919 32.8419 89.7963 32.6306V34.6017C89.2629 34.7975 88.6974 34.8927 88.1293 34.8823C86.4251 34.8823 85.3956 34.4257 84.8994 32.4545H84.8238C83.6877 34.1439 81.6651 35.1993 78.6843 35.1993C75.0288 35.1993 72.7207 33.1237 72.7207 30.0972C72.7207 26.0165 75.7722 24.9611 80.4609 24.0818C83.5143 23.5183 84.9019 23.1309 84.9019 21.3371C84.8994 19.9332 84.1183 18.7369 81.2087 18.7369ZM84.8994 27.7789V24.7888C84.3667 25.3159 82.6272 25.8089 80.7125 26.1964C77.1976 26.9348 75.5603 27.8141 75.5603 29.9601C75.5603 31.7211 76.6252 32.7401 78.9686 32.7401C82.3441 32.7401 84.8994 31.2268 84.8994 27.7789Z" fill="currentColor"/>
<path d="M104.111 16.7671H106.951V33.725C106.951 38.5051 103.899 40.9379 98.9295 40.9379C93.9608 40.9379 91.014 38.334 90.7316 35.2772H93.5788C93.9343 37.1063 95.4254 38.4787 98.7965 38.4787C102.168 38.4787 104.12 37.0358 104.12 33.6986V30.9815H104.049C102.984 32.5287 101.281 33.7954 98.2991 33.7954C93.8278 33.7954 90.207 30.9462 90.207 25.0353C90.207 19.1244 93.8278 16.2739 98.2991 16.2739C101.281 16.2739 102.984 17.6111 104.049 18.9835H104.12L104.111 16.7671ZM104.111 25.0353C104.111 20.8125 102.017 18.7369 98.6458 18.7369C94.9185 18.7369 93.0385 21.5169 93.0385 25.0353C93.0385 28.5537 94.9185 31.3324 98.6458 31.3324C102.022 31.3324 104.111 29.2569 104.111 25.0353Z" fill="currentColor"/>
<path d="M124.4 29.7852C124.4 33.0558 121.383 35.2031 117.265 35.2031C111.729 35.2031 109.174 32.5992 108.996 28.7298H111.836C112.012 30.7349 112.724 32.7401 117.265 32.7401C120.353 32.7401 121.559 31.1564 121.559 29.9601C121.559 27.3574 119.181 27.2165 116.592 26.5826C113.823 25.9146 109.705 25.5976 109.705 21.3761C109.705 18.5609 112.225 16.2739 116.485 16.2739C120.993 16.2739 123.406 18.8074 123.688 21.9031H120.85C120.566 20.532 119.892 18.7369 116.485 18.7369C113.929 18.7369 112.551 19.7571 112.551 21.1647C112.551 23.2755 115.001 23.4516 117.521 24.0504C120.744 24.824 124.4 25.3511 124.4 29.7852Z" fill="currentColor"/>
<path d="M133.997 19.2298H130.444V30.0303C130.444 32.0718 131.586 32.4203 133.997 32.248V34.7122C133.297 34.8575 132.583 34.9283 131.868 34.9235C129.457 34.9235 127.608 33.9738 127.608 30.3145V19.2323H124.943V16.7668H127.608V10.7854H130.448V16.7668H134.001L133.997 19.2298Z" fill="currentColor"/>
<path d="M149.085 29.1864H151.925C151.001 32.5287 148.411 35.2031 143.904 35.2031C138.402 35.2031 135.066 31.3677 135.066 25.7385C135.066 19.7571 138.473 16.2739 143.762 16.2739C149.44 16.2739 152.209 20.1094 152.209 26.4769H137.906C137.906 29.7148 139.858 32.7401 143.798 32.7401C147.418 32.7401 148.766 30.4179 149.085 29.1864ZM137.906 24.0202H149.37C149.37 21.1346 147.169 18.7369 143.762 18.7369C140.355 18.7369 137.906 21.127 137.906 24.0202Z" fill="currentColor"/>
<path d="M163.921 16.3794V19.1947H163.85C159.916 18.5657 157.178 21.3054 157.178 25.1408V34.7123H154.338V16.7669H157.178V20.3205H157.249C158.207 17.9632 159.66 16.2738 162.253 16.2738C162.811 16.268 163.369 16.3034 163.921 16.3794Z" fill="currentColor"/>
<path d="M23.3164 39.6459C23.3169 39.824 23.3545 40.0001 23.4267 40.1631C23.4989 40.3262 23.6043 40.4728 23.7361 40.5936C23.868 40.7145 24.0236 40.8071 24.1932 40.8657C24.3628 40.9243 24.5427 40.9475 24.7218 40.934C31.5281 40.451 37.9565 35.6759 40.0087 28.2178C40.1166 27.7888 40.4412 27.5737 40.8738 27.5737C41.0955 27.5826 41.3048 27.6777 41.4563 27.8385C41.6077 27.9993 41.6893 28.2129 41.683 28.4329C41.683 30.0958 39.5268 34.4419 36.4432 36.9641C36.2861 37.0951 36.1608 37.2597 36.0767 37.4454C35.9925 37.6313 35.9518 37.8334 35.9574 38.0371C35.9605 38.2026 35.9966 38.3659 36.0635 38.5175C36.1304 38.6692 36.2268 38.8063 36.3472 38.9209C36.4677 39.0356 36.6098 39.1255 36.7653 39.1856C36.9208 39.2457 37.0868 39.2747 37.2537 39.2711C37.5239 39.2711 37.9565 39.1101 38.4968 38.627C40.6531 36.6948 44.7628 31.2758 44.7628 25.3195C44.7628 16.5871 37.9526 9.06226 28.4484 9.06226C19.9677 9.06226 12.6211 15.9304 12.6211 23.8717C12.6211 29.1298 16.8348 33.0997 22.3981 33.0997C26.6662 33.0997 30.6098 30.0958 31.6904 25.9636C31.7983 25.5346 32.1217 25.3195 32.5542 25.3195C32.7761 25.3284 32.9855 25.4235 33.1372 25.5843C33.2889 25.7451 33.3706 25.9586 33.3648 26.1787C33.3648 28.0568 29.7992 34.6067 22.5604 34.6067C20.8315 34.6067 18.6714 34.1237 17.1582 33.2645C16.9556 33.1672 16.735 33.1124 16.5101 33.1035C16.3378 33.0969 16.1661 33.1258 16.0057 33.1883C15.8452 33.2507 15.6995 33.3454 15.5778 33.4664C15.456 33.5873 15.3608 33.732 15.2982 33.8912C15.2355 34.0504 15.2068 34.2208 15.2138 34.3916C15.2208 34.6104 15.2839 34.8238 15.3974 35.0116C15.5108 35.1993 15.6707 35.3553 15.8619 35.4646C17.8609 36.5968 20.2379 37.1816 22.6682 37.1816C28.7185 37.1816 34.2286 33.1035 35.8496 27.0944C35.9574 26.6655 36.2821 26.4504 36.7134 26.4504C36.9352 26.4593 37.1447 26.5543 37.2963 26.7151C37.448 26.8759 37.5298 27.0894 37.5239 27.3096C37.5239 29.7776 33.0946 37.7188 24.5594 38.3628C24.2292 38.3871 23.9196 38.5316 23.6902 38.7684C23.4608 39.0052 23.3277 39.3177 23.3164 39.6459Z" fill="#4F43DD"/>
<path d="M31.775 19.0966C32.9401 19.088 34.0836 19.4073 35.0729 20.0174C35.1729 19.4748 35.228 18.9249 35.2378 18.3733C35.2378 15.8261 33.2794 13.5442 30.8948 13.5442C29.0404 13.5442 27.881 15.0676 27.881 16.9494C27.8722 17.9659 28.2324 18.9518 28.8958 19.7269C29.7945 19.3019 30.7794 19.0863 31.775 19.0966Z" fill="white"/>
<path d="M37.3622 28.3247C37.6933 27.2026 37.8392 26.424 37.8392 25.9183C37.8291 25.7 37.7347 25.4938 37.5756 25.3425C37.4164 25.1913 37.2047 25.1065 36.9843 25.1057C36.7789 25.1095 36.5807 25.1813 36.4213 25.3096C36.2618 25.4379 36.1501 25.6155 36.104 25.814C36.0139 26.1825 35.8211 27.1813 35.6309 27.8153C35.7095 27.578 35.7814 27.3368 35.8465 27.092C35.9544 26.6618 36.279 26.4479 36.7103 26.4479C36.932 26.4565 37.1415 26.5513 37.2931 26.7118C37.4448 26.8725 37.5267 27.0858 37.5208 27.3058C37.5107 27.6516 37.4548 27.9946 37.3547 28.326L37.3622 28.3247Z" fill="#352D8E"/>
<path d="M41.9536 27.1524C41.9433 26.9343 41.849 26.7285 41.6901 26.5774C41.5313 26.4262 41.3201 26.3412 41.1 26.3398C40.8949 26.3439 40.697 26.4158 40.5377 26.5441C40.3785 26.6723 40.267 26.8497 40.221 27.048C40.1297 27.4254 39.933 28.4393 39.7402 29.072H39.7491C39.843 28.7902 39.9305 28.5047 40.0028 28.2141C40.1106 27.7839 40.4353 27.57 40.8679 27.57C41.0895 27.5786 41.2987 27.6735 41.4503 27.8341C41.6018 27.9947 41.6833 28.2081 41.6772 28.428C41.6709 28.695 41.6339 28.9605 41.5668 29.2192C41.8357 28.2833 41.9536 27.6065 41.9536 27.1524Z" fill="#352D8E"/>
<path d="M31.7743 19.0967C32.3533 19.0955 32.9298 19.1722 33.488 19.3244C33.781 18.928 33.9275 18.4437 33.9027 17.9528C33.8779 17.4619 33.6833 16.9945 33.3517 16.6292C33.0202 16.2639 32.5718 16.023 32.0822 15.947C31.5925 15.8712 31.0914 15.9648 30.6633 16.2123L31.5511 17.6615L29.8882 16.9482C29.663 17.3087 29.55 17.727 29.5636 18.1509C29.5771 18.5747 29.7165 18.9851 29.9643 19.3307C30.5544 19.173 31.1632 19.0943 31.7743 19.0967Z" fill="currentColor"/>
<path d="M18.9637 28.4228C19.6643 28.4228 20.2321 27.8596 20.2321 27.1649C20.2321 26.4702 19.6643 25.907 18.9637 25.907C18.2632 25.907 17.6953 26.4702 17.6953 27.1649C17.6953 27.8596 18.2632 28.4228 18.9637 28.4228Z" fill="#352D8E"/>
<path d="M18.9637 23.3913C19.6643 23.3913 20.2321 22.8281 20.2321 22.1334C20.2321 21.4387 19.6643 20.8755 18.9637 20.8755C18.2632 20.8755 17.6953 21.4387 17.6953 22.1334C17.6953 22.8281 18.2632 23.3913 18.9637 23.3913Z" fill="#352D8E"/>
<path d="M16.4266 25.907C17.1272 25.907 17.695 25.3438 17.695 24.6491C17.695 23.9543 17.1272 23.3911 16.4266 23.3911C15.7261 23.3911 15.1582 23.9543 15.1582 24.6491C15.1582 25.3438 15.7261 25.907 16.4266 25.907Z" fill="#352D8E"/>
<path d="M22.1352 33.0973H22.3889C26.6571 33.0973 30.6006 30.0933 31.6813 25.9611C31.7891 25.5321 32.1125 25.317 32.545 25.317C32.7669 25.3259 32.9763 25.421 33.128 25.5818C33.2797 25.7426 33.3614 25.9561 33.3556 26.1762C33.3362 26.6153 33.2361 27.0471 33.0601 27.4504C33.0906 27.4036 33.1174 27.3544 33.1399 27.3033C33.4609 26.5758 33.6267 25.7903 33.627 24.9963C33.627 23.7623 32.762 22.9572 31.5202 22.9572C29.355 22.9572 28.9212 24.8315 28.0079 26.8353C27.0604 28.9159 25.3201 31.1663 20.9315 31.1663C16.3715 31.1663 11.686 28.0002 12.8288 21.5621C12.8428 21.4816 12.8542 21.4099 12.8631 21.3433C12.6956 22.175 12.6106 23.021 12.6094 23.8692C12.622 29.0518 16.7051 32.9764 22.1352 33.0973Z" fill="#352D8E"/>
</svg>
