<svg width="162" height="130" viewBox="0 0 162 130" fill="none" xmlns="http://www.w3.org/2000/svg">
<path d="M78.4922 127.95L21.3392 94.5434C16.7158 91.8409 16.7158 85.1591 21.3392 82.4566L78.4922 49.0503C80.6613 47.7825 83.3435 47.7744 85.5202 49.029L143.478 82.4353C148.151 85.1285 148.151 91.8715 143.478 94.5647L85.5202 127.971C83.3435 129.226 80.6613 129.218 78.4922 127.95Z" fill="#6D03D9" fill-opacity="0.1"/>
<g filter="url(#filter0_d_21640_27913)">
<path d="M78.4922 114.95L21.3392 81.5434C16.7158 78.8409 16.7158 72.1591 21.3392 69.4566L78.4922 36.0503C80.6613 34.7825 83.3435 34.7744 85.5202 36.029L143.478 69.4353C148.151 72.1285 148.151 78.8715 143.478 81.5647L85.5202 114.971C83.3435 116.226 80.6613 116.218 78.4922 114.95Z" fill="white"/>
<path d="M78.4922 114.95L21.3392 81.5434C16.7158 78.8409 16.7158 72.1591 21.3392 69.4566L78.4922 36.0503C80.6613 34.7825 83.3435 34.7744 85.5202 36.029L143.478 69.4353C148.151 72.1285 148.151 78.8715 143.478 81.5647L85.5202 114.971C83.3435 116.226 80.6613 116.218 78.4922 114.95Z" stroke="#6D04DA" stroke-width="0.5"/>
</g>
<path d="M83.9763 62L90.5291 62.8596L78.0252 100.682L71.4725 99.8225L83.9763 62ZM106.376 81.3411L94.3738 73.6261V67.5444L115.838 81.3411L94.3738 95.1161V89.0345L106.376 81.3411ZM46.1641 81.3411L67.6278 67.5444V73.6261L55.6255 81.3411L67.6278 89.0345V95.1161L46.1641 81.3411Z" fill="#E3F7F7"/>
<g filter="url(#filter1_diii_21640_27913)">
<path d="M83.9763 57.6753L90.5291 58.5349L78.0252 96.3574L71.4725 95.4978L83.9763 57.6753ZM106.376 77.0164L94.3738 69.3014V63.2197L115.838 77.0164L94.3738 90.7914V84.7098L106.376 77.0164ZM46.1641 77.0164L67.6278 63.2197V69.3014L55.6255 77.0164L67.6278 84.7098V90.7914L46.1641 77.0164Z" fill="#63FCA6"/>
<path fill-rule="evenodd" clip-rule="evenodd" d="M90.5293 47.8594L78.0254 85.6818L71.4727 84.8222V95.4977L78.0254 96.3573L90.5293 58.5349V47.8594Z" fill="#12260D" fill-opacity="0.6" stroke="#7AFFE3" stroke-width="0.5" stroke-linejoin="round"/>
<path fill-rule="evenodd" clip-rule="evenodd" d="M71.4727 84.8225L83.9765 47L90.5293 47.8596V58.5351L83.9765 57.6755L71.4727 95.498V84.8225Z" fill="#12260D" fill-opacity="0.6" stroke="#7AFFE3" stroke-width="0.5" stroke-linejoin="round"/>
<path fill-rule="evenodd" clip-rule="evenodd" d="M106.375 66.341L94.373 58.626V69.3015L106.375 77.0165V66.341Z" fill="#12260D" fill-opacity="0.6" stroke="#7AFFE3" stroke-width="0.5" stroke-linejoin="round"/>
<path fill-rule="evenodd" clip-rule="evenodd" d="M94.373 58.6261V52.5444L115.837 66.3411V77.0166L94.373 63.2199V69.3016V58.6261Z" fill="#12260D" fill-opacity="0.6" stroke="#7AFFE3" stroke-width="0.5" stroke-linejoin="round"/>
<path fill-rule="evenodd" clip-rule="evenodd" d="M115.837 66.3413L94.373 80.1164V90.7919L115.837 77.0168V66.3413Z" fill="#12260D" fill-opacity="0.6" stroke="#7AFFE3" stroke-width="0.5" stroke-linejoin="round"/>
<path fill-rule="evenodd" clip-rule="evenodd" d="M94.373 80.1164V74.0347L106.375 66.3413V77.0168L94.373 84.7102V90.7919V80.1164Z" fill="#12260D" fill-opacity="0.6" stroke="#7AFFE3" stroke-width="0.5" stroke-linejoin="round"/>
<path fill-rule="evenodd" clip-rule="evenodd" d="M46.1641 66.3411L67.6278 52.5444V63.2199L46.1641 77.0166V66.3411Z" fill="#12260D" fill-opacity="0.6" stroke="#7AFFE3" stroke-width="0.5" stroke-linejoin="round"/>
<path fill-rule="evenodd" clip-rule="evenodd" d="M67.627 52.5444V58.6261V69.3016V63.2199V52.5444Z" fill="#12260D" fill-opacity="0.6" stroke="#7AFFE3" stroke-width="0.5" stroke-linejoin="round"/>
<path fill-rule="evenodd" clip-rule="evenodd" d="M67.6273 58.626L55.625 66.341V77.0165L67.6273 69.3015V58.626Z" fill="#12260D" fill-opacity="0.6" stroke="#7AFFE3" stroke-width="0.5" stroke-linejoin="round"/>
<path fill-rule="evenodd" clip-rule="evenodd" d="M55.625 66.3413L67.6273 74.0347V84.7102L55.625 77.0168V66.3413Z" fill="#12260D" fill-opacity="0.6" stroke="#7AFFE3" stroke-width="0.5" stroke-linejoin="round"/>
<path fill-rule="evenodd" clip-rule="evenodd" d="M67.627 74.0347V80.1163V90.7918V84.7102V74.0347Z" fill="#12260D" fill-opacity="0.6" stroke="#7AFFE3" stroke-width="0.5" stroke-linejoin="round"/>
<path fill-rule="evenodd" clip-rule="evenodd" d="M67.6278 80.1164L46.1641 66.3413V77.0168L67.6278 90.7919V80.1164Z" fill="#12260D" fill-opacity="0.6" stroke="#7AFFE3" stroke-width="0.5" stroke-linejoin="round"/>
<path d="M83.9763 47L90.5291 47.8596L78.0252 85.6821L71.4725 84.8225L83.9763 47ZM106.376 66.3411L94.3738 58.6261V52.5444L115.838 66.3411L94.3738 80.1161V74.0345L106.376 66.3411ZM46.1641 66.3411L67.6278 52.5444V58.6261L55.6255 66.3411L67.6278 74.0345V80.1161L46.1641 66.3411Z" fill="#63FCA6"/>
</g>
<defs>
<filter id="filter0_d_21640_27913" x="17.6211" y="34.8438" width="129.611" height="82.3125" filterUnits="userSpaceOnUse" color-interpolation-filters="sRGB">
<feFlood flood-opacity="0" result="BackgroundImageFix"/>
<feColorMatrix in="SourceAlpha" type="matrix" values="0 0 0 0 0 0 0 0 0 0 0 0 0 0 0 0 0 0 127 0" result="hardAlpha"/>
<feOffset dy="1"/>
<feComposite in2="hardAlpha" operator="out"/>
<feColorMatrix type="matrix" values="0 0 0 0 0.827451 0 0 0 0 0.701961 0 0 0 0 0.956863 0 0 0 1 0"/>
<feBlend mode="normal" in2="BackgroundImageFix" result="effect1_dropShadow_21640_27913"/>
<feBlend mode="normal" in="SourceGraphic" in2="effect1_dropShadow_21640_27913" result="shape"/>
</filter>
<filter id="filter1_diii_21640_27913" x="43.9141" y="46.75" width="74.1719" height="55.8574" filterUnits="userSpaceOnUse" color-interpolation-filters="sRGB">
<feFlood flood-opacity="0" result="BackgroundImageFix"/>
<feColorMatrix in="SourceAlpha" type="matrix" values="0 0 0 0 0 0 0 0 0 0 0 0 0 0 0 0 0 0 127 0" result="hardAlpha"/>
<feOffset dy="4"/>
<feGaussianBlur stdDeviation="1"/>
<feComposite in2="hardAlpha" operator="out"/>
<feColorMatrix type="matrix" values="0 0 0 0 0 0 0 0 0 0 0 0 0 0 0 0 0 0 0.06 0"/>
<feBlend mode="normal" in2="BackgroundImageFix" result="effect1_dropShadow_21640_27913"/>
<feBlend mode="normal" in="SourceGraphic" in2="effect1_dropShadow_21640_27913" result="shape"/>
<feColorMatrix in="SourceAlpha" type="matrix" values="0 0 0 0 0 0 0 0 0 0 0 0 0 0 0 0 0 0 127 0" result="hardAlpha"/>
<feOffset/>
<feGaussianBlur stdDeviation="1.67407"/>
<feComposite in2="hardAlpha" operator="arithmetic" k2="-1" k3="1"/>
<feColorMatrix type="matrix" values="0 0 0 0 0.0235045 0 0 0 0 0.0724697 0 0 0 0 0.118555 0 0 0 0.5 0"/>
<feBlend mode="soft-light" in2="shape" result="effect2_innerShadow_21640_27913"/>
<feColorMatrix in="SourceAlpha" type="matrix" values="0 0 0 0 0 0 0 0 0 0 0 0 0 0 0 0 0 0 127 0" result="hardAlpha"/>
<feOffset dy="1.67407"/>
<feGaussianBlur stdDeviation="1.67407"/>
<feComposite in2="hardAlpha" operator="arithmetic" k2="-1" k3="1"/>
<feColorMatrix type="matrix" values="0 0 0 0 1 0 0 0 0 1 0 0 0 0 1 0 0 0 1 0"/>
<feBlend mode="soft-light" in2="effect2_innerShadow_21640_27913" result="effect3_innerShadow_21640_27913"/>
<feColorMatrix in="SourceAlpha" type="matrix" values="0 0 0 0 0 0 0 0 0 0 0 0 0 0 0 0 0 0 127 0" result="hardAlpha"/>
<feOffset dx="2.51111"/>
<feGaussianBlur stdDeviation="0.837037"/>
<feComposite in2="hardAlpha" operator="arithmetic" k2="-1" k3="1"/>
<feColorMatrix type="matrix" values="0 0 0 0 1 0 0 0 0 1 0 0 0 0 1 0 0 0 1 0"/>
<feBlend mode="soft-light" in2="effect3_innerShadow_21640_27913" result="effect4_innerShadow_21640_27913"/>
</filter>
</defs>
</svg>
