<svg width="458" height="260" viewBox="0 0 458 260" fill="none" xmlns="http://www.w3.org/2000/svg">
<rect width="458" height="260" rx="6" fill="#FFF1EF"/>
<g filter="url(#filter0_d_databricks)">
<rect x="25" y="98" width="84" height="64" rx="10" fill="white" shape-rendering="crispEdges"/>
<rect x="25.5" y="98.5" width="83" height="63" rx="9.5" stroke="#FF3621" shape-rendering="crispEdges"/>
<circle cx="67" cy="121" r="11" stroke="black" stroke-width="1.5" fill="none"/>
<path d="M67 121V113" stroke="black" stroke-width="1.5" stroke-linecap="round"/>
<path d="M67 121L73 121" stroke="black" stroke-width="1.5" stroke-linecap="round"/>
<circle cx="67" cy="121" r="1.5" fill="currentColor"/>
<text x="67" y="152" text-anchor="middle" font-family="-apple-system,BlinkMacSystemFont,sans-serif" font-size="9.5" font-weight="700" fill="currentColor">Schedule</text>
</g>
<g filter="url(#filter1_d_databricks)">
<rect x="132.334" y="98" width="84" height="64" rx="10" fill="white" shape-rendering="crispEdges"/>
<rect x="132.834" y="98.5" width="83" height="63" rx="9.5" stroke="#FF3621" shape-rendering="crispEdges"/>
<path d="M178 110H166C164.9 110 164 110.9 164 112V130C164 131.1 164.9 132 166 132H180C181.1 132 182 131.1 182 130V114L178 110ZM178 111.5L180.5 114H178V111.5ZM168 120H179V122H168V120ZM168 124H179V126H168V124ZM168 116H176V118H168V116Z" fill="currentColor"/>
<text x="174.334" y="152" text-anchor="middle" font-family="-apple-system,BlinkMacSystemFont,sans-serif" font-size="9.5" font-weight="700" fill="currentColor">Notebook</text>
</g>
<g filter="url(#filter2_d_databricks)">
<rect x="239.666" y="98" width="85" height="64" rx="10" fill="white" shape-rendering="crispEdges"/>
<rect x="240.166" y="98.5" width="84" height="63" rx="9.5" stroke="#FF3621" shape-rendering="crispEdges"/>
<!-- Lightning bolt: Spark -->
<path d="M285 111L275 123H282L277 131L291 119H284Z" fill="currentColor"/>
<text x="282.166" y="152" text-anchor="middle" font-family="-apple-system,BlinkMacSystemFont,sans-serif" font-size="9.5" font-weight="700" fill="currentColor">Spark</text>
</g>
<g filter="url(#filter3_d_databricks)">
<rect x="348" y="98" width="85" height="64" rx="10" fill="white" shape-rendering="crispEdges"/>
<rect x="348.5" y="98.5" width="84" height="63" rx="9.5" stroke="#FF3621" shape-rendering="crispEdges"/>
<path d="M383 130.75H385.5V133.25H383V130.75ZM390.5 110.75L378 117V133.25H380.5V123.25H400.5V133.25H403V117L390.5 110.75ZM385.5 120.75H380.5V118.25H385.5V120.75ZM393 120.75H388V118.25H393V120.75ZM400.5 120.75H395.5V118.25H400.5V120.75ZM383 125.75H385.5V128.25H383V125.75ZM388 125.75H390.5V128.25H388V125.75ZM388 130.75H390.5V133.25H388V130.75ZM393 130.75H395.5V133.25H393V130.75Z" fill="currentColor"/>
<text x="390.5" y="152" text-anchor="middle" font-family="-apple-system,BlinkMacSystemFont,sans-serif" font-size="9.5" font-weight="700" fill="currentColor">Load</text>
</g>
<path d="M129.209 130L119.209 124.226V135.774L129.209 130ZM111.041 130V131H120.209V130V129H111.041V130Z" fill="currentColor"/>
<path d="M237.084 130L227.084 124.226V135.774L237.084 130ZM218.916 130V131H228.084V130V129H218.916V130Z" fill="currentColor"/>
<path d="M345.416 130L335.416 124.226V135.774L345.416 130ZM327.248 130V131H336.416V130V129H327.248V130Z" fill="currentColor"/>
<defs>
<filter id="filter0_d_databricks" x="25" y="98" width="84" height="67" filterUnits="userSpaceOnUse" color-interpolation-filters="sRGB">
<feFlood flood-opacity="0" result="BackgroundImageFix"/>
<feColorMatrix in="SourceAlpha" type="matrix" values="0 0 0 0 0 0 0 0 0 0 0 0 0 0 0 0 0 0 127 0" result="hardAlpha"/>
<feOffset dy="3"/>
<feComposite in2="hardAlpha" operator="out"/>
<feColorMatrix type="matrix" values="0 0 0 0 1.0 0 0 0 0 0.212 0 0 0 0 0.129 0 0 0 1 0"/>
<feBlend mode="normal" in2="BackgroundImageFix" result="effect1_dropShadow_databricks"/>
<feBlend mode="normal" in="SourceGraphic" in2="effect1_dropShadow_databricks" result="shape"/>
</filter>
<filter id="filter1_d_databricks" x="132.334" y="98" width="84" height="67" filterUnits="userSpaceOnUse" color-interpolation-filters="sRGB">
<feFlood flood-opacity="0" result="BackgroundImageFix"/>
<feColorMatrix in="SourceAlpha" type="matrix" values="0 0 0 0 0 0 0 0 0 0 0 0 0 0 0 0 0 0 127 0" result="hardAlpha"/>
<feOffset dy="3"/>
<feComposite in2="hardAlpha" operator="out"/>
<feColorMatrix type="matrix" values="0 0 0 0 1.0 0 0 0 0 0.212 0 0 0 0 0.129 0 0 0 1 0"/>
<feBlend mode="normal" in2="BackgroundImageFix" result="effect1_dropShadow_databricks"/>
<feBlend mode="normal" in="SourceGraphic" in2="effect1_dropShadow_databricks" result="shape"/>
</filter>
<filter id="filter2_d_databricks" x="239.666" y="98" width="85" height="67" filterUnits="userSpaceOnUse" color-interpolation-filters="sRGB">
<feFlood flood-opacity="0" result="BackgroundImageFix"/>
<feColorMatrix in="SourceAlpha" type="matrix" values="0 0 0 0 0 0 0 0 0 0 0 0 0 0 0 0 0 0 127 0" result="hardAlpha"/>
<feOffset dy="3"/>
<feComposite in2="hardAlpha" operator="out"/>
<feColorMatrix type="matrix" values="0 0 0 0 1.0 0 0 0 0 0.212 0 0 0 0 0.129 0 0 0 1 0"/>
<feBlend mode="normal" in2="BackgroundImageFix" result="effect1_dropShadow_databricks"/>
<feBlend mode="normal" in="SourceGraphic" in2="effect1_dropShadow_databricks" result="shape"/>
</filter>
<filter id="filter3_d_databricks" x="348" y="98" width="85" height="67" filterUnits="userSpaceOnUse" color-interpolation-filters="sRGB">
<feFlood flood-opacity="0" result="BackgroundImageFix"/>
<feColorMatrix in="SourceAlpha" type="matrix" values="0 0 0 0 0 0 0 0 0 0 0 0 0 0 0 0 0 0 127 0" result="hardAlpha"/>
<feOffset dy="3"/>
<feComposite in2="hardAlpha" operator="out"/>
<feColorMatrix type="matrix" values="0 0 0 0 1.0 0 0 0 0 0.212 0 0 0 0 0.129 0 0 0 1 0"/>
<feBlend mode="normal" in2="BackgroundImageFix" result="effect1_dropShadow_databricks"/>
<feBlend mode="normal" in="SourceGraphic" in2="effect1_dropShadow_databricks" result="shape"/>
</filter>
</defs>
</svg>
