<svg width="458" height="260" viewBox="0 0 458 260" fill="none" xmlns="http://www.w3.org/2000/svg">
<rect width="458" height="260" rx="6" fill="#FDE8D8"/>
<g filter="url(#filter0_d_gitlab)">
<rect x="25" y="98" width="84" height="64" rx="10" fill="white" shape-rendering="crispEdges"/>
<rect x="25.5" y="98.5" width="83" height="63" rx="9.5" stroke="#FC6D26" shape-rendering="crispEdges"/>
<!-- Commit: git node (circle with line above and below) -->
<circle cx="67" cy="121" r="5" fill="none" stroke="currentColor" stroke-width="1.5"/>
<path d="M67 112V116" stroke="currentColor" stroke-width="1.5" stroke-linecap="round"/>
<path d="M67 126V131" stroke="currentColor" stroke-width="1.5" stroke-linecap="round"/>
<text x="67" y="152" text-anchor="middle" font-family="-apple-system,BlinkMacSystemFont,sans-serif" font-size="9.5" font-weight="700" fill="currentColor">Commit</text>
</g>
<g filter="url(#filter1_d_gitlab)">
<rect x="132.334" y="98" width="84" height="64" rx="10" fill="white" shape-rendering="crispEdges"/>
<rect x="132.834" y="98.5" width="83" height="63" rx="9.5" stroke="#FC6D26" shape-rendering="crispEdges"/>
<!-- Build: gear/cog (circle + cross teeth) -->
<circle cx="174.334" cy="121" r="6" fill="none" stroke="currentColor" stroke-width="1.5"/>
<circle cx="174.334" cy="121" r="2.5" fill="none" stroke="currentColor" stroke-width="1.5"/>
<path d="M174.334 115V112M180.334 121H183.334M174.334 127V130M168.334 121H165.334" stroke="currentColor" stroke-width="2.5" stroke-linecap="round"/>
<text x="174.334" y="152" text-anchor="middle" font-family="-apple-system,BlinkMacSystemFont,sans-serif" font-size="9.5" font-weight="700" fill="currentColor">Build</text>
</g>
<g filter="url(#filter2_d_gitlab)">
<rect x="239.666" y="98" width="85" height="64" rx="10" fill="white" shape-rendering="crispEdges"/>
<rect x="240.166" y="98.5" width="84" height="63" rx="9.5" stroke="#FC6D26" shape-rendering="crispEdges"/>
<!-- Test: checkmark in circle -->
<circle cx="282.166" cy="121" r="9" fill="none" stroke="currentColor" stroke-width="1.5"/>
<path d="M277.166 121L280.166 124L287.166 116" fill="none" stroke="currentColor" stroke-width="1.5" stroke-linecap="round" stroke-linejoin="round"/>
<text x="282.166" y="152" text-anchor="middle" font-family="-apple-system,BlinkMacSystemFont,sans-serif" font-size="9.5" font-weight="700" fill="currentColor">Test</text>
</g>
<g filter="url(#filter3_d_gitlab)">
<rect x="348" y="98" width="85" height="64" rx="10" fill="white" shape-rendering="crispEdges"/>
<rect x="348.5" y="98.5" width="84" height="63" rx="9.5" stroke="#FC6D26" shape-rendering="crispEdges"/>
<!-- Deploy: upward arrow -->
<path d="M390.5 112L384 121H388V130H393V121H397Z" fill="currentColor"/>
<text x="390.5" y="152" text-anchor="middle" font-family="-apple-system,BlinkMacSystemFont,sans-serif" font-size="9.5" font-weight="700" fill="currentColor">Deploy</text>
</g>
<path d="M129.209 130L119.209 124.226V135.774L129.209 130ZM111.041 130V131H120.209V130V129H111.041V130Z" fill="currentColor"/>
<path d="M237.084 130L227.084 124.226V135.774L237.084 130ZM218.916 130V131H228.084V130V129H218.916V130Z" fill="currentColor"/>
<path d="M345.416 130L335.416 124.226V135.774L345.416 130ZM327.248 130V131H336.416V130V129H327.248V130Z" fill="currentColor"/>
<defs>
<filter id="filter0_d_gitlab" x="25" y="98" width="84" height="67" filterUnits="userSpaceOnUse" color-interpolation-filters="sRGB">
<feFlood flood-opacity="0" result="BackgroundImageFix"/>
<feColorMatrix in="SourceAlpha" type="matrix" values="0 0 0 0 0 0 0 0 0 0 0 0 0 0 0 0 0 0 127 0" result="hardAlpha"/>
<feOffset dy="3"/>
<feComposite in2="hardAlpha" operator="out"/>
<feColorMatrix type="matrix" values="0 0 0 0 0.988 0 0 0 0 0.427 0 0 0 0 0.149 0 0 0 1 0"/>
<feBlend mode="normal" in2="BackgroundImageFix" result="effect1_dropShadow_gitlab"/>
<feBlend mode="normal" in="SourceGraphic" in2="effect1_dropShadow_gitlab" result="shape"/>
</filter>
<filter id="filter1_d_gitlab" x="132.334" y="98" width="84" height="67" filterUnits="userSpaceOnUse" color-interpolation-filters="sRGB">
<feFlood flood-opacity="0" result="BackgroundImageFix"/>
<feColorMatrix in="SourceAlpha" type="matrix" values="0 0 0 0 0 0 0 0 0 0 0 0 0 0 0 0 0 0 127 0" result="hardAlpha"/>
<feOffset dy="3"/>
<feComposite in2="hardAlpha" operator="out"/>
<feColorMatrix type="matrix" values="0 0 0 0 0.988 0 0 0 0 0.427 0 0 0 0 0.149 0 0 0 1 0"/>
<feBlend mode="normal" in2="BackgroundImageFix" result="effect1_dropShadow_gitlab"/>
<feBlend mode="normal" in="SourceGraphic" in2="effect1_dropShadow_gitlab" result="shape"/>
</filter>
<filter id="filter2_d_gitlab" x="239.666" y="98" width="85" height="67" filterUnits="userSpaceOnUse" color-interpolation-filters="sRGB">
<feFlood flood-opacity="0" result="BackgroundImageFix"/>
<feColorMatrix in="SourceAlpha" type="matrix" values="0 0 0 0 0 0 0 0 0 0 0 0 0 0 0 0 0 0 127 0" result="hardAlpha"/>
<feOffset dy="3"/>
<feComposite in2="hardAlpha" operator="out"/>
<feColorMatrix type="matrix" values="0 0 0 0 0.988 0 0 0 0 0.427 0 0 0 0 0.149 0 0 0 1 0"/>
<feBlend mode="normal" in2="BackgroundImageFix" result="effect1_dropShadow_gitlab"/>
<feBlend mode="normal" in="SourceGraphic" in2="effect1_dropShadow_gitlab" result="shape"/>
</filter>
<filter id="filter3_d_gitlab" x="348" y="98" width="85" height="67" filterUnits="userSpaceOnUse" color-interpolation-filters="sRGB">
<feFlood flood-opacity="0" result="BackgroundImageFix"/>
<feColorMatrix in="SourceAlpha" type="matrix" values="0 0 0 0 0 0 0 0 0 0 0 0 0 0 0 0 0 0 127 0" result="hardAlpha"/>
<feOffset dy="3"/>
<feComposite in2="hardAlpha" operator="out"/>
<feColorMatrix type="matrix" values="0 0 0 0 0.988 0 0 0 0 0.427 0 0 0 0 0.149 0 0 0 1 0"/>
<feBlend mode="normal" in2="BackgroundImageFix" result="effect1_dropShadow_gitlab"/>
<feBlend mode="normal" in="SourceGraphic" in2="effect1_dropShadow_gitlab" result="shape"/>
</filter>
</defs>
</svg>
