<svg width="1720" height="834" viewBox="0 0 1720 834" fill="none" xmlns="http://www.w3.org/2000/svg">
<mask id="mask0_21626_27049" style="mask-type:alpha" maskUnits="userSpaceOnUse" x="0" y="-175" width="1720" height="1217">
<g opacity="0.12">
<rect x="0.452394" y="-0.0695785" width="85.9549" height="85.9549" stroke="white" stroke-width="0.904788"/>
<rect x="86.4075" y="-0.0695785" width="85.9549" height="85.9549" stroke="white" stroke-width="0.904788"/>
<rect x="172.363" y="-0.0695785" width="85.9549" height="85.9549" stroke="white" stroke-width="0.904788"/>
<rect x="258.316" y="-0.0695785" width="85.9549" height="85.9549" stroke="white" stroke-width="0.904788"/>
<rect x="344.271" y="-0.0695785" width="85.9549" height="85.9549" stroke="white" stroke-width="0.904788"/>
<rect x="430.226" y="-0.0695785" width="85.9549" height="85.9549" stroke="white" stroke-width="0.904788"/>
<rect x="516.181" y="-0.0695785" width="85.9549" height="85.9549" stroke="white" stroke-width="0.904788"/>
<rect x="602.136" y="-0.0695785" width="85.9549" height="85.9549" stroke="white" stroke-width="0.904788"/>
<rect x="688.091" y="-0.0695785" width="85.9549" height="85.9549" stroke="white" stroke-width="0.904788"/>
<rect x="774.046" y="-0.0695785" width="85.9549" height="85.9549" stroke="white" stroke-width="0.904788"/>
<rect x="859.999" y="-0.0695785" width="85.9549" height="85.9549" stroke="white" stroke-width="0.904788"/>
<rect x="945.954" y="-0.0695785" width="85.9549" height="85.9549" stroke="white" stroke-width="0.904788"/>
<rect x="1031.91" y="-0.0695785" width="85.9549" height="85.9549" stroke="white" stroke-width="0.904788"/>
<rect x="1117.86" y="-0.0695785" width="85.9549" height="85.9549" stroke="white" stroke-width="0.904788"/>
<rect x="1203.82" y="-0.0695785" width="85.9549" height="85.9549" stroke="white" stroke-width="0.904788"/>
<rect x="1289.77" y="-0.0695785" width="85.9549" height="85.9549" stroke="white" stroke-width="0.904788"/>
<rect x="1375.73" y="-0.0695785" width="85.9549" height="85.9549" stroke="white" stroke-width="0.904788"/>
<rect x="1461.68" y="-0.0695785" width="85.9549" height="85.9549" stroke="white" stroke-width="0.904788"/>
<rect x="1547.64" y="-0.0695785" width="85.9549" height="85.9549" stroke="white" stroke-width="0.904788"/>
<rect x="1633.59" y="-0.0695785" width="85.9549" height="85.9549" stroke="white" stroke-width="0.904788"/>
<rect x="0.452394" y="86.7903" width="85.9549" height="85.9549" stroke="white" stroke-width="0.904788"/>
<rect x="86.4075" y="86.7903" width="85.9549" height="85.9549" stroke="white" stroke-width="0.904788"/>
<rect x="172.363" y="86.7903" width="85.9549" height="85.9549" stroke="white" stroke-width="0.904788"/>
<rect x="258.316" y="86.7903" width="85.9549" height="85.9549" stroke="white" stroke-width="0.904788"/>
<rect x="344.271" y="86.7903" width="85.9549" height="85.9549" stroke="white" stroke-width="0.904788"/>
<rect x="430.226" y="86.7903" width="85.9549" height="85.9549" stroke="white" stroke-width="0.904788"/>
<rect x="516.181" y="86.7903" width="85.9549" height="85.9549" stroke="white" stroke-width="0.904788"/>
<rect x="602.136" y="86.7903" width="85.9549" height="85.9549" stroke="white" stroke-width="0.904788"/>
<rect x="688.091" y="86.7903" width="85.9549" height="85.9549" stroke="white" stroke-width="0.904788"/>
<rect x="774.046" y="86.7903" width="85.9549" height="85.9549" stroke="white" stroke-width="0.904788"/>
<rect x="859.999" y="86.7903" width="85.9549" height="85.9549" stroke="white" stroke-width="0.904788"/>
<rect x="945.954" y="86.7903" width="85.9549" height="85.9549" stroke="white" stroke-width="0.904788"/>
<rect x="1031.91" y="86.7903" width="85.9549" height="85.9549" stroke="white" stroke-width="0.904788"/>
<rect x="1117.86" y="86.7903" width="85.9549" height="85.9549" stroke="white" stroke-width="0.904788"/>
<rect x="1203.82" y="86.7903" width="85.9549" height="85.9549" stroke="white" stroke-width="0.904788"/>
<rect x="1289.77" y="86.7903" width="85.9549" height="85.9549" stroke="white" stroke-width="0.904788"/>
<rect x="1375.73" y="86.7903" width="85.9549" height="85.9549" stroke="white" stroke-width="0.904788"/>
<rect x="1461.68" y="86.7903" width="85.9549" height="85.9549" stroke="white" stroke-width="0.904788"/>
<rect x="1547.64" y="86.7903" width="85.9549" height="85.9549" stroke="white" stroke-width="0.904788"/>
<rect x="1633.59" y="86.7903" width="85.9549" height="85.9549" stroke="white" stroke-width="0.904788"/>
<rect x="0.452394" y="173.65" width="85.9549" height="85.9549" stroke="white" stroke-width="0.904788"/>
<rect x="86.4075" y="173.65" width="85.9549" height="85.9549" stroke="white" stroke-width="0.904788"/>
<rect x="172.363" y="173.65" width="85.9549" height="85.9549" stroke="white" stroke-width="0.904788"/>
<rect x="258.316" y="173.65" width="85.9549" height="85.9549" stroke="white" stroke-width="0.904788"/>
<rect x="344.271" y="173.65" width="85.9549" height="85.9549" stroke="white" stroke-width="0.904788"/>
<rect x="429.773" y="173.198" width="86.8597" height="86.8597" fill="white" fill-opacity="0.38"/>
<rect x="516.181" y="173.65" width="85.9549" height="85.9549" stroke="white" stroke-width="0.904788"/>
<rect x="602.136" y="173.65" width="85.9549" height="85.9549" stroke="white" stroke-width="0.904788"/>
<rect x="688.091" y="173.65" width="85.9549" height="85.9549" stroke="white" stroke-width="0.904788"/>
<rect x="774.046" y="173.65" width="85.9549" height="85.9549" stroke="white" stroke-width="0.904788"/>
<rect x="859.999" y="173.65" width="85.9549" height="85.9549" stroke="white" stroke-width="0.904788"/>
<rect x="945.954" y="173.65" width="85.9549" height="85.9549" stroke="white" stroke-width="0.904788"/>
<rect x="1031.46" y="173.198" width="86.8597" height="86.8597" fill="white" fill-opacity="0.13"/>
<rect x="1117.86" y="173.65" width="85.9549" height="85.9549" stroke="white" stroke-width="0.904788"/>
<rect x="1203.37" y="173.198" width="86.8597" height="86.8597" fill="white" fill-opacity="0.13"/>
<rect x="1289.77" y="173.65" width="85.9549" height="85.9549" stroke="white" stroke-width="0.904788"/>
<rect x="1375.73" y="173.65" width="85.9549" height="85.9549" stroke="white" stroke-width="0.904788"/>
<rect x="1461.68" y="173.65" width="85.9549" height="85.9549" stroke="white" stroke-width="0.904788"/>
<rect x="1547.64" y="173.65" width="85.9549" height="85.9549" stroke="white" stroke-width="0.904788"/>
<rect x="1633.59" y="173.65" width="85.9549" height="85.9549" stroke="white" stroke-width="0.904788"/>
<rect x="0.452394" y="260.51" width="85.9549" height="85.9549" stroke="white" stroke-width="0.904788"/>
<rect x="86.4075" y="260.51" width="85.9549" height="85.9549" stroke="white" stroke-width="0.904788"/>
<rect x="172.363" y="260.51" width="85.9549" height="85.9549" stroke="white" stroke-width="0.904788"/>
<rect x="258.316" y="260.51" width="85.9549" height="85.9549" stroke="white" stroke-width="0.904788"/>
<rect x="343.818" y="260.057" width="86.8597" height="86.8597" fill="white" fill-opacity="0.13"/>
<rect x="430.226" y="260.51" width="85.9549" height="85.9549" stroke="white" stroke-width="0.904788"/>
<rect x="515.729" y="260.057" width="86.8597" height="86.8597" fill="white" fill-opacity="0.38"/>
<rect x="602.136" y="260.51" width="85.9549" height="85.9549" stroke="white" stroke-width="0.904788"/>
<rect x="688.091" y="260.51" width="85.9549" height="85.9549" stroke="white" stroke-width="0.904788"/>
<rect x="774.046" y="260.51" width="85.9549" height="85.9549" stroke="white" stroke-width="0.904788"/>
<rect x="859.999" y="260.51" width="85.9549" height="85.9549" stroke="white" stroke-width="0.904788"/>
<rect x="945.502" y="260.057" width="86.8597" height="86.8597" fill="white" fill-opacity="0.13"/>
<rect x="1031.91" y="260.51" width="85.9549" height="85.9549" stroke="white" stroke-width="0.904788"/>
<rect x="1117.41" y="260.057" width="86.8597" height="86.8597" fill="white" fill-opacity="0.23"/>
<rect x="1203.82" y="260.51" width="85.9549" height="85.9549" stroke="white" stroke-width="0.904788"/>
<rect x="1289.77" y="260.51" width="85.9549" height="85.9549" stroke="white" stroke-width="0.904788"/>
<rect x="1375.73" y="260.51" width="85.9549" height="85.9549" stroke="white" stroke-width="0.904788"/>
<rect x="1461.68" y="260.51" width="85.9549" height="85.9549" stroke="white" stroke-width="0.904788"/>
<rect x="1547.64" y="260.51" width="85.9549" height="85.9549" stroke="white" stroke-width="0.904788"/>
<rect x="1633.59" y="260.51" width="85.9549" height="85.9549" stroke="white" stroke-width="0.904788"/>
<rect x="0.452394" y="347.369" width="85.9549" height="85.9549" stroke="white" stroke-width="0.904788"/>
<rect x="86.4075" y="347.369" width="85.9549" height="85.9549" stroke="white" stroke-width="0.904788"/>
<rect x="172.363" y="347.369" width="85.9549" height="85.9549" stroke="white" stroke-width="0.904788"/>
<rect x="257.863" y="346.917" width="86.8597" height="86.8597" fill="white" fill-opacity="0.13"/>
<rect x="344.271" y="347.369" width="85.9549" height="85.9549" stroke="white" stroke-width="0.904788"/>
<rect x="429.773" y="346.917" width="86.8597" height="86.8597" fill="white" fill-opacity="0.38"/>
<rect x="516.181" y="347.369" width="85.9549" height="85.9549" stroke="white" stroke-width="0.904788"/>
<rect x="602.136" y="347.369" width="85.9549" height="85.9549" stroke="white" stroke-width="0.904788"/>
<rect x="688.091" y="347.369" width="85.9549" height="85.9549" stroke="white" stroke-width="0.904788"/>
<rect x="774.046" y="347.369" width="85.9549" height="85.9549" stroke="white" stroke-width="0.904788"/>
<rect x="859.999" y="347.369" width="85.9549" height="85.9549" stroke="white" stroke-width="0.904788"/>
<rect x="945.954" y="347.369" width="85.9549" height="85.9549" stroke="white" stroke-width="0.904788"/>
<rect x="1031.46" y="346.917" width="86.8597" height="86.8597" fill="white" fill-opacity="0.13"/>
<rect x="1117.86" y="347.369" width="85.9549" height="85.9549" stroke="white" stroke-width="0.904788"/>
<rect x="1203.82" y="347.369" width="85.9549" height="85.9549" stroke="white" stroke-width="0.904788"/>
<rect x="1289.77" y="347.369" width="85.9549" height="85.9549" stroke="white" stroke-width="0.904788"/>
<rect x="1375.73" y="347.369" width="85.9549" height="85.9549" stroke="white" stroke-width="0.904788"/>
<rect x="1461.68" y="347.369" width="85.9549" height="85.9549" stroke="white" stroke-width="0.904788"/>
<rect x="1547.64" y="347.369" width="85.9549" height="85.9549" stroke="white" stroke-width="0.904788"/>
<rect x="1633.59" y="347.369" width="85.9549" height="85.9549" stroke="white" stroke-width="0.904788"/>
<rect x="0.452394" y="434.229" width="85.9549" height="85.9549" stroke="white" stroke-width="0.904788"/>
<rect x="86.4075" y="434.229" width="85.9549" height="85.9549" stroke="white" stroke-width="0.904788"/>
<rect x="172.363" y="434.229" width="85.9549" height="85.9549" stroke="white" stroke-width="0.904788"/>
<rect x="258.316" y="434.229" width="85.9549" height="85.9549" stroke="white" stroke-width="0.904788"/>
<rect x="344.271" y="434.229" width="85.9549" height="85.9549" stroke="white" stroke-width="0.904788"/>
<rect x="430.226" y="434.229" width="85.9549" height="85.9549" stroke="white" stroke-width="0.904788"/>
<rect x="516.181" y="434.229" width="85.9549" height="85.9549" stroke="white" stroke-width="0.904788"/>
<rect x="602.136" y="434.229" width="85.9549" height="85.9549" stroke="white" stroke-width="0.904788"/>
<rect x="688.091" y="434.229" width="85.9549" height="85.9549" stroke="white" stroke-width="0.904788"/>
<rect x="774.046" y="434.229" width="85.9549" height="85.9549" stroke="white" stroke-width="0.904788"/>
<rect x="859.999" y="434.229" width="85.9549" height="85.9549" stroke="white" stroke-width="0.904788"/>
<rect x="945.954" y="434.229" width="85.9549" height="85.9549" stroke="white" stroke-width="0.904788"/>
<rect x="1031.91" y="434.229" width="85.9549" height="85.9549" stroke="white" stroke-width="0.904788"/>
<rect x="1117.86" y="434.229" width="85.9549" height="85.9549" stroke="white" stroke-width="0.904788"/>
<rect x="1203.82" y="434.229" width="85.9549" height="85.9549" stroke="white" stroke-width="0.904788"/>
<rect x="1289.77" y="434.229" width="85.9549" height="85.9549" stroke="white" stroke-width="0.904788"/>
<rect x="1375.73" y="434.229" width="85.9549" height="85.9549" stroke="white" stroke-width="0.904788"/>
<rect x="1461.68" y="434.229" width="85.9549" height="85.9549" stroke="white" stroke-width="0.904788"/>
<rect x="1547.64" y="434.229" width="85.9549" height="85.9549" stroke="white" stroke-width="0.904788"/>
<rect x="1633.59" y="434.229" width="85.9549" height="85.9549" stroke="white" stroke-width="0.904788"/>
<rect x="0.452394" y="521.089" width="85.9549" height="85.9549" stroke="white" stroke-width="0.904788"/>
<rect x="86.4075" y="521.089" width="85.9549" height="85.9549" stroke="white" stroke-width="0.904788"/>
<rect x="172.363" y="521.089" width="85.9549" height="85.9549" stroke="white" stroke-width="0.904788"/>
<rect x="258.316" y="521.089" width="85.9549" height="85.9549" stroke="white" stroke-width="0.904788"/>
<rect x="344.271" y="521.089" width="85.9549" height="85.9549" stroke="white" stroke-width="0.904788"/>
<rect x="430.226" y="521.089" width="85.9549" height="85.9549" stroke="white" stroke-width="0.904788"/>
<rect x="516.181" y="521.089" width="85.9549" height="85.9549" stroke="white" stroke-width="0.904788"/>
<rect x="602.136" y="521.089" width="85.9549" height="85.9549" stroke="white" stroke-width="0.904788"/>
<rect x="688.091" y="521.089" width="85.9549" height="85.9549" stroke="white" stroke-width="0.904788"/>
<rect x="774.046" y="521.089" width="85.9549" height="85.9549" stroke="white" stroke-width="0.904788"/>
<rect x="859.999" y="521.089" width="85.9549" height="85.9549" stroke="white" stroke-width="0.904788"/>
<rect x="945.502" y="520.636" width="86.8597" height="86.8597" fill="white" fill-opacity="0.13"/>
<rect x="1031.91" y="521.089" width="85.9549" height="85.9549" stroke="white" stroke-width="0.904788"/>
<rect x="1117.86" y="521.089" width="85.9549" height="85.9549" stroke="white" stroke-width="0.904788"/>
<rect x="1203.82" y="521.089" width="85.9549" height="85.9549" stroke="white" stroke-width="0.904788"/>
<rect x="1289.77" y="521.089" width="85.9549" height="85.9549" stroke="white" stroke-width="0.904788"/>
<rect x="1375.73" y="521.089" width="85.9549" height="85.9549" stroke="white" stroke-width="0.904788"/>
<rect x="1461.68" y="521.089" width="85.9549" height="85.9549" stroke="white" stroke-width="0.904788"/>
<rect x="1547.64" y="521.089" width="85.9549" height="85.9549" stroke="white" stroke-width="0.904788"/>
<rect x="1633.59" y="521.089" width="85.9549" height="85.9549" stroke="white" stroke-width="0.904788"/>
<rect x="0.452394" y="607.948" width="85.9549" height="85.9549" stroke="white" stroke-width="0.904788"/>
<rect x="86.4075" y="607.948" width="85.9549" height="85.9549" stroke="white" stroke-width="0.904788"/>
<rect x="172.363" y="607.948" width="85.9549" height="85.9549" stroke="white" stroke-width="0.904788"/>
<rect x="258.316" y="607.948" width="85.9549" height="85.9549" stroke="white" stroke-width="0.904788"/>
<rect x="344.271" y="607.948" width="85.9549" height="85.9549" stroke="white" stroke-width="0.904788"/>
<rect x="430.226" y="607.948" width="85.9549" height="85.9549" stroke="white" stroke-width="0.904788"/>
<rect x="516.181" y="607.948" width="85.9549" height="85.9549" stroke="white" stroke-width="0.904788"/>
<rect x="602.136" y="607.948" width="85.9549" height="85.9549" stroke="white" stroke-width="0.904788"/>
<rect x="688.091" y="607.948" width="85.9549" height="85.9549" stroke="white" stroke-width="0.904788"/>
<rect x="774.046" y="607.948" width="85.9549" height="85.9549" stroke="white" stroke-width="0.904788"/>
<rect x="859.547" y="607.496" width="86.8597" height="86.8597" fill="white" fill-opacity="0.13"/>
<rect x="945.954" y="607.948" width="85.9549" height="85.9549" stroke="white" stroke-width="0.904788"/>
<rect x="1031.46" y="607.496" width="86.8597" height="86.8597" fill="white" fill-opacity="0.13"/>
<rect x="1117.86" y="607.948" width="85.9549" height="85.9549" stroke="white" stroke-width="0.904788"/>
<rect x="1203.37" y="607.496" width="86.8597" height="86.8597" fill="white" fill-opacity="0.13"/>
<rect x="1289.77" y="607.948" width="85.9549" height="85.9549" stroke="white" stroke-width="0.904788"/>
<rect x="1375.73" y="607.948" width="85.9549" height="85.9549" stroke="white" stroke-width="0.904788"/>
<rect x="1461.68" y="607.948" width="85.9549" height="85.9549" stroke="white" stroke-width="0.904788"/>
<rect x="1547.64" y="607.948" width="85.9549" height="85.9549" stroke="white" stroke-width="0.904788"/>
<rect x="1633.59" y="607.948" width="85.9549" height="85.9549" stroke="white" stroke-width="0.904788"/>
<rect x="0.452394" y="694.808" width="85.9549" height="85.9549" stroke="white" stroke-width="0.904788"/>
<rect x="86.4075" y="694.808" width="85.9549" height="85.9549" stroke="white" stroke-width="0.904788"/>
<rect x="172.363" y="694.808" width="85.9549" height="85.9549" stroke="white" stroke-width="0.904788"/>
<rect x="258.316" y="694.808" width="85.9549" height="85.9549" stroke="white" stroke-width="0.904788"/>
<rect x="344.271" y="694.808" width="85.9549" height="85.9549" stroke="white" stroke-width="0.904788"/>
<rect x="430.226" y="694.808" width="85.9549" height="85.9549" stroke="white" stroke-width="0.904788"/>
<rect x="516.181" y="694.808" width="85.9549" height="85.9549" stroke="white" stroke-width="0.904788"/>
<rect x="602.136" y="694.808" width="85.9549" height="85.9549" stroke="white" stroke-width="0.904788"/>
<rect x="688.091" y="694.808" width="85.9549" height="85.9549" stroke="white" stroke-width="0.904788"/>
<rect x="773.594" y="694.355" width="86.8597" height="86.8597" fill="white" fill-opacity="0.13"/>
<rect x="859.999" y="694.808" width="85.9549" height="85.9549" stroke="white" stroke-width="0.904788"/>
<rect x="945.502" y="694.355" width="86.8597" height="86.8597" fill="white" fill-opacity="0.13"/>
<rect x="1031.91" y="694.808" width="85.9549" height="85.9549" stroke="white" stroke-width="0.904788"/>
<rect x="1117.41" y="694.355" width="86.8597" height="86.8597" fill="white" fill-opacity="0.13"/>
<rect x="1203.82" y="694.808" width="85.9549" height="85.9549" stroke="white" stroke-width="0.904788"/>
<rect x="1289.77" y="694.808" width="85.9549" height="85.9549" stroke="white" stroke-width="0.904788"/>
<rect x="1375.73" y="694.808" width="85.9549" height="85.9549" stroke="white" stroke-width="0.904788"/>
<rect x="1461.68" y="694.808" width="85.9549" height="85.9549" stroke="white" stroke-width="0.904788"/>
<rect x="1547.64" y="694.808" width="85.9549" height="85.9549" stroke="white" stroke-width="0.904788"/>
<rect x="1633.59" y="694.808" width="85.9549" height="85.9549" stroke="white" stroke-width="0.904788"/>
<rect x="0.452394" y="781.668" width="85.9549" height="85.9549" stroke="white" stroke-width="0.904788"/>
<rect x="86.4075" y="781.668" width="85.9549" height="85.9549" stroke="white" stroke-width="0.904788"/>
<rect x="172.363" y="781.668" width="85.9549" height="85.9549" stroke="white" stroke-width="0.904788"/>
<rect x="258.316" y="781.668" width="85.9549" height="85.9549" stroke="white" stroke-width="0.904788"/>
<rect x="344.271" y="781.668" width="85.9549" height="85.9549" stroke="white" stroke-width="0.904788"/>
<rect x="430.226" y="781.668" width="85.9549" height="85.9549" stroke="white" stroke-width="0.904788"/>
<rect x="516.181" y="781.668" width="85.9549" height="85.9549" stroke="white" stroke-width="0.904788"/>
<rect x="602.136" y="781.668" width="85.9549" height="85.9549" stroke="white" stroke-width="0.904788"/>
<rect x="688.091" y="781.668" width="85.9549" height="85.9549" stroke="white" stroke-width="0.904788"/>
<rect x="774.046" y="781.668" width="85.9549" height="85.9549" stroke="white" stroke-width="0.904788"/>
<rect x="859.547" y="781.215" width="86.8597" height="86.8597" fill="white" fill-opacity="0.13"/>
<rect x="945.954" y="781.668" width="85.9549" height="85.9549" stroke="white" stroke-width="0.904788"/>
<rect x="1031.46" y="781.215" width="86.8597" height="86.8597" fill="white" fill-opacity="0.13"/>
<rect x="1117.86" y="781.668" width="85.9549" height="85.9549" stroke="white" stroke-width="0.904788"/>
<rect x="1203.82" y="781.668" width="85.9549" height="85.9549" stroke="white" stroke-width="0.904788"/>
<rect x="1289.77" y="781.668" width="85.9549" height="85.9549" stroke="white" stroke-width="0.904788"/>
<rect x="1375.73" y="781.668" width="85.9549" height="85.9549" stroke="white" stroke-width="0.904788"/>
<rect x="1461.68" y="781.668" width="85.9549" height="85.9549" stroke="white" stroke-width="0.904788"/>
<rect x="1547.64" y="781.668" width="85.9549" height="85.9549" stroke="white" stroke-width="0.904788"/>
<rect x="1633.59" y="781.668" width="85.9549" height="85.9549" stroke="white" stroke-width="0.904788"/>
</g>
</mask>
<g mask="url(#mask0_21626_27049)">
<g filter="url(#filter0_f_21626_27049)">
<ellipse cx="270.551" cy="476.699" rx="355.701" ry="254.225" transform="rotate(-15 270.551 476.699)" fill="#B987FF"/>
</g>
<g filter="url(#filter1_f_21626_27049)">
<ellipse cx="1411.22" cy="187.306" rx="355.701" ry="254.225" transform="rotate(-15 1411.22 187.306)" fill="#B987FF"/>
</g>
</g>
<defs>
<filter id="filter0_f_21626_27049" x="-197.323" y="96.3911" width="935.747" height="760.616" filterUnits="userSpaceOnUse" color-interpolation-filters="sRGB">
<feFlood flood-opacity="0" result="BackgroundImageFix"/>
<feBlend mode="normal" in="SourceGraphic" in2="BackgroundImageFix" result="shape"/>
<feGaussianBlur stdDeviation="58.9923" result="effect1_foregroundBlur_21626_27049"/>
</filter>
<filter id="filter1_f_21626_27049" x="943.345" y="-193.002" width="935.747" height="760.616" filterUnits="userSpaceOnUse" color-interpolation-filters="sRGB">
<feFlood flood-opacity="0" result="BackgroundImageFix"/>
<feBlend mode="normal" in="SourceGraphic" in2="BackgroundImageFix" result="shape"/>
<feGaussianBlur stdDeviation="58.9923" result="effect1_foregroundBlur_21626_27049"/>
</filter>
</defs>
</svg>
