<svg width="458" height="260" viewBox="0 0 458 260" fill="none" xmlns="http://www.w3.org/2000/svg">
  <rect width="458" height="260" rx="8" fill="#1A1D2E"/>
  <rect x="0" y="0" width="458" height="38" rx="8" fill="#111320"/>
  <rect x="0" y="24" width="458" height="14" fill="#111320"/>
  <!-- Top bar -->
  <rect x="16" y="10" width="40" height="18" rx="3" fill="#0096D6" opacity="0.9"/>
  <text x="22" y="23" font-family="monospace" font-size="10" font-weight="bold" fill="white">HP</text>
  <rect x="64" y="14" width="120" height="10" rx="2" fill="#2D3250"/>
  <!-- Sidebar -->
  <rect x="0" y="38" width="70" height="222" fill="#0D0F1C"/>
  <rect x="12" y="52" width="46" height="10" rx="2" fill="#0096D6" opacity="0.7"/>
  <rect x="12" y="70" width="46" height="10" rx="2" fill="#2D3250"/>
  <rect x="12" y="88" width="46" height="10" rx="2" fill="#2D3250"/>
  <rect x="12" y="106" width="46" height="10" rx="2" fill="#2D3250"/>
  <rect x="12" y="124" width="46" height="10" rx="2" fill="#2D3250"/>
  <!-- Flow editor area -->
  <rect x="82" y="48" width="364" height="200" rx="4" fill="#161829" stroke="#2D3250" stroke-width="1"/>
  <!-- Flow nodes: legacy linear style -->
  <rect x="100" y="70" width="80" height="36" rx="4" fill="#0096D6" opacity="0.8"/>
  <rect x="113" y="82" width="54" height="10" rx="2" fill="white" opacity="0.6"/>
  <line x1="180" y1="88" x2="210" y2="88" stroke="#3D4466" stroke-width="2"/>
  <rect x="210" y="70" width="80" height="36" rx="4" fill="#2D3250" stroke="#0096D6" stroke-width="1"/>
  <rect x="223" y="82" width="54" height="10" rx="2" fill="#3D4466"/>
  <line x1="290" y1="88" x2="320" y2="88" stroke="#3D4466" stroke-width="2"/>
  <rect x="320" y="70" width="80" height="36" rx="4" fill="#2D3250" stroke="#0096D6" stroke-width="1"/>
  <rect x="333" y="82" width="54" height="10" rx="2" fill="#3D4466"/>
  <!-- Second row -->
  <line x1="260" y1="106" x2="260" y2="126" stroke="#3D4466" stroke-width="2"/>
  <rect x="210" y="126" width="100" height="36" rx="4" fill="#2D3250" stroke="#0096D6" stroke-width="1"/>
  <rect x="223" y="138" width="74" height="10" rx="2" fill="#3D4466"/>
  <line x1="310" y1="144" x2="340" y2="144" stroke="#3D4466" stroke-width="2"/>
  <rect x="340" y="126" width="80" height="36" rx="4" fill="#2D3250" stroke="#0096D6" stroke-width="1"/>
  <rect x="353" y="138" width="54" height="10" rx="2" fill="#3D4466"/>
  <!-- Status bar at bottom -->
  <rect x="82" y="222" width="364" height="26" rx="4" fill="#0D0F1C"/>
  <circle cx="102" cy="235" r="6" fill="#48C774"/>
  <rect x="116" y="230" width="100" height="10" rx="2" fill="#2D3250"/>
  <rect x="330" y="230" width="80" height="10" rx="2" fill="#2D3250"/>
</svg>
