<svg width="34" height="34" viewBox="0 0 34 34" fill="none" xmlns="http://www.w3.org/2000/svg">
  <rect width="34" height="34" rx="5" fill="#0530AD"/>
  <g fill="white">
    <rect x="5" y="8" width="8" height="2"/>
    <rect x="5" y="12" width="8" height="2"/>
    <rect x="7" y="16" width="4" height="2"/>
    <rect x="7" y="20" width="4" height="2"/>
    <rect x="5" y="24" width="8" height="2"/>
    <rect x="15" y="8" width="6" height="2"/>
    <rect x="15" y="12" width="7" height="2"/>
    <rect x="17" y="16" width="3" height="2"/>
    <rect x="15" y="24" width="7" height="2"/>
    <rect x="24" y="8" width="2" height="2"/>
    <rect x="30" y="8" width="2" height="2"/>
    <rect x="24" y="12" width="3" height="2"/>
    <rect x="29" y="12" width="3" height="2"/>
    <rect x="26" y="16" width="3" height="2"/>
    <rect x="24" y="24" width="2" height="2"/>
    <rect x="27" y="24" width="2" height="2"/>
    <rect x="30" y="24" width="2" height="2"/>
  </g>
</svg>