<svg width="280" height="50" viewBox="0 0 280 50" fill="none" xmlns="http://www.w3.org/2000/svg">
  <g fill="#0530AD">
    <!-- I -->
    <rect x="0" y="5" width="28" height="4"/>
    <rect x="0" y="13" width="28" height="4"/>
    <rect x="8" y="21" width="12" height="4"/>
    <rect x="8" y="29" width="12" height="4"/>
    <rect x="0" y="37" width="28" height="4"/>
    <rect x="0" y="45" width="28" height="4"/>
    <!-- B -->
    <rect x="34" y="5" width="28" height="4"/>
    <rect x="34" y="13" width="28" height="4"/>
    <rect x="42" y="21" width="12" height="4"/>
    <rect x="42" y="29" width="12" height="4"/>
    <rect x="34" y="37" width="30" height="4"/>
    <rect x="34" y="45" width="30" height="4"/>
    <rect x="56" y="5" width="8" height="12" rx="1"/>
    <rect x="54" y="21" width="12" height="12" rx="1"/>
    <rect x="56" y="37" width="8" height="12" rx="1"/>
    <!-- M -->
    <rect x="70" y="5" width="6" height="4"/>
    <rect x="102" y="5" width="6" height="4"/>
    <rect x="70" y="13" width="8" height="4"/>
    <rect x="100" y="13" width="8" height="4"/>
    <rect x="78" y="21" width="8" height="4"/>
    <rect x="92" y="21" width="8" height="4"/>
    <rect x="78" y="29" width="8" height="4"/>
    <rect x="92" y="29" width="8" height="4"/>
    <rect x="70" y="37" width="6" height="4"/>
    <rect x="86" y="37" width="6" height="4"/>
    <rect x="102" y="37" width="6" height="4"/>
    <rect x="70" y="45" width="6" height="4"/>
    <rect x="86" y="45" width="6" height="4"/>
    <rect x="102" y="45" width="6" height="4"/>
  </g>
  <text x="116" y="23" font-family="-apple-system, BlinkMacSystemFont, 'Segoe UI', Arial, sans-serif" font-size="14" font-weight="600" fill="#0530AD">Workload</text>
  <text x="116" y="41" font-family="-apple-system, BlinkMacSystemFont, 'Segoe UI', Arial, sans-serif" font-size="14" font-weight="600" fill="#0530AD">Automation</text>
</svg>