<svg xmlns="http://www.w3.org/2000/svg" width="120" height="48" viewBox="0 0 122.88 49.15"><defs><style>.a{fill:#1f70c1;}</style></defs><title>ibm</title><path class="a" d="M0,0V3.36H23.92V0ZM27.31,0V3.36H61.39A13,13,0,0,0,53.3,0ZM68.08,0V3.36H88.7L87.48,0Zm35.4,0-1.22,3.36h20.43V0ZM0,6.54V9.9H23.92V6.54Zm27.31,0V9.9h38s-.45-2.59-1.22-3.36Zm40.77,0V9.9H91L89.83,6.54Zm33,0L99.9,9.9h22.79V6.54ZM6.87,13.08v3.37H17.23V13.08Zm27.31,0v3.37H44.54V13.08Zm20.43,0v3.37H65a11.44,11.44,0,0,0,.66-3.37Zm20.34,0v3.37H93.32l-1.23-3.37Zm23.83,0-1.23,3.37H116V13.08ZM6.87,19.62V23H17.23V19.62Zm27.31,0V23H60.64a11.44,11.44,0,0,0,2.92-3.37Zm40.77,0V23H85.31V21.12L86,23h19l.71-1.87V23H116V19.62H96.56l-1,2.85-1-2.85ZM6.87,26.16v3.37H17.23V26.16Zm27.31,0v3.37H63.56a11.59,11.59,0,0,0-2.92-3.37Zm40.77,0v3.37H85.31V26.16Zm12.24,0,1.26,3.37h14.22l1.19-3.37Zm18.46,0v3.37H116V26.16ZM6.87,32.7v3.37H17.23V32.7Zm27.31,0v3.37H44.54V32.7Zm20.43,0v3.37h11A11.44,11.44,0,0,0,65,32.7ZM75,32.7v3.37H85.31V32.7Zm14.59,0,1.22,3.37h9.54l1.22-3.37Zm16.11,0v3.37H116V32.7ZM.19,39.24v3.37H24.11V39.24Zm27.12,0v3.37H64.13c.77-.77,1.22-3.37,1.22-3.37Zm41,0v3.37h17V39.24Zm23.63,0,1.25,3.37H98l1.17-3.37Zm13.75,0v3.37h17.23V39.24ZM.19,45.79v3.36H24.11V45.79Zm27.12,0v3.36h26a13,13,0,0,0,8.09-3.36Zm41,0v3.36h17V45.79Zm26,0,1.2,3.35h.2l1.22-3.36Zm11.38,0v3.36h17.23V45.79Z"/></svg>