<svg width="458" height="260" viewBox="0 0 458 260" fill="none" xmlns="http://www.w3.org/2000/svg">
<rect width="458" height="260" rx="6" fill="#F1EFFF"/>
<g filter="url(#filter0_d_21626_26885)">
<rect x="38" y="51" width="112" height="64" rx="10" fill="white" shape-rendering="crispEdges"/>
<rect x="38.5" y="51.5" width="111" height="63" rx="9.5" stroke="#8405FF" shape-rendering="crispEdges"/>
<path d="M106.137 85.3625L104.362 87.1375C104.127 87.3703 103.811 87.501 103.48 87.501C103.15 87.501 102.833 87.3703 102.599 87.1375L87.749 72.3125C87.3426 72.4303 86.9222 72.4933 86.499 72.5C85.7032 72.4994 84.9189 72.3089 84.2115 71.9442C83.5041 71.5795 82.894 71.0512 82.4319 70.4033C81.9697 69.7553 81.669 69.0064 81.5545 68.2188C81.4401 67.4312 81.5154 66.6277 81.774 65.875L84.949 69.05L85.6115 68.3875L87.3865 66.6125L88.049 65.95L84.874 62.775C85.6267 62.5163 86.4302 62.4411 87.2178 62.5555C88.0055 62.6699 88.7544 62.9707 89.4023 63.4328C90.0503 63.895 90.5786 64.5051 90.9432 65.2125C91.3079 65.9199 91.4985 66.7041 91.499 67.5C91.4924 67.9231 91.4293 68.3435 91.3115 68.75L106.137 83.6C106.369 83.8342 106.5 84.151 106.5 84.4812C106.5 84.8115 106.369 85.1283 106.137 85.3625ZM81.8615 83.6C81.6287 83.8342 81.498 84.151 81.498 84.4812C81.498 84.8115 81.6287 85.1283 81.8615 85.3625L83.6365 87.1375C83.8707 87.3703 84.1876 87.501 84.5178 87.501C84.848 87.501 85.1648 87.3703 85.399 87.1375L92.2365 80.3125L88.699 76.775M103.999 62.5L98.999 65V67.5L96.2865 70.2125L98.7865 72.7125L101.499 70H103.999L106.499 65L103.999 62.5Z" fill="black"/>
<path d="M57.1662 106L57.1662 97.981L60.4112 97.981C61.1812 97.981 61.8339 98.1497 62.3692 98.487C62.9119 98.817 63.3262 99.2827 63.6122 99.884C63.8982 100.485 64.0412 101.189 64.0412 101.996C64.0412 102.597 63.9606 103.144 63.7992 103.635C63.6379 104.126 63.3996 104.548 63.0842 104.9C62.7762 105.252 62.3986 105.523 61.9512 105.714C61.5039 105.905 60.9906 106 60.4112 106L57.1662 106ZM58.3652 104.966L60.2352 104.966C60.6239 104.966 60.9759 104.907 61.2912 104.79C61.6066 104.665 61.8779 104.482 62.1052 104.24C62.3326 103.991 62.5049 103.679 62.6222 103.305C62.7469 102.924 62.8092 102.48 62.8092 101.974C62.8092 101.292 62.7029 100.735 62.4902 100.302C62.2776 99.862 61.9769 99.5393 61.5882 99.334C61.1996 99.1213 60.7486 99.015 60.2352 99.015L58.3652 99.015L58.3652 104.966ZM67.3277 106.099C66.9757 106.099 66.653 106.033 66.3597 105.901C66.0737 105.769 65.8243 105.578 65.6117 105.329C65.399 105.072 65.234 104.757 65.1167 104.383C65.0067 104.009 64.9517 103.576 64.9517 103.085C64.9517 102.44 65.0507 101.893 65.2487 101.446C65.454 100.999 65.7327 100.661 66.0847 100.434C66.444 100.199 66.8583 100.082 67.3277 100.082C67.6503 100.082 67.9437 100.133 68.2077 100.236C68.479 100.339 68.7063 100.485 68.8897 100.676C69.0803 100.859 69.2197 101.076 69.3077 101.325L69.3737 101.325L69.4177 100.181L70.5067 100.181L70.5067 106L69.3737 106L69.3737 104.845L69.3077 104.845C69.1683 105.219 68.9263 105.523 68.5817 105.758C68.237 105.985 67.819 106.099 67.3277 106.099ZM67.7237 105.164C68.083 105.164 68.3837 105.08 68.6257 104.911C68.8677 104.742 69.051 104.526 69.1757 104.262C69.3003 103.998 69.3627 103.716 69.3627 103.415L69.3627 102.755C69.3627 102.454 69.3003 102.172 69.1757 101.908C69.051 101.644 68.8677 101.428 68.6257 101.259C68.3837 101.09 68.083 101.006 67.7237 101.006C67.401 101.006 67.1187 101.087 66.8767 101.248C66.6347 101.402 66.4477 101.633 66.3157 101.941C66.1837 102.242 66.1177 102.623 66.1177 103.085C66.1177 103.54 66.1837 103.921 66.3157 104.229C66.4477 104.537 66.6347 104.772 66.8767 104.933C67.1187 105.087 67.401 105.164 67.7237 105.164ZM73.7548 106C73.4321 106 73.1791 105.956 72.9958 105.868C72.8124 105.773 72.6841 105.633 72.6108 105.45C72.5374 105.267 72.5008 105.047 72.5008 104.79L72.5008 101.105L71.4008 101.105L71.4008 100.181L72.5008 100.181L72.5008 98.498L73.6338 98.366L73.6338 100.181L74.9208 100.181L74.9208 101.105L73.6338 101.105L73.6338 104.581C73.6338 104.779 73.6704 104.911 73.7438 104.977C73.8171 105.036 73.9454 105.065 74.1288 105.065L74.9208 105.065L74.9208 106L73.7548 106ZM77.8657 106.099C77.5138 106.099 77.1911 106.033 76.8977 105.901C76.6117 105.769 76.3624 105.578 76.1497 105.329C75.9371 105.072 75.7721 104.757 75.6547 104.383C75.5447 104.009 75.4897 103.576 75.4897 103.085C75.4897 102.44 75.5887 101.893 75.7867 101.446C75.9921 100.999 76.2708 100.661 76.6228 100.434C76.9821 100.199 77.3964 100.082 77.8658 100.082C78.1884 100.082 78.4818 100.133 78.7458 100.236C79.0171 100.339 79.2444 100.485 79.4278 100.676C79.6184 100.859 79.7578 101.076 79.8458 101.325L79.9118 101.325L79.9558 100.181L81.0448 100.181L81.0448 106L79.9118 106L79.9118 104.845L79.8458 104.845C79.7064 105.219 79.4644 105.523 79.1198 105.758C78.7751 105.985 78.3571 106.099 77.8657 106.099ZM78.2618 105.164C78.6211 105.164 78.9218 105.08 79.1637 104.911C79.4058 104.742 79.5891 104.526 79.7138 104.262C79.8384 103.998 79.9008 103.716 79.9008 103.415L79.9008 102.755C79.9008 102.454 79.8384 102.172 79.7138 101.908C79.5891 101.644 79.4058 101.428 79.1638 101.259C78.9218 101.09 78.6211 101.006 78.2618 101.006C77.9391 101.006 77.6568 101.087 77.4148 101.248C77.1728 101.402 76.9858 101.633 76.8538 101.941C76.7218 102.242 76.6557 102.623 76.6557 103.085C76.6557 103.54 76.7218 103.921 76.8538 104.229C76.9857 104.537 77.1727 104.772 77.4148 104.933C77.6568 105.087 77.9391 105.164 78.2618 105.164ZM85.2678 106L85.2678 97.981L88.5128 97.981C88.9381 97.981 89.3231 98.0397 89.6678 98.157C90.0125 98.267 90.3058 98.432 90.5478 98.652C90.7971 98.8647 90.9841 99.1287 91.1088 99.444C91.2408 99.7593 91.3068 100.122 91.3068 100.533C91.3068 101.046 91.1931 101.497 90.9658 101.886C90.7458 102.267 90.4268 102.564 90.0088 102.777C89.5908 102.982 89.0885 103.085 88.5018 103.085L86.3348 103.085L86.3348 102.128L88.3258 102.128C88.6705 102.128 88.9748 102.073 89.2388 101.963C89.5028 101.853 89.7081 101.681 89.8548 101.446C90.0088 101.211 90.0858 100.918 90.0858 100.566C90.0858 100.207 90.0088 99.9133 89.8548 99.686C89.7081 99.4587 89.5028 99.29 89.2388 99.18C88.9748 99.07 88.6705 99.015 88.3258 99.015L86.2798 99.015L86.4668 98.828L86.4668 106L85.2678 106ZM92.3965 106L92.3965 100.181L93.5295 100.181L93.5295 106L92.3965 106ZM92.3965 99.29L92.3965 97.981L93.5295 97.981L93.5295 99.29L92.3965 99.29ZM95.1035 107.837L95.1035 100.181L96.1925 100.181L96.2365 101.325L96.3025 101.325C96.4419 100.951 96.6839 100.65 97.0285 100.423C97.3805 100.196 97.7985 100.082 98.2825 100.082C98.6345 100.082 98.9535 100.148 99.2395 100.28C99.5329 100.412 99.7859 100.606 99.9985 100.863C100.211 101.12 100.373 101.435 100.483 101.809C100.6 102.183 100.659 102.612 100.659 103.096C100.659 103.741 100.56 104.288 100.362 104.735C100.164 105.182 99.8849 105.523 99.5255 105.758C99.1735 105.985 98.7592 106.099 98.2825 106.099C97.9672 106.099 97.6739 106.048 97.4025 105.945C97.1385 105.842 96.9112 105.699 96.7205 105.516C96.5372 105.325 96.3979 105.105 96.3025 104.856L96.2365 104.856L96.2365 107.837L95.1035 107.837ZM97.8865 105.164C98.2092 105.164 98.4915 105.087 98.7335 104.933C98.9755 104.779 99.1625 104.548 99.2945 104.24C99.4339 103.932 99.5035 103.551 99.5035 103.096C99.5035 102.634 99.4339 102.253 99.2945 101.952C99.1625 101.644 98.9755 101.413 98.7335 101.259C98.4915 101.098 98.2092 101.017 97.8865 101.017C97.5345 101.017 97.2339 101.101 96.9845 101.27C96.7425 101.431 96.5592 101.648 96.4345 101.919C96.3099 102.183 96.2475 102.465 96.2475 102.766L96.2475 103.415C96.2475 103.642 96.2805 103.862 96.3465 104.075C96.4199 104.28 96.5262 104.467 96.6655 104.636C96.8049 104.797 96.9772 104.926 97.1825 105.021C97.3879 105.116 97.6225 105.164 97.8865 105.164ZM104.388 106.099C103.808 106.099 103.306 105.978 102.881 105.736C102.463 105.487 102.14 105.138 101.913 104.691C101.685 104.236 101.572 103.712 101.572 103.118C101.572 102.502 101.685 101.967 101.913 101.512C102.14 101.057 102.459 100.709 102.87 100.467C103.288 100.218 103.779 100.093 104.344 100.093C104.982 100.093 105.506 100.236 105.917 100.522C106.335 100.801 106.635 101.186 106.819 101.677C107.002 102.161 107.064 102.707 107.006 103.316L102.694 103.316C102.701 103.712 102.774 104.053 102.914 104.339C103.053 104.618 103.247 104.83 103.497 104.977C103.753 105.124 104.05 105.197 104.388 105.197C104.776 105.197 105.106 105.109 105.378 104.933C105.649 104.75 105.821 104.508 105.895 104.207L106.973 104.207C106.921 104.588 106.778 104.922 106.544 105.208C106.309 105.487 106.005 105.707 105.631 105.868C105.264 106.022 104.85 106.099 104.388 106.099ZM102.705 102.678L102.595 102.513L106.005 102.513L105.895 102.7C105.909 102.297 105.847 101.97 105.708 101.721C105.576 101.464 105.389 101.277 105.147 101.16C104.912 101.043 104.641 100.984 104.333 100.984C104.01 100.984 103.728 101.054 103.486 101.193C103.244 101.325 103.057 101.519 102.925 101.776C102.793 102.033 102.719 102.333 102.705 102.678ZM108.23 106L108.23 97.981L109.363 97.981L109.363 106L108.23 106ZM110.938 106L110.938 100.181L112.071 100.181L112.071 106L110.938 106ZM110.938 99.29L110.938 97.981L112.071 97.981L112.071 99.29L110.938 99.29ZM113.645 106L113.645 100.181L114.723 100.181L114.767 101.336L114.833 101.336C115.001 100.925 115.265 100.617 115.625 100.412C115.984 100.199 116.376 100.093 116.802 100.093C117.102 100.093 117.377 100.137 117.627 100.225C117.883 100.313 118.103 100.456 118.287 100.654C118.477 100.845 118.624 101.098 118.727 101.413C118.829 101.721 118.881 102.099 118.881 102.546L118.881 106L117.748 106L117.748 102.777C117.748 102.381 117.7 102.055 117.605 101.798C117.509 101.534 117.363 101.34 117.165 101.215C116.967 101.09 116.71 101.028 116.395 101.028C116.065 101.028 115.775 101.109 115.526 101.27C115.284 101.431 115.097 101.648 114.965 101.919C114.833 102.183 114.767 102.484 114.767 102.821L114.767 106L113.645 106ZM122.832 106.099C122.253 106.099 121.75 105.978 121.325 105.736C120.907 105.487 120.584 105.138 120.357 104.691C120.13 104.236 120.016 103.712 120.016 103.118C120.016 102.502 120.13 101.967 120.357 101.512C120.584 101.057 120.903 100.709 121.314 100.467C121.732 100.218 122.223 100.093 122.788 100.093C123.426 100.093 123.95 100.236 124.361 100.522C124.779 100.801 125.08 101.186 125.263 101.677C125.446 102.161 125.509 102.707 125.45 103.316L121.138 103.316C121.145 103.712 121.219 104.053 121.358 104.339C121.497 104.618 121.692 104.83 121.941 104.977C122.198 105.124 122.495 105.197 122.832 105.197C123.221 105.197 123.551 105.109 123.822 104.933C124.093 104.75 124.266 104.508 124.339 104.207L125.417 104.207C125.366 104.588 125.223 104.922 124.988 105.208C124.753 105.487 124.449 105.707 124.075 105.868C123.708 106.022 123.294 106.099 122.832 106.099ZM121.149 102.678L121.039 102.513L124.449 102.513L124.339 102.7C124.354 102.297 124.291 101.97 124.152 101.721C124.02 101.464 123.833 101.277 123.591 101.16C123.356 101.043 123.085 100.984 122.777 100.984C122.454 100.984 122.172 101.054 121.93 101.193C121.688 101.325 121.501 101.519 121.369 101.776C121.237 102.033 121.164 102.333 121.149 102.678ZM128.842 106.11C128.042 106.11 127.426 105.934 126.994 105.582C126.568 105.223 126.356 104.753 126.356 104.174L127.478 104.174C127.478 104.57 127.61 104.86 127.874 105.043C128.138 105.219 128.471 105.307 128.875 105.307C129.293 105.307 129.608 105.234 129.821 105.087C130.041 104.933 130.151 104.72 130.151 104.449C130.151 104.229 130.103 104.06 130.008 103.943C129.912 103.826 129.762 103.738 129.557 103.679C129.351 103.613 129.084 103.554 128.754 103.503C128.424 103.459 128.123 103.404 127.852 103.338C127.58 103.265 127.342 103.166 127.137 103.041C126.939 102.916 126.785 102.755 126.675 102.557C126.572 102.359 126.521 102.113 126.521 101.82C126.521 101.446 126.616 101.131 126.807 100.874C127.005 100.617 127.28 100.419 127.632 100.28C127.984 100.141 128.394 100.071 128.864 100.071C129.348 100.071 129.758 100.144 130.096 100.291C130.44 100.438 130.704 100.647 130.888 100.918C131.078 101.189 131.177 101.516 131.185 101.897L130.074 101.897C130.074 101.662 130.022 101.472 129.92 101.325C129.817 101.171 129.674 101.057 129.491 100.984C129.307 100.911 129.091 100.874 128.842 100.874C128.46 100.874 128.167 100.951 127.962 101.105C127.756 101.259 127.654 101.461 127.654 101.71C127.654 101.893 127.705 102.044 127.808 102.161C127.91 102.278 128.068 102.37 128.281 102.436C128.493 102.495 128.761 102.546 129.084 102.59C129.392 102.634 129.678 102.689 129.942 102.755C130.206 102.821 130.44 102.916 130.646 103.041C130.851 103.158 131.012 103.323 131.13 103.536C131.247 103.749 131.306 104.02 131.306 104.35C131.306 104.944 131.086 105.388 130.646 105.681C130.206 105.967 129.604 106.11 128.842 106.11Z" fill="black"/>
</g>
<g filter="url(#filter1_d_21626_26885)">
<rect x="173" y="28.75" width="112" height="64" rx="10" fill="white" shape-rendering="crispEdges"/>
<rect x="173.5" y="29.25" width="111" height="63" rx="9.5" stroke="#8405FF" shape-rendering="crispEdges"/>
<path d="M234 52.75C234 51.375 235.125 50.25 236.5 50.25C237.875 50.25 239 51.375 239 52.75C239 54.125 237.875 55.25 236.5 55.25C235.125 55.25 234 54.125 234 52.75ZM226.5 52.75C226.5 51.375 227.625 50.25 229 50.25C230.375 50.25 231.5 51.375 231.5 52.75C231.5 54.125 230.375 55.25 229 55.25C227.625 55.25 226.5 54.125 226.5 52.75ZM219 52.75C219 51.375 220.125 50.25 221.5 50.25C222.875 50.25 224 51.375 224 52.75C224 54.125 222.875 55.25 221.5 55.25C220.125 55.25 219 54.125 219 52.75ZM230.25 60.25C230.25 58.875 231.375 57.75 232.75 57.75C234.125 57.75 235.25 58.875 235.25 60.25C235.25 61.625 234.125 62.75 232.75 62.75C231.375 62.75 230.25 61.625 230.25 60.25ZM222.75 60.25C222.75 58.875 223.875 57.75 225.25 57.75C226.625 57.75 227.75 58.875 227.75 60.25C227.75 61.625 226.625 62.75 225.25 62.75C223.875 62.75 222.75 61.625 222.75 60.25ZM230.25 45.25C230.25 43.875 231.375 42.75 232.75 42.75C234.125 42.75 235.25 43.875 235.25 45.25C235.25 46.625 234.125 47.75 232.75 47.75C231.375 47.75 230.25 46.625 230.25 45.25ZM222.75 45.25C222.75 43.875 223.875 42.75 225.25 42.75C226.625 42.75 227.75 43.875 227.75 45.25C227.75 46.625 226.625 47.75 225.25 47.75C223.875 47.75 222.75 46.625 222.75 45.25Z" fill="black"/>
<path d="M193.901 83.75L193.901 75.731L195.1 75.731L195.1 83.75L193.901 83.75ZM196.873 83.75L196.873 77.931L197.951 77.931L197.995 79.086L198.061 79.086C198.229 78.6753 198.493 78.3673 198.853 78.162C199.212 77.9493 199.604 77.843 200.03 77.843C200.33 77.843 200.605 77.887 200.855 77.975C201.111 78.063 201.331 78.206 201.515 78.404C201.705 78.5947 201.852 78.8477 201.955 79.163C202.057 79.471 202.109 79.8487 202.109 80.296L202.109 83.75L200.976 83.75L200.976 80.527C200.976 80.131 200.928 79.8047 200.833 79.548C200.737 79.284 200.591 79.0897 200.393 78.965C200.195 78.8403 199.938 78.778 199.623 78.778C199.293 78.778 199.003 78.8587 198.754 79.02C198.512 79.1813 198.325 79.3977 198.193 79.669C198.061 79.933 197.995 80.2337 197.995 80.571L197.995 83.75L196.873 83.75ZM204.016 83.75L204.016 78.855L202.96 78.855L202.96 77.931L204.016 77.931L204.016 77.073C204.016 76.633 204.148 76.2993 204.412 76.072C204.684 75.8447 205.05 75.731 205.512 75.731L206.557 75.731L206.557 76.556L205.809 76.556C205.553 76.556 205.377 76.6147 205.281 76.732C205.193 76.8493 205.149 76.9997 205.149 77.183L205.149 77.931L206.436 77.931L206.436 78.855L205.149 78.855L205.149 83.75L204.016 83.75ZM207.421 83.75L207.421 77.931L208.433 77.931L208.488 78.965L208.543 78.965C208.668 78.591 208.884 78.3123 209.192 78.129C209.5 77.9457 209.845 77.854 210.226 77.854C210.292 77.854 210.351 77.8577 210.402 77.865C210.461 77.865 210.516 77.8687 210.567 77.876L210.567 78.943C210.523 78.9357 210.468 78.932 210.402 78.932C210.344 78.932 210.281 78.932 210.215 78.932C209.871 78.932 209.577 78.9907 209.335 79.108C209.093 79.2253 208.906 79.3977 208.774 79.625C208.642 79.845 208.565 80.1127 208.543 80.428L208.543 83.75L207.421 83.75ZM213.355 83.849C213.003 83.849 212.68 83.783 212.387 83.651C212.101 83.519 211.851 83.3283 211.639 83.079C211.426 82.8223 211.261 82.507 211.144 82.133C211.034 81.759 210.979 81.3263 210.979 80.835C210.979 80.1897 211.078 79.6433 211.276 79.196C211.481 78.7487 211.76 78.4113 212.112 78.184C212.471 77.9493 212.885 77.832 213.355 77.832C213.677 77.832 213.971 77.8833 214.235 77.986C214.506 78.0887 214.733 78.2353 214.917 78.426C215.107 78.6093 215.247 78.8257 215.335 79.075L215.401 79.075L215.445 77.931L216.534 77.931L216.534 83.75L215.401 83.75L215.401 82.595L215.335 82.595C215.195 82.969 214.953 83.2733 214.609 83.508C214.264 83.7353 213.846 83.849 213.355 83.849ZM213.751 82.914C214.11 82.914 214.411 82.8297 214.653 82.661C214.895 82.4923 215.078 82.276 215.203 82.012C215.327 81.748 215.39 81.4657 215.39 81.165L215.39 80.505C215.39 80.2043 215.327 79.922 215.203 79.658C215.078 79.394 214.895 79.1777 214.653 79.009C214.411 78.8403 214.11 78.756 213.751 78.756C213.428 78.756 213.146 78.8367 212.904 78.998C212.662 79.152 212.475 79.383 212.343 79.691C212.211 79.9917 212.145 80.373 212.145 80.835C212.145 81.2897 212.211 81.671 212.343 81.979C212.475 82.287 212.662 82.5217 212.904 82.683C213.146 82.837 213.428 82.914 213.751 82.914ZM220.288 83.86C219.488 83.86 218.872 83.684 218.44 83.332C218.014 82.9727 217.802 82.5033 217.802 81.924L218.924 81.924C218.924 82.32 219.056 82.6097 219.32 82.793C219.584 82.969 219.917 83.057 220.321 83.057C220.739 83.057 221.054 82.9837 221.267 82.837C221.487 82.683 221.597 82.4703 221.597 82.199C221.597 81.979 221.549 81.8103 221.454 81.693C221.358 81.5757 221.208 81.4877 221.003 81.429C220.797 81.363 220.53 81.3043 220.2 81.253C219.87 81.209 219.569 81.154 219.298 81.088C219.026 81.0147 218.788 80.9157 218.583 80.791C218.385 80.6663 218.231 80.505 218.121 80.307C218.018 80.109 217.967 79.8633 217.967 79.57C217.967 79.196 218.062 78.8807 218.253 78.624C218.451 78.3673 218.726 78.1693 219.078 78.03C219.43 77.8907 219.84 77.821 220.31 77.821C220.794 77.821 221.204 77.8943 221.542 78.041C221.886 78.1877 222.15 78.3967 222.334 78.668C222.524 78.9393 222.623 79.2657 222.631 79.647L221.52 79.647C221.52 79.4123 221.468 79.2217 221.366 79.075C221.263 78.921 221.12 78.8073 220.937 78.734C220.753 78.6607 220.537 78.624 220.288 78.624C219.906 78.624 219.613 78.701 219.408 78.855C219.202 79.009 219.1 79.2107 219.1 79.46C219.1 79.6433 219.151 79.7937 219.254 79.911C219.356 80.0283 219.514 80.12 219.727 80.186C219.939 80.2447 220.207 80.296 220.53 80.34C220.838 80.384 221.124 80.439 221.388 80.505C221.652 80.571 221.886 80.6663 222.092 80.791C222.297 80.9083 222.458 81.0733 222.576 81.286C222.693 81.4987 222.752 81.77 222.752 82.1C222.752 82.694 222.532 83.1377 222.092 83.431C221.652 83.717 221.05 83.86 220.288 83.86ZM225.701 83.75C225.378 83.75 225.125 83.706 224.942 83.618C224.758 83.5227 224.63 83.3833 224.557 83.2C224.483 83.0167 224.447 82.7967 224.447 82.54L224.447 78.855L223.347 78.855L223.347 77.931L224.447 77.931L224.447 76.248L225.58 76.116L225.58 77.931L226.867 77.931L226.867 78.855L225.58 78.855L225.58 82.331C225.58 82.529 225.616 82.661 225.69 82.727C225.763 82.7857 225.891 82.815 226.075 82.815L226.867 82.815L226.867 83.75L225.701 83.75ZM227.993 83.75L227.993 77.931L229.005 77.931L229.06 78.965L229.115 78.965C229.239 78.591 229.456 78.3123 229.764 78.129C230.072 77.9457 230.416 77.854 230.798 77.854C230.864 77.854 230.922 77.8577 230.974 77.865C231.032 77.865 231.087 77.8687 231.139 77.876L231.139 78.943C231.095 78.9357 231.04 78.932 230.974 78.932C230.915 78.932 230.853 78.932 230.787 78.932C230.442 78.932 230.149 78.9907 229.907 79.108C229.665 79.2253 229.478 79.3977 229.346 79.625C229.214 79.845 229.137 80.1127 229.115 80.428L229.115 83.75L227.993 83.75ZM234.163 83.849C233.731 83.849 233.357 83.7647 233.041 83.596C232.726 83.42 232.484 83.1597 232.315 82.815C232.154 82.463 232.073 82.0303 232.073 81.517L232.073 77.931L233.206 77.931L233.206 81.231C233.206 81.5903 233.25 81.8947 233.338 82.144C233.434 82.3933 233.584 82.584 233.789 82.716C233.995 82.8407 234.259 82.903 234.581 82.903C234.904 82.903 235.183 82.826 235.417 82.672C235.659 82.518 235.846 82.3017 235.978 82.023C236.11 81.7443 236.176 81.429 236.176 81.077L236.176 77.931L237.309 77.931L237.309 83.75L236.231 83.75L236.176 82.573L236.11 82.573C235.964 82.969 235.714 83.2807 235.362 83.508C235.01 83.7353 234.611 83.849 234.163 83.849ZM241.23 83.849C240.805 83.849 240.416 83.7793 240.064 83.64C239.72 83.4933 239.423 83.288 239.173 83.024C238.931 82.76 238.741 82.4447 238.601 82.078C238.469 81.7113 238.403 81.3007 238.403 80.846C238.403 80.2447 238.521 79.7203 238.755 79.273C238.99 78.8183 239.324 78.4663 239.756 78.217C240.189 77.9677 240.695 77.843 241.274 77.843C241.744 77.843 242.162 77.931 242.528 78.107C242.902 78.283 243.199 78.5287 243.419 78.844C243.647 79.1593 243.775 79.526 243.804 79.944L242.704 79.944C242.66 79.6873 242.569 79.4747 242.429 79.306C242.29 79.1373 242.118 79.009 241.912 78.921C241.714 78.833 241.491 78.789 241.241 78.789C240.882 78.789 240.578 78.877 240.328 79.053C240.079 79.2217 239.888 79.46 239.756 79.768C239.624 80.076 239.558 80.439 239.558 80.857C239.558 81.2897 239.628 81.66 239.767 81.968C239.907 82.2687 240.101 82.4997 240.35 82.661C240.6 82.8223 240.893 82.903 241.23 82.903C241.516 82.903 241.766 82.8517 241.978 82.749C242.191 82.6463 242.36 82.5033 242.484 82.32C242.616 82.1293 242.697 81.913 242.726 81.671L243.826 81.671C243.797 82.111 243.669 82.496 243.441 82.826C243.214 83.1487 242.91 83.4017 242.528 83.585C242.147 83.761 241.714 83.849 241.23 83.849ZM246.637 83.75C246.314 83.75 246.061 83.706 245.878 83.618C245.695 83.5227 245.566 83.3833 245.493 83.2C245.42 83.0167 245.383 82.7967 245.383 82.54L245.383 78.855L244.283 78.855L244.283 77.931L245.383 77.931L245.383 76.248L246.516 76.116L246.516 77.931L247.803 77.931L247.803 78.855L246.516 78.855L246.516 82.331C246.516 82.529 246.553 82.661 246.626 82.727C246.699 82.7857 246.828 82.815 247.011 82.815L247.803 82.815L247.803 83.75L246.637 83.75ZM250.964 83.849C250.532 83.849 250.158 83.7647 249.842 83.596C249.527 83.42 249.285 83.1597 249.116 82.815C248.955 82.463 248.874 82.0303 248.874 81.517L248.874 77.931L250.007 77.931L250.007 81.231C250.007 81.5903 250.051 81.8947 250.139 82.144C250.235 82.3933 250.385 82.584 250.59 82.716C250.796 82.8407 251.06 82.903 251.382 82.903C251.705 82.903 251.984 82.826 252.218 82.672C252.46 82.518 252.647 82.3017 252.779 82.023C252.911 81.7443 252.977 81.429 252.977 81.077L252.977 77.931L254.11 77.931L254.11 83.75L253.032 83.75L252.977 82.573L252.911 82.573C252.765 82.969 252.515 83.2807 252.163 83.508C251.811 83.7353 251.412 83.849 250.964 83.849ZM255.643 83.75L255.643 77.931L256.655 77.931L256.71 78.965L256.765 78.965C256.89 78.591 257.106 78.3123 257.414 78.129C257.722 77.9457 258.067 77.854 258.448 77.854C258.514 77.854 258.573 77.8577 258.624 77.865C258.683 77.865 258.738 77.8687 258.789 77.876L258.789 78.943C258.745 78.9357 258.69 78.932 258.624 78.932C258.565 78.932 258.503 78.932 258.437 78.932C258.092 78.932 257.799 78.9907 257.557 79.108C257.315 79.2253 257.128 79.3977 256.996 79.625C256.864 79.845 256.787 80.1127 256.765 80.428L256.765 83.75L255.643 83.75ZM262.016 83.849C261.437 83.849 260.935 83.728 260.509 83.486C260.091 83.2367 259.769 82.8883 259.541 82.441C259.314 81.9863 259.2 81.462 259.2 80.868C259.2 80.252 259.314 79.7167 259.541 79.262C259.769 78.8073 260.088 78.459 260.498 78.217C260.916 77.9677 261.408 77.843 261.972 77.843C262.61 77.843 263.135 77.986 263.545 78.272C263.963 78.5507 264.264 78.9357 264.447 79.427C264.631 79.911 264.693 80.4573 264.634 81.066L260.322 81.066C260.33 81.462 260.403 81.803 260.542 82.089C260.682 82.3677 260.876 82.5803 261.125 82.727C261.382 82.8737 261.679 82.947 262.016 82.947C262.405 82.947 262.735 82.859 263.006 82.683C263.278 82.4997 263.45 82.2577 263.523 81.957L264.601 81.957C264.55 82.3383 264.407 82.672 264.172 82.958C263.938 83.2367 263.633 83.4567 263.259 83.618C262.893 83.772 262.478 83.849 262.016 83.849ZM260.333 80.428L260.223 80.263L263.633 80.263L263.523 80.45C263.538 80.0467 263.476 79.7203 263.336 79.471C263.204 79.2143 263.017 79.0273 262.775 78.91C262.541 78.7927 262.269 78.734 261.961 78.734C261.639 78.734 261.356 78.8037 261.114 78.943C260.872 79.075 260.685 79.2693 260.553 79.526C260.421 79.7827 260.348 80.0833 260.333 80.428Z" fill="black"/>
</g>
<g filter="url(#filter2_d_21626_26885)">
<rect x="308" y="51" width="112" height="64" rx="10" fill="white" shape-rendering="crispEdges"/>
<rect x="308.5" y="51.5" width="111" height="63" rx="9.5" stroke="#8405FF" shape-rendering="crispEdges"/>
<path d="M375.25 68.125C375.25 70.5375 373.288 72.5 370.875 72.5C368.462 72.5 366.5 70.5375 366.5 68.125C366.5 65.7125 368.462 63.75 370.875 63.75C373.288 63.75 375.25 65.7125 375.25 68.125ZM372.75 74.7375C372.125 74.9 371.5 75 370.875 75C367.087 75 364 71.9125 364 68.125C364 66.2875 364.725 64.625 365.875 63.3875C365.438 62.85 364.762 62.5 364 62.5C362.625 62.5 361.5 63.625 361.5 65V65.3625C357.787 66.4625 355.25 69.875 355.25 73.75V81.25L352.75 83.75V85H375.25V83.75L372.75 81.25V74.7375ZM364 88.75C365.387 88.75 366.5 87.6375 366.5 86.25H361.5C361.5 87.6375 362.625 88.75 364 88.75Z" fill="black"/>
<path d="M348.704 106L351.553 97.981L353.236 97.981L356.085 106L354.831 106L354.171 104.13L350.618 104.13L349.958 106L348.704 106ZM350.904 103.195L353.874 103.195L352.994 100.72L352.433 99.081L352.367 99.081L351.806 100.72L350.904 103.195ZM356.896 106L356.896 97.981L358.029 97.981L358.029 106L356.896 106ZM362.024 106.099C361.444 106.099 360.942 105.978 360.517 105.736C360.099 105.487 359.776 105.138 359.549 104.691C359.321 104.236 359.208 103.712 359.208 103.118C359.208 102.502 359.321 101.967 359.549 101.512C359.776 101.057 360.095 100.709 360.506 100.467C360.924 100.218 361.415 100.093 361.98 100.093C362.618 100.093 363.142 100.236 363.553 100.522C363.971 100.801 364.271 101.186 364.455 101.677C364.638 102.161 364.7 102.707 364.642 103.316L360.33 103.316C360.337 103.712 360.41 104.053 360.55 104.339C360.689 104.618 360.883 104.83 361.133 104.977C361.389 105.124 361.686 105.197 362.024 105.197C362.412 105.197 362.742 105.109 363.014 104.933C363.285 104.75 363.457 104.508 363.531 104.207L364.609 104.207C364.557 104.588 364.414 104.922 364.18 105.208C363.945 105.487 363.641 105.707 363.267 105.868C362.9 106.022 362.486 106.099 362.024 106.099ZM360.341 102.678L360.231 102.513L363.641 102.513L363.531 102.7C363.545 102.297 363.483 101.97 363.344 101.721C363.212 101.464 363.025 101.277 362.783 101.16C362.548 101.043 362.277 100.984 361.969 100.984C361.646 100.984 361.364 101.054 361.122 101.193C360.88 101.325 360.693 101.519 360.561 101.776C360.429 102.033 360.355 102.333 360.341 102.678ZM365.866 106L365.866 100.181L366.878 100.181L366.933 101.215L366.988 101.215C367.113 100.841 367.329 100.562 367.637 100.379C367.945 100.196 368.29 100.104 368.671 100.104C368.737 100.104 368.796 100.108 368.847 100.115C368.906 100.115 368.961 100.119 369.012 100.126L369.012 101.193C368.968 101.186 368.913 101.182 368.847 101.182C368.789 101.182 368.726 101.182 368.66 101.182C368.316 101.182 368.022 101.241 367.78 101.358C367.538 101.475 367.351 101.648 367.219 101.875C367.087 102.095 367.01 102.363 366.988 102.678L366.988 106L365.866 106ZM371.91 106C371.587 106 371.334 105.956 371.151 105.868C370.968 105.773 370.839 105.633 370.766 105.45C370.693 105.267 370.656 105.047 370.656 104.79L370.656 101.105L369.556 101.105L369.556 100.181L370.656 100.181L370.656 98.498L371.789 98.366L371.789 100.181L373.076 100.181L373.076 101.105L371.789 101.105L371.789 104.581C371.789 104.779 371.826 104.911 371.899 104.977C371.972 105.036 372.101 105.065 372.284 105.065L373.076 105.065L373.076 106L371.91 106ZM376.369 106.11C375.57 106.11 374.954 105.934 374.521 105.582C374.096 105.223 373.883 104.753 373.883 104.174L375.005 104.174C375.005 104.57 375.137 104.86 375.401 105.043C375.665 105.219 375.999 105.307 376.402 105.307C376.82 105.307 377.135 105.234 377.348 105.087C377.568 104.933 377.678 104.72 377.678 104.449C377.678 104.229 377.63 104.06 377.535 103.943C377.44 103.826 377.289 103.738 377.084 103.679C376.879 103.613 376.611 103.554 376.281 103.503C375.951 103.459 375.65 103.404 375.379 103.338C375.108 103.265 374.869 103.166 374.664 103.041C374.466 102.916 374.312 102.755 374.202 102.557C374.099 102.359 374.048 102.113 374.048 101.82C374.048 101.446 374.143 101.131 374.334 100.874C374.532 100.617 374.807 100.419 375.159 100.28C375.511 100.141 375.922 100.071 376.391 100.071C376.875 100.071 377.286 100.144 377.623 100.291C377.968 100.438 378.232 100.647 378.415 100.918C378.606 101.189 378.705 101.516 378.712 101.897L377.601 101.897C377.601 101.662 377.55 101.472 377.447 101.325C377.344 101.171 377.201 101.057 377.018 100.984C376.835 100.911 376.618 100.874 376.369 100.874C375.988 100.874 375.694 100.951 375.489 101.105C375.284 101.259 375.181 101.461 375.181 101.71C375.181 101.893 375.232 102.044 375.335 102.161C375.438 102.278 375.595 102.37 375.808 102.436C376.021 102.495 376.288 102.546 376.611 102.59C376.919 102.634 377.205 102.689 377.469 102.755C377.733 102.821 377.968 102.916 378.173 103.041C378.378 103.158 378.54 103.323 378.657 103.536C378.774 103.749 378.833 104.02 378.833 104.35C378.833 104.944 378.613 105.388 378.173 105.681C377.733 105.967 377.132 106.11 376.369 106.11Z" fill="black"/>
</g>
<g filter="url(#filter3_d_21626_26885)">
<rect x="38" y="146.875" width="112" height="64" rx="10" fill="white" shape-rendering="crispEdges"/>
<rect x="38.5" y="147.375" width="111" height="63" rx="9.5" stroke="#8405FF" shape-rendering="crispEdges"/>
<path d="M101.5 174C102.875 174 104.125 174.5 105 175.5L106.5 174V179H101.5L103.75 176.75C103.125 176.25 102.375 175.875 101.5 175.875C99.7502 175.875 98.3752 177.25 98.3752 179C98.3752 180.75 99.7502 182.125 101.5 182.125C102.5 182.125 103.375 181.625 104 180.875H106.125C105.375 182.75 103.625 184 101.5 184C98.7502 184 96.5002 181.75 96.5002 179C96.5002 176.25 98.7502 174 101.5 174ZM93.6252 180.875H93.1252L92.6252 177.625C91.1252 177.375 89.8752 176.5 88.8752 175.375L85.8752 176.625L84.8752 175L87.5002 173C87.0002 171.5 87.0002 170 87.5002 168.5L84.8752 166.75L85.8752 165.125L88.8752 166.375C89.8752 165.25 91.1252 164.5 92.6252 164.125L93.0002 160.875H94.8752L95.3752 164.125C96.8752 164.375 98.2502 165.25 99.1252 166.375L102.125 165.125L103.125 166.75L100.5 168.625C100.75 169.375 100.875 170.125 100.875 170.875H101.5C102.125 170.875 102.75 171 103.375 171.125V170.875L103.25 169.625L105.875 167.625C106.125 167.375 106.125 167.125 106 166.875L103.5 162.5C103.375 162.125 103.125 162.125 102.75 162.125L99.6252 163.375C99.0002 162.875 98.2502 162.5 97.5002 162.125L97.0002 158.75C97.1252 158.625 96.7502 158.375 96.5002 158.375H91.5002C91.2502 158.375 90.8752 158.625 90.8752 158.875L90.3752 162.25C89.6252 162.5 89.0002 163 88.2502 163.375L85.2502 162.125C84.8752 162.125 84.6252 162.125 84.3752 162.5L81.8752 166.875C81.7502 167.125 81.8752 167.375 82.1252 167.625L84.7502 169.625L84.6252 170.875L84.7502 172.125L82.1252 174.25C81.8752 174.5 81.8752 174.75 82.0002 175L84.5002 179.375C84.6252 179.625 84.8752 179.625 85.2502 179.625L88.3752 178.375C89.0002 178.875 89.7502 179.25 90.5002 179.625L91.0002 183C91.0002 183.25 91.2502 183.5 91.6252 183.5H94.7502C94.1252 182.625 93.8752 181.75 93.6252 180.875ZM99.0002 171.25V170.875C99.0002 168.125 96.7502 165.875 94.0002 165.875C91.2502 165.875 89.0002 168.125 89.0002 170.875C89.0002 173.625 91.2502 175.875 94.0002 175.875C94.8752 173.75 96.7502 172 99.0002 171.25ZM91.5002 170.875C91.5002 169.5 92.6252 168.375 94.0002 168.375C95.3752 168.375 96.5002 169.5 96.5002 170.875C96.5002 172.25 95.3752 173.375 94.0002 173.375C92.6252 173.375 91.5002 172.25 91.5002 170.875Z" fill="black"/>
<path d="M85.7727 201.875L85.7727 193.856L91.3937 193.856L91.3937 194.89L86.7077 194.89L86.9717 194.626L86.9717 197.563L86.7077 197.299L90.8547 197.299L90.8547 198.267L86.7077 198.267L86.9717 198.003L86.9717 201.094L86.7077 200.83L91.4047 200.83L91.4047 201.875L85.7727 201.875ZM92.927 201.875L92.927 193.856L94.126 193.856L94.126 201.072L93.895 200.797L97.954 200.797L97.954 201.875L92.927 201.875ZM99.3465 201.875L99.3465 194.901L96.8275 194.901L96.8275 193.856L103.087 193.856L103.087 194.901L100.546 194.901L100.546 201.875L99.3465 201.875Z" fill="black"/>
</g>
<g filter="url(#filter4_d_21626_26885)">
<rect x="173" y="168" width="112" height="64" rx="10" fill="white" shape-rendering="crispEdges"/>
<rect x="173.5" y="168.5" width="111" height="63" rx="9.5" stroke="#8405FF" shape-rendering="crispEdges"/>
<path d="M240.25 183.75V191.75L233.25 195.75V187.875L240.25 183.75ZM232.5 187.875V195.75L225.5 191.75V183.75L232.5 187.875ZM232.5 196.625V204.625L225.5 200.625V192.625L232.5 196.625ZM224.75 183.375V191.375L217.75 187.375V179.375L224.75 183.375Z" fill="black"/>
<path d="M205.89 223L205.89 216.026L203.371 216.026L203.371 214.981L209.63 214.981L209.63 216.026L207.089 216.026L207.089 223L205.89 223ZM211.856 223.099C211.276 223.099 210.774 222.978 210.349 222.736C209.931 222.487 209.608 222.138 209.381 221.691C209.153 221.236 209.04 220.712 209.04 220.118C209.04 219.502 209.153 218.967 209.381 218.512C209.608 218.057 209.927 217.709 210.338 217.467C210.756 217.218 211.247 217.093 211.812 217.093C212.45 217.093 212.974 217.236 213.385 217.522C213.803 217.801 214.103 218.186 214.287 218.677C214.47 219.161 214.532 219.707 214.474 220.316L210.162 220.316C210.169 220.712 210.242 221.053 210.382 221.339C210.521 221.618 210.715 221.83 210.965 221.977C211.221 222.124 211.518 222.197 211.856 222.197C212.244 222.197 212.574 222.109 212.846 221.933C213.117 221.75 213.289 221.508 213.363 221.207L214.441 221.207C214.389 221.588 214.246 221.922 214.012 222.208C213.777 222.487 213.473 222.707 213.099 222.868C212.732 223.022 212.318 223.099 211.856 223.099ZM210.173 219.678L210.063 219.513L213.473 219.513L213.363 219.7C213.377 219.297 213.315 218.97 213.176 218.721C213.044 218.464 212.857 218.277 212.615 218.16C212.38 218.043 212.109 217.984 211.801 217.984C211.478 217.984 211.196 218.054 210.954 218.193C210.712 218.325 210.525 218.519 210.393 218.776C210.261 219.033 210.187 219.333 210.173 219.678ZM215.698 223L215.698 217.181L216.71 217.181L216.765 218.215L216.82 218.215C216.945 217.841 217.161 217.562 217.469 217.379C217.777 217.196 218.122 217.104 218.503 217.104C218.569 217.104 218.628 217.108 218.679 217.115C218.738 217.115 218.793 217.119 218.844 217.126L218.844 218.193C218.8 218.186 218.745 218.182 218.679 218.182C218.621 218.182 218.558 218.182 218.492 218.182C218.148 218.182 217.854 218.241 217.612 218.358C217.37 218.475 217.183 218.648 217.051 218.875C216.919 219.095 216.842 219.363 216.82 219.678L216.82 223L215.698 223ZM219.834 223L219.834 217.181L220.846 217.181L220.901 218.215L220.956 218.215C221.081 217.841 221.297 217.562 221.605 217.379C221.913 217.196 222.258 217.104 222.639 217.104C222.705 217.104 222.764 217.108 222.815 217.115C222.874 217.115 222.929 217.119 222.98 217.126L222.98 218.193C222.936 218.186 222.881 218.182 222.815 218.182C222.756 218.182 222.694 218.182 222.628 218.182C222.283 218.182 221.99 218.241 221.748 218.358C221.506 218.475 221.319 218.648 221.187 218.875C221.055 219.095 220.978 219.363 220.956 219.678L220.956 223L219.834 223ZM225.767 223.099C225.415 223.099 225.092 223.033 224.799 222.901C224.513 222.769 224.264 222.578 224.051 222.329C223.838 222.072 223.673 221.757 223.556 221.383C223.446 221.009 223.391 220.576 223.391 220.085C223.391 219.44 223.49 218.893 223.688 218.446C223.893 217.999 224.172 217.661 224.524 217.434C224.883 217.199 225.298 217.082 225.767 217.082C226.09 217.082 226.383 217.133 226.647 217.236C226.918 217.339 227.146 217.485 227.329 217.676C227.52 217.859 227.659 218.076 227.747 218.325L227.813 218.325L227.857 217.181L228.946 217.181L228.946 223L227.813 223L227.813 221.845L227.747 221.845C227.608 222.219 227.366 222.523 227.021 222.758C226.676 222.985 226.258 223.099 225.767 223.099ZM226.163 222.164C226.522 222.164 226.823 222.08 227.065 221.911C227.307 221.742 227.49 221.526 227.615 221.262C227.74 220.998 227.802 220.716 227.802 220.415L227.802 219.755C227.802 219.454 227.74 219.172 227.615 218.908C227.49 218.644 227.307 218.428 227.065 218.259C226.823 218.09 226.522 218.006 226.163 218.006C225.84 218.006 225.558 218.087 225.316 218.248C225.074 218.402 224.887 218.633 224.755 218.941C224.623 219.242 224.557 219.623 224.557 220.085C224.557 220.54 224.623 220.921 224.755 221.229C224.887 221.537 225.074 221.772 225.316 221.933C225.558 222.087 225.84 222.164 226.163 222.164ZM230.995 223L230.995 218.105L229.939 218.105L229.939 217.181L230.995 217.181L230.995 216.323C230.995 215.883 231.127 215.549 231.391 215.322C231.663 215.095 232.029 214.981 232.491 214.981L233.536 214.981L233.536 215.806L232.788 215.806C232.532 215.806 232.356 215.865 232.26 215.982C232.172 216.099 232.128 216.25 232.128 216.433L232.128 217.181L233.415 217.181L233.415 218.105L232.128 218.105L232.128 223L230.995 223ZM236.692 223.099C236.267 223.099 235.878 223.029 235.526 222.89C235.182 222.751 234.885 222.549 234.635 222.285C234.386 222.021 234.192 221.706 234.052 221.339C233.913 220.972 233.843 220.562 233.843 220.107C233.843 219.506 233.957 218.981 234.184 218.534C234.419 218.079 234.749 217.727 235.174 217.478C235.607 217.221 236.113 217.093 236.692 217.093C237.118 217.093 237.503 217.163 237.847 217.302C238.199 217.434 238.5 217.632 238.749 217.896C238.999 218.16 239.189 218.479 239.321 218.853C239.461 219.22 239.53 219.634 239.53 220.096C239.53 220.69 239.417 221.214 239.189 221.669C238.962 222.116 238.636 222.468 238.21 222.725C237.785 222.974 237.279 223.099 236.692 223.099ZM236.692 222.153C237.03 222.153 237.323 222.076 237.572 221.922C237.829 221.761 238.027 221.526 238.166 221.218C238.306 220.91 238.375 220.536 238.375 220.096C238.375 219.766 238.335 219.476 238.254 219.227C238.181 218.97 238.071 218.754 237.924 218.578C237.778 218.395 237.602 218.259 237.396 218.171C237.191 218.076 236.956 218.028 236.692 218.028C236.355 218.028 236.058 218.109 235.801 218.27C235.552 218.431 235.354 218.666 235.207 218.974C235.068 219.275 234.998 219.652 234.998 220.107C234.998 220.43 235.035 220.719 235.108 220.976C235.189 221.225 235.303 221.438 235.449 221.614C235.603 221.79 235.783 221.926 235.988 222.021C236.201 222.109 236.436 222.153 236.692 222.153ZM240.717 223L240.717 217.181L241.729 217.181L241.784 218.215L241.839 218.215C241.963 217.841 242.18 217.562 242.488 217.379C242.796 217.196 243.14 217.104 243.522 217.104C243.588 217.104 243.646 217.108 243.698 217.115C243.756 217.115 243.811 217.119 243.863 217.126L243.863 218.193C243.819 218.186 243.764 218.182 243.698 218.182C243.639 218.182 243.577 218.182 243.511 218.182C243.166 218.182 242.873 218.241 242.631 218.358C242.389 218.475 242.202 218.648 242.07 218.875C241.938 219.095 241.861 219.363 241.839 219.678L241.839 223L240.717 223ZM244.853 223L244.853 217.181L245.931 217.181L245.975 218.336L246.041 218.336C246.202 217.925 246.455 217.617 246.8 217.412C247.152 217.199 247.54 217.093 247.966 217.093C248.391 217.093 248.772 217.196 249.11 217.401C249.454 217.606 249.7 217.958 249.847 218.457L249.935 218.457C250.096 218.002 250.36 217.661 250.727 217.434C251.101 217.207 251.519 217.093 251.981 217.093C252.362 217.093 252.703 217.174 253.004 217.335C253.312 217.496 253.554 217.757 253.73 218.116C253.906 218.475 253.994 218.952 253.994 219.546L253.994 223L252.872 223L252.872 219.777C252.872 219.381 252.824 219.055 252.729 218.798C252.633 218.534 252.49 218.34 252.3 218.215C252.109 218.09 251.86 218.028 251.552 218.028C251.236 218.028 250.961 218.109 250.727 218.27C250.492 218.431 250.309 218.648 250.177 218.919C250.052 219.183 249.99 219.484 249.99 219.821L249.99 223L248.857 223L248.857 219.777C248.857 219.381 248.809 219.055 248.714 218.798C248.618 218.534 248.475 218.34 248.285 218.215C248.094 218.09 247.848 218.028 247.548 218.028C247.225 218.028 246.946 218.109 246.712 218.27C246.477 218.431 246.294 218.648 246.162 218.919C246.037 219.183 245.975 219.484 245.975 219.821L245.975 223L244.853 223Z" fill="black"/>
</g>
<g filter="url(#filter5_d_21626_26885)">
<rect x="308" y="146.875" width="112" height="64" rx="10" fill="white" shape-rendering="crispEdges"/>
<rect x="308.5" y="147.375" width="111" height="63" rx="9.5" stroke="#8405FF" shape-rendering="crispEdges"/>
<path d="M376.5 182.125H351.5V159.625H354V179.625H356.5V168.375H361.5V179.625H364V163.375H369V179.625H371.5V173.375H376.5V182.125Z" fill="black"/>
<path d="M341.04 201.875L341.04 193.856L344.758 193.856C345.278 193.856 345.718 193.944 346.078 194.12C346.437 194.289 346.708 194.527 346.892 194.835C347.075 195.136 347.167 195.495 347.167 195.913C347.167 196.199 347.119 196.463 347.024 196.705C346.928 196.94 346.785 197.145 346.595 197.321C346.404 197.497 346.166 197.622 345.88 197.695L345.88 197.75C346.21 197.816 346.485 197.937 346.705 198.113C346.925 198.289 347.09 198.509 347.2 198.773C347.317 199.03 347.376 199.312 347.376 199.62C347.376 200.104 347.266 200.515 347.046 200.852C346.826 201.182 346.51 201.435 346.1 201.611C345.689 201.787 345.194 201.875 344.615 201.875L341.04 201.875ZM342.217 200.929L344.505 200.929C345.062 200.929 345.476 200.801 345.748 200.544C346.019 200.287 346.155 199.957 346.155 199.554C346.155 199.121 346.019 198.791 345.748 198.564C345.476 198.337 345.102 198.223 344.626 198.223L342.217 198.223L342.217 200.929ZM342.217 197.31L344.571 197.31C344.886 197.31 345.146 197.259 345.352 197.156C345.557 197.053 345.711 196.91 345.814 196.727C345.916 196.536 345.968 196.32 345.968 196.078C345.968 195.66 345.828 195.345 345.55 195.132C345.278 194.912 344.919 194.802 344.472 194.802L342.217 194.802L342.217 197.31ZM350.547 201.974C350.115 201.974 349.741 201.89 349.425 201.721C349.11 201.545 348.868 201.285 348.699 200.94C348.538 200.588 348.457 200.155 348.457 199.642L348.457 196.056L349.59 196.056L349.59 199.356C349.59 199.715 349.634 200.02 349.722 200.269C349.818 200.518 349.968 200.709 350.173 200.841C350.379 200.966 350.643 201.028 350.965 201.028C351.288 201.028 351.567 200.951 351.801 200.797C352.043 200.643 352.23 200.427 352.362 200.148C352.494 199.869 352.56 199.554 352.56 199.202L352.56 196.056L353.693 196.056L353.693 201.875L352.615 201.875L352.56 200.698L352.494 200.698C352.348 201.094 352.098 201.406 351.746 201.633C351.394 201.86 350.995 201.974 350.547 201.974ZM357.393 201.985C356.594 201.985 355.978 201.809 355.545 201.457C355.12 201.098 354.907 200.628 354.907 200.049L356.029 200.049C356.029 200.445 356.161 200.735 356.425 200.918C356.689 201.094 357.023 201.182 357.426 201.182C357.844 201.182 358.159 201.109 358.372 200.962C358.592 200.808 358.702 200.595 358.702 200.324C358.702 200.104 358.654 199.935 358.559 199.818C358.464 199.701 358.313 199.613 358.108 199.554C357.903 199.488 357.635 199.429 357.305 199.378C356.975 199.334 356.674 199.279 356.403 199.213C356.132 199.14 355.893 199.041 355.688 198.916C355.49 198.791 355.336 198.63 355.226 198.432C355.123 198.234 355.072 197.988 355.072 197.695C355.072 197.321 355.167 197.006 355.358 196.749C355.556 196.492 355.831 196.294 356.183 196.155C356.535 196.016 356.946 195.946 357.415 195.946C357.899 195.946 358.31 196.019 358.647 196.166C358.992 196.313 359.256 196.522 359.439 196.793C359.63 197.064 359.729 197.391 359.736 197.772L358.625 197.772C358.625 197.537 358.574 197.347 358.471 197.2C358.368 197.046 358.225 196.932 358.042 196.859C357.859 196.786 357.642 196.749 357.393 196.749C357.012 196.749 356.718 196.826 356.513 196.98C356.308 197.134 356.205 197.336 356.205 197.585C356.205 197.768 356.256 197.919 356.359 198.036C356.462 198.153 356.619 198.245 356.832 198.311C357.045 198.37 357.312 198.421 357.635 198.465C357.943 198.509 358.229 198.564 358.493 198.63C358.757 198.696 358.992 198.791 359.197 198.916C359.402 199.033 359.564 199.198 359.681 199.411C359.798 199.624 359.857 199.895 359.857 200.225C359.857 200.819 359.637 201.263 359.197 201.556C358.757 201.842 358.156 201.985 357.393 201.985ZM361.145 201.875L361.145 196.056L362.278 196.056L362.278 201.875L361.145 201.875ZM361.145 195.165L361.145 193.856L362.278 193.856L362.278 195.165L361.145 195.165ZM363.852 201.875L363.852 196.056L364.93 196.056L364.974 197.211L365.04 197.211C365.209 196.8 365.473 196.492 365.832 196.287C366.191 196.074 366.584 195.968 367.009 195.968C367.31 195.968 367.585 196.012 367.834 196.1C368.091 196.188 368.311 196.331 368.494 196.529C368.685 196.72 368.831 196.973 368.934 197.288C369.037 197.596 369.088 197.974 369.088 198.421L369.088 201.875L367.955 201.875L367.955 198.652C367.955 198.256 367.907 197.93 367.812 197.673C367.717 197.409 367.57 197.215 367.372 197.09C367.174 196.965 366.917 196.903 366.602 196.903C366.272 196.903 365.982 196.984 365.733 197.145C365.491 197.306 365.304 197.523 365.172 197.794C365.04 198.058 364.974 198.359 364.974 198.696L364.974 201.875L363.852 201.875ZM373.04 201.974C372.46 201.974 371.958 201.853 371.533 201.611C371.115 201.362 370.792 201.013 370.565 200.566C370.337 200.111 370.224 199.587 370.224 198.993C370.224 198.377 370.337 197.842 370.565 197.387C370.792 196.932 371.111 196.584 371.522 196.342C371.94 196.093 372.431 195.968 372.996 195.968C373.634 195.968 374.158 196.111 374.569 196.397C374.987 196.676 375.287 197.061 375.471 197.552C375.654 198.036 375.716 198.582 375.658 199.191L371.346 199.191C371.353 199.587 371.426 199.928 371.566 200.214C371.705 200.493 371.899 200.705 372.149 200.852C372.405 200.999 372.702 201.072 373.04 201.072C373.428 201.072 373.758 200.984 374.03 200.808C374.301 200.625 374.473 200.383 374.547 200.082L375.625 200.082C375.573 200.463 375.43 200.797 375.196 201.083C374.961 201.362 374.657 201.582 374.283 201.743C373.916 201.897 373.502 201.974 373.04 201.974ZM371.357 198.553L371.247 198.388L374.657 198.388L374.547 198.575C374.561 198.172 374.499 197.845 374.36 197.596C374.228 197.339 374.041 197.152 373.799 197.035C373.564 196.918 373.293 196.859 372.985 196.859C372.662 196.859 372.38 196.929 372.138 197.068C371.896 197.2 371.709 197.394 371.577 197.651C371.445 197.908 371.371 198.208 371.357 198.553ZM379.049 201.985C378.25 201.985 377.634 201.809 377.201 201.457C376.776 201.098 376.563 200.628 376.563 200.049L377.685 200.049C377.685 200.445 377.817 200.735 378.081 200.918C378.345 201.094 378.679 201.182 379.082 201.182C379.5 201.182 379.816 201.109 380.028 200.962C380.248 200.808 380.358 200.595 380.358 200.324C380.358 200.104 380.311 199.935 380.215 199.818C380.12 199.701 379.97 199.613 379.764 199.554C379.559 199.488 379.291 199.429 378.961 199.378C378.631 199.334 378.331 199.279 378.059 199.213C377.788 199.14 377.55 199.041 377.344 198.916C377.146 198.791 376.992 198.63 376.882 198.432C376.78 198.234 376.728 197.988 376.728 197.695C376.728 197.321 376.824 197.006 377.014 196.749C377.212 196.492 377.487 196.294 377.839 196.155C378.191 196.016 378.602 195.946 379.071 195.946C379.555 195.946 379.966 196.019 380.303 196.166C380.648 196.313 380.912 196.522 381.095 196.793C381.286 197.064 381.385 197.391 381.392 197.772L380.281 197.772C380.281 197.537 380.23 197.347 380.127 197.2C380.025 197.046 379.882 196.932 379.698 196.859C379.515 196.786 379.299 196.749 379.049 196.749C378.668 196.749 378.375 196.826 378.169 196.98C377.964 197.134 377.861 197.336 377.861 197.585C377.861 197.768 377.913 197.919 378.015 198.036C378.118 198.153 378.276 198.245 378.488 198.311C378.701 198.37 378.969 198.421 379.291 198.465C379.599 198.509 379.885 198.564 380.149 198.63C380.413 198.696 380.648 198.791 380.853 198.916C381.059 199.033 381.22 199.198 381.337 199.411C381.455 199.624 381.513 199.895 381.513 200.225C381.513 200.819 381.293 201.263 380.853 201.556C380.413 201.842 379.812 201.985 379.049 201.985ZM384.968 201.985C384.169 201.985 383.553 201.809 383.12 201.457C382.695 201.098 382.482 200.628 382.482 200.049L383.604 200.049C383.604 200.445 383.736 200.735 384 200.918C384.264 201.094 384.598 201.182 385.001 201.182C385.419 201.182 385.735 201.109 385.947 200.962C386.167 200.808 386.277 200.595 386.277 200.324C386.277 200.104 386.23 199.935 386.134 199.818C386.039 199.701 385.889 199.613 385.683 199.554C385.478 199.488 385.21 199.429 384.88 199.378C384.55 199.334 384.25 199.279 383.978 199.213C383.707 199.14 383.469 199.041 383.263 198.916C383.065 198.791 382.911 198.63 382.801 198.432C382.699 198.234 382.647 197.988 382.647 197.695C382.647 197.321 382.743 197.006 382.933 196.749C383.131 196.492 383.406 196.294 383.758 196.155C384.11 196.016 384.521 195.946 384.99 195.946C385.474 195.946 385.885 196.019 386.222 196.166C386.567 196.313 386.831 196.522 387.014 196.793C387.205 197.064 387.304 197.391 387.311 197.772L386.2 197.772C386.2 197.537 386.149 197.347 386.046 197.2C385.944 197.046 385.801 196.932 385.617 196.859C385.434 196.786 385.218 196.749 384.968 196.749C384.587 196.749 384.294 196.826 384.088 196.98C383.883 197.134 383.78 197.336 383.78 197.585C383.78 197.768 383.832 197.919 383.934 198.036C384.037 198.153 384.195 198.245 384.407 198.311C384.62 198.37 384.888 198.421 385.21 198.465C385.518 198.509 385.804 198.564 386.068 198.63C386.332 198.696 386.567 198.791 386.772 198.916C386.978 199.033 387.139 199.198 387.256 199.411C387.374 199.624 387.432 199.895 387.432 200.225C387.432 200.819 387.212 201.263 386.772 201.556C386.332 201.842 385.731 201.985 384.968 201.985Z" fill="black"/>
</g>
<circle cx="229.001" cy="130" r="26.0928" fill="black"/>
<path d="M228.092 127.054C228.593 126.552 229.406 126.552 229.908 127.054L231.969 129.114C232.47 129.616 232.47 130.429 231.969 130.93L229.908 132.991C229.406 133.492 228.593 133.492 228.092 132.991L226.031 130.93C225.53 130.429 225.53 129.616 226.031 129.114L228.092 127.054Z" fill="#A950FF"/>
<path d="M237.584 127.037C238.077 126.545 238.875 126.545 239.367 127.037L241.461 129.131C241.953 129.623 241.953 130.421 241.461 130.914L239.367 133.007C238.875 133.499 238.077 133.499 237.584 133.007L235.491 130.914C234.998 130.421 234.998 129.623 235.491 129.131L237.584 127.037Z" fill="#A950FF"/>
<path d="M228.108 117.561C228.601 117.069 229.399 117.069 229.891 117.561L231.985 119.655C232.477 120.147 232.477 120.946 231.985 121.438L229.891 123.531C229.399 124.024 228.601 124.024 228.108 123.531L226.015 121.438C225.523 120.946 225.523 120.147 226.015 119.655L228.108 117.561Z" fill="#E9C1FF"/>
<path d="M227.231 124.377C227.732 124.878 227.732 125.691 227.231 126.192L225.17 128.253C224.669 128.754 223.856 128.754 223.355 128.253L221.294 126.192C220.792 125.691 220.792 124.878 221.294 124.377L223.355 122.316C223.856 121.814 224.669 121.814 225.17 122.316L227.231 124.377Z" fill="#CD88FF"/>
<path d="M222.509 129.131C223.002 129.623 223.002 130.421 222.509 130.914L220.416 133.007C219.923 133.499 219.125 133.499 218.633 133.007L216.539 130.914C216.047 130.421 216.047 129.623 216.539 129.131L218.633 127.037C219.125 126.545 219.923 126.545 220.416 127.037L222.509 129.131Z" fill="#A950FF"/>
<path d="M236.707 124.377C237.208 124.878 237.208 125.691 236.707 126.192L234.646 128.253C234.144 128.754 233.331 128.754 232.83 128.253L230.769 126.192C230.268 125.691 230.268 124.878 230.769 124.377L232.83 122.316C233.331 121.814 234.144 121.814 234.646 122.316L236.707 124.377Z" fill="#CD88FF"/>
<path d="M231.028 137.912C232.148 139.032 232.148 140.848 231.028 141.968C229.908 143.088 228.092 143.088 226.972 141.968C225.852 140.848 225.852 139.032 226.972 137.912C228.092 136.792 229.908 136.792 231.028 137.912Z" fill="#F62E76"/>
<defs>
<filter id="filter0_d_21626_26885" x="38" y="51" width="112" height="67" filterUnits="userSpaceOnUse" color-interpolation-filters="sRGB">
<feFlood flood-opacity="0" result="BackgroundImageFix"/>
<feColorMatrix in="SourceAlpha" type="matrix" values="0 0 0 0 0 0 0 0 0 0 0 0 0 0 0 0 0 0 127 0" result="hardAlpha"/>
<feOffset dy="3"/>
<feComposite in2="hardAlpha" operator="out"/>
<feColorMatrix type="matrix" values="0 0 0 0 0.517647 0 0 0 0 0.0196078 0 0 0 0 1 0 0 0 1 0"/>
<feBlend mode="normal" in2="BackgroundImageFix" result="effect1_dropShadow_21626_26885"/>
<feBlend mode="normal" in="SourceGraphic" in2="effect1_dropShadow_21626_26885" result="shape"/>
</filter>
<filter id="filter1_d_21626_26885" x="173" y="28.75" width="112" height="67" filterUnits="userSpaceOnUse" color-interpolation-filters="sRGB">
<feFlood flood-opacity="0" result="BackgroundImageFix"/>
<feColorMatrix in="SourceAlpha" type="matrix" values="0 0 0 0 0 0 0 0 0 0 0 0 0 0 0 0 0 0 127 0" result="hardAlpha"/>
<feOffset dy="3"/>
<feComposite in2="hardAlpha" operator="out"/>
<feColorMatrix type="matrix" values="0 0 0 0 0.517647 0 0 0 0 0.0196078 0 0 0 0 1 0 0 0 1 0"/>
<feBlend mode="normal" in2="BackgroundImageFix" result="effect1_dropShadow_21626_26885"/>
<feBlend mode="normal" in="SourceGraphic" in2="effect1_dropShadow_21626_26885" result="shape"/>
</filter>
<filter id="filter2_d_21626_26885" x="308" y="51" width="112" height="67" filterUnits="userSpaceOnUse" color-interpolation-filters="sRGB">
<feFlood flood-opacity="0" result="BackgroundImageFix"/>
<feColorMatrix in="SourceAlpha" type="matrix" values="0 0 0 0 0 0 0 0 0 0 0 0 0 0 0 0 0 0 127 0" result="hardAlpha"/>
<feOffset dy="3"/>
<feComposite in2="hardAlpha" operator="out"/>
<feColorMatrix type="matrix" values="0 0 0 0 0.517647 0 0 0 0 0.0196078 0 0 0 0 1 0 0 0 1 0"/>
<feBlend mode="normal" in2="BackgroundImageFix" result="effect1_dropShadow_21626_26885"/>
<feBlend mode="normal" in="SourceGraphic" in2="effect1_dropShadow_21626_26885" result="shape"/>
</filter>
<filter id="filter3_d_21626_26885" x="38" y="146.875" width="112" height="67" filterUnits="userSpaceOnUse" color-interpolation-filters="sRGB">
<feFlood flood-opacity="0" result="BackgroundImageFix"/>
<feColorMatrix in="SourceAlpha" type="matrix" values="0 0 0 0 0 0 0 0 0 0 0 0 0 0 0 0 0 0 127 0" result="hardAlpha"/>
<feOffset dy="3"/>
<feComposite in2="hardAlpha" operator="out"/>
<feColorMatrix type="matrix" values="0 0 0 0 0.517647 0 0 0 0 0.0196078 0 0 0 0 1 0 0 0 1 0"/>
<feBlend mode="normal" in2="BackgroundImageFix" result="effect1_dropShadow_21626_26885"/>
<feBlend mode="normal" in="SourceGraphic" in2="effect1_dropShadow_21626_26885" result="shape"/>
</filter>
<filter id="filter4_d_21626_26885" x="173" y="168" width="112" height="67" filterUnits="userSpaceOnUse" color-interpolation-filters="sRGB">
<feFlood flood-opacity="0" result="BackgroundImageFix"/>
<feColorMatrix in="SourceAlpha" type="matrix" values="0 0 0 0 0 0 0 0 0 0 0 0 0 0 0 0 0 0 127 0" result="hardAlpha"/>
<feOffset dy="3"/>
<feComposite in2="hardAlpha" operator="out"/>
<feColorMatrix type="matrix" values="0 0 0 0 0.517647 0 0 0 0 0.0196078 0 0 0 0 1 0 0 0 1 0"/>
<feBlend mode="normal" in2="BackgroundImageFix" result="effect1_dropShadow_21626_26885"/>
<feBlend mode="normal" in="SourceGraphic" in2="effect1_dropShadow_21626_26885" result="shape"/>
</filter>
<filter id="filter5_d_21626_26885" x="308" y="146.875" width="112" height="67" filterUnits="userSpaceOnUse" color-interpolation-filters="sRGB">
<feFlood flood-opacity="0" result="BackgroundImageFix"/>
<feColorMatrix in="SourceAlpha" type="matrix" values="0 0 0 0 0 0 0 0 0 0 0 0 0 0 0 0 0 0 127 0" result="hardAlpha"/>
<feOffset dy="3"/>
<feComposite in2="hardAlpha" operator="out"/>
<feColorMatrix type="matrix" values="0 0 0 0 0.517647 0 0 0 0 0.0196078 0 0 0 0 1 0 0 0 1 0"/>
<feBlend mode="normal" in2="BackgroundImageFix" result="effect1_dropShadow_21626_26885"/>
<feBlend mode="normal" in="SourceGraphic" in2="effect1_dropShadow_21626_26885" result="shape"/>
</filter>
</defs>
</svg>
