<svg width="37" height="37" viewBox="10 7 37 37" fill="none" xmlns="http://www.w3.org/2000/svg">
<path d="M10 11.1328C10 8.85032 11.8503 7 14.1328 7H42.836C45.1185 7 46.9688 8.85032 46.9688 11.1328V39.836C46.9688 42.1185 45.1185 43.9688 42.836 43.9688H14.1328C11.8503 43.9688 10 42.1185 10 39.836V11.1328Z" fill="#2C0059"/>
<path d="M27.5764 22.5157C28.0778 22.0143 28.8907 22.0143 29.392 22.5157L31.4529 24.5766C31.9543 25.078 31.9543 25.8908 31.4529 26.3922L29.392 28.4531C28.8907 28.9545 28.0778 28.9545 27.5764 28.4531L25.5155 26.3922C25.0142 25.8908 25.0142 25.078 25.5155 24.5766L27.5764 22.5157Z" fill="#A950FF"/>
<path d="M37.0686 22.4993C37.561 22.0069 38.3594 22.0069 38.8517 22.4993L40.9451 24.5927C41.4375 25.0851 41.4375 25.8834 40.9451 26.3758L38.8517 28.4692C38.3594 28.9616 37.561 28.9616 37.0686 28.4692L34.9752 26.3758C34.4828 25.8834 34.4828 25.0851 34.9752 24.5927L37.0686 22.4993Z" fill="#A950FF"/>
<path d="M27.5927 13.0236C28.0851 12.5312 28.8834 12.5312 29.3758 13.0236L31.4692 15.117C31.9616 15.6094 31.9616 16.4077 31.4692 16.9001L29.3758 18.9935C28.8834 19.4859 28.0851 19.4859 27.5927 18.9935L25.4993 16.9001C25.0069 16.4077 25.0069 15.6094 25.4993 15.117L27.5927 13.0236Z" fill="#E9C1FF"/>
<path d="M26.7154 19.8387C27.2168 20.3401 27.2168 21.153 26.7154 21.6543L24.6545 23.7152C24.1531 24.2166 23.3403 24.2166 22.8389 23.7152L20.778 21.6543C20.2766 21.153 20.2766 20.3401 20.778 19.8387L22.8389 17.7778C23.3403 17.2765 24.1532 17.2764 24.6545 17.7778L26.7154 19.8387Z" fill="#CD88FF"/>
<path d="M21.9935 24.5927C22.4859 25.0851 22.4859 25.8834 21.9935 26.3758L19.9001 28.4692C19.4077 28.9616 18.6094 28.9616 18.117 28.4692L16.0236 26.3758C15.5312 25.8834 15.5312 25.0851 16.0236 24.5927L18.117 22.4993C18.6094 22.0069 19.4077 22.0069 19.9001 22.4993L21.9935 24.5927Z" fill="#A950FF"/>
<path d="M36.191 19.8387C36.6924 20.3401 36.6924 21.153 36.191 21.6543L34.1301 23.7152C33.6287 24.2166 32.8159 24.2166 32.3145 23.7152L30.2536 21.6543C29.7522 21.153 29.7522 20.3401 30.2536 19.8387L32.3145 17.7778C32.8159 17.2765 33.6287 17.2764 34.1301 17.7778L36.191 19.8387Z" fill="#CD88FF"/>
<path d="M30.5125 33.3738C31.6326 34.4938 31.6326 36.3099 30.5125 37.43C29.3924 38.5501 27.5764 38.5501 26.4563 37.43C25.3362 36.3099 25.3362 34.4938 26.4563 33.3738C27.5764 32.2537 29.3924 32.2537 30.5125 33.3738Z" fill="#F62E76"/>
</svg>
