<svg width="31" height="31" viewBox="0 0 31 31" fill="none" xmlns="http://www.w3.org/2000/svg">
<path d="M14.2754 12.6025C14.6827 12.1953 15.3429 12.1953 15.7502 12.6025L17.4241 14.2765C17.8313 14.6837 17.8313 15.344 17.4241 15.7512L15.7502 17.4251C15.3429 17.8324 14.6827 17.8324 14.2754 17.4251L12.6015 15.7512C12.1943 15.344 12.1943 14.6837 12.6015 14.2765L14.2754 12.6025Z" fill="#A950FF"/>
<path d="M21.9854 12.5892C22.3854 12.1892 23.0338 12.1892 23.4337 12.5892L25.1341 14.2895C25.534 14.6895 25.534 15.3379 25.1341 15.7378L23.4337 17.4382C23.0338 17.8381 22.3854 17.8381 21.9854 17.4382L20.2851 15.7378C19.8851 15.3379 19.8851 14.6895 20.2851 14.2895L21.9854 12.5892Z" fill="#A950FF"/>
<path d="M14.2886 4.89264C14.6886 4.4927 15.337 4.4927 15.737 4.89264L17.4373 6.59298C17.8372 6.99292 17.8372 7.64136 17.4373 8.0413L15.737 9.74164C15.337 10.1416 14.6886 10.1416 14.2886 9.74164L12.5883 8.0413C12.1884 7.64136 12.1884 6.99292 12.5883 6.59298L14.2886 4.89264Z" fill="#E9C1FF"/>
<path d="M13.5761 10.4282C13.9833 10.8354 13.9833 11.4957 13.5761 11.9029L11.9021 13.5768C11.4949 13.9841 10.8347 13.9841 10.4274 13.5768L8.75349 11.9029C8.34626 11.4957 8.34626 10.8354 8.75349 10.4282L10.4274 8.75422C10.8347 8.34699 11.4949 8.34699 11.9022 8.75422L13.5761 10.4282Z" fill="#CD88FF"/>
<path d="M9.74076 14.2895C10.1407 14.6895 10.1407 15.3379 9.74076 15.7378L8.04042 17.4382C7.64047 17.8381 6.99204 17.8381 6.59209 17.4382L4.89175 15.7378C4.49181 15.3379 4.49181 14.6895 4.89175 14.2895L6.59209 12.5892C6.99204 12.1892 7.64047 12.1892 8.04042 12.5892L9.74076 14.2895Z" fill="#A950FF"/>
<path d="M21.2726 10.4282C21.6798 10.8354 21.6798 11.4957 21.2726 11.9029L19.5986 13.5768C19.1914 13.9841 18.5311 13.9841 18.1239 13.5768L16.45 11.9029C16.0427 11.4957 16.0427 10.8354 16.45 10.4282L18.1239 8.75422C18.5311 8.34699 19.1914 8.34699 19.5986 8.75422L21.2726 10.4282Z" fill="#CD88FF"/>
<path d="M16.6602 21.4219C17.57 22.3317 17.57 23.8067 16.6602 24.7165C15.7504 25.6263 14.2754 25.6263 13.3656 24.7165C12.4558 23.8067 12.4558 22.3317 13.3656 21.4219C14.2754 20.5121 15.7504 20.5121 16.6602 21.4219Z" fill="#F62E76"/>
</svg>
