<svg width="177" height="50" viewBox="0 0 177 50" fill="currentColor" xmlns="http://www.w3.org/2000/svg">
<path d="M59.528 11.2241H53.3438V39.3702H59.528V33.7643L61.8408 31.3537L67.0185 39.3702H74.0543L66.039 26.9964L73.7538 18.9625H66.1175L59.528 26.019V11.2241Z" fill="currentColor"/>
<path d="M123.579 12.7137H117.467V18.9625H113.925V24.0023H117.467V34.7431C117.467 36.245 117.849 37.4137 118.653 38.2048C119.457 38.9953 120.643 39.3702 122.167 39.3702H127.521V34.4394H123.579V24.0023H127.521V18.9625H123.579V12.7137Z" fill="currentColor"/>
<path fill-rule="evenodd" clip-rule="evenodd" d="M83.4931 18.5992C80.4747 18.5992 78.0318 19.5314 76.1891 21.4115L76.1874 21.4132C74.3679 23.3075 73.4709 25.9017 73.4709 29.1664C73.4709 32.3947 74.3558 34.9757 76.1495 36.8815C77.9462 38.7904 80.4286 39.7335 83.5657 39.7335C86.1216 39.7335 88.2777 39.1309 90.0198 37.9115L90.0211 37.9106L90.0224 37.9096C91.7635 36.6535 92.8506 34.9933 93.2743 32.9369L93.3315 32.6592H87.2675L87.2153 32.8183C87.0045 33.462 86.5777 33.9828 85.9175 34.3814C85.2702 34.7674 84.4776 34.9662 83.5294 34.9662C82.3757 34.9662 81.4662 34.647 80.7784 34.0272C80.0923 33.3969 79.7459 32.5771 79.7459 31.546V30.7053H92.9628L92.9868 30.5013C93.0847 29.6693 93.1338 28.8549 93.1338 28.0583C93.1338 25.1396 92.2516 22.8273 90.4648 21.152C88.718 19.4436 86.3855 18.5992 83.4931 18.5992ZM80.7377 24.2367C81.4007 23.6636 82.2872 23.3665 83.4204 23.3665C84.5165 23.3665 85.3792 23.6571 86.0306 24.2188L86.0323 24.2201L86.0339 24.2215C86.693 24.7689 87.0222 25.4836 87.0222 26.3871V26.5193H79.7459V26.4597C79.7459 25.5299 80.0768 24.7969 80.736 24.2382L80.7377 24.2367Z" fill="currentColor"/>
<path fill-rule="evenodd" clip-rule="evenodd" d="M103.802 18.5992C101.214 18.5992 99.1366 19.1756 97.5943 20.3542L97.5936 20.3548C96.0545 21.5407 95.2874 23.1853 95.2874 25.2608C95.2874 26.8814 95.7948 28.2095 96.8232 29.222C97.8459 30.2288 99.3625 30.9027 101.344 31.2647L101.346 31.2651L104.894 31.8472L104.897 31.8476C105.492 31.9293 105.936 32.09 106.246 32.3144L106.247 32.3155L106.249 32.3166C106.532 32.5151 106.727 32.8871 106.786 33.5003C106.783 34.0505 106.565 34.4658 106.123 34.7709L106.121 34.7724C105.679 35.0849 105.019 35.2568 104.111 35.2568C103.113 35.2568 102.364 35.0396 101.837 34.6335C101.333 34.2363 101.072 33.6668 101.072 32.8902V32.6592H94.9786V32.8902C94.9786 34.9713 95.7984 36.6445 97.4312 37.8879L97.4318 37.8884C99.0712 39.1273 101.294 39.7335 104.074 39.7335C106.794 39.7335 108.968 39.1457 110.571 37.9435C112.195 36.7345 113.007 35.0532 113.007 32.9266C113.007 31.2517 112.527 29.8976 111.547 28.8915C110.57 27.8898 109.123 27.2594 107.235 26.9762L107.233 26.976L103.8 26.4129L103.797 26.4125C103.371 26.3533 103.08 26.3117 102.921 26.2875C102.796 26.2551 102.631 26.195 102.424 26.1032C102.231 26.0173 102.039 25.8919 101.848 25.7236C101.576 25.4818 101.435 25.1602 101.435 24.734C101.435 24.1945 101.63 23.801 102.013 23.522C102.407 23.2344 102.981 23.0759 103.766 23.0759C104.666 23.0759 105.305 23.2607 105.719 23.5928C106.125 23.9182 106.351 24.4137 106.368 25.121L106.374 25.3466H112.451L112.443 25.1082C112.381 23.1156 111.574 21.5237 110.027 20.3539C108.485 19.1754 106.401 18.5992 103.802 18.5992ZM110.432 37.7585L110.571 37.9435L110.57 37.9439L110.432 37.7585ZM101.695 34.8158L101.836 34.6327L101.837 34.6335L101.838 34.6342L101.695 34.8158ZM107.017 33.4897L106.787 33.511L106.786 33.5003L106.786 33.4897H107.017Z" fill="currentColor"/>
<path fill-rule="evenodd" clip-rule="evenodd" d="M152.703 18.5992C150.005 18.5992 147.82 19.2062 146.17 20.4436C144.524 21.6755 143.624 23.4362 143.462 25.6985L143.445 25.946H149.484L149.5 25.7321C149.557 24.9714 149.831 24.4114 150.306 24.0228L150.306 24.0224C150.796 23.6195 151.5 23.4029 152.449 23.4029C153.402 23.4029 154.075 23.6313 154.509 24.0472C154.942 24.4613 155.178 25.0993 155.178 26.0056V26.9371H150.142C147.863 26.9371 146.03 27.5041 144.669 28.6635C143.315 29.8155 142.644 31.3975 142.644 33.3807C142.644 35.2971 143.237 36.8505 144.44 38.0154L144.442 38.0171C145.657 39.1682 147.274 39.7335 149.27 39.7335C150.791 39.7335 152.138 39.424 153.303 38.7977L153.304 38.7967C154.365 38.2153 155.117 37.449 155.544 36.4951L155.599 36.8328L155.6 36.8359C155.752 37.7017 156.116 38.3633 156.711 38.783L156.713 38.7841L156.714 38.7851C157.305 39.1878 158.198 39.3702 159.351 39.3702H163.76V34.9662H161.308V26.1146C161.308 24.0359 160.615 22.259 159.229 20.7978C157.859 19.3143 155.664 18.5992 152.703 18.5992ZM148.847 32.5088C148.847 31.9256 149.042 31.5204 149.41 31.2512C149.792 30.9721 150.393 30.8143 151.25 30.8143H155.178V31.2917C155.178 32.4518 154.827 33.3501 154.141 34.0133C153.456 34.6648 152.513 35.0025 151.286 35.0025C150.418 35.0025 149.808 34.8403 149.421 34.5529C149.046 34.2752 148.847 33.8562 148.847 33.2535V32.5088Z" fill="currentColor"/>
<path d="M135.537 18.9625C133.439 18.9625 131.979 19.5138 131.286 20.7129C130.986 21.2255 130.776 21.7313 130.661 22.2297L130.661 22.2319L130.66 22.2341C130.559 22.7151 130.51 23.3014 130.51 23.9892V39.3702H136.621V24.0023H142.543V18.9625H135.537Z" fill="currentColor"/>
<path d="M167.81 39.3871C167.152 39.3871 166.606 39.1781 166.173 38.7601C165.757 38.324 165.549 37.7879 165.549 37.1519C165.549 36.5159 165.757 35.9889 166.173 35.5709C166.606 35.1348 167.152 34.9167 167.81 34.9167C168.451 34.9167 168.98 35.1348 169.395 35.5709C169.811 35.9889 170.019 36.5159 170.019 37.1519C170.019 37.7879 169.811 38.324 169.395 38.7601C168.98 39.1781 168.451 39.3871 167.81 39.3871Z" fill="#F62E77"/>
<path d="M10 11.1328C10 8.85032 11.8503 7 14.1328 7H42.836C45.1185 7 46.9688 8.85032 46.9688 11.1328V39.836C46.9688 42.1185 45.1185 43.9688 42.836 43.9688H14.1328C11.8503 43.9688 10 42.1185 10 39.836V11.1328Z" fill="#2C0059"/>
<path d="M27.5764 22.5157C28.0778 22.0143 28.8907 22.0143 29.392 22.5157L31.4529 24.5766C31.9543 25.078 31.9543 25.8908 31.4529 26.3922L29.392 28.4531C28.8907 28.9545 28.0778 28.9545 27.5764 28.4531L25.5155 26.3922C25.0142 25.8908 25.0142 25.078 25.5155 24.5766L27.5764 22.5157Z" fill="#A950FF"/>
<path d="M37.0686 22.4993C37.561 22.0069 38.3594 22.0069 38.8517 22.4993L40.9451 24.5927C41.4375 25.0851 41.4375 25.8834 40.9451 26.3758L38.8517 28.4692C38.3594 28.9616 37.561 28.9616 37.0686 28.4692L34.9752 26.3758C34.4828 25.8834 34.4828 25.0851 34.9752 24.5927L37.0686 22.4993Z" fill="#A950FF"/>
<path d="M27.5927 13.0236C28.0851 12.5312 28.8834 12.5312 29.3758 13.0236L31.4692 15.117C31.9616 15.6094 31.9616 16.4077 31.4692 16.9001L29.3758 18.9935C28.8834 19.4859 28.0851 19.4859 27.5927 18.9935L25.4993 16.9001C25.0069 16.4077 25.0069 15.6094 25.4993 15.117L27.5927 13.0236Z" fill="#E9C1FF"/>
<path d="M26.7154 19.8387C27.2168 20.3401 27.2168 21.153 26.7154 21.6543L24.6545 23.7152C24.1531 24.2166 23.3403 24.2166 22.8389 23.7152L20.778 21.6543C20.2766 21.153 20.2766 20.3401 20.778 19.8387L22.8389 17.7778C23.3403 17.2765 24.1532 17.2764 24.6545 17.7778L26.7154 19.8387Z" fill="#CD88FF"/>
<path d="M21.9935 24.5927C22.4859 25.0851 22.4859 25.8834 21.9935 26.3758L19.9001 28.4692C19.4077 28.9616 18.6094 28.9616 18.117 28.4692L16.0236 26.3758C15.5312 25.8834 15.5312 25.0851 16.0236 24.5927L18.117 22.4993C18.6094 22.0069 19.4077 22.0069 19.9001 22.4993L21.9935 24.5927Z" fill="#A950FF"/>
<path d="M36.191 19.8387C36.6924 20.3401 36.6924 21.153 36.191 21.6543L34.1301 23.7152C33.6287 24.2166 32.8159 24.2166 32.3145 23.7152L30.2536 21.6543C29.7522 21.153 29.7522 20.3401 30.2536 19.8387L32.3145 17.7778C32.8159 17.2765 33.6287 17.2764 34.1301 17.7778L36.191 19.8387Z" fill="#CD88FF"/>
<path d="M30.5125 33.3738C31.6326 34.4938 31.6326 36.3099 30.5125 37.43C29.3924 38.5501 27.5764 38.5501 26.4563 37.43C25.3362 36.3099 25.3362 34.4938 26.4563 33.3738C27.5764 32.2537 29.3924 32.2537 30.5125 33.3738Z" fill="#F62E76"/>
</svg>
