<svg width="458" height="260" viewBox="0 0 458 260" fill="none" xmlns="http://www.w3.org/2000/svg">
<rect width="458" height="260" rx="6" fill="#EDE0FF"/>
<g filter="url(#filter0_d_make)">
<rect x="25" y="98" width="84" height="64" rx="10" fill="white" shape-rendering="crispEdges"/>
<rect x="25.5" y="98.5" width="83" height="63" rx="9.5" stroke="#7B2FBE" shape-rendering="crispEdges"/>
<!-- Trigger: clock -->
<circle cx="67" cy="121" r="9" fill="none" stroke="currentColor" stroke-width="1.5"/>
<path d="M67 121V113" stroke="currentColor" stroke-width="1.5" stroke-linecap="round"/>
<path d="M67 121L73 121" stroke="currentColor" stroke-width="1.5" stroke-linecap="round"/>
<circle cx="67" cy="121" r="1.5" fill="currentColor"/>
<text x="67" y="152" text-anchor="middle" font-family="-apple-system,BlinkMacSystemFont,sans-serif" font-size="9.5" font-weight="700" fill="currentColor">Trigger</text>
</g>
<g filter="url(#filter1_d_make)">
<rect x="132.334" y="98" width="84" height="64" rx="10" fill="white" shape-rendering="crispEdges"/>
<rect x="132.834" y="98.5" width="83" height="63" rx="9.5" stroke="#7B2FBE" shape-rendering="crispEdges"/>
<!-- Route: fork / branch -->
<path d="M174.334 112V119" stroke="currentColor" stroke-width="1.5" stroke-linecap="round"/>
<circle cx="174.334" cy="121" r="2" fill="currentColor"/>
<path d="M173 122Q167.334 123 167.334 129" stroke="currentColor" stroke-width="1.5" stroke-linecap="round" fill="none"/>
<path d="M175.5 122Q181.334 123 181.334 129" stroke="currentColor" stroke-width="1.5" stroke-linecap="round" fill="none"/>
<path d="M164.334 127L167.334 130L170.334 127" fill="none" stroke="currentColor" stroke-width="1.5" stroke-linecap="round" stroke-linejoin="round"/>
<path d="M178.334 127L181.334 130L184.334 127" fill="none" stroke="currentColor" stroke-width="1.5" stroke-linecap="round" stroke-linejoin="round"/>
<text x="174.334" y="152" text-anchor="middle" font-family="-apple-system,BlinkMacSystemFont,sans-serif" font-size="9.5" font-weight="700" fill="currentColor">Route</text>
</g>
<g filter="url(#filter2_d_make)">
<rect x="239.666" y="98" width="85" height="64" rx="10" fill="white" shape-rendering="crispEdges"/>
<rect x="240.166" y="98.5" width="84" height="63" rx="9.5" stroke="#7B2FBE" shape-rendering="crispEdges"/>
<!-- Module: box/cube -->
<rect x="275.166" y="117" width="14" height="11" fill="none" stroke="currentColor" stroke-width="1.5"/>
<path d="M275.166 117L282.166 113L289.166 117" fill="none" stroke="currentColor" stroke-width="1.5" stroke-linejoin="round"/>
<path d="M289.166 117V128" stroke="currentColor" stroke-width="1.5"/>
<path d="M282.166 113V124" stroke="currentColor" stroke-width="1.5" stroke-dasharray="2 2"/>
<text x="282.166" y="152" text-anchor="middle" font-family="-apple-system,BlinkMacSystemFont,sans-serif" font-size="9.5" font-weight="700" fill="currentColor">Module</text>
</g>
<g filter="url(#filter3_d_make)">
<rect x="348" y="98" width="85" height="64" rx="10" fill="white" shape-rendering="crispEdges"/>
<rect x="348.5" y="98.5" width="84" height="63" rx="9.5" stroke="#7B2FBE" shape-rendering="crispEdges"/>
<!-- Action: play triangle -->
<path d="M385.5 113L385.5 129L399.5 121Z" fill="currentColor"/>
<text x="390.5" y="152" text-anchor="middle" font-family="-apple-system,BlinkMacSystemFont,sans-serif" font-size="9.5" font-weight="700" fill="currentColor">Action</text>
</g>
<path d="M129.209 130L119.209 124.226V135.774L129.209 130ZM111.041 130V131H120.209V130V129H111.041V130Z" fill="currentColor"/>
<path d="M237.084 130L227.084 124.226V135.774L237.084 130ZM218.916 130V131H228.084V130V129H218.916V130Z" fill="currentColor"/>
<path d="M345.416 130L335.416 124.226V135.774L345.416 130ZM327.248 130V131H336.416V130V129H327.248V130Z" fill="currentColor"/>
<defs>
<filter id="filter0_d_make" x="25" y="98" width="84" height="67" filterUnits="userSpaceOnUse" color-interpolation-filters="sRGB">
<feFlood flood-opacity="0" result="BackgroundImageFix"/>
<feColorMatrix in="SourceAlpha" type="matrix" values="0 0 0 0 0 0 0 0 0 0 0 0 0 0 0 0 0 0 127 0" result="hardAlpha"/>
<feOffset dy="3"/>
<feComposite in2="hardAlpha" operator="out"/>
<feColorMatrix type="matrix" values="0 0 0 0 0.482 0 0 0 0 0.184 0 0 0 0 0.745 0 0 0 1 0"/>
<feBlend mode="normal" in2="BackgroundImageFix" result="effect1_dropShadow_make"/>
<feBlend mode="normal" in="SourceGraphic" in2="effect1_dropShadow_make" result="shape"/>
</filter>
<filter id="filter1_d_make" x="132.334" y="98" width="84" height="67" filterUnits="userSpaceOnUse" color-interpolation-filters="sRGB">
<feFlood flood-opacity="0" result="BackgroundImageFix"/>
<feColorMatrix in="SourceAlpha" type="matrix" values="0 0 0 0 0 0 0 0 0 0 0 0 0 0 0 0 0 0 127 0" result="hardAlpha"/>
<feOffset dy="3"/>
<feComposite in2="hardAlpha" operator="out"/>
<feColorMatrix type="matrix" values="0 0 0 0 0.482 0 0 0 0 0.184 0 0 0 0 0.745 0 0 0 1 0"/>
<feBlend mode="normal" in2="BackgroundImageFix" result="effect1_dropShadow_make"/>
<feBlend mode="normal" in="SourceGraphic" in2="effect1_dropShadow_make" result="shape"/>
</filter>
<filter id="filter2_d_make" x="239.666" y="98" width="85" height="67" filterUnits="userSpaceOnUse" color-interpolation-filters="sRGB">
<feFlood flood-opacity="0" result="BackgroundImageFix"/>
<feColorMatrix in="SourceAlpha" type="matrix" values="0 0 0 0 0 0 0 0 0 0 0 0 0 0 0 0 0 0 127 0" result="hardAlpha"/>
<feOffset dy="3"/>
<feComposite in2="hardAlpha" operator="out"/>
<feColorMatrix type="matrix" values="0 0 0 0 0.482 0 0 0 0 0.184 0 0 0 0 0.745 0 0 0 1 0"/>
<feBlend mode="normal" in2="BackgroundImageFix" result="effect1_dropShadow_make"/>
<feBlend mode="normal" in="SourceGraphic" in2="effect1_dropShadow_make" result="shape"/>
</filter>
<filter id="filter3_d_make" x="348" y="98" width="85" height="67" filterUnits="userSpaceOnUse" color-interpolation-filters="sRGB">
<feFlood flood-opacity="0" result="BackgroundImageFix"/>
<feColorMatrix in="SourceAlpha" type="matrix" values="0 0 0 0 0 0 0 0 0 0 0 0 0 0 0 0 0 0 127 0" result="hardAlpha"/>
<feOffset dy="3"/>
<feComposite in2="hardAlpha" operator="out"/>
<feColorMatrix type="matrix" values="0 0 0 0 0.482 0 0 0 0 0.184 0 0 0 0 0.745 0 0 0 1 0"/>
<feBlend mode="normal" in2="BackgroundImageFix" result="effect1_dropShadow_make"/>
<feBlend mode="normal" in="SourceGraphic" in2="effect1_dropShadow_make" result="shape"/>
</filter>
</defs>
</svg>
