<svg width="458" height="260" viewBox="0 0 458 260" fill="none" xmlns="http://www.w3.org/2000/svg">
<rect width="458" height="260" rx="6" fill="#CCE4F6"/>
<g filter="url(#filter0_d_fabric)">
<rect x="25" y="98" width="84" height="64" rx="10" fill="white" shape-rendering="crispEdges"/>
<rect x="25.5" y="98.5" width="83" height="63" rx="9.5" stroke="#0078D4" shape-rendering="crispEdges"/>
<!-- Ingest: database stack (three ellipses with side walls) -->
<ellipse cx="67" cy="114" rx="9" ry="3" fill="none" stroke="currentColor" stroke-width="1.5"/>
<path d="M58 114V127" stroke="currentColor" stroke-width="1.5"/>
<path d="M76 114V127" stroke="currentColor" stroke-width="1.5"/>
<ellipse cx="67" cy="120.5" rx="9" ry="3" fill="none" stroke="currentColor" stroke-width="1.5"/>
<ellipse cx="67" cy="127" rx="9" ry="3" fill="none" stroke="currentColor" stroke-width="1.5"/>
<text x="67" y="152" text-anchor="middle" font-family="-apple-system,BlinkMacSystemFont,sans-serif" font-size="9.5" font-weight="700" fill="currentColor">Ingest</text>
</g>
<g filter="url(#filter1_d_fabric)">
<rect x="132.334" y="98" width="84" height="64" rx="10" fill="white" shape-rendering="crispEdges"/>
<rect x="132.834" y="98.5" width="83" height="63" rx="9.5" stroke="#0078D4" shape-rendering="crispEdges"/>
<!-- Transform: gear (circle + cross teeth) -->
<circle cx="174.334" cy="121" r="6" fill="none" stroke="currentColor" stroke-width="1.5"/>
<circle cx="174.334" cy="121" r="2.5" fill="none" stroke="currentColor" stroke-width="1.5"/>
<path d="M174.334 115V112M180.334 121H183.334M174.334 127V130M168.334 121H165.334" stroke="currentColor" stroke-width="2.5" stroke-linecap="round"/>
<text x="174.334" y="152" text-anchor="middle" font-family="-apple-system,BlinkMacSystemFont,sans-serif" font-size="9.5" font-weight="700" fill="currentColor">Transform</text>
</g>
<g filter="url(#filter2_d_fabric)">
<rect x="239.666" y="98" width="85" height="64" rx="10" fill="white" shape-rendering="crispEdges"/>
<rect x="240.166" y="98.5" width="84" height="63" rx="9.5" stroke="#0078D4" shape-rendering="crispEdges"/>
<!-- Serve: server rack (three horizontal rounded bars) -->
<rect x="273.166" y="113" width="18" height="5" rx="1.5" fill="none" stroke="currentColor" stroke-width="1.5"/>
<rect x="273.166" y="120" width="18" height="5" rx="1.5" fill="none" stroke="currentColor" stroke-width="1.5"/>
<rect x="273.166" y="127" width="18" height="5" rx="1.5" fill="none" stroke="currentColor" stroke-width="1.5"/>
<circle cx="288.166" cy="115.5" r="1" fill="currentColor"/>
<circle cx="288.166" cy="122.5" r="1" fill="currentColor"/>
<circle cx="288.166" cy="129.5" r="1" fill="currentColor"/>
<text x="282.166" y="152" text-anchor="middle" font-family="-apple-system,BlinkMacSystemFont,sans-serif" font-size="9.5" font-weight="700" fill="currentColor">Serve</text>
</g>
<g filter="url(#filter3_d_fabric)">
<rect x="348" y="98" width="85" height="64" rx="10" fill="white" shape-rendering="crispEdges"/>
<rect x="348.5" y="98.5" width="84" height="63" rx="9.5" stroke="#0078D4" shape-rendering="crispEdges"/>
<!-- Report: bar chart (three ascending vertical bars) -->
<rect x="382.5" y="121" width="5" height="9" fill="currentColor"/>
<rect x="389.5" y="116" width="5" height="14" fill="currentColor"/>
<rect x="396.5" y="112" width="5" height="18" fill="currentColor"/>
<line x1="381.5" y1="130" x2="403.5" y2="130" stroke="currentColor" stroke-width="1.5" stroke-linecap="round"/>
<text x="390.5" y="152" text-anchor="middle" font-family="-apple-system,BlinkMacSystemFont,sans-serif" font-size="9.5" font-weight="700" fill="currentColor">Report</text>
</g>
<path d="M129.209 130L119.209 124.226V135.774L129.209 130ZM111.041 130V131H120.209V130V129H111.041V130Z" fill="currentColor"/>
<path d="M237.084 130L227.084 124.226V135.774L237.084 130ZM218.916 130V131H228.084V130V129H218.916V130Z" fill="currentColor"/>
<path d="M345.416 130L335.416 124.226V135.774L345.416 130ZM327.248 130V131H336.416V130V129H327.248V130Z" fill="currentColor"/>
<defs>
<filter id="filter0_d_fabric" x="25" y="98" width="84" height="67" filterUnits="userSpaceOnUse" color-interpolation-filters="sRGB">
<feFlood flood-opacity="0" result="BackgroundImageFix"/>
<feColorMatrix in="SourceAlpha" type="matrix" values="0 0 0 0 0 0 0 0 0 0 0 0 0 0 0 0 0 0 127 0" result="hardAlpha"/>
<feOffset dy="3"/>
<feComposite in2="hardAlpha" operator="out"/>
<feColorMatrix type="matrix" values="0 0 0 0 0 0 0 0 0 0.471 0 0 0 0 0.831 0 0 0 1 0"/>
<feBlend mode="normal" in2="BackgroundImageFix" result="effect1_dropShadow_fabric"/>
<feBlend mode="normal" in="SourceGraphic" in2="effect1_dropShadow_fabric" result="shape"/>
</filter>
<filter id="filter1_d_fabric" x="132.334" y="98" width="84" height="67" filterUnits="userSpaceOnUse" color-interpolation-filters="sRGB">
<feFlood flood-opacity="0" result="BackgroundImageFix"/>
<feColorMatrix in="SourceAlpha" type="matrix" values="0 0 0 0 0 0 0 0 0 0 0 0 0 0 0 0 0 0 127 0" result="hardAlpha"/>
<feOffset dy="3"/>
<feComposite in2="hardAlpha" operator="out"/>
<feColorMatrix type="matrix" values="0 0 0 0 0 0 0 0 0 0.471 0 0 0 0 0.831 0 0 0 1 0"/>
<feBlend mode="normal" in2="BackgroundImageFix" result="effect1_dropShadow_fabric"/>
<feBlend mode="normal" in="SourceGraphic" in2="effect1_dropShadow_fabric" result="shape"/>
</filter>
<filter id="filter2_d_fabric" x="239.666" y="98" width="85" height="67" filterUnits="userSpaceOnUse" color-interpolation-filters="sRGB">
<feFlood flood-opacity="0" result="BackgroundImageFix"/>
<feColorMatrix in="SourceAlpha" type="matrix" values="0 0 0 0 0 0 0 0 0 0 0 0 0 0 0 0 0 0 127 0" result="hardAlpha"/>
<feOffset dy="3"/>
<feComposite in2="hardAlpha" operator="out"/>
<feColorMatrix type="matrix" values="0 0 0 0 0 0 0 0 0 0.471 0 0 0 0 0.831 0 0 0 1 0"/>
<feBlend mode="normal" in2="BackgroundImageFix" result="effect1_dropShadow_fabric"/>
<feBlend mode="normal" in="SourceGraphic" in2="effect1_dropShadow_fabric" result="shape"/>
</filter>
<filter id="filter3_d_fabric" x="348" y="98" width="85" height="67" filterUnits="userSpaceOnUse" color-interpolation-filters="sRGB">
<feFlood flood-opacity="0" result="BackgroundImageFix"/>
<feColorMatrix in="SourceAlpha" type="matrix" values="0 0 0 0 0 0 0 0 0 0 0 0 0 0 0 0 0 0 127 0" result="hardAlpha"/>
<feOffset dy="3"/>
<feComposite in2="hardAlpha" operator="out"/>
<feColorMatrix type="matrix" values="0 0 0 0 0 0 0 0 0 0.471 0 0 0 0 0.831 0 0 0 1 0"/>
<feBlend mode="normal" in2="BackgroundImageFix" result="effect1_dropShadow_fabric"/>
<feBlend mode="normal" in="SourceGraphic" in2="effect1_dropShadow_fabric" result="shape"/>
</filter>
</defs>
</svg>
