<svg xmlns="http://www.w3.org/2000/svg" width="202" height="43" viewBox="0 0 202 43" fill="none"><path d="M62.7356 20.536V29.1553C62.7356 30.1801 61.897 30.7625 61.0583 30.7625C60.3129 30.7625 59.6606 30.1801 59.6606 29.1553V16.0401C59.6606 14.8288 60.6856 14.4328 61.0583 14.4328C61.7339 14.4328 62.13 14.8288 62.526 15.2713L67.6508 22.19L72.9622 15.015C73.7309 14.0601 75.6178 14.4328 75.6178 16.0401V29.1553C75.6178 30.1801 74.9655 30.7625 74.2201 30.7625C73.3815 30.7625 72.7292 30.1801 72.7292 29.1553V20.536L68.8623 25.428C68.0235 26.4529 66.9753 26.4529 66.2066 25.428L62.7356 20.536Z" fill="#3DB5E6"></path><path d="M88.8035 30.9955C84.4939 31.1819 80.0212 28.3165 80.0212 22.6093C80.0212 16.8786 84.4939 14.0601 88.8035 14.0601C92.8801 14.2696 97.1431 17.0883 97.1431 22.6093C97.1431 28.1302 92.8801 30.9955 88.8035 30.9955ZM88.5472 17.0883C85.9382 17.0883 83.0962 18.9288 83.0962 22.6093C83.0962 26.2666 85.9382 28.1302 88.5472 28.1302C91.2262 28.1302 94.0915 26.2666 94.0915 22.6093C94.0915 18.9288 91.2262 17.0883 88.5472 17.0883Z" fill="#3DB5E6"></path><path d="M104.831 29.2483C104.831 31.275 101.733 31.3449 101.733 29.295V16.0634C101.733 15.248 102.362 14.6422 103.131 14.6422H109.327C115.244 14.6422 116.455 22.5627 111.517 24.5427L114.615 28.3165C115.826 30.1104 113.404 31.834 112.006 30.0637L108.489 25.032H104.831V29.2483ZM104.831 22.353H109.327C112.355 22.353 112.542 17.461 109.327 17.461H104.831V22.353Z" fill="#3DB5E6"></path><path d="M119.251 16.0401C119.251 15.2713 119.857 14.4328 120.835 14.4328H126.217C129.245 14.4328 131.97 16.4594 131.97 20.3497C131.97 24.0302 129.245 26.0802 126.217 26.0802H122.326V29.1552C122.326 30.1801 121.674 30.7625 120.835 30.7625C120.067 30.7625 119.251 30.1801 119.251 29.1552V16.0401ZM122.326 17.3679V23.1684H126.217C127.777 23.1684 129.012 21.7939 129.012 20.3497C129.012 18.7191 127.777 17.3679 126.217 17.3679H122.326Z" fill="#3DB5E6"></path><path d="M136.211 29.3183V16.0867C136.211 15.248 136.817 14.6422 137.865 14.6422C138.68 14.6422 139.286 15.248 139.286 16.0867V21.1651H146.88V16.0867C146.88 15.248 147.626 14.6422 148.464 14.6422C149.279 14.6422 149.909 15.248 149.909 16.0867V29.3183C149.909 30.1335 149.279 30.7625 148.464 30.7625C147.626 30.7625 146.88 30.1335 146.88 29.3183V24.2166H139.286V29.3183C139.286 30.1335 138.68 30.7625 137.865 30.7625C136.817 30.7625 136.211 30.1335 136.211 29.3183Z" fill="#3DB5E6"></path><path d="M156.315 30.7625C155.5 30.7625 154.871 30.1335 154.871 29.3183V16.0867C154.871 15.248 155.5 14.6422 156.315 14.6422H164.678C166.821 14.6422 166.775 17.6707 164.678 17.6707H157.969V21.1651H163.839C165.913 21.1651 165.913 24.2166 163.839 24.2166H157.969V27.7108H165.074C167.194 27.7108 167.357 30.7625 165.074 30.7625L156.315 30.7625Z" fill="#3DB5E6"></path><path d="M181.94 16.1798C181.94 14.1065 184.992 13.9434 184.992 16.1798V24.6126C184.992 33.3249 170.945 33.3249 170.945 24.6126V16.1798C170.945 14.0833 173.997 13.9901 173.997 16.1798V24.6126C173.997 29.2017 181.94 29.4813 181.94 24.6126V16.1798Z" fill="#3DB5E6"></path><path d="M189.698 18.1367C190.234 13.6174 197.059 12.802 200.274 15.2713C201.858 16.5525 200.181 18.5792 198.783 17.5543C197.059 16.4594 193.146 15.947 192.657 18.3695C192.028 22.19 202.161 20.0003 201.998 26.1966C201.835 32.1137 193.262 32.2534 190.048 29.5978C189.279 28.9689 189.302 27.9438 189.721 27.3148C190.327 26.7093 191.003 26.4996 191.795 27.1518C193.705 28.4563 198.62 29.4347 198.97 26.1269C198.667 22.6791 188.976 24.7524 189.698 18.1367Z" fill="#3DB5E6"></path><path d="M41.1854 26.9163C38.9086 35.9139 30.5781 42.3153 20.7668 42.3153C10.911 42.3153 2.65225 35.535 0.46875 26.5003C3.0943 26.5003 5.54881 26.5121 6.68832 26.5121C7.22587 26.5121 7.33026 26.5212 7.36136 26.519C8.21877 26.4775 9.29388 26.1992 10.0091 24.4884L12.7346 17.4754L18.7876 31.8106C19.3318 32.9533 20.2403 32.8724 20.7823 32.8724H20.8334C21.8907 32.8724 22.3505 32.508 22.7526 31.7542L29.5897 17.5829L31.922 23.9696L32.0642 24.2788C32.5573 25.3428 32.912 26.3939 34.1324 26.5312C34.384 26.5595 37.3054 26.5093 41.2437 26.5093C41.2437 26.5093 41.2437 26.5342 41.1854 26.9163Z" fill="#3DB5E6"></path><path d="M41.7123 21.3181C41.7123 21.4265 41.7123 21.6994 41.7101 21.6994H41.7057H35.4556L31.8093 11.488C31.4846 10.7286 30.9966 9.59008 29.5743 9.59008C28.7041 9.59008 27.9179 10.3105 27.4718 11.4995L20.8617 26.8489L14.4989 11.5926C13.8761 10.2376 13.4455 9.60032 12.1999 9.60032C11.354 9.60032 10.7334 9.91269 10.0576 11.5179L6.28103 21.851L0.00661824 21.8444C0.00219765 21.6872 0 21.5301 0 21.3729C0 9.88629 9.28903 0.602997 20.7468 0.602997C32.2046 0.602997 41.7123 9.83148 41.7123 21.3181Z" fill="#D8292F"></path><path d="M200.593 41.5114C199.695 41.5114 199.003 40.8605 199.003 39.9045V39.8928C199.003 39.0072 199.631 38.28 200.516 38.28C201.502 38.28 202 39.0541 202 39.9456C202 40.0101 201.994 40.0746 201.988 40.145H199.713C199.789 40.6493 200.147 40.9308 200.604 40.9308C200.95 40.9308 201.197 40.8018 201.443 40.5614L201.859 40.9308C201.566 41.2827 201.161 41.5114 200.593 41.5114ZM199.707 39.6758H201.296C201.249 39.2183 200.98 38.8606 200.51 38.8606C200.076 38.8606 199.771 39.1949 199.707 39.6758Z" fill="#3DB5E6"></path><path d="M197.297 41.4997C196.857 41.4997 196.37 41.3473 195.983 41.0364L196.3 40.5555C196.64 40.8077 196.998 40.9367 197.314 40.9367C197.619 40.9367 197.795 40.8077 197.795 40.6024V40.5907C197.795 40.3503 197.467 40.2681 197.103 40.1567C196.646 40.0277 196.135 39.84 196.135 39.2536V39.2418C196.135 38.6495 196.622 38.2917 197.238 38.2917C197.625 38.2917 198.047 38.4266 198.376 38.6436L198.094 39.148C197.795 38.9662 197.478 38.8548 197.22 38.8548C196.945 38.8548 196.786 38.9896 196.786 39.1597V39.1715C196.786 39.4002 197.121 39.494 197.484 39.6113C197.936 39.7521 198.446 39.9573 198.446 40.5145V40.5262C198.446 41.1772 197.942 41.4997 197.297 41.4997Z" fill="#3DB5E6"></path><path d="M194.569 37.8695V37.195H195.331V37.8695H194.569ZM194.592 41.4411V38.3445H195.308V41.4411H194.592Z" fill="#3DB5E6"></path><path d="M192.128 41.4411V38.3445H192.844V39.0424C193.037 38.5791 193.395 38.2624 193.941 38.2859V39.0366H193.9C193.278 39.0366 192.844 39.4412 192.844 40.2623V41.4411H192.128Z" fill="#3DB5E6"></path><path d="M188.194 42.3794V38.3445H188.909V38.8606C189.138 38.538 189.461 38.28 189.965 38.28C190.692 38.28 191.402 38.8547 191.402 39.8869V39.8987C191.402 40.925 190.698 41.5056 189.965 41.5056C189.449 41.5056 189.126 41.2475 188.909 40.9602V42.3794H188.194ZM189.795 40.8898C190.282 40.8898 190.68 40.5086 190.68 39.8987V39.8869C190.68 39.2887 190.27 38.8958 189.795 38.8958C189.314 38.8958 188.892 39.2946 188.892 39.8869V39.8987C188.892 40.491 189.314 40.8898 189.795 40.8898Z" fill="#3DB5E6"></path><path d="M185.771 41.4411V38.3445H186.487V39.0424C186.68 38.5791 187.038 38.2624 187.583 38.2859V39.0366H187.542C186.921 39.0366 186.487 39.4412 186.487 40.2623V41.4411H185.771Z" fill="#3DB5E6"></path><path d="M183.657 41.5114C182.76 41.5114 182.068 40.8605 182.068 39.9045V39.8928C182.068 39.0072 182.695 38.28 183.581 38.28C184.566 38.28 185.064 39.0541 185.064 39.9456C185.064 40.0101 185.059 40.0746 185.053 40.145H182.777C182.854 40.6493 183.211 40.9308 183.669 40.9308C184.015 40.9308 184.261 40.8018 184.507 40.5614L184.924 40.9308C184.63 41.2827 184.226 41.5114 183.657 41.5114ZM182.771 39.6758H184.361C184.314 39.2183 184.044 38.8606 183.575 38.8606C183.141 38.8606 182.836 39.1949 182.771 39.6758Z" fill="#3DB5E6"></path><path d="M180.951 41.4939C180.429 41.4939 180.059 41.2651 180.059 40.5848V38.9544H179.666V38.3445H180.059V37.4941H180.769V38.3445H181.602V38.9544H180.769V40.4734C180.769 40.749 180.91 40.8605 181.15 40.8605C181.308 40.8605 181.449 40.8253 181.59 40.7549V41.3355C181.414 41.4352 181.22 41.4939 180.951 41.4939Z" fill="#3DB5E6"></path><path d="M176.27 41.4411V38.3445H176.985V38.8196C177.185 38.5322 177.472 38.28 177.953 38.28C178.651 38.28 179.056 38.7492 179.056 39.4647V41.4411H178.346V39.6817C178.346 39.2008 178.105 38.9251 177.683 38.9251C177.273 38.9251 176.985 39.2125 176.985 39.6934V41.4411H176.27Z" fill="#3DB5E6"></path><path d="M172.429 41.4411V37.3358H175.473V37.9809H173.15V39.0483H175.209V39.6993H173.15V40.796H175.502V41.4411H172.429Z" fill="#3DB5E6"></path><path d="M167.932 41.5056C167.205 41.5056 166.496 40.925 166.496 39.8987V39.887C166.496 38.8606 167.194 38.28 167.932 38.28C168.443 38.28 168.765 38.5322 168.988 38.8255V37.1599H169.698V41.4411H168.988V40.925C168.759 41.2476 168.437 41.5056 167.932 41.5056ZM168.103 40.8898C168.578 40.8898 169 40.491 169 39.8987V39.887C169 39.2888 168.578 38.8958 168.103 38.8958C167.616 38.8958 167.211 39.277 167.211 39.887V39.8987C167.211 40.4969 167.622 40.8898 168.103 40.8898Z" fill="#3DB5E6"></path><path d="M164.305 41.4411V38.3445H165.021V39.0424C165.214 38.5791 165.572 38.2624 166.118 38.2859V39.0366H166.077C165.455 39.0366 165.021 39.4412 165.021 40.2623V41.4411H164.305Z" fill="#3DB5E6"></path><path d="M161.761 41.5056C161.18 41.5056 160.658 41.1713 160.658 40.5497V40.5379C160.658 39.8694 161.186 39.5409 161.943 39.5409C162.289 39.5409 162.535 39.5937 162.775 39.67V39.5937C162.775 39.1539 162.506 38.9193 162.007 38.9193C161.661 38.9193 161.403 38.9955 161.122 39.1128L160.928 38.5557C161.274 38.4032 161.608 38.3035 162.101 38.3035C162.564 38.3035 162.91 38.4267 163.127 38.6495C163.356 38.8724 163.462 39.2008 163.462 39.6055V41.4411H162.769V41.054C162.558 41.3062 162.236 41.5056 161.761 41.5056ZM161.96 40.9895C162.429 40.9895 162.787 40.7198 162.787 40.3268V40.1157C162.605 40.0453 162.365 39.9925 162.083 39.9925C161.626 39.9925 161.356 40.1861 161.356 40.5086V40.5204C161.356 40.8195 161.62 40.9895 161.96 40.9895Z" fill="#3DB5E6"></path><path d="M157.507 41.4411V37.1599H158.223V39.7169L159.507 38.3445H160.369L159.138 39.6055L160.41 41.4411H159.578L158.663 40.0981L158.223 40.5555V41.4411H157.507Z" fill="#3DB5E6"></path><path d="M155.594 41.5114C154.673 41.5114 153.993 40.7901 153.993 39.9104V39.8987C153.993 39.019 154.673 38.28 155.605 38.28C156.186 38.28 156.55 38.497 156.843 38.8137L156.397 39.2887C156.18 39.0659 155.951 38.9017 155.6 38.9017C155.084 38.9017 154.702 39.3474 154.702 39.8869V39.8987C154.702 40.4499 155.084 40.8898 155.629 40.8898C155.963 40.8898 156.204 40.7373 156.432 40.5086L156.861 40.9308C156.556 41.271 156.198 41.5114 155.594 41.5114Z" fill="#3DB5E6"></path><path d="M151.612 41.5056C151.032 41.5056 150.51 41.1713 150.51 40.5497V40.5379C150.51 39.8694 151.038 39.5409 151.794 39.5409C152.14 39.5409 152.386 39.5937 152.627 39.67V39.5937C152.627 39.1539 152.357 38.9193 151.859 38.9193C151.513 38.9193 151.255 38.9955 150.973 39.1128L150.78 38.5557C151.126 38.4032 151.46 38.3035 151.952 38.3035C152.416 38.3035 152.762 38.4267 152.979 38.6495C153.208 38.8724 153.313 39.2008 153.313 39.6055V41.4411H152.621V41.054C152.41 41.3062 152.087 41.5056 151.612 41.5056ZM151.812 40.9895C152.281 40.9895 152.639 40.7198 152.639 40.3268V40.1157C152.457 40.0453 152.216 39.9925 151.935 39.9925C151.477 39.9925 151.208 40.1861 151.208 40.5086V40.5204C151.208 40.8195 151.472 40.9895 151.812 40.9895Z" fill="#3DB5E6"></path><path d="M146.943 41.4411V37.3358H148.561C149.523 37.3358 150.121 37.8812 150.121 38.7082V38.7199C150.121 39.6406 149.382 40.1215 148.479 40.1215H147.664V41.4411H146.943ZM147.664 39.4706H148.503C149.048 39.4706 149.388 39.1656 149.388 38.7375V38.7257C149.388 38.2448 149.042 37.9927 148.503 37.9927H147.664V39.4706Z" fill="#3DB5E6"></path><path d="M143.729 41.4939C143.207 41.4939 142.838 41.2651 142.838 40.5848V38.9544H142.445V38.3445H142.838V37.4941H143.547V38.3445H144.38V38.9544H143.547V40.4734C143.547 40.749 143.688 40.8605 143.929 40.8605C144.087 40.8605 144.228 40.8253 144.368 40.7549V41.3355C144.192 41.4352 143.999 41.4939 143.729 41.4939Z" fill="#3DB5E6"></path><path d="M141.318 41.4939C140.796 41.4939 140.427 41.2651 140.427 40.5848V38.9544H140.034V38.3445H140.427V37.4941H141.136V38.3445H141.969V38.9544H141.136V40.4734C141.136 40.749 141.277 40.8605 141.517 40.8605C141.676 40.8605 141.817 40.8253 141.957 40.7549V41.3355C141.781 41.4352 141.588 41.4939 141.318 41.4939Z" fill="#3DB5E6"></path><path d="M138.16 41.5114C137.263 41.5114 136.571 40.8605 136.571 39.9045V39.8928C136.571 39.0072 137.198 38.28 138.084 38.28C139.069 38.28 139.567 39.0541 139.567 39.9456C139.567 40.0101 139.562 40.0746 139.556 40.145H137.28C137.356 40.6493 137.714 40.9308 138.172 40.9308C138.518 40.9308 138.764 40.8018 139.01 40.5614L139.427 40.9308C139.133 41.2827 138.729 41.5114 138.16 41.5114ZM137.274 39.6758H138.864C138.817 39.2183 138.547 38.8606 138.078 38.8606C137.644 38.8606 137.339 39.1949 137.274 39.6758Z" fill="#3DB5E6"></path><path d="M135.098 41.4411V37.1599H135.813V41.4411H135.098Z" fill="#3DB5E6"></path><path d="M130.756 41.4645L129.747 38.3445H130.48L131.102 40.4675L131.788 38.3328H132.398L133.084 40.4675L133.718 38.3445H134.433L133.419 41.4645H132.779L132.087 39.3474L131.389 41.4645H130.756Z" fill="#3DB5E6"></path><path d="M128.04 41.5114C127.142 41.5114 126.45 40.8605 126.45 39.9045V39.8928C126.45 39.0072 127.078 38.28 127.964 38.28C128.949 38.28 129.447 39.0541 129.447 39.9456C129.447 40.0101 129.441 40.0746 129.436 40.145H127.16C127.236 40.6493 127.594 40.9308 128.052 40.9308C128.398 40.9308 128.644 40.8018 128.89 40.5614L129.307 40.9308C129.013 41.2827 128.609 41.5114 128.04 41.5114ZM127.154 39.6758H128.744C128.697 39.2183 128.427 38.8606 127.958 38.8606C127.524 38.8606 127.219 39.1949 127.154 39.6758Z" fill="#3DB5E6"></path><path d="M122.247 41.4411V37.3358H122.968V39.0424H124.927V37.3358H125.648V41.4411H124.927V39.711H122.968V41.4411H122.247Z" fill="#3DB5E6"></path><path d="M118.25 40.6435L119.059 38.3445H119.798L118.567 41.5232C118.32 42.1625 118.045 42.397 117.546 42.397C117.253 42.397 117.03 42.3267 116.813 42.2035L117.054 41.6816C117.183 41.7519 117.323 41.7988 117.47 41.7988C117.669 41.7988 117.793 41.7109 117.91 41.447L116.62 38.3445H117.382L118.25 40.6435Z" fill="#3DB5E6"></path><path d="M114.892 41.5056C114.376 41.5056 114.054 41.2476 113.837 40.9602V41.4411H113.121V37.1599H113.837V38.8606C114.065 38.5381 114.388 38.28 114.892 38.28C115.619 38.28 116.329 38.8548 116.329 39.887V39.8987C116.329 40.925 115.625 41.5056 114.892 41.5056ZM114.722 40.8898C115.209 40.8898 115.608 40.5086 115.608 39.8987V39.887C115.608 39.2888 115.197 38.8958 114.722 38.8958C114.241 38.8958 113.819 39.2946 113.819 39.887V39.8987C113.819 40.491 114.241 40.8898 114.722 40.8898Z" fill="#3DB5E6"></path><path d="M108.713 41.5056C107.986 41.5056 107.276 40.925 107.276 39.8987V39.887C107.276 38.8606 107.974 38.28 108.713 38.28C109.223 38.28 109.546 38.5322 109.768 38.8255V37.1599H110.478V41.4411H109.768V40.925C109.54 41.2476 109.217 41.5056 108.713 41.5056ZM108.883 40.8898C109.358 40.8898 109.78 40.491 109.78 39.8987V39.887C109.78 39.2888 109.358 38.8958 108.883 38.8958C108.396 38.8958 107.991 39.277 107.991 39.887V39.8987C107.991 40.4969 108.402 40.8898 108.883 40.8898Z" fill="#3DB5E6"></path><path d="M105.314 41.5114C104.417 41.5114 103.725 40.8605 103.725 39.9045V39.8928C103.725 39.0072 104.352 38.28 105.238 38.28C106.223 38.28 106.722 39.0541 106.722 39.9456C106.722 40.0101 106.716 40.0746 106.71 40.145H104.434C104.511 40.6493 104.868 40.9308 105.326 40.9308C105.672 40.9308 105.918 40.8018 106.165 40.5614L106.581 40.9308C106.288 41.2827 105.883 41.5114 105.314 41.5114ZM104.429 39.6758H106.018C105.971 39.2183 105.701 38.8606 105.232 38.8606C104.798 38.8606 104.493 39.1949 104.429 39.6758Z" fill="#3DB5E6"></path><path d="M101.569 41.4411V38.3445H102.285V39.0424C102.478 38.5791 102.836 38.2624 103.382 38.2859V39.0366H103.34C102.719 39.0366 102.285 39.4412 102.285 40.2623V41.4411H101.569Z" fill="#3DB5E6"></path><path d="M99.9089 37.8695V37.195H100.671V37.8695H99.9089ZM99.9324 41.4411V38.3445H100.648V41.4411H99.9324Z" fill="#3DB5E6"></path><path d="M97.3277 41.5056C96.6298 41.5056 96.2251 41.0364 96.2251 40.3151V38.3445H96.9347V40.104C96.9347 40.5849 97.1752 40.8546 97.5974 40.8546C98.008 40.8546 98.2953 40.5731 98.2953 40.0922V38.3445H99.0108V41.4411H98.2953V40.9602C98.0959 41.2534 97.8086 41.5056 97.3277 41.5056Z" fill="#3DB5E6"></path><path d="M94.66 42.3794V40.925C94.4313 41.2475 94.1087 41.5056 93.6043 41.5056C92.8771 41.5056 92.1675 40.925 92.1675 39.8987V39.8869C92.1675 38.8606 92.8654 38.28 93.6043 38.28C94.1146 38.28 94.4371 38.5322 94.66 38.8254V38.3445H95.3696V42.3794H94.66ZM93.7744 40.8898C94.2494 40.8898 94.6717 40.491 94.6717 39.8987V39.8869C94.6717 39.2887 94.2494 38.8958 93.7744 38.8958C93.2876 38.8958 92.883 39.277 92.883 39.8869V39.8987C92.883 40.4969 93.2935 40.8898 93.7744 40.8898Z" fill="#3DB5E6"></path><path d="M90.4636 41.5114C89.5429 41.5114 88.8625 40.7901 88.8625 39.9104V39.8987C88.8625 39.019 89.5429 38.28 90.4753 38.28C91.0559 38.28 91.4196 38.497 91.7128 38.8137L91.2671 39.2887C91.0501 39.0659 90.8214 38.9017 90.4695 38.9017C89.9534 38.9017 89.5722 39.3474 89.5722 39.8869V39.8987C89.5722 40.4499 89.9534 40.8898 90.4988 40.8898C90.8331 40.8898 91.0735 40.7373 91.3023 40.5086L91.7304 40.9308C91.4254 41.271 91.0677 41.5114 90.4636 41.5114Z" fill="#3DB5E6"></path><path d="M86.482 41.5056C85.9014 41.5056 85.3794 41.1713 85.3794 40.5497V40.5379C85.3794 39.8694 85.9072 39.5409 86.6638 39.5409C87.0098 39.5409 87.2561 39.5937 87.4965 39.67V39.5937C87.4965 39.1539 87.2268 38.9193 86.7283 38.9193C86.3823 38.9193 86.1242 38.9955 85.8427 39.1128L85.6492 38.5557C85.9952 38.4032 86.3295 38.3035 86.8221 38.3035C87.2854 38.3035 87.6314 38.4267 87.8484 38.6495C88.0772 38.8724 88.1827 39.2008 88.1827 39.6055V41.4411H87.4907V41.054C87.2796 41.3062 86.957 41.5056 86.482 41.5056ZM86.6814 40.9895C87.1505 40.9895 87.5083 40.7198 87.5083 40.3268V40.1157C87.3265 40.0453 87.086 39.9925 86.8045 39.9925C86.3471 39.9925 86.0773 40.1861 86.0773 40.5086V40.5204C86.0773 40.8195 86.3412 40.9895 86.6814 40.9895Z" fill="#3DB5E6"></path><path d="M81.6758 40.6435L82.4851 38.3445H83.2241L81.9925 41.5232C81.7462 42.1625 81.4705 42.397 80.972 42.397C80.6788 42.397 80.4559 42.3267 80.2389 42.2035L80.4794 41.6816C80.6084 41.7519 80.7492 41.7988 80.8958 41.7988C81.0952 41.7988 81.2183 41.7109 81.3356 41.447L80.0454 38.3445H80.8078L81.6758 40.6435Z" fill="#3DB5E6"></path><path d="M78.6958 41.4411V37.1599H79.4113V41.4411H78.6958Z" fill="#3DB5E6"></path><path d="M77.2875 41.4939C76.7656 41.4939 76.3961 41.2651 76.3961 40.5848V38.9544H76.0032V38.3445H76.3961V37.4941H77.1057V38.3445H77.9385V38.9544H77.1057V40.4734C77.1057 40.749 77.2465 40.8605 77.4869 40.8605C77.6453 40.8605 77.786 40.8253 77.9268 40.7549V41.3355C77.7509 41.4352 77.5573 41.4939 77.2875 41.4939Z" fill="#3DB5E6"></path><path d="M72.6067 41.4411V38.3445H73.3222V38.8196C73.5216 38.5322 73.809 38.28 74.2899 38.28C74.9878 38.28 75.3924 38.7492 75.3924 39.4647V41.4411H74.6828V39.6817C74.6828 39.2008 74.4423 38.9251 74.0201 38.9251C73.6096 38.9251 73.3222 39.2125 73.3222 39.6934V41.4411H72.6067Z" fill="#3DB5E6"></path><path d="M70.4924 41.5114C69.5951 41.5114 68.9031 40.8605 68.9031 39.9045V39.8928C68.9031 39.0072 69.5306 38.28 70.4162 38.28C71.4014 38.28 71.8999 39.0541 71.8999 39.9456C71.8999 40.0101 71.8941 40.0746 71.8882 40.145H69.6127C69.6889 40.6493 70.0467 40.9308 70.5041 40.9308C70.8502 40.9308 71.0965 40.8018 71.3428 40.5614L71.7592 40.9308C71.4659 41.2827 71.0613 41.5114 70.4924 41.5114ZM69.6068 39.6758H71.1962C71.1493 39.2183 70.8795 38.8606 70.4103 38.8606C69.9763 38.8606 69.6714 39.1949 69.6068 39.6758Z" fill="#3DB5E6"></path><path d="M67.2397 41.5114C66.319 41.5114 65.6387 40.7901 65.6387 39.9104V39.8987C65.6387 39.019 66.319 38.28 67.2515 38.28C67.8321 38.28 68.1957 38.497 68.4889 38.8137L68.0432 39.2887C67.8262 39.0659 67.5975 38.9017 67.2456 38.9017C66.7295 38.9017 66.3483 39.3474 66.3483 39.8869V39.8987C66.3483 40.4499 66.7295 40.8898 67.2749 40.8898C67.6092 40.8898 67.8497 40.7373 68.0784 40.5086L68.5065 40.9308C68.2015 41.271 67.8438 41.5114 67.2397 41.5114Z" fill="#3DB5E6"></path><path d="M63.6885 41.5114C62.7912 41.5114 62.0991 40.8605 62.0991 39.9045V39.8928C62.0991 39.0072 62.7266 38.28 63.6122 38.28C64.5975 38.28 65.096 39.0541 65.096 39.9456C65.096 40.0101 65.0901 40.0746 65.0843 40.145H62.8087C62.885 40.6493 63.2427 40.9308 63.7002 40.9308C64.0462 40.9308 64.2925 40.8018 64.5388 40.5614L64.9552 40.9308C64.662 41.2827 64.2573 41.5114 63.6885 41.5114ZM62.8029 39.6758H64.3922C64.3453 39.2183 64.0755 38.8606 63.6063 38.8606C63.1724 38.8606 62.8674 39.1949 62.8029 39.6758Z" fill="#3DB5E6"></path><path d="M59.9438 41.4411V38.3445H60.6593V39.0424C60.8529 38.5791 61.2106 38.2624 61.756 38.2859V39.0366H61.715C61.0933 39.0366 60.6593 39.4412 60.6593 40.2623V41.4411H59.9438Z" fill="#3DB5E6"></path></svg>