<svg width="458" height="260" viewBox="0 0 458 260" fill="none" xmlns="http://www.w3.org/2000/svg">
  <rect width="458" height="260" rx="8" fill="#1A1D2E"/>
  <rect x="0" y="0" width="458" height="38" rx="8" fill="#111320"/>
  <rect x="0" y="24" width="458" height="14" fill="#111320"/>
  <rect x="16" y="10" width="60" height="18" rx="3" fill="#3DB5E6" opacity="0.9"/>
  <text x="20" y="23" font-family="monospace" font-size="9" font-weight="bold" fill="white">Morpheus</text>
  <rect x="84" y="14" width="120" height="10" rx="2" fill="#2D3250"/>
  <rect x="0" y="38" width="80" height="222" fill="#0D0F1C"/>
  <rect x="10" y="52" width="60" height="10" rx="2" fill="#3DB5E6" opacity="0.7"/>
  <rect x="10" y="70" width="60" height="10" rx="2" fill="#2D3250"/>
  <rect x="10" y="88" width="60" height="10" rx="2" fill="#2D3250"/>
  <rect x="10" y="106" width="60" height="10" rx="2" fill="#2D3250"/>
  <rect x="10" y="124" width="60" height="10" rx="2" fill="#2D3250"/>
  <!-- Cloud instance cards -->
  <rect x="92" y="48" width="110" height="78" rx="4" fill="#161829" stroke="#2D3250" stroke-width="1"/>
  <rect x="100" y="58" width="50" height="8" rx="2" fill="#3DB5E6" opacity="0.6"/>
  <rect x="100" y="72" width="86" height="7" rx="2" fill="#2D3250"/>
  <rect x="100" y="84" width="60" height="7" rx="2" fill="#2D3250"/>
  <rect x="100" y="104" width="50" height="14" rx="3" fill="#3DB5E6" opacity="0.4"/>
  <rect x="210" y="48" width="110" height="78" rx="4" fill="#161829" stroke="#2D3250" stroke-width="1"/>
  <rect x="218" y="58" width="70" height="8" rx="2" fill="#3DB5E6" opacity="0.6"/>
  <rect x="218" y="72" width="86" height="7" rx="2" fill="#2D3250"/>
  <rect x="218" y="84" width="50" height="7" rx="2" fill="#2D3250"/>
  <rect x="218" y="104" width="50" height="14" rx="3" fill="#2D3250"/>
  <rect x="328" y="48" width="110" height="78" rx="4" fill="#161829" stroke="#2D3250" stroke-width="1"/>
  <rect x="336" y="58" width="60" height="8" rx="2" fill="#3DB5E6" opacity="0.6"/>
  <rect x="336" y="72" width="86" height="7" rx="2" fill="#2D3250"/>
  <rect x="336" y="84" width="55" height="7" rx="2" fill="#2D3250"/>
  <rect x="336" y="104" width="50" height="14" rx="3" fill="#2D3250"/>
  <!-- Provisioning workflow -->
  <rect x="92" y="140" width="354" height="24" rx="3" fill="#0D0F1C"/>
  <rect x="100" y="146" width="80" height="10" rx="2" fill="#2D3250"/>
  <rect x="92" y="174" width="70" height="32" rx="4" fill="#3DB5E6" opacity="0.7"/>
  <rect x="100" y="184" width="54" height="10" rx="2" fill="white" opacity="0.5"/>
  <line x1="162" y1="190" x2="180" y2="190" stroke="#2D3250" stroke-width="2"/>
  <rect x="180" y="174" width="70" height="32" rx="4" fill="#1E2A38" stroke="#3DB5E6" stroke-width="1"/>
  <rect x="188" y="184" width="54" height="10" rx="2" fill="#2D3250"/>
  <line x1="250" y1="190" x2="268" y2="190" stroke="#2D3250" stroke-width="2"/>
  <rect x="268" y="174" width="70" height="32" rx="4" fill="#1E2A38" stroke="#3DB5E6" stroke-width="1"/>
  <rect x="276" y="184" width="54" height="10" rx="2" fill="#2D3250"/>
  <line x1="338" y1="190" x2="356" y2="190" stroke="#2D3250" stroke-width="2"/>
  <rect x="356" y="174" width="80" height="32" rx="4" fill="#1E2A38" stroke="#2D3250" stroke-width="1"/>
  <rect x="364" y="184" width="62" height="10" rx="2" fill="#2D3250"/>
  <rect x="92" y="220" width="354" height="22" rx="3" fill="#0D0F1C"/>
  <circle cx="108" cy="231" r="5" fill="#48C774"/>
  <rect x="120" y="226" width="90" height="8" rx="2" fill="#2D3250"/>
</svg>