<svg width="458" height="260" viewBox="0 0 458 260" fill="none" xmlns="http://www.w3.org/2000/svg">
<rect width="458" height="260" rx="6" fill="#FFF0ED"/>
<g filter="url(#filter0_d_n8n)">
<rect x="25" y="98" width="84" height="64" rx="10" fill="white" shape-rendering="crispEdges"/>
<rect x="25.5" y="98.5" width="83" height="63" rx="9.5" stroke="#EA4B71" shape-rendering="crispEdges"/>
<path d="M55 120L67 120M55 125L67 125M55 130L63 130" stroke="#333" stroke-width="2" stroke-linecap="round"/>
<circle cx="67" cy="130" r="8" fill="#EA4B71" fill-opacity="0.15"/>
<path d="M64 130L66 132L70 128" stroke="#EA4B71" stroke-width="1.5" stroke-linecap="round" stroke-linejoin="round"/>
<text x="67" y="153" font-family="sans-serif" font-size="9" fill="black" text-anchor="middle">Trigger</text>
</g>
<g filter="url(#filter1_d_n8n)">
<rect x="187" y="98" width="84" height="64" rx="10" fill="white" shape-rendering="crispEdges"/>
<rect x="187.5" y="98.5" width="83" height="63" rx="9.5" stroke="#EA4B71" shape-rendering="crispEdges"/>
<rect x="210" y="116" width="38" height="4" rx="2" fill="#EA4B71" fill-opacity="0.3"/>
<rect x="210" y="124" width="30" height="4" rx="2" fill="#EA4B71" fill-opacity="0.3"/>
<rect x="210" y="132" width="34" height="4" rx="2" fill="#EA4B71" fill-opacity="0.3"/>
<text x="229" y="153" font-family="sans-serif" font-size="9" fill="black" text-anchor="middle">Process</text>
</g>
<g filter="url(#filter2_d_n8n)">
<rect x="349" y="98" width="84" height="64" rx="10" fill="white" shape-rendering="crispEdges"/>
<rect x="349.5" y="98.5" width="83" height="63" rx="9.5" stroke="#EA4B71" shape-rendering="crispEdges"/>
<path d="M379 118V132M379 132L375 128M379 132L383 128" stroke="#333" stroke-width="2" stroke-linecap="round" stroke-linejoin="round"/>
<path d="M393 132V118M393 118L389 122M393 118L397 122" stroke="#333" stroke-width="2" stroke-linecap="round" stroke-linejoin="round"/>
<text x="391" y="153" font-family="sans-serif" font-size="9" fill="black" text-anchor="middle">Output</text>
</g>
<path d="M129 130L167 130" stroke="#EA4B71" stroke-width="2" stroke-dasharray="4 3"/>
<path d="M167 130L177 124.226V135.774L167 130Z" fill="#EA4B71"/>
<path d="M291 130L329 130" stroke="#EA4B71" stroke-width="2" stroke-dasharray="4 3"/>
<path d="M329 130L339 124.226V135.774L329 130Z" fill="#EA4B71"/>
<defs>
<filter id="filter0_d_n8n" x="25" y="98" width="84" height="67" filterUnits="userSpaceOnUse" color-interpolation-filters="sRGB">
<feFlood flood-opacity="0" result="BackgroundImageFix"/>
<feColorMatrix in="SourceAlpha" type="matrix" values="0 0 0 0 0 0 0 0 0 0 0 0 0 0 0 0 0 0 127 0" result="hardAlpha"/>
<feOffset dy="3"/>
<feComposite in2="hardAlpha" operator="out"/>
<feColorMatrix type="matrix" values="0 0 0 0 0.917647 0 0 0 0 0.294118 0 0 0 0 0.443137 0 0 0 1 0"/>
<feBlend mode="normal" in2="BackgroundImageFix" result="effect1_dropShadow"/>
<feBlend mode="normal" in="SourceGraphic" in2="effect1_dropShadow" result="shape"/>
</filter>
<filter id="filter1_d_n8n" x="187" y="98" width="84" height="67" filterUnits="userSpaceOnUse" color-interpolation-filters="sRGB">
<feFlood flood-opacity="0" result="BackgroundImageFix"/>
<feColorMatrix in="SourceAlpha" type="matrix" values="0 0 0 0 0 0 0 0 0 0 0 0 0 0 0 0 0 0 127 0" result="hardAlpha"/>
<feOffset dy="3"/>
<feComposite in2="hardAlpha" operator="out"/>
<feColorMatrix type="matrix" values="0 0 0 0 0.917647 0 0 0 0 0.294118 0 0 0 0 0.443137 0 0 0 1 0"/>
<feBlend mode="normal" in2="BackgroundImageFix" result="effect1_dropShadow"/>
<feBlend mode="normal" in="SourceGraphic" in2="effect1_dropShadow" result="shape"/>
</filter>
<filter id="filter2_d_n8n" x="349" y="98" width="85" height="67" filterUnits="userSpaceOnUse" color-interpolation-filters="sRGB">
<feFlood flood-opacity="0" result="BackgroundImageFix"/>
<feColorMatrix in="SourceAlpha" type="matrix" values="0 0 0 0 0 0 0 0 0 0 0 0 0 0 0 0 0 0 127 0" result="hardAlpha"/>
<feOffset dy="3"/>
<feComposite in2="hardAlpha" operator="out"/>
<feColorMatrix type="matrix" values="0 0 0 0 0.917647 0 0 0 0 0.294118 0 0 0 0 0.443137 0 0 0 1 0"/>
<feBlend mode="normal" in2="BackgroundImageFix" result="effect1_dropShadow"/>
<feBlend mode="normal" in="SourceGraphic" in2="effect1_dropShadow" result="shape"/>
</filter>
</defs>
</svg>
