<svg width="36" height="36" viewBox="0 0 36 36" fill="none" xmlns="http://www.w3.org/2000/svg">
<rect width="36" height="36" rx="8" fill="#EA4B71"/>
<path d="M7 25V14.8L7.2 14.2C7.6 13.2 8.5 12.5 9.5 12.4C10.9 12.2 12.2 13 12.7 14.3L12.8 14.6V25H10.5V15.5C10.5 14.8 10 14.3 9.3 14.3C8.6 14.3 8.1 14.8 8.1 15.5V25H7Z" fill="white"/>
<path d="M15.5 21C15.5 23.2 17.3 25 19.5 25C21.7 25 23.5 23.2 23.5 21C23.5 18.8 21.7 17 19.5 17C17.3 17 15.5 18.8 15.5 21ZM17.2 21C17.2 19.7 18.2 18.7 19.5 18.7C20.8 18.7 21.8 19.7 21.8 21C21.8 22.3 20.8 23.3 19.5 23.3C18.2 23.3 17.2 22.3 17.2 21ZM15.5 15.5C15.5 17.7 17.3 19.5 19.5 19.5C21.7 19.5 23.5 17.7 23.5 15.5C23.5 13.3 21.7 11.5 19.5 11.5C17.3 11.5 15.5 13.3 15.5 15.5ZM17.2 15.5C17.2 14.2 18.2 13.2 19.5 13.2C20.8 13.2 21.8 14.2 21.8 15.5C21.8 16.8 20.8 17.8 19.5 17.8C18.2 17.8 17.2 16.8 17.2 15.5Z" fill="white"/>
<path d="M25 25V14.8L25.2 14.2C25.6 13.2 26.5 12.5 27.5 12.4C28.9 12.2 30.2 13 30.7 14.3L30.8 14.6V25H28.5V15.5C28.5 14.8 28 14.3 27.3 14.3C26.6 14.3 26.1 14.8 26.1 15.5V25H25Z" fill="white"/>
</svg>
