<svg width="458" height="260" viewBox="0 0 458 260" fill="none" xmlns="http://www.w3.org/2000/svg">
<rect width="458" height="260" rx="6" fill="#FFF0ED"/>
<g filter="url(#filter0_d_50_44)">
<rect x="25" y="98" width="84" height="64" rx="10" fill="white" shape-rendering="crispEdges"/>
<rect x="25.5" y="98.5" width="83" height="63" rx="9.5" stroke="#EA4B71" shape-rendering="crispEdges"/>
<path d="M77 130H57V117.5H77M77 115H67L64.5 112.5H57C56.337 112.5 55.7011 112.763 55.2322 113.232C54.7634 113.701 54.5 114.337 54.5 115V130C54.5 130.663 54.7634 131.299 55.2322 131.768C55.7011 132.237 56.337 132.5 57 132.5H77C77.663 132.5 78.2989 132.237 78.7678 131.768C79.2366 131.299 79.5 130.663 79.5 130V117.5C79.5 116.837 79.2366 116.201 78.7678 115.732C78.2989 115.263 77.663 115 77 115ZM70.75 127.5H59.5V125H70.75V127.5ZM74.5 122.5H59.5V120H74.5V122.5Z" fill="black"/>
<path d="M51.688 153.5L51.688 146.394L52.876 146.394L52.876 153.5L51.688 153.5ZM49.169 146.526L49.169 145.481L55.428 145.481L55.428 146.526L49.169 146.526ZM55.6265 153.5L55.6265 147.681L56.6385 147.681L56.6935 148.715L56.7485 148.715C56.8731 148.341 57.0895 148.062 57.3975 147.879C57.7055 147.696 58.0501 147.604 58.4315 147.604C58.4975 147.604 58.5561 147.608 58.6075 147.615C58.6661 147.615 58.7211 147.619 58.7725 147.626L58.7725 148.693C58.7285 148.686 58.6735 148.682 58.6075 148.682C58.5488 148.682 58.4865 148.682 58.4205 148.682C58.0758 148.682 57.7825 148.741 57.5405 148.858C57.2985 148.975 57.1115 149.148 56.9795 149.375C56.8475 149.595 56.7705 149.863 56.7485 150.178L56.7485 153.5L55.6265 153.5ZM59.7944 153.5L59.7944 147.681L60.9274 147.681L60.9274 153.5L59.7944 153.5ZM60.3664 146.79C60.1758 146.79 60.0181 146.739 59.8934 146.636C59.7688 146.533 59.7064 146.39 59.7064 146.207C59.7064 146.024 59.7688 145.881 59.8934 145.778C60.0181 145.675 60.1758 145.624 60.3664 145.624C60.5571 145.624 60.7148 145.675 60.8394 145.778C60.9641 145.881 61.0264 146.024 61.0264 146.207C61.0264 146.39 60.9641 146.533 60.8394 146.636C60.7148 146.739 60.5571 146.79 60.3664 146.79ZM64.7785 155.447C64.3165 155.447 63.9131 155.377 63.5685 155.238C63.2238 155.106 62.9488 154.915 62.7435 154.666C62.5381 154.417 62.4135 154.12 62.3695 153.775L63.4695 153.775C63.4988 153.944 63.5721 154.09 63.6895 154.215C63.8068 154.347 63.9571 154.446 64.1405 154.512C64.3311 154.578 64.5511 154.611 64.8005 154.611C65.1671 154.611 65.4678 154.556 65.7025 154.446C65.9445 154.343 66.1205 154.186 66.2305 153.973C66.3405 153.76 66.3955 153.489 66.3955 153.159L66.3955 152.125L66.3405 152.125C66.2158 152.47 65.9885 152.748 65.6585 152.961C65.3285 153.174 64.9325 153.28 64.4705 153.28C64.1331 153.28 63.8215 153.218 63.5355 153.093C63.2568 152.961 63.0148 152.774 62.8095 152.532C62.6041 152.283 62.4465 151.982 62.3365 151.63C62.2265 151.278 62.1715 150.878 62.1715 150.431C62.1715 149.837 62.2668 149.327 62.4575 148.902C62.6555 148.469 62.9268 148.139 63.2715 147.912C63.6161 147.685 64.0158 147.571 64.4705 147.571C64.9178 147.571 65.3065 147.674 65.6365 147.879C65.9738 148.084 66.2085 148.367 66.3405 148.726L66.4065 148.726L66.4395 147.681L67.5285 147.681L67.5285 152.961C67.5285 153.548 67.4148 154.024 67.1875 154.391C66.9675 154.758 66.6521 155.025 66.2415 155.194C65.8308 155.363 65.3431 155.447 64.7785 155.447ZM64.8665 152.345C65.1965 152.345 65.4751 152.272 65.7025 152.125C65.9298 151.978 66.1021 151.784 66.2195 151.542C66.3368 151.293 66.3955 151.021 66.3955 150.728L66.3955 150.112C66.3955 149.819 66.3331 149.551 66.2085 149.309C66.0911 149.06 65.9188 148.865 65.6915 148.726C65.4715 148.579 65.2075 148.506 64.8995 148.506C64.5695 148.506 64.2871 148.583 64.0525 148.737C63.8178 148.891 63.6381 149.115 63.5135 149.408C63.3961 149.694 63.3375 150.035 63.3375 150.431C63.3375 150.827 63.3961 151.168 63.5135 151.454C63.6308 151.74 63.8031 151.96 64.0305 152.114C64.2651 152.268 64.5438 152.345 64.8665 152.345ZM71.3849 155.447C70.9229 155.447 70.5196 155.377 70.1749 155.238C69.8303 155.106 69.5553 154.915 69.3499 154.666C69.1446 154.417 69.0199 154.12 68.9759 153.775L70.0759 153.775C70.1053 153.944 70.1786 154.09 70.2959 154.215C70.4133 154.347 70.5636 154.446 70.7469 154.512C70.9376 154.578 71.1576 154.611 71.4069 154.611C71.7736 154.611 72.0743 154.556 72.3089 154.446C72.5509 154.343 72.7269 154.186 72.8369 153.973C72.9469 153.76 73.0019 153.489 73.0019 153.159L73.0019 152.125L72.9469 152.125C72.8223 152.47 72.5949 152.748 72.2649 152.961C71.9349 153.174 71.5389 153.28 71.0769 153.28C70.7396 153.28 70.4279 153.218 70.1419 153.093C69.8633 152.961 69.6213 152.774 69.4159 152.532C69.2106 152.283 69.0529 151.982 68.9429 151.63C68.8329 151.278 68.7779 150.878 68.7779 150.431C68.7779 149.837 68.8733 149.327 69.0639 148.902C69.2619 148.469 69.5333 148.139 69.8779 147.912C70.2226 147.685 70.6223 147.571 71.0769 147.571C71.5243 147.571 71.9129 147.674 72.2429 147.879C72.5803 148.084 72.8149 148.367 72.9469 148.726L73.0129 148.726L73.0459 147.681L74.1349 147.681L74.1349 152.961C74.1349 153.548 74.0213 154.024 73.7939 154.391C73.5739 154.758 73.2586 155.025 72.8479 155.194C72.4373 155.363 71.9496 155.447 71.3849 155.447ZM71.4729 152.345C71.8029 152.345 72.0816 152.272 72.3089 152.125C72.5363 151.978 72.7086 151.784 72.8259 151.542C72.9433 151.293 73.0019 151.021 73.0019 150.728L73.0019 150.112C73.0019 149.819 72.9396 149.551 72.8149 149.309C72.6976 149.06 72.5253 148.865 72.2979 148.726C72.0779 148.579 71.8139 148.506 71.5059 148.506C71.1759 148.506 70.8936 148.583 70.6589 148.737C70.4243 148.891 70.2446 149.115 70.1199 149.408C70.0026 149.694 69.9439 150.035 69.9439 150.431C69.9439 150.827 70.0026 151.168 70.1199 151.454C70.2373 151.74 70.4096 151.96 70.6369 152.114C70.8716 152.268 71.1503 152.345 71.4729 152.345ZM78.0136 153.599C77.449 153.599 76.9613 153.478 76.5506 153.236C76.1473 152.987 75.8393 152.638 75.6266 152.191C75.414 151.744 75.3076 151.219 75.3076 150.618C75.3076 150.002 75.414 149.467 75.6266 149.012C75.8393 148.557 76.1436 148.209 76.5396 147.967C76.943 147.718 77.4233 147.593 77.9806 147.593C78.5893 147.593 79.0916 147.732 79.4876 148.011C79.891 148.282 80.1806 148.66 80.3566 149.144C80.5326 149.628 80.5986 150.185 80.5546 150.816L76.4186 150.816C76.426 151.241 76.4956 151.597 76.6276 151.883C76.7596 152.162 76.943 152.374 77.1776 152.521C77.4196 152.66 77.6983 152.73 78.0136 152.73C78.395 152.73 78.703 152.646 78.9376 152.477C79.1796 152.308 79.341 152.085 79.4216 151.806L80.4996 151.806C80.441 152.18 80.298 152.503 80.0706 152.774C79.8433 153.038 79.5536 153.243 79.2016 153.39C78.8496 153.529 78.4536 153.599 78.0136 153.599ZM76.4296 150.189L76.3196 150.046L79.5536 150.046L79.4436 150.2C79.451 149.797 79.3923 149.467 79.2676 149.21C79.1503 148.953 78.978 148.766 78.7506 148.649C78.5306 148.524 78.274 148.462 77.9806 148.462C77.6726 148.462 77.405 148.528 77.1776 148.66C76.9503 148.792 76.7706 148.986 76.6386 149.243C76.5066 149.5 76.437 149.815 76.4296 150.189ZM81.73 153.5L81.73 147.681L82.742 147.681L82.797 148.715L82.852 148.715C82.9767 148.341 83.193 148.062 83.501 147.879C83.809 147.696 84.1537 147.604 84.535 147.604C84.601 147.604 84.6597 147.608 84.711 147.615C84.7697 147.615 84.8247 147.619 84.876 147.626L84.876 148.693C84.832 148.686 84.777 148.682 84.711 148.682C84.6523 148.682 84.59 148.682 84.524 148.682C84.1793 148.682 83.886 148.741 83.644 148.858C83.402 148.975 83.215 149.148 83.083 149.375C82.951 149.595 82.874 149.863 82.852 150.178L82.852 153.5L81.73 153.5Z" fill="black"/>
</g>
<g filter="url(#filter1_d_50_44)">
<rect x="132.332" y="98" width="84" height="64" rx="10" fill="white" shape-rendering="crispEdges"/>
<rect x="132.832" y="98.5" width="83" height="63" rx="9.5" stroke="#EA4B71" shape-rendering="crispEdges"/>
<path d="M186.471 132.363L184.696 134.137C184.461 134.37 184.145 134.501 183.814 134.501C183.484 134.501 183.167 134.37 182.933 134.137L168.083 119.313C167.677 119.43 167.256 119.493 166.833 119.5C166.037 119.499 165.253 119.309 164.546 118.944C163.838 118.58 163.228 118.051 162.766 117.403C162.304 116.755 162.003 116.006 161.889 115.219C161.774 114.431 161.849 113.628 162.108 112.875L165.283 116.05L165.946 115.388L167.721 113.612L168.383 112.95L165.208 109.775C165.961 109.516 166.764 109.441 167.552 109.556C168.339 109.67 169.088 109.971 169.736 110.433C170.384 110.895 170.913 111.505 171.277 112.212C171.642 112.92 171.832 113.704 171.833 114.5C171.826 114.923 171.763 115.344 171.646 115.75L186.471 130.6C186.703 130.834 186.834 131.151 186.834 131.481C186.834 131.811 186.703 132.128 186.471 132.363ZM162.196 130.6C161.963 130.834 161.832 131.151 161.832 131.481C161.832 131.811 161.963 132.128 162.196 132.363L163.971 134.137C164.205 134.37 164.522 134.501 164.852 134.501C165.182 134.501 165.499 134.37 165.733 134.137L172.571 127.312L169.033 123.775M184.333 109.5L179.333 112L179.333 114.5L176.621 117.213L179.121 119.713L181.833 117L184.333 117L186.833 112L184.333 109.5Z" fill="black"/>
<path d="M150.152 153L150.152 145.894L151.34 145.894L151.34 153L150.152 153ZM147.633 146.026L147.633 144.981L153.892 144.981L153.892 146.026L147.633 146.026ZM154.091 153L154.091 147.181L155.103 147.181L155.158 148.215L155.213 148.215C155.337 147.841 155.554 147.562 155.862 147.379C156.17 147.196 156.514 147.104 156.896 147.104C156.962 147.104 157.02 147.108 157.072 147.115C157.13 147.115 157.185 147.119 157.237 147.126L157.237 148.193C157.193 148.186 157.138 148.182 157.072 148.182C157.013 148.182 156.951 148.182 156.885 148.182C156.54 148.182 156.247 148.241 156.005 148.358C155.763 148.475 155.576 148.648 155.444 148.875C155.312 149.095 155.235 149.363 155.213 149.678L155.213 153L154.091 153ZM160.134 153.099C159.782 153.099 159.455 153.029 159.155 152.89C158.861 152.751 158.608 152.553 158.396 152.296C158.183 152.039 158.018 151.728 157.901 151.361C157.791 150.987 157.736 150.562 157.736 150.085C157.736 149.454 157.835 148.915 158.033 148.468C158.238 148.021 158.52 147.68 158.88 147.445C159.239 147.203 159.657 147.082 160.134 147.082C160.456 147.082 160.75 147.133 161.014 147.236C161.278 147.339 161.501 147.482 161.685 147.665C161.875 147.841 162.011 148.054 162.092 148.303L162.158 148.303L162.202 147.181L163.28 147.181L163.28 153L162.202 153L162.158 151.867L162.092 151.867C161.96 152.234 161.721 152.531 161.377 152.758C161.032 152.985 160.618 153.099 160.134 153.099ZM160.519 152.164C160.871 152.164 161.168 152.083 161.41 151.922C161.652 151.761 161.835 151.548 161.96 151.284C162.084 151.02 162.147 150.73 162.147 150.415L162.147 149.755C162.147 149.432 162.081 149.139 161.949 148.875C161.824 148.611 161.641 148.402 161.399 148.248C161.164 148.087 160.878 148.006 160.541 148.006C160.196 148.006 159.899 148.09 159.65 148.259C159.408 148.428 159.221 148.666 159.089 148.974C158.964 149.282 158.902 149.652 158.902 150.085C158.902 150.51 158.964 150.881 159.089 151.196C159.213 151.511 159.397 151.753 159.639 151.922C159.881 152.083 160.174 152.164 160.519 152.164ZM164.865 153L164.865 147.181L165.943 147.181L165.987 148.336L166.053 148.336C166.222 147.925 166.486 147.617 166.845 147.412C167.205 147.199 167.597 147.093 168.022 147.093C168.323 147.093 168.598 147.137 168.847 147.225C169.104 147.313 169.324 147.456 169.507 147.654C169.698 147.845 169.845 148.098 169.947 148.413C170.05 148.721 170.101 149.099 170.101 149.546L170.101 153L168.968 153L168.968 149.777C168.968 149.381 168.921 149.055 168.825 148.798C168.73 148.534 168.583 148.34 168.385 148.215C168.187 148.09 167.931 148.028 167.615 148.028C167.285 148.028 166.996 148.109 166.746 148.27C166.504 148.431 166.317 148.648 166.185 148.919C166.053 149.183 165.987 149.484 165.987 149.821L165.987 153L164.865 153ZM173.625 153.11C173.258 153.11 172.925 153.066 172.624 152.978C172.331 152.89 172.078 152.765 171.865 152.604C171.652 152.443 171.487 152.248 171.37 152.021C171.26 151.786 171.201 151.533 171.194 151.262L172.316 151.262C172.331 151.489 172.393 151.68 172.503 151.834C172.62 151.988 172.778 152.102 172.976 152.175C173.181 152.248 173.409 152.285 173.658 152.285C174.054 152.285 174.355 152.212 174.56 152.065C174.773 151.911 174.879 151.698 174.879 151.427C174.879 151.222 174.831 151.064 174.736 150.954C174.648 150.837 174.505 150.745 174.307 150.679C174.109 150.613 173.849 150.558 173.526 150.514C173.042 150.441 172.639 150.345 172.316 150.228C171.993 150.103 171.751 149.931 171.59 149.711C171.429 149.484 171.348 149.19 171.348 148.831C171.348 148.479 171.443 148.175 171.634 147.918C171.825 147.654 172.092 147.449 172.437 147.302C172.782 147.148 173.185 147.071 173.647 147.071C174.102 147.071 174.494 147.144 174.824 147.291C175.161 147.438 175.425 147.643 175.616 147.907C175.807 148.171 175.909 148.486 175.924 148.853L174.813 148.853C174.798 148.626 174.74 148.442 174.637 148.303C174.542 148.164 174.406 148.065 174.23 148.006C174.061 147.94 173.86 147.907 173.625 147.907C173.266 147.907 172.983 147.98 172.778 148.127C172.58 148.274 172.481 148.472 172.481 148.721C172.481 148.912 172.532 149.066 172.635 149.183C172.738 149.293 172.895 149.381 173.108 149.447C173.328 149.506 173.607 149.561 173.944 149.612C174.391 149.671 174.773 149.762 175.088 149.887C175.403 150.012 175.638 150.188 175.792 150.415C175.953 150.642 176.034 150.947 176.034 151.328C176.034 151.709 175.935 152.032 175.737 152.296C175.539 152.56 175.257 152.762 174.89 152.901C174.531 153.04 174.109 153.11 173.625 153.11ZM177.58 153L177.58 148.094L176.634 148.094L176.634 147.181L177.58 147.181L177.58 146.334C177.58 145.887 177.712 145.549 177.976 145.322C178.24 145.095 178.607 144.981 179.076 144.981L179.978 144.981L179.978 145.828L179.34 145.828C179.106 145.828 178.941 145.883 178.845 145.993C178.75 146.096 178.702 146.246 178.702 146.444L178.702 147.181L179.879 147.181L179.879 148.094L178.702 148.094L178.702 153L177.58 153ZM183.25 153.099C182.825 153.099 182.436 153.029 182.084 152.89C181.739 152.751 181.442 152.549 181.193 152.285C180.944 152.021 180.749 151.706 180.61 151.339C180.471 150.972 180.401 150.562 180.401 150.107C180.401 149.506 180.515 148.981 180.742 148.534C180.977 148.079 181.307 147.727 181.732 147.478C182.165 147.221 182.671 147.093 183.25 147.093C183.675 147.093 184.06 147.163 184.405 147.302C184.757 147.434 185.058 147.632 185.307 147.896C185.556 148.16 185.747 148.479 185.879 148.853C186.018 149.22 186.088 149.634 186.088 150.096C186.088 150.69 185.974 151.214 185.747 151.669C185.52 152.116 185.193 152.468 184.768 152.725C184.343 152.974 183.837 153.099 183.25 153.099ZM183.25 152.153C183.587 152.153 183.881 152.076 184.13 151.922C184.387 151.761 184.585 151.526 184.724 151.218C184.863 150.91 184.933 150.536 184.933 150.096C184.933 149.766 184.893 149.476 184.812 149.227C184.739 148.97 184.629 148.754 184.482 148.578C184.335 148.395 184.159 148.259 183.954 148.171C183.749 148.076 183.514 148.028 183.25 148.028C182.913 148.028 182.616 148.109 182.359 148.27C182.11 148.431 181.912 148.666 181.765 148.974C181.626 149.275 181.556 149.652 181.556 150.107C181.556 150.43 181.593 150.719 181.666 150.976C181.747 151.225 181.86 151.438 182.007 151.614C182.161 151.79 182.341 151.926 182.546 152.021C182.759 152.109 182.993 152.153 183.25 152.153ZM187.316 153L187.316 147.181L188.328 147.181L188.383 148.215L188.438 148.215C188.563 147.841 188.779 147.562 189.087 147.379C189.395 147.196 189.74 147.104 190.121 147.104C190.187 147.104 190.246 147.108 190.297 147.115C190.356 147.115 190.411 147.119 190.462 147.126L190.462 148.193C190.418 148.186 190.363 148.182 190.297 148.182C190.239 148.182 190.176 148.182 190.11 148.182C189.766 148.182 189.472 148.241 189.23 148.358C188.988 148.475 188.801 148.648 188.669 148.875C188.537 149.095 188.46 149.363 188.438 149.678L188.438 153L187.316 153ZM191.484 153L191.484 147.181L192.562 147.181L192.606 148.336L192.672 148.336C192.834 147.925 193.087 147.617 193.431 147.412C193.783 147.199 194.172 147.093 194.597 147.093C195.023 147.093 195.404 147.196 195.741 147.401C196.086 147.606 196.332 147.958 196.478 148.457L196.566 148.457C196.728 148.002 196.992 147.661 197.358 147.434C197.732 147.207 198.15 147.093 198.612 147.093C198.994 147.093 199.335 147.174 199.635 147.335C199.943 147.496 200.185 147.757 200.361 148.116C200.537 148.475 200.625 148.952 200.625 149.546L200.625 153L199.503 153L199.503 149.777C199.503 149.381 199.456 149.055 199.36 148.798C199.265 148.534 199.122 148.34 198.931 148.215C198.741 148.09 198.491 148.028 198.183 148.028C197.868 148.028 197.593 148.109 197.358 148.27C197.124 148.431 196.94 148.648 196.808 148.919C196.684 149.183 196.621 149.484 196.621 149.821L196.621 153L195.488 153L195.488 149.777C195.488 149.381 195.441 149.055 195.345 148.798C195.25 148.534 195.107 148.34 194.916 148.215C194.726 148.09 194.48 148.028 194.179 148.028C193.857 148.028 193.578 148.109 193.343 148.27C193.109 148.431 192.925 148.648 192.793 148.919C192.669 149.183 192.606 149.484 192.606 149.821L192.606 153L191.484 153Z" fill="black"/>
</g>
<g filter="url(#filter2_d_50_44)">
<rect x="239.668" y="98" width="85" height="64" rx="10" fill="white" shape-rendering="crispEdges"/>
<rect x="240.168" y="98.5" width="84" height="63" rx="9.5" stroke="#EA4B71" shape-rendering="crispEdges"/>
<g clip-path="url(#clip0_50_44)">
<path d="M289.498 125.125C290.873 125.125 292.123 125.625 292.998 126.625L294.498 125.125V130.125H289.498L291.748 127.875C291.123 127.375 290.373 127 289.498 127C287.748 127 286.373 128.375 286.373 130.125C286.373 131.875 287.748 133.25 289.498 133.25C290.498 133.25 291.373 132.75 291.998 132H294.123C293.373 133.875 291.623 135.125 289.498 135.125C286.748 135.125 284.498 132.875 284.498 130.125C284.498 127.375 286.748 125.125 289.498 125.125ZM281.623 132H281.123L280.623 128.75C279.123 128.5 277.873 127.625 276.873 126.5L273.873 127.75L272.873 126.125L275.498 124.125C274.998 122.625 274.998 121.125 275.498 119.625L272.873 117.875L273.873 116.25L276.873 117.5C277.873 116.375 279.123 115.625 280.623 115.25L280.998 112H282.873L283.373 115.25C284.873 115.5 286.248 116.375 287.123 117.5L290.123 116.25L291.123 117.875L288.498 119.75C288.748 120.5 288.873 121.25 288.873 122H289.498C290.123 122 290.748 122.125 291.373 122.25V122L291.248 120.75L293.873 118.75C294.123 118.5 294.123 118.25 293.998 118L291.498 113.625C291.373 113.25 291.123 113.25 290.748 113.25L287.623 114.5C286.998 114 286.248 113.625 285.498 113.25L284.998 109.875C285.123 109.75 284.748 109.5 284.498 109.5H279.498C279.248 109.5 278.873 109.75 278.873 110L278.373 113.375C277.623 113.625 276.998 114.125 276.248 114.5L273.248 113.25C272.873 113.25 272.623 113.25 272.373 113.625L269.873 118C269.748 118.25 269.873 118.5 270.123 118.75L272.748 120.75L272.623 122L272.748 123.25L270.123 125.375C269.873 125.625 269.873 125.875 269.998 126.125L272.498 130.5C272.623 130.75 272.873 130.75 273.248 130.75L276.373 129.5C276.998 130 277.748 130.375 278.498 130.75L278.998 134.125C278.998 134.375 279.248 134.625 279.623 134.625H282.748C282.123 133.75 281.873 132.875 281.623 132ZM286.998 122.375V122C286.998 119.25 284.748 117 281.998 117C279.248 117 276.998 119.25 276.998 122C276.998 124.75 279.248 127 281.998 127C282.873 124.875 284.748 123.125 286.998 122.375ZM279.498 122C279.498 120.625 280.623 119.5 281.998 119.5C283.373 119.5 284.498 120.625 284.498 122C284.498 123.375 283.373 124.5 281.998 124.5C280.623 124.5 279.498 123.375 279.498 122Z" fill="black"/>
</g>
<path d="M264.08 153.099C263.486 153.099 262.947 153.007 262.463 152.824C261.979 152.633 261.561 152.358 261.209 151.999C260.857 151.64 260.586 151.207 260.395 150.701C260.212 150.195 260.12 149.627 260.12 148.996C260.12 148.358 260.215 147.786 260.406 147.28C260.597 146.774 260.864 146.345 261.209 145.993C261.561 145.634 261.979 145.362 262.463 145.179C262.947 144.988 263.486 144.893 264.08 144.893C264.74 144.893 265.327 145.007 265.84 145.234C266.361 145.461 266.782 145.784 267.105 146.202C267.435 146.613 267.64 147.1 267.721 147.665L266.511 147.665C266.438 147.328 266.291 147.031 266.071 146.774C265.851 146.51 265.572 146.305 265.235 146.158C264.905 146.004 264.52 145.927 264.08 145.927C263.523 145.927 263.039 146.048 262.628 146.29C262.225 146.532 261.913 146.88 261.693 147.335C261.473 147.79 261.363 148.343 261.363 148.996C261.363 149.48 261.425 149.913 261.55 150.294C261.682 150.675 261.865 150.998 262.1 151.262C262.335 151.519 262.617 151.717 262.947 151.856C263.284 151.995 263.662 152.065 264.08 152.065C264.513 152.065 264.898 151.992 265.235 151.845C265.58 151.698 265.862 151.493 266.082 151.229C266.302 150.958 266.445 150.642 266.511 150.283L267.721 150.283C267.655 150.855 267.457 151.354 267.127 151.779C266.804 152.197 266.379 152.523 265.851 152.758C265.33 152.985 264.74 153.099 264.08 153.099ZM271.422 153.099C270.997 153.099 270.608 153.029 270.256 152.89C269.912 152.751 269.615 152.549 269.365 152.285C269.116 152.021 268.922 151.706 268.782 151.339C268.643 150.972 268.573 150.562 268.573 150.107C268.573 149.506 268.687 148.981 268.914 148.534C269.149 148.079 269.479 147.727 269.904 147.478C270.337 147.221 270.843 147.093 271.422 147.093C271.848 147.093 272.233 147.163 272.577 147.302C272.929 147.434 273.23 147.632 273.479 147.896C273.729 148.16 273.919 148.479 274.051 148.853C274.191 149.22 274.26 149.634 274.26 150.096C274.26 150.69 274.147 151.214 273.919 151.669C273.692 152.116 273.366 152.468 272.94 152.725C272.515 152.974 272.009 153.099 271.422 153.099ZM271.422 152.153C271.76 152.153 272.053 152.076 272.302 151.922C272.559 151.761 272.757 151.526 272.896 151.218C273.036 150.91 273.105 150.536 273.105 150.096C273.105 149.766 273.065 149.476 272.984 149.227C272.911 148.97 272.801 148.754 272.654 148.578C272.508 148.395 272.332 148.259 272.126 148.171C271.921 148.076 271.686 148.028 271.422 148.028C271.085 148.028 270.788 148.109 270.531 148.27C270.282 148.431 270.084 148.666 269.937 148.974C269.798 149.275 269.728 149.652 269.728 150.107C269.728 150.43 269.765 150.719 269.838 150.976C269.919 151.225 270.033 151.438 270.179 151.614C270.333 151.79 270.513 151.926 270.718 152.021C270.931 152.109 271.166 152.153 271.422 152.153ZM275.489 153L275.489 147.181L276.567 147.181L276.611 148.336L276.677 148.336C276.845 147.925 277.109 147.617 277.469 147.412C277.828 147.199 278.22 147.093 278.646 147.093C278.946 147.093 279.221 147.137 279.471 147.225C279.727 147.313 279.947 147.456 280.131 147.654C280.321 147.845 280.468 148.098 280.571 148.413C280.673 148.721 280.725 149.099 280.725 149.546L280.725 153L279.592 153L279.592 149.777C279.592 149.381 279.544 149.055 279.449 148.798C279.353 148.534 279.207 148.34 279.009 148.215C278.811 148.09 278.554 148.028 278.239 148.028C277.909 148.028 277.619 148.109 277.37 148.27C277.128 148.431 276.941 148.648 276.809 148.919C276.677 149.183 276.611 149.484 276.611 149.821L276.611 153L275.489 153ZM282.203 153L282.203 147.181L283.281 147.181L283.325 148.336L283.391 148.336C283.559 147.925 283.823 147.617 284.183 147.412C284.542 147.199 284.934 147.093 285.36 147.093C285.66 147.093 285.935 147.137 286.185 147.225C286.441 147.313 286.661 147.456 286.845 147.654C287.035 147.845 287.182 148.098 287.285 148.413C287.387 148.721 287.439 149.099 287.439 149.546L287.439 153L286.306 153L286.306 149.777C286.306 149.381 286.258 149.055 286.163 148.798C286.067 148.534 285.921 148.34 285.723 148.215C285.525 148.09 285.268 148.028 284.953 148.028C284.623 148.028 284.333 148.109 284.084 148.27C283.842 148.431 283.655 148.648 283.523 148.919C283.391 149.183 283.325 149.484 283.325 149.821L283.325 153L282.203 153ZM291.323 153.099C290.759 153.099 290.271 152.978 289.86 152.736C289.457 152.487 289.149 152.138 288.936 151.691C288.724 151.244 288.617 150.719 288.617 150.118C288.617 149.502 288.724 148.967 288.936 148.512C289.149 148.057 289.453 147.709 289.849 147.467C290.253 147.218 290.733 147.093 291.29 147.093C291.899 147.093 292.401 147.232 292.797 147.511C293.201 147.782 293.49 148.16 293.666 148.644C293.842 149.128 293.908 149.685 293.864 150.316L289.728 150.316C289.736 150.741 289.805 151.097 289.937 151.383C290.069 151.662 290.253 151.874 290.487 152.021C290.729 152.16 291.008 152.23 291.323 152.23C291.705 152.23 292.013 152.146 292.247 151.977C292.489 151.808 292.651 151.585 292.731 151.306L293.809 151.306C293.751 151.68 293.608 152.003 293.38 152.274C293.153 152.538 292.863 152.743 292.511 152.89C292.159 153.029 291.763 153.099 291.323 153.099ZM289.739 149.689L289.629 149.546L292.863 149.546L292.753 149.7C292.761 149.297 292.702 148.967 292.577 148.71C292.46 148.453 292.288 148.266 292.06 148.149C291.84 148.024 291.584 147.962 291.29 147.962C290.982 147.962 290.715 148.028 290.487 148.16C290.26 148.292 290.08 148.486 289.948 148.743C289.816 149 289.747 149.315 289.739 149.689ZM297.622 153.099C297.197 153.099 296.808 153.029 296.456 152.89C296.111 152.743 295.814 152.538 295.565 152.274C295.323 152.01 295.132 151.695 294.993 151.328C294.861 150.961 294.795 150.551 294.795 150.096C294.795 149.641 294.861 149.231 294.993 148.864C295.132 148.497 295.327 148.182 295.576 147.918C295.833 147.654 296.137 147.452 296.489 147.313C296.841 147.166 297.233 147.093 297.666 147.093C298.128 147.093 298.542 147.177 298.909 147.346C299.276 147.515 299.569 147.753 299.789 148.061C300.016 148.369 300.148 148.725 300.185 149.128L299.085 149.128C299.034 148.886 298.938 148.684 298.799 148.523C298.66 148.362 298.491 148.241 298.293 148.16C298.095 148.079 297.875 148.039 297.633 148.039C297.362 148.039 297.12 148.09 296.907 148.193C296.702 148.288 296.526 148.428 296.379 148.611C296.24 148.787 296.133 149.003 296.06 149.26C295.987 149.509 295.95 149.792 295.95 150.107C295.95 150.54 296.02 150.91 296.159 151.218C296.298 151.519 296.493 151.75 296.742 151.911C296.991 152.072 297.285 152.153 297.622 152.153C297.901 152.153 298.143 152.105 298.348 152.01C298.553 151.907 298.722 151.772 298.854 151.603C298.986 151.427 299.07 151.222 299.107 150.987L300.218 150.987C300.174 151.412 300.035 151.786 299.8 152.109C299.573 152.424 299.272 152.67 298.898 152.846C298.524 153.015 298.099 153.099 297.622 153.099ZM303.215 153C302.775 153 302.445 152.897 302.225 152.692C302.005 152.479 301.895 152.138 301.895 151.669L301.895 148.105L300.795 148.105L300.795 147.181L301.895 147.181L301.895 145.498L303.017 145.366L303.017 147.181L304.315 147.181L304.315 148.105L303.028 148.105L303.028 151.482C303.028 151.687 303.075 151.834 303.171 151.922C303.273 152.01 303.416 152.054 303.6 152.054L304.326 152.054L304.326 153L303.215 153Z" fill="black"/>
</g>
<g filter="url(#filter3_d_50_44)">
<rect x="348" y="98" width="85" height="64" rx="10" fill="white" shape-rendering="crispEdges"/>
<rect x="348.5" y="98.5" width="84" height="63" rx="9.5" stroke="#EA4B71" shape-rendering="crispEdges"/>
<path d="M401.75 115.125C401.75 117.537 399.787 119.5 397.375 119.5C394.963 119.5 393 117.537 393 115.125C393 112.713 394.963 110.75 397.375 110.75C399.787 110.75 401.75 112.713 401.75 115.125ZM399.25 121.737C398.625 121.9 398 122 397.375 122C393.588 122 390.5 118.912 390.5 115.125C390.5 113.287 391.225 111.625 392.375 110.388C391.938 109.85 391.263 109.5 390.5 109.5C389.125 109.5 388 110.625 388 112V112.362C384.287 113.462 381.75 116.875 381.75 120.75V128.25L379.25 130.75V132H401.75V130.75L399.25 128.25V121.737ZM390.5 135.75C391.888 135.75 393 134.638 393 133.25H388C388 134.638 389.125 135.75 390.5 135.75Z" fill="black"/>
<path d="M376.035 153L376.035 144.981L377.531 144.981L381.667 151.372L381.722 151.372L381.667 148.721L381.667 144.981L382.822 144.981L382.822 153L381.392 153L377.256 146.653L377.201 146.653L377.245 149.15L377.245 153L376.035 153ZM386.984 153.099C386.558 153.099 386.17 153.029 385.818 152.89C385.473 152.751 385.176 152.549 384.927 152.285C384.677 152.021 384.483 151.706 384.344 151.339C384.204 150.972 384.135 150.562 384.135 150.107C384.135 149.506 384.248 148.981 384.476 148.534C384.71 148.079 385.04 147.727 385.466 147.478C385.898 147.221 386.404 147.093 386.984 147.093C387.409 147.093 387.794 147.163 388.139 147.302C388.491 147.434 388.791 147.632 389.041 147.896C389.29 148.16 389.481 148.479 389.613 148.853C389.752 149.22 389.822 149.634 389.822 150.096C389.822 150.69 389.708 151.214 389.481 151.669C389.253 152.116 388.927 152.468 388.502 152.725C388.076 152.974 387.57 153.099 386.984 153.099ZM386.984 152.153C387.321 152.153 387.614 152.076 387.864 151.922C388.12 151.761 388.318 151.526 388.458 151.218C388.597 150.91 388.667 150.536 388.667 150.096C388.667 149.766 388.626 149.476 388.546 149.227C388.472 148.97 388.362 148.754 388.216 148.578C388.069 148.395 387.893 148.259 387.688 148.171C387.482 148.076 387.248 148.028 386.984 148.028C386.646 148.028 386.349 148.109 386.093 148.27C385.843 148.431 385.645 148.666 385.499 148.974C385.359 149.275 385.29 149.652 385.29 150.107C385.29 150.43 385.326 150.719 385.4 150.976C385.48 151.225 385.594 151.438 385.741 151.614C385.895 151.79 386.074 151.926 386.28 152.021C386.492 152.109 386.727 152.153 386.984 152.153ZM392.789 153C392.467 153 392.214 152.956 392.03 152.868C391.847 152.773 391.719 152.633 391.645 152.45C391.572 152.267 391.535 152.047 391.535 151.79L391.535 148.105L390.435 148.105L390.435 147.181L391.535 147.181L391.535 145.498L392.657 145.366L392.657 147.181L396.21 147.181L396.21 153L395.077 153L395.077 148.105L392.657 148.105L392.657 151.581C392.657 151.779 392.694 151.911 392.767 151.977C392.848 152.036 392.98 152.065 393.163 152.065L393.955 152.065L393.955 153L392.789 153ZM395.649 146.29C395.451 146.29 395.29 146.239 395.165 146.136C395.048 146.033 394.989 145.89 394.989 145.707C394.989 145.524 395.048 145.381 395.165 145.278C395.29 145.175 395.451 145.124 395.649 145.124C395.84 145.124 395.994 145.175 396.111 145.278C396.236 145.381 396.298 145.524 396.298 145.707C396.298 145.89 396.236 146.033 396.111 146.136C395.994 146.239 395.84 146.29 395.649 146.29ZM400.547 154.837L400.547 153.902L401.163 153.902C401.339 153.902 401.485 153.876 401.603 153.825C401.727 153.781 401.834 153.708 401.922 153.605C402.01 153.51 402.079 153.385 402.131 153.231L402.45 152.439L402.45 152.725L400.492 148.094L399.216 148.094L399.216 153L398.094 153L398.094 148.094L397.148 148.094L397.148 147.181L398.094 147.181L398.094 146.334C398.094 145.887 398.226 145.549 398.49 145.322C398.754 145.095 399.12 144.981 399.59 144.981L400.492 144.981L400.492 145.828L399.854 145.828C399.619 145.828 399.454 145.883 399.359 145.993C399.263 146.096 399.216 146.246 399.216 146.444L399.216 147.181L401.35 147.181L402.472 150.283L402.912 151.526L402.978 151.526L403.385 150.283L404.441 147.181L405.64 147.181L403.22 153.506C403.088 153.843 402.934 154.111 402.758 154.309C402.582 154.507 402.376 154.643 402.142 154.716C401.914 154.797 401.65 154.837 401.35 154.837L400.547 154.837Z" fill="black"/>
</g>
<path d="M129.207 130L119.207 124.226V135.774L129.207 130ZM111.039 130V131H120.207V130V129H111.039V130Z" fill="black"/>
<path d="M237.082 130L227.082 124.226V135.774L237.082 130ZM218.914 130V131H228.082V130V129H218.914V130Z" fill="black"/>
<path d="M345.418 130L335.418 124.226V135.774L345.418 130ZM327.25 130V131H336.418V130V129H327.25V130Z" fill="black"/>
<defs>
<filter id="filter0_d_50_44" x="25" y="98" width="84" height="67" filterUnits="userSpaceOnUse" color-interpolation-filters="sRGB">
<feFlood flood-opacity="0" result="BackgroundImageFix"/>
<feColorMatrix in="SourceAlpha" type="matrix" values="0 0 0 0 0 0 0 0 0 0 0 0 0 0 0 0 0 0 127 0" result="hardAlpha"/>
<feOffset dy="3"/>
<feComposite in2="hardAlpha" operator="out"/>
<feColorMatrix type="matrix" values="0 0 0 0 0.917647 0 0 0 0 0.294118 0 0 0 0 0.443137 0 0 0 1 0"/>
<feBlend mode="normal" in2="BackgroundImageFix" result="effect1_dropShadow_50_44"/>
<feBlend mode="normal" in="SourceGraphic" in2="effect1_dropShadow_50_44" result="shape"/>
</filter>
<filter id="filter1_d_50_44" x="132.332" y="98" width="84" height="67" filterUnits="userSpaceOnUse" color-interpolation-filters="sRGB">
<feFlood flood-opacity="0" result="BackgroundImageFix"/>
<feColorMatrix in="SourceAlpha" type="matrix" values="0 0 0 0 0 0 0 0 0 0 0 0 0 0 0 0 0 0 127 0" result="hardAlpha"/>
<feOffset dy="3"/>
<feComposite in2="hardAlpha" operator="out"/>
<feColorMatrix type="matrix" values="0 0 0 0 0.917647 0 0 0 0 0.294118 0 0 0 0 0.443137 0 0 0 1 0"/>
<feBlend mode="normal" in2="BackgroundImageFix" result="effect1_dropShadow_50_44"/>
<feBlend mode="normal" in="SourceGraphic" in2="effect1_dropShadow_50_44" result="shape"/>
</filter>
<filter id="filter2_d_50_44" x="239.668" y="98" width="85" height="67" filterUnits="userSpaceOnUse" color-interpolation-filters="sRGB">
<feFlood flood-opacity="0" result="BackgroundImageFix"/>
<feColorMatrix in="SourceAlpha" type="matrix" values="0 0 0 0 0 0 0 0 0 0 0 0 0 0 0 0 0 0 127 0" result="hardAlpha"/>
<feOffset dy="3"/>
<feComposite in2="hardAlpha" operator="out"/>
<feColorMatrix type="matrix" values="0 0 0 0 0.917647 0 0 0 0 0.294118 0 0 0 0 0.443137 0 0 0 1 0"/>
<feBlend mode="normal" in2="BackgroundImageFix" result="effect1_dropShadow_50_44"/>
<feBlend mode="normal" in="SourceGraphic" in2="effect1_dropShadow_50_44" result="shape"/>
</filter>
<filter id="filter3_d_50_44" x="348" y="98" width="85" height="67" filterUnits="userSpaceOnUse" color-interpolation-filters="sRGB">
<feFlood flood-opacity="0" result="BackgroundImageFix"/>
<feColorMatrix in="SourceAlpha" type="matrix" values="0 0 0 0 0 0 0 0 0 0 0 0 0 0 0 0 0 0 127 0" result="hardAlpha"/>
<feOffset dy="3"/>
<feComposite in2="hardAlpha" operator="out"/>
<feColorMatrix type="matrix" values="0 0 0 0 0.917647 0 0 0 0 0.294118 0 0 0 0 0.443137 0 0 0 1 0"/>
<feBlend mode="normal" in2="BackgroundImageFix" result="effect1_dropShadow_50_44"/>
<feBlend mode="normal" in="SourceGraphic" in2="effect1_dropShadow_50_44" result="shape"/>
</filter>
<clipPath id="clip0_50_44">
<rect width="30" height="30" fill="white" transform="translate(267.168 107)"/>
</clipPath>
</defs>
</svg>
