<svg width="458" height="260" viewBox="0 0 458 260" fill="none" xmlns="http://www.w3.org/2000/svg">
<rect width="458" height="260" rx="6" fill="#EBF7EE"/>
<g filter="url(#filter0_d_pipedream)">
<rect x="25" y="98" width="84" height="64" rx="10" fill="white" shape-rendering="crispEdges"/>
<rect x="25.5" y="98.5" width="83" height="63" rx="9.5" stroke="#3EAA5F" shape-rendering="crispEdges"/>
<!-- Clock icon: Trigger -->
<circle cx="67" cy="121" r="11" stroke="black" stroke-width="1.5" fill="none"/>
<path d="M67 121V113" stroke="black" stroke-width="1.5" stroke-linecap="round"/>
<path d="M67 121L73 121" stroke="black" stroke-width="1.5" stroke-linecap="round"/>
<circle cx="67" cy="121" r="1.5" fill="currentColor"/>
<text x="67" y="152" text-anchor="middle" font-family="-apple-system,BlinkMacSystemFont,sans-serif" font-size="9.5" font-weight="700" fill="currentColor">Trigger</text>
</g>
<g filter="url(#filter1_d_pipedream)">
<rect x="132.334" y="98" width="84" height="64" rx="10" fill="white" shape-rendering="crispEdges"/>
<rect x="132.834" y="98.5" width="83" height="63" rx="9.5" stroke="#3EAA5F" shape-rendering="crispEdges"/>
<!-- Chain link icon: Connect -->
<ellipse cx="167" cy="121" rx="7" ry="4" fill="none" stroke="currentColor" stroke-width="1.5"/>
<ellipse cx="181" cy="121" rx="7" ry="4" fill="none" stroke="currentColor" stroke-width="1.5"/>
<text x="174.334" y="152" text-anchor="middle" font-family="-apple-system,BlinkMacSystemFont,sans-serif" font-size="9.5" font-weight="700" fill="currentColor">Connect</text>
</g>
<g filter="url(#filter2_d_pipedream)">
<rect x="239.666" y="98" width="85" height="64" rx="10" fill="white" shape-rendering="crispEdges"/>
<rect x="240.166" y="98.5" width="84" height="63" rx="9.5" stroke="#3EAA5F" shape-rendering="crispEdges"/>
<!-- List icon: Step -->
<path d="M274 114H290M274 121H290M274 128H284" stroke="currentColor" stroke-width="1.5" stroke-linecap="round"/>
<text x="282.166" y="152" text-anchor="middle" font-family="-apple-system,BlinkMacSystemFont,sans-serif" font-size="9.5" font-weight="700" fill="currentColor">Step</text>
</g>
<g filter="url(#filter3_d_pipedream)">
<rect x="348" y="98" width="85" height="64" rx="10" fill="white" shape-rendering="crispEdges"/>
<rect x="348.5" y="98.5" width="84" height="63" rx="9.5" stroke="#3EAA5F" shape-rendering="crispEdges"/>
<!-- Play button icon: Action -->
<path d="M385 113L385 129L399 121Z" fill="currentColor"/>
<text x="390.5" y="152" text-anchor="middle" font-family="-apple-system,BlinkMacSystemFont,sans-serif" font-size="9.5" font-weight="700" fill="currentColor">Action</text>
</g>
<path d="M129.209 130L119.209 124.226V135.774L129.209 130ZM111.041 130V131H120.209V130V129H111.041V130Z" fill="currentColor"/>
<path d="M237.084 130L227.084 124.226V135.774L237.084 130ZM218.916 130V131H228.084V130V129H218.916V130Z" fill="currentColor"/>
<path d="M345.416 130L335.416 124.226V135.774L345.416 130ZM327.248 130V131H336.416V130V129H327.248V130Z" fill="currentColor"/>
<defs>
<filter id="filter0_d_pipedream" x="25" y="98" width="84" height="67" filterUnits="userSpaceOnUse" color-interpolation-filters="sRGB">
<feFlood flood-opacity="0" result="BackgroundImageFix"/>
<feColorMatrix in="SourceAlpha" type="matrix" values="0 0 0 0 0 0 0 0 0 0 0 0 0 0 0 0 0 0 127 0" result="hardAlpha"/>
<feOffset dy="3"/>
<feComposite in2="hardAlpha" operator="out"/>
<feColorMatrix type="matrix" values="0 0 0 0 0.243 0 0 0 0 0.667 0 0 0 0 0.373 0 0 0 1 0"/>
<feBlend mode="normal" in2="BackgroundImageFix" result="effect1_dropShadow_pipedream"/>
<feBlend mode="normal" in="SourceGraphic" in2="effect1_dropShadow_pipedream" result="shape"/>
</filter>
<filter id="filter1_d_pipedream" x="132.334" y="98" width="84" height="67" filterUnits="userSpaceOnUse" color-interpolation-filters="sRGB">
<feFlood flood-opacity="0" result="BackgroundImageFix"/>
<feColorMatrix in="SourceAlpha" type="matrix" values="0 0 0 0 0 0 0 0 0 0 0 0 0 0 0 0 0 0 127 0" result="hardAlpha"/>
<feOffset dy="3"/>
<feComposite in2="hardAlpha" operator="out"/>
<feColorMatrix type="matrix" values="0 0 0 0 0.243 0 0 0 0 0.667 0 0 0 0 0.373 0 0 0 1 0"/>
<feBlend mode="normal" in2="BackgroundImageFix" result="effect1_dropShadow_pipedream"/>
<feBlend mode="normal" in="SourceGraphic" in2="effect1_dropShadow_pipedream" result="shape"/>
</filter>
<filter id="filter2_d_pipedream" x="239.666" y="98" width="85" height="67" filterUnits="userSpaceOnUse" color-interpolation-filters="sRGB">
<feFlood flood-opacity="0" result="BackgroundImageFix"/>
<feColorMatrix in="SourceAlpha" type="matrix" values="0 0 0 0 0 0 0 0 0 0 0 0 0 0 0 0 0 0 127 0" result="hardAlpha"/>
<feOffset dy="3"/>
<feComposite in2="hardAlpha" operator="out"/>
<feColorMatrix type="matrix" values="0 0 0 0 0.243 0 0 0 0 0.667 0 0 0 0 0.373 0 0 0 1 0"/>
<feBlend mode="normal" in2="BackgroundImageFix" result="effect1_dropShadow_pipedream"/>
<feBlend mode="normal" in="SourceGraphic" in2="effect1_dropShadow_pipedream" result="shape"/>
</filter>
<filter id="filter3_d_pipedream" x="348" y="98" width="85" height="67" filterUnits="userSpaceOnUse" color-interpolation-filters="sRGB">
<feFlood flood-opacity="0" result="BackgroundImageFix"/>
<feColorMatrix in="SourceAlpha" type="matrix" values="0 0 0 0 0 0 0 0 0 0 0 0 0 0 0 0 0 0 127 0" result="hardAlpha"/>
<feOffset dy="3"/>
<feComposite in2="hardAlpha" operator="out"/>
<feColorMatrix type="matrix" values="0 0 0 0 0.243 0 0 0 0 0.667 0 0 0 0 0.373 0 0 0 1 0"/>
<feBlend mode="normal" in2="BackgroundImageFix" result="effect1_dropShadow_pipedream"/>
<feBlend mode="normal" in="SourceGraphic" in2="effect1_dropShadow_pipedream" result="shape"/>
</filter>
</defs>
</svg>
