<svg width="130" height="35" viewBox="0 0 342 91" fill="none" xmlns="http://www.w3.org/2000/svg">
<path d="M59.4766 15.4238L66.1221 19.248L66.3398 19.373V56.9922L66.1221 57.1172L39.8711 72.2236V63.5742L40.0879 63.4492L43.5312 61.4697L47.9639 58.915L58.8262 52.6641V24.2012L34.0957 38.4336V90.3496L26.582 85.7227V34.1074L59.0439 15.4238L59.2607 15.2998L59.4766 15.4238ZM46.1865 7.77441L53.4854 11.9746L20.8047 30.7842V82.165L13.498 77.665L13.291 77.5381V26.4561L45.7529 7.77441L45.9697 7.65039L46.1865 7.77441ZM300.225 32.3564C310.498 32.3564 317.739 38.5961 319.927 48.6279H311.589C309.824 42.3885 305.779 39.2716 300.308 39.2715C292.984 39.2715 288.099 45.2581 288.099 55.2021C288.099 65.146 292.901 70.9686 300.395 70.9688C305.953 70.9688 310.246 67.9339 311.929 61.9473H320.267C318.079 72.1486 310.415 77.9658 300.395 77.9658V77.9609C287.512 77.9608 279.679 68.9382 279.679 55.2021C279.679 41.466 287.512 32.3566 300.225 32.3564ZM188.662 32.3564C201.04 32.3564 208.704 40.786 208.874 54.1875L205.338 57.7275H177.046C177.803 65.8163 182.183 71.1288 189.424 71.1289L189.419 71.1338C194.638 71.1338 198.431 68.3512 200.366 62.957H208.786C206.599 72.8183 199.44 77.9609 189.419 77.9609C176.202 77.9609 168.538 68.861 168.538 55.2021C168.538 41.5432 176.284 32.3565 188.662 32.3564ZM255.792 32.3564C268.17 32.3564 275.834 40.786 276.004 54.1875L272.468 57.7275H244.176C244.933 65.8163 249.312 71.1288 256.554 71.1289V71.1338C261.772 71.1338 265.566 68.3512 267.501 62.957H275.922C273.734 72.8185 266.574 77.9609 256.554 77.9609C243.332 77.9609 235.668 68.861 235.668 55.2021C235.668 41.5432 243.414 32.3565 255.792 32.3564ZM122.365 16.8428C134.409 16.8428 140.976 23.9221 140.977 34.9688C140.976 46.0153 134.409 53.0957 122.365 53.0957H104.347V77.0342H95.252V16.8428H122.365ZM235.812 23.8398H225.962V33.4492H234.717V40.6162H225.962V77.0342H217.711V40.6162H210.47V33.4492H217.711V23.5L225.287 16.8428H235.812V23.8398ZM168.636 40.6162H152.974V77.0332H144.724L144.806 40.0234L152.3 33.4492H168.636V40.6162ZM333.237 33.4482H341.91V40.6152H333.237V69.8662H341.91V77.0332H330.118L324.899 71.8906V20.3818H333.237V33.4482ZM32.8945 0.124023L40.1943 4.3252L7.51367 23.1338V73.9785L0 69.3525V18.8086L32.4619 0.124023L32.6777 0L32.8945 0.124023ZM188.75 39.1836C182.857 39.1836 178.395 43.8205 177.216 51.3223H200.793C199.609 43.3982 195.065 39.1837 188.75 39.1836ZM255.88 39.1836C249.987 39.1836 245.524 43.8205 244.346 51.3223H267.923C266.739 43.3982 262.195 39.1837 255.88 39.1836ZM104.347 45.418H119.839V45.4238C126.658 45.4237 131.795 42.7226 131.795 34.9688C131.795 28.2245 127.837 24.5148 119.839 24.5146H104.347V45.418Z" fill="white"/>
</svg>
