<svg width="26" height="36" viewBox="0 0 285 389" fill="none" xmlns="http://www.w3.org/2000/svg">
<path d="M255.517 66.2607L284.065 82.6904L285 83.2295V244.843L284.065 245.382L171.288 310.28V273.12L172.222 272.581L187.012 264.078L206.055 253.104L252.721 226.248V103.969L146.478 165.112V388.149L114.198 368.272V146.528L253.655 66.2607L254.586 65.7275L255.517 66.2607ZM198.418 33.3994L229.775 51.4453L89.3789 132.251V352.985L57.9873 333.655L57.1006 333.111V113.658L196.557 33.3994L197.487 32.8652L198.418 33.3994ZM141.318 0.53418L172.676 18.5801L32.2793 99.3848V317.818L0 297.943V80.8018L139.457 0.53418L140.388 0L141.318 0.53418Z" fill="white"/>
</svg>
