<svg width="34" height="34" viewBox="0 0 118 178" fill="none" xmlns="http://www.w3.org/2000/svg">
  <rect x="73.88" y="150.61" width="14.71" height="14.65" transform="translate(-96.16 149.32) rotate(-60)" fill="#4c00ff"/>
  <path d="M52.87,116.08l4.51,2.6c1.75,1.01,2.35,3.25,1.34,5l-12.88,22.31,12.69,7.33,12.88-22.31c1.01-1.75,3.25-2.35,5-1.34l4.5,2.6v-32.38l-28.04,16.19h0Z" fill="#4c00ff"/>
  <rect x="23.12" y="121.31" width="14.71" height="14.65" transform="translate(-96.16 90.71) rotate(-60)" fill="#4c00ff"/>
  <path d="M111.02,47.73c-2-1.16-7.31-3.47-13.33,0L6.67,100.29c-6.02,3.47-6.67,9.23-6.67,11.55s.65,8.07,6.67,11.55l1.1.64,12.88-22.31c1.01-1.75,3.25-2.35,5-1.34l12.51,7.22h0s32.26-18.63,32.26-18.63c.08-.26.18-.52.32-.76l11.05-19.14c1.01-1.75,3.25-2.35,5-1.34l19.03,10.99c1.75,1.01,2.35,3.25,1.34,5l-11.05,19.14c-.14.25-.31.46-.5.66v37.25h0l12.51,7.22c1.75,1.01,2.35,3.25,1.34,5l-12.88,22.31,1.1.64c6.02,3.47,11.33,1.16,13.33,0,2-1.16,6.67-4.6,6.67-11.55V59.28c0-6.95-4.66-10.39-6.67-11.55Z" fill="#4c00ff"/>
</svg>
