<?xml version="1.0" encoding="UTF-8"?> <svg xmlns="http://www.w3.org/2000/svg" xmlns:xlink="http://www.w3.org/1999/xlink" version="1.1" id="Layer_1" x="0px" y="0px" width="180" height="35" viewBox="0 0 103.09084 20.29714" xml:space="preserve"> <g> <g> <g> <path fill="#ffffff" d="M29.60493,16.43626V4.35435h5.4794c2.56957,0,4.49247,1.36134,4.49247,3.91389v0.17013 c0,1.83789-0.97002,3.04601-2.48434,3.59055l2.84173,4.40735h-3.14816l-2.51839-4.08401h-1.80384v4.08401H29.60493z M32.46379,10.00398h2.29719c1.08907,0,1.8548-0.45953,1.8548-1.56562V8.26824c0-1.10609-0.76573-1.56551-1.8548-1.56551 h-2.29719V10.00398z"></path> <path fill="#ffffff" d="M40.17067,12.11403v-0.17024c0-2.70565,1.78671-4.52641,4.59439-4.52641 c3.04601,0,4.56056,2.11005,4.39033,5.19011h-6.41537c0.11928,1.37836,0.79978,2.04206,2.00813,2.04206 c0.95288,0,1.46337-0.40846,1.68457-0.91894h2.67171c-0.45953,1.76968-2.00813,2.92685-4.33937,2.92685 C41.92332,16.65746,40.17067,14.87075,40.17067,12.11403z M46.46675,11.09305c-0.08501-1.08907-0.68072-1.71872-1.73574-1.71872 c-1.12312,0-1.75266,0.54453-1.95694,1.71872H46.46675z"></path> <path fill="#ffffff" d="M49.97369,12.11403v-0.17024c0-2.56946,1.37836-4.52641,3.74365-4.52641 c1.27622,0,2.16101,0.59561,2.67149,1.37836V3.63969h2.73981v12.79657h-2.55244l-0.08523-1.41241 c-0.35738,0.8168-1.27622,1.63361-2.68863,1.63361C51.42015,16.65746,49.97369,14.73456,49.97369,12.11403z M56.47406,12.11403 v-0.17024c0-1.63361-0.61263-2.48434-1.87193-2.48434c-1.27622,0-1.87172,0.85074-1.87172,2.48434v0.17024 c0,1.61658,0.59549,2.48446,1.87172,2.48446C55.86143,14.59848,56.47406,13.73061,56.47406,12.11403z"></path> <path fill="#ffffff" d="M62.57139,16.43626l-2.56957-8.79768h2.73981l1.44645,5.97286l1.42933-5.97286h2.63766l1.44624,6.00691 l1.4805-6.00691h2.67171l-2.58649,8.79768h-2.84195l-1.51433-5.88774l-1.49763,5.88774H62.57139z"></path> <path fill="#ffffff" d="M73.87901,12.11403v-0.17024c0-2.65458,1.82076-4.52641,4.61153-4.52641 c2.77364,0,4.61153,1.87183,4.61153,4.52641v0.17024c0,2.67161-1.83789,4.54343-4.61153,4.54343 C75.69976,16.65746,73.87901,14.78563,73.87901,12.11403z M80.34534,12.11403v-0.17024c0-1.59956-0.57858-2.4503-1.8548-2.4503 c-1.29335,0-1.8548,0.85074-1.8548,2.4503v0.17024c0,1.61658,0.56145,2.46743,1.8548,2.46743 C79.76675,14.58146,80.34534,13.73061,80.34534,12.11403z"></path> <path fill="#ffffff" d="M83.90744,12.11403v-0.17024c0-2.65458,1.82076-4.52641,4.61153-4.52641 c2.77364,0,4.61153,1.87183,4.61153,4.52641v0.17024c0,2.67161-1.83789,4.54343-4.61153,4.54343 C85.7282,16.65746,83.90744,14.78563,83.90744,12.11403z M90.37377,12.11403v-0.17024c0-1.59956-0.57858-2.4503-1.8548-2.4503 c-1.29335,0-1.8548,0.85074-1.8548,2.4503v0.17024c0,1.61658,0.56145,2.46743,1.8548,2.46743 C89.79519,14.58146,90.37377,13.73061,90.37377,12.11403z"></path> <path fill="#ffffff" d="M93.93588,12.11403v-0.17024c0-2.56946,1.37836-4.52641,3.74364-4.52641 c1.27622,0,2.16101,0.59561,2.6715,1.37836V3.63969h2.73981v12.79657h-2.55244l-0.08523-1.41241 c-0.35738,0.8168-1.27621,1.63361-2.68862,1.63361C95.38233,16.65746,93.93588,14.73456,93.93588,12.11403z M100.43625,12.11403 v-0.17024c0-1.63361-0.61263-2.48434-1.87193-2.48434c-1.27621,0-1.87171,0.85074-1.87171,2.48434v0.17024 c0,1.61658,0.5955,2.48446,1.87171,2.48446C99.82362,14.59848,100.43625,13.73061,100.43625,12.11403z"></path> </g> </g> <g> <path fill="#E24650" d="M0,0v20.29714h7.59379v-1.80478H1.80462V1.80478h17.39386v16.68759h-7.79446v-2.90329v-0.64081v-3.45254 l2.09245,1.90934c0.30077,0.27467,0.68008,0.4316,1.12469,0.40542c0.41859-0.01309,0.79774-0.19612,1.08558-0.51006 l0.15677-0.16994l-4.4595-4.08042V7.23227l1.68712,1.5432c0.64081,0.58853,1.63476,0.54926,2.21011-0.09156l0.17002-0.18311 l-4.93045-4.49885l-0.51006,0.47079L5.70185,8.46161l0.17018,0.18303C6.15971,8.9716,6.59122,9.1678,7.03583,9.1678 c0.39241,0,0.75863-0.14384,1.04631-0.40542l1.5171-1.50401v1.63476v0.2354L5.3096,13.07812l0.15693,0.18311 c0.30077,0.32695,0.71936,0.52315,1.16396,0.52315c0.39225,0,0.75847-0.14392,1.04615-0.39241l1.92259-1.83088v3.38717v0.64081 v4.70806h11.40401V0H0z"></path> </g> </g> </svg> 