<svg width="458" height="260" viewBox="0 0 458 260" fill="none" xmlns="http://www.w3.org/2000/svg">
  <rect width="458" height="260" rx="8" fill="#1A1D2E"/>
  <rect x="0" y="0" width="458" height="38" rx="8" fill="#111320"/>
  <rect x="0" y="24" width="458" height="14" fill="#111320"/>
  <rect x="16" y="10" width="60" height="18" rx="3" fill="#E24650" opacity="0.9"/>
  <text x="20" y="23" font-family="monospace" font-size="9" font-weight="bold" fill="white">Redwood</text>
  <rect x="84" y="14" width="120" height="10" rx="2" fill="#2D3250"/>
  <rect x="0" y="38" width="80" height="222" fill="#0D0F1C"/>
  <rect x="10" y="52" width="60" height="10" rx="2" fill="#E24650" opacity="0.7"/>
  <rect x="10" y="70" width="60" height="10" rx="2" fill="#2D3250"/>
  <rect x="10" y="88" width="60" height="10" rx="2" fill="#2D3250"/>
  <rect x="10" y="106" width="60" height="10" rx="2" fill="#2D3250"/>
  <rect x="10" y="124" width="60" height="10" rx="2" fill="#2D3250"/>
  <!-- Job list view -->
  <rect x="92" y="48" width="354" height="28" rx="3" fill="#161829"/>
  <rect x="100" y="54" width="80" height="8" rx="2" fill="#E24650" opacity="0.6"/>
  <rect x="200" y="54" width="60" height="8" rx="2" fill="#2D3250"/>
  <rect x="280" y="54" width="40" height="8" rx="2" fill="#48C774"/>
  <rect x="92" y="82" width="354" height="28" rx="3" fill="#1E2035"/>
  <rect x="100" y="88" width="100" height="8" rx="2" fill="#2D3250"/>
  <rect x="200" y="88" width="60" height="8" rx="2" fill="#2D3250"/>
  <rect x="280" y="88" width="40" height="8" rx="2" fill="#48C774"/>
  <rect x="92" y="116" width="354" height="28" rx="3" fill="#161829"/>
  <rect x="100" y="122" width="70" height="8" rx="2" fill="#2D3250"/>
  <rect x="200" y="122" width="60" height="8" rx="2" fill="#2D3250"/>
  <rect x="280" y="122" width="40" height="8" rx="2" fill="#E24650" opacity="0.5"/>
  <rect x="92" y="150" width="354" height="28" rx="3" fill="#1E2035"/>
  <rect x="100" y="156" width="90" height="8" rx="2" fill="#2D3250"/>
  <rect x="200" y="156" width="60" height="8" rx="2" fill="#2D3250"/>
  <rect x="280" y="156" width="40" height="8" rx="2" fill="#48C774"/>
  <!-- Schedule timeline -->
  <rect x="92" y="190" width="354" height="50" rx="4" fill="#161829" stroke="#2D3250" stroke-width="1"/>
  <rect x="100" y="198" width="60" height="6" rx="2" fill="#E24650" opacity="0.5"/>
  <rect x="100" y="210" width="330" height="3" fill="#2D3250"/>
  <rect x="120" y="206" width="40" height="10" rx="2" fill="#E24650" opacity="0.7"/>
  <rect x="200" y="206" width="60" height="10" rx="2" fill="#E24650" opacity="0.5"/>
  <rect x="310" y="206" width="50" height="10" rx="2" fill="#E24650" opacity="0.4"/>
  <rect x="92" y="238" width="354" height="14" rx="3" fill="#0D0F1C"/>
  <circle cx="108" cy="245" r="5" fill="#48C774"/>
  <rect x="120" y="240" width="90" height="8" rx="2" fill="#2D3250"/>
</svg>