<svg width="34" height="34" viewBox="0 0 364 364" fill="none" xmlns="http://www.w3.org/2000/svg">
  <rect width="364" height="364" rx="20" fill="#E24650"/>
  <path fill="#FFFFFF" d="M41.8,46v271.7h100.4v-24.2H66V70.1h232v223.4H193.7v-38.9V246v-46.2l28,25.6c4,3.7,9.1,5.8,15.1,5.4
    c5.6-0.2,10.7-2.6,14.5-6.8l2.1-2.3l-59.7-54.6v-24.3l22.6,20.7c8.6,7.9,21.9,7.3,29.6-1.2l2.3-2.4l-66-60.2l-6.8,6.3l-57.9,53.4
    l2.3,2.4c3.8,4.4,9.6,7,15.6,7c5.2,0,10.2-1.9,14-5.4l20.3-20.1v21.9v3.2l-57.4,52.9l2.1,2.5c4,4.4,9.6,7,15.6,7
    c5.3,0,10.2-1.9,14-5.2l25.7-24.5v45.3v8.6v63h152.6V46H41.8z"/>
</svg>
