<svg width="458" height="260" viewBox="0 0 458 260" fill="none" xmlns="http://www.w3.org/2000/svg">
  <rect width="458" height="260" rx="8" fill="#1A1D2E"/>
  <rect x="0" y="0" width="458" height="38" rx="8" fill="#111320"/>
  <rect x="0" y="24" width="458" height="14" fill="#111320"/>
  <!-- Top bar -->
  <rect x="16" y="10" width="52" height="18" rx="3" fill="#FF9900" opacity="0.9"/>
  <text x="20" y="23" font-family="monospace" font-size="9" fill="white">Rundeck</text>
  <!-- Sidebar -->
  <rect x="0" y="38" width="70" height="222" fill="#0D0F1C"/>
  <rect x="12" y="52" width="46" height="10" rx="2" fill="#2D3250"/>
  <rect x="12" y="70" width="46" height="10" rx="2" fill="#FF9900" opacity="0.7"/>
  <rect x="12" y="88" width="46" height="10" rx="2" fill="#2D3250"/>
  <rect x="12" y="106" width="46" height="10" rx="2" fill="#2D3250"/>
  <!-- Jobs list -->
  <rect x="82" y="48" width="100" height="14" rx="3" fill="#2D3250"/>
  <rect x="350" y="46" width="88" height="18" rx="3" fill="#FF9900" opacity="0.7"/>
  <!-- Table header -->
  <rect x="82" y="74" width="364" height="24" rx="3" fill="#1E2235"/>
  <rect x="90" y="80" width="70" height="10" rx="2" fill="#3D4466"/>
  <rect x="200" y="80" width="80" height="10" rx="2" fill="#3D4466"/>
  <rect x="330" y="80" width="60" height="10" rx="2" fill="#3D4466"/>
  <!-- Job rows -->
  <rect x="82" y="104" width="364" height="28" rx="2" fill="#161829"/>
  <circle cx="96" cy="118" r="5" fill="#48C774"/>
  <rect x="108" y="113" width="130" height="10" rx="2" fill="#2D3250"/>
  <rect x="270" y="113" width="80" height="10" rx="2" fill="#2D3250"/>
  <rect x="370" y="111" width="60" height="14" rx="2" fill="#48C774" opacity="0.3"/>

  <rect x="82" y="138" width="364" height="28" rx="2" fill="#1A1D2E"/>
  <circle cx="96" cy="152" r="5" fill="#48C774"/>
  <rect x="108" y="147" width="150" height="10" rx="2" fill="#2D3250"/>
  <rect x="270" y="147" width="80" height="10" rx="2" fill="#2D3250"/>
  <rect x="370" y="145" width="60" height="14" rx="2" fill="#48C774" opacity="0.3"/>

  <rect x="82" y="172" width="364" height="28" rx="2" fill="#161829"/>
  <circle cx="96" cy="186" r="5" fill="#FFDD57"/>
  <rect x="108" y="181" width="100" height="10" rx="2" fill="#2D3250"/>
  <rect x="270" y="181" width="80" height="10" rx="2" fill="#2D3250"/>
  <rect x="370" y="179" width="60" height="14" rx="2" fill="#FFDD57" opacity="0.3"/>

  <rect x="82" y="206" width="364" height="28" rx="2" fill="#1A1D2E"/>
  <circle cx="96" cy="220" r="5" fill="#48C774"/>
  <rect x="108" y="215" width="120" height="10" rx="2" fill="#2D3250"/>
  <rect x="270" y="215" width="80" height="10" rx="2" fill="#2D3250"/>
  <rect x="370" y="213" width="60" height="14" rx="2" fill="#48C774" opacity="0.3"/>
</svg>
