<svg viewBox="0 0 217 33.5" xmlns="http://www.w3.org/2000/svg" width="180" height="28" fill="currentColor">
<path d="M34.4 32.1h4.1V19.4h.9l8.2 12.7h4.7l-8.6-13.2c2.3-.4 4.4-1.6 6-3.3 1.3-1.5 2-3.5 2-5.4.1-2.5-1.1-4.8-3-6.4-2.2-1.7-5-2.6-7.8-2.5h-6.4zM38.5 5c1.7 0 3.4.1 5.1.5 1.1.2 2.1.8 2.8 1.7s1.1 2.1 1 3.2c0 3.7-3 5.5-8.9 5.4zm19 14.5c0 4.5 1.1 7.9 3.2 10.1 2.2 2.3 5.3 3.6 8.4 3.4 3.1.1 6.1-1.1 8.3-3.4 2.2-2.5 3.3-5.8 3.1-9.1V1.3h-4V21c.1 2.2-.6 4.3-2 6-1.5 1.5-3.5 2.2-5.5 2.1-2.1.1-4.1-.7-5.5-2.3-1.4-1.9-2.1-4.2-1.9-6.5v-19h-4zm28.6 12.6h4.1V10.2l21.9 23.3V1.2h-4v22.2L86.1 0zm31.7-.4h7.1c5.4 0 9.5-1.5 12.3-4.6 2.8-2.8 4.3-6.7 4.3-10.6s-1.5-7.7-4.1-10.6c-2.7-3.1-6.9-4.6-12.5-4.6h-7.1zm6-26.4c2.4-.1 4.8.2 7.1 1 1.9.8 3.5 2.1 4.5 3.8 2.3 3.4 2.5 7.8.7 11.5-.7 1.5-1.9 2.8-3.2 3.7s-2.7 1.5-4.3 1.8c-2.2.3-4.5.5-6.7.4h-.2V5.3zm21.9 26.4h16.2v-4.1h-12.2V17.1h12.2V13h-12.2V5.4h12.2V1.2h-16.2zm44.5-29.5c-2.8-1.3-5.8-2-8.9-2.1-8.9 0-16.1 7.2-16.1 16.2s7.4 16.3 16.4 16.3c3 0 6-.7 8.6-2.2v-4.8c-2.5 1.6-5.3 2.5-8.2 2.6-3.3.1-6.5-1.1-8.9-3.4l-.1-.1c-2.2-2.2-3.5-5.3-3.5-8.4 0-3.2 1.2-6.2 3.5-8.4 2.3-2.3 5.4-3.5 8.6-3.4 3 .1 6 .9 8.7 2.4zm4.7 29.5h4V16.9l13 14.9h5.1l-14.2-16.3L217 1.3h-5.6L199 13.6V1.2h-4z"/>
<path d="M20.2 1.3l4 6.4H4L0 1.3zM8.1 14.1h20.2l2 3.1-2 3.2H8l2.1-3.4zm16.1 12.7l-4 6.4H0V33l4-6.2z" fill="#f91629"/>
</svg>
