<svg width="127" height="26" viewBox="0 0 127 26" fill="none" xmlns="http://www.w3.org/2000/svg">
<path d="M32.593 19.5126C31.6458 19.2246 30.8954 18.8413 30.3438 18.3647L31.1915 16.4643C31.731 16.8902 32.3922 17.239 33.1771 17.5088C33.96 17.7785 34.7489 17.9144 35.5399 17.9144C36.5175 17.9144 37.2496 17.7582 37.7323 17.4439C38.215 17.1295 38.4564 16.7158 38.4564 16.2026C38.4564 15.8254 38.3205 15.5151 38.0508 15.2717C37.781 15.0263 37.4383 14.8357 37.0245 14.6977C36.6108 14.5598 36.0469 14.4037 35.331 14.2272C34.3271 13.9899 33.5158 13.7506 32.8931 13.5113C32.2725 13.274 31.7391 12.8988 31.2929 12.3917C30.8467 11.8827 30.6257 11.1971 30.6257 10.3311C30.6257 9.60301 30.8224 8.94183 31.2179 8.34555C31.6134 7.74927 32.2097 7.27671 33.0047 6.92381C33.8018 6.57293 34.7773 6.39648 35.9313 6.39648C36.7345 6.39648 37.5234 6.49789 38.3023 6.69665C39.0811 6.89744 39.7524 7.18544 40.3162 7.56268L39.5455 9.46306C38.9675 9.12436 38.3672 8.86678 37.7384 8.69236C37.1117 8.51591 36.5033 8.4287 35.9131 8.4287C34.9477 8.4287 34.2297 8.59298 33.7592 8.91749C33.2886 9.24402 33.0534 9.67602 33.0534 10.2155C33.0534 10.5927 33.1872 10.899 33.459 11.1383C33.7287 11.3776 34.0715 11.5642 34.4853 11.7022C34.899 11.8401 35.4649 11.9962 36.1788 12.1727C37.1563 12.3978 37.9595 12.6331 38.5882 12.8785C39.2149 13.1239 39.7524 13.4971 40.1966 13.998C40.6427 14.501 40.8638 15.1784 40.8638 16.0302C40.8638 16.7584 40.6671 17.4175 40.2716 18.0057C39.8761 18.5959 39.2778 19.0664 38.4746 19.4173C37.6715 19.7681 36.6919 19.9446 35.5379 19.9446C34.5218 19.9446 33.5401 19.8006 32.593 19.5126Z" fill="#2D3A47"/>
<path d="M35.5366 20.0479C34.5144 20.0479 33.5145 19.8999 32.5613 19.6099C31.604 19.3178 30.8353 18.9264 30.2755 18.4416L30.2188 18.393L31.1497 16.304L31.2511 16.3851C31.7784 16.8029 32.4376 17.1477 33.2062 17.4134C33.9749 17.6791 34.7578 17.8129 35.5346 17.8129C36.4878 17.8129 37.2078 17.6608 37.6722 17.3586C38.1286 17.0625 38.3496 16.6832 38.3496 16.2005C38.3496 15.8517 38.228 15.5698 37.9785 15.3446C37.7209 15.1114 37.3883 14.9248 36.9887 14.791C36.577 14.6551 36.0112 14.4969 35.3033 14.3225C34.3014 14.0852 33.478 13.8438 32.8533 13.6045C32.2205 13.3611 31.6689 12.9758 31.2146 12.4565C30.7542 11.9313 30.5209 11.2153 30.5209 10.329C30.5209 9.58467 30.7258 8.89713 31.1314 8.28665C31.535 7.67617 32.1516 7.18739 32.9629 6.8284C33.7701 6.47348 34.7679 6.29297 35.93 6.29297C36.7373 6.29297 37.5424 6.39438 38.3273 6.59719C39.1122 6.80001 39.8018 7.09612 40.3717 7.47741L40.4407 7.52406L39.5929 9.61104L39.4915 9.55222C38.9256 9.2196 38.3253 8.96406 37.7087 8.79166C37.0922 8.61927 36.4878 8.53206 35.9098 8.53206C34.9687 8.53206 34.2649 8.69025 33.8126 9.00259C33.3665 9.31087 33.1515 9.70839 33.1515 10.2175C33.1515 10.5663 33.2732 10.8442 33.5226 11.0632C33.7802 11.2924 34.1148 11.4749 34.5124 11.6067C34.92 11.7426 35.4879 11.9008 36.1978 12.0753C37.1733 12.3004 37.9886 12.5397 38.6194 12.7851C39.2583 13.0346 39.8119 13.4199 40.2683 13.931C40.7287 14.4502 40.9619 15.156 40.9619 16.0302C40.9619 16.7745 40.7571 17.458 40.3514 18.0624C39.9478 18.6668 39.3272 19.1535 38.5099 19.5105C37.6966 19.8654 36.6947 20.0459 35.5325 20.0459L35.5366 20.0479ZM30.4662 18.3382C30.9996 18.7824 31.7236 19.1454 32.6221 19.4172C33.5551 19.7011 34.5367 19.8451 35.5386 19.8451C36.6724 19.8451 37.6459 19.6707 38.4348 19.3259C39.2157 18.9852 39.8059 18.5207 40.1892 17.9508C40.5705 17.3809 40.7652 16.736 40.7652 16.0322C40.7652 15.2088 40.5482 14.5476 40.1223 14.0669C39.6903 13.5801 39.1609 13.211 38.5525 12.9737C37.9318 12.7324 37.1246 12.4951 36.1572 12.272C35.4392 12.0955 34.8673 11.9373 34.4535 11.7994C34.0297 11.6575 33.6727 11.4607 33.3928 11.2153C33.1008 10.9577 32.9547 10.6231 32.9547 10.2175C32.9547 9.64552 33.2062 9.18107 33.7031 8.83628C34.1899 8.49961 34.9342 8.32924 35.9159 8.32924C36.5121 8.32924 37.1348 8.41848 37.7696 8.59696C38.3659 8.7653 38.948 9.00665 39.4976 9.32101L40.1932 7.60519C39.6558 7.25837 39.0108 6.9866 38.2787 6.79798C37.512 6.60125 36.7231 6.49984 35.9321 6.49984C34.7983 6.49984 33.8268 6.67426 33.046 7.01905C32.2712 7.35978 31.6851 7.82626 31.3018 8.40226C30.9205 8.97825 30.7258 9.62726 30.7258 10.331C30.7258 11.1666 30.9428 11.838 31.3687 12.3247C31.8007 12.8176 32.326 13.1847 32.9284 13.4159C33.5449 13.6532 34.3603 13.8925 35.352 14.1278C36.0659 14.3022 36.6379 14.4624 37.0536 14.6003C37.4796 14.7423 37.8365 14.9431 38.1164 15.1946C38.4064 15.4582 38.5545 15.7969 38.5545 16.2005C38.5545 16.7502 38.2949 17.1964 37.7838 17.5269C37.2869 17.8494 36.5304 18.0137 35.5366 18.0137C34.7375 18.0137 33.9323 17.8758 33.1413 17.604C32.399 17.3485 31.7561 17.0199 31.2288 16.6224L30.4662 18.3362V18.3382Z" fill="#2D3A47"/>
<path d="M42.3695 7.64608C42.0815 7.37634 41.9375 7.04169 41.9375 6.64012C41.9375 6.23854 42.0815 5.90389 42.3695 5.63415C42.6575 5.3644 43.0165 5.22852 43.4424 5.22852C43.8683 5.22852 44.2273 5.35832 44.5153 5.61387C44.8033 5.87144 44.9473 6.19392 44.9473 6.58333C44.9473 6.99707 44.8053 7.34591 44.5234 7.62783C44.2415 7.90974 43.8805 8.05171 43.4404 8.05171C43.0003 8.05171 42.6555 7.91786 42.3675 7.64608H42.3695ZM42.2559 9.70669H44.6086V19.7562H42.2559V9.70872V9.70669Z" fill="#2D3A47"/>
<path d="M44.7098 19.8595H42.1544V9.60716H44.7098V19.8595ZM42.3572 19.6567H44.507V9.80998H42.3572V19.6567ZM43.4422 8.15297C42.99 8.15297 42.6066 8.00694 42.3004 7.72097C41.9921 7.43297 41.8359 7.06993 41.8359 6.63996C41.8359 6.20999 41.9921 5.84695 42.3004 5.55895C42.6066 5.27298 42.992 5.12695 43.4422 5.12695C43.8925 5.12695 44.2758 5.26487 44.5821 5.53867C44.8924 5.8145 45.0485 6.1674 45.0485 6.58317C45.0485 7.02328 44.8964 7.39849 44.5963 7.69866C44.2961 7.99883 43.9067 8.15094 43.4422 8.15094V8.15297ZM43.4422 5.32977C43.0447 5.32977 42.706 5.45754 42.4383 5.70701C42.1686 5.9585 42.0367 6.26475 42.0367 6.63996C42.0367 7.01517 42.1686 7.32142 42.4383 7.57291C42.706 7.82238 43.0427 7.95015 43.4422 7.95015C43.8418 7.95015 44.1886 7.82035 44.4523 7.55669C44.718 7.291 44.8457 6.97258 44.8457 6.58317C44.8457 6.22216 44.7159 5.92808 44.4462 5.68875C44.1785 5.44943 43.8398 5.32774 43.4402 5.32774L43.4422 5.32977Z" fill="#2D3A47"/>
<path d="M62.2644 10.6969C63.0046 11.4311 63.3758 12.5324 63.3758 14.0008V19.7608H61.0231V14.303C61.0231 13.4248 60.8284 12.7636 60.439 12.3174C60.0496 11.8712 59.4919 11.6502 58.7638 11.6502C57.9728 11.6502 57.34 11.9098 56.8634 12.431C56.3868 12.9522 56.1474 13.6945 56.1474 14.662V19.7628H53.7948V14.305C53.7948 13.4268 53.6001 12.7656 53.2107 12.3194C52.8213 11.8733 52.2635 11.6522 51.5354 11.6522C50.7322 11.6522 50.0954 11.9098 49.6249 12.4229C49.1543 12.938 48.9191 13.6844 48.9191 14.662V19.7628H46.5664V9.70921H48.8055V10.989C49.1827 10.5367 49.6533 10.1919 50.2171 9.95461C50.7809 9.71529 51.4097 9.59766 52.0992 9.59766C52.8517 9.59766 53.521 9.73963 54.1031 10.0215C54.6851 10.3035 55.1476 10.7213 55.4863 11.2729C55.9 10.7456 56.4334 10.3359 57.0865 10.0398C57.7395 9.74571 58.4595 9.59766 59.2505 9.59766C60.5181 9.59766 61.5221 9.96475 62.2623 10.6989L62.2644 10.6969Z" fill="#2D3A47"/>
<path d="M63.4749 19.8601H60.9194V14.3009C60.9194 13.4531 60.7308 12.8061 60.3616 12.3822C59.9945 11.9624 59.4571 11.7495 58.7635 11.7495C58.007 11.7495 57.3924 12.0009 56.9381 12.4978C56.4818 12.9968 56.2506 13.7249 56.2506 14.6599V19.8621H53.6951V14.3029C53.6951 13.4551 53.5065 12.8082 53.1373 12.3843C52.7702 11.9644 52.2328 11.7515 51.5392 11.7515C50.7705 11.7515 50.1519 12.0009 49.7037 12.4897C49.2534 12.9826 49.0242 13.7127 49.0242 14.6619V19.8641H46.4688V9.60772H48.9107V10.7232C49.2636 10.3561 49.6895 10.0661 50.1823 9.85921C50.7563 9.61583 51.4033 9.49414 52.103 9.49414C52.8676 9.49414 53.5572 9.64017 54.1514 9.92817C54.7071 10.1979 55.1594 10.5914 55.5001 11.0984C55.9098 10.6137 56.429 10.2263 57.0476 9.94642C57.7108 9.64625 58.4531 9.49414 59.2543 9.49414C60.5422 9.49414 61.5806 9.87543 62.3371 10.6238C63.0936 11.3742 63.4769 12.51 63.4769 13.9987V19.8601H63.4749ZM61.1222 19.6573H63.2721V13.9987C63.2721 12.5648 62.909 11.4777 62.191 10.7678C61.4731 10.0559 60.4854 9.69696 59.2522 9.69696C58.4795 9.69696 57.7656 9.84298 57.1288 10.131C56.4939 10.417 55.9687 10.8226 55.5671 11.3337L55.4778 11.4473L55.4008 11.3235C55.0742 10.7901 54.622 10.3825 54.0602 10.1107C53.4943 9.8369 52.8331 9.69696 52.101 9.69696C51.4276 9.69696 50.809 9.81459 50.2574 10.0458C49.7097 10.277 49.2494 10.6157 48.8843 11.0518L48.7058 11.2668V9.80851H46.6695V19.6552H48.8194V14.6558C48.8194 13.6559 49.0648 12.8791 49.5516 12.3478C50.0403 11.8144 50.7076 11.5426 51.5371 11.5426C52.2916 11.5426 52.8818 11.7799 53.2895 12.2464C53.6931 12.7088 53.8979 13.4004 53.8979 14.2989V19.6552H56.0477V14.6558C56.0477 13.6681 56.2972 12.8954 56.7901 12.3579C57.2849 11.8184 57.9502 11.5446 58.7655 11.5446C59.52 11.5446 60.1102 11.7819 60.5178 12.2484C60.9214 12.7108 61.1263 13.4024 61.1263 14.3009V19.6573H61.1222Z" fill="#2D3A47"/>
<path d="M73.4536 10.2345C74.2243 10.6604 74.8307 11.2628 75.2708 12.0416C75.7089 12.8204 75.93 13.7168 75.93 14.733C75.93 15.7491 75.7109 16.6496 75.2708 17.4345C74.8307 18.2194 74.2263 18.8238 73.4536 19.2517C72.6829 19.6776 71.8067 19.8906 70.8292 19.8906C69.4744 19.8906 68.4015 19.4383 67.6105 18.5358V23.4094H65.2578V9.70921H67.4969V11.0275C67.8863 10.5509 68.365 10.1939 68.9369 9.95461C69.5088 9.71529 70.1376 9.59766 70.8292 9.59766C71.8067 9.59766 72.6829 9.81061 73.4536 10.2365V10.2345ZM72.7012 17.0106C73.2589 16.4326 73.5388 15.674 73.5388 14.733C73.5388 13.7919 73.2589 13.0334 72.7012 12.4553C72.1434 11.8793 71.4315 11.5893 70.5655 11.5893C70.0017 11.5893 69.4926 11.7191 69.0403 11.9747C68.5881 12.2322 68.2311 12.5993 67.9674 13.076C67.7038 13.5526 67.5719 14.1042 67.5719 14.733C67.5719 15.3617 67.7038 15.9133 67.9674 16.39C68.2311 16.8666 68.5881 17.2337 69.0403 17.4913C69.4926 17.7488 69.9997 17.8766 70.5655 17.8766C71.4315 17.8766 72.1434 17.5886 72.7012 17.0106Z" fill="#2D3A47"/>
<path d="M67.7078 23.5107H65.1523V9.60764H67.5943V10.7576C67.9593 10.3702 68.3954 10.0701 68.8943 9.86116C69.4744 9.61778 70.1254 9.49609 70.8251 9.49609C71.8169 9.49609 72.7154 9.71514 73.5003 10.1492C74.2851 10.5832 74.9098 11.2038 75.356 11.9948C75.8022 12.7858 76.0273 13.7066 76.0273 14.7369C76.0273 15.7672 75.8022 16.692 75.356 17.487C74.9098 18.2841 74.2851 18.9088 73.5003 19.3428C72.7174 19.7748 71.8169 19.9959 70.8251 19.9959C69.5453 19.9959 68.4968 19.5923 67.7078 18.7972V23.5147V23.5107ZM65.3552 23.3079H67.505V18.2659L67.6835 18.4687C68.4501 19.3448 69.5068 19.789 70.8251 19.789C71.7824 19.789 72.6484 19.5781 73.4009 19.1623C74.1513 18.7465 74.7496 18.1503 75.1775 17.3856C75.6055 16.621 75.8225 15.7286 75.8225 14.7348C75.8225 13.741 75.6055 12.8527 75.1775 12.0942C74.7496 11.3377 74.1513 10.7414 73.4009 10.3256C72.6484 9.90984 71.7804 9.69891 70.8251 9.69891C70.1518 9.69891 69.5291 9.81654 68.9734 10.0498C68.4197 10.281 67.9492 10.6319 67.574 11.0923L67.3935 11.3133V9.81249H65.3572V23.3079H65.3552ZM70.5615 17.9779C69.9814 17.9779 69.452 17.844 68.9876 17.5783C68.5211 17.3126 68.1479 16.9293 67.8762 16.4385C67.6064 15.9477 67.4685 15.3757 67.4685 14.7328C67.4685 14.0899 67.6064 13.5179 67.8762 13.0271C68.1479 12.5363 68.5211 12.153 68.9876 11.8873C69.4541 11.6216 69.9834 11.4877 70.5615 11.4877C71.4518 11.4877 72.1941 11.7899 72.7701 12.3842C73.3441 12.9784 73.6361 13.7674 73.6361 14.7328C73.6361 15.6982 73.3441 16.4872 72.7701 17.0814C72.1941 17.6757 71.4518 17.9779 70.5615 17.9779ZM70.5615 11.6926C70.0179 11.6926 69.521 11.8183 69.087 12.0658C68.653 12.3132 68.3061 12.6702 68.0526 13.1285C67.7991 13.5889 67.6693 14.1284 67.6693 14.7348C67.6693 15.3413 67.7971 15.8828 68.0526 16.3411C68.3061 16.7995 68.653 17.1565 69.087 17.4039C69.521 17.6513 70.0179 17.7771 70.5615 17.7771C71.395 17.7771 72.0887 17.4972 72.6241 16.9415C73.1615 16.3858 73.4333 15.6434 73.4333 14.7348C73.4333 13.8262 73.1615 13.0839 72.6241 12.5282C72.0887 11.9745 71.393 11.6926 70.5615 11.6926Z" fill="#2D3A47"/>
<path d="M77.5156 5.79297H79.8683V19.7589H77.5156V5.79297Z" fill="#2D3A47"/>
<path d="M79.9695 19.8601H77.4141V5.69141H79.9695V19.8601ZM77.6169 19.6573H79.7667V5.89422H77.6169V19.6573Z" fill="#2D3A47"/>
<path d="M92.5988 9.70906L87.8934 20.5678C87.4533 21.659 86.9199 22.4277 86.2932 22.8738C85.6665 23.318 84.9059 23.5411 84.0156 23.5411C83.5146 23.5411 83.0177 23.46 82.5289 23.2957C82.0402 23.1335 81.6386 22.9063 81.3242 22.6183L82.2653 20.8862C82.4904 21.0992 82.7581 21.2696 83.0644 21.3953C83.3727 21.5211 83.683 21.5839 83.9953 21.5839C84.4091 21.5839 84.7518 21.4764 85.0216 21.2635C85.2913 21.0505 85.5387 20.6915 85.7659 20.1906L85.9342 19.7951L81.5493 9.70703H83.9953L87.1572 17.1402L90.3374 9.70703H92.5967L92.5988 9.70906Z" fill="#2D3A47"/>
<path d="M84.0184 23.6422C83.5073 23.6422 82.9962 23.5591 82.4993 23.3928C81.9983 23.2264 81.5805 22.9912 81.258 22.693L81.1992 22.6403L82.2417 20.7237L82.337 20.815C82.554 21.0198 82.8116 21.1821 83.1057 21.3037C83.3998 21.4234 83.6999 21.4843 83.9981 21.4843C84.3855 21.4843 84.71 21.3849 84.9615 21.1861C85.217 20.9833 85.4563 20.6365 85.6754 20.1518L85.8275 19.7989L81.398 9.60938H84.067L87.162 16.8864L90.2752 9.60938H92.7557L87.9895 20.6101C87.5453 21.7114 86.9957 22.5024 86.3548 22.9587C85.7119 23.4151 84.927 23.6463 84.0184 23.6463V23.6422ZM81.4548 22.5957C81.7488 22.8492 82.12 23.052 82.5642 23.2001C83.0408 23.3583 83.5296 23.4394 84.0184 23.4394C84.8824 23.4394 85.6287 23.2204 86.2372 22.7904C86.8456 22.3584 87.3709 21.5978 87.8009 20.529L92.4454 9.80813H90.4091L87.162 17.3995L83.9332 9.80813H81.7083L86.0486 19.7948L85.862 20.2308C85.6287 20.748 85.3691 21.1212 85.0892 21.3423C84.8012 21.5694 84.4362 21.685 84.0001 21.685C83.6756 21.685 83.3491 21.6201 83.0306 21.4883C82.7568 21.3768 82.5094 21.2287 82.2965 21.0482L81.4548 22.5957Z" fill="#2D3A47"/>
<path d="M101.002 16.7106H94.4148L93.1168 19.7589H90.5938L96.5221 6.58398H98.9315L104.878 19.7589H102.319L101 16.7106H101.002ZM100.193 14.7899L97.7085 9.03197L95.2423 14.7899H100.191H100.193Z" fill="#2D3A47"/>
<path d="M105.036 19.8602H102.254L100.935 16.8118H94.4817L93.1836 19.8602H90.4375L96.4571 6.48242H98.9963L105.036 19.8602ZM102.385 19.6573H104.722L98.8665 6.68524H96.5889L90.7519 19.6573H93.0498L94.3478 16.609H101.069L102.387 19.6573H102.385ZM100.347 14.8912H95.0901L97.7085 8.77424L100.347 14.8912ZM95.3963 14.6884H100.039L97.7085 9.28737L95.3963 14.6884Z" fill="#2D3A47"/>
<path d="M107.762 19.57C106.984 19.3571 106.363 19.0873 105.898 18.7608L106.801 16.974C107.253 17.2742 107.795 17.5175 108.43 17.6981C109.062 17.8806 109.687 17.9719 110.302 17.9719C111.707 17.9719 112.409 17.6027 112.409 16.8624C112.409 16.5116 112.23 16.2662 111.873 16.1283C111.516 15.9903 110.942 15.8585 110.151 15.7328C109.324 15.607 108.649 15.463 108.127 15.3008C107.606 15.1385 107.154 14.8525 106.773 14.4449C106.389 14.0372 106.199 13.4693 106.199 12.7412C106.199 11.788 106.596 11.0254 107.393 10.4555C108.19 9.88558 109.265 9.59961 110.62 9.59961C111.31 9.59961 111.999 9.67871 112.691 9.83488C113.38 9.99104 113.946 10.202 114.384 10.4656L113.482 12.2545C112.628 11.7535 111.669 11.502 110.602 11.502C109.912 11.502 109.389 11.6055 109.03 11.8123C108.673 12.0192 108.494 12.293 108.494 12.6317C108.494 13.0089 108.685 13.2746 109.068 13.4308C109.452 13.587 110.044 13.735 110.847 13.8729C111.65 13.9987 112.309 14.1427 112.823 14.3049C113.338 14.4672 113.78 14.7451 114.149 15.1324C114.518 15.5218 114.705 16.0735 114.705 16.7894C114.705 17.7305 114.297 18.4829 113.482 19.0488C112.666 19.6126 111.555 19.8966 110.151 19.8966C109.336 19.8966 108.539 19.7891 107.762 19.5761V19.57Z" fill="#2D3A47"/>
<path d="M110.152 19.9918C109.331 19.9918 108.518 19.8823 107.735 19.6673C106.948 19.4523 106.311 19.1745 105.841 18.8439L105.77 18.7932L106.763 16.8259L106.859 16.8887C107.301 17.1828 107.838 17.4221 108.459 17.6006C109.079 17.7791 109.7 17.8704 110.304 17.8704C111.635 17.8704 112.31 17.5317 112.31 16.8624C112.31 16.5541 112.156 16.3452 111.84 16.2235C111.491 16.0896 110.919 15.9578 110.138 15.8341C109.311 15.7083 108.625 15.5623 108.1 15.398C107.564 15.2297 107.094 14.9336 106.7 14.5138C106.301 14.0899 106.098 13.4916 106.098 12.7411C106.098 11.7575 106.514 10.9604 107.335 10.3723C108.147 9.79221 109.252 9.49609 110.623 9.49609C111.317 9.49609 112.02 9.57519 112.716 9.73339C113.414 9.89159 113.994 10.1086 114.44 10.3763L114.521 10.425L113.527 12.3943L113.434 12.3396C112.6 11.8488 111.649 11.6013 110.607 11.6013C109.937 11.6013 109.426 11.7007 109.086 11.8974C108.759 12.0861 108.601 12.3254 108.601 12.6276C108.601 12.9622 108.767 13.1934 109.112 13.3334C109.485 13.4875 110.077 13.6335 110.87 13.7694C111.673 13.8952 112.343 14.0412 112.86 14.2055C113.387 14.3738 113.85 14.6598 114.229 15.0593C114.616 15.467 114.813 16.0471 114.813 16.7853C114.813 17.7568 114.387 18.5457 113.545 19.1278C112.716 19.7018 111.576 19.9918 110.156 19.9918H110.152ZM106.029 18.7283C106.473 19.0244 107.066 19.2759 107.79 19.4726C108.554 19.6835 109.349 19.789 110.152 19.789C111.53 19.789 112.631 19.5091 113.426 18.9595C114.209 18.418 114.606 17.6858 114.606 16.7853C114.606 16.0998 114.43 15.5664 114.079 15.1993C113.722 14.8241 113.29 14.5543 112.795 14.3982C112.288 14.2379 111.629 14.0939 110.834 13.9682C110.025 13.8303 109.42 13.6782 109.033 13.52C108.611 13.3476 108.396 13.0454 108.396 12.6255C108.396 12.2503 108.593 11.9441 108.982 11.719C109.353 11.504 109.899 11.3945 110.605 11.3945C111.645 11.3945 112.598 11.6338 113.442 12.1084L114.253 10.5021C113.838 10.2668 113.306 10.0761 112.671 9.93012C111.99 9.77598 111.302 9.69688 110.623 9.69688C109.297 9.69688 108.23 9.9788 107.455 10.5345C106.69 11.0821 106.303 11.8244 106.303 12.7391C106.303 13.4368 106.488 13.9864 106.851 14.3738C107.22 14.7673 107.66 15.0451 108.163 15.2033C108.676 15.3636 109.353 15.5096 110.171 15.6333C110.966 15.7591 111.552 15.8949 111.915 16.0349C112.314 16.189 112.515 16.4669 112.515 16.8644C112.515 17.6676 111.773 18.0752 110.307 18.0752C109.684 18.0752 109.045 17.9819 108.406 17.7994C107.81 17.629 107.287 17.4019 106.846 17.124L106.033 18.7323L106.029 18.7283Z" fill="#2D3A47"/>
<path d="M120.197 15.449L118.446 17.106V19.7589H116.094V5.79297H118.446V14.224L123.32 9.70732H126.143L121.947 13.9239L126.539 19.7589H123.679L120.197 15.449Z" fill="#2D3A47"/>
<path d="M126.748 19.8601H123.63L120.186 15.5969L118.548 17.1485V19.8601H115.992V5.69141H118.548V13.9927L123.281 9.60576H126.389L122.083 13.9298L126.748 19.8581V19.8601ZM123.726 19.6573H126.33L121.811 13.9156L125.9 9.80857H123.36L118.345 14.4571V5.89422H116.195V19.6573H118.345V17.0613L120.207 15.2988L123.728 19.6573H123.726Z" fill="#2D3A47"/>
<path d="M6.69609 18.2436C6.5886 18.2436 6.47908 18.2334 6.37159 18.2131C5.91931 18.1259 5.5157 17.8521 5.26421 17.4647C4.30895 15.9842 3.82422 14.4773 3.82422 12.9845C3.82422 8.19402 7.72234 4.2959 12.5129 4.2959C16.8673 4.2959 20.5728 7.55718 21.1305 11.8812C21.2076 12.4836 20.7817 13.0352 20.1793 13.1143C19.5749 13.1934 19.0253 12.7655 18.9462 12.1631C18.5284 8.93227 15.762 6.49645 12.5108 6.49645C8.93316 6.49645 6.02274 9.40686 6.02274 12.9845C6.02274 13.9073 6.29857 14.8626 6.84415 15.83L8.07524 14.964C7.23558 12.9947 7.77913 10.7029 9.52132 9.17565L9.64504 9.08033C11.3122 7.99526 13.2754 7.87154 14.902 8.75379C16.4921 9.61576 17.4798 11.2667 17.4798 13.0616C17.4798 13.735 17.3419 14.3941 17.0782 15.0066L18.8103 16.2458C19.3052 16.5987 19.4187 17.2863 19.0658 17.7811C18.7129 18.276 18.0254 18.3896 17.5305 18.0367L15.2326 16.3939C14.6262 15.9598 14.4619 15.1324 14.8594 14.5077C15.1332 14.0757 15.2793 13.5768 15.2793 13.0636C15.2793 12.0779 14.7317 11.1693 13.8535 10.6907C12.955 10.2039 11.8882 10.2769 10.9126 10.8854C9.65721 12.0313 9.69371 13.5139 10.2981 14.4854C10.6916 15.1182 10.5151 15.9477 9.89856 16.3756L7.67975 17.9373C7.38972 18.1401 7.04291 18.2476 6.69407 18.2476L6.69609 18.2436ZM8.64313 14.5665C8.64313 14.5665 8.63704 14.5706 8.63501 14.5726L8.64313 14.5665Z" fill="url(#paint0_linear_2340_5980)"/>
<path d="M21.8838 25.5005C21.7155 25.5005 21.5472 25.4741 21.3809 25.4214L17.8356 24.2633C16.1705 25.0523 14.3269 25.4681 12.4833 25.4681C5.59975 25.4701 0 19.8703 0 12.9868C0 11.7293 0.190647 10.484 0.565857 9.2874C0.687546 8.90205 0.827489 8.51873 0.985686 8.14555C1.22298 7.58577 1.86996 7.32617 2.42974 7.56346C2.98951 7.80076 3.24911 8.44774 3.01182 9.00751C2.88202 9.31377 2.76438 9.63016 2.665 9.94655C2.35672 10.9302 2.20055 11.9524 2.20055 12.9868C2.20055 18.6575 6.81259 23.2695 12.4833 23.2695C14.0673 23.2695 15.6533 22.8964 17.069 22.1906C17.4523 21.9999 17.8863 21.9675 18.2899 22.0993L21.03 22.9937L20.381 20.635C20.2491 20.1543 20.3506 19.627 20.6568 19.2254C21.9487 17.5339 22.6748 15.5139 22.758 13.3863C22.7823 12.7799 23.2914 12.3053 23.8998 12.3296C24.5063 12.354 24.9808 12.8651 24.9565 13.4715C24.8592 15.958 24.0398 18.3229 22.5795 20.3287L23.4415 23.4561C23.5997 24.0301 23.4293 24.6426 22.9993 25.0543C22.6931 25.3464 22.2935 25.5005 21.8838 25.5005Z" fill="url(#paint1_linear_2340_5980)"/>
<path d="M22.6591 9.05771C22.2534 9.05771 21.862 8.83258 21.6713 8.44318C20.2557 5.5713 17.5339 3.49446 14.3903 2.88804C11.4332 2.32016 8.3869 3.07058 6.0322 4.94866C5.55761 5.32792 4.86398 5.25085 4.48674 4.77423C4.10748 4.29964 4.18455 3.60601 4.66117 3.22878C7.51682 0.947096 11.2162 0.0344236 14.806 0.726026C18.623 1.46022 21.9289 3.98122 23.6468 7.46966C23.9145 8.01523 23.6914 8.67439 23.1458 8.9421C22.9897 9.01917 22.8233 9.05568 22.6611 9.05568L22.6591 9.05771Z" fill="url(#paint2_linear_2340_5980)"/>
<defs>
<linearGradient id="paint0_linear_2340_5980" x1="18.3235" y1="18.5478" x2="6.49733" y2="6.72158" gradientUnits="userSpaceOnUse">
<stop stop-color="#F05523"/>
<stop offset="1" stop-color="#F9A619"/>
</linearGradient>
<linearGradient id="paint1_linear_2340_5980" x1="22.4862" y1="25.5674" x2="2.96923" y2="6.05046" gradientUnits="userSpaceOnUse">
<stop stop-color="#F05523"/>
<stop offset="1" stop-color="#F9A619"/>
</linearGradient>
<linearGradient id="paint2_linear_2340_5980" x1="20.2881" y1="11.885" x2="8.14149" y2="-0.26169" gradientUnits="userSpaceOnUse">
<stop stop-color="#F05523"/>
<stop offset="1" stop-color="#F9A619"/>
</linearGradient>
</defs>
</svg>
