<svg width="458" height="260" viewBox="0 0 458 260" fill="none" xmlns="http://www.w3.org/2000/svg">
<rect width="458" height="260" rx="6" fill="#DBEAFE"/>
<g filter="url(#filter0_d_simplyask)">
<rect x="25" y="98" width="84" height="64" rx="10" fill="white" shape-rendering="crispEdges"/>
<rect x="25.5" y="98.5" width="83" height="63" rx="9.5" stroke="#2563EB" shape-rendering="crispEdges"/>
<!-- Trigger: lightning bolt -->
<path d="M69 112L63 122H68L64 130L74 120H69L71 112Z" fill="currentColor"/>
<text x="67" y="152" text-anchor="middle" font-family="-apple-system,BlinkMacSystemFont,sans-serif" font-size="9.5" font-weight="700" fill="currentColor">Trigger</text>
</g>
<g filter="url(#filter1_d_simplyask)">
<rect x="132.334" y="98" width="84" height="64" rx="10" fill="white" shape-rendering="crispEdges"/>
<rect x="132.834" y="98.5" width="83" height="63" rx="9.5" stroke="#2563EB" shape-rendering="crispEdges"/>
<!-- Route: diamond decision shape -->
<path d="M174.334 112L182.334 121L174.334 130L166.334 121Z" fill="none" stroke="currentColor" stroke-width="1.5"/>
<text x="174.334" y="152" text-anchor="middle" font-family="-apple-system,BlinkMacSystemFont,sans-serif" font-size="9.5" font-weight="700" fill="currentColor">Route</text>
</g>
<g filter="url(#filter2_d_simplyask)">
<rect x="239.666" y="98" width="85" height="64" rx="10" fill="white" shape-rendering="crispEdges"/>
<rect x="240.166" y="98.5" width="84" height="63" rx="9.5" stroke="#2563EB" shape-rendering="crispEdges"/>
<!-- Automate: 3x3 dot grid representing no-code canvas -->
<rect x="274.166" y="113" width="4" height="4" rx="0.5" fill="currentColor"/>
<rect x="280.166" y="113" width="4" height="4" rx="0.5" fill="currentColor"/>
<rect x="286.166" y="113" width="4" height="4" rx="0.5" fill="currentColor"/>
<rect x="274.166" y="119" width="4" height="4" rx="0.5" fill="currentColor"/>
<rect x="280.166" y="119" width="4" height="4" rx="0.5" fill="currentColor"/>
<rect x="286.166" y="119" width="4" height="4" rx="0.5" fill="currentColor"/>
<rect x="274.166" y="125" width="4" height="4" rx="0.5" fill="currentColor"/>
<rect x="280.166" y="125" width="4" height="4" rx="0.5" fill="currentColor"/>
<rect x="286.166" y="125" width="4" height="4" rx="0.5" fill="currentColor"/>
<text x="282.166" y="152" text-anchor="middle" font-family="-apple-system,BlinkMacSystemFont,sans-serif" font-size="9.5" font-weight="700" fill="currentColor">Automate</text>
</g>
<g filter="url(#filter3_d_simplyask)">
<rect x="348" y="98" width="85" height="64" rx="10" fill="white" shape-rendering="crispEdges"/>
<rect x="348.5" y="98.5" width="84" height="63" rx="9.5" stroke="#2563EB" shape-rendering="crispEdges"/>
<!-- Resolve: checkmark circle -->
<circle cx="390.5" cy="121" r="9" fill="none" stroke="currentColor" stroke-width="1.5"/>
<path d="M385.5 121L389 124.5L395.5 117.5" stroke="currentColor" stroke-width="1.5" stroke-linecap="round" stroke-linejoin="round" fill="none"/>
<text x="390.5" y="152" text-anchor="middle" font-family="-apple-system,BlinkMacSystemFont,sans-serif" font-size="9.5" font-weight="700" fill="currentColor">Resolve</text>
</g>
<path d="M129.209 130L119.209 124.226V135.774L129.209 130ZM111.041 130V131H120.209V130V129H111.041V130Z" fill="currentColor"/>
<path d="M237.084 130L227.084 124.226V135.774L237.084 130ZM218.916 130V131H228.084V130V129H218.916V130Z" fill="currentColor"/>
<path d="M345.416 130L335.416 124.226V135.774L345.416 130ZM327.248 130V131H336.416V130V129H327.248V130Z" fill="currentColor"/>
<defs>
<filter id="filter0_d_simplyask" x="25" y="98" width="84" height="67" filterUnits="userSpaceOnUse" color-interpolation-filters="sRGB">
<feFlood flood-opacity="0" result="BackgroundImageFix"/>
<feColorMatrix in="SourceAlpha" type="matrix" values="0 0 0 0 0 0 0 0 0 0 0 0 0 0 0 0 0 0 127 0" result="hardAlpha"/>
<feOffset dy="3"/>
<feComposite in2="hardAlpha" operator="out"/>
<feColorMatrix type="matrix" values="0 0 0 0 0.145 0 0 0 0 0.388 0 0 0 0 0.922 0 0 0 1 0"/>
<feBlend mode="normal" in2="BackgroundImageFix" result="effect1_dropShadow_simplyask"/>
<feBlend mode="normal" in="SourceGraphic" in2="effect1_dropShadow_simplyask" result="shape"/>
</filter>
<filter id="filter1_d_simplyask" x="132.334" y="98" width="84" height="67" filterUnits="userSpaceOnUse" color-interpolation-filters="sRGB">
<feFlood flood-opacity="0" result="BackgroundImageFix"/>
<feColorMatrix in="SourceAlpha" type="matrix" values="0 0 0 0 0 0 0 0 0 0 0 0 0 0 0 0 0 0 127 0" result="hardAlpha"/>
<feOffset dy="3"/>
<feComposite in2="hardAlpha" operator="out"/>
<feColorMatrix type="matrix" values="0 0 0 0 0.145 0 0 0 0 0.388 0 0 0 0 0.922 0 0 0 1 0"/>
<feBlend mode="normal" in2="BackgroundImageFix" result="effect1_dropShadow_simplyask"/>
<feBlend mode="normal" in="SourceGraphic" in2="effect1_dropShadow_simplyask" result="shape"/>
</filter>
<filter id="filter2_d_simplyask" x="239.666" y="98" width="85" height="67" filterUnits="userSpaceOnUse" color-interpolation-filters="sRGB">
<feFlood flood-opacity="0" result="BackgroundImageFix"/>
<feColorMatrix in="SourceAlpha" type="matrix" values="0 0 0 0 0 0 0 0 0 0 0 0 0 0 0 0 0 0 127 0" result="hardAlpha"/>
<feOffset dy="3"/>
<feComposite in2="hardAlpha" operator="out"/>
<feColorMatrix type="matrix" values="0 0 0 0 0.145 0 0 0 0 0.388 0 0 0 0 0.922 0 0 0 1 0"/>
<feBlend mode="normal" in2="BackgroundImageFix" result="effect1_dropShadow_simplyask"/>
<feBlend mode="normal" in="SourceGraphic" in2="effect1_dropShadow_simplyask" result="shape"/>
</filter>
<filter id="filter3_d_simplyask" x="348" y="98" width="85" height="67" filterUnits="userSpaceOnUse" color-interpolation-filters="sRGB">
<feFlood flood-opacity="0" result="BackgroundImageFix"/>
<feColorMatrix in="SourceAlpha" type="matrix" values="0 0 0 0 0 0 0 0 0 0 0 0 0 0 0 0 0 0 127 0" result="hardAlpha"/>
<feOffset dy="3"/>
<feComposite in2="hardAlpha" operator="out"/>
<feColorMatrix type="matrix" values="0 0 0 0 0.145 0 0 0 0 0.388 0 0 0 0 0.922 0 0 0 1 0"/>
<feBlend mode="normal" in2="BackgroundImageFix" result="effect1_dropShadow_simplyask"/>
<feBlend mode="normal" in="SourceGraphic" in2="effect1_dropShadow_simplyask" result="shape"/>
</filter>
</defs>
</svg>
