<svg width="34" height="34" viewBox="0 0 118 123" fill="none" xmlns="http://www.w3.org/2000/svg">
  <path d="m58.644929 1.75606976 44.374894 25.69479374c2.959094 1.7134313 4.783798 4.892216 4.783798 8.3337739v51.2949634c0 3.4415579-1.824704 6.6203427-4.783798 8.333774l-44.374894 25.6947932c-2.9372829 1.700802-6.5489544 1.700802-9.4862373 0l-44.37489356-25.6947932c-2.95909486-1.7134313-4.78379814-4.8922161-4.78379814-8.333774v-51.2949634c0-3.4415579 1.82470328-6.6203426 4.78379814-8.3337739l44.37489356-25.69479374c2.9372829-1.70080135 6.5489544-1.70080135 9.4862373 0z" fill="#156de0"/>
  <path d="m34.0587276 79.188545c0 4.3639529 1.204634 5.4295035 5.5240446 6.40037 2.0082112.4847266 6.6291463 1.2605718 12.6552437 1.2605718 15.5694919 0 21.5955893-4.7511688 21.5955893-14.6421358 0-8.1470817-4.1188822-11.7351893-11.550142-14.5474517l-10.4465041-3.9753236c-3.0137806-1.1644745-4.1174185-1.7467117-4.1174185-3.2984022 0-1.7452985 1.4051624-2.6172412 7.4327235-2.6172412 5.5240446 0 8.6373575.6783347 10.7465648 1.1630613 4.4189429 1.0669639 5.6250407 0 5.6250407-4.3639528v-.9694533c0-4.3639529-1.1051017-5.4309167-5.5240447-6.40037-1.204634-.2911186-4.6223987-1.1630613-10.6484961-1.1630613-14.8639833 0-20.489024 4.8472663-20.489024 14.2549199 0 7.9520605 4.0178862 11.152952 10.4465041 13.7701932l9.3414024 3.7817156c5.1215241 2.0364171 6.3276218 2.716165 6.3276218 4.4614635 0 2.2300251-1.9086789 2.8122624-7.7342479 2.8122624-7.1326628 0-11.1490853-.8733559-13.660813-1.5516905-4.418943-1.1644745-5.5240446.193608-5.5240446 4.5575608z" fill="#fff"/>
</svg>
