<svg height="123" viewBox="0 0 438 123" width="438" xmlns="http://www.w3.org/2000/svg"><path d="M58.645 1.756l44.375 25.695a9.625 9.625 0 014.784 8.334V87.08a9.625 9.625 0 01-4.784 8.333l-44.375 25.695a9.456 9.456 0 01-9.486 0L4.784 95.413A9.625 9.625 0 010 87.08V35.785a9.625 9.625 0 014.784-8.334L49.159 1.756a9.456 9.456 0 019.486 0z" fill="#156de0"/><path d="M34.059 79.189c0 4.363 1.204 5.429 5.524 6.4 2.008.485 6.629 1.26 12.655 1.26 15.57 0 21.596-4.75 21.596-14.642 0-8.147-4.12-11.735-11.55-14.547l-10.447-3.975c-3.014-1.165-4.117-1.747-4.117-3.299 0-1.745 1.405-2.617 7.432-2.617 5.524 0 8.638.678 10.747 1.163 4.419 1.067 5.625 0 5.625-4.364v-.97c0-4.363-1.105-5.43-5.524-6.4-1.205-.29-4.623-1.163-10.649-1.163-14.864 0-20.489 4.847-20.489 14.255 0 7.952 4.018 11.153 10.447 13.77l9.341 3.782c5.122 2.036 6.328 2.716 6.328 4.461 0 2.23-1.909 2.813-7.734 2.813-7.133 0-11.15-.874-13.661-1.552-4.42-1.164-5.524.194-5.524 4.558z" fill="#fff"/><path d="M134.088 74.158c0 2.532.673 3.15 3.085 3.714 1.122.281 3.703.732 7.07.732 8.696 0 12.062-2.757 12.062-8.496 0-4.728-2.3-6.81-6.451-8.442l-5.836-2.306c-1.683-.676-2.3-1.014-2.3-1.914 0-1.013.785-1.519 4.152-1.519 3.086 0 4.825.394 6.003.675 2.469.62 3.142 0 3.142-2.532v-.563c0-2.532-.617-3.15-3.085-3.713-.673-.17-2.582-.675-5.948-.675-8.303 0-11.445 2.812-11.445 8.271 0 4.614 2.244 6.472 5.835 7.99l5.218 2.195c2.86 1.181 3.534 1.576 3.534 2.588 0 1.294-1.066 1.632-4.32 1.632-3.984 0-6.228-.507-7.63-.9-2.469-.676-3.086.112-3.086 2.644zm24.854-20.257c0 2.251.56 2.813 2.805 2.813h2.244V67.8c0 8.216 4.6 10.747 10.83 10.747 1.963 0 3.197-.169 3.926-.337 2.47-.507 3.086-1.463 3.086-3.995v-.62c0-2.531-.617-2.756-3.086-2.307-.56.113-1.963.338-3.927.338-2.132 0-3.535-.957-3.535-3.77V56.714h6.396c2.525 0 3.142-.619 3.142-3.15v-.62c0-2.531-.617-3.15-3.142-3.15h-6.396v-4.389c0-2.364-.56-2.927-2.917-2.927h-.336c-2.358 0-3.03.563-3.368 2.87l-.673 4.446-2.3.506c-2.189.45-2.749 1.125-2.749 3.376zm45.791 12.21c0 3.602-.953 5.572-6.003 5.572s-6.116-1.97-6.116-5.571V61.61c0-3.602 1.067-5.57 6.116-5.57 5.05 0 6.003 1.968 6.003 5.57zm-6.003 12.493c8.753 0 13.353-4.446 13.353-12.492V61.61c0-8.327-4.152-12.491-13.353-12.491-8.753 0-13.466 4.444-13.466 12.49v4.503c0 8.328 4.264 12.492 13.466 12.492zm25.64-18.12c0-2.87.842-4.444 5.443-4.444 4.6 0 5.33 1.575 5.33 4.444v14.293c0 2.532.617 3.152 3.142 3.152h1.066c2.525 0 3.142-.62 3.142-3.152V60.484c0-7.54-3.816-11.365-12.68-11.365-8.472 0-12.793 3.995-12.793 11.365v14.293c0 2.532.618 3.152 3.142 3.152h1.067c2.524 0 3.14-.62 3.14-3.152zm48.98.789c0-7.99-4.096-12.154-12.288-12.154-9.762 0-13.072 5.401-13.072 12.66v4.502c0 8.721 4.713 12.323 14.643 12.323 3.142 0 5.78-.45 6.845-.732 2.47-.618 2.974-1.125 2.974-3.657v-.62c0-2.531-.505-3.206-2.974-2.7-1.065.225-3.87.788-6.789.788-5.218 0-7.349-1.352-7.349-4.277v-.844h14.25c2.581 0 3.31-.507 3.647-3.095.112-1.013.112-1.745.112-2.194zm-18.01-1.52c0-2.813 1.795-4.277 5.498-4.277s5.554 1.464 5.554 4.277v.845H255.34zm23.059 6.528c0 8.834 5.948 12.323 13.353 12.323 8.416 0 13.41-3.489 13.41-12.323v-4.502c0-8.047-3.984-12.66-11.782-12.66-3.872 0-6.229 1.237-7.687 3.207V41.69c0-2.53-.617-3.15-3.141-3.15h-1.011c-2.525 0-3.142.62-3.142 3.15zm19.413-.17c0 3.602-.842 5.572-6.003 5.572-5.05 0-6.116-1.97-6.116-5.571V61.61c0-3.602 1.066-5.57 6.116-5.57s6.003 1.968 6.003 5.57zm19.636-6.189c0-2.532.673-3.882 4.32-3.882h.617c2.3.169 2.861-.17 2.861-2.701v-.62c0-2.532-.617-3.6-2.861-3.6h-.617c-7.686 0-11.67 3.6-11.67 10.24v15.418c0 2.532.618 3.152 3.143 3.152h1.065c2.525 0 3.142-.62 3.142-3.152zm33.786-1.126c0-7.37-5.33-9.677-13.577-9.677-2.357 0-3.703.168-4.545.28-2.413.338-3.03 1.014-3.03 3.433v.225c0 2.532.73 2.983 3.143 2.645a36.48 36.48 0 014.88-.338c3.48 0 5.836.507 5.836 3.432v2.139h-5.668c-6.676 0-11.847 2.194-11.847 8.778 0 5.796 4.049 8.89 12.633 8.89 8.64 0 12.175-3.094 12.175-9.059zm-7.293 10.355c0 3.094-2.47 3.319-4.994 3.319-2.525 0-4.77-.225-4.77-2.926 0-2.082 1.291-3.094 3.984-3.094h5.78zm20.038-8.667c0-2.87.842-4.444 5.443-4.444s5.33 1.575 5.33 4.444v14.293c0 2.532.617 3.152 3.142 3.152h1.066c2.524 0 3.141-.62 3.141-3.152V60.484c0-7.54-3.815-11.365-12.68-11.365-8.471 0-12.792 3.995-12.792 11.365v14.293c0 2.532.618 3.152 3.143 3.152h1.066c2.524 0 3.14-.62 3.14-3.152zm23.34 6.078c0 7.709 4.151 12.042 13.689 12.042 1.571 0 3.03-.226 3.76-.394 2.468-.507 3.085-1.182 3.085-3.714v-.563c0-2.532-.617-3.038-3.085-2.588a19 19 0 01-3.424.338c-4.656 0-6.675-1.294-6.675-5.346v-5.064c0-4.165 1.795-5.233 6.17-5.233 1.629 0 2.638.169 3.535.393 2.357.564 2.974 0 2.974-2.532v-.618c0-2.533-.617-3.265-2.974-3.77-.728-.17-1.906-.394-3.645-.394-8.922 0-13.41 4.839-13.41 12.042zm25.088 8.215c0 2.532.618 3.152 3.143 3.152h1.065c2.525 0 3.142-.62 3.142-3.152V62.848c0-5.514 2.806-6.808 6.06-6.808 2.916 0 4.712.9 4.712 4.051v14.686c0 2.532.618 3.152 3.143 3.152h1.065c2.525 0 3.142-.62 3.142-3.152v-15.98c0-7.597-5.05-9.678-9.537-9.678-3.704 0-6.79 1.237-8.585 3.207V41.69c0-2.53-.617-3.15-3.142-3.15h-1.065c-2.525 0-3.143.62-3.143 3.15z" fill="#156de0"/></svg>