<svg preserveAspectRatio="none" width="100%" height="100%" overflow="visible" style="display: block;" viewBox="0 0 54.8574 59.0723" fill="none" xmlns="http://www.w3.org/2000/svg">
<g id="Vector">
<path d="M45.012 4.21945H46.4185V5.62593H45.012V4.21945Z" fill="#35236E"/>
<path d="M45.012 5.62593H46.4185V7.03241H45.012V5.62593Z" fill="#35236E"/>
<path d="M43.6056 5.62593H45.012V7.03241H43.6056V5.62593Z" fill="#35236E"/>
<path d="M42.1991 5.62593H43.6056V7.03241H42.1991V5.62593Z" fill="#35236E"/>
<path d="M40.7926 7.03241H42.1991V8.43889H40.7926V7.03241Z" fill="#35236E"/>
<path d="M46.4185 4.21945H47.825V5.62593H46.4185V4.21945Z" fill="#35236E"/>
<path d="M47.825 4.21945H49.2315V5.62593H47.825V4.21945Z" fill="#35236E"/>
<path d="M49.2315 4.21945H50.638V5.62593H49.2315V4.21945Z" fill="#35236E"/>
<path d="M50.638 4.21945H52.0445V5.62593H50.638V4.21945Z" fill="#35236E"/>
<path d="M52.0445 4.21945H53.4509V5.62593H52.0445V4.21945Z" fill="#35236E"/>
<path d="M53.4509 4.21945H54.8574V5.62593H53.4509V4.21945Z" fill="#35236E"/>
<path d="M53.4509 5.62593H54.8574V7.03241H53.4509V5.62593Z" fill="#35236E"/>
<path d="M52.0445 5.62593H53.4509V7.03241H52.0445V5.62593Z" fill="#9D30FF"/>
<path d="M50.638 5.62593H52.0445V7.03241H50.638V5.62593Z" fill="#D67DFF"/>
<path d="M49.2315 7.03241H50.638V8.43889H49.2315V7.03241Z" fill="#D67DFF"/>
<path d="M49.2315 5.62593H50.638V7.03241H49.2315V5.62593Z" fill="#D67DFF"/>
<path d="M47.825 7.03241H49.2315V8.43889H47.825V7.03241Z" fill="#D67DFF"/>
<path d="M47.825 5.62593H49.2315V7.03241H47.825V5.62593Z" fill="#D67DFF"/>
<path d="M46.4185 7.03241H47.825V8.43889H46.4185V7.03241Z" fill="#D67DFF"/>
<path d="M43.6056 7.03241H45.012V8.43889H43.6056V7.03241Z" fill="#D67DFF"/>
<path d="M43.6056 8.43889H45.012V9.84537H43.6056V8.43889Z" fill="#D67DFF"/>
<path d="M42.1991 9.84537H43.6056V11.2519H42.1991V9.84537Z" fill="#D67DFF"/>
<path d="M40.7926 11.2519H42.1991V12.6583H40.7926V11.2519Z" fill="#D67DFF"/>
<path d="M39.3861 12.6583H40.7926V14.0648H39.3861V12.6583Z" fill="#D67DFF"/>
<path d="M37.9796 14.0648H39.3861V15.4713H37.9796V14.0648Z" fill="#D67DFF"/>
<path d="M36.5732 15.4713H37.9796V16.8778H36.5732V15.4713Z" fill="#D67DFF"/>
<path d="M35.1667 16.8778H36.5732V18.2843H35.1667V16.8778Z" fill="#D67DFF"/>
<path d="M33.7602 18.2843H35.1667V19.6907H33.7602V18.2843Z" fill="#D67DFF"/>
<path d="M32.3537 19.6907H33.7602V21.0972H32.3537V19.6907Z" fill="#D67DFF"/>
<path d="M30.9472 21.0972H32.3537V22.5037H30.9472V21.0972Z" fill="#D67DFF"/>
<path d="M28.1343 23.9102H29.5407V25.3167H28.1343V23.9102Z" fill="#D67DFF"/>
<path d="M26.7278 25.3167H28.1343V26.7232H26.7278V25.3167Z" fill="#D67DFF"/>
<path d="M25.3213 26.7232H26.7278V28.1296H25.3213V26.7232Z" fill="#D67DFF"/>
<path d="M23.9148 28.1296H25.3213V29.5361H23.9148V28.1296Z" fill="#D67DFF"/>
<path d="M22.5083 29.5361H23.9148V30.9426H22.5083V29.5361Z" fill="#D67DFF"/>
<path d="M21.1019 30.9426H22.5083V32.3491H21.1019V30.9426Z" fill="#D67DFF"/>
<path d="M19.6954 32.3491H21.1019V33.7556H19.6954V32.3491Z" fill="#D67DFF"/>
<path d="M16.8824 35.1621H18.2889V36.5685H16.8824V35.1621Z" fill="#D67DFF"/>
<path d="M15.4759 36.5685H16.8824V37.975H15.4759V36.5685Z" fill="#D67DFF"/>
<path d="M16.8824 37.975H18.2889V39.3815H16.8824V37.975Z" fill="#D67DFF"/>
<path d="M15.4759 37.975H16.8824V39.3815H15.4759V37.975Z" fill="#D67DFF"/>
<path d="M15.4759 57.6658H16.8824V59.0722H15.4759V57.6658Z" fill="#D67DFF"/>
<path d="M15.4759 1.40648H16.8824V0H15.4759V1.40648Z" fill="#D67DFF"/>
<path d="M37.9796 57.6658H39.3861V59.0722H37.9796V57.6658Z" fill="#D67DFF"/>
<path d="M37.9796 1.40648H39.3861V0H37.9796V1.40648Z" fill="#D67DFF"/>
<path d="M18.2889 36.5685H19.6954V37.975H18.2889V36.5685Z" fill="#D67DFF"/>
<path d="M21.1019 33.7556H22.5083V35.1621H21.1019V33.7556Z" fill="#EDC5FF"/>
<path d="M22.5083 32.3491H23.9148V33.7556H22.5083V32.3491Z" fill="#EDC5FF"/>
<path d="M23.9148 30.9426H25.3213V32.3491H23.9148V30.9426Z" fill="#EDC5FF"/>
<path d="M25.3213 29.5361H26.7278V30.9426H25.3213V29.5361Z" fill="#EDC5FF"/>
<path d="M26.7278 28.1296H28.1343V29.5361H26.7278V28.1296Z" fill="#EDC5FF"/>
<path d="M28.1343 26.7232H29.5407V28.1296H28.1343V26.7232Z" fill="#EDC5FF"/>
<path d="M29.5407 25.3167H30.9472V26.7232H29.5407V25.3167Z" fill="#EDC5FF"/>
<path d="M32.3537 22.5037H33.7602V23.9102H32.3537V22.5037Z" fill="#EDC5FF"/>
<path d="M33.7602 21.0972H35.1667V22.5037H33.7602V21.0972Z" fill="#EDC5FF"/>
<path d="M35.1667 19.6907H36.5732V21.0972H35.1667V19.6907Z" fill="#EDC5FF"/>
<path d="M36.5732 18.2843H37.9796V19.6907H36.5732V18.2843Z" fill="#EDC5FF"/>
<path d="M37.9796 16.8778H39.3861V18.2843H37.9796V16.8778Z" fill="#EDC5FF"/>
<path d="M39.3861 15.4713H40.7926V16.8778H39.3861V15.4713Z" fill="#EDC5FF"/>
<path d="M40.7926 14.0648H42.1991V15.4713H40.7926V14.0648Z" fill="#EDC5FF"/>
<path d="M42.1991 12.6583H43.6056V14.0648H42.1991V12.6583Z" fill="#EDC5FF"/>
<path d="M43.6056 11.2519H45.012V12.6583H43.6056V11.2519Z" fill="#EDC5FF"/>
<path d="M45.012 9.84537H46.4185V11.2519H45.012V9.84537Z" fill="#EDC5FF"/>
<path d="M18.2889 37.975H19.6954V39.3815H18.2889V37.975Z" fill="#D67DFF"/>
<path d="M21.1019 35.1621H22.5083V36.5685H21.1019V35.1621Z" fill="#EDC5FF"/>
<path d="M22.5083 33.7556H23.9148V35.1621H22.5083V33.7556Z" fill="#EDC5FF"/>
<path d="M23.9148 32.3491H25.3213V33.7556H23.9148V32.3491Z" fill="#EDC5FF"/>
<path d="M25.3213 30.9426H26.7278V32.3491H25.3213V30.9426Z" fill="#EDC5FF"/>
<path d="M26.7278 29.5361H28.1343V30.9426H26.7278V29.5361Z" fill="#EDC5FF"/>
<path d="M28.1343 28.1296H29.5407V29.5361H28.1343V28.1296Z" fill="#EDC5FF"/>
<path d="M29.5407 26.7232H30.9472V28.1296H29.5407V26.7232Z" fill="#EDC5FF"/>
<path d="M30.9472 25.3167H32.3537V26.7232H30.9472V25.3167Z" fill="#EDC5FF"/>
<path d="M33.7602 22.5037H35.1667V23.9102H33.7602V22.5037Z" fill="#EDC5FF"/>
<path d="M35.1667 21.0972H36.5732V22.5037H35.1667V21.0972Z" fill="#EDC5FF"/>
<path d="M36.5732 19.6907H37.9796V21.0972H36.5732V19.6907Z" fill="#EDC5FF"/>
<path d="M37.9796 18.2843H39.3861V19.6907H37.9796V18.2843Z" fill="#EDC5FF"/>
<path d="M39.3861 16.8778H40.7926V18.2843H39.3861V16.8778Z" fill="#EDC5FF"/>
<path d="M40.7926 15.4713H42.1991V16.8778H40.7926V15.4713Z" fill="#EDC5FF"/>
<path d="M42.1991 14.0648H43.6056V15.4713H42.1991V14.0648Z" fill="#EDC5FF"/>
<path d="M43.6056 12.6583H45.012V14.0648H43.6056V12.6583Z" fill="#EDC5FF"/>
<path d="M45.012 11.2519H46.4185V12.6583H45.012V11.2519Z" fill="#EDC5FF"/>
<path d="M46.4185 9.84537H47.825V11.2519H46.4185V9.84537Z" fill="#EDC5FF"/>
<path d="M46.4185 5.62593H47.825V7.03241H46.4185V5.62593Z" fill="#D67DFF"/>
<path d="M45.012 7.03241H46.4185V8.43889H45.012V7.03241Z" fill="#D67DFF"/>
<path d="M42.1991 7.03241H43.6056V8.43889H42.1991V7.03241Z" fill="#D67DFF"/>
<path d="M42.1991 8.43889H43.6056V9.84537H42.1991V8.43889Z" fill="#D67DFF"/>
<path d="M40.7926 9.84537H42.1991V11.2519H40.7926V9.84537Z" fill="#D67DFF"/>
<path d="M39.3861 11.2519H40.7926V12.6583H39.3861V11.2519Z" fill="#D67DFF"/>
<path d="M37.9796 12.6583H39.3861V14.0648H37.9796V12.6583Z" fill="#D67DFF"/>
<path d="M36.5732 14.0648H37.9796V15.4713H36.5732V14.0648Z" fill="#D67DFF"/>
<path d="M35.1667 15.4713H36.5732V16.8778H35.1667V15.4713Z" fill="#D67DFF"/>
<path d="M33.7602 16.8778H35.1667V18.2843H33.7602V16.8778Z" fill="#D67DFF"/>
<path d="M32.3537 18.2843H33.7602V19.6907H32.3537V18.2843Z" fill="#D67DFF"/>
<path d="M30.9472 19.6907H32.3537V21.0972H30.9472V19.6907Z" fill="#D67DFF"/>
<path d="M28.1343 22.5037H29.5407V23.9102H28.1343V22.5037Z" fill="#D67DFF"/>
<path d="M26.7278 23.9102H28.1343V25.3167H26.7278V23.9102Z" fill="#D67DFF"/>
<path d="M25.3213 25.3167H26.7278V26.7232H25.3213V25.3167Z" fill="#D67DFF"/>
<path d="M23.9148 26.7232H25.3213V28.1296H23.9148V26.7232Z" fill="#D67DFF"/>
<path d="M22.5083 28.1296H23.9148V29.5361H22.5083V28.1296Z" fill="#D67DFF"/>
<path d="M21.1019 29.5361H22.5083V30.9426H21.1019V29.5361Z" fill="#D67DFF"/>
<path d="M19.6954 30.9426H21.1019V32.3491H19.6954V30.9426Z" fill="#D67DFF"/>
<path d="M18.2889 32.3491H19.6954V33.7556H18.2889V32.3491Z" fill="#D67DFF"/>
<path d="M15.4759 35.1621H16.8824V36.5685H15.4759V35.1621Z" fill="#D67DFF"/>
<path d="M14.0694 36.5685H15.4759V37.975H14.0694V36.5685Z" fill="#D67DFF"/>
<path d="M40.7926 8.43889H42.1991V9.84537H40.7926V8.43889Z" fill="#D67DFF"/>
<path d="M39.3861 9.84537H40.7926V11.2519H39.3861V9.84537Z" fill="#D67DFF"/>
<path d="M37.9796 11.2519H39.3861V12.6583H37.9796V11.2519Z" fill="#D67DFF"/>
<path d="M36.5732 12.6583H37.9796V14.0648H36.5732V12.6583Z" fill="#D67DFF"/>
<path d="M35.1667 14.0648H36.5732V15.4713H35.1667V14.0648Z" fill="#D67DFF"/>
<path d="M33.7602 15.4713H35.1667V16.8778H33.7602V15.4713Z" fill="#D67DFF"/>
<path d="M32.3537 16.8778H33.7602V18.2843H32.3537V16.8778Z" fill="#D67DFF"/>
<path d="M30.9472 18.2843H32.3537V19.6907H30.9472V18.2843Z" fill="#D67DFF"/>
<path d="M29.5407 19.6907H30.9472V21.0972H29.5407V19.6907Z" fill="#D67DFF"/>
<path d="M26.7278 22.5037H28.1343V23.9102H26.7278V22.5037Z" fill="#D67DFF"/>
<path d="M25.3213 23.9102H26.7278V25.3167H25.3213V23.9102Z" fill="#D67DFF"/>
<path d="M23.9148 25.3167H25.3213V26.7232H23.9148V25.3167Z" fill="#D67DFF"/>
<path d="M22.5083 26.7232H23.9148V28.1296H22.5083V26.7232Z" fill="#D67DFF"/>
<path d="M21.1019 28.1296H22.5083V29.5361H21.1019V28.1296Z" fill="#D67DFF"/>
<path d="M19.6954 29.5361H21.1019V30.9426H19.6954V29.5361Z" fill="#D67DFF"/>
<path d="M18.2889 30.9426H19.6954V32.3491H18.2889V30.9426Z" fill="#D67DFF"/>
<path d="M15.4759 33.7556H16.8824V35.1621H15.4759V33.7556Z" fill="#D67DFF"/>
<path d="M14.0694 35.1621H15.4759V36.5685H14.0694V35.1621Z" fill="#D67DFF"/>
<path d="M12.663 36.5685H14.0694V37.975H12.663V36.5685Z" fill="#D67DFF"/>
<path d="M52.0445 14.0648H53.4509V15.4713H52.0445V14.0648Z" fill="#35236E"/>
<path d="M52.0445 15.4713H53.4509V16.8778H52.0445V15.4713Z" fill="#35236E"/>
<path d="M46.4185 15.4713H47.825V16.8778H46.4185V15.4713Z" fill="#35236E"/>
<path d="M47.825 14.0648H49.2315V15.4713H47.825V14.0648Z" fill="#35236E"/>
<path d="M49.2315 12.6583H50.638V14.0648H49.2315V12.6583Z" fill="#35236E"/>
<path d="M49.2315 11.2519H50.638V12.6583H49.2315V11.2519Z" fill="#35236E"/>
<path d="M49.2315 9.84537H50.638V11.2519H49.2315V9.84537Z" fill="#35236E"/>
<path d="M49.2315 14.0648H50.638V15.4713H49.2315V14.0648Z" fill="#9D30FF"/>
<path d="M49.2315 15.4713H50.638V16.8778H49.2315V15.4713Z" fill="#9D30FF"/>
<path d="M47.825 16.8778H49.2315V18.2843H47.825V16.8778Z" fill="#9D30FF"/>
<path d="M46.4185 18.2843H47.825V19.6907H46.4185V18.2843Z" fill="#9D30FF"/>
<path d="M45.012 19.6907H46.4185V21.0972H45.012V19.6907Z" fill="#9D30FF"/>
<path d="M43.6056 21.0972H45.012V22.5037H43.6056V21.0972Z" fill="#9D30FF"/>
<path d="M42.1991 22.5037H43.6056V23.9102H42.1991V22.5037Z" fill="#9D30FF"/>
<path d="M40.7926 23.9102H42.1991V25.3167H40.7926V23.9102Z" fill="#9D30FF"/>
<path d="M39.3861 25.3167H40.7926V26.7232H39.3861V25.3167Z" fill="#9D30FF"/>
<path d="M37.9796 26.7232H39.3861V28.1296H37.9796V26.7232Z" fill="#9D30FF"/>
<path d="M35.1667 29.5361H36.5732V30.9426H35.1667V29.5361Z" fill="#9D30FF"/>
<path d="M33.7602 30.9426H35.1667V32.3491H33.7602V30.9426Z" fill="#9D30FF"/>
<path d="M32.3537 32.3491H33.7602V33.7556H32.3537V32.3491Z" fill="#9D30FF"/>
<path d="M30.9472 33.7556H32.3537V35.1621H30.9472V33.7556Z" fill="#9D30FF"/>
<path d="M29.5407 35.1621H30.9472V36.5685H29.5407V35.1621Z" fill="#9D30FF"/>
<path d="M28.1343 36.5685H29.5407V37.975H28.1343V36.5685Z" fill="#9D30FF"/>
<path d="M26.7278 37.975H28.1343V39.3815H26.7278V37.975Z" fill="#9D30FF"/>
<path d="M25.3213 39.3815H26.7278V40.788H25.3213V39.3815Z" fill="#9D30FF"/>
<path d="M22.5083 42.1945H23.9148V43.6009H22.5083V42.1945Z" fill="#9D30FF"/>
<path d="M21.1019 43.6009H22.5083V45.0074H21.1019V43.6009Z" fill="#9D30FF"/>
<path d="M21.1019 45.0074H22.5083V46.4139H21.1019V45.0074Z" fill="#9D30FF"/>
<path d="M47.825 15.4713H49.2315V16.8778H47.825V15.4713Z" fill="#9D30FF"/>
<path d="M46.4185 16.8778H47.825V18.2843H46.4185V16.8778Z" fill="#9D30FF"/>
<path d="M45.012 18.2843H46.4185V19.6907H45.012V18.2843Z" fill="#9D30FF"/>
<path d="M43.6056 19.6907H45.012V21.0972H43.6056V19.6907Z" fill="#9D30FF"/>
<path d="M42.1991 21.0972H43.6056V22.5037H42.1991V21.0972Z" fill="#9D30FF"/>
<path d="M40.7926 22.5037H42.1991V23.9102H40.7926V22.5037Z" fill="#9D30FF"/>
<path d="M39.3861 23.9102H40.7926V25.3167H39.3861V23.9102Z" fill="#9D30FF"/>
<path d="M37.9796 25.3167H39.3861V26.7232H37.9796V25.3167Z" fill="#9D30FF"/>
<path d="M36.5732 26.7232H37.9796V28.1296H36.5732V26.7232Z" fill="#9D30FF"/>
<path d="M33.7602 29.5361H35.1667V30.9426H33.7602V29.5361Z" fill="#9D30FF"/>
<path d="M32.3537 30.9426H33.7602V32.3491H32.3537V30.9426Z" fill="#9D30FF"/>
<path d="M30.9472 32.3491H32.3537V33.7556H30.9472V32.3491Z" fill="#9D30FF"/>
<path d="M29.5407 33.7556H30.9472V35.1621H29.5407V33.7556Z" fill="#9D30FF"/>
<path d="M28.1343 35.1621H29.5407V36.5685H28.1343V35.1621Z" fill="#9D30FF"/>
<path d="M26.7278 36.5685H28.1343V37.975H26.7278V36.5685Z" fill="#9D30FF"/>
<path d="M25.3213 37.975H26.7278V39.3815H25.3213V37.975Z" fill="#9D30FF"/>
<path d="M22.5083 40.788H23.9148V42.1945H22.5083V40.788Z" fill="#9D30FF"/>
<path d="M21.1019 42.1945H22.5083V43.6009H21.1019V42.1945Z" fill="#9D30FF"/>
<path d="M19.6954 40.788H21.1019V42.1945H19.6954V40.788Z" fill="#9D30FF"/>
<path d="M21.1019 39.3815H22.5083V40.788H21.1019V39.3815Z" fill="#9D30FF"/>
<path d="M23.9148 36.5685H25.3213V37.975H23.9148V36.5685Z" fill="#9D30FF"/>
<path d="M25.3213 35.1621H26.7278V36.5685H25.3213V35.1621Z" fill="#9D30FF"/>
<path d="M26.7278 33.7556H28.1343V35.1621H26.7278V33.7556Z" fill="#9D30FF"/>
<path d="M28.1343 32.3491H29.5407V33.7556H28.1343V32.3491Z" fill="#9D30FF"/>
<path d="M29.5407 30.9426H30.9472V32.3491H29.5407V30.9426Z" fill="#9D30FF"/>
<path d="M30.9472 29.5361H32.3537V30.9426H30.9472V29.5361Z" fill="#9D30FF"/>
<path d="M32.3537 28.1296H33.7602V29.5361H32.3537V28.1296Z" fill="#9D30FF"/>
<path d="M35.1667 25.3167H36.5732V26.7232H35.1667V25.3167Z" fill="#9D30FF"/>
<path d="M36.5732 23.9102H37.9796V25.3167H36.5732V23.9102Z" fill="#9D30FF"/>
<path d="M37.9796 22.5037H39.3861V23.9102H37.9796V22.5037Z" fill="#9D30FF"/>
<path d="M39.3861 21.0972H40.7926V22.5037H39.3861V21.0972Z" fill="#9D30FF"/>
<path d="M40.7926 19.6907H42.1991V21.0972H40.7926V19.6907Z" fill="#9D30FF"/>
<path d="M42.1991 18.2843H43.6056V19.6907H42.1991V18.2843Z" fill="#9D30FF"/>
<path d="M43.6056 16.8778H45.012V18.2843H43.6056V16.8778Z" fill="#9D30FF"/>
<path d="M45.012 15.4713H46.4185V16.8778H45.012V15.4713Z" fill="#9D30FF"/>
<path d="M46.4185 14.0648H47.825V15.4713H46.4185V14.0648Z" fill="#9D30FF"/>
<path d="M47.825 12.6583H49.2315V14.0648H47.825V12.6583Z" fill="#9D30FF"/>
<path d="M47.825 11.2519H49.2315V12.6583H47.825V11.2519Z" fill="#9D30FF"/>
<path d="M47.825 9.84537H49.2315V11.2519H47.825V9.84537Z" fill="#9D30FF"/>
<path d="M46.4185 11.2519H47.825V12.6583H46.4185V11.2519Z" fill="#9D30FF"/>
<path d="M45.012 12.6583H46.4185V14.0648H45.012V12.6583Z" fill="#9D30FF"/>
<path d="M43.6056 14.0648H45.012V15.4713H43.6056V14.0648Z" fill="#9D30FF"/>
<path d="M42.1991 15.4713H43.6056V16.8778H42.1991V15.4713Z" fill="#9D30FF"/>
<path d="M40.7926 16.8778H42.1991V18.2843H40.7926V16.8778Z" fill="#9D30FF"/>
<path d="M39.3861 18.2843H40.7926V19.6907H39.3861V18.2843Z" fill="#9D30FF"/>
<path d="M37.9796 19.6907H39.3861V21.0972H37.9796V19.6907Z" fill="#9D30FF"/>
<path d="M36.5732 21.0972H37.9796V22.5037H36.5732V21.0972Z" fill="#9D30FF"/>
<path d="M35.1667 22.5037H36.5732V23.9102H35.1667V22.5037Z" fill="#9D30FF"/>
<path d="M33.7602 23.9102H35.1667V25.3167H33.7602V23.9102Z" fill="#9D30FF"/>
<path d="M30.9472 26.7232H32.3537V28.1296H30.9472V26.7232Z" fill="#9D30FF"/>
<path d="M29.5407 28.1296H30.9472V29.5361H29.5407V28.1296Z" fill="#9D30FF"/>
<path d="M28.1343 29.5361H29.5407V30.9426H28.1343V29.5361Z" fill="#9D30FF"/>
<path d="M26.7278 30.9426H28.1343V32.3491H26.7278V30.9426Z" fill="#9D30FF"/>
<path d="M25.3213 32.3491H26.7278V33.7556H25.3213V32.3491Z" fill="#9D30FF"/>
<path d="M23.9148 33.7556H25.3213V35.1621H23.9148V33.7556Z" fill="#9D30FF"/>
<path d="M22.5083 35.1621H23.9148V36.5685H22.5083V35.1621Z" fill="#9D30FF"/>
<path d="M19.6954 37.975H21.1019V39.3815H19.6954V37.975Z" fill="#9D30FF"/>
<path d="M18.2889 39.3815H19.6954V40.788H18.2889V39.3815Z" fill="#9D30FF"/>
<path d="M46.4185 12.6583H47.825V14.0648H46.4185V12.6583Z" fill="#9D30FF"/>
<path d="M45.012 14.0648H46.4185V15.4713H45.012V14.0648Z" fill="#9D30FF"/>
<path d="M43.6056 15.4713H45.012V16.8778H43.6056V15.4713Z" fill="#9D30FF"/>
<path d="M42.1991 16.8778H43.6056V18.2843H42.1991V16.8778Z" fill="#9D30FF"/>
<path d="M40.7926 18.2843H42.1991V19.6907H40.7926V18.2843Z" fill="#9D30FF"/>
<path d="M39.3861 19.6907H40.7926V21.0972H39.3861V19.6907Z" fill="#9D30FF"/>
<path d="M37.9796 21.0972H39.3861V22.5037H37.9796V21.0972Z" fill="#9D30FF"/>
<path d="M36.5732 22.5037H37.9796V23.9102H36.5732V22.5037Z" fill="#9D30FF"/>
<path d="M35.1667 23.9102H36.5732V25.3167H35.1667V23.9102Z" fill="#9D30FF"/>
<path d="M32.3537 26.7232H33.7602V28.1296H32.3537V26.7232Z" fill="#9D30FF"/>
<path d="M30.9472 28.1296H32.3537V29.5361H30.9472V28.1296Z" fill="#9D30FF"/>
<path d="M29.5407 29.5361H30.9472V30.9426H29.5407V29.5361Z" fill="#9D30FF"/>
<path d="M28.1343 30.9426H29.5407V32.3491H28.1343V30.9426Z" fill="#9D30FF"/>
<path d="M26.7278 32.3491H28.1343V33.7556H26.7278V32.3491Z" fill="#9D30FF"/>
<path d="M25.3213 33.7556H26.7278V35.1621H25.3213V33.7556Z" fill="#9D30FF"/>
<path d="M23.9148 35.1621H25.3213V36.5685H23.9148V35.1621Z" fill="#9D30FF"/>
<path d="M22.5083 36.5685H23.9148V37.975H22.5083V36.5685Z" fill="#9D30FF"/>
<path d="M19.6954 39.3815H21.1019V40.788H19.6954V39.3815Z" fill="#9D30FF"/>
<path d="M18.2889 40.788H19.6954V42.1945H18.2889V40.788Z" fill="#9D30FF"/>
<path d="M49.2315 8.43889H50.638V9.84537H49.2315V8.43889Z" fill="#9D30FF"/>
<path d="M19.6954 43.6009H21.1019V45.0074H19.6954V43.6009Z" fill="#35236E"/>
<path d="M50.638 16.8778H52.0445V18.2843H50.638V16.8778Z" fill="#35236E"/>
<path d="M39.3861 8.43889H40.7926V9.84537H39.3861V8.43889Z" fill="#35236E"/>
<path d="M45.012 16.8778H46.4185V18.2843H45.012V16.8778Z" fill="#35236E"/>
<path d="M49.2315 18.2843H50.638V19.6907H49.2315V18.2843Z" fill="#35236E"/>
<path d="M37.9796 9.84537H39.3861V11.2519H37.9796V9.84537Z" fill="#35236E"/>
<path d="M43.6056 18.2843H45.012V19.6907H43.6056V18.2843Z" fill="#35236E"/>
<path d="M47.825 19.6907H49.2315V21.0972H47.825V19.6907Z" fill="#35236E"/>
<path d="M36.5732 11.2519H37.9796V12.6583H36.5732V11.2519Z" fill="#35236E"/>
<path d="M42.1991 19.6907H43.6056V21.0972H42.1991V19.6907Z" fill="#35236E"/>
<path d="M46.4185 21.0972H47.825V22.5037H46.4185V21.0972Z" fill="#35236E"/>
<path d="M35.1667 12.6583H36.5732V14.0648H35.1667V12.6583Z" fill="#35236E"/>
<path d="M40.7926 21.0972H42.1991V22.5037H40.7926V21.0972Z" fill="#35236E"/>
<path d="M45.012 22.5037H46.4185V23.9102H45.012V22.5037Z" fill="#35236E"/>
<path d="M33.7602 14.0648H35.1667V15.4713H33.7602V14.0648Z" fill="#35236E"/>
<path d="M39.3861 22.5037H40.7926V23.9102H39.3861V22.5037Z" fill="#35236E"/>
<path d="M43.6056 23.9102H45.012V25.3167H43.6056V23.9102Z" fill="#35236E"/>
<path d="M32.3537 15.4713H33.7602V16.8778H32.3537V15.4713Z" fill="#35236E"/>
<path d="M37.9796 23.9102H39.3861V25.3167H37.9796V23.9102Z" fill="#35236E"/>
<path d="M42.1991 25.3167H43.6056V26.7232H42.1991V25.3167Z" fill="#35236E"/>
<path d="M30.9472 16.8778H32.3537V18.2843H30.9472V16.8778Z" fill="#35236E"/>
<path d="M36.5732 25.3167H37.9796V26.7232H36.5732V25.3167Z" fill="#35236E"/>
<path d="M40.7926 26.7232H42.1991V28.1296H40.7926V26.7232Z" fill="#35236E"/>
<path d="M29.5407 18.2843H30.9472V19.6907H29.5407V18.2843Z" fill="#35236E"/>
<path d="M39.3861 28.1296H40.7926V29.5361H39.3861V28.1296Z" fill="#35236E"/>
<path d="M33.7602 28.1296H35.1667V29.5361H33.7602V28.1296Z" fill="#35236E"/>
<path d="M26.7278 21.0972H28.1343V22.5037H26.7278V21.0972Z" fill="#35236E"/>
<path d="M32.3537 29.5361H33.7602V30.9426H32.3537V29.5361Z" fill="#35236E"/>
<path d="M36.5732 30.8218H37.9796V32.2283H36.5732V30.8218Z" fill="#35236E"/>
<path d="M25.3213 22.5037H26.7278V23.9102H25.3213V22.5037Z" fill="#35236E"/>
<path d="M30.9472 30.9426H32.3537V32.3491H30.9472V30.9426Z" fill="#35236E"/>
<path d="M35.1667 32.2283H36.5732V33.6348H35.1667V32.2283Z" fill="#35236E"/>
<path d="M23.9148 23.9102H25.3213V25.3167H23.9148V23.9102Z" fill="#35236E"/>
<path d="M29.5407 32.3491H30.9472V33.7556H29.5407V32.3491Z" fill="#35236E"/>
<path d="M33.7602 33.6348H35.1667V35.0413H33.7602V33.6348Z" fill="#35236E"/>
<path d="M22.5083 25.3167H23.9148V26.7232H22.5083V25.3167Z" fill="#35236E"/>
<path d="M28.1343 33.7556H29.5407V35.1621H28.1343V33.7556Z" fill="#35236E"/>
<path d="M32.3537 35.0413H33.7602V36.4477H32.3537V35.0413Z" fill="#35236E"/>
<path d="M21.1019 26.7232H22.5083V28.1296H21.1019V26.7232Z" fill="#35236E"/>
<path d="M26.7278 35.1621H28.1343V36.5685H26.7278V35.1621Z" fill="#35236E"/>
<path d="M30.9472 36.4477H32.3537V37.8542H30.9472V36.4477Z" fill="#35236E"/>
<path d="M19.6954 28.1296H21.1019V29.5361H19.6954V28.1296Z" fill="#35236E"/>
<path d="M25.3213 36.5685H26.7278V37.975H25.3213V36.5685Z" fill="#35236E"/>
<path d="M29.5407 37.8542H30.9472V39.2607H29.5407V37.8542Z" fill="#35236E"/>
<path d="M18.2889 29.5361H19.6954V30.9426H18.2889V29.5361Z" fill="#35236E"/>
<path d="M23.9148 37.975H25.3213V39.3815H23.9148V37.975Z" fill="#35236E"/>
<path d="M28.1343 39.2607H29.5407V40.6672H28.1343V39.2607Z" fill="#35236E"/>
<path d="M16.8824 30.9426H18.2889V32.3491H16.8824V30.9426Z" fill="#35236E"/>
<path d="M26.7278 40.6672H28.1343V42.0737H26.7278V40.6672Z" fill="#35236E"/>
<path d="M21.1019 40.788H22.5083V42.1945H21.1019V40.788Z" fill="#35236E"/>
<path d="M14.0694 33.7556H15.4759V35.1621H14.0694V33.7556Z" fill="#35236E"/>
<path d="M19.6954 42.1945H21.1019V43.6009H19.6954V42.1945Z" fill="#35236E"/>
<path d="M43.6056 12.6583V11.2519H42.1991V12.6583H43.6056Z" fill="#35236E"/>
<path d="M45.012 11.2519V9.84537H43.6056V11.2519H45.012Z" fill="#35236E"/>
<path d="M46.4185 9.84537V8.43889H45.012V9.84537H46.4185Z" fill="#35236E"/>
<path d="M47.825 9.84537V8.43889H46.4185V9.84537H47.825Z" fill="#35236E"/>
<path d="M49.2315 9.84537V8.43889H47.825V9.84537H49.2315Z" fill="#35236E"/>
<path d="M42.1991 14.0648V12.6583H40.7926V14.0648H42.1991Z" fill="#35236E"/>
<path d="M40.7926 15.4713V14.0648H39.3861V15.4713H40.7926Z" fill="#35236E"/>
<path d="M39.3861 16.8778V15.4713H37.9796V16.8778H39.3861Z" fill="#35236E"/>
<path d="M37.9796 18.2843V16.8778H36.5732V18.2843H37.9796Z" fill="#35236E"/>
<path d="M36.5732 19.6907V18.2843H35.1667V19.6907H36.5732Z" fill="#35236E"/>
<path d="M35.1667 21.0972V19.6907H33.7602V21.0972H35.1667Z" fill="#35236E"/>
<path d="M33.7602 22.5037V21.0972H32.3537V22.5037H33.7602Z" fill="#35236E"/>
<path d="M30.9472 25.3167V23.9102H29.5407V25.3167H30.9472Z" fill="#35236E"/>
<path d="M29.5407 26.7232V25.3167H28.1343V26.7232H29.5407Z" fill="#35236E"/>
<path d="M28.1343 28.1296V26.7232H26.7278V28.1296H28.1343Z" fill="#35236E"/>
<path d="M26.7278 29.5361V28.1296H25.3213V29.5361H26.7278Z" fill="#35236E"/>
<path d="M25.3213 30.9426V29.5361H23.9148V30.9426H25.3213Z" fill="#35236E"/>
<path d="M23.9148 32.3491V30.9426H22.5083V32.3491H23.9148Z" fill="#35236E"/>
<path d="M22.5083 33.7556V32.3491H21.1019V33.7556H22.5083Z" fill="#35236E"/>
<path d="M21.1019 35.1621V33.7556H19.6954V35.1621H21.1019Z" fill="#35236E"/>
<path d="M18.2889 37.975V36.5685H16.8824V37.975H18.2889Z" fill="#35236E"/>
<path d="M16.8824 40.788V39.3815H15.4759V40.788H16.8824Z" fill="#35236E"/>
<path d="M18.2889 40.788V39.3815H16.8824V40.788H18.2889Z" fill="#35236E"/>
<path d="M18.2889 42.1945V40.788H16.8824V42.1945H18.2889Z" fill="#35236E"/>
<path d="M19.6954 43.6009V42.1945H18.2889V43.6009H19.6954Z" fill="#35236E"/>
<path d="M15.4759 39.3815V37.975H14.0694V39.3815H15.4759Z" fill="#35236E"/>
<path d="M14.0694 42.1945V40.788H12.663V42.1945H14.0694Z" fill="#35236E"/>
<path d="M12.663 42.1945V40.788H11.2565V42.1945H12.663Z" fill="#35236E"/>
<path d="M12.663 43.6009V42.1945H11.2565V43.6009H12.663Z" fill="#35236E"/>
<path d="M14.0694 43.6009V42.1945H12.663V43.6009H14.0694Z" fill="#35236E"/>
<path d="M14.0694 45.0074V43.6009H12.663V45.0074H14.0694Z" fill="var(--fill-0, #A950FF)"/>
<path d="M14.0694 46.4139V45.0074H12.663V46.4139H14.0694Z" fill="#9D30FF"/>
<path d="M15.4759 47.8204V46.4139H14.0694V47.8204H15.4759Z" fill="#9D30FF"/>
<path d="M15.4759 49.2269V47.8204H14.0694V49.2269H15.4759Z" fill="#35236E"/>
<path d="M15.4759 45.0074V43.6009H14.0694V45.0074H15.4759Z" fill="#E9C1FF"/>
<path d="M15.4759 46.4139V45.0074H14.0694V46.4139H15.4759Z" fill="var(--fill-0, #A950FF)"/>
<path d="M16.8824 46.4139V45.0074H15.4759V46.4139H16.8824Z" fill="#35236E"/>
<path d="M16.8824 47.8204V46.4139H15.4759V47.8204H16.8824Z" fill="#35236E"/>
<path d="M12.663 45.0074V43.6009H11.2565V45.0074H12.663Z" fill="#9D30FF"/>
<path d="M12.663 46.4139V45.0074H11.2565V46.4139H12.663Z" fill="#35236E"/>
<path d="M14.0694 47.8204V46.4139H12.663V47.8204H14.0694Z" fill="#35236E"/>
<path d="M14.0694 49.2269V47.8204H12.663V49.2269H14.0694Z" fill="#35236E"/>
<path d="M11.2565 46.4139V45.0074H9.84999V46.4139H11.2565Z" fill="#35236E"/>
<path d="M12.663 47.8204V46.4139H11.2565V47.8204H12.663Z" fill="#F62E76"/>
<path d="M9.84999 46.4139V45.0074H8.44351V46.4139H9.84999Z" fill="#35236E"/>
<path d="M15.4759 43.6009V42.1945H14.0694V43.6009H15.4759Z" fill="#35236E"/>
<path d="M16.8778 43.6009V42.1945H15.4713V43.6009H16.8778Z" fill="#35236E"/>
<path d="M16.8824 45.0074V43.6009H15.4759V45.0074H16.8824Z" fill="#35236E"/>
<path d="M18.2889 46.4139V45.0074H16.8824V46.4139H18.2889Z" fill="#35236E"/>
<path d="M18.2889 47.8204V46.4139H16.8824V47.8204H18.2889Z" fill="#35236E"/>
<path d="M18.2889 49.2269V47.8204H16.8824V49.2269H18.2889Z" fill="#35236E"/>
<path d="M19.6954 50.6334V49.2269H18.2889V50.6334H19.6954Z" fill="#35236E"/>
<path d="M21.1019 50.6334V49.2269H19.6954V50.6334H21.1019Z" fill="#35236E"/>
<path d="M22.5083 52.0398V50.6334H21.1019V52.0398H22.5083Z" fill="#35236E"/>
<path d="M22.5083 53.4463V52.0398H21.1019V53.4463H22.5083Z" fill="#35236E"/>
<path d="M16.8824 49.2269V47.8204H15.4759V49.2269H16.8824Z" fill="#35236E"/>
<path d="M16.8824 50.6334V49.2269H15.4759V50.6334H16.8824Z" fill="#9D30FF"/>
<path d="M12.663 50.6334V49.2269H11.2565V50.6334H12.663Z" fill="#6E06CC"/>
<path d="M11.2565 52.0398V50.6334H9.84999V52.0398H11.2565Z" fill="#6E06CC"/>
<path d="M11.2565 50.6334V49.2269H9.84999V50.6334H11.2565Z" fill="#6E06CC"/>
<path d="M8.44351 53.4463V52.0398H7.03703V53.4463H8.44351Z" fill="#6E06CC"/>
<path d="M5.63055 56.2593V54.8528H4.22406V56.2593H5.63055Z" fill="#6E06CC"/>
<path d="M9.84999 53.4463V52.0398H8.44351V53.4463H9.84999Z" fill="#6E06CC"/>
<path d="M9.84999 52.0398V50.6334H8.44351V52.0398H9.84999Z" fill="#6E06CC"/>
<path d="M7.03703 54.8528V53.4463H5.63055V54.8528H7.03703Z" fill="#6E06CC"/>
<path d="M4.22406 57.6658V56.2593H2.81758V57.6658H4.22406Z" fill="#6E06CC"/>
<path d="M8.44351 54.8528V53.4463H7.03703V54.8528H8.44351Z" fill="#6E06CC"/>
<path d="M7.03703 56.2593V54.8528H5.63055V56.2593H7.03703Z" fill="#6E06CC"/>
<path d="M5.63055 57.6658V56.2593H4.22406V57.6658H5.63055Z" fill="#6E06CC"/>
<path d="M11.2565 49.2269V47.8204H9.84999V49.2269H11.2565Z" fill="#6E06CC"/>
<path d="M9.84999 50.6334V49.2269H8.44351V50.6334H9.84999Z" fill="#6E06CC"/>
<path d="M8.44351 52.0398V50.6334H7.03703V52.0398H8.44351Z" fill="#6E06CC"/>
<path d="M7.03703 53.4463V52.0398H5.63055V53.4463H7.03703Z" fill="#6E06CC"/>
<path d="M5.63055 54.8528V53.4463H4.22406V54.8528H5.63055Z" fill="#6E06CC"/>
<path d="M4.22406 56.2593V54.8528H2.81758V56.2593H4.22406Z" fill="#6E06CC"/>
<path d="M9.84999 47.8204V46.4139H8.44351V47.8204H9.84999Z" fill="#A905F5"/>
<path d="M8.44351 49.2269V47.8204H7.03703V49.2269H8.44351Z" fill="#A905F5"/>
<path d="M7.03703 50.6334V49.2269H5.63055V50.6334H7.03703Z" fill="#A905F5"/>
<path d="M5.63055 52.0398V50.6334H4.22406V52.0398H5.63055Z" fill="#A905F5"/>
<path d="M4.22406 53.4463V52.0398H2.81758V53.4463H4.22406Z" fill="#A905F5"/>
<path d="M4.22406 54.8528V53.4463H2.81758V54.8528H4.22406Z" fill="#A905F5"/>
<path d="M7.03703 52.0398V50.6334H5.63055V52.0398H7.03703Z" fill="#A905F5"/>
<path d="M9.84999 49.2269V47.8204H8.44351V49.2269H9.84999Z" fill="#A905F5"/>
<path d="M2.81758 54.8528V53.4463H1.4111V54.8528H2.81758Z" fill="#A905F5"/>
<path d="M2.81758 56.2593V54.8528H1.4111V56.2593H2.81758Z" fill="#A905F5"/>
<path d="M5.63055 53.4463V52.0398H4.22406V53.4463H5.63055Z" fill="#A905F5"/>
<path d="M8.44351 50.6334V49.2269H7.03703V50.6334H8.44351Z" fill="#A905F5"/>
<path d="M16.8824 52.0398V50.6334H15.4759V52.0398H16.8824Z" fill="#9D30FF"/>
<path d="M18.2889 53.4463V52.0398H16.8824V53.4463H18.2889Z" fill="#9D30FF"/>
<path d="M19.6954 54.8528V53.4463H18.2889V54.8528H19.6954Z" fill="#9D30FF"/>
<path d="M18.2889 50.6334V49.2269H16.8824V50.6334H18.2889Z" fill="#9D30FF"/>
<path d="M18.2889 52.0398V50.6334H16.8824V52.0398H18.2889Z" fill="#9D30FF"/>
<path d="M19.6954 52.0398V50.6334H18.2889V52.0398H19.6954Z" fill="#9D30FF"/>
<path d="M21.1019 52.0398V50.6334H19.6954V52.0398H21.1019Z" fill="#9D30FF"/>
<path d="M19.6954 53.4463V52.0398H18.2889V53.4463H19.6954Z" fill="#9D30FF"/>
<path d="M21.1019 53.4463V52.0398H19.6954V53.4463H21.1019Z" fill="#9D30FF"/>
<path d="M21.1019 54.8528V53.4463H19.6954V54.8528H21.1019Z" fill="#9D30FF"/>
<path d="M15.4759 50.6334V49.2269H14.0694V50.6334H15.4759Z" fill="#35236E"/>
<path d="M15.4759 52.0398V50.6334H14.0694V52.0398H15.4759Z" fill="#35236E"/>
<path d="M16.8824 53.4463V52.0398H15.4759V53.4463H16.8824Z" fill="#35236E"/>
<path d="M18.2889 54.8528V53.4463H16.8824V54.8528H18.2889Z" fill="#35236E"/>
<path d="M14.0694 54.8528V53.4463H12.663V54.8528H14.0694Z" fill="#EDC5FF"/>
<path d="M18.2889 4.21945V5.62593H16.8824V4.21945H18.2889Z" fill="#EDC5FF"/>
<path d="M42.1945 54.8528V53.4463H40.788V54.8528H42.1945Z" fill="#EDC5FF"/>
<path d="M37.9796 4.21945V5.62593H36.5732V4.21945H37.9796Z" fill="#EDC5FF"/>
<path d="M47.825 29.4153V30.8218H46.4185V29.4153H47.825Z" fill="#EDC5FF"/>
<path d="M5.63516 29.4153V30.8218H4.22868V29.4153H5.63516Z" fill="#EDC5FF"/>
<path d="M50.6334 29.4153V30.8218H49.2269V29.4153H50.6334Z" fill="#EDC5FF"/>
<path d="M8.44351 29.4153V30.8218H7.03703V29.4153H8.44351Z" fill="#EDC5FF"/>
<path d="M49.2269 28.0088V29.4153H47.8204V28.0088H49.2269Z" fill="#EDC5FF"/>
<path d="M7.03703 28.0088V29.4153H5.63055V28.0088H7.03703Z" fill="#EDC5FF"/>
<path d="M49.2269 30.8218V32.2283H47.8204V30.8218H49.2269Z" fill="#EDC5FF"/>
<path d="M7.03703 30.8218V32.2283H5.63055V30.8218H7.03703Z" fill="#EDC5FF"/>
<path d="M19.6954 56.2593V54.8528H18.2889V56.2593H19.6954Z" fill="#35236E"/>
<path d="M21.1019 56.2593V54.8528H19.6954V56.2593H21.1019Z" fill="#35236E"/>
<path d="M22.5083 54.8528V53.4463H21.1019V54.8528H22.5083Z" fill="#35236E"/>
<path d="M14.0694 50.6334V49.2269H12.663V50.6334H14.0694Z" fill="#35236E"/>
<path d="M12.663 52.0398V50.6334H11.2565V52.0398H12.663Z" fill="#35236E"/>
<path d="M11.2565 53.4463V52.0398H9.84999V53.4463H11.2565Z" fill="#35236E"/>
<path d="M9.84999 54.8528V53.4463H8.44351V54.8528H9.84999Z" fill="#35236E"/>
<path d="M8.44351 56.2593V54.8528H7.03703V56.2593H8.44351Z" fill="#35236E"/>
<path d="M7.03703 57.6658V56.2593H5.63055V57.6658H7.03703Z" fill="#35236E"/>
<path d="M5.63055 59.0722V57.6658H4.22406V59.0722H5.63055Z" fill="#35236E"/>
<path d="M4.22406 59.0722V57.6658H2.81758V59.0722H4.22406Z" fill="#35236E"/>
<path d="M2.81758 57.6658V56.2593H1.4111V57.6658H2.81758Z" fill="#35236E"/>
<path d="M12.663 49.2269V47.8204H11.2565V49.2269H12.663Z" fill="#35236E"/>
<path d="M11.2565 47.8204V46.4139H9.84999V47.8204H11.2565Z" fill="#35236E"/>
<path d="M8.44351 47.8204V46.4139H7.03703V47.8204H8.44351Z" fill="#35236E"/>
<path d="M7.03703 49.2269V47.8204H5.63055V49.2269H7.03703Z" fill="#35236E"/>
<path d="M5.63055 50.6334V49.2269H4.22406V50.6334H5.63055Z" fill="#35236E"/>
<path d="M4.22406 52.0398V50.6334H2.81758V52.0398H4.22406Z" fill="#35236E"/>
<path d="M2.81758 53.4463V52.0398H1.4111V53.4463H2.81758Z" fill="#35236E"/>
<path d="M1.4111 54.8528V53.4463H0.0046164L0.00461646 54.8528H1.4111Z" fill="#35236E"/>
<path d="M1.4111 56.2593V54.8528H0.00461646V56.2593H1.4111Z" fill="#35236E"/>
<path d="M14.0694 39.3815V37.975H12.663V39.3815H14.0694Z" fill="#35236E"/>
<path d="M12.663 37.975V36.5685H11.2565V37.975H12.663Z" fill="#35236E"/>
<path d="M23.9148 43.4801H25.3213V44.8866H23.9148V43.4801Z" fill="#35236E"/>
<path d="M12.663 35.1621H14.0694V36.5685H12.663V35.1621Z" fill="#35236E"/>
<path d="M19.6954 45.0074H21.1019V46.4139H19.6954V45.0074Z" fill="#35236E"/>
<path d="M21.1019 46.4139H22.5083V47.8204H21.1019V46.4139Z" fill="#35236E"/>
<path d="M22.5083 45.0074H23.9148V46.4139H22.5083V45.0074Z" fill="#35236E"/>
<path d="M52.0445 7.03241H53.4509V8.43889H52.0445V7.03241Z" fill="#9D30FF"/>
<path d="M50.638 7.03241H52.0445V8.43889H50.638V7.03241Z" fill="#9D30FF"/>
<path d="M52.0445 8.43889H53.4509V9.84537H52.0445V8.43889Z" fill="#9D30FF"/>
<path d="M50.638 8.43889H52.0445V9.84537H50.638V8.43889Z" fill="#9D30FF"/>
<path d="M52.0445 9.84537H53.4509V11.2519H52.0445V9.84537Z" fill="#9D30FF"/>
<path d="M50.638 9.84537H52.0445V11.2519H50.638V9.84537Z" fill="#9D30FF"/>
<path d="M52.0445 11.2519H53.4509V12.6583H52.0445V11.2519Z" fill="#9D30FF"/>
<path d="M50.638 11.2519H52.0445V12.6583H50.638V11.2519Z" fill="#9D30FF"/>
<path d="M52.0445 12.6583H53.4509V14.0648H52.0445V12.6583Z" fill="#9D30FF"/>
<path d="M50.638 12.6583H52.0445V14.0648H50.638V12.6583Z" fill="#9D30FF"/>
<path d="M50.638 14.0648H52.0445V15.4713H50.638V14.0648Z" fill="#9D30FF"/>
<path d="M50.638 15.4713H52.0445V16.8778H50.638V15.4713Z" fill="#9D30FF"/>
<path d="M49.2315 16.8778H50.638V18.2843H49.2315V16.8778Z" fill="#9D30FF"/>
<path d="M47.825 18.2843H49.2315V19.6907H47.825V18.2843Z" fill="#9D30FF"/>
<path d="M46.4185 19.6907H47.825V21.0972H46.4185V19.6907Z" fill="#9D30FF"/>
<path d="M45.012 21.0972H46.4185V22.5037H45.012V21.0972Z" fill="#9D30FF"/>
<path d="M43.6056 22.5037H45.012V23.9102H43.6056V22.5037Z" fill="#9D30FF"/>
<path d="M42.1991 23.9102H43.6056V25.3167H42.1991V23.9102Z" fill="#9D30FF"/>
<path d="M40.7926 25.3167H42.1991V26.7232H40.7926V25.3167Z" fill="#9D30FF"/>
<path d="M39.3861 26.7232H40.7926V28.1296H39.3861V26.7232Z" fill="#9D30FF"/>
<path d="M37.9796 28.1296H39.3861V29.5361H37.9796V28.1296Z" fill="#9D30FF"/>
<path d="M35.1667 30.9426H36.5732V32.3491H35.1667V30.9426Z" fill="#9D30FF"/>
<path d="M33.7602 32.3491H35.1667V33.7556H33.7602V32.3491Z" fill="#9D30FF"/>
<path d="M32.3537 33.7556H33.7602V35.1621H32.3537V33.7556Z" fill="#9D30FF"/>
<path d="M30.9472 35.1621H32.3537V36.5685H30.9472V35.1621Z" fill="#9D30FF"/>
<path d="M29.5407 36.5685H30.9472V37.975H29.5407V36.5685Z" fill="#9D30FF"/>
<path d="M28.1343 37.975H29.5407V39.3815H28.1343V37.975Z" fill="#9D30FF"/>
<path d="M26.7278 39.3815H28.1343V40.788H26.7278V39.3815Z" fill="#9D30FF"/>
<path d="M23.9148 42.1945H25.3213V43.6009H23.9148V42.1945Z" fill="#9D30FF"/>
<path d="M22.5083 43.6009H23.9148V45.0074H22.5083V43.6009Z" fill="#9D30FF"/>
<path d="M53.4509 7.03241H54.8574V8.43889H53.4509V7.03241Z" fill="#35236E"/>
<path d="M53.4509 8.43889H54.8574V9.84537H53.4509V8.43889Z" fill="#35236E"/>
<path d="M53.4509 9.84537H54.8574V11.2519H53.4509V9.84537Z" fill="#35236E"/>
<path d="M53.4509 11.2519H54.8574V12.6583H53.4509V11.2519Z" fill="#35236E"/>
<path d="M53.4509 12.6583H54.8574V14.0648H53.4509V12.6583Z" fill="#35236E"/>
<path d="M9.84999 43.6009H11.2565V45.0074H9.84999V43.6009Z" fill="#35236E"/>
<path d="M9.84999 40.788H11.2565V42.1945H9.84999V40.788Z" fill="#35236E"/>
<path d="M8.44351 39.3815H9.84999V40.788H8.44351V39.3815Z" fill="#35236E"/>
<path d="M8.44351 37.975H9.84999V39.3815H8.44351V37.975Z" fill="#35236E"/>
<path d="M7.03703 36.5685H8.44351V37.975H7.03703V36.5685Z" fill="#35236E"/>
<path d="M5.63055 36.5685H7.03703V37.975H5.63055V36.5685Z" fill="#35236E"/>
<path d="M9.84999 42.1945H11.2565V43.6009H9.84999V42.1945Z" fill="#35236E"/>
<path d="M8.44351 42.1945H9.84999V43.6009H8.44351V42.1945Z" fill="#9D30FF"/>
<path d="M7.03703 42.1945H8.44351V43.6009H7.03703V42.1945Z" fill="#9D30FF"/>
<path d="M5.63055 40.788H7.03703V42.1945H5.63055V40.788Z" fill="#9D30FF"/>
<path d="M4.22406 39.3815H5.63055V40.788H4.22406V39.3815Z" fill="#9D30FF"/>
<path d="M8.44351 40.788H9.84999V42.1945H8.44351V40.788Z" fill="#9D30FF"/>
<path d="M7.03703 40.788H8.44351V42.1945H7.03703V40.788Z" fill="#9D30FF"/>
<path d="M7.03703 39.3815H8.44351V40.788H7.03703V39.3815Z" fill="#9D30FF"/>
<path d="M7.03703 37.975H8.44351V39.3815H7.03703V37.975Z" fill="#9D30FF"/>
<path d="M5.63055 39.3815H7.03703V40.788H5.63055V39.3815Z" fill="#9D30FF"/>
<path d="M5.63055 37.975H7.03703V39.3815H5.63055V37.975Z" fill="#9D30FF"/>
<path d="M4.22406 37.975H5.63055V39.3815H4.22406V37.975Z" fill="#9D30FF"/>
<path d="M8.44351 43.6009H9.84999V45.0074H8.44351V43.6009Z" fill="#35236E"/>
<path d="M7.03703 43.6009H8.44351V45.0074H7.03703V43.6009Z" fill="#35236E"/>
<path d="M5.63055 42.1945H7.03703V43.6009H5.63055V42.1945Z" fill="#35236E"/>
<path d="M4.22406 40.788H5.63055V42.1945H4.22406V40.788Z" fill="#35236E"/>
<path d="M2.81758 39.3815H4.22406V40.788H2.81758V39.3815Z" fill="#35236E"/>
<path d="M2.81758 37.975H4.22406V39.3815H2.81758V37.975Z" fill="#35236E"/>
<path d="M4.22406 36.5685H5.63055V37.975H4.22406V36.5685Z" fill="#35236E"/>
<path d="M9.84538 4.21945H8.43889V5.62593H9.84538V4.21945Z" fill="#35236E"/>
<path d="M9.84538 5.62593H8.43889V7.03241H9.84538V5.62593Z" fill="#35236E"/>
<path d="M11.2519 5.62593H9.84538V7.03241H11.2519V5.62593Z" fill="#35236E"/>
<path d="M12.6583 5.62593H11.2519V7.03241H12.6583V5.62593Z" fill="#35236E"/>
<path d="M14.0648 7.03241H12.6583V8.43889H14.0648V7.03241Z" fill="#35236E"/>
<path d="M8.43889 4.21945H7.03241V5.62593H8.43889V4.21945Z" fill="#35236E"/>
<path d="M7.03241 4.21945H5.62593V5.62593H7.03241V4.21945Z" fill="#35236E"/>
<path d="M5.62593 4.21945H4.21945V5.62593H5.62593V4.21945Z" fill="#35236E"/>
<path d="M4.21945 4.21945H2.81296V5.62593H4.21945V4.21945Z" fill="#35236E"/>
<path d="M2.81296 4.21945H1.40648V5.62593H2.81296V4.21945Z" fill="#35236E"/>
<path d="M1.40648 4.21945H0V5.62593H1.40648V4.21945Z" fill="#35236E"/>
<path d="M1.40648 5.62593H0V7.03241H1.40648V5.62593Z" fill="#35236E"/>
<path d="M2.81296 5.62593H1.40648V7.03241H2.81296V5.62593Z" fill="#9D30FF"/>
<path d="M4.21945 5.62593H2.81296V7.03241H4.21945V5.62593Z" fill="#D67DFF"/>
<path d="M5.62593 7.03241H4.21945V8.43889H5.62593V7.03241Z" fill="#D67DFF"/>
<path d="M5.62593 5.62593H4.21945V7.03241H5.62593V5.62593Z" fill="#D67DFF"/>
<path d="M7.03241 7.03241H5.62593V8.43889H7.03241V7.03241Z" fill="#D67DFF"/>
<path d="M7.03241 5.62593H5.62593V7.03241H7.03241V5.62593Z" fill="#D67DFF"/>
<path d="M8.43889 7.03241H7.03241V8.43889H8.43889V7.03241Z" fill="#D67DFF"/>
<path d="M11.2519 7.03241H9.84538V8.43889H11.2519V7.03241Z" fill="#D67DFF"/>
<path d="M11.2519 8.43889H9.84538V9.84537H11.2519V8.43889Z" fill="#D67DFF"/>
<path d="M12.6583 9.84537H11.2519V11.2519H12.6583V9.84537Z" fill="#D67DFF"/>
<path d="M14.0648 11.2519H12.6583V12.6583H14.0648V11.2519Z" fill="#D67DFF"/>
<path d="M15.4713 12.6583H14.0648V14.0648H15.4713V12.6583Z" fill="#D67DFF"/>
<path d="M16.8778 14.0648H15.4713V15.4713H16.8778V14.0648Z" fill="#D67DFF"/>
<path d="M18.2843 15.4713H16.8778V16.8778H18.2843V15.4713Z" fill="#D67DFF"/>
<path d="M19.6908 16.8778H18.2843V18.2843H19.6908V16.8778Z" fill="#D67DFF"/>
<path d="M21.0972 18.2843H19.6908V19.6907H21.0972V18.2843Z" fill="#D67DFF"/>
<path d="M22.5037 19.6907H21.0972V21.0972H22.5037V19.6907Z" fill="#D67DFF"/>
<path d="M23.9102 21.0972H22.5037V22.5037H23.9102V21.0972Z" fill="#D67DFF"/>
<path d="M25.3167 22.5037H23.9102V23.9102H25.3167V22.5037Z" fill="#D67DFF"/>
<path d="M26.7232 23.9102H25.3167V25.3167H26.7232V23.9102Z" fill="#D67DFF"/>
<path d="M28.1296 25.3167H26.7232V26.7232H28.1296V25.3167Z" fill="#D67DFF"/>
<path d="M29.5361 26.7232H28.1296V28.1296H29.5361V26.7232Z" fill="#D67DFF"/>
<path d="M30.9426 28.1296H29.5361V29.5361H30.9426V28.1296Z" fill="#D67DFF"/>
<path d="M32.3491 29.5361H30.9426V30.9426H32.3491V29.5361Z" fill="#D67DFF"/>
<path d="M33.7556 30.9426H32.3491V32.3491H33.7556V30.9426Z" fill="#D67DFF"/>
<path d="M35.1621 32.3491H33.7556V33.7556H35.1621V32.3491Z" fill="#D67DFF"/>
<path d="M36.5685 33.7556H35.1621V35.1621H36.5685V33.7556Z" fill="#D67DFF"/>
<path d="M37.975 35.1621H36.5685V36.5685H37.975V35.1621Z" fill="#D67DFF"/>
<path d="M39.3815 36.5685H37.975V37.975H39.3815V36.5685Z" fill="#D67DFF"/>
<path d="M37.975 37.975H36.5685V39.3815H37.975V37.975Z" fill="#D67DFF"/>
<path d="M39.3815 37.975H37.975V39.3815H39.3815V37.975Z" fill="#D67DFF"/>
<path d="M36.5685 36.5685H35.1621V37.975H36.5685V36.5685Z" fill="#D67DFF"/>
<path d="M35.1621 35.1621H33.7556V36.5685H35.1621V35.1621Z" fill="#EDC5FF"/>
<path d="M33.7556 33.7556H32.3491V35.1621H33.7556V33.7556Z" fill="#EDC5FF"/>
<path d="M32.3491 32.3491H30.9426V33.7556H32.3491V32.3491Z" fill="#EDC5FF"/>
<path d="M30.9426 30.9426H29.5361V32.3491H30.9426V30.9426Z" fill="#EDC5FF"/>
<path d="M29.5361 29.5361H28.1296V30.9426H29.5361V29.5361Z" fill="#EDC5FF"/>
<path d="M28.1296 28.1296H26.7232V29.5361H28.1296V28.1296Z" fill="#EDC5FF"/>
<path d="M26.7232 26.7232H25.3167V28.1296H26.7232V26.7232Z" fill="#EDC5FF"/>
<path d="M25.3167 25.3167H23.9102V26.7232H25.3167V25.3167Z" fill="#EDC5FF"/>
<path d="M23.9102 23.9102H22.5037V25.3167H23.9102V23.9102Z" fill="#EDC5FF"/>
<path d="M22.5037 22.5037H21.0972V23.9102H22.5037V22.5037Z" fill="#EDC5FF"/>
<path d="M21.0972 21.0972H19.6908V22.5037H21.0972V21.0972Z" fill="#EDC5FF"/>
<path d="M19.6908 19.6907H18.2843V21.0972H19.6908V19.6907Z" fill="#EDC5FF"/>
<path d="M18.2843 18.2843H16.8778V19.6907H18.2843V18.2843Z" fill="#EDC5FF"/>
<path d="M16.8778 16.8778H15.4713V18.2843H16.8778V16.8778Z" fill="#EDC5FF"/>
<path d="M15.4713 15.4713H14.0648V16.8778H15.4713V15.4713Z" fill="#EDC5FF"/>
<path d="M14.0648 14.0648H12.6583V15.4713H14.0648V14.0648Z" fill="#EDC5FF"/>
<path d="M12.6583 12.6583H11.2519V14.0648H12.6583V12.6583Z" fill="#EDC5FF"/>
<path d="M11.2519 11.2519H9.84538V12.6583H11.2519V11.2519Z" fill="#EDC5FF"/>
<path d="M9.84538 9.84537H8.43889V11.2519H9.84538V9.84537Z" fill="#EDC5FF"/>
<path d="M36.5685 37.975H35.1621V39.3815H36.5685V37.975Z" fill="#D67DFF"/>
<path d="M35.1621 36.5685H33.7556V37.975H35.1621V36.5685Z" fill="#D67DFF"/>
<path d="M33.7556 35.1621H32.3491V36.5685H33.7556V35.1621Z" fill="#EDC5FF"/>
<path d="M32.3491 33.7556H30.9426V35.1621H32.3491V33.7556Z" fill="#EDC5FF"/>
<path d="M30.9426 32.3491H29.5361V33.7556H30.9426V32.3491Z" fill="#EDC5FF"/>
<path d="M29.5361 30.9426H28.1296V32.3491H29.5361V30.9426Z" fill="#EDC5FF"/>
<path d="M28.1296 29.5361H26.7232V30.9426H28.1296V29.5361Z" fill="#EDC5FF"/>
<path d="M26.7232 28.1296H25.3167V29.5361H26.7232V28.1296Z" fill="#EDC5FF"/>
<path d="M25.3167 26.7232H23.9102V28.1296H25.3167V26.7232Z" fill="#EDC5FF"/>
<path d="M23.9102 25.3167H22.5037V26.7232H23.9102V25.3167Z" fill="#EDC5FF"/>
<path d="M22.5037 23.9102H21.0972V25.3167H22.5037V23.9102Z" fill="#EDC5FF"/>
<path d="M21.0972 22.5037H19.6908V23.9102H21.0972V22.5037Z" fill="#EDC5FF"/>
<path d="M19.6908 21.0972H18.2843V22.5037H19.6908V21.0972Z" fill="#EDC5FF"/>
<path d="M18.2843 19.6907H16.8778V21.0972H18.2843V19.6907Z" fill="#EDC5FF"/>
<path d="M16.8778 18.2843H15.4713V19.6907H16.8778V18.2843Z" fill="#EDC5FF"/>
<path d="M15.4713 16.8778H14.0648V18.2843H15.4713V16.8778Z" fill="#EDC5FF"/>
<path d="M14.0648 15.4713H12.6583V16.8778H14.0648V15.4713Z" fill="#EDC5FF"/>
<path d="M12.6583 14.0648H11.2519V15.4713H12.6583V14.0648Z" fill="#EDC5FF"/>
<path d="M11.2519 12.6583H9.84538V14.0648H11.2519V12.6583Z" fill="#EDC5FF"/>
<path d="M9.84538 11.2519H8.43889V12.6583H9.84538V11.2519Z" fill="#EDC5FF"/>
<path d="M8.43889 9.84537H7.03241V11.2519H8.43889V9.84537Z" fill="#EDC5FF"/>
<path d="M8.43889 5.62593H7.03241V7.03241H8.43889V5.62593Z" fill="#D67DFF"/>
<path d="M9.84538 7.03241H8.43889V8.43889H9.84538V7.03241Z" fill="#D67DFF"/>
<path d="M12.6583 7.03241H11.2519V8.43889H12.6583V7.03241Z" fill="#D67DFF"/>
<path d="M12.6583 8.43889H11.2519V9.84537H12.6583V8.43889Z" fill="#D67DFF"/>
<path d="M14.0648 9.84537H12.6583V11.2519H14.0648V9.84537Z" fill="#D67DFF"/>
<path d="M15.4713 11.2519H14.0648V12.6583H15.4713V11.2519Z" fill="#D67DFF"/>
<path d="M16.8778 12.6583H15.4713V14.0648H16.8778V12.6583Z" fill="#D67DFF"/>
<path d="M18.2843 14.0648H16.8778V15.4713H18.2843V14.0648Z" fill="#D67DFF"/>
<path d="M19.6908 15.4713H18.2843V16.8778H19.6908V15.4713Z" fill="#D67DFF"/>
<path d="M21.0972 16.8778H19.6908V18.2843H21.0972V16.8778Z" fill="#D67DFF"/>
<path d="M22.5037 18.2843H21.0972V19.6907H22.5037V18.2843Z" fill="#D67DFF"/>
<path d="M23.9102 19.6907H22.5037V21.0972H23.9102V19.6907Z" fill="#D67DFF"/>
<path d="M25.3167 21.0972H23.9102V22.5037H25.3167V21.0972Z" fill="#D67DFF"/>
<path d="M26.7232 22.5037H25.3167V23.9102H26.7232V22.5037Z" fill="#D67DFF"/>
<path d="M28.1296 23.9102H26.7232V25.3167H28.1296V23.9102Z" fill="#D67DFF"/>
<path d="M29.5361 25.3167H28.1296V26.7232H29.5361V25.3167Z" fill="#D67DFF"/>
<path d="M30.9426 26.7232H29.5361V28.1296H30.9426V26.7232Z" fill="#D67DFF"/>
<path d="M32.3491 28.1296H30.9426V29.5361H32.3491V28.1296Z" fill="#D67DFF"/>
<path d="M33.7556 29.5361H32.3491V30.9426H33.7556V29.5361Z" fill="#D67DFF"/>
<path d="M35.1621 30.9426H33.7556V32.3491H35.1621V30.9426Z" fill="#D67DFF"/>
<path d="M36.5685 32.3491H35.1621V33.7556H36.5685V32.3491Z" fill="#D67DFF"/>
<path d="M37.975 33.7556H36.5685V35.1621H37.975V33.7556Z" fill="#D67DFF"/>
<path d="M39.3815 35.1621H37.975V36.5685H39.3815V35.1621Z" fill="#D67DFF"/>
<path d="M40.788 36.5685H39.3815V37.975H40.788V36.5685Z" fill="#D67DFF"/>
<path d="M14.0648 8.43889H12.6583V9.84537H14.0648V8.43889Z" fill="#D67DFF"/>
<path d="M15.4713 9.84537H14.0648V11.2519H15.4713V9.84537Z" fill="#D67DFF"/>
<path d="M16.8778 11.2519H15.4713V12.6583H16.8778V11.2519Z" fill="#D67DFF"/>
<path d="M18.2843 12.6583H16.8778V14.0648H18.2843V12.6583Z" fill="#D67DFF"/>
<path d="M19.6908 14.0648H18.2843V15.4713H19.6908V14.0648Z" fill="#D67DFF"/>
<path d="M21.0972 15.4713H19.6908V16.8778H21.0972V15.4713Z" fill="#D67DFF"/>
<path d="M22.5037 16.8778H21.0972V18.2843H22.5037V16.8778Z" fill="#D67DFF"/>
<path d="M23.9102 18.2843H22.5037V19.6907H23.9102V18.2843Z" fill="#D67DFF"/>
<path d="M25.3167 19.6907H23.9102V21.0972H25.3167V19.6907Z" fill="#D67DFF"/>
<path d="M26.7232 21.0972H25.3167V22.5037H26.7232V21.0972Z" fill="#D67DFF"/>
<path d="M28.1296 22.5037H26.7232V23.9102H28.1296V22.5037Z" fill="#D67DFF"/>
<path d="M29.5361 23.9102H28.1296V25.3167H29.5361V23.9102Z" fill="#D67DFF"/>
<path d="M30.9426 25.3167H29.5361V26.7232H30.9426V25.3167Z" fill="#D67DFF"/>
<path d="M32.3491 26.7232H30.9426V28.1296H32.3491V26.7232Z" fill="#D67DFF"/>
<path d="M33.7556 28.1296H32.3491V29.5361H33.7556V28.1296Z" fill="#D67DFF"/>
<path d="M35.1621 29.5361H33.7556V30.9426H35.1621V29.5361Z" fill="#D67DFF"/>
<path d="M36.5685 30.9426H35.1621V32.3491H36.5685V30.9426Z" fill="#D67DFF"/>
<path d="M37.975 32.3491H36.5685V33.7556H37.975V32.3491Z" fill="#D67DFF"/>
<path d="M39.3815 33.7556H37.975V35.1621H39.3815V33.7556Z" fill="#D67DFF"/>
<path d="M40.788 35.1621H39.3815V36.5685H40.788V35.1621Z" fill="#D67DFF"/>
<path d="M42.1945 36.5685H40.788V37.975H42.1945V36.5685Z" fill="#D67DFF"/>
<path d="M2.81296 14.0648H1.40648V15.4713H2.81296V14.0648Z" fill="#35236E"/>
<path d="M2.81296 15.4713H1.40648V16.8778H2.81296V15.4713Z" fill="#35236E"/>
<path d="M8.43889 15.4713H7.03241V16.8778H8.43889V15.4713Z" fill="#35236E"/>
<path d="M7.03241 14.0648H5.62593V15.4713H7.03241V14.0648Z" fill="#35236E"/>
<path d="M5.62593 12.6583H4.21945V14.0648H5.62593V12.6583Z" fill="#35236E"/>
<path d="M5.62593 11.2519H4.21945V12.6583H5.62593V11.2519Z" fill="#35236E"/>
<path d="M5.62593 9.84537H4.21945V11.2519H5.62593V9.84537Z" fill="#35236E"/>
<path d="M5.62593 14.0648H4.21945V15.4713H5.62593V14.0648Z" fill="#9D30FF"/>
<path d="M5.62593 15.4713H4.21945V16.8778H5.62593V15.4713Z" fill="#9D30FF"/>
<path d="M7.03241 16.8778H5.62593V18.2843H7.03241V16.8778Z" fill="#9D30FF"/>
<path d="M8.43889 18.2843H7.03241V19.6907H8.43889V18.2843Z" fill="#9D30FF"/>
<path d="M9.84538 19.6907H8.43889V21.0972H9.84538V19.6907Z" fill="#9D30FF"/>
<path d="M11.2519 21.0972H9.84538V22.5037H11.2519V21.0972Z" fill="#9D30FF"/>
<path d="M12.6583 22.5037H11.2519V23.9102H12.6583V22.5037Z" fill="#9D30FF"/>
<path d="M14.0648 23.9102H12.6583V25.3167H14.0648V23.9102Z" fill="#9D30FF"/>
<path d="M15.4713 25.3167H14.0648V26.7232H15.4713V25.3167Z" fill="#9D30FF"/>
<path d="M16.8778 26.7232H15.4713V28.1296H16.8778V26.7232Z" fill="#9D30FF"/>
<path d="M18.2843 28.1296H16.8778V29.5361H18.2843V28.1296Z" fill="#9D30FF"/>
<path d="M19.6908 29.5361H18.2843V30.9426H19.6908V29.5361Z" fill="#9D30FF"/>
<path d="M21.0972 30.9426H19.6908V32.3491H21.0972V30.9426Z" fill="#9D30FF"/>
<path d="M22.5037 32.3491H21.0972V33.7556H22.5037V32.3491Z" fill="#9D30FF"/>
<path d="M23.9102 33.7556H22.5037V35.1621H23.9102V33.7556Z" fill="#9D30FF"/>
<path d="M25.3167 35.1621H23.9102V36.5685H25.3167V35.1621Z" fill="#9D30FF"/>
<path d="M26.7232 36.5685H25.3167V37.975H26.7232V36.5685Z" fill="#9D30FF"/>
<path d="M28.1296 37.975H26.7232V39.3815H28.1296V37.975Z" fill="#9D30FF"/>
<path d="M29.5361 39.3815H28.1296V40.788H29.5361V39.3815Z" fill="#9D30FF"/>
<path d="M30.9426 40.788H29.5361V42.1945H30.9426V40.788Z" fill="#9D30FF"/>
<path d="M32.3491 42.1945H30.9426V43.6009H32.3491V42.1945Z" fill="#9D30FF"/>
<path d="M33.7556 43.6009H32.3491V45.0074H33.7556V43.6009Z" fill="#9D30FF"/>
<path d="M33.7556 45.0074H32.3491V46.4139H33.7556V45.0074Z" fill="#9D30FF"/>
<path d="M7.03241 15.4713H5.62593V16.8778H7.03241V15.4713Z" fill="#9D30FF"/>
<path d="M8.43889 16.8778H7.03241V18.2843H8.43889V16.8778Z" fill="#9D30FF"/>
<path d="M9.84538 18.2843H8.43889V19.6907H9.84538V18.2843Z" fill="#9D30FF"/>
<path d="M11.2519 19.6907H9.84538V21.0972H11.2519V19.6907Z" fill="#9D30FF"/>
<path d="M12.6583 21.0972H11.2519V22.5037H12.6583V21.0972Z" fill="#9D30FF"/>
<path d="M14.0648 22.5037H12.6583V23.9102H14.0648V22.5037Z" fill="#9D30FF"/>
<path d="M15.4713 23.9102H14.0648V25.3167H15.4713V23.9102Z" fill="#9D30FF"/>
<path d="M16.8778 25.3167H15.4713V26.7232H16.8778V25.3167Z" fill="#9D30FF"/>
<path d="M18.2843 26.7232H16.8778V28.1296H18.2843V26.7232Z" fill="#9D30FF"/>
<path d="M19.6908 28.1296H18.2843V29.5361H19.6908V28.1296Z" fill="#9D30FF"/>
<path d="M21.0972 29.5361H19.6908V30.9426H21.0972V29.5361Z" fill="#9D30FF"/>
<path d="M22.5037 30.9426H21.0972V32.3491H22.5037V30.9426Z" fill="#9D30FF"/>
<path d="M23.9102 32.3491H22.5037V33.7556H23.9102V32.3491Z" fill="#9D30FF"/>
<path d="M25.3167 33.7556H23.9102V35.1621H25.3167V33.7556Z" fill="#9D30FF"/>
<path d="M26.7232 35.1621H25.3167V36.5685H26.7232V35.1621Z" fill="#9D30FF"/>
<path d="M28.1296 36.5685H26.7232V37.975H28.1296V36.5685Z" fill="#9D30FF"/>
<path d="M29.5361 37.975H28.1296V39.3815H29.5361V37.975Z" fill="#9D30FF"/>
<path d="M30.9426 39.3815H29.5361V40.788H30.9426V39.3815Z" fill="#9D30FF"/>
<path d="M32.3491 40.788H30.9426V42.1945H32.3491V40.788Z" fill="#9D30FF"/>
<path d="M33.7556 42.1945H32.3491V43.6009H33.7556V42.1945Z" fill="#9D30FF"/>
<path d="M35.1621 40.788H33.7556V42.1945H35.1621V40.788Z" fill="#9D30FF"/>
<path d="M33.7556 39.3815H32.3491V40.788H33.7556V39.3815Z" fill="#9D30FF"/>
<path d="M32.3491 37.975H30.9426V39.3815H32.3491V37.975Z" fill="#9D30FF"/>
<path d="M30.9426 36.5685H29.5361V37.975H30.9426V36.5685Z" fill="#9D30FF"/>
<path d="M29.5361 35.1621H28.1296V36.5685H29.5361V35.1621Z" fill="#9D30FF"/>
<path d="M28.1296 33.7556H26.7232V35.1621H28.1296V33.7556Z" fill="#9D30FF"/>
<path d="M26.7232 32.3491H25.3167V33.7556H26.7232V32.3491Z" fill="#9D30FF"/>
<path d="M25.3167 30.9426H23.9102V32.3491H25.3167V30.9426Z" fill="#9D30FF"/>
<path d="M23.9102 29.5361H22.5037V30.9426H23.9102V29.5361Z" fill="#9D30FF"/>
<path d="M22.5037 28.1296H21.0972V29.5361H22.5037V28.1296Z" fill="#9D30FF"/>
<path d="M21.0972 26.7232H19.6908V28.1296H21.0972V26.7232Z" fill="#9D30FF"/>
<path d="M19.6908 25.3167H18.2843V26.7232H19.6908V25.3167Z" fill="#9D30FF"/>
<path d="M18.2843 23.9102H16.8778V25.3167H18.2843V23.9102Z" fill="#9D30FF"/>
<path d="M16.8778 22.5037H15.4713V23.9102H16.8778V22.5037Z" fill="#9D30FF"/>
<path d="M15.4713 21.0972H14.0648V22.5037H15.4713V21.0972Z" fill="#9D30FF"/>
<path d="M14.0648 19.6907H12.6583V21.0972H14.0648V19.6907Z" fill="#9D30FF"/>
<path d="M12.6583 18.2843H11.2519V19.6907H12.6583V18.2843Z" fill="#9D30FF"/>
<path d="M11.2519 16.8778H9.84538V18.2843H11.2519V16.8778Z" fill="#9D30FF"/>
<path d="M9.84538 15.4713H8.43889V16.8778H9.84538V15.4713Z" fill="#9D30FF"/>
<path d="M8.43889 14.0648H7.03241V15.4713H8.43889V14.0648Z" fill="#9D30FF"/>
<path d="M7.03241 12.6583H5.62593V14.0648H7.03241V12.6583Z" fill="#9D30FF"/>
<path d="M7.03241 11.2519H5.62593V12.6583H7.03241V11.2519Z" fill="#9D30FF"/>
<path d="M7.03241 9.84537H5.62593V11.2519H7.03241V9.84537Z" fill="#9D30FF"/>
<path d="M8.43889 11.2519H7.03241V12.6583H8.43889V11.2519Z" fill="#9D30FF"/>
<path d="M9.84538 12.6583H8.43889V14.0648H9.84538V12.6583Z" fill="#9D30FF"/>
<path d="M11.2519 14.0648H9.84538V15.4713H11.2519V14.0648Z" fill="#9D30FF"/>
<path d="M12.6583 15.4713H11.2519V16.8778H12.6583V15.4713Z" fill="#9D30FF"/>
<path d="M14.0648 16.8778H12.6583V18.2843H14.0648V16.8778Z" fill="#9D30FF"/>
<path d="M15.4713 18.2843H14.0648V19.6907H15.4713V18.2843Z" fill="#9D30FF"/>
<path d="M16.8778 19.6907H15.4713V21.0972H16.8778V19.6907Z" fill="#9D30FF"/>
<path d="M18.2843 21.0972H16.8778V22.5037H18.2843V21.0972Z" fill="#9D30FF"/>
<path d="M19.6908 22.5037H18.2843V23.9102H19.6908V22.5037Z" fill="#9D30FF"/>
<path d="M21.0972 23.9102H19.6908V25.3167H21.0972V23.9102Z" fill="#9D30FF"/>
<path d="M22.5037 25.3167H21.0972V26.7232H22.5037V25.3167Z" fill="#9D30FF"/>
<path d="M23.9102 26.7232H22.5037V28.1296H23.9102V26.7232Z" fill="#9D30FF"/>
<path d="M25.3167 28.1296H23.9102V29.5361H25.3167V28.1296Z" fill="#9D30FF"/>
<path d="M26.7232 29.5361H25.3167V30.9426H26.7232V29.5361Z" fill="#9D30FF"/>
<path d="M28.1296 30.9426H26.7232V32.3491H28.1296V30.9426Z" fill="#9D30FF"/>
<path d="M29.5361 32.3491H28.1296V33.7556H29.5361V32.3491Z" fill="#9D30FF"/>
<path d="M30.9426 33.7556H29.5361V35.1621H30.9426V33.7556Z" fill="#9D30FF"/>
<path d="M32.3491 35.1621H30.9426V36.5685H32.3491V35.1621Z" fill="#9D30FF"/>
<path d="M33.7556 36.5685H32.3491V37.975H33.7556V36.5685Z" fill="#9D30FF"/>
<path d="M35.1621 37.975H33.7556V39.3815H35.1621V37.975Z" fill="#9D30FF"/>
<path d="M36.5685 39.3815H35.1621V40.788H36.5685V39.3815Z" fill="#9D30FF"/>
<path d="M8.43889 12.6583H7.03241V14.0648H8.43889V12.6583Z" fill="#9D30FF"/>
<path d="M9.84538 14.0648H8.43889V15.4713H9.84538V14.0648Z" fill="#9D30FF"/>
<path d="M11.2519 15.4713H9.84538V16.8778H11.2519V15.4713Z" fill="#9D30FF"/>
<path d="M12.6583 16.8778H11.2519V18.2843H12.6583V16.8778Z" fill="#9D30FF"/>
<path d="M14.0648 18.2843H12.6583V19.6907H14.0648V18.2843Z" fill="#9D30FF"/>
<path d="M15.4713 19.6907H14.0648V21.0972H15.4713V19.6907Z" fill="#9D30FF"/>
<path d="M16.8778 21.0972H15.4713V22.5037H16.8778V21.0972Z" fill="#9D30FF"/>
<path d="M18.2843 22.5037H16.8778V23.9102H18.2843V22.5037Z" fill="#9D30FF"/>
<path d="M19.6908 23.9102H18.2843V25.3167H19.6908V23.9102Z" fill="#9D30FF"/>
<path d="M21.0972 25.3167H19.6908V26.7232H21.0972V25.3167Z" fill="#9D30FF"/>
<path d="M22.5037 26.7232H21.0972V28.1296H22.5037V26.7232Z" fill="#9D30FF"/>
<path d="M23.9102 28.1296H22.5037V29.5361H23.9102V28.1296Z" fill="#9D30FF"/>
<path d="M25.3167 29.5361H23.9102V30.9426H25.3167V29.5361Z" fill="#9D30FF"/>
<path d="M26.7232 30.9426H25.3167V32.3491H26.7232V30.9426Z" fill="#9D30FF"/>
<path d="M28.1296 32.3491H26.7232V33.7556H28.1296V32.3491Z" fill="#9D30FF"/>
<path d="M29.5361 33.7556H28.1296V35.1621H29.5361V33.7556Z" fill="#9D30FF"/>
<path d="M30.9426 35.1621H29.5361V36.5685H30.9426V35.1621Z" fill="#9D30FF"/>
<path d="M32.3491 36.5685H30.9426V37.975H32.3491V36.5685Z" fill="#9D30FF"/>
<path d="M33.7556 37.975H32.3491V39.3815H33.7556V37.975Z" fill="#9D30FF"/>
<path d="M35.1621 39.3815H33.7556V40.788H35.1621V39.3815Z" fill="#9D30FF"/>
<path d="M36.5685 40.788H35.1621V42.1945H36.5685V40.788Z" fill="#9D30FF"/>
<path d="M5.62593 8.43889H4.21945V9.84537H5.62593V8.43889Z" fill="#9D30FF"/>
<path d="M35.1621 43.6009H33.7556V45.0074H35.1621V43.6009Z" fill="#35236E"/>
<path d="M4.21945 16.8778H2.81296V18.2843H4.21945V16.8778Z" fill="#35236E"/>
<path d="M15.4713 8.43889H14.0648V9.84537H15.4713V8.43889Z" fill="#35236E"/>
<path d="M9.84538 16.8778H8.43889V18.2843H9.84538V16.8778Z" fill="#35236E"/>
<path d="M5.62593 18.2843H4.21945V19.6907H5.62593V18.2843Z" fill="#35236E"/>
<path d="M16.8778 9.84537H15.4713V11.2519H16.8778V9.84537Z" fill="#35236E"/>
<path d="M11.2519 18.2843H9.84538V19.6907H11.2519V18.2843Z" fill="#35236E"/>
<path d="M7.03241 19.6907H5.62593V21.0972H7.03241V19.6907Z" fill="#35236E"/>
<path d="M18.2843 11.2519H16.8778V12.6583H18.2843V11.2519Z" fill="#35236E"/>
<path d="M12.6583 19.6907H11.2519V21.0972H12.6583V19.6907Z" fill="#35236E"/>
<path d="M8.43889 21.0972H7.03241V22.5037H8.43889V21.0972Z" fill="#35236E"/>
<path d="M19.6908 12.6583H18.2843V14.0648H19.6908V12.6583Z" fill="#35236E"/>
<path d="M14.0648 21.0972H12.6583V22.5037H14.0648V21.0972Z" fill="#35236E"/>
<path d="M9.84538 22.5037H8.43889V23.9102H9.84538V22.5037Z" fill="#35236E"/>
<path d="M21.0972 14.0648H19.6908V15.4713H21.0972V14.0648Z" fill="#35236E"/>
<path d="M15.4713 22.5037H14.0648V23.9102H15.4713V22.5037Z" fill="#35236E"/>
<path d="M11.2519 23.9102H9.84538V25.3167H11.2519V23.9102Z" fill="#35236E"/>
<path d="M22.5037 15.4713H21.0972V16.8778H22.5037V15.4713Z" fill="#35236E"/>
<path d="M16.8778 23.9102H15.4713V25.3167H16.8778V23.9102Z" fill="#35236E"/>
<path d="M12.6583 25.3167H11.2519V26.7232H12.6583V25.3167Z" fill="#35236E"/>
<path d="M23.9102 16.8778H22.5037V18.2843H23.9102V16.8778Z" fill="#35236E"/>
<path d="M18.2843 25.3167H16.8778V26.7232H18.2843V25.3167Z" fill="#35236E"/>
<path d="M14.0648 26.7232H12.6583V28.1296H14.0648V26.7232Z" fill="#35236E"/>
<path d="M25.3167 18.2843H23.9102V19.6907H25.3167V18.2843Z" fill="#35236E"/>
<path d="M19.6908 26.7232H18.2843V28.1296H19.6908V26.7232Z" fill="#35236E"/>
<path d="M15.4713 28.1296H14.0648V29.5361H15.4713V28.1296Z" fill="#35236E"/>
<path d="M26.7232 19.6907H25.3167V21.0972H26.7232V19.6907Z" fill="#35236E"/>
<path d="M21.0972 28.1296H19.6908V29.5361H21.0972V28.1296Z" fill="#35236E"/>
<path d="M16.8778 29.5361H15.4713V30.9426H16.8778V29.5361Z" fill="#35236E"/>
<path d="M28.1296 21.0972H26.7232V22.5037H28.1296V21.0972Z" fill="#35236E"/>
<path d="M22.5037 29.5361H21.0972V30.9426H22.5037V29.5361Z" fill="#35236E"/>
<path d="M18.2843 30.8218H16.8778V32.2283H18.2843V30.8218Z" fill="#35236E"/>
<path d="M29.5361 22.5037H28.1296V23.9102H29.5361V22.5037Z" fill="#35236E"/>
<path d="M23.9102 30.9426H22.5037V32.3491H23.9102V30.9426Z" fill="#35236E"/>
<path d="M19.6908 32.2283H18.2843V33.6348H19.6908V32.2283Z" fill="#35236E"/>
<path d="M30.9426 23.9102H29.5361V25.3167H30.9426V23.9102Z" fill="#35236E"/>
<path d="M25.3167 32.3491H23.9102V33.7556H25.3167V32.3491Z" fill="#35236E"/>
<path d="M21.0972 33.6348H19.6908V35.0413H21.0972V33.6348Z" fill="#35236E"/>
<path d="M32.3491 25.3167H30.9426V26.7232H32.3491V25.3167Z" fill="#35236E"/>
<path d="M26.7232 33.7556H25.3167V35.1621H26.7232V33.7556Z" fill="#35236E"/>
<path d="M22.5037 35.0413H21.0972V36.4477H22.5037V35.0413Z" fill="#35236E"/>
<path d="M33.7556 26.7232H32.3491V28.1296H33.7556V26.7232Z" fill="#35236E"/>
<path d="M28.1296 35.1621H26.7232V36.5685H28.1296V35.1621Z" fill="#35236E"/>
<path d="M23.9102 36.4477H22.5037V37.8542H23.9102V36.4477Z" fill="#35236E"/>
<path d="M35.1621 28.1296H33.7556V29.5361H35.1621V28.1296Z" fill="#35236E"/>
<path d="M29.5361 36.5685H28.1296V37.975H29.5361V36.5685Z" fill="#35236E"/>
<path d="M25.3167 37.8542H23.9102V39.2607H25.3167V37.8542Z" fill="#35236E"/>
<path d="M36.5685 29.5361H35.1621V30.9426H36.5685V29.5361Z" fill="#35236E"/>
<path d="M30.9426 37.975H29.5361V39.3815H30.9426V37.975Z" fill="#35236E"/>
<path d="M26.7232 39.2607H25.3167V40.6672H26.7232V39.2607Z" fill="#35236E"/>
<path d="M37.975 30.9426H36.5685V32.3491H37.975V30.9426Z" fill="#35236E"/>
<path d="M32.3491 39.3815H30.9426V40.788H32.3491V39.3815Z" fill="#35236E"/>
<path d="M28.1296 40.6672H26.7232V42.0737H28.1296V40.6672Z" fill="#35236E"/>
<path d="M39.3815 32.3491H37.975V33.7556H39.3815V32.3491Z" fill="#35236E"/>
<path d="M33.7556 40.788H32.3491V42.1945H33.7556V40.788Z" fill="#35236E"/>
<path d="M29.5361 42.0737H28.1296V43.4801H29.5361V42.0737Z" fill="#35236E"/>
<path d="M40.788 33.7556H39.3815V35.1621H40.788V33.7556Z" fill="#35236E"/>
<path d="M35.1621 42.1945H33.7556V43.6009H35.1621V42.1945Z" fill="#35236E"/>
<path d="M11.2519 12.6583V11.2519H12.6583V12.6583H11.2519Z" fill="#35236E"/>
<path d="M9.84538 11.2519V9.84537H11.2519V11.2519H9.84538Z" fill="#35236E"/>
<path d="M8.43889 9.84537V8.43889H9.84538V9.84537H8.43889Z" fill="#35236E"/>
<path d="M7.03241 9.84537V8.43889H8.43889V9.84537H7.03241Z" fill="#35236E"/>
<path d="M5.62593 9.84537V8.43889H7.03241V9.84537H5.62593Z" fill="#35236E"/>
<path d="M12.6583 14.0648V12.6583H14.0648V14.0648H12.6583Z" fill="#35236E"/>
<path d="M14.0648 15.4713V14.0648H15.4713V15.4713H14.0648Z" fill="#35236E"/>
<path d="M15.4713 16.8778V15.4713H16.8778V16.8778H15.4713Z" fill="#35236E"/>
<path d="M16.8778 18.2843V16.8778H18.2843V18.2843H16.8778Z" fill="#35236E"/>
<path d="M18.2843 19.6907V18.2843H19.6908V19.6907H18.2843Z" fill="#35236E"/>
<path d="M19.6908 21.0972V19.6907H21.0972V21.0972H19.6908Z" fill="#35236E"/>
<path d="M21.0972 22.5037V21.0972H22.5037V22.5037H21.0972Z" fill="#35236E"/>
<path d="M22.5037 23.9102V22.5037H23.9102V23.9102H22.5037Z" fill="#35236E"/>
<path d="M23.9102 25.3167V23.9102H25.3167V25.3167H23.9102Z" fill="#35236E"/>
<path d="M25.3167 26.7232V25.3167H26.7232V26.7232H25.3167Z" fill="#35236E"/>
<path d="M26.7232 28.1296V26.7232H28.1296V28.1296H26.7232Z" fill="#35236E"/>
<path d="M28.1296 29.5361V28.1296H29.5361V29.5361H28.1296Z" fill="#35236E"/>
<path d="M29.5361 30.9426V29.5361H30.9426V30.9426H29.5361Z" fill="#35236E"/>
<path d="M30.9426 32.3491V30.9426H32.3491V32.3491H30.9426Z" fill="#35236E"/>
<path d="M32.3491 33.7556V32.3491H33.7556V33.7556H32.3491Z" fill="#35236E"/>
<path d="M33.7556 35.1621V33.7556H35.1621V35.1621H33.7556Z" fill="#35236E"/>
<path d="M35.1621 36.5685V35.1621H36.5685V36.5685H35.1621Z" fill="#35236E"/>
<path d="M36.5685 37.975V36.5685H37.975V37.975H36.5685Z" fill="#35236E"/>
<path d="M37.975 40.788V39.3815H39.3815V40.788H37.975Z" fill="#35236E"/>
<path d="M36.5685 40.788V39.3815H37.975V40.788H36.5685Z" fill="#35236E"/>
<path d="M36.5685 42.1945V40.788H37.975V42.1945H36.5685Z" fill="#35236E"/>
<path d="M35.1621 43.6009V42.1945H36.5685V43.6009H35.1621Z" fill="#35236E"/>
<path d="M39.3815 39.3815V37.975H40.788V39.3815H39.3815Z" fill="#35236E"/>
<path d="M40.788 42.1945V40.788H42.1945V42.1945H40.788Z" fill="#35236E"/>
<path d="M42.1945 42.1945V40.788H43.6009V42.1945H42.1945Z" fill="#35236E"/>
<path d="M42.1945 43.6009V42.1945H43.6009V43.6009H42.1945Z" fill="#35236E"/>
<path d="M40.788 43.6009V42.1945H42.1945V43.6009H40.788Z" fill="#35236E"/>
<path d="M40.788 45.0074V43.6009H42.1945V45.0074H40.788Z" fill="var(--fill-0, #A950FF)"/>
<path d="M40.788 46.4139V45.0074H42.1945V46.4139H40.788Z" fill="#9D30FF"/>
<path d="M39.3815 47.8204V46.4139H40.788V47.8204H39.3815Z" fill="#9D30FF"/>
<path d="M39.3815 49.2269V47.8204H40.788V49.2269H39.3815Z" fill="#35236E"/>
<path d="M39.3815 45.0074V43.6009H40.788V45.0074H39.3815Z" fill="#E9C1FF"/>
<path d="M39.3815 46.4139V45.0074H40.788V46.4139H39.3815Z" fill="var(--fill-0, #A950FF)"/>
<path d="M37.975 46.4139V45.0074H39.3815V46.4139H37.975Z" fill="#35236E"/>
<path d="M37.975 47.8204V46.4139H39.3815V47.8204H37.975Z" fill="#35236E"/>
<path d="M42.1945 45.0074V43.6009H43.6009V45.0074H42.1945Z" fill="#9D30FF"/>
<path d="M42.1945 46.4139V45.0074H43.6009V46.4139H42.1945Z" fill="#35236E"/>
<path d="M40.788 47.8204V46.4139H42.1945V47.8204H40.788Z" fill="#35236E"/>
<path d="M40.788 49.2269V47.8204H42.1945V49.2269H40.788Z" fill="#35236E"/>
<path d="M43.6009 46.4139V45.0074H45.0074V46.4139H43.6009Z" fill="#35236E"/>
<path d="M42.1945 47.8204V46.4139H43.6009V47.8204H42.1945Z" fill="#F62E76"/>
<path d="M45.0074 46.4139V45.0074H46.4139V46.4139H45.0074Z" fill="#35236E"/>
<path d="M39.3815 43.6009V42.1945H40.788V43.6009H39.3815Z" fill="#35236E"/>
<path d="M37.975 43.6009V42.1945H39.3815V43.6009H37.975Z" fill="#35236E"/>
<path d="M37.975 45.0074V43.6009H39.3815V45.0074H37.975Z" fill="#35236E"/>
<path d="M36.5685 46.4139V45.0074H37.975V46.4139H36.5685Z" fill="#35236E"/>
<path d="M36.5685 47.8204V46.4139H37.975V47.8204H36.5685Z" fill="#35236E"/>
<path d="M36.5685 49.2269V47.8204H37.975V49.2269H36.5685Z" fill="#35236E"/>
<path d="M35.1621 50.6334V49.2269H36.5685V50.6334H35.1621Z" fill="#35236E"/>
<path d="M33.7556 50.6334V49.2269H35.1621V50.6334H33.7556Z" fill="#35236E"/>
<path d="M32.3491 52.0398V50.6334H33.7556V52.0398H32.3491Z" fill="#35236E"/>
<path d="M32.3491 53.4463V52.0398H33.7556V53.4463H32.3491Z" fill="#35236E"/>
<path d="M37.975 49.2269V47.8204H39.3815V49.2269H37.975Z" fill="#35236E"/>
<path d="M37.975 50.6334V49.2269H39.3815V50.6334H37.975Z" fill="#9D30FF"/>
<path d="M42.1945 50.6334V49.2269H43.6009V50.6334H42.1945Z" fill="#6E06CC"/>
<path d="M43.6009 52.0398V50.6334H45.0074V52.0398H43.6009Z" fill="#6E06CC"/>
<path d="M43.6009 50.6334V49.2269H45.0074V50.6334H43.6009Z" fill="#6E06CC"/>
<path d="M46.4139 53.4463V52.0398H47.8204V53.4463H46.4139Z" fill="#6E06CC"/>
<path d="M49.2269 56.2593V54.8528H50.6334V56.2593H49.2269Z" fill="#6E06CC"/>
<path d="M45.0074 53.4463V52.0398H46.4139V53.4463H45.0074Z" fill="#6E06CC"/>
<path d="M45.0074 52.0398V50.6334H46.4139V52.0398H45.0074Z" fill="#6E06CC"/>
<path d="M47.8204 54.8528V53.4463H49.2269V54.8528H47.8204Z" fill="#6E06CC"/>
<path d="M50.6334 57.6658V56.2593H52.0398V57.6658H50.6334Z" fill="#6E06CC"/>
<path d="M46.4139 54.8528V53.4463H47.8204V54.8528H46.4139Z" fill="#6E06CC"/>
<path d="M47.8204 56.2593V54.8528H49.2269V56.2593H47.8204Z" fill="#6E06CC"/>
<path d="M49.2269 57.6658V56.2593H50.6334V57.6658H49.2269Z" fill="#6E06CC"/>
<path d="M43.6009 49.2269V47.8204H45.0074V49.2269H43.6009Z" fill="#6E06CC"/>
<path d="M45.0074 50.6334V49.2269H46.4139V50.6334H45.0074Z" fill="#6E06CC"/>
<path d="M46.4139 52.0398V50.6334H47.8204V52.0398H46.4139Z" fill="#6E06CC"/>
<path d="M47.8204 53.4463V52.0398H49.2269V53.4463H47.8204Z" fill="#6E06CC"/>
<path d="M49.2269 54.8528V53.4463H50.6334V54.8528H49.2269Z" fill="#6E06CC"/>
<path d="M50.6334 56.2593V54.8528H52.0398V56.2593H50.6334Z" fill="#6E06CC"/>
<path d="M45.0074 47.8204V46.4139H46.4139V47.8204H45.0074Z" fill="#A905F5"/>
<path d="M46.4139 49.2269V47.8204H47.8204V49.2269H46.4139Z" fill="#A905F5"/>
<path d="M47.8204 50.6334V49.2269H49.2269V50.6334H47.8204Z" fill="#A905F5"/>
<path d="M49.2269 52.0398V50.6334H50.6334V52.0398H49.2269Z" fill="#A905F5"/>
<path d="M50.6334 53.4463V52.0398H52.0398V53.4463H50.6334Z" fill="#A905F5"/>
<path d="M50.6334 54.8528V53.4463H52.0398V54.8528H50.6334Z" fill="#A905F5"/>
<path d="M47.8204 52.0398V50.6334H49.2269V52.0398H47.8204Z" fill="#A905F5"/>
<path d="M45.0074 49.2269V47.8204H46.4139V49.2269H45.0074Z" fill="#A905F5"/>
<path d="M52.0398 54.8528V53.4463H53.4463V54.8528H52.0398Z" fill="#A905F5"/>
<path d="M52.0398 56.2593V54.8528H53.4463V56.2593H52.0398Z" fill="#A905F5"/>
<path d="M49.2269 53.4463V52.0398H50.6334V53.4463H49.2269Z" fill="#A905F5"/>
<path d="M46.4139 50.6334V49.2269H47.8204V50.6334H46.4139Z" fill="#A905F5"/>
<path d="M37.975 52.0398V50.6334H39.3815V52.0398H37.975Z" fill="#9D30FF"/>
<path d="M36.5685 53.4463V52.0398H37.975V53.4463H36.5685Z" fill="#9D30FF"/>
<path d="M35.1621 54.8528V53.4463H36.5685V54.8528H35.1621Z" fill="#9D30FF"/>
<path d="M36.5685 50.6334V49.2269H37.975V50.6334H36.5685Z" fill="#9D30FF"/>
<path d="M36.5685 52.0398V50.6334H37.975V52.0398H36.5685Z" fill="#9D30FF"/>
<path d="M35.1621 52.0398V50.6334H36.5685V52.0398H35.1621Z" fill="#9D30FF"/>
<path d="M33.7556 52.0398V50.6334H35.1621V52.0398H33.7556Z" fill="#9D30FF"/>
<path d="M35.1621 53.4463V52.0398H36.5685V53.4463H35.1621Z" fill="#9D30FF"/>
<path d="M33.7556 53.4463V52.0398H35.1621V53.4463H33.7556Z" fill="#9D30FF"/>
<path d="M33.7556 54.8528V53.4463H35.1621V54.8528H33.7556Z" fill="#9D30FF"/>
<path d="M39.3815 50.6334V49.2269H40.788V50.6334H39.3815Z" fill="#35236E"/>
<path d="M39.3815 52.0398V50.6334H40.788V52.0398H39.3815Z" fill="#35236E"/>
<path d="M37.975 53.4463V52.0398H39.3815V53.4463H37.975Z" fill="#35236E"/>
<path d="M36.5685 54.8528V53.4463H37.975V54.8528H36.5685Z" fill="#35236E"/>
<path d="M35.1621 56.2593V54.8528H36.5685V56.2593H35.1621Z" fill="#35236E"/>
<path d="M33.7556 56.2593V54.8528H35.1621V56.2593H33.7556Z" fill="#35236E"/>
<path d="M32.3491 54.8528V53.4463H33.7556V54.8528H32.3491Z" fill="#35236E"/>
<path d="M40.788 50.6334V49.2269H42.1945V50.6334H40.788Z" fill="#35236E"/>
<path d="M42.1945 52.0398V50.6334H43.6009V52.0398H42.1945Z" fill="#35236E"/>
<path d="M43.6009 53.4463V52.0398H45.0074V53.4463H43.6009Z" fill="#35236E"/>
<path d="M45.0074 54.8528V53.4463H46.4139V54.8528H45.0074Z" fill="#35236E"/>
<path d="M46.4139 56.2593V54.8528H47.8204V56.2593H46.4139Z" fill="#35236E"/>
<path d="M47.8204 57.6658V56.2593H49.2269V57.6658H47.8204Z" fill="#35236E"/>
<path d="M49.2269 59.0722V57.6658H50.6334V59.0722H49.2269Z" fill="#35236E"/>
<path d="M50.6334 59.0722V57.6658H52.0398V59.0722H50.6334Z" fill="#35236E"/>
<path d="M52.0398 57.6658V56.2593H53.4463V57.6658H52.0398Z" fill="#35236E"/>
<path d="M42.1945 49.2269V47.8204H43.6009V49.2269H42.1945Z" fill="#35236E"/>
<path d="M43.6009 47.8204V46.4139H45.0074V47.8204H43.6009Z" fill="#35236E"/>
<path d="M46.4139 47.8204V46.4139H47.8204V47.8204H46.4139Z" fill="#35236E"/>
<path d="M47.8204 49.2269V47.8204H49.2269V49.2269H47.8204Z" fill="#35236E"/>
<path d="M49.2269 50.6334V49.2269H50.6334V50.6334H49.2269Z" fill="#35236E"/>
<path d="M50.6334 52.0398V50.6334H52.0398V52.0398H50.6334Z" fill="#35236E"/>
<path d="M52.0398 53.4463V52.0398H53.4463V53.4463H52.0398Z" fill="#35236E"/>
<path d="M53.4463 54.8528V53.4463H54.8528V54.8528H53.4463Z" fill="#35236E"/>
<path d="M53.4463 56.2593V54.8528H54.8528V56.2593H53.4463Z" fill="#35236E"/>
<path d="M40.788 39.3815V37.975H42.1945V39.3815H40.788Z" fill="#35236E"/>
<path d="M42.1945 37.975V36.5685H43.6009V37.975H42.1945Z" fill="#35236E"/>
<path d="M30.9426 43.4801H29.5361V44.8866H30.9426V43.4801Z" fill="#35236E"/>
<path d="M42.1945 35.1621H40.788V36.5685H42.1945V35.1621Z" fill="#35236E"/>
<path d="M35.1621 45.0074H33.7556V46.4139H35.1621V45.0074Z" fill="#35236E"/>
<path d="M33.7556 46.4139H32.3491V47.8204H33.7556V46.4139Z" fill="#35236E"/>
<path d="M32.3491 45.0074H30.9426V46.4139H32.3491V45.0074Z" fill="#35236E"/>
<path d="M2.81296 7.03241H1.40648V8.43889H2.81296V7.03241Z" fill="#9D30FF"/>
<path d="M4.21945 7.03241H2.81296V8.43889H4.21945V7.03241Z" fill="#9D30FF"/>
<path d="M2.81296 8.43889H1.40648V9.84537H2.81296V8.43889Z" fill="#9D30FF"/>
<path d="M4.21945 8.43889H2.81296V9.84537H4.21945V8.43889Z" fill="#9D30FF"/>
<path d="M2.81296 9.84537H1.40648V11.2519H2.81296V9.84537Z" fill="#9D30FF"/>
<path d="M4.21945 9.84537H2.81296V11.2519H4.21945V9.84537Z" fill="#9D30FF"/>
<path d="M2.81296 11.2519H1.40648V12.6583H2.81296V11.2519Z" fill="#9D30FF"/>
<path d="M4.21945 11.2519H2.81296V12.6583H4.21945V11.2519Z" fill="#9D30FF"/>
<path d="M2.81296 12.6583H1.40648V14.0648H2.81296V12.6583Z" fill="#9D30FF"/>
<path d="M4.21945 12.6583H2.81296V14.0648H4.21945V12.6583Z" fill="#9D30FF"/>
<path d="M4.21945 14.0648H2.81296V15.4713H4.21945V14.0648Z" fill="#9D30FF"/>
<path d="M4.21945 15.4713H2.81296V16.8778H4.21945V15.4713Z" fill="#9D30FF"/>
<path d="M5.62593 16.8778H4.21945V18.2843H5.62593V16.8778Z" fill="#9D30FF"/>
<path d="M7.03241 18.2843H5.62593V19.6907H7.03241V18.2843Z" fill="#9D30FF"/>
<path d="M8.43889 19.6907H7.03241V21.0972H8.43889V19.6907Z" fill="#9D30FF"/>
<path d="M9.84538 21.0972H8.43889V22.5037H9.84538V21.0972Z" fill="#9D30FF"/>
<path d="M11.2519 22.5037H9.84538V23.9102H11.2519V22.5037Z" fill="#9D30FF"/>
<path d="M12.6583 23.9102H11.2519V25.3167H12.6583V23.9102Z" fill="#9D30FF"/>
<path d="M14.0648 25.3167H12.6583V26.7232H14.0648V25.3167Z" fill="#9D30FF"/>
<path d="M15.4713 26.7232H14.0648V28.1296H15.4713V26.7232Z" fill="#9D30FF"/>
<path d="M16.8778 28.1296H15.4713V29.5361H16.8778V28.1296Z" fill="#9D30FF"/>
<path d="M18.2843 29.5361H16.8778V30.9426H18.2843V29.5361Z" fill="#9D30FF"/>
<path d="M19.6908 30.9426H18.2843V32.3491H19.6908V30.9426Z" fill="#9D30FF"/>
<path d="M21.0972 32.3491H19.6908V33.7556H21.0972V32.3491Z" fill="#9D30FF"/>
<path d="M22.5037 33.7556H21.0972V35.1621H22.5037V33.7556Z" fill="#9D30FF"/>
<path d="M23.9102 35.1621H22.5037V36.5685H23.9102V35.1621Z" fill="#9D30FF"/>
<path d="M25.3167 36.5685H23.9102V37.975H25.3167V36.5685Z" fill="#9D30FF"/>
<path d="M26.7232 37.975H25.3167V39.3815H26.7232V37.975Z" fill="#9D30FF"/>
<path d="M28.1296 39.3815H26.7232V40.788H28.1296V39.3815Z" fill="#9D30FF"/>
<path d="M29.5361 40.788H28.1296V42.1945H29.5361V40.788Z" fill="#9D30FF"/>
<path d="M30.9426 42.1945H29.5361V43.6009H30.9426V42.1945Z" fill="#9D30FF"/>
<path d="M32.3491 43.6009H30.9426V45.0074H32.3491V43.6009Z" fill="#9D30FF"/>
<path d="M1.40648 7.03241H0V8.43889H1.40648V7.03241Z" fill="#35236E"/>
<path d="M1.40648 8.43889H0V9.84537H1.40648V8.43889Z" fill="#35236E"/>
<path d="M1.40648 9.84537H0V11.2519H1.40648V9.84537Z" fill="#35236E"/>
<path d="M1.40648 11.2519H0V12.6583H1.40648V11.2519Z" fill="#35236E"/>
<path d="M1.40648 12.6583H0V14.0648H1.40648V12.6583Z" fill="#35236E"/>
<path d="M45.0074 43.6009H43.6009V45.0074H45.0074V43.6009Z" fill="#35236E"/>
<path d="M45.0074 40.788H43.6009V42.1945H45.0074V40.788Z" fill="#35236E"/>
<path d="M46.4139 39.3815H45.0074V40.788H46.4139V39.3815Z" fill="#35236E"/>
<path d="M46.4139 37.975H45.0074V39.3815H46.4139V37.975Z" fill="#35236E"/>
<path d="M47.8204 36.5685H46.4139V37.975H47.8204V36.5685Z" fill="#35236E"/>
<path d="M49.2269 36.5685H47.8204V37.975H49.2269V36.5685Z" fill="#35236E"/>
<path d="M45.0074 42.1945H43.6009V43.6009H45.0074V42.1945Z" fill="#35236E"/>
<path d="M46.4139 42.1945H45.0074V43.6009H46.4139V42.1945Z" fill="#9D30FF"/>
<path d="M47.8204 42.1945H46.4139V43.6009H47.8204V42.1945Z" fill="#9D30FF"/>
<path d="M49.2269 40.788H47.8204V42.1945H49.2269V40.788Z" fill="#9D30FF"/>
<path d="M50.6334 39.3815H49.2269V40.788H50.6334V39.3815Z" fill="#9D30FF"/>
<path d="M46.4139 40.788H45.0074V42.1945H46.4139V40.788Z" fill="#9D30FF"/>
<path d="M47.8204 40.788H46.4139V42.1945H47.8204V40.788Z" fill="#9D30FF"/>
<path d="M47.8204 39.3815H46.4139V40.788H47.8204V39.3815Z" fill="#9D30FF"/>
<path d="M47.8204 37.975H46.4139V39.3815H47.8204V37.975Z" fill="#9D30FF"/>
<path d="M49.2269 39.3815H47.8204V40.788H49.2269V39.3815Z" fill="#9D30FF"/>
<path d="M49.2269 37.975H47.8204V39.3815H49.2269V37.975Z" fill="#9D30FF"/>
<path d="M50.6334 37.975H49.2269V39.3815H50.6334V37.975Z" fill="#9D30FF"/>
<path d="M46.4139 43.6009H45.0074V45.0074H46.4139V43.6009Z" fill="#35236E"/>
<path d="M47.8204 43.6009H46.4139V45.0074H47.8204V43.6009Z" fill="#35236E"/>
<path d="M49.2269 42.1945H47.8204V43.6009H49.2269V42.1945Z" fill="#35236E"/>
<path d="M50.6334 40.788H49.2269V42.1945H50.6334V40.788Z" fill="#35236E"/>
<path d="M52.0398 39.3815H50.6334V40.788H52.0398V39.3815Z" fill="#35236E"/>
<path d="M52.0398 37.975H50.6334V39.3815H52.0398V37.975Z" fill="#35236E"/>
<path d="M50.6334 36.5685H49.2269V37.975H50.6334V36.5685Z" fill="#35236E"/>
<path d="M26.7255 5.62593H28.132V4.21945H26.7255V5.62593Z" fill="#E9C1FF"/>
<path d="M25.319 7.03241H26.7255V5.62593H25.319V7.03241Z" fill="#CD88FF"/>
<path d="M28.132 7.03241H29.5384V5.62593H28.132V7.03241Z" fill="#CD88FF"/>
<path d="M26.7255 8.43889H28.132V7.03241H26.7255V8.43889Z" fill="var(--fill-0, #A950FF)"/>
<path d="M26.7255 11.2519H28.132V9.84537H26.7255V11.2519Z" fill="#F62E76"/>
<path d="M29.5384 8.43889H30.9449V7.03241H29.5384V8.43889Z" fill="var(--fill-0, #A950FF)"/>
<path d="M23.9125 8.43889H25.319V7.03241H23.9125V8.43889Z" fill="var(--fill-0, #A950FF)"/>
</g>
</svg>
