<svg viewBox="0 0 120 120" fill="none" xmlns="http://www.w3.org/2000/svg"><path fill-rule="evenodd" clip-rule="evenodd" d="M42.6985 0C28.4964 0 15.9392 9.21557 11.6889 22.7575L0 59.9999L11.6889 97.2423C15.9392 110.784 28.4964 120 42.6985 120H74.1845C88.3865 120 100.944 110.784 105.194 97.2423L116.883 59.9999L105.194 22.7575C100.944 9.21557 88.3865 0 74.1845 0H42.6985ZM74.185 9.36127C84.2934 9.36127 93.2311 15.9205 96.2562 25.5591L99.122 34.6898C93.3569 29.9307 86.0564 27.2521 78.4261 27.2515L38.3716 27.2504C30.7926 27.251 23.5391 29.8938 17.7923 34.593L20.6277 25.5591C23.6529 15.9205 32.5905 9.36127 42.6989 9.36127H74.185ZM19.9545 45.7447L12.6763 55.3195H104.121L96.8432 45.7458C92.4697 39.9923 85.6556 36.6133 78.4254 36.6127H38.1535C31.0048 36.6807 24.2839 40.0493 19.9545 45.7447ZM104.106 64.6808L96.8426 74.2457C92.4687 80.0057 85.6497 83.3886 78.4142 83.388L38.3824 83.387C31.1469 83.3875 24.3279 80.0047 19.954 74.2447L12.6916 64.6808H104.106ZM20.6271 94.4407C23.6523 104.079 32.59 110.639 42.6984 110.639H74.1844C84.2928 110.639 93.2305 104.079 96.2557 94.4407L99.1235 85.3034C93.3558 90.0682 86.0498 92.7499 78.4135 92.7493L38.3831 92.7483C30.7978 92.7488 23.5384 90.1028 17.7888 85.3975L20.6271 94.4407Z" fill="#6B4FBB"/></svg>
