<svg width="458" height="260" viewBox="0 0 458 260" fill="none" xmlns="http://www.w3.org/2000/svg">
<rect width="458" height="260" rx="6" fill="#F0EDF8"/>
<g filter="url(#filter0_d_tines)">
<rect x="25" y="98" width="84" height="64" rx="10" fill="white" shape-rendering="crispEdges"/>
<rect x="25.5" y="98.5" width="83" height="63" rx="9.5" stroke="#5E4D9A" shape-rendering="crispEdges"/>
<!-- Bell icon: Alert -->
<path d="M67 111C62 111 58 115.5 58 121V124L56 126V127H78V126L76 124V121C76 115.5 72 111 67 111Z" fill="currentColor"/>
<path d="M64.5 127C64.5 128.9 65.6 130.5 67 130.5C68.4 130.5 69.5 128.9 69.5 127H64.5Z" fill="currentColor"/>
<text x="67" y="152" text-anchor="middle" font-family="-apple-system,BlinkMacSystemFont,sans-serif" font-size="9.5" font-weight="700" fill="currentColor">Alert</text>
</g>
<g filter="url(#filter1_d_tines)">
<rect x="132.334" y="98" width="84" height="64" rx="10" fill="white" shape-rendering="crispEdges"/>
<rect x="132.834" y="98.5" width="83" height="63" rx="9.5" stroke="#5E4D9A" shape-rendering="crispEdges"/>
<!-- Network/graph icon: Story (automated workflow) -->
<circle cx="174" cy="114" r="3" fill="currentColor"/>
<circle cx="167" cy="126" r="3" fill="currentColor"/>
<circle cx="181" cy="126" r="3" fill="currentColor"/>
<line x1="174" y1="117" x2="169" y2="123" stroke="currentColor" stroke-width="1.5"/>
<line x1="174" y1="117" x2="179" y2="123" stroke="currentColor" stroke-width="1.5"/>
<line x1="170" y1="126" x2="178" y2="126" stroke="currentColor" stroke-width="1.5"/>
<text x="174.334" y="152" text-anchor="middle" font-family="-apple-system,BlinkMacSystemFont,sans-serif" font-size="9.5" font-weight="700" fill="currentColor">Story</text>
</g>
<g filter="url(#filter2_d_tines)">
<rect x="239.666" y="98" width="85" height="64" rx="10" fill="white" shape-rendering="crispEdges"/>
<rect x="240.166" y="98.5" width="84" height="63" rx="9.5" stroke="#5E4D9A" shape-rendering="crispEdges"/>
<!-- Play button icon: Action -->
<path d="M276 113L276 129L290 121Z" fill="currentColor"/>
<text x="282.166" y="152" text-anchor="middle" font-family="-apple-system,BlinkMacSystemFont,sans-serif" font-size="9.5" font-weight="700" fill="currentColor">Action</text>
</g>
<g filter="url(#filter3_d_tines)">
<rect x="348" y="98" width="85" height="64" rx="10" fill="white" shape-rendering="crispEdges"/>
<rect x="348.5" y="98.5" width="84" height="63" rx="9.5" stroke="#5E4D9A" shape-rendering="crispEdges"/>
<!-- Checkmark circle icon: Resolve -->
<circle cx="390.5" cy="121" r="10" fill="none" stroke="currentColor" stroke-width="1.5"/>
<path d="M385.5 121L388.5 124.5L395.5 116" fill="none" stroke="currentColor" stroke-width="1.5" stroke-linecap="round" stroke-linejoin="round"/>
<text x="390.5" y="152" text-anchor="middle" font-family="-apple-system,BlinkMacSystemFont,sans-serif" font-size="9.5" font-weight="700" fill="currentColor">Resolve</text>
</g>
<path d="M129.209 130L119.209 124.226V135.774L129.209 130ZM111.041 130V131H120.209V130V129H111.041V130Z" fill="currentColor"/>
<path d="M237.084 130L227.084 124.226V135.774L237.084 130ZM218.916 130V131H228.084V130V129H218.916V130Z" fill="currentColor"/>
<path d="M345.416 130L335.416 124.226V135.774L345.416 130ZM327.248 130V131H336.416V130V129H327.248V130Z" fill="currentColor"/>
<defs>
<filter id="filter0_d_tines" x="25" y="98" width="84" height="67" filterUnits="userSpaceOnUse" color-interpolation-filters="sRGB">
<feFlood flood-opacity="0" result="BackgroundImageFix"/>
<feColorMatrix in="SourceAlpha" type="matrix" values="0 0 0 0 0 0 0 0 0 0 0 0 0 0 0 0 0 0 127 0" result="hardAlpha"/>
<feOffset dy="3"/>
<feComposite in2="hardAlpha" operator="out"/>
<feColorMatrix type="matrix" values="0 0 0 0 0.369 0 0 0 0 0.302 0 0 0 0 0.604 0 0 0 1 0"/>
<feBlend mode="normal" in2="BackgroundImageFix" result="effect1_dropShadow_tines"/>
<feBlend mode="normal" in="SourceGraphic" in2="effect1_dropShadow_tines" result="shape"/>
</filter>
<filter id="filter1_d_tines" x="132.334" y="98" width="84" height="67" filterUnits="userSpaceOnUse" color-interpolation-filters="sRGB">
<feFlood flood-opacity="0" result="BackgroundImageFix"/>
<feColorMatrix in="SourceAlpha" type="matrix" values="0 0 0 0 0 0 0 0 0 0 0 0 0 0 0 0 0 0 127 0" result="hardAlpha"/>
<feOffset dy="3"/>
<feComposite in2="hardAlpha" operator="out"/>
<feColorMatrix type="matrix" values="0 0 0 0 0.369 0 0 0 0 0.302 0 0 0 0 0.604 0 0 0 1 0"/>
<feBlend mode="normal" in2="BackgroundImageFix" result="effect1_dropShadow_tines"/>
<feBlend mode="normal" in="SourceGraphic" in2="effect1_dropShadow_tines" result="shape"/>
</filter>
<filter id="filter2_d_tines" x="239.666" y="98" width="85" height="67" filterUnits="userSpaceOnUse" color-interpolation-filters="sRGB">
<feFlood flood-opacity="0" result="BackgroundImageFix"/>
<feColorMatrix in="SourceAlpha" type="matrix" values="0 0 0 0 0 0 0 0 0 0 0 0 0 0 0 0 0 0 127 0" result="hardAlpha"/>
<feOffset dy="3"/>
<feComposite in2="hardAlpha" operator="out"/>
<feColorMatrix type="matrix" values="0 0 0 0 0.369 0 0 0 0 0.302 0 0 0 0 0.604 0 0 0 1 0"/>
<feBlend mode="normal" in2="BackgroundImageFix" result="effect1_dropShadow_tines"/>
<feBlend mode="normal" in="SourceGraphic" in2="effect1_dropShadow_tines" result="shape"/>
</filter>
<filter id="filter3_d_tines" x="348" y="98" width="85" height="67" filterUnits="userSpaceOnUse" color-interpolation-filters="sRGB">
<feFlood flood-opacity="0" result="BackgroundImageFix"/>
<feColorMatrix in="SourceAlpha" type="matrix" values="0 0 0 0 0 0 0 0 0 0 0 0 0 0 0 0 0 0 127 0" result="hardAlpha"/>
<feOffset dy="3"/>
<feComposite in2="hardAlpha" operator="out"/>
<feColorMatrix type="matrix" values="0 0 0 0 0.369 0 0 0 0 0.302 0 0 0 0 0.604 0 0 0 1 0"/>
<feBlend mode="normal" in2="BackgroundImageFix" result="effect1_dropShadow_tines"/>
<feBlend mode="normal" in="SourceGraphic" in2="effect1_dropShadow_tines" result="shape"/>
</filter>
</defs>
</svg>
