<svg width="181" height="53" viewBox="0 0 181 53" fill="none" xmlns="http://www.w3.org/2000/svg">
<path d="M29.7036 0.101891C23.1424 0.101891 17.8227 5.42152 17.8227 11.9827V14.2135H23.7581V11.9827C23.7581 8.71222 26.423 6.04736 29.6935 6.04736C32.964 6.04736 35.6288 8.71222 35.6288 11.9827C35.6288 15.2532 32.964 17.9181 29.6935 17.9181H11.8874C5.32614 17.9181 0.0065155 23.2377 0.0065155 29.7989C0.0065155 36.3602 5.32614 41.6798 11.8874 41.6798H14.1182V35.7444H11.8874C8.61684 35.7444 5.95198 33.0796 5.95198 29.809C5.95198 26.5385 8.61684 23.8737 11.8874 23.8737H17.8227V41.6899H23.7581V23.8737H29.6935C36.2547 23.8737 41.5743 18.554 41.5743 11.9928C41.5743 5.43161 36.2648 0.101891 29.7036 0.101891Z" fill="currentColor"></path>
<path d="M57.2912 23.7323V34.6946C57.2912 35.4516 57.4729 36.0068 57.8463 36.35C58.2198 36.6932 58.8356 36.8648 59.7037 36.8648H62.3584V41.6898H58.7548C53.9298 41.6898 51.5173 39.348 51.5173 34.6542V23.7424H48.8222V19.0385H51.5173V13.4362H57.2811V19.0385H62.3483V23.7424H57.2811L57.2912 23.7323Z" fill="currentColor"></path>
<path d="M76.7829 19.7149C77.974 19.0386 79.3267 18.6954 80.8509 18.6954V24.7014H79.3368C77.54 24.7014 76.1773 25.1254 75.2688 25.9733C74.3603 26.8212 73.896 28.2949 73.896 30.3945V41.6798H68.1726V19.0285H73.896V22.5413C74.6329 21.3401 75.5918 20.4013 76.7829 19.7149Z" fill="currentColor"></path>
<path d="M84.0405 24.1159C84.949 22.3393 86.1906 20.9766 87.7653 20.0277C89.3298 19.0688 91.0862 18.5943 93.0243 18.5943C94.71 18.5943 96.1939 18.9375 97.4557 19.6139C98.7174 20.2902 99.7369 21.1583 100.504 22.1879V18.9577H106.268V41.6091H100.504V38.2982C99.7672 39.3581 98.7477 40.2362 97.4557 40.9327C96.1636 41.6292 94.6697 41.9825 92.9738 41.9825C91.066 41.9825 89.3298 41.4879 87.7653 40.5088C86.2007 39.5297 84.9591 38.1468 84.0405 36.3601C83.132 34.5734 82.6677 32.5243 82.6677 30.2026C82.6677 27.881 83.1219 25.8823 84.0405 24.1058V24.1159ZM99.6865 26.7101C99.1414 25.7107 98.4045 24.9537 97.4758 24.4187C96.5472 23.8837 95.5479 23.6212 94.488 23.6212C93.4281 23.6212 92.4489 23.8837 91.5405 24.3985C90.6421 24.9133 89.9153 25.6704 89.35 26.6697C88.7848 27.669 88.5122 28.8399 88.5122 30.2026C88.5122 31.5654 88.7949 32.7565 89.35 33.776C89.9052 34.7955 90.6421 35.5828 91.5607 36.1279C92.4691 36.673 93.4483 36.9455 94.488 36.9455C95.5277 36.9455 96.5472 36.6831 97.4758 36.1481C98.4045 35.6131 99.1414 34.8561 99.6865 33.8567C100.232 32.8574 100.504 31.6663 100.504 30.2834C100.504 28.9005 100.232 27.6993 99.6865 26.7101Z" fill="currentColor"></path>
<path d="M132.917 19.0183L118.886 52.3897H112.799L117.705 41.1044L108.63 19.0183H115.05L120.895 34.846L126.82 19.0183H132.917Z" fill="currentColor"></path>
<path d="M131.402 41.0034C130.736 40.3675 130.403 39.5701 130.403 38.6111C130.403 37.6522 130.736 36.8648 131.402 36.2188C132.069 35.5728 132.927 35.2598 133.956 35.2598C134.986 35.2598 135.793 35.5829 136.449 36.2188C137.106 36.8547 137.429 37.6522 137.429 38.6111C137.429 39.5701 137.106 40.3675 136.449 41.0034C135.793 41.6495 134.966 41.9624 133.956 41.9624C132.947 41.9624 132.069 41.6394 131.402 41.0034Z" fill="currentColor"></path>
<path d="M141.769 24.1765C142.678 22.3999 143.919 21.0372 145.494 20.0883C147.059 19.1294 148.815 18.655 150.753 18.655C152.439 18.655 153.923 18.9982 155.184 19.6745C156.446 20.3508 157.466 21.2189 158.233 22.2485V19.0184H163.997V41.6697H158.233V38.3588C157.496 39.4187 156.476 40.2969 155.184 40.9934C153.892 41.6899 152.398 42.0432 150.703 42.0432C148.795 42.0432 147.059 41.5486 145.494 40.5694C143.929 39.5903 142.688 38.2074 141.769 36.4207C140.861 34.6341 140.396 32.5849 140.396 30.2633C140.396 27.9416 140.851 25.943 141.769 24.1664V24.1765ZM157.415 26.7707C156.87 25.7714 156.133 25.0143 155.205 24.4793C154.276 23.9443 153.277 23.6819 152.217 23.6819C151.157 23.6819 150.178 23.9443 149.269 24.4591C148.371 24.9739 147.644 25.731 147.079 26.7303C146.514 27.7296 146.241 28.9006 146.241 30.2633C146.241 31.626 146.524 32.8171 147.079 33.8366C147.634 34.8561 148.371 35.6435 149.289 36.1886C150.198 36.7336 151.177 37.0062 152.217 37.0062C153.256 37.0062 154.276 36.7437 155.205 36.2087C156.133 35.6738 156.87 34.9167 157.415 33.9174C157.96 32.918 158.233 31.7269 158.233 30.344C158.233 28.9611 157.96 27.7599 157.415 26.7707Z" fill="currentColor"></path>
<path d="M175.322 19.0183V41.6697H169.599V19.0183H175.322Z" fill="currentColor"></path>
<path d="M172.456 2.77687C172.456 6.95585 175.847 10.3475 180.026 10.3475C175.847 10.3475 172.456 13.7391 172.456 17.9181C172.456 13.7391 169.064 10.3475 164.885 10.3475C169.064 10.3475 172.456 6.95585 172.456 2.77687Z" fill="currentColor"></path>
</svg>
