<svg width="42" height="42" viewBox="0 0 42 42" fill="none" xmlns="http://www.w3.org/2000/svg">
<path d="M29.7036 0.101891C23.1424 0.101891 17.8227 5.42152 17.8227 11.9827V14.2135H23.7581V11.9827C23.7581 8.71222 26.423 6.04736 29.6935 6.04736C32.964 6.04736 35.6288 8.71222 35.6288 11.9827C35.6288 15.2532 32.964 17.9181 29.6935 17.9181H11.8874C5.32614 17.9181 0.0065155 23.2377 0.0065155 29.7989C0.0065155 36.3602 5.32614 41.6798 11.8874 41.6798H14.1182V35.7444H11.8874C8.61684 35.7444 5.95198 33.0796 5.95198 29.809C5.95198 26.5385 8.61684 23.8737 11.8874 23.8737H17.8227V41.6899H23.7581V23.8737H29.6935C36.2547 23.8737 41.5743 18.554 41.5743 11.9928C41.5743 5.43161 36.2648 0.101891 29.7036 0.101891Z" fill="currentColor"/>
</svg>
