<svg width="71" height="71" viewBox="0 0 71 71" fill="none" xmlns="http://www.w3.org/2000/svg">
<path d="M28.1404 0.0160454C39.8001 0.0325067 51.4746 0.00616826 63.1343 0.00287617C65.2003 -0.0563853 67.0917 0.802906 68.4662 2.32395C69.2037 4.38493 69.7008 6.51341 69.6926 8.71267C69.6251 18.9698 69.6366 29.2287 69.6449 39.4858C69.6251 42.4637 69.9659 45.8153 68.2884 48.4491C67.2102 50.1891 65.4011 50.9101 63.4504 51.1999C59.5309 51.7563 55.5538 51.1208 51.5833 51.5538C51.129 55.6626 51.71 59.8191 51.2837 63.9065C51.0615 66.3033 49.4976 68.2803 47.3231 69.245C45.7263 69.961 43.7624 69.9874 42.0422 70.0005C33.6139 69.9232 25.1856 70.0203 16.7573 70.0038C13.0024 70.0713 9.38748 69.7503 5.65401 70.3248C2.51479 69.6203 -0.310003 66.435 0.0274582 63.0966C0.0439199 50.5941 0.0537963 38.057 0.0488582 25.5528C0.0241658 23.691 0.710611 21.8704 2.02918 20.5469C3.50084 19.2019 5.49762 18.6291 7.46148 18.6209C11.0435 18.5698 14.6305 18.7097 18.2158 18.5962C18.3294 14.7392 18.1401 10.8708 18.2668 7.01548C18.3804 4.54626 19.3665 2.15275 21.6464 0.95106C23.7106 -0.280262 25.8391 0.0621376 28.1404 0.0160454Z" fill="#87B74B"/>
<path d="M68.4662 2.32395C69.7585 3.78738 70.6523 5.41872 70.5733 7.43196C70.5684 19.9526 70.5684 32.4732 70.5634 44.9922C70.6984 48.4903 67.4538 51.7645 63.9903 51.8665C60.1252 52.0229 56.2452 51.7941 52.3751 51.9456C52.1776 55.9457 52.4475 59.9623 52.2615 63.9559C52.1068 67.4293 48.9708 70.6277 45.4399 70.5355C33.0707 70.501 20.6982 70.5174 8.33394 70.5306C7.43679 70.5224 6.53799 70.4681 5.65401 70.3248C9.38748 69.7503 13.0024 70.0713 16.7573 70.0038C25.1856 70.0203 33.6139 69.9232 42.0422 70.0005C43.7624 69.9874 45.7263 69.961 47.3231 69.245C49.4976 68.2803 51.0615 66.3033 51.2837 63.9065C51.71 59.8191 51.129 55.6626 51.5833 51.5538C55.5538 51.1208 59.5309 51.7563 63.4504 51.1999C65.4011 50.9101 67.2102 50.1891 68.2884 48.4491C69.9659 45.8153 69.6251 42.4637 69.6449 39.4858C69.6366 29.2287 69.6251 18.9698 69.6926 8.71267C69.7008 6.51341 69.2037 4.38493 68.4662 2.32395Z" fill="#686465"/>
<path d="M31.0689 9.28223C39.6487 9.3168 48.2284 9.3168 56.8098 9.28717C57.9588 9.34479 59.1737 9.22297 60.0577 10.1004C61.0651 10.9844 60.8841 12.1186 60.9433 13.3318C60.8808 22.3214 60.9565 31.3522 60.9087 40.332C60.9186 41.8118 60.2437 42.7255 58.7901 43.0251C56.3242 43.295 53.7957 43.0629 51.3133 43.1255C48.4869 43.1979 45.5156 42.8769 42.755 43.4037C42.6875 48.566 42.8356 53.7464 42.7254 58.9088C42.7385 60.1681 42.0093 61.243 40.7582 61.5245C39.3837 61.7352 37.9515 61.6562 36.5638 61.6677C29.8212 61.6595 23.0785 61.6595 16.3359 61.6644C14.6502 61.6513 12.9399 61.7566 11.2624 61.5969C10.1414 61.5163 8.99899 60.4595 8.95783 59.3121C8.78499 57.6347 8.89034 55.921 8.88211 54.2354C8.8854 47.9141 8.89363 41.5929 8.87717 35.2717C8.8854 33.6025 8.77182 31.8905 8.96936 30.2312C9.20969 28.6838 10.6139 27.8541 12.102 27.8838C17.0569 27.7817 22.025 28.0187 26.9766 27.8031C27.0951 22.8432 26.9816 17.8702 27.0112 12.9071C27.0573 11.8535 27.0276 10.9086 27.8573 10.13C28.7479 9.24437 29.9068 9.33656 31.0689 9.28223Z" fill="white"/>
<path d="M38.2248 16.471C42.034 16.5138 45.8399 16.522 49.6491 16.4759C50.9643 16.5269 52.245 16.3327 53.2854 17.3023C54.2929 18.1319 54.4542 19.248 54.4492 20.4876C54.441 24.4367 54.4064 28.3858 54.4575 32.3382C54.4328 33.451 54.5217 34.875 53.9439 35.8659C53.269 36.9096 52.064 37.1088 50.9133 37.1582C46.0884 37.2471 41.2471 37.0067 36.4255 37.2388C36.228 40.9312 36.3794 44.6383 36.3498 48.3355C36.3152 50.0459 36.5177 51.8748 36.1687 53.5555C35.6288 55.1621 33.9382 55.7597 32.3711 55.7383C28.4269 55.7646 24.4827 55.6889 20.5336 55.7564C19.1508 55.7136 17.6133 55.8996 16.5433 54.8411C15.4552 53.7464 15.363 52.3587 15.3465 50.897C15.3679 47.366 15.3959 43.8383 15.3416 40.3073C15.3581 38.7862 15.2577 37.3228 16.3408 36.1096C17.2429 35.0988 18.4133 35.056 19.6825 35.0264C23.2053 35.0182 26.7363 35.089 30.2607 35.061C31.334 35.056 32.3678 34.8371 33.4114 34.6017C33.6188 29.767 33.4114 24.9124 33.4789 20.0744C33.5085 19.1098 33.6699 18.2126 34.4073 17.5245C35.4987 16.4331 36.7877 16.4973 38.2248 16.471Z" fill="#F6C43F"/>
</svg>
