<svg width="458" height="260" viewBox="0 0 458 260" fill="none" xmlns="http://www.w3.org/2000/svg">
<rect width="458" height="260" rx="6" fill="#D1E9FF"/>
<g filter="url(#filter0_d_workato)">
<rect x="25" y="98" width="84" height="64" rx="10" fill="white" shape-rendering="crispEdges"/>
<rect x="25.5" y="98.5" width="83" height="63" rx="9.5" stroke="#0055B3" shape-rendering="crispEdges"/>
<!-- Trigger: lightning bolt -->
<path d="M69 112L63 122H68L64 130L74 120H69L71 112Z" fill="currentColor"/>
<text x="67" y="152" text-anchor="middle" font-family="-apple-system,BlinkMacSystemFont,sans-serif" font-size="9.5" font-weight="700" fill="currentColor">Trigger</text>
</g>
<g filter="url(#filter1_d_workato)">
<rect x="132.334" y="98" width="84" height="64" rx="10" fill="white" shape-rendering="crispEdges"/>
<rect x="132.834" y="98.5" width="83" height="63" rx="9.5" stroke="#0055B3" shape-rendering="crispEdges"/>
<!-- Recipe: document with lines -->
<path d="M180.334 112L183.334 115V130H165.334V112Z" fill="none" stroke="currentColor" stroke-width="1.5"/>
<path d="M180.334 112V115H183.334" fill="none" stroke="currentColor" stroke-width="1.5"/>
<line x1="168.334" y1="119" x2="179.334" y2="119" stroke="currentColor" stroke-width="1.5" stroke-linecap="round"/>
<line x1="168.334" y1="123" x2="180.334" y2="123" stroke="currentColor" stroke-width="1.5" stroke-linecap="round"/>
<line x1="168.334" y1="127" x2="176.334" y2="127" stroke="currentColor" stroke-width="1.5" stroke-linecap="round"/>
<text x="174.334" y="152" text-anchor="middle" font-family="-apple-system,BlinkMacSystemFont,sans-serif" font-size="9.5" font-weight="700" fill="currentColor">Recipe</text>
</g>
<g filter="url(#filter2_d_workato)">
<rect x="239.666" y="98" width="85" height="64" rx="10" fill="white" shape-rendering="crispEdges"/>
<rect x="240.166" y="98.5" width="84" height="63" rx="9.5" stroke="#0055B3" shape-rendering="crispEdges"/>
<!-- Action: play triangle -->
<path d="M277.166 113L277.166 129L291.166 121Z" fill="currentColor"/>
<text x="282.166" y="152" text-anchor="middle" font-family="-apple-system,BlinkMacSystemFont,sans-serif" font-size="9.5" font-weight="700" fill="currentColor">Action</text>
</g>
<g filter="url(#filter3_d_workato)">
<rect x="348" y="98" width="85" height="64" rx="10" fill="white" shape-rendering="crispEdges"/>
<rect x="348.5" y="98.5" width="84" height="63" rx="9.5" stroke="#0055B3" shape-rendering="crispEdges"/>
<!-- Notify: bell -->
<path d="M390.5 112Q398.5 112 398.5 121V124H382.5V121Q382.5 112 390.5 112Z" fill="none" stroke="currentColor" stroke-width="1.5"/>
<line x1="382.5" y1="124" x2="398.5" y2="124" stroke="currentColor" stroke-width="1.5" stroke-linecap="round"/>
<path d="M389 124Q390.5 128 392 124" fill="none" stroke="currentColor" stroke-width="1.5"/>
<text x="390.5" y="152" text-anchor="middle" font-family="-apple-system,BlinkMacSystemFont,sans-serif" font-size="9.5" font-weight="700" fill="currentColor">Notify</text>
</g>
<path d="M129.209 130L119.209 124.226V135.774L129.209 130ZM111.041 130V131H120.209V130V129H111.041V130Z" fill="currentColor"/>
<path d="M237.084 130L227.084 124.226V135.774L237.084 130ZM218.916 130V131H228.084V130V129H218.916V130Z" fill="currentColor"/>
<path d="M345.416 130L335.416 124.226V135.774L345.416 130ZM327.248 130V131H336.416V130V129H327.248V130Z" fill="currentColor"/>
<defs>
<filter id="filter0_d_workato" x="25" y="98" width="84" height="67" filterUnits="userSpaceOnUse" color-interpolation-filters="sRGB">
<feFlood flood-opacity="0" result="BackgroundImageFix"/>
<feColorMatrix in="SourceAlpha" type="matrix" values="0 0 0 0 0 0 0 0 0 0 0 0 0 0 0 0 0 0 127 0" result="hardAlpha"/>
<feOffset dy="3"/>
<feComposite in2="hardAlpha" operator="out"/>
<feColorMatrix type="matrix" values="0 0 0 0 0 0 0 0 0 0.333 0 0 0 0 0.702 0 0 0 1 0"/>
<feBlend mode="normal" in2="BackgroundImageFix" result="effect1_dropShadow_workato"/>
<feBlend mode="normal" in="SourceGraphic" in2="effect1_dropShadow_workato" result="shape"/>
</filter>
<filter id="filter1_d_workato" x="132.334" y="98" width="84" height="67" filterUnits="userSpaceOnUse" color-interpolation-filters="sRGB">
<feFlood flood-opacity="0" result="BackgroundImageFix"/>
<feColorMatrix in="SourceAlpha" type="matrix" values="0 0 0 0 0 0 0 0 0 0 0 0 0 0 0 0 0 0 127 0" result="hardAlpha"/>
<feOffset dy="3"/>
<feComposite in2="hardAlpha" operator="out"/>
<feColorMatrix type="matrix" values="0 0 0 0 0 0 0 0 0 0.333 0 0 0 0 0.702 0 0 0 1 0"/>
<feBlend mode="normal" in2="BackgroundImageFix" result="effect1_dropShadow_workato"/>
<feBlend mode="normal" in="SourceGraphic" in2="effect1_dropShadow_workato" result="shape"/>
</filter>
<filter id="filter2_d_workato" x="239.666" y="98" width="85" height="67" filterUnits="userSpaceOnUse" color-interpolation-filters="sRGB">
<feFlood flood-opacity="0" result="BackgroundImageFix"/>
<feColorMatrix in="SourceAlpha" type="matrix" values="0 0 0 0 0 0 0 0 0 0 0 0 0 0 0 0 0 0 127 0" result="hardAlpha"/>
<feOffset dy="3"/>
<feComposite in2="hardAlpha" operator="out"/>
<feColorMatrix type="matrix" values="0 0 0 0 0 0 0 0 0 0.333 0 0 0 0 0.702 0 0 0 1 0"/>
<feBlend mode="normal" in2="BackgroundImageFix" result="effect1_dropShadow_workato"/>
<feBlend mode="normal" in="SourceGraphic" in2="effect1_dropShadow_workato" result="shape"/>
</filter>
<filter id="filter3_d_workato" x="348" y="98" width="85" height="67" filterUnits="userSpaceOnUse" color-interpolation-filters="sRGB">
<feFlood flood-opacity="0" result="BackgroundImageFix"/>
<feColorMatrix in="SourceAlpha" type="matrix" values="0 0 0 0 0 0 0 0 0 0 0 0 0 0 0 0 0 0 127 0" result="hardAlpha"/>
<feOffset dy="3"/>
<feComposite in2="hardAlpha" operator="out"/>
<feColorMatrix type="matrix" values="0 0 0 0 0 0 0 0 0 0.333 0 0 0 0 0.702 0 0 0 1 0"/>
<feBlend mode="normal" in2="BackgroundImageFix" result="effect1_dropShadow_workato"/>
<feBlend mode="normal" in="SourceGraphic" in2="effect1_dropShadow_workato" result="shape"/>
</filter>
</defs>
</svg>
