<svg width="247" height="65" viewBox="0 0 247 65" fill="none" xmlns="http://www.w3.org/2000/svg">
<g clip-path="url(#clip0_12376_6754)">
<path d="M79.6331 30.5011C77.0442 30.5011 75.2975 32.4753 75.2975 34.9667C75.2975 37.458 77.0771 39.4646 79.6013 39.4646C81.1867 39.4646 82.4486 38.9146 83.4193 37.9439L85.4259 40.8565C84.1963 42.2159 81.9633 43.1866 79.5037 43.1866C74.9093 43.1866 71.3496 39.4975 71.3496 34.9996C71.3496 30.4693 74.9093 26.7808 79.4396 26.7808C82.0927 26.7808 84.1963 27.6867 85.5547 29.1109L83.2898 31.9258C82.3192 30.9864 81.1544 30.5011 79.6331 30.5011Z" fill="white"/>
<path d="M88.4004 20.4697H92.3483V42.7324H88.4004V20.4697Z" fill="white"/>
<path d="M95.9414 34.9986C95.9414 30.4683 99.3064 26.7798 103.772 26.7798C108.205 26.7798 111.57 30.2095 111.57 34.6751C111.57 35.1604 111.538 35.7104 111.473 35.9693H99.9858C100.374 38.1371 102.025 39.6907 104.419 39.6907C105.972 39.6907 107.299 39.0112 108.205 38.0729L110.244 40.7584C109.079 42.1173 106.878 43.1851 104.257 43.1851C99.4358 43.1851 95.9414 39.4966 95.9414 34.9986ZM100.051 33.4779H107.526C107.073 31.2772 105.681 30.1447 103.837 30.1447C101.862 30.1447 100.504 31.5037 100.051 33.4779Z" fill="white"/>
<path d="M128.785 27.2329L123.187 42.7328H118.074L112.443 27.2329H116.78L120.727 39.2055L124.74 27.2329H128.785Z" fill="white"/>
<path d="M129.883 34.9992C129.883 30.4689 133.248 26.7804 137.713 26.7804C142.147 26.7804 145.512 30.2101 145.512 34.6757C145.512 35.161 145.479 35.711 145.414 35.9699H133.927C134.316 38.1377 135.966 39.6913 138.36 39.6913C139.914 39.6913 141.241 39.0118 142.147 38.0735L144.185 40.759C143.02 42.1179 140.819 43.1857 138.199 43.1857C133.377 43.1857 129.883 39.4972 129.883 34.9992ZM133.992 33.4785H141.467C141.014 31.2778 139.623 30.1454 137.778 30.1454C135.804 30.1454 134.445 31.5043 133.992 33.4785ZM152.856 42.7327H148.908V27.2328H152.856V28.9153C153.729 27.6211 155.024 26.7793 156.641 26.7793C157.677 26.7793 158.518 27.0705 159.133 27.5558L157.483 31.3096C156.965 30.889 156.189 30.6301 155.444 30.6301C153.858 30.6301 152.855 31.9567 152.855 34.0604L152.856 42.7327ZM176.249 30.5013C173.66 30.5013 171.912 32.4755 171.912 34.9669C171.912 37.4582 173.692 39.4648 176.216 39.4648C177.802 39.4648 179.064 38.9148 180.035 37.9441L182.041 40.8566C180.811 42.2161 178.579 43.1868 176.119 43.1868C171.524 43.1868 167.965 39.4977 167.965 34.9998C167.965 30.4695 171.524 26.7809 176.055 26.7809C178.708 26.7809 180.811 27.6869 182.17 29.1111L179.905 31.926C178.934 30.9866 177.769 30.5013 176.249 30.5013Z" fill="white"/>
<path d="M185.012 20.4697H188.959V42.7324H185.012V20.4697Z" fill="white"/>
<path d="M192.555 34.9989C192.555 30.4686 196.114 26.7801 200.612 26.7801C205.11 26.7801 208.702 30.4692 208.702 34.9989C208.702 39.4969 205.11 43.186 200.612 43.186C196.115 43.1854 192.555 39.4969 192.555 34.9989ZM204.722 34.9666C204.722 32.4752 203.007 30.501 200.645 30.501C198.25 30.501 196.503 32.4752 196.503 34.9666C196.503 37.458 198.25 39.4645 200.645 39.4645C203.007 39.4645 204.722 37.458 204.722 34.9666ZM216.013 35.6137C216.013 37.8786 217.339 39.3998 219.314 39.3998C221.287 39.3998 222.615 37.8791 222.615 35.6137V27.2331H226.562V35.9049C226.562 40.2411 223.682 43.1207 219.314 43.1207C214.945 43.1207 212.065 40.2411 212.065 35.9049V27.2331H216.013V35.6137ZM246.104 20.4697V42.7324H242.124V41.05C240.991 42.3765 239.405 43.186 237.399 43.186C233.29 43.186 229.957 39.8204 229.957 34.9989C229.957 30.3069 233.096 26.7801 237.399 26.7801C239.438 26.7801 241.023 27.5243 242.124 28.7862V20.4697H246.104ZM242.124 34.9666C242.124 32.4752 240.408 30.501 238.046 30.501C235.652 30.501 233.904 32.4752 233.904 34.9666C233.904 37.458 235.652 39.4645 238.046 39.4645C240.408 39.4645 242.124 37.458 242.124 34.9666Z" fill="white"/>
<path d="M55.6069 16.9365V48.5976L49.738 41.0265L46.469 32.7682H46.4668L49.5718 24.3931L55.6069 16.9365Z" fill="#AB2B4A"/>
<path d="M0.765625 16.9365V48.5976L5.95346 41.2563L9.90355 32.7682H9.90575L5.88984 24.7155L0.765625 16.9365Z" fill="#E87A68"/>
<path d="M46.4626 32.7676L29.1799 33.8644L9.9043 32.7676L17.9482 16.9359L28.1845 1.10645L39.3148 18.4862L46.4626 32.7676Z" fill="#D74D4E"/>
<path d="M55.6018 16.9359L46.4616 32.7676L28.1836 1.10645L55.6018 16.9359Z" fill="#BD3246"/>
<path d="M28.186 1.10645L9.90575 32.7676L0.765625 16.9359L28.186 1.10645Z" fill="#F19175"/>
<path d="M46.4626 32.7676L40.2158 46.438L28.1845 64.4287L15.8034 45.8342L9.9043 32.7676H46.4626Z" fill="#CF3942"/>
<path d="M28.186 64.4287L0.765625 48.597L9.90575 32.7676L28.186 64.4287Z" fill="#E0625B"/>
<path d="M28.1836 64.4287L55.604 48.597L46.4638 32.7676L28.1836 64.4287Z" fill="#9A244F"/>
</g>
<defs>
<clipPath id="clip0_12376_6754">
<rect width="245.682" height="63.614" fill="white" transform="translate(0.527344 0.958984)"/>
</clipPath>
</defs>
</svg>
