<svg width="109" height="108" viewBox="0 0 109 108" fill="none" xmlns="http://www.w3.org/2000/svg">
<rect x="41.4316" y="39.8779" width="27.0696" height="22.7764" fill="black"/>
<path d="M53.9797 48.6243C54.2788 48.3252 54.7637 48.3252 55.0628 48.6243L56.2923 49.8538C56.5914 50.1529 56.5914 50.6378 56.2923 50.937L55.0628 52.1664C54.7637 52.4655 54.2788 52.4655 53.9797 52.1664L52.7502 50.937C52.4511 50.6378 52.4511 50.1529 52.7502 49.8538L53.9797 48.6243Z" fill="#A950FF"/>
<path d="M59.6425 48.6145C59.9363 48.3208 60.4125 48.3208 60.7063 48.6145L61.9552 49.8634C62.2489 50.1571 62.2489 50.6334 61.9552 50.9271L60.7063 52.176C60.4125 52.4698 59.9363 52.4698 59.6425 52.176L58.3936 50.9271C58.0999 50.6334 58.0999 50.1571 58.3936 49.8634C58.6874 49.5696 59.6425 48.6145 59.6425 48.6145Z" fill="#A950FF"/>
<path d="M53.9894 42.9615C54.2831 42.6678 54.7594 42.6678 55.0531 42.9615L56.302 44.2104C56.5957 44.5041 56.5957 44.9804 56.302 45.2742L55.0531 46.523C54.7594 46.8168 54.2831 46.8168 53.9894 46.523L52.7405 45.2742C52.4467 44.9804 52.4467 44.5041 52.7405 44.2104L53.9894 42.9615Z" fill="#E9C1FF"/>
<path d="M53.466 47.0273C53.7651 47.3264 53.7651 47.8113 53.466 48.1104L52.2365 49.3399C51.9374 49.639 51.4525 49.639 51.1534 49.3399L49.9239 48.1104C49.6248 47.8113 49.6248 47.3264 49.9239 47.0273L51.1534 45.7978C51.4525 45.4987 51.9374 45.4987 52.2365 45.7978L53.466 47.0273Z" fill="#CD88FF"/>
<path d="M50.649 49.8634C50.9428 50.1571 50.9428 50.6334 50.649 50.9271L49.4001 52.176C49.1064 52.4698 48.6301 52.4698 48.3364 52.176L47.0875 50.9271C46.7937 50.6334 46.7937 50.1571 47.0875 49.8634L48.3364 48.6145C48.6301 48.3208 49.1064 48.3208 49.4001 48.6145L50.649 49.8634Z" fill="#A950FF"/>
<path d="M59.1189 47.0273C59.418 47.3264 59.418 47.8113 59.1189 48.1104L57.8894 49.3399C57.5903 49.639 57.1054 49.639 56.8063 49.3399L55.5768 48.1104C55.2777 47.8113 55.2777 47.3264 55.5768 47.0273L56.8063 45.7978C57.1054 45.4987 57.5903 45.4987 57.8894 45.7978L59.1189 47.0273Z" fill="#CD88FF"/>
<path d="M55.7312 55.102C56.3995 55.7702 56.3995 56.8536 55.7312 57.5218C55.063 58.1901 53.9796 58.1901 53.3114 57.5218C52.6432 56.8536 52.6432 55.7702 53.3114 55.102C53.9796 54.4338 55.063 54.4338 55.7312 55.102Z" fill="#F62E76"/>
<g filter="url(#filter0_ddi_21670_39636)">
<path d="M54.4167 29L44.8346 34.9983H36.625V40.0817L31.4654 43.3604C29.9913 44.25 29 45.8513 29 47.7067V73.1233C29 75.9446 31.2875 78.2067 34.0833 78.2067H74.75C77.5712 78.2067 79.8333 75.9446 79.8333 73.1233V47.7067C79.8333 45.8513 78.8421 44.25 77.3679 43.3604L72.2083 40.0817V34.9983H63.9987M41.7083 40.0817H67.125V52.485L54.4167 60.415L41.7083 52.485M36.625 46.1308V49.3079L34.0833 47.7067M72.2083 46.1308L74.75 47.7067L72.2083 49.3079" fill="#E5E4F7"/>
</g>
<path d="M72.257 35H36.6308V49.3077L41.8264 52.4992V40.1785H67.1262V52.4992L72.257 49.3077V35Z" fill="#A459FF"/>
<defs>
<filter id="filter0_ddi_21670_39636" x="0" y="0" width="108.834" height="107.207" filterUnits="userSpaceOnUse" color-interpolation-filters="sRGB">
<feFlood flood-opacity="0" result="BackgroundImageFix"/>
<feColorMatrix in="SourceAlpha" type="matrix" values="0 0 0 0 0 0 0 0 0 0 0 0 0 0 0 0 0 0 127 0" result="hardAlpha"/>
<feOffset/>
<feGaussianBlur stdDeviation="14.5"/>
<feComposite in2="hardAlpha" operator="out"/>
<feColorMatrix type="matrix" values="0 0 0 0 0.584236 0 0 0 0 0.457699 0 0 0 0 1 0 0 0 0.45 0"/>
<feBlend mode="normal" in2="BackgroundImageFix" result="effect1_dropShadow_21670_39636"/>
<feColorMatrix in="SourceAlpha" type="matrix" values="0 0 0 0 0 0 0 0 0 0 0 0 0 0 0 0 0 0 127 0" result="hardAlpha"/>
<feOffset dy="1"/>
<feGaussianBlur stdDeviation="1"/>
<feComposite in2="hardAlpha" operator="out"/>
<feColorMatrix type="matrix" values="0 0 0 0 0 0 0 0 0 0 0 0 0 0 0 0 0 0 0.45 0"/>
<feBlend mode="normal" in2="effect1_dropShadow_21670_39636" result="effect2_dropShadow_21670_39636"/>
<feBlend mode="normal" in="SourceGraphic" in2="effect2_dropShadow_21670_39636" result="shape"/>
<feColorMatrix in="SourceAlpha" type="matrix" values="0 0 0 0 0 0 0 0 0 0 0 0 0 0 0 0 0 0 127 0" result="hardAlpha"/>
<feOffset dx="3" dy="2"/>
<feGaussianBlur stdDeviation="1"/>
<feComposite in2="hardAlpha" operator="arithmetic" k2="-1" k3="1"/>
<feColorMatrix type="matrix" values="0 0 0 0 0.788047 0 0 0 0 0.48877 0 0 0 0 0.987565 0 0 0 0.45 0"/>
<feBlend mode="normal" in2="shape" result="effect3_innerShadow_21670_39636"/>
</filter>
</defs>
</svg>
