<svg width="1720" height="502" viewBox="0 0 1720 502" fill="none" xmlns="http://www.w3.org/2000/svg">
<mask id="mask0_22018_74676" style="mask-type:alpha" maskUnits="userSpaceOnUse" x="288" y="-310" width="1222" height="865">
<g opacity="0.12">
<rect x="288.585" y="-0.349557" width="61.0548" height="61.0548" stroke="white" stroke-width="0.642682"/>
<rect x="349.64" y="-0.349557" width="61.0548" height="61.0548" stroke="white" stroke-width="0.642682"/>
<rect x="410.694" y="-0.349557" width="61.0548" height="61.0548" stroke="white" stroke-width="0.642682"/>
<rect x="471.749" y="-0.349557" width="61.0548" height="61.0548" stroke="white" stroke-width="0.642682"/>
<rect x="532.482" y="-0.670898" width="61.6975" height="61.6975" fill="white" fill-opacity="0.13"/>
<rect x="593.858" y="-0.349557" width="61.0548" height="61.0548" stroke="white" stroke-width="0.642682"/>
<rect x="654.592" y="-0.670898" width="61.6975" height="61.6975" fill="white" fill-opacity="0.38"/>
<rect x="715.968" y="-0.349557" width="61.0548" height="61.0548" stroke="white" stroke-width="0.642682"/>
<rect x="777.023" y="-0.349557" width="61.0548" height="61.0548" stroke="white" stroke-width="0.642682"/>
<rect x="838.077" y="-0.349557" width="61.0548" height="61.0548" stroke="white" stroke-width="0.642682"/>
<rect x="899.132" y="-0.349557" width="61.0548" height="61.0548" stroke="white" stroke-width="0.642682"/>
<rect x="959.865" y="-0.670898" width="61.6975" height="61.6975" fill="white" fill-opacity="0.13"/>
<rect x="1021.24" y="-0.349557" width="61.0548" height="61.0548" stroke="white" stroke-width="0.642682"/>
<rect x="1081.97" y="-0.670898" width="61.6975" height="61.6975" fill="white" fill-opacity="0.23"/>
<rect x="1143.35" y="-0.349557" width="61.0548" height="61.0548" stroke="white" stroke-width="0.642682"/>
<rect x="1204.41" y="-0.349557" width="61.0548" height="61.0548" stroke="white" stroke-width="0.642682"/>
<rect x="1265.46" y="-0.349557" width="61.0548" height="61.0548" stroke="white" stroke-width="0.642682"/>
<rect x="1326.51" y="-0.349557" width="61.0548" height="61.0548" stroke="white" stroke-width="0.642682"/>
<rect x="1387.57" y="-0.349557" width="61.0548" height="61.0548" stroke="white" stroke-width="0.642682"/>
<rect x="1448.62" y="-0.349557" width="61.0548" height="61.0548" stroke="white" stroke-width="0.642682"/>
<rect x="288.585" y="61.3477" width="61.0548" height="61.0548" stroke="white" stroke-width="0.642682"/>
<rect x="349.64" y="61.3477" width="61.0548" height="61.0548" stroke="white" stroke-width="0.642682"/>
<rect x="410.694" y="61.3477" width="61.0548" height="61.0548" stroke="white" stroke-width="0.642682"/>
<rect x="471.428" y="61.0264" width="61.6975" height="61.6975" fill="white" fill-opacity="0.13"/>
<rect x="532.804" y="61.3477" width="61.0548" height="61.0548" stroke="white" stroke-width="0.642682"/>
<rect x="593.537" y="61.0264" width="61.6975" height="61.6975" fill="white" fill-opacity="0.38"/>
<rect x="654.913" y="61.3477" width="61.0548" height="61.0548" stroke="white" stroke-width="0.642682"/>
<rect x="715.968" y="61.3477" width="61.0548" height="61.0548" stroke="white" stroke-width="0.642682"/>
<rect x="777.023" y="61.3477" width="61.0548" height="61.0548" stroke="white" stroke-width="0.642682"/>
<rect x="838.077" y="61.3477" width="61.0548" height="61.0548" stroke="white" stroke-width="0.642682"/>
<rect x="899.132" y="61.3477" width="61.0548" height="61.0548" stroke="white" stroke-width="0.642682"/>
<rect x="960.187" y="61.3477" width="61.0548" height="61.0548" stroke="white" stroke-width="0.642682"/>
<rect x="1020.92" y="61.0264" width="61.6975" height="61.6975" fill="white" fill-opacity="0.13"/>
<rect x="1082.3" y="61.3477" width="61.0548" height="61.0548" stroke="white" stroke-width="0.642682"/>
<rect x="1143.35" y="61.3477" width="61.0548" height="61.0548" stroke="white" stroke-width="0.642682"/>
<rect x="1204.41" y="61.3477" width="61.0548" height="61.0548" stroke="white" stroke-width="0.642682"/>
<rect x="1265.46" y="61.3477" width="61.0548" height="61.0548" stroke="white" stroke-width="0.642682"/>
<rect x="1326.51" y="61.3477" width="61.0548" height="61.0548" stroke="white" stroke-width="0.642682"/>
<rect x="1387.57" y="61.3477" width="61.0548" height="61.0548" stroke="white" stroke-width="0.642682"/>
<rect x="1448.62" y="61.3477" width="61.0548" height="61.0548" stroke="white" stroke-width="0.642682"/>
<rect x="288.585" y="123.045" width="61.0548" height="61.0548" stroke="white" stroke-width="0.642682"/>
<rect x="349.64" y="123.045" width="61.0548" height="61.0548" stroke="white" stroke-width="0.642682"/>
<rect x="410.694" y="123.045" width="61.0548" height="61.0548" stroke="white" stroke-width="0.642682"/>
<rect x="471.749" y="123.045" width="61.0548" height="61.0548" stroke="white" stroke-width="0.642682"/>
<rect x="532.804" y="123.045" width="61.0548" height="61.0548" stroke="white" stroke-width="0.642682"/>
<rect x="593.858" y="123.045" width="61.0548" height="61.0548" stroke="white" stroke-width="0.642682"/>
<rect x="654.913" y="123.045" width="61.0548" height="61.0548" stroke="white" stroke-width="0.642682"/>
<rect x="715.968" y="123.045" width="61.0548" height="61.0548" stroke="white" stroke-width="0.642682"/>
<rect x="777.023" y="123.045" width="61.0548" height="61.0548" stroke="white" stroke-width="0.642682"/>
<rect x="838.077" y="123.045" width="61.0548" height="61.0548" stroke="white" stroke-width="0.642682"/>
<rect x="899.132" y="123.045" width="61.0548" height="61.0548" stroke="white" stroke-width="0.642682"/>
<rect x="960.187" y="123.045" width="61.0548" height="61.0548" stroke="white" stroke-width="0.642682"/>
<rect x="1021.24" y="123.045" width="61.0548" height="61.0548" stroke="white" stroke-width="0.642682"/>
<rect x="1082.3" y="123.045" width="61.0548" height="61.0548" stroke="white" stroke-width="0.642682"/>
<rect x="1143.35" y="123.045" width="61.0548" height="61.0548" stroke="white" stroke-width="0.642682"/>
<rect x="1204.41" y="123.045" width="61.0548" height="61.0548" stroke="white" stroke-width="0.642682"/>
<rect x="1265.46" y="123.045" width="61.0548" height="61.0548" stroke="white" stroke-width="0.642682"/>
<rect x="1326.51" y="123.045" width="61.0548" height="61.0548" stroke="white" stroke-width="0.642682"/>
<rect x="1387.57" y="123.045" width="61.0548" height="61.0548" stroke="white" stroke-width="0.642682"/>
<rect x="1448.62" y="123.045" width="61.0548" height="61.0548" stroke="white" stroke-width="0.642682"/>
<rect x="288.585" y="184.743" width="61.0548" height="61.0548" stroke="white" stroke-width="0.642682"/>
<rect x="349.64" y="184.743" width="61.0548" height="61.0548" stroke="white" stroke-width="0.642682"/>
<rect x="410.694" y="184.743" width="61.0548" height="61.0548" stroke="white" stroke-width="0.642682"/>
<rect x="471.749" y="184.743" width="61.0548" height="61.0548" stroke="white" stroke-width="0.642682"/>
<rect x="532.804" y="184.743" width="61.0548" height="61.0548" stroke="white" stroke-width="0.642682"/>
<rect x="593.858" y="184.743" width="61.0548" height="61.0548" stroke="white" stroke-width="0.642682"/>
<rect x="654.913" y="184.743" width="61.0548" height="61.0548" stroke="white" stroke-width="0.642682"/>
<rect x="715.968" y="184.743" width="61.0548" height="61.0548" stroke="white" stroke-width="0.642682"/>
<rect x="777.023" y="184.743" width="61.0548" height="61.0548" stroke="white" stroke-width="0.642682"/>
<rect x="838.077" y="184.743" width="61.0548" height="61.0548" stroke="white" stroke-width="0.642682"/>
<rect x="899.132" y="184.743" width="61.0548" height="61.0548" stroke="white" stroke-width="0.642682"/>
<rect x="959.865" y="184.422" width="61.6975" height="61.6975" fill="white" fill-opacity="0.13"/>
<rect x="1021.24" y="184.743" width="61.0548" height="61.0548" stroke="white" stroke-width="0.642682"/>
<rect x="1082.3" y="184.743" width="61.0548" height="61.0548" stroke="white" stroke-width="0.642682"/>
<rect x="1143.35" y="184.743" width="61.0548" height="61.0548" stroke="white" stroke-width="0.642682"/>
<rect x="1204.41" y="184.743" width="61.0548" height="61.0548" stroke="white" stroke-width="0.642682"/>
<rect x="1265.46" y="184.743" width="61.0548" height="61.0548" stroke="white" stroke-width="0.642682"/>
<rect x="1326.51" y="184.743" width="61.0548" height="61.0548" stroke="white" stroke-width="0.642682"/>
<rect x="1387.57" y="184.743" width="61.0548" height="61.0548" stroke="white" stroke-width="0.642682"/>
<rect x="1448.62" y="184.743" width="61.0548" height="61.0548" stroke="white" stroke-width="0.642682"/>
<rect x="288.585" y="246.44" width="61.0548" height="61.0548" stroke="white" stroke-width="0.642682"/>
<rect x="349.64" y="246.44" width="61.0548" height="61.0548" stroke="white" stroke-width="0.642682"/>
<rect x="410.694" y="246.44" width="61.0548" height="61.0548" stroke="white" stroke-width="0.642682"/>
<rect x="471.749" y="246.44" width="61.0548" height="61.0548" stroke="white" stroke-width="0.642682"/>
<rect x="532.804" y="246.44" width="61.0548" height="61.0548" stroke="white" stroke-width="0.642682"/>
<rect x="593.858" y="246.44" width="61.0548" height="61.0548" stroke="white" stroke-width="0.642682"/>
<rect x="654.913" y="246.44" width="61.0548" height="61.0548" stroke="white" stroke-width="0.642682"/>
<rect x="715.968" y="246.44" width="61.0548" height="61.0548" stroke="white" stroke-width="0.642682"/>
<rect x="777.023" y="246.44" width="61.0548" height="61.0548" stroke="white" stroke-width="0.642682"/>
<rect x="838.077" y="246.44" width="61.0548" height="61.0548" stroke="white" stroke-width="0.642682"/>
<rect x="898.811" y="246.119" width="61.6975" height="61.6975" fill="white" fill-opacity="0.13"/>
<rect x="960.187" y="246.44" width="61.0548" height="61.0548" stroke="white" stroke-width="0.642682"/>
<rect x="1020.92" y="246.119" width="61.6975" height="61.6975" fill="white" fill-opacity="0.13"/>
<rect x="1082.3" y="246.44" width="61.0548" height="61.0548" stroke="white" stroke-width="0.642682"/>
<rect x="1143.03" y="246.119" width="61.6975" height="61.6975" fill="white" fill-opacity="0.13"/>
<rect x="1204.41" y="246.44" width="61.0548" height="61.0548" stroke="white" stroke-width="0.642682"/>
<rect x="1265.46" y="246.44" width="61.0548" height="61.0548" stroke="white" stroke-width="0.642682"/>
<rect x="1326.51" y="246.44" width="61.0548" height="61.0548" stroke="white" stroke-width="0.642682"/>
<rect x="1387.57" y="246.44" width="61.0548" height="61.0548" stroke="white" stroke-width="0.642682"/>
<rect x="1448.62" y="246.44" width="61.0548" height="61.0548" stroke="white" stroke-width="0.642682"/>
<rect x="288.585" y="308.138" width="61.0548" height="61.0548" stroke="white" stroke-width="0.642682"/>
<rect x="349.64" y="308.138" width="61.0548" height="61.0548" stroke="white" stroke-width="0.642682"/>
<rect x="410.694" y="308.138" width="61.0548" height="61.0548" stroke="white" stroke-width="0.642682"/>
<rect x="471.749" y="308.138" width="61.0548" height="61.0548" stroke="white" stroke-width="0.642682"/>
<rect x="532.804" y="308.138" width="61.0548" height="61.0548" stroke="white" stroke-width="0.642682"/>
<rect x="593.858" y="308.138" width="61.0548" height="61.0548" stroke="white" stroke-width="0.642682"/>
<rect x="654.913" y="308.138" width="61.0548" height="61.0548" stroke="white" stroke-width="0.642682"/>
<rect x="715.968" y="308.138" width="61.0548" height="61.0548" stroke="white" stroke-width="0.642682"/>
<rect x="777.023" y="308.138" width="61.0548" height="61.0548" stroke="white" stroke-width="0.642682"/>
<rect x="837.756" y="307.816" width="61.6975" height="61.6975" fill="white" fill-opacity="0.13"/>
<rect x="899.132" y="308.138" width="61.0548" height="61.0548" stroke="white" stroke-width="0.642682"/>
<rect x="959.865" y="307.816" width="61.6975" height="61.6975" fill="white" fill-opacity="0.13"/>
<rect x="1021.24" y="308.138" width="61.0548" height="61.0548" stroke="white" stroke-width="0.642682"/>
<rect x="1081.97" y="307.816" width="61.6975" height="61.6975" fill="white" fill-opacity="0.13"/>
<rect x="1143.35" y="308.138" width="61.0548" height="61.0548" stroke="white" stroke-width="0.642682"/>
<rect x="1204.41" y="308.138" width="61.0548" height="61.0548" stroke="white" stroke-width="0.642682"/>
<rect x="1265.46" y="308.138" width="61.0548" height="61.0548" stroke="white" stroke-width="0.642682"/>
<rect x="1326.51" y="308.138" width="61.0548" height="61.0548" stroke="white" stroke-width="0.642682"/>
<rect x="1387.57" y="308.138" width="61.0548" height="61.0548" stroke="white" stroke-width="0.642682"/>
<rect x="1448.62" y="308.138" width="61.0548" height="61.0548" stroke="white" stroke-width="0.642682"/>
<rect x="288.585" y="369.835" width="61.0548" height="61.0548" stroke="white" stroke-width="0.642682"/>
<rect x="349.64" y="369.835" width="61.0548" height="61.0548" stroke="white" stroke-width="0.642682"/>
<rect x="410.694" y="369.835" width="61.0548" height="61.0548" stroke="white" stroke-width="0.642682"/>
<rect x="471.749" y="369.835" width="61.0548" height="61.0548" stroke="white" stroke-width="0.642682"/>
<rect x="532.804" y="369.835" width="61.0548" height="61.0548" stroke="white" stroke-width="0.642682"/>
<rect x="593.858" y="369.835" width="61.0548" height="61.0548" stroke="white" stroke-width="0.642682"/>
<rect x="654.913" y="369.835" width="61.0548" height="61.0548" stroke="white" stroke-width="0.642682"/>
<rect x="715.968" y="369.835" width="61.0548" height="61.0548" stroke="white" stroke-width="0.642682"/>
<rect x="777.023" y="369.835" width="61.0548" height="61.0548" stroke="white" stroke-width="0.642682"/>
<rect x="838.077" y="369.835" width="61.0548" height="61.0548" stroke="white" stroke-width="0.642682"/>
<rect x="898.811" y="369.514" width="61.6975" height="61.6975" fill="white" fill-opacity="0.13"/>
<rect x="960.187" y="369.835" width="61.0548" height="61.0548" stroke="white" stroke-width="0.642682"/>
<rect x="1020.92" y="369.514" width="61.6975" height="61.6975" fill="white" fill-opacity="0.13"/>
<rect x="1082.3" y="369.835" width="61.0548" height="61.0548" stroke="white" stroke-width="0.642682"/>
<rect x="1143.35" y="369.835" width="61.0548" height="61.0548" stroke="white" stroke-width="0.642682"/>
<rect x="1204.41" y="369.835" width="61.0548" height="61.0548" stroke="white" stroke-width="0.642682"/>
<rect x="1265.46" y="369.835" width="61.0548" height="61.0548" stroke="white" stroke-width="0.642682"/>
<rect x="1326.51" y="369.835" width="61.0548" height="61.0548" stroke="white" stroke-width="0.642682"/>
<rect x="1387.57" y="369.835" width="61.0548" height="61.0548" stroke="white" stroke-width="0.642682"/>
<rect x="1448.62" y="369.835" width="61.0548" height="61.0548" stroke="white" stroke-width="0.642682"/>
<rect x="288.585" y="431.532" width="61.0548" height="61.0548" stroke="white" stroke-width="0.642682"/>
<rect x="349.64" y="431.532" width="61.0548" height="61.0548" stroke="white" stroke-width="0.642682"/>
<rect x="410.694" y="431.532" width="61.0548" height="61.0548" stroke="white" stroke-width="0.642682"/>
<rect x="471.749" y="431.532" width="61.0548" height="61.0548" stroke="white" stroke-width="0.642682"/>
<rect x="532.804" y="431.532" width="61.0548" height="61.0548" stroke="white" stroke-width="0.642682"/>
<rect x="593.858" y="431.532" width="61.0548" height="61.0548" stroke="white" stroke-width="0.642682"/>
<rect x="654.913" y="431.532" width="61.0548" height="61.0548" stroke="white" stroke-width="0.642682"/>
<rect x="715.968" y="431.532" width="61.0548" height="61.0548" stroke="white" stroke-width="0.642682"/>
<rect x="777.023" y="431.532" width="61.0548" height="61.0548" stroke="white" stroke-width="0.642682"/>
<rect x="838.077" y="431.532" width="61.0548" height="61.0548" stroke="white" stroke-width="0.642682"/>
<rect x="899.132" y="431.532" width="61.0548" height="61.0548" stroke="white" stroke-width="0.642682"/>
<rect x="960.187" y="431.532" width="61.0548" height="61.0548" stroke="white" stroke-width="0.642682"/>
<rect x="1021.24" y="431.532" width="61.0548" height="61.0548" stroke="white" stroke-width="0.642682"/>
<rect x="1082.3" y="431.532" width="61.0548" height="61.0548" stroke="white" stroke-width="0.642682"/>
<rect x="1143.35" y="431.532" width="61.0548" height="61.0548" stroke="white" stroke-width="0.642682"/>
<rect x="1204.41" y="431.532" width="61.0548" height="61.0548" stroke="white" stroke-width="0.642682"/>
<rect x="1265.46" y="431.532" width="61.0548" height="61.0548" stroke="white" stroke-width="0.642682"/>
<rect x="1326.51" y="431.532" width="61.0548" height="61.0548" stroke="white" stroke-width="0.642682"/>
<rect x="1387.57" y="431.532" width="61.0548" height="61.0548" stroke="white" stroke-width="0.642682"/>
<rect x="1448.62" y="431.532" width="61.0548" height="61.0548" stroke="white" stroke-width="0.642682"/>
<rect x="288.585" y="493.231" width="61.0548" height="61.0548" stroke="white" stroke-width="0.642682"/>
<rect x="349.64" y="493.231" width="61.0548" height="61.0548" stroke="white" stroke-width="0.642682"/>
<rect x="410.694" y="493.231" width="61.0548" height="61.0548" stroke="white" stroke-width="0.642682"/>
<rect x="471.749" y="493.231" width="61.0548" height="61.0548" stroke="white" stroke-width="0.642682"/>
<rect x="532.804" y="493.231" width="61.0548" height="61.0548" stroke="white" stroke-width="0.642682"/>
<rect x="593.858" y="493.231" width="61.0548" height="61.0548" stroke="white" stroke-width="0.642682"/>
<rect x="654.913" y="493.231" width="61.0548" height="61.0548" stroke="white" stroke-width="0.642682"/>
<rect x="715.968" y="493.231" width="61.0548" height="61.0548" stroke="white" stroke-width="0.642682"/>
<rect x="777.023" y="493.231" width="61.0548" height="61.0548" stroke="white" stroke-width="0.642682"/>
<rect x="838.077" y="493.231" width="61.0548" height="61.0548" stroke="white" stroke-width="0.642682"/>
<rect x="899.132" y="493.231" width="61.0548" height="61.0548" stroke="white" stroke-width="0.642682"/>
<rect x="960.187" y="493.231" width="61.0548" height="61.0548" stroke="white" stroke-width="0.642682"/>
<rect x="1021.24" y="493.231" width="61.0548" height="61.0548" stroke="white" stroke-width="0.642682"/>
<rect x="1082.3" y="493.231" width="61.0548" height="61.0548" stroke="white" stroke-width="0.642682"/>
<rect x="1143.35" y="493.231" width="61.0548" height="61.0548" stroke="white" stroke-width="0.642682"/>
<rect x="1204.41" y="493.231" width="61.0548" height="61.0548" stroke="white" stroke-width="0.642682"/>
<rect x="1265.46" y="493.231" width="61.0548" height="61.0548" stroke="white" stroke-width="0.642682"/>
<rect x="1326.51" y="493.231" width="61.0548" height="61.0548" stroke="white" stroke-width="0.642682"/>
<rect x="1387.57" y="493.231" width="61.0548" height="61.0548" stroke="white" stroke-width="0.642682"/>
<rect x="1448.62" y="493.231" width="61.0548" height="61.0548" stroke="white" stroke-width="0.642682"/>
</g>
</mask>
<g mask="url(#mask0_22018_74676)">
<g filter="url(#filter0_f_22018_74676)">
<ellipse cx="640.439" cy="3.21267" rx="252.658" ry="180.579" transform="rotate(-15 640.439 3.21267)" fill="#B987FF"/>
</g>
<g filter="url(#filter1_f_22018_74676)">
<ellipse cx="1190.67" cy="-72.3473" rx="312.682" ry="223.479" transform="rotate(-15 1190.67 -72.3473)" fill="#B987FF"/>
</g>
</g>
<defs>
<filter id="filter0_f_22018_74676" x="308.102" y="-266.925" width="664.672" height="540.275" filterUnits="userSpaceOnUse" color-interpolation-filters="sRGB">
<feFlood flood-opacity="0" result="BackgroundImageFix"/>
<feBlend mode="normal" in="SourceGraphic" in2="BackgroundImageFix" result="shape"/>
<feGaussianBlur stdDeviation="41.903" result="effect1_foregroundBlur_22018_74676"/>
</filter>
<filter id="filter1_f_22018_74676" x="779.38" y="-406.661" width="822.578" height="668.628" filterUnits="userSpaceOnUse" color-interpolation-filters="sRGB">
<feFlood flood-opacity="0" result="BackgroundImageFix"/>
<feBlend mode="normal" in="SourceGraphic" in2="BackgroundImageFix" result="shape"/>
<feGaussianBlur stdDeviation="51.8578" result="effect1_foregroundBlur_22018_74676"/>
</filter>
</defs>
</svg>
