<svg width="103" height="25" viewBox="0 0 103 25" fill="none" xmlns="http://www.w3.org/2000/svg">
<path d="M31.7983 3.44592H27.8589V21.3751H31.7983V17.8041L33.2716 16.2686L36.5698 21.3751H41.0516L35.9459 13.4929L40.8602 8.37534H35.9958L31.7983 12.8704V3.44592Z" fill="#26282D"/>
<path d="M72.5991 4.39478H68.706V8.37534H66.4495V11.5857H68.706V18.4277C68.706 19.3844 68.9493 20.1288 69.4616 20.6328C69.9734 21.1363 70.7288 21.3751 71.6997 21.3751H75.1101V18.2342H72.5991V11.5857H75.1101V8.37534H72.5991V4.39478Z" fill="#26282D"/>
<path fill-rule="evenodd" clip-rule="evenodd" d="M47.0642 8.14392C45.1415 8.14392 43.5853 8.73774 42.4115 9.93536L42.4105 9.93643C41.2514 11.1431 40.68 12.7957 40.68 14.8752C40.68 16.9317 41.2437 18.5758 42.3863 19.7898C43.5308 21.0058 45.1121 21.6066 47.1105 21.6066C48.7386 21.6066 50.1121 21.2227 51.2217 20.446L51.2226 20.4454L51.2234 20.4447C52.3325 19.6446 53.025 18.587 53.2949 17.2771L53.3314 17.1002H49.4685L49.4353 17.2016C49.301 17.6116 49.0291 17.9434 48.6086 18.1972C48.1962 18.4431 47.6914 18.5698 47.0873 18.5698C46.3524 18.5698 45.7731 18.3665 45.3349 17.9716C44.8979 17.5702 44.6772 17.0479 44.6772 16.3911V15.8556H53.0965L53.1118 15.7256C53.1742 15.1956 53.2054 14.6769 53.2054 14.1694C53.2054 12.3102 52.6434 10.8372 51.5052 9.77003C50.3925 8.6818 48.9067 8.14392 47.0642 8.14392ZM45.309 11.735C45.7314 11.37 46.296 11.1807 47.0179 11.1807C47.7161 11.1807 48.2657 11.3658 48.6807 11.7236L48.6817 11.7245L48.6827 11.7253C49.1026 12.074 49.3123 12.5293 49.3123 13.1048V13.1891H44.6772V13.1511C44.6772 12.5588 44.888 12.0918 45.3079 11.736L45.309 11.735Z" fill="#26282D"/>
<path fill-rule="evenodd" clip-rule="evenodd" d="M60.001 8.14392C58.3526 8.14392 57.0292 8.51108 56.0468 9.26187L56.0463 9.26222C55.0659 10.0176 54.5773 11.0653 54.5773 12.3874C54.5773 13.4197 54.9005 14.2657 55.5556 14.9107C56.207 15.5521 57.1731 15.9813 58.4356 16.2119L58.4369 16.2121L60.6965 16.5829L60.6984 16.5832C61.0777 16.6353 61.3604 16.7376 61.5578 16.8806L61.5588 16.8813L61.5598 16.882C61.7404 17.0084 61.8646 17.2454 61.902 17.636C61.9002 17.9865 61.7611 18.251 61.4795 18.4454L61.4782 18.4464C61.1968 18.6454 60.7765 18.7549 60.1977 18.7549C59.5621 18.7549 59.0852 18.6165 58.7492 18.3579C58.4282 18.1049 58.2621 17.7421 58.2621 17.2474V17.1002H54.3806V17.2474C54.3806 18.573 54.9028 19.6388 55.9429 20.4309L55.9433 20.4312C56.9876 21.2204 58.4035 21.6066 60.1746 21.6066C61.9069 21.6066 63.2917 21.2321 64.3129 20.4663C65.3475 19.6962 65.8645 18.6252 65.8645 17.2705C65.8645 16.2036 65.5592 15.3411 64.9346 14.7002C64.3127 14.0621 63.3904 13.6605 62.1878 13.4801L62.1867 13.48L59.9999 13.1213L59.9981 13.121C59.7267 13.0833 59.541 13.0568 59.4402 13.0414C59.36 13.0207 59.2551 12.9825 59.1235 12.924C59.0003 12.8693 58.8778 12.7894 58.7563 12.6822C58.5832 12.5282 58.4935 12.3233 58.4935 12.0518C58.4935 11.7081 58.6176 11.4575 58.8612 11.2797C59.1122 11.0966 59.4784 10.9956 59.9779 10.9956C60.5515 10.9956 60.9583 11.1133 61.2223 11.3249C61.481 11.5322 61.6251 11.8478 61.6359 12.2984L61.6393 12.442H65.5105L65.5057 12.2902C65.4658 11.0209 64.952 10.0069 63.9665 9.26164C62.984 8.51092 61.6568 8.14392 60.001 8.14392ZM64.2246 20.3485L64.3129 20.4663L64.3125 20.4666L64.2246 20.3485ZM58.6588 18.474L58.7486 18.3574L58.7492 18.3579L58.7498 18.3583L58.6588 18.474ZM62.0492 17.6292L61.9026 17.6428L61.902 17.636L61.902 17.6292H62.0492Z" fill="#26282D"/>
<path fill-rule="evenodd" clip-rule="evenodd" d="M91.1513 8.14392C89.4329 8.14392 88.041 8.53058 86.99 9.31882C85.941 10.1035 85.368 11.2251 85.265 12.6662L85.2538 12.8239H89.1009L89.1111 12.6876C89.1472 12.2031 89.3219 11.8463 89.6245 11.5987L89.6248 11.5985C89.9369 11.3418 90.3853 11.2039 90.9893 11.2039C91.5969 11.2039 92.0253 11.3493 92.3021 11.6143C92.5777 11.8781 92.7282 12.2845 92.7282 12.8618V13.4552H89.5197C88.0684 13.4552 86.9008 13.8164 86.0338 14.5549C85.171 15.2887 84.7439 16.2965 84.7439 17.5598C84.7439 18.7805 85.1218 19.7701 85.888 20.5121L85.8892 20.5132C86.6628 21.2465 87.6932 21.6066 88.9643 21.6066C89.9334 21.6066 90.7913 21.4095 91.5334 21.0104L91.5345 21.0099C92.2099 20.6395 92.6893 20.1513 92.9614 19.5437L92.9963 19.7588L92.9966 19.7608C93.0939 20.3123 93.3252 20.7337 93.7048 21.0011L93.7057 21.0018L93.7066 21.0024C94.0829 21.259 94.6516 21.3751 95.3864 21.3751H98.195V18.5698H96.6329V12.9312C96.6329 11.6071 96.1915 10.4752 95.3088 9.5444C94.436 8.59943 93.0375 8.14392 91.1513 8.14392ZM88.6949 17.0044C88.6949 16.6329 88.8195 16.3748 89.054 16.2033C89.2972 16.0255 89.6799 15.925 90.2256 15.925H92.7282V16.2291C92.7282 16.9681 92.5042 17.5403 92.0676 17.9628C91.6308 18.3778 91.0304 18.5929 90.2487 18.5929C89.6956 18.5929 89.3075 18.4896 89.0606 18.3065C88.822 18.1296 88.6949 17.8627 88.6949 17.4788V17.0044Z" fill="#26282D"/>
<path d="M80.2163 8.37534C78.88 8.37534 77.9497 8.72649 77.5084 9.49033C77.3173 9.81688 77.1839 10.139 77.1106 10.4566L77.1103 10.458L77.11 10.4594C77.0455 10.7658 77.0142 11.1393 77.0142 11.5774V21.3751H80.9073V11.5857H84.6796V8.37534H80.2163Z" fill="#26282D"/>
<path d="M100.774 21.3859C100.355 21.3859 100.007 21.2528 99.7313 20.9866C99.4664 20.7088 99.334 20.3673 99.334 19.9621C99.334 19.557 99.4664 19.2213 99.7313 18.9551C100.007 18.6772 100.355 18.5383 100.774 18.5383C101.183 18.5383 101.519 18.6772 101.784 18.9551C102.049 19.2213 102.182 19.557 102.182 19.9621C102.182 20.3673 102.049 20.7088 101.784 20.9866C101.519 21.2528 101.183 21.3859 100.774 21.3859Z" fill="#F62E76"/>
<path d="M0.248779 3.38775C0.248779 1.93379 1.42745 0.755127 2.88141 0.755127H21.1655C22.6195 0.755127 23.7982 1.93379 23.7982 3.38775V21.6719C23.7982 23.1258 22.6195 24.3045 21.1655 24.3045H2.8814C1.42745 24.3045 0.248779 23.1258 0.248779 21.6719V3.38775Z" fill="#2C0059"/>
<path d="M11.4451 10.6387C11.7644 10.3193 12.2822 10.3193 12.6016 10.6387L13.9144 11.9515C14.2338 12.2709 14.2338 12.7887 13.9144 13.1081L12.6016 14.4209C12.2822 14.7403 11.7644 14.7403 11.4451 14.4209L10.1322 13.1081C9.81288 12.7887 9.81287 12.2709 10.1322 11.9515L11.4451 10.6387Z" fill="#A950FF"/>
<path d="M17.4917 10.6282C17.8053 10.3146 18.3139 10.3146 18.6275 10.6282L19.961 11.9618C20.2747 12.2754 20.2747 12.7839 19.961 13.0976L18.6275 14.4311C18.3139 14.7448 17.8053 14.7448 17.4917 14.4311L16.1582 13.0976C15.8445 12.7839 15.8445 12.2754 16.1582 11.9618L17.4917 10.6282Z" fill="#A950FF"/>
<path d="M11.4554 4.59218C11.7691 4.27852 12.2776 4.27852 12.5913 4.59218L13.9248 5.92568C14.2384 6.23934 14.2384 6.74788 13.9248 7.06154L12.5913 8.39504C12.2776 8.7087 11.7691 8.7087 11.4554 8.39504L10.1219 7.06154C9.80824 6.74788 9.80824 6.23934 10.1219 5.92568L11.4554 4.59218Z" fill="#E9C1FF"/>
<path d="M10.8966 8.93346C11.216 9.25283 11.216 9.77064 10.8966 10.09L9.58378 11.4028C9.26441 11.7222 8.74661 11.7222 8.42723 11.4028L7.11442 10.09C6.79505 9.77064 6.79505 9.25283 7.11442 8.93346L8.42723 7.62065C8.74661 7.30128 9.26441 7.30128 9.58378 7.62065L10.8966 8.93346Z" fill="#CD88FF"/>
<path d="M7.88869 11.9617C8.20235 12.2754 8.20235 12.7839 7.88869 13.0976L6.55519 14.4311C6.24153 14.7448 5.73299 14.7448 5.41933 14.4311L4.08583 13.0976C3.77217 12.7839 3.77217 12.2754 4.08583 11.9617L5.41933 10.6282C5.73299 10.3146 6.24153 10.3146 6.55519 10.6282L7.88869 11.9617Z" fill="#A950FF"/>
<path d="M16.9326 8.93346C17.252 9.25283 17.252 9.77064 16.9326 10.09L15.6198 11.4028C15.3004 11.7222 14.7826 11.7222 14.4632 11.4028L13.1504 10.09C12.8311 9.77064 12.8311 9.25283 13.1504 8.93346L14.4632 7.62065C14.7826 7.30128 15.3004 7.30128 15.6198 7.62065L16.9326 8.93346Z" fill="#CD88FF"/>
<path d="M13.3153 17.5554C14.0288 18.2689 14.0288 19.4257 13.3153 20.1392C12.6018 20.8527 11.445 20.8527 10.7315 20.1392C10.018 19.4257 10.018 18.2689 10.7315 17.5554C11.445 16.8419 12.6018 16.8419 13.3153 17.5554Z" fill="#F62E76"/>
</svg>
