<svg width="1720" height="786" viewBox="0 0 1720 786" fill="none" xmlns="http://www.w3.org/2000/svg">
<mask id="mask0_22685_46607" style="mask-type:alpha" maskUnits="userSpaceOnUse" x="0" y="-70" width="1363" height="964">
<g opacity="0.22">
<rect x="0.627626" y="-0.175703" width="68.0381" height="68.0381" stroke="white" stroke-width="0.71619"/>
<rect x="68.6656" y="-0.175703" width="68.0381" height="68.0381" stroke="white" stroke-width="0.71619"/>
<rect x="136.704" y="-0.175703" width="68.0381" height="68.0381" stroke="white" stroke-width="0.71619"/>
<rect x="204.742" y="-0.175703" width="68.0381" height="68.0381" stroke="white" stroke-width="0.71619"/>
<rect x="272.78" y="-0.175703" width="68.0381" height="68.0381" stroke="white" stroke-width="0.71619"/>
<rect x="340.818" y="-0.175703" width="68.0381" height="68.0381" stroke="white" stroke-width="0.71619"/>
<rect x="408.856" y="-0.175703" width="68.0381" height="68.0381" stroke="white" stroke-width="0.71619"/>
<rect x="476.894" y="-0.175703" width="68.0381" height="68.0381" stroke="white" stroke-width="0.71619"/>
<rect x="544.932" y="-0.175703" width="68.0381" height="68.0381" stroke="white" stroke-width="0.71619"/>
<rect x="612.97" y="-0.175703" width="68.0381" height="68.0381" stroke="white" stroke-width="0.71619"/>
<rect x="681.008" y="-0.175703" width="68.0381" height="68.0381" stroke="white" stroke-width="0.71619"/>
<rect x="749.046" y="-0.175703" width="68.0381" height="68.0381" stroke="white" stroke-width="0.71619"/>
<rect x="817.084" y="-0.175703" width="68.0381" height="68.0381" stroke="white" stroke-width="0.71619"/>
<rect x="885.122" y="-0.175703" width="68.0381" height="68.0381" stroke="white" stroke-width="0.71619"/>
<rect x="953.16" y="-0.175703" width="68.0381" height="68.0381" stroke="white" stroke-width="0.71619"/>
<rect x="1021.2" y="-0.175703" width="68.0381" height="68.0381" stroke="white" stroke-width="0.71619"/>
<rect x="1089.24" y="-0.175703" width="68.0381" height="68.0381" stroke="white" stroke-width="0.71619"/>
<rect x="1157.27" y="-0.175703" width="68.0381" height="68.0381" stroke="white" stroke-width="0.71619"/>
<rect x="1225.31" y="-0.175703" width="68.0381" height="68.0381" stroke="white" stroke-width="0.71619"/>
<rect x="1293.35" y="-0.175703" width="68.0381" height="68.0381" stroke="white" stroke-width="0.71619"/>
<rect x="0.627626" y="68.5786" width="68.0381" height="68.0381" stroke="white" stroke-width="0.71619"/>
<rect x="68.6656" y="68.5786" width="68.0381" height="68.0381" stroke="white" stroke-width="0.71619"/>
<rect x="136.704" y="68.5786" width="68.0381" height="68.0381" stroke="white" stroke-width="0.71619"/>
<rect x="204.742" y="68.5786" width="68.0381" height="68.0381" stroke="white" stroke-width="0.71619"/>
<rect x="272.78" y="68.5786" width="68.0381" height="68.0381" stroke="white" stroke-width="0.71619"/>
<rect x="340.818" y="68.5786" width="68.0381" height="68.0381" stroke="white" stroke-width="0.71619"/>
<rect x="408.856" y="68.5786" width="68.0381" height="68.0381" stroke="white" stroke-width="0.71619"/>
<rect x="476.894" y="68.5786" width="68.0381" height="68.0381" stroke="white" stroke-width="0.71619"/>
<rect x="544.932" y="68.5786" width="68.0381" height="68.0381" stroke="white" stroke-width="0.71619"/>
<rect x="612.97" y="68.5786" width="68.0381" height="68.0381" stroke="white" stroke-width="0.71619"/>
<rect x="681.008" y="68.5786" width="68.0381" height="68.0381" stroke="white" stroke-width="0.71619"/>
<rect x="749.046" y="68.5786" width="68.0381" height="68.0381" stroke="white" stroke-width="0.71619"/>
<rect x="817.084" y="68.5786" width="68.0381" height="68.0381" stroke="white" stroke-width="0.71619"/>
<rect x="885.122" y="68.5786" width="68.0381" height="68.0381" stroke="white" stroke-width="0.71619"/>
<rect x="953.16" y="68.5786" width="68.0381" height="68.0381" stroke="white" stroke-width="0.71619"/>
<rect x="1021.2" y="68.5786" width="68.0381" height="68.0381" stroke="white" stroke-width="0.71619"/>
<rect x="1089.24" y="68.5786" width="68.0381" height="68.0381" stroke="white" stroke-width="0.71619"/>
<rect x="1157.27" y="68.5786" width="68.0381" height="68.0381" stroke="white" stroke-width="0.71619"/>
<rect x="1225.31" y="68.5786" width="68.0381" height="68.0381" stroke="white" stroke-width="0.71619"/>
<rect x="1293.35" y="68.5786" width="68.0381" height="68.0381" stroke="white" stroke-width="0.71619"/>
<rect x="0.627626" y="137.333" width="68.0381" height="68.0381" stroke="white" stroke-width="0.71619"/>
<rect x="68.6656" y="137.333" width="68.0381" height="68.0381" stroke="white" stroke-width="0.71619"/>
<rect x="136.704" y="137.333" width="68.0381" height="68.0381" stroke="white" stroke-width="0.71619"/>
<rect x="204.742" y="137.333" width="68.0381" height="68.0381" stroke="white" stroke-width="0.71619"/>
<rect x="272.78" y="137.333" width="68.0381" height="68.0381" stroke="white" stroke-width="0.71619"/>
<rect x="340.818" y="137.333" width="68.0381" height="68.0381" stroke="white" stroke-width="0.71619"/>
<rect x="408.856" y="137.333" width="68.0381" height="68.0381" stroke="white" stroke-width="0.71619"/>
<rect x="476.894" y="137.333" width="68.0381" height="68.0381" stroke="white" stroke-width="0.71619"/>
<rect x="544.932" y="137.333" width="68.0381" height="68.0381" stroke="white" stroke-width="0.71619"/>
<rect x="612.97" y="137.333" width="68.0381" height="68.0381" stroke="white" stroke-width="0.71619"/>
<rect x="681.008" y="137.333" width="68.0381" height="68.0381" stroke="white" stroke-width="0.71619"/>
<rect x="749.046" y="137.333" width="68.0381" height="68.0381" stroke="white" stroke-width="0.71619"/>
<rect x="817.084" y="137.333" width="68.0381" height="68.0381" stroke="white" stroke-width="0.71619"/>
<rect x="885.122" y="137.333" width="68.0381" height="68.0381" stroke="white" stroke-width="0.71619"/>
<rect x="953.16" y="137.333" width="68.0381" height="68.0381" stroke="white" stroke-width="0.71619"/>
<rect x="1021.2" y="137.333" width="68.0381" height="68.0381" stroke="white" stroke-width="0.71619"/>
<rect x="1089.24" y="137.333" width="68.0381" height="68.0381" stroke="white" stroke-width="0.71619"/>
<rect x="1157.27" y="137.333" width="68.0381" height="68.0381" stroke="white" stroke-width="0.71619"/>
<rect x="1225.31" y="137.333" width="68.0381" height="68.0381" stroke="white" stroke-width="0.71619"/>
<rect x="1293.35" y="137.333" width="68.0381" height="68.0381" stroke="white" stroke-width="0.71619"/>
<rect x="0.627626" y="206.087" width="68.0381" height="68.0381" stroke="white" stroke-width="0.71619"/>
<rect x="68.6656" y="206.087" width="68.0381" height="68.0381" stroke="white" stroke-width="0.71619"/>
<rect x="136.704" y="206.087" width="68.0381" height="68.0381" stroke="white" stroke-width="0.71619"/>
<rect x="204.742" y="206.087" width="68.0381" height="68.0381" stroke="white" stroke-width="0.71619"/>
<rect x="272.78" y="206.087" width="68.0381" height="68.0381" stroke="white" stroke-width="0.71619"/>
<rect x="340.46" y="205.729" width="68.7543" height="68.7543" fill="white" fill-opacity="0.38"/>
<rect x="408.856" y="206.087" width="68.0381" height="68.0381" stroke="white" stroke-width="0.71619"/>
<rect x="476.894" y="206.087" width="68.0381" height="68.0381" stroke="white" stroke-width="0.71619"/>
<rect x="544.932" y="206.087" width="68.0381" height="68.0381" stroke="white" stroke-width="0.71619"/>
<rect x="612.97" y="206.087" width="68.0381" height="68.0381" stroke="white" stroke-width="0.71619"/>
<rect x="681.008" y="206.087" width="68.0381" height="68.0381" stroke="white" stroke-width="0.71619"/>
<rect x="749.046" y="206.087" width="68.0381" height="68.0381" stroke="white" stroke-width="0.71619"/>
<rect x="816.726" y="205.729" width="68.7543" height="68.7543" fill="white" fill-opacity="0.13"/>
<rect x="885.122" y="206.087" width="68.0381" height="68.0381" stroke="white" stroke-width="0.71619"/>
<rect x="952.802" y="205.729" width="68.7543" height="68.7543" fill="white" fill-opacity="0.13"/>
<rect x="1021.2" y="206.087" width="68.0381" height="68.0381" stroke="white" stroke-width="0.71619"/>
<rect x="1089.24" y="206.087" width="68.0381" height="68.0381" stroke="white" stroke-width="0.71619"/>
<rect x="1157.27" y="206.087" width="68.0381" height="68.0381" stroke="white" stroke-width="0.71619"/>
<rect x="1225.31" y="206.087" width="68.0381" height="68.0381" stroke="white" stroke-width="0.71619"/>
<rect x="1293.35" y="206.087" width="68.0381" height="68.0381" stroke="white" stroke-width="0.71619"/>
<rect x="0.627626" y="274.841" width="68.0381" height="68.0381" stroke="white" stroke-width="0.71619"/>
<rect x="68.6656" y="274.841" width="68.0381" height="68.0381" stroke="white" stroke-width="0.71619"/>
<rect x="136.704" y="274.841" width="68.0381" height="68.0381" stroke="white" stroke-width="0.71619"/>
<rect x="204.742" y="274.841" width="68.0381" height="68.0381" stroke="white" stroke-width="0.71619"/>
<rect x="272.422" y="274.483" width="68.7543" height="68.7543" fill="white" fill-opacity="0.13"/>
<rect x="340.818" y="274.841" width="68.0381" height="68.0381" stroke="white" stroke-width="0.71619"/>
<rect x="408.498" y="274.483" width="68.7543" height="68.7543" fill="white" fill-opacity="0.38"/>
<rect x="476.894" y="274.841" width="68.0381" height="68.0381" stroke="white" stroke-width="0.71619"/>
<rect x="544.932" y="274.841" width="68.0381" height="68.0381" stroke="white" stroke-width="0.71619"/>
<rect x="612.97" y="274.841" width="68.0381" height="68.0381" stroke="white" stroke-width="0.71619"/>
<rect x="681.008" y="274.841" width="68.0381" height="68.0381" stroke="white" stroke-width="0.71619"/>
<rect x="748.688" y="274.483" width="68.7543" height="68.7543" fill="white" fill-opacity="0.13"/>
<rect x="817.084" y="274.841" width="68.0381" height="68.0381" stroke="white" stroke-width="0.71619"/>
<rect x="884.764" y="274.483" width="68.7543" height="68.7543" fill="white" fill-opacity="0.23"/>
<rect x="953.16" y="274.841" width="68.0381" height="68.0381" stroke="white" stroke-width="0.71619"/>
<rect x="1021.2" y="274.841" width="68.0381" height="68.0381" stroke="white" stroke-width="0.71619"/>
<rect x="1089.24" y="274.841" width="68.0381" height="68.0381" stroke="white" stroke-width="0.71619"/>
<rect x="1157.27" y="274.841" width="68.0381" height="68.0381" stroke="white" stroke-width="0.71619"/>
<rect x="1225.31" y="274.841" width="68.0381" height="68.0381" stroke="white" stroke-width="0.71619"/>
<rect x="1293.35" y="274.841" width="68.0381" height="68.0381" stroke="white" stroke-width="0.71619"/>
<rect x="0.627626" y="343.596" width="68.0381" height="68.0381" stroke="white" stroke-width="0.71619"/>
<rect x="68.6656" y="343.596" width="68.0381" height="68.0381" stroke="white" stroke-width="0.71619"/>
<rect x="136.704" y="343.596" width="68.0381" height="68.0381" stroke="white" stroke-width="0.71619"/>
<rect x="204.384" y="343.238" width="68.7543" height="68.7543" fill="white" fill-opacity="0.13"/>
<rect x="272.78" y="343.596" width="68.0381" height="68.0381" stroke="white" stroke-width="0.71619"/>
<rect x="340.46" y="343.238" width="68.7543" height="68.7543" fill="white" fill-opacity="0.38"/>
<rect x="408.856" y="343.596" width="68.0381" height="68.0381" stroke="white" stroke-width="0.71619"/>
<rect x="476.894" y="343.596" width="68.0381" height="68.0381" stroke="white" stroke-width="0.71619"/>
<rect x="544.932" y="343.596" width="68.0381" height="68.0381" stroke="white" stroke-width="0.71619"/>
<rect x="612.97" y="343.596" width="68.0381" height="68.0381" stroke="white" stroke-width="0.71619"/>
<rect x="681.008" y="343.596" width="68.0381" height="68.0381" stroke="white" stroke-width="0.71619"/>
<rect x="749.046" y="343.596" width="68.0381" height="68.0381" stroke="white" stroke-width="0.71619"/>
<rect x="816.726" y="343.238" width="68.7543" height="68.7543" fill="white" fill-opacity="0.13"/>
<rect x="885.122" y="343.596" width="68.0381" height="68.0381" stroke="white" stroke-width="0.71619"/>
<rect x="953.16" y="343.596" width="68.0381" height="68.0381" stroke="white" stroke-width="0.71619"/>
<rect x="1021.2" y="343.596" width="68.0381" height="68.0381" stroke="white" stroke-width="0.71619"/>
<rect x="1089.24" y="343.596" width="68.0381" height="68.0381" stroke="white" stroke-width="0.71619"/>
<rect x="1157.27" y="343.596" width="68.0381" height="68.0381" stroke="white" stroke-width="0.71619"/>
<rect x="1225.31" y="343.596" width="68.0381" height="68.0381" stroke="white" stroke-width="0.71619"/>
<rect x="1293.35" y="343.596" width="68.0381" height="68.0381" stroke="white" stroke-width="0.71619"/>
<rect x="0.627626" y="412.35" width="68.0381" height="68.0381" stroke="white" stroke-width="0.71619"/>
<rect x="68.6656" y="412.35" width="68.0381" height="68.0381" stroke="white" stroke-width="0.71619"/>
<rect x="136.704" y="412.35" width="68.0381" height="68.0381" stroke="white" stroke-width="0.71619"/>
<rect x="204.742" y="412.35" width="68.0381" height="68.0381" stroke="white" stroke-width="0.71619"/>
<rect x="272.78" y="412.35" width="68.0381" height="68.0381" stroke="white" stroke-width="0.71619"/>
<rect x="340.818" y="412.35" width="68.0381" height="68.0381" stroke="white" stroke-width="0.71619"/>
<rect x="408.856" y="412.35" width="68.0381" height="68.0381" stroke="white" stroke-width="0.71619"/>
<rect x="476.894" y="412.35" width="68.0381" height="68.0381" stroke="white" stroke-width="0.71619"/>
<rect x="544.932" y="412.35" width="68.0381" height="68.0381" stroke="white" stroke-width="0.71619"/>
<rect x="612.97" y="412.35" width="68.0381" height="68.0381" stroke="white" stroke-width="0.71619"/>
<rect x="681.008" y="412.35" width="68.0381" height="68.0381" stroke="white" stroke-width="0.71619"/>
<rect x="749.046" y="412.35" width="68.0381" height="68.0381" stroke="white" stroke-width="0.71619"/>
<rect x="817.084" y="412.35" width="68.0381" height="68.0381" stroke="white" stroke-width="0.71619"/>
<rect x="885.122" y="412.35" width="68.0381" height="68.0381" stroke="white" stroke-width="0.71619"/>
<rect x="953.16" y="412.35" width="68.0381" height="68.0381" stroke="white" stroke-width="0.71619"/>
<rect x="1021.2" y="412.35" width="68.0381" height="68.0381" stroke="white" stroke-width="0.71619"/>
<rect x="1089.24" y="412.35" width="68.0381" height="68.0381" stroke="white" stroke-width="0.71619"/>
<rect x="1157.27" y="412.35" width="68.0381" height="68.0381" stroke="white" stroke-width="0.71619"/>
<rect x="1225.31" y="412.35" width="68.0381" height="68.0381" stroke="white" stroke-width="0.71619"/>
<rect x="1293.35" y="412.35" width="68.0381" height="68.0381" stroke="white" stroke-width="0.71619"/>
<rect x="0.627626" y="481.104" width="68.0381" height="68.0381" stroke="white" stroke-width="0.71619"/>
<rect x="68.6656" y="481.104" width="68.0381" height="68.0381" stroke="white" stroke-width="0.71619"/>
<rect x="136.704" y="481.104" width="68.0381" height="68.0381" stroke="white" stroke-width="0.71619"/>
<rect x="204.742" y="481.104" width="68.0381" height="68.0381" stroke="white" stroke-width="0.71619"/>
<rect x="272.78" y="481.104" width="68.0381" height="68.0381" stroke="white" stroke-width="0.71619"/>
<rect x="340.818" y="481.104" width="68.0381" height="68.0381" stroke="white" stroke-width="0.71619"/>
<rect x="408.856" y="481.104" width="68.0381" height="68.0381" stroke="white" stroke-width="0.71619"/>
<rect x="476.894" y="481.104" width="68.0381" height="68.0381" stroke="white" stroke-width="0.71619"/>
<rect x="544.932" y="481.104" width="68.0381" height="68.0381" stroke="white" stroke-width="0.71619"/>
<rect x="612.97" y="481.104" width="68.0381" height="68.0381" stroke="white" stroke-width="0.71619"/>
<rect x="681.008" y="481.104" width="68.0381" height="68.0381" stroke="white" stroke-width="0.71619"/>
<rect x="748.688" y="480.746" width="68.7543" height="68.7543" fill="white" fill-opacity="0.13"/>
<rect x="817.084" y="481.104" width="68.0381" height="68.0381" stroke="white" stroke-width="0.71619"/>
<rect x="885.122" y="481.104" width="68.0381" height="68.0381" stroke="white" stroke-width="0.71619"/>
<rect x="953.16" y="481.104" width="68.0381" height="68.0381" stroke="white" stroke-width="0.71619"/>
<rect x="1021.2" y="481.104" width="68.0381" height="68.0381" stroke="white" stroke-width="0.71619"/>
<rect x="1089.24" y="481.104" width="68.0381" height="68.0381" stroke="white" stroke-width="0.71619"/>
<rect x="1157.27" y="481.104" width="68.0381" height="68.0381" stroke="white" stroke-width="0.71619"/>
<rect x="1225.31" y="481.104" width="68.0381" height="68.0381" stroke="white" stroke-width="0.71619"/>
<rect x="1293.35" y="481.104" width="68.0381" height="68.0381" stroke="white" stroke-width="0.71619"/>
<rect x="0.627626" y="549.859" width="68.0381" height="68.0381" stroke="white" stroke-width="0.71619"/>
<rect x="68.6656" y="549.859" width="68.0381" height="68.0381" stroke="white" stroke-width="0.71619"/>
<rect x="136.704" y="549.859" width="68.0381" height="68.0381" stroke="white" stroke-width="0.71619"/>
<rect x="204.742" y="549.859" width="68.0381" height="68.0381" stroke="white" stroke-width="0.71619"/>
<rect x="272.78" y="549.859" width="68.0381" height="68.0381" stroke="white" stroke-width="0.71619"/>
<rect x="340.818" y="549.859" width="68.0381" height="68.0381" stroke="white" stroke-width="0.71619"/>
<rect x="408.856" y="549.859" width="68.0381" height="68.0381" stroke="white" stroke-width="0.71619"/>
<rect x="476.894" y="549.859" width="68.0381" height="68.0381" stroke="white" stroke-width="0.71619"/>
<rect x="544.932" y="549.859" width="68.0381" height="68.0381" stroke="white" stroke-width="0.71619"/>
<rect x="612.97" y="549.859" width="68.0381" height="68.0381" stroke="white" stroke-width="0.71619"/>
<rect x="680.65" y="549.5" width="68.7543" height="68.7543" fill="white" fill-opacity="0.13"/>
<rect x="749.046" y="549.859" width="68.0381" height="68.0381" stroke="white" stroke-width="0.71619"/>
<rect x="816.726" y="549.5" width="68.7543" height="68.7543" fill="white" fill-opacity="0.13"/>
<rect x="885.122" y="549.859" width="68.0381" height="68.0381" stroke="white" stroke-width="0.71619"/>
<rect x="952.802" y="549.5" width="68.7543" height="68.7543" fill="white" fill-opacity="0.13"/>
<rect x="1021.2" y="549.859" width="68.0381" height="68.0381" stroke="white" stroke-width="0.71619"/>
<rect x="1089.24" y="549.859" width="68.0381" height="68.0381" stroke="white" stroke-width="0.71619"/>
<rect x="1157.27" y="549.859" width="68.0381" height="68.0381" stroke="white" stroke-width="0.71619"/>
<rect x="1225.31" y="549.859" width="68.0381" height="68.0381" stroke="white" stroke-width="0.71619"/>
<rect x="1293.35" y="549.859" width="68.0381" height="68.0381" stroke="white" stroke-width="0.71619"/>
<rect x="0.627626" y="618.613" width="68.0381" height="68.0381" stroke="white" stroke-width="0.71619"/>
<rect x="68.6656" y="618.613" width="68.0381" height="68.0381" stroke="white" stroke-width="0.71619"/>
<rect x="136.704" y="618.613" width="68.0381" height="68.0381" stroke="white" stroke-width="0.71619"/>
<rect x="204.742" y="618.613" width="68.0381" height="68.0381" stroke="white" stroke-width="0.71619"/>
<rect x="272.78" y="618.613" width="68.0381" height="68.0381" stroke="white" stroke-width="0.71619"/>
<rect x="340.818" y="618.613" width="68.0381" height="68.0381" stroke="white" stroke-width="0.71619"/>
<rect x="408.856" y="618.613" width="68.0381" height="68.0381" stroke="white" stroke-width="0.71619"/>
<rect x="476.894" y="618.613" width="68.0381" height="68.0381" stroke="white" stroke-width="0.71619"/>
<rect x="544.932" y="618.613" width="68.0381" height="68.0381" stroke="white" stroke-width="0.71619"/>
<rect x="612.612" y="618.255" width="68.7543" height="68.7543" fill="white" fill-opacity="0.13"/>
<rect x="681.008" y="618.613" width="68.0381" height="68.0381" stroke="white" stroke-width="0.71619"/>
<rect x="748.688" y="618.255" width="68.7543" height="68.7543" fill="white" fill-opacity="0.13"/>
<rect x="817.084" y="618.613" width="68.0381" height="68.0381" stroke="white" stroke-width="0.71619"/>
<rect x="884.764" y="618.255" width="68.7543" height="68.7543" fill="white" fill-opacity="0.13"/>
<rect x="953.16" y="618.613" width="68.0381" height="68.0381" stroke="white" stroke-width="0.71619"/>
<rect x="1021.2" y="618.613" width="68.0381" height="68.0381" stroke="white" stroke-width="0.71619"/>
<rect x="1089.24" y="618.613" width="68.0381" height="68.0381" stroke="white" stroke-width="0.71619"/>
<rect x="1157.27" y="618.613" width="68.0381" height="68.0381" stroke="white" stroke-width="0.71619"/>
<rect x="1225.31" y="618.613" width="68.0381" height="68.0381" stroke="white" stroke-width="0.71619"/>
<rect x="1293.35" y="618.613" width="68.0381" height="68.0381" stroke="white" stroke-width="0.71619"/>
<rect x="0.627626" y="687.367" width="68.0381" height="68.0381" stroke="white" stroke-width="0.71619"/>
<rect x="68.6656" y="687.367" width="68.0381" height="68.0381" stroke="white" stroke-width="0.71619"/>
<rect x="136.704" y="687.367" width="68.0381" height="68.0381" stroke="white" stroke-width="0.71619"/>
<rect x="204.742" y="687.367" width="68.0381" height="68.0381" stroke="white" stroke-width="0.71619"/>
<rect x="272.78" y="687.367" width="68.0381" height="68.0381" stroke="white" stroke-width="0.71619"/>
<rect x="340.818" y="687.367" width="68.0381" height="68.0381" stroke="white" stroke-width="0.71619"/>
<rect x="408.856" y="687.367" width="68.0381" height="68.0381" stroke="white" stroke-width="0.71619"/>
<rect x="476.894" y="687.367" width="68.0381" height="68.0381" stroke="white" stroke-width="0.71619"/>
<rect x="544.932" y="687.367" width="68.0381" height="68.0381" stroke="white" stroke-width="0.71619"/>
<rect x="612.97" y="687.367" width="68.0381" height="68.0381" stroke="white" stroke-width="0.71619"/>
<rect x="680.65" y="687.009" width="68.7543" height="68.7543" fill="white" fill-opacity="0.13"/>
<rect x="749.046" y="687.367" width="68.0381" height="68.0381" stroke="white" stroke-width="0.71619"/>
<rect x="816.726" y="687.009" width="68.7543" height="68.7543" fill="white" fill-opacity="0.13"/>
<rect x="885.122" y="687.367" width="68.0381" height="68.0381" stroke="white" stroke-width="0.71619"/>
<rect x="953.16" y="687.367" width="68.0381" height="68.0381" stroke="white" stroke-width="0.71619"/>
<rect x="1021.2" y="687.367" width="68.0381" height="68.0381" stroke="white" stroke-width="0.71619"/>
<rect x="1089.24" y="687.367" width="68.0381" height="68.0381" stroke="white" stroke-width="0.71619"/>
<rect x="1157.27" y="687.367" width="68.0381" height="68.0381" stroke="white" stroke-width="0.71619"/>
<rect x="1225.31" y="687.367" width="68.0381" height="68.0381" stroke="white" stroke-width="0.71619"/>
<rect x="1293.35" y="687.367" width="68.0381" height="68.0381" stroke="white" stroke-width="0.71619"/>
<rect x="0.627626" y="756.121" width="68.0381" height="68.0381" stroke="white" stroke-width="0.71619"/>
<rect x="68.6656" y="756.121" width="68.0381" height="68.0381" stroke="white" stroke-width="0.71619"/>
<rect x="136.704" y="756.121" width="68.0381" height="68.0381" stroke="white" stroke-width="0.71619"/>
<rect x="204.742" y="756.121" width="68.0381" height="68.0381" stroke="white" stroke-width="0.71619"/>
<rect x="272.78" y="756.121" width="68.0381" height="68.0381" stroke="white" stroke-width="0.71619"/>
<rect x="340.818" y="756.121" width="68.0381" height="68.0381" stroke="white" stroke-width="0.71619"/>
<rect x="408.856" y="756.121" width="68.0381" height="68.0381" stroke="white" stroke-width="0.71619"/>
<rect x="476.894" y="756.121" width="68.0381" height="68.0381" stroke="white" stroke-width="0.71619"/>
<rect x="544.932" y="756.121" width="68.0381" height="68.0381" stroke="white" stroke-width="0.71619"/>
<rect x="612.97" y="756.121" width="68.0381" height="68.0381" stroke="white" stroke-width="0.71619"/>
<rect x="681.008" y="756.121" width="68.0381" height="68.0381" stroke="white" stroke-width="0.71619"/>
<rect x="749.046" y="756.121" width="68.0381" height="68.0381" stroke="white" stroke-width="0.71619"/>
<rect x="817.084" y="756.121" width="68.0381" height="68.0381" stroke="white" stroke-width="0.71619"/>
<rect x="885.122" y="756.121" width="68.0381" height="68.0381" stroke="white" stroke-width="0.71619"/>
<rect x="953.16" y="756.121" width="68.0381" height="68.0381" stroke="white" stroke-width="0.71619"/>
<rect x="1021.2" y="756.121" width="68.0381" height="68.0381" stroke="white" stroke-width="0.71619"/>
<rect x="1089.24" y="756.121" width="68.0381" height="68.0381" stroke="white" stroke-width="0.71619"/>
<rect x="1157.27" y="756.121" width="68.0381" height="68.0381" stroke="white" stroke-width="0.71619"/>
<rect x="1225.31" y="756.121" width="68.0381" height="68.0381" stroke="white" stroke-width="0.71619"/>
<rect x="1293.35" y="756.121" width="68.0381" height="68.0381" stroke="white" stroke-width="0.71619"/>
</g>
</mask>
<g mask="url(#mask0_22685_46607)">
<g filter="url(#filter0_f_22685_46607)">
<ellipse cx="699.459" cy="-34.9107" rx="353.73" ry="252.816" transform="rotate(-15 699.459 -34.9107)" fill="#B987FF"/>
</g>
<g filter="url(#filter1_f_22685_46607)">
<ellipse cx="993.591" cy="59.2025" rx="312.682" ry="223.479" transform="rotate(-15 993.591 59.2025)" fill="#B987FF"/>
</g>
</g>
<g filter="url(#filter2_f_22685_46607)">
<ellipse cx="1200.45" cy="-297.023" rx="329.773" ry="314.676" fill="#A796FF"/>
</g>
<defs>
<filter id="filter0_f_22685_46607" x="267.702" y="-379.587" width="863.512" height="689.352" filterUnits="userSpaceOnUse" color-interpolation-filters="sRGB">
<feFlood flood-opacity="0" result="BackgroundImageFix"/>
<feBlend mode="normal" in="SourceGraphic" in2="BackgroundImageFix" result="shape"/>
<feGaussianBlur stdDeviation="41.903" result="effect1_foregroundBlur_22685_46607"/>
</filter>
<filter id="filter1_f_22685_46607" x="582.302" y="-275.111" width="822.578" height="668.627" filterUnits="userSpaceOnUse" color-interpolation-filters="sRGB">
<feFlood flood-opacity="0" result="BackgroundImageFix"/>
<feBlend mode="normal" in="SourceGraphic" in2="BackgroundImageFix" result="shape"/>
<feGaussianBlur stdDeviation="51.8578" result="effect1_foregroundBlur_22685_46607"/>
</filter>
<filter id="filter2_f_22685_46607" x="646.676" y="-835.699" width="1107.55" height="1077.35" filterUnits="userSpaceOnUse" color-interpolation-filters="sRGB">
<feFlood flood-opacity="0" result="BackgroundImageFix"/>
<feBlend mode="normal" in="SourceGraphic" in2="BackgroundImageFix" result="shape"/>
<feGaussianBlur stdDeviation="112" result="effect1_foregroundBlur_22685_46607"/>
</filter>
</defs>
</svg>
