<svg width="32" height="32" viewBox="0 0 32 32" fill="none" xmlns="http://www.w3.org/2000/svg">
<path d="M14 6.30664V11.2591L9.3275 15.9316L14 20.6041V25.5566L4.375 15.9316M17.5 6.18414L27.2475 15.9316L17.5 25.6791V20.7266L22.295 15.9316L17.5 11.1366M3.5 0.181641C1.5575 0.181641 0 1.75664 0 3.68164V28.1816C0 29.1099 0.368749 30.0001 1.02513 30.6565C1.6815 31.3129 2.57174 31.6816 3.5 31.6816H28C28.9283 31.6816 29.8185 31.3129 30.4749 30.6565C31.1313 30.0001 31.5 29.1099 31.5 28.1816V3.68164C31.5 2.75338 31.1313 1.86314 30.4749 1.20677C29.8185 0.550389 28.9283 0.181641 28 0.181641H3.5Z" fill="url(#paint0_linear_6805_8113)"/>
<defs>
<linearGradient id="paint0_linear_6805_8113" x1="4.74595" y1="6.02942" x2="30.9714" y2="32.2115" gradientUnits="userSpaceOnUse">
<stop offset="0.015625" stop-color="#F2D5FF"/>
<stop offset="1" stop-color="#CB5AFF"/>
</linearGradient>
</defs>
</svg>
