<svg width="160" height="58" viewBox="0 0 160 58" fill="none" xmlns="http://www.w3.org/2000/svg">
<path d="M15.6439 19.8613H15.3343L7.11328 37.5578H9.11695L15.4031 23.7133L21.8871 37.5578H23.7532L15.6439 19.8613Z" fill="white"/>
<path d="M37.4176 21.4245C40.1007 21.4245 42.4483 22.8928 43.7038 25.0692L45.1485 24.2315C43.6092 21.5541 40.7198 19.749 37.4176 19.749C32.4902 19.749 28.4914 23.7651 28.4914 28.7139C28.4914 33.6627 32.4902 37.6787 37.4176 37.6787C40.7198 37.6787 43.6006 35.8736 45.1485 33.1963L43.7038 32.3585C42.4483 34.535 40.1007 36.0032 37.4176 36.0032C33.4103 36.0032 30.1597 32.7385 30.1597 28.7139C30.1597 24.6892 33.4103 21.4245 37.4176 21.4245Z" fill="white"/>
<path d="M78.8841 19.9563H77.0094V37.4714H78.8841V19.9563Z" fill="white"/>
<path d="M97.0632 19.749C92.1358 19.749 88.137 23.7651 88.137 28.7139C88.137 33.6627 92.1358 37.6787 97.0632 37.6787C101.991 37.6787 105.989 33.6627 105.989 28.7139C105.981 23.7651 101.991 19.749 97.0632 19.749ZM97.0632 36.0032C93.0559 36.0032 89.8053 32.7385 89.8053 28.7139C89.8053 24.6892 93.0559 21.4245 97.0632 21.4245C101.071 21.4245 104.321 24.6892 104.321 28.7139C104.321 32.7385 101.071 36.0032 97.0632 36.0032Z" fill="white"/>
<path d="M128.649 19.9563L121.305 28.1266L113.961 19.9563H113.505V37.4714H115.251V25.6479C115.251 25.5183 115.242 25.3801 115.242 25.2419V24.1451L116.292 25.2765C116.3 25.2851 116.3 25.2851 116.309 25.2938L117.513 26.5893L117.71 26.8052L121.314 30.683L126.318 25.2938C126.809 24.6978 127.522 23.6701 127.522 23.6701C127.522 23.6701 127.368 24.9051 127.368 25.6565V37.4801H129.113V19.9563H128.649Z" fill="white"/>
<path d="M69.6483 37.6787L64.9874 30.303L62.7343 33.8613L61.7626 35.4073L63.1987 37.6787H69.6483Z" fill="white"/>
<path d="M63.1987 19.749L61.7626 22.0205L62.7343 23.5578L63.7835 25.2247L64.9874 27.1247L69.6483 19.749H63.1987Z" fill="white"/>
<path d="M54.6939 14.7139H46.5674L55.4162 28.7139L46.5674 42.7139H54.6939L63.5341 28.7139L54.6939 14.7139Z" fill="white"/>
</svg>
