<svg width="314" height="141" viewBox="0 0 314 141" fill="none" xmlns="http://www.w3.org/2000/svg">
<g clip-path="url(#clip0_4730_28222)">
<rect y="0.206543" width="314" height="140" rx="4" fill="#1B0229"/>
<rect x="198.947" y="30.3764" width="83.075" height="80.0437" rx="5.44057" fill="#130124" stroke="url(#paint0_linear_4730_28222)" stroke-width="0.715156"/>
<path d="M238.583 64.3366C239.633 63.2652 241.335 63.2652 242.385 64.3366L246.701 68.7404C247.751 69.8117 247.751 71.5487 246.701 72.62L242.385 77.0238C241.335 78.0951 239.633 78.0951 238.583 77.0238L234.268 72.62C233.218 71.5487 233.218 69.8117 234.268 68.7404L238.583 64.3366Z" fill="#A950FF"/>
<path d="M258.461 64.3015C259.492 63.2493 261.164 63.2493 262.195 64.3015L266.579 68.7747C267.61 69.8268 267.61 71.5327 266.579 72.5849L262.195 77.0581C261.164 78.1103 259.492 78.1103 258.461 77.0581L254.077 72.5849C253.046 71.5327 253.046 69.8268 254.077 68.7747L258.461 64.3015Z" fill="#A950FF"/>
<path d="M238.617 44.0535C239.648 43.0014 241.32 43.0014 242.351 44.0535L246.735 48.5267C247.766 49.5789 247.766 51.2848 246.735 52.337L242.351 56.8102C241.32 57.8624 239.648 57.8624 238.617 56.8102L234.233 52.337C233.202 51.2848 233.202 49.5789 234.233 48.5267L238.617 44.0535Z" fill="#E9C1FF"/>
<path d="M236.78 58.6163C237.83 59.6876 237.83 61.4246 236.78 62.4959L232.464 66.8997C231.415 67.9711 229.712 67.9711 228.662 66.8997L224.347 62.4959C223.297 61.4246 223.297 59.6876 224.347 58.6163L228.662 54.2125C229.712 53.1412 231.415 53.1412 232.464 54.2125L236.78 58.6163Z" fill="#CD88FF"/>
<path d="M226.892 68.7747C227.923 69.8268 227.923 71.5327 226.892 72.5849L222.508 77.0581C221.477 78.1103 219.805 78.1103 218.774 77.0581L214.391 72.5849C213.359 71.5327 213.359 69.8268 214.391 68.7747L218.774 64.3015C219.805 63.2493 221.477 63.2493 222.508 64.3014L226.892 68.7747Z" fill="#A950FF"/>
<path d="M256.623 58.6163C257.673 59.6876 257.673 61.4246 256.623 62.4959L252.307 66.8997C251.257 67.9711 249.555 67.9711 248.505 66.8997L244.189 62.4959C243.14 61.4246 243.14 59.6876 244.189 58.6163L248.505 54.2125C249.555 53.1412 251.257 53.1412 252.307 54.2125L256.623 58.6163Z" fill="#CD88FF"/>
<path d="M244.732 87.5384C247.077 89.9318 247.077 93.8124 244.732 96.2058C242.386 98.5993 238.583 98.5993 236.238 96.2058C233.892 93.8124 233.892 89.9318 236.238 87.5384C238.583 85.145 242.386 85.145 244.732 87.5384Z" fill="#F62E76"/>
<rect x="32.3576" y="30.3764" width="83.075" height="80.0437" rx="5.44057" fill="#130124" stroke="url(#paint1_linear_4730_28222)" stroke-width="0.715156"/>
<circle cx="121.286" cy="83.4552" r="2.12806" transform="rotate(90 121.286 83.4552)" fill="#8405FF"/>
<circle cx="129.231" cy="83.4552" r="2.12806" transform="rotate(90 129.231 83.4552)" fill="#C182FF"/>
<circle cx="137.173" cy="83.4552" r="2.12806" transform="rotate(90 137.173 83.4552)" fill="#A705CF"/>
<circle cx="145.118" cy="83.4552" r="2.12806" transform="rotate(90 145.118 83.4552)" fill="#C182FF"/>
<circle cx="153.059" cy="83.4552" r="2.12806" transform="rotate(90 153.059 83.4552)" fill="#8405FF"/>
<circle cx="161.005" cy="83.4552" r="2.12806" transform="rotate(90 161.005 83.4552)" fill="#C182FF"/>
<circle cx="168.946" cy="83.4552" r="2.12806" transform="rotate(90 168.946 83.4552)" fill="#A705CF"/>
<circle cx="176.888" cy="83.4552" r="2.12806" transform="rotate(90 176.888 83.4552)" fill="#8405FF"/>
<circle cx="184.833" cy="83.4552" r="2.12806" transform="rotate(90 184.833 83.4552)" fill="#A705CF"/>
<circle cx="192.774" cy="83.4552" r="2.12806" transform="rotate(90 192.774 83.4552)" fill="#8405FF"/>
<g filter="url(#filter0_d_4730_28222)">
<circle cx="121.286" cy="67.8009" r="2.12806" transform="rotate(90 121.286 67.8009)" fill="#C182FF"/>
<circle cx="129.231" cy="67.8009" r="2.12806" transform="rotate(90 129.231 67.8009)" fill="#8405FF"/>
<circle cx="137.173" cy="67.8009" r="2.12806" transform="rotate(90 137.173 67.8009)" fill="#C182FF"/>
<circle cx="145.118" cy="67.8009" r="2.12806" transform="rotate(90 145.118 67.8009)" fill="#8405FF"/>
<circle cx="153.059" cy="67.8009" r="2.12806" transform="rotate(90 153.059 67.8009)" fill="#8405FF"/>
<circle cx="161.005" cy="67.8009" r="2.12806" transform="rotate(90 161.005 67.8009)" fill="#8405FF"/>
<circle cx="168.946" cy="67.8009" r="2.12806" transform="rotate(90 168.946 67.8009)" fill="#8405FF"/>
<circle cx="176.891" cy="67.8007" r="2.12806" transform="rotate(90 176.891 67.8007)" fill="#8405FF"/>
<circle cx="184.833" cy="67.8009" r="2.12806" transform="rotate(90 184.833 67.8009)" fill="#C182FF"/>
<circle cx="192.774" cy="67.8009" r="2.12806" transform="rotate(90 192.774 67.8009)" fill="#8405FF"/>
</g>
<circle cx="121.286" cy="51.2863" r="2.12806" transform="rotate(90 121.286 51.2863)" fill="#A705CF"/>
<circle cx="129.231" cy="51.2863" r="2.12806" transform="rotate(90 129.231 51.2863)" fill="#C182FF"/>
<circle cx="137.173" cy="51.2863" r="2.12806" transform="rotate(90 137.173 51.2863)" fill="#C182FF"/>
<circle cx="145.118" cy="51.2863" r="2.12806" transform="rotate(90 145.118 51.2863)" fill="#A705CF"/>
<circle cx="153.059" cy="51.2863" r="2.12806" transform="rotate(90 153.059 51.2863)" fill="#C182FF"/>
<circle cx="161.005" cy="51.2863" r="2.12806" transform="rotate(90 161.005 51.2863)" fill="#8405FF"/>
<circle cx="168.946" cy="51.2863" r="2.12806" transform="rotate(90 168.946 51.2863)" fill="#8405FF"/>
<circle cx="176.888" cy="51.2863" r="2.12806" transform="rotate(90 176.888 51.2863)" fill="#8405FF"/>
<circle cx="184.833" cy="51.2863" r="2.12806" transform="rotate(90 184.833 51.2863)" fill="#8405FF"/>
<circle cx="192.774" cy="51.2863" r="2.12806" transform="rotate(90 192.774 51.2863)" fill="#A705CF"/>
<g style="mix-blend-mode:exclusion" filter="url(#filter1_f_4730_28222)">
<ellipse cx="104.147" cy="36.5125" rx="39.8966" ry="39.8967" transform="rotate(-90 104.147 36.5125)" fill="#5A3C9A" fill-opacity="0.5"/>
</g>
<g filter="url(#filter2_d_4730_28222)">
<path fill-rule="evenodd" clip-rule="evenodd" d="M74.3965 41.2637L97.6675 54.5992V82.0547L67.2711 100.097V91.2719L51.125 82.0547V54.5992L74.3965 41.2637ZM74.5646 48.3424L91.472 58.3959V78.2743L74.5646 88.3277L57.3521 78.2743V58.3959L74.5646 48.3424Z" fill="white"/>
</g>
</g>
<rect x="0.5" y="0.706543" width="313" height="139" rx="3.5" stroke="#E5E4F7"/>
<defs>
<filter id="filter0_d_4730_28222" x="111.473" y="57.9858" width="91.1172" height="19.6301" filterUnits="userSpaceOnUse" color-interpolation-filters="sRGB">
<feFlood flood-opacity="0" result="BackgroundImageFix"/>
<feColorMatrix in="SourceAlpha" type="matrix" values="0 0 0 0 0 0 0 0 0 0 0 0 0 0 0 0 0 0 127 0" result="hardAlpha"/>
<feOffset/>
<feGaussianBlur stdDeviation="2"/>
<feComposite in2="hardAlpha" operator="out"/>
<feColorMatrix type="matrix" values="0 0 0 0 0.493785 0 0 0 0 0 0 0 0 0 0.970833 0 0 0 1 0"/>
<feBlend mode="lighten" in2="BackgroundImageFix" result="effect1_dropShadow_4730_28222"/>
<feBlend mode="normal" in="SourceGraphic" in2="effect1_dropShadow_4730_28222" result="shape"/>
</filter>
<filter id="filter1_f_4730_28222" x="-27.0109" y="-94.645" width="262.315" height="262.315" filterUnits="userSpaceOnUse" color-interpolation-filters="sRGB">
<feFlood flood-opacity="0" result="BackgroundImageFix"/>
<feBlend mode="normal" in="SourceGraphic" in2="BackgroundImageFix" result="shape"/>
<feGaussianBlur stdDeviation="45.6305" result="effect1_foregroundBlur_4730_28222"/>
</filter>
<filter id="filter2_d_4730_28222" x="43.7316" y="41.2637" width="53.9364" height="66.2266" filterUnits="userSpaceOnUse" color-interpolation-filters="sRGB">
<feFlood flood-opacity="0" result="BackgroundImageFix"/>
<feColorMatrix in="SourceAlpha" type="matrix" values="0 0 0 0 0 0 0 0 0 0 0 0 0 0 0 0 0 0 127 0" result="hardAlpha"/>
<feOffset dx="-3.6967" dy="3.6967"/>
<feGaussianBlur stdDeviation="1.84835"/>
<feColorMatrix type="matrix" values="0 0 0 0 1 0 0 0 0 1 0 0 0 0 1 0 0 0 0.1 0"/>
<feBlend mode="normal" in2="BackgroundImageFix" result="effect1_dropShadow_4730_28222"/>
<feBlend mode="normal" in="SourceGraphic" in2="effect1_dropShadow_4730_28222" result="shape"/>
</filter>
<linearGradient id="paint0_linear_4730_28222" x1="211.214" y1="45.0112" x2="278.409" y2="114.613" gradientUnits="userSpaceOnUse">
<stop offset="0.015625" stop-color="#B010FB"/>
<stop offset="0.130208" stop-color="#DE97FF"/>
<stop offset="0.234375" stop-color="#A227DB"/>
<stop offset="0.505208" stop-color="#A227DB" stop-opacity="0"/>
<stop offset="0.765625" stop-color="#A610EC" stop-opacity="0.84"/>
</linearGradient>
<linearGradient id="paint1_linear_4730_28222" x1="44.6242" y1="45.0112" x2="111.819" y2="114.613" gradientUnits="userSpaceOnUse">
<stop offset="0.015625" stop-color="#B010FB"/>
<stop offset="0.130208" stop-color="#DE97FF"/>
<stop offset="0.234375" stop-color="#A227DB"/>
<stop offset="0.505208" stop-color="#A227DB" stop-opacity="0"/>
<stop offset="0.765625" stop-color="#A610EC" stop-opacity="0.84"/>
</linearGradient>
<clipPath id="clip0_4730_28222">
<rect y="0.206543" width="314" height="140" rx="4" fill="white"/>
</clipPath>
</defs>
</svg>
