<svg width="314" height="141" viewBox="0 0 314 141" fill="none" xmlns="http://www.w3.org/2000/svg">
<g clip-path="url(#clip0_4735_31787)">
<rect y="0.206543" width="314" height="140" rx="4" fill="#1B0229"/>
<rect x="198.947" y="30.3764" width="83.075" height="80.0437" rx="5.44057" fill="#130124" stroke="url(#paint0_linear_4735_31787)" stroke-width="0.715156"/>
<path d="M238.583 64.3366C239.633 63.2652 241.335 63.2652 242.385 64.3366L246.701 68.7404C247.751 69.8117 247.751 71.5487 246.701 72.62L242.385 77.0238C241.335 78.0951 239.633 78.0951 238.583 77.0238L234.268 72.62C233.218 71.5487 233.218 69.8117 234.268 68.7404L238.583 64.3366Z" fill="#A950FF"/>
<path d="M258.461 64.3015C259.492 63.2493 261.164 63.2493 262.195 64.3015L266.579 68.7747C267.61 69.8268 267.61 71.5327 266.579 72.5849L262.195 77.0581C261.164 78.1103 259.492 78.1103 258.461 77.0581L254.077 72.5849C253.046 71.5327 253.046 69.8268 254.077 68.7747L258.461 64.3015Z" fill="#A950FF"/>
<path d="M238.617 44.0535C239.648 43.0014 241.32 43.0014 242.351 44.0535L246.735 48.5267C247.766 49.5789 247.766 51.2848 246.735 52.337L242.351 56.8102C241.32 57.8624 239.648 57.8624 238.617 56.8102L234.233 52.337C233.202 51.2848 233.202 49.5789 234.233 48.5267L238.617 44.0535Z" fill="#E9C1FF"/>
<path d="M236.78 58.6163C237.83 59.6876 237.83 61.4246 236.78 62.4959L232.464 66.8997C231.415 67.9711 229.712 67.9711 228.662 66.8997L224.347 62.4959C223.297 61.4246 223.297 59.6876 224.347 58.6163L228.662 54.2125C229.712 53.1412 231.415 53.1412 232.464 54.2125L236.78 58.6163Z" fill="#CD88FF"/>
<path d="M226.892 68.7747C227.923 69.8268 227.923 71.5327 226.892 72.5849L222.508 77.0581C221.477 78.1103 219.805 78.1103 218.774 77.0581L214.391 72.5849C213.359 71.5327 213.359 69.8268 214.391 68.7747L218.774 64.3015C219.805 63.2493 221.477 63.2493 222.508 64.3014L226.892 68.7747Z" fill="#A950FF"/>
<path d="M256.623 58.6163C257.673 59.6876 257.673 61.4246 256.623 62.4959L252.307 66.8997C251.257 67.9711 249.555 67.9711 248.505 66.8997L244.189 62.4959C243.14 61.4246 243.14 59.6876 244.189 58.6163L248.505 54.2125C249.555 53.1412 251.257 53.1412 252.307 54.2125L256.623 58.6163Z" fill="#CD88FF"/>
<path d="M244.732 87.5384C247.077 89.9318 247.077 93.8124 244.732 96.2058C242.386 98.5993 238.583 98.5993 236.238 96.2058C233.892 93.8124 233.892 89.9318 236.238 87.5384C238.583 85.145 242.386 85.145 244.732 87.5384Z" fill="#F62E76"/>
<rect x="32.3576" y="30.3764" width="83.075" height="80.0437" rx="5.44057" fill="#130124" stroke="url(#paint1_linear_4735_31787)" stroke-width="0.715156"/>
<path d="M48.9375 87.3763H98.5507L73.8757 63.0103L48.9375 87.3763Z" fill="#7BB51C"/>
<path d="M47.9865 86.1783L51.8519 82.4547L50.5644 81.1508L48.1366 83.4905L43.8598 79.1604L42.4219 80.5457L47.9865 86.1783Z" fill="white"/>
<path d="M52.6994 81.6064L56.66 77.7898L55.5724 76.6895L53.0575 79.1121L51.8499 77.8895L53.8651 75.9479L52.727 74.7968L50.7118 76.7373L49.6771 75.6901L52.1092 73.3464L51.0223 72.2466L47.0742 76.0505L52.6994 81.6064Z" fill="white"/>
<path d="M65.6622 63.5134C64.0649 61.8965 61.294 62.0899 59.9596 63.3758C58.6249 64.6617 57.9437 67.2257 59.8285 69.1337C61.8989 71.2291 64.3621 70.468 65.6969 69.1828C67.6648 67.2869 66.9643 64.8315 65.6622 63.5134ZM64.4882 68.0755C63.6047 68.9268 62.5246 68.6958 61.2904 67.4464C60.2533 66.3967 60.3156 65.3421 61.0698 64.6154C61.5884 64.1157 62.6417 63.6686 63.8948 64.9372C65.3244 66.3844 65.3717 67.2243 64.4882 68.0755Z" fill="white"/>
<path d="M70.118 64.8562L71.5791 63.4479L69.3809 61.2231L68.0651 55.8171L66.3902 57.4312L67.2615 60.4981L64.3176 59.4276L62.7383 60.949L67.7572 62.5405L70.118 64.8562Z" fill="white"/>
<path d="M62.3256 72.3708C62.3256 72.3708 58.7693 71.1726 58.6003 71.2016C58.5455 71.2104 59.3642 69.0591 57.5248 68.1057C57.5248 68.1057 56.16 67.3761 54.7941 68.6015L51.8828 71.4346L57.4951 77.016L58.9799 75.5855L55.943 72.5122L60.8522 73.7903L62.3256 72.3708ZM56.8175 71.6044C55.9924 72.398 55.881 72.4606 55.881 72.4606C55.881 72.4606 54.5874 71.1514 54.5416 71.105C54.4958 71.0587 55.4666 70.2368 55.6196 70.0893C55.6844 70.0267 56.2889 69.6374 56.7892 70.1434C56.7892 70.1434 57.6423 70.8094 56.8175 71.6044Z" fill="white"/>
<path d="M69.6658 56.8823L68.3672 55.5893L74.0364 50.0366L75.8919 51.8838L73.8495 55.8532L78.0135 53.9961L79.7988 55.774L74.1295 61.3267L72.7611 59.9644L75.7537 57.0337L71.6599 58.8677L70.8136 58.025L72.7164 53.9862L69.6658 56.8823Z" fill="white"/>
<path d="M79.509 66.6825L75.5781 62.7693L81.2477 57.2166L85.1897 61.1414L84.0444 62.2632L81.5747 59.8046L80.6511 60.7089L82.599 62.6483L81.4064 63.8161L79.4703 61.8883L78.2312 63.1017L80.6776 65.5373L79.509 66.6825Z" fill="white"/>
<path d="M92.4704 68.3909L93.9312 69.8458L89.6411 74.0472L92.041 76.4358L90.6615 77.7878L86.8008 73.9439L92.4704 68.3909Z" fill="white"/>
<path d="M91.6836 78.8037L97.3532 73.251L98.7793 74.6705L93.1097 80.2229L91.6836 78.8037Z" fill="white"/>
<path d="M95.6931 82.7981L94.3594 81.4701L100.029 75.9177L101.966 77.8444L100.311 83.6097L104.064 79.9338L105.363 81.2268L99.6934 86.7792L98.0002 85.0943L99.4581 79.0419L95.6931 82.7981Z" fill="white"/>
<path d="M89.91 65.8401L86.4666 62.4114L80.7852 67.9528L82.246 69.407L85.3435 66.3734L84.2286 71.3811L85.7242 72.8703C85.7242 72.8703 86.9031 69.2882 86.9393 69.1389C86.9393 69.1389 88.2168 69.8339 89.6185 68.6438C89.6185 68.6438 90.9629 67.3502 89.91 65.8401ZM87.8074 67.464C87.8074 67.464 87.0836 67.9439 86.4458 67.3091L85.4495 66.2701C85.4495 66.2701 86.6532 65.091 86.805 64.9421C86.805 64.9421 87.7326 65.8659 87.8486 65.9812C87.9643 66.0965 88.6956 66.6397 87.8074 67.464Z" fill="white"/>
<circle cx="121.286" cy="83.4552" r="2.12806" transform="rotate(90 121.286 83.4552)" fill="#8405FF"/>
<circle cx="129.231" cy="83.4552" r="2.12806" transform="rotate(90 129.231 83.4552)" fill="#C182FF"/>
<circle cx="137.173" cy="83.4552" r="2.12806" transform="rotate(90 137.173 83.4552)" fill="#A705CF"/>
<circle cx="145.118" cy="83.4552" r="2.12806" transform="rotate(90 145.118 83.4552)" fill="#C182FF"/>
<circle cx="153.059" cy="83.4552" r="2.12806" transform="rotate(90 153.059 83.4552)" fill="#8405FF"/>
<circle cx="161.005" cy="83.4552" r="2.12806" transform="rotate(90 161.005 83.4552)" fill="#C182FF"/>
<circle cx="168.946" cy="83.4552" r="2.12806" transform="rotate(90 168.946 83.4552)" fill="#A705CF"/>
<circle cx="176.888" cy="83.4552" r="2.12806" transform="rotate(90 176.888 83.4552)" fill="#8405FF"/>
<circle cx="184.833" cy="83.4552" r="2.12806" transform="rotate(90 184.833 83.4552)" fill="#A705CF"/>
<circle cx="192.774" cy="83.4552" r="2.12806" transform="rotate(90 192.774 83.4552)" fill="#8405FF"/>
<g filter="url(#filter0_d_4735_31787)">
<circle cx="121.286" cy="67.8009" r="2.12806" transform="rotate(90 121.286 67.8009)" fill="#C182FF"/>
<circle cx="129.231" cy="67.8009" r="2.12806" transform="rotate(90 129.231 67.8009)" fill="#8405FF"/>
<circle cx="137.173" cy="67.8009" r="2.12806" transform="rotate(90 137.173 67.8009)" fill="#C182FF"/>
<circle cx="145.118" cy="67.8009" r="2.12806" transform="rotate(90 145.118 67.8009)" fill="#8405FF"/>
<circle cx="153.059" cy="67.8009" r="2.12806" transform="rotate(90 153.059 67.8009)" fill="#8405FF"/>
<circle cx="161.005" cy="67.8009" r="2.12806" transform="rotate(90 161.005 67.8009)" fill="#8405FF"/>
<circle cx="168.946" cy="67.8009" r="2.12806" transform="rotate(90 168.946 67.8009)" fill="#8405FF"/>
<circle cx="176.891" cy="67.8007" r="2.12806" transform="rotate(90 176.891 67.8007)" fill="#8405FF"/>
<circle cx="184.833" cy="67.8009" r="2.12806" transform="rotate(90 184.833 67.8009)" fill="#C182FF"/>
<circle cx="192.774" cy="67.8009" r="2.12806" transform="rotate(90 192.774 67.8009)" fill="#8405FF"/>
</g>
<circle cx="121.286" cy="51.2863" r="2.12806" transform="rotate(90 121.286 51.2863)" fill="#A705CF"/>
<circle cx="129.231" cy="51.2863" r="2.12806" transform="rotate(90 129.231 51.2863)" fill="#C182FF"/>
<circle cx="137.173" cy="51.2863" r="2.12806" transform="rotate(90 137.173 51.2863)" fill="#C182FF"/>
<circle cx="145.118" cy="51.2863" r="2.12806" transform="rotate(90 145.118 51.2863)" fill="#A705CF"/>
<circle cx="153.059" cy="51.2863" r="2.12806" transform="rotate(90 153.059 51.2863)" fill="#C182FF"/>
<circle cx="161.005" cy="51.2863" r="2.12806" transform="rotate(90 161.005 51.2863)" fill="#8405FF"/>
<circle cx="168.946" cy="51.2863" r="2.12806" transform="rotate(90 168.946 51.2863)" fill="#8405FF"/>
<circle cx="176.888" cy="51.2863" r="2.12806" transform="rotate(90 176.888 51.2863)" fill="#8405FF"/>
<circle cx="184.833" cy="51.2863" r="2.12806" transform="rotate(90 184.833 51.2863)" fill="#8405FF"/>
<circle cx="192.774" cy="51.2863" r="2.12806" transform="rotate(90 192.774 51.2863)" fill="#A705CF"/>
<g style="mix-blend-mode:exclusion" filter="url(#filter1_f_4735_31787)">
<ellipse cx="104.147" cy="36.5125" rx="39.8966" ry="39.8967" transform="rotate(-90 104.147 36.5125)" fill="#5A3C9A" fill-opacity="0.5"/>
</g>
</g>
<rect x="0.5" y="0.706543" width="313" height="139" rx="3.5" stroke="#E5E4F7"/>
<defs>
<filter id="filter0_d_4735_31787" x="111.473" y="57.9858" width="91.1172" height="19.6301" filterUnits="userSpaceOnUse" color-interpolation-filters="sRGB">
<feFlood flood-opacity="0" result="BackgroundImageFix"/>
<feColorMatrix in="SourceAlpha" type="matrix" values="0 0 0 0 0 0 0 0 0 0 0 0 0 0 0 0 0 0 127 0" result="hardAlpha"/>
<feOffset/>
<feGaussianBlur stdDeviation="2"/>
<feComposite in2="hardAlpha" operator="out"/>
<feColorMatrix type="matrix" values="0 0 0 0 0.493785 0 0 0 0 0 0 0 0 0 0.970833 0 0 0 1 0"/>
<feBlend mode="lighten" in2="BackgroundImageFix" result="effect1_dropShadow_4735_31787"/>
<feBlend mode="normal" in="SourceGraphic" in2="effect1_dropShadow_4735_31787" result="shape"/>
</filter>
<filter id="filter1_f_4735_31787" x="-27.0109" y="-94.645" width="262.315" height="262.315" filterUnits="userSpaceOnUse" color-interpolation-filters="sRGB">
<feFlood flood-opacity="0" result="BackgroundImageFix"/>
<feBlend mode="normal" in="SourceGraphic" in2="BackgroundImageFix" result="shape"/>
<feGaussianBlur stdDeviation="45.6305" result="effect1_foregroundBlur_4735_31787"/>
</filter>
<linearGradient id="paint0_linear_4735_31787" x1="211.214" y1="45.0112" x2="278.409" y2="114.613" gradientUnits="userSpaceOnUse">
<stop offset="0.015625" stop-color="#B010FB"/>
<stop offset="0.130208" stop-color="#DE97FF"/>
<stop offset="0.234375" stop-color="#A227DB"/>
<stop offset="0.505208" stop-color="#A227DB" stop-opacity="0"/>
<stop offset="0.765625" stop-color="#A610EC" stop-opacity="0.84"/>
</linearGradient>
<linearGradient id="paint1_linear_4735_31787" x1="44.6242" y1="45.0112" x2="111.819" y2="114.613" gradientUnits="userSpaceOnUse">
<stop offset="0.015625" stop-color="#B010FB"/>
<stop offset="0.130208" stop-color="#DE97FF"/>
<stop offset="0.234375" stop-color="#A227DB"/>
<stop offset="0.505208" stop-color="#A227DB" stop-opacity="0"/>
<stop offset="0.765625" stop-color="#A610EC" stop-opacity="0.84"/>
</linearGradient>
<clipPath id="clip0_4735_31787">
<rect y="0.206543" width="314" height="140" rx="4" fill="white"/>
</clipPath>
</defs>
</svg>
