<svg width="367" height="237" viewBox="0 0 367 237" fill="none" xmlns="http://www.w3.org/2000/svg">
<rect x="0.619661" y="1.0845" width="365.446" height="234.707" rx="7.45456" fill="#161617" stroke="#252526" stroke-width="1.09088"/>
<g clip-path="url(#clip0_86_84)">
<g filter="url(#filter0_b_86_84)">
<circle cx="51.9157" cy="51.9157" r="51.9157" transform="matrix(1.12678 -0.277104 0.479958 0.650549 43.3523 82.1484)" fill="black" fill-opacity="0.08"/>
<circle cx="51.9157" cy="51.9157" r="51.4576" transform="matrix(1.12678 -0.277104 0.479958 0.650549 43.3523 82.1484)" stroke="url(#paint0_linear_86_84)" stroke-width="0.916239" stroke-linejoin="round" stroke-dasharray="3.9 4.77"/>
</g>
<g filter="url(#filter1_d_86_84)">
<path d="M171.951 90.3168C176.898 97.2197 176.898 105.026 171.951 111.929L171.433 111.805C169.074 115.096 165.578 118.179 160.943 120.855C156.308 123.531 150.967 125.55 145.267 126.911L145.482 127.211C133.526 130.067 120.005 130.067 108.049 127.211L108.263 126.911C102.563 125.55 97.2223 123.531 92.5874 120.855C87.9524 118.179 84.4563 115.096 82.0978 111.805L81.5794 111.929C76.6326 105.026 76.6326 97.2197 81.5794 90.3168L82.0978 90.4406C84.4563 87.1496 87.9524 84.066 92.5874 81.39C97.2224 78.714 102.563 76.6955 108.263 75.3339L108.049 75.0346C120.005 72.1785 133.526 72.1785 145.482 75.0345L145.267 75.3339C150.967 76.6955 156.308 78.714 160.943 81.39C165.578 84.066 169.074 87.1496 171.433 90.4406L171.951 90.3168Z" stroke="#5F00E8" stroke-width="0.916239" stroke-linejoin="round" stroke-dasharray="21.99 21.99" shape-rendering="crispEdges"/>
</g>
<g filter="url(#filter2_d_86_84)">
<path d="M106.149 109.752C100.702 106.607 97.6419 102.342 97.6419 97.8945C97.6419 93.4473 100.702 89.1822 106.149 86.0375L126.688 74.1805L147.227 86.0375C152.674 89.1822 155.734 93.4473 155.734 97.8945C155.734 102.342 152.674 106.607 147.227 109.752C141.78 112.896 134.392 114.663 126.688 114.663C118.985 114.663 111.597 112.896 106.149 109.752H106.149Z" fill="#0A41CF"/>
</g>
<path d="M167.158 77.1946L126.968 100.16L86.2961 77.1946L126.968 53.272L167.158 77.1946Z" fill="#6400CA" stroke="url(#paint1_linear_86_84)" stroke-width="0.528661"/>
<path d="M126.77 100.351V125.697L86.0305 101.682V77.0508L126.77 100.351Z" fill="#4A0292"/>
<path d="M126.689 100.018V125.407L167.767 101.702V77.0977L126.689 100.018Z" fill="#3C0077"/>
<path d="M128.814 74.4931C129.809 74.4931 130.615 74.9589 130.615 75.5334L130.615 77.8951C130.615 78.4696 129.809 78.9354 128.814 78.9354L124.723 78.9354C123.728 78.9354 122.921 78.4696 122.921 77.8951L122.921 75.5334C122.921 74.9589 123.728 74.4931 124.723 74.4931L128.814 74.4931Z" fill="#A950FF"/>
<path d="M138.25 79.9225C139.228 79.9225 140.02 80.3799 140.02 80.9442L140.02 83.3431C140.02 83.9073 139.228 84.3648 138.25 84.3648L134.095 84.3648C133.118 84.3648 132.326 83.9073 132.326 83.3431L132.326 80.9442C132.326 80.3799 133.118 79.9225 134.095 79.9225L138.25 79.9225Z" fill="#A950FF"/>
<path d="M138.25 69.0637C139.227 69.0637 140.02 69.5211 140.02 70.0854L140.02 72.4843C140.02 73.0485 139.227 73.506 138.25 73.506L134.095 73.506C133.118 73.506 132.325 73.0485 132.325 72.4843L132.325 70.0854C132.325 69.5211 133.118 69.0637 134.095 69.0637L138.25 69.0637Z" fill="#E9C1FF"/>
<path d="M130.616 72.4659C130.616 73.0405 129.809 73.5062 128.814 73.5062L124.723 73.5062C123.728 73.5062 122.922 73.0405 122.922 72.4659L122.922 70.1043C122.922 69.5297 123.728 69.064 124.723 69.064L128.814 69.064C129.809 69.064 130.616 69.5297 130.616 70.1043L130.616 72.4659Z" fill="#CD88FF"/>
<path d="M121.212 72.4843C121.212 73.0485 120.42 73.506 119.442 73.506L115.287 73.506C114.31 73.506 113.518 73.0485 113.518 72.4843L113.518 70.0854C113.518 69.5211 114.31 69.0637 115.287 69.0637L119.442 69.0637C120.42 69.0637 121.212 69.5211 121.212 70.0854L121.212 72.4843Z" fill="#A950FF"/>
<path d="M140.02 77.8952C140.02 78.4697 139.213 78.9355 138.218 78.9355L134.127 78.9355C133.132 78.9355 132.325 78.4697 132.325 77.8952L132.325 75.5335C132.325 74.959 133.132 74.4932 134.127 74.4932L138.218 74.4932C139.213 74.4932 140.02 74.959 140.02 75.5335L140.02 77.8952Z" fill="#CD88FF"/>
<path d="M120.952 82.3968C120.952 83.6803 119.149 84.7209 116.926 84.7209C114.703 84.7209 112.901 83.6803 112.901 82.3968C112.901 81.1132 114.703 80.0727 116.926 80.0727C119.149 80.0727 120.952 81.1132 120.952 82.3968Z" fill="#F62E76"/>
<g opacity="0.7" filter="url(#filter3_f_86_84)">
<rect width="134.28" height="96.2834" transform="matrix(-0.999351 -0.0360302 -0.0360302 0.999351 279.012 84.0547)" fill="url(#paint2_linear_86_84)"/>
</g>
<path d="M168.93 127.906L186.683 137.651L170.852 146.745L185.348 154.811" stroke="url(#paint3_linear_86_84)" stroke-width="0.825814" stroke-linejoin="round"/>
<path d="M177.978 177.212C177.851 177.287 177.773 177.424 177.774 177.572C177.776 177.72 177.856 177.855 177.984 177.928L219.036 201.109C219.163 201.18 219.318 201.18 219.444 201.108L260.01 177.927C260.138 177.854 260.217 177.719 260.218 177.572C260.22 177.425 260.143 177.289 260.017 177.214L219.451 153.067C219.321 152.99 219.16 152.99 219.03 153.066L177.978 177.212Z" stroke="#9F9DFF" stroke-width="0.825814" stroke-linejoin="round"/>
<g filter="url(#filter4_df_86_84)">
<path d="M189.216 183.577C181.388 179.058 176.991 172.929 176.991 166.539C176.991 160.149 181.388 154.02 189.216 149.501L218.728 132.464L248.241 149.501C256.069 154.02 260.466 160.149 260.466 166.539C260.466 172.929 256.069 179.058 248.241 183.577C240.414 188.096 229.798 190.634 218.728 190.634C207.659 190.634 197.043 188.096 189.216 183.577H189.216Z" fill="url(#paint4_radial_86_84)"/>
</g>
<path d="M218.809 168.995L218.809 194.341L178.069 170.326L178.069 145.695L218.809 168.995Z" fill="#0F0C16"/>
<path d="M218.728 168.663L218.728 194.051L259.805 170.346L259.805 145.742L218.728 168.663Z" fill="black"/>
<path d="M259.198 145.839L219.008 168.805L178.336 145.839L219.008 121.917L259.198 145.839Z" fill="#211B2C" stroke="url(#paint5_linear_86_84)" stroke-width="0.528661"/>
<g clip-path="url(#clip1_86_84)">
<path d="M201.19 147.787C204.066 149.448 208.73 149.448 211.607 147.787C214.484 146.126 214.484 143.434 211.607 141.773C208.73 140.112 204.066 140.112 201.19 141.773C198.313 143.434 198.313 146.126 201.19 147.787Z" fill="#D5635C"/>
<path d="M200.791 148.017C199.682 147.377 198.927 146.561 198.621 145.673C198.315 144.785 198.472 143.864 199.072 143.027C199.673 142.191 200.689 141.476 201.993 140.973C203.297 140.469 204.831 140.201 206.399 140.201C207.968 140.201 209.501 140.469 210.805 140.973C212.109 141.476 213.126 142.191 213.726 143.027C214.326 143.864 214.483 144.785 214.177 145.673C213.871 146.561 213.116 147.377 212.007 148.017C210.519 148.875 208.502 149.356 206.399 149.356C204.297 149.356 202.28 148.875 200.791 148.017ZM211.208 142.003C210.257 141.454 209.045 141.08 207.726 140.929C206.407 140.777 205.039 140.855 203.797 141.152C202.554 141.449 201.492 141.953 200.745 142.598C199.998 143.244 199.599 144.003 199.599 144.78C199.599 145.556 199.998 146.315 200.745 146.961C201.492 147.607 202.554 148.11 203.797 148.407C205.039 148.704 206.407 148.782 207.726 148.63C209.045 148.479 210.257 148.105 211.208 147.556C212.481 146.819 213.196 145.821 213.196 144.78C213.195 143.739 212.481 142.74 211.208 142.003Z" fill="#CB3C33"/>
<path d="M219.744 144.968C222.621 146.629 227.285 146.629 230.162 144.968C233.038 143.307 233.038 140.615 230.162 138.954C227.285 137.293 222.621 137.293 219.744 138.954C216.868 140.615 216.868 143.307 219.744 144.968Z" fill="#60AD51"/>
<path d="M219.345 145.199C218.236 144.558 217.481 143.743 217.175 142.854C216.869 141.966 217.026 141.046 217.626 140.209C218.226 139.372 219.243 138.657 220.547 138.154C221.851 137.651 223.384 137.382 224.953 137.382C226.522 137.382 228.055 137.651 229.359 138.154C230.663 138.657 231.68 139.372 232.28 140.209C232.88 141.046 233.037 141.966 232.731 142.854C232.425 143.743 231.67 144.558 230.561 145.199C229.072 146.056 227.056 146.538 224.953 146.538C222.85 146.538 220.834 146.056 219.345 145.199ZM229.76 139.186C228.809 138.637 227.597 138.263 226.278 138.111C224.959 137.96 223.591 138.038 222.349 138.335C221.106 138.632 220.044 139.135 219.297 139.781C218.55 140.427 218.151 141.186 218.151 141.962C218.151 142.739 218.55 143.498 219.297 144.143C220.044 144.789 221.106 145.292 222.349 145.59C223.591 145.887 224.959 145.964 226.278 145.813C227.597 145.661 228.809 145.288 229.76 144.738C231.033 144.002 231.749 143.003 231.749 141.962C231.749 140.921 231.033 139.923 229.76 139.186Z" fill="#389826"/>
<path d="M214.862 155.681C217.739 157.342 222.403 157.342 225.279 155.681C228.156 154.02 228.156 151.327 225.279 149.667C222.403 148.006 217.739 148.006 214.862 149.667C211.985 151.327 211.985 154.02 214.862 155.681Z" fill="#AA79C1"/>
<path d="M214.464 155.911C213.355 155.271 212.599 154.455 212.293 153.566C211.987 152.678 212.144 151.758 212.745 150.921C213.345 150.084 214.362 149.369 215.666 148.866C216.97 148.363 218.504 148.095 220.072 148.095C221.641 148.095 223.174 148.363 224.478 148.867C225.782 149.37 226.799 150.085 227.399 150.922C227.999 151.758 228.156 152.679 227.849 153.567C227.543 154.455 226.788 155.271 225.678 155.911C224.19 156.769 222.173 157.25 220.071 157.25C217.968 157.25 215.952 156.768 214.464 155.911ZM224.88 149.897C223.929 149.348 222.717 148.974 221.398 148.822C220.079 148.671 218.712 148.749 217.469 149.046C216.226 149.343 215.164 149.846 214.417 150.492C213.67 151.138 213.271 151.897 213.271 152.673C213.271 153.45 213.67 154.209 214.417 154.855C215.164 155.5 216.226 156.004 217.469 156.301C218.712 156.598 220.079 156.676 221.398 156.524C222.717 156.373 223.929 155.999 224.88 155.45C226.153 154.713 226.868 153.714 226.868 152.673C226.868 151.633 226.153 150.634 224.88 149.897Z" fill="#9558B2"/>
</g>
</g>
<defs>
<filter id="filter0_b_86_84" x="44.9996" y="46.6485" width="163.536" height="109.773" filterUnits="userSpaceOnUse" color-interpolation-filters="sRGB">
<feFlood flood-opacity="0" result="BackgroundImageFix"/>
<feGaussianBlur in="BackgroundImageFix" stdDeviation="9.08396"/>
<feComposite in2="SourceAlpha" operator="in" result="effect1_backgroundBlur_86_84"/>
<feBlend mode="normal" in="SourceGraphic" in2="effect1_backgroundBlur_86_84" result="shape"/>
</filter>
<filter id="filter1_d_86_84" x="75.1207" y="72.8906" width="103.289" height="61.9584" filterUnits="userSpaceOnUse" color-interpolation-filters="sRGB">
<feFlood flood-opacity="0" result="BackgroundImageFix"/>
<feColorMatrix in="SourceAlpha" type="matrix" values="0 0 0 0 0 0 0 0 0 0 0 0 0 0 0 0 0 0 127 0" result="hardAlpha"/>
<feOffset dy="2.74872"/>
<feGaussianBlur stdDeviation="1.37436"/>
<feComposite in2="hardAlpha" operator="out"/>
<feColorMatrix type="matrix" values="0 0 0 0 0.432266 0 0 0 0 0.00354165 0 0 0 0 0.846458 0 0 0 1 0"/>
<feBlend mode="screen" in2="BackgroundImageFix" result="effect1_dropShadow_86_84"/>
<feBlend mode="normal" in="SourceGraphic" in2="effect1_dropShadow_86_84" result="shape"/>
</filter>
<filter id="filter2_d_86_84" x="57.8335" y="37.6822" width="137.709" height="120.101" filterUnits="userSpaceOnUse" color-interpolation-filters="sRGB">
<feFlood flood-opacity="0" result="BackgroundImageFix"/>
<feColorMatrix in="SourceAlpha" type="matrix" values="0 0 0 0 0 0 0 0 0 0 0 0 0 0 0 0 0 0 127 0" result="hardAlpha"/>
<feOffset dy="3.31092"/>
<feGaussianBlur stdDeviation="19.9042"/>
<feComposite in2="hardAlpha" operator="out"/>
<feColorMatrix type="matrix" values="0 0 0 0 0.506336 0 0 0 0 0.118457 0 0 0 0 1 0 0 0 1 0"/>
<feBlend mode="soft-light" in2="BackgroundImageFix" result="effect1_dropShadow_86_84"/>
<feBlend mode="normal" in="SourceGraphic" in2="effect1_dropShadow_86_84" result="shape"/>
</filter>
<filter id="filter3_f_86_84" x="90.3455" y="28.21" width="239.672" height="203.072" filterUnits="userSpaceOnUse" color-interpolation-filters="sRGB">
<feFlood flood-opacity="0" result="BackgroundImageFix"/>
<feBlend mode="normal" in="SourceGraphic" in2="BackgroundImageFix" result="shape"/>
<feGaussianBlur stdDeviation="25.5024" result="effect1_foregroundBlur_86_84"/>
</filter>
<filter id="filter4_df_86_84" x="137.183" y="95.9674" width="163.092" height="137.785" filterUnits="userSpaceOnUse" color-interpolation-filters="sRGB">
<feFlood flood-opacity="0" result="BackgroundImageFix"/>
<feColorMatrix in="SourceAlpha" type="matrix" values="0 0 0 0 0 0 0 0 0 0 0 0 0 0 0 0 0 0 127 0" result="hardAlpha"/>
<feOffset dy="3.31092"/>
<feGaussianBlur stdDeviation="19.9042"/>
<feComposite in2="hardAlpha" operator="out"/>
<feColorMatrix type="matrix" values="0 0 0 0 0.835294 0 0 0 0 0.388235 0 0 0 0 0.360784 0 0 0 1 0"/>
<feBlend mode="normal" in2="BackgroundImageFix" result="effect1_dropShadow_86_84"/>
<feBlend mode="normal" in="SourceGraphic" in2="effect1_dropShadow_86_84" result="shape"/>
<feGaussianBlur stdDeviation="8.63159" result="effect2_foregroundBlur_86_84"/>
</filter>
<linearGradient id="paint0_linear_86_84" x1="15.6438" y1="19.2757" x2="102.089" y2="105.578" gradientUnits="userSpaceOnUse">
<stop offset="0.015625" stop-color="#B010FB"/>
<stop offset="0.130208" stop-color="#DE97FF"/>
<stop offset="0.234375" stop-color="#A227DB"/>
<stop offset="0.505208" stop-color="#A227DB" stop-opacity="0"/>
<stop offset="0.765625" stop-color="#A610EC" stop-opacity="0.84"/>
</linearGradient>
<linearGradient id="paint1_linear_86_84" x1="98.1087" y1="61.7829" x2="132.459" y2="120.924" gradientUnits="userSpaceOnUse">
<stop offset="0.015625" stop-color="#B010FB"/>
<stop offset="0.130208" stop-color="#DE97FF"/>
<stop offset="0.234375" stop-color="#A227DB"/>
<stop offset="0.505208" stop-color="#A227DB" stop-opacity="0"/>
<stop offset="0.765625" stop-color="#A610EC" stop-opacity="0.84"/>
</linearGradient>
<linearGradient id="paint2_linear_86_84" x1="67.1399" y1="0" x2="67.1399" y2="96.2834" gradientUnits="userSpaceOnUse">
<stop stop-color="#6218FF" stop-opacity="0"/>
<stop offset="1" stop-color="#6117FF"/>
</linearGradient>
<linearGradient id="paint3_linear_86_84" x1="175.992" y1="147.431" x2="189.561" y2="154.308" gradientUnits="userSpaceOnUse">
<stop stop-color="#800CC0"/>
<stop offset="1" stop-color="#D4CCCC"/>
</linearGradient>
<radialGradient id="paint4_radial_86_84" cx="0" cy="0" r="1" gradientUnits="userSpaceOnUse" gradientTransform="translate(204.789 200.615) rotate(-10.6426) scale(34.5077 29.8833)">
<stop stop-color="#60AD51"/>
<stop offset="1" stop-color="#AA79C1"/>
</radialGradient>
<linearGradient id="paint5_linear_86_84" x1="220.228" y1="121.609" x2="217.486" y2="167.476" gradientUnits="userSpaceOnUse">
<stop stop-color="#60AD51"/>
<stop offset="0.195" stop-color="#AA79C1"/>
<stop offset="0.385" stop-color="#D5635C"/>
<stop offset="0.585" stop-color="#60AD51"/>
<stop offset="0.76" stop-color="#AA79C1"/>
<stop offset="0.99" stop-color="#D5635C"/>
</linearGradient>
<clipPath id="clip0_86_84">
<rect width="316.23" height="235.799" fill="white" transform="translate(25.2278 0.539062)"/>
</clipPath>
<clipPath id="clip1_86_84">
<rect width="37.1664" height="37.1664" fill="white" transform="matrix(0.866025 0.5 -0.866025 0.5 218.728 126.773)"/>
</clipPath>
</defs>
</svg>
