<svg width="594" height="421" viewBox="0 0 594 421" fill="none" xmlns="http://www.w3.org/2000/svg">
<rect x="0.253906" y="0.59375" width="568" height="420" rx="16" fill="#10051F"/>
<g clip-path="url(#clip0_5002_6620)">
<path d="M36.7722 62.2617H35.0332V63.9986H36.7722V62.2617Z" fill="#21262D"/>
<path d="M71.5516 62.2617H69.8125V63.9986H71.5516V62.2617Z" fill="#21262D"/>
<path d="M106.333 62.2617H104.594V63.9986H106.333V62.2617Z" fill="#21262D"/>
<path d="M141.112 62.2617H139.373V63.9986H141.112V62.2617Z" fill="#21262D"/>
<path d="M175.893 62.2617H174.154V63.9986H175.893V62.2617Z" fill="#21262D"/>
<path d="M210.673 62.2617H208.934V63.9986H210.673V62.2617Z" fill="#21262D"/>
<path d="M245.452 62.2617H243.713V63.9986H245.452V62.2617Z" fill="#21262D"/>
<path d="M280.233 62.2617H278.494V63.9986H280.233V62.2617Z" fill="#21262D"/>
<path d="M315.013 62.2617H313.273V63.9986H315.013V62.2617Z" fill="#21262D"/>
<path d="M349.793 62.2617H348.055V63.9986H349.793V62.2617Z" fill="#21262D"/>
<path d="M384.573 62.2617H382.834V63.9986H384.573V62.2617Z" fill="#21262D"/>
<path d="M419.352 62.2617H417.613V63.9986H419.352V62.2617Z" fill="#21262D"/>
<path d="M454.134 62.2617H452.395V63.9986H454.134V62.2617Z" fill="#21262D"/>
<path d="M488.915 62.2617H487.176V63.9986H488.915V62.2617Z" fill="#21262D"/>
<path d="M523.692 62.2617H521.953V63.9986H523.692V62.2617Z" fill="#21262D"/>
<path d="M36.7722 96.999H35.0332V98.7359H36.7722V96.999Z" fill="#21262D"/>
<path d="M71.5516 96.999H69.8125V98.7359H71.5516V96.999Z" fill="#21262D"/>
<path d="M106.333 96.999H104.594V98.7359H106.333V96.999Z" fill="#21262D"/>
<path d="M175.893 96.999H174.154V98.7359H175.893V96.999Z" fill="#21262D"/>
<path d="M210.673 96.999H208.934V98.7359H210.673V96.999Z" fill="#21262D"/>
<path d="M245.452 96.999H243.713V98.7359H245.452V96.999Z" fill="#21262D"/>
<path d="M280.233 96.999H278.494V98.7359H280.233V96.999Z" fill="#21262D"/>
<path d="M315.013 96.999H313.273V98.7359H315.013V96.999Z" fill="#21262D"/>
<path d="M349.793 96.999H348.055V98.7359H349.793V96.999Z" fill="#21262D"/>
<path d="M384.573 96.999H382.834V98.7359H384.573V96.999Z" fill="#21262D"/>
<path d="M419.352 96.999H417.613V98.7359H419.352V96.999Z" fill="#21262D"/>
<path d="M454.134 96.999H452.395V98.7359H454.134V96.999Z" fill="#21262D"/>
<path d="M488.915 96.999H487.176V98.7359H488.915V96.999Z" fill="#21262D"/>
<path d="M523.692 96.999H521.953V98.7359H523.692V96.999Z" fill="#21262D"/>
<path d="M36.7722 131.736H35.0332V133.473H36.7722V131.736Z" fill="#21262D"/>
<path d="M71.5516 131.736H69.8125V133.473H71.5516V131.736Z" fill="#21262D"/>
<path d="M106.333 131.736H104.594V133.473H106.333V131.736Z" fill="#21262D"/>
<path d="M141.112 131.736H139.373V133.473H141.112V131.736Z" fill="#21262D"/>
<path d="M175.893 131.736H174.154V133.473H175.893V131.736Z" fill="#21262D"/>
<path d="M210.673 131.736H208.934V133.473H210.673V131.736Z" fill="#21262D"/>
<path d="M245.452 131.736H243.713V133.473H245.452V131.736Z" fill="#21262D"/>
<path d="M280.233 131.736H278.494V133.473H280.233V131.736Z" fill="#21262D"/>
<path d="M315.013 131.736H313.273V133.473H315.013V131.736Z" fill="#21262D"/>
<path d="M349.793 131.736H348.055V133.473H349.793V131.736Z" fill="#21262D"/>
<path d="M384.573 131.736H382.834V133.473H384.573V131.736Z" fill="#21262D"/>
<path d="M419.352 131.736H417.613V133.473H419.352V131.736Z" fill="#21262D"/>
<path d="M454.134 131.736H452.395V133.473H454.134V131.736Z" fill="#21262D"/>
<path d="M488.915 131.736H487.176V133.473H488.915V131.736Z" fill="#21262D"/>
<path d="M523.692 131.736H521.953V133.473H523.692V131.736Z" fill="#21262D"/>
<path d="M36.7722 166.474H35.0332V168.211H36.7722V166.474Z" fill="#21262D"/>
<path d="M71.5516 166.474H69.8125V168.211H71.5516V166.474Z" fill="#21262D"/>
<path d="M106.333 166.474H104.594V168.211H106.333V166.474Z" fill="#21262D"/>
<path d="M141.112 166.474H139.373V168.211H141.112V166.474Z" fill="#21262D"/>
<path d="M175.893 166.474H174.154V168.211H175.893V166.474Z" fill="#21262D"/>
<path d="M210.673 166.474H208.934V168.211H210.673V166.474Z" fill="#21262D"/>
<path d="M245.452 166.474H243.713V168.211H245.452V166.474Z" fill="#21262D"/>
<path d="M280.233 166.474H278.494V168.211H280.233V166.474Z" fill="#21262D"/>
<path d="M315.013 166.474H313.273V168.211H315.013V166.474Z" fill="#21262D"/>
<path d="M349.793 166.474H348.055V168.211H349.793V166.474Z" fill="#21262D"/>
<path d="M384.573 166.474H382.834V168.211H384.573V166.474Z" fill="#21262D"/>
<path d="M419.352 166.474H417.613V168.211H419.352V166.474Z" fill="#21262D"/>
<path d="M454.134 166.474H452.395V168.211H454.134V166.474Z" fill="#21262D"/>
<path d="M488.915 166.474H487.176V168.211H488.915V166.474Z" fill="#21262D"/>
<path d="M523.692 166.474H521.953V168.211H523.692V166.474Z" fill="#21262D"/>
<path d="M36.7722 201.211H35.0332V202.947H36.7722V201.211Z" fill="#21262D"/>
<path d="M71.5516 201.211H69.8125V202.947H71.5516V201.211Z" fill="#21262D"/>
<path d="M106.333 201.211H104.594V202.947H106.333V201.211Z" fill="#21262D"/>
<path d="M141.112 201.211H139.373V202.947H141.112V201.211Z" fill="#21262D"/>
<path d="M175.893 201.211H174.154V202.947H175.893V201.211Z" fill="#21262D"/>
<path d="M210.673 201.211H208.934V202.947H210.673V201.211Z" fill="#21262D"/>
<path d="M245.452 201.211H243.713V202.947H245.452V201.211Z" fill="#21262D"/>
<path d="M280.233 201.211H278.494V202.947H280.233V201.211Z" fill="#21262D"/>
<path d="M315.013 201.211H313.273V202.947H315.013V201.211Z" fill="#21262D"/>
<path d="M349.793 201.211H348.055V202.947H349.793V201.211Z" fill="#21262D"/>
<path d="M384.573 201.211H382.834V202.947H384.573V201.211Z" fill="#21262D"/>
<path d="M419.352 201.211H417.613V202.947H419.352V201.211Z" fill="#21262D"/>
<path d="M454.134 201.211H452.395V202.947H454.134V201.211Z" fill="#21262D"/>
<path d="M488.915 201.211H487.176V202.947H488.915V201.211Z" fill="#21262D"/>
<path d="M523.692 201.211H521.953V202.947H523.692V201.211Z" fill="#21262D"/>
<path d="M36.7722 235.948H35.0332V237.685H36.7722V235.948Z" fill="#21262D"/>
<path d="M71.5516 235.948H69.8125V237.685H71.5516V235.948Z" fill="#21262D"/>
<path d="M106.333 235.948H104.594V237.685H106.333V235.948Z" fill="#21262D"/>
<path d="M141.112 235.948H139.373V237.685H141.112V235.948Z" fill="#21262D"/>
<path d="M175.893 235.948H174.154V237.685H175.893V235.948Z" fill="#21262D"/>
<path d="M210.673 235.948H208.934V237.685H210.673V235.948Z" fill="#21262D"/>
<path d="M245.452 235.948H243.713V237.685H245.452V235.948Z" fill="#21262D"/>
<path d="M280.233 235.948H278.494V237.685H280.233V235.948Z" fill="#21262D"/>
<path d="M315.013 235.948H313.273V237.685H315.013V235.948Z" fill="#21262D"/>
<path d="M349.793 235.948H348.055V237.685H349.793V235.948Z" fill="#21262D"/>
<path d="M384.573 235.948H382.834V237.685H384.573V235.948Z" fill="#21262D"/>
<path d="M419.352 235.948H417.613V237.685H419.352V235.948Z" fill="#21262D"/>
<path d="M454.134 235.948H452.395V237.685H454.134V235.948Z" fill="#21262D"/>
<path d="M488.915 235.948H487.176V237.685H488.915V235.948Z" fill="#21262D"/>
<path d="M523.692 235.948H521.953V237.685H523.692V235.948Z" fill="#21262D"/>
<path d="M36.7722 270.686H35.0332V272.422H36.7722V270.686Z" fill="#21262D"/>
<path d="M71.5516 270.686H69.8125V272.422H71.5516V270.686Z" fill="#21262D"/>
<path d="M106.333 270.686H104.594V272.422H106.333V270.686Z" fill="#21262D"/>
<path d="M141.112 270.686H139.373V272.422H141.112V270.686Z" fill="#21262D"/>
<path d="M175.893 270.686H174.154V272.422H175.893V270.686Z" fill="#21262D"/>
<path d="M210.673 270.686H208.934V272.422H210.673V270.686Z" fill="#21262D"/>
<path d="M245.452 270.686H243.713V272.422H245.452V270.686Z" fill="#21262D"/>
<path d="M280.233 270.686H278.494V272.422H280.233V270.686Z" fill="#21262D"/>
<path d="M315.013 270.686H313.273V272.422H315.013V270.686Z" fill="#21262D"/>
<path d="M349.793 270.686H348.055V272.422H349.793V270.686Z" fill="#21262D"/>
<path d="M384.573 270.686H382.834V272.422H384.573V270.686Z" fill="#21262D"/>
<path d="M419.352 270.686H417.613V272.422H419.352V270.686Z" fill="#21262D"/>
<path d="M454.134 270.686H452.395V272.422H454.134V270.686Z" fill="#21262D"/>
<path d="M488.915 270.686H487.176V272.422H488.915V270.686Z" fill="#21262D"/>
<path d="M523.692 270.686H521.953V272.422H523.692V270.686Z" fill="#21262D"/>
<path d="M36.7722 305.423H35.0332V307.16H36.7722V305.423Z" fill="#21262D"/>
<path d="M71.5516 305.423H69.8125V307.16H71.5516V305.423Z" fill="#21262D"/>
<path d="M106.333 305.423H104.594V307.16H106.333V305.423Z" fill="#21262D"/>
<path d="M141.112 305.423H139.373V307.16H141.112V305.423Z" fill="#21262D"/>
<path d="M175.893 305.423H174.154V307.16H175.893V305.423Z" fill="#21262D"/>
<path d="M210.673 305.423H208.934V307.16H210.673V305.423Z" fill="#21262D"/>
<path d="M245.452 305.423H243.713V307.16H245.452V305.423Z" fill="#21262D"/>
<path d="M280.233 305.423H278.494V307.16H280.233V305.423Z" fill="#21262D"/>
<path d="M315.013 305.423H313.273V307.16H315.013V305.423Z" fill="#21262D"/>
<path d="M349.793 305.423H348.055V307.16H349.793V305.423Z" fill="#21262D"/>
<path d="M384.573 305.423H382.834V307.16H384.573V305.423Z" fill="#21262D"/>
<path d="M419.352 305.423H417.613V307.16H419.352V305.423Z" fill="#21262D"/>
<path d="M454.134 305.423H452.395V307.16H454.134V305.423Z" fill="#21262D"/>
<path d="M488.915 305.423H487.176V307.16H488.915V305.423Z" fill="#21262D"/>
<path d="M523.692 305.423H521.953V307.16H523.692V305.423Z" fill="#21262D"/>
<path d="M36.7722 340.16H35.0332V341.897H36.7722V340.16Z" fill="#21262D"/>
<path d="M71.5516 340.16H69.8125V341.897H71.5516V340.16Z" fill="#21262D"/>
<path d="M106.333 340.16H104.594V341.897H106.333V340.16Z" fill="#21262D"/>
<path d="M141.112 340.16H139.373V341.897H141.112V340.16Z" fill="#21262D"/>
<path d="M175.893 340.16H174.154V341.897H175.893V340.16Z" fill="#21262D"/>
<path d="M210.673 340.16H208.934V341.897H210.673V340.16Z" fill="#21262D"/>
<path d="M245.452 340.16H243.713V341.897H245.452V340.16Z" fill="#21262D"/>
<path d="M280.233 340.16H278.494V341.897H280.233V340.16Z" fill="#21262D"/>
<path d="M315.013 340.16H313.273V341.897H315.013V340.16Z" fill="#21262D"/>
<path d="M349.793 340.16H348.055V341.897H349.793V340.16Z" fill="#21262D"/>
<path d="M384.573 340.16H382.834V341.897H384.573V340.16Z" fill="#21262D"/>
<path d="M419.352 340.16H417.613V341.897H419.352V340.16Z" fill="#21262D"/>
<path d="M454.134 340.16H452.395V341.897H454.134V340.16Z" fill="#21262D"/>
<path d="M488.915 340.16H487.176V341.897H488.915V340.16Z" fill="#21262D"/>
<path d="M523.692 340.16H521.953V341.897H523.692V340.16Z" fill="#21262D"/>
<g opacity="0.4">
<path d="M36.7722 96.999H35.0332V98.7359H36.7722V96.999Z" fill="url(#paint0_linear_5002_6620)"/>
<path d="M106.333 96.999H104.594V98.7359H106.333V96.999Z" fill="url(#paint1_linear_5002_6620)"/>
<path d="M210.673 96.999H208.934V98.7359H210.673V96.999Z" fill="url(#paint2_linear_5002_6620)"/>
<path d="M245.452 96.999H243.713V98.7359H245.452V96.999Z" fill="url(#paint3_linear_5002_6620)"/>
<path d="M280.233 96.999H278.494V98.7359H280.233V96.999Z" fill="url(#paint4_linear_5002_6620)"/>
<path d="M315.013 96.999H313.273V98.7359H315.013V96.999Z" fill="url(#paint5_linear_5002_6620)"/>
<path d="M384.573 96.999H382.834V98.7359H384.573V96.999Z" fill="url(#paint6_linear_5002_6620)"/>
<path d="M419.352 96.999H417.613V98.7359H419.352V96.999Z" fill="url(#paint7_linear_5002_6620)"/>
<path d="M454.134 96.999H452.395V98.7359H454.134V96.999Z" fill="url(#paint8_linear_5002_6620)"/>
<path d="M71.5516 166.474H69.8125V168.211H71.5516V166.474Z" fill="url(#paint9_linear_5002_6620)"/>
<path d="M71.5516 201.211H69.8125V202.948H71.5516V201.211Z" fill="url(#paint10_linear_5002_6620)"/>
<path d="M36.7722 235.948H35.0332V237.685H36.7722V235.948Z" fill="url(#paint11_linear_5002_6620)"/>
<path d="M71.5516 235.948H69.8125V237.685H71.5516V235.948Z" fill="url(#paint12_linear_5002_6620)"/>
<path d="M71.5516 270.686H69.8125V272.422H71.5516V270.686Z" fill="url(#paint13_linear_5002_6620)"/>
<path d="M71.5516 305.423H69.8125V307.16H71.5516V305.423Z" fill="url(#paint14_linear_5002_6620)"/>
<path d="M523.692 305.423H521.953V307.16H523.692V305.423Z" fill="url(#paint15_linear_5002_6620)"/>
<path d="M141.001 270.686H139.262V272.422H141.001V270.686Z" fill="url(#paint16_linear_5002_6620)"/>
<path d="M454.134 270.686H452.395V272.422H454.134V270.686Z" fill="url(#paint17_linear_5002_6620)"/>
<path d="M488.915 270.686H487.176V272.422H488.915V270.686Z" fill="url(#paint18_linear_5002_6620)"/>
</g>
</g>
<circle cx="286.053" cy="276.567" r="9.6416" stroke="#19092F" stroke-width="4.28736"/>
<circle cx="286.051" cy="276.567" r="19.7433" stroke="#19092F" stroke-width="4.28736"/>
<circle cx="286.051" cy="276.566" r="30.6868" stroke="#19092F" stroke-width="4.28736"/>
<circle cx="286.051" cy="276.567" r="40.7884" stroke="#19092F" stroke-width="4.28736"/>
<circle cx="286.051" cy="276.567" r="51.7319" stroke="#19092F" stroke-width="4.28736"/>
<circle cx="286.051" cy="276.566" r="62.6754" stroke="#19092F" stroke-width="4.28736"/>
<circle cx="286.052" cy="276.566" r="74.4607" stroke="#19092F" stroke-width="4.28736"/>
<circle cx="286.052" cy="276.566" r="84.5623" stroke="#19092F" stroke-width="4.28736"/>
<circle cx="191.432" cy="220.669" r="3.69962" fill="#230A45"/>
<circle cx="191.432" cy="241.81" r="3.69962" fill="#230A45"/>
<circle cx="191.432" cy="262.951" r="3.69962" fill="#230A45"/>
<circle cx="170.291" cy="284.091" r="3.69962" fill="#230A45"/>
<circle cx="254.856" cy="305.232" r="3.69962" fill="#230A45"/>
<circle cx="212.573" cy="326.372" r="3.69962" fill="#230A45"/>
<circle cx="170.291" cy="326.372" r="3.69962" fill="#230A45"/>
<circle cx="297.135" cy="241.81" r="3.69962" fill="#230A45"/>
<circle cx="297.135" cy="262.951" r="3.69962" fill="#230A45"/>
<circle cx="275.995" cy="284.091" r="3.69962" fill="#230A45"/>
<circle cx="360.557" cy="305.232" r="3.69962" fill="#230A45"/>
<circle cx="318.276" cy="326.372" r="3.69962" fill="#230A45"/>
<circle cx="233.713" cy="220.669" r="3.69962" fill="#230A45"/>
<circle cx="233.713" cy="241.81" r="3.69962" fill="#230A45"/>
<circle cx="233.713" cy="262.951" r="3.69962" fill="#230A45"/>
<circle cx="212.573" cy="284.091" r="3.69962" fill="#230A45"/>
<circle cx="297.135" cy="305.232" r="3.69962" fill="#230A45"/>
<circle cx="254.856" cy="326.372" r="3.69962" fill="#230A45"/>
<circle cx="339.416" cy="241.81" r="3.69962" fill="#230A45"/>
<circle cx="339.416" cy="262.951" r="3.69962" fill="#230A45"/>
<circle cx="318.276" cy="284.091" r="3.69962" fill="#230A45"/>
<circle cx="339.416" cy="284.091" r="3.69962" fill="#230A45"/>
<circle cx="360.557" cy="326.372" r="3.69962" fill="#230A45"/>
<circle cx="212.573" cy="220.669" r="3.69962" fill="#230A45"/>
<circle cx="212.573" cy="241.81" r="3.69962" fill="#230A45"/>
<circle cx="212.573" cy="262.951" r="3.69962" fill="#230A45"/>
<circle cx="191.432" cy="284.091" r="3.69962" fill="#230A45"/>
<circle cx="275.995" cy="305.232" r="3.69962" fill="#230A45"/>
<circle cx="233.713" cy="326.372" r="3.69962" fill="#230A45"/>
<circle cx="191.432" cy="326.372" r="3.69962" fill="#230A45"/>
<circle cx="318.276" cy="241.81" r="3.69962" fill="#230A45"/>
<circle cx="318.276" cy="262.951" r="3.69962" fill="#230A45"/>
<circle cx="297.135" cy="284.091" r="3.69962" fill="#230A45"/>
<circle cx="381.7" cy="305.232" r="3.69962" fill="#230A45"/>
<circle cx="339.416" cy="326.372" r="3.69962" fill="#230A45"/>
<circle cx="254.856" cy="220.669" r="3.69962" fill="#230A45"/>
<circle cx="254.856" cy="241.81" r="3.69962" fill="#230A45"/>
<circle cx="254.856" cy="262.951" r="3.69962" fill="#230A45"/>
<circle cx="233.713" cy="284.091" r="3.69962" fill="#230A45"/>
<circle cx="318.276" cy="305.232" r="3.69962" fill="#230A45"/>
<circle cx="275.995" cy="326.372" r="3.69962" fill="#230A45"/>
<circle cx="360.557" cy="241.81" r="3.69962" fill="#230A45"/>
<circle cx="275.995" cy="220.669" r="3.69962" fill="#230A45"/>
<circle cx="275.995" cy="241.81" r="3.69962" fill="#230A45"/>
<circle cx="275.995" cy="262.951" r="3.69962" fill="#230A45"/>
<circle cx="254.856" cy="284.091" r="3.69962" fill="#230A45"/>
<circle cx="339.416" cy="305.232" r="3.69962" fill="#230A45"/>
<circle cx="297.135" cy="326.372" r="3.69962" fill="#230A45"/>
<g filter="url(#filter0_d_5002_6620)">
<rect x="84.9727" y="73.1396" width="97.1376" height="91.4374" rx="9.12332" fill="#10051F"/>
<rect x="85.5353" y="73.7023" width="96.0123" height="90.3122" rx="8.56068" stroke="url(#paint19_linear_5002_6620)" stroke-width="1.12529"/>
</g>
<path d="M123.463 127.212L113.907 121.023V118.498L123.463 112.309V115.601L116.902 119.711V119.81L123.463 123.919V127.212ZM127.711 131.941L135.856 110.402H138.901L130.756 131.941H127.711ZM143.15 127.212V123.919L149.71 119.81V119.711L143.15 115.601V112.309L152.706 118.498V121.023L143.15 127.212Z" fill="white"/>
<g filter="url(#filter1_d_5002_6620)">
<rect x="398.625" y="72.7988" width="97.1376" height="91.4374" rx="9.12332" fill="#10051F"/>
<rect x="399.188" y="73.3615" width="96.0123" height="90.3122" rx="8.56068" stroke="url(#paint20_linear_5002_6620)" stroke-width="1.12529"/>
</g>
<path fill-rule="evenodd" clip-rule="evenodd" d="M447.177 92.4414C433.078 92.4414 421.68 103.776 421.68 117.799C421.68 129.008 428.983 138.496 439.114 141.855C440.381 142.107 440.845 141.309 440.845 140.638C440.845 140.05 440.803 138.035 440.803 135.935C433.71 137.447 432.233 132.912 432.233 132.912C431.093 129.974 429.404 129.218 429.404 129.218C427.083 127.665 429.574 127.665 429.574 127.665C432.149 127.833 433.5 130.268 433.5 130.268C435.779 134.13 439.452 133.039 440.929 132.367C441.14 130.729 441.816 129.596 442.534 128.966C436.877 128.378 430.925 126.195 430.925 116.455C430.925 113.684 431.937 111.417 433.542 109.654C433.289 109.025 432.402 106.421 433.795 102.937C433.795 102.937 435.948 102.265 440.802 105.54C442.881 104.985 445.024 104.702 447.177 104.7C449.33 104.7 451.525 104.994 453.551 105.54C458.406 102.265 460.559 102.937 460.559 102.937C461.952 106.421 461.065 109.025 460.812 109.654C462.459 111.417 463.429 113.684 463.429 116.455C463.429 126.195 457.478 128.336 451.778 128.966C452.707 129.764 453.509 131.275 453.509 133.668C453.509 137.069 453.467 139.798 453.467 140.637C453.467 141.309 453.932 142.107 455.198 141.855C465.329 138.496 472.632 129.008 472.632 117.799C472.674 103.776 461.234 92.4414 447.177 92.4414Z" fill="white"/>
<path d="M231.357 230.962C231.357 224.251 236.686 218.827 243.24 218.827H328.862C335.417 218.827 340.746 224.251 340.746 230.962V318.331C340.746 325.042 335.417 330.466 328.862 330.466H243.24C236.686 330.466 231.357 325.042 231.357 318.331V230.962Z" fill="#10051F" stroke="url(#paint21_linear_5002_6620)" stroke-width="0.889548"/>
<path d="M283.343 265.61C284.839 264.084 287.264 264.084 288.759 265.61L294.907 271.883C296.402 273.409 296.402 275.883 294.907 277.409L288.759 283.683C287.264 285.209 284.839 285.209 283.343 283.683L277.195 277.409C275.7 275.883 275.7 273.409 277.195 271.883L283.343 265.61Z" fill="#A950FF"/>
<path d="M311.659 265.56C313.127 264.061 315.509 264.061 316.978 265.56L323.222 271.932C324.691 273.431 324.691 275.861 323.222 277.359L316.978 283.731C315.509 285.23 313.127 285.23 311.659 283.732L305.414 277.359C303.945 275.861 303.945 273.431 305.414 271.932L311.659 265.56Z" fill="#A950FF"/>
<path d="M283.392 236.717C284.86 235.218 287.242 235.218 288.711 236.717L294.955 243.089C296.424 244.588 296.424 247.018 294.955 248.517L288.711 254.889C287.242 256.387 284.86 256.387 283.392 254.889L277.147 248.517C275.678 247.018 275.678 244.588 277.147 243.089L283.392 236.717Z" fill="#E9C1FF"/>
<path d="M280.775 257.461C282.27 258.987 282.27 261.462 280.775 262.988L274.627 269.261C273.131 270.787 270.707 270.787 269.211 269.261L263.063 262.988C261.568 261.462 261.568 258.987 263.063 257.461L269.211 251.188C270.707 249.662 273.131 249.662 274.627 251.188L280.775 257.461Z" fill="#CD88FF"/>
<path d="M266.689 271.932C268.158 273.431 268.158 275.861 266.689 277.359L260.445 283.731C258.976 285.23 256.594 285.23 255.126 283.731L248.881 277.359C247.412 275.861 247.412 273.431 248.881 271.932L255.126 265.56C256.594 264.061 258.976 264.061 260.445 265.56L266.689 271.932Z" fill="#A950FF"/>
<path d="M309.041 257.461C310.536 258.987 310.536 261.462 309.041 262.988L302.893 269.261C301.397 270.787 298.972 270.787 297.477 269.261L291.329 262.988C289.834 261.462 289.834 258.987 291.329 257.461L297.477 251.188C298.972 249.662 301.397 249.662 302.893 251.188L309.041 257.461Z" fill="#CD88FF"/>
<path d="M292.101 298.661C295.443 302.07 295.443 307.598 292.101 311.007C288.76 314.417 283.343 314.417 280.002 311.007C276.66 307.598 276.66 302.07 280.002 298.661C283.343 295.251 288.76 295.251 292.101 298.661Z" fill="#F62E76"/>
<path d="M448.375 299.856H349.349" stroke="#8405FF" stroke-width="2.25058"/>
<path d="M456.252 291.979V169.323" stroke="#8405FF" stroke-width="2.25058"/>
<path d="M456.252 290.854V297.606C456.252 298.849 455.244 299.856 454.001 299.856H447.25" stroke="#8405FF" stroke-width="2.25058"/>
<path fill-rule="evenodd" clip-rule="evenodd" d="M456.252 152.859C451.28 152.859 447.249 156.889 447.249 161.861C447.249 166.833 451.28 170.863 456.252 170.863C461.223 170.863 465.254 166.833 465.254 161.861C465.254 156.889 461.223 152.859 456.252 152.859ZM456.252 155.109C452.523 155.109 449.5 158.132 449.5 161.861C449.5 165.59 452.523 168.613 456.252 168.613C459.98 168.613 463.003 165.59 463.003 161.861C463.003 158.132 459.98 155.109 456.252 155.109ZM451.75 161.861C451.75 159.375 453.766 157.36 456.252 157.36C458.738 157.36 460.753 159.375 460.753 161.861C460.753 164.347 458.738 166.362 456.252 166.362C453.766 166.362 451.75 164.347 451.75 161.861Z" fill="#8405FF"/>
<path fill-rule="evenodd" clip-rule="evenodd" d="M344.756 299.856L353.758 293.104V306.607L344.756 299.856Z" fill="#8405FF"/>
<path d="M133.254 168.858L133.254 218.339C133.254 249.001 158.111 273.858 188.774 273.858L230.254 273.858" stroke="#FD3C97" stroke-width="1.388" stroke-linecap="round" stroke-linejoin="round" stroke-dasharray="2.78 5.55"/>
<path d="M139.143 171.298L133.254 165.409L127.365 171.298" stroke="#FD3C97" stroke-width="2.08199" stroke-linecap="round" stroke-linejoin="round"/>
<circle cx="11.104" cy="11.104" r="11.104" transform="matrix(5.44576e-08 -1 -1 -7.63994e-08 241.357 284.962)" stroke="#FD3C97" stroke-width="1.388" stroke-linecap="round" stroke-linejoin="round"/>
<circle cx="5.55198" cy="5.55198" r="5.55198" transform="matrix(5.44576e-08 -1 -1 -7.63994e-08 235.807 279.41)" fill="#FD3C97"/>
<path d="M437.254 168.858L437.254 218.339C437.254 249.001 412.397 273.858 381.734 273.858L340.254 273.858" stroke="#FD3C97" stroke-width="1.388" stroke-linecap="round" stroke-linejoin="round" stroke-dasharray="2.78 5.55"/>
<path d="M431.365 171.298L437.254 165.409L443.143 171.298" stroke="#FD3C97" stroke-width="2.08199" stroke-linecap="round" stroke-linejoin="round"/>
<circle cx="340.254" cy="273.858" r="11.104" transform="rotate(-90 340.254 273.858)" stroke="#FD3C97" stroke-width="1.388" stroke-linecap="round" stroke-linejoin="round"/>
<circle cx="340.253" cy="273.858" r="5.55198" transform="rotate(-90 340.253 273.858)" fill="#FD3C97"/>
<circle cx="133.253" cy="205.779" r="15.9189" fill="#FD3C97"/>
<path d="M129.746 204.014L128.519 205.241L126.729 203.451C126.112 205.766 126.711 208.34 128.526 210.155C130.814 212.443 134.31 212.798 136.967 211.235L138.234 212.502C134.865 214.727 130.276 214.359 127.299 211.382C125.287 209.37 124.467 206.611 124.838 204.001L123.605 205.234L122.375 204.004L126.056 200.323L129.746 204.014Z" fill="#F4BAD6"/>
<path d="M137.119 206.481L138.346 205.254L140.135 207.044C140.753 204.729 140.153 202.154 138.339 200.34C136.051 198.052 132.555 197.697 129.897 199.26L128.63 197.992C132 195.767 136.589 196.136 139.566 199.113C141.577 201.124 142.398 203.883 142.027 206.493L143.26 205.26L144.49 206.491L140.809 210.171L137.119 206.481Z" fill="white"/>
<path d="M189.254 99.8584L394.254 99.8584" stroke="#8405FF" stroke-width="2"/>
<path fill-rule="evenodd" clip-rule="evenodd" d="M182.254 107.858C186.672 107.858 190.254 104.277 190.254 99.8584C190.254 95.4401 186.672 91.8584 182.254 91.8584C177.836 91.8584 174.254 95.4401 174.254 99.8584C174.254 104.277 177.836 107.858 182.254 107.858ZM182.254 105.858C185.568 105.858 188.254 103.172 188.254 99.8584C188.254 96.5447 185.568 93.8584 182.254 93.8584C178.94 93.8584 176.254 96.5447 176.254 99.8584C176.254 103.172 178.94 105.858 182.254 105.858ZM186.254 99.8584C186.254 102.068 184.463 103.858 182.254 103.858C180.045 103.858 178.254 102.068 178.254 99.8584C178.254 97.6493 180.045 95.8584 182.254 95.8584C184.463 95.8584 186.254 97.6493 186.254 99.8584Z" fill="#8405FF"/>
<path fill-rule="evenodd" clip-rule="evenodd" d="M398.254 99.8584L390.254 105.858V93.8584L398.254 99.8584Z" fill="#8405FF"/>
<path d="M392.254 117.858L186.254 117.858" stroke="#FD3C97" stroke-width="2" stroke-dasharray="4 4"/>
<path fill-rule="evenodd" clip-rule="evenodd" d="M399.254 125.858C394.836 125.858 391.254 122.277 391.254 117.858C391.254 113.44 394.836 109.858 399.254 109.858C403.672 109.858 407.254 113.44 407.254 117.858C407.254 122.277 403.672 125.858 399.254 125.858ZM399.254 123.858C395.94 123.858 393.254 121.172 393.254 117.858C393.254 114.545 395.94 111.858 399.254 111.858C402.568 111.858 405.254 114.545 405.254 117.858C405.254 121.172 402.568 123.858 399.254 123.858ZM395.254 117.858C395.254 120.068 397.045 121.858 399.254 121.858C401.463 121.858 403.254 120.068 403.254 117.858C403.254 115.649 401.463 113.858 399.254 113.858C397.045 113.858 395.254 115.649 395.254 117.858Z" fill="#FD3C97"/>
<path fill-rule="evenodd" clip-rule="evenodd" d="M182.254 117.858L190.254 123.858V111.858L182.254 117.858Z" fill="#FD3C97"/>
<defs>
<filter id="filter0_d_5002_6620" x="57.9657" y="73.1396" width="151.151" height="145.451" filterUnits="userSpaceOnUse" color-interpolation-filters="sRGB">
<feFlood flood-opacity="0" result="BackgroundImageFix"/>
<feColorMatrix in="SourceAlpha" type="matrix" values="0 0 0 0 0 0 0 0 0 0 0 0 0 0 0 0 0 0 127 0" result="hardAlpha"/>
<feOffset dy="27.007"/>
<feGaussianBlur stdDeviation="13.5035"/>
<feComposite in2="hardAlpha" operator="out"/>
<feColorMatrix type="matrix" values="0 0 0 0 0.352941 0 0 0 0 0.184314 0 0 0 0 0.835294 0 0 0 0.22 0"/>
<feBlend mode="normal" in2="BackgroundImageFix" result="effect1_dropShadow_5002_6620"/>
<feBlend mode="normal" in="SourceGraphic" in2="effect1_dropShadow_5002_6620" result="shape"/>
</filter>
<filter id="filter1_d_5002_6620" x="371.618" y="72.7988" width="151.151" height="145.451" filterUnits="userSpaceOnUse" color-interpolation-filters="sRGB">
<feFlood flood-opacity="0" result="BackgroundImageFix"/>
<feColorMatrix in="SourceAlpha" type="matrix" values="0 0 0 0 0 0 0 0 0 0 0 0 0 0 0 0 0 0 127 0" result="hardAlpha"/>
<feOffset dy="27.007"/>
<feGaussianBlur stdDeviation="13.5035"/>
<feComposite in2="hardAlpha" operator="out"/>
<feColorMatrix type="matrix" values="0 0 0 0 0.352941 0 0 0 0 0.184314 0 0 0 0 0.835294 0 0 0 0.22 0"/>
<feBlend mode="normal" in2="BackgroundImageFix" result="effect1_dropShadow_5002_6620"/>
<feBlend mode="normal" in="SourceGraphic" in2="effect1_dropShadow_5002_6620" result="shape"/>
</filter>
<linearGradient id="paint0_linear_5002_6620" x1="-43370.5" y1="-43878.3" x2="569221" y2="-10834" gradientUnits="userSpaceOnUse">
<stop stop-color="#56D364"/>
<stop offset="1" stop-color="#79C0FF"/>
</linearGradient>
<linearGradient id="paint1_linear_5002_6620" x1="-130112" y1="-43873.4" x2="482480" y2="-10829" gradientUnits="userSpaceOnUse">
<stop stop-color="#56D364"/>
<stop offset="1" stop-color="#79C0FF"/>
</linearGradient>
<linearGradient id="paint2_linear_5002_6620" x1="-260225" y1="-43873.4" x2="352367" y2="-10829" gradientUnits="userSpaceOnUse">
<stop stop-color="#56D364"/>
<stop offset="1" stop-color="#79C0FF"/>
</linearGradient>
<linearGradient id="paint3_linear_5002_6620" x1="-303598" y1="-43873.4" x2="308999" y2="-10828.5" gradientUnits="userSpaceOnUse">
<stop stop-color="#56D364"/>
<stop offset="1" stop-color="#79C0FF"/>
</linearGradient>
<linearGradient id="paint4_linear_5002_6620" x1="-346813" y1="-43878.3" x2="265511" y2="-10848.4" gradientUnits="userSpaceOnUse">
<stop stop-color="#56D364"/>
<stop offset="1" stop-color="#79C0FF"/>
</linearGradient>
<linearGradient id="paint5_linear_5002_6620" x1="-390340" y1="-43873.4" x2="222257" y2="-10828.5" gradientUnits="userSpaceOnUse">
<stop stop-color="#56D364"/>
<stop offset="1" stop-color="#79C0FF"/>
</linearGradient>
<linearGradient id="paint6_linear_5002_6620" x1="-477074" y1="-43873.4" x2="135513" y2="-10829.6" gradientUnits="userSpaceOnUse">
<stop stop-color="#56D364"/>
<stop offset="1" stop-color="#79C0FF"/>
</linearGradient>
<linearGradient id="paint7_linear_5002_6620" x1="-520220" y1="-43878.3" x2="92103.7" y2="-10848.4" gradientUnits="userSpaceOnUse">
<stop stop-color="#56D364"/>
<stop offset="1" stop-color="#79C0FF"/>
</linearGradient>
<linearGradient id="paint8_linear_5002_6620" x1="-563815" y1="-43873.4" x2="48771.7" y2="-10829.6" gradientUnits="userSpaceOnUse">
<stop stop-color="#56D364"/>
<stop offset="1" stop-color="#79C0FF"/>
</linearGradient>
<linearGradient id="paint9_linear_5002_6620" x1="-86741.4" y1="-84798.9" x2="525851" y2="-51754.5" gradientUnits="userSpaceOnUse">
<stop stop-color="#56D364"/>
<stop offset="1" stop-color="#79C0FF"/>
</linearGradient>
<linearGradient id="paint10_linear_5002_6620" x1="-86741.4" y1="-105259" x2="525851" y2="-72214.4" gradientUnits="userSpaceOnUse">
<stop stop-color="#56D364"/>
<stop offset="1" stop-color="#79C0FF"/>
</linearGradient>
<linearGradient id="paint11_linear_5002_6620" x1="-43365.6" y1="-125719" x2="569159" y2="-92678.8" gradientUnits="userSpaceOnUse">
<stop stop-color="#56D364"/>
<stop offset="1" stop-color="#79C0FF"/>
</linearGradient>
<linearGradient id="paint12_linear_5002_6620" x1="-86741.4" y1="-125719" x2="525851" y2="-92675.1" gradientUnits="userSpaceOnUse">
<stop stop-color="#56D364"/>
<stop offset="1" stop-color="#79C0FF"/>
</linearGradient>
<linearGradient id="paint13_linear_5002_6620" x1="-86741.4" y1="-146180" x2="525851" y2="-113136" gradientUnits="userSpaceOnUse">
<stop stop-color="#A950FF"/>
<stop offset="1" stop-color="#79C0FF"/>
</linearGradient>
<linearGradient id="paint14_linear_5002_6620" x1="-86741.4" y1="-166640" x2="525851" y2="-133596" gradientUnits="userSpaceOnUse">
<stop stop-color="#8200FF"/>
<stop offset="1" stop-color="#79C0FF"/>
</linearGradient>
<linearGradient id="paint15_linear_5002_6620" x1="-650566" y1="-166640" x2="-37968.5" y2="-133595" gradientUnits="userSpaceOnUse">
<stop stop-color="#8200FF"/>
<stop offset="1" stop-color="#79C0FF"/>
</linearGradient>
<linearGradient id="paint16_linear_5002_6620" x1="-173343" y1="-146180" x2="439249" y2="-113136" gradientUnits="userSpaceOnUse">
<stop stop-color="#8200FF"/>
<stop offset="1" stop-color="#CD88FF"/>
</linearGradient>
<linearGradient id="paint17_linear_5002_6620" x1="-563815" y1="-146180" x2="48771.9" y2="-113136" gradientUnits="userSpaceOnUse">
<stop stop-color="#A950FF"/>
<stop offset="1" stop-color="#D479FF"/>
</linearGradient>
<linearGradient id="paint18_linear_5002_6620" x1="-607178" y1="-146180" x2="5398.75" y2="-113137" gradientUnits="userSpaceOnUse">
<stop stop-color="#56D364"/>
<stop offset="1" stop-color="#79C0FF"/>
</linearGradient>
<linearGradient id="paint19_linear_5002_6620" x1="99.6079" y1="90.1144" x2="175.603" y2="170.714" gradientUnits="userSpaceOnUse">
<stop offset="0.015625" stop-color="#B010FB"/>
<stop offset="0.130208" stop-color="#DE97FF"/>
<stop offset="0.234375" stop-color="#A227DB"/>
<stop offset="0.505208" stop-color="#A227DB" stop-opacity="0"/>
<stop offset="0.765625" stop-color="#A610EC" stop-opacity="0.84"/>
</linearGradient>
<linearGradient id="paint20_linear_5002_6620" x1="413.26" y1="89.7736" x2="489.255" y2="170.373" gradientUnits="userSpaceOnUse">
<stop offset="0.015625" stop-color="#B010FB"/>
<stop offset="0.130208" stop-color="#DE97FF"/>
<stop offset="0.234375" stop-color="#A227DB"/>
<stop offset="0.505208" stop-color="#A227DB" stop-opacity="0"/>
<stop offset="0.765625" stop-color="#A610EC" stop-opacity="0.84"/>
</linearGradient>
<linearGradient id="paint21_linear_5002_6620" x1="247.527" y1="239.272" x2="341.191" y2="330.911" gradientUnits="userSpaceOnUse">
<stop offset="0.015625" stop-color="#B010FB"/>
<stop offset="0.130208" stop-color="#DE97FF"/>
<stop offset="0.234375" stop-color="#A227DB"/>
<stop offset="0.505208" stop-color="#A227DB" stop-opacity="0"/>
<stop offset="0.765625" stop-color="#A610EC" stop-opacity="0.84"/>
</linearGradient>
<clipPath id="clip0_5002_6620">
<rect width="593" height="280" fill="white" transform="translate(0.253906 62.2617)"/>
</clipPath>
</defs>
</svg>
