<svg width="16" height="34" viewBox="0 0 16 34" fill="none" xmlns="http://www.w3.org/2000/svg">
<path d="M8.2832 1.00464C8.2832 0.728496 8.05935 0.504639 7.7832 0.504639C7.50706 0.504639 7.2832 0.728496 7.2832 1.00464L8.2832 1.00464ZM7.42965 33.3582C7.62491 33.5535 7.94149 33.5535 8.13676 33.3582L11.3187 30.1762C11.514 29.9809 11.514 29.6644 11.3187 29.4691C11.1235 29.2738 10.8069 29.2738 10.6116 29.4691L7.7832 32.2975L4.95477 29.4691C4.75951 29.2738 4.44293 29.2738 4.24767 29.4691C4.05241 29.6644 4.05241 29.9809 4.24767 30.1762L7.42965 33.3582ZM7.2832 1.00464L7.2832 3.00464L8.2832 3.00464L8.2832 1.00464L7.2832 1.00464ZM7.2832 7.00464L7.2832 11.0046L8.2832 11.0046L8.2832 7.00464L7.2832 7.00464ZM7.2832 15.0046L7.2832 19.0046L8.2832 19.0046L8.2832 15.0046L7.2832 15.0046ZM7.2832 23.0046L7.2832 27.0046L8.2832 27.0046L8.2832 23.0046L7.2832 23.0046ZM7.2832 31.0046L7.2832 33.0046L8.2832 33.0046L8.2832 31.0046L7.2832 31.0046ZM8.7832 1.00464C8.7832 0.452354 8.33549 0.0046387 7.7832 0.00463867C7.23092 0.00463865 6.7832 0.452354 6.7832 1.00464L8.7832 1.00464ZM7.07609 33.7117C7.46662 34.1023 8.09978 34.1023 8.49031 33.7117L14.8543 27.3478C15.2448 26.9573 15.2448 26.3241 14.8543 25.9336C14.4637 25.543 13.8306 25.543 13.4401 25.9336L7.7832 31.5904L2.12635 25.9336C1.73582 25.543 1.10266 25.543 0.712134 25.9336C0.32161 26.3241 0.32161 26.9573 0.712134 27.3478L7.07609 33.7117ZM6.7832 1.00464L6.7832 3.00464L8.7832 3.00464L8.7832 1.00464L6.7832 1.00464ZM6.7832 7.00464L6.7832 11.0046L8.7832 11.0046L8.7832 7.00464L6.7832 7.00464ZM6.7832 15.0046L6.7832 19.0046L8.7832 19.0046L8.7832 15.0046L6.7832 15.0046ZM6.7832 23.0046L6.7832 27.0046L8.7832 27.0046L8.7832 23.0046L6.7832 23.0046ZM6.7832 31.0046L6.7832 33.0046L8.7832 33.0046L8.7832 31.0046L6.7832 31.0046Z" fill="#BFE1B0"/>
</svg>
