<svg width="43" height="42" viewBox="0 0 43 42" fill="none" xmlns="http://www.w3.org/2000/svg">
<path d="M13.0469 26.2546H16.5469C16.5469 28.1446 18.9444 29.7546 21.7969 29.7546C24.6494 29.7546 27.0469 28.1446 27.0469 26.2546C27.0469 24.3296 25.2269 23.6296 21.3769 22.7021C17.6669 21.7746 13.0469 20.6196 13.0469 15.7546C13.0469 12.6221 15.6194 9.96214 19.1719 9.06964V5.25464H24.4219V9.06964C27.9744 9.96214 30.5469 12.6221 30.5469 15.7546H27.0469C27.0469 13.8646 24.6494 12.2546 21.7969 12.2546C18.9444 12.2546 16.5469 13.8646 16.5469 15.7546C16.5469 17.6796 18.3669 18.3796 22.2169 19.3071C25.9269 20.2346 30.5469 21.3896 30.5469 26.2546C30.5469 29.3871 27.9744 32.0471 24.4219 32.9396V36.7546H19.1719V32.9396C15.6194 32.0471 13.0469 29.3871 13.0469 26.2546Z" fill="url(#paint0_linear_6531_35852)"/>
<defs>
<linearGradient id="paint0_linear_6531_35852" x1="15.6835" y1="11.1024" x2="37.9309" y2="23.4416" gradientUnits="userSpaceOnUse">
<stop offset="0.015625" stop-color="#F2D5FF"/>
<stop offset="1" stop-color="#CB5AFF"/>
</linearGradient>
</defs>
</svg>
