<svg width="43" height="42" viewBox="0 0 43 42" fill="none" xmlns="http://www.w3.org/2000/svg">
<g clip-path="url(#clip0_6531_35860)">
<path d="M16.5332 20.5671C15.953 20.5671 15.3966 20.7976 14.9864 21.2078C14.5762 21.6181 14.3457 22.1745 14.3457 22.7546C14.3457 23.3348 14.5762 23.8912 14.9864 24.3014C15.3966 24.7117 15.953 24.9421 16.5332 24.9421C16.8205 24.9421 17.1049 24.8856 17.3703 24.7756C17.6357 24.6657 17.8769 24.5046 18.08 24.3014C18.2831 24.0983 18.4443 23.8572 18.5542 23.5918C18.6641 23.3264 18.7207 23.0419 18.7207 22.7546C18.7207 22.4674 18.6641 22.1829 18.5542 21.9175C18.4443 21.6521 18.2831 21.411 18.08 21.2078C17.8769 21.0047 17.6357 20.8436 17.3703 20.7337C17.1049 20.6237 16.8205 20.5671 16.5332 20.5671ZM27.0332 20.5671C26.453 20.5671 25.8966 20.7976 25.4864 21.2078C25.0762 21.6181 24.8457 22.1745 24.8457 22.7546C24.8457 23.3348 25.0762 23.8912 25.4864 24.3014C25.8966 24.7117 26.453 24.9421 27.0332 24.9421C27.6134 24.9421 28.1698 24.7117 28.58 24.3014C28.9902 23.8912 29.2207 23.3348 29.2207 22.7546C29.2207 22.1745 28.9902 21.6181 28.58 21.2078C28.1698 20.7976 27.6134 20.5671 27.0332 20.5671ZM21.7832 3.50464C19.4851 3.50464 17.2094 3.95729 15.0862 4.83675C12.963 5.7162 11.0339 7.00524 9.40883 8.63027C6.12695 11.9122 4.2832 16.3633 4.2832 21.0046C4.2832 25.6459 6.12695 30.0971 9.40883 33.379C11.0339 35.004 12.963 36.2931 15.0862 37.1725C17.2094 38.052 19.4851 38.5046 21.7832 38.5046C26.4245 38.5046 30.8757 36.6609 34.1576 33.379C37.4395 30.0971 39.2832 25.6459 39.2832 21.0046C39.2832 18.7065 38.8306 16.4309 37.9511 14.3077C37.0716 12.1845 35.7826 10.2553 34.1576 8.63027C32.5325 7.00524 30.6034 5.7162 28.4802 4.83675C26.357 3.95729 24.0813 3.50464 21.7832 3.50464ZM21.7832 35.0046C18.0702 35.0046 14.5092 33.5296 11.8837 30.9041C9.2582 28.2786 7.7832 24.7177 7.7832 21.0046C7.7307 20.4971 7.7307 20.0071 7.7832 19.4996C11.9482 17.6796 15.2557 14.3021 16.9882 10.1021C20.2607 14.7396 25.5807 17.5046 31.2682 17.5046C32.5982 17.5046 33.9107 17.3471 35.2057 17.0496C37.3932 24.5046 33.1582 32.2571 25.7382 34.4271C24.4082 34.8121 23.1132 35.0046 21.7832 35.0046ZM0.783203 3.50464C0.783203 2.57638 1.15195 1.68614 1.80833 1.02977C2.46471 0.373388 3.35495 0.00463867 4.2832 0.00463867L11.2832 0.00463867V3.50464H4.2832V10.5046H0.783203V3.50464ZM42.7832 38.5046C42.7832 39.4329 42.4145 40.3231 41.7581 40.9795C41.1017 41.6359 40.2115 42.0046 39.2832 42.0046H32.2832V38.5046H39.2832V31.5046H42.7832V38.5046ZM4.2832 42.0046C3.35495 42.0046 2.46471 41.6359 1.80833 40.9795C1.15195 40.3231 0.783203 39.4329 0.783203 38.5046V31.5046H4.2832V38.5046H11.2832V42.0046H4.2832ZM39.2832 0.00463867C40.2115 0.00463867 41.1017 0.373388 41.7581 1.02977C42.4145 1.68614 42.7832 2.57638 42.7832 3.50464V10.5046H39.2832V3.50464H32.2832V0.00463867H39.2832Z" fill="url(#paint0_linear_6531_35860)"/>
</g>
<defs>
<linearGradient id="paint0_linear_6531_35860" x1="7.11113" y1="7.80168" x2="42.0784" y2="42.7111" gradientUnits="userSpaceOnUse">
<stop offset="0.015625" stop-color="#F2D5FF"/>
<stop offset="1" stop-color="#CB5AFF"/>
</linearGradient>
<clipPath id="clip0_6531_35860">
<rect width="42" height="42" fill="white" transform="translate(0.783203 0.00463867)"/>
</clipPath>
</defs>
</svg>
