<svg width="43" height="42" viewBox="0 0 43 42" fill="none" xmlns="http://www.w3.org/2000/svg">
<path d="M23.5215 5.25464C30.3465 5.25464 35.7715 10.6796 35.7715 17.5046C35.7715 22.4046 32.9715 26.6046 28.7715 28.5296V36.7546H16.5215V31.5046H14.7715C12.8465 31.5046 11.2715 29.9296 11.2715 28.0046V22.7546H8.64645C7.94645 22.7546 7.42145 21.8796 7.94645 21.3546L11.2715 16.9796C11.6215 10.3296 16.8715 5.25464 23.5215 5.25464ZM23.5215 1.75464C15.4714 1.75464 8.82145 7.70464 7.94645 15.5796L5.14645 19.2546C4.09645 20.6546 4.09645 22.4046 4.79645 23.8046C5.49645 25.0296 6.54645 25.9046 7.77145 26.0796V28.0046C7.77145 31.3296 10.0465 33.9546 13.0215 34.8296V40.2546H32.2715V30.6296C36.6465 27.6546 39.2715 22.9296 39.2715 17.5046C39.2715 8.75464 32.2715 1.75464 23.5215 1.75464ZM18.2715 17.5046C17.2215 17.5046 16.5215 16.8046 16.5215 15.7546C16.5215 14.7046 17.2215 14.0046 18.2715 14.0046C19.3215 14.0046 20.0215 14.7046 20.0215 15.7546C20.0215 16.8046 19.3215 17.5046 18.2715 17.5046ZM23.5215 17.5046C22.4715 17.5046 21.7715 16.8046 21.7715 15.7546C21.7715 14.7046 22.4715 14.0046 23.5215 14.0046C24.5714 14.0046 25.2715 14.7046 25.2715 15.7546C25.2715 16.8046 24.5714 17.5046 23.5215 17.5046ZM28.7715 17.5046C27.8965 17.5046 27.0215 16.8046 27.0215 15.7546C27.0215 14.7046 27.8965 14.0046 28.7715 14.0046C29.6465 14.0046 30.5215 14.7046 30.5215 15.7546C30.5215 16.8046 29.6465 17.5046 28.7715 17.5046Z" fill="url(#paint0_linear_6531_35856)"/>
<defs>
<linearGradient id="paint0_linear_6531_35856" x1="9.57627" y1="8.90193" x2="41.4762" y2="37.8232" gradientUnits="userSpaceOnUse">
<stop offset="0.015625" stop-color="#F2D5FF"/>
<stop offset="1" stop-color="#CB5AFF"/>
</linearGradient>
</defs>
</svg>
