<svg width="243" height="258" viewBox="0 0 243 258" fill="none" xmlns="http://www.w3.org/2000/svg">
    <path
        d="M228.584 141.682L213.082 126.058L188.449 223.344L90.7872 225.824C92.1512 227.219 96.737 231.341 104.121 238.615C111.505 245.889 119.263 248.344 122.219 248.662C134.618 249.922 164.774 252.952 186.2 254.994C208.013 255.116 216.627 238.607 218.208 230.337C221.587 214.407 228.978 178.927 231.513 164.441C234.047 149.955 230.616 143.232 228.584 141.682Z"
        fill="url(#paint0_linear_16788_37223)" />
    <g>
        <rect width="117.189" height="117.189" rx="20.0372"
            transform="matrix(-0.997484 -0.0708885 -0.201848 0.979417 224.805 124.979)"
            fill="url(#paint1_radial_16788_37223)" />
        <rect width="117.189" height="117.189" rx="20.0372"
            transform="matrix(-0.997484 -0.0708885 -0.201848 0.979417 224.805 124.979)"
            fill="url(#paint2_linear_16788_37223)" />
    </g>
    <rect x="-0.329954" y="0.24995" width="116.639" height="116.639" rx="19.762"
        transform="matrix(-0.997484 -0.0708885 -0.201848 0.979417 224.196 124.961)"
        stroke="url(#paint3_linear_16788_37223)" stroke-width="0.55023" />
    <rect x="-0.329954" y="0.24995" width="116.639" height="116.639" rx="19.762"
        transform="matrix(-0.997484 -0.0708885 -0.201848 0.979417 224.196 124.961)"
        stroke="url(#paint4_linear_16788_37223)" stroke-width="0.55023"
        style="mix-blend-mode:soft-light" />
    <rect x="-0.329954" y="0.24995" width="116.639" height="116.639" rx="19.762"
        transform="matrix(-0.997484 -0.0708885 -0.201848 0.979417 224.196 124.961)"
        stroke="url(#paint5_radial_16788_37223)" stroke-width="0.55023" />
    <rect x="-0.329954" y="0.24995" width="116.639" height="116.639" rx="19.762"
        transform="matrix(-0.997484 -0.0708885 -0.201848 0.979417 224.196 124.961)"
        stroke="url(#paint6_linear_16788_37223)" stroke-width="0.55023"
        style="mix-blend-mode:plus-lighter" />
    <g filter="url(#filter1_di_16788_37223)">
        <path
            d="M152.571 167.376C154.469 165.949 157.013 166.13 158.253 167.78L163.352 174.562C164.592 176.212 164.059 178.706 162.161 180.133L154.359 185.998C152.461 187.425 149.917 187.244 148.677 185.594L143.578 178.812C142.338 177.162 142.871 174.668 144.769 173.241L152.571 167.376Z"
            fill="#A950FF" />
        <path
            d="M182.29 169.437C184.154 168.035 186.652 168.213 187.871 169.833L193.05 176.722C194.268 178.343 193.744 180.792 191.88 182.194L183.955 188.151C182.091 189.553 179.593 189.375 178.375 187.755L173.196 180.866C171.978 179.245 172.501 176.796 174.365 175.394L182.29 169.437Z"
            fill="#A950FF" />
        <path
            d="M158.847 138.254C160.711 136.853 163.209 137.031 164.428 138.651L169.606 145.54C170.825 147.16 170.301 149.61 168.437 151.011L160.512 156.969C158.648 158.37 156.15 158.192 154.931 156.572L149.753 149.683C148.534 148.063 149.058 145.613 150.922 144.212L158.847 138.254Z"
            fill="#E9C1FF" />
        <path
            d="M151.632 158.97C152.872 160.62 152.339 163.115 150.441 164.541L142.639 170.407C140.741 171.833 138.197 171.653 136.957 170.003L131.858 163.221C130.618 161.571 131.151 159.077 133.049 157.65L140.851 151.785C142.749 150.358 145.293 150.539 146.533 152.188L151.632 158.97Z"
            fill="#CD88FF" />
        <path
            d="M133.735 172.507C134.953 174.127 134.43 176.577 132.566 177.978L124.641 183.936C122.777 185.337 120.278 185.16 119.06 183.539L113.881 176.65C112.663 175.03 113.187 172.58 115.051 171.179L122.976 165.221C124.84 163.82 127.338 163.998 128.556 165.618L133.735 172.507Z"
            fill="#A950FF" />
        <path
            d="M181.288 161.078C182.528 162.728 181.995 165.222 180.097 166.649L172.295 172.514C170.398 173.941 167.853 173.76 166.613 172.11L161.515 165.328C160.274 163.678 160.807 161.184 162.705 159.757L170.507 153.892C172.405 152.465 174.949 152.646 176.189 154.296L181.288 161.078Z"
            fill="#CD88FF" />
        <path
            d="M154.639 201.345C157.41 205.031 156.219 210.604 151.978 213.791C147.738 216.979 142.054 216.575 139.283 212.889C136.512 209.203 137.703 203.631 141.944 200.443C146.184 197.255 151.868 197.659 154.639 201.345Z"
            fill="#F62E76" />
    </g>
    <g style="mix-blend-mode:lighten" opacity="0.1">
        <mask id="mask0_16788_37223" style="mask-type:alpha" maskUnits="userSpaceOnUse" x="88"
            y="118" width="133" height="121">
            <rect x="-0.329954" y="0.24995" width="116.639" height="116.639" rx="19.762"
                transform="matrix(-0.997484 -0.0708885 -0.201848 0.979417 224.195 124.965)"
                fill="url(#paint7_radial_16788_37223)" />
            <rect x="-0.329954" y="0.24995" width="116.639" height="116.639" rx="19.762"
                transform="matrix(-0.997484 -0.0708885 -0.201848 0.979417 224.195 124.965)"
                fill="url(#paint8_linear_16788_37223)" />
            <rect x="-0.329954" y="0.24995" width="116.639" height="116.639" rx="19.762"
                transform="matrix(-0.997484 -0.0708885 -0.201848 0.979417 224.195 124.965)"
                stroke="url(#paint9_linear_16788_37223)" stroke-width="0.55023" />
            <rect x="-0.329954" y="0.24995" width="116.639" height="116.639" rx="19.762"
                transform="matrix(-0.997484 -0.0708885 -0.201848 0.979417 224.195 124.965)"
                stroke="url(#paint10_linear_16788_37223)" stroke-width="0.55023" />
        </mask>
        <g mask="url(#mask0_16788_37223)">
            <g style="mix-blend-mode:color-dodge">
                <g filter="url(#filter2_i_16788_37223)">
                    <rect width="147.274" height="147.274" rx="19.8717"
                        transform="matrix(-0.997484 -0.0708885 -0.0708885 0.997484 235.81 108.72)"
                        fill="url(#paint11_linear_16788_37223)" />
                </g>
                <rect x="-0.530759" y="0.460325" width="146.28" height="146.28" rx="19.3749"
                    transform="matrix(-0.997484 -0.0708885 -0.0708885 0.997484 234.782 108.683)"
                    stroke="url(#paint12_linear_16788_37223)" stroke-width="0.993583" />
            </g>
        </g>
    </g>
    <g clip-path="url(#paint13_diamond_16788_37223_clip_path)" data-figma-skip-parse="true">
        <g transform="matrix(-0.00261249 0.0714266 -0.0714266 -0.00261249 120.522 119.62)">
            <rect x="0" y="0" width="1020.11" height="1020.11"
                fill="url(#paint13_diamond_16788_37223)" opacity="1" shape-rendering="crispEdges" />
            <rect x="0" y="0" width="1020.11" height="1020.11" transform="scale(1 -1)"
                fill="url(#paint13_diamond_16788_37223)" opacity="1" shape-rendering="crispEdges" />
            <rect x="0" y="0" width="1020.11" height="1020.11" transform="scale(-1 1)"
                fill="url(#paint13_diamond_16788_37223)" opacity="1" shape-rendering="crispEdges" />
            <rect x="0" y="0" width="1020.11" height="1020.11" transform="scale(-1)"
                fill="url(#paint13_diamond_16788_37223)" opacity="1" shape-rendering="crispEdges" />
        </g>
    </g>
    <circle opacity="0.2" cx="120.522" cy="119.62" r="71.4744"
        transform="rotate(2.09471 120.522 119.62)"
        data-figma-gradient-fill="{&#34;type&#34;:&#34;GRADIENT_DIAMOND&#34;,&#34;stops&#34;:[{&#34;color&#34;:{&#34;r&#34;:1.0,&#34;g&#34;:1.0,&#34;b&#34;:1.0,&#34;a&#34;:1.0},&#34;position&#34;:0.0},{&#34;color&#34;:{&#34;r&#34;:1.0,&#34;g&#34;:1.0,&#34;b&#34;:1.0,&#34;a&#34;:0.0},&#34;position&#34;:0.42788460850715637}],&#34;stopsVar&#34;:[{&#34;color&#34;:{&#34;r&#34;:1.0,&#34;g&#34;:1.0,&#34;b&#34;:1.0,&#34;a&#34;:1.0},&#34;position&#34;:0.0},{&#34;color&#34;:{&#34;r&#34;:1.0,&#34;g&#34;:1.0,&#34;b&#34;:1.0,&#34;a&#34;:0.0},&#34;position&#34;:0.42788460850715637}],&#34;transform&#34;:{&#34;m00&#34;:-5.2249712944030762,&#34;m01&#34;:-142.85322570800781,&#34;m02&#34;:194.56123352050781,&#34;m10&#34;:142.85322570800781,&#34;m11&#34;:-5.2249712944030762,&#34;m12&#34;:50.806026458740234},&#34;opacity&#34;:1.0,&#34;blendMode&#34;:&#34;NORMAL&#34;,&#34;visible&#34;:true}" />
    <g clip-path="url(#paint14_diamond_16788_37223_clip_path)" data-figma-skip-parse="true">
        <g transform="matrix(-0.0036751 0.100479 -0.100479 -0.0036751 120.522 119.62)">
            <rect x="0" y="0" width="1014.3" height="1014.3"
                fill="url(#paint14_diamond_16788_37223)" opacity="1" shape-rendering="crispEdges" />
            <rect x="0" y="0" width="1014.3" height="1014.3" transform="scale(1 -1)"
                fill="url(#paint14_diamond_16788_37223)" opacity="1" shape-rendering="crispEdges" />
            <rect x="0" y="0" width="1014.3" height="1014.3" transform="scale(-1 1)"
                fill="url(#paint14_diamond_16788_37223)" opacity="1" shape-rendering="crispEdges" />
            <rect x="0" y="0" width="1014.3" height="1014.3" transform="scale(-1)"
                fill="url(#paint14_diamond_16788_37223)" opacity="1" shape-rendering="crispEdges" />
        </g>
    </g>
    <circle opacity="0.2" cx="120.522" cy="119.62" r="100.546"
        transform="rotate(2.09471 120.522 119.62)"
        data-figma-gradient-fill="{&#34;type&#34;:&#34;GRADIENT_DIAMOND&#34;,&#34;stops&#34;:[{&#34;color&#34;:{&#34;r&#34;:1.0,&#34;g&#34;:1.0,&#34;b&#34;:1.0,&#34;a&#34;:1.0},&#34;position&#34;:0.0},{&#34;color&#34;:{&#34;r&#34;:1.0,&#34;g&#34;:1.0,&#34;b&#34;:1.0,&#34;a&#34;:0.0},&#34;position&#34;:0.13942307233810425}],&#34;stopsVar&#34;:[{&#34;color&#34;:{&#34;r&#34;:1.0,&#34;g&#34;:1.0,&#34;b&#34;:1.0,&#34;a&#34;:1.0},&#34;position&#34;:0.0},{&#34;color&#34;:{&#34;r&#34;:1.0,&#34;g&#34;:1.0,&#34;b&#34;:1.0,&#34;a&#34;:0.0},&#34;position&#34;:0.13942307233810425}],&#34;transform&#34;:{&#34;m00&#34;:-7.3502073287963867,&#34;m01&#34;:-200.95820617675781,&#34;m02&#34;:224.67597961425781,&#34;m10&#34;:200.95820617675781,&#34;m11&#34;:-7.3502073287963867,&#34;m12&#34;:22.816026687622070},&#34;opacity&#34;:1.0,&#34;blendMode&#34;:&#34;NORMAL&#34;,&#34;visible&#34;:true}" />
    <g clip-path="url(#paint15_diamond_16788_37223_clip_path)" data-figma-skip-parse="true">
        <g transform="matrix(-0.00196013 0.0535909 -0.0535909 -0.00196013 120.521 119.62)">
            <rect x="0" y="0" width="1026.81" height="1026.81"
                fill="url(#paint15_diamond_16788_37223)" opacity="1" shape-rendering="crispEdges" />
            <rect x="0" y="0" width="1026.81" height="1026.81" transform="scale(1 -1)"
                fill="url(#paint15_diamond_16788_37223)" opacity="1" shape-rendering="crispEdges" />
            <rect x="0" y="0" width="1026.81" height="1026.81" transform="scale(-1 1)"
                fill="url(#paint15_diamond_16788_37223)" opacity="1" shape-rendering="crispEdges" />
            <rect x="0" y="0" width="1026.81" height="1026.81" transform="scale(-1)"
                fill="url(#paint15_diamond_16788_37223)" opacity="1" shape-rendering="crispEdges" />
        </g>
    </g>
    <circle cx="120.521" cy="119.62" r="53.6267" transform="rotate(2.09471 120.521 119.62)"
        data-figma-gradient-fill="{&#34;type&#34;:&#34;GRADIENT_DIAMOND&#34;,&#34;stops&#34;:[{&#34;color&#34;:{&#34;r&#34;:1.0,&#34;g&#34;:1.0,&#34;b&#34;:1.0,&#34;a&#34;:1.0},&#34;position&#34;:0.0},{&#34;color&#34;:{&#34;r&#34;:1.0,&#34;g&#34;:1.0,&#34;b&#34;:1.0,&#34;a&#34;:0.0},&#34;position&#34;:0.13942307233810425}],&#34;stopsVar&#34;:[{&#34;color&#34;:{&#34;r&#34;:1.0,&#34;g&#34;:1.0,&#34;b&#34;:1.0,&#34;a&#34;:1.0},&#34;position&#34;:0.0},{&#34;color&#34;:{&#34;r&#34;:1.0,&#34;g&#34;:1.0,&#34;b&#34;:1.0,&#34;a&#34;:0.0},&#34;position&#34;:0.13942307233810425}],&#34;transform&#34;:{&#34;m00&#34;:-3.9202601909637451,&#34;m01&#34;:-107.18180084228516,&#34;m02&#34;:176.07243347167969,&#34;m10&#34;:107.18180084228516,&#34;m11&#34;:-3.9202601909637451,&#34;m12&#34;:67.989105224609375},&#34;opacity&#34;:1.0,&#34;blendMode&#34;:&#34;NORMAL&#34;,&#34;visible&#34;:true}" />
    <g clip-path="url(#paint16_diamond_16788_37223_clip_path)" data-figma-skip-parse="true">
        <g transform="matrix(-0.00089588 0.0244938 -0.0244938 -0.00089588 120.522 119.62)">
            <rect x="0" y="0" width="1058.66" height="1058.66"
                fill="url(#paint16_diamond_16788_37223)" opacity="1" shape-rendering="crispEdges" />
            <rect x="0" y="0" width="1058.66" height="1058.66" transform="scale(1 -1)"
                fill="url(#paint16_diamond_16788_37223)" opacity="1" shape-rendering="crispEdges" />
            <rect x="0" y="0" width="1058.66" height="1058.66" transform="scale(-1 1)"
                fill="url(#paint16_diamond_16788_37223)" opacity="1" shape-rendering="crispEdges" />
            <rect x="0" y="0" width="1058.66" height="1058.66" transform="scale(-1)"
                fill="url(#paint16_diamond_16788_37223)" opacity="1" shape-rendering="crispEdges" />
        </g>
    </g>
    <circle cx="120.522" cy="119.62" r="24.5102" transform="rotate(2.09471 120.522 119.62)"
        data-figma-gradient-fill="{&#34;type&#34;:&#34;GRADIENT_DIAMOND&#34;,&#34;stops&#34;:[{&#34;color&#34;:{&#34;r&#34;:1.0,&#34;g&#34;:1.0,&#34;b&#34;:1.0,&#34;a&#34;:1.0},&#34;position&#34;:0.0},{&#34;color&#34;:{&#34;r&#34;:1.0,&#34;g&#34;:1.0,&#34;b&#34;:1.0,&#34;a&#34;:0.0},&#34;position&#34;:0.13942307233810425}],&#34;stopsVar&#34;:[{&#34;color&#34;:{&#34;r&#34;:1.0,&#34;g&#34;:1.0,&#34;b&#34;:1.0,&#34;a&#34;:1.0},&#34;position&#34;:0.0},{&#34;color&#34;:{&#34;r&#34;:1.0,&#34;g&#34;:1.0,&#34;b&#34;:1.0,&#34;a&#34;:0.0},&#34;position&#34;:0.13942307233810425}],&#34;transform&#34;:{&#34;m00&#34;:-1.7917592525482178,&#34;m01&#34;:-48.987560272216797,&#34;m02&#34;:145.91139221191406,&#34;m10&#34;:48.987560272216797,&#34;m11&#34;:-1.7917592525482178,&#34;m12&#34;:96.022224426269531},&#34;opacity&#34;:1.0,&#34;blendMode&#34;:&#34;NORMAL&#34;,&#34;visible&#34;:true}" />
    <line x1="121.048" y1="108.598" x2="121.048" y2="133.11"
        stroke="url(#paint17_linear_16788_37223)" />
    <line x1="132.805" y1="119.354" x2="108.292" y2="119.354"
        stroke="url(#paint18_linear_16788_37223)" />
    <defs>
        <filter id="filter1_di_16788_37223" x="111.852" y="137.309" width="83.2269" height="81.3753"
            filterUnits="userSpaceOnUse" color-interpolation-filters="sRGB">
            <feFlood flood-opacity="0" result="BackgroundImageFix" />
            <feColorMatrix in="SourceAlpha" type="matrix"
                values="0 0 0 0 0 0 0 0 0 0 0 0 0 0 0 0 0 0 127 0" result="hardAlpha" />
            <feOffset dy="1.37173" />
            <feGaussianBlur stdDeviation="0.685867" />
            <feComposite in2="hardAlpha" operator="out" />
            <feColorMatrix type="matrix"
                values="0 0 0 0 0.222242 0 0 0 0 0.247729 0 0 0 0 0.604557 0 0 0 0.6 0" />
            <feBlend mode="normal" in2="BackgroundImageFix" result="effect1_dropShadow_16788_37223" />
            <feBlend mode="normal" in="SourceGraphic" in2="effect1_dropShadow_16788_37223"
                result="shape" />
            <feColorMatrix in="SourceAlpha" type="matrix"
                values="0 0 0 0 0 0 0 0 0 0 0 0 0 0 0 0 0 0 127 0" result="hardAlpha" />
            <feOffset dy="1.0288" />
            <feGaussianBlur stdDeviation="1.37173" />
            <feComposite in2="hardAlpha" operator="arithmetic" k2="-1" k3="1" />
            <feColorMatrix type="matrix"
                values="0 0 0 0 1 0 0 0 0 0.923763 0 0 0 0 0.923763 0 0 0 0.45 0" />
            <feBlend mode="normal" in2="shape" result="effect2_innerShadow_16788_37223" />
        </filter>
        <filter id="filter2_i_16788_37223" x="80.0762" y="99.8892" width="154.124" height="158.099"
            filterUnits="userSpaceOnUse" color-interpolation-filters="sRGB">
            <feFlood flood-opacity="0" result="BackgroundImageFix" />
            <feBlend mode="normal" in="SourceGraphic" in2="BackgroundImageFix" result="shape" />
            <feColorMatrix in="SourceAlpha" type="matrix"
                values="0 0 0 0 0 0 0 0 0 0 0 0 0 0 0 0 0 0 127 0" result="hardAlpha" />
            <feOffset dy="3.97433" />
            <feGaussianBlur stdDeviation="2.98075" />
            <feComposite in2="hardAlpha" operator="arithmetic" k2="-1" k3="1" />
            <feColorMatrix type="matrix" values="0 0 0 0 1 0 0 0 0 1 0 0 0 0 1 0 0 0 0.6 0" />
            <feBlend mode="normal" in2="shape" result="effect1_innerShadow_16788_37223" />
        </filter>
        <clipPath id="paint13_diamond_16788_37223_clip_path">
            <circle opacity="0.2" cx="120.522" cy="119.62" r="71.4744"
                transform="rotate(2.09471 120.522 119.62)" />
        </clipPath>
        <clipPath id="paint14_diamond_16788_37223_clip_path">
            <circle opacity="0.2" cx="120.522" cy="119.62" r="100.546"
                transform="rotate(2.09471 120.522 119.62)" />
        </clipPath>
        <clipPath id="paint15_diamond_16788_37223_clip_path">
            <circle cx="120.521" cy="119.62" r="53.6267" transform="rotate(2.09471 120.521 119.62)" />
        </clipPath>
        <clipPath id="paint16_diamond_16788_37223_clip_path">
            <circle cx="120.522" cy="119.62" r="24.5102" transform="rotate(2.09471 120.522 119.62)" />
        </clipPath>
        <linearGradient id="paint0_linear_16788_37223" x1="211.25" y1="113.519" x2="99.5823"
            y2="229.989" gradientUnits="userSpaceOnUse">
            <stop offset="0.0370143" stop-color="#010206" />
            <stop offset="0.134219" stop-color="#4F545E" />
            <stop offset="0.451646" stop-color="#3C4149" />
            <stop offset="0.485154" stop-color="#282B31" />
            <stop offset="0.526023" stop-color="#040510" />
            <stop offset="0.581312" stop-color="#040409" />
            <stop offset="0.620773" stop-color="#4B4A4D" />
            <stop offset="0.716746" stop-color="#03030D" />
            <stop offset="0.90079" stop-color="#03040E" />
            <stop offset="1" />
        </linearGradient>
        <radialGradient id="paint1_radial_16788_37223" cx="0" cy="0" r="1"
            gradientUnits="userSpaceOnUse"
            gradientTransform="translate(108.042 22.9453) rotate(146.677) scale(127.781 232.104)">
            <stop stop-color="#474747" />
            <stop offset="0.343668" stop-color="#303030" />
            <stop offset="0.639277" stop-color="#202020" />
            <stop offset="1" stop-color="#191413" />
        </radialGradient>
        <linearGradient id="paint2_linear_16788_37223" x1="4.98057" y1="17.3865" x2="145.644"
            y2="128.946" gradientUnits="userSpaceOnUse">
            <stop stop-color="#030303" stop-opacity="0.62" />
            <stop offset="0.134789" stop-color="#191413" stop-opacity="0.16" />
            <stop offset="0.215402" stop-color="#032263" stop-opacity="0" />
            <stop offset="0.718692" stop-color="#041C4F" stop-opacity="0" />
            <stop offset="0.797654" stop-color="#191413" stop-opacity="0.15" />
            <stop offset="1" stop-color="#191413" stop-opacity="0.55" />
        </linearGradient>
        <linearGradient id="paint3_linear_16788_37223" x1="58.5947" y1="0" x2="58.5947" y2="117.189"
            gradientUnits="userSpaceOnUse">
            <stop stop-color="#0A0A0A" />
            <stop offset="0.5" stop-color="#535353" />
            <stop offset="1" stop-color="#0A0A0A" />
        </linearGradient>
        <linearGradient id="paint4_linear_16788_37223" x1="58.5947" y1="0" x2="58.5947" y2="117.189"
            gradientUnits="userSpaceOnUse">
            <stop stop-color="white" />
            <stop offset="1" stop-color="white" stop-opacity="0.2" />
        </linearGradient>
        <radialGradient id="paint5_radial_16788_37223" cx="0" cy="0" r="1"
            gradientUnits="userSpaceOnUse"
            gradientTransform="translate(66.9029 117.189) rotate(-90.6228) scale(80.4632 111.267)">
            <stop stop-color="#C739FF" />
            <stop offset="1" stop-color="#C739FF" stop-opacity="0" />
        </radialGradient>
        <linearGradient id="paint6_linear_16788_37223" x1="103.415" y1="4.04478" x2="11.2598"
            y2="4.04478" gradientUnits="userSpaceOnUse">
            <stop stop-color="#E139FF" stop-opacity="0" />
            <stop offset="0.5" stop-color="#B039FF" />
            <stop offset="1" stop-color="#F539FF" stop-opacity="0" />
        </linearGradient>
        <radialGradient id="paint7_radial_16788_37223" cx="0" cy="0" r="1"
            gradientUnits="userSpaceOnUse"
            gradientTransform="translate(108.042 22.9453) rotate(146.677) scale(127.781 232.104)">
            <stop stop-color="#474747" />
            <stop offset="0.343668" stop-color="#303030" />
            <stop offset="0.639277" stop-color="#202020" />
            <stop offset="1" stop-color="#191413" />
        </radialGradient>
        <linearGradient id="paint8_linear_16788_37223" x1="4.98057" y1="17.3865" x2="145.644"
            y2="128.946" gradientUnits="userSpaceOnUse">
            <stop stop-color="#030303" stop-opacity="0.62" />
            <stop offset="0.134789" stop-color="#191413" stop-opacity="0.16" />
            <stop offset="0.215402" stop-color="#032263" stop-opacity="0" />
            <stop offset="0.718692" stop-color="#041C4F" stop-opacity="0" />
            <stop offset="0.797654" stop-color="#191413" stop-opacity="0.15" />
            <stop offset="1" stop-color="#191413" stop-opacity="0.55" />
        </linearGradient>
        <linearGradient id="paint9_linear_16788_37223" x1="-0.0366224" y1="57.8671" x2="23.6088"
            y2="58.4016" gradientUnits="userSpaceOnUse">
            <stop stop-color="#767676" />
            <stop offset="1" stop-color="#000910" stop-opacity="0" />
        </linearGradient>
        <linearGradient id="paint10_linear_16788_37223" x1="113.268" y1="125.536" x2="84.0918"
            y2="112.254" gradientUnits="userSpaceOnUse">
            <stop stop-color="#868889" />
            <stop offset="1" stop-color="#000C14" stop-opacity="0" />
        </linearGradient>
        <linearGradient id="paint11_linear_16788_37223" x1="17.1819" y1="152.796" x2="147.274"
            y2="9.39999e-06" gradientUnits="userSpaceOnUse">
            <stop stop-color="#504F54" />
            <stop offset="0.18" stop-color="#B1B1B1" />
            <stop offset="0.395" stop-color="#13181C" />
            <stop offset="0.605" stop-color="#C6C6C8" />
            <stop offset="0.715" stop-color="white" />
            <stop offset="0.83" stop-color="#0C0F14" />
            <stop offset="1" stop-color="#696A6E" />
        </linearGradient>
        <linearGradient id="paint12_linear_16788_37223" x1="73.6369" y1="0" x2="73.6369"
            y2="125.796" gradientUnits="userSpaceOnUse">
            <stop stop-color="white" stop-opacity="0.53" />
            <stop offset="1" stop-color="white" stop-opacity="0" />
        </linearGradient>
        <linearGradient id="paint13_diamond_16788_37223" x1="0" y1="0" x2="500" y2="500"
            gradientUnits="userSpaceOnUse">
            <stop stop-color="white" />
            <stop offset="0.427885" stop-color="white" stop-opacity="0" />
        </linearGradient>
        <linearGradient id="paint14_diamond_16788_37223" x1="0" y1="0" x2="500" y2="500"
            gradientUnits="userSpaceOnUse">
            <stop stop-color="white" />
            <stop offset="0.139423" stop-color="white" stop-opacity="0" />
        </linearGradient>
        <linearGradient id="paint15_diamond_16788_37223" x1="0" y1="0" x2="500" y2="500"
            gradientUnits="userSpaceOnUse">
            <stop stop-color="white" />
            <stop offset="0.139423" stop-color="white" stop-opacity="0" />
        </linearGradient>
        <linearGradient id="paint16_diamond_16788_37223" x1="0" y1="0" x2="500" y2="500"
            gradientUnits="userSpaceOnUse">
            <stop stop-color="white" />
            <stop offset="0.139423" stop-color="white" stop-opacity="0" />
        </linearGradient>
        <linearGradient id="paint17_linear_16788_37223" x1="120.048" y1="108.598" x2="120.048"
            y2="133.11" gradientUnits="userSpaceOnUse">
            <stop offset="0.0336538" stop-color="white" stop-opacity="0" />
            <stop offset="0.442308" stop-color="white" />
            <stop offset="1" stop-color="white" stop-opacity="0" />
        </linearGradient>
        <linearGradient id="paint18_linear_16788_37223" x1="132.805" y1="118.354" x2="108.292"
            y2="118.354" gradientUnits="userSpaceOnUse">
            <stop offset="0.0336538" stop-color="white" stop-opacity="0" />
            <stop offset="0.442308" stop-color="white" />
            <stop offset="1" stop-color="white" stop-opacity="0" />
        </linearGradient>
    </defs>
</svg>