<svg width="3157" height="852" viewBox="0 0 3157 852" fill="none" xmlns="http://www.w3.org/2000/svg">
<path d="M1498.84 96H1467.14V735.699H1498.84V96Z" stroke="#646465" stroke-width="0.362635" stroke-dasharray="2.54 2.54"/>
<path d="M1672.15 96H1640.7V735.699H1672.15V96Z" stroke="#646465" stroke-width="0.362635" stroke-dasharray="2.54 2.54"/>
<path d="M1588.2 94.1133H1550.82V737.583H1588.2V94.1133Z" stroke="#646465" stroke-width="0.364772" stroke-dasharray="2.55 2.55"/>
<path d="M3156.35 328.566V297.629L0.700439 297.629V328.566L3156.35 328.566Z" stroke="#646465" stroke-width="0.362635" stroke-dasharray="2.54 2.54"/>
<path d="M3156.35 501.627V470.363L0.700684 470.363V501.627L3156.35 501.627Z" stroke="#646465" stroke-width="0.362635" stroke-dasharray="2.54 2.54"/>
<path d="M3156.35 470.363V437.938L0.700684 437.938V470.363L3156.35 470.363Z" stroke="#646465" stroke-width="0.362635" stroke-dasharray="2.54 2.54"/>
<path d="M2053.87 851.706L2075.92 829.578L1247.94 4.37061L1225.89 26.498L2053.87 851.706Z" stroke="#646465" stroke-width="0.366541" stroke-dasharray="2.57 2.57"/>
<path d="M1122.08 815.629L1100.6 794.148L1894.33 0.593242L1915.81 22.074L1122.08 815.629Z" stroke="#646465" stroke-width="0.362635" stroke-dasharray="2.54 2.54"/>
</svg>
