<svg width="604" height="450" viewBox="0 0 604 450" fill="none" xmlns="http://www.w3.org/2000/svg">
<g clip-path="url(#clip0_25188_53202)">
<path d="M422.802 148.961C423.144 148.818 423.537 148.842 423.861 149.035L484.468 185.11C484.828 185.325 485.048 185.716 485.045 186.136C485.041 186.556 484.814 186.942 484.45 187.15L423.843 221.782C423.482 221.988 423.039 221.99 422.677 221.785L361.344 187.153C360.977 186.946 360.748 186.558 360.744 186.136C360.74 185.714 360.962 185.321 361.326 185.107L422.659 149.032L422.802 148.961Z" stroke="#B26AF9" stroke-width="2.36089" stroke-linejoin="round"/>
<path d="M424.508 178.59L363.175 143.958L424.508 107.883L485.115 143.958L424.508 178.59Z" fill="#4906B9"/>
<path d="M424.211 178.422V216.152L363.566 180.403V143.737L424.211 178.422Z" fill="#320282"/>
<path d="M424.092 177.931V213.218L485.24 177.931V143.811L424.092 177.931Z" fill="#1F0152"/>
<g filter="url(#filter0_f_25188_53202)">
<ellipse cx="407.978" cy="162.556" rx="33.128" ry="33.128" transform="rotate(-90 407.978 162.556)" fill="#7331FF" fill-opacity="0.8"/>
<ellipse cx="407.978" cy="162.556" rx="33.128" ry="33.128" transform="rotate(-90 407.978 162.556)" fill="#7331FF" fill-opacity="0.8"/>
</g>
<rect width="3.25653" height="16.0137" rx="0.203533" transform="matrix(0.866025 -0.5 0.866025 0.5 403.977 157.565)" fill="#7FD1BA"/>
<rect width="3.25653" height="16.29" rx="0.203533" transform="matrix(0.866025 -0.5 0.866025 0.5 398.203 146.104)" fill="#7FD1BA"/>
<rect width="3.25653" height="7.80889" rx="0.203533" transform="matrix(0.866025 -0.5 0.866025 0.5 412.311 154.249)" fill="#FCE07C"/>
<rect width="3.25653" height="6.70941" rx="0.203533" transform="matrix(0.866025 -0.5 0.866025 0.5 419.074 158.154)" fill="#EC6149"/>
<rect width="3.25653" height="35.5999" rx="0.203533" transform="matrix(0.866025 -0.5 0.866025 0.5 401.092 139.645)" fill="#7FD1BA"/>
<rect width="3.25653" height="12.8093" rx="0.203533" transform="matrix(0.866025 -0.5 0.866025 0.5 423.534 144.473)" fill="#7FD1BA"/>
<rect width="3.25653" height="2.39395" rx="0.203533" transform="matrix(0.866025 -0.5 0.866025 0.5 434.627 150.878)" fill="#FCE07C"/>
<rect width="3.25653" height="2.61039" rx="0.203533" transform="matrix(0.866025 -0.5 0.866025 0.5 436.7 152.075)" fill="#EC6149"/>
<rect width="3.25653" height="13.5008" rx="0.203533" transform="matrix(0.866025 -0.5 0.866025 0.5 434.307 142.568)" fill="#7FD1BA"/>
<rect width="3.25653" height="6.03672" rx="0.203533" transform="matrix(0.866025 -0.5 0.866025 0.5 447.81 142.236)" fill="#7FD1BA"/>
<rect width="3.25653" height="37.3209" rx="0.203533" transform="matrix(0.866025 -0.5 0.866025 0.5 427.755 122.531)" fill="#7FD1BA"/>
<g filter="url(#filter1_f_25188_53202)">
<ellipse cx="462.896" cy="204.795" rx="39.7026" ry="43.2868" fill="white" fill-opacity="0.05" style="mix-blend-mode:lighten"/>
</g>
<path d="M265.744 229.38L346.921 181.98L265.065 135.565L183.02 182.815L265.744 229.38Z" stroke="#CD88FF" stroke-width="1.52867" stroke-linecap="round" stroke-linejoin="round"/>
<path d="M304.392 207.385L326.901 220.266L294.875 238.664L368.288 279.683" stroke="url(#paint0_linear_25188_53202)" stroke-width="1.67068" stroke-linejoin="round"/>
<g filter="url(#filter2_d_25188_53202)">
<path d="M222.032 185.347C211.012 178.985 204.821 170.356 204.821 161.359C204.821 152.362 211.012 143.734 222.032 137.372L263.583 113.384L305.135 137.372C316.155 143.734 322.346 152.362 322.346 161.359C322.346 170.357 316.155 178.985 305.135 185.347C294.115 191.709 279.168 195.283 263.583 195.283C247.998 195.283 233.052 191.709 222.032 185.347V185.347Z" fill="#0ACF83"/>
</g>
<path d="M345.455 119.476L264.147 165.938L181.866 119.477L264.147 71.08L345.455 119.476Z" fill="#6400CA" stroke="url(#paint1_linear_25188_53202)" stroke-width="1.06952"/>
<path d="M263.745 166.324L263.745 217.601L181.326 169.017L181.326 119.186L263.745 166.324Z" fill="#4A0292"/>
<path d="M263.583 165.656L263.583 217.019L346.686 169.062L346.686 119.286L263.583 165.656Z" fill="#3C0077"/>
<path d="M267.882 114.013C269.896 114.013 271.528 114.955 271.528 116.118L271.528 120.896C271.528 122.058 269.896 123 267.882 123L259.607 123C257.594 123 255.962 122.058 255.962 120.896L255.962 116.118C255.962 114.955 257.594 114.013 259.607 114.013L267.882 114.013Z" fill="#A950FF"/>
<path d="M286.973 124.997C288.95 124.997 290.553 125.923 290.553 127.064L290.553 131.917C290.553 133.059 288.95 133.984 286.973 133.984L278.567 133.984C276.59 133.984 274.987 133.059 274.987 131.917L274.987 127.064C274.987 125.923 276.59 124.997 278.567 124.997L286.973 124.997Z" fill="#A950FF"/>
<path d="M286.973 103.029C288.95 103.029 290.553 103.955 290.553 105.096L290.553 109.949C290.553 111.091 288.95 112.016 286.973 112.016L278.567 112.016C276.59 112.016 274.987 111.091 274.987 109.949L274.987 105.096C274.987 103.955 276.59 103.029 278.567 103.029L286.973 103.029Z" fill="#E9C1FF"/>
<path d="M271.528 109.912C271.528 111.074 269.896 112.017 267.883 112.017L259.608 112.017C257.594 112.017 255.962 111.074 255.962 109.912L255.962 105.134C255.962 103.972 257.594 103.03 259.608 103.03L267.883 103.03C269.896 103.03 271.528 103.972 271.528 105.134L271.528 109.912Z" fill="#CD88FF"/>
<path d="M252.503 109.949C252.503 111.091 250.9 112.016 248.923 112.016L240.517 112.016C238.54 112.016 236.937 111.091 236.937 109.949L236.937 105.096C236.937 103.954 238.54 103.029 240.517 103.029L248.923 103.029C250.9 103.029 252.503 103.954 252.503 105.096L252.503 109.949Z" fill="#A950FF"/>
<path d="M290.553 120.896C290.553 122.058 288.921 123 286.908 123L278.632 123C276.619 123 274.987 122.058 274.987 120.896L274.987 116.118C274.987 114.956 276.619 114.013 278.632 114.013L286.908 114.013C288.921 114.013 290.553 114.956 290.553 116.118L290.553 120.896Z" fill="#CD88FF"/>
<path d="M251.977 130.003C251.977 132.6 248.331 134.705 243.833 134.705C239.336 134.705 235.689 132.6 235.689 130.003C235.689 127.406 239.336 125.301 243.833 125.301C248.331 125.301 251.977 127.406 251.977 130.003Z" fill="#F62E76"/>
<g filter="url(#filter3_f_25188_53202)">
<circle cx="202.147" cy="118.482" r="39.7026" fill="white" fill-opacity="0.05" style="mix-blend-mode:lighten"/>
</g>
<g filter="url(#filter4_f_25188_53202)">
<circle cx="337.969" cy="126.852" r="39.7026" fill="white" fill-opacity="0.05" style="mix-blend-mode:lighten"/>
</g>
<path d="M407.755 213.062L370.062 234.197L423.582 265.323L400.916 277.913" stroke="url(#paint2_linear_25188_53202)" stroke-width="2.50602" stroke-linejoin="round"/>
<path d="M480.196 234.458L400.916 277.914" stroke="url(#paint3_linear_25188_53202)" stroke-width="2.50602" stroke-linejoin="round"/>
<path d="M136.033 266.097C135.663 265.886 135.209 265.889 134.843 266.107L74.2358 302.182C73.8738 302.397 73.6545 302.79 73.6597 303.211C73.6649 303.632 73.8941 304.019 74.2612 304.226L184.911 366.476C185.271 366.678 185.71 366.678 186.07 366.475L247.402 331.842C247.772 331.633 248.001 331.242 248.002 330.818C248.004 330.393 247.776 330.001 247.408 329.79L136.033 266.097Z" stroke="#05BC90" stroke-width="2.36089" stroke-linejoin="round"/>
<path d="M185.709 322.091L185.709 356.136L246.354 320.388L246.354 287.406L185.709 322.091Z" fill="#00A489"/>
<path d="M185.829 321.619L185.829 356.165L74.84 293.485L74.8401 260.107L185.829 321.619Z" fill="#02C7A9"/>
<path d="M185.412 321.771L246.745 287.139L135.369 223.446L74.7626 259.521L185.412 321.771Z" fill="#03DABA" stroke="#81F59A" stroke-width="0.786965"/>
<path d="M212.6 199.219L175.76 219.445L229.28 250.571L206.614 263.161" stroke="url(#paint4_linear_25188_53202)" stroke-opacity="0.81" stroke-width="2.50602" stroke-linejoin="round"/>
<g clip-path="url(#clip1_25188_53202)">
<path d="M164.09 256.674L165.833 257.68L169.321 255.667L172.808 257.68L169.321 259.693L183.269 267.746L186.756 265.733L190.243 267.746L186.756 269.76L188.499 270.766C190.435 271.884 190.4 273.675 188.482 274.783L164.09 288.886C162.172 289.993 159.051 290.003 157.116 288.886L132.707 274.793C130.789 273.686 130.789 271.874 132.707 270.766L157.116 256.674C159.034 255.566 162.172 255.566 164.09 256.674ZM136.194 272.78L160.603 286.872L178.038 276.806L153.629 262.713L136.194 272.78ZM157.116 260.7L181.525 274.793L185.012 272.78L160.603 258.687L157.116 260.7ZM151.885 267.746L160.603 272.78L151.885 277.813L143.168 272.78L151.885 267.746Z" fill="url(#paint5_linear_25188_53202)"/>
</g>
<g filter="url(#filter5_f_25188_53202)">
<circle cx="139.788" cy="291.202" r="99.952" fill="white" fill-opacity="0.05" style="mix-blend-mode:lighten"/>
</g>
<g clip-path="url(#clip2_25188_53202)">
<path d="M397.153 293.46C397.541 293.236 397.896 293.012 398.25 292.768L403.772 293.207C404.954 293.304 406.085 292.865 406.406 292.193L408.702 287.221C409.023 286.548 408.415 285.846 407.301 285.593L402.134 284.384C401.948 283.77 401.678 283.166 401.307 282.581L404.717 280.046C405.46 279.5 405.376 278.711 404.532 278.223L398.234 274.587C397.372 274.09 396.005 274.041 395.059 274.47L390.669 276.439C389.656 276.225 388.609 276.069 387.545 275.961L385.452 272.978C385.013 272.335 383.797 271.984 382.632 272.169L374.004 273.505C372.839 273.69 372.096 274.333 372.248 275.026L373.007 278.213C372.602 278.408 372.214 278.613 371.826 278.837C371.437 279.061 371.083 279.286 370.728 279.529L365.207 279.091C364.025 278.993 362.893 279.432 362.573 280.105L360.276 285.076C359.955 285.749 360.563 286.451 361.678 286.704L366.845 287.913C367.03 288.527 367.3 289.132 367.672 289.717L364.261 292.251C363.518 292.797 363.603 293.587 364.447 294.074L370.745 297.71C371.589 298.198 372.957 298.247 373.902 297.818L378.292 295.848C379.306 296.063 380.352 296.219 381.416 296.326L383.51 299.309C383.949 299.953 385.165 300.303 386.33 300.118L394.941 298.792C396.106 298.607 396.849 297.964 396.697 297.272L395.937 294.084C396.376 293.889 396.765 293.684 397.153 293.46ZM378.647 289.6C375.388 287.718 375.388 284.657 378.647 282.776C381.906 280.894 387.208 280.894 390.466 282.776C393.725 284.657 393.725 287.718 390.466 289.6C387.208 291.481 381.906 291.481 378.647 289.6Z" fill="#4533CE"/>
</g>
<path d="M397.153 292.355C397.541 292.131 397.896 291.906 398.251 291.663L403.772 292.101C404.954 292.199 406.085 291.76 406.406 291.087L408.702 286.116C409.023 285.443 408.415 284.741 407.301 284.488L402.134 283.279C401.948 282.665 401.678 282.06 401.307 281.475L404.718 278.941C405.46 278.395 405.376 277.605 404.532 277.118L398.234 273.482C397.373 272.985 396.005 272.936 395.059 273.365L390.669 275.334C389.656 275.119 388.609 274.963 387.546 274.856L385.452 271.873C385.013 271.23 383.797 270.879 382.632 271.064L374.004 272.4C372.839 272.585 372.096 273.228 372.248 273.92L373.008 277.108C372.602 277.303 372.214 277.508 371.826 277.732C371.437 277.956 371.083 278.18 370.728 278.424L365.207 277.986C364.025 277.888 362.894 278.327 362.573 278.999L360.277 283.971C359.956 284.644 360.564 285.346 361.678 285.599L366.845 286.808C367.03 287.422 367.301 288.026 367.672 288.611L364.261 291.146C363.518 291.692 363.603 292.482 364.447 292.969L370.745 296.605C371.589 297.093 372.957 297.141 373.903 296.712L378.293 294.743C379.306 294.958 380.353 295.114 381.416 295.221L383.51 298.204C383.949 298.847 385.165 299.198 386.33 299.013L394.941 297.687C396.106 297.502 396.849 296.859 396.697 296.166L395.937 292.979C396.376 292.784 396.765 292.579 397.153 292.355ZM378.647 288.494C375.388 286.613 375.388 283.552 378.647 281.67C381.906 279.789 387.208 279.789 390.467 281.67C393.725 283.552 393.725 286.613 390.467 288.494C387.208 290.376 381.906 290.376 378.647 288.494Z" fill="#4533CE"/>
<path d="M397.153 291.249C397.541 291.025 397.896 290.8 398.251 290.557L403.772 290.995C404.954 291.093 406.085 290.654 406.406 289.982L408.702 285.01C409.023 284.337 408.415 283.635 407.301 283.382L402.134 282.173C401.948 281.559 401.678 280.954 401.307 280.37L404.718 277.835C405.46 277.289 405.376 276.499 404.532 276.012L398.234 272.376C397.373 271.879 396.005 271.83 395.059 272.259L390.669 274.228C389.656 274.013 388.609 273.858 387.546 273.75L385.452 270.767C385.013 270.124 383.797 269.773 382.632 269.958L374.004 271.294C372.839 271.479 372.096 272.122 372.248 272.814L373.008 276.002C372.602 276.197 372.214 276.402 371.826 276.626C371.437 276.85 371.083 277.075 370.728 277.318L365.207 276.88C364.025 276.782 362.894 277.221 362.573 277.893L360.277 282.865C359.956 283.538 360.564 284.24 361.678 284.493L366.845 285.702C367.03 286.316 367.301 286.92 367.672 287.505L364.261 290.04C363.518 290.586 363.603 291.376 364.447 291.863L370.745 295.499C371.589 295.987 372.957 296.035 373.903 295.606L378.293 293.637C379.306 293.852 380.353 294.008 381.416 294.115L383.51 297.098C383.949 297.741 385.165 298.092 386.33 297.907L394.941 296.581C396.106 296.396 396.849 295.753 396.697 295.06L395.937 291.873C396.376 291.678 396.765 291.473 397.153 291.249ZM378.647 287.388C375.388 285.507 375.388 282.446 378.647 280.564C381.906 278.683 387.208 278.683 390.467 280.564C393.725 282.446 393.725 285.507 390.467 287.388C387.208 289.27 381.906 289.27 378.647 287.388Z" fill="#4533CE"/>
<path d="M397.153 290.143C397.541 289.918 397.896 289.694 398.251 289.45L403.772 289.889C404.954 289.987 406.085 289.548 406.406 288.875L408.702 283.904C409.023 283.231 408.415 282.529 407.301 282.276L402.134 281.067C401.948 280.453 401.678 279.848 401.307 279.263L404.718 276.729C405.46 276.183 405.376 275.393 404.532 274.906L398.234 271.27C397.373 270.772 396.005 270.724 395.059 271.153L390.669 273.122C389.656 272.907 388.609 272.751 387.546 272.644L385.452 269.661C385.013 269.018 383.797 268.667 382.632 268.852L374.004 270.187C372.839 270.373 372.096 271.016 372.248 271.708L373.008 274.896C372.602 275.091 372.214 275.296 371.826 275.52C371.437 275.744 371.083 275.968 370.728 276.212L365.207 275.773C364.025 275.676 362.894 276.115 362.573 276.787L360.277 281.759C359.956 282.432 360.564 283.133 361.678 283.387L366.845 284.596C367.03 285.21 367.301 285.814 367.672 286.399L364.261 288.934C363.518 289.48 363.603 290.269 364.447 290.757L370.745 294.393C371.589 294.88 372.957 294.929 373.903 294.5L378.293 292.531C379.306 292.745 380.353 292.901 381.416 293.009L383.51 295.992C383.949 296.635 385.165 296.986 386.33 296.801L394.941 295.475C396.106 295.29 396.849 294.646 396.697 293.954L395.937 290.767C396.376 290.572 396.765 290.367 397.153 290.143ZM378.647 286.282C375.388 284.401 375.388 281.34 378.647 279.458C381.906 277.577 387.208 277.577 390.467 279.458C393.725 281.34 393.725 284.401 390.467 286.282C387.208 288.164 381.906 288.164 378.647 286.282Z" fill="#4533CE"/>
<path d="M397.153 289.036C397.541 288.812 397.896 288.588 398.251 288.344L403.772 288.783C404.954 288.88 406.085 288.442 406.406 287.769L408.702 282.797C409.023 282.125 408.415 281.423 407.301 281.169L402.134 279.961C401.948 279.346 401.678 278.742 401.307 278.157L404.718 275.622C405.46 275.077 405.376 274.287 404.532 273.8L398.234 270.163C397.373 269.666 396.005 269.617 395.059 270.046L390.669 272.016C389.656 271.801 388.609 271.645 387.546 271.538L385.452 268.555C385.013 267.911 383.797 267.56 382.632 267.746L374.004 269.081C372.839 269.266 372.096 269.91 372.248 270.602L373.008 273.79C372.602 273.985 372.214 274.189 371.826 274.414C371.437 274.638 371.083 274.862 370.728 275.106L365.207 274.667C364.025 274.57 362.894 275.008 362.573 275.681L360.277 280.653C359.956 281.325 360.564 282.027 361.678 282.281L366.845 283.49C367.03 284.104 367.301 284.708 367.672 285.293L364.261 287.828C363.518 288.374 363.603 289.163 364.447 289.651L370.745 293.287C371.589 293.774 372.957 293.823 373.903 293.394L378.293 291.425C379.306 291.639 380.353 291.795 381.416 291.902L383.51 294.886C383.949 295.529 385.165 295.88 386.33 295.695L394.941 294.369C396.106 294.184 396.849 293.54 396.697 292.848L395.937 289.66C396.376 289.465 396.765 289.261 397.153 289.036ZM378.647 285.176C375.388 283.295 375.388 280.234 378.647 278.352C381.906 276.471 387.208 276.471 390.467 278.352C393.725 280.234 393.725 283.295 390.467 285.176C387.208 287.057 381.906 287.057 378.647 285.176Z" fill="#4533CE"/>
<g clip-path="url(#clip3_25188_53202)">
<path d="M397.153 289.292C397.541 289.067 397.896 288.843 398.25 288.599L403.772 289.038C404.954 289.136 406.085 288.697 406.406 288.024L408.702 283.053C409.023 282.38 408.415 281.678 407.301 281.425L402.134 280.216C401.948 279.602 401.678 278.997 401.307 278.412L404.717 275.878C405.46 275.332 405.376 274.542 404.532 274.055L398.234 270.418C397.372 269.921 396.005 269.873 395.059 270.301L390.669 272.271C389.656 272.056 388.609 271.9 387.545 271.793L385.452 268.81C385.013 268.167 383.797 267.816 382.632 268.001L374.004 269.336C372.839 269.522 372.096 270.165 372.248 270.857L373.007 274.045C372.602 274.24 372.214 274.445 371.826 274.669C371.437 274.893 371.083 275.117 370.728 275.361L365.207 274.922C364.025 274.825 362.893 275.263 362.573 275.936L360.276 280.908C359.955 281.58 360.563 282.282 361.678 282.536L366.845 283.745C367.03 284.359 367.3 284.963 367.672 285.548L364.261 288.083C363.518 288.629 363.603 289.418 364.447 289.906L370.745 293.542C371.589 294.029 372.957 294.078 373.902 293.649L378.292 291.68C379.306 291.894 380.352 292.05 381.416 292.158L383.51 295.141C383.949 295.784 385.165 296.135 386.33 295.95L394.941 294.624C396.106 294.439 396.849 293.795 396.697 293.103L395.937 289.915C396.376 289.72 396.765 289.516 397.153 289.292ZM378.647 285.431C375.388 283.55 375.388 280.489 378.647 278.607C381.906 276.726 387.208 276.726 390.466 278.607C393.725 280.489 393.725 283.55 390.466 285.431C387.208 287.313 381.906 287.313 378.647 285.431Z" fill="url(#paint6_linear_25188_53202)"/>
</g>
<path d="M506.58 196.305C517.605 196.305 527.528 198.865 534.655 202.944C541.814 207.043 545.934 212.526 545.934 218.328C545.934 224.13 541.814 229.613 534.655 233.711C527.528 237.79 517.605 240.352 506.58 240.352C495.554 240.352 485.63 237.79 478.503 233.711C471.344 229.613 467.225 224.13 467.225 218.328C467.225 212.526 471.344 207.043 478.503 202.944C485.63 198.865 495.554 196.305 506.58 196.305Z" stroke="#5F2FCB" stroke-width="2.36089"/>
<path d="M506.58 177.926C515.646 177.926 524.016 179.63 530.768 182.509L547.114 182.509L547.114 201.13L547.101 201.729C546.546 214.267 528.616 224.334 506.58 224.334C484.543 224.334 466.613 214.267 466.058 201.729L466.044 201.13L466.044 182.509L482.39 182.509C489.142 179.63 497.513 177.926 506.58 177.926Z" fill="#5506D7"/>
<ellipse cx="506.579" cy="181.078" rx="40.5348" ry="23.2039" fill="#3B009B"/>
<path d="M506.58 151.637C515.646 151.637 524.016 153.341 530.768 156.22L547.114 156.22L547.114 174.841L547.101 175.439C546.546 187.978 528.616 198.045 506.58 198.045C484.543 198.045 466.613 187.978 466.058 175.439L466.044 174.841L466.044 156.22L482.39 156.22C489.142 153.341 497.513 151.637 506.58 151.637Z" fill="#5506D7"/>
<ellipse cx="506.579" cy="154.788" rx="40.5348" ry="23.2039" fill="#3B009B"/>
<path d="M506.58 125.428C515.646 125.429 524.016 127.133 530.768 130.011L547.114 130.011L547.114 148.633L547.101 149.231C546.546 161.77 528.616 171.837 506.58 171.837C484.543 171.837 466.613 161.77 466.058 149.231L466.044 148.633L466.044 130.011L482.39 130.011C489.142 127.133 497.513 125.428 506.58 125.428Z" fill="#660BFA"/>
<ellipse cx="506.579" cy="128.581" rx="40.5348" ry="23.2039" fill="#8C49FA"/>
<g filter="url(#filter6_f_25188_53202)" style="mix-blend-mode:multiply">
<circle cx="499.56" cy="201.129" r="39.7026" fill="#9C84FF" style="mix-blend-mode:lighten"/>
</g>
</g>
<defs>
<filter id="filter0_f_25188_53202" x="303.031" y="57.6087" width="209.894" height="209.894" filterUnits="userSpaceOnUse" color-interpolation-filters="sRGB">
<feFlood flood-opacity="0" result="BackgroundImageFix"/>
<feBlend mode="normal" in="SourceGraphic" in2="BackgroundImageFix" result="shape"/>
<feGaussianBlur stdDeviation="35.9096" result="effect1_foregroundBlur_25188_53202"/>
</filter>
<filter id="filter1_f_25188_53202" x="344.672" y="82.9862" width="236.449" height="243.618" filterUnits="userSpaceOnUse" color-interpolation-filters="sRGB">
<feFlood flood-opacity="0" result="BackgroundImageFix"/>
<feBlend mode="normal" in="SourceGraphic" in2="BackgroundImageFix" result="shape"/>
<feGaussianBlur stdDeviation="39.261" result="effect1_foregroundBlur_25188_53202"/>
</filter>
<filter id="filter2_d_25188_53202" x="124.285" y="39.547" width="278.596" height="242.969" filterUnits="userSpaceOnUse" color-interpolation-filters="sRGB">
<feFlood flood-opacity="0" result="BackgroundImageFix"/>
<feColorMatrix in="SourceAlpha" type="matrix" values="0 0 0 0 0 0 0 0 0 0 0 0 0 0 0 0 0 0 127 0" result="hardAlpha"/>
<feOffset dy="6.69823"/>
<feGaussianBlur stdDeviation="40.2676"/>
<feComposite in2="hardAlpha" operator="out"/>
<feColorMatrix type="matrix" values="0 0 0 0 0.396 0 0 0 0 0 0 0 0 0 0.9 0 0 0 1 0"/>
<feBlend mode="normal" in2="BackgroundImageFix" result="effect1_dropShadow_25188_53202"/>
<feBlend mode="normal" in="SourceGraphic" in2="effect1_dropShadow_25188_53202" result="shape"/>
</filter>
<filter id="filter3_f_25188_53202" x="83.9226" y="0.257446" width="236.449" height="236.449" filterUnits="userSpaceOnUse" color-interpolation-filters="sRGB">
<feFlood flood-opacity="0" result="BackgroundImageFix"/>
<feBlend mode="normal" in="SourceGraphic" in2="BackgroundImageFix" result="shape"/>
<feGaussianBlur stdDeviation="39.261" result="effect1_foregroundBlur_25188_53202"/>
</filter>
<filter id="filter4_f_25188_53202" x="219.744" y="8.62695" width="236.449" height="236.449" filterUnits="userSpaceOnUse" color-interpolation-filters="sRGB">
<feFlood flood-opacity="0" result="BackgroundImageFix"/>
<feBlend mode="normal" in="SourceGraphic" in2="BackgroundImageFix" result="shape"/>
<feGaussianBlur stdDeviation="39.261" result="effect1_foregroundBlur_25188_53202"/>
</filter>
<filter id="filter5_f_25188_53202" x="-38.6862" y="112.727" width="356.948" height="356.948" filterUnits="userSpaceOnUse" color-interpolation-filters="sRGB">
<feFlood flood-opacity="0" result="BackgroundImageFix"/>
<feBlend mode="normal" in="SourceGraphic" in2="BackgroundImageFix" result="shape"/>
<feGaussianBlur stdDeviation="39.261" result="effect1_foregroundBlur_25188_53202"/>
</filter>
<filter id="filter6_f_25188_53202" x="381.335" y="82.9044" width="236.449" height="236.449" filterUnits="userSpaceOnUse" color-interpolation-filters="sRGB">
<feFlood flood-opacity="0" result="BackgroundImageFix"/>
<feBlend mode="normal" in="SourceGraphic" in2="BackgroundImageFix" result="shape"/>
<feGaussianBlur stdDeviation="39.261" result="effect1_foregroundBlur_25188_53202"/>
</filter>
<linearGradient id="paint0_linear_25188_53202" x1="305.273" y1="240.052" x2="332.723" y2="253.965" gradientUnits="userSpaceOnUse">
<stop stop-color="#B773F8"/>
<stop offset="1" stop-color="#3B14AB"/>
</linearGradient>
<linearGradient id="paint1_linear_25188_53202" x1="205.764" y1="88.2983" x2="275.257" y2="207.944" gradientUnits="userSpaceOnUse">
<stop offset="0.015625" stop-color="#B010FB"/>
<stop offset="0.130208" stop-color="#DE97FF"/>
<stop offset="0.234375" stop-color="#A227DB"/>
<stop offset="0.505208" stop-color="#A227DB" stop-opacity="0"/>
<stop offset="0.765625" stop-color="#A610EC" stop-opacity="0.84"/>
</linearGradient>
<linearGradient id="paint2_linear_25188_53202" x1="416.687" y1="259.194" x2="407.626" y2="215.585" gradientUnits="userSpaceOnUse">
<stop stop-color="#3B14AB"/>
<stop offset="1" stop-color="#C992FC"/>
</linearGradient>
<linearGradient id="paint3_linear_25188_53202" x1="416.688" y1="259.194" x2="411.398" y2="228.781" gradientUnits="userSpaceOnUse">
<stop stop-color="#3B14AB"/>
<stop offset="1" stop-color="#B46AF9"/>
</linearGradient>
<linearGradient id="paint4_linear_25188_53202" x1="222.385" y1="244.442" x2="217.096" y2="214.029" gradientUnits="userSpaceOnUse">
<stop stop-color="#04AA75"/>
<stop offset="1" stop-color="#B46AF9"/>
</linearGradient>
<linearGradient id="paint5_linear_25188_53202" x1="160.603" y1="290.899" x2="150.052" y2="272.643" gradientUnits="userSpaceOnUse">
<stop offset="0.03125" stop-color="#A3F9DF"/>
<stop offset="0.96875" stop-color="#A2FFAB"/>
</linearGradient>
<linearGradient id="paint6_linear_25188_53202" x1="351.187" y1="282.25" x2="362.202" y2="301.351" gradientUnits="userSpaceOnUse">
<stop offset="0.03125" stop-color="#E151F7"/>
<stop offset="0.96875" stop-color="#5C47F5"/>
</linearGradient>
<clipPath id="clip0_25188_53202">
<rect width="603.494" height="450" fill="white"/>
</clipPath>
<clipPath id="clip1_25188_53202">
<rect width="48.318" height="48.318" fill="white" transform="matrix(-0.866025 -0.5 -0.866025 0.5 204.191 271.773)"/>
</clipPath>
<clipPath id="clip2_25188_53202">
<rect width="46.7928" height="46.7928" fill="white" transform="matrix(0.866025 0.5 -0.866025 0.5 384.489 262.752)"/>
</clipPath>
<clipPath id="clip3_25188_53202">
<rect width="46.7928" height="46.7928" fill="white" transform="matrix(0.866025 0.5 -0.866025 0.5 384.489 258.584)"/>
</clipPath>
</defs>
</svg>
