<svg width="568" height="221" viewBox="0 0 568 221" fill="none" xmlns="http://www.w3.org/2000/svg">
<g filter="url(#filter0_d_5305_29142)">
<rect x="107.039" y="35.3726" width="77.0454" height="72.5243" rx="7.23624" fill="#10051F"/>
<rect x="107.485" y="35.8188" width="76.1529" height="71.6318" rx="6.78997" stroke="url(#paint0_linear_5305_29142)" stroke-width="0.892533"/>
</g>
<path d="M135.489 80.0587L125.933 73.8696V71.3445L135.489 65.1554V68.448L128.929 72.5575V72.6566L135.489 76.7661V80.0587ZM139.738 84.7872L147.883 63.2491H150.928L142.783 84.7872H139.738ZM155.176 80.0587V76.7661L161.736 72.6566V72.5575L155.176 68.448V65.1554L164.732 71.3445V73.8696L155.176 80.0587Z" fill="url(#paint1_linear_5305_29142)"/>
<g filter="url(#filter1_d_5305_29142)">
<rect x="246.064" y="35.103" width="77.0454" height="72.5243" rx="7.23624" fill="#10051F"/>
<rect x="246.511" y="35.5493" width="76.1529" height="71.6318" rx="6.78997" stroke="url(#paint2_linear_5305_29142)" stroke-width="0.892533"/>
</g>
<g filter="url(#filter2_ddddd_5305_29142)">
<path d="M437.848 78.4299V86.1142H449.058C443.742 95.2968 433.803 101.483 422.438 101.483C408.107 101.483 396.049 91.6468 392.621 78.4299H384.685C388.268 95.95 403.793 109.167 422.438 109.167C435.036 109.167 446.246 103.096 453.258 93.76V101.483H460.962V78.4299H437.848Z" fill="#5A3ABC"/>
<path d="M407.028 63.0612V55.377H395.818C401.134 46.1943 411.073 40.0085 422.438 40.0085C436.769 40.0085 448.827 49.8443 452.256 63.0612H460.191C456.609 45.5411 441.084 32.3242 422.438 32.3242C409.841 32.3242 398.63 38.3948 391.619 47.7311V40.0085H383.914V63.0612H407.028Z" fill="#5A3ABC"/>
</g>
<path d="M189.752 69.9526H242.894" stroke="#8405FF" stroke-width="1.58632"/>
<path fill-rule="evenodd" clip-rule="evenodd" d="M184.199 76.2984C187.703 76.2984 190.544 73.4576 190.544 69.9532C190.544 66.4488 187.703 63.6079 184.199 63.6079C180.694 63.6079 177.854 66.4488 177.854 69.9532C177.854 73.4576 180.694 76.2984 184.199 76.2984ZM184.199 74.7121C186.827 74.7121 188.958 72.5815 188.958 69.9532C188.958 67.3249 186.827 65.1942 184.199 65.1942C181.57 65.1942 179.44 67.3249 179.44 69.9532C179.44 72.5815 181.57 74.7121 184.199 74.7121ZM187.371 69.9529C187.371 71.7051 185.951 73.1256 184.199 73.1256C182.447 73.1256 181.026 71.7051 181.026 69.9529C181.026 68.2007 182.447 66.7803 184.199 66.7803C185.951 66.7803 187.371 68.2007 187.371 69.9529Z" fill="#8405FF"/>
<path fill-rule="evenodd" clip-rule="evenodd" d="M245.682 69.9528L239.337 74.7117V65.1938L245.682 69.9528Z" fill="#8405FF"/>
<path d="M327.604 69.9526H380.745" stroke="#8405FF" stroke-width="1.58632"/>
<path fill-rule="evenodd" clip-rule="evenodd" d="M322.05 76.2984C325.555 76.2984 328.396 73.4576 328.396 69.9532C328.396 66.4488 325.555 63.6079 322.05 63.6079C318.546 63.6079 315.705 66.4488 315.705 69.9532C315.705 73.4576 318.546 76.2984 322.05 76.2984ZM322.05 74.7121C324.679 74.7121 326.809 72.5815 326.809 69.9532C326.809 67.3249 324.679 65.1942 322.05 65.1942C319.422 65.1942 317.291 67.3249 317.291 69.9532C317.291 72.5815 319.422 74.7121 322.05 74.7121ZM325.223 69.9529C325.223 71.7051 323.803 73.1256 322.05 73.1256C320.298 73.1256 318.878 71.7051 318.878 69.9529C318.878 68.2007 320.298 66.7803 322.05 66.7803C323.803 66.7803 325.223 68.2007 325.223 69.9529Z" fill="#8405FF"/>
<path fill-rule="evenodd" clip-rule="evenodd" d="M383.533 69.9528L377.188 74.7117V65.1938L383.533 69.9528Z" fill="#8405FF"/>
<path d="M289.053 71.9832H291.579V76.7327L295.689 79.1075L294.425 81.297L289.053 78.198V71.9832ZM295.79 63.5619H272.21V82.0886H280.076C279.351 80.556 278.947 78.838 278.947 77.0359C278.947 73.9091 280.189 70.9103 282.4 68.6993C284.611 66.4883 287.61 65.2462 290.737 65.2462C292.539 65.2462 294.257 65.6504 295.79 66.3746V63.5619ZM272.21 85.4571C270.341 85.4571 268.842 83.9413 268.842 82.0886V58.5092C268.842 56.6397 270.341 55.1407 272.21 55.1407H273.895V51.7722H277.263V55.1407H290.737V51.7722H294.105V55.1407H295.79C296.683 55.1407 297.54 55.4956 298.172 56.1273C298.803 56.759 299.158 57.6158 299.158 58.5092V68.7831C301.247 70.9052 302.527 73.819 302.527 77.0359C302.527 80.1627 301.285 83.1615 299.074 85.3725C296.863 87.5835 293.864 88.8256 290.737 88.8256C287.52 88.8256 284.606 87.5456 282.484 85.4571H272.21ZM290.737 68.8673C288.571 68.8673 286.493 69.7279 284.961 71.2598C283.429 72.7917 282.568 74.8694 282.568 77.0359C282.568 81.5497 286.223 85.2045 290.737 85.2045C291.81 85.2045 292.872 84.9932 293.863 84.5827C294.854 84.1722 295.755 83.5705 296.513 82.8119C297.272 82.0534 297.873 81.1529 298.284 80.1619C298.694 79.1708 298.906 78.1086 298.906 77.0359C298.906 72.5221 295.251 68.8673 290.737 68.8673Z" fill="url(#paint3_linear_5305_29142)"/>
<path d="M426.432 79.4898C426.472 79.1698 426.502 78.8498 426.502 78.5098C426.502 78.1698 426.472 77.8498 426.432 77.5298L428.542 75.8798C428.732 75.7298 428.782 75.4598 428.662 75.2398L426.662 71.7798C426.572 71.6198 426.402 71.5298 426.222 71.5298C426.162 71.5298 426.102 71.5398 426.052 71.5598L423.562 72.5598C423.042 72.1598 422.482 71.8298 421.872 71.5798L421.492 68.9298C421.462 68.6898 421.252 68.5098 421.002 68.5098H417.002C416.752 68.5098 416.542 68.6898 416.512 68.9298L416.132 71.5798C415.522 71.8298 414.962 72.1698 414.442 72.5598L411.952 71.5598C411.892 71.5398 411.832 71.5298 411.772 71.5298C411.602 71.5298 411.432 71.6198 411.342 71.7798L409.342 75.2398C409.212 75.4598 409.272 75.7298 409.462 75.8798L411.572 77.5298C411.532 77.8498 411.502 78.1798 411.502 78.5098C411.502 78.8398 411.532 79.1698 411.572 79.4898L409.462 81.1398C409.272 81.2898 409.222 81.5598 409.342 81.7798L411.342 85.2398C411.432 85.3998 411.602 85.4898 411.782 85.4898C411.842 85.4898 411.902 85.4798 411.952 85.4598L414.442 84.4598C414.962 84.8598 415.522 85.1898 416.132 85.4398L416.512 88.0898C416.542 88.3298 416.752 88.5098 417.002 88.5098H421.002C421.252 88.5098 421.462 88.3298 421.492 88.0898L421.872 85.4398C422.482 85.1898 423.042 84.8498 423.562 84.4598L426.052 85.4598C426.112 85.4798 426.172 85.4898 426.232 85.4898C426.402 85.4898 426.572 85.3998 426.662 85.2398L428.662 81.7798C428.782 81.5598 428.732 81.2898 428.542 81.1398L426.432 79.4898ZM424.452 77.7798C424.492 78.0898 424.502 78.2998 424.502 78.5098C424.502 78.7198 424.482 78.9398 424.452 79.2398L424.312 80.3698L425.202 81.0698L426.282 81.9098L425.582 83.1198L424.312 82.6098L423.272 82.1898L422.372 82.8698C421.942 83.1898 421.532 83.4298 421.122 83.5998L420.062 84.0298L419.902 85.1598L419.702 86.5098H418.302L417.952 84.0298L416.892 83.5998C416.462 83.4198 416.062 83.1898 415.662 82.8898L414.752 82.1898L413.692 82.6198L412.422 83.1298L411.722 81.9198L412.802 81.0798L413.692 80.3798L413.552 79.2498C413.522 78.9398 413.502 78.7098 413.502 78.5098C413.502 78.3098 413.522 78.0798 413.552 77.7798L413.692 76.6498L412.802 75.9498L411.722 75.1098L412.422 73.8998L413.692 74.4098L414.732 74.8298L415.632 74.1498C416.062 73.8298 416.472 73.5898 416.882 73.4198L417.942 72.9898L418.102 71.8598L418.302 70.5098H419.692L420.042 72.9898L421.102 73.4198C421.532 73.5998 421.932 73.8298 422.332 74.1298L423.242 74.8298L424.302 74.3998L425.572 73.8898L426.272 75.0998L425.202 75.9498L424.312 76.6498L424.452 77.7798ZM419.002 74.5098C416.792 74.5098 415.002 76.2998 415.002 78.5098C415.002 80.7198 416.792 82.5098 419.002 82.5098C421.212 82.5098 423.002 80.7198 423.002 78.5098C423.002 76.2998 421.212 74.5098 419.002 74.5098ZM419.002 80.5098C417.902 80.5098 417.002 79.6098 417.002 78.5098C417.002 77.4098 417.902 76.5098 419.002 76.5098C420.102 76.5098 421.002 77.4098 421.002 78.5098C421.002 79.6098 420.102 80.5098 419.002 80.5098Z" fill="url(#paint4_linear_5305_29142)"/>
<g clip-path="url(#clip0_5305_29142)">
<path d="M433.979 66.0269C434.16 65.7597 434.331 65.4879 434.485 65.1848C434.639 64.8817 434.757 64.5828 434.867 64.2793L437.495 63.7637C437.732 63.716 437.899 63.4979 437.892 63.2474L437.676 59.2568C437.668 59.0734 437.557 58.9162 437.396 58.8347C437.343 58.8075 437.285 58.7893 437.231 58.7845L434.558 58.5485C434.276 57.9564 433.926 57.4086 433.495 56.9094L434.357 54.3746C434.439 54.1471 434.333 53.8915 434.11 53.7783L430.544 51.9669C430.321 51.8537 430.052 51.9191 429.916 52.1195L428.378 54.3101C427.721 54.2568 427.067 54.3064 426.427 54.4186L424.66 52.3995C424.615 52.3545 424.566 52.3184 424.513 52.2912C424.361 52.2142 424.169 52.2175 424.016 52.3194L420.666 54.4986C420.451 54.6359 420.382 54.9038 420.484 55.1236L421.618 57.5502C421.437 57.8174 421.261 58.098 421.111 58.3923C420.962 58.6865 420.839 58.9943 420.73 59.2977L418.102 59.8134C417.864 59.8611 417.697 60.0791 417.705 60.3296L417.921 64.3202C417.929 64.5036 418.04 64.6609 418.2 64.7424C418.254 64.7695 418.312 64.7878 418.365 64.7926L421.038 65.0286C421.321 65.6207 421.671 66.1685 422.101 66.6676L421.24 69.2024C421.158 69.43 421.264 69.6856 421.487 69.7988L425.053 71.6101C425.276 71.7233 425.545 71.658 425.68 71.4576L427.219 69.2669C427.876 69.3202 428.529 69.2707 429.17 69.1584L430.937 71.1776C430.981 71.2226 431.03 71.2587 431.084 71.2859C431.235 71.3628 431.428 71.3596 431.58 71.2577L434.93 69.0784C435.137 68.9366 435.215 68.6733 435.113 68.4535L433.979 66.0269ZM432.988 63.6056C432.883 63.9001 432.797 64.0919 432.702 64.2791C432.607 64.4664 432.49 64.6535 432.327 64.9074L431.69 65.8515L432.167 66.8786L432.749 68.1166L431.577 68.8784L430.676 67.8486L429.939 67.0032L428.829 67.2019C428.3 67.2925 427.826 67.3208 427.384 67.2868L426.244 67.1901L425.589 68.1252L424.8 69.2383L423.552 68.6043L424.363 66.2346L423.612 65.3713C423.31 65.016 423.058 64.6298 422.837 64.1812L422.343 63.145L421.203 63.0484L419.84 62.928L419.763 61.5322L421.107 61.2723L422.217 61.0512L422.604 59.9803C422.718 59.6904 422.804 59.4762 422.895 59.2979C422.985 59.1196 423.107 58.9236 423.27 58.6697L423.906 57.7256L423.43 56.6985L422.847 55.4605L424.019 54.6986L424.921 55.7284L425.658 56.5739L426.768 56.3751C427.296 56.2845 427.771 56.2562 428.213 56.2903L429.353 56.3869L430.007 55.4519L430.797 54.3388L432.036 54.9682L431.225 57.3379L431.976 58.2013C432.278 58.5565 432.53 58.9427 432.751 59.3913L433.245 60.4275L434.385 60.5241L435.748 60.6445L435.824 62.0403L434.485 62.3136L433.375 62.5347L432.988 63.6056ZM429.61 58.2222C427.639 57.2214 425.233 58.0068 424.232 59.9772C423.231 61.9476 424.017 64.3541 425.987 65.3549C427.957 66.3557 430.364 65.5703 431.365 63.5999C432.365 61.6295 431.58 59.2229 429.61 58.2222ZM426.893 63.5717C425.912 63.0736 425.517 61.8636 426.015 60.8829C426.513 59.9021 427.723 59.5072 428.704 60.0053C429.685 60.5035 430.08 61.7135 429.582 62.6942C429.083 63.675 427.873 64.0698 426.893 63.5717Z" fill="url(#paint5_linear_5305_29142)"/>
</g>
<defs>
<filter id="filter0_d_5305_29142" x="85.6183" y="35.3726" width="119.887" height="115.366" filterUnits="userSpaceOnUse" color-interpolation-filters="sRGB">
<feFlood flood-opacity="0" result="BackgroundImageFix"/>
<feColorMatrix in="SourceAlpha" type="matrix" values="0 0 0 0 0 0 0 0 0 0 0 0 0 0 0 0 0 0 127 0" result="hardAlpha"/>
<feOffset dy="21.4208"/>
<feGaussianBlur stdDeviation="10.7104"/>
<feComposite in2="hardAlpha" operator="out"/>
<feColorMatrix type="matrix" values="0 0 0 0 0.352941 0 0 0 0 0.184314 0 0 0 0 0.835294 0 0 0 0.22 0"/>
<feBlend mode="normal" in2="BackgroundImageFix" result="effect1_dropShadow_5305_29142"/>
<feBlend mode="normal" in="SourceGraphic" in2="effect1_dropShadow_5305_29142" result="shape"/>
</filter>
<filter id="filter1_d_5305_29142" x="224.644" y="35.103" width="119.887" height="115.366" filterUnits="userSpaceOnUse" color-interpolation-filters="sRGB">
<feFlood flood-opacity="0" result="BackgroundImageFix"/>
<feColorMatrix in="SourceAlpha" type="matrix" values="0 0 0 0 0 0 0 0 0 0 0 0 0 0 0 0 0 0 127 0" result="hardAlpha"/>
<feOffset dy="21.4208"/>
<feGaussianBlur stdDeviation="10.7104"/>
<feComposite in2="hardAlpha" operator="out"/>
<feColorMatrix type="matrix" values="0 0 0 0 0.352941 0 0 0 0 0.184314 0 0 0 0 0.835294 0 0 0 0.22 0"/>
<feBlend mode="normal" in2="BackgroundImageFix" result="effect1_dropShadow_5305_29142"/>
<feBlend mode="normal" in="SourceGraphic" in2="effect1_dropShadow_5305_29142" result="shape"/>
</filter>
<filter id="filter2_ddddd_5305_29142" x="359.914" y="27.3242" width="125.048" height="192.843" filterUnits="userSpaceOnUse" color-interpolation-filters="sRGB">
<feFlood flood-opacity="0" result="BackgroundImageFix"/>
<feColorMatrix in="SourceAlpha" type="matrix" values="0 0 0 0 0 0 0 0 0 0 0 0 0 0 0 0 0 0 127 0" result="hardAlpha"/>
<feOffset dy="3"/>
<feGaussianBlur stdDeviation="4"/>
<feColorMatrix type="matrix" values="0 0 0 0 0.172549 0 0 0 0 0.164706 0 0 0 0 0.572549 0 0 0 0.29 0"/>
<feBlend mode="normal" in2="BackgroundImageFix" result="effect1_dropShadow_5305_29142"/>
<feColorMatrix in="SourceAlpha" type="matrix" values="0 0 0 0 0 0 0 0 0 0 0 0 0 0 0 0 0 0 127 0" result="hardAlpha"/>
<feOffset dy="14"/>
<feGaussianBlur stdDeviation="7"/>
<feColorMatrix type="matrix" values="0 0 0 0 0.172549 0 0 0 0 0.164706 0 0 0 0 0.572549 0 0 0 0.26 0"/>
<feBlend mode="normal" in2="effect1_dropShadow_5305_29142" result="effect2_dropShadow_5305_29142"/>
<feColorMatrix in="SourceAlpha" type="matrix" values="0 0 0 0 0 0 0 0 0 0 0 0 0 0 0 0 0 0 127 0" result="hardAlpha"/>
<feOffset dy="31"/>
<feGaussianBlur stdDeviation="9.5"/>
<feColorMatrix type="matrix" values="0 0 0 0 0.172549 0 0 0 0 0.164706 0 0 0 0 0.572549 0 0 0 0.15 0"/>
<feBlend mode="normal" in2="effect2_dropShadow_5305_29142" result="effect3_dropShadow_5305_29142"/>
<feColorMatrix in="SourceAlpha" type="matrix" values="0 0 0 0 0 0 0 0 0 0 0 0 0 0 0 0 0 0 127 0" result="hardAlpha"/>
<feOffset dy="56"/>
<feGaussianBlur stdDeviation="11"/>
<feColorMatrix type="matrix" values="0 0 0 0 0.172549 0 0 0 0 0.164706 0 0 0 0 0.572549 0 0 0 0.04 0"/>
<feBlend mode="normal" in2="effect3_dropShadow_5305_29142" result="effect4_dropShadow_5305_29142"/>
<feColorMatrix in="SourceAlpha" type="matrix" values="0 0 0 0 0 0 0 0 0 0 0 0 0 0 0 0 0 0 127 0" result="hardAlpha"/>
<feOffset dy="87"/>
<feGaussianBlur stdDeviation="12"/>
<feColorMatrix type="matrix" values="0 0 0 0 0.172549 0 0 0 0 0.164706 0 0 0 0 0.572549 0 0 0 0.01 0"/>
<feBlend mode="normal" in2="effect4_dropShadow_5305_29142" result="effect5_dropShadow_5305_29142"/>
<feBlend mode="normal" in="SourceGraphic" in2="effect5_dropShadow_5305_29142" result="shape"/>
</filter>
<linearGradient id="paint0_linear_5305_29142" x1="118.647" y1="48.8363" x2="178.923" y2="112.764" gradientUnits="userSpaceOnUse">
<stop offset="0.015625" stop-color="#B010FB"/>
<stop offset="0.130208" stop-color="#DE97FF"/>
<stop offset="0.234375" stop-color="#A227DB"/>
<stop offset="0.505208" stop-color="#A227DB" stop-opacity="0"/>
<stop offset="0.765625" stop-color="#A610EC" stop-opacity="0.84"/>
</linearGradient>
<linearGradient id="paint1_linear_5305_29142" x1="129.841" y1="61.1381" x2="157.084" y2="97.1345" gradientUnits="userSpaceOnUse">
<stop offset="0.015625" stop-color="#F2D5FF"/>
<stop offset="1" stop-color="#CB5AFF"/>
</linearGradient>
<linearGradient id="paint2_linear_5305_29142" x1="257.673" y1="48.5667" x2="317.949" y2="112.494" gradientUnits="userSpaceOnUse">
<stop offset="0.015625" stop-color="#B010FB"/>
<stop offset="0.130208" stop-color="#DE97FF"/>
<stop offset="0.234375" stop-color="#A227DB"/>
<stop offset="0.505208" stop-color="#A227DB" stop-opacity="0"/>
<stop offset="0.765625" stop-color="#A610EC" stop-opacity="0.84"/>
</linearGradient>
<linearGradient id="paint3_linear_5305_29142" x1="273.917" y1="58.6509" x2="304.621" y2="86.5179" gradientUnits="userSpaceOnUse">
<stop offset="0.015625" stop-color="#F2D5FF"/>
<stop offset="1" stop-color="#CB5AFF"/>
</linearGradient>
<linearGradient id="paint4_linear_5305_29142" x1="412.204" y1="72.2226" x2="428.848" y2="88.3856" gradientUnits="userSpaceOnUse">
<stop offset="0.015625" stop-color="#F2D5FF"/>
<stop offset="1" stop-color="#CB5AFF"/>
</linearGradient>
<linearGradient id="paint5_linear_5305_29142" x1="424.584" y1="53.1045" x2="432.105" y2="75.0523" gradientUnits="userSpaceOnUse">
<stop offset="0.015625" stop-color="#F2D5FF"/>
<stop offset="1" stop-color="#CB5AFF"/>
</linearGradient>
<clipPath id="clip0_5305_29142">
<rect width="24" height="24" fill="white" transform="translate(422.531 45.6543) rotate(26.9258)"/>
</clipPath>
</defs>
</svg>
