<svg width="568" height="221" viewBox="0 0 568 221" fill="none" xmlns="http://www.w3.org/2000/svg">
<g filter="url(#filter0_d_4805_28004)">
<rect x="107.039" y="35.373" width="77.0454" height="72.5243" rx="7.23624" fill="#10051F"/>
<rect x="107.485" y="35.8193" width="76.1529" height="71.6318" rx="6.78997" stroke="url(#paint0_linear_4805_28004)" stroke-width="0.892533"/>
</g>
<path d="M135.49 80.0587L125.934 73.8696V71.3445L135.49 65.1554V68.448L128.93 72.5575V72.6566L135.49 76.7661V80.0587ZM139.739 84.7872L147.883 63.2491H150.929L142.784 84.7872H139.739ZM155.177 80.0587V76.7661L161.737 72.6566V72.5575L155.177 68.448V65.1554L164.733 71.3445V73.8696L155.177 80.0587Z" fill="url(#paint1_linear_4805_28004)"/>
<g filter="url(#filter1_d_4805_28004)">
<rect x="246.064" y="35.1035" width="77.0454" height="72.5243" rx="7.23624" fill="#10051F"/>
<rect x="246.511" y="35.5498" width="76.1529" height="71.6318" rx="6.78997" stroke="url(#paint2_linear_4805_28004)" stroke-width="0.892533"/>
</g>
<g filter="url(#filter2_ddddd_4805_28004)">
<path d="M437.848 78.4299V86.1142H449.058C443.742 95.2968 433.803 101.483 422.438 101.483C408.107 101.483 396.049 91.6468 392.621 78.4299H384.685C388.268 95.95 403.793 109.167 422.438 109.167C435.036 109.167 446.246 103.096 453.258 93.76V101.483H460.962V78.4299H437.848Z" fill="#5F00E8"/>
<path d="M407.028 63.0612V55.377H395.818C401.134 46.1943 411.073 40.0085 422.438 40.0085C436.769 40.0085 448.827 49.8443 452.256 63.0612H460.191C456.609 45.5411 441.084 32.3242 422.438 32.3242C409.841 32.3242 398.63 38.3948 391.619 47.7311V40.0085H383.914V63.0612H407.028Z" fill="#5F00E8"/>
</g>
<path d="M189.75 69.9533H242.892" stroke="#8405FF" stroke-width="1.58632"/>
<path fill-rule="evenodd" clip-rule="evenodd" d="M184.199 76.2989C187.703 76.2989 190.544 73.4581 190.544 69.9537C190.544 66.4493 187.703 63.6084 184.199 63.6084C180.694 63.6084 177.854 66.4493 177.854 69.9537C177.854 73.4581 180.694 76.2989 184.199 76.2989ZM184.199 74.7126C186.827 74.7126 188.958 72.582 188.958 69.9537C188.958 67.3254 186.827 65.1947 184.199 65.1947C181.57 65.1947 179.44 67.3254 179.44 69.9537C179.44 72.582 181.57 74.7126 184.199 74.7126ZM187.371 69.9534C187.371 71.7056 185.951 73.126 184.199 73.126C182.447 73.126 181.026 71.7056 181.026 69.9534C181.026 68.2012 182.447 66.7808 184.199 66.7808C185.951 66.7808 187.371 68.2012 187.371 69.9534Z" fill="#8405FF"/>
<path fill-rule="evenodd" clip-rule="evenodd" d="M245.682 69.9533L239.336 74.7122V65.1943L245.682 69.9533Z" fill="#8405FF"/>
<path d="M327.602 69.9533H380.743" stroke="#8405FF" stroke-width="1.58632"/>
<path fill-rule="evenodd" clip-rule="evenodd" d="M322.05 76.2989C325.555 76.2989 328.396 73.4581 328.396 69.9537C328.396 66.4493 325.555 63.6084 322.05 63.6084C318.546 63.6084 315.705 66.4493 315.705 69.9537C315.705 73.4581 318.546 76.2989 322.05 76.2989ZM322.05 74.7126C324.679 74.7126 326.809 72.582 326.809 69.9537C326.809 67.3254 324.679 65.1947 322.05 65.1947C319.422 65.1947 317.291 67.3254 317.291 69.9537C317.291 72.582 319.422 74.7126 322.05 74.7126ZM325.223 69.9534C325.223 71.7056 323.803 73.126 322.05 73.126C320.298 73.126 318.878 71.7056 318.878 69.9534C318.878 68.2012 320.298 66.7808 322.05 66.7808C323.803 66.7808 325.223 68.2012 325.223 69.9534Z" fill="#8405FF"/>
<path fill-rule="evenodd" clip-rule="evenodd" d="M383.533 69.9533L377.188 74.7122V65.1943L383.533 69.9533Z" fill="#8405FF"/>
<path d="M289.053 71.9834H291.579V76.733L295.689 79.1077L294.425 81.2973L289.053 78.1983V71.9834ZM295.79 63.5622H272.21V82.0889H280.076C279.351 80.5562 278.947 78.8383 278.947 77.0361C278.947 73.9093 280.189 70.9105 282.4 68.6995C284.611 66.4885 287.61 65.2464 290.737 65.2464C292.539 65.2464 294.257 65.6506 295.79 66.3749V63.5622ZM272.21 85.4574C270.341 85.4574 268.842 83.9415 268.842 82.0889V58.5094C268.842 56.6399 270.341 55.141 272.21 55.141H273.895V51.7725H277.263V55.141H290.737V51.7725H294.105V55.141H295.79C296.683 55.141 297.54 55.4958 298.172 56.1276C298.803 56.7593 299.158 57.6161 299.158 58.5094V68.7833C301.247 70.9055 302.527 73.8192 302.527 77.0361C302.527 80.163 301.285 83.1617 299.074 85.3727C296.863 87.5837 293.864 88.8258 290.737 88.8258C287.52 88.8258 284.606 87.5458 282.484 85.4574H272.21ZM290.737 68.8675C288.571 68.8675 286.493 69.7282 284.961 71.2601C283.429 72.792 282.568 74.8697 282.568 77.0361C282.568 81.5499 286.223 85.2047 290.737 85.2047C291.81 85.2047 292.872 84.9934 293.863 84.5829C294.854 84.1724 295.755 83.5707 296.513 82.8122C297.272 82.0537 297.873 81.1532 298.284 80.1621C298.694 79.1711 298.906 78.1088 298.906 77.0361C298.906 72.5224 295.251 68.8675 290.737 68.8675Z" fill="url(#paint3_linear_4805_28004)"/>
<path d="M426.433 79.4898C426.473 79.1698 426.503 78.8498 426.503 78.5098C426.503 78.1698 426.473 77.8498 426.433 77.5298L428.543 75.8798C428.733 75.7298 428.783 75.4598 428.663 75.2398L426.663 71.7798C426.573 71.6198 426.403 71.5298 426.223 71.5298C426.163 71.5298 426.103 71.5398 426.053 71.5598L423.563 72.5598C423.043 72.1598 422.483 71.8298 421.873 71.5798L421.493 68.9298C421.463 68.6898 421.253 68.5098 421.003 68.5098H417.003C416.753 68.5098 416.543 68.6898 416.513 68.9298L416.133 71.5798C415.523 71.8298 414.963 72.1698 414.443 72.5598L411.953 71.5598C411.893 71.5398 411.833 71.5298 411.773 71.5298C411.603 71.5298 411.433 71.6198 411.343 71.7798L409.343 75.2398C409.213 75.4598 409.273 75.7298 409.463 75.8798L411.573 77.5298C411.533 77.8498 411.503 78.1798 411.503 78.5098C411.503 78.8398 411.533 79.1698 411.573 79.4898L409.463 81.1398C409.273 81.2898 409.223 81.5598 409.343 81.7798L411.343 85.2398C411.433 85.3998 411.603 85.4898 411.783 85.4898C411.843 85.4898 411.903 85.4798 411.953 85.4598L414.443 84.4598C414.963 84.8598 415.523 85.1898 416.133 85.4398L416.513 88.0898C416.543 88.3298 416.753 88.5098 417.003 88.5098H421.003C421.253 88.5098 421.463 88.3298 421.493 88.0898L421.873 85.4398C422.483 85.1898 423.043 84.8498 423.563 84.4598L426.053 85.4598C426.113 85.4798 426.173 85.4898 426.233 85.4898C426.403 85.4898 426.573 85.3998 426.663 85.2398L428.663 81.7798C428.783 81.5598 428.733 81.2898 428.543 81.1398L426.433 79.4898ZM424.453 77.7798C424.493 78.0898 424.503 78.2998 424.503 78.5098C424.503 78.7198 424.483 78.9398 424.453 79.2398L424.313 80.3698L425.203 81.0698L426.283 81.9098L425.583 83.1198L424.313 82.6098L423.273 82.1898L422.373 82.8698C421.943 83.1898 421.533 83.4298 421.123 83.5998L420.063 84.0298L419.903 85.1598L419.703 86.5098H418.303L417.953 84.0298L416.893 83.5998C416.463 83.4198 416.063 83.1898 415.663 82.8898L414.753 82.1898L413.693 82.6198L412.423 83.1298L411.723 81.9198L412.803 81.0798L413.693 80.3798L413.553 79.2498C413.523 78.9398 413.503 78.7098 413.503 78.5098C413.503 78.3098 413.523 78.0798 413.553 77.7798L413.693 76.6498L412.803 75.9498L411.723 75.1098L412.423 73.8998L413.693 74.4098L414.733 74.8298L415.633 74.1498C416.063 73.8298 416.473 73.5898 416.883 73.4198L417.943 72.9898L418.103 71.8598L418.303 70.5098H419.693L420.043 72.9898L421.103 73.4198C421.533 73.5998 421.933 73.8298 422.333 74.1298L423.243 74.8298L424.303 74.3998L425.573 73.8898L426.273 75.0998L425.203 75.9498L424.313 76.6498L424.453 77.7798ZM419.003 74.5098C416.793 74.5098 415.003 76.2998 415.003 78.5098C415.003 80.7198 416.793 82.5098 419.003 82.5098C421.213 82.5098 423.003 80.7198 423.003 78.5098C423.003 76.2998 421.213 74.5098 419.003 74.5098ZM419.003 80.5098C417.903 80.5098 417.003 79.6098 417.003 78.5098C417.003 77.4098 417.903 76.5098 419.003 76.5098C420.103 76.5098 421.003 77.4098 421.003 78.5098C421.003 79.6098 420.103 80.5098 419.003 80.5098Z" fill="url(#paint4_linear_4805_28004)"/>
<g clip-path="url(#clip0_4805_28004)">
<path d="M433.979 66.0269C434.16 65.7597 434.332 65.4879 434.486 65.1848C434.64 64.8817 434.758 64.5828 434.867 64.2793L437.495 63.7637C437.733 63.716 437.9 63.4979 437.892 63.2474L437.676 59.2568C437.668 59.0734 437.557 58.9162 437.397 58.8347C437.343 58.8075 437.285 58.7893 437.232 58.7845L434.559 58.5485C434.276 57.9564 433.926 57.4086 433.496 56.9094L434.357 54.3746C434.439 54.1471 434.333 53.8915 434.11 53.7783L430.544 51.9669C430.321 51.8537 430.052 51.9191 429.917 52.1195L428.378 54.3101C427.721 54.2568 427.068 54.3064 426.427 54.4186L424.66 52.3995C424.616 52.3545 424.567 52.3184 424.513 52.2912C424.362 52.2142 424.169 52.2175 424.017 52.3194L420.667 54.4986C420.451 54.6359 420.382 54.9038 420.484 55.1236L421.618 57.5502C421.437 57.8174 421.261 58.098 421.112 58.3923C420.962 58.6865 420.84 58.9943 420.73 59.2977L418.102 59.8134C417.864 59.8611 417.698 60.0791 417.705 60.3296L417.921 64.3202C417.929 64.5036 418.04 64.6609 418.2 64.7424C418.254 64.7695 418.312 64.7878 418.366 64.7926L421.039 65.0286C421.321 65.6207 421.671 66.1685 422.102 66.6676L421.24 69.2024C421.158 69.43 421.264 69.6856 421.487 69.7988L425.053 71.6101C425.276 71.7233 425.545 71.658 425.68 71.4576L427.219 69.2669C427.876 69.3202 428.53 69.2707 429.17 69.1584L430.937 71.1776C430.982 71.2226 431.031 71.2587 431.084 71.2859C431.236 71.3628 431.428 71.3596 431.581 71.2577L434.931 69.0784C435.137 68.9366 435.215 68.6733 435.113 68.4535L433.979 66.0269ZM432.988 63.6056C432.884 63.9001 432.797 64.0919 432.702 64.2791C432.607 64.4664 432.49 64.6535 432.327 64.9074L431.691 65.8515L432.167 66.8786L432.75 68.1166L431.578 68.8784L430.676 67.8486L429.939 67.0032L428.829 67.2019C428.301 67.2925 427.826 67.3208 427.384 67.2868L426.244 67.1901L425.59 68.1252L424.8 69.2383L423.552 68.6043L424.363 66.2346L423.612 65.3713C423.311 65.016 423.058 64.6298 422.837 64.1812L422.343 63.145L421.203 63.0484L419.84 62.928L419.764 61.5322L421.107 61.2723L422.217 61.0512L422.604 59.9803C422.718 59.6904 422.804 59.4762 422.895 59.2979C422.985 59.1196 423.107 58.9236 423.27 58.6697L423.907 57.7256L423.43 56.6985L422.847 55.4605L424.019 54.6986L424.921 55.7284L425.658 56.5739L426.768 56.3751C427.297 56.2845 427.771 56.2562 428.213 56.2903L429.353 56.3869L430.008 55.4519L430.797 54.3388L432.036 54.9682L431.226 57.3379L431.976 58.2013C432.278 58.5565 432.53 58.9427 432.751 59.3913L433.245 60.4275L434.385 60.5241L435.748 60.6445L435.825 62.0403L434.486 62.3136L433.375 62.5347L432.988 63.6056ZM429.61 58.2222C427.64 57.2214 425.233 58.0068 424.232 59.9772C423.231 61.9476 424.017 64.3541 425.987 65.3549C427.958 66.3557 430.364 65.5703 431.365 63.5999C432.366 61.6295 431.58 59.2229 429.61 58.2222ZM426.893 63.5717C425.912 63.0736 425.517 61.8636 426.015 60.8829C426.514 59.9021 427.724 59.5072 428.704 60.0053C429.685 60.5035 430.08 61.7135 429.582 62.6942C429.084 63.675 427.874 64.0698 426.893 63.5717Z" fill="url(#paint5_linear_4805_28004)"/>
</g>
<defs>
<filter id="filter0_d_4805_28004" x="85.6183" y="35.373" width="119.886" height="115.366" filterUnits="userSpaceOnUse" color-interpolation-filters="sRGB">
<feFlood flood-opacity="0" result="BackgroundImageFix"/>
<feColorMatrix in="SourceAlpha" type="matrix" values="0 0 0 0 0 0 0 0 0 0 0 0 0 0 0 0 0 0 127 0" result="hardAlpha"/>
<feOffset dy="21.4208"/>
<feGaussianBlur stdDeviation="10.7104"/>
<feComposite in2="hardAlpha" operator="out"/>
<feColorMatrix type="matrix" values="0 0 0 0 0.352941 0 0 0 0 0.184314 0 0 0 0 0.835294 0 0 0 0.22 0"/>
<feBlend mode="normal" in2="BackgroundImageFix" result="effect1_dropShadow_4805_28004"/>
<feBlend mode="normal" in="SourceGraphic" in2="effect1_dropShadow_4805_28004" result="shape"/>
</filter>
<filter id="filter1_d_4805_28004" x="224.644" y="35.1035" width="119.886" height="115.366" filterUnits="userSpaceOnUse" color-interpolation-filters="sRGB">
<feFlood flood-opacity="0" result="BackgroundImageFix"/>
<feColorMatrix in="SourceAlpha" type="matrix" values="0 0 0 0 0 0 0 0 0 0 0 0 0 0 0 0 0 0 127 0" result="hardAlpha"/>
<feOffset dy="21.4208"/>
<feGaussianBlur stdDeviation="10.7104"/>
<feComposite in2="hardAlpha" operator="out"/>
<feColorMatrix type="matrix" values="0 0 0 0 0.352941 0 0 0 0 0.184314 0 0 0 0 0.835294 0 0 0 0.22 0"/>
<feBlend mode="normal" in2="BackgroundImageFix" result="effect1_dropShadow_4805_28004"/>
<feBlend mode="normal" in="SourceGraphic" in2="effect1_dropShadow_4805_28004" result="shape"/>
</filter>
<filter id="filter2_ddddd_4805_28004" x="359.914" y="27.3242" width="125.049" height="192.843" filterUnits="userSpaceOnUse" color-interpolation-filters="sRGB">
<feFlood flood-opacity="0" result="BackgroundImageFix"/>
<feColorMatrix in="SourceAlpha" type="matrix" values="0 0 0 0 0 0 0 0 0 0 0 0 0 0 0 0 0 0 127 0" result="hardAlpha"/>
<feOffset dy="3"/>
<feGaussianBlur stdDeviation="4"/>
<feColorMatrix type="matrix" values="0 0 0 0 0.172549 0 0 0 0 0.164706 0 0 0 0 0.572549 0 0 0 0.29 0"/>
<feBlend mode="normal" in2="BackgroundImageFix" result="effect1_dropShadow_4805_28004"/>
<feColorMatrix in="SourceAlpha" type="matrix" values="0 0 0 0 0 0 0 0 0 0 0 0 0 0 0 0 0 0 127 0" result="hardAlpha"/>
<feOffset dy="14"/>
<feGaussianBlur stdDeviation="7"/>
<feColorMatrix type="matrix" values="0 0 0 0 0.172549 0 0 0 0 0.164706 0 0 0 0 0.572549 0 0 0 0.26 0"/>
<feBlend mode="normal" in2="effect1_dropShadow_4805_28004" result="effect2_dropShadow_4805_28004"/>
<feColorMatrix in="SourceAlpha" type="matrix" values="0 0 0 0 0 0 0 0 0 0 0 0 0 0 0 0 0 0 127 0" result="hardAlpha"/>
<feOffset dy="31"/>
<feGaussianBlur stdDeviation="9.5"/>
<feColorMatrix type="matrix" values="0 0 0 0 0.172549 0 0 0 0 0.164706 0 0 0 0 0.572549 0 0 0 0.15 0"/>
<feBlend mode="normal" in2="effect2_dropShadow_4805_28004" result="effect3_dropShadow_4805_28004"/>
<feColorMatrix in="SourceAlpha" type="matrix" values="0 0 0 0 0 0 0 0 0 0 0 0 0 0 0 0 0 0 127 0" result="hardAlpha"/>
<feOffset dy="56"/>
<feGaussianBlur stdDeviation="11"/>
<feColorMatrix type="matrix" values="0 0 0 0 0.172549 0 0 0 0 0.164706 0 0 0 0 0.572549 0 0 0 0.04 0"/>
<feBlend mode="normal" in2="effect3_dropShadow_4805_28004" result="effect4_dropShadow_4805_28004"/>
<feColorMatrix in="SourceAlpha" type="matrix" values="0 0 0 0 0 0 0 0 0 0 0 0 0 0 0 0 0 0 127 0" result="hardAlpha"/>
<feOffset dy="87"/>
<feGaussianBlur stdDeviation="12"/>
<feColorMatrix type="matrix" values="0 0 0 0 0.172549 0 0 0 0 0.164706 0 0 0 0 0.572549 0 0 0 0.01 0"/>
<feBlend mode="normal" in2="effect4_dropShadow_4805_28004" result="effect5_dropShadow_4805_28004"/>
<feBlend mode="normal" in="SourceGraphic" in2="effect5_dropShadow_4805_28004" result="shape"/>
</filter>
<linearGradient id="paint0_linear_4805_28004" x1="118.647" y1="48.8367" x2="178.923" y2="112.765" gradientUnits="userSpaceOnUse">
<stop offset="0.015625" stop-color="#B010FB"/>
<stop offset="0.130208" stop-color="#DE97FF"/>
<stop offset="0.234375" stop-color="#A227DB"/>
<stop offset="0.505208" stop-color="#A227DB" stop-opacity="0"/>
<stop offset="0.765625" stop-color="#A610EC" stop-opacity="0.84"/>
</linearGradient>
<linearGradient id="paint1_linear_4805_28004" x1="129.842" y1="61.1381" x2="157.085" y2="97.1345" gradientUnits="userSpaceOnUse">
<stop offset="0.015625" stop-color="#F2D5FF"/>
<stop offset="1" stop-color="#CB5AFF"/>
</linearGradient>
<linearGradient id="paint2_linear_4805_28004" x1="257.673" y1="48.5672" x2="317.949" y2="112.495" gradientUnits="userSpaceOnUse">
<stop offset="0.015625" stop-color="#B010FB"/>
<stop offset="0.130208" stop-color="#DE97FF"/>
<stop offset="0.234375" stop-color="#A227DB"/>
<stop offset="0.505208" stop-color="#A227DB" stop-opacity="0"/>
<stop offset="0.765625" stop-color="#A610EC" stop-opacity="0.84"/>
</linearGradient>
<linearGradient id="paint3_linear_4805_28004" x1="273.917" y1="58.6512" x2="304.621" y2="86.5182" gradientUnits="userSpaceOnUse">
<stop offset="0.015625" stop-color="#F2D5FF"/>
<stop offset="1" stop-color="#CB5AFF"/>
</linearGradient>
<linearGradient id="paint4_linear_4805_28004" x1="412.205" y1="72.2226" x2="428.848" y2="88.3856" gradientUnits="userSpaceOnUse">
<stop offset="0.015625" stop-color="#F2D5FF"/>
<stop offset="1" stop-color="#CB5AFF"/>
</linearGradient>
<linearGradient id="paint5_linear_4805_28004" x1="424.584" y1="53.1045" x2="432.105" y2="75.0523" gradientUnits="userSpaceOnUse">
<stop offset="0.015625" stop-color="#F2D5FF"/>
<stop offset="1" stop-color="#CB5AFF"/>
</linearGradient>
<clipPath id="clip0_4805_28004">
<rect width="24" height="24" fill="white" transform="translate(422.531 45.6543) rotate(26.9258)"/>
</clipPath>
</defs>
</svg>
