<svg width="568" height="144" viewBox="0 0 568 144" fill="none" xmlns="http://www.w3.org/2000/svg">
<g clip-path="url(#clip0_5305_29142)">
<g filter="url(#filter0_d_5305_29142)">
<rect x="107.039" y="36.2446" width="77.0454" height="72.5243" rx="7.23624" fill="#10051F"/>
<rect x="107.485" y="36.6909" width="76.1529" height="71.6318" rx="6.78997" stroke="url(#paint0_linear_5305_29142)" stroke-width="0.892533"/>
</g>
<path d="M135.489 80.9308L125.933 74.7417V72.2165L135.489 66.0275V69.3201L128.929 73.4296V73.5286L135.489 77.6382V80.9308ZM139.738 85.6593L147.883 64.1212H150.928L142.783 85.6593H139.738ZM155.176 80.9308V77.6382L161.736 73.5286V73.4296L155.176 69.3201V66.0275L164.732 72.2165V74.7417L155.176 80.9308Z" fill="url(#paint1_linear_5305_29142)"/>
<g filter="url(#filter1_d_5305_29142)">
<rect x="246.064" y="35.9751" width="77.0454" height="72.5243" rx="7.23624" fill="#10051F"/>
<rect x="246.511" y="36.4214" width="76.1529" height="71.6318" rx="6.78997" stroke="url(#paint2_linear_5305_29142)" stroke-width="0.892533"/>
</g>
<g filter="url(#filter2_ddddd_5305_29142)">
<path d="M437.848 79.302V86.9862H449.058C443.742 96.1689 433.803 102.355 422.438 102.355C408.107 102.355 396.049 92.5189 392.621 79.302H384.685C388.268 96.8221 403.793 110.039 422.438 110.039C435.036 110.039 446.246 103.968 453.258 94.6321V102.355H460.962V79.302H437.848Z" fill="#5A3ABC"/>
<path d="M407.028 63.9333V56.249H395.818C401.134 47.0664 411.073 40.8805 422.438 40.8805C436.769 40.8805 448.827 50.7164 452.256 63.9333H460.191C456.609 46.4132 441.084 33.1963 422.438 33.1963C409.841 33.1963 398.63 39.2668 391.619 48.6032V40.8805H383.914V63.9333H407.028Z" fill="#5A3ABC"/>
</g>
<path d="M189.752 70.8248H242.893" stroke="#8405FF" stroke-width="1.58632"/>
<path fill-rule="evenodd" clip-rule="evenodd" d="M184.199 77.1705C187.703 77.1705 190.544 74.3296 190.544 70.8252C190.544 67.3209 187.703 64.48 184.199 64.48C180.694 64.48 177.854 67.3209 177.854 70.8252C177.854 74.3296 180.694 77.1705 184.199 77.1705ZM184.199 75.5842C186.827 75.5842 188.958 73.4535 188.958 70.8252C188.958 68.1969 186.827 66.0663 184.199 66.0663C181.57 66.0663 179.44 68.1969 179.44 70.8252C179.44 73.4535 181.57 75.5842 184.199 75.5842ZM187.371 70.825C187.371 72.5772 185.951 73.9976 184.199 73.9976C182.447 73.9976 181.026 72.5772 181.026 70.825C181.026 69.0728 182.447 67.6524 184.199 67.6524C185.951 67.6524 187.371 69.0728 187.371 70.825Z" fill="#8405FF"/>
<path fill-rule="evenodd" clip-rule="evenodd" d="M245.682 70.8247L239.337 75.5837V66.0658L245.682 70.8247Z" fill="#8405FF"/>
<path d="M327.603 70.8248H380.745" stroke="#8405FF" stroke-width="1.58632"/>
<path fill-rule="evenodd" clip-rule="evenodd" d="M322.05 77.1705C325.555 77.1705 328.396 74.3296 328.396 70.8252C328.396 67.3209 325.555 64.48 322.05 64.48C318.546 64.48 315.705 67.3209 315.705 70.8252C315.705 74.3296 318.546 77.1705 322.05 77.1705ZM322.05 75.5842C324.679 75.5842 326.809 73.4535 326.809 70.8252C326.809 68.1969 324.679 66.0663 322.05 66.0663C319.422 66.0663 317.291 68.1969 317.291 70.8252C317.291 73.4535 319.422 75.5842 322.05 75.5842ZM325.223 70.825C325.223 72.5772 323.803 73.9976 322.05 73.9976C320.298 73.9976 318.878 72.5772 318.878 70.825C318.878 69.0728 320.298 67.6524 322.05 67.6524C323.803 67.6524 325.223 69.0728 325.223 70.825Z" fill="#8405FF"/>
<path fill-rule="evenodd" clip-rule="evenodd" d="M383.533 70.8247L377.188 75.5837V66.0658L383.533 70.8247Z" fill="#8405FF"/>
<path d="M289.053 72.8551H291.579V77.6047L295.689 79.9795L294.425 82.169L289.053 79.07V72.8551ZM295.79 64.4339H272.21V82.9606H280.076C279.351 81.4279 278.947 79.71 278.947 77.9078C278.947 74.781 280.189 71.7822 282.4 69.5712C284.611 67.3602 287.61 66.1181 290.737 66.1181C292.539 66.1181 294.257 66.5223 295.79 67.2466V64.4339ZM272.21 86.3291C270.341 86.3291 268.842 84.8132 268.842 82.9606V59.3811C268.842 57.5116 270.341 56.0127 272.21 56.0127H273.895V52.6442H277.263V56.0127H290.737V52.6442H294.105V56.0127H295.79C296.683 56.0127 297.54 56.3675 298.172 56.9993C298.803 57.631 299.158 58.4878 299.158 59.3811V69.655C301.247 71.7772 302.527 74.6909 302.527 77.9078C302.527 81.0347 301.285 84.0334 299.074 86.2444C296.863 88.4554 293.864 89.6975 290.737 89.6975C287.52 89.6975 284.606 88.4175 282.484 86.3291H272.21ZM290.737 69.7392C288.571 69.7392 286.493 70.5999 284.961 72.1318C283.429 73.6637 282.568 75.7414 282.568 77.9078C282.568 82.4216 286.223 86.0764 290.737 86.0764C291.81 86.0764 292.872 85.8651 293.863 85.4546C294.854 85.0441 295.755 84.4424 296.513 83.6839C297.272 82.9254 297.873 82.0249 298.284 81.0338C298.694 80.0428 298.906 78.9805 298.906 77.9078C298.906 73.3941 295.251 69.7392 290.737 69.7392Z" fill="url(#paint3_linear_5305_29142)"/>
<path d="M426.432 80.3618C426.472 80.0418 426.502 79.7218 426.502 79.3818C426.502 79.0418 426.472 78.7218 426.432 78.4018L428.542 76.7518C428.732 76.6018 428.782 76.3318 428.662 76.1118L426.662 72.6518C426.572 72.4918 426.402 72.4018 426.222 72.4018C426.162 72.4018 426.102 72.4118 426.052 72.4318L423.562 73.4318C423.042 73.0318 422.482 72.7018 421.872 72.4518L421.492 69.8018C421.462 69.5618 421.252 69.3818 421.002 69.3818H417.002C416.752 69.3818 416.542 69.5618 416.512 69.8018L416.132 72.4518C415.522 72.7018 414.962 73.0418 414.442 73.4318L411.952 72.4318C411.892 72.4118 411.832 72.4018 411.772 72.4018C411.602 72.4018 411.432 72.4918 411.342 72.6518L409.342 76.1118C409.212 76.3318 409.272 76.6018 409.462 76.7518L411.572 78.4018C411.532 78.7218 411.502 79.0518 411.502 79.3818C411.502 79.7118 411.532 80.0418 411.572 80.3618L409.462 82.0118C409.272 82.1618 409.222 82.4318 409.342 82.6518L411.342 86.1118C411.432 86.2718 411.602 86.3618 411.782 86.3618C411.842 86.3618 411.902 86.3518 411.952 86.3318L414.442 85.3318C414.962 85.7318 415.522 86.0618 416.132 86.3118L416.512 88.9618C416.542 89.2018 416.752 89.3818 417.002 89.3818H421.002C421.252 89.3818 421.462 89.2018 421.492 88.9618L421.872 86.3118C422.482 86.0618 423.042 85.7218 423.562 85.3318L426.052 86.3318C426.112 86.3518 426.172 86.3618 426.232 86.3618C426.402 86.3618 426.572 86.2718 426.662 86.1118L428.662 82.6518C428.782 82.4318 428.732 82.1618 428.542 82.0118L426.432 80.3618ZM424.452 78.6518C424.492 78.9618 424.502 79.1718 424.502 79.3818C424.502 79.5918 424.482 79.8118 424.452 80.1118L424.312 81.2418L425.202 81.9418L426.282 82.7818L425.582 83.9918L424.312 83.4818L423.272 83.0618L422.372 83.7418C421.942 84.0618 421.532 84.3018 421.122 84.4718L420.062 84.9018L419.902 86.0318L419.702 87.3818H418.302L417.952 84.9018L416.892 84.4718C416.462 84.2918 416.062 84.0618 415.662 83.7618L414.752 83.0618L413.692 83.4918L412.422 84.0018L411.722 82.7918L412.802 81.9518L413.692 81.2518L413.552 80.1218C413.522 79.8118 413.502 79.5818 413.502 79.3818C413.502 79.1818 413.522 78.9518 413.552 78.6518L413.692 77.5218L412.802 76.8218L411.722 75.9818L412.422 74.7718L413.692 75.2818L414.732 75.7018L415.632 75.0218C416.062 74.7018 416.472 74.4618 416.882 74.2918L417.942 73.8618L418.102 72.7318L418.302 71.3818H419.692L420.042 73.8618L421.102 74.2918C421.532 74.4718 421.932 74.7018 422.332 75.0018L423.242 75.7018L424.302 75.2718L425.572 74.7618L426.272 75.9718L425.202 76.8218L424.312 77.5218L424.452 78.6518ZM419.002 75.3818C416.792 75.3818 415.002 77.1718 415.002 79.3818C415.002 81.5918 416.792 83.3818 419.002 83.3818C421.212 83.3818 423.002 81.5918 423.002 79.3818C423.002 77.1718 421.212 75.3818 419.002 75.3818ZM419.002 81.3818C417.902 81.3818 417.002 80.4818 417.002 79.3818C417.002 78.2818 417.902 77.3818 419.002 77.3818C420.102 77.3818 421.002 78.2818 421.002 79.3818C421.002 80.4818 420.102 81.3818 419.002 81.3818Z" fill="url(#paint4_linear_5305_29142)"/>
<g clip-path="url(#clip1_5305_29142)">
<path d="M433.979 66.8988C434.16 66.6316 434.331 66.3599 434.485 66.0568C434.639 65.7536 434.757 65.4547 434.867 65.1513L437.495 64.6356C437.732 64.5879 437.899 64.3699 437.892 64.1194L437.676 60.1288C437.668 59.9454 437.557 59.7881 437.396 59.7066C437.343 59.6795 437.285 59.6612 437.231 59.6564L434.558 59.4204C434.276 58.8283 433.926 58.2805 433.495 57.7814L434.357 55.2466C434.439 55.019 434.333 54.7634 434.11 54.6502L430.544 52.8389C430.321 52.7257 430.052 52.7911 429.916 52.9914L428.378 55.1821C427.721 55.1288 427.067 55.1783 426.427 55.2906L424.66 53.2714C424.615 53.2264 424.566 53.1903 424.513 53.1631C424.361 53.0862 424.169 53.0894 424.016 53.1913L420.666 55.3706C420.451 55.5078 420.382 55.7757 420.484 55.9955L421.618 58.4221C421.437 58.6893 421.261 58.97 421.111 59.2642C420.962 59.5584 420.839 59.8662 420.73 60.1697L418.102 60.6853C417.864 60.733 417.697 60.9511 417.705 61.2016L417.921 65.1922C417.929 65.3756 418.04 65.5328 418.2 65.6143C418.254 65.6415 418.312 65.6597 418.365 65.6646L421.038 65.9005C421.321 66.4926 421.671 67.0405 422.101 67.5396L421.24 70.0744C421.158 70.3019 421.264 70.5575 421.487 70.6707L425.053 72.4821C425.276 72.5953 425.545 72.5299 425.68 72.3295L427.219 70.1389C427.876 70.1922 428.529 70.1426 429.17 70.0304L430.937 72.0496C430.981 72.0946 431.03 72.1306 431.084 72.1578C431.235 72.2348 431.428 72.2315 431.58 72.1296L434.93 69.9504C435.137 69.8086 435.215 69.5452 435.113 69.3254L433.979 66.8988ZM432.988 64.4776C432.883 64.7721 432.797 64.9638 432.702 65.1511C432.607 65.3383 432.49 65.5254 432.327 65.7793L431.69 66.7234L432.167 67.7505L432.749 68.9885L431.577 69.7504L430.676 68.7206L429.939 67.8752L428.829 68.0739C428.3 68.1645 427.826 68.1928 427.384 68.1587L426.244 68.0621L425.589 68.9971L424.8 70.1102L423.552 69.4762L424.363 67.1066L423.612 66.2432C423.31 65.888 423.058 65.5018 422.837 65.0532L422.343 64.017L421.203 63.9204L419.84 63.8L419.763 62.4042L421.107 62.1443L422.217 61.9232L422.604 60.8523C422.718 60.5623 422.804 60.3482 422.895 60.1699C422.985 59.9916 423.107 59.7955 423.27 59.5417L423.906 58.5976L423.43 57.5704L422.847 56.3324L424.019 55.5706L424.921 56.6004L425.658 57.4458L426.768 57.2471C427.296 57.1565 427.771 57.1282 428.213 57.1623L429.353 57.2589L430.007 56.3238L430.797 55.2107L432.036 55.8402L431.225 58.2098L431.976 59.0732C432.278 59.4284 432.53 59.8146 432.751 60.2632L433.245 61.2994L434.385 61.3961L435.748 61.5165L435.824 62.9123L434.485 63.1856L433.375 63.4067L432.988 64.4776ZM429.61 59.0941C427.639 58.0933 425.233 58.8787 424.232 60.8491C423.231 62.8196 424.017 65.2261 425.987 66.2269C427.957 67.2276 430.364 66.4422 431.365 64.4718C432.365 62.5014 431.58 60.0949 429.61 59.0941ZM426.893 64.4437C425.912 63.9455 425.517 62.7356 426.015 61.7548C426.513 60.7741 427.723 60.3792 428.704 60.8773C429.685 61.3754 430.08 62.5854 429.582 63.5662C429.083 64.5469 427.873 64.9418 426.893 64.4437Z" fill="url(#paint5_linear_5305_29142)"/>
</g>
</g>
<defs>
<filter id="filter0_d_5305_29142" x="85.6183" y="36.2446" width="119.887" height="115.366" filterUnits="userSpaceOnUse" color-interpolation-filters="sRGB">
<feFlood flood-opacity="0" result="BackgroundImageFix"/>
<feColorMatrix in="SourceAlpha" type="matrix" values="0 0 0 0 0 0 0 0 0 0 0 0 0 0 0 0 0 0 127 0" result="hardAlpha"/>
<feOffset dy="21.4208"/>
<feGaussianBlur stdDeviation="10.7104"/>
<feComposite in2="hardAlpha" operator="out"/>
<feColorMatrix type="matrix" values="0 0 0 0 0.352941 0 0 0 0 0.184314 0 0 0 0 0.835294 0 0 0 0.22 0"/>
<feBlend mode="normal" in2="BackgroundImageFix" result="effect1_dropShadow_5305_29142"/>
<feBlend mode="normal" in="SourceGraphic" in2="effect1_dropShadow_5305_29142" result="shape"/>
</filter>
<filter id="filter1_d_5305_29142" x="224.644" y="35.9751" width="119.887" height="115.366" filterUnits="userSpaceOnUse" color-interpolation-filters="sRGB">
<feFlood flood-opacity="0" result="BackgroundImageFix"/>
<feColorMatrix in="SourceAlpha" type="matrix" values="0 0 0 0 0 0 0 0 0 0 0 0 0 0 0 0 0 0 127 0" result="hardAlpha"/>
<feOffset dy="21.4208"/>
<feGaussianBlur stdDeviation="10.7104"/>
<feComposite in2="hardAlpha" operator="out"/>
<feColorMatrix type="matrix" values="0 0 0 0 0.352941 0 0 0 0 0.184314 0 0 0 0 0.835294 0 0 0 0.22 0"/>
<feBlend mode="normal" in2="BackgroundImageFix" result="effect1_dropShadow_5305_29142"/>
<feBlend mode="normal" in="SourceGraphic" in2="effect1_dropShadow_5305_29142" result="shape"/>
</filter>
<filter id="filter2_ddddd_5305_29142" x="359.914" y="28.1963" width="125.048" height="192.843" filterUnits="userSpaceOnUse" color-interpolation-filters="sRGB">
<feFlood flood-opacity="0" result="BackgroundImageFix"/>
<feColorMatrix in="SourceAlpha" type="matrix" values="0 0 0 0 0 0 0 0 0 0 0 0 0 0 0 0 0 0 127 0" result="hardAlpha"/>
<feOffset dy="3"/>
<feGaussianBlur stdDeviation="4"/>
<feColorMatrix type="matrix" values="0 0 0 0 0.172549 0 0 0 0 0.164706 0 0 0 0 0.572549 0 0 0 0.29 0"/>
<feBlend mode="normal" in2="BackgroundImageFix" result="effect1_dropShadow_5305_29142"/>
<feColorMatrix in="SourceAlpha" type="matrix" values="0 0 0 0 0 0 0 0 0 0 0 0 0 0 0 0 0 0 127 0" result="hardAlpha"/>
<feOffset dy="14"/>
<feGaussianBlur stdDeviation="7"/>
<feColorMatrix type="matrix" values="0 0 0 0 0.172549 0 0 0 0 0.164706 0 0 0 0 0.572549 0 0 0 0.26 0"/>
<feBlend mode="normal" in2="effect1_dropShadow_5305_29142" result="effect2_dropShadow_5305_29142"/>
<feColorMatrix in="SourceAlpha" type="matrix" values="0 0 0 0 0 0 0 0 0 0 0 0 0 0 0 0 0 0 127 0" result="hardAlpha"/>
<feOffset dy="31"/>
<feGaussianBlur stdDeviation="9.5"/>
<feColorMatrix type="matrix" values="0 0 0 0 0.172549 0 0 0 0 0.164706 0 0 0 0 0.572549 0 0 0 0.15 0"/>
<feBlend mode="normal" in2="effect2_dropShadow_5305_29142" result="effect3_dropShadow_5305_29142"/>
<feColorMatrix in="SourceAlpha" type="matrix" values="0 0 0 0 0 0 0 0 0 0 0 0 0 0 0 0 0 0 127 0" result="hardAlpha"/>
<feOffset dy="56"/>
<feGaussianBlur stdDeviation="11"/>
<feColorMatrix type="matrix" values="0 0 0 0 0.172549 0 0 0 0 0.164706 0 0 0 0 0.572549 0 0 0 0.04 0"/>
<feBlend mode="normal" in2="effect3_dropShadow_5305_29142" result="effect4_dropShadow_5305_29142"/>
<feColorMatrix in="SourceAlpha" type="matrix" values="0 0 0 0 0 0 0 0 0 0 0 0 0 0 0 0 0 0 127 0" result="hardAlpha"/>
<feOffset dy="87"/>
<feGaussianBlur stdDeviation="12"/>
<feColorMatrix type="matrix" values="0 0 0 0 0.172549 0 0 0 0 0.164706 0 0 0 0 0.572549 0 0 0 0.01 0"/>
<feBlend mode="normal" in2="effect4_dropShadow_5305_29142" result="effect5_dropShadow_5305_29142"/>
<feBlend mode="normal" in="SourceGraphic" in2="effect5_dropShadow_5305_29142" result="shape"/>
</filter>
<linearGradient id="paint0_linear_5305_29142" x1="118.647" y1="49.7083" x2="178.923" y2="113.636" gradientUnits="userSpaceOnUse">
<stop offset="0.015625" stop-color="#B010FB"/>
<stop offset="0.130208" stop-color="#DE97FF"/>
<stop offset="0.234375" stop-color="#A227DB"/>
<stop offset="0.505208" stop-color="#A227DB" stop-opacity="0"/>
<stop offset="0.765625" stop-color="#A610EC" stop-opacity="0.84"/>
</linearGradient>
<linearGradient id="paint1_linear_5305_29142" x1="129.841" y1="62.0101" x2="157.084" y2="98.0066" gradientUnits="userSpaceOnUse">
<stop offset="0.015625" stop-color="#F2D5FF"/>
<stop offset="1" stop-color="#CB5AFF"/>
</linearGradient>
<linearGradient id="paint2_linear_5305_29142" x1="257.673" y1="49.4388" x2="317.949" y2="113.367" gradientUnits="userSpaceOnUse">
<stop offset="0.015625" stop-color="#B010FB"/>
<stop offset="0.130208" stop-color="#DE97FF"/>
<stop offset="0.234375" stop-color="#A227DB"/>
<stop offset="0.505208" stop-color="#A227DB" stop-opacity="0"/>
<stop offset="0.765625" stop-color="#A610EC" stop-opacity="0.84"/>
</linearGradient>
<linearGradient id="paint3_linear_5305_29142" x1="273.917" y1="59.5229" x2="304.621" y2="87.3899" gradientUnits="userSpaceOnUse">
<stop offset="0.015625" stop-color="#F2D5FF"/>
<stop offset="1" stop-color="#CB5AFF"/>
</linearGradient>
<linearGradient id="paint4_linear_5305_29142" x1="412.204" y1="73.0947" x2="428.848" y2="89.2577" gradientUnits="userSpaceOnUse">
<stop offset="0.015625" stop-color="#F2D5FF"/>
<stop offset="1" stop-color="#CB5AFF"/>
</linearGradient>
<linearGradient id="paint5_linear_5305_29142" x1="424.584" y1="53.9764" x2="432.105" y2="75.9242" gradientUnits="userSpaceOnUse">
<stop offset="0.015625" stop-color="#F2D5FF"/>
<stop offset="1" stop-color="#CB5AFF"/>
</linearGradient>
<clipPath id="clip0_5305_29142">
<rect y="0.87207" width="568" height="143" rx="16" fill="white"/>
</clipPath>
<clipPath id="clip1_5305_29142">
<rect width="24" height="24" fill="white" transform="translate(422.531 46.5264) rotate(26.9258)"/>
</clipPath>
</defs>
</svg>
