<svg width="541" height="279" viewBox="0 0 541 279" fill="none" xmlns="http://www.w3.org/2000/svg">
<g filter="url(#filter0_d_1_38)">
<rect x="24.0703" y="0.578613" width="492.742" height="229.462" rx="9.85484" fill="#152433"/>
<path d="M24.0703 55.9432H516.812V220.186C516.812 225.629 512.4 230.041 506.958 230.041H33.9252C28.4825 230.041 24.0703 225.629 24.0703 220.186V55.9432Z" fill="#061626"/>
<path d="M266.401 150.234L273.447 130.257H277.011L269.966 150.234H266.401ZM277.707 150.234L284.753 130.257H288.317L281.271 150.234H277.707Z" fill="#C182FF"/>
<path d="M112.791 120.367H106.434V149.228H112.791V143.48L115.169 141.008L120.492 149.228H127.725L119.485 136.54L127.416 128.302H119.566L112.791 135.538V120.367Z" fill="white"/>
<path d="M178.638 121.894H172.355V128.302H168.713V133.47H172.355V144.483C172.355 146.023 172.748 147.222 173.574 148.033C174.401 148.843 175.62 149.228 177.187 149.228H182.69V144.172H178.638V133.47H182.69V128.302H178.638V121.894Z" fill="white"/>
<path fill-rule="evenodd" clip-rule="evenodd" d="M137.428 127.929C134.325 127.929 131.814 128.885 129.92 130.813L129.918 130.815C128.047 132.757 127.125 135.417 127.125 138.765C127.125 142.075 128.035 144.722 129.879 146.676C131.726 148.633 134.278 149.6 137.503 149.6C140.131 149.6 142.347 148.983 144.138 147.732L144.139 147.731L144.141 147.73C145.931 146.442 147.048 144.74 147.484 142.631L147.543 142.346H141.309L141.255 142.51C141.038 143.17 140.599 143.704 139.921 144.112C139.255 144.508 138.44 144.712 137.466 144.712C136.28 144.712 135.345 144.385 134.638 143.749C133.932 143.103 133.576 142.262 133.576 141.205V140.343H147.164L147.188 140.134C147.289 139.281 147.339 138.446 147.339 137.629C147.339 134.636 146.432 132.265 144.596 130.547C142.8 128.795 140.402 127.929 137.428 127.929ZM134.596 133.71C135.277 133.122 136.189 132.818 137.354 132.818C138.48 132.818 139.367 133.116 140.037 133.692L140.039 133.693L140.04 133.694C140.718 134.256 141.056 134.989 141.056 135.915V136.051H133.576V135.989C133.576 135.036 133.916 134.284 134.594 133.712L134.596 133.71Z" fill="white"/>
<path fill-rule="evenodd" clip-rule="evenodd" d="M158.307 127.929C155.646 127.929 153.51 128.52 151.925 129.729L151.924 129.73C150.342 130.946 149.553 132.632 149.553 134.76C149.553 136.422 150.075 137.784 151.132 138.822C152.184 139.854 153.743 140.545 155.78 140.916L155.782 140.917L159.429 141.514L159.432 141.514C160.044 141.598 160.5 141.763 160.819 141.993L160.821 141.994L160.822 141.995C161.114 142.199 161.314 142.58 161.374 143.209C161.372 143.773 161.147 144.199 160.693 144.512L160.69 144.513C160.236 144.834 159.558 145.01 158.624 145.01C157.598 145.01 156.828 144.787 156.286 144.371C155.768 143.964 155.5 143.38 155.5 142.583V142.346H149.236V142.583C149.236 144.717 150.079 146.433 151.757 147.708L151.758 147.708C153.443 148.979 155.728 149.6 158.587 149.6C161.382 149.6 163.617 148.998 165.265 147.765C166.935 146.525 167.769 144.801 167.769 142.621C167.769 140.903 167.277 139.515 166.269 138.483C165.265 137.456 163.777 136.809 161.836 136.519L161.834 136.519L158.305 135.941L158.302 135.941C157.864 135.88 157.564 135.838 157.401 135.813C157.272 135.78 157.103 135.718 156.89 135.624C156.691 135.536 156.494 135.407 156.298 135.235C156.018 134.987 155.874 134.657 155.874 134.22C155.874 133.667 156.074 133.263 156.467 132.977C156.872 132.682 157.463 132.52 158.269 132.52C159.195 132.52 159.851 132.709 160.278 133.05C160.695 133.383 160.927 133.892 160.945 134.617L160.95 134.848H167.198L167.19 134.604C167.126 132.56 166.297 130.928 164.706 129.729C163.121 128.52 160.979 127.929 158.307 127.929ZM165.123 147.575L165.265 147.765L165.265 147.765L165.123 147.575ZM156.14 144.558L156.285 144.37L156.286 144.371L156.287 144.372L156.14 144.558ZM161.612 143.198L161.375 143.22L161.374 143.209L161.374 143.198H161.612Z" fill="white"/>
<path fill-rule="evenodd" clip-rule="evenodd" d="M208.579 127.929C205.805 127.929 203.559 128.552 201.863 129.821C200.17 131.084 199.245 132.889 199.079 135.209L199.061 135.463H205.27L205.286 135.243C205.344 134.463 205.626 133.889 206.115 133.491L206.115 133.49C206.619 133.077 207.342 132.855 208.317 132.855C209.298 132.855 209.989 133.089 210.436 133.516C210.881 133.94 211.124 134.594 211.124 135.524V136.479H205.945C203.603 136.479 201.719 137.06 200.32 138.249C198.927 139.43 198.238 141.053 198.238 143.086C198.238 145.051 198.848 146.644 200.084 147.839L200.086 147.84C201.335 149.021 202.998 149.6 205.049 149.6C206.613 149.6 207.998 149.283 209.195 148.641L209.197 148.64C210.287 148.044 211.061 147.258 211.5 146.28L211.556 146.626L211.557 146.629C211.714 147.517 212.087 148.195 212.7 148.626L212.701 148.627L212.703 148.628C213.31 149.041 214.228 149.228 215.413 149.228H219.946V144.712H217.425V135.636C217.425 133.504 216.713 131.682 215.288 130.184C213.88 128.663 211.623 127.929 208.579 127.929ZM204.614 142.192C204.614 141.594 204.815 141.179 205.194 140.903C205.586 140.616 206.204 140.455 207.085 140.455H211.124V140.944C211.124 142.134 210.762 143.055 210.057 143.735C209.352 144.403 208.384 144.749 207.122 144.749C206.229 144.749 205.603 144.583 205.205 144.288C204.819 144.003 204.614 143.574 204.614 142.956V142.192Z" fill="white"/>
<path d="M190.931 128.302C188.774 128.302 187.273 128.867 186.561 130.097C186.253 130.622 186.037 131.141 185.919 131.652L185.918 131.654L185.918 131.657C185.814 132.15 185.763 132.751 185.763 133.456V149.228H192.046V133.47H198.134V128.302H190.931Z" fill="white"/>
<path d="M224.109 149.245C223.432 149.245 222.871 149.031 222.426 148.602C221.998 148.155 221.784 147.605 221.784 146.953C221.784 146.301 221.998 145.761 222.426 145.332C222.871 144.885 223.432 144.661 224.109 144.661C224.768 144.661 225.311 144.885 225.739 145.332C226.166 145.761 226.38 146.301 226.38 146.953C226.38 147.605 226.166 148.155 225.739 148.602C225.311 149.031 224.768 149.245 224.109 149.245Z" fill="#F62E76"/>
<path d="M79.9389 131.941C80.4542 131.427 81.2896 131.427 81.8049 131.941L83.9229 134.053C84.4382 134.567 84.4382 135.4 83.9229 135.914L81.8049 138.027C81.2896 138.541 80.4542 138.541 79.9389 138.027L77.8209 135.914C77.3056 135.4 77.3056 134.567 77.8208 134.053L79.9389 131.941Z" fill="#A950FF"/>
<path d="M89.6944 131.924C90.2004 131.419 91.0209 131.419 91.5269 131.924L93.6784 134.07C94.1844 134.574 94.1844 135.393 93.6784 135.897L91.5269 138.043C91.0209 138.548 90.2004 138.548 89.6944 138.043L87.5429 135.897C87.0369 135.393 87.0369 134.574 87.5429 134.07C88.049 133.565 89.6944 131.924 89.6944 131.924Z" fill="#A950FF"/>
<path d="M79.9556 122.21C80.4617 121.706 81.2821 121.706 81.7882 122.21L83.9396 124.356C84.4457 124.861 84.4457 125.679 83.9396 126.184L81.7882 128.33C81.2821 128.835 80.4617 128.835 79.9556 128.33L77.8042 126.184C77.2981 125.679 77.2981 124.861 77.8042 124.356L79.9556 122.21Z" fill="#E9C1FF"/>
<path d="M79.054 129.196C79.5693 129.71 79.5693 130.544 79.054 131.058L76.936 133.17C76.4207 133.684 75.5853 133.684 75.07 133.17L72.952 131.058C72.4367 130.544 72.4367 129.71 72.952 129.196L75.07 127.084C75.5853 126.57 76.4207 126.57 76.936 127.084L79.054 129.196Z" fill="#CD88FF"/>
<path d="M74.2012 134.07C74.7072 134.574 74.7072 135.393 74.2012 135.897L72.0497 138.043C71.5437 138.548 70.7232 138.548 70.2171 138.043L68.0657 135.897C67.5596 135.393 67.5596 134.574 68.0657 134.07L70.2171 131.924C70.7232 131.419 71.5437 131.419 72.0497 131.924L74.2012 134.07Z" fill="#A950FF"/>
<path d="M88.7924 129.196C89.3077 129.71 89.3077 130.544 88.7924 131.058L86.6743 133.17C86.1591 133.684 85.3237 133.684 84.8084 133.17L82.6903 131.058C82.1751 130.544 82.1751 129.71 82.6903 129.196L84.8084 127.084C85.3237 126.57 86.1591 126.57 86.6743 127.084L88.7924 129.196Z" fill="#CD88FF"/>
<path d="M82.9564 143.071C84.1075 144.219 84.1075 146.081 82.9564 147.229C81.8052 148.377 79.9388 148.377 78.7877 147.229C77.6365 146.081 77.6365 144.219 78.7877 143.071C79.9388 141.923 81.8052 141.923 82.9564 143.071Z" fill="#F62E76"/>
<path fill-rule="evenodd" clip-rule="evenodd" d="M466.755 147.809C461.503 147.809 457.558 143.708 457.558 138.186C457.558 132.663 461.503 128.562 466.755 128.562C471.275 128.562 474.411 131.214 475.22 135.096H471.458C470.753 133.565 469.315 132.225 466.755 132.225C463.672 132.225 461.268 134.741 461.268 138.186C461.268 141.63 463.672 144.146 466.755 144.146C469.315 144.146 470.753 142.806 471.458 141.275H475.22C474.411 145.157 471.275 147.809 466.755 147.809ZM340.827 147.386V128.918H349.01C350.321 128.918 351.475 129.164 352.472 129.657C353.468 130.131 354.238 130.826 354.78 131.741C355.339 132.638 355.619 133.676 355.619 134.854C355.619 136.068 355.339 137.132 354.78 138.046C354.238 138.943 353.468 139.638 352.472 140.13C351.475 140.623 350.33 140.869 349.036 140.869H344.735V147.386H340.827ZM348.328 137.598C348.957 137.598 349.517 137.492 350.006 137.281C350.496 137.052 350.872 136.736 351.134 136.331C351.414 135.927 351.554 135.434 351.554 134.854C351.554 134.326 351.414 133.86 351.134 133.456C350.872 133.051 350.496 132.743 350.006 132.532C349.517 132.304 348.957 132.189 348.328 132.189H344.735V137.598H348.328ZM389.913 128.918V147.386H403.735V144.114H393.821V139.497H401.322V136.279H393.821V132.189H403.735V128.918H389.913ZM435.759 147.386V128.918H449.581V132.189H439.667V136.279H447.169V139.497H439.667V144.114H449.581V147.386H435.759ZM488.244 147.386V132.189H481.949V128.918H498.499V132.189H492.178V147.386H488.244ZM364.721 128.918V147.386H368.628V140.342H371.986C372.755 140.342 373.384 140.438 373.874 140.632C374.364 140.825 374.739 141.133 375.002 141.555C375.264 141.977 375.448 142.549 375.553 143.27L376.103 147.386H380.3L379.539 142.953C379.382 142.039 379.102 141.318 378.7 140.79C378.298 140.262 377.773 139.884 377.126 139.656C376.497 139.427 375.701 139.295 374.739 139.26V138.416C375.684 138.328 376.532 138.152 377.284 137.888C378.035 137.607 378.674 137.14 379.198 136.49C379.723 135.821 379.985 134.924 379.985 133.799C379.985 132.831 379.731 131.978 379.224 131.24C378.735 130.501 378.018 129.929 377.074 129.525C376.129 129.12 375.019 128.918 373.743 128.918H364.721ZM375.107 136.516C374.582 136.921 373.874 137.123 372.982 137.123H368.628V132.189H372.982C373.874 132.189 374.582 132.4 375.107 132.822C375.631 133.245 375.894 133.851 375.894 134.643C375.894 135.47 375.631 136.094 375.107 136.516ZM414.286 147.583V134.769C414.286 131.542 416.887 128.927 420.095 128.927H426.682V132.307H420.261C419.192 132.307 418.325 133.179 418.325 134.255V136.895H425.021V140.303H418.325V147.583H414.286Z" fill="white"/>
<g clip-path="url(#clip0_1_38)">
<path d="M322.728 143.992L309.008 137.016V150.976L309.016 150.972L322.736 157.947V143.988L322.728 143.992Z" fill="#E5E8ED"/>
<path d="M309.008 123.067L322.736 130.047L322.737 144L336.461 137.023L336.465 137.025V123.065L336.464 123.066L322.736 116.087L309.008 123.067Z" fill="#E5E8ED"/>
</g>
<circle cx="51.6313" cy="26.9784" r="6.29249" fill="#ED6A5E"/>
<circle cx="72.6053" cy="26.9784" r="6.29249" fill="#F4BF4F"/>
<circle cx="93.5793" cy="26.9784" r="6.29249" fill="#61C554"/>
</g>
<defs>
<filter id="filter0_d_1_38" x="0.0703125" y="0.578613" width="540.742" height="277.462" filterUnits="userSpaceOnUse" color-interpolation-filters="sRGB">
<feFlood flood-opacity="0" result="BackgroundImageFix"/>
<feColorMatrix in="SourceAlpha" type="matrix" values="0 0 0 0 0 0 0 0 0 0 0 0 0 0 0 0 0 0 127 0" result="hardAlpha"/>
<feOffset dy="24"/>
<feGaussianBlur stdDeviation="12"/>
<feComposite in2="hardAlpha" operator="out"/>
<feColorMatrix type="matrix" values="0 0 0 0 0.352941 0 0 0 0 0.184314 0 0 0 0 0.835294 0 0 0 0.22 0"/>
<feBlend mode="normal" in2="BackgroundImageFix" result="effect1_dropShadow_1_38"/>
<feBlend mode="normal" in="SourceGraphic" in2="effect1_dropShadow_1_38" result="shape"/>
</filter>
<clipPath id="clip0_1_38">
<rect width="28" height="42" fill="white" transform="translate(309 116)"/>
</clipPath>
</defs>
</svg>
