<svg width="806" height="601" viewBox="0 0 806 601" fill="none" xmlns="http://www.w3.org/2000/svg">
<g filter="url(#filter0_f_6530_37219)">
<rect width="167.04" height="209.88" transform="matrix(-1 0 0 1 526.807 191.99)" fill="url(#paint0_linear_6530_37219)"/>
</g>
<path d="M658.082 444.287L758.551 385.886C761.875 383.953 761.865 379.148 758.532 377.23L435.749 191.462C434.205 190.574 432.306 190.574 430.763 191.461L329.413 249.725C326.068 251.647 326.069 256.473 329.414 258.395L653.079 444.3C654.629 445.19 656.536 445.185 658.082 444.287Z" stroke="#CD88FF" stroke-width="1.66727" stroke-linecap="round" stroke-linejoin="round" stroke-dasharray="3.33 3.33"/>
<g filter="url(#filter1_d_6530_37219)">
<path d="M390.849 273.426C378.83 266.488 372.077 257.077 372.077 247.264C372.077 237.451 378.83 228.04 390.849 221.101L436.168 194.939L481.487 221.101C493.506 228.04 500.258 237.451 500.258 247.264C500.258 257.077 493.506 266.488 481.487 273.426C469.467 280.365 453.166 284.263 436.168 284.263C419.17 284.263 402.868 280.365 390.849 273.426V273.426Z" fill="#0ACF83"/>
</g>
<path d="M436.785 252.259L347.043 201.585L436.784 148.799L525.464 201.585L436.785 252.259Z" fill="#6400CA" stroke="url(#paint1_linear_6530_37219)" stroke-width="1.16649"/>
<path d="M436.345 252.679L436.345 308.604L346.453 255.615L346.453 201.267L436.345 252.679Z" fill="#4A0292"/>
<path d="M436.169 251.95L436.169 307.97L526.806 255.665L526.806 201.376L436.169 251.95Z" fill="#3C0077"/>
<g clip-path="url(#clip0_6530_37219)">
<path d="M412.664 193.234L422.066 193.234L440.869 182.378C442.116 181.658 443.807 181.254 445.57 181.254C447.333 181.254 449.024 181.658 450.271 182.378L458.497 187.127C455.935 187.738 453.538 188.634 451.446 189.841C447.394 192.181 445.118 195.354 445.118 198.662C445.118 201.97 447.394 205.143 451.446 207.482C453.538 208.69 455.935 209.586 458.497 210.196L436.168 223.088C433.559 224.594 429.352 224.581 426.767 223.088L398.562 206.804C395.953 205.298 395.953 202.882 398.562 201.376L412.664 193.234ZM452.621 191.877L456.147 193.912C458.64 192.473 462.022 191.664 465.548 191.664C469.075 191.664 472.456 192.473 474.95 193.912C476.877 195.025 478.076 196.396 478.57 197.821L473.446 197.821C473.046 197.129 472.365 196.491 471.424 195.948C469.866 195.048 467.752 194.543 465.548 194.543C463.344 194.543 461.231 195.048 459.672 195.948L463.198 197.983L452.621 197.983L452.621 191.877ZM478.476 206.804L474.95 204.768C472.456 206.208 469.075 207.017 465.548 207.017C462.022 207.017 458.64 206.208 456.147 204.768C454.219 203.656 453.021 202.285 452.527 200.86L457.651 200.86C458.051 201.552 458.732 202.19 459.672 202.733C461.231 203.633 463.344 204.138 465.548 204.138C467.752 204.138 469.866 203.633 471.424 202.733L467.899 200.697L478.476 200.697L478.476 206.804Z" fill="white"/>
</g>
<g style="mix-blend-mode:overlay" filter="url(#filter2_f_6530_37219)">
<circle cx="369.162" cy="200.499" r="43.3023" fill="white" style="mix-blend-mode:lighten"/>
</g>
<g filter="url(#filter3_d_6530_37219)">
<path d="M499.192 334.479C487.173 327.541 480.42 318.13 480.42 308.317C480.42 298.504 487.173 289.093 499.192 282.154L544.511 255.992L589.829 282.154C601.849 289.093 608.601 298.504 608.601 308.317C608.601 318.13 601.849 327.541 589.829 334.479C577.81 341.418 561.508 345.316 544.511 345.316C527.513 345.316 511.211 341.418 499.192 334.479V334.479Z" fill="#0ACF83"/>
</g>
<path d="M545.127 313.312L455.386 262.638L545.127 209.852L633.807 262.638L545.127 313.312Z" fill="#6400CA" stroke="url(#paint2_linear_6530_37219)" stroke-width="1.16649"/>
<path d="M544.687 313.732L544.687 369.657L454.796 316.668L454.796 262.32L544.687 313.732Z" fill="#4A0292"/>
<path d="M544.512 313.003L544.512 369.023L635.149 316.718L635.149 262.429L544.512 313.003Z" fill="#3C0077"/>
<path d="M569.898 244.053L519.477 244.054C516.574 244.054 514.219 245.413 514.218 247.091L514.22 253.136L527.5 253.136C528.522 251.943 530.642 251.124 533.102 251.124C535.577 251.125 537.709 251.955 538.723 253.158L551.524 253.157C552.539 251.955 554.671 251.123 557.146 251.124C560.602 251.124 563.402 252.741 563.404 254.737C563.403 256.734 560.603 258.35 557.144 258.351C554.544 258.35 552.312 257.433 551.37 256.128L539.431 256.128L555.139 265.198C555.768 265.075 556.444 265.006 557.145 265.006C560.601 265.006 563.402 266.622 563.404 268.619C563.403 270.614 560.601 272.232 557.147 272.231C553.688 272.23 550.888 270.613 550.888 268.618C550.889 268.125 551.06 267.653 551.372 267.224L535.517 258.07C534.773 258.25 533.96 258.35 533.102 258.349C530.485 258.35 528.248 257.422 527.312 256.106L514.218 256.106L514.216 276.066C514.218 277.744 516.572 279.103 519.477 279.103L569.899 279.102C572.803 279.103 575.157 277.744 575.158 276.066L575.158 247.091C575.158 245.414 572.803 244.053 569.898 244.053Z" fill="#F05133"/>
<g style="mix-blend-mode:overlay" filter="url(#filter4_f_6530_37219)">
<circle cx="477.504" cy="261.552" r="43.3023" fill="white" style="mix-blend-mode:lighten"/>
</g>
<g filter="url(#filter5_d_6530_37219)">
<path d="M608.468 396.824C596.449 389.886 589.697 380.475 589.697 370.662C589.697 360.849 596.449 351.438 608.468 344.499L653.787 318.337L699.106 344.499C711.125 351.438 717.877 360.849 717.877 370.662C717.877 380.475 711.125 389.886 699.106 396.824C687.086 403.763 670.785 407.661 653.787 407.661C636.789 407.661 620.487 403.763 608.468 396.824V396.824Z" fill="#0ACF83"/>
</g>
<path d="M654.403 375.657L564.661 324.982L654.403 272.197L743.082 324.982L654.403 375.657Z" fill="#6400CA" stroke="url(#paint3_linear_6530_37219)" stroke-width="1.16649"/>
<path d="M653.964 376.077L653.964 432.002L564.072 379.013L564.072 324.665L653.964 376.077Z" fill="#4A0292"/>
<path d="M653.787 375.348L653.787 431.368L744.425 379.062L744.425 324.774L653.787 375.348Z" fill="#3C0077"/>
<g clip-path="url(#clip1_6530_37219)">
<path d="M652.348 299.54C651.485 299.633 650.661 299.822 649.922 300.096C649.163 300.377 648.496 300.733 647.954 301.148C647.385 301.583 646.948 302.071 646.663 302.591L645.423 305.069L644.175 307.549L642.925 310.031L641.691 312.519C641.442 313.069 641.071 313.598 640.588 314.093C640.128 314.576 639.556 315.021 638.886 315.414C638.22 315.808 637.465 316.148 636.641 316.425C635.791 316.711 634.879 316.93 633.929 317.079L629.779 317.787L625.63 318.495L621.485 319.206L617.333 319.915C615.7 320.123 614.251 320.663 613.251 321.437C612.339 322.158 611.836 323.024 611.811 323.916C611.769 324.806 612.209 325.682 613.069 326.421C614.014 327.216 615.426 327.786 617.044 328.025L619.712 328.478L625.579 329.467L631.445 330.456L634.117 330.908C635.062 331.048 635.971 331.259 636.823 331.533C637.651 331.805 638.412 332.139 639.086 332.527C639.76 332.918 640.341 333.358 640.813 333.837C641.331 334.329 641.734 334.859 642.01 335.412L643.287 337.854L644.554 340.292L645.819 342.728L647.085 345.166C647.287 345.569 647.575 345.956 647.943 346.318C648.291 346.66 648.722 346.971 649.221 347.243C649.716 347.508 650.279 347.727 650.889 347.893C651.522 348.071 652.2 348.19 652.897 348.247C653.765 348.326 654.651 348.312 655.51 348.207C656.371 348.107 657.194 347.921 657.943 347.656C658.714 347.386 659.397 347.039 659.96 346.632C660.545 346.207 660.992 345.723 661.278 345.205L662.578 342.633L663.876 340.064L665.173 337.493L666.47 334.922C664.985 335.062 663.477 335.116 661.973 335.08C660.463 335.043 658.961 334.94 657.478 334.775C655.986 334.61 654.508 334.395 653.054 334.147C651.758 333.926 650.483 333.681 649.23 333.429C651.306 333.793 654.299 333.725 657.764 333.39C661.916 332.947 666.017 332.354 670.041 331.616C674.313 330.863 678.576 330.02 682.287 329.309C685.998 328.598 689.168 328.009 691.23 327.765C692.827 327.529 694.207 326.949 695.088 326.145C695.88 325.385 696.242 324.5 696.122 323.616C696.024 322.705 695.47 321.831 694.528 321.098C693.53 320.325 692.097 319.777 690.475 319.546L685.701 318.752L675.211 316.994L664.721 315.236L660 314.451C659.033 314.309 658.055 314.196 657.069 314.112C656.095 314.033 655.115 313.988 654.132 313.979C653.154 313.969 652.176 313.998 651.206 314.065C650.218 314.133 649.241 314.244 648.282 314.397C649.665 314.098 651.081 313.8 652.513 313.532C653.948 313.259 655.408 313.029 656.885 312.843C658.358 312.657 659.856 312.538 661.362 312.49C662.887 312.444 664.417 312.493 665.923 312.638L664.653 310.139L663.385 307.64L662.115 305.135L660.845 302.636C660.679 302.246 660.415 301.872 660.06 301.526C659.709 301.183 659.276 300.87 658.774 300.596C658.263 300.323 657.685 300.094 657.058 299.918C656.417 299.737 655.731 299.617 655.025 299.56C654.143 299.452 653.234 299.445 652.348 299.54ZM656.083 342.656C656.695 342.964 657.049 343.408 657.055 343.877C657.062 344.345 656.721 344.792 656.118 345.106C654.957 345.787 653.059 345.796 651.879 345.126C650.699 344.455 650.684 343.359 651.845 342.678C652.376 342.325 653.144 342.12 653.955 342.116C654.766 342.111 655.541 342.308 656.083 342.656ZM617.325 325.121C616.713 324.813 616.359 324.369 616.353 323.901C616.346 323.433 616.687 322.985 617.29 322.672C617.822 322.319 618.591 322.115 619.402 322.111C620.213 322.107 620.989 322.303 621.532 322.651C622.144 322.959 622.497 323.403 622.504 323.871C622.511 324.34 622.17 324.787 621.567 325.1C621.034 325.454 620.265 325.658 619.453 325.662C618.642 325.666 617.868 325.469 617.325 325.121ZM690.611 322.647C691.479 323.137 691.748 323.882 691.294 324.533C690.84 325.183 689.752 325.611 688.537 325.617C687.323 325.623 686.221 325.207 685.747 324.561C685.273 323.915 685.52 323.169 686.372 322.669C686.903 322.315 687.671 322.111 688.482 322.106C689.293 322.102 690.069 322.299 690.611 322.647ZM658.243 320.526C656.595 320.296 655.163 320.66 653.939 321.383C652.306 322.391 651.867 323.863 652.823 325.128C653.779 326.394 655.947 327.21 658.338 327.204C656.826 327.88 654.909 328.177 653.014 328.031C651.12 327.884 649.405 327.306 648.255 326.424C645.97 324.646 646.552 321.903 649.609 320.573C652.261 319.485 655.753 319.348 658.243 320.526ZM656.084 302.537C657.198 303.214 657.181 304.279 656.048 304.945C654.915 305.612 653.072 305.639 651.879 305.008C650.766 304.331 650.781 303.267 651.914 302.601C653.047 301.934 654.892 301.906 656.084 302.537Z" fill="#FF694B"/>
</g>
<g style="mix-blend-mode:overlay" filter="url(#filter6_f_6530_37219)">
<circle cx="586.781" cy="323.897" r="43.3023" fill="white" style="mix-blend-mode:lighten"/>
</g>
<path d="M260.086 429.358L152.039 365.692" stroke="url(#paint4_linear_6530_37219)" stroke-width="2" stroke-linecap="round" stroke-linejoin="round"/>
<g filter="url(#filter7_f_6530_37219)">
<rect width="167.04" height="209.88" transform="matrix(-1 0 0 1 317.869 150.643)" fill="url(#paint5_linear_6530_37219)"/>
</g>
<path d="M460.13 346.703L336.331 418.976" stroke="#B970F9" stroke-width="2" stroke-linejoin="round"/>
<path d="M468.606 341.015L464.653 349.532L453.854 343.297L468.606 341.015Z" fill="#9C51F6"/>
<path d="M216.908 376.208C217.215 376.381 217.59 376.381 217.896 376.206L299.591 329.523C299.899 329.346 300.091 329.019 300.094 328.663C300.098 328.308 299.912 327.977 299.606 327.795L217.911 279.168C217.598 278.981 217.207 278.98 216.893 279.165L134.22 327.793C133.911 327.974 133.723 328.306 133.727 328.663C133.73 329.021 133.923 329.35 134.235 329.525L216.908 376.208Z" stroke="#AA50FF" stroke-width="2" stroke-linejoin="round"/>
<path d="M219.086 320.395L136.413 273.712L219.086 225.084L300.781 273.712L219.086 320.395Z" fill="#8C49FA"/>
<path d="M217.087 285.653L134.414 238.97L217.087 190.342L298.782 238.97L217.087 285.653Z" fill="#8C49FA"/>
<path d="M190.477 239.238L185.585 236.299L174.897 234.615L177.029 233.384L184.884 234.707L182.747 230.083L184.895 228.843L187.555 235.17L192.439 238.105L190.477 239.238ZM195.825 236.15L188.458 226.785L190.59 225.554L206.34 230.079L204.369 231.217L200.426 230.075L195.952 232.658L197.804 235.008L195.825 236.15ZM194.694 231.35L198.207 229.322L191.411 227.303L194.694 231.35ZM208.298 228.949L196.74 222.004L199.55 220.381L211.443 223.921L205.704 216.829L208.498 215.215L220.056 222.16L218.062 223.312L208.997 217.865L214.985 225.088L213.345 226.035L201.285 222.384L210.293 227.797L208.298 228.949ZM222.888 220.525L211.338 213.576L213.325 212.429L223.204 218.365L228.477 215.32L230.156 216.329L222.888 220.525Z" fill="white"/>
<g clip-path="url(#clip2_6530_37219)">
<path d="M204.405 239.924L208.688 239.961L208.639 245.651L218.298 245.735L218.291 248.267L204.334 248.137L204.405 239.924ZM213.29 234.794L227.232 234.916L227.176 243.138L222.878 243.091L222.927 237.402L213.268 237.317L213.29 234.794ZM233.37 227.812L251.502 238.707C253.179 239.714 253.165 241.307 251.47 242.285L227.045 256.387C225.366 257.357 222.647 257.342 220.97 256.334L214.926 252.703L217.979 250.94L224.023 254.571L248.448 240.469L230.317 229.575L225.783 232.193L222.761 230.377L227.295 227.759C228.989 226.781 231.693 226.804 233.37 227.812Z" fill="white"/>
</g>
<path fill-rule="evenodd" clip-rule="evenodd" d="M216.685 331.166V285.425L134.939 238.672V284.414V288.096V317.395L216.685 365.582V336.283V331.166Z" fill="#A570FB"/>
<path fill-rule="evenodd" clip-rule="evenodd" d="M216.525 330.505V284.761L298.95 238.77V284.761L298.949 284.762V318.058L216.524 365.623V330.505L216.525 330.505Z" fill="#660BFA"/>
<path d="M174.912 351.815L152.04 365.692" stroke="#AA50FF" stroke-width="2" stroke-linecap="round" stroke-linejoin="round"/>
<path d="M301.875 536.95L399.054 480.207L301.063 424.643L202.845 481.207L301.875 536.95Z" stroke="#CD88FF" stroke-linecap="round" stroke-linejoin="round" stroke-dasharray="3.66 3.66"/>
<g filter="url(#filter8_d_6530_37219)">
<path d="M249.547 484.238C236.354 476.622 228.943 466.293 228.943 455.522C228.943 444.751 236.354 434.422 249.547 426.806L299.288 398.09L349.03 426.806C362.223 434.422 369.634 444.751 369.634 455.522C369.634 466.293 362.223 476.622 349.03 484.238C335.838 491.854 317.945 496.133 299.288 496.133C280.632 496.133 262.739 491.854 249.547 484.238V484.238Z" fill="#0ACF83"/>
</g>
<path d="M299.965 461.004L201.464 405.384L299.965 347.447L397.299 405.384L299.965 461.004Z" fill="#6400CA" stroke="url(#paint6_linear_6530_37219)" stroke-width="1.28034"/>
<path d="M299.482 461.465L299.482 522.849L200.817 464.689L200.817 405.036L299.482 461.465Z" fill="#4A0292"/>
<path d="M299.289 460.665L299.289 522.153L398.773 464.743L398.773 405.155L299.289 460.665Z" fill="#3C0077"/>
<path d="M289.972 401.333C289.972 399.942 291.926 398.814 294.336 398.814L304.242 398.814C306.652 398.814 308.606 399.942 308.606 401.333V407.053C308.606 408.444 306.652 409.572 304.242 409.572L294.336 409.572C291.926 409.572 289.972 408.444 289.972 407.053L289.972 401.333Z" fill="#A950FF"/>
<path d="M312.747 388.139C312.747 386.772 314.666 385.664 317.033 385.664L327.095 385.664C329.462 385.664 331.381 386.772 331.381 388.139V393.948C331.381 395.315 329.462 396.423 327.095 396.423L317.033 396.423C314.666 396.423 312.747 395.315 312.747 393.948L312.747 388.139Z" fill="#A950FF"/>
<path d="M267.197 388.139C267.197 386.772 269.115 385.665 271.482 385.665L281.545 385.665C283.912 385.665 285.831 386.772 285.831 388.139V393.949C285.831 395.315 283.912 396.423 281.545 396.423L271.482 396.423C269.115 396.423 267.197 395.315 267.197 393.949L267.197 388.139Z" fill="#E9C1FF"/>
<path d="M281.468 398.813C283.878 398.813 285.832 399.941 285.832 401.333V407.052C285.832 408.444 283.878 409.572 281.468 409.572L271.562 409.572C269.151 409.572 267.198 408.444 267.198 407.052V401.333C267.198 399.941 269.151 398.813 271.562 398.813L281.468 398.813Z" fill="#CD88FF"/>
<path d="M281.545 411.963C283.912 411.963 285.831 413.07 285.831 414.437V420.247C285.831 421.613 283.912 422.721 281.545 422.721L271.482 422.721C269.115 422.721 267.197 421.613 267.197 420.247L267.197 414.437C267.197 413.07 269.115 411.963 271.482 411.963L281.545 411.963Z" fill="#A950FF"/>
<path d="M304.243 385.664C306.653 385.664 308.607 386.792 308.607 388.184L308.607 393.904C308.607 395.295 306.653 396.423 304.243 396.423L294.336 396.423C291.926 396.423 289.972 395.295 289.972 393.904L289.972 388.184C289.972 386.792 291.926 385.664 294.336 385.664L304.243 385.664Z" fill="#CD88FF"/>
<path d="M323.126 412.326C328.51 412.326 332.875 414.846 332.875 417.955C332.875 421.064 328.51 423.584 323.126 423.584C317.742 423.584 313.377 421.064 313.377 417.955C313.377 414.846 317.742 412.326 323.126 412.326Z" fill="#F62E76"/>
<defs>
<filter id="filter0_f_6530_37219" x="209.767" y="41.9905" width="467.04" height="509.88" filterUnits="userSpaceOnUse" color-interpolation-filters="sRGB">
<feFlood flood-opacity="0" result="BackgroundImageFix"/>
<feBlend mode="normal" in="SourceGraphic" in2="BackgroundImageFix" result="shape"/>
<feGaussianBlur stdDeviation="75" result="effect1_foregroundBlur_6530_37219"/>
</filter>
<filter id="filter1_d_6530_37219" x="284.24" y="114.407" width="303.855" height="264.999" filterUnits="userSpaceOnUse" color-interpolation-filters="sRGB">
<feFlood flood-opacity="0" result="BackgroundImageFix"/>
<feColorMatrix in="SourceAlpha" type="matrix" values="0 0 0 0 0 0 0 0 0 0 0 0 0 0 0 0 0 0 127 0" result="hardAlpha"/>
<feOffset dy="7.30554"/>
<feGaussianBlur stdDeviation="43.9186"/>
<feComposite in2="hardAlpha" operator="out"/>
<feColorMatrix type="matrix" values="0 0 0 0 0.396 0 0 0 0 0 0 0 0 0 0.9 0 0 0 1 0"/>
<feBlend mode="normal" in2="BackgroundImageFix" result="effect1_dropShadow_6530_37219"/>
<feBlend mode="normal" in="SourceGraphic" in2="effect1_dropShadow_6530_37219" result="shape"/>
</filter>
<filter id="filter2_f_6530_37219" x="240.218" y="71.5554" width="257.887" height="257.887" filterUnits="userSpaceOnUse" color-interpolation-filters="sRGB">
<feFlood flood-opacity="0" result="BackgroundImageFix"/>
<feBlend mode="normal" in="SourceGraphic" in2="BackgroundImageFix" result="shape"/>
<feGaussianBlur stdDeviation="42.8207" result="effect1_foregroundBlur_6530_37219"/>
</filter>
<filter id="filter3_d_6530_37219" x="392.583" y="175.46" width="303.855" height="264.999" filterUnits="userSpaceOnUse" color-interpolation-filters="sRGB">
<feFlood flood-opacity="0" result="BackgroundImageFix"/>
<feColorMatrix in="SourceAlpha" type="matrix" values="0 0 0 0 0 0 0 0 0 0 0 0 0 0 0 0 0 0 127 0" result="hardAlpha"/>
<feOffset dy="7.30554"/>
<feGaussianBlur stdDeviation="43.9186"/>
<feComposite in2="hardAlpha" operator="out"/>
<feColorMatrix type="matrix" values="0 0 0 0 0.396 0 0 0 0 0 0 0 0 0 0.9 0 0 0 1 0"/>
<feBlend mode="normal" in2="BackgroundImageFix" result="effect1_dropShadow_6530_37219"/>
<feBlend mode="normal" in="SourceGraphic" in2="effect1_dropShadow_6530_37219" result="shape"/>
</filter>
<filter id="filter4_f_6530_37219" x="348.561" y="132.608" width="257.887" height="257.887" filterUnits="userSpaceOnUse" color-interpolation-filters="sRGB">
<feFlood flood-opacity="0" result="BackgroundImageFix"/>
<feBlend mode="normal" in="SourceGraphic" in2="BackgroundImageFix" result="shape"/>
<feGaussianBlur stdDeviation="42.8207" result="effect1_foregroundBlur_6530_37219"/>
</filter>
<filter id="filter5_d_6530_37219" x="501.859" y="237.805" width="303.855" height="264.999" filterUnits="userSpaceOnUse" color-interpolation-filters="sRGB">
<feFlood flood-opacity="0" result="BackgroundImageFix"/>
<feColorMatrix in="SourceAlpha" type="matrix" values="0 0 0 0 0 0 0 0 0 0 0 0 0 0 0 0 0 0 127 0" result="hardAlpha"/>
<feOffset dy="7.30554"/>
<feGaussianBlur stdDeviation="43.9186"/>
<feComposite in2="hardAlpha" operator="out"/>
<feColorMatrix type="matrix" values="0 0 0 0 0.396 0 0 0 0 0 0 0 0 0 0.9 0 0 0 1 0"/>
<feBlend mode="normal" in2="BackgroundImageFix" result="effect1_dropShadow_6530_37219"/>
<feBlend mode="normal" in="SourceGraphic" in2="effect1_dropShadow_6530_37219" result="shape"/>
</filter>
<filter id="filter6_f_6530_37219" x="457.837" y="194.953" width="257.887" height="257.887" filterUnits="userSpaceOnUse" color-interpolation-filters="sRGB">
<feFlood flood-opacity="0" result="BackgroundImageFix"/>
<feBlend mode="normal" in="SourceGraphic" in2="BackgroundImageFix" result="shape"/>
<feGaussianBlur stdDeviation="42.8207" result="effect1_foregroundBlur_6530_37219"/>
</filter>
<filter id="filter7_f_6530_37219" x="0.829102" y="0.643066" width="467.04" height="509.88" filterUnits="userSpaceOnUse" color-interpolation-filters="sRGB">
<feFlood flood-opacity="0" result="BackgroundImageFix"/>
<feBlend mode="normal" in="SourceGraphic" in2="BackgroundImageFix" result="shape"/>
<feGaussianBlur stdDeviation="75" result="effect1_foregroundBlur_6530_37219"/>
</filter>
<filter id="filter8_d_6530_37219" x="132.532" y="309.699" width="333.511" height="290.863" filterUnits="userSpaceOnUse" color-interpolation-filters="sRGB">
<feFlood flood-opacity="0" result="BackgroundImageFix"/>
<feColorMatrix in="SourceAlpha" type="matrix" values="0 0 0 0 0 0 0 0 0 0 0 0 0 0 0 0 0 0 127 0" result="hardAlpha"/>
<feOffset dy="8.01856"/>
<feGaussianBlur stdDeviation="48.205"/>
<feComposite in2="hardAlpha" operator="out"/>
<feColorMatrix type="matrix" values="0 0 0 0 0.396 0 0 0 0 0 0 0 0 0 0.9 0 0 0 1 0"/>
<feBlend mode="normal" in2="BackgroundImageFix" result="effect1_dropShadow_6530_37219"/>
<feBlend mode="normal" in="SourceGraphic" in2="effect1_dropShadow_6530_37219" result="shape"/>
</filter>
<linearGradient id="paint0_linear_6530_37219" x1="83.5198" y1="0" x2="83.5198" y2="209.88" gradientUnits="userSpaceOnUse">
<stop stop-color="#6218FF" stop-opacity="0"/>
<stop offset="1" stop-color="#6117FF"/>
</linearGradient>
<linearGradient id="paint1_linear_6530_37219" x1="373.107" y1="167.579" x2="448.901" y2="298.072" gradientUnits="userSpaceOnUse">
<stop offset="0.015625" stop-color="#B010FB"/>
<stop offset="0.130208" stop-color="#DE97FF"/>
<stop offset="0.234375" stop-color="#A227DB"/>
<stop offset="0.505208" stop-color="#A227DB" stop-opacity="0"/>
<stop offset="0.765625" stop-color="#A610EC" stop-opacity="0.84"/>
</linearGradient>
<linearGradient id="paint2_linear_6530_37219" x1="481.45" y1="228.632" x2="557.244" y2="359.125" gradientUnits="userSpaceOnUse">
<stop offset="0.015625" stop-color="#B010FB"/>
<stop offset="0.130208" stop-color="#DE97FF"/>
<stop offset="0.234375" stop-color="#A227DB"/>
<stop offset="0.505208" stop-color="#A227DB" stop-opacity="0"/>
<stop offset="0.765625" stop-color="#A610EC" stop-opacity="0.84"/>
</linearGradient>
<linearGradient id="paint3_linear_6530_37219" x1="590.725" y1="290.976" x2="666.519" y2="421.47" gradientUnits="userSpaceOnUse">
<stop offset="0.015625" stop-color="#B010FB"/>
<stop offset="0.130208" stop-color="#DE97FF"/>
<stop offset="0.234375" stop-color="#A227DB"/>
<stop offset="0.505208" stop-color="#A227DB" stop-opacity="0"/>
<stop offset="0.765625" stop-color="#A610EC" stop-opacity="0.84"/>
</linearGradient>
<linearGradient id="paint4_linear_6530_37219" x1="172.866" y1="371.923" x2="244.845" y2="418.467" gradientUnits="userSpaceOnUse">
<stop stop-color="#AA50FF"/>
<stop offset="1" stop-color="white"/>
</linearGradient>
<linearGradient id="paint5_linear_6530_37219" x1="83.5198" y1="0" x2="83.5198" y2="209.88" gradientUnits="userSpaceOnUse">
<stop stop-color="#6218FF" stop-opacity="0"/>
<stop offset="1" stop-color="#6117FF"/>
</linearGradient>
<linearGradient id="paint6_linear_6530_37219" x1="230.073" y1="368.059" x2="313.264" y2="511.289" gradientUnits="userSpaceOnUse">
<stop offset="0.015625" stop-color="#B010FB"/>
<stop offset="0.130208" stop-color="#DE97FF"/>
<stop offset="0.234375" stop-color="#A227DB"/>
<stop offset="0.505208" stop-color="#A227DB" stop-opacity="0"/>
<stop offset="0.765625" stop-color="#A610EC" stop-opacity="0.84"/>
</linearGradient>
<clipPath id="clip0_6530_37219">
<rect width="65.136" height="65.136" fill="white" transform="matrix(0.866025 -0.5 0.866025 0.5 379.759 201.376)"/>
</clipPath>
<clipPath id="clip1_6530_37219">
<rect width="73.5136" height="73.5136" fill="white" transform="matrix(0.866025 -0.5 0.866025 0.5 590.3 323.873)"/>
</clipPath>
<clipPath id="clip2_6530_37219">
<rect width="42.3058" height="42.3058" fill="white" transform="matrix(0.866025 -0.5 0.857167 0.515038 190.718 241.755)"/>
</clipPath>
</defs>
</svg>
