<svg width="806" height="601" viewBox="0 0 806 601" fill="none" xmlns="http://www.w3.org/2000/svg">
<g clip-path="url(#clip0_8998_18134)">
<g filter="url(#filter0_f_8998_18134)">
<rect width="191.182" height="478.318" transform="matrix(-0.409454 0.912331 0.912331 0.409454 280.102 55.0146)" fill="url(#paint0_linear_8998_18134)"/>
</g>
<g filter="url(#filter1_f_8998_18134)">
<rect width="349.613" height="245.405" transform="matrix(-0.999351 -0.0360302 -0.0360302 0.999351 593.172 163.834)" fill="url(#paint1_linear_8998_18134)"/>
</g>
<path d="M617.081 398.287L717.55 339.886C720.874 337.953 720.864 333.148 717.531 331.23L394.748 145.462C393.204 144.574 391.305 144.574 389.762 145.461L288.412 203.725C285.067 205.647 285.068 210.473 288.413 212.395L612.078 398.3C613.628 399.19 615.535 399.185 617.081 398.287Z" stroke="#CD88FF" stroke-linecap="round" stroke-linejoin="round" stroke-dasharray="3.33 3.33"/>
<path d="M484.464 155.584L395.785 206.259L306.043 155.584L395.784 102.799L484.464 155.584Z" fill="#6400CA" stroke="url(#paint2_linear_8998_18134)" stroke-width="1.16649"/>
<path d="M395.345 206.679L395.345 262.605L305.453 209.616L305.453 155.267L395.345 206.679Z" fill="#4A0292"/>
<path d="M395.168 205.95L395.168 261.97L485.806 209.665L485.806 155.376L395.168 205.95Z" fill="#3C0077"/>
<g clip-path="url(#clip1_8998_18134)">
<path d="M371.663 147.234L381.064 147.234L399.867 136.378C401.114 135.658 402.805 135.254 404.568 135.254C406.331 135.254 408.022 135.658 409.269 136.378L417.495 141.127C414.933 141.738 412.536 142.634 410.444 143.841C406.392 146.181 404.116 149.354 404.116 152.662C404.116 155.97 406.392 159.143 410.444 161.482C412.536 162.69 414.933 163.586 417.495 164.196L395.166 177.088C392.558 178.594 388.35 178.581 385.765 177.088L357.56 160.804C354.951 159.298 354.951 156.882 357.56 155.376L371.663 147.234ZM411.619 145.877L415.145 147.912C417.638 146.473 421.02 145.664 424.546 145.664C428.073 145.664 431.455 146.473 433.948 147.912C435.875 149.025 437.074 150.396 437.568 151.821L432.444 151.821C432.044 151.128 431.363 150.491 430.422 149.948C428.864 149.048 426.75 148.543 424.546 148.543C422.342 148.543 420.229 149.048 418.67 149.948L422.196 151.983L411.619 151.983L411.619 145.877ZM437.474 160.804L433.948 158.768C431.455 160.208 428.073 161.017 424.546 161.017C421.02 161.017 417.638 160.208 415.145 158.768C413.218 157.656 412.019 156.285 411.525 154.86L416.649 154.86C417.049 155.552 417.73 156.19 418.67 156.733C420.229 157.633 422.342 158.138 424.546 158.138C426.75 158.138 428.864 157.633 430.422 156.733L426.897 154.697L437.474 154.697L437.474 160.804Z" fill="white"/>
</g>
<g filter="url(#filter2_f_8998_18134)">
<rect width="152.56" height="120.18" transform="matrix(-1 0 0 1 552.426 105.34)" fill="url(#paint3_linear_8998_18134)"/>
</g>
<path d="M592.804 216.637L504.124 267.312L414.383 216.637L504.124 163.852L592.804 216.637Z" fill="#6400CA" stroke="url(#paint4_linear_8998_18134)" stroke-width="1.16649"/>
<path d="M503.684 267.732L503.684 323.657L413.793 270.669L413.793 216.32L503.684 267.732Z" fill="#4A0292"/>
<path d="M503.508 267.003L503.508 323.023L594.145 270.718L594.145 216.429L503.508 267.003Z" fill="#3C0077"/>
<path d="M528.898 198.054L478.477 198.054C475.574 198.054 473.219 199.413 473.218 201.091L473.22 207.136L486.5 207.136C487.522 205.944 489.642 205.124 492.102 205.124C494.577 205.125 496.709 205.955 497.723 207.158L510.524 207.158C511.539 205.955 513.671 205.123 516.146 205.124C519.602 205.124 522.402 206.741 522.404 208.737C522.403 210.734 519.603 212.35 516.144 212.351C513.544 212.35 511.312 211.433 510.37 210.128L498.431 210.129L514.139 219.198C514.768 219.075 515.444 219.006 516.145 219.006C519.601 219.006 522.402 220.623 522.404 222.619C522.403 224.614 519.601 226.232 516.147 226.232C512.688 226.23 509.888 224.613 509.888 222.618C509.889 222.125 510.06 221.653 510.372 221.224L494.517 212.07C493.773 212.25 492.96 212.35 492.102 212.349C489.485 212.35 487.248 211.422 486.312 210.106L473.218 210.106L473.216 230.066C473.218 231.744 475.572 233.104 478.477 233.104L528.899 233.102C531.803 233.103 534.157 231.744 534.158 230.066L534.158 201.091C534.158 199.414 531.803 198.054 528.898 198.054Z" fill="#F05133"/>
<path d="M702.081 278.982L613.402 329.657L523.66 278.982L613.402 226.197L702.081 278.982Z" fill="#6400CA" stroke="url(#paint5_linear_8998_18134)" stroke-width="1.16649"/>
<path d="M612.962 330.077L612.962 386.002L523.07 333.013L523.07 278.665L612.962 330.077Z" fill="#4A0292"/>
<path d="M612.785 329.348L612.785 385.368L703.423 333.062L703.423 278.774L612.785 329.348Z" fill="#3C0077"/>
<g clip-path="url(#clip2_8998_18134)">
<path d="M611.35 253.54C610.487 253.633 609.663 253.822 608.924 254.096C608.165 254.377 607.498 254.733 606.956 255.148C606.387 255.583 605.95 256.071 605.665 256.591L604.425 259.069L603.177 261.549L601.927 264.031L600.693 266.519C600.444 267.069 600.073 267.598 599.59 268.093C599.13 268.576 598.557 269.021 597.888 269.414C597.222 269.808 596.467 270.148 595.643 270.425C594.793 270.711 593.881 270.93 592.931 271.079L588.781 271.787L584.632 272.495L580.487 273.206L576.335 273.915C574.702 274.123 573.253 274.663 572.253 275.437C571.341 276.158 570.838 277.024 570.813 277.916C570.771 278.806 571.211 279.682 572.071 280.421C573.016 281.216 574.428 281.786 576.046 282.025L578.714 282.478L584.581 283.467L590.447 284.456L593.119 284.908C594.064 285.048 594.973 285.259 595.825 285.533C596.653 285.805 597.414 286.139 598.088 286.527C598.762 286.918 599.343 287.358 599.815 287.837C600.333 288.329 600.736 288.859 601.012 289.412L602.289 291.854L603.556 294.292L604.821 296.728L606.087 299.166C606.289 299.569 606.577 299.956 606.945 300.318C607.293 300.66 607.724 300.971 608.223 301.243C608.718 301.508 609.281 301.727 609.891 301.893C610.524 302.071 611.202 302.19 611.899 302.247C612.767 302.326 613.653 302.312 614.512 302.207C615.373 302.107 616.196 301.921 616.945 301.656C617.716 301.386 618.399 301.039 618.962 300.632C619.547 300.207 619.994 299.723 620.28 299.205L621.58 296.633L622.878 294.064L624.175 291.493L625.472 288.922C623.987 289.062 622.479 289.116 620.975 289.08C619.465 289.043 617.963 288.94 616.48 288.775C614.988 288.61 613.51 288.395 612.056 288.147C610.76 287.926 609.485 287.681 608.232 287.429C610.308 287.793 613.301 287.725 616.766 287.39C620.918 286.947 625.019 286.354 629.043 285.616C633.315 284.863 637.578 284.02 641.289 283.309C645 282.598 648.17 282.009 650.232 281.765C651.829 281.529 653.209 280.949 654.09 280.145C654.882 279.385 655.244 278.5 655.124 277.616C655.026 276.705 654.472 275.831 653.53 275.098C652.532 274.325 651.099 273.777 649.477 273.546L644.703 272.752L634.213 270.994L623.723 269.236L619.002 268.451C618.035 268.309 617.057 268.196 616.071 268.112C615.097 268.033 614.117 267.988 613.134 267.979C612.156 267.969 611.178 267.998 610.207 268.065C609.22 268.133 608.242 268.244 607.284 268.397C608.667 268.098 610.083 267.8 611.515 267.532C612.95 267.259 614.41 267.029 615.887 266.843C617.36 266.657 618.858 266.538 620.364 266.49C621.889 266.444 623.418 266.493 624.925 266.638L623.655 264.139L622.386 261.64L621.117 259.135L619.847 256.636C619.681 256.246 619.417 255.872 619.062 255.526C618.711 255.183 618.278 254.87 617.776 254.596C617.265 254.323 616.686 254.094 616.06 253.918C615.419 253.737 614.733 253.617 614.027 253.56C613.145 253.452 612.236 253.445 611.35 253.54ZM615.085 296.656C615.697 296.964 616.051 297.408 616.057 297.877C616.064 298.345 615.723 298.792 615.12 299.106C613.959 299.787 612.061 299.796 610.881 299.126C609.701 298.455 609.686 297.359 610.847 296.678C611.378 296.325 612.146 296.12 612.957 296.116C613.768 296.111 614.543 296.308 615.085 296.656ZM576.327 279.121C575.715 278.813 575.361 278.369 575.355 277.901C575.348 277.433 575.689 276.985 576.292 276.672C576.824 276.319 577.593 276.115 578.404 276.111C579.215 276.107 579.991 276.303 580.534 276.651C581.146 276.959 581.499 277.403 581.506 277.871C581.513 278.34 581.172 278.787 580.569 279.1C580.036 279.454 579.267 279.658 578.455 279.662C577.644 279.666 576.87 279.469 576.327 279.121ZM649.613 276.647C650.481 277.137 650.75 277.882 650.296 278.533C649.842 279.183 648.754 279.611 647.539 279.617C646.325 279.623 645.223 279.207 644.749 278.561C644.275 277.915 644.522 277.169 645.374 276.669C645.905 276.315 646.673 276.111 647.484 276.106C648.295 276.102 649.071 276.299 649.613 276.647ZM617.245 274.526C615.597 274.296 614.165 274.66 612.941 275.383C611.308 276.391 610.869 277.863 611.825 279.128C612.781 280.394 614.949 281.21 617.34 281.204C615.828 281.88 613.911 282.177 612.016 282.031C610.122 281.884 608.407 281.306 607.257 280.424C604.972 278.646 605.554 275.903 608.611 274.573C611.263 273.485 614.755 273.348 617.245 274.526ZM615.086 256.537C616.2 257.214 616.183 258.279 615.05 258.945C613.917 259.612 612.074 259.639 610.881 259.008C609.767 258.331 609.783 257.267 610.916 256.601C612.049 255.934 613.894 255.906 615.086 256.537Z" fill="#FF694B"/>
</g>
<path d="M219.086 383.358L111.039 319.692" stroke="url(#paint6_linear_8998_18134)" stroke-width="2" stroke-linecap="round" stroke-linejoin="round"/>
<g filter="url(#filter3_d_8998_18134)">
<path d="M419.131 300.704L295.332 372.976" stroke="#D9B6F8" stroke-width="2" stroke-linejoin="round"/>
</g>
<path d="M427.606 295.015L423.653 303.532L412.854 297.297L427.606 295.015Z" fill="#D9B6F8"/>
<path d="M93.2195 281.793C92.9113 281.974 92.7234 282.306 92.7265 282.664C92.7297 283.021 92.9235 283.35 93.2348 283.525L175.908 330.208C176.215 330.382 176.59 330.381 176.896 330.206L258.591 283.523C258.899 283.346 259.091 283.019 259.094 282.664C259.098 282.308 258.912 281.977 258.606 281.795L176.911 233.168C176.598 232.981 176.207 232.98 175.893 233.165L93.2195 281.793Z" stroke="#AA50FF" stroke-width="2" stroke-linejoin="round"/>
<path d="M178.087 274.395L95.414 227.712L178.087 179.084L259.782 227.712L178.087 274.395Z" fill="#8C49FA"/>
<path d="M176.087 239.653L93.4141 192.97L176.087 144.342L257.782 192.97L176.087 239.653Z" fill="#8C49FA"/>
<path fill-rule="evenodd" clip-rule="evenodd" d="M175.683 285.166V239.425L93.9375 192.672V238.414V242.096V271.395L175.683 319.582V290.283V285.166Z" fill="#A570FB"/>
<path fill-rule="evenodd" clip-rule="evenodd" d="M175.524 284.505V238.761L257.949 192.77V238.761L257.948 238.762V272.058L175.523 319.623V284.505L175.524 284.505Z" fill="#660BFA"/>
<path d="M133.911 305.814L111.039 319.692" stroke="#AA50FF" stroke-width="2" stroke-linecap="round" stroke-linejoin="round"/>
<g filter="url(#filter4_f_8998_18134)">
<rect width="152.56" height="120.18" transform="matrix(-1 0 0 1 289.805 141.664)" fill="url(#paint7_linear_8998_18134)"/>
</g>
<path d="M149.475 193.238L144.583 190.299L133.895 188.615L136.027 187.384L143.882 188.707L141.745 184.083L143.893 182.843L146.553 189.171L151.437 192.105L149.475 193.238ZM154.823 190.15L147.456 180.785L149.588 179.555L165.338 184.08L163.367 185.217L159.424 184.075L154.95 186.658L156.802 189.008L154.823 190.15ZM153.692 185.35L157.205 183.322L150.409 181.303L153.692 185.35ZM167.296 182.949L155.738 176.004L158.548 174.382L170.441 177.921L164.702 170.829L167.496 169.216L179.054 176.16L177.06 177.312L167.995 171.866L173.983 179.088L172.343 180.035L160.283 176.385L169.291 181.797L167.296 182.949ZM181.886 174.525L170.336 167.576L172.323 166.429L182.202 172.365L187.476 169.321L189.154 170.329L181.886 174.525Z" fill="white"/>
<g clip-path="url(#clip3_8998_18134)">
<path d="M163.405 193.924L167.688 193.961L167.639 199.651L177.298 199.735L177.291 202.267L163.334 202.136L163.405 193.924ZM172.29 188.794L186.232 188.916L186.176 197.138L181.878 197.091L181.927 191.401L172.268 191.317L172.29 188.794ZM192.37 181.812L210.502 192.706C212.179 193.714 212.165 195.307 210.47 196.285L186.045 210.387C184.366 211.356 181.647 211.342 179.97 210.334L173.926 206.702L176.979 204.94L183.023 208.571L207.448 194.469L189.317 183.575L184.783 186.192L181.761 184.377L186.295 181.759C187.989 180.781 190.693 180.804 192.37 181.812Z" fill="white"/>
</g>
<g filter="url(#filter5_d_8998_18134)">
<path d="M261.867 490.372L355.053 435.959C356.385 435.181 356.373 433.253 355.031 432.492L261.058 379.207C260.442 378.857 259.687 378.86 259.073 379.213L164.89 433.454C163.546 434.228 163.556 436.17 164.907 436.93L259.877 490.388C260.496 490.736 261.253 490.73 261.867 490.372Z" stroke="#CD88FF" stroke-linecap="round" stroke-linejoin="round" stroke-dasharray="3.66 3.66" shape-rendering="crispEdges"/>
</g>
<path d="M258.481 415.465L258.481 476.849L159.816 418.689L159.816 359.036L258.481 415.465Z" fill="#4A0292"/>
<path d="M258.289 414.666L258.289 476.153L357.773 418.743L357.773 359.156L258.289 414.666Z" fill="#3C0077"/>
<g filter="url(#filter6_f_8998_18134)">
<rect width="152.56" height="120.18" transform="matrix(-1 0 0 1 319.855 378.878)" fill="url(#paint8_linear_8998_18134)"/>
</g>
<g filter="url(#filter7_d_8998_18134)">
<path d="M258.968 415.741L159.184 359.396L258.968 300.704L357.571 359.396L258.968 415.741Z" fill="#6400CA"/>
<path d="M356.579 359.387L258.966 415.166L160.185 359.387L258.966 301.285L356.579 359.387Z" stroke="#EECFFD"/>
</g>
<path d="M248.97 355.333C248.97 353.942 250.924 352.814 253.334 352.814L263.24 352.814C265.65 352.814 267.604 353.942 267.604 355.333L267.604 361.053C267.604 362.444 265.65 363.572 263.24 363.572L253.334 363.572C250.924 363.572 248.97 362.444 248.97 361.053L248.97 355.333Z" fill="#A950FF"/>
<path d="M271.745 342.139C271.745 340.772 273.664 339.664 276.031 339.664L286.093 339.664C288.46 339.664 290.379 340.772 290.379 342.139L290.379 347.948C290.379 349.315 288.46 350.423 286.093 350.423L276.031 350.423C273.664 350.423 271.745 349.315 271.745 347.948L271.745 342.139Z" fill="#A950FF"/>
<path d="M226.195 342.139C226.195 340.772 228.113 339.665 230.48 339.665L240.543 339.665C242.91 339.665 244.829 340.772 244.829 342.139L244.829 347.949C244.829 349.315 242.91 350.423 240.543 350.423L230.48 350.423C228.113 350.423 226.195 349.315 226.195 347.949L226.195 342.139Z" fill="#E9C1FF"/>
<path d="M240.466 352.813C242.876 352.813 244.83 353.941 244.83 355.333L244.83 361.052C244.83 362.444 242.876 363.572 240.466 363.572L230.56 363.572C228.15 363.572 226.196 362.444 226.196 361.052L226.196 355.333C226.196 353.941 228.15 352.813 230.56 352.813L240.466 352.813Z" fill="#CD88FF"/>
<path d="M240.543 365.963C242.91 365.963 244.829 367.07 244.829 368.437L244.829 374.247C244.829 375.613 242.91 376.721 240.543 376.721L230.48 376.721C228.113 376.721 226.195 375.613 226.195 374.247L226.195 368.437C226.195 367.07 228.113 365.963 230.48 365.963L240.543 365.963Z" fill="#A950FF"/>
<path d="M263.241 339.664C265.651 339.664 267.605 340.792 267.605 342.184L267.605 347.904C267.605 349.295 265.651 350.423 263.241 350.423L253.334 350.423C250.924 350.423 248.97 349.295 248.97 347.904L248.97 342.184C248.97 340.792 250.924 339.664 253.334 339.664L263.241 339.664Z" fill="#CD88FF"/>
<path d="M282.124 366.326C287.508 366.326 291.873 368.846 291.873 371.955C291.873 375.064 287.508 377.584 282.124 377.584C276.74 377.584 272.375 375.064 272.375 371.955C272.375 368.846 276.74 366.326 282.124 366.326Z" fill="#F62E76"/>
</g>
<defs>
<filter id="filter0_f_8998_18134" x="131.82" y="-14.9854" width="654.664" height="510.271" filterUnits="userSpaceOnUse" color-interpolation-filters="sRGB">
<feFlood flood-opacity="0" result="BackgroundImageFix"/>
<feBlend mode="normal" in="SourceGraphic" in2="BackgroundImageFix" result="shape"/>
<feGaussianBlur stdDeviation="35" result="effect1_foregroundBlur_8998_18134"/>
</filter>
<filter id="filter1_f_8998_18134" x="104.945" y="21.2373" width="618.227" height="517.842" filterUnits="userSpaceOnUse" color-interpolation-filters="sRGB">
<feFlood flood-opacity="0" result="BackgroundImageFix"/>
<feBlend mode="normal" in="SourceGraphic" in2="BackgroundImageFix" result="shape"/>
<feGaussianBlur stdDeviation="65" result="effect1_foregroundBlur_8998_18134"/>
</filter>
<filter id="filter2_f_8998_18134" x="329.867" y="35.3396" width="292.559" height="260.18" filterUnits="userSpaceOnUse" color-interpolation-filters="sRGB">
<feFlood flood-opacity="0" result="BackgroundImageFix"/>
<feBlend mode="normal" in="SourceGraphic" in2="BackgroundImageFix" result="shape"/>
<feGaussianBlur stdDeviation="35" result="effect1_foregroundBlur_8998_18134"/>
</filter>
<filter id="filter3_d_8998_18134" x="284.828" y="285.84" width="144.805" height="94" filterUnits="userSpaceOnUse" color-interpolation-filters="sRGB">
<feFlood flood-opacity="0" result="BackgroundImageFix"/>
<feColorMatrix in="SourceAlpha" type="matrix" values="0 0 0 0 0 0 0 0 0 0 0 0 0 0 0 0 0 0 127 0" result="hardAlpha"/>
<feOffset dy="-4"/>
<feGaussianBlur stdDeviation="5"/>
<feComposite in2="hardAlpha" operator="out"/>
<feColorMatrix type="matrix" values="0 0 0 0 0.86125 0 0 0 0 0.87883 0 0 0 0 0.975 0 0 0 0.5 0"/>
<feBlend mode="normal" in2="BackgroundImageFix" result="effect1_dropShadow_8998_18134"/>
<feBlend mode="normal" in="SourceGraphic" in2="effect1_dropShadow_8998_18134" result="shape"/>
</filter>
<filter id="filter4_f_8998_18134" x="67.2461" y="71.6638" width="292.559" height="260.18" filterUnits="userSpaceOnUse" color-interpolation-filters="sRGB">
<feFlood flood-opacity="0" result="BackgroundImageFix"/>
<feBlend mode="normal" in="SourceGraphic" in2="BackgroundImageFix" result="shape"/>
<feGaussianBlur stdDeviation="35" result="effect1_foregroundBlur_8998_18134"/>
</filter>
<filter id="filter5_d_8998_18134" x="153.652" y="364.447" width="212.633" height="132.698" filterUnits="userSpaceOnUse" color-interpolation-filters="sRGB">
<feFlood flood-opacity="0" result="BackgroundImageFix"/>
<feColorMatrix in="SourceAlpha" type="matrix" values="0 0 0 0 0 0 0 0 0 0 0 0 0 0 0 0 0 0 127 0" result="hardAlpha"/>
<feOffset dy="-4"/>
<feGaussianBlur stdDeviation="5"/>
<feComposite in2="hardAlpha" operator="out"/>
<feColorMatrix type="matrix" values="0 0 0 0 0.86125 0 0 0 0 0.87883 0 0 0 0 0.975 0 0 0 0.5 0"/>
<feBlend mode="normal" in2="BackgroundImageFix" result="effect1_dropShadow_8998_18134"/>
<feBlend mode="normal" in="SourceGraphic" in2="effect1_dropShadow_8998_18134" result="shape"/>
</filter>
<filter id="filter6_f_8998_18134" x="97.2969" y="308.878" width="292.559" height="260.18" filterUnits="userSpaceOnUse" color-interpolation-filters="sRGB">
<feFlood flood-opacity="0" result="BackgroundImageFix"/>
<feBlend mode="normal" in="SourceGraphic" in2="BackgroundImageFix" result="shape"/>
<feGaussianBlur stdDeviation="35" result="effect1_foregroundBlur_8998_18134"/>
</filter>
<filter id="filter7_d_8998_18134" x="149.184" y="286.704" width="218.387" height="135.037" filterUnits="userSpaceOnUse" color-interpolation-filters="sRGB">
<feFlood flood-opacity="0" result="BackgroundImageFix"/>
<feColorMatrix in="SourceAlpha" type="matrix" values="0 0 0 0 0 0 0 0 0 0 0 0 0 0 0 0 0 0 127 0" result="hardAlpha"/>
<feOffset dy="-4"/>
<feGaussianBlur stdDeviation="5"/>
<feComposite in2="hardAlpha" operator="out"/>
<feColorMatrix type="matrix" values="0 0 0 0 0.86125 0 0 0 0 0.87883 0 0 0 0 0.975 0 0 0 0.5 0"/>
<feBlend mode="normal" in2="BackgroundImageFix" result="effect1_dropShadow_8998_18134"/>
<feBlend mode="normal" in="SourceGraphic" in2="effect1_dropShadow_8998_18134" result="shape"/>
</filter>
<linearGradient id="paint0_linear_8998_18134" x1="95.591" y1="0" x2="95.591" y2="478.318" gradientUnits="userSpaceOnUse">
<stop stop-color="#6218FF" stop-opacity="0"/>
<stop offset="1" stop-color="#6117FF"/>
</linearGradient>
<linearGradient id="paint1_linear_8998_18134" x1="174.807" y1="0" x2="174.807" y2="245.405" gradientUnits="userSpaceOnUse">
<stop stop-color="#6218FF" stop-opacity="0"/>
<stop offset="1" stop-color="#6117FF"/>
</linearGradient>
<linearGradient id="paint2_linear_8998_18134" x1="332.107" y1="121.579" x2="407.901" y2="252.072" gradientUnits="userSpaceOnUse">
<stop offset="0.015625" stop-color="#B010FB"/>
<stop offset="0.130208" stop-color="#DE97FF"/>
<stop offset="0.234375" stop-color="#A227DB"/>
<stop offset="0.505208" stop-color="#A227DB" stop-opacity="0"/>
<stop offset="0.765625" stop-color="#A610EC" stop-opacity="0.84"/>
</linearGradient>
<linearGradient id="paint3_linear_8998_18134" x1="76.2801" y1="0" x2="76.2801" y2="120.18" gradientUnits="userSpaceOnUse">
<stop stop-color="#6218FF" stop-opacity="0"/>
<stop offset="1" stop-color="#6117FF"/>
</linearGradient>
<linearGradient id="paint4_linear_8998_18134" x1="440.447" y1="182.631" x2="516.241" y2="313.125" gradientUnits="userSpaceOnUse">
<stop offset="0.015625" stop-color="#B010FB"/>
<stop offset="0.130208" stop-color="#DE97FF"/>
<stop offset="0.234375" stop-color="#A227DB"/>
<stop offset="0.505208" stop-color="#A227DB" stop-opacity="0"/>
<stop offset="0.765625" stop-color="#A610EC" stop-opacity="0.84"/>
</linearGradient>
<linearGradient id="paint5_linear_8998_18134" x1="549.724" y1="244.976" x2="625.518" y2="375.47" gradientUnits="userSpaceOnUse">
<stop offset="0.015625" stop-color="#B010FB"/>
<stop offset="0.130208" stop-color="#DE97FF"/>
<stop offset="0.234375" stop-color="#A227DB"/>
<stop offset="0.505208" stop-color="#A227DB" stop-opacity="0"/>
<stop offset="0.765625" stop-color="#A610EC" stop-opacity="0.84"/>
</linearGradient>
<linearGradient id="paint6_linear_8998_18134" x1="131.866" y1="325.922" x2="203.845" y2="372.467" gradientUnits="userSpaceOnUse">
<stop stop-color="#AA50FF"/>
<stop offset="1" stop-color="white"/>
</linearGradient>
<linearGradient id="paint7_linear_8998_18134" x1="76.2801" y1="0" x2="76.2801" y2="120.18" gradientUnits="userSpaceOnUse">
<stop stop-color="#6218FF" stop-opacity="0"/>
<stop offset="1" stop-color="#6117FF"/>
</linearGradient>
<linearGradient id="paint8_linear_8998_18134" x1="76.2801" y1="0" x2="76.2801" y2="120.18" gradientUnits="userSpaceOnUse">
<stop stop-color="#6218FF" stop-opacity="0"/>
<stop offset="1" stop-color="#6117FF"/>
</linearGradient>
<clipPath id="clip0_8998_18134">
<rect width="806" height="601" fill="white"/>
</clipPath>
<clipPath id="clip1_8998_18134">
<rect width="65.136" height="65.136" fill="white" transform="matrix(0.866025 -0.5 0.866025 0.5 338.758 155.376)"/>
</clipPath>
<clipPath id="clip2_8998_18134">
<rect width="73.5136" height="73.5136" fill="white" transform="matrix(0.866025 -0.5 0.866025 0.5 549.301 277.873)"/>
</clipPath>
<clipPath id="clip3_8998_18134">
<rect width="42.3058" height="42.3058" fill="white" transform="matrix(0.866025 -0.5 0.857167 0.515038 149.719 195.755)"/>
</clipPath>
</defs>
</svg>
