<svg width="69" height="69" viewBox="0 0 69 69" fill="none" xmlns="http://www.w3.org/2000/svg">
<g filter="url(#filter0_d_5738_5575)">
<rect x="4.87305" y="2.98633" width="59" height="59" rx="7.5" fill="#111113" stroke="url(#paint0_linear_5738_5575)"/>
<path d="M50.123 41.0273V20.0273H18.623V41.0273H50.123ZM50.123 16.5273C51.0513 16.5273 51.9415 16.8961 52.5979 17.5525C53.2543 18.2088 53.623 19.0991 53.623 20.0273V41.0273C53.623 41.9556 53.2543 42.8458 52.5979 43.5022C51.9415 44.1586 51.0513 44.5273 50.123 44.5273H41.373V48.0273H27.373V44.5273H18.623C17.6948 44.5273 16.8046 44.1586 16.1482 43.5022C15.4918 42.8458 15.123 41.9556 15.123 41.0273V20.0273C15.123 19.0991 15.4918 18.2088 16.1482 17.5525C16.8046 16.8961 17.6948 16.5273 18.623 16.5273H50.123ZM22.123 23.5273H32.623V30.5273H22.123V23.5273ZM22.123 34.0273H32.623V37.5273H22.123V34.0273ZM36.123 23.5273H46.623V27.0273H36.123V23.5273ZM36.123 30.5273H46.623V37.5273H36.123V30.5273Z" fill="url(#paint1_linear_5738_5575)"/>
</g>
<defs>
<filter id="filter0_d_5738_5575" x="0.373047" y="0.277344" width="68" height="68.209" filterUnits="userSpaceOnUse" color-interpolation-filters="sRGB">
<feFlood flood-opacity="0" result="BackgroundImageFix"/>
<feColorMatrix in="SourceAlpha" type="matrix" values="0 0 0 0 0 0 0 0 0 0 0 0 0 0 0 0 0 0 127 0" result="hardAlpha"/>
<feOffset dy="2"/>
<feGaussianBlur stdDeviation="2"/>
<feComposite in2="hardAlpha" operator="out"/>
<feColorMatrix type="matrix" values="0 0 0 0 0 0 0 0 0 0 0 0 0 0 0 0 0 0 0.07 0"/>
<feBlend mode="normal" in2="BackgroundImageFix" result="effect1_dropShadow_5738_5575"/>
<feBlend mode="normal" in="SourceGraphic" in2="effect1_dropShadow_5738_5575" result="shape"/>
</filter>
<linearGradient id="paint0_linear_5738_5575" x1="13.4129" y1="13.625" x2="63.3662" y2="63.4955" gradientUnits="userSpaceOnUse">
<stop offset="0.015625" stop-color="#B010FB"/>
<stop offset="0.130208" stop-color="#DE97FF"/>
<stop offset="0.234375" stop-color="#A227DB"/>
<stop offset="0.505208" stop-color="#A227DB" stop-opacity="0"/>
<stop offset="0.765625" stop-color="#A610EC" stop-opacity="0.84"/>
</linearGradient>
<linearGradient id="paint1_linear_5738_5575" x1="20.9237" y1="22.3751" x2="46.6382" y2="53.752" gradientUnits="userSpaceOnUse">
<stop offset="0.015625" stop-color="#F2D5FF"/>
<stop offset="1" stop-color="#CB5AFF"/>
</linearGradient>
</defs>
</svg>
