<svg width="69" height="69" viewBox="0 0 69 69" fill="none" xmlns="http://www.w3.org/2000/svg">
<g filter="url(#filter0_d_5738_5543)">
<rect x="4.87305" y="2.98633" width="59" height="59" rx="7.5" fill="#111113" stroke="url(#paint0_linear_5738_5543)"/>
<path d="M34.0566 15.0123C31.7585 15.0123 29.4829 15.465 27.3597 16.3444C25.2365 17.2239 23.3073 18.5129 21.6823 20.138C18.4004 23.4198 16.5566 27.871 16.5566 32.5123C16.5566 40.2473 21.5791 46.8098 28.5266 49.1373C29.4016 49.2773 29.6816 48.7348 29.6816 48.2623C29.6816 47.8598 29.6816 46.7573 29.6816 45.3048C24.8341 46.3548 23.8016 42.9598 23.8016 42.9598C22.9966 40.9298 21.8591 40.3873 21.8591 40.3873C20.2666 39.3023 21.9816 39.3373 21.9816 39.3373C23.7316 39.4598 24.6591 41.1398 24.6591 41.1398C26.1816 43.7998 28.7541 43.0123 29.7516 42.5923C29.9091 41.4548 30.3641 40.6848 30.8541 40.2473C26.9691 39.8098 22.8916 38.3048 22.8916 31.6373C22.8916 29.6948 23.5566 28.1373 24.6941 26.8948C24.5191 26.4573 23.9066 24.6373 24.8691 22.2748C24.8691 22.2748 26.3391 21.8023 29.6816 24.0598C31.0641 23.6748 32.5691 23.4823 34.0566 23.4823C35.5441 23.4823 37.0491 23.6748 38.4316 24.0598C41.7741 21.8023 43.2441 22.2748 43.2441 22.2748C44.2066 24.6373 43.5941 26.4573 43.4191 26.8948C44.5566 28.1373 45.2216 29.6948 45.2216 31.6373C45.2216 38.3223 41.1266 39.7923 37.2241 40.2298C37.8541 40.7723 38.4316 41.8398 38.4316 43.4673C38.4316 45.8123 38.4316 47.7023 38.4316 48.2623C38.4316 48.7348 38.7116 49.2948 39.6041 49.1373C46.5516 46.7923 51.5566 40.2473 51.5566 32.5123C51.5566 30.2142 51.104 27.9386 50.2245 25.8154C49.3451 23.6922 48.056 21.763 46.431 20.138C44.806 18.5129 42.8768 17.2239 40.7536 16.3444C38.6304 15.465 36.3548 15.0123 34.0566 15.0123Z" fill="url(#paint1_linear_5738_5543)"/>
</g>
<defs>
<filter id="filter0_d_5738_5543" x="0.373047" y="0.277344" width="68" height="68.209" filterUnits="userSpaceOnUse" color-interpolation-filters="sRGB">
<feFlood flood-opacity="0" result="BackgroundImageFix"/>
<feColorMatrix in="SourceAlpha" type="matrix" values="0 0 0 0 0 0 0 0 0 0 0 0 0 0 0 0 0 0 127 0" result="hardAlpha"/>
<feOffset dy="2"/>
<feGaussianBlur stdDeviation="2"/>
<feComposite in2="hardAlpha" operator="out"/>
<feColorMatrix type="matrix" values="0 0 0 0 0 0 0 0 0 0 0 0 0 0 0 0 0 0 0.07 0"/>
<feBlend mode="normal" in2="BackgroundImageFix" result="effect1_dropShadow_5738_5543"/>
<feBlend mode="normal" in="SourceGraphic" in2="effect1_dropShadow_5738_5543" result="shape"/>
</filter>
<linearGradient id="paint0_linear_5738_5543" x1="13.4129" y1="13.625" x2="63.3662" y2="63.4955" gradientUnits="userSpaceOnUse">
<stop offset="0.015625" stop-color="#B010FB"/>
<stop offset="0.130208" stop-color="#DE97FF"/>
<stop offset="0.234375" stop-color="#A227DB"/>
<stop offset="0.505208" stop-color="#A227DB" stop-opacity="0"/>
<stop offset="0.765625" stop-color="#A610EC" stop-opacity="0.84"/>
</linearGradient>
<linearGradient id="paint1_linear_5738_5543" x1="21.8299" y1="21.3525" x2="50.256" y2="50.436" gradientUnits="userSpaceOnUse">
<stop offset="0.015625" stop-color="#F2D5FF"/>
<stop offset="1" stop-color="#CB5AFF"/>
</linearGradient>
</defs>
</svg>
