<svg width="69" height="69" viewBox="0 0 69 69" fill="none" xmlns="http://www.w3.org/2000/svg">
<g filter="url(#filter0_d_5738_5567)">
<rect x="4.87305" y="2.98633" width="59" height="59" rx="7.5" fill="#111113" stroke="url(#paint0_linear_5738_5567)"/>
<path d="M46.623 44.5273H22.123V25.2773H46.623M41.373 13.0273V16.5273H27.373V13.0273H23.873V16.5273H22.123C20.198 16.5273 18.623 18.1023 18.623 20.0273V44.5273C18.623 46.4698 20.198 48.0273 22.123 48.0273H46.623C48.5655 48.0273 50.123 46.4698 50.123 44.5273V20.0273C50.123 18.1023 48.5655 16.5273 46.623 16.5273H44.873V13.0273M32.413 32.2773H26.0955L31.2055 35.9698L29.263 42.0073L34.373 38.2798L39.483 42.0073L37.523 35.9873L42.633 32.2773H36.333L34.373 26.2573L32.413 32.2773Z" fill="url(#paint1_linear_5738_5567)"/>
</g>
<defs>
<filter id="filter0_d_5738_5567" x="0.373047" y="0.277344" width="68" height="68.209" filterUnits="userSpaceOnUse" color-interpolation-filters="sRGB">
<feFlood flood-opacity="0" result="BackgroundImageFix"/>
<feColorMatrix in="SourceAlpha" type="matrix" values="0 0 0 0 0 0 0 0 0 0 0 0 0 0 0 0 0 0 127 0" result="hardAlpha"/>
<feOffset dy="2"/>
<feGaussianBlur stdDeviation="2"/>
<feComposite in2="hardAlpha" operator="out"/>
<feColorMatrix type="matrix" values="0 0 0 0 0 0 0 0 0 0 0 0 0 0 0 0 0 0 0.07 0"/>
<feBlend mode="normal" in2="BackgroundImageFix" result="effect1_dropShadow_5738_5567"/>
<feBlend mode="normal" in="SourceGraphic" in2="effect1_dropShadow_5738_5567" result="shape"/>
</filter>
<linearGradient id="paint0_linear_5738_5567" x1="13.4129" y1="13.625" x2="63.3662" y2="63.4955" gradientUnits="userSpaceOnUse">
<stop offset="0.015625" stop-color="#B010FB"/>
<stop offset="0.130208" stop-color="#DE97FF"/>
<stop offset="0.234375" stop-color="#A227DB"/>
<stop offset="0.505208" stop-color="#A227DB" stop-opacity="0"/>
<stop offset="0.765625" stop-color="#A610EC" stop-opacity="0.84"/>
</linearGradient>
<linearGradient id="paint1_linear_5738_5567" x1="23.369" y1="19.5249" x2="52.3423" y2="45.5577" gradientUnits="userSpaceOnUse">
<stop offset="0.015625" stop-color="#F2D5FF"/>
<stop offset="1" stop-color="#CB5AFF"/>
</linearGradient>
</defs>
</svg>
