<svg width="69" height="69" viewBox="0 0 69 69" fill="none" xmlns="http://www.w3.org/2000/svg">
<g filter="url(#filter0_d_5738_5551)">
<rect x="4.87305" y="2.98633" width="59" height="59" rx="7.5" fill="#111113" stroke="url(#paint0_linear_5738_5551)"/>
<path d="M35.9029 37.3818L31.4579 32.9893L31.5104 32.9368C34.5554 29.5418 36.7254 25.6393 38.0029 21.5093H43.1304V18.0093H30.8804V14.5093H27.3804V18.0093H15.1304V21.5093H34.6779C33.5054 24.8693 31.6504 28.0718 29.1304 30.8718C27.5029 29.0693 26.1554 27.0918 25.0879 25.0093H21.5879C22.8654 27.8618 24.6154 30.5568 26.8029 32.9893L17.8954 41.7743L20.3804 44.2593L29.1304 35.5093L34.5729 40.9518L35.9029 37.3818ZM45.7554 28.5093H42.2554L34.3804 49.5093H37.8804L39.8404 44.2593H48.1529L50.1304 49.5093H53.6304L45.7554 28.5093ZM41.1704 40.7593L44.0054 33.1818L46.8404 40.7593H41.1704Z" fill="url(#paint1_linear_5738_5551)"/>
</g>
<defs>
<filter id="filter0_d_5738_5551" x="0.373047" y="0.277344" width="68" height="68.209" filterUnits="userSpaceOnUse" color-interpolation-filters="sRGB">
<feFlood flood-opacity="0" result="BackgroundImageFix"/>
<feColorMatrix in="SourceAlpha" type="matrix" values="0 0 0 0 0 0 0 0 0 0 0 0 0 0 0 0 0 0 127 0" result="hardAlpha"/>
<feOffset dy="2"/>
<feGaussianBlur stdDeviation="2"/>
<feComposite in2="hardAlpha" operator="out"/>
<feColorMatrix type="matrix" values="0 0 0 0 0 0 0 0 0 0 0 0 0 0 0 0 0 0 0.07 0"/>
<feBlend mode="normal" in2="BackgroundImageFix" result="effect1_dropShadow_5738_5551"/>
<feBlend mode="normal" in="SourceGraphic" in2="effect1_dropShadow_5738_5551" result="shape"/>
</filter>
<linearGradient id="paint0_linear_5738_5551" x1="13.4129" y1="13.625" x2="63.3662" y2="63.4955" gradientUnits="userSpaceOnUse">
<stop offset="0.015625" stop-color="#B010FB"/>
<stop offset="0.130208" stop-color="#DE97FF"/>
<stop offset="0.234375" stop-color="#A227DB"/>
<stop offset="0.505208" stop-color="#A227DB" stop-opacity="0"/>
<stop offset="0.765625" stop-color="#A610EC" stop-opacity="0.84"/>
</linearGradient>
<linearGradient id="paint1_linear_5738_5551" x1="20.931" y1="21.0068" x2="49.9431" y2="52.8673" gradientUnits="userSpaceOnUse">
<stop offset="0.015625" stop-color="#F2D5FF"/>
<stop offset="1" stop-color="#CB5AFF"/>
</linearGradient>
</defs>
</svg>
