<svg width="16" height="45" viewBox="104 5 18 47" fill="none" xmlns="http://www.w3.org/2000/svg">
<path d="M120.408 18.6994C120.966 18.6994 121.268 19.0008 121.268 19.5595V20.1904C121.268 20.7491 120.966 21.0508 120.408 21.0508H106.863C106.305 21.0508 106.003 20.7491 106.003 20.1904V19.5595C106.003 19.0008 106.305 18.6994 106.863 18.6994H120.408Z" fill="#B0131D"/>
<path d="M120.408 12.6623C120.966 12.6623 121.268 12.9637 121.268 13.5226V14.1533C121.268 14.7123 120.966 15.0137 120.408 15.0137H106.863C106.305 15.0137 106.003 14.7123 106.003 14.1533V13.5226C106.003 12.9637 106.305 12.6623 106.863 12.6623H120.408Z" fill="#B0131D"/>
<path d="M120.408 6.62632C120.966 6.62632 121.268 6.92777 121.268 7.48651V8.11735C121.268 8.67609 120.966 8.97754 120.408 8.97754H106.863C106.305 8.97754 106.003 8.67609 106.003 8.11735V7.48651C106.003 6.92777 106.305 6.62632 106.863 6.62632H120.408Z" fill="#B0131D"/>
<path d="M120.408 48.7365C120.966 48.7365 121.268 49.0379 121.268 49.5967V50.2275C121.268 50.7862 120.966 51.0879 120.408 51.0879H106.863C106.305 51.0879 106.003 50.7862 106.003 50.2275V49.5967C106.003 49.0379 106.305 48.7365 106.863 48.7365H120.408Z" fill="#B0131D"/>
<path d="M120.408 42.6994C120.966 42.6994 121.268 43.001 121.268 43.5598V44.1906C121.268 44.7493 120.966 45.0508 120.408 45.0508H106.863C106.305 45.0508 106.003 44.7493 106.003 44.1906V43.5598C106.003 43.001 106.305 42.6994 106.863 42.6994H120.408Z" fill="#B0131D"/>
<path fill-rule="evenodd" clip-rule="evenodd" d="M105.371 29.3808C105.371 27.0137 106.516 25.8687 108.883 25.8687H118.388C120.756 25.8687 121.9 27.0137 121.9 29.3808V34.3687C121.9 36.7358 120.756 37.8809 118.388 37.8809H108.883C106.516 37.8809 105.371 36.7358 105.371 34.3687V29.3808ZM109.331 28.22C108.512 28.22 108.123 28.6089 108.123 29.4282V34.3213C108.123 35.1406 108.512 35.5295 109.331 35.5295H117.94C118.759 35.5295 119.148 35.1406 119.148 34.3213V29.4282C119.148 28.6089 118.759 28.22 117.94 28.22H109.331Z" fill="#FFFFFF"/>
</svg>
