<svg width="190" height="53" viewBox="0 0 190 53" fill="none" xmlns="http://www.w3.org/2000/svg">
<path fill-rule="evenodd" clip-rule="evenodd" d="M17.3216 7.20691C22.8246 0.980677 31.9382 -0.845824 39.4304 2.74807C49.3842 7.52358 53.0161 19.6885 47.5965 29.0723L35.4043 50.159C34.7231 51.337 33.6021 52.1969 32.2874 52.5492C30.9726 52.9014 29.5719 52.7175 28.3924 52.0384L43.1529 26.5044C47.0847 19.6939 44.4547 10.866 37.2381 7.39018C31.8227 4.78235 25.2034 6.08513 21.2032 10.57C18.9964 13.0321 17.7576 16.2108 17.7163 19.5168C17.675 22.8227 18.8338 26.0314 20.9784 28.5481C21.3638 28.9993 21.7782 29.4251 22.2196 29.8224L13.6028 44.7555C13.2658 45.3393 12.8171 45.8506 12.2824 46.2614C11.7477 46.6717 11.1373 46.9726 10.4863 47.1472C9.83519 47.3218 9.15616 47.3663 8.48786 47.2783C7.81955 47.1902 7.17513 46.9716 6.59132 46.6349L15.9461 30.4228C14.6024 28.4854 13.6374 26.3115 13.1021 24.0154L7.3696 33.9697C6.68819 35.1482 5.56703 36.0076 4.25234 36.3599C2.93759 36.7127 1.53675 36.5288 0.357422 35.8491L15.1816 10.172C15.7986 9.11759 16.5152 8.12464 17.3216 7.20691ZM34.4315 15.38C38.0017 17.4419 39.2346 22.0272 37.1687 25.5958L22.9536 50.1559C22.2724 51.3339 21.1509 52.1938 19.8362 52.5461C18.5214 52.8983 17.1208 52.7144 15.9414 52.0353L29.1409 29.1697C28.0815 28.947 27.0838 28.4968 26.2156 27.8503C25.3474 27.2043 24.6299 26.3773 24.1124 25.4267C23.5949 24.4762 23.2898 23.4246 23.2183 22.3448C23.1468 21.2648 23.3105 20.1823 23.6985 19.1718C24.086 18.1613 24.6885 17.2471 25.464 16.4921C26.2394 15.7372 27.1693 15.1595 28.1898 14.7989C29.2103 14.4384 30.2971 14.3037 31.3746 14.404C32.4521 14.5043 33.4954 14.8373 34.4315 15.38ZM29.2611 19.9956C29.0166 20.1831 28.8114 20.417 28.6576 20.6838C28.4255 21.0856 28.3172 21.5471 28.3478 22.01C28.3784 22.4729 28.5452 22.9164 28.8275 23.2844C29.1103 23.6524 29.4952 23.9284 29.9345 24.0774C30.3738 24.2265 30.8478 24.242 31.2959 24.1219C31.744 24.0018 32.146 23.7516 32.4521 23.4028C32.7577 23.054 32.9536 22.6224 33.0142 22.1624C33.0743 21.7025 32.9971 21.2349 32.7919 20.8189C32.5868 20.4028 32.263 20.057 31.861 19.825C31.5948 19.671 31.3 19.571 30.9949 19.5308C30.6893 19.4906 30.379 19.511 30.0816 19.5907C29.7843 19.6705 29.5051 19.808 29.2611 19.9956Z" fill="#615EFF"/>
<path fill-rule="evenodd" clip-rule="evenodd" d="M59.4121 40.2917L70.0658 12.974H76.3127L86.9663 40.2917H81.0111L78.7168 34.1728H67.6622L65.3673 40.2917H59.4121ZM76.8954 29.2552C76.1671 27.1183 75.5175 25.2063 74.9466 23.5186C74.3763 21.831 73.7935 20.0888 73.1983 18.2918C72.6036 20.0888 72.0146 21.831 71.4318 23.5186C70.8615 25.2063 70.2119 27.1183 69.483 29.2552H76.8954ZM88.7696 15.8879C88.7696 15.0137 89.0369 14.3096 89.571 13.7753C90.105 13.2411 90.809 12.974 91.6835 12.974C92.5574 12.974 93.2619 13.2411 93.796 13.7753C94.33 14.3096 94.5973 15.0137 94.5973 15.8879C94.5973 16.7621 94.33 17.4663 93.796 18.0005C93.2619 18.5347 92.5574 18.8018 91.6835 18.8018C90.809 18.8018 90.105 18.5347 89.571 18.0005C89.0369 17.4663 88.7696 16.7621 88.7696 15.8879ZM89.0607 40.2917V22.0799H94.3057V40.2917H89.0607ZM98.7498 22.0799V40.2917H103.994V32.2602C103.994 30.342 104.426 28.8667 105.288 27.8348C106.15 26.7907 107.285 26.2686 108.693 26.2686C109.373 26.2686 110.065 26.3839 110.77 26.6147L111.498 22.0799C110.66 21.8371 109.846 21.7157 109.057 21.7157C106.738 21.7157 104.917 22.7052 103.594 24.6842V22.0799H98.7498ZM113.501 40.2917V12.974H118.746V23.8829C119.511 23.203 120.385 22.6748 121.369 22.2984C122.352 21.9099 123.414 21.7157 124.556 21.7157C126.268 21.7157 127.791 22.1285 129.127 22.9541C130.462 23.7676 131.513 24.8906 132.277 26.3233C133.042 27.7436 133.425 29.3645 133.425 31.1859C133.425 33.0072 133.042 34.6338 132.277 36.0667C131.513 37.4871 130.462 38.6102 129.127 39.4359C127.791 40.2492 126.268 40.6559 124.556 40.6559C123.378 40.6559 122.279 40.4554 121.26 40.055C120.24 39.6421 119.347 39.0655 118.582 38.3248L118.455 40.2917H113.501ZM123.89 36.103C125.225 36.103 126.33 35.6357 127.204 34.7007C128.079 33.7656 128.515 32.5944 128.515 31.1859C128.515 29.7774 128.079 28.6056 127.204 27.6711C126.33 26.736 125.225 26.2686 123.89 26.2686C122.555 26.2686 121.45 26.736 120.575 27.6711C119.701 28.6056 119.264 29.7774 119.264 31.1859C119.264 32.5944 119.701 33.7656 120.575 34.7007C121.45 35.6357 122.555 36.103 123.89 36.103ZM142.189 30.9854L137.927 22.0799H132.445L140.932 39.381L136.78 49.3975H142.298L153.626 22.0799H148.09L143.172 33.9542C143.051 33.359 142.905 32.8125 142.735 32.3152C142.565 31.8173 142.383 31.3739 142.189 30.9854ZM154.336 22.0799H157.341V17.527H162.586V22.0799H167.011V26.6329H162.586V33.3346C162.586 34.1966 162.859 34.8768 163.405 35.3746C163.964 35.86 164.668 36.103 165.518 36.103C166.149 36.103 166.799 35.9636 167.467 35.6839V39.9819C166.313 40.4316 165.178 40.6559 164.061 40.6559C161.9 40.6559 160.237 40.0793 159.071 38.9257C157.917 37.7601 157.341 36.0967 157.341 33.9355V26.6329H154.336V22.0799ZM176.955 35.2104C176.081 34.5794 175.48 33.7599 175.152 32.7519H189.357V31.1677C189.357 29.3345 188.945 27.7073 188.119 26.2868C187.293 24.8663 186.164 23.7493 184.731 22.9359C183.311 22.1224 181.684 21.7157 179.851 21.7157C178.005 21.7157 176.354 22.1285 174.897 22.9541C173.452 23.7676 172.311 24.8845 171.473 26.305C170.635 27.7136 170.216 29.322 170.216 31.131C170.216 32.9642 170.654 34.6038 171.528 36.0486C172.402 37.4809 173.61 38.6102 175.152 39.4359C176.694 40.2492 178.473 40.6559 180.488 40.6559C181.751 40.6559 183.068 40.4497 184.44 40.0368C185.824 39.624 187.221 38.8651 188.629 37.7601L185.46 33.9723C184.78 34.6157 184.021 35.1436 183.184 35.5564C182.358 35.9574 181.313 36.1579 180.051 36.1579C178.873 36.1579 177.841 35.8419 176.955 35.2104ZM183.648 28.8952C183.358 28.2502 182.942 27.7022 182.4 27.252C181.611 26.5964 180.664 26.2686 179.559 26.2686C178.442 26.2686 177.471 26.6025 176.646 27.2701C176.092 27.7249 175.668 28.2663 175.373 28.8952H183.648Z" fill="white"/>
</svg>
