<svg width="48" height="29" viewBox="0 0 48 29" fill="none" xmlns="http://www.w3.org/2000/svg">
<path d="M13.5202 10.9629C13.5202 11.5416 13.5828 12.0108 13.6923 12.3549C13.8174 12.699 13.9738 13.0743 14.1928 13.481C14.271 13.6061 14.3022 13.7312 14.3022 13.8407C14.3022 13.9971 14.2084 14.1535 14.0051 14.3099L13.0198 14.9668C12.879 15.0606 12.7382 15.1075 12.6131 15.1075C12.4567 15.1075 12.3003 15.0293 12.1439 14.8886C11.925 14.654 11.7373 14.4037 11.5809 14.1535C11.4245 13.8876 11.2681 13.5905 11.096 13.2307C9.87611 14.6696 8.34339 15.3891 6.49787 15.3891C5.1841 15.3891 4.13622 15.0137 3.36986 14.263C2.6035 13.5123 2.2125 12.5113 2.2125 11.2601C2.2125 9.93069 2.6817 8.85153 3.63574 8.03825C4.58978 7.22497 5.85663 6.81833 7.46755 6.81833C7.99931 6.81833 8.54671 6.86525 9.12539 6.94345C9.70407 7.02165 10.2984 7.14677 10.924 7.28753V6.14581C10.924 4.95717 10.6738 4.12824 10.1889 3.6434C9.68843 3.15856 8.84387 2.92396 7.63959 2.92396C7.09219 2.92396 6.52915 2.98652 5.95047 3.12728C5.37178 3.26804 4.80874 3.44008 4.26134 3.65904C4.0111 3.76852 3.82342 3.83108 3.71394 3.86236C3.60446 3.89364 3.52626 3.90928 3.4637 3.90928C3.24474 3.90928 3.13526 3.75288 3.13526 3.42444V2.65808C3.13526 2.40784 3.16654 2.22016 3.24474 2.11068C3.32294 2.0012 3.4637 1.89172 3.68266 1.78224C4.23006 1.50072 4.88694 1.26612 5.65331 1.07844C6.41967 0.87512 7.23295 0.78128 8.09315 0.78128C9.95431 0.78128 11.315 1.20356 12.1908 2.04812C13.051 2.89268 13.489 4.17516 13.489 5.89557V10.9629H13.5202ZM7.17039 13.3402C7.68651 13.3402 8.21827 13.2464 8.78131 13.0587C9.34435 12.871 9.84483 12.5269 10.2671 12.0577C10.5174 11.7606 10.705 11.4321 10.7989 11.0568C10.8927 10.6814 10.9553 10.2279 10.9553 9.69609V9.03921C10.5017 8.92973 10.0169 8.83589 9.51639 8.77333C9.01591 8.71077 8.53107 8.67949 8.04623 8.67949C6.99835 8.67949 6.23199 8.88281 5.71587 9.30509C5.19974 9.72737 4.9495 10.3217 4.9495 11.1037C4.9495 11.8388 5.13718 12.3862 5.52819 12.7615C5.90355 13.1525 6.45095 13.3402 7.17039 13.3402ZM19.7293 15.0293C19.4478 15.0293 19.2601 14.9824 19.135 14.8729C19.0099 14.7791 18.9004 14.5601 18.8066 14.263L15.1312 2.17324C15.0373 1.86044 14.9904 1.65712 14.9904 1.54764C14.9904 1.2974 15.1155 1.15664 15.3658 1.15664H16.8985C17.1956 1.15664 17.399 1.20356 17.5084 1.31304C17.6336 1.40688 17.7274 1.62584 17.8212 1.923L20.4488 12.2767L22.8886 1.923C22.9668 1.6102 23.0606 1.40688 23.1858 1.31304C23.3109 1.2192 23.5298 1.15664 23.8114 1.15664H25.0626C25.3597 1.15664 25.5631 1.20356 25.6882 1.31304C25.8133 1.40688 25.9228 1.62584 25.9853 1.923L28.4565 12.4018L31.1622 1.923C31.256 1.6102 31.3655 1.40688 31.475 1.31304C31.6001 1.2192 31.8034 1.15664 32.0849 1.15664H33.5395C33.7897 1.15664 33.9305 1.28176 33.9305 1.54764C33.9305 1.62584 33.9148 1.70404 33.8992 1.79788C33.8835 1.89172 33.8523 2.01684 33.7897 2.18888L30.0205 14.2786C29.9266 14.5914 29.8171 14.7947 29.692 14.8886C29.5669 14.9824 29.3636 15.045 29.0977 15.045H27.7527C27.4555 15.045 27.2522 14.9981 27.1271 14.8886C27.0019 14.7791 26.8925 14.5758 26.8299 14.263L24.4057 4.17516L21.9971 14.2473C21.9189 14.5601 21.8251 14.7635 21.7 14.8729C21.5748 14.9824 21.3559 15.0293 21.0744 15.0293H19.7293ZM39.8268 15.4516C39.0135 15.4516 38.2002 15.3578 37.4182 15.1701C36.6362 14.9824 36.0262 14.7791 35.6196 14.5445C35.3693 14.4037 35.1973 14.2473 35.1347 14.1066C35.0722 13.9658 35.0409 13.8094 35.0409 13.6687V12.871C35.0409 12.5426 35.166 12.3862 35.4006 12.3862C35.4945 12.3862 35.5883 12.4018 35.6821 12.4331C35.776 12.4644 35.9167 12.5269 36.0731 12.5895C36.6049 12.8241 37.1836 13.0118 37.7935 13.1369C38.4191 13.262 39.0291 13.3246 39.6547 13.3246C40.64 13.3246 41.4064 13.1525 41.9382 12.8085C42.4699 12.4644 42.7514 11.9639 42.7514 11.3227C42.7514 10.8847 42.6107 10.525 42.3292 10.2279C42.0476 9.93069 41.5159 9.66481 40.7495 9.41457L38.4817 8.71077C37.34 8.35105 36.4954 7.81929 35.9793 7.11549C35.4632 6.42733 35.1973 5.66097 35.1973 4.84768C35.1973 4.1908 35.3381 3.61212 35.6196 3.11164C35.9011 2.61116 36.2765 2.17324 36.7457 1.82916C37.2149 1.46944 37.7466 1.20356 38.3722 1.01588C38.9978 0.8282 39.6547 0.75 40.3429 0.75C40.6869 0.75 41.0467 0.76564 41.3907 0.81256C41.7505 0.85948 42.0789 0.92204 42.4074 0.9846C42.7202 1.0628 43.0173 1.141 43.2988 1.23484C43.5803 1.32868 43.7993 1.42252 43.9557 1.51636C44.1747 1.64148 44.3311 1.7666 44.4249 1.90736C44.5188 2.03248 44.5657 2.20452 44.5657 2.42348V3.15856C44.5657 3.487 44.4406 3.65904 44.206 3.65904C44.0808 3.65904 43.8775 3.59648 43.6116 3.47136C42.7201 3.06472 41.7192 2.8614 40.6087 2.8614C39.7173 2.8614 39.0135 3.00216 38.5286 3.29932C38.0438 3.59648 37.7935 4.05004 37.7935 4.69128C37.7935 5.12921 37.9499 5.50457 38.2627 5.80173C38.5755 6.09889 39.1542 6.39605 39.9831 6.66193L42.204 7.36573C43.3301 7.72545 44.1434 8.22593 44.6282 8.86717C45.1131 9.50841 45.3477 10.2435 45.3477 11.0568C45.3477 11.7293 45.2069 12.3393 44.941 12.871C44.6595 13.4028 44.2842 13.872 43.7993 14.2473C43.3145 14.6383 42.7358 14.9199 42.0633 15.1232C41.3595 15.3421 40.6244 15.4516 39.8268 15.4516Z" fill="white"/>
<path fill-rule="evenodd" clip-rule="evenodd" d="M42.7827 23.0527C37.6371 26.8532 30.1612 28.8708 23.7331 28.8708C14.7245 28.8708 6.60728 25.5394 0.476394 20.0029C-0.00844648 19.5649 0.429474 18.9706 1.00815 19.3147C7.63952 23.1621 15.8193 25.4925 24.2805 25.4925C29.9891 25.4925 36.2608 24.3039 42.0319 21.864C42.8921 21.473 43.6272 22.4271 42.7827 23.0527Z" fill="#FF9900"/>
<path fill-rule="evenodd" clip-rule="evenodd" d="M44.9253 20.6128C44.2685 19.7683 40.5774 20.2062 38.9039 20.4095C38.4034 20.4721 38.3252 20.0341 38.7788 19.7057C41.7191 17.6412 46.5519 18.2355 47.1149 18.9237C47.678 19.6275 46.9585 24.4603 44.2059 26.775C43.7836 27.1347 43.377 26.947 43.5647 26.4778C44.1903 24.9295 45.5822 21.4417 44.9253 20.6128Z" fill="#FF9900"/>
</svg>
