<svg width="137" height="42" viewBox="0 0 137 42" fill="none" xmlns="http://www.w3.org/2000/svg">
<path d="M15.9321 6.89161H24.6822L15.5987 33.8049C15.5054 34.0815 15.3276 34.3218 15.0906 34.492C14.8535 34.6623 14.5689 34.7539 14.2771 34.7539H7.46731C7.24616 34.754 7.02818 34.7013 6.8314 34.6004C6.63463 34.4995 6.46472 34.3531 6.33572 34.1735C6.20672 33.9939 6.12235 33.7861 6.08959 33.5674C6.05683 33.3487 6.07661 33.1253 6.1473 32.9157L14.6101 7.84062C14.7034 7.56395 14.8812 7.32353 15.1183 7.15322C15.3555 6.98291 15.6401 6.89163 15.9321 6.89161Z" fill="url(#paint0_linear_19_409)"/>
<path d="M28.6473 24.9433H14.7717C14.6427 24.9431 14.5167 24.9818 14.41 25.0544C14.3033 25.1269 14.2209 25.2299 14.1736 25.3499C14.1263 25.4699 14.1162 25.6013 14.1446 25.7272C14.1731 25.853 14.2388 25.9673 14.3332 26.0553L23.2493 34.3772C23.5089 34.6194 23.8507 34.754 24.2057 34.7539H32.0626L28.6473 24.9433Z" fill="#0078D4"/>
<path d="M15.9321 6.89161C15.6369 6.89048 15.3491 6.98376 15.1107 7.15782C14.8724 7.33188 14.6959 7.57761 14.6071 7.8591L6.15772 32.8929C6.08227 33.1032 6.05858 33.3286 6.08866 33.55C6.11874 33.7714 6.2017 33.9823 6.33053 34.1648C6.45935 34.3474 6.63025 34.4963 6.82877 34.5988C7.02728 34.7013 7.24758 34.7545 7.47101 34.7539H14.4565C14.7167 34.7075 14.9598 34.5928 15.1612 34.4215C15.3625 34.2503 15.5148 34.0287 15.6024 33.7794L17.2874 28.8136L23.3061 34.4273C23.5583 34.6359 23.8747 34.7513 24.202 34.7539H32.0296L28.5965 24.9433L18.5886 24.9456L24.7138 6.89161L15.9321 6.89161Z" fill="url(#paint1_linear_19_409)"/>
<path d="M27.1082 7.83928C27.015 7.56305 26.8375 7.32303 26.6007 7.15302C26.3639 6.98301 26.0797 6.89158 25.7882 6.89161H16.0363C16.3278 6.89163 16.6119 6.98308 16.8487 7.15308C17.0855 7.32308 17.2631 7.56308 17.3563 7.83928L25.8194 32.9154C25.8902 33.125 25.91 33.3484 25.8772 33.5672C25.8445 33.786 25.7602 33.9938 25.6312 34.1735C25.5022 34.3532 25.3322 34.4996 25.1354 34.6006C24.9386 34.7016 24.7206 34.7543 24.4994 34.7543H34.2516C34.4728 34.7542 34.6908 34.7015 34.8875 34.6005C35.0843 34.4995 35.2542 34.3531 35.3831 34.1734C35.5121 33.9937 35.5964 33.7859 35.6291 33.5671C35.6618 33.3484 35.642 33.125 35.5713 32.9154L27.1082 7.83928Z" fill="url(#paint2_linear_19_409)"/>
<path d="M94.9523 33.621C91.6718 33.4106 89.7638 31.5426 89.2582 28.0461C89.1237 27.116 89.1232 27.0919 89.1094 21.0535L89.0961 15.2094H90.548H91.9999L92.0113 20.8622C92.0216 25.9568 92.0281 26.5542 92.0768 26.9126C92.2745 28.3671 92.668 29.3452 93.338 30.0473C93.8743 30.6092 94.502 30.9382 95.3709 31.1128C95.7809 31.1952 96.9471 31.1953 97.3209 31.1131C98.2018 30.9193 98.9079 30.5359 99.5307 29.9133C100.241 29.2036 100.766 28.1968 101.02 27.0582L101.106 26.6745L101.115 20.9739L101.125 15.2733H102.607H104.089V24.2348V33.1963H102.622H101.155V31.7744C101.155 30.8084 101.145 30.3561 101.122 30.3636C101.104 30.3697 101.029 30.4849 100.955 30.6198C100.449 31.5417 99.607 32.3849 98.684 32.8928C97.5777 33.5017 96.4682 33.7182 94.9523 33.621ZM128.25 33.6065C127.092 33.5194 125.873 33.1213 124.876 32.5048C122.775 31.2055 121.533 29.0637 121.169 26.1163C121.043 25.0964 121.028 23.7264 121.133 22.8597C121.368 20.9232 122.128 19.0222 123.212 17.665C123.49 17.3171 124.12 16.687 124.468 16.4092C125.407 15.6591 126.506 15.1346 127.673 14.8793C128.353 14.7306 129.55 14.6608 130.272 14.7277C132.086 14.8959 133.749 15.7501 134.88 17.0947C136.028 18.4607 136.659 20.3694 136.74 22.7198C136.752 23.0882 136.755 23.734 136.746 24.155L136.73 24.9204L130.376 24.9284L124.021 24.9365V25.22C124.021 26.0833 124.231 27.0665 124.594 27.903C124.907 28.6243 125.446 29.4121 125.887 29.7933C126.791 30.5749 127.897 31.0427 129.108 31.1553C129.557 31.197 130.701 31.1531 131.213 31.0745C132.673 30.8501 134.061 30.2776 135.181 29.4373C135.313 29.3385 135.439 29.2461 135.462 29.2321C135.494 29.2116 135.502 29.4699 135.501 30.5556L135.5 31.9046L135.2 32.0903C133.932 32.8744 132.48 33.3779 130.942 33.5664C130.483 33.6227 128.799 33.6477 128.25 33.6065ZM133.78 22.2289C133.78 20.7829 133.171 19.1766 132.309 18.3495C131.693 17.7592 130.949 17.3985 130.065 17.2615C129.646 17.1967 128.765 17.2217 128.324 17.3108C127.391 17.4992 126.62 17.9092 125.947 18.574C125.239 19.2736 124.708 20.1233 124.374 21.0915C124.254 21.4397 124.114 22.0112 124.07 22.3292L124.049 22.4807H128.915H133.78V22.2289ZM47.5842 33.1563C47.5917 33.1344 49.7495 27.4657 52.3793 20.5593L57.1609 8.00215L58.6973 8.00205L60.2336 8.00195L60.3611 8.32884C60.7506 9.32778 69.9335 33.169 69.9335 33.1814C69.9335 33.1895 69.198 33.1961 68.299 33.196L66.6646 33.1956L65.3411 29.6719L64.0176 26.1482L58.6886 26.1482L53.3596 26.1481L53.3133 26.2677C53.2878 26.3335 52.7223 27.919 52.0567 29.7911L50.8464 33.195L49.2086 33.1956C47.9121 33.196 47.5735 33.1879 47.5842 33.1563ZM63.0449 23.4591C63.0449 23.4536 62.1542 21.039 61.0656 18.0934C59.0291 12.5827 58.9152 12.2512 58.7543 11.3665C58.6788 10.9516 58.6406 10.9401 58.5958 11.3186C58.5638 11.5892 58.425 12.1947 58.318 12.5305C58.2649 12.6972 57.3478 15.2143 56.28 18.1241C55.2122 21.034 54.3385 23.427 54.3385 23.442C54.3385 23.457 56.2975 23.4693 58.6917 23.4693C61.086 23.4693 63.0449 23.4647 63.0449 23.4591ZM70.9221 32.7373V32.2783L76.2314 24.9797L81.5407 17.681L76.7337 17.665L71.9267 17.6491L71.9183 16.4293L71.91 15.2094H78.8627H85.8154V15.6214V16.0334L80.5055 23.3719C77.585 27.4081 75.1956 30.7172 75.1956 30.7255C75.1956 30.7338 77.5563 30.7406 80.4417 30.7406H85.6879V31.9684V33.1962H78.305H70.9221V32.7373ZM109.883 33.1749C109.871 33.1632 109.862 29.1162 109.862 24.1815V15.2094H111.313H112.764V17.0591C112.764 18.0764 112.776 18.9088 112.791 18.9088C112.806 18.9088 112.877 18.7423 112.948 18.5388C113.274 17.6061 113.84 16.7346 114.569 16.042C115.226 15.418 115.976 15.0449 116.862 14.9021C117.111 14.862 117.321 14.8543 117.819 14.8673C118.443 14.8836 118.77 14.9292 119.15 15.0534L119.27 15.0925V16.5987V18.1049L118.927 17.9333C118.321 17.6302 117.724 17.5102 117.005 17.5475C116.538 17.5719 116.231 17.6319 115.857 17.7722C115.088 18.0608 114.464 18.5702 114.029 19.2655C113.398 20.2722 112.948 21.5661 112.815 22.7553C112.791 22.9687 112.777 24.7069 112.771 28.1334L112.763 33.1962H111.334C110.547 33.1962 109.895 33.1866 109.883 33.1749Z" fill="#0089D6"/>
<defs>
<linearGradient id="paint0_linear_19_409" x1="26.8074" y1="8.95664" x2="20.7105" y2="37.5797" gradientUnits="userSpaceOnUse">
<stop stop-color="#114A8B"/>
<stop offset="1" stop-color="#0669BC"/>
</linearGradient>
<linearGradient id="paint1_linear_19_409" x1="24.1493" y1="21.4673" x2="21.8277" y2="22.3605" gradientUnits="userSpaceOnUse">
<stop stop-opacity="0.3"/>
<stop offset="0.071" stop-opacity="0.2"/>
<stop offset="0.321" stop-opacity="0.1"/>
<stop offset="0.623" stop-opacity="0.05"/>
<stop offset="1" stop-opacity="0"/>
</linearGradient>
<linearGradient id="paint2_linear_19_409" x1="20.8038" y1="8.1733" x2="30.7788" y2="34.7486" gradientUnits="userSpaceOnUse">
<stop stop-color="#3CCBF4"/>
<stop offset="1" stop-color="#2892DF"/>
</linearGradient>
</defs>
</svg>
