<svg width="41" height="48" viewBox="0 0 41 48" fill="none" xmlns="http://www.w3.org/2000/svg">
<path d="M40.7957 12.0535V35.5672L36.5117 29.9443L34.1255 23.8112H34.1239L36.3904 17.5913L40.7957 12.0535Z" fill="#AB2B4A"/>
<path d="M0.767506 12.0535V35.5672L4.55434 30.115L7.4377 23.8112H7.4393L4.5079 17.8307L0.767506 12.0535Z" fill="#E87A68"/>
<path d="M34.1239 23.8112L21.5078 24.626L7.4377 23.8112L13.3093 12.0539L20.7813 0.297852L28.9058 13.2052L34.1239 23.8112Z" fill="#D74D4E"/>
<path d="M40.7946 12.0539L34.1228 23.8115L20.7813 0.297852L40.7946 12.0539Z" fill="#BD3246"/>
<path d="M20.7813 0.297852L7.4377 23.8112L0.765869 12.0539L20.7813 0.297852Z" fill="#F19175"/>
<path d="M34.1233 23.8092L29.5635 33.9618L20.7813 47.3229L11.7437 33.5134L7.4377 23.8092H34.1233Z" fill="#CF3942"/>
<path d="M20.7813 47.3229L0.765869 35.5652L7.4377 23.8092L20.7813 47.3229Z" fill="#E0625B"/>
<path d="M20.7792 47.3229L40.7946 35.5652L34.1233 23.8092L20.7792 47.3229Z" fill="#9A244F"/>
</svg>
