<svg width="149" height="45" viewBox="0 0 149 45" fill="none" xmlns="http://www.w3.org/2000/svg">
<g clip-path="url(#clip0_19_406)">
<path d="M30.0908 19.9084L16.0087 27.8912L1.04764 19.3881L0.348018 19.7649V25.9358L16.0266 34.8694L30.1087 26.8866V30.1694L16.0266 38.1523L1.04764 29.6492L0.348018 30.0259V31.0664L16.0266 40L31.7591 31.0664V24.8954L31.0595 24.5187L16.0087 33.0217L1.98046 25.0389V21.8099L16.0087 29.7389L31.7412 20.8053V14.724L30.9339 14.2935L16.0087 22.7427L2.73389 15.1904L16.0087 7.69195L26.9694 13.8629L27.956 13.3427V12.5893L16.0087 5.84424L0.330078 14.742V15.6927L16.0087 24.6263L30.0908 16.6435V19.9084Z" fill="#FF3621"/>
<path d="M70.3231 27.2814V21.81C70.3231 21.6665 70.2334 21.5768 70.0899 21.5768H68.296V19.4421H70.0899C70.2334 19.4421 70.3231 19.3524 70.3231 19.2089V15.7825H72.8705V19.2089C72.8705 19.3524 72.9602 19.4421 73.1037 19.4421H75.6151V21.5768H73.1037C72.9602 21.5768 72.8705 21.6665 72.8705 21.81V26.6535C72.8705 28.9318 73.6777 29.1291 74.7182 29.1291C75.0949 29.1291 75.6689 29.0753 75.9918 29.0394V31.2638C75.5613 31.3176 74.8617 31.4073 74.0544 31.4073C73.0678 31.3535 70.3231 31.3535 70.3231 27.2814ZM139.657 28.6089L141.738 27.5146C142.204 28.6089 143.101 29.3264 144.142 29.3264C144.949 29.3264 145.846 28.9856 145.846 27.9989C145.846 27.3352 145.416 26.9585 144.429 26.6176L143.012 26.1512C141.02 25.5413 140.034 24.3932 140.034 22.7787C140.034 20.7337 141.738 19.2089 144.052 19.2089C145.9 19.2089 147.461 20.2134 148.214 21.7741L146.133 22.9222C145.667 21.9176 144.913 21.3615 144.016 21.3615C143.119 21.3615 142.509 21.8279 142.509 22.5455C142.509 23.1554 142.976 23.6398 143.927 23.9268L145.344 24.3932C147.425 25.0569 148.411 26.205 148.411 27.7657C148.411 30.2413 146.295 31.515 144.16 31.515C142.025 31.4611 140.321 30.3669 139.657 28.6089ZM131.818 26.4741C131.764 26.5279 131.728 26.5638 131.728 26.6176V31.1741H129.127V14.3115H131.728V23.5321C131.728 23.6218 131.782 23.7295 131.872 23.7295C131.961 23.7833 132.069 23.7295 132.105 23.6756L136.303 19.4062H139.46L134.562 24.3753C134.473 24.465 134.473 24.5726 134.562 24.6623L139.89 31.1741H136.733L132.625 26.0436C132.571 25.9898 132.535 25.9539 132.482 25.9539C132.428 25.9539 132.392 25.9539 132.338 26.0077L131.818 26.4741ZM127.853 21.0027L126.203 22.5634C125.252 21.8459 124.319 21.523 123.279 21.523C121.108 21.523 119.494 23.1375 119.494 25.326C119.494 27.5146 121.108 29.1291 123.279 29.1291C124.23 29.1291 125.216 28.7882 126.257 28.0886L127.728 29.6493C125.611 31.21 124.463 31.497 123.01 31.497C121.27 31.497 119.709 30.8871 118.579 29.739C117.485 28.6447 116.875 27.0302 116.875 25.326C116.875 21.7562 119.476 19.155 123.064 19.155C124.212 19.155 125.97 19.3344 127.853 21.0027ZM115.673 15.926C115.673 16.7871 114.973 17.4867 114.112 17.4867C113.269 17.4867 112.551 16.7692 112.551 15.926C112.551 15.065 113.251 14.3653 114.112 14.3653C114.955 14.3474 115.673 15.065 115.673 15.926ZM115.422 31.1741H112.82V19.4421H115.422V31.1741ZM107.17 26.0436V31.2279H104.569V19.4959H107.116V20.913C107.116 21.0027 107.17 21.1104 107.259 21.1463C107.349 21.2001 107.457 21.1463 107.493 21.0566C108.156 19.9623 109.376 19.2447 110.704 19.2447C110.901 19.2447 111.027 19.2447 111.134 19.2985V21.9535C110.991 21.8997 110.757 21.8997 110.524 21.8997C108.443 21.8638 107.17 23.4783 107.17 26.0436ZM93.2312 25.326C93.2312 23.1913 94.8457 21.523 96.9086 21.523C98.9896 21.523 100.586 23.1913 100.586 25.326C100.586 27.4608 98.9716 29.1291 96.9086 29.1291C94.8457 29.1291 93.2312 27.4608 93.2312 25.326ZM93.4644 29.7928C93.5182 29.7928 93.5182 29.7928 93.5541 29.7928C93.6079 29.7928 93.6976 29.8466 93.7514 29.8825C94.6483 30.923 95.9758 31.497 97.4827 31.497C100.694 31.497 103.151 28.7882 103.151 25.326C103.151 23.6218 102.577 22.097 101.501 20.913C100.461 19.765 98.9896 19.155 97.4468 19.155C95.9758 19.155 94.6124 19.765 93.7155 20.8592C93.6617 20.9131 93.572 20.9489 93.4823 20.913C93.3926 20.8592 93.3388 20.8234 93.3388 20.7157V14.3474H90.7376V31.21H93.3388V30.026C93.3208 29.8825 93.3747 29.8466 93.4644 29.7928ZM82.701 29.1291C80.6739 29.1291 79.0235 27.4608 79.0235 25.326C79.0235 23.1913 80.638 21.523 82.701 21.523C84.7819 21.523 86.3785 23.1913 86.3785 25.326C86.3785 27.4608 84.7281 29.1291 82.701 29.1291ZM88.8002 31.1741V19.4421H86.2529V20.626C86.2529 20.7157 86.1991 20.8234 86.1094 20.8234C86.0197 20.8772 85.9121 20.8234 85.8762 20.7695C85.0331 19.7291 83.7056 19.155 82.1449 19.155C78.9338 19.155 76.4762 21.8638 76.4762 25.326C76.4762 28.7882 78.9876 31.497 82.1449 31.497C83.6159 31.497 84.9792 30.8871 85.8762 29.7928C85.93 29.7031 86.0197 29.7031 86.1094 29.739C86.1991 29.7928 86.2529 29.8287 86.2529 29.9363V31.2279H88.8002V31.1741ZM60.8334 29.1291C58.8063 29.1291 57.156 27.4608 57.156 25.326C57.156 23.1913 58.7705 21.523 60.8334 21.523C62.8605 21.523 64.5109 23.1913 64.5109 25.326C64.5109 27.4608 62.8605 29.1291 60.8334 29.1291ZM66.9327 31.1741V19.4421H64.3853V20.626C64.3853 20.7157 64.3315 20.8234 64.2418 20.8234C64.1521 20.8772 64.0445 20.8234 64.0086 20.7695C63.1655 19.7291 61.838 19.155 60.2773 19.155C57.0663 19.155 54.6086 21.8638 54.6086 25.326C54.6086 28.7882 57.1201 31.497 60.2773 31.497C61.7483 31.497 63.1117 30.8871 64.0086 29.7928C64.0624 29.7031 64.1521 29.7031 64.2418 29.739C64.3315 29.7928 64.3853 29.8287 64.3853 29.9363V31.2279H66.9327V31.1741ZM47.0384 29.1291C44.9575 29.1291 43.3609 27.4608 43.3609 25.326C43.3609 23.1913 44.9754 21.523 47.0384 21.523C49.0655 21.523 50.7159 23.1913 50.7159 25.326C50.7338 27.4608 49.0655 29.1291 47.0384 29.1291ZM53.1376 31.1741V14.3474H50.5365V20.6619C50.5365 20.7516 50.4827 20.8592 50.393 20.8592C50.3033 20.9131 50.1956 20.8592 50.1598 20.8054C49.2628 19.765 47.9353 19.1909 46.4285 19.1909C43.2174 19.1909 40.7598 21.8997 40.7598 25.3619C40.7598 27.0661 41.3338 28.5909 42.4101 29.7749C43.4506 30.923 44.9216 31.5329 46.4643 31.5329C47.9353 31.5329 49.2987 30.923 50.1956 29.8287C50.2495 29.7749 50.3392 29.739 50.4289 29.7749C50.5185 29.8287 50.5724 29.8646 50.5724 29.9722V31.21H53.1197V31.1741H53.1376Z" fill="white"/>
</g>
<defs>
<clipPath id="clip0_19_406">
<rect width="148.081" height="44.1557" fill="white" transform="translate(0.330078 0.844238)"/>
</clipPath>
</defs>
</svg>
