<svg width="126" height="49" viewBox="0 0 126 49" fill="none" xmlns="http://www.w3.org/2000/svg">
<g clip-path="url(#clip0_19_414)">
<path d="M82.2145 8.32764V40.8017H75.6333V37.4897C74.9451 38.651 73.9562 39.5973 72.7516 40.1995C71.4613 40.8447 69.9988 41.1888 68.5368 41.1888C66.7301 41.2318 64.9235 40.7156 63.4181 39.6833C61.8699 38.651 60.6653 37.2317 59.891 35.5542C59.031 33.6187 58.6007 31.5541 58.6435 29.4465C58.6007 27.3389 59.031 25.2743 59.891 23.3819C60.6653 21.7474 61.8699 20.328 63.3753 19.3387C64.9235 18.3495 66.7301 17.8763 68.5368 17.9193C69.956 17.9193 71.3752 18.2204 72.6226 18.8656C73.8272 19.4678 74.8162 20.371 75.5044 21.4893V10.5213L82.2145 8.32764ZM74.3003 34.3929C75.1602 33.2746 75.6333 31.6401 75.6333 29.5326C75.6333 27.4249 75.2036 25.8335 74.3003 24.7152C73.3969 23.5969 71.9772 22.9517 70.5152 22.9947C69.0526 22.9087 67.6334 23.5539 66.6868 24.6722C65.784 25.7905 65.3104 27.382 65.3104 29.4465C65.3104 31.5541 65.784 33.1886 66.6868 34.3499C67.5901 35.5112 69.0526 36.1564 70.5152 36.1134C72.1495 36.1134 73.4398 35.5112 74.3003 34.3929ZM105.742 19.2957C107.29 20.285 108.495 21.7044 109.226 23.3388C110.086 25.2314 110.516 27.2959 110.473 29.4035C110.516 31.5111 110.086 33.6187 109.226 35.5112C108.452 37.1887 107.248 38.6081 105.699 39.6404C104.193 40.6296 102.387 41.1458 100.581 41.1028C99.1182 41.1458 97.6556 40.8017 96.3654 40.1135C95.1613 39.5113 94.1718 38.5651 93.5264 37.4037V40.7587H86.9029V10.5213L93.5698 8.32764V21.5753C94.2146 20.414 95.2041 19.4678 96.4082 18.8656C97.699 18.1774 99.1182 17.8333 100.581 17.8763C102.387 17.8333 104.193 18.3495 105.742 19.2957ZM102.473 34.3499C103.376 33.1886 103.807 31.5541 103.807 29.4035C103.807 27.3389 103.376 25.7475 102.473 24.6292C101.57 23.5109 100.322 22.9517 98.6879 22.9517C97.2259 22.8657 95.8062 23.5109 94.86 24.6722C93.9567 25.8335 93.5264 27.4249 93.5264 29.4895C93.5264 31.5971 93.9567 33.2316 94.86 34.3499C95.7633 35.5112 97.1825 36.1564 98.6879 36.0704C100.15 36.1564 101.57 35.5112 102.473 34.3499ZM119.678 23.4248V32.1132C119.678 33.3606 120.022 34.2639 120.625 34.823C121.313 35.4252 122.216 35.7263 123.162 35.6832C123.893 35.6832 124.668 35.5542 125.356 35.3822V40.5436C124.108 40.9737 122.818 41.1888 121.527 41.1458C118.775 41.1458 116.667 40.3715 115.205 38.8231C113.743 37.2747 113.011 35.0811 113.011 32.2423V13.188L119.678 11.0374V18.4355H125.356V23.4248H119.678Z" fill="white"/>
<path d="M46.2996 2.95121C47.4179 4.0265 48.1491 5.4459 48.3212 6.99432C48.3212 7.6395 48.1491 8.06964 47.762 8.88686C47.3749 9.70408 42.6006 17.9624 41.1812 20.242C40.364 21.5754 39.9339 23.1668 39.9339 24.7152C39.9339 26.3067 40.364 27.8551 41.1812 29.1885C42.6006 31.4681 47.3749 39.7694 47.762 40.5867C48.1491 41.4039 48.3212 41.791 48.3212 42.4361C48.1491 43.9846 47.4609 45.404 46.3427 46.4363C45.2673 47.5546 43.848 48.2858 42.3426 48.4148C41.6974 48.4148 41.2672 48.2428 40.493 47.8557C39.7188 47.4685 31.2885 42.8233 29.0088 41.4039C28.8368 41.3178 28.6647 41.1888 28.4497 41.1028L17.1806 34.4359C17.4386 36.5865 18.3849 38.6511 19.9333 40.1565C20.2344 40.4576 20.5355 40.7157 20.8796 40.9737C20.6215 41.1028 20.3204 41.2318 20.0624 41.4039C17.7827 42.8233 9.48143 47.5976 8.66421 47.9847C7.84699 48.3718 7.45986 48.5439 6.77167 48.5439C5.22324 48.3718 3.80385 47.6836 2.77156 46.5653C1.65325 45.49 0.922048 44.0706 0.75 42.5222C0.793012 41.877 0.96506 41.2318 1.30916 40.6727C1.69627 39.8554 6.47059 31.5541 7.88996 29.2745C8.70723 27.9411 9.13733 26.3927 9.13733 24.8013C9.13733 23.2098 8.70723 21.6614 7.88996 20.328C6.47059 17.9624 1.65325 9.66106 1.30916 8.84384C0.96506 8.28467 0.793012 7.6395 0.75 6.99432C0.922048 5.4459 1.61024 4.0265 2.72855 2.95121C3.80385 1.8329 5.22324 1.1447 6.77167 0.972656C7.41684 1.01567 8.06201 1.18772 8.66421 1.53181C9.35241 1.8329 15.417 5.35987 18.643 7.25242L19.3742 7.68252C19.6322 7.85457 19.8473 7.98359 20.0193 8.06964L20.3634 8.28467L31.8476 15.0806C31.5896 12.4998 30.2562 10.1342 28.1916 8.54277C28.4497 8.41374 28.7508 8.28467 29.0088 8.11262C31.2885 6.69325 39.5898 1.87591 40.407 1.53181C40.9662 1.18772 41.6113 1.01567 42.2995 0.972656C43.8049 1.1447 45.2244 1.8329 46.2996 2.95121ZM25.1377 27.8121L27.5895 25.3604C27.9336 25.0163 27.9336 24.5002 27.5895 24.1561L25.1377 21.7044C24.7936 21.3603 24.2775 21.3603 23.9335 21.7044L21.4817 24.1561C21.1376 24.5002 21.1376 25.0163 21.4817 25.3604L23.9335 27.8121C24.2345 28.1132 24.7936 28.1132 25.1377 27.8121Z" fill="#FF694A"/>
</g>
<defs>
<clipPath id="clip0_19_414">
<rect width="124.606" height="47.7007" fill="white" transform="translate(0.75 0.972656)"/>
</clipPath>
</defs>
</svg>
