<svg width="48" height="34" viewBox="0 0 48 34" fill="none" xmlns="http://www.w3.org/2000/svg">
<path d="M26.8813 13.3314H31.7523ZM21.0825 13.3314H25.9535ZM15.3996 13.3314H20.2706ZM9.71679 13.3314H14.4718ZM3.91798 13.3314H8.78898ZM9.71679 7.99646H14.4718ZM15.3996 7.99646H20.2706ZM21.0825 7.99646H25.9535ZM21.0825 2.66156H25.9535Z" fill="black"/>
<path fill-rule="evenodd" clip-rule="evenodd" d="M25.9535 4.8651H21.0825V0.458008H25.9535V4.8651ZM14.4718 10.2H9.71679V5.79291H14.4718V10.2ZM20.2706 10.2H15.3996V5.79291H20.2706V10.2ZM25.9535 10.2H21.0825V5.79291H25.9535V10.2ZM8.78898 15.5349H3.91798V11.1278H8.78898V15.5349ZM14.4718 15.5349H9.71679V11.1278H14.4718V15.5349ZM20.2706 15.5349H15.3996V11.1278H20.2706V15.5349ZM25.9535 15.5349H21.0825V11.1278H25.9535V15.5349ZM31.7523 15.5349H26.8813V11.1278H31.7523V15.5349Z" fill="#066DA5"/>
<path d="M47.2931 13.5633C47.2931 13.5633 45.2055 11.5917 40.9144 12.2876C40.4505 8.92427 36.8552 6.95267 36.8552 6.95267C36.8552 6.95267 33.4919 11.0118 35.9274 15.5349C35.2315 15.8828 34.0718 16.3467 32.3321 16.3467H0.438694C-0.141187 18.5503 -0.141186 33.1633 15.8635 33.1633C27.3452 33.1633 35.9274 27.8284 39.9866 18.0864C46.0173 18.5503 47.2931 13.5633 47.2931 13.5633Z" fill="#066DA5"/>
</svg>
