<svg width="165" height="46" viewBox="0 0 165 46" fill="none" xmlns="http://www.w3.org/2000/svg">
<path d="M64.8739 13.1801V16.9951H54.5732V21.1645H64.0563V25.0068H54.5732V33.0457H49.6136V13.1801H64.8739ZM68.9069 13.1528H73.1853V16.5319H68.9069V13.1528ZM68.9069 18.3304H73.1853V33.0457H68.9069V18.3304ZM76.2646 18.3577H80.8427C82.6412 24.8978 82.941 26.2331 83.4315 29.0399C84.031 25.7698 84.1127 25.4155 84.9848 21.9547L85.884 18.3577H90.3259L85.557 33.0457H81.0334L76.2646 18.3577ZM106.731 29.2851C106.24 30.0754 105.641 30.8384 104.959 31.4924C103.433 32.8549 101.471 33.618 99.4003 33.5635C95.0402 33.5635 91.9609 30.7566 91.9609 25.9606C91.9609 22.418 93.7049 17.8399 99.5093 17.8399C101.499 17.7854 103.406 18.5484 104.796 19.9382C106.731 21.982 106.84 24.8705 106.867 26.5328H96.3755C96.3755 28.3586 97.3838 30.1844 99.7545 30.1844C102.125 30.1844 102.943 28.6311 103.488 27.5956L106.731 29.2851ZM102.425 23.835C102.398 23.072 102.098 22.3362 101.608 21.764C101.035 21.219 100.272 20.9465 99.5093 20.9465C98.6645 20.9465 97.8743 21.3007 97.3293 21.9002C96.866 22.4452 96.5662 23.1265 96.4572 23.835H102.425ZM111.2 14.1066H115.505V18.6847H118.339V21.328H115.478V27.9771C115.478 28.8764 115.478 29.6666 116.595 29.6666L118.149 29.6121V32.9912C117.386 33.1274 116.623 33.2092 115.86 33.2092C114.361 33.2092 112.726 33.1274 111.772 31.7649C111.173 30.8929 111.145 29.8574 111.145 28.4404V21.3007H109.02V18.6574H111.173L111.2 14.1066ZM126.133 19.8564C127.305 18.8209 128.804 18.2214 130.384 18.1669V22.0092L128.967 22.2272C126.869 22.5815 126.242 22.9085 126.242 24.7615V33.0184H121.936V18.3032H126.16L126.133 19.8564ZM133.518 22.527C133.491 21.2462 134.063 20.0472 135.071 19.2569C136.434 18.1942 138.178 17.9762 139.895 17.9762C141.611 17.9762 146.08 18.3849 146.08 22.2V30.7021C146.08 32.2827 146.162 32.5007 146.489 33.0184H142.265V31.6559C141.148 32.4734 139.922 33.3999 137.769 33.3999C134.417 33.3999 132.946 30.9747 132.946 28.9036C132.946 26.5328 134.826 25.1975 136.052 24.6798C137.933 24.0803 139.895 23.617 141.857 23.3172V22.527C141.802 21.8457 141.748 20.7284 140.167 20.7284C138.26 20.7284 137.987 21.9002 137.878 22.4452L133.518 22.527ZM139.023 26.9688C138.287 27.2413 137.17 27.6501 137.17 28.7946C137.224 29.6666 137.96 30.3206 138.832 30.2934C139.377 30.2661 139.867 30.1026 140.331 29.8029C141.748 28.9036 141.829 27.5683 141.857 26.0423L139.023 26.9688ZM155.346 19.6657C155.754 19.1752 156.245 18.7937 156.817 18.5212C157.662 18.1669 158.561 17.9761 159.488 17.9489C160.387 17.9216 161.286 18.1397 162.104 18.5212C163.657 19.3387 164.039 20.6739 164.039 22.9357V33.0184H159.733V24.7343C159.815 23.9985 159.733 23.2628 159.542 22.5542C159.188 21.8185 158.425 21.3552 157.607 21.437C155.318 21.437 155.318 23.2627 155.318 25.0885V33.0184H151.013V18.3577H155.373L155.346 19.6657ZM23.1805 22.963H27.7586C28.1401 22.963 28.4399 22.6632 28.4399 22.2817C28.4399 22.2 28.4126 22.091 28.3854 22.0092L20.5372 0.617555C20.4282 0.3723 20.183 0.181545 19.9105 0.181545H15.3324C14.9509 0.181545 14.6511 0.481301 14.6511 0.862808C14.6511 0.94456 14.6784 1.02631 14.6784 1.08081L22.5538 22.527C22.6355 22.7995 22.8808 22.963 23.1805 22.963ZM22.363 45.6899H26.9411C27.3226 45.6899 27.6224 45.3902 27.6224 45.0087C27.6224 44.9269 27.5951 44.8452 27.5951 44.7634L11.3811 0.590303C11.2721 0.317798 11.0268 0.154297 10.7543 0.154297H6.1762C5.79469 0.154297 5.49494 0.454053 5.49494 0.83556C5.49494 0.917312 5.52219 0.999064 5.52219 1.05357L21.7363 45.2267C21.8453 45.5264 22.0905 45.6899 22.363 45.6899ZM13.3703 45.6899H17.9484C18.3027 45.6899 18.6024 45.4174 18.6297 45.0632C18.6297 44.9814 18.6024 44.8724 18.6024 44.7907L10.6998 23.3718C10.5908 23.1265 10.3455 22.9357 10.073 22.9357H5.46769C5.11343 22.963 4.81367 23.2628 4.81367 23.617C4.81367 23.6988 4.84093 23.7533 4.84093 23.835L12.6891 45.2539C12.8253 45.5264 13.0706 45.6899 13.3703 45.6899ZM23.7255 1.10807L27.4044 11.1363C27.5134 11.3815 27.7586 11.5723 28.0311 11.5723H32.582C32.9635 11.5723 33.2632 11.2725 33.2632 10.891C33.2632 10.8093 33.236 10.7275 33.236 10.6458L29.5572 0.617555C29.4482 0.3723 29.2029 0.181545 28.9304 0.181545H24.3523C23.9708 0.181545 23.671 0.481301 23.671 0.862808C23.671 0.94456 23.6983 1.02631 23.7255 1.10807ZM4.92268 45.6899H9.50077C9.88228 45.6899 10.182 45.3902 10.182 45.0087C10.182 44.9269 10.1548 44.8452 10.1548 44.7634L6.44871 34.708C6.33971 34.4355 6.09445 34.272 5.82195 34.272H1.27111C0.8896 34.272 0.589844 34.5717 0.589844 34.9532C0.589844 35.035 0.617092 35.1167 0.617092 35.1985L4.29591 45.2539C4.40492 45.5264 4.65017 45.6899 4.92268 45.6899Z" fill="#0073FF"/>
</svg>
