<svg width="264" height="43" viewBox="0 0 264 43" fill="none" xmlns="http://www.w3.org/2000/svg">
<path d="M30.9987 11.7797H32.488L36.7333 7.53445L36.9414 5.73138C29.0402 -1.24339 16.9817 -0.489919 10.0069 7.41131C8.06896 9.60431 6.66462 12.2165 5.89648 15.0428C6.36851 14.8493 6.8933 14.8171 7.38584 14.9549L15.8764 13.5535C15.8764 13.5535 16.3073 12.8381 16.5331 12.8821C20.3093 8.73356 26.6654 8.24981 31.028 11.7797H30.9987Z" fill="#EA4335"/>
<path d="M42.7807 15.0429C41.8044 11.4485 39.802 8.21761 37.0168 5.74902L31.0593 11.7065C33.5748 13.7617 35.0085 16.8606 34.9469 20.109V21.1674C37.8758 21.1674 40.2506 23.5422 40.2506 26.4711C40.2506 29.3999 37.8758 31.7747 34.9469 31.7747H24.3396L23.2812 32.8478V39.2098L24.3396 40.2682H34.9469C42.5638 40.3268 48.788 34.1993 48.8466 26.5825C48.8818 21.9561 46.6038 17.6287 42.7807 15.0429Z" fill="#4285F4"/>
<path d="M13.7189 40.2008H24.3262V31.7103H13.7189C12.9625 31.7103 12.2178 31.5461 11.5289 31.2324L10.0395 31.6956L5.76492 35.9409L5.39258 37.4303C7.78787 39.2421 10.7138 40.2155 13.7189 40.2008Z" fill="#34A853"/>
<path d="M13.7182 12.6593C6.0984 12.7033 -0.0378829 18.9158 0.00609428 26.5356C0.0324806 30.7896 2.01732 34.7945 5.39183 37.3862L11.5428 31.2353C8.87482 30.0303 7.68744 26.8874 8.89241 24.2194C10.0974 21.5515 13.2403 20.3641 15.9082 21.5691C17.0839 22.0997 18.025 23.0438 18.5586 24.2194L24.7095 18.0685C22.0944 14.6441 18.025 12.6417 13.7182 12.6593Z" fill="#FBBC05"/>
<path d="M77.0854 34.2726C73.3943 34.3195 69.8468 32.8624 67.255 30.2355C64.5783 27.72 63.0831 24.196 63.13 20.5224C63.086 16.8489 64.5812 13.3277 67.255 10.8093C69.835 8.15603 73.3855 6.6696 77.0854 6.69892C80.6094 6.65201 84.0074 8.02117 86.5141 10.4985L83.8637 13.1958C82.049 11.4397 79.6097 10.478 77.0854 10.5132C74.438 10.481 71.8961 11.5628 70.0842 13.4919C68.202 15.3595 67.1641 17.916 67.2081 20.5664C67.1847 23.1874 68.2225 25.7059 70.0842 27.5529C73.919 31.376 80.1022 31.4493 84.0279 27.7171C85.1977 26.4388 85.9131 24.8087 86.0685 23.0848H77.1294V19.2735H89.7772C89.9003 20.0416 89.9502 20.8185 89.9267 21.5984C90.0851 24.8498 88.9065 28.0249 86.6636 30.388C84.1687 32.9826 80.6857 34.3957 77.0854 34.2726ZM106.491 31.7395C102.964 35.1199 97.3999 35.1199 93.8729 31.7395C92.1637 30.0831 91.2314 27.7874 91.2959 25.4097C91.2314 23.032 92.1666 20.7364 93.8729 19.08C97.4028 15.7084 102.962 15.7084 106.491 19.08C108.198 20.7364 109.133 23.032 109.069 25.4097C109.13 27.7904 108.189 30.086 106.477 31.7395H106.491ZM96.6582 29.2533C98.4788 31.2001 101.534 31.2998 103.48 29.4762C103.557 29.4029 103.633 29.3296 103.703 29.2533C104.697 28.2243 105.234 26.8405 105.193 25.4097C105.237 23.9761 104.7 22.5835 103.703 21.5515C101.83 19.5989 98.728 19.5315 96.7725 21.4049C96.7227 21.4518 96.6728 21.5016 96.6259 21.5515C95.6291 22.5835 95.0926 23.9761 95.1366 25.4097C95.0984 26.8405 95.6408 28.2272 96.6406 29.2533H96.6582ZM125.885 31.7395C122.358 35.1199 116.794 35.1199 113.267 31.7395C111.558 30.0831 110.625 27.7874 110.69 25.4097C110.625 23.032 111.561 20.7364 113.267 19.08C116.794 15.6996 122.358 15.6996 125.885 19.08C127.592 20.7364 128.527 23.032 128.462 25.4097C128.53 27.7874 127.595 30.0831 125.885 31.7395ZM116.055 29.2533C117.876 31.2001 120.931 31.2998 122.877 29.4762C122.954 29.4029 123.03 29.3296 123.1 29.2533C124.094 28.2243 124.631 26.8405 124.59 25.4097C124.634 23.9761 124.097 22.5835 123.1 21.5515C121.227 19.5989 118.125 19.5315 116.172 21.4049C116.122 21.4518 116.073 21.5016 116.026 21.5515C115.029 22.5835 114.492 23.9761 114.536 25.4097C114.498 26.8405 115.041 28.2272 116.04 29.2533H116.055ZM138.636 42.2266C136.85 42.2823 135.1 41.7253 133.675 40.6464C132.411 39.6955 131.415 38.4327 130.784 36.9816L134.179 35.5655C134.549 36.4334 135.126 37.1956 135.862 37.7849C136.648 38.4182 137.636 38.7524 138.648 38.7231C139.943 38.8023 141.21 38.3126 142.119 37.3833C143.016 36.3014 143.459 34.9117 143.356 33.5103V32.2291H143.221C142.069 33.5954 140.342 34.34 138.56 34.2404C136.299 34.2462 134.138 33.308 132.602 31.6486C130.937 30.0039 130.016 27.7493 130.054 25.4068C130.013 23.0526 130.934 20.7833 132.602 19.121C134.136 17.4557 136.296 16.5088 138.56 16.5146C139.507 16.5117 140.445 16.7228 141.301 17.1244C142.043 17.4469 142.702 17.9307 143.239 18.5405H143.374V17.1244H147.068V32.9885C147.264 35.5245 146.408 38.0312 144.699 39.9163C143.072 41.4731 140.887 42.3058 138.636 42.2266ZM138.906 30.7867C140.193 30.816 141.427 30.2678 142.271 29.2973C143.189 28.2448 143.676 26.8815 143.626 25.483C143.682 24.0611 143.198 22.6744 142.271 21.5955C141.427 20.6221 140.193 20.0768 138.906 20.1061C137.583 20.0797 136.314 20.6221 135.42 21.5955C134.435 22.6362 133.898 24.023 133.93 25.4537C133.901 26.8727 134.435 28.2448 135.42 29.268C136.308 30.2502 137.577 30.8043 138.906 30.7867ZM153.638 7.69867V33.7361H149.75V7.69867H153.638ZM164.304 34.2726C161.95 34.3342 159.677 33.4107 158.033 31.7249C156.365 30.0537 155.453 27.7699 155.514 25.4097C155.426 23.0438 156.303 20.7423 157.942 19.0331C159.49 17.403 161.654 16.5 163.899 16.5439C164.922 16.5322 165.934 16.7316 166.878 17.1244C167.728 17.4675 168.502 17.9747 169.156 18.6138C169.719 19.1562 170.217 19.7601 170.645 20.4169C170.991 20.971 171.284 21.5544 171.525 22.1584L171.927 23.1728L160.012 28.0748C160.751 29.7693 162.454 30.8365 164.301 30.7574C166.086 30.7632 167.743 29.828 168.666 28.3005L171.645 30.3117C170.885 31.4005 169.912 32.3232 168.784 33.0237C167.447 33.868 165.887 34.3019 164.304 34.2726ZM159.329 25.14L167.253 21.8476C167.01 21.2671 166.573 20.7892 166.016 20.4931C165.394 20.1413 164.691 19.9624 163.975 19.9712C162.765 20.0035 161.612 20.5107 160.774 21.3873C159.757 22.3607 159.226 23.7357 159.329 25.14Z" fill="#FDFDFD"/>
<path d="M192.294 34.2726C185.516 34.3899 179.928 28.9895 179.811 22.2111C179.808 22.047 179.808 21.8798 179.813 21.7157C179.655 14.9373 185.023 9.31703 191.799 9.15871C191.963 9.15578 192.13 9.15578 192.294 9.15578C195.683 9.05024 198.938 10.4986 201.128 13.0873L198.982 15.1719C197.372 13.146 194.892 12.0114 192.309 12.1169C189.831 12.0612 187.436 13.0199 185.68 14.7673C183.853 16.6055 182.877 19.121 182.983 21.7098C182.874 24.2986 183.853 26.8141 185.68 28.6523C187.436 30.4026 189.831 31.3584 192.309 31.3027C195.194 31.3349 197.935 30.0508 199.756 27.8168L201.902 29.9629C200.779 31.3056 199.369 32.3787 197.777 33.1058C196.059 33.9032 194.185 34.3019 192.294 34.2726Z" fill="#FDFDFD"/>
<path d="M207.666 33.7362H204.582V9.67773H207.666V33.7362Z" fill="#FDFDFD"/>
<path d="M212.702 19.256C216.065 15.9166 221.495 15.9166 224.857 19.256C226.452 20.9418 227.311 23.1934 227.241 25.5124C227.311 27.8315 226.452 30.0831 224.857 31.7689C221.495 35.1083 216.065 35.1083 212.702 31.7689C211.107 30.0831 210.248 27.8315 210.318 25.5124C210.248 23.1934 211.104 20.9418 212.702 19.256ZM214.995 29.8339C216.968 31.9185 220.257 32.0093 222.345 30.0362C222.415 29.9717 222.483 29.9014 222.547 29.8339C223.635 28.6671 224.209 27.1103 224.142 25.5154C224.212 23.9205 223.638 22.3637 222.547 21.1968C220.574 19.1123 217.284 19.0214 215.197 20.9945C215.127 21.059 215.059 21.1294 214.995 21.1968C213.907 22.3637 213.332 23.9205 213.4 25.5154C213.338 27.1074 213.919 28.6583 215.009 29.8193L214.995 29.8339Z" fill="#FDFDFD"/>
<path d="M244.326 33.736H241.347V31.458H241.259C240.728 32.3229 239.978 33.0324 239.083 33.5132C238.157 34.0497 237.102 34.3341 236.028 34.3312C234.264 34.4514 232.543 33.7595 231.352 32.4548C230.223 31.027 229.658 29.2357 229.757 27.4209V17.2915H232.842V26.8551C232.842 29.9247 234.196 31.458 236.908 31.458C238.131 31.4961 239.295 30.942 240.036 29.9687C240.837 28.9572 241.262 27.6994 241.244 26.4094V17.2915H244.328V33.736H244.326Z" fill="#FDFDFD"/>
<path d="M254.798 34.2727C252.681 34.2786 250.667 33.3609 249.286 31.7543C247.741 30.048 246.914 27.8139 246.976 25.5124C246.914 23.211 247.741 20.9769 249.286 19.2706C250.667 17.6669 252.681 16.7463 254.798 16.7522C255.971 16.7346 257.129 17.0102 258.164 17.5555C259.075 18.0129 259.847 18.7077 260.398 19.5667H260.533L260.398 17.2887V9.67773H263.482V33.7362H260.503V31.4582H260.368C259.817 32.3172 259.046 33.012 258.134 33.4694C257.108 34.0088 255.962 34.2874 254.798 34.2727ZM255.305 31.4582C256.715 31.4787 258.067 30.8923 259.014 29.8486C260.061 28.6553 260.597 27.0986 260.503 25.5124C260.597 23.9293 260.061 22.3695 259.014 21.1763C257.143 19.1182 253.959 18.9686 251.901 20.8421C251.784 20.9476 251.673 21.062 251.567 21.1763C250.518 22.3608 249.981 23.9146 250.078 25.4949C249.981 27.0751 250.518 28.629 251.567 29.8134C252.517 30.8806 253.88 31.4787 255.305 31.4582Z" fill="#FDFDFD"/>
</svg>
