<svg width="48" height="48" viewBox="0 0 48 48" fill="none" xmlns="http://www.w3.org/2000/svg">
<path d="M46.4068 21.7157L25.875 1.18488C24.6928 0.00217491 22.7752 0.00217491 21.592 1.18488L17.3289 5.44897L22.7368 10.8569C23.9937 10.4321 25.4349 10.7172 26.4364 11.7192C27.4441 12.7274 27.7266 14.1808 27.2911 15.4424L32.504 20.6548C33.7655 20.2198 35.22 20.5012 36.2271 21.5099C37.6345 22.9173 37.6345 25.1978 36.2271 26.6062C34.8187 28.0141 32.5383 28.0141 31.1294 26.6062C30.071 25.5468 29.809 23.991 30.3459 22.687L25.484 17.8257V30.6185C25.8269 30.7884 26.1509 31.0146 26.4364 31.3001C27.8438 32.7075 27.8438 34.988 26.4364 36.3969C25.029 37.8038 22.7471 37.8038 21.3407 36.3969C19.9333 34.9875 19.9333 32.707 21.3407 31.3001C21.6887 30.9527 22.0915 30.6896 22.5214 30.5136V17.6015C22.0915 17.4255 21.6897 17.165 21.3407 16.8149C20.2747 15.7494 20.0183 14.1844 20.5649 12.8753L15.2337 7.54315L1.15485 21.6205C-0.0278544 22.8042 -0.0278544 24.7218 1.15485 25.9045L21.6877 46.4358C22.8699 47.6185 24.787 47.6185 25.9707 46.4358L46.4068 25.9997C47.5895 24.817 47.5895 22.8984 46.4068 21.7157Z" fill="#F05133"/>
</svg>
