<svg width="48" height="47" viewBox="0 0 48 47" fill="none" xmlns="http://www.w3.org/2000/svg">
<path fill-rule="evenodd" clip-rule="evenodd" d="M23.8 0.689453C10.7875 0.689453 0.268066 11.2864 0.268066 24.3963C0.268066 34.8757 7.0082 43.7463 16.3586 46.8859C17.5276 47.1219 17.9558 46.3758 17.9558 45.7481C17.9558 45.1985 17.9173 43.3147 17.9173 41.3518C11.3713 42.7651 10.0081 38.5258 10.0081 38.5258C8.95611 35.7783 7.3974 35.0722 7.3974 35.0722C5.25489 33.6199 7.55346 33.6199 7.55346 33.6199C9.93007 33.777 11.1771 36.0534 11.1771 36.0534C13.2806 39.664 16.6702 38.6438 18.0338 38.0157C18.2284 36.485 18.8522 35.4253 19.5145 34.8367C14.2936 34.2871 8.80053 32.2462 8.80053 23.14C8.80053 20.5496 9.73499 18.4302 11.2157 16.7819C10.9821 16.1933 10.1637 13.7593 11.4498 10.5017C11.4498 10.5017 13.4367 9.87363 17.9168 12.9352C19.8349 12.4163 21.813 12.1523 23.8 12.15C25.7869 12.15 27.8124 12.4251 29.6828 12.9352C34.1633 9.87363 36.1503 10.5017 36.1503 10.5017C37.4364 13.7593 36.6175 16.1933 36.3839 16.7819C37.9036 18.4302 38.7995 20.5496 38.7995 23.14C38.7995 32.2462 33.3064 34.2476 28.0465 34.8367C28.9039 35.5823 29.6438 36.9951 29.6438 39.2325C29.6438 42.4115 29.6052 44.963 29.6052 45.7477C29.6052 46.3758 30.0339 47.1219 31.2025 46.8863C40.5528 43.7458 47.293 34.8757 47.293 24.3963C47.3315 11.2864 36.7736 0.689453 23.8 0.689453Z" fill="white"/>
</svg>
