<svg width="162" height="41" viewBox="0 0 162 41" fill="none" xmlns="http://www.w3.org/2000/svg">
<path d="M99.1108 31.3705H99.0571C99.084 31.3705 99.084 31.3973 99.1108 31.3973H99.1376L99.1108 31.3705ZM99.1108 31.3973C98.8963 31.3973 98.3333 31.5045 97.7435 31.5045C95.8937 31.5045 95.2503 30.6467 95.2503 29.5207V22.0679H99.0303C99.2448 22.0679 99.4057 21.8803 99.4057 21.6122V17.5641C99.4057 17.3496 99.218 17.1619 99.0303 17.1619H95.2503V12.1219C95.2503 11.9343 95.1163 11.827 94.9018 11.827H89.7546C89.5401 11.827 89.4329 11.9611 89.4329 12.1219V17.296C89.4329 17.296 86.8324 17.9394 86.6716 17.9662C86.4839 18.0198 86.3767 18.1807 86.3767 18.3683V21.6122C86.3767 21.8803 86.5643 22.0679 86.7788 22.0679H89.4061V29.896C89.4061 35.7135 93.4541 36.3033 96.2154 36.3033C97.4754 36.3033 99.0035 35.9011 99.2448 35.7671C99.3788 35.7135 99.4593 35.5526 99.4593 35.3918V31.8262C99.4593 31.6118 99.3252 31.4509 99.1108 31.3973ZM155.57 26.1696C155.57 21.8534 153.827 21.2905 152.004 21.4781C150.583 21.5586 149.43 22.2824 149.43 22.2824V30.6735C149.43 30.6735 150.583 31.4777 152.326 31.5313C154.765 31.585 155.57 30.7003 155.57 26.1696ZM161.36 25.7943C161.36 33.9709 158.706 36.3033 154.095 36.3033C150.181 36.3033 148.09 34.3194 148.09 34.3194C148.09 34.3194 148.01 35.4186 147.876 35.5526C147.795 35.6867 147.688 35.7403 147.527 35.7403H144.015C143.774 35.7403 143.559 35.5526 143.559 35.3382L143.613 8.87809C143.613 8.66362 143.801 8.47596 144.015 8.47596H149.082C149.296 8.47596 149.484 8.66362 149.484 8.87809V17.859C149.484 17.859 151.441 16.599 154.31 16.599L154.283 16.5453C157.125 16.5453 161.36 17.6177 161.36 25.7943ZM140.584 17.1888H135.57C135.302 17.1888 135.168 17.3764 135.168 17.6445V30.593C135.168 30.593 133.855 31.5045 132.059 31.5045C130.289 31.5045 129.753 30.7003 129.753 28.9041V17.5909C129.753 17.3764 129.565 17.1888 129.351 17.1888H124.257C124.043 17.1888 123.855 17.3764 123.855 17.5909V29.7888C123.855 35.0165 126.777 36.3301 130.798 36.3301C134.123 36.3301 136.804 34.5071 136.804 34.5071C136.804 34.5071 136.938 35.4454 136.991 35.5794C137.045 35.6867 137.206 35.7939 137.367 35.7939H140.557C140.825 35.7939 140.959 35.6062 140.959 35.3918L141.013 17.5909C141.039 17.3764 140.825 17.1888 140.584 17.1888ZM84.1248 17.1619H79.0579C78.8435 17.1619 78.6558 17.3764 78.6558 17.6445V35.1237C78.6558 35.6062 78.9775 35.7671 79.3796 35.7671H83.9639C84.4465 35.7671 84.5537 35.5526 84.5537 35.1237V17.5641C84.5269 17.3496 84.3392 17.1619 84.1248 17.1619ZM81.6048 9.09256C79.7818 9.09256 78.3073 10.5402 78.3073 12.39C78.3073 14.213 79.755 15.6875 81.6048 15.6875C83.4009 15.6875 84.8486 14.2398 84.8486 12.39C84.8486 10.567 83.4009 9.09256 81.6048 9.09256ZM120.906 8.50277H115.866C115.652 8.50277 115.464 8.69043 115.464 8.9049V18.6364H107.582V8.9049C107.582 8.69043 107.395 8.50277 107.18 8.50277H102.113C101.899 8.50277 101.711 8.69043 101.711 8.9049V35.365C101.711 35.5794 101.926 35.7671 102.113 35.7671H107.18C107.395 35.7671 107.582 35.5794 107.582 35.365V24.0517H115.464L115.41 35.365C115.41 35.5794 115.598 35.7671 115.813 35.7671H120.879C121.094 35.7671 121.281 35.5794 121.281 35.365V8.9049C121.308 8.69043 121.121 8.50277 120.906 8.50277ZM75.9482 20.2181V33.8905C75.9482 33.9709 75.9213 34.1586 75.8141 34.1854C75.8141 34.1854 72.8384 36.3033 67.9324 36.3033C62.0077 36.3033 54.957 34.4535 54.957 22.202C54.957 9.95044 61.0962 7.43043 67.1013 7.45724C72.3022 7.45724 74.3933 8.63681 74.715 8.85128C74.7954 8.98533 74.849 9.06575 74.849 9.17299L73.8839 13.4356C73.8839 13.65 73.6694 13.9181 73.4013 13.8377C72.5435 13.5696 71.2566 13.0602 68.2273 13.0602C64.7154 13.0602 60.9622 14.0521 60.9622 21.9607C60.9622 29.8424 64.5277 30.7807 67.1013 30.7807C69.2996 30.7807 70.0771 30.5126 70.0771 30.5126V25.0437H66.5652C66.2971 25.0437 66.1094 24.856 66.1094 24.6415V20.2449C66.1094 20.0305 66.2971 19.8428 66.5652 19.8428H75.4924C75.7605 19.816 75.9482 20.0036 75.9482 20.2181Z" fill="white"/>
<path fill-rule="evenodd" clip-rule="evenodd" d="M20.9106 0.674805C9.62415 0.674805 0.482422 9.81653 0.482422 21.1029C0.482422 30.1374 6.32669 37.7779 14.4497 40.4855C15.4684 40.6464 15.8705 40.0566 15.8705 39.5204C15.8705 39.0379 15.8437 37.4294 15.8437 35.7136C10.7233 36.6519 9.38287 34.4536 8.98074 33.3277C8.73946 32.7379 7.74755 30.9149 6.88967 30.4323C6.16584 30.057 5.14711 29.0919 6.86286 29.0651C8.47138 29.0383 9.62415 30.5396 9.99947 31.1562C11.8493 34.2391 14.7714 33.3813 15.951 32.8451C16.1386 31.5315 16.6748 30.62 17.2646 30.1106C12.7339 29.6013 7.96201 27.8319 7.96201 20.0306C7.96201 17.8055 8.76627 15.9557 10.0531 14.5348C9.83862 14.0255 9.14159 11.9344 10.2676 9.11951C10.2676 9.11951 11.9833 8.58334 15.8974 11.2106C17.5327 10.7548 19.2752 10.5136 20.991 10.5136C22.7335 10.5136 24.4493 10.7548 26.0846 11.2106C29.9987 8.55653 31.6876 9.11951 31.6876 9.11951C32.8136 11.9344 32.0897 14.0255 31.9021 14.5348C33.2157 15.9557 33.9931 17.7787 33.9931 20.0306C33.9931 27.8587 29.2212 29.6013 24.6638 30.1106C25.4144 30.754 26.0578 31.9604 26.0578 33.8906C26.0578 36.6251 26.031 38.8234 26.031 39.4936C26.031 40.0298 26.4063 40.6732 27.425 40.4587C35.7357 37.6438 41.3387 29.8425 41.3387 21.0761C41.3387 9.81653 32.197 0.674805 20.9106 0.674805Z" fill="white"/>
</svg>
