<svg width="80" height="80" viewBox="0 0 80 80" fill="none" xmlns="http://www.w3.org/2000/svg">
<path d="M32.5499 45.2578H22.0302L22.0351 34.7433H32.5553L32.5499 45.2578Z" fill="#1C1C1B"/>
<path d="M43.0646 55.7723H32.5449L32.5499 45.2578H43.0699L43.0646 55.7723Z" fill="#1C1C1B"/>
<path d="M43.0699 45.2578H32.5499L32.5553 34.7433H43.0751L43.0699 45.2578Z" fill="#1C1C1B"/>
<path d="M53.5898 45.2578L43.0699 45.2578L43.0751 34.7433H53.5951L53.5898 45.2578ZM32.5553 34.7433H22.0351L22.0402 24.2283H32.5605L32.5553 34.7433ZM53.5951 34.7433H43.0751L43.08 24.2283H53.6001L53.5951 34.7433ZM22.0302 45.2578L11.5104 45.2577L11.5153 34.5683H22.0353L22.0302 45.2578Z" fill="#1C1C1B"/>
<path d="M22.0351 34.7433L11.5154 34.743L11.5205 24.2283H22.0402L22.0351 34.7433Z" fill="#1C1C1B"/>
<path d="M22.0405 24.4032H11.5206L11.5256 13.7138H22.0459L22.0405 24.4032ZM64.12 24.2283L53.6001 24.2283L53.605 13.7138H64.1251L64.12 24.2283ZM22.025 55.9471H11.5051L11.51 45.0828H22.0302L22.025 55.9471Z" fill="#1C1C1B"/>
<path d="M22.02 66.2872H11.5L11.5049 55.7727H22.025L22.02 66.2872ZM64.1096 45.2578H53.5898L53.5951 34.7433H64.1148L64.1096 45.2578ZM64.1148 34.7433H53.5951L53.6001 24.2283L64.12 24.2283L64.1148 34.7433Z" fill="#1C1C1B"/>
<path d="M64.1044 55.7723H53.5846L53.5898 45.2578H64.1096L64.1044 55.7723Z" fill="#1C1C1B"/>
<path d="M64.0992 66.2869H53.5795L53.5844 55.5975H64.1044L64.0992 66.2869Z" fill="#1C1C1B"/>
<path d="M36.9246 45.2569H26.2303L26.2354 34.7424H36.9303L36.9246 45.2569Z" fill="#FF7000"/>
<path d="M47.4397 55.7714H36.9198L36.9247 45.0819H47.445L47.4397 55.7714Z" fill="#FF4900"/>
<path d="M47.6197 45.2569H36.7501L36.7552 34.7424H47.6251L47.6197 45.2569Z" fill="#FF7000"/>
<path d="M58.1396 45.2569H47.445L47.45 34.7424H58.1448L58.1396 45.2569Z" fill="#FF7000"/>
<path d="M36.9303 34.7424H26.2354L26.2404 24.2276H36.9352L36.9303 34.7424ZM58.1448 34.7424H47.45L47.455 24.2276H58.1502L58.1448 34.7424Z" fill="#FFA300"/>
<path d="M26.4049 45.4317H15.8854L15.8903 34.7423H26.4104L26.4049 45.4317Z" fill="#FF7000"/>
<path d="M26.4104 34.7423H15.8903L15.8953 24.1163H26.4154L26.4104 34.7423Z" fill="#FFA300"/>
<path d="M26.4153 24.2276H15.8957L15.9006 13.7129H26.4208L26.4153 24.2276ZM68.4949 24.3389H57.9751L57.98 13.7129H68.5002L68.4949 24.3389Z" fill="#FFCE00"/>
<path d="M26.3997 55.9942H15.8802L15.8851 45.2569H26.4052L26.3997 55.9942Z" fill="#FF4900"/>
<path d="M26.3946 66.2865H15.8752L15.8801 55.7718H26.4002L26.3946 66.2865Z" fill="#FF0107"/>
<path d="M68.4846 45.2569H57.9647L57.9698 34.7424H68.4899L68.4846 45.2569Z" fill="#FF7000"/>
<path d="M68.4899 34.7424H57.9698L57.9748 24.2276H68.4949L68.4899 34.7424Z" fill="#FFA300"/>
<path d="M68.4794 55.8828H57.9597L57.9647 45.2569H68.4846L68.4794 55.8828Z" fill="#FF4900"/>
<path d="M68.4744 66.2865H57.9543L57.9595 55.7718H68.4795L68.4744 66.2865Z" fill="#FF0107"/>
</svg>
