<svg width="47" height="47" viewBox="0 0 47 47" fill="none" xmlns="http://www.w3.org/2000/svg">
<path d="M39.8206 23.8485C40.2659 24.128 40.6399 24.3772 41.0317 24.611C42.3191 25.3568 43.6108 26.0957 44.9068 26.8278C45.8125 27.3363 46.4181 28.0431 46.5885 29.1157C46.8176 30.5343 45.6905 32.0851 44.258 32.2401C43.5357 32.3353 42.8023 32.1897 42.1716 31.8258C39.1184 30.0462 36.0398 28.2666 32.9611 26.5125C31.9689 25.9458 31.3734 25.1525 31.3023 24.0086C31.2259 22.8137 31.8111 21.9316 32.783 21.3419C34.4877 20.3122 36.2255 19.341 37.9506 18.347L41.9324 16.0591C42.4412 15.7642 42.9502 15.4744 43.5736 15.4415C44.1901 15.4039 44.8026 15.5653 45.3207 15.9017C45.8386 16.238 46.2349 16.7316 46.4511 17.31C46.9219 18.5962 46.4232 19.9106 45.2528 20.6707C44.4896 21.179 43.6702 21.6036 42.8764 22.0638C41.9859 22.5722 41.0954 23.0807 40.2023 23.6043C40.0954 23.6425 39.9988 23.7238 39.8206 23.8485Z" fill="#32C0F0"/>
<path d="M7.75954 23.8178C6.88679 23.3093 6.08279 22.839 5.27368 22.3713C4.32719 21.8246 3.38325 21.2704 2.42912 20.7393C1.15695 20.0402 0.648094 18.4385 1.10098 17.3046C1.7676 15.6091 3.59188 14.8997 5.19736 15.7795C6.42373 16.4531 7.62458 17.1724 8.83822 17.8715C10.711 18.9546 12.5785 20.0477 14.4638 21.113C15.3034 21.5857 15.9472 22.1933 16.1812 23.1466C16.3302 23.6548 16.323 24.1959 16.1607 24.7C15.9981 25.204 15.6881 25.6477 15.2703 25.9735C14.7328 26.3845 14.1627 26.7508 13.5656 27.0692C10.8415 28.659 8.11317 30.2359 5.38054 31.8002C4.41624 32.3621 3.39851 32.4613 2.38079 31.9045C2.0032 31.7025 1.67829 31.4148 1.43212 31.0646C1.18595 30.7143 1.02537 30.3113 0.963277 29.888C0.901183 29.4645 0.939288 29.0324 1.07456 28.6263C1.20982 28.2202 1.43847 27.8515 1.74215 27.5498C2.21396 27.1304 2.7321 26.7662 3.28657 26.4643C4.65796 25.6482 6.04717 24.8626 7.42874 24.0618C7.52031 24.011 7.59913 23.9423 7.75954 23.8178Z" fill="#32C0F0"/>
<path d="M15.6566 10.1284V9.32763C15.6566 7.49208 15.6566 5.65411 15.6566 3.81866C15.6626 3.10013 15.9379 2.40993 16.4283 1.88427C16.9185 1.35859 17.5882 1.03562 18.3051 0.979045C19.6053 0.905316 21.2566 1.84592 21.2948 3.71698C21.3202 5.11518 21.2948 6.51339 21.2948 7.9167C21.2948 10.2555 21.2948 12.5943 21.2948 14.9332C21.3134 15.5626 21.1187 16.1799 20.7424 16.6852C20.3661 17.1904 19.83 17.5538 19.2211 17.7168C18.8303 17.8241 18.4217 17.8513 18.0199 17.7971C17.6181 17.743 17.2314 17.6085 16.8829 17.4016C14.8475 16.2271 12.8195 15.0611 10.7994 13.9034L7.56045 12.0375C7.05494 11.7715 6.63109 11.3735 6.3341 10.8859C6.00946 10.3467 5.87631 9.7139 5.95619 9.0897C6.03607 8.46566 6.3243 7.88667 6.77427 7.44637C7.22105 7.00207 7.80311 6.71896 8.42862 6.64164C9.05428 6.56432 9.68778 6.69717 10.2294 7.01927C11.1632 7.54299 12.0818 8.09718 13.0079 8.63097C13.8578 9.10634 14.7075 9.58171 15.6566 10.1284Z" fill="#32C0F0"/>
<path d="M15.6571 37.561L12.843 39.1779C11.9905 39.6686 11.1434 40.1719 10.2859 40.6523C9.6886 41.0087 8.98346 41.1396 8.29806 41.0217C7.61251 40.9038 6.99183 40.5446 6.54829 40.0092C5.71883 39.0051 5.70866 37.3906 6.62716 36.4627C7.06489 36.038 7.55572 35.6713 8.08755 35.3721C10.9373 33.7071 13.8047 32.0674 16.662 30.4174C17.4889 29.9396 18.3361 29.6878 19.2903 29.9954C19.8757 30.1573 20.3907 30.5081 20.7553 30.9933C21.12 31.4786 21.3134 32.0708 21.3054 32.6774C21.3207 34.1189 21.3054 35.5629 21.3054 36.9991C21.3054 39.2719 21.3054 41.5454 21.3054 43.8199C21.3158 44.5509 21.0395 45.2568 20.5354 45.7865C20.0313 46.3164 19.3396 46.6279 18.6085 46.6544C18.2297 46.6705 17.8516 46.6102 17.4969 46.4772C17.1419 46.3442 16.8175 46.1412 16.5429 45.8802C16.268 45.6193 16.0487 45.3058 15.8979 44.9584C15.747 44.6109 15.6677 44.2367 15.6646 43.858C15.6341 42.043 15.6646 40.2278 15.6646 38.4153L15.6571 37.561Z" fill="#32C0F0"/>
<path d="M31.956 10.09L34.0755 8.87494C35.1186 8.27832 36.1601 7.67844 37.1999 7.07503C37.9072 6.66575 38.6578 6.45475 39.4643 6.69116C40.6983 7.04962 41.4515 7.87835 41.6117 9.15203C41.7542 10.3037 41.2199 11.1857 40.2835 11.8187C39.5407 12.3272 38.7443 12.7365 37.9682 13.1839C35.5638 14.5719 33.1518 15.9472 30.7551 17.348C29.4829 18.0878 27.8748 17.9174 26.9386 16.7836C26.5322 16.3178 26.3035 15.7237 26.2924 15.1058C26.2924 11.3231 26.2924 7.54022 26.2924 3.76003C26.2963 3.13058 26.5115 2.52064 26.9033 2.02773C27.2952 1.53483 27.841 1.18742 28.4538 1.04104C29.0666 0.894642 29.7107 0.957715 30.2833 1.2202C30.8559 1.48268 31.324 1.92939 31.6125 2.48893C31.8127 2.9236 31.9176 3.39595 31.9204 3.87442C31.956 5.65395 31.9356 7.41569 31.9356 9.18761L31.956 10.09Z" fill="#32C0F0"/>
<path d="M31.9553 37.6629V43.82C31.9526 44.5565 31.6617 45.2628 31.1445 45.7877C30.6276 46.3127 29.9254 46.6145 29.1884 46.6288C28.4513 46.6432 27.738 46.3687 27.2009 45.8641C26.6639 45.3597 26.3456 44.6652 26.3145 43.9294C26.2737 42.9125 26.3145 41.8727 26.3145 40.8457C26.3145 38.1306 26.3145 35.4156 26.3145 32.7108C26.3073 32.326 26.3801 31.9438 26.5286 31.5887C26.6769 31.2336 26.8977 30.9132 27.1766 30.6479C27.4557 30.3825 27.7868 30.1781 28.149 30.0474C28.5113 29.9166 28.8969 29.8628 29.2811 29.8889C29.7604 29.9241 30.2263 30.0619 30.6475 30.2931C33.7694 32.0725 36.8708 33.8674 39.9801 35.6596C40.4099 35.8802 40.7813 36.1997 41.0635 36.5917C41.3456 36.9839 41.5307 37.4372 41.6033 37.9145C41.8349 39.3584 40.6594 40.9118 39.1964 41.0389C38.451 41.1103 37.7024 40.9371 37.0642 40.5456C35.5377 39.6381 34.0111 38.7662 32.4641 37.879C32.2988 37.797 32.1289 37.7249 31.9553 37.6629Z" fill="#32C0F0"/>
<path d="M29.0428 23.8387C29.1574 24.4515 28.885 24.8836 28.4653 25.2929C27.3686 26.358 26.2975 27.4512 25.2111 28.5317C25.0287 28.7177 24.811 28.8654 24.5706 28.9662C24.3304 29.0673 24.0724 29.1192 23.8116 29.1192C23.551 29.1192 23.293 29.0673 23.0528 28.9662C22.8124 28.8654 22.5947 28.7177 22.4123 28.5317C21.2944 27.4233 20.181 26.3149 19.0716 25.2064C18.7074 24.8416 18.5016 24.3483 18.4987 23.833C18.4959 23.3178 18.6961 22.822 19.0563 22.4532C20.181 21.3228 21.3098 20.195 22.4428 19.0696C22.8067 18.7207 23.2909 18.5249 23.7951 18.5226C24.2994 18.5202 24.7854 18.7114 25.1525 19.0569C26.2542 20.1475 27.3355 21.2636 28.4602 22.3388C28.8953 22.7659 29.1624 23.221 29.0428 23.8387ZM23.8346 21.9601C23.6741 21.9977 23.5203 22.0604 23.3792 22.1456C22.9418 22.5377 22.5265 22.9535 22.135 23.3914C21.8806 23.6938 21.9085 24.0167 22.191 24.3421C22.5211 24.7189 22.8746 25.0747 23.2494 25.4073C23.3186 25.4871 23.4043 25.5509 23.5004 25.5948C23.5965 25.6385 23.701 25.6612 23.8066 25.6612C23.9123 25.6612 24.0167 25.6385 24.1129 25.5948C24.209 25.5509 24.2945 25.4871 24.3639 25.4073C24.7245 25.0903 25.0644 24.7507 25.3815 24.3904C25.7377 23.9862 25.7276 23.6404 25.3587 23.2287C25.0532 22.8878 24.7278 22.5652 24.3841 22.2626C24.2136 22.1405 24.029 22.039 23.8346 21.9601Z" fill="#32C0F0"/>
</svg>
