<svg width="199" height="48" viewBox="0 0 199 48" fill="none" xmlns="http://www.w3.org/2000/svg">
<path d="M20.0486 17.0153C20.6403 16.424 20.9368 15.7331 20.9368 14.8452V3.49861C20.9368 1.92022 19.6539 0.637695 18.0753 0.637695C16.4965 0.637695 15.214 1.92022 15.214 3.49861V10.0109L9.68893 6.75467C8.30771 5.86708 6.53156 6.26143 5.74266 7.64265C4.85468 9.02425 5.24903 10.8 6.63024 11.5893C6.72893 11.5893 6.72893 11.6878 6.82801 11.6878L16.6943 17.4102C17.6807 18.1008 19.1606 17.9039 20.0486 17.0153ZM15.8061 23.9219C15.8061 22.8366 15.3125 21.8499 14.3258 21.3563L4.45993 15.6339C3.07833 14.7463 1.30256 15.1406 0.513271 16.5219C-0.374904 17.9037 0.020036 19.6792 1.40125 20.4685C1.49994 20.4685 1.49994 20.5672 1.59843 20.5672L7.22217 23.8231L1.59843 27.0793C0.217212 27.8682 -0.374904 29.5459 0.414585 31.026C1.20407 32.5059 2.88115 32.9987 4.36085 32.2094C4.45993 32.2094 4.45993 32.2094 4.55803 32.2094L14.4249 26.4874C15.3125 25.994 15.8061 25.0073 15.8061 23.9219ZM20.9368 32.9004V44.3455C20.9368 45.9241 19.6539 47.2064 18.0753 47.2064C16.4965 47.2064 15.214 45.9239 15.214 44.3455V37.9322L9.59024 41.1883C8.20903 42.0759 6.43287 41.6815 5.64397 40.3003C4.7558 38.9189 5.15034 37.1429 6.53156 36.3537C6.63005 36.3537 6.63005 36.255 6.72873 36.255L16.5956 30.5325C17.9768 29.7431 19.8514 30.2365 20.6405 31.7164C20.8377 32.0121 21.0349 32.5059 20.9368 32.9004ZM26.0669 33.1965V44.3453C26.0669 45.9239 27.3494 47.2062 28.9282 47.2062C30.5066 47.2062 31.7891 45.9237 31.7891 44.3453V37.932L37.3142 41.0894C38.6954 41.977 40.4716 41.5826 41.2608 40.2014C42.149 38.8196 41.7541 37.0441 40.3729 36.2548C40.2742 36.2548 40.2742 36.1561 40.1757 36.1561L30.3092 30.4337C28.928 29.6442 27.1519 30.1376 26.3626 31.519C26.1656 32.0121 25.9682 32.703 26.0669 33.1965ZM31.1976 23.9219C31.1976 22.8366 31.6906 21.8499 32.6773 21.3563L42.5438 15.6339C43.925 14.7463 45.7011 15.1406 46.4904 16.5219C47.378 17.9037 46.9837 19.6792 45.6023 20.4685C45.5038 20.4685 45.5038 20.5672 45.4051 20.5672L39.7809 23.8231L45.4051 27.0791C46.7863 27.868 47.378 29.5457 46.5889 31.0258C45.7996 32.407 44.122 32.9985 42.6423 32.2092C42.5438 32.2092 42.5438 32.1105 42.4451 32.1105L32.5788 26.3881C31.6906 25.994 31.0989 25.0073 31.1976 23.9219ZM26.0669 14.6478V3.49861C26.0669 1.92022 27.3494 0.637695 28.9282 0.637695C30.5066 0.637695 31.7891 1.92022 31.7891 3.49861V9.91184L37.3142 6.75448C38.6954 5.86689 40.4716 6.26124 41.2608 7.64245C42.149 9.02406 41.7541 10.7998 40.3729 11.5891C40.2742 11.5891 40.2742 11.6876 40.1757 11.6876L30.3092 17.41C28.928 18.1995 27.1519 17.7061 26.3626 16.3249C26.1656 15.8318 25.9682 15.2395 26.0669 14.6478ZM24.6857 18.7914C24.4885 18.5945 24.2908 18.4954 23.9949 18.4954H23.0082C22.7124 18.4954 22.515 18.5945 22.3178 18.7914L18.3712 22.7381C18.174 22.9353 18.0753 23.1327 18.0753 23.4283V24.4154C18.0753 24.7114 18.174 24.9086 18.3712 25.1058L22.3178 29.0524C22.515 29.2496 22.7124 29.3483 23.0082 29.3483H23.9949C24.2908 29.3483 24.4885 29.2496 24.6857 29.0524L28.632 25.1058C28.7306 24.9084 28.8295 24.6125 28.8295 24.4154V23.4283C28.8295 23.1325 28.7306 22.9351 28.5333 22.7381L24.6857 18.7914ZM24.0936 22.2451C23.9949 22.146 23.7977 22.0473 23.6003 22.0473C23.4026 22.0473 23.2054 22.146 23.1071 22.2451L21.9229 23.4285C21.8242 23.5272 21.7255 23.725 21.7255 23.9221C21.7255 24.1195 21.8242 24.3171 21.9229 24.4158L23.1071 25.5994C23.2052 25.6979 23.4026 25.797 23.6003 25.797C23.7975 25.797 23.9949 25.6979 24.0936 25.5994L25.2774 24.4158C25.3759 24.3171 25.475 24.1195 25.475 23.9221C25.475 23.725 25.3759 23.5272 25.2774 23.4285L24.0936 22.2451Z" fill="#31BEF0"/>
<path d="M55.822 31.5155C56.9144 32.0119 58.2056 32.3101 59.3973 32.3101C60.8869 32.4096 62.4755 31.9132 63.6674 31.0191C64.8591 30.2244 65.5546 28.8343 65.5546 27.4439C65.5546 24.1667 62.6746 23.4718 59.6953 22.4787C57.7092 21.7832 55.5242 21.2868 55.5242 19.5988C55.5242 17.5132 58.1063 16.6194 59.4963 16.6194C62.8732 16.6194 63.6674 19.3008 64.5612 18.5064C65.4549 17.712 62.1777 15.1297 59.6953 15.1297C58.2056 15.0306 56.7159 15.4275 55.5242 16.2225C54.3325 16.9174 53.5382 18.2085 53.6372 19.6978C53.5382 23.174 57.8083 23.7698 59.6953 24.4647C61.5819 25.16 63.6674 25.8556 63.7669 27.5436C63.7669 29.9271 60.7875 30.7213 59.4963 30.7213C55.7228 30.7213 54.6304 28.5363 53.9351 29.2318C53.2401 29.9269 54.0343 30.6219 55.822 31.5155ZM81.2449 31.5155C81.3439 32.0119 81.7414 32.3101 82.1387 32.3101C82.5356 32.3101 82.834 31.9132 82.9331 31.5155V22.1805C82.9331 18.3074 79.8543 15.229 75.9816 15.229C73.8961 15.229 71.91 16.1228 70.6189 17.712V16.0234C70.6189 15.527 70.222 15.229 69.8245 15.229C69.4272 15.229 69.0297 15.6263 69.0297 16.0234V31.7141C69.0297 31.7141 69.0297 31.7141 69.0297 31.8135V31.9132C69.1296 32.1117 69.3281 32.3101 69.6256 32.4096H69.9238C70.2218 32.4096 70.4203 32.3101 70.5192 32.1117C70.6187 32.0121 70.7182 31.9132 70.7182 31.7143V22.1805C70.7182 19.3008 73.1015 16.9172 76.0805 16.9172C78.9608 16.9172 81.3438 19.3008 81.3438 22.1805L81.2449 31.5155ZM86.0116 23.7698C86.2105 28.2383 90.0832 31.7141 94.5522 31.4166C99.0213 31.2177 102.497 27.3447 102.199 22.8762C102 18.5066 98.4253 15.1297 94.0557 15.1297C89.5868 15.3281 85.9125 19.1022 86.0116 23.7698ZM137.255 9.56882H137.155C136.36 9.46935 135.566 9.66789 134.97 10.2637C134.375 11.1576 134.176 12.1503 134.275 13.1436V14.9312H136.659C137.155 14.9312 137.453 15.229 137.552 15.7255C137.552 16.2225 137.155 16.6194 136.659 16.6194H134.275V31.5155C134.275 32.0119 133.978 32.3101 133.481 32.4094C132.984 32.4094 132.587 32.1115 132.587 31.6148C132.587 31.6148 132.587 31.6148 132.587 31.5153V16.6192H130.302C129.806 16.6192 129.409 16.2223 129.409 15.7253C129.409 15.229 129.806 14.931 130.203 14.931H132.488V13.1434C132.388 11.753 132.785 10.2635 133.58 9.17113C134.474 8.27689 135.765 7.78052 136.956 7.87999H137.453C137.949 7.87999 138.347 8.27689 138.347 8.77365C138.347 9.27021 137.949 9.6675 137.453 9.6675L137.255 9.56882ZM87.7002 23.0745C87.8987 19.4993 90.977 16.6194 94.5522 16.8179C98.1274 17.0169 100.808 20.2937 100.61 23.8689C100.411 27.2456 97.3331 29.9267 93.9564 29.9267C90.2821 29.728 87.6005 26.7488 87.7002 23.0745ZM110.739 32.3101C111.037 32.3101 111.335 32.1115 111.434 31.8135C111.434 31.8135 111.434 31.8135 111.434 31.7141L115.407 22.2801L119.379 31.8135C119.478 32.1115 119.776 32.3101 120.075 32.4096H120.174C120.372 32.4096 120.571 32.3101 120.67 32.211C120.769 32.1115 120.869 32.0119 120.968 31.8135L126.728 16.421C126.927 16.0236 126.728 15.5272 126.231 15.3282C125.834 15.1297 125.338 15.3282 125.139 15.825L120.174 29.4302L116.201 19.9961C116.003 19.6978 115.705 19.4993 115.407 19.4993C115.109 19.4993 114.712 19.6978 114.612 19.9961L110.64 29.4302L105.675 15.825C105.476 15.4277 104.979 15.2292 104.582 15.3282C104.185 15.5272 103.987 16.0236 104.185 16.421L109.945 31.8135C110.044 32.0121 110.143 32.1115 110.243 32.211L110.342 32.3101C110.541 32.211 110.64 32.211 110.739 32.3101ZM141.823 31.4164C141.823 31.913 142.22 32.3099 142.716 32.3099C143.213 32.3099 143.61 31.913 143.61 31.4164V8.57549C143.61 8.07874 143.213 7.68184 142.716 7.68184C142.22 7.68184 141.823 8.07874 141.823 8.57549V31.4164ZM162.28 15.1297C161.784 15.1297 161.486 15.527 161.387 15.9241V18.4071C159.897 16.3218 157.514 15.0308 154.931 15.0308C150.165 15.2294 146.49 19.3011 146.788 24.0675C146.987 28.5363 150.562 32.0121 154.931 32.2112C157.514 32.2112 159.897 30.9199 161.387 28.8345V31.4168C161.486 31.9134 161.883 32.2114 162.28 32.2114C162.677 32.2114 162.975 31.8139 163.075 31.4168V15.9243C163.075 15.527 162.677 15.1297 162.28 15.1297ZM155.528 30.7213C151.654 31.0191 148.576 28.04 148.278 24.1667C147.98 20.2935 150.662 17.1162 154.435 16.8179C158.308 16.5201 161.188 19.4002 161.387 23.2731C161.387 23.472 161.387 23.6704 161.387 23.7698C161.486 27.4441 158.606 30.5224 154.931 30.6219H155.528V30.7213ZM166.948 31.4164C166.948 31.913 167.345 32.3099 167.842 32.3099C168.338 32.3099 168.735 31.913 168.735 31.4164V27.4439L172.211 23.9682L178.765 31.913C178.865 32.1115 179.163 32.2108 179.461 32.2108C179.957 32.2108 180.255 31.913 180.354 31.4162C180.354 31.2173 180.255 30.9195 180.155 30.8204L173.502 22.7763L180.155 16.4206C180.453 16.0232 180.453 15.5268 180.056 15.2288C179.758 14.931 179.262 14.931 178.964 15.2288L168.735 25.1597V8.5753C168.735 8.07854 168.338 7.68164 167.842 7.68164C167.345 7.68164 166.948 8.07854 166.948 8.5753V31.4164ZM197.733 28.0398C197.932 27.6425 197.833 27.1461 197.435 26.8481C197.038 26.6495 196.542 26.7486 196.343 27.1459C195.251 29.1322 193.165 30.5222 190.782 30.6217H189.987C186.412 30.5222 183.433 27.6423 183.433 24.0671H197.535C197.932 24.0671 198.329 23.7694 198.329 23.3721V23.1736C197.833 18.6051 193.761 15.2288 189.193 15.7251C184.625 16.2221 181.248 20.2933 181.745 24.8616C182.142 29.132 185.717 32.3097 189.987 32.4092H190.782C193.761 32.1115 196.343 30.5224 197.733 28.0398ZM190.086 17.2152C193.264 17.2152 196.045 19.2013 196.542 22.379H183.532C184.128 19.2013 186.809 17.2152 190.086 17.2152Z" fill="#31BEF0"/>
</svg>
