<svg width="155" height="59" viewBox="0 0 155 59" fill="none" xmlns="http://www.w3.org/2000/svg">
<path d="M60.4685 24.0292H55.4718V21.0463H68.8526V24.0292H63.8558V38.9571H60.4699L60.4685 24.0292ZM71.9359 36.5198C73.2929 36.513 74.6419 36.3054 75.9392 35.9023L76.4549 38.3722C74.9146 38.9367 73.2873 39.227 71.6468 39.2299C67.5321 39.2299 66.1099 37.33 66.1099 34.1815V30.7535C66.1099 27.9851 67.3313 25.5966 71.5355 25.5966C75.7397 25.5966 76.6924 28.0394 76.6924 30.8594V33.655H69.4049V34.324C69.4049 35.8928 69.9477 36.4953 71.9508 36.4953L71.9359 36.5198ZM69.3642 31.01H73.5304V30.3668C73.5304 29.1454 73.1532 28.2769 71.5423 28.2769C69.9314 28.2769 69.3655 29.1345 69.3655 30.3668L69.3642 31.01Z" fill="white"/>
<path d="M85.4293 28.5863C84.2391 29.1345 83.0924 29.7737 82.0013 30.4998V38.934H78.6846V25.845H81.4531L81.6675 27.293C82.7302 26.5741 83.8827 25.9978 85.0955 25.579L85.4293 28.5863Z" fill="white"/>
<path d="M93.4347 28.5863C92.2446 29.1345 91.0978 29.7737 90.0067 30.4998V38.934H86.69V25.845H89.4585L89.6729 27.293C90.7356 26.5741 91.8881 25.9978 93.1009 25.579L93.4347 28.5863Z" fill="white"/>
<path d="M104.39 38.9232H101.707L101.467 38.0655C100.308 38.8179 98.9569 39.2198 97.5752 39.2231C95.184 39.2231 94.1472 37.5864 94.1472 35.331C94.1472 32.6738 95.3048 31.6669 97.947 31.6669H101.093V30.3098C101.093 28.8618 100.69 28.3474 98.5984 28.3474C97.3793 28.3605 96.1645 28.4956 94.9723 28.7505L94.5692 26.2562C96.0294 25.8524 97.5367 25.6447 99.0517 25.6387C103.166 25.6387 104.374 27.0867 104.374 30.3708L104.39 38.9232ZM101.116 33.978H98.7002C97.6145 33.978 97.3431 34.2697 97.3431 35.2631C97.3431 36.2565 97.6349 36.5836 98.6635 36.5836C99.5296 36.5719 100.379 36.3418 101.132 35.9145L101.116 33.978ZM114.469 22.8499C113.852 22.7176 113.224 22.6457 112.593 22.6355C111.307 22.6355 111.119 23.2014 111.119 24.1961V25.8328H114.444L114.254 28.4044H111.108V38.8784H107.833V28.4533H105.734V25.8816H107.824V24.0224C107.824 21.3056 109.083 19.9675 111.99 19.9675C112.943 19.9632 113.892 20.0902 114.81 20.3447L114.469 22.8499ZM120.864 39.1837C116.382 39.1837 115.172 36.7138 115.172 34.0268V30.7468C115.172 28.0638 116.394 25.5899 120.864 25.5899C125.334 25.5899 126.564 28.0597 126.564 30.7468V34.0553C126.556 36.7206 125.346 39.2122 120.864 39.2122V39.1837ZM120.864 28.3583C119.15 28.3583 118.448 29.1386 118.448 30.611V34.134C118.448 35.6078 119.117 36.3868 120.864 36.3868C122.611 36.3868 123.28 35.6065 123.28 34.134V30.6246C123.28 29.1413 122.601 28.3624 120.864 28.3624V28.3583ZM134.978 28.5727C133.787 29.1207 132.641 29.7605 131.55 30.4862V38.9204H128.238V25.8314H131.007L131.221 27.2794C132.284 26.5605 133.436 25.9842 134.649 25.5654L134.978 28.5727ZM143.989 38.9232V29.7941C143.989 29.0993 143.697 28.7491 142.944 28.7491C141.739 28.8848 140.572 29.2594 139.516 29.8552V38.9476H136.259V25.8586H138.753L139.079 26.9646C140.71 26.1474 142.494 25.6805 144.317 25.5939C144.822 25.547 145.329 25.6558 145.771 25.9057C146.212 26.1556 146.566 26.5346 146.786 26.9917C148.42 26.1558 150.215 25.6794 152.048 25.5939C154.225 25.5939 155.007 27.1274 155.007 29.4616V38.9422H151.732V29.8131C151.732 29.1183 151.44 28.7681 150.687 28.7681C149.48 28.8928 148.312 29.2696 147.259 29.8742V38.9666L143.989 38.9232Z" fill="white"/>
<path fill-rule="evenodd" clip-rule="evenodd" d="M33.9367 40.2408L18.1539 31.1262V49.348L33.9367 58.4627V40.2408ZM33.9367 20.0126V38.2419L18.1539 29.1272V10.8979L33.9367 20.0126Z" fill="#5C4EE5"/>
<path fill-rule="evenodd" clip-rule="evenodd" d="M35.6671 38.2419L51.4574 29.1272V10.8979L35.6671 20.0126V38.2419Z" fill="#4040B2"/>
<path fill-rule="evenodd" clip-rule="evenodd" d="M0.640625 18.9534L16.4234 28.0681V9.83877L0.640625 0.724121V18.9534Z" fill="#5C4EE5"/>
</svg>
