<svg width="877" height="713" viewBox="0 0 877 713" fill="none" xmlns="http://www.w3.org/2000/svg">
<path d="M608.734 374.068C613.874 386.463 617.462 399.663 619.258 413.428L618.436 413.535C619.301 420.171 619.748 426.94 619.748 433.813C619.748 440.686 619.301 447.455 618.436 454.091L619.258 454.198C617.462 467.962 613.874 481.163 608.734 493.558L607.968 493.24C602.734 505.861 595.883 517.643 587.674 528.326L588.331 528.831C580.022 539.643 570.329 549.337 559.517 557.646L559.012 556.988C548.328 565.198 536.547 572.049 523.926 577.282L524.243 578.048C511.849 583.188 498.648 586.777 484.884 588.572L484.777 587.75C478.14 588.616 471.372 589.062 464.499 589.062C457.625 589.062 450.857 588.616 444.22 587.75L444.113 588.572C430.349 586.777 417.148 583.188 404.754 578.048L405.071 577.282C392.45 572.049 380.669 565.198 369.985 556.988L369.48 557.646C358.668 549.337 348.975 539.643 340.666 528.831L341.323 528.326C333.114 517.643 326.263 505.861 321.029 493.24L320.263 493.558C315.123 481.163 311.535 467.962 309.739 454.198L310.561 454.091C309.696 447.455 309.249 440.686 309.249 433.813C309.249 426.94 309.696 420.171 310.561 413.535L309.739 413.428C311.535 399.663 315.123 386.463 320.263 374.068L321.029 374.385C326.263 361.765 333.114 349.983 341.323 339.3L340.666 338.795C348.975 327.982 358.668 318.289 369.48 309.98L369.986 310.638C380.669 302.428 392.45 295.577 405.071 290.343L404.754 289.578C417.148 284.438 430.349 280.849 444.113 279.054L444.22 279.876C450.857 279.01 457.625 278.563 464.499 278.563C471.372 278.563 478.14 279.01 484.777 279.876L484.884 279.054C498.648 280.849 511.849 284.438 524.244 289.578L523.926 290.343C536.547 295.577 548.328 302.428 559.012 310.638L559.517 309.98C570.329 318.289 580.022 327.982 588.331 338.795L587.674 339.3C595.883 349.983 602.734 361.765 607.968 374.385L608.734 374.068Z" stroke="#EBE3F3" stroke-width="1.65805" stroke-linejoin="round" stroke-dasharray="39.79 39.79"/>
<path d="M594.606 493.942C593.4 496.544 592.109 499.125 590.733 501.682L590.208 501.4C589.527 502.664 588.826 503.922 588.103 505.174C587.38 506.426 586.641 507.663 585.886 508.885L586.393 509.198C584.867 511.669 583.278 514.077 581.627 516.423L581.14 516.08C579.477 518.443 577.753 520.741 575.971 522.975L576.437 523.347C574.627 525.615 572.758 527.816 570.833 529.95L570.39 529.551C568.456 531.695 566.465 533.77 564.421 535.775L564.838 536.2C562.77 538.229 560.649 540.187 558.476 542.073L558.086 541.623C555.909 543.512 553.682 545.329 551.407 547.073L551.77 547.546C549.474 549.306 547.13 550.992 544.742 552.603L544.409 552.108C542.021 553.719 539.589 555.254 537.117 556.711L537.42 557.225C534.929 558.693 532.399 560.083 529.832 561.395L529.561 560.864C526.998 562.173 524.399 563.403 521.768 564.553L522.007 565.099C519.36 566.256 516.681 567.332 513.973 568.327L513.767 567.767C511.068 568.759 508.34 569.668 505.587 570.495L505.759 571.066C502.994 571.896 500.205 572.644 497.395 573.307L497.259 572.727C494.462 573.387 491.644 573.963 488.811 574.454L488.913 575.042C486.07 575.534 483.212 575.942 480.341 576.264L480.275 575.672C477.421 575.991 474.555 576.225 471.682 576.373L471.712 576.968C468.833 577.116 465.947 577.177 463.056 577.15L463.061 576.554C460.192 576.528 457.318 576.415 454.444 576.214L454.403 576.809C451.53 576.608 448.657 576.32 445.789 575.944L445.866 575.353C443.025 574.98 440.187 574.52 437.358 573.972L437.244 574.557C434.42 574.01 431.604 573.375 428.798 572.652L428.947 572.075C426.174 571.36 423.412 570.559 420.666 569.67L420.482 570.237C417.748 569.351 415.028 568.379 412.327 567.32L412.544 566.765C409.884 565.722 407.242 564.593 404.621 563.378L404.37 563.919C401.768 562.712 399.187 561.422 396.63 560.045L396.912 559.52C395.648 558.84 394.39 558.138 393.138 557.415C391.886 556.692 390.649 555.953 389.427 555.199L389.114 555.706C386.644 554.18 384.235 552.59 381.889 550.94L382.232 550.452C379.869 548.79 377.571 547.066 375.337 545.284L374.965 545.749C372.697 543.94 370.496 542.07 368.362 540.145L368.761 539.703C366.617 537.768 364.542 535.777 362.537 533.733L362.112 534.151C360.083 532.083 358.125 529.961 356.239 527.789L356.689 527.398C354.8 525.221 352.983 522.994 351.239 520.72L350.766 521.082C349.006 518.786 347.32 516.442 345.71 514.055L346.204 513.722C344.593 511.333 343.058 508.901 341.601 506.429L341.087 506.732C339.619 504.242 338.229 501.711 336.917 499.144L337.448 498.873C336.139 496.31 334.909 493.712 333.759 491.081L333.213 491.319C332.056 488.672 330.98 485.993 329.985 483.285L330.545 483.08C329.553 480.38 328.644 477.652 327.817 474.9L327.246 475.071C326.416 472.306 325.669 469.517 325.005 466.708L325.585 466.571C324.925 463.774 324.349 460.957 323.858 458.123L323.27 458.225C322.778 455.383 322.37 452.524 322.048 449.653L322.64 449.587C322.321 446.733 322.087 443.868 321.939 440.994L321.344 441.025C321.196 438.146 321.135 435.259 321.162 432.368L321.758 432.374C321.784 429.504 321.897 426.63 322.098 423.757L321.503 423.715C321.704 420.843 321.992 417.97 322.368 415.101L322.959 415.178C323.332 412.337 323.792 409.5 324.34 406.67L323.755 406.557C324.302 403.732 324.937 400.916 325.66 398.111L326.237 398.26C326.952 395.487 327.753 392.725 328.642 389.978L328.075 389.794C328.961 387.06 329.933 384.34 330.992 381.639L331.547 381.857C332.59 379.196 333.719 376.554 334.934 373.933L334.393 373.682C335.6 371.08 336.891 368.499 338.267 365.942L338.792 366.225C339.472 364.96 340.174 363.702 340.897 362.45C341.62 361.198 342.359 359.961 343.113 358.74L342.606 358.426C344.132 355.956 345.722 353.547 347.373 351.202L347.86 351.545C349.522 349.182 351.246 346.883 353.028 344.649L352.563 344.278C354.372 342.01 356.242 339.808 358.167 337.674L358.609 338.073C360.544 335.93 362.535 333.855 364.579 331.849L364.162 331.424C366.229 329.395 368.351 327.438 370.524 325.552L370.914 326.002C373.091 324.112 375.318 322.295 377.592 320.551L377.23 320.079C379.526 318.318 381.87 316.632 384.257 315.022L384.59 315.516C386.979 313.905 389.411 312.371 391.883 310.913L391.58 310.4C394.07 308.931 396.601 307.541 399.168 306.23L399.439 306.76C402.002 305.451 404.6 304.221 407.232 303.071L406.993 302.525C409.64 301.368 412.319 300.292 415.027 299.298L415.233 299.857C417.932 298.866 420.66 297.956 423.413 297.129L423.241 296.559C426.006 295.728 428.795 294.981 431.604 294.318L431.741 294.898C434.538 294.238 437.356 293.661 440.189 293.17L440.087 292.583C442.93 292.09 445.788 291.682 448.659 291.361L448.725 291.953C451.579 291.633 454.444 291.399 457.318 291.252L457.288 290.657C460.166 290.509 463.053 290.448 465.944 290.474L465.938 291.07C468.808 291.096 471.682 291.209 474.555 291.41L474.597 290.816C477.47 291.016 480.342 291.304 483.211 291.681L483.134 292.272C485.975 292.645 488.812 293.105 491.642 293.653L491.756 293.068C494.58 293.615 497.396 294.249 500.201 294.972L500.053 295.549C502.826 296.264 505.587 297.066 508.334 297.955L508.518 297.388C511.252 298.273 513.972 299.245 516.673 300.304L516.455 300.859C519.116 301.903 521.758 303.031 524.379 304.246L524.63 303.706C527.232 304.912 529.813 306.203 532.37 307.579L532.087 308.104C533.352 308.785 534.61 309.487 535.862 310.209C537.114 310.932 538.351 311.671 539.573 312.426L539.886 311.919C542.356 313.445 544.765 315.035 547.11 316.685L546.767 317.172C549.13 318.835 551.429 320.559 553.663 322.341L554.034 321.875C556.303 323.685 558.504 325.554 560.638 327.479L560.239 327.922C562.382 329.856 564.457 331.847 566.463 333.891L566.888 333.474C568.917 335.542 570.874 337.664 572.76 339.836L572.31 340.227C574.2 342.403 576.017 344.63 577.761 346.905L578.234 346.542C579.994 348.838 581.68 351.182 583.29 353.57L582.796 353.903C584.407 356.291 585.941 358.723 587.399 361.195L587.912 360.893C589.381 363.383 590.771 365.913 592.083 368.48L591.552 368.752C592.861 371.314 594.091 373.913 595.241 376.544L595.787 376.305C596.944 378.952 598.02 381.632 599.014 384.34L598.455 384.545C599.446 387.244 600.356 389.973 601.183 392.725L601.753 392.553C602.584 395.318 603.331 398.107 603.994 400.917L603.414 401.054C604.074 403.851 604.651 406.668 605.142 409.501L605.729 409.4C606.222 412.242 606.63 415.1 606.951 417.971L606.359 418.037C606.679 420.891 606.913 423.757 607.061 426.63L607.656 426.6C607.803 429.479 607.865 432.365 607.838 435.256L607.242 435.251C607.216 438.12 607.103 440.994 606.902 443.868L607.497 443.909C607.296 446.782 607.008 449.655 606.631 452.524L606.04 452.446C605.668 455.287 605.208 458.125 604.659 460.955L605.244 461.068C604.697 463.892 604.063 466.709 603.34 469.514L602.763 469.365C602.048 472.138 601.247 474.9 600.357 477.647L600.924 477.83C600.039 480.564 599.067 483.284 598.008 485.985L597.453 485.768C596.409 488.428 595.281 491.07 594.066 493.692L594.606 493.942Z" stroke="#A136FF" stroke-width="1.19179" stroke-linejoin="round" stroke-dasharray="8.34 8.34"/>
<circle cx="464.5" cy="434.963" r="166.908" stroke="#8405FF" stroke-width="2" stroke-dasharray="7 7"/>
<g filter="url(#filter0_f_67_1589)">
<rect width="150.759" height="185.898" transform="matrix(-1 0 0 1 351.104 222.23)" fill="url(#paint0_linear_67_1589)"/>
</g>
<g filter="url(#filter1_f_67_1589)">
<rect width="181.298" height="312.101" transform="matrix(-1 0 0 1 676.867 200.804)" fill="url(#paint1_linear_67_1589)"/>
</g>
<g filter="url(#filter2_f_67_1589)">
<rect width="65.6832" height="103.523" transform="matrix(-1 0 0 1 425.5 409.382)" fill="url(#paint2_linear_67_1589)"/>
</g>
<circle cx="464.499" cy="434.266" r="65.9278" stroke="white" stroke-width="0.85031" stroke-dasharray="1.7 1.7"/>
<path d="M538.285 441.642C537.86 446.432 536.967 451.234 535.581 455.988L535.298 455.904C534.625 458.211 533.836 460.506 532.928 462.782C532.019 465.059 531.011 467.266 529.911 469.399L530.173 469.536C527.907 473.932 525.251 478.019 522.268 481.77L522.037 481.585C518.994 485.412 515.607 488.888 511.943 491.986L512.133 492.213C508.405 495.364 504.392 498.125 500.16 500.466L500.017 500.207C495.781 502.551 491.325 504.473 486.719 505.944L486.809 506.226C482.196 507.698 477.433 508.72 472.587 509.261L472.554 508.967C467.781 509.5 462.929 509.565 458.062 509.134L458.038 509.428C453.261 509.005 448.471 508.105 443.73 506.702L443.812 506.418C441.511 505.737 439.221 504.937 436.95 504.015C434.679 503.093 432.478 502.07 430.351 500.953L430.216 501.215C425.833 498.914 421.761 496.215 418.025 493.183L418.21 492.953C414.405 489.864 410.95 486.426 407.875 482.707L407.649 482.895C404.527 479.119 401.794 475.054 399.479 470.769L399.738 470.628C397.427 466.349 395.534 461.85 394.09 457.2L393.809 457.287C392.366 452.641 391.368 447.846 390.845 442.969L391.138 442.938C390.624 438.144 390.57 433.271 391.004 428.385L390.711 428.357C391.137 423.567 392.03 418.764 393.416 414.011L393.698 414.095C394.371 411.788 395.16 409.493 396.069 407.216C396.978 404.94 397.985 402.733 399.085 400.6L398.823 400.463C401.09 396.067 403.745 391.98 406.729 388.228L406.959 388.414C410.003 384.587 413.389 381.11 417.054 378.013L416.863 377.786C420.591 374.635 424.605 371.874 428.837 369.532L428.98 369.791C433.216 367.448 437.671 365.526 442.277 364.055L442.187 363.773C446.8 362.301 451.564 361.279 456.409 360.738L456.443 361.032C461.215 360.499 466.068 360.434 470.934 360.865L470.959 360.57C475.736 360.994 480.526 361.894 485.267 363.297L485.185 363.581C487.486 364.261 489.775 365.061 492.046 365.984C494.318 366.906 496.518 367.929 498.645 369.046L498.781 368.784C503.164 371.085 507.236 373.783 510.971 376.816L510.787 377.046C514.592 380.135 518.046 383.572 521.121 387.292L521.348 387.104C524.47 390.88 527.203 394.945 529.517 399.23L529.259 399.37C531.57 403.649 533.462 408.149 534.907 412.799L535.188 412.712C536.631 417.358 537.628 422.153 538.151 427.03L537.858 427.061C538.372 431.855 538.426 436.728 537.992 441.614L538.285 441.642Z" stroke="url(#paint3_linear_67_1589)" stroke-width="0.590199" stroke-linejoin="round" stroke-dasharray="14.16 14.16"/>
<g filter="url(#filter3_d_67_1589)">
<path d="M487.517 487.289C482.98 489.194 478.147 490.525 473.106 491.191L473.068 490.898C470.636 491.22 468.156 491.385 465.637 491.385C463.118 491.385 460.637 491.22 458.205 490.898L458.167 491.191C453.126 490.525 448.293 489.194 443.756 487.289L443.87 487.016C439.258 485.079 434.954 482.545 431.053 479.508L430.872 479.741C426.933 476.675 423.403 473.101 420.379 469.115L420.614 468.937C417.632 465.007 415.145 460.675 413.245 456.036L412.972 456.148C411.11 451.6 409.811 446.759 409.161 441.711L409.453 441.674C409.14 439.241 408.978 436.76 408.978 434.24C408.978 431.721 409.14 429.24 409.453 426.807L409.161 426.769C409.811 421.722 411.11 416.88 412.972 412.332L413.245 412.444C415.145 407.805 417.632 403.474 420.614 399.544L420.379 399.365C423.403 395.38 426.933 391.805 430.872 388.74L431.053 388.972C434.954 385.936 439.258 383.402 443.87 381.464L443.756 381.192C448.293 379.287 453.126 377.956 458.167 377.29L458.205 377.582C460.637 377.261 463.118 377.095 465.637 377.095C468.156 377.095 470.636 377.261 473.068 377.582L473.106 377.29C478.147 377.956 482.98 379.287 487.517 381.192L487.403 381.464C492.015 383.402 496.319 385.936 500.22 388.972L500.402 388.74C504.341 391.805 507.87 395.38 510.894 399.365L510.659 399.544C513.641 403.474 516.128 407.805 518.028 412.444L518.301 412.332C520.163 416.88 521.462 421.722 522.112 426.769L521.82 426.807C522.133 429.24 522.295 431.721 522.295 434.24C522.295 436.76 522.133 439.241 521.82 441.674L522.112 441.711C521.462 446.759 520.163 451.6 518.301 456.148L518.028 456.036C516.128 460.675 513.641 465.007 510.659 468.937L510.894 469.115C507.87 473.101 504.341 476.675 500.402 479.741L500.22 479.508C496.319 482.545 492.015 485.079 487.403 487.016L487.517 487.289Z" stroke="#FD3C97" stroke-width="0.590199" stroke-linejoin="round" stroke-dasharray="14.16 14.16" shape-rendering="crispEdges"/>
</g>
<rect x="424.092" y="393.557" width="81.3652" height="81.3652" rx="10.1707" fill="white" fill-opacity="0.1"/>
<rect x="424.727" y="394.192" width="80.0939" height="80.0939" rx="9.53499" stroke="#B8B6D9" stroke-opacity="0.2" stroke-width="1.27133"/>
<path d="M464.775 414.802C462.223 414.802 459.695 415.305 457.337 416.282C454.979 417.259 452.836 418.69 451.031 420.495C447.386 424.141 445.338 429.084 445.338 434.24C445.338 442.831 450.916 450.12 458.633 452.705C459.605 452.861 459.916 452.258 459.916 451.733C459.916 451.286 459.916 450.062 459.916 448.448C454.532 449.615 453.385 445.844 453.385 445.844C452.491 443.589 451.227 442.986 451.227 442.986C449.459 441.781 451.363 441.82 451.363 441.82C453.307 441.956 454.337 443.822 454.337 443.822C456.028 446.777 458.886 445.902 459.994 445.436C460.169 444.172 460.674 443.317 461.218 442.831C456.903 442.345 452.374 440.673 452.374 433.268C452.374 431.11 453.113 429.38 454.376 428C454.182 427.514 453.502 425.493 454.571 422.869C454.571 422.869 456.203 422.344 459.916 424.851C461.451 424.424 463.123 424.21 464.775 424.21C466.427 424.21 468.099 424.424 469.635 424.851C473.347 422.344 474.98 422.869 474.98 422.869C476.049 425.493 475.369 427.514 475.174 428C476.438 429.38 477.176 431.11 477.176 433.268C477.176 440.693 472.628 442.326 468.293 442.811C468.993 443.414 469.635 444.6 469.635 446.407C469.635 449.012 469.635 451.111 469.635 451.733C469.635 452.258 469.946 452.88 470.937 452.705C478.654 450.1 484.213 442.831 484.213 434.24C484.213 431.687 483.71 429.159 482.733 426.801C481.756 424.443 480.324 422.3 478.52 420.495C476.715 418.69 474.572 417.259 472.214 416.282C469.855 415.305 467.328 414.802 464.775 414.802Z" fill="white"/>
<path d="M514.37 458.682V483.551H550.652C533.446 513.27 501.279 533.29 464.498 533.29C418.118 533.29 379.093 501.457 367.996 458.682H342.312C353.908 515.384 404.154 558.159 464.498 558.159C505.269 558.159 541.55 538.512 564.242 508.296V533.29H589.178V458.682H514.37Z" fill="#8405FF"/>
<path d="M414.626 408.943V384.074H378.344C395.55 354.355 427.717 334.335 464.498 334.335C510.879 334.335 549.903 366.168 561 408.943H586.684C575.089 352.241 524.843 309.466 464.498 309.466C423.728 309.466 387.446 329.113 364.754 359.329V334.335H339.818V408.943H414.626Z" fill="#A136FF"/>
<defs>
<filter id="filter0_f_67_1589" x="0.34375" y="22.2305" width="550.76" height="585.898" filterUnits="userSpaceOnUse" color-interpolation-filters="sRGB">
<feFlood flood-opacity="0" result="BackgroundImageFix"/>
<feBlend mode="normal" in="SourceGraphic" in2="BackgroundImageFix" result="shape"/>
<feGaussianBlur stdDeviation="100" result="effect1_foregroundBlur_67_1589"/>
</filter>
<filter id="filter1_f_67_1589" x="295.568" y="0.803711" width="581.299" height="712.102" filterUnits="userSpaceOnUse" color-interpolation-filters="sRGB">
<feFlood flood-opacity="0" result="BackgroundImageFix"/>
<feBlend mode="normal" in="SourceGraphic" in2="BackgroundImageFix" result="shape"/>
<feGaussianBlur stdDeviation="100" result="effect1_foregroundBlur_67_1589"/>
</filter>
<filter id="filter2_f_67_1589" x="279.816" y="329.382" width="225.684" height="263.523" filterUnits="userSpaceOnUse" color-interpolation-filters="sRGB">
<feFlood flood-opacity="0" result="BackgroundImageFix"/>
<feBlend mode="normal" in="SourceGraphic" in2="BackgroundImageFix" result="shape"/>
<feGaussianBlur stdDeviation="40" result="effect1_foregroundBlur_67_1589"/>
</filter>
<filter id="filter3_d_67_1589" x="406.913" y="376.8" width="117.447" height="118.421" filterUnits="userSpaceOnUse" color-interpolation-filters="sRGB">
<feFlood flood-opacity="0" result="BackgroundImageFix"/>
<feColorMatrix in="SourceAlpha" type="matrix" values="0 0 0 0 0 0 0 0 0 0 0 0 0 0 0 0 0 0 127 0" result="hardAlpha"/>
<feOffset dy="1.7706"/>
<feGaussianBlur stdDeviation="0.885298"/>
<feComposite in2="hardAlpha" operator="out"/>
<feColorMatrix type="matrix" values="0 0 0 0 0.432266 0 0 0 0 0.00354165 0 0 0 0 0.846458 0 0 0 1 0"/>
<feBlend mode="screen" in2="BackgroundImageFix" result="effect1_dropShadow_67_1589"/>
<feBlend mode="normal" in="SourceGraphic" in2="effect1_dropShadow_67_1589" result="shape"/>
</filter>
<linearGradient id="paint0_linear_67_1589" x1="75.3797" y1="0" x2="75.3797" y2="185.898" gradientUnits="userSpaceOnUse">
<stop stop-color="#6218FF" stop-opacity="0"/>
<stop offset="1" stop-color="#6117FF"/>
</linearGradient>
<linearGradient id="paint1_linear_67_1589" x1="90.6492" y1="0" x2="90.6492" y2="312.101" gradientUnits="userSpaceOnUse">
<stop stop-color="#6218FF" stop-opacity="0"/>
<stop offset="1" stop-color="#6117FF"/>
</linearGradient>
<linearGradient id="paint2_linear_67_1589" x1="32.8416" y1="0" x2="32.8416" y2="103.523" gradientUnits="userSpaceOnUse">
<stop stop-color="#6218FF" stop-opacity="0"/>
<stop offset="1" stop-color="#6117FF"/>
</linearGradient>
<linearGradient id="paint3_linear_67_1589" x1="433.886" y1="371.947" x2="503.298" y2="533.151" gradientUnits="userSpaceOnUse">
<stop offset="0.015625" stop-color="#B010FB"/>
<stop offset="0.130208" stop-color="#DE97FF"/>
<stop offset="0.234375" stop-color="#A227DB"/>
<stop offset="0.505208" stop-color="#A227DB" stop-opacity="0"/>
<stop offset="0.765625" stop-color="#A610EC" stop-opacity="0.84"/>
</linearGradient>
</defs>
</svg>
