<svg width="877" height="713" viewBox="0 0 877 713" fill="none" xmlns="http://www.w3.org/2000/svg">
<g filter="url(#filter0_f_68_1605)">
<rect width="150.759" height="185.898" transform="matrix(-1 0 0 1 351.104 222.23)" fill="url(#paint0_linear_68_1605)"/>
</g>
<rect x="271.23" y="290.87" width="94.1855" height="94.1855" rx="11.7732" fill="white" fill-opacity="0.1"/>
<rect x="271.966" y="291.606" width="92.7139" height="92.7139" rx="11.0374" stroke="#B8B6D9" stroke-opacity="0.2" stroke-width="1.47165"/>
<path d="M308.075 346.142L297.85 339.519V336.817L308.075 330.195V333.718L301.055 338.115V338.221L308.075 342.619V346.142ZM312.621 351.201L321.336 328.155H324.594L315.879 351.201H312.621ZM329.14 346.142V342.619L336.16 338.221V338.115L329.14 333.718V330.195L339.365 336.817V339.519L329.14 346.142Z" fill="white"/>
<g filter="url(#filter1_f_68_1605)">
<rect width="181.298" height="312.101" transform="matrix(-1 0 0 1 676.867 200.804)" fill="url(#paint1_linear_68_1605)"/>
</g>
<rect x="563.684" y="290.87" width="94.1855" height="94.1855" rx="11.7732" fill="white" fill-opacity="0.1"/>
<rect x="564.419" y="291.606" width="92.7139" height="92.7139" rx="11.0374" stroke="#B8B6D9" stroke-opacity="0.2" stroke-width="1.47165"/>
<path d="M610.777 315.463C607.823 315.463 604.897 316.045 602.167 317.176C599.437 318.306 596.957 319.964 594.867 322.053C590.648 326.273 588.277 331.996 588.277 337.963C588.277 347.908 594.735 356.345 603.667 359.338C604.792 359.518 605.152 358.82 605.152 358.213C605.152 357.695 605.152 356.278 605.152 354.41C598.92 355.76 597.592 351.395 597.592 351.395C596.557 348.785 595.095 348.088 595.095 348.088C593.047 346.693 595.252 346.738 595.252 346.738C597.502 346.895 598.695 349.055 598.695 349.055C600.652 352.475 603.96 351.463 605.242 350.923C605.445 349.46 606.03 348.47 606.66 347.908C601.665 347.345 596.422 345.41 596.422 336.838C596.422 334.34 597.277 332.338 598.74 330.74C598.515 330.178 597.727 327.838 598.965 324.8C598.965 324.8 600.855 324.193 605.152 327.095C606.93 326.6 608.865 326.353 610.777 326.353C612.69 326.353 614.625 326.6 616.402 327.095C620.7 324.193 622.59 324.8 622.59 324.8C623.827 327.838 623.04 330.178 622.815 330.74C624.277 332.338 625.132 334.34 625.132 336.838C625.132 345.433 619.867 347.323 614.85 347.885C615.66 348.583 616.402 349.955 616.402 352.048C616.402 355.063 616.402 357.493 616.402 358.213C616.402 358.82 616.762 359.54 617.91 359.338C626.842 356.323 633.277 347.908 633.277 337.963C633.277 335.008 632.695 332.082 631.565 329.353C630.434 326.623 628.777 324.142 626.687 322.053C624.598 319.964 622.118 318.306 619.388 317.176C616.658 316.045 613.732 315.463 610.777 315.463Z" fill="white"/>
<g filter="url(#filter2_f_68_1605)">
<rect width="65.6832" height="103.523" transform="matrix(-1 0 0 1 425.5 409.382)" fill="url(#paint2_linear_68_1605)"/>
</g>
<g filter="url(#filter3_d_68_1605)">
<path d="M461.493 495.411C463.154 493.739 465.846 493.739 467.507 495.411L474.333 502.285C475.993 503.957 475.993 506.668 474.333 508.34L467.507 515.213C465.846 516.885 463.154 516.885 461.493 515.213L454.667 508.34C453.007 506.668 453.007 503.957 454.667 502.285L461.493 495.411Z" fill="#A950FF"/>
<path d="M492.932 495.357C494.563 493.714 497.207 493.714 498.838 495.357L505.772 502.338C507.403 503.98 507.403 506.643 505.772 508.285L498.838 515.267C497.207 516.909 494.563 516.909 492.932 515.267L485.999 508.285C484.368 506.643 484.368 503.98 485.999 502.338L492.932 495.357Z" fill="#A950FF"/>
<path d="M461.547 463.754C463.178 462.112 465.822 462.112 467.453 463.754L474.386 470.736C476.017 472.378 476.017 475.04 474.386 476.683L467.453 483.664C465.822 485.307 463.178 485.307 461.547 483.664L454.613 476.683C452.983 475.04 452.983 472.378 454.613 470.736L461.547 463.754Z" fill="#E9C1FF"/>
<path d="M458.641 486.483C460.302 488.155 460.302 490.866 458.641 492.539L451.816 499.412C450.155 501.084 447.463 501.084 445.802 499.412L438.976 492.539C437.316 490.866 437.316 488.155 438.976 486.483L445.802 479.61C447.463 477.938 450.155 477.938 451.816 479.61L458.641 486.483Z" fill="#CD88FF"/>
<path d="M443.002 502.338C444.633 503.98 444.633 506.643 443.002 508.285L436.068 515.267C434.438 516.909 431.793 516.909 430.163 515.267L423.229 508.285C421.598 506.643 421.598 503.98 423.229 502.338L430.163 495.357C431.793 493.714 434.438 493.714 436.068 495.357L443.002 502.338Z" fill="#A950FF"/>
<path d="M490.026 486.483C491.686 488.155 491.686 490.866 490.026 492.539L483.2 499.412C481.539 501.084 478.847 501.084 477.186 499.412L470.36 492.539C468.7 490.866 468.7 488.155 470.36 486.483L477.186 479.61C478.847 477.938 481.539 477.938 483.2 479.61L490.026 486.483Z" fill="#CD88FF"/>
<path d="M471.218 531.624C474.928 535.36 474.928 541.416 471.218 545.152C467.508 548.888 461.493 548.888 457.783 545.152C454.073 541.416 454.073 535.36 457.783 531.624C461.493 527.888 467.508 527.888 471.218 531.624Z" fill="#F62E76"/>
</g>
<circle cx="464.499" cy="504.579" r="65.9278" stroke="white" stroke-width="0.85031" stroke-dasharray="1.7 1.7"/>
<path d="M538.285 511.955C537.86 516.745 536.967 521.547 535.581 526.301L535.298 526.217C534.625 528.524 533.836 530.819 532.928 533.095C532.019 535.372 531.011 537.579 529.911 539.712L530.173 539.849C527.907 544.245 525.251 548.332 522.268 552.083L522.037 551.898C518.994 555.725 515.607 559.201 511.943 562.299L512.133 562.526C508.405 565.677 504.392 568.438 500.16 570.779L500.017 570.52C495.781 572.864 491.325 574.786 486.719 576.257L486.809 576.539C482.196 578.011 477.433 579.033 472.587 579.574L472.554 579.28C467.781 579.813 462.929 579.878 458.062 579.447L458.038 579.741C453.261 579.318 448.471 578.418 443.73 577.015L443.812 576.731C441.511 576.05 439.221 575.25 436.95 574.328C434.679 573.406 432.478 572.383 430.351 571.266L430.216 571.528C425.833 569.227 421.761 566.528 418.025 563.496L418.21 563.266C414.405 560.177 410.95 556.739 407.875 553.02L407.649 553.208C404.527 549.432 401.794 545.367 399.479 541.082L399.738 540.941C397.427 536.662 395.534 532.163 394.09 527.513L393.809 527.6C392.366 522.954 391.368 518.159 390.845 513.282L391.138 513.251C390.624 508.457 390.57 503.584 391.004 498.698L390.711 498.67C391.137 493.88 392.03 489.077 393.416 484.324L393.698 484.408C394.371 482.101 395.16 479.806 396.069 477.529C396.978 475.253 397.985 473.046 399.085 470.913L398.823 470.776C401.09 466.38 403.745 462.293 406.729 458.541L406.959 458.727C410.003 454.9 413.389 451.423 417.054 448.326L416.863 448.099C420.591 444.948 424.605 442.187 428.837 439.845L428.98 440.104C433.216 437.761 437.671 435.839 442.277 434.368L442.187 434.086C446.8 432.614 451.564 431.592 456.409 431.051L456.443 431.345C461.215 430.812 466.068 430.747 470.934 431.178L470.959 430.883C475.736 431.307 480.526 432.207 485.267 433.61L485.185 433.893C487.486 434.574 489.775 435.374 492.046 436.297C494.318 437.219 496.518 438.242 498.645 439.359L498.781 439.097C503.164 441.398 507.236 444.096 510.971 447.129L510.787 447.359C514.592 450.448 518.046 453.885 521.121 457.605L521.348 457.417C524.47 461.193 527.203 465.258 529.517 469.543L529.259 469.683C531.57 473.962 533.462 478.462 534.907 483.112L535.188 483.025C536.631 487.671 537.628 492.466 538.151 497.343L537.858 497.374C538.372 502.168 538.426 507.041 537.992 511.927L538.285 511.955Z" stroke="url(#paint3_linear_68_1605)" stroke-width="0.590199" stroke-linejoin="round" stroke-dasharray="14.16 14.16"/>
<g filter="url(#filter4_d_68_1605)">
<path d="M487.517 557.602C482.98 559.507 478.147 560.838 473.106 561.504L473.068 561.211C470.636 561.533 468.156 561.698 465.637 561.698C463.118 561.698 460.637 561.533 458.205 561.211L458.167 561.504C453.126 560.838 448.293 559.507 443.756 557.602L443.87 557.329C439.258 555.392 434.954 552.858 431.053 549.821L430.872 550.054C426.933 546.988 423.403 543.414 420.379 539.428L420.614 539.25C417.632 535.32 415.145 530.988 413.245 526.349L412.972 526.461C411.11 521.913 409.811 517.072 409.161 512.024L409.453 511.987C409.14 509.554 408.978 507.073 408.978 504.553C408.978 502.034 409.14 499.553 409.453 497.12L409.161 497.082C409.811 492.035 411.11 487.193 412.972 482.645L413.245 482.757C415.145 478.118 417.632 473.787 420.614 469.857L420.379 469.678C423.403 465.693 426.933 462.118 430.872 459.052L431.053 459.285C434.954 456.249 439.258 453.715 443.87 451.777L443.756 451.505C448.293 449.6 453.126 448.269 458.167 447.603L458.205 447.895C460.637 447.574 463.118 447.408 465.637 447.408C468.156 447.408 470.636 447.574 473.068 447.895L473.106 447.603C478.147 448.269 482.98 449.6 487.517 451.505L487.403 451.777C492.015 453.715 496.319 456.249 500.22 459.285L500.402 459.053C504.341 462.118 507.87 465.693 510.894 469.678L510.659 469.857C513.641 473.787 516.128 478.118 518.028 482.757L518.301 482.645C520.163 487.193 521.462 492.035 522.112 497.082L521.82 497.12C522.133 499.553 522.295 502.034 522.295 504.553C522.295 507.073 522.133 509.554 521.82 511.987L522.112 512.024C521.462 517.072 520.163 521.913 518.301 526.461L518.028 526.349C516.128 530.988 513.641 535.32 510.659 539.25L510.894 539.428C507.87 543.414 504.341 546.988 500.402 550.054L500.22 549.821C496.319 552.858 492.015 555.392 487.403 557.329L487.517 557.602Z" stroke="#5F00E8" stroke-width="0.590199" stroke-linejoin="round" stroke-dasharray="14.16 14.16" shape-rendering="crispEdges"/>
</g>
<path d="M530.498 504.199C530.303 504.394 530.303 504.711 530.498 504.906L533.68 508.088C533.875 508.284 534.192 508.284 534.387 508.088C534.582 507.893 534.582 507.576 534.387 507.381L531.559 504.553L534.387 501.724C534.582 501.529 534.582 501.212 534.387 501.017C534.192 500.822 533.875 500.822 533.68 501.017L530.498 504.199ZM530.852 505.053L610.935 505.053L610.935 504.053L530.852 504.053L530.852 505.053Z" fill="#FD3C97"/>
<path d="M529.656 492.978C531.129 492.978 532.323 491.784 532.323 490.311C532.323 488.839 531.129 487.645 529.656 487.645C528.183 487.645 526.99 488.839 526.99 490.311C526.99 491.784 528.183 492.978 529.656 492.978ZM597.186 489.812L596.193 489.812L596.193 490.812L597.186 490.812L597.186 489.812ZM594.207 489.812L592.221 489.812L592.221 490.812L594.207 490.812L594.207 489.812ZM590.235 489.812L588.248 489.812L588.248 490.812L590.235 490.812L590.235 489.812ZM586.262 489.812L584.276 489.812L584.276 490.812L586.262 490.812L586.262 489.812ZM582.29 489.812L580.304 489.812L580.304 490.812L582.29 490.812L582.29 489.812ZM578.318 489.812L576.331 489.812L576.331 490.812L578.318 490.812L578.318 489.812ZM574.345 489.812L572.359 489.812L572.359 490.812L574.345 490.812L574.345 489.812ZM570.373 489.812L568.387 489.812L568.387 490.812L570.373 490.812L570.373 489.812ZM566.4 489.812L564.414 489.812L564.414 490.812L566.4 490.812L566.4 489.812ZM562.428 489.812L560.442 489.812L560.442 490.812L562.428 490.812L562.428 489.812ZM558.456 489.811L556.47 489.811L556.47 490.811L558.456 490.811L558.456 489.811ZM554.483 489.811L552.497 489.811L552.497 490.811L554.483 490.811L554.483 489.811ZM550.511 489.811L548.525 489.811L548.525 490.811L550.511 490.811L550.511 489.811ZM546.539 489.811L544.553 489.811L544.553 490.811L546.539 490.811L546.539 489.811ZM542.566 489.811L540.58 489.811L540.58 490.811L542.566 490.811L542.566 489.811ZM538.594 489.811L536.608 489.811L536.608 490.811L538.594 490.811L538.594 489.811ZM534.622 489.811L532.635 489.811L532.635 490.811L534.622 490.811L534.622 489.811ZM530.649 489.811L529.656 489.811L529.656 490.811L530.649 490.811L530.649 489.811Z" fill="#9F9DFF"/>
<path d="M398.58 506.814C397.107 506.814 395.913 505.62 395.913 504.147C395.913 502.675 397.107 501.481 398.58 501.481C400.053 501.481 401.247 502.675 401.247 504.147C401.247 505.62 400.053 506.814 398.58 506.814ZM316.017 503.647L317 503.647L317 504.647L316.017 504.647L316.017 503.647ZM318.966 503.647L320.932 503.647L320.932 504.647L318.966 504.647L318.966 503.647ZM322.898 503.647L324.863 503.647L324.863 504.647L322.898 504.647L322.898 503.647ZM326.829 503.647L328.795 503.647L328.795 504.647L326.829 504.647L326.829 503.647ZM330.761 503.647L332.727 503.647L332.727 504.647L330.761 504.647L330.761 503.647ZM334.692 503.647L336.658 503.647L336.658 504.647L334.692 504.647L334.692 503.647ZM338.624 503.647L340.59 503.647L340.59 504.647L338.624 504.647L338.624 503.647ZM342.555 503.647L344.521 503.647L344.521 504.647L342.555 504.647L342.555 503.647ZM346.487 503.647L348.453 503.647L348.453 504.647L346.487 504.647L346.487 503.647ZM350.419 503.647L352.384 503.647L352.384 504.647L350.419 504.647L350.419 503.647ZM354.35 503.647L356.316 503.647L356.316 504.647L354.35 504.647L354.35 503.647ZM358.282 503.647L360.247 503.647L360.247 504.647L358.282 504.647L358.282 503.647ZM362.213 503.647L364.179 503.647L364.179 504.647L362.213 504.647L362.213 503.647ZM366.145 503.647L368.111 503.647L368.111 504.647L366.145 504.647L366.145 503.647ZM370.076 503.647L372.042 503.647L372.042 504.647L370.076 504.647L370.076 503.647ZM374.008 503.647L375.974 503.647L375.974 504.647L374.008 504.647L374.008 503.647ZM377.939 503.647L379.905 503.647L379.905 504.647L377.939 504.647L377.939 503.647ZM381.871 503.647L383.837 503.647L383.837 504.647L381.871 504.647L381.871 503.647ZM385.803 503.647L387.768 503.647L387.768 504.647L385.803 504.647L385.803 503.647ZM389.734 503.647L391.7 503.647L391.7 504.647L389.734 504.647L389.734 503.647ZM393.666 503.647L395.631 503.647L395.631 504.647L393.666 504.647L393.666 503.647ZM397.597 503.647L398.58 503.647L398.58 504.647L397.597 504.647L397.597 503.647Z" fill="#9F9DFF"/>
<path d="M608.109 385.056C608.109 386.528 609.303 387.722 610.775 387.722C612.248 387.722 613.442 386.528 613.442 385.056C613.442 383.583 612.248 382.389 610.775 382.389C609.303 382.389 608.109 383.583 608.109 385.056ZM610.275 385.056L610.275 504.959L611.275 504.959L611.275 385.056L610.275 385.056Z" fill="#FD3C97"/>
<path d="M597.379 385.197C597.184 385.002 596.867 385.002 596.672 385.197L593.49 388.379C593.295 388.574 593.295 388.891 593.49 389.086C593.685 389.281 594.002 389.281 594.197 389.086L597.025 386.258L599.854 389.086C600.049 389.281 600.366 389.281 600.561 389.086C600.756 388.891 600.756 388.574 600.561 388.379L597.379 385.197ZM596.525 385.551V386.562H597.525V385.551H596.525ZM596.525 388.584V390.607H597.525V388.584H596.525ZM596.525 392.629V394.652H597.525V392.629H596.525ZM596.525 396.674V398.696H597.525V396.674H596.525ZM596.525 400.719V402.741H597.525V400.719H596.525ZM596.525 404.764V406.786H597.525V404.764H596.525ZM596.525 408.809V410.831H597.525V408.809H596.525ZM596.525 412.853V414.876H597.525V412.853H596.525ZM596.525 416.898V418.921H597.525V416.898H596.525ZM596.525 420.943V422.966H597.525V420.943H596.525ZM596.525 424.988V427.01H597.525V424.988H596.525ZM596.525 429.033V431.055H597.525V429.033H596.525ZM596.525 433.078V435.1H597.525V433.078H596.525ZM596.525 437.123V439.145H597.525V437.123H596.525ZM596.525 441.168V443.19H597.525V441.168H596.525ZM596.525 445.212V447.235H597.525V445.212H596.525ZM596.525 449.257V451.28H597.525V449.257H596.525ZM596.525 453.302V455.325H597.525V453.302H596.525ZM596.525 457.347V459.369H597.525V457.347H596.525ZM596.525 461.392V463.414H597.525V461.392H596.525ZM596.525 465.437V467.459H597.525V465.437H596.525ZM596.525 469.482V471.504H597.525V469.482H596.525ZM596.525 473.526V475.549H597.525V473.526H596.525ZM596.525 477.571V479.594H597.525V477.571H596.525ZM596.525 481.616V483.639H597.525V481.616H596.525ZM596.525 485.661V487.683H597.525V485.661H596.525ZM596.525 489.706V490.717H597.525V489.706H596.525Z" fill="#9F9DFF"/>
<path d="M315.826 384.891C316.021 384.696 316.338 384.696 316.533 384.891L319.715 388.073C319.91 388.268 319.91 388.585 319.715 388.78C319.52 388.975 319.203 388.975 319.008 388.78L316.18 385.952L313.351 388.78C313.156 388.975 312.839 388.975 312.644 388.78C312.449 388.585 312.449 388.268 312.644 388.073L315.826 384.891ZM316.68 385.245V386.239H315.68V385.245H316.68ZM316.68 388.227V390.216H315.68V388.227H316.68ZM316.68 392.204V394.193H315.68V392.204H316.68ZM316.68 396.181V398.17H315.68V396.181H316.68ZM316.68 400.158V402.147H315.68V400.158H316.68ZM316.68 404.135V406.124H315.68V404.135H316.68ZM316.68 408.112V410.101H315.68V408.112H316.68ZM316.68 412.089V414.077H315.68V412.089H316.68ZM316.68 416.066V418.054H315.68V416.066H316.68ZM316.68 420.043V422.031H315.68V420.043H316.68ZM316.68 424.02V426.008H315.68V424.02H316.68ZM316.68 427.997V429.985H315.68V427.997H316.68ZM316.68 431.974V433.962H315.68V431.974H316.68ZM316.68 435.951V437.939H315.68V435.951H316.68ZM316.68 439.928V441.916H315.68V439.928H316.68ZM316.68 443.905V445.893H315.68V443.905H316.68ZM316.68 447.882V449.87H315.68V447.882H316.68ZM316.68 451.858V453.847H315.68V451.858H316.68ZM316.68 455.835V457.824H315.68V455.835H316.68ZM316.68 459.812V461.801H315.68V459.812H316.68ZM316.68 463.789V465.778H315.68V463.789H316.68ZM316.68 467.766V469.755H315.68V467.766H316.68ZM316.68 471.743V473.732H315.68V471.743H316.68ZM316.68 475.72V477.709H315.68V475.72H316.68ZM316.68 479.697V481.686H315.68V479.697H316.68ZM316.68 483.674V485.662H315.68V483.674H316.68ZM316.68 487.651V489.639H315.68V487.651H316.68ZM316.68 491.628V493.616H315.68V491.628H316.68ZM316.68 495.605V497.593H315.68V495.605H316.68ZM316.68 499.582V501.57H315.68V499.582H316.68ZM316.68 503.559V504.553H315.68V503.559H316.68Z" fill="#9F9DFF"/>
<circle cx="318.775" cy="438.226" r="14.1465" fill="#8405FF"/>
<path d="M315.658 436.657L314.568 437.747L312.977 436.156C312.428 438.213 312.961 440.501 314.574 442.114C316.607 444.147 319.713 444.463 322.075 443.074L323.201 444.2C320.207 446.177 316.129 445.85 313.483 443.204C311.696 441.417 310.967 438.965 311.296 436.645L310.201 437.741L309.107 436.648L312.378 433.377L315.658 436.657Z" fill="#DDB3FF"/>
<path d="M322.211 438.849L323.301 437.759L324.892 439.349C325.44 437.292 324.908 435.004 323.295 433.392C321.262 431.358 318.155 431.043 315.794 432.432L314.668 431.306C317.662 429.328 321.74 429.656 324.385 432.301C326.173 434.089 326.902 436.541 326.572 438.86L327.668 437.765L328.761 438.858L325.49 442.129L322.211 438.849Z" fill="white"/>
<path d="M562.889 325.861C563.084 326.057 563.084 326.373 562.889 326.568L559.707 329.75C559.511 329.946 559.195 329.946 559 329.75C558.804 329.555 558.804 329.238 559 329.043L561.828 326.215L559 323.386C558.804 323.191 558.804 322.875 559 322.679C559.195 322.484 559.511 322.484 559.707 322.679L562.889 325.861ZM364.852 328.882C363.38 328.882 362.186 327.688 362.186 326.215C362.186 324.742 363.38 323.548 364.852 323.548C366.325 323.548 367.519 324.742 367.519 326.215C367.519 327.688 366.325 328.882 364.852 328.882ZM562.535 326.715L364.852 326.715L364.852 325.715L562.535 325.715L562.535 326.715Z" fill="#FD3C97"/>
<path d="M564.297 344.518C562.824 344.518 561.63 343.324 561.63 341.852C561.63 340.379 562.824 339.185 564.297 339.185C565.77 339.185 566.964 340.379 566.964 341.852C566.964 343.324 565.77 344.518 564.297 344.518ZM364.501 342.205C364.306 342.01 364.306 341.693 364.501 341.498L367.683 338.316C367.878 338.121 368.195 338.121 368.39 338.316C368.585 338.511 368.585 338.828 368.39 339.023L365.562 341.852L368.39 344.68C368.585 344.875 368.585 345.192 368.39 345.387C368.195 345.582 367.878 345.582 367.683 345.387L364.501 342.205ZM364.855 341.352L365.852 341.352L365.852 342.352L364.855 342.352L364.855 341.352ZM367.846 341.352L369.841 341.352L369.841 342.352L367.846 342.352L367.846 341.352ZM371.835 341.352L373.829 341.352L373.829 342.352L371.835 342.352L371.835 341.352ZM375.824 341.352L377.818 341.352L377.818 342.352L375.824 342.352L375.824 341.352ZM379.813 341.352L381.807 341.352L381.807 342.352L379.813 342.352L379.813 341.352ZM383.802 341.352L385.796 341.352L385.796 342.352L383.802 342.352L383.802 341.352ZM387.79 341.352L389.785 341.352L389.785 342.352L387.79 342.352L387.79 341.352ZM391.779 341.352L393.774 341.352L393.774 342.352L391.779 342.352L391.779 341.352ZM395.768 341.352L397.763 341.352L397.763 342.352L395.768 342.352L395.768 341.352ZM399.757 341.352L401.751 341.352L401.751 342.352L399.757 342.352L399.757 341.352ZM403.746 341.352L405.74 341.352L405.74 342.352L403.746 342.352L403.746 341.352ZM407.735 341.352L409.729 341.352L409.729 342.352L407.735 342.352L407.735 341.352ZM411.723 341.352L413.718 341.352L413.718 342.352L411.723 342.352L411.723 341.352ZM415.712 341.352L417.707 341.352L417.707 342.352L415.712 342.352L415.712 341.352ZM419.701 341.352L421.696 341.352L421.696 342.352L419.701 342.352L419.701 341.352ZM423.69 341.352L425.684 341.352L425.684 342.352L423.69 342.352L423.69 341.352ZM427.679 341.352L429.673 341.352L429.673 342.352L427.679 342.352L427.679 341.352ZM431.668 341.352L433.662 341.352L433.662 342.352L431.668 342.352L431.668 341.352ZM435.657 341.352L437.651 341.352L437.651 342.352L435.657 342.352L435.657 341.352ZM439.645 341.352L441.64 341.352L441.64 342.352L439.645 342.352L439.645 341.352ZM443.634 341.352L445.629 341.352L445.629 342.352L443.634 342.352L443.634 341.352ZM447.623 341.352L449.618 341.352L449.618 342.352L447.623 342.352L447.623 341.352ZM451.612 341.352L453.606 341.352L453.606 342.352L451.612 342.352L451.612 341.352ZM455.601 341.352L457.595 341.352L457.595 342.352L455.601 342.352L455.601 341.352ZM459.59 341.352L461.584 341.352L461.584 342.352L459.59 342.352L459.59 341.352ZM463.578 341.352L465.573 341.352L465.573 342.352L463.578 342.352L463.578 341.352ZM467.567 341.352L469.562 341.352L469.562 342.352L467.567 342.352L467.567 341.352ZM471.556 341.352L473.551 341.352L473.551 342.352L471.556 342.352L471.556 341.352ZM475.545 341.352L477.539 341.352L477.539 342.352L475.545 342.352L475.545 341.352ZM479.534 341.352L481.528 341.352L481.528 342.352L479.534 342.352L479.534 341.352ZM483.523 341.352L485.517 341.352L485.517 342.352L483.523 342.352L483.523 341.352ZM487.512 341.352L489.506 341.352L489.506 342.352L487.512 342.352L487.512 341.352ZM491.5 341.352L493.495 341.352L493.495 342.352L491.5 342.352L491.5 341.352ZM495.489 341.352L497.484 341.352L497.484 342.352L495.489 342.352L495.489 341.352ZM499.478 341.352L501.473 341.352L501.473 342.352L499.478 342.352L499.478 341.352ZM503.467 341.352L505.461 341.352L505.461 342.352L503.467 342.352L503.467 341.352ZM507.456 341.352L509.45 341.352L509.45 342.352L507.456 342.352L507.456 341.352ZM511.445 341.352L513.439 341.352L513.439 342.352L511.445 342.352L511.445 341.352ZM515.434 341.352L517.428 341.352L517.428 342.352L515.434 342.352L515.434 341.352ZM519.422 341.352L521.417 341.352L521.417 342.352L519.422 342.352L519.422 341.352ZM523.411 341.352L525.406 341.352L525.406 342.352L523.411 342.352L523.411 341.352ZM527.4 341.352L529.395 341.352L529.395 342.352L527.4 342.352L527.4 341.352ZM531.389 341.352L533.383 341.352L533.383 342.352L531.389 342.352L531.389 341.352ZM535.378 341.352L537.372 341.352L537.372 342.352L535.378 342.352L535.378 341.352ZM539.367 341.352L541.361 341.352L541.361 342.352L539.367 342.352L539.367 341.352ZM543.356 341.352L545.35 341.352L545.35 342.352L543.356 342.352L543.356 341.352ZM547.344 341.352L549.339 341.352L549.339 342.352L547.344 342.352L547.344 341.352ZM551.333 341.352L553.328 341.352L553.328 342.352L551.333 342.352L551.333 341.352ZM555.322 341.352L557.317 341.352L557.317 342.352L555.322 342.352L555.322 341.352ZM559.311 341.352L561.305 341.352L561.305 342.352L559.311 342.352L559.311 341.352ZM563.3 341.352L564.297 341.352L564.297 342.352L563.3 342.352L563.3 341.352Z" fill="#9F9DFF"/>
<defs>
<filter id="filter0_f_68_1605" x="0.34375" y="22.2305" width="550.76" height="585.898" filterUnits="userSpaceOnUse" color-interpolation-filters="sRGB">
<feFlood flood-opacity="0" result="BackgroundImageFix"/>
<feBlend mode="normal" in="SourceGraphic" in2="BackgroundImageFix" result="shape"/>
<feGaussianBlur stdDeviation="100" result="effect1_foregroundBlur_68_1605"/>
</filter>
<filter id="filter1_f_68_1605" x="295.568" y="0.803711" width="581.299" height="712.102" filterUnits="userSpaceOnUse" color-interpolation-filters="sRGB">
<feFlood flood-opacity="0" result="BackgroundImageFix"/>
<feBlend mode="normal" in="SourceGraphic" in2="BackgroundImageFix" result="shape"/>
<feGaussianBlur stdDeviation="100" result="effect1_foregroundBlur_68_1605"/>
</filter>
<filter id="filter2_f_68_1605" x="279.816" y="329.382" width="225.684" height="263.523" filterUnits="userSpaceOnUse" color-interpolation-filters="sRGB">
<feFlood flood-opacity="0" result="BackgroundImageFix"/>
<feBlend mode="normal" in="SourceGraphic" in2="BackgroundImageFix" result="shape"/>
<feGaussianBlur stdDeviation="40" result="effect1_foregroundBlur_68_1605"/>
</filter>
<filter id="filter3_d_68_1605" x="402.449" y="446.367" width="124.103" height="124.545" filterUnits="userSpaceOnUse" color-interpolation-filters="sRGB">
<feFlood flood-opacity="0" result="BackgroundImageFix"/>
<feColorMatrix in="SourceAlpha" type="matrix" values="0 0 0 0 0 0 0 0 0 0 0 0 0 0 0 0 0 0 127 0" result="hardAlpha"/>
<feOffset dy="3.40124"/>
<feGaussianBlur stdDeviation="9.77857"/>
<feComposite in2="hardAlpha" operator="out"/>
<feColorMatrix type="matrix" values="0 0 0 0 0 0 0 0 0 0 0 0 0 0 0 0 0 0 0.95 0"/>
<feBlend mode="normal" in2="BackgroundImageFix" result="effect1_dropShadow_68_1605"/>
<feBlend mode="normal" in="SourceGraphic" in2="effect1_dropShadow_68_1605" result="shape"/>
</filter>
<filter id="filter4_d_68_1605" x="406.913" y="447.113" width="117.447" height="118.421" filterUnits="userSpaceOnUse" color-interpolation-filters="sRGB">
<feFlood flood-opacity="0" result="BackgroundImageFix"/>
<feColorMatrix in="SourceAlpha" type="matrix" values="0 0 0 0 0 0 0 0 0 0 0 0 0 0 0 0 0 0 127 0" result="hardAlpha"/>
<feOffset dy="1.7706"/>
<feGaussianBlur stdDeviation="0.885298"/>
<feComposite in2="hardAlpha" operator="out"/>
<feColorMatrix type="matrix" values="0 0 0 0 0.432266 0 0 0 0 0.00354165 0 0 0 0 0.846458 0 0 0 1 0"/>
<feBlend mode="screen" in2="BackgroundImageFix" result="effect1_dropShadow_68_1605"/>
<feBlend mode="normal" in="SourceGraphic" in2="effect1_dropShadow_68_1605" result="shape"/>
</filter>
<linearGradient id="paint0_linear_68_1605" x1="75.3797" y1="0" x2="75.3797" y2="185.898" gradientUnits="userSpaceOnUse">
<stop stop-color="#6218FF" stop-opacity="0"/>
<stop offset="1" stop-color="#6117FF"/>
</linearGradient>
<linearGradient id="paint1_linear_68_1605" x1="90.6492" y1="0" x2="90.6492" y2="312.101" gradientUnits="userSpaceOnUse">
<stop stop-color="#6218FF" stop-opacity="0"/>
<stop offset="1" stop-color="#6117FF"/>
</linearGradient>
<linearGradient id="paint2_linear_68_1605" x1="32.8416" y1="0" x2="32.8416" y2="103.523" gradientUnits="userSpaceOnUse">
<stop stop-color="#6218FF" stop-opacity="0"/>
<stop offset="1" stop-color="#6117FF"/>
</linearGradient>
<linearGradient id="paint3_linear_68_1605" x1="433.886" y1="442.26" x2="503.298" y2="603.464" gradientUnits="userSpaceOnUse">
<stop offset="0.015625" stop-color="#B010FB"/>
<stop offset="0.130208" stop-color="#DE97FF"/>
<stop offset="0.234375" stop-color="#A227DB"/>
<stop offset="0.505208" stop-color="#A227DB" stop-opacity="0"/>
<stop offset="0.765625" stop-color="#A610EC" stop-opacity="0.84"/>
</linearGradient>
</defs>
</svg>
