<svg width="569" height="418" viewBox="0 0 569 418" fill="none" xmlns="http://www.w3.org/2000/svg">
<path d="M121.701 46.98C121.143 46.98 120.689 47.433 120.689 47.9919V54.828C120.689 55.3869 121.143 55.8399 121.701 55.8399H128.537C129.096 55.8399 129.549 55.3869 129.549 54.828V47.9919C129.549 47.433 129.096 46.98 128.537 46.98H121.701Z" fill="url(#paint0_linear_2297_12849)"/>
<path d="M157.142 46.98C156.583 46.98 156.13 47.433 156.13 47.9919V54.828C156.13 55.3869 156.583 55.8399 157.142 55.8399H163.978C164.537 55.8399 164.99 55.3869 164.99 54.828V47.9919C164.99 47.433 164.537 46.98 163.978 46.98H157.142Z" fill="url(#paint1_linear_2297_12849)"/>
<path d="M191.57 47.9919C191.57 47.433 192.023 46.98 192.582 46.98H199.418C199.977 46.98 200.43 47.433 200.43 47.9919V54.828C200.43 55.3869 199.977 55.8399 199.418 55.8399H192.582C192.023 55.8399 191.57 55.3869 191.57 54.828V47.9919Z" fill="url(#paint2_linear_2297_12849)"/>
<path d="M228.02 46.98C227.461 46.98 227.008 47.433 227.008 47.9919V54.828C227.008 55.3869 227.461 55.8399 228.02 55.8399H234.856C235.415 55.8399 235.868 55.3869 235.868 54.828V47.9919C235.868 47.433 235.415 46.98 234.856 46.98H228.02Z" fill="url(#paint3_linear_2297_12849)"/>
<path d="M262.448 47.9919C262.448 47.433 262.901 46.98 263.46 46.98H270.296C270.855 46.98 271.308 47.433 271.308 47.9919V54.828C271.308 55.3869 270.855 55.8399 270.296 55.8399H263.46C262.901 55.8399 262.448 55.3869 262.448 54.828V47.9919Z" fill="url(#paint4_linear_2297_12849)"/>
<path d="M298.901 46.98C298.342 46.98 297.889 47.433 297.889 47.9919V54.828C297.889 55.3869 298.342 55.8399 298.901 55.8399H305.737C306.296 55.8399 306.749 55.3869 306.749 54.828V47.9919C306.749 47.433 306.296 46.98 305.737 46.98H298.901Z" fill="url(#paint5_linear_2297_12849)"/>
<path d="M333.329 47.9919C333.329 47.433 333.782 46.98 334.341 46.98H341.177C341.736 46.98 342.189 47.433 342.189 47.9919V54.828C342.189 55.3869 341.736 55.8399 341.177 55.8399H334.341C333.782 55.8399 333.329 55.3869 333.329 54.828V47.9919Z" fill="url(#paint6_linear_2297_12849)"/>
<path d="M369.782 46.98C369.223 46.98 368.77 47.433 368.77 47.9919V54.828C368.77 55.3869 369.223 55.8399 369.782 55.8399H376.618C377.177 55.8399 377.63 55.3869 377.63 54.828V47.9919C377.63 47.433 377.177 46.98 376.618 46.98H369.782Z" fill="url(#paint7_linear_2297_12849)"/>
<path d="M404.207 47.9919C404.207 47.433 404.66 46.98 405.219 46.98H412.055C412.614 46.98 413.067 47.433 413.067 47.9919V54.828C413.067 55.3869 412.614 55.8399 412.055 55.8399H405.219C404.66 55.8399 404.207 55.3869 404.207 54.828V47.9919Z" fill="url(#paint8_linear_2297_12849)"/>
<path d="M440.659 46.98C440.101 46.98 439.647 47.433 439.647 47.9919V54.828C439.647 55.3869 440.101 55.8399 440.659 55.8399H447.496C448.054 55.8399 448.507 55.3869 448.507 54.828V47.9919C448.507 47.433 448.054 46.98 447.496 46.98H440.659Z" fill="url(#paint9_linear_2297_12849)"/>
<path d="M120.689 83.4318C120.689 82.8729 121.143 82.4199 121.701 82.4199H128.537C129.096 82.4199 129.549 82.8729 129.549 83.4318V90.2679C129.549 90.8268 129.096 91.2798 128.537 91.2798H121.701C121.143 91.2798 120.689 90.8268 120.689 90.2679V83.4318Z" fill="url(#paint10_linear_2297_12849)"/>
<path d="M157.142 82.4199C156.583 82.4199 156.13 82.8729 156.13 83.4318V90.2679C156.13 90.8268 156.583 91.2798 157.142 91.2798H163.978C164.537 91.2798 164.99 90.8268 164.99 90.2679V83.4318C164.99 82.8729 164.537 82.4199 163.978 82.4199H157.142Z" fill="url(#paint11_linear_2297_12849)"/>
<path d="M191.57 83.4318C191.57 82.8729 192.023 82.4199 192.582 82.4199H199.418C199.977 82.4199 200.43 82.8729 200.43 83.4318V90.2679C200.43 90.8268 199.977 91.2798 199.418 91.2798H192.582C192.023 91.2798 191.57 90.8268 191.57 90.2679V83.4318Z" fill="url(#paint12_linear_2297_12849)"/>
<path d="M228.02 82.4199C227.461 82.4199 227.008 82.8729 227.008 83.4318V90.2679C227.008 90.8268 227.461 91.2798 228.02 91.2798H234.856C235.415 91.2798 235.868 90.8268 235.868 90.2679V83.4318C235.868 82.8729 235.415 82.4199 234.856 82.4199H228.02Z" fill="url(#paint13_linear_2297_12849)"/>
<path d="M262.448 83.4318C262.448 82.8729 262.901 82.4199 263.46 82.4199H270.296C270.855 82.4199 271.308 82.8729 271.308 83.4318V90.2679C271.308 90.8268 270.855 91.2798 270.296 91.2798H263.46C262.901 91.2798 262.448 90.8268 262.448 90.2679V83.4318Z" fill="url(#paint14_linear_2297_12849)"/>
<path d="M298.901 82.4199C298.342 82.4199 297.889 82.8729 297.889 83.4318V90.2679C297.889 90.8268 298.342 91.2798 298.901 91.2798H305.737C306.296 91.2798 306.749 90.8268 306.749 90.2679V83.4318C306.749 82.8729 306.296 82.4199 305.737 82.4199H298.901Z" fill="url(#paint15_linear_2297_12849)"/>
<path d="M333.329 83.4318C333.329 82.8729 333.782 82.4199 334.341 82.4199H341.177C341.736 82.4199 342.189 82.8729 342.189 83.4318V90.2679C342.189 90.8268 341.736 91.2798 341.177 91.2798H334.341C333.782 91.2798 333.329 90.8268 333.329 90.2679V83.4318Z" fill="url(#paint16_linear_2297_12849)"/>
<path d="M369.782 82.4199C369.223 82.4199 368.77 82.8729 368.77 83.4318V90.2679C368.77 90.8268 369.223 91.2798 369.782 91.2798H376.618C377.177 91.2798 377.63 90.8268 377.63 90.2679V83.4318C377.63 82.8729 377.177 82.4199 376.618 82.4199H369.782Z" fill="url(#paint17_linear_2297_12849)"/>
<path d="M404.207 83.4318C404.207 82.8729 404.66 82.4199 405.219 82.4199H412.055C412.614 82.4199 413.067 82.8729 413.067 83.4318V90.2679C413.067 90.8268 412.614 91.2798 412.055 91.2798H405.219C404.66 91.2798 404.207 90.8268 404.207 90.2679V83.4318Z" fill="url(#paint18_linear_2297_12849)"/>
<path d="M440.659 82.4199C440.101 82.4199 439.647 82.8729 439.647 83.4318V90.2679C439.647 90.8268 440.101 91.2798 440.659 91.2798H447.496C448.054 91.2798 448.507 90.8268 448.507 90.2679V83.4318C448.507 82.8729 448.054 82.4199 447.496 82.4199H440.659Z" fill="url(#paint19_linear_2297_12849)"/>
<path d="M120.689 118.871C120.689 118.313 121.143 117.86 121.701 117.86H128.537C129.096 117.86 129.549 118.313 129.549 118.871V125.708C129.549 126.266 129.096 126.719 128.537 126.719H121.701C121.143 126.719 120.689 126.266 120.689 125.708V118.871Z" fill="url(#paint20_linear_2297_12849)"/>
<path d="M157.142 117.86C156.583 117.86 156.13 118.313 156.13 118.871V125.708C156.13 126.266 156.583 126.719 157.142 126.719H163.978C164.537 126.719 164.99 126.266 164.99 125.708V118.871C164.99 118.313 164.537 117.86 163.978 117.86H157.142Z" fill="url(#paint21_linear_2297_12849)"/>
<path d="M191.57 118.871C191.57 118.313 192.023 117.86 192.582 117.86H199.418C199.977 117.86 200.43 118.313 200.43 118.871V125.708C200.43 126.266 199.977 126.719 199.418 126.719H192.582C192.023 126.719 191.57 126.266 191.57 125.708V118.871Z" fill="url(#paint22_linear_2297_12849)"/>
<path d="M228.02 117.86C227.461 117.86 227.008 118.313 227.008 118.871V125.708C227.008 126.266 227.461 126.719 228.02 126.719H234.856C235.415 126.719 235.868 126.266 235.868 125.708V118.871C235.868 118.313 235.415 117.86 234.856 117.86H228.02Z" fill="url(#paint23_linear_2297_12849)"/>
<path d="M262.448 118.871C262.448 118.313 262.901 117.86 263.46 117.86H270.296C270.855 117.86 271.308 118.313 271.308 118.871V125.708C271.308 126.266 270.855 126.719 270.296 126.719H263.46C262.901 126.719 262.448 126.266 262.448 125.708V118.871Z" fill="url(#paint24_linear_2297_12849)"/>
<path d="M298.901 117.86C298.342 117.86 297.889 118.313 297.889 118.871V125.708C297.889 126.266 298.342 126.719 298.901 126.719H305.737C306.296 126.719 306.749 126.266 306.749 125.708V118.871C306.749 118.313 306.296 117.86 305.737 117.86H298.901Z" fill="url(#paint25_linear_2297_12849)"/>
<path d="M333.329 118.871C333.329 118.313 333.782 117.86 334.341 117.86H341.177C341.736 117.86 342.189 118.313 342.189 118.871V125.708C342.189 126.266 341.736 126.719 341.177 126.719H334.341C333.782 126.719 333.329 126.266 333.329 125.708V118.871Z" fill="url(#paint26_linear_2297_12849)"/>
<path d="M369.782 117.86C369.223 117.86 368.77 118.313 368.77 118.871V125.708C368.77 126.266 369.223 126.719 369.782 126.719H376.618C377.177 126.719 377.63 126.266 377.63 125.708V118.871C377.63 118.313 377.177 117.86 376.618 117.86H369.782Z" fill="url(#paint27_linear_2297_12849)"/>
<path d="M404.207 118.871C404.207 118.313 404.66 117.86 405.219 117.86H412.055C412.614 117.86 413.067 118.313 413.067 118.871V125.708C413.067 126.266 412.614 126.719 412.055 126.719H405.219C404.66 126.719 404.207 126.266 404.207 125.708V118.871Z" fill="url(#paint28_linear_2297_12849)"/>
<path d="M440.659 117.86C440.101 117.86 439.647 118.313 439.647 118.871V125.708C439.647 126.266 440.101 126.719 440.659 126.719H447.496C448.054 126.719 448.507 126.266 448.507 125.708V118.871C448.507 118.313 448.054 117.86 447.496 117.86H440.659Z" fill="url(#paint29_linear_2297_12849)"/>
<path d="M120.689 154.311C120.689 153.752 121.143 153.299 121.701 153.299H128.537C129.096 153.299 129.549 153.752 129.549 154.311V161.147C129.549 161.706 129.096 162.159 128.537 162.159H121.701C121.143 162.159 120.689 161.706 120.689 161.147V154.311Z" fill="url(#paint30_linear_2297_12849)"/>
<path d="M157.142 153.299C156.583 153.299 156.13 153.752 156.13 154.311V161.147C156.13 161.706 156.583 162.159 157.142 162.159H163.978C164.537 162.159 164.99 161.706 164.99 161.147V154.311C164.99 153.752 164.537 153.299 163.978 153.299H157.142Z" fill="url(#paint31_linear_2297_12849)"/>
<path d="M191.57 154.311C191.57 153.752 192.023 153.299 192.582 153.299H199.418C199.977 153.299 200.43 153.752 200.43 154.311V161.147C200.43 161.706 199.977 162.159 199.418 162.159H192.582C192.023 162.159 191.57 161.706 191.57 161.147V154.311Z" fill="url(#paint32_linear_2297_12849)"/>
<path d="M228.02 153.299C227.461 153.299 227.008 153.752 227.008 154.311V161.147C227.008 161.706 227.461 162.159 228.02 162.159H234.856C235.415 162.159 235.868 161.706 235.868 161.147V154.311C235.868 153.752 235.415 153.299 234.856 153.299H228.02Z" fill="url(#paint33_linear_2297_12849)"/>
<path d="M262.448 154.311C262.448 153.752 262.901 153.299 263.46 153.299H270.296C270.855 153.299 271.308 153.752 271.308 154.311V161.147C271.308 161.706 270.855 162.159 270.296 162.159H263.46C262.901 162.159 262.448 161.706 262.448 161.147V154.311Z" fill="url(#paint34_linear_2297_12849)"/>
<path d="M298.901 153.299C298.342 153.299 297.889 153.752 297.889 154.311V161.147C297.889 161.706 298.342 162.159 298.901 162.159H305.737C306.296 162.159 306.749 161.706 306.749 161.147V154.311C306.749 153.752 306.296 153.299 305.737 153.299H298.901Z" fill="url(#paint35_linear_2297_12849)"/>
<path d="M333.329 154.311C333.329 153.752 333.782 153.299 334.341 153.299H341.177C341.736 153.299 342.189 153.752 342.189 154.311V161.147C342.189 161.706 341.736 162.159 341.177 162.159H334.341C333.782 162.159 333.329 161.706 333.329 161.147V154.311Z" fill="url(#paint36_linear_2297_12849)"/>
<path d="M369.782 153.299C369.223 153.299 368.77 153.752 368.77 154.311V161.147C368.77 161.706 369.223 162.159 369.782 162.159H376.618C377.177 162.159 377.63 161.706 377.63 161.147V154.311C377.63 153.752 377.177 153.299 376.618 153.299H369.782Z" fill="url(#paint37_linear_2297_12849)"/>
<path d="M404.207 154.311C404.207 153.752 404.66 153.299 405.219 153.299H412.055C412.614 153.299 413.067 153.752 413.067 154.311V161.147C413.067 161.706 412.614 162.159 412.055 162.159H405.219C404.66 162.159 404.207 161.706 404.207 161.147V154.311Z" fill="url(#paint38_linear_2297_12849)"/>
<path d="M440.659 153.299C440.101 153.299 439.647 153.752 439.647 154.311V161.147C439.647 161.706 440.101 162.159 440.659 162.159H447.496C448.054 162.159 448.507 161.706 448.507 161.147V154.311C448.507 153.752 448.054 153.299 447.496 153.299H440.659Z" fill="url(#paint39_linear_2297_12849)"/>
<path d="M120.689 189.751C120.689 189.192 121.143 188.739 121.701 188.739H128.537C129.096 188.739 129.549 189.192 129.549 189.751V196.587C129.549 197.146 129.096 197.599 128.537 197.599H121.701C121.143 197.599 120.689 197.146 120.689 196.587V189.751Z" fill="url(#paint40_linear_2297_12849)"/>
<path d="M157.142 188.739C156.583 188.739 156.13 189.192 156.13 189.751V196.587C156.13 197.146 156.583 197.599 157.142 197.599H163.978C164.537 197.599 164.99 197.146 164.99 196.587V189.751C164.99 189.192 164.537 188.739 163.978 188.739H157.142Z" fill="url(#paint41_linear_2297_12849)"/>
<path d="M191.57 189.751C191.57 189.192 192.023 188.739 192.582 188.739H199.418C199.977 188.739 200.43 189.192 200.43 189.751V196.587C200.43 197.146 199.977 197.599 199.418 197.599H192.582C192.023 197.599 191.57 197.146 191.57 196.587V189.751Z" fill="url(#paint42_linear_2297_12849)"/>
<path d="M228.02 188.739C227.461 188.739 227.008 189.192 227.008 189.751V196.587C227.008 197.146 227.461 197.599 228.02 197.599H234.856C235.415 197.599 235.868 197.146 235.868 196.587V189.751C235.868 189.192 235.415 188.739 234.856 188.739H228.02Z" fill="url(#paint43_linear_2297_12849)"/>
<path d="M262.448 189.751C262.448 189.192 262.901 188.739 263.46 188.739H270.296C270.855 188.739 271.308 189.192 271.308 189.751V196.587C271.308 197.146 270.855 197.599 270.296 197.599H263.46C262.901 197.599 262.448 197.146 262.448 196.587V189.751Z" fill="url(#paint44_linear_2297_12849)"/>
<path d="M298.901 188.739C298.342 188.739 297.889 189.192 297.889 189.751V196.587C297.889 197.146 298.342 197.599 298.901 197.599H305.737C306.296 197.599 306.749 197.146 306.749 196.587V189.751C306.749 189.192 306.296 188.739 305.737 188.739H298.901Z" fill="url(#paint45_linear_2297_12849)"/>
<path d="M333.329 189.751C333.329 189.192 333.782 188.739 334.341 188.739H341.177C341.736 188.739 342.189 189.192 342.189 189.751V196.587C342.189 197.146 341.736 197.599 341.177 197.599H334.341C333.782 197.599 333.329 197.146 333.329 196.587V189.751Z" fill="url(#paint46_linear_2297_12849)"/>
<path d="M369.782 188.739C369.223 188.739 368.77 189.192 368.77 189.751V196.587C368.77 197.146 369.223 197.599 369.782 197.599H376.618C377.177 197.599 377.63 197.146 377.63 196.587V189.751C377.63 189.192 377.177 188.739 376.618 188.739H369.782Z" fill="url(#paint47_linear_2297_12849)"/>
<path d="M404.207 189.751C404.207 189.192 404.66 188.739 405.219 188.739H412.055C412.614 188.739 413.067 189.192 413.067 189.751V196.587C413.067 197.146 412.614 197.599 412.055 197.599H405.219C404.66 197.599 404.207 197.146 404.207 196.587V189.751Z" fill="url(#paint48_linear_2297_12849)"/>
<path d="M440.659 188.739C440.101 188.739 439.647 189.192 439.647 189.751V196.587C439.647 197.146 440.101 197.599 440.659 197.599H447.496C448.054 197.599 448.507 197.146 448.507 196.587V189.751C448.507 189.192 448.054 188.739 447.496 188.739H440.659Z" fill="url(#paint49_linear_2297_12849)"/>
<path d="M120.689 225.191C120.689 224.632 121.143 224.179 121.701 224.179H128.537C129.096 224.179 129.549 224.632 129.549 225.191V232.027C129.549 232.586 129.096 233.039 128.537 233.039H121.701C121.143 233.039 120.689 232.586 120.689 232.027V225.191Z" fill="url(#paint50_linear_2297_12849)"/>
<path d="M157.142 224.179C156.583 224.179 156.13 224.632 156.13 225.191V232.027C156.13 232.586 156.583 233.039 157.142 233.039H163.978C164.537 233.039 164.99 232.586 164.99 232.027V225.191C164.99 224.632 164.537 224.179 163.978 224.179H157.142Z" fill="url(#paint51_linear_2297_12849)"/>
<path d="M191.57 225.191C191.57 224.632 192.023 224.179 192.582 224.179H199.418C199.977 224.179 200.43 224.632 200.43 225.191V232.027C200.43 232.586 199.977 233.039 199.418 233.039H192.582C192.023 233.039 191.57 232.586 191.57 232.027V225.191Z" fill="url(#paint52_linear_2297_12849)"/>
<path d="M228.02 224.179C227.461 224.179 227.008 224.632 227.008 225.191V232.027C227.008 232.586 227.461 233.039 228.02 233.039H234.856C235.415 233.039 235.868 232.586 235.868 232.027V225.191C235.868 224.632 235.415 224.179 234.856 224.179H228.02Z" fill="url(#paint53_linear_2297_12849)"/>
<path d="M262.448 225.191C262.448 224.632 262.901 224.179 263.46 224.179H270.296C270.855 224.179 271.308 224.632 271.308 225.191V232.027C271.308 232.586 270.855 233.039 270.296 233.039H263.46C262.901 233.039 262.448 232.586 262.448 232.027V225.191Z" fill="url(#paint54_linear_2297_12849)"/>
<path d="M298.901 224.179C298.342 224.179 297.889 224.632 297.889 225.191V232.027C297.889 232.586 298.342 233.039 298.901 233.039H305.737C306.296 233.039 306.749 232.586 306.749 232.027V225.191C306.749 224.632 306.296 224.179 305.737 224.179H298.901Z" fill="url(#paint55_linear_2297_12849)"/>
<path d="M333.329 225.191C333.329 224.632 333.782 224.179 334.341 224.179H341.177C341.736 224.179 342.189 224.632 342.189 225.191V232.027C342.189 232.586 341.736 233.039 341.177 233.039H334.341C333.782 233.039 333.329 232.586 333.329 232.027V225.191Z" fill="url(#paint56_linear_2297_12849)"/>
<path d="M369.782 224.179C369.223 224.179 368.77 224.632 368.77 225.191V232.027C368.77 232.586 369.223 233.039 369.782 233.039H376.618C377.177 233.039 377.63 232.586 377.63 232.027V225.191C377.63 224.632 377.177 224.179 376.618 224.179H369.782Z" fill="url(#paint57_linear_2297_12849)"/>
<path d="M404.207 225.191C404.207 224.632 404.66 224.179 405.219 224.179H412.055C412.614 224.179 413.067 224.632 413.067 225.191V232.027C413.067 232.586 412.614 233.039 412.055 233.039H405.219C404.66 233.039 404.207 232.586 404.207 232.027V225.191Z" fill="url(#paint58_linear_2297_12849)"/>
<path d="M440.659 224.179C440.101 224.179 439.647 224.632 439.647 225.191V232.027C439.647 232.586 440.101 233.039 440.659 233.039H447.496C448.054 233.039 448.507 232.586 448.507 232.027V225.191C448.507 224.632 448.054 224.179 447.496 224.179H440.659Z" fill="url(#paint59_linear_2297_12849)"/>
<path d="M120.689 260.631C120.689 260.072 121.143 259.619 121.701 259.619H128.537C129.096 259.619 129.549 260.072 129.549 260.631V267.467C129.549 268.026 129.096 268.479 128.537 268.479H121.701C121.143 268.479 120.689 268.026 120.689 267.467V260.631Z" fill="url(#paint60_linear_2297_12849)"/>
<path d="M121.701 293.799C121.143 293.799 120.689 294.252 120.689 294.811V301.647C120.689 302.206 121.143 302.659 121.701 302.659H128.537C129.096 302.659 129.549 302.206 129.549 301.647V294.811C129.549 294.252 129.096 293.799 128.537 293.799H121.701Z" fill="url(#paint61_linear_2297_12849)"/>
<path d="M120.689 328.991C120.689 328.432 121.143 327.979 121.701 327.979H128.537C129.096 327.979 129.549 328.432 129.549 328.991V335.827C129.549 336.386 129.096 336.839 128.537 336.839H121.701C121.143 336.839 120.689 336.386 120.689 335.827V328.991Z" fill="url(#paint62_linear_2297_12849)"/>
<path d="M121.701 362.16C121.143 362.16 120.689 362.613 120.689 363.172V370.008C120.689 370.567 121.143 371.02 121.701 371.02H128.537C129.096 371.02 129.549 370.567 129.549 370.008V363.172C129.549 362.613 129.096 362.16 128.537 362.16H121.701Z" fill="url(#paint63_linear_2297_12849)"/>
<path d="M156.13 260.631C156.13 260.072 156.583 259.619 157.142 259.619H163.978C164.537 259.619 164.99 260.072 164.99 260.631V267.467C164.99 268.026 164.537 268.479 163.978 268.479H157.142C156.583 268.479 156.13 268.026 156.13 267.467V260.631Z" fill="url(#paint64_linear_2297_12849)"/>
<path d="M157.142 293.799C156.583 293.799 156.13 294.252 156.13 294.811V301.647C156.13 302.206 156.583 302.659 157.142 302.659H163.978C164.537 302.659 164.99 302.206 164.99 301.647V294.811C164.99 294.252 164.537 293.799 163.978 293.799H157.142Z" fill="url(#paint65_linear_2297_12849)"/>
<path d="M156.13 328.991C156.13 328.432 156.583 327.979 157.142 327.979H163.978C164.537 327.979 164.99 328.432 164.99 328.991V335.827C164.99 336.386 164.537 336.839 163.978 336.839H157.142C156.583 336.839 156.13 336.386 156.13 335.827V328.991Z" fill="url(#paint66_linear_2297_12849)"/>
<path d="M157.142 362.16C156.583 362.16 156.13 362.613 156.13 363.172V370.008C156.13 370.567 156.583 371.02 157.142 371.02H163.978C164.537 371.02 164.99 370.567 164.99 370.008V363.172C164.99 362.613 164.537 362.16 163.978 362.16H157.142Z" fill="url(#paint67_linear_2297_12849)"/>
<path d="M191.57 260.631C191.57 260.072 192.023 259.619 192.582 259.619H199.418C199.977 259.619 200.43 260.072 200.43 260.631V267.467C200.43 268.026 199.977 268.479 199.418 268.479H192.582C192.023 268.479 191.57 268.026 191.57 267.467V260.631Z" fill="url(#paint68_linear_2297_12849)"/>
<path d="M192.582 293.799C192.023 293.799 191.57 294.252 191.57 294.811V301.647C191.57 302.206 192.023 302.659 192.582 302.659H199.418C199.977 302.659 200.43 302.206 200.43 301.647V294.811C200.43 294.252 199.977 293.799 199.418 293.799H192.582Z" fill="url(#paint69_linear_2297_12849)"/>
<path d="M191.57 328.991C191.57 328.432 192.023 327.979 192.582 327.979H199.418C199.977 327.979 200.43 328.432 200.43 328.991V335.827C200.43 336.386 199.977 336.839 199.418 336.839H192.582C192.023 336.839 191.57 336.386 191.57 335.827V328.991Z" fill="url(#paint70_linear_2297_12849)"/>
<path d="M192.582 362.16C192.023 362.16 191.57 362.613 191.57 363.172V370.008C191.57 370.567 192.023 371.02 192.582 371.02H199.418C199.977 371.02 200.43 370.567 200.43 370.008V363.172C200.43 362.613 199.977 362.16 199.418 362.16H192.582Z" fill="url(#paint71_linear_2297_12849)"/>
<path d="M227.008 260.631C227.008 260.072 227.461 259.619 228.02 259.619H234.856C235.415 259.619 235.868 260.072 235.868 260.631V267.467C235.868 268.026 235.415 268.479 234.856 268.479H228.02C227.461 268.479 227.008 268.026 227.008 267.467V260.631Z" fill="url(#paint72_linear_2297_12849)"/>
<path d="M228.02 293.799C227.461 293.799 227.008 294.252 227.008 294.811V301.647C227.008 302.206 227.461 302.659 228.02 302.659H234.856C235.415 302.659 235.868 302.206 235.868 301.647V294.811C235.868 294.252 235.415 293.799 234.856 293.799H228.02Z" fill="url(#paint73_linear_2297_12849)"/>
<path d="M227.008 328.991C227.008 328.432 227.461 327.979 228.02 327.979H234.856C235.415 327.979 235.868 328.432 235.868 328.991V335.827C235.868 336.386 235.415 336.839 234.856 336.839H228.02C227.461 336.839 227.008 336.386 227.008 335.827V328.991Z" fill="url(#paint74_linear_2297_12849)"/>
<path d="M228.02 362.16C227.461 362.16 227.008 362.613 227.008 363.172V370.008C227.008 370.567 227.461 371.02 228.02 371.02H234.856C235.415 371.02 235.868 370.567 235.868 370.008V363.172C235.868 362.613 235.415 362.16 234.856 362.16H228.02Z" fill="url(#paint75_linear_2297_12849)"/>
<path d="M262.448 260.631C262.448 260.072 262.901 259.619 263.46 259.619H270.296C270.855 259.619 271.308 260.072 271.308 260.631V267.467C271.308 268.026 270.855 268.479 270.296 268.479H263.46C262.901 268.479 262.448 268.026 262.448 267.467V260.631Z" fill="url(#paint76_linear_2297_12849)"/>
<path d="M263.46 293.799C262.901 293.799 262.448 294.252 262.448 294.811V301.647C262.448 302.206 262.901 302.659 263.46 302.659H270.296C270.855 302.659 271.308 302.206 271.308 301.647V294.811C271.308 294.252 270.855 293.799 270.296 293.799H263.46Z" fill="url(#paint77_linear_2297_12849)"/>
<path d="M262.448 328.991C262.448 328.432 262.901 327.979 263.46 327.979H270.296C270.855 327.979 271.308 328.432 271.308 328.991V335.827C271.308 336.386 270.855 336.839 270.296 336.839H263.46C262.901 336.839 262.448 336.386 262.448 335.827V328.991Z" fill="url(#paint78_linear_2297_12849)"/>
<path d="M263.46 362.16C262.901 362.16 262.448 362.613 262.448 363.172V370.008C262.448 370.567 262.901 371.02 263.46 371.02H270.296C270.855 371.02 271.308 370.567 271.308 370.008V363.172C271.308 362.613 270.855 362.16 270.296 362.16H263.46Z" fill="url(#paint79_linear_2297_12849)"/>
<path d="M297.889 260.631C297.889 260.072 298.342 259.619 298.901 259.619H305.737C306.296 259.619 306.749 260.072 306.749 260.631V267.467C306.749 268.026 306.296 268.479 305.737 268.479H298.901C298.342 268.479 297.889 268.026 297.889 267.467V260.631Z" fill="url(#paint80_linear_2297_12849)"/>
<path d="M298.901 293.799C298.342 293.799 297.889 294.252 297.889 294.811V301.647C297.889 302.206 298.342 302.659 298.901 302.659H305.737C306.296 302.659 306.749 302.206 306.749 301.647V294.811C306.749 294.252 306.296 293.799 305.737 293.799H298.901Z" fill="url(#paint81_linear_2297_12849)"/>
<path d="M297.889 328.991C297.889 328.432 298.342 327.979 298.901 327.979H305.737C306.296 327.979 306.749 328.432 306.749 328.991V335.827C306.749 336.386 306.296 336.839 305.737 336.839H298.901C298.342 336.839 297.889 336.386 297.889 335.827V328.991Z" fill="url(#paint82_linear_2297_12849)"/>
<path d="M298.901 362.16C298.342 362.16 297.889 362.613 297.889 363.172V370.008C297.889 370.567 298.342 371.02 298.901 371.02H305.737C306.296 371.02 306.749 370.567 306.749 370.008V363.172C306.749 362.613 306.296 362.16 305.737 362.16H298.901Z" fill="url(#paint83_linear_2297_12849)"/>
<path d="M333.329 260.631C333.329 260.072 333.782 259.619 334.341 259.619H341.177C341.736 259.619 342.189 260.072 342.189 260.631V267.467C342.189 268.026 341.736 268.479 341.177 268.479H334.341C333.782 268.479 333.329 268.026 333.329 267.467V260.631Z" fill="url(#paint84_linear_2297_12849)"/>
<path d="M334.341 293.799C333.782 293.799 333.329 294.252 333.329 294.811V301.647C333.329 302.206 333.782 302.659 334.341 302.659H341.177C341.736 302.659 342.189 302.206 342.189 301.647V294.811C342.189 294.252 341.736 293.799 341.177 293.799H334.341Z" fill="url(#paint85_linear_2297_12849)"/>
<path d="M333.329 328.991C333.329 328.432 333.782 327.979 334.341 327.979H341.177C341.736 327.979 342.189 328.432 342.189 328.991V335.827C342.189 336.386 341.736 336.839 341.177 336.839H334.341C333.782 336.839 333.329 336.386 333.329 335.827V328.991Z" fill="url(#paint86_linear_2297_12849)"/>
<path d="M334.341 362.16C333.782 362.16 333.329 362.613 333.329 363.172V370.008C333.329 370.567 333.782 371.02 334.341 371.02H341.177C341.736 371.02 342.189 370.567 342.189 370.008V363.172C342.189 362.613 341.736 362.16 341.177 362.16H334.341Z" fill="url(#paint87_linear_2297_12849)"/>
<path d="M368.77 260.631C368.77 260.072 369.223 259.619 369.782 259.619H376.618C377.177 259.619 377.63 260.072 377.63 260.631V267.467C377.63 268.026 377.177 268.479 376.618 268.479H369.782C369.223 268.479 368.77 268.026 368.77 267.467V260.631Z" fill="url(#paint88_linear_2297_12849)"/>
<path d="M369.782 293.799C369.223 293.799 368.77 294.252 368.77 294.811V301.647C368.77 302.206 369.223 302.659 369.782 302.659H376.618C377.177 302.659 377.63 302.206 377.63 301.647V294.811C377.63 294.252 377.177 293.799 376.618 293.799H369.782Z" fill="url(#paint89_linear_2297_12849)"/>
<path d="M368.77 328.991C368.77 328.432 369.223 327.979 369.782 327.979H376.618C377.177 327.979 377.63 328.432 377.63 328.991V335.827C377.63 336.386 377.177 336.839 376.618 336.839H369.782C369.223 336.839 368.77 336.386 368.77 335.827V328.991Z" fill="url(#paint90_linear_2297_12849)"/>
<path d="M369.782 362.16C369.223 362.16 368.77 362.613 368.77 363.172V370.008C368.77 370.567 369.223 371.02 369.782 371.02H376.618C377.177 371.02 377.63 370.567 377.63 370.008V363.172C377.63 362.613 377.177 362.16 376.618 362.16H369.782Z" fill="url(#paint91_linear_2297_12849)"/>
<path d="M404.207 260.631C404.207 260.072 404.66 259.619 405.219 259.619H412.055C412.614 259.619 413.067 260.072 413.067 260.631V267.467C413.067 268.026 412.614 268.479 412.055 268.479H405.219C404.66 268.479 404.207 268.026 404.207 267.467V260.631Z" fill="url(#paint92_linear_2297_12849)"/>
<path d="M405.219 293.799C404.66 293.799 404.207 294.252 404.207 294.811V301.647C404.207 302.206 404.66 302.659 405.219 302.659H412.055C412.614 302.659 413.067 302.206 413.067 301.647V294.811C413.067 294.252 412.614 293.799 412.055 293.799H405.219Z" fill="url(#paint93_linear_2297_12849)"/>
<path d="M404.207 328.991C404.207 328.432 404.66 327.979 405.219 327.979H412.055C412.614 327.979 413.067 328.432 413.067 328.991V335.827C413.067 336.386 412.614 336.839 412.055 336.839H405.219C404.66 336.839 404.207 336.386 404.207 335.827V328.991Z" fill="url(#paint94_linear_2297_12849)"/>
<path d="M405.219 362.16C404.66 362.16 404.207 362.613 404.207 363.172V370.008C404.207 370.567 404.66 371.02 405.219 371.02H412.055C412.614 371.02 413.067 370.567 413.067 370.008V363.172C413.067 362.613 412.614 362.16 412.055 362.16H405.219Z" fill="url(#paint95_linear_2297_12849)"/>
<path d="M439.647 260.631C439.647 260.072 440.101 259.619 440.659 259.619H447.496C448.054 259.619 448.507 260.072 448.507 260.631V267.467C448.507 268.026 448.054 268.479 447.496 268.479H440.659C440.101 268.479 439.647 268.026 439.647 267.467V260.631Z" fill="url(#paint96_linear_2297_12849)"/>
<path d="M440.659 293.799C440.101 293.799 439.647 294.252 439.647 294.811V301.647C439.647 302.206 440.101 302.659 440.659 302.659H447.496C448.054 302.659 448.507 302.206 448.507 301.647V294.811C448.507 294.252 448.054 293.799 447.496 293.799H440.659Z" fill="url(#paint97_linear_2297_12849)"/>
<path d="M439.647 328.991C439.647 328.432 440.101 327.979 440.659 327.979H447.496C448.054 327.979 448.507 328.432 448.507 328.991V335.827C448.507 336.386 448.054 336.839 447.496 336.839H440.659C440.101 336.839 439.647 336.386 439.647 335.827V328.991Z" fill="url(#paint98_linear_2297_12849)"/>
<path d="M440.659 362.16C440.101 362.16 439.647 362.613 439.647 363.172V370.008C439.647 370.567 440.101 371.02 440.659 371.02H447.496C448.054 371.02 448.507 370.567 448.507 370.008V363.172C448.507 362.613 448.054 362.16 447.496 362.16H440.659Z" fill="url(#paint99_linear_2297_12849)"/>
<mask id="mask0_2297_12849" style="mask-type:alpha" maskUnits="userSpaceOnUse" x="252" y="124" width="122" height="166">
<circle cx="307.951" cy="207" r="0.798538" fill="#AA50FF"/>
<circle cx="311.345" cy="207" r="0.798538" fill="#AA50FF"/>
<circle cx="314.738" cy="207" r="0.798538" fill="#AA50FF"/>
<circle cx="318.133" cy="207" r="0.798538" fill="#AA50FF"/>
<circle cx="321.525" cy="207" r="0.798538" fill="#AA50FF"/>
<circle cx="324.92" cy="207" r="0.798538" fill="#AA50FF"/>
<circle cx="328.314" cy="207" r="0.798538" fill="#AA50FF"/>
<circle cx="331.707" cy="207" r="0.798538" fill="#AA50FF"/>
<circle cx="335.101" cy="207" r="0.798538" fill="#AA50FF"/>
<circle cx="338.496" cy="207" r="0.798538" fill="#AA50FF"/>
<circle cx="341.888" cy="207" r="0.798538" fill="#AA50FF"/>
<circle cx="345.283" cy="207" r="0.798538" fill="#AA50FF"/>
<circle cx="348.677" cy="207" r="0.798538" fill="#AA50FF"/>
<circle cx="352.07" cy="207" r="0.798538" fill="#AA50FF"/>
<circle cx="355.465" cy="207" r="0.798538" fill="#AA50FF"/>
<circle cx="358.857" cy="207" r="0.798538" fill="#AA50FF"/>
<circle cx="362.252" cy="207" r="0.798538" fill="#AA50FF"/>
<circle cx="365.646" cy="207" r="0.798538" fill="#AA50FF"/>
<circle cx="369.039" cy="207" r="0.798538" fill="#AA50FF"/>
<circle cx="372.433" cy="207" r="0.798538" fill="#AA50FF"/>
<circle cx="352.07" cy="213.76" r="0.798538" fill="#AA50FF"/>
<circle cx="348.676" cy="214.12" r="0.798538" fill="#AA50FF"/>
<circle cx="345.676" cy="215.357" r="0.798538" fill="#AA50FF"/>
<circle cx="343.006" cy="216.954" r="0.798538" fill="#AA50FF"/>
<circle cx="340.291" cy="219.174" r="0.798538" fill="#AA50FF"/>
<circle cx="337.697" cy="221.395" r="0.798538" fill="#AA50FF"/>
<circle cx="335.101" cy="223.675" r="0.798538" fill="#AA50FF"/>
<circle cx="332.506" cy="225.836" r="0.798538" fill="#AA50FF"/>
<circle cx="329.912" cy="228.116" r="0.798538" fill="#AA50FF"/>
<circle cx="327.515" cy="230.337" r="0.798538" fill="#AA50FF"/>
<circle cx="324.513" cy="232.317" r="0.798538" fill="#AA50FF"/>
<circle cx="321.525" cy="233.914" r="0.798538" fill="#AA50FF"/>
<circle cx="318.133" cy="233.914" r="0.798538" fill="#AA50FF"/>
<circle cx="315.133" cy="233.914" r="0.798538" fill="#AA50FF"/>
<circle cx="312.144" cy="233.914" r="0.798538" fill="#AA50FF"/>
<circle cx="309.156" cy="233.914" r="0.798538" fill="#AA50FF"/>
<circle cx="306.355" cy="233.914" r="0.798538" fill="#AA50FF"/>
<circle cx="355.465" cy="213.76" r="0.798538" fill="#AA50FF"/>
<circle cx="358.857" cy="213.76" r="0.798538" fill="#AA50FF"/>
<circle cx="362.252" cy="213.76" r="0.798538" fill="#AA50FF"/>
<circle cx="365.646" cy="213.76" r="0.798538" fill="#AA50FF"/>
<circle cx="369.039" cy="213.76" r="0.798538" fill="#AA50FF"/>
<circle cx="372.433" cy="213.76" r="0.798538" fill="#AA50FF"/>
<circle cx="0.798538" cy="0.798538" r="0.798538" transform="matrix(1 0 0 -1 351.271 201.039)" fill="#AA50FF"/>
<circle cx="0.798538" cy="0.798538" r="0.798538" transform="matrix(1 0 0 -1 347.877 200.679)" fill="#AA50FF"/>
<circle cx="0.798538" cy="0.798538" r="0.798538" transform="matrix(1 0 0 -1 344.877 199.442)" fill="#AA50FF"/>
<circle cx="0.798538" cy="0.798538" r="0.798538" transform="matrix(1 0 0 -1 342.207 197.845)" fill="#AA50FF"/>
<circle cx="0.798538" cy="0.798538" r="0.798538" transform="matrix(1 0 0 -1 339.492 195.624)" fill="#AA50FF"/>
<circle cx="0.798538" cy="0.798538" r="0.798538" transform="matrix(1 0 0 -1 336.898 193.404)" fill="#AA50FF"/>
<circle cx="0.798538" cy="0.798538" r="0.798538" transform="matrix(1 0 0 -1 334.303 191.123)" fill="#AA50FF"/>
<circle cx="0.798538" cy="0.798538" r="0.798538" transform="matrix(1 0 0 -1 331.707 188.963)" fill="#AA50FF"/>
<circle cx="0.798538" cy="0.798538" r="0.798538" transform="matrix(1 0 0 -1 329.113 186.682)" fill="#AA50FF"/>
<circle cx="0.798538" cy="0.798538" r="0.798538" transform="matrix(1 0 0 -1 326.717 184.462)" fill="#AA50FF"/>
<circle cx="0.798538" cy="0.798538" r="0.798538" transform="matrix(1 0 0 -1 323.715 182.481)" fill="#AA50FF"/>
<circle cx="0.798538" cy="0.798538" r="0.798538" transform="matrix(1 0 0 -1 320.727 180.884)" fill="#AA50FF"/>
<circle cx="0.798538" cy="0.798538" r="0.798538" transform="matrix(1 0 0 -1 317.334 180.884)" fill="#AA50FF"/>
<circle cx="0.798538" cy="0.798538" r="0.798538" transform="matrix(1 0 0 -1 314.334 180.884)" fill="#AA50FF"/>
<circle cx="0.798538" cy="0.798538" r="0.798538" transform="matrix(1 0 0 -1 311.346 180.884)" fill="#AA50FF"/>
<circle cx="0.798538" cy="0.798538" r="0.798538" transform="matrix(1 0 0 -1 308.357 180.884)" fill="#AA50FF"/>
<circle cx="0.798538" cy="0.798538" r="0.798538" transform="matrix(1 0 0 -1 305.557 180.884)" fill="#AA50FF"/>
<circle cx="0.798538" cy="0.798538" r="0.798538" transform="matrix(1 0 0 -1 354.666 201.039)" fill="#AA50FF"/>
<circle cx="0.798538" cy="0.798538" r="0.798538" transform="matrix(1 0 0 -1 358.059 201.039)" fill="#AA50FF"/>
<circle cx="0.798538" cy="0.798538" r="0.798538" transform="matrix(1 0 0 -1 361.453 201.039)" fill="#AA50FF"/>
<circle cx="0.798538" cy="0.798538" r="0.798538" transform="matrix(1 0 0 -1 364.848 201.039)" fill="#AA50FF"/>
<circle cx="0.798538" cy="0.798538" r="0.798538" transform="matrix(1 0 0 -1 368.24 201.039)" fill="#AA50FF"/>
<circle cx="0.798538" cy="0.798538" r="0.798538" transform="matrix(1 0 0 -1 371.635 201.039)" fill="#AA50FF"/>
<circle cx="371.633" cy="227.433" r="0.798538" fill="#AA50FF"/>
<circle cx="368.24" cy="227.433" r="0.798538" fill="#AA50FF"/>
<circle cx="364.646" cy="227.433" r="0.798538" fill="#AA50FF"/>
<circle cx="360.654" cy="227.729" r="0.798538" fill="#AA50FF"/>
<circle cx="357.06" cy="229.294" r="0.798538" fill="#AA50FF"/>
<circle cx="354.465" cy="231.135" r="0.798538" fill="#AA50FF"/>
<circle cx="352.07" cy="233.914" r="0.798538" fill="#AA50FF"/>
<circle cx="350.472" cy="237.043" r="0.798538" fill="#AA50FF"/>
<circle cx="348.875" cy="239.918" r="0.798538" fill="#AA50FF"/>
<circle cx="347.279" cy="243.416" r="0.798538" fill="#AA50FF"/>
<circle cx="345.681" cy="246.507" r="0.798538" fill="#AA50FF"/>
<circle cx="344.084" cy="249.93" r="0.798538" fill="#AA50FF"/>
<circle cx="342.207" cy="253.758" r="0.798538" fill="#AA50FF"/>
<circle cx="340.611" cy="257.181" r="0.798538" fill="#AA50FF"/>
<circle cx="338.806" cy="260.806" r="0.798538" fill="#AA50FF"/>
<circle cx="337.211" cy="264.597" r="0.798538" fill="#AA50FF"/>
<circle cx="335.369" cy="268.13" r="0.798538" fill="#AA50FF"/>
<circle cx="333.771" cy="272.289" r="0.798538" fill="#AA50FF"/>
<circle cx="331.707" cy="276.117" r="0.798538" fill="#AA50FF"/>
<circle cx="329.572" cy="280.387" r="0.798538" fill="#AA50FF"/>
<circle cx="327.586" cy="283.7" r="0.798538" fill="#AA50FF"/>
<circle cx="325.082" cy="286.57" r="0.798538" fill="#AA50FF"/>
<circle cx="322.101" cy="287.969" r="0.798538" fill="#AA50FF"/>
<circle cx="318.494" cy="288.768" r="0.798538" fill="#AA50FF"/>
<circle cx="315.218" cy="288.768" r="0.798538" fill="#AA50FF"/>
<circle cx="311.574" cy="288.768" r="0.798538" fill="#AA50FF"/>
<circle cx="308.297" cy="288.768" r="0.798538" fill="#AA50FF"/>
<circle cx="305.021" cy="288.768" r="0.798538" fill="#AA50FF"/>
<circle cx="0.798538" cy="0.798538" r="0.798538" transform="matrix(1 0 0 -1 370.834 187.366)" fill="#AA50FF"/>
<circle cx="0.798538" cy="0.798538" r="0.798538" transform="matrix(1 0 0 -1 367.441 187.366)" fill="#AA50FF"/>
<circle cx="0.798538" cy="0.798538" r="0.798538" transform="matrix(1 0 0 -1 363.848 187.366)" fill="#AA50FF"/>
<circle cx="0.798538" cy="0.798538" r="0.798538" transform="matrix(1 0 0 -1 359.855 187.069)" fill="#AA50FF"/>
<circle cx="0.798538" cy="0.798538" r="0.798538" transform="matrix(1 0 0 -1 356.262 185.505)" fill="#AA50FF"/>
<circle cx="0.798538" cy="0.798538" r="0.798538" transform="matrix(1 0 0 -1 353.666 183.663)" fill="#AA50FF"/>
<circle cx="0.798538" cy="0.798538" r="0.798538" transform="matrix(1 0 0 -1 351.271 180.884)" fill="#AA50FF"/>
<circle cx="0.798538" cy="0.798538" r="0.798538" transform="matrix(1 0 0 -1 349.674 177.756)" fill="#AA50FF"/>
<circle cx="0.798538" cy="0.798538" r="0.798538" transform="matrix(1 0 0 -1 348.076 174.88)" fill="#AA50FF"/>
<circle cx="0.798538" cy="0.798538" r="0.798538" transform="matrix(1 0 0 -1 346.48 171.382)" fill="#AA50FF"/>
<circle cx="0.798538" cy="0.798538" r="0.798538" transform="matrix(1 0 0 -1 344.883 168.291)" fill="#AA50FF"/>
<circle cx="0.798538" cy="0.798538" r="0.798538" transform="matrix(1 0 0 -1 343.285 164.868)" fill="#AA50FF"/>
<circle cx="0.798538" cy="0.798538" r="0.798538" transform="matrix(1 0 0 -1 341.408 161.04)" fill="#AA50FF"/>
<circle cx="0.798538" cy="0.798538" r="0.798538" transform="matrix(1 0 0 -1 339.812 157.617)" fill="#AA50FF"/>
<circle cx="0.798538" cy="0.798538" r="0.798538" transform="matrix(1 0 0 -1 338.008 153.993)" fill="#AA50FF"/>
<circle cx="0.798538" cy="0.798538" r="0.798538" transform="matrix(1 0 0 -1 336.412 150.202)" fill="#AA50FF"/>
<circle cx="0.798538" cy="0.798538" r="0.798538" transform="matrix(1 0 0 -1 334.57 146.668)" fill="#AA50FF"/>
<circle cx="0.798538" cy="0.798538" r="0.798538" transform="matrix(1 0 0 -1 332.973 142.509)" fill="#AA50FF"/>
<circle cx="0.798538" cy="0.798538" r="0.798538" transform="matrix(1 0 0 -1 330.908 138.681)" fill="#AA50FF"/>
<circle cx="0.798538" cy="0.798538" r="0.798538" transform="matrix(1 0 0 -1 328.773 134.411)" fill="#AA50FF"/>
<circle cx="0.798538" cy="0.798538" r="0.798538" transform="matrix(1 0 0 -1 326.787 131.099)" fill="#AA50FF"/>
<circle cx="0.798538" cy="0.798538" r="0.798538" transform="matrix(1 0 0 -1 324.283 128.228)" fill="#AA50FF"/>
<circle cx="0.798538" cy="0.798538" r="0.798538" transform="matrix(1 0 0 -1 321.303 126.829)" fill="#AA50FF"/>
<circle cx="0.798538" cy="0.798538" r="0.798538" transform="matrix(1 0 0 -1 317.695 126.031)" fill="#AA50FF"/>
<circle cx="0.798538" cy="0.798538" r="0.798538" transform="matrix(1 0 0 -1 314.42 126.031)" fill="#AA50FF"/>
<circle cx="0.798538" cy="0.798538" r="0.798538" transform="matrix(1 0 0 -1 310.775 126.031)" fill="#AA50FF"/>
<circle cx="0.798538" cy="0.798538" r="0.798538" transform="matrix(1 0 0 -1 307.498 126.031)" fill="#AA50FF"/>
<circle cx="0.798538" cy="0.798538" r="0.798538" transform="matrix(1 0 0 -1 304.223 126.031)" fill="#AA50FF"/>
<circle cx="371.633" cy="220.519" r="0.798538" fill="#AA50FF"/>
<circle cx="368.24" cy="220.519" r="0.798538" fill="#AA50FF"/>
<circle cx="364.646" cy="220.519" r="0.798538" fill="#AA50FF"/>
<circle cx="360.455" cy="220.519" r="0.798538" fill="#AA50FF"/>
<circle cx="357.06" cy="220.519" r="0.798538" fill="#AA50FF"/>
<circle cx="353.666" cy="221.318" r="0.798538" fill="#AA50FF"/>
<circle cx="350.472" cy="222.992" r="0.798538" fill="#AA50FF"/>
<circle cx="347.877" cy="225.208" r="0.798538" fill="#AA50FF"/>
<circle cx="345.676" cy="228.112" r="0.798538" fill="#AA50FF"/>
<circle cx="343.685" cy="230.891" r="0.798538" fill="#AA50FF"/>
<circle cx="341.408" cy="234.085" r="0.798538" fill="#AA50FF"/>
<circle cx="339.492" cy="237.043" r="0.798538" fill="#AA50FF"/>
<circle cx="337.525" cy="239.918" r="0.798538" fill="#AA50FF"/>
<circle cx="335.271" cy="242.682" r="0.798538" fill="#AA50FF"/>
<circle cx="333.304" cy="245.557" r="0.798538" fill="#AA50FF"/>
<circle cx="331.508" cy="248.104" r="0.798538" fill="#AA50FF"/>
<circle cx="329.111" cy="251.144" r="0.798538" fill="#AA50FF"/>
<circle cx="326.717" cy="254.184" r="0.798538" fill="#AA50FF"/>
<circle cx="324.121" cy="256.813" r="0.798538" fill="#AA50FF"/>
<circle cx="321.525" cy="258.41" r="0.798538" fill="#AA50FF"/>
<circle cx="318.133" cy="259.209" r="0.798538" fill="#AA50FF"/>
<circle cx="315.131" cy="259.209" r="0.798538" fill="#AA50FF"/>
<circle cx="312.131" cy="259.209" r="0.798538" fill="#AA50FF"/>
<circle cx="308.75" cy="259.209" r="0.798538" fill="#AA50FF"/>
<circle cx="305.75" cy="259.209" r="0.798538" fill="#AA50FF"/>
<circle cx="0.798538" cy="0.798538" r="0.798538" transform="matrix(1 0 0 -1 370.834 194.279)" fill="#AA50FF"/>
<circle cx="0.798538" cy="0.798538" r="0.798538" transform="matrix(1 0 0 -1 367.441 194.279)" fill="#AA50FF"/>
<circle cx="0.798538" cy="0.798538" r="0.798538" transform="matrix(1 0 0 -1 363.848 194.279)" fill="#AA50FF"/>
<circle cx="0.798538" cy="0.798538" r="0.798538" transform="matrix(1 0 0 -1 359.656 194.279)" fill="#AA50FF"/>
<circle cx="0.798538" cy="0.798538" r="0.798538" transform="matrix(1 0 0 -1 356.262 194.279)" fill="#AA50FF"/>
<circle cx="0.798538" cy="0.798538" r="0.798538" transform="matrix(1 0 0 -1 352.867 193.48)" fill="#AA50FF"/>
<circle cx="0.798538" cy="0.798538" r="0.798538" transform="matrix(1 0 0 -1 349.674 191.807)" fill="#AA50FF"/>
<circle cx="0.798538" cy="0.798538" r="0.798538" transform="matrix(1 0 0 -1 347.078 189.59)" fill="#AA50FF"/>
<circle cx="0.798538" cy="0.798538" r="0.798538" transform="matrix(1 0 0 -1 344.877 186.686)" fill="#AA50FF"/>
<circle cx="0.798538" cy="0.798538" r="0.798538" transform="matrix(1 0 0 -1 342.887 183.908)" fill="#AA50FF"/>
<circle cx="0.798538" cy="0.798538" r="0.798538" transform="matrix(1 0 0 -1 340.609 180.713)" fill="#AA50FF"/>
<circle cx="0.798538" cy="0.798538" r="0.798538" transform="matrix(1 0 0 -1 338.693 177.756)" fill="#AA50FF"/>
<circle cx="0.798538" cy="0.798538" r="0.798538" transform="matrix(1 0 0 -1 336.727 174.88)" fill="#AA50FF"/>
<circle cx="0.798538" cy="0.798538" r="0.798538" transform="matrix(1 0 0 -1 334.473 172.116)" fill="#AA50FF"/>
<circle cx="0.798538" cy="0.798538" r="0.798538" transform="matrix(1 0 0 -1 332.506 169.241)" fill="#AA50FF"/>
<circle cx="0.798538" cy="0.798538" r="0.798538" transform="matrix(1 0 0 -1 330.709 166.694)" fill="#AA50FF"/>
<circle cx="0.798538" cy="0.798538" r="0.798538" transform="matrix(1 0 0 -1 328.312 163.654)" fill="#AA50FF"/>
<circle cx="0.798538" cy="0.798538" r="0.798538" transform="matrix(1 0 0 -1 325.918 160.615)" fill="#AA50FF"/>
<circle cx="0.798538" cy="0.798538" r="0.798538" transform="matrix(1 0 0 -1 323.322 157.986)" fill="#AA50FF"/>
<circle cx="0.798538" cy="0.798538" r="0.798538" transform="matrix(1 0 0 -1 320.727 156.388)" fill="#AA50FF"/>
<circle cx="0.798538" cy="0.798538" r="0.798538" transform="matrix(1 0 0 -1 317.334 155.59)" fill="#AA50FF"/>
<circle cx="0.798538" cy="0.798538" r="0.798538" transform="matrix(1 0 0 -1 314.332 155.59)" fill="#AA50FF"/>
<circle cx="0.798538" cy="0.798538" r="0.798538" transform="matrix(1 0 0 -1 311.332 155.59)" fill="#AA50FF"/>
<circle cx="0.798538" cy="0.798538" r="0.798538" transform="matrix(1 0 0 -1 307.951 155.59)" fill="#AA50FF"/>
<circle cx="0.798538" cy="0.798538" r="0.798538" transform="matrix(1 0 0 -1 304.951 155.59)" fill="#AA50FF"/>
<circle cx="301.867" cy="259.209" r="0.798538" fill="#AA50FF"/>
<circle cx="298.867" cy="259.209" r="0.798538" fill="#AA50FF"/>
<circle cx="302.142" cy="288.768" r="0.798538" fill="#AA50FF"/>
<circle cx="285.791" cy="288.768" r="0.798538" fill="#AA50FF"/>
<circle cx="298.867" cy="288.768" r="0.798538" fill="#AA50FF"/>
<circle cx="282.515" cy="288.768" r="0.798538" fill="#AA50FF"/>
<circle cx="295.222" cy="288.768" r="0.798538" fill="#AA50FF"/>
<circle cx="278.871" cy="288.768" r="0.798538" fill="#AA50FF"/>
<circle cx="291.945" cy="288.768" r="0.798538" fill="#AA50FF"/>
<circle cx="275.593" cy="288.768" r="0.798538" fill="#AA50FF"/>
<circle cx="288.67" cy="288.768" r="0.798538" fill="#AA50FF"/>
<circle cx="272.318" cy="288.768" r="0.798538" fill="#AA50FF"/>
<circle cx="0.798538" cy="0.798538" r="0.798538" transform="matrix(1 0 0 -1 300.43 126.031)" fill="#AA50FF"/>
<circle cx="0.798538" cy="0.798538" r="0.798538" transform="matrix(1 0 0 -1 283.27 126.031)" fill="#AA50FF"/>
<circle cx="0.798538" cy="0.798538" r="0.798538" transform="matrix(1 0 0 -1 266.109 126.031)" fill="#AA50FF"/>
<circle cx="0.798538" cy="0.798538" r="0.798538" transform="matrix(1 0 0 -1 297.154 126.031)" fill="#AA50FF"/>
<circle cx="0.798538" cy="0.798538" r="0.798538" transform="matrix(1 0 0 -1 279.994 126.031)" fill="#AA50FF"/>
<circle cx="0.798538" cy="0.798538" r="0.798538" transform="matrix(1 0 0 -1 262.834 126.031)" fill="#AA50FF"/>
<circle cx="0.798538" cy="0.798538" r="0.798538" transform="matrix(1 0 0 -1 293.51 126.031)" fill="#AA50FF"/>
<circle cx="0.798538" cy="0.798538" r="0.798538" transform="matrix(1 0 0 -1 276.35 126.031)" fill="#AA50FF"/>
<circle cx="0.798538" cy="0.798538" r="0.798538" transform="matrix(1 0 0 -1 259.189 126.031)" fill="#AA50FF"/>
<circle cx="0.798538" cy="0.798538" r="0.798538" transform="matrix(1 0 0 -1 290.232 126.031)" fill="#AA50FF"/>
<circle cx="0.798538" cy="0.798538" r="0.798538" transform="matrix(1 0 0 -1 273.072 126.031)" fill="#AA50FF"/>
<circle cx="0.798538" cy="0.798538" r="0.798538" transform="matrix(1 0 0 -1 255.912 126.031)" fill="#AA50FF"/>
<circle cx="0.798538" cy="0.798538" r="0.798538" transform="matrix(1 0 0 -1 286.957 126.031)" fill="#AA50FF"/>
<circle cx="0.798538" cy="0.798538" r="0.798538" transform="matrix(1 0 0 -1 269.797 126.031)" fill="#AA50FF"/>
<circle cx="0.798538" cy="0.798538" r="0.798538" transform="matrix(1 0 0 -1 252.637 126.031)" fill="#AA50FF"/>
<circle cx="0.798538" cy="0.798538" r="0.798538" transform="matrix(1 0 0 -1 302.027 155.59)" fill="#AA50FF"/>
<circle cx="0.798538" cy="0.798538" r="0.798538" transform="matrix(1 0 0 -1 299.027 155.59)" fill="#AA50FF"/>
<circle cx="0.798538" cy="0.798538" r="0.798538" transform="matrix(1 0 0 -1 295.646 155.59)" fill="#AA50FF"/>
</mask>
<g mask="url(#mask0_2297_12849)">
<g filter="url(#filter0_f_2297_12849)">
<ellipse cx="319.292" cy="208.187" rx="77.1927" ry="104.857" fill="url(#paint100_radial_2297_12849)" style="mix-blend-mode:overlay"/>
</g>
</g>
<path d="M443.701 415.516C402.119 415.516 368.41 381.808 368.41 340.225C368.41 298.643 402.119 264.934 443.701 264.934C485.283 264.934 518.992 298.643 518.992 340.225C518.992 381.808 485.283 415.516 443.701 415.516Z" stroke="#139EED" stroke-width="0.805862" stroke-linecap="round" stroke-linejoin="round" stroke-dasharray="0.09 14.57"/>
<path d="M323.073 96.005C323.431 96.2117 323.431 96.7288 323.073 96.9355L320.603 98.3618C320.245 98.5686 319.797 98.31 319.797 97.8966L319.797 95.0439C319.797 94.6305 320.245 94.3719 320.603 94.5787L323.073 96.005Z" fill="#EFDDFF"/>
<path d="M524.915 353.51C525.273 353.717 525.273 354.233 524.915 354.441L521.991 356.129C521.633 356.335 521.185 356.077 521.185 355.663L521.185 352.287C521.185 351.874 521.633 351.615 521.991 351.822L524.915 353.51Z" fill="#8200FF"/>
<path d="M402.278 255.415C402.415 255.603 402.415 255.858 402.278 256.047L400.857 258.003C400.72 258.191 400.477 258.27 400.256 258.198L397.956 257.451C397.735 257.379 397.585 257.173 397.585 256.94L397.585 254.522C397.585 254.289 397.735 254.083 397.956 254.011L400.256 253.263C400.477 253.192 400.72 253.27 400.857 253.458L402.278 255.415Z" fill="#8200FF"/>
<path d="M345.404 255.731C344.569 255.731 343.892 255.054 343.892 254.219C343.892 253.384 344.569 252.707 345.404 252.707C346.239 252.707 346.916 253.384 346.916 254.219C346.916 255.054 346.239 255.731 345.404 255.731Z" fill="#EFDDFF"/>
<path d="M191.055 341.737C190.219 341.737 189.543 341.06 189.543 340.225C189.543 339.39 190.219 338.713 191.055 338.713C191.89 338.713 192.566 339.39 192.566 340.225C192.566 341.06 191.89 341.737 191.055 341.737Z" fill="#EFDDFF"/>
<path d="M406.904 315.798C407.152 315.878 407.152 316.228 406.904 316.309L405.682 316.706C405.572 316.742 405.496 316.845 405.496 316.961L405.496 318.246C405.496 318.506 405.163 318.615 405.01 318.404L404.256 317.365C404.187 317.27 404.066 317.231 403.955 317.267L402.733 317.664C402.486 317.744 402.28 317.461 402.433 317.251L403.188 316.211C403.256 316.117 403.256 315.989 403.188 315.895L402.433 314.856C402.28 314.646 402.486 314.362 402.733 314.442L403.955 314.84C404.066 314.876 404.187 314.836 404.256 314.742L405.01 313.703C405.163 313.492 405.496 313.601 405.496 313.861L405.496 315.146C405.496 315.262 405.572 315.365 405.682 315.401L406.904 315.798Z" fill="#8200FF"/>
<path d="M484.566 400.864C483.636 401.49 482.687 402.096 481.721 402.684L481.411 402.175C480.934 402.466 480.451 402.751 479.965 403.032C479.478 403.313 478.99 403.588 478.5 403.856L478.786 404.379C477.793 404.922 476.794 405.44 475.787 405.933L475.525 405.397C474.518 405.891 473.504 406.358 472.484 406.801L472.721 407.347C471.684 407.797 470.64 408.221 469.592 408.62L469.381 408.062C468.333 408.461 467.28 408.833 466.223 409.179L466.408 409.745C465.335 410.097 464.257 410.423 463.175 410.722L463.016 410.148C461.936 410.447 460.853 410.72 459.767 410.967L459.899 411.548C458.798 411.798 457.694 412.022 456.588 412.22L456.483 411.634C455.381 411.831 454.277 412.002 453.172 412.147L453.249 412.738C452.131 412.885 451.011 413.005 449.891 413.099L449.841 412.506C448.726 412.599 447.611 412.667 446.496 412.709L446.519 413.305C445.392 413.347 444.265 413.363 443.141 413.354L443.146 412.758C442.028 412.748 440.911 412.713 439.797 412.652L439.764 413.247C438.639 413.185 437.516 413.097 436.396 412.984L436.457 412.391C435.345 412.278 434.236 412.14 433.132 411.977L433.044 412.566C431.93 412.401 430.82 412.211 429.715 411.995L429.829 411.41C428.733 411.196 427.641 410.956 426.556 410.692L426.415 411.271C425.321 411.005 424.233 410.713 423.152 410.397L423.32 409.825C422.248 409.511 421.183 409.173 420.126 408.81L419.933 409.374C418.868 409.008 417.812 408.618 416.764 408.204L416.983 407.65C415.945 407.239 414.916 406.804 413.896 406.346L413.652 406.889C412.626 406.428 411.609 405.942 410.604 405.433L410.873 404.901C409.878 404.397 408.893 403.87 407.92 403.319L407.626 403.838C406.647 403.284 405.68 402.707 404.725 402.106L405.043 401.602C404.098 401.008 403.167 400.392 402.248 399.753L401.908 400.242C400.985 399.601 400.075 398.936 399.18 398.25L399.542 397.777C398.658 397.099 397.787 396.399 396.931 395.677L396.547 396.132C395.688 395.408 394.844 394.662 394.016 393.895L394.421 393.457C393.604 392.7 392.802 391.923 392.017 391.124L391.592 391.542C390.805 390.741 390.034 389.92 389.28 389.079L389.724 388.681C388.982 387.853 388.256 387.004 387.548 386.135L387.086 386.512C386.377 385.643 385.686 384.754 385.012 383.846L385.491 383.491C384.829 382.598 384.185 381.686 383.559 380.755L383.064 381.087C382.439 380.158 381.832 379.209 381.244 378.242L381.753 377.933C381.463 377.455 381.177 376.973 380.896 376.487C380.616 376 380.341 375.512 380.073 375.022L379.55 375.308C379.007 374.315 378.489 373.315 377.996 372.309L378.531 372.047C378.038 371.039 377.57 370.025 377.128 369.005L376.581 369.242C376.131 368.205 375.707 367.162 375.309 366.114L375.866 365.902C375.468 364.855 375.096 363.802 374.749 362.744L374.183 362.93C373.831 361.856 373.506 360.778 373.206 359.697L373.78 359.538C373.481 358.458 373.209 357.375 372.962 356.289L372.381 356.421C372.13 355.32 371.906 354.216 371.708 353.11L372.295 353.005C372.098 351.903 371.927 350.799 371.782 349.694L371.191 349.771C371.044 348.653 370.923 347.533 370.829 346.412L371.423 346.362C371.329 345.248 371.261 344.132 371.219 343.018L370.624 343.04C370.581 341.914 370.565 340.787 370.575 339.663L371.171 339.668C371.18 338.55 371.216 337.433 371.277 336.319L370.682 336.286C370.744 335.161 370.831 334.038 370.945 332.918L371.538 332.978C371.65 331.866 371.788 330.758 371.952 329.653L371.362 329.566C371.527 328.452 371.718 327.342 371.934 326.237L372.519 326.351C372.733 325.254 372.972 324.163 373.236 323.078L372.657 322.937C372.924 321.843 373.215 320.755 373.532 319.674L374.104 319.841C374.417 318.77 374.756 317.705 375.118 316.648L374.555 316.455C374.92 315.39 375.31 314.333 375.725 313.286L376.279 313.505C376.689 312.467 377.124 311.438 377.583 310.418L377.039 310.174C377.501 309.148 377.986 308.131 378.495 307.126L379.027 307.395C379.531 306.4 380.059 305.415 380.609 304.442L380.091 304.148C380.645 303.169 381.222 302.202 381.822 301.247L382.327 301.564C382.92 300.62 383.537 299.689 384.175 298.77L383.686 298.43C384.328 297.507 384.992 296.597 385.679 295.702L386.152 296.064C386.83 295.18 387.53 294.309 388.252 293.453L387.796 293.069C388.521 292.21 389.267 291.366 390.034 290.538L390.471 290.943C391.228 290.126 392.006 289.324 392.805 288.539L392.387 288.114C393.187 287.327 394.008 286.556 394.849 285.802L395.247 286.246C396.076 285.504 396.925 284.778 397.793 284.069L397.417 283.608C398.286 282.899 399.174 282.208 400.082 281.534L400.437 282.013C401.33 281.351 402.243 280.707 403.174 280.081L402.841 279.586C403.771 278.961 404.719 278.354 405.686 277.766L405.996 278.275C406.473 277.985 406.955 277.699 407.442 277.418C407.928 277.137 408.417 276.863 408.907 276.594L408.621 276.072C409.613 275.528 410.613 275.011 411.619 274.518L411.882 275.053C412.889 274.56 413.903 274.092 414.923 273.65L414.686 273.103C415.723 272.653 416.766 272.229 417.815 271.831L418.026 272.388C419.074 271.99 420.127 271.618 421.184 271.271L420.999 270.705C422.072 270.353 423.15 270.028 424.232 269.728L424.391 270.302C425.47 270.003 426.554 269.73 427.64 269.483L427.508 268.902C428.609 268.652 429.713 268.428 430.819 268.23L430.924 268.817C432.026 268.62 433.13 268.449 434.235 268.303L434.157 267.713C435.276 267.566 436.396 267.445 437.516 267.351L437.566 267.945C438.681 267.851 439.796 267.783 440.911 267.741L440.888 267.146C442.015 267.103 443.141 267.087 444.266 267.097L444.261 267.693C445.379 267.702 446.496 267.738 447.61 267.799L447.642 267.204C448.768 267.266 449.891 267.353 451.01 267.467L450.95 268.06C452.062 268.172 453.171 268.31 454.275 268.474L454.362 267.884C455.477 268.049 456.587 268.24 457.692 268.456L457.578 269.04C458.674 269.255 459.765 269.494 460.85 269.758L460.991 269.179C462.086 269.446 463.174 269.737 464.254 270.053L464.087 270.625C465.159 270.939 466.224 271.278 467.28 271.64L467.474 271.077C468.539 271.442 469.595 271.832 470.643 272.247L470.424 272.801C471.462 273.211 472.491 273.646 473.51 274.105L473.755 273.561C474.781 274.023 475.797 274.508 476.803 275.017L476.534 275.549C477.529 276.053 478.514 276.581 479.487 277.131L479.78 276.613C480.759 277.167 481.727 277.744 482.681 278.344L482.364 278.849C483.308 279.442 484.24 280.058 485.159 280.697L485.499 280.208C486.422 280.85 487.331 281.514 488.227 282.201L487.864 282.673C488.749 283.352 489.619 284.052 490.475 284.774L490.859 284.318C491.718 285.042 492.562 285.788 493.391 286.556L492.986 286.993C493.803 287.75 494.605 288.528 495.39 289.327L495.815 288.909C496.602 289.709 497.373 290.53 498.126 291.371L497.683 291.769C498.425 292.598 499.151 293.446 499.859 294.315L500.321 293.938C501.03 294.807 501.721 295.696 502.394 296.604L501.916 296.959C502.578 297.852 503.222 298.765 503.848 299.695L504.342 299.363C504.968 300.293 505.575 301.241 506.162 302.208L505.653 302.518C505.944 302.995 506.229 303.477 506.51 303.964C506.791 304.45 507.066 304.939 507.334 305.429L507.857 305.143C508.4 306.135 508.918 307.135 509.411 308.141L508.876 308.403C509.369 309.411 509.836 310.425 510.279 311.445L510.826 311.208C511.275 312.245 511.699 313.288 512.098 314.336L511.541 314.548C511.939 315.596 512.311 316.649 512.657 317.706L513.224 317.52C513.575 318.594 513.901 319.672 514.201 320.754L513.626 320.913C513.925 321.992 514.198 323.075 514.445 324.162L515.026 324.029C515.277 325.13 515.501 326.234 515.698 327.34L515.112 327.445C515.309 328.547 515.48 329.651 515.625 330.757L516.216 330.679C516.363 331.798 516.483 332.918 516.578 334.038L515.984 334.088C516.078 335.203 516.145 336.318 516.187 337.432L516.783 337.41C516.825 338.537 516.842 339.663 516.832 340.788L516.236 340.783C516.226 341.901 516.191 343.017 516.13 344.132L516.725 344.164C516.663 345.29 516.575 346.413 516.462 347.532L515.869 347.472C515.756 348.584 515.618 349.693 515.455 350.797L516.044 350.884C515.879 351.999 515.689 353.109 515.473 354.214L514.888 354.099C514.674 355.196 514.435 356.287 514.17 357.372L514.749 357.513C514.483 358.608 514.191 359.695 513.875 360.776L513.303 360.609C512.989 361.681 512.651 362.745 512.288 363.802L512.852 363.996C512.486 365.06 512.096 366.117 511.682 367.165L511.128 366.946C510.717 367.984 510.283 369.013 509.824 370.032L510.368 370.277C509.906 371.303 509.42 372.319 508.911 373.325L508.38 373.055C507.875 374.051 507.348 375.036 506.797 376.009L507.316 376.302C506.762 377.281 506.185 378.248 505.585 379.203L505.08 378.886C504.486 379.83 503.87 380.762 503.231 381.68L503.721 382.021C503.079 382.944 502.415 383.853 501.728 384.749L501.255 384.386C500.577 385.271 499.877 386.141 499.155 386.997L499.611 387.381C498.886 388.24 498.14 389.084 497.373 389.913L496.936 389.508C496.179 390.325 495.401 391.126 494.602 391.912L495.02 392.337C494.22 393.124 493.399 393.894 492.557 394.648L492.16 394.204C491.331 394.947 490.482 395.673 489.614 396.381L489.99 396.843C489.121 397.551 488.232 398.243 487.324 398.916L486.969 398.437C486.076 399.099 485.164 399.744 484.233 400.37L484.566 400.864Z" stroke="#A950FF" stroke-width="1.19179" stroke-linejoin="round" stroke-dasharray="3.34 3.34"/>
<path d="M384.23 293.596C384.23 286.165 390.254 280.141 397.685 280.141H491.127C498.558 280.141 504.582 286.165 504.582 293.596V387.038C504.582 394.469 498.558 400.492 491.127 400.492H397.685C390.254 400.492 384.23 394.469 384.23 387.038V293.596Z" fill="#2C0059"/>
<path d="M441.451 330.653C443.083 329.02 445.729 329.02 447.362 330.653L454.071 337.362C455.703 338.994 455.703 341.64 454.071 343.272L447.362 349.982C445.729 351.614 443.083 351.614 441.451 349.982L434.742 343.272C433.109 341.64 433.109 338.994 434.742 337.362L441.451 330.653Z" fill="#A950FF"/>
<path d="M472.353 330.599C473.955 328.996 476.554 328.996 478.157 330.599L484.972 337.414C486.575 339.017 486.575 341.616 484.972 343.219L478.157 350.034C476.554 351.637 473.955 351.637 472.353 350.034L465.538 343.219C463.935 341.616 463.935 339.017 465.538 337.414L472.353 330.599Z" fill="#A950FF"/>
<path d="M441.504 299.751C443.107 298.148 445.706 298.148 447.309 299.751L454.124 306.566C455.727 308.169 455.727 310.768 454.124 312.371L447.309 319.186C445.706 320.789 443.107 320.789 441.504 319.186L434.689 312.371C433.086 310.768 433.086 308.169 434.689 306.566L441.504 299.751Z" fill="#E9C1FF"/>
<path d="M438.648 321.938C440.28 323.57 440.28 326.216 438.648 327.848L431.939 334.558C430.306 336.19 427.66 336.19 426.028 334.558L419.319 327.848C417.687 326.216 417.687 323.57 419.319 321.938L426.028 315.228C427.66 313.596 430.306 313.596 431.939 315.228L438.648 321.938Z" fill="#CD88FF"/>
<path d="M423.276 337.414C424.879 339.017 424.879 341.616 423.276 343.219L416.461 350.034C414.858 351.637 412.259 351.637 410.656 350.034L403.841 343.219C402.238 341.616 402.238 339.017 403.841 337.414L410.656 330.599C412.259 328.996 414.858 328.996 416.461 330.599L423.276 337.414Z" fill="#A950FF"/>
<path d="M469.495 321.938C471.128 323.57 471.128 326.216 469.495 327.848L462.786 334.558C461.154 336.19 458.508 336.19 456.876 334.558L450.166 327.848C448.534 326.216 448.534 323.57 450.166 321.938L456.876 315.228C458.508 313.596 461.154 313.596 462.786 315.228L469.495 321.938Z" fill="#CD88FF"/>
<path d="M451.009 366.001C454.656 369.647 454.656 375.559 451.009 379.206C447.363 382.852 441.451 382.852 437.804 379.206C434.158 375.559 434.158 369.647 437.804 366.001C441.451 362.354 447.363 362.354 451.009 366.001Z" fill="#F62E76"/>
<g filter="url(#filter1_d_2297_12849)">
<rect x="73.9922" y="14.4346" width="100" height="84" rx="8" fill="white" shape-rendering="crispEdges"/>
<circle cx="82.4713" cy="22.7728" r="2.78968" fill="#9F9DFF"/>
<circle cx="91.5397" cy="22.7728" r="2.78968" fill="#9F9DFF"/>
<circle cx="100.606" cy="22.7728" r="2.78968" fill="#9F9DFF"/>
<path d="M114.445 60.3725V65.2616L99.4763 59.4973V54.8194L114.445 49.0551V53.8839L105.693 57.2036L114.445 60.3725ZM116.421 67.4346L124.116 45.6146H128.01L120.314 67.4346H116.421ZM130.128 60.3725L138.91 57.2036L130.128 53.8839V49.0551L145.127 54.8194V59.4973L130.128 65.2616V60.3725Z" fill="#8405FF"/>
</g>
<path d="M132.23 207H141.23" stroke="#9F9DFF" stroke-width="2"/>
<path fill-rule="evenodd" clip-rule="evenodd" d="M125.23 215C129.649 215 133.23 211.418 133.23 207C133.23 202.582 129.649 199 125.23 199C120.812 199 117.23 202.582 117.23 207C117.23 211.418 120.812 215 125.23 215ZM125.23 213C128.544 213 131.23 210.314 131.23 207C131.23 203.686 128.544 201 125.23 201C121.917 201 119.23 203.686 119.23 207C119.23 210.314 121.917 213 125.23 213ZM129.23 207C129.23 209.209 127.44 211 125.23 211C123.021 211 121.23 209.209 121.23 207C121.23 204.791 123.021 203 125.23 203C127.44 203 129.23 204.791 129.23 207Z" fill="#9F9DFF"/>
<path fill-rule="evenodd" clip-rule="evenodd" d="M145.23 207L137.23 213V201L145.23 207Z" fill="#9F9DFF"/>
<path d="M125.23 105L125.23 195" stroke="#9F9DFF" stroke-width="2"/>
<path fill-rule="evenodd" clip-rule="evenodd" d="M117.23 98C117.23 102.418 120.812 106 125.23 106C129.649 106 133.23 102.418 133.23 98C133.23 93.5817 129.649 90 125.23 90C120.812 90 117.23 93.5817 117.23 98ZM119.23 98C119.23 101.314 121.917 104 125.23 104C128.544 104 131.23 101.314 131.23 98C131.23 94.6863 128.544 92 125.23 92C121.917 92 119.23 94.6863 119.23 98ZM125.23 102C123.021 102 121.23 100.209 121.23 98C121.23 95.7909 123.021 94 125.23 94C127.44 94 129.23 95.7909 129.23 98C129.23 100.209 127.44 102 125.23 102Z" fill="#9F9DFF"/>
<path fill-rule="evenodd" clip-rule="evenodd" d="M125.23 199L119.23 191L131.23 191L125.23 199Z" fill="#9F9DFF"/>
<path d="M444.906 214L444.906 276" stroke="#9F9DFF" stroke-width="2"/>
<path fill-rule="evenodd" clip-rule="evenodd" d="M436.906 207C436.906 211.418 440.488 215 444.906 215C449.325 215 452.906 211.418 452.906 207C452.906 202.582 449.325 199 444.906 199C440.488 199 436.906 202.582 436.906 207ZM438.906 207C438.906 210.314 441.593 213 444.906 213C448.22 213 450.906 210.314 450.906 207C450.906 203.686 448.22 201 444.906 201C441.593 201 438.906 203.686 438.906 207ZM444.906 211C442.697 211 440.906 209.209 440.906 207C440.906 204.791 442.697 203 444.906 203C447.115 203 448.906 204.791 448.906 207C448.906 209.209 447.115 211 444.906 211Z" fill="#9F9DFF"/>
<path fill-rule="evenodd" clip-rule="evenodd" d="M444.906 280L438.906 272L450.906 272L444.906 280Z" fill="#9F9DFF"/>
<g filter="url(#filter2_d_2297_12849)">
<path d="M155.068 235.174C140.613 220.719 140.613 197.281 155.068 182.826L217.556 120.338C232.012 105.882 255.449 105.882 269.905 120.338L332.393 182.826C346.849 197.281 346.849 220.719 332.393 235.174L269.905 297.662C255.449 312.118 232.012 312.118 217.556 297.662L155.068 235.174Z" fill="white"/>
</g>
<path fill-rule="evenodd" clip-rule="evenodd" d="M243.781 145.887C209.869 145.887 182.455 173.504 182.455 207.669C182.455 234.979 200.02 258.096 224.388 266.278C227.434 266.893 228.55 264.949 228.55 263.313C228.55 261.881 228.45 256.971 228.45 251.856C211.391 255.539 207.838 244.491 207.838 244.491C205.097 237.331 201.035 235.491 201.035 235.491C195.451 231.706 201.441 231.706 201.441 231.706C207.635 232.115 210.885 238.048 210.885 238.048C216.367 247.458 225.2 244.799 228.754 243.162C229.261 239.173 230.886 236.411 232.613 234.877C219.006 233.445 204.691 228.126 204.691 204.395C204.691 197.644 207.126 192.121 210.985 187.825C210.376 186.291 208.244 179.948 211.595 171.459C211.595 171.459 216.773 169.822 228.449 177.801C233.447 176.448 238.602 175.76 243.781 175.754C248.959 175.754 254.237 176.471 259.112 177.801C270.788 169.822 275.966 171.459 275.966 171.459C279.318 179.948 277.184 186.291 276.575 187.825C280.536 192.121 282.87 197.644 282.87 204.395C282.87 228.126 268.555 233.342 254.847 234.877C257.082 236.82 259.01 240.502 259.01 246.333C259.01 254.618 258.909 261.267 258.909 263.312C258.909 264.949 260.027 266.893 263.072 266.279C287.44 258.095 305.005 234.979 305.005 207.669C305.105 173.504 277.591 145.887 243.781 145.887Z" fill="#24292F"/>
<path d="M349.23 207H431.23" stroke="#9F9DFF" stroke-width="2"/>
<path fill-rule="evenodd" clip-rule="evenodd" d="M342.23 215C346.649 215 350.23 211.418 350.23 207C350.23 202.582 346.649 199 342.23 199C337.812 199 334.23 202.582 334.23 207C334.23 211.418 337.812 215 342.23 215ZM342.23 213C345.544 213 348.23 210.314 348.23 207C348.23 203.686 345.544 201 342.23 201C338.917 201 336.23 203.686 336.23 207C336.23 210.314 338.917 213 342.23 213ZM346.23 207C346.23 209.209 344.44 211 342.23 211C340.021 211 338.23 209.209 338.23 207C338.23 204.791 340.021 203 342.23 203C344.44 203 346.23 204.791 346.23 207Z" fill="#9F9DFF"/>
<path fill-rule="evenodd" clip-rule="evenodd" d="M435.23 207L427.23 213V201L435.23 207Z" fill="#9F9DFF"/>
<defs>
<filter id="filter0_f_2297_12849" x="208.209" y="69.44" width="222.166" height="277.494" filterUnits="userSpaceOnUse" color-interpolation-filters="sRGB">
<feFlood flood-opacity="0" result="BackgroundImageFix"/>
<feBlend mode="normal" in="SourceGraphic" in2="BackgroundImageFix" result="shape"/>
<feGaussianBlur stdDeviation="16.9452" result="effect1_foregroundBlur_2297_12849"/>
</filter>
<filter id="filter1_d_2297_12849" x="49.9922" y="14.4346" width="148" height="132" filterUnits="userSpaceOnUse" color-interpolation-filters="sRGB">
<feFlood flood-opacity="0" result="BackgroundImageFix"/>
<feColorMatrix in="SourceAlpha" type="matrix" values="0 0 0 0 0 0 0 0 0 0 0 0 0 0 0 0 0 0 127 0" result="hardAlpha"/>
<feOffset dy="24"/>
<feGaussianBlur stdDeviation="12"/>
<feComposite in2="hardAlpha" operator="out"/>
<feColorMatrix type="matrix" values="0 0 0 0 0.86125 0 0 0 0 0.87883 0 0 0 0 0.975 0 0 0 0.5 0"/>
<feBlend mode="normal" in2="BackgroundImageFix" result="effect1_dropShadow_2297_12849"/>
<feBlend mode="normal" in="SourceGraphic" in2="effect1_dropShadow_2297_12849" result="shape"/>
</filter>
<filter id="filter2_d_2297_12849" x="120.227" y="100.496" width="247.008" height="247.008" filterUnits="userSpaceOnUse" color-interpolation-filters="sRGB">
<feFlood flood-opacity="0" result="BackgroundImageFix"/>
<feColorMatrix in="SourceAlpha" type="matrix" values="0 0 0 0 0 0 0 0 0 0 0 0 0 0 0 0 0 0 127 0" result="hardAlpha"/>
<feOffset dy="15"/>
<feGaussianBlur stdDeviation="12"/>
<feComposite in2="hardAlpha" operator="out"/>
<feColorMatrix type="matrix" values="0 0 0 0 0.892667 0 0 0 0 0.808333 0 0 0 0 1 0 0 0 0.34 0"/>
<feBlend mode="normal" in2="BackgroundImageFix" result="effect1_dropShadow_2297_12849"/>
<feBlend mode="normal" in="SourceGraphic" in2="effect1_dropShadow_2297_12849" result="shape"/>
</filter>
<linearGradient id="paint0_linear_2297_12849" x1="284.598" y1="46.98" x2="284.598" y2="371.02" gradientUnits="userSpaceOnUse">
<stop stop-color="#B2F5F5"/>
<stop offset="1" stop-color="#B2F5F5"/>
</linearGradient>
<linearGradient id="paint1_linear_2297_12849" x1="284.598" y1="46.98" x2="284.598" y2="371.02" gradientUnits="userSpaceOnUse">
<stop stop-color="#B2F5F5"/>
<stop offset="1" stop-color="#B2F5F5"/>
</linearGradient>
<linearGradient id="paint2_linear_2297_12849" x1="284.598" y1="46.98" x2="284.598" y2="371.02" gradientUnits="userSpaceOnUse">
<stop stop-color="#B2F5F5"/>
<stop offset="1" stop-color="#B2F5F5"/>
</linearGradient>
<linearGradient id="paint3_linear_2297_12849" x1="284.598" y1="46.98" x2="284.598" y2="371.02" gradientUnits="userSpaceOnUse">
<stop stop-color="#B2F5F5"/>
<stop offset="1" stop-color="#B2F5F5"/>
</linearGradient>
<linearGradient id="paint4_linear_2297_12849" x1="284.598" y1="46.98" x2="284.598" y2="371.02" gradientUnits="userSpaceOnUse">
<stop stop-color="#B2F5F5"/>
<stop offset="1" stop-color="#B2F5F5"/>
</linearGradient>
<linearGradient id="paint5_linear_2297_12849" x1="284.598" y1="46.98" x2="284.598" y2="371.02" gradientUnits="userSpaceOnUse">
<stop stop-color="#B2F5F5"/>
<stop offset="1" stop-color="#B2F5F5"/>
</linearGradient>
<linearGradient id="paint6_linear_2297_12849" x1="284.598" y1="46.98" x2="284.598" y2="371.02" gradientUnits="userSpaceOnUse">
<stop stop-color="#B2F5F5"/>
<stop offset="1" stop-color="#B2F5F5"/>
</linearGradient>
<linearGradient id="paint7_linear_2297_12849" x1="284.598" y1="46.98" x2="284.598" y2="371.02" gradientUnits="userSpaceOnUse">
<stop stop-color="#B2F5F5"/>
<stop offset="1" stop-color="#B2F5F5"/>
</linearGradient>
<linearGradient id="paint8_linear_2297_12849" x1="284.598" y1="46.98" x2="284.598" y2="371.02" gradientUnits="userSpaceOnUse">
<stop stop-color="#B2F5F5"/>
<stop offset="1" stop-color="#B2F5F5"/>
</linearGradient>
<linearGradient id="paint9_linear_2297_12849" x1="284.598" y1="46.98" x2="284.598" y2="371.02" gradientUnits="userSpaceOnUse">
<stop stop-color="#B2F5F5"/>
<stop offset="1" stop-color="#B2F5F5"/>
</linearGradient>
<linearGradient id="paint10_linear_2297_12849" x1="284.598" y1="46.98" x2="284.598" y2="371.02" gradientUnits="userSpaceOnUse">
<stop stop-color="#B2F5F5"/>
<stop offset="1" stop-color="#B2F5F5"/>
</linearGradient>
<linearGradient id="paint11_linear_2297_12849" x1="284.598" y1="46.98" x2="284.598" y2="371.02" gradientUnits="userSpaceOnUse">
<stop stop-color="#B2F5F5"/>
<stop offset="1" stop-color="#B2F5F5"/>
</linearGradient>
<linearGradient id="paint12_linear_2297_12849" x1="284.598" y1="46.98" x2="284.598" y2="371.02" gradientUnits="userSpaceOnUse">
<stop stop-color="#B2F5F5"/>
<stop offset="1" stop-color="#B2F5F5"/>
</linearGradient>
<linearGradient id="paint13_linear_2297_12849" x1="284.598" y1="46.98" x2="284.598" y2="371.02" gradientUnits="userSpaceOnUse">
<stop stop-color="#B2F5F5"/>
<stop offset="1" stop-color="#B2F5F5"/>
</linearGradient>
<linearGradient id="paint14_linear_2297_12849" x1="284.598" y1="46.98" x2="284.598" y2="371.02" gradientUnits="userSpaceOnUse">
<stop stop-color="#B2F5F5"/>
<stop offset="1" stop-color="#B2F5F5"/>
</linearGradient>
<linearGradient id="paint15_linear_2297_12849" x1="284.598" y1="46.98" x2="284.598" y2="371.02" gradientUnits="userSpaceOnUse">
<stop stop-color="#B2F5F5"/>
<stop offset="1" stop-color="#B2F5F5"/>
</linearGradient>
<linearGradient id="paint16_linear_2297_12849" x1="284.598" y1="46.98" x2="284.598" y2="371.02" gradientUnits="userSpaceOnUse">
<stop stop-color="#B2F5F5"/>
<stop offset="1" stop-color="#B2F5F5"/>
</linearGradient>
<linearGradient id="paint17_linear_2297_12849" x1="284.598" y1="46.98" x2="284.598" y2="371.02" gradientUnits="userSpaceOnUse">
<stop stop-color="#B2F5F5"/>
<stop offset="1" stop-color="#B2F5F5"/>
</linearGradient>
<linearGradient id="paint18_linear_2297_12849" x1="284.598" y1="46.98" x2="284.598" y2="371.02" gradientUnits="userSpaceOnUse">
<stop stop-color="#B2F5F5"/>
<stop offset="1" stop-color="#B2F5F5"/>
</linearGradient>
<linearGradient id="paint19_linear_2297_12849" x1="284.598" y1="46.98" x2="284.598" y2="371.02" gradientUnits="userSpaceOnUse">
<stop stop-color="#B2F5F5"/>
<stop offset="1" stop-color="#B2F5F5"/>
</linearGradient>
<linearGradient id="paint20_linear_2297_12849" x1="284.598" y1="46.98" x2="284.598" y2="371.02" gradientUnits="userSpaceOnUse">
<stop stop-color="#B2F5F5"/>
<stop offset="1" stop-color="#B2F5F5"/>
</linearGradient>
<linearGradient id="paint21_linear_2297_12849" x1="284.598" y1="46.98" x2="284.598" y2="371.02" gradientUnits="userSpaceOnUse">
<stop stop-color="#B2F5F5"/>
<stop offset="1" stop-color="#B2F5F5"/>
</linearGradient>
<linearGradient id="paint22_linear_2297_12849" x1="284.598" y1="46.98" x2="284.598" y2="371.02" gradientUnits="userSpaceOnUse">
<stop stop-color="#B2F5F5"/>
<stop offset="1" stop-color="#B2F5F5"/>
</linearGradient>
<linearGradient id="paint23_linear_2297_12849" x1="284.598" y1="46.98" x2="284.598" y2="371.02" gradientUnits="userSpaceOnUse">
<stop stop-color="#B2F5F5"/>
<stop offset="1" stop-color="#B2F5F5"/>
</linearGradient>
<linearGradient id="paint24_linear_2297_12849" x1="284.598" y1="46.98" x2="284.598" y2="371.02" gradientUnits="userSpaceOnUse">
<stop stop-color="#B2F5F5"/>
<stop offset="1" stop-color="#B2F5F5"/>
</linearGradient>
<linearGradient id="paint25_linear_2297_12849" x1="284.598" y1="46.98" x2="284.598" y2="371.02" gradientUnits="userSpaceOnUse">
<stop stop-color="#B2F5F5"/>
<stop offset="1" stop-color="#B2F5F5"/>
</linearGradient>
<linearGradient id="paint26_linear_2297_12849" x1="284.598" y1="46.98" x2="284.598" y2="371.02" gradientUnits="userSpaceOnUse">
<stop stop-color="#B2F5F5"/>
<stop offset="1" stop-color="#B2F5F5"/>
</linearGradient>
<linearGradient id="paint27_linear_2297_12849" x1="284.598" y1="46.98" x2="284.598" y2="371.02" gradientUnits="userSpaceOnUse">
<stop stop-color="#B2F5F5"/>
<stop offset="1" stop-color="#B2F5F5"/>
</linearGradient>
<linearGradient id="paint28_linear_2297_12849" x1="284.598" y1="46.98" x2="284.598" y2="371.02" gradientUnits="userSpaceOnUse">
<stop stop-color="#B2F5F5"/>
<stop offset="1" stop-color="#B2F5F5"/>
</linearGradient>
<linearGradient id="paint29_linear_2297_12849" x1="284.598" y1="46.98" x2="284.598" y2="371.02" gradientUnits="userSpaceOnUse">
<stop stop-color="#B2F5F5"/>
<stop offset="1" stop-color="#B2F5F5"/>
</linearGradient>
<linearGradient id="paint30_linear_2297_12849" x1="284.598" y1="46.98" x2="284.598" y2="371.02" gradientUnits="userSpaceOnUse">
<stop stop-color="#B2F5F5"/>
<stop offset="1" stop-color="#B2F5F5"/>
</linearGradient>
<linearGradient id="paint31_linear_2297_12849" x1="284.598" y1="46.98" x2="284.598" y2="371.02" gradientUnits="userSpaceOnUse">
<stop stop-color="#B2F5F5"/>
<stop offset="1" stop-color="#B2F5F5"/>
</linearGradient>
<linearGradient id="paint32_linear_2297_12849" x1="284.598" y1="46.98" x2="284.598" y2="371.02" gradientUnits="userSpaceOnUse">
<stop stop-color="#B2F5F5"/>
<stop offset="1" stop-color="#B2F5F5"/>
</linearGradient>
<linearGradient id="paint33_linear_2297_12849" x1="284.598" y1="46.98" x2="284.598" y2="371.02" gradientUnits="userSpaceOnUse">
<stop stop-color="#B2F5F5"/>
<stop offset="1" stop-color="#B2F5F5"/>
</linearGradient>
<linearGradient id="paint34_linear_2297_12849" x1="284.598" y1="46.98" x2="284.598" y2="371.02" gradientUnits="userSpaceOnUse">
<stop stop-color="#B2F5F5"/>
<stop offset="1" stop-color="#B2F5F5"/>
</linearGradient>
<linearGradient id="paint35_linear_2297_12849" x1="284.598" y1="46.98" x2="284.598" y2="371.02" gradientUnits="userSpaceOnUse">
<stop stop-color="#B2F5F5"/>
<stop offset="1" stop-color="#B2F5F5"/>
</linearGradient>
<linearGradient id="paint36_linear_2297_12849" x1="284.598" y1="46.98" x2="284.598" y2="371.02" gradientUnits="userSpaceOnUse">
<stop stop-color="#B2F5F5"/>
<stop offset="1" stop-color="#B2F5F5"/>
</linearGradient>
<linearGradient id="paint37_linear_2297_12849" x1="284.598" y1="46.98" x2="284.598" y2="371.02" gradientUnits="userSpaceOnUse">
<stop stop-color="#B2F5F5"/>
<stop offset="1" stop-color="#B2F5F5"/>
</linearGradient>
<linearGradient id="paint38_linear_2297_12849" x1="284.598" y1="46.98" x2="284.598" y2="371.02" gradientUnits="userSpaceOnUse">
<stop stop-color="#B2F5F5"/>
<stop offset="1" stop-color="#B2F5F5"/>
</linearGradient>
<linearGradient id="paint39_linear_2297_12849" x1="284.598" y1="46.98" x2="284.598" y2="371.02" gradientUnits="userSpaceOnUse">
<stop stop-color="#B2F5F5"/>
<stop offset="1" stop-color="#B2F5F5"/>
</linearGradient>
<linearGradient id="paint40_linear_2297_12849" x1="284.598" y1="46.98" x2="284.598" y2="371.02" gradientUnits="userSpaceOnUse">
<stop stop-color="#B2F5F5"/>
<stop offset="1" stop-color="#B2F5F5"/>
</linearGradient>
<linearGradient id="paint41_linear_2297_12849" x1="284.598" y1="46.98" x2="284.598" y2="371.02" gradientUnits="userSpaceOnUse">
<stop stop-color="#B2F5F5"/>
<stop offset="1" stop-color="#B2F5F5"/>
</linearGradient>
<linearGradient id="paint42_linear_2297_12849" x1="284.598" y1="46.98" x2="284.598" y2="371.02" gradientUnits="userSpaceOnUse">
<stop stop-color="#B2F5F5"/>
<stop offset="1" stop-color="#B2F5F5"/>
</linearGradient>
<linearGradient id="paint43_linear_2297_12849" x1="284.598" y1="46.98" x2="284.598" y2="371.02" gradientUnits="userSpaceOnUse">
<stop stop-color="#B2F5F5"/>
<stop offset="1" stop-color="#B2F5F5"/>
</linearGradient>
<linearGradient id="paint44_linear_2297_12849" x1="284.598" y1="46.98" x2="284.598" y2="371.02" gradientUnits="userSpaceOnUse">
<stop stop-color="#B2F5F5"/>
<stop offset="1" stop-color="#B2F5F5"/>
</linearGradient>
<linearGradient id="paint45_linear_2297_12849" x1="284.598" y1="46.98" x2="284.598" y2="371.02" gradientUnits="userSpaceOnUse">
<stop stop-color="#B2F5F5"/>
<stop offset="1" stop-color="#B2F5F5"/>
</linearGradient>
<linearGradient id="paint46_linear_2297_12849" x1="284.598" y1="46.98" x2="284.598" y2="371.02" gradientUnits="userSpaceOnUse">
<stop stop-color="#B2F5F5"/>
<stop offset="1" stop-color="#B2F5F5"/>
</linearGradient>
<linearGradient id="paint47_linear_2297_12849" x1="284.598" y1="46.98" x2="284.598" y2="371.02" gradientUnits="userSpaceOnUse">
<stop stop-color="#B2F5F5"/>
<stop offset="1" stop-color="#B2F5F5"/>
</linearGradient>
<linearGradient id="paint48_linear_2297_12849" x1="284.598" y1="46.98" x2="284.598" y2="371.02" gradientUnits="userSpaceOnUse">
<stop stop-color="#B2F5F5"/>
<stop offset="1" stop-color="#B2F5F5"/>
</linearGradient>
<linearGradient id="paint49_linear_2297_12849" x1="284.598" y1="46.98" x2="284.598" y2="371.02" gradientUnits="userSpaceOnUse">
<stop stop-color="#B2F5F5"/>
<stop offset="1" stop-color="#B2F5F5"/>
</linearGradient>
<linearGradient id="paint50_linear_2297_12849" x1="284.598" y1="46.98" x2="284.598" y2="371.02" gradientUnits="userSpaceOnUse">
<stop stop-color="#B2F5F5"/>
<stop offset="1" stop-color="#B2F5F5"/>
</linearGradient>
<linearGradient id="paint51_linear_2297_12849" x1="284.598" y1="46.98" x2="284.598" y2="371.02" gradientUnits="userSpaceOnUse">
<stop stop-color="#B2F5F5"/>
<stop offset="1" stop-color="#B2F5F5"/>
</linearGradient>
<linearGradient id="paint52_linear_2297_12849" x1="284.598" y1="46.98" x2="284.598" y2="371.02" gradientUnits="userSpaceOnUse">
<stop stop-color="#B2F5F5"/>
<stop offset="1" stop-color="#B2F5F5"/>
</linearGradient>
<linearGradient id="paint53_linear_2297_12849" x1="284.598" y1="46.98" x2="284.598" y2="371.02" gradientUnits="userSpaceOnUse">
<stop stop-color="#B2F5F5"/>
<stop offset="1" stop-color="#B2F5F5"/>
</linearGradient>
<linearGradient id="paint54_linear_2297_12849" x1="284.598" y1="46.98" x2="284.598" y2="371.02" gradientUnits="userSpaceOnUse">
<stop stop-color="#B2F5F5"/>
<stop offset="1" stop-color="#B2F5F5"/>
</linearGradient>
<linearGradient id="paint55_linear_2297_12849" x1="284.598" y1="46.98" x2="284.598" y2="371.02" gradientUnits="userSpaceOnUse">
<stop stop-color="#B2F5F5"/>
<stop offset="1" stop-color="#B2F5F5"/>
</linearGradient>
<linearGradient id="paint56_linear_2297_12849" x1="284.598" y1="46.98" x2="284.598" y2="371.02" gradientUnits="userSpaceOnUse">
<stop stop-color="#B2F5F5"/>
<stop offset="1" stop-color="#B2F5F5"/>
</linearGradient>
<linearGradient id="paint57_linear_2297_12849" x1="284.598" y1="46.98" x2="284.598" y2="371.02" gradientUnits="userSpaceOnUse">
<stop stop-color="#B2F5F5"/>
<stop offset="1" stop-color="#B2F5F5"/>
</linearGradient>
<linearGradient id="paint58_linear_2297_12849" x1="284.598" y1="46.98" x2="284.598" y2="371.02" gradientUnits="userSpaceOnUse">
<stop stop-color="#B2F5F5"/>
<stop offset="1" stop-color="#B2F5F5"/>
</linearGradient>
<linearGradient id="paint59_linear_2297_12849" x1="284.598" y1="46.98" x2="284.598" y2="371.02" gradientUnits="userSpaceOnUse">
<stop stop-color="#B2F5F5"/>
<stop offset="1" stop-color="#B2F5F5"/>
</linearGradient>
<linearGradient id="paint60_linear_2297_12849" x1="284.598" y1="46.98" x2="284.598" y2="371.02" gradientUnits="userSpaceOnUse">
<stop stop-color="#B2F5F5"/>
<stop offset="1" stop-color="#B2F5F5"/>
</linearGradient>
<linearGradient id="paint61_linear_2297_12849" x1="284.598" y1="46.98" x2="284.598" y2="371.02" gradientUnits="userSpaceOnUse">
<stop stop-color="#B2F5F5"/>
<stop offset="1" stop-color="#B2F5F5"/>
</linearGradient>
<linearGradient id="paint62_linear_2297_12849" x1="284.598" y1="46.98" x2="284.598" y2="371.02" gradientUnits="userSpaceOnUse">
<stop stop-color="#B2F5F5"/>
<stop offset="1" stop-color="#B2F5F5"/>
</linearGradient>
<linearGradient id="paint63_linear_2297_12849" x1="284.598" y1="46.98" x2="284.598" y2="371.02" gradientUnits="userSpaceOnUse">
<stop stop-color="#B2F5F5"/>
<stop offset="1" stop-color="#B2F5F5"/>
</linearGradient>
<linearGradient id="paint64_linear_2297_12849" x1="284.598" y1="46.98" x2="284.598" y2="371.02" gradientUnits="userSpaceOnUse">
<stop stop-color="#B2F5F5"/>
<stop offset="1" stop-color="#B2F5F5"/>
</linearGradient>
<linearGradient id="paint65_linear_2297_12849" x1="284.598" y1="46.98" x2="284.598" y2="371.02" gradientUnits="userSpaceOnUse">
<stop stop-color="#B2F5F5"/>
<stop offset="1" stop-color="#B2F5F5"/>
</linearGradient>
<linearGradient id="paint66_linear_2297_12849" x1="284.598" y1="46.98" x2="284.598" y2="371.02" gradientUnits="userSpaceOnUse">
<stop stop-color="#B2F5F5"/>
<stop offset="1" stop-color="#B2F5F5"/>
</linearGradient>
<linearGradient id="paint67_linear_2297_12849" x1="284.598" y1="46.98" x2="284.598" y2="371.02" gradientUnits="userSpaceOnUse">
<stop stop-color="#B2F5F5"/>
<stop offset="1" stop-color="#B2F5F5"/>
</linearGradient>
<linearGradient id="paint68_linear_2297_12849" x1="284.598" y1="46.98" x2="284.598" y2="371.02" gradientUnits="userSpaceOnUse">
<stop stop-color="#B2F5F5"/>
<stop offset="1" stop-color="#B2F5F5"/>
</linearGradient>
<linearGradient id="paint69_linear_2297_12849" x1="284.598" y1="46.98" x2="284.598" y2="371.02" gradientUnits="userSpaceOnUse">
<stop stop-color="#B2F5F5"/>
<stop offset="1" stop-color="#B2F5F5"/>
</linearGradient>
<linearGradient id="paint70_linear_2297_12849" x1="284.598" y1="46.98" x2="284.598" y2="371.02" gradientUnits="userSpaceOnUse">
<stop stop-color="#B2F5F5"/>
<stop offset="1" stop-color="#B2F5F5"/>
</linearGradient>
<linearGradient id="paint71_linear_2297_12849" x1="284.598" y1="46.98" x2="284.598" y2="371.02" gradientUnits="userSpaceOnUse">
<stop stop-color="#B2F5F5"/>
<stop offset="1" stop-color="#B2F5F5"/>
</linearGradient>
<linearGradient id="paint72_linear_2297_12849" x1="284.598" y1="46.98" x2="284.598" y2="371.02" gradientUnits="userSpaceOnUse">
<stop stop-color="#B2F5F5"/>
<stop offset="1" stop-color="#B2F5F5"/>
</linearGradient>
<linearGradient id="paint73_linear_2297_12849" x1="284.598" y1="46.98" x2="284.598" y2="371.02" gradientUnits="userSpaceOnUse">
<stop stop-color="#B2F5F5"/>
<stop offset="1" stop-color="#B2F5F5"/>
</linearGradient>
<linearGradient id="paint74_linear_2297_12849" x1="284.598" y1="46.98" x2="284.598" y2="371.02" gradientUnits="userSpaceOnUse">
<stop stop-color="#B2F5F5"/>
<stop offset="1" stop-color="#B2F5F5"/>
</linearGradient>
<linearGradient id="paint75_linear_2297_12849" x1="284.598" y1="46.98" x2="284.598" y2="371.02" gradientUnits="userSpaceOnUse">
<stop stop-color="#B2F5F5"/>
<stop offset="1" stop-color="#B2F5F5"/>
</linearGradient>
<linearGradient id="paint76_linear_2297_12849" x1="284.598" y1="46.98" x2="284.598" y2="371.02" gradientUnits="userSpaceOnUse">
<stop stop-color="#B2F5F5"/>
<stop offset="1" stop-color="#B2F5F5"/>
</linearGradient>
<linearGradient id="paint77_linear_2297_12849" x1="284.598" y1="46.98" x2="284.598" y2="371.02" gradientUnits="userSpaceOnUse">
<stop stop-color="#B2F5F5"/>
<stop offset="1" stop-color="#B2F5F5"/>
</linearGradient>
<linearGradient id="paint78_linear_2297_12849" x1="284.598" y1="46.98" x2="284.598" y2="371.02" gradientUnits="userSpaceOnUse">
<stop stop-color="#B2F5F5"/>
<stop offset="1" stop-color="#B2F5F5"/>
</linearGradient>
<linearGradient id="paint79_linear_2297_12849" x1="284.598" y1="46.98" x2="284.598" y2="371.02" gradientUnits="userSpaceOnUse">
<stop stop-color="#B2F5F5"/>
<stop offset="1" stop-color="#B2F5F5"/>
</linearGradient>
<linearGradient id="paint80_linear_2297_12849" x1="284.598" y1="46.98" x2="284.598" y2="371.02" gradientUnits="userSpaceOnUse">
<stop stop-color="#B2F5F5"/>
<stop offset="1" stop-color="#B2F5F5"/>
</linearGradient>
<linearGradient id="paint81_linear_2297_12849" x1="284.598" y1="46.98" x2="284.598" y2="371.02" gradientUnits="userSpaceOnUse">
<stop stop-color="#B2F5F5"/>
<stop offset="1" stop-color="#B2F5F5"/>
</linearGradient>
<linearGradient id="paint82_linear_2297_12849" x1="284.598" y1="46.98" x2="284.598" y2="371.02" gradientUnits="userSpaceOnUse">
<stop stop-color="#B2F5F5"/>
<stop offset="1" stop-color="#B2F5F5"/>
</linearGradient>
<linearGradient id="paint83_linear_2297_12849" x1="284.598" y1="46.98" x2="284.598" y2="371.02" gradientUnits="userSpaceOnUse">
<stop stop-color="#B2F5F5"/>
<stop offset="1" stop-color="#B2F5F5"/>
</linearGradient>
<linearGradient id="paint84_linear_2297_12849" x1="284.598" y1="46.98" x2="284.598" y2="371.02" gradientUnits="userSpaceOnUse">
<stop stop-color="#B2F5F5"/>
<stop offset="1" stop-color="#B2F5F5"/>
</linearGradient>
<linearGradient id="paint85_linear_2297_12849" x1="284.598" y1="46.98" x2="284.598" y2="371.02" gradientUnits="userSpaceOnUse">
<stop stop-color="#B2F5F5"/>
<stop offset="1" stop-color="#B2F5F5"/>
</linearGradient>
<linearGradient id="paint86_linear_2297_12849" x1="284.598" y1="46.98" x2="284.598" y2="371.02" gradientUnits="userSpaceOnUse">
<stop stop-color="#B2F5F5"/>
<stop offset="1" stop-color="#B2F5F5"/>
</linearGradient>
<linearGradient id="paint87_linear_2297_12849" x1="284.598" y1="46.98" x2="284.598" y2="371.02" gradientUnits="userSpaceOnUse">
<stop stop-color="#B2F5F5"/>
<stop offset="1" stop-color="#B2F5F5"/>
</linearGradient>
<linearGradient id="paint88_linear_2297_12849" x1="284.598" y1="46.98" x2="284.598" y2="371.02" gradientUnits="userSpaceOnUse">
<stop stop-color="#B2F5F5"/>
<stop offset="1" stop-color="#B2F5F5"/>
</linearGradient>
<linearGradient id="paint89_linear_2297_12849" x1="284.598" y1="46.98" x2="284.598" y2="371.02" gradientUnits="userSpaceOnUse">
<stop stop-color="#B2F5F5"/>
<stop offset="1" stop-color="#B2F5F5"/>
</linearGradient>
<linearGradient id="paint90_linear_2297_12849" x1="284.598" y1="46.98" x2="284.598" y2="371.02" gradientUnits="userSpaceOnUse">
<stop stop-color="#B2F5F5"/>
<stop offset="1" stop-color="#B2F5F5"/>
</linearGradient>
<linearGradient id="paint91_linear_2297_12849" x1="284.598" y1="46.98" x2="284.598" y2="371.02" gradientUnits="userSpaceOnUse">
<stop stop-color="#B2F5F5"/>
<stop offset="1" stop-color="#B2F5F5"/>
</linearGradient>
<linearGradient id="paint92_linear_2297_12849" x1="284.598" y1="46.98" x2="284.598" y2="371.02" gradientUnits="userSpaceOnUse">
<stop stop-color="#B2F5F5"/>
<stop offset="1" stop-color="#B2F5F5"/>
</linearGradient>
<linearGradient id="paint93_linear_2297_12849" x1="284.598" y1="46.98" x2="284.598" y2="371.02" gradientUnits="userSpaceOnUse">
<stop stop-color="#B2F5F5"/>
<stop offset="1" stop-color="#B2F5F5"/>
</linearGradient>
<linearGradient id="paint94_linear_2297_12849" x1="284.598" y1="46.98" x2="284.598" y2="371.02" gradientUnits="userSpaceOnUse">
<stop stop-color="#B2F5F5"/>
<stop offset="1" stop-color="#B2F5F5"/>
</linearGradient>
<linearGradient id="paint95_linear_2297_12849" x1="284.598" y1="46.98" x2="284.598" y2="371.02" gradientUnits="userSpaceOnUse">
<stop stop-color="#B2F5F5"/>
<stop offset="1" stop-color="#B2F5F5"/>
</linearGradient>
<linearGradient id="paint96_linear_2297_12849" x1="284.598" y1="46.98" x2="284.598" y2="371.02" gradientUnits="userSpaceOnUse">
<stop stop-color="#B2F5F5"/>
<stop offset="1" stop-color="#B2F5F5"/>
</linearGradient>
<linearGradient id="paint97_linear_2297_12849" x1="284.598" y1="46.98" x2="284.598" y2="371.02" gradientUnits="userSpaceOnUse">
<stop stop-color="#B2F5F5"/>
<stop offset="1" stop-color="#B2F5F5"/>
</linearGradient>
<linearGradient id="paint98_linear_2297_12849" x1="284.598" y1="46.98" x2="284.598" y2="371.02" gradientUnits="userSpaceOnUse">
<stop stop-color="#B2F5F5"/>
<stop offset="1" stop-color="#B2F5F5"/>
</linearGradient>
<linearGradient id="paint99_linear_2297_12849" x1="284.598" y1="46.98" x2="284.598" y2="371.02" gradientUnits="userSpaceOnUse">
<stop stop-color="#B2F5F5"/>
<stop offset="1" stop-color="#B2F5F5"/>
</linearGradient>
<radialGradient id="paint100_radial_2297_12849" cx="0" cy="0" r="1" gradientUnits="userSpaceOnUse" gradientTransform="translate(282.205 191.34) rotate(73.4368) scale(143.967 105.984)">
<stop offset="0.40625" stop-color="#9300FF"/>
<stop offset="1" stop-color="white"/>
</radialGradient>
</defs>
</svg>
