<svg width="164" height="163" viewBox="0 0 164 163" fill="none" xmlns="http://www.w3.org/2000/svg">
<path d="M77.9977 68.4108C80.2083 66.2002 83.7924 66.2002 86.0029 68.4108L95.0897 77.4976C97.3003 79.7082 97.3003 83.2922 95.0897 85.5028L86.0029 94.5896C83.7924 96.8002 80.2083 96.8002 77.9977 94.5896L68.9109 85.5028C66.7004 83.2922 66.7004 79.7082 68.9109 77.4976L77.9977 68.4108Z" fill="#A950FF"/>
<path d="M119.85 68.3383C122.021 66.1673 125.541 66.1673 127.712 68.3383L136.942 77.5684C139.113 79.7394 139.113 83.2593 136.942 85.4303L127.712 94.6603C125.541 96.8314 122.021 96.8314 119.85 94.6604L110.62 85.4303C108.449 83.2593 108.449 79.7394 110.62 77.5684L119.85 68.3383Z" fill="#A950FF"/>
<path d="M78.0693 26.5589C80.2404 24.3879 83.7603 24.3879 85.9313 26.5589L95.1613 35.7889C97.3324 37.96 97.3324 41.4799 95.1613 43.6509L85.9313 52.8809C83.7603 55.052 80.2404 55.052 78.0693 52.8809L68.8393 43.6509C66.6683 41.4799 66.6683 37.96 68.8393 35.7889L78.0693 26.5589Z" fill="#E9C1FF"/>
<path d="M74.2015 56.6077C76.412 58.8182 76.412 62.4023 74.2015 64.6129L65.1147 73.6997C62.9041 75.9102 59.3201 75.9102 57.1095 73.6997L48.0227 64.6129C45.8121 62.4023 45.8121 58.8182 48.0227 56.6077L57.1095 47.5209C59.3201 45.3103 62.9041 45.3103 65.1147 47.5209L74.2015 56.6077Z" fill="#CD88FF"/>
<path d="M53.3819 77.5683C55.5529 79.7394 55.5529 83.2593 53.3819 85.4303L44.1519 94.6603C41.9809 96.8314 38.4609 96.8314 36.2899 94.6603L27.0599 85.4303C24.8889 83.2593 24.8889 79.7394 27.0599 77.5683L36.2899 68.3383C38.4609 66.1673 41.9809 66.1673 44.1519 68.3383L53.3819 77.5683Z" fill="#A950FF"/>
<path d="M115.98 56.6077C118.191 58.8182 118.191 62.4023 115.98 64.6129L106.894 73.6997C104.683 75.9102 101.099 75.9102 98.8885 73.6997L89.8017 64.6129C87.5911 62.4023 87.5911 58.8182 89.8017 56.6077L98.8885 47.5209C101.099 45.3103 104.683 45.3103 106.894 47.5209L115.98 56.6077Z" fill="#CD88FF"/>
<path d="M90.9431 116.285C95.8817 121.224 95.8817 129.231 90.9431 134.17C86.0045 139.108 77.9974 139.108 73.0588 134.17C68.1202 129.231 68.1202 121.224 73.0588 116.285C77.9974 111.347 86.0045 111.347 90.9431 116.285Z" fill="#F62E76"/>
</svg>
