<svg width="48" height="38" viewBox="0 0 48 38" fill="none" xmlns="http://www.w3.org/2000/svg">
<path d="M42.2501 29.3273C42.1841 29.1954 41.9863 29.0965 41.8215 29.0965H35.4256C35.2608 29.0965 35.063 28.9976 34.9971 28.8657L23.9527 11.2937C23.8868 11.1618 23.7549 11.1618 23.656 11.2937L12.6117 28.8657C12.5457 28.9976 12.3479 29.0965 12.1831 29.0965H5.75429C5.58945 29.0965 5.39164 29.1954 5.3257 29.3273L3.84213 31.668C3.7762 31.7999 3.80917 31.8988 3.97401 31.8988H13.8645C14.0293 31.8988 14.2271 31.7999 14.293 31.668L23.623 16.8323C23.689 16.7005 23.8538 16.7005 23.9198 16.8323L33.2498 31.668C33.3157 31.7999 33.5135 31.8988 33.6783 31.8988H43.5688C43.7336 31.8988 43.7996 31.7999 43.7007 31.668" fill="#2490FA"/>
<path d="M47.2612 37.3056C47.3272 37.4374 47.2942 37.5363 47.1294 37.5363H30.2496C30.0848 37.5363 29.887 37.4374 29.8211 37.3056L23.9527 27.9426C23.8868 27.8107 23.7549 27.8107 23.656 27.9426L17.7547 37.3056C17.6888 37.4374 17.491 37.5363 17.3261 37.5363H0.446409C0.281568 37.5363 0.215632 37.4374 0.314536 37.3056L1.7981 34.9648C1.86404 34.8329 2.06185 34.734 2.22669 34.734H15.6118C15.7766 34.734 15.9744 34.6351 16.0404 34.5033L23.623 22.4039C23.689 22.2721 23.8208 22.2721 23.9198 22.4039L31.5024 34.5033C31.5684 34.6351 31.7662 34.734 31.931 34.734H45.3161C45.4809 34.734 45.6788 34.8329 45.7447 34.9648M23.9198 33.5142C23.8538 33.3823 23.7219 33.3823 23.623 33.5142L21.2493 37.3056C21.1834 37.4374 21.2164 37.5363 21.3812 37.5363H26.1616C26.3264 37.5363 26.3924 37.4374 26.2935 37.3056" fill="#2549C9"/>
<path d="M23.656 0.183377C23.722 0.0515045 23.8538 0.0515045 23.9528 0.183377L40.2061 26.0634C40.272 26.1953 40.239 26.2942 40.0742 26.2942H37.173C37.0082 26.2942 36.8103 26.1953 36.7444 26.0634L23.9857 5.755C23.9198 5.62312 23.7879 5.62312 23.689 5.755L10.8974 26.0634C10.8314 26.1953 10.6336 26.2942 10.4688 26.2942H7.56757C7.40273 26.2942 7.33679 26.1953 7.4357 26.0634" fill="#85C1FC"/>
</svg>
