<svg width="72" height="71" viewBox="0 0 72 71" fill="none" xmlns="http://www.w3.org/2000/svg">
<path d="M24.7913 31.8412C24.7913 32.4549 24.8586 32.9526 24.9764 33.3175C25.1109 33.6824 25.2792 34.0805 25.5147 34.5118C25.5989 34.6445 25.6325 34.7772 25.6325 34.8933C25.6325 35.0592 25.5316 35.2251 25.3128 35.391L24.2529 36.0877C24.1015 36.1872 23.95 36.237 23.8154 36.237C23.6472 36.237 23.4789 36.154 23.3107 36.0047C23.0751 35.7559 22.8732 35.4905 22.705 35.2251C22.5367 34.9431 22.3685 34.6279 22.1834 34.2464C20.8711 35.7725 19.2222 36.5356 17.2369 36.5356C15.8236 36.5356 14.6964 36.1374 13.8719 35.3412C13.0475 34.545 12.6269 33.4834 12.6269 32.1563C12.6269 30.7464 13.1316 29.6018 14.158 28.7392C15.1843 27.8767 16.5471 27.4454 18.2801 27.4454C18.8521 27.4454 19.441 27.4951 20.0635 27.5781C20.686 27.661 21.3254 27.7937 21.9984 27.943V26.7321C21.9984 25.4714 21.7292 24.5923 21.2076 24.078C20.6692 23.5638 19.7606 23.315 18.4651 23.315C17.8763 23.315 17.2706 23.3813 16.648 23.5306C16.0255 23.6799 15.4198 23.8624 14.831 24.0946C14.5618 24.2107 14.3599 24.2771 14.2421 24.3103C14.1243 24.3434 14.0402 24.36 13.9729 24.36C13.7373 24.36 13.6196 24.1942 13.6196 23.8458V23.033C13.6196 22.7676 13.6532 22.5685 13.7373 22.4524C13.8215 22.3363 13.9729 22.2202 14.2084 22.1041C14.7973 21.8055 15.5039 21.5567 16.3284 21.3576C17.1528 21.142 18.0277 21.0425 18.953 21.0425C20.9552 21.0425 22.419 21.4903 23.3612 22.3861C24.2865 23.2818 24.7576 24.642 24.7576 26.4667V31.8412H24.7913ZM17.9604 34.3625C18.5156 34.3625 19.0876 34.263 19.6933 34.064C20.299 33.8649 20.8374 33.5 21.2917 33.0023C21.5609 32.6872 21.7628 32.3388 21.8638 31.9407C21.9647 31.5426 22.032 31.0615 22.032 30.4976V29.8009C21.5441 29.6847 21.0225 29.5852 20.4841 29.5189C19.9457 29.4525 19.4241 29.4193 18.9026 29.4193C17.7753 29.4193 16.9509 29.635 16.3957 30.0829C15.8404 30.5307 15.5712 31.1611 15.5712 31.9905C15.5712 32.7701 15.7731 33.3507 16.1938 33.7488C16.5976 34.1635 17.1864 34.3625 17.9604 34.3625ZM31.4707 36.154C31.1679 36.154 30.966 36.1043 30.8314 35.9882C30.6968 35.8886 30.579 35.6564 30.4781 35.3412L26.5242 22.5188C26.4233 22.187 26.3728 21.9714 26.3728 21.8553C26.3728 21.5899 26.5074 21.4406 26.7766 21.4406H28.4254C28.7451 21.4406 28.9638 21.4903 29.0816 21.6064C29.2162 21.706 29.3172 21.9382 29.4181 22.2534L32.2447 33.2346L34.8694 22.2534C34.9535 21.9216 35.0544 21.706 35.189 21.6064C35.3236 21.5069 35.5592 21.4406 35.862 21.4406H37.208C37.5277 21.4406 37.7464 21.4903 37.881 21.6064C38.0156 21.706 38.1334 21.9382 38.2007 22.2534L40.859 33.3673L43.7697 22.2534C43.8707 21.9216 43.9885 21.706 44.1062 21.6064C44.2408 21.5069 44.4596 21.4406 44.7624 21.4406H46.3271C46.5963 21.4406 46.7477 21.5733 46.7477 21.8553C46.7477 21.9382 46.7309 22.0211 46.7141 22.1207C46.6973 22.2202 46.6636 22.3529 46.5963 22.5354L42.5415 35.3578C42.4406 35.6896 42.3228 35.9052 42.1882 36.0047C42.0536 36.1043 41.8349 36.1706 41.5488 36.1706H40.1019C39.7822 36.1706 39.5635 36.1209 39.4289 36.0047C39.2943 35.8886 39.1765 35.673 39.1092 35.3412L36.5014 24.642L33.9104 35.3246C33.8262 35.6564 33.7253 35.872 33.5907 35.9882C33.4561 36.1043 33.2205 36.154 32.9177 36.154H31.4707ZM53.0907 36.6019C52.2158 36.6019 51.3409 36.5024 50.4997 36.3033C49.6584 36.1043 49.0023 35.8886 48.5648 35.6398C48.2956 35.4905 48.1105 35.3246 48.0433 35.1753C47.976 35.0261 47.9423 34.8602 47.9423 34.7109V33.8649C47.9423 33.5166 48.0769 33.3507 48.3293 33.3507C48.4302 33.3507 48.5312 33.3673 48.6321 33.4004C48.7331 33.4336 48.8845 33.5 49.0527 33.5663C49.6248 33.8151 50.2473 34.0142 50.9035 34.1469C51.5765 34.2796 52.2326 34.3459 52.9056 34.3459C53.9656 34.3459 54.79 34.1635 55.3621 33.7985C55.9341 33.4336 56.237 32.9028 56.237 32.2227C56.237 31.7582 56.0855 31.3767 55.7827 31.0615C55.4798 30.7464 54.9078 30.4644 54.0834 30.199L51.6438 29.4525C50.4156 29.071 49.507 28.507 48.9518 27.7606C48.3966 27.0307 48.1105 26.2179 48.1105 25.3553C48.1105 24.6586 48.262 24.0449 48.5648 23.5141C48.8677 22.9832 49.2715 22.5188 49.7762 22.1538C50.281 21.7723 50.853 21.4903 51.526 21.2913C52.199 21.0922 52.9056 21.0093 53.6459 21.0093C54.0161 21.0093 54.403 21.0259 54.7732 21.0756C55.1602 21.1254 55.5135 21.1917 55.8668 21.2581C56.2033 21.341 56.523 21.424 56.8258 21.5235C57.1287 21.623 57.3642 21.7226 57.5325 21.8221C57.768 21.9548 57.9363 22.0875 58.0372 22.2368C58.1382 22.3695 58.1886 22.552 58.1886 22.7842V23.5638C58.1886 23.9122 58.054 24.0946 57.8017 24.0946C57.6671 24.0946 57.4483 24.0283 57.1623 23.8956C56.2033 23.4643 55.1265 23.2486 53.932 23.2486C52.9729 23.2486 52.2158 23.3979 51.6942 23.7131C51.1727 24.0283 50.9035 24.5093 50.9035 25.1894C50.9035 25.6539 51.0717 26.052 51.4082 26.3672C51.7447 26.6823 52.3672 26.9975 53.259 27.2795L55.6481 28.026C56.8595 28.4075 57.7344 28.9383 58.2559 29.6184C58.7775 30.2985 59.0299 31.0781 59.0299 31.9407C59.0299 32.654 58.8785 33.3009 58.5924 33.8649C58.2896 34.4289 57.8858 34.9265 57.3642 35.3246C56.8427 35.7393 56.2201 36.0379 55.4967 36.2536C54.7395 36.4858 53.9488 36.6019 53.0907 36.6019Z" fill="white"/>
<path fill-rule="evenodd" clip-rule="evenodd" d="M56.2705 44.6636C50.7352 48.6945 42.6929 50.8343 35.7778 50.8343C26.0867 50.8343 17.3546 47.3011 10.7593 41.429C10.2377 40.9645 10.7088 40.3342 11.3313 40.6991C18.4651 44.7797 27.2645 47.2513 36.3667 47.2513C42.5078 47.2513 49.2546 45.9907 55.463 43.4029C56.3883 42.9882 57.1791 44.0001 56.2705 44.6636Z" fill="#FF9900"/>
<path fill-rule="evenodd" clip-rule="evenodd" d="M58.5756 42.0759C57.8689 41.1802 53.8982 41.6446 52.098 41.8603C51.5596 41.9266 51.4755 41.4622 51.9634 41.1138C55.1264 38.9242 60.3253 39.5545 60.931 40.2844C61.5367 41.0309 60.7628 46.1565 57.8016 48.6115C57.3473 48.9931 56.9099 48.794 57.1118 48.2964C57.7848 46.6542 59.2822 42.9551 58.5756 42.0759Z" fill="#FF9900"/>
</svg>
