<svg width="44" height="48" viewBox="0 0 44 48" fill="none" xmlns="http://www.w3.org/2000/svg">
<path d="M41.3048 19.6611L21.9169 30.6517L1.31873 18.9448L0.35551 19.4635V27.9596L21.9416 40.2592L41.3295 29.2686V33.7883L21.9416 44.779L1.31873 33.0721L0.35551 33.5908V35.0232L21.9416 47.3228L43.6017 35.0232V26.5271L42.6385 26.0085L21.9169 37.7153L2.60303 26.7247V22.2791L21.9169 33.1956L43.577 20.896V12.5234L42.4656 11.9306L21.9169 23.5634L3.64034 13.1655L21.9169 2.84175L37.0073 11.3379L38.3657 10.6216V9.5843L21.9169 0.297852L0.330811 12.5481V13.8571L21.9169 26.1567L41.3048 15.166V19.6611Z" fill="#FF3621"/>
</svg>
