<svg width="48" height="48" viewBox="0 0 48 48" fill="none" xmlns="http://www.w3.org/2000/svg">
<path d="M44.7885 1.12658C44.2572 0.763189 43.6603 0.505924 43.0314 0.368905C42.3863 0.226976 41.721 0.201343 41.0669 0.293162C40.3814 0.388865 39.717 0.600411 39.1024 0.918889L36.2348 2.50178L33.3613 4.08154L30.485 5.66153L27.6116 7.25552C26.989 7.6198 26.3214 7.90271 25.6268 8.09738C24.9545 8.29236 24.2591 8.39447 23.5591 8.4006C22.8604 8.40914 22.1632 8.32316 21.4875 8.14514C20.7903 7.9605 20.1204 7.685 19.495 7.32572L16.7084 5.81037L13.9218 4.29502L11.1353 2.78521L8.34577 1.26987C7.31245 0.610248 6.07667 0.344103 4.86351 0.520392C3.74389 0.694477 2.70569 1.21115 1.89167 1.99932C1.07097 2.77724 0.512771 3.79138 0.294783 4.90096C0.0707891 6.10405 0.291403 7.34776 0.915203 8.4006L1.89167 10.1909L4.04432 14.1197L6.19698 18.0485L7.17633 19.8388C7.54024 20.4547 7.82269 21.115 8.01771 21.8033C8.20256 22.4763 8.29709 23.1708 8.29849 23.8686C8.29722 24.5684 8.20269 25.2649 8.01771 25.9398C7.84435 26.6502 7.57736 27.3342 7.22361 27.9742L5.69427 30.8281L4.16204 33.6738L2.6298 36.5166L1.09757 39.362C0.840139 39.8284 0.641931 40.3253 0.508022 40.8409C0.381715 41.3282 0.325513 41.8308 0.340133 42.3339C0.358938 42.8281 0.453739 43.3165 0.620914 43.7819C0.789579 44.2698 1.03355 44.7282 1.34458 45.1402C1.72339 45.6608 2.19449 46.1079 2.73401 46.4592C3.27021 46.8155 3.86418 47.0748 4.4901 47.2253C5.13234 47.3828 5.79748 47.4255 6.4546 47.3515C7.14016 47.2727 7.80585 47.0702 8.4191 46.7538L11.4025 45.1178L14.3821 43.4845L17.3626 41.8485L20.3431 40.2123C19.4468 39.5686 18.6177 38.8352 17.8701 38.0235C17.1208 37.2077 16.434 36.3372 15.814 35.4193C15.1882 34.4988 14.6153 33.5391 14.0849 32.5625C13.6106 31.6925 13.1704 30.8114 12.7466 29.9358C13.4959 31.339 15.1091 32.8291 17.2053 34.3248C19.7552 36.0794 22.4129 37.6727 25.1618 39.0955C28.0522 40.6333 31.0182 42.087 33.5804 43.3723C36.1425 44.6576 38.3141 45.7715 39.6022 46.6218C40.6421 47.2373 41.8777 47.432 43.0565 47.1662C44.1496 46.8944 45.1313 46.2882 45.8633 45.4321C46.6299 44.5635 47.1278 43.4912 47.2972 42.3452C47.4737 41.1338 47.2236 39.8987 46.5899 38.8514L44.828 35.6634L40.9695 28.6477L37.1099 21.632L35.3673 18.4805C34.994 17.8519 34.5887 17.2433 34.1525 16.6566C33.7192 16.0809 33.2508 15.5326 32.7496 15.0149C32.2515 14.4994 31.719 14.0184 31.1556 13.5753C30.5828 13.1243 29.9766 12.7172 29.3426 12.3573C30.3276 12.8063 31.3294 13.2722 32.3115 13.7745C33.3012 14.2731 34.2642 14.8229 35.1966 15.4218C36.1277 16.0185 37.0099 16.6884 37.8345 17.4254C38.6665 18.1746 39.4144 19.0121 40.0654 19.923L41.6507 17.0213L43.2369 14.1197L44.828 11.2123L46.4133 8.31062C46.6777 7.87441 46.8765 7.40157 47.0029 6.90744C47.1289 6.41732 47.1851 5.91194 47.1708 5.40608C47.1518 4.89544 47.057 4.39053 46.89 3.90762C46.7203 3.41332 46.4731 2.94928 46.1576 2.53266C45.7982 1.97838 45.3331 1.50045 44.7885 1.12658ZM8.01482 41.7725C8.05581 42.3657 7.84027 42.9482 7.42334 43.3721C7.00642 43.796 6.42794 44.0207 5.83418 43.9896C4.62064 43.9997 3.62888 43.024 3.61881 41.8104C3.60873 40.5969 4.58494 39.6051 5.79848 39.595C6.39136 39.5532 6.97328 39.7676 7.39729 40.1841C7.82131 40.6006 8.04605 41.179 8.01482 41.7725ZM3.66802 5.93942C3.62703 5.34626 3.84256 4.76403 4.25949 4.34012C4.67641 3.91622 5.2549 3.69121 5.84865 3.72236C6.44181 3.68137 7.02356 3.89667 7.44746 4.31359C7.87137 4.73052 8.0971 5.30924 8.06596 5.90299C8.10695 6.49615 7.89141 7.07839 7.47448 7.50229C7.05756 7.92619 6.47908 8.15096 5.88532 8.11982C5.29216 8.16081 4.70944 7.94551 4.28554 7.52858C3.86164 7.11166 3.63687 6.53318 3.66802 5.93942ZM43.8766 41.7052C43.8857 42.5956 43.3567 43.4037 42.5374 43.7522C41.7181 44.1008 40.77 43.9212 40.1348 43.2973C39.4996 42.6734 39.3031 41.7281 39.6369 40.9027C39.9708 40.0773 40.769 39.5346 41.6593 39.5277C42.2522 39.4859 42.8341 39.7003 43.2582 40.1168C43.6822 40.5333 43.9079 41.1117 43.8766 41.7052ZM29.003 23.0239C28.3547 21.9631 27.2856 21.5478 26.0031 21.5618C24.2514 21.6205 22.702 22.715 22.0616 24.3465C21.4212 25.978 21.8123 27.8341 23.0564 29.0686C21.6662 28.8916 20.4054 28.165 19.5548 27.0513C18.7042 25.9376 18.335 24.5296 18.5301 23.1418C18.9426 20.3608 21.7072 18.1999 24.4854 18.59C26.837 18.9885 28.77 20.675 29.003 23.0239ZM44.0339 5.75416C44.0035 6.93926 43.0387 7.8873 41.8533 7.89789C40.6678 7.90848 39.6876 6.97784 39.636 5.79348C39.6664 4.60839 40.6302 3.66034 41.8157 3.64975C43.0011 3.63916 43.9823 4.5698 44.0339 5.75416Z" fill="#FF694B"/>
</svg>
