<svg width="48" height="48" viewBox="0 0 48 48" fill="none" xmlns="http://www.w3.org/2000/svg">
<path d="M33.9487 41.3401C33.9506 42.9234 34.5804 44.4413 35.6999 45.5608C36.8194 46.6804 38.3373 47.3102 39.9206 47.3121H47.293V39.9396C47.2911 38.3563 46.6614 36.8384 45.5418 35.7189C44.4223 34.5994 42.9044 33.9696 41.3211 33.9677H39.917C37.4042 33.9696 34.9935 32.9734 33.215 31.1983C31.4366 29.4232 30.4359 27.0144 30.433 24.5016V23.1047C30.4302 21.5245 29.8019 20.0097 28.6856 18.8914C27.5692 17.773 26.0556 17.142 24.4754 17.1364H23.0749C20.5652 17.1325 18.1595 16.1334 16.3856 14.3581C14.6117 12.5828 13.6144 10.1764 13.6125 7.66671V6.2662C13.6096 4.68355 12.9794 3.16659 11.86 2.04782C10.7405 0.929052 9.22317 0.29975 7.64052 0.297852H0.268066V7.66671C0.269967 9.24999 0.899762 10.7679 2.01931 11.8874C3.13885 13.007 4.65673 13.6368 6.24001 13.6387H7.64411C10.1538 13.6415 12.5599 14.6397 14.3345 16.4143C16.1091 18.189 17.1073 20.595 17.1102 23.1047V24.5016C17.1149 26.083 17.746 27.5981 18.8652 28.7154C19.9844 29.8326 21.5007 30.4609 23.0821 30.4628H24.4826C26.9923 30.4656 29.3984 31.4639 31.173 33.2385C32.9476 35.0131 33.9458 37.4192 33.9487 39.9288V41.3401Z" fill="url(#paint0_linear_16600_7435)"/>
<path d="M47.2895 23.1047C47.2876 21.5214 46.6578 20.0035 45.5383 18.884C44.4187 17.7645 42.9008 17.1347 41.3176 17.1328H39.9135C37.4013 17.1337 34.9915 16.1372 33.2138 14.3621C31.4361 12.5871 30.4359 10.1789 30.4331 7.66671V6.2662C30.4302 4.68603 29.802 3.17124 28.6856 2.05288C27.5693 0.934519 26.0556 0.303543 24.4755 0.297852H17.1102V7.74931C17.1328 9.31789 17.7714 10.8147 18.888 11.9165C20.0047 13.0184 21.5098 13.6369 23.0786 13.6387H24.4827C26.9923 13.6415 29.3984 14.6397 31.173 16.4143C32.9476 18.189 33.9459 20.595 33.9487 23.1047V24.5016C33.9534 26.0793 34.5815 27.5912 35.6961 28.7078C36.8107 29.8244 38.3214 30.4552 39.8991 30.4628H47.2895V23.1047Z" fill="url(#paint1_linear_16600_7435)"/>
<path d="M47.2894 6.21952C47.2779 4.68638 46.6771 3.21642 45.6115 2.11407C44.5459 1.01172 43.0971 0.361421 41.5653 0.297852H33.8337V7.73135C33.8526 9.30244 34.4895 10.8029 35.6065 11.9078C36.7236 13.0128 38.2309 13.6333 39.8021 13.6351H47.2894V6.21952Z" fill="url(#paint2_linear_16600_7435)"/>
<path d="M0.268066 24.516C0.270919 26.0992 0.901627 27.6167 2.02184 28.7356C3.14206 29.8545 4.66032 30.4834 6.2436 30.4843H7.6477C10.1574 30.4872 12.5634 31.4854 14.3381 33.26C16.1127 35.0346 17.1109 37.4407 17.1137 39.9503V41.3473C17.1156 42.9305 17.7454 44.4484 18.865 45.568C19.9845 46.6875 21.5024 47.3173 23.0857 47.3192H30.433V39.8678C30.4095 38.3029 29.773 36.8097 28.6603 35.7091C27.5477 34.6085 26.0476 33.9884 24.4826 33.982H23.0821C20.5718 33.9801 18.1648 32.9823 16.3894 31.2076C14.614 29.4329 13.6153 27.0263 13.6125 24.516V23.1154C13.6106 21.5359 12.9837 20.0213 11.8689 18.9023C10.754 17.7834 9.2416 17.1511 7.66207 17.1435H0.268066V24.516Z" fill="url(#paint3_linear_16600_7435)"/>
<path d="M0.268066 41.3976C0.278982 42.9349 0.882357 44.4088 1.9526 45.5125C3.02284 46.6162 4.47749 47.2646 6.01377 47.3228H13.7274V39.8858C13.7085 38.3147 13.0716 36.8142 11.9545 35.7093C10.8375 34.6044 9.33023 33.9838 7.75903 33.9821H0.268066V41.3976Z" fill="url(#paint4_linear_16600_7435)"/>
<defs>
<linearGradient id="paint0_linear_16600_7435" x1="7.35683" y1="7.38465" x2="41.2247" y2="41.2448" gradientUnits="userSpaceOnUse">
<stop stop-color="#91D443"/>
<stop offset="1" stop-color="#48BFE0"/>
</linearGradient>
<linearGradient id="paint1_linear_16600_7435" x1="-1.80788" y1="-1.78469" x2="50.9777" y2="50.9757" gradientUnits="userSpaceOnUse">
<stop stop-color="#91D443"/>
<stop offset="1" stop-color="#48BFE0"/>
</linearGradient>
<linearGradient id="paint2_linear_16600_7435" x1="-33.5041" y1="-34.0023" x2="85.877" y2="84.3274" gradientUnits="userSpaceOnUse">
<stop stop-color="#91D443"/>
<stop offset="1" stop-color="#48BFE0"/>
</linearGradient>
<linearGradient id="paint3_linear_16600_7435" x1="-1.81447" y1="-1.78954" x2="50.9522" y2="50.996" gradientUnits="userSpaceOnUse">
<stop stop-color="#91D443"/>
<stop offset="1" stop-color="#48BFE0"/>
</linearGradient>
<linearGradient id="paint4_linear_16600_7435" x1="-9.46012" y1="24.1964" x2="24.4" y2="58.0565" gradientUnits="userSpaceOnUse">
<stop stop-color="#91D443"/>
<stop offset="1" stop-color="#48BFE0"/>
</linearGradient>
</defs>
</svg>
