<svg width="48" height="31" viewBox="0 0 48 31" fill="none" xmlns="http://www.w3.org/2000/svg">
<path d="M41.9935 21.0831C44.954 21.0831 47.3523 18.6847 47.3523 15.7242C47.3523 12.7638 44.954 10.3279 41.9935 10.3279H34.9483V21.0831H41.9935Z" fill="#FFF100"/>
<path d="M41.9935 21.0831C44.954 21.0831 47.3523 18.6847 47.3523 15.7242C47.3523 12.7638 44.954 10.3279 41.9935 10.3279H34.9483V21.0831H41.9935Z" fill="#FFF100"/>
<path d="M0.209473 15.7149C0.209473 23.9967 6.9174 30.7047 15.1993 30.7047C23.4811 30.7047 30.189 23.9967 30.189 15.7149C30.189 7.43302 23.4811 0.725098 15.1993 0.725098C6.9174 0.725098 0.209473 7.43302 0.209473 15.7149Z" fill="#FFF100"/>
<path d="M0.209473 15.7149C0.209473 23.9967 6.9174 30.7047 15.1993 30.7047C23.4811 30.7047 30.189 23.9967 30.189 15.7149C30.189 7.43302 23.4811 0.725098 15.1993 0.725098C6.9174 0.725098 0.209473 7.43302 0.209473 15.7149Z" fill="#FFF100"/>
</svg>
