<svg width="35" height="48" viewBox="0 0 35 48" fill="none" xmlns="http://www.w3.org/2000/svg">
<path d="M24.2334 23.8107H28.9477C29.316 23.8107 29.6843 23.516 29.6843 23.0741C29.6843 23.0004 29.6843 22.8531 29.6107 22.7794L21.508 0.681222C21.3607 0.46024 21.1397 0.239258 20.845 0.239258H16.1308C15.7624 0.239258 15.3941 0.533901 15.3941 0.975865C15.3941 1.04953 15.3941 1.12319 15.4678 1.19685L23.6441 23.4424C23.7178 23.6634 23.9388 23.8107 24.2334 23.8107Z" fill="#0073FF"/>
<path d="M23.4232 47.3821H28.1374C28.5058 47.3821 28.8741 47.0875 28.8741 46.6455C28.8741 46.5719 28.8741 46.4982 28.8004 46.4245L12.0058 0.681222C11.9321 0.46024 11.6374 0.239258 11.3428 0.239258H6.62852C6.26022 0.239258 5.89191 0.533901 5.89191 0.975865C5.89191 1.04953 5.89191 1.12319 5.96558 1.19685L22.7602 46.9402C22.8339 47.2348 23.1285 47.3821 23.4232 47.3821Z" fill="#0073FF"/>
<path d="M14.0683 47.3821H18.7825C19.1508 47.3821 19.4455 47.0875 19.5191 46.7192C19.5191 46.6455 19.5191 46.4982 19.4455 46.4245L11.2691 24.2527C11.1955 23.958 10.9008 23.8107 10.6062 23.8107H5.81825C5.44995 23.8107 5.15531 24.179 5.15531 24.5473C5.15531 24.621 5.15531 24.6946 5.22897 24.7683L13.3316 46.9402C13.5526 47.2348 13.7736 47.3821 14.0683 47.3821Z" fill="#0073FF"/>
<path d="M24.8227 1.19685L28.6531 11.583C28.7267 11.8777 29.0214 12.025 29.316 12.025H33.9566C34.3249 12.025 34.6933 11.7303 34.6933 11.2884C34.6933 11.2147 34.6933 11.141 34.6196 11.0674L30.7892 0.681222C30.7156 0.46024 30.4946 0.239258 30.1999 0.239258H25.4857C25.1174 0.239258 24.7491 0.533901 24.7491 0.975865C24.7491 1.04953 24.7491 1.12319 24.8227 1.19685Z" fill="#0073FF"/>
<path d="M5.37629 47.3821H10.0906C10.4589 47.3821 10.8272 47.0875 10.8272 46.6455C10.8272 46.5719 10.8272 46.4982 10.7535 46.4245L6.92316 36.0384C6.8495 35.7437 6.55486 35.5964 6.26022 35.5964H1.54593C1.17763 35.5964 0.809326 35.891 0.809326 36.333C0.809326 36.4067 0.809326 36.4803 0.882987 36.554L4.71334 46.9402C4.787 47.2348 5.08165 47.3821 5.37629 47.3821Z" fill="#0073FF"/>
</svg>
