<svg width="48" height="39" viewBox="0 0 48 39" fill="none" xmlns="http://www.w3.org/2000/svg">
<path d="M31.9544 11.273L36.0421 7.18533L36.3145 5.46414C28.8657 -1.30911 17.0247 -0.541099 10.3099 7.06667C8.44468 9.17967 7.06093 11.814 6.32304 14.5343L7.78706 14.328L15.9623 12.9799L16.5934 12.3344C20.23 8.34057 26.3787 7.80327 30.5775 11.2014L31.9544 11.273Z" fill="#EA4335"/>
<path d="M41.8652 14.4141C40.9256 10.9541 38.9966 7.8435 36.3145 5.46414L30.5775 11.2014C33 13.1808 34.3801 16.1628 34.3209 19.2905V20.3089C37.1408 20.3089 39.427 22.595 39.427 25.4148C39.427 28.2348 37.1408 30.4636 34.3209 30.4636H24.0947L23.0906 31.5536V37.6779L24.0947 38.6387H34.3209C41.6557 38.6959 47.6481 32.8536 47.7053 25.5188C47.7398 21.0729 45.5478 16.9049 41.8652 14.4141Z" fill="#4285F4"/>
<path d="M13.8826 38.6388L24.0947 38.6387V30.4636L13.8826 30.4635C13.155 30.4633 12.4504 30.307 11.7887 30.0046L10.34 30.4491L6.22361 34.5368L5.86505 35.9281C8.1735 37.6712 10.99 38.6513 13.8826 38.6388Z" fill="#34A853"/>
<path d="M13.8826 12.1193C6.54764 12.163 0.637186 18.1447 0.680905 25.4795C0.705336 29.5755 2.6183 33.4312 5.86505 35.9281L11.7887 30.0046C9.2187 28.8435 8.07669 25.819 9.2378 23.2491C10.3987 20.6793 13.4234 19.5373 15.9931 20.6982C17.1255 21.2098 18.0324 22.1169 18.544 23.2491L24.4677 17.3256C21.9472 14.0308 18.0309 12.1044 13.8826 12.1193Z" fill="#FBBC05"/>
</svg>
