<svg width="48" height="36" viewBox="0 0 48 36" fill="none" xmlns="http://www.w3.org/2000/svg">
<path d="M3.47432 35.7491H10.9556V17.5803L0.268066 9.5647V32.5428C0.268066 34.3169 1.70554 35.7491 3.47432 35.7491Z" fill="#4285F4"/>
<path d="M36.6056 35.7491H44.0868C45.8609 35.7491 47.2931 34.3116 47.2931 32.5428V9.5647L36.6056 17.5803" fill="#34A853"/>
<path d="M36.6056 3.68654V17.5803L47.2931 9.5647V5.28966C47.2931 1.3246 42.7669 -0.935807 39.5981 1.44216" fill="#FBBC04"/>
<path d="M10.9556 17.5803V3.68657L23.7806 13.3053L36.6056 3.68654V17.5803L23.7806 27.1991" fill="#EA4335"/>
<path d="M0.268066 5.28966V9.5647L10.9556 17.5803V3.68657L7.96307 1.44216C4.78888 -0.935807 0.268066 1.3246 0.268066 5.28966Z" fill="#C5221F"/>
</svg>
