<svg width="48" height="44" viewBox="0 0 48 44" fill="none" xmlns="http://www.w3.org/2000/svg">
<path d="M23.647 39.3701C28.5718 39.3701 33.295 37.4137 36.7774 33.9313C40.2598 30.4489 42.2162 25.7258 42.2162 20.8009C42.2162 15.8761 40.2598 11.1529 36.7774 7.6705C33.295 4.1881 28.5718 2.2317 23.647 2.2317C18.7221 2.2317 13.999 4.1881 10.5166 7.6705C7.03415 11.1529 5.07775 15.8761 5.07775 20.8009C5.07775 25.7258 7.03415 30.4489 10.5166 33.9313C13.999 37.4137 18.7221 39.3701 23.647 39.3701Z" fill="#FFD21E"/>
<path d="M42.2162 20.8009C42.2162 15.8761 40.2598 11.1529 36.7774 7.6705C33.295 4.1881 28.5718 2.2317 23.647 2.2317C18.7221 2.2317 13.999 4.1881 10.5166 7.6705C7.03415 11.1529 5.07775 15.8761 5.07775 20.8009C5.07775 25.7258 7.03415 30.4489 10.5166 33.9313C13.999 37.4137 18.7221 39.3701 23.647 39.3701C28.5718 39.3701 33.295 37.4137 36.7774 33.9313C40.2598 30.4489 42.2162 25.7258 42.2162 20.8009ZM2.94029 20.8009C2.94029 18.0817 3.47588 15.3891 4.51649 12.8768C5.5571 10.3646 7.08234 8.08188 9.00514 6.15909C10.9279 4.23629 13.2106 2.71105 15.7229 1.67044C18.2351 0.629832 20.9277 0.0942383 23.647 0.0942383C26.3662 0.0942383 29.0588 0.629832 31.5711 1.67044C34.0833 2.71105 36.366 4.23629 38.2888 6.15909C40.2116 8.08188 41.7368 10.3646 42.7775 12.8768C43.8181 15.3891 44.3537 18.0817 44.3537 20.8009C44.3537 26.2927 42.1721 31.5595 38.2888 35.4428C34.4056 39.326 29.1387 41.5076 23.647 41.5076C18.1552 41.5076 12.8884 39.326 9.00514 35.4428C5.12188 31.5595 2.94029 26.2927 2.94029 20.8009Z" fill="#FF9D0B"/>
<path d="M29.68 15.7512C30.364 15.9863 30.6311 17.3863 31.3205 17.023C31.7872 16.7751 32.17 16.3945 32.4204 15.9291C32.6708 15.4637 32.7776 14.9345 32.7272 14.4084C32.6769 13.8823 32.4716 13.383 32.1374 12.9736C31.8033 12.5642 31.3552 12.2631 30.8499 12.1084C30.3446 11.9536 29.8047 11.9522 29.2986 12.1043C28.7925 12.2564 28.3428 12.5552 28.0065 12.9629C27.6702 13.3705 27.4624 13.8688 27.4093 14.3946C27.3562 14.9204 27.4602 15.4501 27.7082 15.9168C28.0341 16.5313 29.0708 15.5321 29.6853 15.7458L29.68 15.7512ZM17.0956 15.7512C16.4117 15.9863 16.1391 17.3863 15.4551 17.023C14.9884 16.7751 14.6056 16.3945 14.3552 15.9291C14.1048 15.4637 13.998 14.9345 14.0484 14.4084C14.0987 13.8823 14.304 13.383 14.6382 12.9736C14.9723 12.5642 15.4204 12.2631 15.9257 12.1084C16.4311 11.9536 16.9709 11.9522 17.477 12.1043C17.9831 12.2564 18.4328 12.5552 18.7691 12.9629C19.1054 13.3705 19.3132 13.8688 19.3663 14.3946C19.4195 14.9204 19.3154 15.4501 19.0675 15.9168C18.7415 16.5313 17.6995 15.5321 17.0903 15.7458L17.0956 15.7512Z" fill="#3A3B45"/>
<path d="M23.5134 28.5706C28.7662 28.5706 30.4601 23.8896 30.4601 21.4849C30.4601 20.2345 29.6212 20.6299 28.2746 21.2925C27.0295 21.9071 25.3569 22.7567 23.5187 22.7567C19.6766 22.7567 16.572 19.0803 16.572 21.4849C16.572 23.8896 18.2606 28.5706 23.5187 28.5706H23.5134Z" fill="#FF323D"/>
<path fill-rule="evenodd" clip-rule="evenodd" d="M19.4896 27.3469C19.7716 26.7739 20.1686 26.2651 20.6558 25.8523C21.1431 25.4395 21.7102 25.1316 22.3217 24.9476C22.5355 24.8835 22.7546 25.2522 22.9844 25.6316C23.1981 25.995 23.4225 26.3637 23.647 26.3637C23.8874 26.3637 24.1279 26.0003 24.3577 25.6423C24.5981 25.2682 24.8333 24.9049 25.063 24.9743C26.211 25.3388 27.1703 26.1388 27.7349 27.2026C29.7281 25.6316 30.4601 23.0666 30.4601 21.4849C30.4601 20.2345 29.6212 20.6299 28.2746 21.2925L28.1998 21.3299C26.9654 21.9445 25.3195 22.7567 23.5134 22.7567C21.7072 22.7567 20.0667 21.9445 18.827 21.3299C17.4376 20.6406 16.5666 20.2078 16.5666 21.4849C16.5666 23.1147 17.3468 25.7919 19.4896 27.3469Z" fill="#3A3B45"/>
<path d="M36.2046 18.2627C36.6652 18.2627 37.1069 18.0797 37.4326 17.754C37.7583 17.4283 37.9413 16.9866 37.9413 16.526C37.9413 16.0654 37.7583 15.6237 37.4326 15.298C37.1069 14.9723 36.6652 14.7893 36.2046 14.7893C35.744 14.7893 35.3022 14.9723 34.9766 15.298C34.6509 15.6237 34.4679 16.0654 34.4679 16.526C34.4679 16.9866 34.6509 17.4283 34.9766 17.754C35.3022 18.0797 35.744 18.2627 36.2046 18.2627ZM11.3566 18.2627C11.8172 18.2627 12.2589 18.0797 12.5846 17.754C12.9103 17.4283 13.0932 16.9866 13.0932 16.526C13.0932 16.0654 12.9103 15.6237 12.5846 15.298C12.2589 14.9723 11.8172 14.7893 11.3566 14.7893C10.896 14.7893 10.4542 14.9723 10.1285 15.298C9.80284 15.6237 9.61986 16.0654 9.61986 16.526C9.61986 16.9866 9.80284 17.4283 10.1285 17.754C10.4542 18.0797 10.896 18.2627 11.3566 18.2627ZM7.78164 24.1407C6.91597 24.1407 6.14648 24.4934 5.60677 25.14C5.14655 25.7084 4.89564 26.4178 4.89607 27.1492C4.5596 27.048 4.21071 26.9941 3.8594 26.9889C3.03113 26.9889 2.28302 27.3042 1.754 27.8759C1.28202 28.366 0.984452 28.9978 0.907193 29.6739C0.829934 30.3499 0.977283 31.0325 1.3265 31.6165C0.853581 32.0026 0.518076 32.5311 0.369988 33.1234C0.24174 33.6043 0.113492 34.6196 0.79748 35.6563C0.541072 36.0505 0.388492 36.5032 0.353925 36.9722C0.319357 37.4411 0.403924 37.9113 0.599765 38.3388C1.14482 39.5785 2.50745 40.5511 5.15256 41.5985C6.79307 42.2504 8.29998 42.6672 8.31067 42.6725C10.2143 43.1999 12.1764 43.4871 14.1513 43.5275C17.2827 43.5275 19.5217 42.5657 20.8095 40.674C22.8828 37.6335 22.5889 34.8494 19.9011 32.1669C18.4209 30.6814 17.4323 28.4958 17.2292 28.0149C16.8124 26.5935 15.7116 25.0117 13.8894 25.0117C13.4047 25.0194 12.9287 25.1427 12.5012 25.3713C12.0737 25.5999 11.7069 25.9273 11.4314 26.3263C10.897 25.653 10.3733 25.1239 9.90308 24.8194C9.27557 24.3945 8.53921 24.159 7.78164 24.1407ZM7.78164 26.2782C8.05417 26.2782 8.39082 26.3957 8.75419 26.6255C9.89773 27.3523 12.094 31.1302 12.9009 32.5997C13.1681 33.0913 13.633 33.2997 14.0444 33.2997C14.8727 33.2997 15.5139 32.4822 14.1246 31.4402C12.0299 29.8745 12.7619 27.3148 13.7612 27.1599C13.804 27.1492 13.852 27.1492 13.8894 27.1492C14.7979 27.1492 15.1986 28.7149 15.1986 28.7149C15.1986 28.7149 16.3743 31.6646 18.3942 33.6845C20.4087 35.699 20.5156 37.3182 19.0461 39.4717C18.0415 40.9412 16.1231 41.3847 14.1513 41.3847C12.1154 41.3847 10.0206 40.9038 8.85038 40.6045C8.7916 40.5885 1.66315 38.5739 2.56623 36.864C2.71585 36.5754 2.96701 36.4579 3.28228 36.4579C4.55407 36.4579 6.86254 38.3495 7.8618 38.3495C8.08089 38.3495 8.23586 38.2587 8.30532 38.0289C8.72747 36.5059 1.86087 35.8647 2.43798 33.6631C2.54486 33.273 2.81738 33.1181 3.20747 33.1181C4.88538 33.1181 8.65801 36.0731 9.44887 36.0731C9.50765 36.0731 9.55574 36.0571 9.57711 36.0197C9.97255 35.3784 9.75346 34.9296 6.95872 33.241C4.17467 31.5524 2.21355 30.5371 3.32503 29.3241C3.45328 29.1851 3.63496 29.121 3.8594 29.121C5.55334 29.121 9.55574 32.7654 9.55574 32.7654C9.55574 32.7654 10.6352 33.8875 11.2924 33.8875C11.4421 33.8875 11.5703 33.8341 11.6558 33.6845C12.1154 32.9043 7.34881 29.292 7.08162 27.8011C6.89994 26.7858 7.20987 26.2782 7.78164 26.2782Z" fill="#FF9D0B"/>
<path d="M19.0461 39.4717C20.5156 37.3128 20.4087 35.6937 18.3942 33.6791C16.3743 31.6646 15.1986 28.7095 15.1986 28.7095C15.1986 28.7095 14.7605 26.9996 13.7612 27.1599C12.7619 27.3202 12.0299 29.8745 14.1246 31.4402C16.2139 33.0058 13.7078 34.0692 12.9009 32.5997C12.0993 31.1302 9.89773 27.3523 8.75419 26.6255C7.61599 25.9041 6.81444 26.3049 7.08162 27.8011C7.34881 29.292 12.1207 32.9043 11.6558 33.6791C11.1909 34.4647 9.55574 32.7654 9.55574 32.7654C9.55574 32.7654 4.44186 28.1111 3.32503 29.3241C2.21355 30.5371 4.17467 31.5524 6.95872 33.241C9.75346 34.9296 9.97255 35.3784 9.57711 36.0197C9.17634 36.6609 3.0151 31.4615 2.43798 33.6685C1.86087 35.8647 8.72747 36.5006 8.30532 38.0235C7.87783 39.5465 3.46397 35.1487 2.56623 36.8586C1.65781 38.5739 8.7916 40.5885 8.85038 40.6045C11.1482 41.203 16.9995 42.4695 19.0461 39.4717Z" fill="#FFD21E"/>
<path d="M39.7795 24.1407C40.6452 24.1407 41.42 24.4934 41.9544 25.14C42.4146 25.7084 42.6655 26.4178 42.6651 27.1492C43.0032 27.0475 43.354 26.9936 43.7071 26.9889C44.5353 26.9889 45.2835 27.3042 45.8125 27.8759C46.2845 28.366 46.582 28.9978 46.6593 29.6739C46.7365 30.3499 46.5892 31.0325 46.24 31.6165C46.7109 32.0034 47.0445 32.5318 47.1911 33.1234C47.3194 33.6043 47.4476 34.6196 46.7637 35.6563C47.0201 36.0505 47.1726 36.5032 47.2072 36.9722C47.2418 37.4411 47.1572 37.9113 46.9614 38.3388C46.4163 39.5785 45.0537 40.5511 42.4139 41.5985C40.7681 42.2504 39.2612 42.6672 39.2505 42.6725C37.3469 43.1999 35.3848 43.4871 33.4098 43.5275C30.2785 43.5275 28.0395 42.5657 26.7516 40.674C24.6783 37.6335 24.9722 34.8494 27.6601 32.1669C29.1456 30.6814 30.1342 28.4958 30.3372 28.0149C30.754 26.5935 31.8495 25.0117 33.6717 25.0117C34.1565 25.0194 34.6324 25.1427 35.0599 25.3713C35.4875 25.5999 35.8542 25.9273 36.1298 26.3263C36.6641 25.653 37.1878 25.1239 37.6634 24.8194C38.2894 24.3955 39.0238 24.16 39.7795 24.1407ZM39.7795 26.2782C39.507 26.2782 39.1757 26.3957 38.8069 26.6255C37.6687 27.3523 35.4672 31.1302 34.6603 32.5997C34.5514 32.8094 34.3873 32.9854 34.1858 33.1087C33.9843 33.2321 33.753 33.2981 33.5167 33.2997C32.6938 33.2997 32.0472 32.4822 33.4419 31.4402C35.5313 29.8745 34.7992 27.3148 33.7999 27.1599C33.7575 27.153 33.7146 27.1494 33.6717 27.1492C32.7633 27.1492 32.3625 28.7149 32.3625 28.7149C32.3625 28.7149 31.1869 31.6646 29.1723 33.6845C27.1524 35.699 27.0455 37.3182 28.5204 39.4717C29.5197 40.9412 31.4434 41.3847 33.4098 41.3847C35.4511 41.3847 37.5405 40.9038 38.7161 40.6045C38.7695 40.5885 45.9033 38.5739 45.0002 36.864C44.8453 36.5754 44.5995 36.4579 44.2842 36.4579C43.0124 36.4579 40.6986 38.3495 39.7047 38.3495C39.4802 38.3495 39.3253 38.2587 39.2612 38.0289C38.8337 36.5059 45.7003 35.8647 45.1231 33.6631C45.0216 33.273 44.7491 33.1181 44.3537 33.1181C42.6757 33.1181 38.9031 36.0731 38.1123 36.0731C38.0588 36.0731 38.0107 36.0571 37.9894 36.0197C37.5939 35.3784 37.8077 34.9296 40.5971 33.241C43.3918 31.5524 45.3529 30.5371 44.2308 29.3241C44.1079 29.1851 43.9262 29.121 43.7071 29.121C42.0078 29.121 38.0054 32.7654 38.0054 32.7654C38.0054 32.7654 36.926 33.8875 36.274 33.8875C36.2006 33.8908 36.1277 33.8736 36.0635 33.8377C35.9993 33.8018 35.9464 33.7488 35.9107 33.6845C35.4458 32.9043 40.2123 29.292 40.4795 27.8011C40.6612 26.7858 40.3513 26.2782 39.7795 26.2782Z" fill="#FF9D0B"/>
<path d="M28.5204 39.4717C27.0509 37.3128 27.1524 35.6937 29.1723 33.6791C31.1869 31.6646 32.3625 28.7095 32.3625 28.7095C32.3625 28.7095 32.8007 26.9996 33.8053 27.1599C34.7992 27.3202 35.5313 29.8745 33.4419 31.4402C31.3472 33.0058 33.8587 34.0692 34.6603 32.5997C35.4672 31.1302 37.6687 27.3523 38.8069 26.6255C39.9451 25.9041 40.752 26.3049 40.4795 27.8011C40.2123 29.292 35.4458 32.9043 35.9107 33.6791C36.3702 34.4647 38.0054 32.7654 38.0054 32.7654C38.0054 32.7654 43.1246 28.1111 44.2361 29.3241C45.3476 30.5371 43.3918 31.5524 40.6024 33.241C37.8077 34.9296 37.5939 35.3784 37.984 36.0197C38.3848 36.6609 44.546 31.4615 45.1231 33.6685C45.7003 35.8647 38.839 36.5006 39.2612 38.0235C39.6886 39.5465 44.0972 35.1487 45.0002 36.8586C45.9033 38.5739 38.7749 40.5885 38.7161 40.6045C36.413 41.203 30.5617 42.4695 28.5204 39.4717Z" fill="#FFD21E"/>
</svg>
