<svg width="81" height="16" viewBox="0 0 81 16" fill="none" xmlns="http://www.w3.org/2000/svg">
<mask id="mask0_20980_33145" style="mask-type:luminance" maskUnits="userSpaceOnUse" x="0" y="-1" width="81" height="17">
<path d="M0 15.1776H80.7151V-0.000108719H0V15.1776Z" fill="white"/>
</mask>
<g mask="url(#mask0_20980_33145)">
<path d="M66.822 3.47266H64.6436C64.6436 3.47266 61.7519 6.38112 61.4709 6.66411V0.40624H59.776V11.8356H61.4709V7.78118C61.7614 8.11427 65.0111 11.8356 65.0111 11.8356H67.2879C67.2879 11.8356 63.1735 7.3181 63.0534 7.19082C63.1794 7.07212 66.822 3.47266 66.822 3.47266ZM23.4508 8.56697C23.4508 9.78785 22.6623 10.7181 21.1641 10.7181C20.4716 10.7181 19.6346 10.2532 19.6346 9.3857C19.6346 7.94096 21.6635 7.81277 22.4846 7.81277C22.8068 7.81277 23.1286 7.84527 23.4508 7.84527V8.56697ZM25.055 10.1408V6.75483C25.055 4.38392 23.9774 3.28039 21.6635 3.28039C20.7127 3.28039 19.7869 3.54352 18.9118 4.06257L18.8642 4.091L18.9594 5.60751L19.0967 5.49242C19.6944 4.99098 20.5854 4.67955 21.4219 4.67955C22.7665 4.67955 23.3293 5.25005 23.3556 6.628C22.8109 6.60182 22.3958 6.60047 21.8407 6.60047C20.3896 6.60047 17.9338 7.18676 17.9338 9.3857C17.9338 11.0895 19.0351 12.0274 21.0354 12.0274C22.3741 12.0274 23.1594 11.3409 23.5215 10.909V11.8356H25.1325L25.1189 11.7327C25.0759 11.4136 25.055 10.8927 25.055 10.1408ZM30.5851 10.7181C28.878 10.7181 28.1697 9.0323 28.1697 7.6688C28.1697 6.14506 28.9587 4.58928 30.601 4.58928C32.2438 4.58928 32.8882 6.14506 32.856 7.62095C32.8882 8.90367 32.2116 10.7181 30.5851 10.7181ZM30.9232 3.28039C29.6144 3.28039 28.6859 3.87752 28.1956 4.49134V3.47266H26.5655V14.7522H28.2599V10.8584C28.8305 11.6307 29.7273 12.0274 30.9395 12.0274C33.6092 12.0274 34.5568 9.59287 34.5568 7.50857C34.5568 5.55832 33.6051 3.28039 30.9232 3.28039ZM80.5759 10.3579C80.2908 10.5398 79.9609 10.6319 79.5939 10.6319C79.0052 10.6319 78.412 10.2085 78.412 9.26203V4.87589H80.2967V3.47673H78.412V1.32653L76.7175 1.95615V3.47673H75.3879V4.87589H76.7175V9.56669C76.7175 11.1789 77.623 12.0315 79.3369 12.0315C79.849 12.0315 80.3498 11.8888 80.6498 11.8035L80.715 11.7805V10.269L80.5759 10.3579ZM48.8141 10.6319C48.2255 10.6319 47.6318 10.2085 47.6323 9.26203V4.87589H49.5166V3.47673H47.6323V1.32653L45.9378 1.95615V3.47673H44.6078V4.87589H45.9378V9.56669C45.9378 11.1789 46.8433 12.0315 48.5567 12.0315C49.0693 12.0315 49.5705 11.8888 49.8701 11.8035L49.9349 11.7805V10.269L49.7957 10.3579C49.5111 10.5398 49.1812 10.6319 48.8141 10.6319ZM68.5994 6.88797C68.7194 5.82326 69.3684 4.58522 70.94 4.58522C72.3236 4.58522 73.1094 5.62963 73.1094 6.88797H68.5994ZM70.9808 3.27227C68.521 3.27227 66.9543 5.10562 66.9543 7.54242C66.9543 10.2211 68.5377 12.0319 71.4634 12.0319C72.8986 12.0319 73.5992 11.6736 74.2138 11.4637V9.8542C73.8213 10.1611 72.5914 10.6774 71.5323 10.6774C70.0115 10.6774 68.6628 9.76618 68.6628 8.13684H74.7997C74.8011 8.06462 74.8038 8.00008 74.8038 7.92877C74.8038 5.3674 73.8059 3.27227 70.9808 3.27227ZM52.2139 6.88797C52.3335 5.82326 52.982 4.58522 54.5541 4.58522C55.9372 4.58522 56.723 5.62963 56.723 6.88797H52.2139ZM54.5949 3.27227C52.1355 3.27227 50.5684 5.10562 50.5684 7.54242C50.5684 10.2211 52.1518 12.0319 55.0779 12.0319C56.5127 12.0319 57.2129 11.6736 57.8283 11.4637V9.8542C57.4354 10.1611 56.205 10.6774 55.1459 10.6774C53.626 10.6774 52.2764 9.76618 52.2764 8.13684H58.4138C58.4151 8.06462 58.4174 8.00008 58.4174 7.92877C58.4174 5.3674 57.42 3.27227 54.5949 3.27227ZM39.8956 10.6869C38.1468 10.6869 37.3502 9.11309 37.3502 7.65119C37.3502 6.18117 38.2425 4.61817 39.8956 4.61817C41.5366 4.61817 42.4226 6.18117 42.4226 7.65119C42.4226 9.11309 41.6313 10.6869 39.8956 10.6869ZM39.8956 3.28536C37.3805 3.28536 35.624 5.0808 35.624 7.65119C35.624 10.1417 37.4603 12.0202 39.8956 12.0202C42.3201 12.0202 44.1487 10.1417 44.1487 7.65119C44.1487 5.0808 42.3994 3.28536 39.8956 3.28536Z" fill="white"/>
<path d="M15.2107 15.1168C15.273 15.1166 15.3238 15.0752 15.324 15.0123V0.104065C15.3239 0.041934 15.2731 0.000681877 15.2107 0.000549316H8.18042C5.3923 0.000607491 3.76105 0.789384 2.32593 2.13336C0.891255 3.47648 -0.000142645 5.3824 -0.000244141 7.55817C-0.000244141 9.73409 0.891626 11.6402 2.32593 12.983C3.76148 14.3269 5.39191 15.1167 8.18042 15.1168H15.2107ZM7.59546 13.2603C5.15647 13.2554 2.80054 11.4005 2.80054 8.14313C2.79967 7.61582 2.87183 7.37653 2.87183 7.37653H10.4841V3.90582C10.4746 3.34074 10.1459 2.99057 9.55542 2.98199C9.06197 2.98562 8.6238 3.35837 8.6228 3.90485V4.93707L6.95386 6.0191L6.95581 3.89996C6.95581 2.56489 8.1423 1.49762 9.60425 1.49762C10.9564 1.49776 12.1941 2.37408 12.1941 3.91168V7.37653H13.198L13.8787 8.98785H12.1755C12.016 10.3563 11.0813 13.2603 7.65308 13.2603H7.59546ZM7.6228 11.6334C9.27908 11.6333 10.3835 10.1491 10.3894 8.98785H4.63062C4.7072 10.2606 6.06886 11.6334 7.6228 11.6334Z" fill="white"/>
</g>
</svg>
