<svg width="124" height="50" viewBox="0 0 124 50" fill="none" xmlns="http://www.w3.org/2000/svg">
<mask id="mask0_22319_43174" style="mask-type:luminance" maskUnits="userSpaceOnUse" x="8" y="14" width="108" height="22">
<path d="M116 14.9043H8V35.0966H116V14.9043Z" fill="white"/>
</mask>
<g mask="url(#mask0_22319_43174)">
<path fill-rule="evenodd" clip-rule="evenodd" d="M15.2569 17.375C14.5536 17.375 14.1302 17.8265 13.8478 18.4127L8.64409 30.4193C8.50369 30.5668 8.51589 30.7182 8.51589 31.01C8.51589 31.5912 9.07629 32.1755 9.63669 32.1755C10.1997 32.1755 10.6173 31.8855 10.7576 31.2972L11.8784 28.5193H15.3849C15.9454 28.5193 16.5216 28.0832 16.5216 27.4973C16.5216 26.9113 15.9454 26.316 15.3849 26.316H12.8712L15.2569 20.4564L17.7706 26.316L18.6192 28.5193L19.74 31.2972C20.02 31.7388 20.4447 32.1755 21.005 32.1755C21.5679 32.1755 22.1257 31.5942 22.1257 30.8663C22.1257 30.7213 22.1219 30.5668 21.9818 30.4193L16.794 18.4127C16.514 17.8265 16.085 17.375 15.3849 17.375H15.2569ZM43.3261 17.375C39.1141 17.375 36.1684 20.7482 36.1684 24.8469C36.1684 28.9457 39.1141 32.3191 43.3261 32.3191C47.5354 32.3191 50.6269 28.9457 50.6269 24.8469C50.6269 20.7482 47.6731 17.375 43.3261 17.375ZM77.8645 17.5346C77.1571 17.5346 76.5982 18.1184 76.5982 18.8439V30.8663C76.5982 31.5942 77.1571 32.1755 77.8645 32.1755C78.4207 32.1755 78.985 31.5942 78.985 30.8663V27.9287L81.226 25.5814L85.7242 31.5848C86.005 31.879 86.2804 32.1755 86.7016 32.1755C87.4009 32.1755 87.9679 31.5942 87.9679 30.8663C87.9679 30.5743 87.8221 30.2666 87.679 29.9721L82.9081 23.969L87.2632 19.7219C87.5386 19.4277 87.679 19.1337 87.679 18.7002C87.679 18.1138 87.2632 17.5346 86.5585 17.5346C86.1373 17.5346 85.8646 17.6713 85.5811 17.9658L78.985 24.847V18.8439C78.985 18.1184 78.4207 17.5346 77.8645 17.5346ZM25.0741 17.6782C24.5136 17.6782 23.9534 18.2589 23.9534 18.9875V30.8663C23.9534 31.5942 24.5136 32.1755 25.0741 32.1755C25.7767 32.1755 26.3391 31.5942 26.3391 30.8663V27.3377H29.1571C32.2442 27.3377 34.617 25.7392 34.617 22.5161C34.617 19.5846 32.6565 17.6782 29.4292 17.6782H25.0741ZM51.7485 17.6782C51.1869 17.6782 50.628 18.2627 50.628 18.8439C50.628 19.4328 51.1869 20.0254 51.7485 20.0254H55.1127V30.8663C55.1127 31.5942 55.6905 32.1755 56.3925 32.1755C57.0891 32.1755 57.6426 31.5942 57.6426 30.8663V20.0254H61.0203C61.5846 20.0254 62.1408 19.4328 62.1408 18.8439C62.1408 18.2627 61.5846 17.6782 61.0203 17.6782H51.7485ZM64.9434 17.6782C64.2387 17.6782 63.6771 18.2589 63.6771 18.9875V30.7227C63.6771 31.4488 64.2387 32.0317 64.9434 32.0317H73.092C73.6563 32.0317 74.2152 31.5942 74.2152 30.8663C74.2152 30.2801 73.6563 29.8286 73.092 29.8286H66.207V25.8849H72.1011C72.6627 25.8849 73.2216 25.4334 73.2216 24.847C73.2216 24.1134 72.6627 23.6815 72.1011 23.6815H66.207V19.8657H72.9489C73.6536 19.8657 74.0694 19.4328 74.0694 18.8439C74.0694 18.1184 73.6536 17.6782 72.9489 17.6782H64.9434ZM43.3272 19.7219C46.1325 19.7219 48.0981 22.0626 48.0981 24.847C48.0981 27.6309 46.1325 29.9721 43.3272 29.9721C40.6596 29.9721 38.6994 27.6309 38.6994 24.847C38.6994 22.0626 40.6596 19.7219 43.3272 19.7219ZM26.3391 20.0254H29.1571C30.9812 20.0254 32.2313 20.9065 32.2313 22.5161C32.2313 24.1247 30.9812 25.1505 29.1571 25.1505H26.3391V20.0254Z" fill="white"/>
<path fill-rule="evenodd" clip-rule="evenodd" d="M115.483 20.9019C115.483 19.4323 114.922 17.9704 113.801 16.7952C112.681 15.6253 111.271 15.0391 109.87 15.0391H109.727C108.466 15.0391 106.924 15.6253 105.939 16.7953L102.569 20.1661C102.148 20.7549 102.148 21.4805 102.569 21.9223C102.993 22.5114 103.83 22.5114 104.254 21.9223L107.621 18.5569C108.326 17.8235 109.03 17.5292 109.87 17.5292C110.572 17.5292 111.271 17.8235 112.117 18.5569C112.816 19.2854 113.097 20.1661 113.097 20.9019C113.097 21.775 112.816 22.5114 112.117 23.2444L103.555 32.1778L94.8475 23.2444C94.1485 22.5114 93.8675 21.628 93.8675 20.9019C93.8675 20.0186 94.1485 19.2854 94.8475 18.5569C95.5495 17.8235 96.2575 17.5292 97.0945 17.5292C97.7985 17.5292 98.6385 17.8235 99.3435 18.5569L99.4835 18.8437C100.045 19.2854 100.744 19.2854 101.306 18.8437C101.73 18.2623 101.73 17.5292 101.306 17.0872L101.028 16.7954C99.9045 15.6254 98.4985 15.0392 97.0945 15.0392C95.6925 15.0392 94.2885 15.6254 93.1635 16.7954C92.0425 17.9705 91.4805 19.4324 91.4805 20.9019C91.4805 22.3639 92.0425 23.8256 93.1635 25.0008L102.286 34.3735C102.569 34.8147 102.993 34.9623 103.414 34.9623H103.555C103.971 34.9623 104.395 34.8147 104.675 34.3735L113.801 25.0008C114.922 23.8256 115.483 22.3638 115.483 20.9019Z" fill="white"/>
</g>
</svg>
