<svg width="41" height="50" viewBox="0 0 41 50" fill="none" xmlns="http://www.w3.org/2000/svg">
<path d="M31.7423 31.0045C31.3069 32.0058 30.7916 32.9275 30.1944 33.7749C29.3805 34.9301 28.7141 35.7297 28.2005 36.1738C27.4044 36.9026 26.5513 37.2759 25.6379 37.2971C24.9821 37.2971 24.1913 37.1114 23.2708 36.7346C22.3472 36.3595 21.4985 36.1738 20.7224 36.1738C19.9085 36.1738 19.0356 36.3595 18.1019 36.7346C17.1667 37.1114 16.4134 37.3077 15.8375 37.3272C14.9615 37.3643 14.0884 36.9805 13.2169 36.1738C12.6607 35.6908 11.9649 34.8629 11.1315 33.69C10.2372 32.4375 9.50202 30.9851 8.92606 29.3292C8.30922 27.5407 8 25.8088 8 24.1321C8 22.2114 8.41691 20.5548 9.25198 19.1667C9.90827 18.0516 10.7814 17.1721 11.8741 16.5264C12.9669 15.8806 14.1476 15.5516 15.4191 15.5305C16.1149 15.5305 17.0272 15.7448 18.161 16.1658C19.2916 16.5883 20.0176 16.8025 20.3359 16.8025C20.5738 16.8025 21.3803 16.552 22.7474 16.0526C24.0403 15.5895 25.1314 15.3977 26.0253 15.4732C28.4475 15.6678 30.2673 16.6183 31.4775 18.3308C29.3112 19.6374 28.2396 21.4675 28.2609 23.8152C28.2805 25.6439 28.9469 27.1657 30.2566 28.3739C30.8502 28.9347 31.5131 29.3682 32.2506 29.676C32.0906 30.1377 31.9218 30.58 31.7423 31.0045ZM26.187 9.24328C26.187 10.6766 25.661 12.0149 24.6125 13.2536C23.3472 14.7262 21.8167 15.5771 20.1571 15.4428C20.1359 15.2708 20.1237 15.0899 20.1237 14.8997C20.1237 13.5237 20.7254 12.0511 21.794 10.8471C22.3275 10.2375 23.006 9.7306 23.8288 9.32625C24.6498 8.92792 25.4264 8.70764 26.1568 8.66992C26.1782 8.86153 26.187 9.05318 26.187 9.24328Z" fill="white"/>
</svg>
