<svg width="169" height="21" viewBox="0 0 169 21" fill="none" xmlns="http://www.w3.org/2000/svg">
<g clip-path="url(#clip0_20980_33124)">
<path d="M32.0427 0.596344H40.1279C41.668 0.596344 42.823 0.978393 43.6786 1.61514C44.6197 2.37924 45.1331 3.48293 45.1331 4.84133C45.1331 6.41198 44.4914 7.38832 43.208 7.98262V8.06752C44.9192 8.61937 45.9031 10.1476 45.9031 11.9729C45.9031 13.7134 45.2186 15.0717 44.1064 15.9207C43.1652 16.5999 41.9674 16.8971 40.3418 16.8971H32.0427V0.596344ZM39.3151 6.96382C40.1707 6.96382 40.8124 6.49688 40.8124 5.52053C40.8124 4.58663 40.1707 4.11968 39.2724 4.11968H36.4917V6.92137H39.3151V6.96382ZM39.7002 13.2889C40.6841 13.2889 41.4113 12.6946 41.4113 11.6333C41.4113 10.4872 40.6413 9.97776 39.7002 9.97776H36.5345V13.3313H39.7002V13.2889Z" fill="white"/>
<path d="M46.6301 0.596344H50.8652V16.9395H46.6301V0.596344Z" fill="white"/>
<path d="M51.7209 11.1239C51.7209 7.43075 54.1166 4.96866 57.8383 4.96866C61.5601 4.96866 63.9129 7.4732 63.9129 11.1239C63.9129 14.817 61.5601 17.2791 57.8383 17.2791C54.1166 17.2791 51.7209 14.817 51.7209 11.1239ZM59.6778 11.1239C59.6778 9.08629 59.0361 7.8128 57.7528 7.8128C56.4694 7.8128 55.8705 9.08629 55.8705 11.1239C55.8705 13.1615 56.4694 14.4774 57.7528 14.4774C59.0361 14.435 59.6778 13.1615 59.6778 11.1239Z" fill="white"/>
<path d="M64.3835 11.1239C64.3835 7.43075 66.7792 4.96866 70.5009 4.96866C74.2227 4.96866 76.5328 7.43075 76.5328 11.1239C76.5328 14.817 74.1799 17.2791 70.4582 17.2791C66.7792 17.2791 64.3835 14.817 64.3835 11.1239ZM72.3404 11.1239C72.3404 9.08629 71.6987 7.8128 70.4154 7.8128C69.132 7.8128 68.5331 9.08629 68.5331 11.1239C68.5331 13.1615 69.132 14.4774 70.4154 14.4774C71.6987 14.435 72.3404 13.1615 72.3404 11.1239Z" fill="white"/>
<path d="M77.3884 5.26581H81.3241V7.00625H81.4096C82.1797 5.64786 83.2491 4.92621 84.9603 4.92621C86.4576 4.92621 87.5698 5.64786 88.1259 6.92135H88.2115C89.1526 5.39316 90.3932 4.92621 91.8477 4.92621C94.5856 4.92621 95.7406 6.92135 95.7406 9.59569V16.8971H91.6338V10.3173C91.6338 9.12874 91.2488 8.36465 90.2221 8.36465C89.1954 8.36465 88.6821 9.29854 88.6821 10.572V16.8971H84.5753V10.3173C84.5753 9.12874 84.1903 8.36465 83.1636 8.36465C82.1369 8.36465 81.6235 9.29854 81.6235 10.572V16.8971H77.3884V5.26581Z" fill="white"/>
<path d="M100.917 15.3689H100.874V16.8971H96.9385V0.596344H101.045V6.45443H101.131C101.901 5.43563 102.97 4.88378 104.468 4.88378C107.419 4.88378 109.13 7.51567 109.13 11.039C109.13 14.9869 107.291 17.2791 104.211 17.2791C102.928 17.2791 101.601 16.6848 100.917 15.3689ZM104.895 10.9966C104.895 9.12877 104.211 7.89772 102.97 7.89772C101.687 7.89772 100.917 9.12877 100.917 10.9966C100.917 12.8644 101.73 14.0954 102.97 14.0954C104.211 14.0954 104.895 12.9068 104.895 10.9966Z" fill="white"/>
<path d="M109.601 11.0814C109.601 7.43075 112.039 4.92621 115.547 4.92621C117.301 4.92621 118.627 5.47806 119.654 6.4544C121.023 7.77035 121.622 9.80794 121.579 12.1851H113.708C113.879 13.6284 114.563 14.3925 115.804 14.3925C116.531 14.3925 117.173 14.0529 117.429 13.2888H121.408C120.723 15.9632 118.627 17.2791 115.675 17.2791C112.039 17.2367 109.601 14.7746 109.601 11.0814ZM113.708 9.85039H117.472C117.387 8.44955 116.617 7.7279 115.633 7.7279C114.478 7.68545 113.836 8.492 113.708 9.85039Z" fill="white"/>
<path d="M126.242 7.26095H126.327C127.183 5.64786 128.295 5.01111 129.707 5.01111C130.049 5.01111 130.263 5.05356 130.391 5.13846V8.70425H130.306C127.867 8.27975 126.456 9.42589 126.456 12.0578V16.9395H122.306V5.26581H126.242V7.26095Z" fill="white"/>
<path d="M130.819 16.9395H134.798C134.969 17.4489 135.482 17.9159 136.466 17.9159C137.792 17.9159 138.263 17.1093 138.263 15.8783V15.0293H138.177C137.535 15.7934 136.637 16.3452 135.354 16.3452C132.83 16.3452 130.605 14.4774 130.605 10.8267C130.605 7.4732 132.402 4.88376 135.14 4.88376C136.723 4.88376 137.664 5.52051 138.305 6.49685H138.391V5.22336H142.327V15.3264C142.327 17.1942 141.685 18.6375 140.701 19.4865C139.674 20.378 138.22 20.76 136.552 20.76C133.386 20.8025 131.204 19.529 130.819 16.9395ZM138.434 10.6569C138.434 9.21364 137.749 8.02505 136.552 8.02505C135.396 8.02505 134.669 9.04385 134.669 10.6569C134.669 12.2276 135.396 13.3313 136.552 13.3313C137.707 13.3313 138.434 12.1851 138.434 10.6569Z" fill="white"/>
</g>
<defs>
<clipPath id="clip0_20980_33124">
<rect width="168.101" height="20.3759" fill="white"/>
</clipPath>
</defs>
</svg>
