<svg width="121" height="50" viewBox="0 0 121 50" fill="none" xmlns="http://www.w3.org/2000/svg">
<path d="M17.2919 25.8388C17.8598 25.5319 18.8906 25.6452 19.2841 25.7353C19.4232 25.7657 19.427 25.8533 19.4033 25.9326C19.34 26.1374 19.2381 26.4674 19.1201 26.8564C19.3424 26.8696 19.5386 26.8748 19.7089 26.874C20.1327 26.8695 20.7135 26.8906 20.7695 26.6933C20.7879 26.6193 20.9566 26.6331 21.1865 26.8749C21.63 27.341 21.3242 27.9846 20.9863 28.3163C20.6714 28.6242 20.0845 28.8003 19.3613 28.7871C19.0626 28.7839 18.8126 28.7659 18.5478 28.7382C18.3895 29.2594 18.2385 29.7587 18.121 30.1494C18.0513 30.3845 17.9609 30.4388 17.9111 30.4658C17.3416 30.7718 16.3125 30.6612 15.9179 30.5722C15.7815 30.5405 15.7749 30.4533 15.7988 30.3749C15.9386 29.9189 16.1483 29.2304 16.3603 28.5351C13.7418 28.5056 13.0447 29.6677 12.7089 30.0761C11.5192 31.5153 10.556 32.1916 8.74213 31.7792C8.36399 31.6733 8.16055 31.544 8.07319 31.4492C7.98739 31.3551 7.98441 31.2861 8.02631 31.2412C8.06295 31.1962 8.14535 31.1868 8.2226 31.2158C8.33538 31.2595 8.489 31.3432 8.63471 31.3847C10.6396 31.9635 11.0574 30.3696 12.1025 28.8906C13.4607 26.9695 15.063 26.5851 16.9257 26.6718C16.9908 26.4519 17.0461 26.2725 17.081 26.1562C17.1506 25.9209 17.2407 25.8668 17.2919 25.8388ZM37.7187 20.9121C38.7954 20.9121 39.5821 21.1405 40.1015 21.5654C40.621 21.9918 40.8632 22.6133 40.8632 23.3798C40.867 24.5242 40.25 25.1291 39.4697 25.4287C40.5813 25.7082 41.3037 26.4633 41.3007 27.829C41.2961 29.2302 40.2768 30.6595 38.0693 30.6621H32.0781V20.9121H37.7187ZM49.3017 20.9121C50.3174 20.9121 51.0211 21.2523 51.4648 21.7519C51.9091 22.2494 52.0956 22.9034 52.0956 23.5273C52.0975 24.6744 51.5325 25.5463 50.4912 25.913C51.3314 26.0954 51.8168 26.8967 51.8691 27.9912C51.9528 29.7895 52.0124 30.2246 52.3369 30.5849L52.4052 30.6621H50.6982L50.6855 30.6445C50.429 30.351 50.4374 29.9387 50.3642 28.7773C50.2568 27.0519 49.6889 26.5718 48.4687 26.5644H44.6171V30.6621H43.0273V20.9121H49.3017ZM64.666 30.6621H62.8554L61.5761 27.8476H56.708L55.4277 30.6621H53.7148L58.3066 20.9121H60.0732L64.666 30.6621ZM68.0331 30.6621H66.4453V20.9121H68.0331V30.6621ZM78.5605 28.5439V20.9121H80.1503V30.6621H78.3466L71.9257 23.0322V30.6621H70.3359V20.9121H72.1396L78.5605 28.5439ZM102.202 30.6621H100.393L99.1103 27.8476H94.2441L92.9609 30.6621H91.2499L95.8417 20.9121H97.6074L102.202 30.6621ZM83.9492 29.3232H90.0624V30.6611H82.3593V20.9121H83.9492V29.3232ZM109.277 20.8779C110.354 20.8779 111.141 21.1057 111.659 21.5312C112.18 21.956 112.424 22.5793 112.424 23.3447C112.427 24.4912 111.809 25.0969 111.027 25.3935C112.139 25.6746 112.861 26.427 112.858 27.7949C112.856 29.1947 111.836 30.6248 109.628 30.6279H103.637V20.8779H109.277ZM33.6679 29.3232H37.6611C39.3067 29.3171 39.7054 28.5433 39.7119 27.7353C39.7061 26.9944 39.2903 26.2435 37.788 26.2372H33.6679V29.3232ZM105.227 26.205V29.291H109.22C110.866 29.2829 111.263 28.5087 111.271 27.7011C111.265 26.9609 110.848 26.2098 109.348 26.205H105.227ZM57.3124 26.5117H60.9824L59.1269 22.4013L57.3124 26.5117ZM94.8476 26.5117H98.5185L96.663 22.4013L94.8476 26.5117ZM18.4462 22.0976C19.0163 21.7912 20.0458 21.9036 20.4384 21.9921C20.5776 22.0238 20.5827 22.1128 20.5605 22.1894C20.4395 22.5651 20.3439 22.8649 20.2617 23.123C21.5222 23.1877 21.995 23.1139 22.1728 23.0898C22.3137 23.0708 22.4391 23.0143 22.4589 22.9257C22.4758 22.8545 22.642 22.85 22.8964 23.1142C23.3307 23.5636 23.0563 24.3038 22.6074 24.6337C22.2215 24.9171 21.5919 25.137 20.583 25.0683C18.9516 24.9599 16.6429 24.5768 14.8798 25.3505C14.2616 25.621 14.1197 26.0702 14.2499 26.2665C14.2916 26.33 14.149 26.4546 13.7763 26.4296C13.1763 26.3865 12.6276 26.0324 12.5156 25.4521C12.4387 25.0538 12.6552 24.6232 12.8896 24.373C13.8932 23.3079 15.8283 22.8698 18.0439 22.9658C18.1058 22.7807 18.1703 22.5847 18.2402 22.3798C18.3192 22.1465 18.3961 22.1248 18.4462 22.0976ZM44.6171 25.2265H48.7372C50.1778 25.2217 50.499 24.4078 50.5058 23.7421C50.499 22.8441 49.9566 22.2531 48.7802 22.247H44.6171V25.2265ZM33.6679 24.9023H37.6904C38.7703 24.8974 39.2715 24.3435 39.2763 23.5937C39.2689 22.7359 38.8182 22.2558 37.6054 22.247H33.6679V24.9023ZM105.227 22.2138V24.8671H109.249C110.329 24.8618 110.831 24.3092 110.836 23.5605C110.828 22.7014 110.375 22.2204 109.165 22.2138H105.227ZM19.6171 18.3037C20.1867 17.9959 21.2165 18.1083 21.6103 18.1962C21.7494 18.2271 21.7516 18.3156 21.7304 18.3935C21.6352 18.7384 21.5493 19.0349 21.4667 19.2997C21.7378 19.3323 22.0873 19.3709 22.4316 19.4013C22.8996 19.4489 23.0338 19.4662 23.2812 19.3759C23.6942 19.2319 24.0179 19.0559 24.7997 19.0497C25.826 19.0426 27.0038 19.4893 27.8466 19.9599C28.1746 20.1436 28.1701 20.3432 28.164 20.5195C28.1577 20.6934 28.1052 20.9567 27.8212 21.1132C27.2955 21.4067 26.1607 21.8263 25.1542 21.8242C23.9449 21.8241 22.832 21.3901 21.1005 21.1562C19.4695 20.9373 17.6517 21.2058 16.9287 21.6757C16.6378 21.8973 16.5131 22.1935 16.6171 22.3632C16.6559 22.4267 16.5369 22.539 16.1621 22.5107C15.5256 22.4648 14.8884 21.9689 14.9228 21.3271C14.9567 20.7085 15.4612 20.2938 15.7646 20.0869C16.6513 19.4823 17.8662 19.2005 19.2167 19.163C19.2803 18.9732 19.3455 18.7803 19.4121 18.5839C19.4907 18.3503 19.5679 18.3293 19.6171 18.3037ZM24.7597 19.5136C24.3643 19.5437 23.9512 19.9848 24.7158 20.1347C25.6205 20.277 25.9577 20.0091 25.8691 19.9052C25.6805 19.6844 25.205 19.4788 24.7597 19.5136Z" fill="white"/>
</svg>
