<svg width="71" height="50" viewBox="0 0 71 50" fill="none" xmlns="http://www.w3.org/2000/svg">
<path d="M21.628 16.2996C22.9784 16.2996 24.0734 17.3941 24.0734 18.7446C24.0734 20.0955 22.9784 21.19 21.628 21.19H10.4454C9.09479 21.19 8 20.0955 8 18.7446C8 17.3941 9.09479 16.2996 10.4454 16.2996H21.628Z" fill="white"/>
<path d="M20.504 22.7069C21.8546 22.7069 22.9494 23.8015 22.9494 25.1522C22.9494 26.5027 21.8546 27.5973 20.504 27.5973H14.1392C13.5964 27.5993 13.152 28.0287 13.1312 28.566V31.7531C13.1312 33.1035 12.0364 34.1982 10.6862 34.1982C9.33567 34.1982 8.24089 33.1035 8.24089 31.7531V26.3295C8.24089 24.3289 9.86273 22.7069 11.8634 22.7069H20.504Z" fill="white"/>
<path d="M25.1837 18.2294C25.1837 16.879 26.2785 15.7842 27.6289 15.7842C28.9796 15.7842 30.0743 16.879 30.0743 18.2294V31.7703C30.0743 33.1209 28.9796 34.2157 27.6289 34.2157C26.2785 34.2157 25.1837 33.1209 25.1837 31.7703V18.2294Z" fill="white"/>
<path d="M55.2794 29.3656L56.2622 29.3631C56.463 29.3631 56.6259 29.2 56.6259 28.9994C56.6268 28.9483 56.6183 28.9029 56.6001 28.86L52.9462 22.7199L47.238 32.6039C46.7971 33.3681 46.0053 33.8041 45.1836 33.826C45.1594 33.8294 45.1351 33.8312 45.1095 33.8312H35.8199C33.8191 33.8312 32.1973 32.2093 32.1973 30.2087V18.2294C32.1973 16.879 33.2921 15.7842 34.6426 15.7842C35.9929 15.7842 37.0879 16.879 37.0879 18.2294V27.9325C37.0895 28.4756 37.5188 28.9201 38.0566 28.9405H43.2531C43.3869 28.8994 43.7955 28.7604 43.9201 28.5669L50.4473 17.2677C50.9426 16.4173 51.8639 15.8448 52.9185 15.8448C53.9736 15.8448 54.8952 16.4182 55.3882 17.2704L61.7486 27.949C62.222 28.5656 62.5036 29.337 62.5036 30.1743C62.5036 32.194 60.8663 33.8312 58.8469 33.8312H51.4329C50.1994 33.8312 49.2001 32.8313 49.2001 31.5981C49.2001 30.3652 50.1994 29.3656 51.4329 29.3656H55.2794Z" fill="white"/>
</svg>
