<svg width="62" height="21" viewBox="0 0 62 21" fill="none" xmlns="http://www.w3.org/2000/svg">
<g clip-path="url(#clip0_20980_33135)">
<path d="M15.2969 0.578484C16.8127 0.578484 18.0417 1.80702 18.0417 3.32298C18.0417 4.83924 16.8127 6.06779 15.2969 6.06779H2.74481C1.22886 6.06779 0 4.83924 0 3.32298C0 1.80702 1.22886 0.578484 2.74481 0.578484H15.2969Z" fill="white"/>
<path d="M14.0353 7.77044C15.5512 7.77044 16.7801 8.99914 16.7801 10.5152C16.7801 12.0311 15.5512 13.2598 14.0353 13.2598H6.89097C6.28171 13.262 5.78287 13.7439 5.75955 14.3471V17.9245C5.75955 19.4403 4.5307 20.669 3.0152 20.669C1.49924 20.669 0.270394 19.4403 0.270394 17.9245V11.8367C0.270394 9.59115 2.09083 7.77044 4.33646 7.77044H14.0353Z" fill="white"/>
<path d="M19.288 2.74469C19.288 1.22889 20.5169 0 22.0327 0C23.5488 0 24.7775 1.22889 24.7775 2.74469V17.9438C24.7775 19.4598 23.5488 20.6886 22.0327 20.6886C20.5169 20.6886 19.288 19.4598 19.288 17.9438V2.74469Z" fill="white"/>
<path d="M53.0692 15.2446L54.1723 15.2418C54.3977 15.2418 54.5806 15.0587 54.5806 14.8335C54.5816 14.7762 54.5721 14.7252 54.5517 14.677L50.4503 7.7851L44.043 18.8794C43.5482 19.7373 42.6594 20.2266 41.7371 20.2512C41.71 20.255 41.6826 20.257 41.6539 20.257H31.2267C28.9808 20.257 27.1604 18.4365 27.1604 16.1909V2.74469C27.1604 1.22889 28.3893 0 29.9053 0C31.4209 0 32.6499 1.22889 32.6499 2.74469V13.636C32.6518 14.2456 33.1336 14.7446 33.7373 14.7674H39.5702C39.7204 14.7213 40.179 14.5653 40.3188 14.3481L47.6454 1.66521C48.2013 0.710701 49.2355 0.0679959 50.4192 0.0679959C51.6035 0.0679959 52.6379 0.711647 53.1914 1.6682L60.3306 13.6545C60.862 14.3466 61.1781 15.2125 61.1781 16.1524C61.1781 18.4193 59.3403 20.257 57.0736 20.257H48.7516C47.3671 20.257 46.2454 19.1347 46.2454 17.7505C46.2454 16.3666 47.3671 15.2446 48.7516 15.2446H53.0692Z" fill="white"/>
</g>
<defs>
<clipPath id="clip0_20980_33135">
<rect width="61.1785" height="20.7191" fill="white"/>
</clipPath>
</defs>
</svg>
