<svg width="114" height="19" viewBox="0 0 114 19" fill="none" xmlns="http://www.w3.org/2000/svg">
<path d="M13.4427 17.7351C11.9386 16.7931 10.831 13.5421 10.831 9.67974C10.831 9.538 10.8316 9.39805 10.8352 9.2587L10.837 9.2605C6.65409 8.60322 3.63146 6.80184 3.55431 4.67213L3.54175 4.69665C2.51786 5.96874 1.93355 7.43938 1.93355 9.00632C1.93355 13.6174 6.99499 17.3954 13.4152 17.7297L13.4427 17.7351ZM0 9.34303C0 4.18351 6.42084 3.05176e-05 14.3416 3.05176e-05C22.2624 3.05176e-05 28.6833 4.18351 28.6833 9.34303C28.6833 14.5026 22.2624 18.686 14.3416 18.686C6.42084 18.686 0 14.5026 0 9.34303ZM14.3416 1.34807C15.8709 1.34807 17.1711 3.66738 17.6531 6.90411L17.6549 6.89933C20.6297 6.43643 22.7128 5.36768 22.7128 4.1249C22.7128 2.45629 18.9647 1.10586 14.3416 1.10586C9.71859 1.10586 5.9705 2.45689 5.9705 4.1249C5.9705 5.36768 8.05297 6.43583 11.0284 6.89933L11.0301 6.90411C11.5122 3.66797 12.813 1.34807 14.3416 1.34807ZM15.2674 17.7297C21.6877 17.3954 26.7497 13.6174 26.7497 9.00632C26.7497 7.43938 26.1648 5.96874 25.1415 4.69665L25.129 4.67213C25.0518 6.80184 22.0298 8.60322 17.8463 9.2605L17.8481 9.2587C17.8511 9.39805 17.8523 9.538 17.8523 9.67974C17.8523 13.5421 16.7435 16.7931 15.2405 17.7351L15.2674 17.7297ZM14.3416 7.14454C15.027 7.14454 15.6927 7.11523 16.3296 7.05901L16.329 7.05961C16.012 4.98492 15.2417 3.52085 14.3416 3.52085C13.4416 3.52085 12.6718 4.98492 12.3543 7.05961L12.3537 7.05901C12.9906 7.11523 13.6563 7.14454 14.3416 7.14454ZM14.3416 14.8273C15.4929 14.8273 16.4319 12.4314 16.4821 9.42676L16.4881 9.42855C15.0602 9.56013 13.6231 9.56013 12.1952 9.42855L12.2018 9.42676C12.2514 12.432 13.1904 14.8273 14.3416 14.8273ZM73.1806 9.34303C73.1806 5.39938 76.3779 2.20271 80.321 2.20271C84.2658 2.20271 87.4625 5.39998 87.4625 9.34303C87.4625 13.2873 84.2652 16.4834 80.321 16.4834C76.3779 16.4834 73.1806 13.2867 73.1806 9.34303ZM80.321 13.865C82.5236 13.865 84.3089 11.84 84.3089 9.34243C84.3089 6.8455 82.5236 4.81985 80.321 4.81985C78.1195 4.81985 76.3349 6.84491 76.3349 9.34243C76.3349 11.84 78.1201 13.865 80.321 13.865ZM95.5651 5.17749V16.1592H92.5568V5.17749H92.567H88.3596V2.69432H99.7623V5.1769L95.5651 5.17749ZM103.402 13.13L103.399 13.133L102.244 16.1598H98.7307L104.286 2.69492H108.03L113.585 16.1598H110.071L108.917 13.133L108.914 13.13H106.159H103.402ZM106.159 10.8573H108.052L108.05 10.8579L106.171 5.92986H106.145L104.265 10.8579L104.264 10.8573H106.159ZM40.1046 5.17749V16.1592H37.0957V5.17749H37.1059H32.8979V2.69432H44.3012V5.1769L40.1046 5.17749ZM45.0715 9.34303C45.0715 5.39938 48.2688 2.20271 52.213 2.20271C56.1567 2.20271 59.3539 5.39998 59.3539 9.34303C59.3539 13.2873 56.1567 16.4834 52.213 16.4834C48.2688 16.4834 45.0715 13.2867 45.0715 9.34303ZM52.213 13.865C54.4145 13.865 56.2003 11.84 56.2003 9.34243C56.2003 6.8455 54.4151 4.81985 52.213 4.81985C50.0109 4.81985 48.2257 6.84491 48.2257 9.34243C48.2257 11.84 50.0109 13.865 52.213 13.865ZM66.267 16.1592H67.7927V11.0463L73.0413 2.69432H69.5283L66.267 8.35383L63.0063 2.69432H59.4921L64.7413 11.0463V16.1586L66.267 16.1592Z" fill="white"/>
</svg>
