<svg width="130" height="50" viewBox="0 0 130 50" fill="none" xmlns="http://www.w3.org/2000/svg">
<path d="M21.4427 33.3923C19.9386 32.4503 18.831 29.1993 18.831 25.3369C18.831 25.1952 18.8316 25.0552 18.8352 24.9159L18.837 24.9177C14.6541 24.2604 11.6315 22.459 11.5543 20.3293L11.5417 20.3538C10.5179 21.6259 9.93355 23.0966 9.93355 24.6635C9.93355 29.2746 14.995 33.0526 21.4152 33.3869L21.4427 33.3923ZM8 25.0002C8 19.8407 14.4208 15.6572 22.3416 15.6572C30.2624 15.6572 36.6833 19.8407 36.6833 25.0002C36.6833 30.1598 30.2624 34.3432 22.3416 34.3432C14.4208 34.3432 8 30.1598 8 25.0002ZM22.3416 17.0053C23.8709 17.0053 25.1711 19.3246 25.6531 22.5613L25.6549 22.5565C28.6297 22.0936 30.7128 21.0249 30.7128 19.7821C30.7128 18.1135 26.9647 16.7631 22.3416 16.7631C17.7186 16.7631 13.9705 18.1141 13.9705 19.7821C13.9705 21.0249 16.053 22.093 19.0284 22.5565L19.0301 22.5613C19.5122 19.3252 20.813 17.0053 22.3416 17.0053ZM23.2674 33.3869C29.6877 33.0526 34.7497 29.2746 34.7497 24.6635C34.7497 23.0966 34.1648 21.6259 33.1415 20.3538L33.129 20.3293C33.0518 22.459 30.0298 24.2604 25.8463 24.9177L25.8481 24.9159C25.8511 25.0552 25.8523 25.1952 25.8523 25.3369C25.8523 29.1993 24.7435 32.4503 23.2405 33.3923L23.2674 33.3869ZM22.3416 22.8017C23.027 22.8017 23.6927 22.7724 24.3296 22.7162C24.0126 20.6415 23.2417 19.178 22.3416 19.178C21.4416 19.178 20.6718 20.6421 20.3543 22.7168C20.9912 22.773 21.6563 22.8017 22.3416 22.8017ZM22.3416 30.4845C23.4929 30.4845 24.4319 28.0886 24.4821 25.084L24.4881 25.0857C23.0602 25.2173 21.6231 25.2173 20.1952 25.0857L20.2018 25.084C20.2514 28.0892 21.1904 30.4845 22.3416 30.4845ZM81.1806 25.0002C81.1806 21.0566 84.3779 17.8599 88.321 17.8599C92.2658 17.8599 95.4625 21.0572 95.4625 25.0002C95.4625 28.9445 92.2652 32.1406 88.321 32.1406C84.3779 32.1406 81.1806 28.9439 81.1806 25.0002ZM88.321 29.5222C90.5236 29.5222 92.3089 27.4972 92.3089 24.9996C92.3089 22.5027 90.5236 20.477 88.321 20.477C86.1195 20.477 84.3349 22.5021 84.3349 24.9996C84.3349 27.4972 86.1201 29.5222 88.321 29.5222ZM103.565 20.8347V31.8164H100.557V20.8347H100.567H96.3596V18.3515H107.762V20.8341L103.565 20.8347ZM111.402 28.7872L111.399 28.7902L110.244 31.817H106.731L112.286 18.3521H116.03L121.585 31.817H118.071L116.917 28.7902L116.914 28.7872H114.159H111.402ZM114.159 26.5145H116.052L116.05 26.5151L114.171 21.5871H114.145L112.265 26.5151L112.264 26.5145H114.159ZM48.1046 20.8347V31.8164H45.0957V20.8347H45.1059H40.8979V18.3515H52.3012V20.8341L48.1046 20.8347ZM53.0715 25.0002C53.0715 21.0566 56.2688 17.8599 60.213 17.8599C64.1567 17.8599 67.3539 21.0572 67.3539 25.0002C67.3539 28.9445 64.1567 32.1406 60.213 32.1406C56.2688 32.1406 53.0715 28.9439 53.0715 25.0002ZM60.213 29.5222C62.4145 29.5222 64.2003 27.4972 64.2003 24.9996C64.2003 22.5027 62.4151 20.477 60.213 20.477C58.0109 20.477 56.2257 22.5021 56.2257 24.9996C56.2257 27.4972 58.0109 29.5222 60.213 29.5222ZM74.267 31.8164H75.7927V26.7035L81.0413 18.3515H77.5283L74.267 24.011L71.0063 18.3515H67.4921L72.7413 26.7035V31.8158L74.267 31.8164Z" fill="white"/>
</svg>
