<svg width="124" height="35" viewBox="0 0 2500 707" fill="none" xmlns="http://www.w3.org/2000/svg">
<path fill-rule="evenodd" clip-rule="evenodd" d="M1444.27 220.445C1444.08 220.61 1439.56 220.929 1434.21 221.152C1428.87 221.375 1424.28 221.684 1424.01 221.836C1423.75 221.988 1420.79 222.321 1417.45 222.576C1414.11 222.83 1411.16 223.168 1410.91 223.327C1410.65 223.486 1408.33 223.804 1405.76 224.034C1392.63 225.207 1372.54 229.757 1360.95 234.182C1358.34 235.181 1355.64 236.166 1354.97 236.37C1352.19 237.218 1351.93 239.262 1351.47 264.795C1350.98 292.171 1350.87 291.514 1355.63 292.095C1357.19 292.287 1360.13 291.842 1362.99 290.978C1373.54 287.798 1377.77 286.629 1388.86 283.828C1402.99 280.264 1418.6 276.919 1427.27 275.6C1442.15 273.335 1476 273.768 1482.93 276.311C1484.3 276.813 1487.69 277.738 1490.46 278.365C1496.26 279.678 1500.86 281.848 1505.9 285.655C1509.59 288.44 1511.86 292.56 1513.7 299.82C1514.9 304.554 1514.98 305.157 1515.46 312.345L1515.91 319.086L1509.85 318.587C1485.83 316.613 1458.52 315.818 1446.65 316.747L1427.61 318.239C1408.4 319.747 1384.6 324.71 1372.71 329.688C1357.08 336.231 1342.03 348.255 1337.73 357.637C1328.88 376.926 1327.02 401.607 1332.67 424.634C1334.84 433.429 1336.67 438.398 1339.67 443.539C1340.71 445.332 1341.57 447.093 1341.57 447.452C1341.57 449.414 1357.51 463.501 1365.38 468.492C1367.44 469.795 1369.22 471.095 1369.34 471.383C1369.46 471.67 1369.97 471.906 1370.47 471.906C1370.97 471.906 1373.46 472.846 1376.02 473.996C1378.58 475.146 1383.13 476.802 1386.12 477.677C1389.11 478.551 1392.94 479.728 1394.62 480.293C1396.3 480.859 1402.73 482.184 1408.91 483.239C1420.09 485.153 1420.21 485.158 1451.42 485.163C1482.93 485.169 1491.27 484.716 1502.43 482.392C1517.98 479.151 1525.1 477.214 1531 474.611C1543.35 469.156 1546.49 467.293 1552.7 461.715C1556.65 458.168 1562.07 452.581 1563.83 450.244C1567.09 445.909 1574.15 431.279 1575.53 425.994C1576.32 423.002 1577.23 420.046 1577.57 419.426C1578.97 416.888 1581.38 399.76 1582.09 387.225C1582.63 377.818 1582.57 342.174 1582 332.131C1581.32 320.004 1579.75 307.991 1577.91 300.844C1574.53 287.744 1572.64 282.403 1568.26 273.663C1557.22 251.653 1534.35 233.523 1507.87 225.8C1503.49 224.522 1494.63 222.855 1487.12 221.894C1485.44 221.678 1483.3 221.358 1482.36 221.183C1480.06 220.751 1444.68 220.066 1444.27 220.445ZM1751.37 224.41C1741.46 224.912 1739.06 225.188 1727.9 227.104C1717.72 228.855 1711.29 230.626 1704.14 233.664C1699.07 235.814 1696.84 236.998 1690.11 241.117C1689.39 241.561 1686.91 243.048 1684.61 244.42C1679.73 247.34 1670.63 256.503 1664.69 264.506C1659.99 270.835 1651.73 287.076 1651.73 289.987C1651.73 290.571 1651.29 291.89 1650.76 292.918C1648.79 296.722 1644.93 314.718 1643.52 326.652C1642.25 337.425 1642.11 341.459 1642.39 361.001C1642.79 389.862 1644.14 398.563 1651.88 422.126C1654.78 430.969 1658.53 437.743 1665.78 447.239C1670.66 453.635 1680.48 463.328 1684.37 465.588C1686.05 466.566 1687.58 467.546 1687.77 467.765C1688.41 468.512 1690.82 469.845 1696.96 472.835C1703.53 476.044 1707.32 477.403 1715.12 479.36C1717.84 480.045 1721.76 481.07 1723.82 481.638C1735.3 484.802 1752.55 486.022 1783 485.822C1803.09 485.691 1807.69 485.465 1814.97 484.254C1829.85 481.778 1845.59 477.162 1854.42 472.683C1861.09 469.296 1864.26 467.5 1864.96 466.719C1865.33 466.298 1868.24 463.833 1871.42 461.243C1878.62 455.378 1881.62 452.532 1881.62 451.568C1881.62 451.156 1881.88 450.82 1882.2 450.82C1882.78 450.82 1889.38 441.381 1889.42 440.502C1889.43 440.252 1890.06 439.334 1890.81 438.462C1891.57 437.59 1892.8 435.806 1893.57 434.496C1895.31 431.53 1899.99 420.021 1899.99 418.724C1899.99 418.196 1900.26 417.473 1900.59 417.118C1902.37 415.223 1906.67 392.292 1908.21 376.509C1908.95 368.829 1908.75 333.601 1907.94 329.751C1907.74 328.815 1907.39 326.061 1907.15 323.629C1905.38 305.476 1899.84 286.244 1893.4 275.861C1892.53 274.465 1891.82 273.109 1891.82 272.847C1891.82 272.585 1890.2 270.207 1888.22 267.562C1886.23 264.918 1883.71 261.53 1882.61 260.033C1881.51 258.537 1878.81 255.629 1876.62 253.572C1872.72 249.932 1864.4 243.369 1863.68 243.369C1863.48 243.369 1861.94 242.437 1860.25 241.298C1855.56 238.128 1845.25 233.455 1837.23 230.852C1830.12 228.548 1818.52 226.409 1805.1 224.927C1797.28 224.063 1764.44 223.747 1751.37 224.41ZM2062.45 224.638C2062.32 224.772 2059.76 225.074 2056.76 225.311C2053.77 225.547 2049.33 226.026 2046.9 226.375C2044.47 226.724 2041.26 227.179 2039.78 227.387C2033.48 228.27 2020.91 232.19 2015.27 235.027C2009.23 238.071 1997.9 246.279 1994.47 250.089C1991.03 253.91 1983.76 267.691 1982.4 272.957C1980.97 278.529 1979.46 288.02 1978.91 295.002C1978.19 304.157 1978.36 480.447 1979.09 481.182C1979.78 481.871 2039.8 481.95 2040.49 481.265C2040.77 480.987 2041.22 441.197 2041.49 392.843C2041.76 344.488 2042.19 303.853 2042.43 302.544C2043.42 297.245 2045.75 290.616 2047.37 288.495C2049.6 285.568 2054.62 281.987 2058.47 280.579C2066.31 277.709 2075.05 276.818 2092.13 277.143C2112.89 277.538 2118.4 278.702 2124.89 284.057C2131.07 289.147 2132.9 293.249 2133.75 303.904C2134.09 308.206 2134.44 348.914 2134.53 394.366C2134.62 439.819 2134.86 477.973 2135.07 479.154C2135.42 481.142 2135.68 481.325 2138.62 481.612C2143.89 482.13 2196.39 481.806 2196.94 481.252C2197.23 480.968 2197.55 441.637 2197.65 393.851C2197.76 346.064 2198 305.26 2198.19 303.176C2198.38 301.092 2199.03 297.573 2199.64 295.355C2200.25 293.136 2200.91 290.642 2201.1 289.813C2201.67 287.312 2207.66 281.884 2211.27 280.589C2222.11 276.7 2249.98 275.745 2266.5 278.699C2276.32 280.454 2284.5 286.099 2286.52 292.52C2289.84 303.076 2289.94 305.5 2290.35 395.84C2290.57 442.477 2290.99 480.881 2291.29 481.182C2292.17 482.067 2348.9 482.365 2351.14 481.496L2353.05 480.755L2352.74 389.779C2352.58 339.742 2352.25 297.12 2352.02 295.062C2350.09 277.696 2348.16 270.427 2343.12 261.386C2338.67 253.422 2332.19 246.627 2324 241.315C2303.19 227.837 2285 223.987 2244.83 224.555C2233.42 224.716 2223.01 225.023 2221.71 225.235C2220.39 225.448 2217.79 225.781 2215.92 225.975C2207.8 226.817 2197.62 228.948 2188.7 231.677C2187.56 232.023 2183.43 233.914 2179.51 235.88C2172.91 239.194 2172.02 239.46 2167.29 239.528C2162.52 239.596 2161.76 239.39 2155.39 236.316C2144.87 231.239 2137.53 229.04 2124.1 226.955C2108.57 224.544 2105.15 224.321 2084.22 224.357C2072.38 224.378 2062.59 224.505 2062.45 224.638ZM1047.04 227.819C1044.46 228.349 1042.39 230.218 1040.6 233.64C1039.85 235.063 1039.06 236.381 1038.84 236.568C1038.62 236.755 1037.38 238.438 1036.1 240.309C1034.81 242.179 1033.15 244.442 1032.42 245.337C1031.68 246.231 1029.85 248.439 1028.35 250.242C1024.41 254.984 1023.01 256.952 1021.2 260.203C1020.32 261.793 1019.35 263.094 1019.04 263.094C1018.73 263.094 1018.49 263.486 1018.49 263.964C1018.49 264.443 1017.88 265.276 1017.13 265.815C1016.38 266.354 1015.77 267.154 1015.77 267.593C1015.77 268.032 1015.31 268.566 1014.75 268.782C1014.18 268.997 1013.73 269.616 1013.73 270.158C1013.73 270.7 1013.5 271.245 1013.22 271.37C1012.17 271.833 1000.12 287.018 1000.12 287.869C1000.12 288.084 999.588 288.851 998.935 289.572C998.282 290.289 997.651 291.026 997.044 291.782C992.759 297.306 989.188 302.1 987.256 304.911C984.515 308.901 980.23 313.254 979.924 312.352C979.808 312.008 977.251 308.359 974.245 304.244C967.967 295.647 963.505 289.449 962.036 287.279C961.471 286.449 959.757 284.265 958.227 282.425C956.696 280.584 953.948 276.783 952.125 273.977C950.303 271.171 948.473 268.57 948.058 268.195C947.643 267.821 944.888 264.148 941.943 260.033C938.998 255.918 935.019 250.562 933.094 248.131C931.176 245.699 928.571 242.179 927.313 240.309C926.061 238.438 924.633 236.502 924.143 236.007C922.477 234.31 919.117 229.086 919.661 229.038C919.96 229.012 919.593 228.727 918.845 228.406C918.097 228.084 900.936 227.8 880.715 227.773C851.508 227.735 843.693 227.908 842.734 228.612C841.653 229.399 841.612 229.837 842.333 232.517C843.292 236.087 843.986 237.121 852.603 247.79C856.229 252.28 860.527 257.686 862.153 259.805C863.779 261.924 867.56 266.711 870.553 270.443C873.546 274.175 876.606 278.082 877.355 279.123C878.103 280.164 879.191 281.498 879.769 282.088C881.844 284.185 887.802 291.397 891.393 296.158C893.393 298.817 897.583 304.021 900.698 307.721C907.459 315.757 907.534 315.845 909.635 318.868C910.547 320.177 911.465 321.402 911.676 321.589C911.88 321.776 912.955 323.153 914.063 324.649C915.165 326.146 916.389 327.71 916.777 328.126C917.165 328.541 918.382 330.022 919.477 331.416C920.572 332.809 922.375 334.918 923.484 336.101C924.599 337.285 926.755 339.936 928.292 341.994C929.823 344.051 931.238 345.888 931.435 346.075C931.632 346.262 933.394 348.354 935.346 350.723C938.4 354.42 938.787 355.198 938.06 356.2C933.985 361.8 928.85 368.248 926.279 370.989C924.572 372.811 922.661 375.067 922.028 376.002C921.402 376.937 920.382 378.314 919.763 379.063C915.709 383.995 912.383 388.273 912.383 388.544C912.383 388.72 911.69 389.577 910.853 390.45C909.139 392.223 904.364 397.975 902.977 399.933C902.48 400.632 901.031 402.344 899.753 403.737C898.474 405.129 897.42 406.521 897.42 406.828C897.42 407.135 897.039 407.77 896.569 408.239C896.1 408.706 894.801 410.268 893.679 411.709C890.774 415.433 887.741 419.024 886.496 420.213C885.911 420.774 883.809 423.376 881.837 425.994C877.987 431.093 874.137 435.8 871.879 438.15C871.111 438.948 870.281 440.136 870.029 440.79C869.778 441.444 869.261 441.978 868.873 441.978C868.485 441.978 868.172 442.437 868.172 442.998C868.172 443.56 867.928 444.019 867.635 444.019C867.343 444.019 866.554 444.945 865.887 446.077C865.221 447.209 864.003 448.859 863.194 449.745C862.377 450.63 860.813 452.485 859.718 453.868C858.623 455.25 856.936 457.265 855.977 458.347C855.011 459.429 853.005 462.043 851.508 464.157C850.012 466.271 848.094 468.741 847.257 469.644C846.414 470.548 845.727 471.579 845.727 471.936C845.727 472.293 845.482 472.586 845.19 472.586C844.19 472.586 842.326 476.535 842.326 478.664C842.326 480.236 842.727 480.951 843.856 481.403C844.707 481.744 861.575 481.96 882 481.892C917.655 481.771 918.641 481.733 919.6 480.419C920.144 479.676 922.001 477.48 923.735 475.537C925.463 473.594 927.823 470.652 928.979 468.999C930.945 466.196 936.005 459.412 937.951 456.986C938.42 456.4 940.297 454.085 942.134 451.841C943.963 449.596 947.562 444.852 950.126 441.298C952.69 437.744 955.179 434.53 955.656 434.156C956.417 433.559 958.111 431.468 961.716 426.674C966.776 419.953 970.544 415.054 970.871 414.772C971.089 414.584 972.973 411.983 975.061 408.99C979.271 402.951 983.196 398.447 984.243 398.447C984.624 398.447 985.95 400.019 987.195 401.938C988.44 403.858 991.262 407.705 993.473 410.487C995.683 413.268 999.506 418.508 1001.97 422.13C1006.5 428.799 1008.64 431.691 1010.86 434.156C1012.66 436.172 1017.81 443.218 1017.81 443.679C1017.81 443.898 1019.11 445.824 1020.69 447.959C1022.28 450.094 1024.21 452.766 1024.99 453.898C1025.77 455.03 1026.9 456.56 1027.5 457.299C1030.28 460.681 1033.26 464.55 1034.81 466.804C1035.75 468.159 1036.83 469.63 1037.23 470.076C1038.76 471.82 1042.3 477.288 1042.3 477.919C1042.3 478.286 1043.23 479.379 1044.38 480.347L1046.48 482.108L1082.3 482.099C1102.01 482.094 1118.79 481.913 1119.6 481.697C1120.73 481.393 1121.12 480.673 1121.32 478.551C1121.48 476.883 1121.24 475.452 1120.71 474.921C1120.23 474.438 1119.83 473.883 1119.83 473.688C1119.83 473.492 1118.83 472.322 1117.6 471.088C1116.38 469.854 1114.93 467.953 1114.37 466.864C1113.82 465.773 1111.37 462.559 1108.93 459.722C1106.49 456.883 1103.59 453.337 1102.47 451.841C1098.19 446.074 1090.27 436.187 1089.76 435.97C1089.46 435.845 1089.23 435.357 1089.23 434.885C1089.23 434.413 1088.58 433.444 1087.79 432.731C1087 432.019 1084.61 429.14 1082.47 426.334C1076.3 418.234 1072.56 413.445 1068.16 407.97C1065.46 404.6 1062.81 401.199 1060.19 397.767C1058.07 394.962 1056.14 392.513 1055.91 392.326C1055.38 391.897 1047.63 381.703 1046.72 380.235C1046.34 379.634 1045.38 378.453 1044.57 377.611C1042.69 375.636 1036.85 368.054 1036.85 367.582C1036.85 367.384 1036.16 366.48 1035.32 365.575C1029.88 359.719 1025.97 354.106 1025.97 352.147C1025.97 351.377 1026.69 350.477 1027.67 350.032C1028.6 349.606 1029.37 348.998 1029.37 348.682C1029.37 348.365 1030.13 347.448 1031.05 346.644C1031.98 345.84 1033.58 343.929 1034.61 342.398C1037.36 338.304 1040.75 334.017 1044.87 329.411C1049.23 324.549 1049.55 324.167 1052.55 320.228C1053.82 318.545 1055.08 317.014 1055.32 316.827C1055.56 316.64 1057.12 314.651 1058.77 312.406C1060.42 310.162 1062.98 306.911 1064.45 305.184C1067.41 301.698 1067.79 301.237 1072.39 295.402C1074.17 293.158 1076.03 290.862 1076.53 290.301C1077.03 289.74 1079.09 287.138 1081.11 284.519C1083.12 281.901 1086.4 277.769 1088.41 275.337C1090.41 272.906 1092.53 270.304 1093.12 269.556C1093.71 268.808 1095.45 266.77 1096.98 265.029C1098.51 263.288 1100.08 261.452 1100.45 260.948C1100.82 260.444 1102.03 258.808 1103.14 257.312C1105.41 254.263 1110.82 247.735 1116.02 241.803C1119.62 237.689 1121.77 233.445 1121.83 230.307C1121.87 228.75 1121.53 228.41 1119.66 228.093C1116.48 227.554 1049.55 227.302 1047.04 227.819ZM1191.97 229.022C1191.08 230.674 1191.27 480.315 1192.16 481.201C1192.9 481.942 1253.53 481.942 1254.28 481.201C1254.95 480.531 1254.84 229.195 1254.17 228.524C1253.92 228.272 1239.99 227.974 1223.21 227.863C1193.28 227.664 1192.68 227.687 1191.97 229.022ZM2440.1 228.341C2438.54 228.613 2437.67 229.192 2437.45 230.106C2437.28 230.854 2437.1 287.237 2437.05 355.402C2436.99 469.708 2437.07 479.426 2438.1 480.461C2439.09 481.45 2442.26 481.624 2464.97 481.943C2479.13 482.141 2492.78 482.082 2495.3 481.811L2499.89 481.32V228.593L2496.08 228.144C2491.45 227.602 2443.37 227.77 2440.1 228.341ZM1791.3 276.742C1810.87 278.771 1823.75 283.884 1832.04 292.923C1842 303.791 1844.73 313.804 1845.58 342.674C1846.65 379.238 1844.4 399.787 1838.17 410.01C1834.21 416.492 1824.58 424.702 1816.67 428.337C1805.4 433.514 1796.95 434.836 1775.18 434.836C1758.04 434.836 1753.25 434.309 1741.95 431.181C1733.09 428.728 1724.97 424.115 1719.07 418.183C1715.5 414.588 1710.88 406.063 1709.12 399.808C1706.07 388.933 1704.09 373.03 1704.11 359.601C1704.17 329.993 1706.72 313.665 1713.19 301.749C1716.12 296.352 1723.1 288.218 1726.29 286.499C1729.98 284.509 1735.41 281.763 1737.43 280.868C1739.63 279.89 1750.31 277.382 1755.11 276.715C1760.87 275.915 1783.48 275.932 1791.3 276.742ZM1490.53 367.923C1494.82 368.219 1499.11 368.628 1500.05 368.832C1500.98 369.036 1504.35 369.388 1507.53 369.614C1510.71 369.84 1513.92 370.123 1514.67 370.242C1515.42 370.362 1516.26 370.482 1516.56 370.51C1517.21 370.574 1516.57 389.639 1515.59 399.028C1514.83 406.407 1512.53 414.818 1510.3 418.434C1507.39 423.138 1499.06 428.971 1493.77 430.005C1492.92 430.172 1490.85 430.815 1489.17 431.434C1483.44 433.541 1470.44 434.403 1447.67 434.184C1435.89 434.071 1425.03 433.777 1423.53 433.531C1414.96 432.119 1406.48 429.458 1401.74 426.689C1398.44 424.762 1393.15 418.215 1390.89 413.264C1387.94 406.8 1387.18 392.786 1389.53 388.199C1390.55 386.208 1394.55 380.939 1397.06 378.275C1399.44 375.751 1410.27 371.539 1416.95 370.543C1422.81 369.668 1437.53 367.947 1441.89 367.624C1448.11 367.165 1482.58 367.377 1490.53 367.923Z" fill="white"/>
<path fill-rule="evenodd" clip-rule="evenodd" d="M318.556 0.0985239C318.391 0.2434 311.369 0.554916 302.951 0.790934C249.133 2.30159 192.788 11.0349 157.396 23.3521C122.391 35.5346 94.8998 52.5666 71.6741 76.4623C57.2621 91.2886 46.6692 106.138 37.142 124.869C21.7771 155.074 14.013 185.314 6.80454 243.029C1.64615 284.325 -0.105959 314.21 0.00490842 358.998C0.138221 412.661 4.56475 461.793 13.9456 513.736C21.0751 553.212 34.8363 584.738 57.6226 613.794C64.8786 623.047 65.5241 623.782 73.597 632.009C102.457 661.418 136.929 681.058 177.461 691.179C198.082 696.328 229.744 700.98 258.741 703.123C286.616 705.184 324.851 706.225 372.669 706.225C468.848 706.225 529.259 696.294 577.399 672.568C598.613 662.114 615.216 650.185 632.224 633.177C656.851 608.548 672.171 583.309 683.868 548.084C696.913 508.82 702.477 474.174 703.973 422.933C704.225 414.516 704.517 407.463 704.633 407.259C705.034 406.533 705.953 359.688 705.953 339.613C705.953 294.444 703.905 260.946 699.131 227.91C692.968 185.265 685.078 156.871 671.963 130.121C660.705 107.16 648.46 90.2221 630.596 72.8955C614.503 57.287 596.949 45.1004 575.359 34.5476C538.626 16.5926 498.727 6.98046 448.507 3.98636C427.278 2.72125 425.264 2.61786 408.377 1.92885C399.212 1.55476 388.5 1.08341 384.572 0.882077C375.521 0.416842 318.958 -0.253803 318.556 0.0985239ZM381.948 221.969C399.496 224.869 414.596 233.003 427.257 246.379C435.789 255.393 441.327 264.61 445.064 276.017C448.581 286.753 448.507 284.225 448.507 394.456C448.507 496.165 448.495 497.084 447.147 498.432C445.827 499.752 444.88 499.792 414.915 499.792C386.511 499.792 383.927 499.697 382.609 498.602L381.175 497.412L380.981 406.269C380.799 320.685 380.712 314.878 379.559 311.046C375.04 296.029 363.227 284.356 348.523 280.378C344.453 279.277 338.689 279.175 276.085 279.094C238.676 279.046 207.269 279.267 206.292 279.586C205.314 279.905 204.167 280.93 203.741 281.865C203.173 283.111 202.967 311.975 202.967 390.317C202.967 496.165 202.955 497.083 201.607 498.432C200.286 499.752 199.34 499.792 169.45 499.792C142.677 499.792 138.456 499.654 137.142 498.733L135.63 497.675V360.659C135.63 224.426 135.638 223.637 136.995 222.28C138.35 220.925 139.129 220.916 257.214 220.957C356.872 220.991 377.019 221.154 381.948 221.969ZM570.257 224.263V496.208L567.438 499.792H505.06L502.241 496.208V224.263L505.579 220.924H566.918L570.257 224.263ZM326.193 329.516C327.386 330.595 327.438 334.103 327.438 413.857C327.438 496.165 327.423 497.087 326.077 498.432C324.755 499.754 323.81 499.792 292.069 499.792C260.327 499.792 259.383 499.754 258.06 498.432C256.715 497.087 256.7 496.165 256.7 414.091C256.7 332.017 256.715 331.096 258.06 329.75C259.383 328.428 260.327 328.39 292.185 328.39C321.719 328.39 325.073 328.501 326.193 329.516Z" fill="white"/>
</svg>
