<svg width="1720" height="700" viewBox="0 0 1720 700" fill="none" xmlns="http://www.w3.org/2000/svg">
<mask id="mask0_22943_84306" style="mask-type:alpha" maskUnits="userSpaceOnUse" x="288" y="-230" width="1222" height="865">
<g opacity="0.12">
<rect x="288.585" y="-43.7446" width="61.0548" height="61.0548" stroke="white" stroke-width="0.642682"/>
<rect x="349.64" y="-43.7446" width="61.0548" height="61.0548" stroke="white" stroke-width="0.642682"/>
<rect x="410.694" y="-43.7446" width="61.0548" height="61.0548" stroke="white" stroke-width="0.642682"/>
<rect x="471.749" y="-43.7446" width="61.0548" height="61.0548" stroke="white" stroke-width="0.642682"/>
<rect x="532.804" y="-43.7446" width="61.0548" height="61.0548" stroke="white" stroke-width="0.642682"/>
<rect x="593.858" y="-43.7446" width="61.0548" height="61.0548" stroke="white" stroke-width="0.642682"/>
<rect x="654.913" y="-43.7446" width="61.0548" height="61.0548" stroke="white" stroke-width="0.642682"/>
<rect x="715.968" y="-43.7446" width="61.0548" height="61.0548" stroke="white" stroke-width="0.642682"/>
<rect x="777.023" y="-43.7446" width="61.0548" height="61.0548" stroke="white" stroke-width="0.642682"/>
<rect x="838.077" y="-43.7446" width="61.0548" height="61.0548" stroke="white" stroke-width="0.642682"/>
<rect x="899.132" y="-43.7446" width="61.0548" height="61.0548" stroke="white" stroke-width="0.642682"/>
<rect x="960.187" y="-43.7446" width="61.0548" height="61.0548" stroke="white" stroke-width="0.642682"/>
<rect x="1021.24" y="-43.7446" width="61.0548" height="61.0548" stroke="white" stroke-width="0.642682"/>
<rect x="1082.3" y="-43.7446" width="61.0548" height="61.0548" stroke="white" stroke-width="0.642682"/>
<rect x="1143.35" y="-43.7446" width="61.0548" height="61.0548" stroke="white" stroke-width="0.642682"/>
<rect x="1204.41" y="-43.7446" width="61.0548" height="61.0548" stroke="white" stroke-width="0.642682"/>
<rect x="1265.46" y="-43.7446" width="61.0548" height="61.0548" stroke="white" stroke-width="0.642682"/>
<rect x="1326.51" y="-43.7446" width="61.0548" height="61.0548" stroke="white" stroke-width="0.642682"/>
<rect x="1387.57" y="-43.7446" width="61.0548" height="61.0548" stroke="white" stroke-width="0.642682"/>
<rect x="1448.62" y="-43.7446" width="61.0548" height="61.0548" stroke="white" stroke-width="0.642682"/>
<rect x="288.585" y="17.9529" width="61.0548" height="61.0548" stroke="white" stroke-width="0.642682"/>
<rect x="349.64" y="17.9529" width="61.0548" height="61.0548" stroke="white" stroke-width="0.642682"/>
<rect x="410.694" y="17.9529" width="61.0548" height="61.0548" stroke="white" stroke-width="0.642682"/>
<rect x="471.749" y="17.9529" width="61.0548" height="61.0548" stroke="white" stroke-width="0.642682"/>
<rect x="532.804" y="17.9529" width="61.0548" height="61.0548" stroke="white" stroke-width="0.642682"/>
<rect x="593.537" y="17.6316" width="61.6975" height="61.6975" fill="white" fill-opacity="0.38"/>
<rect x="654.913" y="17.9529" width="61.0548" height="61.0548" stroke="white" stroke-width="0.642682"/>
<rect x="715.968" y="17.9529" width="61.0548" height="61.0548" stroke="white" stroke-width="0.642682"/>
<rect x="777.023" y="17.9529" width="61.0548" height="61.0548" stroke="white" stroke-width="0.642682"/>
<rect x="838.077" y="17.9529" width="61.0548" height="61.0548" stroke="white" stroke-width="0.642682"/>
<rect x="899.132" y="17.9529" width="61.0548" height="61.0548" stroke="white" stroke-width="0.642682"/>
<rect x="960.187" y="17.9529" width="61.0548" height="61.0548" stroke="white" stroke-width="0.642682"/>
<rect x="1020.92" y="17.6316" width="61.6975" height="61.6975" fill="white" fill-opacity="0.13"/>
<rect x="1082.3" y="17.9529" width="61.0548" height="61.0548" stroke="white" stroke-width="0.642682"/>
<rect x="1143.03" y="17.6316" width="61.6975" height="61.6975" fill="white" fill-opacity="0.13"/>
<rect x="1204.41" y="17.9529" width="61.0548" height="61.0548" stroke="white" stroke-width="0.642682"/>
<rect x="1265.46" y="17.9529" width="61.0548" height="61.0548" stroke="white" stroke-width="0.642682"/>
<rect x="1326.51" y="17.9529" width="61.0548" height="61.0548" stroke="white" stroke-width="0.642682"/>
<rect x="1387.57" y="17.9529" width="61.0548" height="61.0548" stroke="white" stroke-width="0.642682"/>
<rect x="1448.62" y="17.9529" width="61.0548" height="61.0548" stroke="white" stroke-width="0.642682"/>
<rect x="288.585" y="79.6504" width="61.0548" height="61.0548" stroke="white" stroke-width="0.642682"/>
<rect x="349.64" y="79.6504" width="61.0548" height="61.0548" stroke="white" stroke-width="0.642682"/>
<rect x="410.694" y="79.6504" width="61.0548" height="61.0548" stroke="white" stroke-width="0.642682"/>
<rect x="471.749" y="79.6504" width="61.0548" height="61.0548" stroke="white" stroke-width="0.642682"/>
<rect x="532.482" y="79.3291" width="61.6975" height="61.6975" fill="white" fill-opacity="0.13"/>
<rect x="593.858" y="79.6504" width="61.0548" height="61.0548" stroke="white" stroke-width="0.642682"/>
<rect x="654.592" y="79.3291" width="61.6975" height="61.6975" fill="white" fill-opacity="0.38"/>
<rect x="715.968" y="79.6504" width="61.0548" height="61.0548" stroke="white" stroke-width="0.642682"/>
<rect x="777.023" y="79.6504" width="61.0548" height="61.0548" stroke="white" stroke-width="0.642682"/>
<rect x="838.077" y="79.6504" width="61.0548" height="61.0548" stroke="white" stroke-width="0.642682"/>
<rect x="899.132" y="79.6504" width="61.0548" height="61.0548" stroke="white" stroke-width="0.642682"/>
<rect x="959.865" y="79.3291" width="61.6975" height="61.6975" fill="white" fill-opacity="0.13"/>
<rect x="1021.24" y="79.6504" width="61.0548" height="61.0548" stroke="white" stroke-width="0.642682"/>
<rect x="1081.97" y="79.3291" width="61.6975" height="61.6975" fill="white" fill-opacity="0.23"/>
<rect x="1143.35" y="79.6504" width="61.0548" height="61.0548" stroke="white" stroke-width="0.642682"/>
<rect x="1204.41" y="79.6504" width="61.0548" height="61.0548" stroke="white" stroke-width="0.642682"/>
<rect x="1265.46" y="79.6504" width="61.0548" height="61.0548" stroke="white" stroke-width="0.642682"/>
<rect x="1326.51" y="79.6504" width="61.0548" height="61.0548" stroke="white" stroke-width="0.642682"/>
<rect x="1387.57" y="79.6504" width="61.0548" height="61.0548" stroke="white" stroke-width="0.642682"/>
<rect x="1448.62" y="79.6504" width="61.0548" height="61.0548" stroke="white" stroke-width="0.642682"/>
<rect x="288.585" y="141.348" width="61.0548" height="61.0548" stroke="white" stroke-width="0.642682"/>
<rect x="349.64" y="141.348" width="61.0548" height="61.0548" stroke="white" stroke-width="0.642682"/>
<rect x="410.694" y="141.348" width="61.0548" height="61.0548" stroke="white" stroke-width="0.642682"/>
<rect x="471.428" y="141.027" width="61.6975" height="61.6975" fill="white" fill-opacity="0.13"/>
<rect x="532.804" y="141.348" width="61.0548" height="61.0548" stroke="white" stroke-width="0.642682"/>
<rect x="593.537" y="141.027" width="61.6975" height="61.6975" fill="white" fill-opacity="0.38"/>
<rect x="654.913" y="141.348" width="61.0548" height="61.0548" stroke="white" stroke-width="0.642682"/>
<rect x="715.968" y="141.348" width="61.0548" height="61.0548" stroke="white" stroke-width="0.642682"/>
<rect x="777.023" y="141.348" width="61.0548" height="61.0548" stroke="white" stroke-width="0.642682"/>
<rect x="838.077" y="141.348" width="61.0548" height="61.0548" stroke="white" stroke-width="0.642682"/>
<rect x="899.132" y="141.348" width="61.0548" height="61.0548" stroke="white" stroke-width="0.642682"/>
<rect x="960.187" y="141.348" width="61.0548" height="61.0548" stroke="white" stroke-width="0.642682"/>
<rect x="1020.92" y="141.027" width="61.6975" height="61.6975" fill="white" fill-opacity="0.13"/>
<rect x="1082.3" y="141.348" width="61.0548" height="61.0548" stroke="white" stroke-width="0.642682"/>
<rect x="1143.35" y="141.348" width="61.0548" height="61.0548" stroke="white" stroke-width="0.642682"/>
<rect x="1204.41" y="141.348" width="61.0548" height="61.0548" stroke="white" stroke-width="0.642682"/>
<rect x="1265.46" y="141.348" width="61.0548" height="61.0548" stroke="white" stroke-width="0.642682"/>
<rect x="1326.51" y="141.348" width="61.0548" height="61.0548" stroke="white" stroke-width="0.642682"/>
<rect x="1387.57" y="141.348" width="61.0548" height="61.0548" stroke="white" stroke-width="0.642682"/>
<rect x="1448.62" y="141.348" width="61.0548" height="61.0548" stroke="white" stroke-width="0.642682"/>
<rect x="288.585" y="203.045" width="61.0548" height="61.0548" stroke="white" stroke-width="0.642682"/>
<rect x="349.64" y="203.045" width="61.0548" height="61.0548" stroke="white" stroke-width="0.642682"/>
<rect x="410.694" y="203.045" width="61.0548" height="61.0548" stroke="white" stroke-width="0.642682"/>
<rect x="471.749" y="203.045" width="61.0548" height="61.0548" stroke="white" stroke-width="0.642682"/>
<rect x="532.804" y="203.045" width="61.0548" height="61.0548" stroke="white" stroke-width="0.642682"/>
<rect x="593.858" y="203.045" width="61.0548" height="61.0548" stroke="white" stroke-width="0.642682"/>
<rect x="654.913" y="203.045" width="61.0548" height="61.0548" stroke="white" stroke-width="0.642682"/>
<rect x="715.968" y="203.045" width="61.0548" height="61.0548" stroke="white" stroke-width="0.642682"/>
<rect x="777.023" y="203.045" width="61.0548" height="61.0548" stroke="white" stroke-width="0.642682"/>
<rect x="838.077" y="203.045" width="61.0548" height="61.0548" stroke="white" stroke-width="0.642682"/>
<rect x="899.132" y="203.045" width="61.0548" height="61.0548" stroke="white" stroke-width="0.642682"/>
<rect x="960.187" y="203.045" width="61.0548" height="61.0548" stroke="white" stroke-width="0.642682"/>
<rect x="1021.24" y="203.045" width="61.0548" height="61.0548" stroke="white" stroke-width="0.642682"/>
<rect x="1082.3" y="203.045" width="61.0548" height="61.0548" stroke="white" stroke-width="0.642682"/>
<rect x="1143.35" y="203.045" width="61.0548" height="61.0548" stroke="white" stroke-width="0.642682"/>
<rect x="1204.41" y="203.045" width="61.0548" height="61.0548" stroke="white" stroke-width="0.642682"/>
<rect x="1265.46" y="203.045" width="61.0548" height="61.0548" stroke="white" stroke-width="0.642682"/>
<rect x="1326.51" y="203.045" width="61.0548" height="61.0548" stroke="white" stroke-width="0.642682"/>
<rect x="1387.57" y="203.045" width="61.0548" height="61.0548" stroke="white" stroke-width="0.642682"/>
<rect x="1448.62" y="203.045" width="61.0548" height="61.0548" stroke="white" stroke-width="0.642682"/>
<rect x="288.585" y="264.743" width="61.0548" height="61.0548" stroke="white" stroke-width="0.642682"/>
<rect x="349.64" y="264.743" width="61.0548" height="61.0548" stroke="white" stroke-width="0.642682"/>
<rect x="410.694" y="264.743" width="61.0548" height="61.0548" stroke="white" stroke-width="0.642682"/>
<rect x="471.749" y="264.743" width="61.0548" height="61.0548" stroke="white" stroke-width="0.642682"/>
<rect x="532.804" y="264.743" width="61.0548" height="61.0548" stroke="white" stroke-width="0.642682"/>
<rect x="593.858" y="264.743" width="61.0548" height="61.0548" stroke="white" stroke-width="0.642682"/>
<rect x="654.913" y="264.743" width="61.0548" height="61.0548" stroke="white" stroke-width="0.642682"/>
<rect x="715.968" y="264.743" width="61.0548" height="61.0548" stroke="white" stroke-width="0.642682"/>
<rect x="777.023" y="264.743" width="61.0548" height="61.0548" stroke="white" stroke-width="0.642682"/>
<rect x="838.077" y="264.743" width="61.0548" height="61.0548" stroke="white" stroke-width="0.642682"/>
<rect x="899.132" y="264.743" width="61.0548" height="61.0548" stroke="white" stroke-width="0.642682"/>
<rect x="959.865" y="264.422" width="61.6975" height="61.6975" fill="white" fill-opacity="0.13"/>
<rect x="1021.24" y="264.743" width="61.0548" height="61.0548" stroke="white" stroke-width="0.642682"/>
<rect x="1082.3" y="264.743" width="61.0548" height="61.0548" stroke="white" stroke-width="0.642682"/>
<rect x="1143.35" y="264.743" width="61.0548" height="61.0548" stroke="white" stroke-width="0.642682"/>
<rect x="1204.41" y="264.743" width="61.0548" height="61.0548" stroke="white" stroke-width="0.642682"/>
<rect x="1265.46" y="264.743" width="61.0548" height="61.0548" stroke="white" stroke-width="0.642682"/>
<rect x="1326.51" y="264.743" width="61.0548" height="61.0548" stroke="white" stroke-width="0.642682"/>
<rect x="1387.57" y="264.743" width="61.0548" height="61.0548" stroke="white" stroke-width="0.642682"/>
<rect x="1448.62" y="264.743" width="61.0548" height="61.0548" stroke="white" stroke-width="0.642682"/>
<rect x="288.585" y="326.44" width="61.0548" height="61.0548" stroke="white" stroke-width="0.642682"/>
<rect x="349.64" y="326.44" width="61.0548" height="61.0548" stroke="white" stroke-width="0.642682"/>
<rect x="410.694" y="326.44" width="61.0548" height="61.0548" stroke="white" stroke-width="0.642682"/>
<rect x="471.749" y="326.44" width="61.0548" height="61.0548" stroke="white" stroke-width="0.642682"/>
<rect x="532.804" y="326.44" width="61.0548" height="61.0548" stroke="white" stroke-width="0.642682"/>
<rect x="593.858" y="326.44" width="61.0548" height="61.0548" stroke="white" stroke-width="0.642682"/>
<rect x="654.913" y="326.44" width="61.0548" height="61.0548" stroke="white" stroke-width="0.642682"/>
<rect x="715.968" y="326.44" width="61.0548" height="61.0548" stroke="white" stroke-width="0.642682"/>
<rect x="777.023" y="326.44" width="61.0548" height="61.0548" stroke="white" stroke-width="0.642682"/>
<rect x="838.077" y="326.44" width="61.0548" height="61.0548" stroke="white" stroke-width="0.642682"/>
<rect x="898.811" y="326.119" width="61.6975" height="61.6975" fill="white" fill-opacity="0.13"/>
<rect x="960.187" y="326.44" width="61.0548" height="61.0548" stroke="white" stroke-width="0.642682"/>
<rect x="1020.92" y="326.119" width="61.6975" height="61.6975" fill="white" fill-opacity="0.13"/>
<rect x="1082.3" y="326.44" width="61.0548" height="61.0548" stroke="white" stroke-width="0.642682"/>
<rect x="1143.03" y="326.119" width="61.6975" height="61.6975" fill="white" fill-opacity="0.13"/>
<rect x="1204.41" y="326.44" width="61.0548" height="61.0548" stroke="white" stroke-width="0.642682"/>
<rect x="1265.46" y="326.44" width="61.0548" height="61.0548" stroke="white" stroke-width="0.642682"/>
<rect x="1326.51" y="326.44" width="61.0548" height="61.0548" stroke="white" stroke-width="0.642682"/>
<rect x="1387.57" y="326.44" width="61.0548" height="61.0548" stroke="white" stroke-width="0.642682"/>
<rect x="1448.62" y="326.44" width="61.0548" height="61.0548" stroke="white" stroke-width="0.642682"/>
<rect x="288.585" y="388.138" width="61.0548" height="61.0548" stroke="white" stroke-width="0.642682"/>
<rect x="349.64" y="388.138" width="61.0548" height="61.0548" stroke="white" stroke-width="0.642682"/>
<rect x="410.694" y="388.138" width="61.0548" height="61.0548" stroke="white" stroke-width="0.642682"/>
<rect x="471.749" y="388.138" width="61.0548" height="61.0548" stroke="white" stroke-width="0.642682"/>
<rect x="532.804" y="388.138" width="61.0548" height="61.0548" stroke="white" stroke-width="0.642682"/>
<rect x="593.858" y="388.138" width="61.0548" height="61.0548" stroke="white" stroke-width="0.642682"/>
<rect x="654.913" y="388.138" width="61.0548" height="61.0548" stroke="white" stroke-width="0.642682"/>
<rect x="715.968" y="388.138" width="61.0548" height="61.0548" stroke="white" stroke-width="0.642682"/>
<rect x="777.023" y="388.138" width="61.0548" height="61.0548" stroke="white" stroke-width="0.642682"/>
<rect x="837.756" y="387.816" width="61.6975" height="61.6975" fill="white" fill-opacity="0.13"/>
<rect x="899.132" y="388.138" width="61.0548" height="61.0548" stroke="white" stroke-width="0.642682"/>
<rect x="959.865" y="387.816" width="61.6975" height="61.6975" fill="white" fill-opacity="0.13"/>
<rect x="1021.24" y="388.138" width="61.0548" height="61.0548" stroke="white" stroke-width="0.642682"/>
<rect x="1081.97" y="387.816" width="61.6975" height="61.6975" fill="white" fill-opacity="0.13"/>
<rect x="1143.35" y="388.138" width="61.0548" height="61.0548" stroke="white" stroke-width="0.642682"/>
<rect x="1204.41" y="388.138" width="61.0548" height="61.0548" stroke="white" stroke-width="0.642682"/>
<rect x="1265.46" y="388.138" width="61.0548" height="61.0548" stroke="white" stroke-width="0.642682"/>
<rect x="1326.51" y="388.138" width="61.0548" height="61.0548" stroke="white" stroke-width="0.642682"/>
<rect x="1387.57" y="388.138" width="61.0548" height="61.0548" stroke="white" stroke-width="0.642682"/>
<rect x="1448.62" y="388.138" width="61.0548" height="61.0548" stroke="white" stroke-width="0.642682"/>
<rect x="288.585" y="449.835" width="61.0548" height="61.0548" stroke="white" stroke-width="0.642682"/>
<rect x="349.64" y="449.835" width="61.0548" height="61.0548" stroke="white" stroke-width="0.642682"/>
<rect x="410.694" y="449.835" width="61.0548" height="61.0548" stroke="white" stroke-width="0.642682"/>
<rect x="471.749" y="449.835" width="61.0548" height="61.0548" stroke="white" stroke-width="0.642682"/>
<rect x="532.804" y="449.835" width="61.0548" height="61.0548" stroke="white" stroke-width="0.642682"/>
<rect x="593.858" y="449.835" width="61.0548" height="61.0548" stroke="white" stroke-width="0.642682"/>
<rect x="654.913" y="449.835" width="61.0548" height="61.0548" stroke="white" stroke-width="0.642682"/>
<rect x="715.968" y="449.835" width="61.0548" height="61.0548" stroke="white" stroke-width="0.642682"/>
<rect x="777.023" y="449.835" width="61.0548" height="61.0548" stroke="white" stroke-width="0.642682"/>
<rect x="838.077" y="449.835" width="61.0548" height="61.0548" stroke="white" stroke-width="0.642682"/>
<rect x="898.811" y="449.514" width="61.6975" height="61.6975" fill="white" fill-opacity="0.13"/>
<rect x="960.187" y="449.835" width="61.0548" height="61.0548" stroke="white" stroke-width="0.642682"/>
<rect x="1020.92" y="449.514" width="61.6975" height="61.6975" fill="white" fill-opacity="0.13"/>
<rect x="1082.3" y="449.835" width="61.0548" height="61.0548" stroke="white" stroke-width="0.642682"/>
<rect x="1143.35" y="449.835" width="61.0548" height="61.0548" stroke="white" stroke-width="0.642682"/>
<rect x="1204.41" y="449.835" width="61.0548" height="61.0548" stroke="white" stroke-width="0.642682"/>
<rect x="1265.46" y="449.835" width="61.0548" height="61.0548" stroke="white" stroke-width="0.642682"/>
<rect x="1326.51" y="449.835" width="61.0548" height="61.0548" stroke="white" stroke-width="0.642682"/>
<rect x="1387.57" y="449.835" width="61.0548" height="61.0548" stroke="white" stroke-width="0.642682"/>
<rect x="1448.62" y="449.835" width="61.0548" height="61.0548" stroke="white" stroke-width="0.642682"/>
<rect x="288.585" y="511.533" width="61.0548" height="61.0548" stroke="white" stroke-width="0.642682"/>
<rect x="349.64" y="511.533" width="61.0548" height="61.0548" stroke="white" stroke-width="0.642682"/>
<rect x="410.694" y="511.533" width="61.0548" height="61.0548" stroke="white" stroke-width="0.642682"/>
<rect x="471.749" y="511.533" width="61.0548" height="61.0548" stroke="white" stroke-width="0.642682"/>
<rect x="532.804" y="511.533" width="61.0548" height="61.0548" stroke="white" stroke-width="0.642682"/>
<rect x="593.858" y="511.533" width="61.0548" height="61.0548" stroke="white" stroke-width="0.642682"/>
<rect x="654.913" y="511.533" width="61.0548" height="61.0548" stroke="white" stroke-width="0.642682"/>
<rect x="715.968" y="511.533" width="61.0548" height="61.0548" stroke="white" stroke-width="0.642682"/>
<rect x="777.023" y="511.533" width="61.0548" height="61.0548" stroke="white" stroke-width="0.642682"/>
<rect x="838.077" y="511.533" width="61.0548" height="61.0548" stroke="white" stroke-width="0.642682"/>
<rect x="899.132" y="511.533" width="61.0548" height="61.0548" stroke="white" stroke-width="0.642682"/>
<rect x="960.187" y="511.533" width="61.0548" height="61.0548" stroke="white" stroke-width="0.642682"/>
<rect x="1021.24" y="511.533" width="61.0548" height="61.0548" stroke="white" stroke-width="0.642682"/>
<rect x="1082.3" y="511.533" width="61.0548" height="61.0548" stroke="white" stroke-width="0.642682"/>
<rect x="1143.35" y="511.533" width="61.0548" height="61.0548" stroke="white" stroke-width="0.642682"/>
<rect x="1204.41" y="511.533" width="61.0548" height="61.0548" stroke="white" stroke-width="0.642682"/>
<rect x="1265.46" y="511.533" width="61.0548" height="61.0548" stroke="white" stroke-width="0.642682"/>
<rect x="1326.51" y="511.533" width="61.0548" height="61.0548" stroke="white" stroke-width="0.642682"/>
<rect x="1387.57" y="511.533" width="61.0548" height="61.0548" stroke="white" stroke-width="0.642682"/>
<rect x="1448.62" y="511.533" width="61.0548" height="61.0548" stroke="white" stroke-width="0.642682"/>
<rect x="288.585" y="573.23" width="61.0548" height="61.0548" stroke="white" stroke-width="0.642682"/>
<rect x="349.64" y="573.23" width="61.0548" height="61.0548" stroke="white" stroke-width="0.642682"/>
<rect x="410.694" y="573.23" width="61.0548" height="61.0548" stroke="white" stroke-width="0.642682"/>
<rect x="471.749" y="573.23" width="61.0548" height="61.0548" stroke="white" stroke-width="0.642682"/>
<rect x="532.804" y="573.23" width="61.0548" height="61.0548" stroke="white" stroke-width="0.642682"/>
<rect x="593.858" y="573.23" width="61.0548" height="61.0548" stroke="white" stroke-width="0.642682"/>
<rect x="654.913" y="573.23" width="61.0548" height="61.0548" stroke="white" stroke-width="0.642682"/>
<rect x="715.968" y="573.23" width="61.0548" height="61.0548" stroke="white" stroke-width="0.642682"/>
<rect x="777.023" y="573.23" width="61.0548" height="61.0548" stroke="white" stroke-width="0.642682"/>
<rect x="838.077" y="573.23" width="61.0548" height="61.0548" stroke="white" stroke-width="0.642682"/>
<rect x="899.132" y="573.23" width="61.0548" height="61.0548" stroke="white" stroke-width="0.642682"/>
<rect x="960.187" y="573.23" width="61.0548" height="61.0548" stroke="white" stroke-width="0.642682"/>
<rect x="1021.24" y="573.23" width="61.0548" height="61.0548" stroke="white" stroke-width="0.642682"/>
<rect x="1082.3" y="573.23" width="61.0548" height="61.0548" stroke="white" stroke-width="0.642682"/>
<rect x="1143.35" y="573.23" width="61.0548" height="61.0548" stroke="white" stroke-width="0.642682"/>
<rect x="1204.41" y="573.23" width="61.0548" height="61.0548" stroke="white" stroke-width="0.642682"/>
<rect x="1265.46" y="573.23" width="61.0548" height="61.0548" stroke="white" stroke-width="0.642682"/>
<rect x="1326.51" y="573.23" width="61.0548" height="61.0548" stroke="white" stroke-width="0.642682"/>
<rect x="1387.57" y="573.23" width="61.0548" height="61.0548" stroke="white" stroke-width="0.642682"/>
<rect x="1448.62" y="573.23" width="61.0548" height="61.0548" stroke="white" stroke-width="0.642682"/>
</g>
</mask>
<g mask="url(#mask0_22943_84306)">
<g filter="url(#filter0_f_22943_84306)">
<ellipse cx="640.439" cy="83.2127" rx="252.658" ry="180.579" transform="rotate(-15 640.439 83.2127)" fill="#B987FF"/>
</g>
<g filter="url(#filter1_f_22943_84306)">
<ellipse cx="1190.67" cy="7.6527" rx="312.682" ry="223.479" transform="rotate(-15 1190.67 7.6527)" fill="#B987FF"/>
</g>
</g>
<defs>
<filter id="filter0_f_22943_84306" x="308.102" y="-186.925" width="664.672" height="540.275" filterUnits="userSpaceOnUse" color-interpolation-filters="sRGB">
<feFlood flood-opacity="0" result="BackgroundImageFix"/>
<feBlend mode="normal" in="SourceGraphic" in2="BackgroundImageFix" result="shape"/>
<feGaussianBlur stdDeviation="41.903" result="effect1_foregroundBlur_22943_84306"/>
</filter>
<filter id="filter1_f_22943_84306" x="779.38" y="-326.661" width="822.578" height="668.627" filterUnits="userSpaceOnUse" color-interpolation-filters="sRGB">
<feFlood flood-opacity="0" result="BackgroundImageFix"/>
<feBlend mode="normal" in="SourceGraphic" in2="BackgroundImageFix" result="shape"/>
<feGaussianBlur stdDeviation="51.8578" result="effect1_foregroundBlur_22943_84306"/>
</filter>
</defs>
</svg>
