<svg width="567" height="421" viewBox="0 0 567 421" fill="none" xmlns="http://www.w3.org/2000/svg">
<g filter="url(#filter0_d_80_12257)">
<path d="M177.714 140.74C179.374 139.068 182.067 139.068 183.727 140.74L190.553 147.614C192.214 149.286 192.214 151.997 190.553 153.669L183.727 160.542C182.067 162.214 179.374 162.214 177.714 160.542L170.888 153.669C169.227 151.997 169.227 149.286 170.888 147.614L177.714 140.74Z" fill="#A950FF"/>
<path d="M209.153 140.686C210.784 139.043 213.428 139.043 215.059 140.686L221.993 147.667C223.623 149.309 223.623 151.972 221.993 153.614L215.059 160.596C213.428 162.238 210.784 162.238 209.153 160.596L202.22 153.614C200.589 151.972 200.589 149.309 202.22 147.667L209.153 140.686Z" fill="#A950FF"/>
<path d="M177.768 109.083C179.399 107.441 182.043 107.441 183.674 109.083L190.607 116.065C192.238 117.707 192.238 120.37 190.607 122.012L183.674 128.993C182.043 130.636 179.399 130.636 177.768 128.993L170.834 122.012C169.203 120.37 169.203 117.707 170.834 116.065L177.768 109.083Z" fill="#E9C1FF"/>
<path d="M174.862 131.812C176.523 133.484 176.523 136.196 174.862 137.868L168.036 144.741C166.376 146.413 163.683 146.413 162.023 144.741L155.197 137.868C153.536 136.196 153.536 133.484 155.197 131.812L162.023 124.939C163.683 123.267 166.376 123.267 168.036 124.939L174.862 131.812Z" fill="#CD88FF"/>
<path d="M159.223 147.667C160.854 149.309 160.854 151.972 159.223 153.614L152.289 160.596C150.658 162.238 148.014 162.238 146.383 160.596L139.45 153.614C137.819 151.972 137.819 149.309 139.45 147.667L146.383 140.686C148.014 139.043 150.658 139.043 152.289 140.686L159.223 147.667Z" fill="#A950FF"/>
<path d="M206.246 131.812C207.907 133.484 207.907 136.196 206.246 137.868L199.42 144.741C197.76 146.413 195.068 146.413 193.407 144.741L186.581 137.868C184.92 136.196 184.92 133.484 186.581 131.812L193.407 124.939C195.068 123.267 197.76 123.267 199.42 124.939L206.246 131.812Z" fill="#CD88FF"/>
<path d="M187.438 176.953C191.148 180.689 191.148 186.745 187.438 190.481C183.729 194.217 177.714 194.217 174.004 190.481C170.294 186.745 170.294 180.689 174.004 176.953C177.714 173.218 183.729 173.218 187.438 176.953Z" fill="#F62E76"/>
</g>
<circle cx="180.721" cy="149.908" r="65.9278" stroke="white" stroke-width="0.85031" stroke-dasharray="1.7 1.7"/>
<path d="M254.508 157.283C254.082 162.073 253.189 166.876 251.803 171.63L251.521 171.546C250.848 173.852 250.059 176.147 249.15 178.424C248.241 180.701 247.234 182.907 246.134 185.04L246.396 185.177C244.129 189.574 241.474 193.661 238.49 197.412L238.26 197.227C235.216 201.054 231.83 204.53 228.165 207.628L228.356 207.854C224.628 211.005 220.614 213.766 216.382 216.108L216.239 215.849C212.003 218.193 207.548 220.115 202.941 221.585L203.032 221.867C198.419 223.34 193.655 224.361 188.81 224.903L188.776 224.609C184.003 225.142 179.151 225.207 174.285 224.775L174.26 225.07C169.483 224.647 164.693 223.747 159.952 222.344L160.034 222.06C157.733 221.379 155.444 220.579 153.173 219.657C150.901 218.735 148.701 217.712 146.574 216.595L146.438 216.857C142.055 214.555 137.983 211.857 134.248 208.825L134.432 208.595C130.627 205.506 127.173 202.068 124.098 198.349L123.871 198.537C120.749 194.761 118.016 190.696 115.702 186.41L115.96 186.27C113.649 181.991 111.757 177.492 110.312 172.842L110.031 172.928C108.588 168.283 107.591 163.487 107.068 158.61L107.361 158.58C106.847 153.786 106.793 148.912 107.227 144.026L106.934 143.999C107.359 139.209 108.252 134.406 109.638 129.652L109.921 129.737C110.594 127.43 111.383 125.135 112.291 122.858C113.2 120.581 114.208 118.375 115.308 116.242L115.046 116.105C117.312 111.708 119.968 107.621 122.951 103.87L123.182 104.055C126.225 100.228 129.612 96.7521 133.276 93.6544L133.086 93.4278C136.814 90.2766 140.827 87.5156 145.059 85.174L145.202 85.4331C149.438 83.0892 153.894 81.1672 158.5 79.6967L158.41 79.4149C163.023 77.9422 167.786 76.9206 172.632 76.3794L172.665 76.6733C177.438 76.1402 182.29 76.0752 187.157 76.5066L187.181 76.212C191.958 76.6355 196.748 77.5355 201.489 78.9385L201.407 79.2221C203.708 79.9031 205.998 80.7031 208.269 81.6251C210.54 82.5472 212.741 83.5704 214.868 84.6873L215.003 84.4254C219.386 86.7267 223.458 89.4249 227.194 92.4575L227.009 92.6872C230.814 95.7764 234.269 99.214 237.344 102.933L237.57 102.745C240.692 106.521 243.425 110.587 245.74 114.872L245.481 115.012C247.792 119.291 249.685 123.79 251.129 128.44L251.41 128.354C252.853 132.999 253.851 137.795 254.374 142.672L254.081 142.702C254.595 147.497 254.649 152.37 254.215 157.256L254.508 157.283Z" stroke="url(#paint0_linear_80_12257)" stroke-width="0.590199" stroke-linejoin="round" stroke-dasharray="14.16 14.16"/>
<g filter="url(#filter1_d_80_12257)">
<path d="M203.74 202.93C199.204 204.835 194.371 206.166 189.33 206.832L189.291 206.539C186.859 206.861 184.379 207.026 181.86 207.026C179.341 207.026 176.861 206.861 174.429 206.539L174.39 206.832C169.349 206.166 164.516 204.835 159.98 202.93L160.094 202.658C155.481 200.72 151.177 198.186 147.276 195.149L147.095 195.382C143.156 192.317 139.626 188.742 136.602 184.757L136.837 184.578C133.855 180.648 131.368 176.316 129.469 171.678L129.196 171.789C127.334 167.242 126.034 162.4 125.384 157.352L125.677 157.315C125.363 154.882 125.202 152.401 125.202 149.881C125.202 147.362 125.363 144.881 125.677 142.448L125.384 142.41C126.034 137.363 127.334 132.521 129.196 127.974L129.469 128.085C131.368 123.446 133.855 119.115 136.837 115.185L136.602 115.006C139.626 111.021 143.156 107.446 147.095 104.381L147.276 104.614C151.177 101.577 155.481 99.0426 160.094 97.1053L159.98 96.8332C164.516 94.9278 169.349 93.597 174.39 92.931L174.429 93.2236C176.861 92.9023 179.341 92.7365 181.86 92.7365C184.379 92.7365 186.859 92.9023 189.291 93.2236L189.33 92.931C194.371 93.597 199.204 94.9278 203.74 96.8332L203.626 97.1053C208.238 99.0427 212.543 101.577 216.444 104.614L216.625 104.381C220.564 107.446 224.094 111.021 227.118 115.006L226.883 115.185C229.864 119.115 232.352 123.446 234.251 128.085L234.524 127.974C236.386 132.521 237.686 137.363 238.336 142.41L238.043 142.448C238.357 144.881 238.518 147.362 238.518 149.881C238.518 152.401 238.357 154.882 238.043 157.315L238.336 157.352C237.686 162.4 236.386 167.242 234.524 171.789L234.251 171.678C232.352 176.316 229.864 180.648 226.883 184.578L227.118 184.757C224.094 188.742 220.564 192.317 216.625 195.382L216.444 195.149C212.543 198.186 208.238 200.72 203.626 202.658L203.74 202.93Z" stroke="#5F00E8" stroke-width="0.590199" stroke-linejoin="round" stroke-dasharray="14.16 14.16" shape-rendering="crispEdges"/>
</g>
<path d="M345.47 150.994C345.665 150.799 345.665 150.482 345.47 150.287L342.288 147.105C342.093 146.91 341.776 146.91 341.581 147.105C341.386 147.3 341.386 147.617 341.581 147.812L344.409 150.641L341.581 153.469C341.386 153.664 341.386 153.981 341.581 154.176C341.776 154.371 342.093 154.371 342.288 154.176L345.47 150.994ZM238.813 147.974C237.341 147.974 236.147 149.168 236.147 150.641C236.147 152.113 237.341 153.307 238.813 153.307C240.286 153.307 241.48 152.113 241.48 150.641C241.48 149.168 240.286 147.974 238.813 147.974ZM238.813 151.141L239.798 151.141L239.798 150.141L238.813 150.141L238.813 151.141ZM241.766 151.141L243.735 151.141L243.735 150.141L241.766 150.141L241.766 151.141ZM245.703 151.141L247.672 151.141L247.672 150.141L245.703 150.141L245.703 151.141ZM249.641 151.141L251.609 151.141L251.609 150.141L249.641 150.141L249.641 151.141ZM253.578 151.141L255.546 151.141L255.546 150.141L253.578 150.141L253.578 151.141ZM257.515 151.141L259.484 151.141L259.484 150.141L257.515 150.141L257.515 151.141ZM261.452 151.141L263.421 151.141L263.421 150.141L261.452 150.141L261.452 151.141ZM265.389 151.141L267.358 151.141L267.358 150.141L265.389 150.141L265.389 151.141ZM269.326 151.141L271.295 151.141L271.295 150.141L269.326 150.141L269.326 151.141ZM273.264 151.141L275.232 151.141L275.232 150.141L273.264 150.141L273.264 151.141ZM277.201 151.141L279.169 151.141L279.169 150.141L277.201 150.141L277.201 151.141ZM281.138 151.141L283.106 151.141L283.106 150.141L281.138 150.141L281.138 151.141ZM285.075 151.141L287.044 151.141L287.044 150.141L285.075 150.141L285.075 151.141ZM289.012 151.141L290.981 151.141L290.981 150.141L289.012 150.141L289.012 151.141ZM292.949 151.141L294.918 151.141L294.918 150.141L292.949 150.141L292.949 151.141ZM296.886 151.141L298.855 151.141L298.855 150.141L296.886 150.141L296.886 151.141ZM300.824 151.141L302.792 151.141L302.792 150.141L300.824 150.141L300.824 151.141ZM304.761 151.141L306.729 151.141L306.729 150.141L304.761 150.141L304.761 151.141ZM308.698 151.141L310.666 151.141L310.666 150.141L308.698 150.141L308.698 151.141ZM312.635 151.141L314.604 151.141L314.604 150.141L312.635 150.141L312.635 151.141ZM316.572 151.141L318.541 151.141L318.541 150.141L316.572 150.141L316.572 151.141ZM320.509 151.141L322.478 151.141L322.478 150.141L320.509 150.141L320.509 151.141ZM324.446 151.141L326.415 151.141L326.415 150.141L324.446 150.141L324.446 151.141ZM328.384 151.141L330.352 151.141L330.352 150.141L328.384 150.141L328.384 151.141ZM332.321 151.141L334.289 151.141L334.289 150.141L332.321 150.141L332.321 151.141ZM336.258 151.141L338.226 151.141L338.226 150.141L336.258 150.141L336.258 151.141ZM340.195 151.141L342.164 151.141L342.164 150.141L340.195 150.141L340.195 151.141ZM344.132 151.141L345.117 151.141L345.117 150.141L344.132 150.141L344.132 151.141Z" fill="white"/>
<g filter="url(#filter2_d_80_12257)">
<rect x="347.91" y="92.4414" width="117.368" height="116.223" rx="8" fill="black" fill-opacity="0.1" shape-rendering="crispEdges"/>
<rect x="348.41" y="92.9414" width="116.368" height="115.223" rx="7.5" stroke="#066DA5" shape-rendering="crispEdges"/>
</g>
<path d="M411.878 145.382H419.417ZM402.903 145.382H410.442ZM394.108 145.382H401.647ZM385.313 145.382H392.672ZM376.339 145.382H383.877ZM385.313 137.318H392.672ZM394.108 137.318H401.647ZM402.903 137.318H410.442ZM402.903 129.253H410.442Z" fill="black"/>
<path fill-rule="evenodd" clip-rule="evenodd" d="M410.442 132.584H402.903V125.922H410.442V132.584ZM392.672 140.649H385.313V133.986H392.672V140.649ZM401.647 140.649H394.108V133.986H401.647V140.649ZM410.442 140.649H402.903V133.986H410.442V140.649ZM383.877 148.713H376.339V142.051H383.877V148.713ZM392.672 148.713H385.313V142.051H392.672V148.713ZM401.647 148.713H394.108V142.051H401.647V148.713ZM410.442 148.713H402.903V142.051H410.442V148.713ZM419.417 148.713H411.878V142.051H419.417V148.713Z" fill="#066DA5"/>
<path d="M443.468 145.733C443.468 145.733 440.238 142.752 433.596 143.804C432.878 138.72 427.314 135.74 427.314 135.74C427.314 135.74 422.109 141.876 425.878 148.713C424.801 149.239 423.006 149.94 420.314 149.94H370.954C370.056 153.271 370.056 175.361 394.826 175.361C412.596 175.361 425.878 167.297 432.16 152.57C441.494 153.271 443.468 145.733 443.468 145.733Z" fill="#066DA5"/>
<circle cx="409.394" cy="207.375" r="8.11279" stroke="#066DA5"/>
<circle cx="409.394" cy="207.375" r="8.11279" stroke="#066DA5"/>
<circle cx="409.394" cy="207.375" r="5.61329" fill="#066DA5" fill-opacity="0.5"/>
<g filter="url(#filter3_b_80_12257)">
<rect x="225.301" y="247.824" width="116.398" height="116.398" rx="9.50191" fill="#111113"/>
<rect x="225.846" y="248.369" width="115.309" height="115.309" rx="8.9571" stroke="#3D3D3F" stroke-width="1.08962"/>
</g>
<path d="M261.725 339.923C270.662 339.923 277.907 332.678 277.907 323.74C277.907 314.803 270.662 307.558 261.725 307.558C252.787 307.558 245.542 314.803 245.542 323.74C245.542 332.678 252.787 339.923 261.725 339.923Z" fill="#D5635C"/>
<path d="M261.725 341.16C258.279 341.16 254.91 340.138 252.045 338.224C249.18 336.31 246.947 333.589 245.629 330.405C244.31 327.222 243.965 323.718 244.637 320.339C245.309 316.959 246.969 313.855 249.405 311.418C251.842 308.982 254.946 307.322 258.326 306.65C261.705 305.978 265.208 306.323 268.392 307.642C271.576 308.96 274.297 311.193 276.211 314.058C278.125 316.924 279.147 320.292 279.147 323.738C279.142 328.357 277.305 332.785 274.039 336.052C270.772 339.318 266.344 341.155 261.725 341.16ZM261.725 308.798C258.77 308.798 255.881 309.674 253.425 311.316C250.968 312.957 249.053 315.291 247.922 318.021C246.791 320.75 246.496 323.754 247.072 326.652C247.648 329.55 249.071 332.212 251.161 334.302C253.25 336.391 255.912 337.814 258.81 338.39C261.708 338.967 264.712 338.671 267.442 337.54C270.172 336.41 272.505 334.495 274.147 332.038C275.788 329.581 276.665 326.693 276.665 323.738C276.659 319.777 275.084 315.981 272.283 313.18C269.482 310.38 265.685 308.802 261.725 308.798Z" fill="#CB3C33"/>
<path d="M282.963 303.515C291.901 303.515 299.146 296.27 299.146 287.332C299.146 278.395 291.901 271.15 282.963 271.15C274.026 271.15 266.781 278.395 266.781 287.332C266.781 296.27 274.026 303.515 282.963 303.515Z" fill="#60AD51"/>
<path d="M282.963 304.755C279.517 304.755 276.149 303.733 273.284 301.819C270.419 299.904 268.186 297.183 266.867 294C265.548 290.816 265.203 287.313 265.876 283.934C266.548 280.554 268.207 277.45 270.644 275.013C273.08 272.576 276.185 270.917 279.564 270.245C282.944 269.573 286.447 269.918 289.631 271.236C292.814 272.555 295.535 274.788 297.449 277.653C299.364 280.518 300.386 283.887 300.386 287.333C300.381 291.952 298.543 296.38 295.277 299.646C292.011 302.913 287.582 304.75 282.963 304.755ZM282.963 272.398C280.008 272.398 277.12 273.274 274.663 274.916C272.206 276.558 270.291 278.891 269.161 281.621C268.03 284.351 267.734 287.355 268.311 290.253C268.887 293.151 270.31 295.813 272.399 297.902C274.489 299.991 277.151 301.414 280.049 301.991C282.947 302.567 285.951 302.271 288.68 301.141C291.41 300.01 293.744 298.095 295.385 295.638C297.027 293.181 297.903 290.293 297.903 287.338C297.899 283.377 296.323 279.58 293.522 276.779C290.722 273.978 286.924 272.403 282.963 272.398Z" fill="#389826"/>
<path d="M304.202 339.923C313.14 339.923 320.385 332.678 320.385 323.74C320.385 314.803 313.14 307.558 304.202 307.558C295.265 307.558 288.02 314.803 288.02 323.74C288.02 332.678 295.265 339.923 304.202 339.923Z" fill="#AA79C1"/>
<path d="M304.202 341.16C300.757 341.16 297.388 340.138 294.523 338.224C291.658 336.309 289.425 333.588 288.106 330.404C286.787 327.221 286.443 323.718 287.115 320.338C287.788 316.958 289.447 313.854 291.884 311.417C294.321 308.981 297.425 307.322 300.805 306.65C304.185 305.978 307.688 306.323 310.872 307.642C314.055 308.962 316.776 311.195 318.69 314.06C320.604 316.926 321.625 320.295 321.625 323.741C321.619 328.359 319.781 332.787 316.515 336.053C313.249 339.318 308.821 341.155 304.202 341.16ZM304.202 308.798C301.248 308.798 298.359 309.674 295.902 311.316C293.446 312.957 291.531 315.291 290.4 318.021C289.269 320.75 288.973 323.754 289.55 326.652C290.126 329.55 291.549 332.212 293.638 334.302C295.728 336.391 298.39 337.814 301.288 338.39C304.186 338.967 307.19 338.671 309.92 337.54C312.65 336.41 314.983 334.495 316.624 332.038C318.266 329.581 319.142 326.693 319.142 323.738C319.137 319.777 317.561 315.981 314.761 313.18C311.96 310.38 308.163 308.802 304.202 308.798Z" fill="#9558B2"/>
<g style="mix-blend-mode:screen" filter="url(#filter4_f_80_12257)">
<path d="M261.725 339.923C270.662 339.923 277.907 332.678 277.907 323.74C277.907 314.803 270.662 307.558 261.725 307.558C252.787 307.558 245.542 314.803 245.542 323.74C245.542 332.678 252.787 339.923 261.725 339.923Z" fill="#D5635C"/>
<path d="M261.725 341.16C258.279 341.16 254.91 340.138 252.045 338.224C249.18 336.31 246.947 333.589 245.629 330.405C244.31 327.222 243.965 323.718 244.637 320.339C245.309 316.959 246.969 313.855 249.405 311.418C251.842 308.982 254.946 307.322 258.326 306.65C261.705 305.978 265.208 306.323 268.392 307.642C271.576 308.96 274.297 311.193 276.211 314.058C278.125 316.924 279.147 320.292 279.147 323.738C279.142 328.357 277.305 332.785 274.039 336.052C270.772 339.318 266.344 341.155 261.725 341.16ZM261.725 308.798C258.77 308.798 255.881 309.674 253.425 311.316C250.968 312.957 249.053 315.291 247.922 318.021C246.791 320.75 246.496 323.754 247.072 326.652C247.648 329.55 249.071 332.212 251.161 334.302C253.25 336.391 255.912 337.814 258.81 338.39C261.708 338.967 264.712 338.671 267.442 337.54C270.172 336.41 272.505 334.495 274.147 332.038C275.788 329.581 276.665 326.693 276.665 323.738C276.659 319.777 275.084 315.981 272.283 313.18C269.482 310.38 265.685 308.802 261.725 308.798Z" fill="#CB3C33"/>
<path d="M282.963 303.515C291.901 303.515 299.146 296.27 299.146 287.332C299.146 278.395 291.901 271.15 282.963 271.15C274.026 271.15 266.781 278.395 266.781 287.332C266.781 296.27 274.026 303.515 282.963 303.515Z" fill="#60AD51"/>
<path d="M282.963 304.755C279.517 304.755 276.149 303.733 273.284 301.819C270.419 299.904 268.186 297.183 266.867 294C265.548 290.816 265.203 287.313 265.876 283.934C266.548 280.554 268.207 277.45 270.644 275.013C273.08 272.576 276.185 270.917 279.564 270.245C282.944 269.573 286.447 269.918 289.631 271.236C292.814 272.555 295.535 274.788 297.449 277.653C299.364 280.518 300.386 283.887 300.386 287.333C300.381 291.952 298.543 296.38 295.277 299.646C292.011 302.913 287.582 304.75 282.963 304.755ZM282.963 272.398C280.008 272.398 277.12 273.274 274.663 274.916C272.206 276.558 270.291 278.891 269.161 281.621C268.03 284.351 267.734 287.355 268.311 290.253C268.887 293.151 270.31 295.813 272.399 297.902C274.489 299.991 277.151 301.414 280.049 301.991C282.947 302.567 285.951 302.271 288.68 301.141C291.41 300.01 293.744 298.095 295.385 295.638C297.027 293.181 297.903 290.293 297.903 287.338C297.899 283.377 296.323 279.58 293.522 276.779C290.722 273.978 286.924 272.403 282.963 272.398Z" fill="#389826"/>
<path d="M304.202 339.923C313.14 339.923 320.385 332.678 320.385 323.74C320.385 314.803 313.14 307.558 304.202 307.558C295.265 307.558 288.02 314.803 288.02 323.74C288.02 332.678 295.265 339.923 304.202 339.923Z" fill="#AA79C1"/>
<path d="M304.202 341.16C300.757 341.16 297.388 340.138 294.523 338.224C291.658 336.309 289.425 333.588 288.106 330.404C286.787 327.221 286.443 323.718 287.115 320.338C287.788 316.958 289.447 313.854 291.884 311.417C294.321 308.981 297.425 307.322 300.805 306.65C304.185 305.978 307.688 306.323 310.872 307.642C314.055 308.962 316.776 311.195 318.69 314.06C320.604 316.926 321.625 320.295 321.625 323.741C321.619 328.359 319.781 332.787 316.515 336.053C313.249 339.318 308.821 341.155 304.202 341.16ZM304.202 308.798C301.248 308.798 298.359 309.674 295.902 311.316C293.446 312.957 291.531 315.291 290.4 318.021C289.269 320.75 288.973 323.754 289.55 326.652C290.126 329.55 291.549 332.212 293.638 334.302C295.728 336.391 298.39 337.814 301.288 338.39C304.186 338.967 307.19 338.671 309.92 337.54C312.65 336.41 314.983 334.495 316.624 332.038C318.266 329.581 319.142 326.693 319.142 323.738C319.137 319.777 317.561 315.981 314.761 313.18C311.96 310.38 308.163 308.802 304.202 308.798Z" fill="#9558B2"/>
</g>
<path d="M341.849 304.892C341.654 305.088 341.654 305.404 341.849 305.6L345.031 308.782C345.226 308.977 345.543 308.977 345.738 308.782C345.933 308.586 345.933 308.27 345.738 308.074L342.91 305.246L345.738 302.418C345.933 302.222 345.933 301.906 345.738 301.711C345.543 301.515 345.226 301.515 345.031 301.711L341.849 304.892ZM342.203 305.746L409.218 305.746L409.218 304.746L342.203 304.746L342.203 305.746Z" fill="white"/>
<path d="M412.007 207.419C412.007 205.946 410.813 204.752 409.34 204.752C407.868 204.752 406.674 205.946 406.674 207.419C406.674 208.892 407.868 210.085 409.34 210.085C410.813 210.085 412.007 208.892 412.007 207.419ZM409.84 305.715L409.84 207.419L408.84 207.419L408.84 305.715L409.84 305.715Z" fill="white"/>
<defs>
<filter id="filter0_d_80_12257" x="118.669" y="91.6957" width="124.103" height="124.544" filterUnits="userSpaceOnUse" color-interpolation-filters="sRGB">
<feFlood flood-opacity="0" result="BackgroundImageFix"/>
<feColorMatrix in="SourceAlpha" type="matrix" values="0 0 0 0 0 0 0 0 0 0 0 0 0 0 0 0 0 0 127 0" result="hardAlpha"/>
<feOffset dy="3.40124"/>
<feGaussianBlur stdDeviation="9.77857"/>
<feComposite in2="hardAlpha" operator="out"/>
<feColorMatrix type="matrix" values="0 0 0 0 0 0 0 0 0 0 0 0 0 0 0 0 0 0 0.95 0"/>
<feBlend mode="normal" in2="BackgroundImageFix" result="effect1_dropShadow_80_12257"/>
<feBlend mode="normal" in="SourceGraphic" in2="effect1_dropShadow_80_12257" result="shape"/>
</filter>
<filter id="filter1_d_80_12257" x="123.136" y="92.4414" width="117.448" height="118.42" filterUnits="userSpaceOnUse" color-interpolation-filters="sRGB">
<feFlood flood-opacity="0" result="BackgroundImageFix"/>
<feColorMatrix in="SourceAlpha" type="matrix" values="0 0 0 0 0 0 0 0 0 0 0 0 0 0 0 0 0 0 127 0" result="hardAlpha"/>
<feOffset dy="1.7706"/>
<feGaussianBlur stdDeviation="0.885298"/>
<feComposite in2="hardAlpha" operator="out"/>
<feColorMatrix type="matrix" values="0 0 0 0 0.432266 0 0 0 0 0.00354165 0 0 0 0 0.846458 0 0 0 1 0"/>
<feBlend mode="screen" in2="BackgroundImageFix" result="effect1_dropShadow_80_12257"/>
<feBlend mode="normal" in="SourceGraphic" in2="effect1_dropShadow_80_12257" result="shape"/>
</filter>
<filter id="filter2_d_80_12257" x="323.91" y="92.4414" width="165.368" height="164.223" filterUnits="userSpaceOnUse" color-interpolation-filters="sRGB">
<feFlood flood-opacity="0" result="BackgroundImageFix"/>
<feColorMatrix in="SourceAlpha" type="matrix" values="0 0 0 0 0 0 0 0 0 0 0 0 0 0 0 0 0 0 127 0" result="hardAlpha"/>
<feOffset dy="24"/>
<feGaussianBlur stdDeviation="12"/>
<feComposite in2="hardAlpha" operator="out"/>
<feColorMatrix type="matrix" values="0 0 0 0 0.352941 0 0 0 0 0.184314 0 0 0 0 0.835294 0 0 0 0.22 0"/>
<feBlend mode="normal" in2="BackgroundImageFix" result="effect1_dropShadow_80_12257"/>
<feBlend mode="normal" in="SourceGraphic" in2="effect1_dropShadow_80_12257" result="shape"/>
</filter>
<filter id="filter3_b_80_12257" x="217.673" y="240.197" width="131.653" height="131.653" filterUnits="userSpaceOnUse" color-interpolation-filters="sRGB">
<feFlood flood-opacity="0" result="BackgroundImageFix"/>
<feGaussianBlur in="BackgroundImageFix" stdDeviation="3.81366"/>
<feComposite in2="SourceAlpha" operator="in" result="effect1_backgroundBlur_80_12257"/>
<feBlend mode="normal" in="SourceGraphic" in2="effect1_backgroundBlur_80_12257" result="shape"/>
</filter>
<filter id="filter4_f_80_12257" x="218.427" y="242.141" width="128" height="128" filterUnits="userSpaceOnUse" color-interpolation-filters="sRGB">
<feFlood flood-opacity="0" result="BackgroundImageFix"/>
<feBlend mode="normal" in="SourceGraphic" in2="BackgroundImageFix" result="shape"/>
<feGaussianBlur stdDeviation="7" result="effect1_foregroundBlur_80_12257"/>
</filter>
<linearGradient id="paint0_linear_80_12257" x1="150.109" y1="87.5888" x2="219.521" y2="248.793" gradientUnits="userSpaceOnUse">
<stop offset="0.015625" stop-color="#B010FB"/>
<stop offset="0.130208" stop-color="#DE97FF"/>
<stop offset="0.234375" stop-color="#A227DB"/>
<stop offset="0.505208" stop-color="#A227DB" stop-opacity="0"/>
<stop offset="0.765625" stop-color="#A610EC" stop-opacity="0.84"/>
</linearGradient>
</defs>
</svg>
