<svg width="538" height="206" viewBox="0 0 538 206" fill="none" xmlns="http://www.w3.org/2000/svg">
<path d="M466.48 143.834C495.188 143.834 518.46 120.562 518.46 91.8546C518.46 63.1471 495.188 39.875 466.48 39.875C437.773 39.875 414.5 63.1471 414.5 91.8546C414.5 120.562 437.773 143.834 466.48 143.834Z" stroke="white" stroke-width="0.85031" stroke-dasharray="1.7 1.7"/>
<path d="M524.472 84.6786C525.144 89.6923 525.179 94.8483 524.514 100.035L524.222 99.9966C523.901 102.497 523.417 105.006 522.762 107.509C522.107 110.013 521.301 112.435 520.357 114.769L520.63 114.881C518.671 119.722 516.119 124.185 513.084 128.205L512.849 128.026C509.754 132.126 506.154 135.764 502.168 138.87L502.349 139.104C498.309 142.252 493.874 144.858 489.164 146.849L489.048 146.577C484.387 148.548 479.455 149.915 474.373 150.608L474.414 150.901C469.418 151.581 464.277 151.614 459.103 150.934L459.14 150.641C456.644 150.312 454.14 149.817 451.641 149.147C449.141 148.478 446.723 147.654 444.393 146.689L444.282 146.962C439.453 144.963 435.002 142.36 430.994 139.266L431.173 139.032C427.095 135.885 423.478 132.228 420.391 128.18L420.157 128.359C417.039 124.27 414.458 119.785 412.487 115.026L412.759 114.913C410.814 110.217 409.465 105.254 408.78 100.141L408.488 100.179C407.817 95.1657 407.782 90.0096 408.446 84.8222L408.739 84.8613C409.059 82.3602 409.543 79.8517 410.198 77.3483C410.853 74.8448 411.659 72.4226 412.604 70.0887L412.331 69.9763C414.29 65.1356 416.842 60.6728 419.877 56.6522L420.112 56.8313C423.207 52.7315 426.806 49.0938 430.793 45.9872L430.611 45.7535C434.651 42.6053 439.087 39.9999 443.796 38.0083L443.912 38.2807C448.574 36.3093 453.506 34.9425 458.588 34.2498L458.547 33.957C463.543 33.2762 468.683 33.2434 473.857 33.924L473.821 34.217C476.317 34.5454 478.821 35.0407 481.32 35.7104C483.819 36.3801 486.238 37.2037 488.567 38.1684L488.678 37.8953C493.507 39.8949 497.959 42.4979 501.967 45.5913L501.788 45.8252C505.866 48.9723 509.483 52.6297 512.57 56.6775L512.803 56.4987C515.922 60.5878 518.502 65.0731 520.474 69.832L520.202 69.9442C522.147 74.6402 523.496 79.604 524.18 84.7165L524.472 84.6786Z" stroke="#FCE07C" stroke-width="0.590199" stroke-linejoin="round" stroke-dasharray="14.16 14.16"/>
<g filter="url(#filter0_d_81_33)">
<path d="M484.661 133.733C481.078 135.238 477.261 136.289 473.28 136.815L473.241 136.522C471.323 136.776 469.367 136.907 467.38 136.907C465.394 136.907 463.437 136.776 461.519 136.522L461.481 136.815C457.5 136.289 453.682 135.238 450.099 133.733L450.214 133.461C446.576 131.933 443.181 129.934 440.105 127.539L439.923 127.772C436.812 125.351 434.024 122.528 431.636 119.38L431.871 119.202C429.52 116.102 427.558 112.686 426.06 109.027L425.787 109.139C424.316 105.547 423.29 101.723 422.776 97.7366L423.069 97.6989C422.822 95.78 422.694 93.8231 422.694 91.836C422.694 89.849 422.822 87.8921 423.069 85.9732L422.776 85.9355C423.29 81.9492 424.316 78.1253 425.787 74.5334L426.06 74.6452C427.558 70.9865 429.52 67.5701 431.871 64.4705L431.636 64.2921C434.025 61.1444 436.812 58.3213 439.923 55.9L440.105 56.1329C443.181 53.7382 446.576 51.7392 450.214 50.2112L450.099 49.9392C453.682 48.4343 457.5 47.3832 461.481 46.8572L461.519 47.1498C463.437 46.8964 465.394 46.7656 467.38 46.7656C469.367 46.7656 471.323 46.8964 473.241 47.1498L473.28 46.8572C477.261 47.3832 481.078 48.4343 484.661 49.9392L484.547 50.2112C488.185 51.7392 491.579 53.7382 494.656 56.1329L494.837 55.9C497.948 58.3213 500.736 61.1444 503.124 64.2921L502.889 64.4705C505.241 67.5701 507.203 70.9865 508.701 74.6452L508.974 74.5334C510.444 78.1253 511.471 81.9492 511.984 85.9355L511.692 85.9732C511.939 87.8921 512.066 89.849 512.066 91.836C512.066 93.8231 511.939 95.78 511.692 97.6989L511.984 97.7366C511.471 101.723 510.444 105.547 508.974 109.139L508.701 109.027C507.203 112.686 505.241 116.102 502.889 119.202L503.124 119.38C500.736 122.528 497.948 125.351 494.837 127.772L494.656 127.539C491.579 129.934 488.185 131.933 484.547 133.461L484.661 133.733Z" stroke="#FCE07C" stroke-width="0.590199" stroke-linejoin="round" stroke-dasharray="14.16 14.16"/>
</g>
<g filter="url(#filter1_d_81_33)">
<path d="M21 17.3423C21 13.5267 24.0931 10.4336 27.9087 10.4336H371.614C375.43 10.4336 378.523 13.5267 378.523 17.3422V50.1583H21V17.3423Z" fill="#201A27"/>
<mask id="mask0_81_33" style="mask-type:luminance" maskUnits="userSpaceOnUse" x="21" y="10" width="358" height="41">
<path d="M21 17.3423C21 13.5267 24.0931 10.4336 27.9087 10.4336H371.614C375.43 10.4336 378.523 13.5267 378.523 17.3422V50.1583H21V17.3423Z" fill="white"/>
</mask>
<g mask="url(#mask0_81_33)">
<path d="M20.1365 17.3425C20.1365 13.0501 23.6163 9.57031 27.9088 9.57031H371.614C375.907 9.57031 379.386 13.0501 379.386 17.3425H377.659C377.659 14.0039 374.953 11.2975 371.614 11.2975H27.9088C24.5702 11.2975 21.8637 14.0039 21.8637 17.3425H20.1365ZM20.1365 50.1586V17.3425C20.1365 13.0501 23.6163 9.57031 27.9088 9.57031V11.2975C24.5702 11.2975 21.8637 14.0039 21.8637 17.3425V50.1586H20.1365ZM371.614 9.57031C375.907 9.57031 379.386 13.0501 379.386 17.3425V50.1586H377.659V17.3425C377.659 14.0039 374.953 11.2975 371.614 11.2975V9.57031Z" fill="#736BCD"/>
</g>
<path d="M38.7035 34.1824C40.8497 34.1824 42.5896 32.4425 42.5896 30.2963C42.5896 28.15 40.8497 26.4102 38.7035 26.4102C36.5573 26.4102 34.8174 28.15 34.8174 30.2963C34.8174 32.4425 36.5573 34.1824 38.7035 34.1824Z" fill="#665C6B"/>
<path d="M51.6571 34.1824C53.8034 34.1824 55.5432 32.4425 55.5432 30.2963C55.5432 28.15 53.8034 26.4102 51.6571 26.4102C49.5109 26.4102 47.771 28.15 47.771 30.2963C47.771 32.4425 49.5109 34.1824 51.6571 34.1824Z" fill="#665C6B"/>
<path d="M64.6107 34.1824C66.757 34.1824 68.4968 32.4425 68.4968 30.2963C68.4968 28.15 66.757 26.4102 64.6107 26.4102C62.4645 26.4102 60.7246 28.15 60.7246 30.2963C60.7246 32.4425 62.4645 34.1824 64.6107 34.1824Z" fill="#665C6B"/>
<path d="M82.6989 36.7153C84.3969 36.7153 85.7734 35.3389 85.7734 33.6409C85.7734 31.9429 84.3969 30.5664 82.6989 30.5664C81.0009 30.5664 79.6245 31.9429 79.6245 33.6409C79.6245 35.3389 81.0009 36.7153 82.6989 36.7153Z" fill="#D5635C"/>
<path d="M82.699 36.9521C82.0443 36.9521 81.4043 36.758 80.86 36.3943C80.3157 36.0306 79.8914 35.5136 79.6409 34.9088C79.3904 34.3039 79.3248 33.6384 79.4525 32.9963C79.5802 32.3542 79.8955 31.7644 80.3584 31.3015C80.8213 30.8386 81.4111 30.5233 82.0532 30.3956C82.6953 30.2679 83.3608 30.3335 83.9657 30.584C84.5705 30.8345 85.0874 31.2588 85.4512 31.8031C85.8149 32.3474 86.009 32.9874 86.009 33.6421C86.008 34.5196 85.659 35.361 85.0384 35.9815C84.4179 36.6021 83.5765 36.9511 82.699 36.9521ZM82.699 30.8037C82.1376 30.8037 81.5888 30.9702 81.122 31.282C80.6553 31.5939 80.2915 32.0372 80.0766 32.5559C79.8618 33.0745 79.8056 33.6452 79.9151 34.1958C80.0246 34.7464 80.295 35.2521 80.6919 35.6491C81.0889 36.0461 81.5946 36.3164 82.1452 36.4259C82.6958 36.5354 83.2665 36.4792 83.7852 36.2644C84.3038 36.0496 84.7471 35.6858 85.059 35.219C85.3709 34.7522 85.5373 34.2034 85.5373 33.6421C85.5364 32.8896 85.237 32.1683 84.7049 31.6363C84.1728 31.1043 83.4514 30.8045 82.699 30.8037Z" fill="#CB3C33"/>
<path d="M86.7341 29.7973C88.4321 29.7973 89.8086 28.4209 89.8086 26.7229C89.8086 25.0249 88.4321 23.6484 86.7341 23.6484C85.0361 23.6484 83.6597 25.0249 83.6597 26.7229C83.6597 28.4209 85.0361 29.7973 86.7341 29.7973Z" fill="#60AD51"/>
<path d="M86.7341 30.0341C86.0795 30.0341 85.4395 29.84 84.8952 29.4763C84.3508 29.1126 83.9266 28.5956 83.676 27.9908C83.4255 27.386 83.36 26.7204 83.4877 26.0783C83.6154 25.4363 83.9307 24.8465 84.3936 24.3836C84.8565 23.9206 85.4463 23.6054 86.0884 23.4777C86.7304 23.3499 87.396 23.4155 88.0008 23.666C88.6056 23.9166 89.1226 24.3408 89.4863 24.8851C89.85 25.4295 90.0442 26.0694 90.0442 26.7241C90.0432 27.6017 89.6941 28.443 89.0736 29.0636C88.4531 29.6841 87.6117 30.0332 86.7341 30.0341ZM86.7341 23.8868C86.1727 23.8868 85.624 24.0532 85.1572 24.3651C84.6904 24.677 84.3266 25.1203 84.1118 25.639C83.897 26.1576 83.8408 26.7283 83.9503 27.2789C84.0598 27.8295 84.3301 28.3352 84.7271 28.7322C85.124 29.1291 85.6298 29.3995 86.1804 29.509C86.731 29.6185 87.3017 29.5623 87.8203 29.3475C88.339 29.1326 88.7823 28.7688 89.0941 28.3021C89.406 27.8353 89.5725 27.2865 89.5725 26.7252C89.5717 25.9726 89.2724 25.2512 88.7402 24.719C88.2081 24.1869 87.4866 23.8876 86.7341 23.8868Z" fill="#389826"/>
<path d="M90.7693 36.7153C92.4673 36.7153 93.8438 35.3389 93.8438 33.6409C93.8438 31.9429 92.4673 30.5664 90.7693 30.5664C89.0713 30.5664 87.6948 31.9429 87.6948 33.6409C87.6948 35.3389 89.0713 36.7153 90.7693 36.7153Z" fill="#AA79C1"/>
<path d="M90.7692 36.9521C90.1145 36.9521 89.4745 36.758 88.9302 36.3942C88.3859 36.0305 87.9616 35.5135 87.7111 34.9086C87.4606 34.3038 87.3951 33.6382 87.5228 32.9961C87.6506 32.354 87.9659 31.7642 88.4289 31.3013C88.8918 30.8384 89.4817 30.5232 90.1238 30.3956C90.7659 30.2679 91.4315 30.3335 92.0363 30.5841C92.6411 30.8347 93.158 31.2591 93.5217 31.8035C93.8853 32.3479 94.0794 32.9879 94.0793 33.6426C94.0781 34.5201 93.729 35.3613 93.1085 35.9817C92.488 36.6022 91.6467 36.9511 90.7692 36.9521ZM90.7692 30.8037C90.2078 30.8037 89.6591 30.9702 89.1923 31.282C88.7255 31.5939 88.3617 32.0372 88.1469 32.5559C87.9321 33.0745 87.8759 33.6452 87.9854 34.1958C88.0949 34.7464 88.3652 35.2521 88.7622 35.6491C89.1591 36.0461 89.6649 36.3164 90.2155 36.4259C90.7661 36.5354 91.3368 36.4792 91.8554 36.2644C92.3741 36.0496 92.8174 35.6858 93.1292 35.219C93.4411 34.7522 93.6076 34.2034 93.6076 33.6421C93.6066 32.8896 93.3072 32.1683 92.7751 31.6363C92.243 31.1043 91.5217 30.8045 90.7692 30.8037Z" fill="#9558B2"/>
<path d="M21.4319 50.5938H378.091V167.523C378.091 171.1 375.191 174 371.614 174H27.9088C24.3317 174 21.4319 171.1 21.4319 167.523V50.5938Z" fill="#0D0F14"/>
<path d="M21.4319 50.5938H378.091V167.523C378.091 171.1 375.191 174 371.614 174H27.9088C24.3317 174 21.4319 171.1 21.4319 167.523V50.5938Z" stroke="#736BCD" stroke-width="0.863582"/>
<path d="M82.6034 87.7933V83.2773H83.2167L83.2817 83.872H83.3003C83.418 83.6614 83.5543 83.491 83.7092 83.3609C83.864 83.2308 84.0716 83.1658 84.3317 83.1658C84.5548 83.1658 84.7375 83.2308 84.88 83.3609C85.0225 83.491 85.1247 83.6861 85.1866 83.9463C85.3167 83.7047 85.4592 83.5158 85.6141 83.3795C85.7751 83.237 85.9857 83.1658 86.2459 83.1658C86.5619 83.1658 86.8065 83.2866 86.98 83.5282C87.1596 83.7636 87.2495 84.1074 87.2495 84.5596V87.7933H86.4875V84.6154C86.4875 84.0888 86.3265 83.8255 86.0043 83.8255C85.8495 83.8255 85.7194 83.8844 85.6141 84.0021C85.5149 84.1136 85.4034 84.287 85.2795 84.5224V87.7933H84.5733V84.6154C84.5733 84.3552 84.5362 84.16 84.4618 84.03C84.3937 83.8937 84.276 83.8255 84.1087 83.8255C83.9539 83.8255 83.8176 83.8844 83.6999 84.0021C83.5884 84.1136 83.4769 84.287 83.3654 84.5224V87.7933H82.6034ZM89.922 87.9048C89.6432 87.9048 89.3861 87.8552 89.1507 87.7561C88.9153 87.6508 88.7295 87.5021 88.5932 87.3101C88.4569 87.118 88.3888 86.8888 88.3888 86.6225C88.3888 86.1145 88.6428 85.7304 89.1507 85.4702C89.6587 85.2039 90.495 85.0242 91.6596 84.9313C91.6534 84.7269 91.6101 84.5379 91.5295 84.3645C91.4552 84.191 91.3313 84.0547 91.1578 83.9556C90.9844 83.8503 90.7521 83.7976 90.4609 83.7976C90.2689 83.7976 90.0769 83.8255 89.8848 83.8813C89.699 83.9308 89.5193 83.999 89.3459 84.0857C89.1786 84.1662 89.0237 84.2499 88.8813 84.3366L88.5839 83.8162C88.7326 83.7171 88.9122 83.618 89.1229 83.5189C89.3397 83.4136 89.572 83.3299 89.8198 83.268C90.0676 83.1999 90.3246 83.1658 90.591 83.1658C91.0061 83.1658 91.3468 83.2432 91.6132 83.3981C91.8857 83.553 92.087 83.7698 92.2171 84.0485C92.3534 84.3211 92.4216 84.6463 92.4216 85.0242V87.7933H91.799L91.7339 87.18H91.7061C91.4583 87.3782 91.1795 87.5486 90.8698 87.6911C90.56 87.8335 90.2441 87.9048 89.922 87.9048ZM90.1264 87.2915C90.3866 87.2915 90.6437 87.2326 90.8977 87.1149C91.1516 86.9972 91.4056 86.8331 91.6596 86.6225V85.4331C91.0154 85.4888 90.5074 85.5663 90.1357 85.6654C89.7702 85.7645 89.51 85.8915 89.3552 86.0463C89.2065 86.195 89.1321 86.3685 89.1321 86.5667C89.1321 86.734 89.1786 86.8733 89.2715 86.9849C89.3645 87.0902 89.4853 87.1676 89.6339 87.2172C89.7888 87.2667 89.953 87.2915 90.1264 87.2915ZM96.1441 87.7933V83.8999H94.0441V83.2773H96.906V87.7933H96.1441ZM96.4414 82.3295C96.268 82.3295 96.1224 82.2768 96.0047 82.1715C95.887 82.06 95.8281 81.9144 95.8281 81.7348C95.8281 81.5551 95.887 81.4127 96.0047 81.3074C96.1224 81.1959 96.268 81.1401 96.4414 81.1401C96.6149 81.1401 96.7605 81.1959 96.8782 81.3074C96.9959 81.4127 97.0547 81.5551 97.0547 81.7348C97.0547 81.9144 96.9959 82.06 96.8782 82.1715C96.7605 82.2768 96.6149 82.3295 96.4414 82.3295ZM99.6436 87.7933V83.2773H100.276L100.341 84.0485H100.378C100.613 83.7946 100.867 83.5839 101.14 83.4167C101.412 83.2494 101.725 83.1658 102.078 83.1658C102.611 83.1658 103.004 83.3207 103.258 83.6304C103.512 83.9401 103.639 84.3923 103.639 84.987V87.7933H102.877V85.0893C102.877 84.6618 102.797 84.3459 102.636 84.1415C102.475 83.9308 102.208 83.8255 101.837 83.8255C101.57 83.8255 101.332 83.8937 101.121 84.03C100.911 84.1662 100.672 84.3707 100.406 84.6432V87.7933H99.6436ZM107.139 87.9048C106.934 87.9048 106.758 87.8335 106.609 87.6911C106.46 87.5424 106.386 87.3534 106.386 87.1242C106.386 86.8888 106.46 86.6999 106.609 86.5574C106.758 86.4087 106.934 86.3344 107.139 86.3344C107.349 86.3344 107.526 86.4087 107.668 86.5574C107.817 86.6999 107.891 86.8888 107.891 87.1242C107.891 87.3534 107.817 87.5424 107.668 87.6911C107.526 87.8335 107.349 87.9048 107.139 87.9048ZM111.725 89.8097C111.49 89.8097 111.261 89.7787 111.038 89.7167C110.815 89.661 110.614 89.5897 110.434 89.503L110.685 88.9362C110.846 89.0167 111.013 89.0787 111.187 89.122C111.366 89.1654 111.543 89.1871 111.716 89.1871C112.02 89.1871 112.252 89.1375 112.413 89.0384C112.58 88.9455 112.695 88.8061 112.757 88.6203C112.825 88.4344 112.859 88.2145 112.859 87.9605V83.8999H110.759V83.2773H113.621V87.9048C113.621 88.1835 113.59 88.4375 113.528 88.6667C113.466 88.9021 113.364 89.1035 113.222 89.2707C113.079 89.4442 112.884 89.5774 112.636 89.6703C112.395 89.7632 112.091 89.8097 111.725 89.8097ZM113.156 82.3295C112.983 82.3295 112.837 82.2768 112.72 82.1715C112.602 82.06 112.543 81.9144 112.543 81.7348C112.543 81.5551 112.602 81.4127 112.72 81.3074C112.837 81.1959 112.983 81.1401 113.156 81.1401C113.33 81.1401 113.476 81.1959 113.593 81.3074C113.711 81.4127 113.77 81.5551 113.77 81.7348C113.77 81.9144 113.711 82.06 113.593 82.1715C113.476 82.2768 113.33 82.3295 113.156 82.3295ZM119.267 87.9048C118.79 87.9048 118.425 87.7685 118.171 87.4959C117.917 87.2172 117.79 86.8114 117.79 86.2787V81.7998H116.247V81.1773H118.552V86.3344C118.552 86.6627 118.632 86.9012 118.793 87.0499C118.954 87.1986 119.168 87.2729 119.434 87.2729C119.564 87.2729 119.698 87.2574 119.834 87.2264C119.97 87.1893 120.122 87.1335 120.289 87.0592L120.484 87.6353C120.28 87.7096 120.088 87.7716 119.908 87.8211C119.729 87.8769 119.515 87.9048 119.267 87.9048ZM123.854 84.5782C123.649 84.5782 123.473 84.5069 123.324 84.3645C123.175 84.2158 123.101 84.0269 123.101 83.7976C123.101 83.5622 123.175 83.3733 123.324 83.2308C123.473 83.0822 123.649 83.0078 123.854 83.0078C124.064 83.0078 124.241 83.0822 124.383 83.2308C124.532 83.3733 124.606 83.5622 124.606 83.7976C124.606 84.0269 124.532 84.2158 124.383 84.3645C124.241 84.5069 124.064 84.5782 123.854 84.5782ZM123.854 87.9048C123.649 87.9048 123.473 87.8335 123.324 87.6911C123.175 87.5424 123.101 87.3534 123.101 87.1242C123.101 86.8888 123.175 86.6999 123.324 86.5574C123.473 86.4087 123.649 86.3344 123.854 86.3344C124.064 86.3344 124.241 86.4087 124.383 86.5574C124.532 86.6999 124.606 86.8888 124.606 87.1242C124.606 87.3534 124.532 87.5424 124.383 87.6911C124.241 87.8335 124.064 87.9048 123.854 87.9048ZM134.653 90.1163V80.8242H135.341V90.1163H134.653ZM95.4936 101.904C94.9547 101.904 94.5582 101.75 94.3042 101.44C94.0503 101.13 93.9233 100.678 93.9233 100.083V97.2773H94.6945V99.9813C94.6945 100.408 94.7719 100.727 94.9268 100.938C95.0879 101.143 95.3573 101.245 95.7352 101.245C95.9954 101.245 96.2308 101.18 96.4414 101.05C96.6582 100.913 96.8906 100.7 97.1383 100.408V97.2773H97.9003V101.793H97.2777L97.2127 101.003H97.1755C96.9463 101.263 96.6954 101.48 96.4228 101.654C96.1503 101.821 95.8405 101.904 95.4936 101.904ZM101.66 101.904C101.22 101.904 100.808 101.833 100.424 101.691C100.04 101.548 99.7117 101.384 99.4392 101.198L99.7923 100.696C100.053 100.882 100.341 101.031 100.657 101.143C100.972 101.254 101.338 101.31 101.753 101.31C102.137 101.31 102.422 101.239 102.608 101.096C102.8 100.954 102.896 100.789 102.896 100.604C102.896 100.517 102.877 100.436 102.84 100.362C102.809 100.288 102.744 100.216 102.645 100.148C102.552 100.08 102.413 100.015 102.227 99.9534C102.041 99.8915 101.793 99.8295 101.484 99.7676C100.895 99.6437 100.452 99.4764 100.155 99.2658C99.8635 99.0552 99.7179 98.7826 99.7179 98.4481C99.7179 98.0826 99.8759 97.7791 100.192 97.5375C100.508 97.2897 100.976 97.1658 101.595 97.1658C101.942 97.1658 102.276 97.2246 102.599 97.3423C102.921 97.4538 103.193 97.587 103.416 97.7419L103.045 98.2344C102.84 98.0857 102.608 97.9711 102.348 97.8906C102.088 97.8038 101.815 97.7605 101.53 97.7605C101.27 97.7605 101.062 97.7915 100.907 97.8534C100.759 97.9092 100.65 97.9866 100.582 98.0857C100.52 98.1848 100.489 98.2932 100.489 98.4109C100.489 98.603 100.591 98.7547 100.796 98.8662C101.007 98.9716 101.341 99.0707 101.799 99.1636C102.301 99.2689 102.685 99.3866 102.952 99.5167C103.224 99.6468 103.41 99.7955 103.509 99.9627C103.615 100.13 103.667 100.328 103.667 100.557C103.667 100.805 103.59 101.031 103.435 101.235C103.28 101.434 103.054 101.595 102.757 101.719C102.459 101.843 102.094 101.904 101.66 101.904ZM107.287 101.793V97.8999H105.187V97.2773H108.049V101.793H107.287ZM107.585 96.3295C107.411 96.3295 107.266 96.2768 107.148 96.1715C107.03 96.06 106.972 95.9144 106.972 95.7348C106.972 95.5551 107.03 95.4127 107.148 95.3074C107.266 95.1959 107.411 95.1401 107.585 95.1401C107.758 95.1401 107.904 95.1959 108.022 95.3074C108.139 95.4127 108.198 95.5551 108.198 95.7348C108.198 95.9144 108.139 96.06 108.022 96.1715C107.904 96.2768 107.758 96.3295 107.585 96.3295ZM110.787 101.793V97.2773H111.419L111.484 98.0485H111.521C111.756 97.7946 112.01 97.5839 112.283 97.4167C112.556 97.2494 112.868 97.1658 113.222 97.1658C113.754 97.1658 114.148 97.3207 114.402 97.6304C114.656 97.9401 114.783 98.3923 114.783 98.987V101.793H114.021V99.0893C114.021 98.6618 113.94 98.3459 113.779 98.1415C113.618 97.9308 113.352 97.8255 112.98 97.8255C112.714 97.8255 112.475 97.8937 112.264 98.03C112.054 98.1662 111.815 98.3707 111.549 98.6432V101.793H110.787ZM118.245 103.874C117.805 103.874 117.43 103.825 117.121 103.726C116.811 103.627 116.572 103.484 116.405 103.298C116.244 103.112 116.164 102.886 116.164 102.62C116.164 102.44 116.225 102.261 116.349 102.081C116.479 101.908 116.665 101.753 116.907 101.616V101.579C116.789 101.511 116.681 101.418 116.582 101.3C116.489 101.183 116.442 101.028 116.442 100.836C116.442 100.693 116.489 100.548 116.582 100.399C116.675 100.244 116.808 100.108 116.981 99.9906V99.9534C116.826 99.8357 116.693 99.6778 116.582 99.4795C116.476 99.2813 116.424 99.049 116.424 98.7826C116.424 98.4543 116.504 98.1693 116.665 97.9277C116.833 97.6861 117.049 97.5003 117.316 97.3702C117.588 97.2339 117.883 97.1658 118.198 97.1658C118.452 97.1658 118.675 97.203 118.868 97.2773H120.735V97.8999H119.564C119.67 98.0052 119.76 98.1384 119.834 98.2994C119.908 98.4605 119.945 98.6308 119.945 98.8105C119.945 99.1326 119.868 99.4114 119.713 99.6468C119.558 99.876 119.348 100.052 119.081 100.176C118.821 100.3 118.527 100.362 118.198 100.362C118.081 100.362 117.954 100.35 117.818 100.325C117.687 100.294 117.56 100.25 117.437 100.195C117.325 100.263 117.238 100.34 117.176 100.427C117.114 100.514 117.083 100.61 117.083 100.715C117.083 100.889 117.164 101.019 117.325 101.105C117.492 101.192 117.725 101.235 118.022 101.235H119.035C119.617 101.235 120.048 101.316 120.326 101.477C120.611 101.638 120.754 101.911 120.754 102.295C120.754 102.574 120.652 102.834 120.447 103.075C120.243 103.317 119.952 103.509 119.574 103.651C119.202 103.8 118.759 103.874 118.245 103.874ZM118.198 99.8512C118.391 99.8512 118.564 99.8078 118.719 99.7211C118.88 99.6344 119.007 99.5105 119.1 99.3494C119.193 99.1884 119.239 98.9994 119.239 98.7826C119.239 98.572 119.193 98.3892 119.1 98.2344C119.007 98.0733 118.88 97.9494 118.719 97.8627C118.564 97.7698 118.391 97.7233 118.198 97.7233C118.013 97.7233 117.839 97.7698 117.678 97.8627C117.523 97.9494 117.396 98.0733 117.297 98.2344C117.204 98.3892 117.158 98.572 117.158 98.7826C117.158 98.9994 117.204 99.1884 117.297 99.3494C117.396 99.5105 117.523 99.6344 117.678 99.7211C117.839 99.8078 118.013 99.8512 118.198 99.8512ZM118.301 103.317C118.654 103.317 118.957 103.274 119.211 103.187C119.465 103.1 119.66 102.989 119.797 102.852C119.933 102.716 120.001 102.57 120.001 102.416C120.001 102.199 119.914 102.053 119.741 101.979C119.574 101.904 119.317 101.867 118.97 101.867H118.087C117.957 101.867 117.833 101.861 117.715 101.849C117.604 101.836 117.498 101.818 117.399 101.793C117.189 101.911 117.04 102.031 116.953 102.155C116.867 102.285 116.823 102.416 116.823 102.546C116.823 102.781 116.947 102.967 117.195 103.103C117.449 103.246 117.818 103.317 118.301 103.317ZM127.446 101.793V95.6976H128.952C129.565 95.6976 130.079 95.8153 130.494 96.0507C130.915 96.2799 131.234 96.6206 131.451 97.0729C131.668 97.5251 131.776 98.0733 131.776 98.7176C131.776 99.368 131.668 99.9225 131.451 100.381C131.24 100.839 130.928 101.189 130.513 101.431C130.098 101.672 129.59 101.793 128.989 101.793H127.446ZM128.217 101.161H128.896C129.36 101.161 129.744 101.065 130.048 100.873C130.358 100.675 130.59 100.396 130.745 100.037C130.9 99.6716 130.977 99.2317 130.977 98.7176C130.977 98.2096 130.9 97.776 130.745 97.4167C130.59 97.0574 130.358 96.7879 130.048 96.6083C129.744 96.4224 129.36 96.3295 128.896 96.3295H128.217V101.161ZM134.495 101.904C134.217 101.904 133.959 101.855 133.724 101.756C133.489 101.65 133.303 101.502 133.167 101.31C133.03 101.118 132.962 100.889 132.962 100.622C132.962 100.114 133.216 99.7304 133.724 99.4702C134.232 99.2039 135.068 99.0242 136.233 98.9313C136.227 98.7269 136.183 98.5379 136.103 98.3645C136.029 98.191 135.905 98.0547 135.731 97.9556C135.558 97.8503 135.325 97.7976 135.034 97.7976C134.842 97.7976 134.65 97.8255 134.458 97.8813C134.272 97.9308 134.093 97.999 133.919 98.0857C133.752 98.1662 133.597 98.2499 133.455 98.3366L133.157 97.8162C133.306 97.7171 133.486 97.618 133.696 97.5189C133.913 97.4136 134.145 97.3299 134.393 97.268C134.641 97.1999 134.898 97.1658 135.164 97.1658C135.579 97.1658 135.92 97.2432 136.186 97.3981C136.459 97.553 136.66 97.7698 136.79 98.0485C136.927 98.3211 136.995 98.6463 136.995 99.0242V101.793H136.372L136.307 101.18H136.279C136.032 101.378 135.753 101.548 135.443 101.691C135.133 101.833 134.817 101.904 134.495 101.904ZM134.7 101.291C134.96 101.291 135.217 101.232 135.471 101.115C135.725 100.997 135.979 100.833 136.233 100.622V99.4331C135.589 99.4888 135.081 99.5663 134.709 99.6654C134.344 99.7645 134.083 99.8915 133.928 100.046C133.78 100.195 133.705 100.368 133.705 100.566C133.705 100.734 133.752 100.873 133.845 100.985C133.938 101.09 134.059 101.167 134.207 101.217C134.362 101.266 134.526 101.291 134.7 101.291ZM141.442 101.904C141.002 101.904 140.655 101.827 140.401 101.672C140.147 101.511 139.965 101.291 139.853 101.012C139.748 100.734 139.695 100.408 139.695 100.037V97.8999H138.422V97.3237L139.723 97.2773L139.825 95.8277H140.457V97.2773H142.678V97.8999H140.457V100.046C140.457 100.312 140.491 100.539 140.559 100.724C140.628 100.91 140.745 101.05 140.913 101.143C141.08 101.235 141.309 101.282 141.6 101.282C141.817 101.282 142.012 101.263 142.186 101.226C142.359 101.189 142.526 101.139 142.687 101.077L142.855 101.635C142.65 101.709 142.433 101.771 142.204 101.821C141.981 101.877 141.727 101.904 141.442 101.904ZM145.639 101.904C145.36 101.904 145.103 101.855 144.867 101.756C144.632 101.65 144.446 101.502 144.31 101.31C144.174 101.118 144.105 100.889 144.105 100.622C144.105 100.114 144.359 99.7304 144.867 99.4702C145.375 99.2039 146.212 99.0242 147.376 98.9313C147.37 98.7269 147.327 98.5379 147.246 98.3645C147.172 98.191 147.048 98.0547 146.874 97.9556C146.701 97.8503 146.469 97.7976 146.178 97.7976C145.986 97.7976 145.793 97.8255 145.601 97.8813C145.416 97.9308 145.236 97.999 145.062 98.0857C144.895 98.1662 144.74 98.2499 144.598 98.3366L144.301 97.8162C144.449 97.7171 144.629 97.618 144.839 97.5189C145.056 97.4136 145.289 97.3299 145.536 97.268C145.784 97.1999 146.041 97.1658 146.308 97.1658C146.723 97.1658 147.063 97.2432 147.33 97.3981C147.602 97.553 147.804 97.7698 147.934 98.0485C148.07 98.3211 148.138 98.6463 148.138 99.0242V101.793H147.516L147.451 101.18H147.423C147.175 101.378 146.896 101.548 146.586 101.691C146.277 101.833 145.961 101.904 145.639 101.904ZM145.843 101.291C146.103 101.291 146.36 101.232 146.614 101.115C146.868 100.997 147.122 100.833 147.376 100.622V99.4331C146.732 99.4888 146.224 99.5663 145.852 99.6654C145.487 99.7645 145.227 99.8915 145.072 100.046C144.923 100.195 144.849 100.368 144.849 100.566C144.849 100.734 144.895 100.873 144.988 100.985C145.081 101.09 145.202 101.167 145.351 101.217C145.505 101.266 145.67 101.291 145.843 101.291ZM150.16 101.793V95.6976H153.905V96.3481H150.941V98.4109H153.45V99.0614H150.941V101.793H150.16ZM155.853 101.793V97.2773H156.485L156.55 98.3459H156.577C156.813 97.9804 157.104 97.6923 157.451 97.4817C157.798 97.2711 158.179 97.1658 158.594 97.1658C158.761 97.1658 158.916 97.1813 159.058 97.2122C159.207 97.237 159.35 97.2835 159.486 97.3516L159.309 98.0114C159.155 97.9556 159.021 97.9153 158.91 97.8906C158.798 97.8658 158.653 97.8534 158.473 97.8534C158.132 97.8534 157.804 97.9525 157.488 98.1508C157.178 98.3428 156.887 98.6742 156.615 99.145V101.793H155.853ZM162.354 101.904C162.075 101.904 161.818 101.855 161.582 101.756C161.347 101.65 161.161 101.502 161.025 101.31C160.889 101.118 160.82 100.889 160.82 100.622C160.82 100.114 161.074 99.7304 161.582 99.4702C162.09 99.2039 162.927 99.0242 164.091 98.9313C164.085 98.7269 164.042 98.5379 163.961 98.3645C163.887 98.191 163.763 98.0547 163.589 97.9556C163.416 97.8503 163.184 97.7976 162.893 97.7976C162.7 97.7976 162.508 97.8255 162.316 97.8813C162.131 97.9308 161.951 97.999 161.777 98.0857C161.61 98.1662 161.455 98.2499 161.313 98.3366L161.016 97.8162C161.164 97.7171 161.344 97.618 161.554 97.5189C161.771 97.4136 162.004 97.3299 162.251 97.268C162.499 97.1999 162.756 97.1658 163.023 97.1658C163.438 97.1658 163.778 97.2432 164.045 97.3981C164.317 97.553 164.519 97.7698 164.649 98.0485C164.785 98.3211 164.853 98.6463 164.853 99.0242V101.793H164.231L164.166 101.18H164.138C163.89 101.378 163.611 101.548 163.301 101.691C162.992 101.833 162.676 101.904 162.354 101.904ZM162.558 101.291C162.818 101.291 163.075 101.232 163.329 101.115C163.583 100.997 163.837 100.833 164.091 100.622V99.4331C163.447 99.4888 162.939 99.5663 162.567 99.6654C162.202 99.7645 161.942 99.8915 161.787 100.046C161.638 100.195 161.564 100.368 161.564 100.566C161.564 100.734 161.61 100.873 161.703 100.985C161.796 101.09 161.917 101.167 162.066 101.217C162.22 101.266 162.385 101.291 162.558 101.291ZM166.178 101.793V97.2773H166.792L166.857 97.872H166.875C166.993 97.6614 167.129 97.491 167.284 97.3609C167.439 97.2308 167.646 97.1658 167.907 97.1658C168.13 97.1658 168.312 97.2308 168.455 97.3609C168.597 97.491 168.7 97.6861 168.762 97.9463C168.892 97.7047 169.034 97.5158 169.189 97.3795C169.35 97.237 169.561 97.1658 169.821 97.1658C170.137 97.1658 170.381 97.2866 170.555 97.5282C170.735 97.7636 170.824 98.1074 170.824 98.5596V101.793H170.062V98.6154C170.062 98.0888 169.901 97.8255 169.579 97.8255C169.424 97.8255 169.294 97.8844 169.189 98.0021C169.09 98.1136 168.978 98.287 168.854 98.5224V101.793H168.148V98.6154C168.148 98.3552 168.111 98.16 168.037 98.03C167.969 97.8937 167.851 97.8255 167.684 97.8255C167.529 97.8255 167.392 97.8844 167.275 98.0021C167.163 98.1136 167.052 98.287 166.94 98.5224V101.793H166.178ZM174.277 101.904C173.825 101.904 173.413 101.812 173.042 101.626C172.676 101.44 172.385 101.17 172.168 100.817C171.951 100.458 171.843 100.027 171.843 99.526C171.843 99.0366 171.951 98.6154 172.168 98.2623C172.385 97.9092 172.667 97.6397 173.014 97.4538C173.367 97.2618 173.745 97.1658 174.147 97.1658C174.581 97.1658 174.95 97.2556 175.253 97.4353C175.563 97.6087 175.798 97.8534 175.959 98.1693C176.127 98.4853 176.21 98.857 176.21 99.2844C176.21 99.3711 176.207 99.4547 176.201 99.5353C176.195 99.6158 176.185 99.6871 176.173 99.749H172.354V99.1543H175.718L175.523 99.368C175.523 98.8353 175.399 98.4357 175.151 98.1693C174.909 97.903 174.581 97.7698 174.166 97.7698C173.887 97.7698 173.627 97.8379 173.385 97.9742C173.15 98.1105 172.961 98.3087 172.819 98.5689C172.676 98.8291 172.605 99.1481 172.605 99.526C172.605 99.9163 172.682 100.241 172.837 100.501C172.992 100.762 173.203 100.96 173.469 101.096C173.735 101.226 174.036 101.291 174.37 101.291C174.643 101.291 174.888 101.254 175.104 101.18C175.327 101.099 175.541 100.994 175.746 100.864L176.024 101.366C175.801 101.514 175.544 101.641 175.253 101.747C174.968 101.852 174.643 101.904 174.277 101.904ZM179.663 101.904C179.223 101.904 178.811 101.833 178.427 101.691C178.043 101.548 177.715 101.384 177.442 101.198L177.795 100.696C178.056 100.882 178.344 101.031 178.66 101.143C178.976 101.254 179.341 101.31 179.756 101.31C180.14 101.31 180.425 101.239 180.611 101.096C180.803 100.954 180.899 100.789 180.899 100.604C180.899 100.517 180.88 100.436 180.843 100.362C180.812 100.288 180.747 100.216 180.648 100.148C180.555 100.08 180.416 100.015 180.23 99.9534C180.044 99.8915 179.796 99.8295 179.487 99.7676C178.898 99.6437 178.455 99.4764 178.158 99.2658C177.867 99.0552 177.721 98.7826 177.721 98.4481C177.721 98.0826 177.879 97.7791 178.195 97.5375C178.511 97.2897 178.979 97.1658 179.598 97.1658C179.945 97.1658 180.28 97.2246 180.602 97.3423C180.924 97.4538 181.196 97.587 181.419 97.7419L181.048 98.2344C180.843 98.0857 180.611 97.9711 180.351 97.8906C180.091 97.8038 179.818 97.7605 179.533 97.7605C179.273 97.7605 179.065 97.7915 178.911 97.8534C178.762 97.9092 178.653 97.9866 178.585 98.0857C178.523 98.1848 178.492 98.2932 178.492 98.4109C178.492 98.603 178.595 98.7547 178.799 98.8662C179.01 98.9716 179.344 99.0707 179.803 99.1636C180.304 99.2689 180.688 99.3866 180.955 99.5167C181.227 99.6468 181.413 99.7955 181.512 99.9627C181.618 100.13 181.67 100.328 181.67 100.557C181.67 100.805 181.593 101.031 181.438 101.235C181.283 101.434 181.057 101.595 180.76 101.719C180.462 101.843 180.097 101.904 179.663 101.904ZM184.399 103.772L184.185 103.289C184.581 103.116 184.876 102.896 185.068 102.629C185.26 102.369 185.356 102.047 185.356 101.663L185.179 100.808L185.699 101.542C185.625 101.629 185.542 101.688 185.449 101.719C185.362 101.743 185.272 101.756 185.179 101.756C185.049 101.756 184.928 101.731 184.817 101.681C184.705 101.626 184.615 101.548 184.547 101.449C184.485 101.344 184.454 101.214 184.454 101.059C184.454 100.83 184.529 100.656 184.677 100.539C184.826 100.415 184.999 100.353 185.198 100.353C185.47 100.353 185.678 100.461 185.82 100.678C185.963 100.889 186.034 101.177 186.034 101.542C186.034 102.087 185.888 102.546 185.597 102.917C185.306 103.295 184.907 103.58 184.399 103.772ZM196.759 101.904C196.381 101.904 196.031 101.833 195.709 101.691C195.387 101.548 195.105 101.344 194.864 101.077C194.622 100.805 194.433 100.473 194.297 100.083C194.167 99.6871 194.102 99.241 194.102 98.7454C194.102 98.095 194.219 97.5344 194.455 97.0636C194.69 96.5866 195.012 96.2211 195.421 95.9671C195.83 95.7131 196.301 95.5861 196.833 95.5861C197.199 95.5861 197.524 95.6636 197.809 95.8184C198.094 95.9671 198.323 96.1375 198.497 96.3295L198.06 96.822C197.905 96.6485 197.726 96.5122 197.521 96.4131C197.317 96.314 197.087 96.2644 196.833 96.2644C196.443 96.2644 196.103 96.3667 195.811 96.5711C195.526 96.7693 195.303 97.0512 195.142 97.4167C194.981 97.7822 194.901 98.2189 194.901 98.7269C194.901 99.241 194.981 99.684 195.142 100.055C195.303 100.427 195.526 100.715 195.811 100.92C196.103 101.124 196.443 101.226 196.833 101.226C197.112 101.226 197.363 101.167 197.586 101.05C197.809 100.932 198.017 100.765 198.209 100.548L198.645 101.022C198.41 101.3 198.137 101.517 197.828 101.672C197.518 101.827 197.162 101.904 196.759 101.904ZM201.903 101.904C201.457 101.904 201.045 101.824 200.668 101.663C200.296 101.496 199.971 101.276 199.692 101.003L200.156 100.464C200.386 100.693 200.652 100.879 200.956 101.022C201.265 101.158 201.594 101.226 201.941 101.226C202.362 101.226 202.687 101.136 202.916 100.957C203.152 100.777 203.269 100.545 203.269 100.26C203.269 100.043 203.22 99.8698 203.121 99.7397C203.028 99.6096 202.898 99.5012 202.73 99.4145C202.569 99.3278 202.383 99.241 202.173 99.1543L201.299 98.7733C201.095 98.6866 200.891 98.5782 200.686 98.4481C200.488 98.318 200.321 98.1538 200.184 97.9556C200.048 97.7512 199.98 97.5003 199.98 97.203C199.98 96.8932 200.064 96.6175 200.231 96.376C200.404 96.1282 200.643 95.9361 200.946 95.7998C201.25 95.6574 201.594 95.5861 201.978 95.5861C202.362 95.5861 202.715 95.6574 203.037 95.7998C203.359 95.9361 203.632 96.1158 203.855 96.3388L203.446 96.8406C203.248 96.6609 203.028 96.5215 202.786 96.4224C202.545 96.3171 202.266 96.2644 201.95 96.2644C201.597 96.2644 201.312 96.345 201.095 96.506C200.878 96.6609 200.77 96.8777 200.77 97.1565C200.77 97.3485 200.822 97.5065 200.928 97.6304C201.039 97.7543 201.179 97.8565 201.346 97.937C201.513 98.0176 201.683 98.095 201.857 98.1693L202.712 98.541C202.966 98.6401 203.195 98.7609 203.399 98.9034C203.604 99.0397 203.765 99.2101 203.883 99.4145C204 99.6189 204.059 99.8698 204.059 100.167C204.059 100.489 203.972 100.783 203.799 101.05C203.626 101.31 203.378 101.517 203.056 101.672C202.733 101.827 202.349 101.904 201.903 101.904ZM206.983 101.793L205.04 95.6976H205.858L206.843 98.987C206.955 99.3463 207.051 99.684 207.131 99.9999C207.218 100.309 207.317 100.644 207.429 101.003H207.466C207.583 100.644 207.683 100.309 207.763 99.9999C207.85 99.684 207.946 99.3463 208.051 98.987L209.027 95.6976H209.817L207.884 101.793H206.983ZM95.7259 114.904C95.1374 114.904 94.6635 114.7 94.3042 114.291C93.9449 113.876 93.7653 113.294 93.7653 112.544C93.7653 112.055 93.8613 111.634 94.0534 111.281C94.2516 110.921 94.5056 110.646 94.8153 110.454C95.1312 110.262 95.4658 110.165 95.8189 110.165C96.0852 110.165 96.3268 110.218 96.5436 110.323C96.7667 110.423 96.9742 110.565 97.1662 110.751H97.1941L97.1569 109.915V108.177H97.9189V114.793H97.287L97.222 114.198H97.1941C97.0144 114.39 96.7945 114.558 96.5344 114.7C96.2804 114.836 96.0109 114.904 95.7259 114.904ZM95.8839 114.263C96.1069 114.263 96.3237 114.208 96.5344 114.096C96.745 113.978 96.9525 113.808 97.1569 113.585V111.336C96.9525 111.144 96.7512 111.008 96.5529 110.927C96.3609 110.847 96.1658 110.807 95.9675 110.807C95.7074 110.807 95.4689 110.881 95.252 111.03C95.0414 111.172 94.8711 111.373 94.741 111.634C94.6171 111.888 94.5551 112.188 94.5551 112.535C94.5551 113.074 94.6728 113.498 94.9082 113.808C95.1436 114.112 95.4689 114.263 95.8839 114.263ZM101.028 114.793V109.896C101.028 109.531 101.093 109.211 101.223 108.939C101.36 108.66 101.561 108.446 101.827 108.298C102.094 108.143 102.434 108.065 102.849 108.065C103.072 108.065 103.289 108.087 103.5 108.131C103.717 108.168 103.934 108.233 104.15 108.326L103.974 108.902C103.788 108.815 103.615 108.759 103.453 108.734C103.299 108.704 103.122 108.688 102.924 108.688C102.521 108.688 102.23 108.793 102.05 109.004C101.871 109.215 101.781 109.503 101.781 109.868V114.793H101.028ZM99.7365 110.9V110.323L101.056 110.277H103.676V110.9H99.7365ZM110.713 111.02V110.444H114.708V111.02H110.713ZM110.713 113.009V112.433H114.708V113.009H110.713ZM121.875 114.793V108.697H123.38C123.993 108.697 124.507 108.815 124.922 109.05C125.344 109.28 125.663 109.62 125.879 110.073C126.096 110.525 126.205 111.073 126.205 111.717C126.205 112.368 126.096 112.922 125.879 113.381C125.669 113.839 125.356 114.189 124.941 114.431C124.526 114.672 124.018 114.793 123.417 114.793H121.875ZM122.646 114.161H123.324C123.789 114.161 124.173 114.065 124.476 113.873C124.786 113.675 125.018 113.396 125.173 113.037C125.328 112.671 125.406 112.231 125.406 111.717C125.406 111.209 125.328 110.776 125.173 110.416C125.018 110.057 124.786 109.788 124.476 109.608C124.173 109.422 123.789 109.329 123.324 109.329H122.646V114.161ZM128.924 114.904C128.645 114.904 128.388 114.855 128.152 114.756C127.917 114.65 127.731 114.502 127.595 114.31C127.459 114.118 127.39 113.889 127.39 113.622C127.39 113.114 127.644 112.73 128.152 112.47C128.66 112.204 129.497 112.024 130.661 111.931C130.655 111.727 130.612 111.538 130.531 111.364C130.457 111.191 130.333 111.054 130.16 110.955C129.986 110.85 129.754 110.797 129.463 110.797C129.271 110.797 129.079 110.825 128.886 110.881C128.701 110.931 128.521 110.999 128.348 111.085C128.18 111.166 128.025 111.25 127.883 111.336L127.586 110.816C127.734 110.717 127.914 110.618 128.125 110.519C128.341 110.413 128.574 110.33 128.821 110.268C129.069 110.2 129.326 110.165 129.593 110.165C130.008 110.165 130.348 110.243 130.615 110.398C130.887 110.553 131.089 110.769 131.219 111.048C131.355 111.321 131.423 111.646 131.423 112.024V114.793H130.801L130.736 114.18H130.708C130.46 114.378 130.181 114.548 129.871 114.691C129.562 114.833 129.246 114.904 128.924 114.904ZM129.128 114.291C129.388 114.291 129.645 114.232 129.899 114.115C130.153 113.997 130.407 113.833 130.661 113.622V112.433C130.017 112.489 129.509 112.566 129.137 112.665C128.772 112.764 128.512 112.891 128.357 113.046C128.208 113.195 128.134 113.368 128.134 113.566C128.134 113.734 128.18 113.873 128.273 113.985C128.366 114.09 128.487 114.167 128.636 114.217C128.79 114.266 128.955 114.291 129.128 114.291ZM135.871 114.904C135.431 114.904 135.084 114.827 134.83 114.672C134.576 114.511 134.393 114.291 134.282 114.012C134.176 113.734 134.124 113.408 134.124 113.037V110.9H132.851V110.323L134.151 110.277L134.254 108.827H134.886V110.277H137.106V110.9H134.886V113.046C134.886 113.312 134.92 113.539 134.988 113.724C135.056 113.91 135.174 114.05 135.341 114.143C135.508 114.235 135.737 114.282 136.029 114.282C136.245 114.282 136.44 114.263 136.614 114.226C136.787 114.189 136.955 114.139 137.116 114.077L137.283 114.635C137.079 114.709 136.862 114.771 136.632 114.821C136.409 114.877 136.155 114.904 135.871 114.904ZM140.067 114.904C139.788 114.904 139.531 114.855 139.296 114.756C139.06 114.65 138.874 114.502 138.738 114.31C138.602 114.118 138.534 113.889 138.534 113.622C138.534 113.114 138.788 112.73 139.296 112.47C139.804 112.204 140.64 112.024 141.805 111.931C141.798 111.727 141.755 111.538 141.674 111.364C141.6 111.191 141.476 111.054 141.303 110.955C141.129 110.85 140.897 110.797 140.606 110.797C140.414 110.797 140.222 110.825 140.03 110.881C139.844 110.931 139.664 110.999 139.491 111.085C139.324 111.166 139.169 111.25 139.026 111.336L138.729 110.816C138.878 110.717 139.057 110.618 139.268 110.519C139.485 110.413 139.717 110.33 139.965 110.268C140.213 110.2 140.47 110.165 140.736 110.165C141.151 110.165 141.492 110.243 141.758 110.398C142.031 110.553 142.232 110.769 142.362 111.048C142.498 111.321 142.567 111.646 142.567 112.024V114.793H141.944L141.879 114.18H141.851C141.603 114.378 141.324 114.548 141.015 114.691C140.705 114.833 140.389 114.904 140.067 114.904ZM140.271 114.291C140.532 114.291 140.789 114.232 141.043 114.115C141.297 113.997 141.551 113.833 141.805 113.622V112.433C141.16 112.489 140.652 112.566 140.281 112.665C139.915 112.764 139.655 112.891 139.5 113.046C139.351 113.195 139.277 113.368 139.277 113.566C139.277 113.734 139.324 113.873 139.417 113.985C139.509 114.09 139.63 114.167 139.779 114.217C139.934 114.266 140.098 114.291 140.271 114.291ZM144.589 114.793V108.697H148.333V109.348H145.369V111.411H147.878V112.061H145.369V114.793H144.589ZM150.281 114.793V110.277H150.913L150.978 111.346H151.006C151.241 110.98 151.532 110.692 151.879 110.481C152.226 110.271 152.607 110.165 153.022 110.165C153.189 110.165 153.344 110.181 153.487 110.212C153.636 110.237 153.778 110.283 153.914 110.351L153.738 111.011C153.583 110.955 153.45 110.915 153.338 110.89C153.227 110.865 153.081 110.853 152.901 110.853C152.561 110.853 152.232 110.952 151.916 111.15C151.607 111.342 151.316 111.674 151.043 112.145V114.793H150.281ZM156.782 114.904C156.503 114.904 156.246 114.855 156.011 114.756C155.775 114.65 155.589 114.502 155.453 114.31C155.317 114.118 155.249 113.889 155.249 113.622C155.249 113.114 155.503 112.73 156.011 112.47C156.519 112.204 157.355 112.024 158.52 111.931C158.513 111.727 158.47 111.538 158.389 111.364C158.315 111.191 158.191 111.054 158.018 110.955C157.844 110.85 157.612 110.797 157.321 110.797C157.129 110.797 156.937 110.825 156.745 110.881C156.559 110.931 156.379 110.999 156.206 111.085C156.039 111.166 155.884 111.25 155.741 111.336L155.444 110.816C155.593 110.717 155.772 110.618 155.983 110.519C156.2 110.413 156.432 110.33 156.68 110.268C156.927 110.2 157.185 110.165 157.451 110.165C157.866 110.165 158.207 110.243 158.473 110.398C158.746 110.553 158.947 110.769 159.077 111.048C159.213 111.321 159.281 111.646 159.281 112.024V114.793H158.659L158.594 114.18H158.566C158.318 114.378 158.039 114.548 157.73 114.691C157.42 114.833 157.104 114.904 156.782 114.904ZM156.986 114.291C157.247 114.291 157.504 114.232 157.758 114.115C158.012 113.997 158.266 113.833 158.52 113.622V112.433C157.875 112.489 157.367 112.566 156.996 112.665C156.63 112.764 156.37 112.891 156.215 113.046C156.066 113.195 155.992 113.368 155.992 113.566C155.992 113.734 156.039 113.873 156.131 113.985C156.224 114.09 156.345 114.167 156.494 114.217C156.649 114.266 156.813 114.291 156.986 114.291ZM160.607 114.793V110.277H161.22L161.285 110.872H161.304C161.421 110.661 161.558 110.491 161.712 110.361C161.867 110.231 162.075 110.165 162.335 110.165C162.558 110.165 162.741 110.231 162.883 110.361C163.026 110.491 163.128 110.686 163.19 110.946C163.32 110.704 163.462 110.515 163.617 110.379C163.778 110.237 163.989 110.165 164.249 110.165C164.565 110.165 164.81 110.286 164.983 110.528C165.163 110.763 165.253 111.107 165.253 111.559V114.793H164.491V111.615C164.491 111.089 164.33 110.825 164.008 110.825C163.853 110.825 163.723 110.884 163.617 111.002C163.518 111.113 163.407 111.287 163.283 111.522V114.793H162.577V111.615C162.577 111.355 162.539 111.16 162.465 111.03C162.397 110.893 162.279 110.825 162.112 110.825C161.957 110.825 161.821 110.884 161.703 111.002C161.592 111.113 161.48 111.287 161.369 111.522V114.793H160.607ZM168.706 114.904C168.254 114.904 167.842 114.812 167.47 114.626C167.104 114.44 166.813 114.17 166.596 113.817C166.38 113.458 166.271 113.027 166.271 112.526C166.271 112.036 166.38 111.615 166.596 111.262C166.813 110.909 167.095 110.639 167.442 110.454C167.795 110.262 168.173 110.165 168.576 110.165C169.009 110.165 169.378 110.255 169.681 110.435C169.991 110.608 170.227 110.853 170.388 111.169C170.555 111.485 170.639 111.857 170.639 112.284C170.639 112.371 170.635 112.454 170.629 112.535C170.623 112.616 170.614 112.687 170.601 112.749H166.782V112.154H170.146L169.951 112.368C169.951 111.835 169.827 111.435 169.579 111.169C169.338 110.903 169.009 110.769 168.594 110.769C168.315 110.769 168.055 110.838 167.814 110.974C167.578 111.11 167.389 111.308 167.247 111.569C167.104 111.829 167.033 112.148 167.033 112.526C167.033 112.916 167.111 113.241 167.265 113.501C167.42 113.762 167.631 113.96 167.897 114.096C168.164 114.226 168.464 114.291 168.799 114.291C169.071 114.291 169.316 114.254 169.533 114.18C169.756 114.099 169.969 113.994 170.174 113.864L170.453 114.366C170.23 114.514 169.973 114.641 169.681 114.747C169.396 114.852 169.071 114.904 168.706 114.904ZM175.235 116.428C174.59 115.92 174.079 115.316 173.701 114.616C173.33 113.91 173.144 113.108 173.144 112.21C173.144 111.312 173.33 110.509 173.701 109.803C174.079 109.097 174.59 108.493 175.235 107.991L175.653 108.381C175.033 108.902 174.575 109.475 174.277 110.1C173.98 110.726 173.831 111.429 173.831 112.21C173.831 112.99 173.98 113.693 174.277 114.319C174.575 114.939 175.033 115.512 175.653 116.038L175.235 116.428ZM177.545 114.793V108.697H178.399L180.351 112.526L180.936 113.789H180.955C180.942 113.486 180.921 113.17 180.89 112.842C180.865 112.507 180.853 112.179 180.853 111.857V108.697H181.596V114.793H180.741L178.79 110.965L178.204 109.701H178.186C178.198 110.011 178.217 110.327 178.242 110.649C178.272 110.971 178.288 111.29 178.288 111.606V114.793H177.545ZM184.64 114.904C184.361 114.904 184.104 114.855 183.869 114.756C183.634 114.65 183.448 114.502 183.311 114.31C183.175 114.118 183.107 113.889 183.107 113.622C183.107 113.114 183.361 112.73 183.869 112.47C184.377 112.204 185.213 112.024 186.378 111.931C186.372 111.727 186.328 111.538 186.248 111.364C186.173 111.191 186.049 111.054 185.876 110.955C185.703 110.85 185.47 110.797 185.179 110.797C184.987 110.797 184.795 110.825 184.603 110.881C184.417 110.931 184.238 110.999 184.064 111.085C183.897 111.166 183.742 111.25 183.599 111.336L183.302 110.816C183.451 110.717 183.63 110.618 183.841 110.519C184.058 110.413 184.29 110.33 184.538 110.268C184.786 110.2 185.043 110.165 185.309 110.165C185.724 110.165 186.065 110.243 186.331 110.398C186.604 110.553 186.805 110.769 186.935 111.048C187.072 111.321 187.14 111.646 187.14 112.024V114.793H186.517L186.452 114.18H186.424C186.176 114.378 185.898 114.548 185.588 114.691C185.278 114.833 184.962 114.904 184.64 114.904ZM184.845 114.291C185.105 114.291 185.362 114.232 185.616 114.115C185.87 113.997 186.124 113.833 186.378 113.622V112.433C185.734 112.489 185.226 112.566 184.854 112.665C184.488 112.764 184.228 112.891 184.073 113.046C183.925 113.195 183.85 113.368 183.85 113.566C183.85 113.734 183.897 113.873 183.99 113.985C184.083 114.09 184.203 114.167 184.352 114.217C184.507 114.266 184.671 114.291 184.845 114.291ZM188.465 114.793V110.277H189.078L189.143 110.872H189.162C189.28 110.661 189.416 110.491 189.571 110.361C189.726 110.231 189.933 110.165 190.193 110.165C190.416 110.165 190.599 110.231 190.741 110.361C190.884 110.491 190.986 110.686 191.048 110.946C191.178 110.704 191.321 110.515 191.476 110.379C191.637 110.237 191.847 110.165 192.107 110.165C192.423 110.165 192.668 110.286 192.842 110.528C193.021 110.763 193.111 111.107 193.111 111.559V114.793H192.349V111.615C192.349 111.089 192.188 110.825 191.866 110.825C191.711 110.825 191.581 110.884 191.476 111.002C191.376 111.113 191.265 111.287 191.141 111.522V114.793H190.435V111.615C190.435 111.355 190.398 111.16 190.323 111.03C190.255 110.893 190.137 110.825 189.97 110.825C189.815 110.825 189.679 110.884 189.561 111.002C189.45 111.113 189.338 111.287 189.227 111.522V114.793H188.465ZM196.564 114.904C196.112 114.904 195.7 114.812 195.328 114.626C194.963 114.44 194.672 114.17 194.455 113.817C194.238 113.458 194.129 113.027 194.129 112.526C194.129 112.036 194.238 111.615 194.455 111.262C194.672 110.909 194.953 110.639 195.3 110.454C195.653 110.262 196.031 110.165 196.434 110.165C196.868 110.165 197.236 110.255 197.54 110.435C197.849 110.608 198.085 110.853 198.246 111.169C198.413 111.485 198.497 111.857 198.497 112.284C198.497 112.371 198.494 112.454 198.487 112.535C198.481 112.616 198.472 112.687 198.46 112.749H194.641V112.154H198.004L197.809 112.368C197.809 111.835 197.685 111.435 197.437 111.169C197.196 110.903 196.868 110.769 196.453 110.769C196.174 110.769 195.914 110.838 195.672 110.974C195.437 111.11 195.248 111.308 195.105 111.569C194.963 111.829 194.891 112.148 194.891 112.526C194.891 112.916 194.969 113.241 195.124 113.501C195.279 113.762 195.489 113.96 195.756 114.096C196.022 114.226 196.322 114.291 196.657 114.291C196.93 114.291 197.174 114.254 197.391 114.18C197.614 114.099 197.828 113.994 198.032 113.864L198.311 114.366C198.088 114.514 197.831 114.641 197.54 114.747C197.255 114.852 196.93 114.904 196.564 114.904ZM205.431 111.02V110.444H209.426V111.02H205.431ZM205.431 113.009V112.433H209.426V113.009H205.431ZM217.875 116.205V108.214H220.449V108.651H218.488V115.769H220.449V116.205H217.875ZM222.815 111.522L222.582 109.431L222.564 108.409H223.586L223.567 109.431L223.335 111.522H222.815ZM224.952 111.522L224.72 109.431L224.701 108.409H225.723L225.705 109.431L225.472 111.522H224.952ZM227.225 114.793L229.278 108.697H230.152L232.205 114.793H231.388L230.328 111.383C230.223 111.042 230.118 110.704 230.013 110.37C229.913 110.029 229.817 109.682 229.724 109.329H229.687C229.588 109.682 229.489 110.029 229.39 110.37C229.291 110.704 229.189 111.042 229.083 111.383L228.015 114.793H227.225ZM228.303 112.935V112.312H231.1V112.935H228.303ZM236.272 114.904C235.795 114.904 235.429 114.768 235.175 114.496C234.921 114.217 234.794 113.811 234.794 113.278V108.8H233.252V108.177H235.556V113.334C235.556 113.662 235.637 113.901 235.798 114.05C235.959 114.198 236.173 114.273 236.439 114.273C236.569 114.273 236.702 114.257 236.839 114.226C236.975 114.189 237.127 114.133 237.294 114.059L237.489 114.635C237.285 114.709 237.093 114.771 236.913 114.821C236.733 114.877 236.52 114.904 236.272 114.904ZM241.007 114.793V110.9H238.907V110.277H241.769V114.793H241.007ZM241.305 109.329C241.131 109.329 240.985 109.277 240.868 109.171C240.75 109.06 240.691 108.914 240.691 108.734C240.691 108.555 240.75 108.412 240.868 108.307C240.985 108.196 241.131 108.14 241.305 108.14C241.478 108.14 241.624 108.196 241.741 108.307C241.859 108.412 241.918 108.555 241.918 108.734C241.918 108.914 241.859 109.06 241.741 109.171C241.624 109.277 241.478 109.329 241.305 109.329ZM246.858 114.904C246.387 114.904 245.962 114.812 245.585 114.626C245.213 114.44 244.919 114.17 244.702 113.817C244.491 113.464 244.386 113.04 244.386 112.544C244.386 112.036 244.5 111.606 244.73 111.253C244.959 110.9 245.262 110.63 245.64 110.444C246.024 110.258 246.446 110.165 246.904 110.165C247.276 110.165 247.595 110.231 247.861 110.361C248.134 110.491 248.363 110.646 248.549 110.825L248.168 111.318C247.982 111.157 247.79 111.03 247.592 110.937C247.393 110.844 247.174 110.797 246.932 110.797C246.585 110.797 246.278 110.872 246.012 111.02C245.746 111.163 245.538 111.367 245.389 111.634C245.247 111.894 245.176 112.197 245.176 112.544C245.176 112.885 245.247 113.185 245.389 113.446C245.532 113.706 245.733 113.91 245.993 114.059C246.26 114.201 246.566 114.273 246.913 114.273C247.192 114.273 247.446 114.217 247.675 114.105C247.911 113.994 248.121 113.861 248.307 113.706L248.651 114.198C248.403 114.421 248.124 114.595 247.815 114.719C247.511 114.843 247.192 114.904 246.858 114.904ZM252.281 114.904C251.828 114.904 251.416 114.812 251.045 114.626C250.679 114.44 250.388 114.17 250.171 113.817C249.954 113.458 249.846 113.027 249.846 112.526C249.846 112.036 249.954 111.615 250.171 111.262C250.388 110.909 250.67 110.639 251.017 110.454C251.37 110.262 251.748 110.165 252.15 110.165C252.584 110.165 252.953 110.255 253.256 110.435C253.566 110.608 253.801 110.853 253.962 111.169C254.13 111.485 254.213 111.857 254.213 112.284C254.213 112.371 254.21 112.454 254.204 112.535C254.198 112.616 254.189 112.687 254.176 112.749H250.357V112.154H253.721L253.526 112.368C253.526 111.835 253.402 111.435 253.154 111.169C252.912 110.903 252.584 110.769 252.169 110.769C251.89 110.769 251.63 110.838 251.389 110.974C251.153 111.11 250.964 111.308 250.822 111.569C250.679 111.829 250.608 112.148 250.608 112.526C250.608 112.916 250.685 113.241 250.84 113.501C250.995 113.762 251.206 113.96 251.472 114.096C251.739 114.226 252.039 114.291 252.373 114.291C252.646 114.291 252.891 114.254 253.108 114.18C253.331 114.099 253.544 113.994 253.749 113.864L254.027 114.366C253.804 114.514 253.547 114.641 253.256 114.747C252.971 114.852 252.646 114.904 252.281 114.904ZM256.245 111.522L256.012 109.431L255.994 108.409H257.016L256.997 109.431L256.765 111.522H256.245ZM258.382 111.522L258.15 109.431L258.131 108.409H259.153L259.135 109.431L258.902 111.522H258.382ZM262.402 116.772L262.188 116.289C262.584 116.116 262.879 115.896 263.071 115.629C263.263 115.369 263.359 115.047 263.359 114.663L263.182 113.808L263.703 114.542C263.628 114.629 263.545 114.688 263.452 114.719C263.365 114.743 263.275 114.756 263.182 114.756C263.052 114.756 262.931 114.731 262.82 114.681C262.708 114.626 262.619 114.548 262.55 114.449C262.488 114.344 262.457 114.214 262.457 114.059C262.457 113.83 262.532 113.656 262.68 113.539C262.829 113.415 263.003 113.353 263.201 113.353C263.473 113.353 263.681 113.461 263.823 113.678C263.966 113.889 264.037 114.177 264.037 114.542C264.037 115.087 263.892 115.546 263.6 115.917C263.309 116.295 262.91 116.58 262.402 116.772ZM272.96 111.522L272.727 109.431L272.709 108.409H273.731L273.712 109.431L273.48 111.522H272.96ZM275.097 111.522L274.865 109.431L274.846 108.409H275.868L275.849 109.431L275.617 111.522H275.097ZM277.992 114.793V108.697H279.721C280.136 108.697 280.498 108.747 280.808 108.846C281.124 108.945 281.368 109.103 281.542 109.32C281.722 109.537 281.811 109.825 281.811 110.184C281.811 110.488 281.725 110.763 281.551 111.011C281.378 111.253 281.108 111.42 280.743 111.513V111.55C281.189 111.618 281.536 111.773 281.784 112.015C282.031 112.256 282.155 112.588 282.155 113.009C282.155 113.405 282.059 113.737 281.867 114.003C281.675 114.27 281.406 114.468 281.059 114.598C280.718 114.728 280.318 114.793 279.86 114.793H277.992ZM278.764 111.262H279.591C280.111 111.262 280.483 111.178 280.706 111.011C280.935 110.844 281.049 110.59 281.049 110.249C281.049 109.921 280.929 109.688 280.687 109.552C280.452 109.416 280.099 109.348 279.628 109.348H278.764V111.262ZM278.764 114.143H279.749C280.269 114.143 280.672 114.053 280.957 113.873C281.248 113.687 281.393 113.387 281.393 112.972C281.393 112.594 281.251 112.324 280.966 112.163C280.687 111.996 280.281 111.912 279.749 111.912H278.764V114.143ZM285.432 114.904C285.035 114.904 284.667 114.812 284.326 114.626C283.991 114.44 283.719 114.17 283.508 113.817C283.304 113.464 283.202 113.04 283.202 112.544C283.202 112.036 283.304 111.606 283.508 111.253C283.719 110.9 283.991 110.63 284.326 110.444C284.667 110.258 285.035 110.165 285.432 110.165C285.828 110.165 286.194 110.258 286.528 110.444C286.869 110.63 287.141 110.9 287.346 111.253C287.557 111.606 287.662 112.036 287.662 112.544C287.662 113.04 287.557 113.464 287.346 113.817C287.141 114.17 286.869 114.44 286.528 114.626C286.194 114.812 285.828 114.904 285.432 114.904ZM285.432 114.273C285.723 114.273 285.977 114.201 286.194 114.059C286.41 113.91 286.578 113.706 286.695 113.446C286.813 113.185 286.872 112.885 286.872 112.544C286.872 112.197 286.813 111.894 286.695 111.634C286.578 111.367 286.41 111.163 286.194 111.02C285.977 110.872 285.723 110.797 285.432 110.797C285.141 110.797 284.887 110.872 284.67 111.02C284.459 111.163 284.292 111.367 284.168 111.634C284.05 111.894 283.991 112.197 283.991 112.544C283.991 112.885 284.05 113.185 284.168 113.446C284.292 113.706 284.459 113.91 284.67 114.059C284.887 114.201 285.141 114.273 285.432 114.273ZM291.189 114.904C290.966 114.904 290.728 114.852 290.474 114.747C290.226 114.635 289.997 114.483 289.786 114.291H289.758L289.693 114.793H289.08V108.177H289.842V109.98L289.814 110.853H289.842C290.046 110.642 290.282 110.475 290.548 110.351C290.821 110.227 291.09 110.165 291.356 110.165C291.765 110.165 292.109 110.262 292.388 110.454C292.667 110.639 292.877 110.906 293.02 111.253C293.162 111.593 293.233 111.996 293.233 112.461C293.233 112.975 293.137 113.415 292.945 113.78C292.76 114.146 292.512 114.424 292.202 114.616C291.892 114.808 291.555 114.904 291.189 114.904ZM291.068 114.263C291.329 114.263 291.561 114.192 291.765 114.05C291.976 113.907 292.14 113.703 292.258 113.436C292.382 113.164 292.444 112.842 292.444 112.47C292.444 112.142 292.4 111.854 292.314 111.606C292.227 111.352 292.091 111.157 291.905 111.02C291.719 110.878 291.474 110.807 291.171 110.807C290.966 110.807 290.749 110.862 290.52 110.974C290.297 111.079 290.071 111.25 289.842 111.485V113.734C290.059 113.926 290.275 114.062 290.492 114.143C290.715 114.223 290.907 114.263 291.068 114.263ZM295.246 111.522L295.014 109.431L294.995 108.409H296.017L295.999 109.431L295.767 111.522H295.246ZM297.383 111.522L297.151 109.431L297.133 108.409H298.155L298.136 109.431L297.904 111.522H297.383ZM301.403 116.772L301.19 116.289C301.586 116.116 301.88 115.896 302.072 115.629C302.264 115.369 302.36 115.047 302.36 114.663L302.184 113.808L302.704 114.542C302.63 114.629 302.546 114.688 302.453 114.719C302.367 114.743 302.277 114.756 302.184 114.756C302.054 114.756 301.933 114.731 301.821 114.681C301.71 114.626 301.62 114.548 301.552 114.449C301.49 114.344 301.459 114.214 301.459 114.059C301.459 113.83 301.533 113.656 301.682 113.539C301.831 113.415 302.004 113.353 302.202 113.353C302.475 113.353 302.683 113.461 302.825 113.678C302.967 113.889 303.039 114.177 303.039 114.542C303.039 115.087 302.893 115.546 302.602 115.917C302.311 116.295 301.911 116.58 301.403 116.772ZM50.0934 125.522L49.8611 123.431L49.8425 122.409H50.8647L50.8461 123.431L50.6138 125.522H50.0934ZM52.2306 125.522L51.9983 123.431L51.9797 122.409H53.0018L52.9833 123.431L52.751 125.522H52.2306ZM57.4677 128.904C57.0899 128.904 56.7399 128.833 56.4177 128.691C56.0956 128.548 55.8137 128.344 55.5721 128.077C55.3305 127.805 55.1416 127.473 55.0053 127.083C54.8752 126.687 54.8102 126.241 54.8102 125.745C54.8102 125.095 54.9279 124.534 55.1633 124.063C55.3987 123.586 55.7208 123.221 56.1297 122.967C56.5385 122.713 57.0093 122.586 57.5421 122.586C57.9076 122.586 58.2328 122.663 58.5177 122.818C58.8027 122.967 59.0319 123.137 59.2054 123.329L58.7686 123.822C58.6138 123.648 58.4341 123.512 58.2297 123.413C58.0253 123.314 57.7961 123.264 57.5421 123.264C57.1518 123.264 56.8111 123.366 56.5199 123.571C56.235 123.769 56.012 124.051 55.8509 124.416C55.6898 124.782 55.6093 125.219 55.6093 125.727C55.6093 126.241 55.6898 126.684 55.8509 127.055C56.012 127.427 56.235 127.715 56.5199 127.92C56.8111 128.124 57.1518 128.226 57.5421 128.226C57.8208 128.226 58.0717 128.167 58.2947 128.05C58.5177 127.932 58.7253 127.765 58.9173 127.548L59.354 128.022C59.1186 128.3 58.8461 128.517 58.5363 128.672C58.2266 128.827 57.8704 128.904 57.4677 128.904ZM60.642 128.793V122.177H61.404V123.98L61.3575 125.048H61.3854C61.6146 124.8 61.8655 124.593 62.1381 124.426C62.4106 124.252 62.7235 124.165 63.0766 124.165C63.6093 124.165 64.0027 124.32 64.2567 124.63C64.5106 124.94 64.6376 125.392 64.6376 125.987V128.793H63.8757V126.089C63.8757 125.662 63.7952 125.346 63.6341 125.141C63.473 124.931 63.2066 124.825 62.835 124.825C62.5686 124.825 62.3301 124.893 62.1195 125.03C61.9088 125.166 61.6703 125.37 61.404 125.643V128.793H60.642ZM67.6354 128.904C67.3566 128.904 67.0995 128.855 66.8641 128.756C66.6287 128.65 66.4429 128.502 66.3066 128.31C66.1703 128.118 66.1022 127.889 66.1022 127.622C66.1022 127.114 66.3562 126.73 66.8641 126.47C67.3721 126.204 68.2084 126.024 69.373 125.931C69.3668 125.727 69.3234 125.538 69.2429 125.364C69.1686 125.191 69.0447 125.054 68.8712 124.955C68.6978 124.85 68.4655 124.797 68.1743 124.797C67.9823 124.797 67.7902 124.825 67.5982 124.881C67.4124 124.931 67.2327 124.999 67.0593 125.085C66.892 125.166 66.7371 125.25 66.5946 125.336L66.2973 124.816C66.446 124.717 66.6256 124.618 66.8362 124.519C67.0531 124.413 67.2854 124.33 67.5332 124.268C67.7809 124.2 68.038 124.165 68.3044 124.165C68.7195 124.165 69.0602 124.243 69.3265 124.398C69.5991 124.553 69.8004 124.769 69.9305 125.048C70.0668 125.321 70.135 125.646 70.135 126.024V128.793H69.5124L69.4473 128.18H69.4195C69.1717 128.378 68.8929 128.548 68.5832 128.691C68.2734 128.833 67.9575 128.904 67.6354 128.904ZM67.8398 128.291C68.1 128.291 68.3571 128.232 68.611 128.115C68.865 127.997 69.119 127.833 69.373 127.622V126.433C68.7287 126.489 68.2208 126.566 67.8491 126.665C67.4836 126.764 67.2234 126.891 67.0685 127.046C66.9199 127.195 66.8455 127.368 66.8455 127.566C66.8455 127.734 66.892 127.873 66.9849 127.985C67.0778 128.09 67.1986 128.167 67.3473 128.217C67.5022 128.266 67.6663 128.291 67.8398 128.291ZM72.2778 128.793V124.277H72.9097L72.9747 125.346H73.0026C73.238 124.98 73.5291 124.692 73.8761 124.481C74.223 124.271 74.6039 124.165 75.019 124.165C75.1862 124.165 75.3411 124.181 75.4836 124.212C75.6323 124.237 75.7747 124.283 75.911 124.351L75.7345 125.011C75.5796 124.955 75.4464 124.915 75.3349 124.89C75.2234 124.865 75.0778 124.853 74.8982 124.853C74.5575 124.853 74.2292 124.952 73.9132 125.15C73.6035 125.342 73.3123 125.674 73.0398 126.145V128.793H72.2778ZM80.2654 128.904C79.7884 128.904 79.4229 128.768 79.1689 128.496C78.915 128.217 78.788 127.811 78.788 127.278V122.8H77.2455V122.177H79.5499V127.334C79.5499 127.662 79.6305 127.901 79.7915 128.05C79.9526 128.198 80.1663 128.273 80.4327 128.273C80.5628 128.273 80.696 128.257 80.8322 128.226C80.9685 128.189 81.1203 128.133 81.2876 128.059L81.4827 128.635C81.2783 128.709 81.0862 128.771 80.9066 128.821C80.7269 128.877 80.5132 128.904 80.2654 128.904ZM85.0008 128.793V124.9H82.9008V124.277H85.7627V128.793H85.0008ZM85.2981 123.329C85.1247 123.329 84.9791 123.277 84.8614 123.171C84.7437 123.06 84.6848 122.914 84.6848 122.734C84.6848 122.555 84.7437 122.412 84.8614 122.307C84.9791 122.196 85.1247 122.14 85.2981 122.14C85.4716 122.14 85.6172 122.196 85.7349 122.307C85.8526 122.412 85.9114 122.555 85.9114 122.734C85.9114 122.914 85.8526 123.06 85.7349 123.171C85.6172 123.277 85.4716 123.329 85.2981 123.329ZM90.7025 128.904C90.2503 128.904 89.8384 128.812 89.4667 128.626C89.1012 128.44 88.81 128.17 88.5932 127.817C88.3764 127.458 88.268 127.027 88.268 126.526C88.268 126.036 88.3764 125.615 88.5932 125.262C88.81 124.909 89.0919 124.639 89.4388 124.454C89.7919 124.262 90.1698 124.165 90.5724 124.165C91.0061 124.165 91.3747 124.255 91.6782 124.435C91.9879 124.608 92.2233 124.853 92.3844 125.169C92.5517 125.485 92.6353 125.857 92.6353 126.284C92.6353 126.371 92.6322 126.454 92.626 126.535C92.6198 126.616 92.6105 126.687 92.5981 126.749H88.779V126.154H92.1428L91.9477 126.368C91.9477 125.835 91.8238 125.435 91.576 125.169C91.3344 124.903 91.0061 124.769 90.591 124.769C90.3123 124.769 90.0521 124.838 89.8105 124.974C89.5751 125.11 89.3861 125.308 89.2437 125.569C89.1012 125.829 89.0299 126.148 89.0299 126.526C89.0299 126.916 89.1074 127.241 89.2622 127.501C89.4171 127.762 89.6277 127.96 89.8941 128.096C90.1605 128.226 90.4609 128.291 90.7954 128.291C91.068 128.291 91.3127 128.254 91.5295 128.18C91.7525 128.099 91.9663 127.994 92.1707 127.864L92.4494 128.366C92.2264 128.514 91.9693 128.641 91.6782 128.747C91.3932 128.852 91.068 128.904 90.7025 128.904ZM94.6666 125.522L94.4343 123.431L94.4157 122.409H95.4379L95.4193 123.431L95.187 125.522H94.6666ZM96.8038 125.522L96.5715 123.431L96.5529 122.409H97.5751L97.5565 123.431L97.3242 125.522H96.8038ZM99.69 130.205V129.769H101.651V122.651H99.69V122.214H102.264V130.205H99.69ZM106.395 130.772L106.182 130.289C106.578 130.116 106.872 129.896 107.064 129.629C107.257 129.369 107.353 129.047 107.353 128.663L107.176 127.808L107.696 128.542C107.622 128.629 107.538 128.688 107.445 128.719C107.359 128.743 107.269 128.756 107.176 128.756C107.046 128.756 106.925 128.731 106.814 128.681C106.702 128.626 106.612 128.548 106.544 128.449C106.482 128.344 106.451 128.214 106.451 128.059C106.451 127.83 106.526 127.656 106.674 127.539C106.823 127.415 106.996 127.353 107.195 127.353C107.467 127.353 107.675 127.461 107.817 127.678C107.96 127.889 108.031 128.177 108.031 128.542C108.031 129.087 107.885 129.546 107.594 129.917C107.303 130.295 106.903 130.58 106.395 130.772ZM115.792 128.793L117.845 122.697H118.719L120.772 128.793H119.955L118.895 125.383C118.79 125.042 118.685 124.704 118.579 124.37C118.48 124.029 118.384 123.682 118.291 123.329H118.254C118.155 123.682 118.056 124.029 117.957 124.37C117.858 124.704 117.756 125.042 117.65 125.383L116.582 128.793H115.792ZM116.87 126.935V126.312H119.667V126.935H116.87ZM123.817 130.874C123.377 130.874 123.002 130.825 122.692 130.726C122.383 130.627 122.144 130.484 121.977 130.298C121.816 130.112 121.735 129.886 121.735 129.62C121.735 129.44 121.797 129.261 121.921 129.081C122.051 128.908 122.237 128.753 122.479 128.616V128.579C122.361 128.511 122.252 128.418 122.153 128.3C122.06 128.183 122.014 128.028 122.014 127.836C122.014 127.693 122.06 127.548 122.153 127.399C122.246 127.244 122.379 127.108 122.553 126.99V126.953C122.398 126.835 122.265 126.677 122.153 126.479C122.048 126.281 121.995 126.049 121.995 125.782C121.995 125.454 122.076 125.169 122.237 124.927C122.404 124.686 122.621 124.5 122.887 124.37C123.16 124.234 123.454 124.165 123.77 124.165C124.024 124.165 124.247 124.203 124.439 124.277H126.307V124.9H125.136C125.241 125.005 125.331 125.138 125.406 125.299C125.48 125.46 125.517 125.631 125.517 125.81C125.517 126.132 125.44 126.411 125.285 126.646C125.13 126.876 124.919 127.052 124.653 127.176C124.393 127.3 124.098 127.362 123.77 127.362C123.652 127.362 123.525 127.35 123.389 127.325C123.259 127.294 123.132 127.25 123.008 127.195C122.897 127.263 122.81 127.34 122.748 127.427C122.686 127.514 122.655 127.61 122.655 127.715C122.655 127.889 122.736 128.019 122.897 128.105C123.064 128.192 123.296 128.235 123.594 128.235H124.606C125.189 128.235 125.619 128.316 125.898 128.477C126.183 128.638 126.325 128.911 126.325 129.295C126.325 129.574 126.223 129.834 126.019 130.075C125.814 130.317 125.523 130.509 125.145 130.651C124.774 130.8 124.331 130.874 123.817 130.874ZM123.77 126.851C123.962 126.851 124.136 126.808 124.291 126.721C124.452 126.634 124.579 126.51 124.671 126.349C124.764 126.188 124.811 125.999 124.811 125.782C124.811 125.572 124.764 125.389 124.671 125.234C124.579 125.073 124.452 124.949 124.291 124.862C124.136 124.769 123.962 124.723 123.77 124.723C123.584 124.723 123.411 124.769 123.25 124.862C123.095 124.949 122.968 125.073 122.869 125.234C122.776 125.389 122.729 125.572 122.729 125.782C122.729 125.999 122.776 126.188 122.869 126.349C122.968 126.51 123.095 126.634 123.25 126.721C123.411 126.808 123.584 126.851 123.77 126.851ZM123.872 130.317C124.225 130.317 124.529 130.274 124.783 130.187C125.037 130.1 125.232 129.989 125.368 129.852C125.505 129.716 125.573 129.57 125.573 129.416C125.573 129.199 125.486 129.053 125.313 128.979C125.145 128.904 124.888 128.867 124.541 128.867H123.659C123.529 128.867 123.405 128.861 123.287 128.849C123.175 128.836 123.07 128.818 122.971 128.793C122.76 128.911 122.612 129.031 122.525 129.155C122.438 129.285 122.395 129.416 122.395 129.546C122.395 129.781 122.519 129.967 122.767 130.103C123.021 130.246 123.389 130.317 123.872 130.317ZM129.704 128.904C129.252 128.904 128.84 128.812 128.468 128.626C128.103 128.44 127.812 128.17 127.595 127.817C127.378 127.458 127.27 127.027 127.27 126.526C127.27 126.036 127.378 125.615 127.595 125.262C127.812 124.909 128.094 124.639 128.44 124.454C128.794 124.262 129.171 124.165 129.574 124.165C130.008 124.165 130.376 124.255 130.68 124.435C130.99 124.608 131.225 124.853 131.386 125.169C131.553 125.485 131.637 125.857 131.637 126.284C131.637 126.371 131.634 126.454 131.628 126.535C131.621 126.616 131.612 126.687 131.6 126.749H127.781V126.154H131.144L130.949 126.368C130.949 125.835 130.825 125.435 130.578 125.169C130.336 124.903 130.008 124.769 129.593 124.769C129.314 124.769 129.054 124.838 128.812 124.974C128.577 125.11 128.388 125.308 128.245 125.569C128.103 125.829 128.032 126.148 128.032 126.526C128.032 126.916 128.109 127.241 128.264 127.501C128.419 127.762 128.629 127.96 128.896 128.096C129.162 128.226 129.463 128.291 129.797 128.291C130.07 128.291 130.314 128.254 130.531 128.18C130.754 128.099 130.968 127.994 131.172 127.864L131.451 128.366C131.228 128.514 130.971 128.641 130.68 128.747C130.395 128.852 130.07 128.904 129.704 128.904ZM138.571 125.02V124.444H142.567V125.02H138.571ZM138.571 127.009V126.433H142.567V127.009H138.571ZM151.015 130.205V122.214H153.589V122.651H151.628V129.769H153.589V130.205H151.015ZM155.174 128.793V128.338C155.843 127.749 156.407 127.232 156.866 126.786C157.33 126.334 157.683 125.928 157.925 125.569C158.166 125.209 158.287 124.865 158.287 124.537C158.287 124.196 158.182 123.918 157.971 123.701C157.761 123.484 157.435 123.376 156.996 123.376C156.717 123.376 156.457 123.444 156.215 123.58C155.98 123.716 155.766 123.887 155.574 124.091L155.137 123.654C155.404 123.382 155.689 123.165 155.992 123.004C156.302 122.837 156.667 122.753 157.089 122.753C157.485 122.753 157.826 122.827 158.111 122.976C158.402 123.119 158.625 123.32 158.78 123.58C158.941 123.84 159.021 124.147 159.021 124.5C159.021 124.872 158.907 125.246 158.678 125.624C158.448 126.002 158.126 126.402 157.711 126.823C157.302 127.238 156.828 127.693 156.289 128.189C156.475 128.17 156.661 128.158 156.847 128.152C157.033 128.139 157.216 128.133 157.395 128.133H159.347V128.793H155.174ZM162.725 128.904C162.372 128.904 162.062 128.867 161.796 128.793C161.53 128.712 161.297 128.61 161.099 128.486C160.907 128.362 160.737 128.232 160.588 128.096L160.969 127.594C161.099 127.712 161.242 127.823 161.396 127.929C161.558 128.028 161.74 128.112 161.945 128.18C162.149 128.242 162.381 128.273 162.642 128.273C162.92 128.273 163.174 128.217 163.404 128.105C163.633 127.994 163.812 127.839 163.943 127.641C164.079 127.436 164.147 127.195 164.147 126.916C164.147 126.507 164.014 126.188 163.747 125.959C163.481 125.73 163.128 125.615 162.688 125.615C162.44 125.615 162.23 125.646 162.056 125.708C161.883 125.77 161.691 125.86 161.48 125.977L161.071 125.717L161.266 122.865H164.621V123.524H161.945L161.787 125.281C161.954 125.206 162.121 125.147 162.289 125.104C162.462 125.061 162.66 125.039 162.883 125.039C163.261 125.039 163.605 125.104 163.915 125.234C164.224 125.364 164.469 125.569 164.649 125.847C164.828 126.12 164.918 126.47 164.918 126.897C164.918 127.325 164.813 127.69 164.602 127.994C164.398 128.291 164.128 128.517 163.794 128.672C163.459 128.827 163.103 128.904 162.725 128.904ZM167.684 130.772L167.47 130.289C167.866 130.116 168.161 129.896 168.353 129.629C168.545 129.369 168.641 129.047 168.641 128.663L168.464 127.808L168.985 128.542C168.91 128.629 168.827 128.688 168.734 128.719C168.647 128.743 168.557 128.756 168.464 128.756C168.334 128.756 168.213 128.731 168.102 128.681C167.99 128.626 167.9 128.548 167.832 128.449C167.77 128.344 167.739 128.214 167.739 128.059C167.739 127.83 167.814 127.656 167.962 127.539C168.111 127.415 168.285 127.353 168.483 127.353C168.755 127.353 168.963 127.461 169.105 127.678C169.248 127.889 169.319 128.177 169.319 128.542C169.319 129.087 169.173 129.546 168.882 129.917C168.591 130.295 168.192 130.58 167.684 130.772ZM179.449 128.904C179.109 128.904 178.805 128.864 178.539 128.784C178.272 128.703 178.037 128.601 177.833 128.477C177.634 128.353 177.461 128.217 177.312 128.068L177.703 127.566C177.901 127.752 178.139 127.916 178.418 128.059C178.697 128.201 179.025 128.273 179.403 128.273C179.676 128.273 179.917 128.229 180.128 128.143C180.345 128.05 180.515 127.923 180.639 127.762C180.763 127.594 180.825 127.402 180.825 127.185C180.825 126.95 180.753 126.746 180.611 126.572C180.469 126.392 180.239 126.253 179.923 126.154C179.607 126.055 179.189 126.005 178.669 126.005V125.42C179.14 125.42 179.518 125.37 179.803 125.271C180.088 125.172 180.292 125.042 180.416 124.881C180.546 124.714 180.611 124.525 180.611 124.314C180.611 124.023 180.5 123.794 180.276 123.627C180.06 123.459 179.769 123.376 179.403 123.376C179.124 123.376 178.858 123.431 178.604 123.543C178.356 123.654 178.136 123.8 177.944 123.98L177.535 123.496C177.783 123.28 178.065 123.103 178.381 122.967C178.703 122.824 179.053 122.753 179.431 122.753C179.803 122.753 180.134 122.812 180.425 122.93C180.723 123.047 180.958 123.218 181.131 123.441C181.305 123.664 181.392 123.936 181.392 124.258C181.392 124.618 181.271 124.912 181.029 125.141C180.794 125.37 180.493 125.547 180.128 125.671V125.708C180.388 125.764 180.63 125.86 180.853 125.996C181.082 126.126 181.261 126.293 181.392 126.498C181.528 126.702 181.596 126.941 181.596 127.213C181.596 127.566 181.497 127.87 181.299 128.124C181.107 128.372 180.85 128.564 180.527 128.7C180.205 128.836 179.846 128.904 179.449 128.904ZM185.142 128.904C184.702 128.904 184.324 128.784 184.008 128.542C183.692 128.294 183.448 127.941 183.274 127.483C183.101 127.024 183.014 126.467 183.014 125.81C183.014 124.813 183.203 124.054 183.581 123.534C183.965 123.013 184.485 122.753 185.142 122.753C185.805 122.753 186.325 123.013 186.703 123.534C187.081 124.054 187.27 124.813 187.27 125.81C187.27 126.467 187.183 127.024 187.01 127.483C186.842 127.941 186.598 128.294 186.276 128.542C185.96 128.784 185.582 128.904 185.142 128.904ZM185.142 128.291C185.421 128.291 185.665 128.204 185.876 128.031C186.087 127.851 186.251 127.579 186.369 127.213C186.492 126.842 186.554 126.374 186.554 125.81C186.554 125.24 186.492 124.776 186.369 124.416C186.251 124.057 186.087 123.794 185.876 123.627C185.665 123.453 185.421 123.366 185.142 123.366C184.869 123.366 184.625 123.453 184.408 123.627C184.197 123.794 184.03 124.057 183.906 124.416C183.788 124.776 183.73 125.24 183.73 125.81C183.73 126.374 183.788 126.842 183.906 127.213C184.03 127.579 184.197 127.851 184.408 128.031C184.625 128.204 184.869 128.291 185.142 128.291ZM185.142 126.368C184.987 126.368 184.851 126.312 184.733 126.2C184.622 126.089 184.566 125.937 184.566 125.745C184.566 125.553 184.622 125.404 184.733 125.299C184.851 125.188 184.987 125.132 185.142 125.132C185.303 125.132 185.439 125.188 185.551 125.299C185.662 125.404 185.718 125.553 185.718 125.745C185.718 125.937 185.662 126.089 185.551 126.2C185.439 126.312 185.303 126.368 185.142 126.368ZM189.97 130.772L189.757 130.289C190.153 130.116 190.447 129.896 190.639 129.629C190.831 129.369 190.927 129.047 190.927 128.663L190.751 127.808L191.271 128.542C191.197 128.629 191.113 128.688 191.02 128.719C190.934 128.743 190.844 128.756 190.751 128.756C190.621 128.756 190.5 128.731 190.388 128.681C190.277 128.626 190.187 128.548 190.119 128.449C190.057 128.344 190.026 128.214 190.026 128.059C190.026 127.83 190.1 127.656 190.249 127.539C190.398 127.415 190.571 127.353 190.769 127.353C191.042 127.353 191.249 127.461 191.392 127.678C191.534 127.889 191.606 128.177 191.606 128.542C191.606 129.087 191.46 129.546 191.169 129.917C190.878 130.295 190.478 130.58 189.97 130.772ZM201.736 128.904C201.395 128.904 201.092 128.864 200.825 128.784C200.559 128.703 200.324 128.601 200.119 128.477C199.921 128.353 199.748 128.217 199.599 128.068L199.989 127.566C200.187 127.752 200.426 127.916 200.705 128.059C200.983 128.201 201.312 128.273 201.69 128.273C201.962 128.273 202.204 128.229 202.414 128.143C202.631 128.05 202.802 127.923 202.926 127.762C203.049 127.594 203.111 127.402 203.111 127.185C203.111 126.95 203.04 126.746 202.898 126.572C202.755 126.392 202.526 126.253 202.21 126.154C201.894 126.055 201.476 126.005 200.956 126.005V125.42C201.426 125.42 201.804 125.37 202.089 125.271C202.374 125.172 202.579 125.042 202.703 124.881C202.833 124.714 202.898 124.525 202.898 124.314C202.898 124.023 202.786 123.794 202.563 123.627C202.346 123.459 202.055 123.376 201.69 123.376C201.411 123.376 201.145 123.431 200.891 123.543C200.643 123.654 200.423 123.8 200.231 123.98L199.822 123.496C200.07 123.28 200.352 123.103 200.668 122.967C200.99 122.824 201.34 122.753 201.718 122.753C202.089 122.753 202.421 122.812 202.712 122.93C203.009 123.047 203.245 123.218 203.418 123.441C203.591 123.664 203.678 123.936 203.678 124.258C203.678 124.618 203.557 124.912 203.316 125.141C203.08 125.37 202.78 125.547 202.414 125.671V125.708C202.675 125.764 202.916 125.86 203.139 125.996C203.368 126.126 203.548 126.293 203.678 126.498C203.814 126.702 203.883 126.941 203.883 127.213C203.883 127.566 203.783 127.87 203.585 128.124C203.393 128.372 203.136 128.564 202.814 128.7C202.492 128.836 202.133 128.904 201.736 128.904ZM207.298 128.904C206.945 128.904 206.636 128.867 206.369 128.793C206.103 128.712 205.871 128.61 205.672 128.486C205.48 128.362 205.31 128.232 205.161 128.096L205.542 127.594C205.672 127.712 205.815 127.823 205.97 127.929C206.131 128.028 206.314 128.112 206.518 128.18C206.722 128.242 206.955 128.273 207.215 128.273C207.494 128.273 207.748 128.217 207.977 128.105C208.206 127.994 208.386 127.839 208.516 127.641C208.652 127.436 208.72 127.195 208.72 126.916C208.72 126.507 208.587 126.188 208.321 125.959C208.054 125.73 207.701 125.615 207.261 125.615C207.014 125.615 206.803 125.646 206.629 125.708C206.456 125.77 206.264 125.86 206.053 125.977L205.644 125.717L205.84 122.865H209.194V123.524H206.518L206.36 125.281C206.527 125.206 206.694 125.147 206.862 125.104C207.035 125.061 207.233 125.039 207.456 125.039C207.834 125.039 208.178 125.104 208.488 125.234C208.798 125.364 209.042 125.569 209.222 125.847C209.402 126.12 209.491 126.47 209.491 126.897C209.491 127.325 209.386 127.69 209.175 127.994C208.971 128.291 208.702 128.517 208.367 128.672C208.033 128.827 207.676 128.904 207.298 128.904ZM211.123 130.205V129.769H213.084V122.651H211.123V122.214H213.697V130.205H211.123ZM217.336 130.428L216.918 130.038C217.537 129.512 217.996 128.939 218.293 128.319C218.59 127.693 218.739 126.99 218.739 126.21C218.739 125.429 218.59 124.726 218.293 124.1C217.996 123.475 217.537 122.902 216.918 122.381L217.336 121.991C217.986 122.493 218.498 123.097 218.869 123.803C219.241 124.509 219.427 125.312 219.427 126.21C219.427 127.108 219.241 127.91 218.869 128.616C218.498 129.316 217.986 129.92 217.336 130.428ZM96.4693 142.904C96.0914 142.904 95.7414 142.833 95.4193 142.691C95.0972 142.548 94.8153 142.344 94.5737 142.077C94.3321 141.805 94.1432 141.473 94.0069 141.083C93.8768 140.687 93.8118 140.241 93.8118 139.745C93.8118 139.095 93.9295 138.534 94.1649 138.063C94.4003 137.586 94.7224 137.221 95.1312 136.967C95.5401 136.713 96.0109 136.586 96.5436 136.586C96.9091 136.586 97.2344 136.663 97.5193 136.818C97.8043 136.967 98.0335 137.137 98.2069 137.329L97.7702 137.822C97.6153 137.648 97.4357 137.512 97.2313 137.413C97.0268 137.314 96.7976 137.264 96.5436 137.264C96.1534 137.264 95.8127 137.366 95.5215 137.571C95.2366 137.769 95.0135 138.051 94.8525 138.416C94.6914 138.782 94.6109 139.219 94.6109 139.727C94.6109 140.241 94.6914 140.684 94.8525 141.055C95.0135 141.427 95.2366 141.715 95.5215 141.92C95.8127 142.124 96.1534 142.226 96.5436 142.226C96.8224 142.226 97.0733 142.167 97.2963 142.05C97.5193 141.932 97.7268 141.765 97.9189 141.548L98.3556 142.022C98.1202 142.3 97.8476 142.517 97.5379 142.672C97.2282 142.827 96.872 142.904 96.4693 142.904ZM101.614 142.904C101.168 142.904 100.756 142.824 100.378 142.663C100.006 142.496 99.6808 142.276 99.402 142.003L99.8666 141.464C100.096 141.693 100.362 141.879 100.666 142.022C100.976 142.158 101.304 142.226 101.651 142.226C102.072 142.226 102.397 142.136 102.626 141.957C102.862 141.777 102.98 141.545 102.98 141.26C102.98 141.043 102.93 140.869 102.831 140.739C102.738 140.609 102.608 140.501 102.441 140.414C102.28 140.327 102.094 140.241 101.883 140.154L101.01 139.773C100.805 139.686 100.601 139.578 100.396 139.448C100.198 139.318 100.031 139.154 99.8945 138.955C99.7582 138.751 99.69 138.5 99.69 138.203C99.69 137.893 99.7737 137.617 99.9409 137.376C100.114 137.128 100.353 136.936 100.657 136.8C100.96 136.657 101.304 136.586 101.688 136.586C102.072 136.586 102.425 136.657 102.747 136.8C103.069 136.936 103.342 137.115 103.565 137.338L103.156 137.84C102.958 137.661 102.738 137.521 102.496 137.422C102.255 137.317 101.976 137.264 101.66 137.264C101.307 137.264 101.022 137.345 100.805 137.506C100.588 137.661 100.48 137.877 100.48 138.156C100.48 138.348 100.533 138.506 100.638 138.63C100.749 138.754 100.889 138.856 101.056 138.937C101.223 139.017 101.394 139.095 101.567 139.169L102.422 139.541C102.676 139.64 102.905 139.761 103.11 139.903C103.314 140.039 103.475 140.21 103.593 140.414C103.711 140.619 103.769 140.869 103.769 141.167C103.769 141.489 103.683 141.783 103.509 142.05C103.336 142.31 103.088 142.517 102.766 142.672C102.444 142.827 102.06 142.904 101.614 142.904ZM106.693 142.793L104.751 136.697H105.568L106.553 139.987C106.665 140.346 106.761 140.684 106.841 141C106.928 141.309 107.027 141.644 107.139 142.003H107.176C107.294 141.644 107.393 141.309 107.473 141C107.56 140.684 107.656 140.346 107.761 139.987L108.737 136.697H109.527L107.594 142.793H106.693ZM112.71 142.904C112.506 142.904 112.329 142.833 112.181 142.691C112.032 142.542 111.958 142.353 111.958 142.124C111.958 141.889 112.032 141.7 112.181 141.557C112.329 141.408 112.506 141.334 112.71 141.334C112.921 141.334 113.098 141.408 113.24 141.557C113.389 141.7 113.463 141.889 113.463 142.124C113.463 142.353 113.389 142.542 113.24 142.691C113.098 142.833 112.921 142.904 112.71 142.904ZM116.554 142.793L115.569 138.277H116.331L116.87 140.897C116.913 141.108 116.95 141.316 116.981 141.52C117.018 141.718 117.049 141.926 117.074 142.143H117.111C117.142 141.926 117.179 141.718 117.223 141.52C117.272 141.316 117.322 141.108 117.371 140.897L117.929 138.556H118.691L119.23 140.897C119.279 141.108 119.332 141.316 119.388 141.52C119.444 141.718 119.484 141.926 119.509 142.143H119.546C119.583 141.926 119.614 141.718 119.639 141.52C119.67 141.316 119.707 141.108 119.75 140.897L120.289 138.277H120.995L120.029 142.793H119.044L118.524 140.637C118.487 140.476 118.449 140.284 118.412 140.061C118.375 139.838 118.338 139.584 118.301 139.299H118.264C118.226 139.584 118.189 139.838 118.152 140.061C118.115 140.284 118.078 140.476 118.041 140.637L117.539 142.793H116.554ZM122.423 142.793V138.277H123.055L123.12 139.346H123.148C123.383 138.98 123.674 138.692 124.021 138.481C124.368 138.271 124.749 138.165 125.164 138.165C125.331 138.165 125.486 138.181 125.629 138.212C125.777 138.237 125.92 138.283 126.056 138.351L125.879 139.011C125.725 138.955 125.591 138.915 125.48 138.89C125.368 138.865 125.223 138.853 125.043 138.853C124.702 138.853 124.374 138.952 124.058 139.15C123.748 139.342 123.457 139.674 123.185 140.145V142.793H122.423ZM129.574 142.793V138.9H127.474V138.277H130.336V142.793H129.574ZM129.871 137.329C129.698 137.329 129.552 137.277 129.435 137.171C129.317 137.06 129.258 136.914 129.258 136.734C129.258 136.555 129.317 136.412 129.435 136.307C129.552 136.196 129.698 136.14 129.871 136.14C130.045 136.14 130.19 136.196 130.308 136.307C130.426 136.412 130.485 136.555 130.485 136.734C130.485 136.914 130.426 137.06 130.308 137.171C130.19 137.277 130.045 137.329 129.871 137.329ZM135.871 142.904C135.431 142.904 135.084 142.827 134.83 142.672C134.576 142.511 134.393 142.291 134.282 142.012C134.176 141.734 134.124 141.408 134.124 141.037V138.9H132.851V138.323L134.151 138.277L134.254 136.827H134.886V138.277H137.106V138.9H134.886V141.046C134.886 141.312 134.92 141.539 134.988 141.724C135.056 141.91 135.174 142.05 135.341 142.143C135.508 142.235 135.737 142.282 136.029 142.282C136.245 142.282 136.44 142.263 136.614 142.226C136.787 142.189 136.955 142.139 137.116 142.077L137.283 142.635C137.079 142.709 136.862 142.771 136.632 142.821C136.409 142.877 136.155 142.904 135.871 142.904ZM140.847 142.904C140.395 142.904 139.983 142.812 139.612 142.626C139.246 142.44 138.955 142.17 138.738 141.817C138.521 141.458 138.413 141.027 138.413 140.526C138.413 140.036 138.521 139.615 138.738 139.262C138.955 138.909 139.237 138.639 139.584 138.454C139.937 138.262 140.315 138.165 140.717 138.165C141.151 138.165 141.52 138.255 141.823 138.435C142.133 138.608 142.368 138.853 142.529 139.169C142.697 139.485 142.78 139.857 142.78 140.284C142.78 140.371 142.777 140.454 142.771 140.535C142.765 140.616 142.755 140.687 142.743 140.749H138.924V140.154H142.288L142.093 140.368C142.093 139.835 141.969 139.435 141.721 139.169C141.479 138.903 141.151 138.769 140.736 138.769C140.457 138.769 140.197 138.838 139.955 138.974C139.72 139.11 139.531 139.308 139.389 139.569C139.246 139.829 139.175 140.148 139.175 140.526C139.175 140.916 139.252 141.241 139.407 141.501C139.562 141.762 139.773 141.96 140.039 142.096C140.305 142.226 140.606 142.291 140.94 142.291C141.213 142.291 141.458 142.254 141.674 142.18C141.898 142.099 142.111 141.994 142.316 141.864L142.594 142.366C142.371 142.514 142.114 142.641 141.823 142.747C141.538 142.852 141.213 142.904 140.847 142.904ZM147.376 144.428C146.732 143.92 146.221 143.316 145.843 142.616C145.471 141.91 145.286 141.108 145.286 140.21C145.286 139.312 145.471 138.509 145.843 137.803C146.221 137.097 146.732 136.493 147.376 135.991L147.794 136.381C147.175 136.902 146.716 137.475 146.419 138.1C146.122 138.726 145.973 139.429 145.973 140.21C145.973 140.99 146.122 141.693 146.419 142.319C146.716 142.939 147.175 143.512 147.794 144.038L147.376 144.428ZM150.383 139.522L150.151 137.431L150.132 136.409H151.155L151.136 137.431L150.904 139.522H150.383ZM152.52 139.522L152.288 137.431L152.27 136.409H153.292L153.273 137.431L153.041 139.522H152.52ZM157.284 142.904C156.887 142.904 156.519 142.812 156.178 142.626C155.843 142.44 155.571 142.17 155.36 141.817C155.156 141.464 155.054 141.04 155.054 140.544C155.054 140.036 155.156 139.606 155.36 139.253C155.571 138.9 155.843 138.63 156.178 138.444C156.519 138.258 156.887 138.165 157.284 138.165C157.68 138.165 158.046 138.258 158.38 138.444C158.721 138.63 158.993 138.9 159.198 139.253C159.408 139.606 159.514 140.036 159.514 140.544C159.514 141.04 159.408 141.464 159.198 141.817C158.993 142.17 158.721 142.44 158.38 142.626C158.046 142.812 157.68 142.904 157.284 142.904ZM157.284 142.273C157.575 142.273 157.829 142.201 158.046 142.059C158.262 141.91 158.43 141.706 158.547 141.446C158.665 141.185 158.724 140.885 158.724 140.544C158.724 140.197 158.665 139.894 158.547 139.634C158.43 139.367 158.262 139.163 158.046 139.02C157.829 138.872 157.575 138.797 157.284 138.797C156.993 138.797 156.739 138.872 156.522 139.02C156.311 139.163 156.144 139.367 156.02 139.634C155.902 139.894 155.843 140.197 155.843 140.544C155.843 140.885 155.902 141.185 156.02 141.446C156.144 141.706 156.311 141.91 156.522 142.059C156.739 142.201 156.993 142.273 157.284 142.273ZM162.354 142.904C161.815 142.904 161.418 142.75 161.164 142.44C160.91 142.13 160.783 141.678 160.783 141.083V138.277H161.554V140.981C161.554 141.408 161.632 141.727 161.787 141.938C161.948 142.143 162.217 142.245 162.595 142.245C162.855 142.245 163.091 142.18 163.301 142.05C163.518 141.913 163.75 141.7 163.998 141.408V138.277H164.76V142.793H164.138L164.073 142.003H164.035C163.806 142.263 163.555 142.48 163.283 142.654C163.01 142.821 162.7 142.904 162.354 142.904ZM169.3 142.904C168.861 142.904 168.514 142.827 168.26 142.672C168.006 142.511 167.823 142.291 167.711 142.012C167.606 141.734 167.554 141.408 167.554 141.037V138.9H166.281V138.323L167.581 138.277L167.684 136.827H168.315V138.277H170.536V138.9H168.315V141.046C168.315 141.312 168.35 141.539 168.418 141.724C168.486 141.91 168.604 142.05 168.771 142.143C168.938 142.235 169.167 142.282 169.458 142.282C169.675 142.282 169.87 142.263 170.044 142.226C170.217 142.189 170.385 142.139 170.546 142.077L170.713 142.635C170.508 142.709 170.292 142.771 170.062 142.821C169.839 142.877 169.585 142.904 169.3 142.904ZM172.075 144.698V138.277H172.707L172.772 138.853H172.8C173.011 138.655 173.252 138.491 173.525 138.361C173.804 138.231 174.082 138.165 174.361 138.165C174.77 138.165 175.111 138.262 175.383 138.454C175.662 138.639 175.873 138.906 176.015 139.253C176.158 139.593 176.229 139.999 176.229 140.47C176.229 140.978 176.133 141.415 175.941 141.78C175.749 142.146 175.498 142.424 175.188 142.616C174.878 142.808 174.541 142.904 174.175 142.904C173.971 142.904 173.745 142.855 173.497 142.756C173.255 142.65 173.032 142.505 172.828 142.319H172.8L172.837 143.174V144.698H172.075ZM174.045 142.263C174.311 142.263 174.55 142.192 174.761 142.05C174.971 141.907 175.135 141.703 175.253 141.436C175.377 141.164 175.439 140.842 175.439 140.47C175.439 140.142 175.396 139.854 175.309 139.606C175.222 139.352 175.086 139.157 174.9 139.02C174.714 138.878 174.469 138.807 174.166 138.807C173.961 138.807 173.745 138.862 173.515 138.974C173.292 139.079 173.066 139.25 172.837 139.485V141.734C173.054 141.926 173.271 142.062 173.488 142.143C173.711 142.223 173.896 142.263 174.045 142.263ZM179.069 142.904C178.53 142.904 178.133 142.75 177.879 142.44C177.625 142.13 177.498 141.678 177.498 141.083V138.277H178.269V140.981C178.269 141.408 178.347 141.727 178.502 141.938C178.663 142.143 178.932 142.245 179.31 142.245C179.57 142.245 179.806 142.18 180.016 142.05C180.233 141.913 180.465 141.7 180.713 141.408V138.277H181.475V142.793H180.853L180.788 142.003H180.75C180.521 142.263 180.27 142.48 179.998 142.654C179.725 142.821 179.415 142.904 179.069 142.904ZM186.015 142.904C185.576 142.904 185.229 142.827 184.975 142.672C184.721 142.511 184.538 142.291 184.426 142.012C184.321 141.734 184.268 141.408 184.268 141.037V138.9H182.995V138.323L184.296 138.277L184.399 136.827H185.03V138.277H187.251V138.9H185.03V141.046C185.03 141.312 185.065 141.539 185.133 141.724C185.201 141.91 185.319 142.05 185.486 142.143C185.653 142.235 185.882 142.282 186.173 142.282C186.39 142.282 186.585 142.263 186.759 142.226C186.932 142.189 187.099 142.139 187.261 142.077L187.428 142.635C187.223 142.709 187.007 142.771 186.777 142.821C186.554 142.877 186.3 142.904 186.015 142.904ZM190.714 142.904C190.509 142.904 190.333 142.833 190.184 142.691C190.035 142.542 189.961 142.353 189.961 142.124C189.961 141.889 190.035 141.7 190.184 141.557C190.333 141.408 190.509 141.334 190.714 141.334C190.924 141.334 191.101 141.408 191.243 141.557C191.392 141.7 191.466 141.889 191.466 142.124C191.466 142.353 191.392 142.542 191.243 142.691C191.101 142.833 190.924 142.904 190.714 142.904ZM196.713 142.904C196.242 142.904 195.818 142.812 195.44 142.626C195.068 142.44 194.774 142.17 194.557 141.817C194.346 141.464 194.241 141.04 194.241 140.544C194.241 140.036 194.356 139.606 194.585 139.253C194.814 138.9 195.118 138.63 195.495 138.444C195.88 138.258 196.301 138.165 196.759 138.165C197.131 138.165 197.45 138.231 197.716 138.361C197.989 138.491 198.218 138.646 198.404 138.825L198.023 139.318C197.837 139.157 197.645 139.03 197.447 138.937C197.249 138.844 197.029 138.797 196.787 138.797C196.44 138.797 196.133 138.872 195.867 139.02C195.601 139.163 195.393 139.367 195.245 139.634C195.102 139.894 195.031 140.197 195.031 140.544C195.031 140.885 195.102 141.185 195.245 141.446C195.387 141.706 195.588 141.91 195.849 142.059C196.115 142.201 196.422 142.273 196.768 142.273C197.047 142.273 197.301 142.217 197.53 142.105C197.766 141.994 197.976 141.861 198.162 141.706L198.506 142.198C198.258 142.421 197.98 142.595 197.67 142.719C197.366 142.843 197.047 142.904 196.713 142.904ZM201.95 142.904C201.51 142.904 201.098 142.833 200.714 142.691C200.33 142.548 200.002 142.384 199.729 142.198L200.082 141.696C200.342 141.882 200.63 142.031 200.946 142.143C201.262 142.254 201.628 142.31 202.043 142.31C202.427 142.31 202.712 142.239 202.898 142.096C203.09 141.954 203.186 141.789 203.186 141.604C203.186 141.517 203.167 141.436 203.13 141.362C203.099 141.288 203.034 141.216 202.935 141.148C202.842 141.08 202.703 141.015 202.517 140.953C202.331 140.891 202.083 140.829 201.773 140.767C201.185 140.643 200.742 140.476 200.445 140.266C200.153 140.055 200.008 139.782 200.008 139.448C200.008 139.082 200.166 138.779 200.482 138.537C200.798 138.289 201.265 138.165 201.885 138.165C202.232 138.165 202.566 138.224 202.888 138.342C203.21 138.454 203.483 138.587 203.706 138.742L203.334 139.234C203.13 139.085 202.898 138.971 202.637 138.89C202.377 138.804 202.105 138.76 201.82 138.76C201.56 138.76 201.352 138.791 201.197 138.853C201.049 138.909 200.94 138.986 200.872 139.085C200.81 139.185 200.779 139.293 200.779 139.411C200.779 139.603 200.881 139.754 201.086 139.866C201.296 139.971 201.631 140.07 202.089 140.163C202.591 140.269 202.975 140.386 203.241 140.516C203.514 140.646 203.7 140.795 203.799 140.962C203.904 141.13 203.957 141.328 203.957 141.557C203.957 141.805 203.88 142.031 203.725 142.235C203.57 142.434 203.344 142.595 203.046 142.719C202.749 142.843 202.383 142.904 201.95 142.904ZM207.02 142.793L205.115 138.277H205.886L206.927 140.842C207.02 141.065 207.106 141.288 207.187 141.511C207.274 141.734 207.357 141.954 207.438 142.17H207.475C207.556 141.954 207.636 141.734 207.717 141.511C207.797 141.288 207.881 141.065 207.968 140.842L209.008 138.277H209.742L207.875 142.793H207.02ZM211.671 139.522L211.439 137.431L211.421 136.409H212.443L212.424 137.431L212.192 139.522H211.671ZM213.809 139.522L213.576 137.431L213.558 136.409H214.58L214.561 137.431L214.329 139.522H213.809ZM217.828 144.772L217.615 144.289C218.011 144.116 218.305 143.896 218.498 143.629C218.69 143.369 218.786 143.047 218.786 142.663L218.609 141.808L219.129 142.542C219.055 142.629 218.971 142.688 218.879 142.719C218.792 142.743 218.702 142.756 218.609 142.756C218.479 142.756 218.358 142.731 218.247 142.681C218.135 142.626 218.045 142.548 217.977 142.449C217.915 142.344 217.884 142.214 217.884 142.059C217.884 141.83 217.959 141.656 218.107 141.539C218.256 141.415 218.429 141.353 218.628 141.353C218.9 141.353 219.108 141.461 219.25 141.678C219.393 141.889 219.464 142.177 219.464 142.542C219.464 143.087 219.318 143.546 219.027 143.917C218.736 144.295 218.336 144.58 217.828 144.772ZM229.446 142.904C228.857 142.904 228.383 142.7 228.024 142.291C227.665 141.876 227.485 141.294 227.485 140.544C227.485 140.055 227.581 139.634 227.773 139.281C227.971 138.921 228.225 138.646 228.535 138.454C228.851 138.262 229.186 138.165 229.539 138.165C229.805 138.165 230.047 138.218 230.263 138.323C230.486 138.423 230.694 138.565 230.886 138.751H230.914L230.877 137.915V136.177H231.639V142.793H231.007L230.942 142.198H230.914C230.734 142.39 230.514 142.558 230.254 142.7C230 142.836 229.731 142.904 229.446 142.904ZM229.604 142.263C229.827 142.263 230.043 142.208 230.254 142.096C230.465 141.978 230.672 141.808 230.877 141.585V139.336C230.672 139.144 230.471 139.008 230.273 138.927C230.081 138.847 229.886 138.807 229.687 138.807C229.427 138.807 229.189 138.881 228.972 139.03C228.761 139.172 228.591 139.373 228.461 139.634C228.337 139.888 228.275 140.188 228.275 140.535C228.275 141.074 228.393 141.498 228.628 141.808C228.863 142.112 229.189 142.263 229.604 142.263ZM234.748 142.793V137.896C234.748 137.531 234.813 137.211 234.943 136.939C235.079 136.66 235.281 136.446 235.547 136.298C235.813 136.143 236.154 136.065 236.569 136.065C236.792 136.065 237.009 136.087 237.22 136.131C237.436 136.168 237.653 136.233 237.87 136.326L237.693 136.902C237.508 136.815 237.334 136.759 237.173 136.734C237.018 136.704 236.842 136.688 236.643 136.688C236.241 136.688 235.95 136.793 235.77 137.004C235.59 137.215 235.501 137.503 235.501 137.868V142.793H234.748ZM233.456 138.9V138.323L234.776 138.277H237.396V138.9H233.456ZM239.623 144.428L239.204 144.038C239.824 143.512 240.282 142.939 240.58 142.319C240.877 141.693 241.026 140.99 241.026 140.21C241.026 139.429 240.877 138.726 240.58 138.1C240.282 137.475 239.824 136.902 239.204 136.381L239.623 135.991C240.273 136.493 240.784 137.097 241.156 137.803C241.528 138.509 241.713 139.312 241.713 140.21C241.713 141.108 241.528 141.91 241.156 142.616C240.784 143.316 240.273 143.92 239.623 144.428Z" fill="#B9B9BA"/>
</g>
<g filter="url(#filter2_d_81_33)">
<path d="M461.193 122.25H457.902L461.193 99.5H449.673C446.776 99.5 448.586 97.0625 448.652 96.965C452.898 89.555 459.284 78.505 467.81 63.75H471.101L467.81 86.5H479.363C480.68 86.5 481.404 87.1175 480.68 88.645C467.678 111.037 461.193 122.25 461.193 122.25Z" fill="white"/>
</g>
<path d="M414.429 92.5902C414.624 92.7854 414.624 93.102 414.429 93.2973L411.247 96.4792C411.052 96.6745 410.735 96.6745 410.54 96.4792C410.345 96.284 410.345 95.9674 410.54 95.7721L413.369 92.9437L410.54 90.1153C410.345 89.92 410.345 89.6034 410.54 89.4082C410.735 89.2129 411.052 89.2129 411.247 89.4082L414.429 92.5902ZM377.932 95.6104C376.459 95.6104 375.265 94.4165 375.265 92.9437C375.265 91.471 376.459 90.277 377.932 90.277C379.404 90.277 380.598 91.471 380.598 92.9437C380.598 94.4165 379.404 95.6104 377.932 95.6104ZM414.076 93.4437H413.072V92.4437H414.076V93.4437ZM411.064 93.4437H409.056V92.4437H411.064V93.4437ZM407.048 93.4437H405.04V92.4437H407.048V93.4437ZM403.032 93.4437H401.024V92.4437H403.032V93.4437ZM399.016 93.4437H397.008V92.4437H399.016V93.4437ZM395 93.4437H392.992V92.4437H395V93.4437ZM390.984 93.4437H388.976V92.4437H390.984V93.4437ZM386.968 93.4437H384.96V92.4437H386.968V93.4437ZM382.952 93.4437H380.944V92.4437H382.952V93.4437ZM378.936 93.4437H377.932V92.4437H378.936V93.4437Z" fill="#9F9DFF"/>
<defs>
<filter id="filter0_d_81_33" x="420.628" y="46.4688" width="93.5034" height="94.2756" filterUnits="userSpaceOnUse" color-interpolation-filters="sRGB">
<feFlood flood-opacity="0" result="BackgroundImageFix"/>
<feColorMatrix in="SourceAlpha" type="matrix" values="0 0 0 0 0 0 0 0 0 0 0 0 0 0 0 0 0 0 127 0" result="hardAlpha"/>
<feOffset dy="1.7706"/>
<feGaussianBlur stdDeviation="0.885298"/>
<feComposite in2="hardAlpha" operator="out"/>
<feColorMatrix type="matrix" values="0 0 0 0 0.432266 0 0 0 0 0.00354165 0 0 0 0 0.846458 0 0 0 1 0"/>
<feBlend mode="normal" in2="BackgroundImageFix" result="effect1_dropShadow_81_33"/>
<feBlend mode="normal" in="SourceGraphic" in2="effect1_dropShadow_81_33" result="shape"/>
</filter>
<filter id="filter1_d_81_33" x="0.274" y="0.0705938" width="398.975" height="205.448" filterUnits="userSpaceOnUse" color-interpolation-filters="sRGB">
<feFlood flood-opacity="0" result="BackgroundImageFix"/>
<feColorMatrix in="SourceAlpha" type="matrix" values="0 0 0 0 0 0 0 0 0 0 0 0 0 0 0 0 0 0 127 0" result="hardAlpha"/>
<feOffset dy="10.363"/>
<feGaussianBlur stdDeviation="10.363"/>
<feComposite in2="hardAlpha" operator="out"/>
<feColorMatrix type="matrix" values="0 0 0 0 0.178897 0 0 0 0 0.0828819 0 0 0 0 0.320833 0 0 0 1 0"/>
<feBlend mode="normal" in2="BackgroundImageFix" result="effect1_dropShadow_81_33"/>
<feBlend mode="normal" in="SourceGraphic" in2="effect1_dropShadow_81_33" result="shape"/>
</filter>
<filter id="filter2_d_81_33" x="434.033" y="53.75" width="60.9333" height="86.5" filterUnits="userSpaceOnUse" color-interpolation-filters="sRGB">
<feFlood flood-opacity="0" result="BackgroundImageFix"/>
<feColorMatrix in="SourceAlpha" type="matrix" values="0 0 0 0 0 0 0 0 0 0 0 0 0 0 0 0 0 0 127 0" result="hardAlpha"/>
<feOffset dy="4"/>
<feGaussianBlur stdDeviation="7"/>
<feComposite in2="hardAlpha" operator="out"/>
<feColorMatrix type="matrix" values="0 0 0 0 1 0 0 0 0 1 0 0 0 0 1 0 0 0 0.55 0"/>
<feBlend mode="normal" in2="BackgroundImageFix" result="effect1_dropShadow_81_33"/>
<feBlend mode="normal" in="SourceGraphic" in2="effect1_dropShadow_81_33" result="shape"/>
</filter>
</defs>
</svg>
