<svg width="69" height="69" viewBox="0 0 69 69" fill="none" xmlns="http://www.w3.org/2000/svg">
<g filter="url(#filter0_d_5729_3956)">
<rect x="5.3667" y="2.70898" width="59" height="59" rx="7.5" fill="#111113" stroke="url(#paint0_linear_5729_3956)"/>
<path d="M38.3667 14.5H24.3667C22.4417 14.5 20.8667 16.075 20.8667 18V46C20.8667 47.925 22.4417 49.5 24.3667 49.5H45.3667C47.2917 49.5 48.8667 47.925 48.8667 46V25L38.3667 14.5ZM45.3667 46H24.3667V18H36.6167V26.75H45.3667V46ZM29.6167 33.75V44.25H26.1167V33.75H29.6167ZM40.1167 37.25V44.25H43.6167V37.25H40.1167ZM33.1167 30.25V44.25H36.6167V30.25H33.1167Z" fill="url(#paint1_linear_5729_3956)"/>
</g>
<defs>
<filter id="filter0_d_5729_3956" x="0.866699" y="0" width="68" height="68.209" filterUnits="userSpaceOnUse" color-interpolation-filters="sRGB">
<feFlood flood-opacity="0" result="BackgroundImageFix"/>
<feColorMatrix in="SourceAlpha" type="matrix" values="0 0 0 0 0 0 0 0 0 0 0 0 0 0 0 0 0 0 127 0" result="hardAlpha"/>
<feOffset dy="2"/>
<feGaussianBlur stdDeviation="2"/>
<feComposite in2="hardAlpha" operator="out"/>
<feColorMatrix type="matrix" values="0 0 0 0 0 0 0 0 0 0 0 0 0 0 0 0 0 0 0.07 0"/>
<feBlend mode="normal" in2="BackgroundImageFix" result="effect1_dropShadow_5729_3956"/>
<feBlend mode="normal" in="SourceGraphic" in2="effect1_dropShadow_5729_3956" result="shape"/>
</filter>
<linearGradient id="paint0_linear_5729_3956" x1="13.9066" y1="13.3476" x2="63.8598" y2="63.2182" gradientUnits="userSpaceOnUse">
<stop offset="0.015625" stop-color="#B010FB"/>
<stop offset="0.130208" stop-color="#DE97FF"/>
<stop offset="0.234375" stop-color="#A227DB"/>
<stop offset="0.505208" stop-color="#A227DB" stop-opacity="0"/>
<stop offset="0.765625" stop-color="#A610EC" stop-opacity="0.84"/>
</linearGradient>
<linearGradient id="paint1_linear_5729_3956" x1="25.0853" y1="20.9975" x2="53.5036" y2="43.6946" gradientUnits="userSpaceOnUse">
<stop offset="0.015625" stop-color="#F2D5FF"/>
<stop offset="1" stop-color="#CB5AFF"/>
</linearGradient>
</defs>
</svg>
