<svg width="69" height="69" viewBox="0 0 69 69" fill="none" xmlns="http://www.w3.org/2000/svg">
<g filter="url(#filter0_d_5729_3941)">
<rect x="4.87305" y="2.70898" width="59" height="59" rx="7.5" fill="#111113" stroke="url(#paint0_linear_5729_3941)"/>
<path d="M29.123 49.5C28.073 49.5 27.373 48.8 27.373 47.75V42.5H20.373C18.448 42.5 16.873 40.925 16.873 39V18C16.873 16.075 18.448 14.5 20.373 14.5H48.373C50.298 14.5 51.873 16.075 51.873 18V39C51.873 40.925 50.298 42.5 48.373 42.5H37.698L31.223 48.975C30.873 49.325 30.523 49.5 29.998 49.5H29.123ZM30.873 39V44.425L36.298 39H48.373V18H20.373V39H30.873ZM41.898 21.5L39.448 26.75H43.123V33.75H36.123V26.4L38.398 21.5H41.898ZM31.398 21.5L28.948 26.75H32.623V33.75H25.623V26.4L27.898 21.5H31.398Z" fill="url(#paint1_linear_5729_3941)"/>
</g>
<defs>
<filter id="filter0_d_5729_3941" x="0.373047" y="0" width="68" height="68.209" filterUnits="userSpaceOnUse" color-interpolation-filters="sRGB">
<feFlood flood-opacity="0" result="BackgroundImageFix"/>
<feColorMatrix in="SourceAlpha" type="matrix" values="0 0 0 0 0 0 0 0 0 0 0 0 0 0 0 0 0 0 127 0" result="hardAlpha"/>
<feOffset dy="2"/>
<feGaussianBlur stdDeviation="2"/>
<feComposite in2="hardAlpha" operator="out"/>
<feColorMatrix type="matrix" values="0 0 0 0 0 0 0 0 0 0 0 0 0 0 0 0 0 0 0.07 0"/>
<feBlend mode="normal" in2="BackgroundImageFix" result="effect1_dropShadow_5729_3941"/>
<feBlend mode="normal" in="SourceGraphic" in2="effect1_dropShadow_5729_3941" result="shape"/>
</filter>
<linearGradient id="paint0_linear_5729_3941" x1="13.4129" y1="13.3476" x2="63.3662" y2="63.2182" gradientUnits="userSpaceOnUse">
<stop offset="0.015625" stop-color="#B010FB"/>
<stop offset="0.130208" stop-color="#DE97FF"/>
<stop offset="0.234375" stop-color="#A227DB"/>
<stop offset="0.505208" stop-color="#A227DB" stop-opacity="0"/>
<stop offset="0.765625" stop-color="#A610EC" stop-opacity="0.84"/>
</linearGradient>
<linearGradient id="paint1_linear_5729_3941" x1="22.1463" y1="20.9975" x2="51.2857" y2="50.0887" gradientUnits="userSpaceOnUse">
<stop offset="0.015625" stop-color="#F2D5FF"/>
<stop offset="1" stop-color="#CB5AFF"/>
</linearGradient>
</defs>
</svg>
