<?xml version="1.0" encoding="UTF-8"?>
<svg xmlns="http://www.w3.org/2000/svg" xmlns:xlink="http://www.w3.org/1999/xlink" width="58px" height="58px" viewBox="0 0 58 58" version="1.1">
<defs>
<filter id="alpha" filterUnits="objectBoundingBox" x="0%" y="0%" width="100%" height="100%">
  <feColorMatrix type="matrix" in="SourceGraphic" values="0 0 0 0 1 0 0 0 0 1 0 0 0 0 1 0 0 0 1 0"/>
</filter>
<mask id="mask0">
  <g filter="url(#alpha)">
<rect x="0" y="0" width="58" height="58" style="fill:rgb(0%,0%,0%);fill-opacity:0.929412;stroke:none;"/>
  </g>
</mask>
<clipPath id="clip1">
  <rect x="0" y="0" width="58" height="58"/>
</clipPath>
<g id="surface5" clip-path="url(#clip1)">
<path style=" stroke:none;fill-rule:evenodd;fill:rgb(1.568627%,25.098039%,60%);fill-opacity:1;" d="M 28.433594 4.644531 C 28.671875 4.609375 28.898438 4.648438 29.113281 4.757812 C 36.117188 11.757812 41.894531 19.652344 46.445312 28.433594 C 49.113281 36.140625 47.488281 42.824219 41.574219 48.484375 C 33.382812 54.785156 25.074219 54.9375 16.652344 48.9375 C 9.414062 42.109375 8.09375 34.292969 12.6875 25.488281 C 14.652344 22.011719 16.84375 18.6875 19.257812 15.519531 C 22.289062 11.847656 25.347656 8.222656 28.433594 4.644531 Z M 28.433594 4.644531 "/>
</g>
</defs>
<g id="surface1">
<use xlink:href="#surface5" mask="url(#mask0)"/>
<path style=" stroke:none;fill-rule:evenodd;fill:rgb(80.392157%,87.45098%,97.647059%);fill-opacity:1;" d="M 25.941406 50.410156 C 25.261719 50.007812 24.503906 49.78125 23.675781 49.730469 C 17.511719 47.457031 13.847656 43.074219 12.6875 36.589844 C 12.335938 33.082031 13.09375 29.832031 14.953125 26.847656 C 18.867188 20.179688 23.511719 14.0625 28.886719 8.496094 C 33.707031 13.503906 37.976562 18.941406 41.6875 24.808594 C 47.09375 32.988281 46.222656 40.429688 39.082031 47.125 C 35.152344 49.988281 30.773438 51.082031 25.941406 50.410156 Z M 25.941406 50.410156 "/>
<path style=" stroke:none;fill-rule:evenodd;fill:rgb(49.803922%,62.745098%,83.137255%);fill-opacity:1;" d="M 23.675781 49.730469 C 24.503906 49.78125 25.261719 50.007812 25.941406 50.410156 C 25.113281 50.359375 24.355469 50.132812 23.675781 49.730469 Z M 23.675781 49.730469 "/>
</g>
</svg>
