<svg width="53" height="58" viewBox="0 0 53 58" fill="none" xmlns="http://www.w3.org/2000/svg">
    <path d="M23.0928 1.43983L4.48554 12.1859C3.42035 12.8019 2.53593 13.6873 1.92106 14.7531C1.30618 15.819 0.98247 17.0278 0.982422 18.2583V39.7417C0.983684 40.9719 1.30842 42.1801 1.92405 43.2451C2.53968 44.3102 3.42456 45.1946 4.48992 45.8097L23.0928 56.5602C24.1592 57.1759 25.3689 57.5 26.6003 57.5C27.8317 57.5 29.0414 57.1759 30.1078 56.5602L48.7195 45.8141C49.7848 45.199 50.6697 44.3146 51.2853 43.2495C51.901 42.1845 52.2257 40.9763 52.227 39.7461V18.2583C52.2257 17.0281 51.901 15.8199 51.2853 14.7549C50.6697 13.6898 49.7848 12.8054 48.7195 12.1903L30.1078 1.43983C29.0414 0.824137 27.8317 0.5 26.6003 0.5C25.3689 0.5 24.1592 0.824137 23.0928 1.43983Z" fill="#326DEA"/>
    <path d="M37.9295 21.4676L27.4509 15.4172C27.1913 15.2684 26.8973 15.1901 26.5981 15.1901C26.2989 15.1901 26.0049 15.2684 25.7454 15.4172L15.2623 21.4676C14.999 21.6161 14.7794 21.8311 14.6255 22.0912C14.4716 22.3513 14.3888 22.6473 14.3854 22.9496V35.0504C14.387 35.353 14.469 35.6498 14.6231 35.9102C14.7772 36.1706 14.9978 36.3853 15.2623 36.5323L25.7454 42.5828C26.0056 42.732 26.3003 42.8105 26.6003 42.8105C26.9003 42.8105 27.195 42.732 27.4553 42.5828L37.9383 36.5323C38.2016 36.3839 38.4212 36.1689 38.5751 35.9088C38.729 35.6487 38.8118 35.3526 38.8152 35.0504V22.9496C38.8079 22.6471 38.7225 22.3517 38.5673 22.0921C38.4121 21.8324 38.1924 21.6173 37.9295 21.4676ZM26.6003 40.395L17.3931 35.0899L21.4925 32.6566L26.0172 35.2872V29.4867L21.0322 26.5886V31.4114L16.7311 33.9719V23.3047L25.9383 17.9865V23.1162L21.5934 25.624L26.6003 28.5133L31.5985 25.624L27.258 23.1162V17.9865L36.4651 23.3047V33.9236L32.1641 31.3676V26.5886L27.1571 29.4867V35.2653L31.7081 32.6346L35.8075 35.0767L26.6003 40.395Z" fill="white"/>
</svg>
