<svg width="80" height="80" viewBox="0 0 80 80" fill="none" xmlns="http://www.w3.org/2000/svg">
<path fill-rule="evenodd" clip-rule="evenodd" d="M40.0236 11.9749C24.2508 11.9749 11.5 24.8197 11.5 40.7104C11.5 53.4128 19.6699 64.165 31.0036 67.9706C32.4206 68.2566 32.9397 67.3523 32.9397 66.5915C32.9397 65.9253 32.893 63.6419 32.893 61.2627C24.9584 62.9757 23.3061 57.8372 23.3061 57.8372C22.031 54.5069 20.1416 53.651 20.1416 53.651C17.5446 51.8906 20.3308 51.8906 20.3308 51.8906C23.2115 52.081 24.7231 54.8403 24.7231 54.8403C27.2728 59.2168 31.3814 57.9802 33.0343 57.2189C33.2701 55.3634 34.0262 54.0789 34.829 53.3655C28.5006 52.6993 21.8424 50.2255 21.8424 39.1877C21.8424 36.0478 22.9751 33.4788 24.7698 31.4809C24.4867 30.7674 23.4947 27.8172 25.0536 23.8686C25.0536 23.8686 27.462 23.1073 32.8924 26.8182C35.2174 26.1892 37.615 25.8692 40.0236 25.8665C42.432 25.8665 44.8871 26.1999 47.1542 26.8182C52.5852 23.1073 54.9936 23.8686 54.9936 23.8686C56.5525 27.8172 55.5599 30.7674 55.2768 31.4809C57.1188 33.4788 58.2048 36.0478 58.2048 39.1877C58.2048 50.2255 51.5465 52.6514 45.1708 53.3655C46.2101 54.2693 47.1069 55.9817 47.1069 58.6937C47.1069 62.5471 47.0602 65.6398 47.0602 66.5909C47.0602 67.3523 47.5798 68.2566 48.9962 67.9711C60.33 64.1644 68.4999 53.4128 68.4999 40.7104C68.5466 24.8197 55.7491 11.9749 40.0236 11.9749Z" fill="#26282D"/>
</svg>
