<svg width="80" height="81" viewBox="0 0 80 81" fill="none" xmlns="http://www.w3.org/2000/svg">
<path d="M68.9087 36.5663C68.8063 35.5254 68.6357 34.3309 68.2944 32.9999C67.9531 31.686 67.4412 30.2355 66.6904 28.7339C65.9396 27.2322 64.9669 25.6794 63.7042 24.1607C63.2093 23.5634 62.6633 22.9833 62.0831 22.4202C62.9534 18.9561 61.0251 15.9529 61.0251 15.9529C57.6976 15.7481 55.5817 16.9938 54.7967 17.5569C54.6602 17.5057 54.5408 17.4374 54.4043 17.3862C53.8411 17.1644 53.261 16.9426 52.6467 16.7549C52.0494 16.5672 51.4351 16.3965 50.8037 16.243C50.1724 16.0894 49.541 15.9699 48.8926 15.8675C48.7731 15.8505 48.6707 15.8334 48.5513 15.8164C47.1008 11.1749 42.9372 9.22961 42.9372 9.22961C38.2787 12.1817 37.4084 16.3112 37.4084 16.3112C37.4084 16.3112 37.3914 16.3965 37.3572 16.5501C37.1013 16.6184 36.8453 16.7037 36.5893 16.7719C36.231 16.8743 35.8727 17.0108 35.5314 17.1474C35.173 17.2839 34.8317 17.4204 34.4734 17.574C33.7738 17.8811 33.0741 18.2224 32.3916 18.5978C31.7261 18.9732 31.0777 19.3827 30.4463 19.8093L30.2756 19.7411C23.8254 17.2839 18.1089 20.236 18.1089 20.236C17.58 27.0957 20.6856 31.4129 21.2999 32.1979C21.1464 32.6245 21.0098 33.0511 20.8733 33.4777C20.3955 35.0305 20.0372 36.6175 19.8154 38.2727C19.7812 38.5116 19.7471 38.7505 19.73 38.9894C13.7576 41.9415 12 47.9651 12 47.9651C16.9656 53.6816 22.7674 54.0399 22.7674 54.0399L22.7845 54.0228C23.5183 55.3368 24.3715 56.5825 25.3271 57.7599C25.7366 58.2547 26.1461 58.7155 26.5898 59.1762C24.781 64.3637 26.8458 68.6638 26.8458 68.6638C32.3745 68.8686 36.0092 66.2407 36.7771 65.6435C37.3231 65.8312 37.8862 66.0018 38.4493 66.1384C40.1557 66.582 41.8963 66.838 43.6368 66.9062C44.0634 66.9233 44.5071 66.9404 44.9337 66.9233H45.548L45.821 66.9062V66.9233C48.4318 70.6433 53.005 71.1723 53.005 71.1723C56.2642 67.7424 56.4519 64.3296 56.4519 63.5958V63.5446V63.4422V63.2886C57.1345 62.8109 57.7829 62.2989 58.3973 61.7358C59.6941 60.5584 60.8374 59.2103 61.793 57.7599L62.049 57.3503C65.7348 57.5551 68.3456 55.0638 68.3456 55.0638C67.7313 51.2243 65.5471 49.3473 65.0864 48.9889C64.6256 48.6306 65.0693 48.9719 65.0352 48.9548C65.0011 48.9377 65.0011 48.9207 65.0011 48.9207C64.984 48.9036 64.9499 48.8866 64.9157 48.8695C64.9328 48.6306 64.9499 48.4088 64.9669 48.1699C65.0011 47.7603 65.0011 47.3337 65.0011 46.9242V46.3781V46.2758L64.984 46.0198L64.9669 45.6785C64.9669 45.5591 64.9499 45.4567 64.9328 45.3543C64.9157 45.2519 64.9157 45.1325 64.8987 45.0301L64.8645 44.7059L64.8134 44.3816C64.7451 43.955 64.6768 43.5455 64.5745 43.1189C64.182 41.4637 63.5335 39.8938 62.6974 38.4775C61.8442 37.0611 60.7862 35.8155 59.5747 34.7575C58.3802 33.6995 57.0321 32.8463 55.6329 32.2149C54.2166 31.5836 52.749 31.174 51.2815 30.9863C50.5478 30.8839 49.814 30.8498 49.0803 30.8669H48.5342L48.2612 30.8839C48.1588 30.8839 48.0564 30.901 47.9711 30.901C47.5957 30.9351 47.2203 30.9863 46.8619 31.0546C45.3944 31.3276 44.0122 31.8566 42.8007 32.5904C41.5891 33.3241 40.5312 34.2285 39.6779 35.2523C38.8247 36.2762 38.1592 37.4195 37.6985 38.5969C37.2378 39.7743 36.9818 41.0029 36.9136 42.1804C36.8965 42.4705 36.8965 42.7776 36.8965 43.0677V43.2895L36.9136 43.5284C36.9306 43.6649 36.9306 43.8185 36.9477 43.955C36.9989 44.5523 37.1183 45.1325 37.2719 45.6785C37.5961 46.7877 38.1081 47.7945 38.7394 48.6477C39.3708 49.5009 40.1387 50.2005 40.9407 50.7636C41.7427 51.3097 42.613 51.7021 43.4662 51.9581C44.3194 52.2141 45.1726 52.3164 45.9746 52.3164H46.4183C46.4695 52.3164 46.5206 52.3164 46.5718 52.2994C46.6572 52.2994 46.7425 52.2823 46.8278 52.2823C46.8449 52.2823 46.879 52.2823 46.8961 52.2652L46.9814 52.2482C47.0326 52.2482 47.0838 52.2311 47.135 52.2311C47.2373 52.2141 47.3227 52.197 47.425 52.1799C47.5274 52.1629 47.6128 52.1458 47.6981 52.1117C47.8858 52.0775 48.0564 52.0093 48.2271 51.9581C48.5683 51.8386 48.9096 51.7021 49.1997 51.5486C49.5069 51.395 49.7799 51.2073 50.0529 51.0366C50.1212 50.9854 50.2065 50.9342 50.2747 50.866C50.5478 50.6442 50.599 50.2346 50.3771 49.9616C50.1894 49.7227 49.8481 49.6544 49.5751 49.808L49.3703 49.9104C49.1315 50.0299 48.8926 50.1322 48.6366 50.2176C48.3806 50.3029 48.1076 50.3711 47.8346 50.4223C47.6981 50.4394 47.5616 50.4565 47.408 50.4735C47.3397 50.4735 47.2715 50.4906 47.1861 50.4906H46.7766C46.6913 50.4906 46.606 50.4906 46.5206 50.4735H46.4183C46.3841 50.4735 46.3329 50.4735 46.2988 50.4565C46.2135 50.4394 46.1452 50.4394 46.0599 50.4223C45.4285 50.337 44.7972 50.1493 44.1999 49.8763C43.5856 49.6032 43.0054 49.2278 42.4765 48.75C41.9475 48.2723 41.4867 47.7091 41.1284 47.0607C40.7701 46.4123 40.5141 45.6956 40.3946 44.9448C40.3434 44.5693 40.3093 44.1769 40.3264 43.8015C40.3264 43.6991 40.3435 43.5967 40.3435 43.4943V43.3578C40.3435 43.3066 40.3605 43.2554 40.3605 43.2042C40.3776 42.9994 40.4117 42.7947 40.4458 42.5899C40.7359 40.9518 41.555 39.3477 42.8177 38.1362C43.142 37.829 43.4832 37.556 43.8416 37.3C44.1999 37.0441 44.5924 36.8222 45.0019 36.6345C45.4115 36.4468 45.821 36.2933 46.2647 36.1738C46.6913 36.0544 47.135 35.9861 47.5957 35.9349C47.8175 35.9178 48.0394 35.9008 48.2783 35.9008H48.8072L48.9949 35.9178C49.4898 35.952 49.9676 36.0202 50.4454 36.1397C51.401 36.3444 52.3395 36.7028 53.2098 37.1806C54.9503 38.1532 56.4349 39.6549 57.3393 41.4637C57.8 42.3681 58.1242 43.3407 58.2778 44.3475C58.3119 44.6035 58.3461 44.8594 58.3631 45.1154L58.3802 45.3031L58.3973 45.4908V46.2246C58.3973 46.344 58.3802 46.5488 58.3802 46.6682C58.3631 46.9412 58.329 47.2313 58.2949 47.5044C58.2607 47.7774 58.2095 48.0504 58.1584 48.3234C58.1072 48.5965 58.0389 48.8695 57.9706 49.1255C57.8341 49.6544 57.6635 50.1834 57.4587 50.7124C57.0492 51.7363 56.5031 52.726 55.8547 53.6304C54.5408 55.4392 52.749 56.9067 50.7014 57.8452C49.6775 58.3059 48.6025 58.6472 47.4933 58.8179C46.9473 58.9202 46.3841 58.9714 45.821 58.9885H44.9678C44.6607 58.9885 44.3706 58.9714 44.0634 58.9373C42.8689 58.852 41.6915 58.6301 40.5312 58.3059C39.3879 57.9817 38.2787 57.521 37.2207 56.9749C35.1218 55.8487 33.2277 54.3129 31.7602 52.4529C31.0265 51.5315 30.378 50.5247 29.849 49.4838C29.32 48.4429 28.8934 47.3337 28.5863 46.2246C28.2791 45.0983 28.0914 43.955 28.0061 42.7947L27.989 42.5728V41.6002V41.4807V41.0541C28.0061 40.491 28.0573 39.8938 28.1256 39.3136C28.1938 38.7334 28.2962 38.1362 28.4157 37.556C28.5351 36.9758 28.6716 36.3956 28.8423 35.8155C29.1665 34.6722 29.576 33.563 30.0538 32.5221C31.0265 30.4403 32.2892 28.5803 33.8079 27.0957C34.1833 26.7203 34.5758 26.379 34.9853 26.0377C35.3949 25.7135 35.8215 25.4064 36.2651 25.1163C36.6917 24.8262 37.1525 24.5702 37.6132 24.3313C37.835 24.2119 38.0739 24.0924 38.3128 23.9901L38.6712 23.8365L39.0295 23.6829C39.5073 23.4781 40.0022 23.3075 40.5141 23.1539C40.6335 23.1198 40.7701 23.0857 40.8895 23.0345C41.0089 23.0003 41.1455 22.9662 41.2649 22.9321C41.5209 22.8638 41.7768 22.7956 42.0328 22.7444C42.1522 22.7102 42.2888 22.6932 42.4253 22.6591C42.5618 22.6249 42.6812 22.6079 42.8177 22.5737C42.9543 22.5567 43.0737 22.5225 43.2102 22.5055L43.3979 22.4713L43.6027 22.4372C43.7392 22.4202 43.8587 22.4031 43.9952 22.386C44.1487 22.369 44.2853 22.3519 44.4388 22.3348C44.5583 22.3178 44.763 22.3007 44.8825 22.2836C44.9678 22.2666 45.0702 22.2666 45.1555 22.2495L45.3432 22.2324L45.4285 22.2154H45.5309C45.6845 22.1983 45.821 22.1983 45.9746 22.1813L46.1964 22.1642H46.3671C46.4865 22.1642 46.623 22.1471 46.7425 22.1471C47.2373 22.1301 47.7493 22.1301 48.2441 22.1471C49.2338 22.1813 50.2065 22.3007 51.145 22.4713C53.0391 22.8297 54.8138 23.4269 56.4349 24.2289C58.056 25.0139 59.4894 25.9865 60.7521 27.0445C60.8374 27.1128 60.9057 27.181 60.991 27.2493C61.0592 27.3175 61.1446 27.3858 61.2128 27.4541C61.3664 27.5906 61.5029 27.7271 61.6565 27.8636C61.8101 28.0001 61.9466 28.1366 62.0831 28.2731C62.2196 28.4096 62.3561 28.5462 62.4926 28.6997C63.0216 29.2629 63.5165 29.826 63.9601 30.4061C64.8475 31.5494 65.5642 32.7098 66.1273 33.8019L66.2297 34.0067L66.3321 34.2114C66.4003 34.348 66.4686 34.4845 66.5198 34.621C66.588 34.7575 66.6392 34.8769 66.7075 35.0135C66.7587 35.15 66.8269 35.2694 66.8781 35.4059C67.0829 35.9178 67.2876 36.4127 67.4412 36.8734C67.6972 37.6243 67.8849 38.2898 68.0385 38.8699C68.0897 39.1088 68.3115 39.2624 68.5504 39.2283C68.8063 39.2112 68.994 39.0064 68.994 38.7505C69.0111 38.1362 68.994 37.4024 68.9087 36.5663Z" fill="url(#paint0_linear_851_365)"/>
<defs>
<linearGradient id="paint0_linear_851_365" x1="40.497" y1="27.6418" x2="40.497" y2="70.3822" gradientUnits="userSpaceOnUse">
<stop stop-color="#F05A28"/>
<stop offset="1" stop-color="#FBCA0A"/>
</linearGradient>
</defs>
</svg>
