<svg width="81" height="80" viewBox="0 0 81 80" fill="none" xmlns="http://www.w3.org/2000/svg">
    <path d="M46.6671 52.1265H41.8284V29.8647L46.6671 28.5322V52.1265Z" fill="currentColor"/>
    <path d="M20.2515 35.5223C19.5963 35.5223 18.9559 35.328 18.4111 34.964C17.8663 34.6 17.4417 34.0827 17.191 33.4773C16.9403 32.872 16.8747 32.206 17.0025 31.5634C17.1303 30.9208 17.4458 30.3305 17.9091 29.8673C18.3724 29.404 18.9627 29.0885 19.6052 28.9607C20.2478 28.8328 20.9139 28.8984 21.5192 29.1492C22.1245 29.3999 22.6419 29.8245 23.0059 30.3692C23.3699 30.914 23.5642 31.5545 23.5642 32.2097C23.5632 33.0879 23.2138 33.9299 22.5928 34.551C21.9718 35.172 21.1298 35.5213 20.2515 35.5223Z" fill="#4D64AE"/>
    <path d="M22.8458 52.0855C22.8851 53.2431 22.72 54.3984 22.3582 55.4987C22.1005 56.2788 21.6346 56.9738 21.0108 57.5086C20.4051 58.005 19.6824 58.3381 18.9116 58.4763C18.014 58.6506 17.1013 58.7341 16.187 58.7257C15.5857 58.7319 14.9854 58.6733 14.3967 58.5508C13.9369 58.4579 13.493 58.2987 13.0791 58.0781C12.7621 57.9142 12.4889 57.6768 12.2825 57.3858C12.1015 57.1524 12.0021 56.866 11.9997 56.5706C11.9963 56.3297 12.0478 56.0913 12.1503 55.8733C12.2529 55.6553 12.4037 55.4635 12.5915 55.3126C13.0505 54.9561 13.6229 54.7776 14.2031 54.8101C14.4406 54.805 14.6769 54.8454 14.8992 54.9292C15.0892 55.0025 15.2682 55.1014 15.4314 55.2232C15.5839 55.3464 15.7282 55.4794 15.8632 55.6215C15.9786 55.7704 16.0828 55.9081 16.1721 56.0384C16.3309 56.2566 16.5202 56.4509 16.7341 56.6153C16.8609 56.7025 17.0087 56.7539 17.1622 56.7642C17.2937 56.7657 17.4228 56.7295 17.5344 56.66C17.6593 56.5666 17.7517 56.4364 17.7987 56.2877C17.8804 56.0587 17.9305 55.8195 17.9475 55.5768C17.9926 55.1989 18.0125 54.8184 18.0071 54.4379V37.067L22.8458 35.7345V52.0855Z" fill="currentColor"/>
    <path d="M29.9177 36.1215V47.3101C29.9161 47.6153 29.9755 47.9178 30.0927 48.1997C30.2222 48.4585 30.3975 48.6918 30.61 48.8883C30.8295 49.087 31.0813 49.2468 31.3545 49.361C31.6372 49.4801 31.941 49.5408 32.2478 49.5396C32.4554 49.5303 32.6591 49.4797 32.847 49.3907C33.087 49.2806 33.3121 49.1405 33.517 48.9739C33.7602 48.7892 33.9857 48.5823 34.1907 48.356C34.4169 48.1155 34.6177 47.8523 34.7899 47.5706V36.1215H39.6286V52.1265H34.7899V50.6376C34.1832 51.1709 33.5025 51.6135 32.7688 51.9515C32.117 52.2562 31.4077 52.4186 30.6882 52.428C29.9396 52.4386 29.1954 52.3125 28.4922 52.0557C27.8418 51.8064 27.2417 51.4421 26.7205 50.9801C26.2257 50.5323 25.8247 49.9908 25.5406 49.387C25.2547 48.7702 25.1086 48.0979 25.1125 47.418V36.1215H29.9177Z" fill="currentColor"/>
    <path d="M51.3755 35.5223C50.7205 35.5216 50.0804 35.3267 49.5361 34.9622C48.9918 34.5978 48.5678 34.0801 48.3177 33.4748C48.0675 32.8694 48.0024 32.2035 48.1307 31.5611C48.2589 30.9188 48.5747 30.3289 49.0381 29.8659C49.5016 29.403 50.0918 29.0879 50.7343 28.9604C51.3768 28.8329 52.0427 28.8987 52.6478 29.1495C53.2529 29.4004 53.77 29.8249 54.1338 30.3696C54.4977 30.9143 54.6919 31.5546 54.6919 32.2097C54.6909 33.0886 54.341 33.9311 53.7192 34.5523C53.0974 35.1734 52.2544 35.5223 51.3755 35.5223Z" fill="#CA3C32"/>
    <path d="M59.337 35.5223C58.682 35.5216 58.0419 35.3267 57.4976 34.9622C56.9533 34.5978 56.5293 34.0801 56.2792 33.4748C56.029 32.8694 55.964 32.2035 56.0922 31.5611C56.2204 30.9188 56.5362 30.3289 56.9997 29.8659C57.4631 29.403 58.0533 29.0879 58.6958 28.9604C59.3383 28.8329 60.0042 28.8987 60.6093 29.1495C61.2144 29.4004 61.7315 29.8249 62.0954 30.3696C62.4592 30.9143 62.6534 31.5546 62.6534 32.2097C62.6524 33.0886 62.3026 33.9311 61.6807 34.5523C61.0589 35.1734 60.2159 35.5223 59.337 35.5223Z" fill="#9259A3"/>
    <path d="M55.3581 28.6253C54.7029 28.6253 54.0625 28.431 53.5177 28.067C52.9729 27.703 52.5484 27.1856 52.2976 26.5803C52.0469 25.975 51.9813 25.309 52.1091 24.6664C52.2369 24.0238 52.5524 23.4335 53.0157 22.9703C53.479 22.507 54.0693 22.1915 54.7118 22.0637C55.3544 21.9358 56.0205 22.0014 56.6258 22.2522C57.2311 22.5029 57.7485 22.9275 58.1125 23.4722C58.4765 24.017 58.6708 24.6575 58.6708 25.3126C58.6712 25.7478 58.5859 26.1788 58.4196 26.5809C58.2533 26.9831 58.0093 27.3484 57.7016 27.6561C57.3939 27.9638 57.0285 28.2078 56.6264 28.3741C56.2243 28.5404 55.7933 28.6258 55.3581 28.6253Z" fill="#399746"/>
    <path d="M49.2725 37.1116L54.1112 35.7791V52.1265H49.2725V37.1116Z" fill="currentColor"/>
    <path d="M64.1608 43.8746C63.6805 44.0803 63.212 44.3127 62.7576 44.5707C62.3021 44.8145 61.8709 45.1012 61.4698 45.4267C61.1069 45.7103 60.7872 46.045 60.5206 46.4205C60.2863 46.738 60.1562 47.1203 60.1484 47.5148C60.1475 47.8093 60.1876 48.1024 60.2675 48.3858C60.3391 48.6377 60.4483 48.8773 60.5913 49.0967C60.7156 49.2795 60.8704 49.4394 61.0492 49.5694C61.2141 49.6845 61.4101 49.7467 61.6112 49.7481C62.032 49.7325 62.4409 49.6039 62.7948 49.3759C63.2599 49.0935 63.7097 48.7866 64.1422 48.4565L64.1608 43.8746ZM68.9995 52.1265H64.1608V50.8535C63.8965 51.0806 63.6323 51.289 63.3755 51.4751C63.1065 51.6691 62.8199 51.8373 62.5194 51.9776C62.1825 52.1247 61.8305 52.2345 61.4698 52.3051C61.0056 52.3886 60.5344 52.4273 60.0628 52.4205C59.3888 52.4306 58.718 52.3261 58.0789 52.1116C57.5326 51.9222 57.0273 51.6303 56.5901 51.2518C56.1885 50.8855 55.8699 50.4375 55.6559 49.9379C55.4381 49.4235 55.3279 48.8699 55.3321 48.3113C55.3216 47.7446 55.4373 47.1827 55.6708 46.6662C55.9103 46.1731 56.2311 45.7239 56.6199 45.3374C57.0423 44.9265 57.5136 44.569 58.0231 44.2729C58.5809 43.9494 59.1591 43.6622 59.7539 43.4131C60.3755 43.1563 61.0194 42.9218 61.6782 42.7022L63.6323 42.0657L64.1645 41.9503V40.3647C64.1731 39.931 64.1179 39.4983 64.0008 39.0806C63.9242 38.7656 63.7779 38.4718 63.5727 38.2208C63.4011 37.9987 63.1701 37.8297 62.9065 37.7332C62.6275 37.6313 62.3324 37.5809 62.0355 37.5843C61.7079 37.576 61.3814 37.6265 61.0715 37.7332C60.8351 37.8209 60.6223 37.9623 60.4499 38.1464C60.2921 38.3143 60.176 38.517 60.1112 38.7382C60.038 38.9794 60.0028 39.2305 60.007 39.4826C60.0088 39.7773 59.9738 40.0712 59.9028 40.3573C59.8483 40.6281 59.7324 40.8827 59.5641 41.1017C59.3851 41.3135 59.1561 41.4773 58.8978 41.5781C58.5563 41.7203 58.188 41.7863 57.8184 41.7717C57.5008 41.7755 57.1849 41.7251 56.8842 41.6228C56.6231 41.5245 56.3822 41.3795 56.1732 41.1947C55.9775 41.008 55.8174 40.7873 55.7005 40.5434C55.5922 40.2866 55.5365 40.0107 55.5368 39.732C55.5399 39.1732 55.7388 38.6332 56.0988 38.2059C56.5152 37.6995 57.0291 37.2818 57.61 36.9776C58.3053 36.6143 59.0465 36.3464 59.8134 36.1811C60.6824 35.98 61.5717 35.8801 62.4636 35.8833C63.4491 35.8667 64.433 35.9717 65.3928 36.196C66.1216 36.3587 66.8142 36.6539 67.4362 37.067C67.9414 37.4117 68.3491 37.8809 68.6199 38.4292C68.8784 38.99 69.0057 39.6022 68.9921 40.2196L68.9995 52.1265Z" fill="currentColor"/>
</svg>