<?xml version="1.0" encoding="iso-8859-1"?>
<!-- Uploaded to: SVG Repo, www.svgrepo.com, Generator: SVG Repo Mixer Tools -->
<svg height="800px" width="800px" version="1.1" id="Layer_1" xmlns="http://www.w3.org/2000/svg" xmlns:xlink="http://www.w3.org/1999/xlink" 
	 viewBox="0 0 491.518 491.518" xml:space="preserve">
<path style="fill:#DC8744;" d="M399.399,220.824h-19.802h-0.004h-47.75h-0.003h-86.08h-86.075h-0.004H111.93h-0.003H92.121
	c-15.656,0-28.349,12.692-28.349,28.349v213.996c0,15.657,12.693,28.349,28.349,28.349h153.637h153.64
	c15.655,0,28.348-12.692,28.348-28.349V249.173C427.746,233.516,415.054,220.824,399.399,220.824z"/>
<path style="fill:#3A556A;" d="M331.839,133.833v69.744h0.003h47.75v-69.744C379.592,60.039,319.554,0,245.759,0v47.753
	C293.226,47.753,331.839,86.366,331.839,133.833z"/>
<path style="fill:#64798A;" d="M159.679,203.577v-69.744c0-47.468,38.614-86.08,86.079-86.08V0
	c-73.794,0-133.832,60.039-133.832,133.833v69.744h0.003H159.679z"/>
<path style="fill:#F6C358;" d="M399.399,203.577h-19.802h-0.004h-47.75h-0.003h-86.08v270.695h153.64
	c15.655,0,28.348-12.692,28.348-28.349V231.927C427.746,216.27,415.054,203.577,399.399,203.577z"/>
<path style="fill:#FCD462;" d="M159.683,203.577h-0.004H111.93h-0.003H92.121c-15.656,0-28.349,12.692-28.349,28.349v213.996
	c0,15.657,12.693,28.349,28.349,28.349h153.637V203.577H159.683z"/>
<path style="fill:#DC8744;" d="M278.164,297.611c0-17.896-14.507-32.405-32.405-32.405c-17.896,0-32.405,14.508-32.405,32.405
	c0,11.505,6.035,21.547,15.072,27.297l-9.664,46.047h53.993l-9.663-46.047C272.129,319.157,278.164,309.116,278.164,297.611z"/>
</svg>