<svg width="117" height="23" viewBox="0 0 117 23" fill="none" xmlns="http://www.w3.org/2000/svg">
<path fill-rule="evenodd" clip-rule="evenodd" d="M10.4367 0.559147C7.77655 0.769408 5.30563 1.92138 3.49521 3.79545C1.71158 5.64185 0.755412 7.68345 0.441302 10.3159C-0.0546387 14.4733 2.11824 18.897 5.64979 20.9192C8.5186 22.5621 12.2193 22.9553 15.3842 21.9536C15.7731 21.8305 16.091 21.6845 16.091 21.629C16.091 21.5736 15.457 20.9072 14.6822 20.1484L13.2733 18.7688L12.0411 18.8067C9.86015 18.8738 8.26282 18.2943 6.85133 16.9238C5.24581 15.3649 4.58813 13.7728 4.5853 11.4379C4.58247 9.22566 5.31991 7.48577 6.88079 6.0217C9.63651 3.43696 13.9573 3.51349 16.6368 6.19421C18.4255 7.98384 19.1987 10.9373 18.5362 13.4511L18.303 14.3359L19.1143 15.1548C19.5605 15.6052 20.1907 16.2537 20.5148 16.5956C20.8388 16.9376 21.1821 17.2175 21.2776 17.2175C21.494 17.2175 22.1992 15.7012 22.5705 14.4374C22.7894 13.6927 22.8481 13.0262 22.8408 11.3647C22.8324 9.45626 22.7909 9.12543 22.4279 8.07251C21.4171 5.14188 19.5943 3.00181 17.0232 1.72678C14.9102 0.678838 13.0641 0.351519 10.4367 0.559147ZM108.196 0.558709C106.219 0.752583 104.377 1.68493 103.283 3.04541C102.218 4.37004 101.838 5.75598 102.099 7.36126C102.495 9.79748 104.036 11.1164 108.472 12.8133C109.319 13.1374 110.299 13.5683 110.651 13.7708C112.736 14.9724 112.858 17.2206 110.899 18.3528C110.269 18.7168 110.075 18.753 108.792 18.7436C107.062 18.7312 106.093 18.4009 104.665 17.3378L103.687 16.6103L102.509 17.7552C100.872 19.3461 100.891 19.2819 101.86 20.0298C102.597 20.5981 104.171 21.4545 105.279 21.8898C106.67 22.4363 109.214 22.6383 110.756 22.3245C112.871 21.8939 115.002 20.3402 115.875 18.592C116.247 17.8473 116.313 17.5274 116.356 16.2472C116.4 14.9522 116.361 14.655 116.05 13.8968C115.584 12.7622 115.019 12.0738 113.925 11.3085C112.907 10.5958 112.458 10.3784 109.718 9.26765C107.607 8.41212 106.852 7.94536 106.399 7.2142C105.944 6.48056 106.049 5.87201 106.764 5.09564C107.767 4.00746 110.184 3.83363 112.131 4.70965C112.577 4.90996 112.982 5.13954 113.033 5.21972C113.269 5.5962 113.687 5.27576 114.557 4.0518C115.069 3.33234 115.487 2.64844 115.487 2.53227C115.487 2.41594 115.12 2.11672 114.67 1.86724C112.81 0.834813 110.383 0.344351 108.196 0.558709ZM26.8395 8.18225C26.886 14.6787 26.9223 15.6285 27.1517 16.3396C28.1376 19.3953 30.018 21.2214 33.1283 22.1435C34.358 22.508 37.6499 22.5176 38.9619 22.1605C42.149 21.2929 44.2528 19.1804 45.0504 16.0469C45.3042 15.0496 45.3297 14.3091 45.3297 7.92619V0.902851L43.2837 0.862172L41.2377 0.821498L41.2325 7.51972C41.226 15.7998 41.1735 16.1366 39.6757 17.4942C38.5499 18.5148 37.8577 18.7538 36.0298 18.7538C34.517 18.7538 34.4368 18.7372 33.5003 18.2302C32.4664 17.6705 31.5597 16.6793 31.2351 15.7543C31.107 15.3891 31.0417 13.1754 31.0078 8.03593L30.96 0.829692H28.8734H26.7869L26.8395 8.18225ZM56.159 1.01259C56.0799 1.11326 55.6966 1.95269 55.3072 2.87817C54.9178 3.80364 54.4464 4.89153 54.2599 5.29581C54.0731 5.69994 53.6724 6.62176 53.3693 7.34428C53.0661 8.06666 52.6229 9.07393 52.3846 9.58253C52.1462 10.0911 51.9511 10.5882 51.9511 10.6872C51.9511 10.7862 51.8941 10.9298 51.8245 11.0062C51.7547 11.0827 51.3797 11.9024 50.9909 12.8279C50.6021 13.7534 50.1315 14.841 49.945 15.2448C49.7586 15.6485 49.224 16.8959 48.757 18.0165C47.8488 20.1963 47.3966 21.2341 47.1774 21.6416C46.899 22.1594 47.0146 22.1924 49.1058 22.1924C51.3896 22.1924 51.3287 22.2161 51.7309 21.1681C51.87 20.806 52.0874 20.2801 52.2143 19.9993C52.3413 19.7187 52.6237 19.0602 52.8421 18.5361L53.2393 17.5833L57.5749 17.5445L61.9107 17.5057L62.1326 17.8388C62.2546 18.0218 62.6995 18.994 63.121 19.9992C63.5426 21.0042 63.9553 21.9089 64.0382 22.0095C64.2217 22.232 68.1027 22.2714 68.2407 22.052C68.2892 21.9748 68.2652 21.7938 68.1876 21.6497C68.1099 21.5055 67.9464 21.1571 67.8242 20.8755C67.7022 20.5938 67.1006 19.2111 66.4874 17.8028C65.8744 16.3944 65.0246 14.4191 64.5992 13.4132C64.1738 12.4072 63.6726 11.2535 63.4857 10.8492C63.2988 10.4451 62.8974 9.52327 62.5937 8.80075C62.2898 8.07837 61.9138 7.21098 61.7577 6.87342C61.6018 6.53586 61.4741 6.22494 61.4741 6.18265C61.4741 6.14051 61.3128 5.75818 61.1158 5.33341C60.9188 4.9085 60.5092 3.96825 60.2056 3.24397C59.9019 2.51968 59.5262 1.68025 59.3704 1.37839L59.0873 0.829692H57.695C56.757 0.829692 56.2558 0.88939 56.159 1.01259ZM71.2122 1.01757C71.1718 1.12087 71.1571 5.91093 71.1796 11.6623L71.2203 22.1192H75.9074C80.659 22.1192 81.1217 22.0788 82.9009 21.5083C84.5262 20.9871 86.5036 19.5252 87.5644 18.0609C90.2506 14.3524 90.453 9.57083 88.0872 5.71399C86.5472 3.20358 84.184 1.61718 81.1274 1.042C79.5917 0.753019 71.3233 0.732535 71.2122 1.01757ZM93.6827 1.01259C93.6436 1.11326 93.629 5.90332 93.6502 11.6573L93.6887 22.1192H95.6975H97.7062L97.7445 11.4744L97.7825 0.829692H95.7681C94.2937 0.829692 93.7347 0.878709 93.6827 1.01259ZM79.5841 4.50714C81.743 4.81602 83.2842 5.76052 84.4072 7.46265C85.2454 8.73344 85.4952 9.68525 85.4888 11.5842C85.484 12.9676 85.4281 13.3327 85.0909 14.1828C84.3387 16.0797 83.1385 17.3417 81.4129 18.0506C80.4926 18.4286 80.3233 18.4482 77.9162 18.4545L75.3867 18.4612L75.348 11.6009C75.3201 6.65717 75.3563 4.68492 75.4777 4.54095C75.6907 4.28884 77.929 4.2704 79.5841 4.50714ZM57.9064 8.00813C57.9609 8.12402 58.0829 8.36603 58.1775 8.546C58.272 8.72598 58.3494 8.93551 58.3494 9.01145C58.3494 9.08739 58.543 9.56556 58.7797 10.0742C59.8847 12.4485 60.3208 13.5816 60.1823 13.7178C60.0975 13.8012 59.0319 13.8431 57.596 13.8194C54.7768 13.7727 54.8193 13.7995 55.4389 12.4677C55.6484 12.0173 55.8198 11.6225 55.8198 11.5905C55.8198 11.5586 56.0435 11.0503 56.317 10.4609C56.5903 9.87151 56.9715 9.00954 57.1639 8.54527C57.5048 7.72281 57.7044 7.57839 57.9064 8.00813ZM10.7592 14.2889C10.7864 14.3682 12.5808 16.1789 14.7464 18.3127L18.6841 22.1924H21.3059C22.7479 22.1924 23.9727 22.148 24.0277 22.0939C24.0828 22.0398 22.3387 20.229 20.1519 18.0701L16.1758 14.1448H13.4427C11.7136 14.1448 10.7278 14.1977 10.7592 14.2889Z" fill="currentColor"/>
</svg>
