<svg width="80" height="80" viewBox="0 0 80 80" fill="none" xmlns="http://www.w3.org/2000/svg">
<path d="M36.7154 38.7478L47.8482 47.524L40.472 29.3303L36.7154 38.7478ZM40 11.5C24.2555 11.5 11.5 24.2555 11.5 40C11.5 55.7445 24.2555 68.5 40 68.5C55.7445 68.5 68.5 55.7445 68.5 40C68.5 24.2555 55.7445 11.5 40 11.5ZM53.7673 52.5988C53.7388 53.721 52.8125 54.6027 51.6886 54.5742C51.131 54.5742 50.7053 54.3604 50.1122 53.8777L35.4079 42.0021L30.4721 54.3604H26.2042L38.6641 24.423C38.9615 23.6713 39.6758 23.1886 40.4827 23.2171C41.2522 23.1886 41.9772 23.6624 42.2462 24.423L53.5838 51.7171C53.6853 51.986 53.7691 52.2746 53.7691 52.5436C53.7691 52.5614 53.7673 52.5614 53.7673 52.5988Z" fill="black"/>
</svg>
