<svg width="80" height="80" viewBox="0 0 80 80" fill="none" xmlns="http://www.w3.org/2000/svg">
<path d="M27.5632 35.3364C27.5632 36.0379 27.639 36.6066 27.7717 37.0237C27.9234 37.4407 28.1129 37.8957 28.3783 38.3886C28.4731 38.5403 28.511 38.6919 28.511 38.8246C28.511 39.0142 28.3973 39.2038 28.1508 39.3934L26.9565 40.1896C26.7859 40.3033 26.6153 40.3602 26.4636 40.3602C26.274 40.3602 26.0845 40.2654 25.8949 40.0948C25.6295 39.8104 25.402 39.5071 25.2124 39.2038C25.0228 38.8815 24.8333 38.5213 24.6247 38.0853C23.146 39.8294 21.2882 40.7014 19.0512 40.7014C17.4588 40.7014 16.1886 40.2465 15.2597 39.3365C14.3308 38.4265 13.8568 37.2132 13.8568 35.6966C13.8568 34.0852 14.4255 32.7772 15.582 31.7914C16.7384 30.8056 18.2739 30.3127 20.2266 30.3127C20.8711 30.3127 21.5346 30.3695 22.2361 30.4643C22.9375 30.5591 23.6579 30.7108 24.4162 30.8814V29.4975C24.4162 28.0567 24.1129 27.052 23.5252 26.4643C22.9185 25.8766 21.8948 25.5922 20.4351 25.5922C19.7716 25.5922 19.0891 25.6681 18.3877 25.8387C17.6862 26.0093 17.0038 26.2178 16.3403 26.4832C16.0369 26.6159 15.8094 26.6918 15.6767 26.7297C15.544 26.7676 15.4493 26.7866 15.3734 26.7866C15.108 26.7866 14.9753 26.597 14.9753 26.1989V25.2699C14.9753 24.9666 15.0132 24.7391 15.108 24.6064C15.2028 24.4737 15.3734 24.341 15.6388 24.2083C16.3023 23.8671 17.0986 23.5827 18.0275 23.3552C18.9564 23.1088 19.9422 22.995 20.9849 22.995C23.2408 22.995 24.8901 23.5069 25.9518 24.5306C26.9944 25.5543 27.5252 27.1088 27.5252 29.1942V35.3364H27.5632ZM19.8664 38.218C20.492 38.218 21.1365 38.1042 21.819 37.8768C22.5015 37.6493 23.1081 37.2322 23.62 36.6635C23.9233 36.3033 24.1508 35.9052 24.2645 35.4502C24.3783 34.9952 24.4541 34.4454 24.4541 33.8009V33.0047C23.9043 32.8719 23.3167 32.7582 22.71 32.6824C22.1034 32.6065 21.5157 32.5686 20.928 32.5686C19.6578 32.5686 18.7289 32.8151 18.1033 33.3269C17.4777 33.8388 17.1744 34.5592 17.1744 35.5071C17.1744 36.3981 17.4019 37.0616 17.8758 37.5166C18.3308 37.9905 18.9943 38.218 19.8664 38.218ZM35.0893 40.2654C34.7481 40.2654 34.5206 40.2085 34.3689 40.0758C34.2173 39.9621 34.0846 39.6967 33.9708 39.3365L29.5158 24.6823C29.402 24.3031 29.3452 24.0567 29.3452 23.924C29.3452 23.6206 29.4968 23.45 29.8002 23.45H31.658C32.0182 23.45 32.2646 23.5069 32.3973 23.6396C32.549 23.7533 32.6628 24.0187 32.7765 24.3789L35.9614 36.9289L38.9188 24.3789C39.0135 23.9998 39.1273 23.7533 39.279 23.6396C39.4306 23.5259 39.696 23.45 40.0373 23.45H41.5539C41.9141 23.45 42.1605 23.5069 42.3122 23.6396C42.4638 23.7533 42.5965 24.0187 42.6724 24.3789L45.6677 37.0805L48.9473 24.3789C49.0611 23.9998 49.1938 23.7533 49.3265 23.6396C49.4781 23.5259 49.7246 23.45 50.0658 23.45H51.8289C52.1322 23.45 52.3028 23.6017 52.3028 23.924C52.3028 24.0187 52.2839 24.1135 52.2649 24.2273C52.246 24.341 52.208 24.4927 52.1322 24.7012L47.5634 39.3554C47.4497 39.7346 47.317 39.981 47.1653 40.0948C47.0137 40.2085 46.7672 40.2844 46.4449 40.2844H44.8146C44.4544 40.2844 44.2079 40.2275 44.0563 40.0948C43.9046 39.9621 43.7719 39.7156 43.6961 39.3365L40.7576 27.1088L37.8382 39.3175C37.7434 39.6967 37.6296 39.9431 37.478 40.0758C37.3263 40.2085 37.0609 40.2654 36.7197 40.2654H35.0893ZM59.4498 40.7773C58.464 40.7773 57.4782 40.6635 56.5304 40.436C55.5825 40.2085 54.8431 39.9621 54.3502 39.6777C54.0469 39.5071 53.8384 39.3175 53.7626 39.1469C53.6867 38.9763 53.6488 38.7867 53.6488 38.6161V37.6493C53.6488 37.2512 53.8005 37.0616 54.0848 37.0616C54.1986 37.0616 54.3123 37.0805 54.4261 37.1185C54.5398 37.1564 54.7104 37.2322 54.9 37.308C55.5446 37.5924 56.246 37.8199 56.9854 37.9715C57.7437 38.1232 58.483 38.199 59.2413 38.199C60.4356 38.199 61.3646 37.9905 62.0091 37.5734C62.6537 37.1564 62.9949 36.5497 62.9949 35.7725C62.9949 35.2416 62.8243 34.8056 62.4831 34.4454C62.1418 34.0852 61.4973 33.763 60.5683 33.4596L57.8195 32.6065C56.4356 32.1705 55.4119 31.526 54.7863 30.6729C54.1607 29.8387 53.8384 28.9098 53.8384 27.924C53.8384 27.1278 54.009 26.4264 54.3502 25.8197C54.6915 25.2131 55.1465 24.6823 55.7152 24.2652C56.2839 23.8292 56.9285 23.5069 57.6868 23.2794C58.4451 23.0519 59.2413 22.9571 60.0754 22.9571C60.4925 22.9571 60.9285 22.9761 61.3456 23.033C61.7816 23.0898 62.1797 23.1657 62.5778 23.2415C62.957 23.3363 63.3172 23.4311 63.6584 23.5448C63.9997 23.6586 64.2651 23.7723 64.4546 23.886C64.7201 24.0377 64.9096 24.1894 65.0234 24.36C65.1371 24.5116 65.194 24.7202 65.194 24.9856V25.8766C65.194 26.2747 65.0423 26.4832 64.758 26.4832C64.6063 26.4832 64.3599 26.4074 64.0376 26.2557C62.957 25.7628 61.7437 25.5164 60.3977 25.5164C59.3171 25.5164 58.464 25.687 57.8764 26.0472C57.2887 26.4074 56.9854 26.9572 56.9854 27.7344C56.9854 28.2653 57.1749 28.7202 57.5541 29.0804C57.9332 29.4406 58.6347 29.8008 59.6394 30.1231L62.3314 30.9762C63.6963 31.4122 64.6821 32.0189 65.2698 32.7961C65.8575 33.5734 66.1419 34.4644 66.1419 35.4502C66.1419 36.2654 65.9712 37.0047 65.649 37.6493C65.3077 38.2938 64.8528 38.8625 64.2651 39.3175C63.6774 39.7915 62.976 40.1327 62.1608 40.3792C61.3077 40.6446 60.4167 40.7773 59.4498 40.7773Z" fill="#26282D"/>
<path fill-rule="evenodd" clip-rule="evenodd" d="M63.0328 49.9907C56.7958 54.5974 47.734 57.0429 39.9425 57.0429C29.0229 57.0429 19.1839 53.0049 11.7525 46.2939C11.1648 45.7631 11.6956 45.0427 12.3971 45.4598C20.4351 50.1234 30.3499 52.948 40.606 52.948C47.5255 52.948 55.1275 51.5073 62.1229 48.5499C63.1655 48.0759 64.0565 49.2324 63.0328 49.9907Z" fill="#FF9900"/>
<path fill-rule="evenodd" clip-rule="evenodd" d="M65.63 47.0333C64.8338 46.0096 60.3598 46.5404 58.3313 46.7868C57.7247 46.8627 57.6299 46.3318 58.1797 45.9337C61.7437 43.4313 67.6016 44.1517 68.2841 44.9859C68.9666 45.8389 68.0945 51.6968 64.758 54.5026C64.2461 54.9386 63.7532 54.7111 63.9807 54.1424C64.739 52.2656 66.4262 48.038 65.63 47.0333Z" fill="#FF9900"/>
</svg>
