<svg width="80" height="80" viewBox="0 0 80 80" fill="none" xmlns="http://www.w3.org/2000/svg">
<path d="M49.9076 29.6511L54.8624 24.6964L55.1926 22.6101C46.1636 14.4001 31.811 15.331 23.6718 24.5525C21.4109 27.1137 19.7337 30.3069 18.8392 33.6042L20.6138 33.3541L30.5231 31.7201L31.2882 30.9376C35.6961 26.0966 43.1491 25.4454 48.2386 29.5643L49.9076 29.6511Z" fill="#EA4335"/>
<path d="M61.9206 33.4585C60.7817 29.2645 58.4436 25.4941 55.1926 22.6101L48.2386 29.5643C51.175 31.9636 52.8478 35.5782 52.7761 39.3693V40.6037C56.1941 40.6037 58.9653 43.3747 58.9653 46.7927C58.9653 50.2109 56.1941 52.9124 52.7761 52.9124H40.3806L39.1636 54.2336V61.657L40.3806 62.8217H52.7761C61.6668 62.891 68.9303 55.8094 68.9995 46.9187C69.0414 41.5298 66.3844 36.4777 61.9206 33.4585Z" fill="#4285F4"/>
<path d="M28.0024 62.8218L40.3806 62.8217V52.9124L28.0024 52.9123C27.1204 52.9121 26.2663 52.7226 25.4643 52.3561L23.7082 52.8949L18.7187 57.8497L18.2841 59.5361C21.0822 61.6489 24.4962 62.837 28.0024 62.8218Z" fill="#34A853"/>
<path d="M28.0024 30.6769C19.1115 30.7299 11.9473 37.9805 12.0003 46.8711C12.0299 51.8359 14.3486 56.5095 18.2841 59.5361L25.4643 52.3561C22.3491 50.9487 20.9649 47.2826 22.3723 44.1676C23.7795 41.0527 27.4457 39.6684 30.5605 41.0756C31.9332 41.6957 33.0324 42.7952 33.6525 44.1676L40.8327 36.9876C37.7777 32.9938 33.0306 30.6588 28.0024 30.6769Z" fill="#FBBC05"/>
</svg>
