<svg width="80" height="80" viewBox="0 0 80 80" fill="none" xmlns="http://www.w3.org/2000/svg">
<path d="M67.4256 37.461L42.5385 12.5752C41.1056 11.1416 38.7812 11.1416 37.347 12.5752L32.1796 17.7438L38.7347 24.2988C40.2582 23.7839 42.005 24.1295 43.219 25.3441C44.4405 26.5661 44.7829 28.3279 44.255 29.857L50.5737 36.175C52.1028 35.6478 53.8658 35.9889 55.0866 37.2116C56.7925 38.9175 56.7925 41.6817 55.0866 43.3889C53.3794 45.0954 50.6152 45.0954 48.9075 43.3889C47.6246 42.1048 47.307 40.219 47.9577 38.6384L42.0646 32.7459V48.2523C42.4802 48.4582 42.8729 48.7324 43.219 49.0785C44.9249 50.7844 44.9249 53.5486 43.219 55.2564C41.5131 56.9617 38.7471 56.9617 37.0424 55.2564C35.3365 53.548 35.3365 50.7838 37.0424 49.0785C37.4642 48.6573 37.9524 48.3385 38.4735 48.1251V32.4741C37.9524 32.2608 37.4655 31.945 37.0424 31.5207C35.7502 30.2292 35.4395 28.3322 36.102 26.7454L29.64 20.2822L12.5747 37.3456C11.1411 38.7804 11.1411 41.1048 12.5747 42.5384L37.463 67.4248C38.8959 68.8584 41.2197 68.8584 42.6545 67.4248L67.4256 42.6538C68.8591 41.2202 68.8591 38.8946 67.4256 37.461Z" fill="#F05133"/>
</svg>
