<svg width="80" height="80" viewBox="0 0 80 80" fill="none" xmlns="http://www.w3.org/2000/svg">
<path fill-rule="evenodd" clip-rule="evenodd" d="M56.0992 19.5812C60.7899 22.8088 64.4095 27.3615 66.4935 32.6585C68.5811 37.9519 69.0349 43.7499 67.8005 49.3047C66.5661 54.8595 63.7016 59.9205 59.57 63.8379C59.0871 64.3062 58.5244 64.6874 57.9072 64.9561C57.29 65.2284 56.6292 65.3881 55.9576 65.4244C55.2859 65.4644 54.6106 65.3845 53.968 65.1848C53.3254 64.9888 52.7227 64.6802 52.1854 64.2699C50.4355 62.9666 48.4895 61.9536 46.4201 61.2711C44.347 60.5849 42.1832 60.2364 40.0012 60.2364C37.8192 60.2364 35.6518 60.5849 33.5823 61.2711C31.5129 61.9536 29.5633 62.9666 27.8134 64.2699C27.2833 64.6766 26.6879 64.9888 26.0489 65.1885C25.4099 65.3881 24.7419 65.4716 24.0739 65.4353C23.4058 65.4027 22.7487 65.2502 22.1351 64.9852C21.5216 64.7201 20.9588 64.3498 20.4723 63.8887C16.3117 59.9568 13.4254 54.8667 12.191 49.2757C10.9566 43.6846 11.4322 37.8539 13.5561 32.5387C15.68 27.2199 19.3505 22.6636 24.0957 19.4578C28.8408 16.252 34.4392 14.542 40.1682 14.5565C45.8609 14.6037 51.4085 16.3573 56.0992 19.5812ZM45.5051 56.3952C47.2551 55.6981 48.8453 54.6525 50.1777 53.3238C51.5101 51.9913 52.5557 50.4048 53.2528 48.6548C53.9499 46.9085 54.2839 45.0352 54.233 43.1545C54.233 39.3823 52.7336 35.7663 50.0652 33.0978C47.3967 30.4294 43.777 28.9299 40.0012 28.9299C36.2254 28.9299 32.6057 30.4294 29.9373 33.0978C27.2688 35.7663 25.7694 39.3823 25.7694 43.1545C25.7185 45.0352 26.0525 46.9085 26.7496 48.6548C27.4467 50.4048 28.4923 51.9913 29.8247 53.3238C31.1571 54.6525 32.7473 55.6981 34.4936 56.3952C36.2436 57.0923 38.1169 57.4263 40.0012 57.3755C41.8818 57.4263 43.7552 57.0923 45.5051 56.3952Z" fill="#62D84E"/>
</svg>
