<svg width="88" height="88" viewBox="0 0 88 88" fill="none" xmlns="http://www.w3.org/2000/svg">
<circle cx="43.7798" cy="43.7798" r="43.7798" fill="#DE3933"/>
<g clip-path="url(#clip0_12375_10440)">
<mask id="mask0_12375_10440" style="mask-type:luminance" maskUnits="userSpaceOnUse" x="7" y="34" width="69" height="20">
<path d="M75.7613 34.6177H7.96875V53.4489H75.7613V34.6177Z" fill="white"/>
</mask>
<g mask="url(#mask0_12375_10440)">
<path d="M14.7931 49.1121C14.7291 49.1121 14.6758 49.1121 14.6117 49.1228C14.3556 49.1341 14.0989 49.1341 13.8428 49.1228C13.7894 49.1228 13.7254 49.1228 13.672 49.1121C13.6287 49.0907 13.5861 49.1121 13.5434 49.0907C13.069 49.0522 12.6075 48.9168 12.1875 48.6928C11.9201 48.5421 11.6853 48.3482 11.4393 48.1548C11.2468 48.0133 11.0615 47.8625 10.8838 47.7029C10.7017 47.5522 10.5203 47.4016 10.3283 47.2396L9.75139 46.7563C9.61266 46.637 9.47395 46.5083 9.33459 46.3897C9.13183 46.207 8.92908 46.0351 8.7257 45.8518C8.68302 45.8091 8.64034 45.7658 8.59766 45.7338C8.98245 45.4538 9.38856 45.2278 9.84743 45.1199C10.2743 45.0232 10.6697 45.0665 11.0545 45.3245C11.9094 45.9058 12.8498 46.2177 13.8961 46.1964C14.7718 46.1744 15.5841 45.9058 16.321 45.4325C16.9085 45.0665 17.432 44.6252 17.9769 44.1946C18.6846 43.642 19.3897 43.086 20.0923 42.5268C20.1237 42.5055 20.1557 42.4728 20.209 42.4195C18.1156 42.4408 16.0536 42.3975 13.9815 42.3328C14.0568 42.2362 14.1416 42.1822 14.2269 42.1182C14.8044 41.6549 15.466 41.4183 16.1716 41.2356C17.8162 40.805 19.4721 40.461 21.1387 40.1271C21.9716 39.9657 22.8046 39.7938 23.6382 39.6324C23.6848 39.6197 23.7283 39.5977 23.7662 39.5678C24.8666 38.6852 25.967 37.8133 27.0561 36.9207C27.7403 36.3608 28.4237 35.8015 29.1928 35.3496C29.7483 35.0263 30.3353 34.747 30.9767 34.639C30.9874 34.639 30.9982 34.6283 30.9982 34.6177H31.6389C31.6923 34.6823 31.7778 34.661 31.8418 34.693C32.3652 34.865 32.6861 35.2309 32.91 35.7155C32.9634 35.8335 32.9954 35.9522 33.0382 36.0702C33.0701 36.1455 33.0489 36.2102 32.9847 36.2642C32.7286 36.4795 32.4719 36.7054 32.2158 36.9207C31.8737 37.2107 31.5317 37.5014 31.1901 37.7813C30.7206 38.1686 30.2505 38.5666 29.7696 38.9545C29.3208 39.3311 28.872 39.7077 28.4132 40.0844C27.9003 40.5037 27.3981 40.9236 26.8853 41.3429C26.4152 41.7302 25.9456 42.1069 25.4648 42.4948C24.952 42.9141 24.4291 43.3234 23.9156 43.7427C23.3281 44.216 22.7299 44.6899 22.1317 45.1525C20.9459 46.0777 19.7608 47.003 18.5318 47.8642C18.1363 48.1435 17.6988 48.3375 17.25 48.5095C16.7164 48.7141 16.1716 48.8648 15.6161 48.9614C15.3914 49.0048 15.1566 49.0368 14.9319 49.0587C14.9005 49.1121 14.8352 49.0801 14.7931 49.1121ZM73.6301 40.741C73.993 40.7943 74.3458 40.8697 74.6551 41.1063C74.88 41.2789 75.0187 41.4942 75.0934 41.7629C75.1041 41.8062 75.1041 41.8489 75.1466 41.8815V42.3981C75.1361 42.3981 75.1254 42.4088 75.1254 42.4088C75.0719 42.6881 74.88 42.8714 74.6979 43.0647L72.8393 45.0671C72.3805 45.5618 71.921 46.0671 71.4507 46.5623L71.002 47.0463C71.0447 47.0896 71.0872 47.0683 71.1306 47.0683H74.7086C74.8053 47.0683 74.8585 47.0896 74.8692 47.1863L74.9652 47.7355C74.976 47.9289 74.976 48.1335 74.9652 48.3268C74.9332 48.5208 74.912 48.7254 74.8692 48.9187C74.848 49.0048 74.816 49.0267 74.7299 49.0267C73.0639 49.0267 71.3868 49.0267 69.7208 49.016H69.6774C69.6349 48.9941 69.5922 49.016 69.5494 48.9941C69.1966 48.9621 68.8553 48.8974 68.5345 48.7574C68.0969 48.5641 67.7656 48.2628 67.6909 47.7462C67.6801 47.6532 67.6801 47.5592 67.6909 47.4662C67.7334 47.111 67.9148 46.831 68.1609 46.5623C68.4383 46.2717 68.7059 45.9704 68.9832 45.6691C69.3146 45.3138 69.6349 44.9592 69.9662 44.6146C70.2224 44.3459 70.479 44.0659 70.7351 43.7967C70.9912 43.5173 71.2481 43.2267 71.5147 42.9574C71.5894 42.8714 71.6641 42.7854 71.7501 42.6888C71.7069 42.6561 71.6534 42.6774 71.6109 42.6774H68.3103C68.0535 42.6774 68.0322 42.6561 68.011 42.3981L67.9795 42.1075C67.9575 42.0535 67.9895 41.9995 67.9575 41.9462V41.4402C67.9895 41.3863 67.9575 41.3329 67.979 41.2789C68.0002 41.1069 68.0215 40.945 68.0642 40.773C68.0862 40.6977 68.1182 40.687 68.1709 40.687H73.384C73.4695 40.7516 73.5554 40.719 73.6301 40.741ZM43.2183 47.3369C43.2183 47.7569 43.4644 48.0255 43.8699 48.0582C43.8592 48.1548 43.8059 48.2302 43.7632 48.3055C43.4744 48.8114 43.0263 49.0694 42.4701 49.1661C42.3747 49.188 42.2892 49.188 42.1932 49.1987C42.108 49.2095 42.0219 49.2095 41.9364 49.1987C41.659 49.188 41.3917 49.1554 41.1355 49.0374C40.8362 48.8974 40.6228 48.6821 40.5054 48.3808C40.4505 48.2438 40.4213 48.0978 40.4199 47.9502C40.4087 47.8962 40.4087 47.8429 40.4087 47.7996V42.7314C40.4087 42.6774 40.4194 42.6235 40.3979 42.5808C40.3772 42.2688 40.3127 41.9782 39.9926 41.8382C39.9391 41.8169 39.8857 41.7842 39.8432 41.7949C39.7038 41.8062 39.7465 41.7089 39.7678 41.6555C39.8432 41.5049 39.9284 41.3649 40.0351 41.2463C40.3552 40.8803 40.7722 40.719 41.2422 40.6543C41.2957 40.633 41.3489 40.665 41.4024 40.633H41.7018C41.7552 40.665 41.8192 40.633 41.8832 40.6543C42.172 40.7083 42.4494 40.7623 42.684 40.9343C43.0263 41.1816 43.1543 41.5369 43.1863 41.9455V42.1608C43.7632 41.4076 44.4041 40.805 45.3657 40.6543C45.4191 40.633 45.4724 40.665 45.5258 40.633H45.8459C45.9106 40.665 45.9853 40.633 46.0593 40.6543C46.3694 40.7083 46.6795 40.7516 46.9569 40.945C47.203 41.117 47.3204 41.3649 47.3736 41.6555C47.3951 41.8062 47.3951 41.9568 47.3951 42.1075C47.3737 42.1502 47.3951 42.1935 47.3736 42.2362C47.3204 42.5481 47.2564 42.8494 47.107 43.1294C46.9141 43.4847 46.6475 43.7107 46.22 43.646C46.0493 43.6247 45.8891 43.56 45.7177 43.506C45.5526 43.4661 45.3848 43.4373 45.2157 43.42C45.173 43.3987 45.1303 43.42 45.0876 43.3987C44.6608 43.366 44.244 43.3987 43.8484 43.5707C43.5178 43.7213 43.229 44.0546 43.2082 44.4959C43.1863 44.5392 43.2082 44.5819 43.1863 44.6252C43.1863 45.0985 43.1863 45.5724 43.1755 46.0564V47.1649C43.229 47.2076 43.197 47.2723 43.2183 47.3369ZM29.2461 40.719C29.3843 40.611 29.5129 40.493 29.6516 40.3851L30.1859 39.9438C30.3572 39.8038 30.5279 39.6532 30.6986 39.5025C30.9335 39.3092 31.1688 39.1259 31.393 38.9326C31.6064 38.7386 31.831 38.5666 32.0444 38.3839C32.2693 38.19 32.4932 38.018 32.7173 37.824C32.8033 37.7594 32.878 37.684 32.9527 37.6087C32.9742 37.5874 32.9954 37.5553 33.0382 37.566C33.0701 37.5767 33.0594 37.6194 33.0594 37.6413V47.1216C33.0594 47.2936 33.0594 47.4656 33.1129 47.6269C33.1981 47.9176 33.3795 48.0575 33.6791 48.0896C33.4969 48.5095 32.792 49.1334 31.831 49.1767C31.7458 49.1875 31.6596 49.1875 31.5744 49.1767C31.2541 49.1767 30.9447 49.1121 30.6666 48.9508C30.3465 48.7681 30.1219 48.4988 30.0472 48.1222C29.9937 47.9069 30.0257 47.6916 30.0257 47.4763C30.0152 47.175 30.0152 46.885 30.0152 46.5837C29.9937 46.5297 30.0044 46.4864 30.0044 46.433V41.5476C30.0044 41.4936 30.0152 41.4396 29.9937 41.3969C29.9617 41.1709 29.8657 40.977 29.6516 40.8584C29.5449 40.805 29.449 40.751 29.3315 40.751C29.31 40.7403 29.2461 40.783 29.2461 40.719ZM38.3045 47.3802C38.326 47.7456 38.5074 47.9829 38.8382 48.0362C38.9449 48.0582 38.9562 48.0795 38.9027 48.1762C38.6248 48.7361 38.1653 49.0481 37.5564 49.1554C37.4497 49.1774 37.343 49.1774 37.247 49.188C37.1618 49.1988 37.0759 49.1988 36.9909 49.188C36.7233 49.188 36.4567 49.1341 36.2106 49.0261C35.7623 48.8328 35.5484 48.4674 35.4949 47.9935C35.4844 47.9395 35.4844 47.8856 35.4844 47.8429V42.7747C35.4844 42.7208 35.4949 42.6668 35.4737 42.6241C35.4522 42.3761 35.4309 42.1288 35.2388 41.9462C35.1428 41.8489 35.0142 41.8062 34.886 41.7842C34.8115 41.7629 34.79 41.7522 34.822 41.6769C34.9182 41.4616 35.0569 41.2896 35.2175 41.117C35.5269 40.805 35.9117 40.6977 36.318 40.6336C36.3712 40.6117 36.4247 40.6437 36.4779 40.6117H36.7768C36.83 40.6437 36.8947 40.6117 36.9589 40.633C37.2255 40.687 37.4817 40.741 37.717 40.8916C37.9839 41.0636 38.1333 41.3109 38.2193 41.6122C38.23 41.6555 38.2405 41.6982 38.2505 41.7522C38.2725 41.7955 38.2505 41.8489 38.2725 41.8922V47.1323C38.2725 47.1756 38.2832 47.2183 38.2832 47.2616C38.3045 47.2942 38.2725 47.3476 38.3045 47.3802ZM27.5802 42.9894C27.8043 43.0541 28.0177 43.1401 28.1998 43.2907C28.4559 43.5167 28.5839 43.7967 28.6374 44.13C28.6479 44.2266 28.6479 44.3132 28.6374 44.4099C28.5199 45.0552 28.1351 45.4431 27.5262 45.5505C27.4091 45.5613 27.2912 45.5613 27.1741 45.5505C26.8912 45.5253 26.6281 45.3947 26.4371 45.1845C26.1804 44.9159 26.063 44.5819 26.0737 44.2053C26.0844 43.592 26.5865 43.0327 27.1954 42.9894C27.2808 42.9787 27.3775 42.9787 27.4622 42.9681C27.4942 42.9894 27.5476 42.9681 27.5802 42.9894ZM37.9204 38.19C37.8452 38.6099 37.6211 38.9326 37.2255 39.1158C37.1258 39.1558 37.0222 39.1846 36.9162 39.2018C36.8095 39.2125 36.7133 39.2125 36.6061 39.2018C36.1039 39.1585 35.6343 38.7172 35.6016 38.1579C35.5909 38.0721 35.5909 37.9852 35.6016 37.8993C35.6663 37.3507 36.0504 36.9094 36.6813 36.8561C36.7305 36.8454 36.7815 36.8454 36.8307 36.8561C37.3542 36.9094 37.7917 37.2434 37.9097 37.8673C37.9312 37.986 37.9312 38.0826 37.9204 38.19Z" fill="white"/>
<path fill-rule="evenodd" clip-rule="evenodd" d="M48.4536 41.935C48.6351 42.097 48.667 42.3223 48.6883 42.5483C48.7098 42.5922 48.699 42.6456 48.6883 42.6776V52.1686L48.6895 52.2018C48.6914 52.237 48.694 52.2759 48.6775 52.3085V52.9218C48.7819 52.9532 48.8759 52.9438 48.9795 52.9337L48.9876 52.9325C49.4467 52.9005 49.8847 52.8145 50.291 52.5885C51.0491 52.1792 51.4659 51.5339 51.4766 50.6514V48.8329C51.4766 48.7645 51.4823 48.6961 51.4878 48.627C51.496 48.5329 51.5036 48.4368 51.4979 48.3383C51.5726 48.4023 51.6361 48.4563 51.7008 48.5103C51.9894 48.7469 52.3202 48.9189 52.6838 49.0262C52.9719 49.1129 53.282 49.1555 53.5913 49.1662C53.762 49.1775 53.9334 49.1775 54.1043 49.1662C54.4996 49.1342 54.8732 49.0696 55.2365 48.9082C55.9416 48.5963 56.4544 48.069 56.8279 47.4017C57.1805 46.7778 57.3407 46.0999 57.4054 45.3893C57.413 45.3507 57.4151 45.3112 57.4116 45.2719C57.4104 45.2248 57.4085 45.1778 57.4261 45.1313V44.776C57.4085 44.7289 57.4104 44.6819 57.4123 44.6354C57.4151 44.5961 57.4128 44.5566 57.4046 44.518C57.3939 44.4747 57.3939 44.4207 57.3939 44.3674C57.3765 44.3435 57.3784 44.3203 57.3803 44.2965C57.3815 44.2776 57.3827 44.2575 57.3727 44.2381C57.2767 43.5708 57.0953 42.9362 56.7532 42.3549C56.5076 41.935 56.2195 41.5477 55.8347 41.2464C55.3754 40.8918 54.8517 40.6978 54.2857 40.6332C54.2592 40.6225 54.2291 40.6225 54.1991 40.6225C54.1683 40.6225 54.1363 40.6225 54.1043 40.6118H53.762C53.7288 40.6319 53.6956 40.6306 53.6617 40.6306C53.6422 40.6294 53.6221 40.6294 53.6021 40.6332C52.7477 40.7191 52.0641 41.1604 51.4659 41.7737C51.4659 41.7533 51.4632 41.7331 51.4578 41.7134C51.4558 41.7072 51.4547 41.7021 51.4547 41.6984C51.3907 41.3864 51.252 41.1284 50.9959 40.9345C50.7498 40.7518 50.4616 40.6871 50.1735 40.6332C50.1465 40.6225 50.1196 40.6225 50.0931 40.6225C50.0661 40.6225 50.0398 40.6225 50.0129 40.6118H49.6928C49.6632 40.6294 49.6343 40.6275 49.6047 40.6262C49.5803 40.623 49.5555 40.6254 49.5319 40.6332C49.2118 40.6871 48.9017 40.7625 48.6343 40.9558C48.3665 41.132 48.1612 41.3881 48.0474 41.6877C48.0261 41.7417 48.0261 41.763 48.1008 41.7737C48.2288 41.7844 48.3462 41.849 48.4536 41.935ZM54.5738 46.0566C54.713 45.6799 54.745 45.2926 54.745 44.862C54.7345 44.5067 54.7025 44.1194 54.5631 43.7541C54.3182 43.1402 53.8794 42.7856 53.2173 42.7529C52.5551 42.7209 52.0529 43.0115 51.7435 43.6028C51.5833 43.9041 51.5193 44.2494 51.4979 44.5934C51.4547 45.1633 51.4979 45.7119 51.7647 46.2285C52.0741 46.8205 52.5656 47.1324 53.2385 47.0898C53.9114 47.0571 54.3382 46.6805 54.5738 46.0566ZM66.1537 43.5062C66.143 43.4415 66.143 43.3662 66.143 43.3022C66.1191 43.2701 66.1305 43.2268 66.1379 43.1973C66.1406 43.1873 66.143 43.1785 66.143 43.1722C66.1358 43.0454 66.1179 42.9194 66.0897 42.7956C65.9291 42.0863 65.5662 41.537 64.9358 41.1824C64.4018 40.8811 63.8141 40.7618 63.2159 40.6865C63.1971 40.6771 63.1751 40.6783 63.1527 40.6802C63.125 40.6815 63.0961 40.6834 63.0665 40.6652C63.0021 40.6545 62.9273 40.6545 62.8631 40.6545C62.5466 40.6437 62.2296 40.6437 61.9128 40.6545C61.8489 40.6652 61.7734 40.6652 61.7095 40.6652C61.6806 40.6834 61.6517 40.6815 61.6223 40.6796C61.5985 40.6783 61.5739 40.6771 61.5495 40.6871L61.4113 40.706C61.0836 40.7524 60.7573 40.7982 60.4384 40.9024C59.9476 41.0638 59.4773 41.2678 59.1033 41.6444C59.0925 41.694 59.0925 41.7454 59.1033 41.795C59.1109 41.817 59.1159 41.8396 59.1221 41.8622C59.1345 41.9074 59.146 41.9532 59.1672 41.989C59.4241 42.473 59.7762 42.8496 60.3317 42.9682C60.4384 42.9896 60.5023 42.9789 60.5885 42.9036C61.1867 42.3549 61.8809 42.1936 62.6497 42.4409C63.0021 42.5483 63.2694 42.7856 63.4293 43.1295C63.5769 43.4359 63.5738 43.7585 63.5695 44.0962L63.5683 44.2594C63.0684 44.0557 62.5442 43.9184 62.009 43.8508C61.9713 43.8401 61.9336 43.8401 61.8978 43.8401C61.862 43.8401 61.8276 43.8401 61.7954 43.8288H61.582C61.5366 43.8432 61.4889 43.8481 61.4414 43.8433C61.4032 43.842 61.3643 43.8407 61.3254 43.8508L61.1005 43.8828C60.3209 43.9688 59.6375 44.2594 59.082 44.8407C58.7077 45.2387 58.4624 45.7119 58.3984 46.2612C58.3884 46.2857 58.3903 46.3101 58.3915 46.3346C58.3926 46.3635 58.3946 46.393 58.3769 46.4225V46.8311C58.3946 46.855 58.3926 46.8814 58.3915 46.909C58.3881 46.9335 58.3905 46.9584 58.3984 46.9818C58.4196 47.2724 58.5051 47.5417 58.633 47.789C58.7512 48.0043 58.9111 48.187 59.0925 48.3703C59.3174 48.5962 59.5735 48.7576 59.8509 48.8869C60.2464 49.0696 60.6732 49.1882 61.1113 49.1882C61.2614 49.1989 61.4214 49.1989 61.5708 49.1882C61.6348 49.1882 61.6987 49.1882 61.7529 49.1775C62.3511 49.0802 62.9166 48.8869 63.4188 48.5209C63.4828 48.4669 63.5255 48.4669 63.5688 48.5529C63.6647 48.7576 63.8356 48.8976 64.0275 49.0049C64.3056 49.1555 64.5938 49.1989 64.9038 49.2095C64.9893 49.2202 65.0747 49.2202 65.16 49.2095C65.5868 49.1882 65.9716 49.0802 66.3139 48.8116C66.5593 48.6069 66.7407 48.3703 66.8474 48.069C66.3891 48.0043 66.1964 47.7677 66.1857 47.3264C66.1695 46.4872 66.1714 45.6542 66.173 44.8181C66.1745 44.5394 66.1749 44.2594 66.1749 43.9801C66.1609 43.8949 66.1558 43.8084 66.1606 43.7221C66.1637 43.65 66.1616 43.5779 66.1537 43.5062ZM63.3014 46.9171C63.4835 46.7665 63.6327 46.6158 63.558 46.3585L63.5563 46.3083C63.5544 46.2568 63.5525 46.2022 63.5688 46.1532C63.5795 46.0459 63.5468 45.9812 63.4508 45.9385C63.3881 45.9046 63.3284 45.8714 63.2694 45.8381C63.1563 45.776 63.0465 45.7151 62.9273 45.6586C62.575 45.4973 62.2117 45.368 61.8162 45.4433C61.4321 45.5293 61.09 45.6799 60.9406 46.0779C60.7912 46.4545 60.8551 46.8205 61.1005 47.1431C61.3574 47.4771 61.7095 47.5844 62.105 47.5197C62.575 47.4557 62.9386 47.1971 63.3014 46.9171Z" fill="white"/>
</g>
</g>
<defs>
<clipPath id="clip0_12375_10440">
<rect width="66.549" height="18.3253" fill="white" transform="translate(8.58594 34.6167)"/>
</clipPath>
</defs>
</svg>
