<svg width="97" height="22" viewBox="0 0 97 22" fill="none" xmlns="http://www.w3.org/2000/svg">
    <path d="M7.68184 4.59417H7.43815L0.966797 17.9829H2.54402L7.4923 7.50845L12.5963 17.9829H14.0652L7.68184 4.59417Z" fill="white"/>
    <path d="M24.8214 5.77687C26.9334 5.77687 28.7814 6.8877 29.7697 8.53433L30.9069 7.90051C29.6953 5.87489 27.4208 4.50922 24.8214 4.50922C20.9427 4.50922 17.795 7.54766 17.795 11.2918C17.795 15.0359 20.9427 18.0744 24.8214 18.0744C27.4208 18.0744 29.6885 16.7087 30.9069 14.6831L29.7697 14.0493C28.7814 15.6959 26.9334 16.8067 24.8214 16.8067C21.667 16.8067 19.1082 14.3368 19.1082 11.2918C19.1082 8.24682 21.667 5.77687 24.8214 5.77687Z" fill="white"/>
    <path d="M57.4625 4.66605H55.9868V17.9175H57.4625V4.66605Z" fill="white"/>
    <path d="M71.7726 4.50922C67.8938 4.50922 64.7462 7.54766 64.7462 11.2918C64.7462 15.0359 67.8938 18.0744 71.7726 18.0744C75.6513 18.0744 78.799 15.0359 78.799 11.2918C78.7922 7.54766 75.6513 4.50922 71.7726 4.50922ZM71.7726 16.8067C68.6181 16.8067 66.0594 14.3368 66.0594 11.2918C66.0594 8.24682 68.6181 5.77687 71.7726 5.77687C74.927 5.77687 77.4858 8.24682 77.4858 11.2918C77.4858 14.3368 74.927 16.8067 71.7726 16.8067Z" fill="white"/>
    <path d="M96.6358 4.66605L90.8549 10.8475L85.074 4.66605H84.7153V17.9175H86.0894V8.97213C86.0894 8.87411 86.0827 8.76957 86.0827 8.66502V7.83517L86.9085 8.69115C86.9153 8.69769 86.9153 8.69769 86.922 8.70422L87.8697 9.68436L88.0254 9.84772L90.8617 12.7816L94.8014 8.70422C95.1872 8.25336 95.7491 7.47578 95.7491 7.47578C95.7491 7.47578 95.6272 8.41018 95.6272 8.97866V17.9241H97.0014V4.66605H96.6358Z" fill="white"/>
    <path d="M50.1924 18.0744L46.5235 12.4941L44.75 15.1862L43.985 16.3559L45.1155 18.0744H50.1924Z" fill="white"/>
    <path d="M45.1155 4.50922L43.985 6.22774L44.75 7.39084L45.5758 8.65195L46.5235 10.0895L50.1924 4.50922H45.1155Z" fill="white"/>
    <path d="M38.4208 0.699745H32.0239L38.9894 11.2918L32.0239 21.8838H38.4208L45.3795 11.2918L38.4208 0.699745Z" fill="white"/>
</svg>
