<svg width="135" height="75" viewBox="0 0 135 75" fill="none" xmlns="http://www.w3.org/2000/svg">
<path fill-rule="evenodd" clip-rule="evenodd" d="M31.1113 41.7464L31.4131 40.9155C32.0336 39.2372 31.7653 37.9245 29.8536 37.4426C32.0839 37.0106 33.3751 35.4984 33.9453 33.953L34.1633 33.3715C35.052 30.962 34.3645 29.1674 31.061 29.1674H23.0956L16.958 45.9172H24.9737C28.2773 45.9172 30.2225 44.1392 31.1113 41.7464ZM26.4997 39.8521L26.0302 41.1316C25.7954 41.763 25.3762 42.0455 24.7389 42.0455H23.9005L25.0408 38.9547H25.8793C26.4997 38.9547 26.7345 39.2206 26.4997 39.8521ZM28.663 33.9697L28.1766 35.2824C27.9586 35.8806 27.5226 36.1631 26.9022 36.1631H26.0637L27.1873 33.089H28.0257C28.663 33.089 28.8977 33.3382 28.663 33.9697ZM39.9319 29.1508L29.7194 45.9172H34.6496L36.0917 43.4247H38.8251L38.3724 45.9172H43.9062L46.0024 29.1508H39.9319ZM39.4791 40.1512H37.9867L40.4853 35.5981L39.4791 40.1512ZM79.4403 41.414L77.7801 45.9172H67.1149L71.609 33.6706H67.5341L63.04 45.9172H57.5061L62.0003 33.6706H55.7285L51.2344 45.9172H45.7005L50.1947 33.6706H46.5222L48.1656 29.1674H83.9344L82.3749 33.4213H77.2267L76.4721 35.4652H81.6203L80.2117 39.3203H75.0635L74.2921 41.4307H79.4403V41.414ZM110.866 33.4047L110.128 35.4486H115.276L113.868 39.3037H108.703L107.931 41.414H113.079L111.419 45.9172H90.4074L96.5449 29.1508H102.045L97.5511 41.414H102.381L106.875 29.1508H117.557L115.997 33.4047H110.866ZM91.0782 41.414L89.4348 45.9172H78.9372L85.0748 29.1508H90.5751L86.0809 41.414H91.0782Z" fill="white"/>
</svg>
