<svg width="52" height="19" viewBox="0 0 52 19" fill="none" xmlns="http://www.w3.org/2000/svg">
    <g clip-path="url(#clip0_14082_14824)">
        <path d="M13.0756 0.624622C14.3353 0.624622 15.3566 1.71325 15.3566 3.05657C15.3566 4.40014 14.3353 5.48879 13.0756 5.48879H2.64433C1.38451 5.48879 0.363281 4.40014 0.363281 3.05657C0.363281 1.71325 1.38451 0.624622 2.64433 0.624622H13.0756Z" fill="white"/>
        <path d="M12.0272 6.99753C13.287 6.99753 14.3082 8.0863 14.3082 9.42974C14.3082 10.7729 13.287 11.8617 12.0272 11.8617H6.08995C5.58363 11.8637 5.16908 12.2907 5.1497 12.8252V15.9952C5.1497 17.3383 4.12847 18.4271 2.86904 18.4271C1.60921 18.4271 0.58799 17.3383 0.58799 15.9952V10.6007C0.58799 8.61088 2.10085 6.99753 3.96705 6.99753H12.0272Z" fill="white"/>
        <path d="M16.3924 2.54413C16.3924 1.20096 17.4136 0.112019 18.6733 0.112019C19.9333 0.112019 20.9544 1.20096 20.9544 2.54413V16.0123C20.9544 17.3556 19.9333 18.4445 18.6733 18.4445C17.4136 18.4445 16.3924 17.3556 16.3924 16.0123V2.54413Z" fill="white"/>
        <path d="M44.4659 13.6205L45.3827 13.618C45.57 13.618 45.722 13.4558 45.722 13.2562C45.7228 13.2054 45.7149 13.1602 45.6979 13.1176L42.2895 7.01052L36.9648 16.8414C36.5536 17.6015 35.815 18.0352 35.0485 18.0569C35.0259 18.0603 35.0032 18.0621 34.9794 18.0621H26.3139C24.4475 18.0621 22.9347 16.4489 22.9347 14.4591V2.54413C22.9347 1.20096 23.9559 0.112019 25.2158 0.112019C26.4753 0.112019 27.4967 1.20096 27.4967 2.54413V12.1951C27.4983 12.7353 27.8987 13.1774 28.4003 13.1976H33.2477C33.3725 13.1568 33.7537 13.0185 33.8698 12.8261L39.9585 1.58759C40.4205 0.741782 41.2799 0.172271 42.2636 0.172271C43.2479 0.172271 44.1075 0.74262 44.5674 1.59023L50.5004 12.2115C50.9421 12.8248 51.2047 13.5921 51.2047 14.4249C51.2047 16.4337 49.6774 18.0621 47.7937 18.0621H40.8779C39.7272 18.0621 38.7951 17.0676 38.7951 15.841C38.7951 14.6147 39.7272 13.6205 40.8779 13.6205H44.4659Z" fill="white"/>
    </g>
    <defs>
        <clipPath id="clip0_14082_14824">
            <rect width="50.8418" height="18.3596" fill="white" transform="translate(0.204102 0.354206)"/>
        </clipPath>
    </defs>
</svg>
