<svg width="95" height="23" viewBox="0 0 95 23" fill="none" xmlns="http://www.w3.org/2000/svg">
    <path d="M19.4335 22.8322H20.7229C21.018 22.8322 21.2821 22.5597 21.2977 22.2552V7.4474C21.2977 5.98906 20.1791 4.80315 18.7965 4.80315H17.1343C16.8391 4.80315 16.575 4.53071 16.575 4.22622V2.88005C16.575 1.4217 15.4565 0.235798 14.0739 0.235798H3.37028C1.98766 0.235798 0.869141 1.40568 0.869141 2.88005V17.768C0.869141 19.2103 1.98766 20.3962 3.37028 20.4123H15.7672C15.876 20.4123 15.9847 20.4443 16.0779 20.5084L19.1072 22.752C19.2004 22.8001 19.3247 22.8322 19.4335 22.8322ZM16.4197 18.2808H3.40135C3.09065 18.2808 2.84209 18.0244 2.84209 17.7039V2.91211C2.84209 2.59159 3.09065 2.33518 3.40135 2.33518H14.0428C14.338 2.33518 14.6021 2.60762 14.6021 2.91211V4.22622C14.6021 4.54674 14.3535 4.80315 14.0428 4.80315H6.11997C5.82481 4.80315 5.56071 5.07559 5.56071 5.38008V15.252C5.56071 15.5725 5.80927 15.8289 6.11997 15.8289H16.0158C16.3109 15.8289 16.575 15.5565 16.575 15.252V7.47946C16.575 7.15894 16.8236 6.90253 17.1343 6.90253H18.7499C19.0451 6.90253 19.3092 7.17497 19.3092 7.47946V19.5789C19.3092 19.8834 18.9985 20.0437 18.781 19.8834L16.7614 18.393C16.6372 18.3129 16.5284 18.2808 16.4197 18.2808ZM14.3069 13.7135H7.81329C7.67347 13.7135 7.54919 13.6013 7.54919 13.425V7.15894C7.54919 7.01471 7.65794 6.87048 7.81329 6.87048H14.3069C14.4467 6.87048 14.571 6.98266 14.571 7.15894V13.425C14.571 13.5853 14.4623 13.7135 14.3069 13.7135ZM71.4757 3.39288C72.2991 3.39288 72.9671 2.68775 72.9671 1.82235C72.9671 0.95696 72.2991 0.251822 71.4757 0.251822C70.6524 0.251822 69.9844 0.95696 69.9844 1.82235C69.9844 2.68775 70.6524 3.39288 71.4757 3.39288ZM54.3872 5.70059V4.81917H51.9793V15.7488H54.3872V8.28075L57.1991 7.04676V4.49866H57.168L54.3872 5.70059ZM45.0352 4.80315C43.4661 4.80315 42.1922 5.34803 41.2135 6.43778C40.763 6.95061 40.4213 7.52754 40.1727 8.21664C39.9397 8.88973 39.8154 9.61089 39.8154 10.3481C39.8154 11.8865 40.2348 13.1526 41.0737 14.1302C42.0058 15.2039 43.2797 15.7327 44.8953 15.7327C46.4799 15.7327 47.7382 15.1879 48.7014 14.0981C49.6024 13.0564 50.053 11.7583 50.053 10.1878C50.053 8.61729 49.6024 7.33522 48.7325 6.34162C47.8315 5.31597 46.5887 4.80315 45.0352 4.80315ZM46.9304 12.5757C46.4799 13.1686 45.8274 13.4731 45.0352 13.4731C44.1807 13.4731 43.4661 13.1686 42.9379 12.5596C42.6894 12.2872 42.4874 11.9346 42.3631 11.534C42.2233 11.1333 42.1612 10.7327 42.1612 10.3C42.1612 9.41858 42.3787 8.69742 42.8447 8.07241C43.3418 7.41536 44.0254 7.07881 44.8953 7.07881C45.7498 7.07881 46.4333 7.3833 46.9149 8.00831C47.3654 8.58523 47.614 9.35448 47.614 10.3C47.5984 11.2295 47.3809 11.9987 46.9304 12.5757ZM70.264 4.81917H72.6564V15.7648H70.264V4.81917ZM33.6325 4.80315C32.2654 4.80315 31.1313 5.21982 30.2614 6.06919C29.438 6.87048 29.0341 7.8801 29.0341 9.09806C29.0341 10.1718 29.3914 11.0692 30.1215 11.7904C29.5001 12.3192 29.1894 12.9443 29.1894 13.6814C29.1894 14.1302 29.2516 14.5308 29.3448 14.8673C29.438 15.2199 29.64 15.5084 29.9351 15.7648C28.8477 16.3898 28.3195 17.4155 28.3661 18.8097C28.3972 20.0277 28.8943 20.9892 29.8575 21.7104C30.8362 22.4475 32.1256 22.8001 33.6946 22.8001C35.2792 22.8001 36.4598 22.4796 37.2521 21.8386C38.0599 21.1975 38.4638 20.268 38.4638 19.0661C38.4638 17.8642 38.1376 16.9347 37.5007 16.2776C37.1589 15.925 36.7084 15.6526 36.1647 15.3962C35.6054 15.1558 34.8597 14.9635 33.8966 14.8032C32.9179 14.643 32.2343 14.4667 31.8149 14.2423C31.6129 14.1622 31.4886 14.05 31.442 13.9539C31.3799 13.8577 31.3643 13.7135 31.3643 13.5212C31.3643 13.3289 31.4886 13.0725 31.7217 12.7359C32.2654 12.9282 32.8557 13.0244 33.4926 13.0244C34.7976 13.0244 35.8695 12.6077 36.7084 11.7904C37.0812 11.4058 37.3764 10.9571 37.5784 10.4442C37.7803 9.9314 37.8891 9.3705 37.8891 8.72947C37.8891 8.10446 37.7492 7.49548 37.4696 6.95061C37.4696 6.95061 37.4696 6.93458 37.4541 6.93458H38.4638V4.78713H33.6325V4.80315ZM31.9547 16.6142L32.4518 16.6943C33.8499 16.9187 34.8442 17.2071 35.419 17.5917C35.9316 17.9283 36.1802 18.377 36.1802 18.9379C36.1802 20.1078 35.3879 20.6687 33.8033 20.6687C32.8712 20.6687 32.1256 20.4604 31.5352 20.0757C31.2711 19.8994 31.0692 19.6751 30.9294 19.4347C30.774 19.1943 30.7119 18.9059 30.7119 18.5693C30.7119 18.2328 30.8051 17.8802 31.007 17.5116C31.2245 17.159 31.5352 16.8706 31.9547 16.6142ZM34.984 10.3641C34.5956 10.7327 34.1451 10.925 33.6169 10.925C32.9178 10.925 32.3741 10.7167 31.9391 10.316C31.7372 10.1397 31.6129 9.91538 31.4886 9.70704C31.3954 9.46665 31.3333 9.24229 31.3333 8.98588C31.3333 8.74549 31.3799 8.48908 31.4731 8.24869C31.7838 7.41535 32.4518 7.01471 33.5237 7.01471C34.1607 7.01471 34.6733 7.19099 35.0306 7.54356C35.3879 7.89613 35.5899 8.36088 35.5899 8.93781C35.5899 9.45063 35.3879 9.94743 34.984 10.3641ZM83.2513 7.19099C83.4377 7.68779 83.5309 8.26472 83.5309 8.90575V15.7327H81.1696V15.2199C80.455 15.5565 79.8025 15.7327 79.2122 15.7327C78.4665 15.7327 77.8451 15.6526 77.3169 15.5084C76.7887 15.3641 76.3382 15.1398 75.9809 14.8673C75.2507 14.2904 74.8779 13.4571 74.8779 12.3673C74.8779 11.4058 75.3284 10.5885 76.2294 9.94743C77.2081 9.24229 78.5597 8.88972 80.253 8.88972L80.6414 8.90575C80.688 8.90575 80.7191 8.90575 80.7657 8.90575C80.8123 8.90575 80.8589 8.90575 80.9055 8.90575C80.9521 8.90575 80.9987 8.92178 81.0298 8.92178C81.0764 8.92178 81.123 8.92178 81.154 8.93781C81.0919 7.86408 80.6569 7.20702 79.818 7.04676C79.5539 6.98266 79.2432 6.96663 78.9481 6.96663C78.6218 6.96663 78.3267 6.99868 78.0315 7.04676C77.7208 7.11086 77.4412 7.19099 77.1615 7.28715C76.5557 7.49548 76.0896 7.73587 75.8255 8.00831L75.7945 7.99228L75.4993 5.76469C76.6178 5.13969 77.8762 4.8352 79.2122 4.8352C81.3405 4.80315 82.6765 5.58841 83.2513 7.19099ZM81.1696 13.1366V11.7263V10.7808C80.9832 10.7487 80.8123 10.7327 80.6258 10.7327H80.2375C78.8238 10.7327 77.9228 11.0692 77.5344 11.7263C77.4256 11.9186 77.3635 12.1269 77.3635 12.3353C77.3635 12.5596 77.4101 12.7519 77.4722 12.9122C77.5499 13.0725 77.6742 13.2167 77.8451 13.3289C78.1713 13.5372 78.684 13.6334 79.3364 13.6334C79.9889 13.6334 80.6103 13.4571 81.1696 13.1366ZM92.4014 9.64294C92.8053 9.85127 93.1315 10.0917 93.3801 10.3801C93.8306 10.909 94.0792 11.6141 94.0792 12.5116C94.0792 13.4571 93.7219 14.2423 92.9917 14.8353C92.246 15.4603 91.1897 15.7648 89.8226 15.7648C88.1914 15.7648 86.902 15.4763 86.001 14.8994V12.2071C86.001 12.191 86.0631 12.2551 86.1563 12.3673C86.2495 12.4795 86.4515 12.6077 86.7156 12.784C86.9797 12.9603 87.3059 13.1045 87.6477 13.2327C88.4089 13.5052 89.2012 13.6494 90.0401 13.6494C91.143 13.6494 91.7023 13.2487 91.7023 12.4795C91.7023 12.2391 91.5936 12.0468 91.3761 11.9186C91.0032 11.7103 90.444 11.55 89.7138 11.4539C88.9837 11.3417 88.3778 11.1974 87.9118 10.9891C87.4457 10.7808 87.0573 10.5404 86.7622 10.2519C86.2185 9.70704 85.9388 9.01794 85.9388 8.15254C85.9388 7.09484 86.3272 6.2615 87.0884 5.66854C87.8496 5.07559 88.906 4.7711 90.2576 4.7711C91.5936 4.7711 92.7276 5.17174 93.6753 5.97303C93.6286 6.14932 93.5976 6.3256 93.5354 6.48586C93.3801 6.93458 93.2713 7.25509 93.2092 7.4474L92.9917 8.04036C92.9762 8.10446 92.9606 8.12049 92.9606 8.12049C92.9451 8.12049 92.8985 8.04036 92.8053 7.89613C92.4014 7.39933 91.7644 7.07881 90.9256 6.91855C90.6615 6.85445 90.3974 6.83842 90.1177 6.83842C88.9526 6.83842 88.3623 7.20702 88.3623 7.9442C88.3623 8.18459 88.471 8.39293 88.7196 8.52113C89.1701 8.77755 89.807 8.96986 90.5993 9.09806C91.3916 9.27435 91.9819 9.4346 92.4014 9.64294ZM63.1956 4.80315C61.8285 4.80315 60.6944 5.21982 59.8245 6.06919C59.0011 6.87048 58.5972 7.8801 58.5972 9.09806C58.5972 10.1718 58.9545 11.0692 59.6847 11.7904C59.0633 12.3192 58.7526 12.9443 58.7526 13.6814C58.7526 14.1302 58.8147 14.5308 58.9079 14.8673C59.0011 15.2199 59.2031 15.5084 59.4982 15.7648C58.4108 16.3898 57.8826 17.4155 57.9292 18.8097C57.9603 20.0277 58.4574 20.9892 59.4206 21.7104C60.3993 22.4475 61.6887 22.8001 63.2577 22.8001C64.8423 22.8001 66.0229 22.4796 66.8152 21.8386C67.623 21.1975 68.027 20.268 68.027 19.0661C68.027 17.8642 67.7007 16.9347 67.0638 16.2776C66.722 15.925 66.2715 15.6526 65.7278 15.3962C65.1685 15.1558 64.4228 14.9635 63.4597 14.8032C62.481 14.643 61.7974 14.4667 61.378 14.2423C61.176 14.1622 61.0517 14.05 61.0051 13.9539C60.943 13.8577 60.9275 13.7135 60.9275 13.5212C60.9275 13.3289 61.0517 13.0725 61.2848 12.7359C61.8285 12.9282 62.4188 13.0244 63.0558 13.0244C64.3607 13.0244 65.4326 12.6077 66.2715 11.7904C66.6443 11.4058 66.9395 10.9571 67.1415 10.4442C67.3434 9.9314 67.4522 9.3705 67.4522 8.72947C67.4522 8.10446 67.3123 7.49548 67.0327 6.95061C67.0327 6.95061 67.0327 6.93458 67.0172 6.93458H68.027V4.78713H63.1956V4.80315ZM61.5178 16.6142L62.0149 16.6943C63.4131 16.9187 64.4073 17.2071 64.9821 17.5917C65.4948 17.9283 65.7433 18.377 65.7433 18.9379C65.7433 20.1078 64.951 20.6687 63.3665 20.6687C62.4344 20.6687 61.6887 20.4604 61.0983 20.0757C60.8342 19.8994 60.6323 19.6751 60.4925 19.4347C60.3371 19.1943 60.275 18.9059 60.275 18.5693C60.275 18.2328 60.3682 17.8802 60.5702 17.5116C60.7876 17.159 61.0983 16.8706 61.5178 16.6142ZM64.5471 10.3641C64.1587 10.7327 63.7082 10.925 63.18 10.925C62.481 10.925 61.9372 10.7167 61.5023 10.316C61.3158 10.1397 61.176 9.91538 61.0517 9.70704C60.9585 9.46665 60.8964 9.24229 60.8964 8.98588C60.8964 8.74549 60.943 8.48908 61.0362 8.24869C61.3469 7.41535 62.0149 7.01471 63.0868 7.01471C63.7238 7.01471 64.2364 7.19099 64.5937 7.54356C64.951 7.89613 65.153 8.36088 65.153 8.93781C65.153 9.45063 64.951 9.94743 64.5471 10.3641Z" fill="white"/>
</svg>
