<svg width="116" height="76" viewBox="0 0 116 76" fill="none" xmlns="http://www.w3.org/2000/svg">
<g clip-path="url(#clip0_14883_12632)">
<path d="M26.2123 62.0011H90.0604L58.3057 30.0477L26.2123 62.0011Z" fill="white"/>
<path d="M24.9923 60.4298L29.9667 55.5467L28.3098 53.8367L25.1854 56.9051L19.6815 51.2266L17.8311 53.0432L24.9923 60.4298Z" fill="white"/>
<path d="M31.0585 54.4345L36.1555 49.4294L34.7558 47.9866L31.5194 51.1635L29.9653 49.5602L32.5587 47.0141L31.094 45.5045L28.5006 48.0492L27.1691 46.676L30.299 43.6025L28.9002 42.1602L23.8194 47.1486L31.0585 54.4345Z" fill="white"/>
<path d="M47.7413 30.7072C45.6857 28.5868 42.1198 28.8405 40.4025 30.5268C38.6848 32.2131 37.8082 35.5755 40.2339 38.0775C42.8982 40.8254 46.0682 39.8274 47.786 38.142C50.3185 35.6557 49.417 32.4357 47.7413 30.7072ZM46.2305 36.6899C45.0935 37.8062 43.7034 37.5034 42.1152 35.8649C40.7805 34.4884 40.8607 33.1054 41.8313 32.1523C42.4987 31.497 43.8541 30.9108 45.4668 32.5744C47.3066 34.4721 47.3675 35.5736 46.2305 36.6899Z" fill="white"/>
<path d="M53.4742 32.4681L55.3546 30.6214L52.5257 27.7038L50.8324 20.6144L48.6769 22.7311L49.7982 26.753L46.0097 25.3492L43.9772 27.3443L50.4361 29.4313L53.4742 32.4681Z" fill="white"/>
<path d="M43.4481 42.3225C43.4481 42.3225 38.8715 40.7512 38.6539 40.7893C38.5834 40.8008 39.637 37.9797 37.2699 36.7293C37.2699 36.7293 35.5135 35.7726 33.7556 37.3796L30.0091 41.0949L37.2316 48.4142L39.1425 46.5382L35.2342 42.508L41.552 44.1841L43.4481 42.3225ZM36.3596 41.3175C35.2978 42.3582 35.1544 42.4403 35.1544 42.4403C35.1544 42.4403 33.4897 40.7234 33.4307 40.6626C33.3717 40.6019 34.6212 39.5241 34.818 39.3307C34.9014 39.2486 35.6794 38.738 36.3232 39.4016C36.3232 39.4016 37.4211 40.2749 36.3596 41.3175Z" fill="white"/>
<path d="M52.8907 22.0113L51.2196 20.3158L58.5154 13.034L60.9033 15.4563L58.2748 20.6618L63.6336 18.2265L65.9311 20.5579L58.6352 27.8396L56.8742 26.0532L60.7254 22.2098L55.457 24.615L54.3679 23.5098L56.8166 18.2135L52.8907 22.0113Z" fill="white"/>
<path d="M65.5587 34.8636L60.5 29.7319L67.7963 22.4501L72.8693 27.5971L71.3954 29.0682L68.2171 25.844L67.0285 27.0299L69.5352 29.5732L68.0005 31.1046L65.5089 28.5766L63.9142 30.1678L67.0626 33.3619L65.5587 34.8636Z" fill="white"/>
<path d="M82.2396 37.1036L84.1195 39.0116L78.5986 44.5213L81.687 47.6536L79.9116 49.4267L74.9433 44.3859L82.2396 37.1036Z" fill="white"/>
<path d="M81.2247 50.7591L88.521 43.4773L90.3563 45.3389L83.06 52.6202L81.2247 50.7591Z" fill="white"/>
<path d="M86.3871 55.9975L84.6708 54.256L91.9675 46.9747L94.4595 49.5013L92.3302 57.0618L97.1599 52.2413L98.8311 53.9369L91.5352 61.2182L89.3561 59.0088L91.2324 51.0717L86.3871 55.9975Z" fill="white"/>
<path d="M78.9424 33.7584L74.511 29.2621L67.1994 36.529L69.0794 38.436L73.0656 34.4578L71.6309 41.0249L73.5555 42.9778C73.5555 42.9778 75.0728 38.2802 75.1193 38.0845C75.1193 38.0845 76.7633 38.9958 78.5672 37.4352C78.5672 37.4352 80.2974 35.7387 78.9424 33.7584ZM76.2365 35.888C76.2365 35.888 75.3051 36.5174 74.4842 35.6849L73.202 34.3223C73.202 34.3223 74.7511 32.7761 74.9465 32.5808C74.9465 32.5808 76.1402 33.7922 76.2895 33.9434C76.4384 34.0946 77.3795 34.807 76.2365 35.888Z" fill="white"/>
</g>
<defs>
<clipPath id="clip0_14883_12632">
<rect width="81" height="49" fill="white" transform="translate(17.8311 13.034)"/>
</clipPath>
</defs>
</svg>
