<svg width="98" height="18" viewBox="0 0 98 18" fill="none" xmlns="http://www.w3.org/2000/svg">
    <g clip-path="url(#clip0_14082_14832)">
        <path d="M53.4463 15.8902H65.9637V14.4092H55.5922V9.67027H63.3824V8.17178H55.5922V3.80574H65.9637V2.33016H53.4463V15.8902Z" fill="white"/>
        <path d="M59.9513 0.138155L58.2566 1.98228L63.5766 0.138155H59.9513Z" fill="white"/>
        <path d="M86.9773 14.4092V2.33016H85.0208V15.8902H97.6748V14.4092H86.9773Z" fill="white"/>
        <path d="M74.0746 2.33016L66.9564 15.8902H69.3624L71.1835 12.3804H79.7207L81.5573 15.8902H83.9385L76.8146 2.33016H74.0746ZM72.0845 10.6808L75.4388 4.20388L78.8323 10.6808H72.0845Z" fill="white"/>
        <path d="M46.654 10.22C49.8612 9.3911 50.1728 7.07965 50.1566 6.25331C49.9651 3.83088 48.2801 2.33016 45.2524 2.33016H36.429V15.8902H38.4404V10.2019H44.1846L48.4106 15.8902H50.9458C50.9458 15.8902 47.9046 12.0619 46.654 10.22ZM44.9777 8.59975H38.4404V3.93517H45.2056C46.7631 3.93517 47.6393 4.63949 47.9549 5.53419C48.1637 6.14749 48.0298 6.95258 47.6844 7.5007C47.119 8.40691 46.045 8.59975 44.9777 8.59975Z" fill="white"/>
        <path d="M24.3414 0.0339813C18.6635 0.0339813 14.7935 3.91168 14.7935 8.60504C14.7935 13.546 19.0684 17.034 24.3414 17.034C29.6108 17.034 33.884 13.5958 33.884 8.60504C33.884 3.91168 29.9661 0.0339813 24.3414 0.0339813ZM24.2732 15.3508C20.345 15.3508 17.1083 12.2931 17.1083 8.60962C17.1083 4.93122 20.1922 1.72708 24.4255 1.72708C28.5539 1.72708 31.5887 4.93122 31.5887 8.60962C31.5887 12.2929 28.1998 15.3508 24.2732 15.3508Z" fill="white"/>
        <path d="M9.72769 7.12722H11.1791L13.8135 2.33016H11.6935L9.72769 7.12722Z" fill="white"/>
        <path d="M2.63239 14.4092V2.33016H0.674805V15.8902H13.3283V14.4092H2.63239Z" fill="white"/>
    </g>
    <defs>
        <clipPath id="clip0_14082_14832">
            <rect width="97" height="17" fill="white" transform="translate(0.674805 0.0339813)"/>
        </clipPath>
    </defs>
</svg>
