<svg width="135" height="75" viewBox="0 0 135 75" fill="none" xmlns="http://www.w3.org/2000/svg">
<g clip-path="url(#clip0_14883_12697)">
<path d="M14.0219 39.7312H9.76367V35.5806H14.0219V39.7312ZM9.76367 26.034V33.0905H11.0414V32.8833C11.0414 29.563 12.9576 27.4873 16.5773 27.4873H16.7899V42.4299C16.7899 44.5056 15.9381 45.3351 13.8094 45.3351H13.1709V46.7877H24.2428V45.3351H23.6043C21.4748 45.3351 20.6238 44.5049 20.6238 42.4299V27.4866H20.8363C24.4561 27.4866 26.3723 29.5623 26.3723 32.8826V33.0898H27.65V26.034H9.76367ZM23.391 39.7312H27.6493V35.5806H23.391V39.7312Z" fill="white"/>
<path d="M35.8345 40.0123H39.277C39.5572 41.4042 40.5014 41.9511 41.7761 41.9511C43.2296 41.9511 43.9694 41.156 43.9694 40.087C43.9694 39.0181 43.2551 38.4712 41.9293 38.1234L39.9658 37.5765C37.2632 36.856 36.1665 34.9422 36.1665 32.9038C36.1665 29.7475 38.589 27.7092 41.7513 27.7092C45.1938 27.7092 47.0552 29.6728 47.3864 32.7296H44.0205C43.8162 31.4871 43.0771 30.8655 41.7513 30.8655C40.578 30.8655 39.6857 31.5618 39.6857 32.6798C39.6857 33.7978 40.4759 34.221 41.4193 34.4692L43.3828 34.9912C45.933 35.6377 47.4886 37.4769 47.4886 39.8879C47.4886 43.2185 44.964 45.1074 41.7768 45.1074C38.2577 45.1074 36.1417 43.2931 35.8353 40.0123H35.8345Z" fill="white"/>
<path d="M56.9996 32.7296H60.5187L55.7249 46.0021C55.0617 47.8164 53.787 49.0347 51.6958 49.0347C51.058 49.0347 50.3444 48.96 49.7067 48.7118V46.1515C50.0891 46.2511 50.5735 46.3008 51.058 46.3008C51.8738 46.3008 52.3583 46.0029 52.7414 44.9837L53.0215 44.2633L48.5845 32.7303H52.1036L54.5005 39.9882H54.6538L56.9996 32.7303V32.7296Z" fill="white"/>
<path d="M61.2541 41.3046H64.3143C64.4931 42.1744 65.079 42.5471 65.9465 42.5471C66.8141 42.5471 67.3745 42.1246 67.3745 41.4283C67.3745 40.7321 66.8134 40.3843 65.9976 40.161L64.3143 39.7385C62.5296 39.2663 61.4074 38.1724 61.4074 36.0851C61.4074 33.9977 63.141 32.3569 65.9465 32.3569C68.5478 32.3569 70.2814 33.7985 70.5368 36.2095H67.3745C67.2468 35.3397 66.7623 34.9173 65.9465 34.9173C65.1308 34.9173 64.6208 35.4144 64.6208 36.036C64.6208 36.6576 65.0031 37.0054 65.7174 37.1547L67.3752 37.5772C69.4664 38.0992 70.5623 39.3168 70.5623 41.1809C70.5623 43.567 68.7776 45.1082 65.9465 45.1082C63.1155 45.1082 61.4584 43.6914 61.2549 41.3053L61.2541 41.3046Z" fill="white"/>
<path d="M74.3226 41.1801V35.4635H72.2314V32.7296H74.3226V30.7908L76.9997 28.3798H77.6119V32.7296H80.7487V35.4635H77.6119V40.7826C77.6119 41.6773 78.1474 42.1495 79.0909 42.1495C79.5754 42.1495 80.0599 42.0748 80.4933 41.9753V44.4858C79.8045 44.7838 79.0653 44.9083 78.1474 44.9083C75.8782 44.9083 74.3226 43.616 74.3226 41.1801Z" fill="white"/>
<path d="M93.1358 39.4903H85.4351C85.6138 41.752 86.5573 42.3984 87.8064 42.3984C88.801 42.3984 89.4642 42.0258 89.7699 41.2797H93.0848C92.6003 43.6409 90.5091 45.1074 87.8064 45.1074C84.5172 45.1074 82.2983 42.796 82.2983 38.7194C82.2983 34.6427 84.4406 32.3313 87.8831 32.3313C91.0957 32.3313 93.1869 34.7174 93.1869 38.3709C93.1869 38.7933 93.1869 39.2158 93.1358 39.4896V39.4903ZM85.5372 37.1789H90.0764C89.8466 35.563 88.9797 35.041 87.8831 35.041C86.6842 35.041 85.8429 35.563 85.5372 37.1789Z" fill="white"/>
<path d="M113.038 36.7813V44.7099H109.749V37.1789C109.749 36.0104 109.316 35.265 108.142 35.265C106.868 35.265 106.026 36.1846 106.026 37.676V44.7099H102.736V37.1789C102.736 36.0104 102.303 35.265 101.13 35.265C99.8804 35.265 99.0384 36.2095 99.0384 37.676V44.7099H95.7491V32.7296H98.8348V34.1961H98.988C99.6258 33.0276 100.798 32.332 102.277 32.332C103.935 32.332 105.031 32.9785 105.567 34.2459H105.72C106.409 33.0034 107.709 32.332 109.29 32.332C111.789 32.332 113.038 33.8483 113.038 36.7813Z" fill="white"/>
<path d="M115.456 41.3046H118.516C118.695 42.1744 119.281 42.5471 120.149 42.5471C121.016 42.5471 121.577 42.1246 121.577 41.4283C121.577 40.7321 121.015 40.3843 120.2 40.161L118.516 39.7385C116.732 39.2663 115.609 38.1724 115.609 36.0851C115.609 33.9977 117.343 32.3569 120.149 32.3569C122.75 32.3569 124.484 33.7985 124.739 36.2095H121.577C121.449 35.3397 120.964 34.9173 120.149 34.9173C119.333 34.9173 118.823 35.4144 118.823 36.036C118.823 36.6576 119.205 37.0054 119.92 37.1547L121.577 37.5772C123.669 38.0992 124.764 39.3168 124.764 41.1809C124.764 43.567 122.98 45.1082 120.149 45.1082C117.318 45.1082 115.661 43.6914 115.457 41.3053L115.456 41.3046Z" fill="white"/>
</g>
<defs>
<clipPath id="clip0_14883_12697">
<rect width="115" height="23" fill="white" transform="translate(9.76367 26.034)"/>
</clipPath>
</defs>
</svg>
